<?xml version="1.0" encoding="UTF-8" standalone="no"?>
<!-- Created with Inkscape (http://www.inkscape.org/) -->

<svg
   xmlns:dc="http://purl.org/dc/elements/1.1/"
   xmlns:cc="http://creativecommons.org/ns#"
   xmlns:rdf="http://www.w3.org/1999/02/22-rdf-syntax-ns#"
   xmlns:svg="http://www.w3.org/2000/svg"
   xmlns="http://www.w3.org/2000/svg"
   xmlns:sodipodi="http://sodipodi.sourceforge.net/DTD/sodipodi-0.dtd"
   xmlns:inkscape="http://www.inkscape.org/namespaces/inkscape"
   version="1.1"
   id="svg2949"
   width="283"
   height="443"
   viewBox="0 0 283 443"
   sodipodi:docname="feu117.svg"
   inkscape:version="0.92.4 (5da689c313, 2019-01-14)">
  <metadata
     id="metadata2955">
    <rdf:RDF>
      <cc:Work
         rdf:about="">
        <dc:format>image/svg+xml</dc:format>
        <dc:type
           rdf:resource="http://purl.org/dc/dcmitype/StillImage" />
        <dc:title></dc:title>
      </cc:Work>
    </rdf:RDF>
  </metadata>
  <defs
     id="defs2953" />
  <sodipodi:namedview
     pagecolor="#ffffff"
     bordercolor="#666666"
     borderopacity="1"
     objecttolerance="10"
     gridtolerance="10"
     guidetolerance="10"
     inkscape:pageopacity="0"
     inkscape:pageshadow="2"
     inkscape:window-width="1280"
     inkscape:window-height="972"
     id="namedview2951"
     showgrid="false"
     inkscape:zoom="1.5067919"
     inkscape:cx="147.84438"
     inkscape:cy="221.34636"
     inkscape:window-x="-8"
     inkscape:window-y="-8"
     inkscape:window-maximized="1"
     inkscape:current-layer="g534"
     showguides="true" />
  <g
     id="g151"
     transform="translate(25.882805,-2.654647)">
    <g
       id="g534"
       transform="translate(-21.900834,-45.792654)">
      <path
         style="fill:#00ff00"
         d="m 37.665241,466.86684 c -0.733196,-1.36999 -0.944377,-4.13022 -0.559336,-7.31076 l 0.618597,-5.10978 -3.637732,6.75 c -2.495916,4.6313 -4.224889,6.75 -5.508368,6.75 -2.884461,0 -2.365631,-4.82791 1.10734,-10.30422 1.637887,-2.58269 2.772015,-4.69578 2.520286,-4.69578 -0.251729,0 -2.829318,1.79806 -5.727976,3.9957 -5.24427,3.97597 -8.096557,4.90343 -9.265106,3.01267 -0.910742,-1.47361 3.554003,-5.49793 9.368517,-8.44438 2.819467,-1.42872 5.126303,-2.75602 5.126303,-2.94955 0,-0.19353 -2.5875,0.28641 -5.75,1.06653 -10.646807,2.62637 -13.139503,2.77056 -13.894276,0.80364 -1.039108,-2.70786 2.286649,-4.48461 8.394423,-4.48461 6.454299,0 6.153806,-1.5039 -0.48785,-2.44158 -7.116115,-1.00466 -8.262297,-1.50765 -8.262297,-3.62581 0,-1.57438 0.695111,-1.92447 3.75,-1.88872 2.0625,0.0241 5.532774,0.67887 7.711719,1.45495 5.508859,1.9621 5.411073,1.29405 -0.262588,-1.79394 -5.756532,-3.1331 -8.645727,-6.09871 -7.881584,-8.09003 0.796555,-2.07579 4.381269,-0.96328 9.182453,2.84976 6.799154,5.39982 6.985655,5.07081 1.141714,-2.01407 -3.503737,-4.24774 -5.291701,-7.20058 -4.711386,-7.78089 1.503647,-1.50365 3.808091,-0.0443 6.390965,4.04723 4.260011,6.74829 5.761063,7.02738 3.109083,0.57806 -2.898646,-7.04918 -3.086731,-9.5669 -0.680376,-9.10755 1.155445,0.22055 2.484771,2.53876 3.912708,6.82332 l 2.162707,6.48927 0.102605,-6 c 0.117866,-6.89236 1.09609,-9.08846 3.617363,-8.12097 1.529044,0.58675 1.681816,1.69762 1.22338,8.89572 -0.28812,4.52388 -0.325329,7.32524 -0.08269,6.22524 1.148046,-5.20459 4.569036,-14.5 5.336437,-14.5 2.508311,0 2.181474,2.80515 -1.500413,12.87762 -0.880106,2.40769 -1.445858,4.53196 -1.257225,4.72059 0.188632,0.18863 2.017668,-2.5688 4.064523,-6.12762 2.59943,-4.51956 4.31692,-6.47058 5.696082,-6.47058 3.611349,0 2.16248,3.52058 -4.930501,11.98052 -3.921241,4.67695 -4.169448,5.20879 -1.69281,3.62725 1.596191,-1.01931 4.89316,-3.37304 7.326596,-5.23053 4.906554,-3.74525 7.017784,-4.20131 7.969381,-1.72148 0.824523,2.14867 -2.383618,4.77907 -10.49747,8.60702 -3.46463,1.63455 -6.119555,3.15167 -5.899834,3.37139 0.219722,0.21972 4.303238,-0.52764 9.07448,-1.66081 8.832208,-2.09764 10.624681,-1.99466 10.624681,0.61041 0,2.16578 -4.273171,3.41233 -11.8151,3.44664 -7.366498,0.0335 -6.885248,0.96349 1.515572,2.92874 5.817637,1.36094 8.329287,3.41109 6.464061,5.27632 -0.867605,0.8676 -2.430723,0.74137 -6.353562,-0.51311 -2.861572,-0.91509 -5.371308,-1.49536 -5.57719,-1.28947 -0.205882,0.20588 1.682292,1.78932 4.195944,3.51876 4.267992,2.93645 5.447813,4.83748 3.938792,6.3465 -0.904175,0.90417 -4.334817,-1.04139 -8.231386,-4.66814 l -3.362869,-3.13001 2.112869,4.21015 c 2.165082,4.31421 2.77312,8.28985 1.267857,8.28985 -1.399103,0 -3.982917,-3.34393 -5.63027,-7.28661 -0.853357,-2.04237 -1.804445,-3.71339 -2.11353,-3.71339 -0.309084,0 -0.415545,2.76662 -0.23658,6.14803 0.349517,6.60386 -1.092315,8.74276 -3.217133,4.77251 z m 195.709189,0.41279 c -1.30613,-1.30613 -0.63435,-7.91573 1.32976,-13.08333 1.09748,-2.8875 1.77727,-5.25 1.51065,-5.25 -0.26662,0 -2.27769,3.56597 -4.46906,7.92437 -4.2596,8.47193 -5.57145,9.94219 -7.31514,8.19851 -1.43618,-1.43618 1.0734,-6.79608 6.08162,-12.98895 l 3.6955,-4.56965 -7.43556,6.21785 c -7.31213,6.11466 -10.06444,7.4657 -10.06444,4.94038 0,-2.30323 2.8553,-5.42118 7.97037,-8.70351 2.7663,-1.77512 5.02963,-3.41163 5.02963,-3.63668 0,-0.22503 -1.6875,0.31412 -3.75,1.19811 -10.53303,4.51454 -14.25,4.99334 -14.25,1.83562 0,-2.00629 3.86322,-4.12358 9,-4.93256 7.88035,-1.24107 7.93796,-2.37024 0.1202,-2.35628 -7.74002,0.0138 -9.81823,-0.86579 -8.73219,-3.69597 0.56042,-1.46043 1.61267,-1.61521 7.38278,-1.08597 l 6.72921,0.61721 -5.75,-2.99728 c -5.58514,-2.91134 -7.24982,-5.45244 -4.31074,-6.58027 0.79159,-0.30377 2.53494,0.0479 3.87411,0.78138 1.33918,0.73352 3.95401,2.17255 5.81075,3.19784 l 3.37588,1.86415 -3.64131,-3.86415 c -3.94229,-4.18356 -5.55013,-7.81878 -3.90729,-8.83412 1.8387,-1.13638 4.12082,1.00032 8.60286,8.05464 2.41654,3.80343 4.40542,6.63141 4.41973,6.28439 0.0143,-0.34702 -1.12199,-3.68091 -2.52511,-7.40864 -2.63407,-6.99808 -2.88618,-11.49837 -0.68465,-12.22138 1.5709,-0.51592 3.81026,4.68479 4.76107,11.05716 0.99471,6.66651 1.88562,5.00139 2.4747,-4.62525 0.45854,-7.49338 0.68365,-8.19707 2.71465,-8.48587 3.50123,-0.49787 3.97852,3.82071 1.3934,12.60752 -2.51309,8.54196 -2.2694,10.53808 0.4248,3.47969 2.67223,-7.00082 6.8641,-13.72505 8.78701,-14.09537 2.97577,-0.57308 1.93057,4.47557 -2.31986,11.20565 -2.2,3.48346 -4,6.68751 -4,7.12012 0,0.43261 2.7612,-2.2268 6.13599,-5.9098 4.33287,-4.72856 6.7342,-6.60768 8.17167,-6.39462 3.51171,0.52051 3.04747,2.77464 -1.36024,6.60472 -11.43315,9.93483 -11.30297,9.59441 -2.02496,5.29505 8.19508,-3.79755 11.07754,-4.21739 11.07754,-1.6135 0,1.86364 -2.22196,3.40341 -7.1409,4.94849 l -4.3591,1.36923 5.64301,0.0989 c 4.07975,0.0715 5.80587,0.52328 6.2309,1.63088 0.80886,2.10785 -3.13055,3.46057 -10.18901,3.49871 l -5.6849,0.0307 5.40498,2.21928 c 5.95195,2.44387 8.52599,5.19546 6.2111,6.63953 -1.69545,1.05766 -6.11637,-0.13285 -10.83765,-2.91848 -1.94177,-1.14567 -3.70293,-1.9106 -3.91368,-1.69985 -0.21076,0.21075 1.87096,2.45962 4.62603,4.99747 5.32041,4.90094 5.99916,6.3835 3.38223,7.38771 -1.11891,0.42937 -3.17903,-0.9857 -6.59699,-4.53138 -2.7335,-2.83567 -5.11983,-5.15573 -5.30296,-5.15573 -0.18312,0 0.76053,2.69106 2.097,5.98012 2.82221,6.9455 3.00415,8.8623 0.91721,9.66314 -2.61408,1.00312 -4.20898,-1.45718 -6.10974,-9.42492 l -1.84126,-7.71834 -0.75936,7 c -0.41764,3.85 -1.20366,8.0125 -1.74669,9.25 -0.96029,2.18835 -3.01352,2.93337 -4.36355,1.58333 z M 166.3445,439.44204 c -1.06033,-2.76319 -0.7306,-6.00812 1.2861,-12.65665 1.05757,-3.4865 1.39507,-5.51166 0.75,-4.50036 -6.23469,9.77452 -9.36997,14.11915 -10.42284,14.4432 -1.81897,0.55984 -1.57283,-4.26912 0.29668,-5.82068 0.85067,-0.706 2.50558,-2.6736 3.67757,-4.37245 l 2.13089,-3.08881 -2.42757,2.06538 c -3.95656,3.36625 -7.72152,5.43463 -9.89239,5.43463 -1.11935,0 -2.03518,-0.25458 -2.03518,-0.56574 0,-2.16105 2.92768,-4.98071 7.33572,-7.06509 2.84035,-1.34308 4.03928,-2.20201 2.66428,-1.90873 -6.43862,1.37334 -12.77124,1.71872 -13.38238,0.72987 -1.00298,-1.62286 3.41826,-4.18246 7.35489,-4.25799 2.83542,-0.0544 3.13511,-0.22967 1.52749,-0.89331 -1.1,-0.4541 -3.8,-1.21114 -6,-1.68232 -2.50814,-0.53717 -4,-1.41614 -4,-2.35669 0,-1.66305 5.27228,-1.98996 11.5,-0.71308 3.82761,0.78479 3.10658,0.35067 -5.32271,-3.20465 -3.99615,-1.68552 -4.76684,-2.42388 -4.49676,-4.3082 0.45304,-3.16087 3.59182,-2.64162 9.54461,1.57893 7.69807,5.45797 10.18879,6.29174 4.99133,1.67085 -5.81029,-5.16572 -8.55173,-9.76611 -6.32822,-10.61935 0.89616,-0.34389 3.26855,1.3011 6.15521,4.26796 2.58637,2.65824 4.35964,3.92881 3.94623,2.82754 -0.41292,-1.10001 -0.97275,-4.3625 -1.24406,-7.25 -0.39865,-4.24271 -0.20226,-5.25 1.02355,-5.25 1.8466,0 2.61432,1.72044 4.23922,9.5 l 1.2532,6 0.1192,-6.55888 c 0.11408,-6.27717 2.0379,-11.35577 3.67972,-9.71393 0.96291,0.96291 1.0285,5.44925 0.14287,9.77281 l -0.71693,3.5 1.60666,-3.5 c 3.55711,-7.74893 4.04094,-8.49843 5.69125,-8.81626 2.71268,-0.5224 2.11596,3.4358 -1.3878,9.20565 l -3.10343,5.1106 4.39128,-4.25 c 7.22548,-6.99301 10.99639,-5.11117 4.06558,2.02889 l -3.75,3.86322 5.5,-2.17677 c 3.025,-1.19722 6.05871,-2.40087 6.74157,-2.6748 1.78114,-0.71449 2.71252,2.45739 1.2419,4.22938 -0.68215,0.82194 -3.32,2.13487 -5.86187,2.91761 l -4.6216,1.42318 4.31574,0.0696 c 4.88319,0.0788 8.18426,1.48964 8.18426,3.49783 0,2.11078 -2.87981,2.72979 -9.97611,2.14437 -5.26488,-0.43435 -5.90619,-0.34549 -3.32312,0.46044 1.76042,0.54927 3.47448,1.44154 3.80902,1.98284 0.33453,0.54129 1.48169,0.98416 2.54923,0.98416 2.03637,0 5.94098,3.28616 5.94098,5 0,2.14143 -5.79364,0.83665 -10.73497,-2.4176 -9.07093,-5.97392 -9.07515,-5.94727 -0.5257,3.32156 3.89823,4.22623 5.65236,9.09604 3.27645,9.09604 -1.96007,0 -7.06414,-5.62064 -9.98905,-11 -3.64646,-6.70641 -3.93071,-5.08749 -0.52673,3 2.6185,6.22129 3.17791,10.46299 1.5154,11.49048 -1.64192,1.01476 -4.8749,-5.51779 -5.59901,-11.31335 -0.82897,-6.63487 -1.92777,-5.15996 -2.84802,3.82287 -0.6966,6.79965 -2.71908,10.65559 -3.93163,7.49575 z M 52.148471,415.85036 c -0.372531,-0.60277 -0.386369,-3.86527 -0.03075,-7.25 l 0.646574,-6.15406 -2.181951,3.5 c -1.200073,1.925 -2.798166,4.5125 -3.551318,5.75 -1.381065,2.26922 -3.759149,2.97177 -4.73185,1.3979 -0.289643,-0.46866 0.358799,-2.5888 1.440983,-4.71144 2.882153,-5.65317 2.441661,-6.09746 -2.035274,-2.05282 -4.283654,3.87002 -6.70656,4.53712 -7.640379,2.10363 -0.799987,-2.08474 1.052407,-4.04086 6.777119,-7.15664 6.415438,-3.49172 5.612034,-4.05071 -1.238523,-0.86173 -6.809367,3.16979 -10.895336,3.34984 -10.895336,0.48006 0,-2.18939 4.955984,-4.88799 9.217881,-5.01925 2.148857,-0.0662 2.165331,-0.11649 0.282119,-0.86161 -1.1,-0.43523 -2.515333,-0.59856 -3.145185,-0.36295 -0.629852,0.23561 -3.020546,-0.0766 -5.312653,-0.6938 -3.07917,-0.82914 -4.077814,-1.56471 -3.824154,-2.81676 0.287767,-1.42042 1.511345,-1.6725 7.562652,-1.55806 3.970637,0.0751 7.21934,-0.0248 7.21934,-0.22206 0,-0.19723 -2.474702,-1.07802 -5.499337,-1.9573 -6.789976,-1.9739 -9.291881,-4.09452 -7.245281,-6.14112 1.456985,-1.45699 1.81159,-1.38212 9.994618,2.11032 2.0625,0.88026 3.75,1.40613 3.75,1.16861 0,-0.23752 -1.6875,-1.45731 -3.75,-2.71063 -4.297022,-2.61119 -5.213254,-3.68489 -5.234687,-6.13435 -0.02739,-3.12973 4.325533,-1.99624 8.783242,2.28713 4.824903,4.6362 5.187794,4.23039 1.6894,-1.8892 -3.181184,-5.56471 -3.286209,-8.40334 -0.294784,-7.96748 1.59217,0.23198 2.824971,1.82673 4.498728,5.81955 l 2.305556,5.5 -0.627938,-7.25 c -0.601991,-6.95042 -0.538934,-7.25 1.526023,-7.25 2.803539,0 4.068737,3.3836 4.230957,11.31509 l 0.126497,6.18491 0.876897,-6.82209 c 0.965871,-7.51428 2.236507,-10.67791 4.288661,-10.67791 2.372983,0 2.382417,3.5308 0.02969,11.11237 -1.260897,4.0632 -1.864282,6.71263 -1.340855,5.88763 0.523426,-0.825 2.401905,-3.96903 4.174397,-6.98674 3.620975,-6.16479 6.718216,-7.79859 6.718216,-3.54388 0,1.48633 -1.740953,4.97266 -4.031544,8.07332 -2.217349,3.00151 -3.822154,5.4573 -3.566233,5.4573 0.255922,0 3.268865,-2.25 6.69543,-5 3.426565,-2.75 6.63626,-5 7.132655,-5 0.496395,0 0.760147,1.21836 0.586114,2.70747 -0.297273,2.54361 -2.724081,4.89409 -10.842371,10.50134 -1.850859,1.27838 -0.652569,1.08946 4.757168,-0.75 7.893492,-2.684 10.79928,-3.0275 11.807725,-1.3958 1.357168,2.19595 -2.678226,4.81145 -8.390269,5.43807 -9.446458,1.03629 -10.534887,2.11203 -2.960563,2.92606 6.863517,0.73764 9.321179,2.13077 7.878098,4.46572 -0.658626,1.06568 -1.853199,1.10408 -6.088724,0.19572 -2.898137,-0.62154 -5.436819,-0.96259 -5.641515,-0.75789 -0.204696,0.2047 1.603439,1.42023 4.018079,2.7012 4.956642,2.62949 7.376243,5.63781 5.801268,7.21278 -1.533159,1.53316 -5.300966,0.18806 -10.41828,-3.7193 -2.539381,-1.93896 -4.885819,-3.52537 -5.214308,-3.52537 -0.328489,0 1.219515,2.67531 3.440009,5.94513 4.110717,6.05329 4.855071,8.4314 2.998251,9.57898 -1.572639,0.97194 -5.884319,-4.34969 -8.526811,-10.52411 l -2.353859,-5.5 -0.05381,6 c -0.0296,3.3 -0.325155,7.0125 -0.656792,8.25 -0.635783,2.37241 -2.785735,3.00392 -3.929009,1.15406 z M 220.08567,404.31587 c -0.38145,-1.51982 -0.2615,-5.37576 0.26657,-8.56874 1.10883,-6.70466 0.57616,-6.45856 -2.59562,1.19917 -2.58234,6.23462 -3.7869,8 -5.4586,8 -2.02177,0 -1.69781,-5.69687 0.55022,-9.67553 l 2.16089,-3.82447 -4.58379,4.85036 c -2.52108,2.6677 -5.06389,4.55364 -5.65068,4.19098 -2.13645,-1.32039 -0.97726,-4.54366 2.93623,-8.16457 2.20173,-2.03711 3.7876,-3.91937 3.52417,-4.1828 -0.26343,-0.26344 -1.14394,0.0729 -1.95667,0.74741 -0.81274,0.67452 -3.55326,1.85104 -6.09005,2.6145 -4.50574,1.35603 -4.60504,1.33857 -4.29646,-0.75556 0.23971,-1.62675 1.7627,-2.64097 6.31588,-4.206 l 6,-2.06233 -5.70855,-0.52455 c -9.6975,-0.89108 -10.48783,-4.9584 -0.97002,-4.99213 3.84127,-0.0136 4.15476,-0.18198 2.82143,-1.51531 -0.825,-0.825 -2.64131,-1.5 -4.03625,-1.5 -1.4533,0 -2.96323,-0.79783 -3.53624,-1.86852 -2.08905,-3.90342 1.5405,-4.14068 9.65112,-0.63088 l 5.77851,2.5006 -3.0711,-2.7506 c -1.6891,-1.51283 -4.31221,-3.6506 -5.82912,-4.7506 -3.46055,-2.50943 -3.95775,-5.87663 -0.93149,-6.30836 2.13018,-0.30389 3.04427,0.49151 11.27193,9.80836 2.85277,3.23043 2.78155,2.98151 -0.9247,-3.23193 -4.50793,-7.55745 -5.22023,-11.76807 -1.99077,-11.76807 1.17742,0 2.38584,0.9416 2.88759,2.25 3.7235,9.70968 3.78003,9.75994 3.28999,2.92557 -0.28278,-3.94378 -0.0298,-6.74811 0.6721,-7.45 2.08521,-2.08522 3.28297,0.8166 3.88463,9.41123 l 0.58545,8.3632 1.83931,-8.33736 c 1.95999,-8.88439 3.27606,-12.16264 4.88275,-12.16264 2.50826,0 2.26465,5.21832 -0.63021,13.5 -0.3845,1.1 1.04752,-0.34925 3.18227,-3.22055 2.13475,-2.8713 4.66887,-5.23379 5.63137,-5.25 2.9623,-0.0499 2.03971,4.26219 -1.93427,9.04055 -2.02635,2.4365 -4.38885,5.29586 -5.25,6.35415 -1.00787,1.23859 0.0376,0.84333 2.93427,-1.10937 8.33444,-5.6184 11.04794,-6.69542 12.70187,-5.04149 1.27098,1.27098 0.97321,1.8493 -2.37432,4.61128 -2.10515,1.73692 -6.07755,4.03803 -8.82755,5.11357 l -5,1.95554 9.22699,-0.61859 c 8.19271,-0.54925 9.30196,-0.42324 9.89572,1.12408 1.02627,2.67441 -1.32836,3.50443 -10.12271,3.5683 l -8,0.0581 8.42372,2.72838 c 8.6347,2.79671 10.2043,4.12193 8.01148,6.76412 -1.60872,1.93838 -5.87107,1.1103 -11.9352,-2.31876 l -4.5,-2.5446 5.93021,5.45182 c 4.28581,3.94007 5.7503,5.92066 5.28139,7.14263 -1.10661,2.88376 -3.54471,1.89437 -8.77065,-3.55918 l -5.03087,-5.25 2.69643,5.63409 c 2.93684,6.13641 2.78421,10.2548 -0.28642,7.72853 -0.91094,-0.74944 -2.90996,-4.06262 -4.44228,-7.36262 l -2.78603,-6 -0.14557,5.5 c -0.19018,7.18553 -1.14738,10.41506 -3.20433,10.81119 -1.12131,0.21595 -1.89841,-0.58668 -2.36397,-2.44161 z M 112.89832,384.9324 c -0.44382,-1.19976 -0.47611,-4.49995 -0.0718,-7.33374 1.45998,-10.23182 0.91667,-10.36737 -3.6168,-0.90236 -2.74355,5.72801 -5.01524,9.25 -5.96625,9.25 -2.99612,0 -1.78104,-3.93159 4.48133,-14.5 l 2.37022,-4 -5.94365,5.48736 c -3.26901,3.01805 -6.538288,6.05555 -7.265078,6.75 -0.72674,0.69444 -2.220538,1.26264 -3.319506,1.26264 -3.965565,0 -1.632105,-4.25834 5.140976,-9.3818 3.574998,-2.70429 5.599998,-4.56416 4.499998,-4.13305 -10.632832,4.1672 -16.639172,5.77566 -17.68018,4.73465 -1.750575,-1.75057 0.556621,-3.84159 6.507147,-5.89744 l 5.173035,-1.78722 -5.499996,-0.52809 c -6.064324,-0.58229 -8,-1.42881 -8,-3.49868 0,-2.02909 3.495778,-2.78565 9.858145,-2.13351 l 5.641851,0.57831 -4.693685,-2.30741 c -5.763786,-2.83346 -7.806311,-4.47355 -7.806311,-6.2682 0,-1.83094 4.133555,-1.76642 8.685659,0.13557 1.991777,0.83222 3.772637,1.36191 3.957447,1.17709 0.18482,-0.18482 -1.00928,-1.62491 -2.65354,-3.20022 -2.898362,-2.77681 -3.857838,-5.83535 -2.159788,-6.88481 0.456378,-0.28205 3.156378,1.70628 5.999996,4.41852 2.84362,2.71224 5.17022,4.7015 5.17022,4.42057 0,-0.28093 -1.125,-2.73086 -2.5,-5.44429 -2.68812,-5.30476 -3.15415,-8.47768 -1.40404,-9.55931 1.71333,-1.05889 3.60398,1.50511 6.31149,8.55931 l 2.49479,6.5 0.0489,-8.69098 c 0.0485,-8.61778 1.03371,-11.22419 3.36254,-8.89536 0.62666,0.62666 1.37495,5.06495 1.66286,9.86286 l 0.52346,8.72349 2.43609,-7.782 c 2.46523,-7.87507 4.12144,-10.41851 6.02011,-9.24507 1.76674,1.09191 1.18499,3.78889 -2.4562,11.38677 -1.925,4.0168 -3.5,7.50807 -3.5,7.75837 0,0.25031 2.7516,-2.48636 6.11466,-6.08148 5.86687,-6.27171 9.88534,-8.2924 9.88534,-4.97085 0,2.77808 -1.78248,5.02323 -7.47451,9.41459 -3.067,2.36618 -5.36318,4.51532 -5.10262,4.77588 0.26056,0.26055 3.38262,-1.153 6.93792,-3.14124 6.63002,-3.70771 12.63921,-4.77147 12.63921,-2.23741 0,2.17056 -2.17871,3.47241 -11.1414,6.6573 -8.04537,2.85893 -8.17123,2.9504 -3.3586,2.44093 2.75,-0.29113 6.575,-0.74705 8.5,-1.01317 4.11526,-0.5689 6.5408,0.6857 5.6771,2.93646 -0.48534,1.26477 -2.2482,1.62269 -8.39572,1.70461 l -7.78138,0.1037 6.51788,2.1463 c 7.7726,2.55948 8.98212,3.27516 8.98212,5.31473 0,2.02126 -4.58227,1.43937 -11.75,-1.49209 -2.8875,-1.18093 -5.25,-1.98344 -5.25,-1.78335 0,0.20009 2.475,2.27325 5.5,4.60702 3.20866,2.47546 5.5,5.02577 5.5,6.1216 0,3.31302 -2.79654,2.03361 -9.73126,-4.452 -3.7228,-3.48172 -7.55862,-6.61852 -8.52403,-6.97064 -1.5945,-0.5816 -1.68791,-0.11626 -1.01972,5.0804 1.10374,8.58409 0.93669,13.48169 -0.47623,13.96242 -0.68819,0.23414 -1.61438,-0.55591 -2.0582,-1.75568 z m 8.89613,-2.34583 c -2.00687,-3.24719 -5.08669,-10.97657 -5.08669,-12.766 0,-2.41591 2.18829,-0.18287 5.99526,6.11789 3.85492,6.3801 4.62256,10.00784 2.11768,10.00784 -0.5224,0 -1.88421,-1.51189 -3.02625,-3.35973 z m 58.60106,-20.45154 c -0.30924,-1.5462 -0.15123,-4.5837 0.35114,-6.75 1.49427,-6.44357 1.08419,-6.28942 -2.8205,1.06024 -4.0649,7.65119 -7.21839,9.72741 -7.21839,4.75249 0,-1.66309 1.26486,-4.56686 2.97218,-6.82332 4.3509,-5.7503 3.70938,-6.00629 -2.45969,-0.98151 -6.98084,5.68597 -9.18488,6.89248 -10.04594,5.49924 -1.45064,-2.34718 0.64925,-5.9643 4.64636,-8.00347 4.65582,-2.37523 4.72644,-3.47956 0.1198,-1.87368 -4.61781,1.60977 -8.73271,0.87058 -8.73271,-1.56872 0,-1.62543 1.21735,-2.3094 6.5,-3.65204 l 6.5,-1.65204 -7.12756,-0.098 c -5.23956,-0.072 -7.48109,-0.52395 -8.46225,-1.70617 -1.95668,-2.35766 1.49463,-4.69067 5.83981,-3.94758 1.7875,0.30568 4.9375,0.80514 7,1.10989 l 3.75,0.5541 -5,-2.52386 c -5.24009,-2.64505 -8.87569,-6.16744 -7.93562,-7.6885 1.07936,-1.74644 4.276,-0.85126 9.2993,2.60416 2.79846,1.925 5.31704,3.5 5.59686,3.5 0.27981,0 -1.2824,-2.3625 -3.47159,-5.25 -4.17468,-5.50633 -4.93375,-8.17347 -2.58291,-9.07557 1.5727,-0.6035 3.3666,1.1473 6.48127,6.32557 2.40119,3.99207 2.73331,2.3697 0.70684,-3.45279 -1.60292,-4.60547 -1.14495,-6.54717 1.54422,-6.54717 2.23214,0 2.76218,1.13076 4.41048,9.40911 l 1.21275,6.09089 0.1192,-7.16821 c 0.13341,-8.02254 0.72411,-10.33179 2.64286,-10.33179 1.87302,0 2.24152,1.70024 1.84225,8.5 l -0.35231,6 1.39686,-4.77849 c 1.71059,-5.85176 4.14378,-9.72151 6.11259,-9.72151 2.28847,0 1.79343,4.44195 -1.14025,10.23129 l -2.61721,5.1648 5.27345,-4.74128 c 5.04157,-4.5328 7.84673,-5.50194 8.68009,-2.99883 0.51932,1.55984 -5.04086,7.76171 -9.34166,10.41975 -5.55276,3.43179 -3.05499,3.45869 2.93493,0.0316 5.69214,-3.25672 10.6876,-4.08044 10.6876,-1.76233 0,2.32677 -3.2517,4.39833 -11,7.00777 l -7.5,2.52582 9.60602,-0.57678 c 10.08442,-0.6055 12.39201,0.18824 9.76159,3.3577 -1.04239,1.256 -2.61717,1.45601 -7.83609,0.99524 -5.28879,-0.46694 -6.05585,-0.36532 -4.03152,0.53407 9.12845,4.05567 11,5.14464 11,6.40038 0,1.86641 -5.67744,1.81014 -9,-0.0892 -4.41954,-2.52644 -4.44358,-1.60229 -0.0635,2.44137 4.05945,3.74766 4.812,5.9758 2.301,6.8128 -0.62564,0.20855 -3.16465,-1.48938 -5.64226,-3.77316 l -4.50475,-4.15233 1.06365,3.33566 c 2.06512,6.4763 2.19394,8.83566 0.48242,8.83566 -2.07386,0 -4.21326,-3.49489 -5.20327,-8.5 l -0.7912,-4 -0.67399,5.60755 c -0.37069,3.08416 -0.99172,6.12166 -1.38005,6.75 -1.27877,2.0691 -3.32808,1.19226 -3.90029,-1.66882 z M 29.940514,353.31296 c -0.529371,-1.02667 -0.740071,-2.54166 -0.468223,-3.36666 0.600715,-1.82304 4.124783,-9.83222 5.390043,-12.25 1.862281,-3.55863 -0.04783,-1.55949 -5.016198,5.25 -5.419405,7.42766 -8.13837,8.86915 -8.13837,4.31464 0,-2.0002 1.594656,-4.18554 6.25,-8.56507 l 6.25,-5.87971 -8.256777,5.16946 c -8.172364,5.11661 -11.751801,5.84003 -11.057492,2.23477 0.183449,-0.95257 3.254207,-3.46569 6.823906,-5.5847 3.5697,-2.11901 5.590363,-3.60771 4.490363,-3.30823 -10.81152,2.94353 -15.333774,3.21559 -16.193865,0.97423 -1.0017953,-2.61063 2.090002,-4.06274 11.505754,-5.40385 l 8.688111,-1.23747 -6.989985,-1.91923 c -7.501482,-2.05967 -10.699654,-4.13707 -9.835587,-6.3888 0.870173,-2.26763 4.354524,-1.63477 11.825572,2.14787 6.085901,3.08134 6.608243,3.21179 4,0.99899 -1.65,-1.39984 -4.575,-3.53565 -6.5,-4.74625 -4.06315,-2.55523 -4.963623,-3.64935 -4.984687,-6.05665 -0.03279,-3.74731 4.536547,-1.90065 10.332467,4.17576 3.108721,3.25917 5.65222,5.56045 5.65222,5.11396 0,-0.4465 -1.763843,-3.45319 -3.91965,-6.68154 -4.36958,-6.54349 -5.840145,-10.77057 -4.117401,-11.83528 2.077302,-1.28384 5.526317,2.1555 7.407409,7.38664 1.026047,2.85334 1.988083,5.05347 2.137857,4.88918 0.149775,-0.1643 -0.168023,-3.16793 -0.706218,-6.67474 -0.824513,-5.37242 -0.729664,-6.62488 0.602591,-7.95714 1.057695,-1.05769 1.913314,-1.24894 2.584563,-0.57769 1.45729,1.45729 3.237608,12.09265 2.846498,17.00456 -0.184607,2.31846 0.0019,4.00679 0.414351,3.75182 0.4125,-0.25496 0.75,-1.38025 0.75,-2.50064 0,-3.67081 3.166801,-13.30426 5.002034,-15.21625 0.987928,-1.02924 2.291623,-1.56518 2.8971,-1.19098 2.140976,1.3232 1.052091,6.55994 -2.940241,14.14039 -2.222608,4.22019 -3.870857,7.84332 -3.662775,8.0514 0.208082,0.20808 3.393251,-3.22342 7.078153,-7.62556 4.194938,-5.01146 7.433718,-8.00389 8.662776,-8.00389 3.9651,0 1.987171,3.77301 -5.287047,10.08535 -10.950745,9.5027 -10.961055,9.56943 -0.62623,4.05224 10.234696,-5.46373 12.577543,-6.07953 13.544359,-3.56005 0.977122,2.54633 -1.69684,4.25587 -9.964064,6.37027 -11.951969,3.0568 -11.950492,3.75308 0.0069,3.2604 8.852271,-0.36471 11.07695,-0.16867 12.102059,1.06651 1.024624,1.2346 0.939724,1.82966 -0.460881,3.23026 -1.351998,1.35199 -2.687609,1.57726 -6.284518,1.05995 -11.842217,-1.70318 -14.367176,-1.85861 -13.741243,-0.84582 0.35174,0.56912 3.234693,2.06106 6.406564,3.3154 3.17187,1.25435 6.788811,3.19689 8.037647,4.31674 1.940157,1.73978 2.068,2.23871 0.878438,3.42827 -1.189563,1.18957 -1.95662,1.10059 -5.27061,-0.61134 -2.133141,-1.10194 -6.105923,-3.60059 -8.828404,-5.55255 -2.722481,-1.95197 -5.13246,-3.36654 -5.355508,-3.14349 -0.223048,0.22305 1.597946,3.02056 4.046653,6.2167 5.397396,7.04487 7.04648,10.0367 6.246048,11.33183 -1.786124,2.89001 -6.027092,-0.8025 -9.499143,-8.27067 -1.214586,-2.6125 -2.386406,-4.75 -2.604045,-4.75 -0.217639,0 -0.101695,3.825 0.257654,8.5 0.57052,7.42226 0.448929,8.5 -0.958982,8.5 -2.890889,0 -3.932498,-3.7729 -3.280028,-11.88087 l 0.613131,-7.61913 -2.399109,8.85549 c -2.670805,9.85836 -4.767441,13.14625 -6.383957,10.01117 z M 133.94287,298.4031 c -3.9149,-1.64608 -6.57278,-6.44365 -5.34649,-9.6506 2.96326,-7.74944 13.99629,-8.79701 17.67744,-1.67847 1.27815,2.47167 1.28536,3.2921 0.0549,6.23707 -1.55828,3.72949 -2.3456,4.40904 -6.4831,5.59566 -1.785,0.51194 -3.92076,0.32969 -5.90272,-0.50366 z m -25.99418,-1.7068 c -2.7785,-2.96609 -4.48692,-7.63378 -3.79828,-10.37754 0.68127,-2.71438 8.31326,-5.90153 11.94758,-4.98938 1.36234,0.34193 3.45289,1.99222 4.64566,3.66731 2.55932,3.59423 2.12204,8.32959 -1.08729,11.7744 -2.80441,3.01018 -8.854,2.97153 -11.70767,-0.0748 z m 49.06183,-1.94696 c -2.36916,-1.14465 -4.30276,-5.51105 -4.30276,-9.71636 0,-4.89621 11.0867,-7.60543 15.75,-3.84877 1.34075,1.08008 1.70162,9.53985 0.48469,11.36239 -2.08964,3.12952 -7.82302,4.18795 -11.93193,2.20274 z M 86.090707,290.367 c -5.968562,-2.95213 -7.108779,-9.79072 -2.306216,-13.83181 3.603529,-3.03218 10.142107,-3.52477 13.700771,-1.03219 3.269068,2.28976 3.138148,9.61856 -0.23204,12.98875 -1.350001,1.35 -3.113197,2.45455 -3.918214,2.45455 -0.805017,0 -2.062971,0.21655 -2.795455,0.48122 -0.732483,0.26467 -2.734463,-0.21256 -4.448846,-1.06052 z m 92.269053,-5.91156 c -2.16112,-2.16111 -3.9397,-8.22672 -3.23527,-11.03339 0.75471,-3.00702 3.50755,-4.53882 8.51568,-4.73854 6.51823,-0.25993 10.08425,4.65224 7.98811,11.0036 -1.71641,5.2008 -9.8964,8.14045 -13.26852,4.76833 z M 61.815176,276.83121 c -1.083776,-1.1633 -2.271787,-3.89837 -2.640025,-6.07797 -0.958717,-5.6746 2.076064,-8.80694 8.532615,-8.80694 7.001589,0 10.46289,4.47454 8.688409,11.23181 -1.397334,5.32108 -10.826225,7.68338 -14.580999,3.6531 z m 65.392584,-1.42107 c -7.10434,-3.60863 -8.56901,-9.5451 -3.42327,-13.87495 4.30472,-3.62219 9.16886,-3.49716 13.00019,0.33418 1.6077,1.60769 2.92308,3.88004 2.92308,5.04966 0,3.33075 -2.59698,7.52261 -5.47206,8.83257 -3.29883,1.50306 -3.40694,1.49781 -7.02794,-0.34146 z m 21.75632,-2.49266 c -1.23402,-0.49613 -3.15635,-2.38011 -4.27184,-4.18662 -3.46786,-5.61613 -0.58591,-11.32587 6.27891,-12.43989 9.11115,-1.47852 13.47059,12.72172 5.07929,16.54505 -2.84451,1.29605 -4.03135,1.30969 -7.08636,0.0815 z m -47.33324,-3.89427 c -5.023191,-5.02319 -3.327308,-11.79832 3.51879,-14.05773 6.32832,-2.08854 13.42661,3.75018 12.06973,9.92798 -1.54401,7.02985 -10.35436,9.36392 -15.58852,4.12975 z m 93.21864,0.37612 c -4.27848,-5.43921 -3.44255,-11.61612 1.96358,-14.50938 5.61658,-3.00592 14.68575,3.35109 13.46791,9.44029 -0.97947,4.89733 -4.25466,7.61606 -9.17494,7.61606 -3.36649,0 -4.67075,-0.53096 -6.25655,-2.54697 z m -24.77167,-5.89343 c -3.62226,-1.57635 -4.35256,-2.54818 -5.39792,-7.18318 -0.65899,-2.9219 -0.36308,-3.81691 2.15226,-6.50959 2.52927,-2.70759 3.39458,-3.04431 6.51999,-2.53712 3.70322,0.60096 6.80479,2.77252 8.50964,5.95806 1.68423,3.14703 -0.8605,8.69163 -4.73139,10.309 -3.94399,1.6479 -3.17115,1.65197 -7.05258,-0.0372 z M 42.277171,259.42669 c -8.13057,-8.77304 4.952762,-20.95647 14.076649,-13.10843 2.156591,1.85502 2.734352,3.19144 2.650998,6.13204 -0.144889,5.11144 -3.445408,8.28045 -9.486444,9.10848 -4.229178,0.57966 -4.915231,0.37766 -7.241203,-2.13209 z m 36.560768,-1.02432 c -3.966222,-3.33735 -4.596002,-5.67216 -2.641165,-9.79167 4.181421,-8.81169 16.510992,-6.89385 16.510992,2.56825 0,4.98842 -0.795041,6.61 -4.071521,8.30434 -4.024639,2.08121 -6.344467,1.82529 -9.798306,-1.08092 z m 134.979891,-2.8109 c -3.18925,-1.82195 -5.03146,-5.359 -5.07463,-9.74331 -0.0318,-3.23403 0.36305,-3.77782 3.90264,-5.37395 4.5652,-2.05862 7.7476,-1.56252 11.68112,1.82096 7.218,6.20866 -2.15574,18.06846 -10.50913,13.2963 z m -87.65552,-6.09973 c -3.61399,-3.61398 -3.35397,-8.61085 0.62218,-11.95656 4.16742,-3.50665 8.27371,-3.3923 12.00019,0.33419 3.31205,3.31205 3.56429,4.93627 1.41273,9.09694 -2.8646,5.53952 -9.77719,6.78335 -14.0351,2.52543 z m 59.52757,-1.29545 c -4.23107,-3.8156 -4.49518,-9.55177 -0.59429,-12.90717 3.84523,-3.30753 8.05187,-3.05698 11.81241,0.70356 2.63216,2.63217 2.96623,3.54998 2.45683,6.75 -0.68364,4.2947 -4.58943,8.20361 -8.19706,8.20361 -1.33565,0 -3.8007,-1.2375 -5.47789,-2.75 z m -80.09407,0.25036 c -3.03662,-1.65037 -5.34488,-6.48567 -4.44683,-9.31515 1.26893,-3.99806 5.28613,-7.18521 9.05649,-7.18521 9.39466,0 11.76558,12.90291 3.04077,16.54837 -4.18245,1.74754 -4.3486,1.74649 -7.65043,-0.048 z m 41.77426,-2.91972 c -3.33822,-3.602 -4.03081,-6.96736 -2.17318,-10.55962 2.75053,-5.31894 7.6665,-6.44293 13.26087,-3.03198 2.86312,1.74568 3.25,2.49824 3.25,6.32195 0,5.23139 -2.87218,8.46945 -8.2927,9.34908 -3.00287,0.4873 -3.97667,0.15232 -6.04499,-2.07943 z m -84.245072,-0.72929 c -3.259393,-0.86895 -5.417232,-4.18179 -5.417232,-8.31684 0,-2.81513 5.332192,-6.53451 9.368034,-6.53451 5.247456,0 8.439618,6.75385 5.653075,11.96056 -1.348639,2.51995 -5.879432,3.88374 -9.603877,2.89079 z m -32.052681,-3.97305 c -5.588202,-2.83067 -5.623156,-11.50325 -0.06029,-14.95886 2.324494,-1.44395 4.149934,-1.82 6.695739,-1.37935 4.701378,0.81374 6.131552,2.43599 6.706234,7.60685 0.409303,3.68282 0.106314,4.7056 -1.967825,6.64267 -2.83761,2.65009 -8.289199,3.65122 -11.373858,2.08869 z m 54.135449,-2.64361 c -0.55,-0.40408 -1.746575,-2.08484 -2.659055,-3.73502 -4.927045,-8.91037 7.605443,-18.14419 14.825981,-10.92365 2.19988,2.19988 2.4943,3.18526 2.01638,6.74844 -0.72043,5.37123 -4.347558,8.68154 -9.48907,8.66023 -2.03183,-0.008 -4.144236,-0.34592 -4.694236,-0.75 z m 82.358144,-2.68511 c -3.939,-2.67662 -4.85815,-4.28033 -4.85815,-8.47638 0,-3.63216 2.89015,-6.11465 7.90128,-6.78677 10.71497,-1.43719 14.51701,12.1339 4.56442,16.29236 -4.18979,1.75061 -3.34938,1.86429 -7.60755,-1.02921 z m 57.05519,0.16862 c -2.47223,-1.89813 -3.91334,-5.2591 -3.91334,-9.12678 0,-2.95944 0.51664,-3.80722 3.14996,-5.16897 7.28082,-3.76505 13.34439,-1.31323 14.50958,5.86698 0.52303,3.22302 0.20185,4.03764 -2.63776,6.69023 -3.46838,3.23996 -8.19035,3.97898 -11.10844,1.73854 z m -24.60738,-4.91372 c -1.20672,-0.58309 -2.84502,-2.69014 -3.64068,-4.68232 -1.31095,-3.28241 -1.2733,-3.96233 0.40144,-7.24883 2.06235,-4.04713 3.51366,-4.87333 8.56052,-4.87333 4.61083,0 8.37838,3.69862 8.35745,8.20455 -0.0177,3.81427 -0.45583,4.57425 -4.36955,7.57992 -3.1149,2.3922 -5.84933,2.69181 -9.30918,1.02001 z M 51.966332,227.41296 c -3.609689,-1.51776 -5.258566,-4.1292 -5.258566,-8.32835 0,-3.61287 3.951018,-7.13832 8,-7.13832 3.982098,0 8,3.52848 8,7.02553 0,7.08991 -4.864112,10.91237 -10.741434,8.44114 z m 71.790768,-2.21667 c -4.39476,-4.05257 -4.44941,-7.99706 -0.15146,-10.93071 6.8566,-4.6801 14.10212,-1.63714 14.10212,5.92258 0,7.20295 -8.32829,10.19271 -13.95066,5.00813 z m 19.64463,-3.27609 c -3.71432,-2.92168 -4.18361,-5.44559 -1.74593,-9.38984 2.41423,-3.9063 3.75629,-4.58407 9.07704,-4.58407 8.2836,0 9.72797,10.49074 1.99494,14.48965 -3.92663,2.03054 -6.25251,1.90192 -9.32605,-0.51574 z m -73.51965,-2.28836 c -1.590593,-1.69311 -2.174314,-3.56616 -2.174314,-6.97695 0,-3.94959 0.408453,-4.93012 2.671335,-6.41282 4.058833,-2.65945 10.048892,-2.30774 12.380696,0.72695 2.893387,3.76554 2.504355,8.57473 -0.975108,12.05419 -3.725532,3.72554 -8.733839,3.98163 -11.902609,0.60863 z m 33.02635,0.28677 c -2.74002,-2.55271 -3.756568,-6.45683 -2.43594,-9.35531 1.42764,-3.13331 8.45582,-5.18251 12.30554,-3.5879 3.93979,1.63191 5.61193,6.75097 3.52406,10.78848 -0.8362,1.61702 -2.24881,3.21958 -3.13913,3.56123 -3.27326,1.25607 -8.10845,0.59288 -10.25453,-1.4065 z m 78.00153,-1.09228 c -3.11022,-2.01542 -3.28087,-2.4283 -3,-7.25851 0.28201,-4.85003 0.50367,-5.22205 4.18125,-7.01764 4.61689,-2.25422 7.88249,-1.48715 10.89466,2.55906 2.3103,3.1034 1.87363,6.0146 -1.50678,10.04535 -3.14594,3.75117 -6.53332,4.28696 -10.56913,1.67174 z m -158.893857,-0.0745 c -2.366113,-1.1434 -3.09022,-2.42892 -4.359932,-7.74023 -1.038069,-4.34232 0.04221,-6.35844 4.554234,-8.49954 3.382249,-1.60498 3.767925,-1.59862 7.267712,0.11966 6.481045,3.18199 7.006984,11.65047 0.952812,15.34186 -3.586575,2.18682 -5.192617,2.33536 -8.414826,0.77825 z m 210.739447,-5.56576 c -1.36265,-1.1034 -2.38797,-3.35709 -2.74778,-6.03972 -0.8124,-6.05692 2.1665,-9.20006 8.71932,-9.20006 6.97255,0 9.86141,4.49896 7.55501,11.76578 -1.46776,4.62451 -9.54415,6.69875 -13.52655,3.474 z m -25.12471,-5.16286 c -4.1276,-4.1276 -3.95276,-8.05416 0.5102,-11.45823 7.39818,-5.64286 16.49506,-1.82166 15.1908,6.381 -1.23375,7.75929 -10.13919,10.63904 -15.701,5.07723 z m -49.0894,-0.82692 c -1.39727,-1.5125 -2.81884,-3.54141 -3.15904,-4.50868 -1.69983,-4.83311 4.77222,-10.50195 10.64824,-9.32674 4.62226,0.92445 6.67712,3.32052 6.67712,7.78586 0,8.06733 -8.82195,11.83465 -14.16632,6.04956 z m -33.83368,-1.25 c -2.87315,-2.87315 -2.58659,-7.55186 0.64602,-10.54775 3.23399,-2.99716 6.24213,-3.11467 9.71912,-0.37967 5.52892,4.34905 2.30051,12.92742 -4.86514,12.92742 -2.16667,0 -4.2619,-0.7619 -5.5,-2 z m -82.181323,-0.49558 c -3.188941,-1.77961 -4.504278,-5.85388 -3.924634,-12.15659 0.124486,-1.35359 5.366872,-3.34783 8.800641,-3.34783 3.593743,0 7.305322,4.23917 7.305322,8.34376 0,6.54749 -6.467473,10.34933 -12.181329,7.16066 z m 48.663524,-0.41184 c -2.73765,-1.16184 -4.717394,-5.14503 -4.314284,-8.68022 0.651006,-5.7092 9.901995,-8.1996 14.262153,-3.83943 2.09272,2.09273 1.99493,7.69362 -0.18007,10.31327 -1.989208,2.39589 -6.774353,3.47677 -9.767799,2.20638 z m 96.678439,-5.61549 c -2.62756,-3.34039 -2.81438,-8.57549 -0.38452,-10.77448 0.97687,-0.88406 3.64492,-1.90621 5.929,-2.27145 3.60771,-0.57689 4.49038,-0.32656 6.72388,1.90693 5.30636,5.30636 2.32305,12.48467 -5.55782,13.37296 -4.07245,0.45903 -4.77664,0.2246 -6.71054,-2.23396 z M 60.608976,197.84053 c -4.022291,-4.30587 -3.957799,-8.82739 0.175515,-12.30535 4.374517,-3.68091 8.979878,-3.49877 12.334381,0.48784 3.171666,3.76931 3.277514,6.75689 0.373368,10.53841 -2.951556,3.84325 -3.781317,4.35153 -7.133264,4.36955 -1.910221,0.0103 -3.804631,-1.00792 -5.75,-3.09045 z m 47.687674,0.029 c -3.23648,-3.84633 -3.27174,-6.33133 -0.13434,-9.46872 3.32024,-3.32025 9.73867,-3.44448 11.98875,-0.23204 2.29944,3.28292 1.93338,7.49172 -0.89785,10.32294 -3.49588,3.49589 -7.69193,3.25761 -10.95656,-0.62218 z m 32.86566,0.62218 c -2.44038,-2.44037 -3.31733,-7.70745 -1.68924,-10.14575 2.28371,-3.42016 9.33466,-4.41883 13.01218,-1.843 1.66503,1.16624 2.22251,2.55721 2.22251,5.54546 0,5.04007 -3.4685,8.89784 -8,8.89784 -1.94837,0 -3.99822,-0.90731 -5.54545,-2.45455 z M 19.897522,193.59343 c -2.705126,-1.50111 -6.173715,-6.43285 -6.183167,-8.79138 -0.0036,-0.90434 1.298955,-3.04184 2.894621,-4.75 2.342847,-2.50803 3.698805,-3.10576 7.045454,-3.10576 10.092776,0 12.778833,12.70979 3.504963,16.58466 -4.058797,1.69587 -4.314409,1.69807 -7.261871,0.0625 z m 217.635248,-0.68526 c -2.20409,-1.28602 -4.1509,-7.33334 -3.28245,-10.19618 1.26715,-4.17714 4.52728,-6.7657 8.52097,-6.7657 4.80571,0 7.84612,2.55571 8.59342,7.22346 0.52924,3.30568 0.20043,4.11916 -2.93041,7.25 -3.63423,3.63423 -7.44637,4.5044 -10.90153,2.48842 z m -113.23612,-8.03861 c -5.61018,-6.66732 -2.1705,-13.9854 6.63059,-14.10685 3.32892,-0.046 4.64337,0.48538 6.4784,2.61874 2.6711,3.10533 2.88419,5.53856 0.8325,9.50608 -1.41081,2.72823 -5.82919,5.05876 -9.59071,5.05876 -0.96904,0 -2.92688,-1.38453 -4.35078,-3.07673 z m 40.12857,0.30371 c -3.79566,-3.96181 -3.83485,-10.20288 -0.0826,-13.1544 3.94686,-3.1046 10.79746,-2.86861 12.96979,0.44679 3.46374,5.28633 -0.48527,13.53955 -7.13719,14.91635 -2.48234,0.51379 -3.52559,0.11304 -5.75,-2.20874 z m 47.84272,0.6417 c -3.98391,-3.13375 -5.00145,-6.54209 -2.91189,-9.75366 2.5403,-3.90433 4.4593,-5.04802 8.52913,-5.08322 7.3857,-0.0639 10.39161,8.55301 4.8995,14.04512 -3.47084,3.47084 -6.79288,3.72094 -10.51674,0.79176 z M 85.728329,184.8681 c -6.673354,-2.76444 -8.282403,-9.17505 -3.209568,-12.78723 6.006881,-4.27727 11.888766,-3.54963 14.662331,1.81383 3.679958,7.11627 -3.69828,14.1857 -11.452763,10.9734 z m -44.707018,-3.86649 c -2.533058,-1.54906 -3.25408,-2.72853 -3.51625,-5.75198 -0.635168,-7.32502 3.438492,-11.46491 9.728141,-9.88631 4.150256,1.04165 6.474564,4.12285 6.474564,8.58297 0,4.14457 -2.61119,8 -5.418213,8 -0.780016,0 -2.017516,0.22589 -2.75,0.50198 -0.732483,0.27609 -2.765692,-0.37491 -4.518242,-1.44666 z M 146.32,181.07031 c -0.93375,-1.03179 -1.95217,-3.44391 -2.26315,-5.36027 -0.45294,-2.79111 -0.1085,-3.90999 1.7313,-5.62403 5.45797,-5.08487 13.91961,-2.03396 13.91961,5.0188 0,6.2564 -9.35289,10.42398 -13.38776,5.9655 z m -42.78038,-0.65311 c -3.08097,-1.67321 -4.505858,-6.34302 -2.86879,-9.40192 1.28445,-2.40001 6.04046,-5.069 9.03272,-5.069 3.16708,0 7.00421,4.38266 7.00421,8 0,6.41909 -6.96304,9.84077 -13.16814,6.47092 z m 85.53222,-2.64051 c -4.34159,-2.10224 -5.74049,-9.454 -2.42901,-12.76548 2.67616,-2.67615 8.80603,-4.27384 11.29231,-2.94324 2.59356,1.38803 4.96036,7.28213 4.17718,10.40256 -1.30792,5.21115 -7.78975,7.84861 -13.04048,5.30616 z M 65.207766,177.00093 c -3.124509,-1.27883 -5.268928,-4.22133 -6.017825,-8.25745 -0.591575,-3.18824 -0.321859,-4.04126 1.940879,-6.1383 3.351311,-3.10589 6.708202,-3.73572 10.394724,-1.95028 6.319115,3.06044 6.184794,11.27258 -0.249421,15.24914 -1.817434,1.12324 -3.47631,2.01373 -3.686391,1.97886 -0.210081,-0.0349 -1.281966,-0.43175 -2.381966,-0.88197 z m -47.518953,-7.80464 c -7.104521,-6.40465 -3.903402,-15.25 5.518953,-15.25 5.679369,0 9.5,3.22554 9.5,8.0203 0,4.5335 -1.435698,6.53675 -5.991063,8.35945 -5.283272,2.11394 -5.453351,2.09266 -9.02789,-1.12975 z m 97.385987,-2.96802 c -6.71202,-5.60756 -4.0329,-12.99881 5.39517,-14.88442 2.63747,-0.5275 3.65848,-0.13071 6.19773,2.40853 3.76221,3.76221 3.83377,6.28192 0.29006,10.21286 -3.45404,3.83148 -8.78939,4.84756 -11.88296,2.26303 z m 19.86192,1.04873 c -1.79194,-0.72099 -4.22896,-5.75878 -4.22896,-8.74208 0,-5.43892 8.64478,-9.36184 13.54905,-6.14844 3.76165,2.46473 4.79767,6.02689 2.90989,10.00511 -2.14792,4.52641 -7.65484,6.7262 -12.22998,4.88541 z m -47.040393,-2.36967 c -1.591842,-1.48302 -2.188561,-3.20398 -2.188561,-6.31194 0,-3.55535 0.486989,-4.63303 2.899683,-6.41681 4.179064,-3.08972 7.411318,-3.63995 10.871433,-1.85065 8.086898,4.18191 3.966728,16.61836 -5.505631,16.61836 -2.530876,0 -4.652422,-0.71183 -6.076924,-2.03896 z m 72.038773,-1.61148 c -1.68299,-1.5843 -3.28998,-4.33033 -3.61919,-6.1845 -1.61414,-9.09108 13.81153,-12.8087 17.3819,-4.18908 2.19443,5.29783 -1.49858,11.37573 -7.66092,12.60819 -2.49105,0.49821 -3.64935,0.074 -6.10179,-2.23461 z m 74.94697,0.33599 c -2.42457,-2.58084 -2.88792,-8.17326 -0.89251,-10.77221 1.72541,-2.24728 5.16532,-3.91334 8.07988,-3.91334 6.16668,0 9.09584,10.92176 4.00346,14.92742 -3.55335,2.79507 -8.43693,2.68952 -11.19083,-0.24187 z m -26.71976,-2.1401 c -1.78043,-1.78042 -2.45455,-3.54319 -2.45455,-6.41844 0,-3.42189 0.46053,-4.24851 3.36803,-6.04545 4.57992,-2.83054 9.11273,-2.69171 12.17742,0.37299 2.69794,2.69793 3.27157,7.89847 1.17275,10.63211 -3.44502,4.487 -10.51262,5.20983 -14.26365,1.45879 z M 46.201633,157.68729 c -3.514404,-1.95905 -4.502002,-3.5212 -5.132016,-8.11766 -0.589345,-4.29974 -0.467729,-4.58857 2.760824,-6.55686 4.522521,-2.75717 8.090765,-2.5992 11.8006,0.52242 2.309942,1.94369 3.076725,3.42511 3.076725,5.94423 0,6.14777 -7.441006,11.03136 -12.506133,8.20787 z m 134.616857,-3.30128 c -1.88943,-1.58985 -3.29969,-3.93002 -3.72067,-6.17404 -0.61307,-3.26797 -0.33068,-3.93199 2.95131,-6.93971 4.70525,-4.31204 8.70003,-4.43841 12.73555,-0.40289 1.6077,1.60769 2.92308,3.88004 2.92308,5.04966 0,3.71199 -3.00669,8.13211 -6.5343,9.60604 -4.50442,1.88207 -4.81486,1.83974 -8.35497,-1.13906 z M 70.140282,154.23595 c -0.940688,-0.94069 -2.345636,-3.23082 -3.122106,-5.08917 -1.324736,-3.17054 -1.257761,-3.58073 1.086461,-6.65416 4.335493,-5.68413 12.024504,-5.49973 15.055233,0.36105 2.244811,4.341 1.948418,5.89211 -1.852104,9.69263 -3.842002,3.84199 -8.335298,4.52185 -11.167484,1.68965 z m 31.640058,-4.92452 c -3.845548,-4.88882 -2.298788,-10.47532 3.42321,-12.36374 4.56454,-1.50644 9.1698,-0.4414 11.14833,2.57822 1.84151,2.8105 1.295,5.95677 -1.69497,9.7579 -1.69521,2.15512 -2.92418,2.66248 -6.44915,2.66248 -3.51353,0 -4.75524,-0.50903 -6.42742,-2.63486 z m 42.94713,-0.65673 c -4.95879,-2.49474 -6.36424,-8.72939 -2.94713,-13.07355 1.65862,-2.10859 2.92206,-2.63486 6.32569,-2.63486 5.72826,0 8.86972,3.18538 8.41889,8.53661 -0.48249,5.72712 -6.90655,9.63238 -11.79745,7.1718 z M 22.32001,146.07032 c -2.796779,-3.0904 -3.118579,-8.21061 -0.708588,-11.27442 3.125149,-3.97298 7.171599,-5.05833 11.247051,-3.01671 5.566374,2.78851 6.376311,9.73492 1.648626,14.13943 -2.888806,2.69134 -9.81078,2.7775 -12.187089,0.1517 z m 102.38775,1.17659 c -2.55863,-0.92365 -4.9545,-4.66287 -4.97776,-7.76878 -0.0261,-3.48909 4.04581,-7.53184 7.58625,-7.53184 9.55459,0 12.14736,11.79785 3.27267,14.89158 -3.44587,1.20125 -3.64775,1.21528 -5.88116,0.40904 z m 102.76597,-6.27006 c -2.99262,-2.354 -4.08332,-6.82176 -2.66124,-10.90113 1.03331,-2.96417 1.90449,-3.59033 7.21042,-5.18245 3.64813,-1.09468 7.40322,0.60773 9.25985,4.19805 2.63893,5.10314 1.62141,8.58833 -3.54751,12.15087 -3.27438,2.25678 -7.18367,2.1557 -10.26152,-0.26534 z m -29.31142,-1.4851 c -4.67643,-4.67643 -2.34243,-12.65406 4.23337,-14.46973 6.7137,-1.85374 12.12027,2.80271 10.88701,9.37653 -1.32482,7.06195 -10.17165,10.04194 -15.12038,5.0932 z M 82.630843,136.02322 c -6.060559,-6.06056 -2.53039,-13.47617 6.43368,-13.51483 7.461514,-0.0322 10.258579,7.97641 4.720166,13.51483 -3.792993,3.79299 -7.360853,3.79299 -11.153846,0 z m 80.999997,0 c -3.99514,-3.99514 -4.12788,-9.98407 -0.28822,-13.00435 4.07328,-3.20404 9.79585,-2.79571 13.55905,0.96749 2.54112,2.54112 2.93921,3.56689 2.42556,6.25 -0.33798,1.76546 -1.97272,4.44743 -3.63276,5.95993 -4.06936,3.70768 -8.24276,3.6478 -12.06363,-0.17307 z M 54.394857,133.14158 c -8.626407,-9.00403 4.566391,-21.09565 13.389832,-12.27221 4.019939,4.01994 3.955573,8.31001 -0.182678,12.17571 -4.24477,3.96521 -9.464154,4.00335 -13.207154,0.0965 z m 47.338343,-6.16985 c -4.556228,-4.55623 -3.798018,-11.38686 1.51015,-13.60475 9.43939,-3.94403 16.6914,7.72118 8.44885,13.59039 -3.55532,2.53161 -7.43616,2.53721 -9.959,0.0144 z m 44.99357,0.78589 c -2.8907,-1.06934 -3.67615,-2.12793 -4.97422,-6.70405 -1.17589,-4.14536 -0.0913,-6.51473 3.93519,-8.59692 4.2145,-2.1794 7.7586,-1.86268 10.56547,0.94419 2.95567,2.95567 3.2855,8.31508 0.70455,11.44846 -2.24074,2.72035 -7.04632,4.08641 -10.23099,2.90832 z M 33.067078,125.90046 c -6.845906,-4.38596 -6.832988,-11.99523 0.02606,-15.34872 11.241852,-5.49632 19.996253,8.17736 9.684514,15.12644 -4.114512,2.77277 -5.673876,2.80847 -9.710572,0.22228 z m 91.961862,-2.10418 c -4.33756,-2.17411 -5.45856,-10.83123 -1.79612,-13.87078 2.60978,-2.16593 8.80111,-2.34688 11.27082,-0.32942 3.45994,2.82639 3.96173,8.37176 1.05658,11.6764 -2.66533,3.03185 -7.30118,4.14282 -10.53128,2.5238 z m 60.78889,-1.24549 c -5.39518,-2.99032 -6.80008,-11.00539 -2.65552,-15.14995 7.28596,-7.28597 19.87816,2.91463 13.98475,11.32866 -1.48072,2.11401 -6.41912,5.2576 -8.13964,5.18136 -0.43981,-0.0195 -1.87513,-0.63152 -3.18959,-1.36007 z m 30.56197,-1.64783 c -3.39132,-2.66761 -4.46959,-8.0905 -2.27474,-11.44027 2.662,-4.06272 7.08572,-5.84212 11.17161,-4.49365 3.93727,1.29941 5.43109,3.49355 5.43109,7.97725 0,4.18449 -1.45661,6.66765 -4.97998,8.48966 -3.93307,2.03386 -6.25291,1.9016 -9.34798,-0.53299 z M 75.081362,117.96085 c -3.070991,-1.2401 -6.373596,-6.33753 -6.373596,-9.83737 0,-2.34346 0.749356,-3.47719 3.368034,-5.09563 7.472544,-4.618278 14.631966,-1.34878 14.631966,6.68201 0,3.51352 -0.502417,4.51786 -3.344391,6.68554 -3.539213,2.69949 -4.856895,2.94856 -8.282013,1.56545 z m 88.549478,-10.93763 c -3.87693,-3.87693 -4.01842,-9.072488 -0.34706,-12.743848 2.16889,-2.16889 3.20845,-2.49119 6.57761,-2.03929 7.23597,0.97054 10.99864,6.47572 8.30531,12.151508 -2.87825,6.06544 -9.84141,7.32608 -14.53586,2.63163 z m -116.210685,0.56561 c -2.264042,-1.79595 -3.567592,-6.26902 -2.984569,-10.241408 0.833258,-5.67735 10.381181,-8.5627 15.260502,-4.61166 3.161593,2.5601 3.890956,9.903108 1.301309,13.101178 -2.373903,2.93165 -10.730678,4.00994 -13.577242,1.75189 z m 45.210688,-4.56561 c -3.439975,-3.439978 -3.782484,-7.400388 -0.957964,-11.076918 1.558002,-2.02798 2.791862,-2.5 6.534883,-2.5 3.743028,0 4.976878,0.47202 6.534888,2.5 2.77633,3.61381 2.50624,8.186138 -0.67125,11.363628 -3.58124,3.58124 -7.675206,3.47864 -11.440557,-0.28671 z M 199.93672,103.277 c -1.75502,-0.70612 -4.23564,-5.748188 -4.19716,-8.531038 0.0581,-4.20175 4.43087,-7.79966 9.47938,-7.79966 3.49672,0 8.48882,4.99867 8.48882,8.5 0,3.93642 -4.99316,8.520238 -9.17308,8.421048 -1.8298,-0.0434 -3.89889,-0.30908 -4.59796,-0.59035 z m -81.72896,-1.45021 c -6.00395,-3.425378 -7.22472,-9.853928 -2.69528,-14.193398 5.83723,-5.59242 15.19528,-2.07486 15.19528,5.71169 0,6.41839 -7.36141,11.413378 -12.5,8.481708 z m 21.5,-0.8805 c -1.41333,-1.413328 -2,-3.333328 -2,-6.545448 0,-7.66661 5.81154,-11.37769 13.33688,-8.51656 5.16492,1.9637 5.62686,13.4055 0.64878,16.069688 -3.24332,1.73577 -9.79285,1.18513 -11.98566,-1.00768 z M 64.454873,90.962012 c -2.243245,-1.76454 -2.747107,-2.95797 -2.747107,-6.50673 0,-3.855579 0.379971,-4.5807 3.368034,-6.427425 4.531846,-2.800834 8.162483,-2.641951 11.298893,0.494459 2.180067,2.180067 2.492284,3.200306 2.031249,6.637586 -0.678337,5.05738 -2.117961,6.52245 -7.201069,7.32835 -3.212148,0.50927 -4.545566,0.20777 -6.75,-1.52624 z m 116.175967,-2.93879 c -1.6077,-1.60769 -2.92308,-3.88004 -2.92308,-5.04966 0,-6.091624 6.50459,-11.271839 11.84364,-9.432199 3.28331,1.131306 6.61159,7.455029 5.74369,10.913009 -1.68266,6.70425 -9.60161,8.63149 -14.66425,3.56885 z M 89.021588,80.009874 c -4.075927,-2.502928 -5.614079,-5.420028 -4.803616,-9.110042 0.953033,-4.339132 5.02181,-7.113076 9.902943,-6.751465 3.297317,0.244276 4.432647,0.90986 6.304205,3.695814 2.882,4.290068 2.89144,7.319199 0.0326,10.471921 -3.153938,3.47821 -7.485551,4.11975 -11.436172,1.693772 z m 73.107372,0.896538 c -3.1491,-1.164934 -4.51044,-3.466027 -4.72348,-7.984203 -0.16192,-3.433968 0.25492,-4.533531 2.30228,-6.072996 4.39328,-3.303432 8.2158,-3.433658 11.81798,-0.402618 2.53603,2.133927 3.18202,3.440028 3.18202,6.433609 0,2.43862 -0.67588,4.367778 -1.92689,5.499928 -2.40119,2.173053 -8.01051,3.50339 -10.65191,2.52628 z m -22.0642,-3.930161 c -5.21509,-2.156954 -6.99364,-9.67959 -3.37588,-14.278824 3.81791,-4.853688 13.94004,-3.718903 16.03754,1.797958 1.51459,3.983678 -0.46955,10.291643 -3.61313,11.48683 -4.29328,1.632301 -6.83123,1.91111 -9.04853,0.994036 z M 112.32,74.070326 c -0.93375,-1.031784 -1.95898,-3.485908 -2.2783,-5.453609 -0.49992,-3.080664 -0.14026,-4.017944 2.58914,-6.747342 2.75828,-2.758286 3.65042,-3.093183 6.87331,-2.580152 7.19679,1.145611 10.4347,8.550989 6.13103,14.022216 -1.72178,2.188891 -2.88035,2.634859 -6.84501,2.634859 -3.39727,0 -5.26163,-0.540557 -6.47017,-1.875972 z"
         id="path703"
         inkscape:connector-curvature="0" />
    </g>
  </g>
</svg>
