<?xml version="1.0" encoding="UTF-8" standalone="no"?>
<!-- Created with Inkscape (http://www.inkscape.org/) -->

<svg
   xmlns:dc="http://purl.org/dc/elements/1.1/"
   xmlns:cc="http://creativecommons.org/ns#"
   xmlns:rdf="http://www.w3.org/1999/02/22-rdf-syntax-ns#"
   xmlns:svg="http://www.w3.org/2000/svg"
   xmlns="http://www.w3.org/2000/svg"
   xmlns:sodipodi="http://sodipodi.sourceforge.net/DTD/sodipodi-0.dtd"
   xmlns:inkscape="http://www.inkscape.org/namespaces/inkscape"
   version="1.1"
   id="svg2949"
   width="283"
   height="443"
   viewBox="0 0 283 443"
   sodipodi:docname="feu114.svg"
   inkscape:version="0.92.4 (5da689c313, 2019-01-14)">
  <metadata
     id="metadata2955">
    <rdf:RDF>
      <cc:Work
         rdf:about="">
        <dc:format>image/svg+xml</dc:format>
        <dc:type
           rdf:resource="http://purl.org/dc/dcmitype/StillImage" />
        <dc:title></dc:title>
      </cc:Work>
    </rdf:RDF>
  </metadata>
  <defs
     id="defs2953" />
  <sodipodi:namedview
     pagecolor="#ffffff"
     bordercolor="#666666"
     borderopacity="1"
     objecttolerance="10"
     gridtolerance="10"
     guidetolerance="10"
     inkscape:pageopacity="0"
     inkscape:pageshadow="2"
     inkscape:window-width="1280"
     inkscape:window-height="972"
     id="namedview2951"
     showgrid="false"
     inkscape:zoom="1.5067919"
     inkscape:cx="147.84438"
     inkscape:cy="221.34636"
     inkscape:window-x="-8"
     inkscape:window-y="-8"
     inkscape:window-maximized="1"
     inkscape:current-layer="g534"
     showguides="true" />
  <g
     id="g151"
     transform="translate(25.882805,-2.654647)">
    <g
       id="g534"
       transform="translate(-21.900834,-45.792654)">
      <path
         style="fill:#ffffff"
         d="m 227.45168,449.07515 c -1.83671,-3.43194 -1.2442,-5.97519 1.5558,-6.67793 1.8937,-0.47529 3.15313,-0.0881 4.67983,1.43856 1.78324,1.78323 1.91937,2.4608 0.93046,4.63123 -1.42196,3.12086 -5.63019,3.47798 -7.16609,0.60814 z m 13.56098,-3.37178 c -3.74977,-2.74189 0.23634,-9.54246 4.15384,-7.08672 2.16994,1.36025 2.8043,5.01994 1.20432,6.94779 -1.48623,1.7908 -3.04386,1.83119 -5.35816,0.13893 z m -25.51395,-2.09492 c -1.75318,-2.11244 -0.40609,-5.47966 2.4822,-6.20457 3.98433,-1 5.60241,0.18629 5.24946,3.84864 -0.27224,2.82493 -0.72306,3.29681 -3.39904,3.55795 -1.84269,0.17981 -3.58756,-0.30426 -4.33262,-1.20202 z m 15.27012,-5.64713 c -3.19665,-1.20824 -3.76211,-2.84163 -1.75247,-5.06226 2.64113,-2.91841 6.8099,-2.17076 7.21007,1.29309 0.36884,3.1926 -2.23158,4.98851 -5.4576,3.76917 z m 19.95601,-2.13423 c -4.39248,-2.14699 -3.60888,-7.02348 1.32769,-8.26248 2.00346,-0.50283 3.21918,-0.14445 4.76972,1.4061 1.93432,1.93432 1.9733,2.27267 0.55321,4.80274 -1.72529,3.07382 -3.46465,3.61092 -6.65062,2.05364 z m -43.75164,-2.0402 c -2.06766,-2.952 -1.98398,-3.45142 0.89434,-5.33737 4.66076,-3.05385 9.00804,0.68409 6.04859,5.20078 -1.94392,2.9668 -4.91957,3.02534 -6.94293,0.13659 z m 12.57601,-1.6425 c -2.94774,-2.26693 -2.16815,-5.83701 1.47423,-6.75119 5.01399,-1.25843 7.60824,4.10619 3.56219,7.3662 -1.98041,1.59568 -2.19605,1.56934 -5.03642,-0.61501 z m 18.44257,-1.0518 c -2.41034,-2.6634 -0.57773,-6.08318 3.2599,-6.08318 4.72932,0 6.62701,3.39496 3.59339,6.42856 -2.11331,2.11332 -4.74838,1.98051 -6.85329,-0.34538 z M 82.895435,429.3369 c -1.83418,-2.7993 -1.340947,-4.75038 1.683121,-6.65791 2.274581,-1.43478 6.518671,0.002 7.151151,2.42012 1.61974,6.19389 -5.359073,9.54163 -8.834272,4.23779 z m 16.459582,-1.38898 c -2.61509,-2.61509 -2.17205,-4.95021 1.309933,-6.90415 2.07259,-1.16305 3.15988,-1.26796 4.49292,-0.43351 2.35018,1.47116 2.75891,5.75601 0.74149,7.77342 -2.17388,2.17388 -4.06031,2.04827 -6.544343,-0.43576 z m -25.938515,-1.69407 c -2.649246,-0.85715 -4.924246,-4.51747 -3.944985,-6.34724 1.014662,-1.89592 5.047119,-3.17897 7.288203,-2.31899 4.799866,1.84188 1.555743,10.25123 -3.343218,8.66623 z m 155.447028,-2.30298 c -2.22519,-2.4588 -1.03482,-5.24982 2.46014,-5.76822 4.52353,-0.67099 7.03046,4.71941 3.15857,6.79158 -2.72224,1.45689 -3.50277,1.31473 -5.61871,-1.02336 z m 23.75297,-1.14146 c -0.66,-0.66001 -1.2,-2.145 -1.2,-3.3 0,-1.155 0.54,-2.64 1.2,-3.3 0.66,-0.66001 2.145,-1.2 3.3,-1.2 1.155,0 2.64,0.54 3.3,1.2 0.66,0.66 1.2,2.14499 1.2,3.3 0,1.15499 -0.54,2.63999 -1.2,3.3 -0.66,0.66 -2.145,1.2 -3.3,1.2 -1.155,0 -2.64,-0.54001 -3.3,-1.2 z m -44.95,-1.00834 c -2.72291,-1.32792 -2.89908,-3.89427 -0.42126,-6.13667 2.84984,-2.57907 6.01815,-2.1132 6.79946,0.99979 1.20197,4.789 -1.92595,7.30817 -6.3782,5.13688 z m 31.92964,-0.84885 c -3.11204,-1.24787 -2.55274,-4.88759 1.06173,-6.90939 2.07904,-1.16294 3.16627,-1.26714 4.5,-0.43129 2.66911,1.67272 2.71414,4.96541 0.093,6.80131 -2.58073,1.80762 -2.50895,1.80077 -5.65475,0.53937 z m -22.3481,-2.4132 c -2.22971,-4.89367 4.42178,-7.86145 7.5642,-3.375 2.11824,3.0242 0.45202,5.84539 -3.45236,5.84539 -2.20537,0 -3.28059,-0.64599 -4.11184,-2.47039 z m -107.85643,-2.09508 c -2.07103,-5.44723 3.59229,-8.78001 7.52857,-4.43048 1.49857,1.65591 1.61608,2.43768 0.67642,4.5 -1.63157,3.58092 -6.83386,3.53682 -8.20499,-0.0695 z m -26.775108,0.36547 c -2.117711,-2.11771 -1.424951,-5.76398 1.291316,-6.7967 3.060079,-1.16344 5.241359,-0.42091 6.026009,2.05131 1.38536,4.36487 -4.124577,7.93814 -7.317325,4.74539 z m 11.799995,-0.8 c -1.63685,-3.05849 0.42816,-6.20147 3.81726,-5.80993 2.125073,0.24549 2.751353,0.91099 3.012823,3.20141 0.51738,4.53238 -4.728283,6.53577 -6.830083,2.60852 z m -27.600291,0.23469 c -0.605163,-0.40409 -1.600263,-1.68509 -2.211334,-2.8467 -0.925383,-1.7591 -0.721542,-2.47792 1.219871,-4.30179 2.999429,-2.81781 7.325764,-1.99419 8.218985,1.56469 1.032359,4.11324 -3.817925,7.86045 -7.227522,5.5838 z m 164.571674,-2.88138 c -0.84074,-0.22808 -2.10408,-1.33614 -2.80741,-2.46236 -1.69352,-2.71176 0.0545,-4.89095 3.92329,-4.89095 3.75993,0 5.388,2.87646 3.30848,5.84539 -1.5303,2.18481 -1.7071,2.24506 -4.42436,1.50792 z m 17.02862,-3.35331 c -1.1,-1.10001 -2,-2.45 -2,-3 0,-1.67663 3.88502,-5 5.84501,-5 2.63247,0 5.46171,3.45825 4.7259,5.77658 -0.50092,1.57825 -4.33266,4.22342 -6.11796,4.22342 -0.24912,0 -1.35295,-0.9 -2.45295,-2 z m -89.91779,-0.40096 c -1.75318,-2.11244 -0.40609,-5.47966 2.4822,-6.20457 3.98433,-1 5.60241,0.18629 5.24946,3.84864 -0.27224,2.82493 -0.72306,3.29681 -3.39904,3.55795 -1.84269,0.17981 -3.58756,-0.30426 -4.33262,-1.20202 z m 53.74933,-1.06943 c -1.3831,-3.03556 0.27151,-5.52961 3.66846,-5.52961 3.06412,0 4.86409,2.41323 4.09262,5.48701 -0.89435,3.56333 -6.1438,3.59215 -7.76108,0.0426 z M 77.916502,407.81263 c -3.069458,-1.73777 -3.461834,-2.93185 -1.797899,-5.47132 1.76686,-2.69657 5.445562,-3.06383 7.377088,-0.73648 1.102802,1.32879 1.081486,2.02564 -0.127555,4.16982 -1.757783,3.11735 -2.834303,3.51978 -5.451634,2.03798 z m 23.597708,-0.44734 c -2.552633,-1.78792 -2.477893,-5.09987 0.15229,-6.74864 2.39386,-1.50063 5.15787,0.327 5.55993,3.67635 0.42649,3.55282 -2.6578,5.21169 -5.71222,3.07229 z m -13.062523,-1.29014 c -1.63125,-3.04801 -1.22262,-5.05941 1.21481,-5.9798 3.05782,-1.15464 5.75,0.44384 5.75,3.41406 0,4.03364 -5.16159,5.93509 -6.96481,2.56574 z m 22.827823,0.0244 c -1.97728,-1.6011 -2.17699,-2.29471 -1.34286,-4.6639 1.41376,-4.01552 5.99205,-5.10037 8.07952,-1.91447 1.18659,1.81095 1.29006,2.82574 0.44848,4.39824 -1.87646,3.50619 -4.54688,4.31646 -7.18514,2.18013 z m 35.33699,0.70986 c -1.87415,-1.87415 -1.41467,-5.61475 0.83777,-6.82022 2.87103,-1.53652 5.84301,-0.30297 6.60737,2.74246 1.02371,4.07879 -4.44749,7.0754 -7.44514,4.07776 z m 24.34367,-2.14441 c -4.03755,-2.95233 1.21378,-9.85638 5.70633,-7.50224 2.43722,1.27713 2.31463,6.4741 -0.18426,7.81147 -2.52448,1.35106 -3.31178,1.30697 -5.52207,-0.30923 z m 53.20633,-0.7357 c -2.62939,-1.53147 -2.20623,-5.391 0.73815,-6.73255 1.36848,-0.62351 3.15135,-0.87918 3.96193,-0.56813 2.40133,0.92147 2.9194,4.31503 0.98507,6.45245 -1.95451,2.15971 -3.13189,2.33538 -5.68515,0.84823 z M 64.868483,401.57647 c -2.224188,-3.39454 -0.482802,-6.56706 3.604642,-6.56706 2.172478,0 3.280955,0.64679 4.067697,2.37351 2.523386,5.53823 -4.33504,9.2869 -7.672339,4.19355 z m 171.119447,0.86151 c -1.8981,-1.8981 -1.94478,-2.57137 -0.32143,-4.63647 3.05131,-3.88164 8.75,-2.42007 8.75,2.24414 0,3.54514 -5.66721,5.1537 -8.42857,2.39233 z M 135.82126,397.5044 c -1.32269,-2.01867 -1.40046,-2.79524 -0.40061,-4 1.8018,-2.17103 6.70858,-1.90027 7.96067,0.43927 1.33879,2.50156 1.32284,2.63522 -0.53625,4.49431 -2.3004,2.3004 -5.15328,1.92121 -7.02381,-0.93358 z m -39.373093,-1.26826 c -2.41254,-1.95356 -1.9751,-4.65145 1.01354,-6.25092 2.31629,-1.23965 4.711163,-0.31879 5.481273,2.10762 1.25806,3.96381 -3.202413,6.80932 -6.494813,4.1433 z m 62.168333,0.57327 c -2.47912,-2.47913 -0.65066,-6.8 2.87756,-6.8 2.53942,0 4.2299,2.63884 3.51506,5.48701 -0.69056,2.75137 -4.22773,3.47788 -6.39262,1.31299 z m -75.487422,-0.42077 c -0.391917,-0.39191 -0.712576,-1.98757 -0.712576,-3.5459 0,-2.57622 0.320452,-2.83333 3.531385,-2.83333 3.87562,0 5.51069,2.11518 3.7769,4.88592 -1.07105,1.71161 -5.397801,2.69123 -6.595709,1.49331 z m 64.537422,-2.04151 c -0.6875,-0.27741 -1.25,-1.60154 -1.25,-2.9425 0,-3.14344 4.15641,-5.34024 6.47039,-3.41981 4.04704,3.35875 -0.10956,8.42456 -5.22039,6.36231 z m -41.05,-1.53772 c -1.9016,-1.9016 -1.45795,-6.59158 0.73453,-7.76496 3.37416,-1.8058 8.06547,1.08811 8.06547,4.97532 0,3.16248 -6.39873,5.19091 -8.8,2.78964 z m 73.27642,-1.19565 c -1.89488,-2.89195 -1.32787,-4.33013 2.24236,-5.68754 3.42329,-1.30153 5.47135,0.51108 5.08229,4.49802 -0.24512,2.51181 -0.8005,3.14285 -2.98845,3.39555 -1.9719,0.22774 -3.12637,-0.3596 -4.3362,-2.20603 z M 70.856762,390.55858 c -2.612841,-3.98771 -1.565459,-6.04917 3.073435,-6.04917 3.626381,0 4.015402,0.25376 4.308563,2.81047 0.632319,5.51459 -4.434297,7.73746 -7.381998,3.2387 z m 98.128318,-0.87537 c -2.25425,-1.64834 -1.35626,-5.28902 1.53056,-6.20527 4.17642,-1.32554 6.80922,4.43978 2.9666,6.49629 -2.41935,1.2948 -2.31961,1.30125 -4.49716,-0.29102 z m -34.81858,-2.73346 c -2.12286,-1.26124 -2.2779,-4.25734 -0.30504,-5.89466 3.42712,-2.84427 9.22068,1.07853 6.9478,4.70432 -1.31424,2.09652 -4.23621,2.62013 -6.64276,1.19034 z m -92.504918,-1.09526 c -1.962364,-1.96236 -1.461681,-4.65706 1.187862,-6.3931 3.607961,-2.36404 6.791879,-0.43411 6.375461,3.86446 -0.263828,2.72341 -0.742722,3.2262 -3.313323,3.47863 -1.652706,0.16229 -3.565206,-0.26521 -4.25,-0.94999 z m 54.800095,-0.60742 c -1.85256,-1.5001 -2.02152,-2.16969 -1.13554,-4.5 0.81399,-2.14095 1.69248,-2.73766 4.03043,-2.73766 4.715473,0 6.085493,4.71107 2.253773,7.75 -2.060623,1.63428 -2.558953,1.58469 -5.148663,-0.51234 z m 61.197803,0.60532 c -3.07122,-3.07122 0.48529,-7.69878 4.85178,-6.31291 1.56461,0.49659 1.95009,1.35333 1.71222,3.8054 -0.24567,2.53253 -0.80767,3.22304 -2.814,3.45751 -1.37887,0.16113 -3.06637,-0.26637 -3.75,-0.95 z m 58.31372,-1.06549 c -1.9913,-2.84298 -1.95868,-3.75187 0.1933,-5.38545 2.71202,-2.05871 5.18235,-1.63463 6.4301,1.10389 0.93966,2.06233 0.82215,2.84409 -0.67642,4.5 -2.34853,2.5951 -4.01928,2.53372 -5.94698,-0.21844 z m -132.912446,-2.875 c -2.277211,-3.25118 -0.485225,-6.11672 3.571339,-5.71089 1.695484,0.16962 3.575784,1.09589 4.178444,2.0584 2.71064,4.32916 -4.797336,7.8677 -7.749783,3.65249 z m 62.915556,0.16359 c -1.50379,-1.66167 -1.60786,-2.30327 -0.57538,-3.54733 1.59806,-1.92554 5.40284,-1.96197 6.9757,-0.0668 3.40399,4.10155 -2.79258,7.60064 -6.40032,3.61413 z m 56.19019,0.54186 c -2.29039,-1.73865 -2.21657,-3.87573 0.20971,-6.07148 4.24008,-3.83723 10.28281,1.32809 6.47544,5.53519 -2.02443,2.23697 -4.21346,2.41257 -6.68515,0.53629 z m 27.39763,0.60793 c -2.02553,-0.67518 -3.38677,-5.2228 -2.04668,-6.83752 1.51618,-1.82688 6.33703,-1.76047 7.88827,0.10866 2.82215,3.40049 -1.36327,8.22163 -5.84159,6.72886 z m -175.097441,-1.6554 c -1.950706,-2.35046 -0.909244,-7.00939 1.648228,-7.37326 3.34103,-0.47536 6.301585,1.55083 6.301585,4.31279 0,3.85814 -5.523158,5.98441 -7.949813,3.06047 z M 29.25133,380.07675 c -1.964043,-1.5904 -2.110618,-2.16663 -1.109825,-4.36313 1.685623,-3.69955 5.203634,-4.51056 7.462923,-1.72047 2.124284,2.62338 2.297855,4.39549 0.562074,5.73857 -2.612035,2.02112 -4.715669,2.12608 -6.915172,0.34503 z m 149.4886,-2.69648 c -1.67121,-2.55059 -1.6519,-2.68647 0.64622,-4.54737 4.51434,-3.65549 9.55214,-0.45887 7.24769,4.59885 -1.59579,3.50237 -5.58237,3.47637 -7.89391,-0.0515 z m -14.228,0.24412 c -2.13454,-2.57196 0.37472,-5.796 4.22101,-5.42338 2.80209,0.27145 3.18356,0.66788 3.18356,3.3084 0,2.62002 -0.39077,3.03813 -3.08517,3.30106 -1.83045,0.17863 -3.58713,-0.30376 -4.3194,-1.18608 z m -26.44044,-3.44373 c -2.26355,-2.50119 -2.08058,-3.84629 0.77795,-5.71928 3.07021,-2.01167 6.56706,-0.47642 6.56706,2.8832 0,4.50043 -4.32684,6.17112 -7.34501,2.83608 z m 15.72905,0.38715 c -1.15612,-3.0128 0.0654,-5.0584 3.02067,-5.0584 3.58571,0 5.55383,2.64011 3.66486,4.91618 -1.64253,1.97912 -5.94552,2.07067 -6.68553,0.14222 z m -112.042167,-2.1594 c -2.007851,-3.06437 -0.918116,-5.70907 2.565299,-6.22577 2.826862,-0.41932 5.09283,1.47129 5.09283,4.2492 0,4.86737 -4.930233,6.13986 -7.658129,1.97657 z m 23.630522,-0.45058 c -1.698206,-3.17314 -0.82581,-6.39833 1.832649,-6.77518 2.92484,-0.41463 5.194958,1.44221 5.194958,4.2492 0,4.46605 -5.023057,6.2715 -7.027607,2.52598 z m 143.450245,-0.40061 c -0.83118,-3.31172 1.16156,-5.739 4.3909,-5.34837 5.79681,0.70119 5.27354,7.02229 -0.63008,7.61136 -2.63094,0.26252 -3.21519,-0.089 -3.76082,-2.26299 z m -15.85121,-0.11924 c -2.1157,-2.1157 -1.97953,-4.13979 0.36283,-5.39339 3.39315,-1.81596 5.97552,-1.24281 6.65836,1.47781 1.16526,4.64279 -3.62342,7.31335 -7.02119,3.91558 z m 29.17857,0.49132 c -2.66618,-1.55291 -2.22564,-5.74606 0.74594,-7.1 2.06233,-0.93966 2.84409,-0.82215 4.5,0.67642 2.59509,2.34853 2.53372,4.01928 -0.21845,5.94698 -2.58462,1.81034 -2.71619,1.82281 -5.02749,0.4766 z m 16.08601,-0.0535 c -4.66931,-1.7102 -4.7563,-5.1858 -0.1734,-6.92822 4.76069,-1.81001 8.63476,3.36446 5.13739,6.86182 -1.37398,1.37399 -1.39317,1.37424 -4.96399,0.0664 z M 20.616502,369.8094 c -2.122739,-2.12274 -1.411293,-5.74661 1.377659,-7.01734 3.138291,-1.4299 5.768617,-0.11476 6.249105,3.12451 0.62781,4.23245 -4.612436,6.90715 -7.626764,3.89283 z m 32.191254,-1.32562 c -1.549647,-2.36507 -1.541259,-2.65114 0.131935,-4.5 0.982732,-1.08592 2.359899,-1.97438 3.06037,-1.97438 1.681476,0 4.416441,2.78671 4.416441,4.5 0,1.77213 -2.757195,4.5 -4.548376,4.5 -0.773035,0 -2.150201,-1.13653 -3.06037,-2.52562 z M 172.4165,369.0094 c -3.62422,-3.62422 -1.56863,-7.42517 3.68953,-6.82227 2.27779,0.26119 2.87411,0.88153 3.14626,3.27295 0.22339,1.96306 -0.25896,3.38557 -1.44113,4.25 -2.37509,1.73672 -3.04417,1.6498 -5.39466,-0.70068 z M 31.083169,366.34274 c -1.445179,-1.44518 -0.660589,-6.18795 1.083333,-6.54864 5.040439,-1.0425 8.172202,1.62363 6.21123,5.28774 -1.007564,1.88265 -5.837868,2.71759 -7.294563,1.2609 z m 117.118811,-2.08333 c -1.79633,-2.06203 -1.35019,-3.87741 1.30167,-5.29665 3.95668,-2.11755 7.8487,2.71079 4.71285,5.84664 -1.71372,1.71372 -4.24407,1.48233 -6.01452,-0.54999 z m 12.21238,-1.25399 c -1.51649,-2.83359 0.41838,-5.20321 3.91654,-4.79657 2.13943,0.2487 2.5856,0.81824 2.5856,3.30056 0,2.51081 -0.43746,3.05054 -2.68274,3.30993 -1.91169,0.22086 -3.00943,-0.30049 -3.8194,-1.81392 z m 43.20214,-0.19601 c -1.81353,-1.81353 -1.44369,-4.16672 0.88325,-5.61992 1.74677,-1.09088 2.47359,-1.04525 4.5,0.28251 3.79374,2.48574 2.50261,6.53741 -2.08325,6.53741 -1.155,0 -2.64,-0.54001 -3.3,-1.2 z m 11.37143,-0.37143 c -2.28884,-2.28884 -1.92887,-4.30858 1.00623,-5.64591 4.34214,-1.97841 8.29515,2.25582 5.38247,5.76538 -1.5773,1.90051 -4.4219,1.84733 -6.3887,-0.11947 z m 12.38675,-1.50671 c -1.4726,-2.75157 -0.59748,-4.7283 2.63783,-5.95836 4.62395,-1.75803 7.38987,2.90776 3.83256,6.46507 -2.19118,2.19118 -5.15056,1.95942 -6.47039,-0.50671 z m -184.30319,-0.7506 c -2.406511,-2.65917 -2.030448,-5.07801 0.966649,-6.21751 3.157722,-1.20056 5.378363,0.23161 5.378363,3.46869 0,4.31819 -3.53773,5.85082 -6.345012,2.74882 z m 22.590092,-1.32618 c -2.033619,-2.03362 -1.42414,-4.80638 1.332579,-6.06242 3.443994,-1.56919 5.922341,0.032 5.922341,3.82633 0,2.48115 -0.426005,2.93284 -3.00492,3.18608 -1.652706,0.16229 -3.565206,-0.26521 -4.25,-0.94999 z M 21.07149,357.18067 c -2.959641,-3.27037 -1.412063,-7.17126 2.845012,-7.17126 2.680459,0 4.5,1.81954 4.5,4.5 0,4.34868 -4.384043,5.94308 -7.345012,2.67126 z m 171.94117,0.52271 c -1.09791,-0.80281 -1.65318,-2.2477 -1.44113,-3.75 0.28847,-2.04366 0.9004,-2.44397 3.73598,-2.44397 4.5219,0 6.25535,2.57581 3.66196,5.44146 -2.16576,2.39315 -3.48517,2.55982 -5.95681,0.75251 z m 45.45038,-0.1379 c -1.05508,-1.27128 -0.99141,-1.99126 0.35822,-4.05106 2.82848,-4.31681 8.14227,-2.39093 7.422,2.68995 -0.24875,1.75472 -1.06333,2.37692 -3.41193,2.60611 -1.87444,0.18291 -3.58872,-0.30567 -4.36829,-1.245 z M 54.011836,356.80282 c -2.608579,-1.45984 -2.016143,-5.6497 0.90243,-6.38221 3.743517,-0.93957 5.502236,0.16026 5.502236,3.44083 0,2.2842 -0.520237,3.01426 -2.404666,3.37449 -1.322566,0.25282 -3.122566,0.0579 -4,-0.43311 z m -21.03863,-3.01592 c -2.02589,-2.89236 -1.966166,-3.48798 0.481069,-4.79771 4.244071,-2.27135 9.568382,2.27121 6.388816,5.45076 -2.216583,2.21659 -5.048465,1.94739 -6.869885,-0.65305 z m 176.014724,-0.34893 c -3.03067,-3.03066 -0.79951,-6.88234 3.62353,-6.25533 2.84566,0.4034 3.5742,3.91474 1.28683,6.20211 -2.02782,2.02783 -2.92602,2.03756 -4.91036,0.0532 z m 10.42857,-0.42856 c -2.52399,-2.524 -2.54728,-4.63674 -0.0657,-5.96482 2.99114,-1.60081 5.89113,-1.22995 7.03056,0.89908 1.40639,2.62788 1.30648,3.65158 -0.53625,5.49431 -2.10679,2.10675 -4.02089,1.97914 -6.42861,-0.42857 z m -119.658133,-3.601 c -2.00785,-3.06437 -0.91811,-5.70907 2.565303,-6.22577 4.4487,-0.65989 6.73207,4.04466 3.5214,7.25533 -2.26065,2.26066 -4.13905,1.94293 -6.086703,-1.02956 z M 43.84356,350.2441 c -1.808405,-1.23829 -2.524277,-4.41262 -1.321866,-5.86145 1.599897,-1.92775 6.537415,-1.74698 7.310505,0.26765 0.727044,1.89466 -1.873192,6.36645 -3.68875,6.3438 -0.674821,-0.008 -1.709771,-0.34592 -2.299889,-0.75 z m 187.61277,-1.6867 c -1.55927,-1.87881 -0.46791,-5.24852 2.15439,-6.65193 4.54188,-2.43074 9.20163,3.30809 5.60578,6.90394 -1.65694,1.65694 -6.30105,1.50612 -7.76017,-0.25201 z M 61.451686,347.07515 c -1.594255,-2.97889 -1.239183,-4.77913 1.061268,-5.38072 4.182095,-1.09363 6.788544,1.79283 4.864778,5.38741 -1.328747,2.4828 -4.595689,2.47911 -5.926046,-0.007 z m 24.35607,-0.59136 c -1.55234,-2.36917 -1.541699,-2.65067 0.171773,-4.54402 3.632138,-4.01348 8.907188,-0.45256 6.654308,4.49198 -1.50889,3.31165 -4.67449,3.33578 -6.826081,0.052 z m 114.847284,0.85951 c -3.78744,-1.52585 -3.4248,-7.52892 0.51709,-8.55973 5.48639,-1.43473 8.58466,4.47323 4.02186,7.66914 -2.35425,1.64898 -2.55752,1.68886 -4.53895,0.89059 z M 27.694181,345.75941 c -3.081301,-3.9822 -1.981115,-7.75 2.262978,-7.75 3.754989,0 5.459343,1.07767 5.459343,3.452 0,4.12696 -5.490262,7.18266 -7.722321,4.298 z m 84.795619,-0.6767 c -3.3595,-3.3595 -2.04466,-7.0733 2.50426,-7.0733 4.6351,0 5.77556,5.03274 1.74574,7.70382 -1.9585,1.29815 -2.38453,1.23495 -4.25,-0.63052 z m 109.49813,-4.64473 c -2.42492,-2.42492 -1.87886,-4.39585 1.6262,-5.86962 3.90615,-1.64241 5.63152,-1.08786 6.42267,2.06434 1.16455,4.63993 -4.52457,7.32959 -8.04887,3.80528 z M 38.616502,339.80941 c -0.66,-0.66001 -1.2,-2.145 -1.2,-3.3 0,-4.89326 6.216265,-6.31422 8.235478,-1.88253 1.052576,2.31016 0.919641,2.8385 -1.132223,4.5 -2.695997,2.18309 -4.22582,2.35997 -5.903255,0.68253 z m 10.83877,-0.72756 c -2.381356,-4.4496 2.961024,-8.02587 6.134642,-4.10661 1.364651,1.68527 1.551751,2.67919 0.776891,4.12703 -1.331357,2.48766 -5.57596,2.47512 -6.911533,-0.0204 z m 160.675288,1.30829 c -1.22616,-1.22616 -0.78154,-5.07983 0.7309,-6.33505 0.79472,-0.65956 2.48222,-1.05216 3.75,-0.87244 1.90542,0.27011 2.30504,0.93354 2.30504,3.82676 0,3.16611 -0.28961,3.52837 -3.03594,3.79739 -1.66977,0.16357 -3.35727,-0.0239 -3.75,-0.41666 z M 75.884561,337.97412 c -1.792876,-1.98111 -1.786819,-2.09039 0.227481,-4.10469 2.438656,-2.43866 5.817605,-1.82976 6.60747,1.19069 0.550232,2.10409 -1.587971,4.94929 -3.719451,4.94929 -0.700471,0 -2.102446,-0.91589 -3.1155,-2.03529 z m 20.731936,0.83529 c -3.01273,-3.01273 0.29249,-7.29703 5.101583,-6.61279 2.54525,0.36214 3.52003,4.11788 1.65274,6.36783 -1.45615,1.75455 -5.112133,1.88715 -6.754323,0.24496 z m 22.550003,-3.86667 c -2.12577,-1.25447 -2.2773,-4.25083 -0.29804,-5.89346 3.20083,-2.65646 8.11777,1.24523 5.93574,4.71013 -1.34766,2.13997 -3.31638,2.5532 -5.6377,1.18333 z m -32.746696,-2.42465 c -1.360942,-3.57954 -0.263044,-5.50868 3.135073,-5.50868 3.45603,0 4.59323,2.09888 3.01452,5.56376 -1.47452,3.23622 -4.90994,3.20544 -6.149593,-0.0551 z m 19.931136,-1.18113 c -1.50011,-3.94556 -0.49465,-5.50796 3.30868,-5.14142 2.52375,0.24322 3.33044,0.83274 3.58364,2.61891 0.72331,5.10233 -5.10103,7.23397 -6.89232,2.52251 z m 133.58875,0.69807 c -1.65537,-1.82916 -1.66873,-2.15456 -0.18163,-4.42415 4.31925,-6.59202 12.32288,-2.44853 8.62326,4.46427 -1.36532,2.55113 -6.11702,2.52854 -8.44163,-0.0401 z m -12.32319,-4.22562 c -0.66,-0.66001 -1.2,-2.145 -1.2,-3.3 0,-2.83006 1.8555,-4.5 5,-4.5 3.1445,0 5,1.66994 5,4.5 0,2.83005 -1.8555,4.5 -5,4.5 -1.43,0 -3.14,-0.54001 -3.8,-1.2 z M 72.382292,324.94549 c -0.819897,-1.53199 -0.797407,-2.43404 0.08726,-3.5 1.612433,-1.94288 6.576313,-1.84432 7.33996,0.14571 0.812426,2.11715 0.82823,2.05411 -0.96444,3.84678 -2.186749,2.18675 -5.149734,1.96096 -6.46278,-0.49249 z m 24.494585,-0.0609 c -1.08568,-3.42066 3.152753,-5.25115 5.529053,-2.38788 1.76273,2.12394 0.49725,4.51272 -2.39066,4.51272 -1.633993,0 -2.691173,-0.71575 -3.138393,-2.12484 z m 156.824503,0.92311 c -2.44841,-3.0561 -2.43966,-5.65074 0.0245,-7.26531 1.32485,-0.86808 3.15111,-1.29348 4.05836,-0.94533 2.0822,0.79901 3.2451,5.21382 1.9274,7.31716 -1.2893,2.05797 -4.67416,2.56117 -6.01025,0.89348 z M 23.391608,321.44394 c -1.392831,-3.66343 0.340536,-6.43453 4.024894,-6.43453 4.39412,0 6.435075,4.42207 3.428571,7.42856 -2.501177,2.50118 -6.318125,1.99212 -7.453465,-0.99403 z m 13.453652,0.13763 c -0.859912,-3.42615 0.274513,-6.2613 2.766034,-6.91286 3.224439,-0.8432 5.805208,1.01323 5.805208,4.17587 0,3.51427 -1.655716,5.16483 -5.180948,5.16483 -2.11031,0 -2.927894,-0.58549 -3.390294,-2.42784 z m 82.09714,0.17784 c -1.48223,-2.10078 -1.44549,-2.36606 0.55408,-4 2.73267,-2.233 3.47092,-2.1991 5.94294,0.27292 1.60672,1.60672 1.80522,2.42968 0.96481,4 -1.43283,2.67727 -5.48486,2.52907 -7.46183,-0.27292 z m -31.559023,-0.8119 c -0.980574,-1.83221 -0.828908,-2.52051 0.94663,-4.29605 2.73465,-2.73465 5.58649,-1.22006 5.58649,2.96694 0,2.39257 -0.46253,2.94445 -2.68274,3.20094 -1.9303,0.22301 -3.01023,-0.30199 -3.85038,-1.87183 z m 19.944933,-0.0263 -2.13403,-2.13403 2.12501,-2.12501 c 1.67723,-1.67724 2.49083,-1.8957 3.86111,-1.03676 2.55989,1.60462 2.73352,5.04741 0.3197,6.33925 -1.65576,0.88613 -2.43782,0.69052 -4.17179,-1.04345 z m 130.18914,-1.29017 c -0.80198,-0.96634 -0.84599,-2.16205 -0.1472,-4 0.81271,-2.13758 1.64107,-2.62164 4.48632,-2.62164 2.45262,0 3.80398,0.5875 4.54766,1.97708 2.14993,4.01717 -5.91103,8.23012 -8.88678,4.64456 z m -21.67831,-2.07383 c -0.83118,-3.31172 1.16156,-5.739 4.3909,-5.34837 5.79681,0.70119 5.27354,7.02229 -0.63008,7.61136 -2.63094,0.26252 -3.21519,-0.089 -3.76082,-2.26299 z m -168.202619,-0.7978 c -4.408172,-5.37651 2.473358,-12.06126 7.124993,-6.92127 2.268202,2.50633 2.074496,4.76403 -0.567518,6.61456 -2.683844,1.87984 -5.172244,1.99622 -6.557475,0.30671 z m 48.802656,-0.72733 c -2.38005,-2.38004 -1.6887,-4.81742 1.60061,-5.64298 4.593113,-1.1528 7.502353,4.41232 3.442453,6.58512 -2.577813,1.3796 -2.754293,1.34663 -5.043063,-0.94214 z m 132.227323,-0.0538 c -4.21467,-1.6941 -2.04929,-7.96884 2.75,-7.96884 4.95649,0 6.33486,5.68005 1.94809,8.02778 -2.08351,1.11506 -1.76746,1.11903 -4.69809,-0.0589 z M 13.222665,314.75941 c -3.725064,-2.95434 -2.469518,-7.75 2.029021,-7.75 5.168268,0 6.989896,4.60825 2.94231,7.4433 -2.683482,1.87958 -2.966135,1.89702 -4.971331,0.3067 z m 247.244025,-0.18953 c -0.65709,-0.79174 -1.04969,-2.70425 -0.87245,-4.25 0.41422,-3.61247 4.52902,-4.39697 7.25624,-1.38343 1.7165,1.89672 1.7273,2.17786 0.17477,4.54734 -1.83865,2.80613 -4.73324,3.28547 -6.55856,1.08609 z M 81.166502,312.9293 c -2.32499,-1.35417 -2.227171,-4.59415 0.177558,-5.88112 3.736704,-1.99982 7.033497,1.29696 5.033672,5.03366 -1.145096,2.13963 -2.589437,2.37453 -5.21123,0.84746 z m 165.882138,-1.03469 c -1.68499,-2.40567 -1.36381,-3.94717 1.14945,-5.51673 2.59735,-1.62207 6.21841,0.0662 6.21841,2.8993 0,4.70314 -4.73001,6.38347 -7.36786,2.61743 z m -131.43214,-0.0852 c -1.96171,-1.96171 -1.43982,-5.58911 0.91151,-6.33539 3.27193,-1.03848 5.5619,1.762 4.08727,4.99844 -1.25081,2.74525 -3.09677,3.23895 -4.99878,1.33695 z m -89.628569,-2.37143 c -2.275007,-2.27501 -1.945852,-5.35163 0.678571,-6.34263 2.753365,-1.03968 5.39076,0.20683 6.264894,2.96099 1.314726,4.14233 -3.72722,6.59789 -6.943465,3.38164 z m 12.95751,-0.0425 c -2.639822,-2.63981 -1.455399,-6.38607 2.019033,-6.38607 2.869541,0 3.822623,1.38729 3.054803,4.44653 -0.750809,2.99146 -3.117297,3.89609 -5.073836,1.93955 z m 197.239189,-2.99563 c -1.02569,-2.25115 -0.91987,-2.80633 0.77054,-4.04238 2.92179,-2.13647 6.89118,-1.34294 7.28809,1.45697 0.74193,5.2337 -5.8835,7.3593 -8.05863,2.58541 z m -132.79288,-1.95554 c -1.61478,-4.2472 -1.21601,-5.4349 1.82475,-5.4349 4.93171,0 7.20814,4.85491 3.26574,6.96481 -2.96185,1.58513 -4.02797,1.26471 -5.09049,-1.52991 z m 112.21013,1.88128 c -2.07736,-0.83107 -3.42632,-5.32094 -2.08443,-6.93782 1.40827,-1.69685 6.0725,-1.80491 7.69905,-0.17836 3.60648,3.60648 -0.71059,9.07808 -5.61462,7.11618 z M 52.388789,303.45763 c -1.281511,-2.39453 -1.233813,-2.78382 0.496067,-4.04875 4.139077,-3.02656 9.011836,-0.81389 8.35841,3.79548 -0.261192,1.84249 -1.040137,2.36499 -3.881701,2.60378 -2.976374,0.25011 -3.78569,-0.13243 -4.972776,-2.35051 z m 37.227708,1.35178 c -2.989119,-2.98912 0.54911,-7.64918 4.78662,-6.30426 2.43494,0.77283 3.54073,4.16391 1.97355,6.05224 -1.46117,1.7606 -5.11535,1.89684 -6.76017,0.25202 z M 226.6292,303.89239 c -2.4494,-0.90609 -3.02054,-4.67514 -1.0127,-6.68298 2.17537,-2.17537 6.72926,-1.44936 7.96846,1.27039 1.85249,4.06576 -2.15877,7.18711 -6.95576,5.41259 z m 21.148,-1.75555 c -2.66154,-1.9402 -3.58798,-4.14865 -2.3607,-5.62743 1.67527,-2.01858 7.60668,-1.96736 8.38943,0.0724 1.21476,3.16562 -3.43244,7.44764 -6.02873,5.55499 z m 9.99311,-1.28897 c -1.3138,-1.45173 -1.50572,-2.37408 -0.74494,-3.58018 2.96679,-4.70332 7.89113,-3.90534 7.89113,1.27876 0,3.81011 -4.47625,5.25168 -7.14619,2.30142 z M 8.597678,298.75941 c -0.787437,-2.9214 -0.617164,-3.36496 1.684089,-4.387 3.263022,-1.44919 4.994714,-0.76907 5.755034,2.26029 0.750871,2.99171 -1.118445,5.37671 -4.214152,5.37671 -1.803752,0 -2.552291,-0.75435 -3.224971,-3.25 z m 12.337036,1.62535 c -0.893555,-0.89355 -1.488198,-2.58105 -1.321429,-3.75 0.241062,-1.68968 0.998327,-2.12535 3.694231,-2.12535 4.790181,0 6.48657,2.90512 3.248202,5.56265 -2.871683,2.35661 -3.53992,2.39379 -5.621004,0.3127 z m 11.521657,-1.82731 c -2.052587,-2.47323 -0.846367,-5.04804 2.36484,-5.04804 3.585708,0 5.553827,2.64011 3.664858,4.91618 -1.642345,1.9789 -4.445906,2.04021 -6.029698,0.13186 z m 11.031378,-2.41491 c -0.585241,-1.09355 -0.792544,-2.69584 -0.460672,-3.5607 0.817867,-2.13133 6.256442,-2.08256 7.079957,0.0635 1.531299,3.9905 -4.61685,7.23879 -6.619285,3.49721 z m 190.968581,-0.58515 c -1.84531,-2.22347 -0.31602,-5.32842 2.9811,-6.05259 3.63637,-0.79868 4.97907,-0.0265 4.97907,2.86362 0,4.26554 -5.30341,6.39018 -7.96017,3.18897 z m -14.70189,-0.54662 c -2.61135,-1.05304 -3.92426,-4.58997 -2.39002,-6.43862 1.79143,-2.15854 5.82175,-2.47474 7.52694,-0.59053 1.9555,2.1608 1.93894,4.47113 -0.0463,6.45635 -1.76442,1.76443 -2.05462,1.79708 -5.09063,0.5728 z m -165.490836,-3.4376 c -1.575859,-3.45862 -0.441117,-5.56376 2.999068,-5.56376 3.993405,0 5.792854,2.30208 4.322291,5.52961 -1.532731,3.36398 -5.79513,3.38387 -7.321359,0.0342 z m -29,-2 c -1.704353,-3.74065 -0.437285,-5.74706 3.396023,-5.37764 2.523744,0.24322 3.33043,0.83274 3.583639,2.61891 0.701414,4.94789 -4.962252,7.18646 -6.979662,2.75873 z m 225.387826,-0.9475 c -1.51346,-3.32168 0.96439,-6.85005 4.5109,-6.42336 3.2422,0.39009 4.73491,2.75554 3.88237,6.15231 -0.55373,2.20624 -1.22731,2.65479 -3.98674,2.65479 -2.52818,0 -3.57957,-0.56876 -4.40653,-2.38374 z m -236.787902,-1.6748 c -2.593386,-2.86565 -0.859938,-5.44146 3.66196,-5.44146 2.779426,0 3.449948,0.41573 3.717778,2.30503 0.687488,4.84966 -4.019046,6.84996 -7.379738,3.13643 z m 22.661944,-0.1211 c -0.540842,-1.42829 -0.491386,-2.80093 0.12864,-3.57036 2.478828,-3.07614 8.178254,0.27108 6.102274,3.58382 -1.682548,2.68491 -5.212022,2.67729 -6.230914,-0.0135 z m 102.478958,-1.00545 c -1.55705,-7.46637 -2.31968,-42.91355 -1.20082,-55.81492 0.86653,-9.99196 1.8017,-33.46749 1.31457,-33 -0.7622,0.73148 -2.53868,21.9624 -4.22556,50.50001 -0.81277,13.75 -1.63384,27.57128 -1.8246,30.71398 -0.35418,5.83484 -1.79809,8.78602 -4.29872,8.78602 -0.77126,0 -1.77256,-1.0125 -2.2251,-2.25 -0.91492,-2.50194 1.7792,-28.77216 6.36539,-62.06857 1.80682,-13.11777 1.49246,-18.49641 -0.3905,-6.68144 -0.65741,4.125 -2.05041,11.775 -3.09557,17 -1.04516,5.225 -2.6454,14.45001 -3.5561,20.50001 -2.10324,13.97231 -5.10516,27.37845 -6.50953,29.07061 -0.59819,0.72078 -1.72972,1.0641 -2.5145,0.76295 -2.01124,-0.77178 -1.82348,-7.45721 0.46124,-16.42361 1.03848,-4.07548 3.30816,-13.70995 5.04374,-21.40996 1.73558,-7.7 3.77496,-16.025 4.53196,-18.5 1.67969,-5.49173 2.94946,-15.46974 1.59072,-12.5 -0.50328,1.1 -2.45616,7.175 -4.33974,13.5 -3.21978,10.81197 -4.69106,16.0438 -11.34401,40.33896 -2.77116,10.11967 -5.16541,14.52405 -7.20885,13.26113 -2.93904,-1.81642 -1.45996,-6.93106 19.11534,-66.10009 5.85629,-16.84111 6.07712,-17.56225 4.28712,-14 -1.8368,3.6554 -11.85779,28.14155 -24.92133,60.89493 -5.155803,12.9268 -7.754523,16.58824 -9.656233,13.60508 -1.64931,-2.58724 -1.09489,-5.51117 2.39212,-12.61565 9.453253,-19.26018 19.618193,-41.09296 19.627193,-42.15629 0.003,-0.40044 0.68644,-2.03252 1.51789,-3.62685 0.83144,-1.59433 1.33243,-3.07807 1.11329,-3.29721 -0.38587,-0.38588 -16.63734,29.16435 -16.63734,30.25188 0,1.31592 -13.333273,27.02011 -14.357543,27.67881 -1.840551,1.1836 -3.384587,0.87968 -4.026279,-0.79255 -0.695778,-1.81317 0.813579,-4.91454 11.364909,-23.35229 8.990733,-15.71071 10.452793,-18.26983 15.476743,-27.08986 2.03635,-3.575 4.60309,-7.9625 5.70387,-9.75 1.10078,-1.7875 1.73351,-3.25 1.40606,-3.25 -0.64068,0 -20.567763,29.85581 -20.567763,30.81573 0,0.31722 -1.05709,2.17597 -2.34908,4.13052 -1.29199,1.95456 -5.22447,8.15935 -8.738831,13.78841 -6.166527,9.87711 -8.063274,11.90798 -10.002326,10.70958 -3.145434,-1.944 1.764057,-10.74084 17.457197,-31.27989 3.92317,-5.13461 8.483043,-11.28192 10.133043,-13.6607 1.65,-2.37878 4.31876,-6.05273 5.93058,-8.16435 10.82524,-14.18195 16.56568,-22.48369 9.92103,-14.34764 -1.56838,1.92041 -5.57675,6.64541 -8.90747,10.5 -5.27075,6.09975 -11.292003,13.5425 -35.80541,44.25835 -4.959213,6.214 -7.20846,7.53483 -8.242467,4.84026 -0.876797,-2.2849 2.386753,-7.46065 9.469824,-15.01844 9.274217,-9.89581 20.53786,-22.51048 23.27955,-26.07183 1.270243,-1.65 3.970313,-4.8 6.000143,-7 2.02983,-2.2 4.70207,-5.35 5.9383,-7 1.23623,-1.65 3.86054,-4.75686 5.83181,-6.90413 2.38761,-2.6008 2.74952,-3.28733 1.08411,-2.05652 -1.375,1.01619 -6.68459,6.37305 -11.79909,11.90413 -17.012253,18.39794 -44.686955,46.59215 -45.700908,46.5588 -2.563036,-0.0843 -3.695469,-1.82695 -3.007051,-4.62736 0.469499,-1.90987 4.083874,-5.89603 10.76737,-11.87492 5.53335,-4.95 14.375921,-13.12781 19.650156,-18.17291 5.27423,-5.0451 10.95325,-10.4451 12.620033,-12 14.9489,-13.94551 18.69091,-17.53818 16.96949,-16.29226 -4.07006,2.94579 -12.30721,9.7335 -23.621753,19.46517 -41.178325,35.41759 -40.349739,34.74915 -42.546139,34.32318 -4.990745,-0.9679 -1.38303,-5.44092 13.536985,-16.78376 6.397,-4.86328 16.130909,-12.29438 21.630914,-16.51356 5.49999,-4.21919 13.937923,-10.6381 18.750953,-14.26426 4.81303,-3.62615 8.53957,-6.8044 8.28121,-7.06276 -0.25836,-0.25837 -1.67315,0.3787 -3.14396,1.4157 -1.47081,1.037 -5.88358,3.93838 -9.80615,6.44751 -3.922573,2.50913 -14.995719,10.42129 -24.607001,17.58258 -23.431831,17.45887 -28.425495,20.66457 -30.944634,19.86503 -3.79196,-1.20353 -1.944592,-5.12341 4.152675,-8.81146 1.9988,-1.20901 9.637793,-6.23993 16.975541,-11.17982 7.337749,-4.93989 15.267793,-10.11489 17.622322,-11.5 15.162324,-8.91962 25.219037,-15.12571 25.219037,-15.56291 0,-0.46058 -9.2976,4.34238 -19.500003,10.07333 -2.19999,1.23579 -6.249995,3.50958 -8.999995,5.05286 -10.004364,5.61438 -12.498131,7.05182 -25.447543,14.66834 -13.472036,7.92391 -16.632438,9.00813 -17.752189,6.0901 -0.818599,-2.13323 2.454153,-4.73612 11.927793,-9.48641 3.999566,-2.00547 11.321939,-5.66667 16.271939,-8.13599 4.95,-2.46932 10.35,-5.17585 12,-6.01451 1.65,-0.83866 7.824136,-3.90333 13.720295,-6.81038 5.89617,-2.90705 10.586573,-5.41927 10.423133,-5.58271 -0.5125,-0.51249 -25.646305,9.93339 -40.643428,16.89186 -3.575,1.65875 -8.075,3.58808 -10,4.2874 -1.925,0.69933 -6.057945,2.48899 -9.184321,3.97704 -6.328402,3.01211 -9.315679,3.01849 -9.315679,0.0199 0,-2.28968 9.144902,-7.04265 24,-12.47377 4.95,-1.80974 11.25,-4.12484 14,-5.14464 2.75,-1.01981 11.3,-4.14819 18.999995,-6.95195 7.7,-2.80376 14.675003,-5.54082 15.500003,-6.08235 1.15297,-0.75681 1.03729,-0.82779 -0.5,-0.30681 -1.1,0.37278 -3.125,1.04823 -4.5,1.501 -65.786231,21.66248 -70.999998,23.13665 -70.999998,20.07503 0,-3.71334 6.748169,-5.95158 69.999995,-23.21771 5.775003,-1.57643 8.475003,-2.59814 6.000003,-2.27047 -5.509673,0.72943 -23.456274,4.8937 -64.575671,14.98394 -10.532444,2.58454 -13.424327,2.43808 -13.424327,-0.67988 0,-2.60597 4.144629,-4.41007 13.5,-5.87639 25.365088,-3.97559 53.499995,-9.11063 53.499995,-9.76454 0,-0.60142 -7.847489,0.25055 -30.499995,3.31126 -9.9,1.33765 -21.905621,2.9589 -26.679158,3.60277 -6.875044,0.92734 -8.993329,0.90995 -10.190559,-0.0837 -1.743149,-1.44669 -1.197342,-3.67655 1.117327,-4.56477 1.520779,-0.58358 19.596821,-2.14946 53.25239,-4.61312 8.524995,-0.62405 15.949995,-1.30342 16.499995,-1.50972 0.86285,-0.32365 -51.827747,0.52218 -64.499995,1.0354 -5.487786,0.22225 -8,-0.8819 -8,-3.5161 0,-1.43749 0.902135,-2.1803 3.25,-2.67608 1.7875,-0.37744 3.498502,-0.62086 3.802226,-0.54093 0.303724,0.0799 17.178724,0.36605 37.5,0.6358 38.541332,0.51161 38.138162,0.32066 -6.052226,-2.86638 -11.55,-0.833 -24.1725,-1.50952 -28.05,-1.50339 -4.164483,0.007 -7.541152,-0.47999 -8.25,-1.18884 -1.943405,-1.9434 -1.397443,-4.71244 1.05,-5.32544 2.508655,-0.62833 24.017402,1.41708 48.068697,4.57116 16.204578,2.12507 24.753641,2.24245 12.181298,0.16724 -3.849995,-0.63548 -13.974995,-2.3204 -22.499995,-3.74425 -8.525,-1.42386 -19.765942,-3.25283 -24.979872,-4.06438 -12.337479,-1.92033 -16.070486,-4.21112 -12.568726,-7.71287 1.713763,-1.71377 1.665122,-1.72152 30.548598,4.87271 31.981585,7.30156 37.320085,8.44907 37.671575,8.09758 0.63649,-0.63648 -24.634839,-8.149 -56.086506,-16.67307 -7.001612,-1.89758 -11.390408,-4.8766 -10.147408,-6.88781 0.374205,-0.60544 1.694707,-1.10083 2.934449,-1.10083 1.239742,0 15.898782,4.5144 32.575645,10.03201 16.676862,5.5176 30.51211,9.84146 30.74499,9.60857 0.60465,-0.60465 -35.274544,-14.70648 -53.192745,-20.90669 -7.438049,-2.57378 -8.5,-3.36791 -8.5,-6.35633 0,-5.20178 7.433632,-2.96014 36,10.85592 18.181885,8.79364 30.038838,14.06102 30.534908,13.56495 0.19443,-0.19444 -13.458883,-7.31612 -30.340699,-15.82597 -27.947834,-14.08805 -30.694209,-15.69614 -30.694209,-17.97246 0,-4.63872 4.973609,-3.01436 22.145919,7.2328 13.923465,8.30848 32.881116,18.9985 40.354079,22.75524 9.81554,4.93437 -21.110158,-15.13706 -50.510746,-32.78254 -4.267542,-2.56127 -5.489252,-3.84102 -5.489252,-5.75 0,-4.68114 4.159193,-2.94707 19.894421,8.2945 30.778954,21.98912 42.105577,29.78204 42.105577,28.96936 0,-0.41763 -10.122073,-8.42258 -17.980073,-14.21936 -1.49113,-1.1 -6.943126,-5.19683 -12.115539,-9.10407 -5.172412,-3.90724 -12.920958,-9.46238 -17.21899,-12.34474 -7.88106,-5.28523 -10.484057,-8.52752 -9.307538,-11.593482 1.629348,-4.24602 6.153222,-0.8843 44.520987,33.083772 13.738693,12.16325 20.429243,17.32948 12.057723,9.31058 C 103.92109,136.63912 83.207983,117.60991 70.8927,106.5094 58.543981,95.378758 58.416502,95.241418 58.416502,93.068418 c 0,-2.46094 1.50534,-3.39998 4.318506,-2.69392 1.65109,0.41439 28.620869,26.488452 37.222099,35.985872 9.075463,10.02106 12.459393,13.47016 12.459393,12.69936 0,-0.51276 -0.44615,-1.20802 -0.99145,-1.54505 -0.5453,-0.33701 -4.92103,-5.20107 -9.72383,-10.80901 -4.802813,-5.60795 -10.604573,-12.22127 -12.892813,-14.69627 -2.288241,-2.47499 -7.025018,-7.60496 -10.526172,-11.39993 -3.501153,-3.794962 -7.849296,-8.273932 -9.662541,-9.953272 -3.861514,-3.57634 -4.162084,-7.93862 -0.582184,-8.44944 2.60438,-0.37162 4.352444,1.60091 29.512877,33.302642 10.476323,13.20001 19.522993,24.45001 20.103693,25 1.74303,1.65087 -0.17123,-1.5122 -4.23632,-7 -2.03707,-2.75 -9.46292,-13.1 -16.501883,-23 -7.03896,-9.9 -14.220831,-19.799992 -15.959708,-22.000002 -3.677031,-4.65211 -6.015451,-9.92114 -5.07697,-11.43964 0.360435,-0.58319 1.49829,-1.06035 2.528566,-1.06035 1.313335,0 4.040232,3.51198 9.123342,11.74999 18.151603,29.417652 39.797693,62.720632 33.961163,52.250002 -1.07303,-1.92499 -5.82347,-10.475 -10.55653,-19 -4.73307,-8.525 -11.266453,-19.775 -14.518623,-25.000002 -7.28066,-11.69721 -12.000615,-20.48731 -12.000615,-22.34903 0,-2.06559 2.494285,-3.78226 4.421175,-3.04284 0.92247,0.35399 7.66406,12.60148 15.009183,27.26725 12.94676,25.850422 19.51436,38.279742 19.55152,37.001742 0.0204,-0.70026 -2.7503,-7.1919 -7.20325,-16.87712 -1.64367,-3.575 -4.93012,-11 -7.30322,-16.5 -2.37309,-5.500002 -6.56308,-14.900462 -9.311083,-20.889912 -5.19199,-11.31632 -5.58544,-15.11008 -1.56705,-15.11008 2.013863,0 4.688043,5.79497 10.292053,22.30296 3.48092,10.25391 14.95066,40.370362 15.63585,41.055552 1.25008,1.25008 -3.7e-4,-3.34778 -5.60821,-20.6213 -3.34567,-10.305472 -6.55606,-20.312212 -7.13419,-22.237222 -0.57814,-1.92499 -2.34077,-6.91329 -3.91697,-11.0851 -3.18983,-8.4427 -3.40747,-9.97324 -1.66581,-11.71489 3.68629,-3.68629 5.07064,0.11006 19.41304,53.236752 2.06935,7.66522 3.92649,13.44467 4.12697,12.84322 0.20048,-0.60145 -1.01539,-6.873 -2.70195,-13.93676 -8.30981,-34.803842 -11.3071,-50.457332 -10.14839,-53.000422 0.70085,-1.53818 1.7921,-2.35815 2.86372,-2.15177 3.39927,0.65464 4.93837,6.48623 8.26318,31.30897 0.66301,4.95 2.50551,16.792212 4.09445,26.316012 1.58894,9.52381 2.88898,17.8113 2.88898,18.41667 0,0.60536 0.24746,0.8532 0.5499,0.55075 0.56783,-0.56782 -3.91322,-46.022332 -5.4993,-55.783422 -2.70868,-16.66985 -2.26203,-23 1.62287,-23 3.19541,0 4.12143,6.18288 5.31688,35.49999 0.65039,15.950002 1.52541,34.625002 1.94451,41.500002 l 0.76199,12.5 0.24825,-9.5 c 0.13654,-5.225 0.17843,-25.025 0.0931,-44.000002 -0.13436,-29.87913 0.0536,-34.76787 1.40333,-36.49999 l 1.55847,-2 1.59743,2 c 1.38565,1.73485 1.5201,4.50495 1.01418,20.89484 -1.41162,45.730572 -1.53493,55.092482 -0.65337,49.605152 0.87069,-5.41966 3.45571,-32.362962 4.50933,-46.999992 1.68285,-23.37842 2.01721,-25 5.15487,-25 2.5599,0 1.9306,9.07891 -2.9805,42.99999 -3.56033,24.591272 -5.74589,41.229392 -5.45415,41.521132 0.27727,0.27727 10.55536,-52.183262 14.2897,-72.936292 1.51877,-8.44032 3.78221,-12.33573 5.56929,-9.58483 1.50997,2.32434 -0.81072,14.22157 -11.02097,56.499992 -6.29184,26.05316 -6.30503,26.11256 -5.65432,25.46185 0.58714,-0.58714 6.02725,-18.33439 9.95061,-32.46185 1.37468,-4.94999 3.83435,-13.274992 5.46594,-18.500002 1.63159,-5.22499 3.28661,-11.52499 3.67782,-13.99999 1.355,-8.57255 3.62966,-14.98076 5.71342,-16.09595 4.57035,-2.44598 4.41785,0.4737 -0.87978,16.84435 -2.80351,8.66338 -7.12385,22.2766 -9.60076,30.251592 -2.4769,7.975 -5.46856,17.13649 -6.64814,20.35887 -1.17958,3.22238 -1.9912,6.31933 -1.8036,6.88212 0.32736,0.98208 5.87881,-12.62896 18.24821,-44.740982 8.46252,-21.96941 9.60138,-24.48133 11.57936,-25.53991 5.97547,-3.19798 5.16624,1.14516 -3.63282,19.49727 -4.15704,8.67029 -8.46842,18.076822 -9.58084,20.903402 -1.11242,2.82658 -4.72217,10.91577 -8.02166,17.97599 -6.11646,13.08794 -7.51661,18.91003 -1.84627,7.67716 1.71816,-3.40366 5.17809,-10.08669 7.68875,-14.85119 2.51065,-4.7645 8.86577,-16.987722 14.12249,-27.162732 9.21668,-17.83996 11.25165,-20.89965 13.94578,-20.96819 4.12816,-0.10503 -1.94647,14.07389 -13.69604,31.96819 -1.98624,3.025012 -5.77254,9.100002 -8.41399,13.500002 -2.64146,4.4 -6.70076,11.15 -9.02068,15 -2.31993,3.85 -4.55711,7.88628 -4.97152,8.96953 -1.42737,3.731 -2.95657,5.99406 30.90916,-45.742292 9.24825,-14.12848 12.77184,-18.26011 14.60604,-17.12651 2.30971,1.42747 0.0592,6.08202 -8.68487,17.96225 -8.68188,11.795722 -15.36372,20.998342 -24.24016,33.384982 -6.58461,9.18848 -15.23342,22.05204 -14.82669,22.05204 0.23012,0 2.11984,-2.36249 4.19936,-5.25 3.86481,-5.36645 18.33828,-23.84716 19.38337,-24.75 1.4219,-1.22836 17.04089,-20.901902 19.45075,-24.500002 3.04709,-4.54951 11.35431,-13.49999 12.52978,-13.49999 0.42933,0 1.26643,0.58539 1.86023,1.30087 1.44866,1.74552 -1.47952,6.42559 -9.83474,15.71871 -9.07448,10.093122 -11.88631,13.388302 -28.56928,33.480412 -12.3452,14.86792 -14.26515,17.59359 -7.39615,10.5 18.5434,-19.14973 27.92837,-28.98596 38.44898,-40.297782 9.95559,-10.70432 12.3195,-12.74908 14.45099,-12.5 5.74249,0.67104 3.88556,3.66109 -11.56938,18.629212 -8.17584,7.9183 -19.81516,18.7993 -25.86516,24.17999 -17.60068,15.65353 -25.67196,23.72765 -14.43237,14.43744 1.9622,-1.62187 5.78024,-4.74885 8.48454,-6.94886 2.7043,-2.2 10.32387,-8.50554 16.93237,-14.01231 32.53266,-27.109012 35.51546,-29.181352 35.51546,-24.674782 0,2.479132 -2.49145,4.614092 -25.5,21.851352 -25.64938,19.21568 -33.87925,25.44563 -34.5,26.11625 -1.36413,1.47366 9.22369,-5.40145 20.5,-13.31151 4.4,-3.0865 13.85,-9.51718 21,-14.29041 7.15,-4.77322 13.225,-8.9533 13.5,-9.28905 0.275,-0.33576 1.94015,-1.34826 3.70034,-2.25 6.22102,-3.18703 9.41179,-1.34768 5.54966,3.19915 -1.66208,1.95674 -21.24562,14.2581 -35.25,22.14222 -6.47666,3.64619 -22.01692,13.62464 -22.9888,14.76116 -0.28116,0.3288 3.5388,-1.57377 8.4888,-4.22792 4.95,-2.65415 14.47281,-7.64991 21.1618,-11.10171 6.689,-3.4518 14.07995,-7.48687 16.42435,-8.96682 7.57859,-4.78415 18.26641,-9.49306 19.26956,-8.4899 1.86274,1.86273 -2.31586,5.84399 -10.55175,10.05342 -4.56718,2.33433 -8.75396,4.58487 -9.30396,5.0012 -0.55,0.41633 -7.975,4.22209 -16.5,8.45726 -22.17809,11.01792 -23.93156,11.93417 -23.55656,12.30917 0.38191,0.38191 5.07144,-1.69491 21.55656,-9.54658 6.325,-3.01252 13.075,-6.04627 15,-6.74167 1.925,-0.69539 7.41003,-3.11478 12.18896,-5.37643 9.16074,-4.33536 15.40934,-5.32248 16.4543,-2.59935 0.82058,2.1384 -1.20005,4.19159 -5.47325,5.56147 -8.64332,2.77081 -60.35188,23.07725 -59.9042,23.52494 0.47001,0.47 12.70897,-3.31582 40.23419,-12.44545 27.19298,-9.01943 30.5,-9.62688 30.5,-5.60234 0,2.21181 -3.93201,3.5956 -34,11.96557 -29.35416,8.17127 -33.06886,9.28028 -31.49963,9.40412 1.16047,0.0916 7.38786,-1.25654 31.3067,-6.77738 22.28933,-5.14471 34.76576,-6.97084 36.40772,-5.32888 2.88844,2.88845 -1.71677,4.29412 -28.82273,8.79778 -14.79063,2.45746 -31.39206,5.33837 -36.89206,6.40202 l -10,1.9339 8,-0.53351 c 4.4,-0.29343 10.475,-0.90071 13.5,-1.3495 3.025,-0.44879 11.575,-1.56151 19,-2.47271 7.425,-0.9112 16.63303,-2.18254 20.46228,-2.82521 10.50377,-1.76284 15.90831,-1.62422 16.31998,0.41859 0.50101,2.48615 -4.66571,3.61727 -24.28226,5.31595 -9.35,0.80965 -22.625,2.1541 -29.5,2.98767 -6.875,0.83356 -13.85,1.67194 -15.5,1.86307 -8.38197,0.9709 18.93172,0.43923 39,-0.75916 23.84055,-1.42365 28.68825,-1.2767 30.51551,0.925 0.81071,0.97685 0.51405,1.69742 -1.19034,2.89122 -1.96301,1.37495 -7.07726,1.60698 -37.79768,1.71486 -23.37151,0.0821 -33.64563,0.41274 -30.02749,0.96644 6.80296,1.04108 41.93697,2.86652 55.63922,2.89082 8.34598,0.0148 10.54202,0.34416 12.41675,1.86222 1.45714,1.17992 2.04867,2.44068 1.64217,3.5 -0.74237,1.9346 -8.31545,2.16995 -20.69814,0.64322 -19.55843,-2.41146 -47.27137,-5.04942 -47.77331,-4.54748 -0.30801,0.30801 0.46309,0.56002 1.71356,0.56002 1.25047,0 5.26297,0.65837 8.91667,1.46305 3.65369,0.80468 11.14308,2.1647 16.64308,3.02226 26.78538,4.1764 36.88818,6.32507 38.20459,8.12538 3.4706,4.74632 -2.54491,5.04374 -20.70459,1.02368 -22.31049,-4.93894 -50.32037,-10.64733 -50.64606,-10.32164 -0.17474,0.17473 4.96165,1.80144 11.41418,3.6149 6.45253,1.81346 13.75688,3.90887 16.23188,4.65647 2.475,0.74759 11.11131,2.93003 19.1918,4.84984 18.0809,4.2958 21.8082,5.75649 21.8082,8.54643 0,4.19667 -0.20893,4.15619 -36,-6.97429 -19.49622,-6.06303 -26.33806,-8.00135 -26.75858,-7.58082 -0.37985,0.37985 27.6155,10.8313 41.71726,15.57423 13.31911,4.4797 16.54132,6.13712 16.54132,8.50839 0,4.6169 -5.20777,3.12281 -37.5,-10.75861 -10.175,-4.37392 -20.075,-8.62912 -22,-9.45601 -1.925,-0.82689 -3.20469,-1.19834 -2.84376,-0.82544 0.68847,0.7113 15.07758,7.71716 30.34376,14.77395 19.30819,8.92521 27,13.28823 27,15.31521 0,4.15609 -8.09555,2.27498 -19.35023,-4.49629 -5.35819,-3.22371 -40.14977,-21.1148 -40.14977,-20.64647 0,0.1717 4.1625,2.87083 9.25,5.99807 5.0875,3.12724 12.175,7.51848 15.75,9.75829 3.575,2.23981 10.1,5.96365 14.5,8.27519 12.46829,6.55022 15.5,8.60994 15.5,10.53057 0,3.50445 -2.50975,4.31442 -6.71734,2.16786 -4.19114,-2.13816 -21.94778,-13.92554 -40.28266,-26.74081 -18.88443,-13.1994 -18.98137,-12.65434 -0.3049,1.71435 6.7073,5.16024 16.32499,12.30726 21.37264,15.88227 16.47741,11.67013 19.0818,13.93801 18.74252,16.32089 -0.57204,4.0177 -4.08046,3.08984 -12.90696,-3.41351 -4.62181,-3.40534 -11.1033,-8.5004 -14.4033,-11.32232 -3.3,-2.82193 -8.475,-7.00378 -11.5,-9.29299 -3.025,-2.28922 -7.075,-5.37357 -9,-6.85412 -4.8718,-3.74699 11.48067,11.91954 23,22.03522 18.43376,16.18757 19.29217,17.1124 18.04548,19.44185 -0.61372,1.14674 -1.81289,2.08498 -2.66484,2.08498 -0.85194,0 -11.41145,-9.7875 -23.46557,-21.75 -12.05412,-11.9625 -21.91624,-21.50213 -21.91583,-21.19917 8.3e-4,0.60096 14.36014,16.90262 25.50076,28.95016 14.18629,15.34114 15.54316,17.38443 13.14013,19.78746 -1.11637,1.11636 -2.11531,1.29505 -3.54067,0.63333 -2.01833,-0.93699 -16.61369,-17.37245 -22.41501,-25.24095 -1.75145,-2.37555 -4.85835,-6.32471 -6.90424,-8.77591 -2.04588,-2.45121 -5.105,-6.47008 -6.79804,-8.93083 -1.69304,-2.46076 -3.29747,-4.4741 -3.56539,-4.4741 -0.72563,0 0.85145,2.44877 8.83967,13.72554 3.98395,5.62405 9.0277,12.82405 11.20832,16 2.18062,3.17595 6.04592,8.24946 8.58956,11.27447 5.80178,6.89972 7.2214,9.5559 6.43368,12.03776 -1.98261,6.24667 -7.34453,-0.40535 -29.45157,-36.53777 -5.72064,-9.35 -11.06635,-17.79026 -11.87934,-18.75613 -2.85619,-3.39327 -2.19078,-0.94182 1.45893,5.37494 2.02782,3.50966 5.35132,9.30619 7.38555,12.8812 2.03423,3.575 5.67856,9.84034 8.09851,13.92298 2.41995,4.08264 5.15001,8.73087 6.06679,10.32941 0.91679,1.59854 2.30198,3.6582 3.07822,4.57702 6.37801,7.54957 7.95547,18.56933 1.92038,13.41523 -2.2428,-1.9154 -3.97924,-4.75325 -10.24577,-16.74464 -2.29938,-4.4 -7.85247,-14.75 -12.34021,-23 -4.48774,-8.25 -9.87028,-18.52124 -11.9612,-22.82498 -2.09092,-4.30375 -3.99497,-7.63169 -4.23122,-7.39544 -0.23626,0.23626 0.88201,3.08251 2.48504,6.32499 3.52081,7.12162 14.12788,31.045 14.12788,31.86429 0,0.32129 3.6,8.04058 8,17.15399 4.4,9.11341 8,17.4406 8,18.50488 0,2.48238 -2.75419,3.55846 -4.50214,1.75901 -0.74089,-0.76271 -3.0094,-5.43674 -5.04115,-10.38674 -2.03175,-4.95 -7.62437,-18.225 -12.42806,-29.5 -4.80369,-11.275 -9.29513,-22.21765 -9.98098,-24.317 -0.68585,-2.09935 -1.45153,-3.61249 -1.7015,-3.36251 -0.24998,0.24998 2.04487,7.48216 5.09966,16.07151 3.05479,8.58936 5.55417,15.85964 5.55417,16.15618 0,0.98001 7.05741,19.82121 10.17457,27.16307 3.20057,7.53832 3.27218,11.79634 0.21809,12.9683 -3.14427,1.20657 -5.7083,-4.22919 -9.51862,-20.17955 -1.86903,-7.82396 -16.73788,-54.56268 -16.81953,-52.87052 -0.0872,1.80746 8.80038,37.59206 13.62785,54.87052 3.01457,10.78971 4.10969,20.89245 2.38055,21.96112 -0.65391,0.40413 -2.0194,-0.0168 -3.03441,-0.93534 -1.90412,-1.72319 -3.67189,-7.80764 -6.54465,-22.52578 -0.91249,-4.675 -2.2602,-11.425 -2.99491,-15 -0.73471,-3.575 -2.35385,-11.77895 -3.59808,-18.23098 -1.24424,-6.45204 -2.45769,-11.53554 -2.69656,-11.29667 -0.59993,0.59994 4.01414,34.37291 8.36532,61.23044 0.91676,5.65866 -0.0824,9.29721 -2.55299,9.29721 -3.45022,0 -4.69797,-4.65859 -5.89248,-22 -0.62511,-9.075 -1.66307,-22.34465 -2.30659,-29.48812 -1.65135,-18.33107 -2.80718,-12.03679 -1.67664,9.13046 0.49521,9.2717 1.00583,22.93266 1.13473,30.35766 0.23013,13.25694 0.19448,13.50567 -1.9803,13.81491 -1.63904,0.23308 -2.34013,-0.28675 -2.69742,-2 z m 3.12832,-75.56492 c -0.22912,-1.5125 -0.41659,-0.275 -0.41659,2.75 0,3.025 0.18747,4.2625 0.41659,2.75 0.22913,-1.5125 0.22913,-3.9875 0,-5.5 z m -19.71625,-1.6078 c 0,-1.27054 -0.4619,-0.70323 -1.91971,2.3578 -1.12265,2.35727 -1.10183,2.38918 0.36454,0.55887 0.85535,-1.06762 1.55517,-2.38012 1.55517,-2.91667 z m 12.68311,-2.8297 c -0.31922,-0.79773 -0.55618,-0.56078 -0.60416,0.60417 -0.0434,1.05416 0.19292,1.64479 0.52522,1.3125 0.33229,-0.3323 0.36781,-1.19479 0.0789,-1.91667 z m 10,-2 c -0.31922,-0.79773 -0.55618,-0.56078 -0.60416,0.60417 -0.0434,1.05416 0.19292,1.64479 0.52522,1.3125 0.33229,-0.3323 0.36781,-1.19479 0.0789,-1.91667 z m 8.43896,-0.4875 c -1.17884,-2.02721 -1.46351,-1.37835 -0.49853,1.13634 0.34294,0.8937 0.83419,1.41426 1.09166,1.15679 0.25747,-0.25747 -0.009,-1.28938 -0.59313,-2.29313 z m 9.87793,0.675 c -0.5887,-1.1 -1.29537,-2 -1.57037,-2 -0.275,0 -0.0183,0.9 0.57037,2 0.5887,1.1 1.29537,2 1.57037,2 0.275,0 0.0183,-0.9 -0.57037,-2 z m -27.31689,-3.1875 c -0.31922,-0.79773 -0.55618,-0.56078 -0.60416,0.60417 -0.0434,1.05416 0.19292,1.64479 0.52522,1.3125 0.33229,-0.3323 0.36781,-1.19479 0.0789,-1.91667 z m -3,-1 c -0.31922,-0.79773 -0.55618,-0.56078 -0.60416,0.60417 -0.0434,1.05416 0.19292,1.64479 0.52522,1.3125 0.33229,-0.3323 0.36781,-1.19479 0.0789,-1.91667 z m -4.7634,-2.8125 c 1.12265,-2.35727 1.10183,-2.38918 -0.36454,-0.55887 -0.85535,1.06762 -1.55517,2.38012 -1.55517,2.91667 0,1.27054 0.4619,0.70323 1.91971,-2.3578 z m 13.78755,-10.23834 c -0.23919,-1.24391 -0.44398,-0.46166 -0.45508,1.73834 -0.0111,2.2 0.18461,3.21775 0.4349,2.26166 0.25029,-0.95608 0.25937,-2.75609 0.0202,-4 z m -10.10917,0.63338 c -0.28326,-0.73818 0.0823,-1.69155 0.81245,-2.11859 0.73011,-0.42705 1.62041,-1.90145 1.97844,-3.27645 0.59288,-2.27695 0.53765,-2.33191 -0.61901,-0.61604 -0.69848,1.03618 -2.28247,3.12615 -3.51997,4.64436 -2.77783,3.40795 -2.80897,3.93061 -0.19344,3.24665 1.19755,-0.31318 1.84143,-1.0984 1.54153,-1.87993 z m -15.59809,-2.96541 c 0,-0.275 -0.9,-0.0183 -2,0.57037 -1.1,0.5887 -2,1.29537 -2,1.57037 0,0.275 0.9,0.0183 2,-0.57037 1.1,-0.5887 2,-1.29537 2,-1.57037 z m 6,0 c 0,-0.275 -0.9,-0.0183 -2,0.57037 -1.1,0.5887 -2,1.29537 -2,1.57037 0,0.275 0.9,0.0183 2,-0.57037 1.1,-0.5887 2,-1.29537 2,-1.57037 z m 22.68311,0.38287 c -0.31922,-0.79773 -0.55618,-0.56078 -0.60416,0.60417 -0.0434,1.05416 0.19292,1.64479 0.52522,1.3125 0.33229,-0.3323 0.36781,-1.19479 0.0789,-1.91667 z m -3.57061,-5.1 c -0.81667,-0.81667 -1.1125,-0.70476 -1.1125,0.42083 0,0.84334 0.32812,1.86146 0.72917,2.2625 0.40104,0.40104 0.90166,0.21167 1.1125,-0.42083 0.21083,-0.6325 -0.1173,-1.65063 -0.72917,-2.2625 z m -30.1125,1.2875 c 1.82797,-1.18132 0.24909,-1.18132 -2.5,0 -1.31874,0.56668 -1.48906,0.87815 -0.5,0.9144 0.825,0.0302 2.175,-0.38124 3,-0.9144 z m -11.750003,-4.66228 c -0.6875,-0.27741 -1.8125,-0.27741 -2.5,0 -0.6875,0.27741 -0.125,0.50439 1.25,0.50439 1.375,0 1.937503,-0.22698 1.25,-0.50439 z m 33.067223,-2.2757 c 0.44947,-0.43805 0.0949,-1.07362 -0.78786,-1.41238 -0.93122,-0.35734 -1.83383,-0.0198 -2.14997,0.80408 -0.2997,0.781 -1.18267,1.17526 -1.96215,0.87615 -0.77948,-0.29912 -1.41724,0.003 -1.41724,0.67155 0,1.28776 4.75798,0.58022 6.31722,-0.9394 z m 55.93278,1.2757 c -0.6875,-0.27741 -1.8125,-0.27741 -2.5,0 -0.6875,0.27741 -0.125,0.50439 1.25,0.50439 1.375,0 1.9375,-0.22698 1.25,-0.50439 z m -29.67186,-4.94611 c 0.78202,0.30009 1.42186,0.10974 1.42186,-0.42299 0,-0.53274 1.2,-0.96862 2.66667,-0.96862 1.46666,0 2.45074,-0.21592 2.18684,-0.47982 -0.2639,-0.2639 -3.48992,-0.19873 -7.16892,0.14482 -5.42186,0.5063 -6.47934,0.87739 -5.58184,1.95881 0.82422,0.99313 1.61163,1.06424 3.0804,0.27817 1.08522,-0.58079 2.61297,-0.81046 3.39499,-0.51037 z m -25.16788,-4.01836 c 0.70654,-1.8412 -0.75784,-3.9695 -3.82802,-5.56356 -1.97712,-1.02654 -1.96865,-0.95743 0.16776,1.36904 2.78483,3.03258 2.99541,4.56668 0.25,1.82127 -2.15297,-2.15297 -4,-2.61473 -4,-1 0,0.55 0.45,1 1,1 0.55,0 1,0.642 1,1.42668 0,1.21834 1.19103,1.92477 4.14301,2.45732 0.35366,0.0638 0.92392,-0.61604 1.26725,-1.51075 z m 48.3514,0.93967 c -0.95609,-0.25029 -2.75609,-0.25937 -4,-0.0202 -1.24391,0.23919 -0.46166,0.44398 1.73834,0.45508 2.2,0.0111 3.21775,-0.1846 2.26166,-0.4349 z m -2.51166,-3.9752 c -0.6875,-0.27741 -1.8125,-0.27741 -2.5,0 -0.6875,0.27741 -0.125,0.50439 1.25,0.50439 1.375,0 1.9375,-0.22698 1.25,-0.50439 z m -70.52083,-0.94189 c -0.3323,-0.33229 -1.1948,-0.36781 -1.91667,-0.0789 -0.79773,0.31922 -0.56078,0.55618 0.60417,0.60416 1.05416,0.0434 1.64479,-0.19293 1.3125,-0.52522 z m 48.27083,-2.84078 c 0,-1.82806 1.42882,-3.46813 5.66279,-6.5 3.11454,-2.23028 5.41949,-4.05505 5.12213,-4.05505 -1.76963,0 -7.8499,3.46571 -11.22943,6.4007 -3.39402,2.94757 -3.76071,3.6471 -2.62755,5.01247 1.89559,2.28405 3.07206,1.95542 3.07206,-0.85812 z m -56.27083,0.84079 c -0.3323,-0.33229 -1.194803,-0.36781 -1.916673,-0.0789 -0.79773,0.31922 -0.56078,0.55619 0.60417,0.60417 1.054163,0.0434 1.644793,-0.19293 1.312503,-0.52522 z m 29.67887,-2.89584 c -0.90093,-1.375 -2.11475,-2.5 -2.69736,-2.5 -0.58262,0 -0.002,1.125 1.28932,2.5 1.29175,1.375 2.50556,2.5 2.69737,2.5 0.1918,0 -0.38839,-1.125 -1.28933,-2.5 z m 8.98497,0.91821 c 0.90463,-2.35742 0.7352,-3.61548 -0.39301,-2.91821 -0.55,0.33992 -1.03163,0.029 -1.07029,-0.69098 -0.0386,-0.71995 -0.42638,-0.40902 -0.86161,0.69098 -0.84665,2.13981 -0.35788,4.5 0.9319,4.5 0.43231,0 1.05917,-0.71179 1.39301,-1.58179 z m -5.27094,-2.0932 c -0.87155,-1.49878 -1.06669,-1.54198 -1.09166,-0.24167 -0.0323,1.68407 1.01919,3.2004 1.72792,2.49167 0.23375,-0.23376 -0.0526,-1.24626 -0.63626,-2.25 z m 12.87793,1.13981 c 0,-0.84435 0.63287,-2.53185 1.40637,-3.75 0.7735,-1.21814 1.38737,-3.56482 1.36416,-5.21482 l -0.0422,-3 -1.08649,2.5 c -0.59757,1.375 -1.49409,2.78719 -1.99228,3.1382 -0.49818,0.351 -0.59657,1.1385 -0.21865,1.75 0.37792,0.61149 0.18402,1.1118 -0.4309,1.1118 -0.61492,0 -0.83992,0.45001 -0.5,1 0.33992,0.55 0.14148,1 -0.44098,1 -0.58246,0 -1.05902,0.675 -1.05902,1.5 0,0.82501 0.675,1.5 1.5,1.5 0.825,0 1.5,-0.69083 1.5,-1.53518 z m 28.13671,-0.25258 c -0.72144,-0.24047 -1.78716,0.0382 -2.36826,0.61932 -0.74207,0.74206 -0.35164,0.87221 1.31171,0.43724 1.3522,-0.35361 1.8055,-0.80691 1.05655,-1.05656 z m 5.86329,-1.21224 c 1.82797,-1.18132 0.24909,-1.18132 -2.5,0 -1.31874,0.56669 -1.48906,0.87815 -0.5,0.9144 0.825,0.0302 2.175,-0.38124 3,-0.9144 z m 0,-5 c 0.825,-0.53315 1.05,-0.96937 0.5,-0.96937 -0.55,0 -1.675,0.43622 -2.5,0.96937 -0.825,0.53316 -1.05,0.96937 -0.5,0.96937 0.55,0 1.675,-0.43621 2.5,-0.96937 z m -36.31689,-6.1875 c -0.31922,-0.79773 -0.55618,-0.56078 -0.60416,0.60417 -0.0434,1.05416 0.19292,1.64479 0.52522,1.3125 0.33229,-0.3323 0.36781,-1.1948 0.0789,-1.91667 z m -26.68311,0.80994 c 0,-0.20765 -0.7875,-0.99515 -1.75,-1.75 -1.58606,-1.24387 -1.62143,-1.2085 -0.37756,0.37756 1.30637,1.66575 2.12756,2.19548 2.12756,1.37244 z m 9.34508,-2.16557 c -0.32569,-0.84872 -0.80663,-1.32866 -1.06875,-1.06653 -0.26213,0.26213 -0.17998,0.95654 0.18255,1.54313 0.98605,1.59546 1.56238,1.28551 0.8862,-0.4766 z m 4.64669,-3.17545 c -1.08316,-1.68848 -1.11276,-1.68585 -0.56728,0.0504 0.31653,1.00748 0.62771,2.58248 0.69151,3.5 0.10451,1.50288 0.16073,1.49788 0.56727,-0.0504 0.2482,-0.94522 -0.063,-2.52022 -0.6915,-3.5 z m 18.69134,2.53108 c -0.31922,-0.79773 -0.55618,-0.56078 -0.60416,0.60417 -0.0434,1.05416 0.19292,1.64479 0.52522,1.3125 0.33229,-0.3323 0.36781,-1.1948 0.0789,-1.91667 z m -14.99012,-3.54347 c -0.25354,-0.97297 -0.47766,-0.41903 -0.49804,1.23097 -0.0204,1.65 0.18706,2.44607 0.46099,1.76903 0.27392,-0.67703 0.29059,-2.02702 0.0371,-3 z m 21.30701,-2.62683 c 0,-1.27053 -0.4619,-0.70323 -1.91971,2.3578 -1.12265,2.35727 -1.10183,2.38918 0.36454,0.55887 0.85535,-1.06762 1.55517,-2.38012 1.55517,-2.91667 z m -3.70989,1.35642 c 0.28785,-1.10076 0.11534,-1.7492 -0.38337,-1.44097 -0.49871,0.30822 -0.90674,1.20883 -0.90674,2.00137 0,2.06975 0.6795,1.7746 1.29011,-0.5604 z m 76.31526,148.4639 c -3.20565,-3.20564 -1.40752,-8.46251 2.89463,-8.46251 3.74045,0 5.8789,4.36041 3.73469,7.61521 -1.36823,2.07689 -4.94285,2.53377 -6.62932,0.8473 z m 11.59463,-1.66251 c -1.63127,-1.63128 -1.50736,-3.91617 0.3567,-6.57749 3.49777,-4.99376 10.19706,-0.36701 7.62915,5.26894 -1.25604,2.75669 -5.7941,3.50029 -7.98585,1.30855 z M 46.248041,281.53902 c -1.470159,-3.22665 0.463403,-5.75092 4.082865,-5.33018 4.838191,0.56241 3.32852,7.80056 -1.626972,7.80056 -0.73167,0 -1.836822,-1.11167 -2.455893,-2.47038 z m -23.885335,-4.13014 c -1.249769,-2.33521 -1.196499,-2.74329 0.52215,-4 2.745419,-2.00749 5.187699,-1.72862 6.954708,0.79414 1.388728,1.98269 1.379277,2.36731 -0.09828,4 -2.381669,2.63171 -5.738467,2.27043 -7.378574,-0.79414 z m 12.08898,-1.33374 c -1.703232,-3.18252 -1.189415,-4.98893 1.619593,-5.69394 3.024409,-0.75908 5.689213,0.54939 6.177799,3.03342 0.817292,4.15522 -5.79077,6.40993 -7.797392,2.66052 z"
         id="path654"
         inkscape:connector-curvature="0" />
    </g>
  </g>
</svg>
