<?xml version="1.0" encoding="UTF-8" standalone="no"?>
<!-- Created with Inkscape (http://www.inkscape.org/) -->

<svg
   xmlns:dc="http://purl.org/dc/elements/1.1/"
   xmlns:cc="http://creativecommons.org/ns#"
   xmlns:rdf="http://www.w3.org/1999/02/22-rdf-syntax-ns#"
   xmlns:svg="http://www.w3.org/2000/svg"
   xmlns="http://www.w3.org/2000/svg"
   xmlns:sodipodi="http://sodipodi.sourceforge.net/DTD/sodipodi-0.dtd"
   xmlns:inkscape="http://www.inkscape.org/namespaces/inkscape"
   version="1.1"
   id="svg2949"
   width="283"
   height="443"
   viewBox="0 0 283 443"
   sodipodi:docname="feu120.svg"
   inkscape:version="0.92.4 (5da689c313, 2019-01-14)">
  <metadata
     id="metadata2955">
    <rdf:RDF>
      <cc:Work
         rdf:about="">
        <dc:format>image/svg+xml</dc:format>
        <dc:type
           rdf:resource="http://purl.org/dc/dcmitype/StillImage" />
        <dc:title></dc:title>
      </cc:Work>
    </rdf:RDF>
  </metadata>
  <defs
     id="defs2953" />
  <sodipodi:namedview
     pagecolor="#ffffff"
     bordercolor="#666666"
     borderopacity="1"
     objecttolerance="10"
     gridtolerance="10"
     guidetolerance="10"
     inkscape:pageopacity="0"
     inkscape:pageshadow="2"
     inkscape:window-width="1280"
     inkscape:window-height="972"
     id="namedview2951"
     showgrid="false"
     inkscape:zoom="1.5067919"
     inkscape:cx="133.12378"
     inkscape:cy="221.34636"
     inkscape:window-x="-8"
     inkscape:window-y="-8"
     inkscape:window-maximized="1"
     inkscape:current-layer="g534"
     showguides="true" />
  <g
     id="g151"
     transform="translate(25.882805,-2.654647)">
    <g
       id="g534"
       transform="translate(-21.900834,-45.792654)">
      <g
         id="g752"
         transform="translate(-7.3002781,-29.864775)">
        <path
           style="fill:#ff00cc"
           d="m 247.85688,474.59199 c -1.06198,-1.71831 0.54484,-4.99104 2.45047,-4.99104 2.34181,0 4.44228,2.54854 3.69832,4.48727 -0.65013,1.6942 -5.18351,2.06563 -6.14879,0.50377 z m -138.44385,-1.43006 c -2.52986,-3.04829 1.46208,-7.04023 4.51037,-4.51037 0.84454,0.7009 1.40131,2.21375 1.23727,3.36187 -0.36641,2.56446 -3.97419,3.28538 -5.74764,1.1485 z m 151.98925,-1.01295 c -1.91967,-2.31306 -0.83606,-5.01173 2.15142,-5.35797 1.90312,-0.22057 3.00193,0.30245 3.81085,1.81392 2.08179,3.88987 -3.11271,6.97756 -5.96227,3.54405 z M 98.372981,471.11367 c -1.619486,-1.95135 -0.577621,-4.51272 1.835599,-4.51272 2.8864,0 4.71872,2.61442 3.15383,4.5 -1.5819,1.90607 -3.414213,1.91075 -4.989429,0.0127 z m 22.029259,-1.96474 c -0.66917,-0.8063 -0.9078,-2.38861 -0.53661,-3.55813 0.97762,-3.08022 5.86988,-2.38737 6.33427,0.89706 0.52023,3.6793 -3.44293,5.49835 -5.79766,2.66107 z m 116.19849,0.29033 c -1.90814,-1.90814 -1.4691,-4.54471 0.85813,-5.15329 3.33691,-0.87262 5.04477,0.28565 4.70765,3.19272 -0.33949,2.92739 -3.48939,4.03696 -5.56578,1.96057 z M 88.402238,465.14894 c -1.85158,-2.23102 -0.327612,-5.54799 2.549,-5.54799 3.119737,0 5.66451,4.59465 3.354318,6.0563 -2.127636,1.34615 -4.536383,1.13874 -5.903318,-0.50831 z m 165.080152,-2.32381 c -1.25497,-2.34493 0.37747,-5.22418 2.96193,-5.22418 2.35568,0 4.17283,3.89805 2.68048,5.75 -1.46434,1.8172 -4.54196,1.53039 -5.64241,-0.52582 z m -148.45331,0.10915 c -0.36667,-0.36666 -0.66667,-1.71666 -0.66667,-3 0,-1.81334 0.54929,-2.33333 2.46482,-2.33333 2.93241,0 5.03546,3.09972 3.28838,4.84679 -1.26777,1.26777 -4.04012,1.53296 -5.08653,0.48654 z m 165.41321,-0.7371 c -1.83158,-2.20691 -0.39919,-5.59623 2.36506,-5.59623 3.14386,0 5.27033,2.63905 3.89494,4.83382 -1.39157,2.2206 -4.714,2.62524 -6.26,0.76241 z m -28.31175,-2.20579 c -1.02066,-2.24009 -0.91978,-2.80639 0.71257,-4 2.60762,-1.90672 3.22274,-1.77269 5.11454,1.11456 1.32269,2.01867 1.40046,2.79524 0.40061,4 -1.92565,2.32027 -4.90571,1.78693 -6.22772,-1.11456 z m -12.52515,-0.54746 c -1.93004,-1.93004 -1.47715,-3.77916 1.22741,-5.01144 3.0587,-1.39364 5.77753,0.43374 5.32787,3.58095 -0.34886,2.44166 -4.61349,3.37227 -6.55528,1.43049 z m -104.85071,-2.4162 c -0.89449,-3.56394 0.83591,-5.09948 4.0806,-3.62109 1.73023,0.78834 2.52713,1.94654 2.52713,3.67287 0,2.13135 -0.46118,2.52144 -2.98095,2.52144 -2.3683,0 -3.11368,-0.52884 -3.62678,-2.57322 z m -10.35244,0.12121 c -1.98032,-2.38614 -0.30441,-5.71671 2.69515,-5.35613 3.72274,0.44752 5.33139,3.50471 2.82389,5.36671 -2.46039,1.82702 -3.99642,1.82407 -5.51904,-0.0106 z m -17.85625,-2.29799 c 0.360792,-3.13561 3.72012,-4.27589 5.67118,-1.92501 1.86885,2.25183 0.29927,4.67501 -3.028169,4.67501 -2.638515,0 -2.925121,-0.29821 -2.643011,-2.75 z m 165.85629,1.29804 c -1.7519,-2.1109 -0.86113,-4.99917 1.65268,-5.35872 3.04774,-0.43593 4.88641,3.08886 2.73404,5.24122 -1.9466,1.94662 -2.84864,1.97076 -4.38672,0.1175 z M 83.332895,453.06538 c -1.816962,-2.1893 -0.06253,-4.96443 3.138503,-4.96443 1.990016,0 2.391014,0.50313 2.391014,3 0,2.27999 -0.501001,3.07157 -2.087505,3.29826 -1.148128,0.16404 -2.697034,-0.43618 -3.442012,-1.33383 z m 168.465055,-0.53567 c -0.92296,-1.01985 -1.41265,-2.54604 -1.08821,-3.39152 0.75313,-1.96262 5.02806,-1.99478 6.6421,-0.05 2.85811,3.44381 -2.53016,6.78268 -5.55389,3.4415 z m -145.93554,0.30593 c -1.36656,-1.00401 -1.23845,-3.89624 0.23798,-5.37268 0.95302,-0.95301 1.65079,-0.82016 3.23839,0.6166 2.428,2.1973 2.5979,4.08704 0.44184,4.9144 -2.01823,0.77447 -2.68525,0.74752 -3.91821,-0.15832 z m 167.75,-1.89697 c -1.73003,-0.69809 -1.56672,-3.82998 0.27961,-5.36231 1.16961,-0.97068 2.11105,-1.00454 4,-0.14388 5.2386,2.38687 1.12054,7.68519 -4.27961,5.50619 z m -32.93558,-2.08772 c -0.34254,-0.9625 -0.79102,-2.06492 -0.99662,-2.44984 -0.2056,-0.3849 0.497,-1.16586 1.56133,-1.73548 2.57513,-1.37817 6.56232,1.62136 5.57507,4.19408 -0.87878,2.29005 -5.32391,2.2837 -6.13978,-0.009 z m -12.93038,-0.6916 c -0.91526,-2.38513 0.0255,-5.0136 1.92548,-5.3795 2.27244,-0.43763 4.69048,1.54019 4.69048,3.83655 0,2.90336 -5.59335,4.20783 -6.61596,1.54295 z M 96.029079,446.93428 c -0.366667,-0.36666 -0.666667,-1.74796 -0.666667,-3.06955 0,-1.89054 0.457967,-2.33475 2.147872,-2.08333 3.003726,0.44688 4.843076,3.56351 2.852126,4.8327 -1.768408,1.12732 -3.405242,1.24826 -4.333331,0.32018 z m 17.854811,-0.95471 c -2.48095,-2.48095 -1.50185,-4.87862 1.99222,-4.87862 2.38673,0 3.05406,0.47922 3.32379,2.38691 0.52985,3.74734 -2.59549,5.21224 -5.31601,2.49171 z m 145.51835,0.16937 c -1.83072,-2.20588 -0.32931,-5.54799 2.49237,-5.54799 3.38027,0 4.95594,3.24827 2.60688,5.37412 -2.21873,2.00793 -3.53973,2.05298 -5.09925,0.17387 z m -134.37316,-0.21466 c -2.75684,-2.75685 1.74179,-7.25548 5.33333,-5.33333 2.12585,1.13772 2.3631,1.8902 1.39301,4.4182 -0.603,1.5714 -5.41536,2.22612 -6.72634,0.91513 z m -80.700878,-4.39725 c -0.825573,-1.5426 -0.793416,-2.43885 0.127311,-3.54827 2.529275,-3.04759 8.02232,0.26306 6.597431,3.97627 -0.903285,2.35392 -5.388684,2.06844 -6.724742,-0.428 z m 129.999998,0 c -1.97411,-3.68865 2.81489,-6.7554 5.83421,-3.73608 1.69411,1.69411 1.48967,4.47487 -0.38179,5.19301 -2.78527,1.06881 -4.32018,0.65866 -5.45242,-1.45693 z m 13.23421,0.86392 c -2.07006,-2.07006 -1.47337,-6.49525 0.96167,-7.13203 5.39991,-1.41211 8.42923,5.39647 3.27323,7.35678 -3.14441,1.1955 -2.79617,1.21398 -4.2349,-0.22475 z M 32.292845,441.01713 c -1.753986,-2.11343 -0.004,-4.91618 3.069567,-4.91618 3.073567,0 4.823553,2.80275 3.069567,4.91618 -0.722951,0.8711 -2.104256,1.58382 -3.069567,1.58382 -0.965311,0 -2.346616,-0.71272 -3.069567,-1.58382 z m 54,0 c -1.655872,-1.99521 -0.135047,-4.78044 2.854033,-5.22686 2.730907,-0.40787 4.900876,3.27997 3.162483,5.3746 -1.571932,1.89407 -4.379178,1.82513 -6.016516,-0.14774 z m 18.080135,0.0965 c -1.75078,-2.10956 -0.46609,-4.71943 2.13283,-4.33288 3.00734,0.44732 4.84893,3.56323 2.8566,4.83329 -2.12801,1.35657 -3.56815,1.21213 -4.98943,-0.50041 z m 145.37797,0.0574 c -0.99567,-2.59467 0.39988,-4.73919 2.85699,-4.39028 1.65273,0.23469 2.25447,0.98741 2.25447,2.82014 0,1.83273 -0.60174,2.58545 -2.25447,2.82014 -1.35228,0.19202 -2.49559,-0.3082 -2.85699,-1.25 z m -84.38854,-0.50753 c -2.67427,-0.68947 -3.97443,-4.48811 -2.15788,-6.30466 1.5539,-1.5539 5.9434,-0.009 6.69401,2.35595 0.89788,2.82897 -1.33617,4.77371 -4.53613,3.94871 z m 67.05305,-2.49862 c -1.59166,-1.91783 0.31576,-5.56392 2.91071,-5.56392 2.1836,0 5.03624,2.52875 5.03624,4.46444 0,2.62925 -5.98961,3.45793 -7.94695,1.09948 z m 33.94522,-0.56716 c -0.85807,-1.60332 -0.84463,-2.47697 0.0548,-3.56068 2.65923,-3.20418 8.45956,-0.0694 6.28683,3.39774 -1.59419,2.54392 -5.02024,2.63195 -6.34161,0.16294 z M 54.292845,437.01713 c -1.699524,-2.0478 0.05166,-5.04096 2.702208,-4.61867 3.538147,0.56369 4.367359,1.14546 4.367359,3.06412 0,3.19108 -4.829919,4.25315 -7.069567,1.55455 z m -30.730433,-1.61618 c -2.821218,-2.82122 -0.06987,-7.52825 3.70086,-6.33148 1.098259,0.34859 2.282032,1.53236 2.630606,2.63061 1.196783,3.77074 -3.510248,6.52209 -6.331466,3.70087 z m 95.796708,-0.30397 c -1.1336,-1.3659 -1.00701,-1.93018 0.84949,-3.78667 1.73045,-1.73046 2.54061,-1.95514 3.9177,-1.0865 0.95485,0.60231 1.7361,2.17107 1.7361,3.48613 0,1.82736 -0.60952,2.46186 -2.5856,2.69157 -1.46927,0.17079 -3.16072,-0.39244 -3.91769,-1.30453 z m -80.60444,-4.06925 c -0.780872,-3.11124 0.587312,-4.71289 3.640269,-4.26144 5.183436,0.76648 5.199328,6.83466 0.0179,6.83466 -2.402022,0 -3.143182,-0.52134 -3.658169,-2.57322 z m 157.6476,1.12126 c -2.08603,-2.51353 -0.83155,-5.01819 2.68401,-5.35884 2.75588,-0.26704 3.30178,0.0649 3.87716,2.35733 1.00825,4.01722 -3.86719,6.24756 -6.56117,3.00151 z m 47.54252,0.13586 c -2.1681,-1.58535 -1.74253,-5.02938 0.67909,-5.49575 1.18678,-0.22854 1.73852,0.30446 1.73852,1.67951 0,1.10787 0.45734,2.29696 1.01631,2.64242 1.06313,0.65705 0.41226,2.48992 -0.8842,2.48992 -0.41242,0 -1.55979,-0.59224 -2.54972,-1.3161 z M 98.071261,431.97647 c -1.560538,-1.56054 -0.710226,-6.14191 1.234334,-6.65042 2.759855,-0.72172 5.832475,2.81798 4.412645,5.08344 -1.13364,1.80882 -4.477301,2.73665 -5.646979,1.56698 z m 56.872979,-0.89054 c -1.62395,-1.22879 -1.74227,-1.83744 -0.77143,-3.9682 0.77763,-1.70671 1.94697,-2.51679 3.63298,-2.51679 3.4035,0 4.92988,3.02208 2.95236,5.84539 -1.75329,2.50317 -3.14821,2.65663 -5.81391,0.6396 z m 22.32305,-0.0996 c -1.14947,-1.38502 -1.00316,-1.88738 1.02893,-3.53287 2.60567,-2.10994 3.91969,-2.03187 5.40389,0.3211 2.45208,3.88734 -3.43341,6.82585 -6.43282,3.21177 z m 78.29947,0.36084 c -1.55478,-1.87339 -0.34847,-5.74622 1.78984,-5.74622 2.29099,0 4.26285,2.42194 3.82817,4.70195 -0.42074,2.20691 -4.08746,2.88847 -5.61801,1.04427 z M 108.4444,428.75415 c -1.85901,-3.47359 3.30359,-5.80339 5.90744,-2.66593 0.67888,0.81799 0.9731,2.16799 0.65383,3 -0.81673,2.12837 -5.36741,1.89667 -6.56127,-0.33407 z m -58.331988,-0.21987 c -1.931157,-1.13963 -2.350065,-4.44445 -0.693165,-5.46847 0.58126,-0.35923 2.184635,-0.3701 3.563057,-0.0241 2.018236,0.50654 2.445266,1.15601 2.193165,3.3356 -0.340513,2.94394 -2.30868,3.78244 -5.063057,2.15701 z m 117.916668,0.4 c -1.33063,-1.33063 -0.62414,-5.13568 1.07457,-5.78754 2.43146,-0.93304 5.76098,3.14414 4.15138,5.0836 -1.19739,1.44276 -4.09661,1.83328 -5.22595,0.70394 z M 62.98379,426.07947 c -2.089893,-2.0899 -2.082172,-5.36447 0.01454,-6.16906 2.520692,-0.96728 4.864077,1.09751 4.864077,4.28582 0,3.38696 -2.434966,4.32689 -4.878622,1.88324 z m -33.908802,-1.09929 c -0.391917,-0.39191 -0.712576,-2.01607 -0.712576,-3.60926 0,-2.66567 0.259194,-2.8717 3.25,-2.58333 2.874809,0.27718 3.25,0.65969 3.25,3.31336 0,2.46739 -0.450488,3.05254 -2.537424,3.29591 -1.395583,0.16275 -2.858083,-0.0247 -3.25,-0.41668 z m 158.327292,-0.8312 c -1.94281,-2.34094 -0.83453,-5.01207 2.22607,-5.36518 2.11413,-0.2439 2.95144,0.2179 3.62628,2 1.54291,4.07448 -3.0648,6.72397 -5.85235,3.36518 z M 17.450052,422.20654 c -0.682642,-0.82252 -1.093667,-2.53278 -0.913389,-3.80056 0.265275,-1.86549 0.883825,-2.26477 3.24372,-2.09392 3.276416,0.23723 4.716469,1.82704 4.337757,4.78888 -0.318658,2.49216 -4.888507,3.24986 -6.668088,1.1056 z m 158.922928,-1.09287 c -2.4708,-2.97713 1.52503,-6.97296 4.50216,-4.50216 1.95356,1.62131 1.90096,4.61671 -0.0945,5.38244 -2.34587,0.9002 -3.04603,0.76036 -4.40764,-0.88028 z M 42.612412,420.51501 c -2.334881,-0.88166 -3.079698,-4.28324 -1.193165,-5.44919 1.835902,-1.13465 5.682714,0.43116 6.233476,2.53728 0.667787,2.55362 -1.963447,4.07375 -5.040311,2.91191 z m 154.864648,-0.801 c -0.91549,-0.59369 -1.1634,-1.78269 -0.73095,-3.50573 0.76111,-3.03247 4.53864,-3.61076 6.68587,-1.02351 2.55224,3.07526 -2.39483,6.83795 -5.95492,4.52924 z m 25.36613,-2.17361 c -0.99623,-3.13885 2.21499,-6.05765 5.33636,-4.85041 1.78083,0.68876 2.24373,1.53438 2,3.65357 -0.26245,2.28192 -0.86282,2.81033 -3.48167,3.06437 -2.51744,0.24421 -3.30565,-0.13766 -3.85469,-1.86753 z m 12.94413,-0.38261 c -0.83328,-3.32003 0.14791,-4.55684 3.61505,-4.55684 2.26462,0 3.05988,0.54962 3.53513,2.44315 0.83328,3.32003 -0.14791,4.55685 -3.61505,4.55685 -2.26462,0 -3.05988,-0.54962 -3.53513,-2.44316 z m -83.7615,-0.73598 c -0.77591,-2.96706 0.40683,-4.05562 3.96477,-3.64904 2.30909,0.26387 2.87182,0.81805 2.87182,2.82818 0,2.06748 -0.53967,2.55253 -3.11935,2.80361 -2.53836,0.24707 -3.23071,-0.12223 -3.71724,-1.98275 z m 13.92633,0.55239 c -0.70039,-1.82518 0.99527,-4.37325 2.91026,-4.37325 0.69031,0 1.81531,0.675 2.5,1.5 0.99319,1.19672 0.99319,1.80327 0,3 -1.6453,1.98246 -4.62769,1.9126 -5.41026,-0.12675 z M 52.112412,416.52084 c -0.9625,-0.56059 -1.75,-2.12191 -1.75,-3.46958 0,-2.04944 0.485045,-2.45031 2.964816,-2.45031 3.80671,0 5.786535,3.10579 3.461773,5.43054 -1.819451,1.81946 -2.305602,1.87032 -4.676589,0.48935 z m -20,-3 c -2.021142,-1.17721 -2.29058,-3.97931 -0.55,-5.71989 1.856279,-1.85629 3.600286,-1.43444 5.395237,1.305 1.322689,2.01867 1.400464,2.79524 0.400608,4 -1.438242,1.73298 -2.798173,1.84053 -5.245845,0.41489 z m 152.300618,-0.3589 c -2.52986,-3.04829 1.46208,-7.04023 4.51037,-4.51038 0.84454,0.7009 1.40131,2.21375 1.23727,3.36188 -0.36641,2.56445 -3.97419,3.28537 -5.74764,1.1485 z M 60.562412,412.40095 c -2.453081,-2.45308 -0.657502,-6.8 2.80887,-6.8 0.884879,0 2.464572,0.6257 3.510428,1.39044 1.632349,1.19361 1.733229,1.75991 0.712569,4 -1.284814,2.81987 -4.897406,3.54402 -7.031867,1.40956 z m 152.817378,-1.27906 c -2.13296,-2.57007 0.2627,-6.74023 3.64021,-6.33655 3.3999,0.40634 5.24551,3.15548 3.73643,5.56561 -1.44716,2.31124 -5.72708,2.75853 -7.37664,0.77094 z M 19.542864,409.95892 c -1.896976,-3.38971 0.869542,-7.04349 4.32818,-5.71628 1.710581,0.65641 3.012775,4.70564 2.026494,6.30147 -1.014706,1.64183 -5.3308,1.24437 -6.354674,-0.58519 z m 226.809806,-0.37618 c -1.549,-2.89433 -0.56183,-4.98179 2.35591,-4.98179 5.06496,0 6.40449,6.23717 1.46254,6.80993 -1.90777,0.22111 -3.00214,-0.30284 -3.81845,-1.82814 z M 42.402281,409.14899 c -1.91967,-2.31306 -0.836055,-5.01173 2.151423,-5.35797 3.674487,-0.42587 5.984627,3.4769 3.24419,5.48075 -2.347606,1.71662 -3.89833,1.68133 -5.395613,-0.12278 z m 132.160129,0.25196 c -0.66,-0.66001 -1.2,-1.76917 -1.2,-2.46482 0,-1.70166 3.48177,-3.47128 5.38949,-2.73921 1.76668,0.67794 3.03416,3.90953 2.11604,5.39508 -0.85885,1.38966 -4.84562,1.26886 -6.30553,-0.19105 z m 17.83987,-2.25196 c -2.05259,-2.47323 -0.84637,-5.04804 2.36484,-5.04804 3.58571,0 5.55383,2.64011 3.66486,4.91618 -1.64235,1.9789 -4.44591,2.04021 -6.0297,0.13186 z m -33.97518,-1.21528 c -2.43478,-1.7054 -2.64143,-3.60922 -0.57768,-5.32198 1.81616,-1.50728 6.07707,-0.58916 6.8713,1.48059 1.46505,3.81784 -2.6988,6.3593 -6.29362,3.84139 z m 68.5177,0.35114 c -3.56127,-2.60406 0.4281,-8.42084 4.16761,-6.07666 2.19517,1.37608 2.86487,5.38774 1.08749,6.51436 -1.87743,1.19002 -3.17711,1.08177 -5.2551,-0.4377 z m 11.41761,-2.1839 c -0.99319,-1.19673 -0.99319,-1.80328 0,-3 1.5185,-1.82968 2.12441,-1.86075 4.3633,-0.22362 1.09385,0.79985 1.49861,1.91989 1.08414,3 -0.81446,2.12244 -3.77084,2.2438 -5.44744,0.22362 z M 30.112412,402.91162 c -1.174516,-0.30693 -1.75,-1.4406 -1.75,-3.44736 0,-2.77098 0.238095,-2.96708 3.25,-2.67667 2.552882,0.24615 3.322391,0.82535 3.587492,2.70027 0.291824,2.06392 -1.296079,4.29217 -2.837492,3.98178 -0.275,-0.0554 -1.2875,-0.30649 -2.25,-0.55802 z m 22.824697,-0.87883 c -2.31881,-2.31881 -1.608324,-4.58832 1.790957,-5.72086 3.351401,-1.11659 4.806345,0.30379 4.393396,4.28902 -0.317902,3.06796 -3.75293,3.86326 -6.184353,1.43184 z m 116.000221,-1.62833 c -2.66026,-3.79806 1.22859,-8.0494 5.34694,-5.84533 2.31277,1.23776 2.74949,4.27746 0.82814,5.76414 -2.78123,2.15203 -4.70687,2.17735 -6.17508,0.0812 z m 13.99849,-0.37296 c -1.18468,-1.18468 -1.31615,-2.04273 -0.53624,-3.5 1.38302,-2.5842 5.58551,-2.5041 6.99704,0.13337 2.14745,4.01254 -3.08719,6.74024 -6.4608,3.36663 z m 26.43074,0.0745 c -0.99985,-1.20476 -0.92208,-1.98133 0.40061,-4 1.8831,-2.87397 2.51109,-3.01825 5.05157,-1.1606 2.67921,1.95909 1.37169,6.65559 -1.85294,6.65559 -1.29717,0 -2.91683,-0.67275 -3.59924,-1.49499 z m 41.19585,-1.70505 c -1.62282,-1.62282 -1.51304,-4.29531 0.23608,-5.74696 2.95099,-2.44909 7.96217,3.14871 5.24825,5.86262 -1.43164,1.43165 -3.991,1.37766 -5.48433,-0.11566 z m -141.7193,-1.19045 c -1.64843,-1.20537 -1.73914,-1.74691 -0.68145,-4.06829 0.86476,-1.89795 1.84086,-2.58513 3.35158,-2.35954 2.88268,0.43045 4.24899,4.2756 2.23493,6.28966 -1.88166,1.88166 -2.49699,1.89899 -4.90506,0.13817 z m 111.7693,0.74667 c -1.88785,-0.7897 -1.49827,-4.15298 0.61186,-5.28229 2.43463,-1.30297 5.4929,0.83874 4.98666,3.49217 -0.36431,1.90958 -3.16902,2.8064 -5.59852,1.79012 z m -178.747312,-1.7306 c -2.463463,-1.80133 -1.607962,-6.03982 1.302356,-6.45238 2.950464,-0.41826 5.37638,1.58847 4.993215,4.13041 -0.389954,2.58697 -4.074608,3.94598 -6.295571,2.32197 z m 54.163981,0.70771 c -1.153836,-1.15383 -0.72573,-4.03942 0.785345,-5.2935 2.430157,-2.01685 5.547986,-0.31544 5.547986,3.02756 0,2.55344 -0.36632,2.93261 -2.833331,2.93261 -1.558334,0 -3.133334,-0.3 -3.5,-0.66667 z m 136.484941,-0.21847 c -1.95938,-1.24171 -0.98133,-4.56459 1.44611,-4.91312 2.91592,-0.41866 5.06437,2.29557 3.40228,4.29826 -1.40025,1.6872 -2.86347,1.87276 -4.84839,0.61486 z m 8.56097,-1.73562 c -1.18957,-1.18956 -0.79933,-4.06235 0.7235,-5.32619 2.13911,-1.7753 5.77748,0.4347 5.3746,3.26461 -0.31174,2.18978 -4.54035,3.61934 -6.0981,2.06158 z m -122.14806,-3.70841 c -1.50634,-1.10146 -1.61871,-1.70105 -0.65595,-3.5 1.27363,-2.37979 4.96276,-2.8995 6.89143,-0.97083 1.58146,1.58146 1.5146,2.34254 -0.37143,4.22857 -1.92024,1.92024 -3.4811,1.98472 -5.86405,0.24226 z m -32.897851,-1.3375 c -0.366667,-0.36666 -0.666667,-1.71666 -0.666667,-3 0,-1.79017 0.55345,-2.33333 2.377555,-2.33333 2.828136,0 5.079022,2.3678 4.265705,4.48727 -0.581158,1.51447 -4.721996,2.10066 -5.976593,0.84606 z m 122.859961,-1.94956 c -1.41047,-1.41047 -1.4368,-1.88787 -0.20683,-3.75 1.94262,-2.94105 5.27001,-3.26874 6.66794,-0.65668 2.56692,4.79634 -2.56876,8.29903 -6.46111,4.40668 z m 15.42812,-0.9383 c -1.07884,-1.29992 -0.93284,-1.91183 0.89145,-3.73611 1.72928,-1.72929 2.54155,-1.95493 3.9177,-1.0883 0.95485,0.60131 1.89288,1.89114 2.08449,2.8663 0.64796,3.2975 -4.55542,4.7755 -6.89364,1.95811 z m -121.24217,-0.0662 c -0.39192,-0.39195 -0.71258,-1.75403 -0.71258,-3.02688 0,-1.65214 0.73623,-2.49907 2.57322,-2.96012 3.13977,-0.78805 4.70763,0.58886 4.26144,3.74239 -0.23707,1.67559 -1.07458,2.45163 -2.87208,2.66125 -1.39559,0.16275 -2.85809,-0.0247 -3.25,-0.41668 z m 146.03742,-0.45938 c -3.64997,-2.1259 -0.9082,-7.73966 3.15086,-6.45137 2.50824,0.79609 3.64905,4.16395 2.05931,6.07946 -1.40359,1.69124 -2.77675,1.78925 -5.21017,0.37191 z m -13.73943,-1.40717 c -1.75326,-2.11255 -0.50281,-4.51272 2.35106,-4.51272 2.78489,0 4.21112,2.60494 2.53318,4.62675 -1.48316,1.7871 -3.34248,1.74369 -4.88424,-0.11403 z M 92.865252,380.6099 c -0.852392,-2.68565 0.134167,-4.00895 2.988789,-4.00895 2.423689,0 4.239799,3.0075 3.013902,4.99104 -1.125877,1.82171 -5.331168,1.13369 -6.002691,-0.98209 z m 21.332298,0.31812 c -2.52542,-0.66884 -2.92062,-2.93974 -0.83936,-4.82325 3.45643,-3.12803 8.65757,0.69998 5.3903,3.96724 -1.5734,1.5734 -1.73057,1.60297 -4.55094,0.85601 z m 10.69857,-1.28982 c -2.27052,-2.5089 -1.31699,-5.03725 1.89972,-5.03725 3.35106,0 5.1535,3.27021 2.99316,5.43054 -2.03631,2.03632 -2.74572,1.97929 -4.89288,-0.39329 z m 90.32772,-2.44203 c -0.895,-1.96432 -0.86931,-2.8808 0.11399,-4.06561 2.74193,-3.30382 7.47997,-0.76905 6.85134,3.66535 -0.49701,3.50603 -5.42131,3.789 -6.96533,0.40026 z M 80.402281,376.14899 c -1.751894,-2.1109 -0.861124,-4.99917 1.652686,-5.35872 2.820008,-0.40336 5.026045,3.23989 3.254394,5.3746 -1.523033,1.83514 -3.375842,1.82915 -4.90708,-0.0159 z m 158.080109,-1.32386 c -1.33542,-2.49525 0.43777,-5.22418 3.39453,-5.22418 2.62809,0 4.99621,3.2267 4.09388,5.57814 -0.79312,2.06682 -6.33299,1.80496 -7.48841,-0.35396 z m -135.52985,-0.77691 c -2.20731,-2.20731 -0.28234,-4.66708 3.32427,-4.24784 2.01116,0.23379 2.5856,0.856 2.5856,2.80057 0,3.0749 -3.43986,3.91728 -5.90987,1.44727 z m 124.97562,-0.64038 c -1.53306,-2.17322 -1.50327,-2.4083 0.51423,-4.05689 2.72199,-2.22429 3.2055,-2.19702 5.47299,0.30854 1.42372,1.57317 1.61301,2.45733 0.80286,3.75 -1.64216,2.6202 -4.9411,2.61941 -6.79008,-0.002 z M 92.562412,370.40095 c -0.66,-0.66001 -1.2,-2.235 -1.2,-3.5 0,-1.75508 0.563295,-2.3 2.377555,-2.3 3.54978,0 4.905576,2.15076 3.037264,4.81815 -1.745307,2.49178 -2.523591,2.67307 -4.214819,0.98185 z m -54.269567,-3.38382 c -1.672348,-2.01506 -0.124996,-4.78251 2.92789,-5.23654 2.260241,-0.33616 4.349487,3.08344 3.403287,5.57036 -0.672825,1.76839 -4.765579,1.55261 -6.331177,-0.33382 z m 86.988885,-0.56694 c -1.15816,-2.16404 0.27086,-4.84924 2.58068,-4.84924 2.1827,0 3.99915,2.98513 2.88817,4.7464 -1.46195,2.31767 -4.2554,2.3702 -5.46885,0.10284 z m -14.53688,-0.295 c -0.83725,-2.18185 1.50646,-4.71306 4.03005,-4.35251 1.48048,0.21153 2.08751,1.02526 2.08751,2.79827 0,1.98516 -0.56748,2.56527 -2.75569,2.81697 -1.80507,0.20763 -2.96479,-0.22797 -3.36187,-1.26273 z m -59.570954,-0.29057 c -1.827432,-0.41846 -2.663098,-2.72614 -1.996628,-5.51367 0.4812,-2.01264 4.18239,-2.35276 5.985144,-0.55 2.830671,2.83066 0.08983,6.99752 -3.988516,6.06367 z m 32.273697,-2.1785 c -2.663993,-2.66398 -1.686414,-5.08517 2.053193,-5.08517 3.244127,0 4.781149,2.31869 3.19933,4.82639 -1.518652,2.40758 -3.029311,2.48199 -5.252523,0.25878 z m 18.581487,1.24816 c -1.51322,-1.51322 -0.60076,-5.21948 1.44484,-5.86872 3.09787,-0.98323 5.44005,1.63627 3.95093,4.41872 -1.09233,2.04103 -4.01841,2.82736 -5.39577,1.45 z M 27.0174,362.77221 c -2.185492,-2.41494 -2.088488,-3.86889 0.345012,-5.17126 3.678842,-1.96886 8.432677,2.5688 5.894808,5.62675 -1.585228,1.91008 -4.276817,1.7136 -6.23982,-0.45549 z m 30.767656,-6.62345 c -1.256611,-5.00674 3.604322,-7.38547 7.13033,-3.48927 2.445594,2.70235 0.909121,5.32534 -3.369511,5.75226 -2.630943,0.26252 -3.215194,-0.089 -3.760819,-2.26299 z m 59.777354,1.25219 c -0.66,-0.66001 -1.2,-2.01 -1.2,-3 0,-2.28702 5.49961,-2.54638 6.36163,-0.3 1.39194,3.62736 -2.40607,6.05556 -5.16163,3.3 z m -24.449998,-0.88011 c -3.249724,-1.89278 -1.495429,-6.91989 2.414816,-6.91989 1.487416,0 3.835184,2.67077 3.835184,4.36282 0,0.75826 -3.054452,3.64113 -3.821429,3.60676 -0.373214,-0.0167 -1.466071,-0.48908 -2.428571,-1.04969 z m -57.78421,-1.98381 c -0.825573,-1.5426 -0.793416,-2.43885 0.127311,-3.54827 2.529275,-3.04759 8.02232,0.26306 6.597431,3.97627 -0.903285,2.35392 -5.388684,2.06844 -6.724742,-0.428 z m 203.277188,0.9069 c -3.07122,-3.07122 0.48529,-7.69878 4.85178,-6.31291 1.56461,0.49659 1.95009,1.35333 1.71222,3.8054 -0.24567,2.53253 -0.80767,3.22304 -2.814,3.45751 -1.37887,0.16113 -3.06637,-0.26637 -3.75,-0.95 z m 12.73434,-0.86566 c -2.59943,-2.59943 -2.49556,-3.59165 0.58745,-5.61172 2.43921,-1.59823 2.66443,-1.58084 4.60039,0.35512 1.63017,1.63016 1.82198,2.4348 0.96301,4.0398 -1.60014,2.98989 -3.91902,3.44863 -6.15085,1.2168 z M 46.969974,353.7198 c -1.568807,-1.73352 -1.575365,-2.00819 -0.08356,-3.5 2.021918,-2.02191 2.921378,-2.03062 4.904568,-0.0474 1.886034,1.88603 1.952886,2.64711 0.371429,4.22857 -1.694374,1.69437 -3.224243,1.49369 -5.192438,-0.68115 z m 58.592436,0.68115 c -2.51177,-2.51177 -0.64209,-6.8 2.96482,-6.8 0.97065,0 2.23065,0.87042 2.8,1.93426 1.33879,2.50155 1.32284,2.63522 -0.53625,4.4943 -1.87901,1.87903 -3.59881,2.00119 -5.22857,0.37144 z m -84.617609,-3.1161 c -2.81015,-2.05483 -1.644389,-5.1839 1.931306,-5.1839 2.386733,0 3.054065,0.47922 3.323797,2.38691 0.185621,1.31279 -0.264379,2.76841 -1,3.23469 -1.78993,1.13456 -2.156484,1.09685 -4.255103,-0.4377 z m 208.252749,-1.43906 c -3.47861,-0.74948 -3.2218,-5.43236 0.40434,-7.37301 1.58512,-0.84833 2.39104,-0.6857 3.85427,0.77778 3.34702,3.34757 0.57721,7.63713 -4.25861,6.59523 z M 31.0174,345.77221 c -2.259439,-2.49665 -2.076938,-4.0688 0.595012,-5.12573 3.065017,-1.2124 6.230957,2.18728 4.700303,5.04733 -1.285485,2.40195 -3.167317,2.42981 -5.295315,0.0784 z m 230.97164,0.31251 c -1.2317,-1.2317 -1.37372,-2.08781 -0.58946,-3.55323 1.24965,-2.33499 5.21983,-2.53073 7.0324,-0.34672 2.88789,3.47969 -3.18639,7.1565 -6.44294,3.89995 z M 41.408093,345.15599 c -1.399681,-1.68651 -1.042042,-5.73519 0.552938,-6.25959 0.604241,-0.19866 2.123906,0.46903 3.377033,1.48375 1.676336,1.35742 2.094911,2.42311 1.583993,4.03287 -0.791142,2.49266 -3.732877,2.88905 -5.513964,0.74297 z m 20.832383,-0.92331 c -0.921034,-2.02145 -0.891191,-2.911 0.139318,-4.15267 1.789471,-2.15619 6.083797,-1.47828 7.033077,1.11025 0.99325,2.70842 0.07276,4.09068 -3.285389,4.93352 -2.276122,0.57127 -2.90433,0.26562 -3.887006,-1.8911 z m -11.344358,-0.59449 c -2.438469,-2.69448 -1.296049,-5.03724 2.456348,-5.03724 2.308595,0 3.338466,0.62691 4.224529,2.57161 0.948593,2.08194 0.896906,2.74548 -0.271439,3.48469 -2.291037,1.44953 -4.492099,1.09958 -6.409438,-1.01906 z m 189.023102,-0.97447 c -1.50123,-1.65884 -1.60479,-2.30004 -0.57238,-3.54402 2.56602,-3.09185 7.58851,-0.75378 6.83793,3.1832 -0.48594,2.5489 -4.09717,2.75685 -6.26555,0.36082 z m 12.47837,-0.99704 c -2.26214,-4.22684 0.081,-7.14432 4.03726,-5.02697 2.48279,1.32875 2.4791,4.59569 -0.007,5.92605 -2.59812,1.39047 -2.8333,1.33801 -4.03056,-0.89908 z M 20.809438,338.54241 c -2.20925,-2.44119 -1.04189,-5.24808 2.395428,-5.75975 2.850308,-0.42428 5.0862,3.9944 3.182123,6.28868 -1.723855,2.07711 -3.359488,1.92201 -5.577551,-0.52893 z m 200.994102,-1.38289 c -1.55422,-1.15413 -1.72009,-1.80192 -0.83214,-3.25 2.29868,-3.74876 8.64226,-1.01166 7.08154,3.05551 -0.77574,2.02154 -3.66776,2.11154 -6.2494,0.19449 z m -175.869699,-1.13 c -2.05304,-2.05304 -1.994194,-4.0926 0.152748,-5.29409 3.67042,-2.05407 7.069955,2.67139 4.075823,5.66552 -1.581457,1.58146 -2.342538,1.5146 -4.228571,-0.37143 z m 186.496229,-1.30214 c -1.60747,-3.00359 -1.29526,-4.93426 0.99626,-6.16064 2.92817,-1.56711 5.12307,0.4943 4.73715,4.44904 -0.36976,3.78909 -4.03584,4.88353 -5.73341,1.7116 z m 35.50377,0.30214 c -2.05304,-2.05304 -1.99419,-4.0926 0.15275,-5.29409 3.67042,-2.05407 7.06995,2.67139 4.07582,5.66552 -1.58146,1.58146 -2.34254,1.5146 -4.22857,-0.37143 z M 34.845474,332.54758 c -0.954526,-3.00744 1.863562,-5.84854 4.285702,-4.32069 0.95218,0.60062 1.731236,2.16799 1.731236,3.48305 0,3.35048 -4.998533,4.04635 -6.016938,0.83764 z m 23.556807,0.60141 c -2.052587,-2.47323 -0.846367,-5.04804 2.36484,-5.04804 3.188306,0 5.253104,2.34338 4.285823,4.86408 -0.777669,2.02657 -5.023952,2.14402 -6.650663,0.18396 z m 185.027789,-1.42161 c -1.52771,-2.85455 -1.33273,-3.82385 0.88586,-4.40403 2.62475,-0.68638 5.35087,1.45424 4.895,3.8437 -0.51359,2.69203 -4.43651,3.07227 -5.78086,0.56033 z m 12.17066,-0.28811 c -1.59937,-1.59937 -1.59275,-4.48949 0.0117,-5.09993 0.6875,-0.26157 2.29416,-0.0875 3.57036,0.38682 1.65718,0.61591 2.2288,1.50725 2,3.11859 -0.36513,2.57149 -3.66302,3.51354 -5.58204,1.59452 z M 26.482388,327.82513 c -1.338224,-2.5005 0.439962,-5.22418 3.410662,-5.22418 1.74427,0 2.604525,0.69035 3.044453,2.44315 0.337258,1.34375 0.319273,2.91875 -0.03996,3.5 -1.050869,1.70036 -5.380034,1.21515 -6.41515,-0.71897 z M 133.53901,326.6777 c -1.10086,-3.15794 0.16926,-18.42145 3.75097,-45.07675 1.07161,-7.97501 2.22208,-18.325 2.55659,-23 0.33452,-4.67501 1.07313,-11.25226 1.64137,-14.61613 0.56823,-3.36387 0.83987,-7.41387 0.60364,-9 -0.3811,-2.55884 -0.44639,-2.47366 -0.57934,0.75565 -0.0824,2.00175 -0.85582,7.3612 -1.71869,11.90989 -0.86287,4.5487 -2.1758,13.03592 -2.91762,18.86047 -0.74182,5.82456 -2.26861,17.79012 -3.39287,26.59012 -1.12426,8.8 -2.32027,19.01996 -2.6578,22.71102 -0.72051,7.87911 -3.57726,12.76884 -6.19214,10.59869 -2.26509,-1.87987 -1.23516,-11.32723 4.16912,-38.24296 2.53257,-12.61329 4.45824,-23.37254 4.27927,-23.90944 -0.38089,-1.14268 -3.42244,11.11797 -7.65127,30.84269 -4.45438,20.77674 -5.19816,23.73488 -6.72584,26.75 -1.68637,3.32832 -4.09697,3.57594 -4.86756,0.5 -0.59178,-2.36221 1.63999,-13.33461 3.98291,-19.58171 0.75666,-2.01756 2.58819,-7.71829 4.07005,-12.66829 1.48187,-4.95 3.35872,-11.02501 4.17079,-13.5 1.3973,-4.25871 3.32291,-11.85219 4.69134,-18.5 0.33964,-1.65001 -3.20181,8.4465 -7.86989,22.43665 -12.44954,37.31101 -14.43698,42.06335 -17.59106,42.06335 -1.86564,0 -0.85214,-8.21545 2.18825,-17.73805 2.99097,-9.36781 14.83712,-40.0269 18.9841,-49.13288 1.09482,-2.404 1.81415,-4.54734 1.59852,-4.76298 -0.46558,-0.46558 -12.90348,26.79835 -22.18696,48.63391 -3.62444,8.52499 -7.498427,16.39999 -8.608858,17.5 -1.995561,1.97681 -2.035683,1.9775 -3.461292,0.0589 -0.79328,-1.06766 -1.442328,-2.98841 -1.442328,-4.26837 0,-2.1543 6.044101,-14.45641 18.935188,-38.54053 2.8703,-5.3625 4.99637,-9.75 4.72462,-9.75 -0.27176,0 -3.70583,5.5125 -7.63128,12.25 -16.617338,28.52141 -22.478604,36.82594 -24.92454,35.31427 -2.867768,-1.77238 -0.258057,-6.72739 17.44858,-33.12926 19.04024,-28.39037 24.47157,-38.19223 8.99861,-16.23969 -4.77004,6.76757 -11.148225,15.45468 -14.173756,19.30468 -3.025531,3.85 -7.795005,10.28511 -10.59883,14.30025 -2.803826,4.01514 -5.896445,7.72764 -6.872487,8.25 -2.756318,1.47514 -4.906478,1.12415 -4.902367,-0.80025 0.006,-2.80154 3.345025,-7.57198 16.828029,-24.04199 17.656911,-21.56858 17.371361,-21.20801 16.795521,-21.20801 -0.28471,0 -6.78728,7.08749 -14.450146,15.75 -20.943971,23.67613 -21.524299,24.25 -24.523532,24.25 -2.224765,0 -2.655887,-0.44443 -2.667701,-2.75 -0.01171,-2.28503 4.764878,-7.46274 28.25,-30.62237 15.545249,-15.32982 27.365859,-27.25481 26.268019,-26.50001 -2.40564,1.65397 -0.69883,0.0853 -20.085485,18.4592 -23.708997,22.47036 -35.864259,33.21102 -38.004596,33.58172 -1.321133,0.22881 -2.00725,-0.32292 -2.21544,-1.7815 -0.591308,-4.14271 7.846458,-11.93092 42.551591,-39.2759 9.53797,-7.51518 12.64373,-10.63988 4.84135,-4.87087 -2.42475,1.79285 -13.231885,10.00972 -24.015851,18.25973 -25.183238,19.2658 -29.148138,21.61852 -31.102676,18.45601 -1.660657,-2.687 8.844678,-11.61827 30.777179,-26.1657 15.934427,-10.56901 9.040901,-7.24276 -12.517613,6.03999 -3.722188,2.29334 -6.97595,4.1697 -7.230583,4.1697 -0.254633,0 -2.97446,1.60658 -6.04406,3.57018 -6.233078,3.98725 -10.680331,4.88695 -11.224365,2.27077 -0.189748,-0.91248 0.585971,-2.52638 1.72382,-3.58645 2.187882,-2.03832 27.079204,-16.10629 45.542801,-25.73967 11.081748,-5.78192 15.342378,-8.52491 10.263448,-6.6076 -3.813816,1.43971 -41.317513,20.18627 -49.177304,24.58172 -7.637894,4.27135 -11.800598,5.61757 -13.702221,4.4313 -2.512023,-1.56705 0.364614,-4.24009 9.667028,-8.98285 4.921977,-2.50942 10.749049,-5.29881 12.949049,-6.19865 16.249253,-6.6462 47.685188,-20.8869 47.193238,-21.37886 -0.37377,-0.37376 -19.977278,7.50121 -44.839101,18.01241 -17.768203,7.51213 -25.228961,9.65287 -27.104614,7.77721 -1.739419,-1.73942 0.108175,-4.2459 4.840792,-6.5671 2.150327,-1.05468 16.509685,-6.08198 31.909685,-11.1718 15.4,-5.08982 27.484898,-9.2894 26.855338,-9.33242 -0.62957,-0.043 -4.004569,0.79159 -7.500003,1.85468 -3.495434,1.06308 -8.830335,2.58869 -11.855335,3.39024 -3.025,0.80156 -10.675,3.0363 -17,4.9661 -24.273838,7.40612 -31.176049,8.85298 -32.444227,6.80102 -1.928165,-3.11983 3.275622,-5.79625 17.454621,-8.97726 4.669283,-1.04754 12.314606,-2.86729 16.989606,-4.0439 4.675,-1.17661 13.9,-3.43441 20.5,-5.01732 12.469738,-2.99069 13.278618,-4.21361 0.999626,-1.51131 -3.849794,0.84724 -11.499626,2.39522 -16.999626,3.43994 -5.5,1.04473 -11.387536,2.32362 -13.083413,2.84198 -1.695877,0.51836 -7.682891,1.71482 -13.304475,2.65881 -8.207576,1.37823 -10.788064,1.48148 -13.099336,0.52412 -3.373437,-1.39732 -3.054059,-3.33803 0.809079,-4.91638 3.90654,-1.59609 34.279838,-5.83139 47.353899,-6.60311 2.571665,-0.1518 5.10978,-0.54424 5.640257,-0.87209 0.902702,-0.5579 21.996437,-3.58797 25.100657,-3.60564 0.77916,-0.004 1.16387,-0.26086 0.85491,-0.56982 -0.30897,-0.30897 -10.39646,0.36106 -22.416666,1.48895 -40.184532,3.77062 -43.939949,4.07288 -50.41351,4.05749 -7.078209,-0.0168 -9.545416,-0.96827 -8.638616,-3.33135 1.312176,-3.41948 13.794404,-4.59643 49.113881,-4.63094 12.604166,-0.0123 22.580131,-0.3599 22.168801,-0.7724 -0.41133,-0.4125 -16.214501,-0.975 -35.118165,-1.25 -36.071505,-0.52475 -38.340749,-0.82736 -35.825624,-4.77752 0.979141,-1.53782 3.121015,-1.70949 19.977523,-1.60133 10.384439,0.0666 25.351264,0.85413 33.259611,1.75 17.953965,2.03385 29.901435,2.06822 14.621187,0.0421 -15.14725,-2.00852 -28.297702,-3.28612 -46.466748,-4.51436 -9.056712,-0.61225 -17.494212,-1.50381 -18.75,-1.98126 -2.994652,-1.13856 -3.016796,-4.5443 -0.03325,-5.11427 2.678247,-0.51164 17.622043,0.70329 26.75,2.17477 3.575,0.57631 14.804276,2.39201 24.953946,4.03487 10.149671,1.64287 18.92467,2.95894 19.5,2.92458 1.28095,-0.0765 -22.657801,-6.10252 -30.953946,-7.79195 -3.3,-0.67202 -11.995274,-2.34645 -19.32283,-3.72095 -18.840238,-3.53408 -25.418916,-6.61934 -20.139285,-9.44492 2.190329,-1.17222 8.80949,0.22442 29.462115,6.21652 6.6,1.91491 15.825,4.49881 20.5,5.74199 4.675,1.24317 12.925389,3.59053 18.334196,5.21631 5.40881,1.62579 10.32994,2.79074 10.93585,2.58878 0.60591,-0.20197 -14.394473,-5.46051 -33.334193,-11.68566 -34.414758,-11.31147 -40.518997,-13.64554 -42.765082,-16.3519 -0.943034,-1.13629 -0.865421,-1.71429 0.367598,-2.7376 2.603085,-2.16037 11.429229,1.02579 70.343617,25.39347 6.26009,2.58924 11.56469,4.52501 11.788,4.30171 0.2233,-0.22331 -2.64859,-1.67185 -6.38199,-3.21898 -3.7334,-1.54717 -11.288,-4.78898 -16.787998,-7.20407 -5.5,-2.41508 -15.85,-6.87709 -23,-9.91557 -30.009786,-12.75302 -32.5,-14.08986 -32.5,-17.44721 0,-2.7847 3.122909,-2.37788 12.392293,1.61432 10.311034,4.44082 38.53913,18.62688 50.177515,25.21675 4.91161,2.78105 10.95519,6.15553 13.43019,7.49886 2.475,1.34332 4.41216,2.8972 4.3048,3.45305 -0.10735,0.55585 2.96852,2.04783 6.83528,3.3155 3.86677,1.26768 7.26525,2.91667 7.55219,3.66441 0.69587,1.81341 1.95464,1.72206 2.69037,-0.19522 0.53295,-1.38883 -2.03823,-4.83529 -8.46309,-11.34412 -0.86925,-0.88061 -6.00748,-6.32611 -11.41829,-12.10111 -5.4108,-5.775 -12.58902,-13.42499 -15.9516,-17 -8.25795,-8.77963 -25.377991,-27.61962 -29.33742,-32.28479 -6.266352,-7.38329 -2.848773,-11.84702 4.278957,-5.58879 2.961536,2.60026 16.286403,18.57903 23.984023,28.7609 5.14384,6.80393 25.60337,31.93302 26.82371,32.94581 1.11801,0.92787 1.34708,0.62684 1.21348,-1.59468 -0.0906,-1.50615 -3.31814,-7.68845 -7.17235,-13.73845 -3.85421,-6.04999 -8.97891,-14.375 -11.38821,-18.5 -2.40931,-4.125 -9.00288,-14.5969 -14.652396,-23.27089 -10.993496,-16.8789 -12.574129,-20.30273 -9.85464,-21.3463 4.595443,-1.76344 12.957216,11.54424 39.345026,62.61719 7.0912,13.72483 12.64667,22.56785 8.48114,13.5 -2.54624,-5.54286 -19.77624,-40.89716 -22.90556,-47 -15.061266,-29.37267 -16.769556,-33.51416 -14.422357,-34.96481 3.543867,-2.19022 8.404427,7.28915 24.213707,47.22312 2.23361,5.64207 4.46209,10.50613 4.95217,10.80902 1.34143,0.82905 1.07616,-1.19896 -0.69972,-5.34945 -0.87492,-2.04483 -2.89977,-7.54288 -4.49965,-12.21788 -1.59988,-4.67499 -4.28834,-12.325 -5.97435,-17 -6.78001,-18.79966 -8.59273,-28 -5.51678,-28 2.02063,0 5.03413,5.37287 7.5718,13.5 3.63903,11.65438 8.71673,29.69497 9.85109,35 1.25663,5.87689 4.97976,16.60425 5.0856,14.65302 0.0782,-1.44238 -7.6693,-34.04484 -10.84883,-45.65302 -4.00053,-14.60554 -4.44239,-17.56427 -2.85947,-19.14719 1.2709,-1.27091 1.60462,-1.2707 2.66059,0.002 1.57091,1.89283 4.74599,13.03612 6.59488,23.14553 3.35723,18.35662 12.45261,60.57328 11.95723,55.5 -1.01242,-10.36812 -3.52805,-27.51587 -7.18846,-49 -4.18259,-24.54895 -4.61936,-31.28813 -2.06034,-31.79041 3.65317,-0.71706 4.95945,5.21603 7.81327,35.48764 2.12767,22.5692 3.68244,30.13132 2.63223,12.80277 -2.2932,-37.83804 -1.95983,-50.500004 1.3296,-50.500004 2.7401,0 3.19375,7.905194 2.81579,49.067424 -0.21237,23.12965 -0.0233,42.27816 0.42022,42.55226 0.4435,0.27409 0.80636,-5.69235 0.80636,-13.25876 0,-7.56642 0.45694,-17.38048 1.01542,-21.80902 0.55848,-4.42855 1.28158,-18.22817 1.60688,-30.66583 0.32531,-12.43765 0.9659,-23.21976 1.42353,-23.96023 0.67199,-1.087307 1.22859,-0.987476 2.89312,0.51891 1.71694,1.55381 2.05774,3.04978 2.04124,8.96023 -0.0109,3.90223 -0.43464,10.01999 -0.94166,13.59498 -0.82027,5.78376 -2.2264,22.13957 -3.52482,41 -0.6807,9.88764 1.02844,1.23398 2.46881,-12.5 0.6345,-6.04999 1.99698,-16.17499 3.02772,-22.5 1.03075,-6.32499 2.17668,-14.42499 2.54653,-18 0.74883,-7.23844 1.82888,-10 3.91103,-10 2.24668,0 2.58744,2.92591 1.57566,13.52953 -1.30016,13.62592 -3.2598,25.11035 -7.48648,43.87441 -1.97034,8.74718 -3.418,16.06838 -3.21703,16.26934 0.51299,0.51299 4.09758,-13.32191 8.20101,-31.65219 0.7977,-3.5634 2.0783,-8.5134 2.84577,-11 0.76746,-2.4866 2.85791,-9.80858 4.64543,-16.27109 3.18369,-11.51013 5.09294,-14.372 6.32176,-9.47598 0.79521,3.16834 -1.49358,11.7816 -14.8016,55.70205 -1.41255,4.66184 -2.42491,8.90615 -2.2497,9.4318 0.17522,0.52566 3.75158,-9.36358 7.94747,-21.97607 13.43028,-40.37026 14.72765,-43.4318 18.4049,-43.4318 2.52157,0 1.41544,6.92818 -2.76232,17.30153 -2.25903,5.60916 -4.97322,12.44847 -6.03155,15.19847 -1.05832,2.75 -2.34733,5.9 -2.86447,7 -2.08369,4.4322 -9.27822,21.36978 -11.46872,27 -4.8154,12.37695 -5.64146,13.93218 -6.59766,12.42142 -1.06499,-1.68265 -1.09826,-0.20653 -0.0552,2.44752 0.56256,1.43139 1.75074,-0.44153 5.07519,-8 2.38737,-5.42792 7.1036,-15.49393 10.48051,-22.36893 3.37691,-6.875 8.31198,-17.675 10.96682,-24 7.75609,-18.47841 8.20895,-19.40852 10.3942,-21.34797 2.67514,-2.37423 4.22825,-1.37557 4.13211,2.65698 -0.10319,4.32829 -3.21462,11.58319 -8.87379,20.69099 -1.45669,2.34436 -11.19892,20.36856 -17.56653,32.5 -3.17555,6.04999 -7.51942,13.87653 -9.65303,17.39229 -2.13361,3.51577 -3.70168,6.56993 -3.48459,6.78701 0.21709,0.2171 3.94055,-5.73285 8.27436,-13.2221 4.33381,-7.48924 8.89325,-15.17749 10.13209,-17.08499 1.23883,-1.9075 4.99231,-8.50909 8.34106,-14.6702 7.57358,-13.93402 18.32926,-30.26652 20.4738,-31.08946 2.10996,-0.80966 3.43273,0.0712 3.43273,2.28588 0,1.63207 -14.61906,25.26103 -19.24232,31.10156 -1.88101,2.37628 -13.74573,20.54031 -15.84007,24.25 -3.3522,5.93773 4.47722,-3.75409 17.73008,-21.94759 11.32536,-15.54743 22.0974,-28.30241 23.90242,-28.30241 2.9467,0 1.34583,4.82096 -3.80011,11.44389 -2.8875,3.71626 -9.75,12.19532 -15.25,18.84235 -19.81095,23.94251 -28.54832,34.71376 -28.15895,34.71376 0.45555,0 15.68519,-16.71349 23.27762,-25.54558 2.81526,-3.27493 6.86527,-7.97942 9.00001,-10.45442 2.13475,-2.475 5.23005,-6.075 6.87846,-8 6.73866,-7.86936 14.28489,-15 15.87424,-15 2.40623,0 3.01055,2.39297 1.38692,5.49178 -0.76572,1.46143 -12.16209,13.52678 -25.32526,26.81189 -13.16317,13.28511 -22.18649,22.5891 -20.05181,20.67554 6.45077,-5.7826 7.99895,-7.21359 15.19876,-14.04828 15.25244,-14.47894 33.54401,-29.93093 35.43127,-29.93093 3.47298,0 2.26036,3.77302 -2.76126,8.59155 -2.6125,2.50684 -9.025,8.00714 -14.25,12.2229 -11.51912,9.2941 -31,26.17179 -31,26.85752 0,0.27286 1.76964,-0.90548 3.93253,-2.61852 2.16289,-1.71305 6.61408,-5.01335 9.89154,-7.33403 3.27746,-2.32068 12.48919,-9.49668 20.47051,-15.94667 15.474,-12.50509 19.09388,-14.78428 20.78888,-13.08929 0.7056,0.70561 0.23836,1.96907 -1.48606,4.01843 -2.75453,3.27357 -23.46336,19.11973 -38.8474,29.72558 -5.3625,3.69694 -9.75,6.96825 -9.75,7.26956 0,0.30132 0.5625,0.1258 1.25,-0.39005 0.6875,-0.51585 5.75,-3.87806 11.25,-7.47157 5.5,-3.59353 16.525,-10.80763 24.5,-16.03137 7.975,-5.22372 15.2875,-9.7775 16.25,-10.11947 2.2809,-0.81042 4.75,0.16862 4.75,1.88347 0,3.06986 -6.94,7.87491 -29.5,20.42495 -8.25,4.58943 -15.45,8.76314 -16,9.2749 -0.55,0.51176 8.97648,-4.0682 21.16995,-10.1777 23.63024,-11.83983 27.88498,-13.41358 28.92653,-10.69938 1.34582,3.50718 -2.15994,5.54731 -34.09648,19.84202 -10.45,4.67739 -23.17189,10.20409 -28.27087,12.28156 -5.09899,2.07746 -9.11172,3.93636 -8.9172,4.13087 0.19452,0.19453 3.91641,-1.02909 8.27087,-2.71915 4.35446,-1.69005 11.2922,-4.3536 15.4172,-5.91899 4.125,-1.56539 13.35,-5.09832 20.5,-7.85095 26.14373,-10.06489 32.5,-11.68786 32.5,-8.29834 0,4.09417 -11.41807,8.31946 -57,21.09304 -3.575,1.00184 -7.625,2.32495 -9,2.94026 -2.28969,1.02462 -2.20557,1.06917 1,0.5296 1.925,-0.32403 6.425,-1.43346 10,-2.46541 3.575,-1.03194 9.2,-2.51992 12.5,-3.3066 3.3,-0.78668 13.16402,-3.30207 21.92005,-5.58976 15.38226,-4.01891 22.52822,-4.77008 23.28958,-2.44817 0.75272,2.29557 -4.90779,4.34769 -20.32199,7.3674 -28.0622,5.49751 -51.31555,10.76026 -48.30117,10.93162 2.17325,0.12355 38.71345,-5.31127 53.29816,-7.92731 11.80671,-2.11776 17.10123,-2.01938 16.38195,0.30438 -0.83501,2.69763 -7.72571,4.70667 -21.28962,6.20714 -16.24865,1.79747 -30.87656,3.36927 -41.47696,4.45679 l -7.5,0.76945 6.64405,0.13987 c 3.65422,0.0769 11.07922,-0.28302 16.5,-0.79989 5.42077,-0.51687 15.48095,-1.21586 22.35595,-1.5533 6.875,-0.33745 14.93039,-0.85426 17.90088,-1.14847 5.59199,-0.55387 10.09912,0.87583 10.09912,3.20352 0,0.67322 -0.7875,1.54762 -1.75,1.94312 -2.13408,0.87691 -42.299,2.35574 -66.16667,2.43619 -9.57916,0.0323 -17.22916,0.22426 -17,0.42661 0.50467,0.4456 21.96482,1.39826 50.41667,2.23811 27.93618,0.82463 32,1.31968 32,3.8982 0,1.9267 -0.64041,1.99171 -18.5,1.87822 -12.9555,-0.0823 -25.50045,-0.92412 -41.85797,-2.8087 -12.84689,-1.48011 -23.54241,-2.50668 -23.76784,-2.28126 -0.37245,0.37246 7.61303,1.56367 41.62581,6.2094 38.70541,5.28669 43.84064,6.32892 42.42997,8.61143 -0.97904,1.58413 -10.3413,0.94087 -23.27356,-1.59905 -20.75613,-4.07654 -43.22316,-8.29463 -50.15641,-9.41668 -3.575,-0.57857 -9.35625,-1.54346 -12.84722,-2.14421 -3.49097,-0.60075 -6.55879,-0.88068 -6.81738,-0.62209 -0.25859,0.25858 1.47265,0.79175 3.84722,1.18479 4.96844,0.8224 6.04477,1.307 5.36085,2.41359 -0.26903,0.43531 -2.86387,0.15914 -5.76631,-0.61371 -2.90244,-0.77284 -6.40216,-1.57151 -7.77716,-1.77484 -1.375,-0.20332 -3.2875,-0.6814 -4.25,-1.06238 -1.0067,-0.39849 -1.75,-0.23907 -1.75,0.37533 0,0.58741 -0.94786,1.95109 -2.10635,3.0304 -1.26596,1.17941 -1.79898,2.4597 -1.33596,3.20889 0.5398,0.87341 0.27231,1.05539 -0.89365,0.60797 -1.95502,-0.75021 -2.09535,0.25796 -0.51781,3.72027 0.63042,1.38363 1.52851,2.27943 1.99574,1.99066 0.46724,-0.28876 1.36724,0.61124 2,2 0.63277,1.38877 1.50211,2.30772 1.93187,2.04212 0.42976,-0.26561 2.24024,1.5485 4.02329,4.03135 3.78332,5.26818 4.92983,5.92867 2.19459,1.26428 -2.1726,-3.70494 -3.43343,-6.75 -2.79487,-6.75 0.60469,0 27.02782,35.83405 38.00315,51.53842 1.65,2.36095 4.575,6.01427 6.5,8.11847 6.29209,6.87786 9.66211,15.34312 6.10811,15.34312 -2.55406,0 -8.01728,-6.60791 -18.55967,-22.44844 -6.35164,-9.54368 -11.54844,-17.65812 -11.54844,-18.03206 0,-0.87329 -12.07093,-18.51951 -12.6683,-18.51951 -0.24735,0 -0.25615,0.3375 -0.0196,0.75 0.2366,0.4125 3.70845,6.6 7.71523,13.75001 6.98692,12.46799 15.65616,27.29343 23.35578,39.94117 3.6226,5.95064 4.42562,8.94094 2.68921,10.01409 -3.10167,1.91695 -11.59602,-12.47658 -32.58049,-55.20702 -6.35329,-12.93712 -11.79471,-23.27876 -12.09204,-22.98142 -0.29734,0.29734 2.19106,5.85109 5.52977,12.34167 3.33871,6.49057 6.07039,12.12504 6.07039,12.52104 0,0.81512 9.17094,20.30501 18.18024,38.63626 6.0752,12.36124 7.71824,18.7342 4.82993,18.7342 -2.14243,0 -6.95445,-8.56483 -12.46144,-22.1799 -2.62954,-6.50106 -5.82466,-14.2951 -7.10028,-17.3201 -1.27563,-3.025 -3.90455,-9.55873 -5.84205,-14.51941 -4.12993,-10.57421 -9.4485,-22.48059 -10.042,-22.48059 -0.22865,0 0.72485,2.8125 2.11888,6.25 1.39404,3.4375 5.44017,14.35 8.9914,24.25001 3.55123,9.89999 7.8279,21.375 9.50371,25.5 6.33835,15.60181 8.03775,21.0029 7.40349,23.52998 -0.52135,2.07722 -0.95164,2.34247 -2.47628,1.52651 -2.22133,-1.18883 -4.75363,-7.26935 -10.2268,-24.55649 -2.26372,-7.15001 -5.18441,-16.375 -6.49042,-20.5 -3.63462,-11.47989 -8.27277,-24.61806 -8.29616,-23.50001 -0.0337,1.60828 5.38794,22.76471 12.04433,47.00001 3.42461,12.46868 4.99012,20.85939 4.36017,23.3693 -0.6045,2.40851 -0.65071,2.41891 -2.41426,0.5431 -4.17589,-4.44171 -7.99404,-20.3034 -16.6612,-69.21544 -0.90666,-5.11667 -1.82111,-9.1304 -2.03211,-8.91941 -0.36867,0.36868 0.94763,10.08521 6.19406,45.72244 4.33301,29.43272 4.66118,33.18423 3.04433,34.80108 -1.82286,1.82286 -3.47887,0.79886 -5.14087,-3.17885 -0.73925,-1.7693 -2.45317,-17.28107 -3.93658,-35.62792 -1.445,-17.87187 -3.03182,-36.31931 -3.52627,-40.99431 -2.09607,-19.8183 0.50013,35.68097 3.02464,64.65794 0.96619,11.09019 0.44622,15.30029 -2.08269,16.86325 -0.6367,0.3935 -1.90196,-0.0282 -2.81168,-0.93718 -1.4572,-1.45596 -1.71354,-5.90303 -2.15404,-37.36832 l -0.5,-35.71569 -1.2614,22.50001 c -0.69378,12.375 -1.48763,28.27895 -1.76413,35.34213 -0.27649,7.06317 -0.9622,13.70067 -1.52378,14.75 -1.48994,2.78399 -3.60655,2.33382 -4.77409,-1.01538 z m 1.62404,-70.57675 c 0,-1.58368 -0.16667,-1.47959 -0.80064,0.5 -0.44035,1.375 -0.80064,3.39999 -0.80064,4.5 0,1.58366 0.16667,1.47958 0.80064,-0.5 0.44035,-1.375 0.80064,-3.40001 0.80064,-4.5 z m -15.80064,3.5 c 0.5887,-1.10001 0.84537,-2 0.57037,-2 -0.275,0 -0.98167,0.89999 -1.57037,2 -0.5887,1.09999 -0.84537,2 -0.57037,2 0.275,0 0.98167,-0.90001 1.57037,-2 z m -8,-5.50001 2.5,-3 -2.75,2.42431 c -1.5125,1.33338 -2.75,2.87089 -2.75,3.41668 0,0.54579 0.1125,0.80485 0.25,0.57569 0.1375,-0.22917 1.375,-1.76668 2.75,-3.41668 z m 13,-3.5 c 1.12236,-2.2 1.81565,-4 1.54065,-4 -0.275,0 -1.41829,1.8 -2.54065,4 -1.12236,2.2 -1.81565,4 -1.54065,4 0.275,0 1.41829,-1.8 2.54065,-4 z m 11.68311,0.8125 c -0.31922,-0.79773 -0.55618,-0.56078 -0.60416,0.60417 -0.0434,1.05416 0.19292,1.64479 0.52522,1.3125 0.33229,-0.3323 0.36781,-1.19479 0.0789,-1.91667 z m 18.09628,-5.32521 c -0.59366,-2.74301 -1.26323,-4.45824 -1.48794,-3.81162 -0.44096,1.26889 1.60218,9.76403 2.20365,9.16256 0.20002,-0.2 -0.12206,-2.60794 -0.71571,-5.35094 z m -36.27939,0.50771 3,-3.495 -3.25,2.93709 c -1.7875,1.6154 -3.25,3.37791 -3.25,3.91668 0,0.53876 0.1125,0.78983 0.25,0.5579 0.1375,-0.23191 1.6,-1.9944 3.25,-3.91667 z m 26.2335,-8.21857 c -0.21125,-2.35204 -0.38706,-0.67643 -0.39069,3.72357 -0.004,4.4 0.16921,6.32439 0.38408,4.27643 0.21488,-2.04796 0.21785,-5.64796 0.007,-8 z m -39.48216,2.89073 c 1.37547,-1.12113 0.30709,-0.81499 -2.75134,0.78836 -2.749998,1.44167 -6.124998,3.54073 -7.499998,4.66458 -1.717531,1.40383 -0.856397,1.1571 2.751339,-0.78836 2.888239,-1.55746 6.263239,-3.65652 7.499999,-4.66458 z m 35.11568,-3.58383 c -0.70156,-0.79645 -1.19191,0.4398 -1.75182,4.41667 l -0.56318,4 1.34102,-4 c 0.73755,-2.2 1.17585,-4.1875 0.97398,-4.41667 z m -10.36702,3.91667 c 0.5887,-1.1 0.84537,-2 0.57037,-2 -0.275,0 -0.98167,0.9 -1.57037,2 -0.5887,1.1 -0.84537,2 -0.57037,2 0.275,0 0.98167,-0.9 1.57037,-2 z m -14.5,-2 c 0.99549,-1.1 1.58498,-2 1.30998,-2 -0.275,0 -1.31449,0.9 -2.30998,2 -0.99549,1.1 -1.58498,2 -1.30998,2 0.275,0 1.31449,-0.9 2.30998,-2 z m 9.62756,-0.75 c 1.24387,-1.58606 1.2085,-1.62143 -0.37756,-0.37756 -0.9625,0.75485 -1.75,1.54235 -1.75,1.75 0,0.82304 0.82119,0.29331 2.12756,-1.37244 z m -12.12756,-2.34009 3.5,-3.0363 -4.25,2.69608 c -2.3375,1.48285 -4.25,2.86128 -4.25,3.0632 0,1.01739 1.84934,0.0102 5,-2.72298 z m 39.99527,-2.62223 c -1.08961,-1.69929 -1.11783,-1.69711 -0.57078,0.0441 0.31653,1.00748 0.61104,2.35748 0.65446,3 0.057,0.84316 0.21579,0.83088 0.57077,-0.0441 0.27051,-0.66678 -0.024,-2.01678 -0.65445,-3 z m -42.4364,-0.73794 c 1.87274,-1.39917 1.86131,-1.43015 -0.32445,-0.8793 -1.24607,0.31404 -2.51013,0.96666 -2.80902,1.45027 -0.84582,1.36855 0.98367,1.03519 3.13347,-0.57097 z m 17,-6.10491 c 1.83031,-1.46637 1.7984,-1.48719 -0.55887,-0.36454 -3.06103,1.45781 -3.62834,1.91971 -2.3578,1.91971 0.53655,0 1.84905,-0.69982 2.91667,-1.55517 z m 8.56869,-0.19483 c 1.24387,-1.58606 1.2085,-1.62143 -0.37756,-0.37756 -0.9625,0.75485 -1.75,1.54235 -1.75,1.75 0,0.82304 0.82119,0.29331 2.12756,-1.37244 z m -32.39839,-4.85417 c -0.3323,-0.33229 -1.19479,-0.36781 -1.91667,-0.0789 -0.79773,0.31922 -0.56077,0.55618 0.60417,0.60416 1.05416,0.0434 1.64479,-0.19293 1.3125,-0.52522 z m 16,-3 c -0.3323,-0.33229 -1.1948,-0.36781 -1.91667,-0.0789 -0.79773,0.31922 -0.56078,0.55618 0.60417,0.60416 1.05416,0.0434 1.64479,-0.19293 1.3125,-0.52522 z m 45.27083,-4.39583 c 0,-0.55 -1.2375,-0.95514 -2.75,-0.90032 l -2.75,0.0997 2.5,0.80061 c 1.375,0.44035 2.6125,0.8455 2.75,0.90032 0.1375,0.0548 0.25,-0.35032 0.25,-0.90032 z m 8.26903,-0.65594 c -0.67703,-0.27392 -2.02703,-0.29059 -3,-0.0371 -0.97297,0.25354 -0.41903,0.47766 1.23097,0.49804 1.65,0.0204 2.44606,-0.18706 1.76903,-0.46099 z m -58.51903,-4.03339 c -0.9625,-0.25152 -2.5375,-0.25152 -3.5,0 -0.9625,0.25153 -0.175,0.45733 1.75,0.45733 1.925,0 2.7125,-0.2058 1.75,-0.45733 z m 33.24164,-0.28434 c 1.18796,-0.75105 1.23886,-1.19583 0.25,-2.18469 -0.6829,-0.68289 -1.24853,-0.81414 -1.25695,-0.29164 -0.008,0.52251 -0.40217,0.33946 -0.875,-0.40675 -0.60671,-0.95752 -0.85969,-0.58968 -0.85969,1.25 0,2.81964 0.44529,3.08489 2.74164,1.63308 z m 37.27211,0.26974 c -1.22994,-0.23735 -3.47994,-0.2435 -5,-0.0136 -1.52006,0.22984 -0.51375,0.42405 2.23625,0.43156 2.75,0.007 3.99369,-0.18056 2.76375,-0.41792 z m -29.33494,-4.42908 c -1.20887,-2.25881 -2.89988,-1.63804 -2.41625,0.88698 0.18393,0.96032 0.36885,2.13863 0.41093,2.61847 0.0421,0.47985 0.74205,0.3201 1.5555,-0.35499 1.10771,-0.91932 1.22063,-1.7102 0.44982,-3.15046 z m 4.07119,3.13301 c 0.825,-0.53316 1.05,-0.96937 0.5,-0.96937 -0.55,0 -1.675,0.43621 -2.5,0.96937 -0.825,0.53316 -1.05,0.96937 -0.5,0.96937 0.55,0 1.675,-0.43621 2.5,-0.96937 z m 25.72917,-2.60417 c -0.3323,-0.33229 -1.1948,-0.36781 -1.91667,-0.0789 -0.79773,0.31922 -0.56078,0.55618 0.60417,0.60416 1.05416,0.0434 1.64479,-0.19293 1.3125,-0.52522 z m -34.78699,-1.36489 c 1.66584,-0.89153 16.53221,-21.03094 15.52448,-21.03094 -0.24441,0 -2.7355,3.15 -5.53575,7 -4.95513,6.81269 -7.04565,8.95142 -4.98372,5.09867 0.70542,-1.31808 0.66064,-2.92521 -0.14599,-5.2391 l -1.16355,-3.33777 -1.34035,3.28481 c -0.73719,1.80665 -1.78066,3.01269 -2.31882,2.68009 -0.53816,-0.3326 -0.97848,0.12338 -0.97848,1.0133 0,0.92843 0.47186,1.32641 1.10713,0.93379 1.41986,-0.87752 0.0623,3.78419 -1.37003,4.70441 -0.54633,0.351 -0.64115,1.20803 -0.21071,1.90451 0.50955,0.82447 0.3798,1.01734 -0.37188,0.55278 -0.7299,-0.4511 -1.15451,0.0437 -1.15451,1.34549 0,2.32425 0.37577,2.46346 2.94218,1.08996 z m 1.40053,-4.79199 c -0.13529,-2.28714 -0.0159,-2.40638 0.85363,-0.8526 0.55832,0.99767 0.62874,2.18811 0.15728,2.659 -0.47121,0.47065 -0.92408,-0.33859 -1.01091,-1.8064 z m 6.15729,-0.23895 c 0.99549,-1.1 1.58498,-2 1.30998,-2 -0.275,0 -1.31449,0.9 -2.30998,2 -0.99549,1.1 -1.58498,2 -1.30998,2 0.275,0 1.31449,-0.9 2.30998,-2 z m -16.79844,-8.07833 0.20155,-2.42167 -0.85187,2.5 c -0.58046,1.70347 -0.88364,1.94243 -0.95156,0.75 -0.0548,-0.9625 -0.50755,-1.75 -1.00606,-1.75 -0.49851,0 -0.66621,0.9184 -0.37268,2.04089 0.70666,2.70226 2.72565,1.94412 2.98062,-1.11922 z m 22.79844,1.07833 c 0.99549,-1.1 1.58498,-2 1.30998,-2 -0.275,0 -1.31449,0.9 -2.30998,2 -0.99549,1.1 -1.58498,2 -1.30998,2 0.275,0 1.31449,-0.9 2.30998,-2 z m -12.81689,-4.1875 c -0.31922,-0.79773 -0.55618,-0.56078 -0.60416,0.60417 -0.0434,1.05416 0.19292,1.64479 0.52522,1.3125 0.33229,-0.3323 0.36781,-1.19479 0.0789,-1.91667 z m 32.80981,1.19895 c 0.35034,-0.56686 -0.0511,-0.7345 -0.94098,-0.39301 -1.73242,0.66479 -2.04939,1.38156 -0.61096,1.38156 0.51754,0 1.21592,-0.44485 1.55194,-0.98855 z m -11.36536,-1.76145 c 1.24387,-1.58606 1.2085,-1.62143 -0.37756,-0.37756 -1.66575,1.30637 -2.19548,2.12756 -1.37244,2.12756 0.20765,0 0.99515,-0.7875 1.75,-1.75 z m -19.30619,-8.75 c 0.0114,-1.65 -0.20624,-2.4375 -0.48365,-1.75 -0.79739,1.97615 -2.15835,1.45906 -2.63199,-1 -0.31339,-1.6271 -0.47107,-1.35026 -0.56955,1 -0.0749,1.7875 0.31382,3.25 0.86382,3.25 0.55,0 1.04486,1.4625 1.09968,3.25 0.0944,3.07927 0.14174,3.11867 0.90032,0.75 0.44035,-1.375 0.80997,-3.85 0.82137,-5.5 z m 16.32147,0.25 c 1.617,-2.30592 1.76616,-2.83816 0.51349,-1.83224 -1.78215,1.4311 -4.12389,5.08224 -3.25961,5.08224 0.2569,0 1.49265,-1.4625 2.74612,-3.25 z m -11.45973,-4.9375 c -0.31922,-0.79773 -0.55618,-0.56078 -0.60416,0.60417 -0.0434,1.05416 0.19292,1.64479 0.52522,1.3125 0.33229,-0.33229 0.36781,-1.1948 0.0789,-1.91667 z m -24.25454,-2.24106 c -0.36782,-1.46551 -0.86162,-2.47171 -1.09733,-2.23601 -0.23572,0.23573 -0.12763,1.62763 0.24019,3.09314 0.36782,1.46551 0.86162,2.47171 1.09733,2.23601 0.23572,-0.23573 0.12763,-1.62764 -0.24019,-3.09314 z m -85.496629,151.3014 c -1.356564,-2.53477 0.06118,-3.83347 4.211072,-3.85752 2.776553,-0.0161 4.189986,1.95334 3.218615,4.48469 -0.894042,2.32984 -6.081498,1.89193 -7.429687,-0.62717 z m 174.346199,0.87717 c -2.26671,-2.93088 -2.24825,-3.72348 0.12294,-5.27714 3.14583,-2.06123 6.59892,-0.51476 6.59892,2.95533 0,3.31386 -4.69925,4.93704 -6.72186,2.32181 z M 37.292845,323.01713 c -1.768677,-2.13113 -0.05438,-4.81692 3.334589,-5.22432 3.382928,-0.40667 4.915604,3.47168 2.166399,5.48194 -2.386183,1.74482 -3.89786,1.67403 -5.500988,-0.25762 z m 197.060225,-0.43365 c -1.67811,-3.13556 -0.50818,-5.17469 2.75365,-4.79951 2.32477,0.2674 2.75569,0.78609 2.75569,3.31698 0,3.81632 -3.72402,4.81844 -5.50934,1.48253 z m 29.53082,0.39608 c -2.21935,-2.21935 -1.50975,-4.80651 1.43271,-5.22359 3.53323,-0.50081 5.60222,2.57266 3.38279,5.02511 -2.02394,2.23642 -2.74773,2.26626 -4.8155,0.19848 z m -17.32148,-0.57861 c -1.57442,-1.57442 -1.51408,-2.34306 0.32862,-4.18576 1.77745,-1.77745 5.93335,-0.7439 6.03273,1.50031 0.152,3.43248 -3.90264,5.14416 -6.36135,2.68545 z m 8.8456,-8.7544 c -2.38386,-2.38386 -1.72928,-4.8359 1.50787,-5.64838 3.07973,-0.77296 4.44653,0.18811 4.44653,3.12661 0,3.61302 -3.4163,5.05987 -5.9544,2.52177 z m -24.8456,-1.2456 c -1.60331,-1.60331 -1.51376,-3.29471 0.25201,-4.76017 2.88998,-2.39847 7.27232,0.90902 5.90962,4.46017 -0.68946,1.79669 -4.48037,1.98126 -6.16163,0.3 z m 12.22491,-2.24316 c -0.75181,-2.99547 0.1088,-4.55684 2.51166,-4.55684 2.53758,0 4.35304,2.51217 3.57866,4.952 -0.96499,3.04042 -5.29862,2.75923 -6.09032,-0.39516 z m -27.08598,-10.31885 c -3.82792,-2.15647 -12.43402,-11.83046 -20.05781,-22.54669 -3.17962,-4.46936 -6.92299,-9.26578 -8.3186,-10.65871 -4.15505,-4.14705 -31.50199,-38.58347 -33.37927,-42.03259 -1.26081,-2.31649 6.37,5.79245 24.41675,25.94658 9.075,10.13474 21.7358,24.23826 28.13511,31.34117 6.39931,7.1029 12.21771,14.00299 12.92979,15.33351 1.88428,3.52081 0.10142,4.7729 -3.72597,2.61673 z m 7.13715,-8.46163 c -5.0476,-3.34339 -34.65819,-32.13375 -42.96658,-41.77637 -2.60644,-3.025 -8.58543,-9.4375 -13.28665,-14.25 -4.70122,-4.8125 -8.06441,-8.75 -7.47375,-8.75 1.1779,0 1.13667,-1.79246 -0.0862,-3.75 -1.06909,-1.71132 0.81329,-1.58613 2.25407,0.14991 0.639,0.76995 2.75774,1.35467 4.70832,1.29937 3.16324,-0.0897 3.35446,-0.24094 1.7695,-1.3999 -0.9774,-0.71466 -1.54486,-1.29938 -1.26107,-1.29938 0.72318,0 13.8395,4.5352 16.86628,5.83182 1.375,0.58902 12.4,4.5026 24.5,8.69684 25.62595,8.88276 43.5,16.35438 43.5,18.18365 0,1.37321 -1.01187,1.63559 -5,1.29653 -2.925,-0.24868 -7.16704,-1.87238 -23.5,-8.99497 -16.8843,-7.36303 -28.74491,-12.10229 -29.18532,-11.66188 -0.20655,0.20655 2.00065,1.39408 4.90489,2.63896 14.42263,6.18217 47.92555,23.41169 48.83745,25.1156 1.42818,2.66859 -0.91736,3.41904 -5.76578,1.84478 -6.91901,-2.24658 -47.32317,-23.33456 -57.29124,-29.90178 -3.47024,-2.28628 -8.24948,-4.26222 -7.54258,-3.11843 0.32167,0.52046 3.16283,2.41426 6.31371,4.20843 3.15088,1.79419 10.45387,6.23427 16.22887,9.86685 5.775,3.63258 16.35,10.12756 23.5,14.43327 17.61739,10.60917 20.5,12.60539 20.5,14.19633 0,2.10624 -3.54807,1.62475 -9.28324,-1.2598 -4.18278,-2.10377 -51.63083,-32.9016 -56.46676,-36.65173 -0.6875,-0.53314 -1.25,-0.72992 -1.25,-0.43728 0,0.29264 4.83045,4.06024 10.73433,8.37245 13.52716,9.88026 38.38659,28.5398 43.55073,32.68928 2.1569,1.7331 4.59546,4.45391 5.41902,6.04624 l 1.4974,2.89515 -3.14795,-0.62959 c -5.42233,-1.08448 -15.84676,-9.02734 -41.55353,-31.66162 -6.6,-5.81116 -15.96616,-13.85959 -20.81369,-17.8854 -4.84753,-4.02581 -8.56394,-7.56941 -8.25868,-7.87466 0.65247,-0.65247 -1.31327,-3.23904 -2.46159,-3.23904 -2.71374,0 1.03207,4.61273 9.62258,11.84959 8.40342,7.07925 23.08979,20.05403 26.83122,23.70423 0.59409,0.57961 6.48016,5.95177 13.08016,11.93815 16.21638,14.70867 19.5,18.16224 19.5,20.50918 0,2.80771 -1.90387,2.49779 -7.52392,-1.22478 z m -47.97276,-56.77099 c -0.33809,-0.54704 -1.60214,-1.47725 -2.80901,-2.06712 -1.89041,-0.92395 -1.84808,-0.78928 0.30569,0.97239 2.79973,2.29004 3.4059,2.55513 2.50332,1.09473 z m 16.99668,-1.00538 c -0.33992,-0.55 -1.37898,-0.96837 -2.30902,-0.92971 -1.37849,0.0573 -1.32139,0.2291 0.30902,0.92971 2.67591,1.14988 2.71066,1.14988 2,0 z m -24,-4 c -0.99549,-1.1 -2.30273,-1.98999 -2.90499,-1.97776 -0.60225,0.0122 0.03,0.90222 1.40499,1.97776 3.22106,2.51955 3.78016,2.51955 1.5,0 z m 5.5,-0.47968 c 0,-0.26382 -1.8,-1.39796 -4,-2.52032 -2.2,-1.12236 -4,-1.81725 -4,-1.54421 0,0.27304 1.6875,1.38729 3.75,2.47612 4.24299,2.23996 4.25,2.24259 4.25,1.58841 z m 66.5,13.04718 c -36.20842,-10.33577 -62.67977,-18.47377 -63.93333,-19.65482 -2.0818,-1.96138 0.69425,-1.95166 9.08921,0.0318 55.23243,13.04989 70.5941,17.45234 71.16744,20.39566 0.4678,2.4015 -6.33088,2.07968 -16.32332,-0.77268 z m -85.04112,-19.63403 c -0.36253,-0.58659 -0.44468,-1.281 -0.18255,-1.54313 0.26212,-0.26213 0.74306,0.21781 1.06875,1.06653 0.67618,1.76211 0.0999,2.07206 -0.8862,0.4766 z m -40.95888,-29.75502 c -7.15,-4.8452 -17.724998,-12.12135 -23.499998,-16.16923 -5.775,-4.04788 -15.45,-10.70138 -21.5,-14.78555 -10.749358,-7.25657 -16.5,-12.23029 -16.5,-14.27083 0,-1.95198 3.210192,-2.22303 6.687803,-0.56467 4.660152,2.22227 24.64147,17.58109 50.948505,39.16204 22.81723,18.71808 24.29179,19.16701 4.36369,1.32854 -9.88809,-8.85125 -14.14406,-12.48896 -24.427305,-20.87875 -15.471339,-12.6226 -27.778921,-23.38511 -29.16978,-25.50783 -2.137252,-3.26185 -1.175826,-5.85433 1.842161,-4.96736 7.212926,2.11983 16.235102,10.23637 42.754924,38.46319 6.875,7.31752 15.30487,16.02941 18.73304,19.35976 4.32688,4.20341 5.85595,6.29469 5,6.83839 -0.67817,0.43078 -1.45804,0.78739 -1.73304,0.79249 -0.275,0.005 -6.35,-3.95499 -13.5,-8.80019 z m -3.0993,2.18347 c -3.79538,-2.00095 -8.09517,-4.47595 -9.55507,-5.5 -1.459902,-1.02406 -2.952427,-1.86192 -3.31672,-1.86192 -0.364294,0 -2.113114,-1.10655 -3.886269,-2.459 -3.602491,-2.74776 -13.060078,-7.88388 -28.430677,-15.43982 -14.081275,-6.92214 -19.411852,-10.68861 -19.019986,-13.43913 0.404165,-2.83686 2.548448,-2.49441 10.841513,1.73142 5.580487,2.84362 58.676529,37.18806 61.416509,39.72643 2.08654,1.93302 -1.44962,0.7214 -8.0493,-2.75798 z M 126.6666,189.347 c -1.12037,-1.23533 -7.4026,-9.44606 -13.96051,-18.24606 -13.341893,-17.90336 -23.662391,-31.39283 -30.05908,-39.28891 -6.253821,-7.71972 -5.531419,-13.33947 1.049335,-8.16305 2.78675,2.19205 7.973829,9.49582 19.166065,26.98715 3.85,6.01681 11.45182,17.48101 16.89293,25.47598 9.11507,13.39337 11.91121,18.7479 6.91126,13.23489 z"
           id="path756"
           inkscape:connector-curvature="0" />
        <path
           style="fill:#ff6600"
           d="m 247.85688,474.59199 c -1.06198,-1.71831 0.54484,-4.99104 2.45047,-4.99104 2.34181,0 4.44228,2.54854 3.69832,4.48727 -0.65013,1.6942 -5.18351,2.06563 -6.14879,0.50377 z m -138.44385,-1.43006 c -2.52986,-3.04829 1.46208,-7.04023 4.51037,-4.51037 0.84454,0.7009 1.40131,2.21375 1.23727,3.36187 -0.36641,2.56446 -3.97419,3.28538 -5.74764,1.1485 z m 151.98925,-1.01295 c -1.91967,-2.31306 -0.83606,-5.01173 2.15142,-5.35797 1.90312,-0.22057 3.00193,0.30245 3.81085,1.81392 2.08179,3.88987 -3.11271,6.97756 -5.96227,3.54405 z M 98.372981,471.11367 c -1.619486,-1.95135 -0.577621,-4.51272 1.835599,-4.51272 2.8864,0 4.71872,2.61442 3.15383,4.5 -1.5819,1.90607 -3.414213,1.91075 -4.989429,0.0127 z m 22.029259,-1.96474 c -0.66917,-0.8063 -0.9078,-2.38861 -0.53661,-3.55813 0.97762,-3.08022 5.86988,-2.38737 6.33427,0.89706 0.52023,3.6793 -3.44293,5.49835 -5.79766,2.66107 z m 116.19849,0.29033 c -1.90814,-1.90814 -1.4691,-4.54471 0.85813,-5.15329 3.33691,-0.87262 5.04477,0.28565 4.70765,3.19272 -0.33949,2.92739 -3.48939,4.03696 -5.56578,1.96057 z M 88.402238,465.14894 c -1.85158,-2.23102 -0.327612,-5.54799 2.549,-5.54799 3.119737,0 5.66451,4.59465 3.354318,6.0563 -2.127636,1.34615 -4.536383,1.13874 -5.903318,-0.50831 z m 165.080152,-2.32381 c -1.25497,-2.34493 0.37747,-5.22418 2.96193,-5.22418 2.35568,0 4.17283,3.89805 2.68048,5.75 -1.46434,1.8172 -4.54196,1.53039 -5.64241,-0.52582 z m -148.45331,0.10915 c -0.36667,-0.36666 -0.66667,-1.71666 -0.66667,-3 0,-1.81334 0.54929,-2.33333 2.46482,-2.33333 2.93241,0 5.03546,3.09972 3.28838,4.84679 -1.26777,1.26777 -4.04012,1.53296 -5.08653,0.48654 z m 165.41321,-0.7371 c -1.83158,-2.20691 -0.39919,-5.59623 2.36506,-5.59623 3.14386,0 5.27033,2.63905 3.89494,4.83382 -1.39157,2.2206 -4.714,2.62524 -6.26,0.76241 z m -28.31175,-2.20579 c -1.02066,-2.24009 -0.91978,-2.80639 0.71257,-4 2.60762,-1.90672 3.22274,-1.77269 5.11454,1.11456 1.32269,2.01867 1.40046,2.79524 0.40061,4 -1.92565,2.32027 -4.90571,1.78693 -6.22772,-1.11456 z m -12.52515,-0.54746 c -1.93004,-1.93004 -1.47715,-3.77916 1.22741,-5.01144 3.0587,-1.39364 5.77753,0.43374 5.32787,3.58095 -0.34886,2.44166 -4.61349,3.37227 -6.55528,1.43049 z m -104.85071,-2.4162 c -0.89449,-3.56394 0.83591,-5.09948 4.0806,-3.62109 1.73023,0.78834 2.52713,1.94654 2.52713,3.67287 0,2.13135 -0.46118,2.52144 -2.98095,2.52144 -2.3683,0 -3.11368,-0.52884 -3.62678,-2.57322 z m -10.35244,0.12121 c -1.98032,-2.38614 -0.30441,-5.71671 2.69515,-5.35613 3.72274,0.44752 5.33139,3.50471 2.82389,5.36671 -2.46039,1.82702 -3.99642,1.82407 -5.51904,-0.0106 z m -17.85625,-2.29799 c 0.360792,-3.13561 3.72012,-4.27589 5.67118,-1.92501 1.86885,2.25183 0.29927,4.67501 -3.028169,4.67501 -2.638515,0 -2.925121,-0.29821 -2.643011,-2.75 z m 165.85629,1.29804 c -1.7519,-2.1109 -0.86113,-4.99917 1.65268,-5.35872 3.04774,-0.43593 4.88641,3.08886 2.73404,5.24122 -1.9466,1.94662 -2.84864,1.97076 -4.38672,0.1175 z M 83.332895,453.06538 c -1.816962,-2.1893 -0.06253,-4.96443 3.138503,-4.96443 1.990016,0 2.391014,0.50313 2.391014,3 0,2.27999 -0.501001,3.07157 -2.087505,3.29826 -1.148128,0.16404 -2.697034,-0.43618 -3.442012,-1.33383 z m 168.465055,-0.53567 c -0.92296,-1.01985 -1.41265,-2.54604 -1.08821,-3.39152 0.75313,-1.96262 5.02806,-1.99478 6.6421,-0.05 2.85811,3.44381 -2.53016,6.78268 -5.55389,3.4415 z m -145.93554,0.30593 c -1.36656,-1.00401 -1.23845,-3.89624 0.23798,-5.37268 0.95302,-0.95301 1.65079,-0.82016 3.23839,0.6166 2.428,2.1973 2.5979,4.08704 0.44184,4.9144 -2.01823,0.77447 -2.68525,0.74752 -3.91821,-0.15832 z m 167.75,-1.89697 c -1.73003,-0.69809 -1.56672,-3.82998 0.27961,-5.36231 1.16961,-0.97068 2.11105,-1.00454 4,-0.14388 5.2386,2.38687 1.12054,7.68519 -4.27961,5.50619 z m -32.93558,-2.08772 c -0.34254,-0.9625 -0.79102,-2.06492 -0.99662,-2.44984 -0.2056,-0.3849 0.497,-1.16586 1.56133,-1.73548 2.57513,-1.37817 6.56232,1.62136 5.57507,4.19408 -0.87878,2.29005 -5.32391,2.2837 -6.13978,-0.009 z m -12.93038,-0.6916 c -0.91526,-2.38513 0.0255,-5.0136 1.92548,-5.3795 2.27244,-0.43763 4.69048,1.54019 4.69048,3.83655 0,2.90336 -5.59335,4.20783 -6.61596,1.54295 z M 96.029079,446.93428 c -0.366667,-0.36666 -0.666667,-1.74796 -0.666667,-3.06955 0,-1.89054 0.457967,-2.33475 2.147872,-2.08333 3.003726,0.44688 4.843076,3.56351 2.852126,4.8327 -1.768408,1.12732 -3.405242,1.24826 -4.333331,0.32018 z m 17.854811,-0.95471 c -2.48095,-2.48095 -1.50185,-4.87862 1.99222,-4.87862 2.38673,0 3.05406,0.47922 3.32379,2.38691 0.52985,3.74734 -2.59549,5.21224 -5.31601,2.49171 z m 145.51835,0.16937 c -1.83072,-2.20588 -0.32931,-5.54799 2.49237,-5.54799 3.38027,0 4.95594,3.24827 2.60688,5.37412 -2.21873,2.00793 -3.53973,2.05298 -5.09925,0.17387 z m -134.37316,-0.21466 c -2.75684,-2.75685 1.74179,-7.25548 5.33333,-5.33333 2.12585,1.13772 2.3631,1.8902 1.39301,4.4182 -0.603,1.5714 -5.41536,2.22612 -6.72634,0.91513 z m -80.700878,-4.39725 c -0.825573,-1.5426 -0.793416,-2.43885 0.127311,-3.54827 2.529275,-3.04759 8.02232,0.26306 6.597431,3.97627 -0.903285,2.35392 -5.388684,2.06844 -6.724742,-0.428 z m 129.999998,0 c -1.97411,-3.68865 2.81489,-6.7554 5.83421,-3.73608 1.69411,1.69411 1.48967,4.47487 -0.38179,5.19301 -2.78527,1.06881 -4.32018,0.65866 -5.45242,-1.45693 z m 13.23421,0.86392 c -2.07006,-2.07006 -1.47337,-6.49525 0.96167,-7.13203 5.39991,-1.41211 8.42923,5.39647 3.27323,7.35678 -3.14441,1.1955 -2.79617,1.21398 -4.2349,-0.22475 z M 32.292845,441.01713 c -1.753986,-2.11343 -0.004,-4.91618 3.069567,-4.91618 3.073567,0 4.823553,2.80275 3.069567,4.91618 -0.722951,0.8711 -2.104256,1.58382 -3.069567,1.58382 -0.965311,0 -2.346616,-0.71272 -3.069567,-1.58382 z m 54,0 c -1.655872,-1.99521 -0.135047,-4.78044 2.854033,-5.22686 2.730907,-0.40787 4.900876,3.27997 3.162483,5.3746 -1.571932,1.89407 -4.379178,1.82513 -6.016516,-0.14774 z m 18.080135,0.0965 c -1.75078,-2.10956 -0.46609,-4.71943 2.13283,-4.33288 3.00734,0.44732 4.84893,3.56323 2.8566,4.83329 -2.12801,1.35657 -3.56815,1.21213 -4.98943,-0.50041 z m 145.37797,0.0574 c -0.99567,-2.59467 0.39988,-4.73919 2.85699,-4.39028 1.65273,0.23469 2.25447,0.98741 2.25447,2.82014 0,1.83273 -0.60174,2.58545 -2.25447,2.82014 -1.35228,0.19202 -2.49559,-0.3082 -2.85699,-1.25 z m -84.38854,-0.50753 c -2.67427,-0.68947 -3.97443,-4.48811 -2.15788,-6.30466 1.5539,-1.5539 5.9434,-0.009 6.69401,2.35595 0.89788,2.82897 -1.33617,4.77371 -4.53613,3.94871 z m 67.05305,-2.49862 c -1.59166,-1.91783 0.31576,-5.56392 2.91071,-5.56392 2.1836,0 5.03624,2.52875 5.03624,4.46444 0,2.62925 -5.98961,3.45793 -7.94695,1.09948 z m 33.94522,-0.56716 c -0.85807,-1.60332 -0.84463,-2.47697 0.0548,-3.56068 2.65923,-3.20418 8.45956,-0.0694 6.28683,3.39774 -1.59419,2.54392 -5.02024,2.63195 -6.34161,0.16294 z M 54.292845,437.01713 c -1.699524,-2.0478 0.05166,-5.04096 2.702208,-4.61867 3.538147,0.56369 4.367359,1.14546 4.367359,3.06412 0,3.19108 -4.829919,4.25315 -7.069567,1.55455 z m -30.730433,-1.61618 c -2.821218,-2.82122 -0.06987,-7.52825 3.70086,-6.33148 1.098259,0.34859 2.282032,1.53236 2.630606,2.63061 1.196783,3.77074 -3.510248,6.52209 -6.331466,3.70087 z m 95.796708,-0.30397 c -1.1336,-1.3659 -1.00701,-1.93018 0.84949,-3.78667 1.73045,-1.73046 2.54061,-1.95514 3.9177,-1.0865 0.95485,0.60231 1.7361,2.17107 1.7361,3.48613 0,1.82736 -0.60952,2.46186 -2.5856,2.69157 -1.46927,0.17079 -3.16072,-0.39244 -3.91769,-1.30453 z m -80.60444,-4.06925 c -0.780872,-3.11124 0.587312,-4.71289 3.640269,-4.26144 5.183436,0.76648 5.199328,6.83466 0.0179,6.83466 -2.402022,0 -3.143182,-0.52134 -3.658169,-2.57322 z m 157.6476,1.12126 c -2.08603,-2.51353 -0.83155,-5.01819 2.68401,-5.35884 2.75588,-0.26704 3.30178,0.0649 3.87716,2.35733 1.00825,4.01722 -3.86719,6.24756 -6.56117,3.00151 z m 47.54252,0.13586 c -2.1681,-1.58535 -1.74253,-5.02938 0.67909,-5.49575 1.18678,-0.22854 1.73852,0.30446 1.73852,1.67951 0,1.10787 0.45734,2.29696 1.01631,2.64242 1.06313,0.65705 0.41226,2.48992 -0.8842,2.48992 -0.41242,0 -1.55979,-0.59224 -2.54972,-1.3161 z M 98.071261,431.97647 c -1.560538,-1.56054 -0.710226,-6.14191 1.234334,-6.65042 2.759855,-0.72172 5.832475,2.81798 4.412645,5.08344 -1.13364,1.80882 -4.477301,2.73665 -5.646979,1.56698 z m 56.872979,-0.89054 c -1.62395,-1.22879 -1.74227,-1.83744 -0.77143,-3.9682 0.77763,-1.70671 1.94697,-2.51679 3.63298,-2.51679 3.4035,0 4.92988,3.02208 2.95236,5.84539 -1.75329,2.50317 -3.14821,2.65663 -5.81391,0.6396 z m 22.32305,-0.0996 c -1.14947,-1.38502 -1.00316,-1.88738 1.02893,-3.53287 2.60567,-2.10994 3.91969,-2.03187 5.40389,0.3211 2.45208,3.88734 -3.43341,6.82585 -6.43282,3.21177 z m 78.29947,0.36084 c -1.55478,-1.87339 -0.34847,-5.74622 1.78984,-5.74622 2.29099,0 4.26285,2.42194 3.82817,4.70195 -0.42074,2.20691 -4.08746,2.88847 -5.61801,1.04427 z M 108.4444,428.75415 c -1.85901,-3.47359 3.30359,-5.80339 5.90744,-2.66593 0.67888,0.81799 0.9731,2.16799 0.65383,3 -0.81673,2.12837 -5.36741,1.89667 -6.56127,-0.33407 z m -58.331988,-0.21987 c -1.931157,-1.13963 -2.350065,-4.44445 -0.693165,-5.46847 0.58126,-0.35923 2.184635,-0.3701 3.563057,-0.0241 2.018236,0.50654 2.445266,1.15601 2.193165,3.3356 -0.340513,2.94394 -2.30868,3.78244 -5.063057,2.15701 z m 117.916668,0.4 c -1.33063,-1.33063 -0.62414,-5.13568 1.07457,-5.78754 2.43146,-0.93304 5.76098,3.14414 4.15138,5.0836 -1.19739,1.44276 -4.09661,1.83328 -5.22595,0.70394 z M 62.98379,426.07947 c -2.089893,-2.0899 -2.082172,-5.36447 0.01454,-6.16906 2.520692,-0.96728 4.864077,1.09751 4.864077,4.28582 0,3.38696 -2.434966,4.32689 -4.878622,1.88324 z m -33.908802,-1.09929 c -0.391917,-0.39191 -0.712576,-2.01607 -0.712576,-3.60926 0,-2.66567 0.259194,-2.8717 3.25,-2.58333 2.874809,0.27718 3.25,0.65969 3.25,3.31336 0,2.46739 -0.450488,3.05254 -2.537424,3.29591 -1.395583,0.16275 -2.858083,-0.0247 -3.25,-0.41668 z m 158.327292,-0.8312 c -1.94281,-2.34094 -0.83453,-5.01207 2.22607,-5.36518 2.11413,-0.2439 2.95144,0.2179 3.62628,2 1.54291,4.07448 -3.0648,6.72397 -5.85235,3.36518 z M 17.450052,422.20654 c -0.682642,-0.82252 -1.093667,-2.53278 -0.913389,-3.80056 0.265275,-1.86549 0.883825,-2.26477 3.24372,-2.09392 3.276416,0.23723 4.716469,1.82704 4.337757,4.78888 -0.318658,2.49216 -4.888507,3.24986 -6.668088,1.1056 z m 158.922928,-1.09287 c -2.4708,-2.97713 1.52503,-6.97296 4.50216,-4.50216 1.95356,1.62131 1.90096,4.61671 -0.0945,5.38244 -2.34587,0.9002 -3.04603,0.76036 -4.40764,-0.88028 z M 42.612412,420.51501 c -2.334881,-0.88166 -3.079698,-4.28324 -1.193165,-5.44919 1.835902,-1.13465 5.682714,0.43116 6.233476,2.53728 0.667787,2.55362 -1.963447,4.07375 -5.040311,2.91191 z m 154.864648,-0.801 c -0.91549,-0.59369 -1.1634,-1.78269 -0.73095,-3.50573 0.76111,-3.03247 4.53864,-3.61076 6.68587,-1.02351 2.55224,3.07526 -2.39483,6.83795 -5.95492,4.52924 z m 25.36613,-2.17361 c -0.99623,-3.13885 2.21499,-6.05765 5.33636,-4.85041 1.78083,0.68876 2.24373,1.53438 2,3.65357 -0.26245,2.28192 -0.86282,2.81033 -3.48167,3.06437 -2.51744,0.24421 -3.30565,-0.13766 -3.85469,-1.86753 z m 12.94413,-0.38261 c -0.83328,-3.32003 0.14791,-4.55684 3.61505,-4.55684 2.26462,0 3.05988,0.54962 3.53513,2.44315 0.83328,3.32003 -0.14791,4.55685 -3.61505,4.55685 -2.26462,0 -3.05988,-0.54962 -3.53513,-2.44316 z m -83.7615,-0.73598 c -0.77591,-2.96706 0.40683,-4.05562 3.96477,-3.64904 2.30909,0.26387 2.87182,0.81805 2.87182,2.82818 0,2.06748 -0.53967,2.55253 -3.11935,2.80361 -2.53836,0.24707 -3.23071,-0.12223 -3.71724,-1.98275 z m 13.92633,0.55239 c -0.70039,-1.82518 0.99527,-4.37325 2.91026,-4.37325 0.69031,0 1.81531,0.675 2.5,1.5 0.99319,1.19672 0.99319,1.80327 0,3 -1.6453,1.98246 -4.62769,1.9126 -5.41026,-0.12675 z M 52.112412,416.52084 c -0.9625,-0.56059 -1.75,-2.12191 -1.75,-3.46958 0,-2.04944 0.485045,-2.45031 2.964816,-2.45031 3.80671,0 5.786535,3.10579 3.461773,5.43054 -1.819451,1.81946 -2.305602,1.87032 -4.676589,0.48935 z m -20,-3 c -2.021142,-1.17721 -2.29058,-3.97931 -0.55,-5.71989 1.856279,-1.85629 3.600286,-1.43444 5.395237,1.305 1.322689,2.01867 1.400464,2.79524 0.400608,4 -1.438242,1.73298 -2.798173,1.84053 -5.245845,0.41489 z m 152.300618,-0.3589 c -2.52986,-3.04829 1.46208,-7.04023 4.51037,-4.51038 0.84454,0.7009 1.40131,2.21375 1.23727,3.36188 -0.36641,2.56445 -3.97419,3.28537 -5.74764,1.1485 z M 60.562412,412.40095 c -2.453081,-2.45308 -0.657502,-6.8 2.80887,-6.8 0.884879,0 2.464572,0.6257 3.510428,1.39044 1.632349,1.19361 1.733229,1.75991 0.712569,4 -1.284814,2.81987 -4.897406,3.54402 -7.031867,1.40956 z m 152.817378,-1.27906 c -2.13296,-2.57007 0.2627,-6.74023 3.64021,-6.33655 3.3999,0.40634 5.24551,3.15548 3.73643,5.56561 -1.44716,2.31124 -5.72708,2.75853 -7.37664,0.77094 z M 19.542864,409.95892 c -1.896976,-3.38971 0.869542,-7.04349 4.32818,-5.71628 1.710581,0.65641 3.012775,4.70564 2.026494,6.30147 -1.014706,1.64183 -5.3308,1.24437 -6.354674,-0.58519 z m 226.809806,-0.37618 c -1.549,-2.89433 -0.56183,-4.98179 2.35591,-4.98179 5.06496,0 6.40449,6.23717 1.46254,6.80993 -1.90777,0.22111 -3.00214,-0.30284 -3.81845,-1.82814 z M 42.402281,409.14899 c -1.91967,-2.31306 -0.836055,-5.01173 2.151423,-5.35797 3.674487,-0.42587 5.984627,3.4769 3.24419,5.48075 -2.347606,1.71662 -3.89833,1.68133 -5.395613,-0.12278 z m 132.160129,0.25196 c -0.66,-0.66001 -1.2,-1.76917 -1.2,-2.46482 0,-1.70166 3.48177,-3.47128 5.38949,-2.73921 1.76668,0.67794 3.03416,3.90953 2.11604,5.39508 -0.85885,1.38966 -4.84562,1.26886 -6.30553,-0.19105 z m 17.83987,-2.25196 c -2.05259,-2.47323 -0.84637,-5.04804 2.36484,-5.04804 3.58571,0 5.55383,2.64011 3.66486,4.91618 -1.64235,1.9789 -4.44591,2.04021 -6.0297,0.13186 z m -33.97518,-1.21528 c -2.43478,-1.7054 -2.64143,-3.60922 -0.57768,-5.32198 1.81616,-1.50728 6.07707,-0.58916 6.8713,1.48059 1.46505,3.81784 -2.6988,6.3593 -6.29362,3.84139 z m 68.5177,0.35114 c -3.56127,-2.60406 0.4281,-8.42084 4.16761,-6.07666 2.19517,1.37608 2.86487,5.38774 1.08749,6.51436 -1.87743,1.19002 -3.17711,1.08177 -5.2551,-0.4377 z m 11.41761,-2.1839 c -0.99319,-1.19673 -0.99319,-1.80328 0,-3 1.5185,-1.82968 2.12441,-1.86075 4.3633,-0.22362 1.09385,0.79985 1.49861,1.91989 1.08414,3 -0.81446,2.12244 -3.77084,2.2438 -5.44744,0.22362 z M 30.112412,402.91162 c -1.174516,-0.30693 -1.75,-1.4406 -1.75,-3.44736 0,-2.77098 0.238095,-2.96708 3.25,-2.67667 2.552882,0.24615 3.322391,0.82535 3.587492,2.70027 0.291824,2.06392 -1.296079,4.29217 -2.837492,3.98178 -0.275,-0.0554 -1.2875,-0.30649 -2.25,-0.55802 z m 22.824697,-0.87883 c -2.31881,-2.31881 -1.608324,-4.58832 1.790957,-5.72086 3.351401,-1.11659 4.806345,0.30379 4.393396,4.28902 -0.317902,3.06796 -3.75293,3.86326 -6.184353,1.43184 z m 116.000221,-1.62833 c -2.66026,-3.79806 1.22859,-8.0494 5.34694,-5.84533 2.31277,1.23776 2.74949,4.27746 0.82814,5.76414 -2.78123,2.15203 -4.70687,2.17735 -6.17508,0.0812 z m 13.99849,-0.37296 c -1.18468,-1.18468 -1.31615,-2.04273 -0.53624,-3.5 1.38302,-2.5842 5.58551,-2.5041 6.99704,0.13337 2.14745,4.01254 -3.08719,6.74024 -6.4608,3.36663 z m 26.43074,0.0745 c -0.99985,-1.20476 -0.92208,-1.98133 0.40061,-4 1.8831,-2.87397 2.51109,-3.01825 5.05157,-1.1606 2.67921,1.95909 1.37169,6.65559 -1.85294,6.65559 -1.29717,0 -2.91683,-0.67275 -3.59924,-1.49499 z m 41.19585,-1.70505 c -1.62282,-1.62282 -1.51304,-4.29531 0.23608,-5.74696 2.95099,-2.44909 7.96217,3.14871 5.24825,5.86262 -1.43164,1.43165 -3.991,1.37766 -5.48433,-0.11566 z m -141.7193,-1.19045 c -1.64843,-1.20537 -1.73914,-1.74691 -0.68145,-4.06829 0.86476,-1.89795 1.84086,-2.58513 3.35158,-2.35954 2.88268,0.43045 4.24899,4.2756 2.23493,6.28966 -1.88166,1.88166 -2.49699,1.89899 -4.90506,0.13817 z m 111.7693,0.74667 c -1.88785,-0.7897 -1.49827,-4.15298 0.61186,-5.28229 2.43463,-1.30297 5.4929,0.83874 4.98666,3.49217 -0.36431,1.90958 -3.16902,2.8064 -5.59852,1.79012 z m -178.747312,-1.7306 c -2.463463,-1.80133 -1.607962,-6.03982 1.302356,-6.45238 2.950464,-0.41826 5.37638,1.58847 4.993215,4.13041 -0.389954,2.58697 -4.074608,3.94598 -6.295571,2.32197 z m 54.163981,0.70771 c -1.153836,-1.15383 -0.72573,-4.03942 0.785345,-5.2935 2.430157,-2.01685 5.547986,-0.31544 5.547986,3.02756 0,2.55344 -0.36632,2.93261 -2.833331,2.93261 -1.558334,0 -3.133334,-0.3 -3.5,-0.66667 z m 136.484941,-0.21847 c -1.95938,-1.24171 -0.98133,-4.56459 1.44611,-4.91312 2.91592,-0.41866 5.06437,2.29557 3.40228,4.29826 -1.40025,1.6872 -2.86347,1.87276 -4.84839,0.61486 z m 8.56097,-1.73562 c -1.18957,-1.18956 -0.79933,-4.06235 0.7235,-5.32619 2.13911,-1.7753 5.77748,0.4347 5.3746,3.26461 -0.31174,2.18978 -4.54035,3.61934 -6.0981,2.06158 z m -122.14806,-3.70841 c -1.50634,-1.10146 -1.61871,-1.70105 -0.65595,-3.5 1.27363,-2.37979 4.96276,-2.8995 6.89143,-0.97083 1.58146,1.58146 1.5146,2.34254 -0.37143,4.22857 -1.92024,1.92024 -3.4811,1.98472 -5.86405,0.24226 z m -32.897851,-1.3375 c -0.366667,-0.36666 -0.666667,-1.71666 -0.666667,-3 0,-1.79017 0.55345,-2.33333 2.377555,-2.33333 2.828136,0 5.079022,2.3678 4.265705,4.48727 -0.581158,1.51447 -4.721996,2.10066 -5.976593,0.84606 z m 122.859961,-1.94956 c -1.41047,-1.41047 -1.4368,-1.88787 -0.20683,-3.75 1.94262,-2.94105 5.27001,-3.26874 6.66794,-0.65668 2.56692,4.79634 -2.56876,8.29903 -6.46111,4.40668 z m 15.42812,-0.9383 c -1.07884,-1.29992 -0.93284,-1.91183 0.89145,-3.73611 1.72928,-1.72929 2.54155,-1.95493 3.9177,-1.0883 0.95485,0.60131 1.89288,1.89114 2.08449,2.8663 0.64796,3.2975 -4.55542,4.7755 -6.89364,1.95811 z m -121.24217,-0.0662 c -0.39192,-0.39195 -0.71258,-1.75403 -0.71258,-3.02688 0,-1.65214 0.73623,-2.49907 2.57322,-2.96012 3.13977,-0.78805 4.70763,0.58886 4.26144,3.74239 -0.23707,1.67559 -1.07458,2.45163 -2.87208,2.66125 -1.39559,0.16275 -2.85809,-0.0247 -3.25,-0.41668 z m 146.03742,-0.45938 c -3.64997,-2.1259 -0.9082,-7.73966 3.15086,-6.45137 2.50824,0.79609 3.64905,4.16395 2.05931,6.07946 -1.40359,1.69124 -2.77675,1.78925 -5.21017,0.37191 z m -13.73943,-1.40717 c -1.75326,-2.11255 -0.50281,-4.51272 2.35106,-4.51272 2.78489,0 4.21112,2.60494 2.53318,4.62675 -1.48316,1.7871 -3.34248,1.74369 -4.88424,-0.11403 z M 92.865252,380.6099 c -0.852392,-2.68565 0.134167,-4.00895 2.988789,-4.00895 2.423689,0 4.239799,3.0075 3.013902,4.99104 -1.125877,1.82171 -5.331168,1.13369 -6.002691,-0.98209 z m 21.332298,0.31812 c -2.52542,-0.66884 -2.92062,-2.93974 -0.83936,-4.82325 3.45643,-3.12803 8.65757,0.69998 5.3903,3.96724 -1.5734,1.5734 -1.73057,1.60297 -4.55094,0.85601 z m 10.69857,-1.28982 c -2.27052,-2.5089 -1.31699,-5.03725 1.89972,-5.03725 3.35106,0 5.1535,3.27021 2.99316,5.43054 -2.03631,2.03632 -2.74572,1.97929 -4.89288,-0.39329 z m 90.32772,-2.44203 c -0.895,-1.96432 -0.86931,-2.8808 0.11399,-4.06561 2.74193,-3.30382 7.47997,-0.76905 6.85134,3.66535 -0.49701,3.50603 -5.42131,3.789 -6.96533,0.40026 z M 80.402281,376.14899 c -1.751894,-2.1109 -0.861124,-4.99917 1.652686,-5.35872 2.820008,-0.40336 5.026045,3.23989 3.254394,5.3746 -1.523033,1.83514 -3.375842,1.82915 -4.90708,-0.0159 z m 158.080109,-1.32386 c -1.33542,-2.49525 0.43777,-5.22418 3.39453,-5.22418 2.62809,0 4.99621,3.2267 4.09388,5.57814 -0.79312,2.06682 -6.33299,1.80496 -7.48841,-0.35396 z m -135.52985,-0.77691 c -2.20731,-2.20731 -0.28234,-4.66708 3.32427,-4.24784 2.01116,0.23379 2.5856,0.856 2.5856,2.80057 0,3.0749 -3.43986,3.91728 -5.90987,1.44727 z m 124.97562,-0.64038 c -1.53306,-2.17322 -1.50327,-2.4083 0.51423,-4.05689 2.72199,-2.22429 3.2055,-2.19702 5.47299,0.30854 1.42372,1.57317 1.61301,2.45733 0.80286,3.75 -1.64216,2.6202 -4.9411,2.61941 -6.79008,-0.002 z M 92.562412,370.40095 c -0.66,-0.66001 -1.2,-2.235 -1.2,-3.5 0,-1.75508 0.563295,-2.3 2.377555,-2.3 3.54978,0 4.905576,2.15076 3.037264,4.81815 -1.745307,2.49178 -2.523591,2.67307 -4.214819,0.98185 z m -54.269567,-3.38382 c -1.672348,-2.01506 -0.124996,-4.78251 2.92789,-5.23654 2.260241,-0.33616 4.349487,3.08344 3.403287,5.57036 -0.672825,1.76839 -4.765579,1.55261 -6.331177,-0.33382 z m 86.988885,-0.56694 c -1.15816,-2.16404 0.27086,-4.84924 2.58068,-4.84924 2.1827,0 3.99915,2.98513 2.88817,4.7464 -1.46195,2.31767 -4.2554,2.3702 -5.46885,0.10284 z m -14.53688,-0.295 c -0.83725,-2.18185 1.50646,-4.71306 4.03005,-4.35251 1.48048,0.21153 2.08751,1.02526 2.08751,2.79827 0,1.98516 -0.56748,2.56527 -2.75569,2.81697 -1.80507,0.20763 -2.96479,-0.22797 -3.36187,-1.26273 z m -59.570954,-0.29057 c -1.827432,-0.41846 -2.663098,-2.72614 -1.996628,-5.51367 0.4812,-2.01264 4.18239,-2.35276 5.985144,-0.55 2.830671,2.83066 0.08983,6.99752 -3.988516,6.06367 z m 32.273697,-2.1785 c -2.663993,-2.66398 -1.686414,-5.08517 2.053193,-5.08517 3.244127,0 4.781149,2.31869 3.19933,4.82639 -1.518652,2.40758 -3.029311,2.48199 -5.252523,0.25878 z m 18.581487,1.24816 c -1.51322,-1.51322 -0.60076,-5.21948 1.44484,-5.86872 3.09787,-0.98323 5.44005,1.63627 3.95093,4.41872 -1.09233,2.04103 -4.01841,2.82736 -5.39577,1.45 z M 27.0174,362.77221 c -2.185492,-2.41494 -2.088488,-3.86889 0.345012,-5.17126 3.678842,-1.96886 8.432677,2.5688 5.894808,5.62675 -1.585228,1.91008 -4.276817,1.7136 -6.23982,-0.45549 z m 30.767656,-6.62345 c -1.256611,-5.00674 3.604322,-7.38547 7.13033,-3.48927 2.445594,2.70235 0.909121,5.32534 -3.369511,5.75226 -2.630943,0.26252 -3.215194,-0.089 -3.760819,-2.26299 z m 59.777354,1.25219 c -0.66,-0.66001 -1.2,-2.01 -1.2,-3 0,-2.28702 5.49961,-2.54638 6.36163,-0.3 1.39194,3.62736 -2.40607,6.05556 -5.16163,3.3 z m -24.449998,-0.88011 c -3.249724,-1.89278 -1.495429,-6.91989 2.414816,-6.91989 1.487416,0 3.835184,2.67077 3.835184,4.36282 0,0.75826 -3.054452,3.64113 -3.821429,3.60676 -0.373214,-0.0167 -1.466071,-0.48908 -2.428571,-1.04969 z m -57.78421,-1.98381 c -0.825573,-1.5426 -0.793416,-2.43885 0.127311,-3.54827 2.529275,-3.04759 8.02232,0.26306 6.597431,3.97627 -0.903285,2.35392 -5.388684,2.06844 -6.724742,-0.428 z m 203.277188,0.9069 c -3.07122,-3.07122 0.48529,-7.69878 4.85178,-6.31291 1.56461,0.49659 1.95009,1.35333 1.71222,3.8054 -0.24567,2.53253 -0.80767,3.22304 -2.814,3.45751 -1.37887,0.16113 -3.06637,-0.26637 -3.75,-0.95 z m 12.73434,-0.86566 c -2.59943,-2.59943 -2.49556,-3.59165 0.58745,-5.61172 2.43921,-1.59823 2.66443,-1.58084 4.60039,0.35512 1.63017,1.63016 1.82198,2.4348 0.96301,4.0398 -1.60014,2.98989 -3.91902,3.44863 -6.15085,1.2168 z M 46.969974,353.7198 c -1.568807,-1.73352 -1.575365,-2.00819 -0.08356,-3.5 2.021918,-2.02191 2.921378,-2.03062 4.904568,-0.0474 1.886034,1.88603 1.952886,2.64711 0.371429,4.22857 -1.694374,1.69437 -3.224243,1.49369 -5.192438,-0.68115 z m 58.592436,0.68115 c -2.51177,-2.51177 -0.64209,-6.8 2.96482,-6.8 0.97065,0 2.23065,0.87042 2.8,1.93426 1.33879,2.50155 1.32284,2.63522 -0.53625,4.4943 -1.87901,1.87903 -3.59881,2.00119 -5.22857,0.37144 z m -84.617609,-3.1161 c -2.81015,-2.05483 -1.644389,-5.1839 1.931306,-5.1839 2.386733,0 3.054065,0.47922 3.323797,2.38691 0.185621,1.31279 -0.264379,2.76841 -1,3.23469 -1.78993,1.13456 -2.156484,1.09685 -4.255103,-0.4377 z m 208.252749,-1.43906 c -3.47861,-0.74948 -3.2218,-5.43236 0.40434,-7.37301 1.58512,-0.84833 2.39104,-0.6857 3.85427,0.77778 3.34702,3.34757 0.57721,7.63713 -4.25861,6.59523 z M 31.0174,345.77221 c -2.259439,-2.49665 -2.076938,-4.0688 0.595012,-5.12573 3.065017,-1.2124 6.230957,2.18728 4.700303,5.04733 -1.285485,2.40195 -3.167317,2.42981 -5.295315,0.0784 z m 230.97164,0.31251 c -1.2317,-1.2317 -1.37372,-2.08781 -0.58946,-3.55323 1.24965,-2.33499 5.21983,-2.53073 7.0324,-0.34672 2.88789,3.47969 -3.18639,7.1565 -6.44294,3.89995 z M 41.408093,345.15599 c -1.399681,-1.68651 -1.042042,-5.73519 0.552938,-6.25959 0.604241,-0.19866 2.123906,0.46903 3.377033,1.48375 1.676336,1.35742 2.094911,2.42311 1.583993,4.03287 -0.791142,2.49266 -3.732877,2.88905 -5.513964,0.74297 z m 20.832383,-0.92331 c -0.921034,-2.02145 -0.891191,-2.911 0.139318,-4.15267 1.789471,-2.15619 6.083797,-1.47828 7.033077,1.11025 0.99325,2.70842 0.07276,4.09068 -3.285389,4.93352 -2.276122,0.57127 -2.90433,0.26562 -3.887006,-1.8911 z m -11.344358,-0.59449 c -2.438469,-2.69448 -1.296049,-5.03724 2.456348,-5.03724 2.308595,0 3.338466,0.62691 4.224529,2.57161 0.948593,2.08194 0.896906,2.74548 -0.271439,3.48469 -2.291037,1.44953 -4.492099,1.09958 -6.409438,-1.01906 z m 189.023102,-0.97447 c -1.50123,-1.65884 -1.60479,-2.30004 -0.57238,-3.54402 2.56602,-3.09185 7.58851,-0.75378 6.83793,3.1832 -0.48594,2.5489 -4.09717,2.75685 -6.26555,0.36082 z m 12.47837,-0.99704 c -2.26214,-4.22684 0.081,-7.14432 4.03726,-5.02697 2.48279,1.32875 2.4791,4.59569 -0.007,5.92605 -2.59812,1.39047 -2.8333,1.33801 -4.03056,-0.89908 z M 20.809438,338.54241 c -2.20925,-2.44119 -1.04189,-5.24808 2.395428,-5.75975 2.850308,-0.42428 5.0862,3.9944 3.182123,6.28868 -1.723855,2.07711 -3.359488,1.92201 -5.577551,-0.52893 z m 200.994102,-1.38289 c -1.55422,-1.15413 -1.72009,-1.80192 -0.83214,-3.25 2.29868,-3.74876 8.64226,-1.01166 7.08154,3.05551 -0.77574,2.02154 -3.66776,2.11154 -6.2494,0.19449 z m -175.869699,-1.13 c -2.05304,-2.05304 -1.994194,-4.0926 0.152748,-5.29409 3.67042,-2.05407 7.069955,2.67139 4.075823,5.66552 -1.581457,1.58146 -2.342538,1.5146 -4.228571,-0.37143 z m 186.496229,-1.30214 c -1.60747,-3.00359 -1.29526,-4.93426 0.99626,-6.16064 2.92817,-1.56711 5.12307,0.4943 4.73715,4.44904 -0.36976,3.78909 -4.03584,4.88353 -5.73341,1.7116 z m 35.50377,0.30214 c -2.05304,-2.05304 -1.99419,-4.0926 0.15275,-5.29409 3.67042,-2.05407 7.06995,2.67139 4.07582,5.66552 -1.58146,1.58146 -2.34254,1.5146 -4.22857,-0.37143 z M 34.845474,332.54758 c -0.954526,-3.00744 1.863562,-5.84854 4.285702,-4.32069 0.95218,0.60062 1.731236,2.16799 1.731236,3.48305 0,3.35048 -4.998533,4.04635 -6.016938,0.83764 z m 23.556807,0.60141 c -2.052587,-2.47323 -0.846367,-5.04804 2.36484,-5.04804 3.188306,0 5.253104,2.34338 4.285823,4.86408 -0.777669,2.02657 -5.023952,2.14402 -6.650663,0.18396 z m 185.027789,-1.42161 c -1.52771,-2.85455 -1.33273,-3.82385 0.88586,-4.40403 2.62475,-0.68638 5.35087,1.45424 4.895,3.8437 -0.51359,2.69203 -4.43651,3.07227 -5.78086,0.56033 z m 12.17066,-0.28811 c -1.59937,-1.59937 -1.59275,-4.48949 0.0117,-5.09993 0.6875,-0.26157 2.29416,-0.0875 3.57036,0.38682 1.65718,0.61591 2.2288,1.50725 2,3.11859 -0.36513,2.57149 -3.66302,3.51354 -5.58204,1.59452 z M 26.482388,327.82513 c -1.338224,-2.5005 0.439962,-5.22418 3.410662,-5.22418 1.74427,0 2.604525,0.69035 3.044453,2.44315 0.337258,1.34375 0.319273,2.91875 -0.03996,3.5 -1.050869,1.70036 -5.380034,1.21515 -6.41515,-0.71897 z m 21.811963,-4.35136 c -1.356564,-2.53477 0.06118,-3.83347 4.211072,-3.85752 2.776553,-0.0161 4.189986,1.95334 3.218615,4.48469 -0.894042,2.32984 -6.081498,1.89194 -7.429687,-0.62717 z m 174.346199,0.87718 c -2.26671,-2.93088 -2.24825,-3.72348 0.12294,-5.27714 3.14583,-2.06123 6.59892,-0.51476 6.59892,2.95533 0,3.31386 -4.69925,4.93704 -6.72186,2.32181 z M 37.292845,323.01713 c -1.768677,-2.13113 -0.05438,-4.81692 3.334589,-5.22432 3.382928,-0.40667 4.915604,3.47168 2.166399,5.48194 -2.386183,1.74482 -3.89786,1.67403 -5.500988,-0.25762 z m 197.060225,-0.43365 c -1.67811,-3.13556 -0.50818,-5.17469 2.75365,-4.79951 2.32477,0.2674 2.75569,0.78609 2.75569,3.31698 0,3.81632 -3.72402,4.81844 -5.50934,1.48253 z m 29.53082,0.39608 c -2.21935,-2.21935 -1.50975,-4.80651 1.43271,-5.22359 3.53323,-0.50081 5.60222,2.57266 3.38279,5.02511 -2.02394,2.23642 -2.74773,2.26626 -4.8155,0.19848 z m -17.32148,-0.57861 c -1.57442,-1.57442 -1.51408,-2.34306 0.32862,-4.18576 1.77745,-1.77745 5.93335,-0.7439 6.03273,1.50031 0.152,3.43248 -3.90264,5.14416 -6.36135,2.68545 z m 8.8456,-8.75441 c -2.38386,-2.38386 -1.72928,-4.83589 1.50787,-5.64837 3.07973,-0.77296 4.44653,0.18811 4.44653,3.12661 0,3.61302 -3.4163,5.05987 -5.9544,2.52176 z m -24.8456,-1.24559 c -1.60331,-1.60331 -1.51376,-3.29471 0.25201,-4.76017 2.88998,-2.39847 7.27232,0.90902 5.90962,4.46017 -0.68946,1.79669 -4.48037,1.98126 -6.16163,0.3 z m 12.22491,-2.24316 c -0.75181,-2.99547 0.1088,-4.55684 2.51166,-4.55684 2.53758,0 4.35304,2.51217 3.57866,4.952 -0.96499,3.04042 -5.29862,2.75923 -6.09032,-0.39516 z"
           id="path754"
           inkscape:connector-curvature="0"
           sodipodi:nodetypes="csccccccsccscscccsscssccscsscsscscsscccsccccccccsccccsscccsccscsscccccssccccccccccsccccccccsccsssscsccccscccscccccccccccsccsscscscscccccsccsccsccsscssssscccccccscsccssccscsccsccsccccscscccsccsscccccccsccccccccccccsccsccscccscsccscsscccsccscccccscccscscccsssssscsscccsscccssccscccssccsssccsccscsccscscccccccsccccscccscccscccsscccsssccssssccsccsccsccssccccccccscccccscsscssscccccccccccssccssscssssccccccsccscccccccsccsscscccccsccccccccsccsscsscsscccccccsssccccccsscccssccscccsccsccssscscscccscccssccccccscccssccsscccccccsscccscccsscsscssscsscccsccccscssscssccscccccccccccscsscsccccsssssssscsccsccscccccccsccccccscccsccccccsscccccssssccscsscscscc" />
      </g>
    </g>
  </g>
</svg>
