<?xml version="1.0" encoding="UTF-8" standalone="no"?>
<!-- Created with Inkscape (http://www.inkscape.org/) -->

<svg
   xmlns:dc="http://purl.org/dc/elements/1.1/"
   xmlns:cc="http://creativecommons.org/ns#"
   xmlns:rdf="http://www.w3.org/1999/02/22-rdf-syntax-ns#"
   xmlns:svg="http://www.w3.org/2000/svg"
   xmlns="http://www.w3.org/2000/svg"
   xmlns:sodipodi="http://sodipodi.sourceforge.net/DTD/sodipodi-0.dtd"
   xmlns:inkscape="http://www.inkscape.org/namespaces/inkscape"
   version="1.1"
   id="svg2949"
   width="283"
   height="443"
   viewBox="0 0 283 443"
   sodipodi:docname="feu119.svg"
   inkscape:version="0.92.4 (5da689c313, 2019-01-14)">
  <metadata
     id="metadata2955">
    <rdf:RDF>
      <cc:Work
         rdf:about="">
        <dc:format>image/svg+xml</dc:format>
        <dc:type
           rdf:resource="http://purl.org/dc/dcmitype/StillImage" />
        <dc:title></dc:title>
      </cc:Work>
    </rdf:RDF>
  </metadata>
  <defs
     id="defs2953" />
  <sodipodi:namedview
     pagecolor="#ffffff"
     bordercolor="#666666"
     borderopacity="1"
     objecttolerance="10"
     gridtolerance="10"
     guidetolerance="10"
     inkscape:pageopacity="0"
     inkscape:pageshadow="2"
     inkscape:window-width="1280"
     inkscape:window-height="972"
     id="namedview2951"
     showgrid="false"
     inkscape:zoom="1.5067919"
     inkscape:cx="147.84438"
     inkscape:cy="221.34636"
     inkscape:window-x="-8"
     inkscape:window-y="-8"
     inkscape:window-maximized="1"
     inkscape:current-layer="g534"
     showguides="true" />
  <g
     id="g151"
     transform="translate(25.882805,-2.654647)">
    <g
       id="g534"
       transform="translate(-21.900834,-45.792654)">
      <g
         id="g733"
         transform="translate(-0.66366166,15.927879)">
        <path
           style="fill:#ffff00"
           d="m 71.408962,462.68792 c -2.15898,-4.03408 -1.293669,-14.58782 1.338231,-16.32166 2.471512,-1.6282 6.573878,-0.75804 8.211842,1.7418 2.045536,3.12188 1.573739,14.13955 -0.666181,15.55703 -2.606512,1.64948 -7.78287,1.08011 -8.883892,-0.97717 z m 1.540064,-22.99126 c -1.496267,-1.65337 -1.58371,-2.65974 -0.663579,-7.63719 1.273167,-6.88719 2.418286,-8.45852 6.164226,-8.45852 3.65975,0 4.912739,2.36667 4.912739,9.27927 0,3.97186 -0.486322,5.85086 -1.828741,7.06574 -2.443942,2.21174 -6.463062,2.09501 -8.584645,-0.2493 z m 4.961994,-21.01707 c -1.670646,-2.70316 -1.734855,-10.81781 -0.110454,-13.95904 1.431013,-2.76729 2.138615,-3.19298 4.86812,-2.92877 2.759247,0.26711 3.392767,0.88494 4.656813,4.54152 1.296625,3.75082 1.286756,4.7179 -0.08675,8.5 -1.388154,3.82244 -1.922297,4.29944 -5.120186,4.57247 -1.963693,0.16765 -3.857089,-0.15913 -4.207547,-0.72618 z M 83.0174,394.7722 c -2.091256,-2.31081 -2.102428,-5.38697 -0.0344,-9.47092 3.441263,-6.79581 6.566265,-8.36133 9.724423,-4.8716 2.198689,2.42953 2.090468,6.39732 -0.302415,11.08776 -2.724107,5.3397 -6.359962,6.60028 -9.387608,3.25476 z m 7.979871,-21.24384 c -3.203286,-2.5197 -3.416241,-6.13357 -0.630661,-10.70235 5.575243,-9.14424 14.47312,-3.61389 10.09818,6.27639 -1.590259,3.59506 -4.45052,6.49855 -6.401778,6.49855 -0.236985,0 -1.616569,-0.93266 -3.065741,-2.07259 z m 7.921845,-21.14992 c -2.104999,-3.0053 -1.978075,-4.14974 0.979904,-8.83549 3.35932,-5.3215 6.7373,-6.90908 9.45933,-4.44569 3.07248,2.78056 2.61727,7.73568 -1.09953,11.96888 -3.60367,4.10436 -7.04535,4.58794 -9.339704,1.3123 z m 13.014724,-18.34893 c -3.41058,-3.41057 -0.33368,-10.92948 5.7695,-14.09874 2.56137,-1.33006 3.02878,-1.30522 4.75,0.25246 3.16313,2.86259 2.43335,7.12872 -1.97328,11.53536 -4.21906,4.21905 -6.1232,4.73394 -8.54622,2.31092 z m 12.42063,-16.93813 c -1.56628,-1.88725 -0.74045,-8.99037 1.31587,-11.31806 0.81257,-0.9198 2.40695,-4.99112 3.54306,-9.04736 3.22799,-11.52492 3.85734,-11.22476 5.26447,2.51078 1.35936,13.26918 0.84716,15.55461 -3.96152,17.67619 -4.65071,2.05189 -4.60809,2.05066 -6.16188,0.17845 z m -14.79206,-3.69043 c -1.81113,-1.81113 -1.40568,-4.44574 2.1924,-14.24615 3.98559,-10.85588 5.82243,-12.2296 5.20433,-3.89211 -0.23806,3.21103 -0.46971,7.8909 -0.51478,10.3997 -0.0561,3.12441 -0.7243,5.25092 -2.12091,6.75 -2.33561,2.50698 -3.08667,2.66293 -4.76104,0.98856 z m 39.24708,-2.85848 c -1.49949,-1.65692 -1.83513,-3.51031 -1.72053,-9.5009 l 0.14236,-7.44242 -3.27885,2.5009 c -3.62362,2.76387 -5.58229,3.10867 -7.39006,1.3009 -1.62631,-1.62631 -1.50957,-4.97782 0.29384,-8.43569 0.89215,-1.71063 1.49632,-5.58307 1.5,-9.61431 0.003,-3.82923 0.43887,-6.75 1.00616,-6.75 0.55,0 1.00251,0.5625 1.00558,1.25 0.003,0.6875 0.48421,2.97369 1.06921,5.08043 0.75178,2.70735 1.48979,3.6669 2.5171,3.27268 2.32834,-0.89347 5.10908,2.77533 6.29509,8.30549 0.60387,2.81576 1.77634,6.74318 2.60548,8.72761 2.37466,5.68335 1.83186,13.36379 -0.94446,13.36379 -0.68091,0 -2.07633,-0.92631 -3.10092,-2.05848 z m -59.595433,-5.36778 c -0.608012,-1.33444 -0.83996,-3.47194 -0.515438,-4.75 0.771624,-3.03887 11.988341,-16.35009 12.495461,-14.82874 0.36757,1.1027 -1.666845,8.84086 -4.076363,15.505 -2.330102,6.4445 -5.96892,8.32003 -7.90366,4.07374 z m 82.357503,0.67626 c -2.40413,-2.09062 -5.71671,-11.61219 -6.69714,-19.25 -0.63687,-4.96139 -0.55367,-5.35311 0.84957,-4 0.85557,0.825 3.59922,5.08909 6.097,9.47578 6.36087,11.17117 6.21198,19.39305 -0.24943,13.77422 z M 72.447682,294.78883 c -0.598648,-1.06972 -0.416937,-2.57961 0.531076,-4.41287 2.072007,-4.00682 13.828366,-14.66363 14.94488,-13.54712 0.714901,0.7149 -5.160663,12.14261 -7.943595,15.44993 -3.142303,3.73442 -6.264854,4.77497 -7.532361,2.51006 z m 51.581398,1.14545 c -1.94748,-1.94748 0.83399,-20.35799 3.19209,-21.12852 1.11514,-0.36439 1.23591,1.40979 0.67354,9.89481 -0.37687,5.68634 -0.90237,10.69016 -1.16778,11.11958 -0.59124,0.95664 -1.80403,1.00795 -2.69785,0.11413 z m 68.28566,-3.0404 c -3.23104,-3.67995 -10.46391,-18.11469 -9.53982,-19.03877 1.32862,-1.32862 18.58749,14.9949 18.58749,17.58014 0,6.27485 -4.22142,6.95542 -9.04767,1.45863 z m -87.96767,0.18859 c -0.69586,-0.83847 -0.89229,-2.62561 -0.48992,-4.45755 0.63888,-2.90883 5.66631,-12.23763 8.90501,-16.52397 1.49755,-1.98196 1.51158,-1.98027 1.55571,0.18795 0.0658,3.23092 -2.86197,15.23058 -4.47896,18.35749 -1.71608,3.31853 -3.94055,4.30527 -5.49184,2.43608 z m 52.13928,-4.24994 c -0.52053,-0.97262 -1.26144,-3.44761 -1.64647,-5.5 -0.74556,-3.97418 -3.68144,-5.24838 -4.88231,-2.11896 -1.88349,4.9083 -5.75063,-6.33786 -4.87472,-14.17632 0.38645,-3.45835 0.92197,-4.24031 3.59488,-5.24923 2.81649,-1.06309 3.38309,-0.9432 5.48743,1.16113 1.49011,1.4901 2.52883,3.95358 2.84579,6.74922 0.27454,2.42142 1.41716,6.98034 2.53915,10.13095 2.15485,6.05093 1.86054,10.77163 -0.67156,10.77163 -0.79517,0 -1.87165,-0.79578 -2.39219,-1.76842 z m -65.873938,-1.26274 c -1.2375,-0.49743 -2.25,-1.73393 -2.25,-2.74782 0,-1.7077 17.857648,-23.6967 18.622978,-22.93137 0.75867,0.75867 -5.8158,16.10786 -9.095412,21.23471 -3.713997,5.80591 -3.784055,5.8487 -7.277566,4.44448 z m -32.583333,-2.63551 c -1.499183,-1.49919 -0.500182,-5.11548 2.083333,-7.54151 3.080295,-2.8925 16.257707,-11.11746 16.854863,-10.5203 0.470516,0.47052 -12.059347,15.7356 -14.346648,17.47848 -1.812458,1.38104 -3.570486,1.6044 -4.591548,0.58333 z m 73.784341,-3.4126 c -0.82933,-1.34188 0.42897,-13.72852 1.4593,-14.3653 1.02635,-0.63432 3.07492,10.78505 2.39868,13.37097 -0.57914,2.21465 -2.75689,2.77593 -3.85798,0.99433 z m 75.8084,-4.09161 c -10.19126,-9.38171 -14.87022,-14.82912 -12.73721,-14.82912 1.03641,0 16.88655,8.24212 20.68818,10.75792 3.31019,2.19058 3.84653,3.03585 3.59055,5.65866 -0.2466,2.52673 -0.79572,3.14038 -3.04152,3.39893 -2.14683,0.24716 -3.98839,-0.83316 -8.5,-4.98639 z m -91.25941,1.68041 c 0,-2.89176 3.98825,-12.50953 5.18739,-12.50953 1.13853,0 1.01646,9.33364 -0.16264,12.43489 -1.32822,3.49349 -5.02475,3.5484 -5.02475,0.0746 z m 57.35938,1.7242 c -1.93161,-1.24257 -8.73407,-15.58143 -9.85269,-20.76843 l -0.6395,-2.9653 2.57939,3 c 3.74603,4.35686 10.50738,15.97562 10.80124,18.56092 0.27056,2.38027 -1.03696,3.36384 -2.88844,2.17281 z m -96.368883,-2.74519 c -0.635653,-0.76592 -0.857052,-2.33363 -0.492,-3.48381 0.688932,-2.17063 15.429681,-14.4099 16.303095,-13.53648 1.009502,1.0095 -10.816707,16.93983 -13.276311,17.88367 -0.758479,0.29105 -1.899132,-0.0975 -2.534784,-0.86338 z m 27.009503,-1.11881 c 0,-1.80601 9.13334,-17.56973 9.79586,-16.9072 0.55603,0.55602 -3.02292,11.66102 -4.84633,15.03747 -1.85771,3.43995 -4.94953,4.60791 -4.94953,1.86973 z m 56.68003,-1.73532 c -1.9592,-2.99012 -4.72583,-13.92883 -3.77245,-14.91557 1.04444,-1.08101 7.17782,9.03256 7.79892,12.85996 0.65218,4.01887 -1.88978,5.31662 -4.02647,2.05561 z m 26.45617,-5.88441 c -5.28552,-5.65274 -10.1362,-11.82006 -10.1362,-12.8875 0,-1.70609 1.62723,-0.75 9.75,5.72877 6.23813,4.97555 8.25,7.16899 8.25,8.99449 0,3.78366 -3.33806,3.0044 -7.8638,-1.83576 z m -95.136198,0.36001 c 0,-1.21074 8.176098,-12.1515 10.847128,-14.51501 1.88759,-1.67025 2.15287,-1.70291 2.15287,-0.26502 0,1.65683 -5.0766,10.69112 -7.822008,13.92002 -1.544056,1.81597 -5.17799,2.41953 -5.17799,0.86001 z m 82.661068,-3.10274 c -3.3272,-2.92132 -8.38917,-12.61252 -7.2059,-13.79578 0.79327,-0.79327 11.51889,9.74604 12.50574,12.2885 0.84986,2.18955 0.31943,4.5 -1.0331,4.5 -0.47202,0 -2.39205,-1.34672 -4.26674,-2.99272 z M 45.827286,267.5441 c -1.281478,-2.07346 0.61518,-5.9332 3.699255,-7.52803 3.868851,-2.00067 17.061321,-7.40702 18.085871,-7.4117 0.4125,-0.002 0.75,0.43586 0.75,0.97278 0,1.78062 -18.856017,15.0238 -21.391323,15.0238 -0.269854,0 -0.784565,-0.47559 -1.143803,-1.05685 z m 19.113255,-3.18932 c 0.940694,-2.96387 2.513924,-4.11338 11.312703,-8.26584 11.948876,-5.63911 11.821936,-4.21205 -0.44668,5.02158 -7.873477,5.92575 -12.119453,7.19347 -10.866023,3.24426 z m 158.564749,0.19747 c -3.87878,-1.58979 -19.14288,-11.94442 -19.14288,-12.98586 0,-1.22268 -0.10208,-1.22974 6.20121,0.42867 6.91971,1.8206 15.29924,5.04855 18.42885,7.09915 5.37939,3.52471 0.83191,8.04804 -5.48718,5.45804 z m -22.78517,-2.82523 c -4.37558,-2.44956 -16.96798,-13.84914 -16.17464,-14.64249 0.35839,-0.35838 5.42163,1.70151 11.25165,4.57754 7.94051,3.91717 10.74474,5.80571 11.1768,7.52717 1.14038,4.54365 -1.06915,5.44028 -6.25381,2.53778 z m -117.691041,0.20725 c -1.24533,-1.24533 -0.672969,-3.24955 1.50835,-5.28176 2.726231,-2.53987 13.94173,-9.26816 14.506998,-8.70289 0.230785,0.23079 -2.343233,3.62174 -5.72004,7.53547 -5.587403,6.4758 -8.465682,8.27881 -10.295308,6.44918 z m 102.276931,-3.30509 c -2.31514,-1.355 -11.25384,-13.02824 -9.9763,-13.02824 2.07935,0 13.84012,8.50172 14.936,10.79706 0.60319,1.26338 1.0967,2.50088 1.0967,2.75 0,0.80262 -4.44996,0.42142 -6.0564,-0.51882 z m -61.9436,-4.29519 c 0,-3.71549 5.50517,-15.73305 7.20722,-15.73305 1.58821,0 -0.0123,11.93025 -2.07898,15.49673 -2.56205,4.42135 -5.12824,4.53962 -5.12824,0.23632 z m 10.9331,1.01946 c -0.8203,-1.80036 -0.69968,-4.27434 0.48899,-10.02905 0.86785,-4.20153 1.57791,-7.90967 1.57791,-8.24032 0,-0.33065 0.3559,-0.38122 0.79088,-0.11238 0.94831,0.58609 1.57749,5.95563 1.65343,14.11064 0.0457,4.91213 -0.25518,6.04214 -1.68331,6.3212 -1.06918,0.20892 -2.15841,-0.58072 -2.8279,-2.05009 z m 10.30745,0.26106 c -0.73493,-1.17681 -1.22816,-5.35448 -1.21014,-10.25 0.0225,-6.10236 0.29698,-7.80588 1.04969,-6.51357 0.5606,0.9625 1.80692,1.75 2.76959,1.75 0.96267,0 2.34892,0.5625 3.08055,1.25 1.09744,1.03125 1.23095,0.59375 0.76287,-2.5 -0.31205,-2.0625 -0.19825,-3.75 0.25288,-3.75 0.94216,0 7.5256,10.75976 8.54108,13.95926 0.38465,1.21193 0.14754,2.77608 -0.54783,3.61396 -1.07551,1.2959 -1.45391,1.27099 -3.08262,-0.20298 -1.10067,-0.99609 -1.85662,-1.20995 -1.85662,-0.52523 0,1.9605 -3.87891,5.155 -6.25945,5.155 -1.2427,0 -2.8177,-0.89389 -3.5,-1.98644 z m -86.856506,-3.45516 c -1.507258,-3.92785 0.0078,-5.01855 12.990394,-9.35213 7.074773,-2.36155 13.361158,-4.12775 13.969744,-3.92489 2.035516,0.67851 -22.146461,14.71861 -25.350601,14.71861 -0.580992,0 -1.305284,-0.64871 -1.609537,-1.44159 z m 56.282626,0.77492 c -1.77017,-1.77016 -0.20784,-5.67876 4.49072,-11.23476 2.83656,-3.35422 5.49332,-6.09857 5.90392,-6.09857 0.85134,0 -2.17696,8.3462 -5.12498,14.1248 -1.85071,3.6277 -3.71524,4.76295 -5.26966,3.20853 z m -37.585724,-1.7358 c -0.86021,-1.03649 -0.570234,-1.87915 1.249272,-3.63037 2.638942,-2.53989 11.5879,-6.39162 12.551441,-5.40228 0.735244,0.75494 -6.259013,7.02967 -10.031069,8.99913 -2.222037,1.16018 -2.830116,1.16558 -3.769644,0.0335 z m -38.830944,-1.25981 c -1.816248,-0.73287 -1.530805,-3.77362 0.529248,-5.63794 2.268533,-2.053 10.940963,-4.31739 19.8086,-5.17207 l 6.912152,-0.66621 -6.5,3.7208 c -6.423553,3.67705 -17.23813,8.49175 -18.73013,8.33875 -0.423428,-0.0434 -1.33237,-0.30591 -2.01987,-0.58333 z m 124.484678,-4.86404 c -4.57971,-6.31074 -7.20204,-11.33965 -6.35484,-12.18685 1.11996,-1.11995 12.55343,11.11153 12.8511,13.74807 0.48618,4.30618 -2.81382,3.51311 -6.49626,-1.56122 z m 26.05465,-0.51101 c -9.73948,-5.84367 -10.51734,-7.77474 -2.24283,-5.56789 8.05586,2.14854 12.91504,4.84266 13.27305,7.35912 0.49472,3.47735 -3.2675,2.86639 -11.03022,-1.79123 z m -83.31651,1.99335 c -0.99236,-1.60567 2.02645,-5.51371 7.75999,-10.04581 7.60592,-6.01213 7.3895,-2.94898 -0.51857,7.33979 -2.80543,3.64999 -5.93519,4.81954 -7.24142,2.70602 z m 102.02718,-0.97122 c -2.2,-1.01932 -7.2625,-3.31678 -11.25,-5.10547 -3.9875,-1.78869 -7.25,-3.6236 -7.25,-4.07757 0,-1.15389 6.91297,-0.012 17.44845,2.88212 10.89761,2.99361 12.55155,3.83053 12.55155,6.3513 0,1.61818 -0.66158,1.95054 -3.75,1.88387 -2.0625,-0.0445 -5.55,-0.91493 -7.75,-1.93425 z m 17,-1.82494 c -4.4,-2.01292 -9.4625,-4.45892 -11.25,-5.43554 -3.43456,-1.87652 -4.46456,-4.19454 -1.5,-3.37576 0.9625,0.26582 4,0.77816 6.75,1.1385 8.62047,1.1296 19.94703,3.64797 21.25,4.7248 1.76754,1.46076 1.55299,5.4579 -0.33179,6.18116 -3.14817,1.20807 -7.06647,0.35888 -14.91821,-3.23316 z M 98.381241,241.63374 c -2.204596,-1.39401 1.402437,-5.75508 8.087919,-9.77866 9.02548,-5.43188 9.25222,-4.21378 0.8369,4.49586 -6.39621,6.61991 -6.61004,6.74648 -8.924819,5.2828 z M 165.451,235.95632 c -9.17982,-10.01817 -8.07575,-10.60091 3.68352,-1.94423 4.03671,2.97166 6.22789,5.28911 6.22789,6.58678 0,3.84515 -3.73862,2.09396 -9.91141,-4.64255 z m -95.627532,1.58161 c -1.275705,-2.06414 2.765836,-4.77583 9.362834,-6.28205 8.908359,-2.03394 13.17611,-2.71306 13.17611,-2.09668 0,0.87251 -18.259258,9.44174 -20.118403,9.44174 -0.96996,0 -2.059203,-0.47836 -2.420541,-1.06301 z M 50.501802,235.2689 c -1.692389,-2.03921 0.741713,-4.61985 5.387386,-5.71172 2.185273,-0.5136 8.698224,-1.18684 14.473224,-1.49608 10.233055,-0.54796 10.411018,-0.52127 7,1.0498 -3.877063,1.78573 -22.541714,7.49004 -24.5076,7.49004 -0.686131,0 -1.744985,-0.59942 -2.35301,-1.33204 z m 88.063448,0.0764 c -0.57313,-0.69058 -1.36579,-2.54548 -1.76147,-4.122 l -0.71942,-2.8664 -1.34937,3.20921 c -0.74378,1.76893 -1.91557,3.02324 -2.61097,2.79487 -1.64187,-0.5392 -2.20438,-5.50298 -0.92613,-8.17244 0.54981,-1.1482 1.46334,-3.55014 2.03007,-5.33764 1.54606,-4.8764 -0.90438,-4.18899 -3.36523,0.94403 -2.62151,5.46815 -5.30242,8.80597 -7.0729,8.80597 -3.24411,0 -0.88966,-4.47758 6.44141,-12.25 5.1611,-5.4718 2.8332,-4.58348 -4.58597,1.75 -6.1036,5.21042 -8.17534,6.27419 -9.54729,4.90223 -1.40124,-1.40123 0.93098,-3.64503 7.92438,-7.62398 4.09925,-2.3323 6.98102,-4.39793 6.40394,-4.59029 -0.57709,-0.19236 -4.47541,1.03363 -8.66294,2.72442 -7.91956,3.19766 -9.40095,3.21758 -9.40095,0.12643 0,-2.28749 4.57549,-4.01249 10.89922,-4.1091 3.687,-0.0563 10.10855,-1.54006 8.10078,-1.87174 -0.275,-0.0454 -4.46385,-0.29178 -9.30855,-0.54745 -9.83961,-0.51923 -10.69145,-0.80363 -10.69145,-3.5695 0,-2.62666 4.17023,-2.57145 12.06204,0.15967 3.3385,1.15536 6.33826,1.83239 6.66614,1.50451 0.32787,-0.32787 -0.80625,-1.08501 -2.52027,-1.68253 -9.59416,-3.34454 -14.8732,-7.65734 -12.40008,-10.13046 1.49883,-1.49883 3.50787,-0.44216 10.6455,5.5991 2.5286,2.1402 4.86754,3.6212 5.19763,3.2911 0.3301,-0.3301 -0.87331,-1.84003 -2.67425,-3.35542 -7.53139,-6.33725 -10.74106,-13.86343 -5.59943,-13.12982 1.4843,0.21178 3.05624,2.19881 5.22662,6.60677 1.70715,3.46715 3.61965,6.81965 4.25,7.45 1.89512,1.89512 1.39771,-1.34152 -0.89018,-5.79246 -1.39704,-2.71785 -1.99584,-5.68802 -1.90746,-9.46144 0.079,-3.37084 -0.69621,-7.82272 -2.00235,-11.5 -2.48323,-6.99118 -2.43529,-13.81571 0.10042,-14.29627 2.18205,-0.41354 3.9945,5.0828 4.05944,12.31047 0.0344,3.82971 0.4446,5.4858 1.35875,5.4858 0.72019,0 1.57541,-0.43035 1.90049,-0.95633 0.32507,-0.52598 1.32975,-0.67285 2.23262,-0.32639 1.29883,0.49841 1.48432,0.2283 0.88835,-1.29367 -2.59963,-6.63894 -2.51595,-17.28295 0.14284,-18.16922 1.22217,-0.40739 3.16269,2.62754 3.80174,5.94581 0.21929,1.13873 0.56101,2.23271 0.75937,2.43107 0.43261,0.4326 3.28197,-2.38344 5.10342,-5.04375 2.35601,-3.44105 4.59865,-1.30451 4.59865,4.3811 0,5.91124 0.99068,6.37116 3.29861,1.53138 0.91797,-1.925 2.38707,-3.5 3.26467,-3.5 2.95392,0 0.1633,8.30327 -4.84222,14.40768 l -2.38426,2.90769 0.0816,-3.55836 c 0.0449,-1.95709 0.4191,-3.35149 0.8316,-3.09867 0.4125,0.25283 0.75,0.01 0.75,-0.54031 0,-2.27448 -1.96814,-1.94461 -4.19621,0.70331 -2.0062,2.38423 -2.96141,2.75866 -6.10225,2.39198 -3.28984,-0.38407 -3.64552,-0.21791 -3.05253,1.42598 0.36916,1.02338 1.49915,2.66573 2.51109,3.64966 2.43604,2.36858 2.35497,3.1869 -1.1601,11.71104 -3.16897,7.68482 -3.49058,9 -2.20089,9 0.43951,0 1.32919,-1.4625 1.97706,-3.25 2.19356,-6.05207 8.2679,-14.75 10.30091,-14.75 1.49952,0 1.92292,0.70973 1.92292,3.22336 0,2.64478 -1.09584,4.26612 -6.10514,9.03282 -5.68103,5.40589 -6.06121,6.0436 -5.4728,9.18009 0.57373,3.05821 3.08111,5.3939 4.38773,4.08728 0.28795,-0.28795 -0.11396,-0.55517 -0.89312,-0.59383 -0.83669,-0.0415 -0.59788,-0.42213 0.58333,-0.92971 2.32539,-0.99926 14.59557,-1.28429 16.91821,-0.39301 2.42505,0.93057 1.87966,3.28013 -0.92478,3.98401 -2.2587,0.56689 -4.40615,0.35832 -12.49343,-1.21342 -1.375,-0.26724 0.79775,1.10177 4.82834,3.04223 5.58683,2.6897 7.24057,3.95017 6.95901,5.30414 -0.55844,2.68546 -3.94341,1.83999 -11.34268,-2.83307 -3.5965,-2.27139 -6.74686,-3.92203 -7.00081,-3.66808 -0.25395,0.25394 2.26676,2.83488 5.60157,5.73541 4.32408,3.76097 5.97598,5.86335 5.75893,7.3294 -0.39442,2.66401 -2.16826,3.20562 -4.11686,1.25702 -2.3492,-2.34919 -2.84183,-1.88422 -2.11402,1.99536 0.49946,2.66232 0.22434,4.02593 -1.10967,5.5 -2.00989,2.22091 -5.7049,2.57937 -7.26097,0.70441 z m 6.1037,-13.82129 c -1.98892,-3.38746 -4.30654,-5.68051 -4.30654,-4.26082 0,0.84137 5.12138,7.30412 5.80654,7.32735 0.16859,0.006 -0.50641,-1.3742 -1.5,-3.06648 z m -6.66273,-2.40896 c -0.90402,-2.35579 -2.64381,-0.86913 -2.64381,2.25919 0,2.45884 0.12109,2.53419 1.63674,1.01853 0.9243,-0.9243 1.36266,-2.35101 1.00707,-3.27767 z m -2.64381,-20.01411 c 0,-1.375 0.0337,-2.82625 0.075,-3.225 0.0413,-0.39875 -0.40875,-0.88625 -1,-1.08333 -0.63333,-0.2111 -1.075,1.11389 -1.075,3.225 0,1.97084 0.45,3.58333 1,3.58333 0.55,0 1,-1.125 1,-2.5 z m 57.65347,35.01147 c -7.20554,-2.49554 -8.36108,-3.1372 -7.39302,-4.10525 1.16646,-1.16647 18.90877,1.33442 20.45803,2.88369 4.13978,4.13978 -2.77288,4.7861 -13.06501,1.22156 z m -18.37586,-0.25826 c -5.11086,-2.79737 -12.27761,-8.1287 -12.27761,-9.13328 0,-0.90948 12.10515,2.79562 16.07478,4.92009 1.27956,0.6848 1.93015,1.88385 1.7359,3.19931 -0.4207,2.84912 -1.73878,3.09064 -5.53307,1.01388 z m -82.277608,-0.59822 c 0,-0.73976 0.874368,-2.13631 1.943041,-3.10344 2.264096,-2.04898 15.048617,-6.89323 15.912387,-6.02945 0.32266,0.32266 0.12939,0.89968 -0.42947,1.28227 -0.55887,0.3826 -3.51173,2.60813 -6.56191,4.94563 -5.52915,4.23725 -10.864048,5.66377 -10.864048,2.90499 z m 120.499998,-1.27931 c -21.26802,-4.1719 -22.909,-5.85407 -5.0392,-5.16567 12.41858,0.4784 15.5392,1.36452 15.5392,4.41243 0,1.34754 -5.46991,1.73993 -10.5,0.75324 z M 29.827286,229.5441 c -1.227565,-1.98624 0.575152,-6.00788 3.128155,-6.97853 3.858492,-1.467 27.673657,-1.26469 27.175144,0.23085 -0.42365,1.27095 -1.108493,1.5065 -15.530673,5.34151 -10.094491,2.68425 -13.766702,3.03379 -14.772626,1.40617 z m 200.535124,-1.58054 c -3.56305,-0.52023 -13.17767,-2.41348 -15.26452,-3.00579 -3.44967,-0.97912 0.23795,-2.81633 7.76452,-3.86836 4.88698,-0.68309 18.19854,-0.76222 20.15762,-0.11983 3.29365,1.08 3.55828,3.31637 0.66202,5.59457 -2.49987,1.9664 -6.53368,2.39021 -13.31964,1.39941 z M 89.320707,226.05069 c -1.223985,-1.47481 -1.05629,-1.96871 1.379967,-4.06429 1.525296,-1.312 3.985672,-2.38937 5.467502,-2.39415 1.48183,-0.005 5.169234,-0.30379 8.194234,-0.66445 4.86923,-0.58055 5.35498,-0.47979 4.23549,0.87864 -1.34307,1.62972 -11.000484,6.22768 -15.309691,7.28904 -1.779678,0.43834 -3.004243,0.11586 -3.967502,-1.04479 z M 66.542059,225.3174 c -2.15929,-2.60178 0.490454,-4.17114 8.025612,-4.75329 4.012108,-0.30997 8.644741,-0.2678 10.294741,0.0937 l 3,0.6573 -2.997478,1.21225 c -3.100712,1.254 -14.143772,4.03275 -16.130077,4.05879 -0.620156,0.008 -1.606915,-0.56281 -2.192798,-1.26876 z m 105.320351,-1.83863 c -8.52968,-4.43241 -8.98604,-5.21231 -2.5503,-4.35835 9.42027,1.24998 13.51346,2.80533 13.86985,5.27032 0.47224,3.26631 -3.96722,2.90864 -11.31955,-0.91197 z m 21.5,0.45603 c -9.78203,-1.54076 -8.75674,-2.90335 2.87753,-3.82417 9.45685,-0.74848 13.54129,0.23532 12.47824,3.00556 -0.42678,1.11219 -2.11117,1.45058 -6.71276,1.34857 -3.37865,-0.0749 -7.26801,-0.31338 -8.64301,-0.52996 z M 47.668547,217.95633 c -0.387955,-1.01099 0.105719,-2.20405 1.281385,-3.09671 1.535479,-1.16586 4.13559,-1.32612 13.190059,-0.81297 12.141462,0.6881 16.919493,1.68908 13.791719,2.88932 -1.565905,0.6009 -21.359171,2.63485 -25.850683,2.65642 -0.979761,0.005 -2.065377,-0.73152 -2.41248,-1.63606 z m 40.693865,-0.85539 c -1.740132,-2.09673 0.227325,-4.26442 4.618149,-5.08814 4.187249,-0.78554 16.930219,0.47001 15.740609,1.55089 -1.2586,1.14357 -14.325566,5.03725 -16.904723,5.03725 -1.21503,0 -2.769346,-0.675 -3.454035,-1.5 z m 85.999998,-0.15106 c -3.025,-0.76861 -6.625,-1.66311 -8,-1.98778 -2.34661,-0.5541 -2.37728,-0.64034 -0.5,-1.40546 2.36496,-0.96387 15.02522,-1.18962 18.25,-0.32541 2.58812,0.69358 3.03177,3.85574 0.66821,4.76272 -2.09009,0.80204 -3.84433,0.62624 -10.41821,-1.04407 z m 27,0.73453 -3.5,-0.65325 3.5,-1.18184 c 4.71483,-1.59206 20.70703,-3.47614 23.0889,-2.72016 2.465,0.78235 2.45284,3.11148 -0.0232,4.4366 -2.07958,1.11296 -17.3184,1.19135 -23.06574,0.11865 z M 65.813834,211.16958 c -1.86042,-1.37895 -1.86967,-1.52934 -0.198357,-3.22487 1.810886,-1.83713 6.948576,-2.10566 14.996935,-0.78385 5.079839,0.83428 4.715508,2.02931 -1,3.28007 -9.562657,2.09265 -11.799011,2.21075 -13.798578,0.72865 z m 122.548576,0.60277 c 0,-1.50375 10.41903,-4.50187 15.97123,-4.59577 3.36502,-0.0569 4.55235,0.3262 4.79909,1.54854 0.44306,2.19484 -1.21755,2.68674 -11.75557,3.48227 -6.37234,0.48103 -9.01475,0.35352 -9.01475,-0.43504 z M 30.112412,210.52084 c -2.181683,-1.27071 -2.294297,-5.49706 -0.168213,-6.3129 4.184193,-1.60563 30.155423,1.79845 29.701495,3.89301 -0.240254,1.1086 -14.974642,3.29685 -22.783282,3.38362 -2.75,0.0306 -5.7875,-0.40311 -6.75,-0.96373 z m 57,-1.47524 c -1.381753,-1.43331 -0.768884,-4.36418 1.124473,-5.37747 2.04042,-1.092 10.189531,-0.069 15.999305,2.00839 2.91221,1.04132 3.13486,1.34009 1.62738,2.18372 -2.21761,1.24102 -17.750862,2.22297 -18.751158,1.18536 z m 77.832748,-0.31076 c -0.74405,-1.2039 13.3687,-4.36088 17.65092,-3.94847 2.4948,0.24028 3.26633,0.78699 3.26633,2.31458 0,1.85027 -0.76137,2.02127 -10.16991,2.2841 -5.59345,0.15625 -10.42975,-0.13634 -10.74734,-0.65021 z m 46.01251,0.0202 c -0.41637,-0.6737 2.05674,-1.84999 6.62003,-3.14869 4.00659,-1.14026 8.63471,-2.47913 10.28471,-2.97527 6.31766,-1.89964 11.94333,-2.19791 13.91248,-0.73763 2.45923,1.8237 1.5133,4.39792 -2.13685,5.81518 -3.96675,1.54017 -27.83696,2.41109 -28.68037,1.04641 z m -67.04526,-2.9818 c 1.50484,-1.31112 15.3153,-7.1723 16.89978,-7.1723 0.7877,0 1.73699,0.49318 2.10953,1.09596 1.28797,2.08398 -2.43187,4.18168 -9.73128,5.48769 -8.84234,1.58208 -10.54201,1.68991 -9.27803,0.58865 z m 53.95,-2.4323 c 3.51985,-2.45808 18.4233,-7.97703 22.90562,-8.48225 5.16761,-0.58247 6.76403,1.01706 3.88676,3.89432 -1.90305,1.90304 -11.97888,4.21455 -23.79238,5.45824 -4.49138,0.47284 -4.79655,0.38431 -3,-0.87031 z m -53.60027,-1.55265 c 1.71712,-3.20847 9.99115,-10.18735 12.07793,-10.18735 2.98988,0 2.55205,3.4906 -0.72766,5.80132 -2.90589,2.04734 -10.7719,6.19868 -11.74535,6.19868 -0.31626,0 -0.13847,-0.81569 0.39508,-1.81265 z m 22.10027,1.40153 c 0,-1.05838 11.18526,-5.61528 14.37826,-5.85773 3.55487,-0.26993 4.88064,2.5346 1.93207,4.08709 -2.13702,1.12519 -16.31033,2.66384 -16.31033,1.77064 z M 51.865252,200.60989 c -1.162646,-3.66317 0.296872,-4.31935 8.133894,-3.65688 9.460974,0.79974 21.544369,3.54588 20.81256,4.72997 -0.31203,0.50488 -6.810446,0.91796 -14.440923,0.91796 -12.974553,0 -13.914547,-0.12903 -14.505531,-1.99105 z m 49.997158,1.47544 c -0.55,-0.19674 -3.588895,-0.86841 -6.753103,-1.49259 -4.029019,-0.79479 -6.082793,-1.75091 -6.853245,-3.19052 -1.424876,-2.6624 0.446552,-4.05051 4.60635,-3.4167 4.020532,0.61259 16.499998,6.3799 16.499998,7.62538 0,0.92819 -5.29511,1.26315 -7.5,0.47443 z m 92,-6.48439 c 9.00354,-4.37149 14.5,-5.17018 14.5,-2.10699 0,1.04116 -0.70329,2.16289 -1.56286,2.49274 -3.53846,1.35783 -14.78,3.61028 -17.74919,3.55637 -2.80225,-0.0509 -2.22005,-0.52783 4.81205,-3.94212 z m -28.5,0.81095 c 0,-1.00964 11.34143,-6.49546 14.46375,-6.99609 3.58022,-0.57404 3.07747,3.06106 -0.63808,4.61351 -4.62783,1.93363 -13.82567,3.51869 -13.82567,2.38258 z m -95.164854,-0.48388 c -1.91853,-0.50811 -3.138955,-3.02648 -2.20163,-4.5431 0.908327,-1.4697 10.128461,-0.34199 14.586994,1.78414 2.031609,0.96881 3.461551,2.13731 3.177647,2.59668 -0.52332,0.84675 -12.506771,0.97171 -15.563011,0.16228 z m 28.70638,-2.79291 c -7.075261,-1.89899 -11.033548,-7.42219 -6.016105,-8.39457 2.097442,-0.40648 10.644369,3.7958 15.056489,7.40285 l 2.91809,2.38563 -3.5,-0.0315 c -1.925,-0.0173 -5.73131,-0.63041 -8.458474,-1.36238 z m -64.67295,-2.04401 c -1.447285,-0.78637 -2.89275,-2.11077 -3.212146,-2.9431 -0.333237,-0.8684 -1.236101,-1.26184 -2.118574,-0.9232 -3.397338,1.30368 -1.253247,-0.53738 2.898721,-2.48903 4.417716,-2.07657 4.467664,-2.07744 11.75,-0.20273 9.567694,2.46302 18.813425,5.97181 18.813425,7.13976 0,1.58427 -25.100298,1.06525 -28.131426,-0.5817 z M 165.98819,188.7843 c 5.83152,-5.27865 11.01165,-7.94593 12.51403,-6.44355 1.80493,1.80493 -0.54729,3.97162 -7.9612,7.33324 -8.48879,3.84901 -9.55721,3.64022 -4.55283,-0.88969 z m 47.37422,1.79237 c 4.07048,-3.22349 20.92767,-10.97573 23.86666,-10.97573 1.03865,0 2.49143,0.72654 3.2284,1.61454 1.15365,1.39007 0.95992,1.94142 -1.3935,3.96575 -2.75557,2.37024 -4.05822,2.79679 -17.70156,5.7964 -9.81533,2.15799 -11.14704,2.09124 -8,-0.40096 z M 105.8415,186.96529 c -4.3885,-2.54961 -8.147838,-4.78086 -8.354088,-4.95834 -0.574118,-0.49401 -0.445657,-5.41869 0.15707,-6.02141 1.09406,-1.09405 7.128588,2.96705 11.595528,7.80354 8.5478,9.25496 7.97919,9.78637 -3.39851,3.17621 z m 87.7277,3.49059 c 0.42474,-1.29791 19.1444,-11.16135 23.29321,-12.27327 2.8447,-0.7624 4.83861,0.77611 4.08462,3.15171 -0.73389,2.3123 -4.97645,4.22556 -16.08462,7.25365 -4.4,1.19944 -8.84074,2.41526 -9.86831,2.70182 -1.26807,0.35363 -1.72586,0.0857 -1.4249,-0.83391 z m -34.10615,-4.04299 c 1.83398,-3.42682 10.02336,-11.81195 11.5362,-11.81195 2.51296,0 1.39646,3.76432 -1.97134,6.64641 -7.56339,6.47258 -8.72651,7.35359 -9.70829,7.35359 -0.65974,0 -0.60839,-0.78326 0.14343,-2.18805 z m 27.89936,1.31049 c 0,-0.48265 0.675,-1.43774 1.5,-2.12244 0.825,-0.68469 1.53553,-1.97729 1.57895,-2.87244 0.049,-1.00998 0.26821,-1.15961 0.57774,-0.39434 0.35233,0.87111 1.57185,0.50407 4.15319,-1.25 4.05165,-2.75317 8.19012,-3.2844 8.19012,-1.05131 0,1.95238 -4.48807,4.92991 -10.42814,6.91838 -5.75783,1.92745 -5.57186,1.90168 -5.57186,0.77215 z m -119.999998,-1.2501 c -6.219843,-1.01085 -13.16736,-3.5251 -14.154558,-5.12242 -2.270042,-3.673 3.125202,-3.84615 12.751801,-0.40924 4.839699,1.72788 12.402757,5.49616 12.402757,6.17964 0,0.67134 -4.520701,0.40503 -11,-0.64798 z m 10.60048,-2.2735 c -5.971524,-1.41817 -8.96029,-4.80072 -5.756726,-6.51522 1.593065,-0.85258 3.151125,-0.45674 7.822757,1.98746 3.208419,1.67864 6.492418,3.69937 7.297775,4.4905 1.27939,1.25679 1.089984,1.42342 -1.5,1.31963 -1.630357,-0.0653 -5.16907,-0.64241 -7.863806,-1.28237 z m 35.399518,-2.33797 c -1.925,-1.47907 -4.51195,-3.83035 -5.74878,-5.22505 -3.91554,-4.41532 -2.27001,-10.17278 1.84349,-6.45011 2.47956,2.24398 8.17555,12.1119 7.73496,13.40032 -0.18132,0.53024 -1.90467,-0.24608 -3.82967,-1.72516 z m 5.0661,-4.85444 c -5.45004,-8.38541 -5.88475,-9.96779 -3.56181,-12.9653 1.46646,-1.89231 1.56317,-1.87014 3.84524,0.88121 2.22312,2.68026 6.4583,18.20317 5.28623,19.37523 -0.27695,0.27696 -2.7833,-3.00406 -5.56966,-7.29114 z m 36.9339,6.07109 c 0,-2.57596 5.56642,-11.77899 8.04253,-13.29681 5.32417,-3.26363 3.43626,2.75875 -3.03297,9.67508 -3.36109,3.59339 -5.00956,4.78517 -5.00956,3.62173 z m 39,-8.54163 c 9.30977,-8.4642 18.61474,-12.98631 20.48723,-9.95656 1.27951,2.0703 -1.6808,4.86088 -8.88114,8.37193 -4.11551,2.00681 -8.07301,3.66305 -8.79442,3.68054 -0.72142,0.0175 -2.18518,0.6925 -3.2528,1.5 -1.06762,0.80751 -2.64262,1.45388 -3.5,1.43637 -0.90842,-0.0185 0.73603,-2.11829 3.94113,-5.03228 z m -14,3.15843 c 0,-1.19278 8.77318,-8.92567 12.04735,-10.61879 2.84649,-1.47199 3.95265,-1.09952 3.95265,1.3309 0,1.71725 -2.01668,3.44869 -7.28406,6.25381 -5.38533,2.8679 -8.71594,4.02732 -8.71594,3.03408 z m 27,0.11742 c 0,-0.79711 3.65573,-4.21173 4.50912,-4.21173 0.26744,0 2.62479,-1.52114 5.23857,-3.38031 5.72291,-4.0707 12.59011,-7.6197 14.74386,-7.6197 4.9304,0 1.24506,6.76144 -4.765,8.74226 -1.7746,0.58488 -6.93905,2.45241 -11.47655,4.15007 -4.5375,1.69766 -8.25,2.74139 -8.25,2.31941 z M 61.362412,175.54796 c -3.025,-0.9981 -6.106992,-1.84449 -6.848871,-1.88087 -1.375323,-0.0674 -6.084256,-1.96464 -11.880132,-4.78641 -5.797772,-2.82269 -5.528506,-7.90777 0.368066,-6.95089 5.087457,0.82558 25.839272,13.57126 24.360937,14.96238 -0.275,0.25878 -2.975,-0.34612 -6,-1.34421 z m 13.949564,-1.82283 c -10.440101,-3.75324 -14.949564,-6.68093 -14.949564,-9.70575 0,-4.54525 5.682483,-2.64944 17.422611,5.81265 5.382225,3.87941 8.047385,6.89514 5.910722,6.68821 -0.458333,-0.0444 -4.231029,-1.30219 -8.383769,-2.79511 z m 10.233229,-0.26273 c -6.641665,-3.28755 -9.286814,-8.86146 -4.205283,-8.86146 1.972752,0 9.578138,6.30644 11.155242,9.25 1.322971,2.46924 -1.494765,2.31171 -6.949959,-0.38854 z m 93.817205,-1.30597 c 0,-0.86718 12.87487,-15.57888 15.66514,-17.90006 4.97576,-4.13927 7.36694,-5.05192 8.98827,-3.43059 2.27929,2.27929 0.72508,4.27082 -8.99369,11.52436 -12.08723,9.02122 -15.65972,11.25836 -15.65972,9.80629 z m -6,-1.92907 c 0,-1.44277 7.20167,-11.65427 9.21246,-13.06267 4.31894,-3.02511 6.03637,-1.34497 3.71999,3.6392 -1.5499,3.33495 -12.93245,11.62905 -12.93245,9.42347 z m -77.786172,-5.8032 c -2.357395,-1.6522 -4.994373,-4.08485 -5.859951,-5.40588 -1.654106,-2.5245 -1.243153,-5.41734 0.769576,-5.41734 1.518035,0 7.831348,6.71847 10.183087,10.83658 2.32043,4.06331 0.71799,4.0591 -5.092712,-0.0134 z M 84.20025,161.81408 c -9.966975,-7.05113 -12.837838,-9.89582 -12.837838,-12.72085 0,-4.08434 3.415389,-3.03825 9.228261,2.8265 5.581654,5.63147 12.450171,14.70636 11.083875,14.64435 -0.446675,-0.0203 -3.810109,-2.15778 -7.474298,-4.75 z m 117.16216,2.25744 c 0,-1.24405 8.39115,-11.00064 11.79141,-13.71015 7.32291,-5.8353 11.20859,-6.84893 11.20859,-2.92391 0,3.23176 -3.05712,6.08043 -12.47137,11.62102 -9.28667,5.46548 -10.52863,6.05683 -10.52863,5.01304 z m -70.76345,-3.47058 c -2.96003,-9.40222 -4.52034,-18.29037 -3.64539,-20.76553 1.2185,-3.44703 3.00238,-3.85987 4.51648,-1.04523 1.41786,2.63575 2.1014,18.39905 0.97784,22.55047 l -0.74706,2.76029 z m 33.22052,0.75 c 0.65851,-3.11669 0.56246,-3.17165 -2.83628,-1.62308 -1.36032,0.6198 -3.65682,0.82987 -5.10335,0.46681 -2.50755,-0.62935 -2.5983,-0.87976 -1.94867,-5.37691 1.40711,-9.74088 4.91833,-17.21682 8.08622,-17.21682 1.60409,0 1.79244,4.29546 0.30983,7.06575 -0.79453,1.48457 -0.70944,1.93425 0.36601,1.93425 0.79953,0 2.32114,-2.52305 3.54366,-5.87591 4.56352,-12.51591 11.04138,-15.17912 11.11186,-4.56837 0.0181,2.72085 -4.13976,8.25123 -7.94167,10.56331 -1.67458,1.01837 -3.04468,2.61738 -3.04468,3.55336 0,1.34954 0.60862,1.1187 2.9403,-1.1152 1.81526,-1.73912 3.54871,-2.58351 4.53039,-2.20681 1.41884,0.54446 1.37779,1.01615 -0.38121,4.3799 -1.08421,2.07334 -3.82578,5.79472 -6.09237,8.26972 -3.82772,4.17969 -4.07971,4.30425 -3.54004,1.75 z m -57.96429,-4 c -4.89464,-5.6789 -6.572081,-9.0069 -5.44822,-10.80913 1.37172,-2.19972 4.01632,-0.097 7.09395,5.64037 5.35811,9.9887 4.58942,12.40296 -1.64573,5.16876 z m -42.992778,-2.13525 c -11.131296,-5.94897 -14.23765,-9.30567 -11.315681,-12.22764 1.553718,-1.55371 1.973336,-1.48476 6.263177,1.02926 4.864033,2.85051 17.552504,14.19859 17.552504,15.69829 0,1.72444 -2.614637,0.78319 -12.5,-4.49991 z m 111.499998,4.49836 c 0,-1.48426 4.74379,-10.33754 8.76772,-16.36311 1.92615,-2.88428 3.16856,-3.75 5.3817,-3.75 h 2.87742 l -1.55027,3.75 c -1.66852,4.03605 -15.47657,18.63505 -15.47657,16.36311 z m -76.561096,-3.96281 c -5.405048,-4.8583 -13.438902,-14.85397 -13.438902,-16.72059 0,-2.36074 2.882968,-2.84559 5.082759,-0.85481 2.177685,1.97078 13.401929,20.28419 12.790469,20.86885 -0.20528,0.19628 -2.20072,-1.28578 -4.434326,-3.29345 z m 21.821836,2.62387 c -3.13596,-3.90107 -6.97211,-12.8332 -6.52225,-15.18648 0.52778,-2.76094 2.39957,-3.39045 3.97743,-1.33769 1.06111,1.38049 4.56107,16.80634 3.95149,17.41593 -0.21033,0.21032 -0.84333,-0.19097 -1.40667,-0.89176 z m 23.40687,-4.19799 c -0.83403,-2.17345 -0.87462,-10.87315 -0.0606,-12.99439 0.33384,-0.86998 1.45884,-1.58179 2.5,-1.58179 2.42124,0 2.41947,3.48297 -0.006,10.90797 -1.27989,3.91883 -1.95008,4.92891 -2.43385,3.66821 z m -35.19748,-7.7127 c -5.95361,-9.58105 -8.448082,-15.23177 -7.80669,-17.68446 0.63154,-2.41502 2.55537,-2.85229 4.08737,-0.92902 1.55871,1.95681 8.51388,22.45594 8.07045,23.78623 -0.2183,0.65489 -2.17631,-1.67285 -4.35113,-5.17275 z m 15.30822,4.52788 c -1.33108,-2.04487 -5.77298,-17.0712 -6.35707,-21.50505 -0.40912,-3.10568 -0.13488,-4.97022 0.93933,-6.38631 2.49152,-3.28446 4.45874,-0.16439 5.69164,9.02712 1.1286,8.41397 0.94958,20.74382 -0.2739,18.86424 z m 68.22165,0.0573 c 0,-2.85926 11.99633,-19.34427 15.37533,-21.12834 1.26423,-0.66749 2.81193,-0.82263 3.56481,-0.35733 2.29956,1.4212 0.20542,6.25297 -4.68645,10.81298 -4.92181,4.58792 -14.25369,11.57532 -14.25369,10.67269 z m -55.60343,-13.26899 c -0.67723,-9.00922 -0.60109,-12.20271 0.31122,-13.05343 3.78267,-3.5273 5.00803,1.41009 3.43699,13.84878 -0.65834,5.21245 -1.56928,9.84947 -2.02431,10.3045 -0.45503,0.45502 -1.23078,-4.53991 -1.7239,-11.09985 z m -55.420122,7.99722 C 73.437541,141.1919 66.373957,135.21266 65.82889,133.49531 c -0.335759,-1.05789 -0.986106,-1.69127 -1.445216,-1.40753 -1.351892,0.83552 0.06733,-3.31549 1.555956,-4.55094 1.691168,-1.40354 4.76566,0.84097 10.260782,7.49083 4.278196,5.17721 8.724921,12.61231 7.475985,12.50016 -0.447692,-0.0402 -1.949584,-0.82771 -3.337539,-1.75 z m 70.733622,-4.92691 c 0.64117,-9.02107 1.87328,-13.56296 4.26695,-15.7292 1.62497,-1.47057 2.26122,-1.56796 3.50422,-0.53636 0.83532,0.69325 1.51876,1.84649 1.51876,2.56275 0,1.89907 -8.21619,20.45281 -9.05716,20.45281 -0.39189,0 -0.49664,-3.0375 -0.23277,-6.75 z m 26.79813,0.25 c 0.35945,-1.1 1.32448,-3.95516 2.14452,-6.34482 0.82004,-2.38965 1.34614,-4.41465 1.16913,-4.5 -3.5577,-1.71536 -4.30755,-2.72459 -4.16724,-5.60872 0.26995,-5.54899 6.27418,-10.20926 9.49611,-7.37055 1.10754,0.9758 1.86734,1.10389 2.30902,0.38924 0.93656,-1.51539 5.50466,-1.32149 6.11131,0.25941 1.02189,2.66301 -3.57474,10.35803 -10.55844,17.67544 -3.93688,4.125 -6.86386,6.6 -6.50441,5.5 z m -81.772588,-2.25 c -4.680539,-5.20269 -15.73561,-20.89068 -15.73561,-22.33003 0,-0.92129 0.69127,-2.24878 1.536156,-2.94997 1.285854,-1.06717 2.027967,-0.80371 4.554509,1.61687 3.430891,3.287 7.924879,11.16601 10.891848,19.09594 1.109618,2.96572 2.017487,5.60034 2.017487,5.85471 0,1.0533 -1.795651,0.34507 -3.26439,-1.28752 z m 11.630398,-12.00098 c -2.27369,-4.26196 -4.72358,-10.12055 -5.44419,-13.0191 -1.1654,-4.68762 -1.12641,-5.4539 0.35285,-6.93316 1.55076,-1.55076 1.79233,-1.5461 3.57704,0.0691 2.49038,2.25376 4.59879,8.35646 6.01244,17.40276 2.02913,12.98489 1.31571,13.3783 -4.49814,2.48045 z m 56.06698,6.75098 c 0.23565,-0.825 0.64711,-3.75 0.91436,-6.5 0.63609,-6.54554 4.45816,-16.32554 6.88838,-17.62616 5.41178,-2.89629 6.33076,3.42146 1.74352,11.98619 -3.02299,5.64414 -10.35363,14.96652 -9.54626,12.13997 z m -37.76829,-8.25 c -4.43402,-12.34893 -4.504,-22.44647 -0.1671,-24.1107 1.55422,-0.59641 3.98064,1.92574 4.96863,5.16466 0.86462,2.83447 -0.43809,26.19604 -1.46077,26.19604 -0.40566,0 -1.909,-3.2625 -3.34076,-7.25 z m 18.97715,2.5 c -1.167,-7.06034 -0.70352,-18.23007 0.88383,-21.29965 2.82781,-5.46839 7.47432,-2.90544 7.47432,4.12272 0,3.27775 -6.00017,20.91042 -7.11916,20.92105 -0.34053,0.003 -0.89808,-1.68162 -1.23899,-3.74412 z m 38.15744,-16.79115 c -0.96371,-2.11513 -0.79671,-3.28445 0.9961,-6.97459 4.47881,-9.218745 12.92427,-5.767707 9.28836,3.79547 -2.26259,5.95105 -8.18705,7.78241 -10.28446,3.17912 z m 5.52584,-17.708845 c -1.29894,-2.047768 -0.27659,-12.090494 1.4252,-14 3.09627,-3.474176 7.12948,-1.44925 7.71369,3.872757 0.16411,1.495043 -0.36545,4.666531 -1.17682,7.047752 -1.27664,3.746724 -1.85842,4.329491 -4.32219,4.329491 -1.56583,0 -3.20378,-0.5625 -3.63988,-1.25 z m 1.5275,-19.419562 c -1.98272,-0.526627 -2.82067,-3.288731 -2.83898,-9.357932 -0.0173,-5.743911 2.1445,-8.972506 6.00787,-8.972506 3.93999,0 4.78318,2.149182 4.04228,10.303275 -0.72642,7.994635 -1.99925,9.411501 -7.21117,8.027163 z"
           id="path739"
           inkscape:connector-curvature="0" />
        <path
           style="fill:#00ffff"
           d="m 110.36241,327.22338 c 0,-0.20765 0.7875,-0.99515 1.75,-1.75 1.58606,-1.24387 1.62143,-1.2085 0.37756,0.37757 -1.30637,1.66575 -2.12756,2.19547 -2.12756,1.37243 z m 3,-4 c 0,-0.20765 0.7875,-0.99515 1.75,-1.75 1.58606,-1.24387 1.62143,-1.2085 0.37756,0.37757 -1.30637,1.66575 -2.12756,2.19547 -2.12756,1.37243 z m 11.2,-5.82243 c -1.82031,-1.82031 -1.43108,-6.90873 0.8096,-10.58382 1.10117,-1.80608 2.88858,-6.48268 3.97202,-10.39242 2.92417,-10.55221 3.73831,-10.62879 4.68965,-0.4411 0.53347,5.71276 0.40508,6.58386 -0.89674,6.08431 -2.01565,-0.77348 -8.77453,7.10996 -8.77453,10.23447 0,1.51918 0.86693,2.73644 2.46864,3.46622 1.35776,0.61863 2.2312,1.50899 1.94099,1.97857 -0.75531,1.22211 -2.81031,1.05309 -4.20963,-0.34623 z m -15,-4 c -1.81113,-1.81113 -1.40568,-4.44574 2.1924,-14.24615 3.98559,-10.85588 5.82243,-12.2296 5.20433,-3.89211 -0.23806,3.21103 -0.46971,7.8909 -0.51478,10.3997 -0.0561,3.12441 -0.7243,5.25092 -2.12091,6.75 -2.33561,2.50698 -3.08667,2.66293 -4.76104,0.98856 z m 25.08601,-5.3 c 0.008,-2.75 0.20172,-3.75632 0.43157,-2.23625 0.22986,1.52006 0.22371,3.77006 -0.0136,5 -0.23736,1.22994 -0.42542,-0.0138 -0.41792,-2.76375 z m 14.20776,2.49311 c -3.15377,-3.48487 -2.00427,-16.99311 1.44605,-16.99311 0.96422,0 4.06018,10.10802 4.06018,13.2561 0,5.78677 -2.26194,7.32191 -5.50623,3.73701 z M 89.331023,305.5423 c -0.605967,-1.13227 -0.827717,-3.30635 -0.492779,-4.83132 0.616439,-2.80663 11.428216,-16.53933 12.319626,-15.64792 0.50158,0.50158 -2.074822,10.79275 -4.015093,16.03789 -2.310462,6.24587 -5.787897,8.22296 -7.811754,4.44135 z m 82.786307,0.82213 c -0.91532,-0.69491 -2.51616,-3.28849 -3.55742,-5.76348 -2.10291,-4.99844 -4.75771,-17.77312 -3.87666,-18.65418 0.62545,-0.62545 6.18443,7.75982 9.59798,14.47778 2.21672,4.36255 2.50825,10.21899 0.54074,10.86286 -0.57224,0.18728 -1.78933,-0.22807 -2.70464,-0.92298 z m -35.88248,-9.51348 c -1.24387,-1.58607 -1.2085,-1.62144 0.37756,-0.37757 0.9625,0.75486 1.75,1.54235 1.75,1.75 0,0.82304 -0.82119,0.29332 -2.12756,-1.37243 z m -12.20577,-0.91667 c -1.92527,-1.92527 0.82547,-20.35542 3.15145,-21.11498 1.05953,-0.346 1.19143,1.50313 0.67236,9.42561 -0.35516,5.42081 -0.82169,10.41854 -1.03673,11.10604 -0.42634,1.36304 -1.73373,1.63668 -2.78708,0.58333 z m 68.28566,-3.04041 c -3.28364,-3.73985 -10.45761,-18.12098 -9.51153,-19.06706 0.49079,-0.4908 6.93807,4.7616 14.8092,12.06455 2.0625,1.91364 3.75,4.39432 3.75,5.51266 0,6.30629 -4.21008,6.99955 -9.04767,1.48985 z m -119.952328,0.64134 c 0,-3.08123 1.596449,-5.5211 6.676399,-10.20362 5.410053,-4.98683 8.290654,-7.09693 8.881602,-6.50597 0.719877,0.71986 -4.612185,11.0426 -7.761123,15.02533 -3.405703,4.30746 -7.796878,5.25603 -7.796878,1.68426 z m 32.235208,-0.0991 c -1.29828,-1.29827 -0.45503,-7.74707 1.28608,-9.8352 0.68789,-0.825 2.41845,-3.83065 3.84569,-6.67923 2.83033,-5.64894 4.6414,-7.46454 4.61824,-4.62979 -0.0204,2.49585 -2.77339,14.20169 -4.13854,17.59724 -1.34772,3.35218 -4.07952,5.07894 -5.61147,3.54698 z m 30.85998,-0.83515 c -0.0174,-0.825 0.62911,-2.37351 1.43661,-3.44113 0.98245,-1.29892 1.4682,-4.3788 1.4682,-9.30903 0,-8.11953 1.12854,-8.76781 2.9147,-1.67431 0.84921,3.37252 1.55311,4.45893 2.623,4.04838 2.40122,-0.92144 1.69357,0.17235 -2.65075,4.09719 -2.26218,2.04374 -4.48366,4.63007 -4.93662,5.7474 -0.51222,1.26351 -0.8355,1.46444 -0.85514,0.5315 z m 21.63125,-3.41643 c -0.817,-0.81698 -1.80597,-3.19398 -2.19773,-5.28222 -0.39175,-2.08823 -1.23347,-4.16478 -1.87049,-4.61456 -0.66253,-0.4678 -0.22703,-0.55702 1.01756,-0.20847 1.44586,0.40492 2.48046,0.0649 3.08397,-1.0135 0.72824,-1.3013 1.23828,-0.7585 2.57422,2.7396 2.03045,5.31666 2.08925,7.19945 0.27198,8.70765 -1.07197,0.88965 -1.73726,0.81376 -2.87951,-0.3285 z m -66.503932,-2.14028 c -1.222378,-0.85618 -2.222506,-2.12122 -2.222506,-2.81118 0,-1.31369 18.025778,-22.93966 18.622978,-22.34246 1.46468,1.46467 -11.189228,26.71035 -13.388051,26.71035 -0.434453,0 -1.790042,-0.70053 -3.012421,-1.55671 z m -31.972506,-2.10557 c -1.861955,-0.75133 -1.51364,-3.73285 0.776164,-6.64385 1.969494,-2.50381 16.836432,-12.16462 17.578328,-11.42271 0.375958,0.37595 -8.174794,10.95583 -12.914237,15.97884 -2.624553,2.78157 -3.186374,2.99718 -5.440255,2.08772 z m 73.095398,-3.88002 c -0.63256,-1.64842 0.28557,-10.33798 1.3968,-13.21988 0.89188,-2.31308 3.3201,9.45027 2.58279,12.51218 -0.61866,2.56914 -3.09622,3.00973 -3.97959,0.7077 z m 15.30491,-1.16704 c -1.57537,-3.04642 -2.13883,-7.17971 -1.83001,-13.42404 0.13322,-2.69351 0.69255,-3.76747 2.16235,-4.15183 1.6651,-0.43544 1.82527,-0.2244 1,1.31762 -1.48568,2.77603 -1.16619,11.092 0.55278,14.38832 0.95537,1.83202 1.17117,3.27267 0.57894,3.8649 -0.59223,0.59223 -1.51071,-0.15139 -2.46406,-1.99497 z m 60.66279,-2.47516 c -10.07188,-9.38307 -14.81031,-14.8155 -12.9228,-14.8155 0.99043,0 15.61946,7.52108 19.91274,10.23755 4.25466,2.69203 4.76845,3.39429 4.5,6.15073 -0.24902,2.55703 -0.79157,3.16796 -3.04363,3.42723 -2.15318,0.24789 -3.96354,-0.8238 -8.44631,-5.00001 z m -91.3131,1.64314 c 0,-2.79706 4.05574,-12.40593 5.25,-12.43831 1.09061,-0.0296 0.91946,9.40377 -0.22525,12.41456 -1.34075,3.52645 -5.02475,3.54386 -5.02475,0.0238 z m 56.75071,0.81568 c -2.06051,-2.28029 -8.41048,-15.86381 -9.24404,-19.77432 l -0.63948,-3 2.57939,3 c 3.74603,4.35686 10.50738,15.97562 10.80124,18.56092 0.32547,2.86341 -1.44961,3.47931 -3.49711,1.2134 z M 77.352907,278.0895 c -2.42322,-2.9198 0.127813,-6.00142 12.478094,-15.0734 l 3.968589,-2.91514 -2.884635,5 c -3.473969,6.0215 -9.127175,13.12279 -11.027264,13.85192 -0.758479,0.29106 -1.899132,-0.0975 -2.534784,-0.86338 z m 27.009503,-1.00673 c 0,-1.74397 9.15416,-17.66098 9.79093,-17.02422 0.55988,0.55988 -3.00962,11.65046 -4.8414,15.04241 -1.81393,3.3589 -4.94953,4.6144 -4.94953,1.98181 z m 56.0527,-3.23181 c -2.03473,-4.41172 -3.97667,-12.68295 -3.17194,-13.51013 1.02012,-1.04859 8.11924,11.18138 8.11924,13.98737 0,3.27197 -3.36796,2.94709 -4.9473,-0.47724 z m -3.85775,-2.75 c 0.0204,-1.65001 0.2445,-2.20394 0.49804,-1.23098 0.25354,0.97297 0.23687,2.32297 -0.0371,3 -0.27393,0.67704 -0.48137,-0.11903 -0.46099,-1.76902 z m 30.94125,-1.75 c -7.76414,-8.30356 -11.53898,-13.75001 -9.5299,-13.75001 0.33346,0 4.38346,2.94944 9,6.55429 6.45034,5.03679 8.3937,7.12052 8.3937,9 0,3.81608 -3.32103,3.0541 -7.8638,-1.80428 z m -95.136198,0.36001 c 0,-1.21074 8.176098,-12.1515 10.847128,-14.51501 4.08935,-3.6185 1.86523,2.52899 -4.035795,11.155 -1.748196,2.55548 -3.685683,4.25 -4.859374,4.25 -1.073577,0 -1.951959,-0.40051 -1.951959,-0.88999 z m 82.661068,-3.10274 c -3.3272,-2.92132 -8.38917,-12.61252 -7.2059,-13.79578 0.79327,-0.79327 11.51889,9.74604 12.50574,12.2885 0.84986,2.18955 0.31943,4.5 -1.0331,4.5 -0.47202,0 -2.39205,-1.34672 -4.26674,-2.99272 z m -128.994401,1.32606 c -1.339244,-1.33925 -0.61041,-4.03756 1.668973,-6.17893 2.043511,-1.91978 17.751799,-9.15441 19.876634,-9.15441 0.433249,0 0.787726,0.43929 0.787726,0.97621 0,1.72577 -18.838832,15.0238 -21.283673,15.0238 -0.210647,0 -0.682994,-0.3 -1.04966,-0.66667 z m 18.934053,-2.17037 c -1.132253,-1.83202 2.94058,-5.4128 10.452545,-9.18975 12.800229,-6.43583 13.087267,-5.21502 0.946772,4.02675 -7.554025,5.7504 -10.274711,6.98266 -11.399317,5.163 z m 158.543988,-1.21098 c -6.06338,-2.48539 -21.42686,-13.95199 -18.6935,-13.95199 3.35371,0 20.30313,5.95379 24.17885,8.49326 5.37837,3.52405 0.8321,8.04824 -5.48535,5.45873 z m -22.2279,-2.73591 c -4.21751,-2.01986 -17.66394,-13.80228 -16.77081,-14.69541 0.33799,-0.33799 5.40012,1.71746 11.24917,4.56768 8.02371,3.90992 10.77684,5.74884 11.21387,7.4901 0.5789,2.30651 -0.1144,4.45164 -1.41806,4.38763 -0.38004,-0.0187 -2.30342,-0.80617 -4.27417,-1.75 z m -118.250141,0.11726 c -1.24533,-1.24534 -0.672969,-3.24955 1.50835,-5.28177 2.726231,-2.53987 13.94173,-9.26816 14.506998,-8.70289 0.230785,0.23079 -2.343233,3.62174 -5.72004,7.53547 -5.587403,6.4758 -8.465682,8.27882 -10.295308,6.44919 z m 101.226301,-4.58831 c -3.88382,-3.34453 -10.30651,-11.74503 -8.97978,-11.74503 2.12059,0 13.87865,8.46907 14.99011,10.79706 1.47526,3.08995 1.43424,3.20369 -1.1533,3.19797 -1.2375,-0.003 -3.42316,-1.01522 -4.85703,-2.25 z m -60.8832,-2.99503 c 0.0114,-3.80648 3.87554,-12.59198 6.48745,-14.75 1.73237,-1.43133 1.7822,-1.20535 1.08838,4.93648 -0.79645,7.05032 -2.62303,11.48017 -5.1304,12.44234 -2.41448,0.92653 -2.45598,0.88191 -2.44543,-2.62882 z m 10.98776,1.24538 c -0.78878,-1.47384 -0.66222,-4.16919 0.47797,-10.17982 0.85295,-4.49636 1.71943,-8.34382 1.92551,-8.5499 0.4921,-0.4921 2.59899,11.65517 2.59899,14.98447 0,5.60099 -2.8624,7.74403 -5.00247,3.74525 z m 10.16299,-0.54243 c -0.63829,-1.40088 -1.16052,-5.6797 -1.16052,-9.50848 0,-7.66478 -0.58919,-7.29633 6.14713,-3.84411 2.04229,1.04663 2.1186,0.92456 1.56287,-2.5 -0.32134,-1.9802 -0.2428,-3.60036 0.17453,-3.60036 0.87506,0 9.11547,14.10497 9.11547,15.60279 0,0.54847 -0.52929,1.5265 -1.17621,2.17342 -1.48991,1.48991 -3.94528,-0.29605 -3.17319,-2.30808 0.65171,-1.69833 -1.39458,-8.19187 -2.86854,-9.10283 -0.71038,-0.43903 -0.88639,0.3086 -0.52174,2.21614 l 0.5503,2.87869 -1.98872,-2.73006 c -1.09379,-1.50154 -2.88687,-2.73007 -3.98462,-2.73007 -1.84999,0 -1.94907,0.45694 -1.35525,6.25 0.35237,3.4375 0.86839,7.0375 1.14671,8 0.78001,2.69746 -1.16172,2.07043 -2.46822,-0.79705 z m -86.750017,-2.8256 c -1.534803,-3.99963 -0.05558,-5.07121 12.993945,-9.41316 7.084431,-2.35718 13.315528,-4.14088 13.846883,-3.96376 1.992551,0.66419 -17.448666,12.15427 -24.006255,14.1881 -1.56867,0.48652 -2.431333,0.23965 -2.834573,-0.81118 z m 55.950267,-0.1296 c -1.02924,-2.68214 0.57649,-5.89155 5.75252,-11.49776 4.75906,-5.15458 5.03716,-5.31159 4.42806,-2.5 -0.35746,1.65 -1.95185,5.8125 -3.54309,9.25 -2.84795,6.15229 -5.39845,7.97665 -6.63749,4.74776 z m -37.279824,-0.90023 c -0.86021,-1.03648 -0.570234,-1.87915 1.249272,-3.63037 2.632507,-2.5337 11.584359,-6.39147 12.551441,-5.409 0.717922,0.72936 -6.145821,6.85868 -10.031069,8.95778 -2.219269,1.199 -2.831287,1.21225 -3.769644,0.0816 z m 76.919054,-0.53851 c 0,-2.41457 0.55611,-2.65816 1.34934,-0.59105 0.30982,0.80739 0.13297,1.73395 -0.39301,2.05902 -0.52598,0.32508 -0.95633,-0.33551 -0.95633,-1.46797 z m -115.848391,-0.9189 c -2.378983,-1.5522 -0.772891,-4.57889 3.601627,-6.78729 4.003173,-2.02093 19.841176,-4.98803 22.282201,-4.17435 1.294298,0.43143 -18.29654,10.47093 -22.035435,11.29225 -1.375,0.30204 -3.106777,0.15327 -3.848393,-0.33061 z m 124.763201,-4.39012 c -3.98651,-5.46937 -7.22449,-11.77366 -6.44664,-12.55151 0.72711,-0.72711 10.70746,9.39265 12.42109,12.59459 0.66178,1.23654 0.93086,2.68895 0.59797,3.22759 -1.24232,2.0101 -3.56633,0.85359 -6.57242,-3.27067 z m 25.87452,-0.78733 c -3.69087,-2.21451 -6.99843,-4.49199 -7.35014,-5.06106 -0.83311,-1.348 0.45501,-2.64318 1.36518,-1.37265 0.3826,0.53408 2.18317,1.08865 4.00128,1.2324 5.05322,0.39952 13.19435,4.87628 13.19435,7.2555 0,3.12689 -3.7079,2.44748 -11.21067,-2.05419 z m -83.25821,2.08769 c -1.29719,-2.0989 9.07727,-13.05036 12.36278,-13.05036 1.77885,0 1.28633,1.1488 -3.21545,7.5 -4.09471,5.7769 -7.6675,7.94477 -9.14733,5.55036 z m 101.96888,-1.08148 c -2.2,-1.04886 -7.00778,-3.26584 -10.68395,-4.92658 -12.74298,-5.75675 -9.21282,-6.27438 9.39353,-1.37736 10.83507,2.85168 13.42479,4.23954 12.48428,6.69045 -0.85312,2.22322 -6.09999,2.04205 -11.19386,-0.38651 z m 17.95873,-1.41445 c -8.83779,-3.70994 -15.45873,-7.3452 -15.45873,-8.4877 0,-1.50618 27.45213,3.23369 29.74372,5.13554 2.11863,1.7583 1.51661,5.4947 -0.99372,6.16744 -3.65585,0.97973 -4.85669,0.72538 -13.29127,-2.81528 z M 98.381241,241.63374 c -2.210137,-1.39751 1.398233,-5.74347 8.079549,-9.73109 9.04035,-5.39555 9.25665,-4.25728 0.84527,4.44829 -6.39621,6.61991 -6.61004,6.74648 -8.924819,5.2828 z m 67.106529,-5.73503 c -3.52661,-3.68621 -5.88133,-6.8791 -5.23273,-7.09531 1.96406,-0.65469 14.57124,9.13501 14.92692,11.59102 0.59556,4.11235 -3.0973,2.39978 -9.69419,-4.49571 z m -95.625358,1.70223 c -1.557555,-2.52018 3.198386,-5.1619 12.5,-6.94321 3.575,-0.68464 7.0625,-1.41336 7.75,-1.6194 0.6875,-0.20603 1.25,-0.0134 1.25,0.42817 0,1.04227 -17.015423,9.13444 -19.207007,9.13444 -0.921227,0 -1.953074,-0.45 -2.292993,-1 z m -19.428376,-2.4137 c -0.926059,-1.11583 -0.728882,-1.8277 0.935823,-3.37861 2.491404,-2.3211 6.045921,-3.00549 19.492553,-3.75312 9.778841,-0.5437 9.922594,-0.52035 6.5,1.05573 -3.877818,1.7857 -22.542289,7.4897 -24.5076,7.4897 -0.686131,0 -1.77548,-0.63616 -2.420776,-1.4137 z m 88.151264,0.18227 c -0.58415,-0.70387 -1.38584,-2.56964 -1.78152,-4.14616 l -0.71942,-2.8664 -1.34937,3.2092 c -0.74378,1.76893 -1.91557,3.02325 -2.61097,2.79487 -1.64187,-0.5392 -2.20438,-5.50298 -0.92613,-8.17244 0.54981,-1.1482 1.46334,-3.55014 2.03007,-5.33764 1.54606,-4.8764 -0.90438,-4.18899 -3.36523,0.94403 -2.62151,5.46815 -5.30242,8.80597 -7.0729,8.80597 -3.24411,0 -0.88966,-4.47758 6.44141,-12.25 5.1611,-5.4718 2.8332,-4.58348 -4.58597,1.75 -6.1036,5.21042 -8.17534,6.27419 -9.54729,4.90223 -1.38027,-1.38026 0.86026,-3.51747 7.92518,-7.55971 4.12364,-2.35937 7.01521,-4.45052 6.42571,-4.64703 -0.5895,-0.19649 -4.49798,1.02611 -8.68551,2.71689 -7.91956,3.19767 -9.40095,3.21758 -9.40095,0.12643 0,-2.36919 4.68091,-4.03395 11.39922,-4.05412 2.80543,-0.008 5.77578,-0.45153 6.60078,-0.98469 1.86451,-1.20494 2.23541,-1.13614 -8.2245,-1.5256 -9.67982,-0.36042 -10.7755,-0.71971 -10.7755,-3.53342 0,-2.62666 4.17023,-2.57145 12.06204,0.15967 3.3385,1.15536 6.3277,1.84295 6.64267,1.52798 0.31496,-0.31496 -0.50224,-0.992 -1.81602,-1.50452 -11.24681,-4.38754 -14.61775,-6.78183 -13.53195,-9.61137 0.98935,-2.57821 3.31016,-1.70238 9.24066,3.48727 4.94088,4.32364 7.4026,5.87951 7.4026,4.67859 0,-0.17678 -2.475,-2.89725 -5.5,-6.0455 -3.70211,-3.85293 -5.5,-6.54917 -5.5,-8.24814 0,-2.04555 0.42655,-2.46347 2.25,-2.2045 1.6381,0.23265 3.09412,2.03392 5.3539,6.62345 1.70715,3.46715 3.61965,6.81965 4.25,7.44999 1.89512,1.89512 1.39771,-1.34152 -0.89018,-5.79246 -1.39704,-2.71785 -1.99584,-5.68802 -1.90746,-9.46144 0.079,-3.37084 -0.69621,-7.82272 -2.00235,-11.5 -2.47298,-6.96232 -2.43439,-13.81591 0.0805,-14.29243 2.23364,-0.42323 3.86562,4.61828 3.86562,11.94165 0,4.42753 0.35053,5.85078 1.44098,5.85078 0.79254,0 1.70695,-0.43035 2.03203,-0.95633 0.32507,-0.52598 1.32975,-0.67285 2.23262,-0.32639 1.29883,0.49841 1.48432,0.2283 0.88835,-1.29367 -2.60422,-6.65066 -2.51536,-17.28315 0.15188,-18.17223 1.32107,-0.44036 4.17815,4.69557 3.56415,6.40698 -0.22857,0.6371 -0.006,1.41121 0.49357,1.72025 0.9387,0.58014 3.30956,-1.44906 5.59777,-4.79109 2.12621,-3.10542 4.62621,-1.34591 4.44882,3.1311 -0.11945,3.01444 -0.23432,3.2237 -0.56639,1.03173 -0.35089,-2.31619 -0.70601,-2.59475 -2.25268,-1.76699 -1.00987,0.54046 -3.30719,2.84003 -5.10516,5.11015 -2.7596,3.48428 -3.08514,4.42193 -2.08901,6.01698 1.01414,1.6239 0.88939,1.88951 -0.88747,1.88951 -1.13712,0 -1.78938,0.45 -1.44946,1 0.3499,0.56615 -0.48106,1 -1.9153,1 -3.45074,0 -6.00638,4.90205 -5.15193,9.88209 1.78502,10.40382 2.113,14.2806 1.25313,14.81203 -1.33584,0.8256 -0.004,10.41619 1.6802,12.10055 0.96026,0.96026 1.2523,2.74829 0.90817,5.56037 -0.48012,3.92335 -0.42252,4.03803 1.07744,2.14496 0.87158,-1.1 1.59899,-2.7875 1.61649,-3.75 0.0433,-2.38505 1.09681,-2.174 3.90033,0.78138 1.30269,1.37326 1.7243,2.2496 0.9369,1.94745 -0.78739,-0.30215 -2.25217,0.35733 -3.25507,1.46552 -1.59479,1.76223 -1.69229,2.67577 -0.77755,7.28527 1.14191,5.75427 1.05488,6.47261 -0.54992,4.53895 z m 3.77711,0.83842 c 0,-0.21616 0.69837,-0.661 1.55194,-0.98855 0.88992,-0.34149 1.29132,-0.17385 0.94098,0.39301 -0.58726,0.95021 -2.49292,1.40545 -2.49292,0.59554 z m 50.25,-2.34782 c -3.9875,-1.41585 -7.25,-2.9843 -7.25,-3.48545 0,-1.21418 15.77192,0.11573 19,1.6021 1.375,0.63312 2.5,1.82007 2.5,2.63765 0,2.41543 -6.25558,2.0843 -14.25,-0.7543 z m -15.75,0.96895 c -2.42537,-0.45406 -13.70069,-8.33019 -14.23953,-9.9467 -0.22076,-0.66228 3.00939,0.0459 7.57721,1.66118 9.72145,3.43775 10.16232,3.70054 10.16232,6.0574 0,2.22816 -0.79534,2.73448 -3.5,2.22812 z m -84.499998,-1.57313 c 0,-0.73976 0.874368,-2.13631 1.943041,-3.10344 2.264096,-2.04898 15.048617,-6.89323 15.912387,-6.02945 0.32266,0.32266 0.12939,0.89968 -0.42947,1.28227 -0.55887,0.3826 -3.51173,2.60813 -6.56191,4.94563 -5.52915,4.23725 -10.864048,5.66377 -10.864048,2.90499 z m 54.157888,-1.65499 c 0,-1.375 0.22698,-1.9375 0.50439,-1.25 0.27741,0.6875 0.27741,1.8125 0,2.5 -0.27741,0.6875 -0.50439,0.125 -0.50439,-1.25 z m 66.34211,0.37568 c -21.32408,-4.1829 -22.99574,-5.904 -4.97865,-5.1259 12.39583,0.53534 15.47865,1.40623 15.47865,4.37266 0,1.34754 -5.46991,1.73993 -10.5,0.75324 z M 29.827286,229.5441 c -1.195284,-1.93401 0.453533,-5.58495 3.058202,-6.77171 3.587186,-1.63444 27.790802,-1.61308 27.245097,0.024 -0.42365,1.27095 -1.108493,1.50649 -15.530673,5.34151 -10.094491,2.68424 -13.766702,3.03379 -14.772626,1.40617 z m 119.962184,-1.70942 c -0.59012,-0.40356 -1.3635,-1.52124 -1.71862,-2.48374 -0.35512,-0.9625 -1.22229,-1.74311 -1.92706,-1.73469 -0.90835,0.0109 -0.84471,0.32413 0.21862,1.07613 1.33333,0.94295 1.33333,1.01071 0,0.60969 -0.825,-0.24812 -1.37126,-1.00611 -1.2139,-1.68441 0.15735,-0.67831 -0.8723,-2.75202 -2.28811,-4.60823 -2.04204,-2.67725 -2.20455,-3.23635 -0.7861,-2.70449 1.62961,0.61104 1.65515,0.49951 0.28811,-1.25827 -1.64966,-2.12118 7.95304,5.58784 9.93457,7.97543 2.24019,2.69927 0.18109,6.65122 -2.50751,4.81258 z m 78.57294,-0.24203 c -7.32007,-1.20546 -14.05487,-2.71324 -14.61319,-3.27157 -0.58229,-0.58227 6.01224,-2.96934 9.11319,-3.29875 5.96135,-0.63329 18.2888,-0.66553 20.15762,-0.0527 3.29365,1.08 3.55828,3.31637 0.66202,5.59457 -2.73353,2.1502 -6.83588,2.42561 -15.31964,1.0285 z M 89.267355,225.9864 c -1.154121,-1.39063 -0.955346,-1.94535 1.433319,-4 1.525296,-1.312 3.985672,-2.38937 5.467502,-2.39415 1.48183,-0.005 5.127194,-0.30081 8.100794,-0.65784 6.26976,-0.75278 6.31025,0.49495 0.11858,3.65371 -3.65708,1.8657 -11.818875,4.96733 -13.152693,4.99827 -0.345156,0.008 -1.230532,-0.71199 -1.967502,-1.59999 z m -22.817016,-0.77951 c -0.893272,-1.07633 -0.790941,-1.76007 0.448984,-3 1.259762,-1.25977 3.692299,-1.59732 11.284518,-1.56591 9.043081,0.0374 9.5026,0.13559 6.998513,1.49529 -2.470457,1.34145 -13.833101,4.41562 -16.447497,4.4499 -0.620156,0.008 -1.648189,-0.61254 -2.284518,-1.37928 z m 105.412071,-1.72812 c -8.515,-4.42478 -8.9202,-5.12013 -2.5,-4.29016 9.44806,1.2214 13.4625,2.73257 13.81955,5.20213 0.47224,3.26632 -3.96722,2.90864 -11.31955,-0.91197 z m 21.5,0.45603 c -9.78203,-1.54076 -8.75674,-2.90335 2.87753,-3.82417 9.45685,-0.74848 13.54129,0.23532 12.47824,3.00556 -0.42678,1.11219 -2.11117,1.45058 -6.71276,1.34857 -3.37865,-0.0749 -7.26801,-0.31338 -8.64301,-0.52996 z m -36.83794,-3.02984 c -0.73587,-0.29112 -4.43692,-2.43996 -8.22457,-4.7752 -6.52037,-4.02008 -6.76831,-4.30688 -4.66206,-5.39263 2.18729,-1.12751 2.18267,-1.13843 -0.27543,-0.65138 -2.19711,0.43534 -2.13654,0.32029 0.5,-0.94962 3.00761,-1.44865 14.94983,-2.06728 17.91821,-0.9282 2.42505,0.93058 1.87966,3.28014 -0.92478,3.98402 -2.2587,0.56689 -4.40615,0.35832 -12.49343,-1.21343 -1.375,-0.26723 0.79775,1.10178 4.82834,3.04224 5.37001,2.5853 7.2406,3.98057 7,5.22128 -0.3649,1.88172 -1.64528,2.46246 -3.66628,1.66292 z M 47.668547,217.95633 c -0.388062,-1.01127 0.105396,-2.20257 1.281385,-3.0935 1.532552,-1.16106 4.097712,-1.31967 12.91248,-0.7984 19.682871,1.16394 20.191754,2.84707 1.364628,4.5135 -14.764764,1.30686 -14.819312,1.30468 -15.558493,-0.6216 z m 40.693865,-0.85539 c -1.740132,-2.09673 0.227325,-4.26442 4.618149,-5.08814 4.187249,-0.78554 16.930219,0.47001 15.740609,1.55089 -1.2586,1.14357 -14.325566,5.03725 -16.904723,5.03725 -1.21503,0 -2.769346,-0.675 -3.454035,-1.5 z m 85.999998,-0.15106 c -11.89981,-3.02355 -10.90901,-2.57533 -7.5,-3.39286 3.81946,-0.91597 14.30855,-1.11407 17.25,-0.32579 2.58812,0.69358 3.03177,3.85574 0.66821,4.76272 -2.09009,0.80204 -3.84433,0.62624 -10.41821,-1.04407 z m 28,0.73505 -4.5,-0.61561 3.5,-1.20093 c 4.66881,-1.60196 20.68523,-3.50213 23.0889,-2.73923 2.465,0.78235 2.45284,3.11148 -0.0232,4.4366 -2.03995,1.09175 -14.46592,1.15886 -22.06574,0.11917 z M 66.112412,211.51936 c -5.999296,-3.48918 3.064044,-6.20926 14.5,-4.35173 5.081069,0.82531 4.715299,2.02259 -1,3.2733 -8.482867,1.85636 -11.718063,2.1148 -13.5,1.07843 z m 122.249998,0.22779 c 0,-1.4832 10.4628,-4.47741 15.97123,-4.57058 3.40879,-0.0577 4.55099,0.3199 4.80687,1.58893 0.42343,2.09996 -1.14625,2.5424 -12.0281,3.39025 -6.06684,0.47269 -8.75,0.34739 -8.75,-0.4086 z M 30.112412,210.52084 c -2.181683,-1.27071 -2.294297,-5.49706 -0.168213,-6.3129 4.050883,-1.55448 30.140961,1.86519 29.701495,3.89301 -0.240254,1.1086 -14.974642,3.29685 -22.783282,3.38362 -2.75,0.0306 -5.7875,-0.40311 -6.75,-0.96373 z m 57,-1.47331 c -1.346244,-1.39995 -0.789317,-4.35532 1,-5.30654 1.892865,-1.00628 10.074956,-0.013 15.999708,1.94237 2.7561,0.9096 3.20598,1.36288 2.01446,2.02969 -2.10551,1.17831 -18.085834,2.29987 -19.014168,1.33448 z m 77.832748,-0.3127 c -0.74405,-1.2039 13.3687,-4.36088 17.65092,-3.94846 2.4948,0.24028 3.26633,0.78699 3.26633,2.31458 0,1.85027 -0.76137,2.02126 -10.16991,2.2841 -5.59345,0.15625 -10.42975,-0.13634 -10.74734,-0.65022 z m 46.97481,-0.0408 c -0.74392,-1.20369 -0.64489,-1.25148 7.44244,-3.59145 3.025,-0.87524 6.85,-1.985 8.5,-2.46615 6.01003,-1.75252 11.35949,-2.18111 13.42514,-1.07561 2.87049,1.53625 2.59445,3.30192 -0.83271,5.3264 -3.59396,2.12301 -27.40754,3.63087 -28.53487,1.80681 z m -68.00756,-2.89523 c 0.5225,-0.44117 3.425,-1.84246 6.45,-3.11398 3.025,-1.27152 6.28139,-2.71057 7.23643,-3.19787 2.53203,-1.29197 4.47284,-1.08603 5.09714,0.54087 0.8797,2.29247 -1.91808,3.79739 -9.62488,5.17724 -8.6609,1.55067 -10.42768,1.66521 -9.15869,0.59374 z m -6.44143,-2.76759 c -1.87353,-1.77527 -2.26097,-2.91826 -1.78906,-5.27783 0.38179,-1.90894 0.15894,-3.21728 -0.60857,-3.57291 -0.66602,-0.30859 -0.23669,-0.32205 0.95405,-0.0299 1.50854,0.37011 2.64559,-0.15497 3.75,-1.73174 2.11885,-3.02507 1.99714,-1.94516 -0.41499,3.6821 -2.14584,5.00605 -2.43719,6.51504 -1.25,6.4742 0.4125,-0.0142 1.5898,-1.92669 2.61622,-4.25 5.17045,-11.70339 11.63378,-17.5373 11.63378,-10.50084 0,2.63221 -1.08102,4.25202 -5.89437,8.83225 -3.2419,3.08489 -6.0544,6.29105 -6.25,7.12479 -0.28705,1.22358 -0.81678,1.07893 -2.74706,-0.75012 z m 64.89143,-1.64459 c 13.06608,-6.11555 21.96866,-8.26345 23.56234,-5.68482 0.3742,0.60547 -0.19927,1.9805 -1.27439,3.05562 -1.41838,1.41839 -5.22457,2.48821 -13.87135,3.8989 -15.39986,2.51242 -16.22974,2.38722 -8.4166,-1.2697 z m -57.02875,-0.74532 c 2.8803,-4.045 9.10027,-9.04037 11.25659,-9.04037 2.74886,0 2.14144,3.60363 -0.97784,5.80132 -2.95332,2.08076 -10.77788,6.19868 -11.77826,6.19868 -0.33436,0 0.34042,-1.33183 1.49951,-2.95963 z m 21.02875,2.52661 c 0,-1.04165 11.22122,-5.59611 14.37826,-5.83583 3.88277,-0.29482 4.96868,2.8127 1.4445,4.13368 -2.95086,1.10608 -15.82276,2.4908 -15.82276,1.70215 z M 51.865252,200.60989 c -1.170785,-3.68882 0.271496,-4.30464 8.383772,-3.57967 9.817353,0.87735 21.291437,3.47361 20.562682,4.65276 -0.31203,0.50488 -6.810446,0.91796 -14.440923,0.91796 -12.974553,0 -13.914547,-0.12903 -14.505531,-1.99105 z m 44.16969,0.15945 c -4.396483,-1.07435 -7.197367,-2.33391 -7.866333,-3.53748 -1.369446,-2.46386 0.652279,-3.86213 4.693803,-3.24634 4.020532,0.61259 16.499998,6.3799 16.499998,7.62538 0,1.42633 -5.45678,1.08177 -13.327468,-0.84156 z m 91.327468,-1.64675 c 0,-0.2631 3.38487,-2.0631 7.52193,-4 8.56886,-4.0118 13.47807,-4.60501 13.47807,-1.62864 0,2.17725 -0.77366,2.54698 -9.62491,4.59973 -6.46166,1.49856 -11.37509,1.94299 -11.37509,1.02891 z M 70.197556,195.92801 c -1.916453,-0.50756 -3.139276,-3.02596 -2.204038,-4.5392 0.87499,-1.41577 10.438176,-0.19934 14.805353,1.88322 1.912836,0.91217 3.2456,2.03433 2.961696,2.4937 -0.52332,0.84675 -12.506771,0.97171 -15.563011,0.16228 z m 95.164854,0.26976 c 0,-1.09968 12.28897,-6.59518 14.75,-6.59603 3.54873,-0.001 2.68567,2.91923 -1.36254,4.61068 -3.98939,1.66686 -13.38746,3.06059 -13.38746,1.98535 z M 98.903936,193.1351 c -7.243878,-1.94425 -11.109776,-7.55877 -5.748774,-8.34905 2.04344,-0.30123 15.449748,6.78022 16.716578,8.82998 0.85268,1.37969 -4.99012,1.12348 -10.967804,-0.48093 z m -64.041524,-1.68889 c -2.185508,-1.19538 -4.5,-3.77255 -4.5,-5.01072 0,-0.43074 1.311228,-1.46125 2.913839,-2.28998 2.637748,-1.36404 3.608955,-1.32787 10.25,0.3817 9.587746,2.46814 18.836161,5.97656 18.836161,7.14558 0,1.321 -25.047876,1.11464 -27.5,-0.22658 z m 131.452218,-2.83934 c 6.24443,-5.48225 10.68724,-7.76647 12.18759,-6.26612 1.76083,1.76083 -0.15736,3.53826 -7.71388,7.14781 -8.61943,4.11726 -9.88381,3.86807 -4.47371,-0.88169 z m 47.04778,2.001 c 4.23234,-3.29884 20.90956,-11.00693 23.81461,-11.00693 2.95489,0 4.75414,2.60977 3.14008,4.5546 -2.10928,2.54152 -4.38485,3.38637 -16.10082,5.97772 -13.35359,2.95356 -14.07476,2.9851 -10.85387,0.47461 z m -107.69547,-3.74929 c -8.258347,-4.76889 -9.809197,-6.60445 -8.124083,-9.61559 0.831671,-1.48612 1.196099,-1.49868 3.838153,-0.13244 4.33074,2.23952 15.57136,14.49951 13.28109,14.4855 -0.43983,-0.003 -4.48765,-2.13454 -8.99516,-4.73747 z m 87.95962,3.44991 c 0.38256,-1.14769 19.51783,-11.13534 23.23585,-12.12794 5.13274,-1.3703 5.75513,4.05966 0.73078,6.37564 -2.77237,1.27792 -9.43205,3.23307 -19.03852,5.58933 -3.83152,0.93978 -5.20216,0.98511 -4.92811,0.16297 z m -52.23352,-2.20755 c 0,-1.1 0.43621,-2.675 0.96937,-3.5 0.80271,-1.2421 0.96937,-1.15614 0.96937,0.5 0,1.1 -0.43621,2.675 -0.96937,3.5 -0.80271,1.2421 -0.96937,1.15614 -0.96937,-0.5 z m 18.07001,-1.68805 c 1.83398,-3.42682 10.02336,-11.81195 11.5362,-11.81195 3.12642,0 1.14244,4.12722 -3.88684,8.08568 -2.8875,2.2727 -5.4,4.53317 -5.58333,5.02325 -0.18334,0.49009 -0.98667,0.89107 -1.78519,0.89107 -1.18356,0 -1.23546,-0.40433 -0.28084,-2.18805 z m 27.89936,1.31049 c 0,-0.48265 0.675,-1.43774 1.5,-2.12244 0.825,-0.68469 1.53553,-1.97729 1.57895,-2.87244 0.0477,-0.98376 0.2741,-1.1462 0.5723,-0.41066 0.3466,0.85492 1.6558,0.48308 4.40118,-1.25 4.3533,-2.74812 7.94757,-3.21619 7.94757,-1.03499 0,1.95238 -4.48807,4.92991 -10.42814,6.91838 -5.75783,1.92745 -5.57186,1.90168 -5.57186,0.77215 z M 67.862412,186.48551 c -6.510967,-0.94576 -13.601004,-3.42996 -14.654558,-5.13465 -2.674656,-4.32769 4.449656,-3.76646 16.647244,1.31141 11.456234,4.76924 10.968055,5.70588 -1.992686,3.82324 z m 10.10048,-2.28573 c -5.952966,-1.41376 -8.960598,-4.80056 -5.776437,-6.50467 1.569295,-0.83986 3.159067,-0.42788 7.822757,2.02721 3.21926,1.69471 6.512129,3.71069 7.317486,4.47996 1.269193,1.21231 1.069343,1.38283 -1.5,1.27987 -1.630357,-0.0653 -5.16907,-0.64241 -7.863806,-1.28237 z m 77.399518,-1.23049 c 0,-0.97413 1.39743,-4.07689 3.10539,-6.89502 4.36357,-7.19987 9.04181,-9.86229 7.50279,-4.2699 -0.89226,3.2422 -10.60818,13.46804 -10.60818,11.16492 z m -45.04284,-4.00519 c -3.16701,-2.96237 -4.95716,-5.46893 -4.95716,-6.94098 0,-3.17926 1.74577,-3.96223 4.09471,-1.83647 1.8703,1.6926 7.90529,11.45359 7.90529,12.78602 0,1.6528 -2.52961,0.21303 -7.04284,-4.00857 z m 7.5673,-2.87601 c -3.9733,-6.37488 -4.54752,-7.91798 -3.79101,-10.1875 0.49035,-1.47105 1.37958,-2.83733 1.97606,-3.03615 1.76206,-0.58736 4.85727,4.8245 6.14055,10.7365 0.65661,3.025 1.46145,6.5125 1.78852,7.75 1.17147,4.43229 -1.51,2.12417 -6.11412,-5.26285 z m 21.47554,5.54423 c 0,-0.53272 0.675,-0.70958 1.5,-0.39301 0.825,0.31659 1.5,0.75247 1.5,0.96862 0,0.21615 -0.675,0.39301 -1.5,0.39301 -0.825,0 -1.5,-0.43588 -1.5,-0.96862 z m 11.4184,-4.27437 c 0.0449,-1.95709 0.4191,-3.35148 0.8316,-3.09867 0.93364,0.57225 0.99491,-1.08009 0.0742,-2.00082 -0.3717,-0.3717 -1.8342,0.3408 -3.25,1.58334 l -2.5742,2.25914 2.25,-2.56445 c 1.2375,-1.41045 2.25689,-3.21044 2.26531,-4 0.013,-1.22266 0.15328,-1.21739 0.94563,0.0355 1.0843,1.71452 1.24743,1.5854 3.43756,-2.72105 0.90907,-1.7875 2.35206,-3.25 3.20664,-3.25 2.91201,0 0.0803,8.35351 -4.88408,14.40768 l -2.38426,2.90769 z m 43.5816,-2.82112 c 9.30977,-8.4642 18.61474,-12.98631 20.48723,-9.95656 1.27951,2.0703 -1.6808,4.86088 -8.88114,8.37193 -4.11551,2.00681 -8.07301,3.66305 -8.79442,3.68054 -0.72142,0.0175 -2.18518,0.6925 -3.2528,1.5 -1.06762,0.80751 -2.64262,1.45388 -3.5,1.43637 -0.90842,-0.0185 0.73603,-2.11829 3.94113,-5.03228 z m -14,3.11668 c 0,-1.05447 9.54073,-9.28163 12.61852,-10.88119 3.54284,-1.84124 4.90387,1.90521 1.63148,4.4909 -4.29103,3.39057 -14.25,7.85658 -14.25,6.39029 z m 27,0.14817 c 0,-0.86902 3.70155,-4.20074 4.66704,-4.20074 0.3543,0 2.11321,-1.12048 3.90869,-2.48996 4.59504,-3.50482 13.92346,-8.51004 15.86046,-8.51004 2.22606,0 3.07598,2.67795 1.46571,4.61821 -2.14901,2.58939 -25.9019,12.29392 -25.9019,10.58253 z M 60.362412,175.41105 c -13.517143,-4.04433 -20.726533,-7.37313 -21.54355,-9.94732 -0.93473,-2.94508 0.47443,-4.13569 4.182613,-3.53394 5.082157,0.82472 25.843914,13.57359 24.360937,14.95897 -0.275,0.2569 -3.425,-0.40807 -7,-1.47771 z m 14.949564,-1.68592 c -10.440101,-3.75324 -14.949564,-6.68093 -14.949564,-9.70575 0,-1.89587 0.526215,-2.41844 2.435288,-2.41844 2.607655,0 20.719819,11.66342 21.352412,13.75 0.499093,1.64623 0.01656,1.55747 -8.838136,-1.62581 z m 10.233229,-0.26273 c -4.536115,-2.24533 -7.802103,-6.05038 -6.709972,-7.81748 1.166347,-1.88719 3.62423,-1.09835 8.161042,2.61922 8.329374,6.8253 7.541077,9.64926 -1.45107,5.19826 z m 93.817205,-1.33578 c 0,-0.70532 12.10814,-14.66933 15,-17.29913 1.375,-1.25039 3.79344,-2.97838 5.37432,-3.83997 2.47574,-1.34929 3.07017,-1.37066 4.28674,-0.15409 2.27116,2.27116 0.70975,4.26892 -9.00134,11.51671 -12.16619,9.08016 -15.65972,11.26119 -15.65972,9.77648 z m -6,-2.00626 c 0,-0.26432 1.54181,-2.89082 3.42624,-5.83667 3.23161,-5.05181 7.22043,-8.68275 9.53858,-8.68275 1.76457,0 1.14131,3.59536 -1.12207,6.47278 -3.37228,4.28716 -11.84275,10.04248 -11.84275,8.04664 z m -77.786172,-5.6962 c -2.357395,-1.6522 -4.994373,-4.08485 -5.859951,-5.40588 -1.654106,-2.5245 -1.243153,-5.41734 0.769576,-5.41734 1.518035,0 7.831348,6.71847 10.183087,10.83658 2.32043,4.06331 0.71799,4.0591 -5.092712,-0.0134 z M 84.20025,161.81408 c -9.966975,-7.05113 -12.837838,-9.89582 -12.837838,-12.72085 0,-4.08434 3.415389,-3.03825 9.228261,2.8265 5.581654,5.63147 12.450171,14.70636 11.083875,14.64435 -0.446675,-0.0203 -3.810109,-2.15778 -7.474298,-4.75 z m 117.16216,2.46747 c 0,-0.17567 1.69532,-2.59163 3.76738,-5.36883 7.83444,-10.50052 19.23262,-17.27289 19.23262,-11.42729 0,3.18194 -3.09724,6.05607 -12.47137,11.57305 -8.78194,5.16844 -10.52863,6.03494 -10.52863,5.22307 z m -70.75448,-3.68061 c -3.17544,-10.16923 -4.58492,-18.95968 -3.44219,-21.4677 2.74245,-6.01901 5.46607,-0.98072 5.78828,10.70741 0.13251,4.80685 -0.0952,9.98185 -0.50613,11.5 l -0.74706,2.76029 z m 33.23034,0.62352 c 0.51459,-2.36557 0.34106,-2.76724 -0.977,-2.26146 -1.0007,0.38401 -1.35302,0.21099 -0.93794,-0.46063 0.36564,-0.59162 1.48618,-0.86087 2.4901,-0.59833 1.31633,0.34422 2.2608,-0.44043 3.38714,-2.81401 1.88862,-3.97997 1.95606,-4.82618 0.31184,-3.91254 -0.6875,0.38202 -0.0516,-0.55458 1.41307,-2.08133 1.69058,-1.76221 3.25368,-2.54927 4.28039,-2.15528 1.45486,0.55828 1.41615,0.99927 -0.38542,4.39035 -1.1015,2.07334 -3.8489,5.79472 -6.10533,8.26972 -3.91759,4.29708 -4.07438,4.37029 -3.47685,1.62351 z m -57.98308,-3.87352 c -4.89464,-5.6789 -6.572081,-9.0069 -5.44822,-10.80913 1.37172,-2.19972 4.01632,-0.097 7.09395,5.64037 5.35811,9.9887 4.58942,12.40296 -1.64573,5.16876 z m -42.492778,-1.82723 c -8.567276,-4.54045 -13,-7.89651 -13,-9.84242 0,-0.38395 0.613909,-1.53766 1.364241,-2.5638 1.314493,-1.79767 1.53412,-1.76615 6.022693,0.86433 4.91073,2.87788 17.613066,14.22489 17.613066,15.73378 0,1.70301 -2.573058,0.80417 -12,-4.19189 z m 91.179288,4.2092 c -1.06431,-0.67484 -1.10141,-2.04679 -0.19108,-7.06695 1.69188,-9.33014 4.61043,-15.06502 7.66678,-15.06502 2.67488,0 1.37704,5.68292 -2.65261,11.61504 -4.21096,6.19905 -4.7671,8.22024 -2.80238,10.18496 1.36557,1.36558 -0.0292,1.59471 -2.02071,0.33197 z m 19.8511,-0.0102 c -0.0326,-1.47883 4.64544,-10.24439 8.73733,-16.37173 1.90363,-2.85056 3.17874,-3.75 5.31626,-3.75 2.72768,0 2.77863,0.0957 1.69936,3.19167 -1.23973,3.55629 -15.70505,19.1025 -15.75295,16.93006 z m -78.837173,-6.38207 c -7.002128,-7.09189 -11.193215,-12.50817 -11.193215,-14.46536 0,-2.22659 2.947139,-2.63215 5.082759,-0.69944 2.345077,2.12227 13.375439,20.30023 12.717439,20.95824 -0.24545,0.24544 -3.218586,-2.3616 -6.606983,-5.79344 z m 24.121483,5.03447 c -5.39173,-7.0802 -8.3622,-17.77417 -4.93714,-17.77417 2.21722,0 3.17132,2.01466 4.93787,10.42665 1.70374,8.11297 1.7036,9.58557 -7.3e-4,7.34752 z m 23.35291,-4.19799 c -0.83403,-2.17345 -0.87462,-10.87315 -0.0606,-12.99439 0.33384,-0.86998 1.45884,-1.58179 2.5,-1.58179 2.42124,0 2.41947,3.48297 -0.006,10.90797 -1.27989,3.91883 -1.95008,4.92891 -2.43385,3.66821 z m -35.19748,-7.7127 c -5.95361,-9.58105 -8.448082,-15.23177 -7.80669,-17.68446 0.6317,-2.41561 2.55188,-2.85119 4.09548,-0.92902 1.4286,1.77897 8.42719,22.69169 8.01139,23.93909 -0.19028,0.57083 -2.12536,-1.82571 -4.30018,-5.32561 z m 15.11724,4.27788 c -1.06389,-1.72141 -5.51708,-16.75236 -6.14995,-20.7581 -0.6571,-4.159 0.67761,-8.38326 2.64879,-8.38326 2.11678,0 3.92258,7.30824 4.55896,18.45058 0.60588,10.60812 0.36923,12.99979 -1.0578,10.69078 z m 68.41263,0.36743 c 0,-2.95792 12.31293,-19.81399 15.59209,-21.34514 5.68288,-2.65353 5.53349,4.09552 -0.21056,9.51286 -4.51994,4.26285 -15.38153,12.61815 -15.38153,11.83228 z m -25.48388,-2.55956 c 0.59668,-1.88 0.38956,-2.06415 -1.6674,-1.48244 -1.37607,0.38916 -1.8517,0.31482 -1.14853,-0.17951 0.6601,-0.46405 1.57685,-1.86196 2.03722,-3.10645 l 0.83703,-2.26272 2.02849,2.29095 2.02848,2.29095 -2.39831,2.29794 c -2.36399,2.26506 -2.38856,2.26722 -1.71698,0.15128 z m -29.96454,-9.83801 c -0.39293,-6.06253 -0.42246,-11.94268 -0.0656,-13.067 0.9167,-2.88828 3.3519,-2.53839 4.13822,0.59458 0.76355,3.04221 -1.28619,21.42321 -2.5274,22.66441 -0.45694,0.45694 -1.15229,-4.12945 -1.54521,-10.19199 z m -55.575132,7.06569 C 67.845311,137.47588 62.664807,131.35136 65.37441,128.08649 c 1.114978,-1.34347 1.564226,-1.3154 4.016669,0.2509 3.314967,2.11718 9.782172,9.803 12.866697,15.29117 2.414235,4.29555 2.003423,4.75568 -1.918918,2.14929 z m 70.661102,-3.92691 c 1.13754,-13.26621 4.29312,-20.21228 7.84369,-17.26556 0.83532,0.69325 1.51876,1.86118 1.51876,2.5954 0,1.87139 -8.32663,20.42016 -9.16671,20.42016 -0.37883,0 -0.46691,-2.5875 -0.19574,-5.75 z m 28.49381,-5 c 1.75128,-5.3334 2.40014,-6.25 4.42439,-6.25 1.61945,0 3.17685,-1.18423 4.9082,-3.73213 2.89973,-4.26734 3.51898,-9.85903 0.98411,-8.88631 -0.88992,0.3415 -1.29132,0.17385 -0.94098,-0.39301 0.89328,-1.44536 5.47145,-1.20806 6.05547,0.31387 0.98605,2.56959 -3.61236,10.33059 -10.48586,17.69758 l -6.99759,7.5 z m -83.395748,2 c -4.680539,-5.20269 -15.73561,-20.89068 -15.73561,-22.33003 0,-0.92129 0.688192,-2.24622 1.529315,-2.94429 2.020197,-1.67662 5.437031,1.45238 9.919069,9.08347 2.718766,4.62896 7.551616,15.81468 7.551616,17.47837 0,1.0533 -1.795651,0.34507 -3.26439,-1.28752 z m 70.295018,1.25 c 0,-0.54999 0.43621,-1.67499 0.96937,-2.5 0.53316,-0.825 0.96937,-1.04999 0.96937,-0.5 0,0.55 -0.43621,1.675 -0.96937,2.5 -0.53316,0.82501 -0.96937,1.05 -0.96937,0.5 z m -58.83743,-13.75 c -2.29722,-4.53749 -4.72445,-10.38994 -5.39384,-13.00542 -1.06454,-4.15945 -1.00681,-4.9657 0.46066,-6.43316 1.5703,-1.57031 1.80027,-1.56682 3.59169,0.0544 2.49038,2.25376 4.59879,8.35646 6.01244,17.40276 2.05746,13.16615 1.18003,13.53836 -4.67095,1.98144 z m 56.29326,7 c 0.23303,-0.6875 0.61602,-3.30876 0.8511,-5.82503 0.59581,-6.3776 4.57931,-16.81011 6.89112,-18.04735 4.79647,-2.567 6.21242,2.35145 2.82494,9.81278 -1.80262,3.97048 -9.61932,15.3096 -10.55378,15.3096 -0.24039,0 -0.24641,-0.5625 -0.0134,-1.25 z m 6.91853,-1.5 c 1.90937,-2.25517 5.59501,-3.09927 5.59501,-1.28138 0,0.53274 -0.69176,0.70316 -1.53725,0.37872 -0.84548,-0.32444 -2.53298,0.25218 -3.75,1.28138 l -2.21275,1.87128 z m -44.74029,-6.5 c -3.31788,-9.24045 -4.30451,-16.79114 -2.70015,-20.66441 2.99768,-7.237046 7.54481,-3.13255 7.49517,6.76557 -0.0721,14.36643 -0.49723,21.14884 -1.32577,21.14884 -0.47633,0 -2.03749,-3.2625 -3.46925,-7.25 z m 19.84371,5.26362 c -0.45566,-0.73728 -1.03749,-5.68097 -1.29294,-10.98598 -0.36973,-7.67823 -0.1279,-10.29629 1.18571,-12.83655 2.97578,-5.75451 7.66314,-3.27369 7.54484,3.99317 -0.0769,4.72652 -6.38223,21.537 -7.43761,19.82936 z m 31.49159,-8.9546 c 0,-0.51754 0.44485,-1.21591 0.98855,-1.55194 0.56686,-0.35034 0.7345,0.0511 0.39301,0.94099 -0.66479,1.73241 -1.38156,2.04938 -1.38156,0.61095 z"
           id="path737"
           inkscape:connector-curvature="0"
           sodipodi:nodetypes="sccssccssccscsscssscccscccccsssscsssccsccccccscscssssccssscccsccccccccssccscccccccccsscssccccccccccccccsccsscccsccssccccsccccsccscssccsccccccsssssscssssccsscssssccssccssccsssccccccccscccccsccccssccsscsssscsccscscccssccscccccccccsccscscccssccsccccsccssccsscccscscscssccccsccssscsscsccscscccsscscsccsccsscscccscscccsccsssccccccscscscscscccscccccsccsccsssssscccscscccsssssssssscccscccsccccccsccccccscccccccccccccccsscscscsccscccccsscccscscsccsssccsscccccccsssssccssccscccccccccsccscccsscsccscccccccccssccsscsscssscscsscscscscsssssssscccccsccssscscsccscsscscscsccsccccccccscscsssscssscccsscssssscsccccsscssssssccccccscssscccccsccsscccscccccsscsssscscsssccsssscsccccsccscsscsssccsccccssccscscscsscccccccscccsccscsssscssscssccccssccssscscsccccscccscccsccsccsssscccccccsccccccccccscccsscssccccscssscsssscscscsccscccccssccsscccscscsccscccsccs" />
      </g>
    </g>
  </g>
</svg>
