<?xml version="1.0" encoding="UTF-8" standalone="no"?>
<!-- Created with Inkscape (http://www.inkscape.org/) -->

<svg
   xmlns:dc="http://purl.org/dc/elements/1.1/"
   xmlns:cc="http://creativecommons.org/ns#"
   xmlns:rdf="http://www.w3.org/1999/02/22-rdf-syntax-ns#"
   xmlns:svg="http://www.w3.org/2000/svg"
   xmlns="http://www.w3.org/2000/svg"
   xmlns:sodipodi="http://sodipodi.sourceforge.net/DTD/sodipodi-0.dtd"
   xmlns:inkscape="http://www.inkscape.org/namespaces/inkscape"
   version="1.1"
   id="svg2949"
   width="283"
   height="443"
   viewBox="0 0 283 443"
   sodipodi:docname="feu110.svg"
   inkscape:version="0.92.4 (5da689c313, 2019-01-14)">
  <metadata
     id="metadata2955">
    <rdf:RDF>
      <cc:Work
         rdf:about="">
        <dc:format>image/svg+xml</dc:format>
        <dc:type
           rdf:resource="http://purl.org/dc/dcmitype/StillImage" />
        <dc:title></dc:title>
      </cc:Work>
    </rdf:RDF>
  </metadata>
  <defs
     id="defs2953" />
  <sodipodi:namedview
     pagecolor="#ffffff"
     bordercolor="#666666"
     borderopacity="1"
     objecttolerance="10"
     gridtolerance="10"
     guidetolerance="10"
     inkscape:pageopacity="0"
     inkscape:pageshadow="2"
     inkscape:window-width="1280"
     inkscape:window-height="972"
     id="namedview2951"
     showgrid="false"
     inkscape:zoom="1.5067919"
     inkscape:cx="147.84438"
     inkscape:cy="221.34636"
     inkscape:window-x="-8"
     inkscape:window-y="-8"
     inkscape:window-maximized="1"
     inkscape:current-layer="g534"
     showguides="true" />
  <g
     id="g151"
     transform="translate(25.882805,-2.654647)">
    <g
       id="g534"
       transform="translate(-21.900834,-45.792654)">
      <g
         id="g568"
         transform="translate(1.9909849,-7.3002778)">
        <path
           style="fill:#ff0000"
           d="m 239.38085,480.18728 c -0.93572,-1.60984 -1.79222,-14.25 -0.96558,-14.25 1.10686,0 5.08762,12.08757 4.53085,13.75789 -0.4527,1.35811 -2.86812,1.69151 -3.56527,0.49211 z m -9.91621,-0.81744 c -0.66574,-0.66575 0.79845,-6.64635 2.67657,-10.93256 0.72299,-1.65 1.59221,-3.675 1.93161,-4.5 0.33939,-0.825 0.34774,1.65 0.0186,5.5 -0.73778,8.62866 -2.38799,12.17129 -4.62673,9.93256 z m -11.68552,-4.38289 c -0.72828,-0.4501 -1.15679,-1.20791 -0.95225,-1.68402 0.64511,-1.50165 12.86499,-12.70588 13.3398,-12.23106 0.7741,0.7741 -7.68467,12.67933 -10.01567,14.09646 -0.57626,0.35034 -1.6436,0.26872 -2.37188,-0.18138 z m 29.39291,-4.65889 c -1.97349,-3.08507 -3.40539,-5.79201 -3.18198,-6.01541 0.59094,-0.59094 9.7087,9.34677 9.7087,10.58179 0,2.77844 -3.30947,0.46299 -6.52672,-4.56638 z m 6.1996,-6.50527 c -8.78209,-5.25952 -9.23098,-6.45479 -1.30352,-3.4709 7.9242,2.98266 10.63064,4.38635 10.63064,5.51358 0,2.27694 -3.33339,1.54691 -9.32712,-2.04268 z m -43.55455,0.75706 c -1.75078,-2.10955 0.17283,-3.35557 7.88167,-5.1054 4.125,-0.93634 8.625,-2.14966 10,-2.69628 5.82994,-2.31764 -0.0396,1.2829 -8.18888,5.02328 -6.60794,3.03294 -8.92931,3.69835 -9.69279,2.7784 z m -127.118329,-5.8391 c 0,-0.73876 1.541389,-4.48425 3.425309,-8.32333 3.71876,-7.57814 4.38006,-6.43742 1.742929,3.0065 -1.132491,4.0556 -2.235632,6.09524 -3.419977,6.32332 -0.963735,0.1856 -1.748261,-0.26606 -1.748261,-1.00649 z m 10,-7.80347 c 0,-4.95 0.384928,-9 0.855395,-9 0.470468,0 1.142268,3.0375 1.492891,6.75 0.936317,9.91401 0.835579,11.25 -0.848286,11.25 -1.222222,0 -1.5,-1.66667 -1.5,-9 z m 157.749999,4.69176 c -3.7125,-0.55389 -6.75,-1.38614 -6.75,-1.84942 0,-0.95699 17.99708,-1.16443 20.41821,-0.23535 0.86999,0.33384 1.58179,1.23384 1.58179,2 0,1.62476 -4.75122,1.65117 -15.25,0.0848 z M 76.737172,454.27061 c 0.02113,-1.00833 2.094747,-4.08333 4.608034,-6.83333 l 4.569612,-5 -3.50872,6.4669 c -3.582844,6.60351 -5.737599,8.64329 -5.668926,5.36643 z m 24.119218,-2.58333 c -1.040796,-2.3375 -2.206655,-5.6 -2.590801,-7.25 -0.614661,-2.64012 -0.523794,-2.82006 0.757478,-1.5 2.196323,2.26281 6.664433,11.20918 6.074753,12.16331 -1.08591,1.75704 -2.41583,0.68678 -4.24143,-3.41331 z m 107.03884,2.64253 c -1.80941,-1.33288 -1.75663,-1.38037 3.05352,-2.74791 0.6875,-0.19545 4.4,0.19198 8.25,0.86096 5.25597,0.91329 6.37713,1.36533 4.5,1.81436 -5.30442,1.26885 -14.12456,1.30937 -15.80352,0.0726 z m -101.98827,-7.68038 c -5.05417,-5.14982 -5.34758,-6.31694 -0.9333,-3.71245 4.01855,2.371 7.72509,5.74847 7.72509,7.03926 0,2.11209 -2.79991,0.74062 -6.79179,-3.32681 z m 142.39724,1.43615 c 7.58708,-4.18399 13.21057,-6.25501 13.91026,-5.12288 1.12785,1.8249 -0.58898,2.91071 -8.60726,5.44369 -10.30188,3.25436 -11.63934,3.17345 -5.303,-0.32081 z m -179.605449,0.94894 c 0,-0.89312 8.169611,-6.61211 13,-9.10042 l 2.5,-1.28784 -1.9821,2.23072 c -2.6177,2.94604 -10.986991,9.0603 -12.401877,9.0603 -0.613813,0 -1.116023,-0.40624 -1.116023,-0.90276 z m 149.432229,-1.50691 c -8.61541,-2.73909 -9.49845,-3.25418 -8.78157,-5.12236 0.85052,-2.21641 3.45876,-1.78862 9.95857,1.63337 11.36377,5.98272 10.90878,7.33142 -1.177,3.48899 z m 24.62025,-0.59033 c 3.32084,-6.4869 9.24297,-14 11.03536,-14 3.38082,0 2.07223,2.39673 -5.20152,9.52682 -3.96773,3.88937 -6.54768,5.86758 -5.83384,4.47318 z m -4.99949,-1.05 c 0.12511,-5.78486 2.73352,-18.20002 3.9865,-18.97441 3.73771,-2.31003 3.87304,2.34507 0.3551,12.21481 -2.90689,8.15543 -4.42284,10.51566 -4.3416,6.7596 z m -16.93262,-6.73642 c -5.36179,-4.83559 -6.14746,-5.94621 -4.92448,-6.96119 1.18502,-0.98348 2.01586,-0.60851 4.47584,2.01998 4.32801,4.62449 8.71571,10.73047 7.69696,10.71118 -0.47778,-0.009 -3.73952,-2.60553 -7.24832,-5.76997 z m -112.62037,1.70242 c -5.65674,-3.24616 -4.76946,-3.63162 3.09609,-1.34504 3.28468,0.95488 5.40391,2.13138 5.40391,3 0,2.12569 -2.8936,1.5623 -8.5,-1.65496 z m 122.23649,-4.26329 c -3.21222,-8.31407 -3.38137,-9.92355 -0.99466,-9.46391 1.30055,0.25046 2.14629,2.3062 3.33828,8.11426 0.87804,4.27835 1.33171,7.94161 1.00816,8.14059 -0.32355,0.19897 -1.83185,-2.85695 -3.35178,-6.79094 z m -166.193784,4.41639 c -0.819193,-1.32548 0.34626,-1.84447 8.091719,-3.60332 3.776067,-0.85747 7.653076,-1.79338 8.615576,-2.0798 0.9625,-0.28641 1.75,-0.0929 1.75,0.43 0,0.52292 -0.7875,1.19028 -1.75,1.48303 -0.9625,0.29275 -4.218647,1.47024 -7.235883,2.61663 -5.984216,2.2737 -8.583432,2.59024 -9.471412,1.15346 z m 94.457294,-4.7038 c 0,-4.10564 2.26088,-15.3653 3.08527,-15.3653 0.90451,0 0.43011,15.35708 -0.52199,16.89761 -1.21761,1.97014 -2.56328,1.16571 -2.56328,-1.53231 z m 9.41493,-0.1153 c -0.34275,-1.5125 -1.25132,-4.96918 -2.01905,-7.6815 -2.95739,-10.44815 -0.0897,-9.54361 4.04461,1.27577 3.07931,8.05846 3.14865,9.15573 0.57856,9.15573 -1.34329,0 -2.18154,-0.88521 -2.60412,-2.75 z m -56.91493,-0.73393 c -0.55,-0.19967 -3.7,-0.69951 -7,-1.11076 -5.259042,-0.65538 -5.629521,-0.83546 -3,-1.4582 1.65,-0.39076 5.8455,-0.76372 9.32332,-0.8288 5.51729,-0.10323 6.28081,0.10476 5.98979,1.63169 -0.31406,1.64778 -3.09379,2.57176 -5.31311,1.76607 z m 37.5,-0.57094 c 0,-1.81398 8.33874,-13.42892 8.75167,-12.19011 0.21547,0.6464 -0.82696,3.89096 -2.31652,7.21013 -1.90811,4.25184 -3.25883,6.03485 -4.57171,6.03485 -1.02489,0 -1.86344,-0.47469 -1.86344,-1.05487 z m -83.926113,-4.3561 c -2.053854,-2.47475 0.575804,-2.80339 8.437052,-1.05443 4.118984,0.91639 7.489062,1.84599 7.489062,2.06578 0,0.21979 -3.3199,0.39962 -7.377555,0.39962 -5.130988,0 -7.734142,-0.42966 -8.548559,-1.41097 z m 110.361143,-4.1134 c -2.59579,-3.03841 -4.43301,-5.81098 -4.08271,-6.16128 0.71813,-0.71814 11.80217,8.64913 12.41707,10.49382 0.21946,0.65838 -0.50059,1.19183 -1.60873,1.19183 -1.19639,0 -3.91086,-2.22964 -6.72563,-5.52437 z m -73.43503,2.48984 c 6.61365,-4.59794 14,-6.44665 14,-3.50401 0,1.49611 -4.14056,2.92794 -11.5,3.97678 -2.94285,0.4194 -3.60357,0.29445 -2.5,-0.47277 z m 38,0.15697 c 0,-0.48265 0.5625,-1.34389 1.25,-1.91385 2.31031,-1.91534 14.02782,-8.2641 14.4582,-7.83372 0.23422,0.23422 -2.41029,2.72069 -5.8767,5.52549 -5.77835,4.67548 -9.8315,6.41609 -9.8315,4.22208 z m -63.749999,-3.67424 c -6.610315,-3.08854 -8.770229,-5.39061 -6.420355,-6.84291 0.865871,-0.53514 13.53889,7.56396 14.650794,9.36306 0.968825,1.56759 -0.337996,1.16744 -8.230439,-2.52015 z m 5.982112,-4.8139 c -4.178566,-6.66441 -4.682692,-9.12817 -1.627913,-7.95594 1.788429,0.68628 6.603066,11.00688 6.174045,13.23461 -0.160614,0.834 -2.193492,-1.52644 -4.546132,-5.27867 z m 16.767888,5.29626 c 0,-0.65655 2.040399,-3.23411 4.534209,-5.72793 3.35487,-3.35486 4.82641,-4.24201 5.65762,-3.4108 1.4303,1.4303 0.38884,2.73398 -5.64667,7.06835 -2.49984,1.79525 -4.545159,2.72692 -4.545159,2.07038 z m -2.752645,-3.18056 c 0.253733,-0.6875 1.238043,-3.6125 2.187355,-6.5 1.285687,-3.91064 2.215749,-5.25 3.645659,-5.25 2.7022,0 2.40367,1.73441 -1.33037,7.72913 -2.94131,4.72205 -5.656187,7.14644 -4.502644,4.02087 z m 38.223934,0.20355 c -0.38336,-0.6203 -0.30775,-1.51709 0.16803,-1.99287 1.15981,-1.15981 17.14322,-4.84481 17.86844,-4.11959 0.31438,0.31438 -2.70875,1.83287 -6.71808,3.37442 -10.18998,3.91796 -10.53724,4.00196 -11.31839,2.73804 z m -44.635962,-6.55168 c -0.319862,-6.29384 0.41709,-8.64184 2.123205,-6.76474 0.990702,1.08999 0.07834,13.36287 -0.993396,13.36287 -0.436965,0 -0.945379,-2.96916 -1.129809,-6.59813 z m -48.282248,3.68401 c -0.310725,-0.50276 1.058674,-4.44026 3.043108,-8.75 3.962624,-8.60591 4.153897,-8.91913 4.956485,-8.11654 0.911364,0.91136 -3.320699,16.01756 -4.739437,16.91725 -1.711107,1.08509 -2.566414,1.07179 -3.260156,-0.0507 z m 12.05391,-0.66767 c -0.861972,-2.24626 -0.756232,-15.90079 0.116378,-15.02818 1.030298,1.0303 3.978323,14.0049 3.504859,15.42529 -0.570689,1.71207 -2.910324,1.4555 -3.621237,-0.39711 z m 125.89301,-1.44706 c -6.99953,-2.52432 -7.55189,-2.89051 -4.41678,-2.92814 4.95646,-0.0595 15.27113,2.07175 16.1008,3.32679 0.9532,1.44191 0.0169,2.64375 -1.99304,2.55834 -0.93004,-0.0395 -5.29098,-1.37016 -9.69098,-2.95699 z M 62.361651,413.18728 c -3.668704,-5.8241 -5.862615,-10.38362 -5.277735,-10.9685 0.676869,-0.67687 5.581828,5.03643 7.822919,9.11213 3.461069,6.29439 1.261137,7.89894 -2.545184,1.85637 z m 166.602739,2.18022 c -0.5487,-1.06162 -1.29916,-4.2982 -1.6677,-7.1924 -0.36853,-2.8942 -0.92698,-5.9317 -1.24099,-6.75 -0.31401,-0.8183 -0.1282,-1.48782 0.41292,-1.48782 0.90413,0 4.1447,6.66091 5.62034,11.55246 0.34054,1.12885 0.001,2.89745 -0.75389,3.93022 -1.3404,1.83311 -1.39677,1.83187 -2.37068,-0.0525 z m -11.22327,-0.68022 c 0.1263,-3.72608 2.76718,-12.18652 3.92436,-12.57224 1.06519,-0.35507 1.20977,0.6687 0.69725,4.93714 -0.35563,2.96181 -0.65051,6.1726 -0.65529,7.1351 -0.005,1.08044 -0.77391,1.75 -2.00869,1.75 -1.1,0 -1.98093,-0.5625 -1.95763,-1.25 z M 30.698751,411.93217 c 0,-1.31847 2.302602,-3.69592 6.724045,-6.94262 9.456993,-6.94434 9.818984,-5.48344 0.957625,3.86471 -5.083478,5.36273 -7.68167,6.40378 -7.68167,3.07791 z m 103.249999,1.36191 c -0.6875,-0.28791 -1.25,-1.11282 -1.25,-1.83314 0,-0.72033 0.5625,-1.49953 1.25,-1.73157 1.78357,-0.60198 20.75,2.36078 20.75,3.24137 0,0.83237 -18.83369,1.12585 -20.75,0.32334 z m 73.233,-1.38431 c -0.96271,-1.5577 9.84044,-16.98238 11.04823,-15.7746 0.54298,0.54299 -4.11597,10.21876 -6.76619,14.05211 -2.01272,2.91126 -3.24178,3.40566 -4.28204,1.72249 z m -33.90905,-1.94644 c 0.53567,-0.53567 4.64924,-2.30112 9.14127,-3.92322 7.08634,-2.55892 8.32832,-2.75529 9.38368,-1.48367 1.74894,2.10735 0.42534,2.85411 -8.37732,4.7264 -9.01783,1.91806 -11.55536,2.08822 -10.14763,0.68049 z M 67.768596,405.80382 c -2.838387,-2.25996 -4.901167,-4.36855 -4.583956,-4.68576 0.872149,-0.87215 11.506599,5.14251 11.510614,6.5102 0.0077,2.62257 -2.00839,2.09154 -6.926658,-1.82444 z m 75.430154,1.05612 c -4.8541,-1.69215 -8.12714,-3.40499 -8.32332,-4.35574 -0.48119,-2.33195 2.68488,-1.94413 7.83879,0.9602 2.46649,1.38992 5.72203,3.00894 7.23453,3.59783 1.5125,0.58889 2.75,1.47668 2.75,1.97288 0,1.14233 0.0483,1.15339 -9.5,-2.17517 z m 96.06167,-0.17266 c -1.03554,-1.2375 -3.18829,-3.75976 -4.78389,-5.60501 -1.5956,-1.84526 -2.67002,-3.58608 -2.38761,-3.86849 0.81125,-0.81126 11.60983,8.81085 11.60983,10.34497 0,2.10279 -2.33274,1.64475 -4.43833,-0.87147 z m -63.06167,-5.75 c 5.70514,-5.7653 8.63617,-7.20673 10.03894,-4.93699 0.94032,1.52147 -2.2541,4.71773 -8.03894,8.04359 -7.79547,4.48182 -8.47096,3.43259 -2,-3.1066 z m 22.00113,5.00183 c -0.60639,-0.98116 4.20463,-5.90841 5.8294,-5.97023 0.4568,-0.0174 3.28807,-1.66282 6.29173,-3.65654 3.00366,-1.99371 5.67369,-3.41244 5.9334,-3.15273 0.55134,0.55133 -10.75761,10.70742 -13.91027,12.49223 -2.65867,1.50515 -3.36146,1.55387 -4.14426,0.28727 z m -46.26767,-2.25183 c -12.02935,-8.83844 -13.76337,-10.83169 -10.04581,-11.54762 0.94276,-0.18156 2.92896,1.10442 4.5,2.91356 1.54679,1.78121 3.48735,3.97722 4.31235,4.88002 6.02095,6.58875 6.31671,7.48891 1.23346,3.75404 z m 17.81507,-6.5 c 2.24726,-4.2625 4.69578,-8.37403 5.44116,-9.13674 1.39139,-1.42375 4.51031,-0.90529 4.51031,0.74976 0,1.27885 -12.14635,16.13698 -13.1918,16.13698 -0.46507,0 0.99308,-3.4875 3.24033,-7.75 z m -146.703452,3.20687 c -0.858232,-2.23651 -0.382582,-2.4518 8.591612,-3.88873 9.683163,-1.55044 10.293416,-0.31348 1.505919,3.05244 -7.091437,2.71627 -9.305741,2.89966 -10.097531,0.83629 z m 131.347602,-6.88871 c -4.02813,-8.48211 -4.46602,-10.56816 -2.21836,-10.56816 1.85881,0 3.90465,3.9994 5.48436,10.72138 1.95186,8.3055 0.72367,8.24788 -3.266,-0.15322 z m 8.36495,1.68184 c 0.0881,-8.7924 1.20212,-13.67634 3.20758,-14.06256 2.08672,-0.40186 2.25056,2.14552 0.64226,9.98627 -0.60089,2.92946 -1.28446,6.33879 -1.51905,7.57629 -0.84345,4.44939 -2.38723,2.1312 -2.33079,-3.5 z m 30.94237,2.26905 c 0,-0.81452 1.0125,-1.71109 2.25,-1.99238 7.96977,-1.81155 12.06329,-2.54671 12.38565,-2.22435 0.66215,0.66215 -10.44942,5.69768 -12.5727,5.69768 -1.15527,0 -2.06295,-0.6516 -2.06295,-1.48095 z m 49.5,-0.23863 c -2.2,-0.8891 -4.9,-2.2541 -6,-3.03334 -1.80579,-1.27923 -1.56302,-1.35025 2.5,-0.73136 5.31224,0.80917 9.19213,2.49251 9.75949,4.23428 0.5371,1.64886 -1.3719,1.50565 -6.25949,-0.46958 z M 76.698751,397.1913 c -1.925,-0.16167 -4.625,-0.58141 -6,-0.93274 -2.245415,-0.57375 -2.092664,-0.71469 1.5,-1.38403 4.321279,-0.80509 9.5,-0.18981 9.5,1.12869 0,1.23611 -1.156356,1.51088 -5,1.18808 z m -46.418642,-8.84202 c -5.931763,-1.6157 -8.595826,-4.70179 -5.187764,-6.00958 1.293111,-0.49622 15.606406,6.02477 15.606406,7.11011 0,0.84973 -5.322811,0.28747 -10.418642,-1.10053 z m 39.918642,-1.9592 c 7.879943,-3.79957 9.058763,-4.04507 9.825761,-2.0463 0.339827,0.88557 -0.453913,1.77975 -2.143011,2.41418 -5.972377,2.24324 -9.611549,3.17497 -12.081973,3.09334 -2.014726,-0.0666 -1.023418,-0.84652 4.399223,-3.46122 z m 122.123639,0.009 c -0.38018,-0.99073 0.16547,-1.81797 1.53276,-2.32376 2.08614,-0.77171 3.31042,-0.59238 15.3436,2.24758 l 6,1.41607 -11.14301,0.0993 c -9.16844,0.0817 -11.24762,-0.17336 -11.73335,-1.43914 z M 36.436989,380.41054 c -6.026144,-5.70898 -8.35252,-9.47326 -5.8546,-9.47326 1.599062,0 13.862759,14.58694 12.994049,15.45565 -0.220666,0.22066 -3.433418,-2.47141 -7.139449,-5.98239 z m 197.620231,5.75573 c 0.34069,-0.55124 2.24473,-1.30717 4.2312,-1.67983 1.98647,-0.37267 5.1503,-1.41125 7.03073,-2.30797 3.17736,-1.51517 3.53822,-1.51114 5.10643,0.0571 1.06077,1.06076 1.33199,2.0241 0.73031,2.59392 -1.38386,1.31059 -17.87952,2.60026 -17.09867,1.33681 z M 62.714064,385.11119 c 0.02504,-1.10183 1.230658,-2.44555 6.212344,-6.92391 5.125029,-4.60722 6.781881,-5.22041 6.755142,-2.5 -0.0103,1.04757 -2.619329,3.42536 -6.5,5.92391 -3.56554,2.29565 -6.475908,3.87065 -6.467486,3.5 z m -19.097771,-5.60902 c -1.329648,-1.88931 -3.707464,-5.25317 -5.284036,-7.47523 -2.668097,-3.76049 -3.075689,-8.09901 -0.618191,-6.58019 1.52912,0.94504 9.690437,17.49053 8.627476,17.49053 -0.169238,0 -1.395601,-1.5458 -2.725249,-3.43511 z m 69.098447,0.97716 c -1.03751,-2.72885 -3.1739,-15.71747 -2.66839,-16.22299 0.14126,-0.14125 1.57348,3.54153 3.18272,8.18395 2.26333,6.5294 2.65621,8.71046 1.73495,9.63172 -0.92126,0.92126 -1.4306,0.56061 -2.24928,-1.59268 z m 91.98401,0.12432 c -7.04933,-2.81035 -10,-4.49269 -10,-5.70155 0,-1.28947 4.71172,-1.24028 5.51383,0.0576 0.34753,0.56231 3.29908,2.36878 6.55902,4.01439 8.89638,4.49088 7.62041,5.494 -2.07285,1.6296 z m -102,-0.59008 c 0,-3.54329 2.3324,-12.07629 3.30091,-12.07629 0.92842,0 0.11435,11.51908 -0.93393,13.21524 -0.91583,1.48183 -2.36698,0.78356 -2.36698,-1.13895 z m 133,-4.55057 c 6.6002,-6.55618 10,-8.13003 10,-4.62923 0,1.2753 -2.41929,3.40437 -7.38602,6.5 -4.06231,2.53193 -7.77481,4.59955 -8.25,4.5947 -0.47519,-0.005 2.06102,-2.91431 5.63602,-6.46547 z m -181.585654,1.22428 c 0.365389,-1.7875 0.934489,-5.17479 1.264666,-7.5273 0.626803,-4.46599 1.852605,-6.09108 3.415552,-4.52814 1.112041,1.11204 -2.94459,15.30544 -4.374464,15.30544 -0.56408,0 -0.692048,-1.36024 -0.305754,-3.25 z m 6.585655,2.79705 c 0,-2.68067 6.286443,-11.54705 8.187091,-11.54705 1.672092,0 0.701496,2.32976 -2.937091,7.05002 -3.291684,4.27023 -5.25,5.94768 -5.25,4.49703 z m 31.474092,-0.58897 c -0.630906,-1.02083 0.384497,-2.68979 4.817007,-7.91743 3.86432,-4.55753 4.44505,-3.16386 1.180775,2.83369 -2.737169,5.02909 -4.89906,6.86151 -5.997782,5.08374 z m 138.100167,-6.70808 c 4.20321,-9.24436 5.58921,-10.96288 7.23869,-8.97539 0.89477,1.07814 0.0136,3.03203 -4.08153,9.05019 -2.87247,4.22136 -5.55078,7.6752 -5.9518,7.6752 -0.40102,0 0.85657,-3.4875 2.79464,-7.75 z m -181.58042,5.5 c -0.0034,-0.6875 -0.63262,-2.45072 -1.398293,-3.91827 -1.979636,-3.79432 -3.057294,-10.83173 -1.658693,-10.83173 0.611957,0 1.508733,1.04178 1.992836,2.31507 1.162439,3.05745 2.471397,13.68493 1.685534,13.68493 -0.338373,0 -0.617995,-0.5625 -0.621384,-1.25 z m 69.85361,-3.18688 c -5.12784,-8.45507 -4.70142,-11.16386 0.83639,-5.31312 3.69563,3.90446 5.62904,7.43474 4.80339,8.77067 -1.20683,1.95269 -3.04025,0.82869 -5.63978,-3.45755 z m 89.45915,-2.04188 c -2.91863,-3.01332 -5.3066,-5.93832 -5.3066,-6.5 0,-1.80326 2.65603,-1.09248 5.11818,1.36967 2.75031,2.75031 7.38183,10.60909 6.2524,10.60909 -0.41656,0 -3.14535,-2.46544 -6.06398,-5.47876 z m 9.66135,-0.77124 c -0.61003,-2.3375 -1.59947,-5.9404 -2.19876,-8.00645 -1.16633,-4.02086 -0.71037,-5.31869 1.56221,-4.44662 0.80095,0.30735 1.71171,2.64495 2.0936,5.37354 0.37177,2.65624 0.92832,6.29203 1.23677,8.07953 0.8375,4.85343 -1.38117,4.02982 -2.69382,-1 z m 6.70398,3.52819 c -0.8207,-1.32792 0.11873,-10.44508 1.44546,-14.02819 0.98169,-2.65128 3.90515,-3.03271 3.83221,-0.5 -0.1018,3.53508 -4.53299,15.7331 -5.27767,14.52819 z M 84.877537,372.24744 c 0.178989,-0.92942 3.024485,-3.16625 6.323324,-4.97075 9.566659,-5.23304 10.012029,-3.99855 0.967864,2.68277 -5.834264,4.31003 -7.799354,4.92667 -7.291188,2.28798 z m 40.045813,-4.22685 c -4.49908,-3.55633 -6.98914,-6.08331 -5.9944,-6.08331 1.6546,0 13.2698,7.0331 13.2698,8.03498 0,2.58563 -2.32395,1.96222 -7.2754,-1.95167 z m -46.224599,-2.54313 c 0,-1.58526 11.282804,-5.54018 15.805335,-5.54018 3.632874,0 1.87975,1.28345 -5.97589,4.37491 -7.588181,2.98621 -9.829445,3.25191 -9.829445,1.16527 z m 21.999999,1.08226 c 0,-0.20765 0.7875,-0.99515 1.75,-1.75 1.58606,-1.24387 1.62143,-1.2085 0.37756,0.37756 -1.30637,1.66575 -2.12756,2.19548 -2.12756,1.37244 z m 24,-6.88442 c -2.49772,-1.13418 -2.49691,-1.13556 0.88837,-1.5103 4.07584,-0.45118 8.11163,0.44006 8.11163,1.79133 0,1.31736 -5.88464,1.1336 -9,-0.28103 z m 115.66546,0.52969 c -0.67947,-1.09939 2.38046,-14.26771 3.31539,-14.26771 1.16431,0 -0.15596,12.46542 -1.46649,13.84596 -0.71157,0.74958 -1.5308,0.93646 -1.8489,0.42175 z m 8.84487,-8.22555 c -2.37408,-9.68765 -1.38169,-10.81131 2.3438,-2.65384 3.64501,7.98125 3.85766,9.61168 1.25359,9.61168 -1.51169,0 -2.23523,-1.39942 -3.59739,-6.95784 z m -211.912563,5.22227 c -0.798017,-0.79801 -0.579464,-12.11392 0.294619,-15.25435 1.032672,-3.71021 1.944426,-1.26827 2.680008,7.17782 0.540265,6.20343 0.390297,7.61244 -0.861351,8.09274 -0.833531,0.31986 -1.784505,0.31256 -2.113276,-0.0162 z m 41.833136,-0.37623 c -0.907518,-1.4684 1.530388,-2.90996 4.06079,-2.40119 1.10457,0.22209 4.258308,0.72131 7.008308,1.10938 4.274365,0.60319 4.637183,0.81434 2.5,1.45492 -3.917325,1.17415 -12.808682,1.06727 -13.569098,-0.16311 z m 149.032307,-0.94773 c -0.43371,-0.70175 1.91596,-3.80112 5.90836,-7.79352 3.64564,-3.64564 6.62843,-6.13638 6.62843,-5.53499 0,1.4699 -9.19517,13.65359 -10.65836,14.12244 -0.6371,0.20414 -1.48239,-0.15312 -1.87843,-0.79393 z M 26.698751,354.60382 c 0,-2.04663 5.924191,-15.07568 6.563904,-14.43597 0.285124,0.28512 -0.342791,3.83739 -1.395366,7.89392 -1.29199,4.97921 -2.44251,7.48056 -3.541156,7.69883 -0.915805,0.18195 -1.627382,-0.32385 -1.627382,-1.15678 z m 18.695198,-6.41654 c -3.968002,-10.21988 -3.976687,-10.25 -2.955855,-10.25 1.10338,0 8.260657,13.51866 8.260657,15.60272 0,0.76851 -0.603906,1.39728 -1.342014,1.39728 -0.738107,0 -2.521362,-3.0375 -3.962788,-6.75 z m 73.304801,4.95389 c 0,-1.17087 12.92041,-5.17166 14.60903,-4.52368 2.51878,0.96655 -0.35246,3.09904 -5.72355,4.25093 -5.9271,1.27114 -8.88548,1.36195 -8.88548,0.27275 z m 137.53703,-5.26007 c -2.6169,-3.3309 -4.58144,-6.23275 -4.36563,-6.44855 0.63486,-0.63487 12.29798,9.62542 12.65192,11.13016 0.18869,0.80218 -0.47861,1.37457 -1.60248,1.37457 -1.16532,0 -3.80471,-2.39154 -6.68381,-6.05618 z m -237.991632,3.12963 c -0.350837,-0.56766 -0.193497,-1.82892 0.349644,-2.80278 1.653994,-2.96566 10.876147,-11.44991 11.445096,-10.52933 0.539917,0.8736 -8.707018,13.5036 -10.294963,14.06145 -0.474041,0.16653 -1.148941,-0.16167 -1.499777,-0.72934 z m 70.454603,-0.47952 c -7.537401,-2.83899 -9,-3.58154 -9,-4.56918 0,-2.30179 8.577472,0.4521 13.5,4.33432 2.539194,2.00257 0.478706,2.1101 -4.5,0.23486 z m 132.570029,-1.48062 c -0.30141,-0.48768 0.0282,-1.36492 0.73248,-1.94941 1.90516,-1.58114 11.98429,-6.14287 13.59753,-6.15413 1.56031,-0.0109 -4.88035,4.89445 -9.69623,7.38483 -3.59932,1.86129 -3.89891,1.90775 -4.63378,0.71871 z M 55.426408,345.14235 c -2.325211,-2.08721 -5.724683,-5.01221 -7.554382,-6.5 -3.895969,-3.16794 -3.015677,-3.60301 1.326725,-0.65571 1.65,1.11989 4.558531,2.70909 6.463402,3.53154 4.202494,1.81449 7.036598,4.26093 7.036598,6.07409 0,2.41665 -2.962756,1.41855 -7.272343,-2.44992 z m 57.284262,2.16737 c 0.0224,-1.64068 6.61746,-12.7489 7.80393,-13.14439 2.01591,-0.67197 1.31706,1.88973 -1.87077,6.85754 -3.11168,4.84913 -5.95468,7.86161 -5.93316,6.28685 z m 9.98808,-3.41237 c 4.72818,-4.15519 7,-4.95767 7,-2.47261 0,1.75666 -7.18063,6.53132 -9.73013,6.4699 -1.25599,-0.0303 -0.46331,-1.19086 2.73013,-3.99729 z m -28.340992,-1.45546 c -5.417873,-5.65441 -7.544865,-11.62747 -3.552135,-9.97518 1.610349,0.66641 9.295817,13.40122 8.542351,14.15468 -0.276815,0.27682 -2.522413,-1.60396 -4.990216,-4.1795 z m -82.066596,2.64491 c -0.590674,-0.95573 1.28007,-2.76055 5.744353,-5.54194 3.307351,-2.06058 4.693724,-1.40169 2.390859,1.13629 -2.390816,2.6349 -7.514654,5.40974 -8.135212,4.40565 z m 96.470978,-5.70839 c -0.0597,-5.70189 1.85839,-10.99474 3.19853,-8.82636 0.65785,1.06443 -0.66086,8.73389 -2.12956,12.38523 -0.84448,2.09948 -1.01574,1.52931 -1.06897,-3.55887 z m -7.63009,-0.19113 c -2.095192,-4.93052 -2.970487,-10.25 -1.686586,-10.25 1.706316,0 3.043306,2.31676 3.751116,6.5 0.37225,2.2 0.89284,4.7875 1.15688,5.75 0.91058,3.31936 -1.6317,1.74099 -3.22141,-2 z m 117.5667,0.38083 c 0,-0.96989 2.5715,-1.69896 8.81772,-2.5 10.80367,-1.38552 11.86269,-1.40547 10.63228,-0.20036 -1.12732,1.10414 -13.52367,4.06953 -17.01205,4.06953 -1.39687,0 -2.43795,-0.58468 -2.43795,-1.36917 z m 40.21512,-0.57029 c -3.45669,-0.98834 -6.52107,-2.03316 -6.80974,-2.32182 -0.97697,-0.97698 17.08485,0.5133 18.34462,1.51362 3.9707,3.1529 -1.89654,3.564 -11.53488,0.8082 z M 8.1700398,336.89083 c -1.1412168,-1.84653 0.6592528,-2.79816 8.3582242,-4.41769 10.124474,-2.12975 10.666919,-1.89571 3.150958,1.35946 -9.070684,3.92851 -10.7032127,4.36231 -11.5091822,3.05823 z m 48.6184752,-3.02019 c -7.666054,-2.72126 -7.589508,-3.28379 0.3345,-2.45824 8.244949,0.85899 9.575736,1.29424 9.575736,3.13187 0,1.88219 -3.352154,1.65434 -9.910236,-0.67363 z m 162.660235,-1.62269 c -0.9625,-0.25152 -1.75,-1.09932 -1.75,-1.88399 0,-1.9428 4.19579,-1.73994 11,0.53182 l 5.5,1.83632 -6.5,-0.0134 c -3.575,-0.007 -7.2875,-0.21921 -8.25,-0.47074 z m 38.75,-2.03606 c 1.76548,-1.7193 9.38942,-4.25427 10.97029,-3.64764 1.94302,0.74561 1.96216,1.99311 0.0419,2.72998 -3.01656,1.15757 -12.02978,1.90865 -11.01218,0.91766 z m -28.78836,-4.71504 c -7.2473,-4.01621 -9.46938,-6.05482 -7.44607,-6.83124 1.40408,-0.53879 13.92329,7.4667 14.56776,9.31546 0.51209,1.46898 -0.83782,0.9981 -7.12169,-2.48422 z m 22.28836,2.87407 c 0,-0.3115 2.90723,-3.53134 6.46052,-7.15521 5.37511,-5.48188 6.70918,-6.38248 7.94056,-5.36053 2.19282,1.81989 1.22051,3.09303 -6.36336,8.3321 -6.72904,4.64854 -8.03772,5.32971 -8.03772,4.18364 z M 17.198751,327.26265 c -7.7752597,-0.65782 -10.5000004,-1.40276 -10.5000004,-2.87068 0,-0.80008 0.4018661,-1.45469 0.8930357,-1.45469 2.5114747,0 16.7365427,3.32127 17.5569647,4.0992 0.951396,0.90212 0.268958,0.92154 -7.95,0.22617 z m 231.499999,-1.53141 c 0,-2.32829 6.48783,-16.35939 7.99516,-17.29097 2.36383,-1.46092 2.89054,1.80649 0.87603,5.43431 -3.66676,6.60326 -8.87119,13.55917 -8.87119,11.85666 z M 51.698751,325.59328 c 0,-1.11175 13.406965,-5.66161 15.09976,-5.12434 2.615738,0.83021 2.391052,3.32974 -0.34976,3.89094 -3.850526,0.78842 -14.75,1.69983 -14.75,1.2334 z m 77.999999,-0.31638 c -3.8331,-1.51837 -6,-4.71079 -6,-8.83962 0,-5.69695 3.01415,-8.5 9.14014,-8.5 5.53367,0 8.77703,2.94313 9.53429,8.65171 0.42119,3.1751 0.0821,4.24881 -1.93857,6.13789 -2.48466,2.32288 -8.00134,3.63322 -10.73586,2.55002 z m 20.80923,-0.0175 c -1.64664,-0.43432 -5.80923,-7.72755 -5.80923,-10.17834 0,-0.67362 0.98075,-2.5513 2.17945,-4.17262 4.05346,-5.4826 12.09794,-4.84484 15.81635,1.25391 2.85813,4.68776 2.50857,7.12491 -1.5306,10.67134 -3.37956,2.96729 -6.18279,3.60541 -10.65597,2.42567 z m 94.83249,-9.07212 c 0.25169,-4.2625 0.65709,-8.34102 0.90089,-9.06338 0.73232,-2.16984 2.45739,-0.27052 2.45739,2.70562 0,4.11252 -2.15807,14.10776 -3.046,14.10776 -0.42344,0 -0.56396,-3.4875 -0.31228,-7.75 z m -228.097668,2.3172 c -6.263798,-3.47361 -8.0446275,-5.5672 -4.735523,-5.5672 2.053969,0 9.664934,5.56685 10.595748,7.75 0.293125,0.6875 0.434578,1.22077 0.314339,1.18504 -0.120238,-0.0357 -2.898792,-1.55125 -6.174564,-3.36784 z m 32.455949,2.66415 c 0,-1.13876 5.981119,-6.7253 8.684259,-8.11136 5.785747,-2.96668 5.839982,0.4341 0.06395,4.01018 -6.262048,3.87698 -8.748209,5.0425 -8.748209,4.10118 z m 180.749999,-3.86341 c -3.9768,-4.77699 -4.58129,-6.36794 -2.41952,-6.36794 1.41572,0 7.66952,8.08355 7.66952,9.91348 0,1.99045 -1.46498,1.00109 -5.25,-3.54554 z m 7.11006,-2.37034 c -1.71139,-5.3137 -1.97542,-7.28224 -1.09483,-8.16283 0.8806,-0.8806 1.37827,-0.57857 2.06368,1.25239 1.09773,2.9324 2.51891,13.91284 1.80071,13.91284 -0.28285,0 -1.52916,-3.15108 -2.76956,-7.0024 z m -66.21404,3.55015 c -2.82721,-2.62018 -3.58721,-7.92061 -1.6537,-11.53341 1.54066,-2.87873 7.13139,-4.32739 11.82401,-3.0638 4.71388,1.26932 6.78087,5.05258 5.75324,10.53031 -1.2007,6.40026 -10.76896,8.84401 -15.92355,4.0669 z m -66.62631,0.1678 c -8.683424,-4.39359 -5.075655,-17.71555 4.79761,-17.71555 5.50566,0 10.31939,4.4104 10.01037,9.17163 -0.292,4.49885 -2.33744,7.46182 -6.0429,8.75355 -3.95678,1.37934 -5.70742,1.33747 -8.76508,-0.20963 z m -57.08412,-6.96555 c 2.643026,-4.78634 4.6085,-7.25 5.783939,-7.25 0.97926,0 1.780472,0.51062 1.780472,1.1347 0,1.59535 -9.275635,13.3653 -10.532896,13.3653 -0.56924,0 0.766579,-3.2625 2.968485,-7.25 z m -25.358042,1.01718 c -4.861695,-5.55765 -5.675497,-7.78497 -2.827547,-7.73882 1.035947,0.0168 3.178106,2.35245 5.25,5.72424 4.300745,6.999 4.40908,7.2474 3.160881,7.2474 -0.553183,0 -3.065683,-2.35477 -5.583334,-5.23282 z m 17.422453,-2.98539 c 0,-8.48741 0.55477,-10.78179 2.606989,-10.78179 1.728496,0 1.808261,3.95307 0.225462,11.17371 -1.788598,8.15948 -2.832451,8.01504 -2.832451,-0.39192 z m -8.948376,-2.34848 c -1.605886,-4.54887 -1.998461,-6.88647 -1.277572,-7.60736 0.720889,-0.72089 1.337897,-0.46994 2.007957,0.81669 0.985072,1.8915 2.680293,13.35736 1.974878,13.35736 -0.212863,0 -1.430232,-2.95501 -2.705263,-6.56669 z m 166.179345,3.72691 c -2.49806,-0.72686 -6.21402,-5.70196 -6.22438,-8.33349 -0.004,-0.92031 1.15841,-3.05781 2.5823,-4.75 3.15363,-3.74787 8.09966,-4.14676 12.50674,-1.00864 5.51356,3.92601 3.18727,13.1532 -3.59563,14.26196 -1.65,0.26972 -4.02106,0.1933 -5.26903,-0.16983 z M 81.448729,308.91409 c -3.623392,-2.22829 -5.760279,-9.18043 -4.128693,-13.43228 0.764186,-1.99143 6.632179,-4.54453 10.445075,-4.54453 7.094955,0 11.382773,9.70604 6.73911,15.25486 -2.582335,3.08569 -9.962105,4.6243 -13.055492,2.72195 z m 53.534151,-6.67807 c -3.31579,-0.64179 -7.28795,-5.9068 -7.26189,-9.62547 0.0467,-6.66582 7.13732,-10.50667 14.08425,-7.62916 7.21468,2.98842 6.87497,13.39438 -0.53838,16.49188 -1.92713,0.80521 -3.63083,1.40273 -3.78599,1.32783 -0.15517,-0.0749 -1.27926,-0.32919 -2.49799,-0.56508 z m 19.19903,-4.61558 c -4.37877,-4.37877 -4.54072,-7.77944 -0.56008,-11.76008 2.3655,-2.36551 3.78227,-2.92308 7.42742,-2.92308 3.65192,0 4.88876,0.48872 6.5357,2.58246 2.79363,3.55152 3.33336,5.70985 2.1839,8.73316 -1.15304,3.03272 -4.28662,5.22038 -8.83694,6.16937 -2.84309,0.59294 -3.71867,0.2295 -6.75,-2.80183 z m 60.62507,2.46971 c -2.44963,-0.70868 -6.10823,-6.28534 -6.10823,-9.31054 0,-2.61175 4.67036,-7.54616 7.68842,-8.1231 5.54632,-1.06025 12.31158,4.14606 12.31158,9.47454 0,2.87515 -4.02036,7.7905 -6.39602,7.81988 -0.60719,0.008 -2.00398,0.1976 -3.10398,0.42241 -1.1,0.22481 -3.0763,0.0974 -4.39177,-0.28319 z m -106.01183,-5.37702 c -6.42907,-3.41261 -8.22594,-10.66608 -3.56327,-14.38396 3.62784,-2.89275 6.48774,-3.37066 10.96322,-1.83206 4.46102,1.53362 6.42995,3.9684 6.47185,8.00308 0.0622,5.98798 -8.50627,11.06102 -13.8718,8.21294 z m -48.954678,-2.32281 c -3.163922,-4.02228 -3.688226,-8.23994 -1.407563,-11.32288 6.068759,-8.20358 18.265842,-5.14419 18.265842,4.58162 0,5.2556 -4.493828,9.28822 -10.350497,9.28822 -3.635712,0 -4.890692,-0.49116 -6.507782,-2.54696 z m 119.157308,0.0439 c -2.7204,-1.90545 -4.6462,-7.63976 -3.82357,-11.38519 0.5018,-2.28466 1.59308,-3.24807 5.26961,-4.65215 4.48131,-1.71143 4.75568,-1.70691 8.18448,0.13482 4.03062,2.16499 6.52154,6.4722 5.68061,9.82273 -0.3133,1.24831 -1.76512,3.46513 -3.22627,4.92627 -3.06728,3.06729 -8.59876,3.59528 -12.08486,1.15352 z m -92.572609,-9.45027 c -1.963928,-1.75493 -3.024331,-3.84733 -3.410972,-6.73056 -0.486094,-3.62488 -0.207195,-4.51189 2.087236,-6.6383 3.552754,-3.29258 6.739161,-3.74147 11.482852,-1.61765 4.470593,2.00154 6.114463,4.40019 6.114463,8.92189 0,7.12718 -10.645003,11.09422 -16.273579,6.06462 z m 113.532139,-1.5339 c -1.92669,-0.83749 -3.89741,-2.78456 -4.85868,-4.80036 -1.49591,-3.13696 -1.49157,-3.63438 0.0579,-6.63065 1.57897,-3.05338 6.52522,-6.08172 9.93342,-6.08172 2.67484,0 7.5216,5.01805 8.16637,8.45498 0.81431,4.34064 -0.87548,7.36209 -5.1059,9.12968 -4.07419,1.7023 -4.11213,1.70197 -8.19307,-0.0719 z m 33.16164,-0.60486 c -2.49556,-1.27387 -5.4202,-5.95598 -5.4202,-8.67734 0,-1.07847 0.93266,-3.14654 2.07258,-4.59571 1.66396,-2.11538 2.91889,-2.63486 6.36514,-2.63486 6.26411,0 9.56228,2.89088 9.56228,8.38145 0,2.32996 -0.57829,5.02715 -1.28509,5.99375 -1.53933,2.10517 -8.3599,3.03071 -11.29471,1.53267 z m -83.41485,-3.70214 c -3.48895,-1.68975 -5.02243,-4.62528 -4.97355,-9.52083 0.0507,-5.07638 3.9989,-8.6849 9.50246,-8.6849 4.06211,0 9.46574,5.87372 9.46574,10.28922 0,6.91882 -7.40527,11.10784 -13.99465,7.91651 z m -26.54007,-2.15725 c -6.30796,-2.55687 -7.98655,-13.65047 -2.67597,-17.68518 2.05807,-1.56361 9.58531,-1.76836 12.26608,-0.33366 2.55303,1.36635 4.94461,6.14588 4.94461,9.88174 0,6.06422 -8.25172,10.68384 -14.53472,8.1371 z m -77.366417,-2.64993 c -1.125465,-1.43079 -2.338792,-4.16057 -2.696284,-6.06616 -0.546394,-2.91253 -0.209437,-3.92455 2.114261,-6.34997 5.602385,-5.84763 12.364357,-4.7659 15.574658,2.49152 1.831072,4.13944 1.864339,4.71078 0.435213,7.47441 -1.94948,3.76984 -4.331629,5.05161 -9.388388,5.05161 -3.109831,0 -4.445825,-0.57547 -6.03946,-2.60145 z M 176.0013,269.77895 c -2.55239,-1.27815 -5.30255,-6.53682 -5.30255,-10.13921 0,-3.16219 6.10177,-8.70246 9.58446,-8.70246 6.84827,0 12.08228,7.35847 9.81655,13.80104 -1.51192,4.29913 -9.71933,7.23353 -14.09846,5.04063 z M 72.118951,265.81731 c -2.564085,-1.27448 -5.4202,-5.94382 -5.4202,-8.86125 0,-1.19494 1.315385,-3.48801 2.923077,-5.0957 3.828086,-3.82809 8.745485,-3.98179 12.341519,-0.38576 3.56689,3.56689 4.167958,6.91878 2.026259,11.29955 -1.580205,3.23225 -2.261355,3.68747 -5.790855,3.87003 -2.2,0.11379 -4.93591,-0.2583 -6.0798,-0.82687 z m 141.139709,-0.81383 c -2.32058,-2.56421 -4.42738,-8.85701 -3.78618,-11.30894 0.70563,-2.69833 6.03611,-5.74901 10.05319,-5.75352 4.7406,-0.005 9.17308,4.58332 9.17308,9.49626 0,5.21282 -4.40816,9.5 -9.76809,9.5 -2.60719,0 -4.50861,-0.64827 -5.672,-1.9338 z m 31.22495,-2.61991 c -3.1587,-1.71437 -5.46343,-8.30985 -3.9149,-11.2033 2.92034,-5.4567 8.50507,-7.14376 13.1746,-3.97983 6.07738,4.11786 6.4062,11.27186 0.6786,14.76412 -3.80729,2.3214 -6.2439,2.42413 -9.9383,0.41901 z m -144.03488,-1.5264 c -2.396139,-1.39562 -4.749979,-6.21443 -4.749979,-9.72421 0,-1.69612 1.019798,-4.00402 2.452251,-5.54966 1.970708,-2.12642 3.360398,-2.64602 7.076918,-2.64602 6.09542,0 10.47083,3.96973 10.47083,9.5 0,5.18662 -4.41767,9.51135 -9.67308,9.46959 -2.1048,-0.0167 -4.61443,-0.48909 -5.57694,-1.0497 z m 38.60702,-5.91147 c -2.71424,-1.09533 -5.357,-4.82323 -5.357,-7.55661 0,-3.408 4.06658,-6.45635 8.56445,-6.42001 6.5063,0.0526 10.22179,4.41434 8.34539,9.79699 -1.46083,4.19054 -6.76796,6.11057 -11.55284,4.17963 z m 16.66353,-3.98644 c -3.96934,-4.24919 -4.00112,-8.19523 -0.0975,-12.0989 3.25355,-3.25356 5.54879,-3.58841 10.47835,-1.52871 9.84182,4.11217 8.04557,15.12463 -2.66389,16.33175 -4.31805,0.4867 -4.93985,0.26882 -7.71701,-2.70414 z m 37.6589,-0.9911 c -1.92592,-2.28884 -2.67943,-4.30612 -2.67943,-7.17335 0,-5.32616 1.30988,-7.47466 5.37502,-8.81628 2.74775,-0.90684 4.18555,-0.80076 7.58556,0.55965 9.747,3.89998 7.16349,16.63388 -3.66957,18.08689 -3.49921,0.46935 -4.22715,0.17682 -6.61158,-2.65691 z M 37.992827,249.6112 c -3.929057,-1.43871 -4.721022,-2.27504 -6.118619,-6.46134 -1.446288,-4.33214 -0.124877,-7.66319 4.049617,-10.20838 4.35123,-2.65295 7.005724,-2.52232 10.624683,0.52283 3.80499,3.20169 4.786048,7.34278 2.69674,11.38305 -1.262047,2.44053 -6.32882,6.37385 -7.746837,6.01384 -0.164813,-0.0418 -1.742326,-0.60434 -3.505584,-1.25 z m 84.975853,-1.43379 c -2.5021,-0.41963 -6.02465,-4.41466 -6.87303,-7.79491 -0.30781,-1.2264 0.16352,-3.62828 1.0474,-5.33752 1.43473,-2.77444 2.08687,-3.1077 6.08138,-3.1077 4.86554,0 7.77267,2.02431 9.52459,6.63222 1.93755,5.09613 -3.69424,10.62864 -9.78034,9.60791 z M 59.1055,245.9641 c -1.979862,-0.80055 -5.406749,-6.49071 -5.406749,-8.97761 0,-2.61603 3.066526,-6.7701 6.272011,-8.49636 4.181378,-2.25182 7.898652,-1.55076 11.31322,2.13362 2.687977,2.90037 3.298269,9.57996 1.132966,12.40019 -2.760415,3.59534 -8.536147,4.87105 -13.311448,2.94016 z m 170.09325,-1.81997 c -4.42868,-0.91524 -9.09546,-7.68134 -7.93659,-11.50683 2.19044,-7.23075 9.80191,-8.9522 15.90179,-3.59643 4.05029,3.5562 4.75224,8.19682 1.7848,11.79941 -1.93225,2.34583 -6.65005,3.94449 -9.75,3.30385 z M 84.679798,239.18728 c -4.25589,-3.83664 -5.10523,-9.42446 -1.943978,-12.78946 1.824809,-1.94242 3.308996,-2.46054 7.048351,-2.46054 4.061723,0 5.105752,0.43848 7.325686,3.07673 4.163413,4.94794 3.166733,10.53886 -2.39109,13.41292 -4.201273,2.17256 -6.579675,1.87887 -10.038969,-1.23965 z m 88.988362,0.014 c -2.72357,-2.4335 -3.28002,-3.62163 -3.16234,-6.75214 0.14355,-3.81829 2.06835,-6.8396 5.54152,-8.69839 1.34932,-0.72214 3.12338,-0.523 6.36302,0.71422 9.85443,3.76345 8.52641,15.42351 -1.9503,17.12365 -2.89531,0.46984 -4.04738,0.0649 -6.7919,-2.38734 z m 79.43029,-0.0293 c -2.9059,-1.94033 -4.16534,-7.77801 -2.78691,-12.91779 0.77076,-2.87393 6.73915,-5.69402 10.22196,-4.82991 4.42204,1.09714 7.16525,4.39176 7.16525,8.60554 0,5.13308 -0.77455,6.73953 -4.07152,8.44446 -2.99672,1.54966 -8.68803,1.9268 -10.52878,0.6977 z m -147.66354,-7.4847 c -1.73477,-1.31733 -3.73616,-5.8245 -3.73616,-8.41389 0,-0.84353 1.39759,-2.83923 3.10576,-4.4349 4.11736,-3.84619 8.1104,-3.8389 11.97116,0.0219 3.51569,3.51569 3.82389,7.662 0.8505,11.44206 -1.65632,2.10567 -2.92341,2.63486 -6.30887,2.63486 -2.32996,0 -4.97704,-0.5625 -5.88239,-1.25 z m 27.26384,-0.044 c -7.91429,-4.00312 -5.31412,-15.18353 3.81596,-16.40813 7.05362,-0.94609 11.18404,2.67121 11.18404,9.79465 0,6.44291 -8.1944,10.05582 -15,6.61348 z m 21.77514,-2.26479 c -5.39568,-2.92813 -6.1965,-7.70527 -1.97042,-11.75411 5.6173,-5.38171 14.19528,-2.55484 14.19528,4.67805 0,7.11141 -5.88391,10.51717 -12.22486,7.07606 z m 51.12607,-1.54696 c -2.37379,-2.54114 -2.90121,-3.98519 -2.90121,-7.94329 0,-5.73949 2.27148,-7.95095 8.16674,-7.95095 5.38781,0 8.89216,3.34297 9.54127,9.10185 0.4686,4.15742 0.24542,4.75955 -2.6751,7.217 -4.38098,3.68635 -8.42366,3.54486 -12.1317,-0.42461 z M 28.21957,222.54901 c -1.31355,-1.31355 -2.709398,-4.10002 -3.101884,-6.19215 -0.965574,-5.14695 1.05867,-8.54104 6.152665,-10.31629 3.557185,-1.23967 4.409385,-1.20615 7.579542,0.29819 9.699704,4.60281 6.599578,18.59852 -4.119673,18.59852 -3.012443,0 -4.765412,-0.64303 -6.51065,-2.38827 z m 158.95494,-1.98498 c -3.10685,-1.37697 -5.47576,-5.16268 -5.47576,-8.75073 0,-3.16833 5.32411,-7.87602 8.9073,-7.87602 4.40069,0 9.18643,4.53667 9.30742,8.82302 0.17506,6.20221 -6.76292,10.45234 -12.73896,7.80373 z M 51.775476,217.34839 c -4.327322,-3.64121 -4.347195,-9.29449 -0.04779,-13.5939 2.660215,-2.66021 3.481917,-2.94617 6.75,-2.3491 7.480305,1.36666 10.113106,4.96334 8.791198,12.00972 -1.259683,6.71469 -9.654991,8.84598 -15.493412,3.93328 z m 180.287354,1.46571 c -1.17475,-0.59435 -2.63725,-2.18095 -3.25,-3.52578 -4.16225,-9.13514 4.86055,-17.50914 14.25411,-13.22914 4.28761,1.95356 5.14391,11.10892 1.37058,14.65379 -2.66353,2.50225 -9.34092,3.63602 -12.37469,2.10113 z M 76.480364,215.68231 c -5.754908,-4.7528 -5.56463,-11.0777 0.443461,-14.74083 4.674192,-2.84986 8.369625,-2.56335 11.851849,0.91888 8.380412,8.38041 -3.166559,21.36111 -12.29531,13.82195 z M 168.0831,215.5029 c -4.29463,-1.86925 -6.06656,-6.86818 -3.71547,-10.48201 3.95666,-6.08174 8.7195,-6.78762 12.83082,-1.90159 3.24884,3.86102 2.86037,8.12301 -1.05439,11.56798 -2.94098,2.58804 -3.79116,2.67406 -8.06096,0.81562 z m -49.11841,-2.46991 c -1.74889,-1.59735 -3.48166,-4.10703 -3.85061,-5.57704 -1.43362,-5.71201 4.25793,-10.36535 11.10653,-9.08055 2.94932,0.5533 3.92096,1.41983 5.70152,5.08476 1.9378,3.98858 2.00692,4.67859 0.71147,7.10209 -1.34406,2.51446 -6.22956,5.37503 -9.17987,5.37503 -0.72009,0 -2.74016,-1.30693 -4.48904,-2.90429 z M 256.406,212.92164 c -1.40936,-1.1086 -3.08925,-3.61181 -3.7331,-5.5627 -1.24491,-3.77209 -0.50369,-5.35873 4.50783,-9.64942 5.06299,-4.33477 14.51802,0.69803 14.51802,7.72776 0,3.19352 -2.99661,7.30317 -6.11884,8.39158 -4.49332,1.56638 -6.2501,1.39266 -9.17391,-0.90722 z M 99.355053,212.80475 c -2.659382,-1.54587 -4.743145,-7.18325 -4.010048,-10.84874 1.155672,-5.77836 9.511515,-7.95187 13.858535,-3.60485 5.03806,5.03806 4.00832,11.63563 -2.22267,14.24075 -3.82972,1.60117 -5.17294,1.63866 -7.625817,0.21284 z m 43.478497,-4.50891 c -4.12396,-3.75461 -4.95735,-8.04314 -2.23546,-11.50346 3.63626,-4.62275 9.06655,-4.43874 14.35066,0.48628 5.24847,4.89181 2.30855,12.04461 -5.46932,13.30679 -2.90616,0.4716 -4.04338,0.0798 -6.64588,-2.28961 z m 63.30843,-0.12387 c -2.02359,-1.40683 -3.67812,-7.16907 -3.03809,-10.58074 0.86747,-4.624 3.88439,-7.1085 8.63184,-7.1085 10.0924,0 14.77727,11.54849 6.68618,16.48183 -3.19323,1.947 -10.22203,2.63809 -12.27993,1.20741 z m -20.2137,-7.34549 c -3.53924,-1.30924 -6.51097,-6.57547 -5.81226,-10.29993 0.75023,-3.99905 2.98218,-6.10741 7.33316,-6.92709 4.42662,-0.83393 7.84973,0.66393 9.70167,4.2452 2.15935,4.17572 1.9402,6.47295 -0.94456,9.90129 -2.58983,3.07784 -6.84095,4.35199 -10.27801,3.08053 z m -156.910928,-4.5997 c -3.022341,-2.47936 -3.920222,-8.22541 -1.896751,-12.13837 3.002467,-5.80614 8.703292,-6.81285 13.597103,-2.40113 6.829426,6.15666 4.020005,14.99201 -5.051949,15.88788 -3.296957,0.32558 -5.03838,-0.0276 -6.648403,-1.34838 z m 136.681398,0.004 c -3.38152,-1.23613 -6,-4.68918 -6,-7.91232 0,-6.34885 5.90886,-10.13209 12.53844,-8.02794 2.48906,0.78999 5.4728,5.62616 5.42976,8.80078 -0.0726,5.35486 -6.44738,9.15765 -11.9682,7.13948 z m 65.11007,-1.68928 c -5.08932,-2.82079 -6.54414,-9.51164 -3.03749,-13.96963 1.72275,-2.19012 2.87963,-2.63486 6.85398,-2.63486 9.73055,0 13.82703,8.91825 7.00488,15.25 -3.24829,3.01479 -6.98254,3.4822 -10.82137,1.35449 z M 53.550809,192.51661 c -7.352343,-7.35234 -1.833722,-17.11168 8.57226,-15.15951 3.004872,0.56372 4.003582,1.36004 5.151592,4.10762 1.98725,4.75615 1.811995,6.01071 -1.32591,9.49151 -3.93926,4.36973 -8.957067,5.00126 -12.397942,1.56038 z m 27.647942,0.47531 c -2.992412,-1.22477 -5.400085,-4.30507 -6.099866,-7.80397 -0.88234,-4.4117 3.009284,-8.26324 8.304411,-8.21887 4.145643,0.0347 6.341924,1.29125 8.132112,4.65246 2.005587,3.76563 1.377692,6.95759 -1.913382,9.72685 -3.188367,2.68283 -5.013797,3.03901 -8.423275,1.64353 z m 22.888119,0.003 c -6.025342,-2.54249 -8.661472,-12.35205 -4.165613,-15.50108 2.547733,-1.7845 6.479443,-2.00072 10.257963,-0.56413 2.92653,1.11267 6.57955,8.0619 5.80165,11.03662 -1.09637,4.19251 -7.47969,6.89127 -11.894,5.02859 z m 20.89974,0.29256 c -2.22996,-0.90469 -5.10602,-6.79026 -4.76499,-9.75105 0.46084,-4.00098 3.43916,-6.65038 8.19278,-7.28798 4.94688,-0.66351 8.67611,1.50515 10.22407,5.9456 1.47999,4.2455 -0.28686,9.54438 -3.60284,10.80511 -2.57549,0.9792 -7.96495,1.13383 -10.04902,0.28832 z m 127.43267,-4.77267 c -1.98647,-1.98647 -3.17185,-7.64334 -2.3161,-11.05291 1.31079,-5.22261 10.52733,-7.22492 15.07357,-3.27476 3.81231,3.31246 4.38601,8.634 1.31562,12.20354 -3.04951,3.54527 -11.39268,4.80455 -14.07309,2.12413 z M 143.33361,184.8647 c -2.11946,-1.66716 -2.63486,-2.91695 -2.63486,-6.38922 0,-5.44067 2.33454,-8.41244 7.22346,-9.19515 3.30568,-0.52924 4.11916,-0.20043 7.25,2.93041 4.61273,4.61273 4.75727,8.51316 0.44981,12.13765 -3.7829,3.1831 -8.63876,3.38713 -12.28841,0.51631 z m 57.01116,-2.37967 c -2.09909,-1.94538 -2.64602,-3.37389 -2.64602,-6.91111 0,-3.75136 0.48819,-4.86964 3.07673,-7.04775 4.04726,-3.40555 9.126,-3.47707 12.42806,-0.17501 4.82842,4.82842 4.47653,11.40737 -0.78163,14.6134 -4.42608,2.6987 -8.83674,2.52357 -12.07714,-0.47953 z m -24.62631,-2.8322 c -5.32566,-2.69465 -6.65265,-10.28592 -2.38485,-13.64297 6.25565,-4.92069 15.36514,-0.94531 15.36514,6.70536 0,6.82723 -6.41847,10.25773 -12.98029,6.93761 z m -59.01971,-3.42181 c -3.82537,-0.8814 -7.10229,-9.25763 -5.37882,-13.74894 0.81269,-2.11783 5.58095,-4.5448 8.92916,-4.5448 4.00386,0 9.44966,5.88481 9.44966,10.21144 0,3.97699 -3.01844,7.7519 -6.28896,7.86507 -1.21607,0.0421 -2.88604,0.18594 -3.71104,0.31968 -0.825,0.13374 -2.175,0.0876 -3,-0.10245 z m -83.711212,-2.0941 c -2.094356,-1.33097 -4.477418,-8.3099 -3.787419,-11.09167 1.577204,-6.35857 7.378153,-8.77299 13.487588,-5.61368 6.532303,3.37798 7.888431,9.78217 3.087967,14.58263 -2.337907,2.33791 -3.789282,2.92001 -7.25,2.90777 -2.379808,-0.008 -4.871969,-0.3617 -5.538136,-0.78505 z m 52.972583,-1.72912 c -1.790422,-1.25406 -4.23213,-6.78707 -4.255793,-9.64379 -0.0031,-0.37031 1.159425,-2.05781 2.583317,-3.75 3.768358,-4.47844 8.522965,-4.29819 13.043029,0.49447 4.791886,5.08089 4.510376,10.26961 -0.703444,12.96579 -3.653146,1.88911 -7.91302,1.86257 -10.667109,-0.0665 z m 139.229409,0.50865 c -4.81397,-1.79694 -7.61279,-8.85619 -5.51715,-13.9155 3.58791,-8.66199 18.42637,-5.16955 18.42637,4.3369 0,5.96991 -7.55636,11.57671 -12.90922,9.5786 z M 62.679798,168.18728 c -1.946808,-1.75503 -3.263461,-4.09 -3.639091,-6.45361 -0.508461,-3.19944 -0.173885,-4.11831 2.457807,-6.75 3.686933,-3.68693 7.983192,-4.00606 12.178137,-0.90461 6.095003,4.50623 6.393386,11.22957 0.655744,14.77562 -4.56061,2.81862 -8.004447,2.62137 -11.652597,-0.6674 z m 91.920162,-1.35576 c -4.5137,-4.83193 -3.74011,-10.78925 1.78305,-13.7309 3.34517,-1.78165 5.87476,-1.40528 9.1655,1.36369 6.82834,5.74568 3.90299,15.35948 -4.69855,15.44117 -2.48122,0.0236 -4.10041,-0.77281 -6.25,-3.07396 z m -21.15121,-0.6091 c -2.95013,-3.10523 -3.4005,-6.12067 -1.65989,-11.11379 2.21508,-6.35417 13.25121,-6.18653 16.30444,0.24767 2.17529,4.58409 2.02029,6.99684 -0.64455,10.0328 -1.54831,1.76393 -3.65338,2.74493 -6.75,3.14562 -4.03875,0.5226 -4.78187,0.28559 -7.25,-2.3123 z m 54.92204,-2.32847 c -3.35332,-2.63773 -4.35365,-7.73791 -2.29753,-11.71401 1.7175,-3.32127 3.38109,-4.24266 7.66022,-4.24266 6.19094,0 9.9843,3.73507 9.94996,9.79705 -0.0181,3.201 -0.65733,4.25268 -3.9572,6.51091 -3.3363,2.28317 -8.19745,2.13279 -11.35545,-0.35129 z m 57.54346,-0.59811 c -4.17859,-3.9047 -4.57399,-6.13896 -1.91883,-10.8425 2.45207,-4.34378 5.98074,-6.16522 9.99297,-5.15821 9.5324,2.39248 8.43433,16.70694 -1.40236,18.28113 -3.03442,0.4856 -4.10239,0.12057 -6.67178,-2.28042 z m -143.46552,-5.43867 c -2.13424,-1.24308 -4.749979,-6.09707 -4.749979,-8.81447 0,-1.09664 1.086271,-3.25648 2.413939,-4.79965 2.04906,-2.38167 3.13321,-2.79066 7.17257,-2.70579 3.8628,0.0812 5.19679,0.60935 7.08607,2.80576 3.0554,3.55211 2.96152,7.68722 -0.26147,11.51753 -2.03735,2.42125 -3.36888,3.07025 -6.25,3.04632 -2.01361,-0.0167 -4.44862,-0.48909 -5.41113,-1.0497 z m -56.79587,-5.14056 c -5.794275,-4.79515 -6.570892,-11.46661 -1.848354,-15.87812 4.241498,-3.96215 8.995162,-3.95414 12.971168,0.0219 2.358106,2.35811 2.923077,3.78629 2.923077,7.38922 0,6.08299 -2.313487,8.76386 -8.039461,9.31613 -2.747817,0.26503 -5.054118,-0.061 -6.00643,-0.8491 z m 32.795869,-1.85944 c -4.15615,-2.42073 -6.165644,-11.47163 -3.36569,-15.15928 0.726375,-0.95666 2.962064,-2.4252 4.968197,-3.26342 3.174398,-1.32635 4.084546,-1.34142 7.016822,-0.11624 4.184646,1.74846 6.640485,5.13196 6.59889,9.09156 -0.0736,7.00619 -9.433419,12.81671 -15.218219,9.44738 z m 92.027991,-0.66989 c -0.84261,-0.9625 -2.12196,-3.42149 -2.84301,-5.46442 -1.56099,-4.4227 -0.23377,-7.87277 3.72196,-9.67512 10.38822,-4.73319 19.26433,6.12214 11.42,13.96646 -3.48533,3.48533 -9.75151,4.083 -12.29895,1.17308 z m 35.29461,-0.88486 c -2.83616,-3.60559 -2.87636,-11.56136 -0.0726,-14.36514 3.84038,-3.84038 12.90973,-2.00902 15.575,3.14503 2.86081,5.5322 0.90056,10.58306 -4.97414,12.81662 -4.74113,1.80258 -8.27622,1.26652 -10.52828,-1.59651 z m -81.7085,-1.48231 c -2.57143,-1.30822 -4.36408,-4.93985 -4.36408,-8.84099 0,-3.90946 4.94445,-8.04184 9.62218,-8.04184 5.0951,0 8.37782,3.64389 8.37782,9.29956 0,3.06139 -0.58194,4.91712 -1.92238,6.1302 -2.35118,2.12778 -8.81196,2.92925 -11.71354,1.45307 z m 25.69066,-3.14981 c -1.34489,-0.68063 -3.30396,-2.70781 -4.35349,-4.50485 -5.21767,-8.93388 6.01366,-16.54616 14.22202,-9.63927 5.13185,4.31816 3.89238,11.3367 -2.47164,13.99576 -4.08738,1.70781 -4.30676,1.71222 -7.39689,0.14836 z m 82.99611,-3.3955 c -3.11717,-3.96284 -3.47889,-6.80367 -1.40029,-10.99731 2.24473,-4.5288 5.64155,-5.87718 11.10178,-4.40689 4.48194,1.20686 6.64766,4.35969 6.64766,9.67761 0,7.50585 -11.72037,11.61113 -16.34915,5.72659 z M 98.73977,133.13925 c -5.598539,-2.75472 -6.637509,-9.75932 -2.117942,-14.27889 3.793582,-3.79359 7.088602,-3.72973 11.592402,0.22466 3.16436,2.77835 3.54984,3.62532 3.2848,7.21736 -0.24729,3.35142 -0.89993,4.47245 -3.69816,6.35226 -4.00145,2.68811 -4.52584,2.71615 -9.0611,0.48461 z m 91.37918,0.65348 c -2.35705,-1.14371 -5.4202,-5.83966 -5.4202,-8.3094 0,-5.37715 6.67386,-11.16798 11.48059,-9.96156 3.3768,0.84752 8.51941,6.89356 8.51941,10.01605 0,6.89303 -8.02389,11.43606 -14.5798,8.25491 z M 56.621828,131.01421 c -4.264524,-4.26453 -4.046747,-8.88315 0.611719,-12.97333 1.944138,-1.70698 4.23863,-3.1036 5.098871,-3.1036 3.349034,0 8.599137,3.42035 10.10849,6.58549 4.273517,8.96166 -8.615474,16.69504 -15.81908,9.49144 z m 110.058832,-6.8905 c -3.0842,-2.49742 -3.83287,-10.72104 -1.26869,-13.93558 4.19867,-5.26359 13.18034,-4.12897 16.10727,2.03476 4.02293,8.47179 -7.58057,17.77801 -14.83858,11.90082 z m -45.95297,-2.00364 c -2.26323,-2.26323 -3.02894,-3.9498 -3.02894,-6.6716 0,-5.02703 1.38221,-7.15219 5.54543,-8.52618 6.97916,-2.30333 12.45457,1.38061 12.45457,8.37963 0,5.16601 -2.66417,8.13454 -8.22106,9.16025 -3.27208,0.60396 -4.08654,0.32136 -6.75,-2.3421 z m 95.78456,0.88515 c -1.35092,-1.06263 -3.01524,-3.79791 -3.69849,-6.07841 -1.06379,-3.55062 -1.01011,-4.50068 0.37366,-6.61257 3.37721,-5.15428 12.12604,-5.61426 16.26133,-0.85495 2.5353,2.91787 2.75086,4.74277 1.11468,9.43634 -0.76958,2.2076 -2.20893,3.70537 -4.46789,4.64922 -4.49124,1.87656 -6.66738,1.75403 -9.58329,-0.53963 z m -72.19467,-3.21206 c -1.86178,-1.60144 -2.91863,-3.67217 -3.29096,-6.4481 -0.48245,-3.59694 -0.21806,-4.34899 2.19669,-6.24844 6.24528,-4.91254 15.47544,-1.1097 15.47544,6.3759 0,4.56522 -2.7187,7.48322 -7.57955,8.1352 -3.30565,0.44338 -4.56819,0.10655 -6.80162,-1.81456 z m -66.316469,-3.86767 c -2.47517,-0.99678 -5.30236,-5.80379 -5.30236,-9.01547 0,-1.16962 1.315385,-3.44197 2.923077,-5.04966 5.375237,-5.375238 14.257148,-2.809776 15.631276,4.51496 0.774342,4.1276 -0.698694,7.06812 -4.534337,9.05161 -3.256164,1.68383 -5.461299,1.80994 -8.717656,0.49856 z m 118.304229,-9.65668 c -3.20424,-3.45562 -3.96714,-6.709021 -2.56762,-10.949605 1.57251,-4.764743 5.70183,-6.798076 10.94078,-5.387376 4.8789,1.313753 7.02988,4.23098 6.98845,9.47796 -0.0369,4.668611 -1.5293,7.029921 -5.36479,8.488181 -4.43657,1.68678 -7.36456,1.20961 -9.99682,-1.62916 z m -98.856611,-1.41164 c -5.407803,-3.14975 -5.872063,-12.272641 -0.808052,-15.878535 5.062023,-3.604479 10.808753,-2.357959 13.547723,2.938632 2.30182,4.451235 1.87423,7.809985 -1.41273,11.096943 -3.086,3.08599 -7.85935,3.86265 -11.326941,1.84296 z m 73.322601,-6.554746 c -2.49548,-3.172492 -2.77541,-9.916704 -0.54384,-13.102714 2.18411,-3.118253 7.96623,-3.989211 12.01354,-1.809594 5.83866,3.144327 7.08964,9.454294 2.86883,14.470442 -2.23405,2.655012 -3.2521,3.076722 -7.42742,3.076722 -4.03607,0 -5.18226,-0.43698 -6.91111,-2.634856 z m -21.20142,0.384859 c -5.26484,-4.355141 -6.26041,-11.088024 -2.2348,-15.113636 2.57692,-2.576918 4.2902,-3.063272 9.36364,-2.658085 5.30533,0.423708 9.05172,7.125283 7.00001,12.521691 -1.87903,4.942235 -10.58861,8.178557 -14.12885,5.25003 z m -29.38348,-1.405178 c -2.50481,-2.50481 -3.44852,-5.81127 -2.79973,-9.809332 1.46722,-9.041372 13.87246,-10.303531 18.19501,-1.851231 1.88353,3.683059 1.26554,6.367243 -2.28296,9.915741 -2.74137,2.741371 -4.18039,3.4 -7.42857,3.4 -2.41548,0 -4.69133,-0.662754 -5.68375,-1.655178 z"
           id="path572"
           inkscape:connector-curvature="0" />
        <path
           style="fill:#ffff00"
           d="m 239.38085,480.18728 c -0.93572,-1.60984 -1.79222,-14.25 -0.96558,-14.25 1.10686,0 5.08762,12.08757 4.53085,13.75789 -0.4527,1.35811 -2.86812,1.69151 -3.56527,0.49211 z m -9.41304,-4 c 0.29281,-2.0625 1.47584,-5.775 2.62896,-8.25 l 2.09656,-4.5 -0.61189,6.5 c -0.64852,6.88908 -1.75276,10 -3.54954,10 -0.69503,0 -0.90156,-1.37298 -0.56409,-3.75 z m -12.28996,-1.77518 c -0.94148,-1.13441 0.0355,-2.52456 5.05321,-7.19056 9.56009,-8.8899 10.04457,-8.52519 2.55803,1.92565 -4.57272,6.38329 -5.9134,7.31068 -7.61124,5.26491 z m 29.68743,-3.72482 c -1.86565,-2.8875 -3.1951,-5.47123 -2.95435,-5.74163 0.60071,-0.67466 9.28782,8.6163 9.28782,9.93342 0,2.71673 -3.26674,0.55465 -6.33347,-4.19179 z m 5.9634,-6.89022 c -3.723,-2.22967 -6.53858,-4.28446 -6.25685,-4.5662 0.62598,-0.62598 14.4161,4.55629 15.10938,5.67804 0.27254,0.44097 -0.0847,1.28334 -0.79396,1.87194 -0.95817,0.79521 -3.02869,0.0286 -8.05857,-2.98378 z m -43.52298,0.76909 c -1.73902,-2.09539 0.19818,-3.34505 7.89305,-5.0917 4.125,-0.93634 8.625,-2.14966 10,-2.69628 5.76537,-2.29197 -0.0286,1.2309 -8.20025,4.98596 -6.55817,3.01363 -8.94463,3.70351 -9.6928,2.80202 z M 82.737533,458.7606 c 0.06625,-2.26045 6.78898,-15.44159 6.795251,-13.32332 0.01334,4.5074 -3.351815,13.97603 -5.085772,14.30996 -0.96505,0.18586 -1.730887,-0.25615 -1.709479,-0.98664 z m 9.961218,-7.82332 c 0,-5.33333 0.407407,-9 1,-9 0.55,0 1.003911,1.6875 1.008692,3.75 0.0048,2.0625 0.292462,6.1125 0.639291,9 0.535074,4.45472 0.382275,5.25 -1.008692,5.25 -1.397626,0 -1.639291,-1.32679 -1.639291,-9 z m 157.749999,4.69176 c -3.7125,-0.55389 -6.75,-1.38614 -6.75,-1.84942 0,-0.95699 17.99708,-1.16443 20.41821,-0.23535 0.86999,0.33384 1.58179,1.23384 1.58179,2 0,1.62476 -4.75122,1.65117 -15.25,0.0848 z m -173.749999,-0.9778 c 0,-1.39818 7.640664,-11.71396 8.676263,-11.71396 0.278372,0 -1.065217,2.7976 -2.985753,6.2169 -3.454584,6.15049 -5.69051,8.3104 -5.69051,5.49706 z m 24.215909,-2.96396 c -1.032726,-2.3375 -2.185686,-5.6 -2.562134,-7.25 -0.657413,-2.88149 -0.621438,-2.92099 0.910654,-1 2.54737,3.19398 6.40438,11.19785 5.72403,11.87821 -1.31567,1.31567 -2.26,0.47437 -4.07255,-3.62821 z m 108.79205,3.25188 c -3.01057,-0.7107 -2.62209,-2.40697 0.69097,-3.01714 3.94951,-0.72739 16.68093,1.49721 13.30107,2.32414 -3.61916,0.88547 -11.51924,1.27675 -13.99204,0.693 z m -103.79975,-8.28973 c -4.84854,-4.94031 -5.4112,-6.5042 -1.45821,-4.05306 3.56035,2.20767 8.25,6.48691 8.25,7.528 0,1.97003 -2.90834,0.48201 -6.79179,-3.47494 z m 137.79179,4.01466 c 1.53216,-1.55305 15.0752,-7.72681 16.94989,-7.72681 3.97212,0 1.59314,2.42977 -4.52635,4.62299 -6.14184,2.20123 -13.29653,3.98871 -12.42354,3.10382 z M 68.698751,449.02692 c 0,-1.08307 12.981567,-9.44141 13.640425,-8.78255 0.250303,0.2503 -2.153896,2.53026 -5.342664,5.06657 -5.570136,4.43043 -8.297761,5.65194 -8.297761,3.71598 z m 149.432229,-1.49931 c -8.61541,-2.73909 -9.49845,-3.25418 -8.78157,-5.12236 0.73313,-1.9105 4.75401,-1.89022 6.34934,0.032 0.68469,0.825 1.87373,1.5 2.64232,1.5 0.76858,0 3.18848,1.13065 5.37755,2.51254 6.65646,4.20204 5.15199,4.49224 -5.58764,1.07779 z m 24.64208,-0.59033 c 2.3654,-4.77446 9.32642,-14 10.56353,-14 3.26277,0 1.92863,2.67036 -4.63908,9.28538 -3.93966,3.96804 -6.60566,6.08962 -5.92445,4.71462 z m -5.06676,-0.55 c 0.008,-2.08792 1.67748,-13.47914 2.52068,-17.2 0.31828,-1.40453 1.25425,-2.25 2.49082,-2.25 2.69917,0 2.5637,2.64616 -0.61047,11.92482 -2.73157,7.98484 -4.41395,10.8615 -4.40103,7.52518 z m -16.88718,-7.23642 c -5.36179,-4.83559 -6.14746,-5.94621 -4.92448,-6.96119 1.18502,-0.98348 2.01586,-0.60851 4.47584,2.01998 4.32801,4.62449 8.71571,10.73047 7.69696,10.71118 -0.47778,-0.009 -3.73952,-2.60553 -7.24832,-5.76997 z m -112.62037,1.70242 c -4.72699,-2.71261 -4.2709,-4.00067 0.70295,-1.98521 1.26338,0.51194 3.53455,1.19551 5.04705,1.51905 2.98934,0.63946 3.85446,3.61792 1,3.4428 -0.9625,-0.059 -4,-1.39854 -6.75,-2.97664 z m 122.17433,-4.44347 c -3.4622,-8.43062 -3.48276,-10.97805 -0.0703,-8.70722 1.13644,0.75625 3.99213,13.97185 3.19201,14.77198 -0.24606,0.24605 -1.65083,-2.48308 -3.12172,-6.06476 z m -166.131624,4.59657 c -0.808829,-1.30872 0.115359,-1.71625 7.997881,-3.52681 3.827678,-0.87919 7.859414,-1.86145 8.959414,-2.1828 4.396911,-1.28451 -0.301149,1.7112 -6.48292,4.13382 -6.80711,2.66768 -9.544984,3.07958 -10.474375,1.57579 z m 94.457294,-4.40232 c 0,-3.14971 2.12426,-13.98667 2.91986,-14.89569 0.82726,-0.94519 0.43539,14.84509 -0.40204,16.20008 -1.12469,1.81979 -2.51782,1.09806 -2.51782,-1.30439 z m 9.41493,-0.41678 c -0.34275,-1.5125 -1.25132,-4.96918 -2.01905,-7.6815 -1.9733,-6.97147 -1.79931,-8.64901 0.57753,-5.5685 1.90467,2.46855 6.02659,12.62712 6.02659,14.85267 0,0.63103 -0.89143,1.14733 -1.98095,1.14733 -1.34329,0 -2.18154,-0.88521 -2.60412,-2.75 z m -61.89222,-1.34704 c -8.778833,-1.30394 -8.809743,-1.55378 -0.2947,-2.38208 8.20217,-0.79786 11.19713,-0.30576 10.52682,1.72965 -0.52829,1.60415 -2.8346,1.75121 -10.23212,0.65243 z m 42.47729,0.0422 c 0,-1.54719 8.08435,-13.19412 8.71827,-12.5602 0.29648,0.29649 -0.71134,3.48117 -2.23962,7.07707 -1.99467,4.69327 -3.30067,6.538 -4.62867,6.538 -1.01749,0 -1.84998,-0.47469 -1.84998,-1.05487 z m -83.990178,-4.4333 c -2.090612,-2.51903 0.843941,-2.71917 9.004619,-0.61412 l 7.48556,1.93091 -7.627555,0.0857 c -5.614011,0.0631 -7.953593,-0.30716 -8.862624,-1.40248 z m 111.485978,-2.76183 c -2.01303,-2.3375 -4.10716,-5.07156 -4.65362,-6.07569 -0.85358,-1.56847 -0.73634,-1.68789 0.83213,-0.84757 3.46345,1.85556 11.33267,9.35295 10.77088,10.26195 -1.15376,1.86681 -3.3929,0.79107 -6.94939,-3.33869 z m -75.43749,1.88035 c 1.89092,-1.79673 10.32309,-5.63035 12.38413,-5.63035 3.99121,0 3.14297,2.77107 -1.19244,3.89554 -4.59804,1.19259 -11.79514,2.3082 -11.19169,1.73481 z m 38.94169,-0.56226 c 0,-1.24436 4.28408,-4.19883 10.98544,-7.576 6.31558,-3.18274 5.48536,-1.64152 -2.38763,4.43245 -5.01838,3.87166 -8.59781,5.18037 -8.59781,3.14355 z m -63.749999,-3.61989 c -6.610315,-3.08854 -8.770229,-5.39061 -6.420355,-6.84291 0.865871,-0.53514 13.53889,7.56396 14.650794,9.36306 0.968825,1.56759 -0.337996,1.16744 -8.230439,-2.52015 z m 5.940249,-4.8807 c -4.088301,-6.52044 -4.679638,-9.50041 -1.536145,-7.74123 1.593079,0.89153 6.550098,12.02101 6.042997,13.56772 -0.161211,0.4917 -2.189294,-2.13022 -4.506852,-5.82649 z m 16.809751,5.51217 c 0,-0.57452 2.029649,-3.16284 4.510319,-5.75182 3.39292,-3.54104 4.79456,-4.423 5.65762,-3.55994 0.84413,0.84413 0.85333,1.5015 0.0348,2.48773 -1.99848,2.40807 -10.202739,7.8954 -10.202739,6.82403 z m -2.752645,-3.3297 c 0.253733,-0.6875 1.238043,-3.6125 2.187355,-6.5 1.285687,-3.91064 2.215749,-5.25 3.645659,-5.25 2.76637,0 2.38702,1.83266 -1.60694,7.76335 -3.332039,4.9478 -5.247779,6.755 -4.226074,3.98665 z m 38.198794,0.16287 c -0.36954,-0.59793 -0.28261,-1.47641 0.19317,-1.95219 1.22646,-1.22646 17.36068,-4.87037 17.36068,-3.92091 0,0.61695 -15.06154,6.96023 -16.52642,6.96023 -0.19555,0 -0.65789,-0.48921 -1.02743,-1.08713 z m -43.762857,-0.6163 c -0.284338,-0.46007 -0.641632,-3.52751 -0.793986,-6.81653 -0.216485,-4.67347 0.03846,-5.98004 1.166843,-5.98004 1.146145,0 1.371953,1.34023 1.095149,6.5 -0.361031,6.72983 -0.590895,7.71577 -1.468006,6.29657 z M 41.25183,420.02316 c -0.310725,-0.50276 1.058674,-4.44026 3.043108,-8.75 3.893779,-8.45639 4.163326,-8.9097 4.874818,-8.19821 0.885692,0.88569 -3.252287,16.10908 -4.613094,16.97131 -1.755726,1.11246 -2.606696,1.10651 -3.304832,-0.0231 z m 12.05391,-0.66767 c -0.861972,-2.24626 -0.756232,-15.90079 0.116378,-15.02818 1.030298,1.0303 3.978323,14.0049 3.504859,15.42529 -0.570689,1.71207 -2.910324,1.4555 -3.621237,-0.39711 z m 125.89301,-1.47597 c -6.96221,-2.52062 -7.53517,-2.89932 -4.41678,-2.91929 5.00784,-0.0321 15.27844,2.10286 16.1008,3.34685 0.95444,1.44377 0.0151,2.64534 -1.99304,2.54949 -0.93004,-0.0444 -5.29098,-1.38406 -9.69098,-2.97705 z M 62.434192,413.30219 c -3.856907,-6.12248 -5.933041,-10.50064 -5.286176,-11.14751 0.328205,-0.3282 1.271411,0.3665 2.096013,1.54378 0.824601,1.17728 2.105897,2.74714 2.847324,3.48856 2.577979,2.57798 4.828866,7.92879 3.777583,8.98008 -0.666683,0.66668 -1.81157,-0.28827 -3.434744,-2.86491 z m 166.530198,2.06531 c -0.5487,-1.06162 -1.29916,-4.2982 -1.6677,-7.1924 -0.36853,-2.8942 -0.92698,-5.9317 -1.24099,-6.75 -0.31401,-0.8183 -0.12164,-1.48782 0.42748,-1.48782 0.54913,0 1.77518,1.9125 2.72457,4.25 3.0372,7.47792 3.39811,9.49478 2.03312,11.36151 -1.2078,1.65176 -1.33428,1.64169 -2.27648,-0.18129 z m -11.22327,-0.68022 c 0.12418,-3.66351 2.75738,-12.18325 3.88127,-12.55788 1.026,-0.342 1.14741,0.91211 0.57477,5.93715 -0.39929,3.5039 -0.92634,6.70823 -1.17121,7.12073 -0.73579,1.23945 -3.3304,0.84451 -3.28483,-0.5 z M 30.698751,412.02131 c 0,-1.05378 1.6875,-3.22162 3.75,-4.81742 11.664448,-9.02503 13.644749,-8.67717 4.59778,0.80763 -5.838676,6.12124 -8.34778,7.32647 -8.34778,4.00979 z m 103.249999,1.27123 c -2.61974,-1.09385 -1.27737,-3.35526 1.99167,-3.35526 4.27522,0 18.7589,2.29404 18.75628,2.97077 -0.003,0.70092 -19.14071,1.05558 -20.74795,0.38449 z m 73.233,-1.38277 c -0.98559,-1.59471 9.84971,-16.97311 11.08708,-15.73574 0.48695,0.48694 -5.87744,13.14446 -7.80029,15.51325 -1.23228,1.51807 -2.43573,1.59953 -3.28679,0.22249 z m -33.90905,-1.94644 c 0.53567,-0.53567 4.64924,-2.30112 9.14127,-3.92322 7.08634,-2.55892 8.32832,-2.75529 9.38368,-1.48367 1.74894,2.10735 0.42534,2.85411 -8.37732,4.7264 -9.01783,1.91806 -11.55536,2.08822 -10.14763,0.68049 z M 67.822081,405.75127 c -2.811669,-2.28719 -4.875554,-4.3951 -4.58641,-4.68424 0.83693,-0.83693 11.455713,5.2429 11.459583,6.56123 0.0077,2.63209 -2.006212,2.0821 -6.873173,-1.87699 z m 75.376669,1.10867 c -4.8541,-1.69215 -8.12714,-3.40499 -8.32332,-4.35574 -0.32431,-1.5717 1.8818,-2.17511 3.1856,-0.87131 0.38258,0.38259 1.27145,0.78013 1.97525,0.88342 1.4818,0.21748 12.66247,6.41283 12.66247,7.01643 0,0.5917 -0.70217,0.39414 -9.5,-2.6728 z m 93.99999,-2.57074 c -4.63378,-5.38456 -5.92085,-7.35439 -4.79968,-7.34577 1.31471,0.0101 11.29969,9.58704 11.29969,10.83792 0,2.40993 -2.6427,0.99013 -6.50001,-3.49215 z m -60.69556,-3.34493 c 6.04516,-5.88046 9.69557,-7.39026 9.69557,-4.01004 0,1.67472 -9.72922,8.51742 -13.5,9.49475 -1.95676,0.50716 -1.13006,-0.68466 3.80443,-5.48471 z m 21.84824,5.31234 c -0.76029,-0.76028 4.20063,-6.31933 5.6394,-6.31933 0.50483,0 2.78314,-1.25876 5.06291,-2.79724 10.23909,-6.90977 6.52475,-1.53006 -4.75502,6.887 -4.09943,3.05903 -4.84015,3.33672 -5.94729,2.22957 z m -45.15267,-1.52187 c -4.51682,-2.57848 -13.51653,-11.18093 -12.62742,-12.07004 1.66477,-1.66477 4.53858,0.32395 9.902,6.85234 2.90101,3.53113 5.15101,6.40656 5,6.38983 -0.15102,-0.0167 -1.17458,-0.54418 -2.27458,-1.17213 z m 16.54853,-7.54746 c 2.24726,-4.2625 4.69578,-8.37403 5.44116,-9.13674 1.44409,-1.47768 4.90278,-0.78169 4.34347,0.87403 -0.62873,1.8612 -12.10859,16.01271 -12.98969,16.01271 -0.48447,0 0.95781,-3.4875 3.20506,-7.75 z m -146.703452,3.20687 c -0.858232,-2.23651 -0.382582,-2.4518 8.591612,-3.88873 9.683163,-1.55044 10.293416,-0.31348 1.505919,3.05244 -7.091437,2.71627 -9.305741,2.89966 -10.097531,0.83629 z m 140.008722,-8.66041 c 0.67277,-9.47807 1.69487,-12.14779 3.8324,-10.01026 0.91494,0.91494 0.9018,2.73298 -0.0574,7.95 -2.00091,10.88251 -2.11253,11.2638 -3.29757,11.2638 -0.80634,0 -0.94329,-2.64014 -0.47741,-9.20354 z m -8.7895,1.19621 c -3.61084,-7.30623 -4.31943,-9.99267 -2.63573,-9.99267 1.34398,0 3.86519,2.72577 4.399,4.75592 2.49209,9.47781 2.87204,11.37781 2.37472,11.87513 -0.31553,0.31553 -2.17763,-2.67174 -4.13799,-6.63838 z m 39.4357,4.52638 c 0,-0.81452 1.0125,-1.71088 2.25,-1.99191 14.06689,-3.19451 14.62714,-3.16033 7.75,0.47286 -6.10256,3.22398 -10,3.81602 -10,1.51905 z m 47.5,-1.51495 -6,-2.98967 4.5,0.59337 c 5.23498,0.69029 9.18055,2.36489 9.75949,4.1422 0.64749,1.98775 -1.80808,1.46869 -8.25949,-1.7459 z m -164.499999,1.24996 c -1.925,-0.16167 -4.625,-0.58141 -6,-0.93274 -2.245415,-0.57375 -2.092664,-0.71469 1.5,-1.38403 4.321279,-0.80509 9.5,-0.18981 9.5,1.12869 0,1.23611 -1.156356,1.51088 -5,1.18808 z m -44,-8.24554 c -1.375,-0.45847 -3.7375,-1.10651 -5.25,-1.4401 -2.098054,-0.46273 -2.75,-1.19469 -2.75,-3.08747 0,-1.36452 0.44148,-2.48095 0.981066,-2.48095 1.636392,0 14.018934,6.37249 14.018934,7.21463 0,0.99328 -3.732501,0.88338 -7,-0.20611 z m 33.5,-0.54254 c 12.741661,-5.97208 14.448905,-6.38117 13.215379,-3.16665 -0.544803,1.41973 -10.806812,4.75158 -14.280983,4.63672 -1.456197,-0.0482 -1.19277,-0.41156 1.065604,-1.47007 z M 192.69875,386.0106 c 0,-2.3209 2.29022,-2.91382 7,-1.81223 1.925,0.45024 6.2,1.42584 9.5,2.16799 l 6,1.34937 -11.25,0.11078 c -10.47895,0.10318 -11.25,-0.0213 -11.25,-1.81591 z M 41.549355,385.15734 c -0.848435,-0.94603 -3.861907,-3.81335 -6.696606,-6.37181 -5.075277,-4.5807 -6.02031,-6.19481 -4.262882,-7.28096 0.915658,-0.5659 5.434252,4.03739 10.512861,10.70993 2.922551,3.83979 3.26303,6.08323 0.446627,2.94284 z m 192.507865,1.00893 c 0.34069,-0.55124 2.24473,-1.30717 4.2312,-1.67983 1.98647,-0.37267 5.1503,-1.41125 7.03073,-2.30797 3.17736,-1.51517 3.53822,-1.51114 5.10643,0.0571 1.06077,1.06076 1.33199,2.0241 0.73031,2.59392 -1.38386,1.31059 -17.87952,2.60026 -17.09867,1.33681 z M 62.714064,385.11119 c 0.02504,-1.10183 1.230658,-2.44555 6.212344,-6.92391 5.125029,-4.60722 6.781881,-5.22041 6.755142,-2.5 -0.0103,1.04757 -2.619329,3.42536 -6.5,5.92391 -3.56554,2.29565 -6.475908,3.87065 -6.467486,3.5 z m -18.901459,-5.42391 c -1.146034,-1.7875 -3.440483,-5.0044 -5.098776,-7.14867 -3.255129,-4.20908 -3.840903,-6.60133 -1.61642,-6.60133 0.769261,0 2.809586,2.71101 4.534054,6.02447 5.190819,9.97384 6.424761,14.34442 2.181142,7.72553 z m 160.886145,0.91637 c -7.04933,-2.81035 -10,-4.49269 -10,-5.70155 0,-1.28947 4.71172,-1.24028 5.51383,0.0576 0.34753,0.56231 3.29908,2.36878 6.55902,4.01439 8.89638,4.49088 7.62041,5.494 -2.07285,1.6296 z m -101.69827,-2.85109 c 0.33579,-2.44987 1.16709,-5.77303 1.84733,-7.3848 l 1.23679,-2.93048 0.32374,2.5 c 0.5168,3.9908 -1.11041,11.30027 -2.62825,11.80622 -1.10534,0.36845 -1.26506,-0.44918 -0.77961,-3.99094 z m 8.84731,-1.06528 c -1.72141,-9.10342 -2.11007,-11.75 -1.72549,-11.75 0.90736,0 5.72028,14.95826 5.12357,15.92375 -1.37312,2.22176 -2.43545,0.91692 -3.39808,-4.17375 z m 124.0896,-1.37358 c 6.47003,-6.33607 9.76136,-7.6886 9.76136,-4.01131 0,1.32868 -13.72018,10.64978 -15.63602,10.62266 -0.47519,-0.007 2.16841,-2.98183 5.87466,-6.61135 z m -181.902958,2.37358 c 0.303873,-1.2375 0.86197,-4.6226 1.240216,-7.52244 0.692322,-5.30774 1.86129,-7.19037 3.467393,-5.58427 1.057091,1.05709 -2.954982,15.35671 -4.308663,15.35671 -0.523294,0 -0.702819,-1.0125 -0.398946,-2.25 z m 6.664319,1.70034 c 0,-2.45898 6.418869,-11.45034 8.174314,-11.45034 1.684879,0 0.723436,2.31787 -2.924314,7.05002 -3.369844,4.37162 -5.25,5.94749 -5.25,4.40032 z m 31.619761,-0.25656 c -0.915638,-1.48154 6.864802,-12.04255 8.020498,-10.88686 0.30693,0.30693 -0.668844,2.81227 -2.168385,5.56742 -2.604097,4.78459 -4.895441,6.86737 -5.852113,5.31944 z m 26.565278,-4.44378 c -3.19918,-4.67067 -4.80695,-8.75 -3.44859,-8.75 1.1811,0 6.74601,5.95961 8.1898,8.77067 1.16876,2.27558 0.73581,4.22933 -0.93723,4.22933 -0.49111,0 -2.20291,-1.9125 -3.80398,-4.25 z m 108.81496,3.68446 c 0,-1.31508 6.8292,-15.21087 7.75745,-15.78456 0.55877,-0.34533 1.50903,-0.0337 2.1117,0.69243 0.8351,1.00624 -0.10564,3.02553 -3.95485,8.48899 -4.70093,6.67236 -5.9143,8.02705 -5.9143,6.60314 z M 47.353789,373.68728 c -2.395246,-6.29674 -3.122386,-10.75 -1.755287,-10.75 0.632363,0 1.532698,1.0125 2.000744,2.25 1.032369,2.72955 2.46997,12.75 1.829201,12.75 -0.251889,0 -1.185485,-1.9125 -2.074658,-4.25 z m 160.607521,-1.27423 c -2.94286,-3.03833 -5.07927,-5.96333 -4.74758,-6.5 0.93348,-1.51041 2.00797,-1.18009 4.6032,1.41514 2.75031,2.75031 7.38183,10.60909 6.2524,10.60909 -0.41656,0 -3.16517,-2.4859 -6.10802,-5.52423 z m 9.8433,-0.22577 c -0.53417,-2.0625 -1.48109,-5.70792 -2.10427,-8.10094 -1.21235,-4.65552 -0.92168,-5.71611 1.32981,-4.85213 0.80095,0.30735 1.71171,2.64495 2.0936,5.37354 0.37177,2.65624 0.92832,6.29203 1.23677,8.07953 0.7908,4.58281 -1.34785,4.16443 -2.55591,-0.5 z m 6.56607,3.02819 c -0.8207,-1.32792 0.11873,-10.44508 1.44546,-14.02819 0.98169,-2.65128 3.90515,-3.03271 3.83221,-0.5 -0.1018,3.53508 -4.53299,15.7331 -5.27767,14.52819 z M 84.698751,372.48622 c 0,-1.48364 12.689885,-9.19239 13.612852,-8.26942 0.639189,0.63919 -11.073318,9.72048 -12.536896,9.72048 -0.591776,0 -1.075956,-0.65298 -1.075956,-1.45106 z m 40.224599,-4.46563 c -4.70951,-3.72266 -7.64928,-6.84156 -5.6138,-5.95586 5.92606,2.57859 13.44173,7.21495 13.14392,8.10838 -0.76008,2.28026 -2.58058,1.75986 -7.53012,-2.15252 z m -45.654572,-1.97 c -0.846231,-1.36923 1.422512,-2.75957 7.361474,-4.51128 5.93399,-1.75024 11.054126,-2.14137 9.518499,-0.72712 -1.128281,1.0391 -13.842269,6.12509 -15.311538,6.12509 -0.561236,0 -1.267031,-0.39901 -1.568435,-0.88669 z m 46.929972,-5.82638 c -4.02464,-0.96805 -3.89879,-2.28693 0.21821,-2.28693 4.81424,0 7.4981,0.84099 6.71703,2.10478 -0.57584,0.93173 -3.49965,1.00852 -6.93524,0.18215 z m 114.1504,-0.0436 c -0.48457,-0.78405 0.11543,-3.83164 2.31198,-11.74336 0.67574,-2.43395 0.85221,-1.74949 0.93526,3.62756 0.0709,4.58817 -0.33181,6.98788 -1.30861,7.79855 -0.77604,0.64406 -1.64842,0.78682 -1.93863,0.31725 z m 8.85993,-8.2012 c -2.37408,-9.68765 -1.38169,-10.81131 2.3438,-2.65384 3.64501,7.98125 3.85766,9.61168 1.25359,9.61168 -1.51169,0 -2.23523,-1.39942 -3.59739,-6.95784 z m -170.051448,4.89131 c -0.362533,-0.58659 -0.391102,-1.33458 -0.06349,-1.6622 0.751082,-0.75108 6.874742,-0.55851 12.104604,0.38066 l 4,0.71831 -3,0.69656 c -4.773846,1.10844 -12.321355,1.03127 -13.041119,-0.13333 z m -42.359201,-6.18344 c 0.111394,-6.98444 1.132566,-11.80127 2.152142,-10.15156 0.366527,0.59305 0.96668,4.52602 1.333675,8.73992 0.640641,7.35596 0.582426,7.66164 -1.459117,7.66164 -1.952325,0 -2.118221,-0.51159 -2.0267,-6.25 z m 191.330909,5.13769 c -0.39099,-0.63263 2.17106,-3.97082 5.94098,-7.74074 3.64564,-3.64564 6.61283,-6.1826 6.59375,-5.63769 -0.0519,1.48368 -9.85767,14.49074 -10.92425,14.49074 -0.50767,0 -1.23239,-0.50054 -1.61048,-1.11231 z M 26.698751,354.60382 c 0,-2.17906 5.945108,-15.05476 6.63343,-14.36644 0.323363,0.32336 -0.121479,2.97562 -0.988539,5.89391 -0.86706,2.9183 -1.709535,6.20082 -1.872165,7.29451 -0.34638,2.32938 -3.772726,3.39925 -3.772726,1.17802 z m 18.695198,-6.41654 c -3.974094,-10.23557 -3.978206,-10.25 -2.921337,-10.25 1.043716,0 8.226139,13.8168 8.226139,15.82459 0,0.64648 -0.603906,1.17541 -1.342014,1.17541 -0.738107,0 -2.521362,-3.0375 -3.962788,-6.75 z m 73.854801,4.87349 c 1.80838,-1.66848 12.41061,-5.07583 13.95263,-4.48411 2.62092,1.00574 -0.14348,3.11787 -5.61715,4.29176 -6.10133,1.3085 -9.63356,1.39001 -8.33548,0.19235 z m 136.98703,-5.17967 c -2.6169,-3.3309 -4.58144,-6.23275 -4.36563,-6.44855 0.63486,-0.63487 12.29798,9.62542 12.65192,11.13016 0.18869,0.80218 -0.47861,1.37457 -1.60248,1.37457 -1.16532,0 -3.80471,-2.39154 -6.68381,-6.05618 z m -238.024256,3.07685 c -0.332894,-0.53864 -0.164425,-1.77614 0.374375,-2.75 1.462022,-2.64257 10.066093,-10.65076 10.729979,-9.98688 0.910166,0.91017 -8.516889,13.71621 -10.097065,13.71621 -0.221115,0 -0.674396,-0.4407 -1.007289,-0.97933 z m 71.455699,0.0383 c -1.392341,-0.42303 -3.417341,-1.2515 -4.5,-1.84105 -1.08266,-0.58955 -2.755972,-1.31564 -3.718472,-1.61353 -0.9625,-0.29788 -1.75,-1.00573 -1.75,-1.573 0,-2.3079 8.569578,0.43924 13.5,4.32769 2.240534,1.76702 0.872925,2.03806 -3.531528,0.69989 z M 221.26878,349.0506 c -0.77241,-1.24979 1.05307,-2.54111 7.8044,-5.52071 8.61896,-3.80386 9.03624,-3.13972 1.21187,1.9288 -7.23949,4.68964 -8.12084,5.04075 -9.01627,3.59191 z M 55.426408,345.14235 c -2.325211,-2.08721 -5.724683,-5.01221 -7.554382,-6.5 -3.895969,-3.16794 -3.015677,-3.60301 1.326725,-0.65571 1.65,1.11989 4.558531,2.70909 6.463402,3.53154 4.202494,1.81449 7.036598,4.26093 7.036598,6.07409 0,2.41665 -2.962756,1.41855 -7.272343,-2.44992 z m 57.284262,2.16737 c 0.0224,-1.64068 6.61746,-12.7489 7.80393,-13.14439 2.01591,-0.67197 1.31706,1.88973 -1.87077,6.85754 -3.11168,4.84913 -5.95468,7.86161 -5.93316,6.28685 z m 9.98808,-3.41237 c 4.79187,-4.21116 7.35718,-5.05328 6.81484,-2.23713 -0.35523,1.84459 -7.32702,6.2614 -9.81484,6.21797 -0.84611,-0.0148 0.46167,-1.75013 3,-3.98084 z m -28.340992,-1.45546 c -5.417873,-5.65441 -7.544865,-11.62747 -3.552135,-9.97518 1.610349,0.66641 9.295817,13.40122 8.542351,14.15468 -0.276815,0.27682 -2.522413,-1.60396 -4.990216,-4.1795 z m -82.110754,2.57347 c -0.324173,-0.52453 1.476477,-2.37505 4.001446,-4.11227 4.704129,-3.23653 7.025124,-3.35982 4.177924,-0.22194 -2.487866,2.74186 -7.516612,5.40657 -8.17937,4.33421 z m 96.515136,-5.39382 c -0.0631,-5.79125 1.29852,-10.19665 2.85441,-9.23506 0.86247,0.53303 -0.42064,9.16851 -1.91233,12.87026 -0.66071,1.6396 -0.89442,0.73779 -0.94208,-3.6352 z m -7.49247,-0.16876 c -3.135739,-7.50489 -3.002657,-13.1595 0.21806,-9.2655 1.43149,1.73073 3.13532,11.67875 2.10891,12.31311 -0.46055,0.28463 -1.50769,-1.08679 -2.32697,-3.04761 z m 117.42908,0.24372 c 0,-1.10164 1.66257,-1.68241 6.25,-2.18326 3.4375,-0.3753 8.05,-0.94097 10.25,-1.25703 5.76933,-0.82884 3.29633,1.37309 -3.04119,2.70784 -10.31458,2.17236 -13.45881,2.34347 -13.45881,0.73245 z m 40.6745,-0.75832 c -3.75402,-1.00021 -7.0434,-2.03647 -7.30973,-2.3028 -0.95011,-0.95011 17.15932,0.58081 18.38523,1.55424 3.95815,3.14294 -0.86527,3.46894 -11.0755,0.74856 z M 8.1700398,336.89083 c -1.1412168,-1.84653 0.6592528,-2.79816 8.3582242,-4.41769 10.124474,-2.12975 10.666919,-1.89571 3.150958,1.35946 -9.070684,3.92851 -10.7032127,4.36231 -11.5091822,3.05823 z m 48.0287112,-3.51013 -6,-2.4534 6.924264,0.60325 c 8.174363,0.71215 9.575736,1.1532 9.575736,3.01372 0,2.03885 -3.660123,1.63324 -10.5,-1.16357 z m 163.249999,-1.13275 c -0.9625,-0.25152 -1.75,-1.15042 -1.75,-1.99754 0,-1.26103 0.82393,-1.41666 4.54548,-0.85858 2.50001,0.3749 6.21251,1.29429 8.25,2.04308 l 3.70452,1.36145 -6.5,-0.0455 c -3.575,-0.025 -7.2875,-0.25134 -8.25,-0.50287 z m 42.88355,-3.82026 c 4.66838,-2.28893 8.36645,-2.5057 8.36645,-0.49041 0,1.16126 -2.34237,1.86292 -8.23782,2.46765 l -5.26218,0.53978 z m -33.63355,-3.52868 c -5.91816,-3.52389 -7.91141,-5.69038 -5.63756,-6.12754 1.18333,-0.2275 13.63756,8.29438 13.63756,9.33159 0,1.34044 -1.12352,0.89046 -8,-3.20405 z m 27.00164,-0.96368 c 5.81266,-6.94259 8.94304,-9.28885 10.58029,-7.93006 0.71455,0.59303 1.0815,1.60784 0.81544,2.25512 -0.49965,1.21559 -13.71174,10.67689 -14.90958,10.67689 -0.37072,0 1.21052,-2.25088 3.51385,-5.00195 z m -240.170725,3.09461 c -6.7035492,-0.59572 -8.3399153,-1.20578 -7.6850811,-2.8651 0.429459,-1.08823 15.9021461,1.42042 17.2840621,2.80234 0.626807,0.6268 0.280044,0.91442 -0.979895,0.81276 -1.0725,-0.0865 -4.951089,-0.42404 -8.619086,-0.75 z m 40.169086,-3.26289 c 8.79953,-3.98864 13,-4.38989 13,-1.24183 0,1.58697 -1.994074,2.09141 -11,2.78267 l -6.5,0.49892 z m 193.044539,1.47563 c -0.065,-1.74453 6.53829,-15.92954 7.76972,-16.69061 0.57615,-0.35608 1.346,-0.1645 1.71078,0.42573 1.03951,1.68196 -0.22914,5.29817 -3.25244,9.27087 -1.52493,2.00379 -3.54006,4.66596 -4.47806,5.91593 -0.93801,1.24998 -1.72551,1.73511 -1.75,1.07808 z m -3.3594,-9.45069 c 0.50229,-8.48518 1.65436,-11.73953 2.95552,-8.34874 0.83583,2.17814 -1.079,14.33237 -2.47846,15.73183 -0.62884,0.62884 -0.79714,-1.97593 -0.47706,-7.38309 z m -228.127299,2.70258 c -6.226363,-3.36379 -8.0964536,-5.55729 -4.73792,-5.55729 1.092622,0 4.167622,2.00713 6.833333,4.46029 2.665711,2.45317 4.621747,4.42586 4.346747,4.38377 -0.275,-0.0421 -3.173972,-1.52113 -6.44216,-3.28677 z m 32.44216,2.67406 c 0,-1.13876 5.981119,-6.7253 8.684259,-8.11136 5.785747,-2.96668 5.839982,0.4341 0.06395,4.01018 -6.262048,3.87698 -8.748209,5.0425 -8.748209,4.10118 z m 180.749999,-3.86341 c -3.9768,-4.77699 -4.58129,-6.36794 -2.41952,-6.36794 1.41572,0 7.66952,8.08355 7.66952,9.91348 0,1.99045 -1.46498,1.00109 -5.25,-3.54554 z m 8.01217,-0.61794 c -2.55922,-8.13311 -2.75301,-9.75 -1.16855,-9.75 0.77351,0 1.44081,0.5625 1.48289,1.25 0.0421,0.6875 0.21669,1.925 0.38803,2.75 0.87717,4.22378 1.71255,11 1.35609,11 -0.22355,0 -1.14986,-2.3625 -2.05846,-5.25 z m -193.762169,1.52629 c 0,-2.06842 7.275204,-14.27629 8.507871,-14.27629 2.974226,0 2.415651,2.2513 -1.973962,7.95593 -4.630996,6.01833 -6.533909,7.85905 -6.533909,6.32036 z M 22.19084,312.4797 c -4.332425,-5.07116 -5.062084,-7.58262 -2.183072,-7.51406 0.655041,0.0156 2.765983,2.59151 4.690983,5.72424 4.300838,6.99916 4.409099,7.2474 3.160656,7.2474 -0.553305,0 -3.10416,-2.45591 -5.668567,-5.45758 z m 17.507911,-2.79397 c 0,-8.45471 0.556336,-10.74845 2.606989,-10.74845 0.90737,0 1.388873,1.13304 1.381142,3.25 -0.01216,3.32903 -2.413199,13.5084 -3.424906,14.52011 -0.309774,0.30977 -0.563225,-2.84997 -0.563225,-7.02166 z m -8.825191,-1.99845 c -1.207279,-3.4375 -2.190498,-6.5875 -2.184931,-7 0.02074,-1.53654 2.894006,-0.68404 3.3704,1 0.772477,2.73068 1.874768,12.25 1.418491,12.25 -0.224899,0 -1.396681,-2.8125 -2.60396,-6.25 z"
           id="path570"
           inkscape:connector-curvature="0"
           sodipodi:nodetypes="cssccccsscccscscsscccccscssscsccsscssscscsccssssssscssccssssscsscscsscccsccccsscccsscccsccscccsccccccscccscsscssssccsccscssscscccccscccssssscssscsssscsscscsssssscssscssssscssccssssscccsscsccsccssssccscccsssssscssccssscsssccsscccssscsssscscscsccsscccccscsssscscscccscscsssssccssccsscscsssssccsscccsscscccccccccccscscssssscscsccscccsscsccsscssssssssssccscssssssccsssssssccsscccccccccccsssscccccsssccsccscccsssssccsccccscssscscscscscssssssscsssccsscccsccscsccssssssccsscsscccccsccsccscccccsccsssssssscscscccccsccssccccccscccscsscccscssccscssccccccccscssssccsscssssssssccssssssscsssssscsscsss" />
      </g>
    </g>
  </g>
</svg>
