<?xml version="1.0" encoding="UTF-8" standalone="no"?>
<!-- Created with Inkscape (http://www.inkscape.org/) -->

<svg
   xmlns:dc="http://purl.org/dc/elements/1.1/"
   xmlns:cc="http://creativecommons.org/ns#"
   xmlns:rdf="http://www.w3.org/1999/02/22-rdf-syntax-ns#"
   xmlns:svg="http://www.w3.org/2000/svg"
   xmlns="http://www.w3.org/2000/svg"
   xmlns:sodipodi="http://sodipodi.sourceforge.net/DTD/sodipodi-0.dtd"
   xmlns:inkscape="http://www.inkscape.org/namespaces/inkscape"
   version="1.1"
   id="svg2949"
   width="283"
   height="443"
   viewBox="0 0 283 443"
   sodipodi:docname="feu115.svg"
   inkscape:version="0.92.4 (5da689c313, 2019-01-14)">
  <metadata
     id="metadata2955">
    <rdf:RDF>
      <cc:Work
         rdf:about="">
        <dc:format>image/svg+xml</dc:format>
        <dc:type
           rdf:resource="http://purl.org/dc/dcmitype/StillImage" />
        <dc:title></dc:title>
      </cc:Work>
    </rdf:RDF>
  </metadata>
  <defs
     id="defs2953" />
  <sodipodi:namedview
     pagecolor="#ffffff"
     bordercolor="#666666"
     borderopacity="1"
     objecttolerance="10"
     gridtolerance="10"
     guidetolerance="10"
     inkscape:pageopacity="0"
     inkscape:pageshadow="2"
     inkscape:window-width="1280"
     inkscape:window-height="972"
     id="namedview2951"
     showgrid="false"
     inkscape:zoom="1.5067919"
     inkscape:cx="147.84438"
     inkscape:cy="221.34636"
     inkscape:window-x="-8"
     inkscape:window-y="-8"
     inkscape:window-maximized="1"
     inkscape:current-layer="g534"
     showguides="true" />
  <g
     id="g151"
     transform="translate(25.882805,-2.654647)">
    <g
       id="g534"
       transform="translate(-21.900834,-45.792654)">
      <g
         id="g667"
         transform="translate(-7.9639398,5.9729547)">
        <path
           style="fill:#ffff00"
           d="m 71.562412,450.40095 c -2.103553,-2.10355 -1.425197,-6.60634 1.260357,-8.36598 1.99361,-1.30627 3.89271,-1.47787 10.010713,-0.90456 l 7.550356,0.70752 1.097704,-3.14887 c 1.645955,-4.72159 5.668903,-6.37709 13.467238,-5.54196 l 6.41363,0.68684 v -2.61649 c 0,-1.43908 0.87954,-3.49604 1.95453,-4.57103 1.73723,-1.73723 2.88764,-1.88868 10.34745,-1.36223 l 8.39291,0.59229 0.61894,-3.0947 c 0.84825,-4.24125 5.40021,-6.56867 11.02686,-5.63805 5.67929,0.93932 6.02011,1.28588 3.72212,3.78489 -1.09866,1.19478 -2.83855,3.25541 -3.8664,4.57916 -1.9757,2.54447 -7.15202,3.20482 -9.54621,1.21783 -1.27159,-1.05534 -7.6502,2.22526 -7.6502,3.93459 0,1.6173 -4.13097,4.71694 -7.06969,5.30469 -1.61214,0.32243 -4.06128,0.15656 -5.44253,-0.36859 -2.21686,-0.84284 -3.1704,-0.358 -8.13108,4.13442 -5.22532,4.73208 -5.873644,5.0385 -9.238201,4.36647 -6.615576,-1.32142 -8.23602,-0.86678 -12.142322,3.40665 -3.163583,3.46091 -4.353133,4.09711 -7.660652,4.09711 -2.153538,0 -4.455523,-0.54001 -5.115523,-1.2 z m 92.549998,-2.33157 c -6.14867,-3.42608 -0.70576,-11.46843 7.76163,-11.46843 2.39699,0 5.51247,-0.43886 6.92327,-0.97526 1.41081,-0.53638 2.5651,-0.84561 2.5651,-0.68714 0,1.32744 -5.18443,10.53311 -6.70211,11.90051 -2.76954,2.49534 -7.32419,3.02659 -10.54789,1.23032 z m 22.95672,-14.4845 c -6.13944,-4.82928 -1.82025,-12.5965 7.10903,-12.78421 1.82367,-0.0383 4.62625,-0.35753 6.22797,-0.70933 l 2.91222,-0.63963 -2.54967,5.82461 c -4.19162,9.5756 -8.65072,12.27997 -13.69955,8.30856 z m -32.95672,-14.06404 c -1.02401,-0.59643 -1.75,-2.21104 -1.75,-3.89204 0,-2.41532 0.5772,-3.06324 3.62497,-4.0691 1.99373,-0.65798 5.52798,-0.93551 7.85388,-0.61671 5.47743,0.75076 11.5503,-0.25444 12.22944,-2.02426 0.29385,-0.76575 -0.22741,-2.23393 -1.15836,-3.26262 -1.63439,-1.80598 -1.47512,-1.88212 4.62872,-2.21275 8.34192,-0.45187 12.19778,1.37024 12.63958,5.9729 0.17503,1.82343 -0.21757,3.96093 -0.87244,4.75 -1.84516,2.22328 -8.24178,1.7763 -11.52368,-0.80525 -3.73874,-2.94089 -5.8377,-2.45628 -12.28699,2.83683 -5.52649,4.53574 -9.57664,5.54123 -13.38512,3.323 z m 51.5,-0.95105 c -1.62681,-0.65391 -2.25,-1.72879 -2.25,-3.88085 0,-4.69327 3.62079,-8.01633 9.78032,-8.9761 5.70212,-0.88851 6.89983,-0.25128 5.26592,2.8017 -0.57543,1.07521 -1.04624,2.906 -1.04624,4.06842 0,2.68234 -4.63198,7.03787 -7.39602,6.9546 -1.15719,-0.0349 -3.11648,-0.47036 -4.35398,-0.96777 z M 21.827694,409.64942 c -5.644719,-2.28802 -5.48873,-6.83228 0.324515,-9.45368 3.243511,-1.46263 10.304418,-1.97834 12.398586,-0.90556 1.606343,0.82288 -3.834508,8.66877 -6.906264,9.95909 -1.769835,0.74342 -3.344835,1.32315 -3.5,1.28829 -0.155166,-0.0349 -1.197742,-0.43452 -2.316837,-0.88814 z m 138.534716,-3.7547 c -2.10373,-0.76903 -6,-4.44038 -6,-5.65364 0,-0.55617 -0.92023,-1.99077 -2.04495,-3.18799 l -2.04496,-2.17675 4.29496,-0.75893 c 10.06589,-1.77865 14.90293,-0.20669 16.28294,5.29172 1.15427,4.59897 -5.08851,8.45939 -10.48799,6.48559 z m 59.47416,-3.34375 c -2.68491,-5.19205 0.31991,-9.63108 7.1076,-10.50012 5.00963,-0.64139 5.903,-1.62056 4.67984,-5.12932 -0.54278,-1.55703 -0.63376,-3.78549 -0.20218,-4.95218 1.0031,-2.71163 6.11043,-6.3684 8.89461,-6.3684 2.5903,0 8.04597,-2.68964 8.04597,-3.96666 0,-0.50342 -0.45682,-1.19764 -1.01515,-1.54271 -0.55833,-0.34507 -1.77211,-2.28413 -2.69727,-4.30901 -0.92516,-2.0249 -1.8746,-4.07537 -2.10985,-4.55662 -0.23525,-0.48125 0.19102,-0.66112 0.94727,-0.39972 0.75625,0.26141 3.10976,-0.12905 5.23002,-0.86769 4.56196,-1.58926 7.72182,-0.9906 10.43522,1.97702 5.11259,5.59159 3.16726,9.81252 -4.89794,10.62741 -5.90063,0.59618 -7.2862,2.12777 -8.39895,9.28404 -0.77281,4.96998 -4.24155,8.89828 -8.0208,9.08344 -3.59275,0.17603 -4.43719,1.18842 -4.45724,5.34377 -0.0227,4.69758 -4.28046,9.32673 -8.57852,9.32673 -2.7625,0 -3.67564,-0.5612 -4.96263,-3.04998 z m -178.724158,-6.522 c -3.379184,-1.83323 -3.732443,-6.22895 -0.719699,-8.95544 1.905703,-1.72465 14.661635,-4.11399 15.813546,-2.96207 0.262474,0.26248 -0.270016,1.30291 -1.183311,2.3121 -0.913295,1.00918 -1.670542,2.47444 -1.682772,3.25612 -0.02973,1.90026 -2.961073,5.42294 -5.662023,6.80422 -2.744664,1.40364 -3.197729,1.37224 -6.565741,-0.45493 z m 155.539248,-1.67802 c -1.13266,-1.2375 -2.40096,-3.375 -2.81845,-4.75 -0.41748,-1.375 -1.39685,-3.47571 -2.17637,-4.66823 -1.36315,-2.0854 -1.52816,-2.10461 -4.31912,-0.50281 -2.73411,1.56916 -3.1029,1.55714 -6.38048,-0.20797 -2.31102,-1.24455 -4.01568,-3.21553 -5.07859,-5.872 -0.87996,-2.19926 -1.4686,-4.08981 -1.30809,-4.20122 2.46071,-1.70815 6.78191,-2.42514 9.63877,-1.59931 4.61433,1.33389 5.99615,2.69809 6.73791,6.65202 0.70229,3.74356 0.69135,3.73892 8.12109,3.43406 4.40379,-0.1807 5.5979,0.17836 7.75,2.33046 2.80427,2.80427 3.29975,7.05573 1.15203,9.885 -2.00561,2.64206 -8.71407,2.34572 -11.3187,-0.5 z m -61.5187,0.25603 c -3.45477,-1.04053 -5.77055,-3.33285 -5.77055,-5.7121 0,-1.01691 -0.66088,-2.79247 -1.46862,-3.94568 -1.3998,-1.99849 -1.29436,-2.12556 2.25,-2.7115 7.00202,-1.15753 9.97024,-0.71663 13.14189,1.95214 3.78929,3.18848 4.16604,7.53471 0.85422,9.8544 -2.41464,1.69128 -4.77107,1.8385 -9.00694,0.56274 z m -64.270181,-2.36514 c -3.306799,-5.0468 2.433048,-8.9161 11.793364,-7.95003 l 5.706269,0.58895 v -3.56733 c 0,-5.36671 3.520824,-7.71248 11.575842,-7.71248 3.468366,0 6.584236,-0.45 6.924156,-1 0.35977,-0.58212 -0.6406,-1 -2.39393,-1 -4.515417,0 -7.886757,-1.93213 -9.014096,-5.16602 -1.274009,-3.65463 -0.502576,-5.69283 2.433575,-6.42976 4.658691,-1.16924 9.902371,2.74426 11.852391,8.84578 0.42408,1.32691 1.6548,1.75 5.09068,1.75 4.9177,0 7.82212,2.0043 9.57131,6.60503 1.54906,4.07432 1.17621,4.84055 -2.98776,6.14013 -4.35879,1.36036 -6.47288,0.92676 -9.72307,-1.99418 -1.72491,-1.55017 -2.05371,-2.67316 -1.60046,-5.4662 0.52253,-3.21997 0.4109,-3.42841 -1.3291,-2.48174 -2.98939,1.62642 -6.24407,4.99564 -7.87789,8.15508 -1.73513,3.35539 -4.361619,4.45558 -8.478276,3.5514 -2.554927,-0.56115 -3.509861,-0.0189 -7.793691,4.42548 -4.120752,4.2752 -5.452833,5.065 -8.54279,5.065 -2.743047,0 -4.048293,-0.59141 -5.206524,-2.35911 z m -11.250367,-9.34663 c -3.096645,-0.59643 -2.875367,-3.56281 0.551903,-7.39859 2.290854,-2.56391 3.704406,-3.20022 7.75,-3.48872 2.721453,-0.19405 6.012768,-0.61167 7.314032,-0.92805 l 2.365934,-0.57521 -2.365934,3.15529 c -7.026851,9.37126 -8.9635,10.51659 -15.615935,9.23528 z m -31.568757,-2.75587 c -4.980617,-4.98062 3.323409,-11.10571 10.813553,-7.97612 4.547257,1.89997 8.098279,0.56693 8.961693,-3.36417 0.869088,-3.95693 4.288526,-5.36307 11.096157,-4.56297 2.996045,0.35213 5.445272,0.91577 5.442727,1.25255 -0.0098,1.29606 -6.340353,7.29298 -8.609447,8.15568 -1.311787,0.49874 -3.683222,0.64718 -5.269856,0.32984 -2.360669,-0.47213 -3.639382,0.10478 -7.038121,3.17533 -4.969592,4.48973 -12.445162,5.94139 -15.396706,2.98986 z M 272.50826,379.8494 c -2.99712,-1.56235 -8.18875,-8.60341 -7.08154,-9.60423 0.23963,-0.2166 2.9353,-0.69656 5.99038,-1.06657 4.76381,-0.57697 5.93844,-0.37089 8.25,1.44738 3.76318,2.96011 3.83649,8.59059 0.13021,9.99972 -3.34135,1.27038 -3.36828,1.26751 -7.28905,-0.7763 z m -111.99621,-4.9262 c -1.45694,-1.17976 -2.4795,-3.36267 -2.84232,-6.06766 -0.6881,-5.13022 -2.34886,-6.83792 -5.17766,-5.32398 -3.07644,1.64646 -4.99662,1.29334 -7.70733,-1.41737 -1.83994,-1.83995 -2.42584,-3.39139 -2.25254,-5.96466 0.32306,-4.79706 -0.77481,-5.42149 -2.47319,-1.40667 -2.51372,5.94218 -6.33915,8.14114 -11.31471,6.50398 -1.72226,-0.56671 -2.35527,-0.12438 -3.38715,2.3668 -1.48302,3.58034 -3.69972,4.98731 -7.85757,4.98731 -2.84172,0 -6.13717,-2.14724 -6.13717,-3.99885 0,-0.4708 1.2375,-1.83247 2.75,-3.02594 2.18821,-1.72667 3.5963,-2.05484 6.8927,-1.60642 3.87798,0.52751 4.22208,0.37187 5.38509,-2.43588 0.68332,-1.64968 2.62103,-4.07835 4.30602,-5.39705 l 3.06363,-2.39765 -2.4897,-1.13438 c -1.36933,-0.62392 -2.92607,-2.11751 -3.45941,-3.31912 -0.62497,-1.40803 -1.67694,-2.06874 -2.95902,-1.8585 -6.33781,1.03933 -14.48931,1.28983 -14.48931,0.44527 0,-0.52884 0.9,-1.77599 2,-2.77148 2.84682,-2.57635 2.4779,-3.85924 -0.54096,-1.8812 -5.17882,3.39329 -9.55623,-1.83163 -6.4294,-7.67419 1.49506,-2.79353 6.50324,-5.09995 9.46173,-4.35742 2.25092,0.56495 3.13207,2.46434 2.62705,5.66281 -0.0651,0.4125 1.16184,0.75 2.72659,0.75 1.56476,0 3.61177,0.84726 4.54892,1.88279 1.11969,1.23723 3.11407,1.90224 5.81676,1.93955 4.87632,0.0673 7.15892,2.01596 8.99331,7.67766 1.21086,3.73721 1.62924,4.0657 6.3683,5 7.42471,1.46377 9.63231,3.2923 10.33531,8.56063 l 0.59239,4.43937 6.16533,0.29552 c 6.64184,0.31836 7.75012,1.04799 8.75708,5.76521 0.48903,2.2909 0.18717,3.48262 -1.20014,4.73812 -2.97598,2.69322 -7.44921,3.14772 -10.07263,1.0234 z m -78.482971,-6.98892 c -0.366667,-0.36666 -0.666667,-1.70939 -0.666667,-2.98382 0,-2.29605 -0.03163,-2.30207 -3.473515,-0.66075 -7.096334,3.38401 -11.592656,-2.7135 -6.07194,-8.23422 2.064708,-2.0647 3.414703,-2.45454 8.5,-2.45454 5.713175,0 7.987698,1.31745 4.551199,2.63617 -3.011396,1.15557 -0.379859,2.16786 3.122006,1.20094 4.478221,-1.23649 5.815169,-0.1302 4.896635,4.05186 -1.07126,4.87741 -8.195956,9.10612 -10.857718,6.44436 z m 1.333333,-7.33333 c 0,-0.55 -0.45,-1 -1,-1 -0.55,0 -1,0.45 -1,1 0,0.55 0.45,1 1,1 0.55,0 1,-0.45 1,-1 z m 87.222508,2.4433 c -2.89528,-2.02793 -2.8156,-4.5375 0.23507,-7.40344 2.12606,-1.99734 3.11153,-2.22203 7.30554,-1.66567 4.55947,0.60483 4.98035,0.46406 7.07237,-2.36554 2.10857,-2.85201 2.59292,-3.00865 9.30286,-3.00865 6.95831,0 7.06831,-0.0405 6.48038,-2.38296 -0.61716,-2.45897 0.52205,-3.25917 7.38127,-5.18477 3.13786,-0.8809 3.96537,-2.12859 3.98469,-6.00796 0.0178,-3.57252 3.30359,-7.14178 7.63461,-8.29325 2.63499,-0.70054 2.9061,-1.19687 3.17847,-5.81903 0.35156,-5.96597 3.29332,-9.45007 8.18685,-9.69618 3.97078,-0.1997 5.05871,-2.02057 4.34004,-7.26389 -0.49557,-3.61557 -0.21065,-4.55689 2.06944,-6.83698 3.3447,-3.3447 7.43357,-3.10557 9.47812,0.5543 2.11534,3.7866 0.77285,7.76323 -3.17811,9.41405 -5.14674,2.15045 -6.93379,4.72213 -6.15736,8.86084 0.55741,2.97125 0.25147,3.95851 -1.8904,6.10038 -1.50768,1.50768 -3.70162,2.56172 -5.3509,2.57075 -4.45785,0.0244 -5.6484,1.28979 -4.91112,5.21978 0.81214,4.32912 -2.23583,8.76491 -6.02265,8.76491 -1.37124,0 -3.40588,0.48847 -4.52142,1.08549 l -2.02826,1.08549 2.02739,2.16451 c 1.11506,1.19048 2.46637,3.32349 3.00291,4.74003 0.96207,2.54001 1.09202,2.5694 9.4272,2.13191 7.97543,-0.4186 8.54405,-0.31171 10.09109,1.89699 3.78721,5.407 0.87307,10.89559 -5.78496,10.89559 -4.33057,0 -9.57563,-3.23891 -9.57563,-5.91312 0,-0.9773 -0.89156,-2.58375 -1.98124,-3.5699 -1.61796,-1.46425 -2.25873,-1.56271 -3.4946,-0.53704 -2.35695,1.9561 -9.47147,1.43512 -12.66719,-0.92757 l -2.79742,-2.06822 -1.42739,2.76029 c -2.77224,5.3609 -5.05171,6.59913 -10.88605,5.91343 -4.63153,-0.54434 -5.44707,-0.36636 -6.57151,1.43416 -1.13793,1.82211 -6.74631,4.90797 -8.91998,4.90797 -0.44528,0 -1.80974,-0.70052 -3.03211,-1.5567 z m -71.755829,-8.84401 c -1.178823,-0.86197 -3.184099,-1.19485 -5.213753,-0.86548 -2.334803,0.37887 -3.875749,0.0125 -5.275549,-1.25428 -2.562922,-2.31942 -2.491049,-4.32989 0.27759,-7.76493 2.25905,-2.8028 3.92854,-3.24012 11.062421,-2.89779 3.40347,0.16333 3.74437,0.41325 3.14396,2.30498 -0.61557,1.93948 -0.36361,2.08561 2.93261,1.7008 3.64413,-0.42544 3.98601,-0.0825 3.66627,3.67741 -0.20802,2.4461 -4.5269,6.5 -6.92486,6.5 -0.96421,0 -2.61512,-0.63032 -3.668689,-1.40071 z m -38.728137,-4.59031 c -3.108473,-2.44513 -3.431657,-4.57441 -1.181838,-7.78647 2.718742,-3.88155 7.225423,-2.99361 12.82807,2.52749 l 4.820159,4.75 -3.852466,0.80768 c -9.140899,1.91645 -9.81821,1.9004 -12.613925,-0.2987 z m 86.761116,-5.25898 c 1.52739,-5.41683 2.76492,-7.47508 5.44702,-9.05944 3.72404,-2.19985 5.22261,-2.13184 8.41846,0.38201 3.38458,2.66231 3.32222,4.3939 -0.28822,8.00434 -2.54026,2.54028 -3.66227,2.92309 -8.56738,2.92309 -5.37468,0 -5.61401,-0.10749 -5.00988,-2.25 z m 38.80169,-0.52224 c -2.15859,-1.69629 -4.30135,-6.0379 -4.30135,-8.71531 0,-1.79366 6.36033,-3.84101 9.2343,-2.97249 3.37913,1.02121 7.7657,5.53569 7.7657,7.99213 0,4.97002 -8.08335,7.3225 -12.69865,3.69567 z M 36.242342,338.63472 c -2.883484,-2.88349 -2.922463,-3.05085 -1.397396,-6 1.989844,-3.84794 5.540681,-4.01619 10.174127,-0.48209 2.855404,2.17794 6.343339,7.07093 6.343339,8.89865 0,0.30232 -2.734615,0.54967 -6.076923,0.54967 -5.403426,0 -6.405666,-0.32874 -9.043147,-2.96623 z M 166.9133,332.25655 c -4.72199,-6.19086 -2.44755,-11.38493 4.38683,-10.01807 3.63833,0.72767 8.06228,5.54472 8.06228,8.77867 0,1.45434 -0.90999,2.67738 -2.54705,3.42327 -4.42144,2.01455 -7.16054,1.41044 -9.90206,-2.18387 z M 27.362412,325.94373 c -8.45141,-3.69277 -10.49765,-4.95375 -10.826754,-6.67187 -0.633229,-3.30586 0.734576,-6.30789 3.434558,-7.53808 2.302634,-1.04915 3.103119,-0.90573 6.020253,1.07857 3.274032,2.22706 4.587939,4.86176 5.754239,11.5386 0.639264,3.65967 0.480275,3.71746 -4.382296,1.59278 z M 139.91771,309.14008 c -3.26678,-1.44045 -4.38009,-3.47782 -4.48501,-8.20758 -0.0573,-2.58441 0.58165,-3.57135 3.46661,-5.35436 4.44441,-2.7468 9.46488,-2.06169 12.41977,1.69484 3.50312,4.45351 1.91065,10.48137 -3.24373,12.27819 -3.66579,1.2779 -4.41253,1.24027 -8.15764,-0.41109 z m -24.2852,-1.06761 c -6.00955,-2.52684 -7.87168,-8.16573 -4.22677,-12.79949 5.40963,-6.87723 18.27794,-1.96423 16.46578,6.28647 -1.23115,5.60539 -7.04258,8.69796 -12.23901,6.51302 z m 47.05108,-2.66026 c -4.42808,-2.1408 -5.16678,-8.05447 -1.694,-13.56127 1.16435,-1.84632 2.32,-2.25 6.44133,-2.25 4.06342,0 5.51427,0.49187 7.59842,2.57602 2.19837,2.19837 2.49414,3.18643 2.01754,6.73978 -0.34518,2.57347 -1.38872,4.83605 -2.73226,5.92399 -2.40214,1.94513 -8.20045,2.23003 -11.63103,0.57148 z m -67.821178,-4.66095 c -1.1,-0.35767 -3.286566,-1.52171 -4.859036,-2.58677 -2.544194,-1.72321 -2.80771,-2.39182 -2.392943,-6.07162 0.659333,-5.84958 3.226928,-8.49192 8.251714,-8.49192 6.992543,0 11.083083,4.37637 9.914213,10.60699 -0.47558,2.53505 -1.58184,4.13412 -3.79268,5.48226 -3.293763,2.00846 -3.92048,2.10183 -7.121268,1.06106 z m 90.634708,-5.50692 c -1.21765,-1.29614 -2.46977,-3.93326 -2.78248,-5.86027 -0.45859,-2.82599 -0.1163,-3.92503 1.7697,-5.6821 6.11532,-5.69727 13.34308,-3.29444 15.41244,5.12381 0.54064,2.19934 0.0864,3.30824 -2.35536,5.75 -3.84958,3.84958 -8.79785,4.12424 -12.0443,0.66856 z M 68.862412,287.44026 c -5.986208,-3.29202 -7.06264,-8.96803 -2.525171,-13.3152 4.586565,-4.3942 12.915736,-3.41351 14.64909,1.72482 2.722703,8.07114 -5.035901,15.48831 -12.123919,11.59038 z m 60.576728,-3.42821 c -2.42029,-2.03653 -3.07673,-3.38257 -3.07673,-6.30886 0,-5.04753 1.79445,-7.13087 6.70996,-7.79017 3.23451,-0.43384 4.7993,-0.0856 7.15577,1.59231 3.41223,2.42973 4.86872,5.76116 3.23361,7.39627 -0.60464,0.60465 -1.09934,1.89779 -1.09934,2.87366 0,1.93356 -4.7188,4.82569 -7.87361,4.82569 -1.08512,0 -3.35747,-1.16501 -5.04966,-2.5889 z m 23.74926,-0.12323 c -8.01828,-4.97437 -5.3082,-16.33306 3.87856,-16.25608 4.62423,0.0387 6.82037,1.58692 8.72818,6.15296 1.2766,3.05534 1.27263,3.83567 -0.0326,6.39752 -2.8456,5.58528 -7.38697,6.92363 -12.57416,3.7056 z m 51.94915,0.15332 c -7.9575,-4.31837 -5.11376,-15.44119 3.94781,-15.44119 4.29476,0 9.27705,4.56496 9.27705,8.5 0,3.33731 -5.00166,8.51452 -8.17308,8.45995 -1.2798,-0.022 -3.55311,-0.70545 -5.05178,-1.51876 z m -96.56323,-3.64213 c -4.51464,-1.20276 -7.33361,-5.88104 -6.11656,-10.15085 1.1575,-4.06089 3.39477,-5.64822 7.96092,-5.64822 7.46124,0 10.9614,5.77577 7.27846,12.0105 -2.18853,3.70488 -5.02129,4.88128 -9.12282,3.78857 z m 68.28809,-4.20716 c -5.44179,-2.45563 -8.0285,-10.0634 -4.59058,-13.50132 3.93417,-3.93417 9.45778,-3.94938 14.4281,-0.0397 2.05242,1.61444 2.66248,2.96882 2.66248,5.91095 0,6.82052 -6.07563,10.52914 -12.5,7.63011 z M 51.618732,270.57213 c -2.666941,-1.07223 -6.247316,-6.5879 -6.252582,-9.63229 -0.0059,-3.39356 5.433733,-7.3389 10.118442,-7.3389 9.930751,0 12.491666,12.75645 3.329447,16.58466 -3.848749,1.60812 -4.120519,1.62271 -7.195307,0.38653 z m 33.853751,-1.317 c -4.797305,-2.75869 -6.68095,-9.97397 -3.360071,-12.8707 5.043961,-4.39975 10.677181,-4.2839 14.830046,0.30496 2.284639,2.5245 2.046896,8.69648 -0.431173,11.19355 -2.363586,2.38172 -8.053319,3.08899 -11.038802,1.37219 z m 136.389927,-0.75869 c -3.34203,-1.91188 -4.5,-4.08155 -4.5,-8.43164 0,-4.60812 1.77952,-6.87864 6.26941,-7.99923 3.29899,-0.82336 8.40724,1.06268 9.76881,3.60678 1.52931,2.85755 1.1182,8.51563 -0.78822,10.84822 -2.06341,2.52467 -7.91166,3.59958 -10.75,1.97587 z m -26,-7.02468 c -2.10054,-1.04377 -5.5,-6.88922 -5.5,-9.45738 0,-2.88981 4.6873,-6.41344 8.53147,-6.41344 4.48962,0 9.46853,4.46962 9.46853,8.5 0,3.35881 -5.00679,8.52441 -8.17308,8.43232 -1.2798,-0.0372 -3.22692,-0.5149 -4.32692,-1.0615 z M 126.466,257.06614 c -3.83462,-4.36739 -4.04116,-8.23577 -0.61173,-11.45755 3.1414,-2.95119 10.46446,-3.26214 13.43855,-0.57062 4.28987,3.88227 3.28774,12.76913 -1.65168,14.6471 -4.79354,1.8225 -7.91853,1.09015 -11.17514,-2.61893 z m 26,-2 c -3.92491,-4.47022 -4.23497,-9.08455 -0.70073,-10.42827 1.32157,-0.50246 2.69813,-1.39132 3.05902,-1.97525 0.36088,-0.58392 2.39694,-1.06168 4.52456,-1.06168 8.83949,0 11.06017,11.33893 3.03358,15.48965 -4.41449,2.28283 -6.51026,1.85498 -9.91643,-2.02445 z m -50.45756,-2.91745 c -2.508126,-2.32445 -3.147663,-4.49684 -2.663608,-9.04775 0.315521,-2.96642 1.819948,-4.36051 6.084418,-5.63817 10.03395,-3.00625 17.18939,7.35984 9.8274,14.23696 -4.06164,3.79414 -9.44197,3.97647 -13.24821,0.44896 z m -34.646028,0.63196 c -7.847117,-3.55586 -9.355675,-8.97788 -3.990611,-14.34294 2.71973,-2.71974 3.417553,-2.94272 7.25,-2.31666 9.033753,1.47573 12.145598,12.15062 4.66909,16.01688 -3.002845,1.55283 -5.477374,1.75343 -7.928479,0.64272 z m 167.328738,-4.63747 c -7.42578,-3.23016 -7.32221,-13.06917 0.16358,-15.53971 10.05599,-3.31877 16.49519,7.10087 9.01247,14.58359 -2.73475,2.73474 -4.63259,2.93249 -9.17605,0.95612 z M 33.189191,246.68397 c -2.799676,-2.20709 -4.377587,-6.77223 -3.402583,-9.84419 0.315279,-0.99336 1.880745,-2.57847 3.478812,-3.52247 7.282414,-4.30183 15.919841,-0.17442 14.747915,7.04733 -0.764663,4.71206 -3.427897,7.26328 -8.254174,7.907 -2.988471,0.3986 -4.51984,0.0285 -6.56997,-1.58767 z m 144.673219,0.76283 c -3.58278,-2.00456 -6.5,-5.15523 -6.5,-7.02017 0,-1.00413 0.5051,-1.82569 1.12244,-1.82569 0.76595,0 0.71933,-0.48573 -0.14677,-1.52932 -1.05149,-1.26696 -0.88748,-1.93565 0.95607,-3.89802 4.0738,-4.33636 13.39148,-3.57426 16.00496,1.30907 1.41444,2.64289 0.31919,9.58892 -1.80716,11.461 -2.31926,2.04192 -7.28198,2.81658 -9.62954,1.50313 z m 31.60182,-6.74404 c -2.82262,-2.82262 -3.60011,-7.69238 -1.69288,-10.6032 1.72204,-2.62815 8.49233,-4.98212 11.54373,-4.01364 2.49177,0.79085 5.37499,7.07338 4.62236,10.0721 -1.49798,5.96843 -10.28904,8.72891 -14.47321,4.54474 z m -73.08211,-2.38627 c -5.0319,-2.54601 -6.70592,-10.42108 -2.7972,-13.15885 4.86839,-3.40995 14.46864,-0.87107 14.91072,3.9433 0.44537,4.8501 -0.25062,6.60097 -3.38323,8.51096 -3.77647,2.30256 -5.32508,2.42754 -8.73029,0.70459 z m -53.155033,-2.54515 c -2.574095,-2.29996 -3.185389,-3.63216 -3.265776,-7.11715 -0.08112,-3.51687 0.37131,-4.64308 2.517064,-6.26557 1.43878,-1.08792 4.307598,-2.02599 6.375153,-2.08459 3.042973,-0.0863 4.306918,0.50645 6.634037,3.11095 4.503053,5.03979 3.281439,10.37299 -3.136197,13.69167 -4.064141,2.10165 -5.515343,1.88927 -9.124281,-1.33531 z m 74.150703,-0.36041 c -4.2403,-1.56859 -6.01538,-3.87325 -6.01538,-7.80999 0,-4.9567 2.40997,-7 8.25616,-7 3.81924,0 4.96321,0.46343 6.74942,2.73422 2.2206,2.82304 2.19023,7.11999 -0.0696,9.84288 -1.75389,2.11331 -6.22115,3.23149 -8.92063,2.23289 z m -40.80981,-2.84641 c -3.33125,-1.35316 -5.44844,-6.96843 -4.0932,-10.85608 2.03494,-5.83743 12.77273,-5.92775 15.87371,-0.13351 1.40034,2.61655 0.50053,7.28984 -1.79276,9.31102 -2.27148,2.00197 -7.16639,2.82462 -9.98775,1.67857 z m -65.020381,-2.61337 c -2.631356,-2.1317 -4.248623,-7.94643 -3.085027,-11.09193 0.9477,-2.56188 5.765701,-5.25828 9.395635,-5.25828 3.9738,0 7.504205,4.14074 7.504205,8.80154 0,5.06473 -2.73656,8.21931 -7.70868,8.88621 -2.795211,0.37492 -4.43592,0.0155 -6.106133,-1.33754 z M 243.27349,227.32 c -6.95966,-4.69012 -6.12325,-11.90326 1.69623,-14.62808 3.80939,-1.32743 4.22469,-1.27506 7.17256,0.90439 5.74985,4.25105 5.09699,11.90465 -1.24139,14.553 -4.30304,1.79792 -3.61839,1.87236 -7.6274,-0.82931 z M 22.468167,223.69973 c -3.988158,-3.7255 -4.184239,-8.11121 -0.526191,-11.76926 2.277551,-2.27755 3.126374,-2.50743 7.25,-1.96344 6.009073,0.79274 10.523017,5.22652 9.583031,9.41287 -1.630281,7.26067 -10.611663,9.63992 -16.30684,4.31983 z m 172.394243,0.74053 c -3.58713,-1.97268 -5.45478,-5.20043 -5.47776,-9.46688 -0.0248,-4.59666 1.19197,-6.06528 5.78628,-6.98414 8.82035,-1.76407 14.67102,5.0756 11.08121,12.95438 -1.84891,4.0579 -7.31672,5.73652 -11.38973,3.49664 z m -20,-0.38905 c -0.55,-0.15143 -2.22932,-0.54621 -3.73181,-0.87729 -5.74728,-1.26642 -7.4637,-11.57156 -2.50576,-15.04424 7.74078,-5.42186 18.11146,3.29858 13.70793,11.52665 -1.10656,2.06763 -5.83005,4.84649 -7.47036,4.39488 z m 47.5,-1.73899 c -6.37239,-3.05173 -7.99651,-9.95647 -3.35398,-14.25903 3.02398,-2.80252 7.08704,-3.15877 11.28246,-0.98924 4.72116,2.44141 5.54814,8.24368 1.81655,12.74529 -2.66788,3.2184 -6.30204,4.15183 -9.74503,2.50298 z M 97.666673,219.6449 c -2.248014,-1.3707 -3.388278,-2.97489 -3.844981,-5.40932 -0.874003,-4.65884 -0.01913,-6.87271 3.443728,-8.91827 6.63765,-3.92096 14.09699,-0.39877 14.09699,6.65639 0,4.84392 -0.81638,6.48092 -4.07152,8.16423 -3.76102,1.94489 -5.79695,1.8406 -9.624217,-0.49303 z m 40.739707,-2.79551 c -4.17711,-2.11325 -5.84732,-6.89479 -3.98166,-11.39888 1.36342,-3.29158 4.34998,-4.36518 9.74198,-3.50202 4.39338,0.70331 7.19571,3.75225 7.19571,7.82898 0,4.20997 -1.48782,6.44928 -5.12811,7.71829 -4.0148,1.39957 -3.73882,1.42235 -7.82792,-0.64637 z m -67.967243,-1.83734 c -3.916282,-3.29534 -4.175301,-8.02241 -0.663309,-12.10535 1.976626,-2.29796 3.224515,-2.80576 6.895013,-2.80576 6.283341,0 8.691571,2.3755 8.691571,8.57343 0,4.3297 -0.306684,4.95299 -3.368034,6.84501 -4.484186,2.77138 -7.833471,2.62433 -11.555241,-0.50733 z m 45.846353,-6.33419 c -2.07076,-2.07076 -2.91862,-3.89314 -2.90777,-6.25 0.0191,-4.15728 0.65986,-5.12516 4.79592,-7.24473 2.70428,-1.38584 3.92655,-1.4938 6.66809,-0.58901 7.50745,2.47768 9.03,12.14072 2.44916,15.54381 -4.36083,2.25507 -7.73836,1.80698 -11.0054,-1.46007 z m -70.251398,-4.67797 c -3.363628,-3.36363 -4.119234,-5.90696 -2.739983,-9.22266 1.357893,-3.26437 8.212493,-7.42027 10.754458,-6.52038 6.679094,2.36449 8.640958,10.74426 3.677481,15.70774 -3.522352,3.52235 -8.190818,3.53645 -11.691956,0.0353 z m 107.683058,-1.14895 c -2.11661,-2.28283 -2.45952,-3.42356 -2.01858,-6.71491 0.60313,-4.50199 2.7512,-6.53509 6.90463,-6.53509 3.5292,0 8.30561,2.37555 9.13803,4.5448 1.39648,3.63919 0.6061,7.3219 -2.01368,9.38262 -3.82666,3.01006 -8.85435,2.72649 -12.0104,-0.67742 z m 94.4204,0.1912 c -7.72317,-4.19121 -5.78713,-14.97964 2.64528,-14.74062 4.46324,0.12651 7.46587,1.87014 8.66875,5.03395 1.49797,3.93997 0.17767,8.07612 -3.12278,9.78285 -3.52069,1.82062 -4.71649,1.80951 -8.19125,-0.0762 z m -69.75543,-0.72565 c -3.04739,-1.5419 -4.98542,-5.17906 -5.00497,-9.39297 -0.0205,-4.42427 4.18138,-7.71472 8.87834,-6.95249 8.13852,1.32069 11.03675,9.98684 5.03019,15.04103 -3.4271,2.88372 -5.25347,3.15129 -8.90356,1.30443 z M 22.677784,201.64053 c -4.992573,-2.11797 -6.008622,-10.56252 -1.680513,-13.96701 1.449172,-1.13992 3.721519,-2.07258 5.04966,-2.07258 3.273865,0 8.014747,2.56956 9.35241,5.069 1.381813,2.58194 0.407059,7.21922 -1.969581,9.37005 -2.232785,2.02064 -7.806035,2.85028 -10.751976,1.60054 z m 68.206631,-2.28959 c -1.537518,-1.33593 -2.827248,-3.74361 -3.174684,-5.92653 -0.487178,-3.06092 -0.154245,-4.10745 1.988306,-6.25 2.560671,-2.56068 7.345106,-3.40069 11.119573,-1.95229 2.10397,0.80737 4.5448,5.57357 4.5448,8.87461 0,6.51909 -9.185652,9.85265 -14.477995,5.25421 z m 132.186525,-1.31419 c -1.48969,-1.4897 -2.70853,-3.28537 -2.70853,-3.99039 0,-0.705 -0.25088,-1.93563 -0.55751,-2.73469 -0.30663,-0.79907 0.14337,-2.15373 1,-3.01035 0.85663,-0.85663 1.55751,-1.98507 1.55751,-2.50762 0,-1.45478 5.6081,-3.45191 7.76811,-2.76635 3.51184,1.11461 6.63189,5.40672 6.63189,9.12316 0,4.28876 -2.60776,7.07556 -7.44147,7.95237 -2.98934,0.54226 -3.96373,0.22015 -6.25,-2.06613 z m -22.04957,-1.48943 c -1.43591,-1.12949 -3.10255,-3.88003 -3.70364,-6.11232 -0.98468,-3.65682 -0.87079,-4.29513 1.1502,-6.44639 2.50884,-2.67053 9.14538,-3.28309 11.98114,-1.10587 4.55311,3.49578 5.0918,9.54454 1.17356,13.17773 -3.31502,3.07386 -7.0919,3.24731 -10.60126,0.48685 z M 68.472483,195.20543 c -2.917099,-1.61682 -5.027114,-5.22601 -5.074636,-8.68018 -0.07495,-5.44822 8.238956,-9.38514 13.774406,-6.52265 5.112362,2.64371 5.377725,10.73244 0.478522,14.58615 -2.94235,2.31446 -5.77211,2.50459 -9.178292,0.61668 z m 65.950507,-1.35449 c -1.18854,-0.9625 -2.60329,-3.71874 -3.1439,-6.12498 -1.23805,-5.51057 0.50771,-8.59596 5.67025,-10.02141 3.06399,-0.84601 4.11325,-0.66563 6.98237,1.20038 3.9853,2.59195 5.8068,6.34932 4.87596,10.05808 -1.46114,5.82167 -9.75256,8.6391 -14.38468,4.88793 z m -24.69603,-3.41938 c -2.68124,-1.2983 -4.61455,-4.83349 -4.61455,-8.43802 0,-6.37806 10.47242,-8.89744 15.61364,-3.75623 7.04483,7.04484 -1.67309,16.71006 -10.99909,12.19425 z m 46.22434,-6.90735 c -6.33364,-7.52711 0.68574,-16.93533 9.30848,-12.47634 8.36373,4.32505 6.33624,15.55307 -2.80848,15.55307 -3.13971,0 -4.42171,-0.60682 -6.5,-3.07673 z m 91.71537,-2.87931 c -2.32016,-1.4147 -3.38588,-2.9621 -3.88973,-5.64785 -1.4441,-7.69774 2.74335,-11.71005 10.25833,-9.82931 8.1748,2.04588 9.35441,12.85255 1.74977,16.02997 -4.25819,1.77919 -4.29825,1.77646 -8.11837,-0.55281 z M 47.623782,179.07146 c -2.686922,-1.882 -4.569038,-8.02712 -3.226719,-10.53527 1.806455,-3.37539 4.118241,-4.93525 7.314271,-4.93525 6.691311,0 10.691473,5.57422 8.229171,11.46734 -2.243789,5.37014 -7.791022,7.1731 -12.316723,4.00318 z m 47.089578,0.035 c -5.205346,-2.18869 -6.64228,-9.07133 -2.714011,-12.9996 2.220834,-2.22083 8.940321,-1.92866 11.363061,0.49408 2.14491,2.14491 2.63667,6.94185 1.02111,9.96056 -1.51843,2.83722 -6.104562,4.04418 -9.67016,2.54496 z m 80.95331,-0.46156 c -3.49141,-2.12885 -5.42789,-8.01643 -3.60393,-10.9572 1.62361,-2.61776 6.18355,-4.33113 9.74744,-3.66254 3.97413,0.74555 6.31758,3.15252 7.15734,7.35133 0.52433,2.62163 0.1235,3.64968 -2.4112,6.18439 -3.52424,3.52423 -6.41555,3.81205 -10.88965,1.08402 z M 23.38212,178.31649 c -4.855278,-2.45665 -6.516215,-9.64587 -3.180281,-13.76558 2.623156,-3.23945 10.469831,-3.11836 13.722396,0.21178 3.601106,3.687 3.595785,8.29714 -0.01407,12.19223 -2.704768,2.91849 -6.484791,3.40735 -10.528041,1.36157 z m 98.04698,-5.46555 c -2.76439,-2.56404 -3.50949,-5.02095 -3.17265,-10.46146 0.12273,-1.98232 7.12976,-4.25037 10.51015,-3.40194 6.7099,1.68408 8.6071,8.75596 3.67273,13.69032 -3.68506,3.68507 -7.16487,3.73977 -11.01023,0.17308 z m 75.36602,0.44578 c -3.38982,-2.9158 -3.90894,-9.40708 -1.00859,-12.61193 2.04685,-2.26175 8.24533,-2.86629 11.50447,-1.12207 3.24464,1.73648 4.41627,6.27711 2.68738,10.41491 -2.40611,5.75864 -8.54909,7.30524 -13.18326,3.31909 z m -123.413,0.0198 c -4.826472,-2.44208 -6.735285,-10.85301 -3.190967,-14.06057 1.078825,-0.97636 3.518387,-1.65502 5.949108,-1.65502 3.524775,0 4.501849,0.50016 6.759487,3.46006 3.180659,4.17006 2.721906,8.40426 -1.248973,11.52775 -2.95098,2.32124 -4.798003,2.4838 -8.268655,0.72774 z m 149.98029,0.57497 c -4.59428,-1.68928 -7.25223,-8.08222 -5.06189,-12.17491 3.64447,-6.80977 15.3362,-5.80347 16.0841,1.38435 0.85568,8.22369 -4.29351,13.26466 -11.02221,10.79056 z m -80.8103,-4.58863 c -2.77992,-2.95909 -3.86699,-8.1809 -2.13704,-10.26539 4.35269,-5.24465 12.62605,-4.8923 15.49726,0.66 4.20449,8.13059 -7.10622,16.26247 -13.36022,9.60539 z m -37.97291,-7.26263 c -2.6036,-1.82363 -5.216788,-6.49071 -5.216788,-9.31706 0,-2.61427 4.575668,-6.12224 7.985638,-6.12224 3.7177,0 8.99768,1.94442 9.09087,3.34783 0.0421,0.6337 0.25388,2.05217 0.47067,3.15217 0.58436,2.96513 -1.44141,8.37302 -3.56152,9.50768 -2.6993,1.44462 -6.22078,1.21636 -8.76887,-0.56838 z m 56.23776,-0.89385 c -3.01868,-3.01867 -3.39838,-9.38491 -0.70455,-11.81255 2.47222,-2.22793 6.39219,-3.00953 9.38568,-1.87141 3.16902,1.20486 5.88489,6.68767 5.16014,10.41733 -1.13399,5.83557 -9.33649,7.77142 -13.84127,3.26663 z M 52.762412,154.20094 c -5.499597,-5.4996 -4.351659,-11.63537 2.564529,-13.70751 5.239674,-1.56985 9.494818,0.11784 10.970566,4.35117 1.658238,4.75682 1.294755,6.68034 -1.858172,9.83326 -3.955738,3.95575 -7.384295,3.81571 -11.676923,-0.47692 z m 133.456058,0.8836 c -2.67059,-1.45081 -4.85606,-5.94133 -4.85606,-9.97783 0,-3.33885 3.51245,-5.91704 8.02528,-5.89068 9.35758,0.0547 12.97016,11.75031 4.91596,15.91529 -3.4798,1.79948 -4.69964,1.79242 -8.08518,-0.0468 z m 55.03199,0.0168 c -5.42407,-2.94793 -6.03091,-10.66962 -1.14081,-14.51617 5.03278,-3.95879 11.66951,-1.61007 12.8229,4.53798 1.0197,5.43546 -0.19147,8.42166 -4.07361,10.04373 -4.137,1.72855 -4.31017,1.72705 -7.60848,-0.0655 z M 28.886343,154.46709 c -6.67514,-1.82599 -8.848846,-10.62942 -3.784149,-15.32568 1.50688,-1.39725 3.41938,-2.5749 4.25,-2.61698 0.83062,-0.0421 2.362625,-0.23679 3.404455,-0.43268 1.101118,-0.20705 3.08995,0.83954 4.75,2.49959 2.277169,2.27716 2.849319,3.73242 2.82396,7.18268 -0.01749,2.37981 -0.641977,5.13136 -1.387745,6.11453 -1.819565,2.39883 -6.410395,3.57594 -10.056521,2.57854 z m 53.377279,-1.97191 c -3.460254,-3.70421 -3.743552,-7.55365 -0.82863,-11.25938 4.429626,-5.63135 14.92742,-1.94777 14.92742,5.2379 0,4.3295 -0.900384,6.02437 -4.071521,7.66423 -4.264122,2.20506 -6.824756,1.78556 -10.027269,-1.64275 z m 39.861498,0.54044 c -4.98756,-2.70622 -4.80853,-10.42905 0.30834,-13.30108 3.69481,-2.07384 9.29979,-0.80987 10.77601,2.43008 1.8045,3.96045 1.36736,7.31281 -1.30161,9.98177 -2.7803,2.7803 -5.79284,3.05414 -9.78274,0.88923 z m 21.60137,-2.60427 c -2.31523,-1.12106 -4.36408,-4.79318 -4.36408,-7.82169 0,-1.04346 1.02515,-3.08899 2.2781,-4.54564 4.9117,-5.71019 14.7219,-2.2073 14.7219,5.25669 0,6.38594 -6.5363,10.06414 -12.63592,7.11064 z m 69.3859,-1.91052 c -2.1667,-1.26198 -4.74998,-6.11079 -4.74998,-8.91568 0,-3.07753 4.38385,-7.00421 7.81969,-7.00421 3.31293,0 7.96995,3.25714 9.12626,6.38294 1.01725,2.74988 -0.59861,7.26037 -3.27173,9.1327 -2.4357,1.70602 -6.38229,1.8848 -8.92424,0.40425 z m -43.74998,-9.62611 c -5.83972,-2.13475 -8.09608,-10.1977 -4,-14.29378 2.74224,-2.74224 8.88644,-2.66376 12.47544,0.15935 2.41475,1.89944 2.67914,2.65149 2.19669,6.24843 -0.82717,6.16705 -5.64191,9.72482 -10.67213,7.886 z m -67.25002,-1.34818 c -2.433678,-1.45323 -4.968468,-6.68183 -4.284316,-8.83741 1.97474,-6.22185 11.909326,-8.83322 15.716746,-4.13124 2.29606,2.83551 1.9001,7.01907 -1.0433,11.02305 -2.02376,2.75298 -7.36267,3.75281 -10.38913,1.9456 z m -32.963712,-2.49857 c -3.741235,-2.03058 -5.769547,-8.64163 -3.728278,-12.1519 2.233364,-3.84059 6.060055,-5.68316 10.192748,-4.90787 2.942206,0.55197 3.81984,1.33187 5.100474,4.53249 2.044658,5.1101 0.764883,9.98975 -3.240532,12.3558 -3.508287,2.0724 -4.774034,2.09847 -8.324412,0.17148 z m -31.636023,-1.97406 c -3.896058,-3.27831 -4.844391,-7.48928 -2.558215,-11.35947 3.986463,-6.74854 12.440142,-6.81954 15.897622,-0.13351 5.15568,9.96999 -4.876808,18.61379 -13.339407,11.49298 z m 192.241205,-0.0521 c -4.31342,-2.12806 -6.40131,-8.23064 -4.04588,-11.82549 1.45429,-2.21952 6.81518,-4.57411 10.44988,-4.58976 2.69757,-0.0116 6.20455,4.80113 6.20455,8.51471 0,4.86191 -1.34294,7.05501 -5.12811,8.37453 -3.92558,1.36846 -3.71946,1.38152 -7.48044,-0.47399 z m -31.89145,-0.57556 c -3.33118,-1.82201 -4.5,-4.02038 -4.5,-8.46381 0,-5.61827 3.67898,-8.86189 8.98854,-7.92488 1.9313,0.34083 4.49444,0.65198 5.69586,0.69143 2.03972,0.067 2.16909,0.50335 1.95324,6.58808 -0.19315,5.44484 -0.61167,6.82446 -2.54519,8.39013 -2.57395,2.08426 -6.55135,2.38241 -9.59245,0.71905 z m -52.92398,-3.17834 c -5.46921,-5.4692 -1.20728,-14.74958 6.72103,-14.63512 2.91714,0.0421 4.92394,1.7445 6.86452,5.82323 2.73139,5.74088 0.0417,9.90563 -7.00794,10.85118 -3.36916,0.4519 -4.40872,0.1296 -6.57761,-2.03929 z m -21.34776,0.10288 c -1.24945,-0.60216 -2.52878,-2.2592 -2.84294,-3.68232 -0.31417,-1.42312 -0.78866,-3.38742 -1.05443,-4.36513 -0.71124,-2.61649 5.14138,-7.72236 8.85179,-7.72236 3.5411,0 8.81732,4.77084 8.81732,7.97274 0,2.89781 -2.56794,7.64749 -4.5448,8.40608 -2.39051,0.91733 -6.64213,0.6367 -9.22694,-0.60901 z m -37.988771,-9.31461 c -1.21304,-0.84965 -2.598212,-2.98715 -3.078162,-4.75 -1.912888,-7.02604 5.933628,-12.77593 12.676311,-9.28916 2.84216,1.46974 3.162364,2.09297 3.162364,6.1551 0,7.75399 -6.878592,12.00391 -12.760513,7.88406 z m 90.902231,-5.00215 c -4.49985,-5.72064 -3.29895,-12.29781 2.66058,-14.57159 4.09222,-1.561334 10.70405,1.9003 11.53145,6.03731 0.7134,3.567 -0.66258,7.84858 -3.12306,9.71794 -3.03133,2.30304 -8.81262,1.68482 -11.06897,-1.18366 z m 37.60826,0.46684 c -4.1191,-2.39915 -6.21392,-11.31309 -3.33515,-14.19186 6.93905,-6.93905 17.73109,-2.353213 16.01311,6.80442 -1.28721,6.86142 -7.43281,10.44246 -12.67796,7.38744 z m -162.826901,-4.843 c -3.074899,-3.0749 -3.542553,-5.31738 -1.970945,-9.45102 1.212258,-3.188483 3.862922,-4.59387 9.047536,-4.797024 5.556283,-0.217717 8.506063,2.661117 8.361857,8.160744 -0.05723,2.18267 -0.847362,5.10291 -1.755845,6.48943 -1.365308,2.08372 -2.441589,2.52094 -6.205656,2.52094 -3.699892,0 -5.102029,-0.54815 -7.476947,-2.92307 z m 56.561551,-0.14526 c -3.55938,-1.02371 -6.48463,-5.4674 -6.48463,-9.85065 0,-6.235177 10.36123,-9.164234 15.22222,-4.303237 1.01298,1.01298 2.09849,3.423683 2.41224,5.357117 0.45279,2.7902 0.0852,4.05044 -1.782,6.10941 -2.83255,3.12346 -5.34525,3.84428 -9.36783,2.68736 z m 48.01537,-0.88634 c -3.29458,-1.33309 -5.64016,-4.65716 -6.15152,-8.71771 -0.85096,-6.757184 6.1197,-11.387604 13.10672,-8.706434 4.8153,1.847805 5.66217,13.004564 1.20034,15.813534 -3.156,1.98688 -5.89085,2.52698 -8.15554,1.61061 z m -25.15457,-4.93378 c -3.71136,-2.3131 -5.10221,-6.870294 -3.3718,-11.047874 2.47969,-5.986511 11.59631,-6.398454 15.15817,-0.684936 5.04587,8.09401 -3.683,16.78321 -11.78637,11.73281 z M 73.466004,96.066149 c -1.706976,-1.944138 -3.103592,-3.706831 -3.103592,-3.917095 0,-0.210264 0.877962,-2.430501 1.951027,-4.93386 1.452071,-3.387544 2.662266,-4.730072 4.732121,-5.249572 4.973663,-1.24831 8.281825,-0.746211 10.824992,1.64297 2.878874,2.704562 3.231531,6.661308 0.98151,11.012369 -1.859514,3.595903 -4.310934,4.979984 -8.820316,4.979984 -2.711226,0 -4.135304,-0.76668 -6.565742,-3.534796 z M 192.1685,95.560881 c -2.51403,-2.514025 -2.9333,-3.573868 -2.42308,-6.125 0.33935,-1.696715 0.61699,-3.631454 0.61699,-4.299421 0,-2.520228 7.50959,-4.428407 11.46081,-2.91218 1.72518,0.662013 5.53919,7.342306 5.53919,9.701968 0,0.772739 -0.93266,2.590666 -2.07258,4.039838 -3.06144,3.891986 -9.00777,3.708355 -13.12133,-0.405205 z M 95.913303,84.256554 c -3.983579,-5.222742 -3.355592,-10.671002 1.52063,-13.192594 4.575077,-2.365865 7.403957,-1.824445 10.824887,2.071781 3.90898,4.452083 3.96074,7.761897 0.18051,11.542127 -4.23648,4.236483 -9.098075,4.072963 -12.526027,-0.421314 z M 170.087,85.849115 c -4.3533,-4.810348 -3.5778,-11.332572 1.76361,-14.832395 3.44602,-2.257922 9.02929,-0.981685 11.75054,2.685967 1.73082,2.332772 1.79977,3.03768 0.66699,6.818551 -0.69486,2.319244 -2.18304,4.86096 -3.30706,5.648258 -2.85939,2.002793 -8.9336,1.82383 -10.87408,-0.320381 z m -21.72459,-2.93681 c -2.65613,-1.013465 -5.13033,-3.687517 -6.54528,-7.073984 -4.19018,-10.0285 11.31823,-16.504199 16.47036,-6.87737 1.68636,3.150993 0.82044,9.352408 -1.64308,11.767163 -2.01654,1.976625 -6.04297,3.038506 -8.282,2.184191 z m -28.30253,-4.06136 c -4.02047,-3.050365 -4.51145,-5.366104 -2.27338,-10.722565 2.30281,-5.511404 8.97648,-5.846281 14.82591,-0.743948 2.81818,2.458239 2.25671,7.863654 -1.17308,11.293436 -3.65256,3.652567 -6.73165,3.699399 -11.37945,0.173077 z"
           id="path671"
           inkscape:connector-curvature="0" />
        <path
           style="fill:#ff00ff"
           d="m 72.112412,450.52084 c -1.035412,-0.60307 -1.75,-2.2135 -1.75,-3.9439 0,-4.516 4.242916,-6.27023 13.063386,-5.40109 l 6.950104,0.68485 1.101672,-3.16026 c 1.650215,-4.73381 5.665883,-6.38923 13.471206,-5.55334 l 6.41363,0.68684 v -2.61649 c 0,-1.43908 0.94443,-3.56093 2.09874,-4.71524 1.79632,-1.79632 2.76895,-1.99178 6.75,-1.35645 2.55819,0.40826 6.22626,0.65974 8.15126,0.55885 l 3.5,-0.18344 -3,2.97964 c -1.65,1.63881 -3.8169,3.85992 -4.81533,4.93581 -2.22396,2.39649 -6.02411,3.21417 -9.84501,2.11835 -2.54912,-0.73108 -3.51707,-0.25884 -8.60591,4.19858 -5.96396,5.22396 -6.693505,5.39505 -13.964487,3.27473 -1.772031,-0.51675 -3.152364,0.29776 -6.712695,3.96108 -4.670121,4.8052 -8.708021,5.91867 -12.806566,3.53148 z m 91.999998,-2.45146 c -6.44061,-3.58875 -0.67435,-11.46843 8.39247,-11.46843 2.74396,0 5.9115,-0.4937 7.03897,-1.09711 1.12748,-0.6034 1.86588,-0.7159 1.64088,-0.25 -0.22499,0.46591 -1.34374,2.87211 -2.48611,5.34711 -1.14237,2.475 -2.95238,5.28215 -4.02224,6.23811 -2.79364,2.49624 -7.34151,3.0259 -10.56397,1.23032 z m 25.25,-13.18788 c -5.06678,-1.82923 -6.61809,-7.66246 -3,-11.28055 2.18916,-2.18917 2.3073,-2.22771 7.75,-2.52905 2.0625,-0.1142 4.98391,-0.53976 6.49203,-0.9457 l 2.74203,-0.73807 -2.56373,5.85641 c -3.54699,8.10253 -7.17969,11.16795 -11.42033,9.63696 z m -52.5,-7.06475 c -4.76142,-1.02614 -5.92288,-4.79293 -2.52544,-8.19036 2.73079,-2.73079 6.04286,-3.36712 10.82435,-2.07959 l 4.06749,1.09526 -2.4332,2.62547 c -1.33826,1.44401 -2.4332,2.9982 -2.4332,3.45376 0,1.35591 -5.34174,3.5606 -7.5,3.09546 z m 17.75,-8.24696 c -1.6216,-0.65181 -2.25,-1.72959 -2.25,-3.85906 0,-2.50736 0.54665,-3.13509 3.61083,-4.14637 2.09569,-0.69164 5.58739,-0.92948 8.32131,-0.5668 9.21926,1.22298 14.22276,-1.35799 10.53415,-5.43386 -1.75033,-1.93409 -1.6645,-1.96275 5.87872,-1.96275 6.32166,0 8.00335,0.34836 9.65499,2 2.22172,2.22172 2.65143,6.94857 0.8,8.8 -2.02739,2.02739 -8.36205,1.42973 -11.47327,-1.08249 -3.72285,-3.00608 -5.86693,-2.51646 -12.38145,2.82738 -5.49517,4.50767 -8.19056,5.23462 -12.69528,3.42395 z m 51,-1 c -1.62681,-0.65391 -2.25,-1.72879 -2.25,-3.88085 0,-4.69327 3.62079,-8.01633 9.78032,-8.9761 5.56113,-0.86654 6.67737,-0.4485 5.16901,1.93586 -0.50529,0.79874 -0.9256,2.71123 -0.93402,4.25 -0.0181,3.31511 -4.30393,7.73248 -7.41133,7.63886 -1.15719,-0.0349 -3.11648,-0.47036 -4.35398,-0.96777 z M 21.827694,409.64942 c -5.709873,-2.31443 -5.474161,-7.02752 0.470418,-9.40607 4.059682,-1.62437 12.0643,-1.844 12.0643,-0.33105 0,2.88696 -3.707764,8.08642 -6.640203,9.31167 -1.812558,0.75734 -3.422513,1.34845 -3.577678,1.31358 -0.155166,-0.0349 -1.197742,-0.43452 -2.316837,-0.88813 z m 136.759786,-5.05268 c -1.8012,-1.09819 -3.7314,-3.19734 -4.28931,-4.66476 -0.55791,-1.46742 -1.74281,-3.20067 -2.6331,-3.85168 -1.35402,-0.99009 -0.81616,-1.29725 3.28931,-1.87851 10.79737,-1.5287 14.43479,-0.24398 15.78733,5.57603 0.49332,2.12275 0.0765,3.10602 -2.01346,4.75 -3.30198,2.59733 -5.96412,2.61543 -10.14077,0.0689 z m 61.24909,-2.04577 c -2.66656,-5.15655 0.31748,-9.63077 6.9932,-10.48548 5.2848,-0.67663 5.49876,-0.95497 4.86267,-6.32578 -0.51983,-4.38914 -0.32809,-4.99514 2.21289,-6.99386 1.53013,-1.2036 3.94643,-2.43107 5.36956,-2.72772 3.96873,-0.82727 9.08752,-3.27301 9.08752,-4.34198 0,-0.52644 -0.45682,-1.2395 -1.01515,-1.58456 -0.55833,-0.34507 -1.77211,-2.28413 -2.69727,-4.30902 -0.92516,-2.02489 -1.8746,-4.07537 -2.10985,-4.55662 -0.23525,-0.48125 0.19102,-0.66112 0.94727,-0.39972 0.75625,0.26141 3.10976,-0.12905 5.23002,-0.86769 4.56196,-1.58926 7.72182,-0.9906 10.43522,1.97702 5.15974,5.64317 2.67948,10.66539 -5.26719,10.66539 -5.20046,0 -6.90554,1.85637 -8.00988,8.72056 -0.95429,5.93154 -3.83292,9.27944 -7.97876,9.27944 -3.61981,0 -4.53441,1.24221 -4.53441,6.1587 0,4.08305 -4.78845,8.8413 -8.8974,8.8413 -2.38996,0 -3.39306,-0.661 -4.62844,-3.04998 z M 41.053729,395.99823 c -2.288819,-1.24082 -2.751549,-2.09429 -2.5,-4.61109 0.426915,-4.27139 3.991223,-6.46524 11.671364,-7.18379 l 6.36268,-0.59529 -1.61268,2.46126 c -0.886975,1.3537 -1.612681,3.10548 -1.612681,3.89285 0,1.68115 -6.515424,7.65704 -8.284796,7.59874 -0.668362,-0.022 -2.479111,-0.72523 -4.023887,-1.56268 z m 155.597931,-1.64728 c -1.13266,-1.2375 -2.38296,-3.375 -2.77844,-4.75 -0.39548,-1.375 -1.34478,-3.49296 -2.10954,-4.70659 -1.3406,-2.12743 -1.49472,-2.14676 -4.29627,-0.53889 -2.74497,1.5754 -3.10378,1.56108 -6.48298,-0.25874 -2.3835,-1.2836 -4.09916,-3.231 -5.14144,-5.83593 -0.86035,-2.15022 -1.43294,-4.01153 -1.27243,-4.13621 1.90117,-1.47695 7.24999,-2.23593 10.13785,-1.43856 4.08692,1.12845 5.19144,2.33173 6.11798,6.66492 0.76503,3.57785 0.79571,3.59008 8.24194,3.28454 4.40379,-0.1807 5.5979,0.17836 7.75,2.33046 3.0252,3.0252 3.35263,7.5933 0.71534,9.98001 -2.69529,2.4392 -8.38985,2.12783 -10.88201,-0.59501 z m -61.86083,0.17745 c -1.87117,-0.5435 -3.56827,-1.97379 -4.3425,-3.65981 -0.69901,-1.5222 -1.85424,-3.95438 -2.56718,-5.40485 -1.26349,-2.57056 -1.20429,-2.65242 2.3425,-3.23899 6.91815,-1.14414 9.90006,-0.69553 13.06203,1.96509 3.78929,3.18848 4.16604,7.53471 0.85422,9.8544 -2.4475,1.71429 -4.71045,1.83148 -9.34907,0.48416 z m -63.761177,-1.99214 c -3.556686,-5.07788 2.270595,-9.21006 11.62649,-8.24444 l 5.706269,0.58894 v -3.56733 c 0,-5.36671 3.520824,-7.71248 11.575842,-7.71248 3.468366,0 6.584236,-0.45 6.924156,-1 0.36606,-0.59231 -0.778,-1 -2.80612,-1 -6.294891,0 -11.576674,-6.97436 -7.994569,-10.55645 1.846243,-1.84624 3.701077,-1.82192 7.754799,0.1017 3.03387,1.43966 4.553,3.4155 5.92383,7.70475 0.42071,1.31637 1.64831,1.75 4.95431,1.75 3.41531,0 4.9827,0.58767 7.03139,2.63636 1.45,1.45 2.63636,3.2132 2.63636,3.91822 0,0.70501 0.24369,1.91688 0.54152,2.69303 0.83511,2.17624 -6.42294,5.12817 -9.62011,3.91261 -3.50903,-1.33413 -4.72227,-3.10556 -5.0969,-7.44189 l -0.32451,-3.75632 -3.19866,2.269 c -1.75926,1.24794 -4.13606,3.9307 -5.28178,5.96169 -2.343617,4.15447 -4.678592,5.26074 -9.068656,4.29652 -2.679149,-0.58844 -3.520668,-0.10967 -7.778489,4.42547 -4.045597,4.3091 -5.330287,5.08531 -8.416669,5.08531 -2.546759,0 -4.077328,-0.62104 -5.088503,-2.06469 z m -11.417241,-9.64105 c -3.096645,-0.59643 -2.875367,-3.56281 0.551903,-7.39859 2.290854,-2.56391 3.704406,-3.20022 7.75,-3.48872 2.721453,-0.19405 6.012768,-0.61167 7.314032,-0.92805 l 2.365934,-0.57521 -2.365934,3.15529 c -7.026851,9.37126 -8.9635,10.51659 -15.615935,9.23528 z m -31.568757,-2.75587 c -0.924684,-0.92469 -1.681243,-2.1287 -1.681243,-2.67557 0,-4.62527 7.277346,-7.805 12.125364,-5.298 4.110126,2.12543 7.64453,0.92165 9.361877,-3.18854 0.778812,-1.86396 2.450287,-3.78152 3.71439,-4.26127 2.426714,-0.92097 12.820689,-0.30042 12.766768,0.76221 -0.01738,0.34252 -1.139519,1.88204 -2.49364,3.42114 -3.122161,3.54867 -8.161036,5.67542 -11.798985,4.97998 -2.298845,-0.43945 -3.541626,0.16124 -6.68596,3.2316 -3.135741,3.06197 -4.780671,3.85963 -8.744787,4.24053 -3.696973,0.35523 -5.290778,0.0609 -6.563784,-1.21208 z m 245.562175,0.34111 c -2.96611,-0.85624 -8.24342,-7.07867 -8.24342,-9.71974 0,-0.48397 2.5875,-1.15677 5.75,-1.49507 4.65166,-0.49762 6.22754,-0.26669 8.25,1.20897 3.45349,2.51978 3.88009,7.39649 0.83369,9.53028 -1.25329,0.87783 -2.51607,1.55548 -2.8062,1.50587 -0.29012,-0.0496 -1.99295,-0.51324 -3.78407,-1.03031 z m -112.01446,-4.5117 c -1.7828,-0.76934 -4.22896,-5.79922 -4.22896,-8.6957 0,-3.35949 -2.29287,-5.12091 -4.87034,-3.74149 -3.07644,1.64646 -4.99662,1.29334 -7.70733,-1.41737 -1.83994,-1.83995 -2.42584,-3.39139 -2.25254,-5.96466 0.32587,-4.83874 -0.87217,-5.50514 -2.57411,-1.43182 -2.28297,5.46391 -4.87682,7.2538 -9.45178,6.52224 -3.64821,-0.58337 -3.99036,-0.42389 -5.16268,2.40633 -1.46999,3.54889 -3.69558,4.95467 -7.84405,4.95467 -2.84172,0 -6.13717,-2.14724 -6.13717,-3.99885 0,-0.4708 1.2375,-1.83247 2.75,-3.02594 2.17603,-1.71705 3.60255,-2.054 6.83471,-1.61437 3.87361,0.52688 4.16874,0.37939 5.71048,-2.85368 0.89418,-1.87509 2.76855,-4.15805 4.16529,-5.07322 3.13175,-2.05201 3.20801,-3.04876 0.28952,-3.78381 -1.2375,-0.31167 -2.70481,-1.59796 -3.26069,-2.85841 -0.66321,-1.5038 -1.69465,-2.17957 -3,-1.96551 -6.01921,0.98709 -14.48931,1.28669 -14.48931,0.51252 0,-0.49184 0.9,-1.66485 2,-2.60671 2.87981,-2.46578 2.46574,-4.0833 -0.54096,-2.11323 -5.22796,3.4255 -9.55144,-1.8406 -6.37855,-7.7692 1.36106,-2.54317 6.91994,-4.92376 9.76194,-4.18055 1.88913,0.49401 2.74703,2.59769 2.27599,5.58095 -0.0651,0.4125 1.16184,0.75 2.72659,0.75 1.56476,0 3.61177,0.84726 4.54892,1.88279 1.11204,1.22879 3.11232,1.90223 5.75856,1.93875 4.95049,0.0683 7.50279,2.18456 8.90209,7.38117 1.10717,4.11171 3.61391,5.7769 8.76052,5.81954 4.33714,0.0359 7.43877,3.13991 8.10175,8.10792 l 0.58315,4.36984 6.16533,0.29552 c 6.66635,0.31953 7.7394,1.04459 8.64654,5.8424 0.43113,2.28024 0.11,3.57531 -1.1749,4.73813 -1.93476,1.75093 -6.8957,2.86016 -8.90801,1.99175 z m -79.562291,-8.03447 c -0.366667,-0.36666 -0.666667,-1.70939 -0.666667,-2.98382 0,-2.29605 -0.03163,-2.30207 -3.473515,-0.66075 -5.865099,2.79687 -10.079369,-0.47844 -7.905304,-6.14396 0.993025,-2.58778 5.871437,-4.5448 11.329159,-4.5448 5.078593,0 6.442608,1.12108 3.421244,2.81193 -2.657665,1.4873 0.08152,2.27468 3.620934,1.04083 3.813108,-1.32925 5.364721,0.10718 4.479784,4.14724 -1.022877,4.66981 -8.239432,8.89954 -10.805635,6.33333 z m 1.333333,-7.33333 c 0,-0.55 -0.45,-1 -1,-1 -0.55,0 -1,0.45 -1,1 0,0.55 0.45,1 1,1 0.55,0 1,-0.45 1,-1 z m 87.101648,2.35863 c -2.87888,-2.01643 -2.63491,-4.79341 0.64835,-7.37975 2.25576,-1.77695 3.56873,-2.05802 7.30555,-1.56394 4.21981,0.55795 4.71948,0.38061 6.77994,-2.40629 2.10857,-2.85202 2.59292,-3.00865 9.30286,-3.00865 6.92897,0 7.06602,-0.0496 6.48911,-2.34817 -0.46277,-1.84383 -0.0464,-2.59555 1.93865,-3.5 1.3904,-0.63351 3.37468,-1.15183 4.40951,-1.15183 2.72595,0 5.02438,-2.71572 5.02438,-5.93658 0,-3.7375 3.39466,-7.85041 7.31291,-8.86018 2.99661,-0.77225 3.20489,-1.12385 3.48486,-5.88286 0.34423,-5.85125 3.26888,-9.44878 7.88779,-9.70258 4.72562,-0.25966 5.43208,-1.25027 4.71997,-6.61842 -0.5775,-4.35345 -0.3725,-5.12333 1.99453,-7.49036 3.33877,-3.33876 7.42917,-3.09683 9.47216,0.56026 2.31176,4.1382 0.80824,7.60061 -4.35424,10.02726 -4.78336,2.24845 -5.97162,4.24782 -4.94814,8.32569 1.00065,3.9869 -1.79046,7.42951 -6.65405,8.20723 -5.10008,0.81553 -7.2903,2.80223 -5.91739,5.36754 1.84472,3.4469 -1.68477,9.003 -5.71913,9.003 -1.32591,0 -3.32347,0.48847 -4.43901,1.08549 l -2.02826,1.08548 2.02739,2.16452 c 3.43622,3.66863 4.32234,7.20817 2.26961,9.06585 -2.54079,2.2994 -9.64818,2.06297 -13.16012,-0.43775 l -2.85987,-2.0364 -1.44213,2.78877 c -2.81501,5.44362 -5.03962,6.63076 -11.09245,5.91937 -4.81236,-0.5656 -5.60853,-0.40278 -6.53985,1.33741 -2.07575,3.87859 -8.57304,5.72524 -11.91293,3.38589 z m 55.14835,-2.34767 c -1.7875,-1.08986 -3.25,-2.74025 -3.25,-3.66753 0,-0.92727 -0.74724,-2.51164 -1.66054,-3.52082 -0.91329,-1.00919 -1.33301,-2.1624 -0.9327,-2.56271 0.40031,-0.40031 4.02573,-0.89437 8.05649,-1.09791 6.40347,-0.32336 7.59428,-0.10447 9.4327,1.73396 1.18558,1.18558 2.10405,3.38887 2.10405,5.04735 0,5.70623 -7.44854,7.90973 -13.75,4.06766 z M 98.8591,354.22219 c -1.140818,-0.83419 -3.292111,-1.19011 -5.446658,-0.90112 -2.751223,0.36901 -3.997565,-0.005 -5.480341,-1.64311 -1.826755,-2.01855 -1.838795,-2.28948 -0.249816,-5.6216 2.024081,-4.24454 4.774422,-5.42454 11.006343,-4.72211 4.158422,0.46872 4.648602,0.77068 4.092952,2.52138 -0.56486,1.77971 -0.25198,1.94461 2.97479,1.56791 3.48331,-0.40666 3.60604,-0.31117 3.60604,2.80563 0,2.2947 -0.76101,3.82523 -2.63486,5.2992 -3.07472,2.41857 -5.24767,2.61018 -7.86845,0.69382 z m -38.758146,-4.61226 c -3.108473,-2.44513 -3.431657,-4.57441 -1.181838,-7.78647 2.718742,-3.88155 7.225423,-2.99361 12.82807,2.52749 l 4.820159,4.75 -3.852466,0.80768 c -9.140899,1.91645 -9.81821,1.9004 -12.613925,-0.2987 z m 86.761116,-5.25898 c 1.52739,-5.41683 2.76492,-7.47508 5.44702,-9.05944 3.86192,-2.28129 5.70447,-2.13033 8.53398,0.69919 4.84299,4.84298 -0.14844,10.61024 -9.18291,10.61024 -5.15504,0 -5.40012,-0.11492 -4.79809,-2.24999 z m 38.76386,-0.68262 c -2.22044,-1.85268 -4.26352,-5.95222 -4.26352,-8.55493 0,-2.29618 6.6102,-3.91655 10.0927,-2.47405 3.46385,1.43477 6.9073,5.44278 6.9073,8.03975 0,4.44515 -8.57856,6.45853 -12.73648,2.98923 z m -149.383588,-5.0336 c -2.883484,-2.88349 -2.922463,-3.05085 -1.397396,-6 1.817235,-3.51415 5.102692,-4.00688 9.128538,-1.36905 2.994641,1.96217 7.524947,8.30617 6.785685,9.50232 -0.283135,0.45812 -2.997849,0.83295 -6.032697,0.83295 -4.783711,0 -5.912583,-0.39468 -8.48413,-2.96622 z M 166.9133,332.25656 c -3.26753,-4.28395 -3.37485,-8.39184 -0.25028,-9.5798 5.20278,-1.97809 11.09102,1.63235 12.26914,7.52296 0.51131,2.55654 0.20948,3.18079 -2.03166,4.20192 -4.50735,2.05369 -7.23081,1.46874 -9.9872,-2.14508 z M 27.362412,325.91984 c -1.925,-0.85426 -4.950685,-2.16255 -6.723745,-2.90735 -2.015699,-0.8467 -3.461364,-2.3009 -3.857847,-3.88062 -0.83074,-3.30993 -0.08692,-5.0468 3.038212,-7.09446 2.453467,-1.60758 2.714524,-1.57773 6.05002,0.69173 3.387248,2.30467 4.702627,4.90643 5.875656,11.6218 0.640031,3.66406 0.47341,3.72371 -4.382296,1.5689 z M 141.39137,309.64001 c -0.80907,-0.51167 0.44574,-1.97656 0.69128,-1.28906 0.24553,0.6875 1.27143,1.25 2.27976,1.25 1.00833,0 2.03423,-0.5625 2.27976,-1.25 0.24554,-0.6875 -0.0525,2.21937 -2.27976,2.21937 -0.825,0 -2.16197,-0.41864 -2.97104,-0.93031 z"
           id="path669"
           inkscape:connector-curvature="0"
           sodipodi:nodetypes="csccsccsssccccsssccssccscscccscccccccssccsccsssscsccscccccccsccccscccccccssccscsscsssssssccssccsccsscsscccsssssccscscccscsscscccssscscccssssccscccsccscsccccssccsccccccsscssscsscscccccscssccsccscscsccccssssccscsssssccccscssscssccscscssccccccssccsscsscsscccssccsscccscccsccsscscscccccsccscccccccsscscscss" />
      </g>
    </g>
  </g>
</svg>
