<?xml version="1.0" encoding="UTF-8" standalone="no"?>
<!-- Created with Inkscape (http://www.inkscape.org/) -->

<svg
   xmlns:dc="http://purl.org/dc/elements/1.1/"
   xmlns:cc="http://creativecommons.org/ns#"
   xmlns:rdf="http://www.w3.org/1999/02/22-rdf-syntax-ns#"
   xmlns:svg="http://www.w3.org/2000/svg"
   xmlns="http://www.w3.org/2000/svg"
   xmlns:sodipodi="http://sodipodi.sourceforge.net/DTD/sodipodi-0.dtd"
   xmlns:inkscape="http://www.inkscape.org/namespaces/inkscape"
   version="1.1"
   id="svg2949"
   width="283"
   height="443"
   viewBox="0 0 283 443"
   sodipodi:docname="feu132.svg"
   inkscape:version="0.92.4 (5da689c313, 2019-01-14)">
  <metadata
     id="metadata2955">
    <rdf:RDF>
      <cc:Work
         rdf:about="">
        <dc:format>image/svg+xml</dc:format>
        <dc:type
           rdf:resource="http://purl.org/dc/dcmitype/StillImage" />
        <dc:title></dc:title>
      </cc:Work>
    </rdf:RDF>
  </metadata>
  <defs
     id="defs2953" />
  <sodipodi:namedview
     pagecolor="#ffffff"
     bordercolor="#666666"
     borderopacity="1"
     objecttolerance="10"
     gridtolerance="10"
     guidetolerance="10"
     inkscape:pageopacity="0"
     inkscape:pageshadow="2"
     inkscape:window-width="1280"
     inkscape:window-height="972"
     id="namedview2951"
     showgrid="false"
     inkscape:zoom="1.5067919"
     inkscape:cx="144.21902"
     inkscape:cy="267.49357"
     inkscape:window-x="-8"
     inkscape:window-y="-8"
     inkscape:window-maximized="1"
     inkscape:current-layer="g928"
     showguides="true" />
  <g
     id="g151"
     transform="translate(25.882805,-2.654647)">
    <g
       id="g534"
       transform="translate(-21.900834,-45.792654)">
      <g
         id="g928"
         transform="translate(-3.9819699,-1.3273232)">
        <g
           id="g1015"
           transform="translate(1.990985,8.6276018)">
          <path
             style="fill:#ffcc00"
             d="m 236.47804,448.20234 c -2.14047,-1.24671 -2.27357,-4.24048 -0.26273,-5.90933 3.17777,-2.63732 7.8594,2.4999 4.93932,5.41998 -1.81945,1.81945 -2.3056,1.87032 -4.67659,0.48935 z m -13.30887,-5.36133 c -2.51283,-1.86596 -0.89594,-4.91974 2.84247,-5.3685 3.44507,-0.41355 5.45153,2.93194 3.14299,5.24048 -1.94896,1.94896 -3.4889,1.98189 -5.98546,0.12802 z m 24.59874,-0.0105 c -1.7439,-2.10127 -0.86536,-4.99851 1.62379,-5.35494 2.42963,-0.34791 5.49677,3.22524 4.65391,5.4217 -0.69872,1.82086 -4.74685,1.7778 -6.2777,-0.0668 z m -11.45469,-6.72989 c -1.86167,-2.65794 -0.51567,-4.81818 3.00208,-4.81818 3.33384,0 4.88363,3.26387 2.55182,5.37413 -2.40946,2.18053 -3.72975,2.04837 -5.5539,-0.55598 z M 94.212804,434.23445 c -1.36039,-4.28621 4.438162,-6.64267 6.855116,-2.78583 0.75469,1.20428 0.67975,2.10524 -0.27031,3.25 -1.900458,2.2899 -5.797895,2.01517 -6.584806,-0.46417 z m 122.086666,-0.52344 c -2.17854,-2.17854 -1.96379,-5.14822 0.46634,-6.44879 3.13818,-1.6795 5.96223,-0.31177 5.96223,2.88761 0,4.69937 -3.40445,6.58531 -6.42857,3.56118 z m 40.62857,0.37143 c -1.78238,-1.78238 -1.45917,-3.59093 0.86392,-4.83421 2.63298,-1.40913 4.93608,0.29701 4.93608,3.65665 0,1.81427 -0.54492,2.37756 -2.3,2.37756 -1.265,0 -2.84,-0.54 -3.5,-1.2 z M 81.693825,430.21852 c -1.47136,-2.74926 0.340296,-4.93608 4.089267,-4.93608 1.953858,0 3.008236,0.62406 3.460174,2.04799 1.408085,4.43648 -5.339315,7.01775 -7.549441,2.88809 z m 164.964645,0.4801 c -1.65587,-1.99521 -0.13504,-4.78044 2.85404,-5.22686 2.7309,-0.40787 4.90087,3.27997 3.16248,5.3746 -1.57193,1.89407 -4.37918,1.82513 -6.01652,-0.14774 z m -137.93043,-1.22731 c 0,-2.53498 2.30001,-4.39471 4.42612,-3.57885 2.76316,1.06033 1.54782,4.83545 -1.67612,5.2064 -2.16543,0.24916 -2.75,-0.0968 -2.75,-1.62755 z m 119.16251,0.94679 c -0.73562,-0.47401 -1.18562,-1.93595 -1,-3.24875 0.253,-1.78937 0.96334,-2.38691 2.83749,-2.38691 2.10856,0 2.5,0.46758 2.5,2.9863 0,3.11481 -1.85592,4.2484 -4.33749,2.64936 z m 9.24723,-6.51028 c -1.19844,-3.12308 0.0142,-5.12538 3.10396,-5.12538 2.65144,0 2.9863,0.33639 2.9863,3 0,2.53088 -0.43092,3.04957 -2.75569,3.31697 -1.75858,0.20228 -2.96514,-0.22887 -3.33457,-1.19159 z m -146.316644,-1.0132 c -1.613522,-1.94418 0.229335,-5.61218 2.819638,-5.61218 2.743669,0 4.714424,2.77966 3.427145,4.83382 -1.386847,2.21305 -4.712217,2.6274 -6.246783,0.77836 z m 168.656904,-0.69228 c -2.41716,-1.40787 -2.19281,-4.61255 0.42083,-6.01133 1.79895,-0.96276 2.39854,-0.85039 3.5,0.65595 1.64593,2.25094 1.68127,3.68338 0.12917,5.23548 -1.4329,1.4329 -1.77816,1.44312 -4.05,0.1199 z M 74.781086,420.84636 c -0.884668,-1.06596 -0.907158,-1.96801 -0.08726,-3.5 1.466719,-2.74059 5.681414,-2.75084 6.549441,-0.0159 1.255315,3.95515 -3.810307,6.71124 -6.46218,3.51593 z m 42.518384,-0.13535 c -2.05229,-2.05229 -1.98458,-2.7447 0.48711,-4.98154 1.57676,-1.42696 2.45439,-1.61367 3.75,-0.79781 2.16886,1.36578 2.69157,4.04325 1.15159,5.89882 -1.56257,1.88278 -3.42781,1.84143 -5.3887,-0.11947 z m 97.06071,-0.54337 c -1.71863,-2.4537 -1.1985,-4.57067 1.31936,-5.36981 3.97307,-1.261 7.51818,3.00883 5.00867,6.0326 -1.73358,2.08884 -4.61187,1.78737 -6.32803,-0.66279 z m -113.1688,-1.00071 c -0.49513,-1.55999 -0.19061,-2.61075 1.01131,-3.48961 2.52506,-1.84637 4.68767,-0.60615 4.32945,2.48287 -0.40614,3.50214 -4.3149,4.23895 -5.34076,1.00674 z m 125.24551,-0.50897 c -1.44307,-1.44307 -0.64376,-4.2614 1.39181,-4.90747 2.52876,-0.8026 4.2176,0.63416 3.7329,3.17573 -0.35738,1.87397 -3.81432,3.04213 -5.12471,1.73174 z m 19.3457,-1.2736 c -0.87364,-1.63241 -0.72633,-2.20721 0.77106,-3.00859 2.88752,-1.54535 6.33546,-0.22601 5.97686,2.28702 -0.42444,2.97438 -5.26523,3.49201 -6.74792,0.72157 z M 84.712468,413.76368 c -1.031509,-1.24289 -0.934779,-1.87863 0.532542,-3.5 2.147613,-2.37308 3.797747,-2.51188 5.498592,-0.46248 1.031509,1.24289 0.934779,1.87863 -0.532542,3.5 -2.147613,2.37308 -3.797747,2.51188 -5.498592,0.46248 z m 151.015572,-2.98124 c 0,-1.375 0.1882,-2.5 0.41821,-2.5 0.23002,0 1.072,-0.25088 1.87106,-0.55751 0.79907,-0.30663 2.20141,0.19104 3.11631,1.10595 2.09284,2.09284 0.48841,4.45156 -3.02802,4.45156 -1.8694,0 -2.37756,-0.53433 -2.37756,-2.5 z M 96.978035,411.1995 c -4.019677,-1.52321 -2.37472,-5.91706 2.21521,-5.91706 1.680165,0 2.597895,4.71205 1.144905,5.87849 -0.627993,0.50414 -2.087289,0.52089 -3.360115,0.0386 z m 10.321435,-0.48849 c -2.18555,-2.18554 -1.96956,-3.29005 0.89896,-4.59703 4.35544,-1.98447 7.77428,2.89678 3.59535,5.13328 -2.50156,1.33879 -2.63522,1.32284 -4.49431,-0.53625 z m -32.082976,-1.81335 c -2.486726,-1.81834 -1.50646,-5.05296 1.642345,-5.41932 2.753689,-0.32038 4.257376,1.62894 3.260492,4.22678 -0.802059,2.09013 -2.958108,2.61456 -4.902837,1.19254 z m 91.477336,-0.67914 c -1.97411,-3.68865 2.81489,-6.7554 5.83421,-3.73608 1.58146,1.58146 1.5146,2.34254 -0.37143,4.22857 -2.15039,2.1504 -4.14457,1.97061 -5.46278,-0.49249 z m 52.96464,0.4801 c -1.65587,-1.99521 -0.13504,-4.78044 2.85404,-5.22686 2.7309,-0.40787 4.90087,3.27997 3.16248,5.3746 -1.57193,1.89407 -4.37918,1.82513 -6.01652,-0.14774 z m 32.26957,0.38382 c -1.78308,-1.78308 -1.45892,-3.59106 0.86706,-4.83589 1.61533,-0.8645 2.61714,-0.74582 4.5842,0.54304 2.4091,1.5785 2.44249,1.73178 0.77795,3.57107 -1.98131,2.18933 -4.47296,2.47803 -6.22921,0.72178 z M 118.24502,407.3012 c -1.46733,-1.62137 -1.56406,-2.25711 -0.53255,-3.5 1.85922,-2.24022 5.75015,-1.88322 7.107,0.65207 0.96276,1.79895 0.85039,2.39854 -0.65595,3.5 -2.48669,1.81832 -3.81531,1.67193 -5.9185,-0.65207 z m 35.09001,-0.60055 c -0.95811,-2.49678 -0.73577,-3.27892 1.23134,-4.33169 3.88022,-2.07663 8.60713,1.46688 6.05648,4.54023 -1.57055,1.8924 -6.53614,1.75031 -7.28782,-0.20854 z m 24.05968,-2.08488 c -1.51322,-1.51321 -0.60076,-5.21947 1.44484,-5.86872 2.81295,-0.8928 5.31668,1.61093 4.42388,4.42388 -0.64925,2.0456 -4.35551,2.95806 -5.86872,1.44484 z m 53.33333,-3.69952 c 0,-2.72299 3.43383,-4.59998 5.19444,-2.83937 1.82579,1.82579 0.42696,4.68957 -2.45299,5.02198 -2.34168,0.27028 -2.74145,-0.048 -2.74145,-2.18261 z m 12.43686,-0.0898 c -1.92577,-2.93913 -1.18867,-4.54401 2.08697,-4.54401 3.38838,0 4.96764,3.24525 2.61525,5.37413 -2.37009,2.14491 -2.80296,2.06849 -4.70222,-0.83015 z m -151.849853,0.1433 c -2.612067,-1.91002 -1.275927,-5.68731 2.01176,-5.68731 2.789939,0 4.207586,2.4981 2.738932,4.8264 -1.376963,2.18294 -2.631712,2.41032 -4.750692,0.86088 z m 12.214213,-1.22422 c -1.47463,-3.23645 0.81534,-6.03692 4.08727,-4.99845 2.71946,0.86312 2.83439,5.07815 0.17725,6.50021 -2.70411,1.44719 -2.96232,1.35626 -4.26452,-1.50176 z m 41.4371,0.37526 c -2.09424,-2.09424 -1.44361,-4.74869 1.3349,-5.44605 3.13977,-0.78804 4.70763,0.58886 4.26144,3.74239 -0.37864,2.6762 -3.63308,3.66692 -5.59634,1.70366 z m 20.98402,-1.39514 c -2.8366,-1.98683 -2.79978,-2.85905 0.17797,-4.2158 1.83843,-0.83765 2.8333,-0.77168 4.25,0.28181 1.79106,1.33186 1.78541,1.44069 -0.17797,3.43302 -1.8726,1.90021 -2.19761,1.93852 -4.25,0.50097 z m -85.652899,-1.01662 c -0.863195,-0.8632 -1.569446,-1.95516 -1.569446,-2.42659 0,-0.47143 0.706251,-1.56339 1.569446,-2.42659 1.977029,-1.97703 5.430554,-0.43385 5.430554,2.42659 0,2.86044 -3.453525,4.40362 -5.430554,2.42659 z m 35.180559,-1.50669 c -2.57999,-1.50271 -2.15895,-4.77645 0.78694,-6.11868 3.61329,-1.64633 5.97732,0.71597 4.52891,4.52559 -1.07784,2.83492 -2.46831,3.25163 -5.31585,1.59309 z m 40.18043,-0.50372 c -2.58725,-3.11745 2.42735,-7.02399 5.61761,-4.37631 1.85368,1.53841 1.82913,2.4401 -0.11947,4.3887 -2.00029,2.00029 -3.83118,1.99616 -5.49814,-0.0124 z m 28.57241,-2.40723 c -0.86044,-2.71101 0.13919,-4.00895 3.08756,-4.00895 2.89511,0 4.16374,2.38639 2.39903,4.51273 -1.75508,2.11475 -4.74257,1.84043 -5.48659,-0.50378 z M 51.767904,391.83048 c -2.22712,-2.68352 -0.840581,-5.04804 2.960131,-5.04804 2.637993,0 3.562122,0.4648 3.845046,1.9339 0.372174,1.93255 -2.1735,4.5661 -4.413731,4.5661 -0.652534,0 -1.728685,-0.65338 -2.391446,-1.45196 z m 122.423476,-0.66355 c -0.49512,-1.55999 -0.19061,-2.61075 1.01131,-3.48961 2.52506,-1.84637 4.68767,-0.60615 4.32945,2.48287 -0.40614,3.50214 -4.3149,4.23895 -5.34076,1.00674 z M 36.18244,388.87276 c -1.891797,-1.38332 -1.892473,-1.44878 -0.03614,-3.5 2.654973,-2.93371 6.378024,-2.75016 7.156828,0.35284 0.337258,1.34375 0.319273,2.91875 -0.03997,3.5 -0.928071,1.50166 -4.809029,1.30826 -7.080721,-0.35284 z m 104.86002,-0.34032 c -0.34254,-0.9625 -0.79276,-2.06773 -1.00048,-2.45607 -0.20772,-0.38834 0.76392,-1.45407 2.1592,-2.36829 3.20007,-2.09677 5.52686,-0.54043 5.52686,3.6968 0,2.53724 -0.35851,2.87756 -3.03138,2.87756 -1.98311,0 -3.24676,-0.60516 -3.6542,-1.75 z m 22.79077,0.37675 c -1.79578,-2.16379 -0.23371,-4.62675 2.93441,-4.62675 2.86226,0 4.81376,2.81022 3.46593,4.99105 -0.90908,1.47092 -5.07399,1.23386 -6.40034,-0.3643 z M 63.636607,387.11161 c -0.966695,-1.80629 -0.847874,-2.40039 0.70756,-3.53775 3.800051,-2.77866 9.277327,0.72217 6.453435,4.12476 -1.906171,2.29679 -5.787925,1.97859 -7.160995,-0.58701 z m 26.147625,0.27584 c -1.279376,-2.39054 0.960739,-4.5518 3.787845,-3.65451 1.905952,0.60493 3.475695,3.89643 2.380529,4.9916 -1.277202,1.2772 -5.227521,0.42091 -6.168374,-1.33709 z m 12.407098,-0.22068 c -0.50295,-1.58464 -0.1824,-2.61656 1.10529,-3.55813 2.27263,-1.66179 2.60765,-1.65406 4.99029,0.11523 1.54979,1.15083 1.71919,1.80605 0.84027,3.25 -1.70222,2.79652 -6.07093,2.91802 -6.93585,0.1929 z m 52.05819,-1.50571 c -2.30039,-2.30039 -1.48871,-4.82249 1.66981,-5.18855 3.67449,-0.42587 5.98463,3.47691 3.24419,5.48076 -2.33895,1.71029 -2.9477,1.67409 -4.914,-0.29221 z m 66.08608,-1.25977 c -1.56881,-1.73351 -1.57536,-2.00819 -0.0836,-3.5 2.24733,-2.24733 5.08071,-2.02129 6.88097,0.54893 1.37255,1.9596 1.35399,2.29268 -0.1933,3.4682 -2.4197,1.83833 -4.62901,1.66533 -6.60411,-0.51713 z m -45.85756,-1.19895 c -0.9625,-0.5606 -1.75,-1.80692 -1.75,-2.76959 0,-3.77983 4.61032,-5.5297 6.99585,-2.65532 0.99985,1.20476 0.92208,1.98133 -0.40061,4 -1.81471,2.7696 -2.29437,2.91066 -4.84524,1.42491 z m 12.61163,-1.4199 c -0.9446,-2.46159 0.41434,-4.5 3,-4.5 2.78489,0 4.21112,2.60495 2.53318,4.62675 -1.5155,1.82607 -4.8128,1.75054 -5.53318,-0.12675 z m 21.2804,0.31955 c -2.2859,-1.27926 -2.05161,-4.52998 0.42189,-5.85376 2.5992,-1.39105 4.93608,0.2849 4.93608,3.54002 0,2.54927 -2.78674,3.75267 -5.35797,2.31374 z m 24.2884,-1.40337 c -1.75398,-2.11343 -0.004,-4.91618 3.06957,-4.91618 3.07357,0 4.82355,2.80275 3.06957,4.91618 -0.72295,0.8711 -2.10426,1.58382 -3.06957,1.58382 -0.96531,0 -2.34662,-0.71272 -3.06957,-1.58382 z M 49.222504,380.27349 c -1.061983,-1.71832 0.544839,-4.99105 2.450474,-4.99105 2.341807,0 4.442272,2.54855 3.698317,4.48727 -0.650127,1.6942 -5.183514,2.06563 -6.148791,0.50378 z m -18.770292,-1.12553 c -3.445886,-1.92842 -1.389796,-6.86552 2.859192,-6.86552 2.181746,0 3.485477,2.32783 2.666722,4.76146 -0.691099,2.05419 -3.621333,3.16991 -5.525914,2.10406 z m 42.722849,-0.92406 c -2.323122,-2.56702 -0.97846,-5.29343 2.836577,-5.75139 3.520521,-0.42261 5.213918,2.65461 3.112134,5.65532 -1.891725,2.70082 -3.566965,2.72787 -5.948711,0.0961 z m 90.237689,0.90197 c -2.32275,-1.29987 -2.11347,-4.5436 0.37921,-5.87764 3.97799,-2.12895 6.95354,3.29319 3.12079,5.68678 -1.18697,0.74128 -2.39841,0.80734 -3.5,0.19086 z m -17.93471,-0.92353 c -2.32763,-1.35572 -2.22621,-4.59467 0.18426,-5.88472 2.92734,-1.56666 4.00053,-1.2724 5.2342,1.43521 1.87384,4.11262 -1.39219,6.7946 -5.41846,4.44951 z m -84.31227,-3.34177 c -0.910369,-0.66568 -1.489935,-2.08058 -1.287925,-3.14423 0.452438,-2.38222 5.019799,-3.13939 6.703039,-1.11121 2.584263,3.11385 -2.023905,6.73515 -5.415114,4.25544 z m -20.725159,-0.19889 c -1.189564,-1.18956 -0.799329,-4.06235 0.723502,-5.32619 2.139108,-1.7753 5.777482,0.4347 5.374606,3.26461 -0.311743,2.18978 -4.540351,3.61934 -6.098108,2.06158 z M 216.38303,373.4537 c -2.29758,-2.5388 -2.07067,-4.02474 0.8154,-5.33972 4.51918,-2.05908 7.95412,3.80054 3.59535,6.13328 -2.50606,1.3412 -2.47352,1.34705 -4.41075,-0.79356 z m -37.23008,-3.61442 c -0.83619,-3.33164 0.14936,-4.55684 3.66549,-4.55684 3.41458,0 4.56172,1.91299 2.95142,4.92186 -1.61016,3.00862 -5.82859,2.77591 -6.61691,-0.36502 z m 21.23008,0.61442 c -2.29758,-2.5388 -2.07067,-4.02474 0.8154,-5.33972 1.88895,-0.86067 2.83039,-0.8268 4,0.14388 1.99798,1.65818 1.96559,5.6433 -0.0522,6.41759 -2.38672,0.91587 -2.96231,0.76823 -4.76322,-1.22175 z m 26.65448,0.19282 c -0.7975,-2.07824 0.86003,-4.75708 3.23162,-5.22282 2.56129,-0.503 4.6658,2.60365 3.38498,4.99688 -1.23654,2.3105 -5.75744,2.46488 -6.6166,0.22594 z m 15.03955,-0.95416 c -1.27607,-1.94753 -1.34339,-2.71178 -0.34487,-3.91493 2.71067,-3.26615 8.97385,-0.19092 7.02553,3.44954 -1.60177,2.99295 -4.87513,3.22098 -6.68066,0.46539 z M 50.230875,368.29139 c -0.890036,-2.80426 0.158348,-4.00895 3.488789,-4.00895 2.909037,0 4.873798,2.79069 3.513902,4.99105 -1.165339,1.88556 -6.32207,1.16235 -7.002691,-0.9821 z m 102.697165,0.79105 c -1.76194,-1.76194 -1.46951,-3.49782 0.86469,-5.13276 2.56348,-1.79553 5.66868,-1.08267 6.48481,1.48872 1.21923,3.84146 -4.37723,6.61631 -7.3495,3.64404 z m 13.88594,-4.05 c -1.13108,-2.99541 0.4255,-5.75 3.24924,-5.75 4.26604,0 5.97353,3.54844 3.09339,6.42857 -2.27501,2.27501 -5.35163,1.94585 -6.34263,-0.67857 z m -94.046076,-0.20196 c -1.91967,-2.31306 -0.836055,-5.01173 2.151423,-5.35797 1.903121,-0.22057 3.001931,0.30245 3.810843,1.81392 2.081798,3.88987 -3.112708,6.97756 -5.962266,3.54405 z m -44.5454,-0.55699 c -0.901789,-1.45912 0.336881,-4.71236 2.043598,-5.36728 3.310256,-1.27027 6.560333,2.87783 4.146261,5.2919 -1.365456,1.36546 -5.362465,1.41413 -6.189859,0.0754 z m 13.08792,-0.30715 c -2.805175,-2.05119 -1.633599,-5.1287 2.090327,-5.49088 2.530465,-0.24612 3.296732,0.13536 3.864361,1.9238 0.502533,1.58334 0.181635,2.61569 -1.105656,3.55698 -2.248995,1.64451 -2.612811,1.64527 -4.849032,0.0101 z m 169.844676,0.55079 c -1.8917,-1.29533 -2.35206,-4.05205 -0.88061,-5.27324 2.30789,-1.91538 6.45355,-0.34114 6.45355,2.45061 0,2.94642 -3.09951,4.51628 -5.57294,2.82263 z m -150.641648,-2.8063 c -1.281355,-2.81227 -0.04091,-4.38259 3.486022,-4.41308 2.497471,-0.0216 4.630591,4.80161 2.671705,6.04099 -2.576353,1.63005 -4.960477,0.99976 -6.157727,-1.62791 z M 221.2111,360.22907 c -1.01474,-3.19716 1.58579,-5.51533 4.46096,-3.97659 3.11542,1.66732 2.40077,5.43225 -1.10818,5.8381 -2.00675,0.2321 -2.83408,-0.22724 -3.35278,-1.86151 z m 11.68725,0.30337 c -1.3833,-2.68958 -0.30224,-4.25 2.94441,-4.25 3.33411,0 4.76099,2.23991 2.87471,4.51273 -1.6722,2.01488 -4.71844,1.87734 -5.81912,-0.26273 z m -33.64042,-2.20164 c -1.07005,-1.73138 0.41216,-4.89519 2.62193,-5.59654 2.61621,-0.83036 4.11005,0.66348 3.68284,3.68284 -0.24172,1.70848 -1.07211,2.45068 -2.99022,2.67265 -1.46056,0.16902 -2.95211,-0.17251 -3.31455,-0.75895 z m 45.04154,-1.61979 c -1.88603,-1.88603 -1.95289,-2.64711 -0.37143,-4.22857 1.9186,-1.9186 4.79213,-1.39084 5.71706,1.05 1.54082,4.06615 -2.22114,6.30306 -5.34563,3.17857 z M 49.781086,355.84636 c -0.899408,-1.08372 -0.91285,-1.95737 -0.05478,-3.56068 2.062788,-3.85436 8.265636,-0.7393 6.692265,3.36084 -0.774759,2.01899 -5.021606,2.14685 -6.637481,0.19984 z m 45.146949,0.23608 c -2.303053,-2.30305 -0.697,-6.8 2.428571,-6.8 1.403573,0 4.371434,2.71569 4.371434,4 0,1.28431 -2.967861,4 -4.371434,4 -0.675714,0 -1.768571,-0.54 -2.428571,-1.2 z m 13.702065,-1.983 c -0.9915,-1.85263 -0.83811,-2.45036 1.01355,-3.94975 2.75671,-2.23225 6.44381,-1.09846 6.92188,2.12851 0.62123,4.19326 -5.8688,5.68277 -7.93543,1.82124 z m -73.862196,-0.26896 c -1.882945,-2.26881 -0.856246,-5.04804 1.86484,-5.04804 3.154413,0 4.941303,2.77569 3.164858,4.91618 -1.638052,1.97373 -3.46141,2.02153 -5.029698,0.13186 z m 33.481611,-1.16942 c -1.949092,-1.94909 -1.656588,-4.26429 0.72852,-5.76632 3.736972,-2.35337 7.731294,3.46577 4.167611,6.0716 -2.320142,1.69653 -2.932503,1.65835 -4.896131,-0.30528 z m 146.678525,0.42138 c -2.05738,-2.05738 -1.36857,-4.54088 1.45606,-5.24981 3.36255,-0.84395 5.82829,1.34839 4.87933,4.3383 -0.74628,2.35133 -4.37368,2.87322 -6.33539,0.91151 z m 11.04298,-1.95702 c -1.93004,-1.93004 -1.47715,-3.77916 1.22741,-5.01144 3.0587,-1.39364 5.77753,0.43374 5.32787,3.58095 -0.34886,2.44166 -4.61349,3.37228 -6.55528,1.43049 z m -106.12867,-2.03155 c -1.22278,-1.95799 -1.12541,-2.38403 0.92426,-4.04375 1.26008,-1.02034 2.92869,-1.61049 3.70803,-1.31143 0.77933,0.29906 1.83017,0.54375 2.33519,0.54375 1.33785,0 1.12438,4.39383 -0.28179,5.8 -1.89203,1.89203 -5.1914,1.40417 -6.68569,-0.98857 z m -75.00303,-1.44604 c -1.6991,-1.19009 -1.912759,-1.86782 -1.079619,-3.42456 1.147422,-2.14398 4.922787,-2.58638 6.72153,-0.78763 0.756519,0.75651 0.834871,1.74799 0.22778,2.88235 -1.356307,2.53428 -3.467294,3.01255 -5.869691,1.32984 z m 39.888715,-1.36539 c -2.485488,-2.48549 -2.49584,-3.2413 -0.0744,-5.43267 3.834978,-3.4706 8.459299,0.0977 6.291742,4.85501 -1.408772,3.09191 -3.508047,3.28695 -6.217342,0.57766 z m 152.050345,0.0941 c -0.90363,-1.68846 -0.68852,-2.28504 1.29184,-3.58262 3.23069,-2.11683 5.8502,-0.98196 5.46192,2.3663 -0.40045,3.45308 -5.10339,4.30006 -6.75376,1.21632 z m -179.523716,-0.7103 c -1.412413,-1.41241 -1.43788,-1.88531 -0.201949,-3.75 1.783573,-2.69094 3.679077,-3.08273 6.15509,-1.27222 1.67194,1.22255 1.776224,1.78119 0.752097,4.0289 -1.35718,2.97869 -4.285995,3.41256 -6.705238,0.99332 z m 47.473376,-0.3838 c -2.62983,-2.62983 -2.52291,-3.80462 0.47039,-5.16846 4.15267,-1.89209 7.53186,2.76621 4.32961,5.96846 -1.6541,1.6541 -2.48426,1.51574 -4.8,-0.8 z m 99.2,0.8 c -1.75226,-1.75226 -1.46979,-3.58524 0.73426,-4.76482 2.88409,-1.54351 4.43944,-1.2677 5.8826,1.04318 1.00209,1.60459 1.02901,2.40243 0.11811,3.5 -1.43955,1.73455 -5.10155,1.85506 -6.73497,0.22164 z m -108.000005,-5 c -2.627279,-2.62728 -0.814233,-5.8 3.3144,-5.8 1.900065,0 2.891795,3.80565 1.445775,5.54799 -1.465462,1.76577 -3.156868,1.85532 -4.760175,0.25201 z M 227.68622,339.2043 c -1.74049,-3.25214 -0.46099,-5.09673 3.28494,-4.73573 2.55997,0.24671 3.3291,0.82462 3.59437,2.70078 0.58543,4.14046 -4.88625,5.75902 -6.87931,2.03495 z m -114.29151,0.41147 c -1.3131,-1.3131 -0.63252,-4.28124 1.20746,-5.26597 1.44059,-0.77098 2.27831,-0.5564 3.62128,0.92757 0.96094,1.06182 1.4817,2.62234 1.15726,3.46782 -0.58849,1.53359 -4.72186,2.13473 -5.986,0.87058 z m 101.3732,-0.78529 c -1.97734,-2.38255 -0.83238,-5.01255 2.3405,-5.37622 3.64494,-0.41777 5.04616,0.9926 4.22736,4.25496 -0.736,2.93248 -4.52749,3.57976 -6.56786,1.12126 z m -89.61281,-0.31335 c -2.05727,-1.4087 -2.30451,-4.03563 -0.53088,-5.64073 2.09658,-1.89738 4.25628,-2.0415 5.90382,-0.39396 3.27221,3.27221 -1.53013,8.66602 -5.37294,6.03469 z m -20.85563,-4.80612 c -3.06041,-3.06041 -1.26985,-6.7503 3.03708,-6.25865 2.13456,0.24367 2.97703,0.93349 3.21825,2.63512 0.62702,4.42304 -3.22466,6.6542 -6.25533,3.62353 z m -23.000006,-1 c -1.85909,-1.85909 -1.875039,-1.99275 -0.536245,-4.49431 1.439731,-2.69016 4.603796,-2.41488 6.560053,0.57075 1.322689,2.01867 1.400464,2.79524 0.400608,4 -1.60976,1.93964 -4.442037,1.90594 -6.424416,-0.0764 z M 44.383023,329.4537 c -2.266681,-2.50465 -2.080303,-3.84648 0.796049,-5.73114 3.114262,-2.04054 6.352065,-1.07281 7.158306,2.13952 1.209745,4.82 -4.50676,7.40117 -7.954355,3.59162 z m 50.398063,0.39266 c -0.899427,-1.08374 -0.912858,-1.95736 -0.05474,-3.56076 1.240452,-2.31781 2.808704,-2.25621 4.339394,0.17044 2.17877,3.45405 -1.690698,6.51585 -4.284654,3.39032 z m 149.982134,-0.49818 c -1.70323,-3.18252 -1.18941,-4.98893 1.6196,-5.69394 4.8573,-1.21911 8.48585,3.58976 4.76283,6.3121 -2.56981,1.87909 -5.1813,1.62616 -6.38243,-0.61816 z M 32.299464,328.71101 c -1.960897,-1.96089 -2.002249,-3.82613 -0.119468,-5.3887 1.969923,-1.63489 4.5154,-0.98295 6.223359,1.5939 1.235931,1.86469 1.210464,2.33759 -0.201949,3.75 -2.037698,2.0377 -3.894946,2.0518 -5.901942,0.0448 z m 81.359006,-2.01239 c -0.95288,-1.14815 -1.02584,-2.04215 -0.26526,-3.25 1.49134,-2.36833 4.48106,-2.68669 5.97999,-0.63678 2.77564,3.79592 -2.69958,7.51981 -5.71473,3.88678 z m 119.06437,0.0776 c -1.12934,-1.36077 -1.01546,-1.91751 0.75423,-3.6872 2.7889,-2.78891 5.49271,-1.75508 5.06794,1.93778 -0.37327,3.24516 -3.741,4.25708 -5.82217,1.74942 z m -105.41595,-0.81241 c -3.56166,-2.60435 0.43795,-8.42206 4.17115,-6.06722 2.35791,1.48733 2.20983,4.33664 -0.31241,6.01134 -1.70857,1.13445 -2.37059,1.14404 -3.85874,0.0559 z m 132.51579,-0.61286 c -3.34634,-0.85412 -4.84759,-3.45629 -3.16421,-5.48464 1.74662,-2.10454 4.37932,-2.00402 6.41458,0.24492 2.99764,3.31235 1.11142,6.35301 -3.25037,5.23972 z M 55.492557,322.66497 c -1.052576,-2.31016 -0.919641,-2.8385 1.132223,-4.5 1.278653,-1.03539 2.917827,-1.88253 3.64261,-1.88253 3.695596,0 6.144603,7.13983 2.878858,8.39301 -3.571582,1.37055 -6.458743,0.61214 -7.653691,-2.01048 z m 30.210901,-0.91214 c -1.944568,-2.34306 0.334854,-6.70769 3.28425,-6.28867 1.632447,0.23192 2.329888,1.10284 2.570403,3.20977 0.479757,4.20272 -3.280712,6.18031 -5.854653,3.0789 z m 16.435542,0.15816 c -1.1117,-2.89703 0.0208,-5.12855 2.60274,-5.12855 2.09589,0 2.4863,0.47107 2.4863,3 0,2.35154 -0.48731,3.0692 -2.25447,3.32014 -1.32218,0.18775 -2.49436,-0.30501 -2.83457,-1.19159 z m 120.31322,-1.76303 c -2.59186,-1.45048 -2.16004,-4.71802 0.71898,-5.44061 3.02731,-0.75981 4.55684,0.11253 4.55684,2.59892 0,2.49515 -3.0039,4.11312 -5.27582,2.84169 z M 23.52728,317.74118 c -1.061246,-2.32919 -0.967375,-2.86263 0.720985,-4.09719 2.37579,-1.73722 4.407704,-1.42955 5.867472,0.88845 1.41899,2.25325 -0.246409,5.12414 -3.230156,5.56828 -1.517845,0.22594 -2.492187,-0.45863 -3.358301,-2.35954 z m 219.40076,1.34126 c -3.20225,-3.20225 0.17694,-7.86055 4.32961,-5.96846 3.85245,1.75529 2.69738,7.16846 -1.52961,7.16846 -0.88,0 -2.14,-0.54 -2.8,-1.2 z M 37.349413,317.76096 c -2.212864,-2.21286 -2.034652,-4.18697 0.500457,-5.54372 1.758024,-0.94087 2.48435,-0.77306 4.236119,0.97871 1.67125,1.67125 1.88519,2.47807 1.020982,3.85039 -1.493848,2.37214 -3.812274,2.6599 -5.757558,0.71462 z m 9.875306,0.14271 c -1.7974,-1.31429 -1.805259,-1.50134 -0.168076,-4 2.267602,-3.4608 5.426895,-3.44357 6.299799,0.0344 0.490979,1.95622 0.182301,3.00966 -1.172078,4 -2.287564,1.67271 -2.628322,1.67035 -4.959645,-0.0344 z m 185.473801,-2.1568 c -1.81696,-2.1893 -0.0625,-4.96443 3.13851,-4.96443 1.99001,0 2.39101,0.50313 2.39101,3 0,2.28 -0.501,3.07158 -2.08751,3.29826 -1.14812,0.16404 -2.69703,-0.43618 -3.44201,-1.33383 z M 95.478035,315.20234 c -2.3005,-1.33992 -2.213827,-3.19017 0.254062,-5.42358 1.655908,-1.49857 2.437669,-1.61608 4.500003,-0.67642 2.95646,1.34705 3.18575,3.24585 0.6672,5.52511 -2.099638,1.90014 -2.98479,1.99401 -5.421265,0.57489 z m 23.208185,-0.99804 c -1.61477,-3.01723 -0.46342,-4.92186 2.97525,-4.92186 3.96198,0 5.77866,3.04559 3.20565,5.37413 -2.44952,2.21679 -4.84632,2.04141 -6.1809,-0.45227 z m -53.758185,-1.12186 c -1.730184,-1.73018 -1.47534,-5.54653 0.442033,-6.61955 1.981369,-1.10883 5.313311,-0.3867 5.473121,1.18618 0.552552,5.4383 -2.816018,8.53251 -5.915154,5.43337 z m 199.839875,-0.25196 c -2.90465,-3.49989 1.94888,-7.46212 5.51517,-4.50236 1.84658,1.53253 1.82051,2.43591 -0.12647,4.38289 -1.96089,1.9609 -3.82613,2.00225 -5.3887,0.11947 z M 106.17295,309.8387 c -1.3836,-2.11164 -1.45425,-2.84008 -0.3988,-4.11182 2.92287,-3.52184 9.7465,0.47721 7.34665,4.30556 -1.7581,2.80459 -5.04329,2.71299 -6.94785,-0.19374 z m 146.03392,-0.62297 c -0.79452,-2.5033 0.92894,-4.0844 4.02117,-3.68902 1.39847,0.17882 2,1.00764 2,2.75573 0,3.4577 -4.9752,4.22887 -6.02117,0.93329 z M 29.658468,308.69862 c -0.952879,-1.14815 -1.025846,-2.04215 -0.265261,-3.25 2.333599,-3.70588 7.001715,-1.95941 5.951123,2.22649 -0.747358,2.97771 -3.632931,3.49714 -5.685862,1.02351 z m 212.455052,-1.95061 c -1.98694,-3.03245 -0.8508,-4.80959 2.74918,-4.30023 3.12694,0.44242 3.76451,4.28307 0.96016,5.78391 -1.70404,0.91198 -2.29435,0.67586 -3.70934,-1.48368 z m -201.185485,0.33443 c -2.511769,-2.51177 -0.642089,-6.8 2.964816,-6.8 0.970649,0 2.246482,0.9 2.835184,2 2.160574,4.03707 -2.612664,7.98734 -5.8,4.8 z m 179.578785,-0.77805 c -1.92471,-1.55854 -2.03339,-2.01024 -0.83194,-3.45789 2.17471,-2.62037 6.48607,-1.64251 6.85697,1.55524 0.39494,3.40498 -2.88903,4.44203 -6.02503,1.90265 z M 18.698518,305.74687 c -1.816962,-2.1893 -0.06253,-4.96443 3.138503,-4.96443 1.990016,0 2.391014,0.50313 2.391014,3 0,2.28 -0.501001,3.07158 -2.087505,3.29826 -1.148128,0.16404 -2.697034,-0.43618 -3.442012,-1.33383 z m 33.614698,-1.64628 c -1.959806,-2.79801 -0.339986,-5.04523 3.329223,-4.61871 4.422989,0.51414 3.866478,6.72783 -0.6077,6.78525 -0.656313,0.008 -1.880998,-0.96652 -2.721523,-2.16654 z m 180.081494,-0.48482 c -1.20893,-1.20893 -0.69422,-4.10878 0.83333,-4.69496 2.4516,-0.94076 4.5,0.41055 4.5,2.96862 0,1.8403 -0.53893,2.39301 -2.33333,2.39301 -1.28334,0 -2.63334,-0.3 -3,-0.66667 z m -92.80336,-2.00959 c -1.51488,-1.83816 -1.7144,-16.43586 -0.3411,-24.95626 l 0.78452,-4.86748 0.84579,3.5 c 0.46519,1.925 1.13225,8.7232 1.48236,15.1071 0.65012,11.85418 -0.018,14.55789 -2.77157,11.21664 z m -22.30101,-2.82887 c -1.96365,-4.69968 -1.29227,-9.46687 2.81595,-19.99487 l 3.12175,-8 0.30744,10 c 0.3834,12.47091 -0.35955,17.78469 -2.79472,19.98848 -1.82297,1.64977 -1.96158,1.56969 -3.45042,-1.99361 z m 41.8597,1.02644 c -2.27863,-3.47764 -3.32578,-9.3578 -3.37845,-18.97131 -0.0306,-5.5866 0.27073,-7.63572 1.01362,-6.89283 1.68835,1.68835 7.07223,21.40933 6.7426,24.69797 -0.39276,3.91863 -2.2501,4.41339 -4.37777,1.16617 z m 105.828,1.81641 c -2.01619,-0.81355 -1.54122,-6.11052 0.60912,-6.79301 2.87143,-0.91135 5.14088,0.42496 5.14088,3.0271 0,1.89318 -2.71607,4.71635 -4.18426,4.34924 -0.17366,-0.0434 -0.87824,-0.30592 -1.56574,-0.58333 z m -13.21013,-1.78968 c -1.91383,-2.30603 -0.83645,-5.01164 2.13284,-5.35618 3.4701,-0.40265 5.05288,3.4388 2.25871,5.48194 -2.29953,1.68147 -2.9061,1.66409 -4.39155,-0.12576 z M 62.7259,298.27845 c -1.516491,-2.83359 0.418373,-5.20321 3.916539,-4.79657 2.139427,0.2487 2.585596,0.81824 2.585596,3.30056 0,2.51081 -0.437458,3.05054 -2.682742,3.30993 -1.911684,0.22086 -3.009431,-0.30049 -3.819393,-1.81392 z m -28.754889,-0.15303 c -1.930039,-1.93004 -1.477149,-3.77916 1.22741,-5.01144 3.058704,-1.39364 5.777537,0.43374 5.327871,3.58095 -0.348857,2.44166 -4.613486,3.37228 -6.555281,1.43049 z m 10.665596,-3.01381 c -0.962764,-1.79895 -0.850392,-2.39854 0.655946,-3.5 0.999758,-0.73105 2.351633,-1.32917 3.004167,-1.32917 1.982179,0 3.636061,2.77954 2.946546,4.95201 -0.887142,2.79514 -5.086794,2.71705 -6.606659,-0.12284 z m 135.060873,-1.07917 c -2.50469,-4.06776 -4.75163,-11.43288 -5.52752,-18.11842 l -0.59555,-5.13158 2.20987,3.5 c 1.21542,1.925 3.00555,4.65917 3.97806,6.07594 2.22756,3.24515 4.9657,11.218 4.9657,14.45901 0,3.52668 -2.62822,3.11658 -5.03056,-0.78495 z m 60.39219,1.75 c -0.87531,-2.28102 0.34984,-4.5 2.48454,-4.5 2.42603,0 4.55401,2.51477 3.79709,4.48727 -0.75084,1.95664 -5.53196,1.96634 -6.28163,0.0127 z M 20.299464,294.71101 c -2.264438,-2.26444 -1.936693,-4.30502 0.898957,-5.59703 2.683755,-1.2228 5.529614,0.1768 5.529614,2.71948 0,1.46524 -2.682627,4.44898 -4,4.44898 -0.471429,0 -1.564286,-0.70714 -2.428571,-1.57143 z m 203.000006,0 c -2.03139,-2.03139 -1.98036,-2.74852 0.34538,-4.85329 3.59593,-3.25427 8.31406,1.79385 4.88319,5.22472 -1.62976,1.62976 -3.34956,1.50759 -5.22857,-0.37143 z M 95.394702,292.61577 c -2.265731,-2.26573 1.049065,-9.70077 10.062478,-22.56998 5.06652,-7.23391 7.27086,-9.73761 7.27086,-8.25829 0,1.48656 -10.54241,23.59742 -13.461228,28.23256 -2.096641,3.32951 -2.720261,3.74756 -3.87211,2.59571 z m 162.222228,-3.44444 c -2.10885,-2.10885 -2.10897,-2.11325 -0.11753,-4.10469 3.71235,-3.71235 9.10323,0.48692 5.59776,4.36042 -2.14174,2.3666 -2.89295,2.33155 -5.48023,-0.25573 z M 54.658468,288.69862 c -1.753986,-2.11343 -0.004,-4.91618 3.069567,-4.91618 3.073567,0 4.823553,2.80275 3.069567,4.91618 -0.722951,0.8711 -2.104256,1.58382 -3.069567,1.58382 -0.965311,0 -2.346616,-0.71272 -3.069567,-1.58382 z m -24.29829,-1.53098 c -0.814696,-1.16314 -1.240578,-2.74203 -0.946403,-3.50863 0.630469,-1.64298 4.669155,-2.8381 6.812024,-2.0158 2.170147,0.83276 1.873313,5.37027 -0.432023,6.60405 -2.789433,1.49286 -3.767944,1.29843 -5.433598,-1.07962 z m 170.106232,0.0486 c -2.94666,-1.75001 -11.87363,-22.13191 -10.35749,-23.64804 2.01619,-2.0162 17.0127,17.89885 16.45363,21.85008 -0.37321,2.63767 -3.2524,3.48685 -6.09614,1.79796 z m 31.20228,-1.04473 c -1.0016,-1.87151 -0.90113,-2.44483 0.62387,-3.55993 3.3707,-2.46473 6.79991,-0.94286 6.27297,2.78392 -0.47604,3.36678 -5.22437,3.90105 -6.89684,0.77601 z M 42.971011,284.12542 c -2.835872,-2.83588 0.06389,-6.48475 4.307095,-5.41977 2.092497,0.52518 2.517279,1.1562 2.262986,3.36167 -0.236272,2.04917 -0.92797,2.78698 -2.820081,3.0081 -1.378863,0.16113 -3.066363,-0.26637 -3.75,-0.95 z m 202.507029,0.0769 c -3.96079,-2.30695 0.17862,-7.09883 4.25,-4.9199 2.26437,1.21185 2.56777,3.03223 0.8,4.8 -1.44533,1.44533 -2.72231,1.47565 -5.05,0.1199 z m -169.25181,-1.9228 c -1.094171,-1.77041 4.416671,-10.28642 11.484401,-17.74708 3.777491,-3.9875 7.126745,-7.25 7.442785,-7.25 0.316041,0 0.574619,0.675 0.574619,1.5 0,0.825 -0.36033,1.5 -0.800734,1.5 -0.440404,0 -1.806798,1.9125 -3.036431,4.25 -3.970301,7.54744 -6.783628,11.76354 -10.205222,15.29373 -3.546374,3.65893 -4.460457,4.0697 -5.459418,2.45335 z m 70.37425,-0.65171 c -0.93621,-1.12872 -1.36031,-4.38665 -1.33429,-10.25 0.0395,-8.88953 1.36261,-24.52795 2.01968,-23.87087 0.34183,0.34182 0.84743,3.22157 1.97964,11.2755 1.06527,7.57764 1.65131,19.61172 1.0682,21.935 -0.74653,2.97442 -1.80674,3.23296 -3.73323,0.91037 z m -15.91145,-1.41826 c -0.84336,-1.57584 -0.61012,-5.51657 0.97268,-16.43415 2.69545,-18.59219 3.98236,-21.92529 4.05134,-10.49296 0.0282,4.675 0.0759,10.075 0.10601,12 0.11376,7.27514 -0.4184,11.5882 -1.75819,14.25 -1.65967,3.2973 -1.93948,3.35349 -3.37184,0.67711 z m 33.20711,-2.67711 c -1.98571,-5.08187 -2.9986,-10.70735 -3.09255,-17.17555 -0.0513,-3.53405 0.15362,-6.17861 0.45544,-5.87679 0.30182,0.30181 1.46018,2.96831 2.57414,5.92555 5.39683,14.32701 6.23898,19.87679 3.01619,19.87679 -1.12231,0 -2.3113,-1.10717 -2.95322,-2.75 z m -51.1681,-2.60194 c 0,-3.69688 12.03833,-29.03308 12.76255,-26.86041 0.40831,1.22492 -3.36504,15.07221 -6.54252,24.00952 -1.3116,3.68914 -3.60299,6.20283 -5.65429,6.20283 -0.31116,0 -0.56574,-1.50837 -0.56574,-3.35194 z m 70.01908,-1.89806 c -2.96253,-4.55926 -4.12383,-7.26663 -8.12775,-18.94833 -6.18247,-18.03779 -4.60295,-16.9241 6.54651,4.61582 3.60919,6.97269 6.56216,13.55621 6.56216,14.63006 0,2.69631 -3.15815,2.50765 -4.98092,-0.29755 z m 34.78076,-2.45754 c -5.33246,-4.47347 -9.52757,-9.29489 -12.80742,-14.71951 -2.60122,-4.30222 -2.76174,-4.35144 7.33924,2.25035 9.60895,6.28021 13.89873,10.52608 13.49563,13.35745 -0.50517,3.54823 -3.07846,3.26347 -8.02745,-0.88829 z M 96.371191,269.03244 c 0.326236,-1.7875 1.651281,-4.825 2.944544,-6.75 3.035135,-4.51774 14.412305,-18.46651 14.412305,-17.66994 0,0.79814 -3.18213,6.44147 -6.68457,11.85473 -2.73949,4.23405 -5.55136,9.63909 -5.7267,11.00797 -0.10476,0.81789 -4.272271,4.80724 -5.021922,4.80724 -0.284247,0 -0.249893,-1.4625 0.07634,-3.25 z m -36.976489,1.58333 c -1.434558,-1.43455 -0.546371,-5.32284 1.872534,-8.19755 2.590403,-3.07852 15.097192,-12.84721 19.266238,-15.04831 3.337176,-1.76189 4.915519,-0.86148 2.573511,1.46814 -1.075098,1.06942 -3.148626,3.51939 -4.607839,5.44439 -1.459213,1.925 -5.531521,6.5375 -9.049573,10.25 -5.941992,6.27041 -8.387952,7.75025 -10.054871,6.08333 z m 139.633808,-5.83543 c -1.18925,-0.83298 -2.80733,-2.74827 -3.59574,-4.25621 -0.78841,-1.50793 -3.74451,-6.87477 -6.5691,-11.92631 -2.8246,-5.05154 -5.13563,-9.53933 -5.13563,-9.97286 0,-0.43353 1.39862,0.77455 3.10805,2.68462 1.70943,1.91007 5.19693,5.74641 7.75,8.52518 6.74424,7.34047 9.31074,11.25657 8.95554,13.66487 -0.40686,2.75856 -1.82759,3.16173 -4.51312,1.28071 z m -59.67726,-2.03742 c -0.88271,-2.30029 -0.64279,-13.57099 0.33974,-15.96048 l 0.82238,-2 0.81704,2 c 1.26616,3.0994 1.08432,16.74579 -0.22916,17.19724 -0.61974,0.21301 -1.40724,-0.34353 -1.75,-1.23676 z m -58.626123,-1.71048 c -0.002,-1.55055 3.430114,-5.5918 11.040535,-13 6.073894,-5.9125 11.475208,-10.75 12.002918,-10.75 0.5277,0 0.95946,-0.64844 0.95946,-1.44098 0,-1.60825 1.81768,-3.07468 2.7078,-2.18455 0.54643,0.54643 -4.36217,7.01072 -9.533086,12.5544 -1.319031,1.41412 -3.784843,4.59613 -5.479582,7.07113 -3.48736,5.09295 -8.579389,9.96019 -10.445137,9.98403 -0.6875,0.009 -1.251309,-0.99653 -1.252908,-2.23403 z m 74.027223,0.77929 c -0.72667,-0.87558 -1.50277,-5.51697 -1.80301,-10.78267 -0.4788,-8.39736 -0.38031,-9.12347 1.07381,-7.91667 2.13828,1.77462 4.44469,9.91629 4.31196,15.22133 -0.11488,4.59153 -1.52364,5.9591 -3.58276,3.47801 z m -28.01144,-4.77929 c 0.008,-2.49652 1.03848,-6.31291 2.4987,-9.25 l 2.48584,-5 -0.59617,6.91685 c -0.60159,6.97986 -2.01708,11.58315 -3.56176,11.58315 -0.46171,0 -0.83369,-1.9125 -0.82661,-4.25 z m 41.33111,0 c -0.85033,-1.37316 -3.34337,-16.04267 -2.81972,-16.59176 0.17925,-0.18796 1.55175,1.5106 3.04998,3.77459 3.30081,4.98785 4.66395,14.06717 2.11201,14.06717 -0.86252,0 -1.91654,-0.5625 -2.34227,-1.25 z m 61.14845,-2 c -6.07003,-4.97763 -12.28665,-12.28911 -11.2934,-13.28236 0.84086,-0.84087 16.62431,7.73085 19.60983,10.64975 3.60143,3.52106 3.87182,4.40743 1.60935,5.27562 -3.2739,1.25632 -6.08278,0.50838 -9.92578,-2.64301 z M 114.2423,254.30551 c -1.08954,-1.76291 1.37138,-8.46327 4.41764,-12.02795 3.36832,-3.94154 3.77364,-2.89136 1.62136,4.20088 -2.39525,7.89289 -4.39582,10.4858 -6.039,7.82707 z m 95.48165,-4.74054 c -5.32981,-4.407 -19.2191,-19.39267 -18.57284,-20.03894 0.67756,-0.67756 23.48218,15.8205 25.61372,18.53031 2.065,2.62522 1.61815,5.2261 -0.89787,5.2261 -0.90591,0 -3.67027,-1.67286 -6.14301,-3.71747 z m -165.995915,1.36535 c 0,-0.74366 1.0125,-2.79815 2.25,-4.56553 1.76374,-2.51895 4.625776,-4.17177 13.243073,-7.64788 6.046191,-2.43896 11.382688,-4.43447 11.858884,-4.43447 1.046305,0 -7.290833,6.99104 -12.851957,10.77691 -2.2,1.4977 -4.63233,3.32328 -5.405178,4.05684 -3.070899,2.9148 -9.094822,4.11638 -9.094822,1.81413 z m 137.698195,-0.67064 c -1.41434,-1.11252 -3.50003,-4.5044 -4.63486,-7.53752 -2.52398,-6.74593 -2.61146,-8.13612 -0.39721,-6.31216 3.66742,3.02097 9.33388,11.19371 9.33388,13.46224 0,2.93914 -0.94916,3.02463 -4.30181,0.38744 z m -80.24761,-0.24542 c -0.36664,-0.95545 0.2317,-3.09483 1.3862,-4.95644 2.5973,-4.18806 9.16322,-10.56511 9.16322,-8.89962 0,1.55725 -4.16822,8.58035 -7.46664,12.58067 -2.07082,2.51149 -2.53478,2.70344 -3.08278,1.27539 z M 67.728035,247.8214 c 0,-1.35358 0.869239,-3.26608 1.931642,-4.25 3.465794,-3.20979 21.950535,-14.28982 23.782651,-14.25569 1.491418,0.0278 1.373701,0.37118 -0.714293,2.08365 -1.375,1.1277 -5.425,4.87917 -9,8.33658 -6.538568,6.32351 -12.431878,10.53583 -14.75,10.54276 -0.6875,0.002 -1.25,-1.10373 -1.25,-2.4573 z M 190.5833,239.85659 c -4.12979,-4.53782 -8.45155,-11.57511 -7.1072,-11.57293 0.78872,0.001 4.60724,3.09887 9.87867,8.01358 3.4475,3.21421 5.04645,7.9852 2.67616,7.9852 -0.78087,0 -3.2323,-1.99163 -5.44763,-4.42585 z m -99.671687,-0.16143 c 0.37838,-3.09389 9.816427,-10.77224 9.816427,-7.98619 0,1.75894 -7.664367,10.57347 -9.193787,10.57347 -0.516485,0 -0.796673,-1.16427 -0.62264,-2.58728 z m 131.146707,-2.85413 c -5.41726,-2.5132 -24.6108,-14.6114 -24.05788,-15.16433 0.89011,-0.8901 27.52964,10.16636 29.99349,12.44849 5.07763,4.70311 1.68955,6.25333 -5.93561,2.71584 z m -83.85518,-1.67196 c -0.83149,-3.78573 0.34571,-15.88663 1.54548,-15.88663 0.47376,0 1.07297,0.34235 1.33158,0.76079 0.4838,0.7828 1.03516,11.98279 0.78713,15.98921 -0.20735,3.34935 -2.87708,2.7203 -3.66419,-0.86337 z m 8.68542,0.56632 c -1.38534,-3.04048 -1.50893,-11.35361 -0.19958,-13.42399 1.15734,-1.83001 1.20011,-1.76647 3.45308,5.12963 1.93041,5.90876 1.57891,10.84141 -0.77256,10.84141 -0.72624,0 -1.84266,-1.14617 -2.48094,-2.54705 z m 95.30838,0.19153 c -7.91204,-4.20909 -18.15212,-10.55785 -19.34255,-11.99223 -1.04321,-1.25699 -0.67438,-1.3381 2.66887,-0.58692 9.11224,2.04738 24.37486,8.26461 25.86255,10.53511 3.08177,4.70338 -2.04585,5.84401 -9.18887,2.04404 z m -112.41841,-1.55014 c -0.84188,-1.57307 -0.63093,-3.33803 0.92969,-7.77828 1.11027,-3.15892 2.69393,-6.41874 3.51925,-7.24406 1.33409,-1.3341 1.50057,-1.14943 1.50057,1.66449 0,4.90432 -1.98832,13.00893 -3.49912,14.26278 -1.05399,0.87473 -1.6073,0.6704 -2.45039,-0.90493 z m 26.07206,-0.44668 c -1.56794,-1.88925 -2.72119,-13.64766 -1.33856,-13.64766 1.76338,0 6.4714,10.61998 5.73567,12.93806 -0.74974,2.36223 -2.75675,2.68611 -4.39711,0.7096 z m 46.37745,0.19463 c -2.38992,-1.31074 -11.5,-9.97963 -11.5,-10.94306 0,-0.37178 2.5875,0.35386 5.75,1.61254 5.79265,2.30547 12.25,7.23253 12.25,9.34693 0,1.43957 -3.86305,1.42981 -6.5,-0.0164 z M 34.726611,233.28156 c -2.668658,-1.64932 -0.176712,-6.03278 4.641097,-8.16393 6.009069,-2.6581 17.078967,-5.69263 23.06783,-6.32347 l 4.792497,-0.50482 -3,1.49325 c -1.65,0.82128 -4.575,2.46788 -6.5,3.65909 -5.879063,3.63804 -16.35041,9.03446 -19.116077,9.85149 -1.438843,0.42506 -3.187249,0.41984 -3.885347,-0.0116 z m 23.568716,-1.21114 c 0.386137,-1.21661 1.849264,-3.1144 3.251392,-4.21732 2.923919,-2.29995 16.653324,-8.10514 21.451451,-9.07028 1.776426,-0.35733 4.129865,-0.86931 5.229865,-1.13772 1.710104,-0.41729 1.63763,-0.19227 -0.5,1.55242 -1.375,1.12225 -2.862068,2.05045 -3.304596,2.06268 -0.442528,0.0122 -5.599223,2.94724 -11.459323,6.52224 -11.311236,6.90051 -15.926138,8.24954 -14.668789,4.28798 z m 22.432708,-2.92774 c 0,-1.17686 0.7875,-2.76271 1.75,-3.52409 2.067292,-1.63533 10.332024,-6.03664 13.840012,-7.37037 2.250553,-0.85566 2.373045,-0.76527 1.407582,1.03871 -1.225341,2.28958 -11.123025,9.99551 -12.838463,9.99551 -0.637522,0 -1.159131,0.45 -1.159131,1 0,0.55 -0.675,1 -1.5,1 -0.865991,0 -1.5,-0.90442 -1.5,-2.13976 z m 39.769455,-0.11024 c -0.51406,-3.12898 4.54326,-12.75 6.70208,-12.75 1.05381,0 -0.28841,6.76828 -2.231,11.25 -1.82105,4.20132 -3.91203,4.90282 -4.47108,1.5 z m 45.46963,0.70491 c -2.39498,-1.67752 -4.97185,-6.03635 -6.29402,-10.64649 -0.95937,-3.34513 -0.62804,-3.43094 3.07269,-0.79578 2.75334,1.96055 6.56213,9.74772 5.83486,11.92954 -0.2358,0.70738 -1.15172,0.53661 -2.61353,-0.48727 z m -54.23249,-4.70491 c 0.01,-1.89831 3.12409,-6.17575 6.63777,-9.11747 4.41922,-3.69988 5.97294,-3.36741 3.4372,0.7355 -1.14486,1.85242 -2.08156,4.14455 -2.08156,5.09362 0,0.94908 -0.9,1.96094 -2,2.2486 -1.1,0.28766 -2,0.92053 -2,1.40638 0,0.48585 -0.9,0.88337 -2,0.88337 -1.1,0 -1.99703,-0.5625 -1.99341,-1.25 z m 58.0258,-4.09087 c -5.8151,-7.70204 -5.38908,-9.83799 1.02333,-5.13073 6.48506,4.76059 9.19924,10.4716 4.97667,10.4716 -1.20786,0 -3.52461,-2.06224 -6,-5.34087 z m 56.46761,-3.18221 c -12.20628,-3.98197 -21.82851,-7.48147 -22.5,-8.18302 -0.7609,-0.79496 7.27302,0.61797 19.5,3.42947 11.19118,2.57333 18.98777,5.67839 18.05356,7.18997 -0.93606,1.51458 -4.9176,0.87017 -15.05356,-2.43642 z m -47.65146,-0.35802 c -4.32249,-2.74124 -9.98324,-9.1189 -8.09385,-9.1189 0.48999,0 3.62833,1.32604 6.97409,2.94675 5.88901,2.85267 9.7337,6.49592 8.6705,8.21622 -0.9,1.45624 -2.87394,0.92187 -7.55074,-2.04407 z m 25.33924,-0.64743 c -8.08671,-3.82771 -8.99248,-6.25645 -1.42002,-3.80765 10.12496,3.27423 13.28601,4.67544 12.93766,5.73493 -0.69296,2.10764 -4.251,1.51226 -11.51764,-1.92728 z m -99.18778,2.03234 c 0,-2.56935 11.24636,-12.59079 12.60502,-11.23212 0.99071,0.99071 -8.24051,11.23248 -10.40844,11.54786 -1.20812,0.17575 -2.19658,0.0337 -2.19658,-0.31574 z m -32.881895,-1.40484 c -1.096956,-0.69858 -0.889747,-1.20249 1.004936,-2.44394 2.485993,-1.62888 13.902803,-4.64788 17.376954,-4.59506 2.538782,0.0386 -5.413606,4.42499 -10.812546,5.964 -2.0969,0.59774 -4.3469,1.28215 -5,1.52091 -0.6531,0.23876 -1.809304,0.0381 -2.569344,-0.44591 z m 179.881895,-0.13548 c -1.375,-0.45306 -4.525,-1.35355 -7,-2.00108 -2.475,-0.64754 -6.075,-1.79635 -8,-2.55293 -1.925,-0.75657 -4.79991,-1.8458 -6.38869,-2.42051 -1.58878,-0.57471 -2.6661,-1.26752 -2.39404,-1.53957 0.92588,-0.92588 21.20157,2.61042 21.97862,3.83331 0.60744,0.95598 0.77677,0.95569 0.7888,-10e-4 0.008,-0.67023 0.57781,-1.02074 1.26531,-0.77891 0.6875,0.24184 2.52651,0.65499 4.08669,0.91812 1.56017,0.26312 3.51331,1.03996 4.3403,1.7263 1.32682,1.10116 1.29416,1.40104 -0.27782,2.5505 -1.96485,1.43673 -4.59364,1.52002 -8.39917,0.2661 z M 48.029892,215.62668 c -0.739965,-1.92831 2.925993,-5.34424 5.73542,-5.34424 0.99864,0 6.381865,-0.9 11.962723,-2 5.580858,-1.1 11.576436,-1.96821 13.323507,-1.92936 3.159643,0.0703 3.152622,0.0813 -1.323507,2.07982 -4.583821,2.04662 -26.123792,8.84954 -28.020127,8.84954 -0.573454,0 -1.328561,-0.74509 -1.678016,-1.65576 z m 137.535128,-3.78947 c -1.96273,-0.67476 -4.61384,-2.20062 -5.89135,-3.3908 -1.27752,-1.19018 -2.6879,-2.16397 -3.13419,-2.16397 -0.44629,0 -0.81144,-0.41373 -0.81144,-0.91939 0,-1.07592 5.74442,0.25224 11.1911,2.58748 6.61844,2.83762 5.43928,6.22214 -1.35412,3.88668 z m -86.836985,-0.38046 c 0,-1.60655 4.563555,-5.0668 9.425235,-7.14654 8.1924,-3.50456 8.72705,-1.90091 1.08545,3.25574 -6.48864,4.37862 -10.510685,5.86748 -10.510685,3.8908 z m 48.572805,-2.03353 c -1.60896,-3.11138 -3.38004,-17.14078 -2.16386,-17.14078 1.55512,0 6.71698,12.98064 6.40867,16.11604 -0.41987,4.2699 -2.32841,4.73064 -4.24481,1.02474 z m -119.57629,0.45573 c -1.779316,-1.77931 -1.056923,-4.51082 1.664553,-6.294 2.12345,-1.39134 5.342798,-1.80204 15.934921,-2.03287 13.873714,-0.30233 17.699131,0.74959 10.182875,2.8001 -2.353375,0.64203 -7.203864,2.09302 -10.778864,3.22444 -3.575,1.13141 -7.4,2.16558 -8.5,2.29814 -1.1,0.13256 -2,0.33654 -2,0.45329 0,0.75339 -5.694212,0.36018 -6.503485,-0.4491 z m 110.34729,-2.14297 c -0.92332,-2.40613 0.25281,-9.54031 2.30037,-13.95354 l 1.85583,-4 0.29184,7.73756 c 0.28109,7.45266 -0.76623,11.76244 -2.85841,11.76244 -0.54791,0 -1.26324,-0.69591 -1.58963,-1.54646 z m -9.67713,-0.12021 c -2.16475,-2.16474 2.2753,-10.31079 8.90256,-16.33333 2.39462,-2.17611 2.65081,-2.24089 1.97745,-0.5 -0.42547,1.1 -1.01253,2.9 -1.30457,4 -0.29203,1.1 -0.85393,2.45 -1.24865,3 -0.39473,0.55 -0.98732,2.13395 -1.31687,3.5199 -0.61176,2.57277 -4.1154,6.9801 -5.54888,6.9801 -0.43691,0 -1.09438,-0.3 -1.46104,-0.66667 z m 24.99776,-4.10933 c -1.97126,-2.68539 -4.05218,-6.11365 -4.62427,-7.61836 -2.34196,-6.15984 -0.89461,-5.88892 6.04242,1.13103 7.26489,7.35175 8.46981,10.46618 4.28147,11.0666 -1.55082,0.22231 -3.07221,-1.00002 -5.69962,-4.57927 z m 54.09174,2.36139 c -3.70911,-1.14697 -6.74661,-2.45858 -6.75,-2.91471 -0.006,-0.77472 7.64244,-0.32846 16.23859,0.9475 3.88848,0.57718 5.50948,1.79764 3.79497,2.85727 -2.24915,1.39005 -6.92269,1.0769 -13.28356,-0.89006 z m -19.25828,-0.49062 c -2.75116,-0.97412 -6.35116,-2.50093 -8,-3.39291 l -2.99789,-1.62178 2.70078,-0.04 c 4.52067,-0.067 12.59473,2.00864 13.89154,3.5712 2.20484,2.65666 -0.3602,3.33686 -5.59443,1.48353 z m -119.747895,-0.7841 c -4.809664,-1.25689 0.368094,-4.69986 9.331913,-6.20528 8.535992,-1.43357 15.121162,-1.45432 12.694383,-0.04 -1.698373,0.98981 -19.454677,7.04428 -19.997341,6.81862 -0.153425,-0.0638 -1.066455,-0.32181 -2.028955,-0.57334 z m 26.25,-1.78499 c 0,-0.81088 1.257454,-2.12457 2.794343,-2.91933 3.581232,-1.85192 15.253612,-4.89173 15.982952,-4.16239 0.74506,0.74506 0.70904,0.77023 -7.05237,4.92727 -7.149868,3.8295 -11.724925,4.67016 -11.724925,2.15445 z m 137.000005,0.358 c -2.475,-0.50953 -8.07912,-1.60842 -12.4536,-2.44198 -4.37448,-0.83356 -8.19044,-1.7524 -8.4799,-2.04187 -0.63775,-0.63774 27.30195,0.45313 31.1835,1.21752 1.5125,0.29786 2.75,1.18081 2.75,1.96211 0,0.78129 -0.1125,1.44853 -0.25,1.48273 -2.5391,0.63161 -9.27278,0.53734 -12.75,-0.17851 z m -73.5,-5.30538 c -6.16621,-4.48362 -11.55029,-10.5783 -9.34493,-10.5783 2.03613,0 15.18946,7.0586 17.73528,9.51745 2.63418,2.5442 2.30395,5.50127 -0.60897,5.45308 -0.97976,-0.0162 -4.48138,-1.99272 -7.78138,-4.39223 z m -36.7776,1.46818 c -0.28097,-1.07444 0.004,-2.62843 0.63337,-3.4533 1.28002,-1.67776 12.50967,-8.59318 13.95409,-8.59318 1.23809,0 -3.74469,6.68791 -8.00921,10.75 -3.90119,3.71602 -5.84532,4.09918 -6.57825,1.29648 z m 65.7776,0.50613 c -2.75,-0.70251 -6.35,-1.89059 -8,-2.64017 l -3,-1.36288 4.5,-0.27218 c 6.50582,-0.3935 15.40146,1.85316 15.81372,3.99388 0.40064,2.08032 -1.98903,2.15251 -9.31372,0.28135 z M 45.029892,196.62668 c -0.406502,-1.05932 0.185036,-2.32008 1.642168,-3.5 1.926047,-1.55962 3.996672,-1.83072 13.416759,-1.75663 12.938266,0.10175 22.21522,1.14085 19.139216,2.14376 -1.903816,0.62072 -6.107549,1.3565 -13.238727,2.31718 -1.7813,0.23997 -5.1563,0.87872 -7.5,1.41943 -6.826247,1.5749 -12.720541,1.30174 -13.459416,-0.62374 z M 248.12689,194.3476 c -0.31065,-0.31084 -1.53997,-0.60155 -2.73183,-0.64604 -4.2574,-0.15889 -10.66702,-1.60924 -10.66702,-2.41369 0,-0.7365 9.93282,-1.74132 23.5,-2.37731 4.85342,-0.22751 9.5,0.95123 9.5,2.40995 0,2.21957 -3.84962,3.43096 -11.14945,3.50849 -4.33779,0.0461 -8.14105,-0.17056 -8.4517,-0.4814 z M 91.728035,192.32944 c 0,-2.55634 5.331138,-4.06262 14.000005,-3.9556 l 6.5,0.0802 -6,2.86494 c -7.383114,3.5254 -14.500005,4.02133 -14.500005,1.01046 z m 117.500005,0.4242 c -3.3,-0.66812 -5.1,-1.3069 -4,-1.4195 1.1,-0.1126 2.9,-0.39752 4,-0.63316 1.1,-0.23564 4.80203,-0.7153 8.22673,-1.06592 5.28761,-0.54134 6.32428,-0.38327 6.87354,1.04808 0.35574,0.92705 0.45449,1.87788 0.21942,2.11294 -1.08012,1.08012 -9.89574,1.0557 -15.31969,-0.0424 z m -91.83333,-0.13787 c -0.36667,-0.36666 -0.66667,-1.02061 -0.66667,-1.4532 0,-1.00216 7.09282,-4.12234 13.23184,-5.82076 2.60251,-0.72002 4.48845,-1.70293 4.19098,-2.18425 -0.29747,-0.48131 0.45545,-0.87512 1.67315,-0.87512 2.15626,0 2.16644,0.0526 0.3902,2.01528 -1.90953,2.11001 -14.88188,8.98472 -16.95386,8.98472 -0.65944,0 -1.49898,-0.3 -1.86564,-0.66667 z m 49.33333,-0.003 c -0.825,-0.2815 -3.3,-1.31227 -5.5,-2.2906 -2.2,-0.97832 -4.97186,-2.0799 -6.15969,-2.44794 -2.30679,-0.71476 -5.2216,-3.59173 -3.63897,-3.59173 3.89685,0 20.07438,3.44642 21.1854,4.51329 3.05069,2.92944 -0.92777,5.50909 -5.88674,3.81698 z m 17.5,-0.005 c -6.85021,-1.51577 -5.792,-2.2646 4.11957,-2.91515 7.82345,-0.5135 11.26811,0.34438 9.94953,2.4779 -0.66394,1.07427 -9.89382,1.36113 -14.0691,0.43725 z M 28.958167,188.26113 c -5.256629,-0.76134 -7.122929,-2.33976 -5.607373,-4.74242 1.950465,-3.09212 7.131937,-3.43253 18.877241,-1.24018 6.05,1.12928 11.974122,2.2233 13.164715,2.43116 1.190593,0.20785 2.990593,0.85807 4,1.44492 1.661495,0.96597 1.598551,1.07714 -0.664715,1.17393 -1.375,0.0588 -3.4,0.28197 -4.5,0.49592 -3.863789,0.75152 -21.046029,1.04842 -25.269868,0.43667 z m 36.323615,-1.51424 c -3.053318,-2.30921 -0.50527,-3.83952 6.174874,-3.7085 6.202144,0.12164 17.271379,2.24028 17.271379,3.30572 0,0.71833 -11.238003,1.93808 -17.5,1.89942 -2.2,-0.0136 -4.875814,-0.68707 -5.946253,-1.49664 z M 115.91972,186.513 c -2.09856,-0.69952 -1.27603,-3.24799 1.37342,-4.25531 3.13601,-1.19231 15.4349,-1.30061 15.4349,-0.13592 0,1.00935 -15.11076,4.95708 -16.80832,4.39123 z m 63.38143,-0.1471 c -2.65168,-1.00972 -0.851,-1.63147 9.16602,-3.1649 8.45751,-1.2947 11.91418,-0.59367 10.26114,2.08101 -0.66614,1.07783 -3.12552,1.51715 -9.20465,1.64422 -4.56259,0.0954 -9.16272,-0.15679 -10.22251,-0.56033 z m 34.76278,-2.08072 c -0.64325,-0.64349 17.04244,-3.73053 26.41411,-4.61059 6.27842,-0.58959 7.25,-0.46518 7.25,0.92833 0,3.0274 -3.96443,3.88179 -18.70949,4.03212 -7.95165,0.0811 -14.68123,-0.0764 -14.95462,-0.34986 z M 92.139722,182.82203 c -1.784327,-1.32293 -1.800763,-1.52997 -0.246701,-3.10774 1.491668,-1.51443 2.35806,-1.55962 8.322999,-0.43412 6.98884,1.3187 7.54694,2.75668 1.39588,3.59663 -1.861128,0.25414 -4.323606,0.66469 -5.472178,0.91233 -1.148572,0.24764 -2.948572,-0.18756 -4,-0.9671 z m 50.894368,-0.18443 c -0.88302,-2.3011 1.28122,-3.94258 3.15157,-2.39033 2.08889,1.73362 1.93911,2.69816 -0.51879,3.34092 -1.29075,0.33753 -2.27483,-0.0178 -2.63278,-0.95059 z m 17.19395,-1.50269 c 7.27208,-2.3608 12.62044,-2.80923 13.22233,-1.10862 0.69726,1.97005 -4.2401,3.26466 -12.03743,3.1563 l -7.1849,-0.0999 6,-1.94783 z M 54.228035,179.47184 c -5.040317,-0.52183 -10.5,-2.21142 -10.5,-3.24938 0,-0.54059 1.171108,-1.51649 2.602463,-2.16866 2.064523,-0.94066 5.010054,-0.83575 14.25,0.50752 6.406145,0.93131 13.672537,2.33006 16.147537,3.10833 l 4.5,1.41505 -9.5,0.18011 c -5.225,0.0991 -10.625,0.25605 -12,0.34887 -1.375,0.0928 -3.85,0.029 -5.5,-0.14184 z m 97.500005,-0.0529 c 0,-1.43024 12.27039,-9.04059 15.67395,-9.7213 4.4305,-0.8861 4.9217,1.02868 1.02611,3.99999 -4.59801,3.50708 -16.70006,7.65315 -16.70006,5.72132 z M 116.9138,178.2275 c -1.35528,-0.54355 -2.0236,-1.39843 -1.61284,-2.06306 0.87761,-1.42 10.1166,-0.60226 16.42708,1.45396 l 4.5,1.46629 -8.5,0.0355 c -4.675,0.0195 -9.54141,-0.38219 -10.81424,-0.89268 z m 62.01301,0.52283 c 0.87822,-0.87821 14.12612,-4.46789 16.48903,-4.46789 3.02147,0 4.00339,2.02142 1.77385,3.6517 -1.75712,1.28484 -19.52562,2.07894 -18.26288,0.8162 z m 27.35123,-1.37113 c 1.62189,-1.54205 14.35413,-4.93459 16.45638,-4.38484 2.80146,0.7326 2.48083,3.15234 -0.57148,4.31283 -3.27138,1.24378 -17.18366,1.30685 -15.8849,0.072 z m -79.88316,-2.55938 c -3.75823,-1.26703 -7.29652,-2.76706 -7.86286,-3.3334 -1.27127,-1.27127 -0.1992,-3.20398 1.77723,-3.20398 1.60811,0 17.41879,7.72541 17.41879,8.51116 0,1.06007 -4.82865,0.21911 -11.33316,-1.97378 z m 24.33316,1.69874 c 0,-1.47333 12.17421,-14.23612 13.57959,-14.23612 3.4141,0 -0.55381,5.75807 -7.58075,11.00087 -5.71585,4.26459 -5.99884,4.41721 -5.99884,3.23525 z m -17,-4.36631 c -10.2937,-5.5358 -13.72767,-8.86981 -9.13575,-8.86981 1.6539,0 17.13575,11.31224 17.13575,12.52071 0,0.67374 0.27456,0.79904 -8,-3.6509 z m 11.9965,-5.11981 c -1.43013,-9.74559 -1.11292,-14.25 1.0035,-14.25 1.2254,0 1.48473,1.6018 1.41656,8.75 -0.0459,4.8125 0.0299,8.75 0.16847,8.75 0.13855,0 1.21395,-2.89094 2.38978,-6.42432 2.29396,-6.89333 4.08978,-9.14861 6.53702,-8.20951 1.12254,0.43075 1.35161,1.32976 0.84904,3.33215 -1.15483,4.60121 -8.60216,16.30168 -10.37598,16.30168 -0.42776,0 -1.32253,-3.7125 -1.98839,-8.25 z m -75.496505,6.51168 c -6.071708,-0.88779 -7.036372,-5.29568 -1.143011,-5.22282 3.302883,0.0408 18.099819,4.08461 19.285701,5.2705 0.731443,0.73144 -13.062107,0.69519 -18.14269,-0.0477 z m 168.000005,-0.26866 -3,-0.66855 2.5,-0.6703 c 5.8072,-1.55705 22.43526,-4.65417 24.98763,-4.65417 1.52212,0 3.33935,0.68907 4.03831,1.53126 1.78992,2.15671 -1.31253,4.34506 -6.52594,4.60315 -10.53167,0.52137 -19.27821,0.46515 -22,-0.14139 z M 92.686382,171.73225 c -1.060764,-1.27814 -1.006302,-1.83043 0.310334,-3.14706 1.462502,-1.4625 2.109212,-1.40528 7.685344,0.68006 3.34866,1.25231 6.33047,2.66849 6.62624,3.14706 0.29578,0.47857 -2.58368,0.87013 -6.3988,0.87013 -5.045706,0 -7.28728,-0.42257 -8.223118,-1.55019 z m 43.352478,-2.52593 c -6.34679,-5.37751 -8.31082,-7.74892 -8.31082,-10.03466 0,-2.79069 2.81538,-2.30656 5.84879,1.00574 2.65391,2.8979 8.70551,13.10504 7.76972,13.10504 -0.27328,0 -2.66174,-1.83425 -5.30769,-4.07612 z m 45.18707,2.46621 c 5.30078,-3.03016 12.91404,-5.3441 14.00211,-4.25572 1.52681,1.52722 -1.88005,3.54965 -7.2951,4.33061 -2.58769,0.3732 -5.8299,0.89461 -7.2049,1.15869 -2.31896,0.44538 -2.28291,0.35605 0.49789,-1.23358 z m -41.8212,-6.09922 c -5.26584,-8.66852 -4.78792,-16.75098 0.64394,-10.88992 2.48748,2.68404 4.75117,12.04359 3.66307,15.14551 -0.49517,1.41162 -1.41865,0.49916 -4.30701,-4.25559 z m 71.35868,3.83701 c 0.84445,-0.54287 6.96,-2.59372 13.5901,-4.55746 11.42535,-3.38401 20.37453,-4.5811 20.37453,-2.72541 0,3.12583 -7.68623,5.49964 -21.5,6.64003 -3.85,0.31784 -8.575,0.81458 -10.5,1.10387 -2.52844,0.37998 -3.0738,0.25201 -1.96463,-0.46103 z M 46.228035,168.52929 c -14.894579,-1.05753 -22.410946,-3.67622 -20.547222,-7.15862 1.380223,-2.57897 5.281894,-3.07342 12.424293,-1.5745 7.288806,1.52964 23.517508,6.98085 24.900827,8.36417 0.932634,0.93263 -6.528104,1.0967 -16.777898,0.36895 z m 132.500005,-4.25361 c 5.40734,-3.60273 12.13699,-6.31059 14.50758,-5.83753 1.60514,0.32032 1.59531,0.50197 -0.14115,2.60876 -1.14434,1.38839 -4.57338,3.03264 -8.86325,4.25 -9.57234,2.7164 -10.77737,2.49279 -5.50318,-1.02123 z m 21.59574,1.85186 c 1.10502,-1.78797 14.71394,-7.8451 17.62605,-7.8451 3.42644,0 3.70797,2.35146 0.52821,4.41178 -3.77115,2.44351 -19.36519,5.39264 -18.15426,3.43332 z M 72.728035,165.1043 c -20.722969,-3.49378 -31.652446,-8.36508 -23.409855,-10.43384 2.98304,-0.7487 10.979429,1.41005 23.659855,6.38735 11.817109,4.63842 11.728906,6.06606 -0.25,4.04649 z m 30.605095,-0.39014 c -6.566782,-2.40652 -8.778503,-5.6301 -4.610653,-6.72002 2.305613,-0.60293 10.896373,3.40518 13.525693,6.31055 1.75041,1.93418 1.71483,1.9762 -1.61514,1.90729 -1.87275,-0.0388 -5.1577,-0.71278 -7.2999,-1.49782 z m -21.605095,-4.401 c -10.140594,-2.13029 -12,-2.83233 -12,-4.53072 0,-2.69176 3.504182,-2.40063 11.796376,0.98006 4.720594,1.92457 9.037561,3.95388 9.593261,4.50958 1.257437,1.25743 1.068986,1.23819 -9.389637,-0.95892 z m 92.000005,0.98429 c 0,-1.34979 10.07226,-8.99504 12.72903,-9.66185 3.60565,-0.90496 4.69728,0.90307 2.03421,3.3692 -2.5744,2.38402 -14.76324,7.57936 -14.76324,6.29265 z m -64.75,-5.48861 c -5.6129,-2.63361 -7.25,-3.87517 -7.25,-5.49829 0,-1.73003 0.48074,-2.01752 2.75,-1.64455 1.5125,0.24859 3.01865,0.48898 3.34699,0.53421 0.32834,0.0452 1.67834,1.0095 3,2.14283 1.32166,1.13334 3.41551,2.93036 4.65301,3.99339 2.19633,1.88668 3.00011,3.98193 1.5,3.91009 -0.4125,-0.0198 -4.0125,-1.56671 -8,-3.43768 z m 94.57861,1.63777 c 2.36926,-1.82263 11.82993,-6.7355 18.17139,-9.43628 1.925,-0.81984 5.15157,-2.22307 7.17016,-3.11829 5.77819,-2.56254 9.82984,-3.1353 9.82984,-1.38959 0,0.80851 -0.7875,2.16886 -1.75,3.023 -2.23135,1.98014 -9.98525,5.54921 -13.27875,6.11211 -1.39082,0.23771 -6.48917,1.83005 -11.32968,3.53854 -10.00435,3.5311 -12.15445,3.84106 -8.81296,1.27051 z m -31.89673,-5.03064 c 3.97756,-7.79666 9.14805,-12.2347 10.34966,-8.88353 0.87358,2.43634 -1.5801,5.80196 -7.6664,10.51572 -4.16565,3.22623 -4.92591,2.76377 -2.68326,-1.63219 z m 59.06812,3.32473 c 0,-0.8168 13.59248,-6.97044 21.22599,-9.60952 6.31176,-2.18212 6.82995,-2.22137 8.4141,-0.63722 3.42658,3.42657 -2.55042,6.8374 -16.14009,9.21048 -9.38444,1.63874 -13.5,1.95465 -13.5,1.03626 z m -29.39445,-3.15008 c 6.38451,-6.46483 13.39445,-10.10898 13.39445,-6.96317 0,2.57328 -4.99608,5.73047 -12.89445,8.14843 -2.35311,0.72037 -2.36174,0.69991 -0.5,-1.18526 z M 79.978035,150.698 c -1.7875,-0.78171 -3.25,-1.82788 -3.25,-2.32481 0,-0.49693 -0.921885,-0.66243 -2.048633,-0.36778 -1.984057,0.51884 -13.072053,-3.57514 -17.751539,-6.55433 -3.595225,-2.2889 -2.568657,-5.59561 1.852523,-5.96722 3.51642,-0.29556 8.48692,2.56013 24.347687,13.98845 4.30222,3.09992 2.626567,3.75192 -3.150038,1.22569 z m 37.732135,-0.82048 c -4.24141,-2.92931 -6.98213,-6.11139 -6.98213,-8.10651 0,-3.93829 6.15768,0.81264 9.41152,7.26143 0.90191,1.7875 1.50774,3.25 1.34629,3.25 -0.16145,0 -1.8605,-1.08221 -3.77568,-2.40492 z m 47.14074,-2.09508 c 1.21507,-4.621 5.53923,-12.5 6.86027,-12.5 1.49112,0 2.24013,1.98058 1.62874,4.30684 -0.31702,1.20624 -2.59339,4.44316 -5.0586,7.19316 l -4.48219,5 z m -109.122875,0.91094 c -3.575,-0.7769 -8.75,-1.88991 -11.5,-2.47336 -7.432296,-1.57686 -13.502019,-3.94912 -13.484687,-5.27029 0.06904,-5.26316 7.033169,-4.70008 20.059362,1.62188 9.113196,4.42287 14.489483,7.70731 12.425325,7.59076 -0.55,-0.0311 -3.925,-0.6921 -7.5,-1.46899 z m 32.448727,-0.35556 c -7.539979,-2.68458 -11.448727,-4.93145 -11.448727,-6.58106 0,-1.00916 1.069576,-1.47432 3.389991,-1.47432 2.445268,0 5.092731,1.25349 9.5,4.49793 8.321085,6.12564 7.999711,6.91888 -1.441264,3.55745 z m 34.846638,-2.9641 c -2.80283,-3.55726 -4.80326,-7.91671 -4.00093,-8.71904 1.92884,-1.92884 6.23711,3.03544 7.31602,8.43003 0.7811,3.90549 -0.38547,4.0072 -3.31509,0.28901 z m 8.44616,-0.54856 c -1.51716,-1.90141 -3.20466,-4.63066 -3.75,-6.06501 -2.07268,-5.45157 -0.57611,-10.03769 2.45473,-7.52231 1.42239,1.18048 5.00262,14.19805 4.40114,16.00235 -0.19107,0.57315 -1.5887,-0.51362 -3.10587,-2.41503 z m 25.27035,1.70728 c 0.0197,-2.90585 2.75452,-12.26359 4.03494,-13.8064 0.65894,-0.79398 1.6071,-1.4436 2.10702,-1.4436 2.29752,0 1.83445,3.70723 -1.2576,10.06788 -3.34599,6.88305 -4.90713,8.53936 -4.88436,5.18212 z m 31.78584,-0.9659 c 3.47377,-4.87848 14.29263,-14.41354 15.98217,-14.08571 4.97613,0.96556 -1.0732,8.02699 -11.74037,13.70461 l -6.3936,3.40301 z m -49.15595,-1.0341 c -1.43222,-7.61601 -1.70186,-14.09482 -0.61458,-14.76679 2.7695,-1.71165 4.35156,4.74594 3.25027,13.26679 -0.62623,4.84527 -1.87315,5.5549 -2.63569,1.5 z m 8.97813,-2.82706 c -1.08759,-9.25369 2.58877,-17.87527 4.41287,-10.3488 0.55311,2.28219 -0.44201,9.60506 -1.75652,12.92586 -0.32656,0.825 -0.52232,1.8375 -0.435,2.25 0.0873,0.4125 -0.22928,0.75 -0.70356,0.75 -0.47427,0 -1.15728,-2.50968 -1.51779,-5.57706 z m 52.38011,3.74778 c 0,-2.68277 22.33543,-19.17072 25.96965,-19.17072 1.75906,0 2.0374,0.40243 1.4841,2.14571 -1.00324,3.16094 -4.87835,6.15313 -14.94709,11.54146 -10.59959,5.67242 -12.50666,6.50858 -12.50666,5.48355 z M 94.582202,142.53725 c -0.194792,-0.4786 -5.304167,-4.21811 -11.354167,-8.31002 -13.980504,-9.45569 -15.5,-10.79271 -15.5,-13.63854 0,-2.28733 0.07006,-2.30381 3.572883,-0.84024 6.157945,2.57295 25.856136,21.4383 24.157919,23.13652 -0.287358,0.28736 -0.681844,0.13088 -0.876635,-0.34772 z m 8.645838,-0.98823 c -1.65,-0.85651 -3.225,-1.83065 -3.500005,-2.16475 -0.275,-0.3341 -2.446529,-1.92847 -4.825619,-3.54304 -7.232099,-4.90809 -9.855382,-9.57644 -5.365364,-9.54812 2.303322,0.0145 18.112828,15.4151 16.973988,16.53494 -0.15565,0.15305 -1.633,-0.42251 -3.283,-1.27903 z m 120.07821,-2.58133 c 0.50575,-1.28705 16.92697,-12.48357 22.12213,-15.08358 5.2921,-2.64852 7.17843,-2.05528 5.70165,1.79316 -0.92719,2.4162 -10.37344,8.78416 -15.3904,10.37505 -2.48138,0.78685 -6.39878,2.03138 -8.70536,2.76563 -3.09871,0.9864 -4.07215,1.0255 -3.72802,0.14974 z m -41.57821,-2.30727 c 0,-1.56258 8.22666,-13.03843 10.25482,-14.30504 1.20466,-0.75232 2.34122,-0.87689 2.90024,-0.31788 1.63992,1.63992 -0.78757,5.706 -5.80258,9.71941 -7.10405,5.68522 -7.35248,5.85091 -7.35248,4.90351 z m 8.16667,-0.23902 c 1.44333,-3.72834 22.55608,-26.13896 24.62516,-26.13896 2.33471,0 1.17417,4.96914 -2.00663,8.59187 -3.1423,3.57888 -21.14307,18.40813 -22.34506,18.40813 -0.33374,0 -0.45681,-0.38747 -0.27347,-0.86104 z M 68.728035,132.97076 c -18.84301,-8.0129 -26,-12.53997 -26,-16.446 0,-3.4614 3.023424,-3.52965 9.552534,-0.21565 5.553831,2.81898 20.581466,16.24112 19.392498,17.32068 -0.244767,0.22225 -1.570032,-0.0743 -2.945032,-0.65903 z m 38.158205,-5.02712 c -2.34202,-2.38634 -4.33147,-5.31134 -4.42101,-6.5 -0.0895,-1.18866 -0.51704,-2.1612 -0.94999,-2.1612 -0.43296,0 -0.7872,-0.45 -0.7872,-1 0,-1.60463 2.554,-1.15323 4.24347,0.75 2.25059,2.53535 7.87278,13.25 6.95254,13.25 -0.42878,0 -2.69579,-1.95246 -5.03781,-4.3388 z m -8.659846,-1.99075 C 85.714656,115.16035 78.924925,107.39092 80.200856,105.32642 c 1.819203,-2.94353 6.943383,0.79196 14.907499,10.86747 5.110215,6.46499 9.987825,14.05375 9.406535,14.63503 -0.16193,0.16193 -2.99175,-2.03228 -6.288496,-4.87603 z m 74.575776,3.32955 c -0.12639,-3.77215 4.97786,-17 6.55982,-17 2.2892,0 1.58138,5.95338 -1.29738,10.91215 -1.46489,2.52332 -2.97242,4.81285 -3.35006,5.08785 -0.37764,0.275 -0.94357,1.175 -1.25762,2 -0.35576,0.93457 -0.60257,0.55762 -0.65476,-1 z m -13.91624,-1 c 0,-1.375 0.22698,-1.9375 0.50439,-1.25 0.27741,0.6875 0.27741,1.8125 0,2.5 -0.27741,0.6875 -0.50439,0.125 -0.50439,-1.25 z m 20.84211,-0.0128 c 0,-3.53272 15.45995,-28.299312 19.05028,-30.518261 0.52708,-0.32575 0.94597,0.885621 0.9413,2.722061 -0.006,2.4325 -1.60661,5.56055 -6.04191,11.80901 -3.31842,4.675 -6.91463,9.24714 -7.99158,10.1603 -1.07695,0.91316 -1.95809,2.08091 -1.95809,2.59501 0,0.5141 -0.9,1.74921 -2,2.74469 -1.41317,1.2789 -2,1.42185 -2,0.48719 z m -47.3677,-3.48719 c -0.46553,-1.1 -1.50893,-3.4932 -2.31866,-5.31823 -0.80973,-1.82502 -1.72925,-5.80856 -2.0434,-8.8523 -0.52154,-5.0533 -0.40606,-5.50227 1.3293,-5.16811 2.71136,0.52211 4.5403,6.99328 4.18086,14.7927 -0.21584,4.68357 -0.54249,5.97693 -1.1481,4.54594 z m 11.99964,-1.59027 c -0.79506,-3.97531 -0.79598,-12.6957 -0.002,-15.65973 0.35467,-1.32344 1.37854,-2.25 2.48634,-2.25 1.45821,0 1.88337,0.73377 1.88337,3.25038 0,3.33259 -2.51995,16.60291 -3.30113,17.38409 -0.23924,0.23924 -0.71936,-0.9869 -1.06693,-2.72474 z m 76.06178,-6.88716 c 9.81643,-9.5461 15.35775,-13.63777 16.6795,-12.31602 1.66057,1.66058 0.25827,5.23054 -3.42591,8.72166 -6.53237,6.19006 -19.25856,13.732 -22.84653,13.53957 -0.33043,-0.0177 3.98639,-4.49306 9.59294,-9.94521 z m -102.94372,3.62079 c -2.68148,-4.2446 -3.6344,-8.64336 -1.87244,-8.64336 0.48265,0 1.327,0.5625 1.87633,1.25 1.30231,1.62989 4.21974,11.75054 3.3866,11.74822 -0.35227,-9.9e-4 -1.87799,-1.96067 -3.39049,-4.35486 z m 42.60489,-1.37328 c 0.34271,-2.07354 0.62805,-4.48872 0.6341,-5.36707 0.0111,-1.60591 3.19826,-5.90301 4.37831,-5.90301 1.35851,0 0.5384,8.0031 -1.1173,10.90331 -2.72863,4.7796 -4.6544,4.96094 -3.89511,0.36677 z m -85.854895,-4.85699 c -11.55282,-8.3856 -15.5,-12.23327 -15.5,-15.109253 0,-1.839614 0.54727,-2.303833 2.715999,-2.303833 2.053529,0 4.443848,1.768375 9.799851,7.249996 6.976578,7.14021 14.34165,16.77589 12.782191,16.72287 -0.438923,-0.0149 -4.848041,-2.96683 -9.798041,-6.55978 z m 93.500005,5.28137 c 0,-0.86639 1.13092,-4.86458 2.51315,-8.88486 1.38223,-4.02028 2.98169,-8.75917 3.55434,-10.530867 1.51905,-4.699706 5.9348,-12.278729 7.15393,-12.278729 1.5677,0 0.13542,8.589358 -2.3265,13.951936 -5.75203,12.5291 -10.89492,20.90437 -10.89492,17.74252 z m -58.65173,-3.18851 c -1.01655,-1.44697 -2.82949,-3.86803 -4.02876,-5.38014 -2.70871,-3.41532 -8.319515,-13.552175 -8.319515,-15.030614 0,-1.722349 3.529655,-1.279185 5.215335,0.654808 0.83892,0.9625 2.76623,4.674996 4.28291,8.249996 1.51668,3.575 3.41349,7.99905 4.21513,9.83122 1.83591,4.19598 1.06802,5.13804 -1.3651,1.67473 z m 29.4111,0.98589 c -1.09687,-2.97408 -3.71991,-22.291306 -3.74105,-27.550706 -0.0101,-2.507379 0.62306,-5.432379 1.40698,-6.5 1.37292,-1.869807 1.46567,-1.83536 2.52415,0.937501 0.6803,1.782148 0.99443,9.019331 0.8247,18.999995 -0.15078,8.86676 -0.60743,15.2177 -1.01478,14.11321 z m -15.95337,-5.74184 c -5.94545,-14.080485 -8.12527,-25.749996 -4.81,-25.749996 1.85375,0 4.14345,4.910388 4.97724,10.673995 0.46354,3.204303 1.27829,6.951001 1.81053,8.326001 1.44079,3.72215 2.53458,13 1.53259,13 -0.47922,0 -2.05888,-2.8125 -3.51036,-6.25 z m 30.60072,-7.23646 c 0.47569,-10.165267 1.12426,-14.93151 2.37389,-17.445541 4.18467,-8.418749 6.10709,-2.380177 3.16191,9.932005 -1.11829,4.674996 -2.51281,10.974996 -3.09893,13.999996 -2.09531,10.8141 -3.11896,8.08935 -2.43687,-6.48646 z m 47.37161,8.21018 c 0.31755,-1.22305 2.07232,-4.5646 3.89951,-7.42568 1.82719,-2.86108 3.32216,-5.612 3.32216,-6.113158 0,-1.554755 9.9982,-10.351855 11.2841,-9.928517 1.84004,0.605772 2.01724,4.265074 0.3596,7.425954 -1.90911,3.640392 -13.24054,15.057841 -16.74083,16.867911 -2.58058,1.33447 -2.67596,1.29737 -2.12454,-0.82651 z M 92.680555,103.88718 C 85.060518,95.333371 78.900453,86.924376 78.215756,84.141538 c -0.851192,-3.459533 1.043028,-4.583943 3.718082,-2.207055 4.009046,3.562192 16.358976,24.366997 15.601149,26.281837 -0.168824,0.42658 -2.353318,-1.52154 -4.854432,-4.32914 z m 91.584405,-0.16517 c 0.82083,-4.628367 6.72296,-18.591423 9.51732,-22.515744 1.07017,-1.50291 1.94576,-3.209764 1.94576,-3.793009 0,-0.583245 0.88894,-1.536191 1.97542,-2.117658 4.77289,-2.554375 2.9706,9.001517 -2.74398,17.593737 -1.50229,2.25879 -3.90774,5.865396 -5.34543,8.014684 -1.4377,2.14928 -3.38659,4.54898 -4.33088,5.33267 -1.58815,1.31804 -1.66449,1.12949 -1.01821,-2.51468 z m -73.16712,-4.75049 c -6.92865,-10.59564 -9.85422,-16.677906 -10.84616,-22.549152 -0.615076,-3.640573 -0.4713,-4.139924 1.19199,-4.139924 2.64952,0 6.37609,7.39808 9.72878,19.313824 1.5187,5.397603 2.59241,9.982682 2.38602,10.189072 -0.20639,0.20639 -1.31367,-1.05983 -2.46063,-2.81382 z m 55.92968,-5.189076 c 1.46425,-13.990462 6.47566,-27.5 10.20123,-27.5 3.60051,0 2.44877,8.913715 -2.52679,19.555789 -1.63566,3.498445 -2.97392,6.829575 -2.97392,7.40251 0,0.572936 -0.45,1.041701 -1,1.041701 -0.55,0 -1,0.6199 -1,1.377555 0,0.757656 -0.74891,1.995156 -1.66424,2.75 -1.53022,1.261927 -1.61367,0.889286 -1.03628,-4.627555 z m -37.11139,1.778008 c -2.14534,-4.181322 -8.18809,-25.402332 -8.18809,-28.755031 0,-3.206412 0.27461,-3.622318 2.20696,-3.342528 3.2194,0.466144 5.8585,8.344764 7.3089,21.819551 0.2072,1.925 0.58121,5.18856 0.83113,7.252355 0.49877,4.118698 -0.72099,5.828169 -2.1589,3.025653 z m 17.13462,-2.778008 c -1.59434,-4.06276 -3.34594,-18.19645 -2.77942,-22.427212 0.48117,-3.593428 2.89893,-8.072788 4.35732,-8.072788 1.5246,0 2.90456,2.415138 3.64568,6.380516 0.71119,3.805242 -0.88121,16.108786 -2.604,20.119484 -0.4725,1.1 -0.99031,3.125 -1.15069,4.5 -0.28855,2.473861 -0.30391,2.468634 -1.46889,-0.5 z"
             id="path1019"
             inkscape:connector-curvature="0" />
          <path
             style="fill:#ff0000"
             d="m 236.31043,447.96634 c -2.09618,-1.53276 -1.80709,-4.51319 0.58379,-6.01873 1.20785,-0.76058 2.10185,-0.68762 3.25,0.26526 2.04292,1.69548 2.04417,5.67894 0.002,6.46258 -2.01433,0.77297 -1.73947,0.82378 -3.83582,-0.70911 z m -13.14126,-5.12533 c -2.51283,-1.86596 -0.89594,-4.91974 2.84247,-5.3685 3.44507,-0.41355 5.45153,2.93194 3.14299,5.24048 -1.94896,1.94896 -3.4889,1.98189 -5.98546,0.12802 z m 24.5987,-0.0106 c -1.6276,-1.96112 -0.35342,-5.54797 1.97085,-5.54797 2.24419,0 5.05522,3.66468 4.30689,5.6148 -0.69873,1.82088 -4.74686,1.77779 -6.27774,-0.0668 z m -11.45465,-6.72984 c -1.86167,-2.65789 -0.51567,-4.81813 3.00208,-4.81813 3.33384,0 4.88363,3.26387 2.55182,5.37413 -2.40946,2.18053 -3.72975,2.04837 -5.5539,-0.55598 z M 94.658468,434.69862 c -1.753986,-2.11343 -0.004,-4.91618 3.069567,-4.91618 3.073575,0 4.823555,2.80275 3.069575,4.91618 -0.72296,0.8711 -2.104264,1.58382 -3.069575,1.58382 -0.965311,0 -2.346616,-0.71272 -3.069567,-1.58382 z m 121.641002,-0.98761 c -2.17854,-2.17854 -1.96379,-5.14822 0.46634,-6.44879 3.13818,-1.6795 5.96223,-0.31177 5.96223,2.88761 0,4.69937 -3.40445,6.58531 -6.42857,3.56118 z m 40.62857,0.37143 c -1.78238,-1.78238 -1.45917,-3.59093 0.86392,-4.83421 2.63298,-1.40913 4.93608,0.29701 4.93608,3.65665 0,1.81427 -0.54492,2.37756 -2.3,2.37756 -1.265,0 -2.84,-0.54 -3.5,-1.2 z M 81.693825,430.21852 c -1.467989,-2.74296 0.48225,-5.14374 3.847752,-4.73664 3.321074,0.40173 5.008446,3.1052 3.256025,5.21674 -1.865428,2.2477 -5.785697,1.98275 -7.103777,-0.4801 z m 164.964645,0.4801 c -1.65587,-1.99521 -0.13504,-4.78044 2.85404,-5.22686 2.7309,-0.40787 4.90087,3.27997 3.16248,5.3746 -1.57193,1.89407 -4.37918,1.82513 -6.01652,-0.14774 z m -137.93043,-1.22731 c 0,-2.53498 2.30001,-4.39471 4.42612,-3.57885 2.76316,1.06033 1.54782,4.83545 -1.67612,5.2064 -2.16543,0.24916 -2.75,-0.0968 -2.75,-1.62755 z m 119.07546,0.40206 c -1.95312,-2.35338 -0.91088,-5.09093 1.93824,-5.09093 2.09336,0 2.4863,0.47197 2.4863,2.9863 0,3.37581 -2.41584,4.52496 -4.42454,2.10463 z m 9.33428,-5.96555 c -1.19844,-3.12308 0.0142,-5.12538 3.10396,-5.12538 2.65144,0 2.9863,0.33639 2.9863,3 0,2.53088 -0.43092,3.04957 -2.75569,3.31697 -1.75858,0.20228 -2.96514,-0.22887 -3.33457,-1.19159 z m -146.316644,-1.0132 c -1.613522,-1.94418 0.229335,-5.61218 2.819638,-5.61218 2.743669,0 4.714424,2.77966 3.427145,4.83382 -1.386847,2.21305 -4.712217,2.6274 -6.246783,0.77836 z m 168.656904,-0.69228 c -2.32617,-1.35487 -2.22674,-4.59439 0.18055,-5.88273 3.39637,-1.81768 6.63163,3.00065 3.86945,5.76283 -1.4329,1.4329 -1.77816,1.44312 -4.05,0.1199 z M 74.848011,420.50662 c -1.329766,-2.48469 0.433393,-5.22418 3.362326,-5.22418 1.523276,0 2.617414,0.73882 3.032929,2.04799 1.30109,4.09937 -4.388818,6.92525 -6.395255,3.17619 z m 42.451459,0.20439 c -2.05229,-2.05229 -1.98458,-2.7447 0.48711,-4.98154 1.57676,-1.42696 2.45439,-1.61367 3.75,-0.79781 2.16886,1.36578 2.69157,4.04325 1.15159,5.89882 -1.56257,1.88278 -3.42781,1.84143 -5.3887,-0.11947 z m 96.98539,-0.65091 c -1.42911,-2.04034 -1.40243,-2.3765 0.32577,-4.10469 2.26253,-2.26254 5.71303,-1.52241 6.64888,1.42617 1.41546,4.45974 -4.21303,6.62128 -6.97465,2.67852 z M 101.7742,419.83806 c -1.825351,-2.19941 -0.53808,-4.55562 2.48888,-4.55562 2.24229,0 2.5545,0.37518 2.28138,2.74145 -0.36165,3.1333 -2.88046,4.09123 -4.77026,1.81417 z m 124.66269,-1.1801 c -1.44307,-1.44307 -0.64376,-4.2614 1.39181,-4.90747 2.52876,-0.8026 4.2176,0.63416 3.7329,3.17573 -0.35738,1.87397 -3.81432,3.04213 -5.12471,1.73174 z m 19.3457,-1.2736 c -0.87364,-1.63241 -0.72633,-2.20721 0.77106,-3.00859 2.88752,-1.54535 6.33546,-0.22601 5.97686,2.28702 -0.42444,2.97438 -5.26523,3.49201 -6.74792,0.72157 z M 84.712468,413.76368 c -1.031509,-1.24289 -0.934779,-1.87863 0.532542,-3.5 2.147613,-2.37308 3.797747,-2.51188 5.498592,-0.46248 1.031509,1.24289 0.934779,1.87863 -0.532542,3.5 -2.147613,2.37308 -3.797747,2.51188 -5.498592,0.46248 z m 151.015572,-2.98124 c 0,-1.375 0.1882,-2.5 0.41821,-2.5 0.23002,0 1.072,-0.25088 1.87106,-0.55751 0.79907,-0.30663 2.20141,0.19104 3.11631,1.10595 2.09284,2.09284 0.48841,4.45156 -3.02802,4.45156 -1.8694,0 -2.37756,-0.53433 -2.37756,-2.5 z m -128.42857,-0.0714 c -2.18555,-2.18554 -1.96956,-3.29005 0.89896,-4.59703 4.35544,-1.98447 7.77428,2.89678 3.59535,5.13328 -2.50156,1.33879 -2.63522,1.32284 -4.49431,-0.53625 z m -11.858859,-0.0493 c -1.62478,-1.62478 -0.615508,-4.3655 1.833994,-4.98028 3.007385,-0.75481 3.153475,-0.64943 3.605655,2.60104 0.2844,2.04437 -0.11467,2.55393 -2.189649,2.79591 -1.395583,0.16275 -2.858083,-0.0247 -3.25,-0.41667 z m -20.112227,-1.6822 c -2.581199,-1.88742 -1.679747,-5.12764 1.530455,-5.50114 3.430663,-0.39914 4.646144,2.4716 2.117231,5.00051 -1.561038,1.56104 -2.096907,1.63458 -3.647686,0.50063 z m 91.926446,-0.31311 c -1.85772,-1.85772 -1.62471,-3.2888 0.78273,-4.80737 2.2459,-1.41668 5.31555,0.52135 4.84053,3.05608 -0.63694,3.39877 -3.18288,4.19167 -5.62326,1.75129 z m 52.40364,0.0322 c -1.65587,-1.99521 -0.13504,-4.78044 2.85404,-5.22686 2.7309,-0.40787 4.90087,3.27997 3.16248,5.3746 -1.57193,1.89407 -4.37918,1.82513 -6.01652,-0.14774 z m 32.17476,0.21057 c -1.35277,-1.62999 -0.55362,-4.24069 1.54457,-5.04585 1.8758,-0.71981 5.35024,1.06882 5.35024,2.75428 0,3.25996 -4.77422,4.84672 -6.89481,2.29157 z m -133.21197,-1.51213 c -1.99611,-1.61636 -2.13714,-2.11578 -0.98834,-3.5 1.92842,-2.32361 5.80593,-2.0235 7.18655,0.55621 0.96276,1.79895 0.85039,2.39854 -0.65595,3.5 -2.36317,1.728 -2.77206,1.68696 -5.54226,-0.55621 z m 35.30678,-0.31463 c -1.84733,-1.84733 -1.42949,-3.77956 1.0127,-4.68298 2.81574,-1.04161 5.48246,-0.35379 6.23538,1.60827 1.30243,3.39409 -4.47701,5.84578 -7.24808,3.07471 z m 23.46667,-2.46667 c -1.51322,-1.51321 -0.60076,-5.21947 1.44484,-5.86872 2.81295,-0.8928 5.31668,1.61093 4.42388,4.42388 -0.64925,2.0456 -4.35551,2.95806 -5.86872,1.44484 z m 53.33333,-3.72634 c 0,-2.9212 2.81537,-4.22019 4.81429,-2.22128 2.03081,2.03082 0.75265,4.61429 -2.28291,4.61429 -2.00329,0 -2.53138,-0.49922 -2.53138,-2.39301 z m 12.35212,-0.19233 c -1.44208,-2.2009 -1.48268,-2.71908 -0.27305,-3.48469 4.04077,-2.55751 8.48431,1.34522 5.06001,4.44416 -2.38418,2.15766 -2.79901,2.07452 -4.78696,-0.95947 z m -151.765113,0.27262 c -2.612067,-1.90999 -1.275927,-5.68728 2.01176,-5.68728 2.789939,0 4.207586,2.4981 2.738932,4.8264 -1.376963,2.18294 -2.631712,2.41032 -4.750692,0.86088 z m 12.214213,-1.22422 c -0.95395,-2.09369 -0.85957,-2.83328 0.5402,-4.23305 1.30849,-1.30849 2.09175,-1.44696 3.42734,-0.60588 2.44906,1.54228 2.76693,4.51099 0.64885,6.05977 -2.54592,1.86163 -3.30318,1.66136 -4.61639,-1.22084 z m 41.16926,0.001 c -1.81696,-2.1893 -0.0625,-4.96443 3.13851,-4.96443 1.99001,0 2.39101,0.50313 2.39101,3 0,2.28 -0.501,3.07158 -2.08751,3.29826 -1.14812,0.16404 -2.69703,-0.43618 -3.44201,-1.33383 z m -64.401039,-2.03784 c -1.959266,-1.95927 -1.954517,-2.34361 0.05642,-4.56567 1.990127,-2.1987 5.374134,-0.85175 5.374134,2.13945 0,2.86044 -3.453525,4.40362 -5.430554,2.42659 z M 164.804,397.42401 c -1.39431,-2.6053 2.83807,-4.6565 5.5366,-2.68329 1.53611,1.12323 1.60876,1.56974 0.47725,2.93314 -1.79218,2.15943 -4.79112,2.03484 -6.01385,-0.24985 z m -49.50453,-1.71337 c -2.2797,-2.2797 -1.93182,-4.30724 0.96551,-5.62735 3.61329,-1.64633 5.97732,0.71597 4.52891,4.52559 -1.14732,3.01767 -3.17243,3.42376 -5.49442,1.10176 z m 40.359,-0.0124 c -1.65587,-1.99521 -0.13504,-4.78044 2.85404,-5.22686 2.95872,-0.4419 4.75732,3.12603 2.64212,5.24123 -1.9984,1.9984 -3.82968,1.99361 -5.49616,-0.0144 z m 28.57241,-2.40723 c -0.86044,-2.71063 0.13919,-4.00857 3.08756,-4.00857 2.89511,0 4.16374,2.38639 2.39903,4.51273 -1.75508,2.11475 -4.74257,1.84043 -5.48659,-0.50378 z M 51.767904,391.83048 c -2.22712,-2.68352 -0.840581,-5.04804 2.960131,-5.04804 2.637993,0 3.562122,0.4648 3.845046,1.9339 0.372174,1.93255 -2.1735,4.5661 -4.413731,4.5661 -0.652534,0 -1.728685,-0.65338 -2.391446,-1.45196 z m 122.481476,-0.4808 c -0.88118,-2.77635 0.10402,-4.06724 3.1041,-4.06724 2.14539,0 2.46172,0.39704 2.19098,2.75 -0.40176,3.49169 -4.29736,4.46079 -5.29508,1.31724 z M 36.252038,388.66359 c -1.491806,-1.49181 -1.485248,-1.76649 0.08356,-3.5 2.489921,-2.75134 6.21127,-2.45116 6.967529,0.56201 0.337258,1.34375 0.319273,2.91875 -0.03997,3.5 -0.989484,1.60102 -5.18435,1.26476 -7.011123,-0.56201 z m 104.816122,-0.0642 c -0.35668,-0.99933 -0.81846,-2.1347 -1.02618,-2.52304 -0.20772,-0.38834 0.76392,-1.45407 2.1592,-2.36829 2.08657,-1.36717 2.81121,-1.43454 4.08242,-0.37953 0.85834,0.71236 1.41192,2.43237 1.245,3.86829 -0.2309,1.98635 -0.93923,2.65906 -3.05625,2.90257 -1.9458,0.22382 -2.94627,-0.21703 -3.40419,-1.5 z m 22.76507,0.30978 c -1.79578,-2.16377 -0.23371,-4.62673 2.93441,-4.62673 2.86226,0 4.81376,2.81022 3.46593,4.99105 -0.90908,1.47092 -5.07399,1.23386 -6.40034,-0.3643 z M 63.636607,387.11161 c -0.962764,-1.79895 -0.850392,-2.39854 0.655946,-3.5 3.959829,-2.8955 8.573189,-0.32351 6.469692,3.60691 -1.481302,2.76784 -5.620354,2.70573 -7.125638,-0.10691 z m 26.147625,0.27584 c -1.279376,-2.39054 0.960739,-4.5518 3.787845,-3.65451 1.905952,0.60493 3.475695,3.89643 2.380529,4.9916 -1.277202,1.2772 -5.227521,0.42091 -6.168374,-1.33709 z m 12.407098,-0.22068 c -0.50295,-1.58464 -0.1824,-2.61656 1.10529,-3.55813 2.27263,-1.66179 2.60765,-1.65406 4.99029,0.11523 1.54979,1.15083 1.71919,1.80605 0.84027,3.25 -1.70222,2.79652 -6.07093,2.91802 -6.93585,0.1929 z m 52.05819,-1.50571 c -2.30039,-2.30039 -1.48871,-4.82249 1.66981,-5.18855 3.67449,-0.42587 5.98463,3.47691 3.24419,5.48076 -2.33895,1.71029 -2.9477,1.67409 -4.914,-0.29221 z m 66.40895,-0.96244 c -0.95006,-1.14476 -1.025,-2.04572 -0.27031,-3.25 1.60499,-2.56116 4.93061,-2.58858 6.70499,-0.0553 1.42266,2.03112 1.40931,2.33782 -0.15344,3.52509 -2.32595,1.7671 -4.70124,1.68398 -6.28124,-0.2198 z m -46.18043,-1.49628 c -0.9625,-0.5606 -1.75,-1.80692 -1.75,-2.76959 0,-3.77983 4.61032,-5.5297 6.99585,-2.65532 0.99985,1.20476 0.92208,1.98133 -0.40061,4 -1.81471,2.7696 -2.29437,2.91066 -4.84524,1.42491 z m 13.40161,-0.80504 c -2.20933,-1.40011 -0.92966,-4.58052 1.97919,-4.91896 2.98981,-0.34785 4.59475,2.22494 2.76401,4.43085 -1.30066,1.5672 -2.7974,1.72122 -4.7432,0.48811 z m 20.3308,-0.77531 c -2.06589,-2.06589 -1.84868,-4.07316 0.58151,-5.37376 2.5992,-1.39105 4.93608,0.2849 4.93608,3.54002 0,2.79426 -3.42034,3.93099 -5.51759,1.83374 z m 24.44802,-0.92337 c -1.75398,-2.11343 -0.004,-4.91618 3.06957,-4.91618 3.07357,0 4.82355,2.80275 3.06957,4.91618 -0.72295,0.8711 -2.10426,1.58382 -3.06957,1.58382 -0.96531,0 -2.34662,-0.71272 -3.06957,-1.58382 z M 49.222504,380.27349 c -1.061983,-1.71832 0.544839,-4.99105 2.450474,-4.99105 2.393649,0 4.2463,2.33805 3.465321,4.37325 -0.684798,1.78456 -4.921267,2.22698 -5.915795,0.6178 z m -18.770292,-1.12553 c -3.445886,-1.92842 -1.389796,-6.86552 2.859192,-6.86552 2.181746,0 3.485477,2.32783 2.666722,4.76146 -0.691099,2.05419 -3.621333,3.16991 -5.525914,2.10406 z m 42.722849,-0.92406 c -2.323122,-2.56702 -0.97846,-5.29343 2.836577,-5.75139 3.520521,-0.42261 5.213918,2.65461 3.112134,5.65532 -1.891725,2.70082 -3.566965,2.72787 -5.948711,0.0961 z m 72.124409,-0.51289 c -2.1157,-2.1157 -1.97953,-4.13979 0.36283,-5.39339 2.92734,-1.56666 4.00053,-1.2724 5.2342,1.43521 1.97855,4.34244 -2.23381,7.3214 -5.59703,3.95818 z m 17.09524,0.90476 c -2.62371,-2.6237 2.0397,-7.65184 4.89725,-5.28028 1.90967,1.58489 1.82787,4.58263 -0.14571,5.33996 -2.06815,0.79362 -3.92152,0.77035 -4.75154,-0.0597 z m -101.22894,-3.7552 c -0.910369,-0.66568 -1.489935,-2.08058 -1.287925,-3.14423 0.452438,-2.38222 5.019799,-3.13939 6.703039,-1.11121 2.584263,3.11385 -2.023905,6.73515 -5.415114,4.25544 z m -21.102568,-1.14708 c -0.689856,-1.79774 0.582104,-4.57014 2.370204,-5.16617 1.566466,-0.52216 4.443186,2.721 4.086027,4.6065 -0.437655,2.31045 -5.612259,2.75902 -6.456231,0.55967 z M 216.38303,373.4537 c -2.29758,-2.5388 -2.07067,-4.02474 0.8154,-5.33972 4.51918,-2.05908 7.95412,3.80054 3.59535,6.13328 -2.50606,1.3412 -2.47352,1.34705 -4.41075,-0.79356 z m -36.61512,-2.62322 c -1.86815,-2.25098 -0.84292,-5.01475 1.96868,-5.30709 4.03956,-0.42002 5.59827,1.13181 4.20603,4.18744 -1.2959,2.84419 -4.29251,3.38756 -6.17471,1.11965 z m 20.61512,-0.37678 c -2.29758,-2.5388 -2.07067,-4.02474 0.8154,-5.33972 1.88895,-0.86067 2.83039,-0.8268 4,0.14388 1.99798,1.65818 1.96559,5.6433 -0.0522,6.41759 -2.38672,0.91587 -2.96231,0.76823 -4.76322,-1.22175 z m 26.82978,-0.21925 c -1.29155,-4.0693 4.32095,-6.90849 6.38075,-3.22783 1.36905,2.44636 -0.41862,5.27582 -3.33332,5.27582 -1.53789,0 -2.63047,-0.73425 -3.04743,-2.04799 z m 14.48102,-1.01593 c -2.14745,-4.01254 3.08719,-6.74024 6.4608,-3.36663 1.18468,1.18468 1.31615,2.04273 0.53624,3.5 -1.38302,2.5842 -5.58551,2.5041 -6.99704,-0.13337 z M 50.230875,368.29139 c -0.847758,-2.67105 0.131311,-4.00895 2.933732,-4.00895 2.837691,0 4.81627,2.17753 3.973692,4.37325 -0.926184,2.4136 -6.112568,2.14007 -6.907424,-0.3643 z m 102.697165,0.79105 c -1.76194,-1.76194 -1.46951,-3.49782 0.86469,-5.13276 2.60927,-1.8276 5.67285,-1.06952 6.52474,1.61453 1.12765,3.5529 -4.61879,6.28887 -7.38943,3.51823 z m 15.19994,-2.56531 c -1.68565,-1.12579 -2.22778,-3.54395 -1.22963,-5.48469 1.07218,-2.08466 5.11889,-2.31139 6.7245,-0.37675 1.79391,2.16154 -0.48842,6.59612 -3.39481,6.59612 -0.55,0 -1.49503,-0.3306 -2.10006,-0.73468 z m -95.360076,-1.68665 c -1.91967,-2.31306 -0.836055,-5.01173 2.151423,-5.35797 1.903121,-0.22057 3.001931,0.30245 3.810843,1.81392 2.081798,3.88987 -3.112708,6.97756 -5.962266,3.54405 z m -44.50998,-0.49968 c -0.931622,-1.50739 0.271862,-4.75831 2.008178,-5.42459 2.637358,-1.01205 4.588186,0.47597 4.266028,3.25398 -0.231675,1.99776 -0.936516,2.69544 -2.959659,2.92956 -1.46056,0.16902 -2.952106,-0.17251 -3.314547,-0.75895 z m 13.03869,-0.37456 c -2.783884,-2.03562 -1.224799,-5.6738 2.431421,-5.6738 3.65622,0 5.215305,3.63818 2.431421,5.6738 -0.997524,0.72941 -2.091664,1.3262 -2.431421,1.3262 -0.339757,0 -1.433897,-0.59679 -2.431421,-1.3262 z m 169.781376,0.56089 c -1.9075,-1.21857 -1.96424,-4.39577 -0.1,-5.59693 2.11691,-1.36393 5.06533,0.13683 5.59839,2.8496 0.52982,2.69628 -2.89761,4.40882 -5.49844,2.74733 z m -150.564538,-2.8063 c -1.281355,-2.81227 -0.04091,-4.38259 3.486022,-4.41308 2.497471,-0.0216 4.630591,4.80161 2.671705,6.04099 -2.576353,1.63005 -4.960477,0.99976 -6.157727,-1.62791 z M 221.2111,360.22907 c -1.01474,-3.19716 1.58579,-5.51533 4.46096,-3.97659 3.11542,1.66732 2.40077,5.43225 -1.10818,5.8381 -2.00675,0.2321 -2.83408,-0.22724 -3.35278,-1.86151 z m 11.68725,0.30337 c -1.3833,-2.68958 -0.30224,-4.25 2.94441,-4.25 3.33411,0 4.76099,2.23991 2.87471,4.51273 -1.6722,2.01488 -4.71844,1.87734 -5.81912,-0.26273 z m -33.64042,-2.20164 c -1.07005,-1.73138 0.41216,-4.89519 2.62193,-5.59654 2.61621,-0.83036 4.11005,0.66348 3.68284,3.68284 -0.24172,1.70848 -1.07211,2.45068 -2.99022,2.67265 -1.46056,0.16902 -2.95211,-0.17251 -3.31455,-0.75895 z m 45.04154,-1.61979 c -1.88603,-1.88603 -1.95289,-2.64711 -0.37143,-4.22857 1.9186,-1.9186 4.79213,-1.39084 5.71706,1.05 1.54082,4.06615 -2.22114,6.30306 -5.34563,3.17857 z M 49.781086,355.84636 c -0.899408,-1.08372 -0.91285,-1.95737 -0.05478,-3.56068 2.062788,-3.85436 8.265636,-0.7393 6.692265,3.36084 -0.774759,2.01899 -5.021606,2.14685 -6.637481,0.19984 z m 45.146949,0.23608 c -2.303053,-2.30305 -0.697,-6.8 2.428571,-6.8 1.403573,0 4.371434,2.71569 4.371434,4 0,1.28431 -2.967861,4 -4.371434,4 -0.675714,0 -1.768571,-0.54 -2.428571,-1.2 z m 13.765795,-1.86392 c -1.56711,-2.92817 0.4943,-5.12307 4.44904,-4.73715 2.38297,0.23255 3.16198,0.84434 3.42266,2.68798 0.59355,4.19785 -5.82722,5.86931 -7.8717,2.04917 z m -73.925926,-0.38804 c -1.72537,-2.07894 -0.875087,-4.99698 1.557852,-5.3463 2.993334,-0.42978 4.839244,2.11327 3.436489,4.73434 -1.292266,2.41462 -3.294641,2.65997 -4.994341,0.61196 z m 33.53156,-1.11947 c -3.36322,-3.36322 -0.384263,-7.57558 3.958185,-5.59703 2.967331,1.35201 3.257944,4.6766 0.536127,6.13328 -2.501558,1.33879 -2.635223,1.32284 -4.494312,-0.53625 z m 146.628576,0.37143 c -0.66,-0.66 -1.2,-1.76917 -1.2,-2.46482 0,-1.28289 3.01463,-3.33518 4.89907,-3.33518 1.52575,0 3.18523,3.61673 2.49036,5.42756 -0.71241,1.8565 -4.47873,2.08314 -6.18943,0.37244 z m 11.04298,-1.95702 c -1.80867,-1.80867 -1.5253,-3.62152 0.75702,-4.84298 2.82265,-1.51064 6.22176,0.43012 5.81068,3.31766 -0.3605,2.53232 -4.5806,3.51242 -6.5677,1.52532 z m -106.02643,-2.26704 c -1.52841,-3.35451 0.66117,-5.05815 6.03345,-4.69442 2.04326,0.13834 2.40777,4.06071 0.55,5.91848 -2.02385,2.02385 -5.38865,1.39824 -6.58345,-1.22406 z M 45.257435,347.9276 c -2.765633,-2.02228 -1.561256,-5.14516 1.984295,-5.14516 2.3079,0 3.056884,0.49577 3.296989,2.18234 0.414912,2.91446 -2.845768,4.74371 -5.281284,2.96282 z m 40.709141,-0.31126 c -0.693803,-0.27951 -1.74217,-1.40642 -2.329704,-2.50424 -2.00127,-3.73941 3.850229,-7.67059 6.891163,-4.62966 1.660873,1.66087 1.500091,4.35705 -0.371429,6.22857 -1.641461,1.64146 -2.110994,1.74291 -4.19003,0.90533 z m 151.474044,0.0453 c -1.36827,-1.36826 -0.69742,-4.31698 1.21498,-5.34047 2.9292,-1.56766 5.23209,-0.22699 4.87654,2.83898 -0.22757,1.96233 -0.94268,2.69672 -2.84152,2.91816 -1.39559,0.16275 -2.85809,-0.0247 -3.25,-0.41667 z M 57.307881,345.71943 c -1.46337,-1.46337 -1.494868,-1.93284 -0.255166,-3.80322 1.810518,-2.73159 4.011669,-3.15456 6.011132,-1.1551 1.103361,1.10336 1.332911,2.24728 0.762531,3.79995 -1.019848,2.77619 -4.315093,3.36177 -6.518497,1.15837 z m 47.420159,-0.43699 c -2.62983,-2.62983 -2.52291,-3.80462 0.47039,-5.16846 4.15267,-1.89209 7.53186,2.76621 4.32961,5.96846 -1.6541,1.6541 -2.48426,1.51574 -4.8,-0.8 z m 99.2,0.8 c -1.75226,-1.75226 -1.46979,-3.58524 0.73426,-4.76482 2.88409,-1.54351 4.43944,-1.2677 5.8826,1.04318 1.00209,1.60459 1.02901,2.40243 0.11811,3.5 -1.43955,1.73455 -5.10155,1.85506 -6.73497,0.22164 z m -108.000005,-5 c -2.627279,-2.62728 -0.814233,-5.8 3.3144,-5.8 1.900065,0 2.891795,3.80565 1.445775,5.54799 -1.465462,1.76577 -3.156868,1.85532 -4.760175,0.25201 z M 227.68622,339.2043 c -1.74049,-3.25214 -0.46099,-5.09673 3.28494,-4.73573 2.55997,0.24671 3.3291,0.82462 3.59437,2.70078 0.58543,4.14046 -4.88625,5.75902 -6.87931,2.03495 z m -114.29151,0.41147 c -1.3131,-1.3131 -0.63252,-4.28124 1.20746,-5.26597 1.44059,-0.77098 2.27831,-0.5564 3.62128,0.92757 0.96094,1.06182 1.4817,2.62234 1.15726,3.46782 -0.58849,1.53359 -4.72186,2.13473 -5.986,0.87058 z m 101.53333,-0.53333 c -3.07545,-3.07545 0.87855,-7.13504 5.29776,-5.43923 3.09379,1.1872 1.04266,6.63923 -2.49776,6.63923 -0.88,0 -2.14,-0.54 -2.8,-1.2 z m -89.77294,-0.56531 c -2.05727,-1.4087 -2.30451,-4.03563 -0.53088,-5.64073 2.09658,-1.89738 4.25628,-2.0415 5.90382,-0.39396 1.62976,1.62976 1.50759,3.34956 -0.37143,5.22857 -1.70224,1.70224 -3.31354,1.96194 -5.00151,0.80612 z m -20.85563,-4.80612 c -1.95872,-1.95871 -2.00258,-3.82585 -0.12647,-5.38289 2.30222,-1.91068 6.0063,-0.88952 6.3818,1.75936 0.62702,4.42304 -3.22466,6.6542 -6.25533,3.62353 z m -23.000006,-1 c -1.85909,-1.85909 -1.875039,-1.99275 -0.536245,-4.49431 1.439731,-2.69016 4.603796,-2.41488 6.560053,0.57075 1.322689,2.01867 1.400464,2.79524 0.400608,4 -1.60976,1.93964 -4.442037,1.90594 -6.424416,-0.0764 z M 44.383023,329.4537 c -2.266681,-2.50465 -2.080303,-3.84648 0.796049,-5.73114 4.51316,-2.95713 9.061103,0.8659 6.569178,5.52211 -1.359635,2.5405 -5.157725,2.64829 -7.365227,0.20903 z m 50.398063,0.39266 c -0.899427,-1.08374 -0.912858,-1.95736 -0.05474,-3.56076 1.240452,-2.31781 2.808704,-2.25621 4.339394,0.17044 2.17877,3.45405 -1.690698,6.51585 -4.284654,3.39032 z m 149.982134,-0.49818 c -1.70323,-3.18252 -1.18941,-4.98893 1.6196,-5.69394 4.8573,-1.21911 8.48585,3.58976 4.76283,6.3121 -2.56981,1.87909 -5.1813,1.62616 -6.38243,-0.61816 z M 32.299464,328.71101 c -1.911761,-1.91176 -1.944646,-2.53591 -0.255332,-4.84618 1.635585,-2.2368 4.492909,-1.76439 6.359223,1.05138 1.235931,1.86469 1.210464,2.33759 -0.201949,3.75 -2.037698,2.0377 -3.894946,2.0518 -5.901942,0.0448 z m 81.359006,-2.01239 c -0.95288,-1.14815 -1.02584,-2.04215 -0.26526,-3.25 1.49134,-2.36833 4.48106,-2.68669 5.97999,-0.63678 2.77564,3.79592 -2.69958,7.51981 -5.71473,3.88678 z m 119.054,0.0651 c -1.03151,-1.24289 -0.93478,-1.87863 0.53255,-3.5 3.20288,-3.53915 6.20867,-2.0086 5.05811,2.5756 -0.69978,2.78815 -3.64036,3.27437 -5.59066,0.9244 z M 127.30689,325.9638 c -3.56166,-2.60435 0.43795,-8.42206 4.17115,-6.06722 2.35791,1.48733 2.20983,4.33664 -0.31241,6.01134 -1.70857,1.13445 -2.37059,1.14404 -3.85874,0.0559 z m 132.66896,-0.45457 c -4.73031,-0.76966 -4.98081,-7.22679 -0.28035,-7.22679 1.84698,0 5.03254,2.97905 5.03254,4.7063 0,1.6865 -2.31884,2.91636 -4.75219,2.52045 z m -204.3053,-2.8342 c -1.281039,-2.39365 -1.203826,-2.76257 0.941805,-4.5 1.285486,-1.04092 2.930252,-1.89259 3.655035,-1.89259 3.695596,0 6.144603,7.13983 2.878858,8.39301 -3.397491,1.30374 -6.093452,0.58233 -7.475698,-2.00042 z m 30.032908,-0.9222 c -0.970685,-1.16961 -1.004549,-2.11105 -0.143884,-4 1.171481,-2.57112 1.934532,-2.88112 4.586674,-1.8634 2.085962,0.80046 2.085962,5.98556 0,6.78602 -2.355232,0.90379 -3.046068,0.76032 -4.44279,-0.92262 z m 16.435542,0.15816 c -1.1117,-2.89703 0.0208,-5.12855 2.60274,-5.12855 2.09589,0 2.4863,0.47107 2.4863,3 0,2.35154 -0.48731,3.0692 -2.25447,3.32014 -1.32218,0.18775 -2.49436,-0.30501 -2.83457,-1.19159 z m -78.61172,-4.16981 c -1.061246,-2.32919 -0.967375,-2.86263 0.720985,-4.09719 2.37579,-1.73722 4.407704,-1.42955 5.867472,0.88845 1.41899,2.25325 -0.246409,5.12414 -3.230156,5.56828 -1.517845,0.22594 -2.492187,-0.45863 -3.358301,-2.35954 z m 197.91334,1.9205 c -1.63343,-1.63342 -0.61394,-4.36589 1.86064,-4.98697 2.98972,-0.75037 4.7646,0.60369 4.26201,3.25151 -0.35686,1.8801 -4.73659,3.12153 -6.12265,1.73546 z m 21.48742,-0.57924 c -3.20225,-3.20225 0.17694,-7.86055 4.32961,-5.96846 3.85245,1.75529 2.69738,7.16846 -1.52961,7.16846 -0.88,0 -2.14,-0.54 -2.8,-1.2 z M 37.349413,317.76096 c -2.212864,-2.21286 -2.034652,-4.18697 0.500457,-5.54372 1.758024,-0.94087 2.48435,-0.77306 4.236119,0.97871 1.67125,1.67125 1.88519,2.47807 1.020982,3.85039 -1.493848,2.37214 -3.812274,2.6599 -5.757558,0.71462 z m 9.875306,0.14271 c -1.7974,-1.31429 -1.805259,-1.50134 -0.168076,-4 2.267602,-3.4608 5.426895,-3.44357 6.299799,0.0344 0.490979,1.95622 0.182301,3.00966 -1.172078,4 -2.287564,1.67271 -2.628322,1.67035 -4.959645,-0.0344 z m 185.473801,-2.1568 c -1.81696,-2.1893 -0.0625,-4.96443 3.13851,-4.96443 1.99001,0 2.39101,0.50313 2.39101,3 0,2.28 -0.501,3.07158 -2.08751,3.29826 -1.14812,0.16404 -2.69703,-0.43618 -3.44201,-1.33383 z M 95.478035,315.20234 c -2.3005,-1.33992 -2.213827,-3.19017 0.254062,-5.42358 1.655908,-1.49857 2.437669,-1.61608 4.500003,-0.67642 2.95646,1.34705 3.18575,3.24585 0.6672,5.52511 -2.099638,1.90014 -2.98479,1.99401 -5.421265,0.57489 z m 23.240665,-0.93736 c -0.62957,-1.17635 -0.89914,-2.77866 -0.59905,-3.56068 0.77116,-2.0096 6.51021,-1.84129 7.29892,0.21406 1.57775,4.11154 -4.63079,7.21274 -6.69987,3.34662 z m -53.761478,-1.15335 c -3.051213,-3.05122 -0.276133,-8.17724 3.843671,-7.09989 2.438044,0.63757 2.986587,2.51849 1.565664,5.36858 -1.377974,2.76394 -3.649636,3.49101 -5.409335,1.73131 z m 199.810688,-0.28115 c -2.90465,-3.49989 1.94888,-7.46212 5.51517,-4.50236 1.84658,1.53253 1.82051,2.43591 -0.12647,4.38289 -1.96089,1.9609 -3.82613,2.00225 -5.3887,0.11947 z M 106.1328,309.77743 c -1.96363,-2.99688 -0.55649,-5.49499 3.09524,-5.49499 3.39695,0 5.05156,2.49405 3.66846,5.52961 -1.45759,3.19907 -4.65563,3.1827 -6.7637,-0.0346 z m 146.20573,-0.0676 c -0.86832,-2.26283 1.22852,-4.5933 3.802,-4.22561 1.48048,0.21153 2.08751,1.02525 2.08751,2.79826 0,1.95377 -0.57294,2.56644 -2.62225,2.8041 -1.73288,0.20095 -2.84102,-0.26599 -3.26726,-1.37675 z M 29.658468,308.69862 c -2.372156,-2.85828 1.66571,-6.64159 4.877557,-4.57007 1.891992,1.22026 0.453764,6.15389 -1.793953,6.15389 -0.973031,0 -2.360653,-0.71272 -3.083604,-1.58382 z m 212.455052,-1.95061 c -1.98694,-3.03245 -0.8508,-4.80959 2.74918,-4.30023 3.12694,0.44242 3.76451,4.28307 0.96016,5.78391 -1.70404,0.91198 -2.29435,0.67586 -3.70934,-1.48368 z M 40.559574,305.81205 c -0.860665,-1.88895 -0.826801,-2.83039 0.143884,-4 3.044841,-3.66881 8.29543,0.22726 6.024577,4.47039 -1.48726,2.77897 -4.803165,2.52611 -6.168461,-0.47039 z m -21.861056,-0.0652 c -1.816962,-2.18928 -0.06253,-4.96441 3.138503,-4.96441 1.990016,0 2.391014,0.50313 2.391014,3 0,2.28 -0.501001,3.07158 -2.087505,3.29826 -1.148128,0.16404 -2.697034,-0.43618 -3.442012,-1.33383 z m 201.085722,-0.3594 c -1.28217,-2.39575 0.82866,-4.40101 4.13876,-3.93177 1.66909,0.23661 2.39234,1.08547 2.62146,3.07676 0.28361,2.46478 0.002,2.75 -2.71481,2.75 -1.9518,0 -3.3924,-0.67482 -4.04541,-1.89499 z M 52.313216,304.10059 c -1.959806,-2.79801 -0.339986,-5.04523 3.329223,-4.61871 4.422989,0.51414 3.866478,6.72783 -0.6077,6.78525 -0.656313,0.008 -1.880998,-0.96652 -2.721523,-2.16654 z m 180.081494,-0.48482 c -2.47545,-2.47544 1.26277,-6.4667 3.96008,-4.22814 2.28536,1.89669 1.6973,4.89481 -0.96008,4.89481 -1.28334,0 -2.63334,-0.3 -3,-0.66667 z m 32.58333,-1.99561 c -2.01619,-0.81355 -1.54122,-6.11052 0.60912,-6.79301 2.87143,-0.91135 5.14088,0.42496 5.14088,3.0271 0,1.89318 -2.71607,4.71635 -4.18426,4.34924 -0.17366,-0.0434 -0.87824,-0.30592 -1.56574,-0.58333 z m -13.21013,-1.78968 c -1.91383,-2.30603 -0.83645,-5.01164 2.13284,-5.35618 3.4701,-0.40265 5.05288,3.4388 2.25871,5.48194 -2.29953,1.68147 -2.9061,1.66409 -4.39155,-0.12576 z M 62.7259,298.27845 c -1.516491,-2.83359 0.418373,-5.20321 3.916539,-4.79657 2.139427,0.2487 2.585596,0.81824 2.585596,3.30056 0,2.51081 -0.437458,3.05054 -2.682742,3.30993 -1.911684,0.22086 -3.009431,-0.30049 -3.819393,-1.81392 z m -28.754889,-0.15303 c -1.930039,-1.93004 -1.477149,-3.77916 1.22741,-5.01144 3.058704,-1.39364 5.777537,0.43374 5.327871,3.58095 -0.348857,2.44166 -4.613486,3.37228 -6.555281,1.43049 z m 10.665596,-3.01381 c -0.962764,-1.79895 -0.850392,-2.39854 0.655946,-3.5 0.999758,-0.73105 2.351633,-1.32917 3.004167,-1.32917 1.982179,0 3.636061,2.77954 2.946546,4.95201 -0.887142,2.79514 -5.086794,2.71705 -6.606659,-0.12284 z m 195.453063,0.67083 c -0.87531,-2.28102 0.34984,-4.5 2.48454,-4.5 2.42603,0 4.55401,2.51477 3.79709,4.48727 -0.75084,1.95664 -5.53196,1.96634 -6.28163,0.0127 z M 20.299464,294.71101 c -2.264438,-2.26444 -1.936693,-4.30502 0.898957,-5.59703 2.683755,-1.2228 5.529614,0.1768 5.529614,2.71948 0,1.46524 -2.682627,4.44898 -4,4.44898 -0.471429,0 -1.564286,-0.70714 -2.428571,-1.57143 z m 203.000006,0 c -2.03139,-2.03139 -1.98036,-2.74852 0.34538,-4.85329 1.52918,-1.38388 2.3381,-1.50923 4,-0.6198 2.61669,1.40041 2.69711,4.64559 0.14893,6.00934 -2.50156,1.33879 -2.63522,1.32284 -4.49431,-0.53625 z m 34.34038,-5.51676 c -2.13174,-2.13174 -2.13189,-2.13617 -0.14045,-4.12761 2.21103,-2.21103 5.63414,-1.77583 6.6395,0.84411 0.72461,1.88829 0.086,3.03543 -2.44364,4.38923 -1.51159,0.80898 -2.37653,0.57315 -4.05541,-1.10573 z M 54.658468,288.69862 c -1.753986,-2.11343 -0.004,-4.91618 3.069567,-4.91618 3.073567,0 4.823553,2.80275 3.069567,4.91618 -0.722951,0.8711 -2.104256,1.58382 -3.069567,1.58382 -0.965311,0 -2.346616,-0.71272 -3.069567,-1.58382 z m -24.353495,-1.6098 c -1.39143,-1.98654 -1.378109,-2.3686 0.14112,-4.04733 2.416414,-2.67011 6.682895,-1.96076 7.126912,1.18492 0.212051,1.5023 -0.343221,2.94719 -1.44113,3.75 -2.541038,1.85806 -4.06654,1.62568 -5.826902,-0.88759 z m 201.363717,-0.91728 c -1.0016,-1.87151 -0.90113,-2.44483 0.62387,-3.55993 3.3707,-2.46473 6.79991,-0.94286 6.27297,2.78392 -0.47604,3.36678 -5.22437,3.90105 -6.89684,0.77601 z M 42.697673,283.22571 c -1.619657,-3.02636 0.805703,-5.46746 4.508783,-4.53804 2.166641,0.54379 2.590814,1.15783 2.334636,3.37965 -0.420087,3.64338 -5.090402,4.43393 -6.843419,1.15839 z m 202.780367,0.97663 c -3.96079,-2.30695 0.17862,-7.09883 4.25,-4.9199 2.26437,1.21185 2.56777,3.03223 0.8,4.8 -1.44533,1.44533 -2.72231,1.47565 -5.05,0.1199 z"
             id="path1017"
             inkscape:connector-curvature="0" />
        </g>
      </g>
    </g>
  </g>
</svg>
