<?xml version="1.0" encoding="UTF-8" standalone="no"?>
<!-- Created with Inkscape (http://www.inkscape.org/) -->

<svg
   xmlns:dc="http://purl.org/dc/elements/1.1/"
   xmlns:cc="http://creativecommons.org/ns#"
   xmlns:rdf="http://www.w3.org/1999/02/22-rdf-syntax-ns#"
   xmlns:svg="http://www.w3.org/2000/svg"
   xmlns="http://www.w3.org/2000/svg"
   xmlns:sodipodi="http://sodipodi.sourceforge.net/DTD/sodipodi-0.dtd"
   xmlns:inkscape="http://www.inkscape.org/namespaces/inkscape"
   version="1.1"
   id="svg2949"
   width="283"
   height="443"
   viewBox="0 0 283 443"
   sodipodi:docname="feu103.svg"
   inkscape:version="0.92.4 (5da689c313, 2019-01-14)">
  <metadata
     id="metadata2955">
    <rdf:RDF>
      <cc:Work
         rdf:about="">
        <dc:format>image/svg+xml</dc:format>
        <dc:type
           rdf:resource="http://purl.org/dc/dcmitype/StillImage" />
        <dc:title></dc:title>
      </cc:Work>
    </rdf:RDF>
  </metadata>
  <defs
     id="defs2953" />
  <sodipodi:namedview
     pagecolor="#ffffff"
     bordercolor="#666666"
     borderopacity="1"
     objecttolerance="10"
     gridtolerance="10"
     guidetolerance="10"
     inkscape:pageopacity="0"
     inkscape:pageshadow="2"
     inkscape:window-width="1280"
     inkscape:window-height="972"
     id="namedview2951"
     showgrid="false"
     inkscape:zoom="1.0654628"
     inkscape:cx="160.15892"
     inkscape:cy="221.34636"
     inkscape:window-x="-8"
     inkscape:window-y="-8"
     inkscape:window-maximized="1"
     inkscape:current-layer="g180"
     showguides="true" />
  <g
     id="g151"
     transform="translate(25.882805,-2.654647)">
    <g
       id="g180"
       transform="translate(23.228158,-38.492376)">
      <path
         style="fill:#ff6600"
         d="m 68.812181,374.89662 c -2.06825,-2.06825 -1.98278,-5.2112 0.44941,-16.52678 1.11146,-5.17098 2.45522,-11.65179 2.98614,-14.40179 2.35485,-12.19739 10.49784,-44.06566 11.42105,-44.69721 2.14473,-1.46719 2.05041,1.63302 -0.54467,17.90214 -1.47343,9.23729 -3.17084,20.39507 -3.77202,24.79507 -3.80275,27.83214 -4.38966,31.11582 -5.85361,32.75 -1.92994,2.15435 -2.68187,2.18301 -4.6863,0.17857 z m 15.81008,-0.96907 c -1.78532,-2.72473 -1.64404,-11.39024 0.52919,-32.4595 0.53895,-5.225 1.47708,-16.25 2.08475,-24.5 1.44179,-19.57453 3.70934,-38.61718 5.41801,-45.5 1.22538,-4.93604 1.3749,-5.14111 1.45819,-2 0.0511,1.925 -0.33159,7.53524 -0.85031,12.46719 -0.51872,4.93196 -0.99765,27.20696 -1.06429,49.5 -0.0999,33.43174 -0.37361,40.92699 -1.56215,42.78281 -1.88818,2.94823 -3.95677,2.8483 -6.01339,-0.2905 z m 14.77147,0.82635 c -1.63046,-3.04655 -3.08728,-32.50702 -3.69814,-74.78585 -0.31787,-22 -0.73599,-41.2375 -0.92916,-42.75 -0.19316,-1.5125 0.0894,-2.75 0.62798,-2.75 1.56152,0 0.51125,-5.19508 -1.27643,-6.31377 -1.2672,-0.79298 -2.308,-0.31451 -4.75,2.18362 -1.71998,1.75951 -3.12723,3.38863 -3.12723,3.62027 0,0.23164 1.8,-0.21391 4,-0.99012 4.53682,-1.60068 4.5897,-1.54104 2.39576,2.70157 -1.47231,2.84715 -1.47231,3.17608 0,4.00003 0.88233,0.49378 1.57261,1.88792 1.53395,3.09809 -0.0598,1.87203 -0.17452,1.93672 -0.76894,0.4336 -0.42036,-1.06296 -1.60758,3.71711 -2.98042,12 -3.14907,18.99963 -3.20964,19.26671 -4.36921,19.26671 -1.24182,0 -0.70781,-4.22039 1.61876,-12.79328 3.24982,-11.97487 0.91954,-8.55456 -3.29934,4.84266 -2.32963,7.39784 -5.14799,16.15062 -6.26303,19.45062 -1.11503,3.3 -2.21381,7.29093 -2.44172,8.86873 -0.22792,1.5778 -1.80286,7.6528 -3.49988,13.5 -1.69701,5.8472 -5.07082,17.59001 -7.49735,26.09514 -4.19823,14.71504 -6.8667,20.11946 -9.21693,18.66693 -3.469292,-2.14413 -1.36527,-10.95464 10.48423,-43.90231 3.96339,-11.02026 4.84765,-12.69076 6.44867,-12.18261 2.14248,0.67999 2.3048,0.14651 0.72508,-2.38302 -1.06613,-1.70715 0.7534,-8.00249 6.40569,-22.16286 2.03886,-5.10785 6.6323,-18.42571 6.42625,-18.63176 -0.23246,-0.23246 -7.35908,14.99083 -14.80804,31.63176 -2.58506,5.775 -6.27764,15 -8.20573,20.5 -1.9281,5.5 -4.69932,12.57597 -6.15829,15.72437 -1.45896,3.1484 -2.841546,6.76603 -3.072411,8.03918 -0.702412,3.87357 -4.391306,13.98709 -5.9939,16.43296 -1.975017,3.01426 -5.207775,2.95819 -6.607833,-0.1146 -1.226776,-2.69248 -2.360431,0.0155 14.686494,-35.08191 10.36255,-21.33516 22.61608,-48.67539 22.06338,-49.2281 -0.4777,-0.47769 -3.32435,4.02994 -7.35499,11.64654 -1.9156,3.61986 -4.61178,8.60656 -5.99151,11.08156 -6.38164,11.44751 -19.39738,35.85201 -25.378589,47.58482 -4.230102,8.29782 -6.642887,10.82719 -9.340618,9.79198 -2.594632,-0.99566 -1.695961,-5.55417 2.439978,-12.3768 2.167197,-3.575 4.921418,-8.3 6.120491,-10.5 1.199072,-2.2 4.142101,-6.50301 6.540065,-9.56224 2.397963,-3.05922 4.359933,-6.14009 4.359933,-6.84636 0,-1.18121 2.154131,-4.83425 10.64182,-18.0467 8.03281,-12.50436 14.45761,-23.2786 14.09657,-23.63964 -0.76281,-0.76281 -4.66671,4.20148 -14.62301,18.59494 -5.516496,7.975 -10.975249,15.85 -12.130561,17.5 -1.155312,1.65 -5.289545,7.95 -9.187184,14 -16.153853,25.07436 -15.818902,24.63573 -18.560435,24.30545 -1.394512,-0.168 -2.99539,-1.04036 -3.557508,-1.93859 -1.019378,-1.62889 1.454174,-5.57297 11.590064,-18.48036 8.024645,-10.21886 15.84357,-20.44474 23.230244,-30.38138 4.4,-5.91893 10.6509,-14.30396 13.89088,-18.63341 8.48098,-11.33274 8.46509,-11.30137 3.22726,-6.37171 -2.62971,2.475 -7.08709,7.425 -9.90528,11 -2.8182,3.575 -7.663464,9.425 -10.767267,13 -3.103804,3.575 -8.552471,10.1 -12.10815,14.5 -3.555679,4.4 -7.428647,9.125 -8.606595,10.5 -1.177948,1.375 -4.66379,5.53612 -7.746317,9.24694 -6.542623,7.87617 -8.62622,9.28278 -11.4845305,7.75306 -3.836039,-2.05299 -2.569299,-6.16411 3.7499995,-12.1704 3.1625,-3.00585 8.63904,-8.58467 12.170088,-12.39739 3.531048,-3.81272 14.275668,-15.03221 23.876932,-24.93221 9.60126,-9.9 19.76222,-20.46054 22.57991,-23.46786 l 5.12307,-5.46786 -6.05082,5.46786 c -3.32796,3.00732 -10.75296,9.78167 -16.500003,15.05411 -9.616855,8.82266 -21.108958,19.09437 -43.7488085,39.10293 -9.58318,8.46938 -13.627109,9.94305 -14.77161,5.38299 -1.261685,-5.02695 -0.983048,-5.30061 29.0915845,-28.57217 16.660018,-12.89141 39.457097,-31.10316 42.979657,-34.33486 1.1,-1.00917 3.2375,-2.48323 4.75,-3.27568 1.5125,-0.79245 2.75,-1.6701 2.75,-1.95032 0,-0.98187 -4.61361,1.95644 -18,11.4638 -21.89117,15.54768 -25.773979,18.19142 -45.4999995,30.98025 -3.85,2.49604 -9.24250596,6.29449 -11.983347,8.441 -6.212539,4.8654 -9.0431615,5.99958 -11.5821285,4.64077 -3.060156,-1.63775 -2.413335,-5.49797 1.409866,-8.41407 1.839415,-1.40299 3.6612855,-2.55089 4.0486015,-2.55089 0.387316,0 4.61984,-2.3619 9.405609,-5.24868 10.9199325,-6.58689 11.2986855,-6.80517 26.2988475,-15.15613 9.953164,-5.54118 31.656381,-18.99618 42.528331,-26.36561 4.50228,-3.05182 -3.71691,1.35573 -39.063867,20.94804 -1.065948,0.59084 -12.244705,6.21802 -24.8416825,12.50484 -24.8171725,12.3856 -28.9054345,13.52562 -29.5207885,8.23194 -0.377331,-3.24604 0.882233,-4.281 8.879387,-7.29604 5.4460363,-2.05323 25.111327,-10.45077 35.421171,-15.12567 1.65,-0.74817 8.175,-3.69242 14.5,-6.54277 6.325,-2.85034 16.45,-7.54337 22.5,-10.42895 6.05,-2.88558 12.04641,-5.57435 13.32536,-5.97504 1.27895,-0.4007 2.11014,-0.94376 1.8471,-1.2068 -0.26305,-0.26305 -2.65946,0.39877 -5.32536,1.47071 -5.0294,2.02228 -16.26713,6.39574 -22.3471,8.69698 -1.925,0.7286 -7.55,2.97235 -12.5,4.98612 -4.95,2.01377 -11.995128,4.71045 -15.655841,5.99263 -3.660712,1.28218 -8.1607115,3.01706 -9.9999995,3.8553 -8.309296,3.78689 -22.8546455,9.60189 -28.1182345,11.24123 -5.236767,1.63098 -5.919568,1.65283 -7.337594,0.2348 -1.911615,-1.91161 -0.50356,-4.73913 3.529469,-7.08752 3.756911,-2.18761 28.0418225,-10.18134 65.0822,-21.42276 10.193977,-3.09377 23.06376,-7.57619 22.72505,-7.9149 -0.1849,-0.1849 -5.48618,1.03432 -11.780616,2.70939 -6.294439,1.67506 -16.619434,4.33641 -22.944434,5.91409 -6.325,1.57769 -15.55,4.05439 -20.4999995,5.50377 -18.6014395,5.44659 -34.7571045,9.48103 -37.9661635,9.48103 -3.689006,0 -5.485631,-2.49614 -3.320581,-4.61345 1.585388,-1.55043 14.161812,-4.87737 26.2467285,-6.94325 4.972009,-0.84996 10.390016,-1.96294 12.040016,-2.47329 3.563478,-1.10222 41.6585475,-9.53766 52.8015695,-11.69193 14.81021,-2.86324 6.90497,-2.34249 -11.421613,0.7524 -10.108976,1.70714 -24.904957,4.17001 -32.879957,5.47304 -7.9749995,1.30304 -21.7909615,3.59578 -30.702139,5.09498 -13.321965,2.24128 -16.477294,2.49747 -17.75,1.44122 -1.886965,-1.56604 -1.984366,-3.43256 -0.254056,-4.86859 1.53887,-1.27715 14.61273,-3.28275 47.186386,-7.23862 13.210895,-1.60439 27.394809,-3.40715 31.519809,-4.00613 4.125,-0.59899 9.975,-1.44346 13,-1.87661 l 5.5,-0.78754 -4.5,-0.11768 c -4.13949,-0.10825 -21.59886,1.19162 -51.2499995,3.81562 -6.46249999,0.57191 -16.8125005,1.48781 -23.0000005,2.03535 -6.1875,0.54753 -12.288164,1.20164 -13.557032,1.45356 -1.268867,0.25193 -3.43757,0.0282 -4.819339,-0.49713 -3.580763,-1.3614 -2.891577,-5.08088 1.126371,-6.07893 1.65,-0.40986 21.837061,-1.19852 44.860136,-1.75258 37.765895,-0.90885 43.940214,-1.26968 42.556531,-2.48702 -0.229167,-0.20161 -19.922905,-0.65919 -43.7638605,-1.01683 -26.1950585,-0.39295 -44.1001205,-1.05321 -45.2500015,-1.66861 -2.321371,-1.24236 -2.444116,-3.25384 -0.306798,-5.02766 1.903484,-1.57975 8.667109,-1.45616 29.9039935,0.54642 15.906665,1.49995 30.1945765,2.29476 52.9999995,2.94827 l 14,0.40119 -18.5,-2.28661 c -24.13746,-2.98341 -45.4836755,-5.28527 -61,-6.57793 -6.875,-0.57275 -13.245929,-1.26331 -14.157619,-1.53458 -2.350263,-0.69931 -3.169566,-3.51847 -1.506,-5.18203 1.162274,-1.16228 2.793179,-1.22223 9.286745,-0.3414 13.096779,1.77654 48.227247,6.87768 58.876874,8.54925 5.5,0.86329 13.272187,2.08211 17.271526,2.7085 10.001434,1.56644 9.977074,0.60258 -0.03938,-1.55831 -4.52768,-0.97678 -11.832146,-2.61463 -16.232146,-3.63968 -4.4,-1.02504 -14.75,-3.00812 -23,-4.40684 -21.873261,-3.70842 -39.675623,-7.57962 -42.25,-9.18744 -2.23617,-1.3966 -3.040156,-4.75275 -1.383781,-5.77645 0.476421,-0.29444 5.313921,0.61987 10.75,2.03181 5.43608,1.41193 15.4703785,3.88653 22.2984405,5.4991 6.828063,1.61256 15.6030625,3.77208 19.4999995,4.79892 3.896938,1.02684 11.360341,2.85007 16.585341,4.05163 5.225,1.20155 10.4,2.39765 11.5,2.658 1.551364,0.36718 1.663523,0.2665 0.5,-0.4488 -0.825,-0.50719 -11.4,-3.95739 -23.5,-7.66712 -12.1,-3.70972 -26.54581449,-8.20756 -32.1018115,-9.99519 -5.5559975,-1.78764 -12.4529145,-3.85282 -15.3264835,-4.58929 -5.330007,-1.36604 -7.540007,-3.53779 -6.46113,-6.3493 1.059928,-2.76213 6.043233,-1.75365 22.2006985,4.49277 29.5985035,11.44268 43.0611495,16.33592 50.6887265,18.42373 2.75,0.75273 8.776422,2.76173 13.39205,4.46444 4.61563,1.70272 8.55266,2.93524 8.74897,2.73894 0.36607,-0.36608 -5.94065,-3.06743 -22.64102,-9.69781 -9.988423,-3.9656 -20.133734,-8.21416 -28.5,-11.93497 -13.5724665,-6.0362 -16.7610175,-7.40341 -26.5,-11.36279 -10.048262,-4.08511 -10.513482,-4.40704 -10.813358,-7.48276 -0.27999,-2.87173 -0.03766,-3.21399 2.275615,-3.21399 2.573657,0 16.9373275,6.53429 25.5377435,11.61758 7.8646885,4.64843 31.1897155,16.13122 39.9999995,19.6918 4.675,1.88934 11.65,4.94303 15.5,6.78597 8.98004,4.29862 9.23157,4.39642 8,3.11058 -0.55,-0.57423 -5.05,-3.18038 -10,-5.79145 -4.95,-2.61106 -10.678558,-5.79748 -12.730128,-7.08093 -2.051571,-1.28345 -3.922746,-2.33355 -4.158167,-2.33355 -0.377073,0 -9.881396,-5.05249 -31.611705,-16.80474 -3.5749995,-1.93345 -10.77499946,-5.71987 -15.9999995,-8.41427 -11.2205875,-5.78617 -13.4763495,-7.70479 -12.5373035,-10.66346 0.991929,-3.12529 3.190781,-2.63212 11.7511605,2.63564 4.242621,2.61076 10.992621,6.72753 15,9.1484 4.0073775,2.42086 12.2361425,7.66199 18.2861425,11.64695 6.05,3.98497 12.996858,8.24395 15.437463,9.4644 2.440605,1.22045 11.328107,6.41976 19.749997,11.55402 8.4219,5.13426 15.31254,9.13023 15.31254,8.87994 0,-0.2503 -7.7625,-5.64974 -17.25,-11.99875 -9.4875,-6.34901 -27.6,-18.46585 -40.25,-26.92631 -29.6998785,-19.8636 -30.921612,-20.75701 -31.337356,-22.91579 -0.716578,-3.7209 1.5162833,-3.93651 7.1840805,-0.69373 3.02928501,1.73319 5.653025,3.48287 5.830533,3.8882 0.177509,0.40533 3.247743,2.82269 6.822743,5.37192 3.5749995,2.54923 7.3999995,5.46581 8.4999995,6.48127 2.787708,2.57348 11.672857,9.64019 13.637343,10.84631 0.895819,0.55 5.733522,3.925 10.750451,7.5 5.016929,3.575 12.832056,9.09402 17.366946,12.26449 4.53489,3.17047 10.49526,7.43724 13.24526,9.48171 2.75,2.04447 4.37011,2.92314 3.60024,1.9526 -0.76987,-0.97055 -5.04487,-4.52721 -9.5,-7.9037 -4.45513,-3.37649 -12.17114,-9.62168 -17.14669,-13.87821 -4.975548,-4.25653 -12.850548,-10.73421 -17.5,-14.39484 -4.649453,-3.66064 -11.594917,-9.21313 -15.434366,-12.33888 -3.83945,-3.12574 -9.6894495,-7.64605 -12.9999995,-10.04514 -3.31055096,-2.39908 -6.581684,-5.07259 -7.269184,-5.94113 -1.734793,-2.19161 -1.561789,-4.86328 0.362745,-5.60179 2.36955401,-0.90928 7.802144,2.79075 17.4131515,11.85978 7.852166,7.40937 20.074974,18.63523 32.474103,29.82535 2.75,2.48186 12.32286,10.88532 21.27301,18.67437 8.95016,7.78905 16.03337,14.54965 15.74047,15.02357 -0.29289,0.47392 0.59675,1.74997 1.97699,2.83567 3.5576,2.7984 3.12441,3.76017 -0.52361,1.16255 -2.93743,-2.09163 -8.40834,-3.49974 -7.42676,-1.91151 0.26641,0.43106 -0.30862,0.93887 -1.27786,1.12846 -0.99826,0.19526 0.93287,1.32992 4.45443,2.61725 3.41917,1.24989 6.53049,2.7803 6.91405,3.40091 0.44958,0.72744 0.13617,0.91302 -0.88206,0.52228 -0.86869,-0.33334 -2.85501,-0.22349 -4.41405,0.24411 -2.44574,0.73356 -2.12445,0.86199 2.34207,0.93615 4.08488,0.0678 5.25214,0.45504 5.53448,1.83595 0.5789,2.83133 4.1073,-3.25413 4.0035,-6.90488 -0.0892,-3.1363 -2.62993,-6.84512 -4.68931,-6.84512 -1.13297,0 -6.12994,-7.06717 -18.0302,-25.5 -9.25951,-14.34245 -33.520023,-50.57406 -37.162535,-55.5 -8.832658,-11.94481 -10.515234,-14.84926 -9.838158,-16.98254 0.506844,-1.59692 1.346428,-2.05621 3.337172,-1.8256 2.131965,0.24698 3.527738,1.79684 7.031815,7.80814 2.404526,4.125 5.735098,9.75 7.40127,12.5 1.666173,2.75 4.828959,8.375 7.028414,12.5 2.199455,4.125 5.004122,8.85 6.232602,10.5 1.22848,1.65 5.52455,8.85 9.54683,16 8.7179,15.49694 17.92406,29.83671 18.67385,29.08692 0.29623,-0.29622 0.0849,-1.11196 -0.46952,-1.81275 -0.55446,-0.7008 -3.93148,-6.89917 -7.50449,-13.77417 -3.57301,-6.875 -11.35508,-21.5 -17.2935,-32.5 -5.938418,-11 -12.589255,-23.375 -14.779636,-27.5 -2.190382,-4.125 -4.818781,-9.06834 -5.840888,-10.98519 -2.456797,-4.60747 -2.479025,-9.01481 -0.04547,-9.01481 3.859064,0 7.790479,6.15876 14.681945,23 1.462896,3.575 4.143206,9.425 5.956246,13 1.81304,3.575 3.64183,7.61729 4.06397,8.98287 1.44191,4.66444 22.62308,49.21231 23.14894,48.68646 0.1648,-0.16481 -2.62971,-7.24533 -6.21003,-15.73449 -3.58032,-8.48916 -8.48181,-20.83484 -10.8922,-27.43484 -2.41039,-6.6 -8.19274,-20.93718 -12.84966,-31.8604 -4.65693,-10.92322 -8.252918,-20.67959 -7.991089,-21.68083 0.860752,-3.29152 3.529153,-3.2733 6.425359,0.0439 2.47957,2.83997 7.29788,16.20843 15.85768,43.99736 3.69091,11.98231 8.17904,25.46002 9.99013,30 0.98733,2.475 2.35311,5.97693 3.03508,7.78206 2.55117,6.75291 1.90363,2.06562 -1.57333,-11.3886 -5.90377,-22.84486 -8.72118,-32.38002 -16.61613,-56.23506 -4.239,-12.80841 -4.89619,-15.73928 -3.98004,-17.75 1.48758,-3.26489 4.73459,-3.09448 6.50887,0.3416 0.78101,1.5125 2.14834,6.8 3.03852,11.75 0.89018,4.95 3.61226,17.1 6.04907,27 2.4368,9.9 6.52994,26.8875 9.09587,37.75 2.56593,10.8625 4.86179,19.75 5.10192,19.75 0.45336,0 0.35621,-0.66473 -2.63055,-18 -0.995,-5.775 -2.35268,-13.875 -3.01707,-18 -1.18122,-7.33386 -4.3763,-24.51041 -7.53356,-40.5 -0.86881,-4.4 -2.00563,-10.17183 -2.52626,-12.82629 -1.44049,-7.34451 -1.1938,-10.47104 0.91527,-11.59978 2.73029,-1.46121 4.8699,0.61887 6.09566,5.92607 0.57164,2.475 2.17955,13.725 3.57314,25 1.39359,11.275 3.16506,25 3.93661,30.5 0.77155,5.5 1.9233,16.75 2.55945,25 0.63614,8.25 1.34038,15.1875 1.56496,15.41667 0.67023,0.68393 0.46276,-7.59671 -0.5366,-21.41667 -0.51704,-7.15 -1.22584,-19.075 -1.57511,-26.5 -0.34928,-7.425 -1.02224,-16.65 -1.49548,-20.5 -0.47324,-3.85 -1.17523,-13.11864 -1.55997,-20.59698 -0.692,-13.4506 -0.67461,-13.61444 1.61576,-15.21868 2.1866,-1.53155 2.40236,-1.49837 3.88163,0.59698 1.27596,1.80737 1.5841,5.64829 1.66222,20.71868 0.0527,10.175 0.50081,33.575 0.99571,52 1.08223,40.29075 1.77788,33.5735 2.95147,-28.5 0.415952,-22 1.130432,-41.0125 1.587732,-42.25 0.96304,-2.60606 3.08289,-2.91654 4.90695,-0.71869 1.23909,1.49301 1.03137,14.28934 -0.55686,34.30533 -1.19168,15.01848 -3.46205,51.39806 -3.36609,53.93706 0.17612,4.65975 4.97852,-31.80214 6.88498,-52.2737 0.61464,-6.6 1.85465,-17.2412 2.75557,-23.64711 1.53817,-10.93698 1.80944,-11.74836 4.44928,-13.30775 3.67511,-2.17095 4.80713,-1.31665 4.80713,3.62785 0,5.33522 -4.46073,31.56749 -7.62272,44.82701 -1.37716,5.775 -3.38128,16.31733 -4.45361,23.4274 -1.07234,7.11007 -2.39384,14.64757 -2.93669,16.75 -2.20095,8.52427 -2.8454,11.52547 -3.3976,15.8226 -0.49621,3.86147 -0.31468,3.57768 1.2793,-2 4.87189,-17.04771 13.29242,-53.37894 17.15107,-74 4.48939,-23.99179 6.47619,-29.17488 10.5798,-27.60018 1.36535,0.52394 1.56809,1.5368 1.09956,5.49295 -0.65014,5.48942 -7.25629,30.58692 -12.00471,45.60723 -1.73873,5.5 -3.2111,10.45 -3.27193,11 -0.0608,0.55 -0.61592,2.22774 -1.23354,3.7283 -0.61761,1.50057 -1.85053,5.55057 -2.73982,9 -0.88928,3.44944 -2.9116,10.75173 -4.49403,16.22733 -1.58243,5.4756 -2.73625,10.09653 -2.56404,10.26875 0.17222,0.17221 1.90426,-4.08282 3.84899,-9.45563 1.94473,-5.37281 4.98007,-13.59375 6.74516,-18.26875 1.7651,-4.675 4.31957,-12.1 5.67659,-16.5 13.89287,-45.04611 16.84753,-53.20949 19.57164,-54.07409 1.20643,-0.38291 2.61257,-0.009 3.57228,0.95122 1.39606,1.39607 1.42387,2.20412 0.23584,6.85278 -0.74077,2.89855 -1.71885,5.94509 -2.17352,6.77009 -0.45465,0.825 -3.2899,7.575 -6.30054,15 -3.01064,7.425 -7.09844,17.325 -9.084,22 -4.78842,11.27432 -11.92177,29.51262 -13.49362,34.5 -0.69336,2.2 -2.54973,7.27421 -4.12526,11.27603 -1.57553,4.00182 -2.84667,7.60182 -2.82475,8 0.0611,1.11119 3.69072,-6.44338 6.59995,-13.73712 1.43448,-3.5964 4.52511,-10.36391 6.86807,-15.03891 2.34297,-4.675 6.83066,-14.35 9.97265,-21.5 3.14198,-7.15 7.20912,-16.375 9.03808,-20.5 1.82895,-4.125 4.9761,-11.55 6.99368,-16.5 4.41778,-10.83874 6.32433,-13.193 9.36589,-11.56521 1.167,0.62457 2.12183,1.94325 2.12183,2.9304 0,1.89581 -7.7641,18.20379 -11.49039,24.13481 -4.43045,7.0518 -19.50002,35.79967 -22.82222,43.53741 -1.88031,4.37942 -5.50419,12.17399 -8.05306,17.32126 -2.54888,5.14728 -4.63187,9.64728 -4.62886,10 0.007,0.78808 5.70981,-8.87311 13.49369,-22.85867 3.21416,-5.775 9.41409,-16.75812 13.77762,-24.40693 4.36352,-7.64882 8.8368,-15.52382 9.94062,-17.5 8.05284,-14.41714 14.26492,-24.28083 15.81402,-25.10989 2.34978,-1.25756 4.96858,-0.24521 4.96858,1.9207 0,0.92945 -2.06832,4.8188 -4.59626,8.64301 -2.52794,3.82421 -5.00772,7.85311 -5.51063,8.95311 -0.86905,1.90088 -3.54166,6.09364 -12.24025,19.20238 -2.11592,3.18869 -6.79321,10.52262 -10.39396,16.29762 -3.60076,5.775 -8.21224,12.975 -10.24774,16 -5.74054,8.53117 -11.34549,18.52236 -9.55916,17.03983 1.40786,-1.16841 17.45743,-23.70505 27.548,-38.68262 28.81994,-42.77779 30.01218,-44.25184 33.47039,-41.38179 0.84128,0.69821 1.52961,2.02774 1.52961,2.95452 0,1.77027 -16.83877,24.04091 -51.8181,68.53362 l -6.31809,8.03644 10.61217,-11 c 5.83669,-6.05 14.06956,-15.05 18.29527,-20 9.58792,-11.23131 8.57036,-9.99563 18.52822,-22.5 11.19709,-14.0605 15.03447,-18 17.53342,-18 3.32534,0 4.67253,3.57382 2.56976,6.81706 -1.96929,3.03738 -16.63472,18.26696 -49.40265,51.30309 -12.375,12.47628 -21.375,21.86878 -20,20.87222 4.46693,-3.23752 35.09404,-30.90718 51.5,-46.52699 8.8,-8.37833 17.67232,-16.66882 19.71626,-18.42332 4.36914,-3.75043 8.09956,-3.84237 8.61374,-0.21231 0.3815,2.69334 -3.47718,6.58567 -16.83,16.97675 -7.84659,6.10617 -15.29489,12.19597 -35,28.61635 -4.125,3.43739 -10.2,8.4086 -13.5,11.04714 -17.62416,14.09153 -7.04421,6.88023 35,-23.856 16.5,-12.06225 31.17114,-22.38356 32.60254,-22.93625 3.35415,-1.2951 5.89746,-0.29383 5.89746,2.32177 0,2.6941 -4.62141,6.81861 -14.5,12.94096 -24.18321,14.98775 -38.64362,24.11065 -45.41093,28.6492 -18.78941,12.60128 -19.76493,13.44807 -8.58907,7.45564 4.4,-2.35926 12.63759,-6.74559 18.30575,-9.74739 5.66816,-3.00181 15.45533,-8.45935 21.74927,-12.12788 28.04956,-16.34913 31.67104,-18.27842 33.75188,-17.9808 3.03875,0.43464 3.30567,3.52981 0.55674,6.45591 -1.27456,1.3567 -13.57778,7.99083 -27.34051,14.7425 -40.79822,20.01467 -54.14146,26.68817 -52.02313,26.0189 1.1,-0.34753 7.175,-2.55656 13.5,-4.90896 11.3596,-4.22487 15.95737,-6.24114 37.5,-16.44499 11.74021,-5.56086 26.38778,-11.81884 30.50922,-13.03466 3.36464,-0.99257 6.99078,0.4686 6.99078,2.81695 0,2.43154 -5.76144,6.23347 -13.5,8.90854 -3.3,1.14074 -10.725,3.74006 -16.5,5.77626 -5.775,2.03619 -17.925,6.30237 -27,9.48038 -15.19698,5.32191 -36.16497,13.76863 -31.5,12.68942 5.46456,-1.26418 22.47717,-5.963 26,-7.18111 2.2,-0.76071 12.325,-4.06514 22.5,-7.34318 10.175,-3.27805 22.92543,-7.38741 28.33429,-9.13192 11.23834,-3.62468 15.11553,-4.01203 17.3902,-1.73737 1.35329,1.35329 1.39427,1.85607 0.26244,3.21984 -2.40954,2.90332 -7.20428,4.7083 -20.44907,7.69806 -26.11199,5.8943 -29.30848,6.66505 -45.03786,10.85967 -27.16071,7.24306 -29.07647,7.81019 -26.5,7.84502 1.375,0.0186 4.3,-0.40365 6.5,-0.93829 2.2,-0.53464 6.7,-1.3976 10,-1.91769 3.3,-0.52008 13.65,-2.34175 23,-4.04814 9.35,-1.70639 19.475,-3.5008 22.5,-3.98757 3.025,-0.48677 8.94857,-1.6168 13.16348,-2.51118 4.21491,-0.89438 10.06491,-1.48878 13,-1.32089 4.65032,0.26601 5.37734,0.59252 5.65398,2.53927 0.51053,3.59278 -4.18755,4.8515 -30.81746,8.25671 -40.81808,5.21946 -65.6059,8.70191 -67.5,9.48311 -0.97804,0.40338 15.06134,-0.0665 33,-0.96666 35.59786,-1.78637 38.46351,-1.9806 51.89756,-3.51756 11.46917,-1.31216 14.24567,-0.86674 15.79511,2.53392 0.92719,2.03496 0.80056,2.82647 -0.72127,4.50807 -1.78968,1.97758 -2.85322,2.03749 -34.90866,1.96646 -18.18451,-0.0403 -37.78774,-0.001 -43.56274,0.0862 l -10.5,0.1595 7.57929,1.27963 c 4.1686,0.70379 15.6436,1.80338 25.5,2.44352 9.85639,0.64014 20.39571,1.34283 23.42071,1.56154 3.025,0.2187 11.00172,0.70441 17.72605,1.07936 10.08969,0.5626 12.52006,1.00661 13.90866,2.541 2.53016,2.79578 0.48779,6.54993 -4.02381,7.39631 -1.91462,0.35919 -3.90934,0.38842 -4.43271,0.065 -1.23678,-0.76437 -18.85137,-3.16984 -37.17819,-5.07711 -23.82483,-2.47944 -40.16475,-4.50468 -43.94222,-5.4464 -4.96046,-1.23664 -12.5918,-2.2873 -11.9497,-1.64521 1.54514,1.54514 62.46174,14.70435 81.57605,17.62205 14.2614,2.17694 18.31587,3.81364 18.31587,7.39371 0,6.71275 -4.13258,6.39923 -37,-2.80702 -4.675,-1.30948 -14.8,-4.06157 -22.5,-6.11576 -7.7,-2.05419 -19.34464,-5.50764 -25.87697,-7.67434 -12.92033,-4.28551 -16.80728,-4.68911 -5.89773,-0.61238 3.72608,1.39238 10.3747,3.95884 14.7747,5.70326 13.39214,5.30942 45.3992,16.71773 56.01195,19.96441 5.50657,1.68459 11.01907,3.7683 12.25,4.63048 3.88813,2.72335 2.38552,8.45418 -2.21667,8.45418 -2.0892,0 -27.38471,-10.20783 -34.27046,-13.82962 -2.07615,-1.09202 -8.49982,-4.02096 -14.27482,-6.50875 -5.775,-2.4878 -16.35,-7.05244 -23.5,-10.14366 -7.15,-3.09121 -13.675,-5.8624 -14.5,-6.15818 -2.09831,-0.75232 25.89718,14.48904 29.17678,15.88447 1.47224,0.62642 3.17248,2.22687 3.77833,3.55657 0.83226,1.82661 1.63705,2.27758 3.29215,1.84476 1.43453,-0.37514 4.2722,0.58735 8.22167,2.78863 7.71748,4.30143 20.61182,10.73764 27.03107,13.49256 2.75,1.1802 6.125,2.76915 7.5,3.531 2.85503,1.58188 4.61929,5.48599 3.63649,8.04713 -1.03579,2.69924 -5.49676,1.28744 -16.47229,-5.21312 -5.31531,-3.14814 -10.9131,-6.41417 -12.43954,-7.25784 -9.98603,-5.51933 -18.72467,-11.40682 -18.72467,-12.61537 0,-0.78021 -0.83218,-1.41857 -1.8493,-1.41857 -2.78705,0 -27.37696,-13.217 -39.65069,-21.31213 -3.30001,-2.17651 -5.325,-3.28134 -4.5,-2.45518 1.28324,1.28505 36.59135,25.39552 43.59215,29.76731 1.32114,0.825 8.81586,5.62067 16.65495,10.65704 7.8391,5.03638 16.12727,10.12444 18.41817,11.30681 5.18355,2.6753 9.33472,6.45012 9.33472,8.4884 0,1.61636 -3.40775,5.54775 -4.80883,5.54775 -1.61109,0 -12.69681,-7.18903 -17.77272,-11.52552 -6.4221,-5.48657 -14.12047,-11.41719 -26.23576,-20.21132 -12.53601,-9.09951 -27.78832,-20.49416 -32.68268,-24.41647 -10.05761,-8.06009 13.3382,13.37358 28.52584,26.13346 6.86078,5.76408 13.59915,11.44741 14.97415,12.62961 26.61422,22.88259 26,22.31417 26,24.06094 0,2.98745 -2.08115,5.3293 -4.73602,5.3293 -2.15683,0 -7.75321,-5.10597 -29.3192,-26.75 -29.67864,-29.78604 -46.09808,-45.77124 -43.91133,-42.75 3.06091,4.22897 12.61407,15.37461 20.5709,24 4.56633,4.95 9.25834,10.125 10.42666,11.5 4.00347,4.71166 18.46758,20.49992 26.7859,29.23807 6.77225,7.11405 8.25921,9.23265 8.00067,11.39914 -0.17466,1.46359 -1.08886,3.14392 -2.03154,3.73408 -3.33109,2.08541 -6.45627,-1.40497 -35.28604,-39.40953 -13.9873,-18.43861 -21.37657,-27.80857 -27.2907,-34.6059 -2.80223,-3.22072 -6.05767,-6.98086 -7.23428,-8.35586 -1.17663,-1.375 -0.0832,0.425 2.42986,4 2.51305,3.575 7.03921,10.1 10.05814,14.5 3.01892,4.4 8.76225,12.59417 12.76296,18.20928 4.00071,5.6151 8.39902,12.06311 9.77402,14.32891 1.375,2.2658 3.19021,4.87163 4.03381,5.79072 2.89035,3.14906 15.71245,20.83398 18.04988,24.89533 2.01287,3.49745 2.16929,4.42512 1.13055,6.70491 -1.02981,2.2602 -1.50096,2.48776 -3.23228,1.56119 -2.93245,-1.5694 -10.10421,-11.03511 -15.66416,-20.67446 -2.64979,-4.59398 -6.78703,-11.38192 -9.19389,-15.08429 -2.40685,-3.70237 -7.62335,-12.13159 -11.59222,-18.73159 -3.96886,-6.6 -10.77461,-17.62771 -15.1239,-24.50603 -4.34928,-6.87832 -8.5064,-13.66623 -9.23806,-15.08426 -0.73165,-1.41802 -2.42614,-3.89031 -3.76553,-5.49397 -1.33939,-1.60366 -0.17527,0.83468 2.58694,5.41852 2.7622,4.58384 8.88383,15.60884 13.60364,24.5 4.71979,8.89116 10.28105,19.09074 12.35836,22.66574 2.0773,3.575 7.96,13.7 13.07266,22.5 16.0651,27.65153 16.60635,28.90056 13.6036,31.39262 -1.04862,0.87027 -1.86489,0.72284 -3.47457,-0.62756 -1.89027,-1.58579 -17.81309,-32.55719 -21.21493,-41.26506 -0.75202,-1.925 -2.28365,-4.86397 -3.4036,-6.53105 -1.11996,-1.66708 -7.16816,-13.26021 -13.44044,-25.76252 -12.06941,-24.0575 -16.02567,-29.85532 -6.83561,-10.01744 3.00936,6.49605 5.80755,12.93601 6.21822,14.31101 0.41066,1.375 2.04601,5.3439 3.6341,8.81977 1.58808,3.47587 2.88744,6.50076 2.88744,6.72197 0,0.2212 2.07884,4.792 4.61967,10.15731 2.54082,5.36531 6.39994,13.80067 8.57584,18.74524 2.1759,4.94457 5.52937,12.21637 7.45214,16.15956 4.03631,8.27754 4.32297,13.68613 0.75242,14.19603 -1.69318,0.2418 -2.80689,-1.04549 -5.75,-6.64623 -2.00754,-3.82036 -3.65008,-7.4583 -3.65008,-8.0843 0,-1.09058 -1.89638,-6.10132 -14.97553,-39.56935 -5.34819,-13.68536 -12.21166,-32.05799 -18.03696,-48.28256 -2.54002,-7.07443 -3.734742,-7.93344 -1.58138,-1.13702 0.77016,2.43077 5.31355,16.79458 10.09642,31.91958 4.78287,15.125 9.53888,29.525 10.56891,32 1.03003,2.475 2.60398,6.975 3.49765,10 0.89369,3.025 3.60625,10.51209 6.0279,16.63799 4.78058,12.09316 5.19707,14.45809 2.88424,16.37758 -1.24047,1.0295 -1.86504,0.94707 -3.40862,-0.44985 -2.71061,-2.45306 -4.89645,-9.07186 -12.57105,-38.06572 -2.03818,-7.7 -4.94281,-17.6 -6.45473,-22 -1.51194,-4.4 -4.46934,-14.96493 -6.57204,-23.47762 -2.10268,-8.51268 -4.00269,-14.93872 -4.22224,-14.28007 -0.39166,1.175 4.52105,28.94858 7.2094,40.75769 2.41381,10.60312 9.52564,40.78584 11.25125,47.75045 1.2043,4.86059 1.40279,7.5175 0.709,9.49029 -1.25054,3.55588 -3.88659,4.00637 -5.85593,1.00077 -1.39856,-2.13447 -7.26031,-35.82762 -9.08869,-52.24151 -0.36759,-3.3 -1.26248,-9.15 -1.98865,-13 -0.72618,-3.85 -2.04554,-10.825 -2.93192,-15.5 -0.886392,-4.675 -2.022342,-12.1 -2.524342,-16.5 -0.90594,-7.94047 -0.90915,-7.92187 -0.43169,2.5 0.26457,5.775 0.93234,15.225 1.48393,21 0.869552,9.1041 1.484132,14.37525 3.439452,29.5 0.21331,1.65 0.89942,9.75 1.52468,18 0.62525,8.25 1.4948,16.95472 1.93231,19.34383 1.12586,6.14792 0.0128,9.58199 -3.23016,9.9661 -1.73794,0.20585 -2.94631,-0.30597 -3.598222,-1.52408 z M 88.155151,268.46805 c -0.0362,-0.98906 -0.34772,-0.81874 -0.9144,0.5 -1.18132,2.74909 -1.18132,4.32797 0,2.5 0.53316,-0.825 0.94464,-2.175 0.9144,-3 z m 12.768709,1.8125 c -0.31922,-0.79773 -0.55618,-0.56078 -0.60416,0.60417 -0.0434,1.05416 0.19292,1.64479 0.52522,1.3125 0.33229,-0.3323 0.36781,-1.1948 0.0789,-1.91667 z m 17.3169,-3.19006 c 0,-0.20765 -0.7875,-0.99515 -1.75,-1.75 -1.58607,-1.24387 -1.62144,-1.2085 -0.37756,0.37756 1.30637,1.66575 2.12756,2.19548 2.12756,1.37244 z m 4,-1 c 0,-0.20765 -0.7875,-0.99515 -1.75,-1.75 -1.58607,-1.24387 -1.62144,-1.2085 -0.37756,0.37756 1.30637,1.66575 2.12756,2.19548 2.12756,1.37244 z m 9,-4.10212 c 0,-0.26382 -1.9125,-1.43833 -4.25,-2.61003 -2.33751,-1.1717 -3.80001,-1.65896 -3.25,-1.0828 0.85553,0.89622 6.51445,4.14822 7.25,4.16635 0.13749,0.003 0.25,-0.20969 0.25,-0.47352 z m -51.000009,-3.02032 c 1.86371,-1.375 2.96363,-2.49776 2.44428,-2.49503 -1.01357,0.005 -7.31779,4.89893 -6.38856,4.95907 0.30565,0.0198 2.08057,-1.08904 3.94428,-2.46404 z m 36.500009,-2.10927 c -3.86716,-3.4168 -3.89371,-3.48198 -0.79966,-1.96245 5.50847,2.70527 5.05985,1.6789 -0.63914,-1.46227 -2.99135,-1.64877 -6.14135,-3.6124 -7,-4.36361 -0.85866,-0.75121 -2.52041,-1.65748 -3.69279,-2.01392 -3.55655,-1.08133 -3.58169,1.88305 -0.0378,4.4528 3.04804,2.21016 3.09643,2.21508 1.26436,0.12842 -2.80484,-3.19458 -0.0248,-2.69757 3.20044,0.57218 2.66531,2.7021 10.23025,8.24008 11.20455,8.20238 0.275,-0.0107 -1.3,-1.60973 -3.5,-3.55353 z m 13.5,-0.39073 c -0.825,-0.53316 -1.95,-0.96937 -2.5,-0.96937 -0.55001,0 -0.325,0.43621 0.5,0.96937 0.82499,0.53316 1.94999,0.96937 2.5,0.96937 0.55,0 0.32499,-0.43621 -0.5,-0.96937 z m -59.000009,-2 c 1.82797,-1.18132 0.24909,-1.18132 -2.5,0 -1.31874,0.56668 -1.48906,0.87815 -0.5,0.9144 0.825,0.0302 2.175,-0.38124 3,-0.9144 z m -2.27083,-2.60417 c -0.3323,-0.33229 -1.1948,-0.36781 -1.91667,-0.0789 -0.79773,0.31922 -0.56078,0.55618 0.60417,0.60416 1.05416,0.0434 1.64479,-0.19293 1.3125,-0.52522 z m 0.52083,-4.05811 c -0.6875,-0.27741 -1.8125,-0.27741 -2.5,0 -0.6875,0.27741 -0.125,0.50439 1.25,0.50439 1.375,0 1.9375,-0.22698 1.25,-0.50439 z m 17.75,-2.33772 c -0.825,-0.53316 -3.525,-0.91241 -6,-0.84278 l -4.5,0.12659 4,0.71619 c 2.2,0.3939 4.9,0.77316 6,0.84278 1.64293,0.10399 1.7322,-0.0465 0.5,-0.84278 z m -17.22357,-0.72689 c -2.04796,-0.21488 -5.64796,-0.21785 -8,-0.007 -2.35204,0.21125 -0.67643,0.38706 3.72357,0.39069 4.4,0.004 6.32439,-0.16921 4.27643,-0.38408 z m 40.223579,-1.68693 -4.5,-1.21746 2.89277,-1.53711 c 1.88297,-1.00054 2.48426,-1.78958 1.72252,-2.26036 -1.30764,-0.80816 -7.23939,2.30103 -7.84265,4.11081 -0.43921,1.31762 2.36539,2.02788 8.22736,2.08358 l 4,0.038 -4.5,-1.21747 z m -40.238349,-1.27326 c -0.95609,-0.25029 -2.75609,-0.25937 -4,-0.0202 -1.24391,0.23919 -0.46166,0.44398 1.73834,0.45508 2.2,0.0111 3.21775,-0.18461 2.26166,-0.4349 z m 33.238339,-3.93095 c 0,-0.825 -0.45,-1.22189 -1,-0.88197 -0.55,0.33992 -1,1.29303 -1,2.11803 0,0.825 0.45,1.22189 1,0.88197 0.55,-0.33992 1,-1.29303 1,-2.11803 z m -40.270829,0.0139 c -0.3323,-0.33229 -1.1948,-0.36781 -1.91667,-0.0789 -0.79773,0.31922 -0.56078,0.55618 0.60417,0.60416 1.05416,0.0434 1.64479,-0.19293 1.3125,-0.52522 z m 37.058899,-0.64583 c 1.63369,-1.97696 2.54661,-8.42512 1.30174,-9.1945 -0.70971,-0.43866 -1.08981,0.58832 -1.08981,2.94446 0,2.19609 -0.399429,3.37118 -1.016309,2.98992 -0.55897,-0.34546 -0.75742,-1.04702 -0.44098,-1.55902 0.31643,-0.51199 0.0988,-0.9309 -0.48369,-0.9309 -0.58246,0 -1.05902,1.575 -1.05902,3.5 0,3.61744 0.9947,4.42018 2.788069,2.25 z m 9.23931,-4.12262 c -0.69318,-0.69318 -1.47318,-0.39996 -2.43495,0.91534 -1.94041,2.65367 -0.83511,3.98688 1.53048,1.84605 1.30791,-1.18364 1.59765,-2.06822 0.90447,-2.76139 z m -37.027379,0.87258 c -1.375,-0.78602 -2.95,-1.42913 -3.5,-1.42913 -0.55,0 0.125,0.64311 1.5,1.42913 1.375,0.78602 2.95,1.42913 3.5,1.42913 0.55,0 -0.125,-0.64311 -1.5,-1.42913 z m 22.89043,-8.75 -0.10956,-6.25 -0.8801,4.4949 c -0.79349,4.05259 -0.46435,8.0051 0.66662,8.0051 0.23793,0 0.38331,-2.8125 0.32304,-6.25 z m 2.7989,-0.5 c -0.25153,-0.9625 -0.45733,-0.175 -0.45733,1.75 0,1.925 0.2058,2.7125 0.45733,1.75 0.25152,-0.9625 0.25152,-2.5375 0,-3.5 z m 10.239809,-1.75 c 0,-0.55 -0.64311,0.125 -1.42913,1.5 -0.78602,1.375 -1.42913,2.95 -1.42913,3.5 0,0.55 0.64311,-0.125 1.42913,-1.5 0.78602,-1.375 1.42913,-2.95 1.42913,-3.5 z m -21.929139,0.5 c -0.5887,-1.1 -1.29537,-2 -1.57037,-2 -0.275,0 -0.0183,0.9 0.57037,2 0.5887,1.1 1.29537,2 1.57037,2 0.275,0 0.0183,-0.9 -0.57037,-2 z m 6.68311,-1.1875 c -0.31922,-0.79773 -0.55618,-0.56078 -0.60416,0.60417 -0.0434,1.05416 0.19292,1.64479 0.52522,1.3125 0.33229,-0.3323 0.36781,-1.1948 0.0789,-1.91667 z m 8.999999,0 c -0.31922,-0.79773 -0.55618,-0.56078 -0.60416,0.60417 -0.0434,1.05416 0.19292,1.64479 0.52522,1.3125 0.33229,-0.3323 0.36781,-1.1948 0.0789,-1.91667 z m 17.8169,-0.8125 c 0.99548,-1.1 1.58498,-2 1.30997,-2 -0.275,0 -1.31449,0.9 -2.30997,2 -0.99549,1.1 -1.58498,2 -1.30998,2 0.275,0 1.31449,-0.9 2.30998,-2 z m -21.816899,-2.1875 c -0.31922,-0.79773 -0.55618,-0.56078 -0.60416,0.60417 -0.0434,1.05416 0.19292,1.64479 0.52522,1.3125 0.33229,-0.3323 0.36781,-1.1948 0.0789,-1.91667 z m 4.009879,-13.54347 c -0.25354,-0.97297 -0.47766,-0.41903 -0.49804,1.23097 -0.0204,1.65 0.18706,2.44606 0.46099,1.76903 0.27392,-0.67703 0.29059,-2.02703 0.0371,-3 z M 79.406901,236.5919 c -1.06752,-0.6767 -1.00723,-0.97085 0.30194,-1.47323 0.89968,-0.34524 1.38461,-0.2213 1.07762,0.27542 -0.307,0.49673 0.007,1.13105 0.69806,1.4096 0.69093,0.27856 0.80623,0.5351 0.25623,0.5701 -0.55,0.035 -1.60023,-0.31685 -2.33385,-0.78189 z M 53.679105,200.98204 c -19.766095,-19.5173 -38.975942,-38.3048 -42.688549,-41.75 -3.7126055,-3.44519 -6.7501055,-7.06561 -6.7499995,-8.04537 2.76e-4,-2.52213 2.683533,-3.2375 6.0348585,-1.60893 2.641942,1.28385 20.450635,20.26048 32.273728,34.39031 4.4222,5.28499 21.045038,23.1557 36.741818,39.5 5.96407,6.2101 4.91237,4.55307 -3.17343,-5 -3.02592,-3.575 -6.37356,-7.69152 -7.43922,-9.14783 -2.02009,-2.76061 -16.337002,-20.50744 -20.049021,-24.85217 -10.218733,-11.96052 -25.587116,-29.42289 -29.482862,-33.5 -5.349221,-5.59824 -6.875043,-9.45061 -4.517951,-11.40682 2.328313,-1.93233 5.153686,-0.45397 8.993022,4.70555 1.924091,2.5857 5.087264,6.72627 7.029274,9.20127 4.446775,5.6672 13.7645,18.29896 19.429645,26.34019 2.386816,3.38789 9.829763,13.58481 16.539883,22.65981 20.20753,27.32939 24.77443,34 23.27742,34 -0.15415,0 -16.45252,-15.9687 -36.218616,-35.48601 z"
         id="path438"
         inkscape:connector-curvature="0" />
    </g>
  </g>
</svg>
