<?xml version="1.0" encoding="UTF-8" standalone="no"?>
<!-- Created with Inkscape (http://www.inkscape.org/) -->

<svg
   xmlns:dc="http://purl.org/dc/elements/1.1/"
   xmlns:cc="http://creativecommons.org/ns#"
   xmlns:rdf="http://www.w3.org/1999/02/22-rdf-syntax-ns#"
   xmlns:svg="http://www.w3.org/2000/svg"
   xmlns="http://www.w3.org/2000/svg"
   xmlns:sodipodi="http://sodipodi.sourceforge.net/DTD/sodipodi-0.dtd"
   xmlns:inkscape="http://www.inkscape.org/namespaces/inkscape"
   version="1.1"
   id="svg2949"
   width="283"
   height="443"
   viewBox="0 0 283 443"
   sodipodi:docname="feu148.svg"
   inkscape:version="0.92.4 (5da689c313, 2019-01-14)">
  <metadata
     id="metadata2955">
    <rdf:RDF>
      <cc:Work
         rdf:about="">
        <dc:format>image/svg+xml</dc:format>
        <dc:type
           rdf:resource="http://purl.org/dc/dcmitype/StillImage" />
        <dc:title></dc:title>
      </cc:Work>
    </rdf:RDF>
  </metadata>
  <defs
     id="defs2953" />
  <sodipodi:namedview
     pagecolor="#ffffff"
     bordercolor="#666666"
     borderopacity="1"
     objecttolerance="10"
     gridtolerance="10"
     guidetolerance="10"
     inkscape:pageopacity="0"
     inkscape:pageshadow="2"
     inkscape:window-width="1280"
     inkscape:window-height="972"
     id="namedview2951"
     showgrid="false"
     inkscape:zoom="1.5067919"
     inkscape:cx="129.71757"
     inkscape:cy="224.72047"
     inkscape:window-x="-8"
     inkscape:window-y="-8"
     inkscape:window-maximized="1"
     inkscape:current-layer="g928"
     showguides="true" />
  <g
     id="g151"
     transform="translate(25.882805,-2.654647)">
    <g
       id="g534"
       transform="translate(-21.900834,-45.792654)">
      <g
         id="g928"
         transform="translate(-3.9819699,-1.3273232)">
        <g
           id="g1348"
           transform="translate(13.936894,-19.90985)">
          <path
             style="fill:#00ffff"
             d="m 123.84625,378.52471 c -1.402,-1.66619 -2.85705,-4.67097 -3.23344,-6.67728 -0.59395,-3.16602 -0.32766,-3.95466 2.01597,-5.97057 1.95826,-1.68442 3.9341,-2.32271 7.19001,-2.32271 5.96647,0 9.39878,3.21675 9.39878,8.80852 0,8.6722 -9.91474,12.64681 -15.37132,6.16204 z M 95.512523,376.0491 c -2.23449,-2.23449 -3.28572,-4.07661 -2.9,-5.08179 0.33278,-0.8672 0.60505,-2.46039 0.60505,-3.5404 0,-3.05509 4.44617,-6.87276 8.004207,-6.87276 7.40607,0 11.79649,5.51624 9.88895,12.42476 -2.03754,7.37936 -9.76755,8.90085 -15.598207,3.07019 z m 56.586527,1.02548 c -3.49521,-1.93083 -6.207,-7.76186 -5.37386,-11.55512 1.46822,-6.68477 10.01091,-9.17406 14.85602,-4.32895 3.55807,3.55808 3.76082,10.96542 0.38636,14.1152 -3.05411,2.85075 -6.72048,3.50793 -9.86852,1.76887 z m -80.106336,-7.07923 c -3.52109,-1.91083 -4.775141,-4.35812 -4.775141,-9.31875 0,-3.00543 0.554632,-4.39752 2.215544,-5.56087 7.361417,-5.15614 15.784456,-1.46292 15.784456,6.92095 0,3.61829 -0.511451,4.77004 -3.076725,6.92858 -3.465426,2.91596 -6.167598,3.19025 -10.148134,1.03009 z m 102.617566,-1.59802 c -3.55203,-1.72175 -5.61271,-7.31244 -4.38114,-11.88615 0.91998,-3.41655 1.55447,-4.03236 5.15308,-5.00137 5.4873,-1.47757 8.49796,-0.55708 10.86263,3.32118 2.81919,4.62371 2.52078,8.32895 -0.95036,11.80008 -3.07201,3.07202 -6.73958,3.67832 -10.68421,1.76626 z M 49.217573,355.265 c -2.974834,-1.49892 -5.597967,-8.19222 -4.665924,-11.90578 0.818453,-3.26097 6.72831,-6.25403 10.500679,-5.31808 4.609879,1.14375 7.165245,4.36817 7.165245,9.0413 0,7.6063 -6.288329,11.56434 -13,8.18256 z m 148.364077,-1.88044 c -4.86371,-2.35505 -5.9588,-11.44797 -1.83859,-15.26645 7.1313,-6.60906 16.89447,-0.94654 15.07648,8.74417 -1.2448,6.63538 -7.07346,9.50715 -13.23789,6.52228 z M 31.95373,337.30415 c -3.709836,-2.81714 -4.931134,-11.40164 -1.986157,-13.9607 5.965122,-5.18345 16.25,-1.0215 16.25,6.57584 0,5.28174 -3.254716,8.63486 -8.381451,8.63486 -2.329959,0 -4.977036,-0.5625 -5.882392,-1.25 z m 89.27501,-2.22062 c -0.97807,-2.57251 0.068,-34.80861 1.47739,-45.52938 0.97457,-7.41308 1.42577,-25.46117 0.575,-23 l -0.8642,2.5 -0.0997,-2.36602 c -0.059,-1.40136 -6.59947,10.58804 -16.04165,29.40626 -8.768087,17.47475 -16.639867,32.47018 -17.492857,33.32316 -1.096152,1.09615 -1.862871,1.2389 -2.614926,0.48684 -1.055974,-1.05597 8.828906,-21.45623 19.562233,-40.37224 8.4328,-14.86163 5.17698,-10.97996 -10.503017,12.522 -10.690325,16.02318 -14.789915,21.5 -16.093489,21.5 -2.376119,0 -0.270437,-4.60524 6.89548,-15.08078 4.296319,-6.28057 10.740529,-15.69422 14.320496,-20.91922 7.48845,-10.92949 8.15865,-12 7.51269,-12 -0.26038,0 -3.9082,4.1625 -8.106257,9.25 -23.429534,28.39354 -29.53836,34.66309 -29.53836,30.31551 0,-1.84387 10.103213,-14.55498 19.8355,-24.95553 14.161837,-15.13427 12.710477,-14.10533 -5.169883,3.66519 -9.80891,9.74866 -18.24641,17.72483 -18.75,17.72483 -0.503589,0 -0.915617,-0.98514 -0.915617,-2.18919 0,-2.13129 6.106258,-8.59284 25,-26.45463 4.125,-3.8997 10.199997,-9.90875 13.499997,-13.35344 l 6,-6.26308 -7.60902,6.38017 c -4.184957,3.50909 -13.409957,11.71433 -20.499995,18.23387 -16.473885,15.1483 -23.390982,19.64631 -23.390982,15.21054 0,-1.52874 5.419996,-6.08378 29.75,-25.00234 8.3875,-6.52197 15.249997,-12.0323 15.249997,-12.24519 0,-0.9972 -5.482897,2.5056 -33.724405,21.54515 -10.013801,6.75099 -15.854893,9.62786 -16.716735,8.23337 -0.922107,-1.492 2.582672,-4.62212 10.441143,-9.32499 4.125,-2.4686 11.325,-6.86639 16,-9.77287 4.675,-2.90649 10.975,-6.76221 14,-8.56827 3.025,-1.80606 6.4,-3.99018 7.499997,-4.85361 1.86214,-1.46165 1.79321,-1.47923 -0.999997,-0.25507 -1.65,0.72314 -12.225,5.84601 -23.5,11.38416 -20.655818,10.1459 -27.611501,13.01725 -28.757478,11.87128 -0.342911,-0.34292 0.02474,-1.21608 0.817002,-1.94037 1.45229,-1.32769 32.664337,-15.92064 45.202156,-21.13392 3.71893,-1.54635 6.617817,-2.95541 6.44198,-3.13125 -0.17585,-0.17584 -9.5186,2.86297 -20.761687,6.75292 -11.243085,3.88995 -23.211345,7.76825 -26.596133,8.61846 -5.979981,1.50208 -10.657786,1.13367 -8.763057,-0.69016 0.504469,-0.48559 12.842217,-4.56142 27.417217,-9.05739 14.575,-4.49597 27.625,-8.5832 28.999997,-9.08274 2.37553,-0.86302 2.35064,-0.89027 -0.499997,-0.54733 -1.65,0.1985 -9.975,1.79333 -18.5,3.54408 -26.560765,5.45469 -40,6.7967 -40,3.99431 0,-1.04066 2.032822,-1.5002 12.5,-2.82573 9.305713,-1.17845 43.50215,-6.53234 51.423727,-8.05104 6.88074,-1.31916 8.08781,-2.44057 1.82627,-1.69668 -4.45947,0.5298 -6.81917,-0.71268 -3,-1.57962 0.9625,-0.21848 -6.349997,-0.70656 -16.249997,-1.08462 -42.031724,-1.6051 -47.055977,-1.87654 -48.372705,-2.61342 -1.018532,-0.57 -1.074712,-0.96582 -0.212693,-1.49858 1.27323,-0.7869 22.032295,-0.83616 34.085398,-0.0809 l 7.5,0.46997 -11,-2.84698 c -6.05,-1.56582 -14.479228,-3.80274 -18.731617,-4.97091 -4.252389,-1.16818 -8.613331,-2.12396 -9.690983,-2.12396 -2.598518,0 -3.650098,-1.843 -1.518334,-2.66104 1.902886,-0.73021 6.991211,0.36331 40.831449,8.77492 13.139785,3.26613 24.073582,5.75535 24.297342,5.53159 0.22376,-0.22375 -2.87698,-1.18992 -6.890517,-2.14703 -4.01353,-0.95711 -9.99734,-2.77408 -13.29734,-4.03772 -3.3,-1.26364 -13.65,-4.87194 -23,-8.01843 -19.881068,-6.69046 -21.109418,-7.23287 -19.660635,-8.68165 1.363133,-1.36314 9.983949,1.00065 24.660635,6.76184 20.390539,8.0041 34.134847,12.55487 35.887347,11.88237 1.84738,-0.7089 0.62573,-1.64549 -9.387347,-7.19693 -2.475,-1.37219 -6.75,-3.94883 -9.5,-5.72588 -5.178839,-3.34655 -25.173952,-14.49353 -31.75,-17.70014 -3.728182,-1.81794 -5.120025,-4.7819 -2.245526,-4.7819 0.82746,0 7.23996,3.53196 14.25,7.84881 7.010039,4.31684 15.220526,9.35304 18.245526,11.19155 3.025,1.83851 8.425,5.21594 12,7.50539 8.907917,5.7047 14.877547,8.64796 16.059067,7.91774 0.54477,-0.33668 0.86683,-0.0269 0.71571,0.68844 -0.1558,0.73744 0.8077,1.43458 2.22522,1.61004 2.39186,0.29607 2.34861,0.1728 -1,-2.85006 -16.050917,-14.48945 -22.535757,-20.44222 -29.477414,-27.05882 -4.412421,-4.2058 -9.597583,-8.89809 -11.522583,-10.42731 -9.591734,-7.61968 -14.265644,-13.45094 -10.75,-13.4119 1.861808,0.0207 15.170913,12.07894 50.480447,45.73612 7.49987,7.1489 -0.40494,-2.81164 -20.230447,-25.49163 -6.05,-6.92108 -13.8125,-15.69601 -17.25,-19.49986 -6.075214,-6.72266 -7.614503,-9.75851 -4.947925,-9.75851 1.551072,0 14.868115,15.09534 22.659865,25.68576 3.04593,4.13998 7.48348,9.61681 9.861217,12.17074 l 4.32316,4.6435 -3.52696,-5.6972 c -1.939827,-3.13346 -5.942087,-8.98346 -8.893907,-13 -10.670675,-14.51956 -18.320879,-27.31677 -16.867143,-28.21523 1.743607,-1.07761 9.149635,9.19362 24.09584,33.41789 5.09895,8.26418 6.34116,10.03257 6.75602,9.61771 0.60392,-0.60393 -7.060357,-14.84616 -13.788787,-25.62317 -7.211153,-11.55018 -11.180166,-19.89006 -10.406556,-21.86674 0.533099,-1.36214 1.027107,-1.15049 2.97594,1.27499 3.649116,4.54162 26.820623,50.98795 25.634503,51.38333 -0.60083,0.20027 0.071,2.05906 1.55463,4.3009 2.81208,4.24934 4.01137,4.64222 2.40157,0.78675 -0.54638,-1.30858 -3.45705,-8.67923 -6.46816,-16.37923 -3.01112,-7.7 -8.20593,-20.52288 -11.544027,-28.49528 -5.74143,-13.71227 -7.18722,-19.00472 -5.19172,-19.00472 1.68371,0 2.84348,2.67635 12.657587,29.20942 5.43364,14.69018 10.04326,26.5455 10.24361,26.34515 0.33874,-0.33874 -4.17073,-17.29438 -7.32833,-27.55457 -5.33432,-17.33313 -7.859517,-32 -5.50945,-32 1.51459,0 1.80303,0.88656 6.05414,18.60861 4.97827,20.75339 12.828,51.17295 12.92989,50.10635 0.0412,-0.43178 -1.99691,-11.90678 -4.52923,-25.5 -5.17277,-27.76686 -6.69681,-44.21496 -4.09686,-44.21496 2.137,0 2.43602,1.41633 3.69464,17.5 0.60257,7.7 1.49178,16.475 1.97603,19.5 0.48424,3.025 1.13778,8.48254 1.45229,12.12787 0.31452,3.64533 1.29133,10.10693 2.1707,14.35911 0.87937,4.25219 1.39319,8.80715 1.14181,10.12213 -0.25138,1.31499 -0.0221,2.39089 0.50957,2.39089 0.99551,0 0.6932,-11.60272 -1.38957,-53.33236 -0.82246,-16.47847 -0.80539,-22.11664 0.0696,-22.99164 2.04104,-2.04104 2.86905,1.08083 3.5117,13.2402 0.33673,6.37109 0.80714,14.9588 1.04536,19.0838 0.23823,4.125 0.48797,10.65 0.55499,14.5 0.067,3.85 0.29102,6.55 0.4978,6 0.61849,-1.64514 4.66296,-34.32322 5.41808,-43.7765 0.70205,-8.78883 1.8243,-11.59786 4.07725,-10.20547 1.66675,1.03011 0.71876,9.77683 -6.15968,56.83268 -1.27175,8.70008 -0.66815,9.49862 1.03317,1.36687 1.99952,-9.55706 12.70896,-48.85231 14.44924,-53.01738 0.85032,-2.03511 1.97085,-3.7002 2.49007,-3.7002 2.19943,0 1.85412,3.6193 -1.49769,15.69762 -1.954,7.04131 -4.19972,15.50238 -4.99048,18.80238 -0.79076,3.3 -2.32537,8.88099 -3.41025,12.40219 -1.08488,3.52121 -1.84328,6.53142 -1.68535,6.68936 0.15794,0.15793 1.60341,-2.49805 3.21215,-5.9022 7.1805,-15.1941 17.93068,-36.42882 19.71324,-38.93935 1.07392,-1.5125 2.37195,-2.75 2.88449,-2.75 2.13835,0 0.5705,4.66083 -5.46084,16.23368 -15.89794,30.50476 -23.2965,45.76632 -22.18679,45.76632 0.17029,0 2.45305,-3.7125 5.07279,-8.25 6.62987,-11.48317 21.0962,-35.18285 25.38368,-41.58516 4.06645,-6.07228 6.8231,-8.11014 7.73968,-5.72158 0.35767,0.93208 -2.8706,6.8153 -8.26484,15.06189 -11.48505,17.5581 -26.72588,41.11053 -29.27805,45.24485 -5.35194,8.66977 1.81157,-0.60325 14.53668,-18.81741 21.72687,-31.09888 27.97312,-38.68241 30.10513,-36.5504 0.45212,0.45212 -4.23251,7.32108 -8.94634,13.11781 -1.00454,1.23532 -16.57761,22.43332 -17.99887,24.5 -1.67069,2.42937 17.16081,-16.91043 24.12528,-24.77648 6.53022,-7.37558 8.10441,-8.46439 8.10441,-5.60554 0,1.85246 -2.14734,4.43469 -16.9494,20.38202 -5.87076,6.325 -12.6479,13.75 -15.06032,16.5 -2.41242,2.75 -7.10963,7.91532 -10.43825,11.4785 -5.30618,5.68009 -4.94287,5.43739 2.94797,-1.96932 4.95,-4.6463 10.575,-9.88385 12.5,-11.639 1.925,-1.75515 7.70171,-7.16135 12.83713,-12.01377 13.93928,-13.17114 22.16287,-18.89672 22.16287,-15.43064 0,0.87739 -10.2574,10.223 -22.03275,20.07423 -5.51377,4.61281 -18.0692,16.5276 -14.46725,13.72906 2.21379,-1.72001 7.17343,-5.14062 25,-17.24227 12.00553,-8.15 17.52297,-10.75645 17.47633,-8.25584 -0.0419,2.24962 -48.01759,33.01063 -50.77018,32.55282 -0.93838,-0.15608 -1.59694,0.26887 -1.46345,0.94433 0.13348,0.67545 -1.02429,1.88328 -2.57283,2.68406 -1.54855,0.80078 -3.45776,2.23018 -4.2427,3.17643 -1.34074,1.61628 -1.24549,1.62631 1.57283,0.16576 1.65,-0.85509 6.35431,-3.62463 10.45402,-6.15453 4.0997,-2.5299 7.82115,-4.59982 8.26987,-4.59982 0.44872,0 2.65518,-1.16112 4.90325,-2.58026 11.42586,-7.21283 36.62312,-20.00282 37.56045,-19.06548 0.37349,0.37349 0.23727,1.12088 -0.30272,1.66087 -1.40921,1.40921 -22.1742,13.26374 -33.6555,19.2136 -5.37384,2.78484 -9.60576,5.22822 -9.40425,5.42972 0.33489,0.33489 20.07448,-7.72309 27.17488,-11.09317 11.64273,-5.52601 20.5,-7.9612 20.5,-5.6362 0,1.38101 -8.32442,5.24346 -30.26811,14.04412 -8.67246,3.47815 -15.56412,6.52791 -15.31478,6.77724 0.24933,0.24933 2.61998,-0.25614 5.26811,-1.12326 2.64813,-0.86712 10.21478,-3.00136 16.81478,-4.74275 6.6,-1.74139 14.925,-3.93789 18.5,-4.88112 4.63773,-1.22361 6.884,-1.4132 7.8403,-0.66174 2.42816,1.90804 -0.97431,3.10302 -27.31924,9.59481 -14.08431,3.47059 -25.44963,6.46839 -25.25624,6.66177 0.19338,0.19338 4.3754,-0.0644 9.29339,-0.57293 28.74173,-2.97173 43.67982,-4.14754 45.20868,-3.55848 3.353,1.29189 -0.98586,2.34867 -16.79673,4.09105 -8.50859,0.93765 -20.42016,2.49404 -26.47016,3.45863 l -11,1.7538 6.5,0.21467 c 3.575,0.11808 15.57569,0.50728 26.6682,0.8649 11.09251,0.35761 20.52948,1.01218 20.97104,1.45458 1.35939,1.36199 -1.26245,2.22975 -6.31621,2.0905 -20.49596,-0.56474 -58.14666,-1.06028 -55.32303,-0.72814 6.43483,0.75693 30.81293,4.21873 44.5,6.3192 12.20819,1.87351 17.93166,3.99024 15.99164,5.91423 -0.65048,0.6451 -6.84032,0.0227 -17.99164,-1.80911 -27.72488,-4.55431 -32.65172,-5.27266 -33.09851,-4.82587 -0.23364,0.23364 9.14294,2.76798 20.83685,5.63186 22.01485,5.39153 27.76166,7.26589 27.76166,9.05469 0,1.60061 -2.76039,1.27952 -12.54323,-1.45906 -4.92622,-1.37903 -11.65677,-3.23002 -14.95677,-4.11332 -3.3,-0.8833 -7.31047,-2.00703 -8.91216,-2.49718 -10.36703,-3.17255 7.74848,4.79804 23.08409,10.1567 7.13261,2.49231 9.32807,3.78593 9.32807,5.49631 0,1.87012 -1.35092,1.85183 -5.06454,-0.0685 -1.63087,-0.84336 -6.87901,-2.91478 -11.66254,-4.60315 -4.78353,-1.68838 -13.17162,-5.05357 -18.6402,-7.47821 -5.46859,-2.42464 -10.09835,-4.25297 -10.28837,-4.06295 -0.19002,0.19001 3.59227,2.2306 8.40508,4.53464 16.03928,7.67848 32.5862,16.72803 33.63917,18.39732 0.57236,0.90739 0.72334,1.96711 0.33551,2.35494 -0.38783,0.38783 -11.05941,-4.51249 -23.71463,-10.8896 -12.65521,-6.37716 -23.00948,-11.44917 -23.00948,-11.2712 0,0.17798 3.2625,2.24533 7.25,4.59411 23.29103,13.71927 39.6488,25.95742 34.69523,25.95742 -1.03425,0 -11.01215,-5.79164 -15.94523,-9.25535 -9.56474,-6.71578 -19.26725,-12.8141 -18.07935,-11.36341 0.78136,0.95421 5.50636,4.80898 10.5,8.56616 10.73228,8.07489 18.57935,15.49448 18.57935,17.56723 0,0.81696 -0.3872,1.48537 -0.86045,1.48537 -1.19828,0 -8.3202,-4.78487 -10.15095,-6.81993 -0.83128,-0.92404 -3.68832,-3.4342 -6.34899,-5.57813 -2.66066,-2.14393 -5.58053,-4.64016 -6.48859,-5.54718 -1.8903,-1.88813 -11.84889,-10.36714 -20.65102,-17.58282 -5.58112,-4.57521 10.02786,11.23096 29.89647,30.27416 7.81608,7.49137 9.94392,10.26751 7.85353,10.24629 -0.4125,-0.004 -6.375,-5.45787 -13.25,-12.11929 -29.92397,-28.99436 -33.29661,-32.18645 -30.50619,-28.8731 1.62119,1.925 3.63579,4.17569 4.4769,5.00154 0.84111,0.82584 5.35429,5.80197 10.02929,11.05805 24.24828,27.26225 26.28134,29.94041 22.7285,29.94041 -1.34742,0 -9.74483,-9.03399 -21.26099,-22.87272 -11.53112,-13.85671 -11.93951,-14.12787 -3.27205,-2.17257 13.4146,18.50316 20.23105,31.04529 16.87263,31.04529 -0.90644,0 -5.06809,-5.23782 -5.06809,-6.37866 0,-0.31346 -5.4,-8.63787 -12,-18.49868 -6.6,-9.86082 -12,-18.22741 -12,-18.59243 0,-0.63917 -4.4228,-6.97379 -6.30486,-9.03023 -0.50337,-0.55 0.031,0.88801 1.18739,3.19558 1.30259,2.59923 1.72013,4.43195 1.0974,4.81682 -0.55285,0.34168 -1.86771,-1.32133 -2.92192,-3.69558 -3.16786,-7.13457 -2.29749,-2.91307 1.27624,6.19006 1.83384,4.67121 4.81902,12.99312 6.63373,18.49312 1.8147,5.5 3.624,10.45 4.02065,11 0.39665,0.55 1.20384,2.35 1.79375,4 0.58992,1.65 2.00521,5.46865 3.1451,8.48588 2.21759,5.86988 2.676,10.01412 1.1077,10.01412 -1.44231,0 -2.43689,-2.29571 -6.93171,-16 -2.25491,-6.875 -5.04114,-15.2 -6.19162,-18.5 -1.15047,-3.3 -3.21778,-9.52101 -4.59401,-13.82447 -1.37623,-4.30345 -2.68323,-7.64347 -2.90445,-7.42226 -0.22121,0.22122 1.18162,6.89223 3.11741,14.82447 1.93578,7.93224 4.85827,19.91757 6.4944,26.63406 3.11217,12.77572 3.69204,18.2882 1.92377,18.2882 -1.63332,0 -3.55633,-5.54483 -5.89578,-17 -2.80631,-13.74116 -7.2441,-31.14242 -7.8003,-30.58622 -0.24136,0.24136 0.0449,4.4095 0.63614,9.26253 3.27343,26.86895 3.93419,39.32369 2.08622,39.32369 -1.81649,0 -2.65489,-4.15551 -4.43864,-22 -2.78438,-27.85465 -3.29656,-28.74217 -3.46254,-6 -0.15463,21.18817 -0.63675,27.84514 -2.13016,29.41284 -0.50917,0.53449 -1.31024,-0.24616 -1.93274,-1.88346 z m 8.98883,-68.96595 c 0,-0.7252 -0.675,-1.87874 -1.5,-2.56343 -1.22294,-1.01495 -1.5,-0.96032 -1.5,0.29577 0,2.49568 1.13924,4.73621 2.10478,4.13947 0.49237,-0.3043 0.89522,-1.14662 0.89522,-1.87181 z m 23.5,-0.56343 c -0.33992,-0.55 -1.15398,-0.99311 -1.80902,-0.98469 -0.71561,0.009 -0.59227,0.40223 0.30902,0.98469 1.92112,1.24153 2.2673,1.24153 1.5,0 z m -4.5,-2.39301 c 0,-0.21616 -0.69837,-0.661 -1.55194,-0.98855 -0.88992,-0.34149 -1.29132,-0.17385 -0.94098,0.39301 0.58726,0.95021 2.49292,1.40545 2.49292,0.59554 z m 9.72917,-6.21116 c -0.3323,-0.33229 -1.1948,-0.36781 -1.91667,-0.0789 -0.79773,0.31922 -0.56078,0.55618 0.60417,0.60416 1.05416,0.0434 1.64479,-0.19293 1.3125,-0.52522 z m -50,-10 c -0.3323,-0.33229 -1.1948,-0.36781 -1.91667,-0.0789 -0.79773,0.31922 -0.56078,0.55618 0.60417,0.60416 1.05416,0.0434 1.64479,-0.19293 1.3125,-0.52522 z m 47,-3 c -0.3323,-0.33229 -1.1948,-0.36781 -1.91667,-0.0789 -0.79773,0.31922 -0.56078,0.55618 0.60417,0.60416 1.05416,0.0434 1.64479,-0.19293 1.3125,-0.52522 z m -17.72917,-1.39583 c 1.29269,-0.8354 1.26629,-0.97149 -0.19098,-0.98469 -0.93004,-0.008 -1.9691,0.43469 -2.30902,0.98469 -0.78218,1.2656 0.54163,1.2656 2.5,0 z m -19.31689,-10.1875 c -0.31922,-0.79773 -0.55618,-0.56078 -0.60416,0.60417 -0.0434,1.05416 0.19292,1.64479 0.52522,1.3125 0.33229,-0.3323 0.36781,-1.1948 0.0789,-1.91667 z m -2.10867,-6.39981 c -0.78843,-2.15198 -1.46522,-3.41734 -1.50398,-2.81191 -0.0979,1.52987 2.07342,7.58867 2.54914,7.11296 0.21359,-0.2136 -0.25673,-2.14907 -1.04516,-4.30105 z m -6.13169,108.2987 c -0.75252,-1.96103 1.74246,-17.09602 6.95848,-42.21139 1.37071,-6.6 2.80114,-14.37753 3.17874,-17.2834 0.37761,-2.90588 0.90749,-5.06247 1.17753,-4.79243 0.60867,0.60866 -1.43518,20.96138 -3.32152,33.07583 -0.77077,4.95 -1.87424,13.25668 -2.45216,18.45928 -0.57792,5.20261 -1.30949,10.49011 -1.6257,11.75 -0.61968,2.46901 -3.10808,3.1059 -3.91537,1.00211 z m -11.778347,-0.46139 c -0.47183,-0.78008 6.598147,-24.65563 10.142037,-34.25 1.11735,-3.025 3.54783,-9.64233 5.40107,-14.70518 1.85324,-5.06285 3.62395,-9.45961 3.93491,-9.77058 0.72924,-0.72924 -0.61573,7.78468 -2.13745,13.53045 -2.09482,7.90969 -11.70394,38.33407 -13.3268,42.19531 -1.49054,3.5464 -3.000607,4.67507 -4.013767,3 z m 114.258677,-2.17308 c -3.31191,-3.31191 -3.81529,-7.45091 -1.46007,-12.0054 1.70636,-3.29973 3.31075,-4.07152 8.46379,-4.07152 4.21592,0 6.66344,2.03839 7.93936,6.61221 2.75129,9.86258 -7.83807,16.56972 -14.94308,9.46471 z m -59.32502,-20.32692 c -10.65769,-22.0353 -14.59806,-30.66968 -14.59806,-31.98816 0,-2.14191 1.88188,0.63257 6.29079,9.27464 2.3748,4.65494 7.32962,14.31352 11.01071,21.46352 3.68109,7.15 6.69415,13.7875 6.69569,14.75 0.007,4.33348 -2.55002,0.66089 -9.39913,-13.5 z m -138.296705,5.47776 c -2.354,-1.84984 -4.301352,-6.09183 -4.301352,-9.36978 0,-1.10651 1.315385,-3.32721 2.923077,-4.9349 3.517584,-3.51759 8.039042,-3.85329 12.800086,-0.95036 5.09507,3.10659 5.583163,8.82554 1.225985,14.3648 -1.678337,2.13366 -2.924026,2.65806 -6.271728,2.64024 -2.413025,-0.0128 -5.106052,-0.75198 -6.376068,-1.75 z m 210.521385,-4.97776 c -3.33613,-3.59574 -4.03288,-6.81129 -2.3491,-10.84115 1.41591,-3.38876 5.88861,-6.40885 9.49139,-6.40885 1.13539,0 3.72273,1.5198 5.74966,3.37734 2.99129,2.74131 3.68531,4.08342 3.68531,7.1267 0,8.24306 -11.02549,12.72978 -16.57726,6.74596 z M 3.440837,294.88296 c -1.500625,-0.60331 -5.223264,-7.5687 -5.223264,-9.7732 0,-0.83823 1.267397,-2.94252 2.816437,-4.6762 2.345624,-2.62521 3.5466,-3.15214 7.184329,-3.15214 5.574627,0 8.999234,3.47871 8.999234,9.1414 0,6.60827 -7.273356,11.07475 -13.776736,8.46014 z m 238.276733,-6.33567 c -3.24137,-1.22699 -5.35961,-4.26298 -6.06884,-8.69826 -0.57689,-3.60771 -0.32656,-4.49038 1.90693,-6.72388 3.58525,-3.58525 10.68041,-3.64341 14.20736,-0.11645 2.64539,2.64538 3.31536,8.06849 1.43163,11.58827 -1.88932,3.53024 -7.49226,5.45872 -11.47708,3.95032 z M -2.9540315,266.09585 C -9.021906,260.4694 -6.96644,252.89054 1.097751,251.15623 c 5.233735,-1.12558 8.457544,0.21654 10.635147,4.42755 1.94238,3.75615 1.217369,8.20985 -1.793026,11.01446 -3.095307,2.88372 -9.511758,2.63371 -12.8939035,-0.50239 z M 244.40613,259.51519 c -1.20371,-1.12142 -2.18856,-2.13689 -2.18856,-2.2566 0,-0.1197 -0.42294,-1.69234 -0.93986,-3.49474 -0.83036,-2.89529 -0.59717,-3.6674 2.00149,-6.62711 5.03165,-5.73073 12.41934,-5.30348 15.35747,0.88816 2.28081,4.80647 1.96545,7.29855 -1.34218,10.60617 -3.63691,3.63691 -9.50175,4.03923 -12.88836,0.88412 z M 39.217573,254.1379 c 0,-1.23417 1.15882,-1.60064 5.25,-1.66026 2.8875,-0.0421 6.000907,-0.22189 6.918682,-0.39958 4.589626,-0.88859 45.176528,-1.52624 43.831318,-0.68862 -1.68646,1.0501 -26.415499,3.22551 -44.25,3.89266 -10.238952,0.38302 -11.75,0.23588 -11.75,-1.1442 z m 60,-13.58375 c -0.825,-0.53316 -1.05,-0.96937 -0.5,-0.96937 0.55,0 1.674997,0.43621 2.499997,0.96937 0.825,0.53316 1.05,0.96937 0.5,0.96937 -0.55,0 -1.675,-0.43621 -2.499997,-0.96937 z M 0.581655,239.38456 c -4.3671849,-2.11463 -5.9474637,-11.08749 -2.5018741,-14.20571 4.5314071,-4.10087 12.5573551,-3.44629 15.0590551,1.22818 4.329502,8.08975 -4.278655,16.98606 -12.557181,12.97753 z m 87.942768,-3.25059 c -3.925194,-1.8811 -12.593979,-5.71564 -19.263963,-8.52119 -16.973913,-7.13963 -25.042887,-11.04831 -25.042887,-12.13099 0,-1.15715 4.263939,-1.22469 5.55,-0.0879 0.5225,0.46185 2.525,1.43472 4.45,2.16193 4.918632,1.85812 41.29704,19.89629 42.45,21.04876 1.81245,1.81168 -0.96745,0.96827 -8.14315,-2.47059 z m 13.586947,-0.93376 c -2.416587,-1.84467 -5.438607,-3.68525 -6.715597,-4.09018 -1.27699,-0.40493 -4.78304,-2.74094 -7.791221,-5.19114 -3.008185,-2.4502 -6.238376,-5.08025 -7.178203,-5.84455 -4.143434,-3.36959 -11.35433,-8.51981 -19.458776,-13.89801 -7.936341,-5.26665 -10.845888,-8.62218 -7.476194,-8.62218 0.700593,0 5.763093,3.4875 11.25,7.75 5.486906,4.2625 12.451194,9.51532 15.476194,11.67293 3.025,2.15761 8.8887,6.65761 13.03045,10 4.14174,3.34239 9.091737,7.29344 10.999997,8.78011 1.90825,1.48668 3.19676,2.72418 2.86335,2.75 -0.33341,0.0258 -2.58341,-1.46231 -5,-3.30698 z m 142.0396,-0.91196 c -1.84931,-1.24625 -3.9658,-3.85135 -4.70332,-5.78911 -1.99637,-5.24528 -0.44766,-8.31458 5.30364,-10.51102 4.47962,-1.71078 4.79785,-1.71022 7.99994,0.0142 1.83411,0.98774 3.98471,3.13791 4.77911,4.77818 2.08382,4.30262 -0.40454,10.4962 -4.98611,12.4105 -4.25361,1.77727 -4.44725,1.75644 -8.39326,-0.90277 z M 7.932649,212.82201 C 0.99833,210.05624 0.612318,200.46986 7.296094,197.01355 c 7.031468,-3.63612 14.665019,1.71832 13.502831,9.47135 -0.92909,6.19801 -6.426442,8.90566 -12.866276,6.33711 z m 226.328581,-6.03142 c -2.04737,-1.65786 -2.44159,-2.87498 -2.48823,-7.68227 -0.0672,-6.92323 1.56236,-8.55417 8.54681,-8.55417 4.04294,0 5.09132,0.44132 7.30887,3.07673 3.5684,4.2408 3.19653,8.45849 -1.12699,12.782 -2.41719,2.41719 -9.45366,2.63432 -12.24046,0.37771 z M 19.407272,186.25608 c -4.510083,-4.80077 -3.76731,-11.36122 1.589945,-14.04301 8.386692,-4.19829 17.648335,7.83258 10.905905,14.16677 -3.238128,3.04206 -9.580728,2.97924 -12.49585,-0.12376 z m 206.810298,-2.42929 c -5.60605,-1.02028 -9.87591,-8.1242 -7.80338,-12.98273 2.2206,-5.20566 3.7781,-6.28991 9.03529,-6.28991 4.1067,0 5.40609,0.48416 7.84501,2.92308 1.69816,1.69815 2.92308,3.98872 2.92308,5.46607 0,4.30889 -3.06399,9.43751 -6.31541,10.57096 -1.64067,0.57194 -3.02839,0.97861 -3.08381,0.90371 -0.0554,-0.0749 -1.22578,-0.34093 -2.60078,-0.59118 z M 36.003839,169.00118 c -3.774696,-2.04875 -5.760048,-8.62142 -3.708343,-12.27679 1.98231,-3.53173 7.452199,-4.81123 12.159623,-2.84435 2.776983,1.1603 3.63515,2.18199 4.153475,4.94489 0.799229,4.26026 -0.511674,7.99989 -3.550409,10.12831 -2.805052,1.96473 -5.496502,1.97898 -9.054346,0.0479 z m 169.093091,-7.1398 c -4.12238,-1.73333 -5.80816,-4.04257 -5.84756,-8.01018 -0.0514,-5.1738 1.86374,-8.09174 6.46381,-9.84852 3.75859,-1.43542 4.57229,-1.447 7.7708,-0.11058 4.48977,1.87595 6.10856,4.8298 5.4279,9.9045 -0.98169,7.31899 -7.09752,10.88925 -13.81495,8.06478 z M 57.442647,151.5925 c -3.072956,-1.91351 -5.225074,-5.42552 -5.225074,-8.52672 0,-0.747 1.165002,-2.74271 2.588894,-4.43491 2.060929,-2.44927 3.369822,-3.07672 6.418212,-3.07672 5.270921,0 6.818337,0.76176 8.61838,4.24266 4.407189,8.52257 -4.321992,16.82606 -12.400412,11.79569 z m 125.030123,-5.15578 c -4.38459,-1.26622 -6.4533,-4.68238 -6.06669,-10.01824 0.26154,-3.60964 0.85638,-4.66509 3.70937,-6.58169 4.69508,-3.15407 8.58931,-2.9493 12.17904,0.64044 3.33244,3.33243 3.81375,7.45387 1.41273,12.09694 -2.44921,4.73625 -5.07862,5.64027 -11.23445,3.86255 z M 81.237281,140.2697 c -2.821774,-1.42775 -4.983265,-5.11698 -5.004966,-8.54247 -0.01841,-2.90544 5.110608,-8.17308 7.957995,-8.17308 2.958271,0 7.765063,2.64155 8.997623,4.94461 4.21334,7.87271 -3.8868,15.85105 -11.950652,11.77094 z m 75.716699,-2.35902 c -2.4937,-0.71889 -4.73641,-5.56063 -4.73641,-10.22531 0,-3.42667 0.45956,-4.25212 3.36803,-6.04966 3.9747,-2.4565 6.69781,-2.61599 10.56045,-0.61854 3.29349,1.70312 4.07984,3.3283 4.04928,8.36877 -0.0313,5.16304 -2.69109,8.22374 -7.53426,8.66988 -2.16893,0.1998 -4.73712,0.13448 -5.70709,-0.14514 z m -53.94923,-2.30249 c -6.708907,-5.29406 -3.358467,-17.05404 4.85874,-17.05404 2.96141,0 8.08298,3.10958 9.21552,5.59524 3.0542,6.70324 0.2222,12.0713 -6.86144,13.00583 -3.66274,0.48322 -5.00474,0.19538 -7.21282,-1.54703 z m 28.1948,-0.50447 c -1.3849,-0.75369 -3.32029,-3.18876 -4.30086,-5.41126 -1.65738,-3.75655 -1.66904,-4.261 -0.16556,-7.16839 1.84377,-3.56547 7.51192,-6.39701 10.80784,-5.39907 4.03697,1.2223 6.67754,4.53283 6.66295,8.35346 -0.0216,5.65902 -1.031,8.04742 -4.06379,9.61574 -3.46236,1.79045 -5.66381,1.7928 -8.94058,0.01 z"
             id="path1352"
             inkscape:connector-curvature="0" />
          <path
             style="fill:#ff00ff"
             d="m 123.84625,378.52471 c -1.402,-1.66619 -2.85705,-4.67097 -3.23344,-6.67728 -0.59395,-3.16602 -0.32766,-3.95466 2.01597,-5.97057 1.95826,-1.68442 3.9341,-2.32271 7.19001,-2.32271 5.96647,0 9.39878,3.21675 9.39878,8.80852 0,8.6722 -9.91474,12.64681 -15.37132,6.16204 z M 95.512523,376.0491 c -2.23449,-2.23449 -3.28572,-4.07661 -2.9,-5.08179 0.33278,-0.8672 0.60505,-2.46039 0.60505,-3.5404 0,-3.05509 4.44617,-6.87276 8.004207,-6.87276 7.40607,0 11.79649,5.51624 9.88895,12.42476 -2.03754,7.37936 -9.76755,8.90085 -15.598207,3.07019 z m 56.586527,1.02548 c -3.49521,-1.93083 -6.207,-7.76186 -5.37386,-11.55512 1.46822,-6.68477 10.01091,-9.17406 14.85602,-4.32895 3.55807,3.55808 3.76082,10.96542 0.38636,14.1152 -3.05411,2.85075 -6.72048,3.50793 -9.86852,1.76887 z m -80.106336,-7.07923 c -3.52109,-1.91083 -4.775141,-4.35812 -4.775141,-9.31875 0,-3.00543 0.554632,-4.39752 2.215544,-5.56087 7.361417,-5.15614 15.784456,-1.46292 15.784456,6.92095 0,3.61829 -0.511451,4.77004 -3.076725,6.92858 -3.465426,2.91596 -6.167598,3.19025 -10.148134,1.03009 z m 102.617566,-1.59802 c -3.55203,-1.72175 -5.61271,-7.31244 -4.38114,-11.88615 0.91998,-3.41655 1.55447,-4.03236 5.15308,-5.00137 5.4873,-1.47757 8.49796,-0.55708 10.86263,3.32118 2.81919,4.62371 2.52078,8.32895 -0.95036,11.80008 -3.07201,3.07202 -6.73958,3.67832 -10.68421,1.76626 z M 49.217573,355.265 c -2.974834,-1.49892 -5.597967,-8.19222 -4.665924,-11.90578 0.818453,-3.26097 6.72831,-6.25403 10.500679,-5.31808 4.609879,1.14375 7.165245,4.36817 7.165245,9.0413 0,7.6063 -6.288329,11.56434 -13,8.18256 z m 148.364077,-1.88044 c -4.86371,-2.35505 -5.9588,-11.44797 -1.83859,-15.26645 7.1313,-6.60906 16.89447,-0.94654 15.07648,8.74417 -1.2448,6.63538 -7.07346,9.50715 -13.23789,6.52228 z M 31.95373,337.30415 c -3.709836,-2.81714 -4.931134,-11.40164 -1.986157,-13.9607 5.965122,-5.18345 16.25,-1.0215 16.25,6.57584 0,5.28174 -3.254716,8.63486 -8.381451,8.63486 -2.329959,0 -4.977036,-0.5625 -5.882392,-1.25 z m 181.18692,-5.67308 c -3.31191,-3.31191 -3.81529,-7.45091 -1.46007,-12.0054 1.70636,-3.29973 3.31075,-4.07152 8.46379,-4.07152 4.21592,0 6.66344,2.03839 7.93936,6.61221 2.75129,9.86258 -7.83807,16.56972 -14.94308,9.46471 z M 15.518925,316.78191 c -2.354,-1.84984 -4.301352,-6.09183 -4.301352,-9.36978 0,-1.10651 1.315385,-3.32721 2.923077,-4.9349 3.517584,-3.51759 8.039042,-3.85329 12.800086,-0.95036 5.09507,3.10659 5.583163,8.82554 1.225985,14.3648 -1.678337,2.13366 -2.924026,2.65806 -6.271728,2.64024 -2.413025,-0.0128 -5.106052,-0.75198 -6.376068,-1.75 z m 210.521385,-4.97776 c -3.33613,-3.59574 -4.03288,-6.81129 -2.3491,-10.84115 1.41591,-3.38876 5.88861,-6.40885 9.49139,-6.40885 1.13539,0 3.72273,1.5198 5.74966,3.37734 2.99129,2.74131 3.68531,4.08342 3.68531,7.1267 0,8.24306 -11.02549,12.72978 -16.57726,6.74596 z M 3.440837,294.88301 c -1.500625,-0.60336 -5.223264,-7.56875 -5.223264,-9.77325 0,-0.83823 1.267397,-2.94252 2.816437,-4.6762 2.345624,-2.62521 3.5466,-3.15214 7.184329,-3.15214 5.574627,0 8.999234,3.47871 8.999234,9.1414 0,6.60827 -7.273356,11.07475 -13.776736,8.46014 z m 238.276733,-6.33572 c -3.24137,-1.22699 -5.35961,-4.26298 -6.06884,-8.69826 -0.57689,-3.60771 -0.32656,-4.49038 1.90693,-6.72388 3.58525,-3.58525 10.68041,-3.64341 14.20736,-0.11645 2.64539,2.64538 3.31536,8.06849 1.43163,11.58827 -1.88932,3.53024 -7.49226,5.45872 -11.47708,3.95032 z M -2.9540315,266.09585 C -9.021906,260.4694 -6.96644,252.89054 1.097751,251.15623 c 5.233735,-1.12558 8.457544,0.21654 10.635147,4.42755 1.94238,3.75615 1.217369,8.20985 -1.793026,11.01446 -3.095307,2.88372 -9.511758,2.63371 -12.8939035,-0.50239 z M 244.40613,259.51519 c -1.20371,-1.12142 -2.18856,-2.13689 -2.18856,-2.2566 0,-0.1197 -0.42294,-1.69234 -0.93986,-3.49474 -0.83036,-2.89529 -0.59717,-3.6674 2.00149,-6.62711 5.03165,-5.73073 12.41934,-5.30348 15.35747,0.88816 2.28081,4.80647 1.96545,7.29855 -1.34218,10.60617 -3.63691,3.63691 -9.50175,4.03923 -12.88836,0.88412 z M 0.581655,239.38456 c -4.3671849,-2.11463 -5.9474637,-11.08749 -2.5018741,-14.20571 4.5314071,-4.10087 12.5573551,-3.44629 15.0590551,1.22818 4.329502,8.08975 -4.278655,16.98606 -12.557181,12.97753 z m 213.135915,0.16959 c 0.7673,1.24153 -0.33992,-0.55 0,0 z m 30.4334,-5.26592 c -1.84931,-1.24625 -3.9658,-3.85135 -4.70332,-5.78911 -1.99637,-5.24528 -0.44766,-8.31458 5.30364,-10.51102 4.47962,-1.71078 4.79785,-1.71022 7.99994,0.0142 1.83411,0.98774 3.98471,3.13791 4.77911,4.77818 2.08382,4.30262 -0.40454,10.4962 -4.98611,12.4105 -4.25361,1.77727 -4.44725,1.75644 -8.39326,-0.90277 z M 7.932649,212.82201 C 0.99833,210.05624 0.612318,200.46986 7.296094,197.01355 c 7.031468,-3.63612 14.665019,1.71832 13.502831,9.47135 -0.92909,6.19801 -6.426442,8.90566 -12.866276,6.33711 z m 226.328581,-6.03146 c -2.04737,-1.65786 -2.44159,-2.87498 -2.48823,-7.68227 -0.0672,-6.92323 1.56236,-8.55417 8.54681,-8.55417 4.04294,0 5.09132,0.44132 7.30887,3.07673 3.5684,4.2408 3.19653,8.45849 -1.12699,12.782 -2.41719,2.41719 -9.45366,2.63432 -12.24046,0.37771 z M 19.407272,186.25608 c -4.510083,-4.80077 -3.76731,-11.36122 1.589945,-14.04301 8.386692,-4.19829 17.648335,7.83258 10.905905,14.16677 -3.238128,3.04206 -9.580728,2.97924 -12.49585,-0.12376 z m 206.810298,-2.42929 c -5.60605,-1.02028 -9.87591,-8.1242 -7.80338,-12.98273 2.2206,-5.20566 3.7781,-6.28991 9.03529,-6.28991 4.1067,0 5.40609,0.48416 7.84501,2.92308 1.69816,1.69815 2.92308,3.98872 2.92308,5.46607 0,4.30889 -3.06399,9.43751 -6.31541,10.57096 -1.64067,0.57194 -3.02839,0.97861 -3.08381,0.90371 -0.0554,-0.0749 -1.22578,-0.34093 -2.60078,-0.59118 z M 36.003839,169.00116 c -3.774696,-2.04875 -5.760048,-8.62142 -3.708343,-12.27679 1.98231,-3.53173 7.452199,-4.81123 12.159623,-2.84435 2.776983,1.1603 3.63515,2.18199 4.153475,4.94489 0.799229,4.26026 -0.511674,7.99989 -3.550409,10.12831 -2.805052,1.96473 -5.496502,1.97898 -9.054346,0.0479 z m 169.093091,-7.1398 c -4.12238,-1.73333 -5.80816,-4.04257 -5.84756,-8.01018 -0.0514,-5.1738 1.86374,-8.09174 6.46381,-9.84852 3.75859,-1.43542 4.57229,-1.447 7.7708,-0.11058 4.48977,1.87595 6.10856,4.8298 5.4279,9.9045 -0.98169,7.31899 -7.09752,10.88925 -13.81495,8.06478 z M 57.442647,151.5925 c -3.072956,-1.91351 -5.225074,-5.42552 -5.225074,-8.52672 0,-0.747 1.165002,-2.74271 2.588894,-4.43491 2.060929,-2.44927 3.369822,-3.07672 6.418212,-3.07672 5.270921,0 6.818337,0.76176 8.61838,4.24266 4.407189,8.52257 -4.321992,16.82606 -12.400412,11.79569 z m 125.030123,-5.15578 c -4.38459,-1.26622 -6.4533,-4.68238 -6.06669,-10.01824 0.26154,-3.60964 0.85638,-4.66509 3.70937,-6.58169 4.69508,-3.15407 8.58931,-2.9493 12.17904,0.64044 3.33244,3.33243 3.81375,7.45387 1.41273,12.09694 -2.44921,4.73625 -5.07862,5.64027 -11.23445,3.86255 z M 81.237281,140.2697 c -2.821774,-1.42775 -4.983265,-5.11698 -5.004966,-8.54247 -0.01841,-2.90544 5.110608,-8.17308 7.957995,-8.17308 2.958271,0 7.765063,2.64155 8.997623,4.94461 4.21334,7.87271 -3.8868,15.85105 -11.950652,11.77094 z m 75.716699,-2.35902 c -2.4937,-0.71889 -4.73641,-5.56063 -4.73641,-10.22531 0,-3.42667 0.45956,-4.25212 3.36803,-6.04966 3.9747,-2.4565 6.69781,-2.61599 10.56045,-0.61854 3.29349,1.70312 4.07984,3.3283 4.04928,8.36877 -0.0313,5.16304 -2.69109,8.22374 -7.53426,8.66988 -2.16893,0.1998 -4.73712,0.13448 -5.70709,-0.14514 z m -53.94923,-2.30249 c -6.708907,-5.29406 -3.358467,-17.05404 4.85874,-17.05404 2.96141,0 8.08298,3.10958 9.21552,5.59524 3.0542,6.70324 0.2222,12.0713 -6.86144,13.00583 -3.66274,0.48322 -5.00474,0.19538 -7.21282,-1.54703 z m 28.1948,-0.50447 c -1.3849,-0.75369 -3.32029,-3.18876 -4.30086,-5.41126 -1.65738,-3.75655 -1.66904,-4.261 -0.16556,-7.16839 1.84377,-3.56547 7.51192,-6.39701 10.80784,-5.39907 4.03697,1.2223 6.67754,4.53283 6.66295,8.35346 -0.0216,5.65902 -1.031,8.04742 -4.06379,9.61574 -3.46236,1.79045 -5.66381,1.7928 -8.94058,0.01 z"
             id="path1350"
             inkscape:connector-curvature="0"
             sodipodi:nodetypes="cccsscscsssscscccsssscscscsccsscssssssscsssssssscscsscccssssccssssccccccccsscsscscscccssssccccsccsccscssscsscscsccccscsscccscscccscsccssscssscsccscscssscsccscccsssccccccccc" />
        </g>
      </g>
    </g>
  </g>
</svg>
