<?xml version="1.0" encoding="UTF-8" standalone="no"?>
<!-- Created with Inkscape (http://www.inkscape.org/) -->

<svg
   xmlns:dc="http://purl.org/dc/elements/1.1/"
   xmlns:cc="http://creativecommons.org/ns#"
   xmlns:rdf="http://www.w3.org/1999/02/22-rdf-syntax-ns#"
   xmlns:svg="http://www.w3.org/2000/svg"
   xmlns="http://www.w3.org/2000/svg"
   xmlns:sodipodi="http://sodipodi.sourceforge.net/DTD/sodipodi-0.dtd"
   xmlns:inkscape="http://www.inkscape.org/namespaces/inkscape"
   version="1.1"
   id="svg2949"
   width="283"
   height="443"
   viewBox="0 0 283 443"
   sodipodi:docname="feu85.svg"
   inkscape:version="0.92.4 (5da689c313, 2019-01-14)">
  <metadata
     id="metadata2955">
    <rdf:RDF>
      <cc:Work
         rdf:about="">
        <dc:format>image/svg+xml</dc:format>
        <dc:type
           rdf:resource="http://purl.org/dc/dcmitype/StillImage" />
        <dc:title></dc:title>
      </cc:Work>
    </rdf:RDF>
  </metadata>
  <defs
     id="defs2953" />
  <sodipodi:namedview
     pagecolor="#ffffff"
     bordercolor="#666666"
     borderopacity="1"
     objecttolerance="10"
     gridtolerance="10"
     guidetolerance="10"
     inkscape:pageopacity="0"
     inkscape:pageshadow="2"
     inkscape:window-width="1280"
     inkscape:window-height="972"
     id="namedview2951"
     showgrid="false"
     inkscape:zoom="1.5067919"
     inkscape:cx="112.64858"
     inkscape:cy="221.5"
     inkscape:window-x="-8"
     inkscape:window-y="-8"
     inkscape:window-maximized="1"
     inkscape:current-layer="g151"
     showguides="false" />
  <g
     id="g151"
     transform="translate(25.882805,-2.654647)">
    <g
       id="g211"
       transform="translate(2.6546466,-69.020812)"
       style="fill:#ff00ff">
      <path
         style="fill:#ff00ff"
         d="m 98.176876,370.0461 c -1.44515,-2.20559 -1.50229,-3.59365 -0.48236,-11.71786 4.295144,-34.2128 7.064214,-51.99456 8.287054,-53.21589 0.66824,-0.66742 0.81154,0.82921 0.43085,4.5 -0.31371,3.025 -0.82455,17.11565 -1.13521,31.31255 -0.33179,15.16254 -1.01271,26.79552 -1.65035,28.19499 -1.5736,3.45368 -3.57145,3.79321 -5.449984,0.92621 z m 12.206804,0.99482 c -1.7397,-1.7397 -1.92809,-4.34422 -1.58608,-21.92857 0.41583,-21.37969 1.88591,-44.97442 2.98787,-47.95532 1.60306,-4.33643 2.97973,12.01141 3.34993,39.78017 0.3198,23.98821 0.14515,29.06399 -1.04086,30.25 -1.76996,1.76996 -1.79563,1.76895 -3.71086,-0.14628 z m 10.57804,-1.17857 c -1.82747,-3.47278 -3.83308,-43.13155 -3.1481,-62.25 0.2571,-7.17571 1.79396,0.59981 4.36135,22.06553 3.30258,27.61258 4.01485,36.29398 3.23325,39.40813 -0.73168,2.91523 -3.10308,3.32926 -4.4465,0.77634 z m -35.546204,-0.0829 c -0.99873,-1.61599 0.20911,-9.76596 2.6924,-18.1671 1.38188,-4.675 4.40466,-16.49122 6.71728,-26.25826 2.31262,-9.76704 4.67427,-18.04843 5.248114,-18.40308 0.69944,-0.43228 0.82903,0.80652 0.39316,3.75826 -0.35761,2.42169 -1.323404,9.35308 -2.146204,15.40308 -3.1573,23.21519 -5.71172,39.10636 -6.71108,41.75 -0.72237,1.91088 -1.74739,2.75 -3.35924,2.75 -1.27582,0 -2.55131,-0.3748 -2.83443,-0.8329 z m 47.690874,0.0358 c -2.44692,-1.55522 -4.37473,-11.66373 -9.28825,-48.70295 -0.51073,-3.85 -1.23024,-8.9125 -1.59891,-11.25 -0.38822,-2.46139 -0.27469,-4.25 0.26975,-4.25 0.82761,0 3.18084,8.80165 12.91096,48.29007 2.71974,11.03771 2.93468,13.78756 1.21231,15.50993 -1.3929,1.3929 -1.86326,1.44696 -3.50586,0.40295 z m 9.81669,-5.47401 c -1.16452,-2.40557 -3.04477,-8.16618 -4.17833,-12.80135 -1.13356,-4.63518 -3.44262,-13.82759 -5.13124,-20.42759 -4.38044,-17.12098 -6.75794,-27.87665 -6.26991,-28.36468 0.23186,-0.23187 0.69377,0.43033 1.02647,1.47155 0.33269,1.04122 1.02052,2.93173 1.52852,4.20112 0.50799,1.26939 5.00222,13.7257 9.98717,27.68069 9.21485,25.79625 10.43784,31.61436 6.79056,32.30449 -1.08967,0.20618 -2.34294,-1.15094 -3.75324,-4.06423 z m -67.084374,1.28741 c -3.10859,-1.92121 2.45222,-22.99978 12.00782,-45.51635 1.63386,-3.85 2.96955,-7.33321 2.96819,-7.74046 -0.006,-1.7054 4.44744,-10.75954 5.29191,-10.75954 0.50578,0 0.58786,0.7875 0.1824,1.75 -0.40545,0.9625 -1.09326,3.775 -1.52846,6.25 -1.3089,7.44381 -7.8328,32.75473 -11.50686,44.64345 -3.3549,10.85596 -4.76127,13.013 -7.415,11.3729 z m -12.419471,-3.59814 c -1.159344,-3.0212 -0.584639,-5.24221 3.493347,-13.50039 2.255185,-4.5669 5.583314,-11.92919 7.395834,-16.36064 6.60309,-16.14392 16.16109,-35.23326 17.14739,-34.24695 0.41534,0.41534 -7.40941,23.83895 -11.9223,35.68977 -1.36139,3.575 -4.08607,10.94297 -6.05483,16.37327 -3.561928,9.82466 -5.853912,13.62678 -8.214429,13.62678 -0.680913,0 -1.511168,-0.7118 -1.845012,-1.58179 z m 91.176505,-0.16816 c -0.83957,-0.9625 -2.01178,-2.6908 -2.60491,-3.84067 -1.1914,-2.30973 -11.59258,-32.28977 -13.67253,-39.40933 -0.72307,-2.475 -2.25773,-7.15795 -3.41036,-10.40655 -3.00767,-8.47691 -2.54515,-10.09612 0.88364,-3.09345 7.28055,14.86921 19.51028,41.58223 21.71733,47.43649 2.45985,6.52484 2.43494,11.06351 -0.0607,11.06351 -0.72928,0 -2.01288,-0.7875 -2.85245,-1.75 z m 11.33969,-5.82053 c -1.9539,-2.48399 -3.5562,-5.65414 -19.09142,-37.77235 -6.96699,-14.40387 -8.19641,-18.4779 -4.08862,-13.54878 3.06793,3.68134 25.73775,42.05366 27.61187,46.73753 2.70124,6.75108 -0.29187,9.8467 -4.43183,4.5836 z m -115.123184,0.53729 c 0,-1.67734 4.978023,-11.02601 9.138435,-17.16189 2.123861,-3.13232 3.861565,-5.94046 3.861565,-6.24032 0,-1.00437 14.46098,-24.68223 16.24181,-26.59373 0.967,-1.03795 1.7682,-2.24351 1.78043,-2.67901 0.0362,-1.2888 3.93123,-5.89478 3.95552,-4.6775 0.0224,1.12329 -7.80998,17.74558 -10.5481,22.38569 -0.81138,1.375 -5.082249,9.68411 -9.49081,18.46469 -4.408561,8.78058 -8.560804,16.31119 -9.227208,16.73469 -1.77552,1.12834 -5.711642,0.96803 -5.711642,-0.23262 z m 123.851114,-7.71676 c -2.01493,-2.19615 -15.71698,-24.40455 -26.09663,-42.29765 -0.96003,-1.65497 -2.47429,-4.12128 -3.36501,-5.48069 -0.89072,-1.35942 -1.16842,-2.47166 -0.61712,-2.47166 1.31801,0 9.01714,9.68914 24.01416,30.22115 9.2493,12.66297 12.21349,17.45625 12.21349,19.75 0,3.93687 -2.68117,4.05846 -6.14889,0.27885 z m -132.142265,1.12552 c -1.615764,-1.61577 -0.455916,-4.69298 3.815692,-10.12347 2.488498,-3.16363 7.865681,-10.02705 11.949297,-15.25205 13.349303,-17.08048 23.583042,-29.4933 24.608092,-29.84794 1.29902,-0.44941 -4.88515,9.39672 -21.887322,34.84794 -13.10677,19.62004 -16.024847,22.83643 -18.485759,20.37552 z m 141.541155,-6.26181 c -0.9625,-1.03746 -3.55,-4.49539 -5.75,-7.68428 -2.2,-3.18889 -9.52916,-13.4234 -16.28701,-22.74336 -6.75786,-9.31996 -12.10712,-17.12527 -11.88725,-17.34514 0.70576,-0.70577 11.71172,10.70538 29.41331,30.49616 9.48607,10.60565 12.40013,15.51067 10.77603,18.13851 -1.01613,1.64413 -4.36792,1.18303 -6.26508,-0.86189 z M 33.536423,343.47787 c -0.948297,-0.5307 -1.724177,-1.35057 -1.724177,-1.82194 0,-2.21202 45.5602,-51.81671 46.61921,-50.7577 0.46111,0.46111 -4.48215,7.7581 -7.935611,11.71412 -0.720194,0.825 -3.531129,4.4156 -6.246522,7.97911 -2.715392,3.56351 -5.649691,7.28049 -6.520663,8.25994 -0.870972,0.97945 -4.020972,4.97542 -7,8.87993 -11.274424,14.777 -14.175952,17.43454 -17.192237,15.74654 z M 190.24236,332.83998 c -2.78843,-2.6002 -7.93497,-7.87763 -11.43674,-11.72763 -3.50177,-3.85 -10.0402,-10.88556 -14.52984,-15.63458 -16.17917,-17.11391 -16.05476,-19.77955 0.24433,-5.23506 5.93568,5.2967 14.90804,12.94672 19.93858,17.00004 11.82325,9.5265 15.55962,13.77025 15.16038,17.21911 -0.49309,4.2596 -3.65615,3.71248 -9.37671,-1.62188 z m -164.917341,1.79304 c -1.069002,-1.72968 1.278996,-4.69708 11.74265,-14.84036 17.189092,-16.6628 37.362057,-32.88929 26.642426,-21.43031 -1.929426,2.0625 -7.730799,8.475 -12.891941,14.25 -19.345521,21.64645 -23.504267,25.23872 -25.493135,22.02067 z m -7.121161,-7.44253 c -0.30009,-0.78202 -0.05779,-2.33337 0.538438,-3.44744 1.745977,-3.26238 32.896599,-28.76545 44.06995,-36.08014 l 6.5,-4.25525 -9.5,9.36362 c -5.225,5.14999 -14.371109,13.85855 -20.324687,19.35235 -5.953578,5.4938 -12.343773,11.45122 -14.200434,13.23872 -3.603669,3.46943 -6.196638,4.13866 -7.083267,1.82814 z m 183.999562,-0.21898 c -1.57172,-0.81542 -5.79021,-4.0529 -9.37442,-7.1944 -3.58421,-3.1415 -8.99175,-7.70675 -12.01675,-10.145 -4.82943,-3.89269 -10.63363,-9.00169 -26.36772,-23.20951 -2.24736,-2.02936 -3.8332,-3.94266 -3.52408,-4.25178 0.51944,-0.51944 5.69759,2.94327 41.7839,27.94153 8.05828,5.58226 13.54809,10.10581 14.45641,11.91194 2.5124,4.99577 -0.0106,7.51362 -4.95734,4.94722 z M 10.494673,318.22715 c -1.1975685,-3.12081 3.135687,-6.49313 30.317573,-23.59438 4.675,-2.94123 10.827034,-6.84958 13.671188,-8.6852 2.844153,-1.83563 5.994153,-3.62557 7,-3.97766 2.220199,-0.77715 -8.71646,9.35208 -13.068836,12.10399 -1.706294,1.07886 -3.327352,2.2469 -3.602352,2.59566 -0.628302,0.79681 -14.488336,11.92559 -22.674044,18.20589 -6.181701,4.74278 -10.619514,6.02024 -11.643529,3.3517 z m 196.817577,-2.55039 c -1.65,-1.08723 -5.25,-3.59416 -8,-5.57095 -5.22101,-3.75303 -18.16689,-12.90828 -21.90835,-15.49346 -6.22952,-4.30431 -19.59165,-14.28629 -19.59165,-14.63566 0,-1.71841 10.32686,3.49816 35.5,17.93267 3.85,2.20763 9.73067,5.50557 13.06816,7.32876 7.32797,4.00309 9.70049,6.44723 9.2622,9.54176 -0.43797,3.09227 -4.35808,3.51433 -8.33036,0.89688 z M 5.0122455,308.41235 c -3.69068,-3.69068 0.01323,-5.89731 47.7103635,-28.42372 6.275699,-2.96389 11.559599,-5.23965 11.741999,-5.05725 0.182401,0.1824 -2.831642,2.32274 -6.697873,4.7563 -3.86623,2.43357 -9.60013,6.04352 -12.741999,8.02211 -3.14187,1.97859 -8.41249,5.07377 -11.71249,6.87818 -3.3,1.80442 -6.675,3.82609 -7.5,4.49262 -3.019611,2.43958 -17.1078475,10.53176 -18.3354695,10.53176 -0.695492,0 -1.804531,-0.54 -2.464531,-1.2 z M 196.64078,295.82202 c -16.38385,-9.75267 -25.66913,-15.1616 -35.02894,-20.4053 -0.68292,-0.38259 -0.9952,-0.94209 -0.69396,-1.24333 0.30124,-0.30124 2.8735,0.57429 5.71613,1.94563 2.84264,1.37133 5.40809,2.49333 5.70101,2.49333 0.74414,0 21.72519,9.56161 28.94537,13.19115 3.28247,1.65008 8.42932,3.921 11.43743,5.04648 7.13085,2.66799 10.57972,5.98709 9.09801,8.75568 -0.59354,1.10905 -2.06469,1.98865 -3.28876,1.96636 -1.21815,-0.0222 -11.06698,-5.30969 -21.88629,-11.75 z m -58.82853,3.73131 c 0,-0.58246 0.45,-0.7809 1,-0.44098 0.55,0.33992 1,0.81648 1,1.05902 0,0.24254 -0.45,0.44098 -1,0.44098 -0.55,0 -1,-0.47656 -1,-1.05902 z M 2.0622455,296.95007 c -3.507144,-1.41516 -0.10248,-6.03652 5.75,-7.80482 1.375,-0.41545 3.8500005,-1.33862 5.5000005,-2.0515 1.65,-0.71287 6.6,-2.66888 11,-4.3467 4.4,-1.67781 13.91555,-5.31949 21.145666,-8.09263 7.230117,-2.77314 13.444174,-5.04207 13.809017,-5.04207 2.238673,0 -2.069975,2.59545 -13.704962,8.25563 -7.287347,3.54514 -19.399964,9.43791 -26.916928,13.09504 -13.7847265,6.7065 -14.3204535,6.89992 -16.5827935,5.98705 z M 214.31225,294.66563 c -7.38567,-2.8981 -10.03478,-4.08722 -34,-15.26164 -29.77351,-13.88268 -21.41438,-12.00952 33.92881,7.60297 10.37662,3.67726 14.27363,6.33249 13.24152,9.02211 -0.8697,2.26641 -5.01292,1.83749 -13.17033,-1.36344 z m -111.19936,-4.13777 c -4.441144,-1.64288 -3.984804,-6.97527 0.76531,-8.94283 2.43866,-1.01012 3.33694,-0.93872 5.42815,0.4315 5.79667,3.79812 0.5514,11.00642 -6.19346,8.51133 z m 15.27079,-0.48694 c -3.21648,-3.21648 -0.78711,-8.42857 3.92857,-8.42857 3.02976,0 5.5,2.48652 5.5,5.53624 0,4.06887 -6.31487,6.00603 -9.42857,2.89233 z m 13.81335,-4.19388 c -0.61337,-0.40408 -1.42389,-1.72417 -1.80115,-2.93354 -0.85822,-2.75112 2.38771,-6.30115 5.76138,-6.30115 4.38845,0 7.36848,5.88651 4.45499,8.8 -1.31975,1.31975 -6.65352,1.59526 -8.41522,0.43469 z m 85.11522,-2.16943 c -4.4,-1.54786 -17.5625,-6.1216 -29.25,-10.16388 -20.58637,-7.12006 -26.80585,-9.98401 -16,-7.36767 2.8875,0.69912 8.625,2.02048 12.75,2.93635 4.125,0.91587 13.35,3.17921 20.5,5.02964 7.15,1.85043 14.8,3.68013 17,4.06601 6.29766,1.10459 9.67553,3.18748 9.31199,5.74202 -0.45415,3.19123 -4.75847,3.11831 -14.31199,-0.24247 z m -220.9442315,1.02498 c -1.392262,-2.25272 1.098266,-4.22613 7.802829,-6.18266 3.927769,-1.14621 9.8413985,-2.91714 13.1413985,-3.93541 24.52794,-7.56844 42.5,-11.85846 42.5,-10.14495 0,0.80449 -5.330209,2.82723 -28.351649,10.75901 -5.418406,1.86685 -13.799199,4.97366 -18.623984,6.90402 -8.4914005,3.39735 -15.3104485,4.47391 -16.4685945,2.59999 z m 92.6667375,-1.64694 c -3.97819,-2.78643 -2.24046,-7.4433 2.77749,-7.4433 1.43,0 3.14,0.54 3.8,1.2 1.83712,1.83712 1.42786,5.60769 -0.73426,6.76482 -2.56599,1.37328 -3.22156,1.31476 -5.84323,-0.52152 z m 18.597394,-8.93924 c -0.93843,-2.05963 -0.82275,-2.84343 0.66179,-4.48382 3.06671,-3.38869 10.27163,-0.2456 8.77257,3.82696 -1.48485,4.03394 -7.69854,4.46657 -9.43436,0.65686 z m 35.5169,1.31418 c -3.26223,-1.57804 -3.59985,-4.6461 -0.81746,-7.42848 2.79543,-2.79544 4.22259,-2.95924 7.25815,-0.83306 2.8529,1.99825 3.02248,6.9448 0.28825,8.40812 -2.35124,1.25834 -3.89405,1.22474 -6.72894,-0.14658 z M -5.0697715,274.33033 c -0.61489,-0.61489 -1.117983,-1.67105 -1.117983,-2.34702 0,-1.37575 7.430379,-3.74888 16.5000005,-5.26981 3.3,-0.55339 9.15,-1.67576 13,-2.49415 13.352711,-2.83837 37.370145,-6.27288 36.37881,-5.2022 -0.662631,0.71567 -24.700854,7.5062 -33.87881,9.57039 -3.025,0.68034 -9.325,2.26264 -14,3.51621 -11.28712349,3.02656 -15.5233235,3.58528 -16.8820175,2.22658 z m 229.3820215,0.78468 c -2.56004,-0.86901 -29.25577,-7.57329 -40,-10.04548 -6.6,-1.51863 -12.675,-3.12907 -13.5,-3.57875 -2.09363,-1.14118 5.48962,-1.10689 13.80737,0.0624 3.68095,0.51748 12.09263,1.6804 18.69263,2.58429 16.52439,2.26304 27.216,4.25249 29.54118,5.49689 2.35384,1.25974 2.58302,4.52446 0.37703,5.37097 -1.64572,0.63152 -7.18033,0.69957 -8.91821,0.10965 z m -101.25517,-1.75266 c -2.45639,-3.07032 -2.38748,-5.61043 0.19816,-7.3046 3.36755,-2.20651 7.3248,-1.18635 8.6208,2.22238 0.77673,2.04294 0.62634,3.01714 -0.69036,4.47207 -1.91847,2.11989 -6.63735,2.4741 -8.1286,0.61015 z m -44.494834,-0.8301 c -2.97571,-1.73319 -2.15491,-5.3869 1.6733,-7.44853 2.81323,-1.51502 3.69739,-1.6161 4.96128,-0.56716 5.52848,4.58823 -0.342,11.68078 -6.63458,8.01569 z m 17.25,-3.9199 c -1.48662,-2.77778 0.37354,-6 3.46376,-6 2.558874,0 5.536244,2.35094 5.536244,4.37143 0,3.77498 -7.158074,5.07025 -9.000004,1.62857 z m 15.573414,-5.56945 c -1.16371,-1.1637 -1.31004,-2.05414 -0.56605,-3.4443 1.38111,-2.58064 2.13983,-2.88476 4.74264,-1.90106 2.77843,1.05007 2.96173,4.46353 0.31574,5.87963 -2.50128,1.33864 -2.63537,1.32269 -4.49233,-0.53427 z m 112.92659,0.54468 c -2.75,-0.42639 -11.75,-1.73322 -20,-2.90406 -30.7342,-4.3618 -36.61998,-5.34744 -35.82006,-5.99846 0.45103,-0.36708 11.39506,-0.33982 24.32006,0.0606 43.45048,1.34601 45,1.55309 45,6.01391 0,1.12186 -1.05236,2.30241 -2.5651,2.87755 -2.83615,1.0783 -3.68586,1.07445 -10.9349,-0.0495 z M -8.0825625,262.2391 c -1.656379,-1.99582 -0.344646,-4.42195 2.728348,-5.04625 3.021248,-0.61379 13.387852,-1.26255 33.1277075,-2.07318 7.446314,-0.3058 16.688753,-0.73813 20.538753,-0.96075 3.85,-0.22262 7.841274,-0.0744 8.869497,0.32934 2.181903,0.85677 -8.838811,2.8948 -35.869497,6.63323 -20.55735449,2.84315 -27.7362115,3.1161 -29.3948085,1.11761 z M 134.03852,261.8855 c -2.65535,-2.29398 -3.63206,-5.70832 -1.99885,-6.98754 2.90043,-2.27176 5.96271,-2.18638 8.38282,0.23373 2.73073,2.73072 2.87984,3.47495 1.13976,5.68856 -2.02833,2.58028 -5.24316,3.03545 -7.52373,1.06525 z m 13.84794,-0.19894 c -3.93151,-3.93151 0.9824,-9.51218 6.60665,-7.50308 3.40346,1.21578 4.62675,4.54468 2.68749,7.31337 -1.88613,2.69282 -6.69291,2.79094 -9.29414,0.18971 z M 71.863396,257.6635 c -2.501408,-2.50141 -2.538295,-3.23299 -0.30115,-5.97277 2.42515,-2.97003 7.99392,-1.94687 8.89262,1.63385 1.16106,4.62602 -5.12815,7.80224 -8.59147,4.33892 z m 15.62407,-0.85753 c -1.47756,-1.63269 -1.48701,-2.01731 -0.0983,-4 2.40981,-3.44049 7.29682,-2.78069 8.76325,1.18313 1.55672,4.20786 -5.36869,6.45922 -8.66497,2.81687 z m 33.896214,0.23495 c -2.00603,-2.00603 -1.97497,-2.70865 0.24064,-5.44482 1.32801,-1.64002 2.39655,-2.05231 4,-1.5434 2.72337,0.86437 2.91717,4.58972 0.35919,6.90466 -2.25658,2.04218 -2.63435,2.04904 -4.59983,0.0836 z m -18.41982,-0.31371 c -2.26755,-1.43701 -0.9204,-4.58187 2.11263,-4.93183 3.1733,-0.36614 4.6609,1.99731 2.72519,4.3297 -1.39023,1.67513 -2.85666,1.85765 -4.83782,0.60213 z M -8.4377545,251.569 c -2.1810675,-1.31616 -2.2823855,-4.53838 -0.168213,-5.34966 5.314921,-2.03953 72.7426265,0.5127 68.9923675,2.61145 -3.479201,1.94706 -66.0123565,4.43498 -68.8241545,2.73821 z M 111.91143,250.36235 c -1.06488,-2.86473 -0.43057,-4.51005 2.04119,-5.29455 3.73587,-1.18572 6.46263,3.54155 3.65963,6.34455 -1.91962,1.91962 -4.79372,1.39026 -5.70082,-1.05 z m 99.79549,1.81134 c -0.24126,-0.24126 -9.10636,-0.75119 -19.70023,-1.13316 -10.59387,-0.38198 -20.70898,-1.0028 -22.47801,-1.3796 -4.22406,-0.89972 34.15538,-3.4571 52.66626,-3.50938 12.33957,-0.0348 14.00689,0.16183 15,1.76937 2.1314,3.45005 -1.54852,4.69143 -13.90715,4.69143 -6.12822,0 -11.3396,-0.1974 -11.58087,-0.43866 z m -62.59379,-4.75913 c -2.48699,-1.20151 -4.06711,-6.43598 -2.43538,-8.06771 1.47506,-1.47506 6.69959,-1.34033 8.58122,0.22128 2.00139,1.66101 1.99216,5.46248 -0.0181,7.47279 -1.79737,1.79737 -3.02569,1.87227 -6.12769,0.37364 z m -47.10088,-1.00221 c -3.019324,-3.01932 0.0474,-7.80832 3.73608,-5.83421 2.60009,1.39152 2.67028,4.63933 0.12966,5.99903 -2.4106,1.29011 -2.41082,1.2901 -3.86574,-0.16482 z m 31.41735,-0.67033 c -1.41466,-1.56319 -1.49587,-2.30219 -0.49448,-4.5 1.44512,-3.17169 5.70142,-3.5863 8.22214,-0.80093 2.12096,2.34363 2.08542,3.47175 -0.17375,5.51627 -2.41334,2.18405 -5.46112,2.09716 -7.55391,-0.21534 z M 70.562246,243.2203 c -4.268977,-3.24061 -0.35271,-10.478 4.94969,-9.14719 3.15769,0.79253 4.26294,2.11684 4.285,5.13425 0.032,4.37899 -5.55449,6.80661 -9.23469,4.01294 z m 50.289874,-0.0599 c -1.91383,-2.30603 -0.83645,-5.01164 2.13284,-5.35618 1.97708,-0.22941 2.82641,0.22999 3.32407,1.79799 1.22631,3.86377 -2.94563,6.5841 -5.45691,3.55819 z m 43.29949,0.45557 c 1.56164,-0.48314 10.78664,-2.05464 20.5,-3.49222 9.71335,-1.43758 21.71064,-3.24169 26.66064,-4.00913 4.95,-0.76745 12.2179,-1.69816 16.15089,-2.06825 6.5581,-0.61712 7.24201,-0.50265 8.25,1.3808 0.60451,1.12954 1.09911,2.33125 1.09911,2.67048 0,1.83832 -8.0451,3.3615 -21,3.97592 -7.975,0.37824 -18.55,1.05408 -23.5,1.50186 -12.65988,1.14523 -31.82048,1.17282 -28.16064,0.0405 z M 21.312246,242.57965 c -28.5915065,-1.88578 -30.5000005,-2.23335 -30.5000005,-5.55456 0,-2.48442 3.372018,-3.29825 10.04956301,-2.42545 3.54773999,0.46371 17.47543749,2.27515 30.95043749,4.02542 13.475,1.75026 25.175,3.57474 26,4.05439 1.77004,1.02908 -20.299106,0.96874 -36.5,-0.0998 z m 66.7,-1.1673 c -2.82616,-2.82616 -0.56016,-6.8 3.87756,-6.8 3.7817,0 5.53225,2.36619 4.0909,5.52961 -1.2392,2.71975 -5.79309,3.44576 -7.96846,1.27039 z m 22.000004,-1 c -2.01426,-2.01426 -1.3898,-4.71426 1.24316,-5.37509 1.34375,-0.33726 2.91875,-0.31927 3.5,0.04 1.7305,1.06951 1.20116,4.38752 -0.87742,5.49995 -2.4106,1.29011 -2.41082,1.2901 -3.86574,-0.16482 z m 55.8,-1.90534 c 0,-0.44967 1.6875,-1.25671 3.75,-1.79343 2.0625,-0.53672 6.45,-1.71728 9.75,-2.62348 3.3,-0.90619 12.525,-3.36261 20.5,-5.4587 7.975,-2.09609 17.875,-4.81634 22,-6.04499 10.63435,-3.1675 15,-2.86168 15,1.05079 0,3.3702 -6.95088,5.66805 -24.04396,7.94853 -8.50082,1.13415 -20.40604,2.96295 -26.45604,4.06401 -19.48174,3.54555 -20.5,3.68748 -20.5,2.85727 z M 42.812246,236.54953 c -1.925,-0.47195 -12.17386,-2.2246 -22.775244,-3.89477 -22.0013155,-3.46614 -26.5313355,-4.893 -26.0470365,-8.20427 0.489928,-3.34975 4.862482,-4.06064 11.317111,-1.83992 6.9976735,2.40755 36.3482155,10.52234 43.7551695,12.09736 3.1625,0.67247 5.75,1.60107 5.75,2.06355 0,1.05438 -7.348473,0.91847 -12,-0.22195 z m 100.750004,-2.01728 c -4.85091,-2.82539 0.27225,-11.00254 5.61957,-8.96949 4.17167,1.58607 4.17083,7.02671 -10e-4,8.92769 -2.95886,1.34815 -3.37007,1.35121 -5.61819,0.0418 z m -43.720864,-1.89017 c -2.14272,-1.62298 -2.33948,-2.24724 -1.4816,-4.70063 1.24451,-3.55904 5.257734,-4.30674 7.834344,-1.45962 1.42287,1.57225 1.55508,2.37979 0.66264,4.04733 -0.61319,1.14576 -1.73655,2.08319 -2.49637,2.08319 -0.75982,0 -1.53148,0.42778 -1.71482,0.95062 -0.18333,0.52285 -1.44522,0.10844 -2.804194,-0.92089 z m 25.461384,-0.0402 c -1.76644,-1.95189 -1.75131,-2.08302 0.51932,-4.5 1.28634,-1.36924 3.0906,-2.48952 4.00949,-2.48952 2.23127,0 4.98067,3.15848 4.98067,5.72175 0,3.69282 -6.52733,4.56302 -9.50948,1.26777 z m 44.00948,-2.06308 c 3.3,-1.60612 6.6975,-2.92162 7.55,-2.92333 0.8525,-0.002 1.9775,-0.39414 2.5,-0.87205 0.5225,-0.47791 3.65,-1.80899 6.95,-2.95796 18.57363,-6.46683 25.24176,-8.92198 27.34772,-10.06918 4.74724,-2.58601 13.46426,-5.06373 15.77482,-4.48382 2.62712,0.65937 3.31574,4.39654 1.12746,6.11879 -1.90443,1.49885 -12.40642,4.47617 -54.25,15.37992 -6.05,1.57653 -11.45,2.83524 -12,2.79713 -0.55,-0.0381 1.7,-1.38339 5,-2.9895 z m -120.000004,0.87456 c -2.2,-0.54576 -9.4,-2.57792 -16,-4.51591 -6.6,-1.93799 -14.475,-4.15066 -17.5,-4.91704 -3.025,-0.76638 -6.4000005,-1.77536 -7.5000005,-2.24217 -1.1,-0.46682 -3.8,-1.41827 -6,-2.11434 -5.010653,-1.58535 -6.5,-2.75734 -6.5,-5.11494 0,-2.22683 3.79031701,-3.41464 7.75,-2.42868 1.5125,0.37661 11.1842685,4.02539 21.4928195,8.10841 10.30855,4.08301 19.147931,7.42366 19.643069,7.42366 0.495137,0 3.985869,1.55352 7.757181,3.45226 5.818591,2.92949 6.402643,3.44384 3.856931,3.39665 -1.65,-0.0306 -4.8,-0.50214 -7,-1.0479 z m 31.5,-0.56644 c -2.54796,-0.84175 -5,-3.45702 -5,-5.33285 0,-3.78446 7.98156,-6.52016 10.8,-3.70172 3.28105,3.28105 -1.35525,10.50294 -5.8,9.03457 z m -27.75,-4.7566 c -4.5375,-1.83 -8.25,-3.1286 -8.25,-2.88577 0,0.24282 -2.1375,-0.62665 -4.75,-1.93216 -2.6125,-1.30551 -10.375,-4.55023 -17.25,-7.21049 -18.3537065,-7.10192 -20.5000005,-8.35457 -20.5000005,-11.96451 0,-2.71185 0.270332,-2.95577 2.953806,-2.66524 3.28667,0.35584 55.8138145,26.59281 57.6365735,28.7891 1.771465,2.13449 -0.465207,1.65014 -9.840379,-2.13093 z m 61.510284,2.27203 c -2.63949,-2.03416 -2.49443,-4.80453 0.36484,-6.96786 2.14031,-1.61936 3.01755,-1.77615 4.75,-0.84897 3.19689,1.71092 2.91924,6.81432 -0.44022,8.09158 -3.14575,1.19601 -2.73485,1.22016 -4.67462,-0.27475 z m 50.44137,-0.28498 c 0.56409,-0.5641 38.22281,-20.01399 50.49327,-26.07867 4.73552,-2.34053 7.8974,-3.33313 9.25,-2.90383 2.51501,0.79823 2.67005,3.6879 0.30508,5.68614 -2.21266,1.86956 -15.02917,7.55724 -22.25,9.87405 -3.025,0.97057 -7.75,2.7015 -10.5,3.8465 -5.76109,2.39871 -26.6193,10.11079 -27.34582,10.11079 -0.26813,0 -0.24677,-0.24074 0.0475,-0.53498 z m -31.63022,-6.03645 c -3.3056,-3.30559 -0.64152,-9.42857 4.10232,-9.42857 2.54867,0 5.32625,3.01005 5.32625,5.77204 0,2.30701 -3.43671,5.22796 -6.15108,5.22796 -0.93833,0 -2.41321,-0.70714 -3.27749,-1.57143 z m -72.689037,-0.39263 c -5.006408,-1.51507 -51.3904405,-25.0869 -52.6323975,-26.74717 -1.614685,-2.15855 -1.614685,-6.25517 0,-6.40392 3.4941055,-0.32189 6.2988295,1.01357 19.2202115,9.15169 26.115289,16.44787 36.529789,23.33282 36.529789,24.14957 0,0.44764 -0.1125,0.77521 -0.25,0.72794 -0.1375,-0.0473 -1.427921,-0.44243 -2.867603,-0.87811 z m 106.145967,-0.78594 c 0.0156,-0.4125 2.6031,-2.29436 5.75,-4.18192 6.75959,-4.05449 20.64656,-12.80869 30.03248,-18.93215 3.67904,-2.40024 8.16535,-5.21274 9.96958,-6.25 5.98552,-3.44111 10.83484,-1.77258 8.3488,2.87262 -1.11634,2.08589 -50.71569,27.24145 -53.71213,27.24145 -0.2294,0 -0.40433,-0.3375 -0.38873,-0.75 z m -75.037714,-1.56734 c -1.80813,-0.90145 -2.49065,-2.04764 -2.49065,-4.18266 0,-2.13502 0.68252,-3.28121 2.49065,-4.18266 3.36276,-1.67652 6.50935,0.34536 6.50935,4.18266 0,3.8373 -3.14659,5.85918 -6.50935,4.18266 z m 74.197914,-4.83914 c 2.02871,-1.83894 6.71249,-5.59352 10.40839,-8.34352 3.6959,-2.75 7.54855,-5.7875 8.56144,-6.75 1.01288,-0.9625 2.05944,-1.75 2.32567,-1.75 0.26624,0 4.35372,-3.0375 9.08329,-6.75 14.05711,-11.03419 14.96299,-11.57172 17.34914,-10.29469 2.79973,1.49837 2.62328,3.15947 -0.66649,6.27414 -2.62766,2.4878 -17.98754,12.23798 -30.75,19.51956 -3.3,1.8828 -6.45,3.76314 -7,4.17853 -0.55,0.41539 -3.7,2.21871 -7,4.00738 l -6,3.25212 z m -44.96605,0.59978 c -2.93202,-2.05367 -2.81853,-5.00667 0.2702,-7.03048 3.08547,-2.02168 7.01127,-1.20817 8.61306,1.78481 1.00509,1.87802 0.7972,2.48908 -1.5269,4.48819 -3.16943,2.72622 -4.3692,2.84976 -7.35636,0.75748 z m -61.222514,-1.62079 c -3.985908,-2.44143 -17.766988,-10.97698 -23,-14.24545 -7.949281,-4.96502 -21.086415,-13.97626 -22.026096,-15.1085 -0.554626,-0.66828 -0.710886,-1.9904 -0.347246,-2.93803 1.093057,-2.84846 5.728322,-1.12668 15.205961,5.64828 4.767059,3.40767 10.06003,7.34898 11.762156,8.75848 1.702127,1.40949 7.889627,6.32794 13.75,10.92989 5.860374,4.60195 10.655225,8.53945 10.655225,8.75 0,0.99257 -2.832899,0.14522 -6,-1.79467 z m 7.662792,-2.87755 c -3.114536,-2.23027 -5.662792,-3.83988 -5.662792,-3.57692 0,0.26296 -1.251873,-0.72477 -2.781941,-2.19496 -4.500659,-4.32454 -9.072567,-8.11065 -12.018476,-9.95279 -4.15562,-2.59861 -23.594775,-17.44126 -24.43427,-18.65664 -1.267044,-1.83437 -0.830987,-5.60122 0.71718,-6.1953 0.849505,-0.32599 4.235678,1.39574 7.930611,4.03239 6.546882,4.67176 41.000806,35.46797 43.393596,38.78683 2.30615,3.19868 -0.99038,2.16384 -7.143908,-2.24261 z m 37.537212,2.85504 c -1.8524,-1.8524 -1.4208,-5.61146 0.77948,-6.78902 4.5821,-2.45227 11.09877,2.77996 8.0451,6.45941 -1.50977,1.81916 -7.12528,2.02891 -8.82458,0.32961 z m 55.67374,-3.36662 c 1.11039,-1.41163 3.52624,-3.77413 5.36855,-5.25 5.15555,-4.13006 11.18686,-9.68362 23.54876,-21.68338 11.60221,-11.26233 15.12137,-13.44472 17.63181,-10.93428 3.06661,3.06661 0.55745,5.82117 -16.81783,18.46268 -4.89223,3.55938 -10.1967,7.66153 -11.78771,9.1159 -1.591,1.45436 -4.22005,3.19409 -5.84232,3.86605 -1.62227,0.67197 -2.69685,1.63069 -2.38796,2.13048 0.30889,0.4998 0.19067,0.79087 -0.26271,0.64682 -0.45338,-0.14404 -2.93041,1.19481 -5.50451,2.97523 -5.64868,3.90701 -6.62201,4.07239 -3.94608,0.6705 z m -4.17343,-3.85336 c 0.80182,-1.42376 13.73732,-15.81225 20.29969,-22.57986 1.925,-1.98521 6.38992,-7.1173 9.92204,-11.40464 6.56336,-7.9667 9.74538,-10.32085 12.51419,-9.25836 4.48964,1.72283 0.83653,6.30722 -20.88747,26.21227 -6.57318,6.02282 -13.00614,11.96307 -14.29546,13.20057 -1.28931,1.2375 -2.71865,2.25 -3.17631,2.25 -0.45766,0 -1.3923,0.675 -2.07699,1.5 -1.58079,1.90474 -3.36223,1.96673 -2.29969,0.08 z m -85.738269,-2.169 c -5.302936,-4.31444 -12.176753,-10.55631 -27.212045,-24.71028 -11.354557,-10.68898 -13.75,-13.43518 -13.75,-15.76336 0,-7.605 5.470227,-3.65308 23.61798,17.06262 7.95005,9.075 16.052902,18.18119 18.006337,20.23597 4.496643,4.72995 4.025453,6.98896 -0.662272,3.17505 z m 79.165989,0.70366 c 0.75458,-1.03693 4.59273,-6.09943 8.5292,-11.25 3.93648,-5.15058 11.22057,-14.70377 16.18686,-21.22933 11.28802,-14.83211 13.78283,-17.63535 15.69501,-17.63535 2.05559,0 2.96613,2.71551 1.86279,5.55545 -0.49604,1.27678 -5.17689,6.76409 -10.40189,12.19402 -5.225,5.42993 -14.43657,15.35764 -20.47015,22.06157 -6.03359,6.70393 -11.37597,12.18896 -11.87197,12.18896 -0.49601,0 -0.28444,-0.8484 0.47015,-1.88532 z M 69.449908,193.36235 C 64.236302,187.17485 58.697489,180.74478 57.141435,179.0733 37.39964,157.86708 34.722244,153.52874 40.932163,152.80848 c 2.073054,-0.24044 3.483086,0.69886 6.755191,4.5 4.289338,4.98285 15.950401,20.73453 22.434128,30.30387 2.049594,3.025 5.293484,7.68664 7.208654,10.35919 1.91516,2.67256 3.48211,5.26006 3.48211,5.75 0,2.3929 -2.66358,-0.0355 -11.362338,-10.35919 z m 12.704388,6.29449 c -4.2875,-6.87917 -24.614678,-34.73124 -31.934156,-43.75583 -1.483271,-1.82881 -2.669878,-4.62716 -2.756241,-6.5 -0.132625,-2.87603 0.159917,-3.28866 2.331605,-3.28866 2.986066,0 4.792083,2.589 21.624769,31 15.531393,26.21461 15.153513,25.5 13.484023,25.5 -0.49937,0 -1.73687,-1.32998 -2.75,-2.95551 z m 60.199644,-2.29449 c 0.37206,-1.2375 4.60065,-10.35 9.39686,-20.25 4.79622,-9.9 9.95018,-20.925 11.45325,-24.5 3.9285,-9.34379 5.96858,-11.5075 10.4832,-11.11848 1.8083,0.15582 0.85004,5.14537 -1.70498,8.87764 -1.03197,1.50746 -4.80666,7.69084 -8.38818,13.74084 -3.58153,6.05 -7.86102,13.25 -9.50999,16 -1.64896,2.75 -4.91134,8.2625 -7.24971,12.25 -4.38985,7.48575 -5.65089,8.89302 -4.48045,5 z m -27.80284,-0.75 c -0.56452,-1.4285 -1.19739,-14.3688 -2.31894,-47.41531 -0.27842,-8.20342 -0.72611,-15.27111 -0.99487,-15.70598 -0.64417,-1.04227 2.05148,-7.43715 3.51673,-8.34272 0.63021,-0.38949 1.86367,-0.11242 2.74102,0.61571 1.38341,1.14813 1.50525,3.18403 0.91776,15.33609 -0.37257,7.70672 -0.93361,20.98721 -1.24675,29.51221 -0.64003,17.42426 -1.72822,28.24388 -2.61495,26 z M 79.700206,185.57729 c -3.51338,-6.04042 -7.994489,-13.56611 -9.958025,-16.72376 -6.608776,-10.62786 -13.929935,-23.98788 -13.929935,-25.42004 0,-1.78585 1.982492,-3.82114 3.722024,-3.82114 1.603755,0 6.775581,7.94017 8.404518,12.90324 0.649274,1.97822 2.139863,5.17176 3.312419,7.09676 1.944679,3.19261 4.420039,8.41399 12.089069,25.5 3.99573,8.90217 4.47776,10.37839 3.57172,10.93835 -0.45311,0.28004 -3.69841,-4.433 -7.21179,-10.47341 z m 17.23762,9.26971 c -0.57005,-1.06516 -2.43973,-6.1662 -4.15483,-11.33565 -1.7151,-5.16945 -6.27031,-17.83922 -10.12269,-28.15505 -5.34415,-14.31049 -6.85081,-19.45492 -6.35669,-21.70466 0.70805,-3.22372 3.81046,-4.86361 5.90794,-3.12285 1.36241,1.1307 4.08306,10.69286 5.01434,17.6237 0.29858,2.22207 2.56545,11.15151 5.03751,19.8432 6.05834,21.30104 8.157574,33.35963 4.67442,26.85131 z m 23.297134,-10.48465 c 0.38146,-6.7375 1.05338,-21.49745 1.49315,-32.79989 0.85094,-21.86974 1.59974,-25.30206 5.4018,-24.76079 1.6861,0.24004 2.26009,1.10654 2.52429,3.81068 0.4011,4.1055 -1.63212,23.78156 -2.92234,28.2803 -0.48998,1.70846 -1.35009,7.85681 -1.91136,13.663 -1.46574,15.16279 -3.03109,24.0567 -4.23403,24.0567 -0.70763,0 -0.82113,-3.95534 -0.35151,-12.25 z m 9.92037,10.61831 c 0.52822,-1.78475 3.22571,-12.85956 11.16915,-45.85604 3.43767,-14.27983 5.27455,-18.51227 8.03435,-18.51227 2.79121,0 2.36356,5.08766 -1.44255,17.1614 -8.8316,28.01559 -15.953,48.28826 -17.09668,48.66948 -0.78099,0.26033 -1.01905,-0.26384 -0.66427,-1.46257 z m 6.70075,0.87501 c -0.0241,-0.69117 1.50029,-5.19117 3.38756,-10 4.17216,-10.63085 7.48486,-19.9676 12.6433,-35.63482 4.33895,-13.17824 5.30032,-14.84141 8.32759,-14.40675 3.31705,0.47626 3.03962,3.27586 -1.34847,13.60769 -5.26638,12.39977 -22.95222,48.08962 -23.00998,46.43388 z m -34.51986,-1.3261 c -0.29787,-0.77947 -1.38276,-5.69222 -2.410854,-10.91722 -1.02809,-5.225 -2.62125,-12.425 -3.54035,-16 -0.9191,-3.575 -3.18143,-13.20968 -5.0274,-21.41041 -3.63967,-16.16923 -3.46615,-19.58959 0.99382,-19.58959 3.02703,0 4.8865,4.99395 6.00409,16.12505 0.24159,2.40623 0.91367,7.97495 1.49351,12.37495 3.178804,24.12183 4.634864,39.10309 3.879634,39.91722 -0.50399,0.5433 -1.07164,0.33946 -1.39245,-0.5 z m 4.64381,-8.66722 c -0.62794,-5.3625 -1.63121,-14.925 -2.22949,-21.25 -0.59829,-6.325 -1.47497,-13.3 -1.94819,-15.5 -0.47321,-2.2 -1.16296,-7.65166 -1.53278,-12.1148 -0.73386,-8.85669 0.26626,-12.3852 3.51048,-12.3852 3.36022,0 3.79129,3.9171 4.5945,41.75 0.64245,30.26065 -0.26712,37.66781 -2.39452,19.5 z m -23.999534,-7.5 c -4.37515,-8.9375 -8.26849,-17.29503 -8.65187,-18.5723 -0.38338,-1.27727 -2.43658,-5.84497 -4.562679,-10.15045 -4.920563,-9.96446 -5.515245,-12.31632 -3.530722,-13.96332 0.853353,-0.70822 2.144358,-1.0602 2.8689,-0.78216 1.635417,0.62757 4.719531,6.90051 8.219591,16.71823 1.47058,4.125 3.25409,8.85 3.96336,10.5 0.70928,1.65 2.50181,5.83251 3.98341,9.29447 1.4816,3.46195 3.53028,9.31195 4.55261,13 1.02234,3.68804 2.16127,7.49303 2.53096,8.45553 0.37617,0.97936 0.21178,1.75 -0.37329,1.75 -0.575,0 -4.62513,-7.3125 -9.00027,-16.25 z m 42.721064,15.66667 c -0.2864,-2.3718 1.38965,-16.02322 6.25131,-50.91667 1.51576,-10.87899 3.15644,-14.73841 6.08855,-14.32228 3.42938,0.48671 3.3832,5.63791 -0.18042,20.1241 -1.68468,6.84828 -3.4617,14.41944 -3.94894,16.8248 -1.42401,7.02998 -6.97918,28.08608 -7.56422,28.67112 -0.29457,0.29458 -0.5854,0.12309 -0.64628,-0.38107 z m 25.11069,0.0428 c 0,-0.29727 0.84309,-1.75977 1.87353,-3.25 1.94188,-2.80836 15.41192,-25.5221 20.9198,-35.27584 3.98285,-7.05308 6.42718,-9.31584 9.13501,-8.45641 2.74451,0.87107 2.67057,4.2573 -0.17834,8.16684 -3.97082,5.44914 -17.21578,22.81902 -18.25,23.93367 -0.55,0.59277 -3.45072,4.30527 -6.44604,8.24999 -4.78489,6.30152 -7.05396,8.43478 -7.05396,6.63175 z"
         id="path236"
         inkscape:connector-curvature="0" />
    </g>
  </g>
</svg>
