<?xml version="1.0" encoding="UTF-8" standalone="no"?>
<!-- Created with Inkscape (http://www.inkscape.org/) -->

<svg
   xmlns:dc="http://purl.org/dc/elements/1.1/"
   xmlns:cc="http://creativecommons.org/ns#"
   xmlns:rdf="http://www.w3.org/1999/02/22-rdf-syntax-ns#"
   xmlns:svg="http://www.w3.org/2000/svg"
   xmlns="http://www.w3.org/2000/svg"
   xmlns:sodipodi="http://sodipodi.sourceforge.net/DTD/sodipodi-0.dtd"
   xmlns:inkscape="http://www.inkscape.org/namespaces/inkscape"
   version="1.1"
   id="svg2949"
   width="283"
   height="443"
   viewBox="0 0 283 443"
   sodipodi:docname="feu93.svg"
   inkscape:version="0.92.4 (5da689c313, 2019-01-14)">
  <metadata
     id="metadata2955">
    <rdf:RDF>
      <cc:Work
         rdf:about="">
        <dc:format>image/svg+xml</dc:format>
        <dc:type
           rdf:resource="http://purl.org/dc/dcmitype/StillImage" />
        <dc:title></dc:title>
      </cc:Work>
    </rdf:RDF>
  </metadata>
  <defs
     id="defs2953" />
  <sodipodi:namedview
     pagecolor="#ffffff"
     bordercolor="#666666"
     borderopacity="1"
     objecttolerance="10"
     gridtolerance="10"
     guidetolerance="10"
     inkscape:pageopacity="0"
     inkscape:pageshadow="2"
     inkscape:window-width="1280"
     inkscape:window-height="972"
     id="namedview2951"
     showgrid="false"
     inkscape:zoom="1.5067919"
     inkscape:cx="112.64858"
     inkscape:cy="221.5"
     inkscape:window-x="-8"
     inkscape:window-y="-8"
     inkscape:window-maximized="1"
     inkscape:current-layer="g151"
     showguides="false" />
  <g
     id="g151"
     transform="translate(25.882805,-2.654647)">
    <path
       style="fill:#00ffff"
       d="m 99.884505,321.26483 c -2.135795,-3.60835 -1.05617,-21.79877 2.839725,-47.84596 1.31851,-8.81532 2.00702,-12.63468 4.03701,-22.39464 0.28274,-1.35942 0.8652,-2.00789 1.34731,-1.5 0.46708,0.49205 0.44234,5.39464 -0.055,10.89464 -0.49732,5.5 -1.78846,20.993 -2.8692,34.42888 -1.41718,17.61873 -2.36001,24.82393 -3.38205,25.84596 -0.77939,0.7794 -1.64241,1.0364 -1.917815,0.57112 z m 10.341215,-1.59596 c -0.92496,-2.4244 -0.84124,-6.01286 1.03735,-44.45945 0.9349,-19.13359 1.55158,-25.33216 2.55865,-25.71861 0.99693,-0.38256 1.36616,0.91281 1.48488,5.20944 0.32175,11.6444 -0.3093,63.77872 -0.79245,65.46862 -0.70681,2.47217 -3.26843,2.1735 -4.28843,-0.5 z m 12.69322,-0.1225 c -1.9535,-1.9535 -2.60497,-10.63704 -3.23557,-43.1275 -0.31778,-16.37293 -0.16599,-24.95942 0.40994,-23.18969 0.50301,1.54566 1.20185,6.94566 1.55298,12 0.35112,5.05433 1.05483,12.56469 1.5638,16.68969 1.62799,13.19435 3.2218,30.39372 3.14035,33.88857 -0.0995,4.26915 -1.44032,5.7301 -3.4315,3.73893 z M 86.815248,319.2522 c -1.27881,-1.27881 -0.63382,-6.93057 2.37756,-20.83333 1.66784,-7.7 4.70269,-22.06451 6.74411,-31.92113 2.187117,-10.56009 4.225102,-18.09043 4.961672,-18.33333 2.03843,-0.6722 1.51907,4.37035 -3.63108,35.25446 -5.357702,32.12879 -7.344732,38.94087 -10.452262,35.83333 z m 48.516292,-2.02256 c -1.36806,-2.60087 -3.7916,-16.05085 -6.70139,-37.19076 -1.39144,-10.10899 -2.95802,-20.23399 -3.48128,-22.5 -1.33997,-5.80279 -1.26081,-10.87352 0.16235,-10.39913 0.63944,0.21314 1.2812,1.03814 1.42613,1.83333 0.14493,0.79518 1.19053,5.27079 2.32355,9.94579 3.9921,16.47191 9.26832,45.88329 9.42707,52.54959 0.16419,6.89485 -1.22572,9.43174 -3.15643,5.76118 z m -60.971852,-0.49966 c -2.06818,-2.06818 -1.37256,-5.68831 3.40166,-17.70286 2.53702,-6.38454 7.44938,-20.24345 10.91635,-30.79757 3.46697,-10.55413 6.81271,-20.00413 7.434982,-21 1.42907,-2.28708 3.076565,-8.84258 -13.618522,54.18932 -3.51569,13.27339 -5.82517,17.62041 -8.13447,15.31111 z m 73.698152,-1.04472 c -1.40779,-1.40779 -2.26173,-4.30637 -11.27343,-38.26639 -5.41339,-20.40004 -7.03578,-27.80011 -6.46821,-29.50284 0.4879,-1.4637 7.70439,17.85241 10.83544,29.00284 1.15831,4.125 3.16406,10.65 4.45723,14.5 5.83669,17.37685 6.55405,20.59456 5.17722,23.22234 -1.12518,2.14748 -1.48654,2.28577 -2.72825,1.04405 z m -85.909262,-4.23144 c 0,-2.79749 3.087619,-10.5277 9.88269,-24.74245 10.88542,-22.77146 14.63045,-30.89923 17.06805,-37.0425 2.19653,-5.53575 4.04926,-7.45075 4.04926,-4.18538 0,1.46112 -1.48331,5.4826 -6.06214,16.43538 -1.03468,2.475 -3.41815,8.325 -5.2966,13 -7.06105,17.57323 -13.899528,33.46453 -15.359776,35.69315 -1.691266,2.5812 -4.281484,3.09047 -4.281484,0.8418 z m 97.273062,-2.2228 c -3.14519,-4.76793 -24.85772,-63.06081 -23.86005,-64.05848 0.801,-0.801 4.75235,5.9475 7.0383,12.02072 3.08653,8.20016 10.81755,25.61839 14.52514,32.72561 4.62204,8.86017 7.17641,16.5428 6.4554,19.41554 -0.82696,3.29489 -1.93527,3.26734 -4.15879,-0.10339 z M 51.148578,304.35313 c 0,-3.1771 0.148794,-3.45912 11.836452,-22.43426 5.250938,-8.525 10.866258,-17.975 12.478498,-21 5.80172,-10.88565 10.79029,-19 11.68089,-19 1.07249,0 0.74313,0.74698 -9.48003,21.5 -18.017595,36.57573 -26.51581,49.69501 -26.51581,40.93426 z M 170.3181,304.16887 c -1.8199,-1.55202 -10.16951,-16.96234 -10.16951,-18.7692 0,-0.80972 -6.51744,-13.88626 -13.36461,-26.81463 -6.01201,-11.35148 -7.72172,-15.49478 -6.66369,-16.14868 1.20134,-0.74247 8.1575,10.87637 20.94391,34.98251 1.45866,2.75 4.84055,8.375 7.51532,12.5 3.23266,4.98537 5.02515,8.92495 5.3462,11.75 0.52916,4.6564 -0.35807,5.27123 -3.60762,2.5 z M 39.148578,298.04701 c 0,-1.90121 2.535793,-5.51109 26.526455,-37.76229 13.030985,-17.51785 16.049725,-21.123 16.940925,-20.2318 0.87543,0.87542 -30.492238,48.05269 -36.978449,55.61595 -3.865898,4.50784 -6.488931,5.46916 -6.488931,2.37814 z m 139.911962,-1.37814 c -1.63643,-1.7875 -4.01355,-4.825 -5.28251,-6.75 -4.48188,-6.79901 -10.44002,-16.56061 -13.12285,-21.5 -1.49367,-2.75 -3.06269,-5.45 -3.48672,-6 -0.42404,-0.55 -2.47598,-4.15 -4.55987,-8 -2.0839,-3.85 -4.82798,-8.54942 -6.09796,-10.44315 -1.26999,-1.89374 -2.09421,-3.65801 -1.83161,-3.92061 0.94563,-0.94564 5.55496,4.35416 11.11324,12.77799 8.92497,13.52619 15.91309,23.74944 24.91201,36.44496 3.32827,4.69547 4.66249,10.64081 2.38795,10.64081 -0.581,0 -2.39526,-1.4625 -4.03168,-3.25 z m 12.51753,-5.52224 c -1.13878,-0.95027 -3.61378,-3.75127 -5.5,-6.22446 -1.88621,-2.47318 -3.97056,-5.17318 -4.63189,-6 -0.66132,-0.82681 -4.98281,-6.2283 -9.60331,-12.0033 -15.02701,-18.78175 -23.75132,-32 -21.12063,-32 0.7251,0 8.19877,8.16602 17.07129,18.65274 3.77028,4.45622 10.90506,12.79758 15.85506,18.53635 10.50701,12.18128 13.03693,15.48151 12.9,16.82776 -0.055,0.54073 -0.1675,1.65815 -0.25,2.48315 -0.19797,1.97966 -2.1573,1.86667 -4.72052,-0.27224 z M 29.815245,290.2522 c -2.15449,-2.15449 0.419514,-5.73764 14.175428,-19.73294 8.163152,-8.30522 17.050652,-17.56339 19.75,-20.57372 10.338615,-11.52971 12.751295,-14.01662 13.181175,-13.58673 0.24423,0.24423 -2.41734,4.17128 -5.914608,8.72678 -8.292338,10.80151 -8.822379,11.47558 -12.358662,15.71674 -1.65,1.9789 -3.323616,4.05216 -3.719148,4.60727 -3.543864,4.97357 -18.41876,21.82731 -20.69507,23.44819 -3.19682,2.27633 -3.455553,2.35798 -4.419115,1.39441 z M 200.54404,279.55446 c -6.72633,-5.05903 -34.76441,-32.53543 -41.14545,-40.32118 -4.22513,-5.15525 -5.5419,-8.17183 -2.88712,-6.6141 1.23718,0.72593 9.34694,7.33923 12.03512,9.81433 2.69805,2.48419 23.43963,21.20503 26.53019,23.9455 11.62916,10.31187 14.14663,13.01675 13.86678,14.89912 -0.48796,3.28221 -2.21512,2.92778 -8.39952,-1.72367 z M 21.148578,280.456 c 0,-2.7694 2.952747,-5.86671 18.953323,-19.88128 5.749328,-5.03572 15.505513,-13.76835 21.680412,-19.40585 6.174899,-5.6375 11.483405,-10.25 11.796675,-10.25 2.41709,0 -2.11708,5.28533 -20.017767,23.33402 -19.377663,19.53788 -29.408976,28.66598 -31.502441,28.66598 -0.500611,0 -0.910202,-1.10829 -0.910202,-2.46287 z M 210.24828,270.16887 c -12.57142,-8.77302 -23.89254,-17.45251 -30.48154,-23.36911 -2.68332,-2.40949 -5.92294,-5.07283 -7.19914,-5.91853 -3.70723,-2.45666 -12.57245,-11.14225 -11.97871,-11.73599 0.53825,-0.53826 10.23113,5.88674 24.5597,16.27958 4.125,2.99195 8.85,6.17643 10.5,7.07661 3.54188,1.93231 16.81857,11.71613 20.75,15.29102 3.12847,2.84475 3.65698,6.12642 0.98665,6.12642 -0.96984,0 -4.18147,-1.6875 -7.13696,-3.75 z m -196.397852,2.11852 c -1.382667,-1.38267 1.745764,-4.50287 13.016379,-12.98213 6.479974,-4.8751 18.081771,-13.77573 25.781771,-19.77918 7.7,-6.00345 14.581572,-11.36696 15.292382,-11.91891 0.833644,-0.64733 1.636186,-0.65973 2.260968,-0.035 1.05605,1.0561 -10.202285,11.38411 -33.05335,30.32204 -15.32328,12.69924 -21.299863,16.39146 -23.29815,14.39318 z M 9.337841,261.17462 c 0.320994,-1.66679 10.135768,-8.5379 41.611435,-29.13127 13.086708,-8.56215 17.532434,-10.64066 14.218445,-6.64755 -1.469617,1.77078 -28.958518,22.13181 -42.220976,31.27307 -9.109262,6.27864 -14.280028,7.99062 -13.608904,4.50575 z m 206.756529,-1.18211 c -21.75704,-14.32122 -52.51081,-35.37531 -52.77911,-36.1327 -0.71517,-2.0188 2.25118,-0.69612 12.09437,5.39282 13.75716,8.51009 21.38814,12.99402 26.49007,15.56543 11.16355,5.62651 22.24889,14.21406 22.24889,17.23567 0,1.74303 -3.72172,0.79057 -8.05422,-2.06122 z M 0.66135105,253.93954 c -1.148081,-1.85764 1.46723095,-4.83241 6.22027795,-7.07522 17.55135,-8.28194 34.854469,-16.80477 41.266949,-20.32648 9.978902,-5.48037 15,-7.70894 15,-6.6576 0,0.73844 -8.840846,6.23769 -19.5,12.12955 -1.65,0.91203 -7.05,4.1806 -12,7.26347 C 6.602114,254.87227 2.451836,256.8366 0.66135105,253.93954 Z M 216.64859,248.03722 c -19.75424,-10.25523 -35.50657,-19.10279 -47.98697,-26.95266 -8.0199,-5.04432 -1.14142,-3.15953 12.24187,3.35443 7.55981,3.67954 16.2201,7.8664 19.2451,9.30414 3.025,1.43774 7.075,3.54799 9,4.68945 1.925,1.14145 6.54551,3.34687 10.26781,4.90092 7.61365,3.17868 11.73219,6.0425 11.73219,8.15795 0,2.59775 -5.25266,1.34645 -14.5,-3.45423 z m -105.12563,-4.76289 c -0.68178,-2.71643 0.27118,-30.4903 1.30494,-38.03244 0.53469,-3.90097 0.41061,-4.2055 -1.65026,-4.05026 -1.63297,0.12301 -4.13432,2.98149 -9.36108,10.69755 -11.437262,16.88442 -20.362532,24.5952 -22.380892,19.33545 -0.47587,-1.24009 1.35988,-3.58556 6.84846,-8.75 11.039692,-10.38772 24.382952,-24.55576 23.126272,-24.55576 -0.60112,0 -5.74344,4.3875 -11.42739,9.75 -13.968642,13.17869 -20.294252,18.25 -22.763842,18.25 -3.77702,0 -2.45129,-3.77532 2.55312,-7.27061 2.54304,-1.77616 9.22754,-6.82939 14.85445,-11.22939 5.626907,-4.4 11.083752,-8.53604 12.126302,-9.19119 1.04255,-0.65516 1.41314,-1.21766 0.82353,-1.25 -0.58961,-0.0324 -8.18384,4.67185 -16.876062,10.45377 -15.54783,10.34217 -19.399868,12.31747 -21.495095,11.02255 -1.448531,-0.89525 -1.331075,-4.08176 0.193165,-5.24049 0.6875,-0.52264 3.5,-1.77343 6.25,-2.77954 8.33185,-3.04827 32.802692,-14.91421 31.590512,-15.31827 -1.15289,-0.38429 -16.086782,4.54039 -29.911182,9.86369 -4.198539,1.61671 -8.826374,2.93948 -10.284075,2.93948 -3.391256,0 -5.40139,-2.27317 -4.087017,-4.62182 1.149511,-2.05407 5.984608,-3.40176 24.691762,-6.88239 7.7,-1.43265 15.350012,-3.00527 17.000012,-3.4947 5.23836,-1.55383 -13.171812,0.007 -24.500012,2.07704 -11.837035,2.1631 -15.735848,2.353 -19.4349,0.94662 -2.877184,-1.0939 -3.487542,-4.4568 -0.983313,-5.41776 0.869984,-0.33385 8.969984,-0.60699 18.000003,-0.60699 16.75196,0 21.825252,-1.21891 9.66821,-2.32289 -22.574935,-2.05002 -28.796729,-3.71263 -28.029917,-7.49024 0.274503,-1.35231 1.427048,-1.6649 5.811166,-1.57608 6.838544,0.13855 26.669871,4.87738 36.468758,8.71446 l 3.000005,1.17475 -4.500005,0.59981 -4.500007,0.5998 5.309027,0.1502 c 2.919965,0.0826 5.071075,-0.2348 4.780265,-0.70535 -0.29082,-0.47055 0.64951,-0.63031 2.08961,-0.35501 1.54338,0.29503 2.37349,0.10432 2.02192,-0.46453 -0.32804,-0.53079 -0.80036,-2.05853 -1.04959,-3.39499 -0.27237,-1.46056 -6.67609,-8.59664 -16.052192,-17.88801 -14.63362,-14.50138 -17.1821,-17.9455 -14.50369,-19.60085 2.34311,-1.44812 6.54464,2.58599 19.09077,18.33007 7.165232,8.99161 13.259392,16.11669 13.542582,15.8335 0.28319,-0.28318 -3.2957,-6.27258 -7.95309,-13.30976 -9.978192,-15.07676 -16.076622,-26.06807 -15.417162,-27.78661 0.25976,-0.67691 1.44505,-1.48513 2.63399,-1.79604 2.57564,-0.67355 4.16643,1.73023 11.104657,16.77984 4.970275,10.78095 9.871385,19.6691 9.890865,17.93705 0.007,-0.58898 -1.82441,-6.21398 -4.06898,-12.5 -7.90455,-22.13706 -8.1662,-23.09112 -7.021535,-25.60337 1.18519,-2.60121 2.376795,-2.9346 3.844935,-1.07575 0.54299,0.6875 3.18559,9.98942 5.87244,20.67092 2.68686,10.68151 5.03634,18.63968 5.22107,17.68482 0.18473,-0.95487 -0.44408,-5.19428 -1.39735,-9.42093 -2.08038,-9.22401 -2.57866,-29.27401 -0.74319,-29.90446 0.6588,-0.22629 2.15976,1.70644 3.34392,4.30582 1.99221,4.37318 2.11589,5.92434 1.69958,21.31512 -0.46799,17.30125 0.24786,25.36544 1.56223,17.59871 0.3723,-2.2 0.69162,-6.925 0.7096,-10.5 0.0433,-8.61542 2.38214,-25.99693 3.87291,-28.78247 1.40006,-2.61604 5.87018,-3.0228 6.79294,-0.61813 0.55689,1.45124 -1.55265,11.84217 -5.05526,24.9006 -2.02883,7.56388 -2.90423,13.14247 -1.88307,12 0.49161,-0.55 2.39397,-5.49217 4.22749,-10.9826 3.50825,-10.50542 7.08836,-17.84539 10.1294,-20.7674 2.20565,-2.11931 3.29066,-2.19506 4.8324,-0.33738 1.46657,1.76711 -0.56378,7.05897 -4.76736,12.42558 -3.43549,4.38599 -10.5623,16.92452 -13.97115,24.58009 -2.18035,4.89661 0.90915,1.54908 7.47258,-8.09668 3.21115,-4.71916 7.86345,-11.5596 10.33845,-15.20096 4.68918,-6.89899 7.58952,-8.52511 10.00792,-5.6111 1.16136,1.39934 0.31166,2.66048 -6.60163,9.79825 -12.73758,13.15121 -15.87698,16.6922 -14.79908,16.6922 0.55721,0 2.33604,-1.25988 3.95295,-2.79973 13.90878,-13.24588 17.53792,-16.20027 19.90026,-16.20027 1.39677,0 2.53958,0.39823 2.53958,0.88496 0,0.48672 -3.9375,3.85832 -8.75,7.49244 -10.34049,7.80853 -21.23909,17.61824 -19.57673,17.62079 0.64531,0.001 2.44531,-1.04729 4,-2.32953 1.5547,-1.28224 8.22673,-6.00566 14.82673,-10.49648 9.22101,-6.27425 12.52106,-8.02316 14.25,-7.55203 2.48424,0.67694 2.93436,2.56699 0.99471,4.17676 -0.69041,0.57299 -8.56541,4.67342 -17.5,9.11207 -8.93459,4.43864 -16.24471,8.53097 -16.24471,9.09406 0,1.17114 1.14142,0.7098 19.71472,-7.96831 13.16775,-6.15243 18.78528,-7.37039 18.78528,-4.07289 0,1.55747 -1.61876,2.18058 -23.5,9.04588 -23.48865,7.36963 -18.85214,7.79334 11.36533,1.03862 10.70888,-2.39383 14.63467,-2.14872 14.63467,0.9137 0,1.05706 -0.50068,2.23136 -1.11262,2.60956 -0.61195,0.37821 -10.17445,1.52076 -21.25,2.53902 -11.07556,1.01825 -21.26238,2.00878 -22.63738,2.20116 -1.375,0.19239 7.19238,0.31389 19.03863,0.27001 19.11186,-0.0708 21.8477,0.12233 24.28186,1.71414 1.50878,0.98666 2.47734,2.22416 2.15236,2.75 -1.22185,1.97699 -31.35021,0.0155 -34.14705,-2.22316 -1.04799,-0.83882 -4.35044,-0.61709 -11.00915,0.73917 -1.20084,0.24459 -2.46867,1.34366 -2.81739,2.44238 -0.34872,1.09873 -1.27871,1.99768 -2.06665,1.99768 -0.91225,0 -1.43261,1.04733 -1.43261,2.88342 0,2.27642 0.5228,2.98337 2.48345,3.35817 2.23963,0.42813 2.42332,0.21867 1.8709,-2.13342 -0.74258,-3.16173 -0.0339,-2.49322 5.18587,4.89183 2.13808,3.025 6.94119,9.6142 10.67359,14.64267 6.72786,9.06409 8.56412,13.84638 5.05731,13.17103 -1.78722,-0.34419 -6.69401,-7.23551 -11.97176,-16.8137 -5.29367,-9.60708 -6.78149,-11.98719 -7.49734,-11.99368 -1.1602,-0.0105 1.25051,5.88803 7.27129,17.79148 3.4651,6.8507 5.5135,12.06623 5.20394,13.25 -1.25401,4.79534 -4.5035,0.50803 -8.65973,-11.42544 -3.33413,-9.57305 -5.60173,-13.99528 -4.16493,-8.12236 2.24047,9.15786 3.51467,16.49375 3.53005,20.32332 0.0142,3.527 -0.29414,4.26334 -1.67382,3.99764 -1.0871,-0.20936 -2.29412,-2.35677 -3.3792,-6.01197 -1.70942,-5.75835 -4.92543,-28.38298 -4.94797,-34.80899 -0.008,-2.27082 -0.30661,-3.03579 -0.85036,-2.17819 -0.82316,1.29827 -0.74281,8.21983 0.33974,29.26423 0.60366,11.73509 -0.0323,16.91396 -2.07698,16.91396 -0.74577,0 -1.65463,-1.19004 -2.01968,-2.64454 z m -10.45405,-0.95146 c -1.121825,-1.35172 -0.67605,-3.53285 2.91239,-14.25 2.33032,-6.9597 4.22128,-13.2165 4.20212,-13.904 -0.0192,-0.6875 0.43067,-1.25 0.99961,-1.25 1.16583,0 0.6571,5.74366 -1.67792,18.94387 -2.06628,11.68098 -3.49539,14.00358 -6.4362,10.46013 z m 125.55524,-1.94944 c -17.61711,-5.10154 -64.82933,-27.45456 -57.98727,-27.45456 0.26856,0 4.38408,1.61266 9.14559,3.5837 4.76152,1.97103 19.50429,7.19283 32.76171,11.60398 22.56815,7.50912 26.60441,9.38983 26.60441,12.39646 0,2.22312 -2.50647,2.19226 -10.52444,-0.12958 z m -227.34959595,0.19723 c -0.84869595,-1.02261 -0.69714195,-1.72189 0.627555,-2.89554 2.89565595,-2.56549 18.96301595,-9.66667 32.24646895,-14.25174 6.875,-2.37305 14.975,-5.3023 18,-6.50944 7.160372,-2.85738 10,-3.47428 10,-2.17247 0,2.01845 -53.477843,27.1774 -57.768273,27.1774 -1.092761,0 -2.49034895,-0.60669 -3.10575095,-1.34821 z M 89.738008,238.29132 c -0.3435,-0.89515 0.17085,-2.8939 1.14301,-4.44167 0.97216,-1.54777 4.5877,-7.54354 8.034537,-13.32393 7.796455,-13.07475 10.068505,-15.055 6.864135,-5.98258 -2.0607,5.83439 -9.70194,21.63423 -11.426052,23.62573 -1.89778,2.1921 -3.80204,2.24263 -4.61563,0.12245 z m -96.257559,-8.94999 c -1.298659,-3.38425 3.8353971,-5.4821 31.668129,-12.94004 9.625,-2.57907 20.634675,-5.53552 24.465944,-6.56988 3.95732,-1.06839 7.342214,-1.50438 7.837132,-1.00946 1.106513,1.10651 0.50473,1.42735 -6.803076,3.62713 -3.3,0.99335 -16.486408,5.55543 -29.303129,10.13794 -12.816721,4.58252 -24.1933439,8.33185 -25.281385,8.33185 -1.088041,0 -2.250667,-0.70989 -2.583615,-1.57754 z m 217.560211,-5.41845 c -36.32677,-10.45827 -45.89633,-14.00401 -37.79525,-14.00401 3.61279,0 13.71145,2.06829 31.90318,6.53403 5.775,1.41766 13.60159,3.23475 17.39243,4.03798 9.5845,2.03082 15.60757,4.83063 15.60757,7.25513 0,1.06678 -0.83607,2.15823 -1.85793,2.42546 -1.02186,0.26722 -12.38436,-2.54464 -25.25,-6.24859 z m -66.45236,-1.2282 c -3.32953,-3.45169 -8.72804,-9.41378 -11.9967,-13.24907 -4.85052,-5.69139 -5.31647,-6.51861 -2.53471,-4.5 1.87457,1.36029 7.94957,5.63393 13.5,9.49697 9.49364,6.60746 10.0917,7.22891 10.0917,10.4863 0,5.3304 -2.31381,4.75983 -9.06029,-2.2342 z M -9.101422,217.83877 c -0.9625,-0.5606 -1.75,-1.6416 -1.75,-2.4022 0,-1.96999 3.847685,-2.95771 28,-7.18779 26.18767,-4.58656 37.487375,-6.16467 38.337132,-5.35413 1.31176,1.2512 0.261649,1.60086 -16.337132,5.43987 -3.575,0.82683 -14.954283,3.54656 -25.287296,6.04384 -20.490789,4.95221 -20.419807,4.94151 -22.962704,3.46041 z m 156.250012,-6.05501 c -5.225,-2.75731 -10.21043,-5.65491 -11.07874,-6.43909 -0.86831,-0.78419 -1.90468,-1.4258 -2.30305,-1.4258 -0.39838,0 -2.3799,-1.125 -4.4034,-2.5 -2.02349,-1.375 -3.46212,-2.49837 -3.19694,-2.49637 0.46701,0.004 6.24761,2.15961 23.98213,8.94509 4.675,1.78873 9.29875,4.17076 10.275,5.29342 2.03182,2.33651 2.05358,2.28435 -1.275,3.05628 -1.81518,0.42096 -5.10233,-0.79351 -12,-4.43353 z m 77,3.49354 c -1.375,-0.20307 -7.675,-1.09071 -14,-1.97253 -6.325,-0.88183 -14.2,-2.26921 -17.5,-3.08307 -3.3,-0.81385 -7.35,-1.64273 -9,-1.84195 -6.55008,-0.79083 -10.87507,-2.08609 -11.30862,-3.38673 -0.36195,-1.08587 0.54801,-1.23701 4.4265,-0.73519 8.95155,1.15819 33.72504,3.67703 46.88212,4.76672 13.04709,1.08059 17.5,2.45905 17.5,5.41737 0,1.17931 -1.46105,1.44951 -7.25,1.34077 -3.9875,-0.0749 -8.375,-0.30233 -9.75,-0.50539 z m -235.250012,-8.38355 c -2.424974,-1.4886 -2.18773,-3.83666 0.5,-4.94863 2.860622,-1.18349 16.477875,-2.82935 28.75,-3.47488 29.630723,-1.55862 34,-1.63722 34,-0.61161 0,0.58313 -0.1125,1.06285 -0.25,1.06603 -0.1375,0.003 -2.95,0.45751 -6.25,1.0096 -5.993397,1.00271 -44.87991595,6.72776 -51.5,7.58207 -1.925,0.24842 -4.2875,-0.0317 -5.25,-0.62258 z M 159.14859,206.3754 c -13.79062,-4.18206 -20.77132,-6.40066 -23,-7.30987 l -2.5,-1.01989 3,-0.0404 c 3.92761,-0.0529 28.0906,3.54257 29.44883,4.38201 1.60274,0.99054 1.25258,4.24035 -0.53062,4.92463 -0.86998,0.33385 -1.65748,0.56675 -1.75,0.51757 -0.0925,-0.0492 -2.19321,-0.7035 -4.66821,-1.45405 z m 46,-2.97315 c -7.425,-0.69244 -16.84227,-1.57593 -20.92726,-1.96332 -8.34719,-0.79159 -12.48708,-2.04062 -11.58758,-3.49604 0.3739,-0.60499 6.2299,-0.78942 15.31017,-0.48218 8.08757,0.27366 22.69923,0.66657 32.47036,0.87313 14.45695,0.30562 18.23994,0.68631 20.31209,2.04403 4.7545,3.11527 2.51362,4.03333 -10.15948,4.16217 -6.55507,0.0666 -17.9933,-0.44536 -25.4183,-1.13779 z m -78.55887,-6.96964 c -1.80243,-1.38006 -1.72677,-1.42139 1.05887,-0.57841 5.66065,1.71301 5.99662,1.90688 3.44113,1.98572 -1.40738,0.0434 -3.43238,-0.58987 -4.5,-1.40731 z m -138.441142,-3.30922 c -2.059053,-1.69876 -2.270124,-2.29555 -1.196689,-3.38354 1.020761,-1.0346 6.549008,-1.27449 25.5,-1.10654 26.938111,0.23874 41.333131,1.0658 40.048444,2.30098 -1.314578,1.26392 -20.631001,2.91708 -42.271443,3.61772 -18.795378,0.60852 -19.680532,0.55125 -22.080312,-1.42862 z m 188.750012,0.0809 c -2.0625,-0.22339 -3.75,-0.77655 -3.75,-1.22923 0,-1.11169 3.42544,-1.69004 11.57179,-1.95377 3.74559,-0.12126 7.11249,-0.40732 7.48201,-0.63569 1.22365,-0.75626 44.67841,-1.75078 47.33753,-1.08338 1.65705,0.41589 2.60867,1.34216 2.60867,2.53917 0,1.55011 -0.93141,1.96338 -5.25,2.32941 -6.56463,0.55641 -54.92296,0.5834 -60,0.0335 z m -4.20729,-7.21634 c -0.31644,-0.512 -0.19651,-1.16503 0.2665,-1.45118 0.85655,-0.52938 27.40031,-5.12851 34.69079,-6.01074 2.2,-0.26622 9.625,-1.38219 16.5,-2.47992 6.875,-1.09774 13.57628,-1.91294 14.89173,-1.81157 2.45425,0.18913 5.06472,3.0612 3.86909,4.25682 -1.37526,1.37527 -18.48784,3.88777 -47.26082,6.93893 -16.20214,1.71811 -22.15079,1.86261 -22.95729,0.55766 z M 21.148578,183.87323 c -15.125,-0.97328 -28.7375,-2.25004 -30.25,-2.83723 -3.000131,-1.16474 -3.66771,-3.82774 -1.197216,-4.77576 3.472632,-1.33257 40.778376,2.96276 58.220554,6.70344 5.196749,1.1145 7.274358,3.0808 2.976662,2.81718 -1.2375,-0.0759 -14.625,-0.93434 -29.75,-1.90763 z m 63.32064,-3.92546 c -20.491386,-7.03505 -24.275709,-9.09765 -22.9639,-12.51617 1.272089,-3.31501 6.672079,-1.58545 22.24959,7.12629 14.014542,7.83765 18.002612,10.45596 15.702697,10.30944 -0.44496,-0.0284 -7.189737,-2.24215 -14.988387,-4.91956 z m 14.288607,0.32537 c -1.589925,-0.8611 -5.576927,-3.54309 -8.860017,-5.95996 -3.28308,-2.41687 -6.37667,-4.39431 -6.87462,-4.39431 -0.49796,0 -3.48596,-1.6875 -6.63999,-3.75 -8.333674,-5.44958 -10.930815,-9.43734 -6.552305,-10.06068 4.170735,-0.59376 9.231435,3.04804 25.650665,18.4588 7.901332,7.41603 8.563862,8.56994 3.276267,5.70615 z m 73.890765,-0.0635 c 0.55,-0.51862 6.175,-2.2095 12.5,-3.75751 13.60547,-3.32987 33.66946,-8.85616 40,-11.01732 2.475,-0.84493 6.975,-1.64418 10,-1.7761 5.00288,-0.21817 5.52846,-0.0397 5.81492,1.9748 0.24521,1.72447 -0.30813,2.35626 -2.5,2.85441 -1.54821,0.35187 -5.28992,1.2369 -8.31492,1.96674 -3.025,0.72984 -11.8,2.51408 -19.5,3.96497 -34.19976,6.44417 -39.5599,7.26089 -38,5.79001 z M 41.648578,178.45069 c -3.85,-0.68898 -13.151854,-2.23155 -20.670786,-3.42792 -7.518933,-1.19636 -16.743933,-2.82635 -20.49999995,-3.62219 -3.75606805,-0.79584 -7.13457105,-1.4548 -7.50778505,-1.46435 -1.31348,-0.0336 -3.833029,-3.18957 -3.271603,-4.09798 0.312514,-0.50566 1.697993,-0.91938 3.078842,-0.91938 2.798173,0 28.288742,4.98893 38.371332,7.50991 3.575,0.89387 9.599063,2.25903 13.386807,3.03369 8.899778,1.82015 10.613193,2.38904 10.613193,3.52379 0,1.21378 -4.785716,1.02392 -13.5,-0.53557 z m 130.050012,-4.46656 c 0.5225,-0.5141 6.125,-2.71267 12.45,-4.88571 6.325,-2.17303 16.45,-5.86057 22.5,-8.19453 20.99257,-8.09846 23.60599,-8.98502 26.48647,-8.98502 3.7184,0 4.76924,1.72938 2.38489,3.92484 -2.08329,1.91824 -15.17481,6.40255 -31.87136,10.91705 -32.22564,8.71335 -33.83383,9.07693 -31.95,7.22337 z M 42.648578,170.20265 c -6.05,-1.95382 -12.446732,-3.76436 -14.214959,-4.02341 -1.768228,-0.25905 -3.713629,-1.07186 -4.323113,-1.80624 -0.609485,-0.73439 -1.738495,-1.09336 -2.508913,-0.79773 -1.26038,0.48366 -14.642461,-3.12102 -21.74123195,-5.85634 -4.74952405,-1.8301 -6.04400505,-6.80006 -1.77114995,-6.80006 1.00242995,0 9.6383719,2.96329 19.1909829,6.58509 9.552611,3.6218 21.016464,7.84649 25.475228,9.3882 9.392253,3.24757 12.393156,4.71541 12.393156,6.06189 0,1.29274 0.07099,1.30836 -12.5,-2.7514 z M 168.6607,169.93847 c -0.45162,-0.73075 2.65188,-2.90324 8.57543,-6.00291 0.87315,-0.4569 6.49815,-2.73451 12.5,-5.06136 6.00185,-2.32685 11.36246,-4.56542 11.91246,-4.9746 2.96247,-2.20397 25.7646,-11.98073 27.94239,-11.98073 4.08821,0 3.31885,3.38276 -1.19239,5.24274 -2.0625,0.85037 -13.2,5.472 -24.75,10.27029 -24.6468,10.23918 -34.26448,13.67706 -34.98789,12.50657 z M 47.148578,162.75224 c -4.675,-2.20796 -11.875,-5.26225 -16,-6.78731 C 3.015973,145.564 -1.8514219,143.33271 -1.8514219,140.83721 c 0,-3.93429 17.3099849,2.67417 39.4999999,15.07996 4.95,2.7674 10.8,5.89789 13,6.95663 2.2,1.05875 4.675,2.39513 5.5,2.96972 3.024219,2.10631 -0.712434,0.82286 -9,-3.09128 z m 120.000012,2.27362 c 0,-1.10907 3.07642,-2.36391 3.86417,-1.57616 0.31785,0.31786 -0.0841,0.99656 -0.89313,1.50823 -1.86986,1.18254 -2.97104,1.20771 -2.97104,0.0679 z M 50.148578,157.63429 c -5.225,-2.74811 -17.375,-9.02417 -27,-13.94682 C 5.27207,134.54464 1.38608,131.96164 2.586239,130.01974 c 1.561993,-2.52736 7.494764,-0.11072 24.062339,9.80149 21.409388,12.80903 32.237672,19.48465 33.345961,20.55776 3.167675,3.06711 -1.010288,1.90245 -9.845961,-2.7447 z m 122.000012,4.46284 c 0,-0.45196 2.3625,-1.88138 5.25,-3.1765 2.8875,-1.29511 8.85,-4.65963 13.25,-7.47672 18.37962,-11.76747 35.42423,-20.30793 37.71008,-18.89521 1.70199,1.05189 -1.93039,4.27839 -8.60385,7.64246 -25.01428,12.60961 -45.76715,22.72771 -46.61599,22.72771 -0.54463,0 -0.99024,-0.36978 -0.99024,-0.82174 z m -6.95436,-3.31325 c 0.0597,-1.78557 8.48226,-8.05909 29.95436,-22.31144 20.57396,-13.6562 25.61851,-16.35058 27.32465,-14.59457 1.43614,1.47811 -3.35385,5.92692 -11.47471,10.65738 -2.94247,1.71401 -10.97494,6.38676 -17.84994,10.38389 -11.20958,6.51726 -16.331,9.64961 -25.25,15.44336 -2.10617,1.36816 -2.73931,1.46681 -2.70436,0.42138 z M 58.648578,154.12036 c -2.2,-1.407 -9.175,-5.96542 -15.5,-10.12983 -6.325,-4.16441 -13.075,-8.39607 -15,-9.40368 -5.17286,-2.70766 -18.487282,-13.01085 -18.308739,-14.16798 0.08486,-0.55 0.810129,-1.41369 1.6117,-1.91931 1.609763,-1.01541 10.500057,4.40252 21.404496,13.04435 3.383227,2.68123 10.582176,8.11353 15.997664,12.07179 9.579319,7.00165 15.07027,11.89913 14.215489,12.67906 -0.231336,0.21108 -2.22061,-0.7674 -4.42061,-2.1744 z m 102.500012,-0.0965 c 0,-1.24143 5.21981,-5.83235 31,-27.26512 17.91415,-14.89321 21.70598,-17.53386 23.13118,-16.10866 2.45855,2.45854 -0.0927,6.2243 -7.80718,11.5237 -4.19949,2.88482 -12.96329,8.95762 -19.4751,13.49512 -6.51181,4.5375 -12.26938,8.25 -12.79459,8.25 -0.52521,0 -1.31479,0.63526 -1.75462,1.41169 -0.86474,1.52648 -10.69602,9.58828 -11.69285,9.58828 -0.33376,0 -0.60684,-0.40277 -0.60684,-0.89504 z M 59.043656,145.9245 C 55.526363,143.17759 48.598578,137.85709 43.648578,134.10116 23.756959,119.0079 15.649657,111.01779 17.92149,108.74596 c 1.995381,-1.99538 5.66629,0.0787 16.227088,9.16846 13.294128,11.44234 34.012632,33.00445 31.713172,33.00445 -0.232659,0 -3.300801,-2.24747 -6.818094,-4.99437 z m 99.104934,4.03874 c 0,-0.75097 8.07054,-9.50567 17.93453,-19.45488 9.86399,-9.94922 19.65149,-20.23901 21.75,-22.8662 3.86988,-4.84483 7.62862,-6.81014 9.48133,-4.95743 1.72574,1.72574 -0.46976,4.37931 -12.25899,14.81665 -21.94288,19.42667 -24.4808,21.72305 -30.65687,27.73914 -3.4375,3.34846 -6.25,5.47368 -6.25,4.72272 z m -4.38884,-4.29437 c 2.62839,-4.50563 8.03332,-11.79784 16.33371,-22.03704 21.14575,-26.085024 23.9406,-29.227044 26.80513,-30.134754 1.90945,-0.60507 2.25,-0.34711 2.25,1.70436 0,3.56125 -4.73795,9.527734 -20.43726,25.736614 -7.73451,7.98554 -16.08294,17.09804 -18.55207,20.25 -2.46913,3.15195 -5.08319,5.73082 -5.80902,5.73082 -0.77798,0 -1.02037,-0.5131 -0.59049,-1.25 z m -89.309256,-4.65083 c -6.306727,-5.32724 -31.3224,-30.54734 -35.634692,-35.9259 -3.133621,-3.90844 -3.340761,-5.173274 -0.847223,-5.173274 3.0372,0 15.040653,11.072014 29.271402,27.000004 9.160285,10.25279 15.609537,19 14.008557,19 -0.547872,0 -3.60699,-2.20537 -6.798044,-4.90083 z m 85.733626,-0.84917 c 0.0419,-0.88436 8.16281,-13.79339 16.03008,-25.48143 3.06108,-4.54772 7.95977,-11.98786 10.88597,-16.533654 5.12137,-7.95593 8.25862,-10.45911 10.99158,-8.77005 2.10914,1.30352 0.90248,3.51521 -7.69316,14.100844 -17.89207,22.03429 -23.38999,29.04138 -26.03579,33.1825 -2.48398,3.88787 -4.26778,5.38271 -4.17868,3.50179 z M 62.417948,125.16242 c -6.176846,-7.55896 -14.140226,-16.89355 -17.6964,-20.74355 -7.346172,-7.953154 -9.095113,-10.696944 -8.239562,-12.926464 1.764522,-4.59828 12.059939,7.09995 30.298162,34.426464 8.6271,12.92606 8.67166,13.00148 7.67745,12.99355 -0.44496,-0.004 -5.862803,-6.19105 -12.03965,-13.75 z m 85.085592,9.00645 c 4.41021,-8.77007 12.39141,-25.65507 17.60733,-37.250004 5.93505,-13.19355 8.36042,-16.43285 11.17571,-14.92615 1.02411,0.54808 1.85447,1.76818 1.84525,2.71133 -0.016,1.63508 -4.01617,8.73843 -12.25234,21.757114 -2.073,3.27674 -6.01635,9.78271 -8.76299,14.45771 -2.74664,4.675 -5.44082,9.175 -5.98707,10 -0.54624,0.825 -1.74874,2.9625 -2.67222,4.75 -0.92347,1.7875 -2.05328,3.25 -2.51068,3.25 -0.4574,0 0.24325,-2.1375 1.55701,-4.75 z m -69.393392,-1.15803 c -1.66097,-2.69942 -4.83525,-7.53692 -7.053953,-10.75 -2.218707,-3.21308 -6.50143,-9.44197 -9.517162,-13.84197 -3.015731,-4.4 -7.712292,-11.149534 -10.436801,-14.998954 -5.202836,-7.35101 -5.971623,-9.50105 -3.397283,-9.50105 2.013208,0 6.74838,5.16808 10.536696,11.5 1.645294,2.75 5.731719,9.500004 9.080946,15.000004 7.075847,11.61974 15.825987,26.6273 15.825987,27.1435 0,0.19607 -0.45416,0.3565 -1.00924,0.3565 -0.55509,0 -2.36822,-2.20861 -4.02919,-4.90803 z m 62.038442,-0.34023 c 0,-1.23654 1.84445,-6.4539 4.09878,-11.59413 2.25433,-5.14024 5.86255,-14.99932 8.01826,-21.909094 4.19036,-13.43146 9.74452,-25.88828 11.38296,-25.52961 2.36943,0.51869 1.256,5.93982 -3.98596,19.40711 -7.22598,18.564504 -17.62883,41.873984 -18.68805,41.873984 -0.45429,0 -0.82599,-1.01172 -0.82599,-2.24826 z m -55.618232,-1.50174 c -1.01653,-1.5125 -4.8137,-8.375 -8.43815,-15.25 -3.62445,-6.875 -9.594494,-17.788194 -13.266768,-24.251534 -6.993602,-12.309 -7.692368,-14.42155 -5.099321,-15.4166 2.328364,-0.89348 3.784241,1.05998 9.441319,12.66813 8.69967,17.851444 20.98114,43.959604 20.98114,44.602044 0,1.31998 -2.04278,-0.008 -3.61822,-2.35204 z m 50.675842,0.81149 c -0.15096,-3.76956 15.27692,-57.744434 17.01043,-59.511494 0.58723,-0.5986 1.38216,-0.4998 2.14905,0.26709 0.95611,0.95611 0.82263,2.76798 -0.6225,8.45 -1.01178,3.9781 -2.17242,7.68291 -2.5792,8.23291 -0.40679,0.55 -1.03883,2.35 -1.40454,4 -0.36571,1.65 -2.16904,7.275004 -4.0074,12.500004 -1.83836,5.225 -3.89691,11.23339 -4.57457,13.35198 -1.81228,5.66588 -5.90454,14.376 -5.97127,12.70951 z M 84.361378,114.14761 C 74.496408,92.293476 67.85855,75.117046 68.565741,73.274136 c 0.590712,-1.53937 1.518377,-1.68291 3.352567,-0.51875 1.84478,1.17089 21.68909,56.287024 21.0049,58.339604 -0.21302,0.63905 -4.06584,-6.98727 -8.56183,-16.94738 z m 44.159092,16.02126 c 0.27865,-0.9625 2.34937,-11.875 4.60159,-24.25 5.04522,-27.721404 5.92993,-31.778694 7.6864,-35.250004 2.68724,-5.31078 4.92678,-2.22351 3.29504,4.5423 -0.55814,2.31423 -3.49783,14.5577 -6.53266,27.207704 -3.03483,12.65 -6.03676,24.4625 -6.67095,26.25 -1.18056,3.32747 -3.29428,4.65997 -2.37942,1.5 z M 94.193288,118.1197 C 80.933808,79.004326 78.305178,70.674336 78.807938,69.364166 c 0.30504,-0.79492 1.32716,-1.4453 2.27138,-1.4453 1.94314,0 4.85858,8.53827 9.56075,28 1.52819,6.325004 3.5935,14.200004 4.58957,17.500004 3.987877,13.21191 4.765747,16.47665 4.033647,16.92911 -0.42053,0.25991 -2.702035,-5.24282 -5.069997,-12.22828 z m 15.546632,10.63742 c -0.27009,-1.28604 -0.98209,-6.61325 -1.58222,-11.83825 -0.60014,-5.225 -1.73366,-14.675 -2.51894,-21.000004 -1.49368,-12.03076 -1.91908,-25.71872 -0.88318,-28.41821 0.94067,-2.45136 3.0379,-1.87085 4.22038,1.16821 1.31332,3.37531 2.8751,21.26493 3.77671,43.261004 0.59236,14.45127 0.47728,16.67658 -0.92244,17.83826 -1.37933,1.14474 -1.66676,1.00572 -2.09031,-1.01101 z m 13.16841,1.54017 c -0.6269,-1.06508 0.75994,-19.37979 2.14889,-28.37842 0.55181,-3.575004 1.21972,-8.525004 1.48426,-11.000004 1.03752,-9.70706 3.78025,-24.55099 4.71012,-25.49164 1.75404,-1.77438 2.95984,1.76095 2.38466,6.99164 -1.4227,12.93792 -2.83091,22.8247 -4.5579,32.000004 -1.03522,5.5 -2.36394,13.11501 -2.9527,16.92225 -1.10256,7.12967 -2.31153,10.4951 -3.21733,8.95617 z m -20.60905,-8.27131 C 98.461915,108.02377 92.199258,75.919886 92.167008,70.085536 c -0.0454,-8.21097 5.241922,2.60451 6.518197,13.33333 0.32714,2.75 1.433325,9.275 2.458195,14.5 1.95557,9.969954 5.00519,28.732254 5.00519,30.793654 0,0.66349 -0.3794,1.20635 -0.84311,1.20635 -0.46372,0 -1.81651,-3.5518 -3.0062,-7.89289 z m 14.21489,-11.35711 c -1.10135,-24.493444 -0.88869,-40.904054 0.56529,-43.620824 1.35222,-2.52666 3.87793,-2.79102 4.75784,-0.49801 0.63351,1.65089 -1.40338,52.703214 -2.37867,59.618834 -1.13847,8.07268 -2.11585,2.9276 -2.94446,-15.5 z"
       id="path129"
       inkscape:connector-curvature="0" />
  </g>
</svg>
