<?xml version="1.0" encoding="UTF-8" standalone="no"?>
<!-- Created with Inkscape (http://www.inkscape.org/) -->

<svg
   xmlns:dc="http://purl.org/dc/elements/1.1/"
   xmlns:cc="http://creativecommons.org/ns#"
   xmlns:rdf="http://www.w3.org/1999/02/22-rdf-syntax-ns#"
   xmlns:svg="http://www.w3.org/2000/svg"
   xmlns="http://www.w3.org/2000/svg"
   xmlns:sodipodi="http://sodipodi.sourceforge.net/DTD/sodipodi-0.dtd"
   xmlns:inkscape="http://www.inkscape.org/namespaces/inkscape"
   version="1.1"
   id="svg2949"
   width="283"
   height="443"
   viewBox="0 0 283 443"
   sodipodi:docname="feu102.svg"
   inkscape:version="0.92.4 (5da689c313, 2019-01-14)">
  <metadata
     id="metadata2955">
    <rdf:RDF>
      <cc:Work
         rdf:about="">
        <dc:format>image/svg+xml</dc:format>
        <dc:type
           rdf:resource="http://purl.org/dc/dcmitype/StillImage" />
        <dc:title></dc:title>
      </cc:Work>
    </rdf:RDF>
  </metadata>
  <defs
     id="defs2953" />
  <sodipodi:namedview
     pagecolor="#ffffff"
     bordercolor="#666666"
     borderopacity="1"
     objecttolerance="10"
     gridtolerance="10"
     guidetolerance="10"
     inkscape:pageopacity="0"
     inkscape:pageshadow="2"
     inkscape:window-width="1280"
     inkscape:window-height="972"
     id="namedview2951"
     showgrid="false"
     inkscape:zoom="2.1309255"
     inkscape:cx="160.15892"
     inkscape:cy="221.34636"
     inkscape:window-x="-8"
     inkscape:window-y="-8"
     inkscape:window-maximized="1"
     inkscape:current-layer="g180"
     showguides="true" />
  <g
     id="g151"
     transform="translate(25.882805,-2.654647)">
    <g
       id="g180"
       transform="translate(23.228158,-38.492376)">
      <path
         style="fill:#00ffff"
         d="m 67.952909,288.25859 c -1.32234,-2.47082 -0.5257,-3.97933 2.10146,-3.97933 2.46718,0 3.53612,2.54016 1.89903,4.51273 -1.66853,2.01046 -2.71364,1.87111 -4.00049,-0.5334 z m 9.64943,0.52067 c -0.8776,-2.28699 0.35185,-4.5 2.5,-4.5 2.42637,0 3.47487,2.55617 1.85106,4.51273 -1.58512,1.90996 -3.61553,1.90401 -4.35106,-0.0127 z m 10.3722,0.0127 c -1.6616,-2.00206 -0.55479,-4.5127 1.98943,-4.5127 1.13452,0 2.32399,0.68073 2.64326,1.51273 0.57462,1.49745 -1.18656,4.48727 -2.64326,4.48727 -0.41531,0 -1.31055,-0.66927 -1.98943,-1.48727 z m 9.07949,0.0958 c -0.75253,-0.90674 -0.67342,-1.79604 0.27518,-3.09333 1.53124,-2.0941 3.634761,-1.26256 3.634761,1.43685 0,2.29575 -2.500281,3.35502 -3.909941,1.65648 z m 7.573261,-0.67881 c -1.83423,-2.61872 -1.35815,-3.92969 1.42708,-3.92969 2.59651,0 3.58117,2.757 1.66796,4.67021 -1.35351,1.35351 -1.68367,1.27452 -3.09504,-0.74051 z m -48.168855,0.0613 c -1.07786,-1.74395 0.55762,-4.99099 2.5139,-4.99099 2.38226,0 3.2947,1.46976 2.48879,4.00895 -0.66059,2.08132 -3.92702,2.72257 -5.00269,0.9821 z m -9.89412,-1.29401 c -0.999808,-0.73108 -1.651801,-2.19949 -1.448875,-3.26314 0.468393,-2.4551 4.107445,-3.03178 5.853725,-0.92763 1.1268,1.35771 1.03072,1.90226 -0.62841,3.56139 -1.67816,1.67816 -2.2189,1.76828 -3.77644,0.62938 z m 65.761285,-0.19698 c -0.7922,-2.06442 0.28192,-4.5 1.98454,-4.5 0.77492,0 1.96914,0.675 2.65383,1.5 0.99319,1.19672 0.99319,1.80328 0,3 -0.68469,0.825 -1.87891,1.5 -2.65383,1.5 -0.77492,0 -1.66796,-0.675 -1.98454,-1.5 z m 9.83837,0.3 c -1.75137,-1.75137 -1.4701,-3.58508 0.73055,-4.76283 1.46455,-0.7838 2.32085,-0.64291 3.54743,0.58367 1.48916,1.48916 1.48241,1.76545 -0.0855,3.49801 -1.99389,2.20323 -2.57581,2.29778 -4.19244,0.68115 z m 7.92598,-2.14821 c -0.85008,-1.02428 -0.68252,-1.74314 0.69741,-2.99196 1.54715,-1.40015 2.08941,-1.44408 3.65895,-0.2964 1.12624,0.82352 1.59726,1.98676 1.21152,2.99196 -0.76248,1.98701 -4.02085,2.16046 -5.56788,0.2964 z m 8.94371,-0.52158 c -0.82505,-1.54161 -0.69516,-2.36188 0.57515,-3.63219 1.49992,-1.49992 1.77748,-1.50427 3.23107,-0.0507 1.19159,1.19158 1.32587,2.00923 0.5357,3.2619 -1.5761,2.49864 -3.1484,2.65108 -4.34192,0.42097 z M 35.554498,283.65459 c -0.848204,-2.21039 1.719959,-4.8539 3.902062,-4.01655 1.015101,0.38954 1.524772,1.49782 1.327542,2.88675 -0.398751,2.80809 -4.26506,3.64336 -5.229604,1.1298 z m 113.076142,-1.042 c -1.20893,-1.20893 -0.69422,-4.10878 0.83333,-4.69496 2.4516,-0.94076 4.5,0.41055 4.5,2.96862 0,1.8403 -0.53893,2.39301 -2.33333,2.39301 -1.28334,0 -2.63334,-0.3 -3,-0.66667 z m -121.000008,-1 c -1.208931,-1.20893 -0.69422,-4.10878 0.833333,-4.69496 2.451601,-0.94076 4.5,0.41055 4.5,2.96862 0,1.8403 -0.53893,2.39301 -2.333333,2.39301 -1.283334,0 -2.633334,-0.3 -3,-0.66667 z m 33.343923,-4.91666 c 0.0285,-15.89435 6.773504,-45.38042 15.627164,-68.31441 2.42005,-6.26876 4.25067,-11.54717 4.06805,-11.7298 -0.7828,-0.7828 -12.34262,24.17458 -16.725144,36.10921 -4.60786,12.54825 -10.39498,33.9662 -11.64825,43.10977 -0.64942,4.73803 -2.17795,6.23227 -1.69662,1.65856 2.55498,-24.27821 11.63544,-51.41395 26.695114,-79.77479 1.88041,-3.54125 3.12109,-6.25455 2.75706,-6.02957 -0.36402,0.22498 -3.16699,3.92925 -6.22881,8.23171 -6.2018,8.71473 -11.940604,19.05022 -16.836714,30.32265 -1.79166,4.125 -4.0466,9.3 -5.01096,11.5 -2.07145,4.72559 -8.313675,23.6707 -10.37893,31.5 -2.442915,9.26099 -1.802173,1.31433 0.806304,-10 4.259536,-18.47585 15.117006,-42.29516 28.47133,-62.46091 2.74593,-4.1465 4.77572,-7.53909 4.51066,-7.53909 -0.62936,0 -5.83012,5.93875 -10.114024,11.54921 -10.43465,13.66585 -22.890984,38.38455 -28.895533,57.34114 -2.109671,6.66031 -4.190257,12.10965 -4.623526,12.10965 -1.276867,0 -0.913142,-1.99275 2.099027,-11.5 3.790724,-11.96459 11.60117,-30.84462 15.209252,-36.76502 1.59718,-2.62077 2.90396,-5.01523 2.90396,-5.32104 0,-1.79108 13.94678,-21.15423 20.105704,-27.91394 4.00893,-4.4 5.73766,-6.65821 3.84163,-5.01825 -20.577824,17.79866 -34.86795,38.15824 -47.741152,68.01825 -4.956541,11.49694 -6.231807,16.74447 -4.608714,18.96418 2.47399,3.38339 -1.922576,6.25887 -4.613035,3.01706 -1.02413,-1.234 -0.974208,-1.84335 0.266261,-3.25 0.839695,-0.95218 1.851022,-3.30624 2.247392,-5.23124 2.063744,-10.0227 13.454263,-34.33901 22.953136,-49 5.269518,-8.13321 19.123878,-24.65283 23.645772,-28.19467 1.87166,-1.466 4.97801,-4.10468 6.90301,-5.86373 l 3.5,-3.19828 -4,2.31695 c -12.325214,7.1392 -22.538524,17.65134 -33.946506,34.93973 -7.834112,11.87232 -18.544701,31.33227 -22.206903,40.34747 -3.236111,7.96629 -4.347818,7.24825 -1.722417,-1.1125 5.647934,-17.98619 26.722772,-50.12133 42.196452,-64.3416 8.880624,-8.16127 2.79544,-4.72578 -6.97602,3.93843 -15.036183,13.33235 -32.39162,37.05757 -41.088083,56.1682 -2.4918097,5.4758 -3.6337727,7.25474 -3.2096647,5 0.90895,-4.83238 10.5424337,-23.74269 17.3206257,-34 9.509539,-14.3906 36.495732,-39.74765 39.997862,-37.58322 0.4512,0.27886 3.238414,-1.05084 6.193794,-2.95488 2.95538,-1.90405 5.80109,-3.4619 6.3238,-3.4619 0.52272,0 0.69039,-0.26 0.37262,-0.57777 -0.31778,-0.31778 -4.33028,1.07122 -8.91667,3.08667 -19.351704,8.50393 -42.32277,28.8621 -56.407282,49.9911 -4.3995337,6.6 -8.8232607,14.17569 -9.8305047,16.83488 -1.250157,3.30049 -2.15650195,4.50972 -2.85590295,3.81032 -1.36721205,-1.36721 4.69790095,-14.09368 11.73351865,-24.62052 7.760803,-11.61188 27.22697,-30.39645 40.102097,-38.69795 6.41601,-4.13685 17.383834,-9.41438 23.657054,-11.38337 7.39677,-2.32164 6.75424,-3.01432 -0.94537,-1.01915 -23.720344,6.14655 -55.789377,30.75773 -72.7319167,55.81765 -5.958851,8.81381 -8.415209,11.12097 -4.59084,4.312 6.12253,-10.90065 17.7348287,-25.32914 27.1005227,-33.67289 7.293154,-6.49735 19.169434,-14.93828 25.77266,-18.31763 1.83861,-0.94094 3.07119,-1.98255 2.73906,-2.31468 -0.89757,-0.89757 -17.916536,8.22622 -27.08199,14.51853 -17.0198997,11.68458 -28.5121357,22.47016 -36.54269,34.29567 -4.454212,6.55912 -5.516929,7.3136 -4.489246,3.18714 2.105203,-8.45302 22.1068493,-28.07481 41.503588,-40.71539 9.696697,-6.31919 26.339358,-14.24604 32.600418,-15.52748 8.219624,-1.68228 12.039084,-2.79711 9.927934,-2.89776 -2.616684,-0.12476 -16.451444,3.24374 -23.750004,5.78267 -3.1625,1.10013 -5.75,1.62334 -5.75,1.16268 0,-1.39774 6.979342,-3.73808 17.51295,-5.87251 14.998644,-3.03919 17.752544,-3.42081 17.103114,-2.37 -0.34817,0.56335 2.11579,0.79915 6.15156,0.58869 3.70281,-0.19309 7.06988,-0.36229 7.48238,-0.37599 1.5809,-0.0525 0.65566,-1.92008 -1.25106,-2.52525 -1.10059,-0.34931 -2.46298,-1.49821 -3.02754,-2.5531 -0.94124,-1.75872 -0.80506,-1.83382 1.63975,-0.9043 2.9143,1.10802 3.97976,0.72287 2.88783,-1.0439 -0.3857,-0.62409 -1.35414,-0.88418 -2.15207,-0.57799 -0.79793,0.3062 -1.23046,0.20023 -0.96118,-0.23548 0.26928,-0.4357 -2.05104,-2.31182 -5.15627,-4.16914 -3.10523,-1.85732 -5.13269,-3.54801 -4.50546,-3.75708 1.26712,-0.42238 6.18531,1.92333 10.776,5.13954 4.65567,3.26174 5.8412,3.16227 4.03103,-0.33821 -2.37833,-4.59917 -1.80447,-5.81918 0.96897,-2.06 l 2.5,3.38856 v -3.19428 c 0,-3.26081 1.9482,-4.62446 2.06339,-1.44428 0.053,1.46305 0.19862,1.41637 0.88813,-0.28472 0.84342,-2.08077 4.048481,-5.26485 4.048481,-4.02198 0,0.3785 -0.507531,1.63651 -1.127851,2.79559 -1.11988,2.09251 -1.1082,2.09195 1.652661,-0.0797 3.62584,-2.85208 4.48767,-1.8987 1.3958,1.54408 l -2.420611,2.69532 2.717591,-1.70109 c 4.00041,-2.50412 12.78241,-5.80478 12.78241,-4.80423 0,0.47525 -1.36443,1.42925 -3.03206,2.12001 -4.43342,1.83638 -3.29654,1.94958 4.03206,0.40147 6.66857,-1.40868 11.7435,-1.82491 10.80476,-0.88618 -0.29071,0.29072 -2.50321,0.87698 -4.91666,1.3028 -3.46396,0.61118 -2.08,0.80873 6.57149,0.93801 11.04231,0.16501 17.1762,0.92816 16.10114,2.00322 -0.32026,0.32026 -5.41493,0.58004 -11.32151,0.5773 -8.02923,-0.004 -8.72046,0.0779 -2.73922,0.32333 9.48604,0.38932 12.5,0.98073 12.5,2.45281 0,0.59837 -0.71072,0.81521 -1.57937,0.48188 -0.86866,-0.33334 -7.05616,-0.65596 -13.75,-0.71694 -7.39582,-0.0674 -11.38598,-0.43249 -10.17063,-0.93064 2.57795,-1.05666 0.11414,-1.23317 -4.45566,-0.31921 -2.28156,0.45631 -2.82207,0.89052 -1.875,1.50624 0.88648,0.57632 0.32924,0.80197 -1.66934,0.67598 -6.37408,-0.40183 -8.35041,0.12804 -9.05089,2.42665 -0.37712,1.2375 -1.303351,2.9559 -2.058281,3.81868 -1.1906,1.36066 -0.98043,1.85862 1.584881,3.75524 1.62662,1.20261 2.73389,2.76926 2.46061,3.48144 -0.56107,1.46211 4.49125,8.60213 6.12659,8.6582 2.7928,0.0958 13.91116,16.83646 20.61289,31.03644 1.68724,3.575 4.10148,8.525 5.36499,11 4.64324,9.09532 12.97882,35.56083 11.49005,36.48094 -0.45785,0.28297 -1.38646,-1.84698 -2.06358,-4.73323 -2.4787,-10.5656 -16.32701,-43.31891 -23.57048,-55.74771 -2.54773,-4.37156 -8.80999,-13.47854 -10.65831,-15.5 -0.50289,-0.55 0.9237,2.44911 3.1702,6.66469 11.6661,21.89155 25.09133,60.24977 25.09133,71.69031 0,5.18644 -0.67611,3.60507 -2.95424,-6.90982 -1.91932,-8.85874 -4.1772,-16.2041 -10.28066,-33.44518 C 118.053,212.92065 104.48656,187.1484 97.796989,180.61621 l -3.83302,-3.74285 v 3.70295 c 0,2.03662 -0.45,3.70295 -1,3.70295 -0.55,0 -1,-0.525 -1,-1.16667 0,-6.27844 -3.31107,16.56215 -5.96769,41.16667 -0.56416,5.225 -1.93459,20.04487 -3.0454,32.93304 -1.11081,12.88817 -2.18308,23.59646 -2.38281,23.7962 -0.19974,0.19973 -0.6603,-1.61833 -1.02347,-4.04015 -1.14346,-7.62514 1.53524,-40.42789 5.48673,-67.18909 1.05575,-7.15 1.88381,-13.45 1.84014,-14 -0.34994,-4.407 -8.96702,38.55735 -12.45951,62.12247 -2.8981,19.55455 -4.77778,25.80149 -3.87482,12.87753 1.138,-16.288 5.09128,-40.6421 10.95695,-67.5 1.37368,-6.28989 -4.18502,8.89334 -7.68827,21 -5.00653,17.30175 -7.47509,28.33437 -9.948934,44.46437 -1.09358,7.13041 -2.19186,13.16791 -2.44063,13.41667 -0.24876,0.24876 -0.44752,-2.21021 -0.4417,-5.46437 z M 98.466299,169.03794 c 0.45008,0.40772 0.48111,0.15697 0.069,-0.55724 -0.57734,-1.00047 -1.07324,-1.02976 -2.16033,-0.12755 -0.77603,0.64405 -1.41097,1.396 -1.41097,1.671 0,0.275 0.6039,-0.001 1.34201,-0.61377 0.7381,-0.61257 1.71025,-0.78017 2.16032,-0.37244 z m -1.54082,94.24132 c -0.0546,-10.175 -0.23747,-19.625 -0.40634,-21 -0.16887,-1.375 -0.62266,-10.54138 -1.00843,-20.36974 -0.38577,-9.82836 -0.93975,-18.49086 -1.23106,-19.25 -0.29131,-0.75914 -0.0982,-1.38026 0.42921,-1.38026 0.89211,0 2.3964,12.592 3.7631,31.5 1.02603,14.19477 0.78377,45.16116 -0.36882,47.14445 -0.80144,1.37906 -1.10385,-2.89508 -1.17766,-16.64445 z m 61.038491,15.5 c 0,-2.16486 0.40432,-2.58168 2.25,-2.31955 1.47682,0.20974 2.25,1.00682 2.25,2.31955 0,1.31273 -0.77318,2.10981 -2.25,2.31955 -1.84568,0.26213 -2.25,-0.15469 -2.25,-2.31955 z m -52.02542,0.91667 c -0.38834,-14.00479 -1.35379,-28.52278 -2.55472,-38.41667 -1.5649,-12.89257 -5.149291,-36.16019 -6.046491,-39.25 -0.27948,-0.9625 -0.0894,-1.75 0.4224,-1.75 1.60583,0 7.160511,32.75239 8.819001,52 0.79224,9.19441 0.7259,26.99267 -0.10371,27.82227 -0.28108,0.28109 -0.5225,0.0986 -0.53648,-0.4056 z m 7.57723,-7.66667 c -1.79086,-22.51044 -5.60895,-43.52972 -13.12398,-72.25 -1.130901,-4.32194 1.40837,1.10313 3.47964,7.43418 5.13348,15.69094 9.70921,41.41452 10.90693,61.31582 0.79889,13.27448 -0.25298,16.19035 -1.26259,3.5 z m -24.084591,-31.5 c 0.58153,-40.46627 1.13543,-51.61361 2.52205,-50.75663 0.86845,0.53673 0.36208,69.72894 -0.60199,82.25663 -0.30685,3.9875 -0.98969,7.25 -1.51742,7.25 -0.60574,0 -0.75419,-14.28684 -0.40264,-38.75 z m 78.532781,34.30902 c 0,-3.10424 1.21401,-3.85423 3.51516,-2.17159 2.2659,1.65686 1.3151,4.61257 -1.48378,4.61257 -1.48704,0 -2.03138,-0.6541 -2.03138,-2.44098 z m -45.45073,0.19098 c -0.21338,-0.6875 -0.67249,-3.725 -1.02024,-6.75 -1.28774,-11.20171 -8.85943,-41.98809 -14.1417,-57.5 -6.82561,-20.04406 -7.1035,-21.14173 -3.80355,-15.02419 6.92234,12.83282 17.29822,51.80643 19.90702,74.77419 0.58806,5.17731 0.0568,7.71653 -0.94153,4.5 z m -112.386767,-0.6284 c -2.0948637,-1.32784 -1.0204877,-5.5706 1.501602,-5.9299 2.614175,-0.37241 4.125139,3.15239 2.296064,5.35629 -1.382923,1.66632 -1.940815,1.75058 -3.797666,0.57361 z m 117.420117,-10.8716 c -4.99249,-21.73748 -10.30124,-38.57879 -18.0191,-57.16326 -3.06368,-7.3773 -5.38347,-13.60012 -5.15509,-13.82851 1.47896,-1.47896 10.19074,18.42538 16.62217,37.9777 6.37243,19.37294 11.90222,44.76407 9.74893,44.76407 -0.27404,0 -1.71265,-5.2875 -3.19691,-11.75 z m 18.49633,10.16667 c 0.048,-1.16495 0.28494,-1.4019 0.60416,-0.60417 0.28887,0.72187 0.25335,1.58438 -0.0789,1.91667 -0.3323,0.33229 -0.56864,-0.25834 -0.52522,-1.3125 z m 30.92105,-2.91667 c 0,-2.16486 0.40432,-2.58168 2.25,-2.31955 1.47682,0.20974 2.25,1.00682 2.25,2.31955 0,1.31273 -0.77318,2.10981 -2.25,2.31955 -1.84568,0.26213 -2.25,-0.15469 -2.25,-2.31955 z m -23.07083,-4.65264 c -2.07336,-7.45269 -5.62071,-17.1172 -8.3861,-22.84736 -4.11769,-8.53224 -11.67712,-23.17614 -13.67975,-26.5 -0.99413,-1.65 -2.55111,-4.35 -3.45994,-6 -2.3799,-4.32071 -7.80817,-10.9415 -15.78275,-19.25 -3.82725,-3.9875 -6.50641,-7.25 -5.95369,-7.25 1.17357,0 12.30616,11.47671 17.46027,18 14.67139,18.56879 27.20702,43.26338 30.8509,60.77477 1.50973,7.25532 0.74109,9.50684 -1.04894,3.07259 z m 8.06512,-1.0165 c -1.60382,-6.87285 -9.16043,-25.48613 -13.73464,-33.83086 -7.02684,-12.81906 -19.18227,-28.67732 -29.58092,-38.59194 -5.5983,-5.33772 -9.05373,-9.12503 -7.67873,-8.41626 2.69964,1.39158 16.18101,14.76261 22.21437,22.03255 10.13102,12.20744 18.02612,24.7591 23.90594,38.00574 4.52154,10.18657 8.33284,23.91676 7.00698,25.24262 -0.51868,0.51868 -1.40721,-1.33161 -2.133,-4.44185 z m -162.50774165,2.12677 c -0.81950105,-2.58202 0.596555,-4.28086 3.15722695,-3.78772 1.214723,0.23394 1.85622,1.21673 1.85622,2.84379 0,3.34673 -4.01112995,4.10195 -5.01344695,0.94393 z M 185.97454,266.79199 c -0.67888,-0.81799 -0.9731,-2.16799 -0.65383,-3 0.7534,-1.96333 5.53312,-1.96333 6.28652,0 0.66274,1.72708 -1.27073,4.48727 -3.14326,4.48727 -0.69031,0 -1.81055,-0.66927 -2.48943,-1.48727 z m -15.41775,-7.51273 c -5.03623,-15.3088 -22.2277,-42.27958 -36.49176,-57.25 -6.61641,-6.94405 -4.13455,-5.80543 3.26955,1.5 16.23311,16.01678 37.16939,51.192 35.4064,59.48658 -0.21807,1.02595 -1.1315,-0.53669 -2.18419,-3.73658 z m -177.6623917,2.41618 c -1.656115,-1.9955 -0.0648,-4.91618 2.678553,-4.91618 3.47188005,0 2.744988,6.39974 -0.736541,6.48469 -0.345156,0.008 -1.219061,-0.69741 -1.942012,-1.56851 z M 179.17459,255.3448 c -4.4833,-13.08837 -17.86531,-32.06369 -34.49643,-48.91493 -5.6178,-5.69217 -12.80169,-12.12144 -15.96419,-14.28726 -3.26202,-2.23399 -5.74337,-4.67896 -5.73469,-5.65061 0.0104,-1.15857 0.2601,-1.32775 0.77186,-0.52286 0.4161,0.65443 2.45277,2.34096 4.52592,3.74784 8.92852,6.05906 31.06038,28.10579 37.90199,37.75622 8.34554,11.77178 16.40005,28.53921 15.58655,32.44721 -0.23526,1.13015 -1.25098,-0.66357 -2.59101,-4.57561 z m 15.15101,4.43446 c -0.67029,-1.74673 0.19599,-4.5 1.41586,-4.5 0.46214,0 1.69677,0.6263 2.74363,1.39179 1.61719,1.18252 1.7027,1.6336 0.56869,3 -1.67671,2.02031 -3.97427,2.07289 -4.72818,0.10821 z m -208.315472,-4.94438 c -1.815323,-2.18733 -0.52119,-4.76208 2.199366,-4.37576 1.648951,0.23416 2.2544717,0.98793 2.2544717,2.80644 0,2.91773 -2.5802347,3.82688 -4.4538377,1.56932 z m 214.557582,-1.14586 c -0.81912,-2.13459 0.0991,-3.40976 2.45528,-3.40976 1.40371,0 1.94098,0.692 1.94098,2.5 0,2.88131 -3.37194,3.57909 -4.39626,0.90976 z m -13.43936,-4.53105 c -1.81074,-5.3115 -8.65479,-16.27081 -15.19172,-24.32637 -10.94603,-13.48894 -25.54461,-25.83898 -41.30117,-34.93978 -7.13766,-4.12263 -4.95977,-4.28647 3.09036,-0.23249 12.60129,6.34591 33.19346,24.72954 42.88554,38.286 5.51227,7.71009 12.5307,21.23364 12.08606,23.28816 -0.1855,0.85715 -0.8845,-0.0675 -1.56907,-2.07552 z m -207.627474,-1.48466 c -1.239925,-1.23992 -1.342256,-1.92367 -0.448984,-3 1.604689,-1.93353 3.655885,-1.74126 4.830085,0.45275 0.680022,1.27064 0.628602,2.20659 -0.164816,3 -1.538624,1.53863 -2.307471,1.45607 -4.216285,-0.45275 z m 223.127844,-4.13868 c -1.00939,-2.06545 -1.25689,-3.19287 -0.55,-2.50537 0.70689,0.6875 2.57655,1.25 4.1548,1.25 2.40385,0 2.81769,0.36516 2.55,2.25 -0.55,3.87266 -4.05279,3.30661 -6.1548,-0.99463 z m -228.074222,-3.88004 c -0.848204,-2.21039 1.719959,-4.8539 3.902062,-4.01655 1.015101,0.38954 1.524772,1.49782 1.327542,2.88675 -0.398751,2.80809 -4.26506,3.64336 -5.229604,1.1298 z m 215.734382,-3.52084 c -2.81017,-4.30643 -4.33227,-6.23402 -9.56857,-12.11766 -1.50901,-1.69556 -2.48449,-3.34202 -2.16772,-3.65878 0.31677,-0.31677 2.33429,1.44858 4.48337,3.923 5.54219,6.38117 11.36715,14.89314 10.66932,15.59097 -0.32532,0.32532 -1.8627,-1.35657 -3.4164,-3.73753 z m 8.71554,1.14285 c -4.23634,-8.17174 -25.58574,-30.4547 -35.72013,-37.2821 -3.44134,-2.31838 -6.27123,-4.5643 -6.28865,-4.99092 -0.0843,-2.06533 12.41031,6.84799 23.48962,16.75683 6.08912,5.44584 17.47871,19.13594 17.47871,21.00913 0,0.46873 0.72118,1.64913 1.60262,2.62312 0.88144,0.97398 1.40684,2.35821 1.16756,3.07607 -0.27484,0.82451 -0.91188,0.38547 -1.72973,-1.19213 z m 6.32118,0.50266 c -0.7922,-2.06442 0.28192,-4.5 1.98454,-4.5 0.77492,0 1.96914,0.675 2.65383,1.5 0.99319,1.19672 0.99319,1.80328 0,3 -0.68469,0.825 -1.87891,1.5 -2.65383,1.5 -0.77492,0 -1.66796,-0.675 -1.98454,-1.5 z m -234.256443,-3.87325 c -1.506526,-1.81525 -0.355125,-4.62675 1.894808,-4.62675 0.982312,0 2.066931,0.73204 2.410264,1.62675 0.611913,1.59462 -0.919497,4.37325 -2.410264,4.37325 -0.415311,0 -1.267975,-0.61796 -1.894808,-1.37325 z m 8.952383,-2.12675 c -0.09613,-2.03105 4.643449,-8.64145 10.6506333,-14.85468 10.607422,-10.97127 27.9613857,-23.51519 39.7409497,-28.72585 7.320749,-3.23832 7.762166,-1.58809 0.550842,2.0593 -8.881292,4.49205 -21.2431157,12.39092 -28.6821777,18.32714 -5.770866,4.60503 -16.6454783,16.12558 -20.5153703,21.73395 -0.933652,1.35308 -1.718846,2.01014 -1.744877,1.46014 z m 226.6091,-2.16667 c -0.36667,-0.36666 -0.66667,-1.49166 -0.66667,-2.5 0,-2.09345 3.57234,-2.58155 4.26936,-0.58333 0.9589,2.74898 -1.67923,5.0068 -3.60269,3.08333 z m -5,-2 c -0.36667,-0.36666 -0.66667,-1.13166 -0.66667,-1.7 0,-0.6266 0.46577,-0.56756 1.18333,0.15 0.65084,0.65084 0.95084,1.41584 0.66667,1.7 -0.28417,0.28417 -0.81667,0.21667 -1.18333,-0.15 z m -227.666675,-2.51431 c 0,-1.86066 10.711014,-15.36122 14.449537,-18.21273 1.8575407,-1.41682 3.9787963,-3.16673 4.7139043,-3.88871 4.533661,-4.45265 23.6142717,-15.39102 32.3365587,-18.53761 7.818617,-2.8206 32.28032,-8.40357 34.37428,-7.84536 1.40502,0.37455 1.38957,0.44914 -0.11376,0.54939 -2.54626,0.1698 -22.376691,5.82869 -28.6482,8.17517 -9.267175,3.46729 -21.3200767,9.57689 -28.8519337,14.625 -7.690863,5.15468 -20.5869693,17.23571 -24.4417403,22.89694 -2.374768,3.48765 -3.818646,4.33383 -3.818646,2.23791 z m -6.895717,-0.73341 c -1.90237,-1.20457 -0.629321,-4.08561 1.805315,-4.08561 2.385409,0 3.30908,1.26656 2.486658,3.40976 -0.679268,1.77014 -2.188454,2.00779 -4.291973,0.67585 z m 230.895722,-1.91235 c 0,-0.4547 -3.49746,-4.39539 -7.77213,-8.75708 -12.60667,-12.86331 -28.59297,-23.05612 -46.32871,-29.53905 -3.54691,-1.29649 -5.62031,-2.49144 -4.65176,-2.68092 3.90916,-0.76477 19.84441,6.62726 33.6692,15.61843 11.18166,7.27218 30.07038,26.18536 26.15149,26.18536 -0.58745,0 -1.06809,-0.37203 -1.06809,-0.82674 z m 8.53262,-1.12047 c -0.87924,-1.42264 0.24199,-3.05279 2.09972,-3.05279 0.87615,0 1.37805,0.70256 1.19098,1.66713 -0.38952,2.00847 -2.38616,2.84922 -3.2907,1.38566 z m -36.03262,-7.78461 c -8.91419,-8.19967 -18.99751,-15.5297 -28.08809,-20.4185 -11.17512,-6.00985 -14.44867,-8.49336 -7.05675,-5.35368 5.91263,2.51137 12.31979,6.3184 22.96079,13.64295 6.43529,4.42962 19.47004,16.40438 18.68405,17.16466 -0.275,0.26601 -3.2,-1.99994 -6.5,-5.03543 z m -202.132262,2.24776 c -0.726021,-1.89198 0.966534,-4.04541 2.456058,-3.12484 1.300195,0.80357 0.835629,3.88909 -0.660648,4.38785 -0.639156,0.21305 -1.44709,-0.3553 -1.79541,-1.26301 z m 7.487681,-4.26594 c 2.46466,-3.40318 12.124031,-12.72122 18.1445763,-17.5034 10.188184,-8.09258 27.1470597,-15.32899 43.7663297,-18.67523 12.4491,-2.50659 29.829734,-3.84483 28.825174,-2.21943 -0.39024,0.63143 -2.469354,1.14806 -4.620244,1.14806 -7.50458,0 -25.525783,3.2235 -34.464489,6.16475 -18.5707487,6.11065 -34.3627067,15.6154 -46.663096,28.08525 -6.088605,6.17249 -8.209694,7.44814 -4.988251,3 z m 228.144581,0.75 c 0,-1.28889 0.50641,-1.99786 1.25,-1.75 0.6875,0.22917 1.25,1.01667 1.25,1.75 0,0.73333 -0.5625,1.52083 -1.25,1.75 -0.74359,0.24786 -1.25,-0.46111 -1.25,-1.75 z m -231.312505,-2.64583 c -1.373842,-1.37385 -0.661238,-3.49576 1.0625,-3.1638 0.9625,0.18536 1.75,0.96836 1.75,1.73999 0,1.57886 -1.764293,2.47201 -2.8125,1.42381 z m 216.306115,-7.47736 c -16.89324,-14.35803 -41.59873,-24.68551 -63.47704,-26.5349 -4.17087,-0.35257 -7.84551,-1.06513 -8.16586,-1.58347 -0.68789,-1.11303 9.68969,-0.19277 20.50777,1.81858 9.24192,1.71831 23.39639,6.00505 28.64152,8.67422 8.95531,4.55722 27.73565,18.78449 26.49361,20.07054 -0.27852,0.28839 -2.07852,-0.81185 -4,-2.44497 z m -207.110876,-2.62681 c 2.192717,-4.02605 14.3158503,-13.28294 23.1172613,-17.6517 9.3103837,-4.6214 22.5068057,-9.03213 31.9999997,-10.69558 10.89737,-1.90949 31.371984,-2.40767 36.000004,-0.87594 1.55837,0.51577 0.0475,0.62375 -4.01129,0.28668 -6.151564,-0.51086 -22.946304,1.33064 -34.488714,3.78161 -18.439341,3.9155 -35.7796697,11.82713 -45.661812,20.8335 -6.880488,6.27073 -8.59841,7.33807 -6.955449,4.32143 z m 212.117266,-0.30902 c 0,-0.58246 0.45,-0.7809 1,-0.44098 0.55,0.33992 1,0.81648 1,1.05902 0,0.24254 -0.45,0.44098 -1,0.44098 -0.55,0 -1,-0.47656 -1,-1.05902 z m -3,-2.44098 c -0.70675,-0.85158 -1.06,-1.77333 -0.785,-2.04833 0.275,-0.275 1.07825,0.19675 1.785,1.04833 0.70675,0.85158 1.06,1.77333 0.785,2.04833 -0.275,0.275 -1.07825,-0.19675 -1.785,-1.04833 z m -67,-4.5 c -0.90129,-0.58246 -1.02463,-0.97549 -0.30902,-0.98469 0.65504,-0.008 1.4691,0.43469 1.80902,0.98469 0.7673,1.24153 0.42112,1.24153 -1.5,0 z m 27.5,0 c -0.78218,-1.2656 0.54163,-1.2656 2.5,0 1.29269,0.8354 1.26629,0.97149 -0.19098,0.98469 -0.93004,0.008 -1.9691,-0.43469 -2.30902,-0.98469 z m 30.4772,-2.64745 c -9.13033,-6.08018 -22.84445,-11.95466 -34.9772,-14.98256 -9.44263,-2.35654 -13.55737,-2.8607 -23,-2.81808 -6.325,0.0285 -13.3375,0.35938 -15.58333,0.73517 -3.25154,0.54407 -4.08334,0.38072 -4.08334,-0.80191 0,-0.81685 0.2625,-1.5225 0.58334,-1.56812 5.11298,-0.7271 23.37614,-0.32422 32.91679,0.72612 18.70416,2.05918 36.83924,8.98163 46.71764,17.83289 6.02807,5.40128 4.83224,5.80849 -2.5739,0.87649 z m -41.7063,-2.15787 c -5.07601,-2.03207 -9.23851,-4.01384 -9.25,-4.40393 -0.0322,-1.09315 14.36635,4.23396 17.07722,6.31815 3.18622,2.44965 2.89648,2.37879 -7.82722,-1.91422 z m -21.0209,-1.91492 c -0.6875,-0.24553 -1.25,-1.08393 -1.25,-1.86309 0,-0.82047 -0.98932,-1.41667 -2.35078,-1.41667 -3.49769,0 -8.41278,-1.94146 -9.03766,-3.56988 -0.67435,-1.75733 -3.29306,-1.88563 -3.85858,-0.18905 -0.2916,0.8748 -0.96857,0.6862 -2.2938,-0.63903 -1.840141,-1.84015 -1.735591,-1.86464 4.91865,-1.15203 3.73932,0.40045 8.67153,1.34792 10.96047,2.10549 l 4.1617,1.37741 -4.5,-0.44122 c -4.03599,-0.39573 -4.18227,-0.34227 -1.41867,0.51843 1.69474,0.52781 3.90448,1.86921 4.91054,2.9809 1.93196,2.13479 1.83723,3.03128 -0.24187,2.28874 z m -8.52083,-6.88393 c -0.3323,-0.33229 -1.1948,-0.36781 -1.91667,-0.0789 -0.79773,0.31922 -0.56078,0.55618 0.60417,0.60416 1.05416,0.0434 1.64479,-0.19293 1.3125,-0.52522 z m 13.27083,3.01394 c -2.21419,-0.90976 -2.58157,-1.2542 -1,-0.93757 1.375,0.27527 3.2875,0.50664 4.25,0.51415 0.9625,0.008 1.75,0.46365 1.75,1.01365 0,1.26529 -0.67911,1.18513 -5,-0.59023 z m 5.5,-2.40977 c -1.63041,-0.70061 -1.68751,-0.87242 -0.30902,-0.92971 0.93004,-0.0387 1.9691,0.37971 2.30902,0.92971 0.71066,1.14988 0.67591,1.14988 -2,0 z M 4.9639653,178.88625 c 0,-0.21616 0.698372,-0.661 1.551938,-0.98855 0.889925,-0.34149 1.291322,-0.17385 0.940983,0.39301 -0.587258,0.95021 -2.492921,1.40545 -2.492921,0.59554 z m 118.8125047,-1.2901 c 0.72187,-0.28887 1.58437,-0.25335 1.91667,0.0789 0.33229,0.33229 -0.25834,0.56864 -1.3125,0.52522 -1.16495,-0.048 -1.4019,-0.28494 -0.60417,-0.60416 z M 9.9639653,175.88625 c 0,-0.21616 0.6749997,-0.65203 1.4999997,-0.96862 0.825,-0.31658 1.5,-0.13972 1.5,0.39301 0,0.53274 -0.675,0.96862 -1.5,0.96862 -0.825,0 -1.4999997,-0.17686 -1.4999997,-0.39301 z m 98.2500047,-0.29632 c 0.9625,-0.25152 2.5375,-0.25152 3.5,0 0.9625,0.25153 0.175,0.45733 -1.75,0.45733 -1.925,0 -2.7125,-0.2058 -1.75,-0.45733 z M 15.963965,173.4581 c 0,-1.37218 9.593289,-4.90599 18.419652,-6.78512 7.744979,-1.6489 26.735728,-2.31228 33.080352,-1.15556 3.38436,0.61702 3.61522,0.56097 1.5,-0.36419 -1.375,-0.6014 -7.824174,-1.33235 -14.331484,-1.62434 -12.754269,-0.57228 -14.218115,-2.20822 -1.99929,-2.23432 7.10654,-0.0152 15.658874,1.64366 24.330774,4.71927 4.81535,1.70783 8.26462,4.02476 4.12477,2.77068 -1.79026,-0.54232 -2.18085,-0.40501 -1.58595,0.55754 0.58431,0.94544 0.29222,1.07877 -1.12478,0.51342 -1.05272,-0.42 -6.56212,-1.25727 -12.243104,-1.86058 -16.09178,-1.70893 -34.728352,0.53197 -48.42094,5.82221 -0.975054,0.37672 -1.75,0.21774 -1.75,-0.35901 z m 58.729174,-6.78301 c -0.3323,-0.33229 -1.1948,-0.36781 -1.91667,-0.0789 -0.79773,0.31922 -0.56078,0.55618 0.60417,0.60416 1.05416,0.0434 1.64479,-0.19293 1.3125,-0.52522 z m 78.020831,4.39495 c -4.2625,-1.10816 -7.75,-2.45018 -7.75,-2.98227 0,-1.09108 3.86183,-0.44807 11.75,1.95642 2.8875,0.88017 5.25,1.96813 5.25,2.41769 0,1.02257 0.0878,1.03578 -9.25,-1.39184 z m -66.345011,-4.93629 c -1.89478,-2.13401 -1.89293,-2.13918 0.34501,-0.96482 1.2375,0.64939 2.25,1.61486 2.25,2.14551 0,1.42064 -0.47868,1.20285 -2.59501,-1.18069 z"
         id="path410"
         inkscape:connector-curvature="0" />
      <g
         id="g404"
         transform="translate(-15.264218,-35.17407)"
         style="fill:#ffff00">
        <path
           style="fill:#ffff00"
           d="m 113.14093,319.88638 c 0.64761,-0.64761 1.32381,-0.64761 1.97142,0 0.64762,0.64762 0.30953,0.98572 -0.98571,0.98572 -1.29524,0 -1.63333,-0.3381 -0.98571,-0.98572 z M 76.623257,307.80067 c 0.92024,-17.96555 6.44801,-41.31474 15.36941,-64.92008 2.26993,-6.00605 3.92808,-11.11914 3.68479,-11.36243 -0.90916,-0.90917 -12.56629,24.79238 -17.40718,38.37923 -4.20725,11.8084 -6.39131,19.97878 -11.46867,42.90328 -1.16267,5.24948 -0.49781,-6.25394 0.78742,-13.62396 3.01541,-17.29167 13.79023,-45.71257 25.19961,-66.46938 1.93685,-3.52366 3.28743,-6.40666 3.0013,-6.40666 -0.89469,0 -9.22398,11.38115 -13.4161,18.33177 -8.34816,13.84144 -22.237106,48.2769 -25.404808,62.98723 -1.519439,7.05605 -2.323124,4.83809 -0.919817,-2.53845 4.08146,-21.45436 14.453835,-45.01993 31.287675,-71.0842 6.337,-9.81174 4.18655,-8.13679 -5.73595,4.46764 -11.06283,14.05297 -23.413674,37.92713 -30.035211,58.05802 -2.12061,6.4471 -4.169055,11.21491 -4.552101,10.59513 -0.843386,-1.36462 6.527823,-23.05576 11.831768,-34.81714 8.074164,-17.90428 18.478394,-33.71389 31.209224,-47.42355 l 4.57202,-4.92355 -4.13287,3.16481 c -18.07757,13.84318 -41.127778,48.51172 -50.192178,75.49127 -3.259136,9.70059 -4.829026,12.33765 -3.729098,6.26404 0.98737,-5.45208 7.464612,-21.31912 13.092847,-32.07302 12.352409,-23.60181 25.654039,-39.9322 43.961299,-53.9712 1.87271,-1.43609 1.87818,-1.49091 0.086,-0.86131 -1.39887,0.49141 -1.70161,0.32866 -1.12478,-0.60469 0.99373,-1.60788 -1.45454,-0.87947 -10.1361,3.01568 -23.435253,10.51469 -52.813974,40.0445 -63.84319,64.17152 -2.729133,5.97013 -4.935845,7.81964 -3.545423,2.97153 2.040715,-7.11556 11.417976,-22.55812 18.888362,-31.10552 7.359717,-8.42079 25.04285,-24.33022 31.963081,-28.75704 6.48528,-4.14858 15.16971,-8.39477 24.21209,-11.83835 5.50642,-2.09699 5.88857,-2.38359 2.5,-1.87498 -15.68517,2.35427 -41.006215,17.87927 -59.293425,36.35436 -7.502225,7.5793 -17.875253,20.77537 -21.16966,26.93102 -0.659425,1.23215 -1.418914,2.02031 -1.687752,1.75148 -1.853448,-1.85341 18.86037,-29.1539 28.590963,-37.6825 7.052945,-6.18171 21.138894,-15.93595 28.309834,-19.604 6.26776,-3.20605 6.04756,-3.87827 -0.43359,-1.32364 -20.569042,8.10756 -48.761671,29.50845 -61.023248,46.32246 -2.849792,3.90785 -5.319078,7.29268 -5.487301,7.52185 -0.168224,0.22916 -0.56732,0.1552 -0.886881,-0.16436 -1.49318,-1.49318 8.115479,-14.46352 16.58102,-22.38206 22.101447,-20.67335 43.774669,-32.69675 68,-37.72357 1.375,-0.28532 -0.2,-0.33769 -3.5,-0.11638 -4.25388,0.28527 -5.22792,0.15387 -3.347,-0.45154 3.55899,-1.14552 22.847003,-1.02681 22.847003,0.14062 0,0.50791 0.74607,0.17741 1.65793,-0.73446 1.54391,-1.54391 1.45795,-1.82476 -1.25,-4.08367 l -2.907933,-2.42574 2.750003,0.62065 c 4.88306,1.10207 3.00477,-1.35549 -4.396683,-5.75261 -3.93067,-2.33517 -6.66118,-4.4076 -6.06779,-4.60539 1.43888,-0.47963 5.83815,1.86884 10.583593,5.64984 4.56463,3.63694 6.24797,3.206 4.05348,-1.03768 -2.19045,-4.23587 -0.97547,-4.80595 1.51977,-0.7131 l 2.05015,3.36278 0.004,-3.75 c 0.002,-2.0625 0.4803,-3.75 1.06276,-3.75 0.58246,0 0.80012,0.41891 0.48369,0.9309 -0.31644,0.512 -0.1838,1.17289 0.29475,1.46864 0.47855,0.29576 1.37624,-0.57314 1.99487,-1.9309 0.61864,-1.35775 1.60027,-2.46864 2.18141,-2.46864 0.70952,0 0.67457,0.71388 -0.1064,2.17315 l -1.16304,2.17314 2.78051,-2.18715 c 4.80427,-3.77904 4.20045,-1.16708 -0.77481,3.35159 -2.6125,2.37275 -4.75,4.6336 -4.75,5.02412 0,0.39052 0.6039,0.20884 1.34201,-0.40373 0.7381,-0.61257 1.71025,-0.78017 2.16032,-0.37244 0.45008,0.40772 0.51191,0.20681 0.13742,-0.44648 -0.81515,-1.42199 5.96981,-6.20507 12.11025,-8.53718 5.39235,-2.04799 5.62631,-0.54287 0.25,1.6083 -5.35533,2.14278 -5.05035,2.59281 0.75,1.10672 6.42189,-1.64534 15.37422,-2.74052 12.75,-1.55976 -1.1,0.49494 -4.0193,1.2756 -6.48732,1.73481 -3.17528,0.59079 -0.54377,0.76807 9,0.60629 12.59177,-0.21343 18.74408,0.3052 17.56829,1.48098 -0.2741,0.2741 -5.12944,0.4255 -10.78966,0.33645 -5.66022,-0.089 -14.11631,0.52125 -18.79131,1.35622 -10.11279,1.80617 -10.96021,1.84981 -9,0.46353 1.33333,-0.94295 1.33333,-1.0107 0,-0.60969 -0.825,0.24812 -1.38038,0.97874 -1.23418,1.6236 0.14621,0.64486 -0.30379,1.09779 -1,1.00652 -2.40398,-0.31517 -3.88215,0.0738 -3.37836,0.88891 0.27802,0.44985 -0.30646,2.13735 -1.29885,3.75 l -1.80433,2.9321 3.10786,2.81849 c 1.70932,1.55017 2.46889,2.48885 1.68792,2.08595 -1.08153,-0.55795 -1.24629,-0.27636 -0.69132,1.18152 0.43798,1.15056 -0.89033,0.33727 -3.33006,-2.03891 l -4.05894,-3.95295 v 3.14394 c 0,1.72916 -0.45,3.42204 -1,3.76196 -0.55,0.33992 -1,0.0665 -1,-0.60765 0,-0.67413 -0.21656,-1.00912 -0.48125,-0.74443 -1.45241,1.4524 -6.789003,50.5914 -10.626943,97.85208 -0.067,0.825 -0.50666,-0.3 -0.97704,-2.5 -0.47037,-2.2 -0.61668,-8.05 -0.32512,-13 0.87299,-14.82143 2.39164,-32.55162 3.42612,-40 1.31601,-9.47538 3.909553,-27.31179 4.507623,-31 0.47256,-2.91423 0.45583,-2.92852 -0.58529,-0.5 -1.67911,3.9167 -10.608133,50.07546 -12.984103,67.12157 -2.32744,16.69791 -4.00983,22.42149 -3.32941,11.32681 0.95133,-15.5121 6.10246,-47.28925 10.83509,-66.84143 2.00851,-8.29783 0.30246,-5.76201 -3.29194,4.89305 -5.33265,15.80785 -11.00566,38.07376 -13.18192,51.73746 -3.03042,19.02663 -4.05656,22.33883 -3.4892,11.26254 z m 35.457283,-11.5 c -0.0588,-11.275 -0.23696,-21.175 -0.39589,-22 -0.15894,-0.825 -0.53631,-9.6 -0.83861,-19.5 l -0.54963,-18 1.36596,9.5 c 1.8676,12.98897 3.13757,65.99853 1.64284,68.57404 -0.85221,1.46841 -1.14315,-2.94418 -1.22467,-18.57404 z m 17.71837,18.25 c -0.24517,-0.4125 -0.75227,-4.575 -1.1269,-9.25 -1.07908,-13.46578 -5.28337,-39.35055 -8.65895,-53.31105 -3.34176,-13.82058 -3.38936,-18.06051 -0.0785,-6.99208 4.5791,15.3083 8.63966,39.35046 9.97365,59.05313 0.41894,6.1875 0.66602,11.25 0.54908,11.25 -0.11694,0 -0.41321,-0.3375 -0.65838,-0.75 z m -24.67981,-1.25 c -0.51318,-2.85337 0.0429,-71.53112 0.64607,-79.79467 1.27381,-17.45082 1.84733,-5.59865 1.50625,31.12762 -0.30579,32.92559 -1.229,53.80084 -2.15232,48.66705 z m 15.95846,-2.25 c -0.22957,-15.20175 -2.84144,-41.43767 -6.02789,-60.54942 -1.12785,-6.76468 -1.89181,-13.06468 -1.69768,-14 0.36128,-1.7407 3.52662,14.42841 6.32308,32.29942 1.62716,10.39846 3.2521,45.5 2.10633,45.5 -0.36012,0 -0.67685,-1.4625 -0.70384,-3.25 z m 65.78029,-0.83016 c 0.35361,-1.3522 0.8069,-1.8055 1.05655,-1.05655 0.24048,0.72144 -0.0382,1.78716 -0.61931,2.36826 -0.74207,0.74207 -0.87221,0.35164 -0.43724,-1.31171 z m -49.15756,-1.16984 c -0.25545,-1.2375 -0.74629,-4.5 -1.09075,-7.25 -1.52151,-12.14689 -10.62096,-47.59692 -16.23527,-63.25 -2.21927,-6.1875 -3.82965,-11.25 -3.57862,-11.25 1.07269,0 6.40352,13.47354 10.08912,25.5 5.59261,18.24922 10.22532,39.0524 11.74701,52.75 0.62362,5.61357 -0.006,7.98111 -0.93149,3.5 z m 5.12967,-10.78799 c -2.62418,-11.69335 -10.95295,-40.56176 -12.70368,-44.03232 -0.43568,-0.86366 -2.21735,-5.13866 -3.95927,-9.5 -1.74192,-4.36133 -4.05919,-9.8966 -5.1495,-12.30061 -2.40202,-5.29619 -1.87271,-6.49795 0.8508,-1.93168 8.71677,14.61467 25.21654,67.65766 24.08357,77.42322 -0.20065,1.72953 -1.39654,-1.97033 -3.12192,-9.65861 z m 7.99264,4.03799 c -4.64766,-21.89807 -20.64589,-62.39599 -30.71349,-77.74816 l -3.11616,-4.75184 3.13008,3.5 c 1.72154,1.925 3.5217,3.39747 4.00036,3.27216 1.24317,-0.32546 5.98237,5.91408 11.95781,15.74341 4.96164,8.16169 7.40239,12.90733 13.87842,26.98443 4.4442,9.66047 11.35682,30.70474 10.92705,33.26554 -0.2814,1.67675 -0.67986,1.11129 -1.59644,-2.26554 -0.67179,-2.475 -2.38658,-7.65 -3.81064,-11.5 -1.42406,-3.85 -3.23353,-8.75922 -4.02106,-10.90938 -3.90571,-10.66362 -14.16389,-31.15021 -19.94908,-39.84024 -3.5701,-5.36271 -6.65946,-9.75038 -6.86525,-9.75038 -0.20578,0 3.02287,7.0516 7.17479,15.67023 11.20648,23.2626 21.90385,55.47853 21.11932,63.60239 -0.23435,2.4267 -0.75924,1.11861 -2.11571,-5.27262 z m 10.38299,6.41667 c 0.048,-1.16495 0.28494,-1.4019 0.60416,-0.60417 0.28887,0.72187 0.25335,1.58438 -0.0789,1.91667 -0.3323,0.33229 -0.56864,-0.25834 -0.52522,-1.3125 z m 34.48534,-1.7098 c 0.37553,-0.98622 0.93469,-1.54122 1.24258,-1.23333 0.30789,0.30789 6.4e-4,1.11479 -0.68278,1.79313 -0.98762,0.98026 -1.10248,0.8654 -0.5598,-0.5598 z m -26.59284,-5.85951 c -0.64194,-2.39105 -2.06942,-7.04736 -3.17218,-10.34736 -2.32688,-6.9632 -17.84813,-38.47536 -20.79823,-42.2258 -1.10057,-1.39916 -2.00104,-2.97 -2.00104,-3.49076 0,-1.37174 -6.44194,-9.31425 -13.40981,-16.53344 -3.31783,-3.4375 -5.57661,-6.25 -5.01951,-6.25 1.25935,0 7.6803,6.64825 13.77125,14.25874 14.61748,18.2642 27.68904,43.60032 31.15723,60.39089 1.7137,8.29657 1.34983,11.19101 -0.52771,4.19773 z m 7.69953,-2.84736 c -2.55595,-9.23576 -10.32314,-27.19725 -15.56769,-36 -3.75738,-6.3066 -9.02593,-13.91431 -16.96692,-24.5 -0.82518,-1.1 0.0452,-0.425 1.93416,1.5 12.47601,12.714 28.70183,41.51444 31.96744,56.74145 1.70107,7.9318 0.67308,9.63024 -1.36699,2.25855 z m -146.670983,1.5596 c 0,-0.24222 1.146631,-3.61914 2.54807,-7.50425 6.920726,-19.18587 27.681693,-50.20018 41.64335,-62.21001 8.51332,-7.32317 12.82499,-10.4103 15.80858,-11.31888 1.375,-0.41872 -0.8768,1.46019 -5.00401,4.17534 -9.47895,6.2359 -19.19797,16.72551 -28.535715,30.7982 -8.424798,12.69682 -20.73334,34.82559 -23.222323,41.75 -0.939064,2.6125 -2.051767,4.75 -2.472671,4.75 -0.420905,0 -0.765281,-0.19818 -0.765281,-0.4404 z m 156.181393,-4.34852 c -1.7821,-5.94812 -10.38591,-22.94947 -15.79487,-31.21108 -5.86249,-8.95433 -13.05127,-18.30036 -19.88652,-25.8542 -3.70306,-4.09236 -4.22183,-4.98265 -2,-3.43225 7.94163,5.54167 26.14755,30.5485 33.28002,45.71195 3.37884,7.18332 6.73695,17.39087 5.97271,18.1551 -0.23776,0.23776 -0.94486,-1.27852 -1.57134,-3.36952 z M 22.126637,296.9264 c 0,-4.38221 14.153419,-30.64027 22.436787,-41.62573 8.955198,-11.87645 24.445863,-26.54308 31.563213,-29.88419 l 2.5,-1.17358 -2.5,1.77768 c -3.77965,2.68759 -15.917814,14.14821 -20.845049,19.68147 -10.581745,11.88326 -24.830757,33.49853 -29.564681,44.84862 -2.41739,5.79595 -3.59027,7.87879 -3.59027,6.37573 z m 172.069073,-7.44104 c -1.20953,-3.23425 -3.74487,-8.44644 -5.63411,-11.58265 -1.88923,-3.13621 -3.43496,-5.94195 -3.43496,-6.23497 0,-0.29303 -3.76855,-5.33626 -8.37456,-11.20719 -10.07841,-12.84616 -24.97173,-27.92682 -32.95251,-33.36699 -5.76833,-3.93205 -7.4409,-6.77978 -1.86046,-3.16763 6.97848,4.51706 37.16446,33.37646 37.18207,35.54801 0.003,0.37031 1.07172,1.94531 2.37492,3.5 5.69225,6.79078 17.02165,30.26895 15.39246,31.89815 -0.27154,0.27154 -1.48333,-2.15249 -2.69285,-5.38673 z m 5.48482,-10.99812 c -8.35537,-16.44113 -26.76819,-36.01995 -45.37448,-48.24782 -11.3911,-7.48612 -13.767,-9.80105 -6.02632,-5.87167 14.29356,7.2558 34.78036,26.0675 45.66688,41.93292 3.56888,5.2011 10.54637,18.96699 9.92747,19.5859 -0.15799,0.15798 -2.04509,-3.17172 -4.19355,-7.39933 z m 17.90499,-0.2531 c -0.36253,-0.58659 -0.44468,-1.281 -0.18255,-1.54313 0.26212,-0.26213 0.74306,0.21781 1.06875,1.06653 0.67618,1.76211 0.0999,2.07206 -0.8862,0.4766 z m -12.70491,-8.18526 c -1.51032,-2.33651 -4.74914,-6.48439 -7.19739,-9.21749 -2.44824,-2.73311 -4.22307,-5.19757 -3.94406,-5.47658 0.27901,-0.27901 2.06635,1.28217 3.97187,3.46929 4.70383,5.39895 11.67413,15.47699 10.70287,15.47478 -0.43299,-9.8e-4 -2.02297,-1.91348 -3.53329,-4.25 z m 9.24603,1.75179 c -0.70675,-0.85158 -1.06,-1.77333 -0.785,-2.04833 0.275,-0.275 1.07825,0.19675 1.785,1.04833 0.70675,0.85158 1.06,1.77333 0.785,2.04833 -0.275,0.275 -1.07825,-0.19675 -1.785,-1.04833 z M -8.060863,270.61756 c 0.721875,-0.28887 1.584375,-0.25335 1.916667,0.0789 0.332291,0.33229 -0.258334,0.56864 -1.3125,0.52522 -1.164943,-0.048 -1.4019,-0.28494 -0.604167,-0.60416 z m 215.642993,-7.51348 c -7.90713,-10.38813 -24.13533,-25.68324 -32.20549,-30.35373 -1.7875,-1.03449 -3.25,-2.26043 -3.25,-2.7243 0,-0.95576 0.68199,-0.59323 7.06477,3.7554 8.9846,6.12128 19.87829,15.80505 25.93523,23.05472 3.82537,4.57866 8,10.26544 8,10.89778 0,1.68401 -2.02686,-0.008 -5.54451,-4.62987 z M -4.820911,266.72211 C -4.989,263.26574 9.553211,247.30381 20.617096,238.80067 31.51811,230.4227 48.866724,220.71375 51.416425,221.56419 c 0.665616,0.22201 -1.984082,2.00689 -5.88822,3.96639 -20.457233,10.2676 -38.45136,25.0021 -48.599116,39.79542 -0.933652,1.36107 -1.721152,1.98932 -1.75,1.39611 z M 216.79331,262.634 c -0.36667,-0.36666 -0.66667,-1.13166 -0.66667,-1.7 0,-0.6266 0.46577,-0.56756 1.18333,0.15 0.65084,0.65084 0.95084,1.41584 0.66667,1.7 -0.28417,0.28417 -0.81667,0.21667 -1.18333,-0.15 z m -227.642281,-1.91189 c -0.01342,-0.5932 1.40917,-3.24283 3.1613,-5.88807 11.262398,-17.00312 37.663039,-33.51557 63.171889,-39.51127 16.670499,-3.9183 19.066299,-3.74915 5.142419,0.36308 -31.244321,9.22758 -49.422756,20.28675 -66.760331,40.61482 -2.579987,3.025 -4.701862,5.01465 -4.715277,4.42144 z m 232.434491,-4.48797 c -0.36253,-0.58659 -0.38909,-1.33659 -0.059,-1.66667 0.33008,-0.33007 0.60014,-0.027 0.60014,0.67352 0,0.74024 0.64996,1.02424 1.55194,0.67812 0.88992,-0.34149 1.29132,-0.17385 0.94098,0.39301 -0.80027,1.29487 -2.20793,1.25869 -3.03404,-0.078 z m -16.95888,-8.43852 c -3.85,-3.85754 -10.73831,-9.64617 -15.30736,-12.86363 -4.56905,-3.21746 -8.09124,-6.06606 -7.82707,-6.33022 0.5985,-0.5985 11.54501,6.7148 17.83375,11.91464 4.54301,3.75639 13.44468,13.64201 12.67731,14.07862 -0.20714,0.11786 -3.52663,-2.94187 -7.37663,-6.79941 z m -21.5,-1.30607 c -4.125,-3.68367 -8.85,-7.69387 -10.5,-8.91155 -1.65,-1.21768 -2.4642,-2.22823 -1.80933,-2.24565 1.71463,-0.0456 15.87692,11.55231 18.35331,15.03009 1.15072,1.61603 1.94907,2.91268 1.77411,2.88146 -0.17495,-0.0312 -3.69309,-3.07068 -7.81809,-6.75435 z m -193.000003,1.88219 c 0,-0.54884 2.748371,-3.93591 6.10749,-7.52682 13.972812,-14.93698 32.087948,-24.98396 54.006484,-29.95297 7.884709,-1.78748 27.782056,-3.98038 30.478776,-3.35908 2.27255,0.52358 -0.29601,1.00195 -16.83016,3.13448 -12.01911,1.55019 -28.302414,6.38402 -38.26259,11.35855 -9.23609,4.6129 -21.619071,13.46281 -28.586703,20.43044 -3.802314,3.80231 -6.913297,6.46424 -6.913297,5.9154 z m 216.592133,-8.92201 c -1.00973,-1.63377 -14.74716,-11.59171 -20.09213,-14.56431 -11.33606,-6.30453 -27.00485,-11.53244 -43.55402,-14.53183 l -5.44598,-0.98703 6.5,0.42323 c 7.55843,0.49215 24.02799,4.49477 33.06159,8.03502 9.89146,3.87643 32.61162,20.0677 30.78855,21.94111 -0.35743,0.3673 -0.92353,0.22501 -1.25801,-0.31619 z M -2.873363,234.50362 c 0,-2.39076 15.355124,-14.05077 23,-17.46519 20.639269,-9.21808 30.649339,-11.70722 50.08939,-12.4554 8.57035,-0.32985 15.29487,-0.1667 16.29937,0.39545 1.18941,0.66563 -0.0555,0.83115 -4.08939,0.5437 -6.84433,-0.48771 -30.641347,2.87528 -41.282496,5.83404 -16.052334,4.46333 -28.026427,10.57152 -37.880935,19.32372 -5.305608,4.71213 -6.135939,5.22956 -6.135939,3.82368 z m 136.190643,-7.3022 c -4.57015,-4.34541 -7.93724,-7.90075 -7.48243,-7.90075 1.22383,0 16.87649,14.68882 16.29179,15.2886 -0.275,0.28209 -4.23921,-3.04244 -8.80936,-7.38785 z m 30.80936,4.62632 c -1.925,-1.23099 -6.76661,-3.94906 -10.75914,-6.04015 -3.99252,-2.09109 -7.02487,-4.03624 -6.73854,-4.32257 0.66809,-0.66809 16.24001,7.28143 19.38934,9.89833 3.40297,2.82766 2.24755,3.1113 -1.89166,0.46439 z m 41.45888,-0.5936 c -1.07627,-1.74144 0.14952,-2.11024 1.52106,-0.45764 0.78875,0.95039 0.86462,1.52417 0.20152,1.52417 -0.58488,0 -1.36004,-0.47994 -1.72258,-1.06653 z m -32.45888,-5.92477 c -3.025,-1.59331 -8.77329,-4.1113 -12.77397,-5.59551 -4.00069,-1.48422 -7.04757,-2.92498 -6.77085,-3.2017 0.89843,-0.89844 14.30724,3.81668 18.02118,6.33703 1.98685,1.34831 3.95647,2.45148 4.37692,2.45148 0.42045,0 1.63797,0.66069 2.70559,1.4682 3.15962,2.38982 0.3475,1.65149 -5.55887,-1.4595 z m 22.98932,-1.30381 c -9.3042,-6.15822 -21.37956,-11.33546 -33.74652,-14.46864 -9.15473,-2.31936 -12.73845,-2.71417 -24.2428,-2.67078 -7.425,0.028 -14.85,0.37589 -16.5,0.7731 -2.17232,0.52294 -2.58616,0.44213 -1.5,-0.29288 1.33333,-0.90228 1.33333,-1.02014 0,-1.06079 -1.33333,-0.0406 -1.33333,-0.14001 0,-0.89435 0.825,-0.46674 2.625,-1.1236 4,-1.45967 2.13579,-0.52203 2.06295,-0.39039 -0.5,0.90357 l -3,1.51462 3,-0.54411 c 5.50485,-0.99842 23.89694,-0.74442 32.5,0.44883 16.13354,2.23774 34.95966,9.82204 43.59879,17.56424 6.25573,5.60624 4.70014,5.68677 -3.60947,0.18686 z m -39.28253,-1.16031 c -5.85301,-2.8057 -6.95326,-3.76245 -3.03418,-2.63847 3.37789,0.96876 9.32739,3.91537 9.32739,4.61957 0,0.81475 -1.34213,0.39225 -6.29321,-1.9811 z m -22.70679,-2.54458 c -0.79314,-0.49019 -1.21708,-1.11625 -0.94208,-1.39125 0.275,-0.275 1.14894,-0.0989 1.94208,0.39125 0.79314,0.49019 1.21708,1.11625 0.94208,1.39125 -0.275,0.275 -1.14894,0.0989 -1.94208,-0.39125 z m -78.450003,-0.93519 c 1.09156,-1.07454 15.14928,-5.10104 17.4299,-4.99238 1.50422,0.0717 -15.598749,5.86813 -17.4299,5.90727 -0.6,0.0128 -0.6,-0.32424 0,-0.91489 z m 92.450003,-0.0648 c -1.2819,-0.82843 -1.24555,-0.9716 0.25,-0.98469 0.9625,-0.008 1.75,0.43469 1.75,0.98469 0,1.21961 -0.11279,1.21961 -2,0 z m -7,-2 c -2.32726,-0.74532 -2.34861,-0.80753 -0.30902,-0.90032 1.20504,-0.0548 2.4691,0.35032 2.80902,0.90032 0.33992,0.55 0.47898,0.95514 0.30902,0.90032 -0.16996,-0.0548 -1.43402,-0.45997 -2.80902,-0.90032 z m -15.5,-1.472 c -3.3739,-1.11195 -3.60868,-1.35031 -1.5,-1.52283 l 2.5,-0.20453 -2.5,-0.80064 c -2.06094,-0.66003 -2.14875,-0.81575 -0.5,-0.88667 1.1,-0.0473 3.1009,0.20844 4.44645,0.56833 2.26579,0.60603 2.30271,0.7106 0.5,1.41606 -1.90357,0.74493 -1.90239,0.7636 0.0536,0.84731 1.1,0.0471 2.675,0.52181 3.5,1.05497 2.23724,1.44582 -1.50557,1.17403 -6.5,-0.472 z M 20.126637,213.90766 c 0,-0.21616 0.698372,-0.661 1.551938,-0.98855 0.889925,-0.34149 1.291322,-0.17385 0.940983,0.39301 -0.587258,0.95021 -2.492921,1.40545 -2.492921,0.59554 z m 118.812503,-1.2901 c 0.72187,-0.28887 1.58437,-0.25335 1.91667,0.0789 0.33229,0.33229 -0.25834,0.56864 -1.3125,0.52522 -1.16495,-0.048 -1.4019,-0.28494 -0.60417,-0.60416 z m -66.000003,-1 c 0.72187,-0.28887 1.58437,-0.25335 1.91667,0.0789 0.33229,0.33229 -0.25834,0.56864 -1.3125,0.52522 -1.16495,-0.048 -1.4019,-0.28494 -0.60417,-0.60416 z m 43.437503,-0.006 c 0.9625,-0.25152 2.5375,-0.25152 3.5,0 0.9625,0.25153 0.175,0.45733 -1.75,0.45733 -1.925,0 -2.7125,-0.2058 -1.75,-0.45733 z m 8.5,-0.97295 c 0.6875,-0.27741 1.8125,-0.27741 2.5,0 0.6875,0.27741 0.125,0.50439 -1.25,0.50439 -1.375,0 -1.9375,-0.22698 -1.25,-0.50439 z m 9.25,-1.33794 c -1.21296,-0.78387 -1.06944,-0.9723 0.75,-0.98469 1.2375,-0.008 2.25,0.43469 2.25,0.98469 0,1.25292 -1.06124,1.25292 -3,0 z M 31.126637,208.47951 c 0,-1.50857 9.482507,-4.81392 18.977673,-6.61512 10.462628,-1.98473 29.934607,-2.03897 36.022327,-0.10034 4.25772,1.35586 3.82222,1.40114 -8.08868,0.84104 -17.46609,-0.82133 -33.754306,1.40674 -45.16132,6.17763 -1.01099,0.42284 -1.75,0.2948 -1.75,-0.30321 z m 136.750003,-2.4606 c -4.2625,-1.0948 -7.75,-2.42806 -7.75,-2.9628 0,-1.04703 2.16966,-0.66925 11.25,1.95885 3.1625,0.91532 5.75,2.02905 5.75,2.47496 0,0.95616 0.52506,1.03966 -9.25,-1.47101 z m -75.750003,-1.71824 c -0.825,-0.53316 -1.05,-0.96937 -0.5,-0.96937 0.55,0 1.675,0.43621 2.5,0.96937 0.825,0.53316 1.05,0.96937 0.5,0.96937 -0.55,0 -1.675,-0.43621 -2.5,-0.96937 z m 3,-1 c -0.825,-0.53316 -1.05,-0.96937 -0.5,-0.96937 0.55,0 1.675,0.43621 2.5,0.96937 0.825,0.53316 1.05,0.96937 0.5,0.96937 -0.55,0 -1.675,-0.43621 -2.5,-0.96937 z m 6.924313,-1.75 -2.424313,-2.75 2.750003,2.42431 c 2.57029,2.26589 3.20859,3.07569 2.42431,3.07569 -0.17912,0 -1.41662,-1.2375 -2.75,-2.75 z m 32.27865,0.59968 c 3.62983,-1.02765 21.13807,-0.92063 22.79704,0.13935 0.99006,0.63258 -3.0205,0.88235 -11.79704,0.73469 -7.31338,-0.12305 -12.26338,-0.51636 -11,-0.87404 z m -51.702963,-2.37248 c -2.75,-0.70686 -9.5,-1.35693 -15,-1.44459 -7.881436,-0.12562 -9.470359,-0.37583 -7.5,-1.18107 4.27467,-1.74696 26.77497,0.7401 29.45,3.25524 1.23551,1.16166 -0.64356,0.99144 -6.95,-0.62958 z"
           id="path408"
           inkscape:connector-curvature="0" />
        <path
           style="fill:#ffff00"
           d="m 113.14093,319.88638 c 0.64761,-0.64761 1.32381,-0.64761 1.97142,0 0.64762,0.64762 0.30953,0.98572 -0.98571,0.98572 -1.29524,0 -1.63333,-0.3381 -0.98571,-0.98572 z m -0.81455,-17.58571 0.13892,-14.5 0.66219,13 c 0.36421,7.15 0.3017,13.675 -0.13892,14.5 -0.44061,0.825 -0.7386,-5.025 -0.66219,-13 z m -7.55908,9.78966 c -0.33734,-1.25931 -0.56049,-4.08966 -0.49589,-6.28966 0.0969,-3.29979 0.25236,-2.94968 0.88808,2 0.80985,6.30544 0.64138,8.14806 -0.39219,4.28966 z m -19.625353,0.0194 c -0.008,-0.93004 0.43469,-1.9691 0.98469,-2.30902 1.2656,-0.78218 1.2656,0.54163 0,2.5 -0.8354,1.29269 -0.97149,1.26629 -0.98469,-0.19098 z m -7.93636,-1.39235 c 0.048,-1.16495 0.28494,-1.4019 0.60416,-0.60417 0.28887,0.72187 0.25335,1.58438 -0.0789,1.91667 -0.3323,0.33229 -0.56864,-0.25834 -0.52522,-1.3125 z m 109.652263,-0.49683 c 0.35361,-1.3522 0.8069,-1.8055 1.05655,-1.05655 0.24048,0.72144 -0.0382,1.78716 -0.61931,2.36826 -0.74207,0.74207 -0.87221,0.35164 -0.43724,-1.31171 z m -49.157,-0.58706 c -0.35188,-0.91697 -0.23127,-2.07572 0.26801,-2.575 0.54371,-0.54371 0.90778,0.12494 0.90778,1.66722 0,2.99774 -0.28837,3.22038 -1.17579,0.90778 z m -43.301853,-3.33282 c 0,-2.475 0.19502,-3.4875 0.43337,-2.25 0.23836,1.2375 0.23836,3.2625 0,4.5 -0.23835,1.2375 -0.43337,0.225 -0.43337,-2.25 z m 66.806593,2.41667 c 0.048,-1.16495 0.28494,-1.4019 0.60416,-0.60417 0.28887,0.72187 0.25335,1.58438 -0.0789,1.91667 -0.3323,0.33229 -0.56864,-0.25834 -0.52522,-1.3125 z M 55.626637,308.30067 c -0.339919,-0.55 -0.141476,-1 0.440983,-1 0.582459,0 1.059017,0.45 1.059017,1 0,0.55 -0.198442,1 -0.440983,1 -0.242541,0 -0.719098,-0.45 -1.059017,-1 z m -19.5,-1.94098 c 0,-2.41457 0.556111,-2.65816 1.349337,-0.59105 0.309823,0.80739 0.132968,1.73395 -0.393011,2.05902 -0.525979,0.32508 -0.956326,-0.33551 -0.956326,-1.46797 z m 40.15789,-0.059 c 0,-1.375 0.22698,-1.9375 0.50439,-1.25 0.27741,0.6875 0.27741,1.8125 0,2.5 -0.27741,0.6875 -0.50439,0.125 -0.50439,-1.25 z m 19.92106,0.41667 c 0.048,-1.16495 0.28494,-1.4019 0.60416,-0.60417 0.28887,0.72187 0.25335,1.58438 -0.0789,1.91667 -0.3323,0.33229 -0.56864,-0.25834 -0.52522,-1.3125 z m 99.485343,0.2902 c 0.37553,-0.98622 0.93469,-1.54122 1.24258,-1.23333 0.30789,0.30789 6.4e-4,1.11479 -0.68278,1.79313 -0.98762,0.98026 -1.10248,0.8654 -0.5598,-0.5598 z m -51.54898,-1.39785 c 0.008,-0.44496 0.45153,-1.48402 0.98469,-2.30902 0.8354,-1.29269 0.97149,-1.26629 0.98469,0.19098 0.008,0.93004 -0.43469,1.9691 -0.98469,2.30902 -0.55,0.33992 -0.99311,0.25398 -0.98469,-0.19098 z m 7.01532,0.19098 c 0,-0.55 0.43621,-1.675 0.96937,-2.5 0.53316,-0.825 0.96937,-1.05 0.96937,-0.5 0,0.55 -0.43621,1.675 -0.96937,2.5 -0.53316,0.825 -0.96937,1.05 -0.96937,0.5 z m -72.951683,-2.08333 c 0.048,-1.16495 0.28494,-1.4019 0.60416,-0.60417 0.28887,0.72187 0.25335,1.58438 -0.0789,1.91667 -0.3323,0.33229 -0.56864,-0.25834 -0.52522,-1.3125 z m 28.220713,-3.41667 c 0,-3.025 0.18747,-4.2625 0.41659,-2.75 0.22913,1.5125 0.22913,3.9875 0,5.5 -0.22912,1.5125 -0.41659,0.275 -0.41659,-2.75 z m 21.77929,3.41667 c 0.048,-1.16495 0.28494,-1.4019 0.60416,-0.60417 0.28887,0.72187 0.25335,1.58438 -0.0789,1.91667 -0.3323,0.33229 -0.56864,-0.25834 -0.52522,-1.3125 z m 41.42105,-0.41667 c -0.37544,-1.1829 -0.45761,-2.37572 -0.18261,-2.65072 0.275,-0.275 0.80717,0.46782 1.18261,1.65072 0.37544,1.1829 0.45761,2.37572 0.18261,2.65072 -0.275,0.275 -0.80717,-0.46782 -1.18261,-1.65072 z m -9.73084,-0.95633 c -0.69118,-2.46112 -0.27771,-3.88556 0.81164,-2.7962 0.31944,0.31944 0.42272,1.63194 0.2295,2.91667 l -0.35131,2.33586 z m -122.310282,-0.1102 c -0.362533,-0.58659 -0.444683,-1.281 -0.182555,-1.54313 0.262128,-0.26213 0.743066,0.21781 1.068751,1.06653 0.676184,1.76211 0.09985,2.07206 -0.886196,0.4766 z M 120.399,299.30067 c 0,-2.475 0.19502,-3.4875 0.43337,-2.25 0.23836,1.2375 0.23836,3.2625 0,4.5 -0.23835,1.2375 -0.43337,0.225 -0.43337,-2.25 z m 29.72764,0.55902 c 0,-0.85746 0.45,-1.55902 1,-1.55902 0.55,0 1,0.42344 1,0.94098 0,0.51754 -0.45,1.2191 -1,1.55902 -0.55,0.33992 -1,-0.0835 -1,-0.94098 z m 27,0.55901 c 0,-0.55 0.45,-1.27811 1,-1.61803 0.55,-0.33992 1,-0.16803 1,0.38197 0,0.55 -0.45,1.27811 -1,1.61803 -0.55,0.33992 -1,0.16803 -1,-0.38197 z m -99.842113,-2.11803 c 0,-1.375 0.22698,-1.9375 0.50439,-1.25 0.27741,0.6875 0.27741,1.8125 0,2.5 -0.27741,0.6875 -0.50439,0.125 -0.50439,-1.25 z m 9.03706,-0.5 c 0.0204,-1.65 0.2445,-2.20394 0.49804,-1.23097 0.25354,0.97297 0.23687,2.32297 -0.037,3 -0.27393,0.67703 -0.48137,-0.11903 -0.46099,-1.76903 z m 82.244443,0.7062 c 0.40303,-0.7116 0.1562,-2.0616 -0.54853,-3 -1.15363,-1.53616 -1.09173,-1.53251 0.62105,0.0367 1.58927,1.456 1.67955,1.94977 0.54853,3 -1.09025,1.01237 -1.21117,1.00523 -0.62105,-0.0367 z m -89.360443,-1.78953 c 0.048,-1.16495 0.28494,-1.4019 0.60416,-0.60417 0.28887,0.72187 0.25335,1.58438 -0.0789,1.91667 -0.3323,0.33229 -0.56864,-0.25834 -0.52522,-1.3125 z m 78.921053,0.0243 c 0,-0.85746 0.45734,-1.27636 1.01631,-0.9309 0.55897,0.34546 0.75742,1.04702 0.44098,1.55902 -0.85723,1.38704 -1.45729,1.12841 -1.45729,-0.62812 z m 28.62354,0.0204 c -0.96498,-2.51469 -0.68031,-3.16355 0.49853,-1.13634 0.58369,1.00375 0.8506,2.03566 0.59313,2.29313 -0.25747,0.25747 -0.74872,-0.26309 -1.09166,-1.15679 z M 22.126637,296.35969 c 0,-0.51754 0.444846,-1.21592 0.988546,-1.55194 0.56686,-0.35034 0.734507,0.0511 0.393011,0.94098 -0.664791,1.73242 -1.381557,2.04939 -1.381557,0.61096 z m 154.030633,0.44098 c 0,-0.55 0.43621,-1.675 0.96937,-2.5 0.53316,-0.825 0.96937,-1.05 0.96937,-0.5 0,0.55 -0.43621,1.675 -0.96937,2.5 -0.53316,0.825 -0.96937,1.05 -0.96937,0.5 z M 50.69093,294.5938 c -0.542685,-1.4252 -0.427821,-1.54006 0.559795,-0.5598 0.683418,0.67834 0.990671,1.48524 0.682784,1.79313 -0.307887,0.30789 -0.867048,-0.24711 -1.242579,-1.23333 z m 46.630657,-0.79313 c 0.0204,-1.65 0.2445,-2.20394 0.49804,-1.23097 0.25354,0.97297 0.23687,2.32297 -0.0371,3 -0.27393,0.67703 -0.48137,-0.11903 -0.46099,-1.76903 z m 37.805053,0.55902 c 0,-0.51754 0.44485,-1.21592 0.98855,-1.55194 0.56686,-0.35034 0.7345,0.0511 0.39301,0.94098 -0.66479,1.73242 -1.38156,2.04939 -1.38156,0.61096 z m 60.6,-0.65902 c -0.35589,-0.92744 -0.42208,-1.91126 -0.14708,-2.18626 0.275,-0.275 0.79119,0.25882 1.14708,1.18626 0.35589,0.92744 0.42208,1.91126 0.14708,2.18626 -0.275,0.275 -0.79119,-0.25882 -1.14708,-1.18626 z m -117.442113,-1.4 c 0,-1.375 0.22698,-1.9375 0.50439,-1.25 0.27741,0.6875 0.27741,1.8125 0,2.5 -0.27741,0.6875 -0.50439,0.125 -0.50439,-1.25 z m 48.927713,1.5 c 0.10413,-1.89422 1.77076,-5.08385 1.8288,-3.5 0.0302,0.825 -0.38124,2.175 -0.9144,3 -0.53316,0.825 -0.94464,1.05 -0.9144,0.5 z M 51.69093,291.5938 c -0.542685,-1.4252 -0.427821,-1.54006 0.559795,-0.5598 0.683418,0.67834 0.990671,1.48524 0.682784,1.79313 -0.307887,0.30789 -0.867048,-0.24711 -1.242579,-1.23333 z m 35.630657,-1.79313 c 0.0204,-1.65 0.2445,-2.20394 0.49804,-1.23097 0.25354,0.97297 0.23687,2.32297 -0.037,3 -0.27393,0.67703 -0.48137,-0.11903 -0.46099,-1.76903 z m 61.305053,1.5 c 0.33992,-0.55 0.81648,-1 1.05902,-1 0.24254,0 0.44098,0.45 0.44098,1 0,0.55 -0.47656,1 -1.05902,1 -0.58246,0 -0.7809,-0.45 -0.44098,-1 z m -59.421053,-1.58333 c 0.048,-1.16495 0.28494,-1.4019 0.60416,-0.60417 0.28887,0.72187 0.25335,1.58437 -0.0789,1.91667 -0.3323,0.33229 -0.56864,-0.25834 -0.52522,-1.3125 z m 6.07894,-0.41667 c 0,-1.375 0.22698,-1.9375 0.50439,-1.25 0.27741,0.6875 0.27741,1.8125 0,2.5 -0.27741,0.6875 -0.50439,0.125 -0.50439,-1.25 z m 25.921063,0.41667 c 0.048,-1.16495 0.28494,-1.4019 0.60416,-0.60417 0.28887,0.72187 0.25335,1.58437 -0.0789,1.91667 -0.3323,0.33229 -0.56864,-0.25834 -0.52522,-1.3125 z m 13.55942,-0.91667 c 0.31659,-0.825 0.75246,-1.5 0.96862,-1.5 0.21615,0 0.39301,0.675 0.39301,1.5 0,0.825 -0.43588,1.5 -0.96862,1.5 -0.53273,0 -0.70959,-0.675 -0.39301,-1.5 z m -92.638373,-0.55902 c 0,-0.58246 0.45,-0.7809 1,-0.44098 0.55,0.33992 1,0.81648 1,1.05902 0,0.24254 -0.45,0.44098 -1,0.44098 -0.55,0 -1,-0.47656 -1,-1.05902 z m 37.07895,-2.52431 c 0.048,-1.16495 0.28494,-1.4019 0.60416,-0.60417 0.28887,0.72187 0.25335,1.58437 -0.0789,1.91667 -0.3323,0.33229 -0.56864,-0.25834 -0.52522,-1.3125 z m -51.896996,-1.91667 c 0.626492,-1.375 1.474506,-2.5 1.884476,-2.5 0.40997,0 0.225238,1.12149 -0.410515,2.4922 -0.635753,1.37071 -1.483768,2.49571 -1.884476,2.5 -0.400709,0.004 -0.215977,-1.1172 0.410515,-2.4922 z m 105.848679,2 c 0,-0.55 0.43621,-1.675 0.96937,-2.5 0.53316,-0.825 0.96937,-1.05 0.96937,-0.5 0,0.55 -0.43621,1.675 -0.96937,2.5 -0.53316,0.825 -0.96937,1.05 -0.96937,0.5 z m -34.872743,-2.5 c 0,-1.375 0.22698,-1.9375 0.50439,-1.25 0.27741,0.6875 0.27741,1.8125 0,2.5 -0.27741,0.6875 -0.50439,0.125 -0.50439,-1.25 z m -10.07894,-1.58333 c 0.048,-1.16495 0.28494,-1.4019 0.60416,-0.60417 0.28887,0.72187 0.25335,1.58437 -0.0789,1.91667 -0.33229,0.33229 -0.56864,-0.25834 -0.52522,-1.3125 z m 25.116003,-1.91667 c 0.0204,-1.65 0.2445,-2.20394 0.49804,-1.23097 0.25354,0.97297 0.23687,2.32297 -0.0371,3 -0.27393,0.67703 -0.48137,-0.11903 -0.46099,-1.76903 z m 77.80505,1.5 c -0.90129,-0.58246 -1.02463,-0.97549 -0.30902,-0.98469 0.65504,-0.008 1.4691,0.43469 1.80902,0.98469 0.7673,1.24153 0.42112,1.24153 -1.5,0 z m -65.9144,-1.5 c 0.10413,-1.89422 1.77076,-5.08385 1.8288,-3.5 0.0302,0.825 -0.38124,2.175 -0.9144,3 -0.53316,0.825 -0.94464,1.05 -0.9144,0.5 z m -115.085603,-1.5 c 0,-0.55 0.476558,-1 1.059017,-1 0.582459,0 0.780902,0.45 0.440983,1 -0.339919,0.55 -0.816476,1 -1.059017,1 -0.242541,0 -0.440983,-0.45 -0.440983,-1 z m 134.000003,0 c 0,-0.55 0.47656,-1 1.05902,-1 0.58246,0 0.7809,0.45 0.44098,1 -0.33992,0.55 -0.81648,1 -1.05902,1 -0.24254,0 -0.44098,-0.45 -0.44098,-1 z m -23.92105,-1.58333 c 0.048,-1.16495 0.28494,-1.4019 0.60416,-0.60417 0.28887,0.72187 0.25335,1.58437 -0.0789,1.91667 -0.3323,0.33229 -0.56864,-0.25834 -0.52522,-1.3125 z m 58.48534,0.2902 c 0.37553,-0.98622 0.93469,-1.54122 1.24258,-1.23333 0.30789,0.30789 6.4e-4,1.11479 -0.68278,1.79313 -0.98762,0.98026 -1.10248,0.8654 -0.5598,-0.5598 z m -82.406403,-1.70687 c 0,-1.375 0.22698,-1.9375 0.50439,-1.25 0.27741,0.6875 0.27741,1.8125 0,2.5 -0.27741,0.6875 -0.50439,0.125 -0.50439,-1.25 z m 22.037063,-0.5 c 0.0204,-1.65 0.2445,-2.20394 0.49804,-1.23097 0.25354,0.97297 0.23687,2.32297 -0.0371,3 -0.27393,0.67703 -0.48137,-0.11903 -0.46099,-1.76903 z m -4.96295,-1.5 c 0,-1.925 0.2058,-2.7125 0.45733,-1.75 0.25152,0.9625 0.25152,2.5375 0,3.5 -0.25153,0.9625 -0.45733,0.175 -0.45733,-1.75 z m 84.04568,0.75 c -0.53197,-0.6875 -1.27237,-2.10115 -1.64534,-3.14144 -0.57944,-1.6162 -0.45299,-1.7046 0.86893,-0.6075 0.85089,0.70617 1.31509,1.51591 1.03157,1.79943 -0.28352,0.28352 -0.0143,1.1194 0.59828,1.8575 0.61257,0.73811 0.88877,1.34201 0.61377,1.34201 -0.275,0 -0.93525,-0.5625 -1.46721,-1.25 z M 75.690927,272.5938 c -0.54268,-1.4252 -0.42782,-1.54006 0.5598,-0.5598 0.68342,0.67834 0.99067,1.48524 0.68278,1.79313 -0.30789,0.30789 -0.86705,-0.24711 -1.24258,-1.23333 z m 48.451023,0.51589 c -0.008,-0.93004 0.43469,-1.9691 0.98469,-2.30902 1.2656,-0.78218 1.2656,0.54163 0,2.5 -0.8354,1.29269 -0.97149,1.26629 -0.98469,-0.19098 z m 82.98469,0.13196 c 0,-0.58246 0.45,-0.7809 1,-0.44098 0.55,0.33992 1,0.81648 1,1.05902 0,0.24254 -0.45,0.44098 -1,0.44098 -0.55,0 -1,-0.47656 -1,-1.05902 z M 14.107868,272.64026 c 0.567176,-0.28073 0.774904,-0.92515 0.461618,-1.43206 -0.313287,-0.50691 0.131324,-1.19063 0.988025,-1.51938 0.856702,-0.32874 1.265695,-1.0701 0.908874,-1.64744 -0.405701,-0.65644 -0.159463,-0.74732 0.657234,-0.24258 1.015561,0.62766 0.883131,1.11637 -0.595492,2.19756 -1.045819,0.76472 -1.75524,1.69728 -1.57649,2.07236 0.17875,0.37507 -0.17,0.77195 -0.775,0.88195 -0.683837,0.12433 -0.709855,0.007 -0.06877,-0.31041 z m 116.018772,-0.28057 c 0,-0.51754 0.44485,-1.21592 0.98855,-1.55194 0.56686,-0.35034 0.7345,0.0511 0.39301,0.94098 -0.66479,1.73242 -1.38156,2.04939 -1.38156,0.61096 z m 84.14912,-0.72567 c -0.74298,-0.80571 -1.14461,-1.67119 -0.8925,-1.9233 0.25211,-0.25211 1.03663,0.23837 1.74338,1.08995 1.66916,2.01122 0.91574,2.74912 -0.85088,0.83335 z m -38.81579,-0.78936 c 0,-0.80081 0.38234,-1.21971 0.84965,-0.9309 0.4673,0.28881 0.59075,0.94401 0.27431,1.45601 -0.80862,1.30838 -1.12396,1.16106 -1.12396,-0.52511 z m -183.520833,-0.2271 c 0.721875,-0.28887 1.584375,-0.25335 1.916667,0.0789 0.332291,0.33229 -0.258334,0.56864 -1.3125,0.52522 -1.164943,-0.048 -1.4019,-0.28494 -0.604167,-0.60416 z m 59.800587,-2.49987 c 0.28881,-0.4673 0.944015,-0.59075 1.456011,-0.27431 1.308382,0.80862 1.161058,1.12396 -0.525109,1.12396 -0.800807,0 -1.219712,-0.38234 -0.930902,-0.84965 z M 203.69093,267.5938 c -0.54268,-1.4252 -0.42782,-1.54006 0.5598,-0.5598 0.68342,0.67834 0.99067,1.48524 0.68278,1.79313 -0.30789,0.30789 -0.86705,-0.24711 -1.24258,-1.23333 z m -80.56429,-1.23411 c 0,-1.13246 0.45,-2.05902 1,-2.05902 0.55,0 1,0.64844 1,1.44098 0,0.79254 -0.45,1.7191 -1,2.05902 -0.55,0.33992 -1,-0.30852 -1,-1.44098 z m 87.60301,1.10765 c -0.28327,-0.45834 0.12038,-0.83334 0.89699,-0.83334 0.77661,0 1.18026,0.375 0.89699,0.83334 -0.28326,0.45833 -0.68691,0.83333 -0.89699,0.83333 -0.21008,0 -0.61373,-0.375 -0.89699,-0.83333 z M -4.873363,266.30067 c 0,-0.55 0.476558,-1 1.059017,-1 0.582459,0 0.780902,0.45 0.440983,1 -0.339919,0.55 -0.816476,1 -1.059017,1 -0.242541,0 -0.440983,-0.45 -0.440983,-1 z m 102.07895,-0.58333 c 0.048,-1.16495 0.28494,-1.4019 0.60416,-0.60417 0.28887,0.72187 0.25335,1.58437 -0.0789,1.91667 -0.3323,0.33229 -0.56864,-0.25834 -0.52522,-1.3125 z m 20.006653,1.08333 c 0.10413,-1.89422 1.77076,-5.08385 1.8288,-3.5 0.0302,0.825 -0.38124,2.175 -0.9144,3 -0.53316,0.825 -0.94464,1.05 -0.9144,0.5 z m 21.57232,-2.94907 c -0.37092,-0.96661 -0.0755,-1.26467 0.88726,-0.89522 0.79383,0.30462 1.19436,0.95671 0.89006,1.44907 -0.76643,1.24011 -1.13272,1.12596 -1.77732,-0.55385 z M -2.892132,263.64026 c 0.567176,-0.28073 0.790823,-0.8994 0.496991,-1.37483 -0.293831,-0.47543 0.390969,-1.35957 1.521778,-1.96476 1.130809,-0.60519 1.748884,-1.5973 1.3735,-2.20468 -0.441828,-0.71489 -0.218134,-0.81733 0.634323,-0.29049 1.017223,0.62868 0.814869,1.22033 -0.889365,2.60033 -1.213412,0.98256 -2.152711,2.13711 -2.087331,2.56566 0.06538,0.42855 -0.376127,0.86918 -0.981127,0.97918 -0.683837,0.12433 -0.709855,0.007 -0.06877,-0.31041 z m 172.561482,-0.27049 c -0.31644,-0.512 -0.19299,-1.1672 0.27431,-1.45601 0.46731,-0.28881 0.84965,0.13009 0.84965,0.9309 0,1.68617 -0.31534,1.83349 -1.12396,0.52511 z M 79.690927,261.5938 c -0.54268,-1.4252 -0.42782,-1.54006 0.5598,-0.5598 0.68342,0.67834 0.99067,1.48524 0.68278,1.79313 -0.30789,0.30789 -0.86705,-0.24711 -1.24258,-1.23333 z m 20.514663,0.12354 c 0.048,-1.16495 0.28494,-1.4019 0.60416,-0.60417 0.28887,0.72187 0.25335,1.58437 -0.0789,1.91667 -0.3323,0.33229 -0.56864,-0.25834 -0.52522,-1.3125 z m 21.93636,0.89235 c 0.008,-0.44496 0.45153,-1.48402 0.98469,-2.30902 0.8354,-1.29269 0.97149,-1.26629 0.98469,0.19098 0.008,0.93004 -0.43469,1.9691 -0.98469,2.30902 -0.55,0.33992 -0.99311,0.25398 -0.98469,-0.19098 z m 76.38968,-1.55902 -1.90499,-2.25 2.25,1.90499 c 1.2375,1.04774 2.25,2.06024 2.25,2.25 0,0.80025 -0.80479,0.20945 -2.59501,-1.90499 z m 17.59501,0.19098 c 0,-0.58246 0.45,-0.7809 1,-0.44098 0.55,0.33992 1,0.81648 1,1.05902 0,0.24254 -0.45,0.44098 -1,0.44098 -0.55,0 -1,-0.47656 -1,-1.05902 z m -48.39699,-0.77431 c -0.28327,-0.45834 0.12038,-0.83334 0.89699,-0.83334 0.77661,0 1.18026,0.375 0.89699,0.83334 -0.28326,0.45833 -0.68691,0.83333 -0.89699,0.83333 -0.21008,0 -0.61373,-0.375 -0.89699,-0.83333 z m -79.524063,-1.75 c 0.048,-1.16495 0.28494,-1.4019 0.60416,-0.60417 0.28887,0.72187 0.25335,1.58437 -0.0789,1.91667 -0.33229,0.33229 -0.56864,-0.25834 -0.52522,-1.3125 z m 27.991343,0.89235 c 0.0387,-0.44496 0.45702,-1.70902 0.92971,-2.80902 0.82859,-1.92824 0.86195,-1.92138 0.92971,0.19098 0.0387,1.20504 -0.37971,2.4691 -0.92971,2.80902 -0.55,0.33992 -0.96837,0.25398 -0.92971,-0.19098 z m -65.457206,-1.492 c 0.28881,-0.4673 0.944015,-0.59075 1.456011,-0.27431 1.308382,0.80862 1.161058,1.12396 -0.525109,1.12396 -0.800807,0 -1.219712,-0.38234 -0.930902,-0.84965 z m 107.929626,0.25208 c -0.31644,-0.512 -0.19299,-1.1672 0.27431,-1.45601 0.46731,-0.28881 0.84965,0.13009 0.84965,0.9309 0,1.68617 -0.31534,1.83349 -1.12396,0.52511 z m -133.1089,-1.8191 c 0.141265,-0.9625 0.504203,-1.525 0.806529,-1.25 0.302325,0.275 1.609427,-0.39297 2.90467,-1.48437 1.53183,-1.29075 1.328363,-0.85383 -0.582103,1.25 -3.417365,3.76325 -3.467022,3.78681 -3.129096,1.48437 z m 95.56619,0.86803 c 0,-0.55 0.45,-1.27811 1,-1.61803 0.55,-0.33992 1,-0.16803 1,0.38197 0,0.55 -0.45,1.27811 -1,1.61803 -0.55,0.33992 -1,0.16803 -1,-0.38197 z m 73.66667,0.2153 c -0.36667,-0.36666 -0.66667,-1.13166 -0.66667,-1.7 0,-0.6266 0.46577,-0.56756 1.18333,0.15 0.65084,0.65084 0.95084,1.41584 0.66667,1.7 -0.28417,0.28417 -0.81667,0.21667 -1.18333,-0.15 z M 33.126637,256.92311 c 0,-0.20765 0.7875,-0.99515 1.75,-1.75 1.586056,-1.24387 1.621426,-1.2085 0.377555,0.37756 -1.306369,1.66575 -2.127555,2.19548 -2.127555,1.37244 z m 12,0 c 0,-0.20765 0.7875,-0.99515 1.75,-1.75 1.586056,-1.24387 1.621426,-1.2085 0.377555,0.37756 -1.306369,1.66575 -2.127555,2.19548 -2.127555,1.37244 z m 67.078953,-1.20577 c 0.048,-1.16495 0.28494,-1.4019 0.60416,-0.60417 0.28887,0.72187 0.25335,1.58437 -0.0789,1.91667 -0.3323,0.33229 -0.56864,-0.25834 -0.52522,-1.3125 z m 72.47992,0.0515 c -1.06762,-0.80748 -1.46022,-1.46817 -0.87244,-1.46817 0.58777,0 1.62888,0.675 2.31357,1.5 1.5572,1.87632 1.06734,1.86551 -1.44113,-0.0318 z m 36.90001,0.46527 c -0.36253,-0.58659 -0.38909,-1.33659 -0.059,-1.66667 0.33008,-0.33007 0.60014,-0.027 0.60014,0.67352 0,0.74024 0.64996,1.02424 1.55194,0.67812 0.88992,-0.34149 1.29132,-0.17385 0.94098,0.39301 -0.80027,1.29487 -2.20793,1.25869 -3.03404,-0.078 z m -57.51043,-1.77413 c -1.5911,-1.28839 -1.91694,-2.06078 -1.086,-2.57433 0.6529,-0.40352 1.06345,-0.28198 0.91233,0.27008 -0.15113,0.55206 0.62522,1.6962 1.72522,2.54252 1.1,0.84633 1.71235,1.55309 1.36078,1.57059 -0.35156,0.0175 -1.66211,-0.7965 -2.91233,-1.80886 z m -22.54394,-0.005 c 0.39244,-0.63478 0.28511,-1.15431 -0.2385,-1.15431 -0.52362,0 -1.21105,-0.675 -1.52764,-1.5 -0.8318,-2.16765 0.66552,-1.84429 2.1006,0.45364 0.90081,1.44242 0.92332,2.13704 0.086,2.65451 -0.6953,0.42972 -0.85798,0.25422 -0.4205,-0.45364 z m 68.5597,-1.31886 c -1.14512,-2.23286 -1.1183,-2.25968 0.60945,-0.60946 0.99401,0.94941 1.53304,2.00045 1.19784,2.33565 -0.3352,0.3352 -1.14849,-0.44159 -1.80729,-1.72619 z m -108.88526,-0.41898 c 0.048,-1.16495 0.28494,-1.4019 0.60416,-0.60417 0.28887,0.72187 0.25335,1.58437 -0.0789,1.91667 -0.3323,0.33229 -0.56864,-0.25834 -0.52522,-1.3125 z m 14.3672,0.4962 c -0.36954,-0.59793 -0.17109,-1.58793 0.44098,-2.2 0.81716,-0.81696 1.11287,-0.52809 1.11287,1.08733 0,2.41451 -0.51946,2.78655 -1.55385,1.11287 z m -98.446153,-0.29023 c 0,-0.20765 0.7875,-0.99515 1.75,-1.75 1.586056,-1.24387 1.621426,-1.2085 0.377555,0.37756 -1.306369,1.66575 -2.127555,2.19548 -2.127555,1.37244 z m 38.552786,-0.53703 c -0.321975,-0.52097 -0.159164,-1.21065 0.361804,-1.53262 0.520967,-0.32198 1.210648,-0.15917 1.532624,0.3618 0.321975,0.52097 0.159164,1.21065 -0.361804,1.53262 -0.520967,0.32198 -1.210648,0.15917 -1.532624,-0.3618 z m 40.526164,-0.66874 c 0.048,-1.16495 0.28494,-1.4019 0.60416,-0.60417 0.28887,0.72187 0.25335,1.58437 -0.0789,1.91667 -0.3323,0.33229 -0.56864,-0.25834 -0.52522,-1.3125 z m 24.485343,0.2902 c 0.37553,-0.98622 0.93469,-1.54122 1.24258,-1.23333 0.30789,0.30789 6.4e-4,1.11479 -0.68278,1.79313 -0.98762,0.98026 -1.10248,0.8654 -0.5598,-0.5598 z m 12.63586,-1.16693 c -0.6186,-1.35769 -0.7397,-2.70648 -0.26911,-2.99732 0.47059,-0.29084 1.15052,0.64619 1.51095,2.08229 0.87184,3.47365 0.16219,3.99654 -1.24184,0.91503 z m 47.29985,1.46006 c -0.33992,-0.55 -0.14148,-1 0.44098,-1 0.58246,0 1.05902,0.45 1.05902,1 0,0.55 -0.19844,1 -0.44098,1 -0.24254,0 -0.7191,-0.45 -1.05902,-1 z m 7.99445,-1.00613 c -0.99854,-1.10337 -1.57924,-2.24242 -1.29044,-2.53121 0.28879,-0.28879 1.2714,0.61397 2.18358,2.00613 1.993,3.0417 1.59573,3.27525 -0.89314,0.52508 z m 10.91054,-0.24387 -1.90499,-2.25 2.25,1.90499 c 2.11444,1.79022 2.70524,2.59501 1.90499,2.59501 -0.18976,0 -1.20226,-1.0125 -2.25,-2.25 z M 99.205587,249.71734 c 0.048,-1.16495 0.28494,-1.4019 0.60416,-0.60417 0.288873,0.72187 0.253353,1.58437 -0.0789,1.91667 -0.3323,0.33229 -0.56864,-0.25834 -0.52522,-1.3125 z m 68.921053,0.0833 c -0.68469,-0.825 -0.90969,-1.5 -0.5,-1.5 0.40969,0 0.12729,-0.7875 -0.62756,-1.75 -1.24796,-1.59128 -1.21153,-1.62371 0.40173,-0.3575 0.97579,0.76588 1.54219,1.62447 1.25867,1.90799 -0.28352,0.28352 -0.0143,1.1194 0.59828,1.8575 0.61257,0.73811 0.88877,1.34201 0.61377,1.34201 -0.275,0 -1.0602,-0.675 -1.74489,-1.5 z M 42.995516,248.95866 c 0.612573,-0.7381 0.780173,-1.7506 0.372445,-2.25 -0.407728,-0.49939 -0.327842,-0.56951 0.177524,-0.15581 0.505367,0.4137 1.855367,-0.0293 3,-0.98437 1.144634,-0.9551 0.759461,-0.28108 -0.855939,1.49782 -2.843075,3.13084 -4.950317,4.61102 -2.69403,1.89236 z m 34.864451,0.21792 c 0.67834,-0.68342 1.48524,-0.99067 1.79313,-0.68278 0.30789,0.30789 -0.24711,0.86705 -1.23333,1.24258 -1.4252,0.54268 -1.54006,0.42782 -0.5598,-0.5598 z m 46.266673,0.0651 c 0,-0.58246 0.45,-0.7809 1,-0.44098 0.55,0.33992 1,0.81648 1,1.05902 0,0.24254 -0.45,0.44098 -1,0.44098 -0.55,0 -1,-0.47656 -1,-1.05902 z m 29.02896,0.0981 c -0.80907,-0.51167 -1.2107,-1.19066 -0.8925,-1.50885 0.3182,-0.3182 1.14776,0.10733 1.84348,0.94562 1.4426,1.73822 1.16599,1.90204 -0.95098,0.56323 z m 23.97104,-0.53908 c -0.68469,-0.825 -0.90969,-1.5 -0.5,-1.5 0.40969,0 0.13504,-0.7875 -0.61032,-1.75 -1.2853,-1.65972 -1.24863,-1.6595 0.71089,0.004 1.13635,0.96478 2.0661,2.42728 2.0661,3.25 0,1.85696 -0.12233,1.85666 -1.66667,-0.004 z m -62.27954,-0.83179 c -0.39625,-1.00748 -0.70678,-2.58248 -0.69005,-3.5 0.0271,-1.48832 0.14221,-1.47612 1.06727,0.11321 0.57028,0.97978 0.8808,2.55478 0.69005,3.5 -0.31674,1.56951 -0.40931,1.55969 -1.06727,-0.11321 z m -122.322555,-2.1736 c 0.122286,-0.83319 0.84858,-2.07283 1.613987,-2.75476 1.161577,-1.0349 1.194403,-0.97668 0.198553,0.35213 -0.656203,0.8756 -0.942061,1.84304 -0.635241,2.14986 0.30682,0.30682 0.117419,0.83006 -0.420891,1.16276 -0.538311,0.33269 -0.878694,-0.0768 -0.756408,-0.90999 z m 74.526402,-0.7749 c 2.4341,-2.73071 4.29267,-3.89104 2.20681,-1.37773 -0.61257,0.7381 -0.78017,1.7506 -0.37244,2.25 0.40772,0.49939 0.33272,0.57439 -0.16667,0.16667 -0.4994,-0.40773 -1.6244,-0.19635 -2.5,0.46973 -0.87561,0.66609 -0.50107,-0.0128 0.8323,-1.50867 z m 23.80551,0.20544 c 0.60086,-2.29771 0.87933,-2.38611 1.60005,-0.50794 0.29911,0.77948 -0.0518,1.64582 -0.77983,1.92518 -0.90366,0.34677 -1.16392,-0.10292 -0.82022,-1.41724 z m 32.770183,1.07482 c 0.33992,-0.55 0.81648,-1 1.05902,-1 0.24254,0 0.44098,0.45 0.44098,1 0,0.55 -0.47656,1 -1.05902,1 -0.58246,0 -0.7809,-0.45 -0.44098,-1 z m 60.37244,-0.75 c -1.24387,-1.58606 -1.2085,-1.62143 0.37756,-0.37756 0.9625,0.75485 1.75,1.54235 1.75,1.75 0,0.82304 -0.82119,0.29331 -2.12756,-1.37244 z m -179.372443,-1.25 c 0.995486,-1.1 2.034975,-2 2.309975,-2 0.275,0 -0.314489,0.9 -1.309975,2 -0.995486,1.1 -2.034975,2 -2.309975,2 -0.275,0 0.314489,-0.9 1.309975,-2 z m 9.925622,0.30581 c 0.14577,-0.9932 0.597138,-1.73081 1.003041,-1.63914 1.518627,0.34295 1.576618,1.08406 0.175796,2.24664 -1.174214,0.97451 -1.394375,0.86105 -1.178837,-0.6075 z m 46.605008,1.19419 c 0,-0.55 0.43621,-1.675 0.96937,-2.5 0.53316,-0.825 0.96937,-1.05 0.96937,-0.5 0,0.55 -0.43621,1.675 -0.96937,2.5 -0.53316,0.825 -0.96937,1.05 -0.96937,0.5 z m 44.289443,-5.5 c 0,-3.575 0.1815,-5.0375 0.40333,-3.25 0.22182,1.7875 0.22182,4.7125 0,6.5 -0.22183,1.7875 -0.40333,0.325 -0.40333,-3.25 z m 31.01326,4.54399 c 0,-0.80081 0.38234,-1.21971 0.84965,-0.9309 0.4673,0.28881 0.59075,0.94401 0.27431,1.45601 -0.80862,1.30838 -1.12396,1.16106 -1.12396,-0.52511 z m 6.39788,-0.46383 c -0.43497,-1.66335 -0.30483,-2.05378 0.43724,-1.31171 0.5811,0.5811 0.85979,1.64682 0.61931,2.36826 -0.24965,0.74895 -0.70294,0.29565 -1.05655,-1.05655 z m 19.33733,-0.5072 c -1.70456,-1.81442 -1.88207,-2.36862 -0.70326,-2.19561 1.96889,0.28897 2.96364,1.25602 3.24185,3.15159 0.28534,1.94416 0.13155,1.88625 -2.53859,-0.95598 z M 39.885783,243.22648 c 1.242531,-1.4158 2.019156,-2.81417 1.725834,-3.1075 -0.293321,-0.29332 0.265063,-1.15993 1.240854,-1.92581 1.575179,-1.23632 1.634941,-1.21394 0.532842,0.19951 -0.682728,0.8756 -1.022003,1.81133 -0.753943,2.07939 0.268059,0.26806 -0.748345,1.57665 -2.258676,2.90799 l -2.746057,2.42061 z m 16.740854,0.0742 c 0.995486,-1.1 2.034975,-2 2.309975,-2 0.275,0 -0.314489,0.9 -1.309975,2 -0.995486,1.1 -2.034975,2 -2.309975,2 -0.275,0 0.314489,-0.9 1.309975,-2 z m 23.5,1.60699 c 0,-0.21616 0.69837,-0.661 1.55194,-0.98855 0.88992,-0.34149 1.29132,-0.17385 0.94098,0.39301 -0.58726,0.95021 -2.49292,1.40545 -2.49292,0.59554 z m 99.807093,-1.35699 c -1.9078,-2.2215 -3.06963,-4.25 -2.4342,-4.25 0.27001,0 1.45221,1.35 2.62711,3 2.33011,3.27234 2.21034,4.04842 -0.19291,1.25 z M 29.126637,242.92311 c 0,-0.20765 0.7875,-0.99515 1.75,-1.75 1.586056,-1.24387 1.621426,-1.2085 0.377555,0.37756 -1.306369,1.66575 -2.127555,2.19548 -2.127555,1.37244 z m 117.872443,-1.37244 c -1.26951,-1.61876 -1.22245,-1.63998 0.62756,-0.28297 1.1,0.80687 2.1875,1.59437 2.41667,1.75 0.22916,0.15563 -0.0532,0.28297 -0.62756,0.28297 -0.57432,0 -1.66182,-0.7875 -2.41667,-1.75 z m 51.67027,0.8191 c -0.31644,-0.512 -0.19299,-1.1672 0.27431,-1.45601 0.46731,-0.28881 0.84965,0.13009 0.84965,0.9309 0,1.68617 -0.31534,1.83349 -1.12396,0.52511 z M 70.679427,241.38608 c -0.32198,-0.52097 -0.15917,-1.21065 0.3618,-1.53262 0.52097,-0.32198 1.21065,-0.15917 1.53262,0.3618 0.32198,0.52097 0.15917,1.21065 -0.3618,1.53262 -0.52097,0.32198 -1.21065,0.15917 -1.53262,-0.3618 z m 42.447213,-1.02639 c 0,-2.41457 0.55611,-2.65816 1.34934,-0.59105 0.30982,0.80739 0.13297,1.73395 -0.39301,2.05902 -0.52598,0.32508 -0.95633,-0.33551 -0.95633,-1.46797 z m 21.5,1.17567 c -0.55,-0.40408 -1.62615,-1.53249 -2.39144,-2.50758 -1.19172,-1.51841 -1.18863,-1.69507 0.0215,-1.23069 0.77712,0.29821 1.96959,1.43351 2.64992,2.52289 1.33222,2.13323 1.27969,2.36126 -0.27999,1.21538 z m 51.03745,-1.48469 c -0.86678,-1.2375 -1.9158,-2.25 -2.33115,-2.25 -1.14462,0 -6.57702,-4.46261 -6.06081,-4.97883 0.24795,-0.24795 1.61829,0.63172 3.04519,1.95482 1.4269,1.3231 2.81864,2.18136 3.09275,1.90725 0.27411,-0.27412 1.47812,0.87752 2.67557,2.55918 1.19745,1.68167 1.94706,3.05758 1.6658,3.05758 -0.28127,0 -1.22057,-1.0125 -2.08735,-2.25 z m -101.994743,0.3191 c -0.66498,-1.07595 1.29228,-2.56745 2.19049,-1.66924 0.33007,0.33008 0.0486,0.60014 -0.62555,0.60014 -0.67413,0 -0.94757,0.45 -0.60765,1 0.33992,0.55 0.39303,1 0.11803,1 -0.275,0 -0.75889,-0.41891 -1.07532,-0.9309 z m 85.486253,-0.03 c -0.80907,-0.51167 -1.2107,-1.19066 -0.8925,-1.50885 0.3182,-0.3182 1.14776,0.10733 1.84348,0.94562 1.4426,1.73822 1.16599,1.90204 -0.95098,0.56323 z m -46.02896,-2.0391 c 0.5887,-1.1 1.29537,-2 1.57037,-2 0.275,0 0.0183,0.9 -0.57037,2 -0.5887,1.1 -1.29537,2 -1.57037,2 -0.275,0 -0.0183,-0.9 0.57037,-2 z m 83.2982,0.77417 c -2.26822,-2.92875 -2.40793,-4.11645 -0.24138,-2.05195 1.28264,1.22222 2.08369,2.4706 1.78013,2.77417 -0.30357,0.30357 -0.99601,-0.0214 -1.53875,-0.72222 z M 1.626637,237.30067 c 0.995486,-1.1 2.034975,-2 2.309975,-2 0.275,0 -0.314489,0.9 -1.309975,2 -0.995486,1.1 -2.034975,2 -2.309975,2 -0.275,0 0.314489,-0.9 1.309975,-2 z m 9.5,1.62244 c 0,-0.20765 0.7875,-0.99515 1.75,-1.75 1.586056,-1.24387 1.621426,-1.2085 0.377555,0.37756 -1.306369,1.66575 -2.127555,2.19548 -2.127555,1.37244 z m 43.741324,-0.71445 c 0.682728,-0.8756 1.009354,-1.82398 0.725834,-2.1075 -0.283519,-0.28352 0.282885,-1.14211 1.258676,-1.90799 1.575179,-1.23632 1.634941,-1.21394 0.532842,0.19951 -0.682728,0.8756 -1.009354,1.82398 -0.725834,2.1075 0.283519,0.28352 -0.282885,1.14211 -1.258676,1.90799 -1.575179,1.23632 -1.634941,1.21394 -0.532842,-0.19951 z m 6.846656,0.092 c 0.48477,-0.825 0.88829,-1.8 0.89671,-2.16667 0.008,-0.36666 0.31904,-0.9704 0.69027,-1.34163 0.37124,-0.37123 0.56918,0.0458 0.43988,0.92679 -0.1293,0.88097 -0.83655,2.1597 -1.57167,2.84163 -1.083264,1.00489 -1.169533,0.95559 -0.45519,-0.26012 z m 18.41202,0.62244 c 0,-0.20765 0.7875,-0.99515 1.75,-1.75 1.58606,-1.24387 1.62143,-1.2085 0.37756,0.37756 -1.30637,1.66575 -2.12756,2.19548 -2.12756,1.37244 z m 63.872443,-1.37244 c -1.24387,-1.58606 -1.2085,-1.62143 0.37756,-0.37756 1.66575,1.30637 2.19548,2.12756 1.37244,2.12756 -0.20765,0 -0.99515,-0.7875 -1.75,-1.75 z m 8.62756,-3.56863 c -2.75,-2.80137 -4.11427,-4.43819 -3.03172,-3.63739 1.96666,1.45482 2.9098,2.18245 7.44405,5.74302 1.32678,1.04187 2.00178,2.14034 1.5,2.44104 -0.50178,0.30071 -3.16233,-1.7453 -5.91233,-4.54667 z m 11.35716,2.06863 c -1.617,-2.30592 -1.76616,-2.83816 -0.51349,-1.83224 1.78215,1.4311 4.12389,5.08224 3.25961,5.08224 -0.2569,0 -1.49265,-1.4625 -2.74612,-3.25 z m 10.14284,2.25 c 0,-0.55 -0.675,-1 -1.5,-1 -0.825,0 -1.5,-0.46583 -1.5,-1.03518 0,-0.70185 0.64401,-0.69052 2,0.0352 1.77981,0.95253 2.80355,3 1.5,3 -0.275,0 -0.5,-0.45 -0.5,-1 z m 21,-0.059 c 0,-0.58246 -0.41891,-0.80012 -0.9309,-0.48369 -0.512,0.31644 -1.18914,0.1575 -1.50476,-0.35319 -0.81174,-1.31342 2.21188,-0.72788 3.64578,0.70602 0.91984,0.91984 0.91754,1.18988 -0.0101,1.18988 -0.66,0 -1.2,-0.47656 -1.2,-1.05902 z M 22.56395,237.53002 c 0.341317,-0.34131 1.323785,-0.72378 2.183263,-0.84993 0.859478,-0.12614 1.283428,0.0499 0.942111,0.39123 -0.341317,0.34131 -1.323785,0.72378 -2.183263,0.84993 -0.859478,0.12614 -1.283428,-0.0499 -0.942111,-0.39123 z m 104.20106,-0.72935 c -0.31658,-0.825 -0.18787,-1.5 0.28603,-1.5 0.47389,0 1.12064,0.675 1.43723,1.5 0.31658,0.825 0.18787,1.5 -0.28603,1.5 -0.47389,0 -1.12064,-0.675 -1.43723,-1.5 z m 21.28594,-1.17757 -2.42431,-2.67757 3.25,2.24566 c 3.27976,2.26623 3.9372,3.10948 2.42431,3.10948 -0.45412,0 -1.91662,-1.20491 -3.25,-2.67757 z m -78.924313,-0.82243 c 1.29175,-1.375 2.6987,-2.5 3.12657,-2.5 0.42786,0 -0.26468,1.125 -1.53899,2.5 -1.27431,1.375 -2.68126,2.5 -3.12656,2.5 -0.44531,0 0.24723,-1.125 1.53898,-2.5 z m 38.078953,0.91667 c 0.048,-1.16495 0.28494,-1.4019 0.60416,-0.60417 0.28887,0.72187 0.25335,1.58437 -0.0789,1.91667 -0.3323,0.33229 -0.56864,-0.25834 -0.52522,-1.3125 z m 26.17105,-3.36777 c -4.33021,-4.8372 -6.09911,-8.29964 -2,-3.91478 6.32971,6.77093 8.04021,8.85676 7.18709,8.76413 -0.5154,-0.056 -2.84959,-2.23816 -5.18709,-4.84935 z m -106.707298,3.0202 c -0.316431,-0.512 -0.192988,-1.1672 0.274316,-1.45601 0.467305,-0.28881 0.849646,0.13009 0.849646,0.9309 0,1.68617 -0.315337,1.83349 -1.123962,0.52511 z m 49.891105,-0.8191 c 0.14127,-0.9625 0.88895,-1.77045 1.66152,-1.79545 0.77257,-0.025 1.29217,-0.5875 1.15467,-1.25 -0.1375,-0.6625 0.3125,-1.09205 1,-0.95455 0.6875,0.1375 1.1,-0.425 0.91667,-1.25 -0.18334,-0.825 0.005,-1.16152 0.41885,-0.74782 0.4137,0.4137 1.6887,-0.0224 2.83333,-0.96913 1.14463,-0.94673 -0.15193,0.62729 -2.88126,3.49781 -2.72932,2.87053 -5.052,5.21914 -5.16151,5.21914 -0.10951,0 -0.0835,-0.7875 0.0577,-1.75 z m 10.32242,1.08564 c 0.69093,-0.27855 1.04822,-0.84303 0.79399,-1.25438 -0.25423,-0.41136 0.18582,-0.74793 0.97789,-0.74793 1.08673,0 1.16859,0.3272 0.33357,1.33334 -0.60861,0.73333 -1.61397,1.2978 -2.23412,1.25438 -0.70253,-0.0492 -0.65403,-0.26985 0.12867,-0.58541 z m 32.743773,-0.33564 c 0.33992,-0.55 0.81648,-1 1.05902,-1 0.24254,0 0.44098,0.45 0.44098,1 0,0.55 -0.47656,1 -1.05902,1 -0.58246,0 -0.7809,-0.45 -0.44098,-1 z m 10.00708,0.0114 c -0.35034,-0.56686 0.0511,-0.7345 0.94098,-0.39301 1.73242,0.66479 2.04939,1.38156 0.61096,1.38156 -0.51754,0 -1.21592,-0.44485 -1.55194,-0.98855 z m 59.47294,-1.2614 c -0.9784,-2.01899 -0.9462,-2.07192 0.31369,-0.51554 0.77222,0.95395 1.7692,1.40395 2.21549,1 0.4463,-0.40395 0.48775,-0.17196 0.0921,0.51554 -0.99499,1.729 -1.36773,1.5868 -2.62129,-1 z m 12.47886,1.18347 c -0.36253,-0.58659 -0.44468,-1.281 -0.18255,-1.54313 0.26212,-0.26213 0.74306,0.21781 1.06875,1.06653 0.67618,1.76211 0.0999,2.07206 -0.8862,0.4766 z M 59.867961,234.20866 c 0.682728,-0.8756 1.009354,-1.82398 0.725834,-2.1075 -0.283519,-0.28352 0.282885,-1.14211 1.258672,-1.90799 1.57518,-1.23632 1.63495,-1.21394 0.53285,0.19951 -0.68273,0.8756 -1.00936,1.82398 -0.72584,2.1075 0.28352,0.28352 -0.28288,1.14211 -1.258674,1.90799 -1.575179,1.23632 -1.634941,1.21394 -0.532842,-0.19951 z m 5.592006,-0.24132 c 0,-0.73334 0.59286,-1.33334 1.31746,-1.33334 0.9845,0 1.0378,0.33697 0.21089,1.33334 -0.60861,0.73333 -1.20147,1.33333 -1.31746,1.33333 -0.11599,0 -0.21089,-0.6 -0.21089,-1.33333 z m 29.25077,-0.30811 c -0.52667,-1.37248 -0.38034,-1.43434 0.89301,-0.37756 1.73524,1.44013 1.91584,2.019 0.62988,2.019 -0.49116,0 -1.17646,-0.73865 -1.52289,-1.64144 z m 0.87695,-2.40159 c -1.62054,-1.79068 -1.63968,-1.96275 -0.15498,-1.39302 0.93166,0.35752 1.69393,1.07844 1.69393,1.60206 0,0.52361 0.45,0.67391 1,0.33399 0.55,-0.33992 1,-0.14148 1,0.44098 0,1.6671 -1.52294,1.24364 -3.53895,-0.98401 z m 62.872283,0.58702 c 0,-0.80081 0.38234,-1.21971 0.84965,-0.9309 0.4673,0.28881 0.59075,0.94401 0.27431,1.45601 -0.80862,1.30838 -1.12396,1.16106 -1.12396,-0.52511 z M 86.764437,231.0777 c 0.30936,-0.50055 0.81351,-0.65906 1.12033,-0.35224 0.30682,0.30682 1.12169,0.0899 1.81083,-0.48202 0.86811,-0.72047 1.45204,-0.7178 1.90103,0.009 0.75361,1.21936 0.83433,1.17448 -2.68232,1.49131 -1.49178,0.1344 -2.45922,-0.16517 -2.14987,-0.66572 z m 35.977553,-2.45745 c -1.13612,-2.38249 -1.28961,-3.29413 -0.43521,-2.58504 0.72592,0.60246 1.75861,1.0999 2.29486,1.10542 0.53625,0.006 1.15713,0.55643 1.37973,1.22424 0.23015,0.69043 -0.0776,0.91606 -0.71354,0.52306 -0.71104,-0.43945 -0.90221,-0.12806 -0.52495,0.85506 0.32633,0.85041 1.06571,1.25425 1.64305,0.89743 0.61299,-0.37885 0.75286,-0.16843 0.3362,0.50574 -1.19215,1.92894 -2.14375,1.32503 -3.98014,-2.52591 z m 74.71798,2.22441 c 0,-0.80081 0.38234,-1.21971 0.84965,-0.9309 0.4673,0.28881 0.59075,0.94401 0.27431,1.45601 -0.80862,1.30838 -1.12396,1.16106 -1.12396,-0.52511 z M 75.626637,228.87603 c 1.65,-1.43127 3.9,-3.08621 5,-3.67766 1.1,-0.59145 0.65,0.0957 -1,1.52694 -1.65,1.43127 -3.9,3.08621 -5,3.67766 -1.1,0.59145 -0.65,-0.0957 1,-1.52694 z m 31.155463,0.0566 c -0.41404,-1.5774 -0.51649,-3.10431 -0.22767,-3.39313 0.8052,-0.80519 1.78952,2.41537 1.36091,4.45272 -0.28048,1.33325 -0.57824,1.05484 -1.13324,-1.05959 z m 29.34454,0.86804 c -0.70675,-0.85158 -1.06,-1.77333 -0.785,-2.04833 0.275,-0.275 1.07825,0.19675 1.785,1.04833 0.70675,0.85158 1.06,1.77333 0.785,2.04833 -0.275,0.275 -1.07825,-0.19675 -1.785,-1.04833 z m 18.54271,0.5691 c -0.31644,-0.512 -0.19299,-1.1672 0.27431,-1.45601 0.46731,-0.28881 0.84965,0.13009 0.84965,0.9309 0,1.68617 -0.31534,1.83349 -1.12396,0.52511 z M 2.737783,229.48051 c -0.324019,-0.52428 0.04479,-1.47933 0.819571,-2.12234 1.111428,-0.9224 1.361407,-0.84691 1.184601,0.35775 -0.302975,2.0643 -1.284721,2.92868 -2.004172,1.76459 z m 84.388854,-1.67984 c 1.29175,-1.375 2.57363,-2.5 2.84863,-2.5 0.275,0 -0.55688,1.125 -1.84863,2.5 -1.29175,1.375 -2.57363,2.5 -2.84863,2.5 -0.275,0 0.55688,-1.125 1.84863,-2.5 z m 9.00811,0.70765 c -2.00418,-1.62289 -2.06193,-1.9181 -0.61078,-3.12244 1.06167,-0.88111 1.60267,-0.9512 1.60267,-0.20765 0,0.61734 -0.47656,1.12244 -1.05902,1.12244 -0.58246,0 -0.74518,0.50779 -0.36161,1.12842 0.47636,0.77077 0.98763,0.60978 1.61313,-0.50792 0.50366,-0.89999 0.63931,-2.08362 0.30145,-2.63029 -0.33787,-0.54668 0.65028,-1.44331 2.19588,-1.99251 1.545593,-0.54921 3.547013,-1.42054 4.447593,-1.9363 1.45804,-0.835 1.52182,-0.56107 0.58222,2.50043 -1.10676,3.60615 -2.91472,4.90015 -2.00939,1.43817 0.30399,-1.16245 0.0307,-2 -0.65264,-2 -0.6466,0 -0.91462,0.42234 -0.59559,0.93854 0.31902,0.5162 -0.21692,1.40251 -1.19099,1.96959 -0.974073,0.56708 -1.250663,1.04474 -0.614653,1.06146 1.267543,0.0333 0.610793,4.03041 -0.66223,4.03041 -0.42492,0 -1.76864,-0.80656 -2.98604,-1.79235 z m 97.534603,0.86145 c -0.31644,-0.512 -0.19299,-1.1672 0.27431,-1.45601 0.46731,-0.28881 0.84965,0.13009 0.84965,0.9309 0,1.68617 -0.31534,1.83349 -1.12396,0.52511 z M 67.459967,227.84466 c 0,-0.80081 0.38234,-1.21971 0.84965,-0.9309 0.4673,0.28881 0.59075,0.94401 0.27431,1.45601 -0.80862,1.30838 -1.12396,1.16106 -1.12396,-0.52511 z m 5.16667,-0.0621 c 1.1,-0.89564 2.9,-2.07029 4,-2.61033 l 2,-0.98189 -2,1.62844 c -1.1,0.89564 -2.9,2.07029 -4,2.61033 l -2,0.98189 z m 46.500003,0.45909 c 0,-0.58246 0.45,-0.7809 1,-0.44098 0.55,0.33992 1,0.81648 1,1.05902 0,0.24254 -0.45,0.44098 -1,0.44098 -0.55,0 -1,-0.47656 -1,-1.05902 z m 26.36383,-0.43524 c -0.31537,-0.82184 -1.04578,-1.20231 -1.62312,-0.84549 -0.61299,0.37885 -0.75286,0.16843 -0.3362,-0.50574 0.98122,-1.58765 1.35921,-1.46452 2.59549,0.84549 0.5887,1.1 0.81541,2 0.5038,2 -0.31161,0 -0.8246,-0.67242 -1.13997,-1.49426 z m 6.17888,0.56336 c -0.31644,-0.512 -0.19299,-1.1672 0.27431,-1.45601 0.46731,-0.28881 0.84965,0.13009 0.84965,0.9309 0,1.68617 -0.31534,1.83349 -1.12396,0.52511 z m 7.45729,-0.0377 c 0,-0.53273 0.675,-0.70959 1.5,-0.39301 0.825,0.31659 1.5,0.75246 1.5,0.96862 0,0.21615 -0.675,0.39301 -1.5,0.39301 -0.825,0 -1.5,-0.43588 -1.5,-0.96862 z m 19,-1.0904 c 0,-0.58246 0.45,-0.7809 1,-0.44098 0.55,0.33992 1,0.81648 1,1.05902 0,0.24254 -0.45,0.44098 -1,0.44098 -0.55,0 -1,-0.47656 -1,-1.05902 z m 24,0 c 0,-0.58246 0.45,-0.7809 1,-0.44098 0.55,0.33992 1,0.81648 1,1.05902 0,0.24254 -0.45,0.44098 -1,0.44098 -0.55,0 -1,-0.47656 -1,-1.05902 z M 6.679423,226.38608 c -0.321975,-0.52097 -0.159164,-1.21065 0.361804,-1.53262 0.520967,-0.32198 1.210648,-0.15917 1.532624,0.3618 0.321975,0.52097 0.159164,1.21065 -0.361804,1.53262 -0.520967,0.32198 -1.210648,0.15917 -1.532624,-0.3618 z m 63.050224,0.0813 c -0.28327,-0.45834 0.12038,-0.83334 0.89699,-0.83334 0.77661,0 1.18026,0.375 0.89699,0.83334 -0.28326,0.45829 -0.68691,0.83329 -0.89699,0.83329 -0.21008,0 -0.61373,-0.375 -0.89699,-0.83333 z m 80.896993,-1.16671 c 0.99549,-1.1 2.03498,-2 2.30998,-2 0.275,0 -0.31449,0.9 -1.30998,2 -0.99549,1.1 -2.03498,2 -2.30998,2 -0.275,0 0.31449,-0.9 1.30998,-2 z m 3.95888,0.93347 c -0.36253,-0.58659 -0.38909,-1.33659 -0.059,-1.66667 0.33008,-0.33007 0.60014,-0.0486 0.60014,0.62555 0,0.67413 0.51953,0.9046 1.15451,0.51216 0.7153,-0.44208 0.88306,-0.27432 0.44098,0.44098 -0.88413,1.43055 -1.29636,1.44753 -2.13661,0.088 z m 20.54112,0.0665 c -1.2819,-0.82843 -1.24555,-0.9716 0.25,-0.98469 0.9625,-0.008 1.75,0.43469 1.75,0.98469 0,1.21961 -0.11279,1.21961 -2,0 z m -43,-1 c -0.90129,-0.58246 -1.02463,-0.97549 -0.30902,-0.98469 0.65504,-0.008 1.4691,0.43469 1.80902,0.98469 0.7673,1.24153 0.42112,1.24153 -1.5,0 z m 15.93301,-0.41928 c 0.93044,-1.12111 0.7986,-1.63993 -0.62756,-2.46959 -0.993,-0.57767 -1.26951,-1.064 -0.61447,-1.08072 0.65504,-0.0167 1.47364,0.42693 1.8191,0.9859 0.34546,0.55897 1.15952,0.70662 1.80902,0.32811 0.64949,-0.37852 0.32366,0.28914 -0.72409,1.48369 -2.08431,2.37634 -3.56668,3.04761 -1.662,0.75261 z m -61.933013,0.0417 c 0,-0.20765 0.7875,-0.99515 1.75,-1.75 1.58606,-1.24387 1.62143,-1.2085 0.37756,0.37756 -1.30637,1.66575 -2.12756,2.19548 -2.12756,1.37244 z m 38.872443,-1.28616 c -1.24448,-1.5086 -1.16266,-1.55194 0.87756,-0.46482 2.32696,1.23991 2.89993,2.12854 1.37244,2.12854 -0.48265,0 -1.49515,-0.74867 -2.25,-1.66372 z m 14.12756,0.16372 c -0.8601,-1.03636 -0.89795,-1.5 -0.12244,-1.5 0.61734,0 1.12244,0.47656 1.12244,1.05902 0,0.58246 0.51953,0.73793 1.15451,0.34549 0.7153,-0.44208 0.88306,-0.27432 0.44098,0.44098 -0.9158,1.48181 -1.09923,1.45739 -2.59549,-0.34549 z m 21.5,0.5 c -1.63041,-0.70061 -1.68751,-0.87242 -0.30902,-0.92971 0.93004,-0.0387 1.9691,0.37971 2.30902,0.92971 0.71066,1.14988 0.67591,1.14988 -2,0 z m -69.953523,-0.92479 c -0.64894,-1.05001 -0.51352,-1.19334 1.37019,-1.45021 1.57115,-0.21425 2.49042,-1.625 1.05887,-1.625 -0.8849,0 -0.68173,-0.52329 0.58333,-1.50245 1.19299,-0.92339 1.34987,-1.2995 0.40705,-0.97587 -1.1273,0.38695 -1.50486,-0.1408 -1.4239,-1.99032 0.0606,-1.38429 0.48558,-2.85765 0.94441,-3.27413 0.45882,-0.41648 0.51052,-0.19473 0.11488,0.49277 -0.44965,0.78136 -0.11272,1.25 0.89869,1.25 0.88992,0 1.33992,-0.45 1,-1 -0.35052,-0.56716 0.48962,-1 1.94098,-1 1.40746,0 2.565913,0.5625 2.574333,1.25 0.0102,0.83333 0.33844,0.75 0.98469,-0.25 0.58527,-0.90563 0.97544,-1.0271 0.98469,-0.30654 0.008,0.65641 -1.33469,1.99093 -2.984693,2.96561 -1.65,0.97468 -3,2.27168 -3,2.88222 0,1.8361 -4.70391,5.74681 -5.45352,4.53392 z m 35.912403,-2.14174 c -0.36253,-0.58659 -0.44468,-1.281 -0.18255,-1.54313 0.26212,-0.26213 0.74306,0.21781 1.06875,1.06653 0.67618,1.76211 0.0999,2.07206 -0.8862,0.4766 z m 25.1304,-0.78901 c -0.29082,-0.47055 0.58263,-0.64309 1.94098,-0.38343 1.35836,0.25967 2.46974,0.64466 2.46974,0.85555 0,0.77375 -3.89864,0.35644 -4.41072,-0.47212 z m -95.976196,-1.32744 c 0.28881,-0.4673 0.944015,-0.59075 1.456011,-0.27431 1.308382,0.80862 1.161058,1.12396 -0.525109,1.12396 -0.800807,0 -1.219712,-0.38234 -0.930902,-0.84965 z m 26.822963,0.0795 c -0.32159,-0.52035 -0.21376,-0.86227 0.23962,-0.75983 0.45338,0.10245 2.12999,-0.35118 3.72581,-1.00806 1.59581,-0.65688 3.26253,-1.06704 3.70382,-0.91148 0.4413,0.15556 -0.9722,1.03493 -3.14109,1.95414 -2.32446,0.98515 -4.1835,1.28289 -4.52816,0.72523 z m 5.56395,0.71047 c 0,-0.21616 0.69837,-0.661 1.55194,-0.98855 0.88992,-0.34149 1.29132,-0.17385 0.94098,0.39301 -0.58726,0.95021 -2.49292,1.40545 -2.49292,0.59554 z m 71.750003,-0.29632 c -2.71651,-0.70989 -2.06101,-2.09278 0.73835,-1.55765 1.36859,0.26162 2.24203,0.87422 1.94098,1.36133 -0.30105,0.48711 -0.63331,0.83345 -0.73835,0.76965 -0.10504,-0.0638 -0.97848,-0.3218 -1.94098,-0.57333 z M 59.126637,218.30067 c 0,-0.55 0.45,-1 1,-1 0.55,0 1,0.45 1,1 0,0.55 -0.45,1 -1,1 -0.55,0 -1,-0.45 -1,-1 z m 10,-0.059 c 0,-0.58246 0.45,-0.7809 1,-0.44098 0.55,0.33992 1,0.81648 1,1.05902 0,0.24254 -0.45,0.44098 -1,0.44098 -0.55,0 -1,-0.47656 -1,-1.05902 z m 37.616243,-0.49866 c -0.32633,-0.85041 -0.18066,-1.29115 0.32372,-0.97943 0.50438,0.31173 1.11294,-0.4524 1.35236,-1.69806 0.38477,-2.00188 0.45113,-1.9524 0.5715,0.42615 0.15508,3.06451 -1.35507,4.57718 -2.24758,2.25134 z m 8.84264,0.49115 c -0.36253,-0.58659 -0.44468,-1.281 -0.18255,-1.54313 0.26212,-0.26213 0.74306,0.21781 1.06875,1.06653 0.67618,1.76211 0.0999,2.07206 -0.8862,0.4766 z m 32.35362,0.38342 c 0.72187,-0.28887 1.58437,-0.25335 1.91667,0.0789 0.33229,0.33229 -0.25834,0.56864 -1.3125,0.52522 -1.16495,-0.048 -1.4019,-0.28494 -0.60417,-0.60416 z m -97.812503,-1.31691 c -0.825,-0.53316 -1.05,-0.96937 -0.5,-0.96937 0.55,0 1.675,0.43621 2.5,0.96937 0.825,0.53316 1.05,0.96937 0.5,0.96937 -0.55,0 -1.675,-0.43621 -2.5,-0.96937 z m 91.000003,0 c -2.32726,-0.74532 -2.34861,-0.80753 -0.30902,-0.90032 1.20504,-0.0548 2.4691,0.35032 2.80902,0.90032 0.33992,0.55 0.47898,0.95514 0.30902,0.90032 -0.16996,-0.0548 -1.43402,-0.45997 -2.80902,-0.90032 z m 13.5,0 c -0.33992,-0.55 0.0835,-1 0.94098,-1 0.85746,0 1.55902,0.45 1.55902,1 0,0.55 -0.42344,1 -0.94098,1 -0.51754,0 -1.2191,-0.45 -1.55902,-1 z m 16.5,0.60699 c 0,-0.21616 0.69837,-0.661 1.55194,-0.98855 0.88992,-0.34149 1.29132,-0.17385 0.94098,0.39301 -0.58726,0.95021 -2.49292,1.40545 -2.49292,0.59554 z m -95.000003,-1 c 0,-0.21616 0.69837,-0.661 1.55194,-0.98855 0.88992,-0.34149 1.29132,-0.17385 0.94098,0.39301 -0.58726,0.95021 -2.49292,1.40545 -2.49292,0.59554 z m 53.000003,-0.81979 c 0,-1.0435 1.159,-0.97217 2.98739,0.18385 1.16897,0.73909 1.0084,0.90434 -0.75,0.77188 -1.23056,-0.0927 -2.23739,-0.52278 -2.23739,-0.95573 z m -70.500003,-0.7872 c -0.339919,-0.55 -0.141476,-1 0.440983,-1 0.582459,0 1.059017,0.45 1.059017,1 0,0.55 -0.198442,1 -0.440983,1 -0.242541,0 -0.719098,-0.45 -1.059017,-1 z m 11.5,0 c 0,-0.55 0.47656,-1 1.05902,-1 0.58246,0 0.7809,0.45 0.44098,1 -0.33992,0.55 -0.81648,1 -1.05902,1 -0.24254,0 -0.44098,-0.45 -0.44098,-1 z m 41.650833,-0.83333 c -1.41466,-1.56319 -1.4375,-1.83334 -0.15499,-1.83334 0.82729,0 1.28306,0.2211 1.01284,0.49133 -0.27023,0.27023 0.01,1.09523 0.62244,1.83333 1.68294,2.02782 0.42021,1.6087 -1.48029,-0.49132 z m 13.77774,-0.24009 c 0,-1.05962 0.35357,-1.92658 0.78572,-1.92658 0.43214,0 0.78571,0.64844 0.78571,1.44098 0,0.79254 -0.35357,1.65951 -0.78571,1.92658 -0.43215,0.26708 -0.78572,-0.38136 -0.78572,-1.44098 z M 20.126637,213.90766 c 0,-0.21616 0.698372,-0.661 1.551938,-0.98855 0.889925,-0.34149 1.291322,-0.17385 0.940983,0.39301 -0.587258,0.95021 -2.492921,1.40545 -2.492921,0.59554 z m 57,0 c 0,-0.21616 0.675,-0.65203 1.5,-0.96862 0.825,-0.31658 1.5,-0.13972 1.5,0.39301 0,0.53274 -0.675,0.96862 -1.5,0.96862 -0.825,0 -1.5,-0.17686 -1.5,-0.39301 z m 9,-0.51337 c 0,-0.49851 0.9,-0.67103 2,-0.38337 1.1,0.28766 2,0.69553 2,0.90638 0,0.21085 -0.9,0.38337 -2,0.38337 -1.1,0 -2,-0.40787 -2,-0.90638 z m -34,-2.09362 c -0.825,-0.53316 -1.05,-0.96937 -0.5,-0.96937 0.55,0 1.675,0.43621 2.5,0.96937 0.825,0.53316 1.05,0.96937 0.5,0.96937 -0.55,0 -1.675,-0.43621 -2.5,-0.96937 z m 20.8125,0.31689 c 0.72187,-0.28887 1.58437,-0.25335 1.91667,0.0789 0.33229,0.33229 -0.25834,0.56864 -1.3125,0.52522 -1.16495,-0.048 -1.4019,-0.28494 -0.60417,-0.60416 z m 29.751793,-1.02376 c -0.54268,-1.4252 -0.42782,-1.54006 0.5598,-0.5598 0.68342,0.67834 0.99067,1.48524 0.68278,1.79313 -0.30789,0.30789 -0.86705,-0.24711 -1.24258,-1.23333 z m 16.24821,1.02376 c 0.72187,-0.28887 1.58437,-0.25335 1.91667,0.0789 0.33229,0.33229 -0.25834,0.56864 -1.3125,0.52522 -1.16495,-0.048 -1.4019,-0.28494 -0.60417,-0.60416 z m 31.6875,-0.31689 c 0.33992,-0.55 0.81648,-1 1.05902,-1 0.24254,0 0.44098,0.45 0.44098,1 0,0.55 -0.47656,1 -1.05902,1 -0.58246,0 -0.7809,-0.45 -0.44098,-1 z m -94.000003,-1 c -0.731,-1.18278 0.247516,-1.18278 3,0 1.92824,0.82859 1.92138,0.86195 -0.190983,0.92971 -1.205041,0.0387 -2.469098,-0.37971 -2.809017,-0.92971 z m 85.000003,0 -4,-0.71619 4,-0.0716 c 2.2,-0.0394 4.9,0.31512 6,0.78781 l 2,0.85943 -2,-0.0716 c -1.1,-0.0394 -3.8,-0.39391 -6,-0.78781 z m -78.000003,-1 c -1.68588,-0.72445 -1.49883,-0.87047 1.19098,-0.92971 1.75504,-0.0387 3.4691,0.37971 3.80902,0.92971 0.74125,1.19936 -2.20893,1.19936 -5,0 z m 71.000003,0 c -1.63041,-0.70061 -1.68751,-0.87242 -0.30902,-0.92971 0.93004,-0.0387 1.9691,0.37971 2.30902,0.92971 0.71066,1.14988 0.67591,1.14988 -2,0 z M 31.126637,208.24165 c 0,-0.58246 0.45,-0.7809 1,-0.44098 0.55,0.33992 1,0.81648 1,1.05902 0,0.24254 -0.45,0.44098 -1,0.44098 -0.55,0 -1,-0.47656 -1,-1.05902 z m 40.6116,-0.12155 c 0.27854,-0.45069 2.80488,-0.81943 5.61408,-0.81943 2.80921,0 4.84041,0.26725 4.51377,0.59388 -0.92809,0.92809 -10.6965,1.14564 -10.12785,0.22555 z m 27.3884,-0.31943 c -0.71755,-0.86459 -0.81474,-1.5 -0.22943,-1.5 0.5585,0 1.274473,0.675 1.591063,1.5 0.31658,0.825 0.41982,1.5 0.22943,1.5 -0.19039,0 -0.906373,-0.675 -1.591063,-1.5 z m 3.806243,-0.76653 c 0.64702,-0.77962 0.84281,-1.82608 0.43508,-2.32548 -0.40772,-0.49939 -0.34465,-0.58632 0.14016,-0.19317 0.48482,0.39315 1.76086,0.24419 2.83565,-0.33102 3.64239,-1.94935 2.89287,-0.14625 -0.85952,2.06771 -2.05028,1.2097 -3.1984,1.56158 -2.55137,0.78196 z m 10.8777,-0.83409 c -0.3496,-1.33687 -0.99355,-1.82606 -1.77114,-1.34549 -0.7871,0.48646 -0.96436,0.33855 -0.49821,-0.41569 0.39798,-0.64395 1.25501,-0.90511 1.90451,-0.58035 0.64949,0.32475 0.30739,-0.11791 -0.76023,-0.98369 -1.06762,-0.86579 -1.38929,-1.57416 -0.71482,-1.57416 0.91179,0 0.95487,-0.5072 0.16799,-1.97749 -0.9007,-1.68299 -0.79425,-1.8785 0.71482,-1.31277 1.61473,0.60534 1.63913,0.49165 0.27314,-1.27251 -1.41517,-1.82767 -1.39234,-1.8524 0.40369,-0.43723 1.04704,0.825 2.09704,1.35 2.33334,1.16667 0.2363,-0.18334 0.72964,0.001 1.0963,0.41032 0.36667,0.40901 0.13526,0.43917 -0.51423,0.067 -1.49568,-0.857 -2.73095,0.98342 -1.26724,1.88804 0.59647,0.36864 0.76792,1.41223 0.381,2.3191 -0.38692,0.90687 -0.64764,2.66135 -0.57937,3.89885 0.15607,2.82953 -0.44848,2.90675 -1.16955,0.14938 z m 0.77335,-4.83028 c 0.31644,-0.512 0.19299,-1.1672 -0.27431,-1.45601 -0.46731,-0.28881 -0.84965,0.13009 -0.84965,0.9309 0,1.68617 0.31534,1.83349 1.12396,0.52511 z m 5.40586,6.12808 c 1.15087,-0.80634 1.15087,-1.03259 0,-1.45284 -0.81477,-0.29751 -0.26343,-0.79046 1.3705,-1.22535 2.55834,-0.68094 2.6385,-0.86344 1.25,-2.8458 -0.81601,-1.16501 -1.47676,-2.58057 -1.46834,-3.1457 0.008,-0.56512 0.4101,-0.40412 0.89262,0.35777 0.69262,1.09366 1.53142,1.15723 3.98468,0.30202 1.8628,-0.64937 3.10739,-0.70355 3.10739,-0.13526 0,0.52139 -0.5625,0.95487 -1.25,0.96329 -0.83333,0.0102 -0.75,0.33844 0.25,0.98469 1.2819,0.82843 1.24555,0.9716 -0.25,0.98469 -0.9625,0.008 -1.75,-0.42057 -1.75,-0.95331 0,-0.53273 -0.73813,-0.68536 -1.6403,-0.33917 -1.50886,0.57901 -1.50462,0.72866 0.053,1.86762 1.28564,0.94008 1.37961,1.36385 0.3903,1.76022 -0.86573,0.34686 -0.73553,0.54855 0.38798,0.601 0.93004,0.0434 1.96826,0.52759 2.30715,1.07593 0.40953,0.66263 -0.26322,0.66263 -2.00608,0 -3.40417,-1.29427 -4.55043,-1.25967 -4.24205,0.12802 0.1375,0.61875 -0.425,1.32801 -1.25,1.57613 -1.2163,0.36581 -1.24219,0.2705 -0.13685,-0.50395 z m 35.13685,-0.15149 c 0.825,-0.55829 2.3625,-1.02196 3.41667,-1.03038 2.55844,-0.0204 1.76026,0.55192 -1.91667,1.37439 -2.19092,0.49007 -2.59546,0.3973 -1.5,-0.34401 z m 20,-0.0457 c 0,-0.55 0.47656,-1 1.05902,-1 0.58246,0 0.7809,0.45 0.44098,1 -0.33992,0.55 -0.81648,1 -1.05902,1 -0.24254,0 -0.44098,-0.45 -0.44098,-1 z m -112.187503,-0.6831 c 0.72187,-0.28887 1.58437,-0.25335 1.91667,0.0789 0.33229,0.33229 -0.25834,0.56864 -1.3125,0.52522 -1.16495,-0.048 -1.4019,-0.28494 -0.60417,-0.60416 z m 85.687503,-0.31689 c 0.33992,-0.55 1.29303,-1 2.11803,-1 0.825,0 1.22189,0.45 0.88197,1 -0.33992,0.55 -1.29303,1 -2.11803,1 -0.825,0 -1.22189,-0.45 -0.88197,-1 z m -78.687503,-0.68311 c 0.72187,-0.28887 1.58437,-0.25335 1.91667,0.0789 0.33229,0.33229 -0.25834,0.56864 -1.3125,0.52522 -1.16495,-0.048 -1.4019,-0.28494 -0.60417,-0.60416 z m 14.1875,-0.31689 c -2.05955,-0.65958 -2.14764,-0.8155 -0.5,-0.88501 1.1,-0.0464 2.675,0.35185 3.5,0.88501 1.75214,1.13232 0.53568,1.13232 -3,0 z m 11.50708,-1.98855 c -0.35034,-0.56686 0.0511,-0.7345 0.94098,-0.39301 1.73242,0.66479 2.04939,1.38156 0.61096,1.38156 -0.51754,0 -1.21592,-0.44485 -1.55194,-0.98855 z m -38.69458,-0.69456 c 0.721875,-0.28887 1.584375,-0.25335 1.916667,0.0789 0.332291,0.33229 -0.258334,0.56864 -1.3125,0.52522 -1.164943,-0.048 -1.4019,-0.28494 -0.604167,-0.60416 z m 26.1875,0.2901 c 0,-0.21616 0.675,-0.65203 1.5,-0.96862 0.825,-0.31658 1.5,-0.13972 1.5,0.39301 0,0.53274 -0.675,0.96862 -1.5,0.96862 -0.825,0 -1.5,-0.17686 -1.5,-0.39301 z m 18.404993,-1.85699 -1.904993,-2.25 2.250003,1.90499 c 2.11444,1.79022 2.70524,2.59501 1.90499,2.59501 -0.18976,0 -1.20226,-1.0125 -2.25,-2.25 z m 15.42674,0.17583 c 0.42201,-1.14079 1.17273,-2.07416 1.66827,-2.07416 0.49554,0 1.24626,0.93337 1.66827,2.07416 1.04056,2.81292 -4.8e-4,2.65194 -1.13711,-0.17583 l -0.90439,-2.25 -0.0634,2.25 c -0.0349,1.2375 -0.49889,2.25 -1.03117,2.25 -0.55926,0 -0.64389,-0.87554 -0.20049,-2.07417 z m 18.16827,1.07417 c 3.41917,-1.09501 6.04822,-1.09501 3.5,0 -1.1,0.47269 -2.9,0.8462 -4,0.83003 -1.60779,-0.0236 -1.50973,-0.1864 0.5,-0.83003 z m 11.25,0.31067 c 0.9625,-0.25152 2.5375,-0.25152 3.5,0 0.9625,0.25153 0.175,0.45733 -1.75,0.45733 -1.925,0 -2.7125,-0.2058 -1.75,-0.45733 z m -95.437503,-0.99378 c 0.721875,-0.28887 1.584375,-0.25335 1.916667,0.0789 0.332291,0.33229 -0.258334,0.56864 -1.3125,0.52522 -1.164943,-0.048 -1.4019,-0.28494 -0.604167,-0.60416 z m 103.000003,0 c 0.72187,-0.28887 1.58437,-0.25335 1.91667,0.0789 0.33229,0.33229 -0.25834,0.56864 -1.3125,0.52522 -1.16495,-0.048 -1.4019,-0.28494 -0.60417,-0.60416 z m -71.803783,-1.1523 c 0.55206,-0.18448 0.71964,-0.7951 0.37241,-1.35693 -0.41318,-0.66854 0.53494,-0.77539 2.74376,-0.30924 5.23155,1.10407 5.45448,2.20594 0.4246,2.09858 -2.49948,-0.0533 -4.09283,-0.24793 -3.54077,-0.43241 z m 26.389893,-0.56822 c -0.97195,-2.53286 0.0184,-3.75954 1.3342,-1.6526 0.7785,1.24658 0.866,2.18614 0.23965,2.57325 -0.54262,0.33536 -1.25086,-0.0789 -1.57385,-0.92065 z m 25.41389,0.72052 c 0.72187,-0.28887 1.58437,-0.25335 1.91667,0.0789 0.33229,0.33229 -0.25834,0.56864 -1.3125,0.52522 -1.16495,-0.048 -1.4019,-0.28494 -0.60417,-0.60416 z m -30.3125,-1.31689 c -0.33992,-0.55 -0.16803,-1 0.38197,-1 0.55,0 1.27811,0.45 1.61803,1 0.33992,0.55 0.16803,1 -0.38197,1 -0.55,0 -1.27811,-0.45 -1.61803,-1 z m -25.500003,-1 c 0,-0.55 0.42344,-1 0.94098,-1 0.51754,0 1.2191,0.45 1.55902,1 0.33992,0.55 -0.0835,1 -0.94098,1 -0.85746,0 -1.55902,-0.45 -1.55902,-1 z m 55.812503,0.31689 c 0.72187,-0.28887 1.58437,-0.25335 1.91667,0.0789 0.33229,0.33229 -0.25834,0.56864 -1.3125,0.52522 -1.16495,-0.048 -1.4019,-0.28494 -0.60417,-0.60416 z m -72.165073,-1.07834 c -0.25883,-0.41879 1.97577,-0.84387 4.96577,-0.9446 3.20208,-0.10789 5.19643,0.20506 4.85257,0.76144 -0.694,1.1229 -9.14016,1.28047 -9.81834,0.18316 z m 76.121023,-1.407 c 0.5811,-0.5811 1.64682,-0.85979 2.36826,-0.61931 0.74895,0.24965 0.29565,0.70294 -1.05655,1.05655 -1.66335,0.43497 -2.05378,0.30483 -1.31171,-0.43724 z"
           id="path406"
           inkscape:connector-curvature="0" />
      </g>
    </g>
  </g>
</svg>
