<?xml version="1.0" encoding="UTF-8" standalone="no"?>
<!-- Created with Inkscape (http://www.inkscape.org/) -->

<svg
   xmlns:dc="http://purl.org/dc/elements/1.1/"
   xmlns:cc="http://creativecommons.org/ns#"
   xmlns:rdf="http://www.w3.org/1999/02/22-rdf-syntax-ns#"
   xmlns:svg="http://www.w3.org/2000/svg"
   xmlns="http://www.w3.org/2000/svg"
   xmlns:sodipodi="http://sodipodi.sourceforge.net/DTD/sodipodi-0.dtd"
   xmlns:inkscape="http://www.inkscape.org/namespaces/inkscape"
   width="75mm"
   height="120mm"
   viewBox="0 0 75 120"
   version="1.1"
   id="svg8"
   inkscape:version="0.92.4 (5da689c313, 2019-01-14)"
   sodipodi:docname="yanagi7.svg">
  <defs
     id="defs2" />
  <sodipodi:namedview
     id="base"
     pagecolor="#ffffff"
     bordercolor="#666666"
     borderopacity="1.0"
     inkscape:pageopacity="0.0"
     inkscape:pageshadow="2"
     inkscape:zoom="1.4"
     inkscape:cx="15.772847"
     inkscape:cy="309.71989"
     inkscape:document-units="mm"
     inkscape:current-layer="layer1"
     showgrid="false"
     units="mm"
     inkscape:window-width="1920"
     inkscape:window-height="1017"
     inkscape:window-x="-8"
     inkscape:window-y="-8"
     inkscape:window-maximized="1" />
  <metadata
     id="metadata5">
    <rdf:RDF>
      <cc:Work
         rdf:about="">
        <dc:format>image/svg+xml</dc:format>
        <dc:type
           rdf:resource="http://purl.org/dc/dcmitype/StillImage" />
        <dc:title />
      </cc:Work>
    </rdf:RDF>
  </metadata>
  <g
     inkscape:label="Calque 1"
     inkscape:groupmode="layer"
     id="layer1"
     transform="translate(0,-176.99999)">
    <g
       id="g1743"
       transform="translate(-0.44513086,11.856744)">
      <path
         style="fill:#eed7f4;stroke-width:0.26458335"
         d="m 24.968839,233.24337 c -0.25341,-1.12778 -0.460024,-2.70536 -0.459141,-3.50572 0.0017,-1.58024 0.322116,-2.97707 1.06197,-4.63021 0.984751,-2.20034 1.322626,-3.55126 1.831847,-7.32425 0.401739,-2.97661 0.727018,-4.36818 1.391548,-5.95313 0.763963,-1.8221 1.200801,-2.4054 3.667776,-4.89746 2.078969,-2.10012 2.883397,-3.10562 3.122181,-3.90261 0.196659,-0.65639 0.481407,-1.0736 0.73274,-1.0736 0.341169,0 0.380137,0.22499 0.229134,1.32292 -0.147976,1.07592 -0.108498,1.32292 0.211447,1.32292 0.460341,0 0.715611,0.55314 0.712071,1.54299 -0.0013,0.38828 -0.418108,1.99774 -0.926042,3.57658 -0.507934,1.57883 -0.923518,3.22377 -0.923518,3.65541 0,0.43165 -0.124745,1.0179 -0.277214,1.30279 -0.152469,0.28489 -0.263409,1.31886 -0.246531,2.29771 0.03685,2.13716 0.10464,2.94687 0.491781,5.87383 0.163103,1.23311 0.295648,3.3167 0.29455,4.63021 -0.0021,2.61648 -0.373546,5.41957 -0.868463,6.55537 -0.183809,0.42183 -0.525259,0.72761 -0.812485,0.72761 -0.384262,0 -0.459946,-0.13359 -0.33727,-0.59531 0.08699,-0.32743 0.297593,-2.0836 0.468003,-3.90261 0.277482,-2.96192 0.249058,-3.84865 -0.272187,-8.4914 -0.489048,-4.35596 -0.537176,-5.54503 -0.301263,-7.44349 0.154419,-1.24267 0.52551,-2.95795 0.824646,-3.81173 0.299138,-0.85379 0.767278,-2.25619 1.040312,-3.11647 l 0.496427,-1.56413 -0.825407,1.00136 c -0.453972,0.55075 -1.693876,1.87833 -2.755339,2.95018 -1.061463,1.07184 -2.114563,2.30585 -2.340221,2.74222 -0.383434,0.74149 -1.203719,4.44105 -1.585357,7.15013 -0.09225,0.65484 -0.268131,1.42875 -0.390848,1.71979 -0.122716,0.29104 -0.427884,1.24354 -0.678147,2.11667 -0.250264,0.87312 -0.690746,2.33637 -0.978848,3.25166 -0.396295,1.25901 -0.533514,2.49894 -0.563627,5.09296 -0.02442,2.10356 -0.142995,3.4289 -0.306791,3.42907 -0.146843,1.4e-4 -0.474324,-0.92247 -0.727734,-2.05026 z m 17.795763,-3.07444 c 0,-4.90063 -0.03402,-5.2394 -0.777263,-7.73907 -0.427496,-1.43775 -1.13963,-3.50372 -1.582521,-4.59106 -0.442891,-1.08733 -0.985179,-2.81373 -1.205084,-3.83646 -0.219904,-1.02272 -0.577128,-3.64542 -0.793827,-5.82824 -0.216699,-2.18281 -0.574799,-4.55322 -0.795777,-5.26757 -0.220977,-0.71435 -0.401778,-1.45849 -0.401778,-1.65364 0,-0.19516 0.216215,-0.35483 0.480481,-0.35483 0.331179,0 0.662514,0.43919 1.066303,1.41341 0.615566,1.48516 1.015624,3.51822 1.226838,6.23468 0.169654,2.18192 0.789168,4.8016 2.039398,8.62379 0.571193,1.74625 1.221552,4.00843 1.445241,5.02708 0.276342,1.25842 0.413184,3.37864 0.426914,6.61458 0.01111,2.61938 -0.06921,5.14946 -0.178507,5.6224 -0.109381,0.47333 -0.367678,0.8599 -0.574566,0.8599 -0.311812,0 -0.375852,-0.87324 -0.375852,-5.12497 z m 8.381858,4.95196 c -0.09515,-0.0951 -0.102804,-0.61204 -0.01699,-1.14863 0.08581,-0.53659 0.02215,-2.44259 -0.141475,-4.23556 -0.281366,-3.08329 -0.365271,-3.39596 -1.548455,-5.77029 -0.688034,-1.38069 -1.551631,-2.83359 -1.919103,-3.22866 -0.848714,-0.91247 -2.066155,-3.40638 -3.228903,-6.61437 -1.014751,-2.79967 -1.590263,-4.82402 -1.653736,-5.81699 -0.07574,-1.18488 -0.691449,-2.95835 -1.413169,-4.07044 -0.388678,-0.59891 -0.915564,-1.24451 -1.170852,-1.43466 -0.573591,-0.42724 -0.612696,-1.37406 -0.05675,-1.37406 0.720577,0 2.354202,0.98293 2.924244,1.75948 0.304443,0.41473 0.704048,1.2109 0.88801,1.76927 0.183962,0.55836 0.324567,1.71922 0.312455,2.57968 -0.01212,0.86047 0.08242,1.56448 0.210079,1.56448 0.127653,0 0.381815,0.62508 0.564801,1.38907 0.356367,1.48787 0.674314,2.33063 1.821693,4.82864 1.647515,3.58688 2.362377,4.8948 2.675324,4.8948 0.137578,0 0.250145,0.15631 0.250145,0.34735 0,0.19105 0.280752,0.93519 0.623895,1.65365 1.29513,2.71169 1.465493,3.20719 1.740099,5.06113 0.311605,2.10373 0.365627,5.49259 0.112016,7.02693 -0.150902,0.91295 -0.546552,1.24595 -0.97332,0.81918 z M 7.0458526,231.08172 c 0,-2.5043 0.1207368,-3.30629 0.9061855,-6.01927 0.498402,-1.72151 1.0893065,-3.56213 1.3131215,-4.09026 0.2238148,-0.52813 0.6889544,-1.30204 1.0336434,-1.71979 0.344689,-0.41775 0.914644,-1.29533 1.266566,-1.95017 0.351922,-0.65485 0.702824,-1.25016 0.779781,-1.32292 0.07696,-0.0728 0.515731,-0.96573 0.975053,-1.98437 0.459321,-1.01865 1.03661,-2.68552 1.282864,-3.70417 0.246253,-1.01865 0.598252,-2.2688 0.782218,-2.77813 0.183966,-0.50932 0.727114,-2.17619 1.206995,-3.70416 0.763688,-2.43163 1.039513,-2.95649 2.21148,-4.20818 0.994226,-1.06186 1.918003,-1.70017 3.587926,-2.47918 l 2.248958,-1.04912 2.645834,0.15124 c 1.455208,0.0832 2.913723,0.23044 3.241145,0.32723 0.327422,0.0968 0.595313,0.34068 0.595313,0.54199 0,0.28629 -0.554929,0.36602 -2.547676,0.36602 -2.042934,0 -2.906114,0.12929 -4.35687,0.65261 -0.995056,0.35894 -2.264654,0.94013 -2.821328,1.29155 -1.237072,0.78092 -2.54296,2.23569 -3.189668,3.5533 -0.60334,1.22925 -0.893857,2.22367 -1.910959,6.54108 -0.626285,2.65847 -1.145471,4.10053 -2.286197,6.35 -0.811743,1.60073 -1.792245,3.38667 -2.178893,3.96875 -1.423966,2.14372 -2.1229641,3.7817 -2.7689097,6.48847 -0.3638245,1.52457 -0.7877992,3.77314 -0.9421659,4.99683 -0.1543669,1.22369 -0.2806668,2.32501 -0.2806668,2.44739 0,0.12239 -0.1785937,0.22252 -0.396875,0.22252 -0.3285485,0 -0.396875,-0.49742 -0.396875,-2.88926 z m 50.9473044,2.29395 c -0.05537,-0.1819 -0.242184,-1.44298 -0.415142,-2.80239 -0.172958,-1.35941 -0.5793,-3.28018 -0.902981,-4.26836 -0.323681,-0.98819 -1.273064,-2.8525 -2.10974,-4.14293 -4.347286,-6.7049 -5.318842,-8.28085 -5.870292,-9.52214 -0.331102,-0.74529 -0.683297,-1.7884 -0.782656,-2.31802 -0.09936,-0.52962 -0.286213,-1.02819 -0.415237,-1.10793 -0.129024,-0.0797 -0.23459,-0.38863 -0.23459,-0.68642 0,-0.29779 -0.298109,-1.51878 -0.662461,-2.71331 -0.722048,-2.36722 -1.485593,-3.37274 -3.21364,-4.23205 -2.184236,-1.08618 -3.796816,-2.1344 -3.796816,-2.46806 0,-0.1921 0.17721,-0.41727 0.393801,-0.50039 0.504087,-0.19343 2.866742,0.33942 4.23703,0.95558 0.582424,0.26189 1.398066,0.81528 1.812536,1.22975 0.414469,0.41447 0.968898,1.17564 1.232064,1.69149 0.263165,0.51585 0.608824,1.64299 0.76813,2.50476 0.159308,0.86177 0.408271,1.68548 0.553254,1.83046 0.144981,0.14498 0.263602,0.52635 0.263602,0.84748 0,0.32113 0.357188,1.37998 0.79375,2.353 0.436563,0.97301 0.79375,1.93661 0.79375,2.14133 0,0.20471 0.09719,0.37221 0.215972,0.37221 0.118782,0 0.624797,0.80367 1.124479,1.78594 0.499679,0.98226 0.969118,1.84546 1.043199,1.91823 0.07408,0.0728 0.601813,0.90619 1.172742,1.85208 0.570926,0.94588 1.112633,1.77932 1.203793,1.85208 0.09116,0.0728 0.592349,0.9062 1.113761,1.85209 0.54107,0.98155 1.240218,2.88482 1.628725,4.43382 0.37439,1.49271 0.761531,3.78467 0.860313,5.09323 0.160065,2.12034 0.131395,2.3792 -0.263535,2.3792 -0.243726,0 -0.488442,-0.14883 -0.543811,-0.33073 z m 4.783261,-1.78594 c -0.237958,-1.01865 -0.621818,-2.71529 -0.853024,-3.77031 -0.527333,-2.4063 -3.07435,-7.61348 -4.982604,-10.18658 -0.782474,-1.05509 -1.774902,-2.6029 -2.205393,-3.43958 -0.44488,-0.86464 -1.155713,-3.12003 -1.646898,-5.22541 -0.475301,-2.03729 -1.156634,-4.28447 -1.514076,-4.99373 -0.357441,-0.70927 -1.086892,-1.69096 -1.621001,-2.18155 -0.534112,-0.49059 -1.055061,-0.89255 -1.157669,-0.89324 -0.102605,-8e-4 -0.965808,-0.3735 -1.918229,-0.82844 -0.952418,-0.45495 -1.731672,-0.97782 -1.731672,-1.16194 0,-0.61685 1.255811,-0.66023 3.052014,-0.10544 0.977821,0.30202 1.911527,0.65692 2.074902,0.78868 0.163373,0.13176 0.662549,0.53155 1.109277,0.88842 0.446727,0.35687 1.004022,1.10281 1.238432,1.65764 0.234413,0.55482 0.737516,2.08033 1.118008,3.39002 0.380492,1.30969 0.805463,2.74689 0.944377,3.19379 0.138917,0.44689 0.252574,1.01981 0.252574,1.27315 0,0.44749 1.255612,3.3372 1.565481,3.60285 0.08487,0.0728 0.63056,1.04214 1.212644,2.15418 0.582083,1.11204 1.734142,3.1361 2.560132,4.49792 0.868828,1.43244 1.852993,3.53542 2.335051,4.98957 0.834766,2.51809 1.666454,7.15828 1.405099,7.83936 -0.07655,0.1995 -0.288946,0.36272 -0.471982,0.36272 -0.19444,0 -0.512665,-0.76999 -0.765443,-1.85208 z m -45.327255,-2.4474 c 0.129995,-3.02018 0.292866,-4.15477 0.818623,-5.70269 0.360987,-1.06281 1.023309,-2.52878 1.471827,-3.25771 0.448518,-0.72894 1.198953,-1.70969 1.667634,-2.17946 0.698724,-0.70034 1.128517,-1.71254 2.387172,-5.62201 1.660835,-5.15866 2.732545,-7.20607 4.353044,-8.31611 0.524106,-0.35901 1.082752,-0.77181 1.241439,-0.91733 0.525891,-0.48227 1.94125,-1.19063 2.378966,-1.19063 0.416812,0 2.456979,-0.99471 3.377274,-1.64664 0.247682,-0.17546 0.533379,-0.23596 0.634884,-0.13446 0.278474,0.27847 -0.239755,1.82901 -0.690332,2.06547 -0.217186,0.11398 -1.549668,0.75601 -2.961074,1.42675 -2.172626,1.03249 -2.792889,1.47774 -4.044358,2.90318 -1.652559,1.88229 -2.665467,4.10727 -3.029251,6.65415 -0.126571,0.88612 -0.486158,2.17316 -0.799083,2.86007 -0.471224,1.0344 -1.463294,2.55237 -2.613938,3.99958 -0.665912,0.83755 -1.664461,2.8997 -2.275767,4.69981 -0.520982,1.53412 -0.740334,2.83082 -0.861579,5.09323 -0.150123,2.80125 -0.203306,3.03512 -0.69021,3.03512 -0.509928,0 -0.522132,-0.12598 -0.365271,-3.77032 z m -5.297696,-0.79375 c 0.08379,-1.63711 0.32659,-3.52139 0.539561,-4.18729 0.598209,-1.87044 2.189856,-4.88794 4.036653,-7.65281 1.491071,-2.23232 1.797154,-2.92662 2.735672,-6.20554 0.581214,-2.0306 1.419125,-4.42808 1.862023,-5.32774 0.442899,-0.89965 1.261254,-2.09575 1.818567,-2.658 0.557313,-0.56224 1.717375,-1.37758 2.577915,-1.81186 0.860541,-0.43428 1.743213,-0.92295 1.961495,-1.08593 0.514384,-0.38408 3.204445,-0.9026 4.68264,-0.9026 0.796759,0 1.203378,0.12659 1.311474,0.40829 0.08617,0.22455 0.105058,0.4599 0.04197,0.52299 -0.06309,0.0631 -0.973714,0.23653 -2.023615,0.38544 -2.360208,0.33474 -4.952512,1.59253 -6.913499,3.35444 -1.026157,0.92198 -1.665294,1.80204 -2.276076,3.13405 -0.467093,1.01865 -0.937432,2.2688 -1.045199,2.77812 -0.382213,1.8064 -1.493411,4.91151 -2.177736,6.08542 -0.381737,0.65485 -1.367685,2.21706 -2.190995,3.47159 -0.823311,1.25453 -1.913639,3.33812 -2.422952,4.6302 -0.525235,1.33249 -1.131555,3.58027 -1.400906,5.19352 -0.357646,2.14209 -0.572949,2.84428 -0.872107,2.84428 -0.338731,0 -0.374791,-0.43831 -0.244883,-2.97657 z m -8.4245159,0.0474 c -0.2162299,-0.34986 0.055099,-2.31733 0.5629751,-4.08225 0.2093759,-0.72761 0.9741447,-2.27542 1.6994859,-3.43959 0.7253415,-1.16416 1.6582141,-2.77151 2.0730506,-3.57187 0.4148365,-0.80037 1.2814147,-2.46724 1.9257291,-3.70417 0.6443142,-1.23693 1.4892492,-3.08239 1.8776322,-4.10104 1.051498,-2.75786 2.588362,-7.66611 2.588362,-8.2664 0,-0.28918 0.238125,-0.82851 0.529167,-1.19851 0.291041,-0.36999 0.529166,-0.73962 0.529166,-0.82139 0,-0.0818 0.615306,-0.80977 1.367347,-1.61779 0.752041,-0.80802 1.752036,-1.70688 2.222211,-1.99746 0.470174,-0.29059 1.551509,-0.77868 2.402965,-1.08465 2.069149,-0.74356 6.294111,-1.27199 8.00611,-1.00136 1.492033,0.23586 2.9347,0.97014 2.9347,1.49369 0,0.26778 -0.639058,0.30578 -2.976562,0.17696 -2.229508,-0.12286 -3.48044,-0.0584 -4.984212,0.25687 -1.104207,0.23149 -2.354363,0.6017 -2.778125,0.82269 -0.423761,0.22099 -0.854485,0.40253 -0.957163,0.40343 -0.102678,7.9e-4 -0.628449,0.30141 -1.168379,0.66782 -0.539931,0.36641 -1.496158,1.4082 -2.12495,2.31511 -1.078992,1.55621 -2.546551,5.12718 -3.439883,8.37015 -0.533148,1.93543 -1.704391,4.79698 -2.88031,7.03709 -0.884531,1.68502 -1.511778,2.73926 -4.5652311,7.67292 -0.5403786,0.87312 -1.1433384,2.00422 -1.3399103,2.51354 -0.1965722,0.50932 -0.4797642,1.49159 -0.6293157,2.18281 -0.2678179,1.23785 -0.5306721,1.53031 -0.8748598,0.9734 z M 68.252619,227.158 c -0.789549,-2.28546 -1.661695,-4.10711 -2.733151,-5.70874 -0.698358,-1.04392 -2.416318,-3.19037 -3.817695,-4.7699 -1.401376,-1.57953 -2.706507,-3.18687 -2.900291,-3.57187 -0.327181,-0.65003 -0.932997,-2.59911 -1.492276,-4.80106 -0.129365,-0.50932 -0.308816,-1.52135 -0.398783,-2.24895 -0.08996,-0.72761 -0.577455,-2.18995 -1.083315,-3.24966 -0.670012,-1.40358 -1.221251,-2.14765 -2.030185,-2.74037 -0.610746,-0.4475 -1.467633,-0.96952 -1.904196,-1.16004 -0.436562,-0.19053 -1.27,-0.555 -1.852083,-0.80994 -1.197864,-0.52464 -3.633285,-0.61827 -6.813021,-0.26193 l -2.050521,0.22979 v -0.63569 c 0,-0.44392 0.219504,-0.72676 0.727605,-0.93755 0.400182,-0.16602 1.055026,-0.37595 1.455208,-0.46651 0.400182,-0.0906 0.727604,-0.34097 0.727604,-0.55648 0,-0.21551 0.168672,-0.39183 0.374827,-0.39183 0.206153,0 0.414513,0.10019 0.463021,0.22264 0.130024,0.32824 1.807985,0.60658 1.807985,0.29991 0,-0.14188 0.178594,-0.25797 0.396875,-0.25797 0.218282,0 0.396875,0.11906 0.396875,0.26458 0,0.14553 0.267936,0.26459 0.595411,0.26459 0.327477,0 1.371322,0.16234 2.319655,0.36076 1.083783,0.22675 2.263079,0.71563 3.174899,1.31616 0.797865,0.52547 1.76275,1.22633 2.144194,1.55747 0.858443,0.74523 2.253467,4.31027 2.461559,6.29061 0.164738,1.56777 1.355103,5.29503 2.23923,7.01146 0.299831,0.58208 1.150315,1.83224 1.889969,2.77812 3.00832,3.84711 4.233341,5.55934 5.037767,7.0414 0.464979,0.85666 1.067655,2.33109 1.339281,3.27651 0.271629,0.94542 0.493869,1.80863 0.493869,1.91823 0,0.1096 -0.18233,0.19928 -0.405178,0.19928 -0.222851,0 -0.47716,-0.20836 -0.565139,-0.46302 z m 3.599389,-0.50882 c -0.346761,-0.88656 -1.260457,-2.24961 -2.186276,-3.26149 -0.458089,-0.50068 -2.316716,-3.75952 -2.942564,-5.15938 -1.345287,-3.00906 -3.218606,-6.7357 -3.857051,-7.67292 -0.39652,-0.58208 -1.034819,-1.59411 -1.418444,-2.24896 -1.151157,-1.96502 -2.947966,-5.58489 -3.611637,-7.27604 -0.342648,-0.87312 -0.876331,-1.94468 -1.185963,-2.38125 -0.309634,-0.43656 -0.638479,-0.99876 -0.730774,-1.24934 -0.193937,-0.52654 -2.391621,-1.98164 -3.365113,-2.22806 -0.363802,-0.0921 -0.800304,-0.27638 -0.970005,-0.40952 -0.169701,-0.13315 -1.345049,-0.34903 -2.611882,-0.47973 -1.388872,-0.1433 -2.814947,-0.14062 -3.591973,0.007 -0.708752,0.13442 -2.185053,0.5453 -3.280669,0.91309 -1.095616,0.36779 -2.108584,0.6687 -2.251041,0.6687 -0.516453,0 -0.242104,-0.76245 0.468591,-1.30228 l 0.727604,-0.55267 -1.278708,0.5306 c -0.703286,0.29183 -1.548616,0.5306 -1.878507,0.5306 -0.392456,0 -1.299522,-0.69294 -2.623899,-2.0045 -1.113253,-1.10247 -2.024095,-2.11591 -2.024095,-2.25208 0,-0.3437 2.09264,0.005 2.936246,0.48899 0.430027,0.24681 0.863007,0.88313 1.156737,1.69997 0.468373,1.3025 0.470747,1.30436 1.032505,0.80936 1.304851,-1.14977 2.12843,-1.4739 3.803382,-1.49691 1.120447,-0.0154 1.743459,0.0923 1.888808,0.32648 0.174998,0.28195 0.536993,0.29139 1.874313,0.0489 2.060398,-0.37362 4.902658,-0.1497 7.482608,0.5895 1.214723,0.34804 2.272358,1.03024 3.464216,2.23451 0.313809,0.31707 0.907351,1.4184 1.318985,2.44739 0.411633,1.029 0.858117,1.8709 0.992187,1.8709 0.13407,0 0.243763,0.22825 0.243763,0.50723 0,1.00423 2.017226,5.18501 4.737685,9.81906 0.814012,1.38659 1.874885,3.35112 2.357496,4.36562 1.867527,3.92575 2.247413,4.64145 3.529785,6.65006 1.690769,2.64829 2.868784,5.0401 2.868784,5.82471 0,0.33801 -0.156371,0.61457 -0.34749,0.61457 -0.191122,0 -0.518544,-0.43733 -0.727604,-0.97184 z M 41.441686,193.8866 c 0,-0.0728 -0.05953,-0.13229 -0.132292,-0.13229 -0.07276,0 -0.132292,0.0595 -0.132292,0.13229 0,0.0728 0.05953,0.13229 0.132292,0.13229 0.07276,0 0.132292,-0.0595 0.132292,-0.13229 z m -7.285988,1.43384 c -0.722135,-0.73936 -1.754711,-1.5728 -2.294617,-1.85208 -0.8148,-0.42149 -1.545569,-0.5078 -4.29948,-0.5078 -2.733904,0 -3.317832,-0.068 -3.317832,-0.38668 0,-0.22723 0.436385,-0.50418 1.058334,-0.67165 0.582083,-0.15674 1.058333,-0.40802 1.058333,-0.55841 0,-0.17391 0.50552,-0.21478 1.389062,-0.11229 0.763985,0.0886 1.74625,0.17191 2.182813,0.18507 1.155388,0.0348 2.504675,0.47806 3.651247,1.19938 1.059831,0.66674 2.566461,2.7633 2.566461,3.57138 0,0.26255 -0.153305,0.47737 -0.340675,0.47737 -0.187372,0 -0.931513,-0.60493 -1.653646,-1.34429 z"
         id="path1747"
         inkscape:connector-curvature="0" />
      <path
         style="fill:#eeaaff;stroke-width:0.26458335"
         d="m 25.343879,234.76473 c 0,-0.3638 0.06005,-0.51263 0.133452,-0.33073 0.0734,0.1819 0.0734,0.47956 0,0.66146 -0.0734,0.1819 -0.133452,0.0331 -0.133452,-0.33073 z m 0.53897,-0.13229 c 0.0054,-0.43657 0.06469,-0.58313 0.131774,-0.3257 0.06708,0.25743 0.06267,0.61462 -0.0098,0.79375 -0.07248,0.17913 -0.127363,-0.0315 -0.121971,-0.46805 z m 16.92623,-0.46302 0.04448,-1.12448 0.104116,0.99773 c 0.05726,0.54874 0.215842,0.92867 0.352396,0.84428 0.136557,-0.0844 0.248282,-0.0274 0.248282,0.12675 0,0.15411 -0.178593,0.2802 -0.396875,0.2802 -0.2975,0 -0.385738,-0.28157 -0.352399,-1.12448 z m 8.248909,0.71619 c -0.08617,-0.22456 -0.08243,-0.48253 0.0083,-0.57326 0.09074,-0.0907 0.164978,0.0335 0.164978,0.27599 0,0.24253 0.10418,0.44097 0.231511,0.44097 0.254764,0 0.562239,-1.2721 0.562239,-2.32613 0,-0.36986 0.07393,-0.59855 0.164291,-0.50819 0.09036,0.0904 0.08179,0.82458 -0.01905,1.6316 -0.128191,1.02601 -0.299461,1.46731 -0.569468,1.46731 -0.212379,0 -0.456645,-0.18373 -0.542814,-0.40829 z m -17.266571,-0.38546 c -0.008,-0.21829 0.10087,-0.57547 0.241935,-0.79375 0.312558,-0.48365 0.312558,-0.0659 0,0.66145 -0.149934,0.34892 -0.232343,0.39398 -0.241935,0.1323 z m 0.791991,-0.0337 c -0.01148,-0.23685 0.187471,-0.59403 0.442132,-0.79375 0.402352,-0.31555 0.424341,-0.31113 0.167817,0.0337 -0.162361,0.21828 -0.36132,0.57546 -0.442132,0.79375 -0.122907,0.33198 -0.150344,0.32646 -0.167817,-0.0337 z m 9.047006,-1.02459 c 0,-0.65484 0.0516,-0.92273 0.114663,-0.59531 0.06307,0.32742 0.06307,0.8632 0,1.19062 -0.06306,0.32743 -0.114663,0.0595 -0.114663,-0.59531 z m -36.5274958,-2.3813 c -0.00238,-1.67349 0.079604,-3.34036 0.1821757,-3.70416 0.1025715,-0.36381 0.1437007,0.82682 0.091398,2.64583 -0.052302,1.81901 -0.1342813,3.48588 -0.1821754,3.70417 -0.047894,0.21828 -0.089023,-0.97235 -0.091398,-2.64584 z m 17.9554888,2.4915 c 0.0127,-0.30823 0.07539,-0.37092 0.159853,-0.15986 0.07643,0.191 0.06703,0.4192 -0.02089,0.50712 -0.08792,0.0879 -0.150453,-0.0683 -0.138965,-0.34726 z m 33.663182,-1.30087 c 0.0016,-0.87313 0.05088,-1.19842 0.109765,-0.72287 0.05889,0.47555 0.05767,1.18993 -0.0027,1.5875 -0.06037,0.39758 -0.10855,0.008 -0.107065,-0.86463 z m -0.824156,0.52916 c 0.0054,-0.43656 0.06469,-0.58312 0.131773,-0.32569 0.06708,0.25743 0.06267,0.61462 -0.0098,0.79375 -0.07248,0.17913 -0.127363,-0.0315 -0.12197,-0.46806 z m 5.107794,-0.13229 c -0.100457,-0.45737 -0.127494,-0.88674 -0.06009,-0.95415 0.06741,-0.0674 0.198628,0.25778 0.2916,0.72264 0.09297,0.46486 0.120012,0.89423 0.06009,0.95415 -0.05992,0.0599 -0.191143,-0.26526 -0.2916,-0.72264 z m -28.971875,0.0156 c 0,-0.28245 0.101862,-0.57651 0.226362,-0.65345 0.1245,-0.077 0.170151,0.15415 0.101449,0.51355 -0.0687,0.35941 -0.170566,0.65346 -0.226364,0.65346 -0.0558,0 -0.101447,-0.2311 -0.101447,-0.51355 z m 1.231967,-0.41248 c 0.08863,-0.58209 0.204885,-1.10795 0.258341,-1.16858 0.200414,-0.22732 0.05037,1.18982 -0.179747,1.69774 -0.16709,0.36881 -0.190907,0.20844 -0.07859,-0.52916 z M 17.488432,229.1699 c 0.05017,-2.32559 0.205869,-4.0712 0.389392,-4.36563 0.2695,-0.43236 0.28469,-0.4143 0.12798,0.15217 -0.0978,0.35352 -0.273026,2.31805 -0.389392,4.36563 l -0.211576,3.72286 z m 0.756741,2.02294 c 0.0012,-1.01864 0.049,-1.40294 0.106272,-0.85399 0.05728,0.54895 0.05632,1.38239 -0.0021,1.85208 -0.05845,0.4697 -0.105312,0.0206 -0.104138,-0.99809 z m 6.548651,1.30087 c 0.0127,-0.30822 0.07539,-0.37092 0.159852,-0.15985 0.07643,0.19099 0.06703,0.4192 -0.02089,0.50712 -0.08792,0.0879 -0.150453,-0.0684 -0.138965,-0.34727 z m 39.158334,0 c 0.0127,-0.30822 0.07539,-0.37092 0.159851,-0.15985 0.07643,0.19099 0.06703,0.4192 -0.02088,0.50712 -0.08792,0.0879 -0.150453,-0.0684 -0.138965,-0.34727 z m -56.0511713,-0.6394 c 0,-0.50932 0.05445,-0.71768 0.1210001,-0.46302 0.06655,0.25466 0.06655,0.67138 0,0.92604 -0.06655,0.25466 -0.1210001,0.0463 -0.1210001,-0.46302 z m 17.6865873,0.11025 c 0.0127,-0.30823 0.07539,-0.37092 0.159852,-0.15986 0.07643,0.191 0.06703,0.4192 -0.02089,0.50712 -0.08792,0.0879 -0.150453,-0.0684 -0.138965,-0.34726 z m 18.286942,-0.50712 c 0.0054,-0.43657 0.06469,-0.58313 0.131773,-0.3257 0.06708,0.25743 0.06267,0.61462 -0.0098,0.79375 -0.07248,0.17913 -0.127362,-0.0315 -0.12197,-0.46805 z m -19.32277,-1.32292 c -0.05091,-2.33158 0.156796,-3.12538 1.7654,-6.74687 0.283206,-0.6376 0.287971,-0.63282 0.132066,0.13229 -0.08896,0.43656 -0.243885,0.91281 -0.344282,1.05833 -0.100397,0.14552 -0.406663,0.8599 -0.68059,1.5875 -0.273928,0.7276 -0.573223,2.33495 -0.665101,3.57188 l -0.167051,2.24895 z m 27.473273,1.5875 c 0,-0.0728 0.05953,-0.13229 0.132292,-0.13229 0.07276,0 0.132291,0.0595 0.132291,0.13229 0,0.0728 -0.05953,0.13229 -0.132291,0.13229 -0.07276,0 -0.132292,-0.0595 -0.132292,-0.13229 z m -0.893355,-0.53939 c -0.09074,-0.23646 -0.152792,-0.68808 -0.137896,-1.0036 0.01712,-0.36267 0.106993,-0.23372 0.24433,0.35057 0.231119,0.98328 0.16827,1.36889 -0.106434,0.65303 z m -39.016952,-0.38665 c 0,-0.3638 0.06005,-0.51263 0.133452,-0.33073 0.0734,0.1819 0.0734,0.47956 0,0.66146 -0.0734,0.1819 -0.133452,0.0331 -0.133452,-0.33073 z m 0.529167,0 c 0,-0.3638 0.06005,-0.51263 0.133452,-0.33073 0.0734,0.1819 0.0734,0.47956 0,0.66146 -0.0734,0.1819 -0.133452,0.0331 -0.133452,-0.33073 z m 21.658108,-0.28663 c 0.0021,-0.4972 0.113125,-1.0764 0.246435,-1.28712 0.156805,-0.24786 0.18923,0.0324 0.09184,0.79375 -0.0828,0.64728 -0.193696,1.22648 -0.246436,1.28712 -0.05274,0.0606 -0.09406,-0.29656 -0.09184,-0.79375 z m 8.547301,-0.7717 c 0,-0.94589 0.04802,-1.33284 0.106714,-0.8599 0.05869,0.47294 0.05869,1.24685 0,1.71979 -0.05869,0.47294 -0.106714,0.086 -0.106714,-0.85989 z m 14.641412,0.0917 c -0.106977,-0.89544 -0.466678,-2.45901 -0.799338,-3.47461 -0.332661,-1.0156 -1.289392,-2.90234 -2.126068,-4.19277 -4.358555,-6.72228 -5.320435,-8.28445 -5.888656,-9.56366 -0.341202,-0.76813 -0.612823,-1.54204 -0.603597,-1.71979 0.0092,-0.17775 0.130635,-0.0386 0.269804,0.30929 0.644173,1.61015 1.229558,2.69799 2.507199,4.65919 4.021423,6.17295 5.440818,8.52288 5.917502,9.79694 0.600167,1.60409 1.176001,4.60841 1.021458,5.32929 -0.05709,0.26631 -0.191328,-0.24844 -0.298304,-1.14388 z m 5.022577,0.91096 c -0.08926,-0.3332 -0.151948,-0.84393 -0.139316,-1.13498 0.01262,-0.29104 0.131939,-0.0647 0.265131,0.50296 0.257953,1.09939 0.147719,1.65314 -0.125815,0.63202 z m 1.195184,0.0556 c 0,-0.3638 0.06005,-0.51263 0.133453,-0.33073 0.0734,0.1819 0.0734,0.47956 0,0.66146 -0.0734,0.1819 -0.133453,0.0331 -0.133453,-0.33073 z m -37.83839,-1.04338 c -0.02444,-0.90723 0.216508,-2.25945 0.651051,-3.65373 0.379418,-1.21741 0.737655,-2.16566 0.796081,-2.10724 0.05843,0.0584 -0.14781,0.86917 -0.458302,1.80165 -0.310492,0.93247 -0.651268,2.52884 -0.75728,3.54749 l -0.192749,1.85208 z m 26.046003,-0.96434 c -0.100761,-1.11192 -0.128455,-2.07641 -0.06154,-2.14332 0.06691,-0.0669 0.206663,0.78553 0.310562,1.8943 0.103902,1.10877 0.131596,2.07326 0.06154,2.14331 -0.07005,0.0701 -0.209804,-0.78238 -0.310563,-1.89429 z m -43.7603078,1.08168 c 0.00539,-0.43657 0.06469,-0.58313 0.1317736,-0.3257 0.067083,0.25743 0.062672,0.61462 -0.0098,0.79375 -0.072477,0.17913 -0.127363,-0.0315 -0.1219708,-0.46805 z m 27.5318088,-0.26459 c 0.0029,-0.58208 0.05712,-0.78905 0.120407,-0.45993 0.06329,0.32912 0.06088,0.80537 -0.0053,1.05833 -0.06622,0.25297 -0.118004,-0.0163 -0.115067,-0.5984 z m 22.754167,0 c 0.0029,-0.58208 0.05712,-0.78905 0.120406,-0.45993 0.06329,0.32912 0.06088,0.80537 -0.0053,1.05833 -0.06622,0.25297 -0.118004,-0.0163 -0.115068,-0.5984 z m -46.307422,-0.3968 c 0,-0.50932 0.05445,-0.71768 0.121,-0.46302 0.06655,0.25466 0.06655,0.67138 0,0.92604 -0.06655,0.25466 -0.121,0.0463 -0.121,-0.46302 z m 0.776255,0.39687 c -0.01055,-0.29104 0.139656,-1.30307 0.333798,-2.24895 0.194142,-0.94589 0.361621,-1.48167 0.372174,-1.19063 0.01055,0.29104 -0.139656,1.30307 -0.333798,2.24896 -0.194142,0.94588 -0.361621,1.48167 -0.372174,1.19062 z m 37.945867,-1.47725 c -0.09942,-0.74946 -0.127506,-1.4159 -0.06242,-1.48099 0.06509,-0.0651 0.202316,0.49221 0.30495,1.23845 0.102635,0.74624 0.130723,1.41268 0.06242,1.48099 -0.06831,0.0683 -0.205533,-0.489 -0.304953,-1.23845 z m 12.57808,0.94809 c -0.0218,-0.29104 -0.10091,-0.82683 -0.175787,-1.19063 l -0.136144,-0.66146 0.283406,0.64907 c 0.155874,0.35698 0.234976,0.89276 0.175787,1.19062 -0.104844,0.5276 -0.108641,0.52792 -0.147262,0.0124 z m -1.355336,-0.39688 c 0,-0.19402 0.07937,-0.2734 0.176389,-0.17639 0.09701,0.097 0.09701,0.25577 0,0.35278 -0.09701,0.097 -0.176389,0.0176 -0.176389,-0.17639 z m -57.8065967,-0.9581 c 0.067531,-0.59972 0.3593389,-1.61175 0.6484626,-2.24896 0.2891234,-0.63721 0.528294,-1.00191 0.5314899,-0.81044 0.0032,0.19147 -0.1321667,0.60594 -0.3008061,0.92104 -0.168639,0.31511 -0.4630621,1.17048 -0.654273,1.90084 -0.3322905,1.26922 -0.3422296,1.27972 -0.2248734,0.23752 z m 14.2170697,0.0321 c 0.0029,-0.58208 0.05712,-0.78905 0.120406,-0.45994 0.06329,0.32912 0.06088,0.80537 -0.0053,1.05834 -0.06622,0.25296 -0.118003,-0.0163 -0.115067,-0.5984 z m 25.384857,0.26458 c 0.0054,-0.43656 0.06469,-0.58312 0.131773,-0.32569 0.06708,0.25743 0.06267,0.61462 -0.0098,0.79375 -0.07248,0.17913 -0.127362,-0.0315 -0.12197,-0.46806 z M 3.6676533,227.62098 c 0,-0.50932 0.05445,-0.71768 0.121,-0.46302 0.06655,0.25466 0.06655,0.67138 0,0.92604 -0.06655,0.25466 -0.121,0.0463 -0.121,-0.46302 z m 4.701116,0.69164 c 0,-0.10467 0.1900457,-1.02587 0.4223239,-2.04712 0.232278,-1.02125 0.4727477,-1.80639 0.5343774,-1.74476 0.1198808,0.11988 -0.6583836,3.68386 -0.8452482,3.87073 -0.061299,0.0613 -0.1114531,0.0258 -0.1114531,-0.0788 z m 49.6240747,-0.83863 c -0.09961,-0.53098 -0.128198,-1.01833 -0.06352,-1.08301 0.06468,-0.0647 0.199094,0.31684 0.298704,0.84782 0.09961,0.53098 0.128199,1.01833 0.06352,1.08301 -0.06467,0.0647 -0.199093,-0.31684 -0.298704,-0.84782 z m 3.821758,0.27928 c 0,-0.21828 0.04679,-0.39687 0.103984,-0.39687 0.05719,0 0.172517,0.17859 0.256281,0.39687 0.08376,0.21828 0.03697,0.39688 -0.103984,0.39688 -0.140954,0 -0.256281,-0.1786 -0.256281,-0.39688 z M 34.562519,227.3564 c 0,-0.19403 0.07937,-0.27341 0.17639,-0.17639 0.09701,0.097 0.09701,0.25576 0,0.35278 -0.09701,0.097 -0.17639,0.0176 -0.17639,-0.17639 z m 8.243859,-0.26459 c 0,-0.3638 0.06005,-0.51263 0.133453,-0.33073 0.0734,0.1819 0.0734,0.47956 0,0.66146 -0.0734,0.1819 -0.133453,0.0331 -0.133453,-0.33073 z m 25.492794,0.19844 c -0.06237,-0.1819 -0.341066,-0.92604 -0.619318,-1.65365 -0.824029,-2.15476 -0.895326,-2.42187 -0.43279,-1.6214 0.501428,0.86779 1.482384,3.60578 1.291858,3.60578 -0.06949,0 -0.177377,-0.14883 -0.23975,-0.33073 z m 0.680069,-0.0882 c 0.0127,-0.30823 0.07539,-0.37092 0.159851,-0.15986 0.07643,0.191 0.06703,0.4192 -0.02088,0.50712 -0.08792,0.0879 -0.150452,-0.0683 -0.138964,-0.34726 z m 3.154111,0.15434 c 0,-0.19403 0.07937,-0.27341 0.17639,-0.17639 0.09701,0.097 0.09701,0.25576 0,0.35278 -0.09701,0.097 -0.17639,0.0176 -0.17639,-0.17639 z m -36.427814,-1.5875 c 0,-0.94589 0.04802,-1.33284 0.106714,-0.8599 0.05869,0.47294 0.05869,1.24685 0,1.71979 -0.05869,0.47294 -0.106714,0.086 -0.106714,-0.85989 z m -23.632602,1.05833 c 0,-0.19403 0.07937,-0.2734 0.176389,-0.17639 0.09701,0.097 0.09701,0.25576 0,0.35278 -0.09701,0.097 -0.176389,0.0176 -0.176389,-0.17639 z m 31.634718,-0.18703 c -0.143584,-0.37708 -0.113194,-0.40747 0.148114,-0.14811 0.180821,0.17948 0.262115,0.39297 0.180652,0.47443 -0.08146,0.0815 -0.229407,-0.0654 -0.328766,-0.32632 z m 19.186171,0.27481 c -0.01148,-0.17 -0.08941,-0.52718 -0.17316,-0.79375 -0.14474,-0.46069 -0.137273,-0.46127 0.151019,-0.0117 0.166807,0.26014 0.244729,0.61733 0.173157,0.79375 -0.09392,0.2315 -0.13594,0.23475 -0.151016,0.0117 z m -1.343806,-0.58026 c 0,-0.81714 -3.091106,-6.65134 -4.610494,-8.70191 -1.675551,-2.26132 -2.930485,-4.5943 -3.166602,-5.88686 -0.12795,-0.70041 -0.02925,-0.57148 0.405085,0.52916 0.608399,1.54175 2.228358,4.2748 3.454945,5.82888 0.921758,1.16786 3.222559,5.4725 3.916836,7.32812 0.287083,0.7673 0.40458,1.39509 0.261099,1.39509 -0.143479,0 -0.260869,-0.22161 -0.260869,-0.49248 z m 9.952421,-0.40126 c -0.205385,-0.49156 -0.503999,-0.97444 -0.663585,-1.07307 -0.159587,-0.0986 -0.415677,-0.44059 -0.56909,-0.75991 -0.175387,-0.36506 0.01648,-0.24534 0.516914,0.3225 0.437713,0.49669 0.913587,1.24083 1.057494,1.65365 0.14391,0.41281 0.209913,0.75057 0.146675,0.75057 -0.06324,0 -0.28302,-0.40219 -0.488408,-0.89374 z m 1.088962,0.38578 c -0.115086,-0.44009 -0.08065,-0.54339 0.115686,-0.34706 0.153749,0.15375 0.227486,0.43573 0.163859,0.62661 -0.06605,0.19816 -0.185986,0.0782 -0.279545,-0.27955 z m -64.9989591,0.0601 c -0.00958,-0.17356 0.4037642,-1.60231 0.9185492,-3.175 0.5195551,-1.58727 1.2632769,-3.27144 1.6716479,-3.78548 0.404621,-0.50933 1.02523,-1.46183 1.379131,-2.11667 0.353901,-0.65485 0.706422,-1.25016 0.783379,-1.32292 0.07696,-0.0728 0.5147,-0.96573 0.97276,-1.98437 0.790244,-1.75737 1.217873,-3.0685 1.682744,-5.15938 0.277716,-1.2491 1.014615,-3.14069 1.030727,-2.64583 0.0071,0.21828 -0.163192,0.93265 -0.378442,1.5875 -0.21525,0.65484 -0.746811,2.38125 -1.181246,3.83646 -0.520554,1.74367 -1.296376,3.50288 -2.275316,5.15937 -0.816989,1.38245 -1.713677,2.75818 -1.99264,3.05718 -0.2789627,0.29901 -0.9767046,1.96588 -1.5505377,3.70417 -0.5738331,1.73829 -1.0511735,3.01853 -1.0607564,2.84497 z m 11.1002961,-0.10112 c -0.0029,-0.22917 0.277996,-1.24937 0.624149,-2.2671 0.397676,-1.16922 1.418798,-3.02286 2.773774,-5.03524 1.324456,-1.96704 2.299907,-3.73055 2.551086,-4.61206 0.299465,-1.05098 0.376213,-1.17469 0.291114,-0.46924 -0.194159,1.60953 -1.15414,3.41961 -3.280618,6.18573 -0.743794,0.96753 -1.512056,2.52507 -2.180697,4.42103 -0.425473,1.20646 -0.775936,2.00605 -0.778808,1.77688 z m 49.752748,-0.83839 c -0.392825,-1.32825 -2.217412,-4.92485 -2.868563,-5.65446 -0.250266,-0.28042 -1.048062,-1.28128 -1.772875,-2.22413 -0.724815,-0.94284 -1.528487,-1.94507 -1.785937,-2.22717 -0.257453,-0.2821 -0.468093,-0.60039 -0.468093,-0.70731 0,-0.10691 -0.30824,-0.56071 -0.684977,-1.00844 -0.37674,-0.44772 -0.5851,-0.80905 -0.463021,-0.80293 0.201258,0.0101 1.135721,1.19524 4.917186,6.23637 0.690605,0.92066 1.62832,2.36216 2.083811,3.20333 0.816631,1.50809 1.693611,3.99285 1.483434,4.20303 -0.05935,0.0593 -0.257778,-0.39889 -0.440965,-1.01829 z M 3.912629,225.7689 c 0,-0.36381 0.060053,-0.51263 0.1334521,-0.33073 0.073399,0.1819 0.073399,0.47955 0,0.66145 -0.073399,0.18191 -0.1334521,0.0331 -0.1334521,-0.33072 z m 8.443486,-0.022 c 0.01023,-0.35168 0.126482,-0.87754 0.258343,-1.16858 0.16709,-0.3688 0.190909,-0.20844 0.07859,0.52916 -0.08863,0.58209 -0.204886,1.10795 -0.258342,1.16858 -0.05345,0.0606 -0.08882,-0.17749 -0.0786,-0.52916 z m 30.460068,-0.11026 c 0.0054,-0.43656 0.06469,-0.58312 0.131773,-0.32569 0.06708,0.25743 0.06267,0.61462 -0.0098,0.79375 -0.07248,0.17913 -0.127362,-0.0315 -0.12197,-0.46806 z m 7.399732,-0.0113 c -0.443307,-0.97295 -0.35873,-1.18052 0.120613,-0.29601 0.223842,0.41305 0.357478,0.80051 0.296968,0.86102 -0.06051,0.0605 -0.248423,-0.19374 -0.417581,-0.56501 z m -15.653396,0.14362 c 0,-0.19403 0.07937,-0.27341 0.17639,-0.17639 0.09701,0.097 0.09701,0.25576 0,0.35278 -0.09701,0.097 -0.17639,0.0176 -0.17639,-0.17639 z m 8.995833,0.13229 c 0,-0.0728 0.05953,-0.13229 0.132292,-0.13229 0.07276,0 0.132292,0.0595 0.132292,0.13229 0,0.0728 -0.05953,0.13229 -0.132292,0.13229 -0.07276,0 -0.132292,-0.0595 -0.132292,-0.13229 z m 13.815026,-0.83437 c -0.163174,-0.53166 -0.191574,-0.85909 -0.06312,-0.7276 0.258913,0.265 0.660775,1.69426 0.476374,1.69426 -0.06412,0 -0.250087,-0.435 -0.413258,-0.96666 z m -6.877063,-1.73797 c -0.613069,-1.32721 -1.070957,-2.45682 -1.017529,-2.51025 0.05343,-0.0534 0.35053,0.44322 0.660228,1.10366 0.3097,0.66044 0.816477,1.74116 1.126177,2.4016 0.309698,0.66044 0.514197,1.24969 0.454441,1.30945 -0.05975,0.0598 -0.610246,-0.97725 -1.223317,-2.30446 z m -36.827745,2.00347 c -0.0045,-0.16735 0.431661,-1.35798 0.969189,-2.64583 0.537528,-1.28786 1.878758,-3.71077 2.98051,-5.38426 1.679501,-2.55105 2.145537,-3.51299 2.884148,-5.95313 0.484528,-1.60073 1.197127,-3.74385 1.583552,-4.7625 0.550432,-1.45097 1.0388,-2.18176 2.255013,-3.37434 2.005391,-1.96642 4.754251,-3.3586 6.926379,-3.50791 l 1.575366,-0.10828 -1.50501,0.24256 c -0.827757,0.13341 -2.320314,0.65315 -3.316796,1.15497 -0.996481,0.50182 -2.453851,1.48928 -3.2386,2.19437 -1.026157,0.92198 -1.665294,1.80204 -2.276076,3.13405 -0.467093,1.01865 -0.937432,2.2688 -1.045199,2.77812 -0.256283,1.21123 -1.385169,4.67049 -1.758841,5.38963 -0.16104,0.30992 -1.12589,1.84786 -2.144112,3.41762 -1.018222,1.56977 -2.30808,3.95102 -2.866351,5.29167 -0.558271,1.34065 -1.018698,2.30062 -1.023172,2.13326 z m 48.400866,-0.80247 c -0.45293,-1.39852 -1.375085,-3.19065 -2.728762,-5.30311 -1.415989,-2.20971 -2.936809,-5.06863 -2.779802,-5.22564 0.06418,-0.0642 0.570851,0.74161 1.125937,1.79065 0.555082,1.04905 1.7101,3.03845 2.566701,4.4209 0.856602,1.38244 1.731286,3.10451 1.943741,3.82681 0.212452,0.72231 0.344199,1.35536 0.292769,1.4068 -0.05143,0.0514 -0.240694,-0.36096 -0.420584,-0.91641 z m 9.797346,0.17592 c -0.181922,-0.4392 -0.803349,-1.47318 -1.380948,-2.29773 -1.116367,-1.59367 -3.116305,-5.15057 -3.113013,-5.53652 0.0011,-0.12691 0.521118,0.66222 1.155636,1.75363 0.634519,1.0914 1.764726,2.98564 2.511573,4.20941 1.235748,2.02488 1.539545,2.66975 1.257713,2.66975 -0.0551,0 -0.249039,-0.35934 -0.430961,-0.79854 z m -28.241707,-0.39208 c 0.0029,-0.58209 0.05712,-0.78906 0.120407,-0.45994 0.06329,0.32912 0.06088,0.80537 -0.0053,1.05833 -0.06622,0.25297 -0.118004,-0.0163 -0.115067,-0.59839 z m -39.489639,0.39687 c 0,-0.19402 0.079375,-0.2734 0.1763889,-0.17639 0.097014,0.097 0.097014,0.25577 0,0.35278 -0.097014,0.097 -0.1763889,0.0176 -0.1763889,-0.17639 z m 30.066967,-1.45521 c -0.1006,-1.01864 -0.25545,-2.44739 -0.344115,-3.175 -0.08866,-0.7276 -0.09568,-1.26338 -0.01561,-1.19062 0.206362,0.18749 0.79652,5.45873 0.657632,5.8739 -0.06326,0.1891 -0.197318,-0.48963 -0.297918,-1.50828 z m 8.318505,1.03629 c 0.0127,-0.30823 0.07539,-0.37092 0.159851,-0.15985 0.07643,0.19099 0.06703,0.4192 -0.02088,0.50711 -0.08792,0.0879 -0.150453,-0.0684 -0.138964,-0.34726 z m 6.48766,-1.16725 c -0.396407,-0.72834 -0.658799,-1.32424 -0.583091,-1.32424 0.214193,0 1.562438,2.38988 1.425501,2.52681 -0.06692,0.0669 -0.446001,-0.47424 -0.84241,-1.20257 z m -44.5870595,0.78562 c -0.011819,-0.22202 0.6313093,-1.47218 1.4291741,-2.77812 0.7978648,-1.30595 1.7929026,-3.0293 2.2111954,-3.82966 0.4182928,-0.80037 1.2587187,-2.40771 1.867613,-3.57188 1.253157,-2.39595 2.419866,-5.21755 2.92967,-7.08519 0.18982,-0.6954 0.396668,-1.21282 0.459662,-1.14982 0.06299,0.063 -0.141135,0.98914 -0.453618,2.05811 -0.591685,2.02407 -3.9752071,9.17342 -5.4276556,11.46857 -1.1034402,1.74365 -2.3003554,3.80759 -2.6851467,4.63021 -0.1815965,0.38822 -0.3182818,0.49471 -0.3308942,0.25778 z m 1.8691376,-1.18382 c 0.4700817,-0.87313 1.0516613,-1.88516 1.292399,-2.24896 2.4244449,-3.66382 4.3687869,-7.35494 5.5748959,-10.58334 0.407742,-1.0914 0.747138,-1.8317 0.754214,-1.64511 0.0071,0.1866 -0.361779,1.31075 -0.819677,2.49812 -1.21265,3.14451 -3.2539184,6.93506 -5.9022907,10.96032 -1.69893,2.5822 -1.8072002,2.70484 -0.8995412,1.01897 z m 3.1364565,1.10655 c 0,-0.47687 1.4246304,-3.24328 2.0112414,-3.90551 0.203504,-0.22974 0.370009,-0.48055 0.370009,-0.55735 0,-0.0768 0.585724,-1.15753 1.30161,-2.40163 0.715885,-1.24409 1.594843,-3.07688 1.953239,-4.07286 0.358396,-0.99598 0.927491,-3.04938 1.264656,-4.56311 0.337165,-1.51374 0.655615,-2.62448 0.707666,-2.46833 0.05205,0.15616 -0.275267,1.81138 -0.727376,3.67829 -0.619449,2.5579 -1.185715,4.11157 -2.29791,6.30478 -0.811743,1.60073 -1.797987,3.38667 -2.191656,3.96875 -0.393668,0.58208 -1.092796,1.82149 -1.553619,2.75424 -0.4608233,0.93275 -0.8378604,1.50098 -0.8378604,1.26273 z m 8.7684424,0.0841 c 0,-0.21828 0.102326,-0.635 0.227391,-0.92604 0.143329,-0.33354 0.22739,-0.38245 0.22739,-0.13229 0,0.21828 -0.102325,0.635 -0.22739,0.92604 -0.143329,0.33354 -0.227391,0.38245 -0.227391,0.13229 z m 38.240816,-1.23046 c -0.358224,-0.70569 -1.080603,-1.92012 -1.605288,-2.69873 -0.524684,-0.77861 -0.953971,-1.50817 -0.953971,-1.62125 0,-0.11308 -0.178593,-0.35382 -0.396875,-0.53497 -0.218281,-0.18116 -0.396875,-0.51944 -0.396875,-0.75173 0,-0.23229 0.439952,0.28831 0.977673,1.15688 0.537718,0.86857 1.05074,1.63875 1.140044,1.71151 0.08931,0.0728 0.612709,0.94496 1.163117,1.93821 0.550407,0.99325 0.93836,1.86829 0.862118,1.94454 -0.07625,0.0762 -0.431718,-0.43877 -0.789943,-1.14446 z m -43.569675,0.82771 c 0,-0.076 0.490865,-1.11778 1.090811,-2.3151 0.599946,-1.19732 1.846426,-3.30803 2.769956,-4.69048 1.491432,-2.23255 1.797282,-2.92628 2.7359,-6.20554 0.581214,-2.0306 1.419125,-4.42808 1.862023,-5.32774 0.442899,-0.89965 1.261254,-2.09575 1.818567,-2.658 0.557313,-0.56224 1.717375,-1.37758 2.577915,-1.81186 0.860541,-0.43428 1.743213,-0.92395 1.961495,-1.08816 0.218281,-0.16421 0.813593,-0.3678 1.322916,-0.45243 0.823995,-0.1369 0.853152,-0.12345 0.264584,0.12211 -1.551602,0.64734 -4.422716,2.19319 -5.267246,2.83597 -0.502248,0.38226 -1.347612,1.36647 -1.878588,2.18712 -0.530975,0.82066 -1.16181,2.13035 -1.401855,2.91042 -0.240046,0.78007 -0.83207,2.728 -1.315609,4.32873 -0.715289,2.36793 -1.217833,3.42825 -2.696102,5.68855 -0.999316,1.52796 -2.226888,3.64132 -2.727937,4.69635 -0.817207,1.72074 -1.11683,2.1983 -1.11683,1.78006 z m 28.909211,-1.78354 c -0.308983,-1.04922 -0.517835,-1.95161 -0.464114,-2.00533 0.05372,-0.0537 0.356569,0.75468 0.672994,1.79645 0.316429,1.04176 0.525278,1.94416 0.464114,2.00533 -0.06117,0.0612 -0.364014,-0.74724 -0.672994,-1.79645 z m -14.33448,1.52483 c 0.008,-0.14552 0.116871,-0.5027 0.241936,-0.79375 0.149934,-0.34891 0.232343,-0.39398 0.241935,-0.13229 0.008,0.21828 -0.10087,0.57547 -0.241935,0.79375 -0.141065,0.21828 -0.249936,0.27781 -0.241936,0.13229 z m 7.804608,-1.21267 c -0.09942,-0.74945 -0.127505,-1.4159 -0.06242,-1.48099 0.06509,-0.0651 0.202316,0.49222 0.304951,1.23846 0.102634,0.74623 0.130723,1.41268 0.06242,1.48098 -0.0683,0.0683 -0.205534,-0.489 -0.304954,-1.23845 z m 33.63531,0.22049 c -1.265518,-2.16774 -2.330106,-4.22951 -2.233682,-4.32594 0.05353,-0.0535 0.493565,0.6449 0.977856,1.55207 0.48429,0.90716 1.226142,2.1554 1.648563,2.77387 0.42242,0.61846 0.654566,1.12448 0.515882,1.12448 -0.138684,0 -0.547564,-0.50602 -0.908619,-1.12448 z m -25.814351,-0.63311 c -0.166304,-0.82809 -0.253243,-1.55475 -0.193199,-1.61479 0.06005,-0.06 0.249037,0.56455 0.419984,1.388 0.170947,0.82345 0.257887,1.5501 0.193199,1.61479 -0.06469,0.0647 -0.25368,-0.55991 -0.419984,-1.388 z m 22.364009,-0.29294 c -0.644461,-0.98226 -2.320469,-3.07827 -3.724462,-4.6578 -1.403991,-1.57953 -2.714808,-3.18687 -2.912923,-3.57187 -0.681717,-1.32481 -1.586256,-4.89986 -1.175504,-4.646 0.125262,0.0774 0.229286,0.34209 0.231162,0.58816 0.0058,0.7645 1.041839,3.80337 1.610098,4.72283 0.297524,0.4814 0.800338,1.08704 1.117367,1.34586 0.317026,0.25883 1.289063,1.30258 2.160082,2.31945 0.871016,1.01687 1.650659,1.90838 1.732539,1.98115 0.203475,0.18081 1.095597,1.51144 1.818251,2.71197 1.009592,1.67723 0.384657,1.09815 -0.85661,-0.79375 z m -38.628734,0.33073 c 0.08923,-0.58208 0.204921,-1.10794 0.257085,-1.16857 0.05216,-0.0606 0.09302,0.23702 0.09079,0.66145 -0.0022,0.42444 -0.117916,0.9503 -0.257084,1.16858 -0.172314,0.27027 -0.201277,0.0593 -0.09079,-0.66146 z m -8.11406,0.46302 c 0.0015,-0.42895 1.886044,-3.29342 2.706739,-4.11412 0.679094,-0.67909 1.09312,-1.57538 1.89643,-4.1054 0.565218,-1.78015 1.07565,-3.18865 1.134295,-3.13001 0.05864,0.0587 -0.328181,1.46054 -0.859611,3.11532 -0.893791,2.78311 -1.370566,3.70117 -2.668749,5.13883 -0.510053,0.56486 -0.991278,1.32886 -1.616378,2.56622 -0.360689,0.71396 -0.594073,0.92232 -0.592726,0.52916 z m 9.418643,-1.30074 c 0.09906,-0.41238 0.222901,-0.79939 0.27519,-0.86002 0.05229,-0.0606 0.09507,0.20023 0.09507,0.5797 0,0.37946 -0.123836,0.76647 -0.275188,0.86001 -0.180496,0.11156 -0.213212,-0.0879 -0.09507,-0.57969 z m 18.806774,-0.94821 c -0.957302,-1.52583 -2.408738,-4.67274 -2.235219,-4.84626 0.06023,-0.0602 0.510612,0.80318 1.000847,1.9187 0.490234,1.11552 1.284359,2.5431 1.764724,3.17241 0.480364,0.62932 0.753634,1.14421 0.607266,1.14421 -0.146367,0 -0.658294,-0.62508 -1.137618,-1.38906 z m 2.018236,0.26458 c -0.903563,-1.39656 -2.09495,-3.82289 -2.306026,-4.69635 l -0.159846,-0.66146 0.317948,0.66146 c 0.174873,0.3638 0.59999,1.25677 0.944705,1.98437 0.909264,1.91922 1.293251,2.55659 1.69277,2.80982 0.240564,0.15247 0.253285,0.22609 0.03954,0.22884 -0.173312,0.002 -0.411406,-0.14478 -0.529095,-0.32668 z M 34.99661,219.36324 c -0.08925,-0.33319 -0.149905,-0.96299 -0.134776,-1.39955 0.01897,-0.54775 0.09563,-0.38635 0.247301,0.52078 0.23113,1.38234 0.163613,1.90961 -0.112525,0.87877 z m -7.800648,-0.20893 c 0,-0.3638 0.06005,-0.51263 0.133452,-0.33073 0.0734,0.1819 0.0734,0.47956 0,0.66146 -0.0734,0.1819 -0.133452,0.0331 -0.133452,-0.33073 z m 1.322916,0 c 0,-0.3638 0.06005,-0.51263 0.133453,-0.33073 0.0734,0.1819 0.0734,0.47956 0,0.66146 -0.0734,0.1819 -0.133453,0.0331 -0.133453,-0.33073 z m 13.063918,-2.39007 c -0.534998,-1.62356 -0.927399,-2.99725 -0.872001,-3.05265 0.0554,-0.0554 0.543047,1.22305 1.083668,2.84099 0.54062,1.61793 0.933021,2.99163 0.872003,3.05265 -0.06102,0.061 -0.548669,-1.21743 -1.08367,-2.84099 z m -1.266227,0.86493 c -0.380447,-0.98018 -0.763267,-2.13934 -0.850712,-2.5759 -0.08744,-0.43656 0.263186,0.32605 0.779179,1.69469 0.515993,1.36865 0.898814,2.5278 0.850712,2.5759 -0.0481,0.0481 -0.398732,-0.71451 -0.779179,-1.69469 z m -12.831076,-0.19465 c 0.0029,-0.58208 0.05712,-0.78905 0.120406,-0.45994 0.06329,0.32912 0.06088,0.80537 -0.0053,1.05834 -0.06622,0.25296 -0.118003,-0.0163 -0.115066,-0.5984 z m 1.390675,-0.99219 c 0.101277,-0.76398 0.420053,-2.10344 0.70839,-2.97656 0.43247,-1.30957 0.904156,-1.98124 2.694197,-3.83646 1.193469,-1.23693 2.493727,-2.64566 2.889462,-3.13052 0.395734,-0.48486 0.867828,-0.82168 1.049096,-0.74849 0.252082,0.10178 0.24814,0.13798 -0.01677,0.15396 -0.19049,0.0115 -0.270963,0.14286 -0.17883,0.29193 0.09213,0.14907 -0.265945,1.62371 -0.795729,3.27696 -0.529785,1.65326 -1.070268,3.58512 -1.20107,4.29302 l -0.237826,1.2871 0.118832,-1.45521 c 0.06536,-0.80036 0.537485,-2.68462 1.049171,-4.18724 0.511696,-1.50262 0.930349,-2.85333 0.930349,-3.00159 0,-0.14827 -0.388369,0.18818 -0.863042,0.74765 -0.47467,0.55947 -1.680284,1.83964 -2.679136,2.84482 -0.998855,1.00518 -2.027243,2.31486 -2.285307,2.91042 -0.258064,0.59555 -0.611021,1.94602 -0.784349,3.00105 -0.173329,1.05502 -0.37509,1.91823 -0.448358,1.91823 -0.07327,0 -0.05035,-0.62508 0.05092,-1.38907 z m 4.648907,0.97014 c 0.0127,-0.30822 0.07539,-0.37092 0.15985,-0.15985 0.07643,0.19099 0.06703,0.4192 -0.02087,0.50712 -0.08792,0.0879 -0.150453,-0.0683 -0.138965,-0.34727 z m 32.437988,-0.784 c -0.621552,-1.30341 -0.534109,-1.5252 0.115697,-0.29346 0.295132,0.55943 0.489802,1.06395 0.432601,1.12116 -0.0572,0.0572 -0.303934,-0.31527 -0.548298,-0.8277 z M 34.893825,216.1116 c 0.0029,-0.58208 0.05712,-0.78905 0.120407,-0.45993 0.06329,0.32912 0.06088,0.80537 -0.0053,1.05833 -0.06622,0.25297 -0.118004,-0.0163 -0.115067,-0.5984 z m -1.338059,0 c 0.0054,-0.43656 0.06469,-0.58312 0.131773,-0.32569 0.06708,0.25743 0.06267,0.61462 -0.0098,0.79375 -0.07248,0.17913 -0.127363,-0.0315 -0.12197,-0.46806 z m 18.200143,-1.25677 c -0.468548,-0.9095 -1.016397,-1.84161 -1.217441,-2.07135 -0.201043,-0.22974 -0.365532,-0.50526 -0.365532,-0.61227 0,-0.107 -0.298035,-0.84613 -0.662303,-1.6425 -0.364265,-0.79636 -0.772895,-1.89006 -0.908071,-2.43044 -0.135173,-0.54037 -0.324392,-1.28016 -0.420486,-1.64396 -0.160695,-0.60837 -0.140901,-0.60063 0.246613,0.0964 0.231732,0.41682 0.42133,0.97127 0.42133,1.23211 0,0.26084 0.357188,1.27036 0.79375,2.24338 0.436563,0.97301 0.79375,1.93661 0.79375,2.14133 0,0.20471 0.09719,0.37221 0.215972,0.37221 0.118782,0 0.624797,0.80367 1.124479,1.78594 0.499679,0.98226 1.02757,1.87341 1.173091,1.98032 0.168291,0.12364 0.153977,0.19586 -0.03933,0.19844 -0.167153,0.002 -0.687271,-0.74009 -1.155819,-1.6496 z m 14.439135,-0.39131 c -0.543563,-1.13085 -1.580803,-3.03815 -2.304984,-4.23845 -1.828578,-3.03081 -4.418015,-8.22722 -4.616262,-9.26379 -0.09076,-0.47455 -0.270581,-0.92806 -0.399605,-1.0078 -0.129025,-0.0797 -0.234591,-0.26552 -0.234591,-0.41285 0,-0.14733 0.178594,-0.0893 0.396875,0.12901 0.218282,0.21828 0.396875,0.5741 0.396875,0.79071 0,0.89174 2.154468,5.30541 4.737685,9.70567 1.855766,3.16112 3.315473,6.05041 3.143583,6.2223 -0.0722,0.0722 -0.576016,-0.79395 -1.119576,-1.9248 z m -38.450308,0.98663 c 0,-0.50933 0.05445,-0.71769 0.121002,-0.46303 0.06655,0.25467 0.06655,0.67138 0,0.92605 -0.06655,0.25466 -0.121002,0.0463 -0.121002,-0.46302 z m 36.71466,-2.05719 c -0.492969,-0.9786 -1.215337,-2.25552 -1.605267,-2.83761 -0.965464,-1.44124 -1.925942,-3.0977 -3.030043,-5.22568 -1.316222,-2.53681 -2.246222,-4.69619 -2.022549,-4.69619 0.10513,0 0.533681,0.80367 0.952334,1.78594 0.881192,2.06749 3.456265,6.83148 4.111678,7.60677 0.557074,0.65896 2.739323,4.89688 2.595586,5.04062 -0.05799,0.058 -0.508773,-0.69524 -1.001739,-1.67385 z m -29.337286,1.26343 c 0.01228,-0.21828 0.11765,-0.69453 0.234159,-1.05833 l 0.211836,-0.66146 0.02233,0.66146 c 0.01228,0.3638 -0.09309,0.84005 -0.234159,1.05833 -0.227983,0.35278 -0.254,0.35278 -0.234159,0 z m 8.759841,-1.5467 c -0.323501,-0.83429 -0.588182,-1.70557 -0.588182,-1.9362 0,-0.23062 -0.173313,-0.91053 -0.385138,-1.51091 -0.211825,-0.60038 -0.2809,-1.0916 -0.153498,-1.0916 0.1274,0 0.421807,0.8361 0.654233,1.85801 0.232425,1.0219 0.61406,2.33653 0.848076,2.92139 0.234016,0.58486 0.377606,1.11126 0.319088,1.16978 -0.05852,0.0585 -0.371081,-0.57619 -0.694579,-1.41047 z m 1.832713,0.75295 c -0.152185,-0.43656 -0.232084,-0.79375 -0.177551,-0.79375 0.05453,0 0.277339,0.35719 0.495123,0.79375 0.217786,0.43657 0.297685,0.79375 0.177554,0.79375 -0.120132,0 -0.342937,-0.35718 -0.495126,-0.79375 z m -17.766728,0.39688 c 0,-0.0728 0.05953,-0.13229 0.132292,-0.13229 0.07276,0 0.132291,0.0595 0.132291,0.13229 0,0.0728 -0.05953,0.13229 -0.132291,0.13229 -0.07276,0 -0.132292,-0.0595 -0.132292,-0.13229 z m 11.011789,-1.18505 c -0.09415,-0.58876 -0.226269,-1.99174 -0.293606,-3.11772 -0.100012,-1.67239 -0.05139,-1.49367 0.265531,0.97613 0.213378,1.66286 0.345501,3.06583 0.293605,3.11772 -0.05189,0.0519 -0.171384,-0.38736 -0.26553,-0.97613 z m -10.775275,0.20798 c 0.129201,-0.33573 0.540295,-1.29795 0.91354,-2.13825 0.508317,-1.14439 1.366416,-2.21727 3.419271,-4.27511 2.048703,-2.05367 2.822546,-3.02065 3.065031,-3.82999 0.375915,-1.2547 1.111978,-1.49886 1.07052,-0.3551 l -0.02638,0.7276 -0.20179,-0.66146 c -0.189068,-0.61975 -0.213989,-0.62809 -0.395303,-0.13229 -0.106431,0.29104 -0.304943,0.82683 -0.441137,1.19063 -0.258141,0.68954 -1.703314,2.29307 -3.696041,4.10104 -0.641567,0.58208 -1.479929,1.53458 -1.863027,2.11667 -0.383095,0.58208 -0.906687,1.62776 -1.163534,2.32374 -0.256847,0.69598 -0.568037,1.32786 -0.691534,1.40418 -0.123494,0.0763 -0.118827,-0.13592 0.01037,-0.47166 z m 27.809319,0.051 c 0,-0.19403 0.07937,-0.2734 0.17639,-0.17639 0.09701,0.097 0.09701,0.25576 0,0.35278 -0.09701,0.097 -0.17639,0.0176 -0.17639,-0.17639 z m -15.415051,-0.18084 c -0.06721,-0.11882 -0.203851,-0.57322 -0.303641,-1.00979 -0.09979,-0.43656 -0.250105,-1.03187 -0.334034,-1.32291 -0.08393,-0.29105 -0.05266,-0.43411 0.06948,-0.31791 0.238604,0.22697 0.909733,2.64374 0.772806,2.78291 -0.04532,0.0461 -0.137398,-0.0135 -0.204613,-0.1323 z m -5.199801,-0.48062 c 0.008,-0.14552 0.11687,-0.50271 0.241935,-0.79375 0.149935,-0.34892 0.232344,-0.39398 0.241935,-0.13229 0.008,0.21828 -0.100869,0.57547 -0.241935,0.79375 -0.141065,0.21828 -0.249936,0.27781 -0.241935,0.13229 z m 9.834838,-0.19844 c -0.274714,-0.34747 -0.63382,-1.91088 -0.380801,-1.65786 0.165356,0.16535 0.817226,1.98859 0.710993,1.98859 -0.0378,0 -0.18638,-0.14883 -0.330192,-0.33073 z m 9.979139,-0.79375 c -0.280731,-0.61846 -0.513035,-1.35415 -0.516231,-1.63486 -0.0032,-0.28071 -0.12328,-0.87602 -0.266851,-1.32291 -0.143574,-0.4469 -0.681911,-2.20659 -1.196308,-3.91044 -0.896853,-2.97066 -0.989428,-3.14356 -2.253954,-4.20983 -0.725279,-0.61156 -1.266336,-1.16428 -1.202349,-1.22827 0.06399,-0.064 0.273,0.0129 0.464474,0.17094 0.191476,0.15801 0.713642,0.57928 1.16037,0.93615 0.446727,0.35687 1.004022,1.10281 1.238432,1.65764 0.234413,0.55482 0.737516,2.08033 1.118008,3.39002 0.380492,1.30969 0.805463,2.74689 0.944377,3.19379 0.138917,0.44689 0.252574,1.00257 0.252574,1.23483 0,0.23227 0.233894,0.96795 0.519763,1.63486 0.285872,0.66691 0.458645,1.21256 0.38394,1.21256 -0.0747,0 -0.365514,-0.50601 -0.646245,-1.12448 z m -30.035129,-0.19844 c 0.246912,-1.54374 1.628959,-4.02046 3.069476,-5.50068 1.011568,-1.03945 2.069586,-1.74089 4.11131,-2.72571 2.512171,-1.21173 3.282301,-1.82327 3.282301,-2.60639 0,-0.15633 -0.634706,0.074 -1.410456,0.51177 -0.775751,0.43781 -1.519891,0.79047 -1.653646,0.7837 -0.133755,-0.007 0.292592,-0.30563 0.947436,-0.66411 0.654844,-0.35849 1.393274,-0.79522 1.640956,-0.97051 0.247682,-0.1753 0.533379,-0.23567 0.634884,-0.13417 0.278474,0.27847 -0.239755,1.82901 -0.690332,2.06547 -0.217186,0.11398 -1.557301,0.75975 -2.978034,1.43506 -2.27067,1.07929 -2.774773,1.45046 -4.167188,3.06828 -0.87122,1.01226 -1.584036,1.87644 -1.584036,1.9204 0,0.044 -0.303927,0.90411 -0.675392,1.91144 -0.418596,1.13513 -0.619077,1.4794 -0.527279,0.90545 z m 34.343509,-0.59531 c -0.816391,-2.16952 -1.18541,-3.40248 -1.056834,-3.53105 0.0649,-0.0649 0.386033,0.74769 0.713627,1.80574 0.327596,1.05806 0.764421,2.19164 0.970724,2.51906 0.206301,0.32742 0.267116,0.59531 0.135141,0.59531 -0.131974,0 -0.47517,-0.62507 -0.762658,-1.38906 z m -23.59319,0.19844 c 0.008,-0.14552 0.116869,-0.50271 0.241935,-0.79375 0.149934,-0.34892 0.232344,-0.39398 0.241935,-0.13229 0.008,0.21828 -0.10087,0.57547 -0.241935,0.79375 -0.141065,0.21828 -0.249936,0.27781 -0.241935,0.13229 z m 17.481627,-0.92604 c 0,-0.3638 0.06005,-0.51263 0.133453,-0.33073 0.0734,0.1819 0.0734,0.47956 0,0.66146 -0.0734,0.1819 -0.133453,0.0331 -0.133453,-0.33073 z M 24.526786,210.287 c -0.0394,-0.57345 1.004225,-3.01625 1.822811,-4.26665 0.472953,-0.72245 1.285361,-1.60497 1.805351,-1.96116 0.519989,-0.35619 1.073087,-0.76697 1.229106,-0.91284 0.15602,-0.14587 0.710483,-0.48977 1.232141,-0.76423 0.521655,-0.27445 1.116968,-0.43239 1.322917,-0.35097 0.268285,0.10605 0.237553,0.15394 -0.108387,0.16891 -0.265562,0.0115 -1.284689,0.5396 -2.264732,1.17359 -1.039935,0.67273 -2.181769,1.69744 -2.74223,2.46094 -0.528184,0.71953 -1.256931,2.07605 -1.619439,3.01448 -0.362508,0.93844 -0.6674,1.58551 -0.677538,1.43793 z m 19.990295,-0.27107 c -0.09074,-0.23646 -0.157433,-0.56902 -0.148207,-0.73902 0.0092,-0.17 0.130845,-0.0239 0.270267,0.32464 0.139422,0.34855 0.206116,0.6811 0.148206,0.73901 -0.05791,0.0579 -0.17953,-0.0882 -0.270266,-0.32463 z m 3.274605,-0.0624 c 0,-0.30671 -0.119063,-0.63124 -0.264584,-0.72117 -0.14552,-0.0899 -0.264583,-0.40717 -0.264583,-0.70496 0,-0.29779 -0.296058,-1.51115 -0.657908,-2.69637 -0.375525,-1.23 -0.94697,-2.46618 -1.331383,-2.88011 -0.370411,-0.39886 -1.026853,-0.90793 -1.458759,-1.13128 -0.431906,-0.22334 -0.785283,-0.46497 -0.785283,-0.53695 0,-0.072 0.464994,0.10634 1.033322,0.39628 0.568328,0.28994 1.278935,0.83941 1.579126,1.22104 0.300191,0.38163 0.849143,1.7244 1.219893,2.98394 0.37075,1.25954 0.81049,2.73715 0.977199,3.28358 0.166711,0.54642 0.224324,1.07228 0.128035,1.16857 -0.09629,0.0963 -0.175075,-0.0759 -0.175075,-0.38257 z m -7.964342,-0.12586 c -0.01476,-0.1819 -0.06843,-0.79119 -0.119256,-1.35398 -0.05083,-0.56279 -0.01712,-0.94795 0.07492,-0.85592 0.192416,0.19242 0.36725,2.54063 0.189159,2.54063 -0.06489,0 -0.130056,-0.14883 -0.14482,-0.33073 z m -3.392236,-0.36361 c -0.01127,-0.16361 0.16692,-0.81845 0.395996,-1.45521 0.268499,-0.74635 0.363154,-1.58083 0.266372,-2.34837 -0.104005,-0.82484 -0.07064,-1.0687 0.108614,-0.79375 0.391938,0.60118 0.282128,2.0964 -0.262321,3.57188 -0.268486,0.7276 -0.497382,1.18906 -0.508661,1.02545 z m 16.669133,-0.51833 c 0.0127,-0.30823 0.07539,-0.37092 0.159851,-0.15986 0.07643,0.191 0.06703,0.4192 -0.02088,0.50712 -0.08792,0.0879 -0.150452,-0.0684 -0.138964,-0.34726 z m -10.516028,-0.8158 c 0.09701,-0.097 0.255764,-0.097 0.352779,0 0.09701,0.097 0.01764,0.17638 -0.17639,0.17638 -0.194026,0 -0.273401,-0.0794 -0.176389,-0.17638 z m 9.97681,-1.34334 c -0.186275,-0.83764 -0.631589,-2.10329 -0.989587,-2.81255 -0.357999,-0.70927 -1.087905,-1.69096 -1.622014,-2.18155 -0.534112,-0.49059 -1.055061,-0.89255 -1.157669,-0.89324 -0.102605,-8e-4 -0.965808,-0.3735 -1.918229,-0.82844 -0.952418,-0.45495 -1.731672,-0.99073 -1.731672,-1.19063 0,-0.19989 0.12609,-0.36345 0.280199,-0.36345 0.15411,0 0.207717,0.11728 0.119129,0.26061 -0.08859,0.14334 0.827122,0.7371 2.034908,1.31946 1.207786,0.58237 2.521162,1.36081 2.918616,1.72987 0.397452,0.36907 1.005282,1.29336 1.35073,2.05398 0.656055,1.44454 1.380246,4.10295 1.173911,4.30929 -0.0658,0.0658 -0.272047,-0.56571 -0.458322,-1.40335 z m 4.487079,1.12285 c 0,-0.0728 0.05953,-0.13229 0.132292,-0.13229 0.07276,0 0.132292,0.0595 0.132292,0.13229 0,0.0728 -0.05953,0.13229 -0.132292,0.13229 -0.07276,0 -0.132292,-0.0595 -0.132292,-0.13229 z m -43.111716,-0.39688 c -0.002,-0.21828 0.451491,-1.67038 1.007863,-3.2269 0.556372,-1.55652 1.416955,-3.50497 1.912407,-4.3299 0.495452,-0.82493 1.377072,-1.88778 1.959155,-2.3619 1.027589,-0.837 3.334831,-1.99674 3.936237,-1.97857 0.163403,0.005 -0.179154,0.23902 -0.761237,0.52019 -0.582083,0.28117 -1.142343,0.51525 -1.245021,0.52019 -0.102678,0.005 -0.628449,0.30876 -1.168379,0.67517 -0.539931,0.36641 -1.500643,1.41166 -2.134916,2.32279 -0.634274,0.91112 -1.44016,2.48657 -1.79086,3.50099 -1.166753,3.37491 -1.711487,4.75892 -1.715249,4.35794 z m 24.393022,-0.66145 c 0.0029,-0.58209 0.05712,-0.78906 0.120407,-0.45994 0.06329,0.32912 0.06088,0.80537 -0.0053,1.05833 -0.06622,0.25297 -0.118004,-0.0163 -0.115067,-0.59839 z m 3.892455,-0.43243 c -0.3249,-1.20659 -1.449197,-3.07902 -2.172094,-3.61747 -0.255291,-0.19015 -0.464167,-0.48032 -0.464167,-0.64482 0,-0.52987 1.503657,1.12245 2.183025,2.39887 0.605313,1.13728 1.136597,2.9573 0.863266,2.9573 -0.06351,0 -0.248025,-0.49224 -0.41003,-1.09388 z m 1.7755,0.63086 c -0.06456,-0.10914 -0.200377,-0.70006 -0.301808,-1.31317 -0.105246,-0.63615 -0.56493,-1.61307 -1.070731,-2.27549 -0.487471,-0.63843 -1.255472,-1.31368 -1.706666,-1.50057 -0.451197,-0.18689 -0.768546,-0.39162 -0.705221,-0.45494 0.06333,-0.0633 0.573159,0.11939 1.132962,0.40603 1.006197,0.51521 1.924391,1.53161 2.311265,2.55846 0.240213,0.63758 0.656363,2.77812 0.540102,2.77812 -0.04538,0 -0.13534,-0.0893 -0.199903,-0.19844 z m 12.921678,-1.10099 c -0.0983,-0.71469 -0.615484,-2.17321 -1.149307,-3.24115 -0.842468,-1.6854 -1.192044,-2.09014 -2.648233,-3.06619 -0.922703,-0.61846 -1.606881,-1.12448 -1.520394,-1.12448 0.08648,0 0.6033,0.23822 1.148474,0.52937 1.627407,0.86913 2.880582,2.28425 3.588224,4.05191 0.630406,1.57472 1.18732,4.14997 0.897458,4.14997 -0.07563,0 -0.217929,-0.58474 -0.316222,-1.29943 z m -17.4665,0.0697 c -0.09195,-0.56058 -0.23468,-1.37637 -0.317175,-1.81289 -0.18044,-0.95477 -1.16528,-3.0428 -1.435168,-3.0428 -0.105855,0 -0.246912,0.20836 -0.31346,0.46303 -0.09106,0.34843 -0.128598,0.31569 -0.151694,-0.1323 -0.02114,-0.41008 0.118809,-0.59531 0.449789,-0.59531 0.331026,0 0.662236,0.43852 1.064816,1.40982 0.561893,1.35567 1.206008,4.39374 0.979548,4.6202 -0.06021,0.0602 -0.184705,-0.34918 -0.276656,-0.90975 z m 18.69567,0.43598 c 0,-0.3638 0.06005,-0.51263 0.133453,-0.33073 0.0734,0.1819 0.0734,0.47956 0,0.66146 -0.0734,0.1819 -0.133453,0.0331 -0.133453,-0.33073 z m -42.096372,-0.98457 c -0.0078,-0.17771 0.344708,-1.30641 0.783316,-2.50823 0.606896,-1.66293 1.096916,-2.49475 2.050521,-3.48081 0.849455,-0.87835 1.957662,-1.62574 3.440663,-2.32041 1.275892,-0.59766 2.543985,-1.01093 3.042708,-0.99161 0.808704,0.0313 0.797677,0.043 -0.203236,0.2144 -0.582083,0.0997 -1.982007,0.62934 -3.110942,1.17697 -2.725226,1.32197 -4.007459,2.79592 -5.143134,5.91214 -0.465158,1.27637 -0.852111,2.17526 -0.859896,1.99755 z m 22.210847,0.0585 c 0,-0.0728 0.05953,-0.13229 0.132291,-0.13229 0.07276,0 0.132292,0.0595 0.132292,0.13229 0,0.0728 -0.05953,0.13229 -0.132292,0.13229 -0.07276,0 -0.132291,-0.0595 -0.132291,-0.13229 z m 19.623643,-0.72528 c -0.06571,-1.46235 -1.580176,-4.70103 -2.6083,-5.57784 -0.481668,-0.41078 -0.87576,-0.86959 -0.87576,-1.01959 0,-0.15 0.446484,0.11613 0.992188,0.59141 0.700354,0.60996 1.248674,1.49309 1.864201,3.00247 0.585353,1.43539 0.839163,2.44325 0.77208,3.06587 l -0.09993,0.92754 z m -40.615771,-0.0685 c 0.245717,-1.21539 0.74096,-2.27293 1.630922,-3.48267 0.832726,-1.13193 2.912943,-2.73895 3.533877,-2.73001 0.192062,0.003 -0.18957,0.3435 -0.848071,0.7572 -0.658501,0.4137 -1.589206,1.19857 -2.068234,1.74415 -0.778878,0.88709 -1.143216,1.54577 -2.12605,3.84362 -0.269874,0.63096 -0.275519,0.62487 -0.122444,-0.13229 z m 18.823441,0.49127 c -0.06499,-0.12468 -0.04444,-0.58387 0.04567,-1.02044 l 0.163833,-0.79375 0.145883,0.7105 c 0.144121,0.70193 -0.126579,1.54262 -0.355386,1.10369 z m -22.702146,-0.35898 c 0,-0.19403 0.07937,-0.2734 0.176389,-0.17639 0.09701,0.097 0.09701,0.25577 0,0.35278 -0.09701,0.097 -0.176389,0.0176 -0.176389,-0.17639 z m 24.648025,-0.26458 c 0,-0.3638 0.06005,-0.51263 0.133453,-0.33073 0.0734,0.1819 0.0734,0.47956 0,0.66146 -0.0734,0.1819 -0.133453,0.0331 -0.133453,-0.33073 z m 9.393838,-0.90033 c -0.297598,-0.94408 -0.818719,-1.79761 -1.534655,-2.51354 -0.596225,-0.59623 -0.967214,-1.08405 -0.824415,-1.08405 0.415025,0 1.666179,1.36581 2.178182,2.37778 0.460663,0.91051 0.944039,2.6493 0.736491,2.6493 -0.05775,0 -0.307771,-0.64327 -0.555603,-1.42949 z m -33.666198,0.23887 c 0.713696,-2.89498 0.948467,-3.57639 1.540643,-4.47166 0.681484,-1.03028 2.963939,-3.36316 3.789916,-3.87364 0.930804,-0.57527 4.097946,-1.73782 3.679285,-1.35054 -0.141562,0.13095 -0.884901,0.44169 -1.651865,0.69055 -0.766965,0.24885 -1.95759,0.90184 -2.645834,1.45109 -0.688244,0.54925 -1.60854,1.49527 -2.045102,2.10226 -0.436563,0.607 -1.002109,1.35608 -1.256771,1.66462 -0.254661,0.30855 -0.469673,0.8702 -0.477804,1.24812 -0.0081,0.37791 -0.250614,1.2229 -0.538853,1.87774 -0.288238,0.65485 -0.465365,0.9525 -0.393615,0.66146 z m 23.98689,-0.30909 c -0.01148,-0.17 -0.08941,-0.52719 -0.173159,-0.79375 -0.144741,-0.4607 -0.137274,-0.46127 0.151019,-0.0117 0.166806,0.26015 0.244729,0.61733 0.173156,0.79375 -0.09392,0.23151 -0.13594,0.23476 -0.151016,0.0117 z m 3.219762,-3.32295 c -0.763712,-0.46966 -1.388568,-0.99841 -1.388568,-1.17501 0,-0.1766 0.130194,-0.40156 0.289322,-0.4999 0.353187,-0.21829 3.295957,0.38131 4.208595,0.85751 0.392636,0.20487 0.494789,0.3458 0.251354,0.34677 -0.225557,7.9e-4 -0.523213,-0.10065 -0.661458,-0.22566 -0.138245,-0.12501 -0.955821,-0.36314 -1.816836,-0.52917 -0.861015,-0.16603 -1.664686,-0.30188 -1.785937,-0.30188 -0.121251,0 -0.220456,0.11805 -0.220456,0.26233 0,0.14427 0.654844,0.63189 1.455208,1.08359 0.800365,0.45169 1.455208,0.86943 1.455208,0.9283 0,0.25577 -0.487312,0.052 -1.786432,-0.74688 z m 16.445542,-0.2453 c -0.116967,-0.18926 -0.07258,-0.23364 0.116676,-0.11668 0.168005,0.10384 0.305464,0.2413 0.305464,0.30547 0,0.2207 -0.23364,0.11621 -0.42214,-0.18879 z m -24.233719,-0.66902 c 0.190995,-0.0764 0.419198,-0.067 0.507119,0.0209 0.08792,0.0879 -0.06835,0.15045 -0.347266,0.13897 -0.308226,-0.0127 -0.370919,-0.0754 -0.159853,-0.15986 z m 23.549396,-0.67367 c -0.337331,-0.46993 -0.733732,-1.09064 -0.880893,-1.37937 -0.147162,-0.28873 -0.889217,-0.88651 -1.649013,-1.32841 -1.417638,-0.82449 -1.91239,-1.42666 -0.729256,-0.88759 0.363802,0.16576 0.661459,0.40133 0.661459,0.5235 0,0.12216 0.169315,0.22211 0.376258,0.22211 0.206942,0 0.772488,0.46534 1.256771,1.03409 0.910887,1.06976 1.934123,2.67007 1.707237,2.67007 -0.07108,0 -0.40523,-0.38448 -0.742563,-0.8544 z m -9.309682,0.17296 c -0.708409,-0.19316 -1.363253,-0.43041 -1.455209,-0.52724 -0.217916,-0.22946 1.405295,0.12124 2.601458,0.56205 1.197485,0.4413 0.525057,0.42088 -1.146249,-0.0348 z m -15.38073,-0.11231 -1.587499,-0.17562 1.505738,-0.0445 c 0.828156,-0.0245 1.579324,0.0746 1.669261,0.2201 0.08994,0.14553 0.126731,0.24457 0.08176,0.22011 -0.04497,-0.0245 -0.796137,-0.12351 -1.669262,-0.22011 z m 26.182871,-0.0176 c -0.09592,-0.1552 -0.117655,-0.33893 -0.0483,-0.40829 0.06935,-0.0694 0.196601,0.0576 0.282773,0.28219 0.178906,0.46622 0.02643,0.54823 -0.234473,0.1261 z m -35.202556,-0.47297 c 0.09609,-0.15547 0.593091,-0.36117 1.104449,-0.4571 0.511359,-0.0959 1.102495,-0.34717 1.313636,-0.55831 0.23223,-0.23225 0.383892,-0.26658 0.383892,-0.0869 0,0.2811 -0.955671,0.76648 -2.348237,1.19267 -0.419231,0.1283 -0.570285,0.0982 -0.45374,-0.0904 z m 26.748862,-0.24409 c -0.874456,-0.45724 -3.20774,-0.54988 -6.616677,-0.26272 l -2.116666,0.1783 1.852083,-0.29454 c 1.018646,-0.162 2.804583,-0.29753 3.96875,-0.30119 1.607167,-0.005 2.403261,0.12722 3.307292,0.5495 0.654843,0.30587 1.012031,0.55354 0.79375,0.55037 -0.218282,-0.003 -0.753121,-0.19205 -1.188532,-0.41972 z m 3.172907,-0.4825 c -0.291042,-0.22362 -0.706768,-0.50856 -0.923838,-0.6332 -0.217069,-0.12464 -0.330909,-0.29038 -0.252979,-0.36831 0.07793,-0.0779 0.672251,0.21028 1.320713,0.64048 0.648462,0.43019 1.000427,0.77889 0.782145,0.77489 -0.218281,-0.004 -0.635,-0.19025 -0.926041,-0.41386 z m 4.355182,-0.86515 c -0.317035,-0.73696 -0.771803,-1.40764 -1.010595,-1.49039 -0.591791,-0.20507 -2.33699,-1.71897 -1.98161,-1.71897 0.156559,0 0.568783,0.28011 0.916048,0.62248 0.347266,0.34236 0.884394,0.7553 1.193618,0.91764 0.309226,0.16234 0.822002,0.84781 1.139502,1.52326 0.3175,0.67546 0.519266,1.28611 0.448368,1.35701 -0.0709,0.0709 -0.3883,-0.47407 -0.705331,-1.21103 z M 27.484915,197.264 c 0.691224,-0.0545 1.822318,-0.0545 2.513542,0 0.691224,0.0545 0.125677,0.0991 -1.256771,0.0991 -1.382448,0 -1.947995,-0.0446 -1.256771,-0.0991 z m 13.692187,-0.33469 c 0,-0.14552 0.12609,-0.26458 0.280199,-0.26458 0.15411,0 0.206614,0.11906 0.116676,0.26458 -0.08994,0.14552 -0.216027,0.26458 -0.280199,0.26458 -0.06417,0 -0.116676,-0.11906 -0.116676,-0.26458 z m -10.495139,-0.17639 c 0.09701,-0.097 0.255765,-0.097 0.352779,0 0.09701,0.097 0.01764,0.17639 -0.176389,0.17639 -0.194027,0 -0.273402,-0.0794 -0.17639,-0.17639 z m -0.79375,-0.26458 c 0.09701,-0.097 0.255765,-0.097 0.352779,0 0.09701,0.097 0.01764,0.17639 -0.176389,0.17639 -0.194027,0 -0.273402,-0.0794 -0.17639,-0.17639 z m 4.267485,-1.16729 c -0.722135,-0.73902 -1.670158,-1.5419 -2.106721,-1.78418 -0.471569,-0.26172 -1.706594,-0.50325 -3.042708,-0.59508 l -2.248958,-0.15455 2.269744,-0.0456 c 2.132224,-0.0429 2.344727,0.004 3.507401,0.77416 0.680715,0.45089 1.652895,1.3049 2.160402,1.89781 0.507508,0.59291 1.007547,0.99321 1.111203,0.88955 0.319,-0.319 -0.766694,-2.02073 -1.958533,-3.06983 -0.622475,-0.54793 -1.672167,-1.14753 -2.332646,-1.33245 -0.66048,-0.18493 -1.145903,-0.39119 -1.07872,-0.45838 0.201017,-0.20101 2.070473,0.49601 3.147396,1.17351 1.059831,0.66674 2.566461,2.7633 2.566461,3.57138 0,0.26255 -0.153305,0.47737 -0.340675,0.47737 -0.187372,0 -0.931513,-0.60465 -1.653646,-1.34368 z m 7.947446,1.07909 c 0.08994,-0.14552 0.364855,-0.26276 0.610928,-0.26053 0.38557,0.003 0.392555,0.0395 0.05053,0.26053 -0.518152,0.33486 -0.86841,0.33486 -0.661458,0 z m 7.9375,0 c -0.674216,-0.28972 0.02138,-0.28972 0.926042,0 0.531741,0.1703 0.557686,0.21336 0.132291,0.21962 -0.291041,0.004 -0.767291,-0.0946 -1.058333,-0.21962 z m -23.081258,-0.18986 c 0.402183,-0.0608 0.997495,-0.0592 1.322917,0.004 0.325422,0.0628 -0.0037,0.11256 -0.731242,0.11058 -0.727604,-0.002 -0.993858,-0.0534 -0.591675,-0.11419 z m 16.797404,-0.24995 c 0.181901,-0.0734 0.330729,-0.30212 0.330729,-0.50827 0,-0.20616 0.208359,-0.37301 0.463021,-0.37078 0.366199,0.003 0.386773,0.0523 0.09839,0.235 -0.200543,0.12703 -0.282813,0.36332 -0.182822,0.52512 0.114364,0.18504 -0.04482,0.28641 -0.429122,0.27327 -0.33601,-0.0115 -0.4621,-0.0809 -0.280199,-0.15434 z m 5.181423,-0.001 c 0.09701,-0.097 0.255764,-0.097 0.352779,0 0.09701,0.0969 0.01764,0.17629 -0.17639,0.17629 -0.194026,0 -0.273401,-0.0794 -0.176389,-0.17639 z m -9.348611,-0.43225 c 0,-0.18918 0.148829,-0.50303 0.33073,-0.69745 0.272438,-0.2912 0.214151,-0.31898 -0.33073,-0.15763 -0.363802,0.10773 -1.020656,0.25278 -1.459674,0.32233 -0.70767,0.11211 -1.027626,-0.10073 -2.820517,-1.87627 -1.112266,-1.10149 -1.765098,-1.87327 -1.450742,-1.71507 0.314357,0.15821 1.267365,1.01988 2.117794,1.91483 1.434634,1.50973 1.534599,1.56989 1.385006,0.83343 -0.150251,-0.73969 -0.134577,-0.75967 0.230159,-0.29321 0.215265,0.2753 0.433057,0.62553 0.483978,0.7783 0.0562,0.1686 0.761857,0.005 1.795479,-0.41729 0.93659,-0.38228 2.238674,-0.86667 2.893517,-1.07641 1.186419,-0.38001 1.187937,-0.38207 0.429898,-0.58327 -0.687509,-0.18248 -2.050343,0.0197 -3.472606,0.51518 -0.291042,0.10138 -0.171979,-0.025 0.264583,-0.28083 0.998437,-0.58512 3.746381,-0.66984 4.083188,-0.12589 0.140544,0.22699 0.456697,0.30894 0.822635,0.21324 0.3269,-0.0855 0.487915,-0.063 0.357811,0.05 -0.130103,0.113 -0.831863,0.33582 -1.559467,0.49514 -1.408755,0.30849 -3.836458,1.53502 -3.836458,1.93826 0,0.13308 0.03389,0.24196 0.07532,0.24196 0.04142,0 0.726033,-0.2253 1.521354,-0.50067 0.795322,-0.27537 1.862757,-0.57434 2.37208,-0.66438 0.509323,-0.09 -0.08599,0.18807 -1.322917,0.61801 -1.236927,0.42994 -2.397786,0.78844 -2.579687,0.79667 -0.181901,0.008 -0.33073,-0.13982 -0.33073,-0.329 z m 1.188752,-1.24051 c 0.09269,-0.14998 -0.01352,-0.19434 -0.248967,-0.10399 -0.45837,0.1759 -0.542235,0.36554 -0.16165,0.36554 0.136932,0 0.321712,-0.1177 0.410617,-0.26155 z m 0.663332,-0.39991 c 0,-0.0728 -0.05953,-0.13229 -0.132292,-0.13229 -0.07276,0 -0.132292,0.0595 -0.132292,0.13229 0,0.0728 0.05953,0.13229 0.132292,0.13229 0.07276,0 0.132292,-0.0595 0.132292,-0.13229 z m 3.902604,1.80915 c 0.181901,-0.0734 0.479557,-0.0734 0.661458,0 0.181901,0.0734 0.03307,0.13345 -0.330729,0.13345 -0.363802,0 -0.51263,-0.06 -0.330729,-0.13345 z m -20.968229,-0.47026 c 1.451786,-0.39731 4.950957,-0.4952 6.614583,-0.18504 0.699048,0.13033 -0.06443,0.19252 -2.248958,0.18319 -1.819011,-0.008 -3.843073,0.0709 -4.497917,0.17488 l -1.190625,0.18901 z m 27.200958,-0.43751 c -0.159089,-0.15909 -1.165167,-0.39073 -2.23573,-0.51476 l -1.946478,-0.2255 2.089782,0.10045 c 1.436235,0.069 2.219354,0.23001 2.504093,0.51475 0.22787,0.22787 0.293545,0.41431 0.145947,0.41431 -0.1476,0 -0.398528,-0.13017 -0.557614,-0.28925 z m -20.321792,-0.52245 c -0.436562,-0.27964 -0.674687,-0.50827 -0.529166,-0.50808 0.145521,1.9e-4 0.621771,0.2369 1.058333,0.52603 0.436563,0.28912 0.674688,0.51776 0.529167,0.50808 -0.145521,-0.01 -0.621771,-0.24639 -1.058334,-0.52603 z m 7.145219,-0.51284 c 0.264197,-0.29193 0.537742,-0.47341 0.607877,-0.40327 0.177782,0.17778 -0.482129,0.93406 -0.815041,0.93406 -0.150256,0 -0.05703,-0.23886 0.207164,-0.53079 z m 7.142281,0.2662 c 0.436563,-0.11108 1.031875,-0.20419 1.322917,-0.2069 0.414655,-0.004 0.386025,0.0409 -0.132292,0.2069 -0.363802,0.11651 -0.959114,0.20962 -1.322916,0.20691 -0.594149,-0.004 -0.580687,-0.0255 0.132291,-0.20691 z m -22.026562,-0.18238 c 0.254661,-0.0666 0.67138,-0.0666 0.926042,0 0.254661,0.0666 0.0463,0.121 -0.463021,0.121 -0.509323,0 -0.717682,-0.0545 -0.463021,-0.121 z m 2.248958,-0.25743 c 0.181901,-0.0734 0.479558,-0.0734 0.661459,0 0.181901,0.0734 0.03307,0.13346 -0.330729,0.13346 -0.363803,0 -0.512631,-0.0601 -0.33073,-0.13346 z m 1.867713,-0.14293 c 0.101274,-0.10223 0.779147,-0.0827 1.506386,0.0433 l 1.322256,0.22921 -1.506387,-0.0433 c -0.828514,-0.0238 -1.423529,-0.12698 -1.322255,-0.22921 z m 25.053641,-0.0476 c -0.436562,-0.1898 -1.150937,-0.35569 -1.5875,-0.36865 -0.436562,-0.013 -1.091406,-0.15124 -1.455208,-0.30731 -0.584467,-0.25073 -0.55367,-0.26314 0.264583,-0.10657 0.509323,0.0975 1.139436,0.1646 1.400249,0.1492 0.260816,-0.0154 0.975191,0.19469 1.5875,0.46688 0.612312,0.27218 0.994231,0.49862 0.84871,0.50321 -0.145521,0.005 -0.621771,-0.14696 -1.058334,-0.33676 z m -15.742708,-0.57227 c 0,-0.654 -1.2324,-1.70501 -2.038495,-1.73845 -0.545068,-0.0226 -0.603163,-0.0653 -0.220848,-0.16243 0.772745,-0.19624 2.112534,0.64069 2.447877,1.52912 0.163134,0.43219 0.186823,0.78066 0.05307,0.78066 -0.132882,0 -0.241602,-0.184 -0.241602,-0.4089 z m -12.236979,-0.0424 c 0.327422,-0.0631 0.863203,-0.0631 1.190625,0 0.327422,0.0631 0.05953,0.11466 -0.595312,0.11466 -0.654844,0 -0.922735,-0.0516 -0.595313,-0.11466 z m 22.003996,-0.16113 c 0.119579,-0.11958 0.67959,-0.17701 1.24447,-0.12762 l 1.027055,0.0898 -1.244471,0.12762 c -0.684458,0.0702 -1.146632,0.0298 -1.027054,-0.0898 z m -22.202433,-0.4459 c 0.218281,-0.14106 0.596729,-0.2583 0.840996,-0.26053 0.244268,-0.002 0.623073,-0.183 0.84179,-0.40172 0.328504,-0.3285 0.711429,-0.35416 2.20171,-0.14749 l 1.804045,0.25017 -1.689272,-0.0704 c -1.222361,-0.051 -1.950847,0.063 -2.635633,0.41207 -0.520497,0.26537 -1.129542,0.48066 -1.353435,0.47843 -0.359401,-0.004 -0.360596,-0.0341 -0.0102,-0.26053 z m 8.946223,-1.50366 c 0.190995,-0.0764 0.419198,-0.067 0.507119,0.0209 0.08792,0.0879 -0.06835,0.15045 -0.347265,0.13896 -0.308227,-0.0127 -0.37092,-0.0754 -0.159854,-0.15985 z"
         id="path1745"
         inkscape:connector-curvature="0" />
    </g>
  </g>
</svg>
