<?xml version="1.0" encoding="UTF-8" standalone="no"?>
<!-- Created with Inkscape (http://www.inkscape.org/) -->

<svg
   xmlns:dc="http://purl.org/dc/elements/1.1/"
   xmlns:cc="http://creativecommons.org/ns#"
   xmlns:rdf="http://www.w3.org/1999/02/22-rdf-syntax-ns#"
   xmlns:svg="http://www.w3.org/2000/svg"
   xmlns="http://www.w3.org/2000/svg"
   xmlns:sodipodi="http://sodipodi.sourceforge.net/DTD/sodipodi-0.dtd"
   xmlns:inkscape="http://www.inkscape.org/namespaces/inkscape"
   version="1.1"
   id="svg2949"
   width="283"
   height="443"
   viewBox="0 0 283 443"
   sodipodi:docname="feu135.svg"
   inkscape:version="0.92.4 (5da689c313, 2019-01-14)">
  <metadata
     id="metadata2955">
    <rdf:RDF>
      <cc:Work
         rdf:about="">
        <dc:format>image/svg+xml</dc:format>
        <dc:type
           rdf:resource="http://purl.org/dc/dcmitype/StillImage" />
        <dc:title></dc:title>
      </cc:Work>
    </rdf:RDF>
  </metadata>
  <defs
     id="defs2953" />
  <sodipodi:namedview
     pagecolor="#ffffff"
     bordercolor="#666666"
     borderopacity="1"
     objecttolerance="10"
     gridtolerance="10"
     guidetolerance="10"
     inkscape:pageopacity="0"
     inkscape:pageshadow="2"
     inkscape:window-width="1280"
     inkscape:window-height="972"
     id="namedview2951"
     showgrid="false"
     inkscape:zoom="1.5067919"
     inkscape:cx="144.21902"
     inkscape:cy="267.49357"
     inkscape:window-x="-8"
     inkscape:window-y="-8"
     inkscape:window-maximized="1"
     inkscape:current-layer="g928"
     showguides="true" />
  <g
     id="g151"
     transform="translate(25.882805,-2.654647)">
    <g
       id="g534"
       transform="translate(-21.900834,-45.792654)">
      <g
         id="g928"
         transform="translate(-3.9819699,-1.3273232)">
        <g
           id="g1072"
           transform="translate(-4.6456316,-5.9729546)">
          <path
             style="fill:#ff00ff"
             d="m 135.76725,479.27168 c -2.40628,-1.01176 -3.0302,-1.8849 -3.0302,-4.24059 0,-4.37269 0.90293,-6.0285 4.22387,-7.74583 4.1509,-2.14651 8.2903,-0.38635 9.79197,4.16378 2.13601,6.47217 -3.92794,10.79018 -10.98564,7.82264 z m -21.50574,-3.7291 c -4.48709,-3.28104 -0.8,-11.64155 5.13407,-11.64155 2.81071,0 7.34147,4.41015 7.34147,7.14602 0,4.78466 -8.09223,7.70068 -12.47554,4.49553 z m 39.1104,-3.71413 c -6.57804,-5.17429 0.65122,-14.44102 8.82034,-11.30624 0.89032,0.34165 2.29078,1.92072 3.11214,3.50903 1.69938,3.28626 0.87122,5.74877 -2.79758,8.31851 -3.02186,2.11659 -5.99723,1.94679 -9.1349,-0.5213 z m -54.60652,-9.859 c -1.895696,-4.57662 -0.666245,-7.70279 3.58053,-9.10435 3.1473,-1.0387 3.93818,-0.94614 6.17312,0.72248 4.39695,3.2828 4.91793,4.89781 2.58954,8.02742 -1.64498,2.21103 -3.00312,2.84774 -6.58053,3.08504 -4.19137,0.27802 -4.59584,0.0864 -5.76266,-2.73059 z m 70.46279,-3.45125 c -1.27218,-0.93024 -1.89113,-2.60886 -1.89113,-5.12884 0,-9.18309 12.76976,-10.23201 14.81882,-1.21722 1.30794,5.75422 -7.69388,10.17312 -12.92769,6.34606 z m -30.99113,-1.333 c -3.03097,-0.73324 -6.5,-4.36424 -6.5,-6.8035 0,-3.31189 3.43673,-5.82462 7.75747,-5.6718 4.0612,0.14364 7.24253,2.93176 7.24253,6.34737 0,1.95232 -4.23132,6.9426 -5.70455,6.72776 -0.4375,-0.0638 -1.69545,-0.33373 -2.79545,-0.59983 z m -46.241204,-8.05109 c -2.700835,-0.44573 -5.258796,-3.82904 -5.258796,-6.95559 0,-7.18532 12.6601,-8.7522 14.40917,-1.78335 0.35158,1.4008 0.165,3.43301 -0.41461,4.51603 -1.35048,2.52339 -5.851044,4.69899 -8.735764,4.22291 z m 61.277394,-3.19309 c -2.29992,-2.54139 -1.34425,-8.36059 1.72624,-10.51125 7.41108,-5.19093 15.98984,4.01364 9.99233,10.72126 -2.22791,2.4917 -9.38971,2.36335 -11.71857,-0.21001 z m -33.53619,-1.74943 c -5.54725,-2.03968 -6.89418,-8.81943 -2.34441,-11.80055 3.40229,-2.22927 6.88647,-2.21441 9.37755,0.04 5.2434,4.74522 -0.40863,14.19636 -7.03314,11.76057 z m 60.63486,-1.36314 c -2.88406,-2.2686 -3.50879,-6.4068 -1.38486,-9.17338 0.6875,-0.89552 2.92448,-1.92917 4.97106,-2.29699 3.26175,-0.58622 4.09494,-0.29489 6.75,2.36016 1.66592,1.66592 3.02894,3.9309 3.02894,5.03329 0,2.64211 -4.56283,6.1495 -8,6.1495 -1.50166,0 -3.91597,-0.93266 -5.36514,-2.07258 z m -43.88486,-10.31947 c -2.61923,-1.98827 -2.33255,-8.08651 0.47251,-10.05125 4.9221,-3.44757 11.60767,-0.0159 10.28624,5.27996 -1.40254,5.62083 -6.60202,7.9267 -10.75875,4.77129 z m -47.25,-4.8029 c -2.887538,-1.63741 -3.546193,-2.94547 -3.075306,-6.10742 0.55312,-3.71413 2.103631,-5.43512 5.585752,-6.19992 4.746368,-1.04248 9.893494,2.7062 9.957754,7.25229 0.0714,5.05237 -7.243188,8.01797 -12.4682,5.05505 z m 63.5,-4.80505 c -4.53775,-4.53775 -1.11755,-12 5.5,-12 4.7896,0 7.5,2.87837 7.5,7.96482 0,2.89644 -0.52121,4.24376 -1.93426,5 -3.22422,1.72555 -8.8674,1.23352 -11.06574,-0.96482 z m -33.5,-0.13056 c -4.82545,-2.69764 -5.82387,-7.03699 -2.5007,-10.86863 2.77645,-3.20127 7.76878,-2.97136 10.7507,0.49511 2.70352,3.14282 2.84912,5.57448 0.5,8.35065 -2.18408,2.58115 -6.12265,3.49168 -8.75,2.02287 z m 61.56281,-0.13418 c -1.41485,-0.7171 -2.78948,-2.59601 -3.27702,-4.4792 -1.69162,-6.53406 4.78086,-11.08287 11.11158,-7.80913 5.97352,3.08903 6.55446,9.23382 1.1378,12.03488 -3.53943,1.83031 -5.73861,1.89243 -8.97236,0.25345 z M 95.293754,406.67852 c -2.239131,-3.1968 -1.920583,-6.50452 0.897841,-9.32294 3.302455,-3.30246 7.015155,-3.1387 10.622375,0.46853 5.54407,5.54406 2.67561,11.07692 -5.74272,11.07692 -3.228029,0 -4.586941,-0.52275 -5.777496,-2.22251 z m 38.014726,-0.34892 c -0.89173,-0.89173 -1.57143,-3.25957 -1.57143,-5.47432 0,-3.25242 0.46132,-4.14145 2.76796,-5.33426 7.44851,-3.85177 14.98745,4.6246 9.23204,10.38001 -2.42583,2.42583 -8.19425,2.66289 -10.42857,0.42857 z m 36.04358,-3.89339 c -3.16137,-4.82486 -0.91087,-10.01385 4.80844,-11.0868 6.52589,-1.22426 10.96426,3.9674 8.11015,9.48664 -1.66673,3.22311 -3.32363,4.06498 -8.00038,4.06498 -2.40736,0 -3.7412,-0.66847 -4.91821,-2.46482 z m -58.59111,-10.23193 c -6.1271,-7.78933 3.97268,-16.30667 11.00154,-9.27781 2.67908,2.67908 2.48359,6.55644 -0.47999,9.52001 -3.36613,3.36614 -7.76285,3.26493 -10.52155,-0.2422 z m 41.61096,-2.37583 c -4.45607,-3.50514 -3.27176,-10.05879 2.21413,-12.25235 3.14721,-1.25843 4.02639,-1.26631 6.37137,-0.0571 5.74375,2.96177 6.53142,9.34337 1.52964,12.39301 -4.1518,2.5314 -6.81879,2.50937 -10.11514,-0.0835 z m -20.84555,-2.29072 c -3.17847,-2.41484 -3.83588,-6.03099 -1.72689,-9.49895 1.62196,-2.66709 2.50188,-3.13775 5.86618,-3.13775 4.67191,0 7.0714,2.61171 7.0714,7.69683 0,2.58955 -0.60087,3.56253 -2.95034,4.77749 -3.56928,1.84575 -5.98223,1.89318 -8.26035,0.16238 z m -56.607882,-16.3867 c 0.211172,-3.9875 0.01246,-7.25 -0.44158,-7.25 -0.454042,0 -3.056252,2.08658 -5.782689,4.63684 -6.037909,5.64776 -6.424484,4.73203 -0.812159,-1.92385 4.854466,-5.75711 4.313273,-6.67383 -3.954017,-6.69768 -3.281261,-0.009 -5.072962,-0.39726 -4.690983,-1.01531 0.339919,-0.55 3.516476,-1 7.059017,-1 3.542541,0 6.440983,-0.31288 6.440983,-0.69528 0,-0.38241 -1.204694,-1.95271 -2.677098,-3.48957 -3.365766,-3.5131 -2.407236,-4.72345 1.523893,-1.92424 1.62907,1.16 3.229979,2.10909 3.557575,2.10909 0.327597,0 0.602521,-2.1375 0.610943,-4.75 0.0084,-2.6125 0.451531,-5.425 0.984687,-6.25 0.739956,-1.145 0.972998,-0.76042 0.984687,1.625 0.0084,1.71875 0.294915,4.52301 0.636652,6.23169 l 0.621338,3.1067 2.878662,-2.04979 c 3.400269,-2.42121 3.678732,-1.74618 0.793032,1.92239 l -2.085628,2.65145 2.335628,0.6566 c 1.284596,0.36113 3.599687,0.70146 5.144646,0.75628 3.929638,0.13945 2.341264,2.09968 -1.701367,2.09968 -4.744926,0 -5.041008,0.95767 -1.443587,4.66927 4.198229,4.33147 3.168473,5.17115 -1.647814,1.34364 -2.085192,-1.6571 -4.114309,-3.01291 -4.509149,-3.01291 -0.39484,0 -0.998557,3.00559 -1.341594,6.6791 -0.901014,9.64875 -2.981547,10.96445 -2.484078,1.5709 z M 240.37621,357.40309 c -0.35154,-0.9161 -0.6453,-2.86633 -0.65281,-4.33385 -0.008,-1.46751 -0.28061,-3.66392 -0.60688,-4.8809 l -0.59322,-2.21269 -5.14312,2.54326 -5.14313,2.54325 3.25,-3.13125 c 1.7875,-1.72219 3.25,-3.50385 3.25,-3.95925 0,-0.45539 -1.31747,-1.3737 -2.92771,-2.04068 -1.61023,-0.66699 -3.74773,-2.13927 -4.75,-3.27174 -1.81316,-2.04873 -1.80226,-2.05526 2.17771,-1.30352 6.88426,1.3003 9.0323,1.1914 8.67169,-0.43963 -0.51054,-2.30911 0.85374,-10.01506 1.77309,-10.01506 0.45222,0 1.13547,2.925 1.51832,6.5 0.38285,3.575 0.85955,6.5 1.05933,6.5 0.19979,0 1.95645,-0.94001 3.90369,-2.08891 4.8478,-2.86027 6.67744,-1.92155 2.19961,1.12854 -1.98664,1.3532 -3.61514,2.78872 -3.6189,3.19005 -0.004,0.40132 1.71077,1.60593 3.81007,2.67691 4.05234,2.06735 7.22643,5.09341 5.34257,5.09341 -0.59699,0 -3.35209,-0.89343 -6.12245,-1.98541 l -5.03702,-1.98541 -0.0153,5.23541 c -0.017,5.79916 -1.25269,9.08534 -2.34553,6.23747 z M 35.73705,339.52676 c 0,-1.30585 0.675,-4.28743 1.5,-6.62573 0.825,-2.3383 1.5,-4.3836 1.5,-4.54512 0,-0.16152 -1.617197,0.15286 -3.593771,0.69862 -4.874252,1.34585 -5.485795,0.32441 -0.942346,-1.57396 3.36761,-1.40708 4.097073,-3.54819 1.2271,-3.60178 -0.655041,-0.0122 -2.315983,-0.94654 -3.690983,-2.07625 l -2.5,-2.05402 2.5,0.49552 c 1.375,0.27254 3.505709,0.80756 4.734908,1.18894 l 2.234908,0.69342 -1.984908,-5.76924 c -2.310431,-6.71538 -2.270205,-6.45613 -1.001754,-6.45613 0.540735,0 2.170595,2.3433 3.621912,5.20734 l 2.638757,5.20733 1.868735,-3.64253 c 1.027804,-2.0034 2.322944,-3.92326 2.878088,-4.26636 1.309272,-0.80917 1.296256,-0.70407 -0.603115,4.87028 -0.886858,2.60278 -1.353019,4.99179 -1.035913,5.30889 0.317106,0.31711 2.490696,0.0907 4.8302,-0.50313 5.444439,-1.38195 6.071294,-0.74703 1.441988,1.46053 -1.993093,0.95044 -3.623806,2.08317 -3.623806,2.51718 0,0.43401 1.35,1.48722 3,2.34047 4.988036,2.57941 3.783566,4.50881 -1.549045,2.48135 -2.339217,-0.88937 -2.595311,-0.79992 -2.0179,0.70479 1.232665,3.21227 1.91886,10.64939 0.925961,10.03574 -0.525617,-0.32485 -2.037186,-2.89972 -3.359042,-5.72194 l -2.403374,-5.1313 -2.814331,5.56568 c -1.547883,3.06112 -3.032118,5.56568 -3.2983,5.56568 -0.266183,0 -0.483969,-1.06842 -0.483969,-2.37427 z m 84.82305,-2.12573 c -0.37232,-1.1 -0.97785,-3.93309 -1.34563,-6.29575 l -0.66867,-4.29575 -3.33766,2.54575 c -4.23436,3.2297 -4.95658,3.21634 -2.81502,-0.0521 l 1.70218,-2.59785 -6.18095,0.34785 c -3.39952,0.19132 -6.18012,0.0104 -6.17912,-0.40215 0.001,-0.4125 0.59514,-0.75 1.32032,-0.75 0.72517,0 3.75186,-0.72263 6.72597,-1.60585 l 5.40746,-1.60584 -4.38665,-2.59059 c -5.01085,-2.95922 -4.08356,-4.06785 1.46377,-1.75003 2.04336,0.85377 3.89711,1.55231 4.11945,1.55231 0.22234,0 0.29837,-2.68099 0.16897,-5.95776 -0.12941,-3.27676 0.0101,-6.20319 0.31012,-6.50317 0.29998,-0.29997 1.39178,2.04352 2.42624,5.20776 1.03445,3.16424 1.9782,5.91084 2.09722,6.10356 0.11901,0.19271 2.04604,-1.11996 4.28228,-2.91706 5.00602,-4.02294 6.02141,-3.4734 2.08658,1.12927 -1.61625,1.89057 -2.95692,3.82599 -2.97927,4.30094 -0.0224,0.47495 2.03241,0.55267 4.56614,0.17272 5.40923,-0.81117 5.32388,0.87896 -0.0957,1.89569 -1.93108,0.36227 -3.51105,1.04464 -3.51105,1.51637 0,0.47173 1.6875,2.23625 3.75,3.92115 4.24076,3.46439 2.5487,4.21972 -2.52417,1.12679 -1.80082,-1.09794 -3.69087,-1.99626 -4.20013,-1.99626 -0.50926,0 -1.06088,2.5875 -1.22583,5.75 -0.18949,3.63316 -0.54912,5.01371 -0.97685,3.75 z m 76.92695,-15.08256 c -0.4125,-0.41293 -0.75,-3.37577 -0.75,-6.58411 0,-3.20833 -0.17356,-5.83333 -0.38569,-5.83333 -0.21213,0 -1.67463,0.67223 -3.25,1.49384 -5.13684,2.67904 -7.04526,1.72905 -3.11431,-1.55028 l 2.25,-1.87702 -3.5,-0.10356 c -1.925,-0.057 -4.4,-0.45926 -5.5,-0.89401 -1.63977,-0.64808 -1.27954,-0.90889 2,-1.44802 2.2,-0.36166 5.0125,-0.45017 6.25,-0.19668 2.82749,0.57919 2.81059,0.29461 -0.25,-4.20946 -3.62827,-5.33947 -3.06623,-6.17362 1.29216,-1.91776 4.27724,4.17661 5.20784,4.50758 5.20784,1.85217 0,-1.01792 0.5625,-3.38042 1.25,-5.25 l 1.25,-3.39922 0.5,5.74296 0.5,5.74295 2.86431,-1.49295 c 3.36005,-1.75136 4.63569,-1.88111 4.63569,-0.47152 0,0.56179 -1.125,1.53402 -2.5,2.16051 -3.43959,1.56718 -3.13175,2.60891 1,3.38403 4.71193,0.88396 4.42763,2.24855 -0.54722,2.62652 l -4.04721,0.3075 3.23254,4.38437 c 2.97322,4.03264 3.04049,4.28158 0.83862,3.10318 -1.31666,-0.70466 -3.16662,-2.22762 -4.11103,-3.38437 -1.91208,-2.34198 -2.05319,-2.15331 -3.53848,4.73092 -0.45497,2.10876 -1.16472,3.49626 -1.57722,3.08334 z M 74.744689,306.3177 c 0.0042,-0.50417 0.900764,-3.84167 1.992361,-7.41667 1.091597,-3.575 1.988159,-6.65182 1.992361,-6.83738 0.0042,-0.18555 -3.142361,-0.0337 -6.992361,0.33738 -3.85,0.37111 -7,0.4653 -7,0.2093 0,-0.256 2.709562,-1.47876 6.021248,-2.71725 3.311686,-1.23848 6.232668,-2.59388 6.491071,-3.01198 0.258403,-0.41811 -1.537244,-2.27216 -3.990327,-4.12013 -6.693451,-5.04234 -5.548814,-6.69733 1.978008,-2.85994 4.955875,2.52665 4.859407,2.54703 4.173611,-0.88194 -0.825401,-4.12701 0.460623,-4.72605 2.340725,-1.09034 l 1.604999,3.10373 3.374344,-5.31573 c 4.003303,-6.30654 5.312288,-4.5565 2.071598,2.76961 -2.404791,5.43643 -2.640273,7.84929 -0.693126,7.1021 0.754683,-0.2896 3.567183,-0.78397 6.25,-1.0986 l 4.877849,-0.57205 -4.729938,2.24161 c -2.601466,1.23288 -4.738966,2.57629 -4.75,2.98534 -0.01103,0.40905 1.847455,2.09655 4.129976,3.75 4.476221,3.24255 2.996064,4.16742 -2.292628,1.43253 -1.673799,-0.86555 -3.251672,-1.36533 -3.506384,-1.11062 -0.254712,0.25471 0.262326,3.26267 1.148974,6.68436 0.886648,3.42169 1.410551,6.42278 1.16423,6.6691 -0.246321,0.24632 -1.938945,-2.71374 -3.761385,-6.57793 l -3.313528,-7.02578 -3.889366,6.7173 c -4.267416,7.37024 -4.703587,7.9869 -4.692312,6.63398 z M 250.11726,288.44947 c -0.33311,-0.86808 -0.38509,-2.42179 -0.1155,-3.45269 0.89578,-3.42548 -0.66779,-4.45579 -4.08235,-2.69005 -4.76864,2.46596 -5.05335,1.83681 -0.81195,-1.79421 l 3.87041,-3.31342 -4.87041,-1.27006 c -2.67872,-0.69854 -4.42041,-1.40124 -3.87041,-1.56157 0.55,-0.16032 2.29875,-0.57981 3.88611,-0.93218 l 2.88611,-0.64069 -2.63611,-2.7515 c -4.55398,-4.75334 -2.80701,-5.83964 2.37666,-1.47787 2.58795,2.17762 3.32973,2.40592 4.06142,1.25 0.49235,-0.77781 0.90897,-2.3142 0.92581,-3.4142 0.0168,-1.1 0.46684,-2.675 1,-3.5 0.68311,-1.05704 0.9739,0.34568 0.98469,4.75 0.008,3.4375 0.22033,6.25 0.4709,6.25 0.25058,0 2.11337,-1.125 4.13955,-2.5 2.02617,-1.375 4.07116,-2.5 4.54441,-2.5 1.7093,0 0.8044,1.87402 -1.83239,3.79478 l -2.69284,1.9616 3.19284,0.70127 c 4.26343,0.9364 4.06941,2.54235 -0.30716,2.54235 -4.08077,0 -4.27715,0.54386 -1.32939,3.68161 2.99383,3.18678 1.6387,3.98169 -2.4646,1.44571 -3.93506,-2.432 -4.70601,-2.02567 -4.70601,2.48033 0,3.58783 -1.65751,5.44843 -2.61979,2.94079 z m -72.88021,-15.54844 c -0.38301,-3.3 -0.83126,-6 -0.99611,-6 -0.16486,0 -2.25818,1.11958 -4.65182,2.48795 -2.39364,1.36838 -4.68957,2.49338 -5.10207,2.5 -1.85064,0.0297 -0.39245,-1.72469 3.73019,-4.48795 2.46171,-1.65 4.48573,-3.2885 4.49783,-3.64112 0.0121,-0.35261 -1.76479,-2.80335 -3.94861,-5.44607 -2.18382,-2.64273 -3.77957,-4.99598 -3.54611,-5.22944 0.23346,-0.23346 2.19748,0.97977 4.36449,2.69608 2.16701,1.7163 4.14115,3.12055 4.38698,3.12055 0.24584,0 1.00866,-2.50991 1.69518,-5.57759 0.68651,-3.06767 1.46226,-5.36353 1.72388,-5.10192 0.26161,0.26162 0.72599,2.88404 1.03195,5.82759 0.30596,2.94356 0.685,5.4976 0.84232,5.67566 0.15732,0.17805 1.67786,-0.396 3.37897,-1.27568 4.08559,-2.11274 3.97391,-0.2926 -0.15707,2.56001 -1.7875,1.23434 -3.38471,2.33719 -3.54935,2.45077 -0.16464,0.11359 1.99507,2.56211 4.79935,5.44116 2.80428,2.87905 4.89053,5.4428 4.63611,5.69722 -0.49493,0.49493 -5.27229,-2.34569 -7.45754,-4.43425 -2.38117,-2.27583 -3.17857,-1.33833 -3.17857,3.73703 0,6.93494 -1.65593,6.27257 -2.5,-1 z m -51.75,-16.57856 c -0.4125,-0.41513 -0.75,-3.1412 -0.75,-6.05794 v -5.30316 l -5.75,3.46726 c -7.51041,4.52879 -8.54526,4.38319 -3.75,-0.5276 l 3.9059,-4 h -4.14394 c -2.27916,0 -4.39042,-0.39884 -4.6917,-0.88631 -0.71793,-1.16164 2.87073,-2.08298 8.17974,-2.10004 4.78446,-0.0154 5.28583,-1.13257 2.25,-5.01365 -2.96764,-3.79391 -2.38748,-4.39733 1.42904,-1.48632 l 3.42905,2.61546 0.69837,-4.81457 c 1.05933,-7.30307 1.8897,-7.48937 2.44354,-0.54823 l 0.5,6.26634 5.21055,-3.51634 c 7.15958,-4.83164 7.77125,-4.40524 1.52227,1.06121 -2.87805,2.51765 -5.23282,4.96508 -5.23282,5.43872 0,0.47365 2.03053,1.16568 4.5123,1.53784 6.05912,0.90863 6.71699,2.44589 1.04672,2.44589 -2.50746,0 -4.54073,0.3375 -4.51838,0.75 0.0224,0.4125 1.37235,2.308 3,4.21223 5.11714,5.98666 3.36052,7.07178 -2.39665,1.4805 -2.38597,-2.31724 -3.79688,-3.10157 -4.04743,-2.25 -0.21154,0.719 -0.76981,2.80942 -1.24059,4.64538 -0.47078,1.83595 -1.19347,2.99845 -1.60597,2.58333 z M 81.656409,231.22862 c -0.69234,-3.20518 -1.349714,-5.95738 -1.460831,-6.11601 -0.111118,-0.15863 -2.514514,1.1491 -5.340881,2.90607 -2.826367,1.75696 -5.377093,2.95624 -5.66828,2.66505 -0.291187,-0.29119 1.738584,-2.42832 4.510601,-4.74918 2.772018,-2.32087 5.040032,-4.61534 5.040032,-5.09884 0,-0.4835 -2.25,-1.84701 -5,-3.03003 -2.75,-1.18301 -5,-2.59367 -5,-3.13478 0,-0.54112 0.714339,-0.70973 1.58742,-0.3747 0.873081,0.33504 3.298392,0.88275 5.389579,1.21714 l 3.802158,0.60799 -0.519631,-4.61015 c -0.314395,-2.7893 -0.119365,-4.61015 0.49379,-4.61015 1.116639,0 2.21178,3.28145 2.233029,6.69098 0.02225,3.57028 1.748665,3.62359 6.514328,0.20115 5.582284,-4.00889 6.70233,-3.34211 2.023234,1.20446 -1.926436,1.87188 -3.507402,3.74819 -3.513259,4.16959 -0.0059,0.4214 1.564352,1.51724 3.489352,2.43521 1.925,0.91797 3.5,2.04426 3.5,2.50287 0,0.89614 -4.424535,0.0693 -7.184259,-1.34259 -2.765641,-1.41491 -2.881502,-1.14669 -2.63214,6.09342 0.131751,3.8253 -0.04058,7.23522 -0.382948,7.57759 -0.342372,0.34237 -1.188954,-1.99992 -1.881294,-5.20509 z M 185.0361,229.874 l 0.58912,-7.02702 -5.19409,0.53074 -5.19408,0.53074 5.41965,-2.64684 5.41966,-2.64684 -4.41966,-2.40356 -4.41965,-2.40355 4.36881,0.5775 c 3.6941,0.4883 4.2759,0.33535 3.76716,-0.99041 -1.589,-4.14087 -3.76764,-12.69539 -3.34171,-13.12133 0.26361,-0.26361 2.27411,2.26759 4.46777,5.62489 l 3.98847,6.10417 2.79939,-4.7768 c 3.30886,-5.64615 4.31528,-4.26596 2.01577,2.7644 -0.89819,2.74606 -1.39172,5.38337 -1.09672,5.86068 0.29499,0.47731 2.78397,0.27493 5.53106,-0.44974 6.70185,-1.76791 7.21544,-0.26916 0.84664,2.47063 l -5.12636,2.2053 4.38986,2.56834 c 5.37528,3.14486 5.3526,3.12632 4.66461,3.81431 -0.30722,0.30722 -2.23859,-0.14337 -4.29193,-1.00131 l -3.73334,-1.55989 0.60118,2.75131 c 0.33066,1.51322 0.86823,3.87631 1.19461,5.25131 0.54915,2.3135 0.36444,2.24172 -2.47593,-0.96223 -1.68814,-1.90422 -3.06934,-3.81672 -3.06934,-4.25 0,-2.286 -1.77455,-0.11944 -3.87357,4.7293 -3.28039,7.5777 -4.54921,7.06582 -3.82738,-1.5441 z m -39.29905,-21.47113 c 0,-0.88891 0.50776,-3.63271 1.12836,-6.09733 0.6206,-2.46462 0.9418,-4.66768 0.71378,-4.8957 -0.22802,-0.22802 -2.77261,0.75239 -5.65464,2.17869 -2.88203,1.4263 -5.49118,2.34216 -5.7981,2.03523 -0.30693,-0.30692 1.7299,-2.26615 4.52628,-4.35384 4.94231,-3.68978 6.19946,-5.36889 4.0197,-5.36889 -1.7875,0 -10.93538,-4.19507 -10.93538,-5.01479 0,-0.42268 3.63219,0.0412 8.07153,1.03073 7.42865,1.65594 8.01945,1.66722 7.41764,0.14165 -0.35964,-0.91167 -0.84559,-4.13259 -1.07988,-7.15759 l -0.42599,-5.5 1.83956,3.74788 c 2.61892,5.33572 2.71351,5.34131 5.15187,0.30431 1.21203,-2.5037 2.61354,-4.55219 3.11448,-4.55219 1.18792,0 1.14884,0.51661 -0.51057,6.75 -0.76869,2.8875 -1.19542,5.25 -0.94829,5.25 0.24713,0 2.2314,-0.90915 4.40949,-2.02032 5.09602,-2.5998 5.06168,-1.2892 -0.0612,2.33517 -2.18826,1.54817 -3.97865,3.18081 -3.97865,3.62808 0,0.44727 2.8125,1.88059 6.25,3.18514 5.83005,2.21256 6.03476,2.39275 3.04663,2.68181 -1.76185,0.17043 -4.84569,-0.14359 -6.85298,-0.69783 -3.47759,-0.96021 -3.62056,-0.90411 -3.03309,1.19012 0.33909,1.20881 0.89377,4.22283 1.23261,6.69783 0.72237,5.27629 -0.73888,4.57375 -2.59992,-1.25 -0.65909,-2.0625 -1.53653,-3.75 -1.94986,-3.75 -0.41334,0 -1.81919,2.27953 -3.12413,5.06562 -2.54871,5.44164 -3.96925,7.02929 -3.96925,4.43622 z m 64.40689,-21.75184 c 0.32621,-2.0625 0.89289,-5.4375 1.25929,-7.5 0.55906,-3.14697 0.43846,-3.57094 -0.75,-2.63652 -1.90924,1.50115 -9.91618,2.67604 -9.91618,1.45504 0,-0.52531 0.95732,-1.62564 2.12737,-2.44518 2.09597,-1.46807 2.07383,-1.51243 -1.5,-3.00568 -5.82427,-2.43353 -4.54974,-3.76786 2.87263,-3.00741 7.18748,0.73637 7.32093,0.59875 4.94142,-5.09621 -2.27489,-5.44458 -1.02183,-5.44064 2.36915,0.007 l 2.94071,4.72468 1.43686,-4.31058 c 1.98286,-5.94858 4.17451,-6.53552 3.64432,-0.97598 -0.38413,4.02799 -0.29478,4.18562 2.13331,3.76366 1.39383,-0.24222 3.32173,-0.77719 4.28423,-1.18882 2.92894,-1.25261 1.93881,0.85093 -1.25632,2.66905 -3.91563,2.22811 -3.78199,3.42604 0.47124,4.22395 5.70455,1.07018 5.1755,2.57256 -0.9059,2.57256 -6.01253,0 -6.54343,0.65398 -4.05902,5 0.78602,1.375 1.44508,3.0625 1.46456,3.75 0.0653,2.30217 -1.89674,1.28184 -3.50115,-1.82076 -1.29461,-2.5035 -1.85355,-2.85034 -3.02568,-1.87756 -0.79075,0.65627 -1.4407,1.70061 -1.44432,2.32076 -0.004,0.62016 -0.94552,2.47756 -2.09311,4.12756 l -2.08652,3 0.59311,-3.75 z m -116.830041,-14 c 0.326585,-4.2625 0.442897,-7.74513 0.258471,-7.73918 -0.184426,0.006 -2.489104,0.66433 -5.121506,1.46306 -5.988203,1.81696 -5.213892,0.38981 1.996266,-3.67935 l 5.545052,-3.12943 -8.377566,-4.04642 c -8.717844,-4.21078 -8.820317,-6.15011 -0.169211,-3.20239 2.546945,0.86783 4.754631,1.45406 4.905969,1.30272 0.151337,-0.15134 -0.102585,-1.95003 -0.564272,-3.99708 -1.095903,-4.8591 0.251442,-4.73706 3.070104,0.27807 1.236469,2.2 2.583331,4 2.993027,4 0.409695,0 1.457747,-2.4521 2.328997,-5.4491 2.82141,-9.7053 4.67263,-7.84751 2.46016,2.46888 -0.60372,2.81503 -0.83356,5.38234 -0.51076,5.70514 0.3228,0.3228 2.39175,-0.12205 4.59767,-0.98856 4.57667,-1.79777 5.25801,-0.81174 1.38739,2.00781 l -2.62337,1.91099 3.12337,1.29374 c 1.71785,0.71156 3.12336,1.68915 3.12336,2.17242 0,1.17249 -4.24194,1.11739 -7.4349,-0.0966 -3.09178,-1.17549 -3.11074,-0.963 -0.52166,5.84898 1.12334,2.95555 1.8306,5.58557 1.57168,5.84448 -0.25891,0.25891 -1.70825,-1.48427 -3.22076,-3.87373 l -2.75001,-4.34448 -3.330648,7 -3.330644,7 0.593791,-7.75 z M 164.4421,153.65726 c -0.25617,-0.69093 -0.22926,-3.41623 0.0598,-6.05624 l 0.52558,-4.8 -4.1108,1.64481 c -6.09987,2.44069 -7.28497,1.26845 -2.33947,-2.31406 l 4.30102,-3.11563 -4.32059,-1.28953 -4.32059,-1.28952 4.25,-0.32553 c 2.3375,-0.17904 4.25,-0.54852 4.25,-0.82108 0,-0.27256 -1.11308,-2.1336 -2.47351,-4.13566 -1.36043,-2.00205 -2.2851,-3.82851 -2.05481,-4.0588 0.23029,-0.23029 2.41999,1.22119 4.86601,3.22552 l 4.4473,3.64423 1.20724,-5.03237 c 1.40197,-5.84405 3.41165,-6.88923 2.46576,-1.28237 -0.34794,2.0625 -0.84866,4.5375 -1.1127,5.5 -0.58755,2.1418 -0.0658,2.17395 3.69758,0.22783 7.8479,-4.0583 11.22308,-3.65942 4.4509,0.52602 -4.19114,2.59027 -3.87605,3.5195 1.48407,4.37662 5.64224,0.90223 5.11052,2.80516 -0.72784,2.60481 -2.6125,-0.0897 -5.09946,-0.12301 -5.52657,-0.0741 -0.42711,0.0489 0.79772,2.42653 2.72184,5.28369 1.92412,2.85716 3.27571,5.41753 3.00352,5.68971 -0.27218,0.27219 -2.65783,-1.63554 -5.30143,-4.23939 l -4.80655,-4.73428 -1.3413,5.59117 c -1.37413,5.72803 -2.47048,7.47655 -3.29446,5.25419 z M 41.73705,132.40103 c 0,-3.025 -0.3375,-5.48748 -0.75,-5.47218 -0.4125,0.0153 -2.543563,1.38461 -4.735695,3.04292 -5.411372,4.09358 -5.822409,1.83782 -0.629298,-3.45357 2.263246,-2.30608 4.114993,-4.46149 4.114993,-4.7898 0,-0.32831 -2.475,-0.90615 -5.5,-1.2841 -6.87053,-0.85842 -7.201768,-2.54327 -0.5,-2.54327 5.348496,0 5.761211,-0.40949 3.468197,-3.44113 -2.930546,-3.87453 -1.564366,-5.04441 1.932655,-1.65497 3.732716,3.61789 3.620802,3.70046 5.133189,-3.78704 0.907916,-4.49489 2.429779,-2.18805 2.450646,3.7147 l 0.01531,4.33156 3.368034,-2.08156 c 4.893037,-3.02406 5.48698,-2.55892 1.709321,1.33863 l -3.31498,3.42019 3.868813,1.07423 c 2.127846,0.59083 4.45787,1.07675 5.177829,1.07981 0.719959,0.003 1.044923,0.4329 0.722141,0.95517 -0.325414,0.52653 -2.802044,0.68723 -5.559017,0.36071 -5.444312,-0.6448 -5.910217,-0.0664 -2.972141,3.6897 3.137226,4.01072 2.427869,5.78411 -1,2.5 -2.77021,-2.65403 -3,-2.71601 -3,-0.80921 0,2.18581 -2.688465,9.30921 -3.51342,9.30921 -0.267619,0 -0.48658,-2.475 -0.48658,-5.5 z m 183.47632,-15.15677 c 0.38872,-3.11122 0.96647,-6.33356 1.28389,-7.16074 0.45232,-1.1787 0.054,-1.36095 -1.84154,-0.84269 -5.17527,1.41494 -9.91867,1.88029 -9.91867,0.97308 0,-0.51851 2.1375,-1.84177 4.75,-2.94058 l 4.75,-1.99784 -4.62095,-2.07391 c -8.27448,-3.713645 -6.72578,-5.921858 1.99522,-2.84491 2.26915,0.80061 4.12573,1.08281 4.12573,0.62712 0,-0.45569 -0.92937,-2.929528 -2.06528,-5.497425 -3.22829,-7.298091 -1.9132,-8.462646 2.24653,-1.989368 l 3.68126,5.728686 2.77706,-5.662326 c 2.82063,-5.751151 4.8171,-7.50377 3.8871,-3.412326 -1.81027,7.964109 -2.54687,12.063129 -2.22552,12.384479 0.203,0.20301 2.58079,-0.30183 5.28397,-1.12186 5.79374,-1.757578 5.41584,-1.704319 5.41113,-0.76262 -0.002,0.4125 -2.02706,1.58208 -4.5,2.59906 -2.47294,1.01698 -4.49109,2.14198 -4.48478,2.5 0.006,0.35802 1.83232,1.52349 4.05779,2.58993 4.88862,2.34262 6.31681,4.11789 2.57989,3.20685 -1.45703,-0.35521 -3.76996,-0.91857 -5.13984,-1.25191 l -2.49069,-0.60607 2.07425,4.68918 c 1.14083,2.57905 1.86589,4.89753 1.61124,5.15218 -0.25465,0.25466 -1.91837,-1.37454 -3.69716,-3.62044 l -3.23415,-4.08345 -2.6364,5.53413 c -1.45002,3.04378 -3.02575,5.53558 -3.50162,5.53734 -0.47588,0.002 -0.54718,-2.54235 -0.15846,-5.65357 z M 88.377208,97.401031 c 0.365555,-1.65 1.275869,-4.757695 2.022921,-6.905989 0.747052,-2.148294 1.13331,-4.130956 0.858351,-4.405914 -0.274958,-0.274959 -2.301396,0.207714 -4.503195,1.072605 -5.262854,2.067308 -6.117275,0.538645 -0.990983,-1.772991 2.185011,-0.985303 3.972748,-2.131795 3.972748,-2.547761 0,-0.415966 -2.024195,-2.035123 -4.498212,-3.598126 -2.474016,-1.563003 -4.499016,-3.179324 -4.5,-3.591824 -0.0027,-1.145232 0.670046,-0.949986 5.955433,1.728322 l 4.890733,2.478322 -0.923977,-3.22172 c -0.508187,-1.771946 -0.92205,-4.349691 -0.919696,-5.728322 0.0039,-2.255934 0.290674,-2.074933 2.868114,1.80995 l 2.863832,4.316552 2.050383,-2.814722 c 2.52316,-3.463735 3.49111,-2.773542 2.23801,1.595787 -1.028334,3.585576 -1.465648,3.472759 5.72538,1.477016 4.24106,-1.177032 2.25504,1.360358 -2.75,3.513469 -2.75,1.183018 -5,2.33464 -5,2.559159 0,0.22452 1.7817,1.40959 3.95934,2.633489 4.30909,2.421847 4.56917,4.434336 0.36657,2.836509 -1.43181,-0.544372 -2.77068,-0.822373 -2.97528,-0.617779 -0.20459,0.204594 0.31262,2.31238 1.14937,4.683968 2.07931,5.89339 1.08876,6.265354 -1.653516,0.620917 -1.234759,-2.541504 -2.550752,-4.620917 -2.924429,-4.620917 -0.373678,0 -1.194278,1.24299 -1.823555,2.7622 -0.629277,1.51921 -2.264381,4.10671 -3.633564,5.75 l -2.489423,2.987799 z"
             id="path1076"
             inkscape:connector-curvature="0" />
          <path
             style="fill:#00ffff"
             d="m 74.918478,371.15103 c 0.211172,-3.9875 0.01246,-7.25 -0.44158,-7.25 -0.454042,0 -3.056252,2.08658 -5.782689,4.63684 -6.037909,5.64776 -6.424484,4.73203 -0.812159,-1.92385 4.854466,-5.75711 4.313273,-6.67383 -3.954017,-6.69768 -3.281261,-0.009 -5.072962,-0.39726 -4.690983,-1.01531 0.339919,-0.55 3.516476,-1 7.059017,-1 3.542541,0 6.440983,-0.31288 6.440983,-0.69528 0,-0.38241 -1.204694,-1.95271 -2.677098,-3.48957 -3.365766,-3.5131 -2.407236,-4.72345 1.523893,-1.92424 1.62907,1.16 3.229979,2.10909 3.557575,2.10909 0.327597,0 0.602521,-2.1375 0.610943,-4.75 0.0084,-2.6125 0.451531,-5.425 0.984687,-6.25 0.739956,-1.145 0.972998,-0.76042 0.984687,1.625 0.0084,1.71875 0.294915,4.52301 0.636652,6.23169 l 0.621338,3.1067 2.878662,-2.04979 c 3.400269,-2.42121 3.678732,-1.74618 0.793032,1.92239 l -2.085628,2.65145 2.335628,0.6566 c 1.284596,0.36113 3.599687,0.70146 5.144646,0.75628 3.929638,0.13945 2.341264,2.09968 -1.701367,2.09968 -4.744926,0 -5.041008,0.95767 -1.443587,4.66927 4.198229,4.33147 3.168473,5.17115 -1.647814,1.34364 -2.085192,-1.6571 -4.114309,-3.01291 -4.509149,-3.01291 -0.39484,0 -0.998557,3.00559 -1.341594,6.6791 -0.901014,9.64875 -2.981547,10.96445 -2.484078,1.5709 z M 240.37621,357.40309 c -0.35154,-0.9161 -0.6453,-2.86633 -0.65281,-4.33385 -0.008,-1.46751 -0.28061,-3.66392 -0.60688,-4.8809 l -0.59322,-2.21269 -5.14312,2.54326 -5.14313,2.54325 3.25,-3.13125 c 1.7875,-1.72219 3.25,-3.50385 3.25,-3.95925 0,-0.45539 -1.31747,-1.3737 -2.92771,-2.04068 -1.61023,-0.66699 -3.74773,-2.13516 -4.75,-3.2626 -1.81211,-2.03846 -1.79995,-2.04542 2.17771,-1.24654 6.52598,1.31069 9.04086,1.16401 8.67169,-0.50575 -0.51054,-2.30911 0.85374,-10.01506 1.77309,-10.01506 0.45222,0 1.13547,2.925 1.51832,6.5 0.38285,3.575 0.85955,6.5 1.05933,6.5 0.19979,0 1.95645,-0.94001 3.90369,-2.08891 4.77734,-2.8187 6.90118,-1.89453 2.25093,0.97949 -2.02238,1.24989 -3.67705,2.67669 -3.67705,3.17066 0,0.49396 1.7176,1.77437 3.8169,2.84535 4.05234,2.06735 7.22643,5.09341 5.34257,5.09341 -0.59699,0 -3.35209,-0.89343 -6.12245,-1.98541 l -5.03702,-1.98541 -0.0153,5.23541 c -0.017,5.79916 -1.25269,9.08534 -2.34553,6.23747 z M 35.73705,339.52676 c 0,-1.30585 0.675,-4.28743 1.5,-6.62573 0.825,-2.3383 1.5,-4.38846 1.5,-4.55592 0,-0.16746 -1.459529,0.11412 -3.243398,0.62573 -5.257548,1.50784 -5.555707,0.99628 -0.853066,-1.46365 l 4.403536,-2.30346 -2.903536,-1.05277 c -1.596945,-0.57902 -3.803536,-1.80165 -4.903536,-2.71695 -1.964918,-1.63501 -1.956148,-1.65569 0.5,-1.17932 1.375,0.26668 3.505709,0.79691 4.734908,1.17829 l 2.234908,0.69342 -1.984908,-5.76924 c -2.310431,-6.71538 -2.270205,-6.45613 -1.001754,-6.45613 0.540735,0 2.170595,2.3433 3.621912,5.20734 l 2.638757,5.20733 1.868735,-3.64253 c 1.027804,-2.0034 2.322944,-3.92326 2.878088,-4.26636 1.309272,-0.80917 1.296256,-0.70407 -0.603115,4.87028 -0.886858,2.60278 -1.353019,4.99179 -1.035913,5.30889 0.317106,0.31711 2.490696,0.0907 4.8302,-0.50313 5.68638,-1.44336 5.934097,-0.79176 0.711843,1.87243 l -4.30015,2.19377 3.703245,1.89988 c 5.560218,2.85256 4.912415,5.02272 -0.845801,2.83345 -2.339217,-0.88937 -2.595311,-0.79992 -2.0179,0.70479 1.011781,2.63666 1.919079,10.31386 1.2189,10.31386 -0.340941,0 -1.888005,-2.50785 -3.43792,-5.57299 l -2.818028,-5.57299 -2.728827,5.57299 c -1.500855,3.06514 -2.939956,5.57299 -3.198003,5.57299 -0.258048,0 -0.469177,-1.06842 -0.469177,-2.37427 z m 84.82305,-2.12573 c -0.37232,-1.1 -0.97785,-3.93309 -1.34563,-6.29575 l -0.66867,-4.29575 -3.33766,2.54575 c -4.23436,3.2297 -4.95658,3.21634 -2.81502,-0.0521 l 1.70218,-2.59785 -6.18095,0.34785 c -3.39952,0.19132 -6.18012,0.0104 -6.17912,-0.40215 0.001,-0.4125 0.59514,-0.75 1.32032,-0.75 0.72517,0 3.75186,-0.72263 6.72597,-1.60585 l 5.40746,-1.60584 -4.38665,-2.59059 c -5.01085,-2.95922 -4.08356,-4.06785 1.46377,-1.75003 2.04336,0.85377 3.89711,1.55231 4.11945,1.55231 0.22234,0 0.29837,-2.68099 0.16897,-5.95776 -0.12941,-3.27676 0.0101,-6.20319 0.31012,-6.50317 0.29998,-0.29997 1.39178,2.04352 2.42624,5.20776 1.03445,3.16424 1.9782,5.91084 2.09722,6.10356 0.11901,0.19271 2.04604,-1.11996 4.28228,-2.91706 5.00602,-4.02294 6.02141,-3.4734 2.08658,1.12927 -1.61625,1.89057 -2.95692,3.82599 -2.97927,4.30094 -0.0224,0.47495 2.03241,0.55267 4.56614,0.17272 3.19084,-0.4785 4.40214,-0.35972 3.94099,0.38645 -0.36619,0.59251 -1.28495,1.07729 -2.04169,1.07729 -0.75673,0 -2.5986,0.46488 -4.09303,1.03306 l -2.71715,1.03306 4.30502,3.16595 c 4.9213,3.61916 3.75094,4.99911 -1.5748,1.85684 -1.94724,-1.1489 -3.94226,-2.08891 -4.43338,-2.08891 -0.49111,0 -1.02789,2.5875 -1.19284,5.75 -0.18949,3.63316 -0.54912,5.01371 -0.97685,3.75 z m 76.92695,-15.08256 c -0.4125,-0.41293 -0.75,-3.37577 -0.75,-6.58411 0,-3.20833 -0.17356,-5.83333 -0.38569,-5.83333 -0.21213,0 -1.67463,0.67223 -3.25,1.49384 -5.13684,2.67904 -7.04526,1.72905 -3.11431,-1.55028 l 2.25,-1.87702 -3.5,-0.10356 c -1.925,-0.057 -4.4,-0.45926 -5.5,-0.89401 -1.63977,-0.64808 -1.27954,-0.90889 2,-1.44802 2.2,-0.36166 5.0125,-0.45017 6.25,-0.19668 2.82749,0.57919 2.81059,0.29461 -0.25,-4.20946 -3.62827,-5.33947 -3.06623,-6.17362 1.29216,-1.91776 4.27724,4.17661 5.20784,4.50758 5.20784,1.85217 0,-1.01792 0.5625,-3.38042 1.25,-5.25 l 1.25,-3.39922 0.5,5.74296 0.5,5.74295 2.86431,-1.49295 c 3.36005,-1.75136 4.63569,-1.88111 4.63569,-0.47152 0,0.56179 -1.125,1.53402 -2.5,2.16051 -3.43959,1.56718 -3.13175,2.60891 1,3.38403 4.71193,0.88396 4.42763,2.24855 -0.54722,2.62652 l -4.04721,0.3075 3.23254,4.38437 c 2.97322,4.03264 3.04049,4.28158 0.83862,3.10318 -1.31666,-0.70466 -3.16662,-2.22762 -4.11103,-3.38437 -1.91208,-2.34198 -2.05319,-2.15331 -3.53848,4.73092 -0.45497,2.10876 -1.16472,3.49626 -1.57722,3.08334 z M 74.744689,306.3177 c 0.0042,-0.50417 0.900764,-3.84167 1.992361,-7.41667 1.091597,-3.575 1.988159,-6.65182 1.992361,-6.83738 0.0042,-0.18555 -3.142361,-0.0337 -6.992361,0.33738 -3.85,0.37111 -7,0.4653 -7,0.2093 0,-0.256 2.709562,-1.47876 6.021248,-2.71725 3.311686,-1.23848 6.232668,-2.59388 6.491071,-3.01198 0.258403,-0.41811 -1.537244,-2.27216 -3.990327,-4.12013 -6.693451,-5.04234 -5.548814,-6.69733 1.978008,-2.85994 4.955875,2.52665 4.859407,2.54703 4.173611,-0.88194 -0.825401,-4.12701 0.460623,-4.72605 2.340725,-1.09034 l 1.604999,3.10373 3.374344,-5.31573 c 4.003303,-6.30654 5.312288,-4.5565 2.071598,2.76961 -2.404791,5.43643 -2.640273,7.84929 -0.693126,7.1021 0.754683,-0.2896 3.567183,-0.78397 6.25,-1.0986 l 4.877849,-0.57205 -4.729938,2.24161 c -2.601466,1.23288 -4.738966,2.57629 -4.75,2.98534 -0.01103,0.40905 1.847455,2.09655 4.129976,3.75 4.476221,3.24255 2.996064,4.16742 -2.292628,1.43253 -1.673799,-0.86555 -3.251672,-1.36533 -3.506384,-1.11062 -0.254712,0.25471 0.262326,3.26267 1.148974,6.68436 0.886648,3.42169 1.410551,6.42278 1.16423,6.6691 -0.246321,0.24632 -1.938945,-2.71374 -3.761385,-6.57793 l -3.313528,-7.02578 -3.889366,6.7173 c -4.267416,7.37024 -4.703587,7.9869 -4.692312,6.63398 z M 250.26791,288.95096 c -0.39553,-0.63998 -0.47051,-2.15426 -0.16661,-3.36507 0.96927,-3.86189 -0.62999,-5.11592 -4.18189,-3.27916 -4.70594,2.43353 -4.89856,1.92536 -0.65927,-1.73922 l 3.85631,-3.33352 -4.9397,-1.28751 c -2.71683,-0.70813 -4.4897,-1.41868 -3.9397,-1.57901 0.55,-0.16032 2.29875,-0.57981 3.88611,-0.93218 l 2.88611,-0.64069 -2.63611,-2.7515 c -4.55398,-4.75334 -2.80701,-5.83964 2.37666,-1.47787 2.58795,2.17762 3.32973,2.40592 4.06142,1.25 0.49235,-0.77781 0.90897,-2.3142 0.92581,-3.4142 0.0168,-1.1 0.46684,-2.675 1,-3.5 0.68311,-1.05704 0.9739,0.34568 0.98469,4.75 0.008,3.4375 0.22033,6.25 0.4709,6.25 0.25058,0 2.11337,-1.125 4.13955,-2.5 2.02617,-1.375 4.07116,-2.5 4.54441,-2.5 1.7093,0 0.8044,1.87402 -1.83239,3.79478 l -2.69284,1.9616 3.19284,0.70127 c 4.26343,0.9364 4.06941,2.54235 -0.30716,2.54235 -4.08077,0 -4.27715,0.54386 -1.32939,3.68161 3.00013,3.19349 1.63557,3.97975 -2.48604,1.43246 -4.45799,-2.75519 -4.6818,-2.70109 -4.69988,1.13593 -0.0184,3.90122 -1.37238,6.54976 -2.45383,4.79993 z m -73.03086,-16.04993 c -0.38301,-3.3 -0.82051,-6 -0.97223,-6 -0.15173,0 -2.38097,1.17657 -4.95389,2.6146 -6.1915,3.46049 -6.88928,2.4196 -1.18984,-1.77489 2.49588,-1.83684 4.55551,-3.62821 4.57696,-3.98083 0.0214,-0.35261 -1.74777,-2.80335 -3.93159,-5.44607 -2.18382,-2.64273 -3.77957,-4.99598 -3.54611,-5.22944 0.23346,-0.23346 2.19748,0.97977 4.36449,2.69608 2.16701,1.7163 4.14115,3.12055 4.38698,3.12055 0.24584,0 1.00866,-2.50991 1.69518,-5.57759 0.68651,-3.06767 1.43251,-5.39328 1.65777,-5.16803 0.22526,0.22526 0.65,2.825 0.94386,5.7772 0.29387,2.95221 0.70267,5.536 0.90844,5.74177 0.20576,0.20577 1.76594,-0.34561 3.46705,-1.22529 4.08559,-2.11274 3.97391,-0.2926 -0.15707,2.56001 -1.7875,1.23434 -3.38471,2.33719 -3.54935,2.45077 -0.16464,0.11359 1.99507,2.56211 4.79935,5.44116 2.80428,2.87905 4.89053,5.4428 4.63611,5.69722 -0.49493,0.49493 -5.27229,-2.34569 -7.45754,-4.43425 -2.38117,-2.27583 -3.17857,-1.33833 -3.17857,3.73703 0,6.93494 -1.65593,6.27257 -2.5,-1 z m -51.75,-16.57856 c -0.4125,-0.41513 -0.75,-3.1412 -0.75,-6.05794 v -5.30316 l -5.75,3.46726 c -7.51041,4.52879 -8.54526,4.38319 -3.75,-0.5276 l 3.9059,-4 h -4.14394 c -2.27916,0 -4.39042,-0.39884 -4.6917,-0.88631 -0.71793,-1.16164 2.87073,-2.08298 8.17974,-2.10004 4.78446,-0.0154 5.28583,-1.13257 2.25,-5.01365 -2.97375,-3.80172 -2.38506,-4.39548 1.45442,-1.46696 l 3.45443,2.63481 0.67738,-5.10637 c 0.96622,-7.28369 2.41377,-7.28698 2.41377,-0.005 v 6.17403 l 2.66366,-1.7453 c 1.46501,-0.95991 4.27751,-2.65243 6.25,-3.76115 3.13778,-1.76373 2.9297,-1.42505 -1.66366,2.70783 -2.8875,2.59803 -5.25,5.11123 -5.25,5.58487 0,0.47365 2.03053,1.16568 4.5123,1.53784 6.05912,0.90863 6.71699,2.44589 1.04672,2.44589 -2.50746,0 -4.54073,0.3375 -4.51838,0.75 0.0224,0.4125 1.37235,2.308 3,4.21223 5.11714,5.98666 3.36052,7.07178 -2.39665,1.4805 -2.38597,-2.31724 -3.79688,-3.10157 -4.04743,-2.25 -0.21154,0.719 -0.76981,2.80942 -1.24059,4.64538 -0.47078,1.83595 -1.19347,2.99845 -1.60597,2.58333 z M 81.656409,231.22862 c -0.69234,-3.20518 -1.349714,-5.95738 -1.460831,-6.11601 -0.111118,-0.15863 -2.514514,1.1491 -5.340881,2.90607 -2.826367,1.75696 -5.377093,2.95624 -5.66828,2.66505 -0.291187,-0.29119 1.738584,-2.42832 4.510601,-4.74918 2.772018,-2.32087 5.040032,-4.65279 5.040032,-5.18206 0,-0.52926 -2.25,-1.89736 -5,-3.0402 -2.75,-1.14285 -5,-2.51606 -5,-3.05157 0,-0.53552 0.714339,-0.69955 1.58742,-0.36452 0.873081,0.33504 3.362977,0.89308 5.533102,1.24009 l 3.945681,0.63094 -0.640826,-4.0075 c -0.384467,-2.40433 -0.223359,-4.26552 0.402723,-4.65246 0.63612,-0.39314 1.308869,1.12433 1.723112,3.8867 0.37376,2.49241 1.073857,4.77534 1.555772,5.07318 0.481914,0.29784 2.936613,-0.87607 5.454887,-2.60869 5.680383,-3.9082 6.604399,-3.37172 1.962036,1.13916 -1.926436,1.87188 -3.507402,3.74819 -3.513259,4.16959 -0.0059,0.4214 1.564352,1.51724 3.489352,2.43521 1.925,0.91797 3.5,2.04426 3.5,2.50287 0,0.89614 -4.424535,0.0693 -7.184259,-1.34259 -2.723708,-1.39345 -2.814065,-1.18629 -2.701719,6.19428 0.05907,3.88078 -0.127331,7.29069 -0.414229,7.57759 -0.286899,0.2869 -1.088094,-2.10078 -1.780434,-5.30595 z M 185.0361,229.874 l 0.58912,-7.02702 -5.19409,0.53074 -5.19408,0.53074 5.41965,-2.64684 5.41966,-2.64684 -4.41966,-2.40356 -4.41965,-2.40355 4.36881,0.5775 c 3.6941,0.4883 4.2759,0.33535 3.76716,-0.99041 -1.60524,-4.1832 -3.76547,-12.69756 -3.33164,-13.13139 0.26915,-0.26915 2.22328,2.22987 4.34252,5.55339 2.11923,3.32352 4.07815,6.04049 4.35315,6.03772 0.275,-0.003 1.32456,-1.79344 2.33236,-3.97925 1.00779,-2.18581 2.23404,-3.9742 2.725,-3.9742 0.97725,0 0.17243,5.49728 -1.19821,8.18426 -1.33116,2.60957 -1.04723,5.10189 0.513,4.50317 0.75468,-0.2896 3.56718,-0.78656 6.25,-1.10435 l 4.87785,-0.57782 -5.35021,2.60898 -5.3502,2.60898 4.3502,2.54469 c 5.33145,3.11868 5.31249,3.10314 4.62496,3.79067 -0.30722,0.30722 -2.23859,-0.14337 -4.29193,-1.00131 l -3.73334,-1.55989 0.60118,2.75131 c 0.33066,1.51322 0.91506,3.87631 1.29868,5.25131 0.63672,2.28217 0.54594,2.37565 -1.04186,1.07283 -0.95665,-0.78494 -2.39624,-2.69744 -3.1991,-4.25 -0.80286,-1.55256 -1.81538,-2.82283 -2.25005,-2.82283 -0.43466,0 -1.81613,2.475 -3.06993,5.5 -3.1734,7.65642 -4.51397,7.1162 -3.78935,-1.52703 z m -39.29905,-21.47113 c 0,-0.88891 0.50776,-3.63271 1.12836,-6.09733 0.6206,-2.46462 0.9418,-4.66768 0.71378,-4.8957 -0.22802,-0.22802 -2.77261,0.75239 -5.65464,2.17869 -2.88203,1.4263 -5.49118,2.34216 -5.7981,2.03523 -0.30693,-0.30692 1.7299,-2.26615 4.52628,-4.35384 4.94231,-3.68978 6.19946,-5.36889 4.0197,-5.36889 -1.7875,0 -10.93538,-4.19507 -10.93538,-5.01479 0,-0.42268 3.63219,0.0412 8.07153,1.03073 7.42865,1.65594 8.01945,1.66722 7.41764,0.14165 -0.35964,-0.91167 -0.84559,-4.13259 -1.07988,-7.15759 l -0.42599,-5.5 1.83956,3.74788 c 2.6606,5.42062 2.84661,5.4335 5.23049,0.36201 1.1918,-2.53544 2.56735,-4.60989 3.05678,-4.60989 1.20755,0 1.1301,0.88392 -0.57346,6.54441 -0.80483,2.67425 -1.29844,5.02716 -1.0969,5.22869 0.20153,0.20153 2.21003,-0.57412 4.46332,-1.72366 5.20302,-2.65439 5.23703,-1.39055 0.059,2.19106 -2.17913,1.50727 -3.96205,3.1399 -3.96205,3.62807 0,0.48817 2.8125,1.95495 6.25,3.2595 5.83005,2.21256 6.03476,2.39275 3.04663,2.68181 -1.76185,0.17043 -4.84569,-0.14359 -6.85298,-0.69783 -3.47759,-0.96021 -3.62056,-0.90411 -3.03309,1.19012 0.33909,1.20881 0.89377,4.22283 1.23261,6.69783 0.72237,5.27629 -0.73888,4.57375 -2.59992,-1.25 -0.65909,-2.0625 -1.53653,-3.75 -1.94986,-3.75 -0.41334,0 -1.81919,2.27953 -3.12413,5.06562 -2.54876,5.44164 -3.9693,7.02929 -3.9693,4.43622 z m 64.39063,-21.75184 c 0.33515,-2.0625 0.90915,-5.4375 1.27555,-7.5 0.55906,-3.14697 0.43846,-3.57094 -0.75,-2.63652 -1.90924,1.50115 -9.91618,2.67604 -9.91618,1.45504 0,-0.52531 0.95732,-1.62564 2.12737,-2.44518 2.09597,-1.46807 2.07383,-1.51243 -1.5,-3.00568 -5.82427,-2.43353 -4.54974,-3.76786 2.87263,-3.00741 7.18748,0.73637 7.32093,0.59875 4.94142,-5.09621 -2.27489,-5.44458 -1.02183,-5.44064 2.36915,0.007 l 2.94071,4.72468 1.43686,-4.31058 c 1.98286,-5.94858 4.17451,-6.53552 3.64432,-0.97598 -0.38413,4.02799 -0.29478,4.18562 2.13331,3.76366 1.39383,-0.24222 3.32173,-0.77719 4.28423,-1.18882 2.92894,-1.25261 1.93881,0.85093 -1.25632,2.66905 -3.91563,2.22811 -3.78199,3.42604 0.47124,4.22395 5.70455,1.07018 5.1755,2.57256 -0.9059,2.57256 -6.01253,0 -6.54343,0.65398 -4.05902,5 0.78602,1.375 1.44508,3.0625 1.46456,3.75 0.0647,2.28143 -1.89054,1.29383 -3.46456,-1.75 -1.95998,-3.79018 -3.03003,-3.78691 -4.3548,0.0133 -0.57774,1.65733 -1.79598,4.01983 -2.70719,5.25 -1.62582,2.19494 -1.64537,2.1667 -1.04738,-1.51331 z m -116.813781,-14 c 0.326585,-4.2625 0.442897,-7.74513 0.258471,-7.73918 -0.184426,0.006 -2.489104,0.66433 -5.121506,1.46306 -5.988203,1.81696 -5.213892,0.38981 1.996266,-3.67935 l 5.545052,-3.12943 -8.377566,-4.04642 c -8.717844,-4.21078 -8.820317,-6.15011 -0.169211,-3.20239 2.546945,0.86783 4.754631,1.45406 4.905969,1.30272 0.151337,-0.15134 -0.102585,-1.95003 -0.564272,-3.99708 -1.095903,-4.8591 0.251442,-4.73706 3.070104,0.27807 1.236469,2.2 2.583331,4 2.993027,4 0.409695,0 1.457747,-2.4521 2.328997,-5.4491 2.82141,-9.7053 4.67263,-7.84751 2.46016,2.46888 -0.60372,2.81503 -0.83356,5.38234 -0.51076,5.70514 0.3228,0.3228 2.39175,-0.12205 4.59767,-0.98856 4.57667,-1.79777 5.25801,-0.81174 1.38739,2.00781 l -2.62337,1.91099 3.12337,1.29374 c 1.71785,0.71156 3.12336,1.68915 3.12336,2.17242 0,1.17249 -4.24194,1.11739 -7.4349,-0.0966 -3.09178,-1.17549 -3.11074,-0.963 -0.52166,5.84898 1.12334,2.95555 1.8306,5.58557 1.57168,5.84448 -0.25891,0.25891 -1.70825,-1.48427 -3.22076,-3.87373 l -2.75001,-4.34448 -3.330648,7 -3.330644,7 0.593791,-7.75 z M 164.4421,153.65726 c -0.25617,-0.69093 -0.22926,-3.41623 0.0598,-6.05624 l 0.52558,-4.8 -4.1108,1.64481 c -6.09987,2.44069 -7.28497,1.26845 -2.33947,-2.31406 l 4.30102,-3.11563 -4.32059,-1.28953 -4.32059,-1.28952 4.25,-0.32553 c 2.3375,-0.17904 4.25,-0.54852 4.25,-0.82108 0,-0.27256 -1.11308,-2.1336 -2.47351,-4.13566 -1.36043,-2.00205 -2.2851,-3.82851 -2.05481,-4.0588 0.23029,-0.23029 2.41999,1.22119 4.86601,3.22552 l 4.4473,3.64423 1.20724,-5.03237 c 1.40197,-5.84405 3.41165,-6.88923 2.46576,-1.28237 -0.34794,2.0625 -0.84866,4.5375 -1.1127,5.5 -0.58755,2.1418 -0.0658,2.17395 3.69758,0.22783 7.8479,-4.0583 11.22308,-3.65942 4.4509,0.52602 -4.19114,2.59027 -3.87605,3.5195 1.48407,4.37662 5.96548,0.95391 5.15266,2.98262 -0.95971,2.39529 -2.74003,-0.26328 -5.19199,-0.26857 -5.4488,-0.0118 -0.25682,0.25682 1.07235,2.75265 2.9537,5.5463 1.88135,2.79365 3.19795,5.30206 2.92576,5.57424 -0.27218,0.27219 -2.65783,-1.63554 -5.30143,-4.2394 l -4.80655,-4.73427 -1.3413,5.59117 c -1.37413,5.72803 -2.47048,7.47655 -3.29446,5.25419 z M 41.73705,132.40103 c 0,-3.025 -0.3375,-5.48748 -0.75,-5.47218 -0.4125,0.0153 -2.543563,1.38461 -4.735695,3.04292 -5.411372,4.09358 -5.822409,1.83782 -0.629298,-3.45357 2.263246,-2.30608 4.114993,-4.46149 4.114993,-4.7898 0,-0.32831 -2.475,-0.90615 -5.5,-1.2841 -6.87053,-0.85842 -7.201768,-2.54327 -0.5,-2.54327 5.341018,0 5.841869,-0.50469 3.531803,-3.55887 -2.879157,-3.80659 -1.577165,-4.87743 1.869049,-1.53723 3.732716,3.61789 3.620802,3.70046 5.133189,-3.78704 0.907916,-4.49489 2.429779,-2.18805 2.450646,3.7147 l 0.01531,4.33156 3.368034,-2.08156 c 4.881424,-3.01689 5.48915,-2.56116 1.741226,1.30571 -3.638689,3.75418 -3.472518,4.0737 2.644989,5.08599 5.882146,0.97335 4.340794,2.5622 -1.782108,1.83704 -5.444312,-0.6448 -5.910217,-0.0664 -2.972141,3.6897 3.137226,4.01072 2.427869,5.78411 -1,2.5 -2.77021,-2.65403 -3,-2.71601 -3,-0.80921 0,2.18581 -2.688465,9.30921 -3.51342,9.30921 -0.267619,0 -0.48658,-2.475 -0.48658,-5.5 z m 183.47632,-15.15677 c 0.38872,-3.11122 0.96647,-6.33356 1.28389,-7.16074 0.45232,-1.1787 0.054,-1.36095 -1.84154,-0.84269 -5.17527,1.41494 -9.91867,1.88029 -9.91867,0.97308 0,-0.51851 2.1375,-1.84177 4.75,-2.94058 l 4.75,-1.99784 -4.62095,-2.07391 c -8.27448,-3.713645 -6.72578,-5.921858 1.99522,-2.84491 2.26915,0.80061 4.12573,1.08281 4.12573,0.62712 0,-0.45569 -0.92937,-2.929528 -2.06528,-5.497425 -3.22829,-7.298091 -1.9132,-8.462646 2.24653,-1.989368 l 3.68126,5.728686 2.77706,-5.662326 c 2.82063,-5.751151 4.8171,-7.50377 3.8871,-3.412326 -1.81027,7.964109 -2.54687,12.063129 -2.22552,12.384479 0.203,0.20301 2.58079,-0.30183 5.28397,-1.12186 5.79374,-1.757578 5.41584,-1.704319 5.41113,-0.76262 -0.002,0.4125 -2.02706,1.58208 -4.5,2.59906 -2.47294,1.01698 -4.49109,2.14198 -4.48478,2.5 0.006,0.35802 1.83232,1.52349 4.05779,2.58993 4.88862,2.34262 6.31681,4.11789 2.57989,3.20685 -1.45703,-0.35521 -3.76996,-0.91857 -5.13984,-1.25191 l -2.49069,-0.60607 2.07425,4.68918 c 1.14083,2.57905 1.86589,4.89753 1.61124,5.15218 -0.25465,0.25466 -1.91837,-1.37454 -3.69716,-3.62044 l -3.23415,-4.08345 -2.6364,5.53413 c -1.45002,3.04378 -3.02575,5.53558 -3.50162,5.53734 -0.47588,0.002 -0.54718,-2.54235 -0.15846,-5.65357 z M 87.780652,99.901031 c -0.01558,-0.275 0.854004,-3.401735 1.932405,-6.948299 1.0784,-3.546565 1.780113,-6.628914 1.559362,-6.849665 -0.220751,-0.220751 -2.010438,0.129676 -3.977082,0.778728 -5.269626,1.739133 -6.461809,0.730416 -1.683404,-1.424344 2.268814,-1.023093 4.125117,-2.1552 4.125117,-2.515794 0,-0.360594 -2.074431,-2.117819 -4.609847,-3.904945 -5.854458,-4.126603 -5.098761,-5.03519 1.43439,-1.724592 l 5.023411,2.545555 -0.923977,-3.22172 c -0.508187,-1.771946 -0.92205,-4.349691 -0.919696,-5.728322 0.0038,-2.249334 0.301579,-2.058485 2.900896,1.859467 l 2.896614,4.36607 1.714114,-2.61607 c 1.741255,-2.657493 4.086605,-3.649936 3.228315,-1.366069 -0.25837,0.6875 -0.80629,2.323776 -1.2176,3.636168 -0.802462,2.560483 -1.096784,2.536599 6.22338,0.505017 4.24106,-1.177032 2.25504,1.360358 -2.75,3.513469 -2.75,1.183018 -5,2.33464 -5,2.559159 0,0.22452 1.7817,1.40959 3.95934,2.633489 4.30909,2.421847 4.56917,4.434336 0.36657,2.836509 -1.43181,-0.544372 -2.78345,-0.809606 -3.00364,-0.589409 -0.2202,0.220197 0.27228,2.352716 1.0944,4.738931 2.03042,5.893348 1.17426,6.186474 -1.570186,0.537584 -1.234759,-2.541504 -2.550752,-4.620917 -2.924429,-4.620917 -0.373678,0 -1.194278,1.24299 -1.823555,2.7622 -1.085252,2.62003 -5.994756,9.299499 -6.054898,8.2378 z"
             id="path1074"
             inkscape:connector-curvature="0" />
        </g>
      </g>
    </g>
  </g>
</svg>
