<?xml version="1.0" encoding="UTF-8" standalone="no"?>
<!-- Created with Inkscape (http://www.inkscape.org/) -->

<svg
   xmlns:dc="http://purl.org/dc/elements/1.1/"
   xmlns:cc="http://creativecommons.org/ns#"
   xmlns:rdf="http://www.w3.org/1999/02/22-rdf-syntax-ns#"
   xmlns:svg="http://www.w3.org/2000/svg"
   xmlns="http://www.w3.org/2000/svg"
   xmlns:sodipodi="http://sodipodi.sourceforge.net/DTD/sodipodi-0.dtd"
   xmlns:inkscape="http://www.inkscape.org/namespaces/inkscape"
   version="1.1"
   id="svg2949"
   width="283"
   height="443"
   viewBox="0 0 283 443"
   sodipodi:docname="feu153.svg"
   inkscape:version="0.92.4 (5da689c313, 2019-01-14)">
  <metadata
     id="metadata2955">
    <rdf:RDF>
      <cc:Work
         rdf:about="">
        <dc:format>image/svg+xml</dc:format>
        <dc:type
           rdf:resource="http://purl.org/dc/dcmitype/StillImage" />
        <dc:title></dc:title>
      </cc:Work>
    </rdf:RDF>
  </metadata>
  <defs
     id="defs2953" />
  <sodipodi:namedview
     pagecolor="#ffffff"
     bordercolor="#666666"
     borderopacity="1"
     objecttolerance="10"
     gridtolerance="10"
     guidetolerance="10"
     inkscape:pageopacity="0"
     inkscape:pageshadow="2"
     inkscape:window-width="1280"
     inkscape:window-height="972"
     id="namedview2951"
     showgrid="false"
     inkscape:zoom="1.5067919"
     inkscape:cx="123.81687"
     inkscape:cy="224.72047"
     inkscape:window-x="-8"
     inkscape:window-y="-8"
     inkscape:window-maximized="1"
     inkscape:current-layer="g928"
     showguides="true" />
  <g
     id="g151"
     transform="translate(25.882805,-2.654647)">
    <g
       id="g534"
       transform="translate(-21.900834,-45.792654)">
      <g
         id="g928"
         transform="translate(-3.9819699,-1.3273232)">
        <g
           id="g1431"
           transform="translate(3.3183083,-16.591541)">
          <path
             style="fill:#ff00ff"
             d="m 144.97195,394.14737 c -0.34683,-2.8875 -0.63451,-8.36805 -0.63929,-12.179 -0.0103,-8.25154 -1.65222,-13.44525 -4.47205,-14.14643 -1.12015,-0.27854 -7.43664,0.86078 -14.03664,2.53181 -13.50448,3.41915 -15.5,3.63246 -15.5,1.65685 0,-0.92671 2.23931,-1.78542 6.75,-2.58844 10.84748,-1.93114 11.29501,-2.41155 2.91368,-3.12778 -7.55601,-0.6457 -11.02304,-1.93885 -8.83078,-3.29374 0.55395,-0.34236 5.84649,0.0568 11.76121,0.88713 14.78937,2.07606 15.37175,2.04171 11.79075,-0.69549 -4.92137,-3.76173 -15.82527,-13.21851 -17.04618,-14.78388 -1.1806,-1.51368 -0.88464,-3.01103 0.59514,-3.01103 0.7628,0 4.57738,3.42767 14.81925,13.31613 3.96155,3.82485 4.36677,3.9926 5.91195,2.44742 1.54519,-1.54519 1.54395,-2.35097 -0.018,-11.75609 -2.07334,-12.48423 -1.90563,-11.26665 -1.76542,-12.81648 0.0651,-0.71996 0.51533,-1.06371 1.00043,-0.7639 0.48511,0.29981 1.17906,3.58887 1.54211,7.30902 0.9732,9.97222 2.87628,21.2639 3.58379,21.2639 1.08905,0 5.43033,-5.29648 10.40174,-12.6904 2.65901,-3.95472 5.90462,-8.19566 7.21246,-9.42432 2.23736,-2.10189 2.37676,-2.12019 2.35871,-0.30959 -0.0106,1.05837 -1.61119,3.72431 -3.55698,5.92431 -5.62778,6.36305 -14.67671,18.58046 -14.15108,19.10609 0.26396,0.26396 5.59807,1.36689 11.85358,2.45095 12.79807,2.21787 17.87366,3.65246 17.87366,5.0519 0,2.14599 -3.28435,1.86094 -12.86951,-1.11694 -15.31018,-4.75651 -16.06552,-3.86205 -4.17254,4.94105 8.91828,6.60124 11.47528,9.06695 9.40264,9.06695 -0.35168,0 -3.78523,-2.5875 -7.63012,-5.75 -3.84489,-3.1625 -8.79693,-6.75933 -11.00453,-7.99295 l -4.01383,-2.24294 0.6849,6.74294 c 1.65981,16.34112 1.8644,21.24295 0.88662,21.24295 -0.55278,0 -1.28882,-2.3625 -1.63565,-5.25 z m -8.63292,2.5 c 0.0176,-2.04584 2.30296,-8.90135 3.2996,-9.898 1.25787,-1.25786 0.70492,4.66538 -0.76363,8.18012 -1.583,3.78865 -2.55948,4.45012 -2.53597,1.71788 z m 18.41802,0.70075 c -1.15849,-1.80122 -5.43251,-13.28465 -5.0768,-13.64037 0.6177,-0.6177 6.8061,12.70249 6.42817,13.83628 -0.315,0.94498 -0.64869,0.8966 -1.35137,-0.19591 z m -27.43308,-3.26348 c 0,-1.57018 11.30925,-19.14233 12.98723,-20.17938 1.54782,-0.95661 0.0998,2.16174 -5.54761,11.94687 -4.97841,8.62595 -7.43962,11.34948 -7.43962,8.23251 z m 32.82576,-1.68727 c -4.97517,-7.74817 -6.91732,-11.24177 -6.48811,-11.67099 0.93762,-0.93762 8.82365,10.59365 8.4607,12.37158 -0.31781,1.55685 -0.58372,1.46241 -1.97259,-0.70059 z m -39.82576,-1.00834 c 0,-1.25173 13.11517,-14.20983 13.7448,-13.58019 0.53499,0.53498 -0.52725,1.90256 -7.13986,9.19225 -4.75074,5.23719 -6.60494,6.46901 -6.60494,4.38794 z m -4.758,-5.24166 c 0.84872,-2.59604 20.19113,-15.6502 21.39911,-14.44223 0.99711,0.99711 -18.38789,15.69223 -20.70034,15.69223 -0.60909,0 -0.92354,-0.5625 -0.69877,-1.25 z m -4.67197,-5.63669 c -0.30141,-0.48768 0.0512,-1.384 0.78358,-1.99182 1.91924,-1.59282 22.7929,-9.30831 23.43791,-8.6633 0.8022,0.8022 0.57554,0.94129 -10.522,6.45703 -10.26725,5.10306 -12.68272,5.84326 -13.69949,4.19809 z m 55.66074,-1.34408 c -2.31013,-1.1732 -4.06931,-2.26402 -3.90928,-2.42405 0.59101,-0.59101 7.6279,1.76391 8.24251,2.75838 1.17992,1.90914 -0.1119,1.80947 -4.33323,-0.33433 z m -8.98096,-13.35237 c 0.93702,-0.93702 15.00611,-2.47041 16.96422,-1.84893 4.38385,1.39138 1.01168,2.43207 -7.8807,2.43207 -5.31666,0 -9.40425,-0.26241 -9.08352,-0.58314 z m -35.55382,-5.02271 c -6.79818,-2.18828 -10.00038,-4.42309 -8.4949,-5.92858 0.2465,-0.24649 3.56459,1.12153 7.37354,3.04005 3.80895,1.91852 7.46131,3.4896 8.11635,3.4913 0.65504,0.002 1.4691,0.45308 1.80902,1.00308 0.86077,1.39275 0.0549,1.24576 -8.80401,-1.60585 z m 33.30401,2.19723 c 0,-1.13869 15.16328,-7.59138 17.83913,-7.59138 4.45758,0 0.45156,2.7619 -7.38787,5.09347 -3.82319,1.13708 -7.73876,2.3087 -8.70126,2.60361 -0.9625,0.2949 -1.75,0.24734 -1.75,-0.1057 z M 34.393681,361.12548 c -3.503076,-1.77023 -4.389143,-6.0523 -1.905676,-9.20952 3.487191,-4.43324 10.835964,-2.16337 10.835964,3.34698 0,5.19788 -4.456363,8.12338 -8.930288,5.86254 z m 17.486992,-1.95062 c -2.327946,-3.3236 -2.000297,-8.35338 0.665802,-10.22079 1.222379,-0.85618 3.168937,-1.5567 4.325686,-1.5567 2.878875,0 6.451808,4.05065 6.451808,7.31445 0,5.90657 -8.193848,9.10228 -11.443296,4.46304 z m 106.303777,-4.14645 c 7.76165,-7.28969 10.89134,-9.27922 12.33147,-7.83909 0.63631,0.63631 -0.1861,1.82306 -2.35736,3.40175 -1.83402,1.33349 -5.90278,4.31042 -9.04168,6.61541 -8.3042,6.09802 -8.71719,5.13332 -0.93243,-2.17807 z m -28.30729,-2.1502 c -1.47631,-1.93553 -3.77972,-4.70124 -5.11869,-6.14602 -2.345,-2.5303 -3.23965,-5.35411 -1.6845,-5.31685 0.4125,0.01 2.13494,2.14738 3.82765,4.75 1.69271,2.60262 3.88197,5.96953 4.86501,7.48203 2.5442,3.91447 1.29505,3.40597 -1.88947,-0.76916 z m 2.61051,-6.42567 c -3.19294,-7.015 -3.88719,-10.05517 -2.29619,-10.05517 0.90834,0 6.51822,15.9476 5.84626,16.61956 -0.21251,0.21251 -1.81004,-2.74147 -3.55007,-6.56439 z m 11.90659,-0.1385 c 0.0757,-6.91363 1.10917,-11.05335 2.28458,-9.1515 0.66991,1.08394 -0.98604,14.19934 -1.9094,15.12269 -0.24501,0.24501 -0.41384,-2.44203 -0.37518,-5.97119 z m 5.34838,3.2434 c 0.31202,-1.83696 1.5485,-5.43696 2.74773,-8 1.75373,-3.74812 2.25487,-4.24332 2.56079,-2.53049 0.20919,1.17127 -1.02729,4.77127 -2.74773,8 -2.67902,5.02767 -3.04665,5.39094 -2.56079,2.53049 z m -129.918671,0.64498 c -2.692456,-1.52679 -3.466506,-2.82737 -3.484687,-5.85505 -0.02119,-3.5282 1.73897,-4.95 6.127983,-4.95 6.095826,0 8.959785,5.89692 4.856704,10 -2.240268,2.24027 -4.534723,2.48656 -7.5,0.80505 z m 50.6075,-2.65408 c -2.742038,-3.85084 -2.657602,-5.50996 0.437955,-8.60552 4.057377,-4.05737 8.424823,-2.93807 10.376047,2.65922 0.959698,2.75299 0.846573,3.63085 -0.743687,5.7711 -2.841929,3.82482 -7.414904,3.90438 -10.070315,0.1752 z m 149.931461,-4.33953 c -1.12143,-1.20371 -2.03896,-2.77871 -2.03896,-3.5 0,-0.72129 -0.46156,-1.31144 -1.02568,-1.31144 -1.59398,0 1.77983,-5.79805 4.09468,-7.03693 2.68596,-1.43748 7.68594,-0.28948 8.93932,2.05247 4.10542,7.67105 -4.27618,15.90681 -9.96936,9.7959 z m 18.96104,0.18856 c -3.99779,-3.99779 -1.84915,-11.83728 3.32143,-12.11848 5.7036,-0.3102 8.67857,1.95197 8.67857,6.59915 0,6.30765 -7.67953,9.8398 -12,5.51933 z m -230.0000014,-10 c -2.6701123,-2.67011 -2.5275994,-6.56331 0.3454229,-9.43633 2.7997725,-2.79977 6.9208265,-2.44933 9.1833845,0.78092 2.002663,2.8592 1.849264,4.90505 -0.601387,8.02055 -2.490713,3.16643 -6.136581,3.4257 -8.9274204,0.63486 z m 195.0000014,0 c -2.73035,-2.73035 -2.51059,-6.58032 0.55032,-9.64123 5.85426,-5.85426 14.57194,2.4022 9.43362,8.93451 -2.59223,3.2955 -7.07766,3.613 -9.98394,0.70672 z m 51.90629,-0.0937 c -1.68067,-1.68067 -1.96418,-2.81501 -1.43709,-5.75 0.76237,-4.24519 2.81467,-6.15629 6.61115,-6.15629 4.17022,0 7.25086,3.05557 7.13648,7.07842 -0.1784,6.27459 -7.85375,9.28466 -12.31054,4.82787 z M 81.62673,333.20042 c -2.816482,-1.36078 -4.63576,-6.31232 -3.26222,-8.8788 1.19714,-2.23688 4.094699,-3.92425 6.73873,-3.92425 4.844185,0 7.039877,8.18085 3.220729,12 -2.22008,2.22008 -3.457277,2.36843 -6.697239,0.80305 z m 115.94724,-15.32508 c -1.64667,-1.16466 -2.24589,-2.58172 -2.23469,-5.28467 0.0186,-4.48645 0.76449,-5.77888 4.05767,-7.03095 4.19939,-1.5966 8.83496,2.01622 8.89522,6.93266 0.0602,4.91668 -6.62814,8.27576 -10.7182,5.38296 z m 65.75,-1.47797 c -3.95377,-3.95377 -1.35518,-11 4.0567,-11 3.3214,0 6.9433,3.05949 6.9433,5.86514 0,2.94778 -3.85711,7.13486 -6.57258,7.13486 -1.33508,0 -3.32742,-0.9 -4.42742,-2 z M 14.823969,315.20242 c -2.805001,-1.59061 -3.467129,-2.83176 -3.484688,-6.532 -0.02733,-5.75939 6.339501,-7.93518 10.234524,-3.49752 2.942743,3.35271 3.05205,6.01349 0.357722,8.70782 -2.770265,2.77027 -4.112805,3.01992 -7.107558,1.3217 z m 64.696122,-0.5871 c -2.503027,-0.40326 -4.196122,-3.66469 -4.196122,-8.08305 0,-3.49079 1.664956,-5.1349 5.2,-5.1349 3.834883,0 6.8,3.21696 6.8,7.37756 0,4.52096 -2.833074,6.64122 -7.803878,5.84039 z M 25.546475,300.84067 c -1.621162,-1.13551 -2.218363,-2.556 -2.207193,-5.25 0.02036,-4.91145 0.965039,-6.15357 5.203028,-6.84131 5.004784,-0.81216 8.246261,2.39758 7.439835,7.367 -0.931759,5.74175 -5.822209,7.9557 -10.43567,4.72431 z m 40.092866,-0.4596 c -4.46916,-1.7816 -5.778666,-9.84536 -2.025708,-12.47404 3.164712,-2.21665 5.123399,-1.86726 8.416866,1.50138 2.263157,2.31481 2.843502,3.69471 2.509879,5.96783 -0.655068,4.46327 -4.639552,6.70364 -8.901037,5.00483 z m 75.684629,-0.27858 c -1.89842,-0.95005 -2.57609,-2.17155 -2.81621,-5.07621 -0.57862,-6.99922 5.98146,-10.27526 10.6419,-5.31446 2.62852,2.79794 2.77695,5.76703 0.42431,8.48787 -2.37082,2.74188 -5.24753,3.40537 -8.25,1.9028 z m 60.3997,0.52957 c -1.71859,-1.14754 -3.3997,-4.86309 -3.3997,-7.51396 0,-3.30369 3.17288,-5.94508 6.66157,-5.54569 3.86967,0.44302 7.07361,6.56444 5.24883,10.02839 -1.49474,2.83745 -2.82868,3.76594 -5.4104,3.76594 -1.1,0 -2.49513,-0.3306 -3.1003,-0.73468 z m -84.05332,-3.48469 c -3.59097,-4.0353 -2.46858,-9.99264 2.21838,-11.77462 6.62501,-2.51882 12.30368,6.56859 7.39628,11.83606 -2.66271,2.85809 -7.0415,2.83011 -9.61466,-0.0614 z m 144.10817,-0.20455 c -2.71534,-2.71533 -3.02655,-4.59023 -1.30485,-7.86119 3.03575,-5.76744 8.8832,-4.60155 10.80983,2.15531 0.82732,2.90148 0.63603,3.65578 -1.45819,5.75 -3.05148,3.05148 -4.96167,3.04101 -8.04679,-0.0441 z M 43.960546,292.14737 c -3.576427,-3.25136 -4.047229,-5.95822 -1.581514,-9.09287 3.678916,-4.67699 11.029928,-2.67907 12.458821,3.38615 0.780647,3.31362 -2.738537,7.95672 -6.0307,7.95672 -1.304411,0 -3.485384,-1.0125 -4.846607,-2.25 z m 115.031724,-4.00328 c -2.64688,-1.93544 -3.33127,-8.35667 -1.14783,-10.76934 2.56484,-2.83411 7.05875,-2.53445 10.02728,0.66864 3.0906,3.33482 3.07196,4.46405 -0.13664,8.27725 -2.74338,3.26033 -5.88242,3.91502 -8.74281,1.82345 z m 87.9747,-0.8129 c -3.52398,-2.77196 -4.21092,-7.7004 -1.47867,-10.60874 5.86007,-6.23776 14.34802,2.21532 9.36626,9.32778 -2.09225,2.9871 -5.09801,3.47525 -7.88759,1.28096 z m -36.07157,-1.50525 c -1.79315,-1.79315 -2.06661,-6.6348 -0.53625,-9.49431 2.11692,-3.95549 10.96482,-1.02512 10.96482,3.63148 0,1.92482 -1.9121,5.67565 -3.3997,6.66895 -1.86684,1.24651 -5.37904,0.84371 -7.02887,-0.80612 z m -106.93507,-4.06493 c -2.84627,-2.84627 -3.44474,-6.96812 -1.38636,-9.54819 4.6362,-5.81121 12.642,-2.75072 12.7182,4.86197 0.0227,2.26512 -0.72472,3.7725 -2.60306,5.25 -3.49175,2.74661 -5.55141,2.61358 -8.72878,-0.56378 z m 124.13691,-0.11364 c -4.40794,-5.01975 -2.36271,-11.25 3.69308,-11.25 3.7278,0 6.53365,2.7914 6.53365,6.5 0,5.52547 -6.78035,8.67473 -10.22673,4.75 z m -63.61173,-14 c -1.13302,-0.9625 -2.35551,-3.42448 -2.71665,-5.47106 -0.57534,-3.2605 -0.27792,-4.09975 2.40299,-6.78066 2.49267,-2.49268 3.57773,-2.93573 5.85586,-2.39106 3.86914,0.92507 5.01583,2.01303 6.33521,6.01079 0.94563,2.86531 0.85973,3.88767 -0.50115,5.96464 -1.57822,2.40868 -5.21243,4.41735 -7.99212,4.41735 -0.72826,0 -2.25113,-0.7875 -3.38414,-1.75 z m -64.37224,-7 c -2.247252,-2.58614 -2.955787,-6.7905 -1.633456,-9.6927 1.596746,-3.50446 6.935106,-3.55726 10.389606,-0.10275 2.81843,2.81842 3.13698,6.12614 0.89785,9.32294 -1.93342,2.76034 -7.43211,3.02947 -9.654,0.47251 z m -49.77368,-14 c 0.0086,-0.9625 0.667562,-4.45 1.464378,-7.75 0.796817,-3.3 1.459367,-7.125 1.472334,-8.5 0.02055,-2.17938 -0.285681,-1.95914 -2.387826,1.7173 -1.326272,2.31952 -2.992737,5.82495 -3.703256,7.78986 -1.232812,3.40928 -4.41873,7.27269 -5.280473,6.40338 -0.420285,-0.42398 0.554208,-2.4773 6.839149,-14.41054 l 3.686726,-7 -8.102188,8.25 c -4.456204,4.5375 -8.530201,8.25 -9.053327,8.25 -2.140032,0 -0.589026,-2.37641 6.298862,-9.65095 7.616549,-8.0441 7.241997,-8.14502 -3.112061,-0.83853 -5.756831,4.06239 -11.208817,6.03121 -9.630759,3.47786 0.639331,-1.03446 8.997414,-6.4812 13.49282,-8.79292 1.375,-0.70708 3.625,-2.15932 5,-3.22721 2.683712,-2.0843 2.39249,-1.99206 -13.185381,4.17644 -5.651259,2.23778 -6.814619,2.30505 -6.814619,0.39405 0,-0.86914 1.92477,-2.06021 4.75,-2.93937 7.448556,-2.31786 17.313035,-5.87291 17.017857,-6.13305 -0.642732,-0.56645 -13.695463,1.69856 -18.022315,3.12737 -2.614952,0.8635 -5.314952,1.37145 -6,1.12876 -0.685048,-0.24268 0.779458,-1.00749 3.254458,-1.69957 9.563294,-2.67417 9.866298,-2.85879 4.831787,-2.94393 -5.26166,-0.089 -8.063876,-0.89441 -7.316897,-2.10304 0.276872,-0.44799 4.886787,-0.6233 10.244257,-0.38958 9.088844,0.39651 9.540047,0.32719 6.740853,-1.03558 -1.65,-0.8033 -3.535942,-1.48084 -4.190983,-1.50565 -0.655041,-0.0248 -1.509659,-0.56073 -1.899153,-1.19094 -0.501785,-0.81191 0.09788,-0.94354 2.057646,-0.45167 1.5212,0.3818 4.175818,0.94047 5.899153,1.2415 l 3.133337,0.54732 -3,-1.86475 c -1.65,-1.02561 -5.475,-2.95526 -8.5,-4.28812 -6.289186,-2.77109 -10.270717,-5.77139 -6,-4.52132 1.375,0.40247 4.975,2.0248 8,3.60518 3.025,1.58038 5.86315,2.87438 6.307,2.87556 0.44385,0.001 -1.91865,-2.52133 -5.25,-5.60557 -5.341334,-4.94514 -7.530857,-8.39229 -5.330516,-8.39229 0.399566,0 3.986404,3.23816 7.97075,7.19592 3.984346,3.95775 7.456607,6.98357 7.716137,6.72404 0.25953,-0.25953 -1.782737,-3.54226 -4.538371,-7.29496 -2.755634,-3.7527 -4.817565,-7.01577 -4.58207,-7.25126 0.235495,-0.2355 1.71008,1.27157 3.276857,3.34904 1.566777,2.07747 5.213956,6.10487 8.104842,8.94977 l 5.256158,5.17256 1.37172,-2.67256 c 2.67026,-5.20252 7.797162,-14.39503 9.351749,-16.76763 1.622053,-2.47557 3.345744,-3.18832 3.345744,-1.38348 0,1.13065 -4.77666,8.9015 -6.442633,10.48112 -1.180065,1.11889 -4.557367,6.97459 -4.557367,7.90173 0,1.50398 2.346073,0.22378 7.698084,-4.20068 7.634311,-6.31121 10.44385,-8.20361 12.17941,-8.20361 1.974844,0 -0.949695,3.1486 -7.156592,7.70488 -2.648194,1.94395 -4.649533,3.69982 -4.447419,3.90194 0.202113,0.20211 3.260763,-1.19152 6.796998,-3.09696 7.171388,-3.86418 7.929519,-4.07529 7.929519,-2.20814 0,0.71595 -4.1625,3.27057 -9.25,5.67695 -5.0875,2.40637 -10.316495,5.05772 -11.619989,5.8919 l -2.369989,1.51669 2.230773,1.80637 c 1.606882,1.30117 1.80646,1.80637 0.713609,1.80637 -1.024835,0 -1.347444,0.64901 -0.994153,2 0.666915,2.55029 -2.191516,2.74933 -3.590242,0.25 -0.877418,-1.56782 -1.080703,-1.48349 -1.952754,0.81014 -0.53536,1.40807 -1.475291,6.68808 -2.088735,11.73334 -1.066329,8.77 -2.426278,14.20652 -3.553769,14.20652 -0.288613,0 -0.517722,-0.7875 -0.50913,-1.75 z m 108.40339,-0.74008 c -1.80828,-1.80829 -2.36597,-3.24577 -2.03678,-5.25 0.24932,-1.51796 0.49031,-3.08705 0.53554,-3.48687 0.0452,-0.39982 1.14649,-1.42427 2.44725,-2.27657 2.9516,-1.93396 6.79032,-0.71523 9.16561,2.90992 1.89151,2.88682 1.29595,5.74561 -1.79732,8.62743 -2.82667,2.63345 -5.31365,2.47673 -8.3143,-0.52391 z m -101.786228,-0.0245 c -0.926531,-2.4145 -0.772041,-8.28133 0.234451,-8.90338 1.164091,-0.71944 2.385242,8.56547 1.272833,9.67788 -0.499336,0.49934 -1.145969,0.16707 -1.507284,-0.7745 z m 6.117217,-0.81721 c -0.4125,-1.00748 -0.721476,-3.25748 -0.686614,-5 0.06186,-3.09189 0.08706,-3.10891 1.046014,-0.70671 0.540445,1.35382 0.849421,3.60382 0.686614,5 -0.253282,2.17205 -0.404282,2.27407 -1.046014,0.70671 z m 44.806701,-2.89072 c -1.8453,-2.63454 -2.05586,-8.87833 -0.3567,-10.57749 0.66,-0.66 2.65948,-1.2 4.4433,-1.2 3.78238,0 6.3567,2.92495 6.3567,7.22251 0,5.84817 -7.30564,9.03462 -10.4433,4.55498 z m -37.556701,0.84463 c 0,-0.20783 -0.681039,-2.00783 -1.51342,-4 -1.880505,-4.50068 -1.107851,-4.68929 1.52438,-0.37212 2.22184,3.64408 2.452113,4.75 0.98904,4.75 -0.55,0 -1,-0.17004 -1,-0.37788 z m 4.291447,-6.31067 c -1.742173,-2.0963 -4.207955,-5.15632 -5.479517,-6.80005 l -2.31193,-2.98859 3.103899,2.20266 c 3.710784,2.63332 8.681699,8.91774 8.199085,10.36558 -0.189173,0.56752 -1.769364,-0.6833 -3.511537,-2.7796 z m 70.087114,1.53533 c -2.65149,-0.71127 -3.21593,-1.42829 -3.74911,-4.76259 -0.8091,-5.05984 -0.0317,-6.93657 3.23085,-7.80018 5.27249,-1.39563 9.1397,1.2192 9.1397,6.17985 0,5.47948 -3.18871,7.84026 -8.62144,6.38292 z m -19.58926,-4.59678 c -2.70545,-3.11343 -3.04366,-6.99564 -0.80453,-9.23477 5.76053,-5.76053 14.84045,2.12337 9.81035,8.5181 -2.30785,2.93396 -6.7705,3.28909 -9.00582,0.71667 z m -68.789301,-0.75 c 0,-0.825 0.176855,-1.5 0.393011,-1.5 0.216156,0 0.652033,0.675 0.968615,1.5 0.316583,0.825 0.139728,1.5 -0.393011,1.5 -0.532738,0 -0.968615,-0.675 -0.968615,-1.5 z m 21.784796,-1.32116 c -1.806638,-1.55164 -4.397424,-3.57664 -5.757302,-4.5 -1.359879,-0.92336 -1.900762,-1.67884 -1.201964,-1.67884 1.832263,0 12.17447,6.78545 12.17447,7.98758 0,1.74394 -1.809283,1.11645 -5.215204,-1.80874 z m -12.784796,0.32116 c 0,-0.825 0.176855,-1.5 0.393011,-1.5 0.216156,0 0.652033,0.675 0.968615,1.5 0.316583,0.825 0.139728,1.5 -0.393011,1.5 -0.532738,0 -0.968615,-0.675 -0.968615,-1.5 z m 155.795901,-0.61231 c -0.69877,-2.09629 1.34245,-10.7268 2.65625,-11.23095 0.92736,-0.35587 0.99026,0.86005 0.26846,5.18925 -0.9708,5.82264 -2.17118,8.3023 -2.92471,6.0417 z m -6.7959,-1.20955 c 0,-1.89321 3.10338,-11.00016 4.13291,-12.12814 0.4769,-0.5225 0.85951,-1.6475 0.85024,-2.5 -0.009,-0.8525 -1.0165,0.025 -2.23831,1.95 -4.09774,6.45614 -8.7841,10.88523 -8.72922,8.25 0.009,-0.4125 1.81354,-2.775 4.01099,-5.25 2.19745,-2.475 4.26718,-5.52437 4.59941,-6.77638 0.33222,-1.25201 1.50658,-2.7594 2.60969,-3.34977 1.60661,-0.85983 1.8379,-0.80484 1.16251,0.27638 -0.46373,0.74237 -0.88294,3.61431 -0.93159,6.38209 -0.0487,2.76777 -0.96104,7.15358 -2.02754,9.74625 -1.87846,4.56654 -3.43909,6.10924 -3.43909,3.39957 z m 13.29257,-4.17814 c -0.66409,-3.3 -1.48278,-7.97594 -1.81933,-10.39099 -0.33654,-2.41504 -1.32456,-5.47865 -2.19559,-6.80802 l -1.58371,-2.41704 -4.09697,3.98168 c -7.12597,6.92543 -13.06989,12.13437 -13.84653,12.13437 -1.81598,0 -0.40763,-2.09114 3.99956,-5.93863 l 4.75,-4.14675 -5.21676,2.54269 c -2.86921,1.39848 -5.68171,2.54269 -6.25,2.54269 -2.29575,0 -0.76214,-1.65112 4.03754,-4.3469 2.78781,-1.5658 4.82313,-3.09252 4.52293,-3.39272 -0.3002,-0.3002 -3.29384,0.45616 -6.65253,1.6808 -3.3587,1.22464 -6.3586,1.97474 -6.66645,1.66688 -1.13959,-1.13959 1.91199,-3.41875 6.00551,-4.48538 7.61608,-1.98449 7.84717,-3.21438 0.46976,-2.50006 -5.85223,0.56664 -6.75,0.4357 -6.75,-0.98453 0,-0.90095 0.7875,-1.646 1.75,-1.65566 2.79883,-0.0281 15.72245,-1.21536 16.02871,-1.4725 0.15329,-0.12871 -3.8197,-0.69159 -8.82888,-1.25085 -5.00917,-0.55926 -9.63459,-1.57929 -10.27871,-2.26673 -1.19588,-1.27632 1.54293,-1.16911 16.00964,0.62672 5.35551,0.6648 6.08654,0.002 3.88661,-3.52358 -0.64739,-1.03751 -0.50939,-1.19728 0.52812,-0.61142 0.77248,0.4362 -1.40799,-2.09387 -4.84549,-5.62239 -5.66343,-5.81339 -7.53798,-8.83833 -5.5,-8.87528 0.4125,-0.007 3.14282,2.58002 6.06738,5.75 l 5.31738,5.7636 -3.80056,-7.18349 c -2.0903,-3.95092 -3.46597,-7.51807 -3.05704,-7.927 1.07331,-1.07332 3.21688,2.04624 7.44883,10.84037 2.90267,6.03184 4.35053,7.94975 6.59102,8.73079 2.64711,0.92278 2.95904,0.76824 3.99634,-1.97988 0.61882,-1.63943 1.47647,-2.98079 1.90589,-2.98079 1.10277,0 0.96919,2.7794 -0.24238,5.04324 -0.82553,1.54252 -0.72896,1.79886 0.5,1.32727 0.83773,-0.32147 1.52314,-0.97015 1.52314,-1.44152 0,-0.47136 2.55798,-3.60069 5.6844,-6.95406 3.12642,-3.35337 6.20316,-6.80648 6.8372,-7.67358 0.63404,-0.8671 1.78623,-1.36541 2.56041,-1.10735 0.95973,0.31991 -0.5794,2.53848 -4.8372,6.97254 -7.24499,7.54491 -8.06547,9.42369 -1.99481,4.56783 5.7428,-4.5936 11.75,-8.12121 11.75,-6.89996 0,0.54864 -1.9125,2.46542 -4.25,4.2595 -7.33329,5.62845 -7.5906,5.62254 6.13645,0.14103 0.8676,-0.34645 1.21585,-0.0418 0.93059,0.81395 -0.25073,0.75217 -2.44963,2.09085 -4.88645,2.97485 -2.43683,0.88399 -6.00559,2.33748 -7.93059,3.22998 l -3.5,1.62271 6,-0.57511 c 3.3,-0.31631 6.75792,-0.96351 7.68426,-1.43821 2.23437,-1.14502 5.81574,-1.10222 5.81574,0.0695 0,1.15725 -1.58746,1.61145 -10.8153,3.09447 -4.02342,0.64661 -7.05554,1.43541 -6.73806,1.75289 0.31748,0.31748 4.28437,0.6727 8.8153,0.78936 10.23543,0.26355 9.98349,0.22454 9.23806,1.43067 -0.33992,0.55 -4.75398,1.04437 -9.80902,1.0986 l -9.19098,0.0986 7.45986,2.4446 c 12.08428,3.96002 9.80948,4.60211 -3.35217,0.94619 -3.24077,-0.90019 -6.04522,-1.48379 -6.23212,-1.29689 -0.1869,0.1869 2.83063,1.87358 6.70561,3.74817 6.72566,3.25367 9.73566,5.47723 8.74945,6.46344 -0.24991,0.2499 -3.98969,-1.56032 -8.31063,-4.02271 -4.32094,-2.46239 -8.04983,-4.2835 -8.28643,-4.04691 -0.23659,0.2366 2.29726,2.37344 5.63077,4.74854 5.66028,4.0329 7.82065,6.46671 6.71851,7.56885 -0.25533,0.25533 -4.09377,-2.73408 -8.52989,-6.64312 -11.56479,-10.19076 -14.01691,-9.45097 -11.36804,3.42967 0.7765,3.77591 1.27756,8.46228 1.11345,10.41414 -0.26827,3.1908 -0.42018,2.94351 -1.5058,-2.45117 z m 6.32127,0.48582 c -2.44909,-5.551 -1.42391,-7.45035 1.2283,-2.27566 2.28219,4.45275 2.67658,6.28984 1.35031,6.28984 -0.44416,0 -1.60453,-1.80638 -2.57861,-4.01418 z M 77.323969,224.42427 c -12.318198,-4.60623 -13.290656,-5.16418 -8,-4.59005 4.920743,0.53398 13.630009,2.99439 15.991641,4.51772 0.978828,0.63137 1.150723,1.29128 0.5,1.9195 -0.636037,0.61405 -3.681153,-0.0483 -8.491641,-1.84717 z m 162.600511,-1.68595 c -1.95301,-2.66252 -3.56208,-5.25689 -3.57572,-5.76526 -0.0401,-1.49619 5.03411,3.67221 6.64396,6.76724 2.45563,4.7211 0.71209,4.15172 -3.06824,-1.00198 z M 75.323969,217.39737 c -9.83257,-0.57839 -9.572372,-1.49727 0.701693,-2.47799 7.124362,-0.68007 11.298307,-0.15224 11.298307,1.42875 0,1.32067 -2.970422,1.58039 -12,1.04924 z m -6,-4.45982 c 0,-0.6704 12.874902,-4.54018 15.105335,-4.54018 4.245964,0 1.450596,1.73817 -5.355335,3.32997 -7.409676,1.73301 -9.75,2.0235 -9.75,1.21021 z m -39,-3.28579 c -2.475,-0.87325 -3.941422,-1.77392 -3.258715,-2.00148 1.694205,-0.56474 8.258715,1.68045 8.258715,2.82464 0,0.50735 -0.1125,0.88692 -0.25,0.8435 -0.1375,-0.0434 -2.275,-0.79342 -4.75,-1.66666 z m 96.075461,-7.36619 c -1.89103,-2.55776 -2.14146,-3.66687 -1.40656,-6.22934 0.49176,-1.71464 2.08709,-3.78714 3.54519,-4.60555 2.37548,-1.33332 3.01924,-1.31247 6.19225,0.20064 5.61797,2.67902 6.25919,10.21052 1.07058,12.57461 -4.28744,1.95349 -6.92508,1.40911 -9.40146,-1.94036 z m -60.581707,1.1118 c 0.482719,-0.825 2.664542,-3.6375 4.848495,-6.25 3.674545,-4.39558 5.69631,-5.83175 5.631017,-4 -0.03177,0.8912 -6.671089,8.11142 -9.425346,10.25 -1.717188,1.33333 -1.834318,1.33333 -1.054166,0 z m 84.540717,-1.94447 c -3.53627,-0.90277 -6.35556,-6.0808 -5.10364,-9.37359 1.39045,-3.65718 4.16531,-4.89299 7.99161,-3.55913 6.557,2.28578 6.89543,9.94288 0.57756,13.06756 -0.55,0.27202 -2.10949,0.21134 -3.46553,-0.13484 z m -38.71329,-5.24426 c -1.19835,-0.57936 -2.73558,-2.39752 -3.41607,-4.04035 -1.79089,-4.32361 0.65246,-8.15731 5.46698,-8.57789 6.84792,-0.59821 10.06482,6.46097 5.17336,11.35242 -2.66422,2.66423 -3.88818,2.87869 -7.22427,1.26582 z m -50.285195,-0.81127 c -0.04312,-2.60481 2.021607,-9 2.905707,-9 1.013604,0 -0.197111,5.87652 -1.768425,8.58352 -0.811853,1.39862 -1.11916,1.51116 -1.137282,0.41648 z m 141.525425,-0.89328 c -2.71623,-0.95605 -5.11623,-2.27117 -5.33334,-2.9225 -0.51029,-1.53088 -0.68554,-1.565 6.04496,1.17677 9.30519,3.79061 8.7773,5.08562 -0.71162,1.74573 z M 56.323969,190.56404 c 0,-2.29167 0.421708,-4.16667 0.937129,-4.16667 0.519114,0 0.679008,1.67273 0.358459,3.75 -0.80127,5.19253 -1.295588,5.3515 -1.295588,0.41667 z M 210.7651,192.8422 c -1.86402,-1.49339 -1.85176,-1.51185 0.30887,-0.46481 1.2375,0.59969 2.25,1.29951 2.25,1.55516 0,0.76522 -0.51861,0.54424 -2.55887,-1.09035 z M 44.323969,191.39737 c -0.639122,-1.19421 -0.937041,-2.39629 -0.662041,-2.67129 0.275,-0.275 1.022919,0.47708 1.662041,1.67129 0.639122,1.19421 0.937041,2.39629 0.662041,2.67129 -0.275,0.275 -1.022919,-0.47708 -1.662041,-1.67129 z m 117.025441,-2.97456 c -4.9575,-4.9575 -2.31623,-12.02544 4.49389,-12.02544 6.05016,0 8.46021,6.2137 4.40809,11.36514 -2.483,3.15663 -6.13479,3.42749 -8.90198,0.6603 z m 43.97456,0.91554 c 0,-0.58246 0.45,-0.7809 1,-0.44098 0.55,0.33992 1,0.81648 1,1.05902 0,0.24254 -0.45,0.44098 -1,0.44098 -0.55,0 -1,-0.47656 -1,-1.05902 z m 12.14069,-5.46198 c -2.32685,-7.08809 -2.63805,-9.479 -1.23376,-9.479 0.84486,0 3.22711,6.93161 4.55377,13.25 1.1154,5.31227 -1.20243,2.67959 -3.32001,-3.771 z m 11.85931,5.58201 c 0,-1.21661 2.59374,-12.12934 3.53536,-14.87439 0.24778,-0.72236 0.86755,-1.05564 1.37726,-0.74062 0.52919,0.32705 -0.0758,3.82222 -1.41028,8.14739 -2.28913,7.41938 -3.50234,10.00616 -3.50234,7.46762 z M 49.402916,187.81404 c 0.04798,-1.16495 0.284941,-1.4019 0.604167,-0.60417 0.288871,0.72187 0.253344,1.58437 -0.07895,1.91667 -0.332292,0.33229 -0.568641,-0.25834 -0.52522,-1.3125 z m 151.363754,-0.83491 c -1.06675,-0.78003 -1.66651,-1.69128 -1.33279,-2.025 0.33372,-0.33372 1.68301,0.28951 2.99843,1.38497 2.71677,2.26247 1.29849,2.80746 -1.66564,0.64003 z m 25.89351,-5.58176 c 0,-4.125 0.17651,-5.8125 0.39226,-3.75 0.21574,2.0625 0.21574,5.4375 0,7.5 -0.21575,2.0625 -0.39226,0.375 -0.39226,-3.75 z m 6.68939,5.71676 c -0.0425,-1.30151 4.86193,-10.52922 5.95538,-11.20501 0.56046,-0.34638 1.01902,-0.24487 1.01902,0.22557 0,1.0976 -6.94029,12.02334 -6.9744,10.97944 z m -10.86771,-4.71676 c 0,-1.375 0.22698,-1.9375 0.50439,-1.25 0.27741,0.6875 0.27741,1.8125 0,2.5 -0.27741,0.6875 -0.50439,0.125 -0.50439,-1.25 z m -121.07338,-1.92661 c -1.687785,-1.06834 -1.649422,-9.68779 0.0522,-11.73817 1.7391,-2.09548 6.28129,-1.58359 8.68894,0.97923 4.24641,4.5201 1.70466,11.69823 -4.13239,11.67024 -1.75632,-0.008 -3.83027,-0.41851 -4.60879,-0.9113 z m 119.57178,-5.27972 c -0.54046,-2.06672 -0.12194,-3.64332 0.71948,-2.71034 1.01817,1.12898 1.64083,4.91667 0.80825,4.91667 -0.52292,0 -1.21039,-0.99285 -1.52773,-2.20633 z m -52.09463,-2.92383 c -2.26721,-1.78338 -2.64654,-2.69544 -2.15119,-5.17221 0.33078,-1.65386 1.10383,-3.6124 1.71791,-4.35232 1.64521,-1.98236 6.29894,-1.63559 8.34163,0.62155 5.28636,5.84136 -1.74187,13.75353 -7.90835,8.90298 z m -70.00384,-8.80595 c -2.446538,-2.70339 -2.486167,-8.9119 -0.06817,-10.67998 5.17245,-3.78219 11.26352,0.44043 10.6255,7.36609 -0.19826,2.15211 -4.01023,5.25 -6.46016,5.25 -1.28976,0 -3.133485,-0.87125 -4.09717,-1.93611 z m 70.44218,-6.85666 c -3.72284,-0.59397 -5,-2.07716 -5,-5.80662 0,-4.35264 3.45155,-6.93983 7.30422,-5.47505 7.2308,2.74915 5.24217,12.48568 -2.30422,11.28167 z m -63.54775,-8.85325 c -1.34874,-1.45532 -2.45225,-3.67265 -2.45225,-4.92742 0,-4.65505 9.02091,-8.51615 11.87162,-5.08125 2.32013,2.79558 2.37782,7.06786 0.13396,9.92047 -2.75971,3.50839 -6.35286,3.54157 -9.55333,0.0882 z m 52.58222,-3.29793 c -1.35604,-0.34647 -3.29661,-2.05295 -4.31237,-3.79219 -1.53353,-2.62575 -1.64122,-3.55258 -0.63477,-5.46305 1.56679,-2.97414 2.82463,-3.76671 6.00768,-3.7855 4.813,-0.0284 6.26551,3.21422 5.01677,11.19951 -0.22141,1.41585 -3.66219,2.4583 -6.07731,1.84123 z m -37.37948,-5.88479 c -2.09608,-2.31613 -2.14512,-8.53827 -0.0836,-10.59983 3.84851,-3.84847 11.42861,-0.36353 11.42861,5.25426 0,5.7524 -7.69541,9.37834 -11.34501,5.34557 z m 17.41759,-2.80612 c -2.33101,-2.9634 -2.55242,-4.60003 -1.01178,-7.47875 2.4467,-4.57169 9.07337,-4.4614 11.47925,0.19105 1.95953,3.78932 1.84003,5.54248 -0.54005,7.92256 -2.87752,2.87752 -7.39166,2.58884 -9.92742,-0.63486 z"
             id="path1437"
             inkscape:connector-curvature="0" />
          <path
             style="fill:#00ffff"
             d="m 144.96643,393.25068 c -0.35335,-3.38068 -0.59071,-9.11818 -0.52746,-12.75 0.10633,-6.10537 0.17526,-6.30168 0.91416,-2.60331 1.46723,7.34389 2.28518,21.5 1.24228,21.5 -0.54259,0 -1.27563,-2.76601 -1.62898,-6.14669 z m -8.5683,2.89669 c 0.0408,-1.2375 0.93815,-4.05 1.99413,-6.25 l 1.91995,-4 -0.61025,4.5 c -0.87267,6.43508 -3.47574,10.96547 -3.30383,5.75 z m 16.97078,-2.04711 c -1.19911,-2.6384 -1.99776,-5.3384 -1.77477,-6 0.22299,-0.66159 1.38894,1.01558 2.59099,3.72703 1.20206,2.71146 2.0007,5.41146 1.77477,6 -0.22594,0.58855 -1.39188,-1.08862 -2.59099,-3.72703 z m -25.52131,-0.95289 c 0.7321,-2.50185 11.01752,-18.34838 12.50663,-19.2687 1.5359,-0.94924 -0.0484,2.39202 -5.81719,12.2687 -5.12714,8.77804 -8.12891,11.91917 -6.68944,7 z m 32.30213,-0.75 c -4.97517,-7.74817 -6.91732,-11.24177 -6.48811,-11.67099 0.93762,-0.93762 8.82365,10.59365 8.4607,12.37158 -0.31781,1.55685 -0.58372,1.46241 -1.97259,-0.70059 z m -39.82576,-0.9062 c 0,-1.31344 9.61796,-11.0938 10.90959,-11.0938 1.84575,0 1.27295,0.92671 -4.05465,6.55986 -4.9333,5.21624 -6.85494,6.48724 -6.85494,4.53394 z m -5,-5.06141 c 0,-1.89559 20.47871,-15.88701 21.60489,-14.76084 0.2776,0.2776 -1.65744,2.24257 -4.30008,4.36659 -2.64265,2.12402 -4.95481,4.19936 -5.13814,4.61186 -0.18334,0.4125 -0.85834,0.76829 -1.5,0.79064 -0.64167,0.0224 -2.72467,1.37235 -4.6289,3 -3.46476,2.96153 -6.03777,3.81032 -6.03777,1.99175 z m 44,-5.35959 c -8.68207,-7.30126 -13.33723,-9.93557 -14.86235,-8.41045 -0.70259,0.70259 -1.23374,0.20297 -1.68171,-1.58187 -0.36012,-1.43485 -1.51543,-2.88197 -2.56734,-3.21584 -1.05192,-0.33386 -7.77529,0.84691 -14.94081,2.62394 -9.63416,2.38925 -13.32069,2.93852 -14.15085,2.10836 -1.46173,-1.46173 2.37404,-2.9645 9.79215,-3.83636 7.95877,-0.93539 7.46581,-2.02987 -1.16373,-2.58368 -7.16514,-0.45983 -10.81984,-1.79703 -8.62271,-3.15493 0.5373,-0.33207 5.63901,0.0589 11.33713,0.86881 5.69812,0.80992 11.43341,1.48082 12.74508,1.4909 2.35881,0.0181 2.35335,-0.006 -0.5,-2.18024 -6.97,-5.31186 -18.32786,-16.08465 -17.82169,-16.90365 0.94697,-1.53222 1.89551,-1.037 6.48842,3.38757 12.37307,11.91957 13.85908,13.03367 15.53231,11.64501 1.04773,-0.86954 1.45798,-2.4459 1.20361,-4.62478 -0.21225,-1.81807 -0.0781,-3.30559 0.29807,-3.30559 0.37618,0 0.9932,2.475 1.37115,5.5 0.37795,3.025 1.02061,5.5 1.42814,5.5 1.20585,0 5.36014,-5.00909 10.52478,-12.6904 5.67956,-8.44715 9.59035,-12.54361 9.59035,-10.04566 0,0.88692 -4.05,6.66749 -9,12.84572 -4.95,6.17824 -9,11.5757 -9,11.99436 0,1.05418 1.97532,1.53633 13.73203,3.35179 10.73772,1.65811 14.66759,2.76374 15.68714,4.41341 1.44561,2.33905 -2.13874,2.08465 -12.02103,-0.85317 -15.62299,-4.64443 -16.31795,-3.87484 -4.44019,4.917 9.05108,6.69954 11.49991,9.08641 9.29205,9.05694 -0.4125,-0.005 -4.125,-2.84824 -8.25,-6.31719 z m -9.54112,4.26067 c -0.36253,-0.58659 -0.44468,-1.281 -0.18255,-1.54313 0.26212,-0.26213 0.74306,0.21781 1.06875,1.06653 0.67618,1.76211 0.0999,2.07206 -0.8862,0.4766 z M 110.894,380.51068 c -0.85153,-1.37781 1.21714,-2.5824 10.92997,-6.36454 11.5651,-4.50341 13.5,-5.07677 13.5,-4.00038 0,1.04561 -20.36007,11.25161 -22.44597,11.25161 -0.7898,0 -1.6826,-0.39901 -1.984,-0.88669 z m 55.66074,-1.34408 c -2.31013,-1.1732 -4.05508,-2.27825 -3.87766,-2.45567 0.46206,-0.46207 6.96862,1.79765 8.08022,2.80625 2.04448,1.85505 -0.23371,1.665 -4.20256,-0.35058 z m -9.08744,-13.24589 c 0.90322,-0.90322 15.1693,-2.55889 17.01128,-1.97427 4.44077,1.40945 1.11725,2.45093 -7.82128,2.45093 -5.31666,0 -9.45216,-0.2145 -9.19,-0.47666 z m -35.44734,-5.12919 c -6.76037,-2.17611 -10.0005,-4.42297 -8.51722,-5.90625 0.23422,-0.23422 4.45231,1.56747 9.37354,4.00376 10.25082,5.07473 10.09236,5.42677 -0.85632,1.90249 z m 33.30401,2.13613 c 0,-1.01915 15.43861,-7.53028 17.85512,-7.53028 4.475,0 0.50091,2.50109 -8.55943,5.38687 -8.61837,2.74501 -9.29569,2.90119 -9.29569,2.14341 z m 2.17807,-7.23079 c 7.75077,-7.21052 11.3641,-9.70048 12.79427,-8.81659 1.59719,0.98712 0.70558,1.87558 -8.01371,7.98535 -11.00108,7.70866 -12.44272,7.95933 -4.78056,0.83124 z m -27.62488,-2.81865 c -1.47631,-1.93553 -3.77972,-4.70124 -5.11869,-6.14602 -2.345,-2.5303 -3.23965,-5.35411 -1.6845,-5.31685 0.4125,0.01 2.13494,2.14738 3.82765,4.75 1.69271,2.60262 3.88197,5.96953 4.86501,7.48203 2.5442,3.91447 1.29505,3.40597 -1.88947,-0.76916 z m 2.62077,-6.7406 c -3.27144,-7.45101 -3.81352,-9.74024 -2.30645,-9.74024 0.89743,0 6.52237,15.94345 5.85899,16.60683 -0.2055,0.20551 -1.80415,-2.88446 -3.55254,-6.86659 z m 5.6702,-1.24728 c -1.30036,-6.71614 -1.05629,-11.26325 0.47183,-8.79069 0.74301,1.2022 2.10527,16.29773 1.47076,16.29773 -0.26901,0 -1.14317,-3.37817 -1.94259,-7.50704 z m 6.22613,0.75704 c 0.0778,-6.36385 1.14918,-10.32194 2.29302,-8.47117 0.67603,1.09384 -1.13872,14.22117 -1.96596,14.22117 -0.21854,0 -0.36572,-2.5875 -0.32706,-5.75 z m 5.53128,3 c 0.35183,-1.5125 1.56344,-4.775 2.69247,-7.25 1.6753,-3.67249 2.12343,-4.1031 2.43692,-2.34164 0.33254,1.86849 -4.21158,12.34164 -5.35482,12.34164 -0.22783,0 -0.12639,-1.2375 0.22543,-2.75 z M 50.341333,247.20639 c 0.0095,-0.71996 0.68455,-4.45885 1.5,-8.30865 2.156756,-10.18219 1.926786,-11.81928 -0.952857,-6.78307 -1.326272,2.31952 -2.992737,5.82495 -3.703256,7.78986 -1.232812,3.40928 -4.41873,7.27269 -5.280473,6.40338 -0.426525,-0.43028 0.73607,-2.86508 6.88088,-14.41054 l 3.725592,-7 -8.256474,8.25 c -7.801463,7.79535 -9.930776,9.38117 -9.930776,7.39602 0,-0.8967 2.187773,-3.45389 9.861069,-11.52615 5.075316,-5.3392 4.924905,-5.29491 -5.536175,1.63026 -3.946308,2.61243 -7.938908,4.74987 -8.872444,4.74987 -2.853491,0 -0.01637,-2.49629 8.393097,-7.38479 4.209949,-2.44728 8.554453,-5.17151 9.654453,-6.05384 1.858744,-1.49092 1.752802,-1.50489 -1.5,-0.19772 -5.390413,2.1662 -14.248925,5.40508 -16.75,6.1242 -1.597063,0.45919 -2.25,0.2257 -2.25,-0.8046 0,-0.94808 3.381655,-2.5744 9.75,-4.68901 5.3625,-1.78062 10.425,-3.62276 11.25,-4.09366 2.498782,-1.42625 -7.94096,0.0931 -15.335626,2.23191 -3.759594,1.0874 -7.359594,1.78851 -8,1.55803 -0.640406,-0.23049 0.860626,-0.95438 3.335626,-1.60866 2.475,-0.65428 5.625,-1.57983 7,-2.05678 2.225395,-0.77193 2.060632,-0.87736 -1.5,-0.95979 -5.058059,-0.11709 -8.624454,-1.0549 -7.979606,-2.09829 0.273845,-0.44309 4.881283,-0.61439 10.238753,-0.38067 9.088844,0.39651 9.540047,0.32719 6.740853,-1.03558 -1.65,-0.8033 -3.535942,-1.48084 -4.190983,-1.50565 -0.655041,-0.0248 -1.509659,-0.56073 -1.899153,-1.19094 -0.501785,-0.81191 0.09788,-0.94354 2.057646,-0.45167 1.5212,0.3818 4.175818,0.94047 5.899153,1.2415 l 3.133337,0.54732 -3,-1.86475 c -1.65,-1.02561 -5.475,-2.95526 -8.5,-4.28812 -6.280805,-2.7674 -10.280187,-5.77777 -6,-4.51625 1.375,0.40526 4.838177,2.02856 7.695949,3.60732 7.733632,4.27243 8.111496,3.5125 1.361051,-2.73722 -5.387796,-4.98815 -7.52958,-8.39229 -5.28018,-8.39229 0.42725,0 3.902681,3.15 7.72318,7 3.820499,3.85 7.306304,7 7.746233,7 0.996257,0 -1.601967,-4.16278 -6.101368,-9.7754 -1.885074,-2.35146 -3.201588,-4.50121 -2.925585,-4.77721 0.276002,-0.27601 1.755434,1.19792 3.287626,3.27539 1.532191,2.07747 5.203919,6.10002 8.159395,8.93899 l 5.373592,5.16177 1.418697,-2.74346 c 2.72034,-5.26056 6.22907,-11.6066 8.476015,-15.33008 2.174141,-3.60284 4.065395,-4.87218 4.065395,-2.72856 0,1.13065 -4.77666,8.9015 -6.442633,10.48112 -1.180065,1.11889 -4.557367,6.97459 -4.557367,7.90173 0,1.48221 2.242029,0.14836 9.924358,-5.90429 7.145128,-5.6294 11.075642,-7.76295 11.075642,-6.01204 0,0.26839 -3.4875,3.24657 -7.75,6.61818 -4.2625,3.37162 -7.975,6.35511 -8.25,6.62998 -0.275,0.27488 3.361987,-1.57831 8.082194,-4.11818 9.371644,-5.04273 9.917806,-5.22648 9.917806,-3.33677 0,0.70464 -5.426177,3.89165 -12.058172,7.08225 l -12.058171,5.80109 2.211181,1.91774 c 1.21615,1.05476 1.734456,1.91775 1.151791,1.91775 -0.582664,0 -0.824034,0.9 -0.536378,2 0.666915,2.55029 -2.191516,2.74933 -3.590242,0.25 -0.870774,-1.55595 -1.093659,-1.44941 -2.010054,0.96085 -0.566875,1.49096 -1.291894,5.09096 -1.611154,8 -0.903768,8.23496 -2.697389,16.79385 -3.641656,17.37744 -0.47143,0.29136 -0.849331,-0.0593 -0.839781,-0.77927 z m 6.428803,-3.24428 c -0.381331,-2.03267 -0.262046,-4.66231 0.265079,-5.84364 0.821618,-1.84132 1.054387,-1.44764 1.630866,2.75823 0.805094,5.8738 -0.86344,8.58913 -1.895945,3.08541 z m 6.303833,1.10347 c -0.4125,-1.00748 -0.721476,-3.25748 -0.686614,-5 0.06186,-3.09189 0.08706,-3.10891 1.046014,-0.70671 0.540445,1.35382 0.849421,3.60382 0.686614,5 -0.253282,2.17205 -0.404282,2.27407 -1.046014,0.70671 z m 7.45034,-2.92681 c -0.596563,-0.71882 -1.559328,-2.55541 -2.139477,-4.08132 -1.383321,-3.63841 0.417753,-2.56901 2.519985,1.49626 1.662976,3.21584 1.434004,4.77141 -0.380508,2.58506 z m 3.775433,-5.88688 c -1.911675,-2.35997 -4.34751,-5.38324 -5.412966,-6.71839 l -1.937193,-2.42754 2.528907,1.657 c 3.257277,2.13425 9.094772,9.38653 8.643969,10.73894 -0.190819,0.57246 -1.911042,-0.89005 -3.822717,-3.25001 z m -17.975773,-3.35452 c 0,-0.825 0.176855,-1.5 0.393011,-1.5 0.216156,0 0.652033,0.675 0.968615,1.5 0.316583,0.825 0.139728,1.5 -0.393011,1.5 -0.532738,0 -0.968615,-0.675 -0.968615,-1.5 z m 20.140225,-2.67227 c -2.820962,-2.29475 -4.943849,-4.35744 -4.717528,-4.58376 0.665042,-0.66504 11.577303,6.63375 11.577303,7.74361 0,1.8333 -1.663758,1.06692 -6.859775,-3.15985 z m -11.140225,2.11325 c 0,-0.58246 0.45,-0.7809 1,-0.44098 0.55,0.33992 1,0.81648 1,1.05902 0,0.24254 -0.45,0.44098 -1,0.44098 -0.55,0 -1,-0.47656 -1,-1.05902 z m 155.792611,-1.19672 c -0.22933,-0.68434 0.0832,-3.48493 0.6945,-6.22353 1.35911,-6.08871 2.93049,-4.48831 1.95833,1.9945 -0.68561,4.57203 -1.89293,6.49667 -2.65283,4.22903 z m -6.79261,-0.62943 c 0,-1.78888 3.40797,-11.67465 4.68403,-13.58734 1.13284,-1.698 1.31597,-1.73572 1.31597,-0.271 0,2.71393 -4.19441,14.74351 -5.14069,14.74351 -0.47262,0 -0.85931,-0.39832 -0.85931,-0.88517 z m 13.25044,-5.11483 c -0.65213,-3.575 -1.44785,-8.3 -1.76827,-10.5 -0.32041,-2.2 -1.34748,-4.98238 -2.28237,-6.18306 l -1.6998,-2.18306 -8.428,7.93306 c -4.63541,4.36318 -8.79791,7.93306 -9.25,7.93306 -1.88743,0 -0.53855,-2.03932 3.928,-5.93863 l 4.75,-4.14675 -5.21676,2.54269 c -2.86921,1.39848 -5.68171,2.54269 -6.25,2.54269 -2.29575,0 -0.76214,-1.65112 4.03754,-4.3469 2.78781,-1.5658 4.82313,-3.09252 4.52293,-3.39272 -0.3002,-0.3002 -3.29384,0.45616 -6.65253,1.6808 -3.3587,1.22464 -6.40626,1.92707 -6.77238,1.56096 -0.95822,-0.95823 2.68481,-3.38091 6.8003,-4.52233 6.85468,-1.90112 6.90873,-2.97341 0.13708,-2.71952 -4.08325,0.15308 -6.53942,-0.17231 -6.79671,-0.90043 -0.27093,-0.76668 2.64231,-1.39853 8.89382,-1.92896 8.2553,-0.70046 8.84863,-0.87434 5.29671,-1.55223 -2.2,-0.41988 -5.65821,-0.78934 -7.6849,-0.82104 -4.145,-0.0648 -9.42567,-1.7804 -8.45819,-2.74787 0.34886,-0.34886 5.15781,-0.0578 10.68657,0.64676 5.52875,0.70458 10.3512,0.98214 10.71654,0.61679 0.36535,-0.36535 0.0856,-1.59089 -0.6217,-2.72343 -1.05898,-1.6957 -1.0523,-1.92798 0.0379,-1.31594 0.7281,0.40877 -1.48868,-2.14374 -4.92618,-5.67226 -5.66343,-5.81339 -7.53798,-8.83833 -5.5,-8.87528 0.4125,-0.007 3.14282,2.58002 6.06738,5.75 l 5.31738,5.7636 -3.80056,-7.18349 c -2.0903,-3.95092 -3.46597,-7.51807 -3.05704,-7.927 1.04126,-1.04126 3.03938,1.87648 7.42922,10.8485 2.90775,5.9429 4.43909,7.96565 6.60102,8.71931 2.59543,0.90477 2.92134,0.73024 4.17903,-2.23801 1.07874,-2.5459 1.50041,-2.86959 2.01583,-1.54745 0.35846,0.91952 0.15668,2.59689 -0.4484,3.72749 -1.70939,3.19403 0.94812,1.65907 3.94614,-2.27926 5.35139,-7.02982 12.02453,-13.77858 13.22764,-13.37754 0.75802,0.25267 -1.23185,3.01773 -4.98283,6.92399 -7.23133,7.53068 -8.09876,9.56042 -1.99481,4.66779 5.95494,-4.7732 9.68881,-7.02139 10.95846,-6.59818 0.59758,0.1992 -0.89236,1.88262 -3.31098,3.74095 -2.41861,1.85833 -4.84748,3.78291 -5.39748,4.27686 -0.85361,0.76662 4.13566,-0.96824 10.88645,-3.78542 1.37659,-0.57447 1.76324,-0.41761 1.43059,0.58035 -0.25073,0.75217 -2.44963,2.09888 -4.88645,2.99268 -2.43683,0.89381 -5.69738,2.15011 -7.24569,2.79177 -1.54834,0.64166 -3.20929,1.16666 -3.69102,1.16666 -0.48174,0 -1.10402,0.36912 -1.38284,0.82027 -0.56049,0.90688 9.12765,-0.39685 13.95992,-1.87859 3.90706,-1.19805 6.429,-1.2016 6.429,-0.009 0,1.15584 -1.59075,1.61212 -10.75,3.08346 -3.9875,0.64055 -7.25,1.46348 -7.25,1.82874 0,0.36525 3.4875,0.62599 7.75,0.57942 8.82937,-0.0965 11.5269,0.31872 10.7055,1.64777 -0.31544,0.5104 -4.70948,0.95846 -9.76452,0.99568 -9.90316,0.0729 -9.78958,0.57192 0.80902,3.5541 3.3,0.92853 5.49618,1.86143 4.88039,2.0731 -0.61578,0.21167 -4.54501,-0.53308 -8.73161,-1.65501 -4.18661,-1.12193 -7.95779,-2.02443 -8.3804,-2.00556 -0.42261,0.0189 2.80785,1.93136 7.1788,4.25 4.37095,2.31863 8.14622,4.85399 8.38948,5.63413 0.39188,1.25674 -5.28986,-1.47256 -15.6258,-7.50607 -2.45956,-1.43574 -0.83086,0.11535 9.19304,8.75499 1.7021,1.46704 2.77769,2.98439 2.3902,3.37188 -0.38749,0.38748 -3.98718,-2.29371 -7.99931,-5.95821 -6.71167,-6.13013 -11.04728,-8.66187 -12.44311,-7.26605 -0.90214,0.90215 -0.72562,4.72205 0.57344,12.40893 0.67145,3.97315 1.06111,8.24815 0.86592,9.5 -0.20074,1.28735 -0.86998,-0.54753 -1.5406,-4.22391 z m 6.27951,0.43924 c -0.95798,-2.50841 -1.5005,-4.80202 -1.20562,-5.0969 0.58831,-0.58832 4.67567,6.94517 4.67567,8.61782 0,2.5512 -1.87934,0.64431 -3.47005,-3.52092 z M 74.918016,223.55466 c -10.445274,-3.85991 -10.578649,-5.49262 -0.220515,-2.69946 10.530479,2.83963 13.342832,4.36336 10.871973,5.89044 -0.414972,0.25647 -5.208128,-1.17948 -10.651458,-3.19098 z m 165.006464,-0.81634 c -1.95301,-2.66252 -3.56208,-5.25689 -3.57572,-5.76526 -0.0401,-1.49619 5.03411,3.67221 6.64396,6.76724 2.45563,4.7211 0.71209,4.15172 -3.06824,-1.00198 z m -31.60051,3.06854 c 0,-0.32478 2.025,-2.96079 4.5,-5.85781 2.475,-2.89702 4.5,-5.97973 4.5,-6.85048 0,-1.59579 1.75722,-3.27731 2.57268,-2.46185 0.69869,0.69869 -4.18941,9.34781 -7.17962,12.70382 -2.52139,2.82982 -4.39306,3.8806 -4.39306,2.46632 z M 67.742981,216.52841 c 0.693052,-1.12138 15.621206,-2.43657 17.868428,-1.57423 4.056631,1.55667 1.0281,2.44319 -8.346457,2.44319 -5.532459,0 -9.817347,-0.39103 -9.521971,-0.86896 z m 1.580988,-3.59086 c 0,-0.6704 12.874902,-4.54018 15.105335,-4.54018 4.245964,0 1.450596,1.73817 -5.355335,3.32997 -7.409676,1.73301 -9.75,2.0235 -9.75,1.21021 z m -39,-3.28579 c -2.475,-0.87325 -3.941422,-1.77392 -3.258715,-2.00148 1.694205,-0.56474 8.258715,1.68045 8.258715,2.82464 0,0.50735 -0.1125,0.88692 -0.25,0.8435 -0.1375,-0.0434 -2.275,-0.79342 -4.75,-1.66666 z m 35.497828,-6.25439 c 0.48496,-0.825 2.708841,-3.63728 4.941959,-6.24951 3.808865,-4.45549 5.595746,-5.74733 5.533479,-4.00049 -0.03177,0.8912 -6.671089,8.11142 -9.425346,10.25 -1.717188,1.33333 -1.833865,1.33333 -1.050092,0 z m -4.467419,-7.88398 c -0.04958,-2.25649 2.224812,-9.11602 3.022568,-9.11602 0.40502,0 0.398078,1.50008 -0.01543,3.33352 -0.875058,3.87989 -2.960819,7.89065 -3.007138,5.7825 z m 141.612712,-1.15142 c -5.11888,-1.94455 -6.27549,-2.66557 -5.50766,-3.43339 0.49293,-0.49293 11.44585,3.71676 12.55423,4.82515 1.13545,1.13545 -2.05022,0.50626 -7.04657,-1.39176 z M 56.323969,190.56404 c 0,-2.29167 0.421708,-4.16667 0.937129,-4.16667 0.519114,0 0.679008,1.67273 0.358459,3.75 -0.80127,5.19253 -1.295588,5.3515 -1.295588,0.41667 z m -12,0.83333 c -0.639122,-1.19421 -0.937041,-2.39629 -0.662041,-2.67129 0.275,-0.275 1.022919,0.47708 1.662041,1.67129 0.639122,1.19421 0.937041,2.39629 0.662041,2.67129 -0.275,0.275 -1.022919,-0.47708 -1.662041,-1.67129 z m 161.000001,-2.05902 c 0,-0.58246 0.45,-0.7809 1,-0.44098 0.55,0.33992 1,0.81648 1,1.05902 0,0.24254 -0.45,0.44098 -1,0.44098 -0.55,0 -1,-0.47656 -1,-1.05902 z m 13.02279,-3.19098 c -1.0256,-2.3375 -2.17538,-5.9375 -2.55506,-8 -1.05276,-5.71894 1.0979,-4.59913 2.88084,1.5 3.26658,11.1744 3.10856,14.3273 -0.32578,6.5 z m -168.943844,1.66667 c 0.04798,-1.16495 0.284941,-1.4019 0.604167,-0.60417 0.288871,0.72187 0.253344,1.58437 -0.07895,1.91667 -0.332292,0.33229 -0.568641,-0.25834 -0.52522,-1.3125 z m 179.951464,1.22767 c -0.0309,-0.86919 2.68107,-12.05591 3.50495,-14.45772 0.24778,-0.72236 0.85719,-1.06205 1.35423,-0.75486 0.50349,0.31118 0.0639,3.25702 -0.99273,6.6518 -1.85089,5.94692 -3.80554,10.27475 -3.86645,8.56078 z m -28.58771,-2.06258 c -1.06675,-0.78003 -1.66651,-1.69128 -1.33279,-2.025 0.33372,-0.33372 1.68301,0.28951 2.99843,1.38497 2.71677,2.26247 1.29849,2.80746 -1.66564,0.64003 z m 25.89351,-5.58176 c 0,-4.125 0.17651,-5.8125 0.39226,-3.75 0.21574,2.0625 0.21574,5.4375 0,7.5 -0.21575,2.0625 -0.39226,0.375 -0.39226,-3.75 z m 6.68638,5.71676 c -0.0377,-1.30644 4.86749,-10.53079 5.95839,-11.20501 0.56046,-0.34638 1.00886,-0.26573 0.99643,0.17923 -0.0304,1.08907 -6.92612,12.02114 -6.95482,11.02578 z m -10.94364,-4.30009 c 0.048,-1.16495 0.28494,-1.4019 0.60416,-0.60417 0.28887,0.72187 0.25335,1.58437 -0.0789,1.91667 -0.3323,0.33229 -0.56864,-0.25834 -0.52522,-1.3125 z m -1.36844,-7.41567 c -0.28751,-1.09946 -0.115,-2.25101 0.38337,-2.55902 0.49837,-0.30801 0.90612,0.59154 0.90612,1.999 0,3.06405 -0.56994,3.31157 -1.28949,0.56002 z"
             id="path1435"
             inkscape:connector-curvature="0"
             sodipodi:nodetypes="sscsscccsccccccccccccccssssscccccsssccsscssccccsscssssssssssscscccccssscsccsscsscsscssssscsscccsccsscsscssssssccssccssscscsssssscccsscccssccsccccccccscssssccsscssscsssccsssccssscsscscsscscsccsscccccccsscsssssssssssccccscssscccccscccsssscsccccccccccscsccssccccscssccsccccsccssscccccsccccccscscccccsccsccccscsssscsccscssssccsccssccsssssccccssssasssaasssaccsccccsccccccsscsccccaccacccsccsac" />
          <path
             style="fill:#0000ff"
             d="m 154.86668,397.46647 c -0.31644,-0.512 -0.19299,-1.1672 0.27431,-1.45601 0.46731,-0.28881 0.84965,0.13009 0.84965,0.9309 0,1.68617 -0.31534,1.83349 -1.12396,0.52511 z m -8.29053,-4.5691 c 0.0111,-2.2 0.21589,-2.98225 0.45508,-1.73834 0.23919,1.24391 0.23011,3.04391 -0.0202,4 -0.25029,0.95609 -0.446,-0.0617 -0.4349,-2.26166 z m 13.62026,-0.25 c -1.24387,-1.58606 -1.2085,-1.62143 0.37756,-0.37756 0.9625,0.75485 1.75,1.54235 1.75,1.75 0,0.82304 -0.82119,0.29331 -2.12756,-1.37244 z m -7.87244,-0.25 c 0,-0.55 0.47656,-1 1.05902,-1 0.58246,0 0.7809,0.45 0.44098,1 -0.33992,0.55 -0.81648,1 -1.05902,1 -0.24254,0 -0.44098,-0.45 -0.44098,-1 z m -31,-0.37756 c 0,-0.20765 0.7875,-0.99515 1.75,-1.75 1.58606,-1.24387 1.62143,-1.2085 0.37756,0.37756 -1.30637,1.66575 -2.12756,2.19548 -2.12756,1.37244 z m 17.01531,-2.37244 c 0.008,-0.4125 0.45153,-1.425 0.98469,-2.25 0.78387,-1.21296 0.9723,-1.06944 0.98469,0.75 0.008,1.2375 -0.43469,2.25 -0.98469,2.25 -0.55,0 -0.99311,-0.3375 -0.98469,-0.75 z m 5.98469,-6.75 c 0,-4.30833 0.2746,-7.55873 0.61023,-7.22311 0.72565,0.72566 0.63505,13.81116 -0.10072,14.54693 -0.28023,0.28023 -0.50951,-3.01549 -0.50951,-7.32382 z m 7.33333,6.04399 c 0,-0.80081 0.375,-1.22425 0.83334,-0.94098 0.45833,0.28326 0.83333,0.93847 0.83333,1.45601 0,0.51754 -0.375,0.94098 -0.83333,0.94098 -0.45834,0 -0.83334,-0.65521 -0.83334,-1.45601 z m -26.33333,-0.8569 c 0,-0.1721 1.4625,-1.6346 3.25,-3.25 l 3.25,-2.93709 -2.93709,3.25 c -2.73778,3.02946 -3.56291,3.70965 -3.56291,2.93709 z m 41.33333,-2.1431 c 0,-0.80081 0.38234,-1.21971 0.84965,-0.9309 0.4673,0.28881 0.59075,0.94401 0.27431,1.45601 -0.80862,1.30838 -1.12396,1.16106 -1.12396,-0.52511 z m -16.87445,-0.61052 c -0.36253,-0.58659 -0.44468,-1.281 -0.18255,-1.54313 0.26212,-0.26213 0.74306,0.21781 1.06875,1.06653 0.67618,1.76211 0.0999,2.07206 -0.8862,0.4766 z m -22.95888,-1.93347 c 0.99549,-1.1 2.03498,-2 2.30998,-2 0.275,0 -0.31449,0.9 -1.30998,2 -0.99549,1.1 -2.03498,2 -2.30998,2 -0.275,0 0.31449,-0.9 1.30998,-2 z m 28.86652,1.21597 c 0.37155,-0.60118 -0.11767,-1.53696 -1.08716,-2.07951 -0.96948,-0.54255 -1.50119,-1.24796 -1.18157,-1.56759 0.31963,-0.31962 1.35769,0.27695 2.30682,1.32572 1.29632,1.43242 1.42222,2.0944 0.50602,2.66064 -0.75443,0.46627 -0.96197,0.33686 -0.54411,-0.33926 z m 4.88764,-2.6154 c -1.3106,-1.54367 -1.3516,-1.75658 -0.16215,-0.84201 0.8756,0.67325 1.82398,0.99212 2.1075,0.7086 0.28352,-0.28352 1.02247,0.0954 1.64211,0.84201 0.86257,1.03933 0.77976,1.3575 -0.35334,1.3575 -0.81398,0 -2.26934,-0.92975 -3.23412,-2.0661 z m -23.98443,-1.53129 c 0.08,-1.0619 0.48237,-1.72249 0.89418,-1.46798 0.41181,0.25451 0.49525,1.12334 0.18543,1.93073 -0.78123,2.03585 -1.2526,1.83381 -1.07961,-0.46275 z m -25.68045,0.0752 c -0.29082,-0.47055 0.58263,-0.64309 1.94098,-0.38343 1.35836,0.25967 2.46974,0.64466 2.46974,0.85555 0,0.77375 -3.89864,0.35644 -4.41072,-0.47212 z m 55.8696,-1.21099 c -0.36253,-0.58659 -0.44468,-1.281 -0.18255,-1.54313 0.26212,-0.26213 0.74306,0.21781 1.06875,1.06653 0.67618,1.76211 0.0999,2.07206 -0.8862,0.4766 z m -13.39907,-3.17134 c -1.78791,-1.59749 -3.07361,-3.08166 -2.85712,-3.29815 0.21649,-0.2165 1.71114,0.82805 3.32144,2.3212 1.61029,1.49315 3.23862,2.71482 3.61851,2.71482 0.37988,0 0.95319,0.2625 1.27403,0.58333 0.32083,0.32084 -0.0218,0.58334 -0.7614,0.58334 -0.7396,0 -2.80755,-1.30704 -4.59546,-2.90454 z m -15.47721,1.37152 c -0.29449,-0.4765 0.37332,-1.68877 1.48402,-2.69394 1.78632,-1.61659 1.94441,-1.63202 1.36943,-0.13364 -0.35752,0.93166 -1.07844,1.69393 -1.60206,1.69393 -0.52361,0 -0.67391,0.45 -0.33399,1 0.33992,0.55 0.39303,1 0.11803,1 -0.275,0 -0.74094,-0.38986 -1.03543,-0.86635 z m 25.4174,-0.13367 c -0.90129,-0.58246 -1.02463,-0.97549 -0.30902,-0.98469 0.65504,-0.008 1.4691,0.43469 1.80902,0.98469 0.7673,1.24153 0.42112,1.24153 -1.5,0 z m -30.53135,-2.83719 c 0.24692,-1.28216 -0.26263,-2.52367 -1.27912,-3.11655 -0.92924,-0.54199 -1.27496,-0.99913 -0.76827,-1.01585 0.50669,-0.0167 1.74419,0.71433 2.75,1.62458 2.00025,1.8102 2.57165,0.48792 0.62874,-1.45499 -0.66,-0.66 -0.85286,-1.2 -0.42857,-1.2 0.42428,0 1.39041,0.61899 2.14695,1.37552 1.16736,1.16737 1.00963,1.71926 -1.04231,3.64696 -2.40351,2.25798 -2.41541,2.25881 -2.00742,0.14033 z m -19.65615,-1.84592 c 0.72187,-0.28887 1.58437,-0.25335 1.91667,0.0789 0.33229,0.33229 -0.25834,0.56864 -1.3125,0.52522 -1.16495,-0.048 -1.4019,-0.28494 -0.60417,-0.60416 z m 55,-1 c 0.72187,-0.28887 1.58437,-0.25335 1.91667,0.0789 0.33229,0.33229 -0.25834,0.56864 -1.3125,0.52522 -1.16495,-0.048 -1.4019,-0.28494 -0.60417,-0.60416 z m -5.54347,-1.00988 c 0.97297,-0.25354 2.32297,-0.23687 3,0.0371 0.67703,0.27393 -0.11903,0.48137 -1.76903,0.46099 -1.65,-0.0204 -2.20394,-0.2445 -1.23097,-0.49804 z m -12.76903,-1.30701 c 0.33992,-0.55 1.37898,-0.99311 2.30902,-0.98469 1.45727,0.0132 1.48367,0.14929 0.19098,0.98469 -1.95837,1.2656 -3.28218,1.2656 -2.5,0 z m -29.75,-0.66228 c 0.6875,-0.27741 1.8125,-0.27741 2.5,0 0.6875,0.27741 0.125,0.50439 -1.25,0.50439 -1.375,0 -1.9375,-0.22698 -1.25,-0.50439 z m 6.75,-1.33772 c 0.33992,-0.55 1.60398,-0.96837 2.80902,-0.92971 2.11236,0.0678 2.11922,0.10112 0.19098,0.92971 -2.75248,1.18278 -3.731,1.18278 -3,0 z m 18.00708,0.0115 c -0.35034,-0.56686 0.0511,-0.7345 0.94098,-0.39301 1.73242,0.66479 2.04939,1.38156 0.61096,1.38156 -0.51754,0 -1.21592,-0.44485 -1.55194,-0.98855 z M 119.593,365.70443 c 0.97297,-0.25354 2.32297,-0.23687 3,0.0371 0.67703,0.27393 -0.11903,0.48137 -1.76903,0.46099 -1.65,-0.0204 -2.20394,-0.2445 -1.23097,-0.49804 z m 39.73097,-0.30706 c 1.375,-0.44035 3.4,-0.80064 4.5,-0.80064 1.58367,0 1.47958,0.16667 -0.5,0.80064 -1.375,0.44035 -3.4,0.80064 -4.5,0.80064 -1.58367,0 -1.47958,-0.16667 0.5,-0.80064 z m -48.50437,-1.00706 c -0.74542,-1.20613 1.90857,-2.39443 3.72138,-1.66622 0.70564,0.28346 0.24393,0.55091 -1.02603,0.59433 -1.27028,0.0434 -2.03099,0.52881 -1.69098,1.07895 0.33992,0.55 0.39303,1 0.11803,1 -0.275,0 -0.78008,-0.45318 -1.1224,-1.00706 z m 16.25437,0.34478 c 0.6875,-0.27741 1.8125,-0.27741 2.5,0 0.6875,0.27741 0.125,0.50439 -1.25,0.50439 -1.375,0 -1.9375,-0.22698 -1.25,-0.50439 z m -6.9375,-1.02083 c 0.72187,-0.28887 1.58437,-0.25335 1.91667,0.0789 0.33229,0.33229 -0.25834,0.56864 -1.3125,0.52522 -1.16495,-0.048 -1.4019,-0.28494 -0.60417,-0.60416 z m 14.1875,-0.81689 c -0.68469,-0.825 -0.8806,-1.5 -0.43535,-1.5 0.44524,0 -0.51216,-1.4625 -2.12756,-3.25 l -2.93709,-3.25 3.23957,2.9271 c 1.78176,1.6099 3.02317,3.1435 2.75867,3.40799 -0.26449,0.26449 0.0203,1.0848 0.63288,1.8229 0.61257,0.73811 0.88877,1.34201 0.61377,1.34201 -0.275,0 -1.0602,-0.675 -1.74489,-1.5 z m 11.18363,-0.22126 c 0.63354,-0.76336 2.08889,-1.83877 3.23413,-2.3898 1.96755,-0.94668 1.96066,-0.89544 -0.12524,0.93046 -1.21411,1.06277 -2.00161,2.13818 -1.75,2.38979 0.25162,0.25161 -0.21038,0.45748 -1.02664,0.45748 -1.15258,0 -1.2268,-0.31006 -0.33225,-1.38793 z m 25.0854,1.02827 c 0.97297,-0.25354 2.32297,-0.23687 3,0.0371 0.67703,0.27393 -0.11903,0.48137 -1.76903,0.46099 -1.65,-0.0204 -2.20394,-0.2445 -1.23097,-0.49804 z m -41.76195,-1.29556 c -0.35034,-0.56686 0.0511,-0.7345 0.94098,-0.39301 1.73242,0.66479 2.04939,1.38156 0.61096,1.38156 -0.51754,0 -1.21592,-0.44485 -1.55194,-0.98855 z m 12.65081,-1.01145 c 0,-1.375 0.22698,-1.9375 0.50439,-1.25 0.27741,0.6875 0.27741,1.8125 0,2.5 -0.27741,0.6875 -0.50439,0.125 -0.50439,-1.25 z m 14.35219,0.98369 c 0.34546,-0.55897 1.04702,-0.75742 1.55902,-0.44098 1.38704,0.85723 1.12841,1.45729 -0.62812,1.45729 -0.85746,0 -1.27636,-0.45734 -0.9309,-1.01631 z m -30.01008,-0.98369 c 0.33992,-0.55 0.81648,-1 1.05902,-1 0.24254,0 0.44098,0.45 0.44098,1 0,0.55 -0.47656,1 -1.05902,1 -0.58246,0 -0.7809,-0.45 -0.44098,-1 z m -3,-1 c 0.33992,-0.55 0.81648,-1 1.05902,-1 0.24254,0 0.44098,0.45 0.44098,1 0,0.55 -0.47656,1 -1.05902,1 -0.58246,0 -0.7809,-0.45 -0.44098,-1 z m 6.90499,-1.25 -1.90499,-2.25 2.25,1.90499 c 2.11444,1.79022 2.70524,2.59501 1.90499,2.59501 -0.18976,0 -1.20226,-1.0125 -2.25,-2.25 z m 21.67834,1.88545 c 0.22917,-0.2005 1.54167,-0.90032 2.91667,-1.55516 2.35727,-1.12265 2.38918,-1.10183 0.55887,0.36454 -1.593,1.27626 -4.84786,2.39128 -3.47554,1.19062 z m 10.42375,-0.624 c -0.35034,-0.56686 0.0511,-0.7345 0.94098,-0.39301 1.73242,0.66479 2.04939,1.38156 0.61096,1.38156 -0.51754,0 -1.21592,-0.44485 -1.55194,-0.98855 z m -11.68447,-3.43632 c 0.52394,-1.05868 1.68033,-2.03167 2.56977,-2.16221 0.88943,-0.13054 1.34494,0.20309 1.01225,0.7414 -0.3327,0.53831 -0.85285,0.7308 -1.15589,0.42775 -0.30304,-0.30304 -1.18723,0.22952 -1.96486,1.18347 -1.3107,1.60789 -1.34436,1.59399 -0.46127,-0.19041 z m 7.51072,-0.0477 c 0,-0.80992 1.3875,-2.72242 3.08334,-4.25 l 3.08333,-2.77743 -2.84755,3.15654 c -1.56615,1.7361 -2.76615,3.4611 -2.66667,3.83333 0.0995,0.37224 -0.007,0.8643 -0.23578,1.09346 -0.22917,0.22917 -0.41667,-0.24599 -0.41667,-1.05592 z m -26.89318,-3.27743 c -0.98443,-1.5125 -2.45435,-3.24381 -3.2665,-3.84736 -1.19063,-0.88481 -1.22368,-1.25369 -0.17063,-1.90451 0.8167,-0.50474 1.06293,-0.41386 0.65723,0.24258 -0.35682,0.57734 -0.0889,1.2717 0.59549,1.543 1.20465,0.47757 5.30645,6.71629 4.41581,6.71629 -0.24284,0 -1.24697,-1.2375 -2.2314,-2.75 z m 9.19822,1.25 c -0.31658,-0.825 -0.13972,-1.5 0.39301,-1.5 0.53274,0 0.96862,0.675 0.96862,1.5 0,0.825 -0.17686,1.5 -0.39301,1.5 -0.21616,0 -0.65203,-0.675 -0.96862,-1.5 z m -17.76593,-2.25 c -1.24387,-1.58606 -1.2085,-1.62143 0.37756,-0.37756 0.9625,0.75485 1.75,1.54235 1.75,1.75 0,0.82304 -0.82119,0.29331 -2.12756,-1.37244 z m 12.32771,-1.71006 c -0.6186,-1.35769 -0.74316,-2.70434 -0.27679,-2.99257 0.46637,-0.28824 1.08466,0.70819 1.37399,2.21428 0.68598,3.5709 0.29996,3.84471 -1.0972,0.77829 z m 4.43019,-1.63826 c -0.34082,-1.70408 -0.24396,-3.76969 0.21525,-4.59024 0.54718,-0.97777 0.85883,0.09 0.90431,3.09832 0.081,5.36128 -0.25589,5.81028 -1.11956,1.49192 z m 16.36966,2.72076 c 0,-0.20765 0.7875,-0.99515 1.75,-1.75 1.58606,-1.24387 1.62143,-1.2085 0.37756,0.37756 -1.30637,1.66575 -2.12756,2.19548 -2.12756,1.37244 z m -10.75223,-6.62244 c -0.0409,-5.62252 0.0781,-6.06126 0.88109,-3.25 0.54873,1.92105 0.56804,4.57895 0.0472,6.5 -0.75743,2.79386 -0.88772,2.33772 -0.92832,-3.25 z m 5.14524,4.41821 c 0.33385,-0.86998 0.60699,-2.14498 0.60699,-2.83333 0,-0.68835 0.60309,-1.25155 1.34021,-1.25155 1.10305,0 1.09009,0.50139 -0.0732,2.83334 -1.49437,2.99554 -2.90461,3.93738 -1.87396,1.25154 z M 137.88826,336.6905 c -0.54268,-1.4252 -0.42782,-1.54006 0.5598,-0.5598 0.68342,0.67834 0.99067,1.48524 0.68278,1.79313 -0.30789,0.30789 -0.86705,-0.24711 -1.24258,-1.23333 z M 58.148473,244.72319 c 0.426728,-2.09296 0.67819,-2.34442 0.969603,-0.9696 0.216399,1.02092 -0.04287,2.29254 -0.576149,2.82582 -0.626137,0.62614 -0.765512,-0.0314 -0.393454,-1.85622 z m -15.389985,-0.43177 c -0.456463,-0.73857 -0.321519,-0.94225 0.349512,-0.52753 0.601177,0.37155 1.557021,-0.12142 2.1241,-1.09549 0.567078,-0.97407 1.044736,-1.26363 1.06146,-0.64347 0.05193,1.92553 -2.668017,3.66941 -3.535072,2.26649 z m 19.805173,-3.56331 c -0.0785,-3.32492 0.0318,-3.52201 0.835309,-1.49262 0.509161,1.28597 0.549859,3.0098 0.09044,3.83074 -0.568723,1.01625 -0.864172,0.27005 -0.925747,-2.33812 z m -28.239692,-0.27172 c 0,-0.51754 0.444846,-1.21592 0.988546,-1.55194 0.56686,-0.35034 0.734507,0.0511 0.393011,0.94098 -0.664791,1.73242 -1.381557,2.04939 -1.381557,0.61096 z m 22.078947,-0.64235 c 0.04798,-1.16495 0.284941,-1.4019 0.604167,-0.60417 0.288871,0.72187 0.253344,1.58437 -0.07895,1.91667 -0.332292,0.33229 -0.568641,-0.25834 -0.52522,-1.3125 z m 20.059374,-0.75 c -0.826907,-0.99637 -0.77361,-1.33334 0.210889,-1.33334 0.724601,0 1.317457,0.6 1.317457,1.33334 0,0.73333 -0.0949,1.33333 -0.210889,1.33333 -0.115989,0 -0.708844,-0.6 -1.317457,-1.33333 z m -23.278098,-1.25 c -0.07688,-1.05417 -0.03921,-3.71667 0.0837,-5.91667 0.203961,-3.65063 0.09971,-3.83559 -1.193556,-2.11769 -1.208533,1.60535 -1.417036,1.64214 -1.417036,0.25 0,-0.89777 0.401558,-1.63231 0.892351,-1.63231 0.490792,0 0.59143,-0.4869 0.223639,-1.082 -0.42333,-0.68496 -1.821036,-0.0436 -3.809017,1.74791 -2.916929,2.6286 -2.895172,2.5633 0.305861,-0.91801 3.764373,-4.09397 4.177276,-4.36511 3.803833,-2.4979 -0.1375,0.6875 0.489569,1.19549 1.393487,1.12886 1.411477,-0.10403 1.568833,0.74298 1.11466,6 -0.541249,6.26491 -1.14877,8.45428 -1.397924,5.03781 z m 14.835083,-0.47382 c -0.439556,-1.68086 -0.279987,-1.84306 0.872358,-0.88669 0.775673,0.64375 1.163712,1.56947 0.862309,2.05715 -0.815886,1.32013 -1.140673,1.10098 -1.734667,-1.17046 z m -38.77755,-3.3063 c 1.3317,-1.63978 5.082244,-4.1192 5.082244,-3.35979 0,0.19092 -1.4625,1.41777 -3.25,2.72633 -2.011104,1.47225 -2.709553,1.71373 -1.832244,0.63346 z m 18.082244,0.97044 c 0,-0.21616 0.698372,-0.661 1.551938,-0.98855 0.889925,-0.34149 1.291322,-0.17385 0.940983,0.39301 -0.587258,0.95021 -2.492921,1.40545 -2.492921,0.59554 z m -4.243983,-4.65097 c 2.820534,-3.01138 3.920721,-4.87928 3.261908,-5.5381 -0.658814,-0.65881 -0.239239,-1.0312 1.243982,-1.10409 1.230951,-0.0605 1.672789,0.10758 0.981862,0.3735 -0.690926,0.26592 -1.047939,0.82051 -0.793361,1.23243 0.254578,0.41191 -1.655118,2.73598 -4.243769,5.16459 l -4.706639,4.41565 z m 13.243983,2.98496 c 0,-0.58246 0.45,-0.7809 1,-0.44098 0.55,0.33992 1,0.81648 1,1.05902 0,0.24254 -0.45,0.44098 -1,0.44098 -0.55,0 -1,-0.47656 -1,-1.05902 z m 25.100391,-1.23646 c -1.264918,-2.10631 -1.243608,-2.12762 0.478332,-0.47833 0.991226,0.94941 1.58698,1.94144 1.323898,2.20452 -0.263082,0.26308 -1.074085,-0.5137 -1.80223,-1.72619 z m -16.100391,0.23646 c 0,-0.58246 0.45,-0.7809 1,-0.44098 0.55,0.33992 1,0.81648 1,1.05902 0,0.24254 -0.45,0.44098 -1,0.44098 -0.55,0 -1,-0.47656 -1,-1.05902 z m 7.489919,0.0427 c -0.345464,-0.55897 -1.159521,-0.71183 -1.809017,-0.33968 -0.649496,0.37215 -0.862538,0.32363 -0.473427,-0.10783 0.389112,-0.43145 -0.285888,-1.66763 -1.5,-2.74706 -1.861891,-1.65535 -1.703416,-1.62863 1.012284,0.1707 3.044383,2.0171 4.996403,4.04018 3.898275,4.04018 -0.275,0 -0.782652,-0.45734 -1.128115,-1.01631 z M 214.6573,229.94136 c 0,-0.80081 0.375,-1.22425 0.83334,-0.94098 0.45833,0.28326 0.83333,0.93847 0.83333,1.45601 0,0.51754 -0.375,0.94098 -0.83333,0.94098 -0.45834,0 -0.83334,-0.65521 -0.83334,-1.45601 z m -179.333331,0.0264 c 0,-0.275 0.9,-0.98167 2,-1.57037 1.1,-0.5887 2,-0.84537 2,-0.57037 0,0.275 -0.9,0.98167 -2,1.57037 -1.1,0.5887 -2,0.84537 -2,0.57037 z m 40.458881,-0.6369 c -0.362533,-0.58659 -0.444683,-1.281 -0.182555,-1.54313 0.262128,-0.26213 0.743066,0.21781 1.068751,1.06653 0.676184,1.76211 0.09985,2.07206 -0.886196,0.4766 z m 160.17949,-0.43347 c 0.31659,-0.825 0.75246,-1.5 0.96862,-1.5 0.21615,0 0.39301,0.675 0.39301,1.5 0,0.825 -0.43588,1.5 -0.96862,1.5 -0.53273,0 -0.70959,-0.675 -0.39301,-1.5 z M 42.749591,226.70318 c 0.14577,-0.9932 0.597138,-1.73081 1.003041,-1.63914 1.518627,0.34295 1.576618,1.08406 0.175796,2.24664 -1.174214,0.97451 -1.394375,0.86105 -1.178837,-0.6075 z m 29.594434,0.21836 c -0.788749,-0.95039 -0.864611,-1.52417 -0.201518,-1.52417 1.208555,0 2.617596,1.8972 1.924098,2.5907 -0.251699,0.2517 -1.02686,-0.22824 -1.72258,-1.06653 z M 227.32397,226.0154 c 0,-0.825 0.45,-1.77811 1,-2.11803 0.55,-0.33992 1,0.057 1,0.88197 0,0.825 -0.45,1.77811 -1,2.11803 -0.55,0.33992 -1,-0.057 -1,-0.88197 z m 14.65638,-0.44523 c -1.37504,-1.5194 -1.41062,-1.83947 -0.20452,-1.83947 0.80309,0 1.25215,0.33657 0.99792,0.74793 -0.25423,0.41135 0.10306,0.94975 0.79399,1.19643 0.69093,0.24667 0.99097,0.73787 0.66677,1.09154 -0.32421,0.35367 -1.33858,-0.18473 -2.25416,-1.19643 z m -213.656381,-0.1728 c 0.825,-0.53316 1.95,-0.96937 2.5,-0.96937 0.55,0 0.325,0.43621 -0.5,0.96937 -0.825,0.53316 -1.95,0.96937 -2.5,0.96937 -0.55,0 -0.325,-0.43621 0.5,-0.96937 z m 180.000001,0.059 c 0,-0.51754 0.44485,-1.21592 0.98855,-1.55194 0.56686,-0.35034 0.7345,0.0511 0.39301,0.94098 -0.66479,1.73244 -1.38156,2.04941 -1.38156,0.61098 z m 14.88116,-1.84044 c -0.32944,-1.98722 -0.18269,-2.92011 0.37209,-2.36533 0.50384,0.50384 0.74864,1.98048 0.544,3.28141 -0.31488,2.00169 -0.45573,1.86084 -0.91609,-0.91608 z m 10.52335,0.93593 c 0.39244,-0.63496 0.31197,-1.15449 -0.17883,-1.15449 -0.49079,0 -0.89235,-0.675 -0.89235,-1.5 0,-1.99512 0.387,-1.89108 1.63419,0.43931 0.7412,1.38494 0.70709,2.14376 -0.11932,2.65451 -0.71794,0.44371 -0.88637,0.27695 -0.44369,-0.43931 z M 60.962343,221.89737 c 0.316582,-0.825 0.752459,-1.5 0.968615,-1.5 0.216156,0 0.393011,0.675 0.393011,1.5 0,0.825 -0.435877,1.5 -0.968615,1.5 -0.532739,0 -0.709594,-0.675 -0.393011,-1.5 z m 156.864957,-0.4895 c -0.36199,-1.14054 0.036,-2.94238 0.93261,-4.22251 l 1.56406,-2.233 v 2.28152 c 0,1.45997 -0.41261,2.02652 -1.14584,1.57335 -0.80641,-0.49838 -0.94888,0.0766 -0.48095,1.94099 0.77126,3.07295 0.0659,3.60787 -0.86988,0.65965 z m -193.3738,0.52664 c 0.844375,-0.84438 14.264532,-4.47641 14.749212,-3.99173 0.41957,0.41957 0.169423,0.52004 -6.052538,2.43104 -4.776292,1.46697 -9.439879,2.30389 -8.696674,1.56069 z m 23.262321,-0.71213 c -0.429721,-0.6953 -0.254219,-0.85798 0.45364,-0.4205 0.634979,0.39244 1.154508,0.23697 1.154508,-0.34549 0,-0.58246 -0.5625,-1.0727 -1.25,-1.08943 -0.6875,-0.0167 -0.428749,-0.50797 0.575003,-1.09166 1.003751,-0.58369 2.091251,-0.79501 2.416667,-0.46959 0.325415,0.32541 -0.04584,0.62329 -0.825003,0.66195 -0.95384,0.0473 -0.846156,0.29619 0.329608,0.76177 1.620492,0.64169 1.605823,0.77921 -0.203639,1.90924 -1.44002,0.89931 -2.13319,0.9212 -2.650784,0.0837 z m 155.608149,0.3493 c 0,-0.45412 1.22388,-1.91662 2.71974,-3.25 1.49586,-1.33337 2.17476,-1.70791 1.50867,-0.8323 -0.66608,0.8756 -0.87746,1.9256 -0.46973,2.33333 0.40772,0.40773 0.0663,0.59133 -0.75868,0.40799 -0.825,-0.18333 -1.3875,0.22917 -1.25,0.91667 0.1375,0.6875 -0.2,1.25 -0.75,1.25 -0.55,0 -1,-0.37156 -1,-0.82569 z m 35.39699,-0.34098 c -0.28326,-0.45833 -0.17746,-0.83333 0.23512,-0.83333 0.41258,0 -0.12265,-0.63821 -1.18941,-1.41824 -1.06675,-0.78003 -1.68246,-1.67534 -1.36823,-1.98957 0.31424,-0.31423 1.78837,0.69898 3.27585,2.25157 1.99807,2.08554 2.29404,2.82291 1.13311,2.82291 -0.86428,0 -1.80317,-0.375 -2.08644,-0.83334 z M 56.323969,220.39737 c 0,-0.55 0.476558,-1 1.059017,-1 0.582459,0 0.780902,0.45 0.440983,1 -0.339919,0.55 -0.816476,1 -1.059017,1 -0.242541,0 -0.440983,-0.45 -0.440983,-1 z m 10.5,-0.0681 c -1.628658,-0.6444 -1.396568,-0.80438 1.25,-0.86161 3.379745,-0.0731 4.145153,0.38016 2,1.18434 -0.6875,0.25773 -2.15,0.1125 -3.25,-0.32273 z m 177.599111,-1.3264 c -1.43928,-1.53204 -1.86225,-2.63386 -1.17432,-3.05902 0.59137,-0.36548 1.13146,-0.41296 1.20021,-0.1055 0.0687,0.30746 0.18814,0.89652 0.26531,1.30902 0.34513,1.84479 1.84188,3.22453 2.8333,2.6118 0.64782,-0.40038 0.79775,-0.20538 0.37188,0.48369 -0.93679,1.51576 -0.89285,1.53134 -3.49638,-1.23999 z m -30.48602,-0.78848 c 0.28881,-0.4673 0.94401,-0.59075 1.45601,-0.27431 1.30838,0.80862 1.16106,1.12396 -0.52511,1.12396 -0.80081,0 -1.21971,-0.38234 -0.9309,-0.84965 z m -3.94329,-0.81702 c 0.59034,-0.825 0.94564,-2.28964 0.78956,-3.25476 -0.15608,-0.96512 0.12671,-1.50107 0.62842,-1.19099 0.50172,0.31008 0.91222,0.0391 0.91222,-0.60222 0,-0.6413 0.62063,-0.92785 1.37919,-0.63676 0.76131,0.29214 2.86519,-1.00393 4.69616,-2.89302 1.82434,-1.88224 3.66865,-3.42225 4.09847,-3.42225 0.42982,0 -1.29332,1.9125 -3.82921,4.25 -2.53589,2.3375 -5.11334,4.25 -5.72766,4.25 -0.61432,0 -1.11695,0.54 -1.11695,1.2 0,0.66 -0.6533,1.785 -1.45177,2.5 -1.22009,1.09253 -1.28048,1.06062 -0.37843,-0.2 z M 29.073969,216.73509 c 0.6875,-0.27741 1.8125,-0.27741 2.5,0 0.6875,0.27741 0.125,0.50439 -1.25,0.50439 -1.375,0 -1.9375,-0.22698 -1.25,-0.50439 z m 222.250001,-0.23007 c 0,-0.67413 -0.51953,-0.9046 -1.15451,-0.51216 -0.76816,0.47475 -0.88059,0.27032 -0.33595,-0.61092 0.57607,-0.9321 0.37497,-1.15423 -0.67883,-0.74985 -0.87436,0.33552 -1.49738,0.0126 -1.49738,-0.77605 0,-0.98445 0.48197,-1.0927 1.77764,-0.39928 2.15158,1.15149 3.30667,2.85631 2.48917,3.67381 -0.33008,0.33007 -0.60014,0.0486 -0.60014,-0.62555 z M 69.593001,215.70438 c 0.972967,-0.25354 2.322967,-0.23687 3,0.0371 0.677032,0.27393 -0.119032,0.48137 -1.769032,0.46099 -1.65,-0.0204 -2.203936,-0.2445 -1.230968,-0.49804 z m 147.432649,-1.27425 c 0.28295,-1.08198 1.2272,-2.54448 2.09834,-3.25 1.33405,-1.08042 1.43773,-1.04615 0.65725,0.21724 -0.90876,1.47106 -1.08067,1.98718 -1.33227,4 -0.0687,0.55 -0.53287,1 -1.03138,1 -0.49851,0 -0.67488,-0.88526 -0.39194,-1.96724 z m -189.432649,0.27425 c 0.972967,-0.25354 2.322967,-0.23687 3,0.0371 0.677032,0.27393 -0.119032,0.48137 -1.769032,0.46099 -1.65,-0.0204 -2.203936,-0.2445 -1.230968,-0.49804 z m 51.480968,-0.0127 c 1.2375,-0.23836 3.2625,-0.23836 4.5,0 1.2375,0.23835 0.225,0.43337 -2.25,0.43337 -2.475,0 -3.4875,-0.19502 -2.25,-0.43337 z m -33.762549,-1.6984 c 1.368099,-0.78122 2.860538,-1.18982 3.316532,-0.908 1.109947,0.68599 0.725511,0.91626 -2.803983,1.67958 l -3,0.64881 z m 180.51255,0.40413 c 0.33992,-0.55 0.81648,-1 1.05902,-1 0.24254,0 0.44098,0.45 0.44098,1 0,0.55 -0.47656,1 -1.05902,1 -0.58246,0 -0.7809,-0.45 -0.44098,-1 z m 13.5,-0.059 c 0,-0.58246 0.45,-0.7809 1,-0.44098 0.55,0.33992 1,0.81648 1,1.05902 0,0.24254 -0.45,0.44098 -1,0.44098 -0.55,0 -1,-0.47656 -1,-1.05902 z m -199.000001,-0.941 c 0,-0.55 0.701558,-1 1.559017,-1 0.857459,0 1.280902,0.45 0.940983,1 -0.339919,0.55 -1.041476,1 -1.559017,1 -0.517541,0 -0.940983,-0.45 -0.940983,-1 z m 15,-0.81901 c 0,-1.06538 -1.0125,-2.67993 -2.25,-3.5879 l -2.25,-1.65086 2.227082,1.0518 c 2.734642,1.29152 4.713016,4.61594 3.275622,5.5043 -0.551487,0.34084 -1.002704,-0.25197 -1.002704,-1.31734 z m 16.507079,0.83046 c -0.350339,-0.56686 0.05106,-0.7345 0.940983,-0.39301 1.732417,0.66479 2.049387,1.38156 0.610955,1.38156 -0.517541,0 -1.215913,-0.44485 -1.551938,-0.98855 z m 124.492922,0.0476 c 0,-0.51754 0.51953,-1.26207 1.15451,-1.65451 0.68238,-0.42174 0.8843,-0.27633 0.49377,0.35557 -0.36341,0.58801 -0.0954,1.29701 0.59549,1.57556 0.75786,0.30554 0.56198,0.53778 -0.49377,0.58541 -0.9625,0.0434 -1.75,-0.34449 -1.75,-0.86203 z m 46.54271,0.0101 c -0.31644,-0.512 -0.19299,-1.1672 0.27431,-1.45601 0.46731,-0.28881 0.84965,0.13009 0.84965,0.9309 0,1.68617 -0.31534,1.83349 -1.12396,0.52511 z M 36.823969,211.39737 c -0.339919,-0.55 0.08352,-1 0.940983,-1 0.857459,0 1.559017,0.45 1.559017,1 0,0.55 -0.423442,1 -0.940983,1 -0.517541,0 -1.219098,-0.45 -1.559017,-1 z m 27.643237,0.10969 c -0.961298,-0.60911 -1.029413,-1.062 -0.233688,-1.55379 0.617691,-0.38175 0.901346,-1.05286 0.630344,-1.49135 -0.271002,-0.43849 0.509158,-1.6299 1.733688,-2.64757 2.183622,-1.81474 2.193173,-1.81358 0.496859,0.0602 -1.639413,1.81093 -1.639413,2.01678 0,3.94943 1.67033,1.9691 1.663219,1.98815 -0.207671,0.55616 -1.755729,-1.34385 -1.875784,-1.31881 -1.281385,0.26723 0.74868,1.99771 0.707259,2.02899 -1.138147,0.85969 z m 10.856763,-0.10969 c -0.825,-0.53316 -1.05,-0.96937 -0.5,-0.96937 0.55,0 1.675,0.43621 2.5,0.96937 0.825,0.53316 1.05,0.96937 0.5,0.96937 -0.55,0 -1.675,-0.43621 -2.5,-0.96937 z m 159.748451,-0.75 c -1.40868,-1.57872 -1.41014,-1.88901 -0.0149,-3.1703 1.33621,-1.22707 1.4773,-1.22707 1.03702,0 -0.28029,0.78117 0.17641,2.2078 1.01489,3.1703 0.83847,0.9625 1.0745,1.75 0.5245,1.75 -0.55,0 -1.70269,-0.7875 -2.56153,-1.75 z M 78.881606,210.49063 c -0.308218,-0.49871 0.340224,-0.67122 1.440983,-0.38337 2.334987,0.61061 2.630147,1.29011 0.560397,1.29011 -0.792541,0 -1.693162,-0.40803 -2.00138,-0.90674 z M 209.6573,209.93982 c 0,-0.80101 0.66441,-1.71134 1.47646,-2.02296 2.11258,-0.81067 2.18289,-0.27683 0.22786,1.72993 -1.35812,1.39406 -1.70432,1.45358 -1.70432,0.29303 z M 31.323969,209.39737 c 0,-0.55 0.476558,-1 1.059017,-1 0.582459,0 0.780902,0.45 0.440983,1 -0.339919,0.55 -0.816476,1 -1.059017,1 -0.242541,0 -0.440983,-0.45 -0.440983,-1 z m 10.25,-0.4338 c -1.2375,-0.57225 -2.25,-1.41031 -2.25,-1.86235 0,-0.45203 -0.519529,-0.5008 -1.154508,-0.10836 -0.721661,0.44601 -0.882799,0.27389 -0.429795,-0.45908 0.525447,-0.8502 1.46155,-0.65692 3.404509,0.7029 1.473886,1.03154 3.242294,1.67718 3.929794,1.43477 0.6875,-0.24241 1.25,-0.22639 1.25,0.0356 0,1.08391 -2.651134,1.22709 -4.75,0.25652 z m 182.208881,0.36727 c -0.36253,-0.58659 -0.44468,-1.281 -0.18255,-1.54313 0.26212,-0.26213 0.74306,0.21781 1.06875,1.06653 0.67618,1.76211 0.0999,2.07206 -0.8862,0.4766 z m 2.80875,-0.3506 c 0.12781,-1.05443 0.90737,-2.10119 1.73237,-2.32613 0.96478,-0.26307 1.10748,-0.11423 0.39994,0.41713 -0.60503,0.45437 -1.38459,1.50113 -1.73236,2.32613 -0.44428,1.05395 -0.56321,0.92991 -0.39995,-0.41713 z m 11.19125,0.3506 c -0.36253,-0.58659 -0.38909,-1.33659 -0.059,-1.66667 0.33008,-0.33007 0.60014,-0.0486 0.60014,0.62555 0,0.67413 0.51953,0.9046 1.15451,0.51216 0.7153,-0.44208 0.88306,-0.27432 0.44098,0.44098 -0.88413,1.43055 -1.29636,1.44753 -2.13661,0.088 z M 27.323969,208.39737 c -1.206772,-0.77988 -1.048621,-0.97237 0.809017,-0.98469 1.287568,-0.009 2.035615,0.42706 1.690983,0.98469 -0.743186,1.2025 -0.639264,1.2025 -2.5,0 z m 31.638374,-0.5 c 0.316582,-0.825 0.963335,-1.5 1.43723,-1.5 0.473895,0 0.602605,0.675 0.286022,1.5 -0.316582,0.825 -0.963335,1.5 -1.43723,1.5 -0.473895,0 -0.602605,-0.675 -0.286022,-1.5 z m 185.861627,0.61048 c -1.65,-0.35909 -2.51559,-0.95914 -1.92354,-1.33345 1.35023,-0.85364 5.42354,0.15246 5.42354,1.3396 0,0.48585 -0.1125,0.83013 -0.25,0.76506 -0.1375,-0.0651 -1.6,-0.41212 -3.25,-0.77121 z M 67.323969,208.01981 c 0,-0.20765 0.7875,-0.99515 1.75,-1.75 1.586056,-1.24387 1.621426,-1.2085 0.377555,0.37756 -1.306369,1.66575 -2.127555,2.19548 -2.127555,1.37244 z m 147.000001,-0.65382 c 0,-0.53274 0.675,-0.96862 1.5,-0.96862 0.825,0 1.5,0.17686 1.5,0.39301 0,0.21616 -0.675,0.65203 -1.5,0.96862 -0.825,0.31658 -1.5,0.13972 -1.5,-0.39301 z m 25,-0.96862 c 0,-0.55 0.47656,-1 1.05902,-1 0.58246,0 0.7809,0.45 0.44098,1 -0.33992,0.55 -0.81648,1 -1.05902,1 -0.24254,0 -0.44098,-0.45 -0.44098,-1 z M 200.593,205.70438 c 0.97297,-0.25354 2.32297,-0.23687 3,0.0371 0.67703,0.27393 -0.11903,0.48137 -1.76903,0.46099 -1.65,-0.0204 -2.20394,-0.2445 -1.23097,-0.49804 z m 8.73097,-0.30701 c 0,-0.55 1.2375,-0.96837 2.75,-0.92971 2.43684,0.0623 2.52225,0.16815 0.75,0.92971 -2.73138,1.17371 -3.5,1.17371 -3.5,0 z M 37.532177,201.10952 c -3.908274,-3.98224 -5.297769,-6.71215 -3.416416,-6.71215 0.435486,0 2.797986,2.1375 5.25,4.75 l 4.458208,4.75 -4.75,-4.45821 c -5.874591,-5.51371 -6.301302,-4.19815 -0.541792,1.67036 2.314514,2.35832 3.983208,4.28785 3.708208,4.28785 -0.275,0 -2.393694,-1.92953 -4.708208,-4.28785 z m 23.627202,3.41073 c 0.734476,-0.46557 1.309286,-1.12895 1.277357,-1.47419 -0.152791,-1.65203 1.132863,-3.31536 2.562578,-3.31536 1.363145,0 1.383776,0.15415 0.144996,1.08334 -0.794356,0.59583 -1.739773,1.87083 -2.100927,2.83333 -0.361155,0.9625 -1.233268,1.74311 -1.938029,1.73469 -1.000584,-0.012 -0.988745,-0.20081 0.05403,-0.86181 z m 174.616261,-0.21877 c -1.14908,-0.44955 1.33818,-0.75998 6.04833,-0.75488 8.63552,0.009 9.01133,0.44584 0.95167,1.10534 -2.77658,0.2272 -5.92658,0.0695 -7,-0.35046 z M 29.196414,202.64737 c -1.236174,-1.57624 -1.203035,-1.61734 0.33375,-0.41391 0.938407,0.73485 2.245436,1.00282 2.904509,0.59549 0.758072,-0.46851 0.936175,-0.31645 0.484788,0.41391 -1.000852,1.61941 -2.127301,1.43924 -3.723047,-0.59549 z m 37.258769,-0.25 c 0.88426,-1.375 2.422155,-2.66103 3.417544,-2.85785 1.558938,-0.30825 1.611139,-0.16963 0.376594,1 -0.788262,0.74682 -2.326157,2.03285 -3.417544,2.85785 -1.93142,1.46 -1.941463,1.43333 -0.376594,-1 z m 188.868787,1.60699 c 0,-0.21616 0.69837,-0.661 1.55194,-0.98855 0.88992,-0.34149 1.29132,-0.17385 0.94098,0.39301 -0.58726,0.95021 -2.49292,1.40545 -2.49292,0.59554 z m -49.25,-1.26927 c 0.6875,-0.27741 1.8125,-0.27741 2.5,0 0.6875,0.27741 0.125,0.50439 -1.25,0.50439 -1.375,0 -1.9375,-0.22698 -1.25,-0.50439 z M 43.287446,198.35126 c -1.76252,-2.22537 -2.988085,-4.26262 -2.723478,-4.52722 0.431935,-0.43194 4.248066,4.11975 6.139873,7.32333 1.556568,2.63589 -0.350113,1.07538 -3.416395,-2.79611 z m 191.536524,3.04611 c 2.7627,-1.18717 4.5,-1.18717 4.5,0 0,0.55 -1.4625,0.96837 -3.25,0.92971 -2.72353,-0.0589 -2.92602,-0.2095 -1.25,-0.92971 z m 6.3125,0.31689 c 0.72187,-0.28887 1.58437,-0.25335 1.91667,0.0789 0.33229,0.33229 -0.25834,0.56864 -1.3125,0.52522 -1.16495,-0.048 -1.4019,-0.28494 -0.60417,-0.60416 z m 13,0 c 0.72187,-0.28887 1.58437,-0.25335 1.91667,0.0789 0.33229,0.33229 -0.25834,0.56864 -1.3125,0.52522 -1.16495,-0.048 -1.4019,-0.28494 -0.60417,-0.60416 z M 76.323969,201.01981 c 0,-0.20765 0.7875,-0.99515 1.75,-1.75 1.586056,-1.24387 1.621426,-1.2085 0.377555,0.37756 -1.306369,1.66575 -2.127555,2.19548 -2.127555,1.37244 z m 132.812501,-0.30555 c 0.72187,-0.28887 1.58437,-0.25335 1.91667,0.0789 0.33229,0.33229 -0.25834,0.56864 -1.3125,0.52522 -1.16495,-0.048 -1.4019,-0.28494 -0.60417,-0.60416 z m -10,-1 c 0.72187,-0.28887 1.58437,-0.25335 1.91667,0.0789 0.33229,0.33229 -0.25834,0.56864 -1.3125,0.52522 -1.16495,-0.048 -1.4019,-0.28494 -0.60417,-0.60416 z m 14.4375,-0.006 c 0.9625,-0.25152 2.5375,-0.25152 3.5,0 0.9625,0.25153 0.175,0.45733 -1.75,0.45733 -1.925,0 -2.7125,-0.2058 -1.75,-0.45733 z m 19.75,0.2597 c 0,-1.31571 3.70824,-2.36089 5.05388,-1.42446 1.24337,0.86526 1.23582,0.94452 -0.0539,0.56535 -0.825,-0.24255 -2.2875,-0.036 -3.25,0.45905 -0.9625,0.49503 -1.75,0.67506 -1.75,0.40006 z m -27.25,-1.23265 c 0.6875,-0.27741 1.8125,-0.27741 2.5,0 0.6875,0.27741 0.125,0.50439 -1.25,0.50439 -1.375,0 -1.9375,-0.22698 -1.25,-0.50439 z m 22.58333,-0.79373 c 0,-0.80081 0.38234,-1.21971 0.84965,-0.9309 0.4673,0.28881 0.59075,0.94401 0.27431,1.45601 -0.80862,1.30838 -1.12396,1.16106 -1.12396,-0.52511 z m -12.59902,-0.79421 c -0.26382,-0.6875 -0.42447,-1.57326 -0.35699,-1.96837 0.0675,-0.3951 -2.57732,-3.53803 -5.87732,-6.9843 -3.3,-3.44626 -4.5375,-4.9513 -2.75,-3.34454 1.7875,1.60677 3.25,2.53376 3.25,2.05999 0,-0.47378 1.04588,0.12115 2.32419,1.32205 1.2783,1.20091 2.70045,1.84185 3.16032,1.42432 0.45988,-0.41753 0.53619,-0.23508 0.16958,0.40544 -0.3666,0.64052 -0.10125,1.3925 0.58968,1.67105 0.93517,0.37703 0.90547,0.52664 -0.11621,0.58541 -1.10604,0.0636 -1.1308,0.37012 -0.12756,1.57895 0.68469,0.825 0.90969,1.5 0.5,1.5 -0.40969,0 -0.18469,0.675 0.5,1.5 0.71755,0.86459 0.81474,1.5 0.22943,1.5 -0.5585,0 -1.2313,-0.5625 -1.49512,-1.25 z m -0.73431,-5.07569 c 0,-0.17912 -1.2375,-1.41662 -2.75,-2.75 l -2.75,-2.42431 2.42431,2.75 c 2.26589,2.57029 3.07569,3.20859 3.07569,2.42431 z m 27.8125,5.64258 c 0.72187,-0.28887 1.58437,-0.25335 1.91667,0.0789 0.33229,0.33229 -0.25834,0.56864 -1.3125,0.52522 -1.16495,-0.048 -1.4019,-0.28494 -0.60417,-0.60416 z M 72.699571,196.04399 c 0.315837,-2.15194 2.384125,-4.22023 3.302176,-3.30218 0.391111,0.39112 -0.246924,1.66915 -1.417855,2.84008 -1.738736,1.73874 -2.084123,1.82344 -1.884321,0.4621 z m 149.182039,0.44664 c -0.30822,-0.49871 0.34022,-0.67122 1.44098,-0.38337 2.33499,0.61061 2.63015,1.29011 0.5604,1.29011 -0.79254,0 -1.69316,-0.40803 -2.00138,-0.90674 z M 61.359404,196.09019 c -0.09621,-2.19156 2.317166,-9.69282 3.118464,-9.69282 0.504058,0 0.429826,0.9093 -0.164959,2.02067 -0.594786,1.11136 -0.8751,2.35451 -0.62292,2.76255 0.252179,0.40803 -0.161065,1.86123 -0.918321,3.22933 -0.757255,1.3681 -1.392774,2.12422 -1.412264,1.68027 z m 4.401878,-0.46347 c 0.341317,-0.34131 1.323785,-0.72378 2.183263,-0.84993 0.859478,-0.12614 1.283428,0.0499 0.942111,0.39123 -0.341317,0.34131 -1.323785,0.72378 -2.183263,0.84993 -0.859478,0.12614 -1.283428,-0.0499 -0.942111,-0.39123 z m 141.562688,-0.22935 c 0,-0.55 0.42344,-1 0.94098,-1 0.51754,0 1.2191,0.45 1.55902,1 0.33992,0.55 -0.0835,1 -0.94098,1 -0.85746,0 -1.55902,-0.45 -1.55902,-1 z m 33.20267,0.14642 c -1.04474,-0.66273 -1.0134,-1.05861 0.16097,-2.03325 1.13529,-0.94221 1.623,-0.94381 2.20184,-0.007 0.50543,0.8178 0.3194,0.94094 -0.58091,0.38451 -0.96167,-0.59434 -1.14954,-0.36276 -0.68589,0.8455 0.72808,1.89736 0.67698,1.93515 -1.09601,0.81046 z m 13.06636,0.16059 c 0.97297,-0.25354 2.32297,-0.23687 3,0.0371 0.67703,0.27393 -0.11903,0.48137 -1.76903,0.46099 -1.65,-0.0204 -2.20394,-0.2445 -1.23097,-0.49804 z M 56.481864,192.39737 c 0,-1.375 0.226973,-1.9375 0.504386,-1.25 0.277412,0.6875 0.277412,1.8125 0,2.5 -0.277413,0.6875 -0.504386,0.125 -0.504386,-1.25 z m 145.342106,1 c 0.33992,-0.55 0.81648,-1 1.05902,-1 0.24254,0 0.44098,0.45 0.44098,1 0,0.55 -0.47656,1 -1.05902,1 -0.58246,0 -0.7809,-0.45 -0.44098,-1 z m 43.5,0.0314 c 0,-0.53273 0.675,-0.70959 1.5,-0.39301 0.825,0.31659 1.5,0.75246 1.5,0.96862 0,0.21615 -0.675,0.39301 -1.5,0.39301 -0.825,0 -1.5,-0.43588 -1.5,-0.96862 z m -200.500001,-1.0314 c -0.339919,-0.55 -0.141476,-1 0.440983,-1 0.582459,0 1.059017,0.45 1.059017,1 0,0.55 -0.198442,1 -0.440983,1 -0.242541,0 -0.719098,-0.45 -1.059017,-1 z m 25.064293,-0.29313 c 0.375531,-0.98622 0.934692,-1.54122 1.242579,-1.23333 0.307887,0.30789 6.34e-4,1.11479 -0.682784,1.79313 -0.987616,0.98026 -1.10248,0.8654 -0.559795,-0.5598 z m 166.074758,-0.48189 c -0.30868,-0.49944 0.99626,-2.41765 2.89986,-4.26269 1.9036,-1.84505 3.46109,-2.98625 3.46109,-2.53601 0,0.45023 0.675,0.25841 1.5,-0.42628 1.81107,-1.50306 2.00998,-3.41151 0.25,-2.39869 -0.6875,0.39564 -0.89948,0.33417 -0.47106,-0.1366 0.42842,-0.47076 1.43498,-0.95222 2.2368,-1.0699 1.06965,-0.15699 1.21799,0.22795 0.55711,1.44561 -1.22111,2.24986 -6.68311,7.37814 -7.72939,7.25713 -0.4639,-0.0537 -0.84346,0.31495 -0.84346,0.81912 0,1.43997 -1.24056,2.31213 -1.86095,1.30831 z m 5.48851,-4.97498 c 1.24387,-1.58606 1.2085,-1.62143 -0.37756,-0.37756 -0.9625,0.75485 -1.75,1.54235 -1.75,1.75 0,0.82304 0.82119,0.29331 2.12756,-1.37244 z m 1.87244,5.37244 c 0,-0.20765 0.7875,-0.99515 1.75,-1.75 1.58606,-1.24387 1.62143,-1.2085 0.37756,0.37756 -1.30637,1.66575 -2.12756,2.19548 -2.12756,1.37244 z m -2,-1 c 0,-0.20765 0.7875,-0.99515 1.75,-1.75 1.58606,-1.24387 1.62143,-1.2085 0.37756,0.37756 -1.30637,1.66575 -2.12756,2.19548 -2.12756,1.37244 z m -36,-1.68146 c 0,-0.58246 0.45,-0.7809 1,-0.44098 0.55,0.33992 1,0.81648 1,1.05902 0,0.24254 -0.45,0.44098 -1,0.44098 -0.55,0 -1,-0.47656 -1,-1.05902 z m 11.56429,-0.64785 c -0.54268,-1.4252 -0.42782,-1.54006 0.5598,-0.5598 0.68342,0.67834 0.99067,1.48524 0.68278,1.79313 -0.30789,0.30789 -0.86705,-0.24711 -1.24258,-1.23333 z m 2.64236,0.0425 c -0.55517,-1.06668 -0.59599,-2.67347 -0.0974,-3.83565 l 0.85794,-2 -0.20862,2 c -0.11474,1.1 0.16272,2.59244 0.61656,3.31653 0.45385,0.72409 0.59158,1.55013 0.30607,1.83565 -0.28552,0.28551 -0.94904,-0.30693 -1.47451,-1.31653 z M 49.402916,187.81404 c 0.04798,-1.16495 0.284941,-1.4019 0.604167,-0.60417 0.288871,0.72187 0.253344,1.58437 -0.07895,1.91667 -0.332292,0.33229 -0.568641,-0.25834 -0.52522,-1.3125 z m 179.921054,0.0833 c 0,-0.825 0.43588,-1.5 0.96862,-1.5 0.53273,0 0.70959,0.675 0.39301,1.5 -0.31659,0.825 -0.75246,1.5 -0.96862,1.5 -0.21615,0 -0.39301,-0.675 -0.39301,-1.5 z m -173.000001,-0.5 c 0,-0.55 0.45,-1 1,-1 0.55,0 1,0.45 1,1 0,0.55 -0.45,1 -1,1 -0.55,0 -1,-0.45 -1,-1 z m 146.000001,-0.059 c 0,-0.58246 -0.51953,-0.73793 -1.15451,-0.34549 -0.73193,0.45236 -0.88235,0.27317 -0.41097,-0.48954 0.56934,-0.92122 1.07409,-0.92873 2.15451,-0.0321 1.66545,1.3822 1.7815,1.92611 0.41097,1.92611 -0.55,0 -1,-0.47656 -1,-1.05902 z m 24.232,-1.941 c 0,-1.925 0.2058,-2.7125 0.45733,-1.75 0.25152,0.9625 0.25152,2.5375 0,3.5 -0.25153,0.9625 -0.45733,0.175 -0.45733,-1.75 z m 6.78331,1.79705 c -0.0319,-1.46684 2.3437,-5.79705 3.18039,-5.79705 0.83022,0 0.11266,1.67116 -2.1469,5 -0.56,0.825 -1.02507,1.18367 -1.03349,0.79705 z m -18.45102,-2.50392 c -0.54268,-1.4252 -0.42782,-1.54006 0.5598,-0.5598 0.68342,0.67834 0.99067,1.48524 0.68278,1.79313 -0.30789,0.30789 -0.86705,-0.24711 -1.24258,-1.23333 z m -7.63998,-2.04313 -2.42431,-2.75 2.75,2.42431 c 2.57029,2.26589 3.20859,3.07569 2.42431,3.07569 -0.17912,0 -1.41662,-1.2375 -2.75,-2.75 z m 23.07569,1.19098 c 0,-0.85746 0.45734,-1.27636 1.01631,-0.9309 0.55897,0.34546 0.75742,1.04702 0.44098,1.55902 -0.85723,1.38704 -1.45729,1.12841 -1.45729,-0.62812 z m -7.92105,-1.02431 c 0.048,-1.16495 0.28494,-1.4019 0.60416,-0.60417 0.28887,0.72187 0.25335,1.58437 -0.0789,1.91667 -0.3323,0.33229 -0.56864,-0.25834 -0.52522,-1.3125 z m -5.93838,-1.41667 c 0,-0.825 0.38674,-2.4 0.85943,-3.5 0.54172,-1.26064 0.85943,-1.44548 0.85943,-0.5 0,0.825 -0.38674,2.4 -0.85943,3.5 -0.54172,1.26064 -0.85943,1.44548 -0.85943,0.5 z m 15.31831,-1.06653 c -0.36253,-0.58659 -0.44468,-1.281 -0.18255,-1.54313 0.26212,-0.26213 0.74306,0.21781 1.06875,1.06653 0.67618,1.76211 0.0999,2.07206 -0.8862,0.4766 z m -5.30099,-3.93347 c 0,-1.375 0.22698,-1.9375 0.50439,-1.25 0.27741,0.6875 0.27741,1.8125 0,2.5 -0.27741,0.6875 -0.50439,0.125 -0.50439,-1.25 z m -5.44738,-0.999 c -0.28751,-1.09946 -0.21046,-2.19201 0.17123,-2.42791 0.38169,-0.2359 0.7844,0.66365 0.89492,1.999 0.24329,2.93969 -0.34742,3.17733 -1.06615,0.42891 z m 11.36844,0.30802 c -0.11408,-1.72088 1.6556,-2.54754 2.50646,-1.17082 0.43129,0.69784 0.29172,0.9039 -0.34549,0.51008 -0.58801,-0.36341 -1.29701,-0.0954 -1.57556,0.59549 -0.3625,0.89914 -0.52891,0.91769 -0.58541,0.0652 z"
             id="path1433"
             inkscape:connector-curvature="0"
             sodipodi:nodetypes="ccsccscccccscssssssccscccscscssscssssscsssccsccccsssssccccccssscsscsccccsccccccccscsccccsssccccccsccsscsccccccccccccccccccccsssssccsccsccccccsssssccccscsssscccccssscsccssccccsccccccccscssssscssssssssssssccsscccccccscccccscccccccccsccccsscssscccscccccccccsccsccccccsscccccscsscsscscscscccsccsccccccsssccccssccsscsccccscsssssccscccscsccsssssscssssssscscssscscsssssssscscccssscccsccsscssssscsccccssssssccsscscccsssccccsssccccscsccsccccscscccsccsccccssscscccscssssssccsscccccsccsccscsccssssccssssssccsscsccccccsccsccccccccscccsccssssssssssssssssccccsscsssccccsccscsssssccsscscscsssssccccsccscsssccsssssscscccsscccccccccccsssscccccccscscscscsscssssscsssssscccccscssssscssssccscscccccscssccsssccssccsssssccscsscsccccccccccscssccccccccccccsccsccccsssssccsscccscccccsscssscccscccccsccsscsscsccsccccccsssssccccscccccccsccssssssscsssssssssscsscsccccccssccscsccssccsssszsccsccczscccccccccsscsssssssccccsccsccscsccccsccccscsscscccccsssssccccsssscscccccccc" />
        </g>
      </g>
    </g>
  </g>
</svg>
