<?xml version="1.0" encoding="UTF-8" standalone="no"?>
<!-- Created with Inkscape (http://www.inkscape.org/) -->

<svg
   xmlns:dc="http://purl.org/dc/elements/1.1/"
   xmlns:cc="http://creativecommons.org/ns#"
   xmlns:rdf="http://www.w3.org/1999/02/22-rdf-syntax-ns#"
   xmlns:svg="http://www.w3.org/2000/svg"
   xmlns="http://www.w3.org/2000/svg"
   xmlns:sodipodi="http://sodipodi.sourceforge.net/DTD/sodipodi-0.dtd"
   xmlns:inkscape="http://www.inkscape.org/namespaces/inkscape"
   width="75mm"
   height="120mm"
   viewBox="0 0 75 120"
   version="1.1"
   id="svg8"
   inkscape:version="0.92.4 (5da689c313, 2019-01-14)"
   sodipodi:docname="feu16.svg">
  <defs
     id="defs2" />
  <sodipodi:namedview
     id="base"
     pagecolor="#ffffff"
     bordercolor="#666666"
     borderopacity="1.0"
     inkscape:pageopacity="0.0"
     inkscape:pageshadow="2"
     inkscape:zoom="0.98994949"
     inkscape:cx="-37.15592"
     inkscape:cy="248.99729"
     inkscape:document-units="mm"
     inkscape:current-layer="layer1"
     showgrid="false"
     units="mm"
     inkscape:window-width="1920"
     inkscape:window-height="1017"
     inkscape:window-x="-8"
     inkscape:window-y="-8"
     inkscape:window-maximized="1" />
  <metadata
     id="metadata5">
    <rdf:RDF>
      <cc:Work
         rdf:about="">
        <dc:format>image/svg+xml</dc:format>
        <dc:type
           rdf:resource="http://purl.org/dc/dcmitype/StillImage" />
        <dc:title />
      </cc:Work>
    </rdf:RDF>
  </metadata>
  <g
     inkscape:label="Calque 1"
     inkscape:groupmode="layer"
     id="layer1"
     transform="translate(0,-176.99999)">
    <g
       id="g2559"
       transform="translate(-2.0045215,5.078121)">
      <path
         style="fill:#00ffcc;stroke-width:0.26458335"
         d="m 46.886279,260.88812 c -0.185071,-0.29945 0.04199,-2.90433 0.315232,-3.61639 0.310566,-0.80932 -0.385148,-0.23508 -1.355793,1.11906 -0.996591,1.39034 -1.449293,1.64495 -1.682235,0.94613 -0.169484,-0.50846 2.359036,-2.84089 3.077086,-2.83846 0.605687,0.002 0.618495,0.0518 0.527743,2.05027 -0.09066,1.99641 -0.470836,3.00473 -0.882033,2.33939 z m 2.92835,-1.12751 c -0.674754,-1.03192 -1.526709,-3.14539 -1.342062,-3.32928 0.09745,-0.0971 0.411938,0.1212 0.69887,0.48501 0.286933,0.3638 0.810297,1.01864 1.163035,1.4552 0.720775,0.89207 0.864002,1.98438 0.260194,1.98438 -0.214927,0 -0.565944,-0.26789 -0.780037,-0.59531 z m 0.955326,-2.06334 c -1.04565,-0.88018 -1.90118,-1.70216 -1.90118,-1.82664 0,-0.30807 2.566467,1.13154 3.678375,2.06332 0.524714,0.43972 0.821717,0.88148 0.711989,1.05903 -0.301067,0.48713 -0.484772,0.39151 -2.489184,-1.29571 z m -8.765847,0.28636 c -0.470858,-0.29101 -0.162301,-0.71217 0.856636,-1.16925 1.171247,-0.52541 2.938156,-0.81136 2.70751,-0.43816 -0.330501,0.53476 -3.203347,1.8304 -3.564146,1.60741 z m 9.642792,-1.53149 c -2.066105,-0.76716 -2.130673,-0.80062 -1.930818,-1.00047 0.200314,-0.20031 4.243586,0.66163 4.639884,0.98913 0.412039,0.34051 0.180846,0.74669 -0.409577,0.71957 -0.246073,-0.0113 -1.280843,-0.33 -2.299489,-0.70823 z m -10.319057,-0.85922 c -0.284027,-0.45956 1.169337,-0.80041 2.663942,-0.62475 0.790575,0.0929 1.437407,0.25603 1.437407,0.36248 0,0.46691 -3.823748,0.71144 -4.101349,0.26227 z m -11.742065,-0.24456 c -0.239903,-0.14827 -0.33438,-0.93396 -0.320852,-2.66831 l 0.01918,-2.45815 -1.002949,1.43175 c -0.551621,0.78746 -1.083462,1.64157 -1.181867,1.89801 -0.225456,0.58753 -0.935582,0.87377 -1.289556,0.51979 -0.504628,-0.50463 0.596135,-2.03906 3.033809,-4.22904 0.691645,-0.62137 1.010531,-0.76651 1.162587,-0.52917 0.115242,0.17988 0.447654,0.45653 0.738696,0.61479 0.565134,0.30728 2.760715,3.71023 2.771611,4.29573 0.0096,0.51793 -0.863243,0.25715 -1.179783,-0.35248 -1.115033,-2.14743 -1.831266,-3.26996 -2.014257,-3.15686 -0.117967,0.0729 -0.166518,1.13768 -0.107892,2.36617 0.107358,2.24962 -0.0046,2.65349 -0.628718,2.26777 z m 20.99819,-0.67046 c 0.558451,-0.4508 2.822631,-1.20115 3.624496,-1.20115 0.264631,0 0.481145,0.17401 0.481145,0.38668 0,0.42675 -1.295554,0.84901 -3.334587,1.08682 -1.219475,0.14223 -1.26479,0.12622 -0.771054,-0.27235 z m -7.370717,-0.53151 c -1.200621,-0.42796 -1.615033,-0.77957 -1.375537,-1.16708 0.225586,-0.36501 1.60151,-0.10903 2.895653,0.53872 0.563181,0.28189 1.086485,0.45001 1.162894,0.3736 0.07641,-0.0764 -0.08672,-0.23329 -0.362511,-0.34863 -1.077693,-0.45071 -2.998682,-1.80316 -3.006611,-2.11677 -0.01945,-0.76852 1.252466,-0.27965 2.458759,0.94506 1.903175,1.93223 1.053947,2.78263 -1.772647,1.7751 z m 4.984485,0.10861 c -0.08308,-0.13443 -0.190259,-0.75149 -0.238162,-1.37123 -0.0479,-0.61975 -0.175098,-1.79542 -0.282657,-2.61262 -0.211957,-1.6104 0.08413,-2.14686 0.839087,-1.5203 0.345487,0.28673 0.396245,0.79441 0.293253,2.9332 -0.0685,1.42255 -0.08873,2.58645 -0.04495,2.58645 0.04378,0 0.196975,-0.38695 0.340437,-0.85989 0.82486,-2.71925 1.58451,-4.16719 2.186289,-4.16719 0.529717,0 0.144791,1.35466 -0.8568,3.01532 -0.594207,0.98521 -1.008187,1.86348 -0.919956,1.95171 0.08823,0.0882 0.357703,-0.13006 0.598828,-0.48508 0.73596,-1.0836 2.519276,-2.62987 3.033028,-2.62987 1.137787,0 0.11834,1.36535 -2.028399,2.71664 -1.057199,0.66546 -2.634568,0.9047 -2.919998,0.44286 z m -1.495737,-1.11505 c -1.901777,-2.04539 -2.772354,-3.89653 -1.832509,-3.89653 0.683217,0 2.995932,4.00196 2.562936,4.43496 -0.06549,0.0655 -0.394186,-0.1768 -0.730427,-0.53843 z m -12.989248,-1.50583 c -1.273611,-0.8077 -2.290894,-2.11523 -1.371073,-1.76226 0.76177,0.29232 3.033347,1.82475 3.033347,2.04634 0,0.51624 -0.547954,0.4226 -1.662274,-0.28408 z m -10.096927,0.0144 c -0.33983,-0.54985 0.237296,-1.01662 1.93174,-1.56235 0.987367,-0.31801 2.084422,-0.57554 2.437899,-0.57231 l 0.642687,0.006 -0.661458,0.54082 c -0.845685,0.69145 -3.171729,1.82271 -3.754698,1.82608 -0.246073,10e-4 -0.51435,-0.10574 -0.59617,-0.23813 z m 9.642535,-1.78498 c -1.684806,-0.45165 -2.667434,-1.15864 -1.578052,-1.13539 0.965687,0.0206 4.331208,0.65141 4.703665,0.8816 0.53009,0.32761 0.07735,0.69367 -0.826125,0.66794 -0.464354,-0.0132 -1.499124,-0.19959 -2.299488,-0.41415 z m -8.332078,-1.38931 c -0.970305,-0.11526 -1.343922,-0.2797 -1.408463,-0.61989 -0.06995,-0.3687 0.09128,-0.45888 0.791453,-0.44269 1.206869,0.0279 2.930201,0.57613 3.062951,0.97438 0.115996,0.34799 -0.171589,0.35836 -2.445941,0.0882 z m 3.569578,-0.38243 c -1.66884,-0.89535 -3.959593,-2.3237 -4.105611,-2.55996 -0.269294,-0.43573 0.698334,-0.62868 1.296388,-0.25851 0.308146,0.19073 0.857921,0.5365 1.221723,0.76839 0.659572,0.4204 0.659383,0.4191 -0.06615,-0.45762 -0.718702,-0.86846 -0.988132,-2.16153 -0.450387,-2.16153 0.440279,0 1.443126,1.20899 1.967593,2.37205 0.264764,0.58714 0.559987,1.06753 0.656052,1.06753 0.09606,0 0.02813,-0.86267 -0.150966,-1.91704 -0.234382,-1.37985 -0.245348,-2.01376 -0.03914,-2.26224 0.506521,-0.61031 0.96058,0.21875 1.024985,1.87152 0.06896,1.76961 0.223798,1.69672 0.858658,-0.40422 0.433102,-1.43326 0.953452,-1.91251 1.360837,-1.25335 0.209923,0.33966 -0.730515,2.87239 -1.647664,4.43739 -0.591889,1.00998 -0.728649,1.11748 -0.880954,0.69249 -0.163825,-0.45714 -0.189592,-0.46093 -0.282104,-0.0416 -0.08999,0.40796 -0.178604,0.42034 -0.763267,0.10666 z m 3.439951,0.19595 c 4.1e-4,-0.26346 2.854872,-1.16102 3.692342,-1.16102 0.626658,0 0.731332,0.66396 0.140423,0.89071 -0.753711,0.28923 -3.833136,0.50641 -3.832765,0.27031 z m -3.68e-4,-0.83919 c 0,-0.30387 1.866905,-2.0511 2.585156,-2.41945 0.601766,-0.3086 1.119011,-0.19412 1.119011,0.24769 0,0.12953 -0.393362,0.53554 -0.874139,0.90224 -1.007536,0.76849 -2.830028,1.58604 -2.830028,1.26952 z m -1.014235,-0.25568 c 0.04851,-0.10914 0.608203,-1.00737 1.243769,-1.99606 1.102961,-1.71577 1.661533,-2.07894 1.833618,-1.19216 0.08276,0.42645 -2.456878,3.38666 -2.905501,3.38666 -0.143044,0 -0.220395,-0.0893 -0.171886,-0.19844 z m 31.330357,-2.06699 c -0.320135,-0.32014 -0.418205,-0.98459 -0.418205,-2.83347 0,-2.69614 0.297135,-2.83275 0.936468,-0.43056 0.433605,1.62919 0.501762,3.31029 0.143196,3.5319 -0.13379,0.0827 -0.431446,-0.0379 -0.661459,-0.26787 z M 59.634798,244.84 c -0.339198,-0.3392 -0.185552,-1.0136 0.617799,-2.71175 0.878166,-1.85629 0.897351,-2.41747 0.03494,-1.02206 -0.778785,1.2601 -2.652455,2.72187 -3.019004,2.35532 -0.205798,-0.2058 0.08036,-0.64615 1.014614,-1.56134 1.907119,-1.86821 2.484276,-2.22715 2.904857,-1.80657 0.349039,0.34904 0.29762,0.74406 -0.416112,3.19669 -0.333069,1.14455 -0.844815,1.84199 -1.137095,1.54971 z m 5.047951,-1.62177 c -0.363283,-0.54895 -0.929516,-1.53122 -1.258295,-2.18281 l -0.597781,-1.18471 0.718018,0.66146 c 0.906913,0.83548 2.522001,3.01852 2.522001,3.40889 0,0.63125 -0.754743,0.24796 -1.383943,-0.70283 z m 2.442276,-1.30815 c -0.766567,-0.28103 -2.951726,-1.78102 -2.711302,-1.86116 0.492758,-0.16425 3.637344,1.1339 3.637344,1.50157 0,0.42997 -0.356471,0.56839 -0.926042,0.35959 z M 44.38781,240.80843 c -0.178961,-0.3344 -0.177321,-1.05002 0.005,-2.18282 0.458666,-2.84967 0.512937,-3.02905 0.785918,-2.59756 0.210828,0.33325 0.24288,0.33268 0.246404,-0.004 0.0072,-0.69198 0.691409,0.23203 1.723274,2.32738 0.772988,1.56967 0.893807,2.0141 0.632973,2.32839 -0.482949,0.58192 -0.935014,-2.7e-4 -1.687375,-2.17328 l -0.633777,-1.83048 -0.01553,1.89659 c -0.02135,2.60898 -0.413417,3.43849 -1.056902,2.23613 z m 11.362344,0.23788 c -0.54727,-0.34323 -0.07239,-0.77103 1.222211,-1.10101 2.96487,-0.75571 2.949638,-0.69514 0.230785,-0.91758 -0.727604,-0.0595 -1.471745,-0.16287 -1.653646,-0.22963 -0.449249,-0.1649 -0.417292,-0.57734 0.05889,-0.76007 0.476684,-0.18292 4.646578,0.52534 4.964456,0.84322 0.128392,0.12839 -0.560022,0.63864 -1.570556,1.16408 -2.217216,1.15288 -2.748992,1.31656 -3.25214,1.00099 z m -29.362547,-0.97776 c 0.01175,-0.30417 0.671738,-1.14388 0.899051,-1.14388 0.405749,0 -0.0098,1.19062 -0.444445,1.27347 -0.254662,0.0485 -0.459234,-0.01 -0.454606,-0.12959 z m 15.337418,-0.20134 c 0,-0.54911 1.923122,-3.30175 2.315104,-3.3137 0.449004,-0.0137 0.41714,0.18236 -0.163724,1.0074 -0.271952,0.38626 -0.584179,0.99996 -0.69384,1.36376 -0.109662,0.3638 -0.318456,0.81029 -0.463984,0.99219 -0.359979,0.44994 -0.993556,0.41828 -0.993556,-0.0497 z m -12.916892,-0.59957 c -0.49732,-1.26338 -1.139465,-4.07908 -1.034722,-4.53707 0.123067,-0.53812 2.358644,4.14272 2.249427,4.70983 -0.138811,0.72079 -0.905915,0.61169 -1.214705,-0.17276 z m 36.597101,0.26219 c -1.814616,-0.19094 -1.581391,-0.53117 0.497665,-0.72599 2.115002,-0.19819 3.16833,-0.0319 3.001947,0.47401 -0.106609,0.32413 -1.714019,0.43987 -3.499612,0.25198 z M 48.06885,237.70951 c -1.015635,-0.98051 -1.795164,-1.8342 -1.732285,-1.89707 0.33969,-0.3397 4.11971,2.39646 4.11971,2.98204 0,0.87994 -0.665305,0.5776 -2.387425,-1.08497 z m -24.688269,1.03877 c -0.417211,-0.41721 -0.103147,-1.15752 0.928884,-2.18955 1.028538,-1.02853 2.069727,-1.78251 2.069727,-1.49879 0,0.0674 -0.442841,0.87531 -0.984091,1.79524 -1.160164,1.97188 -1.560004,2.34762 -2.01452,1.8931 z m 16.492361,-0.33495 c 0,-0.29883 0.247407,-0.58856 0.595312,-0.69715 0.327422,-0.1022 0.986409,-0.52695 1.464416,-0.94388 0.882955,-0.77013 1.379855,-0.9552 1.379855,-0.51392 0,0.32638 -2.753331,2.66629 -3.137379,2.66629 -0.166213,0 -0.302204,-0.2301 -0.302204,-0.51134 z m -9.647611,-1.12128 c -1.33196,-1.48146 -1.885293,-2.33613 -1.512463,-2.33613 0.414601,0 3.759035,3.21373 3.604556,3.46368 -0.314892,0.5095 -0.907312,0.19021 -2.092093,-1.12755 z m 33.771274,0.83142 c 0.06533,-0.19599 0.46853,-0.47007 0.895998,-0.60905 0.427466,-0.13899 1.082133,-0.46594 1.454809,-0.72655 1.001779,-0.70055 2.10053,-0.92854 2.10053,-0.43586 0,0.54133 -1.056217,1.18773 -2.451796,1.50049 -0.639305,0.14327 -1.377463,0.34303 -1.640351,0.44391 -0.335272,0.12865 -0.44251,0.077 -0.35919,-0.17294 z m -6.033852,-0.7794 c -1.734153,-0.7995 -2.168967,-1.18927 -1.579197,-1.41558 0.447468,-0.17171 3.323195,1.15301 3.828552,1.76365 0.316177,0.38205 0.299072,0.43624 -0.132291,0.41918 -0.272479,-0.0108 -1.225159,-0.35604 -2.117064,-0.76725 z m 2.812272,0.0942 c 0,-0.1384 -0.327422,-0.45081 -0.727604,-0.69424 -0.889365,-0.54102 -2.711979,-2.26838 -2.711979,-2.57026 0,-0.57723 0.873016,-0.45505 1.655119,0.23165 0.877192,0.77019 2.1755,2.89345 1.9234,3.14555 -0.07641,0.0764 -0.138936,0.0257 -0.138936,-0.1127 z m 0.541682,-0.69645 c -0.173948,-0.47295 -0.612079,-1.50182 -0.973627,-2.2864 -0.712523,-1.5462 -0.567643,-2.15117 0.392155,-1.6375 0.335631,0.17962 0.611952,0.67355 0.71679,1.28128 0.09383,0.54393 0.317386,1.51651 0.496784,2.16127 l 0.326184,1.17231 0.482481,-2.29911 c 0.441616,-2.10438 0.959628,-3.14474 1.364311,-2.74006 0.351224,0.35122 0.111932,1.46734 -0.70534,3.28987 -0.973063,2.16995 -1.578628,2.47517 -2.099738,1.05834 z m 2.194364,0.47727 c 0.319873,-0.83358 2.449872,-3.28353 2.870734,-3.30196 1.00093,-0.0438 0.735799,0.63484 -0.830143,2.12494 -1.600346,1.52284 -2.33616,1.94725 -2.040591,1.17702 z m -36.426323,-0.0584 c -0.278721,-0.27872 -0.205196,-1.67569 0.08819,-1.67569 0.145521,0 0.264583,0.41671 0.264583,0.92604 0,0.95163 -0.04826,1.05417 -0.352777,0.74965 z m 4.969434,-0.75085 c -1.654159,-0.83797 -2.7822,-1.7036 -2.235407,-1.71539 0.735333,-0.0159 3.765569,1.17186 3.902914,1.52978 0.293754,0.7655 -0.375687,0.84002 -1.667507,0.18561 z m -10.322053,0.10622 c -0.245496,-0.39722 0.333342,-0.87223 1.709825,-1.40313 1.848991,-0.71314 1.891145,-0.0902 0.05844,0.8636 -1.051185,0.54708 -1.650569,0.72997 -1.768267,0.53953 z m 17.08248,-0.23122 c 0,-0.50829 1.306793,-1.101 2.75763,-1.25074 1.993508,-0.20575 1.915028,0.25395 -0.163171,0.95577 -1.788528,0.604 -2.594459,0.69563 -2.594459,0.29497 z m 9.061979,-0.42531 c -1.587286,-0.69415 -1.047327,-0.98177 1.455208,-0.77513 2.54998,0.21056 2.711979,0.25913 2.711979,0.81309 0,0.51172 -2.97217,0.48464 -4.167187,-0.038 z m -17.131771,-1.37238 c -1.205341,-0.37682 -1.264129,-0.43081 -0.661458,-0.60753 0.363802,-0.10668 1.524661,-0.20583 2.579687,-0.22033 1.71499,-0.0236 1.918229,0.0267 1.918229,0.47448 0,0.92085 -1.56129,1.06466 -3.836458,0.35338 z m 14.419792,0.10337 c 0,-0.0554 0.423772,-1.2758 0.941715,-2.71198 0.973371,-2.69903 1.444591,-3.46434 1.943312,-3.15611 0.517313,0.31971 0.309414,1.16565 -0.658231,2.67832 -0.521512,0.81525 -0.892545,1.53794 -0.824518,1.60597 0.06803,0.068 0.911143,-0.54437 1.873594,-1.36087 1.661636,-1.40967 2.280378,-1.62193 2.280378,-0.78229 0,0.20594 -1.185929,1.15141 -2.635396,2.10105 -2.480866,1.62539 -2.920854,1.87031 -2.920854,1.62591 z m -6.019271,-0.33909 c -0.181901,-0.0734 -0.330729,-0.3177 -0.330729,-0.5429 0,-0.48785 1.17938,-0.36643 2.647381,0.27256 l 0.924494,0.4024 -1.455209,8e-4 c -0.800364,2.6e-4 -1.604036,-0.0594 -1.785937,-0.13276 z M 21.09494,233.9139 c -0.338875,-0.21964 -0.335255,-0.27323 0.02787,-0.41258 0.652183,-0.25026 3.801176,-0.0316 3.801176,0.26397 0,0.34659 -3.324532,0.47562 -3.829044,0.14861 z m 26.903933,-0.046 c 0.415234,-0.41523 3.049579,-1.2464 3.460771,-1.09191 0.713245,0.26797 0.09028,0.72292 -1.42,1.03703 -2.043253,0.42495 -2.421001,0.43511 -2.040771,0.0549 z m -6.86916,-1.08517 c -1.57285,-0.84527 -1.979322,-1.53098 -0.907521,-1.53098 0.612177,0 2.82575,1.67426 2.82575,2.13728 0,0.36738 -0.258421,0.2857 -1.918229,-0.6063 z m 2.578335,0.48729 c -1.989968,-2.74407 -2.538751,-3.68504 -2.292665,-3.93113 0.508305,-0.5083 1.080257,0.0281 2.020129,1.89438 0.51444,1.02155 0.935347,1.97939 0.935347,2.12854 0,0.38474 -0.352656,0.3359 -0.662811,-0.0918 z m -14.153856,-0.0844 c 0,-0.52905 3.782137,-2.34502 4.26389,-2.04728 0.59541,0.36798 0.105614,0.91718 -1.280488,1.43578 -1.900772,0.71117 -2.983402,0.93308 -2.983402,0.6115 z m 15.079866,-2.07507 c -0.385188,-2.4761 -0.186229,-3.18362 0.657884,-2.33951 0.370718,0.37072 0.431451,0.73235 0.302792,1.80295 -0.08852,0.73656 -0.161978,1.66663 -0.163243,2.06681 -0.0048,1.5134 -0.459782,0.64027 -0.797433,-1.53025 z M 24.48488,232.9734 c -0.07173,-0.0717 -0.77002,-0.25172 -1.551751,-0.39997 -1.358941,-0.25772 -1.961292,-0.65586 -1.680239,-1.11062 0.381574,-0.6174 3.733392,0.50499 4.012993,1.3438 0.09707,0.2912 -0.523958,0.42384 -0.781003,0.16679 z m 0.306812,-1.45611 c -1.152346,-0.76689 -1.984375,-1.50619 -1.984375,-1.76321 0,-0.91185 0.712271,-0.61419 2.393539,1.00024 1.729303,1.66056 1.830695,1.60535 0.86875,-0.47311 -0.280723,-0.60656 -0.579611,-1.52929 -0.664195,-2.05052 -0.135445,-0.83465 -0.08765,-0.9477 0.400687,-0.9477 0.304962,0 0.667695,0.21155 0.806074,0.47012 0.209017,0.39055 0.825353,4.00536 0.825353,4.84069 0,0.50011 -0.712183,0.21034 -2.645833,-1.07651 z m 3.289494,-0.53013 c 0.238777,-2.29801 0.605853,-3.61939 1.053136,-3.79103 0.915014,-0.35112 0.911162,0.87573 -0.01011,3.21673 -0.981815,2.49487 -1.258419,2.64717 -1.043035,0.5743 z m 0.679256,1.42399 c 0,-0.0899 0.327422,-0.5479 0.727604,-1.01771 0.400182,-0.4698 1.025261,-1.22462 1.389063,-1.67737 0.684741,-0.85215 1.455441,-1.09089 1.66199,-0.51485 0.20474,0.571 -0.294491,1.19572 -1.839811,2.3023 -1.432465,1.02577 -1.938846,1.26282 -1.938846,0.90763 z M 14.658477,227.9095 c -0.102044,-0.10205 -0.185535,-0.52067 -0.185535,-0.93028 0,-1.12406 0.611463,-4.45873 0.817576,-4.45873 0.27136,0 0.441163,1.49518 0.405155,3.56753 -0.02503,1.44036 -0.122454,1.8653 -0.441883,1.92738 -0.225377,0.0438 -0.493268,-0.004 -0.595313,-0.1059 z m -2.673209,-0.55654 c -0.513878,-0.51388 0.904151,-4.13526 2.193015,-5.60056 0.770401,-0.87586 0.7028,-1.24168 -0.300653,-1.62701 -0.472943,-0.18161 -1.276615,-0.48912 -1.785938,-0.68335 -0.509323,-0.19424 -1.134401,-0.35496 -1.389062,-0.35715 -0.675403,-0.006 -1.6445999,-1.0449 -1.2979497,-1.39155 0.3470646,-0.34707 1.4349897,0.0751 3.6385297,1.41189 l 1.612976,0.97852 -1.282054,-2.15507 c -0.70513,-1.18528 -1.282142,-2.24436 -1.282248,-2.3535 -1.05e-4,-0.10914 0.282802,-0.19844 0.628685,-0.19844 0.499758,0 0.737262,0.25804 1.156776,1.25677 0.290344,0.69123 0.622936,1.61396 0.739093,2.05052 0.184947,0.69511 0.238587,0.56944 0.431622,-1.01126 0.241638,-1.97868 0.613572,-2.91314 1.096441,-2.75472 0.523956,0.1719 0.501063,1.34595 -0.07107,3.64473 -0.299884,1.2049 -0.474116,2.26088 -0.387182,2.34662 0.08693,0.0857 1.546145,0.15588 3.24269,0.15588 2.565503,0 3.084628,0.0668 3.084628,0.39688 0,0.44348 -1.292675,0.51789 -3.836458,0.22082 l -1.455209,-0.16994 1.67688,0.77965 c 2.073969,0.96427 2.920426,1.68946 2.482796,2.12708 -0.417465,0.41747 -1.108626,0.0688 -3.133182,-1.58079 -2.116752,-1.72466 -2.596997,-1.87494 -2.941808,-0.92056 -1.709955,4.73291 -2.32952,5.92633 -2.821318,5.43454 z m 5.870905,-1.18242 c -0.822691,-1.25682 -1.823294,-3.44235 -1.74487,-3.81116 0.09773,-0.45962 2.90379,3.14238 2.956018,3.7945 0.05504,0.68719 -0.764848,0.69847 -1.211148,0.0166 z m 16.168869,-1.1834 c -0.183145,-0.46653 -0.238075,-1.70146 -0.146349,-3.29013 0.145346,-2.5174 0.14012,-2.54633 -0.513779,-2.84427 -0.793874,-0.36171 -1.186383,-0.39015 -0.643138,-0.0466 0.683897,0.4325 -0.357405,0.61433 -2.787666,0.48678 -2.243912,-0.11778 -2.996796,-0.41045 -2.620803,-1.01882 0.14547,-0.23538 0.821713,-0.2806 2.477258,-0.16566 l 2.277169,0.1581 -1.322917,-0.51663 c -1.650177,-0.64444 -2.933366,-1.64335 -2.666246,-2.07556 0.260711,-0.42184 0.979998,-0.17425 2.711368,0.9333 0.775547,0.49611 1.410086,0.78521 1.410086,0.64245 0,-0.14276 -0.170016,-0.35478 -0.377814,-0.47115 -0.443069,-0.24813 -2.003436,-2.34675 -2.003436,-2.69453 0,-0.30697 0.565566,-0.51525 0.993685,-0.36595 0.182727,0.0637 0.818436,0.94837 1.41269,1.96587 0.594254,1.01751 1.131554,1.79892 1.193999,1.73647 0.06244,-0.0624 -0.125244,-0.87533 -0.41709,-1.80641 -0.62834,-2.00461 -0.671285,-2.77552 -0.165436,-2.96963 0.772557,-0.29646 1.151753,0.69358 1.350386,3.52572 0.257384,3.66985 0.242149,3.5573 0.770832,5.69484 0.551362,2.22924 0.484452,3.65573 -0.177358,3.7811 -0.305335,0.0578 -0.561777,-0.16596 -0.755441,-0.65929 z m -24.718638,-0.097 c -0.2643965,-0.4278 0.2971094,-0.93935 2.296222,-2.09192 1.837591,-1.05945 1.839801,-1.05995 1.293064,-0.29213 -0.495219,0.69547 -2.9112388,2.66022 -3.2712269,2.66022 -0.081056,0 -0.2241825,-0.12427 -0.3180591,-0.27617 z m 22.099871,-0.24713 c 0,-0.66812 1.353455,-3.44545 1.679046,-3.44545 0.301996,0 0.0065,2.76211 -0.37102,3.46741 -0.363397,0.67901 -1.308026,0.66315 -1.308026,-0.022 z m -2.645833,-1.17532 c 0,-0.20665 0.678611,-0.98055 1.508024,-1.71979 0.829414,-0.73925 1.4473,-1.34409 1.373085,-1.34409 -0.07422,0 -0.899718,0.29972 -1.834452,0.66604 -1.779707,0.69746 -2.469536,0.69608 -2.200731,-0.004 0.228253,-0.59482 1.685654,-1.13677 3.60266,-1.3397 1.549533,-0.16402 1.619497,-0.14831 1.123289,0.25223 -0.429945,0.34706 -0.442346,0.39691 -0.06615,0.2659 0.254662,-0.0887 0.463021,-0.0752 0.463021,0.0301 0,0.34133 -1.883241,2.76755 -2.463834,3.17422 -0.713756,0.49993 -1.504916,0.51021 -1.504916,0.0196 z m 7.7314,-0.61648 c -1.043059,-1.32727 -1.70697,-2.66383 -1.494205,-3.00809 0.196138,-0.31736 1.436436,-0.14141 3.334851,0.47308 1.248047,0.40397 2.308045,1.2603 1.973794,1.59455 -0.170945,0.17095 -2.643955,-0.58054 -3.211465,-0.97589 -0.145521,-0.10138 -0.502708,-0.26138 -0.79375,-0.35558 -0.291042,-0.0942 0.09595,0.39334 0.859991,1.08341 1.516999,1.37013 1.79568,2.18071 0.749742,2.18071 -0.423654,0 -0.902182,-0.33461 -1.418958,-0.99219 z M 8.505569,221.96828 c -0.3489759,-0.56465 0.3701132,-0.80197 2.820308,-0.93076 2.306141,-0.12121 2.426728,-0.10332 1.670137,0.24784 -0.805592,0.3739 -3.2304571,0.97056 -3.9444384,0.97056 -0.2025303,0 -0.4482332,-0.12944 -0.5460066,-0.28764 z m 56.380952,-1.01836 c -0.09415,-0.15234 0.281704,-1.05985 0.835226,-2.0167 0.553521,-0.95685 1.161727,-2.02943 1.351571,-2.38352 0.189841,-0.35408 0.457731,-0.64378 0.595312,-0.64378 0.320813,0 0.392838,-0.24604 -0.774536,2.64583 -0.952119,2.35863 -1.573358,3.10074 -2.007573,2.39817 z m 3.030505,-0.21536 c -0.004,-1.07006 0.639996,-4.56406 0.841277,-4.56406 0.120343,0 0.218806,1.1311 0.218806,2.51354 0,2.33715 -0.03713,2.51354 -0.529167,2.51354 -0.326914,0 -0.529836,-0.17697 -0.530916,-0.46302 z m -50.798251,-0.30865 c 0,-0.46451 2.85058,-2.18336 3.47453,-2.09509 1.275615,0.18047 0.661851,0.87003 -1.424009,1.59985 -1.127786,0.3946 -2.050521,0.61746 -2.050521,0.49524 z m -1.058333,-0.43708 c 0,-0.14638 0.509255,-1.09515 1.131677,-2.10838 1.130346,-1.84007 1.844094,-2.31187 1.986455,-1.31307 0.05047,0.35413 -0.452748,1.05152 -1.521355,2.10838 -0.878227,0.86857 -1.596777,1.45945 -1.596777,1.31307 z m 54.576922,-0.84177 c -0.862227,-1.54461 -1.924839,-3.57474 -1.924839,-3.67742 0,-0.19307 1.761863,-0.0693 2.778125,0.19514 0.582083,0.15147 1.40662,0.36004 1.832301,0.4635 0.425682,0.10346 0.822536,0.33382 0.881898,0.5119 0.21322,0.63966 -0.759944,0.63269 -2.580687,-0.0185 -1.921338,-0.68715 -2.253441,-0.62654 -1.289818,0.2354 0.738947,0.66098 1.817764,2.37023 1.817764,2.88002 0,0.78005 -0.958315,0.40675 -1.514744,-0.59005 z m -33.674839,0.21465 -0.926041,-0.17871 1.058333,-0.31415 c 1.919764,-0.56985 4.182954,-0.29804 3.722449,0.44707 -0.194617,0.3149 -2.328907,0.34025 -3.854741,0.0458 z m -2.024327,-0.48073 c 0.06796,-0.10997 1.138053,-0.89615 2.377977,-1.74708 2.210062,-1.51671 2.82135,-1.67311 2.82135,-0.72185 0,0.34324 -0.678524,0.78014 -2.447396,1.57586 -2.434473,1.09515 -2.987802,1.27472 -2.751931,0.89307 z m 26.751989,-0.34683 c -0.09592,-0.1552 -0.132712,-0.31708 -0.08176,-0.35973 0.415721,-0.34799 4.782978,-2.53066 5.046371,-2.52207 0.531934,0.0173 -1.642959,1.81127 -3.057239,2.52173 -1.434605,0.72067 -1.658398,0.76292 -1.907372,0.36007 z M 34.613782,217.758 c -0.01844,-1.84352 0.448667,-4.8339 0.787839,-5.04352 0.917993,-0.56735 1.03114,1.01839 0.237302,3.32572 -0.291417,0.84702 -0.489981,1.57991 -0.441253,1.62864 0.0985,0.0985 1.455676,-2.01846 2.020734,-3.15198 0.199488,-0.40019 0.497369,-0.72761 0.661956,-0.72761 0.35991,0 0.934249,0.53945 0.934249,0.8775 0,0.39725 -3.119578,3.35583 -3.538445,3.35583 -0.212413,0 -0.446262,0.14883 -0.51966,0.33073 -0.0734,0.1819 -0.137623,-0.086 -0.142722,-0.59531 z m 15.473926,0.11065 c -0.25404,-0.66201 -0.186682,-5.40232 0.07676,-5.40232 0.322662,0 1.462783,4.88107 1.26221,5.40375 -0.207441,0.54059 -1.131361,0.5396 -1.338974,-0.001 z m -3.45417,-0.61761 c -0.189672,-0.3069 0.182086,-1.15341 1.1717,-2.66804 0.427855,-0.65484 0.917874,-1.42875 1.088929,-1.71979 0.330486,-0.56231 0.329671,-0.56164 -2.331675,1.91823 -0.66372,0.61846 -1.361805,1.12448 -1.551294,1.12448 -0.456277,0 -0.677471,-0.38912 -0.493588,-0.86831 0.15281,-0.39823 2.118913,-1.90762 3.28164,-2.51935 0.661281,-0.3479 1.863275,-0.23134 1.863275,0.1807 0,0.1224 -0.475252,1.25122 -1.056116,2.5085 -0.974328,2.10893 -1.558502,2.71404 -1.972871,2.04358 z m 6.56662,-1.41127 c -0.984986,-1.05938 -2.479299,-2.99595 -2.479299,-3.21307 0,-0.49285 0.87028,0.034 2.495304,1.51066 1.342601,1.22001 1.7878,1.7864 1.661951,2.11435 -0.258594,0.67388 -0.789602,0.54352 -1.677956,-0.41194 z m 7.705249,-0.20153 c -0.319974,-0.51773 0.41476,-0.78227 2.184722,-0.7866 1.530361,-0.004 2.141855,0.28115 1.29825,0.60488 -0.951923,0.36528 -3.294002,0.48748 -3.482972,0.18172 z m 8.865451,-0.72273 c 0,-0.29572 3.287033,-1.39084 4.174652,-1.39084 0.639844,0 0.785725,0.56708 0.257119,0.99951 -0.456488,0.37343 -4.431771,0.72445 -4.431771,0.39133 z M 64.3469,213.8336 c -1.018646,-0.3882 -2.002853,-0.80333 -2.187128,-0.92253 -0.592648,-0.38334 -0.02603,-0.77275 0.90464,-0.62172 1.006446,0.16332 3.79603,1.66869 3.79603,2.04849 0,0.36766 -0.476406,0.27208 -2.513542,-0.50424 z m 3.277021,-1.83029 c -0.424389,-2.73217 -0.395878,-3.24114 0.181562,-3.24114 0.614908,0 0.906883,0.94831 0.911093,2.95917 0.0045,2.16101 0.232955,2.08513 0.943282,-0.31334 0.237035,-0.80036 0.478105,-1.61394 0.53571,-1.80794 0.157728,-0.5312 0.75393,-0.21659 0.851754,0.44946 0.142256,0.96856 -2.059516,4.53348 -2.799974,4.53348 -0.122497,0 -0.40304,-1.16086 -0.623427,-2.57969 z m -1.913168,0.32917 c -1.013608,-1.18795 -1.668293,-2.18041 -1.583714,-2.40082 0.381876,-0.99516 1.461355,0.0542 2.839488,2.7604 0.39671,0.77899 0.665228,1.4724 0.596709,1.54093 -0.06852,0.0685 -0.902137,-0.78671 -1.852483,-1.90051 z m -11.667074,1.03856 c -0.864585,-0.34954 -1.698022,-0.76603 -1.852084,-0.92554 -0.417062,-0.43181 3.276659,-0.017 4.019368,0.45136 0.59976,0.37823 0.80278,0.89239 0.352369,0.89239 -0.13362,0 -0.40151,0.0489 -0.595312,0.10865 -0.193805,0.0598 -1.059757,-0.17733 -1.924341,-0.52686 z m 16.256346,0.19397 c 0,-0.47451 2.310773,-2.76096 2.605958,-2.57853 0.553747,0.34224 0.316743,0.8068 -0.923676,1.81058 -1.218036,0.98567 -1.682282,1.1976 -1.682282,0.76795 z m -54.418283,-0.46275 c -0.162073,-0.42235 0.745611,-2.9514 1.412625,-3.93594 0.351932,-0.51947 0.353532,-0.51947 0.344281,0 -0.013,0.73021 -0.661808,3.68126 -0.890806,4.05179 -0.268429,0.43433 -0.675892,0.37983 -0.8661,-0.11585 z m 2.966365,0.17326 c -0.212234,-0.3434 -0.519577,-5.47532 -0.316868,-5.29097 0.305113,0.27748 1.521679,4.83207 1.385485,5.18699 -0.15584,0.40611 -0.840704,0.47275 -1.068617,0.10398 z m 24.729002,-0.41886 c 0,-0.54618 0.966041,-0.87446 3.105901,-1.05547 l 1.78889,-0.15132 -1.689592,0.80511 c -1.859841,0.88623 -3.205199,1.05483 -3.205199,0.40168 z m -22.374641,-1.91168 c -1.173498,-1.27053 -2.347917,-2.94845 -2.180721,-3.11565 0.197881,-0.19788 3.599021,2.45374 3.922428,3.05804 0.156468,0.29236 0.212424,0.64817 0.124346,0.79068 -0.31084,0.50295 -0.959957,0.24795 -1.866053,-0.73307 z m 30.047557,0.73437 c -0.606409,-0.16317 -0.617418,-0.19099 -0.132291,-0.33429 1.554615,-0.45918 4.659992,-1.00821 4.891897,-0.86489 0.426167,0.26339 0.310025,0.87892 -0.195543,1.03635 -0.776743,0.24186 -3.861364,0.35191 -4.564063,0.16283 z m -37.835416,-0.4344 c 0,-0.25654 0.625078,-1.04813 1.389062,-1.75909 2.63735,-2.4543 3.14271,-2.23302 0.90828,0.39769 -1.446213,1.70271 -2.297342,2.20709 -2.297342,1.3614 z m 31.83238,-0.3688 c -1.500105,-0.15433 -1.825045,-0.32595 -1.527791,-0.80692 0.132138,-0.2138 0.716917,-0.27272 1.812433,-0.18262 l 1.617353,0.13302 -1.086729,-0.48999 c -1.874308,-0.84509 -2.202788,-1.82581 -0.611537,-1.82581 0.551006,0 1.136179,0.32459 1.96876,1.09204 1.363014,1.25638 1.497486,1.68192 0.45711,1.44655 -0.589286,-0.13331 -0.639583,-0.11112 -0.264584,0.11676 0.254662,0.15475 0.463021,0.3964 0.463021,0.537 0,0.25364 -0.180252,0.25236 -2.828036,-0.02 z m 5.275432,-0.1285 c -0.461124,-0.52375 -0.441142,-4.37918 0.02601,-5.01804 0.196204,-0.26833 0.49386,-0.40312 0.661458,-0.29954 0.405143,0.25039 0.380058,1.30571 -0.07135,3.00137 -0.203382,0.76398 -0.323037,1.38906 -0.265898,1.38906 0.05714,0 0.390679,-0.56555 0.741204,-1.25677 0.761791,-1.50223 1.582965,-2.30462 2.139865,-2.09091 0.671253,0.25758 0.478946,0.66542 -1.088752,2.30899 -0.822516,0.86232 -1.365324,1.56786 -1.206241,1.56786 0.159083,0 0.361876,-0.11752 0.450649,-0.26116 0.285964,-0.4627 2.412492,-1.81953 3.136498,-2.00125 0.583845,-0.14653 0.702077,-0.0874 0.702077,0.35121 0,0.65715 -0.797251,1.18872 -3.060488,2.0406 -0.970757,0.36539 -1.780604,0.65982 -1.799659,0.65428 -0.01905,-0.006 -0.183473,-0.1791 -0.365373,-0.3857 z m -1.887802,-2.0083 c -0.859417,-1.67917 -1.037741,-2.72438 -0.519456,-3.0447 0.588494,-0.36371 1.214114,1.01127 1.666605,3.66283 0.249396,1.46144 -0.209307,1.21427 -1.147149,-0.61813 z m -26.735234,-0.0626 c -1.4917,-0.76292 -1.780882,-1.37615 -0.518171,-1.09882 2.115008,0.46454 3.014756,0.83098 3.097685,1.26159 0.126486,0.6568 -1.132385,0.57736 -2.579514,-0.16277 z m -10.275522,-0.49547 c 0.118945,-0.35684 1.010948,-0.63957 3.056693,-0.96889 1.754734,-0.28246 1.712812,0.10325 -0.08545,0.78619 -1.501099,0.57009 -3.13384,0.67049 -2.971245,0.1827 z m 49.246724,-1.40379 c -0.202451,-0.52759 0.672793,-4.16079 1.083482,-4.49761 0.177435,-0.14552 0.388054,-0.44318 0.46804,-0.66146 0.09335,-0.25476 0.349904,0.0769 0.716439,0.92604 0.314053,0.7276 0.703699,1.56017 0.865881,1.85016 0.708422,1.26666 0.700788,3.41676 -0.0094,2.64554 -0.256318,-0.27835 -1.342414,-3.63482 -1.404937,-4.34182 -0.02035,-0.23015 -0.125114,0.5046 -0.232797,1.63279 -0.183906,1.92676 -0.536561,2.84354 -1.093814,2.84354 -0.13227,0 -0.309075,-0.17873 -0.392903,-0.39718 z m -39.745055,-0.1029 c -0.247845,-0.15704 0.03864,-0.31674 0.926042,-0.51619 1.976118,-0.44416 2.548825,-0.46771 2.670884,-0.10984 0.229203,0.67202 -2.715503,1.18453 -3.596926,0.62603 z m -1.360923,-0.53511 c 0,-0.25648 3.397891,-2.93356 3.723435,-2.93356 0.421603,0 0.549281,0.55978 0.218566,0.95827 -0.561834,0.67697 -3.942001,2.37073 -3.942001,1.97529 z m -5.027084,-0.70909 c -1.91053,-0.73329 -2.636487,-1.28132 -2.23249,-1.68532 0.314493,-0.31449 2.531268,0.69372 3.687699,1.6772 0.989524,0.84153 0.720098,0.84303 -1.455209,0.008 z m 3.977827,0.48751 c 0.02154,-0.47085 2.270557,-4.4133 2.570472,-4.50595 0.715947,-0.22116 0.573127,0.71563 -0.308932,2.02637 -1.58304,2.35238 -2.291239,3.12886 -2.26154,2.47958 z m 39.678423,-0.30697 c 0,-0.77883 2.950165,-4.30554 3.304913,-3.95079 0.160213,0.16021 -1.431065,3.21228 -2.045552,3.92338 -0.582181,0.6737 -1.259361,0.68844 -1.259361,0.0274 z m -40.48125,-2.09242 c 0,-1.82978 0.09431,-2.44273 0.417041,-2.71058 0.543144,-0.45077 0.958226,0.11685 0.786161,1.07507 -0.812077,4.5224 -1.203202,5.05406 -1.203202,1.63551 z m 47.077321,0.80972 c -0.665025,-0.83555 -1.411502,-1.82928 -1.658837,-2.20828 l -0.449702,-0.68908 1.759249,-0.0484 c 1.929397,-0.0531 4.336553,0.58801 4.336553,1.15495 0,0.64256 -0.658157,0.60808 -2.897958,-0.15184 -1.225632,-0.41583 -2.264616,-0.71987 -2.308849,-0.67563 -0.04423,0.0442 0.692483,0.81952 1.637149,1.72286 0.944665,0.90334 1.717574,1.81715 1.717574,2.03069 0,0.83524 -0.982691,0.31274 -2.135179,-1.13527 z m -48.906499,-0.0665 c -0.704223,-0.8909 -1.081238,-1.63635 -1.081238,-2.13786 0,-1.50306 0.875852,-0.69354 1.829216,1.6907 0.337505,0.84406 0.550558,1.59773 0.473452,1.67484 -0.07711,0.0771 -0.62675,-0.47535 -1.22143,-1.22768 z m 16.290301,0.3333 c -0.139044,-0.22581 0.551381,-4.76794 0.781298,-5.13995 0.224195,-0.36276 0.783553,0.1984 1.449136,1.4538 0.322641,0.60856 0.746419,1.40412 0.941735,1.76792 0.492262,0.91691 0.459784,1.64662 -0.06858,1.54075 -0.252457,-0.0506 -0.675931,-0.77395 -1.036153,-1.76993 -0.865738,-2.39367 -1.152845,-2.53891 -0.989214,-0.50042 0.08388,1.04492 0.01828,1.92133 -0.170108,2.27337 -0.310904,0.58093 -0.685792,0.73551 -0.908116,0.37446 z m -2.554873,-0.80838 c 0,-0.57131 2.663479,-5.0786 3.001084,-5.0786 0.129599,0 0.172437,0.20836 0.0952,0.46302 -0.175567,0.57886 -1.84277,4.31533 -2.125017,4.7625 -0.313706,0.49702 -0.971267,0.39756 -0.971267,-0.14692 z m 26.9875,0.26257 c 0,-0.34203 1.375074,-1.53616 2.315104,-2.01047 0.472943,-0.23863 0.859896,-0.48116 0.859896,-0.53897 0,-0.0578 -0.922734,-0.0398 -2.050521,0.04 -1.653066,0.11693 -1.989145,0.0798 -1.733875,-0.19153 0.413142,-0.43916 4.471075,-0.72783 4.206182,-0.29923 -0.118454,0.19167 -0.03743,0.24233 0.22593,0.14127 0.798206,-0.3063 0.393282,0.36784 -1.028753,1.71274 -0.961443,0.9093 -1.664258,1.3613 -2.116666,1.3613 -0.372513,0 -0.677297,-0.0968 -0.677297,-0.21508 z m -21.478123,-3.21595 c -1.05078,-1.01395 -1.844342,-1.9097 -1.763472,-1.99057 0.384114,-0.38411 4.720762,2.8249 4.720762,3.49325 0,0.81115 -1.181637,0.21073 -2.95729,-1.50268 z m -8.022918,1.04978 c -0.08994,-0.14552 -0.08262,-0.39549 0.01626,-0.55548 0.228528,-0.36976 3.349428,-1.85557 3.526225,-1.67877 0.23064,0.23064 -2.632264,2.46054 -3.196141,2.48946 -0.100554,0.005 -0.256408,-0.10969 -0.346345,-0.25521 z m 10.186458,-1.54342 c -1.973855,-0.98904 -2.605471,-1.46624 -2.569673,-1.94148 0.03248,-0.43116 0.30235,-0.48385 2.478072,-0.48385 2.449425,0 3.055138,0.2007 2.356233,0.78074 -0.287205,0.23836 -0.743561,0.2391 -1.942872,0.003 -2.494505,-0.49076 -2.735175,-0.18192 -0.441455,0.56651 1.376069,0.449 2.133669,0.83765 2.189615,1.12328 0.114292,0.58348 -0.854075,0.56086 -2.06992,-0.0483 z m 21.563542,0.0881 c -0.145521,-0.0498 -0.830131,-0.16679 -1.521355,-0.25991 -0.892185,-0.1202 -1.25677,-0.28951 -1.25677,-0.58364 0,-0.57227 2.105948,-0.35499 3.704166,0.38217 l 1.190625,0.54916 -0.926041,0.001 c -0.509323,7.9e-4 -1.045105,-0.0394 -1.190625,-0.0892 z m 5.688541,-0.11397 c 0.690142,-0.496 3.767963,-1.35658 4.27555,-1.19548 0.672201,0.21335 0.609381,0.61461 -0.140877,0.89986 -1.002083,0.38099 -4.612656,0.63914 -4.134673,0.29562 z m -38.257098,-0.85214 c -0.388201,-0.62812 0.751231,-1.0185 2.919647,-1.00029 2.32133,0.0195 2.203675,0.16881 -0.689309,0.87475 -2.100714,0.51262 -1.994796,0.50666 -2.230338,0.12554 z m 37.463348,-0.16658 c 0,-0.11369 0.704691,-0.90406 1.565979,-1.75636 1.05237,-1.04139 1.703202,-1.49698 1.984375,-1.38908 0.871823,0.33455 0.186753,1.26319 -1.859825,2.52108 -1.408972,0.86599 -1.690529,0.96997 -1.690529,0.62436 z m -0.79375,-0.29457 c 0,-0.76442 1.154555,-3.78557 1.49688,-3.91694 0.88614,-0.34004 0.851586,0.56678 -0.08987,2.35837 -0.843079,1.60438 -1.407012,2.22906 -1.407012,1.55857 z m -4.960937,-0.54992 c -1.112242,-0.50486 -1.377747,-0.8777 -0.85507,-1.20073 0.291475,-0.18014 1.848368,0.68963 2.379078,1.3291 0.465587,0.561 -0.112594,0.5123 -1.524008,-0.12837 z m 1.5875,-0.78848 c -1.173644,-1.34295 -1.428642,-2.12906 -0.690626,-2.12906 0.540975,0 1.029366,0.59721 1.694841,2.07246 0.834626,1.85023 0.576025,1.86481 -1.004215,0.0566 z m 2.200285,0.80963 c -0.254719,-0.41214 -0.88098,-3.70678 -0.732774,-3.85498 0.07812,-0.0781 0.360318,-0.14204 0.627108,-0.14204 0.429948,0 0.485068,0.24053 0.485068,2.11666 0,2.04404 -0.06848,2.38344 -0.379402,1.88036 z M 33.16141,197.6214 c -0.06017,-0.20273 -0.256844,-1.3211 -0.437049,-2.48526 -0.642599,-4.15129 -0.635064,-3.89659 -0.112274,-3.79587 0.638668,0.12305 0.890305,1.20026 0.93503,4.00268 0.03468,2.17281 -0.129392,3.14201 -0.385707,2.27845 z m 13.180504,-0.0433 c -0.09746,-0.25398 0.194744,-1.03167 0.713553,-1.89905 0.792347,-1.32472 1.284515,-1.81174 1.283927,-1.2705 -5.29e-4,0.49654 -1.005255,2.77251 -1.396719,3.16398 -0.401246,0.40124 -0.44876,0.40168 -0.600761,0.006 z m 3.35874,-0.12684 c -0.409556,-0.77378 -0.842335,-4.13027 -0.56793,-4.40468 0.154106,-0.1541 0.289909,-0.10602 0.358997,0.1271 0.719002,2.42609 1.172673,4.35333 1.065572,4.52662 -0.218175,0.35301 -0.596135,0.24313 -0.856639,-0.24904 z m -20.146462,0.0266 c -0.363802,-0.0549 -1.167474,-0.16503 -1.785937,-0.24476 -1.310093,-0.1689 -1.614741,-0.9063 -0.374427,-0.9063 0.667753,0 3.973853,0.94524 4.254983,1.21653 0.125979,0.12157 -1.111173,0.0829 -2.094619,-0.0655 z m 5.953125,-0.3049 c 0.353714,-0.35817 3.449418,-1.63991 3.960778,-1.63991 0.553389,0 0.512104,0.71975 -0.05817,1.0142 -0.254661,0.13149 -0.939271,0.31834 -1.521354,0.41523 -0.582083,0.0969 -1.415521,0.24417 -1.852083,0.32729 -0.534575,0.10177 -0.707359,0.0636 -0.529167,-0.11681 z m -5.558356,-0.74193 c -2.027825,-1.05861 -2.54216,-1.42796 -2.37196,-1.70335 0.08599,-0.13913 0.309297,-0.25296 0.496247,-0.25296 0.443711,0 3.597611,2.1186 3.597611,2.41666 0,0.36049 -0.306494,0.27855 -1.721898,-0.46035 z m 4.103148,-0.087 c 0,-0.42709 0.130476,-1.1117 0.289946,-1.52136 0.159472,-0.40965 0.369303,-1.28061 0.466291,-1.93545 0.117425,-0.79284 0.306636,-1.19063 0.566325,-1.19063 0.65814,0 0.593378,0.78781 -0.24152,2.93793 -0.440192,1.13364 -0.755211,2.10631 -0.70004,2.16148 0.05517,0.0552 0.727758,-0.68267 1.494634,-1.63965 0.833612,-1.04026 1.595824,-1.73997 1.895409,-1.73997 0.881952,0 0.404328,0.82704 -1.326742,2.29735 -1.907583,1.62022 -2.444303,1.75862 -2.444303,0.6303 z m 17.010615,-1.00319 c -1.085072,-1.74666 -1.115761,-2.59976 -0.04876,-1.35533 0.293089,0.34183 0.887248,1.02493 1.320355,1.51801 0.807445,0.91926 0.878435,1.42938 0.216694,1.55711 -0.217993,0.0421 -0.840999,-0.67783 -1.488292,-1.71979 z m -20.40826,-0.18176 c -0.896191,-0.93329 -1.629439,-1.87306 -1.629439,-2.08836 0,-0.79475 0.768649,-0.67883 1.572946,0.23722 0.907515,1.0336 2.263248,3.54803 1.913032,3.54803 -0.124904,0 -0.960347,-0.7636 -1.856539,-1.69689 z m -19.881718,0.96928 c 0.0022,-0.25466 0.299823,-1.41552 0.661422,-2.57968 0.361599,-1.16417 0.657468,-2.17521 0.657488,-2.24676 3.2e-5,-0.11376 -1.508442,2.18629 -2.55805,3.9004 -0.3777377,0.61688 -1.1460806,0.81812 -1.1460806,0.30017 0,-0.39353 2.3256936,-3.88031 3.2003386,-4.79809 0.381375,-0.40018 0.812768,-0.7276 0.958652,-0.7276 0.145883,0 0.764205,-0.77153 1.374048,-1.71452 0.609843,-0.94299 1.28977,-1.89549 1.510949,-2.11667 0.443413,-0.44341 0.893512,-0.53012 0.893512,-0.17212 0,0.26786 -1.851377,2.6919 -3.000844,3.92906 l -0.791413,0.85179 1.23467,2.5368 c 0.679069,1.39524 1.234671,2.58951 1.234671,2.65394 0,0.0644 -0.233936,0.11714 -0.519858,0.11714 -0.644035,0 -0.894957,-0.4782 -1.345276,-2.56376 -0.373233,-1.72855 -0.7807,-1.98092 -0.7807,-0.48352 0,0.48963 -0.139511,1.49464 -0.310025,2.23334 -0.233506,1.01161 -0.429415,1.3431 -0.79375,1.3431 -0.285814,0 -0.4821,-0.18944 -0.479754,-0.46302 z m 33.220772,0.0216 c -0.228222,-0.59474 1.341025,-2.20446 2.149036,-2.20446 0.859925,0 0.762187,0.37128 -0.417817,1.5872 -1.12608,1.16035 -1.475068,1.28478 -1.731219,0.61726 z m 8.197516,-2.14668 c -1.844063,-0.98754 -2.70451,-1.89413 -1.435332,-1.51229 1.222314,0.36773 4.050572,1.85635 4.145854,2.18211 0.171235,0.58546 -0.827286,0.3387 -2.710522,-0.66982 z M 15.498853,192.8649 c -0.928053,-0.73985 -1.727057,-1.45423 -1.775564,-1.5875 -0.121319,-0.33333 0.413905,-0.30693 0.622574,0.0307 0.0928,0.15016 0.665378,0.51131 1.272386,0.80255 1.433195,0.68764 2.378308,1.48483 2.166553,1.82746 -0.276746,0.44778 -0.523163,0.3321 -2.285949,-1.07321 z m -9.4925775,0.85702 c 0,-0.12296 0.2083593,-0.40369 0.4630208,-0.62384 0.6500569,-0.56195 3.8397147,-2.13264 3.7290977,-1.83632 -0.195735,0.52433 -3.1286909,2.68374 -3.6451068,2.68374 -0.3008564,0 -0.5470117,-0.10061 -0.5470117,-0.22358 z M 42.518775,193.5674 c 0,-0.22982 0.560713,-0.5411 1.429785,-0.79375 2.815296,-0.81843 3.586271,-0.28874 0.900091,0.61839 -1.93435,0.65324 -2.329876,0.68301 -2.329876,0.17536 z m 9.326563,-1.13855 c -0.618464,-0.0557 -1.124479,-0.20303 -1.124479,-0.32739 0,-0.54695 4.013544,-0.78441 4.628726,-0.27386 0.88197,0.73197 -0.128328,0.90532 -3.504247,0.60125 z m -46.3277853,-1.0115 c 0.1104411,-0.57347 2.1333434,-1.16978 3.9283061,-1.15798 l 1.1906252,0.008 -1.6542824,0.63666 c -0.9098552,0.35016 -2.0824195,0.71697 -2.6056984,0.81514 -0.8262001,0.15499 -0.9392467,0.11529 -0.8589505,-0.30165 z m 37.3319513,-0.0283 c -0.524713,-0.21172 -0.383751,-0.8831 0.185415,-0.8831 0.885688,0 3.175865,0.56002 3.333549,0.81516 0.155094,0.25095 -2.918373,0.31029 -3.518964,0.0679 z m 7.342188,-0.0893 c 0,-0.14552 0.09681,-0.26459 0.215143,-0.26459 0.118327,0 1.020218,-0.48556 2.0042,-1.07903 1.667587,-1.00577 2.543157,-1.18013 2.543157,-0.50644 0,0.33532 -3.611436,2.11464 -4.292015,2.11464 -0.258765,0 -0.470485,-0.11906 -0.470485,-0.26458 z m -34.263542,-0.36585 -1.058333,-0.32519 0.992188,-0.16701 c 1.326362,-0.22327 2.84427,0.0413 2.84427,0.49579 0,0.45101 -1.304067,0.44933 -2.778125,-0.004 z m 29.256506,-0.77242 c -2.080368,-0.9088 -2.669842,-1.50757 -1.484164,-1.50757 1.019873,0 3.845367,1.59185 3.845367,2.16643 0,0.33258 -0.253675,0.2618 -2.361203,-0.65886 z m 3.027183,-1.1661 c -0.262189,-0.98817 -0.592119,-1.94396 -0.733179,-2.12397 -0.347083,-0.44292 -0.0148,-1.65708 0.453501,-1.65708 0.20692,0 0.450159,0.11964 0.540533,0.26587 0.281366,0.45526 0.652722,4.87499 0.428453,5.09926 -0.11693,0.11693 -0.427119,-0.5959 -0.689308,-1.58408 z m 1.275371,1.0476 c 0.08548,-0.40019 0.332017,-1.55032 0.547867,-2.55587 0.215847,-1.00554 0.571281,-2.00709 0.78985,-2.22566 0.353476,-0.35347 0.430144,-0.32553 0.693661,0.25283 0.253653,0.55671 0.142526,0.98147 -0.772631,2.95326 -1.080542,2.32814 -1.543209,2.90721 -1.258747,1.57544 z m 0.704482,0.43545 c 0,-0.68986 2.708637,-3.66348 3.34513,-3.67237 0.610761,-0.009 0.613566,0.82338 0.0047,1.39953 -1.06186,1.00484 -3.349839,2.55721 -3.349839,2.27284 z m -4.184176,-2.24096 c -1.154134,-1.39853 -1.327952,-1.73376 -0.970153,-1.87106 0.544467,-0.20893 1.15748,0.40587 2.21489,2.22136 1.11279,1.91057 0.472289,1.73032 -1.244737,-0.3503 z m -38.6772616,1.27852 c -0.9428832,-0.11372 -1.5885623,-0.47729 -1.5885623,-0.89447 0,-0.57727 4.4331609,0.12639 5.1193489,0.81258 0.282866,0.28286 -1.5182261,0.32464 -3.5307866,0.0819 z m 5.3334686,-1.53808 c 0.421361,-2.72165 0.730269,-3.60091 1.228568,-3.49692 0.272819,0.0569 0.42609,0.30882 0.39148,0.64335 -0.07871,0.76082 -1.056241,3.32244 -1.498841,3.92773 -0.316255,0.43251 -0.332365,0.28975 -0.121207,-1.07416 z m 2.338386,1.25493 c 0,-0.69008 2.718357,-1.89749 3.052987,-1.35604 0.2378,0.38476 0.136339,0.45621 -1.494351,1.05225 -1.637266,0.59844 -1.558636,0.58311 -1.558636,0.30379 z m -5.232808,-2.1487 c -1.5249826,-1.73247 -1.6738655,-2.13593 -0.7864631,-2.13125 0.4534324,0.002 0.8160152,0.3965 1.5213541,1.65364 1.154937,2.05847 1.150199,2.04738 0.874658,2.04738 -0.125276,0 -0.849572,-0.7064 -1.609549,-1.56977 z m -1.9077077,0.69224 c -1.1427997,-0.55987 -1.7667335,-1.50372 -0.994038,-1.50372 0.4774322,0 2.8428868,1.5618 2.8428868,1.87702 0,0.37239 -0.5558234,0.26017 -1.8488488,-0.3733 z m 3.4267767,-1.53586 c -0.42119,-1.41428 -0.485532,-1.95869 -0.257975,-2.18281 0.557398,-0.54897 1.061297,0.5895 1.061297,2.39782 0,0.91807 -0.05449,1.66922 -0.121088,1.66922 -0.0666,0 -0.373603,-0.8479 -0.682234,-1.88423 z"
         id="path2563"
         inkscape:connector-curvature="0" />
      <path
         style="fill:#0044aa;stroke-width:0.26458335"
         d="m 44.227687,259.54457 c -0.09592,-0.15521 -0.117655,-0.33893 -0.0483,-0.40829 0.06935,-0.0694 0.196601,0.0576 0.282773,0.28219 0.178906,0.46622 0.02643,0.54823 -0.234473,0.1261 z m 0.672338,-1.43761 c 0.341776,-0.3638 0.68094,-0.66146 0.7537,-0.66146 0.07276,0 -0.147341,0.29766 -0.489116,0.66146 -0.341776,0.3638 -0.68094,0.66146 -0.7537,0.66146 -0.07276,0 0.147341,-0.29766 0.489116,-0.66146 z m 7.90375,0.19844 c -0.329107,-0.41965 -0.319749,-0.42901 0.0999,-0.0999 0.44073,0.34565 0.580887,0.56292 0.363125,0.56292 -0.05494,0 -0.2633,-0.20836 -0.463021,-0.46302 z m -2.985188,-1.3628 c -0.362479,-0.40053 -0.384289,-0.54381 -0.107151,-0.70388 0.191381,-0.11053 0.258408,-0.10225 0.14895,0.0184 -0.109458,0.12066 -0.0016,0.43741 0.239445,0.70388 0.241152,0.26647 0.378929,0.48449 0.306168,0.48449 -0.07276,0 -0.337095,-0.22631 -0.587412,-0.5029 z m 1.283571,0.0914 c -0.493189,-0.39513 -0.489945,-0.40001 0.08172,-0.12298 0.327422,0.15867 0.595313,0.34383 0.595313,0.41147 0,0.20246 -0.137216,0.144 -0.677034,-0.28849 z m -4.609325,-0.25638 c 0.184076,-0.2218 0.38917,-0.34878 0.455766,-0.28219 0.183486,0.18349 -0.189323,0.68546 -0.509085,0.68546 -0.175445,0 -0.155371,-0.15181 0.05332,-0.40327 z m 1.846776,-0.1259 c 0,-0.14552 0.126089,-0.26458 0.280199,-0.26458 0.154109,0 0.206613,0.11906 0.116676,0.26458 -0.08994,0.14552 -0.216027,0.26459 -0.280199,0.26459 -0.06417,0 -0.116676,-0.11907 -0.116676,-0.26459 z m -4.547526,-0.18074 c 0.190994,-0.0764 0.419197,-0.067 0.507119,0.0209 0.08792,0.0879 -0.06835,0.15045 -0.347266,0.13896 -0.308226,-0.0127 -0.370919,-0.0754 -0.159853,-0.15985 z m -1.865535,-0.80014 c 0.329118,-0.0633 0.805368,-0.0609 1.058333,0.005 0.252966,0.0662 -0.01633,0.118 -0.598397,0.11507 -0.582084,-0.003 -0.789054,-0.0571 -0.459936,-0.12041 z m 7.868269,-0.0774 c -0.08994,-0.14552 0.02209,-0.26458 0.248968,-0.26458 0.226869,0 0.41249,0.11906 0.41249,0.26458 0,0.14552 -0.112035,0.26458 -0.248967,0.26458 -0.136933,0 -0.322554,-0.11906 -0.412491,-0.26458 z m -4.894792,-0.26458 c 0,-0.14553 0.119063,-0.26459 0.264584,-0.26459 0.14552,0 0.264583,0.11906 0.264583,0.26459 0,0.14552 -0.119063,0.26458 -0.264583,0.26458 -0.145521,0 -0.264584,-0.11906 -0.264584,-0.26458 z m 6.300391,-0.44533 c 0.190995,-0.0764 0.419198,-0.067 0.507119,0.0209 0.08792,0.0879 -0.06835,0.15045 -0.347266,0.13896 -0.308226,-0.0127 -0.370919,-0.0754 -0.159853,-0.15985 z M 30.125134,254.2705 c 0,-0.3638 0.06006,-0.51263 0.133453,-0.33073 0.0734,0.1819 0.0734,0.47956 0,0.66146 -0.0734,0.1819 -0.133453,0.0331 -0.133453,-0.33073 z m 2.305724,-0.19844 c -0.329107,-0.41964 -0.319749,-0.429 0.0999,-0.0999 0.254662,0.19972 0.463021,0.40808 0.463021,0.46302 0,0.21776 -0.217273,0.0776 -0.562917,-0.36313 z m 12.138438,0.2878 c 0.181901,-0.0734 0.479557,-0.0734 0.661458,0 0.181901,0.0734 0.03307,0.13345 -0.330729,0.13345 -0.363802,0 -0.51263,-0.0601 -0.330729,-0.13345 z m 3.836458,-0.0181 c -0.181901,-0.0634 -0.327109,-0.3138 -0.322683,-0.55634 0.0069,-0.38015 0.04769,-0.37273 0.295495,0.0538 0.209936,0.36134 0.341545,0.40723 0.488048,0.17018 0.126439,-0.20458 0.26117,-0.22656 0.364445,-0.0595 0.190235,0.3078 -0.341898,0.56044 -0.825305,0.39182 z m -21.612676,-0.67799 c 0.09936,-0.26094 0.247304,-0.40778 0.328766,-0.32632 0.08146,0.0815 1.67e-4,0.29495 -0.180654,0.47443 -0.261306,0.25936 -0.291698,0.22897 -0.148112,-0.14811 z m 23.134031,0.24225 c 0,-0.0549 0.208359,-0.2633 0.46302,-0.46302 0.419645,-0.32911 0.429004,-0.31975 0.0999,0.0999 -0.345644,0.44073 -0.562917,0.58089 -0.562917,0.36312 z m 2.38125,-1.05833 c 0,-0.0549 0.208359,-0.2633 0.46302,-0.46302 0.419645,-0.32911 0.429004,-0.31975 0.0999,0.0999 -0.345643,0.44073 -0.562916,0.58089 -0.562916,0.36313 z m -25.532292,-0.95844 c 0.263389,-0.29104 0.53842,-0.52916 0.611181,-0.52916 0.07276,0 -0.08321,0.23812 -0.346598,0.52916 -0.263389,0.29104 -0.53842,0.52917 -0.611181,0.52917 -0.07276,0 0.08321,-0.23813 0.346598,-0.52917 z m 21.889508,-0.79375 c 0,-0.50932 0.05445,-0.71768 0.121002,-0.46302 0.06655,0.25466 0.06655,0.67138 0,0.92604 -0.06655,0.25466 -0.121002,0.0463 -0.121002,-0.46302 z m -19.333622,-0.051 c -0.03417,-0.57495 -0.150823,-0.69152 -0.604523,-0.60415 -0.545137,0.10499 -0.547733,0.0923 -0.08563,-0.41832 0.614849,-0.6794 0.982662,-0.31175 0.841714,0.84134 -0.0902,0.73797 -0.116594,0.76951 -0.151564,0.18113 z m 23.770156,0.31554 c -0.238467,-0.15411 -0.2711,-0.2581 -0.08176,-0.26054 0.173313,-0.002 0.388699,0.11501 0.478637,0.26054 0.203014,0.32848 0.111421,0.32848 -0.396875,0 z M 30.104248,250.412 c 0.0127,-0.30823 0.07539,-0.37092 0.15985,-0.15986 0.07643,0.191 0.06703,0.4192 -0.02088,0.50712 -0.08792,0.0879 -0.150453,-0.0684 -0.138965,-0.34726 z m 0.590846,-0.0348 c 0.02669,-0.54604 0.06092,-0.55678 0.5022,-0.15743 0.55693,0.50401 0.644216,0.81756 0.10242,0.36791 -0.285033,-0.23656 -0.401552,-0.22873 -0.5022,0.0337 -0.07208,0.18797 -0.118171,0.0781 -0.10242,-0.24423 z m 4.084619,-0.25069 c 0.181901,-0.0734 0.479557,-0.0734 0.661458,0 0.181901,0.0734 0.03307,0.13346 -0.330729,0.13346 -0.363802,0 -0.51263,-0.0601 -0.330729,-0.13346 z m 10.615729,-0.28779 c -0.329108,-0.41964 -0.319749,-0.429 0.0999,-0.0999 0.254661,0.19972 0.463021,0.40808 0.463021,0.46302 0,0.21776 -0.217274,0.0776 -0.562917,-0.36313 z m -13.195417,-0.0661 c 0.218282,-0.14107 0.515938,-0.25648 0.661459,-0.25648 0.14552,0 0.08599,0.11541 -0.132292,0.25648 -0.218281,0.14106 -0.515937,0.25647 -0.661458,0.25647 -0.145521,0 -0.08599,-0.11541 0.132291,-0.25647 z m 15.53986,-1.09117 c 0.179478,-0.18082 0.39297,-0.26211 0.474433,-0.18065 0.08146,0.0815 -0.06538,0.2294 -0.326319,0.32876 -0.377084,0.14359 -0.407474,0.1132 -0.148114,-0.14811 z m -21.145719,-0.14791 c 0.190996,-0.0764 0.419199,-0.067 0.507118,0.0209 0.08792,0.0879 -0.06835,0.15045 -0.347265,0.13896 -0.308225,-0.0127 -0.37092,-0.0754 -0.159853,-0.15985 z m 5.446302,-0.30431 c 0.128892,-0.20855 1.747057,-0.0991 1.747057,0.11821 0,0.0562 -0.423746,0.10226 -0.941657,0.10226 -0.517911,0 -0.88034,-0.0992 -0.8054,-0.22047 z m -3.096059,-0.85299 c -0.1163,-0.44472 -0.07408,-0.48764 0.23081,-0.2346 0.205232,0.17033 0.307901,0.41526 0.228153,0.54429 -0.215869,0.34928 -0.301803,0.2913 -0.458963,-0.30969 z m 0.945732,-0.003 c -0.04577,-0.60763 0.07895,-0.66108 0.285647,-0.12243 0.08197,0.21362 0.0599,0.4435 -0.04906,0.51084 -0.108959,0.0673 -0.215422,-0.10745 -0.236586,-0.38841 z m -2.03873,-0.43328 c -0.143585,-0.37708 -0.113194,-0.40747 0.148113,-0.14811 0.180821,0.17948 0.262115,0.39297 0.180653,0.47443 -0.08146,0.0815 -0.229407,-0.0654 -0.328766,-0.32632 z m 3.285315,0.27688 c 0.150066,-0.0743 0.210632,-0.23571 0.134591,-0.35875 -0.07604,-0.12304 -0.02771,-0.29203 0.107415,-0.37554 0.13512,-0.0835 0.215958,0.0506 0.179636,0.29811 -0.03632,0.24746 -0.207438,0.47723 -0.380261,0.51058 -0.172826,0.0334 -0.191448,-1.2e-4 -0.04138,-0.0744 z m -3.73295,-2.66955 c -0.329107,-0.41964 -0.319749,-0.429 0.0999,-0.0999 0.254662,0.19972 0.463021,0.40808 0.463021,0.46302 0,0.21776 -0.217272,0.0776 -0.562916,-0.36313 z m 1.377555,0.0441 c 0.0127,-0.30822 0.07539,-0.37092 0.159851,-0.15985 0.07643,0.19099 0.06703,0.4192 -0.02088,0.50712 -0.08792,0.0879 -0.150453,-0.0684 -0.138965,-0.34727 z m 33.131313,-1.16857 c 0,-0.80037 0.0496,-1.12779 0.110222,-0.72761 0.06062,0.40018 0.06062,1.05503 0,1.45521 -0.06062,0.40018 -0.110222,0.0728 -0.110222,-0.7276 z m -32.337563,0.11024 c 0.0127,-0.30823 0.07539,-0.37092 0.159851,-0.15985 0.07643,0.19099 0.06703,0.4192 -0.02088,0.50711 -0.08792,0.0879 -0.150453,-0.0684 -0.138965,-0.34726 z m 27.760361,-0.73931 c 0,-0.0549 0.208359,-0.2633 0.463021,-0.46302 0.419645,-0.32911 0.429003,-0.31975 0.0999,0.0999 -0.345644,0.44073 -0.562917,0.58089 -0.562917,0.36312 z m 1.984375,-0.69385 c 0.26339,-0.29104 0.538422,-0.52917 0.611182,-0.52917 0.07276,0 -0.08321,0.23813 -0.346599,0.52917 -0.26339,0.29104 -0.538422,0.52917 -0.611182,0.52917 -0.07276,0 0.08321,-0.23813 0.346599,-0.52917 z m 4.374219,-0.51311 c -0.355021,-0.66336 0.08159,-0.94508 0.556738,-0.35923 0.307158,0.37872 0.304933,0.41112 -0.01498,0.21826 -0.281739,-0.16984 -0.333441,-0.11637 -0.20674,0.2138 0.232288,0.60534 0.0011,0.55506 -0.335016,-0.0728 z m -1.860677,-0.69313 c 0,-0.51791 0.09921,-0.88034 0.220469,-0.8054 0.20855,0.12889 0.09906,1.74706 -0.118208,1.74706 -0.05624,0 -0.102261,-0.42375 -0.102261,-0.94166 z m -6.35,-0.10106 c 0,-0.13693 0.117699,-0.32171 0.261553,-0.41062 0.149982,-0.0927 0.194337,0.0135 0.103984,0.24897 -0.175892,0.45837 -0.365537,0.54223 -0.365537,0.16165 z m 5.291666,0.14907 c 0,-0.0549 0.20836,-0.2633 0.463021,-0.46302 0.419645,-0.32911 0.429003,-0.31975 0.0999,0.0999 -0.345644,0.44073 -0.562917,0.58089 -0.562917,0.36313 z m -16.647861,-0.84819 c 0.0127,-0.30823 0.07539,-0.37092 0.159851,-0.15986 0.07643,0.191 0.06703,0.4192 -0.02088,0.50712 -0.08792,0.0879 -0.150452,-0.0683 -0.138964,-0.34726 z m 20.246991,0.19843 c -0.07495,-0.12127 0.03185,-0.22048 0.237329,-0.22048 0.205478,0 0.312277,0.0992 0.237328,0.22048 -0.07495,0.12127 -0.181745,0.22049 -0.237328,0.22049 -0.05558,0 -0.162383,-0.0992 -0.237329,-0.22049 z m -37.851372,-0.2904 c -0.08372,-0.13546 -0.05106,-0.30882 0.07258,-0.38523 0.123641,-0.0764 0.224802,0.0344 0.224802,0.2463 0,0.44613 -0.08343,0.48511 -0.297382,0.13893 z m 3.316881,-0.70178 c 0.0127,-0.30823 0.07539,-0.37092 0.159851,-0.15986 0.07643,0.191 0.06703,0.4192 -0.02088,0.50712 -0.08792,0.0879 -0.150452,-0.0684 -0.138964,-0.34726 z m 29.347861,0 c -0.472739,-0.26231 -0.53381,-0.36814 -0.214053,-0.37093 0.246073,-0.002 0.522192,0.1171 0.613595,0.265 0.0914,0.14789 0.295421,0.18903 0.453372,0.0914 0.171402,-0.10594 0.211071,-0.0543 0.09839,0.12797 -0.103833,0.16801 -0.211526,0.2938 -0.239318,0.27953 -0.02779,-0.0143 -0.348187,-0.19111 -0.711989,-0.39298 z m 7.540625,0.28492 c 0.604777,-0.21082 2.201937,-0.26856 2.082493,-0.0753 -0.07114,0.11511 -0.628338,0.19989 -1.238213,0.1884 -0.609875,-0.0115 -0.989801,-0.0624 -0.84428,-0.11311 z m -2.116666,-0.39517 c -0.193411,-0.31294 0.06549,-0.31294 0.79375,0 0.51018,0.21923 0.508365,0.22806 -0.05053,0.24599 -0.318833,0.0102 -0.653282,-0.10047 -0.743219,-0.24599 z m -15.635555,-0.59531 -0.504029,-0.59531 0.595313,0.50403 c 0.559445,0.47366 0.715761,0.68659 0.504028,0.68659 -0.05021,0 -0.318098,-0.26789 -0.595312,-0.59531 z m 6.364258,0.0485 c -0.09592,-0.1552 -0.117655,-0.33893 -0.0483,-0.40828 0.06935,-0.0694 0.196601,0.0576 0.282773,0.28218 0.178906,0.46623 0.02643,0.54823 -0.234473,0.1261 z m 12.264395,0.10145 c 0.190995,-0.0764 0.419198,-0.067 0.507119,0.0209 0.08792,0.0879 -0.06835,0.15046 -0.347265,0.13897 -0.308227,-0.0127 -0.37092,-0.0754 -0.159854,-0.15985 z m -2.33164,-1.14218 c -0.483651,-0.31256 -0.06591,-0.31256 0.661458,0 0.348917,0.14994 0.393981,0.23235 0.132292,0.24194 -0.218281,0.008 -0.575469,-0.10087 -0.79375,-0.24194 z m -34.165,-0.46302 c -0.329108,-0.41964 -0.319749,-0.429 0.0999,-0.0999 0.254661,0.19973 0.463021,0.40809 0.463021,0.46303 0,0.21776 -0.217274,0.0776 -0.562917,-0.36313 z M 42.475074,236.987 c 0.317741,-0.33822 0.487323,-0.71449 0.376851,-0.83617 -0.110471,-0.12167 -0.04308,-0.13005 0.14977,-0.0186 0.272484,0.15747 0.217983,0.34382 -0.244559,0.83617 -0.327351,0.34845 -0.654717,0.63355 -0.727477,0.63355 -0.07276,0 0.127677,-0.27673 0.445415,-0.61494 z m 19.097752,0.4165 c 0.0021,-0.10914 0.119467,-0.37703 0.260533,-0.59531 0.207398,-0.32093 0.257254,-0.28295 0.260532,0.19844 0.0021,0.32742 -0.115012,0.59531 -0.260532,0.59531 -0.145521,0 -0.262761,-0.0893 -0.260533,-0.19844 z m 1.848033,-0.11024 c 0,-0.16977 0.07834,-0.23034 0.174093,-0.13459 0.09575,0.0958 0.363643,0.0263 0.595312,-0.15434 0.37269,-0.29059 0.379381,-0.27508 0.05809,0.13459 -0.416126,0.5306 -0.8275,0.60733 -0.8275,0.15434 z m -17.706195,-0.13872 c -0.03018,-0.45532 0.438044,-0.67404 0.663168,-0.30978 0.114112,0.18463 0.07718,0.23915 -0.09141,0.13496 -0.155578,-0.0962 -0.343167,-0.0252 -0.416867,0.15755 -0.09591,0.2379 -0.139941,0.24281 -0.15489,0.0172 z m -0.550055,-0.33073 c 0,-0.13693 0.1177,-0.32171 0.261553,-0.41062 0.149982,-0.0927 0.194337,0.0135 0.103984,0.24897 -0.175892,0.45837 -0.365537,0.54223 -0.365537,0.16165 z m 2.910416,-0.0156 c -0.238466,-0.15411 -0.2711,-0.2581 -0.08176,-0.26053 0.173312,-0.002 0.388699,0.11501 0.478636,0.26053 0.203015,0.32849 0.111422,0.32849 -0.396876,0 z m 16.007292,-0.52916 c 0.26339,-0.29105 0.538422,-0.52917 0.611182,-0.52917 0.07276,0 -0.08321,0.23812 -0.346599,0.52917 -0.26339,0.29104 -0.538422,0.52916 -0.611182,0.52916 -0.07276,0 0.08321,-0.23812 0.346599,-0.52916 z m -36.997569,0.0882 c -0.244472,-0.24447 -0.221705,-0.88194 0.0315,-0.88194 0.114337,0 0.207887,0.23812 0.207887,0.52916 0,0.5966 0.0018,0.59396 -0.239385,0.35278 z m 19.36618,-0.26458 c -0.214408,-0.25835 -0.213283,-0.35278 0.0042,-0.35278 0.163338,0 0.296979,0.12609 0.296979,0.2802 0,0.15411 0.110836,0.2117 0.2463,0.12797 0.135467,-0.0837 0.308822,-0.0511 0.385236,0.0726 0.228518,0.36975 -0.615783,0.25391 -0.932717,-0.12797 z m 19.351181,-0.48507 c 0.493654,-0.50933 0.957085,-0.92604 1.029845,-0.92604 0.07276,0 -0.271608,0.41671 -0.765262,0.92604 -0.493654,0.50932 -0.957085,0.92604 -1.029846,0.92604 -0.07276,0 0.271608,-0.41672 0.765263,-0.92604 z m 1.058333,0.82461 c 0,-0.0558 0.238289,-0.16375 0.529532,-0.23991 0.291242,-0.0762 0.462809,-0.0305 0.381259,0.10143 -0.142412,0.23043 -0.910791,0.34725 -0.910791,0.13848 z m -37.869167,-0.62618 c -0.329106,-0.41964 -0.319748,-0.429 0.0999,-0.0999 0.254662,0.19972 0.463021,0.40808 0.463021,0.46302 0,0.21776 -0.217273,0.0776 -0.562917,-0.36313 z m -1.289166,-0.57969 c 0,-0.13693 0.117699,-0.32171 0.261552,-0.41062 0.149982,-0.0927 0.194339,0.0135 0.103985,0.24897 -0.175893,0.45837 -0.365537,0.54223 -0.365537,0.16165 z m 0.723194,-0.0485 c 0.179476,-0.18082 0.392969,-0.26212 0.474432,-0.18065 0.08146,0.0815 -0.06538,0.2294 -0.32632,0.32876 -0.377083,0.14359 -0.407474,0.1132 -0.148112,-0.14811 z m 12.841736,-0.15052 c 0.257432,-0.0671 0.61462,-0.0627 0.79375,0.01 0.179131,0.0725 -0.03149,0.12737 -0.468055,0.12197 -0.436563,-0.005 -0.583126,-0.0647 -0.325695,-0.13177 z m 6.879167,0 c 0.257432,-0.0671 0.614619,-0.0627 0.79375,0.01 0.179131,0.0725 -0.03149,0.12737 -0.468056,0.12197 -0.436562,-0.005 -0.583126,-0.0647 -0.325694,-0.13177 z m 10.883889,-0.41196 -0.504028,-0.59531 0.595312,0.50403 c 0.559446,0.47366 0.715762,0.68659 0.504029,0.68659 -0.05021,0 -0.318098,-0.26789 -0.595313,-0.59531 z m -29.277465,0.1555 c 0.181901,-0.0734 0.479557,-0.0734 0.661458,0 0.181901,0.0734 0.03307,0.13345 -0.330729,0.13345 -0.363802,0 -0.512631,-0.06 -0.330729,-0.13345 z m 2.38125,0 c 0.181901,-0.0734 0.479557,-0.0734 0.661458,0 0.181901,0.0734 0.03307,0.13345 -0.330729,0.13345 -0.363802,0 -0.512631,-0.06 -0.330729,-0.13345 z m -8.185547,-0.79926 c 0.190996,-0.0764 0.419199,-0.067 0.507118,0.0209 0.08792,0.0879 -0.06835,0.15046 -0.347266,0.13897 -0.308224,-0.0127 -0.370919,-0.0754 -0.159852,-0.15985 z m 21.999911,-0.0363 c -0.362564,-0.1602 -0.360157,-0.22316 0.02204,-0.57671 0.672026,-0.62165 1.260454,-0.67507 0.707671,-0.0642 -0.250897,0.27724 -0.376539,0.5837 -0.27921,0.68103 0.211654,0.21166 0.09584,0.20135 -0.450508,-0.0401 z m 2.024411,-0.096 c 0.07641,-0.12364 0.24977,-0.1563 0.385236,-0.0726 0.346176,0.21395 0.307197,0.29738 -0.138935,0.29738 -0.211881,0 -0.322715,-0.10116 -0.246301,-0.2248 z m -16.897109,-0.13831 c 0.327422,-0.0631 0.863203,-0.0631 1.190625,0 0.327422,0.0631 0.05953,0.11466 -0.595312,0.11466 -0.654844,0 -0.922735,-0.0516 -0.595313,-0.11466 z m -7.391797,-0.2586 c 0.190996,-0.0764 0.4192,-0.067 0.507118,0.0209 0.08792,0.0879 -0.06835,0.15045 -0.347265,0.13896 -0.308225,-0.0127 -0.37092,-0.0754 -0.159853,-0.15985 z m 18.920926,0.007 c 0.09575,-0.0958 0.0263,-0.36364 -0.154342,-0.59531 -0.290126,-0.37209 -0.27477,-0.37915 0.131675,-0.0605 0.41392,0.3245 0.419613,0.82992 0.0093,0.82992 -0.08843,0 -0.08243,-0.0784 0.01331,-0.1741 z m 1.405919,-0.22277 c 0.08376,-0.21828 0.199088,-0.39688 0.256281,-0.39688 0.05719,0 0.103984,0.1786 0.103984,0.39688 0,0.21828 -0.115327,0.39687 -0.256281,0.39687 -0.140952,0 -0.187746,-0.17859 -0.103984,-0.39687 z m 7.295145,0.0267 c 0.187639,-0.2036 0.382849,-0.33059 0.433802,-0.28218 0.156935,0.14908 -0.240807,0.65237 -0.515561,0.65237 -0.142672,0 -0.105879,-0.16658 0.08176,-0.37019 z m 8.410953,-0.14336 c 0,-0.13693 0.1177,-0.32171 0.261554,-0.41062 0.149981,-0.0927 0.194336,0.0135 0.103984,0.24897 -0.175893,0.45837 -0.365538,0.54224 -0.365538,0.16165 z m 3.439583,0.0609 c 0,-0.15196 0.20836,-0.43969 0.463021,-0.63941 0.428297,-0.33589 0.433911,-0.32344 0.07487,0.16604 -0.213484,0.29104 -0.421844,0.57878 -0.463021,0.63941 -0.04118,0.0606 -0.07487,-0.0141 -0.07487,-0.16604 z M 24.742083,232.9231 c 0.190996,-0.0764 0.419199,-0.067 0.507118,0.0209 0.08792,0.0879 -0.06835,0.15045 -0.347266,0.13897 -0.308224,-0.0127 -0.370919,-0.0754 -0.159852,-0.15986 z m 20.157942,-0.0682 c 0,-0.13694 0.119063,-0.32256 0.264584,-0.41249 0.14552,-0.0899 0.264583,0.0221 0.264583,0.24896 0,0.22687 -0.119063,0.4125 -0.264583,0.4125 -0.145521,0 -0.264584,-0.11204 -0.264584,-0.24897 z m -18.25625,-0.3243 c 0,-0.12127 -0.143416,-0.19072 -0.318702,-0.15434 -0.175287,0.0364 -0.325938,-0.0529 -0.334781,-0.19844 -0.0088,-0.14552 -0.12275,-0.44317 -0.253128,-0.66145 -0.130378,-0.21829 0.08608,-0.10234 0.481008,0.25765 0.604691,0.55118 0.756991,0.59296 0.964654,0.26458 0.198495,-0.31388 0.247387,-0.28242 0.250648,0.16127 0.0023,0.31538 -0.165749,0.55122 -0.392824,0.55122 -0.218281,0 -0.396875,-0.0992 -0.396875,-0.22049 z m 21.166667,-0.32038 c 0,-0.0549 0.208359,-0.2633 0.463021,-0.46302 0.419645,-0.32911 0.429003,-0.31975 0.0999,0.0999 -0.345644,0.44073 -0.562917,0.58089 -0.562917,0.36313 z m -21.237576,-0.93644 c -0.07938,-0.30354 -0.04447,-0.49018 0.07758,-0.41475 0.122046,0.0754 0.271697,-0.1923 0.332557,-0.59495 l 0.110656,-0.73209 0.03559,0.79375 c 0.04676,1.04287 -0.353312,1.72458 -0.556381,0.94804 z m 6.950076,-0.022 c -0.238466,-0.15411 -0.2711,-0.2581 -0.08176,-0.26053 0.173313,-0.002 0.3887,0.11501 0.478637,0.26053 0.203015,0.32849 0.111421,0.32849 -0.396875,0 z m -8.88868,-0.85989 -0.504028,-0.59532 0.595312,0.50403 c 0.327422,0.27722 0.595313,0.54511 0.595313,0.59531 0,0.21174 -0.212935,0.0554 -0.686597,-0.50402 z m 20.815819,0.17639 c 0.0127,-0.30823 0.07539,-0.37092 0.15985,-0.15986 0.07643,0.191 0.06703,0.4192 -0.02088,0.50712 -0.08792,0.0879 -0.150453,-0.0684 -0.138965,-0.34726 z m 4.741611,-0.11025 c -0.238466,-0.15411 -0.2711,-0.2581 -0.08176,-0.26053 0.173313,-0.002 0.3887,0.11501 0.478637,0.26053 0.203015,0.32849 0.111421,0.32849 -0.396875,0 z m -5.769253,-0.92604 c 0.0054,-0.43656 0.06469,-0.58313 0.131773,-0.32569 0.06708,0.25743 0.06267,0.61461 -0.0098,0.79375 -0.07248,0.17913 -0.127362,-0.0315 -0.12197,-0.46806 z m -16.170276,-0.022 c 0.0127,-0.30823 0.07539,-0.37092 0.159853,-0.15985 0.07643,0.19099 0.06703,0.41919 -0.02089,0.50712 -0.08792,0.0879 -0.150453,-0.0684 -0.138964,-0.34727 z m 13.737446,0 c -0.444858,-0.24685 -0.520446,-0.36831 -0.230833,-0.37094 0.236841,-0.002 0.578842,0.1747 0.759999,0.39298 0.386366,0.46554 0.346557,0.46388 -0.529166,-0.022 z m -18.785417,-0.11025 c -0.238467,-0.15411 -0.271101,-0.2581 -0.08176,-0.26053 0.173313,-0.002 0.388699,0.11501 0.478636,0.26053 0.203016,0.32849 0.111422,0.32849 -0.396875,0 z m 3.460471,-0.68351 c 0.0127,-0.30822 0.07539,-0.37092 0.159853,-0.15985 0.07643,0.19099 0.06703,0.4192 -0.02089,0.50712 -0.08792,0.0879 -0.150453,-0.0684 -0.138964,-0.34727 z m -12.035125,-0.86467 c -0.08914,-0.14423 0.06541,-0.19631 0.356615,-0.12016 0.447041,0.11691 0.528097,-0.0327 0.622692,-1.14915 l 0.108751,-1.28355 -0.02701,1.32053 c -0.02057,1.00569 -0.13153,1.34037 -0.465367,1.40371 -0.241093,0.0457 -0.509148,-0.0314 -0.595677,-0.17138 z m -5.3268503,-2.96734 c -0.09592,-0.1552 -0.102947,-0.35364 -0.015615,-0.44097 0.087332,-0.0873 0.158786,-0.007 0.158786,0.1782 0,0.19585 0.1719691,0.27099 0.4106169,0.17942 0.2354594,-0.0904 0.3416624,-0.046 0.2489684,0.10398 -0.2117386,0.3426 -0.584182,0.33303 -0.8027564,-0.0206 z m 5.4557253,-0.40132 c 0.0127,-0.30823 0.07539,-0.37092 0.159853,-0.15985 0.07643,0.19099 0.06703,0.41919 -0.02089,0.50711 -0.08792,0.0879 -0.150453,-0.0684 -0.138963,-0.34726 z m 4.44328,-0.57327 c -0.329107,-0.41964 -0.319749,-0.429 0.0999,-0.0999 0.254661,0.19972 0.463021,0.40808 0.463021,0.46302 0,0.21776 -0.217272,0.0776 -0.562916,-0.36313 z m 17.727082,-0.52916 c -0.329107,-0.41965 -0.319749,-0.42901 0.0999,-0.0999 0.254662,0.19972 0.463021,0.40808 0.463021,0.46302 0,0.21776 -0.217273,0.0776 -0.562917,-0.36312 z M 18.14336,223.11581 c -0.329108,-0.41964 -0.319749,-0.429 0.0999,-0.0999 0.254661,0.19972 0.46302,0.40808 0.46302,0.46302 0,0.21776 -0.217272,0.0776 -0.562915,-0.36313 z m 12.336874,-0.0661 c 0.26339,-0.29104 0.538421,-0.52917 0.611182,-0.52917 0.07276,0 -0.08321,0.23813 -0.346599,0.52917 -0.26339,0.29104 -0.538422,0.52916 -0.611182,0.52916 -0.07276,0 0.08321,-0.23812 0.346599,-0.52916 z m 3.389278,-0.92604 c 0.0016,-0.87313 0.05088,-1.19842 0.109765,-0.72287 0.05888,0.47555 0.05767,1.18992 -0.0027,1.5875 -0.06037,0.39758 -0.108551,0.008 -0.107065,-0.86463 z m -18.867403,0.94165 c 0,-0.13693 0.117699,-0.32171 0.261553,-0.41061 0.149981,-0.0927 0.194338,0.0135 0.103984,0.24896 -0.175893,0.45837 -0.365537,0.54224 -0.365537,0.16165 z m -2.557639,-0.40085 c 0,-0.21188 0.101161,-0.32271 0.224802,-0.2463 0.123641,0.0764 0.156302,0.24977 0.07258,0.38524 -0.213948,0.34617 -0.297381,0.30719 -0.297381,-0.13894 z m 6.660553,0.12368 c -0.09269,-0.14998 0.01351,-0.19433 0.248969,-0.10398 0.458368,0.17589 0.542233,0.36554 0.161648,0.36554 -0.136932,0 -0.32171,-0.1177 -0.410617,-0.26156 z m -1.966699,-0.37634 c -0.238707,-0.28763 -0.23096,-0.41884 0.03375,-0.57159 0.188967,-0.10905 0.255312,-0.10084 0.147434,0.0182 -0.107878,0.11909 -0.06353,0.3763 0.09854,0.57159 0.162077,0.19529 0.235153,0.35507 0.162393,0.35507 -0.07276,0 -0.271714,-0.16799 -0.44212,-0.37332 z m -7.7420746,-0.33659 c 0.1909961,-0.0764 0.4191992,-0.067 0.5071181,0.0209 0.087919,0.0879 -0.068351,0.15046 -0.3472656,0.13897 -0.3082245,-0.0127 -0.3709194,-0.0754 -0.1598525,-0.15985 z M 39.823333,221.8106 c 0.190994,-0.0764 0.419197,-0.067 0.507119,0.0209 0.08792,0.0879 -0.06835,0.15045 -0.347266,0.13897 -0.308226,-0.0127 -0.370919,-0.0754 -0.159853,-0.15986 z m -21.695834,-0.26459 c 0.190996,-0.0764 0.4192,-0.067 0.507118,0.0209 0.08792,0.0879 -0.06835,0.15045 -0.347265,0.13896 -0.308225,-0.0127 -0.37092,-0.0754 -0.159853,-0.15985 z m 12.74961,-0.18374 c 0,-0.0549 0.208359,-0.2633 0.463021,-0.46302 0.419645,-0.32911 0.429003,-0.31975 0.0999,0.0999 -0.345644,0.44073 -0.562917,0.58088 -0.562917,0.36312 z m -20.439063,-0.33991 c 0.181901,-0.0734 0.479558,-0.0734 0.661459,0 0.181901,0.0734 0.03307,0.13345 -0.33073,0.13345 -0.363802,0 -0.51263,-0.0601 -0.330729,-0.13345 z m 24.936979,-0.50828 c -0.363802,-0.20186 -0.505603,-0.36878 -0.315113,-0.37093 0.194032,-0.002 0.263321,-0.13823 0.157557,-0.30936 -0.116653,-0.18875 -0.07261,-0.23367 0.115252,-0.11756 0.263967,0.16314 0.98207,1.26057 0.779217,1.19083 -0.0415,-0.0143 -0.373111,-0.19111 -0.736913,-0.39298 z m -3.042708,-0.11025 c -0.08994,-0.14552 -0.03743,-0.26458 0.116676,-0.26458 0.154109,0 0.280199,0.11906 0.280199,0.26458 0,0.14553 -0.0525,0.26459 -0.116676,0.26459 -0.06417,0 -0.190262,-0.11906 -0.280199,-0.26459 z m -15.015104,-0.17522 c 0.181901,-0.0734 0.479557,-0.0734 0.661458,0 0.181901,0.0734 0.03307,0.13345 -0.330729,0.13345 -0.363802,0 -0.51263,-0.0601 -0.330729,-0.13345 z m 12.451953,-0.2701 c 0.190995,-0.0764 0.419198,-0.067 0.507119,0.0209 0.08792,0.0879 -0.06835,0.15045 -0.347266,0.13896 -0.308226,-0.0127 -0.370919,-0.0754 -0.159853,-0.15985 z m 38.170498,-0.23818 c 0.0127,-0.30823 0.07539,-0.37092 0.159851,-0.15985 0.07643,0.19099 0.06703,0.41919 -0.02088,0.50711 -0.08792,0.0879 -0.150453,-0.0684 -0.138964,-0.34726 z m -55.230611,-0.49548 c 0,-0.21188 0.101161,-0.32272 0.224802,-0.2463 0.123641,0.0764 0.156302,0.24977 0.07258,0.38523 -0.213949,0.34618 -0.297382,0.3072 -0.297382,-0.13893 z m 21.436115,0.18413 c 0.09615,-0.15558 0.06382,-0.3228 -0.07185,-0.37161 -0.135667,-0.0488 -0.324633,-0.44593 -0.419925,-0.88249 -0.120954,-0.55415 -0.09502,-0.68233 0.08593,-0.42462 0.211193,0.30078 0.279736,0.27628 0.37016,-0.13229 0.06103,-0.27579 0.166383,0.0135 0.234111,0.64283 0.06773,0.62934 0.01146,1.21329 -0.125055,1.29765 -0.136509,0.0844 -0.169527,0.0261 -0.07338,-0.12947 z m 4.619831,0.0204 c 0.190995,-0.0764 0.419198,-0.067 0.507119,0.0209 0.08792,0.0879 -0.06835,0.15045 -0.347265,0.13896 -0.308227,-0.0127 -0.37092,-0.0754 -0.159854,-0.15985 z M 20.972245,219.0034 c 0.09936,-0.26094 0.247303,-0.40778 0.328765,-0.32632 0.08146,0.0815 1.68e-4,0.29495 -0.180653,0.47443 -0.261307,0.25936 -0.291698,0.22897 -0.148112,-0.14811 z m 9.441843,0.15262 c 0.400182,-0.0606 1.055026,-0.0606 1.455208,0 0.400182,0.0606 0.07276,0.11023 -0.727604,0.11023 -0.800365,0 -1.127786,-0.0496 -0.727604,-0.11023 z m -14.576453,-0.60424 c 0,-0.3638 0.06005,-0.51263 0.133452,-0.33073 0.0734,0.1819 0.0734,0.47956 0,0.66146 -0.0734,0.1819 -0.133452,0.0331 -0.133452,-0.33073 z m 19.272807,0.24897 c 0,-0.15411 0.119062,-0.20661 0.264583,-0.11668 0.145521,0.0899 0.264584,0.21603 0.264584,0.2802 0,0.0642 -0.119063,0.11668 -0.264584,0.11668 -0.145521,0 -0.264583,-0.12609 -0.264583,-0.2802 z m -3.307292,-0.24897 c -0.50492,-0.21697 -0.501888,-0.22824 0.06615,-0.24598 0.327422,-0.0102 0.595313,0.10046 0.595313,0.24598 0,0.14552 -0.02977,0.25622 -0.06615,0.24599 -0.03638,-0.0102 -0.304271,-0.12092 -0.595313,-0.24599 z m -16.749461,-0.66146 c 0.0054,-0.43656 0.06469,-0.58312 0.131774,-0.32569 0.06708,0.25743 0.06267,0.61462 -0.0098,0.79375 -0.07248,0.17913 -0.127363,-0.0315 -0.121971,-0.46806 z m 53.150558,0.24254 c 0.0127,-0.30823 0.07539,-0.37092 0.159851,-0.15985 0.07643,0.19099 0.06703,0.41919 -0.02088,0.50711 -0.08792,0.0879 -0.150452,-0.0683 -0.138964,-0.34726 z M 32.459301,217.8839 c -0.494834,-0.59624 -0.207624,-0.66518 0.382331,-0.0918 0.280122,0.27226 0.383998,0.49503 0.230833,0.49503 -0.153165,0 -0.429088,-0.18147 -0.613164,-0.40327 z m -14.282192,0.0388 c 0,-0.0549 0.208359,-0.2633 0.463021,-0.46302 0.419644,-0.32911 0.429002,-0.31975 0.09989,0.0999 -0.345643,0.44073 -0.562915,0.58089 -0.562915,0.36313 z m 50.480468,-0.94829 c -0.06349,-0.4326 0.01619,-0.83394 0.177919,-0.896 0.190259,-0.073 0.256264,0.20163 0.188322,0.7836 -0.12859,1.10147 -0.217091,1.12863 -0.366241,0.1124 z m -51.274218,0.41912 c 0,-0.0549 0.208359,-0.2633 0.463021,-0.46302 0.419644,-0.32911 0.429002,-0.31975 0.09989,0.0999 -0.345643,0.44073 -0.562915,0.58088 -0.562915,0.36312 z m 15.467245,-0.18229 c -0.09592,-0.1552 -0.117655,-0.33893 -0.0483,-0.40828 0.06935,-0.0694 0.196602,0.0576 0.282774,0.28218 0.178906,0.46623 0.02643,0.54823 -0.234474,0.1261 z m 1.772446,-0.24698 c 0,-0.3638 0.06006,-0.51263 0.133454,-0.33073 0.0734,0.1819 0.0734,0.47956 0,0.66146 -0.0734,0.1819 -0.133454,0.0331 -0.133454,-0.33073 z m -19.33547,-0.6835 c 0.01269,-0.30823 0.07539,-0.37092 0.159853,-0.15986 0.07643,0.191 0.06703,0.4192 -0.02089,0.50712 -0.08792,0.0879 -0.150453,-0.0683 -0.138965,-0.34726 z m 3.083556,-0.14308 c 0.179476,-0.18082 0.39297,-0.26212 0.474432,-0.18065 0.08146,0.0815 -0.06538,0.2294 -0.326319,0.32876 -0.377084,0.14359 -0.407475,0.1132 -0.148113,-0.14811 z m 49.150764,0.0328 c -0.08994,-0.14552 -0.03743,-0.26458 0.116676,-0.26458 0.154109,0 0.280199,0.11906 0.280199,0.26458 0,0.14552 -0.0525,0.26458 -0.116676,0.26458 -0.06417,0 -0.190262,-0.11906 -0.280199,-0.26458 z m 3.257682,0.0838 c 0.190995,-0.0764 0.419201,-0.067 0.507119,0.0209 0.08792,0.0879 -0.06835,0.15045 -0.347265,0.13897 -0.308227,-0.0127 -0.37092,-0.0754 -0.159854,-0.15986 z m -42.81289,-0.32239 c 0,-0.27475 0.503294,-0.67249 0.652376,-0.51556 0.0484,0.051 -0.07858,0.24616 -0.282187,0.4338 -0.203604,0.18764 -0.370189,0.22443 -0.370189,0.0818 z m 16.525579,-0.30823 c -0.271479,-0.43926 -0.02781,-0.50017 0.352041,-0.088 0.187637,0.2036 0.22443,0.37019 0.08176,0.37019 -0.142669,0 -0.337878,-0.12699 -0.4338,-0.28219 z m 16.404166,0 c -0.09592,-0.1552 -0.117655,-0.33893 -0.0483,-0.40828 0.06935,-0.0694 0.196601,0.0576 0.282773,0.28218 0.178906,0.46623 0.02643,0.54823 -0.234473,0.1261 z m 2.739395,-0.16313 c 0.190995,-0.0764 0.419198,-0.067 0.507119,0.0209 0.08792,0.0879 -0.06835,0.15045 -0.347265,0.13897 -0.308227,-0.0127 -0.37092,-0.0754 -0.159854,-0.15986 z m -28.72859,-0.8776 c 0,-0.50932 0.05445,-0.71768 0.121002,-0.46302 0.06655,0.25466 0.06655,0.67138 0,0.92604 -0.06655,0.25466 -0.121002,0.0463 -0.121002,-0.46302 z m 29.257757,0.34843 c 0.190995,-0.0764 0.419198,-0.067 0.507119,0.0209 0.08792,0.0879 -0.06835,0.15046 -0.347266,0.13897 -0.308226,-0.0127 -0.370919,-0.0754 -0.159853,-0.15985 z m 6.735374,-0.003 c 0.257431,-0.0671 0.614619,-0.0627 0.79375,0.01 0.179131,0.0725 -0.03149,0.12736 -0.468056,0.12197 -0.436563,-0.005 -0.583126,-0.0647 -0.325694,-0.13177 z M 46.8844,214.31842 c 0.26339,-0.29104 0.538422,-0.52917 0.611182,-0.52917 0.07276,0 -0.08321,0.23813 -0.346598,0.52917 -0.26339,0.29104 -0.538422,0.52916 -0.611183,0.52916 -0.07276,0 0.08321,-0.23812 0.346599,-0.52916 z m 19.182292,0.1606 c 0,-0.0572 0.178594,-0.17252 0.396875,-0.25628 0.218281,-0.0838 0.396875,-0.037 0.396875,0.10398 0,0.14095 -0.178594,0.25628 -0.396875,0.25628 -0.218281,0 -0.396875,-0.0468 -0.396875,-0.10398 z m 1.973495,-0.1782 c -0.09592,-0.15521 -0.117655,-0.33894 -0.0483,-0.40829 0.06935,-0.0694 0.196602,0.0576 0.282774,0.28218 0.178906,0.46623 0.02643,0.54824 -0.234474,0.12611 z m -35.533803,-0.51157 c 0,-0.3638 0.06006,-0.51263 0.133453,-0.33073 0.0734,0.1819 0.0734,0.47956 0,0.66146 -0.0734,0.1819 -0.133453,0.0331 -0.133453,-0.33073 z m 36.206141,0.0441 c 0,-0.12127 0.173358,-0.22049 0.385236,-0.22049 0.211881,0 0.323916,0.0992 0.248968,0.22049 -0.07495,0.12127 -0.248304,0.22048 -0.385236,0.22048 -0.136933,0 -0.248968,-0.0992 -0.248968,-0.22048 z m -2.401276,-0.7717 -0.641432,-0.72761 0.681088,0.59774 c 0.374597,0.32875 0.78064,0.50734 0.902313,0.39687 0.121677,-0.11047 0.135584,-0.052 0.0309,0.12987 -0.250518,0.43532 -0.232894,0.44251 -0.972873,-0.39687 z m 3.988776,0.47863 c 0,-0.13693 0.09922,-0.31029 0.220485,-0.38523 0.12127,-0.075 0.220488,0.0371 0.220488,0.24897 0,0.21187 -0.09922,0.38523 -0.220488,0.38523 -0.121266,0 -0.220485,-0.11203 -0.220485,-0.24897 z m -15.395442,-0.9901 c 0.190994,-0.0764 0.419197,-0.067 0.507118,0.0209 0.08792,0.0879 -0.06835,0.15046 -0.347265,0.13897 -0.308227,-0.0127 -0.37092,-0.0754 -0.159853,-0.15985 z m 12.770498,-0.50277 c 0.0127,-0.30822 0.07539,-0.37092 0.15985,-0.15985 0.07643,0.19099 0.06703,0.4192 -0.02088,0.50712 -0.08792,0.0879 -0.150453,-0.0684 -0.138965,-0.34727 z m -20.390469,-0.10258 c -0.311764,-0.19712 -0.274336,-0.23984 0.180107,-0.20561 0.315505,0.0238 0.515337,0.13756 0.444069,0.25287 -0.158438,0.25636 -0.141992,0.25761 -0.624176,-0.0473 z m 17.70372,-0.47068 -0.641432,-0.72761 0.727604,0.64143 c 0.680056,0.59952 0.84894,0.81378 0.641432,0.81378 -0.04739,0 -0.374814,-0.32742 -0.727604,-0.7276 z m 6.63461,0.36312 c 0,-0.0549 0.208359,-0.2633 0.463021,-0.46302 0.419645,-0.32911 0.429003,-0.31975 0.0999,0.0999 -0.345644,0.44073 -0.562917,0.58088 -0.562917,0.36312 z m -20.489958,-0.45394 c 0.08155,-0.13195 0.05125,-0.23991 -0.06734,-0.23991 -0.461544,0 -0.898972,-1.60786 -0.805037,-2.95907 l 0.09778,-1.40656 0.04894,1.52136 c 0.02778,0.86355 0.170092,1.52135 0.329141,1.52135 0.15411,0 0.206613,0.11906 0.116676,0.26458 -0.08994,0.14553 0.05186,0.26641 0.315114,0.26864 0.399147,0.003 0.413784,0.0451 0.08813,0.251 -0.319339,0.20194 -0.274675,0.28979 0.245073,0.48206 0.631589,0.23364 0.631962,0.23606 0.05941,0.38578 -0.316892,0.0829 -0.509445,0.0427 -0.427895,-0.0892 z m 3.821208,0.18782 c 0,-0.0558 0.238289,-0.16374 0.529532,-0.23991 0.291242,-0.0762 0.462809,-0.0305 0.381259,0.10144 -0.142412,0.23042 -0.910791,0.34725 -0.910791,0.13847 z m 13.560472,-0.82461 c 0.0029,-0.58208 0.05712,-0.78905 0.120407,-0.45993 0.06329,0.32911 0.06088,0.80536 -0.0053,1.05833 -0.06622,0.25297 -0.118004,-0.0163 -0.115067,-0.5984 z m 2.049944,0.41249 c 0,-0.13693 0.1177,-0.32171 0.261554,-0.41061 0.149982,-0.0927 0.194337,0.0135 0.103984,0.24896 -0.175892,0.45837 -0.365538,0.54224 -0.365538,0.16165 z m -52.08114,-0.54478 c 0,-0.3638 0.06005,-0.51263 0.133453,-0.33073 0.0734,0.1819 0.0734,0.47956 0,0.66146 -0.0734,0.1819 -0.133453,0.0331 -0.133453,-0.33073 z M 15.1344,210.34967 c 0.263389,-0.29104 0.538421,-0.52917 0.611181,-0.52917 0.07276,0 -0.08321,0.23813 -0.346597,0.52917 -0.263389,0.29104 -0.538421,0.52916 -0.611181,0.52916 -0.07276,0 0.08321,-0.23812 0.346597,-0.52916 z m 5.531112,-0.0661 -0.504028,-0.59531 0.595312,0.50403 c 0.559447,0.47366 0.715762,0.68659 0.504028,0.68659 -0.05021,0 -0.318097,-0.26789 -0.595312,-0.59531 z m 27.083666,0.0216 c 0.153749,-0.15375 0.435721,-0.22749 0.626602,-0.16386 0.198159,0.066 0.07822,0.18598 -0.279546,0.27954 -0.440094,0.11509 -0.543396,0.0806 -0.347056,-0.11568 z m 17.296016,-0.22882 c -0.343546,-0.28619 -0.510826,-0.52035 -0.371737,-0.52035 0.139089,0 0.468386,0.23812 0.731777,0.52916 0.60507,0.6686 0.448484,0.66477 -0.36004,-0.009 z m -15.51496,0.009 c 0.08994,-0.14552 0.216027,-0.26458 0.280199,-0.26458 0.06417,0 0.116676,0.11906 0.116676,0.26458 0,0.14553 -0.12609,0.26459 -0.280199,0.26459 -0.15411,0 -0.206614,-0.11906 -0.116676,-0.26459 z m -32.22638,-0.35472 c -0.07487,-0.1951 -0.0299,-0.52252 0.09993,-0.7276 0.171794,-0.27138 0.237156,-0.17481 0.240105,0.35472 0.0044,0.79011 -0.125339,0.93238 -0.340037,0.37288 z m 28.075729,0.17398 c 0.190994,-0.0764 0.419197,-0.067 0.507119,0.0209 0.08792,0.0879 -0.06835,0.15045 -0.347266,0.13896 -0.308226,-0.0127 -0.370919,-0.0754 -0.159853,-0.15985 z m -24.59039,-0.81144 c -0.329107,-0.41965 -0.319749,-0.42901 0.0999,-0.0999 0.254661,0.19972 0.463021,0.40808 0.463021,0.46302 0,0.21776 -0.217272,0.0776 -0.562916,-0.36312 z m 32.048332,-0.72761 c 0.493655,-0.50932 0.957085,-0.92604 1.029846,-0.92604 0.07276,0 -0.271608,0.41672 -0.765262,0.92604 -0.493655,0.50933 -0.957086,0.92604 -1.029846,0.92604 -0.07276,0 0.271608,-0.41671 0.765262,-0.92604 z m -33.106665,-0.0661 c -0.329108,-0.41965 -0.319749,-0.42901 0.0999,-0.0999 0.254661,0.19972 0.46302,0.40808 0.46302,0.46302 0,0.21776 -0.217272,0.0776 -0.562915,-0.36312 z m 4.267082,0.19843 c -0.238467,-0.1541 -0.271101,-0.25809 -0.08176,-0.26053 0.173313,-0.002 0.388699,0.11501 0.478636,0.26053 0.203016,0.32849 0.111422,0.32849 -0.396875,0 z m 24.198495,-0.54677 c -0.09592,-0.1552 -0.117655,-0.33893 -0.0483,-0.40828 0.06935,-0.0694 0.196601,0.0576 0.282773,0.28218 0.178906,0.46623 0.02643,0.54824 -0.234473,0.1261 z m -27.638078,-0.25528 c 0,-0.14095 0.178593,-0.25628 0.396875,-0.25628 0.218281,0 0.396875,0.0468 0.396875,0.10398 0,0.0572 -0.178594,0.17252 -0.396875,0.25629 -0.218282,0.0838 -0.396875,0.037 -0.396875,-0.10399 z m -6.39961,-0.43702 c 0.190996,-0.0764 0.4192,-0.067 0.507119,0.0209 0.08792,0.0879 -0.06835,0.15045 -0.347266,0.13896 -0.308225,-0.0127 -0.370919,-0.0754 -0.159853,-0.15985 z m 7.920964,-0.53515 c 0.327422,-0.0631 0.863203,-0.0631 1.190625,0 0.327422,0.0631 0.05953,0.11466 -0.595313,0.11466 -0.654843,0 -0.922734,-0.0516 -0.595312,-0.11466 z m 38.716201,-0.49678 c 0.0127,-0.30823 0.07539,-0.37092 0.159851,-0.15986 0.07643,0.191 0.06703,0.4192 -0.02088,0.50712 -0.08792,0.0879 -0.150453,-0.0683 -0.138964,-0.34726 z m -41.010417,-0.0117 c -0.01149,-0.16408 0.137862,-0.43008 0.331889,-0.59111 0.266208,-0.22093 0.352778,-0.19927 0.352778,0.0883 0,0.20957 -0.08905,0.326 -0.197888,0.25873 -0.108838,-0.0673 -0.258188,0.0273 -0.331889,0.21008 -0.08349,0.20709 -0.141876,0.21992 -0.15489,0.034 z m -3.460472,-0.31073 c 0,-0.16642 -0.206481,-0.23395 -0.46302,-0.15143 -0.387011,0.1245 -0.398233,0.10322 -0.06836,-0.12958 0.413882,-0.29208 1.048109,0.0647 0.712177,0.40059 -0.09944,0.0994 -0.180799,0.0456 -0.180799,-0.11958 z m 1.736803,-0.39454 c 0.09936,-0.26094 0.247304,-0.40778 0.328766,-0.32632 0.08146,0.0815 1.67e-4,0.29496 -0.180654,0.47443 -0.261306,0.25936 -0.291697,0.22897 -0.148112,-0.14811 z m 32.588474,0.0447 c 0.179478,-0.18083 0.39297,-0.26212 0.474432,-0.18066 0.08146,0.0815 -0.06538,0.22941 -0.326318,0.32877 -0.377084,0.14358 -0.407474,0.11319 -0.148114,-0.14811 z m 15.895947,0.11667 c 0.190995,-0.0764 0.419198,-0.067 0.507119,0.0209 0.08792,0.0879 -0.06835,0.15045 -0.347266,0.13896 -0.308226,-0.0127 -0.370919,-0.0754 -0.159853,-0.15985 z m -51.313306,-0.81145 c -0.329107,-0.41964 -0.319749,-0.429 0.0999,-0.0999 0.254661,0.19972 0.463021,0.40808 0.463021,0.46302 0,0.21776 -0.217272,0.0776 -0.562916,-0.36313 z m 45.827554,0.0441 c 0.0127,-0.30822 0.07539,-0.37092 0.159851,-0.15985 0.07643,0.19099 0.06703,0.4192 -0.02088,0.50712 -0.08792,0.0879 -0.150452,-0.0684 -0.138964,-0.34727 z m 1.11673,-0.90399 c 0,-0.80037 0.0496,-1.12779 0.110223,-0.72761 0.06062,0.40019 0.06062,1.05503 0,1.45521 -0.06062,0.40018 -0.110223,0.0728 -0.110223,-0.7276 z m -49.565675,0.38566 c -0.275504,-0.33196 -0.274307,-0.46769 0.0064,-0.7276 0.271601,-0.25147 0.303808,-0.24661 0.151217,0.0228 -0.106637,0.18828 -0.04999,0.5157 0.125873,0.72761 0.175867,0.2119 0.260227,0.38528 0.187466,0.38528 -0.07276,0 -0.284699,-0.18364 -0.470975,-0.40809 z m 46.046807,0.30819 c 0,-0.0549 0.208359,-0.2633 0.46302,-0.46302 0.419645,-0.32911 0.429004,-0.31975 0.0999,0.0999 -0.345643,0.44073 -0.562916,0.58088 -0.562916,0.36312 z m -28.575,-0.53325 c 0,-0.0572 0.184777,-0.17489 0.410617,-0.26156 0.235458,-0.0904 0.341662,-0.046 0.248968,0.10399 -0.155379,0.25141 -0.659585,0.37186 -0.659585,0.15757 z m 4.883912,-0.17821 c -0.09592,-0.1552 -0.117655,-0.33893 -0.0483,-0.40828 0.06935,-0.0694 0.196601,0.0576 0.282773,0.28218 0.178906,0.46623 0.02643,0.54824 -0.234473,0.1261 z m 0.714113,-0.24698 c 0,-0.3638 0.06005,-0.51263 0.133453,-0.33072 0.0734,0.1819 0.0734,0.47955 0,0.66145 -0.0734,0.1819 -0.133453,0.0331 -0.133453,-0.33073 z m 25.643697,0.11025 c 0.0127,-0.30823 0.07539,-0.37092 0.15985,-0.15986 0.07643,0.191 0.06703,0.4192 -0.02088,0.50712 -0.08792,0.0879 -0.150453,-0.0684 -0.138965,-0.34726 z m 2.996681,-1.23472 -0.504028,-0.59532 0.595312,0.50403 c 0.559446,0.47366 0.715761,0.6866 0.504029,0.6866 -0.05021,0 -0.318098,-0.26789 -0.595313,-0.59531 z m -4.075903,0.23083 c 0,-0.0549 0.208359,-0.2633 0.46302,-0.46302 0.419645,-0.32911 0.429004,-0.31975 0.0999,0.0999 -0.345643,0.44073 -0.562916,0.58089 -0.562916,0.36313 z M 37.818894,201.9467 c -0.308917,-0.65898 -0.301574,-0.68035 0.09686,-0.28192 0.237112,0.23711 0.387528,0.55798 0.334256,0.71303 -0.05327,0.15506 -0.247271,-0.0389 -0.431112,-0.43111 z m 24.543631,-0.079 c 0,-0.29963 0.113864,-0.47442 0.253029,-0.38841 0.139166,0.086 0.185957,0.33117 0.103984,0.54479 -0.209875,0.54692 -0.357013,0.48247 -0.357013,-0.15638 z m 0.529167,0.40079 c 0,-0.0307 0.15875,-0.18755 0.352777,-0.34858 0.263623,-0.21879 0.352779,-0.20469 0.352779,0.0558 0,0.19171 -0.15875,0.34857 -0.352779,0.34857 -0.194027,0 -0.352777,-0.0251 -0.352777,-0.0558 z m -44.93739,-0.64976 c 0,-0.3638 0.06005,-0.51263 0.133452,-0.33073 0.0734,0.1819 0.0734,0.47956 0,0.66146 -0.0734,0.1819 -0.133452,0.0331 -0.133452,-0.33073 z m 9.21864,0.0156 c 0,-0.13693 0.117699,-0.32171 0.261553,-0.41061 0.149982,-0.0927 0.194338,0.0135 0.103984,0.24896 -0.175893,0.45837 -0.365537,0.54224 -0.365537,0.16165 z m 38.579557,-0.19635 c 0.190995,-0.0764 0.419198,-0.067 0.507119,0.0209 0.08792,0.0879 -0.06835,0.15046 -0.347266,0.13897 -0.308226,-0.0127 -0.370919,-0.0754 -0.159853,-0.15985 z m -32.910994,-0.43622 c 0.08375,-0.26656 0.15227,-0.65351 0.15227,-0.85989 0,-0.20638 0.245153,-0.37524 0.544783,-0.37524 0.344418,0 0.475347,-0.11234 0.355994,-0.30546 -0.125272,-0.20269 -0.07157,-0.23302 0.159626,-0.0901 0.272364,0.16833 0.234085,0.30791 -0.175371,0.63947 -0.288081,0.23327 -0.673585,0.66078 -0.856676,0.95002 -0.283549,0.44794 -0.310322,0.45406 -0.180626,0.0412 z m 26.610604,0.0598 c 0,-0.2859 0.976648,-0.31831 1.149619,-0.0382 0.06739,0.10915 -0.163713,0.21561 -0.513551,0.2366 -0.349837,0.021 -0.636068,-0.0683 -0.636068,-0.19844 z m -1.521355,-0.15439 c 0.254662,-0.0666 0.671381,-0.0666 0.926042,0 0.254662,0.0666 0.0463,0.121 -0.463021,0.121 -0.509323,0 -0.717682,-0.0545 -0.463021,-0.121 z M 32.5969,198.97258 c -0.08994,-0.14552 -0.03743,-0.26458 0.116676,-0.26458 0.154109,0 0.280199,0.11906 0.280199,0.26458 0,0.14552 -0.0525,0.26459 -0.116676,0.26459 -0.06417,0 -0.190262,-0.11907 -0.280199,-0.26459 z m 2.248959,-0.27164 c 0,-0.23002 1.027075,-0.64156 1.191289,-0.47734 0.05119,0.0512 -0.195906,0.22945 -0.549106,0.39614 -0.3532,0.16668 -0.642183,0.20322 -0.642183,0.0812 z m 3.902604,0.0964 c 0.181901,-0.0734 0.479557,-0.0734 0.661458,0 0.181901,0.0734 0.03307,0.13345 -0.330729,0.13345 -0.363802,0 -0.51263,-0.0601 -0.330729,-0.13345 z m 20.527256,-0.21001 c 0,-0.21188 0.101161,-0.32272 0.224803,-0.2463 0.12364,0.0764 0.156303,0.24977 0.07258,0.38523 -0.213948,0.34618 -0.297381,0.3072 -0.297381,-0.13893 z m 5.335765,-0.14393 c 0.26339,-0.29104 0.538421,-0.52917 0.611182,-0.52917 0.07276,0 -0.08321,0.23813 -0.346599,0.52917 -0.26339,0.29104 -0.538422,0.52916 -0.611182,0.52916 -0.07276,0 0.08321,-0.23812 0.346599,-0.52916 z m -31.527732,-0.94091 c -0.0869,-0.22646 -0.03764,-0.792 0.109466,-1.25677 0.257607,-0.81388 0.266176,-0.79877 0.23245,0.4099 -0.03762,1.34804 -0.09503,1.49024 -0.341916,0.84687 z m -4.902086,-0.29817 c 0.190996,-0.0764 0.419199,-0.067 0.507118,0.0209 0.08792,0.0879 -0.06835,0.15046 -0.347266,0.13897 -0.308224,-0.0127 -0.370919,-0.0754 -0.159852,-0.15986 z m 7.325651,-0.0838 c 0.08994,-0.14552 0.216027,-0.26458 0.280199,-0.26458 0.06417,0 0.116676,0.11906 0.116676,0.26458 0,0.14552 -0.12609,0.26458 -0.280199,0.26458 -0.154109,0 -0.206613,-0.11906 -0.116676,-0.26458 z m -0.920734,-0.40327 c 0.184076,-0.2218 0.38917,-0.34878 0.455766,-0.28218 0.183486,0.18348 -0.189323,0.68545 -0.509085,0.68545 -0.175445,0 -0.155371,-0.15181 0.05332,-0.40327 z m -2.614544,-0.21409 c -0.220932,-0.26621 -0.199273,-0.35278 0.08826,-0.35278 0.209569,0 0.325999,0.089 0.258734,0.19789 -0.06726,0.10884 0.02727,0.25819 0.210076,0.33189 0.20709,0.0835 0.219922,0.14187 0.03404,0.15489 -0.164081,0.0115 -0.430083,-0.13786 -0.591111,-0.33189 z m 7.565202,-0.46218 c 0.09356,-0.35777 0.213493,-0.47771 0.279546,-0.27955 0.06363,0.19088 -0.01011,0.47286 -0.163859,0.6266 -0.19634,0.19634 -0.230773,0.093 -0.115687,-0.34705 z m 20.145701,0.0873 c -0.329108,-0.41964 -0.319749,-0.429 0.0999,-0.0999 0.440729,0.34564 0.580887,0.56291 0.363124,0.56291 -0.05494,0 -0.2633,-0.20836 -0.46302,-0.46302 z m -25.539531,-0.20985 c -0.08617,-0.22455 -0.09756,-0.4674 -0.02529,-0.53966 0.07226,-0.0723 0.194881,0.11148 0.2725,0.40829 0.164875,0.63048 -0.01831,0.72784 -0.247201,0.13137 z m 27.18167,-0.0106 c 0.0127,-0.30823 0.07539,-0.37092 0.15985,-0.15986 0.07643,0.191 0.06703,0.4192 -0.02088,0.50712 -0.08792,0.0879 -0.150453,-0.0684 -0.138965,-0.34726 z m -30.746306,-0.83785 c -0.329107,-0.41964 -0.319749,-0.429 0.0999,-0.0999 0.254662,0.19971 0.463021,0.40807 0.463021,0.46302 0,0.21776 -0.217273,0.0776 -0.562917,-0.36313 z m 6.516042,-0.0661 c 0.26339,-0.29104 0.538422,-0.52916 0.611182,-0.52916 0.07276,0 -0.08321,0.23812 -0.346599,0.52916 -0.26339,0.29105 -0.538421,0.52917 -0.611182,0.52917 -0.07276,0 0.08321,-0.23812 0.346599,-0.52917 z m 10.884527,-0.39687 c -0.08376,-0.21828 -0.03697,-0.39688 0.103984,-0.39688 0.140954,0 0.256281,0.1786 0.256281,0.39688 0,0.21828 -0.0468,0.39687 -0.103984,0.39687 -0.05719,0 -0.172517,-0.17859 -0.256281,-0.39687 z m -14.659602,-0.92604 c 0,-0.50933 0.05445,-0.71769 0.121002,-0.46302 0.06655,0.25466 0.06655,0.67138 0,0.92604 -0.06655,0.25466 -0.121002,0.0463 -0.121002,-0.46302 z m -21.186274,0 c 0,-0.3638 0.06005,-0.51263 0.133453,-0.33073 0.0734,0.1819 0.0734,0.47956 0,0.66146 -0.0734,0.1819 -0.133453,0.0331 -0.133453,-0.33073 z m 5.305605,0.15897 c 0.187638,-0.2036 0.382849,-0.33058 0.433801,-0.28218 0.156937,0.14908 -0.240808,0.65237 -0.515562,0.65237 -0.14267,0 -0.105877,-0.16658 0.08176,-0.37019 z m 25.294676,-0.0751 c 0.190995,-0.0764 0.419198,-0.067 0.507119,0.0209 0.08792,0.0879 -0.06835,0.15045 -0.347265,0.13896 -0.308227,-0.0127 -0.37092,-0.0754 -0.159854,-0.15985 z m 6.135026,-0.33281 c 0,-0.13693 0.1177,-0.32171 0.261554,-0.41062 0.149982,-0.0927 0.194337,0.0135 0.103984,0.24897 -0.175892,0.45837 -0.365538,0.54223 -0.365538,0.16165 z m 1.499307,-0.45659 c -0.246629,-0.24662 -0.220147,-0.61736 0.04409,-0.61736 0.121269,0 0.220488,0.17859 0.220488,0.39688 0,0.44962 -0.01934,0.46573 -0.264583,0.22048 z m -37.48264,-0.50068 c 0,-0.22687 0.121005,-0.33771 0.268899,-0.2463 0.147895,0.0914 0.200399,0.27702 0.116677,0.41249 -0.226811,0.36698 -0.385576,0.29855 -0.385576,-0.16619 z m 21.981306,-0.006 c 0.0127,-0.30822 0.07539,-0.37092 0.15985,-0.15985 0.07643,0.191 0.06703,0.4192 -0.02087,0.50712 -0.08792,0.0879 -0.150453,-0.0683 -0.138965,-0.34727 z M 8.7647213,192.17433 c 0.038568,-0.26278 0.1579927,-0.45795 0.2653879,-0.43369 0.4018034,0.0907 0.4171468,0.28682 0.046513,0.59442 -0.3106775,0.25784 -0.3689284,0.22782 -0.3119009,-0.16073 z m 6.1163947,0.20195 c -0.08372,-0.13546 -0.05106,-0.30882 0.07258,-0.38523 0.123641,-0.0764 0.224802,0.0344 0.224802,0.2463 0,0.44613 -0.08343,0.48511 -0.297382,0.13893 z m 40.023467,0.0656 c 0.190994,-0.0764 0.419197,-0.067 0.507118,0.0209 0.08792,0.0879 -0.06835,0.15046 -0.347265,0.13897 -0.308227,-0.0127 -0.37092,-0.0754 -0.159853,-0.15986 z m -40.960808,-1.14217 c -0.238466,-0.15411 -0.2711,-0.2581 -0.08176,-0.26053 0.173313,-0.002 0.388699,0.11501 0.478635,0.26053 0.203017,0.32848 0.111423,0.32848 -0.396875,0 z m -1.852083,-0.38126 c 0,-0.22687 0.119063,-0.41249 0.264583,-0.41249 0.145521,0 0.264584,0.11203 0.264584,0.24897 0,0.13693 -0.119063,0.32255 -0.264584,0.41249 -0.14552,0.0899 -0.264583,-0.0221 -0.264583,-0.24897 z m 30.890104,-0.32314 c 0.181901,-0.0734 0.479557,-0.0734 0.661458,0 0.181901,0.0734 0.03307,0.13345 -0.330729,0.13345 -0.363802,0 -0.51263,-0.0601 -0.330729,-0.13345 z m -30.427083,-0.62676 c 0.327422,-0.13161 0.595312,-0.38203 0.595312,-0.5565 0,-0.17446 0.07834,-0.23886 0.174094,-0.14311 0.09575,0.0958 0.363642,0.0349 0.595312,-0.13514 0.231671,-0.17008 0.09899,0.01 -0.294837,0.39917 -0.393832,0.38962 -0.929613,0.70086 -1.190625,0.69163 -0.377447,-0.0133 -0.352737,-0.0657 0.120744,-0.25605 z m 37.752684,0.0689 c 0.09031,-0.0903 0.350253,-0.1915 0.577657,-0.22487 0.227401,-0.0334 0.339571,0.0132 0.249266,0.10351 -0.09031,0.0903 -0.350252,0.1915 -0.577657,0.22487 -0.227401,0.0334 -0.339571,-0.0132 -0.249266,-0.10351 z m 4.253672,-0.36827 c 0.111765,-0.29369 0.0071,-0.48133 -0.315053,-0.56462 -0.413729,-0.10697 -0.418722,-0.12911 -0.03504,-0.15543 0.590992,-0.0405 0.883264,0.4649 0.492824,0.85226 -0.236382,0.23451 -0.27032,0.20308 -0.142727,-0.13221 z m -46.4160784,-0.0659 c 0.2012799,-0.19885 2.6033374,-0.26432 2.7915664,-0.0761 0.101748,0.10175 -0.509535,0.185 -1.3584066,0.185 -0.8488714,0 -1.4937933,-0.049 -1.4331598,-0.10891 z m 6.8571184,-0.40464 c 0,-0.13694 0.117699,-0.32171 0.261553,-0.41062 0.149981,-0.0927 0.194338,0.0135 0.103984,0.24897 -0.175893,0.45837 -0.365537,0.54223 -0.365537,0.16165 z m -3.704167,-0.82498 c 0,-0.15411 -0.110835,-0.2117 -0.246301,-0.12798 -0.135466,0.0837 -0.314626,0.0417 -0.398135,-0.0934 -0.08351,-0.13512 0.05064,-0.21596 0.298104,-0.17964 0.408337,0.0599 0.864964,0.68126 0.500672,0.68126 -0.08489,0 -0.15434,-0.12609 -0.15434,-0.28019 z m 1.414218,-0.12809 c -0.08617,-0.22456 -0.09756,-0.46741 -0.0253,-0.53966 0.07226,-0.0723 0.194881,0.11147 0.272499,0.40828 0.164875,0.63049 -0.01831,0.72784 -0.247199,0.13138 z m -3.5953818,-0.0321 c 0.1828075,-0.0737 0.2537084,-0.26129 0.157557,-0.41686 -0.1033293,-0.1672 -0.049904,-0.20567 0.1306433,-0.0941 0.4616688,0.28532 0.3660394,0.68945 -0.1575572,0.66583 -0.2793334,-0.0126 -0.3311615,-0.074 -0.1306431,-0.15489 z m 8.6804668,-0.27583 c -0.143586,-0.37708 -0.113195,-0.40747 0.148112,-0.14811 0.180821,0.17947 0.262115,0.39297 0.180653,0.47443 -0.08146,0.0815 -0.229406,-0.0654 -0.328765,-0.32632 z m 30.87367,-0.47443 c 0.0029,-0.58208 0.05712,-0.78906 0.120406,-0.45994 0.06329,0.32912 0.06088,0.80537 -0.0053,1.05834 -0.06622,0.25296 -0.117999,-0.0163 -0.115062,-0.5984 z m -36.94779,0.24294 c -0.209708,-0.54649 -0.202753,-0.63982 0.04768,-0.63982 0.114554,0 0.226216,0.23813 0.24814,0.52917 0.04791,0.63602 -0.07638,0.68251 -0.29582,0.11065 z m 3.543567,-0.47513 c 0,-0.0549 0.208359,-0.2633 0.463021,-0.46302 0.419644,-0.32911 0.429002,-0.31975 0.0999,0.0999 -0.345644,0.44073 -0.562916,0.58088 -0.562916,0.36312 z m -3.37286,-1.35531 c 0.0029,-0.58208 0.05712,-0.78906 0.120406,-0.45994 0.06329,0.32912 0.06088,0.80537 -0.0053,1.05834 -0.06622,0.25296 -0.118003,-0.0163 -0.115067,-0.5984 z"
         id="path2561"
         inkscape:connector-curvature="0" />
    </g>
  </g>
</svg>
