<?xml version="1.0" encoding="UTF-8" standalone="no"?>
<!-- Created with Inkscape (http://www.inkscape.org/) -->

<svg
   xmlns:dc="http://purl.org/dc/elements/1.1/"
   xmlns:cc="http://creativecommons.org/ns#"
   xmlns:rdf="http://www.w3.org/1999/02/22-rdf-syntax-ns#"
   xmlns:svg="http://www.w3.org/2000/svg"
   xmlns="http://www.w3.org/2000/svg"
   xmlns:sodipodi="http://sodipodi.sourceforge.net/DTD/sodipodi-0.dtd"
   xmlns:inkscape="http://www.inkscape.org/namespaces/inkscape"
   version="1.1"
   id="svg2949"
   width="283"
   height="443"
   viewBox="0 0 283 443"
   sodipodi:docname="feu152.svg"
   inkscape:version="0.92.4 (5da689c313, 2019-01-14)">
  <metadata
     id="metadata2955">
    <rdf:RDF>
      <cc:Work
         rdf:about="">
        <dc:format>image/svg+xml</dc:format>
        <dc:type
           rdf:resource="http://purl.org/dc/dcmitype/StillImage" />
        <dc:title></dc:title>
      </cc:Work>
    </rdf:RDF>
  </metadata>
  <defs
     id="defs2953" />
  <sodipodi:namedview
     pagecolor="#ffffff"
     bordercolor="#666666"
     borderopacity="1"
     objecttolerance="10"
     gridtolerance="10"
     guidetolerance="10"
     inkscape:pageopacity="0"
     inkscape:pageshadow="2"
     inkscape:window-width="1280"
     inkscape:window-height="972"
     id="namedview2951"
     showgrid="false"
     inkscape:zoom="1.0654628"
     inkscape:cx="102.52736"
     inkscape:cy="224.72047"
     inkscape:window-x="-8"
     inkscape:window-y="-8"
     inkscape:window-maximized="1"
     inkscape:current-layer="g928"
     showguides="true" />
  <g
     id="g151"
     transform="translate(25.882805,-2.654647)">
    <g
       id="g534"
       transform="translate(-21.900834,-45.792654)">
      <g
         id="g928"
         transform="translate(-3.9819699,-1.3273232)">
        <g
           id="g1414"
           transform="translate(1.8771187,-21.586864)">
          <path
             style="fill:#ff0000"
             d="m 136.86078,415.92135 c -4.37752,-2.66898 -5.87877,-6.03958 -4.32192,-9.7035 1.64856,-3.87973 5.29085,-6.27805 9.80286,-6.45485 10.80907,-0.42354 13.76066,11.7718 3.92952,16.23594 -5.17844,2.35143 -5.42991,2.34936 -9.41046,-0.0776 z m 30.76117,-1.18175 c -7.67068,-2.78852 -7.85516,-12.83936 -0.30652,-16.69977 6.2141,-3.17792 13.51574,0.65943 13.51574,7.10315 0,6.40235 -7.33573,11.73181 -13.20922,9.59662 z m -58.04637,-0.4687 c -2.62654,-0.70895 -5.16771,-6.05495 -4.44414,-9.34936 0.85305,-3.88387 5.8288,-7.99875 9.67216,-7.99875 4.5976,0 8.56968,2.81179 9.27374,6.56477 1.45713,7.76714 -5.76908,13.14046 -14.50176,10.78334 z m 86.55559,-7.29347 c -3.05387,-1.24992 -5.17989,-4.18097 -5.882,-8.10925 -0.54178,-3.03129 -0.22917,-3.93232 2.12334,-6.12007 2.85576,-2.65575 9.77779,-4.41239 10.80944,-2.74316 0.32308,0.52275 0.94003,0.73254 1.371,0.46618 1.3774,-0.85128 4.05864,1.85367 4.90827,4.95166 1.29501,4.72203 6.4e-4,7.74859 -4.37336,10.22603 -4.22502,2.39305 -5.78913,2.62507 -8.95669,1.32861 z M 82.38115,403.84268 c -3.188198,-1.85696 -4.841419,-6.35913 -3.620829,-9.86052 2.091059,-5.99842 13.279854,-8.74239 16.985862,-4.16567 2.701429,3.33612 2.409219,8.32983 -0.703905,12.02957 -2.139278,2.54239 -3.311557,3.07145 -6.75,3.04632 -2.288608,-0.0167 -4.948616,-0.48909 -5.911128,-1.0497 z m -24.040692,-15.6965 c -3.418208,-2.1109 -4.338878,-5.28921 -2.687206,-9.27669 2.800134,-6.76013 10.935938,-9.12736 16.453358,-4.78736 2.412862,1.89796 2.679462,2.6545 2.202441,6.25 -1.035415,7.80433 -9.375612,11.88551 -15.968593,7.81405 z m 159.540712,-2.9536 c -3.41817,-3.47725 -3.90811,-4.74502 -2.23369,-5.77987 0.55897,-0.34546 0.80274,-0.97369 0.5417,-1.39605 -0.91817,-1.48563 2.48729,-4.95372 6.0039,-6.1143 6.03881,-1.99299 12.42263,1.91949 12.83431,7.86582 0.23471,3.39014 -0.77998,5.07863 -4.5107,7.50596 -3.9887,2.59519 -8.82073,1.79917 -12.63552,-2.08156 z M 41.131172,370.21113 c -2.731247,-0.65502 -6.504908,-5.13714 -6.477764,-7.69388 0.0268,-2.52438 2.49055,-5.71969 6.239445,-8.09211 5.289584,-3.34741 12.738319,0.12023 12.738319,5.93013 0,3.81422 -2.167251,7.08553 -6.011044,9.07323 -2.999565,1.55114 -3.189187,1.57401 -6.488956,0.78263 z m 198.841338,-3.40618 c -4.7428,-2.30164 -6.13164,-5.56 -4.27766,-10.0359 1.32787,-3.20576 2.42846,-3.61212 3.34116,-1.23364 0.48906,1.27445 0.91844,1.36397 2.04755,0.42689 0.7858,-0.65215 1.20503,-1.7687 0.93161,-2.4812 -0.7293,-1.90052 2.65003,-2.41489 6.22143,-0.94696 5.86998,2.4127 6.77969,10.36735 1.64733,14.40447 -3.11405,2.44951 -4.63062,2.42906 -9.91142,-0.13366 z m 6.65866,-11.38216 c 0,-0.825 -0.45,-1.5 -1,-1.5 -0.55,0 -1,0.675 -1,1.5 0,0.825 0.45,1.5 1,1.5 0.55,0 1,-0.675 1,-1.5 z M 23.64241,347.00694 c -3.519472,-0.94608 -7.15265,-6.63737 -6.359817,-9.9625 0.903579,-3.78961 1.238411,-4.17767 4.938538,-5.72368 6.82286,-2.85078 12.297469,-1.49817 14.390772,3.55551 2.875501,6.94207 -4.970737,14.28084 -12.969493,12.13067 z m 231.97345,-3.77513 c -0.012,-1.41785 -0.20406,-1.51102 -0.8882,-0.4309 -1.22833,1.93929 -3.30483,0.35367 -2.56978,-1.96228 0.33992,-1.07098 0.13736,-1.91584 -0.45932,-1.91584 -0.58707,0 -1.06739,0.5051 -1.06739,1.12244 0,0.77551 -0.46364,0.73766 -1.5,-0.12244 -0.825,-0.68469 -1.5,-2.2541 -1.5,-3.48759 0,-2.27537 3.53888,-7.63488 4.8075,-7.28079 0.38088,0.10631 1.62863,-0.32728 2.7728,-0.96353 2.3247,-1.29272 6.86046,0.42183 9.1697,3.46623 2.87395,3.78888 0.25816,10.88933 -4.25,11.53645 -1.1,0.1579 -2.5625,0.63813 -3.25,1.06718 -0.82563,0.51524 -1.2552,0.16592 -1.26531,-1.02893 z M 129.9153,323.2173 c -2.52743,-0.48438 -7.28413,-5.68898 -7.28413,-7.97003 0,-0.83713 1.39759,-2.8276 3.10576,-4.42327 3.78187,-3.5328 10.5188,-4.07854 13.23925,-1.07247 2.42097,2.67514 2.13477,8.64636 -0.53357,11.1323 -1.20371,1.12143 -2.51691,2.03896 -2.91821,2.03896 -0.40131,0 -1.32896,0.16182 -2.06144,0.35959 -0.73249,0.19777 -2.32893,0.16849 -3.54766,-0.0651 z M 12.381172,320.40024 c -2.6424721,-1.48106 -3.4664611,-4.27752 -2.7925721,-9.47745 0.360727,-2.78348 3.5461521,-4.97022 8.1616511,-5.60284 4.125503,-0.56547 4.926669,-0.32809 7.920225,2.34665 3.044439,2.72021 3.249454,3.25815 2.38733,6.2642 -1.773905,6.18525 -10.073046,9.61014 -15.676634,6.46944 z m 138.549278,-1.72745 c -1.12715,-1.2375 -2.58961,-3.2965 -3.24993,-4.57555 -1.07577,-2.08378 -0.83401,-2.68155 2.32547,-5.75 3.97753,-3.86292 8.09198,-4.47515 12.16036,-1.80944 1.9897,1.3037 2.46482,2.44713 2.46482,5.93191 0,3.62359 -0.46645,4.64903 -2.90437,6.38499 -3.83854,2.73328 -8.20819,2.65965 -10.79635,-0.18191 z m 108.70072,-1.75 c 0,-0.55 -0.64234,-1 -1.42742,-1 -0.78508,0 -2.34812,-1.17048 -3.47342,-2.60106 -1.85941,-2.36386 -1.91528,-2.85385 -0.61263,-5.3729 1.41919,-2.74441 3.44574,-3.83027 8.75441,-4.69078 1.98212,-0.32129 3.43556,0.25033 5.25,2.06477 3.2043,3.2043 3.2849,7.52248 0.19461,10.42566 -3.06551,2.87989 -3.83203,2.74194 -3.19862,-0.57569 l 0.52503,-2.75 -1.08931,2.75 c -1.03961,2.62452 -4.92265,4.00494 -4.92265,1.75 z M 107.85496,305.12648 c -1.28531,-0.98921 -2.52705,-3.29761 -2.85243,-5.30268 -0.50395,-3.10549 -0.17748,-3.88636 2.60293,-6.22593 3.63673,-3.0601 8.38823,-3.51031 11.8032,-1.11838 1.73152,1.21281 2.22251,2.54156 2.22251,6.0147 0,3.95639 -0.36568,4.68096 -3.25,6.43956 -3.9934,2.43483 -7.52888,2.49956 -10.52621,0.19273 z m 64.16433,0.81624 c -2.63295,-1.06383 -6.39926,-5.74874 -6.35485,-7.90479 0.12278,-5.96057 10.86476,-9.36592 16.21673,-5.14091 4.68379,3.69752 3.26844,10.07555 -2.79837,12.61043 -3.82592,1.59857 -4.13695,1.61774 -7.06351,0.43527 z M 12.631172,294.95417 c 0,-0.53273 -0.640207,-0.72294 -1.422681,-0.42268 -1.8081821,0.69387 -5.3329349,-2.78681 -6.1602911,-6.08326 -1.5580916,-6.20794 1.9186157,-9.65076 9.8670861,-9.77092 11.17636,-0.16896 13.957274,9.46909 4.411552,15.28948 -3.422497,2.08683 -6.695666,2.56951 -6.695666,0.98738 z M 262.0723,289.40831 c -1.09028,-0.85064 -1.33843,-1.39856 -0.56613,-1.25 0.75625,0.14546 1.60242,-0.36153 1.88038,-1.12665 0.38372,-1.05626 -0.12241,-1.23357 -2.10258,-0.73658 -2.23955,0.56209 -2.70381,0.27266 -3.28648,-2.04888 -0.45698,-1.82075 -0.0562,-3.86578 1.22758,-6.26342 2.57148,-4.80271 7.94823,-6.29991 12.9503,-3.60612 3.9441,2.12404 4.90588,4.33343 3.99652,9.18077 -1.11122,5.92329 -9.5294,9.41657 -14.09959,5.85088 z M 97.805482,282.60834 c -3.835213,-4.0824 -2.705117,-9.0191 2.569098,-11.22281 4.49997,-1.88021 6.26708,-1.80529 8.87757,0.37635 4.95207,4.13855 3.74751,10.40934 -2.32336,12.09518 -5.45312,1.5143 -6.68613,1.34554 -9.123308,-1.24872 z m 80.076528,-2.40868 c -1.23704,-0.98131 -2.70693,-3.35755 -3.26644,-5.28054 -0.88753,-3.05041 -0.74771,-3.71812 1.09632,-5.2353 3.69126,-3.03699 9.23651,-4.1966 12.53611,-2.62152 2.46628,1.17729 2.92608,2.03346 3.1799,5.92111 0.35774,5.47918 -1.45949,7.56925 -7.32285,8.4223 -2.95283,0.4296 -4.55178,0.11971 -6.22304,-1.20605 z M 9.6311719,266.75915 c -4.3601816,-1.19911 -6,-3.26561 -6,-7.56119 0,-4.42507 4.774291,-9.27517 9.1301861,-9.27517 3.940213,0 8.801221,2.87852 9.489061,5.6191 1.974228,7.86595 -4.353311,13.4905 -12.6192471,11.21726 z M 264.33225,261.82674 c -1.21059,-1.01058 -1.63858,-1.85238 -0.95108,-1.87068 1.48591,-0.0395 1.68483,-3.6465 0.25,-4.53327 -0.55,-0.33992 -1,0.0835 -1,0.94098 0,0.87655 -0.84968,1.55902 -1.94098,1.55902 -2.25125,0 -3.56118,-1.57161 -2.07533,-2.48992 0.55897,-0.34546 1.0232,-0.0391 1.03162,0.6809 0.0111,0.95021 0.27896,0.89786 0.97717,-0.19098 0.52903,-0.825 0.72551,-2.26009 0.43663,-3.1891 -0.69553,-2.23677 2.00651,-3.5759 7.33874,-3.63707 3.33516,-0.0383 4.56901,0.42911 5.64588,2.1386 2.83145,4.49485 2.85941,6.52993 0.12456,9.0645 -3.50647,3.24969 -7.10452,3.80821 -9.83721,1.52702 z m -159.66212,-2.09251 c -3.504,-3.7611 -2.31252,-9.00755 2.6453,-11.6481 3.61151,-1.9235 6.99654,-1.3846 9.24316,1.47152 2.70362,3.4371 2.61799,6.22813 -0.29499,9.61514 -3.043,3.53818 -8.57082,3.80588 -11.59347,0.56144 z m 62.03777,-3.40033 c -4.24473,-3.57171 -3.73277,-9.27129 1.10412,-12.29198 2.6388,-1.64796 9.64759,-2.28132 11.9008,-1.07543 4.05106,2.16806 2.72477,12.38398 -1.93125,14.87581 -3.43593,1.83885 -7.80257,1.24405 -11.07367,-1.5084 z m -39.41006,-7.07778 c -0.36667,-0.36666 -0.66667,-1.49166 -0.66667,-2.5 0,-2.33627 -1.73713,-2.40174 -2.21116,-0.0833 -0.2969,1.4521 -0.66396,1.2902 -2.15625,-0.95104 -2.0776,-3.12028 -1.60694,-5.45558 1.85166,-9.18747 3.1697,-3.42016 7.73324,-3.48491 11.0612,-0.15694 1.35807,1.35806 2.45455,3.626 2.45455,5.07692 0,4.6373 -7.69102,10.44417 -10.33333,7.80186 z m 20.33333,-7.04277 c -3.34365,-1.22943 -5,-3.67188 -5,-7.37297 0,-4.83957 3.55124,-7.91759 9.13486,-7.91759 5.16134,0 7.86514,2.72521 7.86514,7.92742 0,6.04212 -5.84267,9.62715 -12,7.36314 z m 109,-4.79056 c -0.68469,-0.825 -1.81664,-1.5 -2.51546,-1.5 -3.05303,0 -3.41127,-8.62815 -0.48849,-11.76538 2.79246,-2.99736 8.01693,-3.79639 11.85282,-1.81277 3.87708,2.00491 5.11559,4.26939 4.42402,8.08879 -0.69103,3.81641 -2.03057,5.48936 -4.39533,5.48936 -1.03266,0 -1.87756,0.675 -1.87756,1.5 0,0.98582 -0.9864,1.5 -2.87756,1.5 -1.58265,0 -3.43775,-0.675 -4.12244,-1.5 z M 15.382301,235.94167 c -3.470599,-2.72998 -4.113209,-7.74532 -1.357134,-10.59196 4.846358,-5.00562 15.463922,-2.77172 15.724488,3.30838 0.1958,4.56885 -0.168299,5.68536 -2.443332,7.49246 -2.952819,2.34548 -8.807048,2.24293 -11.924022,-0.20888 z M 243.20189,214.19894 c -2.33806,-0.59606 -4.58247,-2.74491 -6.27556,-6.00834 -1.03883,-2.00235 -1.00095,-2.93606 0.21447,-5.28643 1.74321,-3.371 2.62895,-3.99772 7.06346,-4.99786 2.19895,-0.49595 3.49611,-0.36569 3.80311,0.38191 0.30739,0.74856 0.49277,0.69732 0.54485,-0.15061 0.0624,-1.01636 0.54959,-1.03734 2.32895,-0.1003 3.15786,1.66298 3.71724,2.79898 3.73469,7.58459 0.0131,3.59523 -0.46565,4.56595 -3.32908,6.75 -3.32079,2.53289 -4.37857,2.77193 -8.08489,1.82704 z M 27.319343,211.05523 c -1.203494,-0.80809 -2.335934,-1.57873 -2.516534,-1.71254 -0.687009,-0.50902 -0.863368,-5.4199 -0.194639,-5.4199 0.386085,0 1.200364,-1.09385 1.809511,-2.43078 1.423098,-3.12336 8.570312,-4.46265 12.869763,-2.41161 4.042592,1.92851 4.426746,7.25509 0.802593,11.12853 -2.120117,2.26595 -3.351395,2.74222 -6.594678,2.55085 -2.193314,-0.12942 -4.972521,-0.89646 -6.176016,-1.70455 z M 223.46755,194.21487 c -1.83073,-0.2806 -3.15967,-1.4536 -4.25,-3.7513 -2.22468,-4.68815 -2.00383,-6.27718 1.3367,-9.6177 2.22137,-2.22137 3.84176,-2.91954 6.75,-2.90834 6.26045,0.0241 8.80612,1.87732 8.95039,6.51573 0.14307,4.60005 -1.07035,7.46953 -3.15865,7.46953 -0.80565,0 -1.46482,0.675 -1.46482,1.5 0,1.50346 -2.15689,1.71274 -8.16362,0.79208 z m 10.16362,-8.29208 c 0,-0.55 -0.45,-1 -1,-1 -0.55,0 -1,0.45 -1,1 0,0.55 0.45,1 1,1 0.55,0 1,-0.45 1,-1 z m -187.758421,6.0772 c -3.460068,-2.92844 -3.90235,-7.19904 -1.083947,-10.4664 2.824605,-3.27456 8.711264,-4.85915 11.986111,-3.22646 4.267316,2.12749 5.02138,11.40861 1.094452,13.47067 -0.956006,0.502 -3.538193,1.18743 -5.738193,1.52317 -3.099545,0.47302 -4.508402,0.18015 -6.258423,-1.30098 z m 24.008423,-17.42281 c -1.524705,-1.50758 -2.25,-3.41394 -2.25,-5.91388 0,-3.07384 0.492082,-3.94362 2.95034,-5.21483 9.392772,-4.85719 17.567622,2.17325 11.609722,9.98446 -2.219876,2.91041 -3.276038,3.47982 -6.360953,3.42942 -2.423182,-0.0396 -4.475198,-0.82782 -5.949109,-2.28517 z m 132.770558,1.24075 c -4.0681,-1.64146 -6.02056,-4.0178 -6.02056,-7.32762 0,-3.68911 2.65388,-7.91432 4.521,-7.19784 0.72241,0.27722 1.5616,-0.14255 1.86486,-0.93282 1.27012,-3.3099 11.87544,-0.33966 13.15237,3.6836 2.28829,7.20975 -6.29712,14.68815 -13.51767,11.77468 z M 96.059108,165.46068 c -7.511598,-3.15839 -8.012363,-11.60908 -0.888249,-14.9897 10.462011,-4.96455 19.009911,4.71075 11.722991,13.26917 -2.19615,2.57937 -6.983968,3.33966 -10.834742,1.72053 z m 78.434342,-1.79783 c -1.78254,-0.70766 -2.99833,-2.25079 -3.75,-4.75963 -1.60198,-5.34694 -1.42958,-6.30226 1.6739,-9.27557 6.93842,-6.64744 18.21382,-3.29961 18.21382,5.40793 0,3.16495 -1.64932,5.48275 -5.53132,7.77319 -3.87004,2.28338 -6.47731,2.49333 -10.6064,0.85408 z m -57.81039,-8.53433 c -1.67854,-1.67853 -3.08845,-3.649 -3.13313,-4.37881 -0.0447,-0.7298 -0.16859,-2.48546 -0.27534,-3.90145 -0.15984,-2.12013 0.51636,-2.88947 3.83124,-4.35896 2.21394,-0.98144 4.65711,-2.09467 5.42926,-2.47385 1.98035,-0.97249 9.11581,2.78646 10.04196,5.29009 0.77858,2.1047 -1.35559,10.1344 -2.95656,11.12385 -0.4529,0.27991 -2.86243,0.7884 -5.3545,1.12998 -4.11762,0.56438 -4.8095,0.34258 -7.58293,-2.43085 z m 30.92062,1.14797 c -3.87688,-2.5814 -4.97251,-4.44815 -4.97251,-8.47225 0,-10.01841 17.77147,-11.94702 19.61343,-2.1285 0.83712,4.46222 -1.17931,8.11569 -5.76706,10.44902 -4.25441,2.16379 -5.81203,2.19043 -8.87386,0.15173 z"
             id="path1418"
             inkscape:connector-curvature="0" />
          <path
             style="fill:#ffff00"
             d="m 136.86078,415.92135 c -4.37752,-2.66898 -5.87877,-6.03958 -4.32192,-9.7035 1.64856,-3.87973 5.29085,-6.27805 9.80286,-6.45485 10.80907,-0.42354 13.76066,11.7718 3.92952,16.23594 -5.17844,2.35143 -5.42991,2.34936 -9.41046,-0.0776 z m 30.76117,-1.18175 c -7.67068,-2.78852 -7.85516,-12.83936 -0.30652,-16.69977 6.2141,-3.17792 13.51574,0.65943 13.51574,7.10315 0,6.40235 -7.33573,11.73181 -13.20922,9.59662 z m -58.04637,-0.4687 c -2.62654,-0.70895 -5.16771,-6.05495 -4.44414,-9.34936 0.85305,-3.88387 5.8288,-7.99875 9.67216,-7.99875 4.5976,0 8.56968,2.81179 9.27374,6.56477 1.45713,7.76714 -5.76908,13.14046 -14.50176,10.78334 z m 86.55559,-7.29347 c -3.05387,-1.24992 -5.17989,-4.18097 -5.882,-8.10925 -0.54178,-3.03129 -0.22917,-3.93232 2.12334,-6.12007 2.85576,-2.65575 9.77779,-4.41239 10.80944,-2.74316 0.32308,0.52275 0.94003,0.73254 1.371,0.46618 1.3774,-0.85128 4.05864,1.85367 4.90827,4.95166 1.29501,4.72203 6.4e-4,7.74859 -4.37336,10.22603 -4.22502,2.39305 -5.78913,2.62507 -8.95669,1.32861 z M 82.38115,403.84268 c -3.188198,-1.85696 -4.841419,-6.35913 -3.620829,-9.86052 2.091059,-5.99842 13.279854,-8.74239 16.985862,-4.16567 2.701429,3.33612 2.409219,8.32983 -0.703905,12.02957 -2.139278,2.54239 -3.311557,3.07145 -6.75,3.04632 -2.288608,-0.0167 -4.948616,-0.48909 -5.911128,-1.0497 z m -24.040692,-15.6965 c -3.418208,-2.1109 -4.338878,-5.28921 -2.687206,-9.27669 2.800134,-6.76013 10.935938,-9.12736 16.453358,-4.78736 2.412862,1.89796 2.679462,2.6545 2.202441,6.25 -1.035415,7.80433 -9.375612,11.88551 -15.968593,7.81405 z m 159.540712,-2.9536 c -3.41817,-3.47725 -3.90811,-4.74502 -2.23369,-5.77987 0.55897,-0.34546 0.80274,-0.97369 0.5417,-1.39605 -0.91817,-1.48563 2.48729,-4.95372 6.0039,-6.1143 6.03881,-1.99299 12.42263,1.91949 12.83431,7.86582 0.23471,3.39014 -0.77998,5.07863 -4.5107,7.50596 -3.9887,2.59519 -8.82073,1.79917 -12.63552,-2.08156 z M 41.131172,370.21113 c -2.731247,-0.65502 -6.504908,-5.13714 -6.477764,-7.69388 0.0268,-2.52438 2.49055,-5.71969 6.239445,-8.09211 5.289584,-3.34741 12.738319,0.12023 12.738319,5.93013 0,3.81422 -2.167251,7.08553 -6.011044,9.07323 -2.999565,1.55114 -3.189187,1.57401 -6.488956,0.78263 z m 198.841338,-3.40618 c -4.7428,-2.30164 -6.13164,-5.56 -4.27766,-10.0359 1.32787,-3.20576 2.42846,-3.61212 3.34116,-1.23364 0.48906,1.27445 0.91844,1.36397 2.04755,0.42689 0.7858,-0.65215 1.20503,-1.7687 0.93161,-2.4812 -0.7293,-1.90052 2.65003,-2.41489 6.22143,-0.94696 5.86998,2.4127 6.77969,10.36735 1.64733,14.40447 -3.11405,2.44951 -4.63062,2.42906 -9.91142,-0.13366 z m 6.65866,-11.38216 c 0,-0.825 -0.45,-1.5 -1,-1.5 -0.55,0 -1,0.675 -1,1.5 0,0.825 0.45,1.5 1,1.5 0.55,0 1,-0.675 1,-1.5 z M 23.64241,347.00694 c -3.519472,-0.94608 -7.15265,-6.63737 -6.359817,-9.9625 0.903579,-3.78961 1.238411,-4.17767 4.938538,-5.72368 6.82286,-2.85078 12.297469,-1.49817 14.390772,3.55551 2.875501,6.94207 -4.970737,14.28084 -12.969493,12.13067 z m 231.97345,-3.77513 c -0.012,-1.41785 -0.20406,-1.51102 -0.8882,-0.4309 -1.22833,1.93929 -3.30483,0.35367 -2.56978,-1.96228 0.33992,-1.07098 0.13736,-1.91584 -0.45932,-1.91584 -0.58707,0 -1.06739,0.5051 -1.06739,1.12244 0,0.77551 -0.46364,0.73766 -1.5,-0.12244 -0.825,-0.68469 -1.5,-2.2541 -1.5,-3.48759 0,-2.27537 3.53888,-7.63488 4.8075,-7.28079 0.38088,0.10631 1.62863,-0.32728 2.7728,-0.96353 2.3247,-1.29272 6.86046,0.42183 9.1697,3.46623 2.87395,3.78888 0.25816,10.88933 -4.25,11.53645 -1.1,0.1579 -2.5625,0.63813 -3.25,1.06718 -0.82563,0.51524 -1.2552,0.16592 -1.26531,-1.02893 z M 12.381172,320.40024 c -2.6424721,-1.48106 -3.4664611,-4.27752 -2.7925721,-9.47745 0.360727,-2.78348 3.5461521,-4.97022 8.1616511,-5.60284 4.125503,-0.56547 4.926669,-0.32809 7.920225,2.34665 3.044439,2.72021 3.249454,3.25815 2.38733,6.2642 -1.773905,6.18525 -10.073046,9.61014 -15.676634,6.46944 z m 247.249998,-3.47745 c 0,-0.55 -0.64234,-1 -1.42742,-1 -0.78508,0 -2.34812,-1.17048 -3.47342,-2.60106 -1.85941,-2.36386 -1.91528,-2.85385 -0.61263,-5.3729 1.41919,-2.74441 3.44574,-3.83027 8.75441,-4.69078 1.98212,-0.32129 3.43556,0.25033 5.25,2.06477 3.2043,3.2043 3.2849,7.52248 0.19461,10.42566 -3.06551,2.87989 -3.83203,2.74194 -3.19862,-0.57569 l 0.52503,-2.75 -1.08931,2.75 c -1.03961,2.62452 -4.92265,4.00494 -4.92265,1.75 z M 12.631172,294.95417 c 0,-0.53273 -0.640207,-0.72294 -1.422681,-0.42268 -1.8081821,0.69387 -5.3329349,-2.78681 -6.1602911,-6.08326 -1.5580916,-6.20794 1.9186157,-9.65076 9.8670861,-9.77092 11.17636,-0.16896 13.957274,9.46909 4.411552,15.28948 -3.422497,2.08683 -6.695666,2.56951 -6.695666,0.98738 z M 262.0723,289.40831 c -1.09028,-0.85064 -1.33843,-1.39856 -0.56613,-1.25 0.75625,0.14546 1.60242,-0.36153 1.88038,-1.12665 0.38372,-1.05626 -0.12241,-1.23357 -2.10258,-0.73658 -2.23955,0.56209 -2.70381,0.27266 -3.28648,-2.04888 -0.45698,-1.82075 -0.0562,-3.86578 1.22758,-6.26342 2.57148,-4.80271 7.94823,-6.29991 12.9503,-3.60612 3.9441,2.12404 4.90588,4.33343 3.99652,9.18077 -1.11122,5.92329 -9.5294,9.41657 -14.09959,5.85088 z M 9.6311719,266.75915 c -4.3601816,-1.19911 -6,-3.26561 -6,-7.56119 0,-4.42507 4.774291,-9.27517 9.1301861,-9.27517 3.940213,0 8.801221,2.87852 9.489061,5.6191 1.974228,7.86595 -4.353311,13.4905 -12.6192471,11.21726 z M 264.33225,261.82674 c -1.21059,-1.01058 -1.63858,-1.85238 -0.95108,-1.87068 1.48591,-0.0395 1.68483,-3.6465 0.25,-4.53327 -0.55,-0.33992 -1,0.0835 -1,0.94098 0,0.87655 -0.84968,1.55902 -1.94098,1.55902 -2.25125,0 -3.56118,-1.57161 -2.07533,-2.48992 0.55897,-0.34546 1.0232,-0.0391 1.03162,0.6809 0.0111,0.95021 0.27896,0.89786 0.97717,-0.19098 0.52903,-0.825 0.72551,-2.26009 0.43663,-3.1891 -0.69553,-2.23677 2.00651,-3.5759 7.33874,-3.63707 3.33516,-0.0383 4.56901,0.42911 5.64588,2.1386 2.83145,4.49485 2.85941,6.52993 0.12456,9.0645 -3.50647,3.24969 -7.10452,3.80821 -9.83721,1.52702 z m -7.70108,-24.40395 c -0.68469,-0.825 -1.81664,-1.5 -2.51546,-1.5 -3.05303,0 -3.41127,-8.62815 -0.48849,-11.76538 2.79246,-2.99736 8.01693,-3.79639 11.85282,-1.81277 3.87708,2.00491 5.11559,4.26939 4.42402,8.08879 -0.69103,3.81641 -2.03057,5.48936 -4.39533,5.48936 -1.03266,0 -1.87756,0.675 -1.87756,1.5 0,0.98582 -0.9864,1.5 -2.87756,1.5 -1.58265,0 -3.43775,-0.675 -4.12244,-1.5 z M 15.382301,235.94167 c -3.470599,-2.72998 -4.113209,-7.74532 -1.357134,-10.59196 4.846358,-5.00562 15.463922,-2.77172 15.724488,3.30838 0.1958,4.56885 -0.168299,5.68536 -2.443332,7.49246 -2.952819,2.34548 -8.807048,2.24293 -11.924022,-0.20888 z M 243.20189,214.19894 c -2.33806,-0.59606 -4.58247,-2.74491 -6.27556,-6.00834 -1.03883,-2.00235 -1.00095,-2.93606 0.21447,-5.28643 1.74321,-3.371 2.62895,-3.99772 7.06346,-4.99786 2.19895,-0.49595 3.49611,-0.36569 3.80311,0.38191 0.30739,0.74856 0.49277,0.69732 0.54485,-0.15061 0.0624,-1.01636 0.54959,-1.03734 2.32895,-0.1003 3.15786,1.66298 3.71724,2.79898 3.73469,7.58459 0.0131,3.59523 -0.46565,4.56595 -3.32908,6.75 -3.32079,2.53289 -4.37857,2.77193 -8.08489,1.82704 z M 27.319343,211.05523 c -1.203494,-0.80809 -2.335934,-1.57873 -2.516534,-1.71254 -0.687009,-0.50902 -0.863368,-5.4199 -0.194639,-5.4199 0.386085,0 1.200364,-1.09385 1.809511,-2.43078 1.423098,-3.12336 8.570312,-4.46265 12.869763,-2.41161 4.042592,1.92851 4.426746,7.25509 0.802593,11.12853 -2.120117,2.26595 -3.351395,2.74222 -6.594678,2.55085 -2.193314,-0.12942 -4.972521,-0.89646 -6.176016,-1.70455 z M 223.46755,194.21487 c -1.83073,-0.2806 -3.15967,-1.4536 -4.25,-3.7513 -2.22468,-4.68815 -2.00383,-6.27718 1.3367,-9.6177 2.22137,-2.22137 3.84176,-2.91954 6.75,-2.90834 6.26045,0.0241 8.80612,1.87732 8.95039,6.51573 0.14307,4.60005 -1.07035,7.46953 -3.15865,7.46953 -0.80565,0 -1.46482,0.675 -1.46482,1.5 0,1.50346 -2.15689,1.71274 -8.16362,0.79208 z m 10.16362,-8.29208 c 0,-0.55 -0.45,-1 -1,-1 -0.55,0 -1,0.45 -1,1 0,0.55 0.45,1 1,1 0.55,0 1,-0.45 1,-1 z m -187.758421,6.0772 c -3.460068,-2.92844 -3.90235,-7.19904 -1.083947,-10.4664 2.824605,-3.27456 8.711264,-4.85915 11.986111,-3.22646 4.267316,2.12749 5.02138,11.40861 1.094452,13.47067 -0.956006,0.502 -3.538193,1.18743 -5.738193,1.52317 -3.099545,0.47302 -4.508402,0.18015 -6.258423,-1.30098 z m 24.008423,-17.42281 c -1.524705,-1.50758 -2.25,-3.41394 -2.25,-5.91388 0,-3.07384 0.492082,-3.94362 2.95034,-5.21483 9.392772,-4.85719 17.567622,2.17325 11.609722,9.98446 -2.219876,2.91041 -3.276038,3.47982 -6.360953,3.42942 -2.423182,-0.0396 -4.475198,-0.82782 -5.949109,-2.28517 z m 132.770558,1.24075 c -4.0681,-1.64146 -6.02056,-4.0178 -6.02056,-7.32762 0,-3.68911 2.65388,-7.91432 4.521,-7.19784 0.72241,0.27722 1.5616,-0.14255 1.86486,-0.93282 1.27012,-3.3099 11.87544,-0.33966 13.15237,3.6836 2.28829,7.20975 -6.29712,14.68815 -13.51767,11.77468 z M 96.059108,165.46068 c -7.511598,-3.15839 -8.012363,-11.60908 -0.888249,-14.9897 10.462011,-4.96455 19.009911,4.71075 11.722991,13.26917 -2.19615,2.57937 -6.983968,3.33966 -10.834742,1.72053 z m 78.434342,-1.79783 c -1.78254,-0.70766 -2.99833,-2.25079 -3.75,-4.75963 -1.60198,-5.34694 -1.42958,-6.30226 1.6739,-9.27557 6.93842,-6.64744 18.21382,-3.29961 18.21382,5.40793 0,3.16495 -1.64932,5.48275 -5.53132,7.77319 -3.87004,2.28338 -6.47731,2.49333 -10.6064,0.85408 z m -57.81039,-8.53433 c -1.67854,-1.67853 -3.08845,-3.649 -3.13313,-4.37881 -0.0447,-0.7298 -0.16859,-2.48546 -0.27534,-3.90145 -0.15984,-2.12013 0.51636,-2.88947 3.83124,-4.35896 2.21394,-0.98144 4.65711,-2.09467 5.42926,-2.47385 1.98035,-0.97249 9.11581,2.78646 10.04196,5.29009 0.77858,2.1047 -1.35559,10.1344 -2.95656,11.12385 -0.4529,0.27991 -2.86243,0.7884 -5.3545,1.12998 -4.11762,0.56438 -4.8095,0.34258 -7.58293,-2.43085 z m 30.92062,1.14797 c -3.87688,-2.5814 -4.97251,-4.44815 -4.97251,-8.47225 0,-10.01841 17.77147,-11.94702 19.61343,-2.1285 0.83712,4.46222 -1.17931,8.11569 -5.76706,10.44902 -4.25441,2.16379 -5.81203,2.19043 -8.87386,0.15173 z"
             id="path1416"
             inkscape:connector-curvature="0" />
        </g>
      </g>
    </g>
  </g>
</svg>
