<?xml version="1.0" encoding="UTF-8" standalone="no"?>
<!-- Created with Inkscape (http://www.inkscape.org/) -->

<svg
   xmlns:dc="http://purl.org/dc/elements/1.1/"
   xmlns:cc="http://creativecommons.org/ns#"
   xmlns:rdf="http://www.w3.org/1999/02/22-rdf-syntax-ns#"
   xmlns:svg="http://www.w3.org/2000/svg"
   xmlns="http://www.w3.org/2000/svg"
   xmlns:sodipodi="http://sodipodi.sourceforge.net/DTD/sodipodi-0.dtd"
   xmlns:inkscape="http://www.inkscape.org/namespaces/inkscape"
   version="1.1"
   id="svg2949"
   width="283"
   height="443"
   viewBox="0 0 283 443"
   sodipodi:docname="feu138.svg"
   inkscape:version="0.92.4 (5da689c313, 2019-01-14)">
  <metadata
     id="metadata2955">
    <rdf:RDF>
      <cc:Work
         rdf:about="">
        <dc:format>image/svg+xml</dc:format>
        <dc:type
           rdf:resource="http://purl.org/dc/dcmitype/StillImage" />
        <dc:title></dc:title>
      </cc:Work>
    </rdf:RDF>
  </metadata>
  <defs
     id="defs2953" />
  <sodipodi:namedview
     pagecolor="#ffffff"
     bordercolor="#666666"
     borderopacity="1"
     objecttolerance="10"
     gridtolerance="10"
     guidetolerance="10"
     inkscape:pageopacity="0"
     inkscape:pageshadow="2"
     inkscape:window-width="1280"
     inkscape:window-height="972"
     id="namedview2951"
     showgrid="false"
     inkscape:zoom="1.5067919"
     inkscape:cx="144.21902"
     inkscape:cy="238.12413"
     inkscape:window-x="-8"
     inkscape:window-y="-8"
     inkscape:window-maximized="1"
     inkscape:current-layer="g928"
     showguides="true" />
  <g
     id="g151"
     transform="translate(25.882805,-2.654647)">
    <g
       id="g534"
       transform="translate(-21.900834,-45.792654)">
      <g
         id="g928"
         transform="translate(-3.9819699,-1.3273232)">
        <g
           id="g1138"
           transform="translate(-4,-10.618587)">
          <path
             style="fill:#ffff00"
             d="m 151.22804,366.06493 c -3.37904,-0.71151 -3.76371,-1.80297 -3.66788,-10.40727 0.16481,-14.79766 1.7497,-24.57124 3.67267,-22.64827 0.97935,0.97935 3.42874,19.73402 3.4635,26.51952 0.0336,6.56911 -0.30252,7.20262 -3.46829,6.53602 z m -26.90573,-3.12284 c -2.18646,-2.416 -2.09888,-3.01706 2.37842,-16.32252 4.56631,-13.57002 7.22796,-19.21237 7.79978,-16.53451 0.64873,3.03807 -1.58963,25.08464 -2.9594,29.14837 -1.58044,4.68869 -4.82389,6.35502 -7.2188,3.70866 z m 45.43994,-2.87537 c -2.03153,-1.64504 -2.22825,-2.89167 -2.76143,-17.5 -0.73779,-20.2143 0.2448,-20.62512 5.2811,-2.20806 3.98841,14.58502 4.53275,19.36254 2.33988,20.53613 -2.3069,1.23461 -2.31367,1.23346 -4.85955,-0.82807 z m -66.71457,-2.42823 c -2.18264,-2.81285 -2.23406,-5.05093 -0.20929,-9.10841 4.41179,-8.84085 13.25276,-23.58577 13.9015,-23.18483 0.37364,0.23093 -0.13758,4.59874 -1.13604,9.70627 -0.99846,5.10753 -1.83638,10.63641 -1.86205,12.28641 -0.0716,4.60476 -4.06671,10.94163 -7.12445,11.30056 -1.40828,0.1653 -3.01463,-0.2847 -3.56967,-1 z m 86.2333,-6.7149 c -1.52466,-2.46694 -7.55294,-26.04672 -7.55294,-29.5435 0,-3.32592 9.76791,12.34033 14.45577,23.18486 1.48987,3.44655 1.59388,4.50823 0.5633,5.75 -1.37682,1.65897 -6.55605,2.08118 -7.46613,0.60864 z M 78.394702,348.17126 c -2.660375,-2.66037 0.665684,-8.12576 12.678491,-20.83333 l 7.562615,-8 -2.78889,8 c -3.518419,10.09267 -5.103063,13.07796 -9.422024,17.75 -3.204912,3.46692 -6.414304,4.69922 -8.030192,3.08333 z m 130.003588,-6.52697 c -3.34412,-4.39199 -12.67025,-23.11208 -12.67025,-25.43265 0,-2.48549 17.47885,14.83675 20.13345,19.95306 2.77576,5.3498 2.1969,8.09263 -1.78957,8.47959 -2.57965,0.2504 -3.61596,-0.29756 -5.67363,-3 z m -48.05648,0.008 c -2.48375,-3.79068 -5.08321,-40.72959 -2.69271,-38.26398 0.76614,0.79021 3.11174,15.41257 5.45189,33.98681 0.69219,5.49398 -0.62452,7.53508 -2.75918,4.27717 z m -20.13873,0.14563 c -0.68875,-1.11441 0.8382,-18.03273 2.64782,-29.33753 0.7385,-4.61338 1.38835,-6.42424 1.97375,-5.5 1.22817,1.93903 1.10901,27.59734 -0.14919,32.12792 -1.00073,3.60345 -3.12467,4.89025 -4.47238,2.70961 z m -19.12741,-2.49608 c -1.07541,-2.80248 7.7729,-30.67633 9.26446,-29.18478 0.25553,0.25554 -0.17841,4.68486 -0.96431,9.84293 -2.30985,15.16001 -6.31942,24.50353 -8.30015,19.34185 z m 56.8721,0.69343 c -2.05931,-1.30676 -8.2926,-22.99088 -8.81261,-30.65696 l -0.47483,-7 4.59735,12.5 c 8.24472,22.41706 9.30101,28.08288 4.69009,25.15696 z m -76.21973,-6.76078 c 0,-2.52209 11.46395,-22.19953 16.17498,-27.76376 1.76038,-2.07919 1.77037,-2.02865 0.39745,2.01035 -0.77457,2.27874 -3.04238,7.45374 -5.03957,11.5 -1.99719,4.04627 -4.62162,9.38007 -5.83206,11.8529 -2.6073,5.32649 -5.7008,6.62911 -5.7008,2.40051 z m -42.318656,-0.214 c -2.27587,-2.54174 -0.233502,-6.12129 6.818651,-11.95069 5.699332,-4.71115 16.751213,-12.23187 17.975016,-12.23187 0.980972,0 -2.632812,5.17007 -9.750888,13.95014 -8.991264,11.09063 -12.274576,13.32401 -15.042779,10.23242 z m 134.546646,-2.72735 c -1.24961,-0.8797 -3.67055,-4.36994 -5.37987,-7.75609 -2.79846,-5.54371 -9.84812,-21.63417 -9.84812,-22.47778 0,-2.47405 9.40086,11.47162 14.50244,21.5136 4.17695,8.22194 4.43573,11.33218 0.72555,8.72027 z m 31.64418,-1.70521 c -5.66758,-4.69143 -19.43897,-23.75 -17.16132,-23.75 1.38103,0 15.39294,9.42441 18.88976,12.70525 4.60086,4.3167 6.66302,7.88876 5.91493,10.24579 -0.74904,2.36001 -5.19596,2.82484 -7.64337,0.79896 z M 84.12139,322.42061 c -0.299131,-0.77952 0.05249,-2.54172 0.781385,-3.916 1.148892,-2.16616 13.533175,-14.18815 20.774425,-20.16668 l 2.42242,-2 -2.3518,4 c -2.63495,4.4816 -12.105841,17.22179 -15.626324,21.02046 -2.5567,2.75872 -5.171465,3.22163 -6.000106,1.06222 z m 33.60665,-2.56489 c 0,-2.48293 6.76123,-17.5899 7.5289,-16.82222 0.77159,0.77159 -1.55147,10.82831 -3.40309,14.73228 -1.92591,4.06057 -4.12581,5.17494 -4.12581,2.08994 z m 16.01714,0.73221 c 0.0261,-1.90159 3.74944,-15.84991 4.40633,-16.5068 0.77096,-0.77096 0.74284,14.15982 -0.0305,16.17501 -0.71655,1.86729 -4.40075,2.14664 -4.37587,0.33179 z m 15.83659,-1.17167 c -0.71285,-1.56455 -0.85203,-5.10397 -0.39324,-10 0.74245,-7.92302 2.07971,-9.87033 2.97236,-4.32833 1.48727,9.23362 2.18945,15.79437 1.73867,16.24514 -1.22908,1.22909 -3.30414,0.3079 -4.31779,-1.91681 z m 15.39035,0.20497 c -1.49148,-1.81236 -3.47135,-12.61828 -3.07579,-16.78729 0.29769,-3.1375 0.61024,-2.62434 3.04778,5.00399 1.49383,4.675 2.84383,9.35332 3,10.39626 0.34391,2.29682 -1.51091,3.16247 -2.97199,1.38704 z m 42.75592,-0.27513 c -1.375,-0.77647 -4.2187,-3.57095 -6.31934,-6.20996 -6.14461,-7.71943 -17.65361,-24.29821 -16.86783,-24.29821 0.94027,0 19.29561,18.70333 24.30711,24.76793 5.4537,6.59973 4.95237,9.16928 -1.11994,5.74024 z M 44.978035,316.17565 c -1.911836,-0.77144 -1.487486,-5.10023 0.715979,-7.3037 1.081288,-1.08129 3.768686,-3.10398 5.971995,-4.49486 4.847525,-3.06011 22.062026,-10.58358 22.062026,-9.64205 0,2.70372 -24.680915,22.6877 -27.20034,22.02394 -0.164813,-0.0434 -0.86216,-0.30592 -1.54966,-0.58333 z M 177.8701,314.5091 c -1.51068,-1.82026 -6.33843,-14.80813 -5.73039,-15.41618 0.86286,-0.86286 8.56896,12.15757 8.57883,14.49501 0.0107,2.52559 -1.19366,2.91506 -2.84844,0.92117 z m 66.22011,-1.42297 c -4.00213,-0.67001 -24.68863,-19.25508 -23.14757,-20.79613 0.69233,-0.69234 18.53207,8.24173 23.31262,11.67486 6.51233,4.6768 6.41198,10.22236 -0.16505,9.12127 z M 70.256724,311.88435 c -1.428853,-2.31193 0.970136,-5.11769 12.094693,-14.14546 16.196249,-13.14353 17.582498,-14.07263 11.730675,-7.86223 -2.830268,3.0037 -8.49056,9.28627 -12.578426,13.96127 -7.260356,8.30315 -9.914649,10.20212 -11.246942,8.04642 z m 34.828086,-0.55908 c -0.56368,-1.46893 5.4344,-10.1784 9.61574,-13.96246 1.91683,-1.73471 1.9395,-1.70486 1.05288,1.38661 -1.50541,5.24903 -7.28509,14.08851 -9.21176,14.08851 -0.48202,0 -1.13761,-0.6807 -1.45686,-1.51266 z m 81.86033,-6.23734 c -1.62302,-2.0625 -3.94251,-5.775 -5.1544,-8.25 l -2.20345,-4.5 7.15126,7.21462 c 6.62942,6.68815 7.89218,9.28538 4.5145,9.28538 -0.74632,0 -2.68488,-1.6875 -4.30791,-3.75 z m 31.32281,-0.5 c -5.72664,-4.76569 -23.53991,-22.89498 -23.53991,-23.95752 0,-0.50121 4.81238,2.37794 10.69418,6.39811 11.2138,7.66456 21.30582,16.82123 21.30582,19.33115 0,2.55387 -4.35928,1.64094 -8.46009,-1.77174 z M 91.429885,303.20645 c -1.410056,-1.41006 3.874573,-7.52589 10.627055,-12.29855 1.81143,-1.28032 1.95564,-1.25386 1.37751,0.25272 -0.35515,0.92551 -2.51345,4.15653 -4.79622,7.18003 -3.889482,5.15158 -5.70025,6.37389 -7.208345,4.8658 z m 106.662725,-4.94344 c -4.05585,-4.30046 -9.73037,-12.39261 -9.11893,-13.00405 0.7837,-0.7837 16.75436,13.63999 16.75436,15.13147 0,2.66746 -4.22297,1.49084 -7.63543,-2.12742 z M 32.73079,295.34125 c -2.495698,-3.00713 -0.333758,-6.24441 6.254324,-9.36519 7.53758,-3.57057 22.940499,-8.45055 25.182773,-7.97846 3.455558,0.72754 -20.481149,16.52519 -27.57543,18.19912 -1.734034,0.40915 -3.054982,0.11653 -3.861667,-0.85547 z m 24.451493,-0.57735 c -0.365082,-0.59071 0.320751,-2.12202 1.524073,-3.40289 2.286762,-2.43415 25.933299,-14.94479 26.733978,-14.14411 0.426427,0.42642 -8.567352,7.70667 -18.988874,15.37103 -4.476427,3.29212 -8.059503,4.13326 -9.269177,2.17597 z m 88.609707,0.11355 c -0.98238,-0.60714 -0.80897,-2.35042 0.799,-8.03246 1.12952,-3.99136 2.24342,-7.44676 2.47533,-7.67867 0.93232,-0.93232 1.72818,7.04562 1.11245,11.1516 -0.66777,4.45302 -2.11882,5.96121 -4.38678,4.55953 z m -9.63061,-1.35265 c -0.69187,-1.80297 1.29603,-6.66441 5.39617,-13.19644 3.0189,-4.80947 3.1307,-4.88165 3.08327,-1.99043 -0.0271,1.65 -0.80603,5.925 -1.731,9.5 -1.38801,5.36459 -2.07559,6.55592 -3.93625,6.82014 -1.28972,0.18314 -2.49314,-0.30182 -2.81219,-1.13327 z m 18.02379,0.062 c -0.29524,-0.76941 -0.40638,-5.64017 -0.24697,-10.82391 l 0.28984,-9.42496 1.91656,4 c 2.6374,5.50442 2.85315,16.8013 0.33042,17.30075 -0.96417,0.19088 -1.9946,-0.28245 -2.28985,-1.05186 z m 93.19764,-4.29742 c -8.04286,-4.53231 -18.01569,-11.42389 -17.4092,-12.03037 0.55772,-0.55773 10.64693,2.36117 20.15453,5.83089 6.07747,2.21792 9.52508,4.0885 10.87072,5.89818 4.67953,6.29324 -2.69346,6.45639 -13.61605,0.3013 z m -120.65477,3.08598 c 0,-0.33092 0.62317,-2.04971 1.38482,-3.81955 1.47751,-3.43326 11.50209,-14.89832 11.55718,-13.21788 0.018,0.55 -1.92879,4.6 -4.32626,9 -3.05973,5.61545 -4.99342,8.09525 -6.48738,8.31955 -1.1706,0.17575 -2.12836,0.0488 -2.12836,-0.28212 z m 37.32806,-1.78743 c -1.96736,-2.19075 -5.17651,-16.23489 -3.98256,-17.42883 0.71832,-0.71832 8.5472,11.40314 9.29863,14.39709 0.53996,2.15137 -0.99641,5.28174 -2.59226,5.28174 -0.38678,0 -1.6125,-1.0125 -2.72381,-2.25 z m -84.592497,0.65223 c -1.270347,-1.27034 0.714291,-3.54927 7.085793,-8.13649 3.640706,-2.62116 7.949113,-5.59457 9.574237,-6.60758 l 2.95477,-1.84183 -1.804637,2.84183 c -2.627706,4.13796 -6.505411,8.2016 -10.945769,11.47061 -3.84708,2.83224 -5.693943,3.44392 -6.864394,2.27346 z m 146.693757,-1.87558 c -2.72985,-1.36034 -7.65842,-4.64505 -10.95237,-7.29934 -3.29395,-2.6543 -7.44879,-5.68832 -9.23297,-6.74226 -2.77182,-1.63735 -4.26204,-3.48505 -2.81081,-3.48505 1.63933,0 30.31938,14.39938 31.31683,15.72323 3.55766,4.72182 -0.63894,5.63139 -8.32068,1.80342 z m -106.42932,-2.43685 c 0,-3.27688 12.15225,-17.27088 13.67528,-15.74785 0.81845,0.81844 -1.70807,6.38296 -5.86077,12.90805 -2.22981,3.50367 -3.65161,4.75 -5.41876,4.75 -1.69154,0 -2.39575,-0.56148 -2.39575,-1.9102 z m 53.08307,-1.23101 c -2.16446,-2.32327 -6.43763,-13.84363 -5.48315,-14.7824 0.90617,-0.89125 10.38315,10.00798 11.06531,12.72592 0.38317,1.52667 0.0968,2.73447 -0.77988,3.28971 -2.02525,1.28261 -2.59464,1.13639 -4.80228,-1.23323 z m 31.04397,-2.83273 c -6.4816,-5.39404 -7.6828,-6.80363 -6.66507,-7.82136 0.87296,-0.87296 12.70094,5.29017 15.97384,8.32339 3.35798,3.11207 3.24124,4.47191 -0.38389,4.47191 -2.0679,0 -4.73254,-1.48504 -8.92488,-4.97394 z m -91.12704,-0.12634 c 0,-1.15516 1.9125,-3.99958 4.25,-6.32093 4.60017,-4.5684 10.75,-9.1493 10.75,-8.00748 0,1.28742 -6.16656,10.88019 -8.79313,13.67869 -3.12233,3.3267 -6.20687,3.64958 -6.20687,0.64972 z m 66.84625,-4.64972 c -3.41644,-3.71656 -7.6385,-10.84233 -5.78723,-9.76739 5.66378,3.28868 12.8876,9.31275 12.91183,10.76739 0.0457,2.74526 -4.23396,2.14457 -7.1246,-1 z m -74.33348,0.77067 c -0.33289,-0.53864 -0.13538,-1.85731 0.43891,-2.93039 1.1364,-2.12338 15.11586,-12.35607 15.86157,-11.61036 1.37929,1.37928 -11.44066,15.52008 -14.07039,15.52008 -0.89366,0 -1.89719,-0.4407 -2.23009,-0.97933 z m -34.94253,-1.69821 c -0.906537,-2.3624 0.803974,-3.61745 9.929755,-7.28577 4.4,-1.76869 8.5625,-3.44864 9.25,-3.73323 0.6875,-0.28459 1.25,-0.074 1.25,0.46798 0,1.3108 -16.298266,12.22856 -18.255059,12.22856 -0.84203,0 -1.820643,-0.75489 -2.174696,-1.67754 z m -22.234412,-1.88968 c -0.822369,-2.14305 0.403128,-3.14049 6.734838,-5.48149 5.512782,-2.03822 26.622799,-7.94699 28.401835,-7.94977 3.048361,-0.005 -16.140613,9.91715 -25.379056,13.12259 -6.589432,2.28631 -8.96983,2.36161 -9.757617,0.30867 z m 194.361302,0.46601 c -2.09157,-0.48923 -11.20677,-4.04159 -20.25599,-7.89415 -9.04922,-3.85255 -16.90043,-7.00464 -17.44714,-7.00464 -0.5467,0 -0.994,-0.45 -0.994,-1 0,-1.42209 0.0585,-1.41136 16.03371,2.94366 24.78177,6.75577 28.46629,8.17605 28.46629,10.97301 0,2.8813 -0.79607,3.15322 -5.80287,1.98212 z m -59.43654,-6.08474 c -5.78889,-5.21142 -8.94169,-8.81405 -7.71353,-8.81405 1.50973,0 14.42345,7.30993 16.00917,9.06214 1.405,1.5525 1.48908,2.17834 0.45934,3.4191 -1.86512,2.24734 -2.4635,1.99669 -8.75498,-3.66719 z m 34.72872,3.75069 c -3.98134,-1.46787 -14.72674,-6.91098 -16.98931,-8.60599 -2.3261,-1.74261 6.77462,-0.407 13.61947,1.99877 6.54396,2.30002 11.15183,5.93517 9.14123,7.21154 -1.54118,0.97837 -1.45377,0.98752 -5.77139,-0.60432 z m -69.49313,-1.81474 c -0.89277,-2.53024 -2.48004,-14.36969 -2.44671,-18.25 l 0.0344,-4 1.8895,3.5 c 2.3792,4.40708 5.43045,16.5054 4.66549,18.49884 -0.69764,1.81803 -3.52921,1.9897 -4.14264,0.25116 z M 24.970469,270.29518 c -2.53928,-1.77858 -2.920427,-4.64968 -0.845827,-6.37144 1.635679,-1.35749 35.603393,-5.65377 35.603393,-4.50316 0,0.80013 -8.824979,4.39026 -19.5,7.93288 -5.5,1.82523 -10.678405,3.5872 -11.507566,3.91549 -0.829161,0.3283 -2.516661,-0.1099 -3.75,-0.97377 z m 234.257571,0.41929 c -5.7269,-1.32084 -14.45074,-4.40716 -20.65152,-7.3061 l -5.34848,-2.50048 5.21416,-0.035 c 2.86778,-0.0192 9.78649,0.48495 15.37489,1.12041 8.24826,0.93792 10.65484,1.59728 12.78584,3.50306 l 2.62511,2.34766 -2.36078,1.99694 c -1.29844,1.09832 -2.64844,1.95175 -3,1.8965 -0.35157,-0.0553 -2.43922,-0.5156 -4.63922,-1.02301 z M 99.343408,269.27799 c -0.439589,-1.14555 0.660982,-2.10176 4.143012,-3.5996 2.60789,-1.12181 7.10412,-3.09495 9.99162,-4.38474 2.8875,-1.28979 5.25,-1.93416 5.25,-1.43194 0,0.93987 -8.79824,7.7475 -12.68426,9.81443 -3.05033,1.62245 -5.99208,1.44764 -6.700372,-0.39815 z m 37.914522,0.6083 c -0.73199,-1.18438 -0.43552,-2.51725 2.73548,-12.29836 1.20357,-3.7125 2.55253,-6.75 2.99769,-6.75 0.44515,0 0.68057,4.3875 0.52315,9.75 -0.28549,9.72552 -0.29288,9.75077 -2.94177,10.05731 -1.46056,0.16902 -2.95211,-0.17251 -3.31455,-0.75895 z m 19.72381,-2.29836 c -1.67289,-2.10969 -8.26576,-16.07128 -7.80614,-16.5309 1.39229,-1.39228 12.55244,12.49989 12.55244,15.62529 0,2.41986 -3.07963,3.00747 -4.7463,0.90561 z m 29.60851,-5.37036 c -2.94921,-1.9912 -6.26221,-4.51322 -7.36221,-5.6045 l -2,-1.98415 2,0.53984 c 11.79294,3.18314 16.60153,4.99037 17.4383,6.55388 1.12148,2.09552 -0.36371,4.11529 -3.02609,4.11529 -0.92828,0 -4.10078,-1.62916 -7.05,-3.62036 z m -57.35953,1.6247 c -0.62407,-1.00978 5.38389,-10.84157 8.86324,-14.50434 1.88245,-1.98168 1.89394,-1.96852 1.25449,1.43737 -1.18543,6.31396 -5.32136,14.06263 -7.50607,14.06263 -1.09797,0 -2.27321,-0.44805 -2.61166,-0.99566 z m 33.17165,-2.61311 c -1.19588,-1.43482 -3.69994,-4.37171 -5.56457,-6.52643 -4.13633,-4.77982 -3.31526,-6.37018 1.15522,-2.23757 1.77926,1.64478 4.94462,4.24128 7.03414,5.77 3.06185,2.24009 3.57176,3.05342 2.62755,4.19112 -1.67441,2.01755 -2.78374,1.76471 -5.25234,-1.19712 z m -95.424335,-0.0535 c -2.049969,-0.82718 -1.41831,-3.25851 1,-3.84911 5.780853,-1.41181 18.75,-3.06483 18.75,-2.38983 0,0.87566 -15.305,6.94004 -17.21774,6.82227 -0.705243,-0.0434 -1.84476,-0.30592 -2.53226,-0.58333 z m 27.317603,-0.22834 c -0.990453,-1.60258 4.144796,-4.03256 11.912832,-5.63709 4.1921,-0.8659 8.27396,-1.82455 9.07079,-2.13032 0.79683,-0.30577 1.44878,-0.26661 1.44878,0.087 0,0.35363 -3.6887,2.42678 -8.1971,4.60699 -7.90145,3.82105 -13.081977,4.93953 -14.235302,3.07341 z m 121.932402,-2.05805 c -2.75,-1.01543 -6.575,-2.59037 -8.5,-3.49987 -3.47013,-1.63952 -3.42061,-1.64899 5.8023,-1.10974 10.06574,0.58853 13.49827,1.74396 12.99948,4.37575 -0.44375,2.34139 -4.35376,2.43015 -10.30178,0.23386 z m -93.78129,-0.66595 c -1.23648,-1.23649 2.6552,-5.47309 8.58899,-9.35023 3.3467,-2.18673 6.27287,-3.78791 6.50261,-3.55818 0.48795,0.48796 -2.53929,4.4688 -7.43192,9.77303 -3.18352,3.45135 -6.1354,4.65966 -7.65968,3.13538 z m 42.76794,-3.81646 c -2.74266,-1.88709 -6.33665,-4.55026 -7.98665,-5.91815 -2.96491,-2.45797 -2.8926,-2.44984 6.18095,0.69536 5.04952,1.75034 9.4781,3.47959 9.8413,3.84279 0.99116,0.99116 -0.48008,4.81108 -1.85299,4.81108 -0.65777,0 -3.43995,-1.54399 -6.18261,-3.43108 z m 24.01335,0.26333 c -6.78571,-3.47377 -7.02656,-3.63902 -6.32545,-4.34014 0.79346,-0.79345 14.80978,2.09222 16.01464,3.29708 1.49573,1.49573 0.24677,4.22089 -1.90781,4.16271 -0.97976,-0.0264 -4.48138,-1.43029 -7.78138,-3.11965 z m 48.5,1.05711 c -2.475,-0.49305 -9.37031,-1.87111 -15.3229,-3.06236 -6.413,-1.28338 -10.27031,-2.47515 -9.4667,-2.92487 1.79069,-1.00212 30.51029,0.92306 34.0396,2.2818 3.43668,1.32307 3.49726,2.58146 0.1849,3.84082 -2.90381,1.10403 -3.23734,1.09924 -9.4349,-0.13539 z M 42.854011,254.48972 c -0.848502,-1.02238 -0.696661,-1.73034 0.628288,-2.9294 1.346925,-1.21895 5.952086,-1.8406 20.101442,-2.71349 10.094831,-0.62276 18.55176,-0.93477 18.793174,-0.69335 0.983591,0.98359 -30.631597,7.67946 -36.276435,7.68308 -1.170156,7.5e-4 -2.631067,-0.60532 -3.246469,-1.34684 z m 48.978307,-3.56618 c -2.428658,-1.53781 -0.432309,-3.77754 3.998598,-4.48607 4.810724,-0.76927 17.682314,0.24387 18.428044,1.45049 0.55228,0.89361 -2.01899,1.51904 -12.03092,2.92639 -8.558884,1.20309 -8.666358,1.20422 -10.395722,0.10919 z m 25.932072,-0.54181 c -0.66469,-0.8009 -0.92578,-1.91369 -0.58019,-2.47286 0.7031,-1.13765 11.26674,-4.58365 17.18847,-5.60711 3.5705,-0.61709 3.70759,-0.5571 1.85537,0.81197 -2.10123,1.55313 -15.86448,8.7242 -16.74411,8.7242 -0.28105,0 -1.05484,-0.65529 -1.71954,-1.4562 z m 47.71365,-3.27562 c -8.46973,-2.79371 -10.41495,-4.94539 -3.5,-3.87148 2.3375,0.36302 6.8375,0.93477 10,1.27056 5.71788,0.60711 6.95341,1.72933 4.55,4.13274 -1.54484,1.54484 -1.85119,1.50237 -11.05,-1.53182 z m 24,0.0173 c -3.7125,-0.86023 -6.75,-1.9238 -6.75,-2.3635 0,-2.48624 17.52234,-2.28531 19.10743,0.21911 2.37141,3.74683 -2.09604,4.52207 -12.35743,2.14439 z m 61.62921,0.22995 c -5.01643,-0.68441 -10.86643,-1.58113 -13,-1.99273 -3.6243,-0.69917 -3.72324,-0.80753 -1.50557,-1.64904 1.3055,-0.49538 8.32643,-1.18619 15.60206,-1.53512 12.86374,-0.61693 13.2915,-0.57135 15.51629,1.65344 l 2.28787,2.28787 -2.38993,1.32463 c -2.82141,1.56379 -4.46083,1.55495 -16.51072,-0.089 z m -228.812373,-2.431 c -1.829173,-2.03122 -1.840516,-2.23914 -0.210877,-3.86556 1.377752,-1.37502 3.398535,-1.69388 10.101785,-1.59393 12.331903,0.18388 25.871404,1.45785 24.894005,2.34235 -1.088505,0.98504 -16.738184,3.78183 -25.851755,4.62003 -6.34026,0.58313 -7.182197,0.44148 -8.933158,-1.50289 z m 193.433163,1.2597 c -1.375,-0.21094 -4.075,-0.66626 -6,-1.01183 -3.34532,-0.60055 -3.38951,-0.66157 -1,-1.38063 3.14319,-0.94586 18.44001,-1.17833 19.32466,-0.29368 0.36189,0.3619 0.15679,1.2619 -0.45578,2 -1.0573,1.27396 -6.12663,1.56702 -11.86888,0.68614 z M 62.860422,243.49745 c -2.413796,-2.90845 -0.27909,-3.66135 10.17663,-3.58923 12.778344,0.0881 16.375898,1.17325 9.095378,2.74342 -10.314288,2.22445 -17.853237,2.55532 -19.272008,0.84581 z m 52.617618,-0.22241 c -1.52259,-1.56408 -0.6695,-3.22781 2.28192,-4.45033 2.25871,-0.93559 5.12775,-1.02016 11.25,-0.33161 l 8.21808,0.92425 -5.5,1.77093 c -6.42641,2.06921 -15.1736,3.19249 -16.25,2.08676 z m 28.04699,-1.11739 c -1.87895,-0.49458 -3.28078,-3.72792 -2.30252,-5.31077 0.92526,-1.4971 5.08399,-1.22181 6.45248,0.42713 0.88467,1.06596 0.90716,1.96801 0.0873,3.5 -1.12864,2.10888 -1.28636,2.16038 -4.23722,1.38364 z m -52.596995,-1.51972 c -2.195009,-2.19501 -1.338808,-3.8 2.027153,-3.8 4.81383,0 18.769842,3.19586 18.173022,4.16153 -0.82889,1.34117 -18.819457,1.01919 -20.200175,-0.36153 z m 75.050005,0.45749 c -3.9875,-0.18981 -7.25,-0.77539 -7.25,-1.3013 0,-0.5259 1.27495,-0.95619 2.83322,-0.95619 1.55827,0 5.40648,-0.51679 8.55159,-1.14841 4.42754,-0.88918 5.98889,-0.87398 6.91678,0.0673 0.93332,0.94681 0.76903,1.53264 -0.74272,2.64841 -1.06762,0.78797 -2.19262,1.34327 -2.5,1.23398 -0.30738,-0.10928 -3.82137,-0.35399 -7.80887,-0.54381 z m 16.33471,-2.12043 c -0.29333,-0.47461 2.94261,-1.40552 7.19098,-2.06868 4.24837,-0.66315 8.462,-1.34468 9.36361,-1.51449 2.41527,-0.4549 4.24079,1.01322 3.5378,2.84519 -0.50346,1.31198 -2.32391,1.60092 -10.0867,1.60092 -5.2098,0 -9.71236,-0.38832 -10.00569,-0.86294 z m 29.91529,-0.91936 c 1.34931,-1.26296 20.57218,-4.27107 27.84544,-4.35743 6.53366,-0.0776 8.66007,1.05924 6.04569,3.23211 -1.98929,1.65335 -35.64932,2.77099 -33.89113,1.12532 z m -57.10329,-1.05057 c 0.83874,-1.35712 17.12074,-8.16713 19.52672,-8.16713 2.29283,0 2.78277,2.20754 0.82657,3.72434 -1.05358,0.81693 -7.15479,2.41137 -18.58379,4.85652 -1.28358,0.27462 -2.07986,0.0884 -1.7695,-0.41373 z m -24.5028,-0.60655 c -0.24168,-0.24168 -3.01662,-0.54368 -6.16654,-0.67112 -3.96065,-0.16024 -6.21541,-0.77125 -7.31021,-1.981 -1.44998,-1.60221 -1.42897,-1.82972 0.24988,-2.70591 1.29924,-0.67807 4.30798,-0.24223 10.33296,1.49682 9.72188,2.80611 12.10813,4.30063 6.86667,4.30063 -1.94334,0 -3.73108,-0.19774 -3.97276,-0.43942 z m -86.143915,-1.64068 c -2.502393,-1.45751 -2.159607,-3.77899 0.662588,-4.48732 2.236861,-0.56141 25.615488,1.77154 33.587412,3.35169 2.794653,0.55394 1.686251,0.82577 -5.5,1.34885 -13.87197,1.00973 -26.815127,0.91374 -28.75,-0.21322 z m 58.136815,-0.28917 c -7.143813,-1.08732 -10.886815,-2.72151 -10.886815,-4.75317 0,-1.7425 8.0982,-0.82341 14.726035,1.67129 11.79375,4.43916 10.72339,5.29838 -3.83922,3.08188 z m 25.50223,-4.55784 c -8.83175,-4.15287 -10.34522,-5.55021 -8.25736,-7.62376 1.1533,-1.1454 1.83975,-1.12427 4.36832,0.13444 3.43121,1.70804 14.51409,11.3655 13,11.32801 -0.55,-0.0136 -4.64993,-1.74103 -9.11096,-3.83869 z m 82.61096,2.32704 c 5.24875,-2.41561 16.80622,-4.60775 18.70141,-3.54715 3.31288,1.85398 -2.63867,4.00954 -12.70141,4.60026 -9.32078,0.54716 -9.43397,0.5273 -6,-1.05311 z m -49.5,-4.74827 c 6.24342,-5.78536 10.5,-7.3044 10.5,-3.74712 0,2.06171 -8.58319,7.50243 -13.66192,8.66003 -2.5,0.56983 -2.12335,-0.0154 3.16192,-4.91291 z m 26.5,4.53345 c 0,-1.38893 13.22873,-6.35638 14.23849,-5.34662 1.43968,1.43968 -0.3036,4.01989 -3.07203,4.54688 -7.70864,1.46739 -11.16646,1.71504 -11.16646,0.79974 z m -55.42198,-7.177 c -6.80204,-7.04569 -7.66402,-9.2505 -3.83765,-9.81613 1.5087,-0.22303 2.89808,0.88079 5.03482,4 3.94303,5.756 7.47189,12.80802 6.4092,12.80802 -0.47095,0 -3.89381,-3.14635 -7.60637,-6.99189 z m -61.61199,5.06942 c -4.43336,-0.8687 -5.966035,-1.80293 -5.966035,-3.63655 0,-1.69529 4.429555,-1.91938 9.88398,-0.50001 1.988811,0.51754 5.784098,1.48458 8.433972,2.14899 3.254704,0.81606 4.390325,1.47917 3.5,2.04371 -1.538628,0.97563 -10.752884,0.943 -15.851917,-0.0561 z m 75.5553,-1.32753 c -0.40598,-1.5125 -0.46271,-3.84742 -0.12607,-5.18871 0.33665,-1.3413 0.16043,-2.71786 -0.39159,-3.05902 -0.55202,-0.34117 -1.00367,-2.61875 -1.00367,-5.06129 0,-4.13603 0.18174,-4.44098 2.64674,-4.44098 h 2.64673 l -0.63877,7.25 c -0.35133,3.9875 -1.03398,8.6 -1.51701,10.25 l -0.87822,3 z m -4.02133,0.25 c -0.33992,-0.55 -0.14148,-1 0.44098,-1 0.58246,0 1.05902,0.45 1.05902,1 0,0.55 -0.19844,1 -0.44098,1 -0.24254,0 -0.7191,-0.45 -1.05902,-1 z m 12.97399,-0.91804 c 0.6677,-2.10375 3.35689,-6.63846 6.85697,-11.56276 1.16526,-1.63942 1.67114,-1.76234 2.93524,-0.71324 2.38396,1.97852 0.98265,4.73849 -5.00161,9.85101 -4.47143,3.82006 -5.37923,4.27959 -4.7906,2.42499 z m -51.19067,-1.04037 c -6.664079,-1.86672 -9.283325,-3.4648 -9.283325,-5.66403 0,-3.40689 9.550015,-0.53421 18.500005,5.56487 l 3,2.04439 -3,-0.10191 c -1.65,-0.0561 -5.79751,-0.88555 -9.21668,-1.84332 z m 47.08952,-1.04159 c 1.59466,-9.12552 2.5098,-12.31109 3.76515,-13.10644 5.55328,-3.5184 4.29759,5.22404 -1.92268,13.38621 l -2.45409,3.22023 z m 35.69655,-1.08034 c 7.42834,-5.58136 10.24331,-6.96253 11.98974,-5.8828 1.24131,0.76743 1.22304,1.1087 -0.13187,2.464 -1.34929,1.34968 -15.05308,7.49914 -16.71148,7.49914 -0.31735,0 1.86678,-1.83615 4.85361,-4.08034 z m 50.93061,3.22103 c 0,-1.17183 10.70147,-4.5701 20.87329,-6.62835 7.6645,-1.5509 8.50831,-1.55931 9.96826,-0.0994 1.45995,1.45994 1.42435,1.76556 -0.42049,3.61041 -1.21968,1.21968 -4.36582,2.40033 -7.96826,2.99024 -7.36692,1.20639 -22.4528,1.29177 -22.4528,0.1271 z m -99.4707,-6.48718 c -3.55191,-7.50812 -3.32753,-11.68626 0.5171,-9.62868 1.05576,0.56503 2.22616,3.01885 2.86852,6.01404 2.22086,10.35553 0.61461,12.07044 -3.38562,3.61464 z m 76.0207,4.4078 c 1.43258,-1.41553 25.05859,-10.06131 27.49418,-10.06131 3.19244,0 1.86273,2.23677 -2.5953,4.36568 -3.92627,1.87497 -21.34225,6.63432 -24.2771,6.63432 -0.98745,0 -1.2186,-0.34897 -0.62178,-0.93869 z M 39.307821,224.76935 c -13.291922,-1.17675 -21.05237,-4.86652 -17.5591,-8.34864 1.670416,-1.66508 11.037077,-1.0554 18.114285,1.17908 3.500766,1.10529 9.623314,2.99719 13.605662,4.20421 3.982348,1.20703 7.496406,2.60845 7.809017,3.11427 0.659568,1.0672 -8.970487,1.00192 -21.969864,-0.14892 z m 142.420849,-1.62488 c 0.002,-1.99267 9.1827,-12.30654 10.95498,-12.30654 3.7185,0 3.46015,2.30395 -0.66531,5.93328 -4.61397,4.05909 -10.29061,7.57511 -10.28967,6.37326 z m 22.49937,-0.8121 c 1.1,-0.88502 5.20311,-3.1974 9.11802,-5.13863 6.7369,-3.34052 11.32295,-4.07583 11.57452,-1.85581 0.18432,1.62653 -6.8731,5.11455 -12.99943,6.42478 -3.13121,0.66966 -6.59311,1.43384 -7.69311,1.69817 l -2,0.48061 z M 75.728035,221.70265 c -2.475,-0.50389 -9.433475,-1.77372 -15.463277,-2.82187 -11.027902,-1.91695 -14.070647,-3.48789 -12.861051,-6.64005 0.845648,-2.20372 3.638916,-1.72059 18.069539,3.12539 14.333007,4.8132 20.361035,7.44757 16.754789,7.32221 -1.1,-0.0382 -4.025,-0.4818 -6.5,-0.98568 z m 31.250005,-3.93416 c -6.18889,-2.99474 -8.250005,-4.48407 -8.250005,-5.96132 0,-1.48175 0.680774,-1.96908 2.750005,-1.96861 3.17759,7.3e-4 14.25,8.17022 14.25,10.51399 0,1.8333 0.97225,2.12042 -8.75,-2.58406 z m 69.75,2.5684 c 0,-0.49135 1.88025,-4.17963 4.17834,-8.19617 3.30339,-5.77357 4.6645,-7.30279 6.5,-7.30279 3.01446,0 2.92754,0.87826 -0.55419,5.59996 -3.38977,4.59699 -10.12415,11.18161 -10.12415,9.899 z m -96.986702,-3.10485 c -6.423084,-1.72588 -10.013303,-3.84744 -10.013303,-5.91716 0,-2.31695 6.212893,-1.81961 10.110453,0.80934 1.864251,1.25746 4.861702,2.89105 6.661003,3.63021 7.570211,3.10985 3.019434,4.10483 -6.758153,1.47761 z m 33.305882,-4.69656 c -6.21233,-5.22405 -8.04042,-9.09982 -4.86659,-10.31773 1.58459,-0.60807 6.57585,4.47883 10.29229,10.48949 4.2184,6.82251 2.83985,6.77887 -5.4257,-0.17176 z m 60.15002,1.29461 c 1.29211,-4.24997 6.66852,-13.83103 8.06115,-14.36543 0.72788,-0.27932 1.81291,0.0819 2.41118,0.80281 0.82367,0.99247 0.0339,2.73816 -3.2533,7.19056 -2.38757,3.23395 -5.15907,6.55137 -6.15888,7.37206 -1.68942,1.38674 -1.76431,1.31609 -1.06015,-1 z m 36.0308,-0.56973 c 3.52104,-2.94082 23.78778,-15.73889 27.68623,-17.48334 1.47743,-0.6611 3.46138,-0.90456 4.40878,-0.541 4.25785,1.63389 -6.0889,8.29257 -27.96585,17.99752 -7.24767,3.21517 -7.95204,3.21975 -4.12916,0.0268 z m -89.72573,-6.84878 c -7.28045,-8.18949 -8.0464,-12.57365 -2.19671,-12.57365 2.85528,0 3.72206,1.23401 6.28246,8.94417 3.59586,10.8283 2.87962,11.46455 -4.08575,3.62948 z m 86.76966,0.17635 c 7.77069,-7.15081 10.07725,-8.52882 11.6475,-6.95857 1.60776,1.60776 -0.65256,3.87294 -8.6326,8.65117 -8.45781,5.06429 -9.6377,4.40189 -3.0149,-1.6926 z m 25.00607,4.34027 c 2.01266,-1.92735 25.19653,-12.96861 27.86639,-13.2713 1.83794,-0.20838 3.20284,0.28405 3.93659,1.42023 0.91353,1.41458 0.62876,2.23361 -1.52572,4.38808 -2.13529,2.1353 -5.13826,3.19762 -15.48807,5.47906 -13.99481,3.08491 -16.25561,3.38819 -14.78919,1.98393 z M 168.75,208.78793 c 0.0436,-4.86851 6.10635,-15.60677 8.11169,-14.3674 1.80425,1.11509 0.73906,4.82733 -2.80724,9.78342 -5.1394,7.1825 -5.32921,7.34653 -5.30445,4.58398 z M 62.228035,208.7197 c -10.6162,-2.43462 -26.474369,-8.21472 -29.524955,-10.76146 -5.73026,-4.78384 -1.469638,-6.61387 8.416009,-3.61487 2.69008,0.81609 5.39008,1.87317 6,2.34907 0.60992,0.47589 5.721446,3.24563 11.358946,6.15497 12.456575,6.42845 13.534319,8.11614 3.75,5.87229 z m -12.157916,-6.33084 c 0.370921,-0.96661 0.0755,-1.26467 -0.887268,-0.89522 -0.793831,0.30462 -1.194356,0.95671 -0.890055,1.44907 0.766426,1.24011 1.132717,1.12596 1.777323,-0.55385 z m 21.767031,1.93463 c -14.629199,-5.52051 -18.410064,-7.70281 -17.896139,-10.32958 0.545287,-2.78706 4.318168,-2.04206 12.763915,2.52038 9.088925,4.90989 21.023109,12.24037 21.023109,12.91328 0,0.79963 -1.654266,0.26828 -15.890885,-5.10408 z m 14.890885,0.20544 c -6.471216,-3.19069 -8.576271,-4.72803 -8.819551,-6.441 -0.549986,-3.87252 3.133078,-2.67452 11.758006,3.82456 11.40364,8.59289 10.61211,9.29767 -2.938455,2.61644 z m 42.668955,-0.941 c -3.73952,-4.99558 -5.66895,-9.34182 -5.66895,-12.76989 0,-2.65929 0.33038,-3.07209 2.24063,-2.79966 1.23235,0.17575 2.80056,1.49166 3.48492,2.92423 1.73701,3.63611 4.20749,15.89532 3.20323,15.89532 -0.45485,0 -1.92177,-1.4625 -3.25983,-3.25 z m 34.34667,1.62244 c 0.0276,-3.31185 2.72717,-13.51523 3.88105,-14.66911 0.82349,-0.82349 1.53816,-0.69708 2.71556,0.48032 1.46392,1.46393 1.36854,2.10911 -1.1372,7.69264 -3.01981,6.72902 -5.48583,9.66335 -5.45941,6.49615 z m -27.45432,-4.47016 c -3.06165,-6.70313 -4.25116,-13.35789 -2.57306,-14.39501 2.27866,-1.40829 3.99717,2.06629 5.10934,10.33034 0.61312,4.55586 0.84846,8.54968 0.52298,8.87516 -0.32548,0.32548 -1.70215,-1.83924 -3.05926,-4.81049 z m 7.04561,-3.032 c -2.15982,-9.56397 -2.09654,-11.87028 0.3257,-11.87028 1.06294,0 2.21226,0.88109 2.55405,1.95797 0.83237,2.62258 0.40284,15.99229 -0.53236,16.57027 -0.40726,0.25171 -1.46359,-2.74438 -2.34739,-6.65796 z m 7.60238,-1.87957 c 0.27503,-8.97874 0.41208,-9.50795 2.54071,-9.81026 2.71499,-0.38559 2.78786,0.61662 0.74577,10.25642 -2.29306,10.8245 -3.62617,10.64352 -3.28648,-0.44616 z m 6.12639,6.75929 c 0.30387,-1.2375 0.85954,-4.60429 1.23482,-7.48175 0.79867,-6.12388 2.44335,-8.86065 4.78489,-7.96211 2.36344,0.90693 2.06102,2.92914 -1.60539,10.73497 -3.15976,6.72716 -5.53105,9.25669 -4.41432,4.70889 z m 45.66432,-0.0694 c 0,-2.12129 21.42257,-22.49758 24.45221,-23.25797 1.5516,-0.38943 3.16207,-0.20836 3.79738,0.42695 1.47951,1.47951 -0.97754,4.13309 -9.24959,9.98941 -3.575,2.53097 -9.3125,6.76261 -12.75,9.40363 -3.59788,2.76425 -6.25,4.22312 -6.25,3.43798 z m -8,-0.42742 c 0,-0.48564 2.14027,-4.00378 4.75617,-7.81809 3.67239,-5.35483 5.38139,-7.0072 7.5,-7.25152 3.89276,-0.44892 3.43415,1.1641 -1.97521,6.94714 -5.09751,5.44964 -10.28096,9.54483 -10.28096,8.12247 z m -94.2938,-4.56707 c -5.306675,-3.20271 -13.840835,-11.75062 -13.497552,-13.5193 0.593797,-3.05938 3.073602,-2.25538 7.62983,2.47373 5.595292,5.80761 10.609192,12.24512 10.006552,12.84775 -0.23862,0.23862 -2.10109,-0.57235 -4.13883,-1.80218 z m -14.477894,-3.43612 c -2.823096,-2.0625 -8.508186,-6.1413 -12.633534,-9.06401 -7.161353,-5.07364 -9.465361,-7.96834 -8.100308,-10.17704 1.673024,-2.70701 5.296816,-0.40853 16.095838,10.20918 6.275331,6.16997 11.409693,11.56997 11.409693,12 0,1.49228 -1.665793,0.76214 -6.771689,-2.96813 z m 136.321694,2.94998 c 1.9457,-1.63854 10.158,-8.07536 16.48555,-12.92145 8.75226,-6.70309 11.91048,-8.24639 14.71445,-7.19037 4.58481,1.72672 2.38924,3.82786 -11,10.5269 -7.2875,3.64616 -14.44447,7.47438 -15.90437,8.50716 -2.56243,1.81274 -6.27427,2.74403 -4.29563,1.07776 z M 70.532669,191.15913 c -2.661166,-0.70133 -15.627403,-7.61517 -23.054634,-12.29316 -5.262411,-3.31449 -6.75,-4.77778 -6.75,-6.63974 0,-1.89084 0.52902,-2.3883 2.539838,-2.3883 3.187389,0 9.041593,3.02249 12.960162,6.69125 1.65,1.54481 6.2625,5.44731 10.25,8.67221 8.457522,6.84005 8.688103,7.17885 4.054634,5.95774 z M 196.10485,190.4572 c 0.95049,-2.70543 13.46991,-21.61364 16.46633,-24.86927 1.39207,-1.5125 3.34685,-2.75 4.34395,-2.75 4.22063,0 1.02812,5.48883 -10.25435,17.63012 -11.66063,12.54825 -11.3526,12.25676 -10.55593,9.98915 z M 94.590064,180.07498 C 82.818146,168.0341 79.279651,163.44878 80.103282,161.30243 c 1.55294,-4.04689 7.889849,0.49111 13.727296,9.83042 1.789362,2.86279 5.249009,8.26687 7.688112,12.00906 2.43909,3.74219 4.23984,6.99886 4.00165,7.23705 -0.23818,0.23818 -5.15681,-4.39861 -10.930276,-10.30398 z m -3.862029,-8.29607 c 0,-1.13246 -0.430347,-1.79305 -0.956326,-1.46797 -0.525979,0.32507 -0.702834,1.25163 -0.393011,2.05902 0.793226,2.06711 1.349337,1.82352 1.349337,-0.59105 z m 96.043295,18.31782 c -0.0238,-0.68266 1.36696,-4.39516 3.0906,-8.25 2.56993,-5.74753 3.54906,-7.0088 5.44098,-7.0088 2.83127,0 3.43785,0.89511 2.37182,3.5 -1.14854,2.80651 -10.85069,13.26982 -10.9034,11.7588 z m -78.06227,-7.0088 c -6.02445,-6.68872 -7.78761,-9.84341 -6.32111,-11.30991 1.91655,-1.91655 4.45982,0.34792 8.88935,7.91489 2.44791,4.18176 4.45074,7.95011 4.45074,8.37411 0,1.9189 -2.23236,0.33532 -7.01898,-4.97909 z m 72.01898,4.21741 c 0,-1.52256 15.4154,-33.56727 16.6346,-34.57912 0.73696,-0.61162 2.02066,-0.85082 2.85267,-0.53155 2.3789,0.91287 1.77332,5.18326 -1.23727,8.7248 -2.56628,3.01887 -5.70489,7.93695 -13.13752,20.58595 -2.79378,4.75452 -5.11248,7.385 -5.11248,5.79992 z m -64.70976,-7.90801 c -1.53463,-2.5814 -4.16604,-6.8008 -5.84758,-9.37643 -5.88915,-9.0205 -10.442665,-18.03144 -10.442665,-20.66501 0,-2.18349 0.401025,-2.60011 2.250005,-2.33751 1.75138,0.24873 3.40465,2.64644 7.46029,10.81955 5.15557,10.38973 10.69055,24.9325 9.82046,25.80258 -0.24765,0.24765 -1.70588,-1.66178 -3.24051,-4.24318 z m 7.20976,-0.30862 c -6.18569,-8.30854 -8.11314,-14.25078 -4.62244,-14.25078 2.5685,0 3.60758,1.54631 5.51887,8.21292 0.90083,3.1421 1.9033,6.4046 2.22771,7.25 0.94043,2.45071 -0.94047,1.72093 -3.12414,-1.21214 z m 53.5,-1.23054 c 0,-4.72804 2.91683,-11.02024 5.10858,-11.02024 1.13826,0 1.88768,0.69685 1.88204,1.75 -0.009,1.74051 -5.59511,12.25 -6.51085,12.25 -0.26387,0 -0.47977,-1.34089 -0.47977,-2.97976 z m -27.51247,-1.27024 c -0.3317,-1.7875 -0.46459,-6.39535 -0.29531,-10.23966 0.25147,-5.71087 0.62742,-7.05061 2.05487,-7.32277 3.50994,-0.66921 3.83703,4.61706 1.14857,18.56243 -0.63419,3.28964 -2.21284,2.7468 -2.90813,-1 z m 66.54029,2.5 c 0.0531,-1.4308 12.33972,-16.42712 19.22218,-23.4614 2.98452,-3.05035 7.75,-1.69561 7.75,2.20319 0,2.05607 -6.39475,8.15546 -16.64339,15.87467 -7.61268,5.73381 -10.39559,7.18431 -10.32879,5.38354 z m -79.87247,-6.72635 c -2.49735,-7.60745 -2.70163,-10.82539 -0.78803,-12.41354 2.41155,-2.00141 4.07773,1.57142 4.48391,9.61495 0.50442,9.98899 -0.96914,11.1048 -3.69588,2.79859 z m 28.84465,-0.58939 c 0,-3.88616 0.46583,-7.93616 1.03518,-9 1.20621,-2.25381 3.7889,-2.55627 4.5647,-0.53457 0.48528,1.2646 -4.34589,16.60031 -5.22955,16.60031 -0.20368,0 -0.37033,-3.17958 -0.37033,-7.06574 z m -91.500005,-1.96236 c -5.5,-4.40798 -11.2375,-9.36202 -12.75,-11.00898 -3.031255,-3.30073 -3.582715,-6.70615 -1.23204,-7.60819 3.155368,-1.21083 7.713558,2.06529 13.801287,9.91943 11.919954,15.37863 12.807425,16.73605 10.930753,16.71904 -0.4125,-0.004 -5.25,-3.61332 -10.75,-8.0213 z m -11,-13.9719 c 0.339919,-0.55 0.141476,-1 -0.440983,-1 -0.582459,0 -1.059017,0.45 -1.059017,1 0,0.55 0.198442,1 0.440983,1 0.242541,0 0.719098,-0.45 1.059017,-1 z m 67.282025,18 c -0.3412,-0.825 -1.50748,-4.2 -2.59174,-7.5 -1.08426,-3.3 -3.21932,-9.64595 -4.74457,-14.10211 -2.80703,-8.20097 -2.79063,-11.39789 0.0584,-11.39789 2.32776,0 5.45298,8.18622 7.14577,18.71766 1.41137,8.78062 1.49269,17.57213 0.1321,14.28234 z m 42.24978,-0.67784 c -0.0175,-0.64781 1.09206,-5.37281 2.46568,-10.5 1.37361,-5.12719 2.49861,-10.53457 2.5,-12.0164 0.003,-3.19069 4.14952,-8.45098 5.83873,-7.40699 1.88768,1.16665 1.40699,3.40827 -3.35697,15.65459 -4.25791,10.94549 -7.37587,16.91929 -7.44744,14.2688 z m -29.98229,-15.23105 c -1.20997,-7.64989 -2.05359,-15.18354 -1.87472,-16.74145 0.35737,-3.11265 3.47997,-4.50204 4.94007,-2.19805 1.12958,1.78242 1.1389,32.84839 0.01,32.84839 -0.4814,0 -1.86525,-6.259 -3.07521,-13.90889 z m 59.95049,10.02404 c 0,-2.89901 7.43118,-15.05167 14.31907,-23.41683 4.50839,-5.47534 7.95737,-6.12375 8.48321,-1.59486 0.34515,2.97265 -7.97235,13.85913 -15.12623,19.79817 -2.29683,1.9068 -4.96355,4.12873 -5.92605,4.93763 -1.20296,1.01098 -1.75,1.09722 -1.75,0.27589 z M 98.228035,163.74432 c -1.65,-1.88592 -5.025,-6.25413 -7.5,-9.70714 -2.475,-3.45301 -5.747668,-7.9101 -7.272596,-9.90466 -4.462481,-5.83678 -4.919552,-11.29459 -0.94588,-11.29459 3.863433,0 10.964801,10.21511 16.209806,23.31732 3.895215,9.73039 3.722065,12.4049 -0.49133,7.58907 z m -5,-11.90639 c -0.339919,-0.55 -1.041476,-1 -1.559017,-1 -0.517541,0 -0.940983,0.45 -0.940983,1 0,0.55 0.701558,1 1.559017,1 0.857459,0 1.280902,-0.45 0.940983,-1 z m -1.5,-2.88337 c 0,-0.48585 -1.0125,-1.13847 -2.25,-1.45026 -2.173081,-0.54752 -2.18364,-0.51732 -0.30887,0.88337 2.264231,1.69166 2.55887,1.75693 2.55887,0.56689 z m -3,-4.55761 c 0,-0.24255 -0.45,-0.7191 -1,-1.05902 -0.55,-0.33992 -1,-0.14148 -1,0.44098 0,0.58246 0.45,1.05902 1,1.05902 0.55,0 1,-0.19844 1,-0.44098 z m -3.20531,-5.93372 c -0.70629,-0.75609 -1.886762,-1.14346 -2.623272,-0.86084 -1.115236,0.42796 -1.116115,0.65522 -0.0053,1.35939 0.733615,0.46504 1.914088,0.85241 2.623273,0.86084 1.050018,0.0125 1.050995,-0.23993 0.0053,-1.35939 z m 72.790675,17.1247 c 0.34844,-5.6375 1.1502,-11.3695 1.7817,-12.73777 1.39494,-3.02247 4.38746,-3.81552 5.31146,-1.40761 1.16071,3.02477 -4.7833,24.39538 -6.78532,24.39538 -0.56848,0 -0.69042,-4.0602 -0.30784,-10.25 z m -43.93393,-0.40802 c -1.56672,-2.42222 -3.31423,-5.85257 -3.88336,-7.62301 -0.56913,-1.77043 -1.4262,-3.89397 -1.9046,-4.71897 -2.66621,-4.59784 -5.86347,-12.13013 -5.86347,-13.81348 0,-2.52117 2.29756,-4.3933 4.40103,-3.58613 2.12868,0.81685 3.89565,4.11055 2.99071,5.57478 -0.41852,0.67717 -0.25551,0.85867 0.40471,0.45063 1.85834,-1.14852 7.87557,21.10449 7.04731,26.06246 -0.28625,1.71349 -0.82031,1.32097 -3.19233,-2.34628 z m 74.02338,-6.43685 c 5.61091,-16.75119 9.17775,-22.12477 13.242,-19.94965 3.1297,1.67496 2.6598,6.12772 -1.18384,11.21792 -1.79687,2.37963 -4.71018,6.59779 -6.47404,9.37369 -2.72401,4.28697 -7.43467,9.45291 -8.6198,9.45291 -0.19012,0 1.17594,-4.54269 3.03568,-10.09487 z m 10.32519,-11.90513 c 0,-0.55 -0.19844,-1 -0.44098,-1 -0.24254,0 -0.7191,0.45 -1.05902,1 -0.33992,0.55 -0.14148,1 0.44098,1 0.58246,0 1.05902,-0.45 1.05902,-1 z m -64.78624,14.91173 c -2.2411,-6.16762 -7.27556,-25.37566 -7.39034,-28.19644 -0.21216,-5.2139 1.70491,-6.96623 4.23451,-3.87063 3.06699,3.75324 4.02999,9.33593 3.68877,21.38455 -0.17555,6.19893 -0.41538,11.00607 -0.53294,10.68252 z m 35.78624,-4.87627 c 0,-2.061 3.87789,-20.67214 4.80833,-23.07656 0.54082,-1.3976 1.66636,-3.10797 2.50119,-3.80082 1.25426,-1.04094 1.88022,-0.87079 3.60418,0.97966 1.14746,1.23166 2.0863,2.86568 2.0863,3.63115 0,2.05483 -11.01656,23.23111 -12.08555,23.23111 -0.50295,0 -0.91445,-0.43405 -0.91445,-0.96454 z m 8.46567,-22.8856 c -0.56346,-0.59315 -2.46567,0.91014 -2.46567,1.94858 0,0.53923 0.62961,0.40017 1.39914,-0.30901 0.76953,-0.70919 1.24947,-1.44699 1.06653,-1.63957 z m -27.04894,17.22078 c -1.41864,-9.31236 -1.06635,-22.13345 0.65573,-23.86397 2.08403,-2.09424 4.45889,-1.05231 5.98185,2.62445 1.31201,3.16747 0.54289,8.4039 -2.84485,19.36888 -2.18166,7.06126 -2.94466,7.43759 -3.79273,1.87064 z"
             id="path1146"
             inkscape:connector-curvature="0"
             sodipodi:nodetypes="ssscscsccccssccsccsccscsscccscsscsscsscccccccccccccsscsssccssssssssccsscssccsccsccccsccscscccccccccscccccssccscsccsccsccsccsssccscsccccsscssssscscscssssccccccccsccsssccccccccscccccscssssccccscccsccscccscscsscsscsssscscssssssscscssscscccscscsssscsccccssssscssccsccsccccccccccssscccsccsccccccccssccccssccccsccccscscccsscsccscsccscccssssccssssscscccscssssccsccscccsscsscsccssccccccscsscsssscsccsssccccscscssccscccccscsscccsccccccsscscssccccccccccsccccccscccsscccssscssssscsccscccsscsssssssssccsscscsccccccsscccccssssscscscsssccsccsccscssssscccssccscssscscsccscsscccccccccssscccscscssssscssccsccscccccccccsccsscssscsccccsccsscscscssccccsssssssssssccsscscscccsscssccsscsscccscscsscsscssscssccsssssscccscccssssscscsssssscsssccscssscssssssccsssscscscscssccsscsscsscccssscsssssccsssssscsssssscscsscccccssccccsccscsccsssssssssssssccsssssscccccscssssccsccsssscscssssssscscscscccssscsccssccs" />
          <path
             style="fill:#ff00ff"
             d="m 140.72803,495.83793 c -1.99891,-1.99891 -2.40214,-3.1795 -2.04932,-6 0.51675,-4.13104 8.57993,-5.4694 12.04933,-2 2.40149,2.40149 2.45635,3.21683 0.47431,7.04966 -1.24535,2.40824 -2.16405,2.95034 -5,2.95034 -2.14098,0 -4.24185,-0.76754 -5.47432,-2 z m -18.71077,-3.51969 c -1.57598,-3.30486 -1.57388,-3.62423 0.0345,-5.23258 1.09133,-1.09134 3.15517,-1.67509 5.68746,-1.60869 5.14615,0.13494 7.31932,1.90805 6.47273,5.28116 -1.00318,3.99697 -2.41486,5.0798 -6.62252,5.0798 -3.46955,0 -4.07658,-0.38343 -5.57215,-3.51969 z m 104.71078,-18.53933 c 0,-0.58246 0.45,-0.7809 1,-0.44098 0.55,0.33992 1,0.81648 1,1.05902 0,0.24254 -0.45,0.44098 -1,0.44098 -0.55,0 -1,-0.47656 -1,-1.05902 z m -6.25,-0.63031 c -2.2844,-0.59697 -2.21179,-1.84888 0.25,-4.31067 2.12656,-2.12656 7.17027,-2.77296 6.75,-0.86508 -0.27375,1.24277 -4.24475,5.9357 -4.86467,5.74908 -0.21193,-0.0638 -1.17283,-0.3218 -2.13533,-0.57333 z m 21.5,-1.29971 c -3.80864,-2.32218 -4.2089,-5.22592 -1.02749,-7.45426 4.87654,-3.41566 10.71021,-1.0678 8.85634,3.56439 -0.52364,1.3084 -0.9806,1.81641 -1.01546,1.12891 -0.0707,-1.39405 -3.06339,-1.7579 -3.06339,-0.37244 0,0.48265 0.6963,1.45543 1.54733,2.16172 1.2359,1.02571 1.28622,1.44982 0.25,2.10714 -1.77618,1.12671 -1.86789,1.10794 -5.54733,-1.13546 z m -35.25914,-0.52197 c -0.67966,-0.81894 -1.88597,-1.48899 -2.68069,-1.48899 -1.01825,0 -1.24576,-0.62758 -0.77042,-2.12523 0.48242,-1.51997 0.3308,-1.9128 -0.53238,-1.37932 -0.92727,0.57308 -0.94678,0.25985 -0.0842,-1.35185 2.67407,-4.99655 9.39777,-4.69745 10.69618,0.47581 0.67236,2.67893 -0.53245,5.86676 -2.22832,5.8959 -0.49005,0.008 -1.40252,0.34097 -2.0277,0.73899 -0.62518,0.39802 -1.69278,0.0536 -2.37245,-0.76531 z m -49.20155,17.14771 c -2.11775,-1.60895 -3.91808,-6.13757 -3.19209,-8.02947 0.5755,-1.49972 3.50033,-2.57113 7.0802,-2.59358 2.26152,-0.0142 6.32257,4.23869 6.32257,6.62121 0,2.14852 -3.77322,5.36835 -6.25,5.33334 -1.23749,-0.0175 -3.0198,-0.61667 -3.96068,-1.3315 z m -51.33477,-3.09125 c -2.92838,-2.92837 -3.08601,-4.66401 -0.6258,-6.89046 4.27996,-3.87331 13.24183,-0.60343 11.69588,4.26743 -1.71819,5.41353 -7.02269,6.67043 -11.07008,2.62303 z m 153.04546,-20.75327 c -4.74378,-2.72055 -5.02986,-5.84939 -0.93847,-10.26407 2.88603,-3.11407 6.68674,-3.25137 9.39951,-0.33955 2.60057,2.79138 2.58939,5.84196 -0.0336,9.17658 -2.20392,2.80183 -5.158,3.30206 -8.42742,1.42704 z m -134.5615,10.14633 c -2.78363,-2.78363 -2.15533,-6.14718 1.37957,-7.38537 4.14283,-1.45113 8.2555,1.09452 7.9708,4.93374 -0.3565,4.80748 -5.6156,6.18639 -9.35037,2.45163 z m 41.23581,-1.25296 c -4.2665,-4.54148 -1.27457,-10.08555 5.4428,-10.08555 3.99753,0 5.34536,1.50538 5.36757,5.99501 0.0297,6.00943 -6.63757,8.53228 -10.81037,4.09054 z m 25.4407,-18.15037 c -2.1183,-3.23294 -2.03744,-4.84291 0.35185,-7.00519 3.66612,-3.31779 11.03314,-1.04589 11.03314,3.40249 0,5.78615 -8.24485,8.39517 -11.38499,3.6027 z m 32.63499,0.36104 c -4.81482,-2.05531 -5.54132,-4.6049 -2.25,-7.89622 2.18831,-2.18831 4.56389,-2.49651 8.29852,-1.0766 2.85092,1.08392 3.92638,3.33235 3.12367,6.53059 -0.9221,3.67394 -4.22595,4.55364 -9.17219,2.44223 z m -82.19982,17.66425 c -1.99212,-2.40036 -0.84942,-6.83073 2.19982,-8.52893 2.46961,-1.37539 3.03038,-1.37539 5.5,0 3.25269,1.81151 4.11458,5.96102 1.73286,8.34274 -2.01246,2.01246 -7.82184,2.12713 -9.43268,0.18619 z m -46.415326,-3.63305 c -4.936808,-3.88329 -2.025143,-10.32817 4.581197,-10.14034 3.601299,0.10239 5.783939,2.35517 5.783939,5.96979 0,6.16992 -5.17581,8.25247 -10.365136,4.17055 z M 239.18309,448.38388 c -2.09986,-2.09985 -2.29388,-2.80558 -1.34428,-4.88972 1.07946,-2.36915 4.65594,-4.65623 7.2813,-4.65623 2.08348,0 4.60793,3.43613 4.60793,6.27204 0,2.81741 -3.18493,5.72796 -6.26796,5.72796 -1.00262,0 -2.92727,-1.10432 -4.27699,-2.45405 z m -124.0666,16.4741 c -4.28219,-1.73022 -3.47339,-7.27686 1.32724,-9.10206 3.18327,-1.21027 7.28431,1.13787 7.28431,4.1708 0,5.12525 -3.36395,7.05156 -8.61155,4.93126 z m 92.31827,-20.03611 c -2.90449,-2.28467 -3.65143,-6.63923 -1.50672,-8.78394 3.15373,-3.15373 11.8,-0.10147 11.8,4.16557 0,5.46188 -5.87171,8.09639 -10.29328,4.61837 z m 58.65736,0.84647 c -1.17475,-0.56883 -2.63735,-2.13476 -3.25022,-3.47986 -0.96844,-2.1255 -0.76251,-2.77167 1.57327,-4.9364 2.13629,-1.97984 3.3158,-2.35622 5.75022,-1.83486 4.15843,0.89058 4.31756,1.02833 5.05229,4.37353 1.30038,5.9206 -3.13582,8.77787 -9.12556,5.87759 z M 151.92153,461.0571 c -1.26857,-0.20519 -2.80533,-1.4679 -3.41502,-2.80602 -0.93994,-2.06294 -0.75276,-2.81162 1.23082,-4.92304 4.31742,-4.59569 9.41484,-2.5202 8.80894,3.58667 -0.34256,3.45256 -2.51016,4.80794 -6.62474,4.14239 z m -20.62616,-2.14477 c -2.26679,-2.50477 -1.69264,-5.14674 1.50903,-6.94379 5.55091,-3.11564 10.78759,1.37568 7.48351,6.41835 -1.97853,3.01962 -6.49644,3.2836 -8.99254,0.52544 z m 36.18267,-2.64637 c -4.93804,-2.67894 -3.19536,-9.87865 2.65685,-10.97653 4.83144,-0.90639 7.59315,0.86167 7.59315,4.86118 0,6.6913 -4.37595,9.30207 -10.25,6.11535 z m 19.71528,-17.37955 c -5.055,-2.049 -5.4997,-6.66937 -0.93008,-9.6635 6.13822,-4.02192 13.98504,4.11927 8.63606,8.96003 -1.97159,1.78427 -4.47563,2.01286 -7.70598,0.70347 z m 37.34171,-0.79848 c -4.00356,-4.66153 -2.21057,-9.26343 3.598,-9.23469 3.92283,0.0194 5.13133,0.8472 5.91395,4.05086 1.35534,5.54809 -5.83406,9.46618 -9.51195,5.18383 z m -130.806995,11.75 c -4.264722,-4.26472 -1.097411,-10 5.522506,-10 3.940099,0 5.477499,1.58393 5.477499,5.6433 0,5.70305 -6.914911,8.44179 -11.000005,4.3567 z M 241.38303,431.00919 c -2.25975,-2.49699 -2.07801,-4.42522 0.65946,-6.99695 2.74412,-2.57796 4.46135,-2.72007 7.46304,-0.61761 2.4485,1.715 3.01156,6.25425 1.02251,8.2433 -1.82153,1.82153 -7.26632,1.44719 -9.14501,-0.62874 z m -122.02014,15.75616 c -3.29578,-2.59247 -3.33571,-4.4221 -0.14214,-6.5146 5.57877,-3.65535 11.65792,2.61753 6.54726,6.7559 -2.84183,2.30117 -3.18955,2.28807 -6.40512,-0.2413 z m 24.89885,0.10983 c -2.2259,-2.4596 -1.48818,-4.49231 2.35084,-6.47754 2.69908,-1.39576 3.1384,-1.39391 4.55145,0.0191 1.85859,1.85859 2.04421,5.54094 0.364,7.22115 -1.80715,1.80715 -5.26947,1.4437 -7.26629,-0.76275 z m 119.68881,-20.59395 c -2.97875,-2.0864 -2.80265,-4.8418 0.47418,-7.41936 1.856,-1.45993 3.80444,-2.02812 6.25,-1.82258 2.97256,0.24983 3.60201,0.71684 3.85128,2.85738 0.16388,1.40731 -0.16248,3.76981 -0.72525,5.25 -0.82572,2.17179 -1.66062,2.69126 -4.32546,2.69126 -1.81624,0 -4.30238,-0.70052 -5.52475,-1.5567 z m -53.47454,-0.60626 c -6.28028,-2.29361 -3.22963,-10.83704 3.86964,-10.83704 5.75147,0 8.65673,7.29358 4.15988,10.4433 -2.51163,1.75921 -4.08004,1.83612 -8.02952,0.39374 z m -77.52547,15.60626 c -4.17278,-2.92274 -1.43509,-9.4433 3.96482,-9.4433 3.64763,0 5.0437,6.57596 1.98393,9.34501 -2.2659,2.05062 -3.14077,2.06507 -5.94875,0.0983 z m 25.4821,-3.6933 c -2.47654,-1.84523 -3.24665,-7.05526 -1.28367,-8.68438 2.25051,-1.86776 9.43915,-1.90156 10.60994,-0.0499 1.33943,2.11837 1.1304,6.18803 -0.42292,8.23428 -1.54552,2.03596 -6.47068,2.31255 -8.90335,0.5 z m 31.95039,-18.57874 c -2.26941,-2.50767 -2.12029,-6.85187 0.27927,-8.13608 2.59527,-1.38894 6.39152,-1.3094 7.86574,0.16482 1.28089,1.28089 1.59337,5.61132 0.59301,8.21821 -0.85073,2.21697 -6.6567,2.05289 -8.73802,-0.24695 z m -86.48068,15.51429 c -3.18417,-3.38939 -2.85434,-7.28253 0.77603,-9.15987 4.08501,-2.11244 6.33789,-1.91222 8.87534,0.78877 2.82186,3.00373 2.74695,5.20382 -0.28023,8.231 -3.08088,3.08088 -6.55956,3.13289 -9.37114,0.1401 z m 125.64436,-17.20147 c -4.12551,-2.27098 -4.62877,-5.39051 -1.32771,-8.22996 5.96811,-5.13356 13.1815,-0.11923 9.4426,6.56395 -1.76934,3.16266 -4.41087,3.70498 -8.11489,1.66601 z m 24.25391,-7.11894 c -1.13992,-1.44917 -2.07258,-2.98737 -2.07258,-3.41821 0,-3.8162 4.96337,-6.89946 9.93258,-6.17013 2.14369,0.31462 2.99825,1.08105 3.36924,3.02176 0.55486,2.90255 -0.7993,7.26165 -2.61438,8.41578 -2.56079,1.62828 -6.55365,0.77121 -8.61486,-1.8492 z m -132.8923,16.35209 c -0.58553,-0.70552 -1.5225,-2.48713 -2.08215,-3.95912 -0.88675,-2.33233 -0.67481,-2.94594 1.64888,-4.77375 6.13077,-4.82246 15.15002,3.1789 9.42424,8.36065 -2.17129,1.96499 -7.48647,2.18503 -8.99097,0.37222 z m 19.4747,-0.54597 c -3.47226,-3.8368 -1.02788,-8.54668 5.06842,-9.76594 2.46844,-0.49369 3.31248,-0.20678 4.18438,1.42238 1.64162,3.06739 1.32228,5.94224 -0.90779,8.1723 -2.4958,2.49581 -6.17303,2.57127 -8.34501,0.17126 z m 62.59502,-20.8098 c -0.6875,-0.29047 -1.25,-1.16563 -1.25,-1.94479 0,-0.77917 -0.675,-1.41667 -1.5,-1.41667 -2.36473,0 -1.75306,-2.65578 1.13486,-4.92742 3.22005,-2.53289 6.46403,-2.64644 9.21586,-0.32258 1.70186,1.43719 1.93876,2.37562 1.32529,5.25 -0.66734,3.1268 -1.11641,3.52077 -4.2115,3.69479 -1.90548,0.10714 -4.02701,-0.0429 -4.71451,-0.33333 z m 37.34341,-3.61146 c -3.5798,-3.19865 -4.17757,-6.74585 -1.60257,-9.50979 2.46843,-2.64955 5.66954,-2.86682 8.90006,-0.60407 1.99341,1.39624 2.2557,2.23419 1.78884,5.71491 -0.52734,3.9316 -2.69956,6.64895 -5.31511,6.64895 -0.6892,0 -2.38625,-1.0125 -3.77122,-2.25 z m -21.05064,-2.29835 c -4.33171,-4.674 -2.70351,-9.06447 3.74992,-10.11172 3.00712,-0.48799 4.0801,-0.2261 5.21491,1.27283 3.13073,4.13526 1.22602,9.7395 -3.71483,10.93018 -2.1515,0.51848 -3.2292,0.0892 -5.25,-2.09129 z M 37.59866,143.80901 C 27.987322,142.20875 20.049562,137.34278 14.45743,129.62307 7.8731253,120.5337 6.402939,111.59295 9.7491677,100.99037 14.005249,87.504903 20.066538,81.52292 33.200832,77.845545 c 8.450271,-2.365929 21.926143,0.208205 24.826893,4.742384 0.43983,0.6875 1.451033,1.25 2.247119,1.25 2.574893,0 8.992316,6.735476 11.907944,12.498114 2.739487,5.414497 2.819126,5.986827 2.244646,16.131367 -0.498543,8.80362 -1.010348,11.2254 -3.140458,14.86016 -4.52628,7.72351 -13.958045,14.53406 -22.058941,15.92847 -2.2,0.37869 -4.675,0.83145 -5.5,1.00613 -0.825,0.17469 -3.583219,-0.0292 -6.129375,-0.45316 z m 8.129375,-7.97108 c 0,-0.55 -0.45,-1 -1,-1 -0.55,0 -1,0.45 -1,1 0,0.55 0.45,1 1,1 0.55,0 1,-0.45 1,-1 z"
             id="path1144"
             inkscape:connector-curvature="0"
             sodipodi:nodetypes="cscsscscssscscssscscccscscscsscccccccscccccsccccsccsccccsssssssssssssssssssccsscsscsssscscssccsccccssccccscccccccsccccccsscscsscscscscsscccccccssccscsccscscccsccsscssccscscscccccccscccscscscscsccsscsccccscscccccccsssssssscccssssss" />
          <path
             style="fill:#00ffff"
             d="m 62.728035,429.83793 c -1.998911,-1.99891 -2.402148,-3.1795 -2.049329,-6 0.516756,-4.13104 8.579932,-5.4694 12.049329,-2 2.401495,2.40149 2.456353,3.21683 0.47432,7.04966 -1.245351,2.40824 -2.164054,2.95034 -5,2.95034 -2.140987,0 -4.241856,-0.76754 -5.47432,-2 z m -18.710778,-3.51969 c -1.575982,-3.30486 -1.573878,-3.62423 0.03448,-5.23258 1.091331,-1.09134 3.155174,-1.67509 5.687458,-1.60869 5.146156,0.13494 7.319328,1.90805 6.472731,5.28116 -1.003176,3.99697 -2.414854,5.0798 -6.622515,5.0798 -3.469552,0 -4.076581,-0.38343 -5.572154,-3.51969 z m 35.500093,-3.84361 c -2.117746,-1.60895 -3.91808,-6.13757 -3.192088,-8.02947 0.575496,-1.49972 3.500324,-2.57113 7.080193,-2.59358 2.261523,-0.0142 6.32258,4.23869 6.32258,6.62121 0,2.14852 -3.773227,5.36835 -6.25,5.33334 -1.2375,-0.0175 -3.019808,-0.61667 -3.960685,-1.3315 z m -51.33477,-3.09125 c -2.928377,-2.92837 -3.08601,-4.66401 -0.625804,-6.89046 4.27996,-3.87331 13.241833,-0.60343 11.695883,4.26743 -1.71819,5.41353 -7.022687,6.67043 -11.070079,2.62303 z m 18.483962,-10.60694 c -2.78363,-2.78363 -2.155329,-6.14718 1.379566,-7.38537 4.142828,-1.45113 8.255504,1.09452 7.970804,4.93374 -0.356501,4.80748 -5.615606,6.18639 -9.35037,2.45163 z m 41.235807,-1.25296 c -4.2665,-4.54148 -1.27457,-10.08555 5.4428,-10.08555 3.997533,0 5.34536,1.50538 5.367573,5.99501 0.02973,6.00943 -6.637577,8.53228 -10.810373,4.09054 z M 63.778222,407.3984 c -1.992123,-2.40036 -0.849425,-6.83073 2.199813,-8.52893 2.469617,-1.37539 3.030383,-1.37539 5.5,0 3.252695,1.81151 4.114585,5.96102 1.732862,8.34274 -2.012457,2.01246 -7.82184,2.12713 -9.432675,0.18619 z m -46.415328,-3.63305 c -4.936808,-3.88329 -2.025143,-10.32817 4.581197,-10.14034 3.601298,0.10239 5.783944,2.35517 5.783944,5.96979 0,6.16992 -5.175818,8.25247 -10.365141,4.17055 z m 19.753593,-4.90737 c -4.282185,-1.73022 -3.473385,-7.27686 1.327242,-9.10206 3.183271,-1.21027 7.284306,1.13787 7.284306,4.1708 0,5.12525 -3.363946,7.05156 -8.611548,4.93126 z m 36.805046,-3.80088 c -1.268576,-0.20519 -2.805336,-1.4679 -3.415022,-2.80602 -0.939941,-2.06294 -0.752764,-2.81162 1.230816,-4.92304 4.317423,-4.59569 9.414842,-2.5202 8.808939,3.58667 -0.342551,3.45256 -2.510151,4.80794 -6.624733,4.14239 z M 53.29537,392.91233 c -2.266794,-2.50477 -1.69264,-5.14674 1.509034,-6.94379 5.55091,-3.11564 10.787591,1.37568 7.483506,6.41835 -1.978526,3.01962 -6.496443,3.2836 -8.99254,0.52544 z m 36.182665,-2.64637 c -4.93804,-2.67894 -3.195357,-9.87865 2.656856,-10.97653 4.831441,-0.90639 7.593144,0.86167 7.593144,4.86118 0,6.6913 -4.375946,9.30207 -10.25,6.11535 z m -73.75,-6.42803 c -4.264722,-4.26472 -1.097411,-10 5.522506,-10 3.940103,0 5.477494,1.58393 5.477494,5.6433 0,5.70305 -6.914906,8.44179 -11,4.3567 z m 25.634859,-3.07258 c -3.295788,-2.59247 -3.33571,-4.4221 -0.142144,-6.5146 5.578767,-3.65535 11.657921,2.61753 6.547255,6.7559 -2.841822,2.30117 -3.189543,2.28807 -6.405111,-0.2413 z m 24.898847,0.10983 c -2.225899,-2.4596 -1.488184,-4.49231 2.350837,-6.47754 2.699084,-1.39576 3.138402,-1.39391 4.551448,0.0191 1.858593,1.85859 2.044216,5.54094 0.364009,7.22115 -1.807151,1.80715 -5.269475,1.4437 -7.266294,-0.76275 z m -11.3112,-5.59395 c -4.172785,-2.92274 -1.435093,-9.4433 3.964816,-9.4433 3.647636,0 5.043706,6.57596 1.983937,9.34501 -2.265904,2.05062 -3.140772,2.06507 -5.948753,0.0983 z m 25.482095,-3.6933 c -2.476536,-1.84523 -3.246644,-7.05526 -1.283662,-8.68438 2.250506,-1.86776 9.439147,-1.90156 10.609939,-0.0499 1.339425,2.11837 1.130402,6.18803 -0.422924,8.23428 -1.545517,2.03596 -6.470675,2.31255 -8.903353,0.5 z m -54.530287,-3.06445 c -3.184168,-3.38939 -2.85434,-7.28253 0.776026,-9.15987 4.08501,-2.11244 6.337895,-1.91222 8.875346,0.78877 2.821857,3.00373 2.746953,5.20382 -0.280231,8.231 -3.080877,3.08088 -6.559564,3.13289 -9.371141,0.1401 z m 17.00597,-7.96832 c -0.585533,-0.70552 -1.5225,-2.48713 -2.082149,-3.95912 -0.886753,-2.33233 -0.674812,-2.94594 1.648879,-4.77375 6.130768,-4.82246 15.150018,3.1789 9.424245,8.36065 -2.171289,1.96499 -7.486471,2.18503 -8.990975,0.37222 z m 19.474704,-0.54597 c -3.472259,-3.8368 -1.027884,-8.54668 5.068418,-9.76594 2.468439,-0.49369 3.312484,-0.20678 4.184382,1.42238 1.641617,3.06739 1.322275,5.94224 -0.907788,8.1723 -2.495806,2.49581 -6.173031,2.57127 -8.345012,0.17126 z M 242.72804,138.9008 c -4.87935,-1.49351 -12.54006,-5.91859 -15.32412,-8.85171 -1.55327,-1.63644 -4.13908,-5.6159 -5.74624,-8.84325 -6.39234,-12.83648 -2.21069,-32.490241 8.73936,-41.075036 5.15026,-4.03778 6.76402,-4.798634 14.18293,-6.686966 22.91908,-5.83358 42.26512,12.90383 39.01647,37.789002 -1.47268,11.28093 -6.76705,20.43284 -13.97734,24.16143 -7.90418,4.0874 -19.88804,5.65007 -26.89106,3.50653 z"
             id="path1140"
             inkscape:connector-curvature="0"
             sodipodi:nodetypes="cscsscccsssccccsccccscssssssssscccsssssscsscccsccsccccscssssscsscccccccscccsccssscscscccscssscsscsssscs" />
        </g>
      </g>
    </g>
  </g>
</svg>
