<?xml version="1.0" encoding="UTF-8" standalone="no"?>
<!-- Created with Inkscape (http://www.inkscape.org/) -->

<svg
   xmlns:dc="http://purl.org/dc/elements/1.1/"
   xmlns:cc="http://creativecommons.org/ns#"
   xmlns:rdf="http://www.w3.org/1999/02/22-rdf-syntax-ns#"
   xmlns:svg="http://www.w3.org/2000/svg"
   xmlns="http://www.w3.org/2000/svg"
   xmlns:sodipodi="http://sodipodi.sourceforge.net/DTD/sodipodi-0.dtd"
   xmlns:inkscape="http://www.inkscape.org/namespaces/inkscape"
   version="1.1"
   id="svg2949"
   width="283"
   height="443"
   viewBox="0 0 283 443"
   sodipodi:docname="feu151.svg"
   inkscape:version="0.92.4 (5da689c313, 2019-01-14)">
  <metadata
     id="metadata2955">
    <rdf:RDF>
      <cc:Work
         rdf:about="">
        <dc:format>image/svg+xml</dc:format>
        <dc:type
           rdf:resource="http://purl.org/dc/dcmitype/StillImage" />
        <dc:title></dc:title>
      </cc:Work>
    </rdf:RDF>
  </metadata>
  <defs
     id="defs2953" />
  <sodipodi:namedview
     pagecolor="#ffffff"
     bordercolor="#666666"
     borderopacity="1"
     objecttolerance="10"
     gridtolerance="10"
     guidetolerance="10"
     inkscape:pageopacity="0"
     inkscape:pageshadow="2"
     inkscape:window-width="1280"
     inkscape:window-height="972"
     id="namedview2951"
     showgrid="false"
     inkscape:zoom="1.0654628"
     inkscape:cx="102.52736"
     inkscape:cy="224.72047"
     inkscape:window-x="-8"
     inkscape:window-y="-8"
     inkscape:window-maximized="1"
     inkscape:current-layer="g928"
     showguides="true" />
  <g
     id="g151"
     transform="translate(25.882805,-2.654647)">
    <g
       id="g534"
       transform="translate(-21.900834,-45.792654)">
      <g
         id="g928"
         transform="translate(-3.9819699,-1.3273232)">
        <g
           id="g1397"
           transform="translate(8.4470337,-3.2849578)">
          <path
             style="fill:#00ffff"
             d="m 184.26271,366.00502 c -3.15825,-1.71432 -4.79378,-7.61969 -2.93476,-10.59646 0.62763,-1.005 1.14115,-2.46436 1.14115,-3.24302 0,-1.48236 4.88199,-3.61139 8.28115,-3.61139 3.06434,0 8.71885,6.58144 8.71885,10.14813 0,6.8411 -8.51943,10.93248 -15.20639,7.30274 z m -24.47028,-2.70087 c -2.78216,-3.09082 -3.4718,-5.44164 -2.74029,-9.34093 0.51984,-2.77101 1.32884,-3.59191 4.87423,-4.9459 4.00886,-1.531 4.44432,-1.51649 7.64683,0.25481 3.51942,1.94658 3.91721,2.62753 4.65864,7.97475 0.97168,7.00777 -9.59415,11.44009 -14.43941,6.05727 z m -94.847573,-0.1702 c -9.112342,-3.89716 -4.677385,-17.83386 5.091904,-16.00113 2.576234,0.48331 4.166453,1.57773 5.521584,3.80007 2.505438,4.10877 2.408157,6.96666 -0.339249,9.96631 -2.84978,3.11142 -6.412488,3.88635 -10.274239,2.23475 z m 144.580403,-4.67748 c -2.67325,-2.67325 -3.04769,-3.6794 -2.73281,-7.34325 0.20067,-2.33507 0.70373,-4.79387 1.1179,-5.464 1.42098,-2.2992 5.56291,-3.17104 9.73185,-2.04846 3.18062,0.85645 4.27833,1.78957 5.4753,4.65433 1.78708,4.27708 1.13052,7.61105 -2.14361,10.88518 -3.42148,3.42148 -7.59247,3.17235 -11.44863,-0.6838 z m -116.364694,1.30586 c -3.22497,-0.40456 -6.681789,-5.19669 -6.687732,-9.27109 -0.0045,-3.0899 4.712706,-7.93709 7.724252,-7.93709 1.16521,0 3.50309,1.165 5.19528,2.58889 2.548194,2.14416 3.076734,3.32004 3.076734,6.84502 0,5.87682 -3.190834,8.54173 -9.308534,7.77427 z m 47.610894,-4.21997 c -2.54113,-1.02335 -5.31244,-5.84604 -5.28012,-9.18855 0.0466,-4.82207 6.08898,-9.37342 11.00938,-8.29272 3.45275,0.75836 7.94018,5.70228 7.45996,8.21885 -0.18621,0.97582 -0.37299,2.37133 -0.41507,3.10113 -0.0421,0.72981 -1.39189,2.64231 -2.99959,4.25 -2.97213,2.97214 -5.77795,3.52078 -9.77456,1.91129 z m -101.000004,-1 c -3.497516,-1.4085 -5.665044,-6.50906 -4.35864,-10.25661 1.728322,-4.95787 3.917968,-6.7316 8.310058,-6.7316 3.103085,0 4.548457,0.64728 6.780232,3.03641 3.388843,3.62777 4.028007,6.51163 2.257117,10.18395 -2.159976,4.47917 -7.427859,6.0073 -12.988767,3.76785 z m 74.162924,-2.90189 c -3.35602,-1.42275 -4.70444,-3.84033 -4.64257,-8.32366 0.0708,-5.13146 2.72605,-7.76266 7.83353,-7.76266 5.60146,0 9.20016,4.72026 8.38633,11 -0.51335,3.9612 -7.24997,6.92084 -11.57729,5.08632 z m 117.12361,-9.16305 c -6.76066,-8.03458 1.40826,-18.74145 10.56151,-13.84278 3.28216,1.75656 5.16513,7.43341 3.81876,11.51294 -1.3176,3.99237 -3.49243,5.40657 -8.31452,5.40657 -2.65481,0 -4.08896,-0.72744 -6.06575,-3.07673 z M 18.392173,335.63107 c -3.574947,-3.57494 -3.914782,-8.54645 -0.850497,-12.44206 2.786136,-3.542 9.537176,-3.7468 12.686494,-0.38486 2.718557,2.9021 4.353246,7.25562 3.563861,9.49132 -2.391299,6.77264 -10.258736,8.47672 -15.399858,3.3356 z m 110.409987,-2.65295 c -2.23397,-2.23397 -2.50698,-3.18858 -2.05606,-7.18919 0.31703,-2.81263 1.21964,-5.12477 2.31262,-5.92397 2.66627,-1.94963 7.78893,-1.58748 10.77552,0.76177 2.10014,1.65197 2.63486,2.92593 2.63486,6.27749 0,6.02129 -2.15829,8.64993 -7.10216,8.64993 -2.95273,0 -4.65784,-0.66909 -6.56478,-2.57603 z m 117.18776,-9.81224 c -5.11515,-5.11515 -3.93814,-13.36197 2.24245,-15.71182 9.50857,-3.61516 16.5103,10.53258 8.32339,16.81829 -2.70151,2.07415 -7.93308,1.52629 -10.56584,-1.10647 z M 115.5459,320.28226 c -3.66499,-1.85747 -5.947,-6.5951 -4.92666,-10.22811 1.10269,-3.92619 3.38283,-5.5 7.96841,-5.5 4.53622,0 7.88145,3.59102 7.88145,8.46054 0,5.45069 -6.27303,9.62435 -10.9232,7.26757 z M 6.4291617,313.51422 c -3.563351,-3.56335 -4.2230809,-6.7648 -2.23278,-10.83491 1.600307,-3.27259 2.252057,-3.68019 6.7013973,-4.19096 4.551416,-0.52248 5.147168,-0.33112 7.783014,2.5 2.4056,2.58382 2.78044,3.69304 2.384313,7.05558 -0.29145,2.47399 -1.295879,4.65852 -2.643799,5.75 -3.032807,2.45582 -9.4052483,2.30718 -11.9921453,-0.27971 z M 141.83352,313.09685 c -1.14432,-0.80152 -2.67201,-3.56965 -3.39486,-6.15141 -1.31136,-4.68374 -1.30723,-4.70039 1.87386,-7.5427 3.93628,-3.51706 8.31892,-3.74383 11.56853,-0.59859 2.91837,2.82464 3.6701,5.86897 2.49769,10.11509 -1.40953,5.10491 -8.05965,7.31942 -12.54522,4.17761 z M 252.89877,301.6273 c -6.85414,-2.89937 -7.09357,-14.31287 -0.35876,-17.10252 4.02601,-1.66763 9.50422,0.30708 11.48657,4.14052 1.80517,3.49081 1.08899,8.99383 -1.47212,11.3116 -2.1759,1.96917 -6.96642,2.78798 -9.65569,1.6504 z m -141.1143,-4.08013 c -4.96145,-1.99901 -5.96256,-10.43674 -1.73935,-14.65995 2.18174,-2.18174 3.19906,-2.49245 6.64675,-2.03002 5.57906,0.74831 8.27093,3.64567 8.13688,8.75803 -0.18929,7.21895 -6.01764,10.76304 -13.04428,7.93194 z M 7.5037957,290.8201 c -3.063485,-1.20455 -4.968187,-4.7695 -5.001431,-9.36096 -0.046182,-6.37856 2.650452,-8.49236 10.2258333,-8.01568 0.967506,0.0609 2.992506,1.34819 4.5,2.86069 6.51203,6.53365 -1.105648,17.90483 -9.7244023,14.51595 z M 144.74237,287.57414 c -5.87842,-3.57488 -7.13838,-10.24579 -2.76179,-14.62238 2.03063,-2.03063 3.31674,-2.45272 6.71736,-2.20455 3.50479,0.25578 4.58637,0.87334 6.48852,3.70482 2.95641,4.40084 2.96949,9.12981 0.0326,11.79657 -3.40711,3.09377 -6.85233,3.52967 -10.47673,1.32554 z m -28.9443,-14.72797 c -1.74407,-0.86904 -3.42543,-2.52776 -3.73635,-3.68605 -2.12835,-7.92878 2.24103,-12.59514 9.83118,-10.4994 6.25812,1.72795 8.50535,9.05519 4.12165,13.43888 -2.80291,2.80292 -5.66926,3.01238 -10.21648,0.74657 z m 129.55353,0.20543 c -1.63695,-0.8896 -2.85445,-2.60719 -3.25,-4.58497 -0.9717,-4.85847 -0.82222,-5.53356 1.95639,-8.83575 2.08762,-2.481 3.35498,-3.07673 6.54546,-3.07673 7.4086,0 11.05623,6.86321 7.40264,13.92848 -2.24168,4.33492 -7.45682,5.39363 -12.65449,2.56897 z M 11.768131,264.05105 c -1.180288,-0.82671 -2.6562213,-3.04915 -3.2798503,-4.93877 -2.08277,-6.31085 3.3483563,-12.68664 9.4931953,-11.14438 8.125419,2.03935 10.34975,12.5377 3.416099,16.12324 -3.620553,1.87226 -6.918789,1.85853 -9.629444,-0.0401 z m 123.251859,-1.84129 c -5.01684,-6.57742 -2.20745,-14.11016 5.26248,-14.11016 2.41358,0 4.7925,0.69288 5.93791,1.72946 1.05106,0.9512 2.28415,1.39097 2.7402,0.97727 0.45604,-0.4137 0.50547,-0.18968 0.10983,0.49782 -0.39564,0.6875 -0.29859,1.25 0.21567,1.25 0.51426,0 0.80603,1.90114 0.64839,4.22475 -0.35731,5.26652 -3.94401,8.77525 -8.97024,8.77525 -2.67288,0 -3.93495,-0.71007 -5.94424,-3.34439 z m 94.94304,-11.90717 c -1.75598,-1.51043 -2.80181,-3.62497 -3.17724,-6.42398 -0.47792,-3.56318 -0.18349,-4.54856 2.01638,-6.74844 5.28839,-5.28839 14.10157,-2.05184 15.324,5.62759 0.5094,3.20002 0.17533,4.11783 -2.45683,6.75 -3.72017,3.72017 -7.96994,4.00872 -11.70631,0.79483 z m -109.18011,-3.69867 c -5.70917,-3.48113 -6.9797,-9.0658 -3.06382,-13.46724 2.95337,-3.31957 6.74628,-3.87114 10.58153,-1.53879 3.13804,1.90836 5.84239,6.26632 5.55784,8.95626 -0.0873,0.825 -0.21058,2.06911 -0.27402,2.7647 -0.13553,1.48596 -5.94417,5.22782 -8.11535,5.22782 -0.825,0 -2.93378,-0.87423 -4.68618,-1.94275 z m -93.063824,-4.54516 c -1.2375,-0.88991 -2.25,-2.2675 -2.25,-3.06131 0,-0.79382 -0.45,-1.4433 -1,-1.4433 -2.454818,0 -0.463469,-9.3229 2.399704,-11.23469 2.548852,-1.70191 8.684516,-0.772 11.145751,1.68924 2.999055,2.99905 3.351065,9.22695 0.704545,12.46508 -2.343713,2.86763 -8.069159,3.69261 -11,1.58498 z m 111.692414,-1.40835 c -2.76421,-2.76421 -3.07078,-3.59846 -2.47986,-6.74831 1.37864,-7.3488 4.69413,-9.5164 11.45684,-7.49025 3.0125,0.90257 3.94814,1.80402 4.81961,4.64354 1.96776,6.41156 -0.70832,11.4167 -6.52099,12.19634 -3.65457,0.49018 -4.47878,0.19549 -7.2756,-2.60132 z m 69.51214,-5.55081 c -1.94128,-1.94127 -2.45455,-3.48398 -2.45455,-7.37755 0,-5.05322 0.58301,-5.96341 5.0282,-7.84994 4.00774,-1.70088 9.58196,0.97078 11.00184,5.27305 1.60031,4.849 0.39824,9.13616 -3.06365,10.92637 -4.16249,2.15251 -7.71597,1.82395 -10.51184,-0.97193 z M 48.283137,228.6793 c -4.230482,-3.77993 -4.383427,-9.37847 -0.350965,-12.84705 3.121792,-2.68525 5.525779,-2.85175 10.066173,-0.6972 6.417366,3.04524 6.393368,11.65498 -0.04104,14.72333 -4.817327,2.29722 -5.936124,2.16087 -9.674169,-1.17908 z m 52.907483,1.08189 c -5.181594,-3.17935 -5.697924,-12.54375 -0.83513,-15.14624 2.87094,-1.53648 8.32528,-1.30127 10.85118,0.46794 2.41088,1.68865 3.82489,7.09412 2.86068,10.93582 -1.11876,4.4575 -8.30669,6.54659 -12.87673,3.74248 z m 61.02848,0.0347 c -1.73883,-1.07808 -2.7907,-2.63101 -2.86069,-4.22339 -0.35544,-8.08668 1.51855,-11.01835 7.04317,-11.01835 4.78453,0 7.84271,2.28472 8.62258,6.4418 0.87203,4.64832 -0.17836,7.31204 -3.57627,9.06917 -3.69019,1.90827 -5.81681,1.84624 -9.22879,-0.2692 z m 22.31809,-2.14614 c -2.99788,-4.21014 -2.70705,-9.10929 0.73663,-12.40854 6.64333,-6.36472 15.77501,-0.15605 13.69555,9.31167 -0.84332,3.83961 -3.96071,6.00124 -8.65468,6.00124 -2.95304,0 -4.13109,-0.59221 -5.7775,-2.90437 z M 71.98046,224.79279 c -5.495277,-5.49528 -1.78152,-15.23864 5.808323,-15.23864 6.742575,0 11.265944,6.75774 8.688489,12.98026 -2.163898,5.22411 -10.268506,6.48668 -14.496812,2.25838 z"
             id="path1401"
             inkscape:connector-curvature="0" />
          <path
             style="fill:#00ff00"
             d="m 184.26271,366.00502 c -3.15825,-1.71432 -4.79378,-7.61969 -2.93476,-10.59646 0.62763,-1.005 1.14115,-2.49031 1.14115,-3.3007 0,-0.85277 1.68616,-1.97861 4.00295,-2.67274 5.012,-1.50163 8.16982,-0.25756 11.03816,4.34864 5.31783,8.53979 -4.07171,17.20195 -13.2475,12.22126 z m -24.66183,-2.81059 c -2.16997,-2.30984 -2.6837,-4.47771 -2.31497,-9.76896 0.30218,-4.33617 7.82051,-6.68115 12.68319,-3.95591 3.12439,1.75104 3.52969,2.4905 4.26274,7.77732 0.98728,7.12024 -9.51756,11.39051 -14.63096,5.94755 z m 51.23526,-3.41252 c -3.42357,-2.77319 -4.37827,-5.55108 -3.55838,-10.35382 0.97008,-5.68253 4.14954,-7.50083 10.24558,-5.85934 3.30747,0.89061 4.38556,1.79375 5.59416,4.68634 1.78708,4.27708 1.13052,7.61105 -2.14361,10.88518 -2.84694,2.84694 -7.08419,3.11513 -10.13775,0.64164 z m -70.06468,-4.23955 c -2.29579,-0.92455 -5.30236,-5.73757 -5.30236,-8.48821 0,-5.37262 6.1805,-10.24575 11.34921,-8.94849 3.93484,0.98758 7.63006,5.82404 7.02672,9.19687 -1.26795,7.08826 -6.98525,10.69168 -13.07357,8.23983 z m 90.28653,-13.06494 c -5.19133,-6.16955 -1.88117,-14.92327 5.64315,-14.92327 6.45272,0 10.46051,5.82021 8.60748,12.5 -1.08743,3.91996 -3.36894,5.5 -7.94176,5.5 -2.92629,0 -4.27233,-0.65644 -6.30887,-3.07673 z m 14.93193,-19.31154 c -5.05624,-5.05624 -3.94431,-13.35962 2.09658,-15.65636 3.8347,-1.45796 5.09129,-1.18954 8.40155,1.79463 4.42354,3.98777 4.98508,8.90333 1.49141,13.05532 -3.41978,4.06418 -8.39701,4.39894 -11.98954,0.80641 z M 115.5459,320.28226 c -3.66499,-1.85747 -5.947,-6.5951 -4.92666,-10.22811 1.10269,-3.92619 3.38283,-5.5 7.96841,-5.5 4.53622,0 7.88145,3.59102 7.88145,8.46054 0,5.45069 -6.27303,9.62435 -10.9232,7.26757 z m 137.35287,-18.69281 c -5.14613,-2.08279 -6.97721,-9.7982 -3.40358,-14.34133 2.65298,-3.37272 5.22115,-4.09751 9.507,-2.68305 7.11852,2.34932 8.40159,12.22856 2.08817,16.07833 -3.37572,2.05844 -4.98415,2.2442 -8.19159,0.94605 z m -141.1143,-4.04228 c -5.07418,-2.04443 -5.98292,-10.54239 -1.56537,-14.63828 2.26814,-2.10298 3.4328,-2.45829 6.64675,-2.02772 5.4184,0.72588 7.85593,3.44749 7.78357,8.69066 -0.10132,7.34168 -5.7486,10.84258 -12.86495,7.97534 z m 4.45977,-24.55182 c -7.35025,-3.98884 -6.01151,-14.42608 1.87916,-14.65043 4.58494,-0.13036 7.26314,1.1489 8.85667,4.23044 2.11695,4.09374 1.85207,6.70666 -0.96552,9.52424 -2.77784,2.77785 -5.79281,3.05426 -9.77031,0.89575 z m 129.10736,0.0562 c -1.63695,-0.8896 -2.85445,-2.60719 -3.25,-4.58497 -0.9717,-4.85847 -0.82222,-5.53356 1.95639,-8.83575 2.04677,-2.43245 3.37732,-3.07673 6.35398,-3.07673 7.45179,0 11.22145,6.91399 7.59412,13.92848 -2.24168,4.33492 -7.45682,5.39363 -12.65449,2.56897 z m -15.57674,-22.91082 c -2.32506,-1.99994 -2.80576,-3.20899 -2.80576,-7.05712 0,-3.77445 0.46798,-5.00323 2.5,-6.56435 5.61152,-4.31109 13.51311,-0.94793 14.65707,6.2385 0.5094,3.20002 0.17533,4.11783 -2.45683,6.75 -3.79089,3.79088 -7.96495,4.01301 -11.89448,0.63297 z m -90.48855,-9.61552 c -2.63639,-2.63639 -2.94155,-3.49474 -2.35466,-6.62311 1.38228,-7.3682 4.69239,-9.51692 11.51289,-7.47346 3.92711,1.1766 4.98365,2.93263 5.01091,8.32846 0.0432,8.55172 -8.07904,11.8582 -14.16914,5.76811 z m 69.63734,-5.42561 c -1.85446,-1.85445 -2.45455,-3.51909 -2.45455,-6.80887 0,-2.39487 0.5625,-5.03085 1.25,-5.85773 5.8478,-7.03329 17.0566,-0.65714 15.30049,8.70372 -1.15101,6.13542 -9.55948,8.49935 -14.09594,3.96288 z m -45.13918,-4.55243 c -2.90841,-1.17183 -4.65069,-4.64382 -4.49845,-8.96448 0.15372,-4.363 3.10951,-7.02854 7.79386,-7.02854 8.20062,0 11.56914,11.78712 4.42439,15.48181 -3.28839,1.7005 -4.55919,1.78465 -7.7198,0.51121 z m 20.94448,-2.74302 c -1.03198,-1.5125 -1.99156,-4.37315 -2.13239,-6.357 -0.21153,-2.97977 0.29015,-4.0666 2.88497,-6.25 4.13986,-3.48347 7.41974,-3.36467 11.18969,0.40527 2.70039,2.7004 2.98411,3.52662 2.48607,7.23978 -0.69649,5.19272 -3.54857,7.71195 -8.73088,7.71195 -3.04696,0 -4.20127,-0.55715 -5.69746,-2.75 z"
             id="path1399"
             inkscape:connector-curvature="0" />
        </g>
      </g>
    </g>
  </g>
</svg>
