<?xml version="1.0" encoding="UTF-8" standalone="no"?>
<!-- Created with Inkscape (http://www.inkscape.org/) -->

<svg
   xmlns:dc="http://purl.org/dc/elements/1.1/"
   xmlns:cc="http://creativecommons.org/ns#"
   xmlns:rdf="http://www.w3.org/1999/02/22-rdf-syntax-ns#"
   xmlns:svg="http://www.w3.org/2000/svg"
   xmlns="http://www.w3.org/2000/svg"
   xmlns:sodipodi="http://sodipodi.sourceforge.net/DTD/sodipodi-0.dtd"
   xmlns:inkscape="http://www.inkscape.org/namespaces/inkscape"
   version="1.1"
   id="svg2949"
   width="283"
   height="443"
   viewBox="0 0 283 443"
   sodipodi:docname="feu139.svg"
   inkscape:version="0.92.4 (5da689c313, 2019-01-14)">
  <metadata
     id="metadata2955">
    <rdf:RDF>
      <cc:Work
         rdf:about="">
        <dc:format>image/svg+xml</dc:format>
        <dc:type
           rdf:resource="http://purl.org/dc/dcmitype/StillImage" />
        <dc:title></dc:title>
      </cc:Work>
    </rdf:RDF>
  </metadata>
  <defs
     id="defs2953" />
  <sodipodi:namedview
     pagecolor="#ffffff"
     bordercolor="#666666"
     borderopacity="1"
     objecttolerance="10"
     gridtolerance="10"
     guidetolerance="10"
     inkscape:pageopacity="0"
     inkscape:pageshadow="2"
     inkscape:window-width="1280"
     inkscape:window-height="972"
     id="namedview2951"
     showgrid="false"
     inkscape:zoom="1.5067919"
     inkscape:cx="144.21902"
     inkscape:cy="238.12413"
     inkscape:window-x="-8"
     inkscape:window-y="-8"
     inkscape:window-maximized="1"
     inkscape:current-layer="g928"
     showguides="true" />
  <g
     id="g151"
     transform="translate(25.882805,-2.654647)">
    <g
       id="g534"
       transform="translate(-21.900834,-45.792654)">
      <g
         id="g928"
         transform="translate(-3.9819699,-1.3273232)">
        <g
           id="g1159"
           transform="translate(1.3273233,-23.891819)">
          <path
             style="fill:#ffffff"
             d="m 188.04774,456.1863 c -4.52687,-2.02674 -7.748,-6.32447 -6.97,-9.29956 0.64081,-2.45046 -0.90926,-5.73625 -2.70607,-5.73625 -0.70235,0 -3.13978,0.9 -5.41651,2 -5.15423,2.49025 -7.68792,2.61971 -6.81629,0.34828 1.03104,-2.68686 6.85601,-11.34828 7.63193,-11.34828 0.39323,0 0.95031,-0.9 1.23797,-2 0.58728,-2.24578 2.47796,-2.46992 7.96971,-0.94481 4.80917,1.33556 6.9917,4.64595 6.69916,10.1611 -0.33431,6.3029 -0.22819,6.59295 3.02827,8.27693 2.69988,1.39616 3.34847,1.39259 6.75,-0.0372 l 3.76311,-1.58175 -4,-2.37609 c -5.69634,-3.38375 -6.28133,-4.03632 -7.61813,-8.49815 -1.04419,-3.48519 -0.96964,-4.24559 0.58457,-5.96297 0.97975,-1.08262 3.63811,-2.36641 5.90747,-2.85286 l 4.12609,-0.88443 -5.5,-2.64012 c -3.025,-1.45206 -6.24088,-2.64451 -7.14641,-2.64988 -1.64638,-0.01 -7.85359,-6.29954 -7.85359,-7.95806 0,-0.48328 1.79616,-2.1996 3.99147,-3.81405 3.64604,-2.68133 4.91407,-2.9876 14.65257,-3.53909 11.57951,-0.65574 14.20656,-1.68919 9.77884,-3.84688 -1.52556,-0.74343 -3.62606,-2.88652 -4.66779,-4.76242 -1.04172,-1.8759 -2.98778,-4.27106 -4.32457,-5.32258 -2.94381,-2.3156 -3.12618,-5.16602 -0.45044,-7.04018 1.08904,-0.7628 2.63804,-2.96164 3.44222,-4.88631 0.80418,-1.92468 2.18915,-4.10277 3.0777,-4.8402 0.88855,-0.73743 2.22696,-2.80411 2.97425,-4.59261 1.46387,-3.50353 5.8029,-6.97217 7.44904,-5.9548 0.55618,0.34374 3.27597,0.32455 6.04397,-0.0426 5.74293,-0.76182 6.25855,-1.98423 2.53274,-6.00445 -2.89269,-3.12126 -3.0333,-4.20139 -1.05111,-8.07446 0.79688,-1.55707 1.67014,-3.58565 1.94057,-4.50796 0.52706,-1.79759 8.6413,-5.82308 11.73766,-5.82308 1.71101,0 2.76234,-0.89262 7.43803,-6.31515 0.99071,-1.14896 1.35673,-2.80052 0.99729,-4.5 -0.66905,-3.16333 0.50833,-8.13315 1.93756,-8.17863 0.55,-0.0175 1.05297,0.91384 1.11772,2.06965 0.0647,1.1558 0.94415,4.53281 1.95425,7.50446 l 1.83653,5.40299 -3.40042,3.50834 c -2.09353,2.15994 -4.35667,3.5083 -5.88852,3.5083 -4.11573,0 -11.05583,3.89789 -11.73121,6.58881 -0.93275,3.7164 0.1028,5.13968 5.54408,7.61987 2.80938,1.28055 5.03587,2.96515 5.04724,3.81881 0.0112,0.84013 0.71536,2.51979 1.56483,3.73259 2.22026,3.16986 0.42361,5.99178 -4.30665,6.76428 -7.82328,1.27762 -9.23785,1.65984 -9.23785,2.49608 0,1.2709 1.45302,1.95493 5.03971,2.37254 4.82216,0.56146 5.56764,2.89629 3.38671,10.60702 -0.6923,2.44763 -7.7619,5.88249 -12.0194,5.83979 -2.14886,-0.0216 -4.41299,0.11817 -5.0314,0.31051 -1.98663,0.61787 -8.37562,-5.99915 -8.37562,-8.67455 0,-2.71315 -2.65654,-3.41921 -4.8,-1.27575 -1.92674,1.92674 -1.52702,8.76156 0.55,9.40439 3.48913,1.07987 8.15287,3.33067 9.93155,4.79314 1.00015,0.82234 2.92587,2.36531 4.27938,3.42882 1.89172,1.48641 2.58561,3.17445 3,7.29808 0.48935,4.86967 0.84303,5.50758 3.83488,6.9168 4.88932,2.30298 8.79695,9.65728 8.37233,15.75706 -0.45034,6.4691 -2.70559,9.15974 -8.7455,10.43382 -2.70745,0.57112 -6.09358,1.09003 -7.52472,1.15314 -1.43114,0.0631 -4.44487,1.68975 -6.69718,3.61475 -6.53773,5.58766 -9.92733,8 -11.24087,8 -0.67309,0 -2.62692,0.86033 -4.34184,1.91184 -4.53575,2.78112 -8.7852,3.14052 -13.28931,1.12397 z m 26.58182,-17.65391 c 0.22579,-0.2033 -0.26831,-1.1599 -1.098,-2.12577 -0.8297,-0.96587 -1.78538,-2.53729 -2.12375,-3.49204 -0.51315,-1.44795 -1.40927,-1.63194 -5.402,-1.10912 -5.7133,0.7481 -5.50212,0.62032 -4.65849,2.81877 1.33091,3.46831 10.70679,6.22706 13.28224,3.90816 z m 11.4838,-7.82052 c 3.26741,-2.67175 3.05603,-4.56496 -0.79115,-7.08572 -2.16951,-1.42152 -3.0122,-1.46726 -6.30374,-0.34209 -2.0897,0.71434 -3.97228,1.41184 -4.18352,1.55002 -0.45279,0.29617 7.15146,8.25033 7.88407,8.24686 0.275,-10e-4 1.80245,-1.06739 3.39434,-2.36907 z m -18.91321,-15.54053 c 1.65902,-1.8332 1.66723,-2.02669 0.1113,-2.62375 -1.99232,-0.76453 -6.91316,-0.0435 -11.09243,1.62526 -2.75684,1.10081 -2.8379,1.26434 -1,2.01749 3.90483,1.60016 10.08663,1.0744 11.98113,-1.019 z m 24.07272,-31.10798 c 0.36954,-0.59793 0.15871,-1.60031 -0.46851,-2.22753 -1.25604,-1.25604 -4.15293,0.0174 -4.85915,2.1361 -0.4996,1.4988 4.40583,1.58297 5.32766,0.0914 z m -112.55385,68.19049 c -0.825,-0.4597 -3.45974,-1.13389 -5.85497,-1.49819 -2.39524,-0.36431 -5.69612,-1.35591 -7.33531,-2.20357 -2.88889,-1.4939 -2.96436,-1.71545 -2.45997,-7.22139 0.28619,-3.12412 0.82381,-7.36771 1.1947,-9.43021 0.59943,-3.33331 0.44653,-3.75 -1.37603,-3.75 -1.12771,0 -2.35915,-0.4996 -2.73653,-1.11021 -0.395639,-0.64015 -2.071877,-0.88534 -3.959017,-0.5791 -2.541421,0.41242 -3.748255,0.0251 -5.400016,-1.73314 -1.852566,-1.97196 -2.041469,-2.99327 -1.463388,-7.91183 0.746907,-6.35502 1.717156,-7.50592 8.203988,-9.7315 5.157253,-1.76941 5.993423,-2.98448 3.659753,-5.31815 -2.970884,-2.97089 -6.925422,-2.04222 -9.799863,2.30135 -1.84927,2.79443 -4.52829,4.87044 -9.345509,7.24195 -5.970494,2.93926 -7.660832,3.31695 -14.58618,3.25908 -6.384902,-0.0533 -8.194737,-0.42708 -9.789166,-2.02151 -1.941428,-1.94143 -1.941086,-1.99871 0.04572,-7.65152 2.508711,-7.13774 2.497683,-8.15567 -0.126805,-11.70548 -5.037918,-6.81415 4.095669,-17.03994 15.219923,-17.03994 4.470558,0 11.488632,-3.34663 13.020493,-6.20894 0.850906,-1.58994 0.61453,-2.45344 -1.200459,-4.38541 -3.038791,-3.23464 -5.517442,-3.09771 -6.233254,0.34435 -0.629995,3.0294 -4.943477,5.99395 -10.668134,7.33194 -2.873983,0.67172 -3.886098,0.44361 -5.733881,-1.29229 -1.766738,-1.65976 -3.363613,-2.06851 -7.509976,-1.92233 -2.896366,0.10211 -6.698994,0.70343 -8.450285,1.33625 -4.468658,1.61474 -6.359826,-0.0758 -5.610618,-5.0155 0.570824,-3.76354 3.709564,-8.18807 5.808583,-8.18807 0.640844,0 1.658003,-1.08165 2.260353,-2.40366 1.111619,-2.43974 4.141916,-3.15269 16.475848,-3.87633 2.0625,-0.121 3.75,-0.54168 3.75,-0.93483 0,-1.25601 -3.769792,-2.78518 -6.866164,-2.78518 -2.160236,0 -3.569421,-0.80298 -5.044401,-2.8744 -1.673791,-2.35062 -3.007306,-2.98199 -7.318094,-3.46484 -8.893357,-0.99613 -14.59181,-2.26687 -16.218123,-3.61659 -1.687879,-1.40082 -2.122413,-6.57435 -0.629678,-7.49692 0.507947,-0.31392 1.660914,-2.7908 2.562149,-5.50416 1.248271,-3.7582 1.404793,-5.7802 0.657067,-8.48824 -1.051675,-3.80885 -0.239486,-4.5846 1.984799,-1.89576 0.912153,1.10266 1.372445,4.35839 1.372445,9.70754 v 8.04845 l 4,2.31414 c 2.2,1.27277 5.053221,2.13399 6.340492,1.91383 3.512028,-0.60068 9.147111,1.46052 10.374555,3.79479 1.549242,2.94624 2.759788,3.52956 7.360639,3.54685 4.401993,0.0165 6.895127,1.94777 9.704962,7.51767 2.050646,4.06497 4.582574,6.10309 8.498841,6.84127 4.622939,0.8714 10.105042,5.52966 10.787955,9.16678 0.706612,3.76332 -0.97285,8.37324 -3.302436,9.06479 -0.970754,0.28817 -3.340008,1.33603 -5.265008,2.32859 -1.925,0.99255 -4.80259,2.12015 -6.394645,2.50578 -4.085847,0.98968 -2.166432,2.30049 4.787348,3.26938 5.735395,0.79913 6.746715,1.50307 8.003761,5.57105 0.4019,1.30061 1.640208,1.76044 4.822151,1.79064 3.271195,0.031 5.107215,0.74632 7.781385,3.03143 3.21687,2.74885 3.52304,3.49385 3.78484,9.20936 0.43741,9.54954 0.53301,24.72298 0.18663,29.62175 -0.25444,3.59846 0.10548,4.74071 1.96938,6.25 1.25439,1.01575 3.33471,1.84682 4.62293,1.84682 1.85285,0 2.55702,-0.77796 3.37032,-3.72351 0.91151,-3.30122 0.73597,-4.14508 -1.54784,-7.44062 l -2.57595,-3.7171 3.24682,-4.04023 c 1.78575,-2.22213 4.01899,-4.28531 4.96276,-4.58485 2.10283,-0.66742 6.12711,0.77358 7.80436,2.79455 0.68313,0.82312 2.56095,2.04289 4.17291,2.71059 1.61197,0.6677 3.84003,2.75492 4.95123,4.63827 l 2.02037,3.42428 -2.64664,1.00625 c -1.45565,0.55344 -4.58586,0.71545 -6.95602,0.36002 -3.97875,-0.59665 -4.40244,-0.442 -5.52225,2.01571 -1.01171,2.22047 -0.92597,3.14761 0.51698,5.59033 2.00866,3.40039 1.1467,5.97636 -3.23919,9.68035 -2.79641,2.36163 -4.70758,2.73447 -7.12164,1.38932 z m -15.53101,-34.05319 c 0.59201,-0.95789 -2.42842,-3.05017 -4.403249,-3.05017 -0.586157,0 -1.065741,0.9 -1.065741,2 0,1.45377 0.666667,2 2.44098,2 1.34254,0 2.70515,-0.42742 3.02801,-0.94983 z M 76.96902,404.92298 c 2.89198,-1.36663 4.75,-2.90203 4.75,-3.92524 0,-2.26323 -1.575559,-2.70306 -7.5,-2.09366 -5.059819,0.52047 -8.5,2.48408 -8.5,4.85171 0,1.46395 2.742863,3.31421 5,3.37286 0.825,0.0214 3.6375,-0.97111 6.25,-2.20567 z m -8.40301,-17.63979 c 2.752136,-2.38691 2.717143,-3.1327 -0.14699,-3.1327 -2.544704,0 -4.7,1.69672 -4.7,3.7 0,1.87358 2.34973,1.59857 4.84699,-0.5673 z m -3.59699,-25.55881 c 3.872862,-0.86188 3.415611,-2.20229 -1,-2.93145 -2.828008,-0.467 -4.049455,-0.21708 -4.967967,1.01648 -1.500534,2.01521 -0.686022,3.57625 1.552124,2.9747 0.916214,-0.24625 2.903343,-0.72313 4.415843,-1.05973 z m 69.16754,-12.04642 c -0.68022,-2.71019 2.71493,-19.55379 4.99081,-24.75981 1.3387,-3.06224 1.43363,-2.47022 1.51008,9.41724 0.0449,6.9767 -0.35729,13.8392 -0.89368,15.25 -1.29143,3.39673 -4.76353,3.45406 -5.60721,0.0926 z m 21.1403,-0.41562 c -1.80952,-3.49923 -1.9753,-9.93518 -0.49229,-19.11185 1.83903,-11.37964 2.55318,-10.54358 5.96826,6.98701 1.49059,7.65164 1.61625,9.97081 0.64955,11.98777 -1.74661,3.64418 -4.28258,3.70092 -6.12552,0.13707 z m -45.30784,-0.77413 c -2.531,-1.02128 -1.38733,-7.66049 2.25,-13.06162 1.925,-2.85846 3.5,-5.43319 3.5,-5.72163 0,-0.43927 5.66121,-10.16698 6.67584,-11.47114 2.40222,-3.08773 -1.93429,16.31615 -5.2826,23.63723 -1.81521,3.96893 -4.29134,7.33409 -5.29823,7.20049 -0.32725,-0.0434 -1.15751,-0.30592 -1.84501,-0.58333 z m 68.17244,-1.81574 c -1.42864,-2.18039 -4.39608,-17.62877 -4.41537,-22.98627 -0.0121,-3.35718 2.32316,0.0649 6.86236,10.05603 4.34587,9.56564 4.89771,12.24112 2.93057,14.20826 -1.85155,1.85155 -3.59911,1.43623 -5.37756,-1.27802 z m -89.42244,-8.28163 c 0,-3.03434 1.427401,-5.84318 7.398925,-14.55958 7.464395,-10.89549 10.650275,-14.96491 11.247895,-14.36729 0.61533,0.61534 -3.53623,14.19222 -6.61589,21.63601 -3.70927,8.96559 -5.442392,11.05051 -9.185918,11.05051 -2.622201,0 -2.845012,-0.29444 -2.845012,-3.75965 z m 110.92317,-1.22354 c -0.86726,-0.5073 -2.28436,-2.63112 -3.14912,-4.71959 -5.8456,-14.11771 -6.77405,-16.63456 -6.77405,-18.36313 0,-1.06375 0.3375,-1.92738 0.75,-1.91917 0.4125,0.008 4.02548,4.71567 8.02883,10.46102 5.91637,8.49079 7.15956,10.92136 6.6416,12.98508 -0.65827,2.62274 -2.69019,3.1978 -5.49726,1.55579 z M 146.599,332.40049 c -1.29307,-3.3217 -0.0535,-22.35426 1.7748,-27.25 1.07626,-2.88199 3.34989,6.22447 3.98901,15.97696 0.65844,10.04737 -0.24984,14.02304 -3.20372,14.02304 -0.81927,0 -1.97131,-1.2375 -2.56009,-2.75 z m -20.17113,0.12552 c -1.14021,-1.14022 -0.82018,-5.49509 0.72327,-9.84209 0.78767,-2.21839 2.19758,-6.61555 3.13313,-9.77147 0.93555,-3.15593 2.38184,-6.30309 3.21398,-6.9937 1.34173,-1.11354 1.42907,-0.0723 0.77172,9.19969 -0.89367,12.60519 -2.26937,17.41989 -5.09292,17.82423 -1.12218,0.1607 -2.35931,-0.0268 -2.74918,-0.41666 z m 37.88474,-4.19454 c -1.60114,-3.09627 -4.59359,-21.45499 -4.59359,-28.18176 0,-6.37707 2.13566,-3.76116 5.50975,6.74874 1.54536,4.81362 3.41286,10.44865 4.15,12.52228 1.66215,4.67575 1.71909,8.95092 0.14025,10.52976 -1.9318,1.9318 -3.64584,1.39879 -5.20641,-1.61902 z m -97.986601,0.23723 c -0.333844,-0.86998 -0.606989,-2.20544 -0.606989,-2.96769 0,-2.73165 23.835285,-25.00543 25.989892,-24.28722 1.333248,0.44441 -9.527433,17.89368 -15.023718,24.13779 -4.38021,4.97618 -9.10073,6.3966 -10.359185,3.11712 z m 41.405041,-3.16821 c 0.0173,-3.94623 12.05317,-27.67731 14.51683,-28.6227 1.8441,-0.70765 -4.18349,20.0256 -7.51437,25.84738 -3.58633,6.26824 -7.0237,7.63059 -7.00246,2.77532 z m 106.98391,-2.5 c -4.88537,-5.1128 -12.99594,-17.91643 -12.99594,-20.51584 0,-2.34748 0.021,-2.34337 4.51377,0.88311 6.10024,4.38086 16.48623,15.31852 16.48623,17.36192 0,2.51328 -1.89822,5.52081 -3.4845,5.52081 -0.77777,0 -2.81157,-1.4625 -4.51956,-3.25 z m -33.87809,0.892 c -2.03408,-2.45092 -7.19165,-25.06443 -5.2781,-23.142 2.75362,2.76641 12.15045,18.26671 12.15501,20.05 0.0101,3.94491 -4.48989,5.96819 -6.87691,3.092 z m -91.750498,-5.12708 c -0.343038,-0.89394 -0.228526,-2.45863 0.254471,-3.47708 1.711291,-3.60843 16.756747,-20.40214 17.169337,-19.16437 0.49961,1.49884 -4.4032,11.62911 -9.014797,18.62653 -3.456722,5.24506 -7.243214,7.05294 -8.409011,4.01492 z m 108.940258,-3.28716 c -2.55272,-2.01173 -9.51738,-16.07933 -8.65303,-17.47788 0.7939,-1.28456 11.94496,9.86912 13.41503,13.41818 0.9131,2.20442 0.89748,3.16667 -0.0704,4.33284 -1.56134,1.88131 -1.98945,1.85638 -4.69164,-0.27314 z m -147.842736,-1.2846 c -1.403399,-2.27074 0.703661,-5.89289 5.011084,-8.61432 2.462586,-1.55586 8.087917,-5.16487 12.500736,-8.02002 4.412818,-2.85515 8.023306,-4.94044 8.023306,-4.63398 0,1.51862 -7.743984,10.79181 -13.539789,16.2135 -6.346851,5.93717 -10.395574,7.6433 -11.995337,5.05482 z m 88.933866,-2.49057 c -0.35164,-1.40108 0.069,-6.40532 0.93483,-11.12055 2.32737,-12.67502 3.24693,-12.80103 4.26575,-0.58453 0.47509,5.69673 0.2997,9.08206 -0.58063,11.20736 -1.53643,3.70929 -3.75393,3.94818 -4.61995,0.49772 z m 14.85126,1.88513 c -2.17188,-0.87637 -1.47197,-20.33772 0.73143,-20.33772 0.9027,0 4.02486,12.46169 4.02118,16.05 -0.001,1.4025 -0.54261,3.09 -1.20261,3.75 -1.27897,1.27897 -1.59452,1.32677 -3.55,0.53772 z m -29.5625,-1.98355 c -0.37812,-0.37813 -0.68714,-1.625 -0.68671,-2.77084 0.001,-2.70292 5.61717,-14.58333 6.89388,-14.58333 1.19762,0 0.37272,5.67858 -1.80493,12.42514 -1.53624,4.75939 -2.96837,6.36289 -4.40224,4.92903 z m 105.16739,-1.95302 c -2.74359,-1.46222 -17.33461,-16.56048 -18.98587,-19.64589 -1.5254,-2.85023 0.30147,-2.07864 9.20754,3.88887 13.99136,9.37492 16.07278,11.25738 15.72761,14.22425 -0.35315,3.03554 -2.22484,3.51776 -5.94928,1.53277 z m -61.07324,-2.15115 c -0.84058,-0.9625 -1.82571,-3.55 -2.18919,-5.75 -0.36347,-2.2 -0.90622,-5.2375 -1.20611,-6.75 -0.94429,-4.7625 1.41542,-3.03735 4.58582,3.35262 3.22034,6.49063 3.90085,10.89738 1.68282,10.89738 -0.73976,0 -2.03276,-0.7875 -2.87334,-1.75 z m -94.900133,-1.5 c -0.237536,-2.50603 0.334162,-4.28942 1.958737,-6.1102 2.320465,-2.60072 22.258697,-16.87418 22.80625,-16.32663 0.246804,0.2468 -0.149236,1.06481 -0.880088,1.81778 -0.730853,0.75298 -3.392182,4.06905 -5.914066,7.36905 -8.394919,10.98514 -17.545976,17.73226 -17.970833,13.25 z m 34.524293,-0.13485 c -0.32347,-0.84297 -0.0942,-3.02939 0.50956,-4.85871 1.29837,-3.9341 9.97296,-14.02979 10.03982,-11.68458 0.0602,2.11044 -2.89545,10.70656 -4.96084,14.42814 -1.8681,3.36609 -4.69757,4.43698 -5.58854,2.11515 z m 100.76875,-4.07642 c -4.7623,-4.30244 -12.17456,-13.72692 -12.17456,-15.47959 0,-0.72107 1.38435,-0.12493 3.25,1.39955 1.7875,1.46063 6.09049,4.67462 9.5622,7.14222 5.34942,3.80222 6.26459,4.88756 6,7.11569 -0.4604,3.87722 -2.20077,3.83058 -6.63764,-0.17787 z m -27.45679,-0.78873 c -2.68779,-3.66412 -6.99703,-13.75 -5.87476,-13.75 0.73965,0 8.70042,8.07113 11.03312,11.18608 0.94733,1.26501 0.98681,2.2015 0.15808,3.75 -1.5147,2.83025 -2.53771,2.60202 -5.31644,-1.18608 z m -86.71777,-4.76096 c 0,-1.87488 14.80822,-18.51415 15.69108,-17.6313 0.48808,0.48809 -6.16882,11.99991 -9.4791,16.39226 -2.782676,3.69227 -6.21198,4.37628 -6.21198,1.23904 z m 97.37986,-0.75435 c -1.6705,-1.09567 -9.45531,-12.49257 -8.90744,-13.04044 0.45364,-0.45365 5.53785,3.11768 10.27758,7.21933 3.73336,3.23076 2.52269,8.37437 -1.37014,5.82111 z m 50.33432,-0.70013 c -3.53027,-1.84143 -20.71418,-16.49208 -20.71418,-17.66048 0,-1.65212 2.29919,-0.86147 13.46744,4.63122 12.93954,6.36383 16.28929,9.21221 14.58305,12.40035 -1.31442,2.45602 -3.47793,2.64149 -7.33631,0.62891 z M 35.91902,293.95049 c -1.94181,-1.94181 -1.405854,-3.54424 2.05,-6.1292 4.513188,-3.37584 27.153698,-14.6708 29.407308,-14.6708 2.792615,0 -13.572662,14.70204 -21.418669,19.24184 -5.134483,2.97088 -8.156806,3.43999 -10.038639,1.55816 z m 24.264874,-0.85684 c -1.535868,-2.48508 0.771023,-6.1189 6.013499,-9.47248 2.984055,-1.90887 5.609851,-3.47068 5.835102,-3.47068 0.225252,0 3.692371,-1.8045 7.704708,-4.01 4.012338,-2.20549 7.450746,-3.8544 7.640907,-3.66424 0.85355,0.85355 -9.809405,11.87199 -15.995103,16.52835 -6.69361,5.03869 -9.890743,6.20604 -11.199113,4.08905 z m 158.935366,-5.22743 c -6.46422,-4.75869 -15.1153,-13.97738 -13.59297,-14.48482 0.9829,-0.32763 6.31897,2.63985 16.5025,9.17734 4.93163,3.16594 5.76294,4.12325 5.5,6.33359 -0.17037,1.43216 -0.80313,2.76558 -1.40613,2.96316 -0.603,0.19758 -3.75453,-1.59759 -7.0034,-3.98927 z M 81.900133,286.44856 c 0.320516,-1.66431 15.52424,-15.21509 17.132872,-15.27019 1.421195,-0.0487 -3.2808,7.36993 -7.7702,12.2595 -3.093872,3.36965 -5.091157,4.71262 -7.008682,4.71262 -1.986913,0 -2.596829,-0.44097 -2.35399,-1.70193 z m 65.411717,-0.0481 c -1.0561,-3.41026 -1.58708,-16.09133 -0.76664,-18.30919 0.77799,-2.10311 0.93497,-1.99458 2.39258,1.6542 3.17552,7.94914 4.52714,13.87987 3.68174,16.15499 -0.99605,2.68056 -4.52932,3.0134 -5.30768,0.5 z m -12.18733,-1.7705 c -1.07027,-4.2643 2.88554,-17.89708 4.98143,-17.16732 1.48869,0.51833 1.26158,14.60756 -0.28196,17.49168 -1.57486,2.94266 -3.92013,2.78079 -4.69947,-0.32436 z m -10.01282,0.10142 c -0.33461,-0.87196 -0.31681,-2.82189 0.0396,-4.33316 1.1301,-4.79263 5.8285,-15.24776 6.85216,-15.24776 1.6915,0 0.18609,13.50965 -1.90425,17.0888 -2.20904,3.78241 -4.12497,4.73975 -4.98746,2.49212 z m 32.41559,-0.33092 c -1.79928,-2.09678 -4.81722,-12.70021 -4.78603,-16.8156 l 0.0222,-2.9344 1.98624,2.5 c 3.76906,4.74397 8.19202,14.72287 7.49669,16.91368 -0.80783,2.54524 -2.70745,2.68062 -4.71913,0.33632 z m 39.81053,-4.29502 c -3.07814,-3.32477 -6.08568,-6.95883 -6.68341,-8.0757 -1.01187,-1.89071 -0.92648,-1.94659 1.23892,-0.81074 5.19975,2.72751 14.82569,11.17948 14.82569,13.01756 0,3.61891 -3.72452,1.97877 -9.3812,-4.13112 z m -81.6188,-1.30494 c 0,-3.2836 3.63121,-9.47387 7.35744,-12.54254 2.52746,-2.08144 2.66013,-1.18521 0.79944,5.40069 -2.20961,7.82088 -3.78594,10.49181 -6.19206,10.49181 -1.56208,0 -1.96482,-0.68666 -1.96482,-3.34996 z m 47.44311,-4.20544 c -4.64311,-10.18863 -4.4311,-12.12861 0.70443,-6.44595 4.54543,5.0297 7.80397,10.85703 7.13032,12.75135 -0.24449,0.6875 -1.33263,1.25 -2.41809,1.25 -1.48679,0 -2.82277,-1.86349 -5.41666,-7.5554 z m 8.9129,-1.6946 c -4.25721,-4.45599 -7.35601,-8.65701 -7.35601,-9.97251 0,-1.88622 2.85723,-0.3903 7.23837,3.7897 5.19913,4.96043 6.72551,7.27983 6.04317,9.18281 -0.70971,1.9793 -1.59805,1.52954 -5.92553,-3 z m 50.17633,-2.40405 c -9.68331,-5.98558 -14.32618,-9.34595 -12.91287,-9.34595 1.28777,0 12.96213,4.38442 19.42055,7.29358 5.9333,2.67262 8.52669,4.98045 7.48705,6.66262 -1.29958,2.10276 -5.22846,0.80848 -13.99473,-4.61025 z m -151.116539,3.21614 c -1.688378,-1.23457 -1.643115,-1.44607 0.788847,-3.68591 3.015254,-2.77705 16.774915,-10.22995 17.516878,-9.48799 1.272757,1.27276 -9.684995,11.88702 -13.942964,13.5059 -1.856593,0.70588 -3.069622,0.61357 -4.362761,-0.332 z M 49.71902,272.20157 c 0,-1.40679 1.738554,-2.77616 6.25,-4.92281 7.035519,-3.34767 17.739153,-7.45449 22.25,-8.53698 2.919965,-0.70071 2.893286,-0.64096 -1,2.23977 -14.930024,11.04705 -27.5,16.17562 -27.5,11.22002 z m 57,-0.0435 c 0,-2.13813 1.92416,-4.66542 8.95724,-11.76488 7.14798,-7.21545 6.18868,-2.01818 -1.63842,8.87658 -3.68693,5.13194 -7.31882,6.56522 -7.31882,2.8883 z m 102.59622,0.33984 c -3.57954,-1.93838 -12.47895,-10.34742 -10.95087,-10.34742 1.40303,0 7.92317,2.56548 11.85465,4.66445 4.23977,2.26357 5.74481,4.33564 4.36061,6.00351 -1.36724,1.64741 -1.66369,1.62937 -5.26439,-0.32051 z m 34.29453,-2.28522 c -4.18509,-2.17008 -9.13509,-4.87815 -11,-6.01793 -1.86491,-1.13978 -4.17825,-2.3435 -5.14075,-2.67494 -0.9625,-0.33144 -1.75,-0.95801 -1.75,-1.39237 0,-0.43436 0.7875,-0.63356 1.75,-0.44267 3.03909,0.60276 15.45288,3.27022 23.47482,5.04424 8.5106,1.88209 11.94623,4.33399 10.13071,7.22998 -2.08226,3.32146 -9.03145,2.62661 -17.46478,-1.74631 z m -218.335327,1.35037 c -4.430085,-4.43009 2.826552,-8.57604 19.944577,-11.39498 14.095984,-2.32128 15.870438,-2.42599 14.915023,-0.88009 -0.98098,1.58725 -19.957089,10.41339 -25.415023,11.82099 -2.475,0.6383 -5.240082,1.37404 -6.144628,1.63497 -0.904545,0.26094 -2.389522,-0.27047 -3.299949,-1.18089 z m 151.217247,-5.22452 c -9.42335,-10.07432 -8.24086,-12.04826 2.47733,-4.13542 4.38682,3.23862 6.75,5.67719 6.75,6.96532 0,3.71367 -4.35628,2.37765 -9.22733,-2.8299 z m -79.77267,-0.55319 c 0,-2.6032 4.04987,-6.49061 10.54725,-10.12416 3.5914,-2.00842 6.93327,-3.50746 7.42638,-3.33119 1.00254,0.35837 -3.44799,5.39023 -9.79152,11.07049 -4.20852,3.76849 -8.18211,4.92668 -8.18211,2.38486 z m 44.05181,-4.07243 c -1.21277,-1.4613 -1.07041,-3.77566 1.09875,-17.86281 1.19679,-7.77224 2.97633,-8.48823 4.02196,-1.61822 0.98197,6.45171 1.18279,16.22375 0.38507,18.73716 -0.78827,2.48359 -3.73187,2.88129 -5.50578,0.74387 z m 43.19819,-0.55147 c -1.7875,-1.08986 -3.25,-2.43818 -3.25,-2.99626 0,-0.55809 -0.59081,-1.0147 -1.31291,-1.0147 -1.75193,0 -7.0889,-5.63363 -5.98392,-6.31655 1.12781,-0.69702 13.99553,4.7339 16.42452,6.9321 1.02977,0.93194 1.87231,2.52468 1.87231,3.53944 0,2.47731 -3.55917,2.41117 -7.75,-0.14403 z m -52.84991,-1.41071 c -0.59884,-1.56056 4.61564,-15.32305 7.22649,-19.07276 1.28615,-1.84717 1.37342,-1.7638 1.37342,1.31211 0,3.45905 -2.28373,11.99055 -4.30439,16.08022 -1.47317,2.9816 -3.493,3.77176 -4.29552,1.68043 z m -67.020088,-1.05236 c -0.765642,-1.99524 0.200515,-3.27961 3.910066,-5.19789 2.954901,-1.52804 12.652668,-4.23438 15.459932,-4.31438 3.071855,-0.0875 0.596788,1.95439 -7.620823,6.28718 -9.620541,5.07249 -10.904965,5.42506 -11.749175,3.22509 z m 87.137528,-3.83958 c -1.77529,-6.10679 -3.67689,-16.88228 -3.08393,-17.47524 0.53506,-0.53506 5.1879,7.68595 6.09376,10.76693 0.40427,1.375 1.64882,3.79674 2.76568,5.38165 2.3115,3.28022 1.45613,5.90155 -2.09878,6.43182 -1.76643,0.2635 -2.35264,-0.55046 -3.67673,-5.10516 z m 59.5558,2.49214 c -7.03812,-3.58018 -7.84254,-5.50133 -1.91552,-4.57474 8.58264,1.34175 12.34219,2.8399 12.34219,4.91826 0,2.97756 -4.16785,2.84025 -10.42667,-0.34352 z M 89.71902,257.16603 c -1.272303,-0.80904 -1.120505,-1.31627 1,-3.34151 2.569493,-2.45406 18.65923,-9.34814 19.60645,-8.40091 0.86906,0.86905 -16.803427,12.81394 -18.80679,12.71157 -0.164813,-0.008 -0.97466,-0.44454 -1.79966,-0.96915 z m 134.25,-4.31959 c -8.3875,-2.85215 -15.25,-5.51229 -15.25,-5.91143 0,-1.25709 17.43972,1.6663 29.25,4.90313 4.38579,1.20201 5.75,2.01914 5.75,3.44413 0,1.02752 -0.4132,1.86822 -0.91821,1.86822 -0.50502,0 -1.51752,0.19837 -2.25,0.44083 -0.73249,0.24246 -8.19429,-1.89274 -16.58179,-4.74488 z m -102.25,0.91457 c 0,-1.59481 2.03848,-4.42164 6.12951,-8.5 5.85014,-5.83202 7.87049,-7.17373 7.87049,-5.22679 0,1.13229 -8.99173,14.37801 -10.42085,15.35096 -2.0851,1.41954 -3.57915,0.74156 -3.57915,-1.62417 z m -80.333333,0.72281 c -1.304599,-1.3046 -0.63356,-3.30892 1.597161,-4.77054 1.915557,-1.25512 10.227217,-2.88196 25.486172,-4.9884 4.850043,-0.66953 3.940524,0.85307 -2.347192,3.92936 -10.108732,4.94574 -22.661632,7.90409 -24.736141,5.82958 z M 188.21902,252.9788 c -3.77043,-2.09423 -11.5,-8.23904 -11.5,-9.1422 0,-1.27432 4.03593,-0.10931 12.07707,3.48617 4.98484,2.2289 6.92293,3.61792 6.92293,4.96161 0,2.15816 -4.16964,2.54422 -7.5,0.69442 z m -27.67297,-1.54129 c -1.28422,-1.48064 -5.58301,-8.04724 -9.25457,-14.13679 -1.50217,-2.49145 2.62309,0.3972 8.77429,6.14407 3.90438,3.64774 5.72774,6.0804 5.48852,7.32258 -0.48362,2.51123 -3.10694,2.86225 -5.00824,0.67014 z m 91.67297,1.04918 c -4.12625,-0.89084 -19.56429,-6.6312 -20.0806,-7.46661 -0.29594,-0.47885 6.6002,-0.86959 15.34727,-0.86959 15.63289,0 15.92178,0.0395 18.22349,2.48952 2.27063,2.41698 2.28576,2.54811 0.51932,4.5 -1.40389,1.55129 -2.98316,1.98399 -6.91447,1.89448 -2.80225,-0.0638 -5.99501,-0.31031 -7.09501,-0.5478 z m -137.31955,-7.5862 c 0.241,-1.69692 2.53187,-3.40866 9.31955,-6.96356 4.95,-2.59245 9.59924,-4.72995 10.33165,-4.75 1.54804,-0.0424 -7.59397,8.05321 -13.06178,11.56668 -4.78812,3.07672 -7.01257,3.1263 -6.58942,0.14688 z m -96.513783,0.58333 c -1.407703,-1.4077 -0.570186,-4.31592 1.583333,-5.49802 2.777974,-1.52487 34.75,-2.54392 34.75,-1.10759 0,2.81022 -33.955425,8.98352 -36.333333,6.60561 z m 66.880592,-0.25686 c -1.568887,-2.53852 11.890319,-7.63195 21.202741,-8.02386 3.15882,-0.13294 0.59487,1.93943 -6.544416,5.2897 -7.535698,3.53628 -13.477605,4.6446 -14.658325,2.73416 z m 77.921451,-2.75936 c -12.6876,-7.82868 -12.94437,-9.19672 -0.90663,-4.83045 7.17941,2.60407 11.1521,5.54875 10.00026,7.41247 -1.1044,1.78696 -2.78751,1.30906 -9.09363,-2.58202 z m 23.60706,-0.61923 c -8.4561,-3.69401 -10.63381,-6.23217 -4.43077,-5.16418 6.95432,1.19735 15.83066,3.62499 17.105,4.67815 0.6875,0.56817 1.25,1.65294 1.25,2.41059 0,2.35863 -6.02603,1.52573 -13.92423,-1.92456 z m 29.42423,2.52356 c -2.29845,-0.50182 -4.5,-2.09889 -4.5,-3.26443 0,-1.37527 5.30833,-2.00521 10,-1.18672 3.54693,0.61879 4.5,1.20279 4.5,2.75739 0,1.6212 -0.7121,1.98639 -4,2.05137 -2.2,0.0435 -4.9,-0.11744 -6,-0.35761 z M 59.064097,239.60736 c -0.325685,-0.84872 -0.335317,-1.79996 -0.02141,-2.11388 1.175697,-1.17569 16.415839,-2.61444 20.191304,-1.90616 5.031682,0.94395 3.46736,1.86817 -6.722818,3.9719 -9.656406,1.99355 -12.696384,2.00443 -13.447081,0.0481 z m 175.154923,-0.95127 c -0.55,-0.18509 -5.49837,-1.11111 -10.99637,-2.05785 -12.39918,-2.13508 -10.79571,-3.02869 7.18885,-4.00634 11.29051,-0.61376 13.11207,-0.494 14.56355,0.95748 3.13221,3.13221 0.0364,5.65634 -6.75603,5.50851 -1.65,-0.0359 -3.45,-0.21672 -4,-0.4018 z m -71.75,-3.19538 c -4.2625,-1.4036 -7.75,-2.9476 -7.75,-3.43111 0,-1.0893 1.43923,-1.03284 11.5,0.45113 7.10409,1.04786 8.03579,1.43141 8.31955,3.42489 0.42239,2.96734 -1.97551,2.87895 -12.06955,-0.44491 z m -50.76557,-0.82898 c -1.03151,-1.24289 -0.93478,-1.87863 0.53255,-3.5 1.56596,-1.73037 3.09545,-1.98124 12.07899,-1.98124 5.6573,0 10.5136,0.36826 10.79177,0.81836 0.61183,0.98996 -3.66197,2.58742 -12.38774,4.6303 -8.1608,1.9106 -9.45377,1.91443 -11.01557,0.0326 z m 75.51557,-0.14225 c -8.73707,-2.0228 -9.34197,-2.28794 -7.5,-3.28735 2.1276,-1.15438 16.50951,-2.34209 18.95638,-1.56548 2.23489,0.70932 2.81543,4.33884 0.79362,4.9617 -3.78835,1.16709 -6.85654,1.13982 -12.25,-0.10887 z M 39.729589,232.66322 c -1.566451,-1.88745 -0.617118,-4.47122 1.708046,-4.64872 7.523702,-0.57438 32.075503,0.99385 32.754289,2.09215 0.555116,0.8982 -21.723693,4.05021 -28.600459,4.0464 -2.873158,-0.002 -5.095511,-0.56641 -5.861876,-1.48983 z m 46.093714,0.59622 c -0.767645,-0.49891 -1.119268,-1.62752 -0.781385,-2.50803 0.509774,-1.32844 2.416808,-1.60092 11.204734,-1.60092 6.608398,0 10.364338,0.36578 9.989158,0.97283 -1.33424,2.15884 -17.980979,4.7164 -20.412507,3.13612 z M 211.46902,231.3548 c -10.28618,-0.4506 -8.89812,-2.50449 2.98287,-4.41371 11.17556,-1.79586 15.06559,-1.15106 13.27219,2.19995 -0.59149,1.1052 -1.62209,2.05878 -2.29024,2.11908 -3.65607,0.32993 -7.93268,0.35892 -13.96482,0.0947 z m -70.38581,-1.69762 c -0.34636,-0.90262 -0.15025,-2.12063 0.43581,-2.70669 1.52361,-1.52361 4.41041,-0.13109 4.01242,1.93549 -0.4433,2.30188 -3.64766,2.85743 -4.44823,0.7712 z m 15.13581,0.44137 c -6.73496,-0.74346 -4.11377,-1.66251 8,-2.80498 10.61843,-1.00144 13.71036,-0.3064 11.34039,2.54924 -1.20305,1.44959 -7.74212,1.53605 -19.34039,0.25574 z m 82.75,-1.6853 c -6.3482,-0.44411 -6.75809,-1.79326 -1,-3.29153 9.41211,-2.44906 11.51819,-2.86104 17.97741,-3.5166 8.27315,-0.83967 11.77259,-0.0942 11.77259,2.50772 0,4.72046 -7.24809,5.80463 -28.75,4.30041 z m -119.25,-2.19261 c -5.07891,-1.01556 -8.17011,-2.9483 -7.79885,-4.87614 0.177,-0.91907 1.09113,-1.8192 2.0314,-2.00028 1.43459,-0.27628 19.39929,6.15179 20.68412,7.40112 0.67207,0.6535 -11.09426,0.23962 -14.91667,-0.5247 z m 33,-0.10413 c 0,-0.98531 18.33298,-6.77547 19.74143,-6.235 2.187,0.83923 1.36658,2.9816 -1.61472,4.2165 -3.22315,1.33507 -18.12671,2.99465 -18.12671,2.0185 z m 28,0.28777 c 0,-1.2639 13.21098,-6.25379 16.55721,-6.25379 2.98264,0 3.4107,3.41162 0.61573,4.90744 -2.72502,1.45839 -17.17294,2.5911 -17.17294,1.34635 z m -121,-0.8954 c -3.197047,-1.33622 -4.08056,-2.5564 -2.889886,-3.99107 1.419653,-1.71058 6.066252,-1.70514 16.673383,0.0195 8.064733,1.31127 10.127072,2.03594 9.000414,3.1626 -0.818097,0.8181 -21.043848,1.53623 -22.783911,0.80897 z m 67.5,-4.50731 c -7.65045,-3.37572 -10.5,-5.42128 -10.5,-7.53745 0,-1.82606 2.47951,-2.70429 4.47778,-1.586 2.98715,1.67169 14.40692,10.7685 14.46472,11.52237 0.0915,1.19348 -1.01088,0.88024 -8.4425,-2.39892 z m -107.983025,0.16768 c -2.959095,-3.26977 -0.505682,-5.01876 7.040094,-5.01876 6.608053,0 18.820954,2.16346 23.942931,4.24139 l 3,1.21706 -4,0.71314 c -2.2,0.39224 -9.442756,0.73908 -16.095012,0.77078 -10.829086,0.0516 -12.282678,-0.14974 -13.888013,-1.92361 z m 71.983025,1.24546 c -3.999377,-0.75269 -7.566418,-2.56399 -7.190331,-3.65115 0.215221,-0.62215 2.570852,-1.09891 5.340914,-1.08098 6.097471,0.0395 17.989057,3.44539 16.134877,4.62123 -1.2528,0.79448 -10.28093,0.86457 -14.28546,0.1109 z m 61.5,0.43182 c 0,-0.16717 3.14267,-2.69313 6.9837,-5.61324 6.73408,-5.11951 10.0163,-6.01384 10.0163,-2.72919 0,1.81709 -3.0317,3.7095 -10.33898,6.45364 -5.91963,2.22303 -6.66102,2.43326 -6.66102,1.88879 z m 25.23856,-0.91172 c 0.53276,-1.59828 16.25508,-9.78432 18.79202,-9.78432 2.27309,0 2.60921,2.22414 0.58944,3.9004 -1.11929,0.92892 -17.97308,7.0996 -19.39094,7.0996 -0.21766,0 -0.21339,-0.54706 0.009,-1.21568 z m 40.76144,-0.58181 c 3.6774,-1.80486 14.7641,-5.65252 18.96985,-6.58352 3.3335,-0.73791 7.03015,0.28968 7.03015,1.95423 0,2.36039 -3.93532,3.60239 -15.88531,5.01345 -14.41526,1.70217 -14.36914,1.70392 -10.11469,-0.38416 z m -84.69314,-2.46749 c -4.7233,-4.99927 -9.30686,-11.83756 -9.30686,-13.88506 0,-2.33618 2.21492,-2.38848 4.23396,-0.1 1.88286,2.13415 9.04589,16.30349 8.51187,16.8375 -0.21039,0.2104 -1.75793,-1.07322 -3.43897,-2.85248 z m 11.98423,1.75714 c 0.31877,-1.09569 1.55356,-5.36716 2.74399,-9.49216 2.74805,-9.52237 5.828,-13.40515 7.39475,-9.32228 0.72379,1.88619 -6.46464,17.27636 -9.08533,19.45133 -1.43162,1.18814 -1.56152,1.1096 -1.05341,-0.63689 z m 5.70891,-1.19009 c 0,-0.47688 1.9125,-3.77743 4.25,-7.33456 2.81331,-4.2812 5.0106,-6.57553 6.5,-6.78706 4.32751,-0.6146 2.51596,3.34181 -4.25,9.28199 -3.575,3.13868 -6.5,5.31651 -6.5,4.83963 z m -13.27749,-3.30207 c -3.47296,-8.0996 -5.03696,-13.73708 -4.32154,-15.57714 0.71855,-1.84811 0.81896,-1.83543 2.5828,0.32614 1.85636,2.27494 4.5938,15.15751 3.71584,17.48702 -0.262,0.69519 -1.1517,-0.31102 -1.9771,-2.23602 z m 4.2928,-5.75 c 0.008,-4.8125 0.41301,-9.37807 0.89908,-10.14572 1.30623,-2.06291 4.08561,-0.53793 4.08561,2.24167 0,3.92061 -3.1413,16.65405 -4.1085,16.65405 -0.49033,0 -0.88461,-3.9375 -0.87619,-8.75 z m 60.98469,8.26257 c 0,-0.85436 13.37536,-7.236 16.6548,-7.94633 7.46912,-1.61781 3.46417,5.41096 -4.17986,7.33575 -4.41435,1.11155 -12.47494,1.50607 -12.47494,0.61058 z M 51.893791,216.07424 c -8.311716,-0.80242 -11.174771,-1.96231 -11.174771,-4.52714 0,-2.17627 4.782255,-2.78003 11.898065,-1.50214 9.682555,1.73884 23.457785,5.23874 24.551935,6.23795 1.142771,1.04363 -13.561041,0.92223 -25.275229,-0.20867 z m 46.062936,-1.39281 c -3.994261,-1.26855 -7.931761,-2.86206 -8.75,-3.54114 -2.364189,-1.9621 -1.785032,-3.9898 1.139578,-3.9898 2.818891,0 13.268565,4.81857 17.372715,8.01093 l 2.5,1.9446 -2.5,-0.0591 c -1.375,-0.0325 -5.76803,-1.09698 -9.762293,-2.36552 z m 81.252993,0.48411 c 1.05697,-1.71022 12.9242,-9.80572 14.90556,-10.16817 2.84996,-0.52134 3.08289,1.87767 0.41318,4.25563 -2.17535,1.93765 -12.98912,6.89749 -15.03833,6.89749 -0.48903,0 -0.61521,-0.44323 -0.28041,-0.98495 z M 72.232685,212.08196 c -8.120082,-1.35698 -9.398965,-1.84863 -10.588046,-4.07045 -1.500296,-2.80333 0.402838,-4.04254 4.933895,-3.21266 5.114814,0.9368 17.494791,5.91455 17.925818,7.20763 0.440493,1.32149 -4.629106,1.35267 -12.271667,0.0755 z m 103.313305,-0.60578 c 1.33449,-2.49029 13.74967,-14.32569 15.02746,-14.32569 1.96851,0 2.30714,2.10446 0.72674,4.51646 -1.42664,2.17732 -8.24831,7.0943 -14.43906,10.40748 -2.07835,1.1123 -2.20172,1.05618 -1.31514,-0.59825 z m 56.17303,-0.20102 c 0,-1.10639 15.3452,-8.50346 23.66127,-11.40579 6.01084,-2.0978 6.36921,-2.11697 8.0552,-0.43098 1.6044,1.6044 1.62769,2.00825 0.25669,4.45085 -1.67422,2.98283 -3.04158,3.43598 -18.97316,6.28785 -12.26453,2.19545 -13,2.25757 -13,1.09807 z m -129.22645,-4.17689 c -5.350395,-2.7619 -9.949675,-8.10286 -8.009977,-9.30166 1.390546,-0.8594 6.688467,2.0502 11.486427,6.30831 7.53407,6.68636 6.08866,7.93091 -3.47645,2.99335 z m 99.32268,-0.69778 c 1.60281,-2.51974 13.62779,-10.25 15.9446,-10.25 2.6137,0 2.48049,2.16864 -0.29083,4.7348 -2.02153,1.87187 -13.84783,7.2652 -15.93088,7.2652 -0.45984,0 -0.33514,-0.7875 0.27711,-1.75 z m 14.01891,-0.11094 c 1.31167,-1.02352 6.50946,-4.01121 11.55063,-6.63931 9.15871,-4.77468 12.82998,-5.31249 12.14965,-1.77983 -0.49321,2.56106 -7.1058,5.85653 -16.45827,8.2022 -10.09423,2.53171 -10.21302,2.53526 -7.24201,0.21694 z m -102.76698,-4.46167 c -6.5576,-4.82744 -11.6225,-10.3466 -11.0612,-12.05328 0.61511,-1.87033 4.18025,-1.8236 6.32389,0.0829 3.99297,3.55124 12.5702,16.293 10.96777,16.293 -0.19723,0 -3.00094,-1.94518 -6.23046,-4.32261 z m 60.65184,3.77991 c 0,-0.87682 7.54513,-10.8349 9.335,-12.32036 0.90174,-0.74838 2.31753,-1.10052 3.14619,-0.78253 1.23306,0.47317 1.29702,1.03827 0.35222,3.11187 -0.63494,1.39355 -1.46885,2.53372 -1.85314,2.53372 -0.38428,0 -2.7436,1.8 -5.24293,4 -4.33304,3.81409 -5.73734,4.66032 -5.73734,3.4573 z m -128,-1.12118 c -8.220406,-1.28736 -20.565761,-4.90188 -22.148636,-6.48476 -2.56302,-2.56302 -2.338352,-3.407 1.309117,-4.91783 2.859112,-1.18429 4.083582,-0.99664 12.841109,1.96786 15.513133,5.25133 22.719068,10.26039 14.331743,9.96243 -2.108333,-0.0749 -4.958333,-0.31237 -6.333333,-0.5277 z m 30.754684,-0.91477 c -0.318257,-0.31826 -4.780757,-1.69369 -9.916667,-3.05652 -12.865022,-3.41377 -19.838017,-6.68603 -19.838017,-9.30951 0,-3.02564 4.424854,-2.6756 12.656783,1.00125 8.018101,3.58134 19.300653,10.11617 19.325747,11.19343 0.02066,0.88711 -1.402615,0.99658 -2.227846,0.17135 z m 93.254696,-1.13617 c 0.0164,-1.36825 5.70909,-10.68955 8.01181,-13.11855 2.74703,-2.89768 4.92331,-1.53499 3.28634,2.05776 -2.07111,4.54559 -11.3286,13.60859 -11.29815,11.06079 z m -88.339311,-3.67475 c -7.825552,-2.54594 -14.0028,-6.95594 -11.81851,-8.43735 2.902508,-1.96852 9.664138,1.12775 19.148441,8.76842 3.225074,2.59816 1.423636,2.51679 -7.329931,-0.33107 z m 82.954311,-0.11043 c 1.40086,-6.14899 8.44799,-16.76096 10.06001,-15.14895 1.37753,1.37753 -1.95387,8.4053 -6.23305,13.14895 -4.28151,4.74623 -4.47574,4.84774 -3.82696,2 z m -46.37438,-5.70192 c -4.98685,-5.75368 -6.35998,-8.99404 -4.34024,-10.24231 1.8443,-1.13984 3.86652,0.68772 7.43424,6.7186 3.41994,5.78109 4.63583,9.8201 2.906,9.65332 -0.4125,-0.0398 -3.1125,-2.79809 -6,-6.12961 z m 80.75,4.5859 c 0,-1.20764 7.21702,-10.42258 9.31213,-11.89005 2.92548,-2.04909 5.68787,-1.90187 5.68787,0.30312 0,2.16335 -6.25648,8.35693 -10.70034,10.59277 -3.47681,1.74928 -4.29966,1.93954 -4.29966,0.99416 z m -69.76637,-4.06134 c -3.06494,-4.29693 -6.18482,-11.33543 -6.21167,-14.01362 -0.0275,-2.74048 1.6253,-3.84666 3.4655,-2.31943 1.97116,1.63592 5.7162,13.38244 5.33236,16.72522 l -0.31982,2.78519 z m 29.37627,-0.0726 c 1.27891,-5.42747 5.87316,-13.74686 7.78745,-14.1017 1.66218,-0.30811 1.82412,0.0995 1.30654,3.289 -0.58958,3.63312 -7.0382,13.5627 -8.80811,13.5627 -0.51364,0 -0.64228,-1.2375 -0.28588,-2.75 z m -6.34757,-5.87276 c 0.29211,-4.46751 1.04342,-9.08001 1.66957,-10.25 1.27741,-2.38685 3.59088,-2.81325 4.36192,-0.80395 0.55409,1.44395 -4.27505,17.02294 -5.68956,18.35474 -0.49562,0.46663 -0.64343,-2.68949 -0.34193,-7.30079 z m 58.73767,6.75814 c 0,-1.04479 10.15416,-9.8697 15.48213,-13.45541 2.19018,-1.47398 5.03257,-2.67997 6.31643,-2.67997 1.94951,0 2.28213,0.44688 2.01786,2.71105 -0.25204,2.15942 -1.63901,3.46701 -6.81642,6.4263 -7.55833,4.32016 -17,8.20681 -17,6.99803 z m 14,-0.18943 c 0,-1.16457 12.51049,-10.03299 20.22869,-14.33969 7.06257,-3.94086 10.77131,-4.15456 10.77131,-0.62066 0,3.24166 -1.16041,5.04599 -4.28401,6.66127 -6.52231,3.37281 -26.71599,9.6458 -26.71599,8.29908 z m -134.686792,-4.5649 c -3.747264,-2.54042 -7.825708,-5.54386 -9.063208,-6.67431 -2.453956,-2.24168 -3.028964,-5.70674 -0.947003,-5.70674 1.908137,0 9.451147,5.78155 14.13062,10.83081 7.189953,7.75812 5.805107,8.27915 -4.120409,1.55024 z m 47.444942,2.97571 c -1.65989,-2.89137 -3.8421,-11.78287 -3.57463,-14.56494 0.76669,-7.97468 5.66073,-0.98197 5.74473,8.20818 0.0403,4.41472 -1.1997,8.04712 -2.1701,6.35676 z m 7.9879,-0.35676 c -1.17983,-3.11504 -2.74605,-10.99751 -2.74605,-13.82038 0,-1.6141 0.7093,-3.52339 1.57622,-4.24287 2.3706,-1.96743 3.41264,0.42797 3.29015,7.56325 -0.12119,7.05982 -1.2695,12.74634 -2.12032,10.5 z m -68.74605,-5.156 C 61.958408,178.7606 56.743429,174.53805 58.274793,172.06025 c 1.618551,-2.61887 6.908156,0.22236 18.444227,9.90706 10.266794,8.61911 10.266794,10.75429 0,5.02718 z m -18.5,-1.28635 c -16.02987,-6.24667 -23.738108,-10.02666 -24.472256,-12.00075 -2.286661,-6.14874 3.845881,-6.11075 14.493165,0.0898 8.331601,4.85198 17.479091,11.88902 17.479091,13.44642 0,1.261 -0.682342,1.1213 -7.5,-1.53547 z m 130.5,1.9377 c 0,-1.10679 4.29978,-9.03344 7.18489,-13.24535 4.05919,-5.92595 8.78441,-5.87115 5.66886,0.0657 -2.77974,5.29703 -12.85375,15.62642 -12.85375,13.17965 z m 13.00374,-4.18633 c 0.005,-1.03621 4.00141,-7.64962 5.02131,-8.30902 0.42535,-0.275 2.84279,-3.3125 5.37209,-6.75 4.61628,-6.27387 7.99195,-8.00558 9.2442,-4.74228 1.03096,2.68666 -2.86341,7.58976 -11.64134,14.65671 -6.58679,5.3029 -8.0012,6.21289 -7.99626,5.14459 z M 84.4832,173.63164 C 74.415651,164.70507 71.56936,160.8197 73.183894,158.20733 c 1.340797,-2.16946 4.397056,-0.92512 8.157766,3.32138 4.078644,4.60551 14.313363,17.7986 15.67705,20.20855 2.102996,3.71647 -2.718387,0.5989 -12.53551,-8.10562 z m 12.392248,1.5134 c -5.707918,-5.56793 -7.466514,-9.06684 -5.24667,-10.43878 1.908697,-1.17964 4.373468,0.93866 8.656132,7.43933 7.15937,10.86724 5.84316,12.02516 -3.409462,2.99945 z m 120.843572,5.03739 c 0,-1.40944 17.62107,-20.24367 20.27789,-21.67396 4.65181,-2.50427 6.32293,1.58514 2.7171,6.64905 -1.10275,1.54868 -5.71525,5.25682 -10.25,8.24033 -10.53451,6.93088 -12.74499,8.10759 -12.74499,6.78458 z m -38.75331,-2.28194 c 0.25336,-0.6875 1.46546,-4.29431 2.69355,-8.01514 2.8718,-8.70087 6.17723,-12.19826 7.7226,-8.17109 0.73283,1.90972 -0.73535,5.28683 -5.29793,12.18623 -3.11807,4.71507 -6.29746,7.19983 -5.11822,4 z m 8.76578,-1.74233 c -0.0201,-2.40087 8.65559,-19.1658 12.03556,-23.25767 4.42839,-5.36111 8.95145,-4.86839 7.52386,0.81961 -0.97659,3.89102 -19.5365,25.18247 -19.55942,22.43806 z m -71.01482,-0.75767 c -10e-4,-0.4125 -1.39281,-2.325 -3.09228,-4.25 -5.23716,-5.93218 -8.31939,-14.00805 -5.91375,-15.49482 1.88419,-1.16449 5.72673,4.13865 8.00984,11.0545 1.26015,3.81718 2.49849,7.50282 2.75185,8.19032 0.25337,0.6875 -0.0375,1.25 -0.64632,1.25 -0.60885,0 -1.10805,-0.3375 -1.10934,-0.75 z m -14.72249,-9 c -10.005035,-11.38698 -14.27516,-17.32166 -14.27516,-19.8398 0,-3.47151 2.976149,-3.09347 6.611491,0.8398 4.932853,5.33712 16.434099,25.75 14.508339,25.75 -0.50262,0 -3.58272,-3.0375 -6.84467,-6.75 z m 26.57103,2 c -4.11188,-9.37778 -5.65134,-14.6025 -4.90061,-16.63192 1.02603,-2.77362 2.71649,-3.11802 3.95408,-0.80556 2.09499,3.91452 5.12657,22.18748 3.68102,22.18748 -0.35846,0 -1.58898,-2.1375 -2.73449,-4.75 z m -60.84619,0.48496 c -13.510977,-9.56516 -19.08825,-14.23839 -19.646269,-16.46172 -2.32491,-9.26318 11.446995,-0.58744 22.583616,14.22676 4.870059,6.47827 3.995902,7.14339 -2.937347,2.23496 z m 101.0318,2.06426 c -0.0608,-3.25098 2.17561,-12.31274 3.59068,-14.54922 1.94043,-3.06679 4.37752,-2.9091 4.37752,0.28324 0,2.55624 -3.52986,10.27344 -6.38843,13.96676 -1.3448,1.73752 -1.55214,1.77679 -1.57977,0.29922 z m -13.46285,-3.68765 c -1.18295,-1.91406 0.62493,-16.16259 2.25793,-17.7956 1.38369,-1.38369 1.6698,-1.35721 2.85545,0.26426 1.7871,2.44401 1.66353,4.48571 -0.67402,11.13644 -2.19654,6.24956 -3.43056,8.02717 -4.43936,6.3949 z m -36.21529,-3.3684 c -4.22473,-6.38367 -12.35337,-22.88144 -12.33835,-25.04172 0.0234,-3.3613 1.46318,-5.00175 3.7523,-4.27521 2.36445,0.75045 3.02994,2.28513 7.62065,17.57376 1.8992,6.325 3.76193,12.2875 4.13941,13.25 1.14241,2.913 -0.88636,1.94986 -3.17401,-1.50683 z m 44.66578,-0.29317 c 0.0351,-7.13393 2.69447,-22.99608 4.41233,-26.31805 1.08758,-2.10315 2.28316,-3.13335 3.37607,-2.90906 2.72813,0.55985 1.85235,8.28423 -2.32132,20.47425 -4.2508,12.41529 -5.49491,14.40712 -5.46708,8.75286 z m 14.60515,0.3 c 2.07267,-11.72342 8.05123,-24.75 11.35905,-24.75 2.69576,0 2.04084,3.71698 -2.00054,11.35401 -2.37089,4.4803 -5.22319,10.05849 -6.33844,12.39599 -2.41234,5.0561 -3.81956,5.52206 -3.02007,1 z m -43.19936,-0.5 c -0.33708,-1.5125 -1.20094,-4.1 -1.91969,-5.75 -2.27204,-5.21584 -4.26874,-11.79417 -5.53399,-18.23228 -1.07988,-5.49491 -1.02479,-6.53751 0.46557,-8.81209 4.40506,-6.72298 7.74129,2.45409 9.01371,24.79437 0.39823,6.99168 0.2583,10.75 -0.40022,10.75 -0.55688,0 -1.2883,-1.2375 -1.62538,-2.75 z m 8.20674,1.2333 c -0.34848,-0.90812 -0.9219,-4.75307 -1.27426,-8.54431 -0.55673,-5.99026 -0.41242,-6.98077 1.10174,-7.5618 2.80037,-1.07461 3.69435,1.57857 3.06655,9.101 -0.59508,7.13033 -1.76205,9.95502 -2.89403,7.00511 z m 63.72871,-0.98082 c 1.07934,-2.81272 9.06245,-14.50833 13.14123,-19.25248 4.47821,-5.20873 8.49809,-5.9078 8.49809,-1.47784 0,3.53123 -3.98742,8.3729 -12.68637,15.40426 -8.66817,7.00647 -9.87278,7.72309 -8.95295,5.32606 z m -57.36068,-16.68004 c 0,-13.09262 0.25654,-15.79046 1.60821,-16.91225 2.44289,-2.02741 4.63514,1.4772 4.12215,6.58981 -0.75658,7.5403 -3.94956,23.99975 -4.84008,24.95 -0.52293,0.55801 -0.89028,-5.47768 -0.89028,-14.62756 z m -70.311628,5.40669 c -9.71537,-9.76282 -14.121544,-15.65792 -13.301144,-17.79585 1.514506,-3.94674 9.51462,1.82454 14.54651,10.49384 5.077602,8.74806 8.292962,15.17951 7.823563,15.64891 -0.210222,0.21022 -4.29124,-3.54588 -9.068929,-8.3469 z m 112.341468,0.62558 c -0.0327,-1.80516 4.60494,-13.3068 8.74035,-21.67647 3.00013,-6.07194 5.70175,-8.13487 7.84572,-5.9909 2.16121,2.16121 -0.48179,10.75227 -4.92731,16.01619 -8.8679,10.50043 -11.62957,13.26032 -11.65876,11.65118 z m -89.66284,-5.60471 c -0.92351,-1.5125 -2.81847,-4.55 -4.211019,-6.75 -8.970414,-14.17179 -11.355647,-20.5262 -8.935393,-23.80443 3.183015,-4.31138 8.039343,2.41761 12.127802,16.80443 2.89631,10.19177 4.15258,16.5 3.28595,16.5 -0.32353,0 -1.34383,-1.2375 -2.26734,-2.75 z m 76.45313,-2.76321 c -0.8035,-0.8035 1.01471,-11.25742 3.34027,-19.20513 3.08125,-10.53027 7.8396,-13.80487 7.8396,-5.39505 0,4.03873 -3.17599,12.65807 -7.50336,20.36339 -2.80156,4.98847 -2.85883,5.05447 -3.67651,4.23679 z m -59.8618,-7.73679 c -1.62622,-3.4375 -2.95711,-6.73492 -2.95754,-7.32759 -4.3e-4,-0.59268 -1.12579,-3.84624 -2.50079,-7.23013 -2.92981,-7.2103 -3.27368,-12.68141 -0.85538,-13.6094 1.96505,-0.75406 5.18705,1.90393 6.5666,5.41712 0.77621,1.97669 4.66753,25.04311 4.7658,28.25 0.0126,0.4125 -0.44613,0.75 -1.01948,0.75 -0.57336,0 -2.373,-2.8125 -3.99921,-6.25 z m 41.08106,-2.25 c -0.0385,-9.54665 1.77617,-22.74413 3.34281,-24.31077 1.93106,-1.93106 3.41431,-0.79086 4.16304,3.20021 0.68425,3.64736 -3.85008,22.32716 -6.15741,25.36633 -1.14623,1.50979 -1.32748,0.93777 -1.34844,-4.25577 z m -19.92771,-0.25 c -0.995,-4.34478 -2.31713,-11.82379 -3.79904,-21.49043 -1.10361,-7.19898 4.73526,-9.66943 6.77363,-2.86595 1.28108,4.27584 0.35357,29.10638 -1.08722,29.10638 -0.43976,0 -1.28908,-2.1375 -1.88737,-4.75 z"
             id="path1163"
             inkscape:connector-curvature="0" />
          <path
             style="fill:#ff0000"
             d="m 187.77487,455.94816 c -4.59004,-2.27097 -7.45808,-6.15152 -6.69713,-9.06142 1.07265,-4.10182 -3.03245,-7.48717 -5.90872,-4.87273 -1.66131,1.51008 -7.7927,3.19378 -8.61953,2.36695 -0.86872,-0.86872 5.92703,-12.23047 7.31536,-12.23047 0.4698,0 0.85417,-0.68912 0.85417,-1.53138 0,-2.34556 2.60819,-2.83824 7.61066,-1.43764 5.80825,1.62621 7.81196,4.5272 7.15468,10.3586 -0.85292,7.56704 3.24711,10.88554 9.97568,8.07416 l 3.64535,-1.52312 -4.94318,-3.23076 c -3.74821,-2.44975 -5.29407,-4.24323 -6.39466,-7.41895 -1.33315,-3.84677 -1.30267,-4.35261 0.3739,-6.2052 1.00396,-1.10936 3.66618,-2.38105 5.91605,-2.82599 l 4.09067,-0.80896 -3.68578,-2.17467 c -2.02718,-1.19606 -5.27057,-2.47197 -7.20754,-2.83535 -3.27944,-0.61522 -9.53583,-6.1192 -9.53583,-8.38903 0,-0.48328 1.79616,-2.1996 3.99147,-3.81405 3.64604,-2.68133 4.91407,-2.9876 14.65257,-3.53909 11.57951,-0.65574 14.20656,-1.68919 9.77884,-3.84688 -1.52556,-0.74343 -3.62606,-2.88652 -4.66779,-4.76242 -1.04172,-1.8759 -2.98778,-4.27106 -4.32457,-5.32258 -3.10137,-2.43954 -3.09897,-5.2826 0.006,-7.31717 1.34019,-0.87812 2.71569,-2.86683 3.05669,-4.41936 0.34099,-1.55253 1.53162,-3.6478 2.64585,-4.65617 1.11423,-1.00836 2.62614,-3.27002 3.3598,-5.02591 1.44332,-3.45435 5.78967,-6.90572 7.42426,-5.89549 0.55618,0.34374 3.27597,0.32455 6.04397,-0.0426 4.01288,-0.53234 5.03291,-1.0469 5.03291,-2.53882 0,-1.02914 -0.45728,-1.87117 -1.01618,-1.87117 -0.5589,0 -1.76255,-1.56516 -2.67478,-3.47813 -1.49605,-3.13724 -1.50762,-3.65178 -0.11813,-5.25 0.84726,-0.97453 1.83932,-3.02864 2.20458,-4.56469 0.36526,-1.53605 1.4382,-3.04205 2.38431,-3.34665 0.94611,-0.30461 3.0702,-1.16198 4.7202,-1.90526 1.65,-0.74328 4.22932,-1.60631 5.73181,-1.91783 1.68459,-0.34928 3.32364,-1.71089 4.27568,-3.55193 0.84913,-1.64203 2.0324,-2.98551 2.62948,-2.98551 0.68138,0 0.86188,-1.21016 0.48477,-3.25 -0.68609,-3.71114 0.39214,-8.71213 1.87826,-8.71162 0.55,1.9e-4 1,0.77914 1,1.73099 0,0.95184 0.87335,4.29653 1.94077,7.43263 l 1.94077,5.70201 -3.76197,3.54799 c -2.06909,1.9514 -4.64439,3.548 -5.72289,3.548 -2.68909,0 -8.11477,2.36095 -10.18634,4.43252 -0.94069,0.94068 -1.71034,2.94221 -1.71034,4.44784 0,2.35448 0.76814,3.07906 5.48986,5.17857 3.17508,1.4118 5.49414,3.08513 5.5,3.96856 0.006,0.84013 0.69918,2.51124 1.54135,3.7136 2.13201,3.04387 0.12438,6.0747 -4.52163,6.82609 -7.51821,1.21593 -9.00958,1.62202 -9.00958,2.45326 0,1.2709 1.45302,1.95493 5.03971,2.37254 4.84024,0.56356 5.55472,2.82756 3.37241,10.68637 -0.60085,2.16375 -9.06167,6.24556 -11.58052,5.58686 -1.12543,-0.2943 -3.04265,-0.15627 -4.26049,0.30675 -1.78558,0.67888 -2.92637,0.17001 -5.89268,-2.62853 -2.28229,-2.15321 -3.67843,-4.39535 -3.67843,-5.90741 0,-2.67567 -2.67259,-3.36443 -4.8,-1.23702 -1.92674,1.92674 -1.52702,8.76156 0.55,9.40439 3.48913,1.07987 8.15287,3.33067 9.93155,4.79314 1.00015,0.82234 2.92587,2.36531 4.27938,3.42882 1.89172,1.48641 2.58561,3.17445 3,7.29808 0.48981,4.8742 0.84134,5.50679 3.84685,6.92245 4.79622,2.25914 8.50555,9.13254 8.26876,15.32203 -0.26814,7.00907 -2.13655,9.27476 -8.90589,10.79956 -3.11886,0.70252 -6.51513,1.17222 -7.54727,1.04378 -1.03214,-0.12845 -3.81502,1.45875 -6.18418,3.5271 -6.58568,5.74952 -10.11948,8.26065 -11.62485,8.26065 -0.75314,0 -2.43691,0.74776 -3.74172,1.66168 -4.10827,2.87755 -9.5976,3.32243 -14.01678,1.13599 z m 26.02594,-16.79767 c 0.50501,0 0.91821,-0.675 0.91821,-1.5 0,-0.825 -0.46114,-1.5 -1.02475,-1.5 -0.56361,0 -1.44992,-1.11827 -1.96956,-2.48504 -0.87669,-2.30585 -1.28952,-2.43991 -5.72525,-1.85912 -5.70623,0.74713 -5.49571,0.61961 -4.65214,2.8179 0.7868,2.05037 8.25204,5.71462 10.20349,5.0083 0.73248,-0.26512 1.74498,-0.48204 2.25,-0.48204 z m 12.31255,-8.43862 c 3.26741,-2.67175 3.05603,-4.56496 -0.79115,-7.08572 -2.16951,-1.42152 -3.0122,-1.46726 -6.30374,-0.34209 -2.0897,0.71434 -3.97228,1.41184 -4.18352,1.55002 -0.45279,0.29617 7.15146,8.25033 7.88407,8.24686 0.275,-10e-4 1.80245,-1.06739 3.39434,-2.36907 z m -18.91321,-15.54053 c 1.65902,-1.8332 1.66723,-2.02669 0.1113,-2.62375 -1.99232,-0.76453 -6.91316,-0.0435 -11.09243,1.62526 -2.75684,1.10081 -2.8379,1.26434 -1,2.01749 3.90483,1.60016 10.08663,1.0744 11.98113,-1.019 z m 24.3162,-30.87443 c 1.02905,-0.65277 0.96001,-1.10292 -0.33382,-2.1767 -1.72688,-1.43318 -4.46506,-0.46506 -5.23732,1.85172 -0.44982,1.34944 3.58512,1.58481 5.57114,0.32498 z m -112.79733,67.95694 c -0.825,-0.4597 -3.45974,-1.13389 -5.85497,-1.49819 -2.39524,-0.36431 -5.70907,-1.36261 -7.36407,-2.21844 -2.93708,-1.51882 -2.99481,-1.69165 -2.41214,-7.2214 0.32833,-3.11593 0.87889,-7.35283 1.22347,-9.41533 0.55431,-3.31776 0.39019,-3.75 -1.42387,-3.75 -1.12771,0 -2.35915,-0.4996 -2.73653,-1.11021 -0.395639,-0.64015 -2.071877,-0.88534 -3.959017,-0.5791 -2.541421,0.41242 -3.748255,0.0251 -5.400016,-1.73314 -1.852566,-1.97196 -2.041469,-2.99327 -1.463388,-7.91183 0.747785,-6.36249 1.351713,-7.08509 8.044968,-9.6258 5.391083,-2.04642 6.136903,-3.10572 3.818773,-5.42385 -2.988771,-2.98877 -6.925042,-2.0428 -9.842186,2.3653 -4.074288,6.15667 -13.721282,10.33726 -23.919036,10.36549 -6.425072,0.0178 -8.131682,-0.32211 -9.751789,-1.94222 -1.951704,-1.9517 -1.95147,-1.99879 0.03801,-7.65922 2.508711,-7.13774 2.497683,-8.15567 -0.126805,-11.70548 -5.037915,-6.81415 4.095672,-17.03994 15.219926,-17.03994 4.470558,0 11.488632,-3.34663 13.020493,-6.20894 0.850906,-1.58994 0.61453,-2.45344 -1.200459,-4.38541 -3.038791,-3.23464 -5.517442,-3.09771 -6.233254,0.34435 -0.627723,3.01847 -4.939442,5.9927 -10.610123,7.31886 -2.843061,0.66489 -3.905114,0.40453 -6.188923,-1.51717 -2.285889,-1.92345 -3.578888,-2.23964 -7.567987,-1.85067 -2.646092,0.25802 -6.290993,0.92148 -8.099779,1.47437 -4.539517,1.3876 -6.239438,-0.15217 -5.506082,-4.98732 0.569843,-3.75707 3.708593,-8.18807 5.800118,-8.18807 0.636189,0 1.731739,-1.07446 2.434556,-2.38768 1.055689,-1.97258 2.345519,-2.50659 7.41898,-3.07159 3.377622,-0.37614 7.60363,-0.73042 9.39113,-0.78729 1.7875,-0.0569 3.25,-0.45882 3.25,-0.89323 0,-1.32213 -3.692285,-2.86021 -6.866164,-2.86021 -2.160236,0 -3.569421,-0.80298 -5.044401,-2.8744 -1.673791,-2.35062 -3.007306,-2.98199 -7.318094,-3.46484 -8.893357,-0.99613 -14.59181,-2.26687 -16.218123,-3.61659 -1.687879,-1.40082 -2.122413,-6.57435 -0.629678,-7.49692 0.507947,-0.31392 1.660914,-2.7908 2.562149,-5.50416 1.248271,-3.7582 1.404793,-5.7802 0.657067,-8.48824 -1.104677,-4.00081 -0.02522,-4.65283 2.272376,-1.37255 1.184939,1.69173 1.392585,3.79066 0.923728,9.33722 l -0.604812,7.15492 3.26622,2.32575 c 2.059158,1.46625 4.972384,2.41825 7.882976,2.57603 5.206337,0.28224 10.116756,1.89738 10.116756,3.3276 0,2.23903 3.353743,4.09618 7.397115,4.09618 4.699648,0 7.017594,1.82883 10.139587,8 2.188436,4.32583 3.948225,5.65789 8.45066,6.39665 4.024829,0.6604 9.707633,5.53993 10.602005,9.10339 0.745337,2.96966 -0.705602,7.6299 -2.648886,8.5079 -0.792265,0.35795 -3.240481,1.562 -5.440481,2.67565 -2.2,1.11366 -5.30259,2.34035 -6.894645,2.72598 -4.260678,1.03202 -1.954471,2.59569 4.866611,3.29969 5.366484,0.55387 5.851734,0.82122 7.15587,3.94245 1.269598,3.03858 1.790883,3.35205 5.635584,3.38893 3.22225,0.0309 5.07456,0.7571 7.73658,3.03308 3.16062,2.70228 3.52334,3.54679 3.74068,8.70936 0.40828,9.69785 0.51947,25.49301 0.21202,30.1201 -0.23826,3.58581 0.13081,4.74602 1.98815,6.25 3.76245,3.04665 6.71695,2.41372 8.08518,-1.73206 1.07203,-3.24827 0.94549,-3.91008 -1.36979,-7.16412 -2.85227,-4.00875 -2.64905,-4.91218 2.29563,-10.20547 2.52514,-2.70318 3.52663,-3.15006 5.80014,-2.58811 1.51139,0.37357 3.87299,1.72158 5.24799,2.99556 1.375,1.27398 3.47982,2.61184 4.67739,2.97302 1.19756,0.36117 3.10303,2.22554 4.23438,4.14303 l 2.05699,3.48635 -2.49524,0.94869 c -1.37239,0.52178 -4.49821,0.67415 -6.94627,0.33861 -4.12315,-0.56514 -4.54109,-0.41242 -5.67364,2.07327 -1.02357,2.24648 -0.94099,3.16012 0.50722,5.61174 2.00866,3.40039 1.1467,5.97636 -3.23919,9.68035 -2.79641,2.36163 -4.70758,2.73447 -7.12164,1.38932 z m -15.53101,-34.05319 c 0.59201,-0.95789 -2.42842,-3.05017 -4.403249,-3.05017 -0.586157,0 -1.065741,0.9 -1.065741,2 0,1.45377 0.666667,2 2.44098,2 1.34254,0 2.70515,-0.42742 3.02801,-0.94983 z M 75.564728,405.72893 c 1.459861,-0.78186 3.441792,-1.66774 4.404292,-1.96862 2.006104,-0.62711 2.371461,-4.21262 0.5,-4.90685 -2.341533,-0.8686 -11.244233,0.55992 -13,2.08597 -4.821258,4.19046 1.847582,8.13581 8.095708,4.7895 z m -7.068214,-18.13514 c 2.865754,-2.00726 2.833435,-3.4433 -0.07749,-3.4433 -2.544704,0 -4.7,1.69672 -4.7,3.7 0,1.75099 2.0699,1.63977 4.777494,-0.2567 z M 64.96902,361.72438 c 3.872862,-0.86188 3.415611,-2.20229 -1,-2.93145 -2.828008,-0.467 -4.049455,-0.21708 -4.967967,1.01648 -1.500534,2.01521 -0.686022,3.57625 1.552124,2.9747 0.916214,-0.24625 2.903343,-0.72313 4.415843,-1.05973 z m 1.5625,-130.257 c 0.721875,-0.28887 1.584375,-0.25335 1.916667,0.0789 0.332291,0.33229 -0.258334,0.56864 -1.3125,0.52522 -1.164943,-0.048 -1.4019,-0.28494 -0.604167,-0.60416 z m -2,-6 c 0.721875,-0.28887 1.584375,-0.25335 1.916667,0.0789 0.332291,0.33229 -0.258334,0.56864 -1.3125,0.52522 -1.164943,-0.048 -1.4019,-0.28494 -0.604167,-0.60416 z m 172.1875,-24.69445 c 0,-0.20765 0.7875,-0.99515 1.75,-1.75 1.58606,-1.24387 1.62143,-1.2085 0.37756,0.37756 -1.30637,1.66575 -2.12756,2.19548 -2.12756,1.37244 z"
             id="path1161"
             inkscape:connector-curvature="0" />
        </g>
      </g>
    </g>
  </g>
</svg>
