<?xml version="1.0" encoding="UTF-8" standalone="no"?>
<!-- Created with Inkscape (http://www.inkscape.org/) -->

<svg
   xmlns:dc="http://purl.org/dc/elements/1.1/"
   xmlns:cc="http://creativecommons.org/ns#"
   xmlns:rdf="http://www.w3.org/1999/02/22-rdf-syntax-ns#"
   xmlns:svg="http://www.w3.org/2000/svg"
   xmlns="http://www.w3.org/2000/svg"
   xmlns:sodipodi="http://sodipodi.sourceforge.net/DTD/sodipodi-0.dtd"
   xmlns:inkscape="http://www.inkscape.org/namespaces/inkscape"
   version="1.1"
   id="svg2949"
   width="283"
   height="443"
   viewBox="0 0 283 443"
   sodipodi:docname="feu145.svg"
   inkscape:version="0.92.4 (5da689c313, 2019-01-14)">
  <metadata
     id="metadata2955">
    <rdf:RDF>
      <cc:Work
         rdf:about="">
        <dc:format>image/svg+xml</dc:format>
        <dc:type
           rdf:resource="http://purl.org/dc/dcmitype/StillImage" />
        <dc:title></dc:title>
      </cc:Work>
    </rdf:RDF>
  </metadata>
  <defs
     id="defs2953" />
  <sodipodi:namedview
     pagecolor="#ffffff"
     bordercolor="#666666"
     borderopacity="1"
     objecttolerance="10"
     gridtolerance="10"
     guidetolerance="10"
     inkscape:pageopacity="0"
     inkscape:pageshadow="2"
     inkscape:window-width="1280"
     inkscape:window-height="972"
     id="namedview2951"
     showgrid="false"
     inkscape:zoom="2.1309255"
     inkscape:cx="129.71757"
     inkscape:cy="224.72047"
     inkscape:window-x="-8"
     inkscape:window-y="-8"
     inkscape:window-maximized="1"
     inkscape:current-layer="g928"
     showguides="true" />
  <g
     id="g151"
     transform="translate(25.882805,-2.654647)">
    <g
       id="g534"
       transform="translate(-21.900834,-45.792654)">
      <g
         id="g928"
         transform="translate(-3.9819699,-1.3273232)">
        <g
           id="g1289"
           transform="translate(9.4051294,-0.777528)">
          <path
             style="fill:#00ff00"
             d="m 120.23086,389.80415 c -4.04995,-3.69 -4.81259,-7.96414 -2.04812,-11.4786 5.55202,-7.05824 17.03483,-2.76395 17.03483,6.37062 0,1.10651 -1.31538,3.32721 -2.92308,4.9349 -3.82087,3.82088 -7.99427,3.88075 -12.06363,0.17308 z m 31.21768,1.90032 c -2.71817,-0.77905 -6.2152,-5.77062 -6.22438,-8.88454 -0.004,-1.22883 1.28639,-3.68133 2.86671,-5.45 6.91849,-7.74314 19.33602,-0.45189 15.91985,9.34773 -1.53832,4.41285 -7,6.58097 -12.56218,4.98681 z m -55.902227,-6.6246 c -5.65278,-2.42947 -7.03294,-8.43294 -3.01307,-13.10632 1.85667,-2.1585 3.18146,-2.69213 6.68356,-2.69213 3.669267,0 4.834297,0.52199 7.283887,3.26357 2.37306,2.65591 2.79984,3.84436 2.29213,6.38289 -1.21191,6.05959 -7.09945,8.79389 -13.246507,6.15199 z m 79.171257,-3.68045 c -3.21563,-1.75881 -4.50034,-3.98422 -4.49503,-7.7864 0.007,-5.24757 3.72879,-9.49114 8.21197,-9.36406 4.81537,0.1365 9.6282,2.83999 10.37863,5.82995 0.96662,3.85131 -0.44448,9.25601 -2.858,10.9465 -2.52478,1.76843 -8.33463,1.96179 -11.23757,0.37401 z M 66.727234,372.38326 c -2.213943,-2.63112 -2.557569,-3.78014 -2.018657,-6.75 0.822876,-4.53473 3.05338,-6.76523 7.588109,-7.58811 2.955564,-0.53631 4.118732,-0.1954 6.676482,1.9568 5.366673,4.51576 5.475097,11.3473 0.223196,14.06317 -4.920653,2.54457 -9.423929,1.93716 -12.46913,-1.68186 z m 128.801706,-5.72928 c -6.03686,-3.77853 -6.12613,-12.98786 -0.15686,-16.18252 3.21439,-1.72029 9.76125,-0.4561 12.66247,2.44512 1.87396,1.87397 2.47584,3.4685 2.37018,6.2792 -0.27823,7.4008 -8.43432,11.48998 -14.87579,7.4582 z M 47.14065,360.63107 c -3.705138,-3.70513 -3.82062,-7.6294 -0.335133,-11.38834 2.219655,-2.3938 3.237079,-2.74812 7.149376,-2.48978 6.154824,0.40641 8.79366,3.69888 7.778829,9.70561 -1.213197,7.18086 -9.278628,9.48696 -14.593072,4.17251 z m 167.32873,-11.6131 c -1.20626,-0.8449 -2.72151,-3.2995 -3.36722,-5.45468 -1.44122,-4.81038 0.15395,-7.85048 5.4339,-10.35598 4.82344,-2.28888 8.99026,-1.24821 12.28196,3.06742 2.40414,3.15199 2.55157,3.82866 1.55726,7.14735 -1.86904,6.23832 -10.6022,9.31075 -15.9059,5.59589 z M 26.290153,342.91929 c -2.354694,-2.99351 -2.661869,-8.00439 -0.653032,-10.65275 3.124624,-4.11936 12.332287,-3.91313 14.601561,0.32705 1.599422,2.98855 1.120416,7.51092 -1.093689,10.3257 -1.672181,2.12583 -2.913887,2.63486 -6.42742,2.63486 -3.513533,0 -4.755239,-0.50903 -6.42742,-2.63486 z M 231.14065,328.63107 c -4.5206,-4.52059 -3.97709,-10.96339 1.14844,-13.61391 7.44373,-3.84929 14.92848,-0.12905 14.92848,7.42011 0,4.25072 -1.68507,6.66645 -5.72028,8.20063 -4.25405,1.61739 -7.32809,1.02173 -10.35664,-2.00683 z m -218,-6 c -3.726485,-3.72648 -3.840837,-7.83277 -0.334183,-12.00019 3.161651,-3.75741 6.73474,-4.004 11.513223,-0.79456 2.690978,1.80738 3.462646,3.05889 3.70918,6.01563 0.253609,3.0416 -0.241745,4.28649 -2.673077,6.71783 -3.993304,3.9933 -8.261717,4.01472 -12.215143,0.0613 z m 165.7164,-5.77077 c -0.35171,-0.35172 1.28481,1.28484 -3e-5,0 z m 63.2836,-10.22923 c -3.88107,-3.88107 -4.07754,-9.64373 -0.44514,-13.05619 3.09691,-2.9094 9.90662,-3.3085 13.72869,-0.80461 5.45999,3.5769 4.44186,12.15048 -1.79614,15.12517 -5.06783,2.41668 -8.14506,2.07798 -11.48741,-1.26437 z M 8.519933,299.54236 c -2.461844,-0.99142 -5.30236,-5.79872 -5.30236,-8.97373 0,-5.82931 6.947653,-10.12715 12.080334,-7.47294 4.305265,2.22634 6.271025,5.77202 5.494601,9.91072 -1.106648,5.89893 -6.595582,8.82215 -12.272575,6.53595 z M 247.14065,277.63107 c -3.84546,-3.84545 -4.14842,-10.57714 -0.62501,-13.88722 2.66234,-2.50113 7.5113,-3.70535 11.19616,-2.7805 4.95056,1.24251 8.32607,10.70012 5.22397,14.63669 -4.4566,5.65543 -11.29182,6.53434 -15.79512,2.03103 z M 3.505428,273.95496 c -2.565678,-1.14773 -5.5309461,-7.43535 -4.92809,-10.44964 1.157695,-5.78847 3.424025,-7.95117 8.332168,-7.95117 12.520186,0 14.202883,17.26319 1.806504,18.53336 -2.19914,0.22533 -4.543902,0.16568 -5.210582,-0.13255 z M 245.11878,248.44839 c -3.64379,-3.90069 -3.7452,-7.73777 -0.31232,-11.81751 2.14768,-2.55237 3.31769,-3.07673 6.86514,-3.07673 6.05685,0 9.54597,2.92254 9.54597,7.99585 0,9.23978 -9.93486,13.4969 -16.09879,6.89839 z M 0.904664,245.74943 c -3.2178689,-3.35873 -3.4689757,-7.28848 -0.713037,-11.15884 2.87018,-4.0308 7.220145,-5.61285 11.05984,-4.0224 3.824966,1.58435 6.966106,5.51672 6.966106,8.72082 0,1.47016 -1.372308,3.83745 -3.4,5.86514 -4.525296,4.5253 -9.926318,4.75639 -13.912909,0.59528 z M 238.11878,223.44839 c -1.86225,-1.99354 -2.90121,-4.17649 -2.90121,-6.0957 0,-9.38839 11.44636,-14.13172 17.01582,-7.0513 3.99144,5.07429 1.78304,12.18538 -4.61439,14.85839 -4.82912,2.01774 -6.25697,1.76052 -9.50022,-1.71139 z M 6.257093,220.09622 c -1.953598,-2.07951 -2.226634,-3.18965 -1.77342,-7.21054 0.639092,-5.67001 3.329386,-8.33153 8.421607,-8.33153 4.801283,0 9.312293,4.52161 9.312293,9.33418 0,7.46366 -10.825189,11.67415 -15.96048,6.20789 z M 231.00349,201.77507 c -3.78009,-0.48306 -7.78592,-5.52732 -7.78592,-9.80426 0,-6.43808 7.99149,-10.66715 14.24861,-7.54031 10.10434,5.04938 4.9783,18.80663 -6.46269,17.34457 z M 23.717573,196.66066 c -6.07282,-1.22775 -8.146835,-11.32099 -3.151073,-15.33476 2.893448,-2.3247 7.967698,-3.20785 10.535425,-1.83364 3.152476,1.68715 5.398125,6.74262 4.684591,10.54608 -1.011941,5.39411 -5.624696,7.92517 -12.068943,6.62232 z M 210.83393,177.55127 c -3.85996,-4.27252 -4.28695,-5.87559 -2.46954,-9.27146 2.93384,-5.48192 9.04196,-7.23076 14.81957,-4.24304 5.47989,2.83376 5.23995,11.99067 -0.40563,15.47983 -5.00232,3.0916 -7.79019,2.63288 -11.9444,-1.96533 z M 39.11,172.26819 c -7.57689,-6.43338 -1.051519,-17.93041 9.194293,-16.19939 6.591487,1.11363 9.539119,6.82292 6.718595,13.01329 -2.480974,5.44515 -11.196983,7.19028 -15.912888,3.1861 z m 149.50757,-8.11404 c -3.71188,-3.71188 -4.17354,-6.20346 -1.94716,-10.50881 2.54782,-4.92693 7.87586,-6.01067 14.23121,-2.89465 5.47462,2.68419 5.0217,12.3529 -0.71768,15.32085 -4.60225,2.37992 -7.79899,1.84999 -11.56637,-1.91739 z M 64.327644,159.15864 c -2.697672,-1.4952 -5.021704,-5.16359 -5.074636,-8.0101 -0.01949,-1.04808 1.112466,-3.41058 2.515456,-5.25 2.091375,-2.74193 3.217248,-3.34038 6.25,-3.32215 6.19202,0.0372 10.705441,5.1961 9.559371,10.92645 -1.179124,5.89562 -7.754024,8.70209 -13.250191,5.6558 z m 103.289586,-4.03243 c -3.37631,-1.46979 -4.39966,-3.22429 -4.39966,-7.54306 0,-6.1198 7.41334,-9.95615 14,-7.24491 4.25418,1.75113 4.96495,2.75537 4.98469,7.04283 0.0109,2.35686 -0.83701,4.17924 -2.90777,6.25 -3.2448,3.24481 -6.65502,3.68145 -11.67726,1.49514 z m -78.484217,-5.22952 c -1.786258,-0.47962 -4.91544,-6.41321 -4.91544,-9.3207 0,-1.05067 1.07724,-3.16268 2.393867,-4.69335 1.912983,-2.22397 3.239273,-2.78304 6.602333,-2.78304 3.48384,0 4.70741,0.55841 7.106137,3.24305 3.34582,3.74463 3.54722,5.3033 1.19891,9.27867 -2.290607,3.87769 -7.355537,5.62602 -12.385807,4.27537 z M 143.572,147.79734 c -3.14599,-0.52041 -5.45322,-3.56081 -6.04387,-7.96443 -0.42837,-3.19373 -0.0455,-4.44027 2.17364,-7.07762 3.75664,-4.46451 9.34401,-4.52677 13.71792,-0.15287 2.68099,2.68099 2.98203,3.5421 2.49855,7.14675 -0.8486,6.32674 -5.28196,9.21673 -12.34624,8.04817 z m -28.99035,-3.41278 c -4.74741,-2.29874 -5.83076,-10.45464 -1.90953,-14.37587 5.30328,-5.30328 15.96949,-1.6639 15.7692,5.38056 -0.1387,4.87824 -0.97252,6.58528 -4.12676,8.44853 -3.23967,1.91373 -6.52831,2.09847 -9.73291,0.54678 z"
             id="path1295"
             inkscape:connector-curvature="0"
             sodipodi:nodetypes="ccscccccccscsccsscsccsssccssssccscscscsccccscsscscccscccsssccccccsccsscsssccccsccssscssssssssssscssccssssssssscscscccsscsssssccsscsccsccsscccsscscsscscccccsscc" />
          <path
             style="fill:#ffff00"
             d="m 185.21757,381.17659 c 0,-0.20765 0.7875,-0.99515 1.75,-1.75 1.58606,-1.24387 1.62143,-1.2085 0.37756,0.37756 -1.30637,1.66575 -2.12756,2.19548 -2.12756,1.37244 z m -76.84211,-3.62244 c 0,-1.375 0.22698,-1.9375 0.50439,-1.25 0.27741,0.6875 0.27741,1.8125 0,2.5 -0.27741,0.6875 -0.50439,0.125 -0.50439,-1.25 z m 23.71455,0.25 c -1.24387,-1.58606 -1.2085,-1.62143 0.37756,-0.37756 0.9625,0.75485 1.75,1.54235 1.75,1.75 0,0.82304 -0.82119,0.29331 -2.12756,-1.37244 z m 29.53255,-0.5 -1.90499,-2.25 2.25,1.90499 c 2.11444,1.79022 2.70524,2.59501 1.90499,2.59501 -0.18976,0 -1.20226,-1.0125 -2.25,-2.25 z m -37.13596,-2.44299 c 0.97297,-0.25354 2.32297,-0.23687 3,0.0371 0.67703,0.27393 -0.11903,0.48137 -1.76903,0.46099 -1.65,-0.0204 -2.20394,-0.2445 -1.23097,-0.49804 z m 63.92592,-2.80701 c 0.0204,-1.65 0.2445,-2.20394 0.49804,-1.23097 0.25354,0.97297 0.23687,2.32297 -0.0371,3 -0.27393,0.67703 -0.48137,-0.11903 -0.46099,-1.76903 z m -16.19495,-4.87756 c 0,-0.20765 0.7875,-0.99515 1.75,-1.75 1.58606,-1.24387 1.62143,-1.2085 0.37756,0.37756 -1.30637,1.66575 -2.12756,2.19548 -2.12756,1.37244 z m 40.87244,-19.37244 c -1.24387,-1.58606 -1.2085,-1.62143 0.37756,-0.37756 0.9625,0.75485 1.75,1.54235 1.75,1.75 0,0.82304 -0.82119,0.29331 -2.12756,-1.37244 z m -2.71455,-7.25 c 0,-1.375 0.22698,-1.9375 0.50439,-1.25 0.27741,0.6875 0.27741,1.8125 0,2.5 -0.27741,0.6875 -0.50439,0.125 -0.50439,-1.25 z m 0.84211,-3.37756 c 0,-0.20765 0.7875,-0.99515 1.75,-1.75 1.58606,-1.24387 1.62143,-1.2085 0.37756,0.37756 -1.30637,1.66575 -2.12756,2.19548 -2.12756,1.37244 z m 8.8125,-5.30555 c 0.72187,-0.28887 1.58437,-0.25335 1.91667,0.0789 0.33229,0.33229 -0.25834,0.56864 -1.3125,0.52522 -1.16495,-0.048 -1.4019,-0.28494 -0.60417,-0.60416 z m -202.999997,-7 c 0.721875,-0.28887 1.584375,-0.25335 1.916667,0.0789 0.332291,0.33229 -0.258334,0.56864 -1.3125,0.52522 -1.164943,-0.048 -1.4019,-0.28494 -0.604167,-0.60416 z m 51.495959,-8.43268 c 0.337535,-1.86132 0.912191,-4.50921 1.277012,-5.88421 0.581368,-2.19116 0.336622,-2.07114 -1.981145,0.97148 -4.724895,6.20254 -7.063722,5.99722 -4.629077,-0.40638 1.189235,-3.12792 0.776754,-3.18095 -3.003443,-0.38613 -1.620964,1.19843 -3.253421,1.87275 -3.62768,1.49849 -0.926866,-0.92687 1.709338,-5.67746 3.15054,-5.67746 0.636188,0 2.247647,-1.17826 3.58102,-2.61836 l 2.424314,-2.61836 -6.067089,3.04042 c -8.345314,4.18212 -10.589984,2.70209 -3.323568,-2.1914 6.009052,-4.04673 6.032195,-4.17357 0.390657,-2.14114 -5.151372,1.85585 -6.5,1.86781 -6.5,0.0576 0,-0.96508 2.494194,-2.19924 7.25,-3.58741 9.22131,-2.69159 10.057914,-3.0521 5.75,-2.47776 -12.612018,1.68146 -14,1.7493 -14,0.68427 0,-0.61038 1.0125,-1.32886 2.25,-1.59664 1.2375,-0.26778 4.275,-0.90316 6.75,-1.41196 4.434385,-0.91161 4.395147,-0.92666 -2.690983,-1.03219 -3.955041,-0.0589 -7.438603,-0.50775 -7.74125,-0.99744 -0.815082,-1.31883 5.045999,-2.0726 12.432233,-1.59887 l 6.5,0.4169 -7.998748,-2.77845 c -5.244337,-1.82168 -8.110517,-3.35882 -8.323324,-4.46384 -0.431604,-2.24114 1.557474,-2.13232 7.278063,0.39817 2.590625,1.14595 4.891009,1.90277 5.111965,1.68182 0.220956,-0.22096 -1.674673,-1.86533 -4.212508,-3.65416 -3.314271,-2.33612 -4.308878,-3.55779 -3.530348,-4.33632 0.778531,-0.77853 2.715312,0.14783 6.874581,3.28811 l 5.790683,4.37201 -3.950979,-4.96751 c -5.89111,-7.40679 -5.92821,-7.46749 -4.564052,-7.46749 0.671122,0 3.447929,2.3625 6.170683,5.25 l 4.950462,5.25 -3.545668,-6 c -3.806599,-6.44155 -4.339096,-8.5 -2.198848,-8.5 0.743578,0 2.816412,3.17717 4.606296,7.06037 1.789885,3.8832 3.414999,6.89971 3.611367,6.70334 0.196367,-0.19637 -0.301467,-2.54505 -1.106297,-5.2193 -1.816153,-6.03462 -1.90375,-9.85474 -0.213328,-9.30335 0.6875,0.22426 1.769108,2.84926 2.403574,5.83334 l 1.153574,5.4256 0.09643,-5.62756 c 0.05941,-3.46728 0.627407,-6.06823 1.479643,-6.77552 2.103772,-1.74597 2.782002,1.13827 2.197171,9.34371 -0.276731,3.88265 -0.254489,6.23012 0.04942,5.21659 0.362932,-1.21035 1.195729,-1.6746 2.426593,-1.35272 1.216943,0.31824 2.075392,-0.1444 2.448342,-1.31946 0.809695,-2.55112 6.197012,-9.15298 7.171492,-8.78827 1.33032,0.4979 0.31676,3.03505 -3.117279,7.80323 -5.438753,7.55172 -5.160491,7.7866 1.184719,1 4.51568,-4.8298 6.37328,-6.21414 7.2293,-5.38749 0.86176,0.83219 0.25437,2.06434 -2.41047,4.88988 -1.959379,2.07755 -3.562509,3.87061 -3.562509,3.98458 0,0.11396 2.26183,-0.91216 5.02628,-2.28027 8.078487,-3.998 8.172487,-1.22051 0.12965,3.83101 -5.30165,3.32985 -5.15741,3.57974 0.84407,1.46229 5.349857,-1.88754 8.999997,-1.93074 8.999997,-0.10652 0,0.87658 -2.68934,2.14621 -7.249997,3.4227 l -7.25,2.02922 6.5,0.0926 c 6.685977,0.0953 10.922857,1.41782 7.971967,2.48847 -0.80958,0.29374 -5.07197,0.65544 -9.471967,0.80379 l -8,0.26973 7,1.29339 c 8.971927,1.65774 10.499997,2.13421 10.499997,3.274 0,1.38225 -5.749107,1.11042 -11.999997,-0.56739 -3.025,-0.81194 -5.725,-1.47565 -6,-1.47491 -0.275,7.4e-4 2.7625,1.81067 6.75,4.02207 4.10006,2.27382 7.249997,4.68696 7.249997,5.55417 0,1.75333 -2.840567,1.20832 -6.999997,-1.34308 -2.45249,-1.50437 -2.44774,-1.47759 0.25,1.40884 2.95196,3.15843 3.54566,5.33291 1.45606,5.33291 -1.75197,0 -8.441732,-7.17456 -9.647926,-10.3471 -0.534717,-1.40641 -2.341545,-3.26522 -4.015173,-4.13068 -2.907029,-1.50328 -3.042961,-1.48308 -3.042961,0.45211 0,1.11412 0.624419,2.02568 1.387598,2.02568 0.795904,0 2.717067,3.30472 4.505376,7.75 3.153606,7.83906 3.829576,11.25 2.229471,11.25 -1.500987,0 -2.833993,-2.34637 -3.530787,-6.21492 -0.368017,-2.04321 -1.130394,-4 -1.69417,-4.34844 -0.955134,-0.5903 -0.744913,2.33978 0.663797,9.25207 0.483805,2.37395 -1.011707,4.00954 -2.082276,2.27733 -0.362554,-0.58663 -0.992032,-3.18147 -1.398841,-5.76632 l -0.739652,-4.69972 -0.785481,5.75 c -0.968735,7.09148 -3.524279,8.15351 -3.609419,1.5 l -0.05438,-4.25 -1.695617,4.4174 c -2.145786,5.59018 -4.786531,6.92634 -3.887157,1.96681 z m 14.346464,-30.42734 c 0.930276,-2.42426 -0.367785,-2.86191 -1.609086,-0.54252 -0.773977,1.44619 -0.789195,2.08565 -0.04964,2.08565 0.586613,0 1.333038,-0.69441 1.658722,-1.54313 z m 95.984554,30.84928 c -0.35171,-0.35172 -0.67127,-2.70198 -0.71012,-5.22282 l -0.0706,-4.58333 -1.83978,4.13562 c -2.16189,4.85962 -4.01898,6.41919 -4.01898,3.37509 0,-2.12891 1.86142,-6.3717 5.83115,-13.29113 3.01961,-5.26333 2.71257,-5.9935 -0.50535,-1.20171 -4.66365,6.94463 -9.51979,12.48213 -10.94626,12.48213 -1.96647,0 -1.7442,-0.74302 1.45265,-4.8561 4.7392,-6.09745 4.7881,-6.81688 0.19673,-2.8939 -2.4139,2.0625 -4.98292,3.75 -5.70892,3.75 -2.64829,0 -1.21268,-2.70871 3.18,-6 2.475,-1.85444 4.5,-3.51911 4.5,-3.69927 0,-0.18017 -1.6875,0.39264 -3.75,1.2729 -9.44506,4.03106 -9.25,3.99781 -9.25,1.57687 0,-1.3274 1.68041,-2.51695 5.95274,-4.21392 3.27401,-1.30043 5.78801,-2.52917 5.58665,-2.73052 -0.20135,-0.20135 -3.18414,0.35585 -6.62843,1.23824 -3.76927,0.96564 -6.62518,1.24148 -7.17378,0.69288 -1.29541,-1.29541 0.3461,-2.08542 8.5914,-4.13482 l 7.17142,-1.78249 -8.75,-0.10993 c -5.09338,-0.064 -8.75,-0.52784 -8.75,-1.10994 0,-0.59692 3.85301,-1 9.55902,-1 5.25746,0 9.32122,-0.38476 9.03058,-0.85503 -0.29065,-0.47027 -4.3672,-1.69668 -9.05902,-2.72535 -5.26755,-1.15491 -8.53058,-2.35789 -8.53058,-3.14497 0,-1.63652 0.93705,-1.60485 8.2001,0.2772 3.29384,0.85352 6.4337,1.40355 6.97748,1.22229 0.54379,-0.18126 -1.28757,-1.80454 -4.06968,-3.60729 -2.78211,-1.80274 -5.33959,-3.73271 -5.68328,-4.28881 -1.43719,-2.32543 0.81024,-1.89179 6.26605,1.20902 5.96829,3.39207 5.97425,3.04095 0.0593,-3.49435 -2.63466,-2.91099 -3.58593,-5.57755 -2,-5.60631 0.4125,-0.007 3.08478,2.58002 5.93841,5.75 l 5.1884,5.7636 -2.9384,-5.89092 c -5.67421,-11.37565 -2.80889,-13.14232 3.30478,-2.03763 3.7507,6.81266 3.98041,6.45797 1.66534,-2.57145 -1.2708,-4.95645 -1.12464,-7 0.50065,-7 0.96122,0 1.82903,2.30471 2.72992,7.25 l 1.32073,7.25 0.78967,-6.96959 c 0.82252,-7.25954 1.75991,-9.26066 3.75918,-8.02504 0.78323,0.48405 0.98265,2.29619 0.59017,5.36286 l -0.59277,4.63177 1.74696,-4.4174 c 1.85557,-4.69196 4.24699,-6.56282 4.24699,-3.32248 0,1.05973 -0.88707,4.58473 -1.97128,7.83333 -1.72477,5.16796 -1.75603,5.61316 -0.25,3.56032 6.9478,-9.4704 12.79442,-12.67682 6.29075,-3.45 -2.89803,4.11147 -3.01008,4.48879 -0.93181,3.13769 5.71478,-3.71522 6.81732,-4.21912 7.56686,-3.45832 0.43751,0.44409 -1.45452,2.81097 -4.20452,5.25974 l -5,4.4523 6.28098,-3.21661 c 4.44891,-2.27837 6.5921,-2.90549 7.34762,-2.14997 0.75551,0.75551 -0.0557,1.84412 -2.78098,3.73213 l -3.84762,2.66549 4.75,-0.67665 c 3.89547,-0.55493 4.75,-0.40084 4.75,0.85652 0,1.37938 -4.99152,3.55561 -11.5,5.01381 -1.1,0.24645 0.7,0.50719 4,0.57941 6.06329,0.1327 9.59797,1.33605 8.15704,2.77698 -0.43177,0.43177 -4.01874,0.68275 -7.97104,0.55772 l -7.186,-0.22731 6.5,2.08738 c 3.575,1.14806 6.92,2.48905 7.43333,2.97998 1.92189,1.83802 -0.39713,1.99233 -5.9,0.39261 -3.1249,-0.90844 -5.94827,-1.38507 -6.27415,-1.05918 -0.32588,0.32588 -0.002,0.59251 0.7193,0.59251 2.0606,0 10.01774,5.3605 10.01973,6.75 0.003,1.87424 -1.64712,1.53196 -6.82014,-1.41496 l -4.67807,-2.66496 3.75,3.95712 c 3.62084,3.82083 4.75067,6.3728 2.82143,6.3728 -2.05595,0 -9.28815,-9.09725 -8.85753,-11.14171 0.19641,-0.93246 -0.84548,-1.39093 -3.32333,-1.4624 -1.98519,-0.0573 -4.08689,-0.39919 -4.67044,-0.75984 -0.73429,-0.45382 -0.8863,2.27266 -0.49365,8.8541 0.4066,6.81518 0.24238,9.50985 -0.57956,9.50985 -0.6308,0 -1.15381,-1.0125 -1.16223,-2.25 -0.0344,-5.05795 -1.76628,-4.97349 -2.46685,0.12031 -0.68953,5.01349 -1.59352,6.72068 -2.87836,5.43584 z m 16.36052,-23.30615 c -1.95837,-1.2656 -3.28218,-1.2656 -2.5,0 0.33992,0.55 1.37898,0.99311 2.30902,0.98469 1.45727,-0.0132 1.48367,-0.14929 0.19098,-0.98469 z m 48.87244,22.25 c -1.24387,-1.58606 -1.2085,-1.62143 0.37756,-0.37756 0.9625,0.75485 1.75,1.54235 1.75,1.75 0,0.82304 -0.82119,0.29331 -2.12756,-1.37244 z m -54.77294,-2.5 c -1.53108,-4.04813 -2.37197,-12.75 -1.23208,-12.75 1.17606,0 4.13258,9.07257 4.13258,12.6815 0,2.96084 -1.79056,3.00313 -2.9005,0.0685 z m -100.110457,-2 c -3.341245,-5.48004 -2.204901,-7.79007 1.72171,-3.5 1.13266,1.2375 2.36643,3.2625 2.7417,4.5 1.07538,3.54612 -2.12936,2.82812 -4.46341,-1 z m 107.760957,0.13803 c -0.9625,-0.54308 -1.75,-1.39525 -1.75,-1.89371 0,-0.49847 -1.36974,-3.22939 -3.04387,-6.06872 -3.54604,-6.0141 -3.44272,-9.13785 0.12509,-3.78194 1.33033,1.99705 3.72552,5.27746 5.32265,7.2898 2.99638,3.77535 2.62511,6.30469 -0.65387,4.45457 z M 6.090018,297.80415 c -1.243871,-1.58606 -1.208501,-1.62143 0.377555,-0.37756 0.9625,0.75485 1.75,1.54235 1.75,1.75 0,0.82304 -0.821186,0.29331 -2.127555,-1.37244 z m 74.127555,-22.38398 c 0,-1.94281 2.300813,-9.3011 3.332701,-10.6584 0.540395,-0.71081 1.355358,-0.91956 1.81103,-0.46389 1.232115,1.23212 -2.170653,12.25627 -3.783078,12.25627 -0.748359,0 -1.360653,-0.51029 -1.360653,-1.13398 z M 247.9509,262.43006 c 0.67834,-0.68342 1.48524,-0.99067 1.79313,-0.68278 0.30789,0.30789 -0.24711,0.86705 -1.23333,1.24258 -1.4252,0.54268 -1.54006,0.42782 -0.5598,-0.5598 z m -5.57544,-18.87591 c 0,-1.375 0.22698,-1.9375 0.50439,-1.25 0.27741,0.6875 0.27741,1.8125 0,2.5 -0.27741,0.6875 -0.50439,0.125 -0.50439,-1.25 z m -224.962938,-4.5 c 0.02038,-1.65 0.244498,-2.20394 0.498042,-1.23097 0.253543,0.97297 0.236869,2.32297 -0.03705,3 -0.273927,0.67703 -0.481372,-0.11903 -0.460992,-1.76903 z M 6.967573,229.89187 c 0.6875,-0.27741 1.8125,-0.27741 2.5,0 0.6875,0.27741 0.125,0.50439 -1.25,0.50439 -1.375,0 -1.9375,-0.22698 -1.25,-0.50439 z m 234.999997,-4 c 0.6875,-0.27741 1.8125,-0.27741 2.5,0 0.6875,0.27741 0.125,0.50439 -1.25,0.50439 -1.375,0 -1.9375,-0.22698 -1.25,-0.50439 z m -3.87756,-2.08772 c -1.24387,-1.58606 -1.2085,-1.62143 0.37756,-0.37756 0.9625,0.75485 1.75,1.54235 1.75,1.75 0,0.82304 -0.82119,0.29331 -2.12756,-1.37244 z m -114.91248,-7.41667 -0.04,-3.33333 -1.68505,3 c -1.6171,2.87903 -1.69914,2.90778 -2.03436,0.71297 -0.19213,-1.25786 1.01064,-5.08286 2.67281,-8.5 2.89662,-5.95495 2.91738,-6.08838 0.50003,-3.21297 -1.38715,1.65 -3.67342,4.6875 -5.08061,6.75 -1.40718,2.0625 -3.17371,3.75 -3.92563,3.75 -1.7757,0 -1.72463,-0.52472 0.36089,-3.70763 l 1.728,-2.63726 -2.68402,1.75864 c -4.61232,3.02211 -5.33274,0.74484 -1.12694,-3.56229 l 3.8263,-3.91848 -4.98567,2.52932 c -5.80037,2.94262 -6.48571,3.0543 -6.48571,1.05687 0,-0.81446 2.1375,-2.61279 4.75,-3.99629 l 4.75,-2.51546 -6.25,0.62546 c -4.12343,0.41264 -6.25,0.26538 -6.25,-0.43282 0,-0.9241 4.47402,-2.13603 13,-3.52146 1.375,-0.22343 -1.25,-0.46752 -5.83333,-0.54242 -6.1804,-0.101 -8.22398,-0.45912 -7.91006,-1.38618 0.26544,-0.78389 2.34805,-1.25 5.5851,-1.25 6.32405,0 6.72115,-1.03855 0.74006,-1.93547 -4.3132,-0.6468 -7.556327,-2.84419 -5.7999,-3.92972 0.77299,-0.47773 3.50374,0.0894 13.21813,2.74536 1.63688,0.44752 1.20532,-0.0262 -1.25,-1.37223 -2.0625,-1.13064 -3.75,-2.39921 -3.75,-2.81903 0,-0.41981 -0.96709,-0.83615 -2.14908,-0.92519 -2.50515,-0.1887 -4.53986,-1.90811 -3.49478,-2.9532 0.63106,-0.63105 3.06316,0.30523 9.89386,3.80882 3.71042,1.90314 1.45759,-0.75848 -2.86124,-3.38044 -4.20459,-2.55261 -5.2418,-4.62122 -2.7359,-5.45652 0.56532,-0.18844 3.364,1.92093 6.21929,4.6875 2.85529,2.76657 5.42374,5.03012 5.70768,5.03012 0.76482,0 -5.15398,-8.40169 -6.99544,-9.92996 -2.00504,-1.66404 -2.05476,-4.07004 -0.0841,-4.07004 0.82516,0 2.73766,2.29301 4.25,5.09557 1.51234,2.80257 3.53966,6.06507 4.50516,7.25 l 1.75546,2.15443 -0.91841,-2.5 c -0.50513,-1.375 -1.63258,-4.17305 -2.50545,-6.21788 -0.87288,-2.04484 -1.58705,-4.89484 -1.58705,-6.33333 0,-4.46146 2.26552,-2.19127 4.10484,4.11329 l 1.73236,5.93792 0.0814,-6.83333 c 0.0595,-4.99483 0.41771,-6.72139 1.3314,-6.41724 0.79672,0.26521 1.31068,2.68293 1.41733,6.66732 0.21605,8.07161 1.33267,9.27903 1.33267,1.44105 0,-6.68225 2.20094,-11.55196 3.59474,-7.9536 0.40567,1.04731 0.21281,3.86627 -0.42858,6.26435 -1.85192,6.92415 -1.26358,7.35518 1.21326,0.88884 1.25192,-3.26843 2.80371,-6.11843 3.4484,-6.33333 1.80111,-0.60037 1.39705,2.28293 -0.9513,6.78833 -2.96701,5.69234 -1.7297,6.0026 2.18717,0.54845 3.23377,-4.50294 5.93631,-5.92327 5.93631,-3.11986 0,0.79254 -0.42905,1.70615 -0.95344,2.03024 -0.52439,0.3241 -1.97099,2.03815 -3.21467,3.80902 l -2.26123,3.21976 3.74946,-3.25 c 3.62675,-3.14363 6.67988,-4.21317 6.67988,-2.34003 0,0.50048 -2.3625,2.99965 -5.25,5.55372 l -5.25,4.64376 6.22148,-3.05372 c 3.42182,-1.67955 6.90932,-3.05373 7.75,-3.05373 3.34546,0 1.18075,2.00336 -5.48423,5.07545 -3.85701,1.77781 -6.85621,3.38892 -6.66488,3.58026 0.19133,0.19133 2.55957,-0.32307 5.26275,-1.1431 5.52332,-1.67554 9.81475,-1.96862 8.97698,-0.61309 -0.30576,0.49474 -2.91982,1.45266 -5.80902,2.12871 -8.51497,1.99246 -8.46521,2.68225 0.15748,2.18309 5.61697,-0.32516 8.08944,-0.12338 8.08944,0.66019 0,0.73509 -2.70172,1.15208 -7.75,1.19617 -8.15316,0.0712 -7.94633,0.68684 1,2.97654 2.76373,0.70734 4.75,1.7886 4.75,2.58574 0,1.74093 -0.6181,1.71951 -6.30603,-0.21857 -6.36656,-2.1693 -8.22354,-1.25797 -2.10356,1.03234 5.3255,1.99298 7.40959,3.30896 7.40959,4.67871 0,1.59411 -2.09088,0.9201 -8.13531,-2.62244 -6.65587,-3.9009 -9.69405,-4.67194 -5.24955,-1.33226 4.32326,3.24858 9.38486,8.11794 9.38486,9.02843 0,2.14851 -3.34255,0.2872 -8.1636,-4.54595 -2.93502,-2.94237 -6.3489,-5.8832 -7.5864,-6.53518 -2.61305,-1.37668 -2.64831,-1.12084 -1.39675,10.13496 0.56814,5.10946 0.44903,6.75 -0.49007,6.75 -0.70802,0 -1.56295,-2.03924 -1.99141,-4.75 l -0.75077,-4.75 -1.06661,5.4187 c -1.2272,6.23454 -3.5321,8.10353 -3.59443,2.91463 z m 10.98426,-3.46347 c -2.1221,-4.95065 -2.26124,-9.44777 -0.31209,-10.08678 1.11715,-0.36626 10.36787,11.06881 10.36787,12.816 0,0.49551 -0.59871,0.90092 -1.33046,0.90092 -0.73176,0 -3.04107,-2.925 -5.13181,-6.5 -2.09073,-3.575 -3.91117,-6.5 -4.04542,-6.5 -0.13424,0 0.81113,2.90706 2.10082,6.46013 2.77536,7.64603 1.41232,10.05131 -1.64891,2.90973 z m 105.55578,-14.36986 c 0.99549,-1.1 2.03498,-2 2.30998,-2 0.275,0 -0.31449,0.9 -1.30998,2 -0.99549,1.1 -2.03498,2 -2.30998,2 -0.275,0 0.31449,-0.9 1.30998,-2 z m 2.65789,-6 c 0,-1.375 0.22698,-1.9375 0.50439,-1.25 0.27741,0.6875 0.27741,1.8125 0,2.5 -0.27741,0.6875 -0.50439,0.125 -0.50439,-1.25 z M 17.29652,187.97082 c 0.04798,-1.16495 0.284941,-1.4019 0.604167,-0.60417 0.288871,0.72187 0.253344,1.58437 -0.07895,1.91667 -0.332292,0.33229 -0.568641,-0.25834 -0.52522,-1.3125 z m 222.32604,-1.66667 -1.90499,-2.25 2.25,1.90499 c 2.11444,1.79022 2.70524,2.59501 1.90499,2.59501 -0.18976,0 -1.20226,-1.0125 -2.25,-2.25 z m -11.67166,-1.87409 c 0.67834,-0.68342 1.48524,-0.99067 1.79313,-0.68278 0.30789,0.30789 -0.24711,0.86705 -1.23333,1.24258 -1.4252,0.54268 -1.54006,0.42782 -0.5598,-0.5598 z m -205.999994,-4 c 0.678334,-0.68342 1.485241,-0.99067 1.793128,-0.68278 0.307888,0.30789 -0.247112,0.86705 -1.233333,1.24258 -1.425198,0.54268 -1.540062,0.42782 -0.559795,-0.5598 z m 191.773744,0.13554 c -0.35034,-0.56686 0.0511,-0.7345 0.94098,-0.39301 1.73242,0.66479 2.04939,1.38156 0.61096,1.38156 -0.51754,0 -1.21592,-0.44485 -1.55194,-0.98855 z m -0.77375,-17.13554 c 0.67834,-0.68342 1.48524,-0.99067 1.79313,-0.68278 0.30789,0.30789 -0.24711,0.86705 -1.23333,1.24258 -1.4252,0.54268 -1.54006,0.42782 -0.5598,-0.5598 z M 37.217573,160.17659 c 0,-0.20765 0.7875,-0.99515 1.75,-1.75 1.586056,-1.24387 1.621426,-1.2085 0.377555,0.37756 -1.306369,1.66575 -2.127555,2.19548 -2.127555,1.37244 z m 167.157887,-2.62244 c 0,-1.375 0.22698,-1.9375 0.50439,-1.25 0.27741,0.6875 0.27741,1.8125 0,2.5 -0.27741,0.6875 -0.50439,0.125 -0.50439,-1.25 z M 77.29652,150.97082 c 0.04798,-1.16495 0.284941,-1.4019 0.604167,-0.60417 0.288871,0.72187 0.253344,1.58437 -0.07895,1.91667 -0.332292,0.33229 -0.568641,-0.25834 -0.52522,-1.3125 z m 116.73355,-2.09978 c 0.72187,-0.28887 1.58437,-0.25335 1.91667,0.0789 0.33229,0.3323 -0.25834,0.56864 -1.3125,0.52522 -1.16495,-0.048 -1.4019,-0.28494 -0.60417,-0.60416 z m -44,-2 c 0.72187,-0.28887 1.58437,-0.25335 1.91667,0.0789 0.33229,0.3323 -0.25834,0.56864 -1.3125,0.52522 -1.16495,-0.048 -1.4019,-0.28494 -0.60417,-0.60416 z m 13.26645,-0.90022 c 0.048,-1.16495 0.28494,-1.4019 0.60416,-0.60417 0.28887,0.72187 0.25335,1.58437 -0.0789,1.91667 -0.3323,0.33229 -0.56864,-0.25834 -0.52522,-1.3125 z M 62.717573,144.55415 c 0.995486,-1.1 2.034975,-2 2.309975,-2 0.275,0 -0.314489,0.9 -1.309975,2 -0.995486,1.1 -2.034975,2 -2.309975,2 -0.275,0 0.314489,-0.9 1.309975,-2 z m 76.372437,0.25 c -1.24387,-1.58606 -1.2085,-1.62143 0.37756,-0.37756 1.66575,1.30637 2.19548,2.12756 1.37244,2.12756 -0.20765,0 -0.99515,-0.7875 -1.75,-1.75 z m -36.79349,-2.83333 c 0.048,-1.16495 0.28494,-1.4019 0.60416,-0.60417 0.28887,0.72187 0.25335,1.58437 -0.0789,1.91667 -0.3323,0.33229 -0.56864,-0.25834 -0.52522,-1.3125 z m 61.92105,1.20577 c 0,-0.20765 0.7875,-0.99515 1.75,-1.75 1.58606,-1.24387 1.62143,-1.2085 0.37756,0.37756 -1.30637,1.66575 -2.12756,2.19548 -2.12756,1.37244 z m -26.80505,-4.12244 c 0.0204,-1.65 0.2445,-2.20394 0.49804,-1.23097 0.25354,0.97297 0.23687,2.32297 -0.0371,3 -0.27388,0.67703 -0.48132,-0.11903 -0.46094,-1.76903 z m -26.94277,-3 c 0.0111,-2.2 0.21589,-2.98225 0.45508,-1.73834 0.23919,1.24391 0.23011,3.04391 -0.0202,4 -0.25027,0.95609 -0.44598,-0.0617 -0.43488,-2.26166 z m -25.252177,1.12244 c 0,-0.20765 0.7875,-0.99515 1.75,-1.75 1.58606,-1.24387 1.62143,-1.2085 0.377555,0.37756 -1.306369,1.66575 -2.127555,2.19548 -2.127555,1.37244 z m 25.999997,-6 c 0,-0.20765 0.7875,-0.99515 1.75,-1.75 1.58606,-1.24387 1.62143,-1.2085 0.37756,0.37756 -1.30637,1.66575 -2.12756,2.19548 -2.12756,1.37244 z m 13.87244,-1.37244 c -1.24387,-1.58606 -1.2085,-1.62143 0.37756,-0.37756 0.9625,0.75485 1.75,1.54235 1.75,1.75 0,0.82304 -0.82119,0.29331 -2.12756,-1.37244 z"
             id="path1293"
             inkscape:connector-curvature="0" />
          <path
             style="fill:#ff7f2a"
             d="m 185.21757,381.17659 c 0,-0.20765 0.7875,-0.99515 1.75,-1.75 1.58606,-1.24387 1.62143,-1.2085 0.37756,0.37756 -1.30637,1.66575 -2.12756,2.19548 -2.12756,1.37244 z m -76.84211,-3.62244 c 0,-1.375 0.22698,-1.9375 0.50439,-1.25 0.27741,0.6875 0.27741,1.8125 0,2.5 -0.27741,0.6875 -0.50439,0.125 -0.50439,-1.25 z m 23.71455,0.25 c -1.24387,-1.58606 -1.2085,-1.62143 0.37756,-0.37756 0.9625,0.75485 1.75,1.54235 1.75,1.75 0,0.82304 -0.82119,0.29331 -2.12756,-1.37244 z m 29.53255,-0.5 -1.90499,-2.25 2.25,1.90499 c 2.11444,1.79022 2.70524,2.59501 1.90499,2.59501 -0.18976,0 -1.20226,-1.0125 -2.25,-2.25 z m -37.13596,-2.44299 c 0.97297,-0.25354 2.32297,-0.23687 3,0.0371 0.67703,0.27393 -0.11903,0.48137 -1.76903,0.46099 -1.65,-0.0204 -2.20394,-0.2445 -1.23097,-0.49804 z m 63.92592,-2.80701 c 0.0204,-1.65 0.2445,-2.20394 0.49804,-1.23097 0.25354,0.97297 0.23687,2.32297 -0.0371,3 -0.27393,0.67703 -0.48137,-0.11903 -0.46099,-1.76903 z m -16.19495,-4.87756 c 0,-0.20765 0.7875,-0.99515 1.75,-1.75 1.58606,-1.24387 1.62143,-1.2085 0.37756,0.37756 -1.30637,1.66575 -2.12756,2.19548 -2.12756,1.37244 z m 40.87244,-19.37244 c -1.24387,-1.58606 -1.2085,-1.62143 0.37756,-0.37756 0.9625,0.75485 1.75,1.54235 1.75,1.75 0,0.82304 -0.82119,0.29331 -2.12756,-1.37244 z m -2.71455,-7.25 c 0,-1.375 0.22698,-1.9375 0.50439,-1.25 0.27741,0.6875 0.27741,1.8125 0,2.5 -0.27741,0.6875 -0.50439,0.125 -0.50439,-1.25 z m 0.84211,-3.37756 c 0,-0.20765 0.7875,-0.99515 1.75,-1.75 1.58606,-1.24387 1.62143,-1.2085 0.37756,0.37756 -1.30637,1.66575 -2.12756,2.19548 -2.12756,1.37244 z m 8.8125,-5.30555 c 0.72187,-0.28887 1.58437,-0.25335 1.91667,0.0789 0.33229,0.33229 -0.25834,0.56864 -1.3125,0.52522 -1.16495,-0.048 -1.4019,-0.28494 -0.60417,-0.60416 z m -202.999997,-7 c 0.721875,-0.28887 1.584375,-0.25335 1.916667,0.0789 0.332291,0.33229 -0.258334,0.56864 -1.3125,0.52522 -1.164943,-0.048 -1.4019,-0.28494 -0.604167,-0.60416 z m 51.1875,-5.7099 c 0,-0.21616 0.698372,-0.661 1.551938,-0.98855 0.889925,-0.34149 1.291322,-0.17385 0.940983,0.39301 -0.587258,0.95021 -2.492921,1.40545 -2.492921,0.59554 z m 8.078947,-2.19032 c 0.04798,-1.16495 0.284941,-1.4019 0.604167,-0.60417 0.288871,0.72187 0.253344,1.58438 -0.07895,1.91667 -0.332292,0.33229 -0.568641,-0.25834 -0.52522,-1.3125 z m 4.335643,0.44513 c -0.431292,-0.69784 -0.291725,-0.9039 0.345491,-0.51008 0.588004,0.36341 1.297007,0.0954 1.575561,-0.59549 0.362499,-0.89914 0.528904,-0.91769 0.585411,-0.0652 0.114073,1.72088 -1.655607,2.54754 -2.506463,1.17082 z m 98.132887,-1.1118 c -0.90389,-2.8989 -1.2267,-10.66978 -0.4226,-10.17282 0.48132,0.29747 0.87512,2.79085 0.87512,5.54085 0,3.5248 0.34063,4.78948 1.15451,4.28648 0.7153,-0.44208 0.88306,-0.27432 0.44098,0.44098 -0.92214,1.49207 -1.56232,1.46222 -2.04801,-0.0955 z m 65.32496,-0.5 c -1.24387,-1.58606 -1.2085,-1.62143 0.37756,-0.37756 0.9625,0.75485 1.75,1.54235 1.75,1.75 0,0.82304 -0.82119,0.29331 -2.12756,-1.37244 z m -52.64044,-3.25 c 0,-1.925 0.2058,-2.7125 0.45733,-1.75 0.25152,0.9625 0.25152,2.5375 0,3.5 -0.25153,0.9625 -0.45733,0.175 -0.45733,-1.75 z m -7.232,-0.44098 c 0,-0.79254 0.45,-1.7191 1,-2.05902 0.55,-0.33992 1,0.30852 1,1.44098 0,1.13246 -0.45,2.05902 -1,2.05902 -0.55,0 -1,-0.64844 -1,-1.44098 z M 70.007544,309.77389 c 0.275582,-1.49586 1.165946,-3.61974 1.978587,-4.71974 l 1.477528,-2 -0.751639,2 c -0.413402,1.1 -0.972502,3.01915 -1.242445,4.26478 -0.709059,3.27188 -2.058347,3.69176 -1.462031,0.45496 z m 7.210029,-0.49406 c 0,-1.9842 0.478701,-3.9035 1.06378,-4.2651 0.724339,-0.44766 0.841553,0.57054 0.36734,3.19099 -0.924126,5.10659 -1.43112,5.48711 -1.43112,1.07411 z m 87.999997,2.33334 c 0,-0.51754 0.44485,-1.21592 0.98855,-1.55194 0.56686,-0.35034 0.7345,0.0511 0.39301,0.94098 -0.66479,1.73242 -1.38156,2.04939 -1.38156,0.61096 z m 33.56429,-0.35215 c 0.37553,-0.98622 0.93469,-1.54122 1.24258,-1.23333 0.30789,0.30789 6.4e-4,1.11479 -0.68278,1.79313 -0.98762,0.98026 -1.10248,0.8654 -0.5598,-0.5598 z M 63.532592,309.57218 c 0.324066,-2.12348 4.708963,-7.32738 5.504144,-6.5322 0.45541,0.45541 -4.702026,8.51417 -5.448889,8.51417 -0.196749,0 -0.221614,-0.89188 -0.05525,-1.98197 z m 10.351648,1.3153 c -0.366667,-0.36666 -0.666667,-1.13166 -0.666667,-1.7 0,-0.6266 0.465771,-0.56756 1.183333,0.15 0.650834,0.65084 0.950834,1.41584 0.666667,1.7 -0.284167,0.28417 -0.816667,0.21667 -1.183333,-0.15 z m 16.147103,-2.55227 c -1.47742,-1.52959 -2.343361,-2.78106 -1.92431,-2.78106 0.9489,0 5.60764,4.88649 5.03115,5.27711 -0.23134,0.15675 -1.62941,-0.96647 -3.10684,-2.49605 z m -32.581697,0.21894 c 0.686961,-1.1 1.660519,-2 2.163461,-2 0.502943,0 0.09995,0.9 -0.895534,2 -0.995486,1.1 -1.969044,2 -2.163461,2 -0.194418,0 0.208573,-0.9 0.895534,-2 z m 34.692237,-1.75 -2.42431,-2.75 2.75,2.42431 c 2.57029,2.26589 3.20859,3.07569 2.42431,3.07569 -0.17912,0 -1.41662,-1.2375 -2.75,-2.75 z m 90.682677,0.16821 c -0.95191,-2.48064 -0.7108,-6.41821 0.39301,-6.41821 0.55,0 1,1.8 1,4 0,4.26299 -0.41119,4.9768 -1.39301,2.41821 z m 7.47196,-0.002 c 0.048,-1.16495 0.28494,-1.4019 0.60416,-0.60417 0.28887,0.72187 0.25335,1.58438 -0.0789,1.91667 -0.3323,0.33229 -0.56864,-0.25834 -0.52522,-1.3125 z M 74.358144,306.55415 c 0,-0.825 0.386743,-2.4 0.859429,-3.5 0.541715,-1.26064 0.859429,-1.44548 0.859429,-0.5 0,0.825 -0.386743,2.4 -0.859429,3.5 -0.541715,1.26064 -0.859429,1.44548 -0.859429,0.5 z m 18.312379,-3.05868 c -2.17412,-2.23227 -3.16545,-3.75912 -2.20295,-3.39301 0.9625,0.36612 1.75,1.09408 1.75,1.6177 0,0.52361 0.34315,0.73995 0.76255,0.48074 0.4194,-0.2592 1.8819,0.18301 3.25,0.9827 l 2.48745,1.45398 -2.5,-0.67462 c -2.48775,-0.67131 -2.49067,-0.66416 -0.59501,1.45829 3.30545,3.70091 1.17355,2.31016 -2.95204,-1.92578 z m 102.952037,1.80868 -1.90499,-2.25 2.25,1.90499 c 2.11444,1.79022 2.70524,2.59501 1.90499,2.59501 -0.18976,0 -1.20226,-1.0125 -2.25,-2.25 z m -27.50963,-0.96918 c 1.31745,-1.49555 2.74589,-2.50254 3.17432,-2.23776 0.42842,0.26479 0.99221,-0.2079 1.25285,-1.05042 0.40853,-1.32056 0.45345,-1.31496 0.32568,0.0406 -0.0815,0.86483 -0.44946,1.43615 -0.81765,1.2696 -0.36819,-0.16655 -1.94319,0.82218 -3.5,2.19718 l -2.83056,2.5 2.39536,-2.71918 z m -105.154033,0.12717 c 0.682728,-0.8756 0.981687,-1.85165 0.664354,-2.16898 -0.509526,-0.50952 3.712052,-3.33535 4.344322,-2.90799 0.1375,0.0929 1.15,-0.73102 2.25,-1.83102 2.380621,-2.38062 1.039949,-2.58914 -3.04966,-0.47432 -1.622687,0.83912 -2.95034,1.14812 -2.95034,0.68665 0,-0.46147 1.576931,-1.45778 3.504292,-2.21401 2.511922,-0.98561 3.149093,-1.63155 2.25,-2.28098 -0.850852,-0.61459 -0.65064,-0.70929 0.622456,-0.29442 1.032212,0.33637 2.419712,0.16097 3.083334,-0.38979 0.849934,-0.70538 1.206585,-0.56269 1.206585,0.48275 0,0.81626 -0.6,1.48412 -1.333334,1.48412 -0.733333,0 -1.220833,0.47948 -1.083333,1.06552 0.1375,0.58603 -2.225,3.17353 -5.25,5.75 -3.025,2.57646 -4.941404,3.96808 -4.258676,3.09247 z m 17.258676,0.092 c 0,-0.55 0.45,-1 1,-1 0.55,0 1,0.45 1,1 0,0.55 -0.45,1 -1,1 -0.55,0 -1,-0.45 -1,-1 z m 105.078947,-0.58333 c 0.048,-1.16495 0.28494,-1.4019 0.60416,-0.60417 0.28887,0.72187 0.25335,1.58438 -0.0789,1.91667 -0.3323,0.33229 -0.56864,-0.25834 -0.52522,-1.3125 z M 59.950906,303.43006 c 0.678334,-0.68342 1.485241,-0.99067 1.793128,-0.68278 0.307888,0.30789 -0.247112,0.86705 -1.233333,1.24258 -1.425198,0.54268 -1.540062,0.42782 -0.559795,-0.5598 z m 105.766664,-0.87591 c 0.99549,-1.1 2.03498,-2 2.30998,-2 0.275,0 -0.31449,0.9 -1.30998,2 -0.99549,1.1 -2.03498,2 -2.30998,2 -0.275,0 0.31449,-0.9 1.30998,-2 z m 11.13838,0.7761 c 0.2749,-0.4448 0.89918,-0.56191 1.38728,-0.26024 0.48811,0.30167 0.71392,-0.82283 0.5018,-2.49889 -0.21212,-1.67605 -0.006,-2.81273 0.45803,-2.52594 0.46403,0.28679 1.0716,-0.0439 1.35015,-0.7348 0.71491,-1.77326 0.75806,2.29256 0.0523,4.92421 -0.35317,1.31681 -1.31051,2.12576 -2.41707,2.04241 -1.00776,-0.0759 -1.60736,-0.50195 -1.33246,-0.94675 z m 11.56529,-0.82158 c -0.67134,-1.07499 -0.81495,-1.95452 -0.31913,-1.95452 0.89777,0 2.44391,3.00488 1.85114,3.59765 -0.17126,0.17127 -0.86067,-0.56814 -1.53201,-1.64313 z m 10.31767,-0.93094 c -0.98375,-1.08703 -2.1474,-1.75469 -2.58589,-1.48369 -1.30888,0.80894 -2.25051,-1.62483 -1.0811,-2.79424 0.77345,-0.77345 1.26109,-0.60839 1.71765,0.58139 0.35066,0.91381 1.15292,1.36691 1.78278,1.00689 0.62987,-0.36002 0.80674,-0.28145 0.39304,0.17459 -0.4137,0.45605 -0.006,1.6532 0.90499,2.66033 0.91144,1.00713 1.43217,1.83115 1.15717,1.83115 -0.275,0 -1.30489,-0.88939 -2.28864,-1.97642 z m 7.05036,1.22642 c 0.49777,-0.4125 1.24088,-1.2 1.65135,-1.75 0.42591,-0.57068 0.7529,-0.24868 0.76164,0.75 0.009,0.97279 -0.72489,1.75 -1.65136,1.75 -0.91666,0 -1.2594,-0.3375 -0.76163,-0.75 z m -14.23195,-0.99071 c 0.35682,-0.57734 -0.0881,-1.33247 -0.98862,-1.67804 -0.90056,-0.34558 -1.35188,-0.91383 -1.00293,-1.26278 0.34894,-0.34895 0.0759,-1.35086 -0.60688,-2.22646 -1.10674,-1.41941 -1.04567,-1.4383 0.56328,-0.17425 2.71371,2.13198 3.92055,4.82506 2.5436,5.67606 -0.67672,0.41823 -0.88784,0.27933 -0.50845,-0.33453 z m -140.527247,-0.9424 c 0.721875,-0.28887 1.584375,-0.25335 1.916667,0.0789 0.332291,0.33229 -0.258334,0.56864 -1.3125,0.52522 -1.164943,-0.048 -1.4019,-0.28494 -0.604167,-0.60416 z m 7.520833,-0.81893 c 0,-0.719 0.6,-1.07704 1.333334,-0.79563 0.733333,0.28141 1.333333,0.0135 1.333333,-0.59534 0,-0.60885 0.45,-1.10699 1,-1.10699 1.837826,0 1.027538,1.66642 -1.333333,2.74211 -1.796691,0.81862 -2.333334,0.76247 -2.333334,-0.24415 z m 110.065364,-0.66187 c -0.43641,-0.70612 -0.26513,-0.87157 0.44679,-0.43158 0.63498,0.39244 1.15451,0.2528 1.15451,-0.31031 0,-1.09397 3.89976,-3.52778 4.57335,-2.85419 0.22113,0.22113 -0.91847,1.37836 -2.53244,2.57162 -2.04787,1.51406 -3.14832,1.82359 -3.64221,1.02446 z M 6.090018,297.80415 c -1.243871,-1.58606 -1.208501,-1.62143 0.377555,-0.37756 0.9625,0.75485 1.75,1.54235 1.75,1.75 0,0.82304 -0.821186,0.29331 -2.127555,-1.37244 z m 80.127555,0.69098 c 0,-0.58246 0.45,-0.7809 1,-0.44098 0.55,0.33992 1,0.81648 1,1.05902 0,0.24254 -0.45,0.44098 -1,0.44098 -0.55,0 -1,-0.47656 -1,-1.05902 z m -6.1875,-0.62409 c 0.721875,-0.28887 1.584375,-0.25335 1.916667,0.0789 0.332291,0.33229 -0.258334,0.56864 -1.3125,0.52522 -1.164943,-0.048 -1.4019,-0.28494 -0.604167,-0.60416 z m 120.320157,-0.70031 c -2.10902,-1.16932 -2.17524,-1.38626 -0.60687,-1.9881 0.96825,-0.37156 1.99606,-0.43996 2.284,-0.15202 0.28795,0.28795 -0.0875,0.52354 -0.83425,0.52354 -0.87886,0 -0.67309,0.51789 0.58333,1.4682 2.40641,1.82012 1.71813,1.89173 -1.42621,0.14838 z M 56.717573,296.55415 c 1.1,-0.47269 2.675,-0.85943 3.5,-0.85943 0.945479,0 0.760639,0.31771 -0.5,0.85943 -1.1,0.47269 -2.675,0.85943 -3.5,0.85943 -0.945479,0 -0.760639,-0.31771 0.5,-0.85943 z m 151.363147,0.10574 c 0.9575,-0.60663 1.02445,-1.02614 0.225,-1.40969 -0.77596,-0.37228 -0.7523,-0.47047 0.0743,-0.30855 2.00175,0.39209 2.14788,2.6137 0.17083,2.59719 -1.41656,-0.0118 -1.52344,-0.21165 -0.47018,-0.87895 z m -129.7842,-1.68907 c 0.04798,-1.16495 0.284941,-1.4019 0.604167,-0.60417 0.288871,0.72187 0.253344,1.58437 -0.07895,1.91667 -0.332292,0.33229 -0.568641,-0.25834 -0.52522,-1.3125 z m 10.654383,0.45924 c 0.67834,-0.68342 1.48524,-0.99067 1.79313,-0.68278 0.30789,0.30789 -0.24711,0.86705 -1.23333,1.24258 -1.4252,0.54268 -1.540064,0.42782 -0.5598,-0.5598 z m 75.266667,0.12409 c -2.05955,-0.65958 -2.14764,-0.8155 -0.5,-0.88501 1.1,-0.0464 2.675,0.35185 3.5,0.88501 1.75214,1.13232 0.53568,1.13232 -3,0 z M 53.030073,294.87104 c 0.721875,-0.28887 1.584375,-0.25335 1.916667,0.0789 0.332291,0.33229 -0.258334,0.56864 -1.3125,0.52522 -1.164943,-0.048 -1.4019,-0.28494 -0.604167,-0.60416 z m 7.6875,-0.31689 c -1.31874,-0.56668 -1.489055,-0.87815 -0.5,-0.9144 0.825,-0.0302 2.175,0.38124 3,0.9144 1.827966,1.18132 0.249085,1.18132 -2.5,0 z m 24.5,0 c -1.281897,-0.82843 -1.245547,-0.9716 0.25,-0.98469 0.9625,-0.008 1.75,0.43469 1.75,0.98469 0,1.21961 -0.112787,1.21961 -2,0 z m 105.749997,-1.08333 c -0.9625,-1.05417 -1.3551,-1.91667 -0.87244,-1.91667 0.48265,0 1.46176,0.70393 2.17579,1.56429 0.84368,1.01656 2.14138,1.35267 3.70624,0.95991 1.54093,-0.38674 2.17653,-0.22985 1.76518,0.43572 -1.01764,1.64658 -4.85892,1.05506 -6.77477,-1.04325 z m -125.249997,0.0833 c -0.339919,-0.55 0.08352,-1 0.940983,-1 0.857459,0 1.559017,0.45 1.559017,1 0,0.55 -0.423442,1 -0.940983,1 -0.517541,0 -1.219098,-0.45 -1.559017,-1 z m 30.3125,0.31689 c 0.72187,-0.28887 1.58437,-0.25335 1.91667,0.0789 0.33229,0.33229 -0.25834,0.56864 -1.3125,0.52522 -1.16495,-0.048 -1.4019,-0.28494 -0.60417,-0.60416 z m 76.187497,-0.31689 c 0.825,-0.53316 1.95,-0.96937 2.5,-0.96937 0.55,0 0.325,0.43621 -0.5,0.96937 -0.825,0.53316 -1.95,0.96937 -2.5,0.96937 -0.55,0 -0.325,-0.43621 0.5,-0.96937 z m -82.187497,-0.68311 c 0.72187,-0.28887 1.58437,-0.25335 1.91667,0.0789 0.33229,0.33229 -0.25834,0.56864 -1.3125,0.52522 -1.16495,-0.048 -1.4019,-0.28494 -0.60417,-0.60416 z m -30.3125,-1.31689 c 1.65,-0.41985 3.9,-0.77176 5,-0.78201 1.567195,-0.0146 1.458994,0.15463 -0.5,0.78201 -1.375,0.44035 -3.625,0.79225 -5,0.78201 -2.245596,-0.0167 -2.194715,-0.0963 0.5,-0.78201 z m 26.3125,0.31689 c 0.721875,-0.28887 1.584375,-0.25335 1.916667,0.0789 0.332293,0.33229 -0.258334,0.56864 -1.3125,0.52522 -1.164943,-0.048 -1.4019,-0.28494 -0.604167,-0.60416 z m 17.187497,-0.7099 c 0,-0.21616 0.69837,-0.661 1.55194,-0.98855 0.88992,-0.34149 1.29132,-0.17385 0.94098,0.39301 -0.58726,0.95021 -2.49292,1.40545 -2.49292,0.59554 z m 90.8125,-0.2901 c 0.72187,-0.28887 1.58437,-0.25335 1.91667,0.0789 0.33229,0.33229 -0.25834,0.56864 -1.3125,0.52522 -1.16495,-0.048 -1.4019,-0.28494 -0.60417,-0.60416 z m 15.39807,-0.71603 c 0.70919,-0.76953 1.44699,-1.24947 1.63957,-1.06653 0.59314,0.56346 -0.91014,2.46567 -1.94858,2.46567 -0.53923,0 -0.40017,-0.62961 0.30901,-1.39914 z M 47.717573,289.55415 c -0.339919,-0.55 -0.141476,-1 0.440983,-1 0.582459,0 1.059017,0.45 1.059017,1 0,0.55 -0.198442,1 -0.440983,1 -0.242541,0 -0.719098,-0.45 -1.059017,-1 z m 19.5,-1 c -1.333333,-0.86167 -1.333333,-0.96327 0,-0.9144 0.825,0.0302 2.4,0.44171 3.5,0.9144 l 2,0.85943 -2,0.055 c -1.1,0.0302 -2.675,-0.38127 -3.5,-0.91443 z m 19,0.0833 c 1.375,-0.40962 6.1,-0.43886 10.5,-0.065 l 7.999997,0.67981 -10.499997,0.065 c -6.065616,0.0375 -9.444194,-0.24957 -8,-0.6798 z m -33.730968,-0.77632 c 0.972967,-0.25354 2.322967,-0.23687 3,0.0371 0.677032,0.27393 -0.119032,0.48137 -1.769032,0.46099 -1.65,-0.0204 -2.203936,-0.2445 -1.230968,-0.49804 z M 171.57869,287.3294 c -0.61772,-0.99948 1.57617,-0.87785 4.13888,0.22947 1.70459,0.73653 1.58201,0.84067 -0.82987,0.705 -1.55642,-0.0876 -3.04548,-0.50806 -3.30901,-0.93447 z m 22.63888,0.37449 c 0.825,-0.43419 4.65,-0.49131 8.5,-0.12693 l 7,0.66251 -8.5,0.12693 c -4.675,0.0698 -7.825,-0.22832 -7,-0.66251 z M 83.345633,285.40867 c -0.512903,-1.36484 -0.512991,-2.4955 -2.09e-4,-2.68993 0.486536,-0.18448 0.676601,-0.67198 0.422368,-1.08333 -0.254233,-0.41136 0.167963,-0.74793 0.938214,-0.74793 0.770251,0 1.372166,0.2625 1.33759,0.58334 -0.238522,2.21326 0.486192,2.24104 2.173977,0.0833 1.07554,-1.375 1.96553,-1.97012 1.97776,-1.32248 0.0122,0.64764 -1.44026,2.33015 -3.22776,3.73891 -3.643663,2.87164 -3.110181,3.33831 1.242909,1.08724 1.591471,-0.82299 3.141021,-1.09599 3.443431,-0.60668 0.30241,0.48932 -0.53025,1.16075 -1.85035,1.49207 -1.3201,0.33133 -3.114096,0.87636 -3.98665,1.21119 -1.071745,0.41127 -1.873534,-0.15512 -2.47128,-1.74573 z m 9.68444,1.46237 c 0.72187,-0.28887 1.58437,-0.25335 1.91667,0.0789 0.33229,0.33229 -0.25834,0.56864 -1.3125,0.52522 -1.16495,-0.048 -1.4019,-0.28494 -0.60417,-0.60416 z m -27.8125,-1.65369 c -1.375,-0.6459 -2.625893,-1.77453 -2.779762,-2.50807 -0.179106,-0.85385 0.810328,-0.55749 2.75,0.82368 1.666369,1.18656 3.029762,2.35174 3.029762,2.58928 0,0.52105 0.09937,0.55102 -3,-0.90489 z m 14.545007,-0.9132 c 1.012795,-3.35223 2.599854,-4.68534 2.057918,-1.72861 -0.249868,1.36323 -0.487744,2.81611 -0.528615,3.22861 -0.04087,0.4125 -0.554634,0.75 -1.141698,0.75 -0.641671,0 -0.796263,-0.89739 -0.387605,-2.25 z m 17.267493,1.56689 c 0.72187,-0.28887 1.58437,-0.25335 1.91667,0.0789 0.33229,0.33229 -0.25834,0.56864 -1.3125,0.52522 -1.16495,-0.048 -1.4019,-0.28494 -0.60417,-0.60416 z m 73.187497,-1.22369 c -3.00095,-0.55177 -3.18581,-0.7318 -1.29648,-1.26259 1.2444,-0.3496 2.98548,-0.026 4,0.74336 0.98807,0.74933 1.57148,1.3175 1.29648,1.26259 -0.275,-0.0549 -2.075,-0.38943 -4,-0.74336 z m -77.457287,-1.0241 c -0.31644,-0.512 -0.19299,-1.1672 0.27431,-1.45601 0.46731,-0.28881 0.84965,0.13009 0.84965,0.9309 0,1.68617 -0.31534,1.83349 -1.12396,0.52511 z M 194.3009,284.1896 c 0.22917,-0.2005 1.54167,-0.90032 2.91667,-1.55516 2.35727,-1.12265 2.38918,-1.10183 0.55887,0.36454 -1.593,1.27626 -4.84786,2.39128 -3.47554,1.19062 z M 67.217573,282.49513 c 0,-0.58246 -0.418906,-0.80012 -0.930902,-0.48369 -0.995038,0.61497 -2.379942,-1.07868 -2.719968,-3.32635 -0.113911,-0.75298 1.110935,-0.10629 2.72188,1.43709 3.211053,3.07639 3.410915,3.43197 1.92899,3.43197 -0.55,0 -1,-0.47656 -1,-1.05902 z m 5.721375,-0.22468 c -0.355117,-0.92542 -1.2468,-1.45191 -1.981518,-1.16997 -0.734719,0.28194 -2.439253,-0.72453 -3.787854,-2.2366 -1.348602,-1.51206 -1.777003,-2.23859 -0.952003,-1.61451 2.14901,1.62566 3.159493,1.66002 4.122884,0.14019 0.654419,-1.0324 0.849965,-0.9496 0.861803,0.3649 0.0084,0.93517 0.748496,2.11062 1.64461,2.61211 0.896113,0.50149 1.428697,1.5136 1.18352,2.24913 -0.329753,0.98926 -0.613825,0.8994 -1.091442,-0.34525 z m 4.778625,-0.7163 c 0.339919,-0.55 0.816476,-1 1.059017,-1 0.242541,0 0.440983,0.45 0.440983,1 0,0.55 -0.476558,1 -1.059017,1 -0.582459,0 -0.780902,-0.45 -0.440983,-1 z m 22.312497,0.31689 c 0.72187,-0.28887 1.58437,-0.25335 1.91667,0.0789 0.33229,0.33229 -0.25834,0.56864 -1.3125,0.52522 -1.164947,-0.048 -1.401897,-0.28494 -0.60417,-0.60416 z m 80.25779,-1.06689 c -0.0387,-1.2375 -0.54685,-2.25 -1.12931,-2.25 -0.58246,0 -0.75121,-0.49804 -0.375,-1.10676 0.48524,-0.78513 0.90887,-0.74295 1.45774,0.14514 0.5585,0.90367 0.90871,0.72474 1.259,-0.64323 0.45246,-1.76698 0.48837,-1.75989 0.53099,0.10485 0.0252,1.1 -0.34102,2.9 -0.81371,4 -0.82005,1.90836 -0.86265,1.8969 -0.92971,-0.25 z m 12.36942,-0.18338 c 1.5798,-1.74566 3.56029,-1.99519 3.56029,-0.44859 0,0.275 -0.45,0.22189 -1,-0.11803 -0.55,-0.33992 -1,-0.18962 -1,0.33399 0,0.52362 -0.76227,1.24454 -1.69393,1.60206 -1.49838,0.57498 -1.48295,0.41689 0.13364,-1.36943 z m 7.56029,0.87436 c 0,-0.58246 0.45,-0.7809 1,-0.44098 0.55,0.33992 1,0.81648 1,1.05902 0,0.24254 -0.45,0.44098 -1,0.44098 -0.55,0 -1,-0.47656 -1,-1.05902 z m 5.8125,-0.62409 c 0.72187,-0.28887 1.58437,-0.25335 1.91667,0.0789 0.33229,0.33229 -0.25834,0.56864 -1.3125,0.52522 -1.16495,-0.048 -1.4019,-0.28494 -0.60417,-0.60416 z M 50.967573,279.89187 c 0.6875,-0.27741 1.8125,-0.27741 2.5,0 0.6875,0.27741 0.125,0.50439 -1.25,0.50439 -1.375,0 -1.9375,-0.22698 -1.25,-0.50439 z m 40.58333,-0.83356 c 0,-0.82272 0.9375,-2.28522 2.08334,-3.25 2.03844,-1.71637 2.04716,-1.71107 0.40459,0.24584 -0.92331,1.1 -1.67331,2.375 -1.66667,2.83333 0.007,0.45834 -0.17542,1.02084 -0.40459,1.25 -0.22917,0.22917 -0.41667,-0.25646 -0.41667,-1.07917 z m 72.539107,-0.25416 c -1.24387,-1.58606 -1.2085,-1.62143 0.37756,-0.37756 0.9625,0.75485 1.75,1.54235 1.75,1.75 0,0.82304 -0.82119,0.29331 -2.12756,-1.37244 z m 6.05105,1.5 c -0.0421,-0.1375 -0.23095,-1.06261 -0.41971,-2.05581 -0.27704,-1.4577 -0.0695,-1.57867 1.07651,-0.62755 1.64555,1.36568 1.86986,2.93336 0.41971,2.93336 -0.55,0 -1.03443,-0.1125 -1.07651,-0.25 z m -110.051042,-2.5 c -1.243871,-1.58606 -1.208501,-1.62143 0.377555,-0.37756 1.665748,1.30637 2.195479,2.12756 1.372445,2.12756 -0.207656,0 -0.995156,-0.7875 -1.75,-1.75 z m 14.902273,0.5 c -0.241593,-0.6875 -0.109594,-2.375 0.293331,-3.75 0.637393,-2.17513 0.745544,-2.0127 0.832271,1.25 0.10121,3.80757 -0.329751,4.76475 -1.125602,2.5 z m 6.225282,0.19098 c 0,-0.58246 0.45,-0.7809 1,-0.44098 0.55,0.33992 1,0.81648 1,1.05902 0,0.24254 -0.45,0.44098 -1,0.44098 -0.55,0 -1,-0.47656 -1,-1.05902 z m 3.644124,-0.17418 c 0.305881,-0.49492 0.812068,-0.64394 1.12486,-0.33115 0.312792,0.31279 1.505231,-0.21977 2.649866,-1.18347 2.05138,-1.72712 2.05606,-1.72238 0.32699,0.33115 -1.68679,2.00333 -5.242472,3.02925 -4.101716,1.18347 z m 86.792963,-2.00117 c -1.6154,-1.7789 -2.00057,-2.45292 -0.85594,-1.49782 1.14463,0.95511 2.45428,1.39807 2.91033,0.98437 0.45604,-0.4137 0.52256,-0.21734 0.14781,0.43636 -0.37474,0.6537 0.11561,1.65251 1.08968,2.21959 0.97407,0.56708 1.29272,1.04474 0.70812,1.06146 -0.5846,0.0167 -2.3846,-1.42506 -4,-3.20396 z m 13.03153,-0.26563 c 0.28015,-2.2 0.54285,-5.125 0.58376,-6.5 0.0714,-2.40004 0.10893,-2.41444 0.93803,-0.36016 0.55722,1.38063 0.35011,3.68681 -0.58376,6.5 l -1.44739,4.36016 z m 2.53138,1.5 c 0,-0.55 0.43588,-1 0.96862,-1 0.53273,0 0.83149,-0.5625 0.66389,-1.25 -0.1676,-0.6875 -0.11504,-0.9097 0.1168,-0.49377 0.23183,0.41593 0.94558,0.45107 1.5861,0.0781 0.64052,-0.37297 0.30735,0.29922 -0.7404,1.49377 -2.12414,2.42176 -2.59501,2.6344 -2.59501,1.1719 z m 4,0.0352 c 0,-0.53065 1.0125,-1.49612 2.25,-2.14551 2.23794,-1.17436 2.23979,-1.16919 0.34501,0.96482 -2.11633,2.38352 -2.59501,2.60131 -2.59501,1.18067 z m 14,0.58726 c 0,-0.20765 0.7875,-0.99515 1.75,-1.75 1.58606,-1.24387 1.62143,-1.2085 0.37756,0.37756 -1.30637,1.66573 -2.12756,2.19546 -2.12756,1.37242 z M 163.6587,275.999 c -1.86402,-1.49339 -1.85176,-1.51185 0.30887,-0.46481 1.2375,0.59969 2.25,1.29951 2.25,1.55516 0,0.76522 -0.51861,0.54424 -2.55887,-1.09035 z M 55.231859,275.13986 c 0.647619,-0.64761 1.323809,-0.64761 1.971428,0 0.647619,0.64762 0.309524,0.98572 -0.985714,0.98572 -1.295238,0 -1.633333,-0.3381 -0.985714,-0.98572 z m 30.985714,1.03673 c 0,-0.20765 0.7875,-0.99515 1.75,-1.75 1.58606,-1.24387 1.62143,-1.2085 0.37756,0.37756 -1.306374,1.66575 -2.12756,2.19548 -2.12756,1.37244 z m 91.731207,-1.7026 c 0.35361,-1.3522 0.8069,-1.8055 1.05655,-1.05655 0.24048,0.72144 -0.0382,1.78716 -0.61931,2.36826 -0.74207,0.74207 -0.87221,0.35164 -0.43724,-1.31171 z m 20.26879,1.7026 c 0,-0.20765 0.7875,-0.99515 1.75,-1.75 1.58606,-1.24387 1.62143,-1.2085 0.37756,0.37756 -1.30637,1.66575 -2.12756,2.19548 -2.12756,1.37244 z M 85.122964,274.05415 c 2.131029,-3.99194 5.830179,-7.73687 6.527619,-6.60839 0.37676,0.60961 0.22259,1.10839 -0.34261,1.10839 -0.5652,0 -0.7743,0.7875 -0.46468,1.75 0.42133,1.30976 0.32254,1.41426 -0.39269,0.41539 -0.74375,-1.03868 -1.55872,-0.59522 -3.675474,2 -1.495907,1.83404 -2.239381,2.43461 -1.652165,1.33461 z m -23.032946,-1.25 c -1.243871,-1.58606 -1.208501,-1.62143 0.377555,-0.37756 0.9625,0.75485 1.75,1.54235 1.75,1.75 0,0.82304 -0.821186,0.29331 -2.127555,-1.37244 z m 11.28545,-0.25 c 0,-1.375 0.226973,-1.9375 0.504386,-1.25 0.277412,0.6875 0.277412,1.8125 0,2.5 -0.277413,0.6875 -0.504386,0.125 -0.504386,-1.25 z m 106.999992,0 c 0,-1.375 0.22698,-1.9375 0.50439,-1.25 0.27741,0.6875 0.27741,1.8125 0,2.5 -0.27741,0.6875 -0.50439,0.125 -0.50439,-1.25 z m -101.905704,-3.5 c 0.0111,-2.2 0.215885,-2.98225 0.455078,-1.73834 0.239193,1.24391 0.230112,3.04391 -0.02018,4 -0.250293,0.95609 -0.445997,-0.0617 -0.434898,-2.26166 z m 16.747817,2.5 c -0.90129,-0.58246 -1.02463,-0.97549 -0.30902,-0.98469 0.65504,-0.008 1.4691,0.43469 1.80902,0.98469 0.7673,1.24153 0.42112,1.24153 -1.5,0 z m 70.694237,-1.5316 c -1.54317,-1.35762 -2.40912,-2.4684 -1.92432,-2.4684 0.4848,0 1.93833,1.125 3.23008,2.5 2.98862,3.18124 2.32802,3.16525 -1.30576,-0.0316 z m -95.61529,-0.0517 c 0.04798,-1.16495 0.284941,-1.4019 0.604167,-0.60417 0.288871,0.72187 0.253344,1.58437 -0.07895,1.91667 -0.332292,0.33229 -0.568641,-0.25834 -0.52522,-1.3125 z m 121.92105,1.20574 c 0,-0.20765 0.7875,-0.99515 1.75,-1.75 1.58606,-1.24387 1.62143,-1.2085 0.37756,0.37756 -1.30637,1.66575 -2.12756,2.19548 -2.12756,1.37244 z m -9.84211,-2.62244 c 0,-1.375 0.22698,-1.9375 0.50439,-1.25 0.27741,0.6875 0.27741,1.8125 0,2.5 -0.27741,0.6875 -0.50439,0.125 -0.50439,-1.25 z M 63.29652,267.97082 c 0.04798,-1.16495 0.284941,-1.4019 0.604167,-0.60417 0.288871,0.72187 0.253344,1.58437 -0.07895,1.91667 -0.332292,0.33229 -0.568641,-0.25834 -0.52522,-1.3125 z m 12.078948,-0.41667 c 0,-1.375 0.226973,-1.9375 0.504386,-1.25 0.277412,0.6875 0.277412,1.8125 0,2.5 -0.277413,0.6875 -0.504386,0.125 -0.504386,-1.25 z m 122.342102,-1 c -0.33992,-0.55 -0.14148,-1 0.44098,-1 0.58246,0 1.05902,0.45 1.05902,1 0,0.55 -0.19844,1 -0.44098,1 -0.24254,0 -0.7191,-0.45 -1.05902,-1 z M 83.08088,265.31516 c 1.424674,-1.81727 3.19352,-1.50026 3.057746,0.54801 -0.05419,0.81746 -0.241499,0.78586 -0.597246,-0.10076 -0.423571,-1.05565 -0.820368,-1.05565 -2.171053,0 -1.47442,1.15236 -1.505651,1.1041 -0.289447,-0.44725 z m 103.27287,-1.118 c -0.10886,-2.28388 -0.48723,-2.72334 -1.88618,-2.19075 -1.40315,0.53418 -1.50225,0.41665 -0.5,-0.59301 1.74377,-1.75667 3.54783,0.23234 2.97085,3.27541 -0.39728,2.09528 -0.46403,2.03915 -0.58467,-0.49165 z m -16.13618,0.35699 c -0.90129,-0.58246 -1.02463,-0.97549 -0.30902,-0.98469 0.65504,-0.008 1.4691,0.43469 1.80902,0.98469 0.7673,1.24153 0.42112,1.24153 -1.5,0 z m 77.73333,-2.12409 c 0.67834,-0.68342 1.48524,-0.99067 1.79313,-0.68278 0.30789,0.30789 -0.24711,0.86705 -1.23333,1.24258 -1.4252,0.54268 -1.54006,0.42782 -0.5598,-0.5598 z m -5.57544,-18.87591 c 0,-1.375 0.22698,-1.9375 0.50439,-1.25 0.27741,0.6875 0.27741,1.8125 0,2.5 -0.27741,0.6875 -0.50439,0.125 -0.50439,-1.25 z m -224.962938,-4.5 c 0.02038,-1.65 0.244498,-2.20394 0.498042,-1.23097 0.253543,0.97297 0.236869,2.32297 -0.03705,3 -0.273927,0.67703 -0.481372,-0.11903 -0.460992,-1.76903 z M 6.967573,229.89187 c 0.6875,-0.27741 1.8125,-0.27741 2.5,0 0.6875,0.27741 0.125,0.50439 -1.25,0.50439 -1.375,0 -1.9375,-0.22698 -1.25,-0.50439 z m 234.999997,-4 c 0.6875,-0.27741 1.8125,-0.27741 2.5,0 0.6875,0.27741 0.125,0.50439 -1.25,0.50439 -1.375,0 -1.9375,-0.22698 -1.25,-0.50439 z m -3.87756,-2.08772 c -1.24387,-1.58606 -1.2085,-1.62143 0.37756,-0.37756 0.9625,0.75485 1.75,1.54235 1.75,1.75 0,0.82304 -0.82119,0.29331 -2.12756,-1.37244 z m -113.66187,-5.64914 c 0.70919,-0.76953 1.44699,-1.24947 1.63957,-1.06653 0.59314,0.56346 -0.91014,2.46567 -1.94858,2.46567 -0.53923,0 -0.40017,-0.62961 0.30901,-1.39914 z m 11.39244,-1.43419 c -0.28327,-0.45834 0.12038,-0.83334 0.89699,-0.83334 0.77661,0 1.18026,0.375 0.89699,0.83334 -0.28326,0.45833 -0.68691,0.83333 -0.89699,0.83333 -0.21008,0 -0.61373,-0.375 -0.89699,-0.83333 z m -12.88061,-2.12019 c -0.28097,-1.07444 0.0315,-2.6953 0.69447,-3.6019 1.00397,-1.37301 1.13507,-1.04667 0.78482,1.95352 -0.4791,4.10386 -0.75637,4.41282 -1.47929,1.64838 z m 19.0901,1.27041 c 0.72187,-0.28887 1.58437,-0.25335 1.91667,0.0789 0.33229,0.33229 -0.25834,0.56864 -1.3125,0.52522 -1.16495,-0.048 -1.4019,-0.28494 -0.60417,-0.60416 z m -15.63909,-4.89101 c 0.53054,-3.80546 -1.56807,-6.29412 -3.09588,-3.67129 -0.62906,1.07991 -1.02831,1.2463 -1.04712,0.43639 -0.017,-0.73181 -0.53948,-0.99439 -1.18492,-0.59549 -0.72104,0.44563 -0.88282,0.27393 -0.4309,-0.45729 0.39798,-0.64395 1.14251,-0.91193 1.65451,-0.59549 0.8149,0.50363 1.32823,-0.75663 1.08901,-2.67364 -0.0433,-0.34701 0.82277,-1.44678 1.92461,-2.44393 1.78335,-1.61391 1.93197,-1.62698 1.35333,-0.11907 -0.35752,0.93166 -1.03776,1.69393 -1.51165,1.69393 -0.4739,0 -0.60261,0.675 -0.28603,1.5 0.31659,0.825 1.22285,1.5 2.01393,1.5 1.11593,0 1.28636,0.84056 0.76035,3.75 -0.82902,4.58546 -1.83445,5.94515 -1.23924,1.67588 z m -17.6307,0.64322 c -0.31644,-0.512 -0.0485,-1.25653 0.59549,-1.65451 0.69784,-0.43129 0.9039,-0.29172 0.51008,0.34549 -0.36341,0.58801 -0.0954,1.29701 0.59549,1.57556 0.89914,0.3625 0.91769,0.52891 0.0653,0.58541 -0.65504,0.0434 -1.44988,-0.33996 -1.76631,-0.85195 z m 36.45729,0.53789 c 0,-0.21616 0.675,-0.65203 1.5,-0.96862 0.825,-0.31658 1.5,-0.13972 1.5,0.39301 0,0.53274 -0.675,0.96862 -1.5,0.96862 -0.825,0 -1.5,-0.17686 -1.5,-0.39301 z m -30.35032,-3.76323 c 1.48748,-1.55259 2.96232,-2.56386 3.27742,-2.24725 0.31509,0.31661 -0.42046,1.38105 -1.63458,2.36543 -1.21411,0.98438 -2.00161,1.99564 -1.75,2.24725 0.25162,0.25161 -0.22986,0.45748 -1.06993,0.45748 -1.0919,0 -0.75627,-0.80491 1.17709,-2.82291 z m 24.66047,0.86257 c -0.98039,-1.56872 -1.36094,-4.09045 -0.48511,-3.21463 0.37123,0.37123 0.68506,1.19997 0.6974,1.84163 0.0123,0.64167 0.79984,1.03444 1.75,0.87283 2.10892,-0.3587 2.27439,0.37002 0.25959,1.14318 -0.80739,0.30982 -1.80724,0.0205 -2.22188,-0.64301 z m -9.2312,-1.28966 c 0.048,-1.16495 0.28494,-1.4019 0.60416,-0.60417 0.28887,0.72187 0.25335,1.58437 -0.0789,1.91667 -0.3323,0.33229 -0.56864,-0.25834 -0.52522,-1.3125 z m 2.28658,-1.41667 c 0.18616,-2.79562 0.62564,-3.46456 2.18377,-3.32392 1.8437,0.16641 1.8531,0.10434 0.17131,-1.13174 -1.63979,-1.2052 -1.64817,-1.35816 -0.10687,-1.94961 0.91988,-0.35299 1.90811,-0.40621 2.19605,-0.11827 0.28795,0.28795 0.17369,0.52354 -0.25391,0.52354 -0.4276,0 0.0811,0.7875 1.13047,1.75 1.04935,0.9625 1.3242,1.3574 0.61078,0.87756 -0.71342,-0.47985 -1.35338,-0.59235 -1.42213,-0.25 -0.0687,0.34234 -0.193,0.95994 -0.27611,1.37244 -0.0831,0.4125 -0.68818,1.65 -1.34459,2.75 -0.87453,1.46551 -1.22039,1.59913 -1.29418,0.5 -0.0686,-1.02167 -0.37604,-0.86223 -0.96417,0.5 -0.67151,1.55536 -0.81166,1.22188 -0.63042,-1.5 z m 3.06971,-0.89522 c 0.3043,-0.49236 -0.0962,-1.14445 -0.89006,-1.44907 -0.96277,-0.36945 -1.25818,-0.0714 -0.88726,0.89522 0.6446,1.67981 1.01089,1.79396 1.77732,0.55385 z m -23.75957,1.64522 c 0.43654,-0.6875 0.82105,-1.7 0.85447,-2.25 0.0334,-0.55 0.60281,-0.8875 1.26531,-0.75 0.6625,0.1375 1.20455,-0.15186 1.20455,-0.64301 0,-0.49116 0.7875,-1.19376 1.75,-1.56133 0.9707,-0.37071 0.21537,0.91759 -1.69617,2.89301 -3.54759,3.66614 -4.76908,4.50189 -3.37816,2.31133 z m 30.72932,-1 -1.90499,-2.25 2.25,1.90499 c 2.11444,1.79022 2.70524,2.59501 1.90499,2.59501 -0.18976,0 -1.20226,-1.0125 -2.25,-2.25 z m -35.40499,0.85699 c 0,-0.21616 0.69837,-0.661 1.55194,-0.98855 0.88992,-0.34149 1.29132,-0.17385 0.94098,0.39301 -0.58726,0.95021 -2.49292,1.40545 -2.49292,0.59554 z m -3,-1.05563 c 0,-0.275 1.35,-1.19811 3,-2.05136 1.65,-0.85325 3,-1.32636 3,-1.05136 0,0.275 -1.35,1.19811 -3,2.05136 -1.65,0.85325 -3,1.32636 -3,1.05136 z m 25.19495,-4.05136 c 0.0204,-1.65 0.2445,-2.20394 0.49804,-1.23097 0.25354,0.97297 0.23687,2.32297 -0.0371,3 -0.27393,0.67703 -0.48137,-0.11903 -0.46099,-1.76903 z m 13.49553,1.04762 c -0.79881,-0.79881 -1.6945,-1.21027 -1.99041,-0.91435 -0.29592,0.29591 -1.04032,-0.40052 -1.65423,-1.54762 -0.91452,-1.7088 -0.82815,-2.08565 0.47799,-2.08565 0.87681,0 1.32424,0.43681 0.99429,0.97068 -0.32995,0.53388 0.46849,1.23884 1.77432,1.56658 1.30582,0.32774 2.37423,1.24093 2.37423,2.02932 0,1.78504 -0.17386,1.78337 -1.97619,-0.019 z m 8.12202,-1.23073 c 0.72187,-0.28887 1.58437,-0.25335 1.91667,0.0789 0.33229,0.33229 -0.25834,0.56864 -1.3125,0.52522 -1.16495,-0.048 -1.4019,-0.28494 -0.60417,-0.60416 z m -38.37052,-1.41077 c -0.30801,-0.49837 0.10474,-0.90612 0.91722,-0.90612 0.81247,0 2.26285,-0.30147 3.22306,-0.66994 1.09783,-0.42128 1.50514,-0.28049 1.09737,0.37929 -0.90206,1.45957 -4.55884,2.29511 -5.23765,1.19677 z m 127.05802,-1.90612 c 0.99549,-1.1 2.03498,-2 2.30998,-2 0.275,0 -0.31449,0.9 -1.30998,2 -0.99549,1.1 -2.03498,2 -2.30998,2 -0.275,0 0.31449,-0.9 1.30998,-2 z m -134.75,0.33772 c 0.6875,-0.27741 1.8125,-0.27741 2.5,0 0.6875,0.27741 0.125,0.50439 -1.25,0.50439 -1.375,0 -1.9375,-0.22698 -1.25,-0.50439 z m 5.0625,-1.02083 c 0.72187,-0.28887 1.58437,-0.25335 1.91667,0.0789 0.33229,0.33229 -0.25834,0.56864 -1.3125,0.52522 -1.16495,-0.048 -1.4019,-0.28494 -0.60417,-0.60416 z m 33.9375,0.0208 c 0.6875,-0.27741 1.8125,-0.27741 2.5,0 0.6875,0.27741 0.125,0.50439 -1.25,0.50439 -1.375,0 -1.9375,-0.22698 -1.25,-0.50439 z m -5.25,-1.33769 c -1.31874,-0.56668 -1.48906,-0.87815 -0.5,-0.9144 0.825,-0.0302 2.175,0.38124 3,0.9144 1.82797,1.18132 0.24909,1.18132 -2.5,0 z m -29.6875,-0.68311 c 0.72187,-0.28887 1.58437,-0.25335 1.91667,0.0789 0.33229,0.33229 -0.25834,0.56864 -1.3125,0.52522 -1.16495,-0.048 -1.4019,-0.28494 -0.60417,-0.60416 z m 44.6875,-1.31689 c -0.33992,-0.55 -0.14148,-1 0.44098,-1 0.58246,0 1.05902,0.45 1.05902,1 0,0.55 -0.19844,1 -0.44098,1 -0.24254,0 -0.7191,-0.45 -1.05902,-1 z m -50.23625,-0.71758 c 1.52006,-0.22986 3.77006,-0.22371 5,0.0136 1.22994,0.23736 -0.0138,0.42542 -2.76375,0.41792 -2.75,-0.008 -3.75631,-0.20172 -2.23625,-0.43157 z m 7.73625,-0.28242 c 0,-0.55 0.70156,-1 1.55902,-1 0.85746,0 1.2809,0.45 0.94098,1 -0.33992,0.55 -1.04148,1 -1.55902,1 -0.51754,0 -0.94098,-0.45 -0.94098,-1 z m 4.8125,0.31689 c 0.72187,-0.28887 1.58437,-0.25335 1.91667,0.0789 0.33229,0.33229 -0.25834,0.56864 -1.3125,0.52522 -1.16495,-0.048 -1.4019,-0.28494 -0.60417,-0.60416 z m 18.40912,-0.15876 c -0.92736,-0.58849 -0.58414,-1.12755 1.25,-1.96325 1.39061,-0.6336 2.52838,-0.74915 2.52838,-0.25677 0,0.49237 -0.5625,1.16042 -1.25,1.48454 -0.6875,0.32412 0.1,0.34795 1.75,0.053 2.23381,-0.39938 2.61691,-0.27712 1.5,0.4787 -1.80905,1.2242 -4.0461,1.30311 -5.77838,0.20382 z m 9.54004,0.13461 c 1.24391,-0.23919 3.04391,-0.23011 4,0.0202 0.95609,0.25029 -0.0617,0.446 -2.26166,0.4349 -2.2,-0.0111 -2.98225,-0.21589 -1.73834,-0.45508 z m 98.39623,-1.29274 c 0,-1.375 0.22698,-1.9375 0.50439,-1.25 0.27741,0.6875 0.27741,1.8125 0,2.5 -0.27741,0.6875 -0.50439,0.125 -0.50439,-1.25 z m -124.40789,0.31067 c -0.9625,-0.25152 -1.75,-0.89016 -1.75,-1.41918 0,-0.57964 0.79474,-0.53652 2,0.10851 1.1,0.5887 2,1.27953 2,1.53518 0,0.25565 -0.1125,0.41262 -0.25,0.34882 -0.1375,-0.0638 -1.0375,-0.3218 -2,-0.57333 z m -11,-0.97295 c 0.6875,-0.27741 1.8125,-0.27741 2.5,0 0.6875,0.27741 0.125,0.50439 -1.25,0.50439 -1.375,0 -1.9375,-0.22698 -1.25,-0.50439 z m 33.69113,-0.89289 c -1.84404,-1.47737 -1.82223,-1.49722 0.43604,-0.39675 1.76857,0.86183 2.55669,0.86795 3.07835,0.0239 0.50661,-0.81972 1.37313,-0.84054 3.12283,-0.075 2.26299,0.99007 2.27424,1.03101 0.17165,0.6249 -1.2375,-0.23903 -2.25,-0.0267 -2.25,0.47179 0,1.41166 -2.41627,1.06779 -4.55887,-0.64879 z m -28.44113,0.16216 c 0,-0.21616 0.69837,-0.661 1.55194,-0.98855 0.88992,-0.34149 1.29132,-0.17385 0.94098,0.39301 -0.58726,0.95021 -2.49292,1.40545 -2.49292,0.59554 z m 6.08333,-1.52366 c -1.05416,-1.05416 -2.15006,-1.68326 -2.43533,-1.398 -0.28527,0.28527 -1.46805,-0.1463 -2.6284,-0.95905 -1.81061,-1.2682 -1.88331,-1.5646 -0.51273,-2.09054 0.87835,-0.33706 1.34129,-0.19908 1.02876,0.30662 -0.31254,0.50569 -0.14201,1.18288 0.37896,1.50485 2.09282,1.29344 1.98068,-1.47121 -0.14242,-3.51101 -2.21496,-2.12805 -2.21771,-2.15502 -0.10932,-1.07107 1.18956,0.61157 2.35388,1.67961 2.58738,2.37341 0.32663,0.97056 0.8522,0.91555 2.27911,-0.23854 1.02002,-0.825 1.54039,-0.97593 1.15639,-0.33541 -0.38401,0.64052 -0.35789,1.35427 0.058,1.5861 0.41593,0.23184 0.19373,0.2844 -0.49377,0.1168 -0.6875,-0.1676 -1.25,0.13116 -1.25,0.66389 0,1.62715 2.83043,1.07778 4.02582,-0.78138 1.07161,-1.66667 1.09928,-1.66667 0.58107,0 -0.29927,0.9625 -0.18428,1.75 0.25552,1.75 0.92317,0 2.83399,-3.5793 3.47004,-6.5 0.39898,-1.83209 0.44529,-1.81605 0.55155,0.19098 0.0638,1.20504 0.47195,2.41098 0.90701,2.67986 0.43506,0.26888 0.66366,-1.16707 0.50801,-3.19099 l -0.28299,-3.67985 1.56966,3.43333 c 1.21953,2.6675 1.77198,3.11362 2.47667,2 0.49886,-0.78833 0.91391,-1.04073 0.92233,-0.56089 0.008,0.47985 0.79398,0.25485 1.74569,-0.5 0.9517,-0.75484 0.6142,0.066 -0.75,1.82421 -1.36421,1.75816 -3.03602,3.01242 -3.71513,2.78724 -0.67911,-0.22518 -1.72299,0.50288 -2.31973,1.61792 -0.77116,1.44092 -1.43609,1.73594 -2.2988,1.01996 -0.7217,-0.59896 -1.78898,-0.65189 -2.63251,-0.13055 -0.7803,0.48225 -1.85418,0.60769 -2.3864,0.27875 -0.55756,-0.34459 -0.69705,0.10721 -0.32913,1.06599 0.83775,2.18314 0.14096,2.10368 -2.21535,-0.25263 z m -9.27083,0.23356 c 0.72187,-0.28887 1.58437,-0.25335 1.91667,0.0789 0.33229,0.33229 -0.25834,0.56864 -1.3125,0.52522 -1.16495,-0.048 -1.4019,-0.28494 -0.60417,-0.60416 z m 26.40646,-0.9461 c 1.76363,-1.78242 6.13064,-2.74547 5.13351,-1.13208 -0.30512,0.4937 -1.18425,0.65608 -1.95362,0.36085 -0.76937,-0.29524 -1.39885,-0.14906 -1.39885,0.32484 0,0.47389 -0.7875,1.15908 -1.75,1.52265 -1.65483,0.62508 -1.65652,0.56655 -0.031,-1.07626 z m 15.28104,0.62921 c 0.33992,-0.55 1.06803,-1 1.61803,-1 0.55,0 0.72189,0.45 0.38197,1 -0.33992,0.55 -1.06803,1 -1.61803,1 -0.55,0 -0.72189,-0.45 -0.38197,-1 z M 17.29652,187.97082 c 0.04798,-1.16495 0.284941,-1.4019 0.604167,-0.60417 0.288871,0.72187 0.253344,1.58437 -0.07895,1.91667 -0.332292,0.33229 -0.568641,-0.25834 -0.52522,-1.3125 z m 83.65438,0.45924 c 0.67834,-0.68342 1.48524,-0.99067 1.79313,-0.68278 0.30789,0.30789 -0.24711,0.86705 -1.23333,1.24258 -1.4252,0.54268 -1.540057,0.42782 -0.5598,-0.5598 z m 8.6305,-1.37017 c -0.31537,-0.82184 -0.90125,-1.29163 -1.30195,-1.04399 -0.4007,0.24765 -0.72855,-0.18514 -0.72855,-0.96175 0,-0.77661 0.37258,-1.18176 0.82796,-0.90032 1.08848,0.67272 3.07287,4.40032 2.34251,4.40032 -0.31161,0 -0.8246,-0.67242 -1.13997,-1.49426 z m 130.04116,-0.75574 -1.90499,-2.25 2.25,1.90499 c 2.11444,1.79022 2.70524,2.59501 1.90499,2.59501 -0.18976,0 -1.20226,-1.0125 -2.25,-2.25 z m -105.40499,0.48102 c 0,-0.61469 0.83951,-1.70563 1.86558,-2.42432 1.02607,-0.71868 1.92607,-1.6442 2,-2.0567 0.0739,-0.4125 0.31218,-0.6375 0.52943,-0.5 0.21726,0.1375 1.45476,-0.65 2.75,-1.75 l 2.35499,-2 -1.91054,2.25613 c -2.22328,2.62545 -1.43909,4.17907 1.07833,2.13637 1.12159,-0.91008 1.45711,-0.96131 0.96847,-0.14788 -0.4112,0.68454 -1.67689,1.74194 -2.81263,2.34977 -1.49366,0.79938 -1.87693,0.80087 -1.38529,0.005 1.1438,-1.85071 -0.67666,-1.22451 -3.12389,1.07454 -1.27295,1.19626 -2.31445,1.67177 -2.31445,1.05709 z m 8,-0.62403 c 0,-0.21616 0.69837,-0.661 1.55194,-0.98855 0.88992,-0.34149 1.29132,-0.17385 0.94098,0.39301 -0.58726,0.95021 -2.49292,1.40545 -2.49292,0.59554 z m -38.54112,-1.67352 c -0.36253,-0.58659 -0.44468,-1.281 -0.18255,-1.54313 0.26212,-0.26213 0.74306,0.21781 1.06875,1.06653 0.67618,1.76211 0.0999,2.07206 -0.8862,0.4766 z m 47.10541,-0.2266 c 0.37553,-0.98622 0.93469,-1.54122 1.24258,-1.23333 0.30789,0.30789 6.4e-4,1.11479 -0.68278,1.79313 -0.98762,0.98026 -1.10248,0.8654 -0.5598,-0.5598 z m 77.16904,0.16904 c 0.67834,-0.68342 1.48524,-0.99067 1.79313,-0.68278 0.30789,0.30789 -0.24711,0.86705 -1.23333,1.24258 -1.4252,0.54268 -1.54006,0.42782 -0.5598,-0.5598 z m -103.99592,-0.62591 c -0.20934,-0.4125 -0.0641,-2.1 0.32267,-3.75 0.69147,-2.94956 0.70528,-2.93695 0.82161,0.75 0.11234,3.56066 -0.30477,4.65421 -1.14428,3 z m 22.26259,0.35699 c 0,-0.21616 0.69837,-0.661 1.55194,-0.98855 0.88992,-0.34149 1.29132,-0.17385 0.94098,0.39301 -0.58726,0.95021 -2.49292,1.40545 -2.49292,0.59554 z m -25.83756,-3.14982 c -1.67549,-3.67729 -1.35583,-4.46179 0.45586,-1.11876 0.84602,1.56112 1.3511,3.02552 1.1224,3.25422 -0.2287,0.2287 -0.93892,-0.73225 -1.57826,-2.13546 z m -13.19761,4.5e-4 c -1.74921,-2.10767 0.37484,-4.52284 2.28517,-2.59837 1.00225,1.00966 0.90315,1.12719 -0.5,0.59301 -2.00743,-0.76424 -2.32147,0.57627 -0.55,2.34774 0.66,0.66 0.9401,1.2 0.62244,1.2 -0.31765,0 -1.15358,-0.69407 -1.85761,-1.54238 z m -85.231494,-0.58171 c 0.678334,-0.68342 1.485241,-0.99067 1.793128,-0.68278 0.307888,0.30789 -0.247112,0.86705 -1.233333,1.24258 -1.425198,0.54268 -1.540062,0.42782 -0.559795,-0.5598 z m 191.773744,0.13554 c -0.35034,-0.56686 0.0511,-0.7345 0.94098,-0.39301 1.73242,0.66479 2.04939,1.38156 0.61096,1.38156 -0.51754,0 -1.21592,-0.44485 -1.55194,-0.98855 z m -80.88354,-1.55011 c -0.96498,-2.51469 -0.68031,-3.16355 0.49853,-1.13634 0.58369,1.00375 0.8506,2.03566 0.59313,2.29313 -0.25747,0.25747 -0.74872,-0.26309 -1.09166,-1.15679 z m 7.87646,-1.46134 c 0.99549,-1.1 2.03498,-2 2.30998,-2 0.275,0 -0.31449,0.9 -1.30998,2 -0.99549,1.1 -2.03498,2 -2.30998,2 -0.275,0 0.31449,-0.9 1.30998,-2 z m -28.4721,-0.46638 c -0.66934,-0.80651 -1.06194,-1.9168 -0.87244,-2.46731 0.1895,-0.55051 0.8647,0.10936 1.50045,1.46638 1.31782,2.81288 1.12751,3.1162 -0.62801,1.00093 z m 16.12999,-3.53362 c 0,-1.375 0.22698,-1.9375 0.50439,-1.25 0.27741,0.6875 0.27741,1.8125 0,2.5 -0.27741,0.6875 -0.50439,0.125 -0.50439,-1.25 z m 2.92106,0.41667 c 0.048,-1.16495 0.28494,-1.4019 0.60416,-0.60417 0.28887,0.72187 0.25335,1.58437 -0.0789,1.91667 -0.3323,0.33229 -0.56864,-0.25834 -0.52522,-1.3125 z m -11.51466,-2.12354 c -0.54268,-1.4252 -0.42782,-1.54006 0.5598,-0.5598 0.68342,0.67834 0.99067,1.48524 0.68278,1.79313 -0.30789,0.30789 -0.86705,-0.24711 -1.24258,-1.23333 z m 15.16904,-0.41722 c 0.67834,-0.68342 1.48524,-0.99067 1.79313,-0.68278 0.30789,0.30789 -0.24711,0.86705 -1.23333,1.24258 -1.4252,0.54268 -1.54006,0.42782 -0.5598,-0.5598 z m 78,-8 c 0.67834,-0.68342 1.48524,-0.99067 1.79313,-0.68278 0.30789,0.30789 -0.24711,0.86705 -1.23333,1.24258 -1.4252,0.54268 -1.54006,0.42782 -0.5598,-0.5598 z M 37.217573,160.17659 c 0,-0.20765 0.7875,-0.99515 1.75,-1.75 1.586056,-1.24387 1.621426,-1.2085 0.377555,0.37756 -1.306369,1.66575 -2.127555,2.19548 -2.127555,1.37244 z m 167.157887,-2.62244 c 0,-1.375 0.22698,-1.9375 0.50439,-1.25 0.27741,0.6875 0.27741,1.8125 0,2.5 -0.27741,0.6875 -0.50439,0.125 -0.50439,-1.25 z M 77.29652,150.97082 c 0.04798,-1.16495 0.284941,-1.4019 0.604167,-0.60417 0.288871,0.72187 0.253344,1.58437 -0.07895,1.91667 -0.332292,0.33229 -0.568641,-0.25834 -0.52522,-1.3125 z m 116.73355,-2.09978 c 0.72187,-0.28887 1.58437,-0.25335 1.91667,0.0789 0.33229,0.3323 -0.25834,0.56864 -1.3125,0.52522 -1.16495,-0.048 -1.4019,-0.28494 -0.60417,-0.60416 z m -44,-2 c 0.72187,-0.28887 1.58437,-0.25335 1.91667,0.0789 0.33229,0.3323 -0.25834,0.56864 -1.3125,0.52522 -1.16495,-0.048 -1.4019,-0.28494 -0.60417,-0.60416 z m 13.26645,-0.90022 c 0.048,-1.16495 0.28494,-1.4019 0.60416,-0.60417 0.28887,0.72187 0.25335,1.58437 -0.0789,1.91667 -0.3323,0.33229 -0.56864,-0.25834 -0.52522,-1.3125 z M 62.717573,144.55415 c 0.995486,-1.1 2.034975,-2 2.309975,-2 0.275,0 -0.314489,0.9 -1.309975,2 -0.995486,1.1 -2.034975,2 -2.309975,2 -0.275,0 0.314489,-0.9 1.309975,-2 z m 76.372437,0.25 c -1.24387,-1.58606 -1.2085,-1.62143 0.37756,-0.37756 1.66575,1.30637 2.19548,2.12756 1.37244,2.12756 -0.20765,0 -0.99515,-0.7875 -1.75,-1.75 z m -36.79349,-2.83333 c 0.048,-1.16495 0.28494,-1.4019 0.60416,-0.60417 0.28887,0.72187 0.25335,1.58437 -0.0789,1.91667 -0.3323,0.33229 -0.56864,-0.25834 -0.52522,-1.3125 z m 61.92105,1.20577 c 0,-0.20765 0.7875,-0.99515 1.75,-1.75 1.58606,-1.24387 1.62143,-1.2085 0.37756,0.37756 -1.30637,1.66575 -2.12756,2.19548 -2.12756,1.37244 z m -26.80505,-4.12244 c 0.0204,-1.65 0.2445,-2.20394 0.49804,-1.23097 0.25354,0.97297 0.23687,2.32297 -0.0371,3 -0.27388,0.67703 -0.48132,-0.11903 -0.46094,-1.76903 z m -26.94277,-3 c 0.0111,-2.2 0.21589,-2.98225 0.45508,-1.73834 0.23919,1.24391 0.23011,3.04391 -0.0202,4 -0.25027,0.95609 -0.44598,-0.0617 -0.43488,-2.26166 z m -25.252177,1.12244 c 0,-0.20765 0.7875,-0.99515 1.75,-1.75 1.58606,-1.24387 1.62143,-1.2085 0.377555,0.37756 -1.306369,1.66575 -2.127555,2.19548 -2.127555,1.37244 z m 25.999997,-6 c 0,-0.20765 0.7875,-0.99515 1.75,-1.75 1.58606,-1.24387 1.62143,-1.2085 0.37756,0.37756 -1.30637,1.66575 -2.12756,2.19548 -2.12756,1.37244 z m 13.87244,-1.37244 c -1.24387,-1.58606 -1.2085,-1.62143 0.37756,-0.37756 0.9625,0.75485 1.75,1.54235 1.75,1.75 0,0.82304 -0.82119,0.29331 -2.12756,-1.37244 z"
             id="path1291"
             inkscape:connector-curvature="0" />
        </g>
      </g>
    </g>
  </g>
</svg>
