<?xml version="1.0" encoding="UTF-8" standalone="no"?>
<!-- Created with Inkscape (http://www.inkscape.org/) -->

<svg
   xmlns:dc="http://purl.org/dc/elements/1.1/"
   xmlns:cc="http://creativecommons.org/ns#"
   xmlns:rdf="http://www.w3.org/1999/02/22-rdf-syntax-ns#"
   xmlns:svg="http://www.w3.org/2000/svg"
   xmlns="http://www.w3.org/2000/svg"
   xmlns:sodipodi="http://sodipodi.sourceforge.net/DTD/sodipodi-0.dtd"
   xmlns:inkscape="http://www.inkscape.org/namespaces/inkscape"
   version="1.1"
   id="svg2949"
   width="283"
   height="443"
   viewBox="0 0 283 443"
   sodipodi:docname="feu149.svg"
   inkscape:version="0.92.4 (5da689c313, 2019-01-14)">
  <metadata
     id="metadata2955">
    <rdf:RDF>
      <cc:Work
         rdf:about="">
        <dc:format>image/svg+xml</dc:format>
        <dc:type
           rdf:resource="http://purl.org/dc/dcmitype/StillImage" />
        <dc:title></dc:title>
      </cc:Work>
    </rdf:RDF>
  </metadata>
  <defs
     id="defs2953" />
  <sodipodi:namedview
     pagecolor="#ffffff"
     bordercolor="#666666"
     borderopacity="1"
     objecttolerance="10"
     gridtolerance="10"
     guidetolerance="10"
     inkscape:pageopacity="0"
     inkscape:pageshadow="2"
     inkscape:window-width="1280"
     inkscape:window-height="972"
     id="namedview2951"
     showgrid="false"
     inkscape:zoom="1.5067919"
     inkscape:cx="129.71757"
     inkscape:cy="224.72047"
     inkscape:window-x="-8"
     inkscape:window-y="-8"
     inkscape:window-maximized="1"
     inkscape:current-layer="g928"
     showguides="true" />
  <g
     id="g151"
     transform="translate(25.882805,-2.654647)">
    <g
       id="g534"
       transform="translate(-21.900834,-45.792654)">
      <g
         id="g928"
         transform="translate(-3.9819699,-1.3273232)">
        <path
           style="fill:#0000ff"
           d="m 127.56963,375.9014 c -3.29202,-1.33012 -6.38812,-5.95373 -6.38812,-9.53978 0,-4.06878 3.30288,-6.48015 8.87592,-6.48015 3.17901,0 4.44966,0.59821 6.53519,3.07673 4.04193,4.80356 3.12569,9.56008 -2.39109,12.41292 -3.28135,1.69685 -3.66814,1.72778 -6.6319,0.53028 z m 20.46794,-0.53633 c -7.52213,-4.08642 -4.3558,-16.4836 4.21003,-16.4836 2.96665,0 4.30026,0.64667 6.34502,3.07673 4.5069,5.35614 3.10281,11.63678 -3.13139,14.00702 -3.16985,1.20518 -4.26318,1.11679 -7.42366,-0.60015 z m -41.85606,-3.18983 c -3.77217,-1.37894 -6,-4.65128 -6,-8.8131 0,-6.59572 4.50449,-9.14036 11.48327,-6.48703 2.6578,1.01049 5.51673,6.15925 5.51673,9.93529 0,4.25874 -6.00891,7.18936 -11,5.36484 z m 62.28051,-3.3895 c -4.56688,-2.92502 -5.49657,-8.14276 -2.0627,-11.57662 1.4642,-1.4642 4.09272,-2.69374 6.42847,-3.00703 3.2916,-0.4415 4.49474,-0.0728 7.20501,2.2077 2.7278,2.2953 3.20471,3.31702 2.95115,6.32253 -0.23538,2.78989 -1.05591,4.09088 -3.70032,5.86698 -4.18192,2.80876 -6.66067,2.85146 -10.82161,0.18644 z m -83.780507,-3.82809 c -3.326408,-1.39729 -5.809472,-4.89637 -5.719528,-8.05983 0.112872,-3.96987 0.833668,-4.95718 4.841605,-6.6318 2.925352,-1.22229 3.847702,-1.2151 6.884284,0.0537 5.514639,2.30416 6.995749,7.76916 3.243639,11.96838 -2.537152,2.83948 -6.276443,3.91866 -9.25,2.66959 z m 103.802547,-4.27322 c -2.40573,-1.16232 -5.30255,-6.42652 -5.30255,-9.63599 0,-2.64444 5.00165,-6.16697 8.75649,-6.16697 1.62126,0 4.47679,1.04266 6.34563,2.31703 2.94203,2.00618 3.3802,2.83795 3.26609,6.19995 -0.22632,6.66773 -6.78049,10.32262 -13.06566,7.28598 z M 63.104328,354.84622 c -4.256003,-2.18346 -6.576584,-4.70151 -7.409432,-8.03992 -0.502602,-2.01464 0.02929,-3.29425 2.443601,-5.87878 2.768139,-2.9633 3.505999,-3.24729 7.162821,-2.75681 8.03918,1.07828 11.656234,8.91188 6.90432,14.95296 -2.656137,3.37673 -5.008976,3.82204 -9.10131,1.72255 z m 70.241722,-2.53761 c -3.24067,-1.3626 -5.16909,-5.59814 -5.15684,-11.32636 0.007,-3.14117 0.51067,-3.88798 3.94812,-5.85078 6.55703,-3.7441 12.41257,-2.30587 15.58443,3.82783 4.16626,8.05666 -5.53595,17.06615 -14.37571,13.34931 z m 71.23546,-5.82714 c -5.0084,-5.0084 -4.59541,-12.63902 0.78556,-14.51484 5.74744,-2.00357 11.76322,2.3019 13.25687,9.48789 0.51789,2.4916 0.13225,3.57954 -2.0382,5.75 -3.79173,3.79173 -7.72645,3.55473 -12.00423,-0.72305 z m -162.413749,-6.8818 c -2.701008,-2.17365 -4.986248,-6.57819 -4.986248,-9.61044 0,-6.03847 8.68424,-9.1795 15.024452,-5.43424 7.447615,4.39941 3.975938,16.36755 -4.726703,16.29468 -2.088762,-0.0175 -4.478937,-0.58 -5.311501,-1.25 z m 179.434309,-5.52365 c -2.31201,-1.93339 -3.61541,-6.73344 -2.73872,-10.08591 0.69321,-2.65085 5.12784,-5.10864 9.21761,-5.10864 4.41673,0 8.57309,5.66763 7.67338,10.46347 -0.35897,1.91348 -1.63484,4.16698 -2.83526,5.00779 -2.89754,2.02952 -8.72968,1.88692 -11.31701,-0.27671 z m -89.49748,-10.11763 c -1.6077,-1.60769 -2.95751,-3.74519 -2.99959,-4.75 -0.0421,-1.0048 -0.22642,-2.60864 -0.40963,-3.56407 -0.38159,-1.98988 4.47126,-6.47003 7.95551,-7.34452 2.76334,-0.69355 8.05713,1.82841 9.50099,4.52628 1.31513,2.45735 1.32431,7.63627 0.0179,10.07738 -0.91572,1.71104 -6.46845,3.95837 -9.81515,3.97243 -0.72981,0.003 -2.64231,-1.3098 -4.25,-2.9175 z m -105.288218,-3.1495 c -2.249062,-1.76911 -2.634859,-2.84174 -2.634859,-7.32569 0,-4.17081 0.463566,-5.67739 2.25,-7.31248 3.28637,-3.00795 6.160027,-3.5626 10.045903,-1.93897 7.148258,2.98673 8.964891,10.54277 3.78102,15.72664 -3.643753,3.64376 -9.425918,4.0096 -13.442064,0.8505 z m 209.090688,-3.70928 c -2.25722,-2.54014 -3.83311,-9.14865 -2.69067,-11.28331 1.4802,-2.76577 5.99956,-5.93483 8.46362,-5.93483 3.08576,0 7.16114,4.37218 7.93868,8.51685 1.08327,5.77433 -1.9298,9.43166 -8.27363,10.0427 -2.79186,0.26892 -4.34819,-0.11499 -5.438,-1.34141 z M 132.18151,302.6777 c -3.09994,-2.10433 -3.5,-2.87337 -3.5,-6.72814 0,-4.9072 2.39116,-7.38732 8.26684,-8.57439 2.83148,-0.57205 3.73104,-0.19582 6.75,2.82314 5.99716,5.99716 3.94899,13.28654 -4.02706,14.33222 -3.12255,0.40937 -4.75055,0.007 -7.48978,-1.85283 z m 115.30596,-3.99175 c -4.908,-2.37156 -5.94749,-12.36158 -1.61848,-15.55448 2.14846,-1.58461 8.31843,-1.56574 10.39918,0.0318 2.33257,1.79089 3.91543,5.20285 3.89803,8.40246 -0.018,3.31564 -0.63687,4.35147 -3.9572,6.6237 -2.78223,1.904 -5.48972,2.05813 -8.72153,0.49652 z M 16.258238,295.29258 c -4.040215,-3.39962 -4.262528,-8.65271 -0.536256,-12.67133 2.092373,-2.25653 3.391195,-2.73978 7.363636,-2.73978 6.548304,0 10.095895,3.36061 10.095895,9.56378 0,3.44463 -0.519737,4.69988 -2.634859,6.36364 -3.863611,3.03912 -10.341201,2.80505 -14.288416,-0.51631 z M 131.18151,282.17203 c -3.74932,-1.3786 -5,-3.59805 -5,-8.87297 0,-4.50482 0.38361,-5.57418 2.63486,-7.34501 8.24,-6.48159 19.56489,2.42543 15.74396,12.38262 -1.29295,3.36936 -8.79622,5.52036 -13.37882,3.83536 z m 119.97719,-8.82746 c -3.8933,-6.2995 -0.94956,-13.01665 6.14878,-14.0305 4.60674,-0.65798 8.872,3.1334 9.5958,8.52969 0.73981,5.51572 -2.8044,9.03771 -9.09476,9.03771 -4.03177,0 -4.6755,-0.34238 -6.64982,-3.5369 z m -237.970422,-0.4536 c -5.1074462,-7.17275 -2.57866,-15.0095 4.843309,-15.0095 4.362086,0 7.58464,2.00618 9.655637,6.01104 2.134794,4.12824 1.877727,5.75937 -1.428788,9.06588 -4.181815,4.18182 -10.066047,4.15146 -13.070158,-0.0674 z m 72.240838,-15.78961 c -3.142571,-0.50175 -7.272884,-6.27234 -7.427184,-10.37675 -0.26092,-6.94048 3.716161,-10.43964 10.678786,-9.39553 5.175899,0.77617 7.516905,3.14213 8.138065,8.22477 0.83534,6.83527 -4.843394,12.5927 -11.389667,11.54751 z m -50.084319,-3.83797 c -1.739806,-2.11068 -3.213095,-4.52258 -3.273975,-5.35976 -0.512426,-7.04658 2.404392,-10.68948 9.317599,-11.63704 4.302414,-0.58971 4.941116,-0.39094 7.741203,2.40915 6.296445,6.29644 2.506399,16.66482 -6.534827,17.87724 -3.800265,0.50961 -4.30844,0.27904 -7.25,-3.28959 z m 95.079103,2.12401 c -5.85179,-2.54323 -6.99469,-10.14169 -2.29876,-15.28307 2.47545,-2.71028 3.65416,-3.22286 7.41111,-3.22286 3.74588,0 4.87921,0.48932 7.01658,3.02944 3.5537,4.22333 4.41122,9.43875 1.99747,12.14857 -1.92469,2.16078 -7.31908,4.85208 -9.58667,4.78285 -0.70517,-0.0215 -2.74805,-0.67625 -4.53973,-1.45493 z m -70.492409,-0.58604 c -2.613632,-1.5223 -4.753293,-6.33238 -4.72418,-10.62023 0.0232,-3.41671 0.408968,-3.97604 3.827614,-5.54966 6.833624,-3.14556 12.419352,-1.73477 14.694957,3.71152 2.088524,4.99854 1.819756,6.93289 -1.449579,10.43272 -2.290121,2.45159 -3.71189,3.09935 -6.75,3.07535 -2.116834,-0.0167 -4.6363,-0.48909 -5.598812,-1.0497 z m 45.301119,-0.34696 c -4.58816,-2.54091 -5.460167,-9.82326 -1.69975,-14.19501 1.93502,-2.24959 3.20796,-2.74639 7.18922,-2.80577 4.41603,-0.0659 5.03934,0.22412 7.14864,3.32573 1.27094,1.86884 2.31079,4.88813 2.31079,6.70953 0,6.7108 -8.3681,10.60996 -14.9489,6.96552 z m 71.92995,-1.32293 c -3.22121,-2.90389 -4.72668,-8.14302 -3.61392,-12.57663 0.76858,-3.06225 6.0664,-5.67337 11.51095,-5.67337 4.65971,0 6.80984,2.30201 7.78966,8.33994 0.85426,5.26418 -0.33508,8.48654 -3.94458,10.68734 -4.47466,2.72832 -8.12121,2.48693 -11.74211,-0.77728 z m -24.85088,-0.79392 c -3.80202,-3.19919 -4.57062,-5.59148 -3.1649,-9.85086 1.27791,-3.8721 3.82762,-6.48759 6.90153,-7.07957 1.1774,-0.22674 2.47653,-0.61711 2.88696,-0.86748 1.43482,-0.87526 7.70175,2.86361 8.95375,5.34183 1.62865,3.22375 1.59202,9.02203 -0.0708,11.21069 -3.26003,4.29092 -11.13542,4.92343 -15.50653,1.24539 z m 51.17758,1.34919 c -2.35975,-1.1403 -5.30775,-7.36474 -5.30775,-11.20682 0,-3.44809 5.85035,-7.59845 10.71077,-7.59845 6.63707,0 10.79891,4.98012 10.11143,12.0995 -0.57752,5.98069 -9.25413,9.73096 -15.51445,6.70577 z m 25.06033,-2.37647 c -4.37408,-4.63788 -4.54982,-8.92243 -0.52418,-12.77925 3.29403,-3.15588 8.89483,-4.39493 12.10361,-2.67764 3.05201,1.63339 5.36745,7.53565 4.5874,11.6937 -0.88272,4.70532 -4.05701,7.33439 -8.85539,7.33439 -3.22626,0 -4.55585,-0.64942 -7.31144,-3.5712 z m 27.5891,2.47798 c -3.29565,-1.21224 -5.95718,-5.78657 -5.95718,-10.23849 0,-4.77134 3.65706,-7.66829 9.68031,-7.66829 5.31953,0 8.84798,2.96863 9.84495,8.28298 0.84884,4.52468 -0.77773,7.50674 -5.07363,9.30168 -3.83315,1.60159 -4.90547,1.64225 -8.49445,0.32212 z M 15.429116,253.14986 c -3.373479,-0.61125 -7.2476032,-6.2842 -7.2476032,-10.61278 0,-8.56388 11.9598402,-12.58507 18.0739502,-6.07689 2.545516,2.70957 3.044568,10.36862 0.848055,13.01526 -2.351287,2.83313 -7.453935,4.43914 -11.674402,3.67441 z M 12.793757,229.0055 c -0.933752,-1.03179 -1.957011,-3.47373 -2.273908,-5.42654 -1.5917612,-9.80887 14.252622,-12.02187 16.086436,-2.2468 0.375082,1.99936 0.183662,4.41244 -0.44289,5.58316 -2.162876,4.04137 -10.433652,5.33441 -13.369638,2.09018 z m 114.637753,-2.62238 c -3.05621,-4.71825 -2.86297,-8.04253 0.67308,-11.57857 5.60338,-5.60339 14.98314,-3.30582 17.23872,4.22263 1.03943,3.46931 0.94272,4.23733 -0.83308,6.61582 -2.23175,2.98919 -4.8751,3.99647 -10.82872,4.12641 -3.50968,0.0766 -4.27581,-0.33849 -6.25,-3.38629 z m 128.0052,1.38092 c -3.77041,-1.08885 -5.75743,-3.82727 -6.70974,-9.24703 -0.94256,-5.36425 2.07076,-8.63554 7.95454,-8.63554 5.02745,0 8.01002,2.72305 9.02908,8.24343 1.03203,5.59065 -0.0316,8.38748 -3.67228,9.65664 -1.73538,0.60496 -3.2006,1.05935 -3.25602,1.00974 -0.0554,-0.0496 -1.56094,-0.51186 -3.34558,-1.02724 z M 15.457239,210.01914 c -1.22335,-1.05412 -2.791239,-4.03641 -3.484197,-6.62731 -1.230963,-4.60243 -1.195792,-4.76588 1.530037,-7.11054 3.61303,-3.10779 10.518328,-3.3392 13.14171,-0.4404 2.687077,2.96919 3.170328,10.03654 0.879705,12.86534 -2.593013,3.20224 -9.058283,3.90566 -12.067255,1.31291 z M 132.34649,205.1646 c -2.78224,-0.52965 -6.10936,-7.12323 -5.41837,-10.73793 0.72149,-3.77422 4.61983,-6.71946 9.64338,-7.28569 4.03364,-0.45465 4.83916,-0.18421 7.56226,2.5389 2.19974,2.19974 3.0389,3.97343 3.01595,6.37467 -0.0382,3.99719 -1.40747,5.97147 -5.66854,8.17324 -3.17638,1.6413 -4.64357,1.79176 -9.13468,0.93681 z m 116.33502,-2.00237 c -4.00945,-0.97677 -8.5,-7.18358 -8.5,-11.74864 0,-2.3499 3.46478,-5.29033 7.56906,-6.42358 4.8839,-1.34851 9.05512,0.74775 11.06642,5.56147 1.9249,4.60694 0.96295,8.76768 -2.61631,11.31634 -2.84155,2.02336 -3.82913,2.19337 -7.51917,1.29441 z M 27.485774,189.92543 c -3.980183,-2.42687 -5.12894,-7.13446 -2.990107,-12.25341 1.180681,-2.82577 2.14748,-3.63554 4.830965,-4.0463 5.495398,-0.8412 9.529937,1.43915 10.953645,6.19106 1.53772,5.13245 -0.0835,8.74044 -4.816645,10.71932 -4.102555,1.71524 -4.171961,1.70993 -7.977858,-0.61067 z m 107.944866,-7.58125 c -3.69476,-1.55353 -5.24913,-4.13648 -5.24913,-8.72265 0,-6.43917 8.91062,-10.99432 14.43102,-7.37722 2.88564,1.89075 4.83137,7.81683 3.61605,11.01336 -1.80738,4.75375 -7.86416,7.161 -12.79794,5.08651 z m 94.13152,-4.3723 c -4.57357,-2.78886 -7.25895,-12.41073 -4.13065,-14.80037 3.53366,-2.69928 7.85603,-3.57485 11.80583,-2.39146 4.79895,1.4378 6.98085,4.50405 7.24514,10.18164 0.17866,3.83808 -0.14874,4.51334 -3.19885,6.59773 -4.12198,2.81688 -7.57888,2.93852 -11.72147,0.41246 z M 42.599951,172.91262 c -3.012523,-1.2187 -7.418438,-6.81383 -7.418438,-9.42078 0,-3.72963 4.954375,-7.61037 9.715825,-7.61037 3.357779,0 4.578352,0.5609 6.695281,3.07673 1.608701,1.91183 2.583096,4.27817 2.573581,6.25 -0.01776,3.67962 -0.578671,4.66918 -3.957193,6.98123 -2.699455,1.84735 -4.424846,2.01134 -7.609056,0.72319 z m 93.581559,-14.31987 c -4.49373,-2.15204 -5.71434,-4.50432 -4.95017,-9.53964 1.34689,-8.87497 10.39617,-12.01918 15.6952,-5.45337 3.12386,3.87064 2.93598,8.51218 -0.49503,12.23026 -3.21721,3.48638 -6.7504,4.43871 -10.25,2.76275 z m 73.07216,-2.34668 c -1.14016,-1.44947 -2.58794,-4.35407 -3.21729,-6.45467 -0.95654,-3.19263 -0.87443,-4.23113 0.50042,-6.32942 2.28368,-3.48533 5.30206,-4.87346 9.00001,-4.13903 9.5693,1.9005 12.57568,13.44475 4.61337,17.71499 -4.88731,2.62109 -8.41345,2.36484 -10.89651,-0.79187 z M 60.250138,156.12992 c -2.006546,-1.02243 -4.253602,-3.35638 -5.411523,-5.62078 -1.922513,-3.75962 -1.927691,-3.96974 -0.17791,-7.21889 1.915588,-3.55703 7.022318,-6.01916 10.316118,-4.97375 1.004691,0.31888 3.330801,2.13161 5.169134,4.02829 5.165363,5.3293 4.358774,10.76682 -2.091951,14.10262 -3.487825,1.80362 -3.654422,1.79684 -7.803868,-0.31749 z M 185.93004,142.99447 c -5.01826,-5.96387 -4.86003,-11.18128 0.39467,-13.01307 5.05874,-1.76349 7.80502,-1.30556 10.93372,1.82315 5.45634,5.45633 2.99502,12.72107 -4.6577,13.74752 -3.63176,0.48712 -4.33589,0.21715 -6.67069,-2.5576 z M 82.906652,142.7109 c -3.303118,-1.20546 -6.126447,-7.07943 -5.199587,-10.81782 2.706826,-10.91766 18.474448,-8.04825 18.474448,3.362 0,1.36012 -1.165002,3.85747 -2.588894,5.54966 -2.754972,3.2741 -5.564414,3.77525 -10.685967,1.90616 z m 77.347658,-6.55727 c -4.38452,-5.31919 -4.3154,-10.52242 0.1772,-13.33938 10.13184,-6.35289 21.45596,6.22638 12.94528,14.38013 -4.30834,4.12765 -9.18077,3.74121 -13.12248,-1.04075 z m -52.81143,-0.80164 c -2.25797,-1.58155 -4.24605,-7.00354 -4.25579,-11.60658 -0.004,-2.01762 0.79235,-3.0147 3.39555,-4.25 4.21924,-2.00216 5.9122,-2.02039 9.61889,-0.10359 5.33707,2.75991 6.6499,9.33572 2.91189,14.58528 -1.64641,2.31216 -2.82446,2.90437 -5.7775,2.90437 -2.04017,0 -4.69204,-0.68827 -5.89304,-1.52948 z m 28.23863,0.3345 c -4.43656,-2.57284 -6.59659,-8.93583 -4.0054,-11.79906 0.83037,-0.91754 1.21154,-1.96649 0.84705,-2.33098 -1.27899,-1.27899 2.98,-4.67498 5.863,-4.67498 5.87089,0 10.92197,4.81757 10.22259,9.75 -0.0975,0.6875 -0.23349,1.89991 -0.30224,2.69424 -0.39708,4.58779 -8.5763,8.70869 -12.625,6.36078 z"
           id="path1365"
           inkscape:connector-curvature="0" />
      </g>
    </g>
  </g>
</svg>
