<?xml version="1.0" encoding="UTF-8" standalone="no"?>
<!-- Created with Inkscape (http://www.inkscape.org/) -->

<svg
   xmlns:dc="http://purl.org/dc/elements/1.1/"
   xmlns:cc="http://creativecommons.org/ns#"
   xmlns:rdf="http://www.w3.org/1999/02/22-rdf-syntax-ns#"
   xmlns:svg="http://www.w3.org/2000/svg"
   xmlns="http://www.w3.org/2000/svg"
   xmlns:sodipodi="http://sodipodi.sourceforge.net/DTD/sodipodi-0.dtd"
   xmlns:inkscape="http://www.inkscape.org/namespaces/inkscape"
   version="1.1"
   id="svg2949"
   width="283"
   height="443"
   viewBox="0 0 283 443"
   sodipodi:docname="feu144.svg"
   inkscape:version="0.92.4 (5da689c313, 2019-01-14)">
  <metadata
     id="metadata2955">
    <rdf:RDF>
      <cc:Work
         rdf:about="">
        <dc:format>image/svg+xml</dc:format>
        <dc:type
           rdf:resource="http://purl.org/dc/dcmitype/StillImage" />
        <dc:title />
      </cc:Work>
    </rdf:RDF>
  </metadata>
  <defs
     id="defs2953" />
  <sodipodi:namedview
     pagecolor="#ffffff"
     bordercolor="#666666"
     borderopacity="1"
     objecttolerance="10"
     gridtolerance="10"
     guidetolerance="10"
     inkscape:pageopacity="0"
     inkscape:pageshadow="2"
     inkscape:window-width="1920"
     inkscape:window-height="1017"
     id="namedview2951"
     showgrid="false"
     inkscape:zoom="2.1309255"
     inkscape:cx="129.71757"
     inkscape:cy="224.72047"
     inkscape:window-x="-8"
     inkscape:window-y="-8"
     inkscape:window-maximized="1"
     inkscape:current-layer="g928"
     showguides="true" />
  <g
     id="g151"
     transform="translate(25.882805,-2.654647)">
    <g
       id="g534"
       transform="translate(-21.900834,-45.792654)">
      <g
         id="g928"
         transform="translate(-3.9819699,-1.3273232)">
        <g
           id="g1270"
           transform="translate(16.894068,-15.486229)">
          <path
             style="fill:#ff00cc"
             d="m 137.91206,409.60759 c -2.64049,-1.61003 -3.291,-2.75487 -3.83331,-6.74627 -0.35923,-2.64394 -0.7212,-5.25717 -0.80438,-5.80717 -0.39558,-2.61582 2.77608,-7.48957 5.81123,-8.92984 6.95622,-3.30094 13.92211,-1.26786 17.30345,5.05023 1.34567,2.51441 0.6906,12.08736 -0.96352,14.08045 -3.68036,4.43455 -12.21809,5.58144 -17.51347,2.3526 z m 29.68015,-4.75715 c -0.825,-0.30019 -2.7375,-1.69886 -4.25,-3.10814 -2.25766,-2.10359 -2.75,-3.41646 -2.75,-7.33313 0,-4.19283 0.48119,-5.27664 3.97189,-8.94613 3.80859,-4.00366 4.16787,-4.15324 8.73818,-3.6381 6.23762,0.70307 9.75642,4.64973 10.73713,12.0427 0.66469,5.01073 0.5733,5.27961 -2.86562,8.43115 -2.8982,2.656 -4.3374,3.24082 -7.81689,3.17641 -2.34558,-0.0434 -4.93969,-0.32456 -5.76469,-0.62476 z m 21.5977,-16.49859 c -6.02878,-6.02878 -5.82389,-13.61483 0.50361,-18.64655 9.14783,-7.27449 21.00509,0.34056 19.623,12.60243 -0.71816,6.37149 -3.24083,8.51149 -10.66664,9.04863 -5.774,0.41765 -6.16059,0.29487 -9.45997,-3.00451 z m 23.75125,-16.91513 c -1.18307,-0.60494 -2.98307,-2.73849 -4,-4.74123 -1.01692,-2.00274 -2.29895,-3.97195 -2.84895,-4.37603 -0.61072,-0.44869 -0.49043,-0.74065 0.30902,-0.75 0.71996,-0.008 1.03398,-0.46033 0.69782,-1.00424 -0.91231,-1.47616 2.39022,-7.78494 5.25487,-10.03827 3.21309,-2.52742 8.80446,-2.53472 12.93382,-0.0169 5.84612,3.56461 6.94123,14.21835 1.94409,18.91292 -2.7169,2.5524 -10.96437,3.71457 -14.29067,2.01374 z m 17.96487,-20.8328 c -7.93322,-4.83723 -7.7364,-17.30395 0.32638,-20.6728 4.26974,-1.78401 6.79773,-1.73752 10.88092,0.20008 6.74689,3.2016 8.48396,15.914 2.78689,20.39531 -3.33183,2.62081 -9.76456,2.6564 -13.99419,0.0774 z m 9.57945,-25.54668 c -3.80202,-2.0665 -6.19858,-6.32072 -6.30229,-11.1874 -0.13509,-6.33918 3.4102,-9.54349 11.18092,-10.10557 5.48155,-0.3965 6.06113,-0.22324 8.96411,2.67974 3.77213,3.77212 4.74317,7.61688 3.28832,13.01978 -0.77695,2.88536 -1.94942,4.51738 -4.01142,5.58368 -3.62564,1.87489 -9.67984,1.8794 -13.11964,0.01 z m 6.60673,-26.85112 c -6.61474,-3.03995 -8.55847,-8.66278 -5.33367,-15.42925 2.60018,-5.45585 6.57266,-7.63891 12.32949,-6.77562 4.60974,0.69127 7.70913,3.30644 9.49081,8.00803 1.52768,4.03134 0.36922,9.86194 -2.49384,12.55164 -2.92631,2.74913 -9.82563,3.56031 -13.99279,1.6452 z m -0.54282,-27.74519 c -3.11715,-1.14658 -5.95718,-5.7229 -5.95718,-9.59918 0,-4.83846 4.06128,-11.6103 7.5,-12.50562 8.10866,-2.11118 14.55308,2.79295 15.28613,11.63258 0.41941,5.05748 0.22031,5.71285 -2.58897,8.52212 -2.49399,2.494 -3.82433,3.02907 -7.37024,2.96437 -2.3798,-0.0434 -5.47119,-0.49984 -6.86974,-1.01427 z m -2.7694,-27.96096 c -7.32502,-2.93798 -9.63937,-13.10988 -4.28657,-18.84006 2.56658,-2.74754 3.53673,-3.10576 8.41111,-3.10576 4.88014,0 5.79507,0.33892 8.00503,2.9653 5.65607,6.72187 4.09136,15.45365 -3.29917,18.41075 -4.56135,1.82509 -5.54275,1.88841 -8.8304,0.56977 z m -9.00098,-27.4421 c -1.63167,-1.37295 -3.69929,-4.3273 -4.59473,-6.56523 -1.51247,-3.78003 -1.50827,-4.27178 0.0592,-6.92536 2.27529,-3.85176 5.70919,-5.51313 11.39509,-5.51313 5.70781,0 8.50997,2.13875 9.98652,7.62224 2.80765,10.42682 -8.7227,18.2169 -16.84612,11.38148 z m -19.42423,-20.06911 c -5.55404,-3.01359 -7.31515,-10.44547 -3.68373,-15.54533 3.10293,-4.35767 6.94721,-5.98451 12.38146,-5.23967 11.95699,1.63889 13.30428,18.09975 1.74421,21.31037 -4.92311,1.36731 -7.16127,1.2547 -10.44194,-0.52537 z m -20.77804,-19.81369 c -3.4286,-1.8189 -4.81537,-3.30559 -5.88962,-6.31401 -1.84457,-5.16572 -0.83373,-8.87396 3.54463,-13.00328 6.21467,-5.86119 14.38808,-4.09014 18.52224,4.01348 2.17228,4.25803 2.04584,9.52287 -0.29649,12.34521 -1.45842,1.75728 -8.22718,5.33768 -10.09092,5.33768 -0.71792,0 -3.32334,-1.07058 -5.78984,-2.37908 z m -26.75429,-15.1722 c -2.88366,-2.0198 -4.15617,-4.49872 -4.84786,-9.44385 -0.50391,-3.60264 -0.20541,-4.38184 2.84849,-7.43574 6.09333,-6.09333 15.26588,-5.92354 19.50102,0.36099 4.21936,6.2611 2.19236,13.9501 -4.40417,16.70631 -4.34205,1.81422 -10.3625,1.72794 -13.09748,-0.18771 z m -27.11951,-11.009 c -3.78692,-3.18648 -4.80454,-7.84344 -2.77522,-12.70028 1.90914,-4.56922 5.40686,-6.84744 10.62329,-6.91944 9.44796,-0.13039 14.80294,12.5721 8.11812,19.25692 -4.01291,4.01292 -11.42803,4.18141 -15.96619,0.3628 z"
             id="path1276"
             inkscape:connector-curvature="0"
             sodipodi:nodetypes="sscsssscssssccccssscsccsccccscccssscccssccsccsssccscscscccscscsscccssccsscssscsccsscsscccssccs" />
          <path
             style="fill:#00ff00"
             d="m 118.17194,413.30415 c -1.34277,-6.59114 -1.27196,-9.20584 0.53483,-19.75 1.08382,-6.325 2.38606,-13.975 2.89386,-17 0.5078,-3.025 1.86432,-13.825 3.01449,-24 1.15017,-10.175 2.47495,-19.85 2.94396,-21.5 1.23939,-4.3602 1.23096,23.03013 -0.0161,52.37325 -0.89256,21.00163 -1.30945,24.90953 -3.01363,28.25 -2.26828,4.44621 -5.60886,5.30101 -6.35739,1.62675 z m -14.56067,-1.71438 c -2.4075,-4.49847 -0.48507,-14.10701 10.01091,-50.03562 1.52641,-5.225 3.97912,-14.225 5.45048,-20 3.94306,-15.47626 5.64906,-21.20382 6.16274,-20.69015 0.25198,0.25199 -0.27083,5.72956 -1.16181,12.17239 -0.89098,6.44282 -1.36894,12.36839 -1.06213,13.16793 0.30681,0.79954 0.21018,1.23884 -0.21473,0.97623 -0.42491,-0.26261 -2.0255,7.47652 -3.55686,17.19806 -3.27351,20.78122 -7.35592,41.44114 -8.82661,44.66895 -0.57288,1.25733 -2.10839,2.77211 -3.41226,3.36619 -1.97482,0.89979 -2.54083,0.76221 -3.38973,-0.82398 z m -14.897199,-6.31376 c -2.3235,-2.3235 -0.48735,-11.41255 4.57142,-22.62883 4.43467,-9.83254 5.08779,-11.33119 11.371429,-26.09303 3.3947,-7.975 7.74227,-18.55 9.66128,-23.5 4.16705,-10.74878 6.02707,-14.5 7.18974,-14.5 1.54257,0 -22.600889,74.54221 -26.825679,82.82349 -2.1953,4.30314 -4.23264,5.63392 -5.96819,3.89837 z m -16.829052,-7.97186 c 0.304972,-1.7875 3.207229,-7.975 6.449462,-13.75 3.242232,-5.775 7.16176,-12.75 8.71006,-15.5 1.54829,-2.75 4.17527,-7.475 5.83771,-10.5 4.78642,-8.70941 4.82656,-8.78118 13.141759,-23.5 10.04319,-17.77753 14.5682,-25.20839 14.5682,-23.92353 0,2.46377 -10.39512,24.52754 -37.655141,79.92353 -3.250899,6.60626 -6.747009,10.5 -9.427734,10.5 -1.905219,0 -2.109182,-0.4081 -1.624316,-3.25 z m -16.042808,-4.41228 c -0.6875,-0.27741 -1.25,-1.34571 -1.25,-2.374 0,-4.63433 2.834561,-8.75048 25.454892,-36.96372 14.222738,-17.73933 19.543408,-24.4821 26.434617,-33.5 2.10146,-2.75 5.23601,-6.51009 6.96567,-8.35576 1.72965,-1.84566 3.14482,-3.70306 3.14482,-4.12755 0,-0.42449 0.73961,-1.38562 1.64358,-2.13585 1.80135,-1.49499 -0.85078,3.8075 -4.94405,9.88482 -1.20974,1.79611 -5.29754,8.09611 -9.084,14 -3.78646,5.90389 -9.861459,15.12916 -13.499999,20.50061 -3.63854,5.37144 -7.06553,10.51423 -7.61553,11.42842 -7.330337,12.18414 -19.293739,28.81839 -21.845199,30.37416 -3.335787,2.03403 -3.444992,2.05967 -5.404801,1.26887 z M 40.584165,382.04446 c -0.966621,-1.16471 -0.975474,-2.11588 -0.0407,-4.37263 1.741491,-4.20433 76.195935,-78.11768 78.689555,-78.11768 0.55377,0 0.38483,0.19073 -27.140809,30.64077 -9.9,10.9518 -23.943499,26.65466 -31.207775,34.89525 -14.26223,16.17905 -18.208419,19.47481 -20.300271,16.95429 z M 28.269876,370.89848 c -0.372716,-0.37271 -0.677665,-1.69712 -0.677665,-2.94312 0,-2.41872 6.19852,-7.97369 30,-26.88531 6.875,-5.46257 12.725,-10.2117 13,-10.55362 0.817544,-1.01649 30.110439,-23.14793 36.033609,-27.2242 3.00651,-2.06906 7.71639,-5.37671 10.46639,-7.35033 l 5,-3.5884 -5,4.75082 c -2.75,2.61296 -10.85,9.95764 -17.999999,16.32151 -7.15,6.36388 -18.175,16.31816 -24.5,22.12062 -11.076145,10.16111 -26.404315,23.37657 -31.872312,27.4793 -1.445228,1.08438 -3.235599,2.80028 -3.978602,3.81312 -0.743002,1.01283 -2.318002,2.20302 -3.5,2.64487 -4.590949,1.71614 -6.31928,2.06688 -6.971421,1.41474 z M 13.592211,358.98841 c 0,-1.02852 2.243685,-4.7802 3.885265,-6.49657 1.989341,-2.07997 13.821104,-9.91628 24.922094,-16.50618 4.569048,-2.71233 12.219048,-7.27698 17,-10.14367 4.780953,-2.86669 9.367641,-5.5342 10.192641,-5.92779 0.825,-0.3936 7.35,-4.156 14.5,-8.36088 22.140549,-13.02076 31.036529,-17.99917 32.162919,-17.99917 0.87117,0 -9.80483,7.68322 -25.662919,18.46891 -22.347019,15.19904 -44.381708,30.34453 -54.929425,37.75559 -5.263816,3.69847 -11.088031,7.41097 -12.942699,8.25 -3.279151,1.48344 -9.127876,2.09841 -9.127876,0.95976 z M 2.607524,344.30415 c 0.031715,-2.58899 1.880055,-3.73457 16.984687,-10.52698 28.091183,-12.63234 48.316248,-21.90286 61.319205,-28.10678 7.050565,-3.36393 13.003195,-6.11624 13.228065,-6.11624 0.22487,0 3.90623,-1.6283 8.180799,-3.61844 10.32675,-4.80792 10.11528,-4.73109 7.37121,-2.67787 -1.3204,0.98797 -14.820399,8.12606 -30,15.86242 -29.049136,14.80503 -40.617225,20.95107 -43.099279,22.89832 -0.825,0.64724 -4.875,2.89664 -9,4.99867 -4.125,2.10203 -7.95,4.14398 -8.5,4.53766 -1.929019,1.38078 -10.884651,3.99924 -13.678139,3.99924 -1.598989,0 -2.815225,-0.5417 -2.806548,-1.25 z M -4.91332,333.5452 c -1.2455312,-2.01531 0.737191,-5.06859 4.556804,-7.01721 4.13836,-2.11123 114.122716,-39.13318 114.660056,-38.59584 0.17329,0.17329 -4.97837,2.45276 -11.44813,5.0655 -13.686279,5.52704 -13.660099,5.51657 -43.763199,17.50594 -12.65,5.03821 -27.725,11.12794 -33.5,13.53274 -25.56633,10.64619 -29.118341,11.75339 -30.505531,9.50887 z m -1.494469,-13.794 c -7.644583,-1.1204 -3.5005591,-5.35701 8.911121,-9.11021 5.273884,-1.59478 20.388879,-5.45999 33.588879,-8.58937 45.549392,-10.79856 69.543759,-16.78704 69.087919,-17.24288 -0.69731,-0.69732 -11.501279,1.23598 -54.587919,9.76815 -54.263516,10.74545 -56.8908819,11.14264 -59.4821378,8.99208 -4.1272462,-3.42531 0.5190611,-6.3267 11.9821378,-7.48227 8.0715,-0.81367 28.232506,-3.61762 47,-6.53666 7.15,-1.11209 18.175,-2.68675 24.5,-3.49925 6.325,-0.8125 12.625,-1.69919 14,-1.97041 1.375,-0.27123 4.975,-0.75083 8,-1.06577 3.025,-0.31495 8.424999,-0.98848 11.999999,-1.49674 3.575,-0.50826 7.4,-0.91933 8.5,-0.9135 3.43002,0.0182 -0.42382,1.61779 -5.75,2.38664 -2.6125,0.37713 -4.75,1.06752 -4.75,1.53421 0,0.46669 2.5875,0.23015 5.75,-0.52565 6.53614,-1.56205 9.84491,-1.78182 6.75,-0.44833 -2.38277,1.02666 -24.145549,7.6864 -37.499999,11.47557 -5.225,1.48253 -15.125,4.44501 -22,6.58329 -6.875,2.13828 -16.325,4.98582 -21,6.32787 -4.675,1.34204 -9.84437,2.95919 -11.487488,3.59367 -2.999666,1.1583 -25.269434,7.44339 -29.012512,8.18807 -1.1,0.21885 -3.125,0.23302 -4.5,0.0315 z m 128.015309,-3.38803 c 0.008,-0.71996 0.45153,-1.98402 0.98469,-2.80902 0.78809,-1.21948 0.97224,-1.09025 0.98469,0.69098 0.008,1.20504 -0.43469,2.4691 -0.98469,2.80902 -0.55,0.33992 -0.99311,0.029 -0.98469,-0.69098 z m -7.28198,-25.93311 c 0.67834,-0.68342 1.48524,-0.99067 1.79313,-0.68278 0.30789,0.30789 -0.24711,0.86705 -1.23333,1.24258 -1.4252,0.54268 -1.54006,0.42782 -0.5598,-0.5598 z m -124.381002,-2.80348 c -5.506155,-2.39015 -2.259543,-5.7975 6.794175,-7.13056 3.494424,-0.51451 32.903498,-1.1402 65.353498,-1.39041 58.280499,-0.4494 63.927479,0.002 30,2.39871 -8.25,0.58277 -19.95,1.49292 -26,2.02257 -6.05,0.52964 -14.375,1.22138 -18.5,1.53719 -4.125,0.31582 -12.45,0.98181 -18.5,1.47997 -18.930764,1.55879 -36.9054786,2.05584 -39.147673,1.08253 z m 92.351273,-11.70216 c -0.114631,-0.11463 -15.282335,-0.50232 -33.70601,-0.86154 -34.754507,-0.67762 -56.2337703,-1.76674 -59.24759,-3.00418 -2.107246,-0.86521 -2.290144,-3.81138 -0.337226,-5.43216 2.2585231,-1.87441 24.333585,-0.97845 59.587226,2.41846 8.525,0.82143 20.675,1.98127 27,2.57741 13.07096,1.23196 37.010969,3.71849 41.499999,4.31041 1.65,0.21756 -5.4573,0.35157 -15.79399,0.29779 -10.336699,-0.0538 -18.887779,-0.19156 -19.002409,-0.30619 z m 30.296399,-2.37258 c -6.14793,-0.82725 -14.001409,-1.76834 -21.499999,-2.57635 -8.513551,-0.91738 -12.744117,-1.44007 -20,-2.471 -8.585595,-1.21987 -11.556786,-1.59487 -23.003256,-2.90333 -49.626778,-5.67291 -57.3558872,-6.99056 -59.304094,-10.11014 -1.066075,-1.70705 -0.906388,-2.11018 1.2195972,-3.07884 1.8613447,-0.84809 5.0336778,-0.72436 13.2670198,0.51742 23.799094,3.58948 54.181092,8.77914 79.820733,13.63449 14.85,2.81213 29.635039,5.50785 32.855649,5.99049 3.2206,0.48264 6.1081,1.12999 6.41666,1.43855 0.68346,0.68346 -2.47275,0.54093 -9.77231,-0.44129 z m -15.499999,-6.00011 c -10.45,-2.13363 -21.025,-4.33876 -23.5,-4.9003 -2.475,-0.56154 -16.425,-3.49374 -31,-6.51601 -28.995213,-6.01244 -46.222901,-9.95512 -50.3415263,-11.52102 -4.9395667,-1.87802 -2.4489157,-7.06025 3.3932533,-7.06025 1.200765,0 10.792848,2.43002 21.315741,5.40005 10.522893,2.97003 24.532532,6.75599 31.132532,8.41325 34.416186,8.6419 54.292979,13.77582 68.499999,17.69269 7.9547,2.1931 8.21131,2.34432 4,2.35718 -2.475,0.008 -13.05,-1.73195 -23.499999,-3.86559 z m 17.749999,-0.78347 c -6.3969,-1.59859 -8.86405,-3.86721 -3,-2.7586 2.73178,0.51644 2.45275,0.22709 -1.75,-1.8147 -2.75,-1.33601 -7.475,-3.22222 -10.499999,-4.19158 -5.41361,-1.7348 -12.85766,-4.67329 -60.5,-23.882 C 6.108209,220.82271 3.867206,219.73517 1.476397,215.86676 c -1.113619,-1.80187 -1.741575,-3.73434 -1.395457,-4.29437 1.799533,-2.91171 8.147635,-0.65076 34.704426,12.36036 39.37321,19.29034 50.393735,24.48541 72.306844,34.08537 12.85847,5.63319 16.26945,7.53603 13.50887,7.53603 -0.93843,0 -0.75945,0.47778 0.55,1.4682 2.34827,1.77614 1.71289,1.75055 -6.30887,-0.25409 z m 3.47917,-1.81828 c -0.3323,-0.33229 -1.1948,-0.36781 -1.91667,-0.0789 -0.79773,0.31922 -0.56078,0.55618 0.60417,0.60416 1.05416,0.0434 1.64479,-0.19293 1.3125,-0.52522 z m -90.749225,-41.92 c -0.69572,-0.83829 -1.525288,-1.26382 -1.843484,-0.94562 -0.318197,0.31819 0.08343,0.99718 0.8925,1.50885 2.116971,1.33881 2.393577,1.17499 0.950984,-0.56323 z m 76.914195,41.08498 c -0.24156,-0.24156 -1.55406,-0.6565 -2.91667,-0.92209 -6.705199,-1.30694 -17.096487,-4.00265 -22.477469,-5.8311 -3.3,-1.12134 -9.6,-3.05406 -14,-4.29492 -4.4,-1.24087 -16.1,-4.83223 -26,-7.98081 -9.9,-3.14857 -23.164556,-7.29832 -29.47679,-9.22168 -12.280873,-3.74201 -17.02321,-6.33249 -17.02321,-9.29885 0,-2.83434 5.039603,-3.48607 11.251652,-1.45508 6.031381,1.97193 23.698316,8.87694 28.484095,11.13283 1.779662,0.83889 11.679662,4.4254 22,7.97003 10.320339,3.54463 23.939253,8.27473 30.264253,10.51135 6.325,2.23661 14.08915,4.95352 17.253669,6.03758 3.16452,1.08407 5.50047,2.38073 5.19099,2.88148 -0.59908,0.96932 -1.8258,1.19598 -2.55052,0.47126 z m 17.10586,-1.18689 c -0.825,-0.25751 -3.3,-1.32005 -5.5,-2.3612 -5.76738,-2.72943 -15.79001,-7.33862 -24.999999,-11.49695 -14.224236,-6.42228 -58.595629,-30.83863 -57.3931,-31.58184 0.63394,-0.39179 0.956202,-2.05063 0.716137,-3.6863 -0.432479,-2.94666 -0.293766,-2.88685 15.12024,6.51986 8.556198,5.2216 19.606723,12.0706 24.556723,15.22001 4.95,3.14941 13.725,8.20657 19.5,11.23814 22.456719,11.78859 28.534569,15.07148 29.449999,15.90714 1.02304,0.93389 0.85761,0.9614 -1.45,0.24114 z m -1.75,-3.63297 c -2.3375,-1.17424 -4.25,-2.49632 -4.25,-2.93796 0,-1.1334 1.65191,-0.99685 4.26357,0.35244 1.23004,0.63548 2.88465,1.45513 3.67691,1.82144 1.60601,0.74255 2.69518,3.05804 1.39285,2.9611 -0.45833,-0.0341 -2.74583,-1.02278 -5.08333,-2.19702 z m -8.25,-5.24095 c -0.68469,-0.825 -1.74154,-1.5 -2.34855,-1.5 -2.42701,0 -49.791925,-28.90017 -70.651449,-43.10867 -19.464559,-13.25832 -24,-17.11631 -24,-20.41514 0,-3.33734 3.610393,-3.85873 7.39109,-1.06738 31.956323,23.59388 41.805535,30.67187 66.13348,47.52578 22.510969,15.59516 26.475429,18.50902 26.475429,19.45933 0,1.13321 -1.75053,0.6116 -3,-0.89392 z m 2,-6.19789 C 92.462751,228.96759 79.637893,216.52348 52.528606,188.60552 38.420099,174.07615 33.512601,166.55415 38.141871,166.55415 c 3.152476,0 7.12835,3.03415 13.95034,10.64607 3.85,4.2958 11.282051,12.54531 16.51567,18.33224 5.233618,5.78693 14.549663,16.14669 20.70232,23.02169 6.15266,6.875 15.074599,16.325 19.826529,21 9.03004,8.88385 15.21247,16.03507 13.78951,15.95034 -0.45872,-0.0273 -4.65903,-3.46902 -9.33403,-7.64823 z m 6.45454,1.40828 c -14.11652,-14.881 -28.445779,-31.29334 -41.957706,-48.05719 -8.798258,-10.91574 -19.708197,-24.41574 -24.244309,-30 -8.077434,-9.94387 -9.925894,-14.07384 -6.830665,-15.26159 3.17008,-1.21647 7.732997,3.58315 22.078141,23.22347 14.774868,20.22867 38.837089,51.38492 39.684999,51.38492 1.16118,0 0.83101,-0.54328 -6.68505,-11 -3.360279,-4.675 -8.136349,-11.425 -10.613479,-15 -2.47713,-3.575 -6.997411,-10.1 -10.045064,-14.5 -20.516458,-29.6203 -24.946329,-36.78901 -24.644373,-39.88114 0.358584,-3.67201 2.94912,-4.61556 5.545023,-2.01966 1.846634,1.84663 2.478892,2.81229 5.902625,9.0152 1.179575,2.13708 12.605638,20.5356 25.391249,40.8856 29.882729,47.56233 30.472839,48.56753 29.034069,49.45674 -0.84273,0.52084 -0.73696,1.07477 0.38267,2.00398 1.6219,1.34605 2.07944,3.06739 0.79733,2.99967 -0.4125,-0.0218 -2.12046,-1.48429 -3.79546,-3.25 z m 0.65033,-4.46039 c -0.53102,-0.9625 -2.38231,-3.325 -4.11398,-5.25 l -3.14848,-3.5 2.24568,3.5 c 2.44043,3.80353 4.99856,7 5.60208,7 0.20911,0 -0.0543,-0.7875 -0.5853,-1.75 z m -21.767169,-4 c -29.293767,-22.2452 -64.885522,-49.88533 -68.937058,-53.53569 -4.430026,-3.99137 -6.402849,-8.47688 -4.299937,-9.77655 2.068181,-1.27821 6.97205,-0.12118 10.261183,2.42103 1.725961,1.33402 8.097126,7.08653 14.158144,12.78335 6.061017,5.69682 21.336923,19.58286 33.946457,30.85786 30.07347,26.89064 31.20605,27.94569 30.03047,27.975 -0.55167,0.0138 -7.37334,-4.8125 -15.159259,-10.725 z m 23.700949,-5.5 c -1.33471,-3.4375 -3.23942,-7.81834 -4.23269,-9.73519 -0.99328,-1.91686 -1.80596,-3.80212 -1.80596,-4.18949 0,-0.38736 -3.64521,-8.49402 -8.10046,-18.01481 -4.45526,-9.52078 -9.163939,-20.08992 -10.463729,-23.48697 -1.2998,-3.39705 -4.90856,-12.17205 -8.01948,-19.5 -6.25224,-14.72751 -7.598698,-19.22265 -6.761597,-22.57354 0.672246,-2.69098 3.419307,-2.93596 5.606797,-0.5 0.86432,0.9625 3.0239,6.025 4.79906,11.25 1.77517,5.225 4.77016,13.55 6.655539,18.5 4.03461,10.5927 6.46784,17.3951 12.51953,35 2.45781,7.15 6.30118,17.95 8.54082,24 5.00507,13.5203 5.58283,15.5 4.5236,15.5 -0.45908,0 -1.92673,-2.8125 -3.26143,-6.25 z m -7.10446,-6 c -3.43671,-6.1875 -7.6955,-13.725 -9.46398,-16.75 -1.76847,-3.025 -6.370189,-11.35 -10.226029,-18.5 -3.85585,-7.15 -8.80943,-16.15 -11.00796,-20 -13.039649,-22.83459 -15.23622,-27.18713 -15.23622,-30.19086 0,-1.75511 0.469789,-3.48145 1.043976,-3.83632 2.462394,-1.52184 6.243488,3.01555 11.114464,13.33759 2.774435,5.87927 7.08016,14.96459 9.56828,20.18959 2.48813,5.225 8.499,17.90885 13.357499,28.18633 4.85851,10.27748 11.10623,23.21498 13.88383,28.75 2.7776,5.53502 4.6372,10.06367 4.13245,10.06367 -0.50476,0 -3.7296,-5.0625 -7.16631,-11.25 z m 10.75652,-10 c -2.40908,-14.87428 -5.50937,-31.87932 -11.16685,-61.25 -4.91208,-25.50094 -5.32343,-29.59153 -3.15654,-31.38989 3.08052,-2.5566 4.93008,3.32715 7.66698,24.38989 1.14348,8.8 2.71227,20.275 3.48621,25.5 0.77393,5.225 2.33168,17.6 3.46167,27.5 1.12998,9.9 2.48721,20.925 3.01606,24.5 1.17817,7.96436 1.17926,8 0.24404,8 -0.41674,0 -2.01495,-7.7625 -3.55157,-17.25 z m 0.0474,15.56653 c -0.62619,-1.10628 -2.94735,-9.0057 -7.73281,-26.31653 -2.20464,-7.975 -4.8939,-17.425 -5.97614,-21 -1.08225,-3.575 -2.90225,-9.875 -4.04445,-14 -1.14221,-4.125 -2.50602,-8.9625 -3.03071,-10.75 -8.302849,-28.28626 -8.753909,-30.43653 -6.974819,-33.25 1.947919,-3.08046 4.242139,1.78022 8.093969,17.14845 4.89452,19.52834 13.08066,53.5305 15.854,65.85155 1.17609,5.225 2.8177,12.36842 3.64801,15.87428 1.35117,5.70512 1.42627,8.67411 0.16295,6.44225 z m 3.46094,-27.09004 c -4.12154,-44.40207 -5.98675,-74.10686 -4.91338,-78.24911 0.85095,-3.28392 3.21695,-4.87476 4.83845,-3.25326 0.54433,0.54433 1.19193,7.46659 1.4391,15.38279 0.5616,17.98637 0.71315,77.95005 0.19831,78.46489 -0.20964,0.20964 -0.91276,-5.34575 -1.56248,-12.34531 z m -103.449049,7.01528 c -1.5125,-0.93775 -2.756891,-2.38828 -2.765313,-3.22339 -0.01127,-1.11764 -0.222228,-1.19262 -0.799308,-0.28409 -1.086193,1.71006 -12.60452,-5.16403 -14.080331,-8.40308 -1.719104,-3.77302 -1.377822,-4.33121 2.648149,-4.33121 4.208817,0 13.216405,5.5912 12.494863,7.75582 -0.254847,0.76454 0.161498,1.02425 1.078123,0.67251 1.418663,-0.5444 7.673817,2.02846 7.673817,3.15637 0,0.29333 -0.384197,0.29589 -0.853772,0.006 -1.065768,-0.65868 -3.379766,4.22274 -2.599915,5.48457 0.778956,1.26037 0.396604,1.14645 -2.796313,-0.83317 z"
             id="path1274"
             inkscape:connector-curvature="0"
             sodipodi:nodetypes="cssscscccscscssssccsssscsssssccssssscsscsssssscccccsssccssscsccscscccscsscsssscsssssccscscssssssssscsscscsssccsccsccsscsccccccsccsccccsccccccsssssccccscsccsssscsssssssscsscscsscssscscccccccscscccscsccscccsccscssssccsscccsssssssssssssssscssssssscsssssscccscccsscssccsscsccsccsscccssscscccscscsssssscscsssscscccsssscsssssscccssscscccc" />
        </g>
      </g>
    </g>
  </g>
</svg>
