<?xml version="1.0" encoding="UTF-8" standalone="no"?>
<!-- Created with Inkscape (http://www.inkscape.org/) -->

<svg
   xmlns:dc="http://purl.org/dc/elements/1.1/"
   xmlns:cc="http://creativecommons.org/ns#"
   xmlns:rdf="http://www.w3.org/1999/02/22-rdf-syntax-ns#"
   xmlns:svg="http://www.w3.org/2000/svg"
   xmlns="http://www.w3.org/2000/svg"
   xmlns:sodipodi="http://sodipodi.sourceforge.net/DTD/sodipodi-0.dtd"
   xmlns:inkscape="http://www.inkscape.org/namespaces/inkscape"
   version="1.1"
   id="svg2949"
   width="283"
   height="443"
   viewBox="0 0 283 443"
   sodipodi:docname="feu76.svg"
   inkscape:version="0.92.4 (5da689c313, 2019-01-14)">
  <metadata
     id="metadata2955">
    <rdf:RDF>
      <cc:Work
         rdf:about="">
        <dc:format>image/svg+xml</dc:format>
        <dc:type
           rdf:resource="http://purl.org/dc/dcmitype/StillImage" />
        <dc:title></dc:title>
      </cc:Work>
    </rdf:RDF>
  </metadata>
  <defs
     id="defs2953" />
  <sodipodi:namedview
     pagecolor="#ffffff"
     bordercolor="#666666"
     borderopacity="1"
     objecttolerance="10"
     gridtolerance="10"
     guidetolerance="10"
     inkscape:pageopacity="0"
     inkscape:pageshadow="2"
     inkscape:window-width="1280"
     inkscape:window-height="972"
     id="namedview2951"
     showgrid="false"
     inkscape:zoom="1.5067919"
     inkscape:cx="112.64858"
     inkscape:cy="221.5"
     inkscape:window-x="-8"
     inkscape:window-y="-8"
     inkscape:window-maximized="1"
     inkscape:current-layer="svg2949"
     showguides="false" />
  <path
     style="fill:#0000ff"
     d="m 131.55017,347.47712 c -1.48221,-1.63782 -1.71132,-3.00542 -1.21109,-7.22913 0.95078,-8.02779 4.89561,-24.8215 5.83057,-24.8215 1.0715,0 1.11533,0.852 0.87452,17 -0.16806,11.27005 -0.48746,13.7949 -1.93364,15.28529 -1.66169,1.7125 -1.80686,1.70294 -3.56036,-0.23466 z m 23.09049,-0.90001 c -1.87849,-2.07571 -2.20283,-6.07567 -1.86365,-22.98395 0.16505,-8.22828 0.55298,-11.22479 1.4159,-10.93715 1.56039,0.52013 3.55206,9.50264 3.07136,13.85202 -0.20779,1.88015 0.26487,6.43736 1.05037,10.12713 2.1666,10.1774 0.53494,14.59276 -3.67398,9.94195 z m -46.56905,-4.02495 c -1.79871,-3.36092 -1.24639,-5.85968 3.68274,-16.66101 3.38534,-7.41839 5.25616,-10.41683 6.51182,-10.43673 2.00936,-0.0319 1.97184,0.38484 -1.61838,17.97207 -2.04556,10.02054 -2.26594,10.51415 -4.82618,10.80993 -1.86608,0.21559 -3.00763,-0.29713 -3.75,-1.68426 z m 69.42393,-0.49877 c -3.08246,-4.70442 -6.08452,-29.6269 -3.56874,-29.6269 0.98924,0 3.104,5.63659 3.51314,9.36378 0.13695,1.24762 1.47677,5.48141 2.97736,9.40843 2.95918,7.74407 3.10578,12.51761 0.40018,13.03041 -0.94268,0.17866 -2.40821,-0.78119 -3.32194,-2.17572 z m -92.741196,-5.707 c -3.029127,-1.7643 -1.879118,-8.11949 2.156977,-11.9199 0.876163,-0.825 3.618023,-4.52679 6.093023,-8.2262 7.279926,-10.88139 7.962376,-8.92747 2,5.7262 -2.2,5.40691 -4,10.6405 -4,11.63019 0,0.98969 -0.870416,2.26528 -1.934259,2.83463 -2.302034,1.23201 -2.120142,1.2339 -4.315741,-0.0449 z M 203.23001,333.872 c -2.91691,-2.04309 -4.70386,-5.61641 -8.88276,-17.76262 -3.65947,-10.63644 -3.78942,-15.21413 -0.30309,-10.67636 1.05364,1.37141 1.92809,3.39347 1.94322,4.49347 0.0151,1.1 0.81263,3.16464 1.77223,4.5881 0.95961,1.42345 3.67739,5.46189 6.03952,8.97431 5.61972,8.35638 5.28392,14.48272 -0.56912,10.3831 z m -79.82633,-9.9906 c -0.37788,-1.50559 0.18647,-5.07939 1.38173,-8.75 1.11128,-3.4127 2.29873,-7.44241 2.63878,-8.95491 0.34208,-1.52155 1.29674,-2.75 2.1371,-2.75 1.2751,0 1.46066,1.48436 1.15633,9.25 -0.19937,5.0875 -0.90725,10.2625 -1.57306,11.5 -1.6648,3.09423 -4.93237,2.92627 -5.74088,-0.29509 z m 19.39383,-0.01 c -0.85993,-1.88734 -0.89631,-5.02334 -0.13927,-12.00595 0.97801,-9.02084 1.66897,-11.44991 2.90528,-10.2136 0.97557,0.97558 3.23081,19.422 2.70853,22.15412 -0.65944,3.44966 -3.91485,3.48857 -5.47454,0.0654 z m 20.37602,-1.19491 c -0.88608,-1.72069 -1.50068,-5.73063 -2.74047,-17.88016 -0.75777,-7.42591 0.70277,-9.01224 2.85387,-3.09966 4.64381,12.76416 5.89196,19.02035 4.30649,21.58571 -1.05333,1.70432 -3.39556,1.38325 -4.41989,-0.60589 z M 62.671011,321.75982 c -0.366667,-0.36666 -0.666667,-2.15369 -0.666667,-3.97117 0,-2.91242 0.949216,-4.08981 8,-9.92307 4.4,-3.64021 8,-7.01235 8,-7.49364 0,-1.07285 3.97883,-3.29995 4.666667,-2.61212 0.648243,0.64825 -0.932885,3.62643 -6.459334,12.16667 -7.125563,11.01142 -10.987549,14.38645 -13.540666,11.83333 z m 159.333339,-0.62604 c -5.15181,-4.22139 -17.7603,-27.29249 -15.93357,-29.15534 1.19796,-1.22164 8.16219,5.4099 7.49826,7.14006 -0.26484,0.69017 2.83154,4.25551 6.88086,7.92296 8.22337,7.44788 10.12607,10.44844 8.52387,13.44218 -1.16733,2.18116 -4.69891,2.5106 -6.96942,0.65014 z m -119.33334,-1.37396 c -1.32701,-1.32701 -0.62123,-6.50344 1.44842,-10.62317 4.35208,-8.66302 9.07859,-15.71016 10.53678,-15.71016 1.12195,0 1.35467,0.70271 0.91073,2.75 -0.32798,1.5125 -0.7692,3.65 -0.9805,4.75 -0.85923,4.47312 -3.69735,15.14457 -4.58771,17.25 -0.67058,1.5857 -1.79436,2.25 -3.80627,2.25 -1.57013,0 -3.15478,-0.3 -3.52145,-0.66667 z m 79.9693,-1.84023 c -2.00193,-2.00192 -9.27036,-26.19204 -8.19352,-27.26888 1.0228,-1.02279 2.62327,1.36563 7.04489,10.51326 5.39725,11.16604 6.41024,15.27272 4.21642,17.09343 -1.20186,0.99745 -1.7982,0.93178 -3.06779,-0.33781 z m -96.635966,-6.4931 c -1.1,-1.1 -2,-2.87126 -2,-3.93614 0,-2.22744 18.020586,-24.58335 19.511616,-24.20564 1.6544,0.4191 0.80063,4.55619 -2.32457,11.26402 -1.634271,3.50777 -3.631924,7.95276 -4.439225,9.87776 -1.476408,3.52048 -6.276583,9 -7.884185,9 -0.475,0 -1.763636,-0.9 -2.863636,-2 z M 199.7904,306.08513 c -1.25733,-1.83775 -2.84855,-3.15025 -3.53605,-2.91667 -0.6875,0.23358 -1.25,-0.0253 -1.25,-0.5753 0,-0.55 0.4772,-1.15907 1.06045,-1.35349 0.63038,-0.21012 -0.38353,-3.72712 -2.5,-8.67194 -5.84952,-13.66654 -4.57595,-13.76494 5.06325,-0.39124 5.60189,7.77223 7.04269,10.51068 7.10286,13.5 0.0608,3.01981 -0.28766,3.75 -1.78949,3.75 -1.02573,0 -2.89369,-1.50361 -4.15102,-3.34136 z m -154.740375,-0.1036 c -2.464956,-2.97009 -0.744474,-5.92723 5.954319,-10.23419 17.306623,-11.12724 18,-11.48194 18,-9.2081 0,1.48765 -4.161923,6.62278 -11.710343,14.44864 -6.396785,6.6319 -9.749512,7.9993 -12.243976,4.99365 z m 90.014445,-2.9826 c -1.32271,-1.59377 -1.03086,-12.93503 0.36888,-14.33478 2.40333,-2.40332 4.64623,11.05243 2.35073,14.10264 -1.26469,1.68049 -1.50086,1.70065 -2.71961,0.23214 z m 15.68988,-0.65254 c -1.41689,-0.82526 -1.75,-2.42621 -1.75,-8.41057 0,-11.276 3.05978,-11.07638 4.89501,0.31935 1.35517,8.41485 0.627,10.28822 -3.14501,8.09122 z m 91.09225,-0.49457 c -2.58452,-1.35417 -19.84225,-20.91042 -19.84225,-22.485 0,-0.4936 1.08939,-0.4011 2.42086,0.20556 1.33147,0.60666 2.22257,1.61974 1.98023,2.25128 -0.24235,0.63154 1.03077,1.98268 2.82914,3.00253 12.92548,7.32996 18.76977,12.44697 18.76977,16.43401 0,1.60816 -3.56407,1.95059 -6.15775,0.59162 z m -120.64225,-0.62533 c -0.66,-0.66 -1.2,-2.17499 -1.2,-3.36665 0,-3.36764 4.10751,-12.43335 5.63333,-12.43335 2.01469,0 1.86234,11.84732 -0.19003,14.77749 -1.77375,2.53239 -2.54708,2.71873 -4.2433,1.02251 z m -52.638572,-2.5005 c -0.865647,-2.25584 1.868265,-5.80331 8.533434,-11.07281 2.972823,-2.35033 6.320958,-5.16283 7.440301,-6.25 2.250526,-2.18586 4.464831,-2.6011 4.464831,-0.83728 0,1.23838 -9.02035,12.67297 -13.49795,17.11059 -3.151783,3.12364 -5.980554,3.55138 -6.940616,1.0495 z m 95.996412,-1.18765 c -1.9446,-3.76045 -2.18663,-15.47133 -0.30784,-14.89522 2.35771,0.72297 5.83279,9.05969 5.53345,13.27474 -0.36385,5.12352 -2.99258,5.93869 -5.22561,1.62048 z m 51.49451,-3.86185 c -3.6068,-3.32932 -15.02382,-20.43623 -14.36752,-21.52787 0.25721,-0.42783 1.67084,0.15507 3.14141,1.29533 1.47057,1.14026 5.71126,4.3389 9.42376,7.1081 4.24086,3.16331 6.75,5.74853 6.75,6.95467 0,1.05587 0.675,1.91977 1.5,1.91977 1.75271,0 1.86146,0.91908 0.52475,4.4349 -1.25418,3.29875 -3.25591,3.24567 -6.9724,-0.1849 z m -111.05235,-1.58888 c 0,-2.2904 0.97857,-4.4845 3.11628,-6.98715 4.95938,-5.80602 6.5383,-2.69977 2.91926,5.74312 -1.41434,3.29952 -2.53449,4.58291 -4,4.58291 -1.64095,0 -2.03554,-0.64724 -2.03554,-3.33888 z m 78.22326,1.59933 c -1.62901,-0.56771 -5.22326,-7.56014 -5.22326,-10.16159 0,-3.47258 1.73628,-3.21964 4.84533,0.70586 4.87495,6.15512 5.07225,11.09168 0.37793,9.45573 z m -91.567559,-6.71528 c -1.342324,-3.49804 0.357497,-6.47923 5.612303,-9.84299 2.445376,-1.56536 2.837006,-1.59209 3.359956,-0.22931 0.61343,1.59859 -1.398114,5.38032 -4.934627,9.27713 -2.381559,2.62419 -3.268726,2.79891 -4.037632,0.79517 z m 104.250199,-4.26369 c -4.04408,-4.44852 -6.12409,-10.29198 -3.6559,-10.2707 2.39748,0.0207 9.87296,8.12343 9.55308,10.3547 -0.44669,3.1158 -3.02163,3.07913 -5.89718,-0.084 z M 27.489113,282.3785 c -1.02294,-3.223 1.0023,-4.64768 11.353753,-7.98696 5.313813,-1.71418 12.03888,-4.26767 14.944593,-5.67442 2.905713,-1.40676 5.568213,-2.27264 5.916666,-1.92418 0.752747,0.75274 1.333122,0.25635 -6.699781,5.73029 -3.575,2.43614 -8.3,5.30889 -10.5,6.38389 -2.2,1.07499 -5.073186,2.75662 -6.384859,3.73695 -3.320081,2.4814 -7.802295,2.34347 -8.630372,-0.26557 z m 25.515231,-0.26395 c 0,-1.37426 1.139124,-3.15413 2.808624,-4.38845 3.922083,-2.89972 21.348363,-11.47596 21.998094,-10.82623 0.818264,0.81827 -3.542075,5.19551 -11.62223,11.66728 -5.184709,4.15268 -8.170246,5.85934 -10.25,5.85934 -2.399801,0 -2.934488,-0.42125 -2.934488,-2.31194 z m 200.485196,-1.8076 c -6.23195,-3.31449 -18.58164,-12.91538 -17.94279,-13.94907 0.85813,-1.38848 1.90544,-1.14487 4.40759,1.02524 2.3181,2.01048 6.22573,3.563 16.35789,6.49907 4.13801,1.1991 6.04564,2.30996 6.63483,3.86364 1.81556,4.78756 -2.88034,6.05922 -9.45752,2.56112 z m -23.72634,-2.309 c -3.41397,-1.79803 -9.8164,-6.89512 -14.84887,-11.82146 -2.10693,-2.0625 -4.32516,-3.75 -4.9294,-3.75 -0.60424,0 -0.83646,-0.42418 -0.51604,-0.94262 0.32146,-0.52013 4.49376,0.86202 9.30901,3.08379 4.79955,2.21453 10.66689,4.89643 13.03853,5.95978 3.93484,1.76424 4.28477,2.21548 4,5.15802 -0.3612,3.73223 -2.09784,4.39567 -6.05323,2.31249 z M 80.004344,275.11358 c 0,-2.37779 2.312778,-4.88768 9.796114,-10.631 7.635879,-5.86041 6.390924,-1.30619 -2.096013,7.66749 -5.403749,5.71367 -7.700101,6.59746 -7.700101,2.96351 z m 64.406046,-3.25773 c -0.89337,-2.13814 -1.29904,-5.24736 -1.01116,-7.75 0.26441,-2.29865 0.50873,-4.74186 0.54293,-5.42936 0.0342,-0.6875 0.7168,-1.25 1.51688,-1.25 0.9011,0 1.697,1.42706 2.09143,3.75 0.35021,2.0625 0.98099,5.10988 1.40174,6.77196 0.83861,3.31277 -0.25682,7.47804 -1.96666,7.47804 -0.59579,0 -1.75461,-1.60679 -2.57516,-3.57064 z m -9.73467,0.42195 c -0.60537,-2.31494 -0.17593,-5.87489 1.52155,-12.61315 0.86563,-3.43615 1.33842,-4.04208 2.44036,-3.12755 1.64548,1.36563 1.8882,13.04648 0.33154,15.95513 -1.37496,2.56914 -3.59452,2.45828 -4.29345,-0.21443 z m 20.21676,-0.53197 c -1.6695,-4.22106 -2.37104,-15.90285 -1.0057,-16.74668 0.63958,-0.39528 1.39845,0.0891 1.74513,1.11396 0.33739,0.99736 1.5251,3.77906 2.63936,6.18156 1.11425,2.40251 2.07253,6.00251 2.1295,8 0.0868,3.04221 -0.26144,3.68366 -2.14481,3.95116 -1.6851,0.23934 -2.52775,-0.38698 -3.36348,-2.5 z m 48.39894,-2.91033 c -2.90789,-3.07505 -5.28707,-6.00005 -5.28707,-6.5 0,-1.81684 2.94184,-0.83654 7.1734,2.39037 2.37963,1.81466 5.12431,3.60446 6.09928,3.97732 3.8618,1.47689 2.95538,5.66412 -1.23561,5.70799 -0.80462,0.008 -3.84212,-2.50064 -6.75,-5.57568 z m -77.19561,3.64752 c -0.7378,-0.45599 -1.34146,-1.90357 -1.34146,-3.21685 0,-2.93718 3.96156,-12.3554 5.8596,-13.93064 1.14948,-0.95399 1.3904,-0.42972 1.3904,3.0257 0,5.16631 -1.82323,12.67366 -3.39464,13.97782 -0.65101,0.54029 -1.76903,0.60432 -2.5139,0.14397 z m -11.54954,-4.92445 c -1.123,-3.53826 5.3081,-14.96084 7.61907,-13.53258 1.30499,0.80653 0.1679,8.86382 -1.78346,12.63733 -1.63824,3.168 -4.95287,3.67651 -5.83561,0.89525 z m 52.61198,-3.30803 c -2.93837,-6.91082 -3.44046,-9.82405 -1.69318,-9.82405 1.73691,0 7.67721,9.77918 7.28235,11.98852 -0.14632,0.81868 -1.05008,1.63951 -2.00835,1.82405 -1.24439,0.23965 -2.26772,-0.90019 -3.58082,-3.98852 z m -124.487239,1.50928 c -1.411664,-1.41166 -0.567854,-4.315 1.583333,-5.44785 1.2375,-0.65169 2.475,-1.45502 2.75,-1.78518 0.655088,-0.7865 9.543175,-3.7216 14,-4.6232 1.925,-0.38943 3.95,-1.05412 4.5,-1.4771 1.696057,-1.30436 7.5,-2.23227 7.5,-1.19907 0,1.2083 -11.801578,9.15242 -18.716756,12.599 -4.989945,2.48703 -10.196416,3.35356 -11.616577,1.9334 z m 25.690073,-2.84606 c -0.851668,-2.21941 1.157344,-4.1182 7.363459,-6.95945 10.158755,-4.65083 11.227357,-2.69355 2.169792,3.97425 -6.48094,4.77099 -8.594061,5.43269 -9.533251,2.9852 z m 109.877976,0.8044 c -1.44619,-0.53552 -4.77979,-7.42213 -5.72478,-11.82636 l -0.63624,-2.96531 3.67301,4 c 6.02986,6.56667 7.01057,8.3862 5.35761,9.94008 -0.77237,0.72607 -1.97369,1.10928 -2.6696,0.85159 z M 17.388386,261.9849 c -1.710487,-4.45745 3.114833,-7.86549 13.801803,-9.74797 3.245079,-0.5716 6.458418,-1.59756 7.140754,-2.2799 0.682336,-0.68233 4.120875,-1.74796 7.641198,-2.36805 11.635059,-2.04947 9.532778,0.0597 -9.403194,9.43387 -12.849529,6.36113 -18.120425,7.72472 -19.180561,4.96205 z m 87.998494,-1.00395 c -0.62028,-1.6164 3.89899,-7.80934 7.38548,-10.12064 2.01944,-1.33874 2.33149,-1.33809 2.84725,0.006 0.61395,1.59993 -2.98131,8.23003 -5.57361,10.27844 -2.08875,1.65051 -3.98855,1.58374 -4.65912,-0.16374 z m 112.61747,-2.89092 c -11.96774,-6.33879 -16.70506,-9.66354 -13.76926,-9.66354 3.12136,0 20.60062,6.11814 21.08491,7.3802 1.23583,3.22052 -3.03155,4.55244 -7.31565,2.28334 z m 19.5,-1.07137 c -14.7688,-6.59737 -19.5,-8.98008 -19.5,-9.82052 0,-0.51424 1.45402,-0.64476 3.25,-0.29174 1.7875,0.35135 5.725,1.10058 8.75,1.66496 3.025,0.56438 6.625,1.28597 8,1.60353 1.375,0.31757 3.00425,0.49774 3.62055,0.40039 0.6163,-0.0974 2.36392,1.45313 3.88359,3.44552 2.22737,2.92023 2.4948,3.79241 1.37945,4.4988 -2.01958,1.27905 -3.79665,0.9948 -9.38359,-1.50094 z m 23.98331,0.0707 c -6.25636,-2.69733 -20.64145,-10.45844 -21.98331,-11.86055 -1.40117,-1.46408 6.16689,-0.0493 8.8962,1.6631 1.15709,0.72595 6.37488,1.6355 11.59509,2.0212 10.08974,0.7455 12.37797,1.46633 13.94404,4.39256 0.74169,1.38585 0.49369,2.35658 -1.01603,3.97708 -2.4585,2.63889 -4.96491,2.5965 -11.43599,-0.19339 z m -76.73447,0.25639 c -1.50794,-0.87828 -9.74884,-12.28163 -9.74884,-13.48997 0,-2.75592 15.80248,8.43153 15.94103,11.28553 0.0324,0.66815 -0.81145,1.68065 -1.87529,2.25 -2.30213,1.23206 -2.11999,1.23398 -4.3169,-0.0456 z m -88.204133,-4.77837 c -0.976931,-3.07804 0.3667,-4.91624 6.670403,-9.12569 6.28586,-4.19753 7.31237,-4.58877 8.21365,-3.13046 0.69415,1.12316 -6.59507,10.339 -9.87998,12.49135 -3.202823,2.09857 -4.279424,2.04796 -5.004073,-0.2352 z m 90.118053,-7.63791 c -5.04167,-4.10691 -8.4101,-8.14142 -7.49378,-8.97562 0.18206,-0.16574 4.15602,1.5603 8.83102,3.83565 7.2968,3.5514 8.5,4.49088 8.5,6.637 0,4.1923 -3.50842,3.65839 -9.83724,-1.49703 z m -127.662766,1.68815 c 0,-3.4467 2.544914,-4.9462 12,-7.07054 5.225,-1.17393 9.8926,-2.13132 10.372445,-2.12751 2.278947,0.0181 -2.456605,3.4618 -9.681125,7.04019 -8.839343,4.37822 -12.69132,5.03316 -12.69132,2.15786 z M 33.36597,243.92649 c -1.823283,-4.7514 2.820497,-7.08973 16.691328,-8.40474 28.903865,-2.74019 28.186543,-0.90342 -3.052954,7.81738 -8.867731,2.47551 -12.848043,2.64693 -13.638374,0.58736 z m 110.98616,-0.0361 c -0.3242,-0.84485 -0.3856,-3.99433 -0.13644,-6.99884 0.43265,-5.21714 1.21309,-7.37398 2.2816,-6.30547 0.99169,0.9917 2.38215,10.60204 1.83607,12.69026 -0.65018,2.48628 -3.1168,2.86672 -3.98123,0.61405 z m 73.83548,-1.59528 c -5.12421,-1.68766 -9.05189,-3.33333 -8.72818,-3.65704 0.32371,-0.32371 5.19124,-0.47959 10.81674,-0.3464 11.13066,0.26353 14.2307,1.51889 12.1091,4.90357 -1.63491,2.60826 -4.00064,2.45827 -14.19766,-0.90013 z m -129.835932,0.59412 c -0.82867,-2.15948 1.835822,-4.75506 8.458495,-8.23974 11.495837,-6.0488 13.832967,-4.73391 5.048297,2.84022 -8.159654,7.03524 -12.251418,8.67098 -13.506792,5.39952 z m 44.950842,-1.12812 c -0.36769,-0.95818 0.57443,-4.03681 2.21866,-7.25 3.51518,-6.86947 3.15972,-6.40257 4.32577,-5.68191 0.62209,0.38448 0.51383,2.58978 -0.29874,6.08535 -1.76365,7.58694 -4.71858,10.82616 -6.24569,6.84656 z m 19.72215,-2.29479 c -2.28014,-4.46946 -2.79932,-12.44183 -0.77032,-11.82891 1.70012,0.51357 6.75,10.58968 6.75,13.46838 0,3.93863 -3.64358,2.93965 -5.97968,-1.63947 z m 35.97968,-2.34799 c -8.69999,-4.81144 -7.62761,-5.66809 3.52046,-2.81222 8.41738,2.15634 10.06355,3.15609 9.14371,5.55316 -0.95956,2.50058 -4.61843,1.70868 -12.66417,-2.74094 z m 55.5,2.36346 c -11.98206,-3.01726 -21.8951,-5.0802 -24.5,-5.09853 -2.18847,-0.0154 -2.28058,-0.14536 -0.73916,-1.04294 3.00703,-1.75101 28.63803,0.11388 31.19105,2.26944 0.57646,0.48672 1.90436,1.47633 2.95089,2.19913 1.9367,1.33763 1.46138,3.69265 -0.7118,3.5266 -0.65504,-0.05 -4.34098,-0.88422 -8.19098,-1.8537 z m -118.49626,-1.23198 c 0.006,-3.72654 7.40703,-13.82332 10.13262,-13.82332 1.38964,0 1.01023,1.10506 -2.91797,8.49897 -3.83985,7.2276 -7.22173,9.7234 -7.21465,5.32435 z m -113.576246,0.13244 c -1.060125,-0.39583 -2.7319389,-1.61446 -3.7151415,-2.70806 -1.4816645,-1.64803 -1.5905332,-2.42097 -0.6360555,-4.51582 1.3485358,-2.95972 4.243144,-3.73188 13.98968,-3.73188 3.748791,0 7.082756,-0.43165 7.408812,-0.95922 0.991368,-1.60406 18.525205,0.15351 18.525205,1.85695 0,0.96435 -1.408226,1.51865 -15.253771,6.00417 -11.807755,3.82534 -17.753655,5.01163 -20.318729,4.05386 z m 149.822066,-0.49351 c -1.23726,-0.86661 -2.24956,-2.04166 -2.24956,-2.61122 0,-0.56957 -0.9,-2.17974 -2,-3.57816 -1.1,-1.39842 -2,-3.23397 -2,-4.07899 0,-0.84502 -0.74724,-2.36209 -1.66054,-3.37127 -0.91329,-1.00918 -1.31639,-2.16961 -0.89577,-2.57874 0.72976,-0.70982 13.55631,12.2328 13.55631,13.67898 0,0.38219 -0.5627,1.46443 -1.25044,2.40497 -1.14643,1.56783 -1.43756,1.57901 -3.5,0.13443 z m -43.90746,-4.01313 c -0.60216,-1.56921 3.15173,-6.44912 4.96101,-6.44912 0.52497,0 2.69783,-1.575 4.82857,-3.5 8.29354,-7.49271 5.21591,-1.19635 -3.96753,8.11697 -3.69579,3.74806 -4.93696,4.13865 -5.82205,1.83215 z m -33.786333,-0.35888 c -0.965123,-1.5616 0.57466,-4.10806 3.315408,-5.48295 3.868757,-1.94075 16.051085,-5.01836 16.820185,-4.24926 0.88686,0.88686 -1.84626,2.86204 -9.837599,7.10947 -6.775176,3.60103 -9.296509,4.24318 -10.297994,2.62274 z m 78.157363,-6.054 c -6.12776,-5.97771 -7.39853,-9.37208 -1.83843,-4.91067 1.62754,1.30594 4.79655,3.64111 7.04224,5.18928 4.42073,3.04764 4.956,4.13619 2.49775,5.07951 -1.06649,0.40925 -3.587,-1.34432 -7.70156,-5.35812 z m 27.28687,3.32517 c -9.98481,-3.44736 -11.15625,-4.76746 -3.5,-3.94415 14.51938,1.56134 16.26315,1.81832 17.49208,2.57784 0.71464,0.44168 1.0229,1.52347 0.68502,2.40398 -0.89609,2.33517 -5.94125,1.97848 -14.6771,-1.03767 z m 61.55008,0.0168 c -4.92245,-0.76702 -10.36515,-1.78535 -12.09488,-2.26295 -1.92551,-0.53166 -3.83284,-0.48341 -4.919,0.12444 -0.97573,0.54604 -3.59731,0.96764 -5.82575,0.93689 -5.36829,-0.0741 -17.71045,-2.30825 -17.71045,-3.20592 0,-0.69312 15.32511,-2.97067 19.98898,-2.97067 1.29445,0 3.13785,0.70979 4.09644,1.57731 2.03331,1.84011 11.65982,2.13023 30.05129,0.90564 11.50934,-0.76634 11.65029,-0.74946 12.87662,1.54195 1.05733,1.97564 0.97224,2.51248 -0.57785,3.64593 -2.32801,1.70229 -13.924,1.57119 -25.8854,-0.29264 z M 54.683883,230.03377 c -0.374031,-0.97471 0.124711,-2.41153 1.215819,-3.50264 1.642929,-1.64293 3.123444,-1.79895 13.227319,-1.39396 6.257528,0.25082 11.53331,0.61201 11.723961,0.80265 0.76984,0.76979 -13.749995,4.63118 -19.43978,5.16979 -5.086766,0.48153 -6.197886,0.30384 -6.727319,-1.07584 z m 58.833237,-4.58661 c -1.31211,-2.12304 1.69078,-4.82218 7.69185,-6.91379 3.46246,-1.20681 7.81359,-2.86884 9.66919,-3.6934 1.85559,-0.82456 3.62274,-1.25026 3.927,-0.94601 0.69931,0.69931 -1.50588,2.40634 -10.38474,8.03875 -7.0807,4.49173 -9.76464,5.35684 -10.9033,3.51445 z m 55.98723,-0.68411 c -1.65,-0.90075 -3.675,-2.01526 -4.5,-2.47668 -0.825,-0.46141 -3.1875,-1.75279 -5.25,-2.86973 -2.0625,-1.11694 -3.74311,-2.58415 -3.73469,-3.26047 0.01,-0.8054 0.33631,-0.72212 0.94563,0.24136 0.51167,0.80907 1.21274,1.18861 1.55794,0.84342 0.34519,-0.34519 4.30715,0.60876 8.80437,2.11989 6.39323,2.14823 8.17675,3.16094 8.17675,4.64289 0,2.49432 -2.29079,2.78423 -6,0.75932 z m 22.5,-0.40928 c -2.475,-0.46947 -5.9625,-1.11556 -7.75,-1.43574 -1.7875,-0.32019 -3.25,-1.01178 -3.25,-1.53685 0,-1.33607 24.69955,-1.24984 25.52707,0.0891 0.35481,0.5741 0.10127,1.6991 -0.56342,2.5 -1.33407,1.60746 -6.72981,1.75564 -13.96365,0.38348 z M 30.336215,221.84895 c -1.033426,-2.69307 2.237174,-4.83947 7.413396,-4.86521 7.530546,-0.0374 25.297654,1.35124 26.457246,2.06791 2.055007,1.27006 -1.923655,2.30792 -12.802069,3.3395 -15.65444,1.48448 -20.337106,1.36397 -21.068573,-0.5422 z m 51.668129,-2.72653 c 0,-2.12683 1.330746,-2.81722 7.908644,-4.10299 5.951566,-1.16335 13.091362,-0.99115 13.091362,0.31574 0,1.48248 -8.494574,4.25185 -14.750006,4.80874 -5.261097,0.46836 -6.25,0.30674 -6.25,-1.02149 z m 143.000006,-0.61906 c -4.64109,-0.87497 -2.79746,-1.48809 11.77991,-3.91751 14.62196,-2.43685 22.59588,-1.18701 20.88426,3.27342 -0.51058,1.33056 -2.75801,1.54734 -14.88279,1.43558 -7.85476,-0.0724 -15.85638,-0.42857 -17.78138,-0.79149 z m -58.67227,-2.43188 c -3.39475,-1.18591 -6.46709,-2.45101 -6.82741,-2.81134 -0.99161,-0.99161 15.73059,0.29364 17.81425,1.36919 1.44226,0.74446 1.57102,1.23009 0.62755,2.3669 -1.5654,1.88619 -4.159,1.67968 -11.61439,-0.92475 z m 19.17227,0.39925 c -4.64999,-0.78113 -4.15999,-0.9848 8.5,-3.533 9.48485,-1.90911 11.43691,-1.89465 13.08981,0.097 1.13401,1.3664 1.0485,1.81748 -0.56869,3 -2.01225,1.4714 -13.44593,1.70856 -21.02112,0.43603 z m -75.75,-0.6194 c -1.62539,-1.6431 -0.59588,-3.37197 2.5,-4.19829 4.47746,-1.19507 21.75,-1.5452 21.75,-0.44088 0,0.96838 -6.92541,3.29223 -11,3.6911 -1.375,0.1346 -4.75,0.57357 -7.5,0.97548 -2.75,0.40192 -5.3375,0.38959 -5.75,-0.0274 z m -56.550006,-2.62484 c -1.788636,-1.78864 -1.456914,-3.59214 0.891922,-4.8492 2.355152,-1.26043 19.08768,-0.58282 23.026226,0.93249 3.080908,1.18535 1.938549,1.6103 -9.618148,3.57797 -10.862214,1.84941 -12.744732,1.89401 -14.3,0.33874 z M 6.6086066,210.27188 c -3.8855506,-5.5474 2.7654591,-7.35427 15.8774224,-4.3134 3.633185,0.84259 7.083124,1.23697 7.666529,0.87641 1.230032,-0.7602 15.700142,1.53722 16.35492,2.59667 0.832443,1.34692 -13.413423,2.99493 -25.889059,2.99493 -11.6660492,0 -12.6014269,-0.14385 -14.0098124,-2.15461 z m 212.8957434,0.24636 c -7.64291,-0.71424 -7.39838,-1.03495 3,-3.93474 11.15056,-3.10955 12.59403,-3.32386 14.08015,-2.09049 1.02745,0.85271 2.96279,0.87539 7.43754,0.0872 3.32679,-0.586 6.6813,-0.8227 7.45447,-0.52601 0.77318,0.2967 3.83211,0.0357 6.79764,-0.5799 8.2873,-1.72044 18.66638,-1.54018 20.56369,0.35713 1.26728,1.26728 1.33218,1.83012 0.32723,2.83794 -1.65099,1.6557 -17.83571,2.46407 -30.60576,1.52866 -8.40189,-0.61545 -10.21881,-0.48072 -11.70942,0.86826 -2.08265,1.88477 -7.6908,2.35422 -17.34554,1.45197 z m -77.05385,-1.17888 c -0.94095,-1.52249 1.10241,-3.30008 2.96977,-2.58351 0.89841,0.34476 1.3022,1.24162 0.96023,2.13279 -0.68249,1.77855 -2.94872,2.03846 -3.93,0.45072 z m 10.05385,0.0871 c -0.33992,-0.55 0.19602,-1.04486 1.19098,-1.09968 1.24311,-0.0685 1.02696,-0.3277 -0.69098,-0.82858 -2.28641,-0.66662 -1.94466,-0.99144 4,-3.8019 11.6748,-5.5195 14.26117,-6.50621 17.4021,-6.63893 2.04297,-0.0863 3.0979,0.34313 3.0979,1.26117 0,2.53139 -4.89029,5.08469 -13,6.78751 -8.32432,1.74787 -9.13636,2.01738 -8.37437,2.77937 0.25243,0.25243 4.94323,-0.34647 10.42401,-1.33088 5.48077,-0.98442 10.52424,-1.60345 11.2077,-1.37563 2.14217,0.71405 1.35597,3.25397 -1.32244,4.2723 -3.38483,1.28691 -23.13687,1.26649 -23.9349,-0.0248 z m -65.360391,-1.06987 c -5.464231,-0.74506 -7.115024,-2.33774 -4.097119,-3.95287 3.197452,-1.71123 18.9575,0.85634 18.9575,3.08848 0,1.00961 -9.670111,1.5721 -14.860381,0.86439 z m 41.860391,0.3874 c -9.19978,-0.95257 -17.51508,-2.50012 -18.6949,-3.47928 -2.36372,-1.96171 -1.4872,-3.83825 1.79282,-3.83825 3.8179,0 23.90208,6.02441 23.90208,7.16963 0,0.4567 -0.7875,0.75835 -1.75,0.67033 -0.9625,-0.088 -3.325,-0.32311 -5.25,-0.52243 z m 54.90023,-0.37919 c -1.85557,-1.1468 0.63564,-1.76062 18.83963,-4.64197 2.41532,-0.38231 3.4016,-0.0913 3.87542,1.14345 1.25993,3.28332 -2.42977,4.58369 -12.3812,4.36353 -5.09626,-0.11275 -9.74649,-0.502 -10.33385,-0.86501 z m -59.92493,-7.68831 c -10.20535,-5.11598 -11.08371,-5.80393 -10.2348,-8.01614 1.08646,-2.83127 7.08964,-0.59975 14.33663,5.32925 6.32829,5.17736 8.19627,7.43689 6.14817,7.43689 -0.42608,0 -5.03858,-2.1375 -10.25,-4.75 z m -92.340447,0.67742 c -6.934252,-5.45448 1.281529,-8.37645 15.253146,-5.42482 10.754275,2.27194 21.14473,5.63542 20.521932,6.64313 -0.290384,0.46985 -7.865727,0.85427 -16.834095,0.85427 -14.982271,0 -16.520042,-0.16827 -18.940983,-2.07258 z m 150.365147,1.16565 c 0,-1.44498 5.22383,-4.0296 13.45242,-6.65593 7.45007,-2.37785 9.54758,-2.25734 9.54758,0.54853 0,2.1931 -3.36514,3.53599 -12.5,4.98825 -3.85,0.61207 -7.7875,1.34866 -8.75,1.63686 -0.9625,0.2882 -1.75,0.0552 -1.75,-0.51771 z m -29,-1.19494 c 0,-1.03242 2.59035,-3.5863 11,-10.84514 3.36099,-2.90105 5.95719,-3.76247 7.29815,-2.42151 1.38833,1.38834 -1.81195,4.74431 -8.99714,9.43485 -7.8084,5.09738 -9.30101,5.7123 -9.30101,3.8318 z m 66,-0.97127 c 0,-1.0837 7.05661,-3.67346 17.79452,-6.53055 5.33033,-1.41826 10.05187,-2.80137 10.4923,-3.07358 0.44043,-0.2722 1.43637,0.0326 2.21318,0.67727 0.77681,0.6447 1.7696,0.96128 2.2062,0.7035 1.38117,-0.81547 5.2938,1.17028 5.2938,2.68672 0,2.09757 -4.92642,3.35422 -18,4.59153 -16.72242,1.58263 -20,1.73752 -20,0.94511 z M 98.032997,197.84794 c -8.79997,-1.60441 -12.676446,-3.06123 -13.439939,-5.05086 -0.722778,-1.88353 1.69531,-2.76379 5.501216,-2.0026 3.762348,0.75247 15.910076,6.72656 15.910076,7.82436 0,0.44421 -0.1125,0.75897 -0.25,0.69946 -0.1375,-0.0595 -3.61211,-0.72117 -7.721353,-1.47036 z m 27.230483,-5.84766 c -5.4906,-5.22015 -6.52084,-6.66896 -5.48945,-7.71968 1.90248,-1.93812 5.96114,0.85491 10.48032,7.21221 6.5911,9.27194 4.456,9.48904 -4.99087,0.50747 z m 25.78151,4.73161 c -0.0505,-2.72762 6.50325,-17.3054 7.78002,-17.3054 0.51395,0 1.46515,0.63945 2.11377,1.421 1.42186,1.71322 -1.9942,9.01859 -6.81727,14.579 -2.74454,3.16412 -3.03978,3.2894 -3.07652,1.3054 z m -9.24111,-0.3054 c -2.55607,-5.76789 -4.90745,-14.16073 -4.63009,-16.52635 1.0296,-8.78163 6.15551,2.34836 5.61511,12.19219 -0.17616,3.20879 -0.61941,5.15916 -0.98502,4.33416 z m -87.599536,-1.2 c -2.042113,-2.04211 -1.386926,-4.71498 1.322447,-5.39499 2.899254,-0.72767 21.477553,2.37319 21.477553,3.58477 0,1.02776 -11.282634,3.01022 -17.131913,3.01022 -2.457448,0 -5.008087,-0.54 -5.668087,-1.2 z m 157.307046,0.18861 c 0.34379,-0.55626 3.63284,-2.37121 7.30901,-4.03323 3.67617,-1.66202 7.46534,-3.4569 8.42038,-3.98862 2.25994,-1.25823 5.47879,-1.23657 6.2691,0.0422 1.08415,1.75419 -0.48431,4.74885 -2.78788,5.32289 -14.90928,3.71527 -20.32795,4.46466 -19.21061,2.65677 z m -30.00704,-1.5443 c 5.45921,-4.36976 18.78234,-9.76197 20.32021,-8.2241 1.35359,1.35359 -0.0523,4.25967 -2.54243,5.25533 -2.66409,1.06522 -11.24561,3.20189 -15.77778,3.92842 -3.79217,0.60792 -3.89608,0.55805 -2,-0.95965 z m -49.83322,-6.65589 c -2.29052,-4.53349 -3.2923,-7.5629 -2.69758,-8.15762 1.18489,-1.18489 3.69228,0.78898 5.45766,4.29637 1.64524,3.26871 2.87171,11.07283 1.74016,11.07283 -0.47114,0 -2.49625,-3.24521 -4.50024,-7.21158 z m 14.69234,-0.50856 c 0.75176,-8.8933 2.8428,-12.50918 4.58462,-7.92784 0.80028,2.1049 0.55844,4.12246 -1.0996,9.17319 -2.90969,8.86353 -4.29761,8.36757 -3.48502,-1.24535 z m -47.359126,1.65052 c -7.796706,-2.72671 -9.632959,-3.8294 -10.859419,-6.52118 -0.90003,-1.97535 -0.762497,-2.54118 0.824068,-3.39028 2.509222,-1.3429 5.377361,-0.19466 12.928797,5.17593 9.17636,6.52623 7.95281,8.52874 -2.893446,4.73553 z m -61.5,0.0313 c -14.793525,-1.23835 -24.643822,-3.60746 -27.264288,-6.55743 -2.7146383,-3.05598 -2.1508426,-4.40425 1.841688,-4.40425 3.311831,0 17.165225,3.5243 20.165852,5.13018 1.068666,0.57194 2.926936,0.79294 4.129489,0.49112 1.202553,-0.30183 5.09814,0.344 8.65686,1.43516 9.728515,2.98293 9.801759,3.02196 7.470399,3.98059 -2.295807,0.94401 -2.855001,0.9412 -15,-0.0754 z m 142.036786,-0.90214 c -0.74805,-1.21036 8.2051,-9.67507 12.31704,-11.64507 5.56253,-2.66498 7.29461,1.93676 2.14618,5.70191 -3.85656,2.82037 -13.85421,6.92857 -14.46322,5.94316 z m 61.46322,-2.05954 c 0,-0.55 0.5361,-1 1.19134,-1 0.65523,0 5.74978,-2.23182 11.32121,-4.95959 12.19209,-5.96926 17.06009,-7.0168 20.32432,-4.37359 2.78107,2.25198 2.1157,4.72974 -1.65873,6.1769 -2.62576,1.00675 -26.42847,5.15628 -29.57766,5.15628 -0.88026,0 -1.60048,-0.45 -1.60048,-1 z m -19.36567,-0.699 c -0.96244,-0.96245 8.02361,-7.13998 14.86567,-10.21952 7.297,-3.2843 15.5,-3.30839 15.5,-0.0455 0,1.92415 -5.07522,4.08022 -16.47811,7.0003 -6.49637,1.66361 -12.13363,3.22378 -12.52725,3.46705 -0.39363,0.24328 -1.00576,0.15224 -1.36031,-0.20231 z M 51.351108,181.54598 c -7.234279,-1.49269 -13.871779,-3.31032 -14.75,-4.03918 -2.387018,-1.98105 -1.939639,-3.69565 1.316165,-5.04424 2.580308,-1.0688 3.926696,-0.80098 11.790987,2.34547 4.882931,1.95362 11.784613,4.89634 15.33707,6.53936 6.120982,2.83098 6.275842,2.98537 2.959014,2.94995 -1.925,-0.0205 -9.418956,-1.25866 -16.653236,-2.75136 z m 154.736572,1.46885 c 0.22917,-0.22641 4.21951,-2.92641 8.86742,-6 8.14411,-5.38557 12.21449,-6.74802 13.57643,-4.54436 1.52419,2.46619 -2.56463,5.80425 -10.24125,8.3608 -6.74345,2.24577 -13.48693,3.45247 -12.2026,2.18356 z M 71.004344,179.34861 c -1.925,-0.48024 -4.624036,-1.0996 -5.997859,-1.37637 -2.786538,-0.56135 -5.002141,-3.05076 -5.002141,-5.6203 0,-2.0461 3.726102,-2.93935 7.090923,-1.69988 3.283979,1.20969 13.889492,8.09504 13.900331,9.02443 0.01132,0.97055 -5.513296,0.78925 -9.991254,-0.32788 z m 32.750006,-4.07068 c -4.262506,-2.77732 -7.750006,-5.69419 -7.750006,-6.48194 0,-2.17668 2.828704,-2.79913 5.710836,-1.25667 5.47117,2.92808 13.78202,13.0515 10.53917,12.83773 -0.4125,-0.0272 -4.2375,-2.3218 -8.5,-5.09912 z m 71.25,4.25857 c 0,-1.1551 8.15345,-12.20054 10.31367,-13.97189 2.41542,-1.9806 4.97736,-0.69227 4.18985,2.10695 -1.2952,4.60387 -14.50352,15.40924 -14.50352,11.86494 z m -61.82539,-10.48782 c -4.87866,-6.01306 -6.33346,-9.78795 -4.26485,-11.06642 2.0096,-1.242 4.09558,0.93731 7.50844,7.84442 5.77992,11.69764 4.59115,12.87849 -3.24359,3.222 z m 55.82539,5.34457 c 0,-0.90044 1.95011,-4.79836 6.80457,-13.60114 1.38791,-2.51677 4.73534,-3.19967 5.46852,-1.11562 0.80673,2.29316 -1.34116,6.20335 -6.0424,11 -4.63663,4.73075 -6.23069,5.68164 -6.23069,3.71676 z m 38,0.22941 c 0,-2.14619 15.58913,-14.45255 24.35769,-19.22842 5.18827,-2.82583 6.13109,-3.04412 8.25,-1.91011 5.20986,2.78822 2.20368,5.61031 -15.85638,14.88537 -13.03904,6.69642 -16.75131,8.08219 -16.75131,6.25316 z M 53.004344,169.74088 c -4.447586,-0.73517 -25.396649,-7.30536 -28.969532,-9.08562 -3.915474,-1.95097 -6.681558,-6.08967 -5.72902,-8.57195 0.838955,-2.18628 6.754652,-2.19289 10.998212,-0.0123 1.760187,0.9045 5.867082,3.45007 9.126433,5.65685 3.259351,2.20677 6.945303,4.12419 8.191005,4.26093 2.711823,0.29768 10.547274,6.36271 9.794206,7.5812 -0.291136,0.47107 -0.61528,0.79521 -0.720321,0.72031 -0.105041,-0.0749 -1.315983,-0.32213 -2.690983,-0.54942 z m 9.328065,-5.14002 c -13.163603,-5.50769 -17.328065,-8.29256 -17.328065,-11.58768 0,-4.56055 6.824098,-3.70792 12.613045,1.57593 1.162175,1.06078 2.566216,1.79564 3.120092,1.63303 1.325049,-0.38901 15.236763,11.44404 14.622624,12.43773 -0.679921,1.10014 -0.747182,1.07918 -13.027696,-4.05901 z m 59.538991,1.07563 c -4.59548,-7.39458 -6.39295,-15.25 -3.48949,-15.25 2.15019,0 3.6118,2.36157 5.6888,9.19163 3.13159,10.29798 2.13742,13.03659 -2.19931,6.05837 z m 78.1112,1.79065 c 0.57673,-1.07765 2.70343,-3.21515 4.726,-4.75 2.02256,-1.53486 4.69606,-3.80315 5.94111,-5.04065 2.68896,-2.67265 8.35464,-3.13668 8.35464,-0.68426 0,3.36824 -2.34915,5.53501 -9.66604,8.91563 -8.89579,4.11011 -10.89961,4.44407 -9.35571,1.55928 z m 37.02175,0.66598 c 0,-1.36049 8.50715,-7.50863 17.37333,-12.55576 7.9417,-4.52086 13.62667,-5.00129 13.62667,-1.15158 0,2.68039 -4.06492,5.16791 -16,9.79115 -13.90487,5.38627 -15,5.67219 -15,3.91619 z m -83.35101,-1.17896 c -1.02824,-2.67955 -0.75399,-14.46295 0.38619,-16.59341 1.23979,-2.31657 3.52244,-2.52947 4.33784,-0.40458 0.62698,1.63388 -1.82463,14.66798 -3.23192,17.18267 -0.73205,1.30811 -0.92861,1.28378 -1.49211,-0.18468 z m 8.35101,0.36667 c 0,-2.2011 3.20284,-13.42343 4.16251,-14.5849 1.5519,-1.87822 3.83842,-0.35658 3.82811,2.54755 -0.0104,2.92332 -5.46185,13.14301 -7.01085,13.14301 -0.53887,0 -0.97977,-0.49754 -0.97977,-1.10566 z m -83.592896,-3.32891 c -6.930726,-3.22866 -8.40711,-4.74721 -8.40711,-8.64722 0,-2.45922 3.615973,-2.56709 7.027494,-0.20965 4.447639,3.07343 10.972506,9.58736 10.972506,10.95412 0,1.95465 -1.686424,1.58595 -9.59289,-2.09725 z m 53.163276,1.24795 c -0.22852,-0.72236 -1.34507,-3.90367 -2.48122,-7.06958 -3.10225,-8.64448 -1.74417,-14.33504 2.34323,-9.81851 1.89745,2.09666 3.17685,16.58015 1.55324,17.58359 -0.54986,0.33984 -1.18673,0.0269 -1.41525,-0.6955 z m 9.92063,-9.9029 c -0.75458,-7.51374 0.0329,-9.6909 3.08189,-8.52088 1.44186,0.5533 1.61291,1.5586 1.10004,6.46547 -1.18558,11.343 -3.15214,12.30957 -4.18193,2.05541 z m 52.81085,1.33952 c 1.65478,-3.77547 4.57883,-8.2191 7.56737,-11.5 4.00356,-4.39521 7.95029,-3.16099 6.06933,1.89799 -0.74994,2.01702 -12.56908,12.35201 -14.12581,12.35201 -0.39391,0 -0.17381,-1.2375 0.48911,-2.75 z m -100.232143,-2 c -9.281659,-6.71501 -11.116546,-8.61669 -11.349036,-11.76218 -0.313839,-4.24609 3.045181,-4.5103 7.509399,-0.59066 2.985256,2.62109 10.76991,13.8273 10.76991,15.50357 0,1.32643 -1.996314,0.41884 -6.930273,-3.15073 z M 203.00435,157.541 c 0,-0.60471 4.3875,-5.60981 9.75,-11.12244 7.08082,-7.27906 10.61217,-10.18433 12.89933,-10.61238 2.63449,-0.49307 3.26295,-0.23142 3.84439,1.60052 0.95734,3.01631 -1.85784,5.80258 -13.81457,13.67269 -10.87077,7.15532 -12.67915,8.07692 -12.67915,6.46161 z M 72.698956,145.85883 c -10.005997,-7.54131 -12.694612,-10.07032 -12.694612,-11.94099 0,-3.62487 1.729609,-3.93606 6.036279,-1.08604 2.156462,1.42708 4.529205,2.59469 5.272761,2.59469 0.743556,0 2.743341,1.93752 4.443967,4.3056 1.700626,2.36808 4.415214,5.63058 6.032419,7.25 1.617205,1.61942 3.728822,4.1819 4.692483,5.6944 3.191729,5.00953 -0.539362,3.16401 -13.783297,-6.81766 z m 152.305394,4.71597 c 0,-1.82085 16.41974,-17.28496 20.70034,-19.49557 1.76019,-0.90901 4.1512,-1.65274 5.31336,-1.65274 1.77873,0 2.06344,0.51029 1.79966,3.22551 -0.2897,2.98193 -1.29505,3.80678 -13.31336,10.92291 -13.35539,7.90783 -14.5,8.46039 -14.5,6.99989 z m -43,-2.27326 c 0,-1.8062 3.38381,-10.83344 5.95066,-15.87505 1.19692,-2.35088 3.80431,-2.34739 4.55127,0.006 0.75658,2.38376 -3.08316,10.73153 -7.01177,15.24391 -2.87909,3.307 -3.49016,3.41643 -3.49016,0.62514 z M 56.004344,145.33411 c -7.344624,-3.98006 -18.301268,-11.84923 -20.718197,-14.88002 -0.670008,-0.84018 -1.232508,-2.54867 -1.25,-3.79665 -0.02763,-1.97163 0.328661,-2.18321 2.718197,-1.61411 4.470216,1.06463 7.299841,3.26554 15.880986,12.35236 4.472042,4.73558 8.686586,8.42494 9.365654,8.19859 1.167964,-0.38932 2.9548,1.45382 2.988047,3.08221 0.02681,1.31331 -1.313115,0.81484 -8.984687,-3.34238 z m 134.000006,3.02092 c 0,-1.84405 12.7965,-26.33299 14.99089,-28.68839 3.8329,-4.11413 8.00674,-2.21955 6.63577,3.01209 -0.87523,3.33985 -18.55953,26.74776 -20.20751,26.74776 -0.78053,0 -1.41915,-0.48216 -1.41915,-1.07146 z m -86.00475,-5.62412 c -6.938169,-7.59145 -8.290659,-9.79833 -7.510796,-12.25546 0.863449,-2.72049 3.066289,-2.58912 6.014056,0.35865 3.9795,3.97949 9.8765,17.59239 7.62088,17.59239 -0.50529,0 -3.26115,-2.56301 -6.12414,-5.69558 z m -9.314712,-0.55442 c -1.406259,-1.7875 -5.499386,-6.4 -9.095837,-10.25 -6.450128,-6.90486 -10.366308,-13.05173 -9.113463,-14.30458 1.120244,-1.12024 5.896691,2.22659 8.320737,5.83029 1.285345,1.91086 2.943915,3.69929 3.685711,3.97429 2.393321,0.88726 10.522308,14.05692 10.522308,17.04705 0,1.86327 -1.799176,0.90649 -4.319456,-2.29705 z m 70.754892,1.14552 c -1.06386,-1.72136 1.62051,-15.45838 3.68372,-18.85106 2.14099,-3.52056 3.39784,-3.81548 4.83291,-1.13403 1.12923,2.10999 0.16535,5.44896 -4.42818,15.33957 -2.85126,6.13922 -3.03574,6.34884 -4.08845,4.64552 z m -32.26645,-6.14552 c -1.05126,-3.4375 -2.22284,-8.80642 -2.60351,-11.93093 -0.61831,-5.07507 -0.47572,-5.79674 1.33707,-6.76691 3.33041,-1.78238 4.98897,2.06135 5.52581,12.80615 0.46267,9.26003 0.10781,12.14169 -1.49516,12.14169 -0.46906,0 -1.71295,-2.8125 -2.76421,-6.25 z m -13.59634,-0.24365 c -3.07047,-4.0256 -6.5186,-11.23115 -6.55068,-13.68896 -0.0303,-2.31857 3.82569,-3.39831 5.64366,-1.58034 1.2065,1.20649 5.33438,15.04992 5.33438,17.88958 0,1.84091 -1.8678,0.73548 -4.42736,-2.62028 z m 56.42736,2.14287 c 0,-0.74292 0.419,-2.65542 0.93111,-4.25 0.51211,-1.59457 2.77583,-8.86172 5.03049,-16.14922 2.25466,-7.2875 4.52962,-13.25 5.05547,-13.25 1.25285,0 3.98293,6.58603 3.98293,9.60842 0,1.3003 -1.93947,5.85784 -4.30993,10.12788 -7.55567,13.61042 -10.69007,17.68979 -10.69007,13.91292 z m -25.98467,-2.62057 c -1.54642,-2.88952 -0.9553,-15.19113 0.83354,-17.34655 1.75585,-2.11567 3.82677,-1.12935 4.48286,2.13508 0.51622,2.56845 -1.65367,13.14286 -3.30226,16.09272 -0.62024,1.10982 -1.04894,0.92225 -2.01414,-0.88125 z m 59.98467,0.92169 c 0,-4.52773 20.34222,-31.95034 23.70091,-31.95034 1.70804,0 3.29909,2.40894 3.29909,4.995 0,1.99842 -2.94993,5.51582 -12.83161,15.3 -7.05739,6.98775 -13.13239,12.705 -13.5,12.705 -0.36761,0 -0.66839,-0.47235 -0.66839,-1.04966 z M 105.4459,127.22057 C 96.087228,111.145 93.867553,104.42649 97.915138,104.42649 c 1.271171,0 2.629642,1.48494 4.058262,4.43609 1.18112,2.43985 2.49738,4.57735 2.92503,4.75 1.04987,0.42385 6.64689,15.38233 7.50733,20.06391 0.37907,2.0625 0.30502,3.75 -0.16454,3.75 -0.46957,0 -3.52746,-4.59267 -6.79532,-10.20592 z m 53.93392,-0.54408 c 0.36433,-4.8125 0.87867,-10.1 1.14298,-11.75 1.65762,-10.34814 2.81854,-15.590243 3.55319,-16.044283 1.39034,-0.85927 3.97447,4.034433 4.0435,7.657373 0.0639,3.35346 -2.68262,14.96625 -5.70857,24.13691 -2.52061,7.63916 -3.78585,5.96949 -3.0311,-4 z m -17.83229,3.81987 c -0.31617,-0.51158 -0.85943,-7.7001 -1.20725,-15.97451 -0.57733,-13.73448 -0.48041,-15.102693 1.11318,-15.714213 1.21268,-0.46534 2.48643,0.21376 4.17236,2.224513 1.96722,2.34623 2.32773,3.65183 1.9037,6.89434 -0.2877,2.2 -0.99077,7.6 -1.56238,12 -0.57162,4.4 -1.27741,8.7875 -1.56843,9.75 -0.57575,1.90417 -1.93881,2.29612 -2.85118,0.81987 z M 65.504344,124.2398 c -9.565792,-7.28093 -12.428939,-10.60056 -13.190499,-15.29351 -0.520941,-3.21018 -0.359333,-3.5198 1.83715,-3.5198 1.324585,0 3.315538,0.63543 4.424341,1.41206 3.28501,2.30092 17.497283,23.66131 15.661924,23.53916 -0.403104,-0.0268 -4.332916,-2.78889 -8.732916,-6.13791 z m 58.526086,-1.56331 c -2.08652,-6.86173 -4.82781,-19.53893 -4.97347,-23.000003 -0.0289,-0.6875 0.83882,-1.25 1.92834,-1.25 1.35389,0 2.16437,0.87049 2.5604,2.750003 0.3187,1.5125 1.00592,3.53723 1.52715,4.4994 0.86407,1.59502 2.8726,17.10313 2.91417,22.5006 0.0342,4.44193 -1.64194,2.11194 -3.95659,-5.5 z m 69.51371,-1.50098 c 0.83483,-3.88446 7.01116,-18.96519 11.06072,-27.006933 2.47464,-4.91423 3.26581,-5.72013 5.39949,-5.5 2.09226,0.21585 2.54935,0.84824 2.80259,3.87742 0.33345,3.98878 0.13915,4.36958 -10.30259,20.191663 -7.58498,11.49331 -10.13246,13.89228 -8.96021,8.43785 z M 90.797751,118.67649 C 84.541455,112.18205 74.004344,95.695807 74.004344,92.401727 c 0,-3.62501 2.040395,-3.91962 5.022731,-0.72524 1.155352,1.2375 4.871468,7.7625 8.258035,14.500003 3.386567,6.7375 6.685663,12.25 7.331325,12.25 0.986813,0 2.387909,2.1016 2.387909,3.58179 0,1.53009 -3.154057,-0.16306 -6.206593,-3.33179 z m 20.869499,-8 C 104.22502,98.861877 98.073066,80.691097 100.64466,78.119507 c 1.1302,-1.1302 6.2439,2.60144 7.19104,5.24755 1.96946,5.50226 4.11868,13.86372 5.22032,20.309433 0.6345,3.7125 1.55745,6.75 2.05098,6.75 0.49354,0 0.89735,0.9 0.89735,2 0,3.08222 -1.73391,2.38259 -4.3371,-1.75 z m 62.3371,0.29063 c 0,-3.31597 3.5663,-17.143923 5.42649,-21.040633 0.78767,-1.65 2.33863,-5.1375 3.44659,-7.75 2.1779,-5.13538 4.35851,-6.0543 6.20032,-2.61285 1.7508,3.27139 0.52139,7.8582 -4.14084,15.4491 -2.33548,3.80256 -5.32978,9.267653 -6.654,12.144633 -2.81507,6.116 -4.27856,7.41913 -4.27856,3.80975 z m -22.00265,-4.04063 c -1.27695,-3.21596 -0.89608,-28.491513 0.47843,-31.750003 0.40601,-0.9625 1.65294,-1.75 2.77097,-1.75 2.68558,0 4.69131,2.78414 4.68267,6.5 -0.004,1.65 -1.5221,9.075 -3.37392,16.5 -3.1983,12.823813 -3.42661,13.349733 -4.55815,10.500003 z m -20.99735,-2.09292 c 0,-0.3261 -0.87761,-4.938603 -1.95025,-10.250003 -2.71745,-13.45601 -3.23833,-18.93619 -2.0168,-21.21865 0.86309,-1.6127 1.41627,-1.76838 3.0937,-0.87065 3.80113,2.0343 4.89526,6.7959 4.1592,18.10051 -0.37,5.68244 -0.69818,11.344213 -0.72929,12.581713 -0.0311,1.2375 -0.61906,2.25 -1.30656,2.25 -0.6875,0 -1.25,-0.26681 -1.25,-0.59292 z"
     id="path93"
     inkscape:connector-curvature="0" />
</svg>
