<?xml version="1.0" encoding="UTF-8" standalone="no"?>
<!-- Created with Inkscape (http://www.inkscape.org/) -->

<svg
   xmlns:dc="http://purl.org/dc/elements/1.1/"
   xmlns:cc="http://creativecommons.org/ns#"
   xmlns:rdf="http://www.w3.org/1999/02/22-rdf-syntax-ns#"
   xmlns:svg="http://www.w3.org/2000/svg"
   xmlns="http://www.w3.org/2000/svg"
   xmlns:sodipodi="http://sodipodi.sourceforge.net/DTD/sodipodi-0.dtd"
   xmlns:inkscape="http://www.inkscape.org/namespaces/inkscape"
   version="1.1"
   id="svg2949"
   width="283"
   height="443"
   viewBox="0 0 283 443"
   sodipodi:docname="feu79.svg"
   inkscape:version="0.92.4 (5da689c313, 2019-01-14)">
  <metadata
     id="metadata2955">
    <rdf:RDF>
      <cc:Work
         rdf:about="">
        <dc:format>image/svg+xml</dc:format>
        <dc:type
           rdf:resource="http://purl.org/dc/dcmitype/StillImage" />
        <dc:title></dc:title>
      </cc:Work>
    </rdf:RDF>
  </metadata>
  <defs
     id="defs2953" />
  <sodipodi:namedview
     pagecolor="#ffffff"
     bordercolor="#666666"
     borderopacity="1"
     objecttolerance="10"
     gridtolerance="10"
     guidetolerance="10"
     inkscape:pageopacity="0"
     inkscape:pageshadow="2"
     inkscape:window-width="1280"
     inkscape:window-height="972"
     id="namedview2951"
     showgrid="false"
     inkscape:zoom="1.5067919"
     inkscape:cx="112.64858"
     inkscape:cy="221.5"
     inkscape:window-x="-8"
     inkscape:window-y="-8"
     inkscape:window-maximized="1"
     inkscape:current-layer="svg2949"
     showguides="false" />
  <path
     style="fill:#ffff00"
     d="m 136.07673,343.88031 c -3.7334,-2.49286 -4.15596,-7.82456 -1.84505,-23.27987 2.26953,-15.1785 2.74995,-15.0425 4.90383,1.38821 1.81066,13.81255 1.91519,18.09025 0.50634,20.72271 -1.11395,2.08143 -1.84135,2.31993 -3.56512,1.16895 z m -24.56443,-3.6969 c -0.83827,-1.83979 -0.80783,-4.43086 0.12042,-10.25 1.39042,-8.71648 6.85902,-26.80642 7.81469,-25.85074 0.71297,0.71297 0.47273,16.43066 -0.42609,27.87616 -0.61152,7.78713 -1.95113,10.68679 -4.93716,10.68679 -0.7975,0 -1.95484,-1.10799 -2.57186,-2.46221 z m 45.97024,0.73654 c -3.27724,-3.75516 -3.97254,-6.81918 -4.44798,-19.60104 -0.594,-15.96929 0.29362,-15.71593 6.13912,1.75236 3.27853,9.79735 3.72253,12.10317 2.93332,15.23364 -1.08591,4.30736 -2.4663,5.08794 -4.62446,2.61504 z m 21.47795,-5.25624 c -3.00739,-3.51238 -10.31273,-32.01809 -8.20548,-32.01809 1.36675,0 11.88075,19.16859 13.87052,25.28802 1.0467,3.21906 0.9894,4.1578 -0.38145,6.25 -1.95266,2.98012 -3.05706,3.08047 -5.28359,0.48007 z m -90.616802,-2.68476 c -1.628786,-1.62878 -0.355076,-6.752 3.480195,-13.99831 5.561532,-10.50788 12.258607,-19.96959 12.678127,-17.91184 0.41662,2.04352 -5.404218,20.83172 -8.077222,26.07124 -2.75119,5.39278 -6.104406,7.81561 -8.0811,5.83891 z m 112.255222,-8.04332 c -1.39093,-1.53451 -3.48702,-5.04001 -4.65798,-7.79001 -1.17095,-2.75 -3.28436,-7.64188 -4.69645,-10.87084 -5.13719,-11.74693 -3.43388,-11.10655 8.64427,3.24994 7.3818,8.77425 7.87124,9.64485 7.58947,13.5 -0.38298,5.2399 -3.16205,6.01187 -6.87931,1.91091 z M 68.343688,322.97895 c -2.382543,-2.38254 0.787971,-8.09108 11.338258,-20.41465 5.515757,-6.44284 8.217402,-9.02969 8.810736,-8.43635 1.003573,1.00357 -12.243747,24.08314 -15.618629,27.21087 -2.623128,2.43103 -3.44274,2.72776 -4.530365,1.64013 z m 74.006402,-3.60987 c -1.65925,-3.49663 -1.55791,-11.63324 0.35775,-28.72346 0.52403,-4.675 0.95647,-8.9275 0.96099,-9.45 0.005,-0.6 0.34878,-0.6 0.93263,0 1.0793,1.10915 4.07557,25.88628 4.07557,33.70218 0,7.98794 -3.48834,10.45317 -6.32694,4.47128 z m -16.31342,-0.42668 c -0.89748,-3.57584 2.29647,-27.98593 4.59891,-35.14771 l 1.81612,-5.64907 0.0186,18.5 c 0.0146,14.49006 -0.31082,19.20445 -1.50128,21.75 -1.84959,3.95495 -4.0167,4.19518 -4.93239,0.54678 z m 36.27028,-1.15322 c -1.74508,-1.92829 -4.03503,-13.42778 -5.10652,-25.64356 -0.3377,-3.85 -0.8687,-8.4625 -1.17999,-10.25 -0.3173,-1.82198 -0.13978,-3.25 0.40401,-3.25 1.41828,0 10.33291,27.37824 10.99109,33.7554 0.41819,4.05183 0.2041,5.66744 -0.83847,6.32754 -1.96787,1.24596 -2.37309,1.15681 -4.27012,-0.93938 z m -55.5502,-0.99461 c -1.22275,-2.28471 -0.0426,-7.51811 3.8938,-17.2673 3.52335,-8.7262 9.01903,-19.22244 9.70527,-18.53619 0.39753,0.39753 -1.94074,12.03364 -5.75812,28.65454 -1.15305,5.02038 -2.57825,7.30791 -5.15542,8.27473 -1.12191,0.42089 -2.07062,0.0232 -2.68553,-1.12578 z m 75.50565,-4.65133 c -1.27552,-1.37631 -3.22314,-5.08881 -4.32806,-8.25 -3.82416,-10.94105 -8.25731,-25.10918 -8.25731,-26.38996 0,-2.21356 2.49308,1.10242 6.49763,8.64234 2.04479,3.85 5.24749,9.489 7.11711,12.53111 4.11972,6.7033 5.38066,10.74904 4.27863,13.72811 -1.07201,2.8979 -2.44247,2.83036 -5.308,-0.2616 z m 38.65001,-1.74762 c -3.01343,-2.11342 -16.17048,-17.8917 -18.41221,-22.08042 -1.31087,-2.44938 -0.81696,-2.15261 10.70413,6.43161 14.01141,10.43973 16.45607,13.51544 13.2727,16.69881 -1.60239,1.60239 -1.84904,1.55585 -5.56462,-1.05 z m -132.52654,0.62552 c -2.456235,-2.45624 0.419149,-8.27861 11.208826,-22.69679 6.480574,-8.65995 9.082334,-11.63105 9.082334,-10.37164 0,0.60142 -8.43072,18.92949 -12.278456,26.69291 -3.058596,6.17121 -5.931283,8.45694 -8.012704,6.37552 z m -40.042182,-2.04219 c -1.867596,-1.86759 -0.331107,-5.51417 4.083333,-9.69106 7.918135,-7.49203 22.25,-17.85663 22.25,-16.09088 0,1.30542 -10.717239,16.06247 -15.350343,21.13658 -3.594913,3.9371 -5.557731,5.31203 -7.583333,5.31203 -1.503145,0 -3.032991,-0.3 -3.399657,-0.66667 z m 24.388814,-8.76648 c -0.923724,-1.11302 -0.89327,-1.99835 0.136332,-3.96342 1.159058,-2.21214 26.541573,-28.60343 27.510096,-28.60343 0.72602,0 -1.608559,3.65049 -6.36513,9.9529 -2.660228,3.52478 -6.746384,9.13983 -9.080345,12.47789 -4.667577,6.67564 -8.989933,11.56921 -10.218755,11.56921 -0.436034,0 -1.328023,-0.64492 -1.982198,-1.43315 z m 125.254348,-0.81685 c -3.17513,-3.50403 -17.56847,-28.82489 -16.81332,-29.5781 0.3705,-0.36954 1.64786,0.50674 2.83857,1.94729 1.19071,1.44055 6.32743,7.6016 11.41493,13.69121 9.79799,11.72795 11.70624,16.1896 6.92431,16.1896 -1.27912,0 -3.24315,-1.0125 -4.36449,-2.25 z m -62.29456,-0.23161 c -1.28775,-1.55165 -1.66543,-15.65738 -0.47097,-17.59005 1.39192,-2.25218 2.42723,0.8529 3.06924,9.2053 0.67009,8.71757 -0.14339,11.3427 -2.59827,8.38475 z m 15.99625,-0.005 c -1.3921,-1.67738 -3.36828,-19.12759 -2.3523,-20.77148 0.86324,-1.39675 2.30807,1.48689 4.07422,8.13143 2.71934,10.2306 1.81117,16.89716 -1.72192,12.64005 z m -30.34484,-1.18054 c -1.85326,-1.85325 0.67623,-13.16827 4.22403,-18.89515 0.97482,-1.57355 1.13497,-0.21472 0.85128,7.22286 -0.37935,9.94551 -2.32574,14.42186 -5.07531,11.67229 z m 43.94834,-5.11093 c -1.86665,-3.60969 -3.90684,-14.97534 -3.38161,-18.83852 0.35104,-2.58201 0.79539,-2.04649 4.24502,5.11612 4.27648,8.8794 5.25075,15.68905 2.32942,16.28131 -1.06026,0.21495 -2.25256,-0.74062 -3.19283,-2.55891 z m -58.61501,-0.47101 c 0,-2.52227 5.37,-13.24351 7.19975,-14.37436 1.52353,-0.9416 0.0485,8.12977 -2.0449,12.57552 -2.01241,4.27388 -5.15485,5.37047 -5.15485,1.79884 z m 121.95862,-5.07281 c -9.50851,-8.18125 -13.51219,-12.45787 -12.55702,-13.41304 0.9683,-0.96829 18.23473,7.9865 23.04553,11.95197 4.59399,3.78676 4.59906,7.13157 0.0115,7.58077 -2.50508,0.24529 -4.3566,-0.83383 -10.5,-6.1197 z m -195.123485,1.57506 c -2.500318,-0.55119 -3.101785,-3.30104 -1.185236,-5.41881 3.2123,-3.54955 10.629938,-7.78753 19.953072,-11.39995 5.137858,-1.99075 9.858526,-3.44723 10.490372,-3.23662 1.080567,0.36019 -11.71988,11.67996 -18.847376,16.66723 -3.646795,2.55174 -7.910495,3.93934 -10.410832,3.38815 z m 180.635455,-0.69734 c -1.65074,-0.69408 -5.42756,-3.91558 -8.39293,-7.15889 -7.06886,-7.7314 -16.45464,-19.36718 -15.96444,-19.7915 0.85207,-0.73757 28.84072,20.99807 29.8274,23.16359 1.36776,3.0019 1.36895,2.99494 -0.70465,4.10469 -1.17054,0.62645 -2.77381,0.5195 -4.76538,-0.31789 z m -33.69909,-1.30582 c -2.2106,-2.51454 -5.37601,-9.10225 -6.6069,-13.75 l -1.05934,-4 6.44737,6.86398 c 4.85493,5.16863 6.44737,7.57679 6.44737,9.75 0,3.38256 -2.73171,3.9761 -5.2285,1.13602 z m -122.173743,0.0144 c -2.617795,-2.61779 1.452424,-7.01048 16.313579,-17.60606 19.677337,-14.02937 20.81818,-13.7173 5.338655,1.46034 -13.394466,13.13324 -19.850531,17.94743 -21.652234,16.14572 z m 34.402234,-0.65439 c 0,-1.24753 5.399798,-8.94462 10.951009,-15.61001 l 2.08211,-2.5 -0.96805,2.68753 c -1.54781,4.29707 -6.155521,13.15627 -7.834057,15.06247 -1.845307,2.0956 -4.231012,2.29859 -4.231012,0.36001 z m 98.644689,-8.67486 c -2.82028,-2.21843 -8.61883,-11.44717 -8.6353,-13.7436 -0.01,-1.32838 9.96539,5.86542 13.32827,9.6122 2.1024,2.34241 1.88039,5.53058 -0.41592,5.97281 -0.85541,0.16473 -2.78008,-0.6639 -4.27705,-1.84141 z m -109.394689,0.34639 c -2.269951,-0.81393 -1.307669,-3.04631 3.140566,-7.28575 4.826467,-4.59991 10.609434,-8.46512 10.609434,-7.0911 0,1.4892 -8.803802,12.92205 -10.703849,13.9003 -0.987883,0.50861 -2.358651,0.72306 -3.046151,0.47655 z m 160.250009,-9.59858 c -12.84699,-7.48765 -17.76772,-10.74858 -17.15068,-11.36561 0.29606,-0.29606 5.85107,1.12855 12.34448,3.16579 16.92286,5.30937 22.13641,8.60667 19.20101,12.14361 -1.94641,2.34528 -5.07493,1.48815 -14.39481,-3.94379 z m -108.56183,2.2015 c -1.24635,-2.32882 -0.32248,-19.88446 1.04642,-19.88446 0.98729,0 4.01541,11.97078 4.01541,15.87373 0,6.0338 -2.79423,8.2478 -5.06183,4.01073 z m 83.46442,-3.47081 c -12.22452,-7.67085 -18.8926,-12.84088 -17.0524,-13.22142 0.81856,-0.16927 3.66213,0.76964 6.31905,2.08648 2.65692,1.31683 8.43076,3.82334 12.83076,5.57 9.49034,3.76738 14.11905,7.0957 13.19973,9.49139 -1.19748,3.1206 -6.05281,1.87434 -15.29714,-3.92645 z m -74.07237,2.37534 c -1.35225,-3.01582 -1.70209,-15.44113 -0.45643,-16.21099 1.45167,-0.89718 5.27228,10.22041 4.92635,14.33521 -0.35549,4.22849 -2.93049,5.30908 -4.46992,1.87578 z m -18.33584,-0.29576 c -1.41819,-1.70882 -0.18247,-7.63563 3.17818,-15.24323 3.00504,-6.80262 4.18967,-5.44198 3.37665,3.87835 -1.01133,11.59362 -3.2064,15.39948 -6.55483,11.36488 z m -78.481616,-0.47256 c -1.062573,-1.71928 1.394486,-4.88201 5.797206,-7.46218 5.669366,-3.32247 30.710875,-13.87097 31.36826,-13.21358 1.104806,1.1048 -15.865323,12.51771 -28.016192,18.84171 -5.521144,2.87351 -8.177724,3.40605 -9.149274,1.83405 z m 105.838396,-1.60748 c -2.22989,-3.40325 -3.30065,-15.89635 -1.30544,-15.23128 1.84036,0.61345 6.97179,10.78115 7.23411,14.33406 0.30797,4.17124 -3.41435,4.73455 -5.92867,0.89722 z m 52.14592,1.15384 c -3.09793,-1.30265 -14.88985,-11.50759 -14.15095,-12.24649 0.85074,-0.85075 17.66564,7.83294 18.61979,9.61579 1.52711,2.85342 -0.75054,4.19421 -4.46884,2.6307 z M 21.269883,267.02702 c -1.516939,-3.95308 12.002989,-11.25514 25.657138,-13.85731 1.5125,-0.28825 3.9875,-0.76908 5.5,-1.06851 l 2.75,-0.54443 -3,2.5294 c -1.65,1.39117 -7.764342,5.23616 -13.587426,8.54442 -10.923121,6.20575 -16.119268,7.52474 -17.319712,4.39643 z m 93.417927,-1.86841 c -1.66737,-2.00906 -0.78181,-4.8912 3.69106,-12.01299 2.88976,-4.60113 3.85644,-5.54395 4.14626,-4.04392 0.51757,2.6789 -1.71694,12.5405 -3.46541,15.29392 -1.67117,2.63168 -2.67556,2.80697 -4.37191,0.76299 z m -44.010789,-0.29048 c 0,-2.11287 3.711055,-5.52227 9.588556,-8.80916 3.583156,-2.00381 6.718441,-3.43969 6.967299,-3.19083 0.944436,0.94444 -12.455379,12.77748 -14.469301,12.77748 -1.147605,0 -2.086554,-0.34987 -2.086554,-0.77749 z m 92.142069,-0.55134 c -1.51494,-1.82539 -6.15121,-14.31873 -6.10235,-16.444 0.0469,-2.04192 8.21529,6.43148 10.54742,10.94133 2.38403,4.6102 -1.34973,9.23233 -4.44507,5.50267 z m -56.67719,-3.72801 c -1.31833,-2.1331 0.65737,-5.89058 6.04626,-11.4991 3.03634,-3.1601 5.79128,-5.47498 6.12209,-5.14418 0.93386,0.93387 -5.10456,13.12969 -7.69631,15.54427 -2.59092,2.41381 -3.51856,2.64178 -4.47204,1.09901 z m 64.89406,-3.19316 c -3.9322,-4.44664 -10.24704,-15.4007 -8.15913,-14.15328 4.50284,2.69022 11.64974,8.75362 12.75742,10.82334 2.62411,4.9032 -0.93062,7.47743 -4.59829,3.32994 z m 34.91344,-6 c -11.08924,-5.98946 -13.5888,-8.72222 -6.21614,-6.79609 1.89407,0.49483 6.07153,1.42289 9.28324,2.06236 6.6814,1.33031 10.51528,4.24889 8.605,6.55064 -1.84855,2.22737 -5.13001,1.71656 -11.6721,-1.81691 z m 24.22763,0.1949 c -16.44813,-6.0464 -26.59305,-10.18518 -26.12153,-10.6567 0.73736,-0.73737 27.03616,4.61812 33.35704,6.79283 6.54568,2.25204 8.34288,3.55111 7.59806,5.49208 -0.84196,2.19413 -5.96543,1.63175 -14.83357,-1.62821 z m -133.477773,0.8051 c 0.03387,-1.90406 2.965994,-5.12801 8.304373,-9.13087 8.37549,-6.2802 8.43486,-4.01908 0.13681,5.21034 -4.35089,4.83922 -8.491737,6.76245 -8.441183,3.92053 z m 78.331953,-3.97635 c -7.58996,-7.17827 -9.67921,-11.24848 -4.30852,-8.39373 8.55048,4.54495 11.62725,6.68901 12.95434,9.02732 1.33333,2.3493 1.33333,2.74959 0,3.60255 -2.361,1.51039 -2.79407,1.2982 -8.64582,-4.23614 z m -113.817346,2.28596 c -1.063957,-1.72152 3.54768,-4.83599 10.444265,-7.05354 9.43887,-3.035 11.87855,-2.38929 6.018892,1.59302 -7.361852,5.00322 -15.149409,7.58621 -16.463157,5.46052 z m 187.963166,-1.47408 c -8.9326,-3.43944 -15.33428,-6.50837 -16.07446,-7.70601 -0.73544,-1.18996 7.35564,-0.55429 21.49911,1.68906 5.99976,0.95165 9.022,1.94223 10.5,3.44152 2.04763,2.07712 2.04942,2.12451 0.13422,3.54757 -2.79255,2.07496 -9.14374,1.69049 -16.05887,-0.97214 z m -213.325112,0.12521 c -0.911944,-1.09883 -0.784755,-1.75384 0.580464,-2.98934 1.946163,-1.76126 6.437715,-3.67048 10.244639,-4.35469 1.375,-0.24712 7.225,-1.31415 13,-2.37118 19.873526,-3.63754 21.09702,-3.35763 7.983843,1.82656 -19.222692,7.59952 -29.859586,10.23748 -31.808946,7.88865 z m 100.937762,-4.91445 c -1.0408,-2.73751 0.72294,-18.79629 2.0644,-18.79629 0.45262,0 0.82295,-0.9 0.82295,-2 0,-4.44706 1.84825,-1.47298 4.92766,7.92926 3.25758,9.94622 3.39931,14.07074 0.48351,14.07074 -2.07777,0 -3.32234,-3.4114 -4.37792,-12 l -0.92179,-7.5 0.50577,9.07651 c 0.41241,7.40103 0.22058,9.3132 -1.03916,10.35869 -1.30547,1.08345 -1.6876,0.90692 -2.46542,-1.13891 z m 49.43449,1.40676 c -2.4141,-0.52888 -15.81288,-9.27064 -15.17978,-9.90374 0.76374,-0.76375 12.8548,2.64634 16.09704,4.5399 4.90059,2.8621 4.27813,6.50204 -0.91726,5.36384 z m -96.547149,-1.63162 c 0,-0.78572 0.724796,-2.15337 1.610657,-3.03923 1.655176,-1.65518 9.429912,-5.84081 14.201822,-7.64574 2.6011,-0.98384 2.57497,-0.89789 -0.81247,2.67266 -7.258944,7.65131 -15.000009,11.78623 -15.000009,8.01231 z m -75.25,-0.6597 c -2.201734,-1.27211 -2.256251,-4.24669 -0.110471,-6.02753 0.901742,-0.74838 3.714242,-1.90723 6.25,-2.57523 5.963685,-1.57103 24.595371,-3.58357 29.110471,-3.14443 l 3.5,0.34041 -3.012552,1.65042 c -4.243119,2.32457 -22.421958,8.55406 -27.089441,9.28295 -2.143904,0.33479 -4.573007,0.80577 -5.398007,1.04662 -0.825,0.24084 -2.2875,-0.0171 -3.25,-0.57321 z m 115.250009,-1.50436 c 0,-3.46434 4.99891,-17.40737 6.24096,-17.40737 0.55584,0 0.73837,1.40969 0.42081,3.25 -0.30845,1.7875 -0.86605,5.5 -1.23911,8.25 -0.37307,2.75 -1.08661,5.7875 -1.58566,6.75 -1.39739,2.69509 -3.837,2.15934 -3.837,-0.84263 z m 20.81285,-0.12624 c -1.75525,-2.01249 -7.29669,-18.13062 -6.50539,-18.92192 0.28267,-0.28267 2.29287,2.55837 4.46711,6.31342 6.62422,11.44047 6.60102,11.38035 5.00621,12.97516 -1.21929,1.21929 -1.62882,1.16869 -2.96793,-0.36666 z m -27.81285,-1.76611 c 0,-2.14392 10.83699,-20.01137 11.6464,-19.20195 0.56638,0.56638 -4.36209,14.39704 -6.29831,17.67481 -1.84613,3.12524 -5.34809,4.12522 -5.34809,1.52714 z m 32.66167,-2.76502 c -3.89341,-5.18566 -8.66167,-13.35053 -8.66167,-14.83171 0,-1.45503 12.46964,10.35738 14.14096,13.39563 0.69313,1.26003 0.63389,2.25244 -0.19401,3.25 -1.73646,2.09231 -2.5663,1.8075 -5.28528,-1.81392 z m 56.83833,1.27469 c -7.77696,-2.33694 -11.5,-3.82398 -11.5,-4.59326 0,-1.35798 19.51,0.80542 21.27363,2.35896 3.75665,3.30915 -1.89623,4.60143 -9.77363,2.2343 z m -30.85005,-3.11424 c -3.21752,-1.67403 -5.61494,-3.27879 -5.3276,-3.56613 0.74435,-0.74435 14.52735,1.50487 16.85486,2.75052 2.83717,1.51841 1.68745,3.37071 -2.25451,3.63223 -2.2151,0.14696 -5.48671,-0.8468 -9.27275,-2.81662 z M 57.012854,236.0784 c -0.330769,-0.86197 -0.158569,-2.01004 0.382666,-2.55128 2.531233,-2.53123 26.344364,-6.41027 24.888209,-4.05416 -0.810598,1.31158 -10.366337,4.97627 -17.606708,6.75229 -6.99399,1.7156 -6.949151,1.71645 -7.664167,-0.14685 z m 29.414167,-0.18986 c -4.644781,-1.03398 -0.315266,-4.10166 10.25,-7.26264 4.124999,-1.23415 7.837509,-2.43614 8.250009,-2.67111 0.4125,-0.23496 0.74693,-0.0632 0.74317,0.38181 -0.0193,2.28049 -16.08469,10.25506 -19.243179,9.55194 z m 31.250009,-0.99456 c 0,-1.78259 11.55738,-14.24836 13.21007,-14.24836 1.23947,0 -4.08852,9.37795 -7.4037,13.03147 -3.00017,3.30636 -5.80637,3.89448 -5.80637,1.21689 z m 115.5,0.64547 c -2.2,-0.49789 -8.1935,-1.84669 -13.31889,-2.99733 -5.12538,-1.15063 -9.09586,-2.31508 -8.82328,-2.58766 0.69147,-0.69148 29.4055,-0.40141 33.47201,0.33813 6.97376,1.26826 4.26865,6.43917 -3.27097,6.25258 -2.23238,-0.0553 -5.85887,-0.50782 -8.05887,-1.00572 z m -73.13323,-3.14383 c -3.63974,-2.71012 -11.41468,-11.03543 -10.84133,-11.60877 0.58162,-0.58163 14.73656,7.81308 16.15588,9.58138 1.3514,1.6837 0.68801,4.27739 -1.09403,4.27739 -0.6593,0 -2.55854,-1.0125 -4.22052,-2.25 z m 31.13323,-0.22412 c -0.55,-0.19428 -3.5875,-1.12867 -6.75,-2.07644 -3.1625,-0.94777 -5.75,-2.11162 -5.75,-2.58633 0,-1.00879 11.34563,-0.98485 15,0.0316 3.09429,0.86072 3.47513,4.51282 0.5,4.79479 -1.1,0.10426 -2.45,0.0306 -3,-0.16367 z m -78.48469,-2.77588 c 0.008,-0.6875 0.34592,-1.73352 0.75,-2.32449 0.78852,-1.15321 17.98525,-11.43664 19.07869,-11.40881 0.3608,0.009 -2.92207,3.38418 -7.29526,7.5 -5.13717,4.83483 -8.76482,7.4833 -10.25,7.4833 -1.26431,0 -2.29185,-0.5625 -2.28343,-1.25 z m -80.815319,-0.95 c -3.778265,-3.77826 1.144629,-5.80162 14.097053,-5.79401 13.364314,0.008 27.25264,1.11356 25.550366,2.03417 -0.741081,0.40078 -4.722419,1.27584 -8.847419,1.94456 -4.125,0.66873 -9.945147,1.62074 -12.933659,2.11558 -7.645836,1.26599 -16.447995,1.11805 -17.866341,-0.3003 z m 126.943359,-4.74195 c -11.52615,-7.01969 -10.6484,-7.87384 2.84581,-2.7693 5.65876,2.14058 8.60057,3.79472 8.82332,4.96125 0.5763,3.01803 -4.76049,2.01556 -11.66913,-2.19195 z m 88.35665,1.8419 c -9.95748,-1.42087 -15.94631,-3.07068 -14.36301,-3.95674 2.38405,-1.33418 29.06416,-3.31416 34.17126,-2.53591 5.70109,0.86877 7.1083,3.02723 3.74772,5.74846 -2.52841,2.04738 -12.26705,2.35505 -23.55597,0.74419 z M 83.343688,224.97895 c -2.533693,-2.53369 1.393814,-4.65948 10.833333,-5.86363 2.75,-0.3508 5.840739,-0.87221 6.868309,-1.1587 1.19922,-0.33434 1.7209,-0.0786 1.45665,0.71411 -0.47609,1.42829 -13.314817,6.84487 -16.408292,6.92257 -1.145834,0.0288 -2.383334,-0.24768 -2.75,-0.61435 z m 103.833342,-0.83038 c -0.55,-0.18654 -2.8,-0.67631 -5,-1.08839 l -4,-0.74922 6.5,-1.28599 c 8.24692,-1.63161 12.28815,-1.6912 13.77621,-0.20314 2.0621,2.0621 -0.60589,3.83087 -5.64865,3.74484 -2.54516,-0.0434 -5.07756,-0.23157 -5.62756,-0.4181 z m 22,-0.23788 c -9.21822,-0.91888 -4.36461,-3.18531 10.35389,-4.83482 7.1311,-0.79919 9.39312,0.53434 6.44053,3.79691 -1.61555,1.78517 -6.35779,2.07824 -16.79442,1.03791 z m -99.32332,-1.91787 c 0.28881,-1.47639 12.54942,-6.78628 19.98757,-8.65633 l 2.33575,-0.58723 -2.26454,1.87024 c -1.24549,1.02864 -5.14361,3.48032 -8.66248,5.44818 -6.95314,3.88842 -11.94534,4.73174 -11.3963,1.92514 z m -92.465463,-2.25473 c -7.260005,-0.55225 -9.6366548,-1.60277 -9.6959139,-4.28577 -0.040615,-1.83886 4.8624719,-3.80556 9.4571939,-3.7934 4.308086,0.0114 18.122766,2.15387 29.261263,4.53803 5.35,1.14515 2.813755,2.19726 -6.976835,2.8942 -5.091314,0.36242 -10.381934,0.78955 -11.756934,0.94918 -1.375,0.15963 -6.004948,0.0236 -10.288774,-0.30224 z M 160.17703,218.8866 c -9.56385,-3.74104 -10.78543,-4.28838 -10.40354,-4.66142 0.22195,-0.2168 4.76554,-0.0622 10.09687,0.34365 10.15311,0.77284 13.7588,2.22462 11.69656,4.70947 -1.46105,1.76045 -6.31472,1.59353 -11.38989,-0.3917 z m -105.250009,0.0967 c -2.181084,-0.88009 -1.34943,-3.27466 1.374781,-3.95839 3.447967,-0.86539 19.435835,0.28129 20.634481,1.47993 1.988392,1.98839 -17.722836,4.20807 -22.009262,2.47846 z m 52.305779,-2.24748 c -1.2756,-2.06396 0.7951,-4.01571 4.7828,-4.50805 19.76122,-2.43981 22.25054,-1.46582 7.29956,2.85609 -9.69259,2.80186 -11.24085,3.01355 -12.08236,1.65196 z m 73.94423,-0.0266 c -1.79025,-0.71235 -1.63294,-0.9508 1.5,-2.2737 1.925,-0.81284 5.87154,-2.08549 8.77009,-2.8281 4.71451,-1.20787 5.44541,-1.17489 6.93316,0.31286 1.55076,1.55076 1.53893,1.80024 -0.17508,3.6942 -1.50908,1.66752 -3.01879,2.01855 -8.43316,1.96084 -3.62725,-0.0386 -7.49501,-0.4284 -8.59501,-0.8661 z m 43.5,-2.06361 c -8.525,-0.275 -15.05,-0.77783 -14.5,-1.1174 0.55,-0.33957 4.0375,-1.12707 7.75,-1.75 3.7125,-0.62293 9.74292,-1.64637 13.40093,-2.27431 8.44771,-1.45015 18.02547,-1.58189 19.34132,-0.26604 1.83298,1.83298 -1.38622,4.63617 -6.07635,5.29111 -2.42874,0.33915 -11.3909,0.39164 -19.9159,0.11664 z m -141.750009,-0.6762 c -3.034278,-0.62426 -2.850514,-3.14499 0.317069,-4.3493 2.863333,-1.08864 16.432931,-0.15507 16.432931,1.13056 0,1.61666 -12.68701,4.05465 -16.75,3.21874 z m 54.436729,-1.69781 c -0.73052,-1.90369 1.81354,-4.03173 3.87445,-3.24089 0.87265,0.33487 1.43629,1.39771 1.25252,2.36188 -0.41903,2.1985 -4.36127,2.87439 -5.12697,0.87901 z m 14.06328,0.70227 c -2.0625,-0.24694 -3.75,-0.79454 -3.75,-1.21688 0,-1.07759 9.23005,-3.12142 17.22649,-3.8145 5.75821,-0.49909 6.82095,-0.33682 7.38278,1.12727 0.36096,0.94066 0.16308,2.2035 -0.43973,2.80631 -1.15945,1.15945 -14.09591,1.85494 -20.41954,1.0978 z m -116.428239,-3.5765 c -4.250634,-1.67413 -4.84109,-2.42109 -3.341826,-4.22759 1.812078,-2.18342 14.784338,-1.98192 28.903219,0.44896 17.989017,3.09721 17.041042,3.88283 -5.476126,4.53826 -12.205093,0.35527 -17.790921,0.14401 -20.085267,-0.75963 z m 74.119369,-1.18444 c -1.5523,-1.1457 -1.6916,-1.68568 -0.69541,-2.69572 1.2292,-1.24629 3.37982,-1.05339 20.00428,1.79428 6.59494,1.12967 2.95243,2.33412 -7.05887,2.33412 -7.37822,0 -10.8607,-0.40729 -12.25,-1.43268 z m 38.55887,0.68229 c 0,-1.33758 17.13236,-12.24961 19.23242,-12.24961 2.7276,0 3.34102,2.87101 1.0936,5.11843 -1.07354,1.07353 -5.07356,3.01606 -8.88895,4.31674 -10.25029,3.49435 -11.43707,3.78639 -11.43707,2.81444 z m 32.86901,-1.28954 c 2.79218,-2.3259 12.15814,-5.23725 15.37765,-4.78006 3.0987,0.44004 2.94373,3.91165 -0.24666,5.52572 -1.375,0.69563 -5.875,1.25645 -10,1.24626 l -7.5,-0.0185 2.36901,-1.97339 z m 25.63099,-0.87344 c 8.40792,-3.87491 16.05357,-6.28883 18.71643,-5.90924 3.08295,0.43947 3.41714,3.36309 0.59474,5.20294 -2.74844,1.79163 -13.30909,3.6312 -20.31117,3.53802 l -5,-0.0665 6,-2.76519 z m -82.5,-1.94664 c -10.17315,-3.33148 -13,-4.75972 -13,-6.56818 0,-1.71443 2.46222,-2.69736 4.75,-1.89622 3.26907,1.14476 18.23677,9.82048 18.2434,10.57441 0.01,1.09114 -0.63161,0.95576 -9.9934,-2.11001 z m 6.5,-1.78523 c -7.87575,-5.12914 -14.67912,-11.25593 -13.89957,-12.51727 1.43667,-2.32458 5.23087,-0.25202 12.51441,6.83592 4.33684,4.22038 7.88516,7.21513 7.88516,6.65499 0,-0.56013 -0.96425,-1.87567 -2.14279,-2.92341 -1.17853,-1.04775 -4.32853,-4.51585 -7,-7.70691 -5.1918,-6.20158 -6.22419,-9.69808 -2.86348,-9.69808 3.70968,0 12.75897,15.07376 12.7571,21.25 -4.6e-4,1.5125 -0.0571,2.73055 -0.12583,2.70679 -0.0687,-0.0238 -3.275,-2.09468 -7.125,-4.60203 z m 18.58771,-0.60476 c 7.64835,-9.39502 11.231,-12.75 13.61524,-12.75 3.27265,0 2.98638,3.37038 -0.55423,6.52507 -3.95066,3.52006 -15.34552,11.47493 -16.43712,11.47493 -0.49381,0 1.02544,-2.3625 3.37611,-5.25 z m -6.85771,1.98899 c -0.54813,-0.68144 -1.31833,-6.52365 -1.71156,-12.98267 -0.63738,-10.46951 -0.53313,-11.81345 0.96085,-12.38675 0.96145,-0.36894 2.36136,0.0425 3.28408,0.96523 1.42246,1.42246 1.46792,2.56486 0.3935,9.88675 -0.66814,4.55315 -1.42799,9.85345 -1.68855,11.77845 -0.26056,1.925 0.82927,-0.775 2.42185,-6 1.59258,-5.225 3.20359,-10.25271 3.58003,-11.17268 0.99078,-2.42134 3.65351,-3.13218 5.35589,-1.4298 1.8889,1.88889 0.57044,5.38373 -5.6012,14.84714 -4.98755,7.64775 -5.60557,8.22154 -6.99489,6.49433 z m 90.77,-0.61738 c 0,-0.61688 0.15302,-1.12161 0.34004,-1.12161 0.18702,0 3.89952,-0.91394 8.25,-2.03099 20.36628,-5.22932 28.22991,-6.09582 30.49977,-3.3608 1.13434,1.3668 1.04707,1.81853 -0.58136,3.00927 -3.62193,2.64842 -9.03984,3.58442 -23.75845,4.10453 -10.54266,0.37254 -14.75,0.20128 -14.75,-0.6004 z M 57.677021,202.75086 c -3.768998,-1.0484 -3.140909,-3.53923 1,-3.96574 3.383098,-0.34845 17.941778,1.43822 21,2.57716 4.538223,1.69013 -16.208348,2.99959 -22,1.38858 z m 79.624389,-3.38712 c -5.10549,-11.48185 -6.57883,-15.67326 -6.02066,-17.12781 0.75238,-1.96068 2.76606,-2.0546 4.3046,-0.20078 1.5066,1.81535 4.27754,15.16879 3.89186,18.75528 -0.28936,2.69082 -0.36779,2.63939 -2.1758,-1.42669 z m 38.87562,2.64843 c 1.86625,-1.46486 11.80898,-6.32225 15.75,-7.69446 4.38739,-1.52762 6.33825,2.05723 2.49126,4.57787 -2.28128,1.49476 -15.10815,4.777 -18.43867,4.71824 -1.65625,-0.0292 -1.64022,-0.15926 0.19741,-1.60165 z m -90.800009,-0.5455 c -3.350602,-1.22183 -3.059947,-3.20018 0.533077,-3.6284 2.383276,-0.28404 16.766932,3.49461 16.766932,4.40475 0,0.85048 -14.640487,0.19348 -17.300009,-0.77635 z m 120.300009,-1.8897 c 9.65865,-4.49854 31.50424,-11.17095 37,-11.3011 6.49299,-0.15377 7.32898,1.55753 2.38761,4.88752 -3.3264,2.24166 -25.76384,7.03002 -37.38761,7.97887 l -6.5,0.53059 z M 21.224453,196.50141 c -3.823912,-0.49018 -7.986412,-1.56863 -9.25,-2.39656 -4.4207901,-2.89661 -2.0062405,-6.55149 4.379338,-6.62895 5.649289,-0.0685 34.744135,7.42371 35.863764,9.23531 0.723617,1.17083 -21.390297,1.02114 -30.993102,-0.2098 z m 155.952577,-3.43788 c 7.02932,-6.16295 15.5,-9.49232 15.5,-6.09222 0,2.4831 -4.48679,5.4773 -11.35534,7.57782 -3.77043,1.15307 -7.14543,2.07959 -7.5,2.05894 -0.35456,-0.0206 1.15534,-1.61569 3.35534,-3.54454 z m 21.5,2.87283 c 0,-1.25784 9.89959,-7.06477 15.98753,-9.378 7.93248,-3.01411 12.12093,-0.50301 6.5155,3.90622 -3.23461,2.54434 -22.50303,7.22961 -22.50303,5.47178 z M 61.677021,194.12365 c -16.947296,-2.5976 -22.991932,-4.25577 -26.244639,-7.19943 -1.325822,-1.19985 -1.477913,-1.90798 -0.629385,-2.93039 2.336642,-2.81548 9.936751,-1.26132 31.124024,6.36461 14.353972,5.16643 12.958377,6.40283 -4.25,3.76521 z m 35.836474,-0.37184 c -7.418566,-1.9124 -9.836474,-3.44347 -9.836474,-6.22863 0,-2.96891 4.680479,-2.34475 12.547609,1.67328 3.82382,1.95296 7.61133,4.20296 8.41669,5 1.28208,1.26884 1.09544,1.43821 -1.5,1.36113 -1.63036,-0.0484 -5.96289,-0.86101 -9.627825,-1.80578 z m 71.163535,-2.00637 c 0,-1.00151 15.90996,-15.09982 17.04017,-15.09982 0.39322,0 1.27514,0.675 1.95983,1.5 1.75458,2.11414 0.29767,3.59868 -9.37133,9.54903 -8.19412,5.0427 -9.62867,5.64622 -9.62867,4.05079 z m -100.500009,-3.7442 c -3.85,-0.81473 -7.862826,-2.32837 -8.917392,-3.36365 -1.88789,-1.85335 -1.87899,-1.89981 0.578413,-3.01947 2.051682,-0.93481 3.846727,-0.68368 10.087501,1.41128 4.175433,1.40165 9.090148,3.46201 10.921587,4.5786 l 3.329891,2.03014 -4.5,-0.0778 c -2.475,-0.0428 -7.65,-0.74439 -11.5,-1.55912 z m 35.500009,-2.29506 c -7.905857,-4.04723 -11.632229,-7.22859 -10.538953,-8.99755 0.975986,-1.57918 4.756664,-1.28761 7.566433,0.58353 3.30345,2.19989 11.97252,10.57452 11.97252,11.56587 0,1.27663 -1.10603,0.8893 -9,-3.15185 z m 97.55,2.04197 c 2.3655,-2.23469 14.61771,-9.52874 24.47839,-14.5726 13.1165,-6.70925 18.21979,-7.3635 15.78691,-2.0239 -1.3973,3.06673 -13.78376,8.74583 -33.73229,15.46601 -6.657,2.24258 -7.94637,2.46569 -6.53301,1.13049 z m -32.01311,-8.85253 c 4.95735,-9.0218 7.91704,-12.09194 10.22391,-10.60543 2.74274,1.76738 1.55043,4.38561 -5.05729,11.10543 -8.17793,8.31667 -9.91868,8.14821 -5.16662,-0.5 z m 30.46311,2.27039 c 5.54458,-5.79104 12.20821,-10.52039 14.82319,-10.52039 3.1274,0 3.37926,2.73134 0.49819,5.40282 -2.62601,2.43498 -12.67484,7.70101 -17.32138,9.07718 -2.15342,0.63778 -1.87616,0.0889 2,-3.95961 z m 26.08333,4.12905 c 0.8328,-0.70066 12.63057,-6.62497 21.41667,-10.75449 11.34883,-5.33402 18.5,-5.701 18.5,-0.94939 0,3.89452 -7.04946,6.6646 -25.66373,10.08452 -10.04229,1.84503 -15.22043,2.43335 -14.25294,1.61936 z M 108.7951,177.01434 c -4.47404,-4.04876 -6.1378,-6.22381 -5.92042,-7.73978 0.80045,-5.58215 7.61717,-0.8747 12.39951,8.56279 3.31076,6.53348 1.37892,6.28809 -6.47909,-0.82301 z m -32.118079,3.20637 c -1.925,-0.73542 -9.490234,-3.60708 -16.811631,-6.38148 -18.068881,-6.84708 -20.744645,-8.8272 -16.588937,-12.27613 1.358039,-1.12707 2.452242,-0.88507 7.25,1.60346 13.203696,6.84856 32.49928,18.66059 30.114854,18.43517 -0.255357,-0.0241 -2.039286,-0.6456 -3.964286,-1.38102 z m 84.000009,-0.90716 c 0,-2.90997 4.90442,-15.12487 6.5584,-16.33429 2.08619,-1.52546 4.4416,-0.64547 4.4416,1.6594 0,1.88965 -6.98125,12.91658 -9.50219,15.00878 -1.22272,1.01477 -1.49781,0.95345 -1.49781,-0.33389 z m -115.500009,-1.1523 c -16.308925,-3.03783 -26.885202,-7.00321 -27.993679,-10.49571 -0.995679,-3.13711 0.22811,-4.01992 5.572591,-4.01992 4.182942,0 7.113952,1.10715 18.690983,7.06028 7.551558,3.88316 14.157605,7.48316 14.680105,8 1.267471,1.25375 -2.22862,1.07986 -10.95,-0.54465 z m 72.191859,-3.94758 c -6.75332,-7.82234 -8.1909,-12.56805 -3.80715,-12.56805 2.20625,0 5.60423,3.55109 7.17663,7.5 1.60414,4.02863 2.83378,10.5 1.99512,10.5 -0.37125,0 -2.78532,-2.44438 -5.3646,-5.43195 z m -37.523814,1.41102 c -11.850591,-3.49617 -17.945034,-7.97907 -10.847445,-7.97907 3.360745,0 14.336246,5.32899 17.643686,8.56662 1.835408,1.79667 1.057234,1.7294 -6.796241,-0.58755 z m 47.587034,-1.23012 c -2.68101,-4.09175 -7.75507,-14.66598 -7.75507,-16.16142 0,-2.18449 1.68668,-2.82558 4.0734,-1.54825 2.71072,1.45074 5.60234,8.00551 6.48958,14.71072 0.75426,5.70028 -0.30009,6.82636 -2.80791,2.99895 z m 26.72759,-4.7182 c 0.89131,-9.76664 2.56138,-12.97863 6.76734,-13.01544 0.9625,-0.008 1.75,0.6994 1.75,1.57295 0,1.89804 -5.37171,13.72428 -7.61476,16.76449 -1.47831,2.00369 -1.53865,1.64787 -0.90258,-5.322 z m -18.82381,5.22628 c -1.20386,-1.9479 -3.65885,-13.45598 -3.65885,-17.15137 0,-3.41449 0.33077,-4.10566 1.96482,-4.10566 3.02433,0 4.03518,3.10012 4.03518,12.37524 0,7.55979 -0.94424,11.14203 -2.34115,8.88179 z m 8.86806,-1.54362 c -0.41915,-1.53262 -0.51412,-6.03262 -0.21106,-10 0.79182,-10.3653 1.91003,-12.55602 4.69572,-9.19947 1.51714,1.82804 0.87348,7.47468 -1.82225,15.98606 -1.7794,5.61822 -1.94881,5.82269 -2.66241,3.21341 z m 62.37029,-7.76386 c 14.97397,-14.33867 22.9887,-19.01643 24.74414,-14.44183 1.43469,3.73876 -6.05732,9.84445 -23.73124,19.33998 -5.27445,2.83377 -9.99945,5.13107 -10.5,5.10511 -0.50056,-0.0259 3.76864,-4.52742 9.4871,-10.00326 z m -18.00181,4.70249 c 3.38149,-4.91482 13.65828,-14.65999 15.4352,-14.63673 2.58235,0.0338 3.93572,1.7875 3.30839,4.28699 -0.84547,3.3686 -16.7529,14.6977 -20.63736,14.6977 -0.60374,0 0.24846,-1.95658 1.89377,-4.34796 z M 84.177021,168.33279 c -9.210471,-5.2701 -24.590816,-16.00639 -26.954888,-18.81593 -3.168741,-3.76583 -3.178678,-4.62545 -0.06984,-6.04193 3.305817,-1.50623 6.932545,0.9328 20.313926,13.6614 13.316527,12.66691 15.423048,16.18148 6.7108,11.19646 z m 9.275342,-3.16595 c -2.598562,-1.33504 -7.240615,-4.03678 -10.315673,-6.00387 -4.397342,-2.81295 -5.52362,-4.0484 -5.275342,-5.78672 0.17362,-1.21561 1.0402,-2.34816 1.925732,-2.51679 2.103181,-0.40049 14.872955,9.79453 17.197855,13.73027 0.992837,1.68074 1.667217,3.04431 1.498622,3.03017 -0.168595,-0.0142 -2.432632,-1.11803 -5.031194,-2.45306 z m 127.780257,1.38884 c 1.19635,-1.93575 20.59904,-15.95473 25.56383,-18.47057 5.55279,-2.81382 7.17225,-2.9979 8.82753,-1.00341 1.34535,1.62104 -0.0234,5.10522 -2.86029,7.28065 -1.94781,1.49368 -11.5031,6.28327 -12.5352,6.28327 -0.41206,0 -2.16721,0.66643 -3.90033,1.48095 -2.92997,1.37702 -14.46265,5.51905 -15.3667,5.51905 -0.22135,0 -0.0993,-0.49047 0.27116,-1.08994 z m -40.55559,-2.76099 c 0,-1.72978 4.45222,-10.57952 7.50059,-14.90905 2.3335,-3.3142 3.55255,-4.20225 5.49086,-4 3.64814,0.38068 3.5247,2.77026 -0.40307,7.80293 -3.8075,4.87857 -12.58838,12.62551 -12.58838,11.10612 z m 9.96786,-4.89907 c 7.43746,-10.48701 17.48851,-22.08928 20.65158,-23.8388 4.19955,-2.3228 6.64067,-1.34275 5.77081,2.31684 -0.36238,1.52458 -1.32801,3.5427 -2.14584,4.48471 -0.81783,0.94202 -1.21696,2.4164 -0.88694,3.27641 0.46702,1.21703 1.436,0.63281 4.37128,-2.63556 5.21463,-5.80638 13.04908,-13.11121 15.62438,-14.56816 1.18078,-0.66802 3.15937,-1.23052 4.39687,-1.25 1.84885,-0.0291 2.25,0.50786 2.25,3.01188 0,2.29403 -1.05058,4.03124 -4.25,7.0277 -5.73623,5.37232 -26.11773,18.32178 -26.59301,16.89595 -0.20699,-0.62097 0.57301,-1.79398 1.73333,-2.6067 2.25093,-1.57662 2.76048,-3.84402 1.09516,-4.87324 -0.55798,-0.34486 -4.49548,2.48554 -8.75,6.28977 -7.64322,6.83429 -14.92463,12.2192 -16.52265,12.2192 -0.4526,0 1.01217,-2.5875 3.25503,-5.75 z m -126.967869,3.8145 c -0.825,-0.44984 -8.110232,-4.07784 -16.189404,-8.06224 -15.851826,-7.81762 -19.967448,-10.94279 -18.169949,-13.7972 2.410878,-3.82846 6.878973,-2.83768 14.885439,3.30076 3.285653,2.51906 8.223914,6.30898 10.973914,8.42205 8.196129,6.29781 13.114451,10.99019 11.5,10.9717 -0.825,-0.009 -2.175,-0.38523 -3,-0.83507 z m 34.476081,-2.18116 c -5.183968,-3.93695 -25.522172,-24.25217 -27.551732,-27.5206 -2.166808,-3.48945 -1.667398,-6.36274 1.105915,-6.36274 2.430067,0 6.943966,3.91696 14.113396,12.24699 4.383964,5.09364 5.760455,6.21915 5.283924,4.32051 -0.560723,-2.2341 -0.325817,-2.5675 1.80902,-2.5675 1.349382,0 3.130254,0.7875 3.957494,1.75 2.716402,3.16055 10.030751,17.359 9.304791,18.06226 -0.39047,0.37825 -3.4375,-2.23726 -6.771204,-5.81226 -6.358128,-6.81836 -6.536186,-6.58419 -0.942888,1.24004 4.038872,5.64981 3.893602,7.83473 -0.308716,4.6433 z m 71.916738,-6.63334 c 0.74616,-6.58908 3.07004,-14.89785 4.72425,-16.89105 1.95866,-2.36004 4.88294,-1.66691 4.88294,1.15739 0,2.66561 -8.37463,21.48366 -9.56091,21.48366 -0.38358,0 -0.40441,-2.5875 -0.0463,-5.75 z m 4.60719,5.39763 c 0,-1.1565 7.17978,-17.08526 10.06799,-22.33644 9.04082,-16.43745 11.69921,-19.57922 14.55876,-17.206 2.10867,1.75004 1.66903,4.02438 -1.92409,9.95364 -6.23549,10.28963 -22.70266,31.7516 -22.70266,29.5888 z m -34.39708,-3.85797 c -0.35809,-1.25931 -0.91105,-7.68966 -1.2288,-14.28966 -0.47231,-9.81069 -0.30196,-12.36246 0.93376,-13.98672 1.48408,-1.9507 1.54939,-1.95243 3.6018,-0.095 1.49357,1.35167 2.09032,3.10071 2.09032,6.12665 0,3.8488 -3.53427,23.32269 -4.38766,24.17608 -0.19708,0.19708 -0.65132,-0.67201 -1.00942,-1.93133 z m -37.06449,-9.07038 c -9.101914,-14.07564 -16.524926,-27.03503 -16.532041,-28.86229 -0.01031,-2.64673 2.944199,-3.02836 6.092029,-0.7869 1.826539,1.30061 4.576455,5.50715 7.356642,11.25345 2.44188,5.04705 4.46345,8.38896 4.49237,7.42646 0.0895,-2.98055 4.62037,-2.1657 7.06756,1.27105 2.03177,2.85336 5.98501,12.73081 5.98501,14.95397 0,2.98333 -4.19337,-1.11915 -11.25744,-11.01346 -1.70033,-2.38156 -1.7054,-2.33156 -0.15614,1.53844 6.69866,16.73306 5.82552,17.94173 -3.04799,4.21928 z m 52.24351,7.08507 c -0.75361,-2.07488 1.118,-19.07998 2.36647,-21.50131 2.42219,-4.69771 6.85159,-3.44072 6.85159,1.94436 0,4.83037 -8.22718,22.28508 -9.21806,19.55695 z m -28.99676,-7.05435 c -0.70685,-1.2375 -2.30039,-4.725 -3.54121,-7.75 l -2.25604,-5.5 0.25604,5.73286 c 0.14238,3.18811 -0.17676,5.77376 -0.71897,5.825 -0.91495,0.0865 -2.42022,-4.11014 -9.01682,-25.13834 -3.02379,-9.63906 -3.04189,-13.41952 -0.0642,-13.41952 3.04289,0 5.37529,5.22118 7.25609,16.24307 1.53273,8.98208 1.87174,9.88561 3.06824,8.17737 1.83063,-2.61359 2.92667,-2.41549 4.58964,0.82956 1.41964,2.77022 3.33245,17.25 2.27876,17.25 -0.31147,0 -1.14465,-1.0125 -1.8515,-2.25 z m 5.93609,-6.44651 c -2.77158,-14.88367 -4.12682,-31.39702 -2.84145,-34.62283 1.53143,-3.84334 5.15956,-3.37197 6.30644,0.81934 0.92143,3.36739 -0.0677,39.27574 -1.13778,41.30349 -0.37832,0.71691 -1.42556,-2.65809 -2.32721,-7.5 z m 31.55875,6.44651 c 0.28224,-1.2375 1.50303,-5.625 2.71285,-9.75 1.20983,-4.125 3.05688,-10.65 4.10455,-14.5 2.66791,-9.80406 3.83793,-12.34471 6.00118,-13.03129 5.73691,-1.82083 5.1028,3.56153 -2.18323,18.53129 -3.34618,6.875 -6.95727,14.4125 -8.02466,16.75 -2.09847,4.59552 -3.43645,5.62051 -2.61069,2 z m -93.548475,-3.15273 c -9.974538,-6.00635 -22.855951,-15.77618 -23.941211,-18.15807 -2.42951,-5.3322 2.552567,-7.24449 8.805606,-3.3799 2.957155,1.82762 22.404051,22.99944 22.404051,24.39127 0,1.14694 -1.796647,0.44165 -7.268446,-2.8533 z m 78.725965,-16.34727 c 0.31096,-9.2125 0.83243,-18.19716 1.15883,-19.9659 0.66022,-3.57772 3.59547,-5.18313 5.93165,-3.24427 2.18964,1.81724 1.79166,6.38982 -2.04799,23.53022 -1.925,8.59331 -3.5,15.80549 -3.5,16.02707 0,0.22159 -0.47427,0.40288 -1.05394,0.40288 -0.71914,0 -0.87433,-5.32089 -0.48855,-16.75 z m 48.54249,13.59322 c 0,-2.36586 8.2627,-18.29986 12.68787,-24.46761 4.42468,-6.16706 8.99641,-8.52787 11.05704,-5.70979 2.58473,3.53483 -1.22332,9.53961 -14.15113,22.31443 -5.59575,5.52953 -9.59378,8.80628 -9.59378,7.86297 z M 81.795005,127.43133 C 70.566804,115.98031 65.589687,108.8411 65.909894,104.64562 c 0.233671,-3.06164 0.573568,-3.46579 2.71388,-3.22692 3.192622,0.35631 5.634728,2.59983 9.499391,8.72692 3.683622,5.84007 11.915168,23.47202 11.262639,24.12455 -0.245774,0.24577 -3.661634,-2.83171 -7.590799,-6.83884 z m 21.146515,-3.64232 c -7.634738,-11.4339 -13.400664,-23.17182 -14.00164,-28.503666 -0.522861,-4.6388 -0.522353,-4.63971 2.5929,-4.63971 5.311305,0 9.38086,8.07117 15.00023,29.749986 1.60386,6.1875 2.62988,11.24644 2.28006,11.24209 -0.34982,-0.004 -2.99202,-3.53627 -5.87155,-7.8487 z m 78.73551,5.85192 c 0,-1.29432 0.42084,-3.73526 0.9352,-5.42431 0.51437,-1.68905 1.72998,-5.996 2.70136,-9.571 2.62633,-9.66569 5.97914,-16.702086 8.85695,-18.587696 2.40548,-1.57613 2.67527,-1.56953 4.53211,0.11089 2.48378,2.24779 2.46513,4.798276 -0.076,10.399576 -2.98471,6.57897 -11.73417,20.52623 -14.51613,23.13975 l -2.43349,2.28611 z m -57.58044,-8.74531 c -2.72432,-6.3562 -9.35612,-27.001086 -10.03263,-31.231696 -0.70997,-4.43992 0.65392,-7.01829 3.71246,-7.01829 4.49971,0 7.50589,10.31634 8.52343,29.249986 0.37687,7.0125 0.39695,12.75 0.0446,12.75 -0.35233,0 -1.36388,-1.6875 -2.24788,-3.75 z m 39.59876,-1.5 c 0.0174,-2.13926 2.21578,-18.05034 3.58426,-25.941716 1.19063,-6.86587 7.86806,-10.53442 10.43711,-5.73411 1.51771,2.83587 -1.81455,13.681486 -7.73515,25.175826 -4.53715,8.8085 -6.32003,10.65201 -6.28622,6.5 z m -21.06187,-3.3 c -0.0239,-0.5225 -0.46184,-2.975 -0.97309,-5.45 -2.05163,-9.93226 -2.98877,-22.894006 -1.83787,-25.419966 2.20264,-4.83427 6.80684,-4.02413 8.74614,1.53895 1.21547,3.48669 0.2563,11.80855 -2.5796,22.381016 -1.49752,5.58287 -3.2517,9.21607 -3.35558,6.95 z"
     id="path138"
     inkscape:connector-curvature="0" />
</svg>
