<?xml version="1.0" encoding="UTF-8" standalone="no"?>
<!-- Created with Inkscape (http://www.inkscape.org/) -->

<svg
   xmlns:dc="http://purl.org/dc/elements/1.1/"
   xmlns:cc="http://creativecommons.org/ns#"
   xmlns:rdf="http://www.w3.org/1999/02/22-rdf-syntax-ns#"
   xmlns:svg="http://www.w3.org/2000/svg"
   xmlns="http://www.w3.org/2000/svg"
   xmlns:sodipodi="http://sodipodi.sourceforge.net/DTD/sodipodi-0.dtd"
   xmlns:inkscape="http://www.inkscape.org/namespaces/inkscape"
   width="75mm"
   height="120mm"
   viewBox="0 0 75 120"
   version="1.1"
   id="svg8"
   inkscape:version="0.92.4 (5da689c313, 2019-01-14)"
   sodipodi:docname="ballons2.svg">
  <defs
     id="defs2" />
  <sodipodi:namedview
     id="base"
     pagecolor="#ffffff"
     bordercolor="#666666"
     borderopacity="1.0"
     inkscape:pageopacity="0.0"
     inkscape:pageshadow="2"
     inkscape:zoom="0.98994949"
     inkscape:cx="38.853411"
     inkscape:cy="243.10724"
     inkscape:document-units="mm"
     inkscape:current-layer="layer1"
     showgrid="false"
     units="mm"
     inkscape:window-width="1280"
     inkscape:window-height="972"
     inkscape:window-x="-8"
     inkscape:window-y="-8"
     inkscape:window-maximized="1" />
  <metadata
     id="metadata5">
    <rdf:RDF>
      <cc:Work
         rdf:about="">
        <dc:format>image/svg+xml</dc:format>
        <dc:type
           rdf:resource="http://purl.org/dc/dcmitype/StillImage" />
        <dc:title></dc:title>
      </cc:Work>
    </rdf:RDF>
  </metadata>
  <g
     inkscape:label="Calque 1"
     inkscape:groupmode="layer"
     id="layer1"
     transform="translate(0,-176.99999)">
    <g
       transform="translate(-77.412431,87.487639)"
       id="g4790">
      <path
         style="fill:#e3e2c6;stroke-width:0.26458335"
         d="m 130.4316,166.51816 c -0.57452,-0.2536 -1.34224,-0.46994 -1.70605,-0.48077 -1.02525,-0.0305 -3.26373,-1.36168 -4.25962,-2.5331 -0.49486,-0.58209 -0.98905,-1.09802 -1.09819,-1.14653 -0.10914,-0.0485 -0.19844,-0.25687 -0.19844,-0.46302 0,-0.20616 -0.10124,-0.37483 -0.22499,-0.37483 -0.37844,0 -1.84773,-3.23336 -2.04392,-4.49791 -0.64513,-4.1582 0.35507,-7.85156 2.87455,-10.61457 2.72913,-2.99292 7.71223,-4.37189 11.87774,-3.28691 1.46485,0.38154 3.92079,1.67152 3.92079,2.05938 0,0.11017 0.62508,0.83049 1.38906,1.60072 0.76399,0.77023 1.60567,1.73114 1.8704,2.13537 1.52472,2.32812 2.1637,6.54936 1.39154,9.19297 -0.45798,1.56798 -2.01037,4.38524 -2.70995,4.91797 -0.22851,0.17402 -0.7885,0.65303 -1.24441,1.06449 -2.20849,1.99312 -4.04246,2.75768 -6.7958,2.8331 -1.4218,0.0389 -2.2994,-0.0783 -3.04271,-0.40636 z M 95.520347,153.22873 c -2.164337,-0.72387 -3.764315,-1.76033 -5.397062,-3.49617 -2.328661,-2.4757 -2.962824,-3.99937 -3.132911,-7.52723 -0.129541,-2.68687 -0.105191,-2.84766 0.741234,-4.89479 1.316056,-3.18297 2.038806,-4.1219 4.349156,-5.65 1.470014,-0.9723 2.59881,-1.47722 4.843789,-2.1667 3.537337,-1.08639 7.363517,-0.30975 10.267707,2.08413 3.34553,2.75767 4.82293,8.97042 3.26622,13.73515 -0.32111,0.98285 -0.68816,1.90011 -0.81567,2.03835 -0.12751,0.13825 -0.23184,0.40017 -0.23184,0.58205 0,0.55444 -1.57412,2.70134 -2.49643,3.40482 -1.55876,1.18892 -4.46824,2.01026 -7.557735,2.13352 -1.887888,0.0753 -3.117262,-0.003 -3.836458,-0.24313 z"
         id="path5488-2"
         inkscape:connector-curvature="0" />
      <path
         style="fill:#f6ffd5;stroke-width:0.26458335"
         d="m 130.39294,166.50047 c -0.55326,-0.24387 -1.30358,-0.45225 -1.66739,-0.46308 -0.97011,-0.0289 -3.57892,-1.49269 -3.5356,-1.98385 0.02,-0.2262 -0.053,-0.35609 -0.16213,-0.28864 -0.23468,0.14504 -1.85852,-1.57914 -1.85852,-1.97335 0,-0.1494 -0.10124,-0.27164 -0.22499,-0.27164 -0.37844,0 -1.84773,-3.23336 -2.04392,-4.49791 -1.06166,-6.84294 2.30145,-12.22703 8.68075,-13.89725 2.74976,-0.71994 5.54007,-0.44511 8.0437,0.79225 1.07175,0.52969 1.94863,1.0756 1.94863,1.21314 0,0.13753 0.62508,0.88025 1.38906,1.65048 0.76399,0.77023 1.60567,1.73114 1.8704,2.13537 1.52472,2.32812 2.1637,6.54936 1.39154,9.19297 -0.45798,1.56798 -2.01037,4.38524 -2.70995,4.91797 -0.22851,0.17402 -0.79373,0.65027 -1.25605,1.05833 -2.04484,1.80491 -3.8192,2.65933 -4.37581,2.10712 -0.23535,-0.23349 -0.26715,-0.19616 -0.13302,0.15618 0.14429,0.379 0.0151,0.47247 -0.71192,0.51509 -2.42771,0.14233 -3.72873,0.0406 -4.64478,-0.36318 z m 1.63991,-0.21806 c 0.0899,-0.14552 0.0374,-0.26458 -0.11668,-0.26458 -0.15411,0 -0.2802,0.11906 -0.2802,0.26458 0,0.14552 0.0525,0.26459 0.11668,0.26459 0.0642,0 0.19026,-0.11907 0.2802,-0.26459 z m 1.14652,-0.26863 c 0.37523,-0.003 0.38284,-0.0408 0.0511,-0.25062 -0.39498,-0.24979 -0.81092,0.0995 -0.77579,0.65154 0.009,0.14552 0.0769,0.11576 0.15029,-0.0661 0.0734,-0.1819 0.33189,-0.33255 0.57442,-0.33478 z m 1.89618,0.15196 c 0,-0.2097 -0.11906,-0.45485 -0.26458,-0.54479 -0.14552,-0.0899 -0.26458,0.0816 -0.26458,0.38126 0,0.29963 0.11906,0.54479 0.26458,0.54479 0.14552,0 0.26458,-0.17157 0.26458,-0.38126 z m -3.51124,-0.57235 c -0.0879,-0.0879 -0.31612,-0.0973 -0.50711,-0.0209 -0.21107,0.0845 -0.14838,0.14715 0.15985,0.15985 0.27891,0.0115 0.43518,-0.0511 0.34726,-0.13897 z m -3.89709,-1.59078 c 0,-0.0558 -0.29765,-0.10145 -0.66146,-0.10145 -0.3638,0 -0.66146,0.10255 -0.66146,0.2279 0,0.12534 0.29766,0.17099 0.66146,0.10144 0.36381,-0.0695 0.66146,-0.17209 0.66146,-0.22789 z m 2.06095,-3.91014 c -0.18764,-0.203 -0.44316,-0.30718 -0.56784,-0.23151 -0.12468,0.0757 -0.0651,0.23995 0.13229,0.36506 0.55831,0.35376 0.81362,0.27548 0.43555,-0.13355 z m 0.45259,-0.68922 c -0.0899,-0.14553 0.0816,-0.26459 0.38126,-0.26459 0.42199,0 0.541,-0.16401 0.52801,-0.7276 -0.0161,-0.6994 -0.0261,-0.70453 -0.25605,-0.13229 -0.31961,0.79514 -0.47799,0.75457 -0.31816,-0.0815 0.0766,-0.4007 0.26434,-0.62501 0.46023,-0.54984 0.18197,0.0698 0.48189,-0.0126 0.6665,-0.18309 0.2328,-0.21506 0.28412,-0.21794 0.1675,-0.009 -0.0939,0.16799 0.0641,0.36137 0.35806,0.43825 0.67894,0.17755 0.6668,-0.0257 -0.0381,-0.63704 l -0.56425,-0.48937 0.6304,-0.51107 c 0.34672,-0.28109 0.53985,-0.60196 0.42917,-0.71303 -0.21611,-0.21689 -1.42822,0.94297 -1.3233,1.26625 0.0346,0.10672 -0.11351,0.12631 -0.32921,0.0435 -0.2157,-0.0828 -0.31493,-0.27547 -0.22053,-0.42823 0.10109,-0.16356 0.0443,-0.19904 -0.13812,-0.0863 -0.17038,0.10529 -0.2334,0.31504 -0.14004,0.4661 0.10845,0.17547 -0.0333,0.2102 -0.39256,0.0962 -0.61871,-0.19638 -0.68883,0.0191 -0.32103,0.98649 0.18235,0.47964 0.15005,0.64535 -0.13229,0.67868 -0.20546,0.0243 -0.54081,0.064 -0.74521,0.0882 -0.48578,0.0576 -0.23931,0.68593 0.32803,0.83619 0.79949,0.21174 1.13547,0.18175 0.96966,-0.0865 z m 1.71979,-0.24519 c 0,-0.13485 0.20136,-0.28396 0.44747,-0.33136 0.33858,-0.0652 0.27421,-0.16511 -0.26459,-0.4106 -0.66874,-0.3047 -0.71204,-0.28455 -0.71204,0.33136 0,0.36068 0.11906,0.65579 0.26458,0.65579 0.14552,0 0.26458,-0.11034 0.26458,-0.24519 z m 2.81912,-2.01518 c 0.22928,-0.59751 -0.16785,-0.85856 -0.47397,-0.31155 -0.14355,0.25651 -0.39114,0.38595 -0.5502,0.28764 -0.17338,-0.10715 -0.2136,-0.0564 -0.10042,0.12673 0.27065,0.43792 0.94059,0.37667 1.12459,-0.10282 z m -1.4049,-0.79375 c -0.0862,-0.22456 -0.21342,-0.35155 -0.28277,-0.28219 -0.0694,0.0693 -0.0476,0.25308 0.0483,0.40829 0.26089,0.42213 0.41338,0.34012 0.23447,-0.1261 z m 3.54452,-1.5022 c 0.0242,-0.32153 -0.16145,-0.5804 -0.47511,-0.66243 -0.28318,-0.074 -0.51488,-0.23608 -0.51488,-0.36006 0,-0.12398 0.19813,-0.14939 0.44028,-0.0565 0.29604,0.1136 0.37761,0.0675 0.24897,-0.1406 -0.23114,-0.37398 0.0893,-0.39672 0.63367,-0.045 0.32949,0.21293 0.30703,0.2586 -0.13229,0.26895 -0.49386,0.0116 -0.49855,0.0357 -0.0703,0.36094 0.2524,0.19166 0.38138,0.426 0.28663,0.52075 -0.0948,0.0948 -0.0867,0.17228 0.0179,0.17228 0.10458,0 0.31467,-0.35719 0.46685,-0.79375 0.15219,-0.43656 0.40076,-0.79375 0.55239,-0.79375 0.34053,0 0.97566,-0.80868 0.98706,-1.25677 0.005,-0.1819 -0.18292,-0.33073 -0.41677,-0.33073 -0.28998,0 -0.37391,0.14724 -0.26394,0.46302 0.1496,0.42956 0.1362,0.43093 -0.18536,0.019 -0.23955,-0.30684 -0.46448,-0.36813 -0.72825,-0.19844 -0.33062,0.21269 -0.32858,0.28036 0.0152,0.50605 0.33976,0.22305 0.33025,0.26112 -0.0661,0.26459 -0.25468,0.002 -0.46304,-0.115 -0.46304,-0.26052 0,-0.14552 -0.24515,-0.26459 -0.54478,-0.26459 -0.29963,0 -0.48593,-0.0952 -0.41399,-0.21162 0.0719,-0.1164 -0.10674,-0.35997 -0.39705,-0.54127 -0.48902,-0.3054 -0.50528,-0.28749 -0.22107,0.24356 0.16872,0.31526 0.19991,0.50715 0.0693,0.42643 -0.34303,-0.212 -0.70567,0.1095 -1.07748,0.95525 -0.39198,0.89162 -0.41155,1.24432 -0.0691,1.24432 0.14095,0 0.19237,-0.16655 0.11425,-0.37011 -0.0781,-0.20356 -0.0162,-0.44787 0.13757,-0.54291 0.1762,-0.1089 0.2148,-0.004 0.10439,0.28376 -0.13817,0.36007 -0.0737,0.41761 0.30504,0.27226 0.40763,-0.15642 0.42929,-0.1229 0.14328,0.22173 -0.28739,0.34627 -0.2489,0.39582 0.26162,0.33678 0.63872,-0.0739 0.98993,0.70465 0.46441,1.02944 -0.18174,0.11232 -0.22941,-0.029 -0.1335,-0.39583 0.15172,-0.58016 -0.16446,-0.78854 -0.46316,-0.30524 -0.10866,0.17583 -0.3411,0.1705 -0.68917,-0.0158 -0.47968,-0.25672 -0.4963,-0.23479 -0.19173,0.2529 0.61455,0.98406 2.18723,0.77866 2.2682,-0.29623 z m -2.96348,-0.48837 c 0.28822,-0.46635 -0.0156,-0.53173 -0.55936,-0.12037 -0.44764,0.33866 -0.45526,0.38675 -0.0625,0.39414 0.24607,0.005 0.52588,-0.11857 0.62181,-0.27377 z m 6.45195,-3.19747 c 0.29168,-0.31308 0.46737,-0.67111 0.39042,-0.79562 -0.077,-0.12451 0.0331,-0.29276 0.24449,-0.37389 0.22765,-0.0874 0.3298,-0.35633 0.2505,-0.65959 -0.16698,-0.63851 -0.59856,-0.67326 -0.60941,-0.0491 -0.007,0.42586 -0.0308,0.42381 -0.292,-0.0255 -0.31211,-0.53696 -0.11065,-0.8419 0.69692,-1.0549 0.29104,-0.0768 -0.0449,-0.0958 -0.74657,-0.0423 -1.29615,0.0988 -2.14368,0.52882 -1.88073,0.95428 0.0797,0.12903 -0.0109,0.23643 -0.20136,0.23865 -0.25166,0.003 -0.23785,0.0742 0.0505,0.26054 0.31929,0.20634 0.27744,0.25727 -0.21406,0.26053 -0.34258,0.002 -0.53849,0.12125 -0.44602,0.27087 0.0907,0.14675 -0.0906,0.36134 -0.40286,0.47685 -0.55949,0.20697 -0.55794,0.21452 0.10584,0.51696 0.42068,0.19167 0.7327,0.21131 0.83097,0.0523 0.0866,-0.14003 0.035,-0.2546 -0.11454,-0.2546 -0.14954,0 -0.20219,-0.18164 -0.11701,-0.40363 0.11944,-0.31125 0.23865,-0.33411 0.52086,-0.0999 0.28111,0.2333 0.3703,0.21953 0.38458,-0.0594 0.0102,-0.19972 0.12092,-0.125 0.24598,0.16604 0.12507,0.29104 0.23576,0.38034 0.24599,0.19844 0.0102,-0.1819 0.22369,-0.33073 0.47435,-0.33073 0.37316,0 0.34838,0.0752 -0.13672,0.41498 -0.32586,0.22824 -0.52392,0.52589 -0.44013,0.66146 0.2402,0.38865 0.58713,0.29212 1.15997,-0.32276 z m -0.24512,-3.82725 c 0,-0.46735 -0.20464,-0.46375 -0.68036,0.012 -0.51702,0.51703 -0.47435,0.65602 0.15119,0.49244 0.29104,-0.0761 0.52917,-0.30309 0.52917,-0.5044 z m -44.582293,5.89489 c -2.144843,-0.71735 -3.759172,-1.75486 -5.331507,-3.42648 -2.354573,-2.50325 -3.040491,-4.1285 -3.202129,-7.5873 -0.125898,-2.69402 -0.100852,-2.85891 0.744897,-4.90441 1.316056,-3.18297 2.038806,-4.1219 4.349156,-5.65 1.470014,-0.9723 2.59881,-1.47722 4.843789,-2.1667 3.517387,-1.08026 7.379337,-0.29176 10.285637,2.10002 3.32607,2.73725 4.80102,8.96671 3.24829,13.71926 -0.63703,1.94983 -1.04334,2.6244 -0.98058,1.62801 0.022,-0.34912 0.14773,-0.70919 0.27942,-0.80016 0.422,-0.29152 -0.0731,-1.25757 -0.62325,-1.21613 -0.51839,0.039 -0.74903,0.45549 -0.25227,0.45549 0.14553,0 0.26459,0.11906 0.26459,0.26458 0,0.46822 -0.72763,0.28143 -0.85888,-0.22048 -0.0698,-0.26679 -0.29201,-0.49526 -0.49388,-0.5077 -0.20187,-0.0124 -1.27564,-0.0761 -2.38616,-0.14137 -1.11052,-0.0653 -2.14409,-0.19598 -2.29682,-0.29037 -0.15273,-0.0944 -0.35248,-0.0506 -0.44389,0.0973 -0.0914,0.1479 -0.28525,0.2689 -0.43077,0.2689 -0.14552,0 -0.191,-0.11906 -0.10106,-0.26458 0.20514,-0.33192 0.0782,-0.33151 -0.80061,0.003 -0.59744,0.22715 -0.72274,0.19085 -0.83598,-0.24217 -0.0733,-0.28015 -0.44937,-0.58672 -0.835804,-0.68126 -0.950476,-0.23254 -3.439759,-1.40747 -4.367983,-2.06167 -0.629919,-0.44395 -0.798386,-0.47109 -1.017146,-0.16386 -0.205018,0.28794 -0.229709,0.26727 -0.113239,-0.0948 0.08192,-0.25466 0.02639,-0.46302 -0.123399,-0.46302 -0.14979,0 -1.027939,-0.77442 -1.951444,-1.72094 -1.151562,-1.18026 -1.811525,-1.67012 -2.100601,-1.55919 -0.231826,0.0889 -0.421502,0.27506 -0.421502,0.4136 0,0.13854 -0.121004,0.1771 -0.268899,0.0857 -0.147894,-0.0914 -0.200399,-0.27702 -0.116677,-0.41249 0.08372,-0.13547 0.05165,-0.2463 -0.07128,-0.2463 -0.122926,0 -0.223502,-0.23813 -0.223502,-0.52917 0,-0.29104 0.04252,-0.52917 0.09449,-0.52917 0.249895,0 0.805123,0.75088 0.661458,0.89455 -0.09008,0.0901 -0.02488,0.16379 0.144891,0.16379 0.169775,0 0.308681,-0.0709 0.308681,-0.15762 0,-0.26718 -0.898229,-1.69447 -1.066376,-1.69447 -0.194866,0 -1.038498,1.72144 -1.329075,2.71198 -0.16254,0.55408 -0.123199,0.72761 0.164962,0.72761 0.208123,0 0.378405,0.12609 0.378405,0.2802 0,0.15411 -0.110835,0.2117 -0.246301,0.12797 -0.135465,-0.0837 -0.321086,-0.0312 -0.41249,0.11668 -0.147965,0.23941 0.188215,0.38198 0.715415,0.3034 0.103904,-0.0155 0.123448,0.14245 0.04343,0.35097 -0.243318,0.63408 3.750987,4.44928 5.665145,5.41112 0.915289,0.45992 1.796888,0.7542 1.95911,0.65394 0.168273,-0.104 0.22136,-0.0632 0.123606,0.095 -0.254022,0.41101 1.06491,0.65652 1.748657,0.32549 0.567487,-0.27474 0.570384,-0.26996 0.07629,0.12589 -0.508398,0.40731 -0.508398,0.41168 0,0.43171 0.627662,0.0247 0.995419,0.0984 2.406828,0.48177 1.19867,0.32562 7.87567,0.44249 8.62395,0.15095 0.67834,-0.2643 0.57163,0.21793 -0.35063,1.58445 -1.1001,1.63004 -2.18728,2.40465 -4.50715,3.21132 -2.39445,0.83261 -6.863793,1.11819 -8.569824,0.54759 z m 2.199349,-7.76456 c 0.190996,-0.0764 0.419199,-0.067 0.507118,0.0209 0.08792,0.0879 -0.06835,0.15045 -0.347265,0.13896 -0.308225,-0.0127 -0.37092,-0.0754 -0.159853,-0.15985 z m -8.946224,-4.87111 c 0,-0.15915 0.238125,-0.35163 0.529167,-0.42774 0.291041,-0.0761 0.529166,-0.25157 0.529166,-0.38993 0,-0.13836 -0.238125,-0.17598 -0.529166,-0.0836 -0.375529,0.11918 -0.529167,0.0475 -0.529167,-0.24676 0,-0.51348 0.276145,-0.52576 0.938105,-0.0417 0.500538,0.366 0.500717,0.38332 0.0096,0.92604 -0.547503,0.60498 -0.947668,0.71634 -0.947668,0.26371 z"
         id="path5486-6"
         inkscape:connector-curvature="0" />
      <path
         style="fill:#ddff55;stroke-width:0.26458335"
         d="m 129.78389,166.28241 c -0.32266,-0.20851 -0.28846,-0.25724 0.18282,-0.26053 0.31883,-0.002 0.65328,0.11501 0.74322,0.26053 0.20819,0.33687 -0.40478,0.33687 -0.92604,0 z m 6.48229,-0.20076 c 0.39129,-0.37936 3.30915,-1.65256 3.29609,-1.43825 -0.02,0.32893 -1.77858,1.3189 -2.68088,1.5092 -0.57005,0.12023 -0.78664,0.0952 -0.61521,-0.071 z m -9.62333,-0.81573 c -0.78168,-0.41349 -1.54206,-0.96769 -1.68973,-1.23156 -0.19049,-0.34038 0.007,-0.26994 0.67842,0.24248 0.5208,0.39723 1.5193,0.94589 2.21889,1.21924 0.6996,0.27335 1.03387,0.50254 0.74283,0.50931 -0.29104,0.007 -1.16872,-0.32599 -1.95041,-0.73947 z m 3.93479,0.21823 c -1.63509,-0.28749 -2.6304,-0.70573 -2.81321,-1.18214 -0.0846,-0.22047 -0.34944,-0.40158 -0.58854,-0.40248 -0.23909,-7.9e-4 -0.78898,-0.18635 -1.22197,-0.41213 -0.43299,-0.22578 -0.99416,-0.3564 -1.24704,-0.29027 -0.25288,0.0661 -0.58134,-0.0262 -0.7299,-0.20523 -0.18867,-0.22734 -0.17166,-0.33189 0.0564,-0.34678 0.72375,-0.0472 5.15117,-1.78275 6.34763,-2.4882 0.70302,-0.41452 1.33734,-0.75367 1.40959,-0.75367 0.54699,0 5.39783,-4.01332 6.65982,-5.50997 1.35782,-1.61029 3.21077,-4.46911 3.40926,-5.25997 0.21046,-0.83851 0.4,-0.76403 1.07808,0.42364 0.80675,1.41302 1.66277,4.63479 1.66277,6.25806 0,2.10446 -1.52229,6.43995 -2.12946,6.0647 -0.10562,-0.0653 -0.17572,0.0855 -0.15577,0.3351 0.0199,0.24959 -0.14232,0.45934 -0.3606,0.46612 -0.22647,0.007 -0.36349,0.20857 -0.31913,0.4694 0.0428,0.25139 -0.0465,0.47196 -0.19844,0.49015 -0.1519,0.0182 -0.42501,0.048 -0.60691,0.0661 -0.1819,0.0182 -0.33255,0.15214 -0.33478,0.29766 -0.006,0.40573 -0.39313,0.92604 -0.68863,0.92604 -0.14552,0 -0.17695,-0.1418 -0.0698,-0.31511 0.10711,-0.17332 -0.21712,-0.0606 -0.72051,0.25054 -1.58929,0.98223 -5.93651,1.55836 -8.43885,1.11839 z m -8.42596,-5.06328 c -0.32074,-0.60089 -0.52064,-1.15505 -0.44423,-1.23147 0.0764,-0.0764 0.13894,-0.004 0.13894,0.16074 0,0.19248 0.54419,0.0978 1.52135,-0.26474 1.89021,-0.70125 2.44346,-1.13486 0.85135,-0.66725 -1.62973,0.47866 -1.97995,0.3387 -2.365,-0.94514 -0.56735,-1.89166 -0.85647,-2.56768 -1.09813,-2.56768 -0.12787,0 -0.23249,-0.12609 -0.23249,-0.2802 0,-0.15411 0.12187,-0.20488 0.27083,-0.11282 0.17704,0.10942 0.21367,-0.19001 0.10578,-0.86473 -0.19261,-1.20451 0.57331,-4.27351 1.11876,-4.48282 0.19452,-0.0746 0.28462,-0.24744 0.20022,-0.38401 -0.3658,-0.59187 2.22098,-3.33195 4.12524,-4.36971 2.15767,-1.17585 3.77701,-1.54571 6.61459,-1.51078 3.14064,0.0387 4.82389,0.71338 6.90523,2.76789 0.78603,0.7759 1.16052,1.18803 0.83221,0.91585 -0.32831,-0.27218 -0.64389,-0.44599 -0.70128,-0.38625 -0.0574,0.0597 -0.71749,1.02741 -1.46687,2.15039 -1.42941,2.14199 -2.53373,3.22618 -2.99544,2.94083 -0.1509,-0.0933 -0.19611,-0.043 -0.10047,0.1118 0.26308,0.42567 -3.10387,3.37196 -5.64618,4.94075 -1.23814,0.76402 -3.41655,1.94342 -4.84091,2.6209 -2.41642,1.14934 -2.56993,1.2688 -2.29366,1.785 0.16284,0.30428 0.2482,0.6011 0.1897,0.65961 -0.0585,0.0585 -0.3688,-0.38526 -0.68954,-0.98616 z m 5.68275,-3.42045 c 1.22193,-0.7552 1.12185,-0.90064 -0.16721,-0.24301 -0.58208,0.29696 -1.05833,0.59703 -1.05833,0.66684 0,0.24152 0.33823,0.12455 1.22554,-0.42383 z m 1.82417,-1.25024 c -0.0815,-0.0815 -0.29496,-1.7e-4 -0.47443,0.18065 -0.25937,0.26131 -0.22898,0.2917 0.14811,0.14811 0.26094,-0.0994 0.40778,-0.2473 0.32632,-0.32876 z m 3.30029,-2.33146 c 0,-0.3795 -0.77206,0.0688 -1.32292,0.76815 l -0.66146,0.83976 0.99219,-0.75351 c 0.5457,-0.41444 0.99219,-0.79891 0.99219,-0.8544 z m -11.72986,5.27897 c -0.097,-0.097 -0.16885,-0.42444 -0.15962,-0.72761 0.0154,-0.50683 0.0372,-0.50018 0.27027,0.0825 0.25911,0.64776 0.20536,0.96111 -0.11065,0.6451 z m -0.37959,-2.46944 c 0,-0.50933 0.0545,-0.71769 0.121,-0.46303 0.0666,0.25467 0.0666,0.67138 0,0.92605 -0.0665,0.25466 -0.121,0.0463 -0.121,-0.46302 z M 95.816082,153.3045 c -2.993554,-0.75052 -6.273319,-3.53016 -7.895493,-6.69152 -0.791466,-1.54244 -0.836974,-1.79214 -0.85153,-4.67224 -0.01412,-2.79359 0.04856,-3.19434 0.765556,-4.89479 1.090368,-2.58594 1.723779,-3.45588 3.49666,-4.80239 2.753196,-2.09106 5.545834,-3.0397 9.083865,-3.08574 2.4222,-0.0315 2.58127,0.003 4.37741,0.95536 3.04707,1.6153 4.42815,3.21086 5.43562,6.27976 0.86945,2.64849 1.09194,5.2056 0.65538,7.53262 l -0.17364,0.9256 h -2.04547 c -5.16164,0 -8.924147,-0.90448 -12.805329,-3.07831 -2.04534,-1.14559 -2.96588,-1.87103 -4.497917,-3.54463 -1.059445,-1.15734 -1.988074,-2.35997 -2.063619,-2.67251 -0.113826,-0.47092 -0.256385,-0.32397 -0.832201,0.85786 -0.930003,1.90878 -1.337959,3.40992 -0.927345,3.41232 0.170171,0.001 0.592748,0.41787 0.939061,0.92639 2.102123,3.08674 6.25382,5.76154 10.453505,6.73484 2.628275,0.60912 7.522645,0.92149 9.223605,0.58868 1.44385,-0.28251 1.7409,0.15012 0.61128,0.89027 -0.35502,0.23262 -0.58624,0.57736 -0.51381,0.76609 0.24862,0.6479 -1.95364,2.17521 -4.2123,2.92134 -2.40438,0.79425 -6.392567,1.10998 -8.223288,0.651 z m 13.744188,-6.14965 c 0.0994,-0.26093 0.24731,-0.40778 0.32877,-0.32631 0.0815,0.0815 1.7e-4,0.29495 -0.18065,0.47443 -0.26131,0.25936 -0.2917,0.22897 -0.14812,-0.14812 z"
         id="path5484-4"
         inkscape:connector-curvature="0" />
      <path
         style="fill:#ffcc00;stroke-width:0.26458335"
         d="m 129.78389,166.28241 c -0.32266,-0.20851 -0.28846,-0.25724 0.18282,-0.26053 0.31883,-0.002 0.65328,0.11501 0.74322,0.26053 0.20819,0.33687 -0.40478,0.33687 -0.92604,0 z m 6.35,-0.10863 c 0,-0.0829 0.74414,-0.4891 1.65364,-0.90271 0.90951,-0.41361 2.36802,-1.39439 3.24115,-2.17951 0.87312,-0.78511 1.34937,-1.13832 1.05833,-0.78491 -0.29104,0.35341 -0.8697,0.9379 -1.28591,1.29887 -0.41621,0.36097 -0.89568,0.78352 -1.06548,0.939 -0.81911,0.75003 -1.9846,1.42476 -2.75229,1.59337 -0.46719,0.10261 -0.84944,0.11876 -0.84944,0.0359 z m -9.49104,-0.90786 c -0.78168,-0.41349 -1.54206,-0.96769 -1.68973,-1.23156 -0.19737,-0.35268 -0.0297,-0.29766 0.63284,0.20771 0.49572,0.37812 1.4347,0.92393 2.0866,1.21293 0.65191,0.289 1.00669,0.53383 0.78841,0.54408 -0.21828,0.0102 -1.03643,-0.31968 -1.81812,-0.73316 z m 4.85166,-0.31656 c -0.62315,-0.68857 -0.33713,-0.93604 0.47035,-0.40695 0.35167,0.23042 0.71919,0.33915 0.81671,0.24162 0.0975,-0.0975 0.17732,-0.10213 0.17732,-0.0102 0,0.0919 -0.22314,0.28651 -0.49587,0.43246 -0.38233,0.20462 -0.60408,0.1458 -0.96851,-0.25689 z m -2.70281,-0.11974 c -0.47294,-0.20556 -0.8599,-0.55809 -0.8599,-0.78339 0,-0.22531 -0.0893,-0.39012 -0.19843,-0.36625 -0.37007,0.0809 -1.65365,-0.36413 -1.65365,-0.57339 0,-0.11442 -0.4132,-0.11484 -0.91823,-0.001 -0.62546,0.14107 -1.00374,0.10406 -1.18642,-0.11605 -0.18645,-0.22466 -0.16867,-0.32571 0.0583,-0.33154 0.73945,-0.019 3.60625,-0.99379 5.08902,-1.73043 2.67075,-1.32683 5.9889,-3.66669 7.96925,-5.61969 1.8698,-1.84397 4.46713,-5.47577 4.76509,-6.66292 0.21351,-0.8507 0.4009,-0.77929 1.08102,0.41193 0.79331,1.38949 1.66277,4.62568 1.66277,6.18892 0,1.66638 -0.50593,3.67381 -0.8693,3.44923 -0.17554,-0.10849 -0.21394,-0.003 -0.10358,0.28463 0.15998,0.4169 -0.44486,2.01102 -0.76302,2.01102 -0.0741,0 -0.007,-0.23813 0.1484,-0.52917 0.17251,-0.32234 0.18312,-0.52916 0.0271,-0.52916 -0.14084,0 -0.32291,0.20835 -0.40462,0.46302 -0.45015,1.40308 -3.76079,4.06765 -5.67159,4.56478 -1.42503,0.37075 -3.23214,0.10825 -3.39014,-0.49245 -0.1504,-0.57183 -3.05632,-0.62443 -3.57787,-0.0648 -0.19555,0.20985 -0.21177,0.29523 -0.0375,0.19758 0.36903,-0.20681 1.14836,0.056 1.14836,0.38723 0,0.35622 -1.34265,0.26448 -2.31511,-0.15819 z m 6.91701,-0.28864 c 0.22692,-0.59136 0.20903,-0.63982 -0.23628,-0.63982 -0.22049,0 -0.39688,0.23519 -0.39688,0.52917 0,0.63083 0.4063,0.70184 0.63316,0.11065 z m -5.21442,-1.05323 c 0.0451,-0.13643 -0.27422,-0.26069 -0.70961,-0.27615 -0.71072,-0.0252 -0.74445,0.008 -0.33006,0.32178 0.49416,0.37458 0.90672,0.35647 1.03967,-0.0456 z m 7.75324,-0.83601 c 0.46387,-0.39718 0.73748,-1.13183 0.42154,-1.13183 -0.41825,0 -0.91736,0.36417 -0.78738,0.5745 0.0865,0.13995 -0.063,0.42135 -0.33224,0.62532 -0.28087,0.21278 -0.34984,0.37444 -0.16182,0.37927 0.18024,0.005 0.56719,-0.19664 0.8599,-0.44726 z m -16.08921,-2.21842 c -0.55341,-1.0368 -0.79807,-1.7888 -0.35467,-1.09017 0.17006,0.26795 0.42606,0.2484 1.25272,-0.0957 5.30334,-2.20746 10.15745,-5.43522 13.17805,-8.76282 0.61875,-0.68164 0.66653,-0.81447 0.25416,-0.70663 -0.2793,0.073 -0.62219,0.39125 -0.76198,0.70713 -0.1398,0.31588 -0.49768,0.6955 -0.7953,0.84361 -0.29762,0.1481 -0.95246,0.65568 -1.4552,1.12795 -0.50275,0.47227 -1.14159,0.85922 -1.41965,0.85989 -0.49886,0.001 -2.00798,1.45204 -2.00798,1.93041 0,0.13551 -0.38695,0.18221 -0.85989,0.10379 -0.47295,-0.0784 -1.09803,-0.0405 -1.38907,0.0842 -0.45995,0.19717 -0.42534,0.23272 0.26459,0.2718 0.77257,0.0438 0.7761,0.05 0.13229,0.23294 -0.3638,0.10338 -0.98389,0.17048 -1.37798,0.14911 -0.39409,-0.0214 -0.65495,0.0608 -0.5797,0.18254 0.0752,0.12176 0.33816,0.23508 0.58423,0.25182 0.24607,0.0167 0.0307,0.12532 -0.47864,0.2413 -1.69084,0.38502 -3.01321,0.98685 -3.17371,1.44439 -0.23032,0.6566 -0.67235,0.0462 -1.31115,-1.81049 -0.67727,-1.96851 -0.58358,-4.71283 0.21306,-6.24123 0.62741,-1.20371 0.72515,-1.73048 0.26873,-1.4484 -0.18143,0.11214 -0.25076,0.0403 -0.17639,-0.18282 0.0674,-0.20216 0.26143,-0.38244 0.4312,-0.40063 0.16978,-0.0182 0.42774,-0.048 0.57327,-0.0661 0.14552,-0.0182 0.26458,-0.16671 0.26458,-0.33005 0,-0.20518 -0.12267,-0.19517 -0.39688,0.0324 -0.22138,0.18373 -0.39687,0.21238 -0.39687,0.0648 0,-0.39899 0.67972,-0.88151 0.92666,-0.65781 0.11908,0.10788 0.13641,0.0563 0.0385,-0.11465 -0.42012,-0.73351 3.31788,-3.39496 5.02398,-3.57708 0.41675,-0.0445 0.83422,-0.18626 0.92772,-0.31506 0.0935,-0.12881 1.46272,-0.23027 3.04271,-0.22548 3.54272,0.0107 5.10166,0.597 7.2644,2.73186 0.78603,0.7759 1.18164,1.20714 0.87914,0.95832 -0.3025,-0.24881 -0.6213,-0.45239 -0.70845,-0.45239 -0.0871,0 -0.57817,0.69094 -1.09117,1.53543 -1.28008,2.10725 -5.67756,6.30069 -8.66797,8.2658 -1.36188,0.89494 -3.70132,2.20984 -5.19875,2.92199 -2.54568,1.21067 -2.70332,1.33083 -2.42596,1.84908 0.16315,0.30485 0.24876,0.60214 0.19026,0.66065 -0.0585,0.0585 -0.36581,-0.37966 -0.6829,-0.97371 z m 3.65682,-4.99882 c 0,-0.14553 -0.11906,-0.26459 -0.26458,-0.26459 -0.14553,0 -0.26459,0.11906 -0.26459,0.26459 0,0.14552 0.11906,0.26458 0.26459,0.26458 0.14552,0 0.26458,-0.11906 0.26458,-0.26458 z m 12.68347,-7.81061 c 0.95933,-1.41466 1.10674,-1.78375 0.81898,-2.05052 -0.2794,-0.25903 -0.3109,-0.25476 -0.15459,0.0209 0.1594,0.28114 -0.78016,2.03943 -1.44087,2.69644 -0.47701,0.47434 -0.82263,1.05834 -0.62635,1.05834 0.12811,0 0.75939,-0.77634 1.40283,-1.72519 z m -17.26958,11.0738 c -0.097,-0.097 -0.16885,-0.42444 -0.15962,-0.72761 0.0154,-0.50683 0.0372,-0.50018 0.27027,0.0825 0.25911,0.64776 0.20536,0.96111 -0.11065,0.6451 z m 2.4033,-0.79259 c 0.1819,-0.0734 0.47955,-0.0734 0.66145,0 0.18191,0.0734 0.0331,0.13345 -0.33073,0.13345 -0.3638,0 -0.51263,-0.0601 -0.33072,-0.13345 z m -2.8025,-1.41227 c 0,-0.3638 0.0601,-0.51263 0.13345,-0.33073 0.0734,0.1819 0.0734,0.47956 0,0.66146 -0.0734,0.1819 -0.13345,0.0331 -0.13345,-0.33073 z M 95.816082,153.3045 c -2.993554,-0.75052 -6.273319,-3.53016 -7.895493,-6.69152 -0.791466,-1.54244 -0.836974,-1.79214 -0.85153,-4.67224 -0.01026,-2.02911 0.106658,-3.33198 0.350964,-3.91108 0.520359,-1.23346 0.643149,-0.88989 0.165649,0.46349 -0.48289,1.36866 -0.481193,1.33093 -0.05987,1.33093 0.186906,0 0.53491,0.32742 0.773342,0.7276 0.238433,0.40018 1.209633,1.5245 2.158223,2.49848 2.055522,2.11055 4.834627,3.57781 8.502564,4.48903 1.922109,0.4775 3.159249,0.59424 6.416149,0.60541 3.73762,0.0128 4.45986,0.11685 3.77031,0.54302 -0.14552,0.0899 -0.26458,0.0147 -0.26458,-0.16725 0,-0.18192 -0.17481,-0.0996 -0.38846,0.18283 -0.46183,0.61058 -0.52236,1.01404 -0.11431,0.76186 0.21125,-0.13057 0.21174,-0.0318 0.002,0.36052 -1.01504,1.89662 -4.95213,3.4849 -9.024022,3.64044 -1.382448,0.0528 -2.975773,-0.0199 -3.540723,-0.16152 z m 25.013748,-0.78042 c 0,-0.3638 0.0601,-0.51263 0.13345,-0.33073 0.0734,0.1819 0.0734,0.47956 0,0.66146 -0.0734,0.1819 -0.13345,0.0331 -0.13345,-0.33073 z m 0.75198,-2.8948 c 0,-0.13694 0.1177,-0.32171 0.26155,-0.41062 0.14998,-0.0927 0.19434,0.0135 0.10398,0.24897 -0.17589,0.45837 -0.36553,0.54223 -0.36553,0.16165 z m -12.02154,-2.47443 c 0.0994,-0.26093 0.24731,-0.40778 0.32877,-0.32631 0.0815,0.0815 1.7e-4,0.29495 -0.18065,0.47443 -0.26131,0.25936 -0.2917,0.22897 -0.14812,-0.14812 z m -5.08416,-2.58293 c -2.96898,-0.38699 -5.222391,-1.0866 -7.89743,-2.45189 -2.252534,-1.14965 -2.991284,-1.70581 -4.96978,-3.7414 -1.877085,-1.93125 -2.29584,-2.50548 -2.177772,-2.98632 0.217233,-0.8847 -0.02188,-0.72476 -0.687784,0.46006 -0.326234,0.58045 -0.638268,1.01026 -0.69341,0.95511 -0.190652,-0.19065 1.034921,-2.51269 1.646933,-3.12037 3.062292,-3.04061 6.453851,-4.4738 10.718273,-4.52929 2.4222,-0.0315 2.58128,0.003 4.37741,0.95536 3.04707,1.6153 4.42815,3.21086 5.43562,6.27976 0.86945,2.64849 1.09194,5.2056 0.65538,7.53262 l -0.17364,0.9256 -2.30311,-0.0335 c -1.26672,-0.0184 -3.03552,-0.12901 -3.93069,-0.24569 z"
         id="path5482-7"
         inkscape:connector-curvature="0" />
      <path
         style="fill:#55ff55;stroke-width:0.26458335"
         d="m 129.78389,166.28241 c -0.32266,-0.20851 -0.28846,-0.25724 0.18282,-0.26053 0.31883,-0.002 0.65328,0.11501 0.74322,0.26053 0.20819,0.33687 -0.40478,0.33687 -0.92604,0 z m 6.35,-0.10863 c 0,-0.0829 0.74414,-0.4891 1.65364,-0.90271 0.90951,-0.41361 2.36802,-1.39439 3.24115,-2.17951 0.87312,-0.78511 1.34937,-1.13832 1.05833,-0.78491 -0.29104,0.35341 -0.8697,0.9379 -1.28591,1.29887 -0.41621,0.36097 -0.89568,0.78352 -1.06548,0.939 -0.81911,0.75003 -1.9846,1.42476 -2.75229,1.59337 -0.46719,0.10261 -0.84944,0.11876 -0.84944,0.0359 z m -9.49104,-0.90786 c -0.78168,-0.41349 -1.54206,-0.96769 -1.68973,-1.23156 -0.19737,-0.35268 -0.0297,-0.29766 0.63284,0.20771 0.49572,0.37812 1.4347,0.92393 2.0866,1.21293 0.65191,0.289 1.00669,0.53383 0.78841,0.54408 -0.21828,0.0102 -1.03643,-0.31968 -1.81812,-0.73316 z m -2.66796,-2.27654 c -0.18623,-0.22439 -0.16837,-0.3255 0.0585,-0.33133 0.73945,-0.019 3.60625,-0.99378 5.08902,-1.73042 2.67075,-1.32683 5.9889,-3.66669 7.96925,-5.6197 1.8698,-1.84397 4.46713,-5.47576 4.76509,-6.66292 0.21351,-0.85069 0.4009,-0.77928 1.08102,0.41194 1.43079,2.50604 2.02062,6.66364 1.26135,8.89109 l -0.36075,1.05833 0.18265,-1.05833 c 0.47028,-2.72503 -0.10534,-6.85003 -1.18605,-8.49941 -0.40347,-0.61576 -0.41698,-0.60342 -1.90008,1.73532 -1.8426,2.90564 -3.1063,4.27751 -6.06749,6.58686 -4.57015,3.56412 -10.07628,6.20209 -10.89253,5.21857 z m -1.81657,-2.55606 c -0.55341,-1.0368 -0.79807,-1.7888 -0.35467,-1.09017 0.17006,0.26795 0.42606,0.2484 1.25272,-0.0957 2.82301,-1.17505 5.21618,-2.46096 7.63605,-4.10304 3.62311,-2.45856 5.94775,-4.73345 8.04656,-7.87435 0.92648,-1.38649 0.93585,-1.42629 0.42784,-1.81704 -1.22027,-0.93859 -4.01499,-1.99803 -5.61262,-2.12765 -0.9095,-0.0738 -1.65365,-0.23777 -1.65365,-0.36438 0,-0.41562 3.80665,0.10273 5.18544,0.7061 0.74194,0.32467 1.9921,1.22514 2.77813,2.00104 0.78603,0.7759 1.18164,1.20714 0.87914,0.95832 -0.3025,-0.24881 -0.6213,-0.45239 -0.70845,-0.45239 -0.0871,0 -0.57817,0.69094 -1.09117,1.53543 -1.28008,2.10725 -5.67756,6.30069 -8.66797,8.2658 -1.36189,0.89494 -3.70133,2.20984 -5.19875,2.92199 -2.54568,1.21067 -2.70332,1.33083 -2.42596,1.84908 0.16315,0.30485 0.24876,0.60214 0.19026,0.66065 -0.0585,0.0585 -0.36581,-0.37966 -0.6829,-0.97371 z m 21.03873,-0.36529 c 0.24201,-0.5075 0.48698,-0.87575 0.54439,-0.81834 0.12104,0.12104 -0.68215,1.74106 -0.86319,1.74106 -0.0667,0 0.0768,-0.41523 0.3188,-0.92272 z m -21.96802,-1.37034 c -0.097,-0.097 -0.16885,-0.42444 -0.15962,-0.72761 0.0154,-0.50683 0.0372,-0.50018 0.27027,0.0825 0.25911,0.64776 0.20536,0.96111 -0.11065,0.6451 z m -0.3992,-2.20486 c 0,-0.3638 0.0601,-0.51263 0.13345,-0.33073 0.0734,0.1819 0.0734,0.47956 0,0.66146 -0.0734,0.1819 -0.13345,0.0331 -0.13345,-0.33073 z M 95.816082,153.3045 c -2.993554,-0.75052 -6.273319,-3.53016 -7.895493,-6.69152 -0.791466,-1.54244 -0.836974,-1.79214 -0.85153,-4.67224 -0.01026,-2.02911 0.106658,-3.33198 0.350964,-3.91108 0.520359,-1.23346 0.643149,-0.88989 0.165649,0.46349 -0.48289,1.36866 -0.481193,1.33093 -0.05987,1.33093 0.186906,0 0.53491,0.32742 0.773342,0.7276 0.238433,0.40018 1.209633,1.5245 2.158223,2.49848 2.055522,2.11055 4.834627,3.57781 8.502564,4.48903 1.922109,0.4775 3.159249,0.59424 6.416149,0.60541 3.73762,0.0128 4.45986,0.11685 3.77031,0.54302 -0.14552,0.0899 -0.26458,0.0147 -0.26458,-0.16725 0,-0.18192 -0.17481,-0.0996 -0.38846,0.18283 -0.46183,0.61058 -0.52236,1.01404 -0.11431,0.76186 0.21125,-0.13057 0.21174,-0.0318 0.002,0.36052 -1.01504,1.89662 -4.95213,3.4849 -9.024022,3.64044 -1.382448,0.0528 -2.975773,-0.0199 -3.540723,-0.16152 z m 25.013748,-0.78042 c 0,-0.3638 0.0601,-0.51263 0.13345,-0.33073 0.0734,0.1819 0.0734,0.47956 0,0.66146 -0.0734,0.1819 -0.13345,0.0331 -0.13345,-0.33073 z m 0.75198,-2.8948 c 0,-0.13694 0.1177,-0.32171 0.26155,-0.41062 0.14998,-0.0927 0.19434,0.0135 0.10398,0.24897 -0.17589,0.45837 -0.36553,0.54223 -0.36553,0.16165 z m 0.54011,-0.94166 c -0.006,-0.27316 1.30576,-1.9976 2.23801,-2.9421 0.70081,-0.71002 3.23594,-2.09181 4.23333,-2.3074 0.54272,-0.11732 0.29169,0.0957 -0.79375,0.67352 -0.87312,0.4648 -1.67709,0.82124 -1.78659,0.79209 -0.25102,-0.0668 -2.5592,2.19852 -3.31625,3.25472 -0.31291,0.43657 -0.57155,0.67469 -0.57475,0.52917 z m -12.56165,-1.53277 c 0.0994,-0.26093 0.24731,-0.40778 0.32877,-0.32631 0.0815,0.0815 1.7e-4,0.29495 -0.18065,0.47443 -0.26131,0.25936 -0.2917,0.22897 -0.14812,-0.14812 z m -5.08416,-2.58293 c -2.96898,-0.38699 -5.222391,-1.0866 -7.89743,-2.45189 -2.252534,-1.14965 -2.991284,-1.70581 -4.96978,-3.7414 -1.877085,-1.93125 -2.29584,-2.50548 -2.177772,-2.98632 0.217233,-0.8847 -0.02188,-0.72476 -0.687784,0.46006 -0.326234,0.58045 -0.638268,1.01026 -0.69341,0.95511 -0.190652,-0.19065 1.034921,-2.51269 1.646933,-3.12037 3.062292,-3.04061 6.453851,-4.4738 10.718273,-4.52929 2.4222,-0.0315 2.58128,0.003 4.37741,0.95536 3.04707,1.6153 4.42815,3.21086 5.43562,6.27976 0.86945,2.64849 1.09194,5.2056 0.65538,7.53262 l -0.17364,0.9256 -2.30311,-0.0335 c -1.26672,-0.0184 -3.03552,-0.12901 -3.93069,-0.24569 z m 25.37896,-1.49161 c 0.25743,-0.0671 0.61462,-0.0627 0.79375,0.01 0.17913,0.0725 -0.0315,0.12737 -0.46806,0.12197 -0.43656,-0.005 -0.58312,-0.0647 -0.32569,-0.13177 z"
         id="path5480-4"
         inkscape:connector-curvature="0" />
      <path
         style="fill:#ccff00;stroke-width:0.26458335"
         d="m 129.78389,166.28241 c -0.32266,-0.20851 -0.28846,-0.25724 0.18282,-0.26053 0.31883,-0.002 0.65328,0.11501 0.74322,0.26053 0.20819,0.33687 -0.40478,0.33687 -0.92604,0 z m 6.35,-0.10863 c 0,-0.0829 0.74414,-0.4891 1.65364,-0.90271 0.90951,-0.41361 2.36802,-1.39439 3.24115,-2.17951 0.87312,-0.78511 1.34937,-1.13832 1.05833,-0.78491 -0.29104,0.35341 -0.8697,0.9379 -1.28591,1.29887 -0.41621,0.36097 -0.89568,0.78352 -1.06548,0.939 -0.81911,0.75003 -1.9846,1.42476 -2.75229,1.59337 -0.46719,0.10261 -0.84944,0.11876 -0.84944,0.0359 z m -9.49104,-0.90786 c -0.78168,-0.41349 -1.54206,-0.96769 -1.68973,-1.23156 -0.19737,-0.35268 -0.0297,-0.29766 0.63284,0.20771 0.49572,0.37812 1.4347,0.92393 2.0866,1.21293 0.65191,0.289 1.00669,0.53383 0.78841,0.54408 -0.21828,0.0102 -1.03643,-0.31968 -1.81812,-0.73316 z m -2.66796,-2.27654 c -0.18623,-0.22439 -0.16837,-0.3255 0.0585,-0.33133 0.73945,-0.019 3.60625,-0.99378 5.08902,-1.73042 2.67075,-1.32683 5.9889,-3.66669 7.96925,-5.6197 1.8698,-1.84397 4.46713,-5.47576 4.76509,-6.66292 0.21402,-0.85271 0.40082,-0.77941 1.09014,0.4278 0.74206,1.29957 0.78777,1.78581 0.0549,0.58367 l -0.53847,-0.88321 -1.51106,2.38308 c -1.85993,2.93329 -3.11752,4.30034 -6.08482,6.61446 -4.57015,3.56412 -10.07628,6.20209 -10.89253,5.21857 z m -1.81657,-2.55606 c -0.55341,-1.0368 -0.79807,-1.7888 -0.35467,-1.09017 0.17006,0.26795 0.42606,0.2484 1.25272,-0.0957 2.82301,-1.17505 5.21618,-2.46096 7.63605,-4.10304 3.62153,-2.45749 5.94782,-4.73359 8.04391,-7.87036 l 0.94458,-1.41355 -0.64903,-0.49943 c -0.35697,-0.27469 -1.27411,-0.76183 -2.0381,-1.08253 -0.76398,-0.32071 -1.38906,-0.68026 -1.38906,-0.799 0,-0.30997 0.46677,-0.26633 0.67009,0.0627 0.0947,0.1532 0.30901,0.23293 0.47627,0.17718 0.16727,-0.0558 0.46362,0.0581 0.65855,0.25305 0.19493,0.19493 0.45119,0.29461 0.56945,0.22152 0.11827,-0.0731 0.91235,0.54426 1.76461,1.3719 0.85227,0.82765 1.30207,1.30308 0.99957,1.05651 -0.3025,-0.24656 -0.6213,-0.44829 -0.70845,-0.44829 -0.0871,0 -0.57817,0.69094 -1.09117,1.53543 -1.28008,2.10725 -5.67756,6.30069 -8.66797,8.2658 -1.36189,0.89494 -3.70133,2.20984 -5.19875,2.92199 -2.54568,1.21067 -2.70332,1.33083 -2.42596,1.84908 0.16315,0.30485 0.24876,0.60214 0.19026,0.66065 -0.0585,0.0585 -0.36581,-0.37966 -0.6829,-0.97371 z m 21.03873,-0.36529 c 0.24201,-0.5075 0.48698,-0.87575 0.54439,-0.81834 0.12104,0.12104 -0.68215,1.74106 -0.86319,1.74106 -0.0667,0 0.0768,-0.41523 0.3188,-0.92272 z m -21.96802,-1.37034 c -0.097,-0.097 -0.16885,-0.42444 -0.15962,-0.72761 0.0154,-0.50683 0.0372,-0.50018 0.27027,0.0825 0.25911,0.64776 0.20536,0.96111 -0.11065,0.6451 z m 22.71657,-0.35278 c 0.3994,-2.03543 0.40606,-3.72577 0.0218,-5.53837 -0.51925,-2.44951 -0.3798,-2.751 0.2017,-0.43606 0.51782,2.06147 0.5248,4.13796 0.0187,5.57756 -0.20462,0.58208 -0.31363,0.76067 -0.24225,0.39687 z m -23.11577,-1.85208 c 0,-0.3638 0.0601,-0.51263 0.13345,-0.33073 0.0734,0.1819 0.0734,0.47956 0,0.66146 -0.0734,0.1819 -0.13345,0.0331 -0.13345,-0.33073 z M 95.816082,153.3045 c -4.201578,-1.05338 -8.310576,-5.5967 -8.775109,-9.70263 -0.157991,-1.39645 -0.118139,-1.63699 0.312695,-1.88731 0.480408,-0.27913 0.480238,-0.28711 -0.0063,-0.29494 -0.44622,-0.007 -0.484154,-0.16193 -0.352463,-1.4379 0.08117,-0.78642 0.331181,-1.76868 0.55559,-2.18281 0.522478,-0.96419 0.533766,-0.71898 0.03233,0.70225 -0.47976,1.35978 -0.47817,1.32292 -0.05705,1.32292 0.186906,0 0.53491,0.32742 0.773343,0.7276 0.238432,0.40018 1.209633,1.5245 2.158223,2.49848 2.055521,2.11055 4.834626,3.57781 8.502564,4.48903 1.922105,0.4775 3.159245,0.59424 6.416145,0.60541 3.73762,0.0128 4.45987,0.11685 3.77031,0.54302 -0.14552,0.0899 -0.26458,0.0229 -0.26458,-0.14907 0,-0.23295 -0.10112,-0.22867 -0.39688,0.0168 -0.45374,0.37658 -0.54758,1.1827 -0.10589,0.90973 0.21125,-0.13056 0.21174,-0.0318 0.002,0.36052 -1.01504,1.89662 -4.95212,3.48491 -9.024019,3.64044 -1.382448,0.0528 -2.975773,-0.0199 -3.540723,-0.16152 z m 1.229164,-1.1517 c 0.08747,0.0875 0.09369,-0.0909 0.01382,-0.3963 -0.08669,-0.3315 -0.01985,-0.55534 0.165832,-0.55534 0.171081,0 0.238315,0.1177 0.149408,0.26156 -0.09269,0.14998 0.01351,0.19433 0.248969,0.10398 0.760228,-0.29173 0.438684,-0.70188 -0.416206,-0.5309 -0.454753,0.091 -0.997561,0.16536 -1.20624,0.16536 -0.208679,0 -0.309046,0.11387 -0.223037,0.25303 0.08601,0.13917 0.33116,0.18596 0.544781,0.10398 0.213621,-0.082 0.388402,-0.0172 0.388402,0.14385 0,0.16109 -0.238125,0.29289 -0.529167,0.29289 -0.527465,0 -0.688174,0.28197 -0.3522,0.61794 0.09733,0.0973 0.374884,-0.002 0.616784,-0.22106 0.2419,-0.21892 0.511385,-0.32646 0.598857,-0.23899 z m -1.921774,0.115 c 0,-0.14095 -0.178594,-0.18775 -0.396875,-0.10399 -0.218281,0.0838 -0.396875,0.19909 -0.396875,0.25628 0,0.0572 0.178594,0.10399 0.396875,0.10399 0.218281,0 0.396875,-0.11533 0.396875,-0.25628 z m -3.014364,-2.00034 c 0.03142,-0.21407 -0.03156,-0.38922 -0.13995,-0.38922 -0.354283,0 -0.516295,0.30876 -0.366644,0.69874 0.165513,0.43132 0.420749,0.27538 0.506594,-0.30952 z m 5.790616,0.14298 c 0.09269,-0.14998 -0.01351,-0.19434 -0.248968,-0.10398 -0.458369,0.17589 -0.542234,0.36553 -0.161649,0.36553 0.136933,0 0.32171,-0.11769 0.410617,-0.26155 z m 9.923746,-0.51658 c 0,-0.13693 -0.11906,-0.32255 -0.26458,-0.41249 -0.14552,-0.0899 -0.26458,0.0221 -0.26458,0.24897 0,0.22687 0.11906,0.41249 0.26458,0.41249 0.14552,0 0.26458,-0.11204 0.26458,-0.24897 z M 90.783113,149.3082 c 0.116966,-0.18926 0.07258,-0.23365 -0.116677,-0.11668 -0.168005,0.10383 -0.305464,0.0429 -0.305464,-0.13551 0,-0.17836 -0.07145,-0.25284 -0.158786,-0.16551 -0.151352,0.15135 0.07881,0.72316 0.291078,0.72316 0.05558,0 0.186016,-0.13746 0.289849,-0.30546 z m 2.091401,-0.75287 c 0.08994,-0.14552 0.03743,-0.26459 -0.116677,-0.26459 -0.154109,0 -0.280198,0.11907 -0.280198,0.26459 0,0.14552 0.0525,0.26458 0.116677,0.26458 0.06417,0 0.190261,-0.11906 0.280198,-0.26458 z m 1.573358,-0.33832 c -0.07141,-0.18608 0.04761,-0.57303 0.264472,-0.8599 0.216864,-0.28686 0.398085,-0.39871 0.402714,-0.24855 0.0046,0.15016 0.335836,0.28985 0.736018,0.31041 0.707088,0.0363 0.702567,0.0264 -0.160344,-0.35137 -0.804237,-0.35212 -0.918935,-0.34639 -1.216633,0.0607 -0.180776,0.24723 -0.465808,0.36476 -0.633405,0.26118 -0.167597,-0.10358 -0.304722,-0.0622 -0.304722,0.0919 0,0.15411 0.148828,0.28202 0.330729,0.28425 0.236501,0.003 0.225559,0.0707 -0.0384,0.23779 -0.296593,0.1878 -0.270596,0.25896 0.132291,0.36213 0.275784,0.0706 0.527454,0.14221 0.559267,0.15909 0.03181,0.0169 -5.82e-4,-0.12156 -0.07198,-0.30763 z m -4.302976,-0.51276 c -0.1722,-0.1722 -0.313091,-0.43215 -0.313091,-0.57767 0,-0.14699 0.141111,-0.12347 0.3175,0.0529 0.472431,0.47243 0.723471,0.38512 0.608542,-0.21166 -0.05605,-0.29104 0.03016,-0.52917 0.191581,-0.52917 0.161419,0 0.235757,-0.0577 0.165197,-0.12829 -0.261293,-0.26129 -1.947405,0.82944 -2.033944,1.31575 -0.07673,0.4312 -0.02948,0.45393 0.327598,0.15758 0.349561,-0.29011 0.444541,-0.27522 0.585373,0.0918 0.09246,0.24095 0.23476,0.37144 0.316222,0.28997 0.08146,-0.0815 0.0072,-0.289 -0.164978,-0.4612 z m 2.525668,-0.89628 c -0.08792,-0.0879 -0.316122,-0.0973 -0.507118,-0.0209 -0.211067,0.0845 -0.148372,0.14716 0.159853,0.15985 0.278914,0.0115 0.435184,-0.0511 0.347265,-0.13896 z m -3.250883,-0.34463 c 0.08155,-0.13195 -0.09002,-0.1776 -0.38126,-0.10144 -0.617799,0.16156 -0.695893,0.34134 -0.148272,0.34134 0.209693,0 0.447982,-0.10795 0.529532,-0.2399 z m -0.778501,-0.55385 c -0.08994,-0.14552 0.0075,-0.26458 0.216572,-0.26458 0.209051,0 0.530575,-0.18132 0.714497,-0.40293 0.279607,-0.33691 0.263238,-0.37562 -0.0999,-0.23628 -0.469475,0.18016 -0.607153,-0.28106 -0.165399,-0.55408 0.147894,-0.0914 0.201131,-0.27584 0.118304,-0.40986 -0.08548,-0.1383 -0.304148,-0.10179 -0.505711,0.0844 -0.195315,0.18045 -0.305579,0.41007 -0.245032,0.51027 0.06055,0.1002 -0.09515,0.29704 -0.346002,0.43742 -0.384835,0.21536 -0.40131,0.32124 -0.105459,0.67772 0.386893,0.46618 0.676167,0.57542 0.418125,0.15789 z m 32.18865,6.61459 c 0,-0.3638 0.0601,-0.51263 0.13345,-0.33073 0.0734,0.1819 0.0734,0.47956 0,0.66146 -0.0734,0.1819 -0.13345,0.0331 -0.13345,-0.33073 z m 0.75198,-2.8948 c 0,-0.13694 0.1177,-0.32171 0.26155,-0.41062 0.14998,-0.0927 0.19434,0.0135 0.10398,0.24897 -0.17589,0.45837 -0.36553,0.54223 -0.36553,0.16165 z m 0.54011,-0.94166 c -0.007,-0.31208 1.56206,-2.32651 2.46037,-3.15905 0.34525,-0.31996 1.03177,-0.74707 1.5256,-0.94913 0.49383,-0.20207 1.05521,-0.52125 1.2475,-0.70929 0.39359,-0.3849 0.841,-0.4521 0.841,-0.12633 0,0.24039 -1.87103,1.22995 -2.18347,1.15479 -0.25297,-0.0608 -2.56529,2.21214 -3.31625,3.25984 -0.31291,0.43657 -0.57155,0.67469 -0.57475,0.52917 z m -12.56165,-1.53277 c 0.0994,-0.26093 0.24731,-0.40778 0.32877,-0.32631 0.0815,0.0815 1.7e-4,0.29495 -0.18065,0.47443 -0.26131,0.25936 -0.2917,0.22897 -0.14812,-0.14812 z m -5.08416,-2.58293 c -2.96898,-0.38699 -5.222391,-1.0866 -7.89743,-2.45189 -2.252534,-1.14965 -2.991284,-1.70581 -4.96978,-3.7414 -1.877085,-1.93125 -2.29584,-2.50548 -2.177772,-2.98632 0.217233,-0.8847 -0.02188,-0.72476 -0.687784,0.46006 -0.326234,0.58045 -0.635966,1.01256 -0.688293,0.96023 -0.244833,-0.24483 1.650982,-3.60311 2.034028,-3.60311 0.102825,0 0.340738,0.32743 0.528697,0.72761 0.223935,0.47678 0.386505,0.60304 0.471593,0.36627 0.07142,-0.19873 -0.01647,-0.45175 -0.195295,-0.56228 -0.5463,-0.33763 -0.05245,-1.22193 1.128988,-2.02161 2.514959,-1.70229 5.193942,-2.52005 8.392078,-2.56166 2.4222,-0.0315 2.58128,0.003 4.37741,0.95536 2.16058,1.14535 3.26059,2.11348 4.42778,3.89694 0.61584,0.94099 1.766,4.46731 1.50891,4.62621 -0.11936,0.0738 -0.0354,0.49826 0.18666,0.94333 0.38919,0.78015 0.36231,2.28053 -0.0814,4.5439 l -0.14265,0.7276 -2.29408,-0.0335 c -1.26174,-0.0184 -3.02648,-0.12901 -3.92165,-0.24569 z m 3.21507,-0.51451 c -0.72826,-0.31294 -0.98716,-0.31294 -0.79375,0 0.0899,0.14552 0.42439,0.25622 0.74322,0.24599 0.5589,-0.0179 0.56071,-0.0268 0.0505,-0.24599 z m -4.64436,-2.14311 c -0.21681,-0.40512 -0.17735,-0.50678 0.20328,-0.52361 0.32344,-0.0143 0.35883,-0.066 0.11228,-0.16411 -0.19803,-0.0788 -0.64173,0.16055 -0.98601,0.53184 -0.55391,0.59737 -0.57337,0.68677 -0.16911,0.77674 0.80753,0.17972 1.13744,-0.0643 0.83956,-0.62086 z m 3.1175,0.13117 c -0.0879,-0.0879 -0.31613,-0.0973 -0.50712,-0.0209 -0.21107,0.0845 -0.14838,0.14716 0.15985,0.15985 0.27891,0.0115 0.43518,-0.0511 0.34727,-0.13896 z m 2.38124,0 c -0.0879,-0.0879 -0.31612,-0.0973 -0.50711,-0.0209 -0.21107,0.0845 -0.14838,0.14716 0.15985,0.15985 0.27891,0.0115 0.43518,-0.0511 0.34726,-0.13896 z m -4.33495,-0.7776 c -0.0862,-0.22455 -0.21342,-0.35154 -0.28278,-0.28218 -0.0694,0.0693 -0.0476,0.25308 0.0483,0.40829 0.2609,0.42213 0.41338,0.34012 0.23448,-0.12611 z m -5.515263,-0.91463 c -0.08994,-0.14552 -0.305323,-0.26276 -0.478636,-0.26053 -0.18934,0.002 -0.156706,0.10643 0.08176,0.26053 0.508297,0.32849 0.599891,0.32849 0.396876,0 z m 6.283853,0.0894 c -0.1819,-0.0734 -0.47956,-0.0734 -0.66146,0 -0.1819,0.0734 -0.0331,0.13345 0.33073,0.13345 0.3638,0 0.51263,-0.0601 0.33073,-0.13345 z m 1.64235,-0.37222 c -0.0837,-0.13547 -0.0261,-0.2463 0.12797,-0.2463 0.15411,0 0.2802,-0.14288 0.2802,-0.3175 0,-0.24545 -0.0714,-0.24605 -0.31482,-0.003 -0.37939,0.37938 -0.53431,1.17938 -0.1868,0.96461 0.13512,-0.0835 0.17717,-0.26267 0.0935,-0.39814 z m -8.852245,-0.58687 c 0,-0.18732 -0.235739,-0.35833 -0.523864,-0.38004 -0.428408,-0.0323 -0.464567,0.028 -0.198438,0.33051 0.411782,0.46814 0.722302,0.48944 0.722302,0.0495 z m -3.89008,-1.75582 c -0.116029,-0.0873 -0.288144,-0.25437 -0.382479,-0.37126 -0.09433,-0.1169 -0.153866,0.0826 -0.132291,0.44343 0.03023,0.5056 0.11791,0.5907 0.382478,0.37126 0.18879,-0.15659 0.248321,-0.35613 0.132292,-0.44343 z m -0.87242,0.008 c 0,-0.12995 -0.17253,-0.30248 -0.3834,-0.3834 -0.256255,-0.0983 -0.33461,-0.02 -0.236276,0.23627 0.160594,0.4185 0.619676,0.5275 0.619676,0.14713 z m 17.268735,-0.31526 c -0.10517,-0.40215 -0.20123,-0.45931 -0.35465,-0.21107 -0.2277,0.36843 -0.0857,0.7626 0.27468,0.7626 0.12331,0 0.15929,-0.24819 0.08,-0.55153 z m -12.395582,0.12635 c 0.632816,-0.24283 0.50175,-0.52732 -0.242944,-0.52732 -0.366346,0 -0.661459,0.15346 -0.661459,0.34396 0,0.3768 0.261921,0.42991 0.904403,0.18336 z m -5.666903,-1.5403 c 0,-0.30928 -0.870472,-0.92875 -1.103068,-0.785 -0.146661,0.0906 0.01177,0.31818 0.35206,0.50565 0.767135,0.42262 0.751008,0.41662 0.751008,0.27935 z m 4.426259,-0.0465 c -0.08792,-0.0879 -0.316122,-0.0973 -0.507118,-0.0209 -0.211067,0.0845 -0.148372,0.14716 0.159853,0.15985 0.278914,0.0115 0.435184,-0.051 0.347265,-0.13896 z m 2.188325,-0.37663 c 0,-0.13236 -0.17791,-0.17239 -0.395355,-0.0889 -0.217446,0.0834 -0.328281,0.26024 -0.246302,0.39289 0.171467,0.27744 0.641657,0.0547 0.641657,-0.30394 z m -5.989737,-0.12498 c 0.09184,-0.23933 0.0014,-0.39687 -0.227972,-0.39687 -0.229313,0 -0.31981,0.15754 -0.227971,0.39687 0.08376,0.21828 0.186349,0.39688 0.227971,0.39688 0.04162,0 0.14421,-0.1786 0.227972,-0.39688 z m 2.16028,-0.0812 c -0.08146,-0.0815 -0.294956,-1.7e-4 -0.474432,0.18065 -0.259363,0.26131 -0.228971,0.2917 0.148112,0.14812 0.260938,-0.0994 0.407782,-0.24731 0.32632,-0.32877 z m 7.112318,-0.61253 c -0.0157,-0.53228 -0.20392,-0.91478 -0.52916,-1.07555 -0.44278,-0.21887 -0.45317,-0.20678 -0.0846,0.0984 0.23105,0.19136 0.36865,0.50068 0.30577,0.68738 -0.10451,0.31031 0.0817,1.11573 0.25801,1.11577 0.0409,1e-5 0.0635,-0.3717 0.05,-0.82603 z m -9.938434,-0.52224 c -0.45126,-0.27889 -0.762508,-0.0433 -0.578015,0.43744 0.119286,0.31085 0.232383,0.32814 0.530135,0.081 0.295996,-0.24566 0.306432,-0.35867 0.04788,-0.51847 z m 15.651404,0.5545 c 0,-0.14552 -0.11906,-0.26458 -0.26458,-0.26458 -0.14552,0 -0.26458,0.11906 -0.26458,0.26458 0,0.14553 0.11906,0.26459 0.26458,0.26459 0.14552,0 0.26458,-0.11906 0.26458,-0.26459 z m -10.756613,-0.40828 c -0.08617,-0.22456 -0.213419,-0.35154 -0.282774,-0.28219 -0.06935,0.0694 -0.04762,0.25309 0.0483,0.40829 0.260893,0.42213 0.41338,0.34012 0.234474,-0.1261 z m 0.618606,-0.17049 c -0.08446,-0.21107 -0.147157,-0.14837 -0.159853,0.15985 -0.01149,0.27891 0.05105,0.43519 0.138965,0.34727 0.08792,-0.0879 0.09732,-0.31613 0.02089,-0.50712 z m 2.332797,-0.47956 c 0.0899,-0.14552 0.0374,-0.26458 -0.116673,-0.26458 -0.154109,0 -0.280198,0.11906 -0.280198,0.26458 0,0.14552 0.0525,0.26458 0.116676,0.26458 0.06417,0 0.190262,-0.11906 0.280195,-0.26458 z m -6.89245,-0.28608 c -0.06727,-0.10884 0.02727,-0.26649 0.210076,-0.35034 0.182808,-0.0838 0.07451,-0.0892 -0.240668,-0.0118 -0.315176,0.0773 -0.660994,-0.002 -0.768485,-0.17562 -0.132411,-0.21424 -0.08243,-0.24638 0.154988,-0.0996 0.248888,0.15382 0.305057,0.0983 0.193848,-0.19146 -0.08612,-0.22442 -0.01705,-0.55618 0.153475,-0.73725 0.245679,-0.26087 0.200186,-0.26979 -0.219114,-0.043 -0.660723,0.35739 -1.85999,1.63063 -1.535895,1.63063 0.13169,0 0.368384,-0.12895 0.525986,-0.28655 0.205677,-0.20568 0.385348,-0.18079 0.636613,0.0882 0.3587,0.38399 1.109483,0.53332 0.889176,0.17686 z m 3.481178,-0.13243 c -0.08833,-0.23019 -0.160599,-0.46831 -0.160599,-0.52917 0,-0.0609 -0.133641,-0.11065 -0.29698,-0.11065 -0.218445,0 -0.219052,0.0939 -0.0023,0.35507 0.162076,0.19529 0.216342,0.43342 0.120591,0.52917 -0.09575,0.0958 -0.02244,0.17409 0.162901,0.17409 0.198587,0 0.27103,-0.17188 0.176389,-0.41851 z m 1.934019,-0.28017 c 0.06063,-0.0523 -0.20023,-0.0951 -0.579698,-0.0951 -0.379467,0 -0.766475,0.12384 -0.860016,0.27519 -0.15394,0.24908 1.127995,0.0887 1.439714,-0.18012 z m -2.888368,0.0655 c 0,-0.0572 -0.184778,-0.17489 -0.410617,-0.26155 -0.235459,-0.0904 -0.341662,-0.046 -0.248969,0.10398 0.155379,0.25141 0.659586,0.37186 0.659586,0.15757 z m -1.905972,-1.2069 c -0.177625,-0.28442 -0.374194,-0.46589 -0.43682,-0.40327 -0.113399,0.1134 0.463215,0.9204 0.657639,0.9204 0.05617,0 -0.04319,-0.2327 -0.220819,-0.51713 z m 3.824201,-0.27566 c -0.327422,-0.26546 -0.595313,-0.67294 -0.595313,-0.90551 0,-0.35375 -0.08475,-0.36992 -0.518612,-0.099 -0.33673,0.21029 -0.416054,0.38727 -0.22618,0.50462 0.181396,0.1121 0.102041,0.22948 -0.208992,0.30912 -0.275783,0.0706 -0.0512,0.14221 0.499068,0.15909 0.636203,0.0195 1.057537,0.17936 1.157165,0.43898 0.08617,0.22456 0.231262,0.33337 0.322425,0.24181 0.09116,-0.0916 -0.102139,-0.38368 -0.429561,-0.64914 z m 6.019272,0.67612 c 0,-0.0642 -0.11906,-0.19026 -0.26458,-0.2802 -0.14552,-0.0899 -0.26459,-0.0374 -0.26459,0.11668 0,0.1541 0.11907,0.28019 0.26459,0.28019 0.14552,0 0.26458,-0.0525 0.26458,-0.11667 z m -6.421659,-0.30776 c -0.08792,-0.0879 -0.316122,-0.0973 -0.507118,-0.0209 -0.211067,0.0845 -0.148372,0.14716 0.159852,0.15985 0.278915,0.0115 0.435185,-0.051 0.347266,-0.13896 z m 3.180049,-0.56638 c 0.0543,-0.16295 -0.1291,-0.41822 -0.407591,-0.56727 -0.446247,-0.23882 -0.491355,-0.19252 -0.379994,0.39003 0.124401,0.65076 0.594485,0.75655 0.787585,0.17724 z m -1.454745,0.0218 c -0.181901,-0.0734 -0.479558,-0.0734 -0.661459,0 -0.181901,0.0734 -0.03307,0.13345 0.330729,0.13345 0.363803,0 0.512631,-0.0601 0.33073,-0.13345 z m -0.06615,-0.8909 c 0,-0.2588 1.140673,-0.17619 2.431925,0.17611 0.31107,0.0849 0.43625,-0.0279 0.41049,-0.36985 -0.0328,-0.43573 -0.23516,-0.48167 -1.770464,-0.40202 -2.429515,0.12604 -2.571257,0.15223 -2.571257,0.47504 0,0.15799 0.337344,0.31296 0.749653,0.34438 0.412309,0.0314 0.749653,-0.0692 0.749653,-0.22366 z m 34.461975,12.77731 c -0.76398,-0.0534 -1.38906,-0.22559 -1.38906,-0.38255 0,-0.18253 0.35756,-0.22627 0.99219,-0.12137 0.5457,0.0902 1.31961,0.1653 1.71979,0.1669 0.40018,0.002 0.7276,0.12198 0.7276,0.2675 0,0.14552 -0.14882,0.24256 -0.33072,0.21564 -0.18191,-0.0269 -0.95581,-0.0927 -1.7198,-0.14612 z m -3.30729,-0.24475 c 0.1819,-0.0734 0.47956,-0.0734 0.66146,0 0.1819,0.0734 0.0331,0.13346 -0.33073,0.13346 -0.3638,0 -0.51263,-0.0601 -0.33073,-0.13346 z"
         id="path5478-8"
         inkscape:connector-curvature="0" />
      <path
         style="fill:#99ff55;stroke-width:0.26458335"
         d="m 129.78389,166.28241 c -0.21828,-0.14106 -0.27781,-0.25648 -0.13229,-0.25648 0.14552,0 0.44317,0.11542 0.66145,0.25648 0.21829,0.14107 0.27782,0.25648 0.1323,0.25648 -0.14552,0 -0.44318,-0.11541 -0.66146,-0.25648 z m 6.61458,-0.1541 c 0,-0.0644 0.6283,-0.39502 1.39623,-0.73463 0.76792,-0.33961 2.16691,-1.3183 3.10885,-2.17485 0.94195,-0.85656 1.47451,-1.26375 1.18346,-0.90487 -0.66966,0.82575 -0.80709,0.94957 -2.58085,2.32512 -1.25338,0.972 -3.10769,1.8606 -3.10769,1.48923 z m -10.64948,-1.32015 c -0.40018,-0.2171 -0.7276,-0.45046 -0.7276,-0.51857 0,-0.25557 0.41817,-0.0954 1.05833,0.40532 0.78631,0.61506 0.66857,0.65538 -0.33073,0.11325 z m -0.83781,-1.95654 c -0.37202,-0.13127 -0.0549,-0.30287 1.19063,-0.64429 3.0979,-0.84919 8.86631,-4.48145 11.54624,-7.27045 1.39738,-1.45425 3.21721,-3.95964 4.01075,-5.52166 0.31419,-0.61846 0.62418,-1.12448 0.68886,-1.12448 0.0647,0 0.26035,0.2679 0.43482,0.59532 0.27796,0.52164 0.26729,0.55415 -0.0862,0.26272 -0.34544,-0.2848 -0.58526,-0.0196 -1.66905,1.84567 -1.48691,2.55903 -3.41957,4.66706 -6.34856,6.92459 -2.43179,1.87431 -3.23374,2.38163 -5.88912,3.72549 -2.30261,1.16533 -3.20272,1.44548 -3.87838,1.20709 z m -3.08116,-3.07122 c -0.26117,-0.31469 -0.24985,-0.36117 0.0591,-0.24263 0.21018,0.0807 0.8352,-0.0427 1.38894,-0.27402 1.41341,-0.59057 1.44184,-0.34114 0.0388,0.34051 -1.01467,0.49297 -1.20516,0.51553 -1.48683,0.17614 z m 3.60147,-1.42169 c 0.31187,-0.31116 2.23573,-1.12758 2.23573,-0.94877 0,0.15183 -2.00132,1.19956 -2.29133,1.19956 -0.10766,0 -0.0826,-0.11286 0.0556,-0.25079 z m 18.66079,-0.6973 c 0.0127,-0.30823 0.0754,-0.37092 0.15985,-0.15986 0.0764,0.191 0.067,0.4192 -0.0209,0.50712 -0.0879,0.0879 -0.15045,-0.0683 -0.13897,-0.34726 z m -15.70927,-0.84666 c 0.32092,-0.24981 1.15436,-0.8047 1.85208,-1.23307 0.69772,-0.42837 1.80437,-1.18554 2.45921,-1.68261 l 1.19063,-0.90377 -0.92604,0.84626 c -1.05907,0.96783 -4.63318,3.44943 -4.94899,3.43622 -0.11571,-0.005 0.0522,-0.21321 0.37311,-0.46303 z m 15.88176,-1.77713 c -0.11191,-1.16417 -0.25718,-2.47385 -0.32281,-2.91042 -0.0656,-0.43656 0.0553,-0.1389 0.26867,0.66146 0.21339,0.80037 0.35865,2.11005 0.32281,2.91042 -0.0623,1.39026 -0.0743,1.36073 -0.26867,-0.66146 z m -48.612131,-1.81244 c -4.113816,-1.11088 -8.102578,-5.50012 -8.597406,-9.4606 -0.148719,-1.1903 -0.09963,-1.55567 0.256928,-1.91223 0.390098,-0.39009 0.392973,-0.44077 0.025,-0.44077 -0.318409,0 -0.407336,-0.26333 -0.379743,-1.12448 0.02224,-0.69391 0.08209,-0.88011 0.156315,-0.48628 0.08085,0.42901 0.186769,0.53063 0.323109,0.31003 0.138621,-0.2243 0.50169,0.0762 1.146929,0.94929 3.585843,4.85206 9.158518,7.2306 16.940489,7.2306 2.48795,0 3.12824,0.0706 2.88129,0.3175 -0.38296,0.38297 -0.42667,1.10412 -0.0529,0.87313 0.61496,-0.38007 0.18243,0.24396 -0.92757,1.33826 -0.65569,0.6464 -1.40579,1.17528 -1.66688,1.17528 -0.26109,0 -0.58782,0.11084 -0.72607,0.24631 -0.13824,0.13547 -1.19651,0.49266 -2.3517,0.79375 -2.34594,0.61145 -5.18345,0.68825 -7.027776,0.19021 z m 1.392607,-1.07238 c 0.08747,0.0875 0.09369,-0.0909 0.01382,-0.3963 -0.08669,-0.3315 -0.01985,-0.55534 0.165832,-0.55534 0.171081,0 0.238315,0.1177 0.149408,0.26156 -0.09269,0.14998 0.01351,0.19433 0.248969,0.10398 0.760228,-0.29173 0.438684,-0.70188 -0.416206,-0.5309 -0.454753,0.091 -0.997561,0.16536 -1.20624,0.16536 -0.208679,0 -0.309046,0.11387 -0.223037,0.25303 0.08601,0.13917 0.33116,0.18596 0.544781,0.10398 0.213621,-0.082 0.388402,-0.0172 0.388402,0.14385 0,0.16109 -0.238125,0.29289 -0.529167,0.29289 -0.527465,0 -0.688174,0.28197 -0.3522,0.61794 0.09733,0.0973 0.374884,-0.002 0.616784,-0.22106 0.2419,-0.21892 0.511385,-0.32646 0.598857,-0.23899 z m -1.921774,0.115 c 0,-0.14095 -0.178594,-0.18775 -0.396875,-0.10399 -0.218281,0.0838 -0.396875,0.19909 -0.396875,0.25628 0,0.0572 0.178594,0.10399 0.396875,0.10399 0.218281,0 0.396875,-0.11533 0.396875,-0.25628 z m -3.014364,-2.00034 c 0.03142,-0.21407 -0.03156,-0.38922 -0.13995,-0.38922 -0.354283,0 -0.516295,0.30876 -0.366644,0.69874 0.165513,0.43132 0.420749,0.27538 0.506594,-0.30952 z m 5.790616,0.14298 c 0.09269,-0.14998 -0.01351,-0.19434 -0.248968,-0.10398 -0.458369,0.17589 -0.542234,0.36553 -0.161649,0.36553 0.136933,0 0.32171,-0.11769 0.410617,-0.26155 z m 10.038906,-0.50447 c 0.0805,-0.13027 -0.0315,-0.30513 -0.24897,-0.38857 -0.24015,-0.0922 -0.39536,7.9e-4 -0.39536,0.23686 0,0.42793 0.41345,0.52528 0.64433,0.15171 z M 90.783113,149.3082 c 0.116966,-0.18926 0.07258,-0.23365 -0.116677,-0.11668 -0.168005,0.10383 -0.305464,0.0429 -0.305464,-0.13551 0,-0.17836 -0.07145,-0.25284 -0.158786,-0.16551 -0.151352,0.15135 0.07881,0.72316 0.291078,0.72316 0.05558,0 0.186016,-0.13746 0.289849,-0.30546 z m 2.091401,-0.75287 c 0.08994,-0.14552 0.03743,-0.26459 -0.116677,-0.26459 -0.154109,0 -0.280198,0.11907 -0.280198,0.26459 0,0.14552 0.0525,0.26458 0.116677,0.26458 0.06417,0 0.190261,-0.11906 0.280198,-0.26458 z m 1.590879,-0.25912 c -0.08808,-0.14251 -0.02277,-0.51578 0.145116,-0.82949 0.243604,-0.45518 0.352135,-0.49636 0.537351,-0.20391 0.127651,0.20156 0.233916,0.28549 0.236144,0.18651 0.0022,-0.099 0.383119,-0.0713 0.846423,0.0616 1.329252,0.38122 1.171492,0.0909 -0.205576,-0.37829 -1.147657,-0.39105 -1.268568,-0.39022 -1.561702,0.0107 -0.174753,0.23899 -0.454858,0.34978 -0.622455,0.2462 -0.167597,-0.10358 -0.304722,-0.0622 -0.304722,0.0919 0,0.15411 0.148828,0.28202 0.330729,0.28425 0.236501,0.003 0.225559,0.0707 -0.0384,0.23779 -0.296593,0.1878 -0.270596,0.25896 0.132291,0.36213 0.275784,0.0706 0.538217,0.14221 0.583186,0.15909 0.04497,0.0169 0.0097,-0.0859 -0.07838,-0.22843 z m -4.320497,-0.59196 c -0.1722,-0.1722 -0.313091,-0.43215 -0.313091,-0.57767 0,-0.14699 0.141111,-0.12347 0.3175,0.0529 0.472431,0.47243 0.723471,0.38512 0.608542,-0.21166 -0.05605,-0.29104 0.03016,-0.52917 0.191581,-0.52917 0.161419,0 0.235757,-0.0577 0.165197,-0.12829 -0.261293,-0.26129 -1.947405,0.82944 -2.033944,1.31575 -0.07673,0.4312 -0.02948,0.45393 0.327598,0.15758 0.349561,-0.29011 0.444541,-0.27522 0.585373,0.0918 0.09246,0.24095 0.23476,0.37144 0.316222,0.28997 0.08146,-0.0815 0.0072,-0.289 -0.164978,-0.4612 z m 2.525668,-0.89628 c -0.08792,-0.0879 -0.316122,-0.0973 -0.507118,-0.0209 -0.211067,0.0845 -0.148372,0.14716 0.159853,0.15985 0.278914,0.0115 0.435184,-0.0511 0.347265,-0.13896 z m -3.250883,-0.34463 c 0.08155,-0.13195 -0.09002,-0.1776 -0.38126,-0.10144 -0.617799,0.16156 -0.695893,0.34134 -0.148272,0.34134 0.209693,0 0.447982,-0.10795 0.529532,-0.2399 z m 4.910041,0.11692 c 0,-0.0676 -0.267891,-0.2528 -0.595312,-0.41147 -0.571666,-0.27703 -0.574912,-0.27214 -0.08172,0.12298 0.539819,0.43249 0.677034,0.49096 0.677034,0.28849 z m -5.688542,-0.67077 c -0.08994,-0.14552 0.0075,-0.26458 0.216572,-0.26458 0.209051,0 0.530575,-0.18132 0.714497,-0.40293 0.279607,-0.33691 0.263238,-0.37562 -0.0999,-0.23628 -0.469475,0.18016 -0.607153,-0.28106 -0.165399,-0.55408 0.147894,-0.0914 0.201131,-0.27584 0.118304,-0.40986 -0.08548,-0.1383 -0.304148,-0.10179 -0.505711,0.0844 -0.195315,0.18045 -0.305579,0.41007 -0.245032,0.51027 0.06055,0.1002 -0.09515,0.29704 -0.346002,0.43742 -0.384835,0.21536 -0.40131,0.32124 -0.105459,0.67772 0.386893,0.46618 0.676167,0.57542 0.418125,0.15789 z m 2.248959,-1.74827 c 0,-0.21898 -0.513749,-0.34281 -0.631538,-0.15222 -0.07641,0.12364 0.03442,0.2248 0.246302,0.2248 0.211879,0 0.385236,-0.0327 0.385236,-0.0726 z m -2.116667,-2.07257 c 0,-0.0642 -0.119062,-0.19026 -0.264583,-0.2802 -0.145521,-0.0899 -0.264584,-0.0374 -0.264584,0.11668 0,0.15411 0.119063,0.2802 0.264584,0.2802 0.145521,0 0.264583,-0.0525 0.264583,-0.11668 z m 47.343288,8.71564 c 0.38372,-0.73755 2.76483,-3.30356 2.42856,-2.61715 -0.15031,0.30682 -0.82017,1.14026 -1.48858,1.85209 -0.6684,0.71182 -1.0914,1.0561 -0.93998,0.76506 z m -27.08565,-2.32652 c 0.0994,-0.26094 0.2473,-0.40778 0.32876,-0.32632 0.0815,0.0815 1.7e-4,0.29496 -0.18065,0.47443 -0.26131,0.25937 -0.2917,0.22898 -0.14811,-0.14811 z m 13.37435,-0.34148 c 0.59854,-0.89924 1.83657,-2.30105 1.93755,-2.19387 0.0515,0.0547 -0.44596,0.69468 -1.10545,1.42228 -0.65949,0.72761 -1.03394,1.07482 -0.8321,0.77159 z m 16.63884,-1.16846 c 0.15576,-0.29104 0.34274,-0.52917 0.4155,-0.52917 0.0728,0 0.005,0.23813 -0.15091,0.52917 -0.15576,0.29104 -0.34273,0.52916 -0.4155,0.52916 -0.0728,0 -0.005,-0.23812 0.15091,-0.52916 z m 0.44527,-1.15994 c -0.0821,-0.21396 -0.9891,-0.79524 -2.01555,-1.29175 -1.02645,-0.4965 -1.80103,-0.96797 -1.72129,-1.04771 0.0797,-0.0798 0.58439,0.0687 1.12144,0.32997 0.53705,0.26122 1.06644,0.41934 1.17642,0.35137 0.10998,-0.068 0.19997,0.005 0.19997,0.16228 0,0.15723 0.2911,0.41851 0.6469,0.58062 0.60392,0.27516 1.08705,0.95856 0.84722,1.1984 -0.0582,0.0582 -0.17301,-0.0692 -0.25511,-0.28318 z m -13.40818,-0.89951 c 0.002,-0.23526 1.61714,-1.17243 1.76526,-1.02432 0.0593,0.0593 -0.31405,0.35662 -0.82959,0.6608 -0.51554,0.30417 -0.93658,0.46776 -0.93567,0.36352 z m -20.24229,-0.33687 c -3.78254,-0.29212 -6.621891,-1.09223 -9.45146,-2.66339 -3.128472,-1.73712 -3.586966,-2.09097 -5.345377,-4.12537 -0.933823,-1.08039 -1.475041,-1.94696 -1.475041,-2.36177 0,-0.42789 0.105978,-0.58972 0.305464,-0.46643 0.195079,0.12057 0.233393,0.0722 0.106024,-0.13391 -0.265951,-0.43032 -1.040967,0.26392 -1.481258,1.32688 -0.178405,0.43071 -0.375884,0.7316 -0.43884,0.66864 -0.142158,-0.14216 1.076632,-2.4919 1.664889,-3.20979 0.257196,-0.31388 0.478963,-0.40987 0.545083,-0.23596 0.06131,0.16126 0.281985,0.51845 0.49039,0.79375 0.34717,0.4586 0.379624,0.46175 0.387334,0.0375 0.0046,-0.25466 -0.110648,-0.46302 -0.256169,-0.46302 -0.536307,0 -0.241086,-0.76648 0.552378,-1.43414 2.416893,-2.03368 5.523413,-3.09577 9.104913,-3.11288 2.2259,-0.0106 2.50208,0.0508 4.23333,0.94151 1.64502,0.84636 2.89611,1.8158 3.70417,2.87027 0.14552,0.1899 0.42033,0.54284 0.61068,0.78431 0.57524,0.72975 1.88074,4.69588 1.60234,4.86794 -0.15313,0.0946 -0.11762,0.32195 0.0892,0.57123 0.3706,0.44661 0.4312,2.95664 0.11184,4.63207 -0.21646,1.1356 0.008,1.10395 -5.05993,0.71254 z m 1.85208,-0.5141 c -0.72826,-0.31294 -0.98716,-0.31294 -0.79375,0 0.0899,0.14552 0.42439,0.25622 0.74322,0.24599 0.5589,-0.0179 0.56071,-0.0268 0.0505,-0.24599 z m -4.64436,-2.14311 c -0.21681,-0.40512 -0.17735,-0.50678 0.20328,-0.52361 0.32344,-0.0143 0.35883,-0.066 0.11228,-0.16411 -0.19803,-0.0788 -0.64173,0.16055 -0.98601,0.53184 -0.5539,0.59737 -0.57337,0.68677 -0.16911,0.77674 0.80753,0.17972 1.13744,-0.0643 0.83956,-0.62086 z m 3.1175,0.13117 c -0.0879,-0.0879 -0.31613,-0.0973 -0.50712,-0.0209 -0.21107,0.0845 -0.14838,0.14716 0.15985,0.15985 0.27891,0.0115 0.43518,-0.0511 0.34727,-0.13896 z m 2.38125,0 c -0.0879,-0.0879 -0.31613,-0.0973 -0.50712,-0.0209 -0.21107,0.0845 -0.14838,0.14716 0.15985,0.15985 0.27891,0.0115 0.43518,-0.0511 0.34727,-0.13896 z m -4.33496,-0.7776 c -0.0862,-0.22455 -0.21342,-0.35154 -0.28278,-0.28218 -0.0694,0.0693 -0.0476,0.25308 0.0483,0.40829 0.2609,0.42213 0.41338,0.34012 0.23448,-0.12611 z m -5.515263,-0.91463 c -0.08994,-0.14552 -0.305323,-0.26276 -0.478636,-0.26053 -0.18934,0.002 -0.156706,0.10643 0.08176,0.26053 0.508297,0.32849 0.599891,0.32849 0.396876,0 z m 6.283853,0.0894 c -0.1819,-0.0734 -0.47956,-0.0734 -0.66146,0 -0.1819,0.0734 -0.0331,0.13345 0.33073,0.13345 0.3638,0 0.51263,-0.0601 0.33073,-0.13345 z m 1.64235,-0.37222 c -0.0837,-0.13547 -0.0261,-0.2463 0.12797,-0.2463 0.15411,0 0.2802,-0.14288 0.2802,-0.3175 0,-0.24545 -0.0714,-0.24605 -0.31482,-0.003 -0.37939,0.37938 -0.53431,1.17938 -0.1868,0.96461 0.13512,-0.0835 0.17717,-0.26267 0.0935,-0.39814 z m -8.852245,-0.58687 c 0,-0.18732 -0.235739,-0.35833 -0.523864,-0.38004 -0.428408,-0.0323 -0.464567,0.028 -0.198438,0.33051 0.411782,0.46814 0.722302,0.48944 0.722302,0.0495 z m -3.89008,-1.75582 c -0.116029,-0.0873 -0.288144,-0.25437 -0.382479,-0.37126 -0.09433,-0.1169 -0.153866,0.0826 -0.132291,0.44343 0.03023,0.5056 0.11791,0.5907 0.382478,0.37126 0.18879,-0.15659 0.248321,-0.35613 0.132292,-0.44343 z m -0.87242,0.008 c 0,-0.12995 -0.17253,-0.30248 -0.3834,-0.3834 -0.256255,-0.0983 -0.33461,-0.02 -0.236276,0.23627 0.160594,0.4185 0.619676,0.5275 0.619676,0.14713 z m 17.268735,-0.31526 c -0.10517,-0.40215 -0.20123,-0.45931 -0.35465,-0.21107 -0.2277,0.36843 -0.0857,0.7626 0.27468,0.7626 0.12331,0 0.15929,-0.24819 0.08,-0.55153 z m -12.395582,0.12635 c 0.632816,-0.24283 0.50175,-0.52732 -0.242944,-0.52732 -0.366346,0 -0.661459,0.15346 -0.661459,0.34396 0,0.3768 0.261921,0.42991 0.904403,0.18336 z m -5.666903,-1.5403 c 0,-0.30928 -0.870472,-0.92875 -1.103068,-0.785 -0.146661,0.0906 0.01177,0.31818 0.35206,0.50565 0.767135,0.42262 0.751008,0.41662 0.751008,0.27935 z m 4.426259,-0.0465 c -0.08792,-0.0879 -0.316122,-0.0973 -0.507118,-0.0209 -0.211067,0.0845 -0.148372,0.14716 0.159853,0.15985 0.278914,0.0115 0.435184,-0.051 0.347265,-0.13896 z m 2.188325,-0.37663 c 0,-0.13236 -0.17791,-0.17239 -0.395355,-0.0889 -0.217446,0.0834 -0.328281,0.26024 -0.246302,0.39289 0.171467,0.27744 0.641657,0.0547 0.641657,-0.30394 z m -5.989737,-0.12498 c 0.09184,-0.23933 0.0014,-0.39687 -0.227972,-0.39687 -0.229313,0 -0.31981,0.15754 -0.227971,0.39687 0.08376,0.21828 0.186349,0.39688 0.227971,0.39688 0.04162,0 0.14421,-0.1786 0.227972,-0.39688 z m 2.16028,-0.0812 c -0.08146,-0.0815 -0.294956,-1.7e-4 -0.474432,0.18065 -0.259363,0.26131 -0.228971,0.2917 0.148112,0.14812 0.260938,-0.0994 0.407782,-0.24731 0.32632,-0.32877 z m 7.112318,-0.61253 c -0.0157,-0.53228 -0.20392,-0.91478 -0.52916,-1.07555 -0.44278,-0.21887 -0.45317,-0.20678 -0.0846,0.0984 0.23105,0.19136 0.36865,0.50068 0.30577,0.68738 -0.10451,0.31031 0.0817,1.11573 0.25801,1.11577 0.0409,1e-5 0.0635,-0.3717 0.05,-0.82603 z m -9.938434,-0.52224 c -0.45126,-0.27889 -0.762508,-0.0433 -0.578015,0.43744 0.119286,0.31085 0.232383,0.32814 0.530135,0.081 0.295996,-0.24566 0.306432,-0.35867 0.04788,-0.51847 z m 15.651404,0.5545 c 0,-0.14552 -0.11906,-0.26458 -0.26458,-0.26458 -0.14552,0 -0.26458,0.11906 -0.26458,0.26458 0,0.14553 0.11906,0.26459 0.26458,0.26459 0.14552,0 0.26458,-0.11906 0.26458,-0.26459 z m -10.756613,-0.40828 c -0.08617,-0.22456 -0.213419,-0.35154 -0.282774,-0.28219 -0.06935,0.0694 -0.04762,0.25309 0.0483,0.40829 0.260893,0.42213 0.41338,0.34012 0.234474,-0.1261 z m 0.618606,-0.17049 c -0.08446,-0.21107 -0.147157,-0.14837 -0.159853,0.15985 -0.01149,0.27891 0.05105,0.43519 0.138965,0.34727 0.08792,-0.0879 0.09732,-0.31613 0.02089,-0.50712 z m 2.332797,-0.47956 c 0.0899,-0.14552 0.0374,-0.26458 -0.116673,-0.26458 -0.154109,0 -0.280198,0.11906 -0.280198,0.26458 0,0.14552 0.0525,0.26458 0.116676,0.26458 0.06417,0 0.190262,-0.11906 0.280195,-0.26458 z m -6.89245,-0.28608 c -0.06727,-0.10884 0.02727,-0.26649 0.210076,-0.35034 0.182808,-0.0838 0.07451,-0.0892 -0.240668,-0.0118 -0.315176,0.0773 -0.660994,-0.002 -0.768485,-0.17562 -0.132411,-0.21424 -0.08243,-0.24638 0.154988,-0.0996 0.248888,0.15382 0.305057,0.0983 0.193848,-0.19146 -0.08612,-0.22442 -0.01705,-0.55618 0.153475,-0.73725 0.245679,-0.26087 0.200186,-0.26979 -0.219114,-0.043 -0.660723,0.35739 -1.85999,1.63063 -1.535895,1.63063 0.13169,0 0.368384,-0.12895 0.525986,-0.28655 0.205677,-0.20568 0.385348,-0.18079 0.636613,0.0882 0.3587,0.38399 1.109483,0.53332 0.889176,0.17686 z m 3.481178,-0.13243 c -0.08833,-0.23019 -0.160599,-0.46831 -0.160599,-0.52917 0,-0.0609 -0.133641,-0.11065 -0.29698,-0.11065 -0.218445,0 -0.219052,0.0939 -0.0023,0.35507 0.162076,0.19529 0.216342,0.43342 0.120591,0.52917 -0.09575,0.0958 -0.02244,0.17409 0.162901,0.17409 0.198587,0 0.27103,-0.17188 0.176389,-0.41851 z m 1.934019,-0.28017 c 0.06063,-0.0523 -0.20023,-0.0951 -0.579698,-0.0951 -0.379467,0 -0.766475,0.12384 -0.860016,0.27519 -0.15394,0.24908 1.127995,0.0887 1.439714,-0.18012 z m -2.888368,0.0655 c 0,-0.0572 -0.184778,-0.17489 -0.410617,-0.26155 -0.235459,-0.0904 -0.341662,-0.046 -0.248969,0.10398 0.155379,0.25141 0.659586,0.37186 0.659586,0.15757 z m -1.905972,-1.2069 c -0.177625,-0.28442 -0.374194,-0.46589 -0.43682,-0.40327 -0.113399,0.1134 0.463215,0.9204 0.657639,0.9204 0.05617,0 -0.04319,-0.2327 -0.220819,-0.51713 z m 3.824201,-0.27566 c -0.327422,-0.26546 -0.595313,-0.67294 -0.595313,-0.90551 0,-0.35375 -0.08475,-0.36992 -0.518612,-0.099 -0.33673,0.21029 -0.416054,0.38727 -0.22618,0.50462 0.181396,0.1121 0.102041,0.22948 -0.208992,0.30912 -0.275783,0.0706 -0.0512,0.14221 0.499068,0.15909 0.636203,0.0195 1.057537,0.17936 1.157165,0.43898 0.08617,0.22456 0.231262,0.33337 0.322425,0.24181 0.09116,-0.0916 -0.102139,-0.38368 -0.429561,-0.64914 z m 6.019272,0.67612 c 0,-0.0642 -0.11906,-0.19026 -0.26458,-0.2802 -0.14552,-0.0899 -0.26459,-0.0374 -0.26459,0.11668 0,0.1541 0.11907,0.28019 0.26459,0.28019 0.14552,0 0.26458,-0.0525 0.26458,-0.11667 z m -6.421659,-0.30776 c -0.08792,-0.0879 -0.316122,-0.0973 -0.507118,-0.0209 -0.211067,0.0845 -0.148372,0.14716 0.159852,0.15985 0.278915,0.0115 0.435185,-0.051 0.347266,-0.13896 z m 3.180049,-0.56638 c 0.0543,-0.16295 -0.1291,-0.41822 -0.407591,-0.56727 -0.446247,-0.23882 -0.491355,-0.19252 -0.379994,0.39003 0.124401,0.65076 0.594485,0.75655 0.787585,0.17724 z m -1.454745,0.0218 c -0.181901,-0.0734 -0.479558,-0.0734 -0.661459,0 -0.181901,0.0734 -0.03307,0.13345 0.330729,0.13345 0.363803,0 0.512631,-0.0601 0.33073,-0.13345 z m -0.06615,-0.8909 c 0,-0.2588 1.140673,-0.17619 2.431925,0.17611 0.31107,0.0849 0.43625,-0.0279 0.41049,-0.36985 -0.0328,-0.43573 -0.23516,-0.48167 -1.770464,-0.40202 -2.429515,0.12604 -2.571257,0.15223 -2.571257,0.47504 0,0.15799 0.337344,0.31296 0.749653,0.34438 0.412309,0.0314 0.749653,-0.0692 0.749653,-0.22366 z m 35.601705,12.73247 c -0.0815,-0.13195 0.09,-0.1776 0.38126,-0.10144 0.6178,0.16156 0.6959,0.34134 0.14827,0.34134 -0.20969,0 -0.44798,-0.10795 -0.52953,-0.2399 z m -1.39928,-0.20803 c 0.25744,-0.0671 0.61462,-0.0627 0.79375,0.01 0.17914,0.0725 -0.0315,0.12737 -0.46805,0.12197 -0.43656,-0.005 -0.58313,-0.0647 -0.3257,-0.13177 z m -45.821444,-4.31457 c -0.008,-0.21828 0.100871,-0.57546 0.241935,-0.79375 0.312559,-0.48365 0.312559,-0.0659 0,0.66146 -0.149934,0.34892 -0.232345,0.39398 -0.241935,0.13229 z"
         id="path5476-4"
         inkscape:connector-curvature="0" />
      <path
         style="fill:#00ff00;stroke-width:0.26458335"
         d="m 129.78389,166.28241 c -0.21828,-0.14106 -0.27781,-0.25648 -0.13229,-0.25648 0.14552,0 0.44317,0.11542 0.66145,0.25648 0.21829,0.14107 0.27782,0.25648 0.1323,0.25648 -0.14552,0 -0.44318,-0.11541 -0.66146,-0.25648 z m 6.61458,-0.1541 c 0,-0.0644 0.6283,-0.39502 1.39623,-0.73463 0.76792,-0.33961 2.16691,-1.3183 3.10885,-2.17485 0.94195,-0.85656 1.47451,-1.26375 1.18346,-0.90487 -0.66966,0.82575 -0.80709,0.94957 -2.58085,2.32512 -1.25338,0.972 -3.10769,1.8606 -3.10769,1.48923 z m -10.64948,-1.32015 c -0.40018,-0.2171 -0.7276,-0.45046 -0.7276,-0.51857 0,-0.25557 0.41817,-0.0954 1.05833,0.40532 0.78631,0.61506 0.66857,0.65538 -0.33073,0.11325 z m -0.82573,-1.94864 c -0.39287,-0.14155 -0.27735,-0.24356 0.55986,-0.49439 0.58018,-0.17383 1.22612,-0.31605 1.43541,-0.31605 0.59464,0 5.98533,-3.1617 7.89341,-4.62957 2.87307,-2.21023 5.41177,-5.17949 6.85163,-8.01363 0.31681,-0.62361 0.69052,-1.06306 0.83046,-0.97657 0.13994,0.0865 0.25444,0.21678 0.25444,0.28954 0,0.0728 -0.0994,0.0708 -0.22098,-0.004 -0.12154,-0.0751 -0.4286,0.29879 -0.68234,0.83091 -0.8075,1.69333 -2.31704,3.86041 -3.70447,5.31809 -3.47753,3.65361 -11.61176,8.57445 -13.21742,7.99595 z m -3.09324,-3.07912 c -0.26117,-0.31469 -0.24985,-0.36117 0.0591,-0.24263 0.21018,0.0807 0.8352,-0.0427 1.38894,-0.27402 1.41341,-0.59057 1.44184,-0.34114 0.0388,0.34051 -1.01467,0.49297 -1.20516,0.51553 -1.48683,0.17614 z m 3.60147,-1.42169 c 0.31188,-0.31116 2.23573,-1.12758 2.23573,-0.94877 0,0.15183 -2.00132,1.19956 -2.29133,1.19956 -0.10766,0 -0.0826,-0.11286 0.0556,-0.25079 z m 18.66079,-0.6973 c 0.0127,-0.30823 0.0754,-0.37092 0.15985,-0.15986 0.0764,0.191 0.067,0.4192 -0.0209,0.50712 -0.0879,0.0879 -0.15045,-0.0683 -0.13897,-0.34726 z m -15.70927,-0.84666 c 0.32092,-0.24981 1.15436,-0.8047 1.85208,-1.23307 0.69772,-0.42837 1.80437,-1.18554 2.45921,-1.68261 l 1.19063,-0.90377 -0.92604,0.84626 c -1.05907,0.96783 -4.63318,3.44943 -4.94899,3.43622 -0.11571,-0.005 0.0522,-0.21321 0.37311,-0.46303 z m 16.03765,-1.38025 c 0,-0.94589 0.048,-1.33284 0.10671,-0.8599 0.0587,0.47294 0.0587,1.24685 0,1.71979 -0.0587,0.47294 -0.10671,0.086 -0.10671,-0.85989 z m -47.844647,-2.12099 c -0.0914,-0.14789 -0.247259,-0.21992 -0.346344,-0.16006 -0.09909,0.0599 -0.328314,-0.0515 -0.509398,-0.24751 -0.271481,-0.29383 -0.190249,-0.33876 0.463021,-0.25608 0.435745,0.0551 0.792263,-0.0143 0.792263,-0.15436 0,-0.15647 0.197281,-0.14904 0.511773,0.0193 0.636785,0.34081 1.340311,0.35505 1.340311,0.0272 0,-0.13572 -0.23205,-0.32041 -0.515665,-0.41042 -0.680064,-0.21584 -0.401892,-0.94009 0.345535,-0.89964 0.447247,0.0242 0.469209,0.0563 0.103984,0.1517 -0.254662,0.0665 -0.463021,0.23133 -0.463021,0.36618 0,0.30964 0.177926,0.28924 1.322917,-0.15169 0.662241,-0.25503 0.775301,-0.36831 0.396871,-0.39764 -0.295057,-0.0229 -0.382117,-0.1003 -0.196785,-0.17502 0.182805,-0.0737 0.265075,-0.24289 0.182825,-0.37598 -0.298522,-0.48302 0.34171,-0.22729 0.83285,0.33266 0.27722,0.31606 0.3552,0.48762 0.1733,0.38126 -0.45181,-0.26419 -0.41707,0.0539 0.0577,0.52871 0.54721,0.5472 2.19304,0.63393 2.59522,0.13675 0.26356,-0.32583 0.25465,-0.35849 -0.048,-0.17607 -0.23639,0.14247 -0.3101,0.12443 -0.20256,-0.0496 0.093,-0.15045 0.41583,-0.33807 0.71746,-0.41694 0.47254,-0.12358 0.50087,-0.0861 0.20478,0.27063 -0.24716,0.2978 -0.0303,0.25422 0.77225,-0.15523 0.61374,-0.31311 1.20805,-0.55423 1.3207,-0.53582 0.66057,0.1079 0.64214,-0.10984 -0.0598,-0.70597 -0.46421,-0.39425 -0.57406,-0.57332 -0.26459,-0.43131 0.29105,0.13354 0.67808,0.18942 0.86008,0.12416 0.22266,-0.0798 0.27422,0.04 0.15762,0.36649 -0.12322,0.34496 0.0679,0.26059 0.66128,-0.29198 1.28733,-1.19869 0.98697,-0.53308 -0.3576,0.79245 -0.65568,0.6464 -1.40578,1.17528 -1.66687,1.17528 -0.26109,0 -0.58782,0.11084 -0.72607,0.24631 -0.90664,0.88845 -8.012808,1.78956 -8.456103,1.07229 z m 3.288695,-1.06716 c -0.560724,-0.34654 -0.852939,0.028 -0.325298,0.41693 0.308376,0.22732 0.51388,0.25448 0.57725,0.0763 0.0541,-0.15218 -0.0593,-0.37413 -0.251952,-0.49322 z m 0.910692,0.14544 c -0.0838,-0.21828 -0.19909,-0.39688 -0.25628,-0.39688 -0.0572,0 -0.10398,0.1786 -0.10398,0.39688 0,0.21828 0.11532,0.39687 0.25628,0.39687 0.14095,0 0.18774,-0.17859 0.10398,-0.39687 z m 43.33776,0.66145 c 0,-0.3638 0.0601,-0.51263 0.13346,-0.33072 0.0734,0.1819 0.0734,0.47955 0,0.66145 -0.0734,0.18191 -0.13346,0.0331 -0.13346,-0.33073 z m -51.014339,-0.93086 c -3.090196,-1.75168 -5.666259,-5.33775 -6.051957,-8.42478 -0.189411,-1.51599 -0.184106,-1.53337 0.363552,-1.19135 0.461871,0.28844 0.489859,0.38396 0.165661,0.56539 -0.511896,0.28647 -0.506096,0.82231 0.0068,0.62551 0.218281,-0.0838 0.396875,-0.037 0.396875,0.10398 -1e-6,0.14095 -0.119063,0.25628 -0.264584,0.25628 -0.145521,0 -0.264584,0.1786 -0.264584,0.39688 0,0.21828 0.20836,0.39869 0.463021,0.40092 0.345526,0.003 0.37566,0.0595 0.118753,0.22242 -0.27884,0.17687 -0.281292,0.36466 -0.0129,0.98814 0.618946,1.43781 1.277558,2.20897 1.755736,2.05577 0.385416,-0.12348 0.393921,-0.10243 0.05664,0.14019 -0.292252,0.21024 -0.305573,0.28656 -0.05053,0.28955 0.190489,0.002 0.283455,0.1058 0.206592,0.23017 -0.19492,0.31539 1.023563,1.41185 1.295049,1.16536 0.121676,-0.11047 0.145416,-0.0679 0.05276,0.0945 -0.126874,0.22244 0.763256,1.38694 0.971307,1.2707 0.959278,-0.53596 1.228991,-0.6204 1.228991,-0.38475 0,0.15064 -0.09922,0.27389 -0.220486,0.27389 -0.121267,0 -0.220486,0.18729 -0.220486,0.4162 0,0.27333 0.166515,0.37266 0.485069,0.28936 0.279863,-0.0732 0.48507,0.0135 0.48507,0.20482 0,0.18242 0.26789,0.46087 0.595312,0.61878 0.327422,0.15791 0.47625,0.29333 0.330729,0.30094 -0.14552,0.008 -0.997082,-0.40139 -1.892359,-0.90888 z m 50.728869,-0.28181 c 0.0127,-0.30822 0.0754,-0.37092 0.15985,-0.15985 0.0764,0.19099 0.067,0.4192 -0.0209,0.50712 -0.0879,0.0879 -0.15045,-0.0683 -0.13896,-0.34727 z m -41.95734,-0.63941 c -0.0899,-0.14552 -0.0374,-0.26458 0.11667,-0.26458 0.15411,0 0.2802,0.11906 0.2802,0.26458 0,0.14552 -0.0525,0.26458 -0.11668,0.26458 -0.0642,0 -0.19026,-0.11906 -0.28019,-0.26458 z m 1.98437,-0.39687 c 0.36844,-0.44395 1.05833,-0.5356 1.05833,-0.1406 0,0.14095 -0.17859,0.18775 -0.39687,0.10399 -0.21828,-0.0838 -0.39688,-0.0205 -0.39688,0.14059 0,0.16109 -0.13364,0.29289 -0.29697,0.29289 -0.20519,0 -0.19518,-0.12267 0.0324,-0.39687 z m 32.26204,0 c 0.38372,-0.73755 2.76483,-3.30356 2.42856,-2.61715 -0.15031,0.30682 -0.82017,1.14026 -1.48858,1.85209 -0.6684,0.71182 -1.0914,1.0561 -0.93998,0.76506 z m -30.80683,-0.1323 c -0.0899,-0.14552 0.0291,-0.26458 0.26458,-0.26458 0.23546,0 0.35452,0.11906 0.26459,0.26458 -0.0899,0.14553 -0.209,0.26459 -0.26459,0.26459 -0.0556,0 -0.17464,-0.11906 -0.26458,-0.26459 z m -11.856883,-0.38058 c -0.444734,-0.33716 -0.418651,-0.37718 0.356879,-0.54752 0.54355,-0.11938 0.943389,-0.0681 1.141259,0.1464 0.229926,0.24924 0.229369,0.28802 -0.0023,0.1582 -0.168769,-0.0946 -0.506174,-0.0955 -0.749789,-0.002 -0.353011,0.13546 -0.371287,0.21538 -0.09002,0.39368 0.194102,0.12304 0.233851,0.22175 0.08833,0.21935 -0.145521,-0.002 -0.480493,-0.16805 -0.744384,-0.36812 z m 2.375981,-0.32497 c -0.246627,-0.24663 -0.220146,-0.61736 0.0441,-0.61736 0.121267,0 0.220486,0.17859 0.220486,0.39687 0,0.44962 -0.01934,0.46574 -0.264583,0.22049 z m 7.908982,-0.21207 c 0.66451,-0.50261 0.93237,-0.50565 0.74156,-0.008 -0.0838,0.21828 -0.40044,0.39688 -0.70373,0.39688 -0.54166,0 -0.54233,-0.007 -0.0378,-0.38846 z m -5.174955,-0.21566 c 0,-0.13824 -0.238289,-0.18904 -0.529531,-0.11287 -0.291243,0.0762 -0.46281,0.0305 -0.38126,-0.10144 0.211425,-0.34209 0.732107,-0.29661 1.292104,0.11287 0.417982,0.30564 0.42474,0.35278 0.05057,0.35278 -0.237535,0 -0.431883,-0.11311 -0.431883,-0.25134 z m 0.970139,-0.10144 c -0.246626,-0.24662 -0.220145,-0.61736 0.0441,-0.61736 0.121268,0 0.220487,0.1786 0.220487,0.39688 0,0.44962 -0.01934,0.46573 -0.264584,0.22048 z m 0.881946,-0.0882 c -0.33917,-0.21919 -0.32955,-0.25707 0.0662,-0.26053 0.25466,-0.002 0.46302,0.11501 0.46302,0.26053 0,0.32269 -0.0298,0.32269 -0.52917,0 z m 0.88599,-0.32654 c -0.26901,-0.30699 -0.32189,-0.45978 -0.11751,-0.33952 0.24606,0.14478 0.30994,0.11886 0.18907,-0.0767 -0.11929,-0.19302 -0.3932,-0.21526 -0.79057,-0.0642 -0.35136,0.13358 -0.76624,0.13103 -0.982817,-0.006 -0.206134,-0.13048 -0.64268,-0.23906 -0.970102,-0.24128 -0.327422,-0.002 -0.595312,-0.0954 -0.595312,-0.20707 0,-0.11166 -0.744141,-0.48893 -1.653646,-0.83839 -2.08885,-0.80258 -3.608576,-1.57834 -4.346038,-2.21846 -0.31665,-0.27486 -0.703603,-0.42071 -0.859896,-0.32411 -0.156294,0.0966 -0.28417,0.005 -0.28417,-0.20447 0,-0.53138 -0.706502,-1.10351 -0.845978,-0.68508 -0.07184,0.21553 -0.232588,0.18216 -0.523398,-0.10865 -0.230841,-0.23084 -0.48535,-0.35407 -0.565575,-0.27385 -0.08023,0.0802 -0.08077,-0.10306 -0.0012,-0.40731 0.102801,-0.39311 -0.09379,-0.77592 -0.679385,-1.32295 -0.484945,-0.45301 -0.818931,-1.0255 -0.811619,-1.39122 0.0116,-0.58045 0.05961,-0.56036 0.727604,0.30459 0.393349,0.50932 1.307374,1.56103 2.031166,2.33713 3.16506,3.3938 8.548119,5.28523 15.315746,5.38145 2.75601,0.0392 2.96786,0.0703 1.49223,0.21892 -0.95826,0.0965 -1.3195,0.19347 -0.8158,0.21891 1.59014,0.0803 0.69734,0.31958 -1.32819,0.35592 -1.07638,0.0193 -2.2132,0.12859 -2.52627,0.24283 -0.42163,0.15387 -0.69603,0.063 -1.05833,-0.35045 z m -6.706825,-0.20263 c 0,-0.14552 0.12609,-0.26458 0.280199,-0.26458 0.154109,0 0.206613,0.11906 0.116676,0.26458 -0.08994,0.14552 -0.216026,0.26458 -0.280198,0.26458 -0.06417,0 -0.116677,-0.11906 -0.116677,-0.26458 z m 14.436805,-0.34214 c 0.0994,-0.26094 0.2473,-0.40778 0.32876,-0.32632 0.0815,0.0815 1.7e-4,0.29496 -0.18065,0.47443 -0.26131,0.25937 -0.2917,0.22898 -0.14811,-0.14811 z m 13.57866,-0.67354 c 0.29416,-0.41311 0.74401,-0.91913 0.99966,-1.12448 0.25565,-0.20536 0.0627,0.13264 -0.42881,0.7511 -1.00938,1.27014 -1.38376,1.51501 -0.57085,0.37338 z m -26.163381,0.20632 c 0,-0.15411 0.119062,-0.20662 0.264583,-0.11668 0.145521,0.0899 0.264583,0.21603 0.264583,0.2802 0,0.0642 -0.119062,0.11667 -0.264583,0.11667 -0.145521,0 -0.264583,-0.12608 -0.264583,-0.28019 z m -5.142364,-0.8557 c 0.09936,-0.26093 0.247304,-0.40778 0.328765,-0.32631 0.08146,0.0815 1.68e-4,0.29495 -0.180653,0.47443 -0.261307,0.25936 -0.291698,0.22897 -0.148112,-0.14812 z m 47.740275,-0.18702 c 0.15576,-0.29104 0.34274,-0.52917 0.4155,-0.52917 0.0728,0 0.005,0.23813 -0.15091,0.52917 -0.15576,0.29104 -0.34274,0.52916 -0.4155,0.52916 -0.0728,0 -0.005,-0.23812 0.15091,-0.52916 z m 0.35313,-1.26881 c -0.2951,-0.46161 -1.47625,-1.14519 -2.83722,-1.64199 -0.42036,-0.15346 -0.69121,-0.35209 -0.60188,-0.44142 0.23673,-0.23673 3.56984,1.52961 3.7443,1.98425 0.21565,0.56199 0.0294,0.62252 -0.3052,0.0992 z m -30.46879,-1.45043 c 0.33804,-0.27592 0.4658,-0.42479 0.2839,-0.33082 -0.18191,0.094 -0.33074,0.0448 -0.33074,-0.10933 0,-0.15411 0.38696,-0.28398 0.8599,-0.28861 0.77857,-0.008 0.81537,-0.0422 0.3891,-0.36558 -0.39302,-0.29817 -0.40677,-0.38174 -0.0832,-0.50589 0.21316,-0.0818 0.44538,-0.007 0.51605,0.16714 0.0707,0.17373 0.1379,0.0395 0.14939,-0.29834 0.0115,-0.33782 -0.1492,-0.7843 -0.35709,-0.99219 -0.4839,-0.4839 -0.68036,-0.47845 -0.68036,0.0189 0,0.21828 -0.10852,0.39687 -0.24117,0.39687 -0.29858,0 -0.23058,-0.49426 0.16285,-1.18379 0.19787,-0.34678 0.21261,-0.68197 0.0438,-0.99731 -0.2204,-0.41181 -0.14959,-0.467 0.53244,-0.41503 0.66245,0.0505 0.81244,0.19748 0.95008,0.93116 0.0899,0.47918 0.0985,1.28794 0.0192,1.79727 -0.48536,3.1152 -0.30224,2.80802 -1.63294,2.73914 l -1.1958,-0.0619 z m 17.15108,0.49859 c 0,-0.0572 0.18478,-0.17489 0.41062,-0.26156 0.23546,-0.0904 0.34166,-0.046 0.24897,0.10399 -0.15538,0.25141 -0.65959,0.37186 -0.65959,0.15757 z m -22.35729,-0.35031 c -2.2748,-0.31647 -5.037266,-1.25377 -7.26885,-2.4663 -3.031409,-1.64712 -3.441838,-1.9627 -5.365004,-4.12524 -1.609016,-1.80929 -2.053011,-3.09783 -0.969821,-2.81457 0.378525,0.099 0.450555,0.20664 0.229625,0.34318 -0.219499,0.13566 -0.13132,0.25945 0.277175,0.3891 0.361024,0.11458 0.483079,0.26183 0.307153,0.37056 -0.190871,0.11797 -0.06558,0.42453 0.361917,0.88557 0.359616,0.38783 0.653847,0.84329 0.653847,1.01214 0,0.1698 0.221485,0.24906 0.495625,0.17738 0.385461,-0.1008 0.465908,-0.016 0.361929,0.38164 -0.0949,0.36291 0.02999,0.55407 0.430416,0.65878 0.310263,0.0811 0.564113,0.26658 0.564113,0.4121 0,0.14552 0.23829,0.20227 0.529532,0.12611 0.333495,-0.0872 0.465105,-0.0342 0.355502,0.14311 -0.111107,0.17977 0.02899,0.2285 0.387465,0.13475 0.308822,-0.0808 0.551465,-0.0697 0.539207,0.0245 -0.09255,0.71134 0.107788,1.09733 0.569544,1.09733 0.291042,0 0.499401,-0.13394 0.463021,-0.29765 -0.03638,-0.16371 0.07293,-0.34898 0.242913,-0.4117 0.195411,-0.0721 0.28176,0.13464 0.234821,0.56224 -0.04083,0.37195 0.02845,0.67628 0.153962,0.67628 0.12551,0 0.2282,-0.17859 0.2282,-0.39687 0,-0.21828 0.109325,-0.39688 0.242944,-0.39688 0.133619,0 0.461041,-0.0708 0.727604,-0.15725 0.40308,-0.13078 0.417857,-0.10919 0.08779,0.12824 -0.352777,0.25377 -0.352777,0.28639 0,0.29359 0.352778,0.007 0.352778,0.0366 0,0.26459 -0.218281,0.14106 -0.277812,0.26013 -0.132291,0.26458 0.145521,0.004 0.100292,0.11216 -0.100508,0.23934 -0.454276,0.28773 2.095899,0.88538 2.803269,0.65697 0.30831,-0.0995 0.36228,-0.0725 0.15548,0.0779 -0.47008,0.34188 -0.0536,0.7604 0.81917,0.82324 0.42185,0.0304 0.90209,0.16735 1.06721,0.30438 0.18517,0.15368 0.44889,0.15512 0.68821,0.004 0.2134,-0.13497 0.5666,-0.2454 0.78488,-0.2454 0.34746,0 0.34839,0.0307 0.007,0.2463 -0.3429,0.21685 -0.3429,0.2628 0,0.38434 0.2142,0.0759 0.92524,0.18059 1.58008,0.23259 1.05935,0.0841 1.03018,0.0953 -0.26458,0.10113 -0.80037,0.004 -1.8124,-0.0431 -2.24896,-0.10384 z m 23.60965,-0.37229 c 0.17948,-0.18082 0.39297,-0.26212 0.47443,-0.18065 0.0815,0.0815 -0.0654,0.2294 -0.32631,0.32876 -0.37709,0.14359 -0.40748,0.1132 -0.14812,-0.14811 z m -21.75757,-0.23175 c -0.0899,-0.14552 -0.0374,-0.26459 0.11668,-0.26459 0.15411,0 0.2802,0.11907 0.2802,0.26459 0,0.14552 -0.0525,0.26458 -0.11668,0.26458 -0.0642,0 -0.19026,-0.11906 -0.2802,-0.26458 z m 1.35284,-0.313 c 0.0764,-0.12364 0.24977,-0.1563 0.38524,-0.0726 0.34617,0.21395 0.30719,0.29738 -0.13894,0.29738 -0.21188,0 -0.32271,-0.10116 -0.2463,-0.2248 z m 26.22998,-0.3914 c 0.1819,-0.0734 0.47955,-0.0734 0.66145,0 0.1819,0.0734 0.0331,0.13346 -0.33073,0.13346 -0.3638,0 -0.51263,-0.0601 -0.33072,-0.13346 z m -24.90037,-0.48623 c 0.0838,-0.21828 0.2732,-0.39687 0.42096,-0.39687 0.15487,0 0.12915,0.16812 -0.0607,0.39687 -0.18115,0.21828 -0.37059,0.39688 -0.42096,0.39688 -0.0504,0 -0.0231,-0.1786 0.0607,-0.39688 z m -2.65564,-0.17566 c 0.0673,-0.10895 0.29721,-0.13103 0.51084,-0.0491 0.53865,0.2067 0.48519,0.33142 -0.12244,0.28565 -0.28096,-0.0212 -0.45574,-0.12763 -0.3884,-0.23659 z m 1.56069,0.0434 c 0.0899,-0.14552 0.21603,-0.26458 0.2802,-0.26458 0.0642,0 0.11668,0.11906 0.11668,0.26458 0,0.14552 -0.12609,0.26458 -0.2802,0.26458 -0.15411,0 -0.20661,-0.11906 -0.11668,-0.26458 z m -6.56019,-1.04964 c 0.44765,-0.27223 0.89346,-0.62368 0.99069,-0.781 0.0972,-0.15731 0.31157,-0.28603 0.47631,-0.28603 0.16475,0 0.0684,0.17481 -0.21405,0.38847 -0.39274,0.29705 -0.42021,0.39139 -0.11671,0.40092 0.34376,0.0108 0.34546,0.045 0.0126,0.25554 -0.21134,0.13369 -0.47923,0.18437 -0.59532,0.11263 -0.11609,-0.0718 -0.21107,-0.0297 -0.21107,0.0934 0,0.12314 -0.26019,0.2435 -0.5782,0.26745 -0.491448,0.037 -0.456082,-0.0307 0.23572,-0.45142 z m 7.61853,0.25589 c -0.0899,-0.14552 -0.0374,-0.26458 0.11667,-0.26458 0.15411,0 0.2802,0.11906 0.2802,0.26458 0,0.14552 -0.0525,0.26458 -0.11667,0.26458 -0.0642,0 -0.19027,-0.11906 -0.2802,-0.26458 z m -21.298961,-1.32292 c 0,-0.58208 0.04702,-1.05833 0.104501,-1.05833 0.05747,0 0.149919,0.47625 0.205429,1.05833 0.05551,0.58209 0.0085,1.05834 -0.104501,1.05834 -0.112986,0 -0.205429,-0.47625 -0.205429,-1.05834 z m 17.594791,0.52917 c -0.43138,-0.18537 -0.44649,-0.23083 -0.0818,-0.24598 0.24607,-0.0102 0.52099,0.10046 0.61093,0.24598 0.18803,0.30424 0.17883,0.30424 -0.52917,0 z m -8.557182,-0.52917 c 0,-0.3638 0.06005,-0.51263 0.133453,-0.33072 0.0734,0.1819 0.0734,0.47955 0,0.66145 -0.0734,0.1819 -0.133453,0.0331 -0.133453,-0.33073 z m 12.024732,-0.18483 c -0.37918,-0.19868 -0.68942,-0.485 -0.68942,-0.63627 0,-0.15126 0.18709,-0.0879 0.41577,0.14075 0.41376,0.41376 0.73976,0.51738 1.37016,0.43552 0.1819,-0.0236 0.33073,0.0615 0.33073,0.18914 0,0.34094 -0.64069,0.28297 -1.42724,-0.12914 z m -8.296195,-0.255 c -0.181901,-0.0734 -0.32133,-0.33189 -0.309842,-0.57442 0.01315,-0.2776 0.07053,-0.31783 0.15489,-0.1086 0.0737,0.18281 0.223052,0.27735 0.33189,0.21008 0.108838,-0.0673 0.197887,0.0511 0.197887,0.26294 0,0.21187 -0.01,0.37583 -0.022,0.36434 -0.0121,-0.0115 -0.170876,-0.0809 -0.352777,-0.15434 z m 2.165915,-0.0528 c 0.13353,-0.22172 0.0767,-0.44857 -0.14764,-0.58977 -0.22681,-0.14273 0.0604,-0.18832 0.75985,-0.1206 0.63997,0.062 1.12448,-0.004 1.12448,-0.15345 0,-0.14427 0.13746,-0.17735 0.30546,-0.0735 0.18926,0.11697 0.23365,0.0726 0.11668,-0.11667 -0.10383,-0.16801 -0.40715,-0.30547 -0.67403,-0.30547 -0.26689,0 -0.55615,-0.18478 -0.64281,-0.41062 -0.10128,-0.26392 -0.0505,-0.34444 0.14211,-0.2254 0.16482,0.10187 0.63971,0.17555 1.0553,0.16373 0.41559,-0.0118 0.75562,0.0966 0.75562,0.24102 0,0.14437 -0.10796,0.19578 -0.23991,0.11423 -0.13195,-0.0815 -0.18188,0.0736 -0.11096,0.34482 0.12911,0.49373 -0.65108,0.94593 -1.45469,0.84315 -0.1927,-0.0246 -0.54298,0.11127 -0.7784,0.30203 -0.35604,0.2885 -0.39154,0.28623 -0.21106,-0.0135 z m 2.88632,-0.44485 c -0.0862,-0.22456 -0.0824,-0.48252 0.008,-0.57326 0.0907,-0.0907 0.16498,-0.0261 0.16498,0.1437 0,0.16978 0.12609,0.30868 0.2802,0.30868 0.15411,0 0.19927,-0.13094 0.10036,-0.29098 -0.12639,-0.20451 -0.0131,-0.20174 0.38126,0.009 0.30861,0.16516 0.5611,0.36266 0.5611,0.43889 0,0.0762 -0.11084,0.0701 -0.2463,-0.0136 -0.13547,-0.0837 -0.32109,-0.0312 -0.41249,0.11668 -0.24477,0.39603 -0.65837,0.32719 -0.83741,-0.13939 z m -4.45692,-0.38546 c -0.0899,-0.14552 -0.424388,-0.26634 -0.743222,-0.26849 -0.555966,-0.004 -0.552619,-0.0182 0.08176,-0.35248 0.777572,-0.40979 0.778552,-0.40944 0.919152,0.32058 0.11642,0.60455 0.008,0.73066 -0.25769,0.30039 z m -13.07423,-0.26459 c -0.008,-0.21828 0.100871,-0.57546 0.241935,-0.79375 0.312559,-0.48365 0.312559,-0.0659 0,0.66146 -0.149934,0.34892 -0.232345,0.39398 -0.241935,0.13229 z m 7.569267,0.0954 c -0.211383,-0.21138 0.02757,-0.62455 0.3612,-0.62455 0.136933,0 0.248968,0.17859 0.248968,0.39687 0,0.40916 -0.312198,0.52565 -0.610168,0.22768 z m 14.370713,-0.0884 c -0.31431,-0.19871 -0.32778,-0.3164 -0.0662,-0.57803 0.25551,-0.25551 0.39907,-0.25796 0.64602,-0.011 0.17462,0.17463 0.20439,0.31932 0.0661,0.32155 -0.13825,0.002 -0.0728,0.11947 0.14552,0.26054 0.35278,0.22798 0.35278,0.25647 0,0.25647 -0.21828,0 -0.57447,-0.11228 -0.79154,-0.24951 z m -13.407767,-0.3922 c 0,-0.21188 0.101161,-0.32272 0.224802,-0.2463 0.123641,0.0764 0.156302,0.24977 0.07258,0.38523 -0.213949,0.34618 -0.297382,0.3072 -0.297382,-0.13893 z m 14.650387,-0.60695 c -0.19349,-1.00725 -0.0394,-1.04839 0.29831,-0.0797 0.15478,0.444 0.18243,0.80726 0.0614,0.80726 -0.12098,0 -0.28287,-0.32742 -0.35974,-0.7276 z m -16.447074,-0.0479 c -0.08372,-0.13546 -0.05106,-0.30882 0.07258,-0.38523 0.123641,-0.0764 0.224802,0.0344 0.224802,0.2463 0,0.44613 -0.08343,0.48511 -0.297382,0.13893 z m 14.290374,-0.52159 c -0.49156,-0.19236 -0.48855,-0.20846 0.0661,-0.35351 0.31963,-0.0836 0.58114,-0.0313 0.58114,0.11615 0,0.14746 0.17859,0.19959 0.39687,0.11582 0.21829,-0.0838 0.39688,-0.037 0.39688,0.10399 0,0.29824 -0.70193,0.30679 -1.44104,0.0175 z m -3.17216,-0.47746 c -0.14359,-0.37709 -0.1132,-0.40748 0.14811,-0.14812 0.18082,0.17948 0.26212,0.39297 0.18065,0.47443 -0.0815,0.0815 -0.2294,-0.0654 -0.32876,-0.32631 z m -17.070944,0.11033 c -0.01731,-0.30942 1.047801,-2.34518 1.591068,-3.04101 0.421187,-0.53948 0.481855,-0.55364 0.566576,-0.1323 0.0526,0.26161 -0.176428,0.68883 -0.513983,0.95876 -0.334874,0.26778 -0.839061,0.92263 -1.120415,1.45521 -0.281354,0.53258 -0.516815,0.87428 -0.523246,0.75934 z m 7.070792,-0.23246 c 0.15375,-0.15375 0.435721,-0.22749 0.626602,-0.16386 0.198159,0.066 0.07822,0.18599 -0.279546,0.27955 -0.440093,0.11508 -0.543395,0.0806 -0.347056,-0.11569 z m 12.638002,-0.42419 c -0.0757,-0.19719 -0.25749,-0.28443 -0.40404,-0.19386 -0.14654,0.0906 -0.26645,0.0535 -0.26645,-0.0824 0,-0.13592 0.29766,-0.24713 0.66146,-0.24713 0.3638,0 0.66146,0.10418 0.66146,0.23151 0,0.12733 0.23812,0.23151 0.52917,0.23151 0.29104,0 0.52916,0.0896 0.52916,0.19902 0,0.35705 -1.56935,0.2299 -1.71076,-0.13861 z m 2.08672,-0.18185 c -0.0898,-0.35783 -0.35306,-0.80431 -0.585,-0.99218 -0.31931,-0.25865 -0.37346,-0.26129 -0.22301,-0.0109 0.13625,0.22678 0.007,0.32945 -0.41223,0.32668 -0.4915,-0.003 -0.53334,-0.0542 -0.21405,-0.26054 0.35278,-0.22799 0.35278,-0.25787 0,-0.26895 -0.32357,-0.0102 -0.31212,-0.0768 0.062,-0.36094 0.52232,-0.39663 0.35376,-0.73445 -0.25073,-0.50248 -0.30503,0.11705 -0.36088,0.026 -0.23238,-0.37888 0.21464,-0.67629 -1.4556,-2.05281 -2.24148,-1.8473 -0.28155,0.0736 -0.58997,0.008 -0.68535,-0.14676 -0.10198,-0.165 -0.0476,-0.20284 0.13202,-0.0918 0.16801,0.10383 0.30547,0.0669 0.30547,-0.0821 0,-0.49374 -0.90406,-0.79352 -1.46204,-0.4848 -0.46839,0.25915 -0.48484,0.24318 -0.15921,-0.15473 0.38108,-0.46566 0.40275,-0.45124 -0.82615,-0.54956 -0.1819,-0.0145 -0.39044,-0.10468 -0.46342,-0.20028 -0.51173,-0.67034 -5.170788,-0.31001 -6.094772,0.47136 -0.233803,0.19772 -0.673092,0.2742 -1.033561,0.17993 -0.370147,-0.0968 -0.562949,-0.0604 -0.470722,0.0888 0.08591,0.13901 0.03377,0.42566 -0.115877,0.63699 -0.221824,0.31327 -0.24457,0.29872 -0.123138,-0.0788 0.08192,-0.25467 0.103023,-0.46303 0.04689,-0.46303 -0.335548,0 -2.498728,1.06284 -2.645053,1.2996 -0.0969,0.15678 -0.437435,0.42209 -0.756752,0.58956 -1.179681,0.61873 0.235055,-0.65373 1.739909,-1.56493 2.118389,-1.2827 4.650175,-1.94736 7.469096,-1.96083 2.22503,-0.0106 2.50276,0.0511 4.23334,0.94042 2.82291,1.45072 4.71993,3.53885 5.25957,5.78941 0.096,0.40019 0.11493,0.72761 0.0422,0.72761 -0.0728,0 -0.20577,-0.29277 -0.29558,-0.65061 z m -16.250958,-0.41603 c 0,-0.14095 0.178594,-0.25628 0.396875,-0.25628 0.218281,0 0.396875,0.0468 0.396875,0.10399 0,0.0572 -0.178594,0.17251 -0.396875,0.25628 -0.218281,0.0838 -0.396875,0.037 -0.396875,-0.10399 z m 6.482288,-0.25628 c -0.08994,-0.14552 -0.03743,-0.26458 0.11668,-0.26458 0.15411,0 0.2802,0.11906 0.2802,0.26458 0,0.14552 -0.0525,0.26458 -0.11668,0.26458 -0.0642,0 -0.19026,-0.11906 -0.2802,-0.26458 z m 3.63328,-0.26458 c -0.27926,-0.44717 -0.26424,-0.52917 0.097,-0.52917 0.27123,0 0.37177,-0.14503 0.27513,-0.39687 -0.0838,-0.21829 -0.0289,-0.39688 0.12181,-0.39688 0.15522,0 0.20481,-0.25821 0.11432,-0.59531 -0.12522,-0.46654 -0.0678,-0.43379 0.26522,0.15139 0.39841,0.69999 0.39333,0.77448 -0.0812,1.19063 -0.27842,0.24415 -0.4554,0.59274 -0.39329,0.77465 0.16932,0.49587 -0.026,0.39872 -0.39893,-0.19844 z m 1.63877,0.0805 c 0.0362,-0.24678 0.23405,-0.49397 0.43961,-0.54931 0.29218,-0.0787 0.28714,-0.0394 -0.0231,0.18004 -0.36237,0.25627 -0.19289,0.40793 0.3504,0.31355 0.11995,-0.0208 0.14269,0.0841 0.0505,0.23325 -0.27327,0.44216 -0.88875,0.30848 -0.81742,-0.17753 z m -4.87517,-1.15444 c 0,-0.15411 0.11906,-0.20661 0.26458,-0.11668 0.14552,0.0899 0.26459,0.21603 0.26459,0.2802 0,0.0642 -0.11907,0.11668 -0.26459,0.11668 -0.14552,0 -0.26458,-0.12609 -0.26458,-0.2802 z m 5.82083,-0.35295 c 0,-0.0572 0.18478,-0.17489 0.41062,-0.26156 0.23546,-0.0904 0.34166,-0.046 0.24897,0.10399 -0.15538,0.25141 -0.65959,0.37186 -0.65959,0.15757 z m -1.44391,-0.93607 c -0.18073,-0.29242 0.23665,-0.60818 0.48097,-0.36387 0.25156,0.25157 0.20468,0.61017 -0.0798,0.61017 -0.13694,0 -0.31747,-0.11084 -0.40119,-0.2463 z m -6.807781,-0.19902 c 0.190996,-0.0764 0.4192,-0.067 0.507119,0.0209 0.08792,0.0879 -0.06835,0.15046 -0.347266,0.13897 -0.308225,-0.0127 -0.370919,-0.0754 -0.159853,-0.15985 z m 8.122071,-0.0882 c 0.0914,-0.1479 0.27702,-0.2004 0.41249,-0.11668 0.36699,0.22681 0.29856,0.38558 -0.16619,0.38558 -0.22687,0 -0.33771,-0.12101 -0.2463,-0.2689 z m -3.97856,-1.30705 c 0.086,-0.13916 0.33116,-0.18596 0.54478,-0.10398 0.54692,0.20987 0.48247,0.35701 -0.15638,0.35701 -0.29963,0 -0.47441,-0.11386 -0.3884,-0.25303 z"
         id="path5474-8"
         inkscape:connector-curvature="0" />
      <path
         style="fill:#005500;stroke-width:0.26458335"
         d="m 129.78389,166.28241 c -0.21828,-0.14106 -0.27781,-0.25648 -0.13229,-0.25648 0.14552,0 0.44317,0.11542 0.66145,0.25648 0.21829,0.14107 0.27782,0.25648 0.1323,0.25648 -0.14552,0 -0.44318,-0.11541 -0.66146,-0.25648 z m 7.92453,-0.80096 c 0.64771,-0.29998 1.33232,-0.67378 1.52135,-0.83067 0.18904,-0.15689 0.3437,-0.21924 0.3437,-0.13857 0,0.30132 -1.51547,1.21141 -2.26509,1.36025 -0.589,0.11695 -0.49197,0.0221 0.40004,-0.39101 z m -11.95943,-0.67329 c -0.40018,-0.2171 -0.7276,-0.45046 -0.7276,-0.51857 0,-0.25557 0.41817,-0.0954 1.05833,0.40532 0.78631,0.61506 0.66857,0.65538 -0.33073,0.11325 z m 14.80819,-1.17722 c 0.46828,-0.49129 0.89624,-0.83984 0.95103,-0.77454 0.0548,0.0653 -0.32836,0.46727 -0.85142,0.89327 l -0.95103,0.77454 z m -14.59376,-1.26273 c 3.34458,-1.00425 8.83935,-4.47641 11.68583,-7.38428 1.47254,-1.50431 3.07213,-3.72621 4.00902,-5.56871 0.31449,-0.61846 0.63132,-1.12448 0.70408,-1.12448 0.22044,0 -0.94476,2.15007 -2.07911,3.83646 -2.17766,3.23744 -6.58171,6.87818 -11.19001,9.25057 -1.41197,0.72689 -2.89155,1.28876 -3.57188,1.35641 -1.10594,0.10998 -1.08482,0.0925 0.44207,-0.36597 z m 15.72672,0.11014 c 0,-0.0549 0.20836,-0.2633 0.46302,-0.46302 0.41964,-0.32911 0.429,-0.31975 0.0999,0.0999 -0.34564,0.44073 -0.56292,0.58089 -0.56292,0.36313 z m -19.86012,-2.69795 c -0.26313,-0.31705 -0.24822,-0.36055 0.0803,-0.23447 0.22188,0.0851 0.85231,-0.0327 1.40096,-0.26199 1.40136,-0.58553 1.40524,-0.35972 0.005,0.32032 -1.01467,0.49297 -1.20515,0.51553 -1.48682,0.17614 z m 3.89985,-1.56429 c 0.59677,-0.418 1.93735,-0.98361 1.93735,-0.81741 0,0.12693 -2.07319,1.2108 -2.31598,1.2108 -0.10065,0 0.0697,-0.17703 0.37863,-0.39339 z m 2.20193,-1.03569 c 0,-0.0584 0.44649,-0.35837 0.99219,-0.66663 l 0.99219,-0.56047 -0.79375,0.66532 c -0.72815,0.61033 -1.19063,0.82854 -1.19063,0.56178 z m 16.48886,-1.74592 c 0,-0.94589 0.048,-1.33284 0.10671,-0.8599 0.0587,0.47294 0.0587,1.24685 0,1.71979 -0.0587,0.47294 -0.10671,0.086 -0.10671,-0.85989 z m -14.2399,0.35372 c 0.67604,-0.64039 2.33702,-1.72356 1.93598,-1.26251 -0.2449,0.28155 -0.84021,0.73719 -1.32291,1.01253 -0.48271,0.27534 -0.75859,0.38783 -0.61307,0.24998 z m 2.91042,-2.20581 c 0.26339,-0.29104 0.53842,-0.52917 0.61118,-0.52917 0.0728,0 -0.0832,0.23813 -0.3466,0.52917 -0.26339,0.29104 -0.53842,0.52917 -0.61118,0.52917 -0.0728,0 0.0832,-0.23813 0.3466,-0.52917 z m -36.165234,-0.18074 c 0.190996,-0.0764 0.419199,-0.067 0.507118,0.0209 0.08792,0.0879 -0.06835,0.15045 -0.347265,0.13896 -0.308225,-0.0127 -0.37092,-0.0754 -0.159853,-0.15985 z m 4.762504,-0.26458 c 0.19099,-0.0764 0.41919,-0.067 0.50711,0.0209 0.0879,0.0879 -0.0683,0.15046 -0.34726,0.13897 -0.30823,-0.0127 -0.37092,-0.0754 -0.15985,-0.15985 z m 42.40383,-0.23818 c 0.0127,-0.30823 0.0754,-0.37092 0.15985,-0.15986 0.0764,0.191 0.067,0.4192 -0.0209,0.50712 -0.0879,0.0879 -0.15045,-0.0684 -0.13897,-0.34726 z m -39.70839,-0.47882 c 0,-0.0572 0.18478,-0.17489 0.41062,-0.26155 0.23545,-0.0904 0.34166,-0.046 0.24896,0.10398 -0.15538,0.25141 -0.65958,0.37186 -0.65958,0.15757 z m -12.038543,-0.84523 -0.79375,-0.68201 0.859896,0.56905 c 0.472943,0.31297 0.859896,0.62047 0.859896,0.68332 0,0.19805 -0.112043,0.12904 -0.926042,-0.57036 z m 13.919853,-0.18668 c 1.47408,-0.99727 1.74683,-1.07448 0.76452,-0.21641 -0.50932,0.4449 -1.09148,0.81211 -1.29369,0.81602 -0.20221,0.004 0.0359,-0.26591 0.52917,-0.59961 z m 30.08346,-0.84848 c 0.31533,-0.43656 1.00315,-1.27 1.52849,-1.85208 l 0.95516,-1.05833 -0.79194,1.19062 c -0.43556,0.65485 -1.12338,1.48828 -1.52848,1.85208 l -0.73655,0.66146 z m -46.690884,-1.38906 c -1.281962,-1.53351 -1.777962,-2.41083 -0.635739,-1.12448 0.992743,1.11801 1.945112,2.38125 1.795244,2.38125 -0.05989,0 -0.581668,-0.56555 -1.159505,-1.25677 z m 18.165694,0.89229 c 0,-0.0549 0.18132,-0.25037 0.40293,-0.4343 0.33691,-0.2796 0.37563,-0.26323 0.23628,0.0999 -0.14232,0.37087 -0.63921,0.63083 -0.63921,0.3344 z m -8.54611,-2.01561 c -2.56419,-0.54048 -6.667823,-2.39394 -8.016688,-3.62084 -0.45105,-0.41027 -1.108402,-0.98407 -1.460783,-1.27511 -1.080578,-0.89248 -2.349494,-2.50717 -2.3464,-2.98577 0.002,-0.31193 0.222647,-0.16428 0.705662,0.47223 0.3865,0.50932 1.490606,1.71186 2.453569,2.6723 3.073737,3.0657 7.261022,4.62876 13.37429,4.99246 l 3.175,0.1889 -2.77812,0.0233 c -1.77751,0.0149 -3.61677,-0.15347 -5.10653,-0.46748 z m 8.4965,0.34727 c 0.191,-0.0764 0.4192,-0.067 0.50712,0.0209 0.0879,0.0879 -0.0683,0.15046 -0.34726,0.13897 -0.30823,-0.0127 -0.37092,-0.0754 -0.15986,-0.15985 z m 28.88919,-4.31718 c -0.21828,-0.14106 -0.27781,-0.25648 -0.13229,-0.25648 0.14552,0 0.44318,0.11542 0.66146,0.25648 0.21828,0.14107 0.27781,0.25648 0.13229,0.25648 -0.14552,0 -0.44317,-0.11541 -0.66146,-0.25648 z m -36.3802,-0.49917 c -1.571675,-0.45687 -3.307295,-1.24341 -3.307295,-1.49879 0,-0.0728 0.327422,0.0297 0.727605,0.22774 0.400182,0.19801 1.620572,0.6267 2.71198,0.95264 2.60409,0.77767 2.5985,0.77548 1.98437,0.77784 -0.29104,10e-4 -1.24354,-0.20562 -2.11666,-0.45943 z m -5.027086,-2.3274 c -1.796655,-0.93065 -2.364952,-1.40561 -4.151579,-3.46969 -0.938598,-1.08435 -1.535494,-2.01745 -1.536051,-2.40124 -7.41e-4,-0.50637 -0.07213,-0.56861 -0.369321,-0.32196 -0.202625,0.16817 -0.516308,0.66281 -0.697072,1.09922 -0.180764,0.4364 -0.380474,0.74165 -0.443798,0.67832 -0.148602,-0.1486 0.906281,-2.2277 1.545646,-3.04636 0.482521,-0.61784 0.4928,-0.61922 0.4928,-0.0661 0,0.31067 -0.119063,0.56485 -0.264584,0.56485 -0.4526,0 -0.298211,0.42002 0.694173,1.88854 1.367457,2.02354 2.910518,3.56228 4.66364,4.65058 0.836745,0.51943 1.521354,0.98703 1.521354,1.03911 0,0.13761 -0.01011,0.13334 -1.455208,-0.61522 z m -8.282795,-1.27447 c 0.0054,-0.43656 0.06469,-0.58313 0.131774,-0.32569 0.06708,0.25743 0.06267,0.61461 -0.0098,0.79375 -0.07248,0.17913 -0.127363,-0.0315 -0.121971,-0.46806 z m 21.997541,-5.55755 c -0.46053,-0.78099 -0.68772,-1.36257 -0.50485,-1.2924 0.40436,0.15517 1.54898,2.13577 1.42848,2.47178 -0.0475,0.13233 -0.46309,-0.39839 -0.92363,-1.17938 z m -17.815788,-1.81839 c 0,-0.0549 0.208359,-0.2633 0.463021,-0.46302 0.419644,-0.32911 0.429002,-0.31975 0.0999,0.0999 -0.345644,0.44073 -0.562916,0.58088 -0.562916,0.36312 z m 15.345828,-0.95506 c -3.11727,-2.07363 -5.62216,-2.50984 -9.328082,-1.62441 -1.274146,0.30443 -2.821959,0.79915 -3.439583,1.09938 l -1.122955,0.54587 0.625488,-0.54197 c 0.344018,-0.29809 1.636585,-0.85038 2.872372,-1.22732 1.877415,-0.57265 2.64585,-0.67042 4.67315,-0.59461 2.1072,0.0788 2.65149,0.20383 4.13908,0.95084 1.56373,0.78524 3.36814,2.1015 3.13242,2.28498 -0.0532,0.0414 -0.75152,-0.36035 -1.55189,-0.89276 z"
         id="path5472-5"
         inkscape:connector-curvature="0" />
    </g>
  </g>
</svg>
