<?xml version="1.0" encoding="UTF-8" standalone="no"?>
<!-- Created with Inkscape (http://www.inkscape.org/) -->

<svg
   xmlns:dc="http://purl.org/dc/elements/1.1/"
   xmlns:cc="http://creativecommons.org/ns#"
   xmlns:rdf="http://www.w3.org/1999/02/22-rdf-syntax-ns#"
   xmlns:svg="http://www.w3.org/2000/svg"
   xmlns="http://www.w3.org/2000/svg"
   xmlns:sodipodi="http://sodipodi.sourceforge.net/DTD/sodipodi-0.dtd"
   xmlns:inkscape="http://www.inkscape.org/namespaces/inkscape"
   width="75mm"
   height="120mm"
   viewBox="0 0 75 120"
   version="1.1"
   id="svg8"
   inkscape:version="0.92.4 (5da689c313, 2019-01-14)"
   sodipodi:docname="clouds5.svg">
  <defs
     id="defs2" />
  <sodipodi:namedview
     id="base"
     pagecolor="#ffffff"
     bordercolor="#666666"
     borderopacity="1.0"
     inkscape:pageopacity="0.0"
     inkscape:pageshadow="2"
     inkscape:zoom="0.98994949"
     inkscape:cx="-143.71318"
     inkscape:cy="309.71989"
     inkscape:document-units="mm"
     inkscape:current-layer="layer1"
     showgrid="false"
     units="mm"
     inkscape:window-width="1280"
     inkscape:window-height="972"
     inkscape:window-x="-8"
     inkscape:window-y="-8"
     inkscape:window-maximized="1" />
  <metadata
     id="metadata5">
    <rdf:RDF>
      <cc:Work
         rdf:about="">
        <dc:format>image/svg+xml</dc:format>
        <dc:type
           rdf:resource="http://purl.org/dc/dcmitype/StillImage" />
        <dc:title></dc:title>
      </cc:Work>
    </rdf:RDF>
  </metadata>
  <g
     inkscape:label="Calque 1"
     inkscape:groupmode="layer"
     id="layer1"
     transform="translate(0,-176.99999)">
    <path
       style="fill:#e9e2ca;stroke-width:0.26458335"
       d="m 39.450552,262.76956 c -0.359802,-0.24884 -1.121032,-0.97012 -1.691622,-1.60285 -0.570587,-0.63273 -1.404024,-1.30797 -1.852083,-1.50053 -0.448056,-0.19257 -1.223044,-0.72144 -1.722197,-1.17527 -0.499152,-0.45384 -0.915871,-0.83363 -0.926041,-0.84399 -0.01016,-0.0103 -0.792398,-0.0786 -1.738284,-0.15161 -1.222322,-0.0944 -2.140727,-0.36041 -3.175,-0.91969 -0.800364,-0.4328 -1.955046,-0.85616 -2.565958,-0.9408 -0.992818,-0.13756 -1.199006,-0.0656 -1.941988,0.67734 -0.850491,0.85049 -1.614341,1.35359 -2.055137,1.35359 -0.13633,0 -0.531111,-0.4169 -0.87729,-0.92644 -0.34618,-0.50954 -0.827448,-0.99054 -1.069485,-1.06888 -0.242037,-0.0783 -1.135006,0.0901 -1.984375,0.37433 -0.84937,0.28423 -2.086159,0.59659 -2.748422,0.69415 -0.978363,0.14413 -1.390743,0.0673 -2.199562,-0.40995 -0.669719,-0.39514 -1.206409,-1.02462 -1.640157,-1.92374 -0.35459,-0.73503 -0.644709,-1.47444 -0.644709,-1.64313 0,-0.16869 -0.183087,-0.67371 -0.40686,-1.12228 -0.2523573,-0.50586 -0.6793743,-0.87673 -1.1244793,-0.97663 -0.39469,-0.0886 -0.980504,-0.36495 -1.301809,-0.61414 -0.405006,-0.31411 -0.601345,-0.77769 -0.640121,-1.51141 -0.03076,-0.58209 0.133033,-1.42044 0.363991,-1.86301 0.230957,-0.44257 0.548778,-1.73111 0.706267,-2.86342 0.15749,-1.13231 0.286345,-2.09669 0.286345,-2.14308 0,-0.0464 0.48028,-0.66284 1.067289,-1.36991 0.8019733,-0.966 1.0347863,-1.45001 0.9365413,-1.94704 -0.07191,-0.3638 -0.0658,-0.51197 0.01358,-0.32926 0.107683,0.24785 0.301975,0.2082 0.765166,-0.15614 0.522473,-0.41098 0.973229,-0.47065 2.845057,-0.37662 1.223321,0.0614 2.707309,-0.0184 3.297751,-0.17735 0.879609,-0.23685 1.146382,-0.4678 1.476833,-1.2785 0.221817,-0.54418 0.561669,-1.19385 0.755228,-1.44371 0.193559,-0.24986 0.806725,-0.50226 1.362591,-0.56088 0.555866,-0.0586 1.144613,-0.24053 1.308326,-0.40424 0.205287,-0.20529 0.218449,-0.52388 0.04241,-1.02663 -0.224355,-0.64074 -0.430728,-0.75003 -1.705201,-0.903 -0.797475,-0.0957 -1.985736,-0.30116 -2.64058,-0.45652 -0.654843,-0.15537 -1.653409,-0.35339 -2.219035,-0.44006 -0.749759,-0.11488 -1.28127,-0.43925 -1.961633,-1.19713 -0.889458,-0.9908 -1.008734,-1.03994 -2.543464,-1.04796 -0.953495,-0.005 -1.8082313,-0.15846 -2.0956793,-0.37629 -0.271186,-0.20551 -0.550101,-0.84999 -0.631951,-1.46022 -0.123099,-0.91777 -0.04012,-1.20648 0.519254,-1.80652 0.366173,-0.3928 0.783707,-0.95231 0.9278543,-1.24335 0.144147,-0.29104 0.342684,-0.97565 0.441193,-1.52135 0.101162,-0.5604 0.332505,-0.99219 0.531595,-0.99219 0.193869,0 0.48996,-0.16564 0.65798,-0.36809 0.472611,-0.56946 2.460745,-0.85319 4.124928,-0.58868 0.291042,0.0463 1.032657,-0.13095 1.648035,-0.39379 0.915616,-0.39109 1.276096,-0.42449 1.984375,-0.18386 0.476029,0.16173 1.302306,0.635 1.836172,1.05172 0.790819,0.61728 1.158408,0.73437 1.983952,0.63198 0.855278,-0.10608 1.138708,-0.004 1.817579,0.65387 0.700164,0.67862 0.910133,0.74919 1.621823,0.54508 0.792091,-0.22717 0.836515,-0.19393 1.427522,1.06789 0.396727,0.84703 0.819002,1.35481 1.207831,1.4524 0.328813,0.0825 0.737409,0.0638 0.907989,-0.0416 0.433363,-0.26784 0.157117,-2.40387 -0.388914,-3.00723 -0.239802,-0.26498 -0.938493,-0.69112 -1.552644,-0.94698 -2.061598,-0.85887 -2.231784,-0.97768 -2.600931,-1.81578 -0.359956,-0.81724 -0.407231,-0.83569 -2.219872,-0.8663 -1.018646,-0.0172 -2.003859,-0.047 -2.189361,-0.0661 -0.185503,-0.0192 -0.453109,-0.30277 -0.594681,-0.63019 -0.141572,-0.32742 -0.40509,-0.80238 -0.585596,-1.05546 -0.277874,-0.38959 -0.228087,-0.53157 0.324718,-0.92604 0.359101,-0.25624 0.88463,-0.52871 1.167841,-0.60548 0.283212,-0.0768 0.566067,-0.293 0.628567,-0.4805 0.0625,-0.18751 -0.137031,-0.40647 -0.443404,-0.48659 -0.306374,-0.0801 -0.557043,-0.30732 -0.557043,-0.50489 0,-0.19757 -0.355172,-0.54289 -0.789271,-0.76737 -0.434099,-0.22448 -0.96988,-0.75741 -1.190625,-1.18428 -0.414442,-0.80144 -0.521677,-2.03307 -0.240754,-2.76514 0.08833,-0.23019 0.3126,-0.41852 0.498379,-0.41852 0.314145,0 1.5971,-1.33928 2.516021,-2.62648 0.218282,-0.30577 0.724297,-0.58023 1.12448,-0.60993 0.400182,-0.0297 0.727604,-0.11965 0.727604,-0.19988 0,-0.0802 0.922734,-0.10044 2.050521,-0.0449 1.27285,0.0627 2.1234,0.22706 2.242687,0.43347 0.105693,0.18288 0.53208,0.47331 0.947529,0.6454 0.415446,0.17208 1.199954,0.84475 1.74335,1.49483 0.543396,0.65007 1.104508,1.10994 1.24692,1.02193 0.296135,-0.18303 1.371248,0.46795 2.289691,1.38639 0.344281,0.34429 0.73741,0.5571 0.873612,0.47292 0.136205,-0.0842 0.380778,-0.68177 0.543494,-1.32798 0.162716,-0.6462 0.391316,-1.17492 0.508,-1.17492 0.116684,0 0.303824,-0.38695 0.415867,-0.85989 0.112045,-0.47294 0.184843,-0.93777 0.161774,-1.03296 -0.02307,-0.0952 0.135273,-0.32014 0.351872,-0.4999 0.519239,-0.43093 4.49431,-0.41916 5.01727,0.0149 0.212349,0.17624 0.5662,0.25131 0.786336,0.16684 0.220134,-0.0845 0.400243,-0.38694 0.400243,-0.67216 0,-0.28521 -0.178593,-0.69716 -0.396875,-0.91545 -0.232269,-0.23227 -0.396875,-0.87874 -0.396875,-1.55868 0,-0.88159 0.146352,-1.28906 0.606785,-1.6894 0.333732,-0.29018 0.839748,-0.62974 1.124479,-0.75458 0.889387,-0.38995 1.758305,-0.31354 2.067663,0.18182 0.163412,0.26166 0.50568,0.47574 0.760593,0.47574 0.254915,0 0.781738,0.35719 1.170715,0.79375 0.620099,0.69596 0.882621,0.79375 2.130735,0.79375 1.150744,0 1.545463,-0.12196 2.060008,-0.63651 0.551934,-0.55193 0.767911,-0.60687 1.62541,-0.41347 0.543893,0.12267 1.353381,0.15879 1.79886,0.0803 0.445479,-0.0785 1.524336,-0.38772 2.397461,-0.68712 0.873125,-0.29939 1.825625,-0.57307 2.116666,-0.60817 0.291042,-0.0351 0.835658,-0.14281 1.210257,-0.23934 0.464707,-0.11975 0.790221,-0.044 1.024586,0.23838 0.18892,0.22763 0.477742,0.41653 0.641824,0.41976 0.164084,0.003 0.595989,0.23872 0.959792,0.52329 0.363802,0.28457 0.976545,0.52004 1.361654,0.52328 0.465714,0.004 0.975183,0.31908 1.521354,0.94113 1.044321,1.18942 1.0882,2.25588 0.124018,3.0143 -0.383426,0.3016 -0.952246,0.54837 -1.264044,0.54837 -0.311798,0 -0.81792,0.17582 -1.124712,0.3907 -0.306792,0.21489 -0.632666,0.68897 -0.724162,1.05352 -0.09577,0.38157 -0.529606,0.84893 -1.022421,1.10143 -0.470834,0.24123 -0.943536,0.57082 -1.050449,0.73241 -0.106913,0.1616 -0.197834,0.77007 -0.202049,1.35215 -0.0042,0.58208 -0.07322,1.30236 -0.153334,1.60061 -0.08012,0.29825 -0.380154,0.68872 -0.666748,0.8677 -0.386955,0.24166 -0.783902,0.25465 -1.542176,0.0505 -0.561602,-0.15122 -1.21244,-0.20152 -1.446306,-0.11178 -0.233865,0.0897 -0.425209,0.32596 -0.425209,0.52494 0,0.52698 -1.543251,1.24068 -2.350103,1.08684 -0.380934,-0.0726 -1.172525,-0.31237 -1.759096,-0.53277 -0.85218,-0.32021 -1.286033,-0.34213 -2.15901,-0.10912 -1.038707,0.27725 -1.139759,0.25013 -2.051569,-0.55045 -0.791535,-0.69498 -1.179801,-0.84206 -2.22287,-0.84206 -0.90615,0 -1.4277,0.15268 -1.842879,0.53948 -0.318481,0.29671 -0.579056,0.71637 -0.579056,0.93259 0,0.21621 0.301056,0.50758 0.669012,0.64747 0.367959,0.1399 1.426517,0.29487 2.352355,0.34438 1.47129,0.0787 1.825093,0.20777 2.80861,1.02474 0.932048,0.77421 1.097037,1.04719 0.960853,1.58979 -0.121026,0.4822 -0.452138,0.74129 -1.254657,0.98173 -1.056846,0.31663 -1.085035,0.3544 -0.92025,1.23277 0.132057,0.70392 0.04929,1.03569 -0.370882,1.48669 -0.297482,0.31931 -0.540874,0.67717 -0.540874,0.79525 0,0.49144 0.810379,0.14642 2.136891,-0.90978 1.419453,-1.1302 3.048765,-1.88269 3.488298,-1.61104 0.403686,0.24949 3.417502,0.11559 3.757957,-0.16696 0.177559,-0.14736 0.390977,-0.19979 0.474265,-0.1165 0.08329,0.0833 0.4253,0.005 0.760024,-0.17427 0.334724,-0.17914 1.361562,-0.32571 2.281862,-0.32571 1.477341,0 1.765017,0.0879 2.456778,0.75065 0.430929,0.41285 0.783508,0.8909 0.783508,1.06234 0,0.17143 0.233003,0.6079 0.517787,0.96995 0.413469,0.52564 0.843605,0.69231 2.135034,0.82729 0.889489,0.093 1.854094,0.33493 2.143572,0.53769 0.9208,0.64495 1.81819,2.09222 1.81819,2.9323 0,0.44694 -0.209219,1.20273 -0.464931,1.67953 -0.255712,0.47681 -0.931066,1.12979 -1.500785,1.45108 -0.598149,0.33733 -1.114822,0.86367 -1.222738,1.24563 -0.705072,2.49551 -0.935847,2.98514 -1.644936,3.49006 -0.62466,0.4448 -1.028255,0.5212 -2.144582,0.40599 -0.756312,-0.0781 -2.056316,-0.47602 -2.888896,-0.88436 -1.463331,-0.71768 -1.538909,-0.72758 -2.267654,-0.2971 -0.592846,0.3502 -0.945311,0.39042 -1.650116,0.18828 -0.492935,-0.14137 -0.992521,-0.25704 -1.110192,-0.25704 -0.11767,0 -0.339725,0.36081 -0.493453,0.80179 -0.153728,0.44099 -0.620781,0.97827 -1.037897,1.19397 -0.715687,0.3701 -1.979356,0.37058 -2.908017,0.001 -0.258249,-0.10274 -0.685485,0.1033 -1.124479,0.54229 -0.389395,0.3894 -0.70799,0.79237 -0.70799,0.89549 0,0.10312 0.232216,0.39765 0.51604,0.65451 0.448361,0.40576 0.825609,0.4425 2.876444,0.28019 2.165133,-0.17137 2.401523,-0.14242 2.8574,0.3499 0.273344,0.29519 0.734912,0.99123 1.025702,1.54675 0.590764,1.12858 1.195242,1.70015 1.559772,1.47486 0.133231,-0.0823 0.166036,-0.0264 0.0729,0.12428 -0.09313,0.15069 0.23562,0.55146 0.73056,0.8906 0.49494,0.33914 1.088525,1.01219 1.319078,1.49566 0.230552,0.48348 0.419187,1.44651 0.419187,2.14007 0,0.69356 0.09899,1.37413 0.21998,1.51238 0.120988,0.13824 0.376886,0.78713 0.568658,1.44198 0.341892,1.16746 0.39071,2.84976 0.109495,3.77321 -0.17077,0.56078 -1.210109,1.11994 -2.52308,1.3574 -1.327742,0.24014 -3.351053,-0.47077 -4.279913,-1.50378 -0.410017,-0.456 -0.811321,-1.15825 -0.891783,-1.56057 -0.08046,-0.40231 -0.292815,-0.85308 -0.471893,-1.0017 -0.429342,-0.35632 -1.406043,-0.38575 -2.388756,-0.072 -0.436562,0.13939 -0.99228,0.18144 -1.234929,0.0935 -0.24265,-0.088 -0.685327,-0.4716 -0.983729,-0.85244 -0.355724,-0.454 -0.906925,-0.7507 -1.600732,-0.86164 -0.582001,-0.0931 -1.359561,-0.30653 -1.727906,-0.47436 -0.368348,-0.16783 -0.984959,-0.85165 -1.370246,-1.5196 -0.385286,-0.66795 -0.726458,-1.2479 -0.75816,-1.28877 -0.0317,-0.0409 -0.437455,-0.18324 -0.901677,-0.31638 -0.690946,-0.19816 -0.93741,-0.14869 -1.358849,0.27275 -0.283147,0.28315 -0.5143,0.7827 -0.51367,1.11013 5.29e-4,0.33846 0.526674,1.16608 1.219213,1.91823 0.669938,0.7276 1.369025,1.66909 1.553525,2.09219 0.243009,0.55728 0.263445,1.03006 0.07415,1.71563 -0.143714,0.52049 -0.486127,1.23217 -0.760915,1.5815 -0.274791,0.34934 -0.499618,0.73817 -0.499618,0.86407 0,0.12589 0.327422,0.23052 0.727604,0.23251 1.382699,0.007 1.910995,0.29174 2.136052,1.15185 0.125688,0.48034 0.105135,1.19602 -0.04888,1.70191 -0.188026,0.61762 -0.174212,1.12621 0.04722,1.73858 0.677637,1.87397 0.261773,2.92803 -1.553234,3.93686 -0.965136,0.53645 -1.675852,0.7276 -2.705245,0.7276 -0.885841,0 -1.635324,-0.16538 -2.050381,-0.45243 z m 21.96769,-12.11527 c 0,-0.0728 -0.05953,-0.13229 -0.132292,-0.13229 -0.07276,0 -0.132291,0.0595 -0.132291,0.13229 0,0.0728 0.05953,0.1323 0.132291,0.1323 0.07276,0 0.132292,-0.0595 0.132292,-0.1323 z m -14.816667,-5.02708 c 0,-0.0728 -0.05953,-0.13229 -0.132291,-0.13229 -0.07276,0 -0.132292,0.0595 -0.132292,0.13229 0,0.0728 0.05953,0.13229 0.132292,0.13229 0.07276,0 0.132291,-0.0595 0.132291,-0.13229 z m 13.49375,-1.05833 c 0,-0.0728 -0.05953,-0.13229 -0.132291,-0.13229 -0.07276,0 -0.132292,0.0595 -0.132292,0.13229 0,0.0728 0.05953,0.13229 0.132292,0.13229 0.07276,0 0.132291,-0.0595 0.132291,-0.13229 z m -6.438193,-6.12952 c -0.09701,-0.097 -0.17639,-0.0176 -0.17639,0.17639 0,0.19403 0.07937,0.2734 0.17639,0.17639 0.09701,-0.097 0.09701,-0.25576 0,-0.35278 z M 33.901575,226.04804 c 0,-0.0728 -0.05953,-0.13229 -0.132291,-0.13229 -0.07276,0 -0.132292,0.0595 -0.132292,0.13229 0,0.0728 0.05953,0.13229 0.132292,0.13229 0.07276,0 0.132291,-0.0595 0.132291,-0.13229 z m -19.84375,-5.82083 c 0,-0.0728 -0.05953,-0.13229 -0.132291,-0.13229 -0.07276,0 -0.132292,0.0595 -0.132292,0.13229 0,0.0728 0.05953,0.13229 0.132292,0.13229 0.07276,0 0.132291,-0.0595 0.132291,-0.13229 z m 29.36875,-2.38125 c 0,-0.0728 -0.05953,-0.13229 -0.132291,-0.13229 -0.07276,0 -0.132292,0.0595 -0.132292,0.13229 0,0.0728 0.05953,0.13229 0.132292,0.13229 0.07276,0 0.132291,-0.0595 0.132291,-0.13229 z m -6.879166,-6.87917 c 0,-0.0728 -0.05953,-0.13229 -0.132292,-0.13229 -0.07276,0 -0.132292,0.0595 -0.132292,0.13229 0,0.0728 0.05953,0.13229 0.132292,0.13229 0.07276,0 0.132292,-0.0595 0.132292,-0.13229 z"
       id="path1071"
       inkscape:connector-curvature="0" />
  </g>
</svg>
