<?xml version="1.0" encoding="UTF-8" standalone="no"?>
<!-- Created with Inkscape (http://www.inkscape.org/) -->

<svg
   xmlns:dc="http://purl.org/dc/elements/1.1/"
   xmlns:cc="http://creativecommons.org/ns#"
   xmlns:rdf="http://www.w3.org/1999/02/22-rdf-syntax-ns#"
   xmlns:svg="http://www.w3.org/2000/svg"
   xmlns="http://www.w3.org/2000/svg"
   xmlns:sodipodi="http://sodipodi.sourceforge.net/DTD/sodipodi-0.dtd"
   xmlns:inkscape="http://www.inkscape.org/namespaces/inkscape"
   version="1.1"
   id="svg2949"
   width="283"
   height="443"
   viewBox="0 0 283 443"
   sodipodi:docname="dragon4.svg"
   inkscape:version="0.92.4 (5da689c313, 2019-01-14)">
  <metadata
     id="metadata2955">
    <rdf:RDF>
      <cc:Work
         rdf:about="">
        <dc:format>image/svg+xml</dc:format>
        <dc:type
           rdf:resource="http://purl.org/dc/dcmitype/StillImage" />
        <dc:title></dc:title>
      </cc:Work>
    </rdf:RDF>
  </metadata>
  <defs
     id="defs2953">
    <pattern
       y="0"
       x="0"
       height="6"
       width="6"
       patternUnits="userSpaceOnUse"
       id="EMFhbasepattern" />
  </defs>
  <sodipodi:namedview
     pagecolor="#ffffff"
     bordercolor="#666666"
     borderopacity="1"
     objecttolerance="10"
     gridtolerance="10"
     guidetolerance="10"
     inkscape:pageopacity="0"
     inkscape:pageshadow="2"
     inkscape:window-width="1280"
     inkscape:window-height="972"
     id="namedview2951"
     showgrid="false"
     inkscape:zoom="1.0654628"
     inkscape:cx="-94.276455"
     inkscape:cy="281.03419"
     inkscape:window-x="-8"
     inkscape:window-y="-8"
     inkscape:window-maximized="1"
     inkscape:current-layer="svg2949" />
  <path
     id="path12"
     d="m 165.3444,349.77825 c -1.83999,-0.71999 -4.95997,-1.35999 -6.95995,-1.43999 -6.15996,-0.15999 -16.47988,-7.83994 -19.99985,-14.71989 -1.83999,-3.59997 -3.35998,-8.79993 -3.35998,-11.51991 0,-4.95996 -0.08,-4.95996 -6.95995,-3.99997 -3.83997,0.47999 -7.91994,1.27999 -9.19993,1.67999 -1.27999,0.39999 -3.83997,-0.32 -5.75996,-1.59999 -1.91998,-1.19999 -5.83995,-2.79998 -8.79993,-3.43998 -2.87998,-0.63999 -5.679961,-1.83998 -6.239961,-2.79998 -0.55999,-0.87999 -4.15997,-2.95997 -7.99994,-4.55996 -6.479948,-2.79998 -7.039944,-3.51998 -7.999937,-10.79992 -1.119992,-7.91994 0.559996,-12.15991 4.799964,-12.15991 1.199991,0 4.079973,-1.67999 6.479953,-3.75997 4.15997,-3.59998 4.95996,-3.67998 20.959841,-2.23999 l 16.63988,1.43999 7.11995,7.35995 7.11994,7.35994 3.43998,-3.35997 c 2.39998,-2.47998 2.87998,-3.99997 1.67999,-5.51996 -0.96,-1.19999 -2.15999,-4.15997 -2.79998,-6.63995 -0.56,-2.47998 -2.15999,-4.47997 -3.43998,-4.47997 -4.31996,0 -4.79996,-0.24 -10.31992,-3.59997 -3.43997,-2.07999 -6.71995,-2.95998 -9.27993,-2.31999 -2.15999,0.56 -11.03992,0.24 -19.83985,-0.63999 -12.879911,-1.35999 -17.279877,-2.55998 -22.879836,-6.15996 -3.839971,-2.47998 -8.15994,-5.19996 -9.679928,-6.15995 -1.519989,-0.87999 -2.959978,-3.51997 -3.199977,-5.83996 -0.239998,-2.39998 -0.959993,-5.03996 -1.519988,-6.07995 -0.639996,-0.95999 -0.399997,-3.43998 0.399997,-5.51996 0.879993,-2.07998 1.999985,-5.83996 2.559981,-8.39994 0.639995,-2.87998 2.63998,-5.27996 5.43996,-6.47995 2.399982,-1.03999 4.799964,-2.15998 5.199961,-2.39998 0.319998,-0.32 -2.799979,-4.07997 -7.119947,-8.47994 -4.319968,-4.31997 -7.599944,-8.95993 -7.359946,-10.15992 0.239998,-1.27999 -0.399997,-3.91998 -1.519989,-5.99996 -1.119991,-1.99998 -1.439989,-3.67997 -0.719994,-3.67997 0.719994,0 2.239983,-3.35997 3.359975,-7.43994 1.439989,-5.35996 3.039977,-7.75995 6.079955,-8.95994 3.039978,-1.11999 4.07997,-2.71998 4.07997,-6.15995 0,-4.07997 1.119992,-5.19996 7.759942,-8.07994 4.319963,-1.83999 12.239913,-4.39997 17.599874,-5.67996 6.95994,-1.59999 10.23992,-3.27998 11.35991,-5.67996 0.8,-1.83998 3.35998,-4.15997 5.67996,-5.19996 9.11993,-3.91997 15.35989,-8.39994 17.51987,-12.63991 1.27999,-2.31998 3.11998,-7.19994 4.15997,-10.71992 1.11999,-3.67997 2.95998,-6.39995 4.39997,-6.39995 1.99998,0 2.15998,1.67999 1.19999,9.43993 -0.64,5.11996 -1.27999,10.63992 -1.35999,12.15991 -0.16,1.51999 -0.72,2.55998 -1.27999,2.39998 -0.56,-0.16 -4.79997,3.19998 -9.27993,7.35995 -7.43995,6.95995 -7.91994,7.75994 -4.71997,8.55994 5.75996,1.51998 11.99991,8.55993 13.1999,15.11988 1.04,5.67996 0.72,6.55995 -5.11996,11.51992 -4.79996,4.07997 -7.83994,5.35996 -12.7999,5.43996 -3.59998,0 -8.39994,-0.88 -10.63992,-2.07999 -2.63999,-1.27999 -4.95997,-4.55996 -6.31996,-8.95993 -1.19999,-3.83997 -3.19997,-6.87995 -4.39997,-6.87995 -1.27999,0 -4.07997,0.79999 -6.319951,1.83999 -2.95998,1.27999 -4.87996,4.39996 -6.87995,10.55992 -1.43999,4.79996 -2.23998,10.39992 -1.75998,12.4799 0.55999,2.07999 3.19997,5.11996 5.99995,6.79995 4.719971,2.71998 5.359961,2.79998 9.199931,0.24 3.43998,-2.23998 6.55995,-2.47998 18.71986,-1.59999 9.19994,0.72 15.27989,1.99999 16.47988,3.43998 1.03999,1.19999 3.11998,2.23998 4.71997,2.23998 1.59999,0 3.75997,1.99999 4.79996,4.63997 1.67999,3.99997 1.43999,5.67995 -1.59999,11.51991 -3.35997,6.47995 -7.99994,9.35993 -13.1999,8.15994 -1.27999,-0.32 -5.27996,0.4 -8.95993,1.67999 -5.67996,1.83998 -7.43995,1.83998 -11.43992,-0.16 -2.87998,-1.35999 -7.11994,-1.91999 -10.55992,-1.35999 -4.079971,0.63999 -5.839961,1.83999 -6.159951,4.15997 -0.64,4.95996 5.519961,13.6799 11.519911,16.23988 5.43996,2.31998 25.59981,5.83995 33.59975,5.91995 2.63998,0 6.07996,1.67999 8.31994,4.07997 2.15998,2.23999 5.19996,4.07997 6.87995,4.07997 1.67999,0 3.43997,0.72 3.99997,1.59999 0.56,0.88 2.07999,5.67996 3.35998,10.55992 1.67998,6.71995 1.83998,10.15993 0.55999,13.9199 -0.95999,2.79998 -2.31998,5.03996 -3.03998,5.03996 -0.63999,0 -2.55998,2.95998 -4.15997,6.55995 -1.59998,3.59998 -3.91997,7.35995 -5.11996,8.39994 -3.03998,2.47998 -2.79998,12.07991 0.32,15.19989 2.87998,2.79998 11.59992,3.43997 15.43989,1.03999 1.99998,-1.27999 2.07998,-2.71998 0.39999,-9.03993 -1.11999,-4.07997 -1.99998,-8.55994 -1.99998,-9.83993 0,-1.35999 2.07998,-4.55996 4.63997,-7.11995 2.71998,-2.79997 7.19994,-5.19996 11.03991,-5.91995 3.51998,-0.56 7.51995,-1.43999 8.95994,-1.83999 1.35999,-0.4 5.75995,2.23999 9.83992,5.91996 7.67995,7.03995 13.19991,10.71992 12.79991,8.55993 -0.08,-0.71999 -0.08,-5.51995 0,-10.71992 0.08,-5.19996 0.87999,-9.43993 1.59999,-9.43993 1.67999,0 1.35999,24.15983 -0.4,28.0798 -0.71999,1.59998 -2.39998,2.39998 -4.15997,1.91998 -1.67999,-0.4 -3.51997,0 -4.15997,1.03999 -0.55999,0.96 -2.87998,1.35999 -5.03996,0.8 -3.11998,-0.8 -4.07997,-0.4 -4.23997,1.99998 -0.16,1.67999 -0.08,5.51996 0.16,8.47994 0.48,7.27995 -6.71995,17.75987 -13.1199,19.11986 -7.75995,1.75999 -16.95988,1.99998 -20.39985,0.71999 z m -46.07966,-47.75964 c -0.88,-1.43999 -0.4,-1.43999 1.51999,0.16 1.91998,1.51998 3.91997,1.75998 7.27994,0.63999 l 4.55997,-1.51999 -5.75996,-5.35996 c -3.11998,-2.95998 -7.19995,-5.91995 -8.95993,-6.63995 -1.83999,-0.71999 -4.79997,-0.47999 -6.55995,0.4 -1.83999,0.95999 -3.51998,1.91998 -3.83998,2.15998 -0.31999,0.24 0.24,1.91999 1.27999,3.83997 0.96,1.83999 3.75998,4.47997 6.23996,5.75996 2.47998,1.35999 4.71996,2.47998 4.95996,2.47998 0.32,0.08 0,-0.79999 -0.71999,-1.91998 z m 8.87993,-89.03934 c 0.32,-2.07999 -0.55999,-3.91997 -2.07998,-4.47997 -1.43999,-0.56 -5.51996,0.24 -9.11994,1.75999 -3.51997,1.59999 -6.47995,3.35997 -6.47995,3.99997 0,1.43999 6.15996,2.63998 12.31991,2.39998 3.67997,-0.16 5.03996,-1.11999 5.35996,-3.67997 z m 0.32,-43.11968 c 0,-1.91999 -3.11998,-3.99997 -4.31997,-2.87998 -1.19999,1.19999 0.87999,4.39997 2.79998,4.39997 0.87999,0 1.51999,-0.72 1.51999,-1.51999 z m 87.91935,115.03914 c -0.64,-0.55999 -1.03999,-22.95983 -1.03999,-49.67963 l 0.08,-48.63963 -6.87995,-12.87991 c -3.75997,-7.11995 -7.75994,-14.07989 -8.79994,-15.43988 -1.11999,-1.35999 -4.71996,-7.59995 -8.07994,-13.9199 -3.35997,-6.31995 -4.87996,-9.99993 -3.43997,-8.15994 1.43999,1.75999 7.51994,11.51991 13.5199,21.59984 5.99995,10.15992 11.11992,18.15986 11.43991,17.91987 0.24,-0.24 -1.91998,-12.23991 -4.71996,-26.55981 -3.35998,-16.63987 -6.15996,-26.7998 -7.75994,-28.07979 -3.83998,-3.03998 -14.5599,-5.67996 -18.23987,-4.55996 -1.75999,0.55999 -3.19998,1.91998 -3.11998,2.95997 0,1.11999 1.43999,3.83997 3.19998,6.07996 1.75999,2.23998 3.19998,4.71996 3.27998,5.51996 0,0.87999 -2.23999,-1.51999 -4.87997,-5.27996 -2.71998,-3.75998 -4.95996,-7.35995 -4.95996,-7.99994 0,-0.72 3.91997,-5.59996 8.63994,-10.79992 6.71995,-7.519948 10.47992,-10.239928 17.59986,-12.639908 5.03997,-1.67999 9.59993,-2.39998 10.39993,-1.59999 0.87999,0.79999 0.08,3.75997 -1.83999,6.87995 -1.75999,2.959978 -4.07997,8.879928 -5.03996,13.039898 -1.51999,6.07996 -1.43999,8.79994 0.4,13.11991 1.19999,3.03997 3.91997,14.87989 5.99995,26.3198 2.07999,11.51992 4.39997,20.87985 5.03996,20.87985 0.72,0 1.75999,-2.55998 2.31999,-5.67996 0.55999,-3.19998 1.83998,-6.23995 2.79998,-6.79995 1.03999,-0.72 1.27999,0.48 0.63999,3.27997 -3.11998,12.63991 -2.39998,12.39991 6.55995,-1.91998 5.27996,-8.31994 10.79992,-17.19987 12.31991,-19.59986 1.51999,-2.47998 5.03996,-8.47993 7.75994,-13.3599 3.83998,-6.71995 4.55997,-9.19993 2.95998,-10.23992 -1.11999,-0.72 -2.95998,-1.27999 -4.07997,-1.27999 -1.03999,0 -5.03996,1.19999 -8.71993,2.63998 -5.75996,2.31998 -6.95995,2.39998 -8.23994,0.4 -0.72,-1.2 -1.43999,-3.83998 -1.43999,-5.83996 0,-4.31997 -5.67996,-17.759868 -8.07994,-19.279858 -0.95999,-0.55999 -1.75999,-0.63999 -1.75999,-0.08 0,0.48 1.03999,2.55998 2.23998,4.55997 2.87998,4.479968 6.87995,20.399848 5.59996,21.759838 -0.55999,0.55999 -2.63998,0.08 -4.63996,-0.96 -2.07999,-1.11999 -6.55995,-1.59998 -10.15993,-1.11999 l -6.55995,0.88 0.88,-5.35996 c 0.47999,-2.95998 2.63998,-8.95994 4.71996,-13.27991 2.71998,-5.679948 4.87996,-8.079938 7.67994,-8.399928 5.75996,-0.8 16.15988,2.39998 23.51983,7.279938 3.51997,2.31999 8.47994,7.19995 10.95992,10.79992 l 4.55996,6.63995 -4.87996,8.23994 c -2.71998,4.55997 -6.15995,10.47993 -7.75994,13.19991 -1.51999,2.71997 -4.47997,7.83994 -6.55995,11.43991 -2.07999,3.59997 -4.95997,7.99994 -6.47996,9.83993 -1.43999,1.75998 -5.35996,7.75994 -8.71993,13.3599 l -5.99996,9.99992 -0.16,50.95962 c 0,27.9998 -0.31999,50.95963 -0.55999,50.95963 -0.24,0 -0.87999,-0.48 -1.51999,-1.12 z m 7.11995,-129.67903 c 0,-3.59998 3.67997,-17.35987 5.03996,-18.87986 0.71999,-0.8 0.24,3.19997 -1.11999,8.95993 -2.31998,9.99993 -3.91997,13.9999 -3.91997,9.91993 z"
     style="fill:#ff00ff;fill-opacity:1;fill-rule:nonzero;stroke:none"
     inkscape:connector-curvature="0" />
  <path
     id="path14"
     d="m 187.42423,347.61827 c 0,-0.4 1.2,-1.11999 2.55999,-1.59999 1.43998,-0.55999 2.15998,-0.32 1.51998,0.64 -0.95999,1.51999 -4.07997,2.31998 -4.07997,0.95999 z m -44.39967,-7.11995 c -1.99998,-2.63998 -1.99998,-2.63998 0.64,-0.63999 1.59998,1.19999 2.87997,2.55998 2.87997,2.87998 0,1.35999 -1.35999,0.47999 -3.51997,-2.23999 z m 49.35964,2.23999 c 0,-0.32 1.27999,-1.67999 2.87998,-2.87998 2.55998,-1.99999 2.63998,-1.99999 0.55999,0.63999 -2.07998,2.71998 -3.43997,3.59998 -3.43997,2.23999 z M 136.94461,330.6584 c -1.83999,-4.15997 -1.75999,-4.31997 0.55999,-1.35999 1.35999,1.75998 2.47998,3.83997 2.47998,4.55996 0,2.47998 -1.11999,1.27999 -3.03997,-3.19997 z m 34.23974,-7.91995 c 0.08,-1.91998 0.48,-2.31998 1.04,-0.95999 0.47999,1.11999 0.39999,2.55998 -0.16,3.11998 -0.56,0.55999 -0.95999,-0.4 -0.88,-2.15999 z m 26.23981,-1.67998 c 0.08,-1.83999 0.48,-2.23999 0.95999,-0.96 0.48,1.19999 0.4,2.63998 -0.08,3.11998 -0.55999,0.56 -0.95999,-0.4 -0.87999,-2.15998 z m -62.39954,-1.04 c 0,-1.43999 -0.87999,-2.95997 -1.99999,-3.43997 -1.59998,-0.64 -1.59998,-0.87999 0,-0.95999 2.39999,-0.16 4.63997,4.31996 3.03998,5.91995 -0.55999,0.56 -1.03999,-0.08 -1.03999,-1.51999 z m 71.35947,-1.99998 c 3.59998,-2.71998 8.87994,-3.27998 8.87994,-1.03999 0,0.79999 -1.35999,1.11999 -3.03998,0.71999 -1.67999,-0.48 -3.59997,-0.08 -4.23997,0.95999 -0.55999,0.96 -1.91998,1.75999 -2.87998,1.75999 -1.03999,0 -0.47999,-1.11999 1.27999,-2.39998 z m -95.19929,-0.72 c -0.8,-0.79999 -2.95998,-1.83998 -4.79997,-2.23998 -3.11997,-0.79999 -3.11997,-0.79999 0.24,-1.03999 1.91999,-0.08 4.39997,0.95999 5.51996,2.31998 2.23998,2.63998 1.59999,3.35998 -0.95999,0.95999 z m 13.5999,0.4 c 1.11999,-0.48 3.03997,-0.48 4.15997,0 1.11999,0.48 0.15999,0.8 -2.07999,0.8 -2.23998,0 -3.19998,-0.32 -2.07998,-0.8 z m 25.03981,-3.11998 c 0.08,-1.59998 8.15994,-11.99991 8.15994,-10.47992 0,0.56 -1.83999,3.43998 -4.07997,6.47995 -2.23998,3.03998 -4.07997,4.87997 -4.07997,3.99997 z m -52.639611,-3.59997 c -2.07998,-2.55998 -1.99998,-2.63998 0.64,-0.63999 1.51998,1.27999 2.799971,2.55998 2.799971,2.87997 0,1.35999 -1.279991,0.48 -3.439971,-2.23998 z m 113.599161,-2.55998 c -2.79998,-3.11998 -2.71998,-3.19998 0.87999,-1.27999 1.99999,1.03999 3.59998,1.35999 3.43998,0.63999 -0.08,-0.71999 -0.08,-5.51995 0,-10.71992 0.08,-5.19996 0.79999,-9.43993 1.59999,-9.43993 0.71999,0 1.35999,5.43996 1.35999,12.07991 0,8.87994 -0.56,11.99992 -2.23999,11.99992 -1.19999,0 -3.43997,-1.43999 -5.03996,-3.27998 z m -90.47933,-4.47997 c 0,-0.95999 -0.87999,-1.19999 -1.91999,-0.55999 -1.19999,0.71999 -1.43999,0.47999 -0.63999,-0.8 0.87999,-1.43999 1.83998,-1.51999 3.35997,-0.16 1.19999,0.96 4.07997,1.27999 6.47996,0.64 4.15996,-1.03999 4.23996,-1.19999 1.67998,-5.35996 l -2.55998,-4.31997 3.35998,3.83997 c 1.83998,2.15999 3.35997,4.47997 3.35997,5.11997 0,0.71999 -2.31998,1.75998 -5.11996,2.31998 -2.79998,0.55999 -5.75996,1.03999 -6.55995,1.03999 -0.8,0 -1.43999,-0.79999 -1.43999,-1.75999 z m 49.11964,0.08 c 0,-0.87999 0.79999,-1.59999 1.75998,-1.59999 0.96,0 1.28,0.72 0.72,1.59999 -0.56,0.88 -1.35999,1.67999 -1.75999,1.67999 -0.39999,0 -0.71999,-0.79999 -0.71999,-1.67999 z m -60.63956,-5.75995 c -1.11999,-1.35999 -1.75998,-2.79998 -1.35999,-3.19998 0.4,-0.4 1.59999,0.71999 2.71998,2.47998 1.12,1.75999 1.75999,3.19998 1.35999,3.19998 -0.31999,0 -1.51998,-1.11999 -2.71998,-2.47998 z m 70.15949,-1.91999 c 1.19999,-0.48 2.63998,-0.4 3.19997,0.16 0.48,0.55999 -0.47999,0.95999 -2.15998,0.87999 -1.91999,-0.08 -2.31998,-0.47999 -1.03999,-1.03999 z m 15.03989,-2.15998 c -1.35999,-0.88 -1.67999,-1.51999 -0.8,-1.51999 0.88,0 2.71998,0.63999 4.07997,1.51999 1.35999,0.87999 1.75999,1.59998 0.88,1.59998 -0.96,0 -2.79998,-0.71999 -4.15997,-1.59998 z m -72.23947,-2.79998 c -1.99999,-2.63998 -1.99999,-2.71998 0.63999,-0.64 1.51999,1.19999 2.87998,2.47998 2.87998,2.87998 0,1.35999 -1.35999,0.48 -3.51997,-2.23998 z m 19.67985,1.19999 c -1.43999,-0.88 -4.71996,-4.31997 -7.19994,-7.75995 -3.59998,-4.87996 -3.75998,-5.27996 -0.64,-2.07998 2.15998,2.23998 5.75996,5.75996 7.99994,7.75994 4.31997,3.91997 4.23997,4.63997 -0.16,2.07999 z m 5.11996,1.03999 c 0,-0.4 1.28,-1.67999 2.79998,-2.87998 2.63998,-2.07998 2.71998,-1.99998 0.64,0.64 -2.15998,2.71998 -3.43998,3.59997 -3.43998,2.23998 z M 81.02502,289.4587 c 0,-1.59999 4.719965,-5.83996 5.519959,-4.87996 0.239998,0.31999 -0.879994,1.91998 -2.559981,3.51997 -1.599988,1.51999 -2.959978,2.15998 -2.959978,1.35999 z m 85.27937,-4.39997 c 0.08,-1.91998 0.48,-2.31998 0.95999,-0.95999 0.48,1.11999 0.4,2.55998 -0.08,3.11998 -0.55999,0.55999 -0.95999,-0.4 -0.87999,-2.15999 z m 50.07963,-0.16 c -0.64,-0.55999 -1.03999,-22.95983 -1.03999,-49.67963 l 0.08,-48.63963 -6.87995,-12.87991 c -3.75997,-7.11995 -7.75994,-14.07989 -8.79994,-15.43988 -1.11999,-1.35999 -4.71996,-7.59995 -8.07994,-13.9199 -3.35997,-6.31995 -4.87996,-9.99993 -3.43997,-8.15994 1.43999,1.75999 7.51994,11.51991 13.5199,21.59984 5.99995,10.15992 11.11992,18.15986 11.43991,17.91987 0.24,-0.24 -1.91998,-12.23991 -4.71996,-26.55981 -3.35998,-16.63987 -6.15996,-26.7998 -7.75994,-28.07979 -3.83998,-3.03998 -14.5599,-5.67996 -18.23987,-4.55996 -1.75999,0.55999 -3.19998,1.91998 -3.11998,2.95997 0,1.11999 1.43999,3.83997 3.19998,6.07996 1.75999,2.23998 3.19998,4.71996 3.27998,5.51996 0,0.87999 -2.23999,-1.51999 -4.87997,-5.27996 -2.71998,-3.75998 -4.95996,-7.35995 -4.95996,-7.99994 0,-0.72 3.91997,-5.59996 8.63994,-10.79992 6.71995,-7.519948 10.47992,-10.239928 17.59986,-12.639908 5.03997,-1.67999 9.59993,-2.39998 10.39993,-1.59999 0.87999,0.79999 0.08,3.75997 -1.83999,6.87995 -1.75999,2.959978 -4.07997,8.879928 -5.03996,13.039898 -1.51999,6.07996 -1.43999,8.79994 0.4,13.11991 1.19999,3.03997 3.91997,14.87989 5.99995,26.3198 2.07999,11.51992 4.39997,20.87985 5.03996,20.87985 0.72,0 1.75999,-2.55998 2.31999,-5.67996 0.55999,-3.19998 1.83998,-6.23995 2.79998,-6.79995 1.03999,-0.72 1.27999,0.48 0.63999,3.27997 -3.11998,12.63991 -2.39998,12.39991 6.55995,-1.91998 5.27996,-8.31994 10.79992,-17.19987 12.31991,-19.59986 1.51999,-2.47998 5.03996,-8.47993 7.75994,-13.3599 3.83998,-6.71995 4.55997,-9.19993 2.95998,-10.23992 -1.11999,-0.72 -2.95998,-1.27999 -4.07997,-1.27999 -1.03999,0 -5.03996,1.19999 -8.71993,2.63998 -5.75996,2.31998 -6.95995,2.39998 -8.23994,0.4 -0.72,-1.2 -1.43999,-3.83998 -1.43999,-5.83996 0,-4.31997 -5.67996,-17.759868 -8.07994,-19.279858 -0.95999,-0.55999 -1.75999,-0.63999 -1.75999,-0.08 0,0.48 1.03999,2.55998 2.23998,4.55997 2.87998,4.479968 6.87995,20.399848 5.59996,21.759838 -0.55999,0.55999 -2.63998,0.08 -4.63996,-0.96 -2.07999,-1.11999 -6.55995,-1.59998 -10.15993,-1.11999 l -6.55995,0.88 0.88,-5.35996 c 0.47999,-2.95998 2.63998,-8.95994 4.71996,-13.27991 2.71998,-5.679948 4.87996,-8.079938 7.67994,-8.399928 5.75996,-0.8 16.15988,2.39998 23.51983,7.279938 3.51997,2.31999 8.47994,7.19995 10.95992,10.79992 l 4.55996,6.63995 -4.87996,8.23994 c -2.71998,4.55997 -6.15995,10.47993 -7.75994,13.19991 -1.51999,2.71997 -4.47997,7.83994 -6.55995,11.43991 -2.07999,3.59997 -4.95997,7.99994 -6.47996,9.83993 -1.43999,1.75998 -5.35996,7.75994 -8.71993,13.3599 l -5.99996,9.99992 -0.16,50.95962 c 0,27.9998 -0.31999,50.95963 -0.55999,50.95963 -0.24,0 -0.87999,-0.48 -1.51999,-1.12 z m -102.63924,-5.43996 c -3.19998,-1.03999 -3.35998,-1.27999 -0.8,-1.27999 1.83999,0 5.11997,0.56 7.35995,1.27999 3.27997,1.04 3.43997,1.35999 0.79999,1.35999 -1.75998,0 -5.11996,-0.63999 -7.35994,-1.35999 z m 49.43963,-6.55995 c 0,-2.23998 0.32,-3.11997 0.8,-1.99998 0.47999,1.11999 0.47999,2.95998 0,4.07997 -0.48,1.11999 -0.8,0.16 -0.8,-2.07999 z m -47.35965,-4.39996 c 1.59999,-0.4 4.15997,-0.4 5.67996,0 1.59999,0.39999 0.32,0.79999 -2.79998,0.79999 -3.19998,0 -4.47997,-0.4 -2.87998,-0.79999 z m 43.75968,-2.15999 c -1.43999,-0.95999 -1.67999,-1.59999 -0.48,-1.59999 1.11999,0 2.39998,0.72 2.95998,1.59999 0.56,0.95999 0.79999,1.67999 0.48,1.67999 -0.24,-0.08 -1.59999,-0.79999 -2.95998,-1.67999 z M 82.465009,261.8589 c -2.079985,-2.55998 -1.999985,-2.63998 0.559996,-0.63999 1.599988,1.27999 2.879978,2.55998 2.879978,2.87998 0,1.35999 -1.359989,0.47999 -3.439974,-2.23999 z m 59.119561,-3.67997 -7.35994,-1.11999 6.87995,-0.24 c 3.75997,-0.16 7.27994,0.48 7.83994,1.35999 0.55999,0.88 0.79999,1.51999 0.55999,1.35999 -0.31999,-0.08 -3.83997,-0.71999 -7.91994,-1.35999 z m -71.999466,-4.79996 c -0.959993,-1.83999 -1.039992,-3.59998 -0.239998,-4.07997 0.799994,-0.48 1.839986,0.95999 2.239983,3.19997 0.399997,2.23999 0.559996,4.07997 0.239998,4.07997 -0.319997,0 -1.27999,-1.43999 -2.239983,-3.19997 z m -3.279976,-10.71992 c 0,-0.96 0.719995,-2.79998 1.599988,-4.15997 0.879994,-1.35999 1.599989,-1.67999 1.599989,-0.8 0,0.88 -0.719995,2.71998 -1.599989,4.07997 -0.879993,1.35999 -1.599988,1.75999 -1.599988,0.88 z m 31.839761,-0.96 c -0.63999,-0.95999 -0.71999,-2.07998 -0.31999,-2.55998 0.47999,-0.39999 1.19999,0.4 1.75998,1.75999 1.119991,2.87998 0.16,3.43997 -1.43999,0.79999 z m -28.319787,-9.75992 c 0,-2.23999 0.319998,-3.11998 0.799994,-1.99999 0.479997,1.11999 0.479997,2.95998 0,4.07997 -0.479996,1.11999 -0.799994,0.24 -0.799994,-2.07998 z m 27.359797,-0.4 c 1.35999,-1.75999 4.159971,-2.71998 7.359951,-2.55998 l 5.11996,0.24 -4.87997,0.71999 c -2.71998,0.4 -6.079951,1.51999 -7.439941,2.55998 -2.07999,1.67999 -2.15998,1.59999 -0.16,-0.95999 z m 18.239871,0.4 c -1.83999,-1.27999 -1.12,-1.43999 2.39998,-0.64 2.71998,0.64 5.27996,1.43999 5.59996,1.75999 0.39999,0.32 -0.72,0.55999 -2.39999,0.55999 -1.75998,-0.08 -4.23996,-0.79999 -5.59995,-1.67998 z m 28.71978,-5.35996 c 0.64,-1.59999 1.51999,-2.55998 2.07999,-1.99999 0.47999,0.48 0,1.83999 -1.11999,2.87998 -1.59999,1.67999 -1.83999,1.43999 -0.96,-0.87999 z M 73.185077,211.85928 c -6.63995,-6.79995 -8.719935,-11.03992 -5.279961,-11.03992 0.879994,0 1.599989,1.27999 1.599989,2.79998 0,1.59998 2.799979,5.59995 6.079955,9.03993 3.359975,3.43997 5.759957,6.23995 5.279961,6.23995 -0.479997,0 -3.919971,-3.19997 -7.679944,-7.03994 z m 54.879593,1.99998 c 0.56,-2.23998 1.27999,-2.95998 1.75999,-1.75999 0.4,1.19999 -0.08,2.95998 -1.03999,3.83998 -1.19999,1.27999 -1.43999,0.63999 -0.72,-2.07999 z m 21.83984,0.79999 c 0.08,-1.91998 0.48,-2.31998 1.03999,-1.03999 0.48,1.19999 0.4,2.63998 -0.16,3.19998 -0.55999,0.47999 -0.95999,-0.48 -0.87999,-2.15999 z m -37.75972,-2.95997 c 0,-0.4 1.11999,-1.12 2.55998,-1.67999 1.43999,-0.48 2.07999,-0.24 1.51999,0.71999 -0.95999,1.51999 -4.07997,2.23999 -4.07997,0.96 z m 32.39976,-5.43996 c 1.19999,-0.48 2.63998,-0.4 3.19998,0.16 0.47999,0.55999 -0.48,0.95999 -2.15999,0.87999 -1.91998,-0.08 -2.31998,-0.48 -1.03999,-1.03999 z m -46.159661,-1.75999 c -0.4,-0.71999 0.64,-1.27999 2.239981,-1.27999 1.67999,0 2.71998,0.56 2.23999,1.27999 -0.4,0.71999 -1.43999,1.27999 -2.23999,1.27999 -0.719991,0 -1.759981,-0.56 -2.239981,-1.27999 z m 39.199711,-1.19999 c -1.75999,-1.35999 -2.39998,-2.47998 -1.43999,-2.47998 0.95999,0 2.71998,1.11999 3.83997,2.47998 1.12,1.35999 1.75999,2.47998 1.43999,2.39998 -0.39999,0 -2.07998,-1.11999 -3.83997,-2.39998 z m -45.999661,-3.11998 c -1.75999,-1.27999 -2.79998,-2.63998 -2.39998,-3.03998 0.48,-0.39999 2.23998,0.64 3.99997,2.31999 1.67999,1.67998 2.79998,3.03997 2.31998,3.03997 -0.39999,0 -2.15998,-1.03999 -3.91997,-2.31998 z m 15.199891,0.48 c 1.11999,-1.11999 2.39998,-1.59999 2.95998,-1.11999 0.47999,0.47999 -0.4,1.43999 -2.07999,1.99998 -2.31998,0.95999 -2.47998,0.72 -0.87999,-0.87999 z m 18.87986,0.71999 c 1.51999,-0.39999 4.15997,-0.39999 5.67996,0 1.59999,0.4 0.31999,0.72 -2.87998,0.72 -3.11998,0 -4.39997,-0.32 -2.79998,-0.72 z m -60.95955,-5.27996 c -0.959993,-1.75998 -1.119992,-3.43997 -0.479996,-3.67997 0.639995,-0.31999 2.319983,-3.83997 3.679972,-7.83994 1.35999,-3.99997 3.599974,-7.59994 4.879964,-7.99994 2.079985,-0.64 2.079985,-0.24 -0.159999,2.31998 -2.63998,3.11998 -4.719965,9.75993 -5.27996,16.63988 -0.159999,1.99998 -0.399997,3.67997 -0.639996,3.67997 -0.159998,0 -1.039992,-1.43999 -1.999985,-3.11998 z m 22.95983,-4.39996 c 0.08,-1.91999 0.479997,-2.31998 1.039993,-0.95999 0.479996,1.19999 0.399996,2.55997 -0.159999,3.11997 -0.559996,0.55999 -0.959993,-0.4 -0.879994,-2.15998 z m 32.23976,-5.03996 c 1.11999,-0.48 2.95998,-0.48 4.07997,0 1.11999,0.47999 0.24,0.79999 -1.99998,0.79999 -2.31999,0 -3.19998,-0.32 -2.07999,-0.79999 z m 11.35992,-0.56 c 1.91998,-0.79999 4.15997,-2.39998 4.87996,-3.67997 0.72,-1.27999 2.55998,-2.71998 4.07997,-3.27998 1.51999,-0.55999 3.11998,-2.71998 3.51998,-4.79996 0.63999,-3.35998 0.71999,-3.43998 0.87999,-0.4 0.16,2.15998 -2.07999,5.35996 -6.15996,8.63994 -3.59997,2.87997 -7.43994,5.11996 -8.63993,5.03996 -1.19999,0 -0.56,-0.72 1.43999,-1.51999 z m -5.99996,-14.39989 c -3.35997,-2.71998 -3.75997,-3.75998 -2.07998,-5.43996 1.67999,-1.67999 2.55998,-1.59999 4.63996,0.47999 1.43999,1.43999 2.39999,3.91997 2.07999,5.43996 -0.56,2.63998 -0.95999,2.55998 -4.63997,-0.47999 z m 3.19998,-1.83999 c 0,-1.91999 -3.11998,-3.99997 -4.31997,-2.87998 -1.19999,1.19999 0.87999,4.39997 2.79998,4.39997 0.87999,0 1.51999,-0.72 1.51999,-1.51999 z m -22.55983,0.56 c -1.12,-1.27999 -1.35999,-2.31999 -0.48,-2.31999 1.67999,0 4.15997,3.11998 3.19998,4.07997 -0.32,0.24 -1.51999,-0.55999 -2.71998,-1.75998 z M 77.745044,167.8596 c 0,-1.35999 1.999985,-3.43997 4.479967,-4.55996 3.759972,-1.67999 4.079969,-1.67999 2.079984,0.16 -1.35999,1.19999 -3.439974,3.27997 -4.559966,4.55996 -1.759987,1.99999 -1.999985,1.99999 -1.999985,-0.16 z m 59.759556,-6.07995 c -4.87996,-5.83996 -4.87996,-5.83996 -0.47999,-2.63998 2.47998,1.75999 4.87996,4.23997 5.35996,5.51996 0.47999,1.27999 0.71999,2.39998 0.47999,2.63998 -0.24,0.16 -2.63998,-2.31998 -5.35996,-5.51996 z m -30.63977,-6.23995 c 1.19999,-0.48 2.63998,-0.4 3.19997,0.08 0.56,0.55999 -0.47999,0.95999 -2.15998,0.87999 -1.91998,-0.08 -2.31998,-0.48 -1.03999,-0.95999 z m 21.35984,0 c 1.11999,-0.48 2.55998,-0.4 3.11998,0.08 0.55999,0.55999 -0.4,0.95999 -2.15999,0.87999 -1.91998,-0.08 -2.31998,-0.48 -0.95999,-0.95999 z m 95.2793,-0.32 c 0,-3.59998 3.67997,-17.35987 5.03996,-18.87986 0.71999,-0.8 0.24,3.19997 -1.11999,8.95993 -2.31998,9.99993 -3.91997,13.9999 -3.91997,9.91993 z m -92.55932,-5.11996 c 1.67999,-1.83999 3.35998,-3.27998 3.75997,-3.27998 0.48,0 -0.47999,1.43999 -2.07998,3.27998 -1.67999,1.75998 -3.35998,3.27997 -3.83997,3.27997 -0.4,0 0.55999,-1.51999 2.15998,-3.27997 z m -15.51988,-1.12 c 0,-0.71999 3.27997,-2.79997 7.35994,-4.55996 4.07997,-1.83999 7.35995,-3.83997 7.35995,-4.55997 0,-0.63999 1.11999,-1.19999 2.39998,-1.19999 2.39998,0 7.83994,-10.07992 9.91992,-18.47986 0.64,-2.47998 2.15999,-4.47997 3.43998,-4.47997 1.19999,0 2.23998,0.8 2.23998,1.75999 0,0.95999 -0.55999,1.35999 -1.27999,0.87999 -0.71999,-0.4 -2.95998,3.51998 -4.95996,8.79994 -2.07999,5.27996 -4.63997,10.31992 -5.67996,11.19991 -1.11999,0.88 -6.23995,3.91997 -11.43991,6.79995 -5.11997,2.79998 -9.35993,4.55997 -9.35993,3.83997 z m 24.71981,-7.91994 c 1.43999,-1.75998 3.43998,-4.71996 4.31997,-6.47995 1.59999,-2.87998 1.75999,-2.79998 1.51999,1.11999 -0.16,2.31999 -0.56,3.99997 -0.95999,3.59998 -0.4,-0.4 -2.23999,0.63999 -4.07997,2.15998 -3.35998,2.79998 -3.35998,2.79998 -0.8,-0.4 z m 6.71995,-16.31988 c 0,-2.71998 0.4,-3.67997 0.8,-2.07998 0.39999,1.59999 0.39999,3.83997 -0.08,4.95996 -0.48,1.11999 -0.8,-0.24 -0.72,-2.87998 z"
     style="fill:#00ffff;fill-opacity:1;fill-rule:nonzero;stroke:none"
     inkscape:connector-curvature="0" />
</svg>
