<?xml version="1.0" encoding="UTF-8" standalone="no"?>
<!-- Created with Inkscape (http://www.inkscape.org/) -->

<svg
   xmlns:dc="http://purl.org/dc/elements/1.1/"
   xmlns:cc="http://creativecommons.org/ns#"
   xmlns:rdf="http://www.w3.org/1999/02/22-rdf-syntax-ns#"
   xmlns:svg="http://www.w3.org/2000/svg"
   xmlns="http://www.w3.org/2000/svg"
   xmlns:sodipodi="http://sodipodi.sourceforge.net/DTD/sodipodi-0.dtd"
   xmlns:inkscape="http://www.inkscape.org/namespaces/inkscape"
   width="75mm"
   height="120mm"
   viewBox="0 0 75 120"
   version="1.1"
   id="svg8"
   inkscape:version="0.92.4 (5da689c313, 2019-01-14)"
   sodipodi:docname="dragon1.svg">
  <defs
     id="defs2" />
  <sodipodi:namedview
     id="base"
     pagecolor="#ffffff"
     bordercolor="#666666"
     borderopacity="1.0"
     inkscape:pageopacity="0.0"
     inkscape:pageshadow="2"
     inkscape:zoom="0.70000001"
     inkscape:cx="-6.4682645"
     inkscape:cy="172.48273"
     inkscape:document-units="mm"
     inkscape:current-layer="layer1"
     showgrid="false"
     units="mm"
     inkscape:window-width="1280"
     inkscape:window-height="972"
     inkscape:window-x="-8"
     inkscape:window-y="-8"
     inkscape:window-maximized="1" />
  <metadata
     id="metadata5">
    <rdf:RDF>
      <cc:Work
         rdf:about="">
        <dc:format>image/svg+xml</dc:format>
        <dc:type
           rdf:resource="http://purl.org/dc/dcmitype/StillImage" />
        <dc:title></dc:title>
      </cc:Work>
    </rdf:RDF>
  </metadata>
  <g
     inkscape:label="Calque 1"
     inkscape:groupmode="layer"
     id="layer1"
     transform="translate(0,-176.99999)">
    <g
       transform="translate(52.577887,292.15391)"
       id="g4857">
      <path
         style="fill:#ffe680;stroke-width:0.26458335"
         d="m -18.640332,-37.39643 c -0.218281,-0.0823 -0.789559,-0.54918 -1.269507,-1.03744 -0.479947,-0.48827 -1.019035,-0.88775 -1.19797,-0.88775 -0.178935,0 -0.522013,-0.20836 -0.762394,-0.46303 -0.983084,-1.04148 -2.957529,-2.25721 -3.227475,-1.98726 -0.08692,0.0869 -0.425745,0.0332 -0.752948,-0.11938 -0.327203,-0.15257 -1.130695,-0.49185 -1.785539,-0.75394 -0.654844,-0.2621 -1.568692,-0.75189 -2.030775,-1.08842 -0.725943,-0.52869 -0.82775,-0.74529 -0.74893,-1.59337 0.07266,-0.78178 0.341143,-1.19935 1.319451,-2.05211 0.675527,-0.58884 1.255889,-1.26697 1.289694,-1.50695 0.0788,-0.55942 0.677236,-1.28299 1.062853,-1.28509 0.164083,-8e-4 0.642527,-0.18113 1.063211,-0.40052 0.850733,-0.44367 1.478203,-0.31432 4.071001,0.83925 0.767961,0.34168 1.457391,0.62123 1.532067,0.62123 0.225168,0 1.779354,1.12902 2.664206,1.93538 0.510611,0.46532 0.896681,0.64867 1.003146,0.4764 0.09519,-0.15403 0.682818,-0.50553 1.305835,-0.78112 1.086282,-0.48051 3.078658,-2.54032 3.078658,-3.18285 0,-0.39989 0.484449,-1.25597 1.389062,-2.45463 0.400183,-0.53027 0.727604,-1.05402 0.727604,-1.1639 0,-0.10988 0.416719,-0.60449 0.926042,-1.09914 1.157063,-1.12373 1.185045,-1.76074 0.09714,-2.21137 -1.08417,-0.44908 -2.346097,-1.52125 -2.346097,-1.99333 0,-0.20534 -0.119063,-0.37336 -0.264584,-0.37336 -0.895982,0 0.313399,-3.37722 1.484062,-4.14427 0.374475,-0.24537 0.788783,-0.6932 0.920686,-0.99519 0.131903,-0.30199 0.352078,-0.72767 0.489278,-0.94595 0.137202,-0.21828 0.31382,-0.70626 0.392486,-1.08439 0.100885,-0.48494 0.661847,-1.02304 1.903777,-1.82622 l 1.760747,-1.1387 2.014588,0.30661 c 1.108022,0.16864 3.198809,0.30582 4.646197,0.30486 2.409396,-0.002 2.716408,-0.0605 3.635838,-0.69768 0.552325,-0.38276 1.165137,-1.00783 1.361805,-1.38906 0.19667,-0.38122 0.733433,-1.42223 1.192808,-2.31336 0.909288,-1.7639 0.997918,-2.39021 0.523793,-3.70138 -0.364977,-1.00932 -0.07178,-1.5363 1.005157,-1.8066 0.369607,-0.0928 1.129117,-0.47116 1.687796,-0.84087 0.904835,-0.59879 0.991631,-0.74937 0.79467,-1.37865 -0.374184,-1.19551 -0.507981,-2.67341 -0.256119,-2.82907 0.131665,-0.0814 0.594162,0.0355 1.027771,0.25974 0.843643,0.43626 1.872994,0.54393 1.872994,0.19592 0,-0.5186 2.866874,-3.35552 4.332874,-4.28761 1.884733,-1.19832 2.257216,-1.00125 1.559748,0.8252 -0.49666,1.3006 -1.015788,2.1406 -2.651477,4.29036 -0.618463,0.81284 -1.124479,1.62412 -1.124479,1.80286 0,0.17874 0.253188,0.59448 0.562639,0.92388 0.823601,0.87668 0.486614,1.41872 -0.885065,1.42363 -0.623031,0.002 -1.311376,0.12371 -1.529657,0.26995 -0.339775,0.22765 -0.310716,0.33827 0.201978,0.76883 0.329369,0.27661 0.746088,0.57185 0.926041,0.65609 0.258789,0.12114 0.258048,0.18542 -0.0035,0.3075 -0.181901,0.0849 -0.330729,0.30077 -0.330729,0.47975 0,0.17897 -0.601837,0.84009 -1.337416,1.46914 -0.868283,0.74254 -1.284177,1.28247 -1.18564,1.53926 0.08348,0.21754 -0.148122,0.78872 -0.514665,1.26928 -0.366541,0.48057 -0.666441,0.98949 -0.666441,1.13096 0,0.14146 0.416719,0.75598 0.926042,1.3656 1.04535,1.2512 1.17411,1.85208 0.396875,1.85208 -0.291042,0 -0.529167,0.10418 -0.529167,0.23152 0,0.12733 -0.34685,0.30088 -0.770776,0.38566 -0.423926,0.0848 -1.532149,0.62017 -2.462715,1.18974 -2.169374,1.3278 -2.216544,1.34063 -5.503032,1.49719 -2.414556,0.11502 -2.979118,0.23623 -4.369141,0.93801 -0.877959,0.44325 -1.946021,1.08478 -2.373466,1.42561 -0.671883,0.53574 -0.729036,0.67771 -0.421836,1.04786 0.19544,0.23549 0.498827,0.42816 0.674196,0.42816 0.175368,0 1.396103,0.46724 2.712746,1.03829 1.316641,0.57106 3.013607,1.22233 3.771032,1.44726 1.882037,0.5589 3.715909,1.50531 3.715909,1.91767 0,0.44757 -0.849,0.88845 -1.710896,0.88845 -1.135251,0 -2.303074,0.64979 -3.977646,2.21321 -0.873125,0.81517 -1.795859,1.55167 -2.05052,1.63666 -0.254662,0.085 -0.463024,0.29535 -0.463029,0.46744 -6e-6,0.17209 -0.429019,0.65521 -0.953365,1.07359 -0.524346,0.41837 -1.121252,1.16251 -1.32646,1.65364 -0.205205,0.49113 -0.486831,0.89296 -0.625832,0.89296 -0.138999,0 -0.181869,0.18465 -0.09527,0.41034 0.09002,0.23459 -0.09378,0.67777 -0.429125,1.03473 -0.850545,0.90536 -0.62362,1.57914 0.565288,1.6784 1.306345,0.10908 1.527058,0.75144 0.368138,1.07143 -0.897697,0.24787 -3.319293,0.10649 -3.330088,-0.19441 -0.0032,-0.0902 -0.249563,-0.46169 -0.547396,-0.82549 l -0.541515,-0.66146 0.167031,1.25874 c 0.190455,1.43528 -0.227944,1.8399 -1.30597,1.26295 -0.804076,-0.43032 -1.490567,-0.0739 -3.057932,1.58761 -0.754277,0.79959 -1.557142,1.36172 -2.190708,1.53384 -0.550045,0.14943 -1.592117,0.69703 -2.315715,1.21688 -1.247201,0.89603 -2.003692,1.09251 -2.901911,0.75372 z"
         id="path2182"
         inkscape:connector-curvature="0"
         sodipodi:nodetypes="ccscccccccccccscccscsscsscscccccccccccccccssscsccccccscccscssccccccsccsssccccsccccccccccsccc" />
      <path
         style="fill:#ffff00;fill-opacity:1;stroke-width:0.26458335"
         d="m -45.153538,-28.04425 c -2.171586,-0.83099 -3.013215,-1.55567 -3.940804,-3.39322 -2.06522,-4.09118 -0.425809,-8.83272 3.707669,-10.72342 1.411497,-0.64563 1.562405,-0.66171 3.461609,-0.3688 2.278862,0.35145 4.522186,1.34455 5.128901,2.27051 0.829123,1.2654 1.486816,3.46038 1.486948,4.96253 2.56e-4,2.90183 -1.670854,6.05027 -3.783349,7.12799 -1.580758,0.80644 -4.141293,0.859 -6.060974,0.12441 z m 25.521019,-11.3726 c -0.327422,-0.16216 -0.595313,-0.4452 -0.595313,-0.62897 0,-0.18378 -0.178593,-0.33414 -0.396875,-0.33414 -0.218281,0 -0.411757,-0.11906 -0.429947,-0.26458 -0.01818,-0.14552 -0.06284,-0.38365 -0.09922,-0.52917 -0.03638,-0.14552 -0.08285,-0.35388 -0.10327,-0.46302 -0.02043,-0.10914 -0.14356,-0.0303 -0.273645,0.1752 -0.19993,0.31584 -0.304559,0.3056 -0.676307,-0.0661 -0.320561,-0.32057 -0.345003,-0.44142 -0.09016,-0.44581 0.192297,-0.003 -0.0603,-0.20791 -0.561329,-0.45465 -0.874374,-0.43062 -0.885788,-0.45457 -0.2842,-0.59659 0.344718,-0.0814 0.677006,-0.2987 0.738416,-0.48293 0.07997,-0.23991 -0.08341,-0.28601 -0.575697,-0.16246 -0.843624,0.21174 -0.90919,-0.0773 -0.09204,-0.40577 0.576593,-0.23176 0.572431,-0.24085 -0.132292,-0.28913 -0.400182,-0.0274 -1.078839,-0.0647 -1.508125,-0.0829 -0.880718,-0.0373 -1.46081,-0.49786 -1.465367,-1.16338 -0.0039,-0.57332 -0.754502,-0.72629 -1.230089,-0.25071 -0.200863,0.20087 -0.512971,0.31595 -0.693573,0.25575 -0.180602,-0.0602 -0.328367,0.01 -0.328367,0.15513 0,0.14552 0.148828,0.31434 0.330729,0.37514 0.181901,0.0608 0.01418,0.1712 -0.37272,0.24533 -0.560507,0.10738 -0.673129,0.0491 -0.554239,-0.28695 0.08207,-0.23194 0.264367,-0.57054 0.405116,-0.75244 0.140749,-0.1819 0.181455,-0.33073 0.09046,-0.33073 -0.403231,0 1.901057,-1.80278 2.614199,-2.04524 0.436562,-0.14842 0.763984,-0.40381 0.727604,-0.56752 -0.03638,-0.16371 0.224483,-0.29766 0.579697,-0.29766 0.355213,0 0.719428,-0.11906 0.809365,-0.26458 0.293712,-0.47524 -2.398749,-0.41905 -2.982956,0.0623 -0.185418,0.15276 -0.404107,0.21075 -0.485977,0.12888 -0.08187,-0.0819 0.18428,-0.36672 0.591443,-0.63301 1.231576,-0.80547 3.083506,-0.5944 5.678028,0.64713 2.340703,1.12007 4.378381,2.55271 3.218733,2.263 -0.327422,-0.0818 -0.595312,-0.23405 -0.595312,-0.33835 0,-0.10429 -0.178594,-0.18962 -0.396875,-0.18962 -0.481219,0 -0.485029,0.0413 -0.06615,0.71721 0.2726,0.43986 0.260974,0.57803 -0.06615,0.78611 -0.523298,0.33288 -0.102071,0.33381 0.519515,10e-4 0.382733,-0.20483 0.570296,-0.12882 0.891386,0.36122 0.3033,0.4629 0.330348,0.69695 0.106421,0.92088 -0.22393,0.22393 -0.15466,0.30024 0.272537,0.30024 0.605745,0 1.232789,-0.83343 0.912812,-1.21326 -0.104021,-0.12348 0.04152,-0.0498 0.32343,0.16365 0.463253,0.35081 0.495866,0.34361 0.339034,-0.0749 -0.18827,-0.50236 0.442889,-0.67255 0.735907,-0.19844 0.08994,0.14552 0.424386,0.25652 0.74322,0.24668 l 0.579696,-0.0179 -0.595312,-0.2871 c -0.327422,-0.15782 -0.595313,-0.44742 -0.595313,-0.64346 0,-0.19605 -0.126089,-0.35645 -0.280199,-0.35645 -0.154109,0 -0.214855,0.10573 -0.13499,0.23495 0.151143,0.24456 -1.420672,0.58288 -1.766327,0.38019 -0.108429,-0.0636 0.486884,-0.47368 1.322917,-0.91134 1.875012,-0.98155 3.402719,-2.43036 3.785407,-3.58992 0.159078,-0.48201 0.406085,-0.87638 0.54891,-0.87638 0.142822,0 0.181142,-0.12707 0.08515,-0.28239 -0.0961,-0.1555 0.07522,-0.3477 0.381259,-0.42773 0.305684,-0.0799 0.555789,-0.24824 0.555789,-0.37401 0,-0.12576 0.535781,-0.15522 1.190625,-0.0655 0.808117,0.11077 1.190625,0.0666 1.190625,-0.13735 0,-0.1653 -0.267891,-0.30861 -0.595312,-0.31846 -0.582557,-0.0175 -0.581139,-0.0244 0.06614,-0.32315 0.363802,-0.16789 0.756672,-0.45749 0.873043,-0.64355 0.311764,-0.49848 0.996863,-0.42803 0.801003,0.0824 -0.138486,0.36089 0.02764,0.40028 1.168955,0.27715 0.731711,-0.0789 1.641528,-0.22162 2.021816,-0.31707 0.522685,-0.13118 0.691433,-0.0735 0.691433,0.2364 0,0.54487 0.537017,0.85658 0.784858,0.45557 0.145605,-0.2356 0.423487,-0.17997 1.072435,0.21468 l 0.875906,0.53267 -0.717463,0.18007 c -0.394604,0.099 -0.791292,0.10624 -0.88153,0.016 -0.09024,-0.0902 0.123669,-0.17213 0.475342,-0.18198 0.62865,-0.0176 0.629925,-0.0225 0.07567,-0.29092 -0.433041,-0.20973 -0.854908,-0.14423 -1.819571,0.28249 -1.261893,0.55819 -2.173023,0.75197 -1.484064,0.31563 0.268454,-0.17002 0.140052,-0.28139 -0.481941,-0.418 -1.031462,-0.22655 -1.137547,-0.14795 -0.667652,0.49467 0.303792,0.41546 0.714367,0.49742 2.491909,0.49742 1.170501,0 2.128187,0.1034 2.128187,0.22977 0,0.21697 -1.165699,0.34707 -2.182813,0.24361 -0.254661,-0.0259 -0.463021,0.0735 -0.463021,0.22096 0,0.14744 0.20836,0.38943 0.463021,0.53775 0.405596,0.23624 0.382627,0.27069 -0.185208,0.27774 -0.50418,0.006 -0.577673,0.0786 -0.330729,0.32554 0.174625,0.17463 0.31388,0.50205 0.309454,0.72761 -0.0066,0.33759 -0.05573,0.32823 -0.277731,-0.0529 -0.148325,-0.25466 -0.472128,-0.46485 -0.719558,-0.46707 -0.273436,-0.002 -0.338537,-0.0803 -0.165992,-0.19844 0.621176,-0.42534 0.594355,-1.00897 -0.04881,-1.0622 -0.34757,-0.0288 -0.631947,0.0735 -0.631947,0.22715 0,0.16453 -0.231232,0.20606 -0.5623,0.10098 -0.345485,-0.10965 -0.499663,-0.0771 -0.399852,0.0844 0.08935,0.14457 -0.07433,0.32477 -0.363741,0.40045 -0.356674,0.0933 -0.52619,0.007 -0.52619,-0.26912 0,-0.32194 -0.206819,-0.37349 -0.992187,-0.24731 -0.600856,0.0965 -0.847646,0.0692 -0.625714,-0.0692 0.620409,-0.38708 -0.536612,-0.83422 -1.450845,-0.5607 l -0.767712,0.22969 0.727604,0.0228 c 0.543634,0.017 0.727604,0.15654 0.727604,0.55191 0,0.59309 0.312441,0.66377 1.091388,0.24689 0.443235,-0.23721 0.514374,-0.20553 0.445627,0.19844 -0.07054,0.41451 0.08209,0.46992 1.108379,0.40237 1.536076,-0.1011 2.293496,0.0975 2.293496,0.60148 0,0.27938 -0.290679,0.41358 -0.948092,0.43773 l -0.94809,0.0348 0.926042,0.19492 0.926042,0.19493 -1.109287,0.0348 c -0.975032,0.0306 -1.096388,0.10181 -1.002705,0.58826 0.0815,0.42323 0.0051,0.5145 -0.324768,0.38792 -0.237244,-0.091 -0.528344,-0.0127 -0.64689,0.17416 -0.322567,0.50837 -0.268896,0.73657 0.173233,0.73657 1.038368,0 0.08449,1.57407 -0.973288,1.6061 -0.584475,0.0177 -0.588592,0.0307 -0.08504,0.26864 0.430173,0.20328 0.388905,0.22257 -0.220607,0.1031 -0.483391,-0.0948 -0.689348,-0.0492 -0.579697,0.12822 0.0992,0.16051 -0.08453,0.2735 -0.440851,0.27114 -0.336011,-0.002 -0.491866,-0.0915 -0.346345,-0.19844 0.2965,-0.21784 0.479652,-0.85584 0.245684,-0.85584 -0.292015,0 -0.880131,0.73256 -0.718153,0.89454 0.09008,0.0901 -0.123947,0.16757 -0.475621,0.1722 -0.351676,0.005 -0.864216,0.17861 -1.138981,0.38663 -0.359428,0.27211 -0.637762,0.30425 -0.992187,0.11456 -0.381,-0.2039 -0.492617,-0.1716 -0.492617,0.14255 0,0.34971 0.790162,0.56346 1.637411,0.44292 0.189055,-0.0269 0.05856,1.00132 -0.154062,1.21394 -0.06641,0.0664 -0.338034,-0.006 -0.60361,-0.16005 -0.265575,-0.15443 -0.334036,-0.28441 -0.152135,-0.28883 0.181901,-0.004 0.330729,-0.1033 0.330729,-0.21971 0,-0.11642 -0.409027,-0.21167 -0.908952,-0.21167 -0.499925,0 -0.860714,0.078 -0.801756,0.17344 0.05896,0.0954 -0.18686,0.11724 -0.546257,0.0485 -0.525899,-0.10054 -0.653452,-0.0172 -0.653452,0.42679 0,0.38354 0.121883,0.50493 0.399876,0.39826 0.288303,-0.11063 0.353385,-0.0323 0.233251,0.28077 -0.112977,0.29441 -0.348218,0.3835 -0.730604,0.27671 -0.441638,-0.12334 -0.478364,-0.0987 -0.169305,0.1134 0.217073,0.149 0.663557,0.20342 0.992188,0.12094 0.380516,-0.0955 0.597511,-0.0304 0.597511,0.17926 0,0.23799 -0.329972,0.284 -1.190625,0.16604 -1.227002,-0.16818 -1.491086,0.0417 -0.787355,0.62574 0.487191,0.40433 0.364495,0.59881 -0.233108,0.36949 -0.23911,-0.0918 -0.434745,-0.33268 -0.434745,-0.5354 0,-0.20271 -0.192479,-0.36856 -0.427734,-0.36856 -0.312396,0 -0.38659,0.16052 -0.27515,0.59531 0.147285,0.57465 0.134784,0.57235 -0.360135,-0.0661 -0.281993,-0.3638 -0.515361,-0.56366 -0.518597,-0.44412 -0.0032,0.11953 -0.187923,0.0353 -0.410416,-0.18719 -0.222494,-0.2225 -0.584814,-0.33536 -0.805162,-0.2508 -0.477631,0.18328 -0.255587,0.47711 0.364144,0.48186 0.242011,0.002 0.480462,0.21174 0.529894,0.4664 0.100163,0.51604 -0.0699,0.53469 -0.941115,0.10321 z m 3.241146,-1.49227 c -0.08994,-0.14553 -0.275558,-0.26459 -0.412491,-0.26459 -0.136932,0 -0.248968,0.11906 -0.248968,0.26459 0,0.14552 0.185622,0.26458 0.412491,0.26458 0.22687,0 0.338905,-0.11906 0.248968,-0.26458 z m -1.791449,-0.15986 c -0.08792,-0.0879 -0.316124,-0.0973 -0.507119,-0.0209 -0.211066,0.0845 -0.148373,0.14715 0.159853,0.15985 0.278914,0.0115 0.435184,-0.051 0.347266,-0.13897 z m -0.385601,-1.11198 c -0.582811,-0.0854 -0.581298,-0.0936 0.132292,-0.72183 0.397012,-0.34949 0.573013,-0.63921 0.391112,-0.64381 -0.181901,-0.005 -0.330729,-0.24275 -0.330729,-0.52922 0,-0.36654 -0.124159,-0.47322 -0.419061,-0.36005 -0.269933,0.10358 -0.317015,0.22387 -0.13231,0.33802 0.19685,0.12166 0.164971,0.33823 -0.101692,0.69079 -0.300469,0.39725 -0.394145,0.42368 -0.413626,0.11669 -0.01386,-0.21829 -0.148352,-0.0992 -0.298889,0.26458 l -0.273701,0.66146 -0.236456,-0.61231 c -0.133252,-0.34506 -0.362974,-0.53412 -0.52633,-0.43316 -0.20874,0.12901 -0.209367,0.25966 -0.0021,0.46679 0.158078,0.1582 0.287515,0.50195 0.287515,0.76389 0,0.26193 0.178594,0.47625 0.396875,0.47625 0.218281,0 0.396875,0.10993 0.396875,0.2443 0,0.13437 0.386953,0.0462 0.859896,-0.19586 0.7844,-0.40152 0.808135,-0.44775 0.270346,-0.52653 z m 1.647883,-0.31566 c 0.08994,-0.14553 0.03743,-0.26459 -0.116676,-0.26459 -0.154109,0 -0.280199,0.11906 -0.280199,0.26459 0,0.14552 0.0525,0.26458 0.116676,0.26458 0.06417,0 0.190262,-0.11906 0.280199,-0.26458 z m 1.615062,-0.7221 c -0.268955,-0.26895 -0.490868,0.13597 -0.270198,0.49302 0.166695,0.26972 0.229018,0.26993 0.318638,0.001 0.06128,-0.18383 0.03948,-0.40617 -0.04844,-0.49409 z m -1.615062,-0.33624 c 0.08994,-0.14552 0.04446,-0.26458 -0.101063,-0.26458 -0.145521,0 -0.338166,0.11906 -0.428104,0.26458 -0.08994,0.14552 -0.04446,0.26459 0.101063,0.26459 0.145521,0 0.338167,-0.11907 0.428104,-0.26459 z m 3.571875,-0.91042 c 0,-0.0642 -0.119062,-0.19027 -0.264583,-0.2802 -0.145521,-0.0899 -0.264584,-0.0374 -0.264584,0.11667 0,0.15411 0.119063,0.2802 0.264584,0.2802 0.145521,0 0.264583,-0.0525 0.264583,-0.11667 z m -8.598958,-0.41249 c 0.51018,-0.21924 0.508365,-0.22806 -0.05053,-0.24599 -0.318834,-0.0102 -0.653283,0.10046 -0.74322,0.24599 -0.193411,0.31294 0.06549,0.31294 0.79375,0 z m 13.610288,-0.1641 c 0.76799,-0.38312 0.81666,-0.47131 0.458041,-0.82993 -0.25265,-0.25265 -0.580334,-0.32834 -0.884793,-0.20438 -0.460131,0.18734 -0.458607,0.20615 0.03146,0.3886 0.490392,0.18258 0.48723,0.199 -0.06615,0.34371 -0.31963,0.0836 -0.581144,0.28218 -0.581144,0.44133 0,0.37224 0.02339,0.36912 1.04258,-0.13933 z m -11.633576,-0.8839 c 0.214067,-0.13538 0.287063,-0.34192 0.162214,-0.45897 -0.124846,-0.11706 -0.278162,-0.07 -0.340696,0.10465 -0.0799,0.22311 -0.305078,0.24472 -0.757529,0.0727 -0.377999,-0.14371 -0.643826,-0.14625 -0.643826,-0.006 0,0.19987 0.339188,0.36245 1.058333,0.50727 0.07276,0.0147 0.307438,-0.0841 0.521504,-0.2195 z m 9.003496,0.018 c 0,-0.12995 -0.18833,-0.30855 -0.418515,-0.39688 -0.647245,-0.24837 -0.732764,-0.19452 -0.375235,0.23628 0.365032,0.43984 0.79375,0.52658 0.79375,0.1606 z m -9.876711,-1.52658 c -0.07824,-0.0782 -0.281945,-0.0559 -0.452683,0.0496 -0.230172,0.14226 -0.217623,0.24952 0.04854,0.41489 0.352806,0.2192 0.694785,-0.17385 0.40414,-0.4645 z m 8.125656,-0.13984 c -0.06747,-0.10917 0.19117,-0.27726 0.574749,-0.37353 0.514139,-0.12904 0.603899,-0.23431 0.341551,-0.40058 -0.267033,-0.16924 -0.223774,-0.23176 0.173297,-0.25048 0.3033,-0.0143 0.383286,-0.0835 0.187394,-0.16207 -0.279308,-0.11207 -0.279308,-0.21283 0,-0.55131 0.285112,-0.34551 0.275978,-0.39323 -0.0551,-0.28788 -0.218281,0.0695 -0.514405,0.38648 -0.658053,0.70449 -0.143647,0.318 -0.398798,0.57819 -0.567004,0.57819 -0.168207,0 -0.374359,0.1786 -0.458124,0.39688 -0.08376,0.21828 -0.321887,0.39687 -0.529167,0.39687 -0.207277,0 -0.437144,0.15708 -0.510815,0.34906 -0.106918,0.27862 0.04341,0.29354 0.745001,0.0739 0.483417,-0.1513 0.823743,-0.36442 0.756274,-0.47358 z m -6.451028,-0.34872 c 0,-0.0429 -0.357188,-0.20261 -0.79375,-0.3548 -0.481928,-0.168 -0.79375,-0.17817 -0.79375,-0.0259 0,0.13795 0.178594,0.25082 0.396875,0.25082 0.218281,0 0.396875,0.11533 0.396875,0.25628 0,0.14095 0.178594,0.18775 0.396875,0.10399 0.218281,-0.0838 0.396875,-0.18745 0.396875,-0.2304 z m 9.128125,-0.12986 c -0.08994,-0.14553 -0.282583,-0.26459 -0.428104,-0.26459 -0.145521,0 -0.191,0.11906 -0.101063,0.26459 0.08994,0.14552 0.282583,0.26458 0.428104,0.26458 0.145521,0 0.191,-0.11906 0.101063,-0.26458 z m -12.386969,-0.84336 c -0.08446,-0.21107 -0.147156,-0.14838 -0.159851,0.15985 -0.01148,0.27891 0.05104,0.43518 0.138965,0.34726 0.08792,-0.0879 0.09732,-0.31612 0.02088,-0.50711 z m 13.180719,0.31419 c 0.09502,-0.15374 -0.147841,-0.25679 -0.579697,-0.24599 -0.653738,0.0163 -0.679511,0.046 -0.214053,0.24599 0.291041,0.12506 0.551905,0.23576 0.579697,0.24598 0.02779,0.0102 0.124116,-0.10046 0.214053,-0.24598 z m 2.513541,-0.13229 c -0.181157,-0.21828 -0.463626,-0.39309 -0.627708,-0.38846 -0.164084,0.005 -0.06722,0.18322 0.215257,0.39687 0.659784,0.49904 0.830702,0.49555 0.412451,-0.008 z m -1.286708,-0.0529 c -0.304501,-0.12109 -0.304501,-0.17902 0,-0.37194 0.287374,-0.18206 0.272328,-0.22932 -0.07405,-0.23255 -0.239094,-0.002 -0.503246,0.17454 -0.58701,0.39282 -0.108286,0.28219 0.01733,0.39084 0.434713,0.37599 0.341709,-0.0122 0.436295,-0.0808 0.226343,-0.16432 z m -1.888292,-1.72886 c 0,-0.22619 -0.957887,-0.12666 -1.210302,0.12576 -0.09108,0.0911 -0.08863,0.29015 0.0055,0.44237 0.181742,0.29406 1.204854,-0.18837 1.204854,-0.56813 z m 3.091157,-1.04596 c -0.08446,-0.21106 -0.147156,-0.14837 -0.159851,0.15986 -0.01148,0.27891 0.05104,0.43518 0.138964,0.34726 0.08792,-0.0879 0.09732,-0.31612 0.02088,-0.50712 z m 0.08384,-0.62454 c 0,-0.31257 -0.500258,-0.31198 -0.62026,8e-4 -0.09775,0.25473 -0.01889,0.33289 0.236861,0.23475 0.21087,-0.081 0.383399,-0.18694 0.383399,-0.23555 z m 2.943249,-1.24849 c -0.261308,-0.25936 -0.291698,-0.22897 -0.148114,0.14812 0.09936,0.26093 0.247304,0.40778 0.328766,0.32631 0.08146,-0.0815 1.7e-4,-0.29495 -0.180652,-0.47443 z m -21.33179,10.38931 c -0.08994,-0.14552 -0.03743,-0.26458 0.116676,-0.26458 0.154109,0 0.280199,0.11906 0.280199,0.26458 0,0.14552 -0.0525,0.26458 -0.116676,0.26458 -0.06417,0 -0.190262,-0.11906 -0.280199,-0.26458 z m -1.807986,-0.70556 c -0.09701,-0.097 -0.176389,-0.29942 -0.176389,-0.44979 0,-0.16579 0.123235,-0.15017 0.31309,0.0397 0.1722,0.1722 0.251575,0.37461 0.176389,0.44979 -0.07519,0.0752 -0.216076,0.0573 -0.31309,-0.0397 z m 20.990277,-1.24796 c 0,-0.0558 0.238125,-0.1637 0.529167,-0.23981 0.291042,-0.0761 0.529167,-0.0305 0.529167,0.10143 0,0.1319 -0.238125,0.23982 -0.529167,0.23982 -0.291042,0 -0.529167,-0.0456 -0.529167,-0.10144 z m 0.926042,-1.45848 c -0.65854,-0.14469 -0.711192,-0.20696 -0.309089,-0.36558 0.74553,-0.29407 1.163841,-0.22941 1.330812,0.2057 0.08376,0.21828 0.06673,0.38279 -0.03784,0.36558 -0.104574,-0.0172 -0.547322,-0.10979 -0.983885,-0.2057 z m -0.529167,-1.08592 c -0.08994,-0.14552 -0.03743,-0.26458 0.116676,-0.26458 0.15411,0 0.280199,0.11906 0.280199,0.26458 0,0.14552 -0.0525,0.26459 -0.116676,0.26459 -0.06417,0 -0.190261,-0.11907 -0.280199,-0.26459 z m 2.199349,-0.7099 c 0.190995,-0.0764 0.419198,-0.067 0.507119,0.0209 0.08792,0.0879 -0.06835,0.15045 -0.347265,0.13897 -0.308227,-0.0127 -0.37092,-0.0754 -0.159854,-0.15985 z m -7.064057,-5.01489 c 0.324903,-0.39148 1.416076,-0.5095 1.180065,-0.12763 -0.0792,0.12814 -0.444452,0.29042 -0.811678,0.36062 -0.540631,0.10335 -0.61073,0.059 -0.368387,-0.23299 z m 10.950125,-0.88979 c 0.08994,-0.14552 0.216027,-0.26458 0.280199,-0.26458 0.06417,0 0.116676,0.11906 0.116676,0.26458 0,0.14552 -0.12609,0.26458 -0.280199,0.26458 -0.154109,0 -0.206613,-0.11906 -0.116676,-0.26458 z m -1.455208,-0.26458 c 0,-0.14553 -0.267891,-0.27399 -0.595313,-0.28548 -0.327422,-0.0115 -0.446484,-0.0809 -0.264583,-0.15434 0.490103,-0.19776 0.400825,-0.6179 -0.132292,-0.62257 -0.370057,-0.003 -0.388996,-0.0509 -0.09433,-0.23751 0.306158,-0.19387 1.470607,-0.16827 2.795119,0.0614 0.151676,0.0263 0.24601,-0.101 0.20963,-0.2829 -0.07524,-0.37622 0.105897,-0.39015 0.859896,-0.0661 0.51018,0.21924 0.508365,0.22806 -0.05053,0.24599 -0.318834,0.0102 -0.653283,0.13766 -0.74322,0.28318 -0.08994,0.14552 -0.468038,0.26459 -0.840224,0.26459 -0.546439,0 -0.650066,0.10186 -0.538322,0.52916 0.08994,0.34392 0.0081,0.52917 -0.233725,0.52917 -0.204657,0 -0.372104,-0.11906 -0.372104,-0.26458 z M -9.35787,-54.7364 c 0.06063,-0.0379 0.378134,-0.29451 0.705556,-0.57018 0.327422,-0.27566 0.595313,-0.43172 0.595313,-0.34681 0,0.26666 -0.81806,0.98595 -1.121331,0.98595 -0.15938,0 -0.24017,-0.031 -0.179538,-0.069 z m 5.534202,-0.4602 c 0,-0.14553 -0.0021,-0.34357 -0.0046,-0.44011 -0.0026,-0.0965 0.295122,-0.20747 0.661459,-0.24653 0.506346,-0.054 0.666067,0.0516 0.666067,0.4401 0,0.3688 -0.184176,0.51112 -0.661458,0.51112 -0.363802,0 -0.661459,-0.11906 -0.661459,-0.26458 z m -2.38125,-0.52917 c 0,-0.14552 0.119063,-0.26459 0.264583,-0.26459 0.145521,0 0.264584,0.11907 0.264584,0.26459 0,0.14552 -0.119063,0.26458 -0.264584,0.26458 -0.14552,0 -0.264583,-0.11906 -0.264583,-0.26458 z m 12.170833,-0.36857 c 0,-0.0572 0.184777,-0.17489 0.410618,-0.26155 0.235458,-0.0904 0.341662,-0.046 0.248967,0.10398 -0.155379,0.25141 -0.659585,0.37186 -0.659585,0.15757 z m -12.96458,-0.32835 c 0,-0.0724 0.123251,-0.36194 0.273891,-0.64341 0.319136,-0.59631 -0.07047,-0.7072 -0.577532,-0.16439 -0.266356,0.28513 -0.410464,0.26143 -0.804183,-0.13229 -0.607443,-0.60745 -0.614714,-1.19934 -0.01667,-1.35563 0.391162,-0.10222 0.380896,-0.12639 -0.06615,-0.15574 -0.441153,-0.029 -0.463159,-0.0774 -0.132292,-0.29123 0.352777,-0.22798 0.352777,-0.25738 0,-0.26458 -0.352777,-0.007 -0.352777,-0.0398 0,-0.29359 0.319895,-0.23012 0.294235,-0.25029 -0.132291,-0.104 -0.291042,0.0998 -0.82118,0.21639 -1.178084,0.25904 -0.573622,0.0686 -0.597122,0.0397 -0.202549,-0.24884 0.245501,-0.17951 0.371006,-0.40175 0.278902,-0.49385 -0.09211,-0.0921 -0.374234,0.0709 -0.626951,0.36232 -0.397248,0.45804 -0.481113,0.47344 -0.619144,0.11374 -0.104759,-0.273 -0.05426,-0.35092 0.14686,-0.22661 0.201118,0.12429 0.251621,0.0464 0.146875,-0.22659 -0.185269,-0.4828 0.684546,-0.79556 1.569186,-0.56422 0.684072,0.17889 1.041903,-0.31462 0.607579,-0.83795 -0.507413,-0.61139 -2.29207,-0.49916 -2.648345,0.16655 -0.458782,0.85724 -0.568216,0.42898 -0.147529,-0.57735 0.207053,-0.49529 0.873475,-1.40741 1.480939,-2.02693 l 1.10448,-1.1264 0.300797,0.79689 c 0.246144,0.65212 0.422364,0.7766 0.96993,0.68515 0.368025,-0.0615 0.758434,-0.12155 0.867574,-0.13352 0.294532,-0.0323 0.240488,-1.02287 -0.06615,-1.21238 -0.647649,-0.40027 -0.211497,-0.72401 0.79375,-0.58918 0.582084,0.0781 1.058334,0.0342 1.058334,-0.0975 0,-0.13167 -0.565547,-0.25171 -1.256771,-0.26675 l -1.256771,-0.0273 1.058333,-0.2754 c 0.582084,-0.15147 1.125509,-0.37829 1.207609,-0.50404 0.264015,-0.40437 2.161646,-0.39255 2.304717,0.0143 0.09432,0.26825 -0.02574,0.33002 -0.43393,0.22328 -0.31038,-0.0812 -0.631002,-0.0397 -0.712497,0.0922 -0.08149,0.13186 0.0077,0.24156 0.198173,0.24379 0.270558,0.003 0.266153,0.0548 -0.02014,0.23615 -0.292454,0.18521 -0.251272,0.29374 0.203907,0.53735 0.313708,0.16789 0.685617,0.23404 0.826463,0.14699 0.143211,-0.0885 0.187452,0.0206 0.100375,0.2475 -0.116544,0.30371 -0.277778,0.34044 -0.641033,0.14603 -0.598135,-0.32011 -1.849739,-0.33117 -2.339948,-0.0207 -0.694907,0.44015 -0.02556,0.76825 1.392674,0.68266 1.29263,-0.078 1.412708,-0.0391 1.292865,0.41921 -0.07266,0.27787 -0.237641,0.43999 -0.366617,0.36028 -0.128958,-0.0797 -0.234484,-0.0318 -0.234484,0.10634 0,0.37423 -1.833438,0.51812 -2.125033,0.16677 -0.138396,-0.16675 -0.173284,-0.38153 -0.07753,-0.47728 0.218152,-0.21815 -0.263548,-0.22645 -0.816983,-0.0141 -0.229346,0.088 -0.356206,0.25838 -0.281905,0.3786 0.0743,0.12021 0.0223,0.28827 -0.115531,0.37346 -0.13784,0.0852 -0.318494,0.0451 -0.401454,-0.0892 -0.181005,-0.29287 -1.208644,-0.0665 -1.208644,0.26629 0,0.12855 0.178594,0.23372 0.396875,0.23372 0.218282,0 0.396875,0.11533 0.396875,0.25628 0,0.14096 0.178594,0.18775 0.396875,0.10399 0.218282,-0.0838 0.396875,-0.0403 0.396875,0.0965 0,0.13684 0.178594,0.2488 0.396875,0.2488 0.218282,0 0.396875,-0.0992 0.396875,-0.22049 0,-0.12127 0.297657,-0.22049 0.661459,-0.22049 0.363802,0 0.661458,-0.10716 0.661458,-0.23814 0,-0.13099 0.466601,-0.22029 1.036892,-0.19844 0.925766,0.0354 0.996653,0.0845 0.661458,0.45742 -0.206489,0.22974 -0.375433,0.53871 -0.375433,0.68659 0,0.33877 0.875813,1.14466 1.24397,1.14466 0.446111,0 2.781062,1.09024 2.639065,1.23224 -0.07133,0.0713 -0.503896,-0.0638 -0.961255,-0.30032 -0.52673,-0.27239 -1.04494,-0.35751 -1.41365,-0.23223 -0.320148,0.10879 -0.730917,0.16924 -0.912818,0.13433 -0.297743,-0.0571 -0.447109,0.28099 -0.362061,0.81962 0.04266,0.27016 -0.173027,0.24929 -0.779812,-0.0755 -0.352777,-0.1888 -0.511773,-0.1888 -0.511773,0 0,0.15064 0.164709,0.27389 0.366017,0.27389 0.201308,0 0.441336,0.26789 0.533395,0.59531 0.152757,0.54331 0.191272,0.55487 0.44088,0.1323 0.383352,-0.64899 0.690507,-0.57659 0.887741,0.20925 0.0928,0.36976 0.290084,0.59728 0.438406,0.50562 0.182441,-0.11276 0.180676,-0.27391 -0.0055,-0.49819 -0.391795,-0.47208 -0.09499,-0.6553 0.711959,-0.43948 0.906868,0.24253 1.079164,0.81044 0.307131,1.01233 -0.575804,0.15058 -0.580932,0.17099 -0.09402,0.37426 0.29814,0.12446 -0.03007,0.14642 -0.779447,0.0522 -0.9321,-0.11726 -1.242496,-0.0788 -1.108863,0.13743 0.129469,0.20948 -0.199125,0.29099 -1.086805,0.26958 -0.699813,-0.0169 -1.064027,-0.0851 -0.809366,-0.15169 0.254662,-0.0665 0.463021,-0.29087 0.463021,-0.49848 0,-0.53979 -1.262372,-0.48777 -1.369663,0.0564 -0.07499,0.38031 -1.540767,0.81477 -1.540767,0.45669 z m 0,-1.94894 c 0,-0.14552 -0.12609,-0.26458 -0.280199,-0.26458 -0.154109,0 -0.206613,0.11906 -0.116676,0.26458 0.08994,0.14553 0.216027,0.26459 0.280199,0.26459 0.06417,0 0.116676,-0.11906 0.116676,-0.26459 z m 0.529167,-0.91042 c 0,-0.0642 -0.119063,-0.19026 -0.264584,-0.2802 -0.14552,-0.0899 -0.264583,-0.0374 -0.264583,0.11668 0,0.15411 0.119063,0.28019 0.264583,0.28019 0.145521,0 0.264584,-0.0525 0.264584,-0.11667 z m 1.058333,-0.14791 c 0,-0.14552 -0.0525,-0.26458 -0.116676,-0.26458 -0.06417,0 -0.190262,0.11906 -0.280199,0.26458 -0.08994,0.14552 -0.03743,0.26458 0.116676,0.26458 0.154109,0 0.280199,-0.11906 0.280199,-0.26458 z m 2.83876,-0.68902 c -0.08792,-0.0879 -0.316125,-0.0973 -0.507119,-0.0209 -0.211066,0.0845 -0.148373,0.14715 0.159853,0.15985 0.278913,0.0115 0.435184,-0.0511 0.347266,-0.13897 z m -1.780427,-1.14745 c 0,-0.13693 -0.119062,-0.32255 -0.264583,-0.41249 -0.145521,-0.0899 -0.264583,0.0221 -0.264583,0.24897 0,0.22687 0.119062,0.41249 0.264583,0.41249 0.145521,0 0.264583,-0.11203 0.264583,-0.24897 z m -4.233333,-1.63397 c 0,-0.30927 -1.249423,-0.30211 -1.441241,0.008 -0.08226,0.1331 1.3e-5,0.29231 0.182822,0.35382 0.456684,0.15365 1.258419,-0.077 1.258419,-0.36207 z m -0.211667,-0.81581 c -0.246943,-0.24694 -0.388056,-0.24694 -0.635,0 -0.246943,0.24695 -0.176389,0.3175 0.3175,0.3175 0.49389,0 0.564444,-0.0705 0.3175,-0.3175 z m 9.339792,6.93208 c -0.08994,-0.14552 -0.03743,-0.26458 0.116676,-0.26458 0.154109,0 0.280199,0.11906 0.280199,0.26458 0,0.14553 -0.0525,0.26459 -0.116676,0.26459 -0.06417,0 -0.190262,-0.11906 -0.280199,-0.26459 z m 0.01085,-0.81129 c 0.08398,-0.13587 0.463156,-0.24704 0.842621,-0.24704 0.844968,0 0.592635,0.32479 -0.328644,0.42301 -0.366662,0.0391 -0.597951,-0.0401 -0.513977,-0.17597 z m -2.904247,-5.72573 c -0.143584,-0.37709 -0.113194,-0.40748 0.148114,-0.14811 0.180822,0.17947 0.262115,0.39296 0.180652,0.47443 -0.08146,0.0815 -0.229407,-0.0654 -0.328766,-0.32632 z m -4.911809,-1.20204 c 0,-0.20615 0.181901,-0.37483 0.404225,-0.37483 0.457393,0 0.389683,0.48502 -0.09003,0.64493 -0.172807,0.0576 -0.314192,-0.0639 -0.314192,-0.2701 z m -1.058334,-1.13378 c 0,-0.0779 0.196274,-0.44116 0.436166,-0.80728 0.497874,-0.75985 1.658303,-1.43238 2.471544,-1.43238 0.457314,0 0.494081,-0.0628 0.212969,-0.36372 -0.186873,-0.20005 -0.518988,-0.29934 -0.738037,-0.22066 -0.219046,0.0787 -0.105833,-0.10008 0.251584,-0.39725 0.522172,-0.43416 0.791404,-0.49097 1.370309,-0.28916 0.483267,0.16847 0.900846,0.15461 1.268378,-0.0421 0.358479,-0.19185 0.547921,-0.1997 0.547921,-0.0227 0,0.17498 0.69551,0.21172 1.969426,0.10404 1.915829,-0.16195 1.965415,-0.15114 1.822003,0.39727 -0.08108,0.31006 -0.266261,0.4903 -0.411507,0.40054 -0.145248,-0.0898 -0.368011,7.9e-4 -0.495035,0.20141 -0.176578,0.27878 -0.232857,0.24005 -0.239054,-0.16454 -0.0066,-0.42975 -0.05435,-0.45604 -0.254249,-0.13995 -0.135379,0.21406 -0.327956,0.3074 -0.427947,0.20741 -0.09999,-0.1 -0.412764,0.11181 -0.69505,0.47068 -0.781175,0.99311 -1.296554,0.69546 -0.633905,-0.3661 0.17957,-0.28767 0.117184,-0.30053 -0.320775,-0.0661 -0.299038,0.16004 -0.789655,0.29098 -1.090264,0.29098 -0.300609,0 -0.54656,0.10256 -0.54656,0.2279 0,0.12534 -0.30335,0.1699 -0.674113,0.099 -0.42409,-0.0811 -0.792083,0.0245 -0.992188,0.28481 -0.17494,0.22752 -0.675261,0.45085 -1.111824,0.49628 -0.630081,0.0656 -0.789419,0.20536 -0.772742,0.67792 0.01439,0.40808 -0.131228,0.59531 -0.463021,0.59531 -0.266216,0 -0.484029,-0.0637 -0.484029,-0.14159 z m 4.955427,-2.66409 c -0.08792,-0.0879 -0.316125,-0.0973 -0.507119,-0.0209 -0.211066,0.0845 -0.148373,0.14716 0.159853,0.15985 0.278913,0.0115 0.435184,-0.051 0.347266,-0.13896 z m 3.246657,2.51214 c -0.525844,-0.0942 -0.678122,-0.18101 -0.35237,-0.20079 0.901772,-0.0548 1.410703,-0.32259 1.410703,-0.74243 0,-0.27356 -0.164177,-0.33429 -0.5622,-0.20796 -0.352724,0.11195 -0.646964,0.0447 -0.789696,-0.18061 -0.375915,-0.59327 -0.264848,-0.84498 0.201916,-0.4576 0.240639,0.19971 0.633386,0.32993 0.872776,0.28937 0.23939,-0.0405 0.718103,0.22735 1.063808,0.59533 l 0.628554,0.66907 h -0.68553 c -0.377042,0 -0.725217,0.0904 -0.773726,0.20079 -0.04851,0.11043 -0.504912,0.12611 -1.014235,0.0348 z m 5.027083,0.11201 c 0,-0.12119 0.248269,-0.37539 0.551709,-0.56489 0.486519,-0.30384 0.540872,-0.28827 0.459984,0.13175 -0.09024,0.46857 -1.011693,0.86307 -1.011693,0.43314 z m 1.455208,-1.14138 c 0.08994,-0.14552 0.364855,-0.26276 0.610929,-0.26053 0.385569,0.003 0.392554,0.0395 0.05053,0.26053 -0.518152,0.33485 -0.86841,0.33485 -0.661459,0 z M 7.700468,-67.079 c -0.08182,-0.13239 -0.07611,-0.43004 0.0127,-0.66146 0.106312,-0.27704 0.01624,-0.42075 -0.263724,-0.42075 -0.233852,0 -0.426807,-0.14883 -0.428794,-0.33073 -0.0021,-0.1819 -0.08028,-0.61724 -0.173971,-0.96741 -0.122582,-0.45814 -0.08122,-0.5816 0.147494,-0.44025 0.174818,0.10805 0.486016,0.0569 0.691547,-0.11369 0.205531,-0.17058 0.516369,-0.22196 0.690748,-0.11419 0.192637,0.11905 0.247827,0.0839 0.140644,-0.0895 -0.09703,-0.15699 0.0334,-0.34741 0.289849,-0.42316 0.256442,-0.0757 -0.07542,-0.11452 -0.737463,-0.0862 l -1.203722,0.0516 0.368959,-0.73914 c 0.263472,-0.52782 0.459486,-0.66401 0.68558,-0.47637 0.21177,0.17575 0.751039,0.14743 1.628511,-0.0855 1.27644,-0.33888 1.291151,-0.35386 0.544356,-0.55452 -0.474332,-0.12745 -0.953058,-0.0904 -1.25318,0.097 -0.591966,0.36969 -0.757407,0.38046 -0.757407,0.0493 0,-0.13968 0.47625,-0.39665 1.058333,-0.57105 0.582084,-0.17439 1.058334,-0.41957 1.058334,-0.54483 0,-0.28121 -1.31277,0.013 -1.847517,0.41414 -0.334806,0.25112 -0.332796,0.19729 0.01373,-0.36722 0.839076,-1.36688 1.127252,-2.77047 0.782981,-3.81362 -0.25042,-0.75878 -0.250211,-1.05335 0.0011,-1.35599 0.36907,-0.44482 0.785153,-0.50949 0.785153,-0.12205 0,0.14552 -0.178593,0.26458 -0.396875,0.26458 -0.480737,0 -0.492141,0.11922 -0.07525,0.78677 0.306459,0.49072 0.362448,0.47044 1.187273,-0.43006 0.527971,-0.57641 1.018461,-0.88642 1.2574,-0.79473 0.215467,0.0827 0.462127,0.0365 0.548135,-0.1027 0.196686,-0.31825 1.183484,-0.33434 1.183484,-0.0193 0,0.12854 -0.246962,0.2983 -0.548801,0.37724 -0.301842,0.0789 -0.613035,0.38913 -0.691539,0.68934 -0.07851,0.3002 -0.240038,0.48569 -0.358958,0.41219 -0.118922,-0.0735 -0.291007,-0.0126 -0.38241,0.13527 -0.0914,0.14789 0.03982,0.2689 0.291613,0.2689 0.251791,0 0.673304,0.19502 0.936694,0.43339 0.390411,0.35332 0.553135,0.37177 0.880729,0.0999 0.331314,-0.27495 0.401839,-0.25814 0.401839,0.0958 0,0.2361 -0.119063,0.42927 -0.264584,0.42927 -0.145521,0 -0.264583,0.17859 -0.264583,0.39688 0,0.28905 -0.305499,0.39942 -1.124479,0.40625 -1.071584,0.009 -1.095015,0.0257 -0.498121,0.35665 0.543822,0.30152 0.567121,0.37001 0.176798,0.51979 -0.247259,0.0949 -0.677948,0.17251 -0.957088,0.17251 -0.732616,0 -0.623597,0.4493 0.220077,0.907 0.518761,0.28144 0.594704,0.39778 0.264584,0.40533 -0.254662,0.006 -0.463021,0.19302 -0.463021,0.41599 0,0.22297 -0.267891,0.5087 -0.595313,0.63496 -0.510463,0.19684 -0.532264,0.25509 -0.152966,0.40872 0.736746,0.29841 1.504119,-0.32127 1.716506,-1.38615 0.108487,-0.54393 0.18029,-1.05682 0.159565,-1.13975 -0.02072,-0.0829 0.342119,-0.35949 0.806325,-0.61459 0.839195,-0.46117 0.840717,-0.46091 0.266507,0.0465 -0.317627,0.28065 -0.544047,0.73581 -0.503158,1.01146 0.08367,0.56404 -0.316113,1.39726 -0.889018,1.85288 -0.330883,0.26315 -0.322006,0.39577 0.06614,0.98816 0.583759,0.89093 0.565598,1.04881 -0.08084,0.70285 -0.292343,-0.15646 -0.529167,-0.17444 -0.529167,-0.0402 0,0.34538 -0.967086,0.55475 -1.250995,0.27084 -0.299206,-0.29921 -1.924005,0.009 -1.924005,0.36464 0,0.15287 0.33514,0.19756 0.79375,0.10583 0.615971,-0.12319 0.79375,-0.0644 0.79375,0.26237 0,0.29086 0.163685,0.37832 0.529167,0.28274 0.291042,-0.0761 0.529167,-0.0421 0.529167,0.0756 0,0.33096 -1.549747,0.79274 -2.035234,0.60644 -0.314801,-0.1208 -0.373081,-0.0694 -0.213725,0.18842 0.161775,0.26176 0.09938,0.30857 -0.238482,0.17892 -0.36563,-0.1403 -0.423936,-0.0696 -0.290155,0.35192 0.166534,0.5247 -0.23105,0.74613 -0.51494,0.28679 z m 0.431374,-2.14737 c -0.154977,-0.41894 -0.289536,-0.51113 -0.425336,-0.2914 -0.109252,0.17677 -0.05236,0.49766 0.126423,0.71309 0.436808,0.52632 0.576633,0.32906 0.298913,-0.42169 z m 2.953591,-1.17532 c 0.08197,-0.21362 0.01677,-0.47015 -0.144864,-0.57005 -0.177975,-0.11 -0.219441,-0.0612 -0.105122,0.12382 0.103833,0.168 0.05567,0.30546 -0.107027,0.30546 -0.162697,0 -0.222229,0.11906 -0.132291,0.26458 0.220874,0.35739 0.313661,0.33391 0.489304,-0.12381 z m -1.264155,-0.66994 c 0,-0.53763 -0.186862,-0.66988 -0.501674,-0.35507 -0.09575,0.0957 -0.04148,0.33388 0.120592,0.52917 0.377637,0.45502 0.381082,0.45345 0.381082,-0.1741 z m 1.370163,-3.62196 c -0.254661,-0.0666 -0.463021,-0.23984 -0.463021,-0.38508 0,-0.35052 0.682255,-1.02004 1.039434,-1.02004 0.155917,0 0.283483,-0.20241 0.283483,-0.44979 0,-0.34984 -0.07056,-0.37924 -0.3175,-0.13229 -0.174625,0.17462 -0.551656,0.3175 -0.837848,0.3175 -0.286189,0 -0.446035,0.0743 -0.355209,0.16513 0.09083,0.0908 -0.09769,0.38607 -0.418922,0.65609 -0.500991,0.42112 -0.527616,0.52876 -0.187188,0.75685 0.218282,0.14625 0.694532,0.25392 1.058334,0.23927 0.444814,-0.0179 0.509809,-0.0663 0.198437,-0.14764 z m -6.93031,6.73809 c -0.226531,-0.32342 -0.411877,-0.44147 -0.411877,-0.26234 0,0.25628 -0.112779,0.25527 -0.529167,-0.005 -0.84505,-0.52775 -0.643742,-0.99694 0.427733,-0.99694 0.826638,0 0.938065,0.072 0.818521,0.52916 -0.07611,0.29105 -0.03046,0.52917 0.101433,0.52917 0.131897,0 0.239813,-0.17859 0.239813,-0.39687 0,-0.24695 0.249883,-0.39688 0.661458,-0.39688 0.405292,0 0.661459,0.15049 0.661459,0.38857 0,0.23815 -0.154943,0.32912 -0.400243,0.23499 -0.461249,-0.177 -1.252472,0.37978 -1.036437,0.72934 0.311124,0.5034 -0.144081,0.20138 -0.532693,-0.35344 z m 1.440206,-1.90141 c 0,-0.0504 0.178594,-0.23981 0.396875,-0.42097 0.228756,-0.18985 0.396875,-0.21556 0.396875,-0.0607 0,0.14777 -0.178594,0.3372 -0.396875,0.42097 -0.218281,0.0838 -0.396875,0.11108 -0.396875,0.0607 z m -39.819791,-1.87 c -0.145521,-0.0605 -0.770599,-0.24003 -1.389063,-0.399 -1.269036,-0.32618 -1.366719,-0.65978 -0.824143,-2.81455 0.35453,-1.40797 1.273141,-2.23828 3.563431,-3.22091 2.285486,-0.98058 3.840402,-0.88752 6.07785,0.36373 3.133665,1.75245 3.758566,2.6861 2.666448,3.98391 -0.3507,0.41675 -1.158092,1.0486 -1.794205,1.40411 -1.03504,0.57847 -1.51799,0.65408 -4.596152,0.71953 -1.891771,0.0402 -3.558646,0.0237 -3.704166,-0.0368 z m 47.228124,-6.22388 c 0,-0.14552 0.12609,-0.26459 0.280199,-0.26459 0.15411,0 0.206613,0.11907 0.116676,0.26459 -0.08994,0.14552 -0.216027,0.26458 -0.280199,0.26458 -0.06417,0 -0.116676,-0.11906 -0.116676,-0.26458 z m -1.737548,-1.89531 c 1.338194,-0.88638 1.379377,-1.046 0.790946,-3.06563 -0.10649,-0.36549 -0.05939,-0.59531 0.121994,-0.59531 0.162494,0 0.295442,0.23812 0.295442,0.52916 0,0.29399 0.176389,0.52917 0.396875,0.52917 0.218281,0 0.396875,0.12609 0.396875,0.2802 0,0.15411 -0.119063,0.20661 -0.264584,0.11668 -0.145521,-0.0899 -0.264583,0.035 -0.264583,0.27765 0,0.33551 0.154538,0.40238 0.645242,0.27923 0.354886,-0.0891 0.7191,-0.0425 0.809366,0.1036 0.321474,0.52016 1.232926,0.25256 1.99989,-0.58716 0.42836,-0.46899 0.778835,-0.96135 0.778835,-1.09414 0,-0.23159 1.233414,-1.49273 1.459918,-1.49273 0.189275,0 -0.970137,1.84648 -1.288918,2.05273 -0.166809,0.10793 -0.447267,0.45474 -0.623239,0.77069 -0.281376,0.5052 -0.219501,0.67267 0.51325,1.38906 0.458258,0.44804 0.706109,0.81461 0.55078,0.81461 -0.155326,0 -0.432252,-0.18055 -0.615392,-0.40121 -0.245816,-0.2962 -0.652528,-0.36393 -1.553749,-0.25875 -0.671426,0.0784 -1.650889,0.18116 -2.176585,0.22844 -0.525695,0.0473 -1.236794,0.28278 -1.580224,0.52333 -0.343429,0.24054 -0.856461,0.43735 -1.140073,0.43735 -0.353529,0 -0.11837,-0.26315 0.747934,-0.83697 z m 3.804606,0.65623 c 0.190994,-0.0764 0.419197,-0.067 0.507119,0.0209 0.08792,0.0879 -0.06835,0.15045 -0.347266,0.13896 -0.308226,-0.0127 -0.370919,-0.0754 -0.159853,-0.15985 z m -3.125391,-0.18782 c 0,-0.0572 0.184777,-0.17489 0.410617,-0.26156 0.235458,-0.0904 0.341662,-0.046 0.248968,0.10399 -0.155379,0.25141 -0.659585,0.37186 -0.659585,0.15757 z m 2.819908,-2.68762 c 0.08092,-0.21087 0.253447,-0.3834 0.3834,-0.3834 0.38037,0 0.271375,0.45908 -0.147124,0.61968 -0.256255,0.0983 -0.334611,0.02 -0.236276,-0.23628 z m -2.02616,-1.49944 c 0,-0.28488 0.578728,-0.25253 1.058333,0.0591 0.303885,0.19749 0.226391,0.24501 -0.330729,0.20283 -0.400182,-0.0303 -0.727604,-0.14819 -0.727604,-0.26197 z m 3.439583,-1.89427 c 0,-0.0549 0.20836,-0.2633 0.463021,-0.46302 0.419645,-0.32911 0.429003,-0.31975 0.0999,0.0999 -0.345644,0.44073 -0.562917,0.58089 -0.562917,0.36313 z"
         id="path2180"
         inkscape:connector-curvature="0" />
      <path
         style="fill:#800000;stroke-width:0.26458335"
         d="m -45.153538,-28.04425 c -2.171586,-0.83099 -3.013215,-1.55567 -3.940804,-3.39322 -2.06522,-4.09118 -0.425809,-8.83272 3.707669,-10.72342 1.411497,-0.64563 1.562405,-0.66171 3.461609,-0.3688 2.278862,0.35145 4.522186,1.34455 5.128901,2.27051 0.829123,1.2654 1.486816,3.46038 1.486948,4.96253 2.56e-4,2.90183 -1.670854,6.05027 -3.783349,7.12799 -1.580758,0.80644 -4.141293,0.859 -6.060974,0.12441 z m 11.035082,-43.68266 c -0.145521,-0.0605 -0.770599,-0.24003 -1.389063,-0.399 -1.269036,-0.32618 -1.366719,-0.65978 -0.824143,-2.81455 0.35453,-1.40797 1.273141,-2.23828 3.563431,-3.22091 2.285486,-0.98058 3.840402,-0.88752 6.07785,0.36373 3.133665,1.75245 3.758566,2.6861 2.666448,3.98391 -0.3507,0.41675 -1.158092,1.0486 -1.794205,1.40411 -1.03504,0.57847 -1.51799,0.65408 -4.596152,0.71953 -1.891771,0.0402 -3.558646,0.0237 -3.704166,-0.0368 z"
         id="path2178"
         inkscape:connector-curvature="0" />
      <path
         style="fill:#ff0000;stroke-width:0.26458335"
         d="m -44.731386,-28.34664 c -0.433524,-0.33115 -0.447101,-0.4167 -0.102695,-0.64715 0.291202,-0.19486 0.03362,-0.26664 -0.967418,-0.26962 -1.203398,-0.004 -1.348972,-0.0626 -1.234388,-0.5008 0.109439,-0.41849 0.01534,-0.47486 -0.597258,-0.35775 -0.595461,0.11383 -0.69686,0.06 -0.559853,-0.297 0.09202,-0.2398 0.05198,-0.436 -0.08897,-0.436 -0.140954,0 -0.254456,-0.20836 -0.252228,-0.46302 0.0034,-0.39365 0.04152,-0.40375 0.254136,-0.0674 0.216998,0.34325 0.295869,0.33297 0.596143,-0.0777 0.241779,-0.33065 0.779539,-0.499 1.784601,-0.55867 1.719751,-0.10211 2.181419,-0.68528 0.542502,-0.68528 -0.66329,0 -1.031437,-0.10446 -0.932475,-0.26458 0.08994,-0.14553 0.04546,-0.26459 -0.09885,-0.26459 -0.144303,0 -0.337947,0.23813 -0.43032,0.52917 -0.09237,0.29104 -0.3286,0.52917 -0.524948,0.52917 -0.196348,0 -0.401999,0.135 -0.457003,0.30001 -0.06777,0.20333 -0.225632,0.1744 -0.489794,-0.0898 -0.214383,-0.21438 -0.563185,-0.44758 -0.775114,-0.51822 -0.269133,-0.0897 -0.20787,-0.17485 0.203162,-0.28234 0.397549,-0.10396 0.588489,-0.0359 0.588489,0.20991 0,0.21778 0.162413,0.30148 0.404651,0.20852 0.354453,-0.13602 0.34954,-0.19558 -0.03961,-0.48013 -0.244344,-0.17867 -0.724093,-0.29414 -1.06611,-0.25659 -0.342016,0.0375 -0.621848,-0.0276 -0.621848,-0.14472 0,-0.36343 0.760593,-0.5272 1.65654,-0.35668 0.471351,0.0897 0.79747,0.0964 0.72471,0.0148 -0.07276,-0.0815 -0.251354,-0.16829 -0.396875,-0.19279 -0.145521,-0.0245 -0.425024,-0.17771 -0.621118,-0.34045 -0.196093,-0.16274 -0.605582,-0.33391 -0.909975,-0.38036 -0.734948,-0.11216 -0.724777,-0.0895 -0.5428,-1.21087 0.106645,-0.65717 0.299375,-0.97962 0.587157,-0.98234 0.373243,-0.004 0.377302,-0.0371 0.03153,-0.26052 -0.352777,-0.22799 -0.352777,-0.25739 0,-0.26459 0.307726,-0.006 0.320281,-0.0567 0.05589,-0.22444 -0.766972,-0.48661 1.362266,-3.76632 2.413737,-3.71793 0.520221,0.0239 0.512315,0.0433 -0.08571,0.20973 -0.461564,0.12847 -0.557949,0.24569 -0.321952,0.39154 0.58227,0.35987 2.18326,0.45191 2.649937,0.15234 0.387418,-0.24868 0.370018,-0.271 -0.129645,-0.16626 -0.342137,0.0717 -0.799983,-0.0867 -1.124479,-0.38898 -0.697242,-0.64958 -0.691749,-0.67127 0.180242,-0.71171 0.400182,-0.0186 1.025261,-0.0511 1.389063,-0.0723 0.363802,-0.0212 1.494895,0.0286 2.513541,0.11055 1.018646,0.082 1.613959,0.0846 1.322917,0.006 -0.291042,-0.0788 -0.677995,-0.26409 -0.859896,-0.41177 -0.234264,-0.19019 -0.331911,-0.16259 -0.334781,0.0946 -0.003,0.26628 -0.05757,0.27895 -0.204709,0.0475 -0.126767,-0.19938 -0.807301,-0.29602 -1.848032,-0.26242 -0.906056,0.0292 -1.647374,0.028 -1.647374,-0.003 0,-0.0307 0.39787,-0.16573 0.884156,-0.3 1.653422,-0.45653 5.865676,0.61728 5.558767,1.41707 -0.191035,0.49783 -1.399448,0.73267 -1.849236,0.35938 -0.289932,-0.24062 -0.457074,-0.24339 -0.689067,-0.0114 -0.231993,0.23201 -0.168883,0.3063 0.260182,0.3063 0.311558,0 0.640053,0.11906 0.72999,0.26459 0.08994,0.14552 0.02285,0.26458 -0.149074,0.26458 -0.232946,0 -0.22867,0.10112 0.01678,0.39687 0.181157,0.21829 0.486365,0.39688 0.67824,0.39688 0.191875,0 0.421605,0.1177 0.510512,0.26155 0.09298,0.15044 -0.01422,0.19407 -0.252338,0.10269 -0.227693,-0.0874 -0.572253,-0.0275 -0.76569,0.13303 -0.193437,0.16054 -0.426228,0.21736 -0.517314,0.12628 -0.09108,-0.0911 -0.526615,-0.0161 -0.967843,0.16669 -0.83247,0.34482 -1.138597,1.32643 -0.413663,1.32643 0.213714,0 0.331366,-0.14908 0.261449,-0.33128 -0.1812,-0.4722 0.70705,-0.94943 1.334355,-0.7169 0.483407,0.17919 0.460528,0.22621 -0.264584,0.54377 l -0.79375,0.34763 0.817054,0.092 c 0.751143,0.0845 0.820355,0.17623 0.857991,1.13672 0.03799,0.96953 -0.125251,1.18503 -0.815149,1.07609 -0.109141,-0.0172 -0.198437,0.0877 -0.198437,0.23326 0,0.14552 0.208359,0.27295 0.46302,0.28318 0.395933,0.0159 0.386349,0.0515 -0.06615,0.24598 -0.490614,0.21083 -0.493185,0.22875 -0.03529,0.24599 0.353781,0.0133 0.456094,0.16309 0.360676,0.52797 -0.09323,0.3565 -0.02354,0.46728 0.232205,0.36915 0.200975,-0.0771 0.299535,-0.24681 0.219022,-0.37708 -0.08051,-0.13027 0.158296,-0.23686 0.530686,-0.23686 0.447164,0 0.677074,0.14524 0.677074,0.42773 0,0.2974 0.16116,0.38559 0.528903,0.28942 0.290896,-0.0761 0.606949,-0.012 0.702339,0.14232 0.09733,0.15748 0.04875,0.20357 -0.110698,0.10502 -0.156273,-0.0966 -0.463479,0.004 -0.68268,0.22294 -0.219201,0.2192 -0.585987,0.32662 -0.815081,0.23871 -0.229093,-0.0879 -0.416533,-0.028 -0.416533,0.13305 0,0.16109 0.238125,0.29289 0.529166,0.29289 0.393921,0 0.529167,0.17639 0.529167,0.69014 0,0.61286 0.08148,0.67335 0.727604,0.54014 0.621134,-0.12805 0.595197,-0.0907 -0.177247,0.255 -0.497669,0.22276 -1.122628,0.34806 -1.388799,0.27846 -0.266171,-0.0696 -0.551825,-0.0167 -0.634785,0.1175 -0.08296,0.13423 -0.261673,0.17556 -0.397139,0.0918 -0.135465,-0.0837 -0.246301,-0.0134 -0.246301,0.15628 0,0.16968 0.164086,0.24554 0.364634,0.16858 0.200549,-0.077 0.495392,-0.009 0.655207,0.15065 0.211041,0.21104 0.424717,0.16918 0.780678,-0.15296 0.574919,-0.5203 1.200872,-0.58777 1.046504,-0.11282 -0.14038,0.43193 -2.289498,1.51511 -3.013063,1.51863 -0.309604,0.001 -0.711136,-0.17586 -0.892293,-0.39415 -0.269308,-0.32449 -0.252604,-0.39687 0.09159,-0.39687 0.283936,0 0.365972,-0.14332 0.252017,-0.44028 -0.113601,-0.29604 -0.06754,-0.3776 0.140596,-0.24897 0.17025,0.10522 0.309546,0.078 0.309546,-0.0606 0,-0.43256 -0.633141,-0.49699 -1.322917,-0.13463 -0.596043,0.31313 -0.609126,0.35214 -0.132291,0.39452 0.291041,0.0259 -0.125678,0.12727 -0.926042,0.22536 -1.363283,0.16706 -1.385963,0.18105 -0.359037,0.22145 0.684475,0.0269 1.151733,0.18792 1.244106,0.42864 0.119863,0.31236 0.02154,0.33746 -0.518182,0.13225 -0.424953,-0.16156 -0.838195,-0.16116 -1.141411,0.001 -0.334172,0.17885 -0.623622,0.14107 -0.974864,-0.12722 z m 5.05668,-0.39165 c -0.08994,-0.14552 -0.335089,-0.26458 -0.544782,-0.26458 -0.209693,0 -0.38126,0.11906 -0.38126,0.26458 0,0.14552 0.245152,0.26458 0.544781,0.26458 0.29963,0 0.471197,-0.11906 0.381261,-0.26458 z m -3.307292,-1.08563 c 0,-0.13051 -0.119063,-0.23729 -0.264583,-0.23729 -0.145521,0 -0.264584,-0.18562 -0.264584,-0.41249 0,-0.22687 0.102283,-0.34927 0.227294,-0.27201 0.125012,0.0773 0.75009,0.0484 1.389063,-0.0641 1.125409,-0.1982 1.142248,-0.21529 0.53805,-0.54625 -0.451067,-0.24707 -0.703742,-0.26162 -0.912812,-0.0525 -0.159002,0.15901 -0.611323,0.2891 -1.005158,0.2891 -0.585801,0 -0.69089,-0.0963 -0.577683,-0.52917 0.07611,-0.29104 0.243557,-0.52916 0.372105,-0.52916 0.128548,0 0.233725,-0.12181 0.233725,-0.27069 0,-0.14887 -0.295078,-0.0773 -0.655728,0.15897 -0.707543,0.4636 -0.765738,1.30726 -0.118431,1.71692 0.298341,0.18882 0.266561,0.24138 -0.151883,0.25124 -0.291042,0.007 -0.733974,0.16804 -0.984293,0.35818 -0.394497,0.29966 -0.279947,0.34777 0.859896,0.36116 0.723262,0.009 1.315022,-0.0913 1.315022,-0.22183 z m -2.04401,-1.01572 c 0.176575,-0.67522 0.08175,-0.74008 -0.876378,-0.59946 -0.909086,0.13343 -0.920175,0.75341 -0.01164,0.65069 0.332688,-0.0376 0.511651,0.0473 0.41824,0.19843 -0.0898,0.1453 -0.05107,0.26419 0.08606,0.26419 0.137137,0 0.309808,-0.23123 0.383714,-0.51385 z m 4.954427,-0.2799 c 0,-0.14552 -0.12609,-0.26458 -0.280199,-0.26458 -0.154109,0 -0.206613,0.11906 -0.116676,0.26458 0.08994,0.14552 0.216025,0.26458 0.280198,0.26458 0.06417,0 0.116677,-0.11906 0.116677,-0.26458 z m -1.496089,-2.18281 c -0.06745,-0.10914 -0.479829,-0.19844 -0.916391,-0.19844 -0.436563,0 -0.730111,-0.10297 -0.652329,-0.22883 0.07778,-0.12585 0.561058,-0.18257 1.073948,-0.12605 0.555997,0.0613 0.932527,-0.0129 0.932527,-0.18367 0,-0.15754 -0.124298,-0.20961 -0.276218,-0.11572 -0.151921,0.0939 -0.56445,-0.0181 -0.916733,-0.24897 -0.862937,-0.56542 -1.647041,-0.52921 -1.841999,0.0851 -0.08811,0.27759 -0.341801,0.57441 -0.563766,0.65959 -0.807774,0.30997 -0.116612,0.55547 1.56381,0.55547 0.945886,0 1.664604,-0.0893 1.597151,-0.19843 z m 0.966922,0.21405 c 0,-0.0642 -0.119063,-0.19026 -0.264583,-0.2802 -0.145521,-0.0899 -0.264584,-0.0374 -0.264584,0.11668 0,0.15411 0.119063,0.2802 0.264584,0.2802 0.14552,0 0.264583,-0.0525 0.264583,-0.11668 z m -4.950533,-0.49493 c 0.09792,-0.25517 -0.08705,-0.31471 -0.698779,-0.22492 -0.716785,0.1052 -0.758768,0.15066 -0.303296,0.32843 0.755189,0.29474 0.853136,0.28462 1.002075,-0.10351 z m -0.133198,-1.04255 c 0.267893,0.1028 0.34233,0.0503 0.216728,-0.15296 -0.105221,-0.17026 -0.412487,-0.30955 -0.682814,-0.30955 -0.270326,0 -0.544655,-0.14883 -0.60962,-0.33073 -0.06497,-0.1819 -0.203596,-0.25163 -0.308069,-0.15495 -0.104473,0.0967 -0.05021,0.43688 0.12058,0.75601 0.212898,0.3978 0.39615,0.49461 0.582845,0.30792 0.149772,-0.14977 0.45593,-0.20185 0.68035,-0.11574 z m 1.375513,-0.52035 c 0.0022,-0.10458 -0.167025,-0.12449 -0.376117,-0.0443 -0.209093,0.0802 -0.311586,0.32461 -0.227763,0.54304 0.123981,0.32309 0.194129,0.33135 0.376117,0.0443 0.123041,-0.19411 0.225534,-0.43848 0.227763,-0.54305 z m -3.330494,-0.69181 c 0.07495,-0.12127 -0.0073,-0.22162 -0.182823,-0.223 -0.175499,-10e-4 -0.586981,-0.0888 -0.914403,-0.19422 -0.327421,-0.10544 -0.595312,-0.12032 -0.595312,-0.0331 0,0.15038 0.982285,0.61811 1.373448,0.65399 0.100552,0.009 0.244143,-0.0824 0.31909,-0.20371 z m 3.863712,-0.30868 c 0,-0.14553 -0.126089,-0.26459 -0.280198,-0.26459 -0.154109,0 -0.206614,0.11906 -0.116677,0.26459 0.08994,0.14552 0.216026,0.26458 0.280198,0.26458 0.06417,0 0.116677,-0.11906 0.116677,-0.26458 z m 2.773633,-0.10286 c -0.276379,-0.2021 -0.655639,-0.30868 -0.842801,-0.23686 -0.540862,0.20755 -0.114832,0.6043 0.648894,0.6043 0.659078,0 0.669474,-0.0197 0.193907,-0.36744 z m -2.848083,-0.40607 c 0.6159,-0.0146 0.812293,-0.12265 0.709598,-0.39027 -0.189149,-0.49291 -1.958065,-0.7082 -1.958065,-0.2383 0,0.18906 -0.119062,0.34375 -0.264583,0.34375 -0.145521,0 -0.264583,0.10852 -0.264583,0.24117 0,0.13264 0.208359,0.20128 0.46302,0.15253 0.254662,-0.0487 0.846238,-0.0977 1.314613,-0.10888 z m -3.629717,-0.28482 c 0.30816,-0.19915 0.23074,-0.25739 -0.346344,-0.26054 -0.428912,-0.002 -0.674066,0.10784 -0.579697,0.26054 0.203033,0.32851 0.417701,0.32851 0.926041,0 z m -0.661458,-0.79375 c -0.08994,-0.14553 -0.305323,-0.26276 -0.478636,-0.26054 -0.18934,0.002 -0.156706,0.10643 0.08176,0.26054 0.508297,0.32848 0.599891,0.32848 0.396876,0 z m 6.482292,-1.05834 c 0,-0.14552 -0.238125,-0.26458 -0.529167,-0.26458 -0.291042,0 -0.529167,0.11906 -0.529167,0.26458 0,0.14552 0.238125,0.26459 0.529167,0.26459 0.291042,0 0.529167,-0.11907 0.529167,-0.26459 z m -5.027084,-0.11667 c 0,-0.0642 -0.119062,-0.19027 -0.264583,-0.2802 -0.145521,-0.0899 -0.264583,-0.0374 -0.264583,0.11667 0,0.15411 0.119062,0.2802 0.264583,0.2802 0.145521,0 0.264583,-0.0525 0.264583,-0.11667 z m -0.79375,-0.82499 c 0,-0.22686 -0.119062,-0.3389 -0.264583,-0.24896 -0.145521,0.0899 -0.264583,0.27556 -0.264583,0.41249 0,0.13693 0.119062,0.24897 0.264583,0.24897 0.145521,0 0.264583,-0.18563 0.264583,-0.4125 z m 2.25596,-0.0656 c -0.08146,-0.0815 -0.294956,-1.7e-4 -0.474432,0.18065 -0.259362,0.26131 -0.228971,0.2917 0.148112,0.14811 0.260938,-0.0994 0.407782,-0.2473 0.32632,-0.32876 z m 2.241957,-0.58027 c 0,-0.14552 -0.208359,-0.26276 -0.463021,-0.26053 -0.395697,0.003 -0.405314,0.0413 -0.06615,0.26053 0.499325,0.32269 0.529167,0.32269 0.529167,0 z m -0.159827,-0.83827 c -0.172715,-0.27946 -1.618374,-0.28905 -1.789679,-0.0119 -0.07076,0.11449 0.33357,0.2135 0.898507,0.22003 0.564937,0.007 0.965964,-0.0872 0.891172,-0.20817 z m 5.931051,9.12423 c 0.190996,-0.0764 0.419199,-0.067 0.507118,0.0209 0.08792,0.0879 -0.06835,0.15045 -0.347266,0.13896 -0.308224,-0.0127 -0.370919,-0.0754 -0.159852,-0.15985 z m 0.711068,-0.34843 c -0.08994,-0.14552 0.02912,-0.26458 0.264583,-0.26458 0.235458,0 0.35452,0.11906 0.264583,0.26458 -0.08994,0.14552 -0.208999,0.26459 -0.264583,0.26459 -0.05558,0 -0.174647,-0.11907 -0.264583,-0.26459 z m -1.169737,-1.27238 c -0.0116,-0.19241 -0.15666,-0.26244 -0.326352,-0.15756 -0.182969,0.11308 -0.233886,0.073 -0.126972,-0.10002 0.217446,-0.35183 2.230505,-0.35899 2.446998,-0.009 0.26086,0.42208 -0.124913,0.57629 -0.55296,0.22104 -0.318891,-0.26464 -0.403269,-0.26575 -0.403269,-0.005 0,0.25263 -0.08648,0.2576 -0.371145,0.0213 -0.285003,-0.23653 -0.402974,-0.2287 -0.508279,0.0337 -0.110858,0.27628 -0.141135,0.27541 -0.158021,-0.005 z m -2.137555,-0.588 c 0,-0.34104 0.753818,-0.64899 0.995936,-0.40688 0.09865,0.0987 0.0042,0.29013 -0.209848,0.42551 -0.512168,0.32391 -0.786088,0.31741 -0.786088,-0.0186 z m 3.386166,-1.20111 c -0.335,-0.73909 -0.350227,-0.91571 -0.06967,-0.80804 0.266666,0.10233 0.332385,-0.0728 0.25545,-0.68071 -0.07403,-0.58496 -0.02224,-0.73713 0.181541,-0.53335 0.354186,0.35419 0.531831,2.12726 0.261524,2.61027 -0.141464,0.25279 -0.325846,0.0803 -0.628849,-0.58817 z m -2.856999,0.15108 c -0.297605,-0.19233 -0.165244,-0.25648 0.529166,-0.25648 0.694411,0 0.826771,0.0642 0.529167,0.25648 -0.218281,0.14106 -0.456406,0.25647 -0.529167,0.25647 -0.07276,0 -0.310885,-0.11541 -0.529166,-0.25647 z m 1.763889,0.0882 c -0.09701,-0.097 -0.176389,-0.29942 -0.176389,-0.44979 0,-0.16579 0.123235,-0.15017 0.31309,0.0397 0.1722,0.17221 0.251575,0.37461 0.176389,0.4498 -0.07519,0.0752 -0.216077,0.0573 -0.31309,-0.0397 z m -1.791632,-2.15792 c 0.307172,-0.21464 0.295199,-0.28012 -0.07133,-0.39009 -0.399371,-0.11982 -0.398538,-0.1285 0.0089,-0.0929 0.524403,0.0458 0.55597,0.51234 0.04385,0.64805 -0.265176,0.0703 -0.260655,0.0301 0.01856,-0.16502 z m 0.872204,-3.24178 c 0.05215,-0.15644 0.207919,-0.28443 0.346164,-0.28443 0.138244,0 0.294018,0.12799 0.346163,0.28443 0.05214,0.15643 -0.103629,0.28442 -0.346163,0.28442 -0.242535,0 -0.398309,-0.12799 -0.346164,-0.28442 z m 4.764508,-31.19256 c -1.380784,-0.33468 -1.207504,-0.40474 1.023411,-0.41375 1.761427,-0.007 2.150067,-0.09 2.482108,-0.52916 0.615579,-0.81424 0.487929,-1.06882 -0.571698,-1.14019 -1.238715,-0.0834 -1.507448,-0.30659 -0.36919,-0.30659 0.469405,0 0.790638,-0.10165 0.713853,-0.22589 -0.07679,-0.12424 0.160336,-0.36256 0.526937,-0.52959 0.570235,-0.25982 0.634122,-0.24576 0.442139,0.0973 -0.33588,0.60019 -0.07145,2.18735 0.394197,2.36604 0.336704,0.1292 0.349839,0.0869 0.07565,-0.24345 -0.271102,-0.32666 -0.253638,-0.4298 0.09546,-0.56376 0.234996,-0.0902 0.724655,-0.0893 1.088132,0.002 0.443926,0.11141 0.662197,0.0556 0.664918,-0.16991 0.0031,-0.25386 0.05954,-0.24819 0.231511,0.0232 0.139861,0.22074 0.290557,0.25689 0.391303,0.0939 0.225552,-0.36495 -0.290476,-0.50632 -1.619053,-0.44353 -0.618463,0.0292 -1.124479,-0.0641 -1.124479,-0.20739 0,-0.14329 0.238125,-0.19825 0.529167,-0.12214 0.291041,0.0761 0.529092,0.0602 0.529002,-0.0353 -9.1e-5,-0.0955 0.624988,-0.13791 1.389062,-0.0942 1.018799,0.0583 1.283405,0.006 0.992352,-0.19439 -0.339404,-0.23419 -0.327564,-0.27443 0.08176,-0.27789 0.263251,-0.002 0.405052,-0.12305 0.315114,-0.26858 -0.08994,-0.14552 0.01508,-0.26458 0.233355,-0.26458 0.640035,0 0.786207,-0.53367 0.256162,-0.93523 -0.269235,-0.20397 -0.361442,-0.37464 -0.204907,-0.37927 0.381955,-0.0113 1.435182,1.13008 1.435182,1.55529 0,0.73686 -1.145267,1.87802 -2.628754,2.61933 -1.385724,0.69245 -1.836224,0.78072 -4.029754,0.7896 -1.358289,0.005 -2.862612,-0.0853 -3.342939,-0.2017 z m 6.29728,-0.80219 c 0,-0.14552 -0.238125,-0.26458 -0.529166,-0.26458 -0.291042,0 -0.529167,0.11906 -0.529167,0.26458 0,0.14553 0.238125,0.26459 0.529167,0.26459 0.291041,0 0.529166,-0.11906 0.529166,-0.26459 z m -8.842033,-0.0838 c -0.444011,-0.32467 -0.449338,-0.43744 -0.07812,-1.65365 0.226019,-0.74049 0.410308,-1.0556 0.425936,-0.7283 0.01796,0.37613 0.234725,0.61681 0.62286,0.69157 l 0.595313,0.11466 -0.595313,0.036 c -0.473547,0.0287 -0.595312,0.19442 -0.595312,0.81039 0,0.51499 0.155082,0.81487 0.463021,0.89534 0.359724,0.094 0.371006,0.12785 0.05057,0.1517 -0.226848,0.0169 -0.626879,-0.12611 -0.888957,-0.31774 z m 4.344117,-0.18074 c 0,-0.14552 0.126089,-0.26458 0.280198,-0.26458 0.154109,0 0.206614,0.11906 0.116677,0.26458 -0.08994,0.14552 -0.216026,0.26458 -0.280198,0.26458 -0.06417,0 -0.116677,-0.11906 -0.116677,-0.26458 z m -3.178719,-3.8325 c 0.794004,-0.84518 3.80857,-1.98833 5.24335,-1.98833 1.192719,0 2.770861,0.53428 3.086454,1.04492 0.109452,0.1771 -0.237858,0.11885 -0.827597,-0.13879 -1.268923,-0.55436 -3.529738,-0.8132 -3.529738,-0.40412 0,0.16046 -0.20836,0.29211 -0.463021,0.29255 -0.254661,5.3e-4 -1.285488,0.41509 -2.290727,0.92141 -1.66677,0.83953 -1.774082,0.86352 -1.218721,0.27236 z"
         id="path2176"
         inkscape:connector-curvature="0" />
    </g>
  </g>
</svg>
