<?xml version="1.0" encoding="UTF-8" standalone="no"?>
<!-- Created with Inkscape (http://www.inkscape.org/) -->

<svg
   xmlns:dc="http://purl.org/dc/elements/1.1/"
   xmlns:cc="http://creativecommons.org/ns#"
   xmlns:rdf="http://www.w3.org/1999/02/22-rdf-syntax-ns#"
   xmlns:svg="http://www.w3.org/2000/svg"
   xmlns="http://www.w3.org/2000/svg"
   xmlns:sodipodi="http://sodipodi.sourceforge.net/DTD/sodipodi-0.dtd"
   xmlns:inkscape="http://www.inkscape.org/namespaces/inkscape"
   width="75mm"
   height="120mm"
   viewBox="0 0 75 120"
   version="1.1"
   id="svg8"
   inkscape:version="0.92.4 (5da689c313, 2019-01-14)"
   sodipodi:docname="dragons3.svg">
  <defs
     id="defs2" />
  <sodipodi:namedview
     id="base"
     pagecolor="#ffffff"
     bordercolor="#666666"
     borderopacity="1.0"
     inkscape:pageopacity="0.0"
     inkscape:pageshadow="2"
     inkscape:zoom="1.4"
     inkscape:cx="64.429134"
     inkscape:cy="271.04694"
     inkscape:document-units="mm"
     inkscape:current-layer="layer1"
     showgrid="false"
     units="mm"
     inkscape:window-width="1280"
     inkscape:window-height="972"
     inkscape:window-x="-8"
     inkscape:window-y="-8"
     inkscape:window-maximized="1" />
  <metadata
     id="metadata5">
    <rdf:RDF>
      <cc:Work
         rdf:about="">
        <dc:format>image/svg+xml</dc:format>
        <dc:type
           rdf:resource="http://purl.org/dc/dcmitype/StillImage" />
        <dc:title></dc:title>
      </cc:Work>
    </rdf:RDF>
  </metadata>
  <g
     inkscape:label="Calque 1"
     inkscape:groupmode="layer"
     id="layer1"
     transform="translate(0,-176.99999)">
    <g
       transform="translate(101.42268,215.58876)"
       id="g4905">
      <path
         style="fill:#800080;stroke-width:0.26458335"
         d="m -41.637117,39.27839 -0.205899,-0.33315 0.301887,-0.10063 0.301887,-0.10063 -0.309443,-0.4955 -0.309444,-0.4955 0.420981,-0.47782 0.420982,-0.47782 0.112829,-1.02105 0.112826,-1.02106 -0.74399,-0.55005 -0.743992,-0.55006 v -0.33236 -0.33237 l 0.621191,-0.72218 0.621191,-0.72218 1.330079,-0.0202 1.330079,-0.0202 -0.643247,-0.59648 -0.643244,-0.59648 0.162798,-0.26342 0.162798,-0.26341 h -0.318238 -0.318238 l 0.173841,-2.18282 0.173842,-2.18281 0.289751,-2.03848 0.28975,-2.03847 -0.576828,-0.73332 -0.576829,-0.73332 0.306718,-0.10224 0.306721,-0.10224 0.285141,0.28514 0.285142,0.28514 0.353817,-0.45381 0.353814,-0.45382 -0.175104,0.49913 -0.175101,0.49912 0.240598,-0.10225 0.240599,-0.10223 1.696641,-1.78704 1.696643,-1.78704 -0.148579,-0.14858 -0.148582,-0.14858 -1.085041,0.29217 -1.08504,0.29218 v 0.3361 0.33611 l -0.398418,0.51359 -0.398417,0.51359 0.273529,-0.7643 0.273529,-0.7643 -0.07355,-0.042 -0.07355,-0.042 -0.740053,-0.31815 -0.740055,-0.31816 h -0.781299 -0.781301 v 0.1 0.1 l 0.412374,0.98695 0.412374,0.98695 -0.119769,0.11977 -0.119769,0.11977 -0.450966,-1.18084 -0.450967,-1.18084 -0.635388,-0.12146 -0.635389,-0.12146 v 0.22789 0.2279 l -0.198438,-0.009 -0.198437,-0.009 -0.642165,-0.53457 -0.642168,-0.53456 0.774459,-0.76692 0.774457,-0.76691 1.247497,-0.32961 1.2475,-0.32961 1.322083,0.33884 1.322083,0.33884 0.340837,-0.19657 0.340833,-0.19658 -0.189542,0.20992 -0.18954,0.20991 0.98329,0.71229 0.983292,0.71229 0.235003,0.0237 0.235,0.0236 0.223968,0.35333 0.223967,0.35333 -0.01455,0.39687 -0.01455,0.39688 -0.20854,-0.52917 -0.208539,-0.52917 -0.189328,0.85337 -0.189328,0.85336 -0.18157,-0.0596 -0.18157,-0.0596 -1.493412,1.62392 -1.493409,1.62391 -0.300717,0.56189 -0.300718,0.5619 0.05512,0.32773 0.05512,0.32774 -0.169664,0.92604 -0.169661,0.92604 -0.107106,1.54225 -0.107106,1.54225 0.28548,-0.28548 0.285493,-0.28545 h 0.989801 0.989804 l 0.16352,0.26458 0.163521,0.26458 0.447407,0.002 0.447406,0.002 0.7089,0.36985 0.708901,0.36985 0.150045,-0.15004 0.150045,-0.15005 -0.801944,-0.48769 -0.801944,-0.48769 -0.215953,-0.58377 -0.21595,-0.58378 0.108479,-0.40674 0.108482,-0.40674 0.750234,-0.91518 0.750231,-0.91519 1.099381,-0.0394 1.099378,-0.0394 0.515962,-0.96267 0.515961,-0.96267 v -0.7418 -0.74179 l 0.322212,-0.32221 0.322212,-0.32221 -0.4309,-0.85519 -0.430901,-0.85518 -0.137797,-0.62083 -0.1378,-0.62083 0.142504,-0.37136 0.142502,-0.37136 h 0.183123 0.183124 l 0.334862,0.92605 0.334862,0.92604 h 0.239151 0.239155 l -0.16895,0.44027 -0.168952,0.44028 0.276315,-0.17077 0.276317,-0.17077 -0.118763,2.63347 -0.118764,2.63348 0.44437,1.99736 0.444371,1.99735 -0.324774,0.39133 -0.324773,0.39133 h -0.359442 -0.35944 l -0.166015,0.66146 -0.166015,0.66146 h -0.37474 -0.37474 l -0.251487,0.66146 -0.251486,0.66145 h -0.5201 -0.520102 l -0.136694,0.22118 -0.136694,0.22118 -0.0641,0.95182 -0.0641,0.95181 -0.145548,-0.0137 -0.145547,-0.0137 -0.422537,0.0313 -0.422537,0.0314 -0.610134,0.52917 -0.610135,0.52916 -0.68712,0.004 -0.68712,0.004 -0.396875,0.27422 -0.396875,0.27423 0.49439,0.31704 0.494392,0.31703 0.533019,0.4146 0.533017,0.41461 -0.299805,0.56019 -0.299805,0.56019 v 0.50044 0.50044 l -0.682895,0.64143 -0.682892,0.64143 -1.49992,0.0123 -1.499918,0.0123 -0.436258,0.20415 -0.436258,0.20416 -0.205899,-0.33316 z m 2.202894,-2.51552 0.595313,-0.15954 v -0.44539 -0.44539 l -0.3175,-0.3175 -0.3175,-0.3175 h -0.47625 -0.47625 v 0.92604 0.92604 l 0.198437,-0.004 0.198438,-0.004 0.595312,-0.15954 z m 3.50573,-6.97699 V 29.5213 h -0.661459 -0.661458 v 0.26458 0.26459 h 0.661458 0.661459 z m 4.233333,-3.83646 v -0.39687 h -0.396875 -0.396875 v 0.39687 0.39688 h 0.396875 0.396875 z m -46.880859,12.65156 0.347265,-0.13897 0.159853,0.15985 0.159852,0.15986 -0.507118,-0.0209 -0.507118,-0.0209 0.347266,-0.13897 z m -0.744141,-0.61707 -0.396875,-0.26053 0.264583,-0.19844 0.264584,-0.19843 0.352452,-0.62651 0.352452,-0.62651 -0.246982,-0.24698 -0.246982,-0.24698 -1.117633,0.44719 -1.117633,0.44719 -0.412938,-0.41294 -0.412937,-0.41294 0.0055,-1.01284 0.0055,-1.01285 0.03052,-0.46302 0.03052,-0.46302 0.330729,-0.009 0.330729,-0.009 0.595313,-0.49663 0.595312,-0.49663 V 31.39672 31.1084 h -0.225101 -0.225101 l -0.854504,0.29788 -0.854504,0.29789 -0.62816,0.62816 -0.62816,0.62816 h -0.641173 -0.641173 l -0.980762,-0.40979 -0.980761,-0.40979 -0.918758,0.54208 -0.918757,0.5421 h -0.514007 -0.514043 v -0.25921 -0.25921 l -1.035988,-0.52852 -1.035988,-0.52852 -0.172931,-0.78735 -0.17293,-0.78734 -0.490158,-0.62314 -0.490158,-0.62313 -0.23528,-0.91065 -0.23528,-0.91064 -1.835956,-0.26459 -1.835956,-0.26458 -0.481728,-0.28557 -0.481727,-0.28557 0.218358,-1.56353 0.218359,-1.56353 0.724262,-0.34713 0.724261,-0.34713 0.285744,-0.53392 0.285744,-0.53391 -0.713937,-0.66166 -0.713937,-0.66165 0.200492,-1.23841 0.200491,-1.23841 -0.01,-0.64689 -0.01,-0.64688 -0.431604,-0.3156 -0.431605,-0.3156 -0.200327,-0.7573 -0.200327,-0.75731 0.30427,-2.38125 0.304271,-2.38125 0.05854,0.26458 0.05854,0.26459 0.11919,0.52916 0.11919,0.52917 0.20062,1.88473 0.20062,1.88473 0.850571,0.96875 0.850571,0.96874 0.01032,0.98299 0.01032,0.98298 1.194766,0.87918 1.194765,0.87918 0.292594,0.64217 0.292594,0.64218 h 0.313398 0.313399 l 0.437882,0.48385 0.437882,0.48385 v 0.56203 0.56203 l -0.298163,0.6544 -0.298163,0.6544 0.163532,0.61482 0.163533,0.61482 0.246481,0.37942 0.246481,0.37942 1.14492,-0.76495 1.144921,-0.76494 0.502744,-0.0819 0.502744,-0.0819 0.612426,0.40127 0.612426,0.40128 h 0.502794 0.502795 l 0.690261,0.54296 0.690261,0.54296 -0.517262,0.9651 -0.517262,0.9651 -1.129505,0.77451 -1.129506,0.77452 0.79375,-0.17659 0.79375,-0.17658 0.946646,-1.08564 0.946646,-1.08565 0.971583,0.18227 0.971584,0.18227 v -0.2487 -0.2487 l -0.506209,-1.68152 -0.506209,-1.68152 -0.176273,-0.85989 -0.176272,-0.8599 h -0.243561 -0.243561 l -0.0016,-0.59531 -0.0016,-0.59531 -0.395246,-0.75785 -0.395224,-0.75785 -0.0071,-0.56507 -0.0071,-0.56507 -0.985071,-0.61219 -0.985071,-0.61219 -0.632794,-0.51891 -0.632794,-0.5189 0.122275,-0.12227 0.122274,-0.12228 1.105832,0.81324 1.105832,0.81324 v -0.23456 -0.23455 l -0.330729,-0.34989 -0.330729,-0.34988 0.577918,0.29696 0.577919,0.29698 h 0.130647 0.130647 l 0.183591,-1.52136 0.183591,-1.52135 0.235283,-0.39688 0.235282,-0.39687 -0.109172,1.05833 -0.109172,1.05833 -0.168286,0.79375 -0.168285,0.79375 0.683938,-1.32291 0.683937,-1.32292 0.499494,-1.11944 0.499494,-1.11944 -0.207406,-0.12818 -0.207406,-0.12818 -0.572662,0.53351 -0.572661,0.53352 -0.263027,-0.16256 -0.263027,-0.16256 -0.161321,0.4204 -0.161322,0.4204 -0.331314,-0.27497 -0.331314,-0.27497 -0.629975,0.11626 -0.629975,0.11626 -0.132291,0.0281 -0.132292,0.0281 -0.488403,0.37004 -0.488403,0.37004 0.838931,1.27519 0.838932,1.27519 -0.58031,-0.66146 -0.580309,-0.66146 -0.483352,-0.6126 -0.483352,-0.6126 -0.811948,-0.0231 -0.811948,-0.0231 -0.194711,0.19732 -0.19471,0.19731 1.058333,0.92783 1.058333,0.92782 -0.396875,-0.2079 -0.396875,-0.2079 -0.727604,-0.52975 -0.727604,-0.52975 V 14.38991 13.9105 h -0.280198 -0.280198 l 0.163521,0.26459 0.163522,0.26458 h -0.288503 -0.288502 l -0.15481,-0.40343 -0.15481,-0.40343 0.669741,-1.01205 0.669741,-1.01204 1.217732,-0.57241 1.217733,-0.5724 1.305253,-0.14534 1.305253,-0.14534 1.385467,0.66306 1.385466,0.66306 0.212099,-0.13108 0.212098,-0.13109 -0.174223,0.45403 -0.174224,0.45402 0.308746,-0.19082 0.308746,-0.19082 -0.248047,0.65242 -0.248047,0.65241 -1.224802,2.67201 -1.224802,2.672 1.55664,4.81417 1.55664,4.81418 1.767115,0.32614 1.767115,0.32614 0.655074,0.74466 0.655075,0.74466 0.0084,0.31828 0.0084,0.31828 -0.28469,0.62482 -0.284689,0.62483 -0.705546,0.4281 -0.705545,0.4281 0.791798,0.28228 0.791797,0.28228 0.396875,0.23503 0.396875,0.23503 -0.0403,0.83532 -0.0403,0.83531 -0.621157,0.61802 -0.621155,0.61803 -0.475373,0.69304 -0.475373,0.69304 -0.715252,-0.004 -0.715252,-0.004 z m 0.264583,-6.74282 v -0.39687 h -0.264583 -0.264583 v 0.39687 0.39688 h 0.264583 0.264583 z m -7.845071,-2.90194 0.149044,-0.3884 -0.252564,-0.1561 -0.252563,-0.15609 -0.527948,0.36979 -0.527948,0.36979 0.174706,0.1747 0.174705,0.17471 h 0.456763 0.456761 z m -7.117853,-4.3967 -0.15489,-0.25062 -0.250617,0.15489 -0.250617,0.15489 0.15489,0.25062 0.15489,0.25062 0.250617,-0.15489 0.250617,-0.15489 z m 26.33102,13.51393 -0.935027,-0.16028 -0.287568,-0.17773 -0.28757,-0.17773 -0.21286,-0.8654 -0.212863,-0.8654 -0.07362,-0.52917 -0.07362,-0.52916 -0.17203,-1.0695 -0.172029,-1.06949 0.688919,-0.3139 0.688922,-0.31389 v -0.38335 -0.38334 l 0.664605,-0.52278 0.664604,-0.52277 0.491836,0.12861 0.491837,0.12862 0.165431,-0.65913 0.165433,-0.65914 0.410864,-4.51026 0.410866,-4.51027 -0.431676,-0.83477 -0.431673,-0.83476 0.286435,0.17703 0.286438,0.17702 V 18.06702 17.9586 l -0.242707,-0.76709 -0.24271,-0.76709 -0.164772,-0.74977 -0.16477,-0.74977 0.248603,0.15364 0.248602,0.15365 0.317559,1.32373 0.317558,1.32373 0.172048,-0.003 0.172048,-0.003 0.863917,-1.57289 0.86392,-1.5729 -0.539681,-0.28883 -0.539681,-0.28883 -1.250281,-0.005 -1.250278,-0.005 -0.966922,-0.0485 -0.966923,-0.0485 0.122643,-0.19844 0.122639,-0.19843 h -0.302429 -0.302432 l 0.81335,-1.02694 0.813348,-1.02694 0.971259,-0.46089 0.971259,-0.46089 1.404096,0.14491 1.404094,0.14492 0.736134,0.43492 0.736134,0.43491 0.598718,0.84185 0.59872,0.84185 -0.405815,0.2978 -0.405815,0.2978 -1.065252,0.17034 -1.06525,0.17034 0.136438,0.22076 0.136437,0.22076 -0.79789,1.25815 -0.797888,1.25814 0.111059,0.30191 0.111061,0.30192 -0.464931,0.52917 -0.464929,0.52917 -0.166388,3.0427 -0.166386,3.04271 -0.168682,2.22644 -0.168683,2.22644 0.502947,-0.21874 0.502946,-0.21874 1.058333,-0.11923 1.058334,-0.11923 0.323228,-0.261 0.323228,-0.26099 0.896218,-0.20213 0.89622,-0.20213 1.289688,0.19572 1.289688,0.19573 0.926531,-0.49659 0.926528,-0.49659 h 0.842373 0.842372 l 0.770729,0.44234 0.770726,0.44233 0.334507,0.75571 0.33451,0.75571 -0.14945,0.38945 -0.149447,0.38946 h 0.264584 0.264583 l 0.156078,-0.40673 0.156075,-0.40673 -0.455311,-0.50311 -0.455314,-0.50312 0.423225,-0.60423 0.423222,-0.60424 v -0.58476 -0.58475 l 0.463021,-0.13471 0.463021,-0.1347 1.023062,-0.15118 1.023061,-0.15117 0.233709,-0.14444 0.23371,-0.14444 v -0.46064 -0.46063 l 0.315192,-0.3152 0.315196,-0.31519 -0.31483,-1.25908 -0.314831,-1.25907 0.342861,-1.13404 0.34286,-1.13403 0.194024,0.19403 0.194027,0.19402 -0.07423,-0.88329 -0.07423,-0.88328 0.306671,-0.10897 0.306673,-0.10896 -0.133159,2.06455 -0.133157,2.06455 0.308626,1.19062 0.308626,1.19063 0.282016,1.26432 0.282017,1.26431 -0.158356,0.15836 -0.158356,0.15835 -1.134967,0.25006 -1.134967,0.25006 -0.542528,0.065 -0.542528,0.065 -0.317368,0.19614 -0.317368,0.19615 v 0.49553 0.49554 l 0.79375,0.5652 0.79375,0.5652 v 0.46247 0.46246 l -0.984879,0.87195 -0.98488,0.87194 -1.462516,-0.20011 -1.462516,-0.20011 -0.529167,-0.002 -0.529167,-0.002 -1.124032,0.2063 -1.124032,0.20629 -0.860343,-0.92403 -0.860343,-0.92402 -0.617974,-0.32178 -0.617971,-0.32178 -0.165762,0.16576 -0.165761,0.16576 0.320712,0.51354 0.320715,0.51355 -0.004,0.73119 -0.004,0.7312 -0.230087,0.36323 -0.230087,0.36323 -0.890341,-0.12448 -0.890339,-0.12447 -0.439224,-0.19179 -0.439222,-0.19178 0.05873,1.47957 0.05873,1.47958 -1.108377,0.61948 -1.108374,0.61948 -1.289259,0.11572 -1.289262,0.11572 -0.935029,-0.16029 z m 2.875624,-2.61076 0.353097,-0.22382 -0.597451,-0.15624 -0.597447,-0.15623 -0.218668,0.13514 -0.218667,0.13514 v 0.24897 0.24897 l 0.463021,-0.004 0.46302,-0.004 0.353095,-0.22382 z m -0.905211,-1.69247 -0.170403,-0.53688 1.485739,0.17461 1.485739,0.17462 v -0.15199 -0.152 l -0.279056,-0.52142 -0.279054,-0.52142 -0.977717,0.0758 -0.977715,0.0758 -0.322315,0.39687 -0.322313,0.39688 -0.0084,0.46302 -0.0084,0.46302 h -0.396875 -0.396875 v 0.22789 0.2279 l 0.669038,-0.1279 0.669039,-0.1279 z m -0.638509,-0.0444 v -0.11668 l -0.264583,-0.16352 -0.264583,-0.16352 v 0.2802 0.2802 h 0.264583 0.264583 z m 12.170834,-3.03002 v -0.23627 l -0.371007,-0.14237 -0.371009,-0.14237 -0.158158,0.15816 -0.15816,0.15816 v 0.22048 0.22049 h 0.529167 0.529167 z m -4.509519,-9.13195 -0.67306,-0.3811 -0.768102,-1.46813 -0.768098,-1.46814 0.800557,-0.99939 0.800561,-0.99939 0.574455,-0.26117 0.574456,-0.26118 v -0.45081 -0.45082 l -0.264584,-0.16352 -0.264583,-0.16352 v -0.60483 -0.60484 l 0.54034,-0.489 0.540343,-0.48901 -1.401758,-0.6978 -1.401754,-0.69781 -1.304211,-0.17876 -1.30421,-0.17877 -0.6125,-0.40132 -0.6125,-0.40133 V 8.38417 7.6322 l 0.529167,-0.67272 0.529166,-0.67273 V 5.68581 5.08487 l 0.258771,-0.81253 0.258768,-0.81254 0.526518,-1.5875 0.526515,-1.5875 0.686253,-2.38125 0.686252,-2.38125 0.248253,-0.25135 0.248254,-0.25136 -0.0083,0.25136 -0.0083,0.25135 -0.483939,2.79269 -0.483939,2.7927 -0.332705,0.62166 -0.332706,0.62167 -0.08233,1.67887 -0.08233,1.67887 0.179687,-0.009 0.179686,-0.009 1.058334,-0.51121 1.058333,-0.51121 0.576051,-0.009 0.576048,-0.009 0.831003,0.99218 0.831004,0.99219 -0.123471,0.98 -0.12347,0.98 1.22996,0.17316 1.229958,0.17316 0.623475,0.39275 0.623475,0.39274 -0.141925,0.70306 -0.141926,0.70305 -0.179128,0.46302 -0.179128,0.46302 h 0.677778 0.677775 l 0.13739,-0.8599 0.137388,-0.85989 0.371668,-2.91042 0.371668,-2.91042 0.03048,-0.74387 0.03048,-0.74387 -0.373772,-0.72279 -0.373774,-0.7228 0.507682,-0.0382 0.507683,-0.0383 v 0.54512 0.54512 l 0.396875,-0.32937 0.396875,-0.32938 v 0.50865 0.50864 l -0.278577,0.27858 -0.278575,0.27857 -0.380685,2.8832 -0.380685,2.8832 -0.0021,1.25677 -0.0021,1.25677 h 0.514043 0.514043 l 0.927674,0.54734 0.927674,0.54734 0.422749,1.4542 0.422746,1.4542 -0.162502,0.512 -0.162505,0.512 h -0.379044 -0.379045 v 0.38625 0.38626 l -1.061723,0.3181 -1.061722,0.3181 -0.632841,-0.33869 -0.632839,-0.33868 -0.289814,0.17911 -0.289811,0.17911 v -0.28019 -0.2802 h -0.407588 -0.407591 l -0.754052,-0.5575 -0.754052,-0.55749 -0.756589,0.36101 -0.756586,0.36101 -0.08372,0.72565 -0.08372,0.72565 1.274344,0.003 1.274345,0.003 0.595312,0.91906 0.595313,0.91905 v 0.40059 0.40058 h -0.38126 -0.381262 l -0.16352,-0.26458 -0.163521,-0.26458 h -0.661504 -0.661458 l 0.136266,0.22048 0.136268,0.22049 -0.31909,0.0343 -0.31909,0.0344 -1.190625,0.14638 -1.190625,0.14639 -0.673061,-0.3811 z m 7.637772,-5.62495 -0.08555,-0.4411 -0.330729,-0.11012 -0.330729,-0.11012 v 0.55122 0.55122 h 0.416274 0.416277 z m -7.62617,-7.6287 V 7.29626 h -0.396875 -0.396875 v 0.39687 0.39688 h 0.396875 0.396875 z m 16.695311,9.57912 -0.350281,-0.58328 0.47684,0.45672 0.47684,0.45672 -0.126559,0.12656 -0.126558,0.12656 z m -24.870833,-0.26459 -0.350282,-0.58328 0.47684,0.45672 0.47684,0.45673 -0.126558,0.12655 -0.126558,0.12656 z m -8.063203,-4.08901 -1.018897,-0.7276 -1.223516,-0.26573 -1.223515,-0.26573 -0.100156,-0.52802 -0.100156,-0.52802 -0.173941,-0.13229 -0.173942,-0.13229 -0.420709,-0.66305 -0.420708,-0.66305 -1.230623,-0.32914 -1.230623,-0.32914 h -0.748946 -0.748945 l -0.457355,-0.50537 -0.457354,-0.50537 -0.659422,-0.1655 -0.659421,-0.16551 -0.368157,-0.88112 -0.368157,-0.88113 -0.911165,-0.43237 -0.911164,-0.43238 h -1.290205 -1.290205 l -0.588038,-0.41188 -0.588038,-0.41187 v -0.7567 -0.7567 l 0.223496,-0.0882 0.223495,-0.0882 0.371817,-0.7816 0.371817,-0.78161 1.265447,-0.39202 1.265448,-0.39202 1.248094,0.44733 1.248094,0.44733 0.478636,-0.001 0.478636,-0.001 -0.152797,-0.24723 -0.152797,-0.24723 -1.436852,-0.4177 -1.436851,-0.41771 -0.199563,-0.3229 -0.199563,-0.3229 -0.07152,-3.1272 -0.07152,-3.1272 -0.121799,-0.19708 -0.121799,-0.19707 0.217544,-0.352 0.217544,-0.35199 0.294165,0.1818 0.294164,0.18181 v 0.9474 0.94741 l 0.399966,0.29375 0.399965,0.29375 0.128186,0.66146 0.128186,0.66146 0.168102,0.88841 0.168102,0.88841 1.077975,0.48262 1.077975,0.48262 0.210146,-0.12987 0.210147,-0.12985 v 0.39753 0.39753 l 0.774041,0.45724 0.774041,0.45724 0.463964,1.02889 0.463965,1.02888 -0.345571,0.97623 -0.345571,0.97623 -0.263373,0.33073 -0.263373,0.33073 h -0.629064 -0.629062 v 0.53769 0.53769 l 0.595313,0.22129 0.595312,0.2213 0.318458,-0.12113 0.318457,-0.12112 0.60031,0.42047 0.60031,0.42047 h 0.61089 0.610891 l 0.175414,-0.45712 0.175413,-0.45712 0.897557,-0.89755 0.897557,-0.89756 1.101538,0.18934 1.101538,0.18934 0.595313,0.0409 0.595312,0.0409 V 4.1938 4.39791 l 0.611639,0.27868 0.611639,0.27868 0.620625,1.13611 0.620628,1.13611 -0.159713,0.4162 -0.159711,0.41621 -0.642212,0.42079 -0.642214,0.42079 -1.356382,0.16065 -1.356382,0.16064 v 0.21842 0.21842 l 0.511773,0.27389 0.511772,0.27389 h 0.778748 0.778747 l 0.329377,-0.39687 0.329377,-0.39688 h 0.878649 0.878647 l 0.640837,1.07464 0.640839,1.07464 0.0069,-6.56474 0.0069,-6.56474 -0.485056,-0.79375 -0.485055,-0.79375 -0.478364,-0.46568 -0.478367,-0.46568 -1.455208,-1.67786 -1.455208,-1.67787 -0.727604,0.1261 -0.727605,0.12609 v -0.44258 -0.44258 l 0.727605,-0.67546 0.727604,-0.67546 0.75834,-0.39293 0.758339,-0.39293 2.835148,0.10904 2.835145,0.10903 0.715663,0.50897 0.715664,0.50896 0.538983,1.01985 0.538985,1.01985 -0.264046,-0.16319 -0.264049,-0.1632 -0.121624,0.46627 -0.121629,0.46626 -0.03069,-0.46302 -0.03069,-0.46303 h -0.414269 -0.414268 l -0.510911,0.27344 -0.510908,0.27342 -0.530029,1.03895 -0.530032,1.03895 v 0.15844 0.15845 l 0.264584,-0.16352 0.264583,-0.16352 -0.0209,0.61092 -0.02088,0.61093 -0.133453,-0.33073 -0.133453,-0.33073 h -0.270841 -0.270843 l 0.144872,0.37754 0.144873,0.37752 -0.385866,0.32024 -0.385863,0.32024 0.02574,6.37984 0.02574,6.37983 -0.02103,1.53355 -0.02101,1.53354 -1.19393,-0.0618 -1.193929,-0.0618 -0.314196,0.31419 -0.314206,0.3142 h -0.67783 -0.677831 z M -75.35141,6.50251 V 6.23792 h -0.513552 -0.513551 l -0.163522,0.26459 -0.163521,0.26458 h 0.677073 0.677073 z M -86.993077,2.53376 V 2.26917 h -0.661458 -0.661458 v 0.26459 0.26458 h 0.661458 0.661458 z m 18.002692,-7.2099 0.782307,-1.65364 2.09e-4,-0.31512 2.09e-4,-0.31511 -0.198437,-0.12147 -0.198438,-0.12147 -1.558695,-0.19388 -1.558692,-0.19388 0.183372,0.2967 0.183375,0.29671 -0.410617,-0.15757 -0.410618,-0.15757 v 0.31179 0.31179 l -0.415774,-0.41577 -0.415774,-0.41578 h -0.642559 -0.64256 v 0.0907 0.0907 l 1.46217,1.53396 1.462172,1.53396 0.146764,-0.14676 0.146767,-0.14677 -0.302749,-0.56569 -0.302749,-0.5657 0.08502,-0.44146 0.08502,-0.44146 0.791609,1.77761 0.791607,1.77761 0.07738,5.3e-4 0.07738,5.3e-4 0.782304,-1.65364 z m 19.220498,6.65627 -0.135202,-0.51702 0.756044,-1.41679 0.756044,-1.4168 -0.845352,-0.15425 -0.845349,-0.15425 -0.595312,-0.17345 -0.595313,-0.17345 -0.02087,0.49388 -0.02088,0.49388 -0.133453,-0.33073 -0.133453,-0.33073 h -0.491504 -0.491503 l -0.16352,-0.26458 -0.163521,-0.26458 h -0.409569 -0.409567 l 0.164081,0.46302 0.164081,0.46302 -0.466502,-0.57155 -0.466503,-0.57154 -0.520666,-0.0919 -0.520668,-0.0919 0.785252,-0.74354 0.785248,-0.74354 1.038797,-0.5404 1.038799,-0.5404 1.077868,0.14244 1.07787,0.14245 0.62825,0.14244 0.628248,0.14245 0.610904,0.40028 0.610905,0.40028 0.679077,0.89032 0.679074,0.89031 v 0.17346 0.17346 l -0.859896,0.004 -0.859896,0.004 -0.277286,0.19438 -0.277286,0.19439 -0.705641,1.22194 -0.705638,1.22193 0.167127,0.16713 0.167126,0.16713 h -0.359248 -0.359252 l 0.484566,0.35432 0.484566,0.35432 -0.407924,0.15654 -0.407926,0.15653 -0.135203,-0.51701 z m 1.67056,-1.21217 V 0.5209 l 0.903124,-0.87534 0.903121,-0.87535 0.222549,0.0958 0.222551,0.0958 -1.125672,1.02657 -1.125673,1.02658 z m -4.7625,-0.88004 -0.283202,-0.52916 h 0.132292 0.132292 l 0.283202,0.52916 0.283202,0.52917 h -0.132292 -0.132292 z m -13.887958,-6.08973 0.16619,-0.2689 0.246301,0.15223 0.246301,0.15222 v 0.11668 0.11667 h -0.412491 -0.412488 z"
         id="path473"
         inkscape:connector-curvature="0" />
      <path
         style="fill:#ff00ff;stroke-width:0.26458335"
         d="m -40.604083,38.36199 -0.143526,-0.37402 0.142177,-0.37051 0.142176,-0.37051 1.076756,-0.18191 1.076757,-0.18192 V 36.37721 35.8713 h -0.233725 -0.233725 l -0.139306,-0.53271 -0.139303,-0.5327 -0.961525,-0.40175 -0.961525,-0.40175 -0.221681,-0.5869 -0.221681,-0.5869 0.233037,-0.4451 0.233039,-0.4451 0.595593,-0.18986 0.595593,-0.18984 0.926042,0.0278 0.926042,0.0279 -0.481608,-0.3617 -0.481611,-0.36169 -0.184475,-1.28016 -0.184476,-1.28016 0.733079,-0.61954 0.733078,-0.61955 1.388213,0.33711 1.388216,0.33711 0.251354,0.21629 0.251355,0.21629 h 0.343958 0.343958 v -0.27113 -0.27113 l -0.645371,-0.24537 -0.645372,-0.24537 -0.28067,-0.52444 -0.28067,-0.52444 v -0.36617 -0.36617 l 0.850371,-1.10643 0.850371,-1.10643 h 1.137591 1.13759 l 0.714713,-1.52136 0.714714,-1.52135 0.09286,0.5877 0.09286,0.58771 -0.258805,0.46246 -0.258805,0.46245 0.380487,0.73578 0.380484,0.73578 h -0.21468 -0.214683 v 0.52916 0.52917 h 0.238747 0.238744 l -0.13838,0.52917 -0.13838,0.52916 h 0.254773 0.25477 l -0.468098,0.79243 -0.468098,0.79243 -0.274466,-0.03 -0.274463,-0.03 -0.396875,0.0354 -0.396875,0.0354 0.364628,0.23095 0.364625,0.23095 -0.192953,0.3122 -0.19295,0.3122 -0.366937,-0.14081 -0.36694,-0.1408 0.05293,0.18891 0.05293,0.18892 -0.384333,0.59531 -0.384337,0.59531 h -0.465524 -0.465521 l -0.03133,0.33073 -0.03133,0.33073 0.04047,0.22584 0.04046,0.22584 -0.154958,0.48823 -0.154959,0.48823 -0.561441,0.17819 -0.561437,0.1782 -0.533252,0.4968 -0.533249,0.4968 h -0.648547 -0.648544 l -0.351483,0.46302 -0.351483,0.46302 -0.0084,0.19843 -0.0084,0.19844 h 0.377671 0.377672 l 0.575013,0.72761 0.575014,0.7276 -0.734224,0.0882 -0.734227,0.0882 0.346517,0.21416 0.346517,0.21416 -0.173141,0.68986 -0.173143,0.68986 -0.590272,0.004 -0.590272,0.004 0.396875,0.25648 0.396875,0.25648 -0.132292,0.0382 -0.132292,0.0382 -1.141552,0.0753 -1.141551,0.0753 -0.143528,-0.37403 z m 4.67559,-8.54303 v -0.23152 l -0.83601,-0.1672 -0.836009,-0.1672 -0.148516,0.14852 -0.148516,0.14851 0.389213,0.24615 0.389213,0.24614 0.595312,0.004 0.595313,0.004 v -0.23151 z m 4.233333,-3.86954 v -0.39687 h -0.520864 -0.520862 l 0.152295,0.39687 0.152296,0.39688 h 0.368568 0.368567 z m -47.048089,11.19937 0.08455,-0.57458 0.264584,-0.0826 0.264583,-0.0826 0.396875,0.26531 0.396875,0.26531 -0.513591,0.39184 -0.51359,0.39185 h -0.232416 -0.232415 z m 11.967138,-0.64979 0.139343,-0.36312 h -0.203361 -0.203364 l -0.286549,0.28655 -0.286549,0.28655 -0.361681,-0.43746 -0.36168,-0.43746 -0.46302,-0.43706 -0.463021,-0.43705 V 33.82812 32.6963 l 0.463021,-0.0209 0.46302,-0.0209 -0.3268,-0.13214 -0.326797,-0.13214 0.399738,-0.77302 0.39974,-0.77301 h 0.633024 0.633026 l 0.418512,0.1606 0.418516,0.1606 v 0.36177 0.36178 l -0.802402,0.41494 -0.802399,0.41493 0.142589,0.23072 0.142592,0.23072 -0.332378,0.12391 -0.332377,0.12392 0.595312,0.61894 0.595313,0.61893 v -0.32338 -0.32338 h 0.292891 0.292891 l -0.165195,0.4305 -0.165196,0.43049 0.467617,0.35484 0.467617,0.35484 1.190625,0.027 1.190625,0.027 -0.529167,0.21287 -0.529167,0.21289 -0.238574,-0.13961 -0.238578,-0.13961 -0.290589,0.39477 -0.290592,0.39476 -0.742958,0.14107 -0.742958,0.14107 0.13934,-0.36312 z m -10.956549,-0.75999 0.329377,-0.39688 h -0.674956 -0.674957 l -0.415773,-0.41577 -0.415774,-0.41578 v 0.28349 0.28348 l -0.727604,0.004 -0.727605,0.004 0.396875,0.25648 0.396875,0.25648 -0.542395,0.004 -0.542396,0.004 -0.3175,-0.3175 -0.3175,-0.3175 V 34.20965 33.4478 l 0.768561,0.1688 0.768562,0.1688 0.173095,-0.28007 0.173095,-0.28006 h -0.70947 -0.70947 l 0.329377,-0.39688 0.329377,-0.39687 h 0.620757 0.620758 l -0.152295,0.39687 -0.152296,0.39688 h 0.938735 0.938734 l 0.163521,0.26458 0.163522,0.26458 -0.875511,0.004 -0.875511,0.004 0.359104,0.22753 0.359103,0.22754 0.831522,-0.0698 0.831521,-0.0698 -0.07343,-0.49249 -0.07344,-0.49248 0.542582,0.63219 0.542582,0.63219 -0.170799,0.55844 -0.170799,0.55843 -0.264599,0.33073 -0.264597,0.33073 h -0.529168 -0.529167 z m 13.030729,-0.84385 0.463021,-0.121 V 34.46033 34.1465 l -0.529167,-0.33047 -0.529166,-0.33047 v 0.26683 0.26683 l -0.198438,-1.9e-4 -0.198437,-1.9e-4 -0.03958,-0.68416 -0.03958,-0.68417 1.542397,0.17901 1.542396,0.17902 -0.14461,-0.553 -0.144611,-0.55299 h 1.130199 1.1302 l -0.473244,-0.52293 -0.473242,-0.52293 -0.23354,0.14434 -0.233537,0.14433 0.135869,0.21985 0.135871,0.21984 h -0.914865 -0.914869 l -0.31392,-0.37825 -0.31392,-0.37826 0.283615,-0.62246 0.283615,-0.62247 1.276638,-0.28697 1.276638,-0.28696 1.5875,-0.1582 1.5875,-0.15819 1.649511,-0.39106 1.649507,-0.39106 1.051299,0.28309 1.0513,0.28309 0.195855,0.3169 0.195858,0.3169 0.01376,0.6681 0.01376,0.66809 h 0.39325 0.393253 l 0.08298,-0.43091 0.08299,-0.4309 -0.440594,-0.4406 -0.440595,-0.44059 0.427379,-0.47225 0.427379,-0.47225 v -0.40979 -0.40979 l 0.330729,-0.26831 0.330729,-0.2683 1.537502,-0.31537 1.537504,-0.31537 0.380725,0.1461 0.380727,0.1461 v 0.23042 0.23041 l -0.673907,0.30705 -0.673909,0.30706 h -0.913591 -0.913593 v 0.51355 0.51355 l -0.284482,0.17582 -0.28448,0.17582 0.509637,0.5674 0.509641,0.5674 0.163412,0.46302 0.163414,0.46302 h -0.256278 -0.25628 v 0.33229 0.33229 l -0.779365,0.34498 -0.779365,0.34498 -2.794992,-0.25896 -2.794995,-0.25897 -0.811567,-0.68288 -0.811567,-0.68289 h -0.747117 -0.74712 l 0.08524,0.91719 0.08524,0.91719 -0.310012,0.66824 -0.310012,0.66825 -0.674688,0.002 -0.674687,0.002 -0.3175,-0.3175 -0.3175,-0.3175 v 0.30548 0.30547 l -0.673484,0.67348 -0.673486,0.67349 h 0.276611 0.276609 v 0.26458 0.26458 l -0.992188,-0.0307 -0.992187,-0.0307 0.46302,-0.121 z m 4.095531,-2.6233 -0.159854,-0.15985 -0.347265,0.13897 -0.347266,0.13896 0.507119,0.0209 0.507116,0.0209 -0.15985,-0.15986 z m 6.361811,-2.26864 -0.103942,-0.31182 -0.439992,-0.27754 -0.439988,-0.27754 -0.335802,0.3358 -0.335798,0.3358 0.394663,0.24951 0.394663,0.24951 0.485069,0.004 0.485071,0.004 -0.103944,-0.31183 z m -35.129738,2.16391 v -0.26458 h -0.493485 -0.493485 l -0.69714,-0.54837 -0.69714,-0.54837 v -0.48966 -0.48967 l -0.677331,-0.80496 -0.677331,-0.80496 -0.130226,-0.71815 -0.130226,-0.71815 -0.109978,-0.17796 -0.109978,-0.17794 1.115973,0.25667 1.115972,0.25667 0.469026,0.23946 0.469025,0.23946 0.16043,-0.41808 0.160429,-0.41807 0.362733,0.13919 0.362732,0.1392 v -0.34839 -0.34839 l 1.04093,-0.46939 1.04093,-0.4694 1.009591,0.60514 1.009591,0.60514 0.480282,0.40986 0.480283,0.40988 -0.480283,0.18935 -0.480282,0.18936 0.463021,0.0186 0.463021,0.0186 v 0.26458 0.26458 h -0.510765 -0.510764 l -0.08455,0.59531 -0.08455,0.59532 -0.79375,0.0865 -0.79375,0.0865 -0.225071,0.21794 -0.225072,0.21794 0.555801,0.1764 0.5558,0.17641 v 0.53338 0.53339 l 0.330729,-0.11564 0.330729,-0.11565 -0.07314,-0.41552 -0.07314,-0.41552 0.526167,-0.167 0.526167,-0.167 0.544629,0.29148 0.544628,0.29147 0.201304,-0.12441 0.201304,-0.12441 0.0648,-0.85044 0.0648,-0.85044 0.134669,-0.2179 0.134669,-0.2179 0.631123,0.23995 0.631124,0.23996 1.32831,-0.0303 1.32831,-0.0302 0.942015,0.64008 0.942014,0.64009 0.159087,0.49253 0.159087,0.49252 -0.424068,0.42407 -0.424069,0.42407 v -0.2926 -0.29259 l -0.661458,-0.16602 -0.661459,-0.16602 v -0.25954 -0.25954 h -0.388571 -0.388571 l 0.152296,-0.39688 0.152295,-0.39687 h -0.573089 -0.573089 l 0.163521,0.26458 0.163522,0.26459 h -0.390442 -0.390441 l -0.09938,0.29814 -0.09938,0.29814 -1.377876,0.13239 -1.377877,0.1324 v 0.28149 0.28149 l -0.391847,-0.51359 -0.391847,-0.51359 -0.258594,0.39466 -0.258594,0.39467 0.18742,0.18178 0.18742,0.18179 0.852731,0.085 0.85273,0.085 -0.191272,0.28973 -0.191272,0.28973 -0.990065,-0.11999 -0.990065,-0.12 0.10245,-0.16973 0.102452,-0.16974 -1.304145,-0.0645 -1.304144,-0.0645 -0.151653,0.3952 -0.151653,0.39521 h -0.500859 -0.50086 z m 0,-0.79375 -0.396875,-0.25648 -0.198437,-0.004 -0.198438,-0.004 v 0.26458 0.26459 l 0.595313,-0.004 0.595312,-0.004 z m 1.058334,0 V 31.1088 h -0.280198 -0.280199 l 0.163522,0.26458 0.163521,0.26459 h 0.116677 0.116677 z m 0.79375,-0.79375 v -0.26458 h -0.264584 -0.264583 v 0.26458 0.26459 h 0.264583 0.264584 z m 1.389517,-1.77791 -0.330274,-0.11797 0.171439,-0.68306 0.171438,-0.68307 -0.428004,0.16424 -0.428003,0.16424 -0.141028,-0.22818 -0.141029,-0.22819 -0.520236,0.13604 -0.520235,0.13605 -0.310954,0.37467 -0.310954,0.37468 0.138746,0.13875 0.138746,0.13874 1.28802,0.33218 1.288019,0.33217 0.132292,-0.11666 0.132291,-0.11666 z m -4.564517,-0.60334 V 27.9338 h -0.264584 -0.264583 v 0.26458 0.26459 h 0.264583 0.264584 z m 1.923265,-0.9673 -0.325694,-0.13177 -0.468056,0.12197 -0.468057,0.12197 0.79375,0.01 0.79375,0.01 -0.325693,-0.13177 z m 1.516318,-0.47229 v -0.11668 l -0.246301,-0.15222 -0.246301,-0.15222 -0.166189,0.2689 -0.166189,0.2689 h 0.41249 0.41249 z m 2.711856,2.96095 0.110119,-0.33073 0.440168,-0.0854 0.440168,-0.0854 -0.159671,0.4161 -0.159672,0.4161 h -0.390616 -0.390616 z m -7.582799,-3.41203 0.18737,-0.30317 -0.684707,0.17185 -0.684706,0.17185 -0.146956,-0.23778 -0.146955,-0.23778 -0.993739,0.21005 -0.993739,0.21006 -1.190625,-0.17561 -1.190625,-0.1756 0.07678,-0.65754 0.07678,-0.65753 0.07696,-0.86812 0.07696,-0.86812 0.243134,-0.23068 0.243134,-0.23068 0.522521,-0.0942 0.522521,-0.0942 0.327553,-0.65701 0.327554,-0.657 -0.635934,-0.53128 -0.635934,-0.53127 -0.0635,-0.52917 -0.0635,-0.52917 0.207767,-1.40976 0.207768,-1.40976 -0.553639,-0.51579 -0.553638,-0.51579 -0.147079,-0.58799 -0.147078,-0.58799 0.241561,-2.11667 0.241561,-2.11666 0.06594,1.85208 0.06594,1.85208 -0.034,0.20643 -0.03399,0.20643 0.406332,0.78576 0.406333,0.78576 h 0.231906 0.231906 l 0.271249,0.77811 0.27125,0.7781 -0.281414,0.0938 -0.281413,0.0938 0.366776,0.62972 0.366776,0.62971 0.529166,0.66468 0.529167,0.66467 0.705735,0.67797 0.705734,0.67797 0.90767,0.79251 0.90767,0.79251 -0.17711,0.6627 -0.17711,0.6627 -0.774836,0.14387 -0.774836,0.14388 0.696217,0.18402 0.696218,0.18401 0.136426,0.71367 0.136427,0.71368 -0.133347,0.34749 -0.133348,0.3475 h -0.384183 -0.384182 z m -1.74364,-2.18503 v -0.3656 l -0.441868,-0.16956 -0.441867,-0.16956 -0.21554,0.33969 -0.215539,0.33969 -0.0041,0.14073 -0.004,0.14073 0.661459,0.0547 0.661458,0.0547 v -0.36561 z m 46.83125,-0.14202 v -1.04272 l -0.264584,-0.16352 -0.264583,-0.16352 v -0.89481 -0.89481 l 0.232185,-0.1435 0.232185,-0.1435 0.157507,1.38466 0.157503,1.38465 0.169508,0.8599 0.169506,0.85989 h -0.294614 -0.294613 z m -11.562522,-4.11099 -0.803614,-0.84459 -0.455996,-0.69593 -0.455996,-0.69594 0.553646,-0.77753 0.553648,-0.77753 v -0.22714 -0.22715 l 0.595313,-0.26189 0.595312,-0.26189 -0.08328,-1.36987 -0.08328,-1.36987 0.546301,-0.29237 0.546301,-0.29237 v -0.22442 -0.22441 l -0.530259,-0.13867 -0.530257,-0.13867 0.176062,-0.45881 0.176064,-0.45881 -0.93208,0.17486 -0.932079,0.17486 -0.309978,-0.3735 -0.30998,-0.3735 -1.297075,0.0131 -1.297078,0.0131 -0.678545,-0.4446 -0.678545,-0.4446 V 8.4932 8.11488 l 0.307054,-0.67391 0.307052,-0.67391 h 0.222115 0.222112 V 6.04654 5.32601 l 0.904619,-2.7852 0.904618,-2.78521 0.416441,-1.36695 0.416444,-1.36696 0.273841,-0.72026 0.273843,-0.72026 0.132292,0.13229 0.132292,0.13229 -0.268066,0.70507 -0.268065,0.70506 -0.119258,0.5884 -0.119261,0.58841 -0.246867,1.25403 -0.246864,1.25403 -0.350491,0.42231 -0.350491,0.42232 -0.189333,1.60574 -0.189331,1.60574 0.136584,0.35593 0.136586,0.35594 h 1.014409 1.014413 l 0.16352,-0.26459 0.163521,-0.26458 h 0.448265 0.448265 l 0.669644,0.72761 0.669642,0.7276 -0.04212,0.33073 -0.04212,0.33073 -0.03307,0.26458 -0.03307,0.26458 h -0.433854 -0.43385 l -0.342088,-0.46302 -0.342085,-0.46302 -0.32059,0.31601 -0.320593,0.31601 0.33488,0.80847 0.334878,0.80847 h 0.444151 0.444151 l 0.3175,0.3175 0.3175,0.3175 V 9.48143 9.17954 L -57.624329,9.01602 -57.888912,8.8525 V 8.60353 8.35456 l 0.463021,0.006 0.463021,0.006 0.661458,0.5174 0.661458,0.5174 0.727604,0.006 0.727605,0.006 0.0418,0.33073 0.0418,0.33073 0.0369,1.12448 0.03689,1.12447 h -0.362181 -0.362182 l -0.380006,0.38001 -0.380005,0.38 0.21916,0.13546 0.219162,0.13544 0.775055,-0.47118 0.775057,-0.47118 1.090917,-0.17432 1.090916,-0.17433 1.02575,0.81504 1.02575,0.81505 0.03066,0.885 0.03066,0.88501 -0.889979,0.94354 -0.889979,0.94355 h -0.617942 -0.617939 l -0.175573,-0.17557 -0.175569,-0.17558 -1.379726,-0.48588 -1.379722,-0.48589 h -0.965491 -0.965491 l 0.07614,0.95966 0.07614,0.95967 0.262449,0.26245 0.262445,0.26244 1.079765,-0.0149 1.079764,-0.0149 v 0.22636 0.22636 l 0.1606,0.41851 0.160599,0.41852 h -0.661458 -0.661458 l -0.166828,0.43474 -0.166828,0.43475 -0.139308,-0.13931 -0.139311,-0.13931 -0.868291,0.19583 -0.868289,0.19583 -0.803616,-0.84458 z m 7.547533,-5.29686 -0.08605,-0.0834 -1.037204,-0.088 -1.037203,-0.088 -0.0913,0.2739 -0.0913,0.27389 1.1285,0.54931 1.128504,0.54929 0.08605,-0.6517 0.08606,-0.6517 z m -4.716261,-1.70382 v -0.24814 l -0.529167,0.0399 -0.529167,0.0399 v 0.20828 0.20828 h 0.529167 0.529167 z M -61.725368,9.14838 -61.888889,8.8838 h -0.396875 -0.396875 l 0.163521,0.26458 0.16352,0.26458 h 0.396875 0.396875 z m 1.719791,-0.36857 V 8.67583 l -0.410617,-0.15757 -0.410618,-0.15757 0.16165,0.26155 0.161647,0.26156 h 0.248971 0.248967 z m 29.36875,10.96752 v -0.24897 l 0.286023,-0.17677 0.28602,-0.17677 -0.174707,-0.69609 -0.174707,-0.69609 -0.302088,-0.1867 -0.302091,-0.1867 0.173172,-0.17317 0.173173,-0.17318 0.261829,0.16182 0.261831,0.16182 0.172363,0.78477 0.172366,0.78477 -0.169839,0.53512 -0.169839,0.53511 h -0.246753 -0.246753 z m -8.069791,-3.25551 -0.529167,-0.31524 -1.5875,-0.0435 -1.5875,-0.0435 -0.768488,-0.30459 -0.768487,-0.30459 0.715494,-0.74681 0.715494,-0.74682 1.009732,-0.30252 1.009732,-0.30252 h 0.634497 0.634495 l 1.444149,0.52785 1.444149,0.52785 0.652094,0.6521 0.652095,0.6521 -0.380185,0.10285 -0.380188,0.10285 -0.79375,0.27215 -0.79375,0.27215 -0.396875,0.15772 -0.396875,0.15772 z m 7.540625,-0.46427 v -0.52917 h 0.264583 0.264583 v 0.52917 0.52917 h -0.264583 -0.264583 z m -34.008849,-1.82215 -1.59739,-0.16223 -0.751133,-0.55026 -0.751134,-0.55026 0.293518,-0.54844 0.293518,-0.54845 1.146355,-0.55494 1.146352,-0.55494 0.908651,0.006 0.908653,0.006 1.07913,0.49012 1.079129,0.49012 0.574517,0.73038 0.574516,0.73038 v 0.21959 0.21959 l -0.463021,0.24778 -0.463021,0.24778 -1.190625,0.12219 -1.190625,0.12219 -1.59739,-0.16222 z m -25.25773,-0.41044 -8.8e-5,-0.24821 0.595313,-0.8698 0.595312,-0.86981 1.277629,-0.69579 1.277629,-0.69578 1.897371,0.10195 1.897371,0.10196 0.765399,0.51027 0.765398,0.51027 -0.470114,0.27554 -0.470114,0.27553 -0.699997,0.56977 -0.699996,0.56977 -0.685812,-0.1311 -0.685812,-0.13111 -0.893851,0.47016 -0.893851,0.47016 -1.78585,0.0172 -1.785849,0.0172 -8.8e-5,-0.24821 z m 17.747884,-1.11421 -0.0209,-0.30408 -1.124479,-0.12106 -1.124479,-0.12105 -0.926042,-0.34363 -0.926041,-0.34363 -0.844192,-0.40742 -0.844191,-0.40742 -0.165956,-0.67589 -0.165956,-0.6759 -0.684651,-0.59531 -0.684652,-0.59531 h -0.604693 -0.60469 l -0.144653,-0.23405 -0.144653,-0.23406 -1.248725,-0.18726 -1.248724,-0.18726 -0.312596,-0.4275 -0.312596,-0.4275 0.127818,-0.40796 0.127817,-0.40795 -0.29457,0.39687 -0.29457,0.39688 -0.325702,-0.43757 -0.325701,-0.43758 -0.375574,-0.53579 -0.375574,-0.5358 -1.169496,-0.44663 -1.169496,-0.44664 -1.265473,0.16787 -1.265472,0.16787 -0.430603,-0.16524 -0.43059,-0.16523 V 2.95528 2.37505 l 0.295226,-0.29523 0.295226,-0.29522 0.300087,-0.59162 0.300086,-0.59162 0.396875,-0.18328 0.396875,-0.18329 0.591722,-0.3057 0.591723,-0.30571 h 0.492106 0.492107 l 0.768254,0.36543 0.768254,0.36542 0.859896,0.15713 0.859896,0.15713 V 0.44291 0.21734 l -0.330729,-0.26729 -0.330729,-0.26729 -1.49637,-0.46701 -1.49637,-0.467 -0.102897,-3.59758 -0.102898,-3.59758 0.0923,-0.12463 0.0923,-0.12463 0.249728,0.38921 0.249727,0.38922 -0.148804,0.7092 -0.148804,0.70921 0.543515,0.29088 0.543516,0.29088 -0.0419,0.19054 -0.0419,0.19054 0.211651,1.05833 0.211651,1.05833 0.222779,0.43259 0.222778,0.43258 0.699569,0.17559 0.69957,0.17558 1.15053,0.96172 1.15053,0.96172 0.246759,0.70786 0.24676,0.70785 -0.292458,1.0957 -0.292457,1.09569 h -0.493404 -0.493405 l -0.391057,0.39105 -0.391057,0.39106 0.163398,0.87099 0.163399,0.87099 1.006027,-0.0959 1.006027,-0.096 0.814891,0.4214 0.814891,0.4214 h 0.418318 0.418318 l 0.16506,-0.46302 0.165061,-0.46302 0.250125,-0.32376 0.250124,-0.32377 0.791724,0.40942 0.791724,0.40942 0.09774,-0.0977 0.09774,-0.0977 -0.377415,-0.72747 -0.377416,-0.72746 0.35512,-0.13628 0.355119,-0.13627 1.35518,0.44326 1.355179,0.44325 V 4.94557 5.1797 h 0.396875 0.396875 l 0.03133,0.33073 0.03133,0.33073 -0.03789,0.2181 -0.03789,0.21811 0.243415,-0.15044 0.243414,-0.15044 0.203311,0.4615 0.203311,0.4615 0.03908,0.26459 0.03908,0.26458 -0.247065,0.33073 -0.247068,0.33073 h -0.49677 -0.49677 V 7.85031 7.61049 l -0.568288,0.14861 -0.568288,0.14861 0.435997,0.31881 0.435996,0.31881 V 8.7146 8.88387 l -0.859896,-0.0307 -0.859896,-0.0307 0.434609,-0.11552 0.434608,-0.11553 -0.134738,-0.51524 -0.134738,-0.51524 h -0.357712 -0.357712 l 0.159911,0.41673 0.159912,0.41672 -0.366653,-0.0512 -0.366653,-0.0512 -0.330729,0.0314 -0.33073,0.0314 v 0.39688 0.39687 h 0.405179 0.405179 l 0.152296,0.39688 0.152295,0.39687 h 0.349668 0.349669 l 0.383812,0.38381 0.383813,0.38382 0.657423,0.165 0.657423,0.165 0.133038,-0.50874 0.133038,-0.50874 0.519163,-0.13576 0.519162,-0.13576 0.486228,0.35553 0.486225,0.35554 v 0.77326 0.77326 l 0.418925,-0.13203 0.418923,-0.13202 -0.396875,0.28549 -0.396875,0.28549 -0.573265,0.004 -0.573262,0.004 -0.133453,0.33073 -0.133454,0.33073 -0.02088,-0.30409 z m 0.772861,-1.4157 v -0.26459 h -0.116676 -0.116678 l -0.163521,0.26459 -0.16352,0.26458 h 0.280196 0.280199 z m -6.01086,-2.91042 h 0.29586 l -0.273257,-0.27325 -0.273257,-0.27326 -0.441118,0.16927 -0.441118,0.16927 v 0.26459 0.26458 l 0.418515,-0.1606 0.418515,-0.1606 z M -79.32016,7.56088 V 7.2963 l -1.124479,0.004 -1.124479,0.004 0.396875,0.25649 0.396875,0.25648 0.727604,0.004 0.727604,0.004 z m 1.785938,-0.18238 -0.463021,-0.121 -0.463021,0.121 -0.463021,0.121 h 0.926042 0.926041 z m -1.857596,-0.50664 -0.159852,-0.15985 -0.347266,0.13897 -0.347266,0.13896 0.507119,0.0209 0.507117,0.0209 -0.159852,-0.15985 z m 4.040408,-0.5016 V 5.97338 h -0.680357 -0.680357 l -0.396875,0.39688 -0.396875,0.39687 h 1.077232 1.077232 z m -11.44122,-3.70817 -0.665463,-0.66547 -0.42895,0.16461 -0.42895,0.1646 v 0.23628 0.23627 h 0.661458 0.661458 v 0.26458 0.26459 h 0.432955 0.432954 z m 1.254762,0.40087 0.163521,-0.26458 h -0.280198 -0.280198 v 0.26458 0.26459 h 0.116677 0.116676 z m 1.118967,-0.15985 -0.159853,-0.15985 -0.347265,0.13897 -0.347266,0.13896 0.507118,0.0209 0.507118,0.0209 -0.159852,-0.15985 z m 9.993533,7.56819 -0.163522,-0.26459 h 0.428105 0.428105 l -0.163522,0.26459 -0.163521,0.26458 h -0.101062 -0.101062 z m 24.60625,-12.22038 -0.79375,-0.22727 -0.879952,0.15416 -0.879954,0.15416 -0.310671,-0.24584 -0.310673,-0.24583 -0.992188,-0.17878 -0.992187,-0.17878 v -0.20648 -0.20647 l 0.595312,-0.54434 0.595313,-0.54434 0.893984,-0.45224 0.893982,-0.45225 1.128705,-0.0171 1.128705,-0.0171 1.270852,0.6368 1.270851,0.63679 0.528971,0.72833 0.528969,0.72832 -0.250635,0.23163 -0.250634,0.23162 -1.190625,0.1211 -1.190625,0.1211 -0.79375,-0.22727 z M -76.14516,-7.60277 v -0.34699 l 0.541038,-0.58073 0.541037,-0.58074 0.704502,-0.46134 0.704502,-0.46134 2.425207,0.022 2.425206,0.022 1.157901,0.60224 1.157899,0.60223 0.194386,0.3018 0.194384,0.30179 0.004,0.1527 0.004,0.1527 -1.696556,0.31261 -1.696556,0.3126 -0.674793,-0.25656 -0.674796,-0.25656 -0.782125,0.27266 -0.782127,0.27265 -0.970083,-0.26786 -0.970083,-0.26785 -0.656165,0.24947 -0.656157,0.24947 h -0.247262 -0.247359 z"
         id="path471"
         inkscape:connector-curvature="0" />
      <path
         style="fill:#dd55ff;stroke-width:0.26458335"
         d="m -39.949319,38.05411 -0.162967,-0.59531 h 0.350464 0.350467 l 0.484659,-0.14048 0.484661,-0.14047 -0.582607,0.30753 -0.582608,0.30753 -0.08955,0.42826 -0.08955,0.42825 z M -78.52641,36.97373 v -0.22049 h 0.396875 0.396875 v 0.22049 0.22049 h -0.396875 -0.396875 z m 12.009091,-0.94699 0.174503,-0.69528 -0.800129,-0.16003 -0.800132,-0.16003 v -0.3638 -0.3638 h 0.22343 0.22343 l 0.768758,0.66113 0.768757,0.66114 0.198438,2.6e-4 0.198437,2.7e-4 v 0.25527 0.25528 l -0.564999,0.30238 -0.564999,0.30238 0.174506,-0.69529 z m -1.889006,-0.59831 -0.816904,-0.94821 0.139216,-0.36279 0.139219,-0.3628 h 0.236275 0.236276 v 0.26459 0.26458 l -0.0258,0.15702 -0.0258,0.15702 0.708964,0.74 0.708962,0.74 -0.241742,0.1494 -0.241742,0.14941 -0.816904,-0.94822 z m -12.89821,-0.0863 -0.163521,-0.26458 h 0.280198 0.280198 v 0.26458 0.26459 h -0.116677 -0.116676 z m 3.718336,-0.23873 -0.514998,-0.20153 0.564056,-0.14751 0.564056,-0.1475 0.141075,0.36764 0.141076,0.36763 -0.190134,-0.0186 -0.190134,-0.0186 z m -3.214308,-0.59988 -0.504028,-0.57403 0.48466,0.17715 0.484661,0.17716 0.441381,0.0209 0.441381,0.0209 -0.332377,0.134 -0.332378,0.134 0.149555,0.24199 0.149555,0.24198 h -0.239191 -0.239191 l -0.504028,-0.57403 z m 1.74493,0.31775 v -0.25628 l 0.396875,0.15229 0.396875,0.1523 v 0.10399 0.10398 h -0.396875 -0.396875 z m 14.552084,-0.008 0.396875,-0.25648 0.396875,0.0146 0.396875,0.0145 -0.529167,0.22739 -0.529167,0.22739 -0.264583,0.0146 -0.264583,0.0146 z m 25.132712,-0.34436 -0.658754,-0.60894 -0.463021,-0.1765 -0.463021,-0.17651 v -0.50508 -0.50507 l 0.40775,-0.3384 0.407749,-0.3384 0.981313,-0.0753 0.981313,-0.0752 0.244557,-0.0156 0.24456,-0.0156 -0.575289,-0.61237 -0.575286,-0.61237 v -1.10133 -1.10133 l 0.627962,-0.41146 0.627965,-0.41145 1.086294,0.1737 1.086295,0.17371 0.468553,0.35553 0.468556,0.35553 -0.315114,0.008 -0.315116,0.008 -0.16352,-0.26458 -0.163521,-0.26458 h -0.760912 -0.76091 l -0.645647,0.24547 -0.645644,0.24547 0.130641,0.68341 0.13064,0.6834 0.69622,0.15156 0.696216,0.15155 0.313635,0.0953 0.313634,0.0953 0.09886,-0.29657 0.09885,-0.29656 0.315116,0.19475 0.315114,0.19475 v 0.2438 0.2438 l -0.820039,-0.0955 -0.820042,-0.0955 -0.508453,0.13296 -0.508452,0.13296 0.274725,0.33102 0.274725,0.33103 -0.165166,0.43041 -0.165164,0.43041 -0.302421,0.0281 -0.302422,0.0281 -0.396875,0.0589 -0.396875,0.0589 -0.434713,0.0453 -0.434713,0.0453 -0.144073,0.37545 -0.144071,0.37545 0.446492,0.49566 0.446495,0.49566 0.926042,0.44578 0.926041,0.44579 -0.664162,0.006 -0.664163,0.006 -0.658754,-0.60893 z m -42.279049,-0.3171 0.0098,-0.79375 0.12197,0.46805 0.12197,0.46806 -0.131774,0.32569 -0.131774,0.3257 0.0098,-0.79375 z m 17.798582,-0.67637 -0.173619,-0.28092 -0.570043,0.0449 -0.570042,0.0449 -0.346345,-0.0293 -0.346342,-0.0293 0.15221,-0.24629 0.152209,-0.24628 0.723302,0.14484 0.7233,0.14484 0.727604,0.0133 0.727604,0.0132 v 0.0789 0.0789 l -0.513109,0.2746 -0.513109,0.27461 -0.17362,-0.28092 z m 1.905394,-0.69065 -0.176389,-0.17638 v -0.25289 -0.25288 l 0.330729,0.26851 0.330729,0.26851 0.529167,0.13007 0.529166,0.13007 -0.683506,0.0307 -0.683508,0.0307 z m -6.600862,-0.89032 0.140574,-0.53754 0.429969,-0.22494 0.429971,-0.22495 0.661459,0.25156 0.661458,0.25155 -0.501999,0.37017 -0.501999,0.37016 -0.225605,-0.13943 -0.225605,-0.13943 v 0.2802 0.2802 h -0.504397 -0.504396 z m -15.800527,0.008 -0.396875,-0.25648 0.463021,-0.004 0.46302,-0.004 v 0.26458 0.26458 l -0.06615,-0.004 -0.06615,-0.004 z m -4.547526,-0.18074 0.347265,-0.13897 0.159853,0.15986 0.159852,0.15985 -0.507118,-0.0209 -0.507118,-0.0209 0.347266,-0.13896 z m 25.053485,-0.87523 -0.1672,-0.5268 0.160541,-0.25976 0.160541,-0.25976 0.981017,-0.25083 0.981017,-0.25083 1.984375,-0.18046 1.984375,-0.18045 1.455208,-0.37716 1.455208,-0.37715 0.990801,0.16281 0.990801,0.16282 0.137994,0.22328 0.137993,0.22328 -0.268898,0.16619 -0.268899,0.16618 V 29.0377 28.78753 l -0.7738,-0.11357 -0.773801,-0.11357 0.707655,0.68912 0.707654,0.68913 0.239319,-0.1173 0.239318,-0.1173 -0.188788,0.30546 -0.188786,0.30547 h 0.295812 0.295812 l -0.174172,0.28182 -0.174173,0.28182 -0.476633,-0.43135 -0.476634,-0.43135 -0.174173,0.28182 -0.174172,0.28182 -0.315116,-0.0209 -0.315114,-0.0209 0.330729,-0.13345 0.33073,-0.13345 v -0.50208 -0.50208 l -0.636815,-0.15983 -0.636815,-0.15983 -0.487665,0.24234 -0.487664,0.24233 -0.872064,-0.0853 -0.872064,-0.0853 0.738823,0.63551 0.73882,0.63551 0.191928,-0.30701 0.191932,-0.307 0.388903,0.55186 0.388903,0.55187 0.95236,0.0358 0.952362,0.0358 -0.181996,-0.32308 -0.181996,-0.32308 0.32286,0.29727 0.32286,0.29728 1.435749,-0.11605 1.435745,-0.11604 v 0.29243 0.29243 l -2.579687,-0.0286 -2.579688,-0.0286 -0.859896,-0.26714 -0.859895,-0.26715 v -0.2016 -0.20159 l -0.673907,-0.30706 -0.67391,-0.30705 h -0.667906 -0.667909 l -0.371176,0.37118 -0.371176,0.37117 0.406844,0.15612 0.406845,0.15612 -0.182134,0.29471 -0.182134,0.2947 -0.165364,-0.22669 -0.165365,-0.22669 -0.396875,-0.0368 -0.396875,-0.0367 -0.428905,-0.1769 -0.428906,-0.1769 -0.412091,0.41209 -0.412091,0.41209 h -0.265653 -0.265652 l -0.167201,-0.5268 z m -26.009293,-0.0553 -0.3175,-0.3175 v -0.21167 -0.21166 l 0.33073,0.0661 0.330729,0.0661 -0.0727,-0.3504 -0.0727,-0.35039 0.269044,0.16627 0.269043,0.16628 0.465116,-0.26172 0.465116,-0.26172 -0.661458,-0.28883 -0.661458,-0.28882 0.892969,0.13935 0.892968,0.13935 h 0.379417 0.379417 l -0.166188,0.2689 -0.16619,0.2689 -0.21622,-0.13363 -0.216221,-0.13363 -0.144563,0.55281 -0.144564,0.55281 -0.284759,-0.17599 -0.28476,-0.17599 -0.540729,0.17162 -0.540729,0.17162 0.31091,0.37463 0.31091,0.37462 h -0.244063 -0.244064 z m 11.787188,-0.051 -0.463021,-0.46303 -0.0041,-0.44412 -0.004,-0.44412 -0.236521,0.37364 -0.236521,0.37364 -0.408287,-0.40829 -0.408287,-0.40829 0.16379,-0.16379 0.16379,-0.16379 h 0.311625 0.311624 l 0.728795,0.62624 0.728795,0.62623 -0.09233,0.47935 -0.09233,0.47936 z m -13.427604,-0.29294 v -0.39687 h 0.256279 0.25628 l -0.152296,0.39687 -0.152295,0.39688 h -0.103984 -0.103984 z m 8.630804,-0.0808 -0.131675,-0.21306 0.02336,-0.82178 0.02337,-0.82178 0.357279,0.1371 0.357279,0.1371 v 0.18336 0.18336 l -0.287637,0.28764 -0.287637,0.28764 0.287637,0.17777 0.287637,0.17776 v -0.2361 -0.2361 h 0.396875 0.396875 v 0.22049 0.22049 h -0.396875 -0.396875 v 0.26458 0.26458 h -0.248968 -0.248969 z m 31.513067,-0.40636 0.115348,-0.6034 -0.394335,-0.32727 -0.394335,-0.32726 0.684641,-1.04571 0.684639,-1.0457 h 0.222626 0.222625 l -0.178265,0.72761 -0.178266,0.7276 -0.234693,0.0919 -0.234694,0.0919 0.341773,0.42069 0.341773,0.42068 -0.463021,-0.17353 -0.463021,-0.17352 v 0.12323 0.12322 l 0.859896,0.37606 0.859896,0.37605 -0.396875,0.0256 -0.396875,0.0256 0.396875,0.27234 0.396875,0.27234 -0.661458,-0.0698 -0.661459,-0.0698 -0.292507,0.18227 -0.29251,0.18226 0.115347,-0.60339 z m -40.568,-0.48302 -0.136268,-0.22048 h 0.544782 0.544781 v 0.22048 0.22049 h -0.408513 -0.408514 z m -0.864161,-1.36939 -0.342906,-0.41317 0.09957,-0.47573 0.09957,-0.47574 0.336313,0.60998 0.336314,0.60999 -0.09298,0.27892 -0.09297,0.27893 z m 58.960842,0.18097 0.271198,-0.1345 v -0.34894 -0.34894 l -0.78444,-0.27346 -0.784442,-0.27346 -0.170958,-0.68115 -0.170957,-0.68115 0.655944,-0.85999 0.655944,-0.85998 0.667502,-0.35724 0.667499,-0.35723 0.491849,0.28581 0.49185,0.28582 -0.53644,0.008 -0.536443,0.008 -0.592463,0.41498 -0.592465,0.41498 0.152334,0.24648 0.152331,0.24648 h 0.529167 0.529166 l -0.181803,0.29416 -0.181803,0.29417 0.364625,0.23095 0.364628,0.23095 -0.354465,0.004 -0.354463,0.004 -0.500806,-0.59531 -0.500806,-0.59531 -0.167777,0.59531 -0.167775,0.59531 h -0.233725 -0.233725 v 0.23249 0.23248 l 0.807215,0.33436 0.807214,0.33436 -0.07961,0.53691 -0.07961,0.53691 -0.337344,0.067 -0.337343,0.067 0.271198,-0.13449 z m -57.503649,-0.75186 0.152295,-0.39687 h 0.103984 0.103984 v 0.39687 0.39688 h -0.256279 -0.256279 z m 1.021722,0.1323 -0.163522,-0.26459 h 0.280199 0.280198 v 0.26459 0.26458 h -0.116677 -0.116677 z m 3.967365,-0.53141 -0.134204,-0.21715 0.332378,-0.134 0.332377,-0.134 -0.46302,-0.0209 -0.463021,-0.0209 v 0.26459 0.26458 h -0.25628 -0.256279 l 0.152295,-0.39688 0.152295,-0.39687 h 0.519758 0.519758 l 0.368496,0.36849 0.368495,0.3685 -0.519422,0.13583 -0.519423,0.13583 z m -3.041324,-0.53121 v -0.26886 l 0.901993,-0.43013 0.901993,-0.43013 0.48707,0.20693 0.487069,0.20694 -0.884409,0.19907 -0.884409,0.19907 -0.292987,0.29299 -0.292986,0.29299 h -0.211667 -0.211667 z m 39.555542,0.005 -0.163854,-0.26513 h 0.511707 0.511709 l 0.892969,-0.16728 0.892969,-0.16727 -0.293095,0.31485 -0.293097,0.31485 -0.947727,0.11755 -0.947727,0.11755 z m -43.636829,-1.10791 -0.431095,-0.61242 0.407347,-0.0862 0.407347,-0.0862 -0.153813,-0.24887 -0.153813,-0.24888 -0.246301,0.15222 -0.246301,0.15222 v -0.3085 -0.30851 l 0.463021,0.19463 0.463021,0.19462 0.61964,0.13376 0.619642,0.13377 -0.353769,0.21864 -0.353769,0.21864 0.527878,0.3989 0.527877,0.39891 -0.595312,0.008 -0.595313,0.008 -0.03133,-0.33073 -0.03133,-0.33073 0.03133,-0.19843 0.03133,-0.19844 h -0.220486 -0.220486 l -0.174093,0.17409 -0.174094,0.1741 0.299992,0.36146 0.299991,0.36147 -0.143008,0.14301 -0.143008,0.14301 z m -4.385379,-0.0832 v -0.39688 h 0.264583 0.264583 v 0.39688 0.39687 h -0.264583 -0.264583 z m 1.053027,-0.006 -0.334684,-0.40326 0.113865,-0.11387 0.113865,-0.11386 0.322955,0.51713 0.322956,0.51713 h -0.102137 -0.102137 z m 1.787425,0.24511 -0.158159,-0.15815 0.128565,-0.33504 0.128565,-0.33503 -0.874399,-0.20263 -0.874399,-0.20263 -0.529167,0.0601 -0.529167,0.0601 0.633773,-0.67902 0.633772,-0.67902 0.243727,0.15063 0.243726,0.15063 -0.145782,0.14578 -0.145782,0.14579 0.458908,0.34847 0.458908,0.34848 0.434714,0.008 0.434713,0.008 0.161458,0.42076 0.161457,0.42075 -0.148765,0.2407 -0.148765,0.24071 h -0.204871 -0.204871 l -0.158159,-0.15816 z m 62.643923,-0.37099 -0.163521,-0.26459 h 0.264583 0.264584 l 0.16352,0.26459 0.163521,0.26458 h -0.264584 -0.264583 z m -63.055878,-1.85209 0.08505,-0.39687 -0.727605,-0.0837 -0.727604,-0.0837 v -0.23636 -0.23636 l 0.790243,0.0555 0.790243,0.0555 0.144472,0.37497 0.144473,0.37497 -0.292156,0.28649 -0.292156,0.28649 z m 1.125377,-0.33073 0.11097,-0.59531 0.01966,-0.33073 0.01966,-0.33073 h 0.493042 0.493041 l -0.04536,0.59531 -0.04536,0.59532 0.27992,0.39687 0.27992,0.39688 -0.506048,-0.39688 -0.506047,-0.39687 -0.111314,0.33073 -0.111313,0.33073 h -0.240875 -0.240875 z m -3.139988,-0.0114 0.180653,-0.47443 0.148112,0.14811 0.148113,0.14811 -0.328766,0.32632 -0.328766,0.32632 z m 66.299012,0.10215 -0.358978,-0.22303 0.310435,-0.19186 0.310433,-0.19186 0.142251,0.14225 0.142248,0.14225 -0.0937,0.27264 -0.09371,0.27264 z m -64.605051,-1.17995 0.273403,-0.2734 v -0.56083 -0.56083 l -0.685982,-0.59645 -0.685983,-0.59646 0.155194,-0.15519 0.155193,-0.15519 0.464643,0.3991 0.464643,0.39911 0.357126,0.20446 0.357126,0.20447 -0.308139,-0.57576 -0.30814,-0.57577 0.0833,-0.21789 0.08331,-0.2179 1.230483,1.2909 1.230482,1.2909 h -0.767461 -0.767462 l -0.03133,0.33072 -0.03133,0.33073 0.01663,0.15434 0.01663,0.15435 h -0.787871 -0.78787 z M -47.57016,21.84838 V 21.5838 h 0.280199 0.280196 l -0.16352,0.26458 -0.163521,0.26459 h -0.116678 -0.116676 z m -9.921875,-1.85208 -0.16352,-0.26458 h -0.471297 -0.471295 l -0.682614,-0.95939 -0.682615,-0.95939 0.143791,-0.37471 0.143788,-0.37471 0.277315,0.0924 0.277315,0.0924 0.04565,0.6197 0.04565,0.61969 0.43407,0.3174 0.43407,0.3174 -0.152427,0.15243 -0.152429,0.15243 1.241552,0.18618 1.241555,0.18618 -0.35741,0.22649 -0.357407,0.22649 -0.315113,0.004 -0.315117,0.004 z m 1.521354,-0.7044 -0.330729,-0.13345 v -0.24253 -0.24254 h 0.633151 0.63315 l 0.152297,0.39688 0.152294,0.39687 -0.454715,-0.0209 -0.454719,-0.0209 -0.330729,-0.13345 z m -1.438672,-0.27009 0.347266,-0.13897 0.159853,0.15986 0.159851,0.15985 -0.507116,-0.0209 -0.507119,-0.0209 0.347265,-0.13897 z m -39.087835,-1.29652 0.02089,-0.50712 0.138964,0.34727 0.138964,0.34726 -0.159852,0.15986 -0.159853,0.15985 0.02089,-0.50712 z m 44.429111,-0.91961 v -0.28019 l 0.264584,0.16352 0.264583,0.16352 v 0.11668 0.11667 h -0.264583 -0.264584 z m 13.361459,-0.31702 -0.529167,-0.31656 -1.5875,-0.0465 -1.5875,-0.0465 -0.768488,-0.29932 -0.768487,-0.29932 0.715494,-0.74681 0.715494,-0.74682 1.009732,-0.30252 1.009732,-0.30252 h 0.621917 0.621913 l 1.199473,0.4442 1.19947,0.44421 0.727604,0.49985 0.727604,0.49985 v 0.37886 0.37886 h -0.74318 -0.74318 l -0.513591,0.38846 -0.51359,0.38846 -0.132292,2.6e-4 -0.132292,2.7e-4 -0.529166,-0.31655 z m -12.170834,-0.19653 -0.16352,-0.26458 h 0.280196 0.280199 v 0.26458 0.26459 h -0.116676 -0.116678 z m -2.563151,-0.44532 0.347266,-0.13897 0.159853,0.15986 0.159851,0.15985 -0.507116,-0.0209 -0.507119,-0.0209 0.347265,-0.13897 z m 2.703857,-0.67916 0.0084,-0.33073 0.388459,-0.51359 0.388461,-0.51359 0.03377,0.24901 0.03377,0.24901 0.0624,0.59531 0.0624,0.59531 h -0.493043 -0.493041 l 0.0084,-0.33073 z m -14.438096,-0.96225 -1.59739,-0.16223 -0.751133,-0.55026 -0.751134,-0.55026 0.293518,-0.54844 0.293518,-0.54845 1.146355,-0.55494 1.146352,-0.55494 0.908651,0.006 0.908653,0.006 1.07913,0.49012 1.079129,0.49012 0.574517,0.73038 0.574516,0.73038 v 0.21959 0.21959 l -0.463021,0.24778 -0.463021,0.24778 -1.190625,0.12219 -1.190625,0.12219 -1.59739,-0.16222 z m -25.257941,-0.41044 1.23e-4,-0.24821 0.595313,-0.8698 0.595312,-0.86981 1.277629,-0.69579 1.277629,-0.69578 1.897371,0.10195 1.897371,0.10196 0.717058,0.4786 0.717058,0.47859 -1.14347,0.87283 -1.143469,0.87283 -0.664113,-0.12695 -0.664112,-0.12696 -0.878319,0.4542 -0.878319,0.4542 -1.801593,0.0332 -1.801592,0.0332 z m 32.874602,0.20528 -0.330729,-0.13346 v -0.37482 -0.37483 l 0.463021,0.004 0.463021,0.004 -0.360667,0.2285 -0.36067,0.2285 0.757545,0.27573 0.757542,0.27572 h -0.529167 -0.529167 l -0.330729,-0.13345 z m 1.404313,-0.59385 -0.148272,-0.23991 0.529532,0.13848 0.529531,0.13847 v 0.10144 0.10143 h -0.381259 -0.381262 z m 2.233708,-0.52841 0.661458,-0.54283 0.198438,-0.006 0.198437,-0.006 v 0.23373 0.23372 l -0.463021,0.16332 -0.46302,0.16332 -0.396875,0.15167 -0.396875,0.15168 z m 2.513542,-0.0254 -0.163521,-0.26458 h 0.396875 0.396875 l 0.163521,0.26458 0.16352,0.26459 h -0.396875 -0.396875 z m -6.482292,-0.23415 v -0.23415 l 0.65215,-0.42731 0.652148,-0.4273 h 0.129574 0.129575 l -0.661459,0.66146 -0.661458,0.66145 h -0.120264 -0.120266 z m 5.55625,-0.0304 v -0.26459 h 0.264583 0.264584 v 0.26459 0.26458 h -0.264584 -0.264583 z M -77.798806,10.70549 -78.52641,10.16264 V 9.92012 9.67761 h 0.280198 0.280199 l -0.151749,0.24553 -0.151749,0.24554 0.508567,0.16141 0.508566,0.16141 0.14843,0.38681 0.14843,0.3868 -0.05784,-0.008 -0.05784,-0.008 z m 20.17853,-0.0357 -0.0041,-0.46303 h 0.661459 0.661458 v 0.25629 0.25627 l -0.423577,-0.16254 -0.423579,-0.16254 -0.233828,0.36928 -0.233828,0.36929 -0.004,-0.46302 z m -18.839077,-0.37918 0.347266,-0.13897 0.159852,0.15985 0.159853,0.15986 -0.507118,-0.0209 -0.507118,-0.0209 0.347265,-0.13897 z m 3.439584,0 0.347265,-0.13897 0.159854,0.15985 0.15985,0.15986 -0.507116,-0.0209 -0.507119,-0.0209 0.347266,-0.13897 z m 13.940234,-0.8776 -0.16352,-0.26458 h 0.280196 0.280199 V 9.41301 9.6776 h -0.116676 -0.116679 z m 1.984375,0 V 9.14843 h 0.412491 0.412488 l -0.163521,0.26458 -0.16352,0.26459 h -0.24897 -0.248968 z m -0.661458,-0.79375 -0.163521,-0.26458 h 0.264584 0.264583 l 0.16352,0.26458 0.163521,0.26459 h -0.264584 -0.264583 z M -82.18207,7.23897 -82.49516,6.92588 V 6.44963 5.97338 h 0.233739 0.233739 l 0.139772,0.72761 0.139772,0.7276 -0.06042,0.0617 -0.06042,0.0617 z M -84.08266,7.03171 V 6.76713 h 0.264583 0.264584 V 7.03171 7.2963 h -0.264584 -0.264583 z m 20.703646,-0.0816 0.463021,-0.3736 V 5.87808 5.17964 h 0.272886 0.272888 l 0.152294,0.39688 0.152297,0.39687 h 1.146702 1.146704 l 0.16352,-0.26458 0.163521,-0.26459 h 0.418237 0.418238 l 0.351483,0.46303 0.351483,0.46302 0.0084,0.23944 0.0084,0.23945 -0.553063,-0.50052 -0.553064,-0.50052 -0.372978,0.51008 -0.372978,0.51008 v -0.3446 -0.3446 l -0.992187,0.18501 -0.992188,0.185 -0.264583,0.0429 -0.264584,0.0429 -0.132291,0.16278 -0.132292,0.16277 -0.661458,0.18166 -0.661459,0.18165 0.463021,-0.3736 z m -15.793604,-0.15829 -0.148272,-0.23991 0.529532,0.13847 0.529531,0.13848 v 0.10143 0.10143 h -0.38126 -0.38126 z m 1.79044,-1.78627 0.174094,-0.17409 -0.294685,-0.35508 -0.294684,-0.35507 0.495417,0.0119 0.495418,0.0119 0.79375,0.38645 0.79375,0.38644 -0.711389,-0.13477 -0.711389,-0.13476 -0.164122,0.26555 -0.164122,0.26556 h -0.293065 -0.293066 l 0.174093,-0.17409 z m -14.079722,-3.4998 0.272466,-0.7816 0.429699,-0.16489 0.429698,-0.16489 -0.448186,0.49524 -0.448187,0.49524 v 0.29428 0.29428 l -0.253978,0.15697 -0.253979,0.15697 z m 6.58549,-0.92405 v -0.62918 l -0.595312,-0.43679 -0.595313,-0.43679 0.581743,0.27427 0.581744,0.27427 0.410444,0.586 0.410444,0.58599 v 0.20571 0.20571 h -0.396875 -0.396875 z m 35.057292,-2.33097 -0.79375,-0.23351 -0.976218,0.1422 -0.97622,0.1422 -0.142396,-0.2304 -0.142396,-0.23041 -1.064199,-0.17017 -1.064196,-0.17017 V -2.71486 -2.9302 l 0.595312,-0.54434 0.595313,-0.54434 0.893984,-0.45224 0.893982,-0.45225 1.099133,-0.0166 1.099132,-0.0166 1.314177,0.65515 1.314175,0.65515 0.392999,0.69945 0.392999,0.69945 -0.260708,0.24051 -0.260707,0.24051 -1.058333,0.12531 -1.058333,0.1253 z m -38.74057,-0.36918 0.02089,-0.50712 0.138965,0.34727 0.138964,0.34726 -0.159853,0.15986 -0.159853,0.15985 0.02089,-0.50712 z m 0.177549,-1.58581 -0.198438,-0.20013 v -0.53798 -0.53799 l 0.289396,0.2894 0.289396,0.28939 -0.09096,0.44872 -0.09096,0.44871 z m 12.245394,-3.88224 0.0084,-0.33073 0.322315,-0.40309 0.322314,-0.40309 0.732595,-0.56496 0.732594,-0.56496 1.314915,-0.18084 1.314913,-0.18085 1.852179,0.31241 1.852179,0.31241 0.862814,0.81068 0.862811,0.81067 -1.719791,0.35628 -1.719792,0.35627 -0.720199,-0.24797 -0.720198,-0.24798 -0.867301,0.25075 -0.867302,0.25076 -0.719455,-0.29583 -0.719455,-0.29582 -0.841381,0.29331 -0.84138,0.2933 h -0.225089 -0.225101 l 0.0084,-0.33072 z"
         id="path469"
         inkscape:connector-curvature="0" />
      <path
         style="fill:#00ff00;stroke-width:0.26458335"
         d="m -38.706618,16.48866 -0.529167,-0.31656 -1.5875,-0.0465 -1.5875,-0.0465 -0.768488,-0.29932 -0.768487,-0.29932 0.715494,-0.74681 0.715494,-0.74682 1.009732,-0.30252 1.009732,-0.30252 h 0.621917 0.621913 l 1.199473,0.4442 1.19947,0.44421 0.727604,0.49985 0.727604,0.49985 v 0.37886 0.37886 h -0.74318 -0.74318 l -0.513591,0.38846 -0.51359,0.38846 -0.132292,2.6e-4 -0.132292,2.7e-4 -0.529166,-0.31655 z m -26.468224,-2.28326 -1.59739,-0.16223 -0.751133,-0.55026 -0.751134,-0.55026 0.293518,-0.54844 0.293518,-0.54845 1.146355,-0.55494 1.146352,-0.55494 0.908651,0.006 0.908653,0.006 1.07913,0.49012 1.079129,0.49012 0.574517,0.73038 0.574516,0.73038 v 0.21959 0.21959 l -0.463021,0.24778 -0.463021,0.24778 -1.190625,0.12219 -1.190625,0.12219 -1.59739,-0.16222 z m -25.257941,-0.41044 1.23e-4,-0.24821 0.595313,-0.8698 0.595312,-0.86981 1.277629,-0.69579 1.277629,-0.69578 1.897371,0.10195 1.897371,0.10196 0.717058,0.4786 0.717058,0.47859 -1.14347,0.87283 -1.143469,0.87283 -0.664113,-0.12695 -0.664112,-0.12696 -0.878319,0.4542 -0.878319,0.4542 -1.801593,0.0332 -1.801592,0.0332 z m 40.613665,-15.54424 -0.79375,-0.23351 -0.976218,0.1422 -0.97622,0.1422 -0.142396,-0.2304 -0.142396,-0.23041 -1.064199,-0.17017 -1.064196,-0.17017 v -0.21533 -0.21534 l 0.595312,-0.54434 0.595313,-0.54434 0.893984,-0.45224 0.893982,-0.45225 1.099133,-0.0166 1.099132,-0.0166 1.314177,0.65515 1.314175,0.65515 0.392999,0.69945 0.392999,0.69945 -0.260708,0.24051 -0.260707,0.24051 -1.058333,0.12531 -1.058333,0.1253 z m -26.317627,-5.83723 0.0084,-0.33073 0.322315,-0.40309 0.322314,-0.40309 0.732595,-0.56496 0.732594,-0.56496 1.314915,-0.18084 1.314913,-0.18085 1.852179,0.31241 1.852179,0.31241 0.862814,0.81068 0.862811,0.81067 -1.719791,0.35628 -1.719792,0.35627 -0.720199,-0.24797 -0.720198,-0.24798 -0.867301,0.25075 -0.867302,0.25076 -0.719455,-0.29583 -0.719455,-0.29582 -0.841381,0.29331 -0.84138,0.2933 h -0.225089 -0.225101 l 0.0084,-0.33072 z"
         id="path467"
         inkscape:connector-curvature="0" />
    </g>
  </g>
</svg>
