<?xml version="1.0" encoding="UTF-8" standalone="no"?>
<!-- Created with Inkscape (http://www.inkscape.org/) -->

<svg
   xmlns:dc="http://purl.org/dc/elements/1.1/"
   xmlns:cc="http://creativecommons.org/ns#"
   xmlns:rdf="http://www.w3.org/1999/02/22-rdf-syntax-ns#"
   xmlns:svg="http://www.w3.org/2000/svg"
   xmlns="http://www.w3.org/2000/svg"
   xmlns:sodipodi="http://sodipodi.sourceforge.net/DTD/sodipodi-0.dtd"
   xmlns:inkscape="http://www.inkscape.org/namespaces/inkscape"
   version="1.1"
   id="svg2949"
   width="283"
   height="443"
   viewBox="0 0 283 443"
   sodipodi:docname="dragon5.svg"
   inkscape:version="0.92.4 (5da689c313, 2019-01-14)">
  <metadata
     id="metadata2955">
    <rdf:RDF>
      <cc:Work
         rdf:about="">
        <dc:format>image/svg+xml</dc:format>
        <dc:type
           rdf:resource="http://purl.org/dc/dcmitype/StillImage" />
        <dc:title />
      </cc:Work>
    </rdf:RDF>
  </metadata>
  <defs
     id="defs2953" />
  <sodipodi:namedview
     pagecolor="#ffffff"
     bordercolor="#666666"
     borderopacity="1"
     objecttolerance="10"
     gridtolerance="10"
     guidetolerance="10"
     inkscape:pageopacity="0"
     inkscape:pageshadow="2"
     inkscape:window-width="1920"
     inkscape:window-height="1017"
     id="namedview2951"
     showgrid="false"
     inkscape:zoom="1.5067919"
     inkscape:cx="112.64858"
     inkscape:cy="221.5"
     inkscape:window-x="-8"
     inkscape:window-y="-8"
     inkscape:window-maximized="1"
     inkscape:current-layer="g151"
     showguides="true" />
  <g
     id="g151"
     transform="translate(25.882805,-2.654647)">
    <g
       id="g99"
       transform="translate(10.618586,7.9639395)">
      <path
         style="fill:#00ffff"
         d="m 1.951841,311.63808 c -3.957662,-1.18797 -5.730192,-2.88366 -7.822583,-7.48343 -3.302512,-7.26002 -1.807971,-13.33714 5.185202,-21.08414 2.027702,-2.24627 4.23116,-5.73377 4.896574,-7.75 1.400802,-4.24447 2.756331,-4.703 3.628639,-1.22745 0.336601,1.34113 2.598717,5.46325 5.026924,9.16026 2.428206,3.69701 4.919603,8.40632 5.536436,10.46512 2.297441,7.66818 -1.83067,15.92361 -8.951535,17.90138 -4.153419,1.15357 -3.720953,1.15252 -7.499657,0.0183 z m 66.379403,-70.91334 -2.93623,-3.14325 -3.79981,2.03658 c -4.20563,2.25409 -5.91193,2.52112 -6.81128,1.06595 -1.05328,-1.70424 2.3203,-6.77201 4.94694,-7.43125 3.18852,-0.80027 3.26994,-2.37553 0.16309,-3.15531 -1.3045,-0.3274 -2.95641,-1.6876 -3.67092,-3.02266 -1.27107,-2.37502 -0.96331,-5.04192 1.635,-14.16838 0.5949,-2.08954 0.40247,-2.20338 -2.72609,-1.61274 -4.07228,0.7688 -6.48627,2.71121 -7.27501,5.85379 -0.43512,1.73366 -1.89887,2.7808 -5.610419,4.01358 -2.761934,0.91736 -7.294575,3.46454 -10.072533,5.66039 -2.777959,2.19585 -5.62928,3.77049 -6.336269,3.49919 -0.70699,-0.2713 -1.543277,-2.41562 -1.858418,-4.76517 -0.655135,-4.8844 1.356562,-9.84487 4.30526,-10.61597 2.392727,-0.62571 4.981219,-6.12735 4.981219,-10.58719 0,-2.9401 0.559981,-3.8305 3.5,-5.56515 1.925,-1.13578 3.5,-2.459 3.5,-2.94049 0,-0.48149 1.8,-1.41473 4,-2.07386 2.2,-0.65914 4,-1.60004 4,-2.0909 0,-0.49086 0.85024,-1.16233 1.88942,-1.49215 1.20851,-0.38357 2.29483,-2.20973 3.01439,-5.06739 0.71666,-2.84609 1.67867,-4.46771 2.65043,-4.46771 2.08757,0 8.78639,-3.50058 10.3851,-5.42691 0.71805,-0.8652 1.73077,-1.57309 2.25049,-1.57309 1.31081,0 -0.0536,4.08224 -2.17247,6.5 -0.96402,1.1 -2.00251,3.64745 -2.30775,5.661 -0.49337,3.25453 -0.286,3.7285 1.8677,4.26905 2.51602,0.63148 3.15105,2.00177 1.42269,3.06995 -1.82603,1.12855 -1.03539,3.37347 1.65368,4.69543 2.41409,1.18679 2.6668,1.86031 2.79895,7.45986 0.15951,6.75864 1.56696,9.34471 5.08579,9.34471 2.38698,0 8.45597,-6.55361 8.46774,-9.1439 0.003,-0.74586 0.67547,-2.6394 1.49351,-4.20789 1.34385,-2.57665 1.22521,-6.39065 -0.28102,-9.03424 -0.27765,-0.48732 -1.28286,0.14542 -2.23378,1.40609 -1.13722,1.50765 -2.30747,2.07012 -3.4193,1.64348 -1.40234,-0.53813 -1.57368,-1.45924 -1.00563,-5.4061 0.37659,-2.61659 1.36752,-5.53732 2.20206,-6.49051 2.08513,-2.38159 0.96571,-12.03922 -1.70504,-14.70997 -5.45489,-5.45489 -5.48524,-5.64542 -3.53823,-22.21486 0.69801,-5.94022 5.59135,-11.18955 11.98127,-12.85289 2.2,-0.57268 7.0242,-2.18907 10.72044,-3.59199 3.696236,-1.40292 7.521236,-2.30019 8.499996,-1.99394 4.08707,1.27884 12.39961,0.90524 13.93096,-0.62611 2.09259,-2.09259 0.25465,-5.52344 -3.43026,-6.40325 -1.49663,-0.35733 -3.28364,-1.09275 -3.97114,-1.63425 -1.72837,-1.36134 -1.56937,-3.73967 0.25,-3.73967 0.825,0 1.5,0.39666 1.5,0.88146 0,1.61932 8.36577,3.68765 12.30085,3.04122 4.76958,-0.78351 5.88146,-1.89412 6.09224,-6.0853 0.0923,-1.83556 0.50289,-3.25863 0.91238,-3.16238 2.61498,0.61464 2.77932,1.09571 1.98758,5.81824 -0.68407,4.0803 -1.43532,5.35992 -4.26711,7.26826 -3.09597,2.08638 -7.00239,6.74444 -7.01935,8.36996 -0.01,0.95583 9.15259,4.07581 11.93835,4.06517 2.20891,-0.008 5.05506,-2.43971 5.05506,-4.31821 0,-0.40662 -1.0125,-0.88312 -2.25,-1.05887 -2.13467,-0.30317 -2.06832,-0.48479 1.29448,-3.54321 2.80228,-2.54864 3.80195,-4.47019 4.77404,-9.17657 1.10608,-5.35513 1.02289,-6.55005 -0.82844,-11.89963 -3.43404,-9.922939 -2.75086,-15.923092 3.1239,-27.436574 0.48731,-0.955037 0.88602,-2.95585 0.88602,-4.44625 0,-3.222731 4.44706,-10.007049 7.11448,-10.853654 1.03704,-0.329142 1.88552,-1.006449 1.88552,-1.505125 0,-0.498677 4.6125,-3.166472 10.25,-5.928434 9.36933,-4.590286 10.72255,-5.623481 15.75,-12.025258 4.79419,-6.104757 8,-8.626199 8,-6.292184 0,2.019363 -8.55723,17.602396 -10.38127,18.904688 -15.87215,11.332043 -17.30542,12.700785 -20.29647,19.382648 -2.20364,4.922857 -2.39348,6.33948 -1.80905,13.5 0.35912,4.4 1.28392,10.514343 2.05512,13.587433 1.13657,4.52903 1.2046,8.20837 0.35914,19.42371 -0.99645,13.21833 -1.94313,17.48886 -3.87688,17.48886 -0.48347,0 -2.25111,2.2299 -3.92808,4.95532 -1.67698,2.72543 -4.41557,5.66199 -6.08578,6.52568 -1.6702,0.8637 -3.03673,1.91178 -3.03673,2.32907 0,1.35711 -5.73851,4.18993 -8.48763,4.18993 -1.71055,0 -2.52044,0.45188 -2.24032,1.25 0.53356,1.5202 12.49775,1.18594 14.41188,-0.40265 0.68686,-0.57004 1.82646,-0.82961 2.53245,-0.57683 0.75711,0.27109 -0.0944,1.23276 -2.07589,2.34454 -1.84774,1.03672 -4.32274,2.65747 -5.5,3.60167 l -2.14049,1.71673 2.25,0.0333 c 3.63746,0.0538 2.61563,1.6773 -3.12173,4.95988 -6.66105,3.81107 -9.24255,4.09448 -7.50011,0.82339 0.65919,-1.2375 1.91198,-2.77583 2.78397,-3.41851 1.36269,-1.00432 1.1641,-1.26958 -1.41334,-1.88788 -1.64933,-0.39566 -3.55717,-1.15902 -4.23963,-1.69634 -0.68246,-0.53733 -2.70746,-0.68619 -4.5,-0.33081 -6.21162,1.23148 -7.1868,1.13277 -7.57051,-0.76636 -0.23573,-1.16669 0.8607,-2.88494 2.96879,-4.65245 1.83841,-1.54141 3.11756,-2.97673 2.84256,-3.18961 -0.275,-0.21287 -2.20316,-1.83177 -4.2848,-3.59754 -3.32683,-2.82202 -4.49731,-3.2105 -9.67327,-3.2105 -4.86409,0 -6.41955,0.44687 -8.94121,2.5687 -2.808876,2.36352 -3.049426,3.06246 -3.011496,8.75 0.0524,7.85136 2.299206,14.19185 6.670906,18.82495 3.08195,3.26624 3.53196,4.48278 4.34441,11.74464 1.68202,15.03424 -2.97118,25.10994 -14.395336,31.17061 -8.08109,4.28713 -12.70913,8.00515 -12.70917,10.21015 -2e-5,1.38765 0.53896,1.63378 2.49997,1.14159 2.66283,-0.66832 3.12963,-0.0785 1.48912,1.88157 -0.55599,0.66428 -1.8904,2.38395 -2.96536,3.82147 -1.29564,1.73265 -3.23023,2.79497 -5.73911,3.15147 -2.08156,0.29578 -4.57177,0.85512 -5.5338,1.24298 -1.2347,0.49779 -2.61275,-0.21929 -4.68538,-2.43804 z m -30.56547,-64.07009 c -0.339919,-0.55 -0.168034,-1 0.381966,-1 0.55,0 1.278115,0.45 1.618034,1 0.339919,0.55 0.168034,1 -0.381966,1 -0.55,0 -1.278115,-0.45 -1.618034,-1 z"
         id="path103"
         inkscape:connector-curvature="0" />
      <path
         style="fill:#00ff00"
         d="m 1.951841,311.63808 c -3.957662,-1.18797 -5.730192,-2.88366 -7.822583,-7.48343 -3.302512,-7.26002 -1.807971,-13.33714 5.185202,-21.08414 2.027702,-2.24627 4.23116,-5.73377 4.896574,-7.75 1.400802,-4.24447 2.756331,-4.703 3.628639,-1.22745 0.336601,1.34113 2.598717,5.46325 5.026924,9.16026 2.428206,3.69701 4.919603,8.40632 5.536436,10.46512 2.297441,7.66818 -1.83067,15.92361 -8.951535,17.90138 -4.153419,1.15357 -3.720953,1.15252 -7.499657,0.0183 z m 80.772813,-78.04996 c -0.36253,-0.58659 -0.44468,-1.281 -0.18255,-1.54313 0.26212,-0.26213 0.74306,0.21781 1.06875,1.06653 0.67618,1.76211 0.0999,2.07206 -0.8862,0.4766 z m -44.95888,-56.93347 c -0.339919,-0.55 -0.168034,-1 0.381966,-1 0.55,0 1.278115,0.45 1.618034,1 0.339919,0.55 0.168034,1 -0.381966,1 -0.55,0 -1.278115,-0.45 -1.618034,-1 z"
         id="path101"
         inkscape:connector-curvature="0" />
    </g>
  </g>
</svg>
