<?xml version="1.0" encoding="UTF-8" standalone="no"?>
<!-- Created with Inkscape (http://www.inkscape.org/) -->

<svg
   xmlns:dc="http://purl.org/dc/elements/1.1/"
   xmlns:cc="http://creativecommons.org/ns#"
   xmlns:rdf="http://www.w3.org/1999/02/22-rdf-syntax-ns#"
   xmlns:svg="http://www.w3.org/2000/svg"
   xmlns="http://www.w3.org/2000/svg"
   xmlns:sodipodi="http://sodipodi.sourceforge.net/DTD/sodipodi-0.dtd"
   xmlns:inkscape="http://www.inkscape.org/namespaces/inkscape"
   version="1.1"
   id="svg2949"
   width="283"
   height="443"
   viewBox="0 0 283 443"
   sodipodi:docname="lampions4.svg"
   inkscape:version="0.92.4 (5da689c313, 2019-01-14)">
  <metadata
     id="metadata2955">
    <rdf:RDF>
      <cc:Work
         rdf:about="">
        <dc:format>image/svg+xml</dc:format>
        <dc:type
           rdf:resource="http://purl.org/dc/dcmitype/StillImage" />
        <dc:title />
      </cc:Work>
    </rdf:RDF>
  </metadata>
  <defs
     id="defs2953" />
  <sodipodi:namedview
     pagecolor="#ffffff"
     bordercolor="#666666"
     borderopacity="1"
     objecttolerance="10"
     gridtolerance="10"
     guidetolerance="10"
     inkscape:pageopacity="0"
     inkscape:pageshadow="2"
     inkscape:window-width="1920"
     inkscape:window-height="1017"
     id="namedview2951"
     showgrid="false"
     inkscape:zoom="1.5067919"
     inkscape:cx="151.7376"
     inkscape:cy="221.5"
     inkscape:window-x="-8"
     inkscape:window-y="-8"
     inkscape:window-maximized="1"
     inkscape:current-layer="g368"
     showguides="true" />
  <g
     id="g151"
     transform="translate(25.882805,-2.654647)">
    <g
       id="g180"
       transform="translate(23.228158,-38.492376)">
      <g
         id="g368"
         transform="translate(-12.369602,-0.245611)">
        <path
           style="fill:#ffff00"
           d="m 165.10283,430.2743 c -2.44711,-1.31212 -3.77223,-2.9148 -4.47619,-5.41375 -0.55,-1.95241 -1.3375,-3.88667 -1.75,-4.29835 -1.69954,-1.69617 -0.4213,-2.20135 5.80648,-2.29478 5.69241,-0.0854 6.8785,0.22367 9,2.34517 6.09505,6.09505 -0.78456,13.84174 -8.58029,9.66171 z M 29.116885,421.34021 c -1.921827,-1.5562 -2.133258,-2.38724 -1.524331,-5.99145 0.635936,-3.76408 1.163327,-4.3865 5.247654,-6.19319 2.497366,-1.1047 4.637233,-2.00855 4.75526,-2.00855 0.118026,0 0.748723,1.78276 1.401547,3.9617 1.474612,4.92181 0.653334,8.46513 -2.430392,10.48567 -3.074645,2.01458 -4.717141,1.95854 -7.449738,-0.25418 z m 115.932835,-3.11627 c -1.6077,-1.60769 -2.92308,-3.83113 -2.92308,-4.94098 0,-1.10985 -0.45,-2.29602 -1,-2.63594 -1.95466,-1.20805 -0.94277,-2.17614 3.28604,-3.14383 7.62954,-1.74589 12.71396,0.99335 12.71396,6.84966 0,2.11242 -0.81855,3.32264 -3.25,4.80513 -4.31367,2.63009 -5.37511,2.51778 -8.82692,-0.93404 z M -0.574133,416.9769 c -3.741313,-1.00705 -4.090389,-1.44729 -4.828074,-6.089 -0.479952,-3.01998 -0.133104,-3.84754 2.563623,-6.11669 3.624448,-3.04977 5.44001,-3.21826 10.944721,-1.01572 5.105876,2.04297 9.0205,1.21625 9.0205,-1.90502 0,-5.30198 7.317343,-9.39575 11.795478,-6.5991 1.160613,0.72481 3.293816,0.91388 5.545362,0.49149 3.355623,-0.62952 3.65916,-0.96702 3.65916,-4.06857 0,-3.65075 3.639729,-7.52727 7.067471,-7.52727 2.841593,0 3.325744,-3.54913 0.926784,-6.7939 -2.357281,-3.18839 -2.015627,-7.0227 0.845682,-9.4909 1.715842,-1.48011 8.226873,-3.98172 8.819889,-3.38871 0.184531,0.18453 0.618807,3.04595 0.965059,6.3587 0.579957,5.54873 0.444454,6.15283 -1.720175,7.669 -1.292347,0.9052 -3.10145,1.64581 -4.020227,1.64581 -0.918778,0 -1.968142,0.77563 -2.33192,1.72362 -0.920473,2.39871 1.994379,4.27638 6.638567,4.27638 3.296896,0 3.80887,-0.30613 3.80887,-2.27749 0,-5.56593 6.31241,-9.07839 12.04664,-6.70319 3.67351,1.52162 8.37264,0.5157 7.55422,-1.61709 -0.69887,-1.82121 1.86491,-8.35083 3.34811,-8.52723 0.57807,-0.0688 1.61353,-0.21031 2.30103,-0.31457 0.6875,-0.10426 2.4875,0.41355 4,1.15068 2.28604,1.11414 2.75,1.98461 2.75,5.15958 0,2.43012 -0.66517,4.42131 -1.82874,5.47432 -1.99311,1.80374 -7.68678,2.24791 -8.6586,0.67547 -0.98766,-1.59806 -4.49921,1.13168 -6.54312,5.08637 -2.56518,4.96328 -6.53034,6.52133 -11.40889,4.48294 -3.34398,-1.39721 -3.928136,-1.39511 -6.090692,0.0219 -1.315583,0.862 -2.661116,2.41528 -2.990072,3.45173 -1.579829,4.9776 -9.899279,7.67703 -13.530947,4.39042 -1.561563,-1.41319 -1.998467,-1.25318 -5.078741,1.86011 -1.853609,1.87347 -4.55587,4.81927 -6.005025,6.54621 -2.918637,3.4781 -7.677579,4.27578 -9.855213,1.65189 -1.080935,-1.30245 -1.603656,-1.22544 -4.191883,0.61754 -1.626326,1.15805 -3.328829,3.08364 -3.783341,4.2791 -1.6583,4.36166 -6.817586,6.745 -11.735506,5.42124 z m 78.81334,-6.71731 c -2.89321,-2.89321 -2.64855,-6.22488 0.69215,-9.42548 3.08684,-2.95738 4.69385,-3.21409 10.07926,-1.61009 2.54461,0.7579 4.43083,0.76523 6.36602,0.0247 2.37404,-0.90839 2.75,-1.60587 2.75,-5.10175 0,-3.36128 0.41042,-4.20554 2.414893,-4.96764 1.52101,-0.57829 3.81273,-0.53218 6.19124,0.12456 2.077,0.57348 5.26529,0.80107 7.08511,0.50576 3.89521,-0.63211 4.23406,0.46432 0.94344,3.05272 -1.30093,1.02331 -2.70898,2.94335 -3.12902,4.26676 -0.95867,3.0205 -4.38317,5.94286 -7.00566,5.97841 -1.1,0.0149 -3.20569,-0.60193 -4.679313,-1.37075 -2.89198,-1.50882 -3.67147,-0.98808 -10.02011,6.69394 -3.17207,3.83829 -8.79821,4.71861 -11.68801,1.82881 z m 48.610383,-2.34005 c -1.58812,-1.2996 -2.95162,-3.5569 -3.1848,-5.27252 -0.22427,-1.65 -0.738,-4.575 -1.14161,-6.5 -0.61654,-2.94053 -0.50708,-3.32109 0.68481,-2.38079 0.78026,0.61556 3.58417,1.35094 6.23092,1.63418 11.42423,1.22254 13.28468,11.63327 2.54189,14.22394 -1.58993,0.38341 -3.25567,-0.17002 -5.13121,-1.70481 z m 63.41788,-7.85173 c -1.0654,-1.14357 -2.14428,-3.28107 -2.39753,-4.75 -0.25324,-1.46894 -0.77213,-3.39288 -1.15308,-4.27543 -0.5694,-1.31914 0.23431,-1.71443 4.51715,-2.22167 8.90745,-1.05496 14.90506,3.69753 11.85603,9.3947 -2.19961,4.11001 -9.70866,5.19479 -12.82257,1.8524 z m -17.91832,-9.47749 c -1.22238,-0.85619 -2.22251,-2.33106 -2.22251,-3.2775 0,-0.94643 -0.68274,-2.69554 -1.51721,-3.88691 -1.45855,-2.08237 -1.62947,-2.10169 -4.42095,-0.4996 -2.71535,1.5584 -3.13595,1.55579 -6.48279,-0.0402 -2.53999,-1.21124 -3.58301,-2.36464 -3.5927,-3.97291 -0.0365,-6.06108 -2.32276,-8.47561 -4.98635,-5.26618 -1.99767,2.40704 -6.70945,1.87307 -8.57334,-0.97159 -1.36821,-2.08815 -1.4231,-2.91516 -0.35384,-5.33079 1.33121,-3.00741 3.6336,-4.33252 10.75089,-6.18751 4.22672,-1.10162 4.3129,-1.20717 3.84146,-4.70542 -0.65483,-4.85919 2.66831,-8.29833 8.03938,-8.32 5.08009,-0.0205 5.78628,-0.72737 5.84834,-5.85398 0.0615,-5.07847 2.08064,-7.13071 7.01579,-7.13071 4.03561,0 5.78907,2.10377 5.6149,6.73665 -0.17894,4.75998 -1.96248,6.39024 -7.29063,6.6641 -4.32783,0.22245 -4.36429,0.25559 -5.11422,4.64851 -0.91712,5.3723 -3.80849,7.89766 -9.07762,7.9285 -3.49638,0.0205 -3.95037,0.36058 -5.70116,4.27108 -2.34074,5.22822 -1.57183,6.19552 5.02735,6.32452 5.63514,0.11015 8.9727,2.37232 8.9727,6.08163 0,2.60923 2.61702,3.15552 6.12439,1.27844 3.30315,-1.7678 7.88321,-0.14497 9.3349,3.30759 1.55586,3.70029 0.98128,6.33698 -1.80643,8.28957 -2.72218,1.9067 -6.63525,1.87047 -9.43035,-0.0873 z m -48.72251,-2.63825 c -4.18985,-2.37591 -4.68291,-6.38921 -1.25,-10.17445 1.88342,-2.07673 3.35236,-2.54174 9.01614,-2.85418 3.72138,-0.2053 6.63194,-0.12647 6.46791,0.17516 -0.75888,1.39553 -2.66772,5.85862 -3.79903,8.88255 -1.71216,4.57652 -6.29301,6.31971 -10.43502,3.97092 z m -17.04452,-1.21395 c -1.53085,-1.11938 -1.93248,-2.66072 -1.9545,-7.50092 l -0.0277,-6.09202 3.51337,0.63457 c 7.03905,1.27136 10.01337,3.78102 10.01337,8.44906 0,4.77885 -7.28461,7.62424 -11.54452,4.50931 z M 94.472147,371.96914 c -2.69704,-1.30504 -3.57402,-5.33134 -2.08493,-9.57212 1.11584,-3.17777 3.34915,-4.17523 5.28942,-2.36239 0.5225,0.48818 1.88542,1.16904 3.028723,1.51302 1.81264,0.54536 2.02639,0.26886 1.66989,-2.16012 -0.54566,-3.71782 2.74964,-6.74226 6.99374,-6.41887 4.36279,0.33244 5.75765,1.82921 5.75765,6.17836 0,4.85817 -1.9008,6.41077 -7.00957,5.72554 -3.97032,-0.53253 -3.99043,-0.51824 -3.99043,2.83443 0,4.88591 -4.374423,6.81708 -9.654493,4.26215 z m -109.31728,-10.99958 c -3.13238,-1.16863 -3.993763,-2.54617 -4.012917,-6.41755 -0.02042,-4.12788 2.618678,-6.30958 8.817824,-7.28953 6.39094,-1.01027 7.945007,-2.26699 7.399509,-5.9837 -0.522698,-3.56137 2.249307,-8.13176 4.932024,-8.13176 1.064057,0 3.304122,-0.70818 4.97792,-1.57374 1.673799,-0.86555 3.201236,-1.41577 3.394306,-1.2227 0.193069,0.19307 -0.0091,3.00474 -0.449223,6.24816 -0.928673,6.84343 -3.382819,9.54828 -8.663273,9.54828 -3.808961,0 -4.834445,1.34011 -5.886442,7.69243 -0.381866,2.30584 -1.236371,4.64231 -1.898901,5.19216 -2.448525,2.0321 -6.13475,2.86172 -8.610827,1.93795 z m 147.330883,-0.74523 c -4.06824,-2.48067 -4.21379,-2.76795 -4.75097,-9.37717 l -0.45452,-5.59223 2.48829,0.94604 c 1.36856,0.52033 3.82945,0.94605 5.46864,0.94605 3.72702,0 7.88945,3.95696 7.88945,7.5 0,2.70711 -3.96925,7.50271 -6.20455,7.49626 -0.7125,-0.002 -2.70885,-0.86558 -4.43634,-1.91895 z m -76.982902,-4.71934 c -2.254321,-5.39535 -1.139605,-8.10182 4.296667,-10.43207 2.535602,-1.08689 4.685082,-1.85235 4.776602,-1.70103 0.0915,0.15132 0.65778,2.75013 1.25834,5.77513 0.99743,5.02402 0.91243,5.69472 -0.98226,7.75 -1.2272,1.33122 -3.24888,2.25 -4.950901,2.25 -2.363821,0 -3.148024,-0.64934 -4.398448,-3.64203 z m -47.804782,0.0706 c -2.41333,-2.41333 -1.950906,-7.14 0.985837,-10.07675 2.153391,-2.15339 3.140467,-2.45605 6.25,-1.91641 5.637733,0.97841 8.010798,0.88259 11.236869,-0.45369 2.460612,-1.01922 2.955865,-1.79807 2.955865,-4.64849 0,-2.30217 0.804267,-4.22841 2.454545,-5.87868 2.138422,-2.13843 3.355879,-2.45455 9.452947,-2.45455 3.849121,0 8.095091,-0.49969 9.435489,-1.11041 2.117235,-0.96468 2.370386,-1.60771 1.928863,-4.89951 -0.432228,-3.2225 -0.139466,-4.03071 1.957846,-5.40492 3.202713,-2.0985 15.77031,-2.06364 15.77031,0.0438 0,0.7541 -0.4151,1.37109 -0.92245,1.37109 -0.50734,0 -1.46599,1.6875 -2.13032,3.75 -0.66433,2.0625 -1.66288,4.3228 -2.219,5.02289 -0.75924,0.95581 -0.59531,1.11333 0.65811,0.63235 0.91807,-0.35229 2.12255,-1.4876 2.67662,-2.52289 1.75898,-3.28668 3.51832,-2.05199 5.34831,3.75341 1.72945,5.48645 1.72505,5.70501 -0.16625,8.25 -1.19977,1.61445 -3.10677,2.73101 -4.98639,2.91958 -2.45946,0.24674 -3.48015,-0.3077 -5.318,-2.88872 -1.85896,-2.61067 -2.092327,-3.67638 -1.27766,-5.83468 0.96703,-2.56196 0.89712,-2.62898 -2.346899,-2.25026 -1.83899,0.21469 -4.012419,-0.16471 -4.829844,-0.84311 -1.185138,-0.98358 -1.834196,-0.95542 -3.203861,0.13899 -3.376172,2.69766 -6.237945,6.42202 -7.280616,9.47511 -0.978319,2.86465 -4.418804,5.40592 -7.298803,5.39117 -0.661621,-0.003 -2.487023,-0.67587 -4.056449,-1.4944 -2.629481,-1.37139 -3.085239,-1.32322 -5.805298,0.61364 -1.623488,1.15602 -4.100755,3.966 -5.505037,6.24439 -1.404283,2.27839 -3.265407,4.70503 -4.135832,5.39253 -2.209572,1.74522 -7.747108,1.56037 -9.628902,-0.32143 z m 81.282471,-0.55622 c -4.45394,-1.6323 -5.3053,-8.87525 -1.348,-11.46817 2.07333,-1.3585 3.00035,-1.43713 5.37028,-0.45547 4.9784,2.06212 5.9946,7.01909 2.31683,11.30129 -1.6732,1.94819 -2.49992,2.02935 -6.33911,0.62235 z M 228.57889,349.501 c -1.34874,-1.45532 -2.45225,-3.42407 -2.45225,-4.375 0,-0.95094 -0.2914,-3.186 -0.64757,-4.96681 l -0.64756,-3.23783 4.39756,0.68588 c 6.96025,1.08558 7.82915,1.5068 9.40854,4.56099 1.79818,3.4773 1.91906,7.14876 0.28903,8.77879 -2.19358,2.19358 -7.68599,1.42606 -10.34775,-1.44602 z M 115.1089,340.39733 c -1.65125,-2.09921 -2.02586,-3.57772 -1.58359,-6.25 0.31863,-1.92517 0.58427,-4.00239 0.59032,-4.61604 0.008,-0.77455 1.31059,-0.86431 4.26101,-0.29355 2.3375,0.4522 4.55536,0.84178 4.92857,0.86573 1.82397,0.11706 3.82143,3.54507 3.82143,6.55827 0,6.39673 -7.97464,8.87556 -12.01774,3.73559 z m 100.76772,-4.33042 c -2.79411,-1.62742 -4.53616,-6.06883 -4.07401,-10.38683 0.23352,-2.18182 0.53546,-4.07782 0.67097,-4.21333 0.73279,-0.73279 10.34215,2.96347 11.40306,4.38621 2.11891,2.84157 1.50179,6.95084 -1.38486,9.22148 -2.93807,2.31109 -4.06178,2.47968 -6.61516,0.99247 z m -35.54441,-1.96749 c -1.26194,-0.50645 -2.96187,-2.51824 -3.77764,-4.47064 -0.81576,-1.95241 -2.59577,-4.05674 -3.95557,-4.67631 -3.23808,-1.47536 -3.19033,-3.20247 0.0659,-2.38519 1.39607,0.35039 4.29777,0.10992 6.44822,-0.53437 5.01347,-1.50207 9.36164,0.12622 11.01848,4.12618 1.51122,3.6484 0.61318,6.38524 -2.57127,7.83617 -2.94578,1.34219 -4.10185,1.35885 -7.22816,0.10416 z M -9.622585,330.88618 c -3.287577,-3.54344 -3.307673,-6.6766 -0.06222,-9.7002 2.91378,-2.7146 8.871447,-2.73512 11.311439,-0.039 0.995486,1.1 2.640231,2 3.654988,2 1.014759,4e-5 1.845015,0.15016 1.845015,0.33365 0,0.18349 -1.757314,2.23712 -3.905142,4.56364 -4.850242,5.25376 -9.625987,6.31045 -12.84408,2.84191 z m 24.764253,-1.70373 c -3.310163,-0.82389 -5.907501,-5.38015 -4.433236,-7.7768 0.594988,-0.96725 2.057833,-2.20299 3.250766,-2.74609 1.778929,-0.80988 2.062458,-1.55522 1.576668,-4.1447 -0.666693,-3.55378 0.860456,-7.12454 3.99947,-9.35152 1.718713,-1.21934 8.649076,-5.01632 9.15595,-5.01632 0.267077,0 -0.674881,10.49775 -1.146835,12.78102 -0.259319,1.25456 -1.8468,3.1174 -3.527736,4.13963 -3.887984,2.36443 -2.273632,3.51391 3.680921,2.62097 3.335113,-0.50013 4.429001,-1.10472 4.429001,-2.44791 0,-4.4114 7.825987,-7.77367 12.226055,-5.25267 4.014565,2.30013 7.631441,0.67834 9.283395,-4.16263 1.795741,-5.26233 3.972162,-6.60917 10.74055,-6.64661 5.92629,-0.0328 9.75,-2.17375 9.75,-5.45922 0,-3.96032 9.84808,-7.3245 12.8,-4.37258 1.85143,1.85143 1.42172,6.57828 -0.8,8.8 -2.57317,2.57317 -2.55364,2.63927 0.98906,3.34781 4.27514,0.85503 6.01094,-0.12652 6.01094,-3.39904 0,-1.56048 1.05784,-4.06706 2.35077,-5.57017 2.12321,-2.46839 2.91959,-2.70991 8.227243,-2.49518 3.23207,0.13076 6.01484,0.37609 6.18393,0.54519 0.16909,0.16909 -0.13424,2.27933 -0.67407,4.68941 -1.43822,6.42096 -4.95114,9.08458 -11.462743,8.69142 l -5.12513,-0.30944 -2.12044,4.41868 c -1.16624,2.43027 -2.93975,5.01777 -3.94113,5.75 -2.62042,1.9161 -7.83938,1.65075 -9.78344,-0.49742 -3.61814,-3.998 -0.9381,-11.17126 4.17375,-11.17126 1.19419,0 2.17126,-0.40787 2.17126,-0.90638 0,-0.49851 -0.84744,-0.68477 -1.88319,-0.41392 -1.03575,0.27086 -3.22205,-0.19988 -4.85844,-1.04609 -2.8606,-1.47928 -3.06925,-1.43442 -5.41454,1.16391 -1.34161,1.48637 -3.08887,4.00073 -3.8828,5.58749 -2.29134,4.57952 -5.38372,6.12773 -9.633956,4.8233 -3.108455,-0.95401 -3.939197,-0.81562 -6.508988,1.08431 -1.620166,1.19784 -3.8542,3.64778 -4.964518,5.44431 -3.101193,5.01784 -7.08758,5.34391 -13.038467,1.06651 -2.222729,-1.59766 -6.439855,0.57024 -8.37003,4.30278 -1.588309,3.07145 -5.809584,4.83033 -9.43004,3.92921 z m 89.984972,-5.03543 c -1.23057,-1.23057 -1.96963,-3.25033 -1.92105,-5.25 0.0434,-1.7875 0.30592,-2.6875 0.58333,-2 0.70258,1.74117 2.33772,1.56631 2.33772,-0.25 0,-0.825 -0.675,-1.5 -1.5,-1.5 -1.00787,0 -1.5,-1.00806 -1.5,-3.07258 v -3.07258 l 2.63486,2.07258 c 1.44917,1.13992 3.24917,2.07258 4,2.07258 2.22305,0 5.36514,3.80672 5.36514,6.5 0,3.00281 -3.22818,6.5 -6,6.5 -1.1,0 -2.9,-0.9 -4,-2 z m 52,-0.68864 c -2.53168,-0.96598 -4.99968,-3.53759 -5.00616,-5.21635 -0.003,-0.87725 -0.67839,-2.88395 -1.5,-4.45932 -0.82161,-1.57537 -1.49384,-3.18611 -1.49384,-3.57942 0,-1.14394 10.24407,-1.12002 13.12028,0.0306 2.67937,1.07191 4.87972,4.59139 4.87972,7.80516 0,3.4623 -6.25083,6.84981 -10,5.41929 z m 43.71164,-5.32355 c -2.55276,-2.008 -3.56338,-4.77454 -4.18418,-11.45414 -0.35024,-3.76847 0.068,-4.06467 3.67549,-2.60288 1.26338,0.51194 3.5221,1.19239 5.01937,1.51211 3.8623,0.82474 6.77768,4.34084 6.77768,8.17423 0,6.11107 -6.08207,8.46595 -11.28836,4.37068 z m -67.63491,-12.5767 c -2.11283,-1.77783 -3.07673,-3.48344 -3.07673,-5.44424 0,-3.84468 -4.35198,-8.96792 -6.13044,-7.21687 -1.90706,1.87767 -7.21994,1.50387 -9.55581,-0.67232 -1.13485,-1.05728 -2.36688,-3.86978 -2.73785,-6.25 -0.46107,-2.9584 -1.46502,-4.90757 -3.17301,-6.16044 -3.15533,-2.31454 -4.9498,-1.0636 -6.44623,4.4937 -1.59893,5.938 -6.960163,7.48333 -12.331663,3.5545 -4.17661,-3.05486 -0.33716,-11.60827 5.29931,-11.80563 2.35789,-0.0826 2.30131,-0.16942 -0.66911,-1.02724 -3.61275,-1.04332 -6.17131,-4.29681 -7.2016,-9.15762 -0.52395,-2.47194 -1.13537,-3.14555 -2.61858,-2.88488 -4.20795,0.73951 -6.88406,0.26632 -8.12996,-1.43755 -1.84193,-2.51899 -1.61962,-5.80787 0.52368,-7.74753 4.02422,-3.64187 10.17126,-0.81727 10.17126,4.67375 0,2.50592 0.28329,2.67126 4.57692,2.67126 3.7633,0 5.11614,0.53922 7.61022,3.03329 2.246033,2.24603 2.908103,3.68815 2.550953,5.55645 -0.51366,2.68708 1.41579,5.41026 3.83334,5.41026 0.78571,0 1.42857,0.35298 1.42857,0.78439 0,1.62292 5.95452,4.21561 9.68179,4.21561 5.33026,0 8.17463,2.24991 8.94647,7.0767 0.76964,4.81307 1.27913,5.16154 8.85204,6.05446 6.84498,0.80709 10.5197,3.89966 10.5197,8.85318 0,6.13598 -6.48765,8.00055 -11.92327,3.42677 z M 29.699567,298.57709 c -2.405429,-2.40543 -2.864275,-5.79702 -1.293031,-9.55754 1.273996,-3.0491 2.051912,-3.55012 7.322762,-4.71629 3.243536,-0.71763 6.451365,-1.53104 7.128509,-1.80757 0.895054,-0.36552 0.826803,0.465 -0.25,3.04215 -0.814644,1.94972 -1.48117,4.71901 -1.48117,6.15398 0,3.12048 -4.953914,8.4552 -7.851648,8.4552 -1.103022,0 -2.711962,-0.70647 -3.575422,-1.56993 z m 158.715283,0.0491 c -3.73237,-1.56935 -4.63584,-3.97819 -3.7379,-9.96606 0.6291,-4.19514 2.46199,-5.92022 3.86986,-3.64224 0.29602,0.47896 1.80568,1.12433 3.3548,1.43415 3.5369,0.70738 5.65745,4.44974 4.78142,8.43827 -0.87289,3.97424 -4.16431,5.46142 -8.26818,3.73588 z m -47.71678,-14.05057 c -2.49765,-2.49764 -1.98707,-8.10384 1.0111,-11.10201 2.34817,-2.34817 3.07414,-2.52474 8,-1.94581 l 5.41747,0.63672 v -3.91984 c 0,-3.18017 0.60235,-4.42668 3.19211,-6.60583 2.69842,-2.27057 3.79831,-2.58904 7.11176,-2.0592 2.42349,0.38753 4.45878,0.17934 5.33206,-0.54541 2.05656,-1.7068 2.86966,-0.29226 1.52651,2.65564 -0.63934,1.4032 -1.16244,3.68972 -1.16244,5.08115 0,1.47858 -1.24876,3.77863 -3.00508,5.53495 -2.62992,2.62991 -3.59016,2.96363 -7.69158,2.67307 l -4.68649,-0.332 -1.27922,4.3684 c -0.70357,2.40262 -2.07986,4.97581 -3.05842,5.7182 -2.44287,1.85328 -8.79015,1.75961 -10.70778,-0.15803 z m 38.65753,-4.09786 c -3.32626,-1.33831 -5.28773,-9.48386 -3.21594,-13.35504 0.98438,-1.83934 1.11868,-1.83138 4.75,0.28149 6.23144,3.62574 7.37574,6.14942 5.07646,11.19579 -1.11545,2.44816 -3.50547,3.12706 -6.61052,1.87776 z M 48.800667,276.67819 c -3.92867,-3.92867 -0.365741,-12.53117 5.190081,-12.53117 2.875109,0 7.775769,-2.53409 8.946579,-4.6262 0.59377,-1.06101 0.43113,-2.58633 -0.46793,-4.38855 -2.646872,-5.30577 1.84064,-10.98525 8.67975,-10.98525 4.32698,0 5.97749,-1.45587 5.97749,-5.27258 v -2.87258 l -2.63486,2.07258 c -4.28995,3.37447 -7.12586,2.71217 -14.675895,-3.42742 -4.319055,-3.5122 -4.593062,-4.5 -1.248262,-4.5 1.342541,0 2.687567,-0.39899 2.988957,-0.88664 0.30138,-0.48765 2.1154,-1.18069 4.03116,-1.54008 4.1533,-0.77917 9.0792,1.40297 10.04645,4.4505 0.62249,1.96129 0.79045,1.92176 4.0702,-0.95791 2.06015,-1.80883 4.04161,-2.76543 4.98129,-2.40484 0.94672,0.36329 2.7281,-0.52 4.5297,-2.24605 2.67033,-2.55834 2.90483,-3.27504 2.32868,-7.11709 -0.35237,-2.34975 -0.37622,-5.32589 -0.053,-6.61364 0.61055,-2.43264 4.30342,-4.68425 7.68265,-4.68425 1.074123,0 2.889563,-0.93661 4.034313,-2.08136 1.82787,-1.82787 1.90727,-2.28458 0.652,-3.75 -2.4379,-2.84602 -2.77842,-5.18081 -1.2006,-8.23199 1.27407,-2.46377 2.12779,-2.93665 5.30179,-2.93665 2.08076,0 4.57402,-0.57827 5.54059,-1.28504 1.66016,-1.21394 1.64307,-1.38851 -0.30887,-3.15499 -3.46982,-3.14014 -1.93815,-10.36426 2.25516,-10.63648 2.87773,-0.18682 4.96051,-0.87821 7.33764,-2.43576 1.86764,-1.22373 2.25703,-1.97163 1.44783,-2.78083 -0.60881,-0.60879 -1.10692,-2.22245 -1.10692,-3.5859 0,-1.36345 -0.5404,-3.97345 -1.20089,-5.8 -0.94254,-2.60656 -1.76249,-3.321 -3.81144,-3.321 -3.39077,0 -6.62554,-3.07474 -7.52021,-7.14817 -0.58215,-2.6505 -0.3067,-3.56358 1.52164,-5.04409 2.84625,-2.30475 4.14806,-2.27429 7.25516,0.16976 2.8557,2.24629 4.05077,6.60272 2.57018,9.36922 -1.36339,2.54751 -0.17056,3.41569 5.61146,4.08422 7.11976,0.82321 9.39263,2.63947 9.76586,7.80396 l 0.30824,4.2651 6.34032,0.50435 c 5.37408,0.42748 6.70756,0.93127 8.75,3.30576 1.32533,1.54078 2.40968,3.67632 2.40968,4.74565 0,2.89847 -3.58673,5.94424 -7,5.94424 -3.77794,0 -6.59172,-2.77003 -7.95443,-7.83076 -1.37056,-5.08989 -3.21201,-6.68572 -5.99566,-5.19595 -1.15584,0.61859 -3.58666,0.82904 -5.47782,0.47426 -2.83841,-0.53249 -3.5933,-0.27644 -4.57102,1.55045 -0.64412,1.20356 -0.88193,3.34055 -0.52846,4.74888 0.98978,3.9436 -1.25635,8.25987 -4.6517,8.93894 -3.50431,0.70086 -4.82091,2.91119 -4.82091,8.09345 0,4.31956 -2.2989,7.22073 -5.72175,7.22073 -2.63151,0 -3.27825,1.76981 -3.27825,8.971 0,7.66588 -2.15285,10.54357 -7.777513,10.39609 -3.55694,-0.0933 -4.14351,0.24408 -5.54892,3.19125 -1.00614,2.1099 -1.36139,4.59057 -0.98742,6.89507 0.56951,3.50946 0.64241,3.56133 2.9138,2.07305 4.71183,-3.0873 12.400053,-0.60606 12.400053,4.00192 0,1.26131 1.32546,1.47973 7.58532,1.25 6.93752,-0.25461 7.74884,-0.0768 9.5,2.0824 2.49671,3.07843 2.43063,6.62327 -0.17198,9.22588 -2.93223,2.93223 -6.46083,1.83136 -11.63604,-3.63026 -4.71293,-4.97376 -5.28333,-5.15378 -8.87449,-2.80076 -2.31978,1.51998 -2.799103,1.52581 -5.849503,0.0712 -1.84765,-0.88108 -3.92028,-2.93456 -4.66886,-4.62573 l -1.34619,-3.04126 -2.82412,3.09201 c -2.37688,2.60235 -3.35022,3.00663 -6.14634,2.55289 -2.82493,-0.45843 -3.49028,-0.17026 -4.44501,1.92513 -0.61753,1.35534 -1.12279,3.3777 -1.12279,4.49413 0,3.09105 -5.32385,7.87602 -8.76302,7.87602 -2.50558,0 -3.07417,0.52875 -4.03255,3.75 -0.61363,2.0625 -1.37502,5.40539 -1.69198,7.42864 -0.778169,4.9672 -3.29096,7.76674 -7.58842,8.45438 -2.587321,0.41399 -4.03879,0.10936 -5.25,-1.10185 z m 64.325973,0.72765 c -4.37131,-1.6998 -5.12292,-6.84182 -1.59892,-10.93872 2.01486,-2.34241 3.10063,-2.76003 6.75,-2.59627 7.62459,0.34214 8.84477,-0.27516 8.88072,-4.49288 0.0175,-2.05202 0.58,-4.43954 1.25,-5.30559 1.78959,-2.31321 7.55845,-4.08123 9.6552,-2.95908 0.95681,0.51207 2.78831,0.65681 4.07,0.32164 2.00031,-0.5231 2.21535,-0.3388 1.51837,1.30134 -0.44658,1.05091 -1.48091,3.83867 -2.2985,6.19504 -1.7977,5.18113 -4.13772,6.59857 -9.83353,5.95657 -5.05901,-0.57023 -6.4297,0.59073 -8.25607,6.99281 -1.56028,5.46934 -5.19134,7.44839 -10.13727,5.52514 z m 63.46398,-19.89219 c -2.0624,-2.22537 -2.49335,-3.46977 -2.02045,-5.83428 0.88122,-4.4061 2.64398,-5.64055 9.18712,-6.43368 8.2686,-1.00229 9.98227,-2.17609 10.67075,-7.3091 0.80319,-5.98826 4.54132,-9.16089 9.75576,-8.27991 5.25959,0.8886 7.94284,-0.74048 7.94284,-4.82234 0,-4.0951 2.05023,-7.05127 6.03509,-8.70186 2.85362,-1.182 3.31292,-1.08876 5.47853,1.11219 3.77069,3.83221 4.06144,7.06548 0.96616,10.74402 -2.71481,3.22636 -5.74415,3.90221 -9.97978,2.22652 -1.54311,-0.61048 -2.39827,-0.19465 -3.74341,1.82029 -0.95888,1.43634 -1.74638,3.56333 -1.75,4.72666 -0.004,1.16333 -0.9826,3.35594 -2.1755,4.87247 -2.00906,2.5541 -2.56213,2.71675 -7.50392,2.20671 -5.1204,-0.52847 -5.43539,-0.41899 -7.83108,2.72192 -1.37285,1.7999 -2.49609,4.38912 -2.49609,5.75384 0,2.93369 -3.40779,6.41063 -7.20723,7.35346 -2.17529,0.5398 -3.22233,0.116 -5.32879,-2.15691 z M 14.894515,254.21979 c -3.295953,-0.69097 -6.767878,-3.51139 -6.767878,-5.49788 0,-5.64099 3.997987,-8.91681 11,-9.01304 l 4.5,-0.0618 0.545464,-4.74546 c 0.67209,-5.84709 1.534272,-6.74742 7.535168,-7.86851 5.937972,-1.10933 6.283648,-1.46619 3.813208,-3.93663 -1.869647,-1.86965 -2.19161,-1.897 -5.122177,-0.43504 -5.543357,2.76539 -10.889333,-0.50022 -12.632975,-7.7169 -0.359132,-1.48639 -1.74345,-3.96139 -3.076263,-5.5 -1.944583,-2.24483 -2.674095,-2.55053 -3.692861,-1.54746 -1.676892,1.65105 -6.019804,1.59184 -8.352506,-0.11387 -2.414859,-1.76579 -2.814204,-11.21391 -0.533618,-12.62491 4.873406,-3.01517 12.511034,2.62754 11.800018,8.7179 -0.498991,4.27422 1.022092,5.197 9.438997,5.7263 6.855748,0.43112 9.379232,2.30302 10.472272,7.76822 0.741993,3.70991 2.931181,4.77631 9.805273,4.77631 7.04413,0 9.031443,1.05023 10.519547,5.55923 1.03525,3.13684 0.953212,3.7492 -0.669914,5.0005 -4.392645,3.38639 -10.306303,2.19562 -13.788929,-2.77652 -1.542048,-2.20159 -1.560704,-2.18659 -1.560704,1.2545 0,2.34018 -0.829901,4.37774 -2.529719,6.21092 -2.355915,2.54074 -3.84778,3.20193 -8.970281,3.97555 -1.517723,0.22921 -2.134008,1.30286 -2.555729,4.45239 -0.860434,6.42595 -4.162547,9.44731 -9.176393,8.3962 z m 132.304705,-2.70763 c -2.77534,-3.52828 -2.61227,-6.91636 0.48181,-10.01044 2.13852,-2.13852 3.23748,-2.47984 6.75,-2.09646 2.51701,0.27472 5.50506,-0.13536 7.46853,-1.02497 2.8143,-1.27511 3.24223,-1.93852 3.05394,-4.73439 -0.38192,-5.67109 3.61318,-9.59727 8.67314,-8.52352 0.55,0.11672 2.47763,0.45634 4.28361,0.75472 l 3.28361,0.54251 -0.6655,-4.16182 c -0.8013,-5.01108 1.37012,-8.11077 5.68184,-8.11077 3.5892,0 5.91644,2.3882 5.91644,6.07143 0,4.24359 -3.33435,7.23368 -7.13551,6.39881 -3.4741,-0.76304 -5.7592,1.39163 -5.86449,5.52976 -0.035,1.375 -0.66027,3.28594 -1.38952,4.24654 -1.69475,2.2324 -6.78451,3.26587 -9.34235,1.89696 -1.62327,-0.86875 -2.43478,-0.57418 -4.5439,1.64943 -1.41224,1.48889 -2.88462,4.42987 -3.27197,6.53551 -1.38236,7.51457 -9.13496,10.43299 -13.37968,5.0367 z m -9.07258,-19.07458 c -7.28423,-2.67836 -6.2249,-13.24685 1.4801,-14.76629 6.74831,-1.33077 10.62503,-1.50338 9.97024,-0.44392 -0.38326,0.62013 -0.83775,3.2176 -1.00997,5.77214 -0.24995,3.70748 -0.93447,5.1998 -3.39253,7.39607 -3.07574,2.74818 -4.22316,3.08062 -7.04784,2.042 z M 42.126637,218.14702 c -4.507099,-4.5071 -0.357961,-11.01939 7.610568,-11.94518 4.651412,-0.54041 4.879376,-0.70812 4.682868,-3.4451 -0.235021,-3.27339 2.149335,-8.52748 3.982244,-8.77516 0.673376,-0.091 3.78955,-0.20349 6.92484,-0.25 5.49177,-0.0815 5.6522,-0.0108 4.38114,1.93011 -0.72566,1.10806 -1.64016,3.47519 -2.03223,5.26028 -0.95653,4.35503 -3.03557,6.22505 -6.920859,6.22505 -3.980275,0 -5.628571,1.5361 -5.628571,5.24545 0,6.34799 -8.599795,10.15475 -13,5.75455 z M 152.4175,216.13097 c -1.28995,-0.51926 -2.58217,-2.26125 -3.10566,-4.18661 -1.2853,-4.72727 1.11199,-8.60692 5.77718,-9.34948 1.94569,-0.3097 4.60869,-0.78544 5.91778,-1.05719 2.09403,-0.43471 2.29673,-0.21741 1.68621,1.80761 -0.38167,1.26595 -0.951,4.23409 -1.26518,6.59587 -0.45259,3.40216 -1.15605,4.59655 -3.38656,5.75 -1.54842,0.80072 -2.95016,1.42733 -3.11497,1.39246 -0.16481,-0.0349 -1.29377,-0.46356 -2.5088,-0.95266 z m 54.18667,-0.37915 c -1.66235,-0.7243 -4.13735,-2.94964 -5.5,-4.9452 -3.14465,-4.60526 -4.56152,-5.12508 -7.21957,-2.64874 -4.20546,3.91799 -7.67763,2.27132 -14.58402,-6.91644 -2.29315,-3.05064 -5.46733,-4.04676 -6.67394,-2.09442 -1.7421,2.81878 -11.5,-0.9427 -11.5,-4.43303 0,-0.70833 -1.06029,-2.8503 -2.3562,-4.75992 l -2.35619,-3.47205 8.85619,0.11965 8.8562,0.11964 v -3.15228 c 0,-4.54874 3.2574,-8.15446 8.28113,-9.16666 4.03462,-0.8129 4.20455,-0.99446 3.89089,-4.15732 -0.44056,-4.4425 1.58782,-9.03259 4.20457,-9.51464 10.10484,-1.8615 10.14282,-1.88312 9.83181,-5.59919 -0.44543,-5.32227 0.53861,-7.80201 3.75643,-9.46601 3.92839,-2.03145 4.70927,-1.935 7.58062,0.93636 5.26416,5.26415 1.55655,13.18189 -5.72843,12.23331 -4.25138,-0.55358 -4.81702,0.24292 -4.81702,6.78314 0,6.06626 -2.45046,8.7602 -8.61203,9.46772 l -4.88797,0.56128 -0.30032,4.64055 c -0.38205,5.90346 -2.65923,8.11648 -8.27207,8.03901 -4.10906,-0.0567 -4.14665,-0.0248 -3.54039,3.00656 0.33703,1.68514 0.61278,3.63385 0.61278,4.33047 0,1.97035 4.47072,2.61729 9.25117,1.33872 5.7305,-1.53268 9.84216,0.26332 11.20563,4.89469 1.0473,3.55744 2.63744,3.98273 6.5432,1.75 3.63926,-2.08039 8.64725,-1.85275 11,0.5 2.86852,2.86852 2.74217,9.36676 -0.22251,11.4433 -2.655,1.85964 -3.36642,1.87538 -7.29996,0.1615 z M 74.408917,194.89702 c -1.1365,-1.2375 -2.37353,-3.825 -2.74897,-5.75 -0.37544,-1.925 -0.90993,-4.30509 -1.18776,-5.28908 -0.41504,-1.47001 -0.0705,-1.67999 1.93203,-1.17739 2.18569,0.54858 2.49848,0.23385 3.0314,-3.05015 0.78929,-4.8638 2.29455,-6.47882 6.06346,-6.50562 1.72016,-0.0122 4.1403,-0.80185 5.3781,-1.75471 1.88785,-1.45327 2.11157,-2.21705 1.3882,-4.7393 -0.47429,-1.65376 -0.65607,-4.41231 -0.40395,-6.13012 0.39135,-2.66647 0.96648,-3.20575 3.93208,-3.687 1.91052,-0.31003 4.49154,-0.1767 5.73561,0.29629 2.703383,1.02783 5.561093,6.46037 4.842963,9.20652 -0.76088,2.90959 -4.671933,5.03321 -8.640023,4.69134 -1.92398,-0.16576 -3.82265,0.0231 -4.21927,0.41974 -0.39662,0.39662 -1.0624,3.23596 -1.47951,6.30965 -0.41711,3.07368 -1.44397,6.34609 -2.28192,7.27201 -1.03508,1.14375 -1.22406,2.15709 -0.58944,3.16066 4.06065,6.42142 -5.52589,12.41884 -10.753,6.72716 z m -103.78228,-1.94495 c -6.50443,-3.68842 -3.539067,-11.80505 4.312909,-11.80505 2.931191,0 4.47755,0.69374 6.687091,3 3.04238,3.17556 5.5,3.90608 5.5,1.63486 0,-0.75083 0.932661,-2.55083 2.07258,-4 2.655586,-3.37603 6.470445,-3.42311 10.92742,-0.13486 1.863708,1.375 4.763633,2.53553 6.44428,2.57895 1.680646,0.0434 2.38072,0.32652 1.55572,0.62912 -0.825,0.30259 -3.204207,2.29207 -5.287126,4.42105 -4.680461,4.78397 -8.980159,5.19974 -13.597133,1.31482 -2.634943,-2.21716 -3.341208,-2.395 -5.326725,-1.3413 -1.258959,0.66812 -2.877033,2.04334 -3.59572,3.05606 -1.483901,2.09099 -6.550005,2.4288 -9.693296,0.64635 z m 43.702047,-6.93505 c -3.843544,-1.90163 -3.986456,-2.13803 -3.132288,-5.18127 0.492251,-1.7538 2.100423,-4.242 3.573714,-5.52933 2.175601,-1.90099 3.352772,-2.21667 6.267619,-1.68076 1.973899,0.36291 5.613305,0.74118 8.087568,0.8406 3.938309,0.15824 4.512132,-0.0822 4.606819,-1.93069 0.38985,-7.6106 2.613565,-9.47124 11.773957,-9.8516 3.36631,-0.13977 7.358064,-0.59155 8.870564,-1.00395 1.796963,-0.48996 2.75,-0.36569 2.75,0.35859 0,0.60963 -1.0125,1.12209 -2.25,1.13882 -2.149871,0.029 -2.163773,0.0804 -0.312379,1.15469 1.065692,0.61835 3.743247,1.28692 5.950122,1.4857 5.000867,0.45046 8.391767,2.6025 9.204787,5.84185 1.5867,6.3219 -2.63466,10.3504 -8.33455,7.95378 -2.770982,-1.16511 -3.264374,-2.0105 -4.327662,-7.41509 -0.660061,-3.35503 -1.63259,-6.36733 -2.161176,-6.69402 -1.331483,-0.8229 -3.363047,1.41954 -6.016814,6.64136 -2.767746,5.4461 -7.100158,7.09035 -11.630664,4.41412 -2.628026,-1.55242 -2.983528,-1.54942 -5.418011,0.0457 -1.432991,0.93893 -3.56768,3.69487 -4.743752,6.12431 -1.176073,2.42945 -2.435671,4.46848 -2.799107,4.53119 -4.23339,0.73048 -6.553799,0.44062 -9.958747,-1.24402 z m 49.560213,-24.94324 c -2.50508,-1.45947 -3.975369,-4.67995 -3.221297,-7.05582 0.963377,-3.03532 6.437587,-5.02428 10.567997,-3.83969 4.91287,1.40899 6.55207,0.49004 7.28334,-4.08312 0.52721,-3.297 1.24514,-4.28446 4.10725,-5.64931 4.66417,-2.22418 8.06134,-0.49646 9.68597,4.92604 1.04613,3.4917 0.94852,4.08555 -0.99027,6.02434 -2.36816,2.36816 -9.26804,3.03242 -9.95925,0.95879 -0.56248,-1.68743 -4.236,0.39746 -4.236,2.40412 0,0.84795 -1.31538,2.85712 -2.92308,4.46481 -3.04816,3.04816 -7.03163,3.76256 -10.31466,1.84984 z m -22.76226,-1.92676 c -2.034726,-2.03473 -2.453098,-4.70737 -1.369714,-8.75 0.845952,-3.15666 7.410749,-3.1957 10.330759,-0.0614 2.257336,2.42297 2.720557,7.72984 0.838955,9.61144 -1.901402,1.9014 -7.560571,1.43943 -9.8,-0.8 z m -11,-12 c -1.1,-1.1 -2.051907,-3.0125 -2.11535,-4.25 -0.06344,-1.2375 -0.219901,-2.7 -0.347685,-3.25 -0.127785,-0.55 -0.300878,-1.7875 -0.384651,-2.75 -0.1058,-1.21558 -1.010883,-1.75 -2.963753,-1.75 -6.090707,0 -9.302086,-7.16834 -5.380819,-12.0109 3.781749,-4.67026 11.60186,0.15751 10.84095,6.6927 -0.194067,1.66678 -0.641829,3.49808 -0.995027,4.06957 -0.81439,1.31771 1.575663,2.24863 5.773135,2.24863 1.891367,0 3.95898,0.7688 4.918212,1.82874 3.641954,4.02431 0.542299,11.17126 -4.845012,11.17126 -1.375,0 -3.4,-0.9 -4.5,-2 z m 105.409093,-11.5 c -3.02288,-3.02288 -4.79242,-3.11437 -9.67027,-0.5 -10.16513,5.44818 -19.05973,-2.17116 -11.96555,-10.25 2.52843,-2.87938 6.01663,-2.12062 10.34379,2.25 4.48521,4.53026 7.86405,5.27721 7.91621,1.75 0.0858,-5.80193 7.10102,-8.67379 12.5179,-5.12451 2.14167,1.40327 3.09379,1.45386 6.96482,0.37004 3.6184,-1.01309 4.48401,-1.69159 4.48401,-3.5147 0,-1.24259 -0.81999,-3.27191 -1.82221,-4.50959 -1.74544,-2.15554 -1.92976,-2.17986 -4.37551,-0.57734 -4.00682,2.62536 -6.60681,2.73229 -8.81461,0.3625 -1.09322,-1.17344 -1.98767,-2.97102 -1.98767,-3.99462 0,-1.0236 -0.65125,-3.12048 -1.44723,-4.65974 l -1.44723,-2.79863 5.8768,0.12957 c 6.38241,0.14072 9.65853,2.04042 10.21179,5.92145 0.27448,1.92537 1.02196,2.17645 7.28335,2.44645 4.53647,0.19561 7.57553,0.84211 8.68698,1.84796 2.09823,1.89887 4.13202,0.86066 3.32082,-1.69522 -0.32784,-1.03294 -0.0476,-2.90757 0.62266,-4.16584 2.5362,-4.76086 6.65736,-6.04132 10.58647,-3.28927 3.409,2.38776 5.80559,0.74934 5.80559,-3.96898 0,-3.192646 0.47043,-4.204998 2.40139,-5.167685 1.60057,-0.797969 3.20633,-0.891189 4.8151,-0.279533 1.32754,0.504729 4.0082,0.91769 5.95702,0.91769 3.19378,0 3.4866,-0.225948 2.96842,-2.290548 -0.90513,-3.606319 2.69966,-8.709452 6.15224,-8.709452 3.73124,0 5.80766,1.692353 7.6961,6.272594 1.51051,3.663587 1.48387,3.844178 -0.92196,6.25 -2.9079,2.907904 -8.5459,3.356954 -11.02476,0.878099 -2.12315,-2.123147 -3.76798,-0.720011 -5.99654,5.115385 -1.92424,5.03856 -5.07785,6.60815 -9.0287,4.49372 -2.96842,-1.58865 -4.51831,-0.61902 -4.51831,2.82671 0,1.49516 -0.72995,3.76063 -1.62212,5.03438 -1.39826,1.99629 -2.19178,2.23187 -5.75,1.70704 -8.99811,-1.32718 -9.10165,-1.30751 -9.45635,1.79691 l -0.32847,2.87484 7.36105,-0.68978 c 6.60252,-0.61871 7.64106,-0.46953 10.07847,1.44774 3.14654,2.47507 3.73558,7.83135 1.14599,10.42093 -3.42804,3.42804 -12.42857,0.63554 -12.42857,-3.85609 0,-1.97637 -6.18131,-6.65506 -7.46523,-5.65049 -2.17824,1.7043 -7.07035,1.87471 -9.67354,0.33697 -2.45694,-1.45135 -2.8819,-1.4093 -6.14625,0.60818 -2.05787,1.27183 -3.78704,3.29645 -4.18503,4.90009 -1.72269,6.94136 -8.47623,9.3774 -13.12086,4.73277 z m -74.409093,-9.20623 c -5.60692,-2.04964 -7.922221,-9.24421 -4.090761,-12.71163 2.965628,-2.68386 9.935791,-2.54074 13.904891,0.28551 1.81505,1.29243 4.7369,2.41344 6.49298,2.49112 2.90347,0.12843 3.22121,-0.15219 3.50528,-3.09576 0.34136,-3.53722 3.28805,-6.26301 6.77057,-6.26301 1.17587,0 3.8568,1.16645 5.95762,2.5921 2.10082,1.42566 5.29926,2.83221 7.107643,3.12567 3.20761,0.52052 3.30451,0.43007 3.96516,-3.70147 0.55723,-3.48468 1.21964,-4.4631 3.73871,-5.52229 3.039,-1.27781 7.3912,-0.52741 8.63757,1.48927 0.29171,0.47198 1.74213,1.16228 3.22316,1.534 2.63813,0.66213 2.6811,0.59777 2.11728,-3.17072 -0.31653,-2.11561 -1.4044,-4.718176 -2.41751,-5.783486 -1.73285,-1.822151 -1.95246,-1.836965 -3.70604,-0.25 -1.03118,0.933207 -3.49288,1.686928 -5.50961,1.686928 -3.02559,0 -3.90504,-0.501749 -5.17126,-2.95034 -0.83912,-1.622687 -1.53999,-3.760187 -1.55748,-4.75 -0.0175,-0.989813 -0.6925,-2.673168 -1.5,-3.74079 -0.80751,-1.067621 -1.4682,-2.26 -1.4682,-2.649731 0,-0.389731 2.98918,-0.611901 6.64263,-0.493712 5.86536,0.189746 6.91847,0.535575 9,2.955495 1.29655,1.507333 2.35737,3.585187 2.35737,4.617454 0,2.571429 3.12319,3.347915 6.4739,1.609542 3.55807,-1.845946 6.44073,-0.822759 9.0261,3.20377 1.89445,2.950464 4.30032,3.78232 3.73993,1.293116 -0.14303,-0.635358 0.42765,-2.485088 1.26819,-4.110513 2.12376,-4.106888 5.90262,-4.86792 10.63823,-2.142452 2.06244,1.186989 4.65645,2.158161 5.76446,2.158161 1.663,0 1.23307,0.804113 -2.4635,4.60761 -3.88005,3.992278 -4.91006,4.546818 -7.7127,4.152388 -1.77903,-0.25038 -3.95345,-0.7706 -4.83202,-1.15605 -1.05911,-0.46465 -3.02867,0.49496 -5.84462,2.84762 -3.10867,2.59722 -5.19663,3.54843 -7.78899,3.54843 -2.93197,0 -4.23803,0.77482 -7.58541,4.5 -3.39595,3.77924 -4.63063,4.5 -7.7086,4.5 -2.37191,0 -4.29174,-0.69255 -5.44139,-1.9629 -1.63304,-1.80448 -2.00734,-1.84347 -4.63806,-0.48307 -1.57392,0.8139 -3.530613,2.77342 -4.348213,4.35448 -2.75931,5.33593 -11.29445,6.21353 -15.30516,1.57371 -2.80457,-3.24447 -4.60768,-2.77217 -9.62312,2.52063 -3.7542,3.96181 -7.15151,4.92405 -11.61903,3.29092 z m -50.183704,-6.63734 c -2.135379,-1.62333 -3.226158,-5.88727 -2.374302,-9.28134 0.6082,-2.42326 0.972791,-2.58279 4.745991,-2.0767 5.062345,0.679 7.145348,2.66003 7.145348,6.79554 0,5.07106 -5.426187,7.67239 -9.517037,4.5625 z M 163.10927,96.626098 c -1.41699,-1.707369 -2.15648,-6.155058 -1.4261,-8.577319 0.26505,-0.879034 1.67937,-2.143841 3.14293,-2.810683 2.2651,-1.03205 3.04335,-0.928331 5.23078,0.697114 3.21179,2.386638 3.95901,7.571717 1.48511,10.305352 -2.07003,2.287357 -6.67945,2.498095 -8.43272,0.385536 z M 88.161817,84.212763 c -0.56935,-1.063842 -1.03518,-3.54998 -1.03518,-5.52475 0,-2.934025 0.46899,-3.768802 2.5651,-4.565742 3.87122,-1.471835 6.22417,-1.185976 8.4349,1.024751 2.336043,2.33604 2.644253,7.498604 0.57143,9.571429 -2.19691,2.19691 -9.27158,1.857361 -10.53625,-0.505688 z"
           id="path378"
           inkscape:connector-curvature="0" />
        <path
           style="fill:#ff00ff"
           d="m 165.10283,430.2743 c -2.44711,-1.31212 -3.77223,-2.9148 -4.47619,-5.41375 -0.55,-1.95241 -1.3375,-3.88667 -1.75,-4.29835 -1.62847,-1.62524 -0.49145,-2.06432 5.79414,-2.23751 5.74673,-0.15833 6.84338,0.11894 9,2.27556 6.10568,6.10568 -0.76175,13.85969 -8.56795,9.67405 z M 29.063675,421.29712 c -2.061734,-1.66949 -2.194007,-2.27901 -1.356311,-6.25 0.510521,-2.42006 1.376207,-4.41896 1.923746,-4.44202 0.54754,-0.0231 2.43568,-0.81055 4.195867,-1.75 1.760187,-0.93944 3.394265,-1.70808 3.631285,-1.70808 0.928833,0 2.623799,8.96132 2.019655,10.67796 -0.830602,2.36011 -4.395956,5.27139 -6.490496,5.2998 -0.901569,0.0122 -2.667255,-0.81022 -3.923746,-1.82766 z m 118.093195,-1.4293 c -1.35838,-0.68735 -3.11887,-2.59322 -3.9122,-4.23526 -0.79333,-1.64205 -1.85061,-3.81686 -2.34951,-4.83292 -1.07121,-2.18161 -1.30783,-1.9781 3.78314,-3.2537 7.30462,-1.83024 12.44834,0.98241 12.44834,6.80691 0,2.11242 -0.81855,3.32264 -3.25,4.80513 -3.82125,2.32986 -3.57052,2.30338 -6.71977,0.70984 z m -68.936523,-9.62709 c -2.87519,-2.87519 -2.62293,-6.2125 0.71101,-9.40662 3.08684,-2.95738 4.69385,-3.21409 10.07926,-1.61009 2.54461,0.7579 4.43083,0.76523 6.36602,0.0247 2.37404,-0.90839 2.75,-1.60587 2.75,-5.10175 0,-3.36128 0.41042,-4.20554 2.414893,-4.96764 1.52101,-0.57829 3.81273,-0.53218 6.19124,0.12456 2.077,0.57348 5.23866,0.8054 7.02591,0.51537 2.56478,-0.41621 3.13188,-0.22066 2.69111,0.92797 -0.30714,0.80041 -1.36893,1.88906 -2.35952,2.4192 -0.99058,0.53015 -2.07924,2.23043 -2.41923,3.7784 -0.60255,2.7434 -4.90836,6.20875 -7.69869,6.19598 -0.74014,-0.003 -2.5514,-0.6352 -4.025023,-1.40402 -2.8887,-1.50711 -3.39577,-1.17238 -10.02011,6.6145 -3.21578,3.78013 -8.89892,4.69734 -11.70687,1.88939 z M 127.204,408.04787 c -1.69255,-1.0293 -3.11179,-2.66557 -3.15387,-3.63615 -0.0821,-1.89295 -0.29649,-3.1335 -1.44688,-8.37118 -0.60959,-2.77546 -0.49858,-3.16453 0.64333,-2.25469 0.75904,0.60477 3.54558,1.33132 6.19233,1.61456 11.16875,1.1952 13.36006,11.34715 3.01509,13.9684 -1.24454,0.31535 -3.48722,-0.24893 -5.25,-1.32094 z m 64.15144,-6.68193 c -1.25744,-0.85382 -5.5032,-11.27785 -4.85681,-11.92425 0.18422,-0.18421 3.08665,-0.43838 6.44984,-0.5648 4.99679,-0.18784 6.46726,0.13583 8.04202,1.77013 2.95393,3.06562 3.42774,5.91833 1.39908,8.42362 -1.91844,2.36917 -8.81312,3.80339 -11.03413,2.2953 z m -19.00629,-10.77562 c -1.22238,-0.85619 -2.22251,-2.33106 -2.22251,-3.2775 0,-0.94643 -0.68274,-2.69554 -1.51721,-3.88691 -1.46462,-2.09103 -1.61933,-2.10751 -4.46326,-0.47531 -2.79337,1.60317 -3.12935,1.59209 -6.48279,-0.21386 -2.73499,-1.47289 -3.53674,-2.5305 -3.53674,-4.6654 0,-5.57888 -2.33041,-7.64098 -5,-4.42432 -1.98021,2.38601 -6.70841,1.87466 -8.54203,-0.9238 -1.4152,-2.15988 -1.427,-2.7354 -0.10837,-5.28536 1.65452,-3.1995 4.13137,-4.6939 10.43804,-6.29778 4.23254,-1.07641 4.28454,-1.14282 4.04703,-5.16818 -0.2968,-5.0302 2.55626,-7.81718 8.02611,-7.84019 4.9144,-0.0207 5.63041,-0.75705 5.69211,-5.85398 0.0612,-5.05613 2.07978,-7.13071 6.93824,-7.13071 4.17472,0 5.50887,1.59297 5.50887,6.57756 0,5.09729 -1.54018,6.54444 -7.19412,6.7596 -3.44443,0.13108 -4.33812,0.55297 -4.58145,2.16284 -1.162,7.68775 -3.67767,10.5 -9.39267,10.5 -3.43444,0 -3.98881,0.38752 -5.89246,4.11898 -2.62006,5.13575 -1.68494,6.32199 5.088,6.45438 5.69037,0.11123 8.9727,2.37749 8.9727,6.19513 0,2.24828 0.27792,2.39963 3.25,1.76997 5.75962,-1.22023 8.85918,-0.87373 10.9579,1.22499 6.14873,6.14873 -2.73356,14.75923 -9.98539,9.67985 z m -48.99425,-2.67349 c -3.81893,-1.84049 -3.8661,-8.38902 -0.0824,-11.44616 1.36183,-1.10034 15.14544,-2.39673 14.58823,-1.37207 -0.75888,1.39553 -2.66772,5.85862 -3.79903,8.88255 -1.73292,4.63202 -6.0041,6.20206 -10.70676,3.93568 z m -16.04288,-0.45368 c -2.11924,-0.84782 -3.19036,-5.00072 -2.53083,-9.81248 0.57563,-4.19973 0.77399,-4.43977 3.22938,-3.90785 7.90627,1.71274 10.81451,4.77316 9.50268,9.99993 -0.93189,3.71292 -5.79062,5.4849 -10.20123,3.7204 z M 46.138992,377.4356 c -3.089453,-3.92761 -1.399156,-9.44949 3.446548,-11.25923 6.540744,-2.44278 6.333403,-2.53984 7.063861,3.30655 0.816795,6.53741 -0.482452,9.50604 -4.51322,10.31219 -3.542123,0.70843 -3.425518,0.90984 -5.997189,-2.35951 z m 13.987645,2.33386 c 0,-0.20765 0.7875,-0.99515 1.75,-1.75 1.58606,-1.24387 1.62143,-1.2085 0.37756,0.37756 -1.306374,1.66575 -2.12756,2.19548 -2.12756,1.37244 z m 34.69456,-7.73356 c -2.87476,-1.67238 -3.91978,-5.62406 -2.51478,-9.5095 0.6721,-1.85866 1.4691,-3.37901 1.77111,-3.37857 0.30201,4.5e-4 2.79195,0.8526 5.5332,1.89367 4.894203,1.85873 4.978643,1.9624 4.682113,5.74919 -0.44247,5.65042 -4.711393,8.01446 -9.471643,5.24521 z m 38.805053,-11.27479 c -4.37622,-1.90725 -5.37708,-3.58509 -5.88795,-9.8706 l -0.45804,-5.63558 2.48829,0.94604 c 1.36856,0.52033 3.82945,0.94605 5.46864,0.94605 3.72702,0 7.88945,3.95696 7.88945,7.5 0,2.41722 -3.92336,7.5485 -5.70455,7.46086 -0.4375,-0.0215 -2.14562,-0.62758 -3.79584,-1.34677 z m -77.885672,-5.01522 c -2.144333,-4.51885 -2.039567,-5.87503 0.636059,-8.23371 2.141412,-1.88775 7.80826,-4.76202 8.18717,-4.1526 0.0983,0.15809 0.67009,2.76244 1.27065,5.78744 0.99743,5.02402 0.91243,5.69472 -0.98226,7.75 -3.21003,3.48211 -7.149153,2.98446 -9.111619,-1.15113 z m -48.042512,-0.1703 c -2.41333,-2.41333 -1.950906,-7.14 0.985837,-10.07675 2.153391,-2.15339 3.140467,-2.45605 6.25,-1.91641 5.637733,0.97841 8.010798,0.88259 11.236869,-0.45369 2.461157,-1.01945 2.955865,-1.79782 2.955865,-4.65079 0,-2.41654 0.776075,-4.14567 2.633133,-5.86673 2.319614,-2.14975 3.485193,-2.42411 9.789264,-2.30429 9.291382,0.17661 11.637269,-1.01738 10.901929,-5.54875 -0.422491,-2.60351 -0.05733,-3.87815 1.580103,-5.51559 1.801192,-1.80119 3.206365,-2.10744 9.112571,-1.98604 5.18485,0.10658 6.983,0.49721 6.983,1.51701 0,0.7554 -0.4151,1.37346 -0.92245,1.37346 -0.50734,0 -1.46599,1.6875 -2.13032,3.75 -0.66433,2.0625 -1.65433,4.3125 -2.2,5 -1.68626,2.12456 0.009,1.38022 2.84727,-1.25 1.48365,-1.375 2.99966,-2.5 3.3689,-2.5 0.36925,0 1.44888,2.46658 2.39918,5.48128 1.29628,4.11229 1.46105,5.97975 0.6597,7.47709 -1.26787,2.36904 -4.11859,4.04163 -6.88844,4.04163 -2.25862,0 -6.14173,-4.85783 -6.11853,-7.65437 0.0122,-1.46383 0.19911,-1.55533 0.90376,-0.44234 0.64831,1.02401 0.84766,0.74823 0.73755,-1.02035 -0.13231,-2.1253 -0.55299,-2.37669 -3.417527,-2.04227 -1.796652,0.20975 -3.91958,-0.16053 -4.717619,-0.82285 -2.215456,-1.83866 -7.019114,2.10358 -9.709705,7.96851 -3.065825,6.68287 -6.745113,8.33989 -12.200658,5.49476 -2.731532,-1.42453 -3.079302,-1.36136 -6.384669,1.15977 -1.92268,1.46649 -4.22268,4.01771 -5.111112,5.66936 -0.888431,1.65165 -2.40283,3.83253 -3.36533,4.84639 -2.163895,2.27937 -8.014831,2.4357 -10.178571,0.27196 z m 81.743941,-0.43555 c -7.72317,-3.11174 -4.38756,-14.65716 3.4457,-11.92647 5.29551,1.84603 6.1509,9.30464 1.36108,11.86808 -2.27236,1.21613 -1.94325,1.21213 -4.80678,0.0584 z m -86.50287,-9.67611 c 0.721875,-0.28887 1.584375,-0.25335 1.916667,0.0789 0.332291,0.33229 -0.258334,0.56864 -1.3125,0.52522 -1.164943,-0.048 -1.4019,-0.28494 -0.604167,-0.60416 z m 3.1875,-0.69447 c 0,-0.20765 0.7875,-0.99515 1.75,-1.75 1.586056,-1.24387 1.621426,-1.2085 0.377555,0.37756 -1.306369,1.66575 -2.127555,2.19548 -2.127555,1.37244 z M 115.12106,340.4128 c -1.54424,-1.96319 -1.9877,-3.5494 -1.57258,-5.625 0.31799,-1.58993 0.57816,-3.67643 0.57816,-4.63667 0,-1.53671 0.56,-1.64128 4.67375,-0.87275 5.93038,1.10792 8.32625,3.25651 8.32625,7.46692 0,6.30498 -8.00693,8.75096 -12.00558,3.6675 z M -0.628368,334.89702 c 0.226413,-0.6875 1.501413,-1.39791 2.833333,-1.57869 2.371737,-0.32191 2.380432,-0.29679 0.421672,1.2182 -2.439993,1.88719 -3.807677,2.03866 -3.255005,0.36049 z m 181.237198,-0.69527 c -1.10979,-0.45017 -2.65744,-2.10915 -3.43922,-3.68661 -0.78178,-1.57747 -2.79876,-4.13254 -4.48219,-5.67795 -2.76103,-2.53465 -2.83475,-2.74659 -0.75273,-2.16418 1.26944,0.3551 4.5755,0.10169 7.34682,-0.56314 4.53874,-1.08883 5.2958,-1.01688 7.6289,0.72503 1.42457,1.0636 3.02031,3.22435 3.54608,4.80167 0.83099,2.49298 0.60319,3.1713 -1.74271,5.18916 -2.81906,2.42485 -4.7226,2.74802 -8.10495,1.37602 z M -9.560223,330.88618 c -3.405067,-3.78365 -3.517031,-5.55116 -0.543239,-8.57576 3.39807,-3.45613 7.99433,-3.9233 11.496469,-1.16851 1.401999,1.10281 3.26561,2.00511 4.141359,2.00511 2.167927,0 2.125699,0.0894 -2.312871,4.89725 -4.848159,5.2515 -9.651996,6.31959 -12.781718,2.84191 z m 25.009481,-1.50944 c -2.646123,-0.42509 -3.946654,-1.88357 -4.834711,-5.42187 -0.626973,-2.49806 -0.376627,-2.75687 3.669606,-3.79377 2.388366,-0.61206 4.850149,-1.28044 5.470629,-1.48531 0.62048,-0.20486 1.599148,0.0985 2.174818,0.67419 0.627487,0.62749 2.778883,0.77955 5.371855,0.3797 3.594355,-0.55428 4.578637,-1.20901 5.825182,-3.87482 2.034433,-4.35076 7.318526,-6.1865 11.226055,-3.90004 4.002532,2.34205 7.624894,0.73077 9.283395,-4.12939 1.795741,-5.26233 3.972162,-6.60917 10.74055,-6.64661 5.92629,-0.0328 9.75,-2.17375 9.75,-5.45922 0,-2.27964 4.98432,-5.57258 8.43486,-5.57258 3.90567,0 5.56514,1.55059 5.56514,5.2 0,5.60251 -6.93489,9.38313 -11.60214,6.32503 -2.48828,-1.63038 -2.68234,-1.6064 -5.05731,0.62477 -1.35836,1.27611 -3.18294,3.82315 -4.05463,5.66009 -2.3988,5.0551 -5.56149,6.74801 -10.039235,5.37375 -3.282934,-1.00756 -3.970545,-0.8689 -6.946204,1.40074 -1.816421,1.38545 -3.985296,3.83923 -4.819721,5.45283 -2.431447,4.7019 -6.820778,4.96744 -12.665659,0.76623 -2.222729,-1.59766 -6.439855,0.57024 -8.37003,4.30278 -1.476467,2.85517 -5.551519,4.69717 -9.12245,4.1235 z m 89.677382,-5.22972 c -1.23057,-1.23057 -1.96963,-3.25033 -1.92105,-5.25 0.0434,-1.7875 0.30592,-2.6875 0.58333,-2 0.70258,1.74117 2.33772,1.56631 2.33772,-0.25 0,-0.825 -0.675,-1.5 -1.5,-1.5 -1.00787,0 -1.5,-1.00806 -1.5,-3.07258 v -3.07258 l 2.63486,2.07258 c 1.44917,1.13992 3.24917,2.07258 4,2.07258 2.22305,0 5.36514,3.80672 5.36514,6.5 0,3.00281 -3.22818,6.5 -6,6.5 -1.1,0 -2.9,-0.9 -4,-2 z m 51.46528,-0.95152 c -1.11909,-0.45362 -2.50281,-1.43759 -3.07491,-2.18662 -0.98861,-1.29431 -3.26527,-8.2709 -3.37002,-10.32704 -0.0706,-1.3859 7.8817,-1.72225 11.61198,-0.49115 6.27223,2.07002 6.81388,10.69559 0.81486,12.97641 -2.97843,1.1324 -3.25503,1.13371 -5.98191,0.0284 z M 24.126637,316.76946 c 0,-0.20765 0.7875,-0.99515 1.75,-1.75 1.586056,-1.24387 1.621426,-1.2085 0.377555,0.37756 -1.306369,1.66575 -2.127555,2.19548 -2.127555,1.37244 z m 52.65499,-1.45118 c -3.51672,-3.88593 -0.17453,-12.0634 4.43746,-10.85733 1.04915,0.27436 1.90755,0.0684 1.90755,-0.45763 0,-0.52606 2.12049,-0.82143 4.7122,-0.65638 l 4.7122,0.30008 0.62985,-3.74673 c 1.00726,-5.99179 3.28865,-7.75327 10.041723,-7.75327 3.1823,0 6.00993,0.36234 6.28364,0.8052 1.10411,1.78649 -1.42279,8.82237 -3.95213,11.00424 -2.18819,1.8876 -3.61339,2.25292 -7.802353,2 l -5.12513,-0.30944 -2.12044,4.41868 c -1.16624,2.43027 -2.93975,5.01777 -3.94113,5.75 -2.62042,1.9161 -7.83938,1.65075 -9.78344,-0.49742 z m 56.268093,-10.09434 c -1.88804,-1.88803 -2.92308,-3.95087 -2.92308,-5.82568 0,-3.68105 -4.40542,-8.24582 -6.21324,-6.438 -1.61108,1.61108 -6.86409,1.44326 -9.15605,-0.29251 -1.03644,-0.78493 -2.26665,-3.54264 -2.76115,-6.18952 -0.61751,-3.3054 -1.73433,-5.46372 -3.6307,-7.01657 -3.07519,-2.51812 -2.04908,-2.99276 1.76114,-0.81464 1.375,0.78602 4.1507,1.44508 6.16821,1.46456 2.01752,0.0195 4.39666,0.31497 5.28699,0.65662 1.93703,0.74331 4.5448,5.48865 4.5448,8.27014 0,2.68696 1.44735,3.41059 8.4803,4.23984 4.71516,0.55596 6.46289,1.26405 8.25102,3.34287 6.75988,7.85883 -2.46291,15.94822 -9.80824,8.60289 z m 7.64835,-20.64835 c -2.48927,-2.48927 -1.98741,-8.1035 0.99059,-11.0815 2.33904,-2.33904 3.03531,-2.50289 8,-1.88259 l 5.43798,0.67943 v -3.98306 c 0,-3.25126 0.58648,-4.47655 3.19211,-6.66905 2.69842,-2.27057 3.79831,-2.58904 7.11176,-2.0592 2.42349,0.38753 4.45878,0.17934 5.33206,-0.54541 2.05656,-1.7068 2.86966,-0.29226 1.52651,2.65564 -0.63934,1.4032 -1.16244,3.63001 -1.16244,4.94846 0,1.31845 -1.08604,3.65978 -2.41342,5.20295 -2.07896,2.41693 -3.14688,2.80576 -7.70602,2.80576 h -5.29261 l -1.26477,4.3684 c -0.69562,2.40262 -2.06541,4.97581 -3.04397,5.7182 -2.44287,1.85328 -8.79015,1.75961 -10.70778,-0.15803 z m -91.897403,-7.8974 c -3.92867,-3.92867 -0.365741,-12.53117 5.190081,-12.53117 2.875109,0 7.775769,-2.53409 8.946579,-4.6262 0.59377,-1.06101 0.43113,-2.58633 -0.46793,-4.38855 -2.646872,-5.30577 1.84064,-10.98525 8.67975,-10.98525 4.17047,0 5.97749,-1.44872 5.97749,-4.79227 0,-1.31575 0.9,-3.53644 2,-4.93486 1.1,-1.39842 2,-3.1569 2,-3.90773 0,-1.34738 1.19437,-1.78311 3.87061,-1.41209 0.75384,0.10451 2.69342,-1.07731 4.31018,-2.62626 2.68956,-2.57676 2.88462,-3.21575 2.29355,-7.51339 -0.35531,-2.58341 -0.37374,-5.55499 -0.041,-6.6035 0.65951,-2.07792 4.51523,-4.2099 7.61367,-4.2099 1.074123,0 2.889563,-0.93661 4.034313,-2.08136 1.82787,-1.82787 1.90727,-2.28458 0.652,-3.75 -2.37756,-2.77557 -2.62044,-4.69167 -1.01493,-8.0067 1.30762,-2.69993 2.06966,-3.16194 5.21534,-3.16194 2.02619,0 4.4748,-0.57827 5.44137,-1.28504 1.66016,-1.21394 1.64307,-1.38851 -0.30887,-3.15499 -3.93955,-3.56524 -1.78567,-10.55506 3.25516,-10.56371 1.19821,-0.002 3.70115,-0.93198 5.56208,-2.06649 2.52135,-1.53714 3.09467,-2.35159 2.25,-3.19626 -0.62339,-0.62343 -1.13347,-2.32636 -1.13347,-3.78429 0,-1.45792 -0.49402,-4.06792 -1.09783,-5.8 -0.86763,-2.4889 -1.6668,-3.14922 -3.81143,-3.14922 -3.4851,0 -6.71938,-3.03271 -7.62328,-7.14817 -0.58215,-2.6505 -0.3067,-3.56358 1.52164,-5.04409 2.92132,-2.36554 4.3602,-2.28031 7.46649,0.44226 2.67041,2.34054 3.41809,5.64799 2.14866,9.50493 -0.89675,2.72463 1.49798,3.71068 10.14575,4.17758 2.70966,0.1463 5.25,4.04995 5.25,8.06749 v 4 h 6.07692 c 5.38327,0 6.41058,0.33366 9,2.92308 1.6077,1.60769 2.92308,3.85769 2.92308,5 0,3.01641 -3.52539,6.07692 -7,6.07692 -3.77794,0 -6.59172,-2.77003 -7.95443,-7.83076 -1.37056,-5.08989 -3.21201,-6.68572 -5.99566,-5.19595 -1.15584,0.61859 -3.58666,0.82904 -5.47782,0.47426 -2.83841,-0.53249 -3.5933,-0.27644 -4.57102,1.55045 -0.64412,1.20356 -0.88193,3.34055 -0.52846,4.74888 0.98978,3.9436 -1.25635,8.25987 -4.6517,8.93894 -3.50431,0.70086 -4.82091,2.91119 -4.82091,8.09345 0,4.31956 -2.2989,7.22073 -5.72175,7.22073 -2.63151,0 -3.27825,1.76981 -3.27825,8.971 0,7.66588 -2.15285,10.54357 -7.777513,10.39609 -3.55694,-0.0933 -4.14351,0.24408 -5.54892,3.19125 -1.88423,3.95127 -1.2408,10.59656 0.94481,9.75786 1.80095,-0.69109 1.76115,0.79976 -0.0866,3.24267 -1.45259,1.9205 -1.46853,1.92051 -1.5,10e-4 -0.0271,-1.6541 -0.49955,-1.46141 -3.20733,1.30818 -2.60296,2.66236 -3.81895,3.19244 -6.74389,2.93983 -3.51917,-0.30392 -3.58525,-0.23926 -4.79467,4.69183 -1.42757,5.82052 -5.03018,9.5 -9.30153,9.5 -2.51147,0 -3.03925,0.507 -3.90373,3.75 -0.5498,2.0625 -1.25723,5.40539 -1.57207,7.42864 -0.772652,4.96533 -3.28564,7.76651 -7.58455,8.45438 -2.587321,0.41399 -4.03879,0.10936 -5.25,-1.10185 z m 42.9525,0.26409 c 0.27033,-0.43739 1.70245,-0.8295 3.18249,-0.87134 2.56951,-0.0726 2.53689,-0.13178 -0.72255,-1.3101 -3.69003,-1.33399 -7.08647,-6.34963 -7.08647,-10.46485 0,-2.02001 -0.34212,-2.27128 -2.25,-1.65252 -3.75421,1.21754 -7.06869,0.7882 -8.44494,-1.09393 -1.84193,-2.51899 -1.61962,-5.80787 0.52368,-7.74753 4.02422,-3.64187 10.17126,-0.81727 10.17126,4.67375 0,2.50592 0.28329,2.67126 4.57692,2.67126 3.75053,0 5.11774,0.54082 7.57219,2.99526 1.788693,1.78869 2.921593,3.90354 2.812393,5.25 -0.32111,3.95898 -0.0177,4.56756 2.7885,5.59246 l 2.75,1.00439 -2.5,0.16333 c -1.375,0.0898 -5.05712,0.48322 -8.182483,0.87421 -3.12537,0.39098 -5.46131,0.35301 -5.19099,-0.0844 z m 17.568423,-5.29526 c 0.0204,-1.65 0.2445,-2.20394 0.49804,-1.23097 0.25354,0.97297 0.23687,2.32297 -0.0371,3 -0.27393,0.67703 -0.48137,-0.11903 -0.46099,-1.76903 z m 69.12623,-12.69852 c -3.08847,-1.47928 -4.671,-5.75118 -3.38427,-9.13554 1.1698,-3.07681 4.52529,-4.66356 9.87819,-4.6712 5.83892,-0.008 9.37682,-2.72678 9.66086,-7.42316 0.33822,-5.59247 4.32786,-8.94947 9.5812,-8.06192 5.14718,0.86961 7.94284,-0.75319 7.94284,-4.61059 0,-4.12275 1.48492,-6.58135 5.10584,-8.4538 2.78191,-1.43858 3.26098,-1.43494 5.51499,0.042 5.29018,3.46625 5.2085,9.61282 -0.17461,13.13997 -2.16036,1.41553 -3.33825,1.5479 -6.43018,0.72261 -3.5467,-0.94666 -3.88717,-0.83796 -5.40069,1.72421 -0.88844,1.50402 -1.61535,3.61696 -1.61535,4.69542 0,1.07847 -0.97601,3.20165 -2.16891,4.71818 -2.00655,2.55091 -2.56608,2.71634 -7.47415,2.20978 -4.97191,-0.51315 -5.46393,-0.35895 -7.83109,2.45426 -1.38922,1.65099 -2.52585,4.06718 -2.52585,5.36931 0,2.75314 -3.6066,7.09257 -6.5,7.82076 -1.1,0.27683 -2.98047,0.0337 -4.17882,-0.54024 z M 14.894515,254.21979 c -3.295953,-0.69097 -6.767878,-3.51139 -6.767878,-5.49788 0,-5.64099 3.997987,-8.91681 11,-9.01304 l 4.5,-0.0618 0.559762,-4.87431 c 0.33398,-2.90824 1.244129,-5.37473 2.256452,-6.11496 1.813349,-1.32595 10.380871,-2.81598 11.656943,-2.02732 1.501368,0.9279 -0.779793,8.77777 -3.276282,11.27426 -1.391527,1.39153 -4.243616,2.80858 -6.337975,3.14901 -3.575678,0.58121 -3.853154,0.88389 -4.549472,4.96278 -1.127159,6.60266 -4.045726,9.25065 -9.04155,8.20331 z m 61.232122,-19.45033 c 0,-0.20765 0.7875,-0.99515 1.75,-1.75 1.58606,-1.24387 1.62143,-1.2085 0.37756,0.37756 -1.30637,1.66575 -2.12756,2.19548 -2.12756,1.37244 z m 62.000003,-2.33188 c -5.82788,-2.14287 -6.80474,-8.59419 -1.92327,-12.70167 1.88067,-1.58248 4.3103,-2.5942 6.25,-2.60254 1.7453,-0.008 4.19556,-0.28756 5.44503,-0.62233 2.07891,-0.55699 2.19045,-0.39482 1.31395,1.91055 -0.5268,1.38557 -0.91599,3.98997 -0.86488,5.78756 0.0704,2.47601 -0.67621,3.95556 -3.07973,6.1031 -3.16533,2.82823 -4.3061,3.16774 -7.1411,2.12533 z M 25.939137,223.46391 c 0.721875,-0.28887 1.584375,-0.25335 1.916667,0.0789 0.332291,0.33229 -0.258334,0.56864 -1.3125,0.52522 -1.164943,-0.048 -1.4019,-0.28494 -0.604167,-0.60416 z m 8.76213,-1.23442 c -1.005343,-1.1109 -1.548495,-2.89873 -1.29117,-4.25 l 0.444176,-2.33247 0.136182,2.42126 c 0.0749,1.33169 0.880926,3.24419 1.79117,4.25 0.910243,1.00581 1.429987,1.82874 1.154987,1.82874 -0.275,0 -1.280905,-0.86289 -2.235345,-1.91753 z m 10.67537,0.2282 c 0.9625,-0.25152 2.5375,-0.25152 3.5,0 0.9625,0.25153 0.175,0.45733 -1.75,0.45733 -1.925,0 -2.7125,-0.2058 -1.75,-0.45733 z m -3.25,-4.31067 c -2.795542,-2.79554 -2.494668,-5.65918 0.95728,-9.11113 2.251325,-2.25132 3.752356,-2.90373 6.287898,-2.73297 4.47716,0.30152 6.056053,-0.81956 5.314631,-3.77362 -0.751303,-2.99344 1.886726,-8.33065 4.215871,-8.52948 0.948376,-0.081 4.0273,-0.19346 6.84204,-0.25 l 5.11773,-0.1028 -1.86773,3.48519 c -1.02724,1.91686 -1.86772,4.24721 -1.86772,5.17857 0,2.67146 -2.85196,4.83624 -6.371429,4.83624 -3.980275,0 -5.628571,1.5361 -5.628571,5.24545 0,6.34799 -8.599795,10.15475 -13,5.75455 z m 111.000003,-1.69398 c -3.81684,-1.3641 -5.3479,-7.94993 -2.66757,-11.47449 1.12118,-1.47433 11.58862,-4.22552 12.53319,-3.29414 0.20109,0.19829 -0.13641,1.80064 -0.75,3.56079 -0.61359,1.76015 -1.11562,4.47156 -1.11562,6.02536 0,2.11702 -0.73947,3.2075 -2.95034,4.35078 -1.62269,0.83912 -3.08519,1.49015 -3.25,1.44673 -0.16481,-0.0434 -0.97466,-0.32018 -1.79966,-0.61503 z m 53.25,-0.79689 c -1.7875,-0.77692 -3.25,-1.81756 -3.25,-2.31254 0,-0.49498 -1.35391,-2.3167 -3.0087,-4.04828 -2.94927,-3.08613 -4.9913,-4.01468 -4.9913,-2.26963 0,0.48327 -1.37028,1.44627 -3.04506,2.13998 -4.06408,1.6834 -7.14004,0.23248 -10.37665,-4.89464 -1.37221,-2.17372 -3.50081,-4.65677 -4.73023,-5.51789 -1.97563,-1.38379 -2.42524,-1.39377 -3.87042,-0.0859 -0.89932,0.81388 -2.7765,1.47977 -4.17152,1.47977 -2.84174,0 -7.80612,-3.45519 -7.80612,-5.43303 0,-0.70833 -1.06514,-2.85745 -2.36698,-4.77582 l -2.36698,-3.48794 9.27591,0.17461 9.27591,0.17462 -0.51139,-3.15134 c -0.66753,-4.11349 2.88152,-8.39886 7.41545,-8.95391 4.65966,-0.57046 5.14351,-1.12916 4.58768,-5.29738 -0.6528,-4.89546 2.50023,-9.24981 6.69788,-9.24981 1.57428,0 4.0376,-0.44684 5.47405,-0.99298 2.32089,-0.8824 2.54028,-1.37383 1.97012,-4.41306 -0.87863,-4.68352 0.16443,-7.34407 3.56956,-9.10493 3.86805,-2.00025 4.66012,-1.89861 7.52424,0.96552 5.26416,5.26415 1.55655,13.18189 -5.72843,12.23331 -4.25138,-0.55358 -4.81702,0.24292 -4.81702,6.78314 0,6.06626 -2.45046,8.7602 -8.61203,9.46772 l -4.88797,0.56128 -0.30032,4.64055 c -0.38205,5.90346 -2.65923,8.11648 -8.27207,8.03901 -4.10906,-0.0567 -4.14665,-0.0248 -3.54039,3.00656 0.33703,1.68514 0.61278,3.63385 0.61278,4.33047 0,1.97035 4.47072,2.61729 9.25117,1.33872 5.7305,-1.53268 9.84216,0.26332 11.20563,4.89469 1.06875,3.63028 2.28901,3.94993 6.58947,1.72607 3.68777,-1.90702 9.85978,-1.32504 11.63059,1.09669 2.18179,2.98377 1.67867,9.06481 -0.89937,10.87054 -2.67828,1.87594 -3.34938,1.88181 -7.52749,0.0658 z M 74.433247,194.89702 c -1.12311,-1.2375 -2.28827,-3.825 -2.58924,-5.75 -0.30097,-1.925 -0.86742,-4.31036 -1.25878,-5.3008 -0.60147,-1.52221 -0.32729,-1.70435 1.7723,-1.17739 2.24183,0.56267 2.54176,0.2666 3.07809,-3.03843 0.78929,-4.8638 2.29455,-6.47882 6.06346,-6.50562 1.72016,-0.0122 4.1403,-0.80185 5.3781,-1.75471 1.88785,-1.45327 2.11157,-2.21705 1.3882,-4.7393 -0.47429,-1.65376 -0.655,-4.4196 -0.40157,-6.14632 0.38394,-2.61598 0.97943,-3.21561 3.57114,-3.59599 1.7107,-0.25108 4.21157,-0.16199 5.55749,0.19796 2.89862,0.77521 6.147653,6.29316 5.396593,9.16522 -0.82958,3.17233 -4.779443,5.23544 -8.780343,4.58618 -4.17324,-0.67722 -5.50315,1.10046 -5.88511,7.86665 -0.13661,2.41995 -0.97904,5.20728 -1.87207,6.19407 -1.1126,1.22941 -1.32967,2.25912 -0.68959,3.27132 4.05606,6.41417 -5.5476,12.43593 -10.72867,6.72716 z m -104.671751,-2.82258 c -5.087534,-4.00185 -2.026165,-10.92742 4.830345,-10.92742 2.424268,0 4.491602,0.90119 6.882015,3 3.699278,3.24801 5.652781,3.80467 5.652781,1.61078 0,-0.76406 0.817737,-2.39907 1.817192,-3.63335 2.558938,-3.16015 7.34168,-3.31132 11.343935,-0.35855 1.775088,1.30961 4.602506,2.41665 6.283153,2.46007 1.680646,0.0434 2.38072,0.32652 1.55572,0.62912 -0.825,0.30259 -3.204207,2.29207 -5.287126,4.42105 -4.680461,4.78397 -8.980159,5.19974 -13.597133,1.31482 -2.634943,-2.21716 -3.341208,-2.395 -5.326725,-1.3413 -1.258959,0.66812 -2.877033,2.04334 -3.59572,3.05606 -1.775033,2.50123 -7.236705,2.38159 -10.558437,-0.23128 z m 44.567188,-6.05742 c -3.843544,-1.90163 -3.986456,-2.13803 -3.132288,-5.18127 0.492251,-1.7538 2.100423,-4.242 3.573714,-5.52933 2.175601,-1.90099 3.352772,-2.21667 6.267619,-1.68076 1.973899,0.36291 5.61191,0.74118 8.084469,0.8406 l 4.495561,0.18076 0.539495,-4 c 0.616019,-4.56737 1.713427,-6.77622 2.978222,-5.99454 0.478853,0.29595 5.03919,-0.37171 10.134082,-1.48369 10.833917,-2.36453 9.857079,-2.25638 9.857079,-1.09132 0,0.51175 -1.0125,1.07425 -2.25,1.25 -1.2375,0.17575 -2.256891,0.76955 -2.265313,1.31955 -0.0084,0.55 -0.445349,1.675 -0.97095,2.5 -0.5256,0.825 -1.868709,3.29257 -2.984687,5.48348 -2.448755,4.80746 -7.250129,6.38507 -11.604418,3.81293 -2.381878,-1.40701 -2.848301,-1.39253 -5.220979,0.16211 -1.432991,0.93893 -3.56768,3.69487 -4.743752,6.12431 -1.176073,2.42945 -2.435671,4.46848 -2.799107,4.53119 -4.23339,0.73048 -6.553799,0.44062 -9.958747,-1.24402 z m 47.025203,-6.5568 c -2.449358,-1.18626 -3.319456,-2.3745 -3.790501,-5.17645 -0.336263,-2.00021 -0.807253,-4.36072 -1.046646,-5.24557 -1.172708,-4.33459 8.320777,-4.19831 11.859897,0.17025 4.82156,5.95157 -0.341,13.48784 -7.02275,10.25177 z m 2.53501,-18.38644 c -7.623928,-4.44176 -1.40689,-13.3241 7.58767,-10.84058 4.05779,1.1204 7.92443,-0.20765 7.07202,-2.42899 -0.93329,-2.43212 1.38748,-6.33561 4.54412,-7.64314 4.35201,-1.80266 7.68206,0.0795 9.21945,5.21081 1.04603,3.49135 0.94844,4.08562 -0.98912,6.02319 -2.41678,2.41678 -8.90861,2.83564 -10.25231,0.66148 -0.64173,-1.03833 -1.09018,-1.03318 -2.36787,0.0272 -0.86692,0.7195 -1.57622,1.96267 -1.57622,2.76264 0,0.79996 -1.31538,2.76986 -2.92308,4.37755 -3.04816,3.04816 -7.03163,3.76256 -10.31466,1.84984 z m -22.76226,-1.92676 c -2.034726,-2.03473 -2.453098,-4.70737 -1.369714,-8.75 0.845952,-3.15666 7.410749,-3.1957 10.330759,-0.0614 2.257336,2.42297 2.720557,7.72984 0.838955,9.61144 -1.901402,1.9014 -7.560571,1.43943 -9.8,-0.8 z m -11,-12 c -1.1,-1.1 -2.051907,-3.0125 -2.11535,-4.25 -0.06344,-1.2375 -0.219901,-2.7 -0.347685,-3.25 -0.127785,-0.55 -0.300878,-1.7875 -0.384651,-2.75 -0.106263,-1.2209 -1.012482,-1.75 -2.997326,-1.75 -5.295716,0 -8.744807,-6.92468 -5.736179,-11.51643 1.357505,-2.07181 2.192933,-2.40564 4.860236,-1.94209 1.771525,0.30787 3.869443,1.20155 4.662039,1.98594 1.787189,1.7687 2.275286,7.50695 0.790702,9.29576 -1.511372,1.82109 0.729044,3.14177 5.363226,3.16151 4.232815,0.018 6.904988,2.47312 6.904988,6.34405 0,3.36001 -3.226242,6.67126 -6.5,6.67126 -1.375,0 -3.4,-0.9 -4.5,-2 z m 105.409093,-11.5 c -3.02288,-3.02288 -4.79242,-3.11437 -9.67027,-0.5 -5.14334,2.75667 -9.25588,2.57385 -12.38005,-0.55032 -1.99202,-1.99202 -2.40284,-3.14133 -1.87664,-5.25 1.79684,-7.20048 6.81833,-8.0747 12.63493,-2.19968 4.48521,4.53026 7.86405,5.27721 7.91621,1.75 0.0858,-5.80193 7.10102,-8.67379 12.5179,-5.12451 2.14167,1.40327 3.09379,1.45386 6.96482,0.37004 3.90272,-1.0927 4.48401,-1.60742 4.48401,-3.9705 0,-1.49328 -0.84954,-3.48387 -1.88786,-4.42354 -1.78383,-1.61435 -2.06359,-1.60161 -5.07735,0.23116 -4.74157,2.88352 -9.91678,0.7456 -10.00299,-4.13231 -0.0175,-0.98981 -0.68305,-3.05905 -1.47903,-4.5983 l -1.44723,-2.79863 5.8768,0.12957 c 6.38241,0.14072 9.65853,2.04042 10.21179,5.92145 0.27192,1.90743 1.09401,2.20107 7.40675,2.64557 3.90548,0.275 7.82327,1.10124 8.70619,1.83609 2.045,1.70203 3.95653,0.56982 3.17821,-1.88247 -0.32784,-1.03294 -0.0476,-2.90757 0.62266,-4.16585 2.51785,-4.7264 6.65698,-6.04158 10.51328,-3.34052 1.13643,0.79598 2.93351,1.22045 3.99352,0.94325 1.55948,-0.40781 1.85906,-1.21947 1.56976,-4.25301 -0.56351,-5.908958 1.47219,-6.931381 11.0655,-5.557595 4.96458,0.710941 5.67324,1.408996 3.37051,3.320085 -0.75871,0.62968 -1.63661,2.43054 -1.95089,4.00191 -1.03616,5.1808 -6.37012,7.99761 -9.4024,4.96533 -1.8369,-1.83689 -4.26722,-0.19727 -4.26722,2.87889 0,1.54488 -0.72995,3.85103 -1.62212,5.12478 -1.39826,1.99629 -2.19178,2.23187 -5.75,1.70704 -8.99811,-1.32718 -9.10165,-1.30751 -9.45635,1.79691 l -0.32847,2.87484 7.36225,-0.68989 c 6.9528,-0.65154 7.51331,-0.5499 10.07847,1.82741 3.10287,2.87564 3.63582,7.55034 1.14479,10.04137 -3.42804,3.42804 -12.42857,0.63554 -12.42857,-3.85609 0,-1.97051 -6.18059,-6.65404 -7.46523,-5.65701 -2.45321,1.90399 -7.38076,1.99356 -9.70259,0.17637 -2.27496,-1.78051 -2.42113,-1.7688 -5.95764,0.47718 -2.17891,1.38378 -3.90423,3.42535 -4.32413,5.11672 -1.74276,7.01989 -8.47088,9.48471 -13.14132,4.81426 z M 10.831035,119.72163 c -2.314007,-1.75494 -3.384345,-8.0504 -1.711422,-10.06614 2.590283,-3.1211 9.962281,-0.78784 11.056828,3.49953 1.52944,5.99085 -4.509508,10.23415 -9.345406,6.56661 z M 122.5205,104.0584 c -0.36923,-2.78337 -1.43395,-5.542675 -2.5169,-6.52273 -1.76641,-1.59858 -1.98898,-1.59725 -3.77887,0.02258 -1.28018,1.158547 -3.15983,1.617832 -5.75,1.404987 -3.57623,-0.293875 -3.95653,-0.634133 -5.38296,-4.816215 -0.84417,-2.475 -2.08167,-5.482916 -2.75,-6.684259 -0.66832,-1.201342 -1.21513,-2.392029 -1.21513,-2.645971 0,-0.253941 3.03599,-0.312292 6.74664,-0.129667 5.81955,0.286417 7.05628,0.692028 9,2.951735 1.23935,1.440829 2.25336,3.508719 2.25336,4.59531 0,2.76626 2.61982,3.464565 6.34089,1.690142 4.00681,-1.910677 7.14562,-0.84547 9.44468,3.205203 0.94294,1.661345 2.27153,2.81112 2.95243,2.555055 2.16708,-0.814965 0.87127,1.71354 -2.38182,4.64764 -1.87074,1.6873 -5.00224,3.18274 -7.73311,3.69292 l -4.58927,0.85737 z m 84.83787,-3.69065 c -0.69755,-0.47374 -1.69397,-2.345656 -2.21426,-4.159813 -2.50281,-8.726803 8.35727,-14.03828 12.46434,-6.096088 1.919,3.710926 1.94276,7.43792 0.0574,9.002624 -1.87093,1.552737 -8.65246,2.377297 -10.30749,1.253277 z M 88.101887,83.581922 c -1.82801,-4.808035 -1.22617,-8.389001 1.58985,-9.459651 3.87122,-1.471835 6.22417,-1.185976 8.4349,1.024751 2.336043,2.33604 2.644253,7.498604 0.57143,9.571429 -0.78572,0.785714 -3.27185,1.428571 -5.52475,1.428571 -3.47685,0 -4.24364,-0.387837 -5.07143,-2.5651 z"
           id="path376"
           inkscape:connector-curvature="0"
           sodipodi:nodetypes="csccsccsccssccscccscscsccscccccsccsccscccccscccsscssscssscscsccsssssssscssccccccscccsscscssccssccccscsccssccsscsssscccsccsccsssccscsscccscsccscscsccccccccscssccscscccccscccscscscscscccsccccssscssscccssssscsccsssccsssscccsccscsscssccssccscscccsscccsccsscccsscscscsssscccccsccssssccccssccscscccscscccccscscsssscccsssscssccccssccccccccsccssscccccccccsccccsccsssccccscscsccccsccscssssccsccssscccscsccccccscssscccscscsscsccsssscccssscccssscsccsssccccccscscccsscsccscsccsccssccccsscccscsccsssssccccscscscsssscsccsscscsccccssscsscccccccscscscsccsccsscccscssscsscssccssccscscscsccccscccsscsccssscscscscssssssccsssssccsscsccsccccsscsc" />
      </g>
    </g>
  </g>
</svg>
