<?xml version="1.0" encoding="UTF-8" standalone="no"?>
<!-- Created with Inkscape (http://www.inkscape.org/) -->

<svg
   xmlns:dc="http://purl.org/dc/elements/1.1/"
   xmlns:cc="http://creativecommons.org/ns#"
   xmlns:rdf="http://www.w3.org/1999/02/22-rdf-syntax-ns#"
   xmlns:svg="http://www.w3.org/2000/svg"
   xmlns="http://www.w3.org/2000/svg"
   xmlns:sodipodi="http://sodipodi.sourceforge.net/DTD/sodipodi-0.dtd"
   xmlns:inkscape="http://www.inkscape.org/namespaces/inkscape"
   version="1.1"
   id="svg2949"
   width="283"
   height="443"
   viewBox="0 0 283 443"
   sodipodi:docname="moons.svg"
   inkscape:version="0.92.4 (5da689c313, 2019-01-14)">
  <metadata
     id="metadata2955">
    <rdf:RDF>
      <cc:Work
         rdf:about="">
        <dc:format>image/svg+xml</dc:format>
        <dc:type
           rdf:resource="http://purl.org/dc/dcmitype/StillImage" />
        <dc:title></dc:title>
      </cc:Work>
    </rdf:RDF>
  </metadata>
  <defs
     id="defs2953" />
  <sodipodi:namedview
     pagecolor="#ffffff"
     bordercolor="#666666"
     borderopacity="1"
     objecttolerance="10"
     gridtolerance="10"
     guidetolerance="10"
     inkscape:pageopacity="0"
     inkscape:pageshadow="2"
     inkscape:window-width="1280"
     inkscape:window-height="972"
     id="namedview2951"
     showgrid="false"
     inkscape:zoom="1.5067919"
     inkscape:cx="144.21902"
     inkscape:cy="267.49357"
     inkscape:window-x="-8"
     inkscape:window-y="-8"
     inkscape:window-maximized="1"
     inkscape:current-layer="g928"
     showguides="true" />
  <g
     id="g151"
     transform="translate(25.882805,-2.654647)">
    <g
       id="g534"
       transform="translate(-21.900834,-45.792654)">
      <g
         id="g928"
         transform="translate(-3.9819699,-1.3273232)">
        <g
           id="g998"
           transform="translate(-3.9819699,11.282248)">
          <path
             style="fill:#ffff00"
             d="m 117.21902,293.98711 c -1.65,-1.05584 -3.77034,-2.7881 -4.71186,-3.84948 -6.33441,-7.14076 -6.27151,-21.92975 0.11554,-27.16504 3.15925,-2.58956 10.24419,-5.31894 13.93929,-5.36994 5.53971,-0.0764 13.6269,4.37836 16.65422,9.17395 4.71257,7.46519 1.90258,20.73535 -5.50816,26.01226 -4.59993,3.27544 -16.1842,3.95291 -20.48903,1.19825 z m 103.5,-7.85701 c -4.22949,-1.25 -9.88002,-4.9618 -11.76763,-7.73008 -4.57453,-6.70879 -5.02176,-18.15046 -0.93751,-23.9847 2.33479,-3.33519 10.86427,-7.61038 15.21174,-7.6245 7.94708,-0.0258 16.46849,4.97147 18.91846,11.09453 3.35236,8.37838 1.11566,18.96541 -5.02771,23.79778 -3.35632,2.64008 -13.34509,5.34904 -16.39735,4.44697 z M 27.547519,276.25401 C 17.135223,272.93807 10.744656,259.78107 15.345841,251.133 c 6.632765,-12.46648 20.379265,-15.81617 31.242016,-7.61293 7.594172,5.7349 9.1921,17.40563 3.502529,25.5813 -5.002473,7.18833 -13.732719,9.95836 -22.542867,7.15264 z M 164.21902,226.00748 c -12.83682,-6.31435 -16.69351,-24.58127 -6.98884,-33.10208 4.2006,-3.68818 10.35805,-5.48746 16.69517,-4.87855 3.54668,0.3408 5.82848,1.36123 9.1741,4.10271 7.59414,6.22283 9.50726,15.56954 5.07566,24.79758 -3.62545,7.54938 -16.86579,12.56801 -23.95609,9.08034 z m 89.77445,-6.26314 c -4.61446,-2.34581 -7.2713,-5.93846 -9.71536,-13.13742 -1.45528,-4.28649 -1.45152,-5.07434 0.0453,-9.5 0.89772,-2.65423 2.54695,-6.11581 3.66497,-7.6924 4.40248,-6.20825 16.13937,-8.50623 23.71252,-4.6427 5.51226,2.81215 8.89975,7.72024 10.21698,14.80325 1.03274,5.55329 0.93752,6.34669 -1.29199,10.76501 -5.03929,9.98661 -17.10556,14.24736 -26.63245,9.40426 z M 77.21902,212.40392 c -6.480965,-2.97973 -11.5,-12.07547 -11.5,-20.84085 0,-7.69426 5.970668,-14.78422 15.142905,-17.98168 6.40559,-2.233 17.788234,3.17218 21.265365,10.0981 3.47345,6.91862 2.44828,17.50999 -2.172171,22.44135 -5.358017,5.71856 -16.979005,8.92999 -22.736099,6.28308 z m 151.5,-54.32298 c -2.73069,-0.98709 -9.1276,-7.74487 -10.57542,-11.17201 -1.72931,-4.09346 -1.79034,-7.39076 -0.25951,-14.02264 1.39972,-6.06392 4.53453,-9.30793 11.11988,-11.50722 6.22694,-2.0796 9.58545,-2.01608 14.88214,0.28146 10.55566,4.5787 14.6138,15.72399 9.4319,25.90376 -2.96482,5.82434 -6.24372,8.96769 -10.68226,10.24064 -3.59938,1.03229 -11.39674,1.18693 -13.91673,0.27601 z"
             id="path1002"
             inkscape:connector-curvature="0" />
          <path
             style="fill:#ffe680"
             d="m 117.21902,293.92049 c -6.25812,-3.86561 -9.5,-10.03316 -9.5,-18.07339 0,-5.9008 2.1308,-10.82535 5.83204,-13.47858 l 2.66796,-1.91252 -2.68638,2.91252 c -3.49154,3.78547 -4.81875,7.44929 -4.79166,13.22763 0.0502,10.71914 5.96987,17.1072 16.88942,18.22593 l 6.58862,0.67502 -6,0.13824 c -4.28383,0.0987 -6.85809,-0.3918 -9,-1.71485 z m 18,-0.70831 c 1.65,-0.8561 4.03629,-2.76582 5.30286,-4.24384 1.84163,-2.14906 2.0924,-2.25057 1.25204,-0.50683 -1.19512,2.47985 -6.19186,6.32262 -8.20927,6.31338 -0.7401,-0.003 0.004,-0.70661 1.65437,-1.56271 z m 83.3125,-8.11424 c 0.72187,-0.28887 1.58437,-0.25335 1.91667,0.0789 0.33229,0.33229 -0.25834,0.56864 -1.3125,0.52522 -1.16495,-0.048 -1.4019,-0.28494 -0.60417,-0.60416 z m 7,0 c 0.72187,-0.28887 1.58437,-0.25335 1.91667,0.0789 0.33229,0.33229 -0.25834,0.56864 -1.3125,0.52522 -1.16495,-0.048 -1.4019,-0.28494 -0.60417,-0.60416 z m -12.03365,-2.14731 c -2.71174,-1.64188 -7.79863,-9.71131 -7.75689,-12.30491 0.0121,-0.75057 0.93102,0.66033 2.04208,3.13533 1.11106,2.475 3.68868,5.9456 5.72804,7.71245 4.0961,3.54877 4.09252,3.94303 -0.0132,1.45713 z m 17.72115,0.6287 c 3.83782,-1.33533 9.02034,-6.22606 10.57517,-9.97977 0.9743,-2.35215 0.93875,-3.42636 -0.18306,-5.53235 -1.00137,-1.87989 -1.07105,-2.7213 -0.24827,-2.99774 0.62911,-0.21137 0.91413,-1.26274 0.63337,-2.33637 -0.28122,-1.0754 -0.009,-1.95205 0.60616,-1.95205 1.9595,0 1.32975,10.66193 -0.88633,15.0058 -2.1938,4.3002 -8.29642,9.03978 -11.47917,8.91525 -1.48202,-0.058 -1.22121,-0.35613 0.98213,-1.12277 z m -86.30505,-5.29828 c 0.0204,-1.65 0.2445,-2.20394 0.49804,-1.23097 0.25354,0.97297 0.23687,2.32297 -0.0371,3 -0.27393,0.67703 -0.48137,-0.11903 -0.46099,-1.76903 z M 32.96902,277.09172 c 0.9625,-0.25152 2.5375,-0.25152 3.5,0 0.9625,0.25153 0.175,0.45733 -1.75,0.45733 -1.925,0 -2.7125,-0.2058 -1.75,-0.45733 z m -13.350689,-6.22109 c -4.142454,-4.29772 -4.821145,-5.6158 -5.439341,-10.56367 -0.569418,-4.55747 -0.343243,-6.33539 1.166851,-9.17239 1.030248,-1.93552 2.280208,-3.77639 2.777687,-4.09083 0.49748,-0.31444 0.669662,-0.16468 0.382628,0.3328 -0.287035,0.49748 -1.307701,2.59172 -2.268148,4.65387 -3.267896,7.01642 -0.0041,16.48541 7.402692,21.47684 1.855747,1.25059 2.774812,2.2738 2.042365,2.2738 -0.732446,0 -3.461577,-2.20969 -6.064734,-4.91042 z m 24.85371,2.79346 c 1.789162,-1.1458 4.372405,-3.95072 5.74054,-6.23315 1.368135,-2.28244 2.491775,-3.75301 2.496979,-3.26792 0.03204,2.9868 -7.922046,11.65543 -10.64491,11.60118 -0.465097,-0.009 0.61823,-0.95431 2.407391,-2.10011 z m 99.978189,-2.80288 c -0.43497,-1.66335 -0.30483,-2.05378 0.43724,-1.31171 0.5811,0.5811 0.85979,1.64682 0.61931,2.36826 -0.24965,0.74895 -0.70294,0.29565 -1.05655,-1.05655 z m 60.42668,-6.08016 c 0,-1.375 0.22698,-1.9375 0.50439,-1.25 0.27741,0.6875 0.27741,1.8125 0,2.5 -0.27741,0.6875 -0.50439,0.125 -0.50439,-1.25 z m -64.7529,-1.25 -1.90499,-2.25 2.25,1.90499 c 2.11444,1.79022 2.70524,2.59501 1.90499,2.59501 -0.18976,0 -1.20226,-1.0125 -2.25,-2.25 z m -7.79215,-3.90686 c -1.11046,-0.64494 -4.40307,-0.88291 -8,-0.5782 -3.63276,0.30774 -5.30141,0.1847 -4.11284,-0.30327 3.20601,-1.31623 10.78443,-1.01403 13.5,0.53833 1.375,0.78602 2.05,1.43139 1.5,1.43416 -0.55,0.003 -1.84922,-0.4882 -2.88716,-1.09102 z m 73.46611,-0.68877 c -0.28872,-4.92113 10.92086,-12.23545 18.42105,-12.01985 3.94391,0.11338 3.92989,0.12554 -1,0.86714 -4.91977,0.74008 -12.5,3.76914 -12.5,4.99499 0,0.34443 -0.83184,1.5191 -1.84854,2.6104 -1.01669,1.09129 -2.10617,2.63864 -2.42105,3.43856 -0.43557,1.1065 -0.5914,1.13251 -0.65146,0.10876 z m 33.50125,-3.21255 c -1.67293,-2.52796 -4.31594,-4.82682 -6.89634,-5.99836 -2.30112,-1.04475 -3.47351,-1.90942 -2.6053,-1.9215 2.57275,-0.0358 10.48768,5.73063 11.79048,8.58996 1.90275,4.17608 0.68162,3.81858 -2.28884,-0.6701 z M 52.797967,255.19772 c 0.04798,-1.16495 0.284941,-1.4019 0.604167,-0.60417 0.288871,0.72187 0.253344,1.58437 -0.07895,1.91667 -0.332292,0.33229 -0.568641,-0.25834 -0.52522,-1.3125 z m -3.479671,-7.9055 c -0.896909,-1.36886 -3.761163,-3.632 -6.36501,-5.0292 -2.603846,-1.39721 -3.609266,-2.25001 -2.234266,-1.89511 3.169997,0.8182 8.652998,4.89624 10.021754,7.45379 1.493846,2.79127 0.514516,2.42675 -1.422478,-0.52948 z M 19.71902,244.32705 c 0,-0.92323 7.890411,-4.54744 9.710162,-4.46005 1.20459,0.0579 0.970262,0.33526 -0.716636,0.84839 -1.378561,0.41934 -3.966061,1.51722 -5.75,2.43973 -1.783939,0.92251 -3.243526,1.44988 -3.243526,1.17193 z m 13.25,-5.23533 c 0.9625,-0.25152 2.5375,-0.25152 3.5,0 0.9625,0.25153 0.175,0.45733 -1.75,0.45733 -1.925,0 -2.7125,-0.2058 -1.75,-0.45733 z m 133.45681,-11.97605 c -0.2854,-0.46179 1.72504,-0.9759 4.46765,-1.14248 2.74261,-0.16657 6.18783,-0.73057 7.65605,-1.25333 2.50885,-0.89327 2.55268,-0.85985 0.72836,0.55536 -1.06762,0.82821 -3.31762,1.51197 -5,1.51948 -1.68238,0.008 -4.02058,0.27172 -5.19601,0.58712 -1.17543,0.31541 -2.37065,0.19564 -2.65605,-0.26615 z m -7.62504,-4.87971 c -7.00191,-6.32581 -9.15191,-19.75922 -4.23407,-26.45491 2.24555,-3.05735 7.88472,-7 10.01207,-7 0.86021,0 -0.4175,1.0125 -2.83934,2.25 -2.42184,1.2375 -5.22582,3.38138 -6.23107,4.76418 -2.74778,3.77977 -3.34124,11.59352 -1.33054,17.51825 1.88914,5.56651 3.65764,7.89932 8.04118,10.60701 1.65,1.0192 2.4388,1.85477 1.75288,1.85682 -0.68591,0.002 -3.01291,-1.59155 -5.17111,-3.54135 z m 25.54663,-1.57347 c 1.17063,-1.30979 2.84011,-3.73144 3.70997,-5.38144 2.0733,-3.93277 2.12127,-2.53173 0.0612,1.78823 -0.88023,1.84585 -2.56773,3.94526 -3.75,4.66537 l -2.1496,1.30929 2.1284,-2.38145 z m 79.05567,0.13994 c 3.40125,-0.38773 7.39415,-1.49784 8.87313,-2.4669 1.47898,-0.96906 2.35371,-1.21934 1.94385,-0.55617 -1.3078,2.11606 -7.28318,4.00609 -12.21893,3.86487 -4.68002,-0.13391 -4.65009,-0.15188 1.40195,-0.8418 z M 251.96902,218.666 c -4.513,-2.8902 -4.09353,-3.55536 0.5,-0.79285 4.64876,2.79572 4.79599,2.91181 3.66667,2.89105 -0.50417,-0.009 -2.37917,-0.95345 -4.16667,-2.0982 z m 24.39783,-3.13495 c 2.57357,-4.20043 5.35217,-7.89768 5.35217,-7.12168 0,1.10091 -4.85929,8.37168 -5.59507,8.37168 -0.28763,0 -0.17832,-0.5625 0.2429,-1.25 z m -30.18289,-3.81779 c -0.87253,-1.68729 -1.44658,-3.46651 -1.27568,-3.95383 0.17091,-0.48732 1.06482,0.89319 1.98648,3.06779 1.98694,4.68811 1.54209,5.24264 -0.7108,0.88604 z m -164.71494,1.40551 c 0.6875,-0.27741 1.8125,-0.27741 2.5,0 0.6875,0.27741 0.125,0.50439 -1.25,0.50439 -1.375,0 -1.9375,-0.22698 -1.25,-0.50439 z m -8.564383,-3.78899 c -3.257257,-2.94274 -6.9203,-10.14738 -5.752801,-11.31488 0.20232,-0.20232 0.918131,1.3498 1.590691,3.44915 1.486349,4.63954 4.467957,8.12375 8.476493,9.90536 1.854172,0.82409 2.332701,1.34831 1.252881,1.3725 -0.960916,0.0215 -3.466184,-1.51393 -5.567264,-3.41213 z m 17.67566,1.53462 c 6.341316,-2.18979 9.744743,-5.3045 11.655333,-10.66658 0.76758,-2.15423 1.41536,-3.10692 1.4395,-2.11711 0.0599,2.45623 -2.27681,6.74351 -5.124743,9.40261 -2.662789,2.48624 -8.866158,5.31423 -11.549248,5.26508 -0.980166,-0.018 0.630456,-0.86575 3.579158,-1.884 z m 99.370723,-5.08335 c 0,-1.925 0.2058,-2.7125 0.45733,-1.75 0.25152,0.9625 0.25152,2.5375 0,3.5 -0.25153,0.9625 -0.45733,0.175 -0.45733,-1.75 z m 92,-2 c 0,-1.925 0.2058,-2.7125 0.45733,-1.75 0.25152,0.9625 0.25152,2.5375 0,3.5 -0.25153,0.9625 -0.45733,0.175 -0.45733,-1.75 z m -39.15305,-1.58333 c 0.048,-1.16495 0.28494,-1.4019 0.60416,-0.60417 0.28887,0.72187 0.25335,1.58437 -0.0789,1.91667 -0.3323,0.33229 -0.56864,-0.25834 -0.52522,-1.3125 z m -55.07895,-3.17328 c 0,-0.59947 -1.22166,-2.58697 -2.7148,-4.41666 -2.23247,-2.73567 -2.30485,-2.97338 -0.40738,-1.33792 2.69515,2.32299 4.53382,5.43288 3.7032,6.2635 -0.31956,0.31956 -0.58102,0.0906 -0.58102,-0.50892 z M 65.971203,193.28105 c 0.0111,-2.2 0.215885,-2.98225 0.455078,-1.73834 0.239193,1.24391 0.230112,3.04391 -0.02018,4 -0.250293,0.95609 -0.445997,-0.0617 -0.434898,-2.26166 z m 179.357687,0.96952 c 1.30837,-3.60109 4.51283,-7.48161 7.41931,-8.98461 4.47831,-2.31583 4.92304,-1.71127 0.57492,0.78154 -2.14274,1.22845 -4.69499,3.7358 -5.67166,5.57188 -2.13712,4.01765 -3.30842,5.34459 -2.32257,2.63119 z m -141.53092,-1.05285 c 0.048,-1.16495 0.28494,-1.4019 0.60416,-0.60417 0.28887,0.72187 0.25335,1.58437 -0.0789,1.91667 -0.3323,0.33229 -0.56864,-0.25834 -0.52522,-1.3125 z m 174.60532,-1.37401 c -0.94083,-1.5927 -3.27967,-3.86555 -5.19743,-5.0508 -4.2481,-2.62546 -4.60047,-3.6191 -0.53853,-1.51859 2.91761,1.50875 8.74148,8.17027 7.88857,9.02318 -0.24311,0.24311 -1.21178,-0.8611 -2.15261,-2.45379 z m -98.4316,-1.18999 c -0.63104,-0.63104 -3.98354,-1.50046 -7.45,-1.93207 l -6.30267,-0.78473 6.28029,0.24807 c 4.2948,0.16964 6.81267,0.78045 7.96428,1.93206 0.9262,0.9262 1.45257,1.684 1.16972,1.684 -0.28286,0 -1.03059,-0.5163 -1.66162,-1.14733 z m -77.13667,-2.11624 c -0.12415,-1.88753 -1.68711,-5.00859 -4.116,-8.2192 -1.401775,-1.85293 -1.381087,-1.89044 0.315937,-0.57283 2.492433,1.93518 4.899213,6.83254 4.360463,8.87273 -0.39851,1.50909 -0.45638,1.50076 -0.5604,-0.0807 z m -34.940924,-4.88625 c 1.278708,-2.2824 3.449924,-4.82353 4.824924,-5.64697 2.447921,-1.46597 2.444495,-1.44723 -0.16445,0.89982 -1.465447,1.31833 -3.389503,3.85947 -4.27568,5.64697 -0.886177,1.7875 -1.85839,3.25 -2.160475,3.25 -0.302084,0 0.496972,-1.86742 1.775681,-4.14982 z m 190.574924,-0.51246 c 0.6875,-0.27741 1.8125,-0.27741 2.5,0 0.6875,0.27741 0.125,0.50439 -1.25,0.50439 -1.375,0 -1.9375,-0.22698 -1.25,-0.50439 z m 8.0625,-0.0208 c 0.72187,-0.28887 1.58438,-0.25335 1.91667,0.0789 0.33229,0.33229 -0.25834,0.56864 -1.3125,0.52522 -1.16495,-0.048 -1.4019,-0.28494 -0.60417,-0.60416 z m -172.8125,-6.81692 c -1.375,-0.78602 -2.023508,-1.44508 -1.44113,-1.46456 0.582379,-0.0195 1.932379,0.62525 3,1.43276 2.468977,1.86744 1.680384,1.88353 -1.55887,0.0318 z m -16.55887,-0.94483 c 1.067621,-0.85535 2.380121,-1.55517 2.916666,-1.55517 1.270543,0 0.703236,0.4619 -2.357796,1.91971 -2.357268,1.12265 -2.389176,1.10183 -0.55887,-0.36454 z m 11.37137,-1.23828 c 0.721875,-0.28887 1.584375,-0.25335 1.916667,0.0789 0.332291,0.33229 -0.258334,0.56864 -1.3125,0.52522 -1.164943,-0.048 -1.4019,-0.28494 -0.604167,-0.60416 z m -5.543468,-1.00988 c 0.972967,-0.25354 2.322967,-0.23687 3,0.0371 0.677032,0.27393 -0.119032,0.48137 -1.769032,0.46099 -1.65,-0.0204 -2.203936,-0.2445 -1.230968,-0.49804 z M 228.71902,158.08225 c -1.7924,-0.64636 -10,-8.40351 -10,-9.4512 0,-0.40347 1.99521,1.37772 4.43379,3.95821 l 4.4338,4.69179 7.36228,-0.0388 c 8.8621,-0.0468 13.18607,-2.14898 16.48954,-8.01688 5.14288,-9.13521 3.52855,-19.07891 -3.98048,-24.51843 -2.22145,-1.60926 -3.55602,-2.92589 -2.96569,-2.92589 2.1171,0 7.54612,5.4938 9.3471,9.45863 2.4708,5.43945 2.32774,10.04977 -0.49776,16.04137 -2.81943,5.97872 -6.09916,9.2027 -10.70585,10.52388 -3.59723,1.03167 -11.39397,1.18704 -13.91673,0.27732 z m -11.71399,-17.8012 c 0.008,-2.75 0.20172,-3.75631 0.43157,-2.23625 0.22986,1.52006 0.22371,3.77006 -0.0136,5 -0.23736,1.22994 -0.42542,-0.0137 -0.41792,-2.76375 z m 0.79294,-7.08333 c 0.048,-1.16495 0.28494,-1.4019 0.60416,-0.60417 0.28887,0.72187 0.25335,1.58437 -0.0789,1.91667 -0.3323,0.33229 -0.56864,-0.25834 -0.52522,-1.3125 z m 0.98444,-3.36195 c -0.0703,-1.60273 4.76642,-7.05472 6.25856,-7.05472 0.52127,0 -0.27541,0.96215 -1.77041,2.13812 -1.495,1.17596 -3.10216,3.08846 -3.57147,4.25 -0.47892,1.1853 -0.88111,1.47777 -0.91668,0.6666 z m 8.93661,-8.05472 c 0.825,-0.53316 2.175,-0.94464 3,-0.9144 0.98906,0.0362 0.81874,0.34772 -0.5,0.9144 -2.74909,1.18132 -4.32797,1.18132 -2.5,0 z m 6.75,-1.70573 c 1.2375,-0.23836 3.2625,-0.23836 4.5,0 1.2375,0.23835 0.225,0.43337 -2.25,0.43337 -2.475,0 -3.4875,-0.19502 -2.25,-0.43337 z"
             id="path1000"
             inkscape:connector-curvature="0" />
        </g>
      </g>
    </g>
  </g>
</svg>
