<?xml version="1.0" encoding="UTF-8" standalone="no"?>
<!-- Created with Inkscape (http://www.inkscape.org/) -->

<svg
   xmlns:dc="http://purl.org/dc/elements/1.1/"
   xmlns:cc="http://creativecommons.org/ns#"
   xmlns:rdf="http://www.w3.org/1999/02/22-rdf-syntax-ns#"
   xmlns:svg="http://www.w3.org/2000/svg"
   xmlns="http://www.w3.org/2000/svg"
   xmlns:sodipodi="http://sodipodi.sourceforge.net/DTD/sodipodi-0.dtd"
   xmlns:inkscape="http://www.inkscape.org/namespaces/inkscape"
   version="1.1"
   id="svg2949"
   width="283"
   height="443"
   viewBox="0 0 283 443"
   sodipodi:docname="moon.svg"
   inkscape:version="0.92.4 (5da689c313, 2019-01-14)">
  <metadata
     id="metadata2955">
    <rdf:RDF>
      <cc:Work
         rdf:about="">
        <dc:format>image/svg+xml</dc:format>
        <dc:type
           rdf:resource="http://purl.org/dc/dcmitype/StillImage" />
        <dc:title></dc:title>
      </cc:Work>
    </rdf:RDF>
  </metadata>
  <defs
     id="defs2953" />
  <sodipodi:namedview
     pagecolor="#ffffff"
     bordercolor="#666666"
     borderopacity="1"
     objecttolerance="10"
     gridtolerance="10"
     guidetolerance="10"
     inkscape:pageopacity="0"
     inkscape:pageshadow="2"
     inkscape:window-width="1280"
     inkscape:window-height="972"
     id="namedview2951"
     showgrid="false"
     inkscape:zoom="1.5067919"
     inkscape:cx="112.64858"
     inkscape:cy="221.5"
     inkscape:window-x="-8"
     inkscape:window-y="-8"
     inkscape:window-maximized="1"
     inkscape:current-layer="g180"
     showguides="false" />
  <g
     id="g151"
     transform="translate(25.882805,-2.654647)">
    <g
       id="g180"
       transform="translate(23.228158,-38.492376)">
      <path
         style="fill:#ffe680"
         d="m 74.765774,291.64897 c -28.32753,-7.42302 -48.853396,-28.91546 -53.953641,-56.49432 -4.643354,-25.10829 2.432796,-48.60214 19.862438,-65.94619 17.634813,-17.54822 45.765033,-25.4244 70.081869,-19.62223 14.48909,3.45719 29.42295,11.7497 37.28153,20.70176 6.20084,7.06365 6.08965,6.91143 10.36346,14.18921 7.71795,13.14271 11.69063,34.95709 8.87245,48.71946 -2.44715,11.95049 -7.6138,23.98119 -12.00582,27.95592 -1.10126,0.99663 -2.00229,2.31266 -2.00229,2.92453 0,1.68843 -8.36742,10.06224 -14.29676,14.30768 -10.23189,7.32609 -15.59596,9.8505 -27.16938,12.78634 -12.134126,3.07808 -26.408056,3.26225 -37.033856,0.47784 z"
         id="path184"
         inkscape:connector-curvature="0" />
      <path
         style="fill:#ffdd55"
         d="m 73.765774,291.22547 c -4.4,-1.25416 -9.77704,-3.06411 -11.94899,-4.02212 -14.32576,-6.31884 -30.501831,-22.1207 -35.366865,-34.5487 -5.113087,-13.06167 -5.640858,-15.35963 -6.801389,-29.61384 -1.551798,-19.05994 6.310196,-39.18877 21.026041,-53.83235 17.439003,-17.35337 45.886313,-25.41735 69.591199,-19.72707 10.2033,2.44927 16.29612,4.8851 15.48838,6.19207 -0.32574,0.52705 0.0419,0.71493 0.81699,0.4175 2.27612,-0.87343 13.69022,6.45402 19.66973,12.62727 6.89163,7.11494 8.93754,9.8713 13.34665,17.98126 5.90838,10.86766 7.90762,19.49268 8.05224,34.73859 0.0746,7.86219 -0.28211,13.57588 -0.87399,14 -0.55,0.39411 -1.1286,2.28517 -1.28578,4.20235 -0.15718,1.91718 -0.71968,3.91968 -1.25,4.45 -0.53032,0.53032 -0.96422,1.6653 -0.96422,2.52218 0,2.24808 -4.79934,10.98997 -8.14001,14.82684 -1.57299,1.80663 -2.85999,3.65062 -2.85999,4.09773 0,1.17801 -9.81554,10.55189 -14.5,13.84756 -18.39109,12.93874 -43.712316,17.62345 -63.999996,11.84073 z m 9.5,-6.96383 c 0,-0.21616 -0.69837,-0.661 -1.55194,-0.98855 -0.88992,-0.34149 -1.29132,-0.17385 -0.94098,0.39301 0.58726,0.95021 2.49292,1.40545 2.49292,0.59554 z m 1.32957,-4.88275 c -0.29253,-0.47332 -1.16135,-0.61903 -1.93072,-0.3238 -0.76937,0.29524 -1.39885,0.11504 -1.39885,-0.40044 0,-0.51548 -0.7546,-0.64766 -1.67689,-0.29375 -1.49841,0.575 -1.4718,0.71925 0.25,1.3554 2.5581,0.94512 5.42349,0.74186 4.75646,-0.33741 z m -29.12131,-0.40043 c -1.05565,-0.42357 -1.05565,-0.80976 0,-2.11301 0.97717,-1.20636 0.98733,-1.41183 0.0417,-0.84374 -0.6875,0.41304 -1.25,0.30741 -1.25,-0.23472 0,-0.54213 0.5625,-1.1791 1.25,-1.41549 0.6875,-0.23639 0.49825,-0.32087 -0.42055,-0.18772 -1.20776,0.17501 -1.56459,-0.34955 -1.28804,-1.89353 0.35129,-1.96131 0.27553,-1.99405 -0.92833,-0.40114 -0.72096,0.95395 -1.60384,1.44145 -1.96196,1.08333 -1.15208,-1.15208 -0.69546,-2.31779 0.9079,-2.31779 0.85746,0 1.28408,-0.44485 0.94806,-0.98855 -0.35503,-0.57445 0.0632,-0.72984 0.99845,-0.37095 0.88518,0.33967 1.37267,1.23452 1.08333,1.98854 -0.34904,0.90957 0.22057,1.36581 1.69252,1.35565 1.61269,-0.0111 1.85091,-0.24835 0.87225,-0.86858 -0.98803,-0.62616 -0.52224,-1.14056 1.75,-1.93267 1.703,-0.59367 3.09637,-1.31667 3.09637,-1.60667 0,-0.29 -1.2026,-0.07 -2.67245,0.48879 -2.9543,1.12323 -5.79977,0.50753 -4.83899,-1.04704 0.36221,-0.58608 -0.12589,-0.76107 -1.18662,-0.42543 -1.68643,0.53363 -1.68307,0.47286 0.0525,-0.94808 1.01995,-0.83504 1.6921,-2.00533 1.49366,-2.60064 -0.19843,-0.5953 -1.77131,0.20594 -3.49529,1.78055 -2.45806,2.24509 -3.09534,3.59797 -2.95305,6.269 0.15443,2.89906 0.51033,3.35951 2.39083,3.09322 1.21517,-0.17207 2.26564,0.16543 2.33439,0.75 0.0687,0.58457 0.2375,1.51286 0.375,2.06286 0.1375,0.55 0.30625,1.225 0.375,1.5 0.0687,0.275 0.6875,0.46447 1.375,0.42105 0.95655,-0.0604 0.94675,-0.20062 -0.0417,-0.59724 z m 18.79174,-5.41918 c -1.375,-0.3879 -1.91094,-0.75013 -1.19098,-0.80495 0.71996,-0.0548 1.0309,-0.54968 0.69098,-1.09968 -0.84879,-1.37337 -2.5,-1.26026 -2.5,0.17126 0,0.64419 -0.70933,1.95506 -1.57628,2.91303 -1.48746,1.64362 -1.33249,1.67933 2.75,0.6337 3.96514,-1.01558 4.11759,-1.16696 1.82628,-1.81336 z m -7,1.09537 c 0,-0.55 -0.45,-1 -1,-1 -0.55,0 -1,0.45 -1,1 0,0.55 0.45,1 1,1 0.55,0 1,-0.45 1,-1 z m 12.98469,-0.18261 c 0.0105,0.90295 0.72314,1.09981 2.26531,0.62577 2.90458,-0.89282 3.08714,-1.08863 2.26111,-2.42519 -0.49625,-0.80295 -1.05467,-0.81175 -1.99488,-0.0314 -0.71814,0.596 -1.69058,1.01456 -2.16097,0.93014 -2.11341,-0.37933 -3.4158,0.17635 -2.78928,1.19009 0.47683,0.77153 0.94441,0.69581 1.54371,-0.25 0.69186,-1.0919 0.86267,-1.09959 0.875,-0.0394 z m 19.51531,-0.81739 c -0.33992,-0.55 -1.37898,-0.99311 -2.30902,-0.98469 -1.45727,0.0132 -1.48367,0.14929 -0.19098,0.98469 1.95837,1.2656 3.282176,1.2656 2.5,0 z m -10.60927,-2.25 c 0.75451,-1.2375 1.01666,-1.9164 0.58256,-1.50868 -0.4341,0.40773 -1.39318,0.24013 -2.13128,-0.37244 -0.98712,-0.81924 -1.34201,-0.81694 -1.34201,0.009 0,0.61734 0.5051,1.12244 1.12244,1.12244 0.77551,0 0.73766,0.46364 -0.12244,1.5 -0.68469,0.825 -0.84804,1.5 -0.36299,1.5 0.48504,0 1.49922,-1.0125 2.25372,-2.25 z m 5.10927,1.25 c 0,-0.55 -0.19844,-1 -0.44098,-1 -0.24254,0 -0.7191,0.45 -1.05902,1 -0.33992,0.55 -0.14148,1 0.44098,1 0.58246,0 1.05902,-0.45 1.05902,-1 z m 35.095706,-0.71561 c 3.13977,-1.8547 3.55104,-2.76664 1.74978,-3.87988 -0.7153,-0.44208 -0.88306,-0.27432 -0.44098,0.44098 0.4228,0.68411 0.0783,1.15451 -0.84549,1.15451 -0.85746,0 -1.55902,0.47656 -1.55902,1.05902 0,0.58246 -0.40285,0.81004 -0.89522,0.50574 -0.49236,-0.3043 -1.15324,0.11914 -1.46861,0.94098 -0.73794,1.92304 -0.10171,1.88233 3.45954,-0.22135 z m -9.6688,-0.40265 c -0.41726,-0.67515 -4.42691,-0.0197 -4.42691,0.72369 0,0.20469 1.09256,0.28174 2.42791,0.17123 1.33535,-0.11052 2.2349,-0.51323 1.999,-0.89492 z m -50.443396,-1.38174 c 0.0303,1.28807 0.31531,1.57824 0.80054,0.81518 0.41438,-0.65165 2.09499,-1.40215 3.73468,-1.66777 1.6397,-0.26562 3.14887,-0.51995 3.35371,-0.56518 0.20485,-0.0452 -0.15655,-0.71963 -0.8031,-1.49868 -0.92356,-1.11282 -0.83842,-1.51972 0.39716,-1.89821 1.19076,-0.36476 1.14295,-0.44244 -0.1969,-0.31986 -0.97328,0.089 -1.82585,0.71825 -1.8946,1.39822 -0.25064,2.47898 -0.39576,2.61554 -1.55137,1.45993 -0.90183,-0.90183 -0.72679,-1.68877 0.75,-3.3719 1.0595,-1.20753 1.36387,-1.86661 0.67637,-1.46461 -0.6875,0.402 -1.25,0.35078 -1.25,-0.11382 0,-0.4646 -0.86696,-0.84473 -1.92658,-0.84473 -1.05962,0 -1.71821,0.33716 -1.46353,0.74924 0.25468,0.41208 -0.41585,1.62815 -1.49008,2.70238 -1.07423,1.07423 -1.69064,2.21564 -1.36981,2.53648 0.32083,0.32083 -0.14011,0.58333 -1.02432,0.58333 -0.8842,0 -1.92873,0.51953 -2.32117,1.15451 -0.42587,0.68907 -0.27594,0.88407 0.37188,0.48369 0.59698,-0.36895 1.38471,-0.18656 1.75051,0.40533 0.42842,0.69319 1.15341,0.4321 2.0373,-0.73369 1.30927,-1.72685 1.37435,-1.71813 1.41931,0.19016 z m 0.18264,-2.37615 c -1.06616,-0.67584 -1.00327,-0.97237 0.31339,-1.47762 0.93306,-0.35805 1.33598,-1.13571 0.92933,-1.79368 -0.42366,-0.6855 -0.28319,-0.89291 0.34274,-0.50606 0.78928,0.4878 0.68113,4.72998 -0.11824,4.6382 -0.0734,-0.008 -0.7336,-0.3958 -1.46722,-0.86084 z m 11.20141,3.09044 c 0.26708,-0.43215 -0.34832,-0.78572 -1.36756,-0.78572 -1.01924,0 -1.63464,0.35357 -1.36756,0.78572 0.26707,0.43214 0.88248,0.78571 1.36756,0.78571 0.48508,0 1.10049,-0.35357 1.36756,-0.78571 z m 15.60102,-3.49567 c 0.0373,-0.92668 -1.16055,-1.34469 -6.31701,-2.20449 -2.60681,-0.43466 -3.63632,-0.29848 -3.19099,0.42209 0.3616,0.58508 2.51575,1.06378 4.787,1.06378 h 4.12954 l -2.18856,2.03896 c -1.20371,1.12142 -2.18856,2.26743 -2.18856,2.54668 0,0.82681 4.93425,-3.0135 4.96858,-3.86702 z m 4.031416,3.44805 c 0,-0.45834 -0.674996,-0.83334 -1.499996,-0.83334 -0.825,0 -1.5,0.375 -1.5,0.83334 0,0.45833 0.675,0.83333 1.5,0.83333 0.825,0 1.499996,-0.375 1.499996,-0.83333 z m 29.40096,-4.14655 c 1.71096,-1.73001 1.77549,-2.00073 0.34904,-1.46428 -0.9625,0.36198 -1.75,1.00892 -1.75,1.43765 0,0.66858 -3.52285,1.6697 -7.70601,2.18987 -0.66331,0.0825 -1.0032,0.47812 -0.75533,0.8792 0.79276,1.28271 7.68868,-0.84462 9.8623,-3.04244 z m -26.85984,1.04641 c -0.36254,-0.58659 -1.10034,-1.06653 -1.63956,-1.06653 -0.53923,0 -0.40017,0.62961 0.30901,1.39914 1.43566,1.55782 2.35661,1.3276 1.33055,-0.33261 z m 13.95888,0.93347 c -0.33992,-0.55 -0.0665,-1 0.60765,-1 0.67413,0 1.01853,-0.20715 0.76535,-0.46034 -0.25319,-0.25318 -1.54159,-0.17758 -2.86312,0.16801 -2.23502,0.58447 -2.26688,0.68152 -0.45633,1.39005 2.64642,1.03563 2.64689,1.03561 1.94645,-0.0977 z m -65.999996,-4 c 0.77034,0 1.78859,-0.69326 2.26277,-1.54058 0.52148,-0.93183 1.52671,-1.28557 2.54395,-0.89522 0.92499,0.35496 1.4449,1.02867 1.15536,1.49715 -0.28953,0.46848 0.95055,0.60007 2.75575,0.29243 1.80519,-0.30764 4.48814,-0.60708 5.9621,-0.66543 1.47396,-0.0583 2.45537,-0.46943 2.1809,-0.91353 -0.27446,-0.44409 -0.86694,-0.58006 -1.31662,-0.30214 -0.44968,0.27791 -1.43108,-0.25113 -2.1809,-1.17565 -0.78795,-0.97153 -0.86493,-1.38203 -0.18241,-0.97268 0.6495,0.38955 1.47487,0.23263 1.83416,-0.34872 0.35929,-0.58134 1.62788,-0.76714 2.8191,-0.41288 2.1416,0.6369 2.14345,0.62651 0.16584,-0.92752 -1.1,-0.86439 -1.55,-1.59283 -1,-1.61874 0.55,-0.0259 0.325,-0.52926 -0.5,-1.11855 -1.20494,-0.86067 -1.05713,-0.97436 0.75138,-0.57795 1.23826,0.27142 1.9992,0.0855 1.69098,-0.41325 -0.30822,-0.49871 -1.28384,-0.90674 -2.16804,-0.90674 -0.88421,0 -1.36075,-0.2469 -1.05899,-0.54867 0.79033,-0.79033 5.85766,0.62155 5.32486,1.48364 -0.24529,0.39688 2.12032,0.64001 5.25691,0.54026 3.1366,-0.0997 5.1376,0.016 4.44667,0.25712 -0.69093,0.24116 -0.97876,0.88742 -0.63963,1.43614 0.33912,0.54873 1.46031,-0.38971 2.49153,-2.08541 1.98008,-3.25598 3.32357,-3.83178 4.49982,-1.92857 0.44208,0.7153 0.27432,0.88306 -0.44098,0.44098 -0.63498,-0.39244 -1.151,-0.34947 -1.14671,0.0955 0.004,0.44496 1.16211,1.34467 2.57292,1.99935 2.16841,1.00624 2.38588,0.97435 1.40611,-0.2062 -0.63745,-0.76808 -0.86871,-1.86623 -0.5139,-2.44033 0.35481,-0.57409 0.13105,-1.0438 -0.49725,-1.0438 -0.62829,0 -0.94829,-0.5625 -0.71112,-1.25 0.23718,-0.6875 -0.73782,-2.35056 -2.16666,-3.69568 -1.681,-1.5825 -1.98026,-2.21122 -0.8479,-1.78138 0.9625,0.36536 1.75,0.22841 1.75,-0.30432 0,-0.9503 -1.52032,-1.39145 -3.5,-1.01561 -0.55,0.10441 -0.43964,-0.38016 0.24525,-1.07683 0.68488,-0.69667 2.93488,-1.35209 5,-1.4565 2.16275,-0.10933 3.64875,-0.66254 3.50475,-1.30475 -0.1375,-0.61322 0.425,-1.11494 1.25,-1.11494 0.825,0 1.5,-0.49814 1.5,-1.10699 0,-0.60884 -0.63126,-0.86475 -1.4028,-0.56868 -0.77154,0.29607 -2.23404,-0.13916 -3.25,-0.96717 -1.01596,-0.82801 -1.24125,-1.19369 -0.50065,-0.81263 1.85748,0.95574 8.15345,1.30661 8.15345,0.45439 0,-0.38201 1.3581,-0.73317 3.017996,-0.78037 1.6599,-0.0472 2.77756,0.30323 2.48369,0.77872 -0.29387,0.47549 -0.10915,1.1273 0.4105,1.44846 0.51965,0.32116 1.08949,-0.39999 1.26632,-1.60257 0.17682,-1.20258 0.99649,-2.36851 1.82149,-2.59096 0.89585,-0.24156 1.09724,-0.0717 0.5,0.42167 -1.30688,1.07965 -1.83659,3.65219 -0.59387,2.88415 0.52562,-0.32486 1.24286,-0.12596 1.59387,0.44198 0.35101,0.56794 1.06825,0.76684 1.59387,0.44198 0.52563,-0.32485 0.87187,-0.21969 0.76943,0.23369 -0.38059,1.68436 2.16905,6.42237 3.13483,5.82549 0.55103,-0.34056 1.00876,0.19486 1.01718,1.18982 0.012,1.41785 0.20406,1.51102 0.8882,0.4309 0.48009,-0.75796 1.37665,-1.06677 1.99236,-0.68624 0.61571,0.38053 1.82632,-0.015 2.69025,-0.87891 1.42771,-1.42771 1.2529,-1.52026 -1.91922,-1.01613 -2.20764,0.35085 -3.76649,0.10727 -4.24249,-0.66291 -0.51656,-0.83581 -0.2408,-1.02121 0.87952,-0.5913 3.01667,1.1576 2.74133,-1.09872 -0.29826,-2.44418 -1.74812,-0.77379 -3.00567,-2.08978 -3.00567,-3.14534 0,-0.9982 0.375,-1.58314 0.83333,-1.29988 0.45834,0.28327 0.83334,-0.15517 0.83334,-0.97431 0,-0.92773 -0.35387,-1.13548 -0.93841,-0.55094 -0.58454,0.58454 -2.20649,0.40856 -4.30121,-0.46667 -3.98171,-1.66366 -4.75554,-1.74559 -3.93413,-0.41652 0.359,0.58086 -0.0742,0.72562 -1.05044,0.351 -1.419,-0.54452 -1.44735,-0.75732 -0.19433,-1.45855 0.80689,-0.45155 2.43114,-0.63534 3.60946,-0.40842 1.28138,0.24677 2.14239,-0.0976 2.14239,-0.8568 0,-0.85437 -1.02729,-1.11862 -3.14205,-0.80824 -2.38431,0.34994 -2.94995,0.15034 -2.34549,-0.8277 0.52712,-0.85289 0.40052,-1.04409 -0.37426,-0.56525 -0.64395,0.39798 -0.91193,1.14251 -0.59549,1.65451 0.31643,0.51199 0.079,0.9309 -0.52753,0.9309 -0.60657,0 -0.97063,-0.73638 -0.80902,-1.63641 0.16799,-0.93554 -0.45772,-1.75454 -1.46092,-1.91221 -0.965116,-0.1517 -1.520276,0.10359 -1.233686,0.56731 0.28659,0.46371 0.0637,1.12577 -0.49524,1.47123 -1.78161,1.10109 -1.09355,2.50955 1.23369,2.52539 1.825106,0.0124 1.966736,0.20044 0.749996,0.99562 -1.113306,0.72758 -2.015576,0.37004 -3.499996,-1.38696 -3.62995,-4.29651 -8.5116,-5.95005 -8.48469,-2.87397 0.01,1.11517 0.28183,1.3367 0.75,0.61066 0.52265,-0.8105 1.15816,-0.68341 2.20193,0.44036 1.29395,1.39311 1.28324,1.50908 -0.0907,0.98185 -0.85686,-0.32881 -2.19212,-0.19635 -2.96724,0.29434 -1.07606,0.6812 -0.89123,0.89579 0.78166,0.90748 1.20504,0.008 2.4691,0.46531 2.80902,1.01531 0.33992,0.55 0.40328,1 0.1408,1 -0.26247,0 -1.26285,0.30147 -2.22306,0.66994 -1.1405,0.43765 -1.50975,0.28795 -1.06494,-0.43176 0.37448,-0.60593 -0.65423,-0.43565 -2.28603,0.3784 -1.92655,0.96109 -2.76814,1.99807 -2.40006,2.95728 0.43608,1.13639 0.88597,1.21234 1.95007,0.32922 2.01081,-1.66882 4.8367,0.68933 3.091,2.57936 -0.66428,0.7192 -1.57099,1.08742 -2.01491,0.81827 -1.5028,-0.91115 -5.69287,-1.03126 -5.69287,-0.1632 0,0.47437 0.47656,0.86249 1.05902,0.86249 0.58246,0 0.7809,0.45 0.44098,1 -0.99263,1.60612 -2.06262,1.15629 -2.22002,-0.9333 -0.0801,-1.06332 0.50469,-2.47303 1.29952,-3.13268 1.09623,-0.90979 1.17117,-1.52951 0.31039,-2.5667 -0.88043,-1.06087 -0.77113,-1.36732 0.48769,-1.36732 0.89234,0 1.62244,-0.675 1.62244,-1.5 0,-0.825 0.5625,-1.51001 1.25,-1.52224 0.6875,-0.0122 0.15276,-0.86558 -1.18832,-1.89635 -1.34107,-1.03076 -3.14107,-1.62952 -4,-1.33058 -1.26111,0.43892 -1.32305,0.28619 -0.3218,-0.79353 1.34474,-1.45014 3.35912,-1.99346 7.26012,-1.95818 4.54371,0.0411 6,0.32446 6,1.16755 0,0.45833 0.6,0.83333 1.33333,0.83333 2.47429,0 1.35646,-2.91249 -1.5,-3.90826 -1.55833,-0.54323 -2.83333,-0.63631 -2.83333,-0.20684 0,0.93502 -3.66968,0.77875 -4.6463,-0.19786 -0.37787,-0.37787 -0.10693,-0.68704 0.60208,-0.68704 1.03249,0 1.0413,-0.2986 0.0442,-1.5 -1.00363,-1.2093 -0.97891,-1.50297 0.12756,-1.51531 1.10698,-0.0123 1.09154,-0.19301 -0.0798,-0.93402 -1.93001,-1.22093 -3.08713,-0.396 -2.42857,1.73136 0.47837,1.54528 0.41754,1.53995 -0.60514,-0.0531 -0.62533,-0.97407 -1.57902,-1.49783 -2.11931,-1.16391 -0.54028,0.33391 -1.59117,0.10183 -2.3353,-0.51574 -1.54905,-1.28559 -0.97553,-4.81537 0.77449,-4.76669 3.19926,0.089 4.72372,-0.38035 4.16608,-1.28263 -0.33992,-0.55 -0.16803,-1 0.38197,-1 0.55,0 1.29903,0.48384 1.66451,1.07521 0.42516,0.68793 1.52698,0.26496 3.05902,-1.17432 2.08967,-1.96315 2.64669,-1.78529 2.30909,0.73731 -0.047,0.351 0.50249,1.00154 1.22104,1.44562 0.71855,0.44409 1.01192,1.10196 0.65194,1.46194 -1.14748,1.14748 -2.94597,-0.68435 -2.35329,-2.39691 0.44166,-1.2762 0.2414,-1.22427 -0.8861,0.22974 -0.87786,1.13209 -2.21926,1.67918 -3.37568,1.37677 -1.48877,-0.38932 -1.80914,-0.0819 -1.4291,1.37141 0.26943,1.03028 0.91394,1.87323 1.43225,1.87323 0.51831,0 0.70444,-0.38499 0.41363,-0.85554 -0.29082,-0.47055 0.57738,-0.64409 1.92933,-0.38565 1.35194,0.25844 2.23552,0.83 1.9635,1.27013 -0.27201,0.44013 0.0707,1.02815 0.76166,1.3067 0.75786,0.30554 0.56198,0.53778 -0.49377,0.58541 -0.96249,0.0435 -1.74999,-0.37101 -1.74999,-0.92101 0,-0.55 -0.4355,-1 -0.96778,-1 -0.57258,0 -0.64043,0.88489 -0.16616,2.16698 0.84866,2.29413 4.11179,3.46484 4.16574,1.49454 0.0175,-0.63884 0.61815,-0.38968 1.3348,0.55368 0.86691,1.14116 1.637,1.3812 2.30098,0.71722 1.10567,-1.10567 4.332416,-0.23086 4.332416,1.17457 0,0.49115 -0.787496,0.93169 -1.749996,0.97896 -0.9625,0.0473 -0.4,0.4893 1.25,0.98228 1.649996,0.49298 3.119816,0.5668 3.266256,0.16405 0.79887,-2.19711 2.22472,-3.56799 2.92937,-2.81641 0.4424,0.47186 0.24187,1.05883 -0.44563,1.30437 -0.6875,0.24553 -1.25,0.87476 -1.25,1.39828 0,0.58529 0.71958,0.56674 1.86852,-0.0481 1.02768,-0.55 2.11145,-0.75707 2.40837,-0.46015 0.29691,0.29692 1.36858,0.67836 2.38148,0.84765 1.0129,0.16929 1.71798,0.84398 1.56685,1.4993 -0.15112,0.65532 0.19372,0.90195 0.76632,0.54806 0.57259,-0.35388 0.78219,-1.06233 0.46575,-1.57433 -0.31643,-0.51199 0.23873,-0.94458 1.23369,-0.96131 1.71247,-0.0288 1.7152,-0.085 0.0511,-1.05412 -0.96686,-0.56304 -2.20436,-0.7478 -2.75,-0.41058 -0.54564,0.33723 -0.99208,0.0815 -0.99208,-0.56832 0,-0.89247 -0.33834,-0.90066 -1.38322,-0.0335 -1.06665,0.88524 -1.51719,0.79883 -1.96861,-0.37756 -0.75602,-1.97016 -3.0817,-1.94913 -5.07674,0.0459 -1.47937,1.47937 -2.04219,0.93572 -1.73754,-1.67836 0.0389,-0.33382 -1.486456,-0.48338 -3.389686,-0.33237 -1.91223,0.15173 -3.20669,-0.13598 -2.8933,-0.64307 0.31193,-0.50472 0.09058,-0.91766 -0.49188,-0.91766 -0.58246,0 -1.05902,-0.45 -1.05902,-1 0,-0.55 0.675,-1 1.5,-1 0.825,0 1.5,-0.675 1.5,-1.5 0,-0.825 0.45,-1.5 1,-1.5 0.55,0 1,-1.14539 1,-2.54531 0,-2.34719 0.26157,-2.49624 3.360356,-1.91491 2.53005,0.47464 3.50805,0.24551 3.95811,-0.92732 0.84125,-2.19226 -3.19696,-4.95819 -5.02449,-3.44148 -0.738266,0.61271 -1.631436,0.8249 -1.984806,0.47152 -0.35338,-0.35337 -0.0909,-0.6425 0.58318,-0.6425 0.67413,0 0.943026,-0.45734 0.59757,-1.01631 -1.03158,-1.66912 -2.62018,0.0306 -1.96321,2.10047 0.65832,2.07418 -0.20541,2.25961 -9.52671,2.04531 -3.45313,-0.0794 -4.15104,0.14633 -3,0.97028 1.19915,0.85839 1.03646,0.97163 -0.81117,0.56462 -1.45219,-0.3199 -2.51403,0.0195 -2.85699,0.91325 -0.3002,0.78231 -1.51017,1.39075 -2.68883,1.35209 -2.015,-0.0661 -2.02751,-0.11551 -0.20939,-0.82749 1.27174,-0.49802 1.54342,-0.99838 0.79368,-1.46174 -1.36336,-0.8426 -0.46279,-3.66353 1.71073,-5.35868 1.35554,-1.05719 1.36373,-1.22442 0.062,-1.26531 -1.25722,-0.0395 -1.27386,-0.1903 -0.10279,-0.9318 0.94947,-0.60119 0.15676,-0.88469 -2.47372,-0.88469 -2.12902,0 -4.77039,0.63 -5.86972,1.4 -2.43559,1.70595 -3.55377,1.77937 -3.55377,0.23333 0,-0.64166 0.28417,-0.8825 0.63148,-0.53518 1.0231,1.0231 4.48862,-1.2948 3.74202,-2.50283 -0.41341,-0.66891 -0.22428,-0.82113 0.47966,-0.38607 0.6392,0.39505 1.82971,0.0507 2.64558,-0.76514 1.12577,-1.12577 1.1842,-1.60428 0.24233,-1.98481 -0.73082,-0.29526 -0.52158,-0.53386 0.50893,-0.58035 0.9625,-0.0434 1.75,0.42615 1.75,1.04349 0,0.73143 0.58942,0.64433 1.69196,-0.25 1.25743,-1.01997 1.49214,-1.04017 0.91391,-0.0786 -0.96323,1.60174 1.07098,4.21154 3.26657,4.19089 1.41613,-0.0133 1.4327,-0.14124 0.12756,-0.98469 -1.21948,-0.78809 -1.09025,-0.97224 0.69098,-0.98469 1.20504,-0.008 2.47364,0.44203 2.8191,1.001 0.34546,0.55897 1.1054,0.72134 1.68875,0.36081 0.63767,-0.3941 0.80976,-0.10152 0.43155,0.73368 -0.346,0.76406 -0.90687,2.1767 -1.24637,3.1392 -0.3395,0.9625 -1.04135,1.75 -1.55966,1.75 -0.51831,0 -0.72924,-0.34487 -0.46873,-0.76639 0.26051,-0.42151 -0.57585,-1.26167 -1.85857,-1.86702 -1.87449,-0.88462 -2.22927,-0.83234 -1.80765,0.26639 0.28852,0.75186 0.95299,1.36702 1.47661,1.36702 0.52361,0 0.70553,0.39884 0.40425,0.88631 -0.78658,1.27273 2.85124,2.01694 4.72724,0.96708 0.87469,-0.4895 1.41078,-1.7719 1.19945,-2.86924 -0.21016,-1.09128 0.0686,-1.98415 0.61948,-1.98415 0.55088,0 0.67269,-0.5625 0.27069,-1.25 -0.402,-0.6875 0.2492,-0.39026 1.44712,0.66054 1.19791,1.05079 2.47526,1.61329 2.83856,1.25 0.36329,-0.3633 0.0804,-0.66054 -0.62858,-0.66054 -0.91756,0 -0.99029,-0.36027 -0.25234,-1.25 1.14992,-1.38642 -0.71237,-1.82017 -8.9919,-2.09436 -2.96845,-0.0983 -4.35001,-0.50564 -3.75,-1.10564 1.59548,-1.59545 1.10627,-3.54719 -0.71402,-2.84868 -1.21605,0.46664 -1.44111,0.27783 -0.83596,-0.70132 0.61018,-0.98728 0.37652,-1.1666 -0.88789,-0.68139 -1.07959,0.41428 -1.47378,0.26659 -1.0629,-0.39824 0.3592,-0.58119 1.31517,-0.80265 2.12438,-0.49213 0.80921,0.31052 2.30744,0.11709 3.32941,-0.42984 1.95543,-1.04652 3.04196,-0.34549 5.92915,3.82551 0.78769,1.13793 1.80019,1.84151 2.25,1.56351 0.44982,-0.278 0.81785,0.0553 0.81785,0.74065 0,0.68536 1.31605,-0.0147 2.92456,-1.55579 1.76916,-1.69497 2.69329,-3.40457 2.33917,-4.32739 -0.50395,-1.31328 -0.76722,-1.27682 -1.89252,0.26213 -0.71893,0.98319 -1.07,2.17133 -0.78016,2.6403 0.62382,1.00936 0.13621,1.06899 -2.00926,0.24569 -0.87002,-0.33388 -1.58182,-1.03544 -1.58182,-1.55906 0,-0.52361 0.5625,-0.6671 1.25,-0.31885 0.6875,0.34825 0.35,-0.1101 -0.75,-1.01855 -1.41633,-1.16969 -1.56225,-1.59451 -0.5,-1.45567 3.4397,0.44956 4.10235,0.0188 3.0361,-1.97347 -0.86613,-1.61837 -0.50605,-2.30149 2.21481,-4.20183 1.786996,-1.24809 3.474086,-2.56097 3.749086,-2.9175 0.275,-0.35653 1.175,-0.90518 2,-1.21923 1.27616,-0.48579 1.26198,-0.58278 -0.095,-0.64994 -0.87726,-0.0434 -2.41526,0.82741 -3.41778,1.93519 -1.194566,1.31998 -2.540386,1.81436 -3.904986,1.43449 -1.66688,-0.46402 -1.78301,-0.37016 -0.58222,0.47055 1.14793,0.8037 1.18464,1.05379 0.15638,1.06551 -0.73899,0.008 -1.57897,-0.88469 -1.86663,-1.98469 -0.28766,-1.1 -1.17767,-2 -1.97781,-2 -1.22358,0 -1.20505,0.24975 0.11663,1.57143 2.12101,2.12101 1.9918,2.44096 -0.8895,2.20249 -2.38962,-0.19777 -2.88994,-1.82061 -1.33029,-4.31493 0.42153,-0.67415 -0.60589,-0.89428 -2.91541,-0.62466 -2.73728,0.31956 -3.37981,0.11456 -2.76399,-0.88187 0.48388,-0.78293 -0.1303,-0.64497 -1.54735,0.34757 -1.40606,0.98485 -3.28508,1.41103 -4.67885,1.06122 -1.28103,-0.32152 -2.98019,-0.0443 -3.77589,0.6161 -1.1992,0.99525 -1.37455,0.8258 -1.02478,-0.99036 0.23207,-1.20507 0.88504,-2.74904 1.45105,-3.43103 0.566,-0.68199 0.73299,-1.53607 0.3711,-1.89797 -0.91468,-0.91468 -2.5478,-0.82806 -1.97141,0.10456 0.2592,0.4194 -0.14829,1.8819 -0.90555,3.25 -0.75726,1.3681 -1.39278,1.93041 -1.41226,1.24959 -0.0226,-0.78792 -1.21676,-1.1263 -3.28544,-0.93093 -2.03832,0.1925 -3.14209,0.79132 -2.96056,1.60617 0.20342,0.91313 -0.44063,1.116 -2.16724,0.68265 -1.46377,-0.36739 -2.61049,-0.15516 -2.83724,0.52509 -0.27264,0.81791 -0.93418,0.84555 -2.33276,0.0975 -1.07371,-0.57432 -4.72781,-1.00313 -8.12022,-0.95291 -3.41198,0.0505 -6.804298,-0.43676 -7.59201,-1.0905 -0.783194,-0.65 -1.689079,-0.91672 -2.013078,-0.59272 -0.895372,0.89537 0.35448,3.4613 1.377893,2.8288 0.492358,-0.30435 0.895205,-0.10332 0.895205,0.44668 0,1.32974 -0.958329,1.84664 -4.20388,2.26745 -1.487135,0.19282 -2.737007,-0.0712 -2.777494,-0.58675 -0.04049,-0.51553 0.654993,-1.04426 1.545512,-1.17496 2.699692,-0.39623 2.685047,-1.13771 -0.02247,-1.13771 -1.397917,0 -2.597917,0.39375 -2.666667,0.875 -0.06875,0.48125 -0.2375,1.325 -0.375,1.875 -0.1375,0.55 -0.30625,1.45 -0.375,2 -0.06875,0.55 -0.9125,1.00689 -1.875,1.01531 -1.487804,0.013 -1.525991,0.15693 -0.254871,0.96052 1.284193,0.81185 1.213652,1.17286 -0.5,2.5589 -1.974472,1.597 -1.972451,1.6089 0.19512,1.14873 1.930449,-0.40982 2.050187,-0.24069 1.009454,1.42578 -0.649439,1.03992 -1.522552,1.89076 -1.940251,1.89076 -0.417699,0 0.193662,0.95312 1.358581,2.11803 1.164919,1.16492 1.694595,2.40242 1.177058,2.75 -0.517536,0.34759 -1.242473,1.44799 -1.610971,2.44535 -0.39364,1.06541 -1.155477,1.51334 -1.846997,1.08596 -0.779917,-0.48202 -0.97423,-0.19902 -0.575964,0.83885 0.330571,0.86145 0.294543,1.87277 -0.08006,2.24738 -0.644189,0.64419 -0.754338,1.01689 -1.056099,3.57345 -0.06875,0.58246 -0.512995,0.81922 -0.98721,0.52614 -0.474216,-0.29308 -0.775861,0.46786 -0.670322,1.69098 0.105539,1.22312 -0.464884,3.34886 -1.267607,4.72386 -1.051148,1.80053 -1.087431,2.15027 -0.129678,1.25 1.816841,-1.70779 3.929816,-1.57337 3.929816,0.25 0,0.825 -0.476558,1.5 -1.059017,1.5 -0.582459,0 -0.762165,0.48032 -0.399347,1.06737 0.397684,0.64346 1.808624,-0.21954 3.552677,-2.17301 1.591154,-1.7822 3.220327,-2.91305 3.620386,-2.51299 0.400059,0.40006 0.118455,1.10371 -0.625787,1.56368 -1.026993,0.63472 -0.803912,1.01063 0.925473,1.55952 1.609652,0.51088 2.543805,0.24938 3.181818,-0.89068 0.496747,-0.88764 1.668317,-1.62078 2.603487,-1.6292 1.313636,-0.0118 1.396818,-0.2077 0.365775,-0.86127 -1.014523,-0.64309 -0.834347,-0.97675 0.75138,-1.39142 1.147253,-0.30002 1.834152,-0.13812 1.526443,0.35976 -0.30771,0.49789 0.479169,0.79342 1.74862,0.65674 1.687882,-0.18172 2.232362,0.20771 2.026252,1.44927 -0.34593,2.08383 3.00773,4.03651 5.37344,3.12871 1.18213,-0.45363 1.50566,-0.29286 1.01343,0.50358 -0.39769,0.64347 -1.70901,1.20157 -2.91405,1.24023 -2.12129,0.068 -2.12736,0.0996 -0.19098,0.99151 1.9629,0.90414 1.96337,0.91658 0.0251,0.67085 -1.08619,-0.1377 -2.47636,-1.25621 -3.08926,-2.48558 -0.61291,-1.22937 -1.483858,-1.90038 -1.935445,-1.49114 -0.451586,0.40924 -0.497362,0.18157 -0.101723,-0.50593 0.508123,-0.88296 -0.105465,-1.21594 -2.089675,-1.134 -1.690511,0.0698 -2.112195,0.2981 -1.059017,0.57333 0.9625,0.25152 1.75,0.90088 1.75,1.44301 0,0.54213 -0.494896,0.67983 -1.099768,0.306 -0.779633,-0.48184 -0.808339,-0.13515 -0.09861,1.19098 0.550635,1.02888 0.933031,2.2883 0.849768,2.79873 -0.176439,1.08163 5.279992,2.73239 6.512932,1.9704 1.19952,-0.74135 1.03225,1.00498 -0.21581,2.25304 -1.18191,1.18191 -6.198012,0.56123 -5.435475,-0.67258 0.269348,-0.43582 -0.410896,-0.55687 -1.511655,-0.26902 -1.100741,0.28786 -2.001362,0.90975 -2.001362,1.38199 0,0.47224 -1.07873,0.44849 -2.397177,-0.0528 -2.369887,-0.90102 -3.602823,-0.50862 -3.602823,1.14664 0,0.46881 1.125,0.57003 2.5,0.22492 1.540403,-0.38661 2.5,-0.20201 2.5,0.48095 0,0.60963 0.45,1.10841 1,1.10841 0.55,0 0.8875,-0.3375 0.75,-0.75 -0.1375,-0.4125 0.2,-0.75 0.75,-0.75 0.55,0 0.876351,0.37095 0.725223,0.82433 -0.151127,0.45338 0.155279,0.55854 0.680902,0.23369 0.525623,-0.32486 1.269425,-0.083 1.652892,0.53747 0.383467,0.62046 0.13191,1.47749 -0.559017,1.90451 -0.690927,0.42702 -0.988937,1.20888 -0.662245,1.73748 0.805918,1.304 -3.822053,3.67439 -5.738269,2.93907 -0.84449,-0.32406 -1.801405,-0.15886 -2.126478,0.36712 -0.513418,0.83073 2.248579,1.37146 6.26623,1.22677 0.681581,-0.0246 0.990559,0.35774 0.686618,0.84953 -0.303941,0.49178 0.148317,1.16313 1.005018,1.49188 0.856702,0.32874 1.292023,1.02749 0.967382,1.55278 -0.324642,0.52528 -1.185265,0.14133 -1.912496,-0.85322 -0.727231,-0.99454 -1.635953,-1.49455 -2.019383,-1.11112 -0.383429,0.38343 0.592278,1.831 2.168239,3.21683 2.184902,1.92129 2.463804,2.52718 1.174401,2.55128 -0.930041,0.0174 -2.012069,0.55113 -2.404509,1.18611 -0.416848,0.67447 -0.276767,0.88458 0.336905,0.50531 0.577737,-0.35707 2.334766,0.065 3.904507,0.93792 2.19291,1.21945 2.34781,1.47548 0.66866,1.1052 -1.30981,-0.28884 -2.399044,0.0748 -2.718612,0.90757 -0.293259,0.76422 -1.334822,1.39638 -2.314583,1.4048 -1.515895,0.013 -1.557832,0.15979 -0.281385,0.98469 0.825,0.53316 1.05,0.98316 0.5,1 -0.55,0.0168 -0.325,0.46684 0.5,1 1.281897,0.82843 1.245547,0.9716 -0.25,0.98469 -0.9625,0.008 -1.75,0.44948 -1.75,0.98013 0,1.49885 3.45947,2.98728 4.889292,2.1036 1.476098,-0.91228 1.418728,-1.95283 -0.224329,-4.06842 -1.012282,-1.30341 -0.93705,-1.32132 0.574027,-0.13669 0.95644,0.74982 1.49239,1.76232 1.19098,2.25 -0.3014,0.48768 0.0949,0.88669 0.88075,0.88669 1.76796,0 1.70375,4.17155 -0.0817,5.31146 -0.69907,0.4463 -0.9743,1.29159 -0.61162,1.87842 0.42112,0.68138 0.98874,0.47849 1.57072,-0.56146 0.50117,-0.89563 1.54154,-1.62842 2.31188,-1.62842 z m -1.10783,-2.46629 c 0.31427,-2.14123 1.60783,-3.15446 1.60783,-1.25939 0,0.8842 -0.4105,1.86135 -0.91222,2.17143 -0.50171,0.31008 -0.81474,-0.10034 -0.69561,-0.91204 z m 8.94116,-1.12508 c 0,-1.45202 2.26042,-1.21488 3.88263,0.40733 0.92761,0.92761 0.62639,1.14859 -1.34346,0.98556 -1.39654,-0.11558 -2.53917,-0.74238 -2.53917,-1.39289 z m 4.53911,-4.15863 c -1.24387,-1.58606 -1.2085,-1.62143 0.37756,-0.37756 0.9625,0.75485 1.75,1.54235 1.75,1.75 0,0.82304 -0.82119,0.29331 -2.12756,-1.37244 z m -17.05448,-3.46796 c 0.53328,-0.53328 1.8049,-0.79255 2.82582,-0.57615 1.37482,0.29142 1.12336,0.54288 -0.9696,0.96961 -1.82482,0.37205 -2.48236,0.23268 -1.85622,-0.39346 z m 29.53376,-0.54212 c 0.36341,-0.58801 0.0954,-1.29701 -0.59549,-1.57556 -0.97369,-0.39256 -0.96182,-0.52422 0.0528,-0.58541 0.71996,-0.0434 1.05531,-0.48945 0.74523,-0.99117 -0.31008,-0.50171 0.22587,-0.7845 1.19099,-0.62842 0.96512,0.15608 2.39044,-0.22092 3.16738,-0.83779 1.10438,-0.87684 1.29752,-0.79426 0.88513,0.37843 -0.29012,0.825 -0.17235,2.1943 0.26172,3.04289 0.58472,1.1431 0.22907,1.58509 -1.37252,1.70574 -1.49306,0.11247 -1.75305,-0.0897 -0.8405,-0.65373 1.04243,-0.64426 0.96975,-0.95145 -0.34439,-1.45574 -2.26621,-0.86962 -2.72231,-0.80455 -2.04477,0.29174 0.31644,0.512 0.0485,1.25653 -0.59549,1.65451 -0.69784,0.43129 -0.9039,0.29172 -0.51008,-0.34549 z m -4.35172,-1.23992 c 0,-0.55 0.45,-1 1,-1 0.55,0 1,0.45 1,1 0,0.55 -0.45,1 -1,1 -0.55,0 -1,-0.45 -1,-1 z m -19.5,-1 c -0.33992,-0.55 -0.14148,-1 0.44098,-1 0.58246,0 1.05902,0.45 1.05902,1 0,0.55 -0.19844,1 -0.44098,1 -0.24254,0 -0.7191,-0.45 -1.05902,-1 z m 12.30755,-2.13514 c -4.13519,-2.24116 -4.19287,-4.86486 -0.10694,-4.86486 1.61592,0 2.66343,-0.67608 2.99155,-1.9308 0.32326,-1.23616 1.09906,-1.74865 2.15638,-1.4245 1.3236,0.40579 1.29462,0.27766 -0.14598,-0.64543 -1.43512,-0.91958 -2.63926,-0.71297 -5.97355,1.02496 -5.5343,2.88464 -7.58268,3.19167 -9.99954,1.49884 -1.84857,-1.29479 -1.6325,-1.39529 2.61688,-1.2172 2.95577,0.12388 4.80663,-0.26154 5.11491,-1.06515 0.2657,-0.6926 0.83311,-1.20181 1.26091,-1.13157 2.61606,0.42948 4.43432,-0.25895 3.95856,-1.49877 -0.36862,-0.9606 0.1862,-1.34652 1.79705,-1.25 1.28167,0.0768 2.12193,0.47712 1.86724,0.88962 -0.25468,0.4125 -0.039,0.75 0.47933,0.75 0.51831,0 1.1779,0.90062 1.46576,2.00138 0.28785,1.10076 0.18075,1.78963 -0.23801,1.53082 -0.41876,-0.25881 -1.7922,0.6267 -3.0521,1.9678 -1.2599,1.3411 -2.69686,2.18735 -3.19325,1.88057 -0.49639,-0.30679 -1.66847,-0.24462 -2.60464,0.13815 -1.52874,0.62506 -1.4984,0.77408 0.29789,1.46298 1.1,0.42187 2.6975,0.40591 3.55,-0.0355 1.19477,-0.61859 1.55,-0.24603 1.55,1.62563 0,1.33548 -0.0225,2.39802 -0.05,2.36119 -0.0275,-0.0368 -1.7116,-0.96751 -3.74245,-2.06818 z m 18.7467,0.22292 c -0.31008,-0.50171 0.10034,-0.81474 0.91204,-0.69561 2.14123,0.31427 3.15446,1.60783 1.25939,1.60783 -0.8842,0 -1.86135,-0.4105 -2.17143,-0.91222 z m -25.14926,-2.33778 -1.90499,-2.25 2.25,1.90499 c 2.11444,1.79022 2.70524,2.59501 1.90499,2.59501 -0.18976,0 -1.20226,-1.0125 -2.25,-2.25 z m 14.0866,1.23639 c -0.34638,-0.56046 -0.97369,-0.80647 -1.39402,-0.54669 -0.42033,0.25978 -0.76424,-0.15858 -0.76424,-0.92968 0,-1.0827 0.44649,-1.16304 1.96051,-0.35276 1.46547,0.78429 2.17704,0.70753 2.81802,-0.30401 0.47163,-0.74429 0.86441,-0.92575 0.87283,-0.40325 0.008,0.5225 0.52317,0.44214 1.14389,-0.17858 0.83811,-0.83811 0.44814,-1.7592 -1.51515,-3.57872 -3.55227,-3.29213 -2.60163,-5.69775 2.24356,-5.67739 2.70882,0.0114 3.25836,0.26197 2.14301,0.97717 -0.825,0.52903 -2.32886,0.70368 -3.34192,0.38813 -2.60522,-0.81149 -1.80565,2.73747 0.92325,4.09798 1.86863,0.93161 1.94292,1.31195 0.78625,4.02512 -0.70255,1.64796 -1.29767,2.64296 -1.32248,2.21111 -0.0248,-0.43185 -0.91779,-0.31814 -1.98441,0.2527 -1.31346,0.70294 -2.14256,0.70903 -2.5691,0.0189 z m -24.75826,-1.11048 c 0.67834,-0.68342 1.48524,-0.99067 1.79313,-0.68278 0.30789,0.30789 -0.24711,0.86705 -1.23333,1.24258 -1.4252,0.54268 -1.54006,0.42782 -0.5598,-0.5598 z m 3.80938,0.19319 c -0.31644,-0.512 -0.19299,-1.1672 0.27431,-1.45601 0.46731,-0.28881 0.84965,0.13009 0.84965,0.9309 0,1.68617 -0.31534,1.83349 -1.12396,0.52511 z m 29.45729,-0.90243 c 0,-0.45834 0.65521,-0.83334 1.45601,-0.83334 0.80081,0 1.22425,0.375 0.94098,0.83334 -0.28326,0.45833 -0.93847,0.83333 -1.45601,0.83333 -0.51754,0 -0.94098,-0.375 -0.94098,-0.83333 z m -33.72186,-3.41667 c -1.64895,-2.1321 -2.525385,-4.37098 -0.96319,-2.46053 1.26961,1.55265 1.65272,1.60001 2.89487,0.35785 0.78739,-0.78739 2.2998,-1.65295 3.3609,-1.92347 1.73139,-0.4414 1.74372,-0.50375 0.12026,-0.60785 -0.99496,-0.0638 -1.55684,-0.52403 -1.24862,-1.02274 0.30822,-0.49871 -0.34022,-0.67122 -1.44098,-0.38337 -1.39234,0.3641 -2.00138,0.0314 -2.00138,-1.09326 0,-0.88915 0.3375,-1.56334 0.75,-1.49821 1.95628,0.30889 2.38685,-0.24859 1.25,-1.61842 -2.11776,-2.55174 0.68554,-1.72355 3.41926,1.01017 2.92733,2.92733 2.48153,5.19487 -1.30564,6.64114 -2.53221,0.96701 -2.55316,1.04249 -0.67249,2.42339 1.06762,0.78392 1.43168,1.4253 0.80902,1.4253 -0.62267,0 -1.41023,-0.45 -1.75015,-1 -0.33992,-0.55 -1.06803,-1 -1.61803,-1 -0.55,0 -0.72189,0.45 -0.38197,1 0.88541,1.43263 -0.072,1.23673 -1.22186,-0.25 z m 17.22186,-0.75 c -0.33992,-0.55 -0.14148,-1 0.44098,-1 0.58246,0 1.05902,0.45 1.05902,1 0,0.55 -0.19844,1 -0.44098,1 -0.24254,0 -0.7191,-0.45 -1.05902,-1 z m -5.5,-3 c 0,-0.55 0.45,-1 1,-1 0.55,0 1,0.45 1,1 0,0.55 -0.45,1 -1,1 -0.55,0 -1,-0.45 -1,-1 z m -1.79757,-2 c 0.0189,-0.275 -0.0533,-0.725 -0.16052,-1 -1.04832,-2.68893 -0.57393,-3.85631 1.74742,-4.30006 2.87984,-0.55052 5.21067,0.0648 5.21067,1.37566 0,0.4739 -0.59188,0.63451 -1.31528,0.35691 -0.72341,-0.2776 -2.37773,-0.1117 -3.67626,0.36866 -2.35854,0.87248 -2.35873,0.87397 -0.18472,1.44249 1.19694,0.313 2.17626,0.13467 2.17626,-0.3963 0,-0.53097 0.4407,-0.69303 0.97933,-0.36013 0.53864,0.33289 1.88864,0.11862 3,-0.47617 2.25786,-1.20837 2.5834,-0.30908 0.73887,2.04106 -1.09963,1.40105 -8.60446,2.2364 -8.51577,0.94788 z m 36.63657,-4.75 c 0.38823,-1.90086 0.67683,-2.20964 0.93465,-1 0.20515,0.9625 1.1275,1.78163 2.04967,1.82029 1.34997,0.0566 1.28697,0.23774 -0.32332,0.92971 -3.07558,1.32162 -3.26315,1.19827 -2.661,-1.75 z m -20.36414,0.70932 c -0.35375,-0.57237 -1.50128,-0.76832 -2.55007,-0.43545 -2.29061,0.72701 -4.20839,-0.25598 -3.3161,-1.69973 0.42492,-0.68754 0.89364,-0.62939 1.38914,0.17234 0.58352,0.94416 1.2417,0.94569 2.99567,0.007 1.4832,-0.79379 2.01664,-0.82891 1.56816,-0.10325 -0.38322,0.62006 3.4e-4,1.09977 0.87932,1.09977 0.85746,0 1.55902,0.45 1.55902,1 0,1.3133 -1.70531,1.28583 -2.52514,-0.0407 z m 6.02514,-0.17254 c 1.65,-0.58043 3.5728,-1.50855 4.27289,-2.0625 0.94234,-0.74562 1.11914,-0.60649 0.68083,0.53573 -0.58969,1.5367 -3.6001,2.7716 -6.45372,2.64739 -0.825,-0.0359 -0.15,-0.54019 1.5,-1.12062 z m -3.54535,-3.1404 c 0.47089,-0.47146 1.66133,-0.40104 2.659,0.15728 1.55378,0.86954 1.43454,0.98892 -0.8526,0.85363 -1.46781,-0.0868 -2.27705,-0.5397 -1.8064,-1.01091 z m 23.54535,-0.64638 c 0.33992,-0.55 0.81648,-1 1.05902,-1 0.242536,0 0.440976,0.45 0.440976,1 0,0.55 -0.476556,1 -1.059016,1 -0.58246,0 -0.7809,-0.45 -0.44098,-1 z m -42.5,-1.7872 c 0,-0.43295 1.00683,-0.86303 2.23739,-0.95573 1.7584,-0.13246 1.91897,0.0328 0.75,0.77188 -1.82839,1.15602 -2.98739,1.22735 -2.98739,0.18385 z m -4,-1.2128 c -0.90129,-0.58246 -1.02463,-0.97549 -0.30902,-0.98469 0.65504,-0.008 1.4691,0.43469 1.80902,0.98469 0.7673,1.24153 0.42112,1.24153 -1.5,0 z m 20,0 c 0,-0.55 0.45,-1 1,-1 0.55,0 1,0.45 1,1 0,0.55 -0.45,1 -1,1 -0.55,0 -1,-0.45 -1,-1 z m 4.36163,-0.5 c 0.57891,-1.50862 -0.65386,-1.90683 -4.86163,-1.5704 -1.6628,0.13294 -1.7471,-0.0137 -0.5,-0.86954 0.825,-0.56619 1.1993,-1.03633 0.83179,-1.04475 -0.36752,-0.008 -1.45384,-0.31678 -2.41405,-0.68525 -1.25343,-0.48099 -1.52451,-0.31183 -0.96111,0.59977 0.61003,0.98704 0.34188,1.0327 -1.20447,0.20512 -1.09406,-0.58552 -2.27336,-0.78042 -2.62068,-0.4331 -1.21099,1.21099 -0.6217,-1.31238 0.61852,-2.64855 1.00196,-1.07948 0.99704,-1.20363 -0.0248,-0.62567 -0.70112,0.39656 -1.21033,0.35008 -1.13158,-0.1033 0.338,-1.94569 -0.24749,-2.21633 -2.74252,-1.26773 -2.33851,0.8891 -2.49757,0.82479 -1.3575,-0.54891 0.71026,-0.85581 0.99761,-1.8498 0.63855,-2.20886 -0.97597,-0.97596 -3.49022,2.90751 -2.89188,4.46675 0.28479,0.74215 1.05452,1.1434 1.71052,0.89167 0.656,-0.25173 1.72674,0.39741 2.37943,1.44253 0.79466,1.27245 0.83405,1.90022 0.11922,1.90022 -0.58712,0 -0.74641,0.51953 -0.35397,1.15451 0.44563,0.72104 0.27393,0.88282 -0.45729,0.4309 -0.64395,-0.39798 -0.93114,-1.11142 -0.6382,-1.58541 0.88328,-1.42918 -1.36103,-2.17995 -3.24208,-1.08453 -1.63868,0.95427 -1.62791,1.02578 0.15875,1.05412 1.05416,0.0167 1.66976,0.27731 1.368,0.57908 -0.30177,0.30177 -1.83927,0.2237 -3.41667,-0.17347 l -2.868,-0.72214 2.84122,-1.16388 c 2.64905,-1.08517 2.72876,-1.27634 1.17857,-2.82653 -0.91444,-0.91446 -2.18061,-1.66265 -2.8137,-1.66265 -0.6331,0 -0.26345,-0.58293 0.82142,-1.29541 2.98808,-1.96236 7.67361,-3.83899 7.0448,-2.82156 -0.99237,1.60569 4.41117,4.33794 7.19653,3.63886 2.31676,-0.58147 2.43969,-0.47805 1.20301,1.01205 -1.02363,1.2334 -0.36212,1.09352 2.57537,-0.54458 2.17404,-1.21236 3.63056,-1.87119 3.23671,-1.46407 -0.71186,0.73585 2.34944,3.57435 5.21609,4.83647 0.84555,0.37228 0.51876,0.47839 -0.749,0.24321 -1.23696,-0.22947 -2.51452,0.0124 -2.83903,0.53747 -0.35754,0.57851 -1.1555,0.48537 -2.02516,-0.23638 -0.78933,-0.65508 -1.72427,-0.90194 -2.07764,-0.54856 -0.35338,0.35337 -0.0909,0.6425 0.58318,0.6425 0.67413,0 0.94757,0.45 0.60765,1 -0.33992,0.55 0.28056,1 1.37883,1 1.38042,0 1.95036,0.61742 1.84622,2 -0.0829,1.1 -0.55304,2 -1.04484,2 -0.4918,0 -0.63517,-0.675 -0.31858,-1.5 z m -18.86163,-9.5 c 0.33992,-0.55 0.16803,-1 -0.38197,-1 -0.55,0 -1.27811,0.45 -1.61803,1 -0.33992,0.55 -0.16803,1 0.38197,1 0.55,0 1.27811,-0.45 1.61803,-1 z m 23.52896,8.03906 c -0.80907,-0.51167 -1.08496,-1.29228 -0.61309,-1.73469 0.47186,-0.4424 1.05977,-0.23907 1.30644,0.45186 0.24668,0.69093 0.9296,0.9589 1.51761,0.59549 0.6319,-0.39053 0.77731,-0.18861 0.35557,0.49377 -0.84709,1.37062 -0.72044,1.36107 -2.56653,0.19357 z M 27.178551,213.40465 c -0.920528,-1.78922 -0.902779,-2.01002 0.08667,-1.07814 0.684344,0.64452 1.938248,0.90554 2.786452,0.58006 1.095328,-0.42032 1.305007,-0.20803 0.723636,0.73265 -0.544634,0.88124 -0.43221,1.08567 0.335956,0.61092 1.685528,-1.04171 1.411509,-2.38103 -0.595492,-2.91058 -0.9625,-0.25395 -0.562692,-0.41795 0.888462,-0.36444 1.933907,0.0713 2.487449,0.50881 2.072941,1.63841 -1.308662,3.56629 -4.654626,3.98655 -6.298625,0.79112 z m 39.420553,0.79399 c 0,-0.80081 0.38234,-1.21971 0.84965,-0.9309 0.4673,0.28881 0.59075,0.94401 0.27431,1.45601 -0.80862,1.30838 -1.12396,1.16106 -1.12396,-0.52511 z m 3.52745,-0.5334 -2.36078,-1.98942 3.25,1.56266 c 3.22427,1.55028 4.07031,2.41617 2.36078,2.41617 -0.48906,0 -1.95156,-0.89524 -3.25,-1.98941 z m 23.67023,-1.96042 c -0.32287,-0.5224 0.32558,-1.43823 1.44098,-2.03518 1.72856,-0.9251 2.02801,-0.78485 2.02801,0.94983 0,2.06811 -2.39793,2.81836 -3.46899,1.08535 z m -23.62475,-3.80017 c 2.31978,-3.38095 3.7088,-4.29521 2.75691,-1.81461 -0.30295,0.78947 -0.0136,1.65394 0.64301,1.92105 0.6566,0.26712 0.27132,0.52119 -0.85618,0.56461 -1.1275,0.0434 -2.66283,0.64145 -3.41184,1.32895 -0.74901,0.6875 -0.35837,-0.2125 0.8681,-2 z m -41.495567,0.15753 c 0.318935,-2.17305 1.21977,-2.55772 2.467882,-1.05384 0.921317,1.11012 0.764917,1.50628 -0.751195,1.90275 -1.235143,0.323 -1.844463,0.0217 -1.716687,-0.84891 z m 35.721967,0.20905 c -2.17079,-1.20357 -2.21483,-1.37107 -0.53048,-2.01742 1.01027,-0.38767 1.52007,-0.38808 1.13288,-8.9e-4 -0.38718,0.38719 0.0765,1.29666 1.03048,2.02105 2.22061,1.68623 1.41094,1.68488 -1.63288,-0.003 z m -30.63266,-0.61658 c 0.339919,-0.55 1.041476,-1 1.559017,-1 0.517541,0 0.940983,0.45 0.940983,1 0,0.55 -0.701558,1 -1.559017,1 -0.857459,0 -1.280902,-0.45 -0.940983,-1 z m 6,0 c -0.339919,-0.55 0.05697,-1 0.881966,-1 0.825,0 1.778115,0.45 2.118034,1 0.339919,0.55 -0.05697,1 -0.881966,1 -0.825,0 -1.778115,-0.45 -2.118034,-1 z m 62.999996,0 c -0.33992,-0.55 0.11008,-1 1,-1 0.88992,0 1.33992,0.45 1,1 -0.33992,0.55 -0.78992,1 -1,1 -0.21008,0 -0.66008,-0.45 -1,-1 z m -27.989916,-2.01631 c 0.34546,-0.55897 1.04702,-0.75742 1.55902,-0.44098 1.38704,0.85723 1.12841,1.45729 -0.62812,1.45729 -0.85746,0 -1.27636,-0.45734 -0.9309,-1.01631 z m -18.01008,-4.46071 c 2.20289,-1.90041 2.46859,-2.4215 1,-1.96119 -1.46336,0.45867 -1.6349,0.36613 -0.6393,-0.34489 0.74838,-0.53447 2.16775,-0.76072 3.15415,-0.50277 1.24806,0.32638 1.74657,-0.0583 1.6393,-1.26494 -0.0848,-0.95366 0.52085,-1.92912 1.34585,-2.16769 1.1905,-0.34426 1.22478,-0.24043 0.16615,0.50321 -1.08296,0.76073 -1.03594,1.05128 0.25,1.54474 0.87112,0.33428 1.58385,0.12312 1.58385,-0.46924 0,-0.66313 1.05682,-0.83154 2.75,-0.43824 1.85479,0.43084 2.29565,0.33622 1.35428,-0.29067 -0.76764,-0.5112 -1.15373,-1.56004 -0.85798,-2.33076 0.74619,-1.94454 -1.73189,-6.4419 -2.69281,-4.88708 -0.52962,0.85693 -1.09196,0.88454 -2.03725,0.10001 -0.95983,-0.79658 -1.29187,-0.74322 -1.25344,0.20145 0.12619,3.10234 -0.33865,4.78508 -1.32182,4.78508 -0.58246,0 -0.74144,-0.5625 -0.35329,-1.25 0.56457,-1 0.43638,-1 -0.64099,0 -0.74068,0.6875 -2.40826,1.25 -3.70572,1.25 -1.5285,0 -2.10781,0.40645 -1.64549,1.15451 0.44208,0.7153 0.27432,0.88306 -0.44098,0.44098 -1.73515,-1.07238 -1.38822,-2.59345 0.59549,-2.6108 1.30179,-0.0114 1.41773,-0.22609 0.45267,-0.83827 -1.04474,-0.66273 -1.0134,-1.05861 0.16097,-2.03325 0.99126,-0.82268 1.66585,-0.87447 2.10635,-0.16173 0.35642,0.57671 1.63399,1.01303 2.83903,0.96961 1.20504,-0.0434 1.65376,-0.29749 0.99716,-0.56461 -0.65661,-0.26711 -0.95856,-1.09875 -0.67101,-1.84808 0.38028,-0.991 -0.0866,-1.20307 -1.71255,-0.77787 -1.3158,0.34409 -1.99014,0.18777 -1.63924,-0.37998 0.32786,-0.5305 2.31073,-0.86044 4.40637,-0.73321 2.09564,0.12724 4.62431,0.2654 5.61927,0.30702 0.99496,0.0416 1.556,0.48507 1.24675,0.98544 -0.30924,0.50036 -0.28325,1.63685 0.0578,2.52552 0.51254,1.33567 0.89309,1.39465 2.1952,0.34024 1.21771,-0.98605 1.40475,-0.99185 0.8242,-0.0255 -0.41304,0.6875 -0.30097,1.25 0.24903,1.25 0.55,0 1.29279,-0.47375 1.65065,-1.05279 0.35787,-0.57903 1.12846,-0.89352 1.71243,-0.69886 1.22049,0.40683 6.34759,-4.34845 5.97444,-5.54117 -0.13642,-0.43606 0.65838,-0.30772 1.76624,0.28518 1.25765,0.67308 2.01427,0.70833 2.01427,0.0939 0,-0.57684 1.34508,-0.43823 3.25,0.33491 1.7875,0.72549 3.75706,1.13351 4.37679,0.90671 0.61974,-0.2268 1.38408,0.2581 1.69853,1.07755 0.46007,1.19892 -0.1415,1.3986 -3.08008,1.02237 -2.00849,-0.25715 -4.05278,-1.02109 -4.54285,-1.69765 -0.59443,-0.82061 -0.69183,-0.61673 -0.2926,0.61244 0.42158,1.29796 0.009,1.99657 -1.39442,2.36369 -1.09608,0.28663 -1.75057,0.91321 -1.45441,1.3924 0.29615,0.47919 -0.72141,0.62021 -2.26125,0.31338 -1.61383,-0.32157 -4.04006,0.0867 -5.72801,0.96388 -1.61056,0.83697 -3.29806,1.29323 -3.75,1.01391 -0.45193,-0.27931 -0.87795,-0.0313 -0.9467,0.55118 -0.0687,0.58246 -0.20886,1.62152 -0.31135,2.30902 -0.1025,0.6875 0.17161,1.7375 0.60912,2.33333 0.93929,1.27918 -2.14062,1.55931 -3.70681,0.33715 -1.47442,-1.15055 -4.2341,-0.56349 -6.50948,1.38476 -1.07607,0.92135 -1.95648,1.40283 -1.95648,1.06996 0,-0.33287 -1.2375,0.14652 -2.75,1.06531 -2.65009,1.60984 -2.64101,1.57651 0.25,-0.91753 z m 26.64601,-12.34327 c 1.2711,-0.52489 1.37117,-0.93312 0.43936,-1.79225 -0.89643,-0.82651 -1.79801,-0.63369 -3.5068,0.75 -2.03117,1.64474 -2.08255,1.85432 -0.43935,1.79225 1.02343,-0.0386 2.60149,-0.37615 3.50679,-0.75 z m -18.33351,14.13718 c 0.72187,-0.28887 1.58437,-0.25335 1.91667,0.0789 0.33229,0.33229 -0.25834,0.56864 -1.3125,0.52522 -1.16495,-0.048 -1.4019,-0.28494 -0.60417,-0.60416 z m 10,0 c 0.72187,-0.28887 1.58437,-0.25335 1.91667,0.0789 0.33229,0.33229 -0.25834,0.56864 -1.3125,0.52522 -1.16495,-0.048 -1.4019,-0.28494 -0.60417,-0.60416 z m -42.407992,-1.4714 c -0.451387,-0.73036 -0.273284,-0.88242 0.484788,-0.41391 0.659073,0.40733 1.863903,0.18821 2.677401,-0.48693 1.21938,-1.012 1.368489,-0.93932 0.849206,0.41391 -0.728414,1.89821 -2.970936,2.17043 -4.011395,0.48693 z m 16.595492,0.59506 c 0,-1.66846 3.5693,-3.32642 5.08948,-2.36409 1.09488,0.6931 0.95178,0.89634 -0.63948,0.90823 -1.1275,0.008 -2.59,0.55531 -3.25,1.21531 -0.66,0.66 -1.2,0.76825 -1.2,0.24055 z m -10.266667,-1.56464 c 0.678334,-0.68342 1.485241,-0.99067 1.793128,-0.68278 0.307888,0.30789 -0.247112,0.86705 -1.233333,1.24258 -1.425198,0.54268 -1.540062,0.42782 -0.559795,-0.5598 z m 25.831427,0.22887 c -0.3043,-0.49236 0.0819,-1.13895 0.85822,-1.43685 0.77633,-0.29791 1.65962,0.10494 1.96288,0.89521 0.59892,1.56077 -1.89528,2.03965 -2.8211,0.54164 z m -12.75226,-3.78789 c 0.72187,-0.28887 1.58437,-0.25335 1.91667,0.0789 0.33229,0.33229 -0.25834,0.56864 -1.3125,0.52522 -1.16495,-0.048 -1.4019,-0.28494 -0.60417,-0.60416 z m 20.1875,-0.25787 c 0,-0.51754 0.44485,-1.21592 0.98855,-1.55194 0.56686,-0.35034 0.7345,0.0511 0.39301,0.94098 -0.66479,1.73242 -1.38156,2.04939 -1.38156,0.61096 z m 15,-7.11804 c 0,-0.58246 0.45,-0.7809 1,-0.44098 0.55,0.33992 1,0.81648 1,1.05902 0,0.24254 -0.45,0.44098 -1,0.44098 -0.55,0 -1,-0.47656 -1,-1.05902 z M 35.83594,188.0823 c -1.05829,-0.77384 -1.619515,-1.71163 -1.247165,-2.08398 0.372349,-0.37235 0.676999,-0.3219 0.676999,0.11211 0,0.43401 0.615295,0.27846 1.367321,-0.34567 1.03417,-0.85828 1.646307,-0.79862 2.512331,0.24488 1.824284,2.19813 -0.848605,3.8721 -3.309486,2.07266 z m 12.429834,-0.42765 c 0,-0.61492 -0.5625,-0.83311 -1.25,-0.48486 -0.6875,0.34825 -0.39573,-0.0611 0.64838,-0.90973 1.46581,-1.19132 1.63869,-1.85582 0.75868,-2.91616 -0.62684,-0.7553 -0.84361,-1.66936 -0.48172,-2.03126 1.03031,-1.03031 6.32466,-0.77029 6.32466,0.31063 0,0.53273 0.74882,0.68126 1.66404,0.33006 1.12407,-0.43135 1.42782,-0.25633 0.93607,0.53934 -0.70298,1.13744 -4.5116,0.95275 -6.56856,-0.31852 -0.62733,-0.38771 -0.78264,0.47505 -0.41575,2.30951 0.33635,1.68175 0.11709,3.21804 -0.51506,3.60873 -0.60541,0.37416 -1.10074,0.17718 -1.10074,-0.43774 z m 3.68181,-0.38682 c -0.37259,-0.97094 0.0418,-1.23672 1.38176,-0.8863 1.05266,0.27527 1.66744,0.89934 1.36617,1.38681 -0.81352,1.3163 -2.14373,1.07402 -2.74793,-0.50051 z m -10.9996,-1.2643 c -0.792624,-0.79263 2.503374,-3.35222 3.513088,-2.72818 0.394545,0.24384 0.463862,1.10394 0.154039,1.91133 -0.583395,1.5203 -2.530057,1.95392 -3.667127,0.81685 z m 15.31779,-0.82005 c 0,-1.01455 2.92013,-2.46707 3.39972,-1.69108 0.31778,0.51418 -0.31715,1.1689 -1.41097,1.45494 -1.09381,0.28604 -1.98875,0.3923 -1.98875,0.23614 z m 9,-1.42455 c -2.03552,-0.56698 -2.18845,-0.81611 -0.82311,-1.34088 0.94871,-0.36464 2.19604,-0.019 2.87244,0.79604 0.65756,0.79231 1.02796,1.3957 0.82311,1.34088 -0.20484,-0.0548 -1.49744,-0.41304 -2.87244,-0.79604 z m 11,-0.10428 c 0,-0.55 0.47656,-1 1.05902,-1 0.58246,0 0.7809,0.45 0.44098,1 -0.33992,0.55 -0.81648,1 -1.05902,1 -0.24254,0 -0.44098,-0.45 -0.44098,-1 z m -15.45729,-0.9309 c -0.31644,-0.512 -0.11799,-1.21356 0.44098,-1.55902 0.55897,-0.34546 1.01631,0.0734 1.01631,0.9309 0,1.75653 -0.60006,2.01516 -1.45729,0.62812 z m 7.47487,-1.41888 c -1.25438,-2.0145 -1.22437,-2.05554 0.47546,-0.65022 0.99789,0.825 2.08269,1.425 2.41065,1.33333 1.26606,-0.35386 1.11128,0.44695 -0.18233,0.94335 -0.75069,0.28807 -1.96739,-0.44384 -2.70378,-1.62646 z m 13.21742,1.25682 c -1.47974,-0.51906 -1.42035,-0.73748 0.47662,-1.7527 1.3429,-0.7187 2.39241,-0.79504 2.75972,-0.20072 0.32599,0.52747 1.1783,0.73432 1.89402,0.45967 0.71572,-0.27464 1.30131,0.0825 1.30131,0.79368 0,1.34531 -3.50471,1.72679 -6.43167,0.70007 z m 0.765,83.48597 c 0,-0.21615 -0.675,-0.39301 -1.5,-0.39301 -0.825,0 -1.5,0.43588 -1.5,0.96862 0,0.53273 0.675,0.70959 1.5,0.39301 0.825,-0.31659 1.5,-0.75246 1.5,-0.96862 z m 16.46437,-0.45065 c -0.31253,-0.5057 0.13013,-0.65146 0.98369,-0.32392 0.930126,0.35693 1.558076,0.0518 1.567246,-0.76145 0.0118,-1.04708 0.2367,-1.01442 0.98469,0.14301 1.07229,1.65925 1.07813,1.64961 1.36426,-2.25 0.12725,-1.73415 -0.29396,-2.75 -1.14026,-2.75 -0.75978,0 -1.03247,0.50089 -0.62851,1.15451 0.44208,0.7153 0.27432,0.88306 -0.44098,0.44098 -1.29261,-0.79888 -1.604176,-6.59549 -0.35451,-6.59549 0.44,0 1.34,0.54 2,1.2 0.93333,0.93333 1.2,0.93333 1.2,0 0,-0.66 0.62686,-1.2 1.39301,-1.2 0.76616,0 1.67126,-0.7251 2.01134,-1.61134 0.43103,-1.12324 0.18559,-1.44528 -0.81025,-1.06314 -0.78572,0.30151 -1.6767,-0.0984 -1.97996,-0.88866 -0.30325,-0.79027 -0.11549,-1.43686 0.41724,-1.43686 0.53274,0 0.87302,-0.3375 0.75617,-0.75 -0.11685,-0.4125 0.35126,-1.76675 1.04024,-3.00945 1.11442,-2.01006 0.9999,-2.35712 -1.03755,-3.1443 -2.79254,-1.07891 -7.524076,-5.09625 -6.00227,-5.09625 0.6017,0 1.37665,0.45734 1.72211,1.01631 0.34546,0.55897 1.11655,0.71444 1.71353,0.34549 0.61378,-0.37934 0.80042,-0.20969 0.42952,0.39043 -0.41205,0.66671 0.0882,0.86668 1.34549,0.53788 1.10076,-0.28786 2.00138,-0.96903 2.00138,-1.51373 0,-0.5447 -0.6421,-0.74396 -1.42689,-0.44281 -0.78478,0.30115 -1.94396,-0.0755 -2.57593,-0.83697 -1.32878,-1.60108 -5.042476,-0.35887 -8.497176,2.84226 -1.1,1.01926 -2.9375,2.22034 -4.08333,2.66905 -2.57262,1.00746 -2.7425,3.54194 -0.25,3.72969 1.00833,0.076 1.83333,-0.31049 1.83333,-0.85877 0,-0.54827 -0.45,-0.71875 -1,-0.37883 -0.55,0.33992 -1,0.14148 -1,-0.44098 0,-0.58246 0.6375,-1.05902 1.41667,-1.05902 0.77916,0 1.60943,-0.5625 1.84504,-1.25 0.23561,-0.6875 0.36095,0.8875 0.27854,3.5 -0.12516,3.96743 0.1475,4.75 1.65495,4.75 0.99264,0 1.8048,0.48575 1.8048,1.07946 0,0.67129 -1.09836,0.83821 -2.9048,0.44145 -1.74064,-0.38231 -3.18347,-0.1871 -3.60014,0.48708 -1.01036,1.6348 0.0702,2.32208 4.15685,2.64392 4.53852,0.35742 5.648766,1.25131 1.4043,1.13062 -3.93757,-0.11195 -6.04767,1.66848 -4.10951,3.46747 1.08943,1.01119 1.19364,0.98167 0.5455,-0.15451 -0.53769,-0.94255 -0.4206,-1.16927 0.356,-0.68931 0.87466,0.54057 0.87014,1.24974 -0.0185,2.90451 -1.15247,2.14596 -1.20208,2.12496 -2.50557,-1.06069 -1.54869,-3.78489 -2.40089,-4.19812 -2.0623,-1 0.14387,1.35896 -0.25681,2.151 -1.01179,2 -0.6875,-0.1375 -1.25,0.14893 -1.25,0.6365 0,1.38801 6.32912,2.00459 8,0.77936 0.825,-0.60496 1.19947,-0.73923 0.83215,-0.29838 -0.84933,1.01936 2.24022,4.70583 3.36254,4.01219 0.46086,-0.28482 0.58222,-0.93162 0.26968,-1.43731 z m -1.43541,-3.9033 c -0.80907,-0.51167 -1.2107,-1.19066 -0.8925,-1.50885 0.3182,-0.3182 1.14776,0.10733 1.84348,0.94562 1.4426,1.73822 1.16599,1.90204 -0.95098,0.56323 z m -1.75993,-3.73205 c 0.97297,-0.25354 2.32297,-0.23687 3,0.0371 0.67703,0.27393 -0.11903,0.48137 -1.76903,0.46099 -1.65,-0.0204 -2.20394,-0.2445 -1.23097,-0.49804 z m 7.189846,-6.37354 c -0.36253,-0.58659 -0.44468,-1.281 -0.18255,-1.54313 0.26212,-0.26213 0.74306,0.21781 1.06875,1.06653 0.67618,1.76211 0.0999,2.07206 -0.8862,0.4766 z m -3.458876,-1.7668 c 0,-0.64167 -0.9,-1.16667 -2,-1.16667 -1.1,0 -2,-0.1882 -2,-0.41821 0,-0.23002 -0.30312,-1.20814 -0.67361,-2.17361 -0.52364,-1.36459 -0.29258,-1.60918 1.03786,-1.09865 1.06301,0.40792 1.92626,0.097 2.27839,-0.82065 0.31181,-0.81256 1.01782,-1.19873 1.56891,-0.85814 0.616096,0.38078 0.47947,0.95034 -0.35479,1.47895 -1.06723,0.67623 -0.99591,0.86295 0.33422,0.875 0.930036,0.008 1.934336,-0.37844 2.231766,-0.85969 0.29742,-0.48125 1.72203,-0.875 3.16578,-0.875 1.53689,0 2.13082,0.30542 1.43282,0.7368 -0.65569,0.40525 -1.26624,1.1365 -1.35676,1.625 -0.0905,0.48851 -1.6757,0.78353 -3.5226,0.65559 -2.889886,-0.20018 -3.183686,-0.0226 -2.107496,1.27417 0.68778,0.82872 0.961386,1.7959 0.60801,2.14927 -0.35337,0.35338 -0.6425,0.1175 -0.6425,-0.52416 z m 4.999996,-3.77432 c 0,-0.82763 -1.94173,-1.29565 -2.38691,-0.57533 -0.28881,0.46731 0.13009,0.84965 0.9309,0.84965 0.8008,0 1.45601,-0.12345 1.45601,-0.27432 z m -4.860696,-4.28509 c -0.74838,-0.47417 -2.32338,-0.62584 -3.5,-0.33704 -1.17661,0.28879 -1.81654,0.17337 -1.42205,-0.25649 1.30261,-1.41942 5.626986,-1.36202 6.181126,0.082 0.62631,1.63215 0.55525,1.66102 -1.259076,0.51149 z m -15.6393,21.89274 c -0.33992,-0.55 -0.11492,-1 0.5,-1 0.61492,0 0.81023,-0.49804 0.43402,-1.10676 -0.47683,-0.77153 -0.94441,-0.69581 -1.54371,0.25 -1.16458,1.83795 -1.10441,2.85676 0.16871,2.85676 0.58246,0 0.7809,-0.45 0.44098,-1 z m 35.575796,0.19193 c -0.59854,-0.19951 -0.90533,-0.66182 -0.68174,-1.02734 0.22358,-0.36552 -1.3354,-0.68605 -3.46441,-0.71229 -2.12901,-0.0262 -4.06203,0.4503 -4.2956,1.05896 -0.27626,0.71992 1.31473,1.09561 4.55267,1.07504 2.73754,-0.0174 4.48762,-0.19485 3.88908,-0.39437 z m -72.075796,-2.19193 c 0,-0.55 -0.19844,-1 -0.44098,-1 -0.24254,0 -0.7191,0.45 -1.05902,1 -0.33992,0.55 -0.14148,1 0.44098,1 0.58246,0 1.05902,-0.45 1.05902,-1 z m 63.457286,-1.9309 c 0.31644,-0.512 0.19299,-1.1672 -0.27431,-1.45601 -0.46731,-0.28881 -0.84965,0.13009 -0.84965,0.9309 0,1.68617 0.31534,1.83349 1.12396,0.52511 z m -32.597826,-2.04107 c 1.08502,-0.58267 1.02407,-0.85875 -0.30194,-1.36758 -0.97623,-0.37462 -1.40944,-0.22986 -1.05044,0.351 0.33602,0.5437 -0.0531,0.98855 -0.86473,0.98855 -0.81163,0 -1.62568,-0.43558 -1.80902,-0.96795 -0.19424,-0.56405 -0.9084,-0.6107 -1.71145,-0.11181 -0.75796,0.47089 -1.05759,1.37477 -0.66584,2.00863 0.68184,1.10323 3.37778,0.72396 6.40342,-0.90084 z m 9.14054,0.97197 c 0,-0.55 -0.19844,-1 -0.44098,-1 -0.24254,0 -0.7191,0.45 -1.05902,1 -0.33992,0.55 -0.14148,1 0.44098,1 0.58246,0 1.05902,-0.45 1.05902,-1 z m 34.999996,-0.48199 c 0,-0.1474 -1.17304,-0.26801 -2.60676,-0.26801 -1.66677,0 -2.15022,0.28216 -1.34069,0.78248 1.0816,0.66846 3.94745,0.29496 3.94745,-0.51447 z m -15.75,-0.18029 c -0.6875,-0.27741 -1.8125,-0.27741 -2.5,0 -0.6875,0.27741 -0.125,0.50439 1.25,0.50439 1.375,0 1.9375,-0.22698 1.25,-0.50439 z m 21.47917,0.0581 c -0.3323,-0.33229 -1.1948,-0.36781 -1.91667,-0.0789 -0.79773,0.31922 -0.56078,0.55618 0.60417,0.60416 1.05416,0.0434 1.64479,-0.19293 1.3125,-0.52522 z m 4.27083,-1.39582 c 0,-0.55 -0.47656,-1 -1.05902,-1 -0.58246,0 -0.7809,0.45 -0.44098,1 0.33992,0.55 0.81648,1 1.05902,1 0.24254,0 0.44098,-0.45 0.44098,-1 z m -20.83453,-1.87658 c -1.03661,-0.65709 -0.92498,-0.94429 0.5,-1.28646 2.57145,-0.61746 5.47126,0.13279 4.78776,1.23872 -0.3142,0.50838 -0.0947,0.92432 0.48775,0.92432 0.58246,0 1.05902,-0.42011 1.05902,-0.93358 0,-0.51347 1.05478,-1.07597 2.34397,-1.25 2.30088,-0.3106 2.30938,-0.35253 0.46247,-2.28091 -1.86875,-1.95119 -1.88521,-1.95028 -2.43022,0.13382 -0.39497,1.51036 -1.10865,1.9519 -2.54701,1.57576 -1.53056,-0.40025 -1.68592,-0.72057 -0.66374,-1.36851 1.02254,-0.64819 0.92541,-0.84953 -0.41547,-0.86127 -0.9625,-0.008 -1.75,0.43469 -1.75,0.98469 0,0.55 -0.70156,1 -1.55902,1 -0.85746,0 -1.2809,-0.45 -0.94098,-1 0.33992,-0.55 0.0933,-1 -0.54797,-1 -0.6413,0 -0.90699,0.675 -0.5904,1.5 0.31658,0.825 0.0272,1.50689 -0.64301,1.51531 -0.77072,0.01 -0.6673,0.37161 0.28138,0.98469 0.825,0.53316 1.95,0.96937 2.5,0.96937 0.55,0 0.39946,-0.38067 -0.33453,-0.84595 z m 16.19616,-0.62342 c 0.3471,-0.90455 0.005,-1.5 -0.86163,-1.5 -0.8667,0 -1.20873,0.59545 -0.86163,1.5 0.31659,0.825 0.70432,1.5 0.86163,1.5 0.15731,0 0.54504,-0.675 0.86163,-1.5 z m -34.361626,-5.62244 c 0,-0.48266 -0.86018,-0.87756 -1.91152,-0.87756 -1.74768,0 -1.87415,0.42038 -1.16499,3.87244 0.14827,0.72177 3.07651,-2.12878 3.07651,-2.99488 z m 35.642856,1.62244 c 1.87649,-1.87649 0.63972,-1.87649 -2.64286,0 -2.0063,1.14691 -2.14031,1.43613 -0.67857,1.46456 1.00178,0.0195 2.49643,-0.63956 3.32143,-1.46456 z m -18.2753,-1.28571 c 0.26708,-0.43215 -0.34832,-0.78572 -1.36756,-0.78572 -1.01924,0 -1.63464,0.35357 -1.36756,0.78572 0.26707,0.43214 0.88248,0.78571 1.36756,0.78571 0.48508,0 1.10049,-0.35357 1.36756,-0.78571 z m 6.63244,-0.65527 c 0,-0.24254 -0.45,-0.7191 -1,-1.05902 -0.55,-0.33992 -1,-0.14148 -1,0.44098 0,0.58246 0.45,1.05902 1,1.05902 0.55,0 1,-0.19844 1,-0.44098 z m -78.542701,-2.48992 c 0.316431,-0.512 0.192988,-1.1672 -0.274316,-1.45601 -0.467305,-0.28881 -0.849646,0.13009 -0.849646,0.9309 0,1.68617 0.315337,1.83349 1.123962,0.52511 z m 73.209371,-0.5691 c 0,-0.825 -0.375,-1.5 -0.83334,-1.5 -0.45833,0 -0.83333,0.675 -0.83333,1.5 0,0.825 0.375,1.5 0.83333,1.5 0.45834,0 0.83334,-0.675 0.83334,-1.5 z m 17.33333,0 c 0,-0.825 -0.7875,-1.46447 -1.75,-1.42105 -1.05575,0.0476 -1.25163,0.27987 -0.49377,0.58541 0.69093,0.27855 1.00187,0.91803 0.69098,1.42105 -0.31088,0.50302 -0.0887,0.91459 0.49377,0.91459 0.58246,0 1.05902,-0.675 1.05902,-1.5 z m 3.39497,-1.66994 c -0.48618,-0.78665 -0.1779,-0.96074 0.94099,-0.53138 0.91522,0.3512 1.66404,0.25516 1.66404,-0.21343 0,-0.46859 -1.0125,-1.15976 -2.25,-1.53592 -1.37341,-0.41748 -1.76058,-0.88579 -0.99377,-1.20204 0.69093,-0.28496 1.00187,-0.92968 0.69098,-1.4327 -0.31088,-0.50302 0.0238,-0.92827 0.74377,-0.945 0.77425,-0.018 0.56345,-0.46396 -0.51598,-1.09166 -1.00375,-0.58369 -2.09125,-0.79501 -2.41667,-0.46959 -0.32541,0.32541 -0.0401,0.59166 0.63402,0.59166 0.67413,0 0.94682,0.45122 0.60598,1.0027 -0.81942,1.32585 -4.56592,-0.63931 -4.23838,-2.22317 0.13203,-0.63841 -0.65995,-1.35203 -1.75995,-1.58582 -1.1,-0.23379 -2.23688,-0.79926 -2.52639,-1.25661 -0.28952,-0.45734 -1.18952,-0.41217 -2,0.10037 -1.22724,0.7761 -1.17117,0.93446 0.33541,0.94722 0.99496,0.008 1.57157,0.39951 1.28135,0.86908 -0.29021,0.46958 0.58323,1.35993 1.94099,1.97856 1.43975,0.656 2.46864,1.9673 2.46864,3.14623 0,1.38899 0.65922,2.02144 2.10699,2.02144 1.46204,0 1.93079,0.45915 1.53138,1.5 -0.35684,0.92992 0.005,1.5 0.95203,1.5 0.91171,0 1.2361,-0.47171 0.80457,-1.16994 z m -3.89497,-3.83006 c -0.33992,-0.55 -0.14148,-1 0.44098,-1 0.58246,0 1.05902,0.45 1.05902,1 0,0.55 -0.19844,1 -0.44098,1 -0.24254,0 -0.7191,-0.45 -1.05902,-1 z m 26.99292,4.01145 c 0.35034,-0.56686 -0.0511,-0.7345 -0.94098,-0.39301 -1.73242,0.66479 -2.04939,1.38156 -0.61096,1.38156 0.51754,0 1.21592,-0.44485 1.55194,-0.98855 z m -12.24292,-1.67373 c -0.6875,-0.27741 -1.8125,-0.27741 -2.5,0 -0.6875,0.27741 -0.125,0.50439 1.25,0.50439 1.375,0 1.9375,-0.22698 1.25,-0.50439 z m -18.25,-0.7787 c 0,-0.24254 -0.45,-0.7191 -1,-1.05902 -0.55,-0.33992 -1,-0.14148 -1,0.44098 0,0.58246 0.45,1.05902 1,1.05902 0.55,0 1,-0.19844 1,-0.44098 z m 31.42974,-2.67271 c -0.81352,-1.3163 -2.14373,-1.07402 -2.74793,0.50051 -0.37259,0.97094 0.0418,1.23672 1.38176,0.8863 1.05266,-0.27527 1.66744,-0.89934 1.36617,-1.38681 z m -123.429736,-0.4933 c 0,-0.21615 -0.926558,-0.39301 -2.059017,-0.39301 -1.132459,0 -1.793048,0.43035 -1.467975,0.95633 0.533614,0.8634 3.526992,0.38531 3.526992,-0.56332 z m 55,-0.39301 c 0,-0.55 -0.47656,-1 -1.05902,-1 -0.58246,0 -0.7809,0.45 -0.44098,1 0.33992,0.55 0.81648,1 1.05902,1 0.24254,0 0.44098,-0.45 0.44098,-1 z m 29.457286,0.0691 c 0.31644,-0.512 0.19299,-1.1672 -0.27431,-1.45601 -0.46731,-0.28881 -0.84965,0.13009 -0.84965,0.9309 0,1.68617 0.31534,1.83349 1.12396,0.52511 z m 8.54271,0.53789 c 0,-0.21616 -0.69837,-0.661 -1.55194,-0.98855 -0.88992,-0.34149 -1.29132,-0.17385 -0.94098,0.39301 0.58726,0.95021 2.49292,1.40545 2.49292,0.59554 z m -85.999996,-1.60699 c -1.281897,-0.82843 -1.245547,-0.9716 0.25,-0.98469 0.9625,-0.008 1.75,-0.76005 1.75,-1.6703 0,-1.4949 -0.191176,-1.48197 -1.976419,0.13365 -2.010597,1.81956 -1.87104,3.53375 0.285436,3.50603 0.715616,-0.009 0.592275,-0.40223 -0.309017,-0.98469 z m 106.999996,-4.16628 c 0,-1.2361 -0.58716,-1.81659 -1.64626,-1.62756 -0.90544,0.16161 -1.83113,-0.23325 -2.0571,-0.87747 -0.59417,-1.69395 3.92223,-0.36058 5.36468,1.58381 0.63873,0.861 0.94968,1.90791 0.69099,2.32647 -0.25869,0.41857 0.79371,0.70883 2.33867,0.64503 1.71394,-0.0708 2.12202,-0.29521 1.04678,-0.57568 -0.96924,-0.25283 -1.51733,-0.85597 -1.21798,-1.34033 0.29935,-0.48435 1.31736,-0.63285 2.26225,-0.32998 1.41011,0.45198 1.45773,0.36638 0.26572,-0.47769 -0.79874,-0.5656 -1.81124,-0.80649 -2.25,-0.53532 -1.69153,1.04542 -2.90755,-0.7874 -1.59631,-2.40599 0.71421,-0.88161 0.79414,-1.30089 0.17764,-0.93173 -0.61651,0.36917 -2.14787,-0.21945 -3.40301,-1.30804 -1.25515,-1.08858 -2.86168,-1.97924 -3.57006,-1.97924 -0.70839,0 -1.56291,-0.44485 -1.89893,-0.98855 -0.3629,-0.58718 0.0857,-0.72119 1.10503,-0.33006 1.15376,0.44274 1.48217,0.28018 1.00238,-0.49615 -0.83612,-1.35286 -4.74448,-1.33211 -9.45655,0.0502 -2.32645,0.68248 -3.67876,0.64373 -4.45,-0.12751 -0.81059,-0.81058 -0.26494,-1.10793 2.03304,-1.10793 1.72754,0 3.42364,-0.45734 3.7691,-1.01631 0.34546,-0.55897 1.11655,-0.71444 1.71353,-0.34549 0.68534,0.42356 0.81683,0.15313 0.35674,-0.73369 -0.40077,-0.77248 -0.0974,-0.63638 0.67426,0.30244 1.2963,1.57722 1.52669,1.58317 3.03159,0.0783 1.91639,-1.91639 6.38563,-2.38326 9.2138,-0.96251 1.7477,0.87797 1.83619,0.80607 0.70144,-0.56997 -0.87263,-1.0582 -0.95463,-1.78725 -0.25,-2.22274 0.57671,-0.35642 1.04856,-0.17149 1.04856,0.41097 0,0.58246 0.5051,1.05902 1.12244,1.05902 0.82562,0 0.82792,-0.35489 0.009,-1.34201 -0.61257,-0.7381 -0.78017,-1.71625 -0.37244,-2.17366 0.40772,-0.4574 -0.94283,0.18113 -3.00123,1.41897 -3.53761,2.12737 -3.91566,2.16426 -6.90364,0.67366 -3.95569,-1.97336 -4.81393,-2.01403 -2.29494,-0.10876 1.88034,1.42221 1.88195,1.46919 0.0514,1.5 -1.03936,0.0175 -2.48475,-0.7557 -3.21196,-1.7182 -1.21329,-1.60585 -1.28921,-1.5664 -0.92171,0.47897 0.22027,1.22594 -0.0218,2.48999 -0.53804,2.80902 -0.51654,0.319 -0.93888,0.0769 -0.93888,-0.53801 0,-0.61492 -0.45734,-0.83538 -1.01631,-0.48992 -0.55897,0.34546 -0.79651,0.98377 -0.52786,1.41845 0.26865,0.43468 -0.51151,0.68946 -1.73369,0.56618 -1.22218,-0.12329 -3.11682,0.64198 -4.21032,1.70058 -1.88277,1.8227 -1.88733,1.88604 -0.0859,1.19478 1.18134,-0.45332 1.66724,-0.34974 1.28216,0.27332 -0.34103,0.5518 -0.0773,1.05039 0.58596,1.10797 5.47834,0.47558 7.09515,1.2851 4.95601,2.48141 -0.4125,0.23069 -0.1875,0.28232 0.5,0.11472 0.6875,-0.1676 1.25,0.13116 1.25,0.66389 0,0.53274 0.375,0.96862 0.83333,0.96862 0.45834,0 0.83334,-0.65521 0.83334,-1.45601 0,-0.80081 -0.375,-1.22425 -0.83334,-0.94098 -0.45838,0.28326 -0.83338,0.0385 -0.83338,-0.54399 0,-1.60771 1.5199,-1.2744 4.13922,0.90771 1.29843,1.0817 1.79828,1.9817 1.11078,2 -2.21714,0.059 -1.33198,1.50876 1.75567,2.87548 1.65311,0.73174 2.74702,1.74893 2.4309,2.26043 -0.31612,0.51149 -0.99367,0.67109 -1.50567,0.35465 -1.05619,-0.65276 -1.27766,0.86262 -0.27291,1.86737 1.03743,1.03743 3.34201,-1.36984 3.34201,-3.49094 z m 2.72917,3.56211 c -0.3323,-0.33229 -1.1948,-0.36781 -1.91667,-0.0789 -0.79773,0.31922 -0.56078,0.55618 0.60417,0.60416 1.05416,0.0434 1.64479,-0.19293 1.3125,-0.52522 z m 12.27083,-0.39583 c 0,-0.55 -0.19844,-1 -0.44098,-1 -0.24254,0 -0.7191,0.45 -1.05902,1 -0.33992,0.55 -0.14148,1 0.44098,1 0.58246,0 1.05902,-0.45 1.05902,-1 z M 26.928354,233.14987 c -1.481067,-1.08298 -1.422934,-1.30441 0.598509,-2.27967 2.232511,-1.0771 2.232785,-1.08038 0.0959,-1.14787 -1.178656,-0.0372 -2.411312,0.6315 -2.739234,1.48605 -0.675433,1.76015 1.409867,4.52333 2.783735,3.68867 0.49582,-0.30123 0.16331,-1.08746 -0.73891,-1.74718 z m 6.33742,2.11177 c 0,-0.21616 -0.698372,-0.661 -1.551938,-0.98855 -0.889925,-0.34149 -1.291322,-0.17385 -0.940983,0.39301 0.587258,0.95021 2.492921,1.40545 2.492921,0.59554 z m 86.499996,-0.60699 c -0.33992,-0.55 -1.06803,-1 -1.61803,-1 -0.55,0 -0.72189,0.45 -0.38197,1 0.33992,0.55 1.06803,1 1.61803,1 0.55,0 0.72189,-0.45 0.38197,-1 z m 21.5,-0.0597 c 0,-0.39949 -0.6,-0.95658 -1.33333,-1.23799 -0.73334,-0.28141 -1.33334,0.0455 -1.33334,0.72634 0,0.6809 0.6,1.238 1.33334,1.238 0.73333,0 1.33333,-0.32686 1.33333,-0.72635 z m -10,-0.33333 c 0,-0.21616 -0.69837,-0.661 -1.55194,-0.98855 -0.88992,-0.34149 -1.29132,-0.17385 -0.94098,0.39301 0.58726,0.95021 2.49292,1.40545 2.49292,0.59554 z m 31,-1.60697 c 0,-0.55 -0.19844,-1 -0.44098,-1 -0.24254,0 -0.7191,0.45 -1.05902,1 -0.33992,0.55 -0.14148,1 0.44098,1 0.58246,0 1.05902,-0.45 1.05902,-1 z m -50.55802,-1.90612 c 0.30801,-0.49837 1.43153,-0.67821 2.49672,-0.39966 2.28416,0.59732 6.7575,-2.14591 5.13474,-3.14883 -1.37826,-0.85181 -3.28616,0.30141 -2.52804,1.52807 0.33895,0.54843 -0.84421,0.70924 -2.86054,0.38879 -2.53688,-0.40317 -3.59374,-0.14209 -4.03033,0.99564 -0.62934,1.64005 0.84311,2.16396 1.78745,0.63599 z m 21.28719,0.30195 c -0.3323,-0.33229 -1.1948,-0.36781 -1.91667,-0.0789 -0.79773,0.31922 -0.56078,0.55618 0.60417,0.60416 1.05416,0.0434 1.64479,-0.19293 1.3125,-0.52522 z m -10.9223,-2.92229 c -0.30789,-0.30789 -0.86705,0.24711 -1.24258,1.23333 -0.54268,1.4252 -0.42782,1.54006 0.5598,0.5598 0.68342,-0.67834 0.99067,-1.48524 0.68278,-1.79313 z m 37.69313,1.52646 c -1.18121,-0.50758 -1.42002,-0.8882 -0.58333,-0.92971 0.77916,-0.0387 1.1466,-0.34035 0.81653,-0.67043 -0.89821,-0.89821 -2.85547,0.59329 -2.19049,1.66924 0.31643,0.51199 1.33627,0.89927 2.26631,0.86061 1.37849,-0.0573 1.32139,-0.2291 -0.30902,-0.92971 z m -26.5,-0.39301 c 0,-0.21616 -0.69837,-0.661 -1.55194,-0.98855 -0.88992,-0.34149 -1.29132,-0.17385 -0.94098,0.39301 0.58726,0.95021 2.49292,1.40545 2.49292,0.59554 z m -96.303573,-2.22839 c 1.464888,-0.26563 2.990219,-0.68493 3.389624,-0.93178 0.995095,-0.615 -0.09211,-4.44682 -1.261695,-4.44682 -0.518312,0 -0.682285,0.42085 -0.364385,0.93523 0.317901,0.51437 -0.893041,1.07687 -2.690983,1.25 -2.609795,0.2513 -3.200646,0.70722 -2.930087,2.26099 0.291514,1.67411 0.11674,1.76185 -1.25,0.62756 -0.919778,-0.76335 -1.588897,-0.88108 -1.588897,-0.27956 0,1.18236 2.114402,2.15435 3.266496,1.50162 0.421573,-0.23884 1.96504,-0.6516 3.429927,-0.91724 z m -2.196423,-1.3786 c -1.630408,-0.70061 -1.687513,-0.87242 -0.309017,-0.92971 0.930041,-0.0387 1.969098,0.37971 2.309017,0.92971 0.710664,1.14988 0.675913,1.14988 -2,0 z m 88.999996,0 c 0.33992,-0.55 0.16803,-1 -0.38197,-1 -0.55,0 -1.27811,0.45 -1.61803,1 -0.33992,0.55 -0.16803,1 0.38197,1 0.55,0 1.27811,-0.45 1.61803,-1 z m 35.5,-0.0665 c 0,-0.63112 -0.63201,-0.90497 -1.40447,-0.60855 -1.01,0.38757 -1.32806,-0.15717 -1.13242,-1.93944 l 0.27206,-2.47839 -1.90654,2.04643 c -2.1114,2.26632 -3.38899,2.5668 -4.34394,1.02165 -0.34834,-0.56362 -0.2624,-0.96033 0.19098,-0.88158 2.59053,0.45002 3.52372,-0.34056 1.40268,-1.1883 -1.64331,-0.6568 -2.63592,-0.62121 -3.08828,0.11072 -0.44387,0.7182 -1.0957,0.56159 -1.95079,-0.46873 -1.45661,-1.75509 -3.03928,-2.04011 -3.03928,-0.54731 0,0.55 0.3375,0.94671 0.75,0.88158 1.88255,-0.29725 2.40803,0.22308 1.42342,1.40946 -0.81416,0.98101 -0.56763,1.32898 1.02664,1.44908 1.15396,0.0869 2.48316,0.5431 2.95379,1.01373 1.34917,1.34917 8.84615,1.50143 8.84615,0.17967 z m -129.499996,-0.9335 c 0.339919,-0.55 0.141476,-1 -0.440983,-1 -0.582459,0 -1.059017,0.45 -1.059017,1 0,0.55 0.198442,1 0.440983,1 0.242541,0 0.719098,-0.45 1.059017,-1 z m 90.999996,0 c 0.33992,-0.55 0.14148,-1 -0.44098,-1 -0.58246,0 -1.05902,0.45 -1.05902,1 0,0.55 0.19844,1 0.44098,1 0.24254,0 0.7191,-0.45 1.05902,-1 z m -88.499996,-4 c 0,-0.55 -0.45,-1 -1,-1 -0.55,0 -1,0.45 -1,1 0,0.55 0.45,1 1,1 0.55,0 1,-0.45 1,-1 z M 113.017,217.90097 c 0.38876,-1.16628 -2.99693,-0.99839 -6.16527,0.30572 -1.45025,0.59693 -1.7157,0.46691 -1.0955,-0.53661 0.54464,-0.88124 0.43221,-1.08567 -0.33595,-0.61092 -0.63498,0.39244 -1.15451,0.21041 -1.15451,-0.40451 0,-0.61492 -0.45345,-0.83779 -1.00767,-0.49526 -0.61771,0.38177 -0.38269,1.24775 0.6073,2.23775 1.3116,1.31159 2.1584,1.40986 4.50768,0.52311 3.28074,-1.23834 3.71398,-0.67584 1.14269,1.48365 -1.54469,1.2973 -1.46313,1.30019 0.69519,0.0247 1.34486,-0.79479 2.60758,-1.93221 2.80604,-2.52759 z m 16.24877,1.71859 c 0.275,-0.11096 0.7625,-0.17346 1.08333,-0.13889 0.32084,0.0346 0.58334,-0.58713 0.58334,-1.38158 0,-0.79444 -0.6,-1.44444 -1.33334,-1.44444 -0.73333,0 -1.33333,0.50625 -1.33333,1.125 0,0.72643 -1.10605,0.90379 -3.12194,0.50061 -2.5294,-0.50588 -2.9119,-0.37131 -2.01531,0.70901 0.92112,1.10989 4.13158,1.4396 6.13725,0.63029 z m -29,-1.40589 c 0,-1.05548 -1.919106,-1.49891 -2.489916,-0.57533 -0.34546,0.55897 0.0734,1.01631 0.9309,1.01631 0.85746,0 1.559016,-0.19844 1.559016,-0.44098 z m -16.333326,-3.05902 c 0,-1.90431 -1.73262,-1.91735 -4.22554,-0.0318 -1.84303,1.39399 -1.7853,1.4698 1.1422,1.5 2.08821,0.0215 3.08334,-0.45231 3.08334,-1.4682 z m 40.333326,1.05902 c 0,-0.24254 -0.45,-0.7191 -1,-1.05902 -0.55,-0.33992 -1,-0.14148 -1,0.44098 0,0.58246 0.45,1.05902 1,1.05902 0.55,0 1,-0.19844 1,-0.44098 z m 10.3674,-2.04398 c -0.43679,-1.13825 -0.9247,-1.18395 -2.4526,-0.22976 -1.77547,1.1088 -1.78661,1.23518 -0.16108,1.82781 2.26079,0.82422 3.29949,0.18914 2.61368,-1.59805 z m -25.8674,0.48496 c 0.33992,-0.55 -0.33508,-1 -1.5,-1 -1.16492,0 -1.83992,0.45 -1.5,1 0.33992,0.55 1.01492,1 1.5,1 0.48508,0 1.16008,-0.45 1.5,-1 z m 41.7313,-0.79841 c 1.08874,-1.32878 0.95949,-1.46878 -0.91123,-0.98695 -1.87774,0.48364 -2.16855,0.16111 -2.09782,-2.32658 0.0488,-1.71496 0.62958,-2.88806 1.42993,-2.88806 1.69759,0 1.77429,2.64785 0.0978,3.37698 -0.6875,0.29901 0.1,0.27841 1.75,-0.0458 1.65,-0.32419 3.45,-1.04255 4,-1.59636 0.66994,-0.67459 0.27868,-0.83348 -1.18542,-0.4814 -1.30427,0.31364 -2.3903,-0.008 -2.69356,-0.79868 -0.28287,-0.73715 -1.88977,-1.28493 -3.62461,-1.2356 -2.06181,0.0586 -2.67313,0.36976 -1.80643,0.9194 1.07873,0.68412 1.07891,0.83351 0.001,0.84612 -0.71996,0.008 -1.0331,0.46175 -0.69587,1.00739 0.33722,0.54564 0.15246,1.78314 -0.41058,2.75 -0.62884,1.07985 -1.03544,1.253 -1.05412,0.4489 -0.017,-0.72982 -0.53991,-0.99413 -1.1819,-0.59735 -0.80993,0.50056 -0.65563,1.07424 0.52018,1.93401 2.31853,1.69535 6.3431,1.52846 7.86261,-0.32605 z m -20.80441,-1.23807 c -1.05979,-0.37771 -2.56899,-0.44533 -3.35378,-0.15027 -1.08845,0.40924 -0.96986,0.69937 0.5,1.22323 1.05979,0.37771 2.56899,0.44533 3.35378,0.15027 1.08845,-0.40924 0.96986,-0.69937 -0.5,-1.22323 z m -12.8741,0.12189 c -0.31089,-0.50302 5e-5,-1.1425 0.69098,-1.42105 0.73618,-0.2968 0.50734,-0.53915 -0.55279,-0.58541 -0.99496,-0.0434 -1.51872,-0.54866 -1.16391,-1.12275 0.92518,-1.49698 -1.41952,-3.9562 -3.77196,-3.9562 -1.66439,0 -1.7911,0.2517 -0.75511,1.5 1.00324,1.20883 0.97848,1.51532 -0.12756,1.57895 -0.97976,0.0564 -1.02195,0.22087 -0.14744,0.575 0.67375,0.27283 1.57375,0.52279 2,0.55547 0.42625,0.0327 1.36302,0.89893 2.0817,1.925 1.30354,1.86105 2.81848,2.68615 1.74609,0.95099 z m 25.7356,-1.80498 c 1.76661,0.67791 1.57172,-2.85602 -0.25071,-4.54604 -0.91758,-0.85092 -1.12567,-0.86844 -0.66986,-0.0564 0.89373,1.59223 -3.10941,2.78135 -4.75782,1.41329 -0.71171,-0.59066 -1.59011,-0.77784 -1.95201,-0.41595 -0.36189,0.3619 -0.65799,0.39095 -0.65799,0.0646 0,-1.41894 5.66757,-3.28662 8,-2.6363 3.81021,1.06233 6.18849,1.01038 5.48992,-0.11992 -0.34546,-0.55897 -1.00764,-0.78176 -1.4715,-0.49507 -0.46387,0.28668 -0.71965,-0.60598 -0.56842,-1.98369 0.15124,-1.37771 -6.5e-4,-2.54193 -0.33751,-2.58716 -0.33687,-0.0452 -1.84999,-0.28562 -3.36249,-0.53421 -1.66038,-0.27289 -2.75,0.001 -2.75,0.69164 0,0.71815 -1.30212,0.9916 -3.5,0.73501 -1.925,-0.22474 -3.5,-0.049 -3.5,0.39059 0,0.43956 0.85186,0.7992 1.89301,0.7992 1.04116,0 2.12093,0.59395 2.3995,1.31989 0.41421,1.07941 -0.33972,1.10503 -4.13796,0.14062 -2.55445,-0.6486 -6.33423,-1.06463 -8.3995,-0.92451 -2.06528,0.1401 -3.75505,-0.14817 -3.75505,-0.64064 0,-0.49246 -0.45,-0.89538 -1,-0.89538 -0.55,0 -1,0.6 -1,1.33333 0,0.73334 -0.69436,1.33334 -1.54303,1.33334 -0.94902,0 -1.32517,-0.56775 -0.97711,-1.47478 0.46482,-1.2113 0.29613,-1.25087 -0.94423,-0.22146 -0.83059,0.68933 -2.19089,0.9921 -3.0229,0.67283 -0.832,-0.31927 -1.51273,-0.14461 -1.51273,0.38812 0,0.53274 0.45,0.96862 1,0.96862 2.09353,0 2.54984,0.18762 4.29303,1.76519 1.64626,1.48984 1.74225,1.49032 1.17261,0.006 -0.66341,-1.72881 0.95533,-1.88812 3.43887,-0.33843 0.9618,0.60014 1.1796,0.51248 0.69098,-0.27812 -0.49458,-0.80025 0.53198,-1.15451 3.34549,-1.15451 2.23246,0 4.05902,0.40787 4.05902,0.90638 0,0.49851 -1.0125,0.65707 -2.25,0.35235 -1.30527,-0.3214 -1.9001,-0.17712 -1.41667,0.34362 0.45834,0.49371 1.32084,0.89765 1.91667,0.89765 0.59583,0 1.27094,0.56281 1.50023,1.25068 0.27741,0.83224 -0.19656,1.03816 -1.41667,0.61547 -1.61388,-0.55911 -1.59394,-0.44319 0.16644,0.96751 2.17883,1.74604 3.94477,2.19501 3.07067,0.78069 -0.93074,-1.50598 4.44948,-1.95134 5.91148,-0.48934 0.75309,0.75308 2.19018,1.1088 3.19355,0.79048 1.72759,-0.54808 1.73153,-0.50233 0.0743,0.86312 -0.9625,0.79303 -1.75,1.79951 -1.75,2.23662 0,0.43711 0.88324,-0.005 1.96275,-0.98152 1.07952,-0.97695 2.57606,-1.54093 3.32564,-1.25328 z m -13.71844,-4.16724 c -0.98677,-1.59664 1.23826,-3.30884 3.40587,-2.62087 1.60685,0.51 1.92235,1.00951 1.13497,1.79689 -1.32331,1.32331 -3.9389,1.79793 -4.54084,0.82398 z m 10.28681,-4.22288 c -1.11008,-0.70338 -1.08404,-0.88401 0.14324,-0.99348 2.36213,-0.21069 4.42796,0.20121 5.325,1.06174 1.11798,1.07248 -3.7641,1.01154 -5.46824,-0.0683 z m -37.39947,8.04059 c -0.31643,-0.51199 -1.11127,-0.89537 -1.766306,-0.85195 -0.85244,0.0565 -0.83389,0.22291 0.0652,0.58541 0.69093,0.27855 0.9589,0.98755 0.59549,1.57556 -0.39382,0.63721 -0.18776,0.77678 0.51008,0.34549 0.64395,-0.39798 0.91193,-1.14251 0.59549,-1.65451 z m 59.34606,-2.78507 c -1.45356,-0.55453 -1.91451,0.40092 -1.15202,2.38793 0.6636,1.72932 0.73283,1.72399 1.38938,-0.10687 0.38004,-1.05979 0.27323,-2.08627 -0.23736,-2.28106 z m -52.80335,0.35417 c 0,-0.825 -0.17686,-1.5 -0.39301,-1.5 -0.21616,0 -0.65203,0.675 -0.96862,1.5 -0.31658,0.825 -0.13972,1.5 0.39301,1.5 0.53274,0 0.96862,-0.675 0.96862,-1.5 z m -23.999996,-1.5 c 0,-0.55 -0.45,-1 -1,-1 -0.55,0 -1,0.45 -1,1 0,0.55 0.45,1 1,1 0.55,0 1,-0.45 1,-1 z m 71.066986,-1.41928 c -0.93044,-1.12111 -0.7986,-1.63993 0.62756,-2.46959 1.18001,-0.68647 1.33202,-1.06085 0.43882,-1.08072 -0.88257,-0.0196 -1.17609,-0.75905 -0.82868,-2.08756 0.44347,-1.6958 0.28613,-1.84815 -0.8957,-0.86732 -1.08035,0.89662 -1.15643,1.52386 -0.3087,2.54532 0.86408,1.04115 0.71846,1.51147 -0.62796,2.02814 -1.65477,0.635 -1.65038,0.74765 0.0785,2.01184 2.37569,1.73714 2.9971,1.70431 1.51616,-0.0801 z M 27.265774,203.65465 c 0,-0.55 -0.476558,-1 -1.059017,-1 -0.582459,0 -0.780902,0.45 -0.440983,1 0.339919,0.55 0.816476,1 1.059017,1 0.242541,0 0.440983,-0.45 0.440983,-1 z M 130.26577,200.8952 c 0,-0.4177 0.93526,-1.34354 2.07836,-2.05741 1.56998,-0.98047 2.41539,-1.01826 3.4562,-0.15446 1.6165,1.34158 3.02669,0.65964 4.55983,-2.20505 0.63754,-1.19126 0.68415,-1.8048 0.11016,-1.45005 -0.54724,0.33821 -1.22711,0.01 -1.51082,-0.72932 -0.30155,-0.78582 -1.90293,-1.30272 -3.85478,-1.24426 -2.66955,0.0799 -3.27542,0.47096 -3.02207,1.95035 0.19021,1.1107 -0.10959,1.58678 -0.75,1.19099 -1.34921,-0.83387 -1.40035,-3.54134 -0.0669,-3.54134 0.55,0 1,-0.9 1,-2 0,-1.47897 -0.66667,-2 -2.55902,-2 -1.47875,0 -2.29386,0.42903 -1.9309,1.01631 0.34546,0.55897 1.04702,0.75742 1.55902,0.44098 0.51199,-0.31643 0.9309,-0.0988 0.9309,0.48369 0,1.65148 -1.51664,1.2506 -3.48113,-0.92013 -1.65985,-1.83411 -1.6679,-2.02643 -0.10992,-2.62428 1.48997,-0.57176 1.43472,-0.81777 -0.48574,-2.16291 -2.00243,-1.40255 -2.03476,-1.59173 -0.42598,-2.49205 1.2406,-0.69427 1.99411,-0.5816 2.62185,0.39206 0.70957,1.10056 1.04235,1.1166 1.71087,0.0825 0.49583,-0.76701 1.56831,-1.00053 2.66404,-0.58006 1.32203,0.50731 1.61824,0.35454 1.06096,-0.54716 -0.46171,-0.74706 -1.73622,-1.00925 -3.16404,-0.65089 -1.7035,0.42756 -2.39091,0.18031 -2.39091,-0.85995 0,-1.86149 1.66566,-2.92807 2.48992,-1.59438 0.8815,1.42629 4.22367,1.26812 4.93783,-0.23369 0.32694,-0.6875 0.40966,-0.24933 0.18383,0.97371 -0.40246,2.17966 -0.3482,2.192 2.73891,0.62283 4.26818,-2.16951 4.6444,-2.70941 1.49081,-2.13937 -1.94243,0.35111 -2.51978,0.11853 -2.14302,-0.86329 0.28364,-0.73914 1.03005,-1.35077 1.65871,-1.35919 0.62865,-0.008 0.46801,-0.45153 -0.35699,-0.98469 -1.2819,-0.82843 -1.24555,-0.9716 0.25,-0.98469 0.9625,-0.008 1.6375,-0.52156 1.5,-1.14031 -0.1375,-0.61875 0.3125,-1.33125 1,-1.58333 0.6875,-0.25209 1.25,0.0292 1.25,0.625 0,0.59583 0.5051,1.08333 1.12244,1.08333 0.77116,0 0.72941,-0.47359 -0.1334,-1.5132 -0.69071,-0.83226 -1.98331,-1.39476 -2.87244,-1.25 -0.97083,0.15806 -1.51095,-0.33599 -1.35212,-1.2368 0.22277,-1.26342 0.0651,-1.24958 -1,0.0878 -0.69546,0.87327 -1.93948,1.3626 -2.76448,1.08738 -1.2863,-0.4291 -1.30447,-0.26352 -0.12756,1.16223 1.40539,1.70253 0.5172,2.13311 -2.22751,1.07986 -0.83526,-0.32052 -1.28765,-1.18471 -1.00533,-1.92043 0.3179,-0.82843 -0.34253,-1.46313 -1.73482,-1.66724 -1.23647,-0.18126 -2.45612,-0.96031 -2.71033,-1.73121 -0.33647,-1.02034 0.13979,-1.24422 1.75066,-0.82297 1.75713,0.45951 2.09312,0.2333 1.63143,-1.09835 -0.5026,-1.44962 -0.39374,-1.43574 0.80274,0.10235 1.23399,1.5863 1.45051,1.60655 1.99539,0.18662 0.3436,-0.89542 1.11977,-1.27846 1.77278,-0.87488 0.74531,0.46062 0.89077,0.27973 0.40591,-0.5048 -0.41561,-0.67247 -1.38514,-0.98112 -2.15451,-0.68589 -1.66178,0.63769 -4.56988,-0.31469 -3.96238,-1.29764 0.23373,-0.3782 -0.44385,-0.75308 -1.50575,-0.83307 -1.0619,-0.0801 -1.93072,0.24856 -1.93072,0.7302 0,0.48164 -0.9,0.80791 -2,0.72505 -3.06434,-0.23083 -2.37898,-1.39868 1.25,-2.12998 2.55153,-0.51417 2.92763,-0.86012 1.75,-1.60968 -2.07143,-1.31849 -3.85185,-1.20787 -2,0.12426 1.24751,0.89739 1.19167,0.97897 -0.33179,0.48468 -1.00748,-0.32688 -2.35748,-0.60122 -3,-0.60964 -0.70401,-0.009 -0.59966,-0.37511 0.2626,-0.92077 1.0456,-0.66168 0.37253,-1.07854 -2.5,-1.54835 -2.16194,-0.35359 -4.97703,-1.06997 -6.25575,-1.59194 -1.27871,-0.52197 -2.71012,-0.71098 -3.1809,-0.42002 -0.47078,0.29096 -1.13937,0.0705 -1.48575,-0.49 -0.36693,-0.59371 -1.33486,-0.67722 -2.3191,-0.2001 -2.41723,1.17178 -4.736,0.81288 -4.41453,-0.68329 0.15412,-0.71732 -0.21347,-0.97713 -0.83714,-0.59168 -0.78542,0.48542 -0.79968,0.99942 -0.0486,1.75053 0.65615,0.65615 0.71142,1.48738 0.14434,2.17067 -1.22372,1.4745 0.40679,4.00427 1.96155,3.04338 0.94114,-0.58166 0.91627,-0.93995 -0.10924,-1.57375 -2.08499,-1.28859 -0.29276,-2.21758 1.95619,-1.01398 1.10726,0.59259 2.79462,0.77758 3.74969,0.41109 1.18213,-0.45363 1.50566,-0.29286 1.01343,0.50358 -0.40731,0.65904 -0.15143,1.20442 0.58595,1.24889 1.00674,0.0607 1.02037,0.19542 0.059,0.58333 -1.46036,0.58927 -1.71068,5.33772 -0.28138,5.33772 0.53273,0 0.69216,-0.72042 0.35428,-1.60092 -0.65649,-1.7108 1.21346,-3.39934 3.6771,-3.32038 0.83771,0.0268 0.50657,0.44738 -0.75,0.95246 -1.2375,0.49742 -2.25,1.36889 -2.25,1.93662 0,1.53132 1.92417,1.2509 3.71675,-0.54167 1.27794,-1.27794 1.7322,-1.32495 2.41582,-0.25 0.6134,0.96454 -0.10462,1.57533 -2.64532,2.25026 -1.91799,0.5095 -3.48725,1.32355 -3.48725,1.80901 0,0.48546 -0.36,0.66016 -0.8,0.38823 -0.44,-0.27194 -0.8,0.61511 -0.8,1.97122 0,1.61226 0.44995,2.29299 1.3,1.9668 2.11523,-0.81169 1.48285,1.18846 -0.95,3.00471 -1.2375,0.92386 -1.55615,1.44944 -0.70811,1.16795 0.84804,-0.28149 2.42304,0.13564 3.5,0.92696 1.91901,1.41004 1.90819,1.4782 -0.54189,3.41386 -1.375,1.0863 -2.05,1.91051 -1.5,1.83157 2.54328,-0.36502 4.56053,0.18636 4,1.09332 -0.33992,0.55 -0.18962,1 0.33399,1 0.52362,0 1.21105,-0.675 1.52764,-1.5 0.31658,-0.825 1.03972,-1.5 1.60699,-1.5 0.56726,0 1.03138,0.675 1.03138,1.5 0,0.825 0.5625,1.51368 1.25,1.53041 0.82112,0.02 0.73458,0.33255 -0.25223,0.91103 -0.82623,0.48435 -3.42342,0.52931 -5.77154,0.0999 -4.86727,-0.89004 -6.21615,-0.0563 -2.63964,1.63151 1.32873,0.62706 2.16375,0.73219 1.85562,0.23361 -0.30813,-0.49857 -0.0837,-0.90649 0.49877,-0.90649 0.58246,0 1.06591,0.5625 1.07433,1.25 0.0102,0.83333 0.33844,0.75 0.98469,-0.25 0.53316,-0.825 0.97627,-1.0125 0.98469,-0.41667 0.008,0.59584 1.34552,1.08334 2.97132,1.08334 1.62581,0 2.72425,-0.375 2.44098,-0.83334 -0.28321,-0.4583 -0.065,-0.8333 0.48503,-0.8333 1.55,0 2.40308,1.98057 0.92705,2.15231 -0.71996,0.0838 -1.75902,0.25687 -2.30902,0.38465 -0.55,0.12779 -1.675,0.29449 -2.5,0.37046 -0.825,0.076 -0.0105,0.87214 1.80994,1.76929 2.12929,1.04933 2.88907,1.89128 2.13003,2.36039 -0.83152,0.51391 -0.62775,1.07933 0.69005,1.91487 1.71699,1.08864 1.68123,1.14554 -0.43712,0.69552 -1.46407,-0.31102 -2.16706,-0.07 -1.92383,0.65973 0.21081,0.63241 1.77366,1.10881 3.47302,1.05866 2.3031,-0.068 2.94873,0.27626 2.53591,1.35204 -0.31079,0.80991 -1.34988,1.23504 -2.36796,0.96881 -0.99778,-0.26093 -1.98754,0.0403 -2.19947,0.66943 -0.27461,0.81517 -0.85467,0.75645 -2.01876,-0.20438 -1.90587,-1.57309 -1.7998,-5.17548 0.19849,-6.74095 1.16898,-0.9158 1.13109,-1.18864 -0.238,-1.71402 -0.93189,-0.35759 -1.52651,-0.15907 -1.3903,0.46418 0.1309,0.59895 -0.38714,1.31614 -1.1512,1.59374 -0.79025,0.28712 -1.11301,0.0579 -0.74862,-0.53174 0.39048,-0.63179 -0.11382,-0.83919 -1.2916,-0.5312 -1.17107,0.30625 -1.71584,1.06908 -1.38296,1.93655 0.3366,0.87715 1.27767,1.20006 2.4308,0.83407 1.08194,-0.34339 1.88158,-0.11848 1.88158,0.52922 0,0.61952 -0.35899,0.90454 -0.79775,0.63337 -0.43876,-0.27117 -1.45126,-0.0303 -2.25,0.53532 -1.16835,0.82731 -1.09736,0.91339 0.36314,0.4403 1.44809,-0.46906 1.6895,-0.1914 1.19319,1.37236 -0.65139,2.05232 0.32638,2.52124 6.99142,3.35298 1.65,0.20591 3.3375,0.4418 3.75,0.52421 0.4125,0.0824 0.75,-0.19192 0.75,-0.60962 z m -8.77478,-20.41622 c 0.16532,-0.79677 -0.60172,-1.29483 -1.9255,-1.25027 -1.21015,0.0407 -1.9711,-0.29677 -1.69098,-0.75 0.28011,-0.45323 0.0631,-0.82406 -0.48234,-0.82406 -0.54539,0 -1.27727,-0.9 -1.6264,-2 -0.34913,-1.1 -1.39195,-2.03553 -2.31739,-2.07895 -0.94829,-0.0445 -1.16128,-0.291 -0.48805,-0.56485 0.65701,-0.26725 2.05337,-0.0263 3.10302,0.53547 1.66947,0.89347 1.85099,0.72079 1.4496,-1.37894 -0.31853,-1.66629 -1.34656,-2.59528 -3.36174,-3.03789 -1.59659,-0.35067 -2.64287,-1.05831 -2.32507,-1.57252 0.31781,-0.51422 0.99673,-0.67605 1.50873,-0.35961 0.51199,0.31643 0.9309,0.14372 0.9309,-0.38379 0,-0.52751 1.75373,-0.89157 3.89719,-0.80901 3.84963,0.14826 4.79964,1.65009 1.04379,1.65009 -2.31461,0 -2.50865,1.28398 -0.45199,2.99086 0.81894,0.67967 1.24239,1.63477 0.94098,2.12245 -0.95016,1.5374 0.26481,0.96106 1.69759,-0.80527 0.75484,-0.93058 0.88494,-1.40037 0.28911,-1.04399 -0.59584,0.35639 -1.08334,-9e-5 -1.08334,-0.79216 0,-1.01187 0.35917,-1.14206 1.20778,-0.43777 0.66427,0.5513 3.21427,0.7615 5.66666,0.46711 3.20134,-0.38428 4.47231,-0.1779 4.50645,0.73176 0.0262,0.69686 0.37626,2.05961 0.77801,3.02835 0.57511,1.38678 0.36304,1.62035 -0.99722,1.09837 -1.54064,-0.5912 -1.5891,-0.40297 -0.44762,1.73866 1.14889,2.15555 1.11694,2.26711 -0.31184,1.0888 -1.32167,-1.08998 -2.09178,-1.05431 -4.53693,0.21012 -1.61978,0.83762 -3.29925,1.20339 -3.73216,0.81283 -0.43291,-0.39057 -0.48262,-0.17871 -0.11047,0.47078 0.37215,0.6495 0.20814,1.47045 -0.36445,1.82433 -0.5726,0.35389 -0.91744,0.0475 -0.76632,-0.6809 z m 1.59936,-5.31558 c 0.30469,-0.30469 -0.4196,-0.40539 -1.60953,-0.2238 -1.18993,0.1816 -2.461,0.62766 -2.82459,0.99125 -0.36359,0.3636 0.3607,0.4643 1.60954,0.2238 1.24884,-0.2405 2.5199,-0.68657 2.82458,-0.99125 z m 6.62187,-1.41103 c 1.81752,-0.71126 1.78946,-0.80276 -0.42354,-1.38148 -2.54345,-0.66513 -4.02291,-0.17131 -4.02291,1.34278 0,1.09862 1.70014,1.11342 4.44645,0.0387 z m 8.55355,-2.09772 c 0,-0.55 0.47656,-1 1.05902,-1 0.58246,0 0.7809,0.45 0.44098,1 -0.33992,0.55 -0.81648,1 -1.05902,1 -0.24254,0 -0.44098,-0.45 -0.44098,-1 z m -14,-5 c 1.93876,-1.25292 3,-1.25292 3,0 0,0.55 -1.0125,0.99311 -2.25,0.98469 -1.81944,-0.0124 -1.96296,-0.20082 -0.75,-0.98469 z m -11.07651,-8.25 c -0.53992,-1.7642 -0.63355,-3.79339 -0.15284,-3.31269 0.72976,0.72977 1.23936,3.56269 0.64087,3.56269 -0.22634,0 -0.44595,-0.1125 -0.48803,-0.25 z m -33.476276,40.16459 c -0.32197,-0.52097 -1.01165,-0.68378 -1.53262,-0.3618 -0.52097,0.32197 -0.68378,1.01165 -0.3618,1.53262 0.32197,0.52097 1.01165,0.68378 1.53262,0.3618 0.52097,-0.32197 0.68378,-1.01165 0.3618,-1.53262 z m 24.995146,1.17867 c 0.30822,-0.49871 -0.34022,-0.67122 -1.44098,-0.38337 -2.33499,0.61061 -2.63015,1.29011 -0.5604,1.29011 0.79254,0 1.69316,-0.40803 2.00138,-0.90674 z m 8.99288,-1.19804 c -0.84636,-1.36944 -2.10191,-1.06513 -2.10191,0.50944 0,0.77256 0.59742,1.17541 1.32759,0.89521 0.73018,-0.28019 1.07862,-0.91229 0.77432,-1.40465 z m 38.39905,0.10478 c 0.40183,-1.22771 0.21783,-1.27467 -1.01368,-0.25868 -0.82754,0.68273 -1.75566,0.99029 -2.06248,0.68347 -0.30682,-0.30682 -0.87787,-0.0401 -1.26899,0.59277 -0.47425,0.76736 0.0492,1.03934 1.57154,0.81654 1.25547,-0.18376 2.50359,-1.0091 2.77361,-1.8341 z m -123.341365,0.0114 c 0.350339,-0.56686 -0.05106,-0.7345 -0.940983,-0.39301 -1.732417,0.66484 -2.049387,1.38161 -0.610955,1.38161 0.517541,0 1.215913,-0.44485 1.551938,-0.98855 z m 133.507075,-0.0114 c 0,-0.55 -0.70156,-1 -1.55902,-1 -0.85746,0 -1.2809,0.45 -0.94098,1 0.33992,0.55 1.04148,1 1.55902,1 0.51754,0 0.94098,-0.45 0.94098,-1 z m -71.999996,-2.42857 c 0,-0.8082 -3.14251,-3.57143 -4.06164,-3.57143 -0.50533,0 -0.14818,0.9 0.79367,2 1.55825,1.8199 3.26797,2.64204 3.26797,1.57143 z m 12.999996,-1.67842 c 0,-1.43762 -1.73512,-1.02567 -2.34208,0.55606 -0.37166,0.96852 -0.0755,1.26467 0.89301,0.89301 0.79699,-0.30583 1.44907,-0.95791 1.44907,-1.44907 z m 58.09068,1.1842 c -0.77512,-0.49069 -2.01262,-0.66066 -2.75,-0.3777 -2.11462,0.81146 -1.57691,1.30181 1.40932,1.28518 2.00139,-0.0111 2.36635,-0.25818 1.34068,-0.90748 z m -56.29212,-2.85347 c -1.10998,-1.3661 -1.04654,-1.50377 0.43681,-0.94797 1.5117,0.56642 1.57614,0.39224 0.5,-1.35142 -0.85207,-1.38059 -1.91596,-1.83301 -3.42889,-1.45812 -1.76622,0.43764 -2.12047,0.16421 -1.81853,-1.40367 0.27072,-1.40575 -0.0464,-1.78551 -1.140316,-1.36572 -1.23043,0.47216 -1.26455,0.74045 -0.18148,1.42701 1.095936,0.69471 1.098156,0.84826 0.0124,0.86084 -0.99429,0.0115 -0.9343,0.40244 0.24233,1.57907 0.860066,0.86006 2.004016,1.29166 2.542106,0.9591 0.5381,-0.33256 1.26455,0.53564 1.61435,1.92933 0.34979,1.39369 1.05984,2.27204 1.57787,1.95187 0.55135,-0.34075 0.40346,-1.24478 -0.35667,-2.18032 z m 41.87157,1.35902 c -0.29911,-0.77948 0.13126,-1.67631 0.95639,-1.99294 0.82514,-0.31663 1.24392,-0.99044 0.93063,-1.49735 -0.31329,-0.50691 -0.004,-1.14956 0.68662,-1.42811 0.75786,-0.30554 0.56198,-0.53778 -0.49377,-0.58541 -0.9625,-0.0434 -1.78553,-0.64145 -1.82895,-1.32895 -0.0544,-0.86098 -0.2249,-0.89402 -0.54794,-0.10616 -0.25795,0.62911 -1.27243,0.93374 -2.25439,0.67695 -1.11857,-0.29251 -1.78539,0.0846 -1.78539,1.00972 0,1.01775 0.7548,1.33973 2.42897,1.03615 1.68243,-0.30508 2.28432,-0.0449 1.95833,0.84644 -0.25885,0.7078 -0.99615,1.16798 -1.63845,1.02263 -0.86427,-0.19558 -0.88761,0.25931 -0.0898,1.75 1.22646,2.29166 2.50228,2.74565 1.67777,0.59703 z m 5.32987,-1.47745 c 0,-0.49578 1.47068,-0.563 3.29855,-0.15074 2.73654,0.61719 3.32102,0.44568 3.43042,-1.00662 0.13415,-1.78094 -1.22417,-2.01943 -3.47897,-0.61081 -0.6875,0.42949 -1.59246,0.56924 -2.01103,0.31055 -0.41856,-0.25869 -1.62957,0.16476 -2.69113,0.94099 -1.68376,1.23119 -1.71426,1.41132 -0.23897,1.41132 0.93012,0 1.69113,-0.40261 1.69113,-0.89469 z m -42,-1.57013 c 0,-0.25565 -1.0125,-0.95547 -2.25,-1.55516 -2.16063,-1.04704 -2.17289,-1.02858 -0.30887,0.46481 2.04026,1.63459 2.55887,1.85557 2.55887,1.09035 z m 7.13671,-3.32294 c -0.72144,-0.24048 -1.78716,0.0382 -2.36826,0.61931 -0.74207,0.74207 -0.35164,0.87221 1.31171,0.43724 1.3522,-0.35361 1.8055,-0.8069 1.05655,-1.05655 z m 23.86329,1.39475 c 0,-0.94863 -2.99338,-1.42672 -3.52699,-0.56332 -0.32508,0.52598 0.33551,0.95633 1.46797,0.95633 1.13246,0 2.05902,-0.17686 2.05902,-0.39301 z m -8.5,-2.60699 c -0.33992,-0.55 -1.06803,-1 -1.61803,-1 -0.55,0 -0.72189,0.45 -0.38197,1 0.33992,0.55 1.06803,1 1.61803,1 0.55,0 0.72189,-0.45 0.38197,-1 z m -33.743676,-6.25 c -0.22569,-0.6875 -1.95069,-1.3196 -3.83333,-1.40467 -1.89317,-0.0855 -2.41741,0.0573 -1.17299,0.31955 1.2375,0.26082 2.25,0.89292 2.25,1.40467 0,0.51175 0.7125,0.93045 1.58333,0.93045 0.87084,0 1.39868,-0.5625 1.17299,-1.25 z m -41.24416,-4.57118 c -0.79461,-0.79461 -2.51396,1.00926 -1.90347,1.99704 0.41524,0.67187 0.93059,0.56959 1.46194,-0.29014 0.45134,-0.73029 0.65003,-1.49839 0.44153,-1.7069 z m 3.21701,2.21701 c -0.3323,-0.33229 -1.1948,-0.36781 -1.91667,-0.0789 -0.79773,0.31922 -0.56078,0.55618 0.60417,0.60416 1.05416,0.0434 1.64479,-0.19293 1.3125,-0.52522 z m 3.63246,-2.89583 c -0.31659,-0.825 -1.31496,-1.48569 -2.21862,-1.4682 -1.39458,0.027 -1.3495,0.2538 0.29812,1.5 2.4262,1.83509 2.63556,1.83163 1.9205,-0.0318 z m 5.63837,0.5 c 0,-0.55 -0.7875,-1.00689 -1.75,-1.01531 -1.51012,-0.0132 -1.54439,-0.16073 -0.25,-1.07613 1.1726,-0.82928 1.19167,-0.97781 0.0874,-0.68048 -2.22629,0.59941 -2.22535,3.77192 0.001,3.77192 1.05134,0 1.91152,-0.45 1.91152,-1 z m 21.07396,-0.45429 c 0.49672,0.30699 0.62353,-0.17045 0.2818,-1.06099 -0.40964,-1.06751 -0.9583,-1.28218 -1.6104,-0.63008 -0.54399,0.54399 -1.72174,0.7625 -2.61722,0.48558 -1.19011,-0.36803 -1.09317,-0.0687 0.36032,1.11276 1.18434,0.96264 2.12877,1.19533 2.33541,0.5754 0.19082,-0.57246 0.75336,-0.78967 1.25009,-0.48267 z m 6.42604,0.45429 c 0.33992,-0.55 0.14148,-1 -0.44098,-1 -0.58246,0 -1.05902,0.45 -1.05902,1 0,0.55 0.19844,1 0.44098,1 0.24254,0 0.7191,-0.45 1.05902,-1 z m -37.00708,-3.98855 c 0.35034,-0.56686 -0.0511,-0.7345 -0.94098,-0.39301 -1.73242,0.66479 -2.04939,1.38156 -0.61096,1.38156 0.51754,0 1.21592,-0.44485 1.55194,-0.98855 z m -6.51931,-0.97398 c 0.97187,-0.6146 1.73274,-0.52427 2.23468,0.26532 0.5153,0.81058 0.76603,0.63206 0.7764,-0.55279 0.0185,-2.11359 0.0735,-2.10973 -4.11988,-0.28914 -1.85065,0.80347 -2.68981,1.47158 -1.86481,1.48469 0.825,0.0131 2.16312,-0.39553 2.97361,-0.90808 z m 17.27639,0.0459 c 0.4125,-0.0458 0.75,-0.45539 0.75,-0.91014 0,-0.45474 -1.33349,-0.63109 -2.96331,-0.39188 -1.87437,0.2751 -3.55426,-0.15602 -4.57143,-1.1732 -0.88447,-0.8845 -2.21347,-1.60815 -2.95336,-1.60815 -0.73988,0 -1.57221,-0.5625 -1.84962,-1.25 -0.28382,-0.70339 -0.53891,-0.4312 -0.58333,0.62244 -0.0571,1.35433 -0.42483,1.59899 -1.32895,0.8842 -2.22512,-1.75918 -6.67367,-2.0398 -8.49882,-0.53611 -1.66663,1.37309 -1.66669,1.41617 -10e-4,0.89249 0.9625,-0.30264 1.75,-0.14021 1.75,0.36095 0,0.91618 3.20656,0.63444 4.93466,-0.43359 0.50993,-0.31515 1.2098,-0.11566 1.55526,0.44331 0.34546,0.55897 1.64055,1.01631 2.87797,1.01631 1.23742,0 3.0647,0.59583 4.06062,1.32407 0.99592,0.72823 2.76943,1.21573 3.94113,1.08333 1.1717,-0.1324 2.46786,-0.27823 2.88036,-0.32407 z m 33.874086,-1.35 c -0.98762,-0.98026 -1.10248,-0.8654 -0.5598,0.5598 0.37553,0.98622 0.93469,1.54122 1.24258,1.23333 0.30789,-0.30789 6.4e-4,-1.11479 -0.68278,-1.79313 z M 79.265774,170.047 c 0,-0.82763 -1.94173,-1.29565 -2.38691,-0.57533 -0.28881,0.46731 0.13009,0.84965 0.9309,0.84965 0.8008,0 1.45601,-0.12345 1.45601,-0.27432 z m 19.13671,-1.18011 c -0.72144,-0.24048 -1.78716,0.0382 -2.36826,0.61931 -0.74207,0.74207 -0.35164,0.87221 1.31171,0.43724 1.3522,-0.35361 1.8055,-0.8069 1.05655,-1.05655 z m -5.13671,-0.60525 c 0,-0.21616 -0.69837,-0.661 -1.55194,-0.98855 -0.88992,-0.34149 -1.29132,-0.17385 -0.94098,0.39301 0.58726,0.95021 2.49292,1.40545 2.49292,0.59554 z m -7.53935,-2.5635 c 1.31168,-1.4494 1.23318,-1.64094 -0.73324,-1.78907 -1.73766,-0.13089 -1.88844,0.0325 -0.7148,0.77453 1.2705,0.80329 1.24081,0.94266 -0.20359,0.95574 -0.93004,0.008 -1.92275,0.39031 -2.20601,0.84864 -0.94799,1.53387 2.3694,0.85464 3.85764,-0.78984 z m -21.46065,-0.0435 c 0,-0.55 -0.47656,-1 -1.05902,-1 -0.58246,0 -0.7809,0.45 -0.44098,1 0.33992,0.55 0.81648,1 1.05902,1 0.24254,0 0.44098,-0.45 0.44098,-1 z m 7.39418,-0.58483 c 0.46914,-1.22257 0.1239,-1.39481 -1.65047,-0.82338 -1.23404,0.39741 -2.78642,0.72684 -3.44972,0.73206 -2.20275,0.0173 -0.49615,1.2232 2.02661,1.43199 1.46214,0.12101 2.72387,-0.42934 3.07358,-1.34067 z m 5.10582,0.58483 c 0.33992,-0.55 0.14148,-1 -0.44098,-1 -0.58246,0 -1.05902,0.45 -1.05902,1 0,0.55 0.19844,1 0.44098,1 0.24254,0 0.7191,-0.45 1.05902,-1 z m 21.34163,-0.64684 c 2.018916,-0.30561 2.720936,-1.35316 0.90682,-1.35316 -2.36494,0 -4.74845,1.08724 -4.74845,2.16601 0,0.52361 0.5625,0.60062 1.25,0.17113 0.6875,-0.4295 1.85373,-0.87229 2.59163,-0.98398 z m -23.84163,-0.16651 c 0,-1.05817 6.83367,-3.72124 9.15782,-3.56879 0.98829,0.0648 1.55552,-0.27267 1.26051,-0.75 -0.295,-0.47732 0.16519,-0.86786 1.02265,-0.86786 0.85746,0 1.44652,0.50625 1.30902,1.125 -0.1375,0.61875 0.425,1.32801 1.25,1.57613 1.04671,0.3148 1.13821,0.19351 0.30279,-0.40139 -1.39993,-0.99688 -0.0297,-3.86705 1.41874,-2.97184 0.51983,0.32127 0.94514,-0.10395 0.94514,-0.94494 0,-1.06178 -0.63666,-1.35811 -2.08334,-0.96966 -1.14583,0.30766 -3.63184,0.56554 -5.52446,0.57305 -3.26938,0.013 -3.34424,0.0901 -1.5,1.54547 1.74388,1.37617 1.53467,1.37665 -2.05887,0.005 -2.93991,-1.12242 -3.54033,-1.1709 -2.26554,-0.18295 0.95395,0.73931 1.44535,1.63329 1.09201,1.98664 -0.35335,0.35335 -1.13386,0.24004 -1.73446,-0.2518 -1.03817,-0.85016 -4.63982,-1.43838 -7.34201,-1.19909 -0.6875,0.0609 -1.25,0.86069 -1.25,1.77736 0,0.91666 0.28417,1.3825 0.63148,1.03518 0.94236,-0.94235 4.51869,1.24615 3.83751,2.34832 -0.32286,0.5221 -0.11047,0.94952 0.47199,0.94952 0.58246,0 1.05902,-0.36601 1.05902,-0.81335 z m -1.85676,-3.07696 c -0.95612,-0.60583 -0.58161,-0.85969 1.26823,-0.85969 1.44375,0 2.86836,0.39375 3.16578,0.875 0.69446,1.12365 -2.65474,1.11209 -4.43401,-0.0153 z m 7.85676,3.44933 c 0,-0.24254 -0.45,-0.7191 -1,-1.05902 -0.55,-0.33992 -1,-0.14148 -1,0.44098 0,0.58246 0.45,1.05902 1,1.05902 0.55,0 1,-0.19844 1,-0.44098 z m 24.999996,-0.4654 c 0,-0.49851 -0.9,-0.67103 -2,-0.38337 -1.1,0.28766 -2,0.69553 -2,0.90638 0,0.21085 0.9,0.38337 2,0.38337 1.1,0 2,-0.40787 2,-0.90638 z m -38.324656,-3.75161 c -0.36189,-0.3619 -0.0994,-1.3744 0.58334,-2.25 1.04916,-1.34556 1.00912,-1.41839 -0.25868,-0.47044 -0.825,0.61687 -2.28964,0.99387 -3.25476,0.83779 -0.96512,-0.15608 -1.49653,0.13405 -1.1809,0.64474 0.31562,0.51069 0.99276,0.66963 1.50476,0.35319 0.51199,-0.31643 0.9309,-0.0988 0.9309,0.48369 0,0.58246 0.525,1.05902 1.16667,1.05902 0.64166,0 0.87057,-0.2961 0.50867,-0.65799 z m 27.82466,-1.34201 c -0.55541,-0.89867 2.48348,-1.53704 4.97194,-1.04444 0.534556,0.10582 0.281026,-0.62839 -0.56341,-1.63158 -0.84444,-1.00319 -1.49175,-2.49898 -1.43848,-3.32398 0.10936,-1.69342 -1.30624,-2.9619 -3.33083,-2.98469 -0.8156,-0.009 -0.41495,0.8086 1,2.04115 l 2.36078,2.05647 -2.34073,-1.14021 c -1.76326,-0.85891 -3.04356,-0.84907 -5.18964,0.0399 -1.5669,0.64903 -3.32092,0.88834 -3.89782,0.5318 -0.63166,-0.39039 -0.8148,-0.0382 -0.46039,0.88537 0.45153,1.17667 1.03555,1.29437 2.50921,0.50569 1.05639,-0.56536 2.43093,-0.71259 3.05455,-0.32718 0.69511,0.42961 0.85775,0.25404 0.42031,-0.45375 -0.39244,-0.63498 -0.28511,-1.15451 0.2385,-1.15451 0.52362,0 1.22897,0.72169 1.56745,1.60375 0.3441,0.8967 1.2589,1.35683 2.07496,1.04368 0.80275,-0.30805 1.69166,-0.18452 1.97534,0.27449 0.28369,0.45901 -0.9394,1.12783 -2.71797,1.48625 -2.54023,0.51192 -2.91207,0.85645 -1.73377,1.60644 1.92625,1.22607 2.26475,1.22278 1.5,-0.0146 z m -12,-5 c 1.77225,-0.76156 1.68684,-0.86743 -0.75,-0.92971 -1.5125,-0.0387 -2.75,0.37971 -2.75,0.92971 0,1.17371 0.76862,1.17371 3.5,0 z"
         id="path182"
         inkscape:connector-curvature="0" />
    </g>
  </g>
</svg>
