<?xml version="1.0" encoding="UTF-8" standalone="no"?>
<!-- Created with Inkscape (http://www.inkscape.org/) -->

<svg
   xmlns:dc="http://purl.org/dc/elements/1.1/"
   xmlns:cc="http://creativecommons.org/ns#"
   xmlns:rdf="http://www.w3.org/1999/02/22-rdf-syntax-ns#"
   xmlns:svg="http://www.w3.org/2000/svg"
   xmlns="http://www.w3.org/2000/svg"
   xmlns:sodipodi="http://sodipodi.sourceforge.net/DTD/sodipodi-0.dtd"
   xmlns:inkscape="http://www.inkscape.org/namespaces/inkscape"
   width="75mm"
   height="120mm"
   viewBox="0 0 75 120"
   version="1.1"
   id="svg8"
   inkscape:version="0.92.4 (5da689c313, 2019-01-14)"
   sodipodi:docname="oiseaux1.svg">
  <defs
     id="defs2" />
  <sodipodi:namedview
     id="base"
     pagecolor="#ffffff"
     bordercolor="#666666"
     borderopacity="1.0"
     inkscape:pageopacity="0.0"
     inkscape:pageshadow="2"
     inkscape:zoom="0.98994949"
     inkscape:cx="-36.529425"
     inkscape:cy="366.14486"
     inkscape:document-units="mm"
     inkscape:current-layer="layer1"
     showgrid="false"
     units="mm"
     inkscape:window-width="1280"
     inkscape:window-height="972"
     inkscape:window-x="-8"
     inkscape:window-y="-8"
     inkscape:window-maximized="1" />
  <metadata
     id="metadata5">
    <rdf:RDF>
      <cc:Work
         rdf:about="">
        <dc:format>image/svg+xml</dc:format>
        <dc:type
           rdf:resource="http://purl.org/dc/dcmitype/StillImage" />
        <dc:title></dc:title>
      </cc:Work>
    </rdf:RDF>
  </metadata>
  <g
     inkscape:label="Calque 1"
     inkscape:groupmode="layer"
     id="layer1"
     transform="translate(0,-176.99999)">
    <g
       id="g20"
       transform="translate(18.174328,42.763125)">
      <path
         style="fill:#ff00ff;stroke-width:0.26458338"
         d="m 29.876612,243.54232 c -0.244591,-0.39576 0.616109,-1.8717 1.697418,-2.91071 l 1.124792,-1.0808 -0.765702,-0.16841 c -1.375129,-0.30243 -2.079328,-0.6529 -2.953588,-1.46997 -0.98751,-0.9229 -2.024132,-2.78893 -1.67068,-3.00738 0.402529,-0.24877 2.740358,0.49049 3.858559,1.22015 0.582091,0.37982 1.40803,1.06127 1.835441,1.51433 0.90705,0.96147 1.20727,1.03146 1.20727,0.28143 0,-1.31556 1.58501,-3.39797 3.23061,-4.24442 1.256009,-0.64607 1.267309,-0.64396 1.267309,0.23686 0,1.07978 -1.211559,3.33894 -2.305931,4.29981 -0.744619,0.65378 -0.868238,0.88199 -0.577519,1.06607 0.203451,0.12882 0.510259,0.23604 0.681799,0.23827 0.464611,0.006 2.272382,1.79221 2.098551,2.07348 -0.17194,0.27821 -1.886209,0.0151 -2.677991,-0.4111 -0.292669,-0.15752 -0.757608,-0.53555 -1.03319,-0.84007 -0.27559,-0.30452 -0.587179,-0.55368 -0.69242,-0.55368 -0.105248,0 -0.641458,0.65352 -1.191569,1.45227 -0.550119,0.79875 -1.24923,1.61132 -1.553581,1.80572 -0.80296,0.51288 -1.445278,0.71544 -1.579578,0.49815 z M 2.6406214,238.17029 c -0.18491,-0.70707 0.21857,-1.79037 0.74157,-1.99107 0.50682,-0.19449 0.52837,-1.15554 0.0259,-1.15554 -1.16577,0 -4.91672,-2.43758 -4.91672,-3.19516 0,-0.43154 2.05169996,-0.84341 3.28216,-0.65889 1.20175,0.18021 3.12412,1.39348 4.18322,2.64014 l 0.46932,0.55245 0.99359,-1.09007 c 1.2653,-1.38819 2.5576,-2.14594 4.0485096,-2.37388 0.648121,-0.0991 1.339001,-0.30732 1.53529,-0.46273 0.264731,-0.2096 0.245041,-0.0149 -0.0762,0.75404 -0.605571,1.44933 -1.05723,1.87528 -3.0055296,2.83443 l -1.70505,0.83939 0.75037,0.64544 c 0.90244,0.77624 1.4305996,1.73164 1.4305996,2.5878 0,0.52331 -0.13411,0.63121 -0.7845396,0.63121 -0.8605,0 -2.569,-1.30881 -2.90928,-2.22867 -0.18375,-0.49673 -0.23167,-0.47453 -0.6274,0.29072 -0.47342,0.9155 -1.92787,1.93795 -2.75675,1.93795 -0.31976,0 -0.5916,-0.22321 -0.67903,-0.55756 z m 26.9392896,-6.61994 c -0.291039,-0.15522 -0.899589,-0.70317 -1.352331,-1.21765 l -0.823158,-0.93542 -0.78845,0.58292 c -0.88927,0.65746 -2.959931,1.20981 -3.29169,0.87805 -0.20543,-0.20542 1.00071,-2.1799 1.336948,-2.18862 0.0859,-0.002 0.31895,-0.10716 0.517882,-0.23319 0.283189,-0.1794 0.126508,-0.52667 -0.721841,-1.59992 -1.09401,-1.38402 -1.72424,-3.01398 -1.5738,-4.07031 0.045,-0.31615 0.209891,-0.57482 0.36636,-0.57482 0.805749,0 4.081129,3.52189 4.081129,4.38829 0,0.42344 0.581171,0.15307 0.907132,-0.42201 0.598879,-1.05658 1.993109,-2.13401 3.16815,-2.44829 1.454478,-0.38901 2.274711,-0.41896 2.274711,-0.083 0,0.39893 -1.851642,2.72453 -2.991343,3.75703 l -1.058179,0.95864 0.701849,1.40841 c 0.386011,0.77463 0.701842,1.56364 0.701842,1.75335 0,0.41364 -0.723591,0.43681 -1.455211,0.0466 z m -19.11264,-3.69491 c -0.5600696,-0.36113 -0.9636496,-0.91019 -1.1663596,-1.58678 -0.36535,-1.21941 -0.53734,-1.27488 -1.04008,-0.33549 -0.61898,1.15656 -2.07536,1.88656 -4.1769,2.09364 -1.73879,0.17134 -1.88791,0.14669 -1.88226,-0.31113 0.0104,-0.84441 2.21434,-2.91917 3.35118,-3.15477 0.55457,-0.11494 1.15802,-0.18366 1.341,-0.15272 0.18299,0.0309 0.52342,-0.0505 0.75652,-0.18093 0.35292,-0.1975 0.26879,-0.333 -0.50286,-0.8099 -0.50967,-0.315 -1.24254,-0.98684 -1.62859,-1.49298 -1.38236,-1.81236 -2.20448,-4.3646 -1.40515,-4.36221 1.20459,0.004 3.89858,2.58527 4.59175,4.40032 0.42116,1.1028 0.75136,1.42604 0.94245,0.92257 0.0485,-0.12781 0.5512896,-0.54453 1.1172996,-0.92604 1.05175,-0.70893 2.013601,-0.90983 2.013601,-0.42059 0,0.65404 -0.786842,2.06433 -1.437151,2.57587 l -0.70753,0.55654 0.81988,1.13182 c 0.862881,1.19117 0.99127,2.4137 0.26647,2.53731 -0.218281,0.0372 -0.782259,-0.18081 -1.25327,-0.48453 z m 19.50952,-8.80092 c 0,-0.21692 0.315169,-0.76896 0.700381,-1.22676 l 0.700379,-0.83235 -0.844431,-0.77127 c -0.97781,-0.8931 -1.487789,-1.98657 -1.75182,-3.75619 -0.207099,-1.38804 -0.166049,-1.42715 0.912533,-0.8694 0.908007,0.46955 1.974807,1.70088 2.692598,3.10786 l 0.53226,1.04332 0.89536,-0.94935 c 0.492451,-0.52215 1.451351,-1.18769 2.13088,-1.47897 0.948989,-0.40678 1.200701,-0.63619 1.08534,-0.98919 0.200871,-0.3502 0.360531,0.75432 0.354851,1.158 0,0.72601 -1.04734,2.31824 -1.981642,3.01259 l -0.89004,0.66146 0.642091,0.67593 c 0.844211,0.88871 0.86981,1.67465 0.0468,1.43624 -0.32742,-0.0949 -0.941409,-0.4179 -1.36442,-0.7179 -0.606359,-0.43002 -0.858311,-0.48116 -1.19063,-0.24163 -0.47721,0.34398 -1.20165,0.67441 -2.075151,0.94652 -0.43407,0.13522 -0.595318,0.0786 -0.595318,-0.20895 z m -15.776739,-4.26475 c -0.218062,-0.56824 0.912479,-2.25024 1.72117,-2.56074 l 0.694108,-0.2665 -0.79375,-0.40711 c -1.892099,-0.97045 -2.93946,-2.43407 -3.08419,-4.30999 -0.0734,-0.95085 -0.0021,-1.19493 0.36975,-1.27038 0.98085,-0.19889 3.465841,2.23034 4.36045,4.26261 0.401331,0.91168 0.665451,0.77465 1.420331,-0.73684 0.780539,-1.56288 2.29665,-3.00026 3.396639,-3.22025 l 0.895712,-0.17915 -0.15409,0.94957 c -0.206071,1.26985 -1.8068,3.72485 -2.81831,4.32237 -1.008502,0.59573 -1.01464,0.74902 -0.0461,1.15022 0.574241,0.23786 0.812501,0.55359 0.943099,1.24976 0.0961,0.51232 0.126852,0.9794 0.0683,1.03795 -0.232812,0.23281 -1.95535,-0.53719 -2.659242,-1.18871 l -0.747189,-0.69161 -0.55544,0.76027 c -0.50655,0.69335 -1.885039,1.48869 -2.58019,1.48869 -0.15476,0 -0.34876,-0.17557 -0.431101,-0.39016 z m -16.3222806,-5.86788 c -0.0949,-0.0949 -0.24954,-0.75246 -0.34355,-1.46115 -0.094,-0.70868 -0.27945,-1.35559 -0.41207,-1.43755 -0.13263,-0.082 -0.62296,0.14165 -1.08961,0.49693 -1.33277,1.01468 -2.8700802,1.71413 -4.2086803,1.91487 -0.9616498,0.1442 -1.2181199,0.10628 -1.1716898,-0.17324 0.0921,-0.55454 0.6794098,-1.53244 1.2825899,-2.13563 0.6698801,-0.66987 3.3417402,-2.05074 3.9769202,-2.05534 0.62045,-0.004 0.58476,-0.32808 -0.19847,-1.79937 -0.36383,-0.68344 -0.73063,-1.61112 -0.81512,-2.06149 -0.17569,-0.93648 0.29005,-3.79301 0.68239,-4.18534 0.70382,-0.70383 2.64631,3.23351 2.64631,5.36396 0,0.74579 0.0527,1.35598 0.11717,1.35598 0.0644,0 0.55107,-0.25602 1.08139996,-0.56892 0.53033,-0.3129 1.42526,-0.65321 1.98874004,-0.75625 0.93477,-0.17094 1.00196,-0.14522 0.76713,0.29357 -0.37582,0.70223 -1.81961004,1.71163 -2.98039004,2.08369 -0.78295996,0.25095 -0.96869996,0.42207 -0.82535996,0.76035 0.28888,0.68175 0.46218,3.11766 0.27489,3.86388 -0.16676,0.66445 -0.43514,0.8385 -0.7726,0.50105 z m 51.5458896,-7.60581 c -1.792269,-0.56682 -2.792309,-1.21119 -3.35203,-2.15986 -0.29518,-0.50029 -0.6178,-0.90962 -0.71692,-0.90962 -0.0991,0 -0.590169,0.43462 -1.091219,0.96582 -1.269561,1.34598 -2.34519,1.94245 -3.50493,1.94361 -1.186251,0.001 -1.24474,-0.29827 -0.323141,-1.65452 0.686239,-1.0099 1.84671,-1.78094 2.691249,-1.78813 1.03315,-0.009 1.20623,-0.40244 0.533141,-1.21253 -0.728679,-0.87698 -1.057569,-1.93886 -0.7531,-2.4315 0.15869,-0.25676 0.390941,-0.19508 0.981181,0.26057 0.425299,0.32833 0.904888,0.76793 1.065739,0.97689 0.308491,0.40074 0.488551,0.3524 1.927741,-0.51759 0.52863,-0.31955 0.99468,-0.44502 1.134319,-0.30539 0.30402,0.30402 -0.180311,1.60035 -0.875069,2.34214 l -0.528,0.56374 1.140939,0.56139 c 1.14432,0.56306 2.385451,2.02647 2.662851,3.13977 0.0816,0.32742 0.12972,0.58735 0.10696,0.57761 -0.02281,-0.01 -0.51762,-0.16832 -1.099711,-0.3524 z m -39.32427,-1.29379 c -0.4908196,-0.32814 -1.1099796,-1.07505 -1.3759296,-1.65981 l -0.48353,-1.06321 -1.92292,0.0106 c -2.9913,0.0166 -3.64633,-0.94923 -1.1487,-1.69365 2.20796,-0.65808 2.10461,-0.52767 1.48018,-1.86758 -0.62156,-1.33376 -0.9566,-5.15555 -0.50988,-5.81619 0.2234,-0.33038 0.39124,-0.27149 1.06447,0.37351 0.94277,0.90323 2.40079,3.79679 2.40079,4.76455 0,0.77459 0.6135196,0.90632 1.4624796,0.31402 0.662681,-0.46233 3.231391,-1.04244 4.073051,-0.91984 0.918959,0.13385 0.952289,0.60206 0.100979,1.41875 -0.752801,0.72218 -4.150321,2.51103 -4.76915,2.51103 -0.42877,0 -0.44942,-0.0913 0.32438,1.43391 0.673179,1.32692 0.845089,2.38944 0.42826,2.64705 -0.127651,0.0789 -0.63367,-0.12504 -1.12448,-0.45318 z m 26.847951,0.19749 c -0.0861,-0.22443 -0.0822,-0.96857 0.009,-1.65364 l 0.16523,-1.24558 h -1.793338 c -2.115061,0 -3.95646,-0.80037 -5.02081,-2.18231 l -0.6619,-0.85939 0.981858,-0.41025 c 1.134541,-0.47404 2.83836,-0.325 4.50914,0.39442 0.582081,0.25064 1.16227,0.44581 1.289309,0.4337 0.127032,-0.0121 0.246092,-1.03404 0.264581,-2.27097 0.02421,-1.61657 0.17354,-2.5306 0.53126,-3.25058 0.47808,-0.96225 0.512212,-0.98082 0.86832,-0.47241 0.94021,1.34234 1.41651,4.30426 1.08422,6.7424 -0.0623,0.45694 0.091,0.49991 1.584711,0.4443 0.9095,-0.0339 1.653641,0.0403 1.653641,0.1647 0,0.38688 -1.451232,1.10605 -2.603852,1.29036 -0.845709,0.13524 -1.10032,0.29301 -1.10032,0.68184 0,0.66579 -0.994529,2.60148 -1.336599,2.60148 -0.147132,0 -0.337981,-0.18363 -0.4241,-0.40807 z m -14.81329,-5.5652 c -0.279152,-0.42603 -0.492652,-1.25431 -0.50491,-1.95883 -0.0278,-1.59592 -0.152432,-1.75387 -1.533311,-1.94314 -2.197481,-0.3012 -3.33588,-1.23071 -1.959149,-1.59966 0.975759,-0.2615 2.717019,-0.18819 3.032889,0.12768 0.485921,0.48592 0.785241,0.061 0.952619,-1.35223 0.30207,-2.55049 2.10439,-5.5568 3.331382,-5.5568 0.17475,0 0.289878,0.57405 0.289878,1.44528 0,1.58744 -0.833649,4.187 -1.62079,5.05406 -0.870289,0.95865 -0.5881,1.2316 0.62861,0.60801 1.712781,-0.87783 6.49695,-0.79152 6.224792,0.1123 -0.0532,0.17654 -0.746231,0.65845 -1.540151,1.07093 -1.336651,0.69445 -1.612791,0.74109 -3.730709,0.63012 l -2.287212,-0.11983 -0.10241,1.81242 c -0.124449,2.20232 -0.492109,2.72188 -1.181528,1.66969 z m -27.8551208,-3.84954 c -0.011501,-0.091 0.2707002,-0.82486 0.6271002,-1.63073 0.41958,-0.94876 0.93251,-1.63329 1.4552,-1.94205 0.78599,-0.4643 1.05589,-0.89191 0.56294,-0.89191 -0.59542,0 -2.00499,-1.55693 -2.5736003,-2.84264 -0.6191898,-1.4001 -0.8277,-2.9782 -0.3935,-2.9782 0.7992803,0 3.2099503,2.64406 3.9570103,4.34011 l 0.33838,0.76822 0.93468996,-1.41926 c 1.25463,-1.90505 2.92211004,-3.42448 3.75816004,-3.42448 0.28049,0 0.32395,0.23189 0.18363,0.97988 -0.25958,1.38366 -1.00865,2.74661 -2.12068,3.85864 l -0.95585004,0.95585 0.56908,0.56908 c 0.63725004,0.63725 1.69801004,2.8612 1.47235004,3.08686 -0.50146,0.50146 -3.07330004,-1.87453 -3.07330004,-2.83926 0,-0.8029 -1.18933996,0.18274 -1.99424996,1.6527 -0.41658,0.76079 -1.82537,1.64923 -2.22426,1.4027 -0.12882,-0.0796 -0.29451,0.005 -0.36821,0.18763 -0.0737,0.18281 -0.1434102,0.25789 -0.1548902,0.16686 z M 35.65236,187.37771 c -0.255889,-0.41405 0.426662,-2.15407 1.2631,-3.22 0.848191,-1.08091 0.889632,-1.0241 -1.117838,-1.53212 -1.219041,-0.3085 -2.38125,-1.15139 -2.38125,-1.72701 0,-0.81598 2.96269,-0.90143 3.96875,-0.11448 0.706339,0.5525 1.322919,0.68528 1.322919,0.28488 0,-0.36419 1.3271,-1.87238 1.647561,-1.87238 0.183059,0 0.218188,0.57987 0.10315,1.70266 -0.17104,1.66952 -0.160232,1.70948 0.55554,2.05254 0.40149,0.19243 0.772869,0.57255 0.825278,0.84471 0.0828,0.42985 -0.02101,0.47193 -0.790509,0.32043 -1.84092,-0.36245 -1.856809,-0.35645 -2.21366,0.83583 -0.185341,0.61928 -0.617249,1.35842 -0.959779,1.64253 -0.83371,0.69149 -2.02117,1.10939 -2.223262,0.78241 z m 14.02216,-3.02087 c -0.337158,-0.88283 -0.419888,-1.67167 -0.320709,-3.05787 0.1182,-1.65196 0.084,-1.84637 -0.295119,-1.68009 -1.932562,0.84751 -3.161221,1.11979 -4.09879,0.90834 -0.551162,-0.12431 -1.069181,-0.29308 -1.151152,-0.37505 -0.543978,-0.54398 2.438212,-2.22702 4.342672,-2.45085 1.18113,-0.13882 1.400009,-0.24274 1.249569,-0.59328 -0.749599,-1.74664 -0.769469,-3.90599 -0.0337,-3.66453 0.538049,0.17659 1.489261,1.78641 1.658059,2.80609 0.265872,1.60612 0.284451,1.62408 1.680091,1.62408 1.59048,0 2.547401,0.33233 2.910491,1.01078 0.25813,0.4823 0.16337,0.50474 -1.949741,0.46159 -2.04987,-0.0419 -2.20173,-0.009 -1.97045,0.42289 0.311391,0.58183 0.37687,2.81318 0.107932,3.6779 -0.248222,0.79812 -1.147131,2.09976 -1.450092,2.09976 -0.123571,0 -0.429149,-0.53539 -0.67905,-1.18976 z m -60.150679,-4.25832 c -0.75213,-0.95618 -0.93617,-1.78139 -0.60753,-2.72412 0.2569,-0.73696 0.22939,-0.78074 -0.58697,-0.93389 -0.79749,-0.14961 -2.53797,-1.53486 -2.53797,-2.01998 0,-0.68172 2.38533,-0.5381 3.2161,0.19364 0.39338,0.3465 0.45469,0.30966 0.60218,-0.36186 0.0903,-0.4112 0.203,-1.18 0.25042,-1.70845 0.0474,-0.52845 0.4004503,-1.52305 0.7845203,-2.21021 0.3840599,-0.68717 0.6214398,-1.37377 0.52749,-1.52578 -0.1064901,-0.1723 -0.0407,-0.19594 0.1747999,-0.0628 0.21761,0.13449 0.47772,0.0329 0.7023401,-0.27427 0.62967,-0.86113 0.4697299,2.99558 -0.19827,4.78097 -0.3052601,0.81587 -0.5024202,1.53598 -0.43815,1.60025 0.0643,0.0643 0.62665,-0.063 1.24973,-0.28283 0.62308,-0.21984 1.3501698,-0.39971 1.6157498,-0.39971 0.8929503,0 3.1547603,0.57085 3.1547603,0.79622 0,0.5594 -2.95986,1.65257 -4.6998401,1.7358 l -1.7824501,0.0853 -0.15417,1.74271 c -0.1912599,2.16211 -0.5034701,2.54698 -1.2727402,1.56901 z m 53.57177,-0.0727 c -0.11397,-0.18442 -0.135769,-0.40675 -0.0484,-0.49409 0.236792,-0.23679 0.494972,0.11147 0.367081,0.49516 -0.0896,0.26886 -0.15194,0.26865 -0.318641,-0.001 z m -1.310389,-1.95374 c -0.24343,-0.90835 -0.197231,-2.02839 0.10713,-2.59708 0.258159,-0.48238 0.17077,-0.51211 -1.52136,-0.51759 -2.01083,-0.006 -3.52498,-0.56252 -4.54325,-1.66833 l -0.631341,-0.68562 0.691531,-0.31508 c 0.79439,-0.36195 3.77712,0.0231 5.385729,0.69518 0.511601,0.21376 1.03659,0.32288 1.166651,0.2425 0.130069,-0.0804 0.237638,-0.64514 0.239059,-1.25501 0.0011,-0.60988 0.283321,-1.70418 0.626441,-2.43178 0.63887,-1.35474 1.88051,-2.73804 2.184648,-2.4339 0.615921,0.61592 0.0516,4.22729 -0.883528,5.65453 -0.42341,0.64621 -0.363471,0.69812 0.727228,0.62965 0.920512,-0.0578 2.171142,0.4496 2.044512,0.82947 -0.13418,0.40255 -1.69238,0.96289 -2.749272,0.98866 -0.755719,0.0184 -0.854178,0.12637 -1.164709,1.2769 -0.325239,1.20506 -0.91975,2.18281 -1.327219,2.18281 -0.105992,0 -0.264511,-0.26789 -0.35225,-0.59531 z M 23.18037,176.38475 c -0.282249,-0.73556 0.44327,-3.60824 1.14458,-4.53194 0.35973,-0.4738 0.580911,-0.97981 0.4915,-1.12447 -0.0894,-0.14467 -0.74745,-0.26303 -1.46232,-0.26303 -1.30433,0 -3.9697,-0.95996 -4.343159,-1.56422 -0.116131,-0.18791 0.27891,-0.50588 1.05501,-0.84919 1.029729,-0.45549 1.60659,-0.52742 3.392921,-0.42302 1.183749,0.0692 2.414749,0.21237 2.73558,0.3182 0.491819,0.16224 0.609669,0.0739 0.751359,-0.56291 0.32363,-1.45454 0.69251,-2.47511 0.89462,-2.47511 0.355049,0 1.09207,1.94458 1.128659,2.97789 0.0281,0.7947 0.212522,1.12879 0.92134,1.66944 0.701641,0.53516 1.673831,2.08074 1.673831,2.66102 0,0.39326 -1.442199,-0.0439 -2.375749,-0.7202 -1.16346,-0.84281 -1.578761,-0.7579 -1.58895,0.32485 -0.014,1.48427 -1.564632,3.62934 -3.25042,4.49635 -0.922491,0.47445 -1.010282,0.47943 -1.168802,0.0663 z M 5.1909914,173.53694 c 0.65186,-1.42387 1.39951,-2.31646 2.64039,-3.15225 0.56572,-0.38104 0.56949,-0.41656 0.13575,-1.28011 -0.56952,-1.13388 -0.84456,-2.51493 -0.53853,-2.70406 0.37374,-0.23099 1.34317,0.575 2.06288,1.71508 0.6288096,0.99611 0.6860796,1.02564 1.2384696,0.63874 0.62583,-0.43835 3.107249,-0.56636 3.107249,-0.16029 0,0.38737 -1.342909,1.34212 -1.88776,1.34212 -0.649668,0 -0.623898,0.17595 0.18016,1.23012 0.908902,1.19163 1.694701,2.97543 1.701792,3.86311 0.007,0.87007 0.0011,0.87092 -1.33119,0.19125 -0.92103,-0.46987 -2.411451,-2.11005 -2.6976806,-2.96874 -0.0542,-0.16269 -0.60675,0.25549 -1.22783,0.92928 -1.11438,0.21065 -3.8558,1.38694 -3.3837,0.35575 z M 29.976791,162.11531 c -32.4209196,59.25245 -16.21046,29.62622 0,0 z m -2.057619,-1.01588 c -0.469041,-0.53421 -0.8528,-1.08621 -0.8528,-1.22666 0,-0.37038 -0.553421,-0.31304 -1.0375,0.1075 -0.976432,0.84827 -5.600502,1.82888 -5.950871,1.26198 -0.407191,-0.65884 0.62415,-1.8158 2.356109,-2.64312 0.960081,-0.4586 1.948622,-0.83565 2.196741,-0.83787 1.079449,-0.01 1.159459,-0.38598 0.395261,-1.85882 -0.578941,-1.11579 -0.75814,-1.86614 -0.83203,-3.48378 -0.0832,-1.82197 -0.0404,-2.06169 0.368239,-2.06169 0.81253,0 3.03322,2.88529 3.03322,3.94099 0,0.14184 0.118761,0.57027 0.263911,0.95205 0.249839,0.65712 0.295328,0.67215 0.852628,0.28181 0.323781,-0.22679 0.975191,-0.41235 1.44757,-0.41235 0.70358,0 0.829432,0.0837 0.696092,0.46302 -0.229592,0.65308 -1.44241,1.91823 -1.83888,1.91823 -0.61639,0 -0.639882,0.48969 -0.0789,1.6444 0.503592,1.03653 0.52292,1.23719 0.196292,2.03767 l -0.36231,0.88792 z M 8.8101214,152.64099 c 0,-0.89445 0.36498,-1.76771 1.03293,-2.47139 0.3050096,-0.32134 0.5545696,-0.63276 0.5545696,-0.69205 0,-0.0593 -0.8046196,-0.16538 -1.7880496,-0.23574 -0.98342,-0.0704 -2.1701,-0.32551 -2.63707,-0.56698 -1.01365,-0.52418 -2.98321,-2.34823 -2.98321,-2.76282 0,-0.38715 1.58395,-0.67186 2.83842,-0.5102 1.07604,0.13868 4.9397196,1.47438 4.3390796,1.50006 -0.2926796,0.0125 -0.2992196,0.0925 -0.0337,0.4124 0.66284,0.79867 1.18241,0.4612 1.527541,-0.99219 0.274259,-1.15493 0.608139,-1.66343 1.98084,-3.0168 1.924669,-1.89756 2.841619,-2.33058 2.841619,-1.34193 0,1.15218 -1.03778,3.68383 -1.98288,4.8372 -1.054071,1.28636 -1.186971,2.11551 -0.380121,2.37159 0.570611,0.18111 1.566542,1.58234 1.568262,2.20647 0.0021,0.61259 -1.89058,0.0854 -2.78973,-0.77721 -1.046972,-1.00444 -1.345872,-0.97538 -1.55725,0.15141 -0.199041,1.06095 -1.068011,2.12871 -1.9358906,2.37874 -0.50445,0.14532 -0.59531,0.0705 -0.59531,-0.49056 z M 27.9094,151.50254 c -0.324768,-0.26624 -0.86674,-1.1675 -1.204378,-2.0028 -0.494461,-1.22328 -0.576061,-1.76373 -0.41942,-2.77812 0.10695,-0.69267 0.155649,-1.30115 0.10821,-1.35217 -0.0474,-0.051 -0.808961,0.15733 -1.69227,0.46302 -1.678281,0.5808 -4.348141,0.73728 -5.043501,0.29561 -1.027649,-0.65274 3.16783,-2.60927 5.38013,-2.50898 1.191099,0.054 1.267741,0.0193 1.114179,-0.50466 -0.0907,-0.30945 -0.235378,-0.94959 -0.321519,-1.42253 -0.152461,-0.83709 -0.131879,-0.8599 0.77574,-0.8599 1.052811,0 1.253551,0.29766 1.253551,1.85877 v 1.02174 l 1.532358,-0.0217 c 1.539502,-0.0218 2.70098,0.41829 2.70098,1.02349 0,0.43645 -0.747569,0.63189 -2.496968,0.65279 -1.40077,0.0167 -1.479092,0.0518 -1.30775,0.58564 0.622688,1.94012 0.80918,4.51576 0.401838,5.54982 -0.184769,0.46903 -0.209029,0.46903 -0.78118,0 z"
         id="path3090-9"
         inkscape:connector-curvature="0"
         sodipodi:nodetypes="csccccccscscccccsscccccssccccccccccssscscccccccccccssccscccscccccccccccsccccsccscccsscccccsccccccccscccscccccccssccsccscscsccssccccccccccccsssccscccccsccsccscccccccccccccccsccscccscccccccsscsccsscccscssccccccccsscccccccccscssscccssscccscscccscscsssscsccccsccccsccsccssccccssscsscccccccscccscccccccscscccccssscsccsccccscccccsccscccccccccccsccssccccccsscccccssccscccsccscsccscccsssscscccscccccccccsscss" />
      <path
         style="fill:#ffff00;stroke-width:0.26458338"
         d="m 22.162481,242.10413 c -0.758989,-1.25077 -1.138571,-2.3344 -1.161399,-3.31551 l -0.02011,-0.86528 -1.04779,0.53455 c -1.14939,0.58637 -2.49332,0.68403 -3.60371,0.26186 l -0.71719,-0.27267 0.63382,-0.67912 c 0.895728,-0.95972 2.431169,-1.68594 3.56457,-1.68594 0.878268,0 0.95145,-0.0549 0.793988,-0.59532 -0.513458,-1.7623 -0.48373,-3.63802 0.0576,-3.63802 0.294582,0 1.640901,2.15381 1.645632,2.63265 0.008,0.84546 0.39076,1.10951 1.17503,0.81133 0.90669,-0.34473 2.513819,-0.077 2.717059,0.45259 0.194781,0.50761 -0.272489,0.77824 -1.717929,0.995 -1.1157,0.16731 -1.16469,0.21105 -0.98929,0.88338 0.589859,2.261 0.312589,5.33755 -0.481042,5.33755 -0.181059,0 -0.563239,-0.38567 -0.84927,-0.85705 z M 19.06267,225.43217 c -0.0684,-0.46625 0.045,-1.6664 0.252122,-2.66701 0.2071,-1.00061 0.339288,-1.84032 0.293748,-1.86602 -0.0455,-0.0257 -0.801558,-0.3803 -1.680038,-0.788 -1.604901,-0.74481 -3.001412,-2.22343 -2.644862,-2.80035 0.406241,-0.6573 3.579302,-0.0471 4.611182,0.88669 0.64166,0.58069 1.086128,0.52852 1.086128,-0.12748 0,-0.64958 1.462762,-2.20464 1.849162,-1.96584 0.38816,0.2399 0.31073,1.74549 -0.12936,2.51536 -0.53354,0.93332 -0.511281,0.97798 0.590439,1.18466 2.4027,0.45075 2.505811,1.26494 0.185031,1.46117 -1.122511,0.0949 -1.578941,0.24443 -1.615432,0.52917 -0.292309,2.28132 -0.962499,3.56957 -2.20218,4.23302 -0.398859,0.21347 -0.490688,0.12173 -0.59594,-0.59537 z m -20.9206886,-0.45448 c -0.37834,-0.44963 -0.76727,-1.24065 -0.86429,-1.75783 -0.15276,-0.81429 -0.2517,-0.91485 -0.73813,-0.75026 -0.30895,0.10453 -1.21657,0.24468 -2.01694,0.31143 l -1.4552101,0.12136 0.75869,-0.7993 c 0.41728,-0.43961 1.0955001,-0.9388 1.5071601,-1.10932 l 0.74847,-0.31003 -0.52737,-1.33794 c -0.34409,-0.87298 -0.50007,-1.80141 -0.44882,-2.67159 l 0.0785,-1.33364 0.98544,0.8672 c 0.67956,0.59804 1.12667,1.31525 1.44045,2.31067 0.44759,1.41994 0.46818,1.44009 1.26352,1.23645 0.44467996,-0.11385 1.28881996,-0.19411 1.87587996,-0.17835 1.09406004,0.0294 2.76908004,0.7221 2.76908004,1.14517 0,0.2768 -2.15833,1.01167 -3.30729004,1.12607 -0.78798,0.0785 -0.79376,0.091 -0.79545,1.72114 -0.002,2.10792 -0.35608,2.49934 -1.27373996,1.40877 z m 7.12457,-10.48086 c -0.0883,-0.23018 -0.1606,-0.76902 -0.1606,-1.19742 v -0.7789 l -0.82352,0.42586 c -0.92862,0.48021 -3.40236004,0.80706 -4.09539004,0.54112 -1.06007,-0.40678 1.93919004,-2.50383 4.15799004,-2.90721 0.92225,-0.16767 0.96571,-0.22594 1.13819,-1.52622 0.18091,-1.36375 1.55214,-4.45746 1.97569,-4.45746 0.70087,0 1.14552,2.95221 0.70734,4.69635 -0.21166,0.84251 -0.19796,0.85998 0.67694,0.86395 0.49114,0.002 1.07057,0.11633 1.2876396,0.25357 0.731341,0.46237 -0.1756296,0.933 -1.7980096,0.933 h -1.50707 l -0.14461,1.19063 c -0.13704,1.1284 -0.70598,2.38125 -1.08136,2.38125 -0.095,0 -0.2449,-0.18833 -0.33323,-0.41852 z m 32.9130006,-1.06755 c -0.65518,-0.59191 -1.234292,-1.44996 -1.51829,-2.24958 l -0.459121,-1.29267 -2.12049,0.0668 c -2.005521,0.0632 -3.840279,-0.34716 -3.840279,-0.85879 0,-0.48935 2.676678,-1.3234 4.247099,-1.3234 1.57085,0 1.62863,-0.0235 1.462601,-0.59531 -0.36331,-1.2513 -0.482301,-3.30249 -0.201631,-3.47595 0.344461,-0.21289 1.564,1.79463 1.79655,2.95735 0.14917,0.74588 0.224581,0.80326 0.71252,0.54212 0.775621,-0.4151 3.34866,-0.98345 3.481221,-0.76896 0.26914,0.43548 -0.615802,1.52143 -1.676,2.05673 -0.635831,0.32102 -1.20581,0.63344 -1.266622,0.69426 -0.0608,0.0608 0.153731,0.55853 0.476761,1.10603 0.59322,1.00543 1.064969,3.14843 0.828659,3.76426 -0.218159,0.5685 -0.820108,0.37352 -1.922978,-0.62285 z m -13.759011,-6.6546 c 0,-0.25726 0.29241,-0.89806 0.64979,-1.42401 l 0.649801,-0.95626 -1.64198,-0.59688 c -1.632882,-0.59358 -3.52615,-2.16051 -3.21627,-2.6619 0.243959,-0.39473 2.662619,-0.27809 3.884028,0.1873 0.621411,0.23678 1.344832,0.67488 1.607611,0.97357 l 0.477771,0.54308 0.614598,-0.64284 c 1.056852,-1.10544 1.782371,-1.6188 2.632282,-1.86255 0.843539,-0.24192 3.073619,-0.32779 3.073619,-0.11834 0,0.0644 -0.235561,0.5164 -0.523449,1.00435 -0.563552,0.95514 -1.446112,1.69452 -2.916142,2.44301 -1.256149,0.6396 -1.23756,0.58388 -0.466688,1.39917 0.875768,0.92623 1.088239,2.08663 0.35896,1.96047 -0.70671,-0.12226 -1.716662,-0.82181 -2.028981,-1.40539 -0.345149,-0.6449 -0.69623,-0.62345 -0.911789,0.0557 -0.156961,0.49453 -1.55371,1.56581 -2.044721,1.56825 -0.10914,5.3e-4 -0.19844,-0.20949 -0.19844,-0.46676 z m 19.875161,-15.52441 c -0.1628,-0.64652 -0.295992,-1.49385 -0.295992,-1.88294 0,-0.61569 -0.0772,-0.68187 -0.59532,-0.51026 -0.327419,0.10845 -1.146429,0.25192 -1.820018,0.31882 -1.329302,0.13201 -2.876331,-0.45449 -2.876331,-1.09045 0,-0.6158 2.56172,-1.32269 4.56406,-1.25941 0.697921,0.0221 0.99219,-0.0807 0.99219,-0.34643 0,-1.4759 0.67155,-3.21596 1.651421,-4.27899 0.583988,-0.63356 1.165698,-1.15193 1.292691,-1.15193 0.530098,0 0.0814,3.57944 -0.66448,5.30106 -0.147312,0.33998 0.0803,0.40473 1.395359,0.39687 1.830988,-0.011 2.147459,0.18396 1.48585,0.91503 -0.34666,0.38306 -0.818729,0.53192 -1.696119,0.53484 -1.585683,0.005 -1.955631,0.25289 -1.728711,1.157 0.213889,0.85221 -0.55572,3.07228 -1.06503,3.07228 -0.188971,0 -0.476779,-0.52897 -0.63957,-1.17549 z m -31.75246,-1.01367 c -0.301091,-0.62195 -0.62425,-1.51492 -0.71814,-1.98437 -0.193982,-0.96992 -0.345792,-1.01604 -1.455491,-0.44219 -0.4580296,0.23686 -1.2661996,0.37716 -1.9050896,0.33073 l -1.10961,-0.0806 1.09335,-1.12448 c 0.63908,-0.65727 1.33754,-1.12448 1.6810596,-1.12448 0.56497,0 0.55645,-0.0356 -0.2204096,-0.92038 -0.44446,-0.50621 -0.88439,-1.36942 -0.97764,-1.91823 -0.0932,-0.54882 -0.27704,-1.41457 -0.40845,-1.92389 -0.34225,-1.32658 -0.34701,-1.32165 0.8292,-0.85962 1.4255196,0.55996 2.4904506,1.69584 3.2040506,3.41754 0.415959,1.00357 0.70672,1.38242 0.999958,1.30288 1.50105,-0.40716 3.062861,-0.41927 4.388032,-0.034 0.797169,0.23174 1.44916,0.50732 1.44888,0.61239 -2.62e-4,0.10508 -0.591381,0.59376 -1.313551,1.08596 -1.13725,0.77511 -1.51362,0.89029 -2.811351,0.86038 l -1.498319,-0.0345 0.16928,1.05859 c 0.15109,0.94483 -0.33923,2.90921 -0.726149,2.90921 -0.0672,0 -0.36853,-0.50887 -0.66961,-1.13083 z m -23.790701,-0.83616 c -0.43879,-0.49976 -0.8786,-1.16321 -0.97735,-1.47434 -0.10429,-0.32859 -0.32893,-0.50836 -0.53596,-0.42892 -1.0522,0.40377 -2.55339,0.69731 -2.79678,0.54689 -0.35666,-0.22043 0.72572,-1.40794 1.58587,-1.73989 l 0.63383,-0.24461 -0.5399,-0.58721 c -1.20163,-1.30694 -1.65179,-2.40068 -1.65281,-4.01575 l -9.9e-4,-1.57644 1.18324,1.16126 c 0.65078,0.63869 1.51398,1.79429 1.91823,2.568 0.77257,1.47866 0.97149,1.63678 1.31716,1.04697 0.44146,-0.75327 1.9007702,-1.24163 3.5192101,-1.17772 0.87294,0.0345 1.5871603,0.15842 1.5871603,0.27543 0,0.58908 -1.9156601,2.20983 -3.0785901,2.60465 -0.9883203,0.33554 -1.2714203,0.55298 -1.2197903,0.93688 0.037,0.27495 0.14286,1.06546 0.23529,1.75669 0.2030301,1.51835 -0.0775,1.60127 -1.17782,0.34811 z m 26.839241,-6.15621 c -0.318551,-0.31855 -0.164481,-1.28219 0.36209,-2.26465 0.291039,-0.54303 0.529018,-1.01751 0.528828,-1.05442 -1.88e-4,-0.0369 -0.922928,-0.0671 -2.050518,-0.0671 -1.954882,0 -3.769971,-0.45917 -3.769971,-0.95369 0,-0.12541 0.591351,-0.52769 1.314119,-0.89394 1.46504,-0.74239 2.971271,-0.84428 3.977542,-0.26904 0.9315,0.53249 1.05814,0.49298 1.05981,-0.33073 0.003,-1.58358 0.57949,-2.84326 1.876149,-4.10104 0.712589,-0.69123 1.415079,-1.25677 1.561079,-1.25677 0.14601,0 0.26543,0.62508 0.265401,1.38906 -4e-5,1.03503 -0.19967,1.75995 -0.783249,2.84427 -0.43076,0.80037 -0.787921,1.52883 -0.793691,1.61881 -0.006,0.09 0.470291,0.22809 1.05792,0.3069 1.107321,0.14853 2.371169,0.81222 2.371169,1.24519 0,0.13656 -0.506018,0.38829 -1.124479,0.5594 -1.34171,0.37122 -1.45719,0.37833 -2.380869,0.1465 -0.64362,-0.16154 -0.760312,-0.0783 -1.129842,0.80612 -0.606758,1.45218 -1.903979,2.71264 -2.341488,2.27513 z m 15.72233,-1.68443 c -0.292571,-0.64492 -0.53457,-1.61679 -0.537761,-2.15972 -0.005,-0.82386 -0.112739,-1.01399 -0.652229,-1.14939 -0.355531,-0.0892 -0.76835,-0.0869 -0.917382,0.005 -0.149029,0.0921 -0.871839,0.0878 -1.606238,-0.01 -1.157301,-0.15352 -1.290701,-0.23088 -1.00085,-0.58041 0.630769,-0.76064 1.96423,-1.13795 3.111008,-0.88028 1.013661,0.22775 1.071552,0.20607 1.230561,-0.46092 0.19956,-0.83702 0.5363,-1.29631 1.21788,-1.66108 0.47003,-0.25155 0.500351,-0.17992 0.426111,1.00664 -0.0777,1.24143 -0.0577,1.27998 0.706348,1.36701 1.76866,0.20145 1.694691,1.08877 -0.0915,1.09702 -0.777211,0.004 -0.857041,0.0692 -0.697072,0.57322 0.33927,1.06897 0.200692,3.16728 -0.238159,3.60613 -0.382019,0.38202 -0.465529,0.31581 -0.950759,-0.75377 z m -33.6164906,-5.94358 c 0,-0.22295 0.17859,-0.8328 0.39688,-1.35522 0.21828,-0.52243 0.39687,-1.03553 0.39687,-1.14025 0,-0.10472 -0.50601,-0.33905 -1.12448,-0.52074 -1.03891,-0.3052 -2.84427,-1.6931 -2.84427,-2.18657 0,-0.11697 0.63711,-0.21268 1.4158,-0.21268 1.00793,0 1.77985,0.19357 2.67949,0.67191 0.69501996,0.36955 1.28466996,0.63744 1.31032996,0.59531 0.0256,-0.0421 0.25829,-0.56391 0.51696,-1.15952 0.55513004,-1.27822 2.88234004,-3.26124 3.03160004,-2.58323 0.17497,0.79481 -0.24292,2.16108 -1.01059,3.30412 l -0.77512,1.15413 0.83458,0.39771 c 0.45903,0.21873 1.05523,0.77693 1.32489,1.24043 l 0.4903,0.84272 -1.26433,-0.13903 c -0.69537,-0.0765 -1.5782,-0.30134 -1.96182,-0.49972 -0.64821004,-0.3352 -0.71842004,-0.31477 -0.99357004,0.2891 -0.26652,0.58496 -1.72537996,1.70343 -2.22507996,1.70592 -0.10914,5.3e-4 -0.19844,-0.18143 -0.19844,-0.40439 z m 35.9833316,-7.86374 c 0,-0.33816 0.237188,-1.08004 0.527068,-1.64864 0.52347,-1.02675 0.405709,-1.4435 -0.411221,-1.45528 -0.57245,-0.008 -2.40497,-1.04233 -3.1335,-1.7682 l -0.75211,-0.74939 1.14944,-0.0842 c 1.24818,-0.0914 3.236302,0.35904 4.06826,0.92181 0.74449,0.5036 0.869723,0.45113 1.067001,-0.44706 0.293219,-1.33502 2.19868,-3.16866 3.292761,-3.16866 0.69274,0 -0.0694,2.53321 -1.088551,3.61802 l -0.547259,0.58253 0.890619,0.37675 c 0.978651,0.41398 1.976011,1.38061 1.635461,1.58506 -0.20369,0.12228 -1.75709,-0.10616 -3.289771,-0.4838 -0.58561,-0.14429 -0.71869,-0.0677 -0.859819,0.49455 -0.193022,0.76906 -1.318062,2.18289 -2.047751,2.57341 -0.424349,0.22711 -0.500628,0.17426 -0.500628,-0.34689 z M 14.0151,167.12564 c -1.084969,-0.71002 -1.76539,-1.96896 -1.76539,-3.26638 0,-0.91787 -0.1114,-0.9498 -1.414399,-0.40537 -1.0719396,0.44788 -4.0677096,0.5269 -4.6710196,0.12321 -0.34283,-0.22939 -0.32481,-0.32298 0.13229,-0.6872 0.9389,-0.74812 2.62447,-1.38889 3.8716696,-1.47182 l 1.21605,-0.0809 -0.106691,-1.5875 c -0.0788,-1.17198 0.003,-1.72567 0.310862,-2.11538 0.358809,-0.45362 0.45316,-0.47223 0.670729,-0.13229 0.370851,0.57943 0.781079,2.13869 0.78278,2.97528 0.0021,0.72464 0.585611,1.01624 0.927521,0.46302 0.197448,-0.31949 2.240529,-0.34571 2.730479,-0.035 0.464,0.2942 -0.95504,1.51016 -2.040649,1.7486 l -0.77805,0.17089 0.519629,1.1747 c 0.460671,1.04144 0.998579,3.84505 0.729919,3.80445 -0.0566,-0.009 -0.558729,-0.31381 -1.11573,-0.67831 z m 21.419982,-6.6589 c -0.41492,-0.67135 -0.444781,-2.39403 -0.0606,-3.49514 0.228489,-0.65485 0.41716,-1.26946 0.41928,-1.36581 0.0021,-0.0964 -0.465061,-0.2544 -1.03818,-0.35123 -1.166522,-0.19708 -2.667252,-1.23654 -3.292851,-2.28073 -0.493789,-0.8242 -0.345559,-1.02981 0.74096,-1.02784 1.263129,0.002 2.846509,0.51479 3.789871,1.2267 l 0.857408,0.64704 0.43216,-1.08006 c 0.42962,-1.07373 1.495671,-1.89727 2.152502,-1.66285 0.498808,0.17803 0.39543,1.4198 -0.199422,2.39544 -0.290499,0.47646 -0.528179,0.91104 -0.528179,0.96573 0,0.0547 0.419441,0.0994 0.9321,0.0994 0.51266,0 1.24128,0.20258 1.619171,0.45019 l 0.68707,0.45018 -0.75928,0.50057 c -0.82999,0.5472 -2.227922,0.65708 -3.013141,0.23685 -0.43919,-0.23505 -0.518809,-0.14747 -0.661419,0.7276 -0.42313,2.59628 -1.51638,4.47177 -2.077461,3.56392 z M 4.3195014,157.86317 c -0.83129,-0.69948 -2.12396,-2.91806 -2.12396,-3.64529 0,-0.66527 -0.54175,-0.76575 -1.14407,-0.2122 -1.28001004,1.17636 -2.3975,1.641 -3.94916,1.64201 -0.83675,5.6e-4 -1.52135,-0.10291 -1.52135,-0.2299 0,-0.34631 2.20464,-2.31003 3.1316,-2.78938 0.44597996,-0.23062 1.05489996,-0.41931 1.35316996,-0.41931 0.64648,0 0.69937,-0.33403 0.12799,-0.80823 -0.49313,-0.40926 -1.23969996,-1.78897 -1.12311,-2.07556 0.1648,-0.40504 1.7888,0.26544 2.59452004,1.07117 l 0.82703,0.82703 0.84388,-0.81182 c 0.86683,-0.83391 2.05419,-1.29559 2.54766,-0.99061 0.39778,0.24584 -0.30758,1.50966 -1.31628,2.35842 l -0.82213,0.69178 0.5797,0.81411 c 0.72341,1.01594 1.31013,2.92255 1.31013,4.25742 0,1.20062 -0.20901,1.25151 -1.31562,0.32036 z"
         id="path3088-9"
         inkscape:connector-curvature="0" />
    </g>
  </g>
</svg>
