<?xml version="1.0" encoding="UTF-8" standalone="no"?>
<!-- Created with Inkscape (http://www.inkscape.org/) -->

<svg
   xmlns:dc="http://purl.org/dc/elements/1.1/"
   xmlns:cc="http://creativecommons.org/ns#"
   xmlns:rdf="http://www.w3.org/1999/02/22-rdf-syntax-ns#"
   xmlns:svg="http://www.w3.org/2000/svg"
   xmlns="http://www.w3.org/2000/svg"
   xmlns:sodipodi="http://sodipodi.sourceforge.net/DTD/sodipodi-0.dtd"
   xmlns:inkscape="http://www.inkscape.org/namespaces/inkscape"
   version="1.1"
   id="svg2949"
   width="283"
   height="443"
   viewBox="0 0 283 443"
   sodipodi:docname="serpentins2.svg"
   inkscape:version="0.92.4 (5da689c313, 2019-01-14)">
  <metadata
     id="metadata2955">
    <rdf:RDF>
      <cc:Work
         rdf:about="">
        <dc:format>image/svg+xml</dc:format>
        <dc:type
           rdf:resource="http://purl.org/dc/dcmitype/StillImage" />
        <dc:title></dc:title>
      </cc:Work>
    </rdf:RDF>
  </metadata>
  <defs
     id="defs2953" />
  <sodipodi:namedview
     pagecolor="#ffffff"
     bordercolor="#666666"
     borderopacity="1"
     objecttolerance="10"
     gridtolerance="10"
     guidetolerance="10"
     inkscape:pageopacity="0"
     inkscape:pageshadow="2"
     inkscape:window-width="1280"
     inkscape:window-height="972"
     id="namedview2951"
     showgrid="false"
     inkscape:zoom="1.5067919"
     inkscape:cx="112.64858"
     inkscape:cy="221.5"
     inkscape:window-x="-8"
     inkscape:window-y="-8"
     inkscape:window-maximized="1"
     inkscape:current-layer="g180"
     showguides="false" />
  <g
     id="g151"
     transform="translate(25.882805,-2.654647)">
    <g
       id="g180"
       transform="translate(23.228158,-38.492376)">
      <path
         style="fill:#d45500"
         d="m 106.91787,335.3073 c -1.32466,-1.89093 -1.77888,-2.04512 -2.56996,-0.87241 -0.70867,1.05055 -1.59063,-0.65571 -3.35979,-6.5 -2.589337,-8.55365 -2.677057,-8.6273 -12.908977,-10.83754 -2.05834,-0.44463 -3.34742,-2.03417 -5.83863,-7.19954 -4.16101,-8.62759 -3.67751,-11.90219 2.52262,-17.08485 2.4514,-2.04912 4.7131,-4.53229 5.026,-5.51815 0.3129,-0.98587 1.77551,-2.45345 3.25024,-3.26129 l 2.68133,-1.4688 -3.17681,0.58321 c -1.97237,0.36209 -5.65343,-0.21691 -9.7091,-1.52716 -3.59276,-1.1607 -7.15921,-2.11036 -7.92545,-2.11036 -2.3021,0 -13.72889,-9.31219 -14.32083,-11.67067 -0.38132,-1.5193 0.62867,-3.88566 3.29101,-7.7107 2.11265,-3.03528 4.32962,-5.72364 4.92661,-5.97412 0.59698,-0.25049 2.50948,0.44621 4.25,1.54823 2.76245,1.74906 3.16457,2.55765 3.16457,6.36331 0,4.08912 0.27064,4.51825 4.3615,6.91565 4.61944,2.70717 11.64812,3.79345 12.32092,1.90419 0.22018,-0.61826 -0.7433,-2.48322 -2.14105,-4.14436 -2.98382,-3.54606 -3.19331,-4.95933 -0.80335,-5.41959 0.98391,-0.18949 -0.20928,-0.92294 -2.75,-1.69043 -10.84555,-3.27616 -14.80391,-5.2616 -15.85371,-7.95193 -1.66633,-4.2703 -1.57495,-8.36332 0.28672,-12.84241 1.87053,-4.50042 3.68856,-5.74455 6.90339,-4.7242 1.75636,0.55744 1.61675,0.10511 -0.99612,-3.22733 -3.82258,-4.87529 -4.65785,-9.00918 -2.54354,-12.58842 1.61011,-2.72569 2.77907,-3.17262 11.37642,-4.34957 4.03301,-0.5521 4.80791,-0.36392 5.75,1.39638 2.01798,3.77064 1.36672,5.16597 -2.41118,5.16597 -3.81708,0 -4.62095,1.73619 -2.01188,4.34526 2.29464,2.29465 6.7241,0.69276 7.64919,-2.76627 0.58647,-2.19291 0.0643,-4.02399 -2.38545,-8.36468 -2.49279,-4.41698 -3.16485,-6.8227 -3.27554,-11.72518 -0.0766,-3.3924 0.30288,-7.25275 0.84327,-8.57856 0.93265,-2.28821 1.02269,-2.20754 1.77384,1.58943 0.43522,2.2 0.81724,5.92255 0.84894,8.27234 0.0476,3.52657 0.73449,5.01032 3.93518,8.5 2.132654,2.32521 4.784277,5.93075 5.892507,8.0123 1.97335,3.70648 1.97699,3.86324 0.1763,7.59024 -1.01126,2.09308 -3.484283,5.06078 -5.495617,6.5949 -3.30691,2.5223 -4.21831,2.7384 -9.52126,2.25754 -3.22536,-0.29246 -5.77889,-0.23826 -5.6745,0.12046 0.10438,0.35872 -0.63704,1.88972 -1.64761,3.40222 -1.71618,2.56859 -1.72933,2.91491 -0.19933,5.25 3.50693,5.35225 18.568564,2.55472 23.495087,-4.36396 2.49551,-3.50462 2.55806,-4.34351 0.60541,-8.11953 -1.34295,-2.59698 -1.32193,-3.17958 0.21111,-5.85074 1.61883,-2.82065 1.60827,-3.14168 -0.21468,-6.52669 -1.05449,-1.95807 -1.62907,-3.84831 -1.27685,-4.20053 0.70589,-0.70589 8.77188,3.52558 8.77188,4.60179 0,0.36963 1.575,2.73477 3.5,5.25587 4.16357,5.45286 4.29994,7.29272 1,13.49164 -1.375,2.58293 -2.5,5.46076 -2.5,6.39518 0,0.93441 -0.44758,1.97556 -0.99462,2.31365 -0.54704,0.33809 -1.46004,1.60214 -2.02889,2.80901 -1.02117,2.16654 -1.01337,2.16584 0.6166,-0.0557 0.90797,-1.2375 2.39894,-2.25 3.31327,-2.25 1.89391,0 5.09364,4.85344 5.09364,7.72615 0,2.14972 -2.5527,10.52715 -4.30582,14.13081 -1.46379,3.00891 -11.36432,10.13823 -14.10697,10.15835 -1.14796,0.008 -2.762203,0.49031 -3.587207,1.07086 -1.15037,0.8095 -0.74246,0.96285 1.750004,0.65788 5.251653,-0.64258 4.420693,3.28383 -2.030074,9.59233 -6.46369,6.32114 -8.13066,9.66805 -6.54673,13.1444 1.46053,3.20552 3.58195,3.81496 8.961787,2.57455 6.11493,-1.40991 7.86501,-1.29504 7.86501,0.51624 0,1.12262 0.77763,1.4797 2.72217,1.25 2.54451,-0.30058 2.77593,-0.003 3.54586,4.56376 0.68136,4.04116 0.35873,6.37393 -1.86711,13.5 -1.47994,4.73807 -3.00668,8.97327 -3.39275,9.41156 -0.38608,0.43829 -1.42603,-0.23671 -2.311,-1.5 z m 1.2184,-72.51094 c 0.62669,-1.37544 0.85032,-4.01692 0.49874,-5.89102 l -0.63738,-3.39753 -3.88846,2.18544 c -4.193003,2.3566 -4.793363,4.05512 -2.31082,6.53766 0.8677,0.86771 1.36839,2.37782 1.11265,3.35581 -0.39813,1.52242 -0.1375,1.62894 1.81208,0.74065 1.25239,-0.57063 2.78833,-2.15958 3.41319,-3.53101 z m 74.08443,38.05906 c 0,-2.50876 -0.10072,-2.56384 -1.82874,-1 -2.80708,2.54038 -3.40758,2.01322 -2.67126,-2.34501 0.44427,-2.62959 0.30308,-4 -0.4121,-4 -0.59835,0 -1.0879,-1.125 -1.0879,-2.5 0,-2.61568 -0.63545,-2.85707 -6.66556,-2.53197 -5.19625,0.28013 -9.10089,-2.38696 -10.36446,-7.07952 -1.27885,-4.74928 -0.75928,-6.83503 1.74864,-7.01963 0.97976,-0.0721 -0.80677,-0.46274 -3.97006,-0.86806 -14.13612,-1.81131 -21.50856,-13.28777 -17.28004,-26.89932 0.95708,-3.08082 2.57539,-6.51155 3.59625,-7.62383 1.69722,-1.84923 1.73484,-2.36281 0.43955,-6 -1.80827,-5.07768 -1.86968,-9.59575 -0.16216,-11.93093 1.28153,-1.75259 1.41707,-1.72858 3,0.53138 0.91181,1.30179 1.65784,4.00341 1.65784,6.0036 0,2.80547 0.89463,4.65305 3.91409,8.08334 4.47015,5.07836 8.39343,6.62127 15.71932,6.18194 9.01923,-0.54087 12.70798,-3.15893 8.90168,-6.31788 -1.8576,-1.54167 -15.4513,-1.48005 -18.88756,0.0856 -3.15634,1.43812 -5.64753,0.55043 -5.64753,-2.0124 0,-1.53381 1.25127,-2.30976 5.75,-3.56575 3.1625,-0.88292 7.325,-2.23222 9.25,-2.99844 6.16283,-2.45301 8.82457,-2.60456 15.64667,-0.89091 10.58363,2.65852 12.41418,5.9431 8.08164,14.50097 l -2.27169,4.48716 2.17144,-0.4151 c 1.6622,-0.31775 3.133,0.80138 6.27169,4.77212 5.76527,7.29361 5.56383,9.79384 -1.35063,16.76367 -6.00455,6.05262 -10.93164,7.80545 -17.12991,6.09402 -4.3463,-1.20007 -5.03925,-2.48319 -2.76717,-5.12385 l 1.84796,-2.14773 -3,1.93763 c -1.65,1.0657 -5.025,2.94647 -7.5,4.17948 -2.475,1.23302 -3.78473,2.25592 -2.91052,2.27312 0.87422,0.0172 2.0829,1.11418 2.68595,2.43775 1.3364,2.93308 5.46371,3.98608 10.21797,2.60692 5.59057,-1.62177 7.23918,-1.21639 11.99568,2.94966 4.24832,3.72096 4.42914,4.09059 3.37167,6.89217 -1.42408,3.77281 -8.61992,15.09659 -9.61075,15.12401 -0.4125,0.0114 -0.75,-1.17398 -0.75,-2.63423 z m 6.80278,-40.5963 c 1.75971,-1.46042 0.88658,-6.05687 -1.79912,-9.47119 -1.53786,-1.95507 -1.74737,-2.8814 -0.88634,-3.91889 1.37207,-1.65324 0.46788,-1.74219 -2.35461,-0.23164 -1.15819,0.61985 -4.84111,1.97453 -8.18426,3.01041 -4.4342,1.37394 -5.08719,1.76611 -2.41398,1.44976 4.43704,-0.52509 6.64745,1.47897 7.51279,6.81144 0.44322,2.73124 0.13109,4.15569 -1.24342,5.6745 -1.81307,2.00342 -1.77592,2.00246 3.08207,-0.0799 2.70448,-1.15928 5.53358,-2.61929 6.28687,-3.24447 z m -18.7711,1.08583 c 3.50597,-2.13211 3.69486,-3.21225 0.90363,-5.1673 -2.68258,-1.87895 -5.74097,-1.0383 -6.12912,1.6847 -0.35788,2.51069 -4.51676,3.40851 -7.75674,1.67453 -2.92855,-1.56732 -2.57698,-2.83431 1.99266,-7.18131 3.02776,-2.88024 3.59239,-3.85067 2.25,-3.86712 -2.00772,-0.0246 -8.67546,-3.09464 -11.91481,-5.48594 -2.10719,-1.55555 -2.12373,-1.51658 -2.26458,5.3359 -0.10439,5.07834 0.25844,7.23515 1.37269,8.15989 0.83303,0.69135 1.51459,1.82877 1.51459,2.5276 0,1.99506 7.01883,4.43712 12.28168,4.27316 2.62992,-0.0819 6.11742,-0.96128 7.75,-1.95411 z m -1.30251,-11.43871 c -0.3323,-0.33229 -1.1948,-0.36781 -1.91667,-0.0789 -0.79773,0.31922 -0.56078,0.55618 0.60417,0.60416 1.05416,0.0434 1.64479,-0.19293 1.3125,-0.52522 z M 29.268928,285.43606 c -4.508755,-6.60725 -5.447654,-7.31766 -7.761474,-5.87266 -1.464588,0.91465 -2.898257,0.81871 -6.613308,-0.44259 -2.608836,-0.88572 -5.7401113,-1.61729 -6.9583903,-1.62571 -3.535356,-0.0244 -4.425194,-1.11543 -6.104722,-7.48469 -1.49341,-5.66345 -1.478992,-6.13988 0.257053,-8.49381 1.011564,-1.37159 4.006284,-3.60902 6.654932,-4.97206 l 4.8157243,-2.47826 -3.6959423,-0.7679 c -8.650806,-1.79737 -11.4998441,-6.82438 -8.01242,-14.13759 1.440912,-3.02162 2.473385,-3.66262 8.9136843,-5.53392 4.006203,-1.16405 7.965187,-2.11646 8.797742,-2.11646 2.346697,0 5.098656,4.19549 7.110573,10.8404 2.248911,7.42765 1.346977,10.33002 -4.500851,14.48344 -2.186711,1.55312 -4.660947,4.1487 -5.498302,5.76797 -1.640497,3.17237 -1.875775,2.83589 3.065145,4.38359 0.834718,0.26146 3.09021,-0.2745 5.012203,-1.19104 l 3.494534,-1.66642 3.987797,3.89398 c 2.193288,2.14168 3.987797,4.47765 3.987797,5.19103 0,0.71338 0.60472,1.29705 1.343823,1.29705 1.004556,0 1.370072,2.02154 1.447795,8.00724 0.100332,7.72688 0.03353,7.96955 -1.907745,6.93061 -1.362603,-0.72924 -2.405252,-0.75003 -3.23135,-0.0644 -0.892313,0.74055 -2.127992,-0.31893 -4.604298,-3.94777 z M 18.720703,243.42708 c 0,-1.7801 -0.623049,-2.50482 -2.365335,-2.75133 -3.8344,-0.54252 -5.06397,1.62589 -2.233284,3.93852 2.959067,2.41751 4.598619,1.99424 4.598619,-1.18719 z m -28.2839843,7.41629 c -1.2561907,-0.26453 -4.0686907,-2.33832 -6.2499997,-4.60841 -3.744111,-3.8965 -3.966016,-4.47158 -3.966016,-10.27811 0,-7.22374 2.585863,-12.04745 7.744355,-14.44644 1.8198,-0.84631 3.0141067,-2.04474 2.7405307,-2.75 -0.266687,-0.6875 -0.7338517,-1.86199 -1.0381437,-2.60998 -0.626083,-1.53899 4.1134517,-7.65772 5.8921517,-7.60675 2.050078,0.0587 5.661106,3.72403 5.661106,5.74618 0,4.92378 14.4759343,2.31494 21.0068403,-3.78584 2.709139,-2.53071 2.804469,-2.89918 1.787085,-6.90736 -2.491262,-9.8148 6.575151,-8.84384 11.87231,1.27145 1.878096,3.58636 1.133396,6.66198 -2.658857,10.98112 l -2.963724,3.37549 2.463126,-0.47086 c 1.912832,-0.36566 3.485648,0.53723 7.039947,4.04132 4.055827,3.99853 4.641368,5.13758 5.143859,10.00624 0.539195,5.2243 0.425998,5.58529 -2.305221,7.35154 -1.579743,1.0216 -3.775209,2.87043 -4.878813,4.10852 -1.103603,1.23809 -3.409569,2.51994 -5.124368,2.84856 -2.829376,0.54222 -3.222557,0.29703 -4.25,-2.65029 -1.549714,-4.44551 -1.545418,-4.46177 2.072748,-7.84324 l 3.204931,-2.99527 -2.220305,-4.44573 c -3.39797,-6.80377 -3.863238,-6.96796 -11.695338,-4.12714 -8.220241,2.9816 -18.4652563,2.98435 -23.1542003,0.006 -1.562011,-0.9921 -2.27752,-1.2054 -1.59002,-0.474 1.504464,1.60053 1.65882,4.92982 0.228561,4.92982 -0.561791,0 -1.533395,1.12362 -2.159119,2.49694 -0.928471,2.03777 -0.790193,3.14218 0.751952,6.00577 1.039298,1.92986 2.638452,3.7465 3.553674,4.03698 1.0284969,0.32644 1.84107295,1.94742 2.12756495,4.24423 0.25493805,2.04384 0.35814505,3.84782 0.22934805,4.00884 -0.49192905,0.61501 -7.085372,0.9994 -9.265965,0.5402 z m 106.9596943,-11.64593 -2.17293,-2.31297 2.95812,-2.18703 c 3.672907,-2.7155 4.675307,-2.7353 6.074987,-0.11997 0.86054,1.60793 0.75218,2.60745 -0.48787,4.5 -1.99278,3.04137 -3.59938,3.07162 -6.372307,0.11997 z m 55.217997,-15.091 c -4.11751,-1.91176 -5.53237,-3.25102 -7.30665,-6.9162 -1.94627,-4.02044 -2.0676,-5.04389 -1.05068,-8.86258 0.63232,-2.37449 1.80205,-5.04894 2.59939,-5.94322 2.23344,-2.50498 2.68993,-7.92899 1.06336,-12.63497 -0.81,-2.34352 -1.14254,-4.46502 -0.73896,-4.71444 1.01785,-0.62907 5.67411,4.50754 6.46533,7.13228 0.7157,2.37427 -0.83729,10.07225 -3.02493,14.99423 -1.87836,4.22611 -1.77186,5.60714 0.67201,8.71401 2.97253,3.77896 7.34789,3.51835 12.37838,-0.73728 3.87775,-3.28047 3.91056,-3.36401 1.77052,-4.50933 -3.09039,-1.65393 -6.84078,-0.408 -9.76404,3.24374 -2.4355,3.04242 -2.55653,3.07877 -3.98462,1.1966 -2.17181,-2.86237 -1.84951,-4.15533 2.0706,-8.30655 l 3.54343,-3.75232 8.70657,0.24373 c 7.99439,0.22378 8.89501,0.45838 11.01012,2.868 2.85936,3.2575 2.25701,7.22285 -1.89743,12.49116 -2.65554,3.36753 -5.75075,4.82161 -15.90611,7.47245 -0.825,0.21535 -3.79783,-0.67534 -6.60629,-1.97931 z M -2.0636894,207.60612 c -2.7634399,-4.67813 -2.2088209,-7.98014 1.9639101,-11.69243 4.548832,-4.04689 11.7799363,-7.85539 13.2223053,-6.96396 0.636119,0.39315 0.858076,0.0986 0.543467,-0.7213 -0.292491,-0.76222 -3.099837,-2.43387 -6.2385463,-3.71478 -11.144137,-4.54793 -14.183095,-11.76102 -7.607655,-18.05707 3.5933,-3.44063 3.598123,-3.45693 2.998767,-10.13431 -0.330177,-3.67848 -1.038629,-7.84098 -1.574338,-9.25 -0.632544,-1.66372 -0.632112,-2.56186 0.00123,-2.56186 0.536387,0 0.975249,0.46822 0.975249,1.04049 0,0.57227 0.936808,2.3076 2.081795,3.85627 1.318915,1.78393 2.278691,4.98718 2.619097,8.74125 0.48745,5.37568 0.288224,6.22147 -2.147232,9.11585 -3.892202,4.62562 -3.302267,9.21181 1.44634,11.24394 9.8862553,4.23075 17.5794883,8.78045 18.9371003,11.19921 1.297162,2.31105 1.302965,2.98591 0.04587,5.3348 -3.845087,7.18462 -15.9553253,15.46819 -22.6138543,15.46819 -2.182343,0 -3.37911405,-0.74691 -4.6535081,-2.90429 z m 10.5840521,-8.74939 c 3.0301693,-1.56574 5.5985863,-4.05902 5.6685373,-5.5027 0.07064,-1.45799 -4.102935,0.56522 -7.6727663,3.7195 -4.091088,3.61487 -3.154039,4.44858 2.004229,1.7832 z M 111.65177,196.37439 c -3.04789,-6.01472 -2.74008,-10.28561 0.99414,-13.79372 2.32647,-2.1856 2.4953,-2.20181 5.93442,-0.56985 3.42228,1.62398 5.64037,1.39995 5.64037,-0.56968 0,-0.52318 -1.575,-3.19201 -3.5,-5.93073 -3.94552,-5.61334 -4.10544,-6.25264 -2.0009,-7.99925 2.27497,-1.88806 6.88603,0.44204 9.13231,4.61481 1.02773,1.90914 2.87658,3.7243 4.10856,4.03369 3.08138,0.77384 4.81356,7.1435 3.23957,11.91274 -1.12597,3.41174 -4.27099,6.43801 -6.69062,6.43801 -1.30962,0 -4.17675,2.09929 -7.37684,5.40127 -1.52239,1.57087 -2.10932,1.67993 -3.37734,0.62756 -1.04493,-0.86721 -1.53474,-0.91549 -1.53474,-0.15127 0,2.64301 -2.15512,0.74984 -4.56893,-4.01358 z m -52.632997,-5.28785 c -1.72259,-1.94569 -3.63088,-3.19378 -4.42012,-2.89092 -0.900938,0.34572 -1.91861,-0.73494 -2.89682,-3.07613 -1.314712,-3.14655 -1.945648,-3.60908 -4.923121,-3.60908 -1.878334,0 -4.174972,-0.75982 -5.103642,-1.68849 -0.928669,-0.92867 -3.095539,-2.4431 -4.815265,-3.3654 -5.172932,-2.77427 -8.507557,-15.00859 -5.290105,-19.40871 1.213708,-1.65985 2.392102,-1.78536 11.75,-1.25147 8.994588,0.51316 11.212318,0.30828 16.401003,-1.51515 3.3,-1.15971 6.5625,-2.53766 7.25,-3.06212 1.72871,-1.31873 1.56278,-4.0016 -0.46614,-7.53678 l -1.71613,-2.99019 -1.67125,2.74813 c -0.91918,1.51147 -3.82621,4.01103 -6.46007,5.55458 -4.168335,2.44281 -5.964523,2.83678 -13.862618,3.04059 -4.990586,0.12879 -9.90362,-0.20014 -10.917854,-0.73094 -2.343042,-1.22624 -5.287197,-7.90582 -6.185111,-14.03253 -0.587307,-4.00735 -0.420439,-4.84363 1.081484,-5.41997 2.914315,-1.11833 8.644927,2.68099 9.942191,6.59153 1.650652,4.97581 3.397417,5.72319 9.692555,4.1471 5.373067,-1.34523 8.807831,-3.48153 8.819103,-5.48517 0.003,-0.60225 0.65282,-2.33467 1.44318,-3.8498 1.3725,-2.6311 1.33855,-2.73458 -0.75616,-2.3046 -11.047549,2.26774 -18.772703,0.81312 -24.340272,-4.58318 -2.854638,-2.76682 -3.352908,-3.93889 -3.352908,-7.88693 0,-5.34384 0.568725,-6.27168 3.035164,-4.95168 1.387404,0.74251 1.145661,-0.18792 -1.113368,-4.28519 -3.544803,-6.42931 -3.602828,-8.45617 -0.421796,-14.73363 3.560935,-7.02717 3.30645,-10.50327 -1.071202,-14.63193 -4.325727,-4.07968 -3.342534,-4.24962 3.728916,-0.64451 5.294745,2.69932 8.842286,5.71543 8.842286,7.5177 0,0.51439 -1.35,3.85193 -3,7.41676 -1.65,3.56483 -3,7.1547 -3,7.97749 0,4.90027 6.067806,7.50083 11.839278,5.07411 2.437755,-1.025 2.878156,-1.59219 1.953908,-2.51644 -0.656252,-0.65625 -2.003186,-1.19318 -2.993186,-1.19318 -2.944032,0 -2.044977,-2.99355 1.32456,-4.41033 3.225393,-1.35618 9.86984,-0.47247 12.62544,1.67918 3.40754,2.6607 0.0237,11.04514 -4.956546,12.28114 l -3.293454,0.81737 4,0.35712 c 6.33709,0.56578 13.33979,3.19537 13.99339,5.25468 0.56691,1.78618 -3.47149,7.02084 -5.4164,7.02084 -0.45766,0 -1.34869,0.62244 -1.98007,1.38321 -0.88524,1.06665 -0.79883,1.5172 0.37756,1.96862 0.83903,0.32197 1.52552,1.49952 1.52552,2.61678 0,2.28154 1.02848,2.60291 2.76683,0.86456 0.88911,-0.88911 2.1129,-0.74022 5.14166,0.62556 8.34008,3.76086 9.38024,16.58709 2.02455,24.96475 -3.12538,3.55961 -3.06264,3.5411 -19.215961,5.6696 -7.944698,1.04686 -8.967101,0.99063 -10.712755,-0.58917 -2.324468,-2.10361 -5.004324,-1.3316 -5.004324,1.44165 0,3.72771 5.57963,6.10861 19.66767,8.39247 5.8015,0.94049 7.56458,1.66854 9.25,3.8197 2.58859,3.30388 2.58836,3.92924 -0.003,7.22314 -1.14672,1.45782 -2.51787,4.2185 -3.047,6.13485 -0.52913,1.91636 -1.42931,3.48428 -2.00039,3.48428 -0.57108,0 -2.4024,-1.54074 -4.06959,-3.42387 z m -1.29807,-69.7554 c 1.39382,-1.33162 -2.20878,-3.83229 -5.44113,-3.77684 -1.407378,0.0241 -4.276824,0.65658 -6.376546,1.40543 -3.322634,1.18498 -3.89263,1.1662 -4.395717,-0.14482 -0.317923,-0.82849 0.0189,-1.87528 0.74849,-2.32619 1.557702,-0.96272 -5.136129,-2.4979 -7.231429,-1.65848 -0.720958,0.28883 -0.357367,0.55756 0.813446,0.60122 1.318388,0.0492 3.13398,1.61554 4.812436,4.15185 l 2.695323,4.07291 6.687563,-0.68485 c 3.67816,-0.37667 7.137564,-1.11477 7.687564,-1.64023 z m -10.770833,-6.4249 c -0.332292,-0.33229 -1.194792,-0.36782 -1.916667,-0.079 -0.797733,0.31923 -0.560776,0.55618 0.604167,0.60417 1.054166,0.0434 1.644791,-0.19293 1.3125,-0.52522 z m 78.70133,52.13783 c -8.00343,-3.00468 -13.12235,-6.42569 -14.48082,-9.67765 -0.60748,-1.4542 -0.99021,-5.11129 -0.85052,-8.12688 0.24924,-5.38078 0.15803,-5.58035 -4.89807,-10.71683 -5.939703,-6.03414 -7.416237,-10.50881 -4.79015,-14.51672 1.02514,-1.56456 2.57236,-2.49558 4.1473,-2.49558 1.38167,0 3.62213,-0.7273 4.97879,-1.61623 1.37218,-0.89908 3.58181,-1.40305 4.97985,-1.1358 2.06611,0.39497 2.62335,0.0154 3.13246,-2.13377 0.78449,-3.31162 3.19112,-6.1131 5.25565,-6.11794 0.87725,-0.002 3.06839,-0.90206 4.86918,-2 3.80599,-2.32052 9.65098,-2.53983 13.22583,-0.49626 3.59199,2.05336 9.34463,1.85323 12.13922,-0.42232 l 2.36078,-1.92233 -3,-1.20368 c -1.65,-0.66202 -5.65292,-1.48448 -8.89538,-1.82768 -6.87877,-0.72808 -8.68133,-2.46545 -6.81281,-6.56641 1.50387,-3.30064 5.39565,-4.88339 11.5482,-4.69655 3.41863,0.10381 5.66651,-0.44155 7.65437,-1.85703 3.31239,-2.35863 4.00562,-2.47268 4.00562,-0.65899 0,2.35625 -3.93439,5.01173 -8.28598,5.59254 -6.37335,0.85065 -5.63084,3.33646 1.28598,4.30523 8.64312,1.21056 10.82876,2.45363 12.16687,6.91983 0.98403,3.2844 0.9262,4.17288 -0.35496,5.45405 -2.22801,2.22801 -8.0409,3.31239 -18.81191,3.50931 -5.225,0.0955 -8.18202,0.36892 -6.57115,0.60754 3.70906,0.54942 12.56703,6.1745 15.40539,9.78289 2.53051,3.21701 2.72544,6.20833 0.71772,11.01348 -2.11773,5.06845 -4.98749,6.02086 -13.77947,4.5731 -3.99987,-0.65866 -8.39749,-1.46458 -9.77249,-1.79094 -1.375,-0.32637 -2.1664,-0.23399 -1.75868,0.20527 1.4495,1.56162 -1.51652,3.43619 -7.20881,4.55608 l -5.77464,1.13609 0.78755,3.49191 c 0.95119,4.21743 4.31884,8.07244 8.67246,9.92749 4.07667,1.73705 13.34406,1.77753 15.68129,0.0685 1.60539,-1.1739 1.62695,-1.43082 0.21817,-2.6 -2.17175,-1.8024 -8.37836,-1.62364 -10.50684,0.30261 -1.86836,1.69084 -6.1105,2.20101 -6.1105,0.73486 0,-1.86992 4.50843,-6.44935 7.63578,-7.75604 4.24789,-1.77488 10.7249,-1.76305 14.16388,0.0259 6.49042,3.37625 10.51543,11.45653 7.43463,14.92516 -5.26673,5.92974 -18.69724,7.37347 -29.80379,3.20381 z m -0.27949,-32.85171 c -0.6237,-0.75151 -2.52938,-4.02488 -4.23485,-7.27417 -1.70547,-3.24928 -2.81306,-5.02814 -2.46131,-3.95301 0.36426,1.11339 -0.12231,3.36944 -1.13047,5.24147 -1.62809,3.02318 -1.64074,3.41597 -0.1578,4.89891 1.48116,1.48116 7.81088,3.48546 8.72592,2.76305 0.21588,-0.17043 -0.1178,-0.92474 -0.74149,-1.67625 z m 19.706,-5.57242 c 1.94788,-1.23423 0.58392,-4.5876 -2.42328,-5.95778 -1.39031,-0.63346 -4.74083,-1.15175 -7.4456,-1.15175 -3.94508,0 -5.13624,-0.40823 -6.02234,-2.06393 -0.83671,-1.5634 -0.78461,-2.45161 0.21482,-3.66262 1.11219,-1.34764 1.08383,-1.51675 -0.18061,-1.07686 -0.92497,0.32179 -1.42082,1.58539 -1.29345,3.29617 0.24572,3.3005 4.80333,10.21618 7.14176,10.83684 2.95694,0.78483 8.61925,0.66033 10.0087,-0.22007 z"
         id="path210"
         inkscape:connector-curvature="0" />
    </g>
  </g>
</svg>
