<?xml version="1.0" encoding="UTF-8" standalone="no"?>
<!-- Created with Inkscape (http://www.inkscape.org/) -->

<svg
   xmlns:dc="http://purl.org/dc/elements/1.1/"
   xmlns:cc="http://creativecommons.org/ns#"
   xmlns:rdf="http://www.w3.org/1999/02/22-rdf-syntax-ns#"
   xmlns:svg="http://www.w3.org/2000/svg"
   xmlns="http://www.w3.org/2000/svg"
   xmlns:sodipodi="http://sodipodi.sourceforge.net/DTD/sodipodi-0.dtd"
   xmlns:inkscape="http://www.inkscape.org/namespaces/inkscape"
   width="75mm"
   height="120mm"
   viewBox="0 0 75 120"
   version="1.1"
   id="svg8"
   inkscape:version="0.92.4 (5da689c313, 2019-01-14)"
   sodipodi:docname="feu14.svg">
  <defs
     id="defs2" />
  <sodipodi:namedview
     id="base"
     pagecolor="#ffffff"
     bordercolor="#666666"
     borderopacity="1.0"
     inkscape:pageopacity="0.0"
     inkscape:pageshadow="2"
     inkscape:zoom="1.979899"
     inkscape:cx="58.024461"
     inkscape:cy="248.99729"
     inkscape:document-units="mm"
     inkscape:current-layer="layer1"
     showgrid="false"
     units="mm"
     inkscape:window-width="1920"
     inkscape:window-height="1017"
     inkscape:window-x="-8"
     inkscape:window-y="-8"
     inkscape:window-maximized="1" />
  <metadata
     id="metadata5">
    <rdf:RDF>
      <cc:Work
         rdf:about="">
        <dc:format>image/svg+xml</dc:format>
        <dc:type
           rdf:resource="http://purl.org/dc/dcmitype/StillImage" />
        <dc:title />
      </cc:Work>
    </rdf:RDF>
  </metadata>
  <g
     inkscape:label="Calque 1"
     inkscape:groupmode="layer"
     id="layer1"
     transform="translate(0,-176.99999)">
    <path
       style="fill:#00ffff;stroke-width:0.26458338"
       d="m 30.916392,243.1866 c -0.476273,-0.16613 -0.407699,-1.30803 0.09002,-1.49903 0.591071,-0.22681 0.902165,0.0331 0.902165,0.75361 0,0.63695 -0.413199,0.94738 -0.992187,0.74542 z m 2.765224,-0.23851 c -0.102044,-0.10205 -0.185536,-0.47163 -0.185536,-0.8213 0,-0.50797 0.11966,-0.61877 0.595312,-0.55121 0.435068,0.0618 0.595313,0.26162 0.595313,0.74238 0,0.6386 -0.612571,1.02265 -1.005089,0.63013 z m 2.58903,-0.37313 c -0.216826,-0.68316 0.15784,-1.13265 0.835351,-1.00217 0.321394,0.0619 0.491125,0.32192 0.491125,0.75242 0,0.88549 -1.061278,1.0853 -1.326476,0.24975 z m -8.977519,0.0351 c -0.255693,-0.41372 0.151618,-1.08221 0.659396,-1.08221 0.59708,0 0.834963,0.34541 0.621317,0.90217 -0.173888,0.45315 -1.036938,0.57447 -1.280713,0.18004 z m 11.671009,0.0643 c -0.323805,-0.3238 -0.181438,-1.1612 0.223854,-1.31672 0.519081,-0.19919 1.187257,0.36154 1.187257,0.99634 0,0.34404 -0.18981,0.49677 -0.617361,0.49677 -0.33955,0 -0.696737,-0.0794 -0.79375,-0.17639 z m 2.736824,-0.21712 c -0.432538,-0.52117 -0.150654,-1.19399 0.500237,-1.19399 0.536983,0 0.980215,0.84944 0.689054,1.32055 -0.239778,0.38797 -0.812887,0.32699 -1.189291,-0.12656 z m -17.265723,-0.2018 c -0.197016,-0.53575 0.07345,-0.99219 0.587917,-0.99219 0.502553,0 0.907256,0.67075 0.652961,1.08221 -0.220007,0.35598 -1.10035,0.29211 -1.240878,-0.09 z m 19.293781,-0.0404 c -0.07834,-0.20414 0.01077,-0.58067 0.198016,-0.83674 0.465469,-0.63657 1.210713,-0.30532 1.210713,0.53813 0,0.53004 -0.132086,0.66977 -0.633151,0.66977 -0.348234,0 -0.697243,-0.16703 -0.775578,-0.37116 z m 2.527702,0.0614 c -0.4592,-0.4592 -0.403672,-1.191 0.105188,-1.38627 0.58553,-0.22469 1.200152,0.33704 1.103712,1.00873 -0.09215,0.64178 -0.741784,0.84466 -1.2089,0.37754 z m 2.694307,-0.31667 c -0.26616,-0.69361 0.0058,-1.35793 0.555969,-1.35793 0.407012,0 0.525542,0.17821 0.525542,0.79013 0,0.86564 -0.805032,1.28829 -1.081511,0.5678 z m -27.265517,-0.2996 c -0.212671,-0.55421 0.07696,-1.19062 0.541859,-1.19062 0.559116,0 0.818506,0.54695 0.388545,0.81928 -0.286204,0.18128 -0.290136,0.23182 -0.01828,0.235 0.190489,0.002 0.272759,0.12311 0.182822,0.26864 -0.246632,0.39906 -0.922375,0.31741 -1.094946,-0.1323 z m 29.811854,-0.25299 c -0.38794,-0.46744 -0.146108,-0.93763 0.482248,-0.93763 0.609447,0 1.08916,0.50276 0.914361,0.95828 -0.183674,0.47865 -0.992148,0.46669 -1.396609,-0.0207 z m 2.604868,-0.47461 c -0.04153,-0.43815 0.05654,-1.09859 0.182399,-1.22833 0.214156,-0.22075 0.907282,0.59079 0.907282,1.06229 0,0.56019 -1.037338,0.71826 -1.089681,0.16604 z M 19.311381,240.6204 c -0.263437,-0.68651 0.105802,-1.25391 0.755912,-1.1616 0.437285,0.0621 0.596495,0.26126 0.596495,0.74617 0,0.48491 -0.15921,0.68406 -0.596495,0.74616 -0.357791,0.0508 -0.660291,-0.0815 -0.755912,-0.33073 z m 24.124396,-1.53991 c -0.790389,-9.01532 -1.703176,-14.99106 -2.953509,-19.33575 -1.031936,-3.58578 -1.036264,-3.61686 -0.503896,-3.61686 0.218281,0 0.396875,0.12609 0.396875,0.2802 0,0.15411 -0.120428,0.20577 -0.267616,0.1148 -0.14719,-0.091 -0.03081,0.43538 0.258615,1.16967 0.999069,2.53465 2.022236,7.17779 2.891078,13.11971 0.31723,2.1695 0.704487,10.18646 0.492056,10.18646 -0.07999,0 -0.221107,-0.86321 -0.313603,-1.91823 z m -12.280961,-0.1323 c 0.109858,-0.98226 0.332238,-3.15515 0.494179,-4.82864 0.332888,-3.44006 2.514348,-14.2376 2.815603,-13.93634 0.09187,0.0919 -0.72929,5.31733 -2.273184,14.46551 -0.135072,0.80036 -0.392202,2.497 -0.571397,3.77031 -0.381817,2.71309 -0.757213,3.1401 -0.465201,0.52916 z m 5.578573,-12.30338 c 0.06303,-7.82189 0.188066,-14.29508 0.277855,-14.38487 0.439642,-0.43964 0.522084,2.14174 0.359646,11.2613 -0.187759,10.54112 -0.423154,16.99508 -0.627806,17.21289 -0.06836,0.0728 -0.07273,-6.26743 -0.0097,-14.08932 z m 9.17606,12.83255 c -0.01212,-0.25466 -0.0536,-0.70114 -0.09217,-0.99219 -0.03857,-0.29104 -0.220591,-1.66026 -0.404495,-3.0427 -0.773547,-5.81489 -3.6179,-16.33432 -4.846887,-17.92553 -0.172825,-0.22375 -0.150235,-0.33073 0.06984,-0.33073 0.185282,0 0.257469,-0.17673 0.167722,-0.41061 -0.0926,-0.24131 -0.04683,-0.34218 0.110998,-0.24463 0.147714,0.0913 0.237834,0.30583 0.200268,0.47676 -0.03757,0.17093 0.428718,1.44187 1.036185,2.82432 1.482109,3.37291 2.923395,8.97921 3.533535,13.74472 0.387527,3.02678 0.60562,6.36361 0.415922,6.36361 -0.09288,0 -0.178795,-0.20836 -0.190921,-0.46302 z m 6.567247,-0.89254 c -0.07873,-0.78241 -0.0529,-1.51857 0.0574,-1.63591 0.289735,-0.30822 0.58135,2.17287 0.311965,2.65423 -0.155789,0.27838 -0.270791,-0.0387 -0.369369,-1.01832 z m 4.133815,0.95869 c -0.237463,-0.61882 0.09779,-1.19063 0.698069,-1.19063 0.673158,0 0.966002,0.66428 0.52637,1.194 -0.420137,0.50623 -1.029528,0.50456 -1.224439,-0.003 z M 16.82067,239.13419 c -0.362154,-0.67669 -0.03298,-1.14328 0.70616,-1.00094 0.320525,0.0617 0.491125,0.32184 0.491125,0.7488 0,0.85058 -0.788176,1.01656 -1.197285,0.25214 z m 17.225466,0.12269 c 0.0127,-0.30823 0.07539,-0.37092 0.15985,-0.15986 0.07643,0.191 0.06703,0.4192 -0.02088,0.50712 -0.08792,0.0879 -0.15045,-0.0684 -0.138962,-0.34726 z m 13.66951,-0.56441 c -0.07612,-0.55057 -0.155644,-1.65589 -0.176718,-2.45625 -0.09192,-3.49078 -3.515876,-14.79781 -4.987978,-16.47194 -0.224713,-0.25555 -0.329925,-0.54329 -0.233805,-0.63941 0.222441,-0.22244 0.189619,-0.26674 1.308037,1.76551 1.276543,2.31958 1.882635,3.92947 2.864279,7.60802 1.231333,4.61424 1.536983,6.31226 1.574829,8.74894 0.03692,2.37739 -0.126246,3.05374 -0.348644,1.44513 z m -25.039076,0.0573 c -0.01725,-0.47139 0.54727,-2.79498 1.317749,-5.42396 0.149267,-0.50932 0.378782,-1.34276 0.510031,-1.85208 0.781775,-3.03373 5.452663,-12.41606 6.188467,-12.43067 0.131694,-0.003 0.06049,0.20361 -0.158239,0.45827 -0.442947,0.51572 -2.975306,5.93913 -3.922467,8.40052 -0.335987,0.87313 -0.699416,1.70656 -0.807625,1.85208 -0.265167,0.3566 -2.062208,5.66478 -2.642392,7.80521 -0.256389,0.94589 -0.474876,1.48167 -0.485524,1.19063 z m 3.103334,0.1348 c -0.298424,-0.89527 0.503473,-4.90679 1.772311,-8.86605 0.186543,-0.58209 0.595724,-1.89177 0.909288,-2.91042 0.498447,-1.61924 1.913012,-4.8009 3.79978,-8.54653 0.315336,-0.62601 0.799023,-1.34038 1.074859,-1.5875 0.477364,-0.42766 0.488905,-0.42382 0.239599,0.0799 -1.317892,2.66259 -3.82741,8.45013 -4.435742,10.22987 -0.364889,1.06753 -0.856324,2.47675 -1.092076,3.13159 -0.235752,0.65485 -0.815332,2.9098 -1.28796,5.01101 -0.472628,2.10121 -0.913654,3.65739 -0.980059,3.45817 z m 24.285321,-0.40962 c -0.09074,-0.23645 -0.152792,-0.68807 -0.137896,-1.00359 0.01712,-0.36267 0.106993,-0.23372 0.24433,0.35057 0.231119,0.98328 0.16827,1.36889 -0.106434,0.65302 z m 9.690751,0.23072 c -0.459121,-0.18365 -0.413973,-1.01265 0.07736,-1.42042 0.529931,-0.4398 0.99169,-0.006 0.871085,0.81797 -0.09277,0.63396 -0.392959,0.82464 -0.948445,0.60245 z m -45.045313,-0.35278 c 0,-0.14552 0.115326,-0.26458 0.256279,-0.26458 0.140954,0 0.188009,-0.17791 0.104568,-0.39536 -0.08344,-0.21744 -0.260241,-0.32828 -0.392887,-0.2463 -0.132646,0.082 -0.177759,0.25167 -0.100252,0.37708 0.07751,0.12541 0.0099,0.30899 -0.150226,0.40795 -0.187847,0.1161 -0.259785,-0.0417 -0.202753,-0.44473 0.05641,-0.39864 0.291631,-0.65368 0.650033,-0.70482 0.666032,-0.095 1.04291,0.63973 0.601156,1.17201 -0.352605,0.42486 -0.765918,0.47815 -0.765918,0.0987 z m 14.084301,-0.52916 c 0,-0.50933 0.05445,-0.71769 0.121001,-0.46303 0.06655,0.25467 0.06655,0.67138 0,0.92605 -0.06655,0.25466 -0.121001,0.0463 -0.121001,-0.46302 z m 5.316296,-3.96875 c 0.08423,-2.69214 0.213789,-5.25198 0.287901,-5.68855 0.07411,-0.43656 0.324305,-2.31857 0.555977,-4.18225 0.42186,-3.39361 0.870977,-5.32561 0.903703,-3.88754 0.01376,0.60475 -1.105779,13.997 -1.424411,17.03917 -0.306903,2.93019 -0.466733,1.30759 -0.32317,-3.28083 z m 4.648454,2.05052 c -0.03936,-3.80818 -0.18401,-7.06139 -0.632304,-14.22136 -0.448479,-7.16288 -0.477687,-8.95331 -0.129482,-7.9375 0.833353,2.43112 1.822678,24.87084 1.096508,24.87084 -0.210759,0 -0.315458,-0.84828 -0.334722,-2.71198 z m 1.915393,-2.52634 c -0.176684,-2.867 -0.444413,-6.34382 -0.594955,-7.72627 -0.373201,-3.42719 -1.016792,-8.46869 -1.173726,-9.19427 -0.07082,-0.32742 -0.02487,-0.59531 0.10211,-0.59531 0.862695,0 3.058533,22.06683 2.245818,22.56912 -0.160404,0.0991 -0.379526,-1.81245 -0.579247,-5.05327 z m 14.556449,4.53968 c -0.09176,-1.31089 -1.46826,-5.96062 -2.43599,-8.22862 -0.573781,-1.34472 -1.043236,-2.51747 -1.043236,-2.60611 0,-0.0886 -0.670497,-1.34535 -1.489993,-2.7927 -1.537018,-2.71459 -2.189583,-3.59159 -5.12459,-6.88703 l -1.719792,-1.93098 1.460442,1.23339 c 2.968257,2.50678 4.991888,5.20521 7.006582,9.34298 1.882352,3.86596 3.742351,10.04478 3.504464,11.64166 -0.07602,0.51031 -0.1324,0.59152 -0.157887,0.22741 z M 20.651988,236.6331 c 0.193883,-1.5155 1.867755,-6.54935 2.771375,-8.33437 0.257831,-0.50933 0.780462,-1.58089 1.161405,-2.38126 0.380941,-0.80036 1.051977,-2.05052 1.491189,-2.77812 0.439211,-0.7276 0.883427,-1.50151 0.987149,-1.71979 0.103721,-0.21828 0.285913,-0.51594 0.404875,-0.66146 0.118959,-0.14552 0.82121,-1.07836 1.560559,-2.07297 1.394114,-1.87544 4.441272,-5.05295 4.6477,-4.84652 0.06483,0.0648 -0.429003,0.68058 -1.097415,1.36832 -0.668414,0.68775 -1.734579,1.92046 -2.369254,2.73935 -1.800061,2.32254 -6.624003,10.88245 -7.325188,12.99828 -1.273275,3.84212 -2.345822,6.57516 -2.232395,5.68854 z m -8.939935,0.22049 c -0.3357,-0.3357 -0.174605,-1.16382 0.258746,-1.33012 0.514382,-0.19738 1.184941,0.58458 0.973592,1.13535 -0.147113,0.38337 -0.921368,0.50574 -1.232338,0.19477 z m 50.453414,-0.22386 c -0.20044,-0.52234 0.36715,-1.1966 0.850998,-1.01093 0.207643,0.0797 0.377532,0.42979 0.377532,0.77802 0,0.46003 -0.146966,0.63316 -0.53747,0.63316 -0.295611,0 -0.606586,-0.18011 -0.69106,-0.40025 z m -44.430864,-0.5258 c 0.241903,-1.02152 1.516319,-3.88231 1.663787,-3.73484 0.120607,0.12061 -1.441573,4.15898 -1.698338,4.39035 -0.08438,0.076 -0.06883,-0.21894 0.03455,-0.65551 z m 11.263777,-0.15434 c 5.29e-4,-2.25571 2.5853,-12.56188 3.03716,-12.11001 0.05278,0.0528 -0.313317,1.58369 -0.813551,3.40203 -0.500232,1.81834 -0.968846,3.66326 -1.041366,4.09982 -0.326122,1.96326 -0.996759,5.30193 -1.08508,5.40191 -0.05356,0.0606 -0.09728,-0.29655 -0.09716,-0.79375 z m 20.518996,-0.17639 c -0.248412,-1.39109 -1.858491,-6.59911 -2.96514,-9.59114 -1.524744,-4.12245 -2.834368,-6.59837 -5.286852,-9.99513 -0.239223,-0.33133 -0.371805,-0.66557 -0.294624,-0.74275 0.263747,-0.26374 3.449741,4.44263 4.73669,6.99708 1.382689,2.74448 3.449741,8.88511 3.931134,11.6783 0.163018,0.94588 0.336966,1.92815 0.386551,2.18281 0.04959,0.25466 -0.0045,0.46302 -0.120213,0.46302 -0.115702,0 -0.290097,-0.44648 -0.387546,-0.99219 z m 2.289172,-1.61122 c -1.393301,-5.43923 -4.149362,-10.98396 -8.225927,-16.54918 -1.343258,-1.83379 -1.569059,-2.30533 -0.647703,-1.35262 2.595417,2.68374 5.348703,6.83759 6.579322,9.92615 0.37595,0.94353 0.844326,2.07271 1.040837,2.50927 0.897215,1.99321 2.355763,7.80521 1.958755,7.80521 -0.0584,0 -0.375774,-1.05247 -0.705284,-2.33883 z m 5.237449,1.83207 c 0,-0.70047 -2.56463,-8.07291 -3.347305,-9.62236 -1.568839,-3.1058 -3.710794,-5.66066 -8.095925,-9.65659 -0.982265,-0.89509 -1.785937,-1.698 -1.785937,-1.78424 0,-0.365 3.342002,2.4585 5.622748,4.7504 3.020427,3.03519 4.790636,6.0527 6.435759,10.97044 1.074902,3.21319 1.67562,5.84911 1.332992,5.84911 -0.08928,0 -0.162332,-0.22804 -0.162332,-0.50676 z m 7.71303,0.26705 c -0.481023,-0.2974 -0.279077,-1.18771 0.294455,-1.29816 0.253431,-0.0488 0.536233,0.10789 0.628454,0.3482 0.2165,0.56419 -0.445217,1.2453 -0.922909,0.94996 z M 9.54773,235.16668 c -0.216826,-0.68316 0.15784,-1.13264 0.835351,-1.00217 0.321395,0.0619 0.491125,0.32193 0.491125,0.75242 0,0.88549 -1.061278,1.08531 -1.326476,0.24975 z m 49.499541,-1.06602 c -0.245086,-0.74931 -0.401915,-1.40607 -0.348507,-1.45948 0.05341,-0.0534 0.312288,0.5013 0.575292,1.23269 0.263004,0.73139 0.419833,1.38816 0.348506,1.45948 -0.07132,0.0713 -0.330205,-0.48338 -0.575291,-1.23269 z m 7.698115,0.63626 c -0.09701,-0.097 -0.176389,-0.4542 -0.176389,-0.79375 0,-0.48213 0.144891,-0.61736 0.661458,-0.61736 0.521279,0 0.661458,0.13418 0.661458,0.63315 0,0.34823 -0.18833,0.70542 -0.418515,0.79375 -0.518208,0.19885 -0.51326,0.19896 -0.728012,-0.0158 z m -50.546181,-1.14459 c 0.183239,-1.00073 2.776344,-6.41279 3.821282,-7.97538 0.353815,-0.5291 0.849034,-1.30301 1.100485,-1.7198 1.186432,-1.96656 2.628567,-3.64866 5.583444,-6.51249 3.098515,-3.00304 3.616664,-3.41053 3.616664,-2.84427 0,0.14552 -0.10427,0.26458 -0.231712,0.26458 -0.460965,0 -4.636011,4.4233 -6.493093,6.87917 -3.217898,4.25547 -4.778221,6.85957 -7.134004,11.90625 l -0.432274,0.92604 z m -8.367708,-0.78007 c 0,-0.28246 0.105572,-0.5788 0.234604,-0.65855 0.322226,-0.19914 0.909733,0.55431 0.698601,0.89593 -0.289611,0.46859 -0.933205,0.30488 -0.933205,-0.23738 z m 52.795072,-1.37113 c -0.896935,-2.30136 -3.34831,-6.81245 -4.494684,-8.27125 -0.444225,-0.56528 -1.819711,-2.09734 -3.056638,-3.40455 -2.76116,-2.91807 -4.923081,-4.40028 -8.437216,-5.78454 -0.347605,-0.13692 -0.569214,-0.31175 -0.492469,-0.38849 0.243631,-0.24363 4.33157,1.46219 5.455893,2.27664 3.316087,2.40216 7.732536,7.47769 9.416683,10.82197 1.149553,2.2827 2.592773,6.03103 2.467189,6.40778 -0.05394,0.16182 -0.440381,-0.58408 -0.858758,-1.65756 z m 7.354199,1.20543 c -0.08752,-0.22806 -0.02929,-0.54448 0.129384,-0.70316 0.382016,-0.38201 1.130107,0.21453 0.928352,0.74029 -0.193548,0.50438 -0.858901,0.48103 -1.057736,-0.0371 z m -48.507605,-0.81358 c 0,-0.14197 0.185162,-0.48923 0.411471,-0.77171 0.38798,-0.48427 0.393486,-0.47582 0.09645,0.14787 -0.385713,0.8099 -0.507924,0.96 -0.507924,0.62384 z m 37.767284,-2.27748 c -2.491758,-5.25658 -5.888305,-9.603 -10.063348,-12.87767 -0.988409,-0.77525 -1.734706,-1.47195 -1.65844,-1.54821 0.520756,-0.52076 6.994562,5.50942 8.709721,8.11287 1.672424,2.53858 4.714867,8.7604 4.283798,8.7604 -0.06138,0 -0.633659,-1.10133 -1.271731,-2.44739 z m -42.525934,1.91823 c -10e-4,-0.21829 0.260716,-0.8136 0.581657,-1.32292 0.320941,-0.50932 0.794528,-1.38057 1.052414,-1.93611 0.447195,-0.96335 3.300812,-5.45924 3.641245,-5.73681 0.08924,-0.0728 0.596377,-0.7276 1.126973,-1.45521 1.378466,-1.89028 5.096882,-5.38621 5.403194,-5.0799 0.09336,0.0934 -0.667245,0.97688 -1.690244,1.96337 -3.131014,3.01927 -5.573913,6.26847 -8.708793,11.5832 -0.772516,1.30969 -1.405417,2.20266 -1.406446,1.98438 z m 48.430789,-1.52516 c -1.655366,-3.2413 -4.488882,-6.94854 -7.80613,-10.21317 -3.401401,-3.34746 -5.820084,-5.00771 -8.543001,-5.86418 -0.837107,-0.2633 -1.377265,-0.52698 -1.200346,-0.58595 0.371634,-0.12388 3.165795,0.81992 4.667999,1.57673 3.190187,1.60722 8.156133,6.49954 10.819008,10.6586 1.413092,2.20706 3.166758,5.63684 3.053361,5.97169 -0.0444,0.13113 -0.490308,-0.56355 -0.990891,-1.54372 z m -57.077033,1.11049 c -0.190951,-0.4976 0.27727,-1.04025 0.681841,-0.79021 0.436113,0.26954 0.344866,1.20488 -0.117542,1.20488 -0.222848,0 -0.476783,-0.1866 -0.564299,-0.41467 z m 5.740082,0.0178 c 0,-0.14551 0.115416,-0.44318 0.25648,-0.66146 0.141063,-0.21827 0.256479,-0.2778 0.256479,-0.13229 0,0.14552 -0.115416,0.44318 -0.256479,0.66147 -0.141064,0.21827 -0.25648,0.2778 -0.25648,0.13228 z m 57.02895,-0.83873 c -0.192198,-0.50087 0.381305,-0.98311 0.741178,-0.62324 0.274563,0.27457 0.03183,1.06511 -0.327039,1.06511 -0.134516,0 -0.320881,-0.19884 -0.414139,-0.44187 z m -48.430042,-0.48418 c 0.18764,-0.9147 1.703583,-3.6391 1.693063,-3.0427 -0.0038,0.21828 -0.423001,1.17078 -0.931446,2.11666 -0.626106,1.16478 -0.871897,1.46363 -0.761617,0.92604 z m -7.813263,-0.64119 c 0,-0.13437 0.41414,-0.78687 0.920311,-1.44999 0.50617,-0.66312 1.085688,-1.59497 1.287818,-2.07078 0.47845,-1.12628 5.175556,-6.05199 5.189739,-5.44233 0.0058,0.24743 -0.151713,0.54509 -0.349932,0.66146 -0.530226,0.31129 -5.433307,6.15786 -5.450344,6.49915 -0.0056,0.11118 -0.277982,0.61572 -0.605404,1.1212 -0.578942,0.89378 -0.992188,1.17754 -0.992188,0.68129 z M 4.92108,228.43104 c 0,-0.21828 0.178594,-0.39688 0.396875,-0.39688 0.218281,0 0.396875,0.1786 0.396875,0.39688 0,0.21828 -0.178594,0.39687 -0.396875,0.39687 -0.218281,0 -0.396875,-0.17859 -0.396875,-0.39687 z m 5.291667,0.1479 c 0,-0.13693 0.117698,-0.32171 0.261552,-0.41061 0.149982,-0.0927 0.194338,0.0135 0.103985,0.24896 -0.175892,0.45837 -0.365537,0.54224 -0.365537,0.16165 z m 53.923096,-1.5338 c -2.387264,-3.58284 -7.262563,-8.57717 -10.643364,-10.90322 -1.609178,-1.10715 -5.215737,-2.77186 -7.200218,-3.32347 -3.077001,-0.85529 -3.924268,-1.14155 -3.447555,-1.1648 0.539896,-0.0263 4.364871,0.89199 5.600332,1.34456 0.436563,0.15991 2.148121,1.01414 3.80346,1.89828 2.592813,1.38486 3.402899,1.99378 5.848265,4.39604 2.619611,2.57342 4.866571,5.30842 6.712614,8.1706 0.407509,0.63181 0.690893,1.19878 0.62974,1.25994 -0.06115,0.0611 -0.647623,-0.69392 -1.303274,-1.67793 z m 5.398416,1.1874 c -0.392208,-0.47258 0.03628,-1.11531 0.599464,-0.89919 0.475268,0.18238 0.461721,0.99059 -0.01929,1.15072 -0.160059,0.0533 -0.421142,-0.0599 -0.580174,-0.25153 z m -4.170376,-3.04265 c -2.919584,-3.71443 -6.508925,-7.14132 -9.863783,-9.41736 -2.723711,-1.84784 -4.743614,-2.6435 -10.626937,-4.18606 -0.689972,-0.1809 -0.997526,-0.35649 -0.731406,-0.41757 0.580456,-0.13324 4.292219,0.80825 6.564239,1.66501 3.797694,1.43209 6.802188,3.30474 9.460259,5.89642 2.317424,2.25955 7.598777,8.77467 7.113008,8.77467 -0.05262,0 -0.914546,-1.0418 -1.91538,-2.31511 z M 3.96858,226.87 c -0.09685,-0.2524 -0.04513,-0.58988 0.114944,-0.74995 0.211667,-0.21166 0.339069,-0.16589 0.46714,0.16786 0.09685,0.2524 0.04513,0.58987 -0.114945,0.74994 -0.211666,0.21167 -0.339068,0.16589 -0.467139,-0.16785 z m 18.415001,-0.96305 c 0,-0.45046 0.969669,-2.19334 1.579259,-2.83855 0.311854,-0.33007 0.709175,-0.92539 0.882936,-1.32292 0.41037,-0.93884 3.065857,-4.29465 3.398404,-4.29465 0.338807,0 0.13036,0.33751 -1.470652,2.38125 -0.740982,0.94588 -1.494038,1.95791 -1.673461,2.24896 -0.17942,0.29104 -0.809751,1.33284 -1.400733,2.3151 -1.057877,1.75829 -1.315753,2.0544 -1.315753,1.51081 z M 8.782259,225.69283 c -0.239385,-0.38733 2.357137,-3.50272 4.550405,-5.45972 2.881942,-2.57149 3.589291,-3.11877 6.811513,-5.27016 2.645175,-1.76611 8.824477,-4.3584 9.69353,-4.06655 0.193096,0.0648 -0.125169,0.26882 -0.707252,0.45327 -2.083687,0.66029 -7.724742,3.56231 -10.583334,5.44456 -2.953018,1.94443 -6.543044,5.19956 -8.532285,7.73637 -0.600049,0.76522 -1.154709,1.28822 -1.232577,1.16223 z m 3.708208,-0.41642 c 0.07944,-0.20703 0.313832,-0.44141 0.520862,-0.52086 0.207029,-0.0794 0.376417,-0.33613 0.376417,-0.57042 0,-0.53977 2.855101,-4.05101 3.985922,-4.90194 0.469112,-0.353 1.341767,-1.07126 1.939234,-1.59613 2.051027,-1.80183 5.058218,-3.77057 7.700886,-5.04158 3.294912,-1.58472 4.180462,-1.66914 1.303428,-0.12425 -2.212752,1.18819 -6.507928,4.04301 -8.574532,5.69913 -1.571883,1.25967 -4.817058,4.5794 -6.025223,6.16365 -0.941067,1.23401 -1.519524,1.65472 -1.226994,0.8924 z m 57.102955,0.0823 c -0.199453,-0.32273 0.394774,-0.808 0.733253,-0.59881 0.116089,0.0718 0.211072,0.30202 0.211072,0.51171 0,0.44898 -0.681805,0.51186 -0.944325,0.0871 z M 2.53983,224.1159 c 0,-0.11771 0.16042,-0.4334 0.356488,-0.70154 0.401657,-0.5493 0.860423,-0.14391 0.601303,0.53135 -0.153762,0.4007 -0.957791,0.54357 -0.957791,0.17019 z m 63.539865,-1.45181 c -1.137124,-1.53927 -4.015174,-4.43332 -5.13797,-5.16654 -0.373677,-0.24402 -1.492833,-0.99517 -2.48701,-1.66922 -3.519342,-2.38612 -6.138547,-3.43388 -11.597177,-4.63922 -1.164166,-0.25707 -1.866775,-0.5071 -1.561351,-0.55562 1.656398,-0.26317 7.632967,1.50299 11.833834,3.49707 2.715625,1.28905 7.743362,5.78333 9.566087,8.55109 1.099661,1.6698 0.620022,1.65614 -0.616413,-0.0176 z m 3.439406,0.0916 c 0.113694,-0.34108 0.476596,-0.40235 0.509323,-0.086 0.0109,0.10551 -0.123032,0.23945 -0.297657,0.29766 -0.174625,0.0582 -0.269875,-0.037 -0.211666,-0.21167 z m -61.158437,-0.4876 c 0,-0.57005 4.851113,-4.71297 7.139365,-6.09711 4.825408,-2.91885 10.759726,-5.58781 11.712501,-5.26769 0.181734,0.0611 -0.145824,0.26398 -0.727909,0.45093 -0.582083,0.18696 -1.89177,0.75054 -2.910415,1.25241 -1.018647,0.50188 -2.387866,1.16998 -3.04271,1.48467 -2.301348,1.10595 -8.274384,4.85017 -8.731249,5.47322 -0.07276,0.0992 -0.33045,0.2893 -0.572641,0.42238 -0.242192,0.13309 -0.986334,0.75455 -1.653647,1.38102 -0.667312,0.62648 -1.213295,1.03155 -1.213295,0.90017 z m 24.077083,-0.45172 c 0,-0.21828 0.115326,-0.39687 0.25628,-0.39687 0.140952,0 0.187746,0.17859 0.103984,0.39687 -0.08376,0.21828 -0.199088,0.39688 -0.25628,0.39688 -0.05719,0 -0.103984,-0.1786 -0.103984,-0.39688 z M 2.804414,221.4195 c 0,-0.14552 0.119062,-0.26459 0.264583,-0.26459 0.145521,0 0.264583,0.11907 0.264583,0.26459 0,0.14552 -0.119062,0.26458 -0.264583,0.26458 -0.145521,0 -0.264583,-0.11906 -0.264583,-0.26458 z m 2.38125,-1.3553 c 0,-0.0942 0.982265,-1.09905 2.182812,-2.23298 2.042171,-1.92885 5.74441,-4.61381 6.361898,-4.61381 0.370061,0 0.394684,-0.0189 -2.419604,1.85848 -1.360618,0.90765 -3.295384,2.43988 -4.299479,3.40494 -1.004095,0.96506 -1.825627,1.67758 -1.825627,1.58337 z m 3.96875,-1.31937 c 4.12486,-3.76669 11.347838,-7.28715 18.388542,-8.96254 1.541448,-0.3668 6.803693,-0.64209 5.556249,-0.29067 -0.755415,0.2128 -0.736248,0.2266 0.396875,0.2856 0.654844,0.0341 0.980808,0.11673 0.724366,0.18362 -0.256445,0.0669 -0.414711,0.20503 -0.351708,0.30697 0.06301,0.10195 -0.479171,0.15113 -1.204836,0.1093 -0.725668,-0.0418 -1.257245,0.0245 -1.181288,0.1474 0.07596,0.1229 -0.749625,0.22346 -1.834631,0.22346 -1.085003,0 -1.923036,-0.0497 -1.862293,-0.11044 0.06074,-0.0607 1.102537,-0.27537 2.315103,-0.47695 l 2.204662,-0.3665 -1.852083,0.15678 c -2.972571,0.25164 -3.137877,0.27645 -3.919829,0.58828 -0.409655,0.16336 -0.915197,0.29702 -1.123425,0.29702 -0.8135,0 -3.843549,1.2114 -7.114679,2.84441 -3.010204,1.50275 -9.425441,5.54136 -9.822284,6.18346 -0.07905,0.12791 -0.285523,0.2274 -0.458835,0.2211 -0.173313,-0.006 0.339729,-0.60944 1.140094,-1.3403 z m 55.881894,-0.057 c -0.684991,-0.62927 -2.37653,-1.87785 -3.758978,-2.77462 -1.382448,-0.89677 -2.633557,-1.72137 -2.780244,-1.83244 -1.038482,-0.78634 -5.22768,-2.52277 -7.538506,-3.12473 -1.527969,-0.39802 -2.884572,-0.8193 -3.014676,-0.93617 -0.130103,-0.11686 -0.01103,-0.16631 0.264584,-0.10987 0.275624,0.0564 1.334571,0.24625 2.353217,0.42181 3.477951,0.5994 8.036877,2.62156 11.167607,4.9535 2.566734,1.91184 4.238165,3.3879 4.598289,4.0608 0.406051,0.75871 0.05808,0.58132 -1.291293,-0.65828 z m -61.173561,0.59934 c 0,-0.15411 0.119062,-0.20662 0.264583,-0.11668 0.145521,0.0899 0.264584,0.21603 0.264584,0.2802 0,0.0642 -0.119063,0.11667 -0.264584,0.11667 -0.145521,0 -0.264583,-0.12609 -0.264583,-0.28019 z m 16.668749,0.0804 c 0,-0.82188 8.137594,-6.8321 8.610325,-6.35936 0.06797,0.068 -0.482692,0.45354 -1.223689,0.85685 -0.740995,0.4033 -2.497765,1.70347 -3.90393,2.88927 -3.34465,2.82049 -3.482706,2.92408 -3.482706,2.61324 z m 12.970394,-0.28943 c -0.0071,-0.43594 0.816788,-2.216 0.95957,-2.07321 0.0563,0.0563 -0.135268,0.6261 -0.425701,1.26623 -0.290431,0.64013 -0.530673,1.00327 -0.533869,0.80698 z m 1.175036,-0.503 c 0.09852,-0.25466 0.2457,-0.79292 0.327065,-1.19613 0.128206,-0.63533 0.608756,-1.31017 0.608756,-0.85488 0,0.62542 -0.641147,2.51403 -0.853467,2.51403 -0.143814,0 -0.180874,-0.20836 -0.08235,-0.46302 z m 1.09139,-0.60525 c 0.09889,-0.64938 0.285383,-1.35928 0.41443,-1.57757 0.151358,-0.25602 0.180298,-0.0682 0.08154,0.52917 -0.0842,0.50932 -0.182417,1.13096 -0.218268,1.38141 -0.03585,0.25045 -0.153451,0.54363 -0.261337,0.65152 -0.107889,0.10789 -0.115255,-0.33515 -0.01635,-0.98453 z m -4.918069,0.43804 c 0,-0.21828 0.119062,-0.47046 0.264583,-0.5604 0.145521,-0.0899 0.264583,0.0151 0.264583,0.23336 0,0.21828 -0.119062,0.47046 -0.264583,0.56039 -0.145521,0.0899 -0.264583,-0.0151 -0.264583,-0.23335 z m 10.969328,0.0835 c -0.09592,-0.1552 -0.117655,-0.33893 -0.0483,-0.40829 0.06935,-0.0694 0.196601,0.0576 0.282773,0.28219 0.178906,0.46622 0.02643,0.54823 -0.234473,0.1261 z M 29.547356,215.9712 c 0.352788,-0.37717 0.879557,-0.80882 1.170599,-0.95923 0.319392,-0.16507 0.167706,0.10679 -0.382632,0.68575 -0.501489,0.52758 -1.028259,0.95923 -1.170599,0.95923 -0.142341,0 0.02984,-0.30859 0.382632,-0.68575 z m 3.424865,-0.51127 c 0.184076,-0.2218 0.38917,-0.34878 0.455766,-0.28219 0.183486,0.18349 -0.189323,0.68546 -0.509085,0.68546 -0.175445,0 -0.155371,-0.15181 0.05332,-0.40327 z m 1.058333,0 c 0.184076,-0.2218 0.389171,-0.34878 0.455766,-0.28219 0.183486,0.18349 -0.189322,0.68546 -0.509085,0.68546 -0.175445,0 -0.155371,-0.15181 0.05332,-0.40327 z m 1.582193,0.022 c 0,-0.22687 0.119062,-0.41249 0.264583,-0.41249 0.145521,0 0.264583,0.11203 0.264583,0.24897 0,0.13693 -0.119062,0.32255 -0.264583,0.41249 -0.145521,0.0899 -0.264583,-0.0221 -0.264583,-0.24897 z m -26.980911,-0.3481 c 0.0094,-0.27978 3.066492,-2.51762 4.546918,-3.32838 1.637158,-0.8966 4.345973,-1.80896 8.411077,-2.83298 2.632058,-0.66302 4.090561,-0.8656 7.14375,-0.99223 4.386452,-0.18194 3.91434,-0.5071 -0.79375,-0.5467 -3.962343,-0.0333 -9.577731,0.89482 -10.664404,1.76267 -0.173693,0.13872 -0.613462,0.33067 -0.977264,0.42655 -1.898574,0.50041 1.810607,-1.1466 4.894793,-2.17346 1.735679,-0.57789 8.7773,-0.62581 11.112499,-0.0756 1.36488,0.32157 1.494742,0.40136 0.926042,0.56894 -0.649648,0.19144 -0.65055,0.19539 -0.05053,0.2213 0.33601,0.0145 0.537342,0.14543 0.447405,0.29095 -0.08994,0.14553 0.09014,0.26459 0.400158,0.26459 0.310026,0 0.742275,0.17859 0.960557,0.39687 0.352777,0.35278 0.31393,0.39643 -0.349629,0.39283 -0.579207,-0.003 -0.657561,-0.0615 -0.349628,-0.26054 0.383188,-0.24763 -0.01786,-0.30019 -2.645833,-0.34673 -2.007272,-0.0356 -8.568087,1.06372 -9.921876,1.66243 -0.29104,0.12871 -1.184009,0.43808 -1.984375,0.68748 -0.800364,0.2494 -2.340258,0.79168 -3.421986,1.20506 -1.081728,0.41339 -2.018811,0.69958 -2.082407,0.63598 -0.347872,-0.34787 6.730514,-3.11313 8.811685,-3.4424 0.582083,-0.0921 1.83224,-0.34347 2.778125,-0.55862 0.945885,-0.21515 2.672293,-0.49017 3.836459,-0.61116 1.705075,-0.17721 1.859423,-0.22519 0.79375,-0.24678 -1.20228,-0.0244 -5.584394,0.52755 -6.879166,0.86641 -0.291043,0.0762 -1.541199,0.37519 -2.778125,0.6645 -4.556196,1.06568 -8.44537,2.72205 -11.037865,4.70094 -0.623133,0.47565 -1.130004,0.77631 -1.12638,0.66812 z m 19.096269,-0.0907 c 0.127304,-0.38191 2.279468,-1.96292 2.445724,-1.79666 0.06656,0.0666 -0.479597,0.56736 -1.213694,1.11288 -0.734098,0.54552 -1.28851,0.85322 -1.23203,0.68378 z m 6.738115,-0.67927 c -0.09701,-0.097 -0.17639,-0.29545 -0.17639,-0.44097 0,-0.14552 0.07834,-0.18624 0.174093,-0.0905 0.09575,0.0958 0.333878,0.0415 0.529167,-0.12059 0.390377,-0.32399 0.437769,-0.22409 0.194474,0.40993 -0.170458,0.44421 -0.431607,0.53186 -0.721344,0.24212 z m 6.307775,-0.0852 c -0.09602,-0.15536 0.02267,-0.19082 0.292372,-0.0873 0.308034,0.1182 0.392507,0.0747 0.262711,-0.13532 -0.105223,-0.17025 -0.122092,-0.42155 -0.03749,-0.55843 0.172294,-0.27878 1.725154,0.50905 1.727819,0.87659 7.94e-4,0.12696 -0.169307,0.0889 -0.378288,-0.0845 -0.276622,-0.22957 -0.523753,-0.23838 -0.908648,-0.0324 -0.651465,0.34865 -0.75479,0.35096 -0.958474,0.0214 z m 21.044434,-0.65731 c -3.048227,-2.28468 -8.124375,-4.04336 -13.100349,-4.53874 -1.184587,-0.11793 -1.657855,-0.24871 -1.323943,-0.36584 2.09967,-0.73652 11.508573,2.06192 14.131811,4.20316 0.646063,0.52735 1.360438,1.10386 1.5875,1.28114 0.970503,0.75769 -0.224163,0.2229 -1.295019,-0.57972 z m -19.458807,-0.66864 c -0.08994,-0.14552 -0.03743,-0.26458 0.116676,-0.26458 0.154109,0 0.280199,0.11906 0.280199,0.26458 0,0.14552 -0.0525,0.26458 -0.116676,0.26458 -0.06417,0 -0.190262,-0.11906 -0.280199,-0.26458 z m 1.5875,0 c -0.348917,-0.14993 -0.393981,-0.23234 -0.132292,-0.24193 0.218281,-0.008 0.575469,0.10087 0.79375,0.24193 0.48365,0.31256 0.06591,0.31256 -0.661458,0 z m -14.280579,-0.27578 c 0.179771,-0.29087 2.487065,-1.15489 2.649712,-0.99224 0.07221,0.0722 -0.523869,0.37264 -1.324628,0.66762 -0.800759,0.29498 -1.397048,0.44106 -1.325084,0.32462 z m 29.229537,-2.016 c -1.236927,-0.63274 -3.201458,-1.39089 -4.365625,-1.68478 -2.904546,-0.73326 -8.048469,-1.14763 -10.347362,-0.83354 -2.149184,0.29364 -2.456987,0.20766 -0.857991,-0.23966 2.555269,-0.71485 9.497076,-0.20402 12.779772,0.94042 1.424411,0.49658 4.496184,2.15808 4.908606,2.65502 0.180755,0.21779 0.2843,0.37731 0.2301,0.35447 -0.0542,-0.0228 -1.110573,-0.5592 -2.3475,-1.19193 z m -22.35876,-0.35555 c -0.536527,-0.59286 -0.552828,-0.56015 0.506653,-1.01668 0.623692,-0.26875 0.811207,-0.26637 0.988137,0.0126 0.305816,0.48213 0.278469,0.84789 -0.09103,1.21739 -0.454544,0.45454 -0.854355,0.39379 -1.403763,-0.21329 z m 5.111234,-1.23746 c 0.190995,-0.0764 0.419198,-0.067 0.507119,0.0209 0.08792,0.0879 -0.06835,0.15045 -0.347266,0.13897 -0.308226,-0.0127 -0.370919,-0.0754 -0.159853,-0.15986 z m 1.840286,-0.27559 c 0.475548,-0.0589 1.189923,-0.0577 1.5875,0.003 0.397576,0.0604 0.0085,0.10855 -0.864635,0.10706 -0.873125,-0.002 -1.198414,-0.0509 -0.722865,-0.10976 z m -8.669843,-1.93068 c -0.654844,-0.58485 -1.634038,-1.2693 -2.175987,-1.52099 -0.541948,-0.25169 -0.988433,-0.54998 -0.992187,-0.66285 -0.008,-0.24102 1.38035,0.43915 2.489173,1.21945 0.585881,0.4123 0.80458,0.46112 0.891916,0.19912 0.07861,-0.23583 0.312166,-0.11849 0.728488,0.36602 0.337032,0.39222 0.548008,0.88193 0.468842,1.08824 -0.07917,0.20631 -0.16097,0.37494 -0.181782,0.37474 -0.02082,-2e-4 -0.57362,-0.47888 -1.228463,-1.06373 z m 1.322916,0.44365 c 0,-0.0502 -0.25545,-0.3181 -0.567666,-0.59532 -0.564623,-0.50132 -0.565991,-0.50083 -0.255275,0.0913 0.25791,0.49149 0.822941,0.83755 0.822941,0.50403 z m 0.349025,-0.45625 c -0.313303,-0.57198 -0.46606,-1.03997 -0.339457,-1.03997 0.25346,0 1.181086,1.80796 1.013573,1.97547 -0.05746,0.0575 -0.360809,-0.36352 -0.674116,-0.9355 z m 0.973892,0.0184 c 0,-0.58208 0.119062,-1.05833 0.264583,-1.05833 0.145521,0 0.264584,0.47625 0.264584,1.05833 0,0.58209 -0.119063,1.05834 -0.264584,1.05834 -0.145521,0 -0.264583,-0.47625 -0.264583,-1.05834 z m -4.590955,-0.16251 c -0.997056,-0.51163 -1.764908,-0.97815 -1.706337,-1.03672 0.241744,-0.24174 2.014823,0.51212 2.867752,1.21929 1.169059,0.96927 1.04539,0.94983 -1.161415,-0.18257 z m 5.384705,0.64449 c 0,-0.21998 0.256556,-0.62677 0.570124,-0.90399 l 0.570124,-0.50403 -0.490045,0.79375 c -0.66712,1.08057 -0.650203,1.06459 -0.650203,0.61427 z m 14.022917,0.0284 c -0.509323,-0.12605 -2.769177,-0.1986 -5.021898,-0.16122 -3.786642,0.0628 -4.006363,0.041 -2.910417,-0.28869 1.656676,-0.49844 7.973531,-0.31525 9.255231,0.2684 0.828644,0.37735 0.856472,0.42112 0.264584,0.4162 -0.363802,-0.003 -1.078177,-0.10864 -1.5875,-0.23469 z m -10.31875,-0.57822 c 1.689801,-0.78399 5.264864,-1.48752 6.723557,-1.3231 2.048349,0.23088 1.565272,0.46399 -0.995508,0.48038 -1.93848,0.0124 -2.812106,0.15737 -4.385112,0.72761 -2.312408,0.83828 -3.035149,0.90023 -1.342937,0.11511 z m -10.583334,0.0555 c -0.509323,-0.1222 -1.491588,-0.29578 -2.182812,-0.38575 -0.691224,-0.09 -1.25677,-0.29022 -1.25677,-0.44501 0,-0.17846 0.314647,-0.21487 0.859895,-0.0995 0.472943,0.10007 1.432605,0.2769 2.132586,0.39295 0.699979,0.11605 1.408401,0.34672 1.574271,0.51259 0.338828,0.33883 0.195213,0.34197 -1.12717,0.0247 z m 8.202084,-0.52519 c 0,-0.14096 0.178593,-0.25629 0.396875,-0.25629 0.218281,0 0.396875,0.0468 0.396875,0.10399 0,0.0572 -0.178594,0.17251 -0.396875,0.25628 -0.218282,0.0838 -0.396875,0.037 -0.396875,-0.10398 z M 29.52733,205.52646 c -0.575503,-0.16864 -0.532527,-0.19725 0.330729,-0.2202 1.00742,-0.0268 1.260674,0.0872 0.661458,0.29781 -0.181901,0.0639 -0.628385,0.029 -0.992187,-0.0776 z"
       id="path2336"
       inkscape:connector-curvature="0" />
    <path
       style="fill:#ffff00;stroke-width:0.26458335"
       d="m 33.643622,242.87511 c -0.08155,-0.13195 0.09002,-0.17759 0.381259,-0.10143 0.617799,0.16156 0.695894,0.34134 0.148272,0.34134 -0.209692,0 -0.447981,-0.10796 -0.529531,-0.23991 z m 3.451587,0.0194 c -0.07495,-0.12126 0.03185,-0.22048 0.237329,-0.22048 0.205478,0 0.312277,0.0992 0.237328,0.22048 -0.07495,0.12127 -0.181745,0.22049 -0.237328,0.22049 -0.05558,0 -0.162383,-0.0992 -0.237329,-0.22048 z m -9.827718,-0.32628 c -0.09592,-0.1552 -0.117655,-0.33893 -0.0483,-0.40829 0.06935,-0.0693 0.196601,0.0576 0.282773,0.28219 0.178906,0.46622 0.02643,0.54823 -0.234474,0.1261 z m 14.376085,-0.20594 c -0.299762,-0.38351 -0.289123,-0.39642 0.08563,-0.10392 0.349538,0.27281 0.488741,0.2607 0.760002,-0.0661 0.282347,-0.34021 0.225825,-0.40013 -0.377386,-0.40013 -0.405606,0 -0.639434,-0.11333 -0.545949,-0.26459 0.08994,-0.14552 0.394621,-0.26458 0.677074,-0.26458 0.282453,0 0.528434,0.11906 0.546624,0.26458 0.115528,0.92422 0.05038,1.14735 -0.352243,1.20644 -0.248303,0.0364 -0.605491,-0.1308 -0.79375,-0.37165 z m 2.171253,0.1221 c 0,-0.0558 0.294053,-0.15766 0.653452,-0.22637 0.359397,-0.0687 0.590497,-0.023 0.513551,0.10145 -0.135487,0.21923 -1.167003,0.32964 -1.167003,0.12492 z m -15.461115,-0.61475 c -0.143584,-0.37708 -0.113194,-0.40747 0.148114,-0.14811 0.180822,0.17948 0.262115,0.39297 0.180652,0.47443 -0.08146,0.0815 -0.229407,-0.0654 -0.328766,-0.32632 z m 7.856128,0.18703 c 0.133281,-0.48882 0.948817,-0.67659 1.321205,-0.3042 0.189735,0.18973 0.09092,0.22656 -0.31977,0.11916 -0.361569,-0.0945 -0.695273,-0.011 -0.852006,0.21324 -0.214067,0.30632 -0.23934,0.30155 -0.149429,-0.0282 z m 12.77529,0.0177 c -0.105061,-0.16999 -0.0026,-0.21167 0.266618,-0.10838 0.245297,0.0941 0.550613,0.006 0.695343,-0.20147 0.214725,-0.30732 0.239863,-0.30269 0.149807,0.0276 -0.130582,0.47892 -0.873635,0.66757 -1.111768,0.28226 z m -27.247761,-0.25758 c -0.08155,-0.13195 0.09002,-0.17759 0.38126,-0.10143 0.617799,0.16155 0.695893,0.34134 0.148272,0.34134 -0.209693,0 -0.447983,-0.10796 -0.529532,-0.23991 z m 9.642042,-0.0247 c -0.238467,-0.15411 -0.2711,-0.2581 -0.08176,-0.26054 0.173313,-0.002 0.3887,0.11501 0.478637,0.26054 0.203015,0.32848 0.111421,0.32848 -0.396875,0 z m 2.116666,-0.0248 c 0,-0.1319 0.238125,-0.23982 0.529167,-0.23982 0.291042,0 0.529167,0.0457 0.529167,0.10144 0,0.0558 -0.238125,0.1637 -0.529167,0.23981 -0.291042,0.0761 -0.529167,0.0305 -0.529167,-0.10143 z m 12.466109,-0.14536 c -0.03922,-0.72463 0.570052,-0.96273 1.200361,-0.4691 0.454285,0.35578 0.439121,0.37155 -0.21509,0.2237 -0.541835,-0.12246 -0.732687,-0.0473 -0.829204,0.32667 -0.106133,0.41119 -0.130085,0.39872 -0.156067,-0.0813 z m -7.04215,-0.0945 c 0.08994,-0.14552 0.328062,-0.26458 0.529166,-0.26458 0.201105,0 0.43923,0.11906 0.529167,0.26458 0.09311,0.15066 -0.13475,0.26459 -0.529167,0.26459 -0.394417,0 -0.622276,-0.11393 -0.529166,-0.26459 z m 5.423958,-0.007 c -0.585033,-0.16368 -0.605906,-0.20862 -0.180652,-0.3889 0.277151,-0.11751 0.605885,-0.0788 0.77611,0.0915 0.407567,0.40756 0.188783,0.51685 -0.595458,0.29744 z m 7.153368,-0.11402 c -0.175866,-0.21191 -0.242949,-0.50956 -0.149072,-0.66146 0.209296,-0.33865 1.197787,-0.36866 1.197787,-0.0364 0,0.1319 -0.238125,0.17754 -0.529166,0.10143 -0.590365,-0.15438 -0.696667,0.17918 -0.211667,0.66417 0.174625,0.17463 0.248735,0.3175 0.164687,0.3175 -0.08404,0 -0.296701,-0.17337 -0.472569,-0.38528 z m -29.839607,-0.40805 c 0.05952,-0.21829 0.336473,-0.42454 0.615456,-0.45836 0.356405,-0.0432 0.389224,-0.0117 0.110366,0.10582 -0.218281,0.092 -0.495236,0.29827 -0.615455,0.45835 -0.140587,0.18721 -0.179968,0.14945 -0.110367,-0.10581 z m 27.272349,-0.1323 c 0.04851,-0.14552 0.306478,-0.26458 0.573265,-0.26458 0.266787,0 0.524756,0.11906 0.573265,0.26458 0.04851,0.14552 -0.209463,0.26459 -0.573265,0.26459 -0.363802,0 -0.621771,-0.11907 -0.573265,-0.26459 z m -29.622497,-0.25585 c -0.08192,-0.21348 -0.08758,-0.5409 -0.01258,-0.72761 0.075,-0.1867 0.145761,-0.0815 0.15725,0.23381 0.01149,0.3153 0.169716,0.63332 0.351617,0.70672 0.259042,0.10452 0.257243,0.13798 -0.0083,0.15434 -0.186468,0.0115 -0.406058,-0.15378 -0.487978,-0.36726 z m 1.091595,-0.4056 c 0,-0.40878 0.0893,-0.68804 0.198438,-0.62058 0.109141,0.0675 0.198437,0.34671 0.198437,0.62058 0,0.27386 -0.0893,0.55312 -0.198437,0.62057 -0.109141,0.0675 -0.198438,-0.2118 -0.198438,-0.62057 z m 10.754911,-1.12448 c 0.113712,-0.90951 0.336275,-3.02287 0.494585,-4.69636 0.283835,-3.0004 1.013847,-7.04471 2.138609,-11.84799 0.646829,-2.76228 0.963808,-3.11687 0.490553,-0.54875 -0.170389,0.92461 -0.363754,2.0383 -0.429699,2.47487 -0.136292,0.90227 -1.289857,7.98783 -1.658406,10.18646 -0.134162,0.80036 -0.390546,2.497 -0.56974,3.77031 -0.179194,1.27331 -0.403847,2.3151 -0.499229,2.3151 -0.09538,0 -0.08038,-0.74414 0.03333,-1.65364 z m 5.631944,-11.9724 c 0.096,-7.56708 0.171924,-14.05599 0.168728,-14.41979 -0.0054,-0.61775 0.01397,-0.62753 0.293462,-0.14805 0.428435,0.73499 -0.0587,27.72845 -0.508796,28.19388 -0.07036,0.0728 -0.04939,-6.05896 0.04661,-13.62604 z m 6.654927,11.8401 c -0.966814,-10.10298 -1.849196,-15.73815 -3.083456,-19.69188 -0.886003,-2.83816 -0.921184,-3.12843 -0.379159,-3.12843 0.218281,0 0.396875,0.12609 0.396875,0.2802 0,0.15411 -0.120428,0.20577 -0.267615,0.1148 -0.147191,-0.091 -0.03081,0.43538 0.258614,1.16967 1.019434,2.58632 2.014334,7.14431 2.892592,13.252 0.327361,2.27656 0.706985,9.78958 0.494657,9.78958 -0.07788,0 -0.218509,-0.80367 -0.312508,-1.78594 z m 11.075501,1.27937 c 0.08226,-0.13309 -1.3e-5,-0.30228 -0.182822,-0.37598 -0.207089,-0.0835 -0.219922,-0.14188 -0.03404,-0.15489 0.164082,-0.0115 0.446551,0.1577 0.627708,0.37598 0.270568,0.32602 0.249947,0.39688 -0.115509,0.39688 -0.244689,0 -0.377587,-0.1089 -0.295333,-0.24199 z m -8.607039,-0.7502 c -0.01212,-0.25466 -0.0536,-0.70114 -0.09217,-0.99219 -0.03857,-0.29104 -0.220591,-1.66026 -0.404495,-3.0427 -0.781336,-5.87344 -3.605525,-16.3183 -4.846886,-17.92553 -0.166254,-0.21525 -0.161454,-0.33073 0.01376,-0.33073 0.382381,0 2.289228,4.05804 2.9302,6.23588 0.957069,3.25185 1.761442,7.00426 2.151337,10.036 0.360231,2.80108 0.602364,6.48229 0.426379,6.48229 -0.08584,0 -0.165986,-0.20836 -0.178112,-0.46302 z m 10.701063,0.0661 c -0.232199,-0.6051 0.09309,-1.19063 0.661458,-1.19063 0.6258,0 0.9471,0.73116 0.537945,1.22416 -0.39807,0.47965 -1.009033,0.46256 -1.199403,-0.0335 z m 1.169635,-0.356 c 0.07582,-0.22771 -0.05139,-0.32306 -0.353025,-0.26458 -0.259361,0.0503 -0.52491,0.25161 -0.590109,0.44741 -0.07582,0.22771 0.0514,0.32305 0.353026,0.26458 0.25936,-0.0503 0.52491,-0.25161 0.590108,-0.44741 z m -40.331332,0.31637 c 0.356623,-0.10319 0.455153,-0.31961 0.363585,-0.79863 -0.08111,-0.42431 -0.03473,-0.5662 0.130932,-0.40053 0.408958,0.40896 0.11781,1.22766 -0.457582,1.2867 -0.461107,0.0473 -0.465672,0.0365 -0.03693,-0.0875 z m 16.597321,-0.247 c 0.0127,-0.30823 0.07539,-0.37092 0.159851,-0.15986 0.07643,0.191 0.06703,0.4192 -0.02088,0.50712 -0.08792,0.0879 -0.150453,-0.0684 -0.138965,-0.34726 z m 13.706112,-0.44098 c -0.01722,-0.47294 -0.02706,-0.9197 -0.02185,-0.99279 0.0052,-0.0731 -0.09282,-1.0256 -0.217861,-2.11667 -0.50696,-4.42358 -3.614729,-14.40834 -4.962022,-15.94216 -0.224478,-0.25555 -0.329494,-0.54329 -0.233373,-0.63941 0.216276,-0.21628 0.182462,-0.25985 1.16469,1.50093 2.21329,3.96761 4.257903,11.28098 4.493692,16.07344 0.08054,1.63711 0.07031,2.97656 -0.02275,2.97656 -0.09306,0 -0.183295,-0.38695 -0.200526,-0.8599 z m 4.73364,-0.22208 c -0.165339,-1.55752 0.200236,-2.23749 0.400444,-0.74483 0.08436,0.62895 0.05664,1.3164 -0.06159,1.52768 -0.144118,0.25752 -0.255801,-5.3e-4 -0.338851,-0.78285 z m -29.803943,0.15594 c -0.022,-0.47072 0.613081,-3.09125 1.28243,-5.29167 0.132799,-0.43656 0.353001,-1.23275 0.489338,-1.7693 0.783521,-3.08354 5.494543,-12.64851 6.230492,-12.65002 0.12696,-2.6e-4 0.07433,0.1881 -0.116946,0.41858 -0.510889,0.61558 -2.806104,5.47176 -3.741084,7.91532 -0.445444,1.16417 -0.901204,2.23573 -1.012798,2.38125 -0.273442,0.35658 -2.371635,6.54661 -2.780204,8.20209 -0.179572,0.7276 -0.337624,1.08479 -0.351228,0.79375 z m 3.103108,0.15025 c -0.137242,-0.41173 0.392219,-4.08203 0.804109,-5.57421 1.594704,-5.77725 2.266584,-7.68369 3.916333,-11.1125 2.135119,-4.43759 2.320742,-4.78228 2.821445,-5.23924 0.370412,-0.33805 0.291568,-0.0234 -0.318407,1.27049 -3.613685,7.66569 -5.460815,12.93702 -6.724809,19.19119 -0.204853,1.01359 -0.429255,1.67252 -0.498671,1.46427 z m -9.222306,-0.26693 c 0,-0.13693 0.117699,-0.32171 0.261553,-0.41062 0.149982,-0.0927 0.194338,0.0135 0.103984,0.24897 -0.175893,0.45837 -0.365537,0.54224 -0.365537,0.16165 z m 17.548804,-4.51353 c 0.08119,-2.54662 0.212511,-5.16599 0.291825,-5.82083 0.915496,-7.55859 1.627971,-11.08714 1.335606,-6.61459 -0.144655,2.21289 -1.06295,12.90592 -1.327954,15.46325 -0.294225,2.83934 -0.439655,1.36898 -0.299477,-3.02783 z m 4.644181,1.52135 c -0.04185,-3.89076 -0.164533,-6.88077 -0.474969,-11.57552 -0.437208,-6.61196 -0.571492,-11.01808 -0.318243,-10.44222 0.130127,0.29589 0.381785,2.08183 0.559241,3.96875 0.177456,1.88692 0.367628,3.50578 0.422609,3.59746 0.05498,0.0917 0.180276,4.05052 0.278442,8.7974 0.133826,6.47134 0.10173,8.6307 -0.128291,8.6307 -0.212566,0 -0.316606,-0.91408 -0.338789,-2.97657 z m 1.922272,-2.26107 c -0.173878,-2.86737 -0.440287,-6.3445 -0.592021,-7.72695 -0.43163,-3.93263 -1.062556,-8.81711 -1.204703,-9.32656 -0.07106,-0.25466 -0.02159,-0.46302 0.109942,-0.46302 0.541242,0 2.078667,11.89885 2.328574,18.02192 0.260681,6.38703 -0.248126,5.98636 -0.641792,-0.50539 z m 18.777935,4.80701 c -0.03494,-0.64088 0.601985,-1.28765 1.016053,-1.03175 0.151894,0.0939 0.26236,0.49108 0.24548,0.88268 -0.01932,0.44795 -0.07557,0.54028 -0.151694,0.24897 -0.06655,-0.25467 -0.282133,-0.46302 -0.479073,-0.46302 -0.19694,0 -0.412525,0.20835 -0.479073,0.46302 -0.09611,0.36776 -0.127315,0.34721 -0.151693,-0.0999 z M 28.78516,237.69101 c 0.0054,-0.43656 0.06469,-0.58312 0.131773,-0.32569 0.06708,0.25743 0.06267,0.61462 -0.0098,0.79375 -0.07248,0.17913 -0.127362,-0.0315 -0.12197,-0.46806 z m 26.449097,0.22746 c -0.09933,-1.32849 -1.474812,-5.96965 -2.438691,-8.22862 -0.573781,-1.34472 -1.043237,-2.51747 -1.043237,-2.60611 0,-0.0886 -0.670496,-1.34535 -1.489993,-2.7927 -1.535078,-2.71117 -2.180092,-3.57845 -5.12459,-6.89051 l -1.719792,-1.93447 1.686134,1.44339 c 3.915762,3.35202 6.791989,8.03795 8.858131,14.43161 1.271881,3.93583 1.554189,5.17233 1.42444,6.23898 -0.06053,0.49763 -0.129114,0.64992 -0.152402,0.33843 z m -5.292236,-0.3597 c 0,-0.3638 0.06005,-0.51263 0.133453,-0.33073 0.0734,0.1819 0.0734,0.47956 0,0.66146 -0.0734,0.1819 -0.133453,0.0331 -0.133453,-0.33073 z m -29.25928,-0.92604 c 0.226365,-1.62337 1.863222,-6.60115 2.740622,-8.33437 0.25783,-0.50933 0.780462,-1.58089 1.161403,-2.38126 0.380942,-0.80036 1.051977,-2.05052 1.491189,-2.77812 0.439212,-0.7276 0.883429,-1.50151 0.987151,-1.71979 0.103719,-0.21828 0.285911,-0.51594 0.404873,-0.66146 0.11896,-0.14552 0.794454,-1.03849 1.501103,-1.98438 1.239563,-1.65922 4.373854,-5.02708 4.678445,-5.02708 0.171204,0 -1.685896,2.30828 -1.956377,2.43168 -0.837787,0.3822 -5.015098,7.00173 -7.351076,11.6488 -1.246509,2.47974 -1.517112,3.15261 -2.903031,7.21848 -0.542009,1.59009 -0.842991,2.22354 -0.754302,1.5875 z m -9.051398,0 c -0.321722,-0.83839 0.630766,-1.6771 1.079695,-0.95072 0.08155,0.13195 -0.107422,0.17305 -0.419937,0.0913 -0.496518,-0.12984 -0.551267,-0.06 -0.43393,0.55384 0.146247,0.76505 0.01739,0.93939 -0.225828,0.30556 z m 50.534124,-0.003 c -0.19943,-0.51971 0.366151,-1.19698 0.845854,-1.0129 0.204814,0.0786 0.349274,0.42218 0.321024,0.76352 -0.04236,0.5118 -0.119948,0.56518 -0.442521,0.30439 -0.306922,-0.24813 -0.348368,-0.245 -0.19246,0.0145 0.110458,0.18386 0.07058,0.33073 -0.08981,0.33073 -0.158676,0 -0.357616,-0.18011 -0.442089,-0.40024 z m -44.430864,-0.52581 c 0.241903,-1.02152 1.516319,-3.88231 1.663787,-3.73484 0.120607,0.12061 -1.441573,4.15898 -1.698338,4.39035 -0.08438,0.076 -0.06883,-0.21894 0.03455,-0.65551 z m 11.290859,-0.13229 c -0.05552,-1.9138 2.191198,-11.21933 2.898339,-12.00442 0.114173,-0.12676 -0.203639,1.30199 -0.706247,3.175 -0.502611,1.873 -1.09079,4.41749 -1.307071,5.65442 -0.216281,1.23693 -0.497845,2.66568 -0.625697,3.175 l -0.232458,0.92604 z m 20.610201,0.28433 c 0,-0.28018 -0.480844,-2.09589 -1.068539,-4.03489 -2.231382,-7.36211 -3.923329,-11.2421 -6.526204,-14.96601 -0.651904,-0.93267 -1.12649,-1.75456 -1.054635,-1.82641 0.258459,-0.25846 3.62638,4.77237 4.80178,7.17265 1.168903,2.38702 2.611414,6.4188 3.422857,9.5668 0.577405,2.24004 0.910317,4.59728 0.649269,4.59728 -0.123489,0 -0.224528,-0.22924 -0.224528,-0.50942 z m 2.150721,-2.20256 c -1.34125,-5.3007 -4.189807,-10.993 -8.254717,-16.49546 -1.292553,-1.74966 -1.344033,-2.18169 -0.09158,-0.7686 2.50153,2.82239 5.15601,6.96367 6.190136,9.65729 0.307271,0.80037 0.721008,1.8124 0.919414,2.24896 0.892918,1.96474 2.361189,7.80521 1.962198,7.80521 -0.0584,0 -0.384847,-1.10133 -0.725448,-2.4474 z m 4.510063,-0.63003 c -2.555136,-8.13917 -4.142292,-10.71986 -9.703493,-15.77774 -1.455208,-1.32351 -2.68995,-2.51738 -2.743869,-2.65304 -0.213558,-0.53734 3.646987,2.72194 5.792139,4.89004 2.81626,2.84639 4.634984,5.99012 6.226146,10.76213 0.991254,2.97283 1.649018,5.60064 1.39832,5.58636 -0.04917,-0.003 -0.48533,-1.26628 -0.969243,-2.80775 z m 8.163928,2.34152 c -0.0092,-0.68945 0.674328,-1.0688 1.12099,-0.62214 0.223231,0.22323 0.188288,0.29972 -0.13693,0.29972 -0.240155,0 -0.558004,0.20835 -0.706329,0.46302 -0.240073,0.41217 -0.270569,0.39674 -0.277731,-0.1406 z M 9.6835783,235.6056 c 0,-0.0558 0.2940539,-0.15766 0.6534527,-0.22636 0.359398,-0.0687 0.590497,-0.023 0.513552,0.10145 -0.135488,0.21922 -1.1670047,0.32963 -1.1670047,0.12491 z m -0.2436946,-0.84664 c 0.01269,-0.30823 0.07539,-0.37092 0.1598526,-0.15985 0.07643,0.19099 0.06703,0.41919 -0.02089,0.50711 -0.08792,0.0879 -0.1504526,-0.0684 -0.1389646,-0.34726 z m 49.8377723,-0.006 c -0.08802,-0.27549 -0.26942,-0.77438 -0.403101,-1.10865 -0.133683,-0.33427 -0.236566,-0.75099 -0.228631,-0.92604 0.0079,-0.17506 0.250229,0.26294 0.538429,0.97332 0.2882,0.71039 0.463106,1.35251 0.388676,1.42693 -0.07443,0.0744 -0.207346,-0.0901 -0.295373,-0.36556 z m 7.46773,-0.0158 c -0.09701,-0.097 -0.17639,-0.45421 -0.17639,-0.79376 0,-0.50454 0.132972,-0.61175 0.727604,-0.58667 0.403492,0.017 0.531387,0.0827 0.28711,0.14735 -0.582777,0.15435 -0.857112,0.91377 -0.428363,1.18582 0.194254,0.12325 0.216972,0.21727 0.05306,0.21959 -0.15765,0.002 -0.366009,-0.0753 -0.463021,-0.17234 z m 0.902832,-0.50712 c 0.0127,-0.30822 0.07539,-0.37092 0.159851,-0.15985 0.07643,0.19099 0.06703,0.4192 -0.02088,0.50712 -0.08792,0.0879 -0.150453,-0.0684 -0.138964,-0.34727 z M 16.23724,233.59176 c 0.261007,-1.57709 3.043446,-7.05756 5.014192,-9.87627 0.323205,-0.46227 0.908154,-1.31674 1.299887,-1.89883 0.810325,-1.20407 7.188555,-7.54062 7.590227,-7.54062 0.144968,0 -0.898226,1.16086 -2.31821,2.57969 -2.617581,2.61545 -5.18343,5.82168 -7.367282,9.20598 -1.242605,1.92566 -3.550812,6.26613 -4.074132,7.6612 l -0.29775,0.79375 z M 8.5099651,232.9839 c 0.099359,-0.26094 0.2473039,-0.40778 0.3287656,-0.32632 0.081462,0.0815 1.678e-4,0.29495 -0.1806532,0.47443 -0.2613068,0.25936 -0.2916979,0.22897 -0.1481124,-0.14811 z m 52.1211329,-1.54254 c -0.415888,-1.07348 -1.118889,-2.60662 -1.562225,-3.40699 -0.443338,-0.80036 -1.110064,-2.00189 -1.481619,-2.67005 -1.579202,-2.8399 -6.178277,-7.69465 -8.891315,-9.38561 -1.03555,-0.64543 -1.946984,-1.17351 -2.025411,-1.17351 -0.305417,0 -2.629115,-1.10852 -2.530473,-1.20716 0.179258,-0.17926 3.68195,1.1794 4.93753,1.91522 1.507204,0.88328 6.4863,5.8821 8.071279,8.10324 1.645083,2.30538 4.589078,8.72457 4.341682,9.46676 -0.05681,0.17043 -0.443563,-0.56842 -0.859448,-1.6419 z m 7.34967,1.20543 c -0.08752,-0.22806 -0.02339,-0.55038 0.142486,-0.71626 0.22575,-0.22575 0.417578,-0.17502 0.762735,0.20173 0.385382,0.42066 0.38894,0.44928 0.02167,0.17425 -0.330155,-0.24723 -0.486662,-0.25272 -0.629211,-0.0221 -0.10436,0.16885 -0.02567,0.41093 0.174881,0.53796 0.27608,0.17486 0.282295,0.23193 0.02559,0.235 -0.186471,0.002 -0.410639,-0.18255 -0.498155,-0.41061 z m -48.507605,-0.81358 c 0,-0.14197 0.185162,-0.48923 0.411471,-0.77171 0.387979,-0.48427 0.393486,-0.47582 0.09645,0.14787 -0.385713,0.8099 -0.507924,0.96 -0.507924,0.62384 z m 37.767283,-2.27748 c -2.491758,-5.25658 -5.888304,-9.603 -10.063347,-12.87767 -0.988409,-0.77525 -1.734706,-1.47195 -1.65844,-1.54821 0.520755,-0.52076 6.994562,5.50942 8.709721,8.11287 1.672423,2.53858 4.714867,8.7604 4.283797,8.7604 -0.06138,0 -0.633659,-1.10133 -1.271731,-2.44739 z m -42.528794,1.91269 c 5.55e-4,-0.21524 0.263577,-0.80806 0.584518,-1.31738 0.320941,-0.50932 0.794527,-1.38057 1.052414,-1.93611 0.447195,-0.96335 3.300812,-5.45924 3.641244,-5.73681 0.08924,-0.0728 0.596378,-0.7276 1.126973,-1.45521 1.369934,-1.87858 5.096572,-5.38652 5.399999,-5.0831 0.09161,0.0916 -0.507775,0.78286 -1.331957,1.53612 -2.724646,2.49017 -6.405708,7.37478 -9.248752,12.2727 -0.673985,1.16112 -1.224983,1.93503 -1.224439,1.71979 z m 48.461001,-1.48216 c -1.542864,-3.12877 -4.451432,-6.9391 -7.825123,-10.25121 -3.408775,-3.34655 -5.832308,-5.00835 -8.55136,-5.8636 -0.837107,-0.2633 -1.381842,-0.52545 -1.210521,-0.58256 0.719701,-0.2399 4.966194,1.55864 6.799437,2.87981 1.303014,0.93904 4.812183,4.33689 6.379495,6.17713 2.020668,2.37254 5.596515,8.47579 5.367838,9.16182 -0.04648,0.13944 -0.478377,-0.54518 -0.959766,-1.52139 z m -57.1043846,1.07303 c -0.2307178,-0.60123 0.3452338,-1.10986 0.77104,-0.68091 0.2651781,0.26714 0.2389576,0.29824 -0.1322917,0.1569 -0.3294398,-0.12542 -0.4630208,-0.0454 -0.4630208,0.27722 0,0.2944 0.1392288,0.40006 0.396875,0.30119 0.2182812,-0.0838 0.396875,-0.037 0.396875,0.10398 0,0.42041 -0.7973634,0.29015 -0.9694775,-0.15838 z m 5.7400806,0.0178 c 0,-0.14552 0.115416,-0.44318 0.25648,-0.66146 0.141065,-0.21828 0.256481,-0.27781 0.256481,-0.13229 0,0.14552 -0.115416,0.44318 -0.256481,0.66146 -0.141064,0.21828 -0.25648,0.27781 -0.25648,0.13229 z m 57.037913,-0.81539 c -0.215752,-0.56224 -0.215821,-0.56201 0.227801,-0.73225 0.213622,-0.082 0.470143,-0.0168 0.570047,0.14487 0.117777,0.19056 0.05959,0.21847 -0.165496,0.0794 -0.258586,-0.15981 -0.309081,-0.069 -0.197941,0.356 0.171236,0.65481 -0.192611,0.78214 -0.434411,0.15202 z m -48.566336,-0.0948 c -0.01776,-0.52004 1.667578,-3.8376 1.779281,-3.50249 0.04908,0.14724 -0.32825,1.08128 -0.838515,2.07562 -0.510264,0.99435 -0.933609,1.63644 -0.940766,1.42687 z m -7.68593,-1.01275 c 0,-0.34358 1.361324,-2.22787 1.505434,-2.08376 0.178434,0.17843 -1.01052,2.28693 -1.289571,2.28693 -0.118725,0 -0.215863,-0.0914 -0.215863,-0.20317 z m -7.6729168,-0.67878 c 0,-0.24512 0.2056363,-0.43917 0.4630208,-0.43692 0.2642349,0.002 0.3494289,0.0888 0.1984375,0.20152 -0.1455208,0.1086 -0.3538802,0.30522 -0.4630208,0.43692 -0.1091406,0.1317 -0.1984375,0.041 -0.1984375,-0.20152 z m 59.2147638,-1.42999 c -2.387264,-3.58284 -7.262564,-8.57717 -10.643365,-10.90322 -1.609177,-1.10715 -5.215737,-2.77186 -7.200217,-3.32347 -3.077001,-0.85529 -3.924269,-1.14155 -3.447556,-1.1648 0.539896,-0.0263 4.364871,0.89199 5.600333,1.34456 0.436562,0.15991 2.14812,1.01414 3.803459,1.89828 2.592814,1.38486 3.402899,1.99378 5.848265,4.39604 2.619611,2.57342 4.866572,5.30842 6.712615,8.1706 0.407508,0.63181 0.690893,1.19878 0.62974,1.25994 -0.06115,0.0611 -0.647624,-0.69392 -1.303274,-1.67793 z m 5.519959,1.3418 c -0.09701,-0.097 -0.176389,-0.39467 -0.176389,-0.66146 0,-0.53638 0.654444,-0.65994 0.951306,-0.1796 0.110242,0.17837 0.07323,0.23404 -0.08895,0.13381 -0.152754,-0.0944 -0.343683,1.9e-4 -0.42428,0.21023 -0.102706,0.26764 -0.01887,0.33288 0.280262,0.21809 0.284277,-0.10908 0.362919,-0.0604 0.235495,0.14577 -0.214169,0.34653 -0.5129,0.3977 -0.777441,0.13316 z m -4.163261,-3.05939 c -1.81578,-2.32346 -5.454049,-6.08875 -7.355356,-7.61214 -4.190243,-3.35737 -6.15393,-4.26474 -13.264022,-6.12894 -0.654844,-0.17169 -0.996098,-0.35727 -0.758341,-0.41239 0.237754,-0.0551 1.428379,0.14969 2.645833,0.45514 5.635728,1.41394 9.981433,3.71955 13.426773,7.12357 2.34137,2.31328 7.562678,8.75221 7.097149,8.75221 -0.0497,0 -0.85612,-0.97985 -1.792036,-2.17745 z m -61.5409393,1.4982 c -0.087516,-0.22806 -0.030909,-0.54287 0.1257922,-0.69957 0.2034937,-0.20349 0.2394275,-0.11098 0.1257456,0.32374 -0.1199671,0.45876 -0.073672,0.55582 0.1879753,0.39411 0.2299528,-0.14212 0.2834108,-0.11143 0.158355,0.0909 -0.254903,0.41244 -0.4084595,0.38439 -0.5978681,-0.1092 z m 10.6406193,-0.64367 c 0.26294,-1.00221 0.649584,-1.51706 3.050336,-4.06187 1.215225,-1.28814 2.254995,-2.20559 2.310599,-2.03878 0.0556,0.16682 -0.178474,0.57182 -0.520176,0.90002 -0.540349,0.51899 -3.394927,3.83497 -4.600577,5.34419 -0.399256,0.49979 -0.407655,0.49477 -0.240182,-0.14356 z m 7.791358,-0.25644 c 0,-0.41979 1.020269,-2.24876 1.603913,-2.87523 0.298295,-0.32018 0.684523,-0.9074 0.858284,-1.30493 0.41037,-0.93884 3.065857,-4.29465 3.398404,-4.29465 0.344479,0 0.117324,0.36066 -1.499786,2.38125 -0.757007,0.94588 -1.998638,2.76159 -2.759179,4.03489 -1.349531,2.2594 -1.601636,2.58345 -1.601636,2.05867 z M 8.8898292,225.53621 c 0,-1.40637 5.4417338,-6.59417 10.6225638,-10.12686 1.828509,-1.24683 2.66587,-1.68971 6.178478,-3.26783 1.620343,-0.72797 3.771471,-1.37153 4.154458,-1.24289 0.188902,0.0634 -0.132791,0.26628 -0.714875,0.45073 -1.346784,0.42677 -7.108101,3.21445 -8.930195,4.32098 -3.892113,2.36361 -7.681132,5.66167 -10.2035948,8.88146 -0.6147705,0.78473 -1.106835,1.22236 -1.106835,0.98441 z m 3.6006368,-0.26011 c 0.07944,-0.20703 0.313833,-0.44141 0.520862,-0.52086 0.20703,-0.0794 0.376418,-0.33113 0.376418,-0.55931 0,-0.51777 2.315244,-3.41441 3.640316,-4.55445 0.544441,-0.46842 1.525674,-1.31458 2.180517,-1.88036 2.221308,-1.9192 5.150493,-3.83914 7.805209,-5.11595 3.264593,-1.57014 4.211788,-1.67345 1.322916,-0.14429 -2.126376,1.12555 -6.379979,3.95232 -8.598958,5.71453 -1.525816,1.21172 -4.790362,4.55851 -6.028478,6.18034 -0.934312,1.22388 -1.510264,1.63989 -1.218802,0.88035 z m 57.090009,0.0613 c -0.107113,-0.17331 -0.05759,-0.36084 0.110062,-0.41672 0.509521,-0.16984 0.67905,-0.0949 0.741069,0.32768 0.07,0.47693 -0.570024,0.54388 -0.851131,0.089 z M 2.5398292,224.05806 c 0,-0.12361 0.2330164,-0.20718 0.5178145,-0.18573 0.5681363,0.0428 0.4880554,0.26282 -0.1285976,0.35333 -0.2140693,0.0314 -0.3892169,-0.044 -0.3892169,-0.1676 z m 63.5398648,-1.39428 c -1.560777,-2.11275 -4.116856,-4.48465 -6.801276,-6.31121 -4.145198,-2.82051 -6.666124,-3.89326 -11.752604,-5.00117 -3.76251,-0.81953 -3.478363,-1.1317 0.361395,-0.39703 4.579972,0.87629 9.97822,3.21141 12.842801,5.55542 3.135047,2.56532 7.027828,6.98375 6.562698,7.44888 -0.08111,0.0811 -0.626967,-0.50159 -1.213014,-1.29489 z m 3.439406,0.0915 c 0.113694,-0.34108 0.476597,-0.40235 0.509323,-0.086 0.0109,0.10551 -0.123031,0.23945 -0.297656,0.29766 -0.174625,0.0582 -0.269875,-0.037 -0.211667,-0.21167 z M 8.9098544,221.5186 c 1.0527678,-1.13959 4.7692976,-4.17234 6.3299746,-5.16536 4.296844,-2.73397 10.989467,-5.78061 11.972701,-5.45026 0.181734,0.0611 -0.145826,0.26589 -0.727909,0.45518 -0.582083,0.18929 -1.742253,0.68636 -2.578155,1.10459 -0.835902,0.41823 -1.550277,0.73503 -1.5875,0.70399 -0.06156,-0.0514 -2.399156,1.18332 -5.094762,2.69093 -1.886365,1.05502 -5.195108,3.41792 -7.218727,5.15519 -1.5483699,1.32926 -2.0854068,1.57716 -1.0956226,0.50574 z m 23.5278916,0.29746 c 0,-0.21828 0.115327,-0.39687 0.256281,-0.39687 0.140951,0 0.187745,0.17859 0.103984,0.39687 -0.08376,0.21828 -0.199089,0.39688 -0.256281,0.39688 -0.05719,0 -0.103984,-0.1786 -0.103984,-0.39688 z M 2.8044126,221.40357 c 0,-0.15411 0.1190625,-0.20661 0.2645833,-0.11667 0.1455208,0.0899 0.2645833,0.21602 0.2645833,0.2802 0,0.0642 -0.1190625,0.11667 -0.2645833,0.11667 -0.1455208,0 -0.2645833,-0.12609 -0.2645833,-0.2802 z m 6.3500001,-2.66268 c 5.3771323,-4.92364 16.4862743,-9.48206 23.1289943,-9.49054 0.860996,-0.001 1.509765,0.0537 1.441706,0.12175 -0.123997,0.12399 -4.542213,0.71853 -5.785284,0.77849 -0.363802,0.0175 -0.78052,0.10306 -0.926041,0.19003 -0.145521,0.087 -1.126918,0.36564 -2.180883,0.61928 -2.115651,0.50915 -8.92787,3.72986 -11.360129,5.3709 -4.1925573,2.82869 -4.8516489,3.2935 -4.9918865,3.52041 -0.083301,0.13478 -0.2932581,0.23991 -0.466571,0.23361 -0.173313,-0.006 0.3397294,-0.61107 1.1400942,-1.34393 z m 55.8818943,-0.0537 c -1.450017,-1.33248 -5.882256,-4.29672 -8.454763,-5.65447 -0.982578,-0.5186 -3.334319,-1.3948 -5.22609,-1.94712 -3.456207,-1.00905 -3.57786,-1.3788 -0.215736,-0.65568 1.98138,0.42615 3.433125,0.95005 6.433445,2.32168 2.643124,1.20833 8.06002,5.29702 8.766606,6.61705 0.393861,0.7358 0.03421,0.54777 -1.303462,-0.68146 z m -61.1735611,0.5997 c 0,-0.15411 0.1190625,-0.20662 0.2645833,-0.11668 0.1455208,0.0899 0.2645833,0.21603 0.2645833,0.2802 0,0.0642 -0.1190625,0.11667 -0.2645833,0.11667 -0.1455208,0 -0.2645833,-0.12609 -0.2645833,-0.28019 z m 3.7041666,-1.58997 c 1.8519792,-1.79734 5.5426235,-4.47984 6.1634615,-4.47984 0.368812,0 0.388969,-0.0156 -2.327003,1.80021 -1.309687,0.87562 -3.1551564,2.27005 -4.1010418,3.09874 -1.6492175,1.44488 -1.6383601,1.42768 0.2645833,-0.41911 z M 20.531496,219.357 c 0,-0.81389 8.141867,-6.81749 8.610325,-6.34903 0.06797,0.068 -0.465283,0.44407 -1.185003,0.83579 -0.719717,0.39172 -2.403477,1.63136 -3.741686,2.75475 -3.273295,2.74785 -3.683636,3.05513 -3.683636,2.75849 z m 12.970394,-0.2791 c -0.0071,-0.43594 0.816787,-2.216 0.959569,-2.07321 0.0563,0.0563 -0.135268,0.6261 -0.425701,1.26623 -0.290431,0.64013 -0.530672,1.00327 -0.533868,0.80698 z m 1.052523,-0.12514 c 0,-0.32478 0.876419,-2.5662 0.967713,-2.47491 0.193101,0.1931 -0.486034,2.56007 -0.734539,2.56007 -0.128246,0 -0.233174,-0.0383 -0.233174,-0.0852 z m 1.213903,-0.98311 c 0.09889,-0.64938 0.285382,-1.35928 0.41443,-1.57757 0.151357,-0.25602 0.180298,-0.0682 0.08154,0.52917 -0.0842,0.50932 -0.182419,1.13096 -0.218268,1.38141 -0.03585,0.25045 -0.15345,0.54363 -0.261339,0.65152 -0.10789,0.10789 -0.115253,-0.33515 -0.01635,-0.98453 z m -4.91807,0.43804 c 0,-0.21828 0.119063,-0.47046 0.264583,-0.5604 0.145521,-0.0899 0.264584,0.0151 0.264584,0.23336 0,0.21828 -0.119063,0.47046 -0.264584,0.56039 -0.14552,0.0899 -0.264583,-0.0151 -0.264583,-0.23335 z m 10.969329,0.0835 c -0.09592,-0.1552 -0.117655,-0.33893 -0.0483,-0.40829 0.06935,-0.0693 0.196601,0.0576 0.282773,0.28219 0.178906,0.46622 0.02643,0.54823 -0.234473,0.1261 z m -12.272219,-2.52023 c 0.352787,-0.37717 0.879557,-0.80882 1.170598,-0.95923 0.319392,-0.16507 0.167707,0.10679 -0.382632,0.68575 -0.501489,0.52758 -1.028258,0.95923 -1.170599,0.95923 -0.14234,0 0.02984,-0.30859 0.382633,-0.68575 z m 3.424864,-0.51127 c 0.184076,-0.2218 0.389171,-0.34878 0.455766,-0.28219 0.183486,0.18349 -0.189322,0.68546 -0.509085,0.68546 -0.175445,0 -0.155371,-0.15181 0.05332,-0.40327 z m 1.058334,0 c 0.184076,-0.2218 0.38917,-0.34878 0.455766,-0.28219 0.183485,0.18349 -0.189323,0.68546 -0.509085,0.68546 -0.175445,0 -0.155372,-0.15181 0.05332,-0.40327 z m 1.582192,0.022 c 0,-0.22687 0.119063,-0.41249 0.264583,-0.41249 0.145521,0 0.264584,0.11203 0.264584,0.24897 0,0.13693 -0.119063,0.32255 -0.264584,0.41249 -0.14552,0.0899 -0.264583,-0.0221 -0.264583,-0.24897 z m -7.9375,-0.40969 c 0,-0.27077 2.361295,-1.96303 2.519024,-1.80531 0.05532,0.0553 -0.488828,0.53859 -1.20922,1.07393 -0.720392,0.53533 -1.309804,0.86445 -1.309804,0.73138 z m -17.574892,-1.22213 c 2.951171,-2.2955 6.045011,-3.57272 12.150934,-5.01622 4.167941,-0.98535 11.912057,-1.24464 11.378279,-0.38097 -0.07774,0.12578 0.12832,0.28394 0.457901,0.35147 0.329581,0.0675 -0.233103,0.0984 -1.250405,0.0686 -2.678313,-0.0785 -9.387943,0.94498 -11.114942,1.6954 -0.291042,0.12646 -1.18401,0.43399 -1.984375,0.68339 -0.800364,0.2494 -2.340259,0.79168 -3.421987,1.20506 -1.081728,0.41339 -2.018811,0.69958 -2.082406,0.63598 -0.343168,-0.34316 6.679878,-3.09487 8.811685,-3.45251 0.582083,-0.0977 2.20813,-0.40433 3.613435,-0.6815 1.405308,-0.27718 3.131715,-0.52179 3.836459,-0.5436 0.92619,-0.0286 1.061344,-0.0734 0.487606,-0.16143 -1.898806,-0.29134 -9.64502,1.13004 -14.155209,2.59738 -2.094496,0.68142 -4.377225,1.80968 -6.446295,3.18613 -2.0785404,1.38276 -2.1972573,1.30359 -0.28068,-0.18718 z m 24.310887,0.40798 c -0.09592,-0.15521 -0.102946,-0.35364 -0.01561,-0.44098 0.08733,-0.0873 0.158787,0.003 0.158787,0.20047 0,0.23253 0.137025,0.17808 0.388461,-0.15434 0.410858,-0.54321 0.511527,-0.43685 0.24469,0.25852 -0.185524,0.48346 -0.524942,0.54307 -0.776322,0.13633 z m 6.362753,0.0206 c -0.09295,-0.15039 0.01415,-0.19409 0.251968,-0.10283 0.300347,0.11525 0.368816,0.042 0.250018,-0.26761 -0.08998,-0.23449 -0.0374,-0.42634 0.116843,-0.42634 0.493768,0 1.628256,0.60521 1.628256,0.86861 0,0.13998 -0.170981,0.11261 -0.379962,-0.0608 -0.276622,-0.22957 -0.523751,-0.23838 -0.908648,-0.0324 -0.651465,0.34865 -0.754791,0.35096 -0.958475,0.0214 z m 21.032502,-0.66912 c -3.079747,-2.31569 -7.99007,-4.02128 -12.997759,-4.51472 -1.252162,-0.12339 -1.758458,-0.25743 -1.420334,-0.37604 2.146117,-0.75282 11.447949,2.01274 14.137545,4.20327 0.646062,0.52619 1.360437,1.10174 1.5875,1.27902 0.98217,0.7668 -0.230235,0.21807 -1.306952,-0.59153 z M 43.947121,212.9525 c -0.348917,-0.14993 -0.39398,-0.23234 -0.132292,-0.24193 0.218282,-0.008 0.575469,0.10087 0.79375,0.24193 0.483651,0.31256 0.06591,0.31256 -0.661458,0 z m -14.280578,-0.27578 c 0.179771,-0.29087 2.487064,-1.15489 2.649712,-0.99224 0.07221,0.0722 -0.52387,0.37264 -1.324629,0.66762 -0.800759,0.29498 -1.397047,0.44106 -1.325083,0.32462 z m 29.097245,-2.12295 c -1.164167,-0.56905 -3.069167,-1.27708 -4.233334,-1.57341 -2.82091,-0.71803 -8.040393,-1.15187 -10.267778,-0.85344 -1.89824,0.25432 -2.202254,-0.0305 -0.380314,-0.3563 3.075373,-0.54995 9.608563,0.0635 12.387632,1.1632 1.656504,0.65549 4.408387,2.10422 4.606801,2.42526 0.214191,0.34657 0.347409,0.39734 -2.113007,-0.80531 z m -30.691667,0.0175 c 0.291042,-0.12506 0.886354,-0.22389 1.322917,-0.21961 0.774012,0.008 0.777301,0.013 0.132291,0.21961 -0.363802,0.11651 -0.959114,0.21534 -1.322916,0.21961 -0.60129,0.007 -0.613323,-0.0129 -0.132292,-0.21961 z m 2.37037,-0.0176 c -0.259,-0.41908 -0.171447,-0.4446 2.127547,-0.62025 1.660175,-0.12684 1.974014,-0.0989 1.455208,0.12935 -0.363802,0.16008 -1.110377,0.28788 -1.659057,0.28399 -0.555061,-0.004 -0.929587,0.10299 -0.844282,0.24102 0.08432,0.13644 -0.08481,0.24807 -0.375849,0.24807 -0.291041,0 -0.607645,-0.12698 -0.703567,-0.28218 z m 6.094828,-0.24861 c -0.536527,-0.59285 -0.552828,-0.56014 0.506654,-1.01667 0.623691,-0.26875 0.811207,-0.26637 0.988136,0.0126 0.305816,0.48214 0.278469,0.8479 -0.09103,1.2174 -0.454543,0.45454 -0.854355,0.39379 -1.40376,-0.21329 z m -19.823583,-1.0298 c 0.279166,-0.29804 2.016592,-1.00836 4.346927,-1.77716 2.574959,-0.84951 10.218449,-0.72765 12.288292,0.19591 0.430565,0.19212 0.378487,0.21185 -0.249751,0.0947 -1.957035,-0.3651 -7.442843,-0.4454 -9.734024,-0.14249 -2.401751,0.31753 -5.184791,1.03141 -6.34251,1.62691 -0.439472,0.22605 -0.519152,0.22662 -0.308934,0.002 z m 17.509948,0.0624 c 0.181901,-0.0734 0.479557,-0.0734 0.661458,0 0.181901,0.0734 0.03307,0.13345 -0.330729,0.13345 -0.363802,0 -0.51263,-0.06 -0.330729,-0.13345 z m 9.128125,-0.54345 c 0.400182,-0.0606 1.055026,-0.0606 1.455208,0 0.400182,0.0606 0.07276,0.11023 -0.727604,0.11023 -0.800365,0 -1.127787,-0.0496 -0.727604,-0.11023 z m -8.542491,-1.93933 c -0.649521,-0.57822 -1.657197,-1.28818 -2.23928,-1.57769 -0.582084,-0.28951 -0.873284,-0.52648 -0.647113,-0.52659 0.226171,-1.2e-4 0.987811,0.36545 1.692534,0.81237 0.822489,0.52161 1.344166,0.7109 1.456831,0.5286 0.105926,-0.17139 0.395737,0.0139 0.730943,0.46727 0.940924,1.27267 0.313182,1.45964 -0.993915,0.29604 z m 1.332595,0.45006 c 0,-0.0502 -0.25545,-0.3181 -0.567666,-0.59532 -0.564624,-0.50132 -0.565992,-0.50083 -0.255276,0.0913 0.257911,0.49149 0.822942,0.83755 0.822942,0.50403 z m 0.349025,-0.45625 c -0.313304,-0.57198 -0.487551,-1.03997 -0.387213,-1.03997 0.232159,0 1.219624,1.81718 1.069208,1.96759 -0.06179,0.0618 -0.368689,-0.35564 -0.681995,-0.92762 z m 0.973891,0.0184 c 0,-0.58208 0.119063,-1.05833 0.264584,-1.05833 0.145521,0 0.264583,0.47625 0.264583,1.05833 0,0.58209 -0.119062,1.05834 -0.264583,1.05834 -0.145521,0 -0.264584,-0.47625 -0.264584,-1.05834 z m -4.590954,-0.16251 c -0.997056,-0.51163 -1.764909,-0.97815 -1.706338,-1.03672 0.241745,-0.24174 2.014823,0.51212 2.867753,1.21929 1.169058,0.96927 1.04539,0.94983 -1.161415,-0.18257 z m 5.384704,0.63588 c 0,-0.22471 0.198086,-0.57198 0.440193,-0.7717 0.402653,-0.33216 0.410877,-0.30671 0.09645,0.29833 -0.460949,0.88701 -0.536647,0.95378 -0.536647,0.47337 z m 14.022917,0.037 c -0.509323,-0.12605 -2.745745,-0.19905 -4.969828,-0.16222 -2.878193,0.0477 -3.869629,-0.01 -3.439583,-0.19834 0.332312,-0.14592 2.449671,-0.26798 4.705244,-0.27126 3.280789,-0.005 4.286261,0.0819 5.027084,0.43303 0.835019,0.39583 0.861025,0.43844 0.264583,0.43348 -0.363802,-0.003 -1.078177,-0.10864 -1.5875,-0.23469 z m -10.31875,-0.57157 c 0.654844,-0.30016 1.905,-0.71475 2.778125,-0.92131 1.700093,-0.4022 4.846233,-0.494 5.190852,-0.15147 0.115052,0.11435 -0.708167,0.17057 -1.829376,0.12492 -1.717929,-0.0699 -2.412765,0.0445 -4.417751,0.72761 -2.713852,0.92461 -3.46933,1.02125 -1.72185,0.22025 z m -10.583333,0.0489 c -0.509323,-0.1222 -1.491589,-0.29578 -2.182813,-0.38575 -0.691224,-0.09 -1.256771,-0.29022 -1.256771,-0.44501 0,-0.17846 0.314648,-0.21487 0.859896,-0.0995 0.472943,0.10007 1.432605,0.2769 2.132587,0.39295 0.699979,0.11605 1.408401,0.34672 1.574271,0.51259 0.338828,0.33883 0.195212,0.34197 -1.12717,0.0247 z m 8.202083,-0.51689 c 0,-0.14552 0.12609,-0.26459 0.280199,-0.26459 0.154109,0 0.206613,0.11907 0.116676,0.26459 -0.08994,0.14552 -0.216027,0.26458 -0.280199,0.26458 -0.06417,0 -0.116676,-0.11906 -0.116676,-0.26458 z m -10.054167,-0.81176 c -0.575503,-0.16864 -0.532526,-0.19725 0.33073,-0.2202 1.007419,-0.0268 1.260673,0.0872 0.661458,0.29781 -0.181901,0.0639 -0.628386,0.029 -0.992188,-0.0776 z"
       id="path2322"
       inkscape:connector-curvature="0" />
  </g>
</svg>
