<?xml version="1.0" encoding="UTF-8" standalone="no"?>
<!-- Created with Inkscape (http://www.inkscape.org/) -->

<svg
   xmlns:dc="http://purl.org/dc/elements/1.1/"
   xmlns:cc="http://creativecommons.org/ns#"
   xmlns:rdf="http://www.w3.org/1999/02/22-rdf-syntax-ns#"
   xmlns:svg="http://www.w3.org/2000/svg"
   xmlns="http://www.w3.org/2000/svg"
   xmlns:sodipodi="http://sodipodi.sourceforge.net/DTD/sodipodi-0.dtd"
   xmlns:inkscape="http://www.inkscape.org/namespaces/inkscape"
   version="1.1"
   id="svg2949"
   width="283"
   height="443"
   viewBox="0 0 283 443"
   sodipodi:docname="feu83.svg"
   inkscape:version="0.92.4 (5da689c313, 2019-01-14)">
  <metadata
     id="metadata2955">
    <rdf:RDF>
      <cc:Work
         rdf:about="">
        <dc:format>image/svg+xml</dc:format>
        <dc:type
           rdf:resource="http://purl.org/dc/dcmitype/StillImage" />
        <dc:title></dc:title>
      </cc:Work>
    </rdf:RDF>
  </metadata>
  <defs
     id="defs2953" />
  <sodipodi:namedview
     pagecolor="#ffffff"
     bordercolor="#666666"
     borderopacity="1"
     objecttolerance="10"
     gridtolerance="10"
     guidetolerance="10"
     inkscape:pageopacity="0"
     inkscape:pageshadow="2"
     inkscape:window-width="1280"
     inkscape:window-height="972"
     id="namedview2951"
     showgrid="false"
     inkscape:zoom="1.5067919"
     inkscape:cx="112.64858"
     inkscape:cy="221.5"
     inkscape:window-x="-8"
     inkscape:window-y="-8"
     inkscape:window-maximized="1"
     inkscape:current-layer="g151"
     showguides="false" />
  <g
     id="g151"
     transform="translate(25.882805,-2.654647)">
    <g
       id="g194"
       transform="translate(-1.990985,-9.2912633)">
      <path
         style="fill:#00ffff"
         d="m 99.882544,283.32351 c -0.0905,-21.72572 1.960076,-77.67662 2.933736,-80.04867 0.5511,-1.3426 0.75525,13.20739 0.52334,37.29867 -0.20914,21.725 -0.41335,43.2125 -0.45381,47.75 -0.0577,6.47248 -0.38324,8.25 -1.51083,8.25 -1.17459,0 -1.447336,-2.42156 -1.492436,-13.25 z m 9.651846,6.5 c -0.62172,-9.35691 -0.0917,-94.21379 0.59275,-94.89823 1.23495,-1.23495 1.61138,8.22335 2.1451,53.89823 0.47793,40.90097 0.35376,47.75 -0.86569,47.75 -1.04664,0 -1.54243,-1.78757 -1.87216,-6.75 z m 10.85028,3.5 c -0.28501,-1.7875 -0.74859,-14.5 -1.03019,-28.25 -0.2816,-13.75 -0.72694,-32.65 -0.98964,-42 -0.77204,-27.4773 1.18447,-13.58467 2.91067,20.66795 1.76198,34.96238 1.95884,52.83205 0.58204,52.83205 -0.52507,0 -1.18787,-1.4625 -1.47288,-3.25 z m 10.39694,-13 c -0.0168,-8.9375 -0.46211,-21.875 -0.98948,-28.75 -1.92093,-25.04219 -2.36291,-41 -1.13556,-41 0.63562,0 1.15889,0.3375 1.16282,0.75 0.004,0.4125 0.68069,9.525 1.50392,20.25 0.82322,10.725 1.79125,29.7375 2.15118,42.25 0.59786,20.784 0.5111,22.75 -1.00392,22.75 -1.47515,0 -1.66171,-1.79499 -1.68896,-16.25 z m -41.947176,-7 c 0.0322,-32.23358 3.3385,-75.09969 6.02443,-78.10556 0.86937,-0.97293 0.35643,14.09657 -1.08432,31.85556 -0.53544,6.6 -1.26788,24.7125 -1.62763,40.25 -0.52382,22.62288 -0.92108,28.25 -1.99439,28.25 -1.08088,0 -1.33598,-4.30628 -1.31809,-22.25 z m 51.901296,13.46862 c -0.0421,-4.79524 -0.22919,-9.51923 -0.41579,-10.49774 -0.18661,-0.97852 -0.6155,-7.72852 -0.95309,-15 -0.33759,-7.27149 -1.04236,-18.17088 -1.56614,-24.22088 -0.52378,-6.05 -1.18858,-14.375 -1.47735,-18.5 -0.28876,-4.125 -0.73346,-10.425 -0.98821,-14 -0.32351,-4.53985 -0.2003,-5.68411 0.40858,-3.79443 0.88799,2.75587 1.1926,4.56453 2.99694,17.79443 1.23451,9.05177 3.83386,43.33657 4.70755,62.09137 0.5601,12.02327 0.44456,13.66375 -1.00142,14.21862 -1.43239,0.54966 -1.64402,-0.45113 -1.71107,-8.09137 z M 79.192864,266.32351 c 0.6541,-32.67169 2.71934,-57.40406 5.71823,-68.47904 2.09773,-7.747 4.71735,-12.79785 3.51174,-6.77096 -2.74911,13.74296 -6.55733,65.88191 -6.59183,90.25 -0.0162,11.44523 -0.23567,13.25 -1.61124,13.25 -1.4324,0 -1.53562,-2.83967 -1.0269,-28.25 z m 71.341256,12 c -0.71153,-18.72754 -3.41406,-54.1233 -4.75289,-62.25 -0.54366,-3.3 -1.20671,-8.40805 -1.47344,-11.35122 -0.26674,-2.94318 -1.10448,-7.21818 -1.86165,-9.5 -2.1954,-6.61609 -2.94566,-11.91937 -1.62391,-11.47878 0.627,0.209 1.03022,0.59375 0.89603,0.855 -0.13419,0.26125 0.25273,1.4031 0.85981,2.53745 0.60709,1.13435 1.84373,7.20935 2.74809,13.5 5.40406,37.59 6.69428,50.12798 8.09735,78.68755 0.60581,12.33126 0.49743,14.25 -0.80495,14.25 -1.24891,0 -1.60363,-2.59513 -2.08444,-15.25 z m -81.35214,8.5 c 0.345437,-3.1625 1.308718,-16.55 2.140623,-29.75 2.110961,-33.49496 5.042911,-56.28608 7.583591,-58.95 1.15896,-1.21518 1.14934,0.16107 -0.0702,10.041 -2.29146,18.56359 -4.01997,38.20752 -5.00757,56.909 -1.2903,24.43358 -1.70657,27.5 -3.733224,27.5 -1.28248,0 -1.435812,-0.96546 -0.9132,-5.75 z m 91.17193,-6.06657 c -1.60453,-26.71253 -6.80868,-71.2346 -9.61433,-82.25153 -2.10682,-8.27287 -2.50759,-12.91535 -0.98255,-11.3819 0.51963,0.5225 1.87389,5.45 3.00947,10.95 1.13558,5.5 2.71885,13.15 3.51837,17 2.95596,14.23402 5.69793,40.94345 6.89787,67.19194 0.27507,6.01711 0.0345,8.32242 -0.90631,8.68343 -0.96881,0.37176 -1.43712,-2.11096 -1.92252,-10.19194 z m -100.235489,9.11488 c -0.656603,-0.23514 -0.994144,-0.96095 -0.750093,-1.61292 0.244052,-0.65196 0.895511,-6.81039 1.447688,-13.68539 0.552177,-6.875 1.460146,-15.65 2.017711,-19.5 0.557564,-3.85 1.202615,-9.7 1.433447,-13 1.523634,-21.78207 7.268874,-53.5 9.69074,-53.5 1.21682,0 1.06591,1.24936 -0.64567,5.34576 -0.825,1.9745 -1.508463,5.51696 -1.518806,7.87212 -0.01034,2.35517 -0.879971,10.13212 -1.932506,17.28212 -3.435983,23.34107 -3.950392,27.74944 -5.601086,48 -1.703889,20.90317 -2.176009,23.50216 -4.141425,22.79831 z M 168.34669,279.70775 c -3.38952,-51.43834 -6.84747,-75.95931 -13.66299,-96.88695 -1.11998,-3.43899 -1.82514,-6.81399 -1.56703,-7.5 0.9071,-2.41086 5.90997,10.85729 8.38701,22.24324 5.61695,25.81878 7.56279,39.2471 9.27534,64.00947 0.55155,7.975 1.29171,17.24509 1.64482,20.60021 0.58736,5.58101 0.46819,6.14566 -1.40015,6.63424 -1.92173,0.50255 -2.0796,-0.0341 -2.677,-9.10021 z m -118.052466,6.8366 c -0.584624,-0.94594 -0.329714,-6.78941 1.111119,-25.47084 0.681382,-8.83461 3.733263,-28.33177 7.027011,-44.89257 1.884683,-9.47609 7.207935,-27.72871 8.474399,-29.05743 0.49802,-0.5225 0.905491,-0.67053 0.905491,-0.32896 0,0.63128 -2.89902,13.38332 -5.519524,24.27896 -3.905435,16.23819 -7.145613,37.87375 -8.087128,54 -0.417446,7.15 -0.833181,13.45 -0.923856,14 -0.09068,0.55 -0.233405,2.6875 -0.317178,4.75 -0.147075,3.62101 -1.353981,4.85075 -2.670334,2.72084 z M 177.37623,272.742 c -0.38349,-7.51767 -1.09453,-16.59349 -1.58008,-20.16849 -1.01485,-7.472 -1.64804,-13.01088 -2.45781,-21.5 -0.81727,-8.56781 -2.47261,-17.91701 -4.60348,-26 -1.01495,-3.85 -2.56231,-10.15 -3.43858,-14 -0.87627,-3.85 -2.76339,-9.81776 -4.19361,-13.26168 -2.88121,-6.93788 -2.63246,-9.17806 0.44076,-3.96934 3.08753,5.23296 6.87822,17.85387 10.2813,34.23102 4.20339,20.22861 4.68353,23.40993 6.41441,42.5 2.84479,31.37569 2.96686,34.63492 1.32082,35.26657 -1.25092,0.48002 -1.59696,-1.59555 -2.18373,-13.09808 z m -137.224079,7.58151 c 0.30937,-1.7875 0.831692,-6.85 1.160717,-11.25 1.469846,-19.65603 6.940847,-49.08033 12.721113,-68.41706 4.129282,-13.81369 10.519942,-28.79374 13.250516,-31.05991 0.829051,-0.68805 -0.03306,1.83779 -1.915814,5.61298 -1.882749,3.7752 -4.817445,11.81399 -6.521547,17.86399 -1.704101,6.05 -3.520515,12.35 -4.036474,14 -0.960818,3.07262 -5.071306,23.70811 -7.566911,37.98744 -0.767782,4.39309 -1.862261,13.61809 -2.432174,20.5 -1.299651,15.69376 -1.774685,18.01256 -3.690079,18.01256 -1.176941,0 -1.401519,-0.75296 -0.969347,-3.25 z m 148.245749,-5.5 c -0.33953,-3.7125 -0.84,-9.675 -1.11215,-13.25 -0.89017,-11.69355 -1.24438,-13.93738 -5.99872,-38 -1.48381,-7.50981 -2.46634,-11.36605 -6.62455,-26 -3.00382,-10.5713 -6.48172,-19.53364 -11.41905,-29.42622 -4.91926,-9.85637 -5.18557,-10.689 -2.42241,-7.57378 6.72851,7.5858 17.66517,34.55149 22.50952,55.5 3.22471,13.94469 7.4226,42.95865 8.71432,60.22955 0.28038,3.74893 -0.5028,5.27045 -2.71292,5.27045 -0.17419,0 -0.59451,-3.0375 -0.93404,-6.75 z M 33.171984,272.05486 c 1.100496,-14.31705 4.538116,-37.59436 7.824348,-52.98135 2.029195,-9.50122 8.365588,-29.36648 9.860494,-30.91369 1.115634,-1.15467 0.03143,6.22421 -1.293469,8.80308 -1.340902,2.61002 -2.80747,7.35906 -3.739921,12.11061 -8.634943,44.00167 -9.578338,50.39456 -9.924028,67.25 -0.06655,3.24498 -0.476763,4.25 -1.734691,4.25 -1.452346,0 -1.569954,-1.0092 -0.992733,-8.51865 z m -8.314624,3.54653 c -1.16097,-0.71752 -1.2023,-2.01756 -0.244656,-7.69562 0.633769,-3.75774 1.41087,-9.75726 1.726891,-13.33226 0.887667,-10.04177 7.031226,-38.79891 11.066185,-51.79925 3.498019,-11.27036 12.854154,-31.82551 16.138989,-35.45688 2.736485,-3.02517 2.681316,-0.96762 -0.08619,3.21436 -1.455483,2.19939 -2.646335,4.25176 -2.646335,4.56082 0,0.30907 -0.865527,1.78121 -1.923394,3.27144 -2.524974,3.55696 -12.538119,34.49496 -14.470324,44.70951 -0.832312,4.4 -2.195061,11.6 -3.02833,16 -1.836928,9.69972 -3.404255,21.81039 -3.918426,30.27751 -0.425535,7.00749 -0.623515,7.48081 -2.61441,6.25037 z m 176.54756,-6.35423 c -1.41714,-13.49371 -3.86906,-28.68964 -6.24014,-38.67365 -4.13231,-17.40008 -9.28392,-35.08302 -11.28565,-38.7381 -0.5307,-0.96905 -2.88175,-6.2619 -5.22455,-11.7619 -4.19944,-9.85868 -12.89589,-24.06672 -17.15802,-28.03237 -1.20138,-1.1178 -2.85932,-2.90022 -3.68432,-3.96093 -1.34541,-1.72981 -1.19083,-1.70934 1.5,0.19861 4.55487,3.22967 16.5,16.71741 16.5,18.63084 0,0.30159 1.76266,3.38683 3.91702,6.8561 2.15437,3.46926 6.14421,12.15775 8.86632,19.30775 4.44585,11.67767 6.09911,16.92103 10.72038,34 2.90014,10.71814 7.49628,37.64148 7.49628,43.91184 0,1.41723 -0.89202,2.67356 -2.37947,3.35129 -2.3361,1.0644 -2.39129,0.97163 -3.02785,-5.08948 z M 16.010877,270.3125 c -0.707892,-0.8532 -0.590262,-4.81981 0.377774,-12.73899 4.428261,-36.22609 14.489604,-66.61723 29.795552,-90 5.365785,-8.19726 17.941106,-21.03487 20.513338,-20.94119 1.334672,0.0486 1.283069,0.26539 -0.297548,1.25 -1.051738,0.65515 -2.626738,1.89719 -3.5,2.76009 -2.43656,2.40763 -17.521904,20.99709 -18.087749,22.28928 -0.275,0.628 -1.68246,2.95819 -3.127689,5.1782 -5.502528,8.45239 -7.564865,14.09282 -13.515182,36.96362 -4.561163,17.53141 -9.300669,43.76384 -9.339192,51.69098 -0.01953,4.01787 -1.198472,5.50154 -2.819304,3.54801 z m 193.801363,-4.49181 c 0,-4.57757 -1.7195,-19.47338 -4.00624,-34.7055 -1.01086,-6.7334 -4.22721,-19.66224 -7.9711,-32.04168 -2.18282,-7.21766 -11.29617,-26.93297 -12.91103,-27.93101 -0.63231,-0.39079 -2.23297,-2.84833 -3.55701,-5.4612 -2.48857,-4.91096 -16.7111,-19.19766 -23.74597,-23.85312 -2.11712,-1.40104 -3.65461,-2.74205 -3.41664,-2.98001 0.23797,-0.23797 3.52073,1.60176 7.29504,4.08828 8.61048,5.67261 19.62557,16.96254 25.67403,26.31461 4.55036,7.03573 15.63892,31.76377 15.63892,34.87558 0,0.86809 0.4722,2.46068 1.04934,3.53907 2.45184,4.58129 11.66535,56.60295 10.54295,59.5279 -0.26363,0.68699 -1.40474,1.74434 -2.5358,2.34967 -1.94319,1.03996 -2.05649,0.83488 -2.05649,-3.72259 z M 6.293239,263.54276 c -1.281638,-2.07373 1.492565,-18.25791 6.165653,-35.96925 5.934428,-22.49192 7.467798,-27.16901 11.638556,-35.5 2.202781,-4.4 5.113673,-10.25 6.468649,-13 3.460642,-7.02357 10.878848,-18.0724 16.219544,-24.15773 7.954734,-9.06385 23.819075,-20.88313 25.616983,-19.08522 0.20581,0.20581 -2.205324,2.21319 -5.358086,4.46083 -9.587454,6.83501 -16.833515,13.93696 -24.063519,23.58494 -3.790698,5.05845 -7.635137,10.54718 -8.543196,12.19718 -0.90806,1.65 -2.073919,3.675 -2.590798,4.5 -2.196303,3.50556 -8.7483,20.63604 -12.43047,32.5 -4.852846,15.63588 -8.051584,30.2625 -10.114548,46.25 -0.649417,5.03284 -1.643977,6.42753 -3.008768,4.21925 z M 220.4477,247.29311 c -0.95307,-7.82078 -2.59657,-17.1446 -3.65221,-20.7196 -1.05564,-3.575 -2.60603,-9.25456 -3.44531,-12.62125 -1.34225,-5.38427 -6.76835,-21.26596 -9.18333,-26.87875 -0.90611,-2.10594 -8.08475,-14.72638 -11.51841,-20.25 -1.11117,-1.7875 -1.58295,-3.25 -1.0484,-3.25 1.47844,0 9.03023,10.42395 12.18663,16.82155 5.71486,11.58328 12.91665,34.48104 16.41111,52.17845 4.82353,24.42839 5.06172,26.38392 3.38327,27.77691 -1.17796,0.97761 -1.67582,-1.09711 -3.13335,-13.05731 z m -222.146219,9.26298 c -0.824971,-1.33483 0.357599,-11.04712 2.189561,-17.98258 0.799037,-3.025 2.555871,-9.775 3.904077,-15 3.154159,-12.22401 5.127196,-18.30249 7.952546,-24.5 1.253684,-2.75 3.279458,-7.25 4.501719,-10 1.222261,-2.75 2.877998,-5.9 3.679415,-7 1.350702,-1.85393 1.406606,-1.74438 0.765445,1.5 -0.380423,1.925 -2.152127,6.875 -3.937119,11 -1.784992,4.125 -4.467214,11.55 -5.960492,16.5 -1.493278,4.95 -3.30992,10.84377 -4.036983,13.09727 -0.727062,2.2535 -2.588836,10.691 -4.137275,18.75 -2.664586,13.86809 -3.443363,16.02601 -4.920894,13.63531 z M 228.96932,245.82351 C 224.59489,217.3097 212.77837,182.6632 203.26383,170.454 c -5.55644,-7.13009 -4.70442,-8.49645 0.9609,-1.54097 4.71127,5.78417 9.0053,12.86542 10.10282,16.66048 0.39765,1.375 1.52878,4.3 2.51362,6.5 9.32511,20.83098 18.6678,56.60823 15.73339,60.25 -1.85295,2.29962 -2.40908,1.29697 -3.60524,-6.5 z m -238.734329,2.06982 c -1.641129,-2.6191 1.880772,-20.39893 7.194379,-36.31982 4.945229,-14.81714 13.610902,-33.65837 21.311235,-46.33569 8.10517,-13.34382 25.482774,-29.30314 39.781801,-36.53499 6.869564,-3.47433 6.270228,-2.42859 -1.064672,1.85768 -13.882261,8.11232 -28.591179,22.72743 -36.747374,36.513 -2.277842,3.85 -4.867137,8.125 -5.75399,9.5 -6.635346,10.28762 -18.920082,47.48876 -23.039618,69.76951 -0.520451,2.81489 -0.7543,3.03046 -1.681761,1.55031 z M 238.35387,236.82351 c -1.65688,-13.83119 -8.30658,-34.04957 -16.59002,-50.44186 -5.71411,-11.30779 -6.51539,-12.53171 -16.72639,-25.54921 -14.15908,-18.05068 -37.51531,-33.73267 -57.07686,-38.32289 -5.5816,-1.30975 -10.14836,-2.71704 -10.14836,-3.12732 0,-0.41027 0.5625,-0.55682 1.25,-0.32567 0.6875,0.23115 3.00402,0.67515 5.14782,0.98666 6.22574,0.90465 8.75322,1.5619 14.60218,3.79713 13.81669,5.28017 25.19711,13.1706 39.66496,27.50103 19.57298,19.38707 26.28529,29.64852 34.82074,53.23213 6.9913,19.31712 10.2176,38 6.56214,38 -0.44957,0 -1.12736,-2.5875 -1.50621,-5.75 z m -111.80486,-36.5 c -0.49003,-4.96957 -0.28469,-6.63125 0.69803,-5.64853 1.025,1.02499 1.76902,10.89853 0.82126,10.89853 -0.55088,0 -1.23456,-2.3625 -1.51929,-5.25 z m -46.657816,-6.33333 c 0.048,-1.16495 0.28494,-1.4019 0.60416,-0.60417 0.28887,0.72187 0.25335,1.58437 -0.0789,1.91667 -0.3323,0.33229 -0.56864,-0.25834 -0.52522,-1.3125 z m -28.07895,-8.79864 c 0,-0.825 0.45,-1.77811 1,-2.11803 0.55,-0.33992 1,0.057 1,0.88197 0,0.825 -0.45,1.77811 -1,2.11803 -0.55,0.33992 -1,-0.057 -1,-0.88197 z m 56.958176,-5.69617 c -1.55774,-2.91067 -0.4882,-4.92186 2.61742,-4.92186 1.8816,0 2.48039,0.41172 2.08757,1.43539 -0.30295,0.78947 -0.0136,1.63783 0.64301,1.88525 0.78175,0.29458 0.50349,0.99624 -0.80618,2.0328 -2.64145,2.09065 -3.22146,2.03553 -4.54182,-0.43158 z M 95.488814,178.8112 c -1.11663,-0.25268 -1.60559,-0.98027 -1.26145,-1.87709 0.31503,-0.82096 0.12759,-1.19601 -0.42657,-0.85352 -0.5437,0.33602 -0.98855,0.24264 -0.98855,-0.20752 0,-1.67122 3.53485,-3.01578 5.76228,-2.1918 4.228856,1.56436 1.464746,6.15964 -3.08571,5.12993 z m 25.889436,-1.92626 c -0.83854,-2.18521 0.68164,-3.56143 3.93399,-3.56143 3.92669,0 5.34703,1.85616 3.06628,4.00714 -1.04694,0.98737 -1.50323,1.13403 -1.05264,0.33835 0.58766,-1.03771 0.42858,-1.17584 -0.60913,-0.52893 -2.47523,1.54307 -4.68906,1.43727 -5.3385,-0.25513 z m 30.16316,-3.9156 c -0.40105,-0.40104 -0.72917,-1.41916 -0.72917,-2.2625 0,-1.12559 0.29583,-1.2375 1.1125,-0.42083 0.61187,0.61187 0.94,1.63 0.72917,2.2625 -0.21084,0.6325 -0.71146,0.82187 -1.1125,0.42083 z m -67.658726,-3.72351 c -1.10365,-2.96852 -0.38547,-4.37894 2.51177,-4.93279 1.92213,-0.36743 2.57223,0.0276 3.02696,1.83943 0.71109,2.8332 0.046,4.01645 -2.65455,4.72265 -1.50631,0.39392 -2.29832,-0.0535 -2.88418,-1.62929 z m 48.432396,-1.66337 c -0.80011,-2.52093 0.10323,-4.00895 2.43373,-4.00895 2.23799,0 4.43487,2.47875 3.73692,4.21638 -0.29831,0.74266 -0.57558,0.44075 -0.65793,-0.71638 -0.13198,-1.85458 -0.20809,-1.8364 -1.04672,0.25 -1.11935,2.7848 -3.61834,2.92969 -4.466,0.25895 z m -102.502836,-0.7723 c 0,-4.00465 19.911415,-25.33942 27.724239,-29.70609 7.697035,-4.30195 6.945718,-2.40969 -1.186421,2.98812 -7.15589,4.74981 -17.760286,15.36192 -22.046823,22.06285 -3.283547,5.13301 -4.490995,6.38459 -4.490995,4.65512 z m 77.190366,-1.98665 c 0.18536,-0.9625 0.99969,-1.75 1.80963,-1.75 0.80994,0 1.62427,0.7875 1.80963,1.75 0.23646,1.22785 -0.30348,1.75 -1.80963,1.75 -1.50615,0 -2.04609,-0.52215 -1.80963,-1.75 z m 14.29955,-2.26631 c -0.34546,-0.55897 -1.04702,-0.75742 -1.55902,-0.44098 -0.51199,0.31643 -0.9309,-0.12623 -0.9309,-0.98369 0,-0.89235 0.85524,-1.55902 2,-1.55902 1.33333,0 2,0.66667 2,2 0,2.19736 -0.54185,2.55032 -1.51008,0.98369 z m 58.90402,-9.36405 c -8.70693,-8.71991 -10.67771,-10.18303 -21.74337,-16.14244 -2.66719,-1.43642 -4.62518,-2.83593 -4.35108,-3.11003 0.59355,-0.59354 10.59272,4.89763 16.10662,8.84515 9.14807,6.54931 22.91341,20.1611 19.87907,19.65732 -0.43185,-0.0717 -4.88291,-4.2342 -9.89124,-9.25 z m -84.393936,7.34604 c -1.29751,-0.86819 -1.23615,-1.20493 0.45451,-2.49446 1.68438,-1.28475 2.14989,-1.29539 3.36832,-0.077 2.604266,2.60427 -0.57637,4.74372 -3.82283,2.57142 z m 43.249996,-3.38975 c -2.66406,-1.24345 -2.81138,-2.29813 -0.654,-4.68201 1.29848,-1.4348 2.04415,-1.55937 4,-0.66823 1.3222,0.60244 2.404,1.90728 2.404,2.89964 0,2.47285 -2.98067,3.74319 -5.75,2.4506 z m -30.70729,-1.50683 c -0.31644,-0.512 -0.11799,-1.21356 0.44098,-1.55902 1.19337,-0.73755 3.01631,0.19857 3.01631,1.54894 0,1.2168 -2.70662,1.22469 -3.45729,0.0101 z m 47.45729,-0.12812 c 0,-0.58246 0.45,-0.7809 1,-0.44098 0.55,0.33992 1,0.81648 1,1.05902 0,0.24254 -0.45,0.44098 -1,0.44098 -0.55,0 -1,-0.47656 -1,-1.05902 z m -79.690526,-1.5769 c -1.51396,-3.94533 4.01436,-6.8974 7.11331,-3.79844 1.56276,1.56276 1.56078,1.79505 -0.0303,3.55321 -2.09538,2.31537 -6.2336,2.45864 -7.08297,0.24523 z m 49.316356,-0.89678 c -0.91835,-2.39317 -0.85984,-2.4673 1.94749,-2.4673 1.90604,0 2.48651,0.45082 2.23852,1.73852 -0.44133,2.29163 -3.38934,2.80488 -4.18601,0.72878 z m -35.625826,-1.30063 c 0,-2.59929 0.9737,-3.25111 3.13148,-2.0963 2.74262,1.4678 2.347,3.92963 -0.63148,3.92963 -1.75758,0 -2.5,-0.54444 -2.5,-1.83333 z m 11.666666,-1.83334 c -1.26779,-1.26779 -0.65891,-2.33333 1.33333,-2.33333 1.11111,0 2,0.66667 2,1.5 0,1.52241 -2.1154,2.05126 -3.33333,0.83333 z m 14.97281,-1.02718 c -1.12618,-1.12619 -0.68589,-2.30615 0.86052,-2.30615 0.825,0 1.5,0.42344 1.5,0.94098 0,1.26098 -1.56159,2.1641 -2.36052,1.36517 z m 63.86052,-3.77515 c -1.65,-1.35249 -2.61496,-2.47526 -2.14436,-2.49504 0.47061,-0.0198 2.19263,1.08904 3.82673,2.46404 1.63409,1.375 2.59905,2.49776 2.14436,2.49503 -0.4547,-0.003 -2.17673,-1.11155 -3.82673,-2.46403 z M 139.55,144.88183 c -0.96924,-0.25283 -1.50518,-0.87563 -1.19099,-1.384 0.3142,-0.50838 0.0947,-0.92432 -0.48775,-0.92432 -2.03353,0 -1.03701,-1.96002 1.72187,-3.38669 4.76099,-2.46201 8.27953,1.18341 4.64768,4.81526 -1.6241,1.6241 -1.74809,1.64736 -4.69081,0.87975 z m -30.73776,-1.7493 c 0,-0.85746 0.45,-1.55902 1,-1.55902 0.55,0 1,0.42344 1,0.94098 0,0.51754 -0.45,1.2191 -1,1.55902 -0.55,0.33992 -1,-0.0835 -1,-0.94098 z m -14.895716,-0.47341 c -1.40893,-0.89213 -0.88273,-4.08561 0.67321,-4.08561 1.76852,0 4.49528,2.74964 3.81627,3.8483 -0.84487,1.36702 -2.56199,1.45779 -4.48948,0.23731 z m 31.145716,-0.75228 c -0.6875,-0.275 -1.25,-0.93905 -1.25,-1.47568 0,-0.53663 0.45,-0.69757 1,-0.35765 0.55,0.33992 1,-0.12102 1,-1.02432 0,-0.90329 0.5625,-1.45485 1.25,-1.22568 1.48542,0.49514 1.68614,3.9743 0.25,4.33333 -0.55,0.1375 -1.5625,0.025 -2.25,-0.25 z m 49.25555,-1.3272 c -0.99854,-1.10337 -1.35088,-2.00613 -0.78298,-2.00613 1.25825,0 3.7524,2.85836 3.08047,3.5303 -0.26508,0.26508 -1.29895,-0.4208 -2.29749,-1.52417 z m -94.575116,-0.58995 c -0.95006,-1.14476 -1.025,-2.04572 -0.27031,-3.25 2.41695,-3.85684 8.2155,-1.50038 6.85511,2.78583 -0.78691,2.47934 -4.68435,2.75407 -6.5848,0.46417 z m 21.736236,-4.08285 c -1.518076,-1.51807 -0.51968,-3.33333 1.83333,-3.33333 2.72961,0 3.16412,0.93588 1.3,2.8 -1.35945,1.35945 -2.16936,1.49731 -3.13333,0.53333 z m 11.77948,-2.42046 c -0.94503,-1.52909 1.1059,-3.29874 2.98663,-2.57704 0.86197,0.33077 1.56722,1.29052 1.56722,2.13279 0,1.74768 -3.53514,2.09255 -4.55385,0.44425 z m 17.52736,-3.48256 c -0.73088,-1.92234 -0.61668,-2.93 0.45332,-4 1.91378,-1.91377 6.20951,-1.82037 6.96618,0.15148 0.92943,2.42205 0.72148,5.607 -0.32391,4.96092 -0.512,-0.31644 -1.21356,-0.11799 -1.55902,0.44098 -1.22525,1.98249 -4.54653,1.05065 -5.53657,-1.55338 z m -42.508636,-0.48715 c -0.35923,-0.58125 -0.38716,-2.11664 -0.0621,-3.41196 0.61092,-2.43409 2.74019,-2.7882 4.7401,-0.78829 1.56387,1.56387 0.2233,4.61159 -1.70328,3.8723 -0.88328,-0.33895 -1.28217,-0.16945 -0.93255,0.39624 0.33602,0.5437 0.16095,0.98855 -0.38905,0.98855 -0.55,0 -1.29392,-0.47558 -1.65316,-1.05684 z m 11.923666,-6.37302 c -0.990066,-2.5801 0.38005,-4.57014 3.1465,-4.57014 2.24401,0 2.55471,0.37452 2.28138,2.75 -0.36483,3.17069 -4.39148,4.52095 -5.42788,1.82014 z m 13.99516,-1.17747 c -0.73571,-2.93131 0.70533,-4.35274 4.43773,-4.37736 2.40147,-0.0158 5.17857,2.06385 5.17857,3.87808 0,1.46041 -3.39943,3.10661 -6.41521,3.10661 -1.91043,0 -2.71018,-0.6514 -3.20109,-2.60733 z"
         id="path198"
         inkscape:connector-curvature="0" />
      <path
         style="fill:#ff00ff"
         d="m 122.16165,288.57351 c 0,-4.675 0.17226,-6.5875 0.3828,-4.25 0.21053,2.3375 0.21053,6.1625 0,8.5 -0.21054,2.3375 -0.3828,0.425 -0.3828,-4.25 z m -31.117406,4 c 0,-1.925 0.2058,-2.7125 0.45733,-1.75 0.25152,0.9625 0.25152,2.5375 0,3.5 -0.25153,0.9625 -0.45733,0.175 -0.45733,-1.75 z m 9.054006,-1.5 c 0.008,-2.75 0.20172,-3.75631 0.43157,-2.23625 0.22986,1.52006 0.22371,3.77006 -0.0136,5 -0.23736,1.22994 -0.42542,-0.0138 -0.41792,-2.76375 z m 30.79294,2.91667 c 0.048,-1.16495 0.28494,-1.4019 0.60416,-0.60417 0.28887,0.72187 0.25335,1.58438 -0.0789,1.91667 -0.3323,0.33229 -0.56864,-0.25834 -0.52522,-1.3125 z m -49.742736,-6.41667 c 0,-4.125 0.17651,-5.8125 0.39226,-3.75 0.21574,2.0625 0.21574,5.4375 0,7.5 -0.21575,2.0625 -0.39226,0.375 -0.39226,-3.75 z m 7.96345,2 c 0,-3.025 0.18747,-4.2625 0.41659,-2.75 0.22913,1.5125 0.22913,3.9875 0,5.5 -0.22912,1.5125 -0.41659,0.275 -0.41659,-2.75 z m 51.986346,0.5 c 0.008,-2.75 0.20172,-3.75631 0.43157,-2.23625 0.22986,1.52006 0.22371,3.77006 -0.0136,5 -0.23736,1.22994 -0.42542,-0.0138 -0.41792,-2.76375 z m -20.9498,-3.5 c 0,-4.125 0.17651,-5.8125 0.39226,-3.75 0.21574,2.0625 0.21574,5.4375 0,7.5 -0.21575,2.0625 -0.39226,0.375 -0.39226,-3.75 z m 13.0132,-1 c 0,-4.675 0.17226,-6.5875 0.3828,-4.25 0.21053,2.3375 0.21053,6.1625 0,8.5 -0.21054,2.3375 -0.3828,0.425 -0.3828,-4.25 z m -64.117403,3 c 0,-1.925 0.205795,-2.7125 0.457323,-1.75 0.251527,0.9625 0.251527,2.5375 0,3.5 -0.251528,0.9625 -0.457323,0.175 -0.457323,-1.75 z m 61.962943,0.5 c 0.0204,-1.65 0.2445,-2.20394 0.49804,-1.23097 0.25354,0.97297 0.23687,2.32297 -0.0371,3 -0.27393,0.67703 -0.48137,-0.11903 -0.46099,-1.76903 z m -58.999996,-3 c 0.0204,-1.65 0.2445,-2.20394 0.49804,-1.23097 0.25354,0.97297 0.23687,2.32297 -0.037,3 -0.27393,0.67703 -0.48137,-0.11903 -0.46099,-1.76903 z m 78.883996,-0.0833 c 0.048,-1.16495 0.28494,-1.4019 0.60416,-0.60417 0.28887,0.72187 0.25335,1.58438 -0.0789,1.91667 -0.3323,0.33229 -0.56864,-0.25834 -0.52522,-1.3125 z m 21.17323,-1.9167 c 0.0111,-2.2 0.21589,-2.98225 0.45508,-1.73834 0.23919,1.24391 0.23011,3.04391 -0.0202,4 -0.25029,0.95609 -0.446,-0.0617 -0.4349,-2.26166 z m -121.979812,-1.5 c 0,-2.475 0.195016,-3.4875 0.433369,-2.25 0.238353,1.2375 0.238353,3.2625 0,4.5 -0.238353,1.2375 -0.433369,0.225 -0.433369,-2.25 z m 92.979812,0.5 c 0.0111,-2.2 0.21589,-2.98225 0.45508,-1.73834 0.23919,1.24391 0.23011,3.04391 -0.0202,4 -0.25029,0.95609 -0.446,-0.0617 -0.4349,-2.26166 z m 34.82677,0.91667 c 0.048,-1.16495 0.28494,-1.4019 0.60416,-0.60417 0.28887,0.72187 0.25335,1.58438 -0.0789,1.91667 -0.3323,0.33229 -0.56864,-0.25834 -0.52522,-1.3125 z M 59.970139,282.57351 c 0,-1.375 0.226973,-1.9375 0.504386,-1.25 0.277412,0.6875 0.277412,1.8125 0,2.5 -0.277413,0.6875 -0.504386,0.125 -0.504386,-1.25 z m 18.999995,0 c 0,-1.375 0.22698,-1.9375 0.50439,-1.25 0.27741,0.6875 0.27741,1.8125 0,2.5 -0.27741,0.6875 -0.50439,0.125 -0.50439,-1.25 z m 10.23065,-11.5 c 0.002,-7.15 0.16103,-9.94379 0.35396,-6.20841 0.19293,3.73537 0.19149,9.58537 -0.003,13 -0.19468,3.41462 -0.35253,0.35841 -0.35078,-6.79159 z m 41.883816,8.5 c 0,-2.475 0.19502,-3.4875 0.43337,-2.25 0.23836,1.2375 0.23836,3.2625 0,4.5 -0.23835,1.2375 -0.43337,0.225 -0.43337,-2.25 z m -91.193409,1.41667 c 0.04798,-1.16495 0.284941,-1.4019 0.604167,-0.60417 0.288871,0.72187 0.253344,1.58438 -0.07895,1.91667 -0.332292,0.33229 -0.568641,-0.25834 -0.52522,-1.3125 z m 60.230919,-3.91667 c 0.006,-3.3 0.1923,-4.52944 0.41486,-2.73209 0.22256,1.79735 0.21797,4.49735 -0.0102,6 -0.22818,1.50265 -0.41027,0.0321 -0.40466,-3.26791 z m 50.76908,3.91667 c 0.048,-1.16495 0.28494,-1.4019 0.60416,-0.60417 0.28887,0.72187 0.25335,1.58438 -0.0789,1.91667 -0.3323,0.33229 -0.56864,-0.25834 -0.52522,-1.3125 z m 2.19341,-2.41667 c 0,-2.475 0.19502,-3.4875 0.43337,-2.25 0.23836,1.2375 0.23836,3.2625 0,4.5 -0.23835,1.2375 -0.43337,0.225 -0.43337,-2.25 z m 7,-1 c 0,-2.475 0.19502,-3.4875 0.43337,-2.25 0.23836,1.2375 0.23836,3.2625 0,4.5 -0.23835,1.2375 -0.43337,0.225 -0.43337,-2.25 z m -125.040353,0 c 0,-1.925 0.205795,-2.7125 0.457323,-1.75 0.251527,0.9625 0.251527,2.5375 0,3.5 -0.251528,0.9625 -0.457323,0.175 -0.457323,-1.75 z m 132.999993,0 c 0,-1.925 0.2058,-2.7125 0.45733,-1.75 0.25152,0.9625 0.25152,2.5375 0,3.5 -0.25153,0.9625 -0.45733,0.175 -0.45733,-1.75 z m -125.074101,0 c 0,-1.375 0.226973,-1.9375 0.504386,-1.25 0.277412,0.6875 0.277412,1.8125 0,2.5 -0.277413,0.6875 -0.504386,0.125 -0.504386,-1.25 z m 36.037055,-0.5 c 0.0204,-1.65 0.2445,-2.20394 0.49804,-1.23097 0.25354,0.97297 0.23687,2.32297 -0.037,3 -0.27393,0.67703 -0.48137,-0.11903 -0.46099,-1.76903 z m 30.212136,-13.5 c 0,-9.075 0.1516,-12.7875 0.3369,-8.25 0.18529,4.5375 0.18529,11.9625 0,16.5 -0.1853,4.5375 -0.3369,0.825 -0.3369,-8.25 z m 70.7508,14 c 0,-1.375 0.22698,-1.9375 0.50439,-1.25 0.27741,0.6875 0.27741,1.8125 0,2.5 -0.27741,0.6875 -0.50439,0.125 -0.50439,-1.25 z m -109.999991,-2 c 0,-1.375 0.226973,-1.9375 0.504386,-1.25 0.277412,0.6875 0.277412,1.8125 0,2.5 -0.277413,0.6875 -0.504386,0.125 -0.504386,-1.25 z m -16.885531,-3 c 0,-2.475 0.195016,-3.4875 0.433369,-2.25 0.238353,1.2375 0.238353,3.2625 0,4.5 -0.238353,1.2375 -0.433369,0.225 -0.433369,-2.25 z m 9.922585,1.5 c 0.02038,-1.65 0.244498,-2.20394 0.498042,-1.23097 0.253543,0.97297 0.236869,2.32297 -0.03705,3 -0.273927,0.67703 -0.481372,-0.11903 -0.460992,-1.76903 z m 48.883997,0.91667 c 0.048,-1.16495 0.28494,-1.4019 0.60416,-0.60417 0.28887,0.72187 0.25335,1.58437 -0.0789,1.91667 -0.3323,0.33229 -0.56864,-0.25834 -0.52522,-1.3125 z m -78.846943,-2.41667 c 0,-1.925 0.205795,-2.7125 0.457323,-1.75 0.251527,0.9625 0.251527,2.5375 0,3.5 -0.251528,0.9625 -0.457323,0.175 -0.457323,-1.75 z m 100.020173,-1.5 c 0.0111,-2.2 0.21589,-2.98225 0.45508,-1.73834 0.23919,1.24391 0.23011,3.04391 -0.0202,4 -0.25029,0.95609 -0.446,-0.0617 -0.4349,-2.26166 z m 6.97982,0.5 c 0,-1.925 0.2058,-2.7125 0.45733,-1.75 0.25152,0.9625 0.25152,2.5375 0,3.5 -0.25153,0.9625 -0.45733,0.175 -0.45733,-1.75 z m 47.84695,1.41667 c 0.048,-1.16495 0.28494,-1.4019 0.60416,-0.60417 0.28887,0.72187 0.25335,1.58437 -0.0789,1.91667 -0.3323,0.33229 -0.56864,-0.25834 -0.52522,-1.3125 z M 72.970134,271.57351 c 0,-1.375 0.22698,-1.9375 0.50439,-1.25 0.27741,0.6875 0.27741,1.8125 0,2.5 -0.27741,0.6875 -0.50439,0.125 -0.50439,-1.25 z m 118.074106,-1 c 0,-1.925 0.2058,-2.7125 0.45733,-1.75 0.25152,0.9625 0.25152,2.5375 0,3.5 -0.25153,0.9625 -0.45733,0.175 -0.45733,-1.75 z m -129.959632,-2 c 0,-2.475 0.195016,-3.4875 0.433369,-2.25 0.238353,1.2375 0.238353,3.2625 0,4.5 -0.238353,1.2375 -0.433369,0.225 -0.433369,-2.25 z m 50.885522,2 c 0,-1.375 0.22698,-1.9375 0.50439,-1.25 0.27741,0.6875 0.27741,1.8125 0,2.5 -0.27741,0.6875 -0.50439,0.125 -0.50439,-1.25 z m 94.09429,-1.5 c 0.0111,-2.2 0.21589,-2.98225 0.45508,-1.73834 0.23919,1.24391 0.23011,3.04391 -0.0202,4 -0.25029,0.95609 -0.446,-0.0617 -0.4349,-2.26166 z m -162.020173,-0.5 c 0,-1.925 0.205795,-2.7125 0.457323,-1.75 0.251527,0.9625 0.251527,2.5375 0,3.5 -0.251528,0.9625 -0.457323,0.175 -0.457323,-1.75 z m 77.962943,0.5 c 0.0204,-1.65 0.2445,-2.20394 0.49804,-1.23097 0.25354,0.97297 0.23687,2.32297 -0.0371,3 -0.27393,0.67703 -0.48137,-0.11903 -0.46099,-1.76903 z m -95.115999,-0.0833 c 0.04798,-1.16495 0.284941,-1.4019 0.604167,-0.60417 0.288871,0.72187 0.253344,1.58437 -0.07895,1.91667 -0.332292,0.33229 -0.568641,-0.25834 -0.52522,-1.3125 z m 92.999999,0 c 0.048,-1.16495 0.28494,-1.4019 0.60416,-0.60417 0.28887,0.72187 0.25335,1.58437 -0.0789,1.91667 -0.3323,0.33229 -0.56864,-0.25834 -0.52522,-1.3125 z m 57.116,-0.91667 c 0.0204,-1.65 0.2445,-2.20394 0.49804,-1.23097 0.25354,0.97297 0.23687,2.32297 -0.0371,3 -0.27393,0.67703 -0.48137,-0.11903 -0.46099,-1.76903 z m 33,0 c 0.0204,-1.65 0.2445,-2.20394 0.49804,-1.23097 0.25354,0.97297 0.23687,2.32297 -0.0371,3 -0.27393,0.67703 -0.48137,-0.11903 -0.46099,-1.76903 z m -195.115999,-0.0833 c 0.04798,-1.16495 0.284941,-1.4019 0.604167,-0.60417 0.288871,0.72187 0.253344,1.58437 -0.07895,1.91667 -0.332292,0.33229 -0.568641,-0.25834 -0.52522,-1.3125 z m 3.116002,-0.91673 c 0.02038,-1.65 0.244498,-2.20394 0.498042,-1.23097 0.253543,0.97297 0.236869,2.32297 -0.03705,3 -0.273927,0.67703 -0.481372,-0.11903 -0.460992,-1.76903 z m 161.057227,-1 c 0.0111,-2.2 0.21589,-2.98225 0.45508,-1.73834 0.23919,1.24391 0.23011,3.04391 -0.0202,4 -0.25029,0.95609 -0.446,-0.0617 -0.4349,-2.26166 z m -27.02018,-0.5 c 0,-1.925 0.2058,-2.7125 0.45733,-1.75 0.25152,0.9625 0.25152,2.5375 0,3.5 -0.25153,0.9625 -0.45733,0.175 -0.45733,-1.75 z m 9.84695,1.41667 c 0.048,-1.16495 0.28494,-1.4019 0.60416,-0.60417 0.28887,0.72187 0.25335,1.58437 -0.0789,1.91667 -0.3323,0.33229 -0.56864,-0.25834 -0.52522,-1.3125 z m -97.921051,-1.41667 c 0,-1.375 0.226973,-1.9375 0.504386,-1.25 0.277412,0.6875 0.277412,1.8125 0,2.5 -0.277413,0.6875 -0.504386,0.125 -0.504386,-1.25 z m 15.184915,-5.5 c 0.004,-4.4 0.17944,-6.07561 0.39069,-3.72357 0.21124,2.35204 0.20827,5.95204 -0.007,8 -0.21487,2.04796 -0.38771,0.12357 -0.38408,-4.27643 z m -52.263863,4.91667 c 0.04798,-1.16495 0.284941,-1.4019 0.604167,-0.60417 0.288871,0.72187 0.253344,1.58437 -0.07895,1.91667 -0.332292,0.33229 -0.568641,-0.25834 -0.52522,-1.3125 z m 7.116002,-0.91667 c 0.02038,-1.65 0.244498,-2.20394 0.498042,-1.23097 0.253543,0.97297 0.236869,2.32297 -0.03705,3 -0.273927,0.67703 -0.481372,-0.11903 -0.460992,-1.76903 z m 1.883998,0.91667 c 0.04798,-1.16495 0.284941,-1.4019 0.604167,-0.60417 0.288871,0.72187 0.253344,1.58437 -0.07895,1.91667 -0.332292,0.33229 -0.568641,-0.25834 -0.52522,-1.3125 z m 35,0 c 0.04798,-1.16495 0.284941,-1.4019 0.604167,-0.60417 0.288871,0.72187 0.253344,1.58437 -0.07895,1.91667 -0.332292,0.33229 -0.568641,-0.25834 -0.52522,-1.3125 z m 29.173229,-1.91667 c 0.0111,-2.2 0.21589,-2.98225 0.45508,-1.73834 0.23919,1.24391 0.23011,3.04391 -0.0202,4 -0.25029,0.95609 -0.446,-0.0617 -0.4349,-2.26166 z m 41.90571,0.5 c 0,-1.375 0.22698,-1.9375 0.50439,-1.25 0.27741,0.6875 0.27741,1.8125 0,2.5 -0.27741,0.6875 -0.50439,0.125 -0.50439,-1.25 z m -87.905703,-3.5 c 0.0111,-2.2 0.215885,-2.98225 0.455078,-1.73834 0.239193,1.24391 0.230112,3.04391 -0.02018,4 -0.250293,0.95609 -0.445997,-0.0617 -0.434898,-2.26166 z m 57.905703,1.5 c 0,-1.375 0.22698,-1.9375 0.50439,-1.25 0.27741,0.6875 0.27741,1.8125 0,2.5 -0.27741,0.6875 -0.50439,0.125 -0.50439,-1.25 z m 54.92106,0.41667 c 0.048,-1.16495 0.28494,-1.4019 0.60416,-0.60417 0.28887,0.72187 0.25335,1.58437 -0.0789,1.91667 -0.3323,0.33229 -0.56864,-0.25834 -0.52522,-1.3125 z m -160.999999,-1 c 0.04798,-1.16495 0.284941,-1.4019 0.604167,-0.60417 0.288871,0.72187 0.253344,1.58437 -0.07895,1.91667 -0.332292,0.33229 -0.568641,-0.25834 -0.52522,-1.3125 z m 36.116002,-0.91667 c 0.02038,-1.65 0.244498,-2.20394 0.498042,-1.23097 0.253543,0.97297 0.236869,2.32297 -0.03705,3 -0.273927,0.67703 -0.481372,-0.11903 -0.460992,-1.76903 z m -26.116002,-0.0833 c 0.04798,-1.16495 0.284941,-1.4019 0.604167,-0.60417 0.288871,0.72187 0.253344,1.58437 -0.07895,1.91667 -0.332292,0.33229 -0.568641,-0.25834 -0.52522,-1.3125 z m 55.078948,-0.4167 c 0,-1.375 0.226973,-1.9375 0.504386,-1.25 0.277412,0.6875 0.277412,1.8125 0,2.5 -0.277413,0.6875 -0.504386,0.125 -0.504386,-1.25 z m 118.921051,0.41667 c 0.048,-1.16495 0.28494,-1.4019 0.60416,-0.60417 0.28887,0.72187 0.25335,1.58437 -0.0789,1.91667 -0.3323,0.33229 -0.56864,-0.25834 -0.52522,-1.3125 z m -170.999999,-1 c 0.04798,-1.16495 0.284941,-1.4019 0.604167,-0.60417 0.288871,0.72187 0.253344,1.58437 -0.07895,1.91667 -0.332292,0.33229 -0.568641,-0.25834 -0.52522,-1.3125 z m 63.116003,-1.91667 c 0.0204,-1.65 0.2445,-2.20394 0.49804,-1.23097 0.25354,0.97297 0.23687,2.32297 -0.037,3 -0.27393,0.67703 -0.48137,-0.11903 -0.46099,-1.76903 z m 117.883996,0.91667 c 0.048,-1.16495 0.28494,-1.4019 0.60416,-0.60417 0.28887,0.72187 0.25335,1.58437 -0.0789,1.91667 -0.3323,0.33229 -0.56864,-0.25834 -0.52522,-1.3125 z m -154.999999,-1 c 0.04798,-1.16495 0.284941,-1.4019 0.604167,-0.60417 0.288871,0.72187 0.253344,1.58437 -0.07895,1.91667 -0.332292,0.33229 -0.568641,-0.25834 -0.52522,-1.3125 z m 85.173229,-1.91667 c 0.0111,-2.2 0.21589,-2.98225 0.45508,-1.73834 0.23919,1.24391 0.23011,3.04391 -0.0202,4 -0.25029,0.95609 -0.446,-0.0617 -0.4349,-2.26166 z m -104.094281,0.5 c 0,-1.375 0.226973,-1.9375 0.504386,-1.25 0.277412,0.6875 0.277412,1.8125 0,2.5 -0.277413,0.6875 -0.504386,0.125 -0.504386,-1.25 z m 63.151975,-3.5 c 0.006,-3.3 0.1923,-4.52944 0.41486,-2.73209 0.22256,1.79735 0.21797,4.49735 -0.0102,6 -0.22818,1.50265 -0.41027,0.0321 -0.40466,-3.26791 z m 80.769076,3.91667 c 0.048,-1.16495 0.28494,-1.4019 0.60416,-0.60417 0.28887,0.72187 0.25335,1.58437 -0.0789,1.91667 -0.3323,0.33229 -0.56864,-0.25834 -0.52522,-1.3125 z m -104.999999,-1 c 0.04798,-1.16495 0.284941,-1.4019 0.604167,-0.60417 0.288871,0.72187 0.253344,1.58437 -0.07895,1.91667 -0.332292,0.33229 -0.568641,-0.25834 -0.52522,-1.3125 z m 92.999999,0 c 0.048,-1.16495 0.28494,-1.4019 0.60416,-0.60417 0.28887,0.72187 0.25335,1.58437 -0.0789,1.91667 -0.3323,0.33229 -0.56864,-0.25834 -0.52522,-1.3125 z m 18.116,-0.91667 c 0.0204,-1.65 0.2445,-2.20394 0.49804,-1.23097 0.25354,0.97297 0.23687,2.32297 -0.0371,3 -0.27393,0.67703 -0.48137,-0.11903 -0.46099,-1.76903 z m 32.96294,0.5 c 0,-1.375 0.22698,-1.9375 0.50439,-1.25 0.27741,0.6875 0.27741,1.8125 0,2.5 -0.27741,0.6875 -0.50439,0.125 -0.50439,-1.25 z M 36.891191,253.99018 c 0.04798,-1.16495 0.284941,-1.4019 0.604167,-0.60417 0.288871,0.72187 0.253344,1.58437 -0.07895,1.91667 -0.332292,0.33229 -0.568641,-0.25834 -0.52522,-1.3125 z m 66.286279,-7.91667 c 0.003,-5.5 0.17053,-7.62242 0.37317,-4.71648 0.20265,2.90594 0.20052,7.40594 -0.005,10 -0.20525,2.59406 -0.37104,0.21648 -0.36844,-5.28352 z m -29.065566,3.5 c 0,-3.025 0.18747,-4.2625 0.41659,-2.75 0.22913,1.5125 0.22913,3.9875 0,5.5 -0.22912,1.5125 -0.41659,0.275 -0.41659,-2.75 z m 64.779286,3.41667 c 0.048,-1.16495 0.28494,-1.4019 0.60416,-0.60417 0.28887,0.72187 0.25335,1.58437 -0.0789,1.91667 -0.3323,0.33229 -0.56864,-0.25834 -0.52522,-1.3125 z m 50.07894,-0.41667 c 0,-1.375 0.22698,-1.9375 0.50439,-1.25 0.27741,0.6875 0.27741,1.8125 0,2.5 -0.27741,0.6875 -0.50439,0.125 -0.50439,-1.25 z M -2.108809,251.99018 c 0.04798,-1.16495 0.284941,-1.4019 0.604167,-0.60417 0.288871,0.72187 0.253344,1.58437 -0.07895,1.91667 -0.332292,0.33229 -0.568641,-0.25834 -0.52522,-1.3125 z m 19,0 c 0.04798,-1.16495 0.284941,-1.4019 0.604167,-0.60417 0.288871,0.72187 0.253344,1.58437 -0.07895,1.91667 -0.332292,0.33229 -0.568641,-0.25834 -0.52522,-1.3125 z m -16,-1 c 0.04798,-1.16495 0.284941,-1.4019 0.604167,-0.60417 0.288871,0.72187 0.253344,1.58437 -0.07895,1.91667 -0.332292,0.33229 -0.568641,-0.25834 -0.52522,-1.3125 z m 150.037049,-1.22569 c -0.0676,-1.92785 -0.53339,-3.05105 -1.116,-2.69098 -0.55,0.33992 -1,0.16803 -1,-0.38197 0,-0.55 0.43681,-1.26996 0.97068,-1.59991 1.17403,-0.72559 2.39321,3.60075 1.73388,6.15279 -0.26313,1.01847 -0.52397,0.3626 -0.58856,-1.47993 z m 47.96295,1.22569 c 0.048,-1.16495 0.28494,-1.4019 0.60416,-0.60417 0.28887,0.72187 0.25335,1.58437 -0.0789,1.91667 -0.3323,0.33229 -0.56864,-0.25834 -0.52522,-1.3125 z m -169.999999,-1 c 0.04798,-1.16495 0.284941,-1.4019 0.604167,-0.60417 0.288871,0.72187 0.253344,1.58437 -0.07895,1.91667 -0.332292,0.33229 -0.568641,-0.25834 -0.52522,-1.3125 z m 63.000003,0 c 0.048,-1.16495 0.28494,-1.4019 0.60416,-0.60417 0.28887,0.72187 0.25335,1.58437 -0.0789,1.91667 -0.3323,0.33229 -0.56864,-0.25834 -0.52522,-1.3125 z m 49.115996,-0.91667 c 0.0204,-1.65 0.2445,-2.20394 0.49804,-1.23097 0.25354,0.97297 0.23687,2.32297 -0.0371,3 -0.27393,0.67703 -0.48137,-0.11903 -0.46099,-1.76903 z m -114.037051,-0.5 c 0,-1.375 0.226973,-1.9375 0.504386,-1.25 0.277412,0.6875 0.277412,1.8125 0,2.5 -0.277413,0.6875 -0.504386,0.125 -0.504386,-1.25 z m 94.037051,-0.5 c 0.0204,-1.65 0.2445,-2.20394 0.49804,-1.23097 0.25354,0.97297 0.23687,2.32297 -0.0371,3 -0.27393,0.67703 -0.48137,-0.11903 -0.46099,-1.76903 z m 10.96294,-0.5 c 0,-1.375 0.22698,-1.9375 0.50439,-1.25 0.27741,0.6875 0.27741,1.8125 0,2.5 -0.27741,0.6875 -0.50439,0.125 -0.50439,-1.25 z m 37.07411,-1 c 0,-1.925 0.2058,-2.7125 0.45733,-1.75 0.25152,0.9625 0.25152,2.5375 0,3.5 -0.25153,0.9625 -0.45733,0.175 -0.45733,-1.75 z m -116.074101,0 c 0,-1.375 0.226973,-1.9375 0.504386,-1.25 0.277412,0.6875 0.277412,1.8125 0,2.5 -0.277413,0.6875 -0.504386,0.125 -0.504386,-1.25 z m 121.999991,0 c 0,-1.375 0.22698,-1.9375 0.50439,-1.25 0.27741,0.6875 0.27741,1.8125 0,2.5 -0.27741,0.6875 -0.50439,0.125 -0.50439,-1.25 z M 7.891191,245.99018 c 0.04798,-1.16495 0.284941,-1.4019 0.604167,-0.60417 0.288871,0.72187 0.253344,1.58437 -0.07895,1.91667 -0.332292,0.33229 -0.568641,-0.25834 -0.52522,-1.3125 z m 10.078948,-0.41667 c 0,-1.375 0.226973,-1.9375 0.504386,-1.25 0.277412,0.6875 0.277412,1.8125 0,2.5 -0.277413,0.6875 -0.504386,0.125 -0.504386,-1.25 z m 142.074101,-1 c 0,-1.925 0.2058,-2.7125 0.45733,-1.75 0.25152,0.9625 0.25152,2.5375 0,3.5 -0.25153,0.9625 -0.45733,0.175 -0.45733,-1.75 z m 68.84695,1.41667 c 0.048,-1.16495 0.28494,-1.4019 0.60416,-0.60417 0.28887,0.72187 0.25335,1.58437 -0.0789,1.91667 -0.33229,0.33229 -0.56864,-0.25834 -0.52522,-1.3125 z M -1.029861,244.57351 c 0,-1.375 0.226973,-1.9375 0.504386,-1.25 0.277412,0.6875 0.277412,1.8125 0,2.5 -0.277413,0.6875 -0.504386,0.125 -0.504386,-1.25 z m 11.921052,0.41667 c 0.04798,-1.16495 0.284941,-1.4019 0.604167,-0.60417 0.288871,0.72187 0.253344,1.58437 -0.07895,1.91667 -0.332292,0.33229 -0.568641,-0.25834 -0.52522,-1.3125 z m 61.153053,-1.41667 c 0,-1.925 0.2058,-2.7125 0.45733,-1.75 0.25152,0.9625 0.25152,2.5375 0,3.5 -0.25153,0.9625 -0.45733,0.175 -0.45733,-1.75 z m 37.067656,-2 c 0,-3.025 0.18747,-4.2625 0.41659,-2.75 0.22913,1.5125 0.22913,3.9875 0,5.5 -0.22912,1.5125 -0.41659,0.275 -0.41659,-2.75 z m 9.85823,3 c 0,-1.375 0.22698,-1.9375 0.50439,-1.25 0.27741,0.6875 0.27741,1.8125 0,2.5 -0.27741,0.6875 -0.50439,0.125 -0.50439,-1.25 z m 38,0 c 0,-1.375 0.22698,-1.9375 0.50439,-1.25 0.27741,0.6875 0.27741,1.8125 0,2.5 -0.27741,0.6875 -0.50439,0.125 -0.50439,-1.25 z m 41,-1 c 0,-1.375 0.22698,-1.9375 0.50439,-1.25 0.27741,0.6875 0.27741,1.8125 0,2.5 -0.27741,0.6875 -0.50439,0.125 -0.50439,-1.25 z m 33.92106,0.41667 c 0.048,-1.16495 0.28494,-1.4019 0.60416,-0.60417 0.28887,0.72187 0.25335,1.58437 -0.0789,1.91667 -0.33229,0.33229 -0.56864,-0.25834 -0.52522,-1.3125 z m -54.92106,-1.41667 c 0,-1.375 0.22698,-1.9375 0.50439,-1.25 0.27741,0.6875 0.27741,1.8125 0,2.5 -0.27741,0.6875 -0.50439,0.125 -0.50439,-1.25 z M 64.427869,242.01423 c -0.364486,-0.94984 -0.42711,-1.96257 -0.139164,-2.25051 0.287947,-0.28795 0.568395,0.11396 0.623219,0.89312 0.05482,0.77917 0.459968,0.29167 0.90032,-1.08333 0.659584,-2.05955 0.815504,-2.14764 0.885007,-0.5 0.0464,1.1 -0.296118,2.60023 -0.761156,3.33385 -0.670157,1.05719 -0.982973,0.97566 -1.508226,-0.39313 z m 73.579321,-0.94072 c 0.0204,-1.65 0.2445,-2.20394 0.49804,-1.23097 0.25354,0.97297 0.23687,2.32297 -0.0371,3 -0.27393,0.67703 -0.48137,-0.11903 -0.46099,-1.76903 z m 10.03705,-0.5 c 0,-1.925 0.2058,-2.7125 0.45733,-1.75 0.25152,0.9625 0.25152,2.5375 0,3.5 -0.25153,0.9625 -0.45733,0.175 -0.45733,-1.75 z m 2,0 c 0,-1.925 0.2058,-2.7125 0.45733,-1.75 0.25152,0.9625 0.25152,2.5375 0,3.5 -0.25153,0.9625 -0.45733,0.175 -0.45733,-1.75 z m -147.074101,0 c 0,-1.375 0.226973,-1.9375 0.504386,-1.25 0.277412,0.6875 0.277412,1.8125 0,2.5 -0.277413,0.6875 -0.504386,0.125 -0.504386,-1.25 z m 161.921051,0.41667 c 0.048,-1.16495 0.28494,-1.4019 0.60416,-0.60417 0.28887,0.72187 0.25335,1.58437 -0.0789,1.91667 -0.3323,0.33229 -0.56864,-0.25834 -0.52522,-1.3125 z m -119.999999,-1 c 0.04798,-1.16495 0.284941,-1.4019 0.604167,-0.60417 0.288871,0.72187 0.253344,1.58437 -0.07895,1.91667 -0.332292,0.33229 -0.568641,-0.25834 -0.52522,-1.3125 z m 38.153053,-1.41667 c 0,-1.925 0.2058,-2.7125 0.45733,-1.75 0.25152,0.9625 0.25152,2.5375 0,3.5 -0.25153,0.9625 -0.45733,0.175 -0.45733,-1.75 z m 57.040356,-1 c 0,-2.475 0.19502,-3.4875 0.43337,-2.25 0.23836,1.2375 0.23836,3.2625 0,4.5 -0.23835,1.2375 -0.43337,0.225 -0.43337,-2.25 z m 80.88553,2 c 0,-1.375 0.22698,-1.9375 0.50439,-1.25 0.27741,0.6875 0.27741,1.8125 0,2.5 -0.27741,0.6875 -0.50439,0.125 -0.50439,-1.25 z M 36.891191,238.99018 c 0.04798,-1.16495 0.284941,-1.4019 0.604167,-0.60417 0.288871,0.72187 0.253344,1.58437 -0.07895,1.91667 -0.332292,0.33229 -0.568641,-0.25834 -0.52522,-1.3125 z m 38.000003,0 c 0.048,-1.16495 0.28494,-1.4019 0.60416,-0.60417 0.28887,0.72187 0.25335,1.58437 -0.0789,1.91667 -0.3323,0.33229 -0.56864,-0.25834 -0.52522,-1.3125 z m 15.22071,-3.41667 c 0,-3.025 0.18747,-4.2625 0.41659,-2.75 0.22913,1.5125 0.22913,3.9875 0,5.5 -0.22912,1.5125 -0.41659,0.275 -0.41659,-2.75 z m 83.895286,2.5 c 0.0204,-1.65 0.2445,-2.20394 0.49804,-1.23097 0.25354,0.97297 0.23687,2.32297 -0.0371,3 -0.27393,0.67703 -0.48137,-0.11903 -0.46099,-1.76903 z m 32.884,0.91667 c 0.048,-1.16495 0.28494,-1.4019 0.60416,-0.60417 0.28887,0.72187 0.25335,1.58437 -0.0789,1.91667 -0.3323,0.33229 -0.56864,-0.25834 -0.52522,-1.3125 z m 12,0 c 0.048,-1.16495 0.28494,-1.4019 0.60416,-0.60417 0.28887,0.72187 0.25335,1.58437 -0.0789,1.91667 -0.3323,0.33229 -0.56864,-0.25834 -0.52522,-1.3125 z m -9,-1 c 0.048,-1.16495 0.28494,-1.4019 0.60416,-0.60417 0.28887,0.72187 0.25335,1.58437 -0.0789,1.91667 -0.3323,0.33229 -0.56864,-0.25834 -0.52522,-1.3125 z m 31.07894,-0.41667 c 0,-1.375 0.22698,-1.9375 0.50439,-1.25 0.27741,0.6875 0.27741,1.8125 0,2.5 -0.27741,0.6875 -0.50439,0.125 -0.50439,-1.25 z m -160.962936,-1.5 c 0.0204,-1.65 0.2445,-2.20394 0.49804,-1.23097 0.25354,0.97297 0.23687,2.32297 -0.037,3 -0.27393,0.67703 -0.48137,-0.11903 -0.46099,-1.76903 z m 50.962936,-0.5 c 0,-1.375 0.22698,-1.9375 0.50439,-1.25 0.27741,0.6875 0.27741,1.8125 0,2.5 -0.27741,0.6875 -0.50439,0.125 -0.50439,-1.25 z m 36.92106,0.41667 c 0.048,-1.16495 0.28494,-1.4019 0.60416,-0.60417 0.28887,0.72187 0.25335,1.58437 -0.0789,1.91667 -0.3323,0.33229 -0.56864,-0.25834 -0.52522,-1.3125 z m -9,-1 c 0.048,-1.16495 0.28494,-1.4019 0.60416,-0.60417 0.28887,0.72187 0.25335,1.58437 -0.0789,1.91667 -0.3323,0.33229 -0.56864,-0.25834 -0.52522,-1.3125 z m 17.116,-0.91667 c 0.0204,-1.65 0.2445,-2.20394 0.49804,-1.23097 0.25354,0.97297 0.23687,2.32297 -0.0371,3 -0.27393,0.67703 -0.48137,-0.11903 -0.46099,-1.76903 z m 61.884,0.91667 c 0.048,-1.16495 0.28494,-1.4019 0.60416,-0.60417 0.28887,0.72187 0.25335,1.58437 -0.0789,1.91667 -0.33229,0.33229 -0.56864,-0.25834 -0.52522,-1.3125 z m -214.999999,-1 c 0.04798,-1.16495 0.284941,-1.4019 0.604167,-0.60417 0.288871,0.72187 0.253344,1.58437 -0.07895,1.91667 -0.332292,0.33229 -0.568641,-0.25834 -0.52522,-1.3125 z m 32,0 c 0.04798,-1.16495 0.284941,-1.4019 0.604167,-0.60417 0.288871,0.72187 0.253344,1.58437 -0.07895,1.91667 -0.332292,0.33229 -0.568641,-0.25834 -0.52522,-1.3125 z m 12,0 c 0.04798,-1.16495 0.284941,-1.4019 0.604167,-0.60417 0.288871,0.72187 0.253344,1.58437 -0.07895,1.91667 -0.332292,0.33229 -0.568641,-0.25834 -0.52522,-1.3125 z m 139.078939,-0.41667 c 0,-1.375 0.22698,-1.9375 0.50439,-1.25 0.27741,0.6875 0.27741,1.8125 0,2.5 -0.27741,0.6875 -0.50439,0.125 -0.50439,-1.25 z M 64.891191,232.99018 c 0.04798,-1.16495 0.284941,-1.4019 0.604167,-0.60417 0.288871,0.72187 0.253344,1.58437 -0.07895,1.91667 -0.332292,0.33229 -0.568641,-0.25834 -0.52522,-1.3125 z m 8.116003,-0.91667 c 0.0204,-1.65 0.2445,-2.20394 0.49804,-1.23097 0.25354,0.97297 0.23687,2.32297 -0.037,3 -0.27393,0.67703 -0.48137,-0.11903 -0.46099,-1.76903 z m 20.11492,-3 c 0.006,-3.3 0.1923,-4.52944 0.41486,-2.73209 0.22256,1.79735 0.21797,4.49735 -0.0102,6 -0.22818,1.50265 -0.41027,0.0321 -0.40466,-3.26791 z m 15.885076,3 c 0.0204,-1.65 0.2445,-2.20394 0.49804,-1.23097 0.25354,0.97297 0.23687,2.32297 -0.0371,3 -0.27393,0.67703 -0.48137,-0.11903 -0.46099,-1.76903 z m 9.05723,-1 c 0.0111,-2.2 0.21589,-2.98225 0.45508,-1.73834 0.23919,1.24391 0.23011,3.04391 -0.0202,4 -0.25029,0.95609 -0.446,-0.0617 -0.4349,-2.26166 z m 81.82677,0.91667 c 0.048,-1.16495 0.28494,-1.4019 0.60416,-0.60417 0.28887,0.72187 0.25335,1.58437 -0.0789,1.91667 -0.3323,0.33229 -0.56864,-0.25834 -0.52522,-1.3125 z m -194.999999,-1 c 0.04798,-1.16495 0.284941,-1.4019 0.604167,-0.60417 0.288871,0.72187 0.253344,1.58437 -0.07895,1.91667 -0.332292,0.33229 -0.568641,-0.25834 -0.52522,-1.3125 z m 203.999999,0 c 0.048,-1.16495 0.28494,-1.4019 0.60416,-0.60417 0.28887,0.72187 0.25335,1.58437 -0.0789,1.91667 -0.3323,0.33229 -0.56864,-0.25834 -0.52522,-1.3125 z m -216.999999,-1 c 0.04798,-1.16495 0.284941,-1.4019 0.604167,-0.60417 0.288871,0.72187 0.253344,1.58437 -0.07895,1.91667 -0.332292,0.33229 -0.568641,-0.25834 -0.52522,-1.3125 z m 66.078948,-0.41667 c 0,-1.375 0.226973,-1.9375 0.504386,-1.25 0.277412,0.6875 0.277412,1.8125 0,2.5 -0.277413,0.6875 -0.504386,0.125 -0.504386,-1.25 z m 44.921051,0.41667 c 0.048,-1.16495 0.28494,-1.4019 0.60416,-0.60417 0.28887,0.72187 0.25335,1.58437 -0.0789,1.91667 -0.3323,0.33229 -0.56864,-0.25834 -0.52522,-1.3125 z m 17.19341,-2.41667 c 0,-2.475 0.19502,-3.4875 0.43337,-2.25 0.23836,1.2375 0.23836,3.2625 0,4.5 -0.23835,1.2375 -0.43337,0.225 -0.43337,-2.25 z m 16.95964,1 c 0,-1.925 0.2058,-2.7125 0.45733,-1.75 0.25152,0.9625 0.25152,2.5375 0,3.5 -0.25153,0.9625 -0.45733,0.175 -0.45733,-1.75 z m 9.92589,1 c 0,-1.375 0.22698,-1.9375 0.50439,-1.25 0.27741,0.6875 0.27741,1.8125 0,2.5 -0.27741,0.6875 -0.50439,0.125 -0.50439,-1.25 z m 20,0 c 0,-1.375 0.22698,-1.9375 0.50439,-1.25 0.27741,0.6875 0.27741,1.8125 0,2.5 -0.27741,0.6875 -0.50439,0.125 -0.50439,-1.25 z m -38.96294,-1.5 c 0.0204,-1.65 0.2445,-2.20394 0.49804,-1.23097 0.25354,0.97297 0.23687,2.32297 -0.0371,3 -0.27393,0.67703 -0.48137,-0.11903 -0.46099,-1.76903 z m 29.884,0.91667 c 0.048,-1.16495 0.28494,-1.4019 0.60416,-0.60417 0.28887,0.72187 0.25335,1.58437 -0.0789,1.91667 -0.3323,0.33229 -0.56864,-0.25834 -0.52522,-1.3125 z m 6.116,-0.91667 c 0.0204,-1.65 0.2445,-2.20394 0.49804,-1.23097 0.25354,0.97297 0.23687,2.32297 -0.0371,3 -0.27393,0.67703 -0.48137,-0.11903 -0.46099,-1.76903 z m -125.115999,-0.0833 c 0.04798,-1.16495 0.284941,-1.4019 0.604167,-0.60417 0.288871,0.72187 0.253344,1.58437 -0.07895,1.91667 -0.332292,0.33229 -0.568641,-0.25834 -0.52522,-1.3125 z m 29.116002,-0.9167 c 0.02038,-1.65 0.244498,-2.20394 0.498042,-1.23097 0.253543,0.97297 0.236869,2.32297 -0.03705,3 -0.273927,0.67703 -0.481372,-0.11903 -0.460992,-1.76903 z m 7.962941,0.5 c 0,-1.375 0.22698,-1.9375 0.50439,-1.25 0.27741,0.6875 0.27741,1.8125 0,2.5 -0.27741,0.6875 -0.50439,0.125 -0.50439,-1.25 z m 8.03706,-1.5 c 0.0204,-1.65 0.2445,-2.20394 0.49804,-1.23097 0.25354,0.97297 0.23687,2.32297 -0.037,3 -0.27393,0.67703 -0.48137,-0.11903 -0.46099,-1.76903 z m 100.883996,0.91667 c 0.048,-1.16495 0.28494,-1.4019 0.60416,-0.60417 0.28887,0.72187 0.25335,1.58437 -0.0789,1.91667 -0.3323,0.33229 -0.56864,-0.25834 -0.52522,-1.3125 z m -118.999999,-1 c 0.04798,-1.16495 0.284941,-1.4019 0.604167,-0.60417 0.288871,0.72187 0.253344,1.58437 -0.07895,1.91667 -0.332292,0.33229 -0.568641,-0.25834 -0.52522,-1.3125 z m 15.116003,-0.91667 c 0.0204,-1.65 0.2445,-2.20394 0.49804,-1.23097 0.25354,0.97297 0.23687,2.32297 -0.037,3 -0.27393,0.67703 -0.48137,-0.11903 -0.46099,-1.76903 z m 20.037046,-0.5 c 0,-1.925 0.2058,-2.7125 0.45733,-1.75 0.25152,0.9625 0.25152,2.5375 0,3.5 -0.25153,0.9625 -0.45733,0.175 -0.45733,-1.75 z m 73.84695,1.41667 c 0.048,-1.16495 0.28494,-1.4019 0.60416,-0.60417 0.28887,0.72187 0.25335,1.58437 -0.0789,1.91667 -0.3323,0.33229 -0.56864,-0.25834 -0.52522,-1.3125 z m -115.999999,-1 c 0.04798,-1.16495 0.284941,-1.4019 0.604167,-0.60417 0.288871,0.72187 0.253344,1.58437 -0.07895,1.91667 -0.332292,0.33229 -0.568641,-0.25834 -0.52522,-1.3125 z m 80.078939,-0.41667 c 0,-1.375 0.22698,-1.9375 0.50439,-1.25 0.27741,0.6875 0.27741,1.8125 0,2.5 -0.27741,0.6875 -0.50439,0.125 -0.50439,-1.25 z m 99.92106,0.41667 c 0.048,-1.16495 0.28494,-1.4019 0.60416,-0.60417 0.28887,0.72187 0.25335,1.58437 -0.0789,1.91667 -0.33229,0.33229 -0.56864,-0.25834 -0.52522,-1.3125 z m -181.999999,-2 c 0.04798,-1.16495 0.284941,-1.4019 0.604167,-0.60417 0.288871,0.72187 0.253344,1.58437 -0.07895,1.91667 -0.332292,0.33229 -0.568641,-0.25834 -0.52522,-1.3125 z m 17.078943,-0.41667 c 0,-1.375 0.22698,-1.9375 0.50439,-1.25 0.27741,0.6875 0.27741,1.8125 0,2.5 -0.27741,0.6875 -0.50439,0.125 -0.50439,-1.25 z m 17.11447,-2 c 0,-2.475 0.19502,-3.4875 0.43337,-2.25 0.23836,1.2375 0.23836,3.2625 0,4.5 -0.23835,1.2375 -0.43337,0.225 -0.43337,-2.25 z m 11.806586,2.41667 c 0.048,-1.16495 0.28494,-1.4019 0.60416,-0.60417 0.28887,0.72187 0.25335,1.58437 -0.0789,1.91667 -0.3323,0.33229 -0.56864,-0.25834 -0.52522,-1.3125 z m 44.42105,0.58333 c 0.33992,-0.55 0.81648,-1 1.05902,-1 0.24254,0 0.44098,0.45 0.44098,1 0,0.55 -0.47656,1 -1.05902,1 -0.58246,0 -0.7809,-0.45 -0.44098,-1 z m -29.34211,-2 c 0,-1.375 0.22698,-1.9375 0.50439,-1.25 0.27741,0.6875 0.27741,1.8125 0,2.5 -0.27741,0.6875 -0.50439,0.125 -0.50439,-1.25 z m 47.92106,0.41667 c 0.048,-1.16495 0.28494,-1.4019 0.60416,-0.60417 0.28887,0.72187 0.25335,1.58437 -0.0789,1.91667 -0.3323,0.33229 -0.56864,-0.25834 -0.52522,-1.3125 z m -88.846946,-2.41667 c 0,-1.925 0.2058,-2.7125 0.45733,-1.75 0.25152,0.9625 0.25152,2.5375 0,3.5 -0.25153,0.9625 -0.45733,0.175 -0.45733,-1.75 z m 119.846946,1.41667 c 0.048,-1.16495 0.28494,-1.4019 0.60416,-0.60417 0.28887,0.72187 0.25335,1.58437 -0.0789,1.91667 -0.3323,0.33229 -0.56864,-0.25834 -0.52522,-1.3125 z M 67.044247,218.57351 c 0,-1.925 0.205795,-2.7125 0.457323,-1.75 0.251527,0.9625 0.251527,2.5375 0,3.5 -0.251528,0.9625 -0.457323,0.175 -0.457323,-1.75 z m -24.153056,0.41667 c 0.04798,-1.16495 0.284941,-1.4019 0.604167,-0.60417 0.288871,0.72187 0.253344,1.58437 -0.07895,1.91667 -0.332292,0.33229 -0.568641,-0.25834 -0.52522,-1.3125 z m -19,-1 c 0.04798,-1.16495 0.284941,-1.4019 0.604167,-0.60417 0.288871,0.72187 0.253344,1.58437 -0.07895,1.91667 -0.332292,0.33229 -0.568641,-0.25834 -0.52522,-1.3125 z m 9,0 c 0.04798,-1.16495 0.284941,-1.4019 0.604167,-0.60417 0.288871,0.72187 0.253344,1.58437 -0.07895,1.91667 -0.332292,0.33229 -0.568641,-0.25834 -0.52522,-1.3125 z m 1.546053,-1.54167 c -0.833651,-4.16825 -0.02576,-4.97614 0.875,-0.875 0.379677,1.72866 0.481874,3.35146 0.227105,3.60623 -0.254769,0.25477 -0.750716,-0.97429 -1.102105,-2.73123 z m 25.453947,1.54167 c 0.04798,-1.16495 0.284941,-1.4019 0.604167,-0.60417 0.288871,0.72187 0.253344,1.58437 -0.07895,1.91667 -0.332292,0.33229 -0.568641,-0.25834 -0.52522,-1.3125 z m 22.207063,-2.91667 c 0.008,-2.75 0.20172,-3.75631 0.43157,-2.23625 0.22986,1.52006 0.22371,3.77006 -0.0136,5 -0.23736,1.22994 -0.42542,-0.0137 -0.41792,-2.76375 z m 143.792936,2.91667 c 0.048,-1.16495 0.28494,-1.4019 0.60416,-0.60417 0.28887,0.72187 0.25335,1.58437 -0.0789,1.91667 -0.3323,0.33229 -0.56864,-0.25834 -0.52522,-1.3125 z m -122.884,-1.91667 c 0.0204,-1.65 0.2445,-2.20394 0.49804,-1.23097 0.25354,0.97297 0.23687,2.32297 -0.0371,3 -0.27393,0.67703 -0.48137,-0.11903 -0.46099,-1.76903 z m 79.884,0.91667 c 0.048,-1.16495 0.28494,-1.4019 0.60416,-0.60417 0.28887,0.72187 0.25335,1.58437 -0.0789,1.91667 -0.3323,0.33229 -0.56864,-0.25834 -0.52522,-1.3125 z m -88.826766,-2.91667 c 0.0111,-2.2 0.21589,-2.98225 0.45508,-1.73834 0.23919,1.24391 0.23011,3.04391 -0.0202,4 -0.25029,0.95609 -0.446,-0.0617 -0.4349,-2.26166 z m 52.479026,1.41984 c 0.35361,-1.3522 0.8069,-1.8055 1.05655,-1.05655 0.24048,0.72144 -0.0382,1.78716 -0.61931,2.36826 -0.74207,0.74207 -0.87221,0.35164 -0.43724,-1.31171 z m -76.652259,-0.50317 c 0.04798,-1.16495 0.284941,-1.4019 0.604167,-0.60417 0.288871,0.72187 0.253344,1.58437 -0.07895,1.91667 -0.332292,0.33229 -0.568641,-0.25834 -0.52522,-1.3125 z m 5.078943,-0.41667 c 0,-1.375 0.22698,-1.9375 0.50439,-1.25 0.27741,0.6875 0.27741,1.8125 0,2.5 -0.27741,0.6875 -0.50439,0.125 -0.50439,-1.25 z m 62.921056,0.41667 c 0.048,-1.16495 0.28494,-1.4019 0.60416,-0.60417 0.28887,0.72187 0.25335,1.58437 -0.0789,1.91667 -0.3323,0.33229 -0.56864,-0.25834 -0.52522,-1.3125 z m -52.999996,-2 c 0.048,-1.16495 0.28494,-1.4019 0.60416,-0.60417 0.28887,0.72187 0.25335,1.58437 -0.0789,1.91667 -0.3323,0.33229 -0.56864,-0.25834 -0.52522,-1.3125 z m 32.921046,-2.58334 c 0,-4.91266 0.47445,-4.77272 1.41265,0.41667 0.42922,2.37409 0.29444,3.75 -0.36734,3.75 -0.57492,0 -1.04531,-1.875 -1.04531,-4.16667 z m -82.376457,1.62801 c -0.964979,-2.51469 -0.680311,-3.16355 0.498534,-1.13634 0.58369,1.00375 0.850598,2.03566 0.593129,2.29313 -0.257468,0.25747 -0.748717,-0.26309 -1.091663,-1.15679 z m 109.407087,0.53866 c 0,-0.825 0.43621,-2.175 0.96937,-3 0.86167,-1.33333 0.96937,-1.33333 0.96937,0 0,0.825 -0.43621,2.175 -0.96937,3 -0.86167,1.33333 -0.96937,1.33333 -0.96937,0 z m -99.872731,-2 c 0,-1.375 0.226973,-1.9375 0.504386,-1.25 0.277412,0.6875 0.277412,1.8125 0,2.5 -0.277413,0.6875 -0.504386,0.125 -0.504386,-1.25 z m 56.857411,-1.69098 c -0.008,-2.30504 0.36246,-4.42446 0.82417,-4.70981 1.17269,-0.72477 1.28867,5.58292 0.13618,7.40594 -0.68175,1.07838 -0.9493,0.32723 -0.96035,-2.69613 z m -33.936359,1.10765 c 0.04798,-1.16495 0.284941,-1.4019 0.604167,-0.60417 0.288871,0.72187 0.253344,1.58437 -0.07895,1.91667 -0.332292,0.33229 -0.568641,-0.25834 -0.52522,-1.3125 z m 24.000003,0 c 0.048,-1.16495 0.28494,-1.4019 0.60416,-0.60417 0.28887,0.72187 0.25335,1.58437 -0.0789,1.91667 -0.3323,0.33229 -0.56864,-0.25834 -0.52522,-1.3125 z m -20.921055,-3.41667 c 0,-1.375 0.226973,-1.9375 0.504386,-1.25 0.277412,0.6875 0.277412,1.8125 0,2.5 -0.277413,0.6875 -0.504386,0.125 -0.504386,-1.25 z m 15.074105,-1 c 0,-1.925 0.2058,-2.7125 0.45733,-1.75 0.25152,0.9625 0.25152,2.5375 0,3.5 -0.25153,0.9625 -0.45733,0.175 -0.45733,-1.75 z M 135.0073,202.7559 c -0.16771,-2.54408 -0.0981,-4.41337 0.15472,-4.15399 0.87675,0.89954 1.61947,7.87257 0.88672,8.32491 -0.40507,0.25007 -0.87372,-1.62685 -1.04144,-4.17092 z m -80.116109,2.23428 c 0.04798,-1.16495 0.284941,-1.4019 0.604167,-0.60417 0.288871,0.72187 0.253344,1.58437 -0.07895,1.91667 -0.332292,0.33229 -0.568641,-0.25834 -0.52522,-1.3125 z m 14.078948,-0.41667 c 0,-1.375 0.226973,-1.9375 0.504386,-1.25 0.277412,0.6875 0.277412,1.8125 0,2.5 -0.277413,0.6875 -0.504386,0.125 -0.504386,-1.25 z m 13.921055,0.41667 c 0.048,-1.16495 0.28494,-1.4019 0.60416,-0.60417 0.28887,0.72187 0.25335,1.58437 -0.0789,1.91667 -0.3323,0.33229 -0.56864,-0.25834 -0.52522,-1.3125 z m 61.587716,0.91666 c -0.92471,-0.9247 -0.83761,-3.33333 0.12053,-3.33333 0.43295,0 0.85499,0.9 0.93785,2 0.16188,2.14908 -0.0171,2.37459 -1.05838,1.33333 z m 25.41228,-3.91666 c 0.048,-1.16495 0.28494,-1.4019 0.60416,-0.60417 0.28887,0.72187 0.25335,1.58437 -0.0789,1.91667 -0.3323,0.33229 -0.56864,-0.25834 -0.52522,-1.3125 z m -105.962945,-0.0849 c -0.0638,-0.64252 -0.407231,-1.99252 -0.76318,-3 -0.502141,-1.42127 -0.36907,-1.57546 0.593781,-0.68801 0.682527,0.62908 1.025958,1.97908 0.76318,3 -0.262779,1.02092 -0.52998,1.33052 -0.593781,0.68801 z m 31.020179,-1 c -0.0749,-1.19252 -0.39516,-2.99252 -0.71169,-4 -0.54481,-1.73409 -0.51463,-1.73692 0.56579,-0.053 0.62771,0.97831 0.94797,2.77831 0.71168,4 -0.42917,2.21904 -0.42973,2.21909 -0.56578,0.053 z m -16.63618,-2.33177 c 0.33992,-0.55 0.81648,-1 1.05902,-1 0.24254,0 0.44098,0.45 0.44098,1 0,0.55 -0.47656,1 -1.05902,1 -0.58246,0 -0.7809,-0.45 -0.44098,-1 z m 32.123536,-0.53866 c -0.34295,-0.8937 -0.59502,-2.15061 -0.56015,-2.79313 0.0349,-0.64251 0.49453,-0.0904 1.02148,1.22697 0.52695,1.31735 0.77902,2.57426 0.56015,2.79313 -0.21887,0.21887 -0.67854,-0.33327 -1.02148,-1.22697 z m 56.45541,-0.0447 c 0.048,-1.16495 0.28494,-1.4019 0.60416,-0.60417 0.28887,0.72187 0.25335,1.58437 -0.0789,1.91667 -0.3323,0.33229 -0.56864,-0.25834 -0.52522,-1.3125 z m 41,-1 c 0.048,-1.16495 0.28494,-1.4019 0.60416,-0.60417 0.28887,0.72187 0.25335,1.58437 -0.0789,1.91667 -0.3323,0.33229 -0.56864,-0.25834 -0.52522,-1.3125 z m -82.07895,-0.85762 c 0,-0.85746 0.45,-1.55902 1,-1.55902 0.55,0 1,0.42344 1,0.94098 0,0.51754 -0.45,1.2191 -1,1.55902 -0.55,0.33992 -1,-0.0835 -1,-0.94098 z m -93.273566,-0.82955 c -0.597399,-1.5568 2.15446,-8.72947 3.349139,-8.72947 0.991089,0 0.169975,2.64366 -1.666294,5.3648 -0.692119,1.02564 -1.0192,2.48814 -0.726848,3.25 0.292353,0.76186 0.306551,1.3852 0.03155,1.3852 -0.275,0 -0.719397,-0.57174 -0.987547,-1.27053 z m 116.905506,-1.81975 c -0.92048,-4.6024 -0.77465,-7.11596 0.37173,-6.40745 0.55202,0.34116 0.74062,1.83022 0.41912,3.30902 -0.46274,2.12838 -0.35297,2.37611 0.5267,1.18871 0.86404,-1.16629 0.96197,-0.83258 0.44021,1.5 -0.90329,4.03822 -1.02632,4.0669 -1.75776,0.40972 z m 66.85011,1.4587 c 0.38406,-1.41745 0.0438,-2.33639 -1.01563,-2.74293 -0.87625,-0.33625 -1.29268,-1.09759 -0.92539,-1.69187 0.42136,-0.68179 1.20226,-0.31744 2.11618,0.98737 1.09531,1.56377 1.18011,2.49585 0.34785,3.82344 -0.9722,1.55082 -1.0332,1.50697 -0.52301,-0.37601 z M 48.589593,193.57351 c 0.247257,-0.825 0.675988,-2.2875 0.952736,-3.25 0.834382,-2.90189 1.955224,-1.96595 1.48472,1.2398 -0.241344,1.64438 -0.799973,2.76658 -1.241397,2.49377 -0.441423,-0.27282 -0.992269,-0.15573 -1.224103,0.2602 -0.231833,0.41593 -0.219214,0.0812 0.02804,-0.74377 z m 119.301597,0.41667 c 0.048,-1.16495 0.28494,-1.4019 0.60416,-0.60417 0.28887,0.72187 0.25335,1.58437 -0.0789,1.91667 -0.3323,0.33229 -0.56864,-0.25834 -0.52522,-1.3125 z m -8,-1 c 0.048,-1.16495 0.28494,-1.4019 0.60416,-0.60417 0.28887,0.72187 0.25335,1.58437 -0.0789,1.91667 -0.3323,0.33229 -0.56864,-0.25834 -0.52522,-1.3125 z m -94.391664,-0.11364 c -0.759452,-1.22882 1.026198,-6.92288 1.897704,-6.05138 0.290966,0.29097 0.140872,2.02698 -0.333542,3.8578 -0.498173,1.92251 -1.158963,2.8492 -1.564162,2.19358 z m -22.956069,-2.22287 c -0.434974,-1.66335 -0.304831,-2.05378 0.437237,-1.31171 0.581102,0.5811 0.859794,1.64682 0.619313,2.36826 -0.249648,0.74895 -0.702941,0.29565 -1.05655,-1.05655 z m 44.811497,-0.0111 c -0.31644,-0.512 -0.19299,-1.1672 0.27431,-1.45601 0.46731,-0.28881 0.84965,0.13009 0.84965,0.9309 0,1.68617 -0.31534,1.83349 -1.12396,0.52511 z m 53.536236,-0.65243 c 0.048,-1.16495 0.28494,-1.4019 0.60416,-0.60417 0.28887,0.72187 0.25335,1.58437 -0.0789,1.91667 -0.3323,0.33229 -0.56864,-0.25834 -0.52522,-1.3125 z M 58.376537,188.8666 c -0.542685,-1.4252 -0.427821,-1.54006 0.559795,-0.5598 0.683418,0.67834 0.990671,1.48524 0.682784,1.79313 -0.307887,0.30789 -0.867048,-0.24711 -1.242579,-1.23333 z m 14.935707,0.70691 c -0.33992,-0.55 -0.14148,-1 0.44098,-1 0.58246,0 1.05902,0.45 1.05902,1 0,0.55 -0.19844,1 -0.44098,1 -0.24254,0 -0.7191,-0.45 -1.05902,-1 z m 131.064286,-1.70687 c -0.54268,-1.4252 -0.42782,-1.54006 0.5598,-0.5598 0.68342,0.67834 0.99067,1.48524 0.68278,1.79313 -0.30789,0.30789 -0.86705,-0.24711 -1.24258,-1.23333 z M 27.41525,186.74018 c -0.283266,-0.45834 0.120382,-0.83334 0.896994,-0.83334 0.776612,0 1.18026,0.375 0.896994,0.83334 -0.283265,0.45833 -0.686913,0.83333 -0.896994,0.83333 -0.210081,0 -0.613729,-0.375 -0.896994,-0.83333 z m 16.378225,0.17292 c 0.567176,-0.28073 0.776869,-0.92198 0.465983,-1.425 -0.310887,-0.50302 -0.05119,-0.91459 0.577102,-0.91459 1.483329,0 0.72398,2.30188 -0.861816,2.6125 -0.666875,0.13062 -0.748446,0.008 -0.181269,-0.27291 z m 96.097715,-1.92292 c 0.048,-1.16495 0.28494,-1.4019 0.60416,-0.60417 0.28887,0.72187 0.25335,1.58437 -0.0789,1.91667 -0.3323,0.33229 -0.56864,-0.25834 -0.52522,-1.3125 z m 23.92105,0.0833 c 0,-0.825 0.43588,-1.5 0.96862,-1.5 0.53273,0 0.70959,0.675 0.39301,1.5 -0.31659,0.825 -0.75246,1.5 -0.96862,1.5 -0.21615,0 -0.39301,-0.675 -0.39301,-1.5 z M 51.812244,184.63253 c 0,-0.51754 0.45,-1.2191 1,-1.55902 0.55,-0.33992 1,0.0835 1,0.94098 0,0.85746 -0.45,1.55902 -1,1.55902 -0.55,0 -1,-0.42344 -1,-0.94098 z m -31.5,-2.05902 c 0.339919,-0.55 0.816476,-1 1.059017,-1 0.242541,0 0.440983,0.45 0.440983,1 0,0.55 -0.476558,1 -1.059017,1 -0.582459,0 -0.780902,-0.45 -0.440983,-1 z m 9.578947,-0.19098 c -0.04342,-0.93004 0.378393,-1.97364 0.937365,-2.3191 0.558971,-0.34546 0.803766,-0.97202 0.543989,-1.39235 -0.259778,-0.42033 0.184752,-0.76424 0.987844,-0.76424 1.243803,0 1.25662,0.23462 0.0865,1.58334 -0.755518,0.87083 -1.621862,2.25833 -1.925209,3.08333 -0.448013,1.21844 -0.566359,1.18259 -0.630488,-0.19098 z m 7.969558,0.69098 c 0.06134,-1.73635 3.865956,-8.07252 3.90299,-6.5 0.01943,0.825 -0.858743,2.85 -1.951495,4.5 -1.092752,1.65 -1.970925,2.55 -1.951495,2 z m 7.588724,-0.27796 c -0.264442,-0.42788 0.414202,-1.89038 1.508098,-3.25 l 1.988903,-2.47204 -1.279567,2.5 c -0.703762,1.375 -1.183964,2.8375 -1.067115,3.25 0.27917,0.98553 -0.536197,0.96571 -1.150319,-0.028 z m 63.320947,-3.30018 c -1.55774,-2.91067 -0.4882,-4.92186 2.61742,-4.92186 1.8816,0 2.48039,0.41172 2.08757,1.43539 -0.30295,0.78947 -0.0136,1.63783 0.64301,1.88525 0.78175,0.29458 0.50349,0.99624 -0.80618,2.0328 -2.64145,2.09065 -3.22146,2.03553 -4.54182,-0.43158 z m -46.942863,-0.54942 c 0.03019,-1.72019 1.728926,-3.59529 2.348677,-2.59251 0.337694,0.5464 -0.05606,1.54954 -0.875,2.22921 -0.818945,0.67966 -1.482099,0.84315 -1.473677,0.3633 z m 33.661257,-0.13475 c -1.11663,-0.25268 -1.60559,-0.98027 -1.26145,-1.87709 0.31503,-0.82096 0.12759,-1.19601 -0.42657,-0.85352 -0.5437,0.33602 -0.98855,0.24264 -0.98855,-0.20752 0,-1.67122 3.53485,-3.01578 5.76228,-2.1918 4.228856,1.56436 1.464746,6.15964 -3.08571,5.12993 z m 25.889436,-1.92626 c -0.83854,-2.18521 0.68164,-3.56143 3.93399,-3.56143 3.92669,0 5.34703,1.85616 3.06628,4.00714 -1.04694,0.98737 -1.50323,1.13403 -1.05264,0.33835 0.58766,-1.03771 0.42858,-1.17584 -0.60913,-0.52893 -2.47523,1.54307 -4.68906,1.43727 -5.3385,-0.25513 z m 31.43399,-0.37045 c 0,-1.13246 0.43035,-1.79305 0.95633,-1.46797 0.52598,0.32507 0.70283,1.25163 0.39301,2.05902 -0.79323,2.06711 -1.34934,1.82352 -1.34934,-0.59105 z m 56.14324,1.16871 c -0.83426,-0.52861 -0.97089,-1.09817 -0.35479,-1.47895 0.55109,-0.34059 1.26001,0.0532 1.57538,0.875 0.66263,1.72679 0.60022,1.75767 -1.22059,0.60395 z M 49.891191,174.82351 c -0.04342,-1.2375 0.397611,-2.25 0.98007,-2.25 0.582459,0 0.737931,-0.51953 0.345491,-1.15451 -0.452357,-0.73193 -0.273172,-0.88235 0.489542,-0.41097 0.756948,0.46782 0.864033,1.17405 0.288781,1.90451 -0.502857,0.63853 -1.164182,1.83597 -1.469611,2.66097 -0.365786,0.98803 -0.582271,0.73205 -0.634273,-0.75 z m 109.525829,-0.83753 c -0.90683,-2.36317 -0.73031,-3.60809 0.41153,-2.90239 0.55897,0.34546 0.78117,1.00859 0.49377,1.47361 -0.2874,0.46502 0.0206,1.02654 0.68444,1.24782 0.84799,0.28266 0.88101,0.60378 0.11101,1.07966 -0.60278,0.37254 -1.36811,-0.0319 -1.70075,-0.8987 z m -95.604776,0.17859 c 0,-0.19039 0.675,-0.90637 1.5,-1.59106 0.864593,-0.71755 1.5,-0.81474 1.5,-0.22943 0,0.5585 -0.675,1.27447 -1.5,1.59106 -0.825,0.31658 -1.5,0.41982 -1.5,0.22943 z m 142.550216,-0.67232 c 0.25423,-0.41135 -0.10306,-0.94975 -0.79399,-1.19643 -0.69093,-0.24667 -0.99097,-0.73787 -0.66677,-1.09154 0.32421,-0.35367 1.33858,0.18473 2.25416,1.19643 1.37504,1.5194 1.41062,1.83947 0.20452,1.83947 -0.80309,0 -1.25215,-0.33657 -0.99792,-0.74793 z m -54.54778,0.0813 c -0.81828,-2.6318 -0.73465,-4.13221 0.17936,-3.2182 0.57376,0.57376 0.8031,1.64507 0.50965,2.3807 -0.29346,0.73562 -0.60351,1.1125 -0.68901,0.8375 z m -116.603744,-2.25 c -0.395639,-0.6875 -0.3511,-0.9164 0.09897,-0.50868 0.450074,0.40773 1.534721,0.18273 2.410326,-0.5 1.408586,-1.0983 1.433883,-1.03969 0.219564,0.50868 -1.635773,2.08577 -1.799076,2.11569 -2.728863,0.5 z m 8.334641,0.12591 c 0.678334,-0.68342 1.485241,-0.99067 1.793128,-0.68278 0.307888,0.30789 -0.247112,0.86705 -1.233333,1.24258 -1.425198,0.54268 -1.540062,0.42782 -0.559795,-0.5598 z m 120.830953,-0.58278 c -0.54268,-1.4252 -0.42782,-1.54006 0.5598,-0.5598 0.68342,0.67834 0.99067,1.48524 0.68278,1.79313 -0.30789,0.30789 -0.86705,-0.24711 -1.24258,-1.23333 z m -80.493846,-1.62081 c -1.10365,-2.96852 -0.38547,-4.37894 2.51177,-4.93279 1.92213,-0.36743 2.57223,0.0276 3.02696,1.83943 0.71109,2.8332 0.046,4.01645 -2.65455,4.72265 -1.50631,0.39392 -2.29832,-0.0535 -2.88418,-1.62929 z m 130.801996,0.57768 c -1.24387,-1.58606 -1.2085,-1.62143 0.37756,-0.37756 0.9625,0.75485 1.75,1.54235 1.75,1.75 0,0.82304 -0.82119,0.29331 -2.12756,-1.37244 z M 53.145577,169.1175 c 0,-0.80081 0.382341,-1.21971 0.849646,-0.9309 0.467304,0.28881 0.590747,0.94401 0.274316,1.45601 -0.808625,1.30838 -1.123962,1.16106 -1.123962,-0.52511 z m 79.169503,-1.53504 c -0.80011,-2.52093 0.10323,-4.00895 2.43373,-4.00895 2.23799,0 4.43487,2.47875 3.73692,4.21638 -0.29831,0.74266 -0.57558,0.44075 -0.65793,-0.71638 -0.13198,-1.85458 -0.20809,-1.8364 -1.04672,0.25 -1.11935,2.7848 -3.61834,2.92969 -4.466,0.25895 z m 69.73162,1.50025 c 0.40395,-0.44629 -0.0453,-1.38165 -0.99843,-2.07856 -0.95309,-0.69692 -1.46833,-1.53167 -1.14499,-1.85501 0.32334,-0.32334 1.36444,0.27019 2.31357,1.31896 1.37388,1.51813 1.45757,2.06171 0.41053,2.66646 -0.72333,0.41778 -0.98463,0.39445 -0.58068,-0.0519 z M 29.812244,166.69595 c 0,-0.61734 0.476558,-1.12244 1.059017,-1.12244 0.582459,0 0.797995,-0.42234 0.478968,-0.93854 -0.319028,-0.5162 0.216915,-1.40251 1.190983,-1.96959 0.974067,-0.56708 1.408015,-1.04474 0.964328,-1.06146 -0.971512,-0.0366 0.665487,-2.42977 5.118356,-7.48259 1.821409,-2.06682 3.563717,-3.50578 3.871795,-3.19771 0.308079,0.30808 -0.857803,1.97809 -2.590848,3.71114 -1.733046,1.73304 -3.824409,4.45324 -4.647475,6.04487 -0.823067,1.59163 -1.961486,2.89388 -2.529821,2.89388 -0.568335,0 -0.786734,0.39901 -0.48533,0.88669 0.301403,0.48768 -0.122039,1.44278 -0.940983,2.12245 -1.033649,0.85785 -1.48899,0.8925 -1.48899,0.1133 z m 144.564286,-0.82931 c -0.54268,-1.4252 -0.42782,-1.54006 0.5598,-0.5598 0.68342,0.67834 0.99067,1.48524 0.68278,1.79313 -0.30789,0.30789 -0.86705,-0.24711 -1.24258,-1.23333 z M 47.456368,165.34031 c 0.305881,-0.49492 0.812068,-0.64394 1.12486,-0.33115 0.312792,0.31279 1.505231,-0.21977 2.649864,-1.18347 2.051382,-1.72712 2.05606,-1.72238 0.326996,0.33115 -1.686794,2.00333 -5.242476,3.02925 -4.10172,1.18347 z m 59.546242,-0.5168 c 0.18536,-0.9625 0.99969,-1.75 1.80963,-1.75 0.80994,0 1.62427,0.7875 1.80963,1.75 0.23646,1.22785 -0.30348,1.75 -1.80963,1.75 -1.50615,0 -2.04609,-0.52215 -1.80963,-1.75 z m 84.37392,0.0431 c -0.54268,-1.4252 -0.42782,-1.54006 0.5598,-0.5598 0.68342,0.67834 0.99067,1.48524 0.68278,1.79313 -0.30789,0.30789 -0.86705,-0.24711 -1.24258,-1.23333 z m -28.07437,-0.30944 c -0.34546,-0.55897 -0.99586,-0.78903 -1.44533,-0.51125 -0.44946,0.27779 -1.06471,-0.44139 -1.36722,-1.59818 -0.5368,-2.05274 -0.49151,-2.04828 1.88631,0.18556 1.33998,1.25885 2.43632,2.43537 2.43632,2.61449 0,0.6941 -0.91208,0.27697 -1.51008,-0.69062 z m -42,-2 c -0.34546,-0.55897 -1.04702,-0.75742 -1.55902,-0.44098 -0.51199,0.31646 -0.9309,-0.1262 -0.9309,-0.98366 0,-0.89235 0.85524,-1.55902 2,-1.55902 1.33333,0 2,0.66667 2,2 0,2.19736 -0.54185,2.55032 -1.51008,0.98369 z m 66.6412,-1.3257 c -0.61257,-0.7381 -0.85363,-1.60215 -0.53568,-1.9201 0.31795,-0.31794 -0.54817,-1.31604 -1.92471,-2.21798 -1.37654,-0.90194 -2.76627,-2.3265 -3.0883,-3.16569 -0.32202,-0.83918 1.1958,0.16216 3.37294,2.22521 2.17714,2.06306 3.75003,4.08823 3.4953,4.50038 -0.25472,0.41215 0.10217,0.97728 0.7931,1.25583 0.7827,0.31556 0.8312,0.53622 0.12867,0.58541 -0.62015,0.0434 -1.62875,-0.52495 -2.24132,-1.26306 z M 45.312244,159.57351 c 0.995486,-1.1 2.034975,-2 2.309975,-2 0.275,0 -0.314489,0.9 -1.309975,2 -0.995486,1.1 -2.034975,2 -2.309975,2 -0.275,0 0.314489,-0.9 1.309975,-2 z m 7.5,1.62244 c 0,-0.20765 0.7875,-0.99515 1.75,-1.75 1.586056,-1.24387 1.621426,-1.2085 0.377555,0.37756 -1.306369,1.66575 -2.127555,2.19548 -2.127555,1.37244 z m 43,-0.65676 c -1.29751,-0.86819 -1.23615,-1.20493 0.45451,-2.49446 1.68438,-1.28475 2.14989,-1.29539 3.36832,-0.077 2.604266,2.60427 -0.57637,4.74372 -3.82283,2.57142 z m 70.872436,-1.71568 c -1.24387,-1.58606 -1.2085,-1.62143 0.37756,-0.37756 1.66575,1.30637 2.19548,2.12756 1.37244,2.12756 -0.20765,0 -0.99515,-0.7875 -1.75,-1.75 z m 36.5381,-0.47664 c -1.0508,-1.23139 -1.23554,-1.72242 -0.41054,-1.09116 0.825,0.63125 1.8375,1.18599 2.25,1.23276 0.85003,0.0964 1.12835,1.04003 0.49387,1.6745 -0.23254,0.23254 -1.28254,-0.5847 -2.33333,-1.8161 z M 26.312244,157.57351 c 0.995486,-1.1 2.034975,-2 2.309975,-2 0.275,0 -0.314489,0.9 -1.309975,2 -0.995486,1.1 -2.034975,2 -2.309975,2 -0.275,0 0.314489,-0.9 1.309975,-2 z m 112.749996,-0.42407 c -2.66406,-1.24345 -2.81138,-2.29813 -0.654,-4.68201 1.29848,-1.4348 2.04415,-1.55937 4,-0.66823 1.3222,0.60244 2.404,1.90728 2.404,2.89964 0,2.47285 -2.98067,3.74319 -5.75,2.4506 z m 28.27134,-0.55235 c -0.98375,-1.08703 -2.29099,-1.68988 -2.90499,-1.33967 -0.61399,0.35021 -0.81703,0.30277 -0.45119,-0.10541 0.36583,-0.40818 -1.20917,-2.56793 -3.5,-4.79943 -3.11812,-3.03737 -3.41102,-3.54061 -1.16516,-2.00194 3.12591,2.14162 11.31393,10.22287 10.35794,10.22287 -0.30138,0 -1.35285,-0.88939 -2.3366,-1.97642 z m 3.97866,-3.02358 c -2.14824,-2.2 -3.53447,-4 -3.0805,-4 0.45396,0 0.22141,-0.7875 -0.51679,-1.75 -0.73821,-0.9625 -0.12008,-0.66073 1.37361,0.67061 1.49369,1.33134 2.48627,2.65014 2.20574,2.93067 -0.28054,0.28053 0.70543,1.77875 2.19103,3.32939 1.4856,1.55063 2.48323,2.81933 2.21695,2.81933 -0.26628,0 -2.2418,-1.8 -4.39004,-4 z M 60.246286,151.33454 c 2.786277,-2.60643 5.740958,-4.71747 6.565958,-4.69119 1.108947,0.0353 0.995397,0.35832 -0.435554,1.23897 -1.064554,0.65515 -2.977054,2.2694 -4.25,3.58721 -1.272945,1.31782 -2.314446,2.02687 -2.314446,1.57569 0,-0.45119 -1.042181,0.0456 -2.315958,1.10398 -1.273776,1.05837 -0.03628,-0.20823 2.75,-2.81466 z m 48.108664,4.30807 c -0.31644,-0.512 -0.11799,-1.21356 0.44098,-1.55902 1.19337,-0.73755 3.01631,0.19857 3.01631,1.54894 0,1.2168 -2.70662,1.22469 -3.45729,0.0101 z m -32.233236,-1.70502 c -1.51396,-3.94533 4.01436,-6.8974 7.11331,-3.79844 1.56276,1.56276 1.56078,1.79505 -0.0303,3.55321 -2.09538,2.31537 -6.2336,2.45864 -7.08297,0.24523 z m 121.690526,-2.36408 c -1.84576,-2.2 -3.89574,-4 -4.55552,-4 -0.65977,0 -1.81719,-0.74454 -2.57204,-1.65453 -1.27233,-1.53385 -1.15362,-1.53986 1.62756,-0.0824 3.37888,1.77065 11.46295,9.73695 9.88091,9.73695 -0.56374,0 -2.53515,-1.8 -4.38091,-4 z m -72.37417,1.4673 c -0.91835,-2.39317 -0.85984,-2.4673 1.94749,-2.4673 1.90604,0 2.48651,0.45082 2.23852,1.73852 -0.44133,2.29163 -3.38934,2.80488 -4.18601,0.72878 z m -35.625826,-1.30063 c 0,-2.59929 0.9737,-3.25111 3.13148,-2.0963 2.74262,1.4678 2.347,3.92963 -0.63148,3.92963 -1.75758,0 -2.5,-0.54444 -2.5,-1.83333 z m -40,-0.54423 c 0,-0.20765 0.7875,-0.99515 1.75,-1.75 1.586056,-1.24387 1.621426,-1.2085 0.377555,0.37756 -1.306369,1.66575 -2.127555,2.19548 -2.127555,1.37244 z m 51.666666,-1.28911 c -1.26779,-1.26779 -0.65891,-2.33333 1.33333,-2.33333 1.11111,0 2,0.66667 2,1.5 0,1.52241 -2.1154,2.05126 -3.33333,0.83333 z m 72.8753,-2.58333 c -3.81685,-3.39783 -7.76552,-5.9559 -15.8914,-10.29496 -2.66719,-1.42423 -4.64812,-2.79082 -4.40207,-3.03687 0.53059,-0.5306 9.97863,4.56416 10.8633,5.85793 0.3365,0.4921 1.0115,0.91207 1.5,0.93327 1.31493,0.0571 8.59824,5.2357 10.79319,7.67423 2.8586,3.17584 1.27235,2.54777 -2.86302,-1.1336 z m -57.90249,1.55615 c -1.12618,-1.12619 -0.68589,-2.30615 0.86052,-2.30615 0.825,0 1.5,0.42344 1.5,0.94098 0,1.26098 -1.56159,2.1641 -2.36052,1.36517 z m -69.64587,-3.25611 c 1.921483,-1.59289 3.685758,-2.70401 3.92061,-2.46916 0.782466,0.78247 -4.238413,5.41954 -5.83853,5.39222 -1.009056,-0.0172 -0.319356,-1.06839 1.91792,-2.92306 z m -10.993606,1.5724 c 0,-0.20765 0.7875,-0.99515 1.75,-1.75 1.586056,-1.24387 1.621426,-1.2085 0.377555,0.37756 -1.306369,1.66575 -2.127555,2.19548 -2.127555,1.37244 z m 23.759146,-1.69663 c 1.242531,-1.4158 2.019156,-2.81417 1.725834,-3.1075 -0.293321,-0.29332 0.265063,-1.15993 1.240854,-1.92581 1.575179,-1.23632 1.634941,-1.21394 0.532842,0.19951 -0.682728,0.8756 -1.022003,1.81133 -0.753943,2.07939 0.268059,0.26806 -0.748345,1.57665 -2.258676,2.90799 l -2.746057,2.42061 z m 101.72582,-0.70512 c -1.65827,-1.49638 -4.13327,-3.52879 -5.5,-4.51646 -1.57075,-1.1351 -0.92139,-0.97538 1.76503,0.43414 2.3375,1.22645 4.25,2.59705 4.25,3.04577 0,0.44872 0.50272,0.70336 1.11716,0.56586 0.61444,-0.1375 1.24963,0.5375 1.41152,1.5 0.36336,2.16026 0.56741,2.22927 -3.04371,-1.02931 z m 19.51503,0.77931 c -1.375,-1.07554 -2.00724,-1.96553 -1.40499,-1.97776 0.60226,-0.0122 1.9095,0.87776 2.90499,1.97776 2.28016,2.51955 1.72106,2.51955 -1.5,0 z M 139.55,144.88183 c -0.96924,-0.25283 -1.50518,-0.87563 -1.19099,-1.384 0.3142,-0.50838 0.0947,-0.92432 -0.48775,-0.92432 -2.03353,0 -1.03701,-1.96002 1.72187,-3.38669 4.76099,-2.46201 8.27953,1.18341 4.64768,4.81526 -1.6241,1.6241 -1.74809,1.64736 -4.69081,0.87975 z m -30.73776,-1.7493 c 0,-0.85746 0.45,-1.55902 1,-1.55902 0.55,0 1,0.42344 1,0.94098 0,0.51754 -0.45,1.2191 -1,1.55902 -0.55,0.33992 -1,-0.0835 -1,-0.94098 z m -69.399958,-0.39715 c -0.317909,-0.51439 0.05197,-1.4581 0.821945,-2.09712 0.827911,-0.68711 1.63615,-0.77971 1.977979,-0.22662 0.317909,0.51439 -0.05197,1.4581 -0.821945,2.09712 -0.827911,0.68711 -1.63615,0.77971 -1.977979,0.22662 z m 54.504242,-0.0763 c -1.40893,-0.89209 -0.88273,-4.08557 0.67321,-4.08557 1.76852,0 4.49528,2.74964 3.81627,3.8483 -0.84487,1.36702 -2.56199,1.45779 -4.48948,0.23731 z m 92.498726,0.0811 c -0.28327,-0.45834 0.12038,-0.83334 0.89699,-0.83334 0.77661,0 1.18026,0.375 0.89699,0.83334 -0.28326,0.45833 -0.68691,0.83333 -0.89699,0.83333 -0.21008,0 -0.61373,-0.375 -0.89699,-0.83333 z M 52.354949,141.64261 c -0.316431,-0.512 -0.192988,-1.1672 0.274316,-1.45601 0.467305,-0.28881 0.849646,0.13009 0.849646,0.9309 0,1.68617 -0.315337,1.83349 -1.123962,0.52511 z m 12.045278,-0.0691 c 0.484765,-0.825 0.888282,-1.8 0.896704,-2.16667 0.0084,-0.36666 0.319047,-0.9704 0.690278,-1.34163 0.37123,-0.37123 0.569175,0.0458 0.439877,0.92679 -0.129298,0.88097 -0.836549,2.1597 -1.571669,2.84163 -1.083267,1.00489 -1.169536,0.95559 -0.45519,-0.26012 z m 60.662013,0.33333 c -0.6875,-0.275 -1.25,-0.93905 -1.25,-1.47568 0,-0.53663 0.45,-0.69757 1,-0.35765 0.55,0.33992 1,-0.12102 1,-1.02432 0,-0.90329 0.5625,-1.45485 1.25,-1.22568 1.48542,0.49514 1.68614,3.9743 0.25,4.33333 -0.55,0.1375 -1.5625,0.025 -2.25,-0.25 z m -45.319566,-1.91715 c -0.95006,-1.14476 -1.025,-2.04572 -0.27031,-3.25 2.41695,-3.85684 8.2155,-1.50038 6.85511,2.78583 -0.78691,2.47934 -4.68435,2.75407 -6.5848,0.46417 z m 94.069566,0.0838 c -0.69443,-0.83674 -0.80272,-1.5 -0.24489,-1.5 0.55,0 1.5602,0.675 2.24489,1.5 0.69443,0.83674 0.80272,1.5 0.24489,1.5 -0.55,0 -1.5602,-0.675 -2.24489,-1.5 z M 44.145577,139.24018 c 0,-0.73334 0.592856,-1.33334 1.317457,-1.33334 0.984499,0 1.037796,0.33697 0.210889,1.33334 -0.608613,0.73333 -1.201468,1.33333 -1.317457,1.33333 -0.115989,0 -0.210889,-0.6 -0.210889,-1.33333 z m 11.176748,-0.68298 c 0.345464,-0.55897 1.047021,-0.75742 1.559017,-0.44098 1.387044,0.85723 1.128411,1.45729 -0.628115,1.45729 -0.857459,0 -1.276365,-0.45734 -0.930902,-1.01631 z m 12.823252,-0.52768 c 0,-0.8008 0.375,-1.45601 0.833334,-1.45601 0.458333,0 0.833333,0.42344 0.833333,0.94098 0,0.51754 -0.375,1.17275 -0.833333,1.45601 -0.458334,0.28327 -0.833334,-0.14017 -0.833334,-0.94098 z m -9.888564,-0.54538 c -0.466266,-0.75443 -0.336859,-0.96197 0.339262,-0.54411 0.601177,0.37155 1.536954,-0.11767 2.079506,-1.08716 0.542551,-0.96948 1.247967,-1.50119 1.567591,-1.18157 0.319623,0.31963 -0.27695,1.35769 -1.32572,2.30682 -1.432422,1.29632 -2.094397,1.42222 -2.660639,0.50602 z m 12.555231,-0.91063 c 0,-0.55 0.476558,-1 1.05902,-1 0.58246,0 0.7809,0.45 0.44098,1 -0.33992,0.55 -0.816476,1 -1.059017,1 -0.242541,0 -0.440983,-0.45 -0.440983,-1 z m 107.542706,0.0691 c -0.31644,-0.512 -0.19299,-1.1672 0.27431,-1.45601 0.46731,-0.28881 0.84965,0.13009 0.84965,0.9309 0,1.68617 -0.31534,1.83349 -1.12396,0.52511 z M 48.746189,134.7622 c 3.617759,-2.93529 8.066197,-5.41472 8.065038,-4.49523 -5.59e-4,0.4436 -2.363059,2.08082 -5.25,3.63828 -3.299206,1.77987 -4.344875,2.09819 -2.815038,0.85695 z m 52.732721,1.14464 c -1.518076,-1.51807 -0.51968,-3.33333 1.83333,-3.33333 2.72961,0 3.16412,0.93588 1.3,2.8 -1.35945,1.35945 -2.16936,1.49731 -3.13333,0.53333 z m 11.77948,-2.42046 c -0.94503,-1.52909 1.1059,-3.29874 2.98663,-2.57704 0.86197,0.33077 1.56722,1.29052 1.56722,2.13279 0,1.74768 -3.53514,2.09255 -4.55385,0.44425 z m 61.88718,-0.36888 c 0,-0.80081 0.38234,-1.21971 0.84965,-0.9309 0.4673,0.28881 0.59075,0.94401 0.27431,1.45601 -0.80862,1.30838 -1.12396,1.16106 -1.12396,-0.52511 z m -2.79062,-0.47489 c -0.31644,-0.512 -0.19299,-1.1672 0.27431,-1.45601 0.46731,-0.28881 0.84965,0.13009 0.84965,0.9309 0,1.68617 -0.31534,1.83349 -1.12396,0.52511 z m -41.5692,-2.63879 c -0.73088,-1.92234 -0.61668,-2.93 0.45332,-4 1.91378,-1.91377 6.20951,-1.82037 6.96618,0.15148 0.92943,2.42205 0.72148,5.607 -0.32391,4.96092 -0.512,-0.31644 -1.21356,-0.11799 -1.55902,0.44098 -1.22525,1.98249 -4.54653,1.05065 -5.53657,-1.55338 z m -42.508636,-0.48715 c -0.35923,-0.58125 -0.38716,-2.11664 -0.0621,-3.41196 0.61092,-2.43409 2.74019,-2.7882 4.7401,-0.78829 1.56387,1.56387 0.2233,4.61159 -1.70328,3.8723 -0.88328,-0.33895 -1.28217,-0.16945 -0.93255,0.39624 0.33602,0.5437 0.16095,0.98855 -0.38905,0.98855 -0.55,0 -1.29392,-0.47558 -1.65316,-1.05684 z m -28.02374,-1.38799 c 1.067621,-0.85535 2.380121,-1.55517 2.916666,-1.55517 1.270543,0 0.703236,0.4619 -2.357796,1.91971 -2.357268,1.12265 -2.389176,1.10183 -0.55887,-0.36454 z m 95.868736,-3.40321 c -5.86402,-1.86645 -7.68975,-3.15196 -4.47654,-3.15196 1.19167,0 2.16667,0.47656 2.16667,1.05902 0,0.58246 0.39831,0.81285 0.88513,0.51197 1.17903,-0.72868 7.11487,1.37943 7.11487,2.52684 0,0.49619 -0.1125,0.85805 -0.25,0.80413 -0.1375,-0.0539 -2.58556,-0.84142 -5.44013,-1.75 z m -55.92133,-1.58182 c -0.990066,-2.5801 0.38005,-4.57014 3.1465,-4.57014 2.24401,0 2.55471,0.37452 2.28138,2.75 -0.36483,3.17069 -4.39148,4.52095 -5.42788,1.82014 z m 13.99516,-1.17747 c -0.73571,-2.93131 0.70533,-4.35274 4.43773,-4.37736 2.40147,-0.0158 5.17857,2.06385 5.17857,3.87808 0,1.46041 -3.39943,3.10661 -6.41521,3.10661 -1.91043,0 -2.71018,-0.6514 -3.20109,-2.60733 z m 27.97858,-1.08828 c 1.06512,-1.06512 3.72328,-1.25185 3.08347,-0.21661 -0.31008,0.50172 -1.28723,0.91222 -2.17143,0.91222 -0.88421,0 -1.29463,-0.31302 -0.91204,-0.69561 z"
         id="path196"
         inkscape:connector-curvature="0" />
    </g>
  </g>
</svg>
