<?xml version="1.0" encoding="UTF-8" standalone="no"?>
<!-- Created with Inkscape (http://www.inkscape.org/) -->

<svg
   xmlns:dc="http://purl.org/dc/elements/1.1/"
   xmlns:cc="http://creativecommons.org/ns#"
   xmlns:rdf="http://www.w3.org/1999/02/22-rdf-syntax-ns#"
   xmlns:svg="http://www.w3.org/2000/svg"
   xmlns="http://www.w3.org/2000/svg"
   xmlns:sodipodi="http://sodipodi.sourceforge.net/DTD/sodipodi-0.dtd"
   xmlns:inkscape="http://www.inkscape.org/namespaces/inkscape"
   width="75mm"
   height="120mm"
   viewBox="0 0 75 120"
   version="1.1"
   id="svg8"
   inkscape:version="0.92.4 (5da689c313, 2019-01-14)"
   sodipodi:docname="grenouille.svg">
  <defs
     id="defs2" />
  <sodipodi:namedview
     id="base"
     pagecolor="#ffffff"
     bordercolor="#666666"
     borderopacity="1.0"
     inkscape:pageopacity="0.0"
     inkscape:pageshadow="2"
     inkscape:zoom="3.959798"
     inkscape:cx="189.70794"
     inkscape:cy="198.78702"
     inkscape:document-units="mm"
     inkscape:current-layer="layer1"
     showgrid="false"
     units="mm"
     inkscape:window-width="1920"
     inkscape:window-height="1017"
     inkscape:window-x="-8"
     inkscape:window-y="-8"
     inkscape:window-maximized="1" />
  <metadata
     id="metadata5">
    <rdf:RDF>
      <cc:Work
         rdf:about="">
        <dc:format>image/svg+xml</dc:format>
        <dc:type
           rdf:resource="http://purl.org/dc/dcmitype/StillImage" />
        <dc:title></dc:title>
      </cc:Work>
    </rdf:RDF>
  </metadata>
  <g
     inkscape:label="Calque 1"
     inkscape:groupmode="layer"
     id="layer1"
     transform="translate(0,-176.99999)">
    <g
       id="g97"
       transform="translate(-24.821872,-2.3485826)">
      <path
         style="fill:#ffff00;stroke-width:0.26458332"
         d="m 65.418228,285.46943 c -0.627263,-0.36535 -0.583117,-0.77155 0.199081,-1.83176 l 0.662101,-0.89743 -0.254013,-0.25401 -0.254013,-0.25402 -0.341942,0.27079 c -0.188069,0.14892 -0.666809,0.32928 -1.063869,0.4008 l -0.721926,0.13002 -0.384633,-0.58703 -0.384635,-0.58702 -0.831054,-0.16621 -0.831053,-0.16622 -0.616601,0.73279 -0.616604,0.73279 -0.598876,0.0451 -0.598877,0.0451 -1.045223,-1.04522 c -0.57487,-0.57488 -1.206071,-1.04523 -1.402664,-1.04523 h -0.357445 l 0.152295,-0.39687 0.152296,-0.39688 h -0.667718 -0.667716 l -0.08908,-0.26724 -0.08908,-0.26724 -1.189741,-0.23293 -1.189739,-0.23294 0.79375,-0.0597 0.79375,-0.0597 -0.529167,-0.12729 c -0.291042,-0.07 -0.648229,-0.24184 -0.79375,-0.38185 l -0.264583,-0.25458 0.46302,0.17627 0.463021,0.17628 v -0.29289 -0.29289 h 0.677074 0.677072 l -0.163521,-0.26459 -0.163521,-0.26458 h 1.221855 1.221853 l -0.188785,0.30546 -0.188788,0.30547 0.305464,-0.18879 c 0.168005,-0.10383 0.305464,-0.3633 0.305464,-0.5766 v -0.3878 l -0.706041,-0.26844 c -0.992915,-0.37751 -1.328147,-0.92337 -1.787011,-2.90983 -0.220576,-0.95488 -0.641308,-2.50269 -0.934959,-3.43958 l -0.533912,-1.70343 -0.0034,-2.00063 -0.0034,-2.00063 0.539473,-0.57906 0.539474,-0.57906 h 0.465944 c 0.256268,0 0.626285,0.14883 0.822257,0.33073 l 0.356317,0.33073 -0.186722,-0.33073 -0.186722,-0.33073 h 0.239191 c 0.131554,0 0.455351,0.23886 0.719548,0.53079 l 0.480356,0.53079 -0.189153,0.18915 -0.189153,0.18916 -0.246145,-0.38922 -0.246144,-0.38921 0.0044,0.26458 c 0.0057,0.34748 0.778465,1.3666 0.79066,1.04276 0.0052,-0.13695 0.177022,0.0486 0.381923,0.41245 l 0.37255,0.66146 0.305416,-0.85989 c 0.167979,-0.47295 0.392935,-0.8599 0.499901,-0.8599 0.106966,0 0.174694,-0.26789 0.150506,-0.59531 -0.05602,-0.7583 0.884449,-4.45846 1.243245,-4.89143 l 0.271283,-0.32735 -0.153588,-0.40025 -0.153588,-0.40024 H 59.952106 60.224 l -0.177726,-0.28757 -0.177726,-0.28757 0.460463,-1.02112 0.460462,-1.02112 -0.150648,-0.39258 -0.150646,-0.39258 -1.251038,-0.18761 -1.251037,-0.1876 0.441875,-0.32311 c 0.549884,-0.40208 0.565127,-0.83096 0.03998,-1.12484 l -0.401897,-0.22492 -0.11208,-0.58198 -0.11208,-0.58199 h 0.778557 0.778558 v -0.38126 c 0,-0.20969 -0.111488,-0.45016 -0.247748,-0.53437 -0.13626,-0.0842 -0.229986,-0.3889 -0.208277,-0.67708 l 0.03947,-0.52395 h 0.721831 0.721831 l 0.163521,0.26458 c 0.08994,0.14552 0.26765,0.26458 0.394914,0.26458 h 0.231397 l 0.08372,-0.7276 0.08372,-0.72761 0.571534,0.90539 0.571535,0.90539 0.561586,-0.90539 c 0.308871,-0.49796 0.759303,-1.60256 1.000963,-2.45467 l 0.439378,-1.54928 0.345731,-0.13267 c 0.190151,-0.073 0.345731,-0.27706 0.345731,-0.45353 0,-0.38684 0.889725,-1.15921 2.130766,-1.84972 0.501568,-0.27907 1.193596,-0.78261 1.537841,-1.11898 l 0.625895,-0.61159 0.611799,0.0506 c 0.336489,0.0279 0.566952,0.1232 0.512135,0.21189 -0.05481,0.0887 0.158367,0.38219 0.473734,0.65221 l 0.573395,0.49096 -0.283557,0.0945 -0.283559,0.0945 0.909447,0.98307 c 0.500192,0.54069 1.147744,1.44476 1.439,2.00903 l 0.529558,1.02595 0.128791,1.48759 c 0.07084,0.81818 0.28371,1.90431 0.473057,2.41363 0.189346,0.50933 0.478406,1.4933 0.642358,2.18661 l 0.29809,1.26057 v 1.98058 c 0,1.08932 0.05393,1.98058 0.119843,1.98058 0.719666,0 2.790573,-1.4423 2.790573,-1.94352 0,-0.14508 0.158052,-0.45174 0.351229,-0.68148 0.193175,-0.22974 0.496642,-0.92716 0.674368,-1.54983 l 0.323138,-1.13211 0.251674,0.15554 0.251675,0.15554 v 0.79876 0.79875 l 1.105958,-0.94666 1.105958,-0.94666 h 0.618009 0.618005 l -0.863885,0.77188 -0.863889,0.77189 0.16156,0.16156 0.16156,0.16156 0.715378,-0.27199 c 0.393456,-0.14959 1.027734,-0.27198 1.409501,-0.27198 h 0.694124 l -0.512911,0.46718 c -0.282101,0.25694 -0.85639,0.73319 -1.276196,1.05833 l -0.763286,0.59115 1.160161,0.0348 1.160161,0.0348 -0.926042,0.19493 c -0.509323,0.1072 -0.777213,0.21059 -0.595312,0.22975 0.181901,0.0192 0.330729,0.15389 0.330729,0.29941 v 0.26459 h -0.387668 c -0.213219,0 -0.804984,0.3664 -1.315034,0.81423 l -0.927365,0.81424 -0.313346,-0.19366 -0.313349,-0.19366 0.188789,0.30547 0.188785,0.30546 H 80.537205 80.21291 l 0.161137,0.16114 0.161136,0.16113 -0.837464,0.76491 c -0.460606,0.4207 -0.976784,0.7649 -1.147064,0.7649 -0.170281,0 -0.372848,0.16482 -0.450149,0.36626 l -0.140547,0.36626 -1.342969,0.60695 -1.34297,0.60694 -0.01786,0.94503 c -0.0098,0.51976 -0.06946,1.36174 -0.132543,1.87106 l -0.114684,0.92604 -0.793501,1.52523 c -0.436425,0.83887 -0.793499,1.57463 -0.793499,1.63502 0,0.0604 0.506016,-0.16992 1.12448,-0.51179 0.618463,-0.34187 1.362604,-0.66091 1.653645,-0.70897 0.291042,-0.0481 0.597678,-0.17986 0.681416,-0.29287 0.08374,-0.113 0.531257,-0.23207 0.99449,-0.26458 l 0.84224,-0.0591 -0.109368,-0.28663 -0.109369,-0.28663 0.305504,-0.038 c 0.168026,-0.0209 0.909788,-0.10286 1.64836,-0.18213 l 1.342858,-0.14414 0.424225,0.46877 c 0.233325,0.25782 0.444619,0.58782 0.46954,0.73334 0.02492,0.14553 0.152469,0.23482 0.283438,0.19844 l 0.238125,-0.0661 -0.0058,0.46302 c -0.0032,0.25466 -0.230288,0.95739 -0.504651,1.56163 l -0.49884,1.09862 -1.718672,1.8118 c -0.945269,0.99649 -2.355287,2.51149 -3.133371,3.36666 l -1.414698,1.55485 0.79375,-0.14877 c 0.436563,-0.0818 1.34874,-0.22167 2.027061,-0.31078 l 1.23331,-0.162 0.171368,0.27727 0.171365,0.27728 H 79.743378 79.1545 l 0.198044,0.19844 c 0.108923,0.10914 0.634783,0.32131 1.168577,0.4715 l 0.970531,0.27306 v 0.36635 0.36634 l -0.396875,0.10834 -0.396875,0.10834 0.396875,-0.28068 0.396875,-0.28067 -0.463021,-0.004 -0.463007,-0.004 v 0.26962 0.26962 l -0.601533,-0.15097 -0.60153,-0.15097 -0.655241,0.26145 -0.655238,0.26146 0.330729,0.0168 c 0.181902,0.009 0.33073,0.14386 0.33073,0.29919 v 0.28241 l -0.593239,-0.18829 -0.593238,-0.18828 0.337304,0.40642 0.337302,0.40642 -1.133126,0.16484 c -0.623221,0.0907 -1.371253,0.20144 -1.662295,0.24618 -0.291042,0.0447 -0.767292,0.20982 -1.058333,0.36685 -0.291042,0.15704 -0.616932,0.30083 -0.724199,0.31955 -0.107268,0.0187 -0.762111,0.27865 -1.455209,0.57763 -0.693097,0.29898 -1.787493,0.72408 -2.431991,0.94466 -0.644499,0.22059 -1.624399,0.68677 -2.177555,1.03596 -1.103837,0.69682 -1.44753,0.75288 -2.140734,0.34912 z m 8.412546,-18.32325 0.01204,-0.30869 0.338368,0.0727 0.33837,0.0727 -0.170241,-0.27546 -0.170241,-0.27545 -0.256905,0.15878 -0.256905,0.15877 0.164296,-0.74977 0.164298,-0.74978 -0.284141,0.39688 -0.284142,0.39687 0.05161,0.85055 c 0.04718,0.77771 0.325403,0.97589 0.35361,0.25189 z m 0.75447,-13.36146 0.136269,-0.22049 h -0.385236 c -0.211879,0 -0.385236,0.0992 -0.385236,0.22049 0,0.12126 0.112035,0.22048 0.248967,0.22048 0.136933,0 0.31029,-0.0992 0.385236,-0.22048 z"
         id="path103"
         inkscape:connector-curvature="0" />
      <path
         style="fill:#ff00ff;stroke-width:0.26458332"
         d="m 65.55052,285.0092 -0.595312,-0.0846 v -0.25449 c 0,-0.13996 0.167849,-0.31889 0.372996,-0.39761 l 0.372999,-0.14314 0.163925,-0.65313 0.163925,-0.65314 0.322975,0.18039 0.322971,0.18038 -0.453247,-0.48107 -0.453247,-0.48107 -0.683681,0.31151 c -0.376025,0.17133 -0.869412,0.31151 -1.096414,0.31151 h -0.412735 l 0.15757,-0.41062 0.157568,-0.41062 -0.273143,0.16881 -0.273142,0.16882 -0.319138,-0.24898 c -0.175527,-0.13693 -0.68784,-0.37275 -1.138473,-0.52404 l -0.819333,-0.27507 -0.43357,0.73398 -0.43357,0.73398 -0.533035,0.13939 -0.533035,0.13939 v -0.25141 -0.25141 l -0.427638,0.0777 -0.427638,0.0777 -0.23881,-0.63185 -0.23881,-0.63185 0.357767,0.29693 0.357769,0.29692 v -0.36783 -0.36783 l -0.749654,0.0949 -0.749652,0.0949 v -0.25201 -0.25202 H 56.517939 56.01817 l 0.03675,-0.45664 0.03675,-0.45663 -0.330729,-0.0395 c -0.181901,-0.0217 -0.446056,-0.0543 -0.58701,-0.0725 l -0.256278,-0.0331 0.142026,-0.37011 0.142026,-0.37012 -0.26434,-0.16336 -0.264338,-0.16337 -0.16619,0.26889 -0.166188,0.2689 -0.844281,-0.0396 -0.844281,-0.0396 0.79375,-0.11606 c 0.436562,-0.0638 0.942578,-0.23917 1.124479,-0.38963 l 0.330729,-0.27357 0.408088,0.33868 0.408088,0.33869 0.306287,-0.30629 c 0.168458,-0.16846 0.522867,-0.30629 0.787578,-0.30629 h 0.48129 l -0.175919,-0.70092 -0.175921,-0.70092 0.303172,0.18737 0.303171,0.18737 v -0.45659 -0.45658 l -0.165053,0.16505 -0.165052,0.16505 -0.987698,-0.50388 -0.987697,-0.50389 -0.305179,-0.74155 c -0.167851,-0.40785 -0.333721,-1.24749 -0.368606,-1.86586 l -0.06342,-1.1243 -0.230834,-1.7e-4 -0.230834,-1.8e-4 0.300242,-0.36177 0.300243,-0.36177 -0.412178,-0.34208 -0.412179,-0.34207 0.141302,-0.36823 0.141302,-0.36823 -0.242504,0.14988 -0.242503,0.14987 -0.177624,-0.55964 -0.177624,-0.55964 0.290867,-0.29087 c 0.389618,-0.38962 0.368695,-0.72976 -0.03986,-0.64805 l -0.330729,0.0661 -0.01781,-1.64388 -0.01781,-1.64389 0.414685,-0.1752 c 0.228076,-0.0964 0.857951,-0.26277 1.399723,-0.3698 l 0.985036,-0.1946 -0.158274,0.2561 -0.158276,0.25609 0.628446,-0.17797 0.628446,-0.17797 -0.325554,0.22819 -0.325554,0.22819 0.457846,1.19979 0.457845,1.1998 0.63068,-0.59324 0.630679,-0.59325 -0.132718,-0.69427 c -0.073,-0.38185 -0.06564,-0.62719 0.01635,-0.5452 0.08199,0.082 0.287229,-0.36037 0.45608,-0.98303 0.16885,-0.62266 0.399717,-1.37023 0.513035,-1.66127 l 0.206037,-0.52917 -0.447067,0.52917 -0.447066,0.52916 0.280601,-0.58057 c 0.154332,-0.31932 0.400968,-0.65497 0.548079,-0.74589 l 0.267475,-0.16531 -0.180009,-0.29126 -0.180012,-0.29127 0.436407,0.16747 0.436406,0.16746 -0.326856,-0.52745 -0.326858,-0.52745 0.272304,-0.19036 0.272304,-0.19037 -0.03774,-0.59531 -0.03774,-0.59531 h 0.220154 0.220155 l -0.15144,-0.39464 -0.151439,-0.39465 0.432104,-0.16581 0.432101,-0.16582 -0.470796,-0.3852 c -0.258938,-0.21186 -0.321969,-0.30982 -0.140068,-0.21768 l 0.330729,0.16753 v -0.42563 c 0,-0.2341 0.196993,-0.80667 0.437761,-1.27239 l 0.437761,-0.84675 -0.404225,0.33529 -0.404225,0.3353 -0.428892,-0.16458 -0.42889,-0.16459 0.174175,-0.28182 0.174175,-0.28182 -0.439983,0.16884 -0.439984,0.16884 -0.595608,-0.2394 -0.595607,-0.23939 0.430626,-0.0168 c 0.236841,-0.009 0.584417,-0.20208 0.77239,-0.42857 l 0.341767,-0.41181 -0.243226,0.0711 c -0.133773,0.0391 -0.496242,-0.0694 -0.805487,-0.24127 l -0.56226,-0.31242 -0.140574,-0.53754 -0.140566,-0.53755 h 0.94537 0.945367 l -0.160483,-0.16048 -0.160486,-0.16049 0.314825,-0.3405 0.314825,-0.3405 0.436573,0.23156 0.436573,0.23156 0.149217,-0.38886 0.149217,-0.38886 -0.188915,0.053 c -0.103902,0.0292 -0.456806,-0.0955 -0.784227,-0.27706 l -0.595313,-0.33011 v 0.57087 0.57088 l -0.381148,-0.31633 -0.381148,-0.31632 0.153966,-0.40123 0.153964,-0.40122 0.557911,0.12196 c 0.306853,0.0671 0.757462,0.20616 1.001352,0.30907 l 0.443442,0.18711 0.08935,-0.7484 0.08935,-0.7484 0.481909,0.8903 0.481909,0.8903 0.274307,-0.27431 0.27431,-0.27431 0.430781,0.13658 0.430779,0.13657 -0.358048,-0.25589 -0.358044,-0.2559 0.301209,-0.56281 c 0.165664,-0.30955 0.426003,-0.56282 0.578533,-0.56282 h 0.277323 l -0.11997,-0.33073 c -0.06599,-0.1819 0.04236,-0.73033 0.240776,-1.21873 0.198411,-0.4884 0.300278,-0.98584 0.226372,-1.10543 l -0.134376,-0.21743 0.519506,-0.16488 0.519507,-0.16489 -0.147098,-0.38333 -0.147098,-0.38333 0.359037,-0.0314 c 0.197472,-0.0172 0.524031,-0.008 0.725692,0.0199 l 0.366651,0.0512 -0.151508,-0.39483 -0.151511,-0.39482 0.401809,-0.15419 c 0.60561,-0.2324 0.805511,-0.17777 0.366192,0.10006 -0.565661,0.35773 -0.244608,0.51737 0.485558,0.24143 l 0.625514,-0.23639 -0.307631,-0.37067 -0.307633,-0.37068 0.277431,-0.17146 0.277432,-0.17146 0.28417,0.17563 0.28417,0.17562 0.575726,-0.52253 0.575725,-0.52253 0.451382,0.01 0.451382,0.01 -0.121494,0.19659 c -0.06682,0.10812 0.108093,0.73219 0.388699,1.38682 0.280609,0.65464 0.459581,1.26071 0.397719,1.34682 -0.06186,0.0861 -0.03817,0.10211 0.05266,0.0355 0.09083,-0.0666 0.384521,0.14179 0.652655,0.46302 l 0.487519,0.58406 0.0088,-0.4169 0.0088,-0.4169 -0.661458,-0.62141 c -0.363802,-0.34177 -0.661459,-0.74199 -0.661459,-0.88937 v -0.26796 l 0.794423,0.7611 c 0.863703,0.82748 1.851411,2.65612 1.851411,3.42769 v 0.48313 l -0.84328,0.80588 -0.843283,0.80589 0.314116,0.1047 c 0.172762,0.0576 0.314113,0.28612 0.314113,0.50784 v 0.40313 l -0.357835,-0.13731 -0.357833,-0.13731 0.09948,0.90275 0.09948,0.90276 h -0.403108 -0.403106 v 0.26962 0.26963 l 0.595312,-0.13997 0.595313,-0.13996 0.309515,0.20357 c 0.170233,0.11197 0.348826,0.36475 0.396875,0.56175 l 0.08736,0.35817 -0.595313,0.10069 -0.595312,0.10068 -0.01058,-0.46136 -0.01058,-0.46136 -0.406987,0.75099 c -0.223843,0.41305 -0.338138,0.81985 -0.25399,0.904 0.08413,0.0841 0.152977,-0.007 0.152977,-0.20198 v -0.35497 l 0.490987,0.50931 0.490988,0.50931 -0.140047,0.37667 -0.140047,0.37666 0.456552,-0.17519 0.456552,-0.1752 -0.189439,0.30652 -0.189436,0.30651 0.462388,-0.17743 0.462386,-0.17744 -0.114083,0.33091 -0.114081,0.33091 -0.671181,-0.008 -0.671182,-0.008 0.127082,0.33117 0.127079,0.33117 0.569929,-0.0585 0.569928,-0.0586 0.08372,0.87079 0.08372,0.87079 -0.877472,-0.36511 c -0.48261,-0.20081 -1.0263,-0.31485 -1.208201,-0.25343 -0.410014,0.13845 -0.432729,0.76706 -0.03656,1.01191 l 0.294166,0.1818 0.218861,-0.35413 0.218863,-0.35412 0.876035,0.4356 0.876036,0.4356 -0.711161,0.0169 -0.71116,0.0169 0.03986,0.52917 c 0.03969,0.52689 0.456419,0.76846 0.456419,0.26458 v -0.26458 h 1.058333 1.058334 v -0.23455 -0.23456 l 0.859896,-0.1296 0.859895,-0.12959 0.192546,0.33013 0.192547,0.33013 0.830755,-0.0967 0.830757,-0.0967 -0.305125,0.36766 -0.305126,0.36765 -0.907333,0.17022 c -0.499033,0.0936 -0.989658,0.30342 -1.090279,0.46623 l -0.182946,0.29601 0.553453,-0.14473 0.55345,-0.14473 0.155609,0.40551 0.155607,0.4055 -0.174744,0.16057 -0.174741,0.16057 -0.118118,-0.33073 c -0.06496,-0.1819 -0.232476,-0.33073 -0.37225,-0.33073 h -0.254133 l 0.07774,0.43557 0.07774,0.43557 -0.319032,0.11175 -0.319034,0.11174 0.113522,-0.58946 0.113519,-0.58947 -0.455946,-0.35537 -0.455946,-0.35538 0.463021,0.16125 0.463021,0.16125 v -0.31047 -0.31046 l -0.727604,0.0837 -0.727604,0.0837 0.07437,0.3554 0.07437,0.3554 -1.056611,-0.14779 -1.056608,-0.14779 -0.126056,0.20396 -0.126052,0.20396 0.928449,0.5 0.928449,0.5 0.195448,-0.31624 0.195448,-0.31624 0.513564,0.38844 0.513564,0.38844 -0.339254,0.008 -0.339257,0.008 -0.239286,0.59531 -0.239287,0.59532 -0.01677,-0.40286 -0.01677,-0.40285 -0.898194,-0.48371 -0.898197,-0.48371 -0.557011,0.17679 c -0.564269,0.17907 -0.778566,0.67027 -0.292423,0.67027 0.145521,0 0.264583,0.16987 0.264583,0.37748 0,0.20761 0.148828,0.42865 0.330729,0.49119 l 0.330729,0.11372 -0.463386,-0.0696 -0.463385,-0.0697 0.148272,0.23991 c 0.08155,0.13195 0.349605,0.24173 0.595678,0.24396 l 0.447405,0.004 -0.364628,0.23095 -0.364625,0.23095 0.18296,0.29603 0.182956,0.29604 -0.413644,0.15873 -0.413644,0.15873 v 0.38418 0.38418 l 0.264583,-0.16352 0.264583,-0.16352 v 0.54478 0.54478 h -0.79375 -0.79375 v -0.31515 -0.31516 l -0.374999,0.51285 -0.374996,0.51284 0.30885,0.38226 0.308854,0.38227 -0.365054,-0.21991 -0.365053,-0.21991 0.127248,0.36756 0.127249,0.36756 0.568534,-0.021 0.568534,-0.021 -0.004,0.55018 -0.004,0.55017 -0.256487,-0.39687 -0.256479,-0.39687 -0.03539,0.52916 c -0.01947,0.29105 -0.02127,0.61847 -0.004,0.72761 0.01723,0.10914 -0.05796,0.18434 -0.167105,0.1671 -0.109141,-0.0172 -0.585391,-0.0172 -1.058334,0 l -0.859898,0.0313 v 0.39687 c 0,0.45973 0.438237,0.53737 0.582935,0.10328 l 0.09786,-0.2936 0.353457,0.42589 0.353454,0.42589 h -0.939969 -0.939969 l 0.246115,-0.85815 c 0.335867,-1.17111 0.311195,-1.44151 -0.147587,-1.61756 l -0.393703,-0.15108 0.06297,0.30355 0.06297,0.30354 -0.727605,0.36283 c -0.400182,0.19956 -0.727604,0.46486 -0.727604,0.58956 v 0.22674 l 0.377283,-0.0554 c 0.207505,-0.0304 0.620263,-0.34734 0.917239,-0.70419 1.066972,-1.28209 0.297976,0.59384 -0.872861,2.12931 l -0.50438,0.66145 0.174299,-0.52916 0.174303,-0.52917 -0.4162,0.52917 -0.416198,0.52916 -0.290695,-0.0811 -0.290698,-0.0811 0.366935,0.44213 0.366935,0.44213 -0.640236,0.51844 c -0.707242,0.57269 -0.902827,1.17686 -0.467982,1.44561 l 0.282697,0.17472 -0.154665,-0.59144 -0.154665,-0.59144 0.311422,0.12781 c 0.171284,0.0703 0.539317,0.21899 0.817849,0.33044 l 0.506425,0.20264 -0.209592,-0.33913 -0.209592,-0.33913 0.347612,-0.21483 0.347615,-0.21484 -0.314267,-0.37867 -0.314264,-0.37866 2.374561,0.0569 2.374564,0.0569 -0.140671,-0.22761 c -0.07737,-0.12518 -0.342003,-0.23139 -0.588076,-0.23602 l -0.447405,-0.008 0.458909,-0.34848 c 0.252399,-0.19166 0.430993,-0.39623 0.396875,-0.4546 -0.03412,-0.0584 0.150963,0.10223 0.411295,0.35689 0.527137,0.51566 0.842436,0.61497 0.574124,0.18083 l -0.174402,-0.28219 0.489516,-0.37085 c 0.269235,-0.20397 0.608579,-0.37282 0.754099,-0.37522 l 0.264584,-0.004 -0.396875,0.25648 -0.396875,0.25648 0.396875,0.008 0.396875,0.008 -0.355174,0.22511 -0.355174,0.22511 0.818195,0.58261 0.818194,0.5826 v -0.41489 -0.41489 h 0.548066 0.548066 l -0.354354,-0.35435 c -0.194894,-0.1949 -0.53082,-0.42362 -0.746503,-0.50828 l -0.39215,-0.15393 0.430626,-0.0209 c 0.236841,-0.0115 0.570587,-0.18954 0.741653,-0.39566 l 0.311031,-0.37477 -0.477073,-0.11276 -0.47707,-0.11275 0.79375,-0.3325 c 0.436563,-0.18287 0.972344,-0.36625 1.190625,-0.40752 l 0.396875,-0.075 -0.06615,-0.29558 c -0.03638,-0.16257 0.02315,-0.27029 0.132292,-0.23937 0.10914,0.0309 0.436562,-0.0743 0.727604,-0.23386 0.291042,-0.15954 1.018955,-0.37115 1.617583,-0.47025 l 1.088416,-0.18018 0.414039,0.41404 c 0.227722,0.22772 0.615717,0.41404 0.862211,0.41404 h 0.44817 l -0.363128,0.44766 -0.363124,0.44767 0.317455,-0.1905 0.317452,-0.19049 0.279172,0.52164 0.279173,0.52164 -0.515218,-0.0992 -0.51522,-0.0992 0.144756,0.37722 0.144753,0.37722 0.263255,-0.1627 0.263258,-0.1627 -0.345554,0.62724 -0.345551,0.62725 -0.09775,-0.46626 -0.09774,-0.46627 -0.233005,0.14401 -0.233003,0.144 0.15666,0.40825 0.156659,0.40825 -0.366651,-0.0512 c -0.20166,-0.0282 -0.59323,-0.0371 -0.870159,-0.0199 l -0.503505,0.0314 0.610135,0.52917 c 0.335573,0.29104 0.496667,0.52917 0.357983,0.52917 -0.138684,0 -0.369511,-0.11736 -0.512953,-0.26081 l -0.260805,-0.2608 v 0.50596 0.50596 l 0.274035,-0.15351 c 0.150717,-0.0844 0.03591,0.0877 -0.255135,0.38246 l -0.529167,0.53598 -0.226684,-0.13153 -0.226688,-0.13153 0.358979,-0.25646 0.358976,-0.25647 -0.484661,0.15725 c -0.266562,0.0865 -0.564218,0.15907 -0.661458,0.1613 -0.09724,0.002 -0.01413,0.10711 0.184711,0.23307 l 0.361511,0.22903 -0.270386,0.48315 -0.270386,0.48315 -1.149458,-0.0132 -1.149456,-0.0132 0.992187,0.10591 0.992188,0.10591 v 0.20837 c 0,0.11459 -0.230621,0.41707 -0.512495,0.67216 l -0.512493,0.4638 -0.322138,-0.19909 -0.322136,-0.19909 0.200893,0.32505 0.200893,0.32505 -0.623033,0.68424 -0.623033,0.68424 0.529167,-0.19319 c 0.291042,-0.10625 0.837099,-0.25537 1.213461,-0.33136 l 0.684295,-0.13817 0.402164,0.40216 0.402164,0.40216 1.030208,0.18617 c 0.566616,0.10239 1.141367,0.25059 1.277228,0.32934 l 0.247023,0.14319 -0.511606,0.20034 c -0.281382,0.11019 -0.660432,0.20872 -0.842333,0.21894 l -0.330729,0.0186 v -0.36685 -0.36684 l -0.79375,-0.1165 -0.79375,-0.11649 v 0.21875 c 0,0.12032 0.231098,0.21876 0.513551,0.21876 0.282453,0 0.587137,0.11907 0.677074,0.26459 l 0.16352,0.26458 h -0.787315 -0.787315 l -0.102166,0.3065 -0.102167,0.30649 -0.597447,0.0912 -0.597451,0.0912 0.164016,-0.26538 0.164012,-0.26539 H 76.4478 76.002914 l 0.329377,0.39688 0.329377,0.39687 h 0.512384 0.512384 l -0.171344,0.27725 -0.171347,0.27724 -0.439581,-0.0527 c -0.241771,-0.029 -0.737238,0.0735 -1.10104,0.22763 l -0.661458,0.28031 -0.330729,-0.42315 -0.33073,-0.42315 v 0.40726 0.40726 l -1.124479,0.47835 c -0.618463,0.26309 -1.779323,0.7817 -2.579687,1.15247 l -1.455208,0.67413 -1.129335,0.0122 -1.129331,0.0122 0.452297,0.33073 c 0.248764,0.1819 0.370012,0.34561 0.269438,0.3638 -0.46006,0.0832 -1.693743,0.0913 -2.233382,0.0147 z m 2.844271,-1.49819 c 0,-0.039 -0.310367,-0.0709 -0.689705,-0.0709 h -0.689708 l 0.334983,0.20703 0.334984,0.20703 0.354724,-0.13612 c 0.195096,-0.0749 0.354722,-0.16803 0.354722,-0.20703 z M 67.2648,281.89118 c -0.08792,-0.0879 -0.316124,-0.0973 -0.507118,-0.0209 l -0.347266,0.13896 0.507119,0.0209 0.507116,0.0209 -0.159851,-0.15985 z m 6.421657,-0.10473 c 0,-0.14552 -0.126089,-0.26458 -0.280199,-0.26458 h -0.280196 l 0.16352,0.26458 c 0.08994,0.14552 0.216027,0.26459 0.280199,0.26459 0.06417,0 0.116676,-0.11907 0.116676,-0.26459 z m -9.877776,-0.38523 v -0.38524 l -0.220488,0.13627 c -0.121267,0.075 -0.220485,0.2483 -0.220485,0.38524 0,0.13693 0.09922,0.24896 0.220485,0.24896 0.121269,0 0.220488,-0.17335 0.220488,-0.38523 z m -3.32975,-0.6731 c 0.133618,0 0.242943,-0.1871 0.242943,-0.41577 v -0.41578 l -0.418205,0.41821 -0.418206,0.4182 -0.243253,-0.15034 -0.243252,-0.15033 v 0.3085 0.30851 l 0.418515,-0.1606 c 0.230182,-0.0883 0.527839,-0.1606 0.661458,-0.1606 z m 2.54035,-0.31419 -0.138965,-0.34727 -0.02088,0.50712 -0.02087,0.50712 0.159853,-0.15985 c 0.08792,-0.0879 0.09732,-0.31613 0.02088,-0.50712 z m -3.620323,-0.31896 c 0,-0.0572 -0.178594,-0.17252 -0.396875,-0.25628 l -0.396875,-0.1523 v 0.25628 0.25628 h 0.396875 c 0.218281,0 0.396875,-0.0468 0.396875,-0.10398 z m 16.262064,-0.44106 -0.118825,-0.19226 0.725776,-0.20392 c 0.399177,-0.11215 0.803778,-0.18815 0.899115,-0.16888 0.09534,0.0193 0.237501,-0.13216 0.315918,-0.33651 l 0.142576,-0.37155 -1.071695,0.37812 c -0.589431,0.20796 -1.165601,0.32008 -1.280377,0.24914 l -0.208687,-0.12897 -0.141785,0.36948 c -0.16946,0.44161 -0.04636,0.59762 0.471572,0.59762 h 0.385236 z m -13.317897,-1.50548 0.363124,-0.46302 -0.529166,0.38815 c -0.291042,0.21349 -0.578776,0.42185 -0.639411,0.46302 -0.06063,0.0412 0.01408,0.0749 0.166042,0.0749 0.151956,0 0.43969,-0.20836 0.639411,-0.46302 z m 10.549582,-0.22633 c 0,-0.0542 -0.289073,-0.0745 -0.642384,-0.0453 l -0.642382,0.0532 0.11348,0.18362 0.11348,0.18361 0.528904,-0.13831 c 0.290897,-0.0761 0.528902,-0.18262 0.528902,-0.23678 z m 3.284133,-0.26441 0.416994,-0.16002 -0.146386,-0.23686 c -0.08051,-0.13027 -0.407252,-0.22305 -0.726086,-0.20617 l -0.579696,0.0307 0.501425,0.12839 0.501422,0.1284 -0.369131,0.23373 c -0.426677,0.27018 -0.20638,0.31508 0.401458,0.0818 z m -14.311029,-0.79229 -0.155869,-0.40618 -0.259312,0.25931 -0.259316,0.25932 0.180438,0.29195 0.180438,0.29195 0.234743,-0.14508 0.234747,-0.14508 z m 12.817578,0.15855 c -0.181758,-0.29104 -0.421902,-0.52916 -0.533651,-0.52916 h -0.203182 l 0.33047,0.52916 c 0.181758,0.29104 0.421902,0.52917 0.533651,0.52917 h 0.203182 z m -3.24589,-0.52916 c -0.08994,-0.14552 -0.364855,-0.25622 -0.610928,-0.24599 l -0.447405,0.0186 0.529167,0.22739 c 0.708001,0.30424 0.717195,0.30424 0.529166,0 z m 1.984375,-0.26459 c -0.209852,-0.12969 -0.441081,-0.17628 -0.513842,-0.10352 -0.07276,0.0728 0.03941,0.23841 0.249259,0.36811 0.209851,0.12969 0.441081,0.17628 0.513842,0.10351 0.07276,-0.0728 -0.03941,-0.2384 -0.249259,-0.3681 z m 1.613509,-0.94684 c 0.203975,0.10579 0.13975,0.005 -0.142725,-0.22416 -0.588266,-0.47706 -1.101539,-0.53531 -1.338492,-0.15191 l -0.163521,0.26458 h 0.404186 0.404185 l -0.159583,0.46302 -0.159584,0.46302 0.392332,-0.50344 0.392333,-0.50344 z m -14.842675,0.31369 c 0,-0.0572 -0.184777,-0.17489 -0.410618,-0.26155 l -0.410617,-0.15757 0.16165,0.26155 c 0.155379,0.25141 0.659585,0.37186 0.659585,0.15757 z m 9.921875,-0.1606 0.529166,-0.22739 -0.396875,-0.0524 c -0.218281,-0.0288 -0.654603,-0.08 -0.969605,-0.11368 l -0.57273,-0.0613 0.138017,0.35967 c 0.154919,0.40371 0.494699,0.42911 1.272027,0.0951 z m -6.389688,-0.66947 -0.135363,-0.35275 -0.494297,0.0372 -0.4943,0.0372 0.248798,0.29978 0.248801,0.29979 -0.156168,0.15616 -0.156167,0.15617 0.53703,-0.14044 0.53703,-0.14043 z m 8.506354,0.40489 c -0.08994,-0.14552 -0.364855,-0.25621 -0.610928,-0.24599 l -0.447405,0.0186 0.529166,0.2274 c 0.708002,0.30423 0.717196,0.30423 0.529167,0 z m 0.926042,0 c 0,-0.14552 -0.119063,-0.26458 -0.264584,-0.26458 -0.14552,0 -0.264583,0.11906 -0.264583,0.26458 0,0.14552 0.119063,0.26458 0.264583,0.26458 0.145521,0 0.264584,-0.11906 0.264584,-0.26458 z m -4.955903,-0.17355 c -0.17913,-0.0725 -0.536318,-0.0769 -0.79375,-0.01 l -0.468055,0.12199 0.79375,0.01 0.79375,0.01 -0.325695,-0.13177 z m 9.321528,-0.091 0.16352,-0.26459 -0.346342,-0.003 c -0.19049,-0.002 -0.822595,-0.0649 -1.404678,-0.14066 l -1.058334,-0.13775 0.926042,0.37368 c 1.164736,0.47 1.514136,0.50498 1.719792,0.17223 z m -15.911028,-0.39536 -0.151712,-0.39535 -0.241176,0.14905 -0.241173,0.14906 0.152223,0.2463 c 0.08372,0.13546 0.260519,0.2463 0.392885,0.2463 H 61.7636 Z m 6.877491,-1.1637 c -0.123113,-0.1563 -0.888338,0.53085 -0.888338,0.7977 v 0.23219 l 0.485068,-0.46302 c 0.26679,-0.25466 0.44826,-0.50976 0.40327,-0.56687 z m 2.94812,0.76531 c -0.08994,-0.14552 -0.275558,-0.26459 -0.412491,-0.26459 -0.136932,0 -0.248967,0.11907 -0.248967,0.26459 v 0.26458 h 0.412491 0.412488 z m 6.217708,-1.22761 v -0.43385 l -0.463021,-0.34674 -0.46302,-0.34674 0.595312,0.15 0.595313,0.14999 v 0.6306 0.6306 h 0.425182 0.425183 l -0.15757,-0.41062 -0.157567,-0.41062 0.208039,0.12858 c 0.114422,0.0707 0.38095,0.0192 0.592283,-0.1145 l 0.384241,-0.24307 -0.579697,-0.004 c -0.318833,-0.002 -0.646419,-0.11201 -0.727969,-0.24396 l -0.148272,-0.23991 0.595677,0.11055 0.595678,0.11055 -0.332378,-0.15782 -0.332377,-0.15782 0.132421,-0.21427 0.132419,-0.21426 -0.395354,-0.15171 -0.395356,-0.15171 v 0.24109 0.24108 l -0.485571,-0.0935 c -0.267065,-0.0514 -0.595879,-0.0148 -0.730697,0.0813 l -0.245129,0.17485 0.0031,0.8599 0.0031,0.85989 h 0.463021 0.463021 v -0.43385 z m -13.493749,-0.067 c 0,-0.12996 -0.195435,-0.31127 -0.434298,-0.40293 l -0.4343,-0.16666 0.334404,0.40293 c 0.381034,0.45912 0.534194,0.5069 0.534194,0.16666 z m 3.704166,-1.89601 c 0,-0.13693 -0.174858,-0.24897 -0.388572,-0.24897 h -0.38857 l 0.151712,0.39536 0.151712,0.39535 0.236858,-0.14638 c 0.130273,-0.0805 0.23686,-0.25843 0.23686,-0.39536 z m -5.820833,-0.51355 c 0,-0.14552 -0.12609,-0.26458 -0.280199,-0.26458 h -0.280196 l 0.16352,0.26458 c 0.08994,0.14552 0.216027,0.26458 0.280199,0.26458 0.06417,0 0.116676,-0.11906 0.116676,-0.26458 z m 16.139583,-0.0156 v -0.2802 l -0.264583,0.16352 -0.264584,0.16352 v -0.29581 -0.29581 l -0.264583,0.16352 c -0.145521,0.0899 -0.264583,0.27556 -0.264583,0.41249 v 0.24897 h 0.529166 0.529167 z m -18.752584,-0.58411 -0.328766,-0.32632 0.180652,0.47444 c 0.09936,0.26093 0.247304,0.40778 0.328766,0.32631 0.08146,-0.0815 1.69e-4,-0.29495 -0.180652,-0.47443 z m -4.166947,-1.30588 c -0.07175,-0.11608 -0.361547,-0.21107 -0.644001,-0.21107 h -0.513551 v 0.44979 0.4498 l 0.3175,-0.3175 c 0.174625,-0.17463 0.409014,-0.3175 0.520864,-0.3175 h 0.203362 l -0.148947,0.46302 -0.148945,0.46302 0.272082,-0.38424 c 0.149648,-0.21134 0.213383,-0.47923 0.141636,-0.59532 z m 5.852033,0.58571 0.16165,-0.26155 -0.410617,0.15757 c -0.45837,0.17589 -0.542235,0.36554 -0.16165,0.36554 0.136932,0 0.321712,-0.1177 0.410617,-0.26156 z m 6.660555,-0.3636 v -0.36057 l -0.526444,0.13767 -0.526442,0.13766 0.18928,-0.30626 0.189278,-0.30626 h -0.577178 -0.577178 l 0.294685,0.35507 0.294685,0.35508 -0.174093,0.17409 -0.174093,0.17409 h 0.79375 0.79375 z m 2.325851,-0.41489 0.152223,-0.2463 -0.268899,-0.16619 -0.268898,-0.16619 -0.268899,0.16619 -0.268899,0.16619 0.152223,0.2463 c 0.08372,0.13546 0.25723,0.2463 0.385575,0.2463 0.128344,0 0.301852,-0.11084 0.385574,-0.2463 z m -0.696291,-0.77793 0.350743,-0.22237 0.04693,-1.07524 c 0.0258,-0.59138 0.135864,-1.16418 0.24457,-1.27288 0.108705,-0.1087 0.197644,-0.37028 0.197644,-0.58128 v -0.38364 l -0.491588,0.12856 -0.491585,0.12855 -0.500602,-0.27684 -0.5006,-0.27684 0.328433,0.40193 0.328435,0.40192 -0.196144,0.20697 -0.19614,0.20696 0.661458,-0.1825 0.661458,-0.18249 -0.344696,0.24002 c -0.189582,0.13201 -0.324311,0.34817 -0.299398,0.48035 0.02492,0.13219 0.0312,0.39619 0.01397,0.58668 l -0.03133,0.34635 -0.201811,-0.12473 -0.201811,-0.12472 -0.01532,0.90285 c -0.01609,0.94849 0.06574,1.03482 0.637394,0.67239 z m -2.103606,-0.19947 c 0.454752,-0.091 0.826823,-0.24064 0.826823,-0.33264 v -0.16727 l -1.190625,0.0947 -1.190625,0.0947 v 0.23794 c 0,0.28003 0.419277,0.29961 1.554427,0.0726 z m 4.857519,-1.00321 c -0.09865,-0.15765 -0.201938,-0.43546 -0.229534,-0.61736 l -0.05017,-0.33073 h 0.256787 0.256786 l -0.163521,-0.26459 c -0.08994,-0.14552 -0.268621,-0.26458 -0.397073,-0.26458 h -0.233553 l 0.04988,0.88194 0.04988,0.88195 h 0.319939 0.31994 z m -6.147363,-0.71474 v -0.26458 l -0.264583,0.16352 c -0.145521,0.0899 -0.264584,0.28258 -0.264584,0.4281 v 0.26459 l 0.264584,-0.16353 c 0.14552,-0.0899 0.264583,-0.28258 0.264583,-0.4281 z m 4.7625,0.2802 v -0.2802 l 0.264583,0.16352 0.264583,0.16352 v -0.24935 -0.24936 l -0.63183,-0.12078 -0.63183,-0.12078 0.08242,0.42067 c 0.04533,0.23137 0.09153,0.45043 0.102664,0.48681 0.06385,0.20863 0.54941,0.0195 0.54941,-0.21405 z m -2.38125,-0.67415 c 0,-0.0572 -0.245152,-0.10399 -0.544782,-0.10399 h -0.54478 l 0.156379,0.25303 0.156379,0.25303 0.388404,-0.14904 c 0.213619,-0.082 0.3884,-0.19584 0.3884,-0.25303 z m -1.5875,-0.10399 c 0,-0.14552 -0.0525,-0.26458 -0.116676,-0.26458 -0.06417,0 -0.190262,0.11906 -0.280199,0.26458 l -0.16352,0.26459 h 0.280196 c 0.154109,0 0.280199,-0.11907 0.280199,-0.26459 z m -2.71749,-0.42443 c -0.08792,-0.0879 -0.316125,-0.0973 -0.507119,-0.0209 l -0.347266,0.13897 0.507119,0.0209 0.507116,0.0209 -0.15985,-0.15986 z m 1.533866,-0.31822 c -0.08146,-0.0815 -0.294955,-1.7e-4 -0.474432,0.18065 l -0.326319,0.32877 0.474432,-0.18065 c 0.260938,-0.0994 0.407781,-0.24731 0.326319,-0.32877 z m 5.416957,0.10009 c 0,-0.21502 -0.832109,-0.94494 -1.077232,-0.94494 h -0.245684 l 0.46302,0.50712 c 0.434795,0.47621 0.859896,0.69265 0.859896,0.43782 z m 0.968918,-0.21733 c 0.113519,-0.1819 0.242506,-0.56298 0.286639,-0.84683 l 0.08024,-0.51609 -0.490982,0.51609 c -0.499584,0.52514 -0.658686,1.17756 -0.287166,1.17756 0.112678,0 0.297752,-0.14883 0.411269,-0.33073 z m -6.650458,-0.41192 c -0.08146,-0.0815 -0.294955,-1.7e-4 -0.474433,0.18065 l -0.326318,0.32876 0.474432,-0.18065 c 0.260937,-0.0994 0.407781,-0.2473 0.326319,-0.32876 z m 1.448207,-0.0511 c 0.291042,-0.29105 0.43987,-0.52538 0.330729,-0.52076 -0.277103,0.0118 -1.124479,0.67539 -1.124479,0.88065 0,0.29714 0.250121,0.18374 0.79375,-0.35989 z m 2.550152,-0.39688 -0.152294,-0.39687 h 0.24697 c 0.135834,0 0.372978,-0.23545 0.526986,-0.52321 l 0.280014,-0.52322 -0.448932,0.17227 -0.448931,0.17228 0.208243,-0.50896 c 0.114535,-0.27993 0.272809,-0.73512 0.351723,-1.01154 l 0.143479,-0.50259 -0.488649,-0.35731 c -0.703738,-0.51458 -0.844227,-0.44843 -0.786355,0.3703 0.02829,0.40018 0.07007,1.35268 0.09285,2.11666 l 0.04141,1.38907 h 0.292891 0.292891 z m 1.89302,-0.64992 -0.114803,-0.78221 0.547793,0.0546 0.547796,0.0546 -0.06615,-0.33072 -0.06615,-0.33073 h 0.2802 0.280196 l -0.163521,-0.26459 -0.16352,-0.26458 h 0.295812 0.295812 l -0.194461,-0.31465 -0.194463,-0.31464 -0.266565,0.59739 -0.266565,0.5974 -0.480629,-0.12569 -0.480629,-0.12569 v 0.25543 0.25543 l -0.268899,-0.16619 -0.268898,-0.16619 0.150349,-0.24327 0.15035,-0.24327 -0.42204,0.16195 -0.422039,0.16195 0.404683,0.44718 0.404685,0.44717 -0.302673,0.30267 -0.302675,0.30268 0.338685,0.40809 c 0.186275,0.22444 0.456679,0.40808 0.600898,0.40808 h 0.262218 z m -10.793172,-0.27612 c 0,-0.14552 -0.0525,-0.26458 -0.116676,-0.26458 -0.06417,0 -0.190262,0.11906 -0.280199,0.26458 l -0.16352,0.26458 h 0.280196 c 0.154109,0 0.280199,-0.11906 0.280199,-0.26458 z m 2.778125,0 0.16352,-0.26458 h -0.264583 c -0.145521,0 -0.338166,0.11906 -0.428104,0.26458 l -0.16352,0.26458 h 0.264583 c 0.145521,0 0.338167,-0.11906 0.428104,-0.26458 z m -3.042708,-0.79375 c 0,-0.14552 -0.0525,-0.26458 -0.116676,-0.26458 -0.06417,0 -0.190262,0.11906 -0.280199,0.26458 l -0.163521,0.26458 h 0.280197 c 0.154109,0 0.280199,-0.11906 0.280199,-0.26458 z m 2.38125,-0.11668 c 0,-0.0642 -0.119063,-0.19026 -0.264584,-0.2802 l -0.264583,-0.16352 v 0.2802 c 0,0.15411 0.119063,0.2802 0.264583,0.2802 0.145521,0 0.264584,-0.0525 0.264584,-0.11668 z m 3.175,-1.10225 c 0,-0.0572 -0.178594,-0.10399 -0.396875,-0.10399 h -0.396875 v 0.25628 0.25628 l 0.396875,-0.15229 c 0.218281,-0.0838 0.396875,-0.19909 0.396875,-0.25628 z m 2.645833,-0.50003 c 0,-0.0393 -0.233746,-0.13253 -0.519438,-0.20724 l -0.519438,-0.13584 -0.267898,0.3228 -0.267896,0.32279 0.787336,-0.11555 c 0.433033,-0.0636 0.787334,-0.14769 0.787334,-0.18696 z m 8.130426,-0.29298 c -0.08792,-0.0879 -0.316124,-0.0973 -0.507119,-0.0209 l -0.347266,0.13896 0.507119,0.0209 0.507117,0.0209 -0.159851,-0.15985 z m -7.601259,-1.95681 c 0,-0.14552 -0.12609,-0.26458 -0.280199,-0.26458 h -0.280197 l 0.163521,0.26458 c 0.08994,0.14552 0.216027,0.26458 0.280199,0.26458 0.06417,0 0.116676,-0.11906 0.116676,-0.26458 z m -4.306081,-2.64583 c -0.04388,-0.58253 -0.456419,-0.74196 -0.456419,-0.17639 0,0.31566 0.2346,0.70555 0.424529,0.70555 0.03946,0 0.05381,-0.23812 0.03189,-0.52916 z m -0.809196,-0.38524 v -0.38524 l -0.224803,0.13894 -0.224801,0.13893 0.152223,0.24631 c 0.213947,0.34617 0.297381,0.30719 0.297381,-0.13894 z m -3.423047,-0.83295 c -0.08792,-0.0879 -0.316124,-0.0973 -0.507119,-0.0209 l -0.347266,0.13897 0.507119,0.0209 0.507117,0.0209 -0.159851,-0.15985 z m 12.628065,-0.61561 0.152222,-0.24631 -0.268898,-0.16618 -0.268899,-0.16619 v 0.41249 c 0,0.46474 0.158766,0.53317 0.385575,0.16619 z m -8.323075,-0.54745 c 0,-0.14552 -0.112035,-0.26459 -0.248967,-0.26459 -0.136933,0 -0.322554,0.11907 -0.412491,0.26459 l -0.16352,0.26458 h 0.412488 0.41249 z m -4.728749,-0.46302 0.363124,-0.46303 -0.46302,0.36313 c -0.254662,0.19972 -0.463021,0.40808 -0.463021,0.46302 0,0.21776 0.217273,0.0776 0.562917,-0.36312 z m 2.236036,-0.80005 -0.47684,-0.45673 0.350282,0.58328 c 0.192656,0.32081 0.407233,0.52633 0.47684,0.45673 0.06961,-0.0696 -0.08802,-0.33209 -0.350282,-0.58328 z m 2.492086,0.33664 0.218758,0.1352 -0.06604,-0.44994 c -0.03632,-0.24747 -0.209431,-0.49774 -0.384691,-0.55616 l -0.318656,-0.10622 0.290748,-0.35033 0.290748,-0.35032 -0.544287,0.14233 -0.544288,0.14233 v 0.36602 0.36602 l 0.595313,0.0209 0.595312,0.0209 -0.330729,0.13346 -0.330729,0.13345 0.02088,0.44097 0.02088,0.44097 0.134003,-0.33237 0.134001,-0.33238 0.21876,0.1352 z m -3.598502,-0.0878 0.136268,-0.22049 h -0.373597 -0.373597 l 0.136269,0.22049 c 0.07494,0.12127 0.181744,0.22049 0.237328,0.22049 0.05558,0 0.162383,-0.0992 0.237329,-0.22049 z m 4.988192,-0.74849 c -0.181901,-0.0734 -0.479557,-0.0734 -0.661459,0 l -0.330729,0.13345 h 0.661459 0.661458 z m -4.266647,-0.68908 -0.328766,-0.32632 0.180652,0.47443 c 0.09936,0.26094 0.247304,0.40778 0.328766,0.32632 0.08146,-0.0815 1.69e-4,-0.29495 -0.180652,-0.47443 z m 2.453455,-0.6791 0.136268,-0.22048 h -0.373597 -0.373597 l 0.136268,0.22048 c 0.07495,0.12127 0.181745,0.22049 0.237329,0.22049 0.05558,0 0.162383,-0.0992 0.237329,-0.22049 z m 7.458977,-1.03494 -0.155681,-0.15568 -0.164978,0.16498 -0.164979,0.16497 0.205925,0.47444 0.205926,0.47443 0.114734,-0.48373 c 0.0631,-0.26605 0.04468,-0.55379 -0.04095,-0.63941 z m -7.233285,0.28645 c -0.181901,-0.0734 -0.479557,-0.0734 -0.661458,0 l -0.33073,0.13345 h 0.661459 0.661458 z m 0.823285,-0.22165 0.152294,-0.39687 h -0.256278 -0.25628 v 0.39687 c 0,0.21829 0.04679,0.39688 0.103984,0.39688 0.05719,0 0.172516,-0.17859 0.25628,-0.39688 z m 7.080576,0.0392 -0.296871,-0.3577 0.290356,-0.83292 c 0.159698,-0.45811 0.397772,-0.83292 0.529059,-0.83292 h 0.238699 v 0.52917 0.52916 h 0.264583 c 0.370938,0 0.32939,-0.60398 -0.08007,-1.16394 l -0.344652,-0.47134 -0.336153,0.40504 -0.336153,0.40504 -0.443675,-0.14152 -0.443677,-0.14153 0.379862,0.26938 0.379863,0.26938 -0.328906,0.3963 -0.328907,0.39631 0.343419,0.5499 c 0.188878,0.30245 0.448418,0.5499 0.576752,0.5499 h 0.233336 z m -6.476402,-1.76542 -0.160044,-0.80021 0.523846,0.28036 c 0.288112,0.15419 0.532691,0.24639 0.543504,0.20489 0.01082,-0.0415 0.0696,-0.34334 0.130633,-0.67076 l 0.110969,-0.59532 h -0.247309 c -0.13602,0 -0.324466,0.12485 -0.418769,0.27743 l -0.171463,0.27744 -0.37332,-0.30983 -0.373319,-0.30983 v 0.31259 0.3126 l -0.264583,-0.16352 -0.264583,-0.16352 v 0.25815 c 0,0.14198 0.11562,0.29783 0.256931,0.34634 0.141314,0.0485 0.31106,0.38585 0.377214,0.74965 0.15376,0.84556 0.132548,0.79375 0.324969,0.79375 h 0.165365 z m 2.879021,-1.52994 c -0.08146,-0.0815 -0.294955,-1.7e-4 -0.474433,0.18065 l -0.326318,0.32877 0.474432,-0.18065 c 0.260938,-0.0994 0.407781,-0.24731 0.326319,-0.32877 z m 1.2921,-1.44016 c -0.09266,-1.26461 -0.09065,-1.25677 -0.321331,-1.25677 h -0.212854 l -0.06245,1.05833 -0.06245,1.05834 h 0.361042 0.36104 z m -15.277919,34.28559 c -0.342019,-0.34202 -0.168175,-0.50543 0.599966,-0.56396 l 0.776356,-0.0591 0.163428,0.26442 0.163428,0.26443 -0.454022,-0.17422 -0.45402,-0.17422 0.19131,0.30954 0.191309,0.30955 h -0.500684 c -0.275376,0 -0.580059,-0.0794 -0.677071,-0.17639 z m 24.644833,-0.004 c 0.190995,-0.0764 0.419198,-0.067 0.507119,0.0209 l 0.159851,0.15985 -0.507116,-0.0209 -0.507119,-0.0209 0.347265,-0.13897 z m -6.728293,-7.60992 -0.146711,-0.38232 0.882621,-1.2656 c 0.485438,-0.69608 0.963546,-1.44677 1.062458,-1.6682 l 0.179842,-0.40259 0.0186,0.4474 c 0.01024,0.24607 -0.08813,0.51337 -0.218582,0.59399 -0.289346,0.17882 -1.397627,2.26589 -1.203246,2.26589 0.07622,0 0.639858,-0.25123 1.252524,-0.55828 1.205796,-0.60432 1.122119,-0.46713 -0.389763,0.63902 -1.124357,0.82262 -1.238861,0.84896 -1.437743,0.33068 z m 9.436772,-2.64468 -0.316344,-0.38116 -0.708242,-0.10836 -0.708242,-0.10835 0.686597,-0.0396 0.686596,-0.0396 0.478891,0.52917 c 0.26339,0.29104 0.415483,0.52916 0.337986,0.52916 -0.0775,0 -0.283255,-0.17152 -0.457242,-0.38117 z m -10.162884,-0.28028 -0.152294,-0.39688 h 0.256278 0.256281 v 0.39688 c 0,0.21828 -0.04679,0.39687 -0.103984,0.39687 -0.05719,0 -0.172516,-0.17859 -0.256281,-0.39687 z m 3.047873,-3.04271 v -0.66146 l 0.133453,0.33073 c 0.0734,0.1819 0.0734,0.47956 0,0.66146 l -0.133453,0.33073 z m -2.02615,-1.58751 c 0.08994,-0.14552 0.216027,-0.26459 0.280199,-0.26459 0.06417,0 0.116676,0.11907 0.116676,0.26459 0,0.14552 -0.12609,0.26458 -0.280199,0.26458 h -0.280196 z m 6.842556,-3.57188 -0.152297,-0.39687 H 79.314296 78.91333 l 0.334404,-0.40293 0.334405,-0.40294 -0.500447,0.17942 c -0.275243,0.0987 -0.649271,0.29458 -0.831172,0.43533 l -0.330729,0.25591 v -0.28223 c 0,-0.15522 0.26974,-0.59582 0.599424,-0.97909 l 0.599427,-0.69688 1.092398,0.34094 1.092396,0.34093 -0.567344,0.28354 -0.567343,0.28354 0.01474,0.7191 c 0.01651,0.80539 -0.08917,0.91317 -0.315928,0.32223 z m -4.81004,-1.5875 -0.301379,-0.66146 h 0.239509 c 0.131733,0 0.290335,-0.20836 0.352451,-0.46302 l 0.112938,-0.46302 -0.0016,0.86363 c -7.94e-4,0.47499 0.06619,0.93142 0.149056,1.01429 0.08287,0.0829 0.686165,-0.0862 1.340659,-0.37571 l 1.189985,-0.52639 0.26112,-0.48791 c 0.143619,-0.26835 0.243097,-0.56728 0.221067,-0.6643 -0.02204,-0.097 0.06833,-0.2756 0.200803,-0.39687 l 0.240856,-0.22049 -0.190326,0.33073 -0.190325,0.33073 h 0.216553 c 0.119103,0 0.373044,-0.25058 0.564314,-0.55685 l 0.347761,-0.55686 -0.284118,0.1756 -0.284144,0.17559 v -0.2802 -0.2802 h 0.374828 c 0.206152,0 0.434879,-0.14882 0.508277,-0.33073 l 0.133454,-0.33073 0.02088,0.38024 0.02088,0.38023 0.727604,-0.67218 c 0.400182,-0.36969 0.932151,-0.74396 1.18215,-0.83169 l 0.454549,-0.15953 0.137851,0.22305 0.137853,0.22305 -0.393962,0.32696 c -0.216654,0.17983 -0.393938,0.43371 -0.393938,0.56419 v 0.23722 l 0.727604,-0.14469 0.727604,-0.1447 -1.124479,0.58866 c -0.618464,0.32376 -1.124479,0.68627 -1.124479,0.80557 v 0.21691 l 1.349224,-0.6837 c 1.562095,-0.79157 1.968937,-0.70992 0.75823,0.15218 l -0.833427,0.59345 0.355174,0.25144 0.355174,0.25144 -0.79375,-0.13401 -0.79375,-0.13402 -0.661458,0.36695 c -0.363803,0.20182 -0.810287,0.37116 -0.992188,0.37632 l -0.330729,0.009 v -0.38857 -0.38857 l -0.463021,0.16278 c -0.254661,0.0895 -0.760677,0.42051 -1.124479,0.73553 -0.708104,0.61315 -1.9245,1.20175 -2.483522,1.20175 h -0.341955 z m 6.962262,-4.058 c -0.155901,-0.1559 -0.903809,0.75957 -0.916573,1.12192 -0.0046,0.13141 0.230466,-0.0365 0.522431,-0.37315 0.291965,-0.33663 0.469328,-0.67358 0.394142,-0.74877 z m -0.39582,3.79342 c -0.181157,-0.21828 -0.285033,-0.40286 -0.230833,-0.41018 0.696905,-0.0941 2.360957,-0.14381 2.016771,-0.0603 -0.254662,0.0618 -0.463021,0.21156 -0.463021,0.33279 v 0.22041 l -0.595313,-0.13047 -0.595312,-0.13048 0.396875,0.28349 0.396875,0.28348 -0.298334,0.004 c -0.164081,0.002 -0.44655,-0.17454 -0.627708,-0.39282 z m -7.20422,-1.92246 c -0.0672,-0.25698 -0.02993,-0.70347 0.08284,-0.99218 l 0.205023,-0.52495 0.0186,0.99219 c 0.01992,1.06315 -0.10828,1.28277 -0.306456,0.52494 z m 9.519324,-1.29548 c 0.181901,-0.0734 0.479558,-0.0734 0.661459,0 l 0.330729,0.13345 H 84.26979 83.608332 Z m -8.838385,-0.49764 c -0.08617,-0.22456 -0.09756,-0.4674 -0.02529,-0.53966 0.07225,-0.0723 0.194882,0.11147 0.2725,0.40829 0.164875,0.63048 -0.01831,0.72784 -0.2472,0.13137 z m 4.425212,0.22546 c 0.01023,-0.11772 0.12092,-0.45217 0.245986,-0.74322 l 0.227391,-0.52916 0.0186,0.5797 0.01859,0.57969 -0.264583,0.16352 -0.264583,0.16353 0.0186,-0.21406 z m -5.289375,-0.76526 0.02088,-0.50712 0.138964,0.34726 c 0.07643,0.191 0.06703,0.4192 -0.02088,0.50712 l -0.159853,0.15985 0.02088,-0.50711 z m -0.153181,-0.904 -0.16352,-0.26458 h 0.280196 c 0.15411,0 0.280199,0.11906 0.280199,0.26458 0,0.14552 -0.0525,0.26459 -0.116676,0.26459 -0.06417,0 -0.190261,-0.11907 -0.280199,-0.26459 z m 0.311521,-1.17831 -0.482227,-1.16908 0.111855,-0.74453 0.111858,-0.74454 0.03964,0.87304 c 0.0218,0.48017 0.225467,1.23238 0.452588,1.67158 0.227118,0.4392 0.375946,0.90746 0.330729,1.04058 -0.04522,0.13311 -0.29922,-0.28406 -0.564446,-0.92705 z m -1.843323,0.38483 -0.138311,-0.52891 0.209489,-0.12947 0.209489,-0.12947 0.125857,0.65838 0.125857,0.65837 h -0.197035 c -0.108368,0 -0.259276,-0.23801 -0.335346,-0.5289 z m -1.490017,-9.15044 0.02088,-0.50712 0.138964,0.34727 c 0.07643,0.19099 0.06703,0.4192 -0.02088,0.50712 l -0.159853,0.15985 0.02088,-0.50712 z"
         id="path101"
         inkscape:connector-curvature="0" />
      <path
         style="fill:#ffffff;stroke-width:0.26458332"
         d="m 56.358123,279.67282 -0.16165,-0.26156 0.410617,0.15757 c 0.45837,0.17589 0.542235,0.36554 0.16165,0.36554 -0.136932,0 -0.321712,-0.1177 -0.410617,-0.26155 z m 24.207501,-0.26762 -0.396875,-0.25648 0.447405,-0.004 c 0.246073,-0.002 0.520991,0.11501 0.610928,0.26053 l 0.163521,0.26458 -0.214051,-0.004 c -0.117729,-0.002 -0.392647,-0.11947 -0.610928,-0.26054 z m -25.796874,-0.52916 -0.163521,-0.26459 h 0.264583 c 0.145521,0 0.338167,0.11907 0.428104,0.26459 l 0.163521,0.26458 h -0.264584 c -0.14552,0 -0.338166,-0.11906 -0.428103,-0.26458 z m 1.405599,0.0838 c 0.190994,-0.0764 0.419197,-0.067 0.507118,0.0209 l 0.159851,0.15985 -0.507116,-0.0209 -0.507119,-0.0209 0.347266,-0.13897 z m 18.989171,-0.0485 -0.141668,-0.22923 0.456782,-0.39199 c 0.25123,-0.21559 0.635375,-0.4901 0.853657,-0.61 l 0.396875,-0.21802 -0.504029,0.57465 c -0.57033,0.65024 -0.496464,0.69045 0.542623,0.29539 l 0.7345,-0.27926 0.668046,0.16767 0.668047,0.16767 -0.511334,0.28615 -0.511334,0.28616 -0.09647,-0.2894 -0.09647,-0.2894 -1.07537,0.37942 c -1.268116,0.44741 -1.204436,0.4405 -1.383861,0.15019 z m 3.621201,0.0459 c 0.257432,-0.0671 0.61462,-0.0627 0.79375,0.01 l 0.325695,0.13178 -0.79375,-0.01 -0.79375,-0.01 0.468055,-0.12197 z m -23.971873,-0.78679 c -0.352052,-0.35205 -0.159478,-0.50559 0.683506,-0.54498 l 0.859896,-0.0402 -0.332378,0.13879 -0.332377,0.13879 0.149555,0.24198 0.149553,0.24199 h -0.500684 c -0.275376,0 -0.580059,-0.0794 -0.677071,-0.17639 z m 24.644833,-0.004 c 0.190995,-0.0764 0.419198,-0.067 0.507119,0.0209 l 0.159851,0.15985 -0.507116,-0.0209 -0.507119,-0.0209 0.347265,-0.13897 z m -2.12395,-1.54201 c 0.149854,-0.29267 0.551381,-0.76807 0.892283,-1.05644 l 0.619818,-0.52432 -0.657495,0.79186 c -0.361621,0.43552 -0.763148,0.91092 -0.892283,1.05644 l -0.234786,0.26459 z m -10.527419,-1.84808 c 0.341233,-0.36323 0.678759,-0.60209 0.750054,-0.53079 0.175644,0.17563 -0.762828,1.19119 -1.100786,1.19119 h -0.269697 l 0.620429,-0.66041 z m 5.923076,-4.21983 -0.146711,-0.38232 0.882621,-1.2656 c 0.485438,-0.69608 0.963546,-1.44677 1.062458,-1.6682 l 0.179842,-0.40259 0.0186,0.4474 c 0.01024,0.24607 -0.102166,0.52204 -0.249766,0.61326 -0.324493,0.20055 -1.394447,2.24663 -1.174827,2.24663 0.08528,0 0.38536,-0.12325 0.666835,-0.27389 0.694298,-0.37158 0.646618,-0.0557 -0.08354,0.5534 -0.72358,0.60364 -0.963959,0.63108 -1.155507,0.13191 z m 2.015403,-1.04458 c 0,-0.0572 0.184777,-0.17489 0.410617,-0.26156 l 0.410618,-0.15757 -0.16165,0.26156 c -0.155379,0.25141 -0.659585,0.37185 -0.659585,0.15757 z m -17.28611,-1.92449 c -0.292515,-0.29252 -0.200721,-0.55141 0.257908,-0.7274 l 0.4343,-0.16666 -0.299712,0.36113 -0.299712,0.36113 0.174093,0.17409 c 0.09575,0.0957 0.114562,0.1741 0.0418,0.1741 -0.07276,0 -0.211667,-0.0794 -0.308679,-0.17639 z m 17.550693,-4.83508 v -0.2802 h -0.513551 c -0.282453,0 -0.576463,-0.10179 -0.653351,-0.2262 l -0.139801,-0.2262 0.782034,0.0278 0.782035,0.0278 0.124346,0.32226 0.124343,0.32226 -0.253026,0.15638 -0.253029,0.15638 z m 0.04814,-4.91041 -0.301379,-0.66146 h 0.283681 0.283681 l 0.13838,0.52917 c 0.07611,0.29104 0.24947,0.52917 0.385244,0.52917 0.444299,0 1.923766,-0.83957 2.734127,-1.55156 l 0.79375,-0.6974 -0.79375,0.88157 -0.79375,0.88156 -0.892207,0.37521 c -0.490715,0.20636 -1.037151,0.3752 -1.214302,0.3752 h -0.322093 z m 7.575166,-1.37136 c 0.190995,-0.0764 0.419198,-0.067 0.507119,0.0209 l 0.159851,0.15986 -0.507117,-0.0209 -0.507118,-0.0209 0.347265,-0.13897 z m -1.370372,-1.00628 0.143859,-0.37489 0.920372,-0.30375 c 1.340948,-0.44255 1.321564,-0.17547 -0.0351,0.48365 l -1.172993,0.56989 z m -1.218692,0.0555 c -0.01294,-0.37147 1.607108,-1.98876 2.128811,-2.12518 l 0.510593,-0.13353 -0.148273,0.23991 c -0.08155,0.13195 -0.258704,0.23991 -0.393679,0.23991 -0.134974,0 -0.660505,0.44648 -1.167849,0.99219 -0.507344,0.5457 -0.925666,0.89972 -0.929603,0.7867 z m -19.438458,-1.13524 -0.513591,-0.37907 h 0.553855 0.553852 l 0.290465,-0.83323 c 0.159758,-0.45828 0.290468,-1.04126 0.290468,-1.29551 v -0.46227 l -0.925867,-0.81292 -0.925867,-0.81293 -0.39705,0.15237 -0.39705,0.15236 v -0.29289 -0.29289 h 0.529167 0.529167 l 0.529166,0.52916 c 0.291042,0.29104 0.602176,0.52218 0.691412,0.51363 0.08924,-0.009 0.317394,0.28351 0.507019,0.64901 l 0.344773,0.66455 -0.379405,1.26067 c -0.208674,0.69337 -0.466598,1.3458 -0.573164,1.44984 l -0.19376,0.18918 z m 23.333902,-0.0251 c 0.181901,-0.0734 0.479558,-0.0734 0.661459,0 l 0.330729,0.13345 H 84.26979 83.608332 Z m -4.409122,-0.22165 c 0.008,-0.14552 0.116869,-0.5027 0.241935,-0.79375 l 0.227391,-0.52916 0.01455,0.39687 c 0.008,0.21828 -0.10087,0.57547 -0.241935,0.79375 l -0.256479,0.39688 0.01455,-0.26459 z m -20.216645,-1.08443 0.142279,-0.37077 h 0.500859 0.500859 v 0.26458 c 0,0.14552 -0.0893,0.27369 -0.198437,0.28483 -0.109141,0.0111 -0.398553,0.0589 -0.643139,0.10619 l -0.444701,0.086 z m -1.329907,-1.02435 -0.155321,-0.40476 h 1.20015 1.200152 l -0.182991,-0.59531 c -0.207269,-0.6743 -0.138618,-0.62141 0.480756,0.37042 l 0.437851,0.70114 h -0.887619 c -0.48819,0 -1.123876,0.075 -1.412637,0.16664 l -0.52502,0.16663 z m 16.247533,-1.16158 -0.320517,-0.77379 0.112967,-0.75605 0.112969,-0.75605 0.03964,0.87729 c 0.0218,0.48251 0.168351,1.11779 0.325662,1.41173 0.157311,0.29394 0.232868,0.58758 0.167905,0.65255 -0.06496,0.065 -0.262345,-0.2301 -0.438629,-0.65568 z m -12.186129,-0.0822 c 0,-0.17044 -0.189029,-0.51877 -0.420066,-0.77406 l -0.420068,-0.46417 0.102648,-0.48271 0.102645,-0.48271 0.456507,0.8599 c 0.553029,1.04171 0.789601,1.07398 1.204105,0.16425 0.174326,-0.38261 0.38055,-0.63206 0.458274,-0.55434 0.170773,0.17078 -1.00431,2.03582 -1.285607,2.04046 -0.109141,0.002 -0.198438,-0.13618 -0.198438,-0.30662 z m 9.934276,-1.22114 -0.162949,-0.7419 0.406003,-0.9717 c 0.468683,-1.12171 0.500602,-1.34298 0.163708,-1.13476 l -0.242295,0.14974 0.297897,-0.78922 0.297897,-0.78922 -0.763918,-0.79736 c -0.420153,-0.43855 -0.699145,-0.86213 -0.619979,-0.94129 0.428863,-0.42887 2.59561,2.91347 2.59561,4.00387 v 0.44288 l -0.802672,0.76708 -0.802674,0.76707 0.145531,0.23548 0.145529,0.23547 -0.24737,0.15288 -0.247369,0.15288 z m 0.649057,-0.70231 c 0,-0.0642 -0.119062,-0.19026 -0.264583,-0.2802 l -0.264584,-0.16352 v 0.2802 c 0,0.15411 0.119063,0.2802 0.264584,0.2802 0.145521,0 0.264583,-0.0525 0.264583,-0.11668 z m 1.058333,-1.55254 c 0,-0.19047 -0.160419,-0.56569 -0.356489,-0.83383 l -0.356486,-0.48753 -0.188293,0.30466 -0.188294,0.30467 h 0.280197 0.280199 v 0.52917 0.52916 h 0.264583 c 0.145521,0 0.264583,-0.15583 0.264583,-0.3463 z m -8.466666,-2.54411 c 0,-0.12538 0.178594,-0.2965 0.396875,-0.38027 l 0.396875,-0.15229 v 0.22797 c 0,0.12538 -0.178594,0.2965 -0.396875,0.38027 l -0.396875,0.15229 z m 1.322917,-1.07834 c 0.218281,-0.14106 0.515937,-0.25648 0.661458,-0.25648 h 0.264583 l -0.396875,0.25648 c -0.218281,0.14107 -0.515937,0.25648 -0.661458,0.25648 h -0.264583 z m 1.058333,-0.63315 c 0,-0.0572 0.184777,-0.17489 0.410617,-0.26155 l 0.410618,-0.15757 -0.16165,0.26155 c -0.155379,0.25141 -0.659585,0.37186 -0.659585,0.15757 z m 3.460472,-0.57952 0.02088,-0.50712 0.138964,0.34727 c 0.07643,0.19099 0.06703,0.4192 -0.02088,0.50712 l -0.159853,0.15985 0.02088,-0.50712 z"
         id="path99"
         inkscape:connector-curvature="0" />
    </g>
  </g>
</svg>
