<?xml version="1.0" encoding="UTF-8" standalone="no"?>
<!-- Created with Inkscape (http://www.inkscape.org/) -->

<svg
   xmlns:dc="http://purl.org/dc/elements/1.1/"
   xmlns:cc="http://creativecommons.org/ns#"
   xmlns:rdf="http://www.w3.org/1999/02/22-rdf-syntax-ns#"
   xmlns:svg="http://www.w3.org/2000/svg"
   xmlns="http://www.w3.org/2000/svg"
   xmlns:sodipodi="http://sodipodi.sourceforge.net/DTD/sodipodi-0.dtd"
   xmlns:inkscape="http://www.inkscape.org/namespaces/inkscape"
   width="75mm"
   height="120mm"
   viewBox="0 0 75 120"
   version="1.1"
   id="svg8"
   inkscape:version="0.92.4 (5da689c313, 2019-01-14)"
   sodipodi:docname="oiseaux3.svg">
  <defs
     id="defs2" />
  <sodipodi:namedview
     id="base"
     pagecolor="#ffffff"
     bordercolor="#666666"
     borderopacity="1.0"
     inkscape:pageopacity="0.0"
     inkscape:pageshadow="2"
     inkscape:zoom="1.7960512"
     inkscape:cx="80.953266"
     inkscape:cy="216.25369"
     inkscape:document-units="mm"
     inkscape:current-layer="layer1"
     showgrid="false"
     units="mm"
     inkscape:window-width="1920"
     inkscape:window-height="1017"
     inkscape:window-x="-8"
     inkscape:window-y="-8"
     inkscape:window-maximized="1"
     showguides="true"
     inkscape:guide-bbox="true" />
  <metadata
     id="metadata5">
    <rdf:RDF>
      <cc:Work
         rdf:about="">
        <dc:format>image/svg+xml</dc:format>
        <dc:type
           rdf:resource="http://purl.org/dc/dcmitype/StillImage" />
        <dc:title></dc:title>
      </cc:Work>
    </rdf:RDF>
  </metadata>
  <g
     inkscape:label="Calque 1"
     inkscape:groupmode="layer"
     id="layer1"
     transform="translate(0,-176.99999)">
    <rect
       style="fill:#ff00cc;fill-opacity:1;stroke:none;stroke-width:2;stroke-linecap:round;stroke-linejoin:miter;stroke-miterlimit:4;stroke-dasharray:none;stroke-dashoffset:0;stroke-opacity:1"
       id="rect452"
       width="102.52459"
       height="129.65245"
       x="-177.40683"
       y="158.13342" />
    <g
       id="g2207"
       transform="translate(-1.25,-8.9583333)">
      <path
         style="fill:#00ffff;stroke-width:0.26458335"
         d="M 5.5583349,274.09062 5.390384,273.56146 H 5.043438 4.696492 l -0.3368122,-0.81314 -0.336812,-0.81314 -0.01565,-2.03113 c -0.00861,-1.11712 0.085998,-2.80504 0.2102334,-3.75093 0.1242359,-0.94588 0.2369924,-2.4044 0.2505703,-3.24114 l 0.024686,-1.52136 h 0.202084 c 0.1111477,0 0.2020855,-0.12609 0.2020855,-0.2802 v -0.28019 l -0.1984375,0.12302 -0.1984375,0.12303 0.094141,-1.3345 0.094141,-1.3345 0.2560341,0.36719 0.2560344,0.36719 -0.1768735,-1.98437 c -0.2083178,-2.33716 -0.1978929,-5.63101 0.024284,-7.67292 0.1908244,-1.75376 0.8571831,-4.30594 1.4215367,-5.44453 0.2265738,-0.45712 0.7841083,-1.25186 1.2389654,-1.76609 l 0.8270131,-0.93497 0.8045294,-0.17671 0.8045294,-0.1767 0.144379,-0.37625 0.14438,-0.37624 0.450294,0.17279 0.450294,0.17279 -0.192465,-0.31141 -0.192465,-0.31142 0.47979,-0.17496 c 0.263885,-0.0962 0.977493,-0.51211 1.585796,-0.92418 l 1.106005,-0.7492 h 1.032711 c 0.567991,0 1.101925,-0.0692 1.186522,-0.15381 l 0.153811,-0.15381 -0.63511,-0.93589 -0.635111,-0.93589 0.169402,-0.2741 0.169402,-0.2741 -0.266775,0.16488 -0.266774,0.16488 -0.306634,-0.67299 -0.306634,-0.67299 0.176533,-0.28564 0.176534,-0.28564 -0.247041,0.15268 -0.24704,0.15268 -0.887585,-1.76544 c -1.975402,-3.92916 -2.335448,-4.74176 -2.775168,-6.26336 -0.25232,-0.87313 -0.6418847,-2.10075 -0.8657003,-2.72806 l -0.4069376,-1.14055 0.1431459,-0.14315 0.1431459,-0.14314 -1.0411653,-0.99044 c -0.5726411,-0.54474 -1.0411655,-1.1242 -1.0411655,-1.28768 v -0.29725 l -0.3626303,0.13915 -0.36263,0.13916 -0.7926689,-1.00736 C 5.588813,218.05539 5.1533197,217.34887 5.057018,217.03939 l -0.1750941,-0.56269 -1.050857,-0.16804 -1.050857,-0.16804 v -0.42156 -0.42155 l 2.5796875,0.17061 c 1.4188281,0.0938 2.9626276,0.2075 3.4306655,0.25259 l 0.8509778,0.082 0.3942033,0.32716 0.394202,0.32716 0.249684,-0.15431 c 0.137326,-0.0849 1.065276,-0.17232 2.062111,-0.19433 l 1.812427,-0.04 0.330729,-0.25773 0.330729,-0.25773 v 0.29508 0.29507 l 0.992188,-0.0321 0.992187,-0.0321 1.5154,0.44791 1.515399,0.4479 1.527309,1.15816 c 0.84002,0.637 1.65632,1.31746 1.814001,1.51215 0.287593,0.35509 1.91865,2.8481 3.543837,5.41662 0.478205,0.75578 1.032359,1.43665 1.231448,1.51305 l 0.361981,0.13891 v 0.37687 0.37687 l 0.433959,0.16653 0.433959,0.16652 0.365686,-0.52209 c 0.201126,-0.28714 0.514398,-0.67676 0.696161,-0.86582 0.181764,-0.18905 0.566063,-0.64937 0.854001,-1.02293 0.287941,-0.37355 0.583057,-0.67588 0.655818,-0.67184 0.07276,0.004 0.455652,-0.2738 0.850871,-0.61744 l 0.718579,-0.6248 -0.146071,-0.23635 -0.146074,-0.23635 0.44215,-0.67481 0.442148,-0.67481 0.532871,0.13935 0.532868,0.13935 -0.143793,-0.14379 -0.14379,-0.14379 0.712933,-0.59704 c 0.392112,-0.32836 1.308245,-0.89992 2.035849,-1.27012 l 1.322917,-0.67309 1.719792,-0.156 c 0.945885,-0.0858 2.493698,-0.2243 3.439583,-0.30778 0.945885,-0.0835 2.315104,-0.31362 3.042708,-0.51143 1.386253,-0.37685 2.240794,-0.5201 5.288733,-0.88651 l 1.849152,-0.2223 3.971983,0.0741 3.971986,0.0741 0.727302,0.27652 0.727303,0.27652 v 0.39512 0.39512 l 0.46302,-0.16614 0.463021,-0.16614 -0.187846,0.20795 -0.187846,0.20795 0.828908,0.56181 c 0.455898,0.30899 0.877773,0.71063 0.937498,0.89254 l 0.108593,0.33072 -1.014238,0.0313 c -0.557829,0.0172 -1.116066,0.013 -1.240523,-0.009 -0.124457,-0.0223 -0.362582,0.0671 -0.529167,0.19877 -0.166584,0.13166 -0.77584,0.39194 -1.353902,0.57839 -0.578061,0.18645 -1.211643,0.49962 -1.407961,0.69594 l -0.356939,0.35694 -0.576413,0.0112 -0.576414,0.0112 -0.649046,0.78255 -0.649047,0.78254 h -0.475433 -0.475432 l -0.0011,0.19844 c -0.0013,0.25835 -1.745414,0.94546 -4.232341,1.66737 -2.277846,0.66121 -4.852073,1.8925 -5.473171,2.61789 l -0.425477,0.49692 -0.291822,-0.0657 c -0.160501,-0.0361 -0.215164,-0.02 -0.121473,0.0359 l 0.17035,0.10161 -0.142418,0.58263 c -0.07833,0.32044 -0.260082,0.73292 -0.403891,0.91661 l -0.261475,0.334 -0.427916,-0.32944 -0.427916,-0.32943 0.484108,0.56875 0.484111,0.56874 -0.341183,0.61732 c -0.18765,0.33953 -0.315259,0.74753 -0.283572,0.90668 l 0.05761,0.28936 -0.597411,0.27946 -0.597411,0.27945 2.38125,1.11324 c 1.309688,0.61228 2.976563,1.33118 3.704167,1.59756 2.062292,0.75501 4.280281,1.34391 5.155263,1.36879 l 0.797862,0.0227 v 0.22135 0.22136 l 0.595312,-0.025 c 0.327422,-0.0137 1.232474,0.15188 2.011228,0.36805 l 1.415915,0.39302 0.472453,-0.12355 0.472453,-0.12355 0.17821,0.28836 0.178211,0.28834 0.527777,-0.28245 0.527778,-0.28246 0.31606,0.12856 0.316061,0.12856 -0.463021,0.0209 -0.462954,0.0209 v 0.29543 0.29542 l 0.661458,-0.12644 0.661458,-0.12645 v 0.18536 0.18536 l 0.79375,-0.0472 0.79375,-0.0472 v 0.16181 c 0,0.15063 1.162357,0.26243 3.042709,0.29267 0.436562,0.007 1.180703,0.15054 1.653645,0.31893 l 0.859896,0.30615 v 0.37203 0.37203 l 0.396875,-0.15229 0.396875,-0.1523 0.0186,0.32243 0.0186,0.32242 0.223091,-0.52916 0.223089,-0.52917 -0.04325,2.76722 -0.04325,2.76723 -1.268537,0.78386 -1.268537,0.78386 -1.485905,0.12322 -1.485902,0.12322 -2.272642,-0.32659 c -1.249963,-0.17963 -3.16562,-0.55662 -4.257026,-0.83775 -1.091407,-0.28114 -2.69875,-0.57727 -3.571875,-0.65808 -0.873125,-0.0808 -1.766094,-0.21292 -1.984375,-0.2936 -0.218282,-0.0807 -0.575469,-0.17901 -0.79375,-0.21852 -0.218282,-0.0395 -0.635,-0.13216 -0.926042,-0.20588 -1.579843,-0.40016 -3.192436,-0.73082 -4.152366,-0.85143 -0.595688,-0.0748 -1.188198,-0.20105 -1.316691,-0.28046 -0.300643,-0.18581 -7.912962,-0.17206 -8.099649,0.0146 l -0.140939,0.14094 -0.405863,-0.32844 -0.405862,-0.32843 0.18552,0.30941 0.185518,0.30941 -1.722228,0.18443 -1.722232,0.18443 v 0.56192 0.56191 l -1.752229,1.65179 -1.752232,1.65179 -0.234175,-0.14473 -0.234172,-0.14473 -0.416177,0.41618 -0.416176,0.41618 -0.243253,-0.15034 -0.243252,-0.15034 v 0.31327 0.31327 l -0.859896,-0.16499 -0.859896,-0.165 0.396875,0.26016 0.396875,0.26017 -0.573672,0.004 c -0.315521,0.002 -0.781537,0.0838 -1.035593,0.18131 l -0.461917,0.17725 0.184407,-0.29837 0.184404,-0.29838 -0.717344,0.37216 -0.717344,0.37217 -0.223353,-0.13804 -0.223353,-0.13804 -1.250826,0.39226 c -0.687954,0.21574 -1.699978,0.45549 -2.248942,0.53278 l -0.998116,0.14053 0.168567,-0.27275 c 0.09271,-0.15001 -0.300143,0.0374 -0.873011,0.41654 l -1.041578,0.68928 -0.446163,0.93561 -0.446163,0.93561 -0.789891,0.44946 -0.789891,0.44947 -0.0017,0.31152 c -9.26e-4,0.17134 -0.274041,0.52853 -0.606934,0.79375 l -0.605261,0.48223 -0.557206,1.5875 c -0.637822,1.81717 -0.984395,3.0859 -0.921507,3.37343 0.02387,0.10914 -0.07192,0.19844 -0.212878,0.19844 h -0.256279 l 0.168951,0.44028 0.16895,0.44028 -0.2434,-0.14756 -0.243406,-0.14755 -0.03514,1.52708 -0.03514,1.52707 -1.011283,1.80834 -1.011283,1.80835 -1.314866,1.39993 -1.3148659,1.39994 -0.3867811,-0.0671 -0.3867812,-0.0671 -0.068383,0.39688 c -0.1644443,0.95438 -0.295556,1.19745 -0.9559607,1.77227 -0.384809,0.33494 -0.7637386,0.60898 -0.8420661,0.60898 -0.078328,0 -0.2179918,-0.23813 -0.3103647,-0.52917 z m 0.048449,-3.48919 -0.1389642,-0.34727 -0.020889,0.50712 -0.020889,0.50712 0.1598525,-0.15985 0.1598523,-0.15985 -0.1389642,-0.34727 z m 0.2590712,-3.19154 -0.1334521,-0.33073 v 0.66146 0.66146 l 0.1334521,-0.33073 c 0.073399,-0.1819 0.073399,-0.47956 0,-0.66146 z m 6.0909289,-6.59804 -0.138964,-0.34727 -0.02089,0.50712 -0.02089,0.50712 0.159853,-0.15985 0.159852,-0.15986 z m -0.798102,-2.50803 -0.176389,-0.17639 v 0.35278 0.35277 l 0.176389,-0.17638 0.176389,-0.17639 z m 1.807986,-1.94028 c 0.08994,-0.14552 0.10399,-0.26458 0.03123,-0.26458 -0.07276,0 -0.205876,0.11906 -0.295813,0.26458 -0.08994,0.14552 -0.10399,0.26458 -0.03123,0.26458 0.07276,0 0.205876,-0.11906 0.295813,-0.26458 z m -1.807986,-1.23472 -0.176389,-0.17639 v 0.35278 0.35277 l 0.176389,-0.17638 0.176389,-0.17639 z m 0.529167,-2.91042 -0.176389,-0.17639 -0.176389,0.17639 -0.176389,0.17639 h 0.352778 0.352778 z m -5.2034724,-0.20487 c 0,-0.0642 -0.1374587,-0.20163 -0.3054635,-0.30546 l -0.3054639,-0.18879 0.1887868,0.30546 c 0.1885001,0.305 0.4221406,0.40949 0.4221406,0.18879 z m 13.4055554,-1.9118 -0.176389,-0.17639 -0.176389,0.17639 -0.176389,0.17639 h 0.352778 0.352778 z m 5.909028,-0.73403 c 0,-0.0642 -0.137459,-0.20164 -0.305464,-0.30547 l -0.305464,-0.18879 0.188788,0.30547 c 0.188499,0.305 0.42214,0.40949 0.42214,0.18879 z m -14.948958,-0.94166 c 0.08994,-0.14552 0.10399,-0.26458 0.03123,-0.26458 -0.07276,0 -0.205876,0.11906 -0.295813,0.26458 -0.08994,0.14552 -0.10399,0.26458 -0.03123,0.26458 0.07276,0 0.205877,-0.11906 0.295813,-0.26458 z m 22.004514,-0.97014 -0.17639,-0.17639 v 0.35278 0.35278 l 0.17639,-0.17639 0.176387,-0.17639 z m -16.933334,-1.32292 -0.176389,-0.17639 -0.176389,0.17639 -0.176389,0.17639 h 0.352778 0.352778 z M 26.7691,244.2809 26.59271,244.10451 v 0.35278 0.35278 l 0.17639,-0.17639 0.176387,-0.17639 z m 43.127083,-1.85208 -0.17639,-0.17639 -0.17639,0.17639 -0.176387,0.17639 h 0.352777 0.352777 z m -41.804167,-2.38125 -0.17639,-0.17639 v 0.35277 0.35278 l 0.17639,-0.17639 0.176387,-0.17639 z m 10.93611,-9.34862 v -0.26458 l -0.46302,0.004 -0.463021,0.004 0.396875,0.25648 c 0.218281,0.14107 0.42664,0.25831 0.463021,0.26054 0.03638,0.002 0.06614,-0.11501 0.06614,-0.26054 z m -1.146527,-0.44097 -0.176389,-0.17639 -0.17639,0.17639 -0.176387,0.17639 h 0.352777 0.352777 z m 8.73125,-3.175 -0.176389,-0.17639 -0.17639,0.17639 -0.176387,0.17639 h 0.352777 0.352777 z m 2.910417,-2.64583 -0.17639,-0.17639 -0.176389,0.17639 -0.176388,0.17639 h 0.352777 0.352777 z m -6.879167,-0.26459 -0.176389,-0.17638 -0.17639,0.17638 -0.176387,0.17639 h 0.352777 0.352777 z m 14.507986,-1.97183 c -0.582084,-0.0975 -1.101157,-0.13704 -1.153494,-0.0879 -0.05234,0.0491 0.304851,0.19768 0.79375,0.33014 l 0.88891,0.24082 0.264584,-0.15291 0.264583,-0.1529 z m 1.631598,0.11975 -0.17639,-0.17639 -0.17639,0.17639 -0.176387,0.17639 h 0.352777 0.352777 z m -3.483682,-0.35278 c -0.291041,-0.12506 -0.625491,-0.23576 -0.74322,-0.24598 l -0.21405,-0.0186 0.16352,0.26458 0.163521,0.26459 0.579699,-0.0186 0.579697,-0.0186 z m -44.935069,-0.97014 -0.176389,-0.17638 -0.176389,0.17638 -0.1763885,0.17639 h 0.3527775 0.352778 z m 51.946528,-0.41348 v -0.26867 l -0.396875,0.32938 c -0.218282,0.18116 -0.396875,0.37059 -0.396875,0.42097 0,0.0504 0.178593,0.0231 0.396875,-0.0607 0.218281,-0.0838 0.396875,-0.2732 0.396875,-0.42097 z m -49.477083,0.22539 c 0,-0.0549 -0.20836,-0.2633 -0.463021,-0.46302 l -0.463021,-0.36312 0.363126,0.46302 c 0.345643,0.44073 0.562916,0.58089 0.562916,0.36312 z m 48.506535,-0.19106 c 0.169998,-0.0145 0.01143,-0.11481 -0.352369,-0.2229 -0.363802,-0.10809 -0.752697,-0.14753 -0.864211,-0.0876 l -0.202753,0.1089 0.16337,0.26434 0.163369,0.26434 0.391753,-0.15033 c 0.215463,-0.0827 0.530841,-0.1622 0.700841,-0.17671 z m 1.676104,-0.15001 -0.17639,-0.17639 -0.176389,0.17639 -0.176388,0.17639 h 0.352777 0.352777 z m -15.610417,-0.52917 -0.176389,-0.17639 v 0.35278 0.35278 l 0.176389,-0.17639 0.176388,-0.17639 z M 8.6010432,219.73436 c 0,-0.0642 -0.1374587,-0.20163 -0.3054636,-0.30546 l -0.3054638,-0.18879 0.1887868,0.30546 c 0.1885,0.305 0.4221406,0.40949 0.4221406,0.18879 z m 41.1497088,-0.62597 -0.148111,-0.14812 -0.326321,0.32877 -0.326319,0.32876 0.474433,-0.18065 0.474432,-0.18065 z m 11.959884,-0.21096 -0.159853,-0.15985 -0.347266,0.13897 -0.347266,0.13896 0.507119,0.0209 0.507117,0.0209 -0.159851,-0.15985 z m 1.835547,-0.28112 -0.17639,-0.17638 -0.17639,0.17638 -0.176387,0.17639 h 0.352777 0.352777 z m -13.21263,-0.51263 -0.159854,-0.15985 -0.347265,0.13897 -0.347266,0.13896 0.507119,0.0209 0.507116,0.0209 -0.15985,-0.15985 z M 7.312819,217.3793 c -0.1620766,-0.19529 -0.2361864,-0.41357 -0.1646886,-0.48507 0.071498,-0.0715 -0.049092,-0.13 -0.2679785,-0.13 H 6.4821771 l 0.4389818,0.48507 c 0.5028406,0.55563 0.8369377,0.66652 0.3916601,0.13 z m 48.576984,-0.0694 -0.159854,-0.15985 -0.347265,0.13897 -0.347266,0.13896 0.507119,0.0209 0.507116,0.0209 -0.15985,-0.15985 z m -49.3854023,-1.01839 0.2445592,0.15114 v -0.25189 c 0,-0.13854 -0.1785938,-0.32042 -0.396875,-0.40418 l -0.396875,-0.1523 v 0.38857 0.38857 l -0.3307292,0.004 -0.3307292,0.004 0.396875,0.25356 0.396875,0.25357 0.08617,-0.39315 0.08617,-0.39315 0.2445591,0.15115 z m 2.2176351,0.40278 0.1522225,-0.2463 -0.3097797,-0.19146 -0.3097795,-0.19145 0.1748205,0.28287 0.1748206,0.28286 -0.3323776,0.134 -0.3323777,0.13401 0.3151142,0.0209 c 0.1733129,0.0115 0.3836144,-0.09 0.4673367,-0.22541 z m -3.2959926,-0.81203 v -0.26459 l -0.5953125,0.0186 -0.5953125,0.0186 0.5291667,0.2274 c 0.2910416,0.12506 0.5589323,0.23576 0.5953125,0.24598 0.03638,0.0102 0.066146,-0.10047 0.066146,-0.24599 z m -0.5291667,58.20833 v -0.35277 l 0.176389,0.17638 0.1763887,0.17639 -0.1763887,0.17639 -0.176389,0.17639 z"
         id="path2213"
         inkscape:connector-curvature="0" />
      <path
         style="fill:#800080;stroke-width:0.26458335"
         d="m 5.6489457,273.75989 c -0.022923,-0.32742 -0.036154,-0.74414 -0.029398,-0.92604 l 0.012282,-0.33073 -0.301331,-0.004 -0.3013311,-0.004 0.2994777,-0.19439 0.2994776,-0.19438 0.1237499,-1.25678 0.1237498,-1.25677 H 5.6867956 5.4979689 l -0.1646558,1.2013 c -0.09056,0.66071 -0.3040356,1.46172 -0.4743889,1.78003 l -0.3097337,0.57875 -0.2044361,-0.52327 -0.2044359,-0.52326 -0.018934,-2.24896 c -0.010414,-1.23693 0.096161,-3.20146 0.236833,-4.36563 0.5891414,-4.87559 0.797881,-7.59694 0.8293333,-10.81207 l 0.033298,-3.40374 0.2659949,-0.96189 c 0.1462971,-0.52903 0.2943299,-1.31907 0.328962,-1.75563 0.080357,-1.01296 0.6037103,-3.03811 0.9392361,-3.63443 0.142176,-0.2527 0.2585014,-0.6329 0.2585014,-0.8449 v -0.38547 l 0.4871776,-0.34573 c 0.2679475,-0.19015 0.6293241,-0.61362 0.8030588,-0.94104 l 0.3158818,-0.59532 h 0.3655171 c 0.2010346,0 0.4052049,-0.10608 0.453712,-0.23575 0.078011,-0.20853 1.2169325,-0.87926 3.7923615,-2.2334 0.436562,-0.22954 1.359296,-0.56779 2.05052,-0.75165 l 1.256771,-0.3343 v -0.2096 c 0,-0.329 -2.673668,-5.74627 -2.90731,-5.89067 -0.114988,-0.0711 -0.291066,-0.45775 -0.391285,-0.85931 -0.100219,-0.40156 -0.348689,-0.91493 -0.552156,-1.14083 -0.203467,-0.2259 -0.412397,-0.64262 -0.464288,-0.92604 -0.05189,-0.28343 -0.419865,-1.2297 -0.817719,-2.10282 -0.397854,-0.87313 -1.013086,-2.58309 -1.367181,-3.79991 -0.354096,-1.21683 -0.6438108,-2.25255 -0.6438108,-2.3016 0,-0.0491 0.4015959,0.0786 0.8924358,0.28369 l 0.892435,0.37288 0.165898,-0.1659 0.165898,-0.1659 v 0.28381 0.28381 l 1.190625,0.40569 1.190625,0.40568 v -0.21612 c 0,-0.11887 -0.178594,-0.36435 -0.396875,-0.54551 -0.218281,-0.18115 -0.396875,-0.47517 -0.396875,-0.65337 0,-0.1782 -0.238125,-0.59855 -0.529167,-0.93413 -0.291041,-0.33557 -0.529166,-0.77051 -0.529166,-0.96652 v -0.35639 h -0.245205 c -0.279492,0 -1.077712,-1.49231 -1.077712,-2.01483 v -0.34603 l -1.0801584,-0.29085 c -0.5940872,-0.15997 -1.3382279,-0.25753 -1.6536459,-0.2168 -0.3154182,0.0407 -0.7102652,-0.0111 -0.8774379,-0.11528 -0.1671728,-0.10414 -0.8125484,-0.25324 -1.4341682,-0.33135 l -1.1302174,-0.142 -0.1752841,0.28361 -0.1752841,0.28362 -0.771798,-0.33576 -0.7717978,-0.33576 1.4552083,-0.0943 1.4552084,-0.0943 1.7873318,0.33021 1.7873319,0.33021 0.1726988,-0.1727 0.1726991,-0.1727 0.3798853,0.31528 0.3798852,0.31528 3.497164,-0.0747 3.497163,-0.0747 1.438962,0.46463 c 0.791429,0.25554 1.876215,0.73722 2.410634,1.07039 0.53442,0.33318 1.438868,1.06372 2.009885,1.62343 l 1.038212,1.01766 0.755537,1.30707 c 0.415547,0.7189 0.833938,1.36662 0.929762,1.43938 0.09582,0.0728 0.384254,0.54901 0.640963,1.05833 0.504669,1.0013 2.128465,3.1192 2.768894,3.61144 l 0.395708,0.30415 1.131663,-1.21522 c 0.622414,-0.66837 1.131662,-1.23815 1.131662,-1.26617 0,-0.028 0.654844,-0.74899 1.455209,-1.60214 0.800364,-0.85315 1.455208,-1.64063 1.455208,-1.74995 0,-0.10933 0.110342,-0.19878 0.245203,-0.19878 0.134858,0 0.976685,-0.50476 1.870726,-1.1217 l 1.625523,-1.1217 2.16417,-0.19087 c 1.190294,-0.10498 3.205967,-0.27268 4.479274,-0.37267 l 2.315104,-0.1818 v 0.2906 c 0,0.15983 -0.197633,0.4012 -0.439182,0.53638 l -0.439184,0.24578 0.571476,0.30584 c 0.314309,0.16822 0.571473,0.42072 0.571473,0.56112 v 0.25527 h -3.455199 -3.455196 l 0.142034,-0.22981 0.142036,-0.22982 1.9241,-0.2147 1.9241,-0.21469 -1.719791,-0.2027 -1.719792,-0.2027 -0.706784,0.13449 -0.706787,0.1345 -1.211442,1.29513 c -0.666295,0.71232 -1.211445,1.42787 -1.211445,1.59009 0,0.16223 -0.714375,1.31883 -1.5875,2.57022 -0.873125,1.25139 -1.5875,2.41887 -1.5875,2.5944 0,0.17552 -0.178594,0.46735 -0.396875,0.64851 -0.218282,0.18116 -0.396875,0.41678 -0.396875,0.52359 v 0.19422 l 0.727604,-0.0197 c 0.400182,-0.0108 1.02526,0.072 1.389062,0.18397 l 0.661459,0.20363 -0.458909,-0.37059 -0.458907,-0.37059 0.172275,-0.17228 c 0.09475,-0.0947 0.723932,-0.17226 1.398181,-0.17226 h 1.225901 l 0.3175,0.3175 c 0.174625,0.17463 0.3175,0.53181 0.3175,0.79375 v 0.47625 l -0.46302,0.011 -0.463021,0.0109 2.910416,1.45072 c 1.60073,0.79789 3.516628,1.78108 4.257551,2.18485 0.740923,0.40378 2.587009,1.22799 4.102412,1.83158 l 2.755278,1.09745 3.041338,0.68813 c 1.672736,0.37847 4.351025,0.99106 5.951755,1.36131 l 2.910416,0.67319 3.042709,0.3111 3.042708,0.3111 -0.06303,0.31662 -0.06303,0.31663 1.055214,0.28414 1.055214,0.28414 v 0.38668 0.38668 h -0.941657 -0.941655 l 0.16352,0.26458 0.163521,0.26458 h 0.614987 0.614984 l 0.159536,0.59532 c 0.08775,0.32742 0.161165,1.03369 0.163152,1.56948 l 0.0036,0.97417 -0.727604,0.50335 c -0.400183,0.27684 -1.236031,0.70166 -1.857439,0.94406 l -1.129818,0.44073 -1.516002,-0.006 c -0.8338,-0.004 -2.01268,-0.12112 -2.619732,-0.26126 -0.607055,-0.14013 -1.672334,-0.32304 -2.367291,-0.40646 -0.694954,-0.0834 -1.44843,-0.25989 -1.674389,-0.39216 l -0.410837,-0.24048 0.372494,-0.008 c 0.204872,-0.004 1.685305,0.24312 3.28985,0.5501 l 2.917357,0.55815 1.289785,-0.12393 1.289788,-0.12393 0.235257,-0.23578 0.235257,-0.23578 -2.081723,-0.0682 -2.081726,-0.0682 -1.807128,-0.53253 c -0.99392,-0.2929 -2.283378,-0.66319 -2.865461,-0.82289 -0.582083,-0.15969 -1.236927,-0.35532 -1.455208,-0.43473 -0.218282,-0.0794 -0.456407,-0.16465 -0.529167,-0.18942 -0.07276,-0.0248 -0.429948,-0.16564 -0.79375,-0.31308 -0.363802,-0.14743 -3.459427,-1.19499 -6.879167,-2.32791 -3.419739,-1.13292 -6.455833,-2.16502 -6.746875,-2.29355 l -0.529166,-0.2337 2.442302,0.10287 2.4423,0.10288 -0.128135,-0.20732 -0.128135,-0.20733 -1.917292,-0.3016 c -1.054511,-0.16587 -2.185181,-0.41213 -2.512603,-0.54724 l -0.595312,-0.24564 -0.727604,0.31007 c -0.400183,0.17054 -0.906198,0.45176 -1.12448,0.62493 -0.218281,0.17318 -1.11125,0.51934 -1.984375,0.76925 l -1.5875,0.45438 -1.516536,-0.17154 -1.516536,-0.17154 -1.526172,-0.52924 -1.526172,-0.52923 -1.5875,-0.18578 c -1.892327,-0.22145 -4.737748,-0.20603 -6.746875,0.0365 l -1.455209,0.1757 -2.179477,1.06893 -2.179479,1.06893 -0.277226,0.518 -0.277227,0.518 h -0.365517 -0.365518 l -0.09388,0.28165 -0.09388,0.28165 -1.087164,0.14582 -1.087165,0.14582 -1.420687,0.73819 -1.420688,0.73819 0.0727,0.30921 0.0727,0.30922 -0.268132,-0.16571 -0.268132,-0.16572 -0.9951939,1.0506 c -1.7456608,1.84284 -2.447253,2.68097 -2.247713,2.68513 l 0.1941854,0.004 -0.2706947,0.19438 c -0.5399973,0.38778 -1.111319,1.5469 -1.4380559,2.9176 l -0.3337909,1.40029 0.1919624,1.51013 c 0.1055793,0.83058 0.1958099,3.23654 0.2005123,5.3466 l 0.00855,3.83645 0.2106573,-2.24895 c 0.1158613,-1.23693 0.3474556,-2.98038 0.5146537,-3.87434 l 0.3039965,-1.62537 -0.4004072,-0.62358 -0.4004074,-0.62359 -0.067246,-0.79375 c -0.078134,-0.92227 0.2477225,-2.51354 0.5147146,-2.51354 h 0.1830242 l 0.3453434,1.65364 0.3453434,1.65365 0.00444,3.68165 0.00444,3.68164 0.2375099,0.55169 0.2375098,0.55169 -0.04732,-0.52917 c -0.050362,-0.56319 0.306933,-6.62962 0.4631782,-7.86421 l 0.09299,-0.73475 H 8.3449125 8.1139217 l -0.1540298,-0.7276 -0.1540296,-0.72761 0.2181889,-0.79375 0.2181889,-0.79375 0.2289652,0.0589 c 0.1259311,0.0324 0.2623507,0.2705 0.3031551,0.52916 0.040804,0.25866 0.1387996,1.83952 0.2177669,3.51301 0.1949965,4.13239 0.384457,6.07909 0.8497625,8.73125 0.2170112,1.23692 0.4495782,2.9038 0.5168152,3.70416 l 0.122249,1.45521 -0.5077872,0.92604 -0.507787,0.92604 -0.4321683,0.0856 -0.4321683,0.0856 v -0.37218 -0.37218 H 8.2229311 7.8448193 l -0.1739696,1.26491 -0.1739696,1.26491 -0.62591,0.67537 c -0.3442504,0.37145 -0.7506573,0.67537 -0.9031266,0.67537 h -0.277217 z m 2.4506197,-5.22552 -0.2342938,-1.19062 -0.028989,0.97054 c -0.015944,0.53381 0.052392,1.18263 0.151859,1.44184 l 0.180848,0.47128 0.082435,-0.25121 c 0.045339,-0.13816 -0.022997,-0.78698 -0.1518592,-1.44183 z m -2.1443555,-0.26458 c 0,-0.58208 -0.047026,-1.05833 -0.1045012,-1.05833 -0.057475,0 -0.1499187,0.47625 -0.2054291,1.05833 l -0.1009285,1.05833 h 0.2054294 0.2054294 z m 2.0842914,-2.56609 0.04927,-1.50775 -0.1881463,0.18815 c -0.2192282,0.21923 -0.3689226,2.33091 -0.1861942,2.62657 0.068251,0.11043 0.1582269,0.20079 0.199947,0.20079 0.04172,0 0.098026,-0.67849 0.1251235,-1.50776 z m -2.1681342,0.13523 -0.1389642,-0.34727 -0.020889,0.50712 -0.020889,0.50712 0.1598525,-0.15985 0.1598523,-0.15985 -0.1389642,-0.34727 z m -0.00435,-0.92053 -0.176389,-0.17639 v 0.35278 0.35278 l 0.176389,-0.17639 0.1763887,-0.17639 z m 2.1166667,-1.32292 -0.176389,-0.17638 -0.176389,0.17638 -0.1763887,0.17639 h 0.3527777 0.3527777 z m 61.8022572,-21.1655 c -0.181901,-0.0734 -0.479558,-0.0734 -0.661459,0 l -0.330729,0.13345 h 0.661459 0.661458 z m -6.22322,-1.04296 -0.159853,-0.15985 -0.347266,0.13896 -0.347265,0.13897 0.507119,0.0209 0.507116,0.0209 -0.159851,-0.15986 z m -1.339453,-0.28112 -0.17639,-0.17639 -0.176389,0.17639 -0.176388,0.17639 h 0.352777 0.352777 z m -0.97014,-0.19906 c 0,-0.061 -0.506015,-0.22501 -1.124479,-0.36453 -0.618463,-0.13951 -3.267604,-0.82325 -5.886979,-1.51941 l -4.7625,-1.26574 -2.566352,-0.0234 -2.566353,-0.0234 -0.292743,0.29264 -0.292743,0.29264 1.536179,0.15554 c 3.494241,0.35378 6.267503,0.7908 10.39972,1.63879 4.173773,0.85652 5.55625,1.05976 5.55625,0.81682 z m 8.39501,-0.31357 -0.159853,-0.15985 -0.347266,0.13896 -0.347266,0.13897 0.507119,0.0209 0.507116,0.0209 -0.15985,-0.15986 z m -49.229037,-6.36654 -0.176389,-0.17639 -0.176389,0.17639 -0.176389,0.17639 h 0.352778 0.352777 z m 17.286111,-4.05694 c -0.218282,-0.14107 -0.515938,-0.25648 -0.661459,-0.25648 H 36.77917 l 0.396875,0.25648 c 0.218281,0.14106 0.515938,0.25648 0.661458,0.25648 h 0.264584 z m -16.726039,-2.71198 0.02324,-0.8599 -0.24798,0.44029 -0.247981,0.44028 0.161021,0.41961 c 0.08856,0.23079 0.189696,0.41961 0.224742,0.41961 0.03505,0 0.07418,-0.38695 0.08696,-0.85989 z m -4.643333,-7.87136 -0.07041,-0.66145 -0.485297,-0.66146 -0.485298,-0.66146 -0.634914,-0.0807 -0.634914,-0.0807 0.876851,0.55012 0.87685,0.55012 -0.0831,0.72119 -0.0831,0.72118 -0.895422,-0.0429 -0.895422,-0.0429 -0.503945,-0.50395 -0.503944,-0.50394 0.170903,-0.44537 0.170904,-0.44537 h 0.368567 0.368568 v -0.22036 -0.22037 l -0.463021,0.0513 c -0.254661,0.0282 -0.668435,0.13901 -0.919497,0.24616 l -0.456475,0.19483 0.388818,0.75189 c 0.213851,0.41354 0.65739,0.94181 0.985643,1.17393 l 0.596823,0.42204 1.190625,-0.0753 1.190625,-0.0753 z m -5.501727,47.16198 c -0.113052,-0.40018 -0.230139,-0.8169 -0.260193,-0.92604 -0.03006,-0.10914 -0.07639,-0.2282 -0.102963,-0.26458 -0.02657,-0.0364 -0.09559,-0.48286 -0.153358,-0.99219 -0.05777,-0.50932 -0.204046,-1.64041 -0.325052,-2.51354 l -0.2200098,-1.5875 0.052381,-3.35524 0.052381,-3.35524 0.2798688,-0.48122 0.279868,-0.48122 0.03938,0.92605 c 0.02166,0.50932 0.02917,1.00365 0.0167,1.09851 -0.01247,0.0949 0.147771,1.22596 0.356098,2.51354 0.36017,2.22607 0.88733,4.18856 1.074774,4.00111 0.04772,-0.0477 -0.130664,-1.57184 -0.396404,-3.38694 -0.42516,-2.904 -0.486829,-3.90304 -0.322119,-5.21841 0.02278,-0.1819 0.133235,-0.33073 0.24546,-0.33073 h 0.204047 l 0.295382,1.5543 0.295382,1.55429 0.727329,1.62071 0.727328,1.6207 h 0.228451 0.228451 v 0.93658 0.93658 l -0.564709,1.11394 c -0.31059,0.61267 -0.68168,1.18909 -0.824644,1.28094 l -0.259935,0.167 0.293576,0.89133 0.293576,0.89134 -0.123173,0.63672 -0.123174,0.63672 -0.582504,0.62005 c -0.320377,0.34103 -0.727436,0.62005 -0.904575,0.62005 h -0.322072 z m 1.735682,-4.41615 c 0,-0.0642 -0.137459,-0.20163 -0.305463,-0.30546 l -0.305464,-0.18879 0.188787,0.30546 c 0.1885,0.305 0.42214,0.40949 0.42214,0.18879 z m 0.560135,-6.03489 -0.362456,-1.12448 -0.130519,-1.86969 -0.130519,-1.86968 -0.557505,0.0176 -0.557505,0.0176 -0.352833,-1.05833 -0.352833,-1.05834 0.166722,-0.89436 0.166722,-0.89435 0.200123,0.2329 c 0.110068,0.12809 0.357926,0.73582 0.550795,1.35051 l 0.350673,1.11761 0.450978,0.48407 0.450979,0.48407 0.590986,1.90951 0.590987,1.90952 0.770035,0.3982 c 0.423519,0.21903 0.770035,0.49347 0.770035,0.60989 0,0.11642 -0.275564,0.47055 -0.612365,0.78696 l -0.612365,0.57528 h -0.51384 -0.513839 z m 1.794977,-1.81392 -0.767612,-0.82173 -0.0019,-0.56733 c -0.001,-0.31203 -0.06171,-1.40077 -0.134837,-2.41941 l -0.132954,-1.85209 0.597855,1.5875 c 0.328821,0.87313 0.716918,1.7661 0.862439,1.98438 0.145521,0.21828 0.502708,0.57547 0.79375,0.79375 l 0.529167,0.39687 -0.32345,-0.41521 -0.323449,-0.41521 -0.416609,-1.79639 c -0.229135,-0.98801 -0.370561,-1.93225 -0.314281,-2.09832 l 0.102328,-0.30195 0.74156,1.51064 0.74156,1.51063 0.670757,0.60603 0.670758,0.60603 -0.57106,-0.82744 -0.57106,-0.82745 -0.401412,-1.54112 -0.401413,-1.54113 0.21906,-0.21906 0.21906,-0.21906 0.348943,1.05731 0.348943,1.0573 0.746758,0.86887 0.746757,0.86887 -0.485305,-1.05834 c -0.266918,-0.58208 -0.560285,-1.41552 -0.651928,-1.85208 l -0.166622,-0.79375 0.461094,0.66045 c 0.550767,0.78888 1.867666,2.11768 2.098724,2.11768 0.0903,0 -0.01291,-0.20836 -0.229349,-0.46303 -0.550776,-0.64804 -1.277384,-2.29974 -1.26883,-2.88425 l 0.0072,-0.48918 0.852737,0.93153 c 0.469005,0.51234 1.184817,1.34578 1.590693,1.85208 l 0.737957,0.92055 -0.278509,-0.58459 c -0.15318,-0.32153 -0.247135,-0.69657 -0.20879,-0.83344 l 0.06972,-0.24884 -0.219874,0.0397 c -0.26882,0.0485 -0.948454,-1.13526 -0.961376,-1.67452 l -0.0094,-0.39129 1.745981,1.79826 c 0.960289,0.98904 1.803389,1.74085 1.873556,1.67068 0.07017,-0.0702 -0.417869,-0.79723 -1.084523,-1.6157 -0.666654,-0.81847 -1.212098,-1.60256 -1.212098,-1.74242 0,-0.13986 0.114562,-0.25428 0.254583,-0.25428 0.14002,0 0.988479,0.65484 1.885463,1.4552 0.896986,0.80037 1.749501,1.45521 1.894483,1.45521 h 0.263599 l -0.363128,-0.4562 c -0.199718,-0.25091 -0.660781,-0.79735 -1.024583,-1.21431 -0.363802,-0.41696 -0.88151,-1.10464 -1.150461,-1.52818 l -0.489004,-0.77006 h 0.402289 0.402289 l 1.145048,0.87171 1.145047,0.87171 0.08855,0.64965 c 0.0487,0.3573 0.18202,0.74724 0.296265,0.86653 l 0.207719,0.21689 0.946049,-0.17748 0.94605,-0.17748 -0.316275,-0.56857 c -0.173951,-0.31272 -0.483555,-0.77694 -0.688012,-1.0316 l -0.371737,-0.46302 -0.422013,-0.008 -0.422013,-0.008 -0.859896,-0.78226 c -0.472943,-0.43026 -0.859896,-0.84349 -0.859896,-0.9183 0,-0.0748 0.169459,-0.13602 0.376575,-0.13602 0.207116,0 0.714075,0.26789 1.126571,0.59531 0.412498,0.32743 0.987181,0.74654 1.277072,0.93136 0.855641,0.54554 2.088425,1.07156 2.922974,1.24723 l 0.7791,0.16399 -0.727604,-0.41906 c -0.400183,-0.23048 -0.727605,-0.50783 -0.727605,-0.61632 0,-0.1085 0.195506,-0.47639 0.434459,-0.81754 l 0.434462,-0.62028 0.240144,0.42911 0.240146,0.42912 h 0.569183 0.569182 l -1.089919,-0.72761 c -0.599454,-0.40018 -1.48658,-1.04575 -1.971392,-1.4346 l -0.881473,-0.70701 -0.702659,-0.17531 -0.702657,-0.17532 -0.175067,0.55159 -0.175069,0.55159 h -0.317624 c -0.488715,0 -2.245808,-1.27037 -2.554258,-1.84671 l -0.274923,-0.5137 1.048754,0.37002 c 0.576815,0.20351 1.292871,0.50067 1.591234,0.66035 0.298362,0.15968 0.542477,0.24253 0.542477,0.18412 0,-0.0584 -0.55532,-0.53885 -1.234045,-1.06764 l -1.234046,-0.96144 h 0.830776 0.830775 l 0.866291,0.52818 c 0.476459,0.2905 1.07465,0.52862 1.329312,0.52917 l 0.463021,9.8e-4 v 0.47355 0.47354 l 2.318305,0.98167 2.318306,0.98166 0.790549,-0.0271 0.790548,-0.0272 -1.326168,-0.43587 c -0.729393,-0.23973 -1.881688,-0.7633 -2.560656,-1.16348 -0.678969,-0.40019 -1.391881,-0.72943 -1.584249,-0.73166 l -0.34976,-0.004 0.349303,-0.22147 0.3493,-0.22148 1.502783,0.35369 c 0.826529,0.19452 2.015823,0.35554 2.642875,0.35782 l 1.140093,0.004 -0.138457,-0.22403 -0.138456,-0.22403 -1.133928,0.0549 -1.13393,0.0549 -0.904094,-0.61289 -0.904095,-0.61289 -0.24825,0.15342 c -0.136536,0.0844 -0.653894,0.2081 -1.149686,0.27491 l -0.901436,0.12148 -1.163725,-0.56335 -1.163722,-0.56335 -0.155932,-0.40635 c -0.08576,-0.2235 -0.155935,-0.45046 -0.155935,-0.50436 0,-0.0539 0.535781,0.0633 1.190625,0.26033 0.654844,0.19708 1.190625,0.30194 1.190625,0.23303 0,-0.0689 0.182039,0.0567 0.404532,0.27924 l 0.404532,0.40453 0.407003,-0.15618 0.407001,-0.15619 -0.282366,-0.28236 c -0.587817,-0.58782 -0.242689,-0.61948 0.842111,-0.0772 l 1.124479,0.56206 2.032082,0.0185 2.032082,0.0185 0.421989,0.35022 0.421989,0.35022 -0.398198,0.44 -0.398195,0.44001 0.378132,0.53985 0.378129,0.53986 -0.04239,0.56281 -0.04239,0.5628 -0.303469,0.11645 -0.303469,0.11645 -0.163711,0.81856 -0.163714,0.81856 -0.217114,-0.0682 c -0.277879,-0.0873 -1.911954,1.27462 -1.911954,1.59351 0,0.32165 -1.026689,1.23694 -1.412906,1.25961 -0.168789,0.01 -0.627507,0.1548 -1.019379,0.32199 -0.391872,0.16719 -1.332741,0.3616 -2.09082,0.43202 l -1.378328,0.12803 -0.178422,0.28869 -0.178421,0.2887 -1.038051,0.11387 c -0.570926,0.0626 -1.811954,0.18468 -2.757839,0.27122 l -1.719792,0.15736 -1.121369,0.65659 c -0.616753,0.36112 -1.099179,0.74169 -1.072058,0.8457 0.02712,0.10401 -0.04183,0.45699 -0.153232,0.78442 l -0.202542,0.59531 H 17.84363 17.332293 v 0.40342 0.40343 l -0.678683,0.25803 c -0.373275,0.14192 -0.742225,0.25804 -0.819888,0.25804 -0.07766,0 -0.486631,-0.36978 -0.908817,-0.82174 z M 9.7140307,252.06115 9.444142,251.73333 9.392661,250.80729 c -0.028314,-0.50932 -0.039417,-1.09093 -0.024672,-1.29245 l 0.026806,-0.36641 0.5291667,0.67272 0.5291673,0.67273 v 0.80255 0.80255 l -0.234605,0.14499 -0.2346041,0.14499 z m 3.1299863,-2.70907 c -0.172274,-0.43656 -0.364953,-1.38906 -0.428176,-2.11667 l -0.114952,-1.32291 0.431813,0.92604 c 0.237496,0.50932 0.518827,1.2237 0.625178,1.5875 l 0.193366,0.66146 -0.197003,0.52916 -0.197002,0.52917 z m 1.068288,-1.56389 -0.309783,-0.37327 -0.136988,-1.01579 -0.136989,-1.0158 0.677603,1.05833 c 0.694166,1.08421 0.859782,1.7198 0.448127,1.7198 -0.127702,0 -0.371589,-0.16798 -0.54197,-0.37327 z M 15.0818,247.6298 c -0.09372,-0.15163 -0.227214,-0.95725 -0.296662,-1.79025 l -0.126269,-1.51455 0.37583,0.66146 c 0.206706,0.3638 0.454693,1.09865 0.551081,1.63301 l 0.175252,0.97155 -0.25442,0.15724 -0.254419,0.15724 z m 1.050786,-1.07341 -0.419549,-0.81132 0.08592,-0.71004 0.08592,-0.71003 0.591421,1.2904 c 0.325281,0.70972 0.591421,1.39433 0.591421,1.52136 0,0.12702 -0.116005,0.23095 -0.257789,0.23095 h -0.257789 z m 0.944298,-0.94937 c -0.299616,-0.67733 -0.4975,-1.27877 -0.43974,-1.33652 0.16519,-0.16519 1.753484,1.85604 1.753484,2.23145 v 0.33659 h -0.384494 -0.384493 z m 1.657512,0.37162 c -0.298224,-0.32742 -0.685812,-0.8734 -0.861308,-1.21328 l -0.319083,-0.61798 0.139685,-0.13968 0.139685,-0.13969 0.938821,1.02225 c 0.892816,0.97214 1.198316,1.6837 0.722886,1.6837 -0.120154,0 -0.462463,-0.2679 -0.760686,-0.59532 z M 54.24167,245.6126 c -2.328333,-0.4944 -5.576422,-1.06515 -7.217974,-1.26833 l -2.984637,-0.36941 -3.608911,0.2402 c -1.984902,0.13211 -3.656997,0.19211 -3.715769,0.13334 -0.05877,-0.0588 0.824733,-0.17705 1.963341,-0.26284 1.13861,-0.0858 2.725044,-0.24661 3.525408,-0.35736 l 1.455209,-0.20138 1.5875,0.20559 c 2.713159,0.35135 6.790531,0.98257 8.863541,1.37216 2.234549,0.41994 5.36234,1.18728 5.532284,1.35723 0.260054,0.26005 -1.421632,-0.004 -5.399992,-0.8492 z m -34.320827,-0.0308 c -0.222136,-0.25466 -0.547892,-0.74111 -0.723902,-1.081 l -0.320019,-0.61797 0.173179,-0.17318 0.173179,-0.17318 0.906591,1.01881 c 0.498625,0.56034 0.906591,1.12472 0.906591,1.25417 v 0.23537 h -0.355868 c -0.195727,0 -0.537616,-0.20836 -0.759751,-0.46302 z m 1.322916,-0.52917 c -0.427191,-0.48974 -1.001047,-1.50968 -1.001047,-1.77921 0,-0.0882 0.47625,0.2803 1.058333,0.81886 0.582083,0.53856 1.058333,1.07914 1.058333,1.20129 0,0.38928 -0.69724,0.2387 -1.115619,-0.24094 z m 5.887168,-0.37909 -0.6199,-0.57752 0.503865,-0.19763 c 0.277124,-0.10869 0.567832,-0.206 0.646019,-0.21622 0.07819,-0.0102 0.169376,0.33859 0.202642,0.77515 0.03326,0.43656 0.02151,0.79375 -0.02611,0.79375 -0.04763,0 -0.365559,-0.25989 -0.706504,-0.57753 z m -5.348161,-0.73058 -1.086112,-1.08611 0.15467,-0.15467 0.154671,-0.15467 0.86964,0.62417 c 0.478303,0.3433 1.096877,0.74324 1.374611,0.88876 l 0.504969,0.26459 -0.02248,0.26458 -0.02248,0.26458 -0.420684,0.0874 -0.420684,0.0874 -1.086112,-1.08611 z m 1.482638,-0.34554 c -0.698744,-0.47294 -1.313437,-0.99673 -1.365983,-1.16397 l -0.09554,-0.30408 0.880605,0.30408 c 1.037937,0.3584 2.320724,1.31534 2.320724,1.73122 0,0.16095 -0.105607,0.29265 -0.234682,0.29265 -0.129075,0 -0.806381,-0.38695 -1.505126,-0.8599 z m 20.260641,-10.80745 c -0.218281,-0.14253 -1.289844,-0.73889 -2.38125,-1.32525 l -1.984375,-1.0661 1.434947,0.14315 1.434949,0.14315 -0.244324,-0.22559 c -0.134377,-0.12407 -0.718675,-0.37746 -1.298443,-0.56309 l -1.054119,-0.33751 0.524952,-0.18699 0.524955,-0.18699 1.058333,0.11788 c 0.582083,0.0648 1.519679,0.29146 2.083546,0.50361 1.796442,0.67589 1.289111,0.22544 -0.653894,-0.58058 l -1.869765,-0.77563 0.02162,-0.26459 0.02162,-0.26458 1.124479,9e-5 c 0.618463,5e-5 1.541198,0.0808 2.050521,0.1794 l 0.926041,0.17931 -1.836301,-0.86027 -1.8363,-0.86026 0.327141,-0.20218 0.327139,-0.20218 1.37687,0.18061 1.376868,0.18061 1.140047,0.65656 1.140048,0.65657 -0.327814,0.39499 -0.327816,0.395 -0.547648,-0.13753 -0.54765,-0.13753 0.463021,0.34674 0.46302,0.34674 v 0.56614 0.56615 h -0.702466 -0.702466 l 0.424498,0.46906 0.424497,0.46907 -0.2228,0.36049 -0.222798,0.3605 -0.756004,-0.18968 -0.756002,-0.18968 0.727604,0.62531 c 0.400182,0.34393 0.727604,0.71082 0.727604,0.81533 v 0.19001 l -0.727604,-0.0155 c -0.400182,-0.009 -0.906198,-0.13218 -1.124479,-0.27471 z m -6.283854,-4.66301 c -0.472943,-0.23892 -0.859896,-0.53186 -0.859896,-0.65098 v -0.21658 h 0.886561 c 0.487606,0 1.266922,0.1326 1.731814,0.29466 l 0.845256,0.29466 -0.09855,0.30065 -0.09854,0.30066 -0.773375,0.0557 -0.773374,0.0557 z m 1.416584,-1.35912 -1.797724,-0.69906 1.006223,-0.16573 1.006224,-0.16572 1.068038,0.30923 1.068038,0.30922 0.0806,0.41852 0.0806,0.41852 -0.357135,0.13704 -0.357134,0.13705 z m 7.24852,-0.0344 c -0.509323,-0.29012 -1.461823,-0.76777 -2.116667,-1.06145 l -1.190625,-0.53397 1.984375,0.0928 1.984375,0.0928 1.141791,0.58521 1.141791,0.5852 -0.10391,0.31652 -0.10391,0.31652 -0.905589,0.0669 -0.905589,0.0669 z m 3.704167,-0.70541 c -0.363802,-0.0615 -1.733021,-0.49426 -3.042709,-0.96161 l -2.38125,-0.84972 0.79375,-0.0909 0.79375,-0.0909 1.984375,0.30837 c 1.091407,0.16961 2.438318,0.42549 2.993139,0.56862 l 1.008764,0.26024 -0.08499,0.44836 -0.08498,0.44836 -0.659196,0.0356 c -0.362558,0.0196 -0.956852,-0.0148 -1.320654,-0.0763 z M 39.572599,225.5155 c -0.646425,-0.20275 -1.295315,-0.48864 -1.441979,-0.6353 l -0.26666,-0.26666 h 1.65781 1.65781 l 0.511773,0.27389 0.511773,0.27389 v 0.38757 0.38756 l -0.727604,-0.0262 c -0.400182,-0.0144 -1.256498,-0.19205 -1.902923,-0.3948 z m 13.346152,-0.6516 c -0.582083,-0.12927 -2.129895,-0.47723 -3.439583,-0.77324 -1.309687,-0.29602 -2.678906,-0.58827 -3.042708,-0.64946 -0.363802,-0.0612 -0.72099,-0.13951 -0.79375,-0.17404 -0.07276,-0.0345 0.522552,-0.13268 1.322916,-0.2181 l 1.455209,-0.15531 1.058333,0.17795 c 0.582083,0.0979 1.772708,0.25824 2.645833,0.35636 0.873125,0.0981 1.885157,0.3173 2.248959,0.48707 l 0.661458,0.30866 v 0.39331 0.39331 l -0.529167,0.0443 c -0.291041,0.0243 -1.005416,-0.0615 -1.5875,-0.19078 z m -11.173737,-0.8325 c -0.906807,-0.12154 -1.965116,-0.34126 -2.3518,-0.48828 l -0.703061,-0.2673 0.169651,-0.16965 0.169651,-0.16965 2.292445,0.0322 2.292448,0.0322 0.38359,0.38359 0.38359,0.38359 -0.49389,0.24212 -0.493887,0.24212 z m 10.909154,-0.87063 c -1.891771,-0.3317 -3.499115,-0.63491 -3.571875,-0.6738 -0.217734,-0.11636 -0.623522,-0.19083 -1.322917,-0.24276 l -0.661458,-0.0491 0.452287,-0.17985 0.452289,-0.17984 3.648752,0.17623 c 3.451654,0.16671 4.200446,0.24639 5.982526,0.63664 l 0.746273,0.16342 -0.150961,0.39339 c -0.08303,0.21637 -0.150958,0.44319 -0.150958,0.50405 0,0.24255 -2.156782,0.0245 -5.423958,-0.54837 z m -10.137619,-0.67011 c -1.353206,-0.19705 -1.852705,-0.39479 -1.610093,-0.6374 0.09908,-0.0991 3.740423,-0.21995 5.066983,-0.1682 l 0.463021,0.0181 v 0.36857 0.36857 l -0.418516,0.1606 c -0.511349,0.19622 -1.641213,0.16066 -3.501395,-0.1102 z m 13.974077,-0.42796 c -0.945885,-0.17303 -2.493698,-0.39215 -3.439583,-0.48695 -1.744795,-0.17485 -2.617332,-0.3237 -3.571875,-0.60932 l -0.529167,-0.15834 1.058334,-0.2012 1.058333,-0.2012 4.233333,0.0786 4.233334,0.0786 0.727604,0.29897 0.727604,0.29897 v 0.39838 0.39838 l -0.595313,0.12299 c -0.327421,0.0676 -0.9525,0.16207 -1.389062,0.20984 l -0.79375,0.0868 z m -44.580418,-1.1503 -0.161649,-0.26155 0.410617,0.15757 c 0.458369,0.17589 0.542234,0.36553 0.161649,0.36553 -0.136933,0 -0.321711,-0.1177 -0.410617,-0.26155 z m 48.965805,-0.73292 c -0.05786,-0.0579 -2.705351,-0.15412 -5.883315,-0.21391 -3.177963,-0.0598 -5.956707,-0.11839 -6.174988,-0.13022 l -0.396875,-0.0215 0.529166,-0.22739 0.529167,-0.22739 4.608161,-0.0186 4.608158,-0.0186 -0.144825,-0.14482 c -0.07966,-0.0797 -2.212859,-0.1414 -4.740453,-0.1372 l -4.595624,0.008 -0.358976,-0.22661 -0.358979,-0.22662 0.228867,-0.14144 c 0.125878,-0.0778 0.823198,-0.17216 1.549604,-0.20969 l 1.320734,-0.0683 0.286729,-0.21614 0.286731,-0.21613 1.829935,-0.16887 c 1.006467,-0.0929 2.068063,-0.25255 2.359105,-0.35484 l 0.529166,-0.18597 2.778125,0.0888 2.778125,0.0888 0.727604,0.29405 c 0.400183,0.16173 0.727605,0.38875 0.727605,0.50449 0,0.11574 -0.327422,0.33002 -0.727605,0.47618 l -0.727604,0.26575 1.058334,0.0219 1.058333,0.0219 0.859896,0.52429 0.859896,0.52428 v 0.28619 0.28618 l -2.649498,-0.0655 c -1.457225,-0.036 -2.696837,-0.11281 -2.754699,-0.17067 z m -1.827747,-1.29858 -0.17639,-0.17639 v 0.35278 0.35277 l 0.17639,-0.17638 0.176387,-0.17639 z m 2.66237,0.0165 -0.159853,-0.15985 -0.347266,0.13897 -0.347266,0.13896 0.507119,0.0209 0.507117,0.0209 -0.159851,-0.15985 z m -54.6474485,0.0781 -1.1079776,-1.12895 v -0.32071 -0.32072 H 5.5739498 c -0.2096932,0 -0.4597405,-0.12698 -0.555661,-0.28218 -0.3122083,-0.50517 0.081833,-0.56396 0.7677237,-0.11454 0.3687556,0.24161 0.7660392,0.45063 0.8828519,0.46448 0.3394609,0.0402 2.4613455,1.36774 2.4613455,1.53987 0,0.0859 -0.3519501,0.15626 -0.7821113,0.15626 H 7.5659871 l 0.1615334,-0.26136 0.1615334,-0.26137 -0.3414556,0.21103 -0.3414554,0.21103 0.6273512,0.47322 0.6273514,0.47321 -0.1448401,0.14484 -0.1448403,0.14484 z m -0.049644,-0.54736 c 0,-0.0549 -0.2083594,-0.2633 -0.4630208,-0.46302 l -0.4630209,-0.36312 0.3631261,0.46302 c 0.3456435,0.44073 0.5629156,0.58089 0.5629156,0.36312 z m 2.38125,0.87804 v -0.2802 l 0.2645833,0.16352 c 0.1455209,0.0899 0.2645834,0.21603 0.2645834,0.2802 0,0.0642 -0.1190625,0.11667 -0.2645834,0.11667 -0.1455208,0 -0.2645833,-0.12609 -0.2645833,-0.28019 z m -0.6462086,-2.34096 -0.1482717,-0.23991 0.5295318,0.13847 c 0.2912425,0.0762 0.5295318,0.18412 0.5295318,0.23991 0,0.0558 -0.1715669,0.10143 -0.3812601,0.10143 -0.2096931,0 -0.4479824,-0.10795 -0.5295318,-0.2399 z"
         id="path2211"
         inkscape:connector-curvature="0" />
      <path
         style="fill:#0000ff;stroke-width:0.26458335"
         d="m 5.6906265,273.56146 v -0.79375 l 0.3307292,-0.004 0.3307292,-0.004 -0.396875,-0.25649 -0.396875,-0.25648 0.363126,-0.004 0.3631258,-0.004 -0.2946844,-0.35508 c -0.1620766,-0.19529 -0.245695,-0.40406 -0.1858187,-0.46394 0.059876,-0.0599 0.1795595,-1.95392 0.2659626,-4.20898 0.086403,-2.25507 0.2205037,-4.87403 0.2980015,-5.81992 0.1688029,-2.06029 0.6474291,-4.53735 0.9411486,-4.87076 l 0.2119151,-0.24056 0.00561,5.13535 c 0.00309,2.82443 0.080779,6.08784 0.1726525,7.252 l 0.1670431,2.11667 -0.317803,1.19063 -0.3178026,1.19062 -0.5516293,0.59531 c -0.3033961,0.32743 -0.6499376,0.59532 -0.770092,0.59532 H 5.6906265 Z m 0.6501593,0.28286 0.1522225,-0.2463 -0.2688992,-0.16619 -0.2688992,-0.16619 v 0.41249 c 0,0.46475 0.1587645,0.53318 0.3855759,0.16619 z m 0.3199797,-4.428 -0.176389,-0.17639 -0.1763889,0.17639 -0.1763888,0.17639 h 0.3527777 0.3527777 z m -2.2930556,3.35139 v -0.35278 l 0.176389,0.17639 0.1763887,0.17639 -0.1763887,0.17639 -0.176389,0.17638 z m -0.1583762,-1.20036 -0.1684578,-0.67119 0.1750475,-2.43766 c 0.096276,-1.34072 0.2867822,-3.27111 0.4233466,-4.28975 0.1365647,-1.01865 0.3120419,-3.45943 0.3899498,-5.42396 0.077908,-1.96453 0.2730122,-4.91321 0.433565,-6.55262 l 0.2919143,-2.98075 0.2368629,-0.14639 0.236863,-0.14639 -0.1628326,-0.26347 -0.1628327,-0.26347 0.1682474,-0.89683 0.1682475,-0.89684 0.3209986,0.0769 c 0.1765491,0.0423 0.2317015,0.027 0.1225608,-0.0341 -0.2581873,-0.14439 -0.2581873,-0.86057 0,-0.86081 l 0.1984375,-1.9e-4 0.040357,-0.69662 c 0.022196,-0.38315 0.191144,-0.97838 0.3754384,-1.32273 l 0.3350808,-0.62611 h 0.3677809 0.3677806 l -0.1635215,-0.26458 -0.1635215,-0.26458 0.7432191,-0.0186 0.7432191,-0.0186 -0.5098217,-0.19972 -0.5098219,-0.19972 0.4675526,-0.17941 c 0.2571538,-0.0987 0.5624277,-0.12078 0.6783864,-0.0491 l 0.210834,0.13031 -0.036273,-0.45342 -0.036273,-0.45342 0.8143602,-0.27134 c 0.447898,-0.14924 1.281336,-0.57937 1.852083,-0.95585 l 1.037724,-0.68452 1.521354,-0.47617 1.521354,-0.47619 -0.0082,-0.4268 c -0.0045,-0.23474 -0.591867,-1.55789 -1.305256,-2.94034 -0.713389,-1.38245 -1.6737,-3.26092 -2.134026,-4.17439 l -0.836955,-1.66084 0.149533,-0.38968 0.149532,-0.38968 h -0.344179 -0.344179 l -0.300708,-0.85989 c -1.326944,-3.79449 -2.1160529,-6.16018 -2.0701942,-6.2063 0.029937,-0.0301 1.0310072,0.31807 2.2246002,0.77371 l 2.170169,0.82844 0.157835,-0.15783 0.157836,-0.15783 -1.090215,-1.47578 c -0.599619,-0.81167 -1.016345,-1.47577 -0.926058,-1.47577 0.09029,0 -0.144083,-0.36632 -0.520821,-0.81405 l -0.684978,-0.81405 v -0.45595 c 0,-0.25077 -0.131047,-0.58699 -0.291217,-0.74716 l -0.291217,-0.29122 0.489655,-0.14987 c 0.26931,-0.0824 1.918404,-0.1174 3.664654,-0.0777 l 3.175,0.0721 1.190625,0.36544 1.190625,0.36544 1.175763,0.79234 c 0.646669,0.43578 1.571853,1.20019 2.055963,1.6987 0.484111,0.4985 1.201154,1.45917 1.593429,2.13481 0.392275,0.67565 0.866075,1.38579 1.052889,1.57808 0.186815,0.1923 0.339664,0.50999 0.339664,0.70598 v 0.35635 l 1.49283,1.87371 1.492832,1.87371 h 0.309496 0.309494 l 0.600152,-0.81175 c 0.708469,-0.95825 2.635102,-3.09429 4.148402,-4.59929 l 1.077161,-1.07125 1.488543,-0.88372 1.488546,-0.88372 1.667626,-0.0995 1.667627,-0.0995 -1.006989,0.21635 -1.006988,0.21635 -1.058889,1.03143 -1.058889,1.03144 -0.508238,1.14551 c -0.27953,0.63003 -0.846264,1.58253 -1.259409,2.11667 -0.955082,1.23477 -2.434973,3.67667 -2.434973,4.01783 v 0.26061 h 0.784503 c 0.431477,0 1.354211,0.1837 2.05052,0.40821 0.69631,0.22452 3.290081,1.40898 5.763935,2.63214 2.473854,1.22316 5.658916,2.70064 7.077916,3.28328 l 2.579997,1.05936 3.296926,0.80642 c 1.813308,0.44353 3.546599,0.80642 3.851762,0.80642 h 0.554836 l -0.188785,0.30547 -0.188789,0.30546 0.29881,-0.18467 0.298807,-0.18467 2.18947,0.51831 2.189467,0.51832 2.182812,0.18881 2.182813,0.1888 v 0.20184 0.20184 l 1.5875,0.47553 1.5875,0.47553 v 0.19668 c 0,0.10817 -0.251003,0.27634 -0.557779,0.37371 l -0.557781,0.17703 -1.49274,-0.18473 -1.492742,-0.18474 0.171527,0.17502 c 0.09434,0.0962 0.907304,0.34665 1.806583,0.55644 l 1.635053,0.38143 0.37623,0.37623 0.376232,0.37623 v 0.98006 0.98005 l -0.595313,0.51741 c -0.531405,0.46186 -2.137455,1.26445 -2.530276,1.26445 -0.0828,0 0.08057,-0.17481 0.36304,-0.38846 l 0.513591,-0.38846 -1.889263,-0.008 -1.889265,-0.008 -2.608652,-0.66914 c -1.434761,-0.36802 -4.037404,-1.1614 -5.783654,-1.76305 -1.74625,-0.60166 -5.55625,-1.9124 -8.466666,-2.91275 l -5.291667,-1.81884 2.38125,0.15949 2.38125,0.15948 -0.321217,-0.32517 -0.321218,-0.32516 -1.663157,-0.32755 -1.663158,-0.32755 1.058333,-0.0175 c 1.438513,-0.0238 5.282473,0.5545 10.054167,1.51268 5.887421,1.18222 8.877009,1.70273 9.010867,1.56887 0.113583,-0.11358 -11.073889,-3.02323 -14.699409,-3.82304 l -1.719791,-0.3794 -1.808348,0.002 -1.808348,0.002 -2.429877,1.18989 -2.429876,1.18989 -1.567211,0.24576 -1.567215,0.24577 -1.999771,-0.51379 c -1.099873,-0.28259 -2.833208,-0.6948 -3.851854,-0.91603 l -1.852084,-0.40224 -3.34255,0.13373 -3.342552,0.13374 -1.419949,0.60135 c -1.4534,0.61551 -3.328464,1.72305 -3.801199,2.24525 -0.14552,0.16074 -0.558966,0.48827 -0.918767,0.72785 l -0.654184,0.43557 -1.727066,0.004 -1.727066,0.004 0.395586,0.25009 0.395586,0.25008 -0.527877,0.39891 c -0.562911,0.42539 -0.823101,0.50343 -1.45392,0.43606 l -0.396875,-0.0424 0.369259,0.2489 0.369258,0.24889 -0.832279,0.43039 c -0.457754,0.23672 -0.8322799,0.51701 -0.8322799,0.62287 0,0.10586 -0.5896152,0.81718 -1.3102563,1.58071 -0.7206409,0.76352 -1.2514033,1.38822 -1.1794718,1.38822 0.071931,0 -0.1962623,0.55807 -0.5959864,1.24014 l -0.7267707,1.24014 -0.041556,7.29268 -0.041555,7.29267 -0.2052495,1.94049 -0.2052494,1.9405 -0.3826783,0.14684 -0.3826785,0.14685 0.3216487,0.19879 0.3216486,0.19879 -0.1791618,0.95501 -0.1791618,0.95502 H 4.625345 4.3777916 Z m 65.1576823,-25.96353 -0.17639,-0.17639 -0.17639,0.17639 -0.176387,0.17639 h 0.352777 0.352777 z m 0.79375,-0.26459 -0.17639,-0.17639 -0.17639,0.17639 -0.176387,0.17639 h 0.352777 0.352777 z m -61.9125005,-1.85208 -0.176389,-0.17639 -0.176389,0.17639 -0.1763887,0.17639 h 0.3527777 0.3527777 z m 58.2248705,-1.57096 -0.159853,-0.15986 -0.347266,0.13897 -0.347266,0.13896 0.507119,0.0209 0.507116,0.0209 -0.15985,-0.15985 z m -54.768751,-0.26459 -0.159852,-0.15985 -0.347266,0.13897 -0.347265,0.13896 0.507118,0.0209 0.507118,0.0209 -0.159853,-0.15985 z m 2.364714,-0.28112 -0.176389,-0.17639 -0.176389,0.17639 -0.176389,0.17639 h 0.352778 0.352778 z m 1.675694,-0.61736 c 0,-0.14552 -0.126089,-0.26458 -0.280198,-0.26458 h -0.280198 l 0.163521,0.26458 c 0.08994,0.14552 0.216026,0.26458 0.280198,0.26458 0.06417,0 0.116677,-0.11906 0.116677,-0.26458 z m -0.41401,-0.76603 0.146388,-0.23685 -0.381881,-0.14655 -0.381881,-0.14653 0.147124,0.3834 c 0.08092,0.21087 0.186891,0.38339 0.235494,0.38339 0.0486,0 0.154244,-0.10658 0.234756,-0.23686 z m 1.472343,-0.284 v -0.25628 l -0.396875,0.1523 c -0.218281,0.0838 -0.396875,0.19909 -0.396875,0.25628 0,0.0572 0.178594,0.10398 0.396875,0.10398 h 0.396875 z m 1.780426,-3.07857 -0.159853,-0.15985 -0.347265,0.13896 -0.347266,0.13897 0.507118,0.0209 0.507118,0.0209 -0.159852,-0.15986 z m 3.423047,-0.28112 -0.176389,-0.17639 -0.176389,0.17639 -0.176389,0.17639 h 0.352778 0.352777 z m -4.497917,-0.26458 -0.176389,-0.17639 -0.176389,0.17639 -0.176389,0.17638 h 0.352778 0.352778 z m 6.50434,-0.26343 c -0.181901,-0.0734 -0.479557,-0.0734 -0.661458,0 l -0.330729,0.13346 h 0.661458 0.661458 z m -3.285171,-1.80907 -0.144819,-0.14482 -0.418038,0.16042 -0.418038,0.16041 0.151766,0.3955 0.151765,0.39549 0.411091,-0.41109 0.411092,-0.41109 z m -2.690002,0.22041 -0.176389,-0.17639 -0.176389,0.17639 -0.176389,0.17639 h 0.352778 0.352778 z m 8.202084,-0.52917 -0.17639,-0.17638 -0.17639,0.17638 -0.176387,0.17639 h 0.352777 0.352777 z m -5.820834,-0.52916 -0.176389,-0.17639 -0.176389,0.17639 -0.176389,0.17639 h 0.352778 0.352777 z m 0.08819,-0.74965 c 0,-0.0416 -0.15875,-0.1366 -0.352778,-0.21105 l -0.352778,-0.13538 v 0.34643 0.34642 l 0.352778,-0.13537 c 0.194028,-0.0745 0.352778,-0.16943 0.352778,-0.21105 z m 11.024307,-0.0441 -0.17639,-0.17639 -0.17639,0.17639 -0.176387,0.17639 h 0.352777 0.352777 z m 0.08819,-0.46945 c 0,-0.0642 -0.119062,-0.19027 -0.264583,-0.2802 l -0.264584,-0.16352 v 0.28019 c 0,0.15411 0.119063,0.2802 0.264584,0.2802 0.145521,0 0.264583,-0.0525 0.264583,-0.11667 z m -15.875,-3.175 c 0,-0.0642 -0.137459,-0.20164 -0.305463,-0.30547 l -0.305464,-0.18879 0.188787,0.30547 c 0.1885,0.305 0.42214,0.40948 0.42214,0.18879 z m 1.124479,-0.0586 c -0.181901,-0.0734 -0.479557,-0.0734 -0.661458,0 l -0.330729,0.13346 h 0.661458 0.661458 z m 3.30178,-0.24921 -0.159853,-0.15985 -0.347265,0.13897 -0.347266,0.13896 0.507118,0.0209 0.507118,0.0209 -0.159852,-0.15985 z m 0.92412,-0.88298 -0.114224,-0.77825 -0.343791,0.31523 c -0.189085,0.17338 -0.325423,0.4343 -0.302974,0.57982 0.04229,0.27413 0.45579,0.65032 0.722599,0.6574 l 0.152613,0.004 -0.114223,-0.77825 z m 4.102963,0.6184 -0.159852,-0.15985 -0.347266,0.13897 -0.347266,0.13896 0.507119,0.0209 0.507117,0.0209 -0.159852,-0.15985 z m -0.01654,-0.81029 -0.176389,-0.17638 -0.176389,0.17638 -0.176389,0.17639 h 0.352778 0.352777 z m -5.55625,-2.64583 -0.176389,-0.17639 -0.176389,0.17639 -0.176389,0.17639 h 0.352778 0.352777 z m -4.233334,-2.38125 -0.176389,-0.17639 -0.176388,0.17639 -0.176389,0.17639 h 0.352777 0.352778 z m 1.017433,-2.21003 0.166719,-0.26976 -0.304585,-0.9229 -0.304584,-0.9229 -0.490583,-0.26255 -0.490584,-0.26255 h -1.155102 -1.155102 l -0.296825,0.29682 -0.296824,0.29683 0.150402,0.43078 c 0.08272,0.23692 0.45288,0.7582 0.822575,1.15838 l 0.672174,0.7276 h 1.2578 1.257801 z m -1.915532,-0.23765 c -0.32418,-0.0847 -0.839284,-0.36903 -1.144674,-0.63178 l -0.555256,-0.47772 0.317175,-0.38217 0.317176,-0.38218 h 0.742454 0.742455 l 0.415773,0.41578 0.415774,0.41577 v 0.48196 0.48196 l -0.330729,0.11622 c -0.181901,0.0639 -0.595968,0.0469 -0.920148,-0.0378 z m -5.7326758,51.08797 c -0.074589,-0.12068 -0.2608704,-1.00349 -0.4139589,-1.96178 l -0.2783424,-1.74236 0.023331,-2.95292 0.023331,-2.95292 0.375013,0.1439 0.3750127,0.14391 V 261.38228 261.126 H 8.4770555 8.0884844 l 0.1082699,-0.33073 c 0.1150572,-0.35146 0.373924,-3.95381 0.3929377,-5.46806 0.00624,-0.49719 0.066341,-0.849 0.1335516,-0.78179 0.067211,0.0672 0.1892814,1.36698 0.2712691,2.88837 0.1643708,3.05013 0.4843812,5.63746 1.0947963,8.85158 l 0.401989,2.11667 -0.364042,1.05833 -0.3640424,1.05834 -0.3069802,-0.063 -0.3069799,-0.063 0.1510774,0.39371 0.1510773,0.3937 H 9.1741323 c -0.1525019,0 -0.3383032,-0.0987 -0.4128921,-0.21944 z M 8.8656155,267.476 c 0,-0.14552 -0.052504,-0.26458 -0.1166767,-0.26458 -0.064172,0 -0.1902614,0.11906 -0.2801983,0.26458 L 8.30523,267.74062 h 0.2801983 c 0.1541089,0 0.2801982,-0.11906 0.2801982,-0.26458 z m 2.1070715,-0.95128 c -0.143595,-0.37768 -0.438304,-1.70297 -0.65491,-2.94508 l -0.3938281,-2.25837 0.031304,-3.33878 0.031304,-3.33878 0.2019751,-0.79375 0.201975,-0.79375 0.0313,1.27223 c 0.01722,0.69973 0.163835,2.12642 0.325817,3.17041 l 0.294512,1.89818 1.01577,2.83558 1.01577,2.83558 -0.111444,0.57868 c -0.137653,0.71478 -0.879612,1.56455 -1.366051,1.56455 h -0.362417 z m 1.198742,-5.66933 c -0.250445,-1.02197 -0.49015,-2.36142 -0.532677,-2.97657 -0.04253,-0.61515 -0.154228,-1.30958 -0.248224,-1.54319 l -0.1709,-0.42474 0.08348,-1.69193 0.08348,-1.69192 0.158617,0.39688 c 0.08724,0.21828 0.297663,0.99218 0.46761,1.71979 l 0.308994,1.32291 0.91774,1.90192 c 0.504757,1.04605 0.91774,2.02513 0.91774,2.17573 0,0.41505 -1.137668,2.66923 -1.347138,2.66923 -0.100848,0 -0.38827,-0.83615 -0.638715,-1.85811 z m 1.72127,-0.37523 c 0,-0.0642 -0.137459,-0.20163 -0.305464,-0.30547 l -0.305464,-0.18879 0.188787,0.30547 c 0.1885,0.305 0.422141,0.40949 0.422141,0.18879 z m -1.142176,-1.52044 -0.138964,-0.34726 -0.02089,0.50712 -0.02089,0.50711 0.159853,-0.15985 0.159852,-0.15985 z m 0.921802,-1.89593 c -0.439419,-0.55592 -0.877082,-2.26779 -0.975653,-3.81614 l -0.09745,-1.53076 0.245812,-0.38868 0.245812,-0.38867 0.004,0.35615 c 0.0022,0.19589 0.198311,1.02438 0.435738,1.8411 l 0.431686,1.48495 0.757908,0.75791 0.757907,0.75791 -0.255173,0.47679 -0.255173,0.4768 -0.527818,0.13803 -0.527817,0.13802 -0.23983,-0.30341 z m -7.0428043,-1.81932 -0.3840641,-0.91919 0.089287,-0.76683 c 0.049108,-0.42175 0.1028621,-0.91565 0.1194546,-1.09756 l 0.030168,-0.33072 h 0.2928909 0.2928908 l -0.1423691,0.371 -0.1423691,0.37101 0.1709782,0.17098 c 0.094038,0.094 0.3057001,0.70157 0.4703599,1.35006 l 0.2993813,1.17909 -0.3562718,0.29568 -0.3562718,0.29567 z m 8.1670343,-1.04054 -0.43265,-0.83665 -0.107593,-1.61075 -0.107593,-1.61074 0.538978,1.16305 c 0.296439,0.63967 0.478761,1.22326 0.405161,1.29686 -0.0736,0.0736 0.179751,0.2965 0.563002,0.49533 0.38325,0.19883 0.755602,0.30273 0.827449,0.23089 0.07185,-0.0719 0.0085,-0.28234 -0.140753,-0.46776 -0.14926,-0.18542 -0.404351,-0.96806 -0.566869,-1.73921 -0.162519,-0.77114 -0.292862,-1.48552 -0.289651,-1.5875 0.0032,-0.10197 0.363107,0.42734 0.79977,1.17625 0.436662,0.74892 0.972694,1.51002 1.191181,1.69135 l 0.39725,0.32969 0.168373,-0.16837 0.168372,-0.16838 -0.432383,-0.47778 c -0.507594,-0.56088 -1.240067,-2.52494 -1.240067,-3.32512 V 248.037 l 0.561962,1.05442 c 0.799658,1.5004 1.547187,2.50962 1.858884,2.50962 h 0.268146 l -0.516758,-0.8599 c -0.284217,-0.47294 -0.600642,-1.21437 -0.703168,-1.64762 l -0.186409,-0.78772 1.111067,1.26224 c 0.611086,0.69423 1.163931,1.20937 1.228543,1.14476 0.06461,-0.0646 -0.188184,-0.72067 -0.56177,-1.45791 -0.373586,-0.73723 -0.679247,-1.46345 -0.679247,-1.61381 0,-0.57467 0.429795,-0.22405 1.311996,1.0703 0.503317,0.73846 1.128395,1.45679 1.389063,1.5963 l 0.473941,0.25364 v -0.22097 c 0,-0.12154 -0.134938,-0.35592 -0.299862,-0.52084 -0.164925,-0.16492 -0.318577,-0.57569 -0.341449,-0.91281 l -0.04159,-0.61295 -0.28314,0.0539 -0.28314,0.0539 -0.319431,-0.71532 -0.319432,-0.71531 1.862557,1.83754 1.862556,1.83754 0.161356,-0.16135 0.161355,-0.16136 -1.212017,-1.54389 -1.212017,-1.5439 -1.67e-4,-0.36911 -1.66e-4,-0.3691 1.440302,1.36217 1.440302,1.36218 0.693589,0.2637 c 0.811757,0.30863 1.177237,0.33772 0.769072,0.0612 -0.430985,-0.29197 -3.020349,-3.57413 -3.020349,-3.82847 v -0.221 l 0.595313,0.30622 c 0.327422,0.16843 0.922734,0.61161 1.322917,0.98486 l 0.727604,0.67863 v 0.43865 0.43866 l 0.507156,0.45898 0.507158,0.45897 0.545746,-0.29208 0.545748,-0.29207 0.733033,0.15688 0.733034,0.15689 -0.727604,-0.47635 -0.727605,-0.47635 v -0.41497 c 0,-0.53584 -0.518713,-1.04996 -1.059346,-1.04996 h -0.42435 l -0.911796,-0.97696 -0.911799,-0.97696 0.661458,0.44422 c 0.363802,0.24433 1.375833,0.85273 2.248958,1.35203 l 1.5875,0.9078 1.151187,0.30378 c 0.633153,0.16708 1.211569,0.2434 1.285369,0.1696 0.0738,-0.0738 -0.30457,-0.3175 -0.840819,-0.54156 l -0.975003,-0.40739 0.09665,-0.46801 0.09664,-0.46801 0.519028,0.0761 c 0.285467,0.0418 0.93575,0.13802 1.445072,0.21371 l 0.926042,0.13762 -0.79375,-0.43056 c -0.436562,-0.23681 -1.427938,-0.90927 -2.203056,-1.49434 l -1.409305,-1.06377 0.138292,-0.13829 0.13829,-0.13829 2.292913,0.98482 2.292916,0.98483 0.697892,-0.34097 0.697891,-0.34096 -1.058333,-0.17813 c -0.582083,-0.098 -1.355989,-0.30447 -1.719792,-0.45888 -0.363802,-0.15442 -1.078177,-0.59645 -1.5875,-0.9823 l -0.926041,-0.70155 0.661458,0.14741 c 2.523342,0.56232 3.138583,0.66863 3.902604,0.67438 l 0.859896,0.006 v -0.39688 -0.39687 l -1.389062,-0.001 -1.389063,-0.001 -0.801306,-0.48865 -0.801307,-0.48866 -1.501733,0.12453 -1.50173,0.12454 -1.122523,-0.82552 -1.122523,-0.82537 0.515145,0.006 c 0.283329,0.003 1.034161,0.24132 1.668515,0.52917 l 1.153375,0.52335 0.698709,-0.008 0.698711,-0.008 -0.46302,-0.35148 c -0.78911,-0.59902 -0.509223,-0.71041 0.396875,-0.15795 l 0.859895,0.52429 2.150417,0.001 2.150415,10e-4 0.346112,0.41704 0.346114,0.41704 -0.379862,0.23635 -0.379862,0.23634 0.330729,0.53365 c 0.181901,0.29351 0.330729,0.77339 0.330729,1.06641 v 0.53276 H 35.32396 35.059376 v 0.64584 0.64584 l -0.268898,0.16619 -0.268899,0.16619 0.177488,0.28718 0.177488,0.28718 -0.318112,-0.1966 -0.318113,-0.1966 -0.649978,0.64997 c -0.35749,0.35749 -0.976877,1.05265 -1.376416,1.54479 l -0.726435,0.89466 -0.661458,0.0798 c -0.363802,0.0439 -0.92856,0.0863 -1.255019,0.0942 l -0.593564,0.0144 0.146156,0.23648 0.146156,0.23649 h -1.119259 -1.119262 l -0.470244,0.42556 -0.470244,0.42557 -2.328714,0.12087 -2.328714,0.12086 -0.926042,0.41337 c -0.509323,0.22735 -1.131593,0.59268 -1.382823,0.81185 l -0.456782,0.39847 0.141668,0.22922 0.141667,0.22923 h -0.280198 -0.280199 v 0.50439 0.5044 l -0.478655,-0.12517 -0.478655,-0.12518 -0.309422,0.67911 -0.309423,0.67911 h -0.792628 -0.792628 z m -6.543891,-0.12908 c -0.2404334,-0.24043 -0.1974937,-1.94081 0.065813,-2.60614 l 0.2094191,-0.52917 0.1970839,1.41376 0.1970836,1.41375 -0.2443004,0.2443 -0.2443004,0.2443 z m 1.3266092,-2.65827 c -0.070561,-0.40789 -0.134883,-1.02736 -0.1429363,-1.3766 l -0.014642,-0.63497 0.3954161,0.56454 0.395416,0.56453 0.05415,0.70748 0.05415,0.70747 -0.306628,0.10458 -0.3066283,0.10459 -0.1282938,-0.74162 z m 1.8148868,-0.40362 -0.411878,-0.58804 v -0.99946 -0.99946 l 0.198438,0.006 c 0.10914,0.003 0.464913,0.6124 0.790605,1.35327 l 0.592168,1.34704 -0.144762,0.23423 c -0.239767,0.38795 -0.58965,0.26712 -1.024571,-0.35381 z m 1.501596,-2.03113 c -0.179285,-0.49466 -0.322353,-1.1495 -0.317928,-1.45521 l 0.008,-0.55583 0.270858,0.46512 0.270857,0.46511 -0.14826,0.23989 -0.14826,0.23989 0.292169,0.0974 0.292169,0.0974 -0.09684,0.65282 -0.09684,0.65281 -0.325974,-0.89938 z m 1.006252,-1.33219 c -0.268424,-0.50155 -0.393833,-1.81303 -0.150059,-1.56925 0.06811,0.0681 0.307831,0.5642 0.532717,1.10243 l 0.408884,0.9786 h -0.258825 c -0.142353,0 -0.382076,-0.2303 -0.532717,-0.51178 z m 1.218136,-0.14914 c -0.09301,-0.24238 -0.169112,-0.49049 -0.169112,-0.55135 0,-0.0609 0.178594,-0.11065 0.396875,-0.11065 0.445412,0 0.49566,0.22825 0.165061,0.74979 l -0.223712,0.35291 z m 50.719081,0.21994 0.17639,-0.17639 0.17639,0.17639 0.176387,0.17639 h -0.352777 -0.352777 z m 0.903994,0.001 c 0.181901,-0.0734 0.479558,-0.0734 0.661459,0 l 0.330729,0.13345 H 67.07396 66.412501 Z m 1.212673,-0.001 0.17639,-0.17639 0.17639,0.17639 0.176387,0.17639 H 68.132293 67.779516 Z M 16.43775,246.96453 c -0.235606,-0.23561 -0.429999,-0.5687 -0.431986,-0.7402 -0.002,-0.17151 -0.07357,-0.60949 -0.15908,-0.97329 l -0.155468,-0.66146 0.707777,1.28134 c 0.389277,0.70473 0.653631,1.33548 0.587453,1.40166 -0.06618,0.0662 -0.313091,-0.0724 -0.548696,-0.30805 z m 44.815376,0.13859 -0.396875,-0.25648 0.610928,-0.004 0.610926,-0.004 -0.16352,0.26458 c -0.08994,0.14552 -0.186262,0.26276 -0.214054,0.26053 -0.02779,-0.002 -0.229123,-0.11946 -0.447405,-0.26053 z m 1.411111,0.0882 0.176389,-0.17639 0.17639,0.17639 0.176387,0.17639 h -0.352777 -0.352777 z m -45.456471,-1.743 -0.707949,-1.38791 0.684386,0.79375 c 0.376412,0.43657 0.802166,0.99489 0.94612,1.24072 l 0.261735,0.44696 -0.238172,0.1472 -0.238171,0.1472 z m 43.075221,1.21383 0.176389,-0.17639 0.17639,0.17639 0.176387,0.17639 h -0.352777 -0.352777 z m -45.40142,-0.28663 c -0.05539,-0.10914 -0.118344,-0.55563 -0.139903,-0.99219 l -0.0392,-0.79375 0.379496,0.66146 c 0.208723,0.3638 0.383716,0.81028 0.388872,0.99219 l 0.0094,0.33073 h -0.248969 c -0.136932,0 -0.294286,-0.0893 -0.349674,-0.19844 z m 43.9407,0.0177 0.347266,-0.13897 0.159853,0.15985 0.159851,0.15986 -0.507117,-0.0209 -0.507119,-0.0209 0.347266,-0.13897 z m -40.034766,-0.34843 -0.163521,-0.26458 h 0.147907 c 0.08135,0 -0.100141,-0.24805 -0.403309,-0.55122 l -0.551215,-0.55122 0.152718,-0.15271 0.152718,-0.15272 0.504411,0.45648 c 0.277426,0.25107 0.564666,0.6869 0.63831,0.96852 l 0.133899,0.51203 h -0.224198 c -0.123309,0 -0.297783,-0.11906 -0.38772,-0.26458 z m 38.1,0 -0.529166,-0.22739 0.396875,0.008 c 0.218281,0.004 0.694531,0.1031 1.058333,0.21961 l 0.661458,0.21183 -0.529166,0.008 c -0.291042,0.004 -0.767292,-0.0945 -1.058334,-0.21961 z M 19.760759,245.0903 c -0.337833,-0.52136 -0.552787,-1.00938 -0.477674,-1.0845 0.198623,-0.19862 1.488791,1.25789 1.488791,1.68075 0,0.19703 -0.0893,0.35676 -0.198437,0.35496 -0.109141,-0.002 -0.474847,-0.42984 -0.81268,-0.95121 z m 33.992025,0.41244 c -0.705448,-0.11838 -1.360292,-0.29643 -1.455208,-0.39568 l -0.172575,-0.18044 1.404041,0.1891 c 0.772223,0.104 1.724723,0.28582 2.116667,0.40405 l 0.712626,0.21495 -0.661459,-0.008 c -0.363802,-0.005 -1.238644,-0.10523 -1.944092,-0.2236 z m -32.43598,-0.6318 c -0.349365,-0.37188 -0.583351,-0.72801 -0.519969,-0.79139 0.06338,-0.0634 0.397071,0.0973 0.741533,0.35718 l 0.626294,0.47241 -0.106325,0.31897 -0.106324,0.31898 z m 0.633248,-0.9752 -1.045884,-1.09072 0.595313,0.30628 c 0.327422,0.16845 0.595312,0.39504 0.595312,0.50354 0,0.1085 0.357188,0.33209 0.79375,0.49688 l 0.79375,0.2996 v 0.28757 0.28757 h -0.343178 -0.343179 z m 5.164101,0.68453 -0.332266,-0.40035 0.176294,-0.1763 0.176295,-0.17629 0.415965,0.41596 0.415964,0.41597 -0.259993,0.16068 -0.259995,0.16069 z m 22.563453,0.11017 c -0.472943,-0.13655 -0.859896,-0.29692 -0.859896,-0.35637 0,-0.13249 1.740585,0.13597 2.645833,0.40807 l 0.661458,0.19883 -0.79375,-0.001 c -0.436562,-5.3e-4 -1.180703,-0.11285 -1.653645,-0.2494 z m -25.999953,-0.8751 c -0.511875,-0.33595 -1.097459,-0.81177 -1.301297,-1.05739 l -0.370616,-0.44656 0.772131,0.33996 c 0.424672,0.18698 0.831662,0.40191 0.904422,0.47764 0.07276,0.0757 0.36333,0.26524 0.645711,0.42116 0.28238,0.15592 0.560192,0.42381 0.617361,0.59531 l 0.103942,0.31183 -0.220486,-0.0156 c -0.121267,-0.009 -0.639293,-0.29043 -1.151168,-0.62638 z m 24.4345,0.46556 0.17639,-0.17639 0.17639,0.17639 0.176387,0.17639 h -0.352777 -0.352777 z m -7.9375,-0.26458 0.17639,-0.17639 0.17639,0.17639 0.176387,0.17639 h -0.352777 -0.352777 z m 3.880557,-0.0882 -0.926042,-0.19492 0.976572,-0.0348 0.976574,-0.0348 0.163521,0.26458 0.16352,0.26459 -0.21405,-0.0348 c -0.117729,-0.0192 -0.630772,-0.12255 -1.140095,-0.22976 z m 2.33164,0.0838 0.347266,-0.13897 0.159853,0.15985 0.159851,0.15986 -0.507116,-0.0209 -0.507119,-0.0209 0.347265,-0.13896 z m -21.653498,-0.79931 c -0.689969,-0.47554 -1.331772,-1.20869 -1.185846,-1.35461 0.04759,-0.0476 0.75532,0.24094 1.572728,0.64118 l 1.486197,0.72772 -0.33759,0.21425 c -0.185674,0.11783 -0.459925,0.21606 -0.609446,0.21829 -0.149524,0.002 -0.566242,-0.19885 -0.926043,-0.44683 z m -11.546198,0.01 0.176389,-0.17639 0.176389,0.17639 0.176389,0.17639 h -0.352778 -0.352778 z m 14.035836,-0.3393 -0.824929,-0.19693 -1.122188,-0.90046 -1.122188,-0.90047 0.411243,-0.0828 0.411244,-0.0828 1.580711,0.74265 1.58071,0.74265 -0.035,0.46458 c -0.01923,0.25552 -0.03943,0.45239 -0.04484,0.4375 -0.0054,-0.0149 -0.381061,-0.1157 -0.834771,-0.22402 z m 14.583261,-11.1609 -2.38125,-1.32498 1.322917,0.17093 1.322917,0.17093 1.570209,0.85402 1.570207,0.85402 0.105487,0.31646 0.105486,0.31645 -0.617362,-0.0164 -0.617361,-0.0164 -2.38125,-1.32497 z m 1.421906,-0.73071 c -0.818679,-0.39879 -1.949773,-0.91387 -2.513542,-1.14463 l -1.02503,-0.41957 1.247523,-0.0257 1.247527,-0.0257 1.266015,0.42104 c 0.696309,0.23157 1.554549,0.60503 1.907201,0.8299 l 0.641181,0.40887 -0.493313,0.36072 c -0.271325,0.19839 -0.559856,0.35159 -0.641183,0.34043 -0.08133,-0.0112 -0.817698,-0.34656 -1.636379,-0.74535 z m -6.316697,-1.21634 -1.455209,-0.61294 0.99045,-0.18688 0.990446,-0.18687 0.634016,0.15913 0.634013,0.15913 0.162332,0.42303 0.162336,0.42304 -0.148765,0.2407 c -0.08182,0.13239 -0.231037,0.23034 -0.331589,0.21766 -0.100552,-0.0127 -0.837666,-0.29888 -1.63803,-0.636 z m 7.9375,0.13674 c -0.363802,-0.11673 -1.435365,-0.57393 -2.38125,-1.01599 l -1.719792,-0.80374 0.79375,-0.0464 c 0.436563,-0.0255 1.194983,-0.024 1.68538,0.003 l 0.891633,0.0498 1.158888,0.49676 1.158891,0.49676 v 0.53857 0.53857 l -0.463021,-0.0227 c -0.254662,-0.0125 -0.760677,-0.11825 -1.124479,-0.23498 z m -7.276042,-1.84446 -1.058333,-0.50081 0.264583,-0.0495 c 0.419693,-0.0784 1.808014,0.0249 2.315104,0.17227 l 0.463021,0.1346 v 0.37904 0.37905 l -0.463021,-0.007 c -0.254661,-0.004 -0.939271,-0.23231 -1.521354,-0.50776 z m 8.334375,0.32611 c -0.218281,-0.0795 -0.932656,-0.38461 -1.5875,-0.6781 -0.654844,-0.29349 -1.547812,-0.69014 -1.984375,-0.88145 l -0.79375,-0.34783 1.35378,-0.0103 1.353778,-0.0103 1.369872,0.5693 1.369873,0.56929 -0.07782,0.40097 c -0.08956,0.46145 -0.435629,0.59539 -1.003861,0.38853 z m -7.408333,-1.7958 -1.455209,-0.6402 1.190625,0.0157 c 0.654844,0.009 1.487657,0.0984 1.850695,0.19941 l 0.660069,0.18367 0.08693,0.45142 0.08694,0.45142 -0.482423,-0.0106 c -0.265329,-0.006 -1.137264,-0.2987 -1.937627,-0.65082 z m 6.482291,-0.41146 -2.116666,-1.0279 0.936598,-0.008 c 0.515131,-0.004 1.646225,0.17622 2.513542,0.40128 l 1.576943,0.4092 0.362035,0.35916 0.362037,0.35916 -0.179213,0.28997 -0.179213,0.28997 -0.579699,-0.0225 -0.579697,-0.0225 z m 4.101042,-0.38912 c -0.800365,-0.19779 -2.169583,-0.65909 -3.042708,-1.0251 l -1.5875,-0.66549 0.49521,-0.0112 c 0.272367,-0.006 1.759444,0.17654 3.304622,0.40597 l 2.809409,0.41716 0.317672,0.26364 0.317675,0.26365 -0.144873,0.37753 -0.144873,0.37753 -0.434713,-0.022 c -0.23909,-0.0121 -1.089556,-0.18387 -1.889921,-0.38166 z m -8.466667,-0.13749 c -1.075354,-0.20869 -2.38125,-0.70635 -2.38125,-0.90746 0,-0.0764 0.641655,-0.13884 1.425898,-0.13884 h 1.425895 l 0.599226,0.48522 0.599226,0.48522 -0.371478,0.12779 c -0.204311,0.0703 -0.788194,0.0469 -1.297517,-0.0519 z m 11.641667,-1.05081 c -1.236927,-0.26405 -3.201458,-0.71963 -4.365625,-1.01239 l -2.116667,-0.53229 1.390804,-0.0191 c 1.607283,-0.0221 6.290424,0.63996 7.334618,1.03696 l 0.710297,0.27005 -0.104187,0.31257 c -0.0573,0.17191 -0.21581,0.33772 -0.352235,0.36846 -0.136427,0.0307 -1.260078,-0.16015 -2.497005,-0.42421 z m -11.90625,-0.88793 -1.455208,-0.31599 0.484661,-0.18954 c 0.590084,-0.23076 3.254708,-0.24375 4.09022,-0.02 l 0.606131,0.16237 -0.09753,0.29704 -0.09753,0.29704 -1.03777,0.0425 -1.03777,0.0425 -1.455208,-0.316 z m 15.875,-0.0936 c -2.468846,-0.32444 -5.996612,-0.95742 -6.217708,-1.11564 -0.145521,-0.10414 -0.736344,-0.21506 -1.31294,-0.2465 -0.576595,-0.0314 -1.104114,-0.11292 -1.172265,-0.18108 -0.06815,-0.0682 1.594234,-0.059 3.694189,0.0203 l 3.818099,0.14423 1.455208,0.28572 c 0.800365,0.15715 1.539306,0.33585 1.642092,0.39711 l 0.18688,0.11138 -0.136353,0.35533 -0.13635,0.35533 -0.579697,-0.0196 c -0.318833,-0.0108 -0.877353,-0.0588 -1.241155,-0.10657 z m -10.967934,-1.07421 c -0.08286,-0.0829 -0.744601,-0.12356 -1.470531,-0.0904 l -1.319868,0.0602 v -0.24097 -0.24098 l -0.727604,0.0934 -0.727605,0.0934 0.875943,-0.27406 0.875943,-0.27406 1.748803,0.0779 1.748806,0.0779 0.09805,0.29705 0.09805,0.29703 -0.524663,0.13721 -0.524666,0.1372 z m 10.835642,-0.60957 c -0.727604,-0.12589 -2.334948,-0.35725 -3.571875,-0.51414 l -2.248958,-0.28526 -0.251354,-0.24974 -0.251354,-0.24974 2.632604,-0.0374 c 1.447932,-0.0206 3.576576,-0.0133 4.730319,0.0162 l 2.097714,0.0535 0.878848,0.36721 0.878848,0.3672 v 0.26026 0.26025 l -0.463021,0.12542 c -0.723299,0.19591 -2.976046,0.13807 -4.431771,-0.1138 z m -14.155208,-1.02797 -0.661458,-0.17248 1.852083,-0.17963 c 1.018646,-0.0988 2.410603,-0.18047 3.093238,-0.1815 l 1.241158,-0.002 0.151747,0.24554 0.151749,0.24553 -0.466863,0.13783 c -0.636447,0.18787 -4.543933,0.1198 -5.361654,-0.0934 z m 19.579167,-0.8095 c -0.945886,-0.10632 -4.220105,-0.21746 -7.276042,-0.24698 l -5.55625,-0.0537 0.661458,-0.19313 0.661459,-0.19313 5.027083,-0.0541 5.027083,-0.0541 1.5875,-0.25714 c 0.873125,-0.14143 1.862418,-0.25805 2.198428,-0.25915 l 0.610926,-0.002 -0.19131,0.30954 -0.191309,0.30955 0.409903,-0.1573 0.409906,-0.15729 0.563967,0.39502 0.563967,0.39501 -0.152334,0.24648 -0.152331,0.24649 -1.241158,-0.0403 c -0.682635,-0.0221 -2.015061,-0.12722 -2.960946,-0.23354 z m -18.785417,-0.23615 -0.661458,-0.19335 1.402085,-0.30971 c 0.771147,-0.17034 1.932006,-0.3097 2.579687,-0.3097 h 1.177603 v 0.24897 c 0,0.13693 -0.133879,0.33171 -0.297511,0.43284 -0.163632,0.10112 -1.026835,0.21547 -1.918229,0.25409 l -1.620719,0.0702 z M 7.6497359,219.54557 7.4609491,219.24011 7.766413,219.4289 c 0.3049989,0.1885 0.4094863,0.42214 0.1887868,0.42214 -0.064172,0 -0.2016308,-0.13746 -0.3054639,-0.30547 z m 41.2520901,-0.76976 -0.479073,-0.16805 1.280059,-0.19196 c 0.704035,-0.10558 1.338393,-0.13363 1.409684,-0.0623 0.07129,0.0713 0.506865,-0.0266 0.967939,-0.21756 l 0.838316,-0.34718 3.004032,-0.32907 3.004031,-0.32907 0.237115,0.36804 0.237114,0.36804 0.198437,-0.27753 0.198438,-0.27753 1.148876,-0.0752 1.148877,-0.0752 0.769353,0.31867 c 0.423142,0.17528 0.769352,0.40424 0.769352,0.50881 0,0.10458 -0.446484,0.32656 -0.992187,0.4933 l -0.992188,0.30317 -6.134549,0.0793 -6.13455,0.0794 z m 11.160675,-0.77686 c 0.08994,-0.14552 0.103989,-0.26458 0.03123,-0.26458 -0.07276,0 -0.205875,0.11906 -0.295812,0.26458 -0.08994,0.14553 -0.103989,0.26459 -0.03123,0.26459 0.07276,0 0.205875,-0.11906 0.295812,-0.26459 z M 7.476564,218.1122 c -0.4001823,-0.2171 -0.7276041,-0.45352 -0.7276041,-0.52537 0,-0.0718 0.3571875,0.0541 0.79375,0.27983 0.4365625,0.22576 0.79375,0.46694 0.79375,0.53596 0,0.069 -0.029766,0.12073 -0.066146,0.11491 -0.03638,-0.006 -0.3935677,-0.18822 -0.7937499,-0.40533 z m -2.0505208,-1.19522 -0.6614583,-0.54104 0.5291666,0.27348 c 0.2910417,0.15041 0.7077605,0.39471 0.9260417,0.54287 l 0.396875,0.26939 -0.2645833,-0.002 c -0.1455209,-0.001 -0.5622396,-0.2453 -0.9260417,-0.54287 z m 3.8477574,-0.75183 -0.1522225,-0.2463 0.3097797,-0.19145 0.3097795,-0.19146 -0.1764112,0.28544 -0.1764115,0.28544 0.4662601,0.12163 0.4662603,0.12162 -0.4474061,0.0307 -0.4474059,0.0307 z m -0.8491464,-0.19467 0.176389,-0.17639 0.176389,0.17639 0.1763887,0.17639 H 8.6010432 8.2482655 Z m -5.4977979,-0.32955 -0.1491668,-0.24136 0.3904771,0.0573 c 0.2147623,0.0315 0.473298,0.14013 0.5745239,0.24136 l 0.1840471,0.18405 H 3.5013804 c -0.2339467,0 -0.4924824,-0.10861 -0.5745241,-0.24136 z m 3.7050617,0.001 -0.1482717,-0.23991 0.5295318,0.13848 c 0.2912425,0.0763 0.5295318,0.18425 0.5295318,0.24003 0,0.0558 -0.171567,0.10144 -0.3812601,0.10144 -0.2096932,0 -0.4479825,-0.10796 -0.5295318,-0.23991 z M 5.2326413,215.4339 c 0.2574308,-0.0671 0.6146183,-0.0627 0.79375,0.01 l 0.3256936,0.13178 -0.79375,-0.01 -0.79375,-0.01 0.4680564,-0.12197 z"
         id="path2209"
         inkscape:connector-curvature="0" />
    </g>
  </g>
</svg>
