<?xml version="1.0" encoding="UTF-8" standalone="no"?>
<!-- Created with Inkscape (http://www.inkscape.org/) -->

<svg
   xmlns:dc="http://purl.org/dc/elements/1.1/"
   xmlns:cc="http://creativecommons.org/ns#"
   xmlns:rdf="http://www.w3.org/1999/02/22-rdf-syntax-ns#"
   xmlns:svg="http://www.w3.org/2000/svg"
   xmlns="http://www.w3.org/2000/svg"
   xmlns:sodipodi="http://sodipodi.sourceforge.net/DTD/sodipodi-0.dtd"
   xmlns:inkscape="http://www.inkscape.org/namespaces/inkscape"
   width="75mm"
   height="120mm"
   viewBox="0 0 75 120"
   version="1.1"
   id="svg8"
   inkscape:version="0.92.4 (5da689c313, 2019-01-14)"
   sodipodi:docname="oiseaux2.svg">
  <defs
     id="defs2" />
  <sodipodi:namedview
     id="base"
     pagecolor="#ffffff"
     bordercolor="#666666"
     borderopacity="1.0"
     inkscape:pageopacity="0.0"
     inkscape:pageshadow="2"
     inkscape:zoom="2.8"
     inkscape:cx="130.39202"
     inkscape:cy="200.01254"
     inkscape:document-units="mm"
     inkscape:current-layer="layer1"
     showgrid="false"
     units="mm"
     inkscape:window-width="1920"
     inkscape:window-height="1017"
     inkscape:window-x="-8"
     inkscape:window-y="-8"
     inkscape:window-maximized="1" />
  <metadata
     id="metadata5">
    <rdf:RDF>
      <cc:Work
         rdf:about="">
        <dc:format>image/svg+xml</dc:format>
        <dc:type
           rdf:resource="http://purl.org/dc/dcmitype/StillImage" />
        <dc:title></dc:title>
      </cc:Work>
    </rdf:RDF>
  </metadata>
  <g
     inkscape:label="Calque 1"
     inkscape:groupmode="layer"
     id="layer1"
     transform="translate(0,-176.99999)">
    <g
       id="g140"
       transform="translate(-21.184587,1.8825903)">
      <path
         style="fill:#ffff00;stroke-width:0.26458332"
         d="m 26.3823,270.28424 c -0.274544,-0.44422 0.322405,-0.76565 3.064254,-1.64999 l 2.832743,-0.91366 -0.222655,-0.22265 -0.222655,-0.22266 -0.758005,0.38226 c -0.416903,0.21024 -1.085427,0.46077 -1.48561,0.55672 l -0.727604,0.17447 v -0.26353 c 0,-0.42988 1.081235,-0.99146 2.844271,-1.47728 0.909505,-0.25062 1.653646,-0.5479 1.653646,-0.66062 v -0.20495 l 0.595312,0.11296 0.595313,0.11295 -0.523439,-0.22853 -0.523439,-0.22852 -0.93177,0.21678 c -1.212863,0.28218 -1.328644,0.27945 -1.328644,-0.0314 v -0.26077 l 1.195123,-0.30094 c 0.657317,-0.16551 1.264349,-0.41294 1.34896,-0.54985 l 0.153839,-0.24891 -0.990334,0.18578 -0.990334,0.18579 0.179821,-0.29096 c 0.0989,-0.16002 0.592363,-0.36835 1.096581,-0.46294 0.504219,-0.0946 0.916761,-0.26399 0.916761,-0.37645 v -0.20446 l 1.195377,0.0402 1.195378,0.0402 -0.12874,-0.33549 -0.128741,-0.33549 h 0.388571 0.388571 v -0.26459 -0.26458 h -0.661458 -0.661458 l 0.06615,0.33073 0.06614,0.33073 -0.529166,-0.0501 c -0.291042,-0.0276 -1.050981,0.0658 -1.688755,0.20742 -1.406919,0.31243 -1.660623,0.15847 -0.649741,-0.3943 l 0.750996,-0.41065 -0.592337,-0.1693 -0.592336,-0.16929 0.14493,-0.23451 0.144931,-0.2345 h 0.76252 0.76252 l 0.176407,-0.28543 0.176408,-0.28544 -0.977318,0.15532 -0.977317,0.15532 0.116354,-0.3329 0.116354,-0.33291 1.361629,0.0364 1.36163,0.0364 v -0.36714 -0.36713 H 34.419017 33.0961 v -0.2669 -0.26689 l 1.419662,0.16686 1.419661,0.16685 0.183454,-0.29684 0.183453,-0.29683 -1.073948,-0.0331 c -1.606801,-0.0495 -1.68115,-0.0687 -1.814939,-0.47011 l -0.12363,-0.37089 0.818927,0.16379 0.818926,0.16378 0.158166,-0.25592 0.158165,-0.25591 H 34.71483 c -0.291041,0 -0.597667,-0.11084 -0.681389,-0.2463 l -0.152222,-0.2463 0.263431,-0.16282 0.263431,-0.1628 0.499846,0.2675 c 0.80519,0.43093 0.861585,0.0205 0.08952,-0.65147 l -0.710721,-0.61859 0.576983,0.0393 0.576983,0.0393 -0.112442,0.18194 c -0.134307,0.21731 0.544248,0.50532 1.162928,0.4936 l 0.441382,-0.008 -0.731131,-0.64344 -0.731131,-0.64344 -0.366586,0.14067 -0.366585,0.14068 -0.199558,-0.3229 -0.199557,-0.32289 1.121864,0.15048 1.121864,0.15047 -0.408764,-0.44093 c -1.420202,-1.53197 -2.33636,-2.73359 -2.396474,-3.14317 l -0.06939,-0.47277 -0.371653,-0.012 -0.371652,-0.012 0.0727,-0.33837 0.0727,-0.33837 -0.292283,0.18064 -0.292284,0.18064 -0.43982,-0.62399 c -0.241902,-0.3432 -0.408031,-0.72215 -0.369175,-0.8421 l 0.07065,-0.21811 -0.241728,0.1494 -0.241727,0.14939 -1.381739,-1.58235 -1.38174,-1.58237 -0.206231,0.12746 -0.20623,0.12745 -0.446958,-0.68214 c -0.245826,-0.37518 -0.508189,-0.62091 -0.583028,-0.54607 -0.215053,0.21505 -2.46748,-2.55191 -2.46748,-3.03114 0,-0.0976 0.193685,-0.25173 0.43041,-0.34257 l 0.430411,-0.16516 0.409548,0.33529 0.409548,0.33529 -0.46589,-0.71596 -0.465889,-0.71597 0.170713,-0.27622 c 0.276958,-0.44813 0.987071,-0.31788 1.646997,0.30209 l 0.615578,0.5783 -0.175765,-0.87883 -0.175766,-0.87882 0.820038,0.12035 0.820037,0.12036 -0.133933,-0.21671 -0.133934,-0.21671 h 0.280199 0.280198 v 0.39687 c 0,0.21829 0.09199,0.39688 0.204416,0.39688 0.112429,0 0.433614,0.4256 0.713745,0.94577 0.280131,0.52017 0.86559,1.29407 1.30102,1.71979 l 0.791691,0.77402 H 32.085753 31.7687 l 0.319782,0.51206 0.319782,0.51205 0.252507,-0.15606 0.252507,-0.15606 -0.164697,0.26649 -0.164696,0.26648 0.40802,0.502 c 0.224411,0.2761 0.332633,0.35317 0.240493,0.17127 -0.291015,-0.57451 0.09541,-0.35737 0.409957,0.23037 l 0.300289,0.56109 -0.310513,-0.1919 -0.310513,-0.19191 0.337073,0.53974 c 0.18539,0.29686 0.412461,0.49315 0.504602,0.4362 0.09214,-0.057 0.16753,0.0408 0.16753,0.2171 0,0.39912 1.210488,2.33941 1.705855,2.73432 0.201693,0.16079 0.824918,0.375 1.384946,0.47601 l 1.018231,0.18367 -0.17395,-0.28146 -0.173951,-0.28146 0.166452,-0.26932 0.166453,-0.26933 1.075782,0.92083 1.075782,0.92083 0.493172,-0.26394 c 0.271244,-0.14516 0.493172,-0.32519 0.493172,-0.40006 0,-0.0749 -0.197592,-0.0256 -0.439094,0.10959 l -0.439093,0.24573 -0.883823,-0.80426 -0.883823,-0.80426 v -0.36367 -0.36367 l 0.554203,0.2966 0.554204,0.2966 -0.175158,-0.55187 -0.175159,-0.55188 h 0.26741 c 0.147076,0 0.455048,0.26789 0.684383,0.59531 0.229336,0.32742 0.503978,0.57746 0.610316,0.55563 0.106338,-0.0218 0.160627,0.0763 0.120641,0.2181 l -0.0727,0.25779 0.275795,-0.17045 0.275796,-0.17045 -0.530219,-0.67406 -0.530218,-0.67407 0.166545,-0.26947 0.166546,-0.26948 0.512199,0.6313 0.512198,0.63131 -0.158223,-0.72761 -0.158223,-0.7276 h 0.175438 c 0.09649,0 0.559715,0.44454 1.029386,0.98787 l 0.853948,0.98787 -0.372,0.27202 -0.371999,0.27201 0.406636,0.52605 0.406637,0.52605 -0.171495,-0.48972 -0.171495,-0.48972 0.369283,-0.23035 0.369284,-0.23035 -0.264584,-0.3673 c -0.14552,-0.20201 -0.48907,-0.68536 -0.763444,-1.07412 l -0.498861,-0.70683 0.189765,-0.18976 0.189764,-0.18976 0.338265,0.4626 c 0.470561,0.64353 0.625412,0.57764 0.476248,-0.20266 l -0.127174,-0.66527 0.441888,0.16956 0.441888,0.16957 -0.174415,-0.69492 -0.174414,-0.69492 h 0.30157 c 0.165863,0 0.370103,0.17859 0.453865,0.39687 0.08376,0.21828 0.277073,0.39688 0.429578,0.39688 h 0.277283 l -0.417268,-0.46302 c -0.229497,-0.25467 -0.495723,-0.77746 -0.591612,-1.16176 l -0.174344,-0.69874 0.286022,-0.17678 0.286021,-0.17677 0.03307,0.2802 c 0.0802,0.67946 0.110049,0.7761 0.297657,0.96371 l 0.198437,0.19843 -0.0038,-0.37482 c -0.0021,-0.20616 -0.18285,-0.88875 -0.401628,-1.51688 l -0.397777,-1.14206 0.1606,-0.25985 0.1606,-0.25986 0.372886,0.30947 0.372887,0.30947 -0.394645,-1.11855 -0.394645,-1.11854 0.170881,-0.27649 0.170882,-0.27649 0.375646,0.5031 0.375646,0.5031 -0.15174,-1.05833 -0.15174,-1.05834 0.385232,0.79375 c 0.211877,0.43657 0.390602,1.06165 0.397165,1.38907 l 0.01193,0.59531 h 0.293267 0.293266 l -0.166016,0.66146 -0.166015,0.66146 h 0.246543 0.246542 l -0.129537,0.82192 -0.129538,0.82193 0.302607,-0.18702 0.302606,-0.18702 -0.06761,0.35728 c -0.116166,0.61382 0.319888,2.06698 1.15709,3.85604 l 0.805641,1.72162 -0.237649,0.92577 -0.23765,0.92576 -1.16932,0.62203 c -0.643126,0.34211 -1.268204,0.775 -1.389063,0.96196 l -0.219742,0.33993 -0.235658,-0.36568 -0.235658,-0.36569 -0.171463,0.54023 c -0.0943,0.29713 -0.368302,0.69981 -0.608881,0.89485 l -0.437418,0.35463 0.228561,-0.39688 0.228561,-0.39687 -0.574647,0.50403 c -0.60096,0.5271 -0.771864,0.83971 -0.299459,0.54775 l 0.275189,-0.17008 -0.181484,0.72309 -0.181485,0.72309 0.280573,-0.1734 0.280573,-0.1734 0.08874,0.26351 0.08874,0.26352 2.370422,0.50342 2.370422,0.50341 0.60614,0.70468 0.606141,0.70468 v 0.60479 0.60479 l 0.595312,0.57679 c 0.327422,0.31724 1.012031,0.93368 1.521354,1.36987 l 0.926042,0.79307 -1.398857,-0.5342 c -0.769372,-0.29381 -1.543278,-0.52936 -1.719792,-0.52345 l -0.320934,0.0107 0.926041,0.80983 0.926042,0.80983 -0.661458,-0.19042 c -0.363802,-0.10473 -0.863555,-0.36771 -1.110561,-0.58441 l -0.449101,-0.39399 -2.329024,-0.11587 c -2.36847,-0.11783 -4.313398,-0.53251 -4.313398,-0.91967 v -0.21394 l -0.398917,0.15308 -0.398918,0.15308 -0.682372,-0.4471 c -0.375304,-0.24591 -0.743642,-0.38584 -0.818527,-0.31096 -0.07488,0.0749 0.0052,0.97431 0.178008,1.99873 l 0.314163,1.86257 -0.304608,0.92297 -0.304608,0.92297 -1.295334,0.95086 -1.295334,0.95087 -1.002505,0.15713 -1.002506,0.15713 0.529167,-0.61383 0.529167,-0.61383 -0.484661,0.17715 c -0.266563,0.0974 -0.590248,0.17716 -0.7193,0.17716 h -0.23464 l 0.152295,0.39687 0.152296,0.39688 h -0.270843 c -0.148963,0 -0.317265,-0.13927 -0.374006,-0.30949 l -0.103164,-0.3095 -0.77878,0.39993 c -0.428329,0.21996 -1.283009,0.66798 -1.899288,0.9956 l -1.120508,0.59567 -1.102808,0.14791 -1.102808,0.14792 0.18841,-0.30485 c 0.103625,-0.16767 0.419508,-0.30486 0.701961,-0.30486 h 0.513552 v -0.29544 -0.29544 l -0.595312,0.1828 c -0.327422,0.10053 -1.131094,0.30556 -1.785938,0.4556 -0.654844,0.15006 -1.303734,0.37934 -1.441979,0.50953 -0.311801,0.29363 -0.864429,0.30727 -1.038489,0.0256 z m 8.565885,-17.3681 c 0,-0.0642 -0.119063,-0.19026 -0.264584,-0.2802 l -0.264583,-0.16352 v 0.28019 c 0,0.15411 0.119063,0.2802 0.264583,0.2802 0.145521,0 0.264584,-0.0525 0.264584,-0.11667 z m 7.276041,-0.94166 c -0.08994,-0.14552 -0.282584,-0.26458 -0.428105,-0.26458 h -0.264583 l 0.163522,0.26458 c 0.08994,0.14552 0.282584,0.26458 0.428104,0.26458 h 0.264584 z m -1.57662,-1.5699 c -0.09592,-0.1552 -0.301015,-0.28218 -0.455767,-0.28218 h -0.281365 l 0.334684,0.40327 c 0.362887,0.43725 0.687211,0.33967 0.402448,-0.12109 z m -11.255671,-4.61541 c 0,-0.0549 -0.208359,-0.2633 -0.463021,-0.46302 l -0.463021,-0.36313 0.363126,0.46302 c 0.345644,0.44073 0.562916,0.58089 0.562916,0.36313 z m -1.058333,-1.04972 c 0,-0.0502 -0.267891,-0.3181 -0.595313,-0.59532 l -0.595312,-0.50403 0.504028,0.59532 c 0.473661,0.55944 0.686597,0.71576 0.686597,0.50403 z m 0.396875,-2.02539 c -0.08994,-0.14552 -0.305323,-0.26276 -0.478636,-0.26053 l -0.315114,0.004 0.396875,0.25648 c 0.508297,0.32849 0.599891,0.32849 0.396875,0 z m 30.559374,25.51857 c 0,-0.10589 0.208359,-0.34784 0.463021,-0.53767 l 0.46302,-0.34515 -1.521354,0.1214 -1.521354,0.12139 0.0019,-0.20229 c 0.0028,-0.31204 1.623002,-1.34277 2.649741,-1.68568 l 0.920327,-0.30737 0.79375,-0.74203 c 0.937734,-0.87665 1.733071,-1.20242 4.205028,-1.72242 l 1.83611,-0.38623 0.87561,-0.54116 0.875609,-0.54116 -0.334534,-0.81984 -0.334533,-0.81985 -1.51874,-0.56671 -1.518743,-0.56671 -0.772949,-0.93772 -0.772948,-0.93772 -0.277768,-2.21524 c -0.152818,-1.21838 -0.277812,-2.72063 -0.277812,-3.33835 V 250.139 l 0.396875,0.1523 0.396875,0.1523 v -0.80645 -0.80644 l -0.277244,-0.17135 -0.277243,-0.17134 0.07881,-0.57188 c 0.04334,-0.31453 0.15476,-0.6314 0.247589,-0.70416 l 0.168786,-0.13229 -0.204505,-1.05834 -0.204502,-1.05833 -0.03847,0.92604 -0.03847,0.92604 -0.221871,-0.39687 c -0.313741,-0.56121 -1.028864,-5.02845 -1.207111,-7.54063 l -0.150189,-2.11666 0.235141,-0.79375 0.23514,-0.79375 0.32013,0.79375 0.32013,0.79375 0.150704,1.95054 0.150702,1.95054 0.44477,-0.58964 0.444767,-0.58964 0.28366,0.75576 0.283659,0.75577 0.02405,2.06243 0.02405,2.06243 0.397512,0.7687 c 0.218633,0.42279 0.397513,0.94947 0.397513,1.17042 v 0.40171 l 0.396875,-0.1523 0.396875,-0.1523 v 0.39433 0.39432 l 0.500308,0.13084 0.500309,0.13083 -0.120176,1.28909 -0.120177,1.28908 0.424066,-0.52787 0.424064,-0.52788 0.250084,0.39559 c 0.137546,0.21757 0.25191,0.59691 0.254138,0.84299 0.0021,0.24607 0.12175,0.52015 0.265604,0.60905 l 0.261552,0.16165 -0.157568,-0.41062 -0.15757,-0.41061 h 0.264584 c 0.382939,0 0.573958,0.64952 0.393715,1.33877 l -0.155874,0.59606 0.346401,-0.21409 0.3464,-0.21409 0.32875,0.4496 0.32875,0.44959 -0.125621,0.48038 -0.125624,0.48039 0.411194,0.15778 0.411197,0.15779 0.275214,-0.45203 0.275217,-0.45203 -0.137509,0.79375 -0.137509,0.79375 0.155921,-0.33073 c 0.08576,-0.1819 0.27209,-0.33073 0.414073,-0.33073 h 0.258149 l -0.188786,0.30547 -0.188788,0.30546 0.261641,-0.1617 0.261641,-0.1617 0.04434,-1.13595 c 0.118369,-3.0321 0.932672,-5.51477 2.288751,-6.978 0.365731,-0.39463 0.664967,-0.8616 0.664967,-1.03771 0,-0.1761 0.395451,-0.84333 0.878782,-1.48272 0.48333,-0.63938 0.955844,-1.37088 1.05003,-1.62554 l 0.171247,-0.46302 h 0.436038 0.436036 l -0.138379,-0.52917 -0.13838,-0.52917 h 0.182766 c 0.100523,0 0.388803,-0.34879 0.640622,-0.77508 0.25182,-0.4263 0.870699,-1.20021 1.375289,-1.71979 l 0.917434,-0.94471 h 0.562147 0.56215 l -0.147124,0.3834 -0.147124,0.3834 0.398211,-0.15281 0.398211,-0.15281 0.514355,0.5521 c 0.566343,0.6079 0.666105,1.24295 0.236924,1.5082 l -0.277432,0.17146 0.292159,0.35203 0.292158,0.35203 -1.513732,1.54265 -1.513734,1.54264 -0.0475,0.50677 -0.0475,0.50676 -0.524304,0.42456 -0.524306,0.42455 0.11145,0.33435 0.111448,0.33434 -0.300641,0.36226 -0.300641,0.36224 0.341773,0.12173 0.341773,0.12173 -0.661458,0.74012 -0.661458,0.74012 0.454546,-0.16311 0.454549,-0.1631 0.145081,0.23475 0.145079,0.23474 -0.268898,0.16619 c -0.147895,0.0914 -0.268899,0.27449 -0.268899,0.40685 v 0.24067 l 0.396875,-0.1523 0.396875,-0.15229 v 0.26049 c 0,0.14328 -0.177284,0.40763 -0.393962,0.58745 l -0.393962,0.32696 0.152934,0.24746 0.152935,0.24745 0.379711,-0.31514 0.379714,-0.31513 0.163603,0.1636 0.1636,0.1636 -0.334682,0.40327 -0.334685,0.40327 h 0.296982 0.296978 v 0.37483 c 0,0.20615 -0.148828,0.43521 -0.330729,0.50902 l -0.330729,0.1342 0.396875,0.28472 0.396875,0.28473 -0.365688,0.23566 -0.365689,0.23566 0.590762,0.18749 0.590759,0.1875 0.290864,-0.29086 c 0.159978,-0.15998 0.404569,-0.29087 0.543542,-0.29087 h 0.252674 l -0.480359,0.53079 c -0.264197,0.29194 -0.412197,0.59895 -0.328888,0.68226 0.185383,0.18538 1.380705,-1.39015 1.385351,-1.82601 0.0019,-0.17219 0.21704,-0.61073 0.478229,-0.97454 0.261188,-0.3638 0.916032,-1.28144 1.455208,-2.0392 0.539176,-0.75776 1.754225,-2.39332 2.70011,-3.63457 l 1.719792,-2.25683 1.25677,-0.003 1.256771,-0.003 v 0.54478 0.54479 l -0.229222,-0.14167 -0.229224,-0.14167 -0.483547,0.53432 -0.483547,0.53431 0.514334,-0.16528 0.514331,-0.16528 -0.51359,0.41848 c -0.282475,0.23016 -0.609897,0.41847 -0.727605,0.41847 -0.117707,0 -0.190351,0.0893 -0.161432,0.19844 0.02892,0.10914 -0.385318,0.66548 -0.920528,1.23631 l -0.973103,1.03787 0.291462,0.35119 0.291465,0.35119 h -0.253002 c -0.257509,0 -1.918433,2.28541 -2.692625,3.70501 -0.498729,0.9145 -2.532743,4.39492 -3.008874,5.14851 -0.938958,1.48614 -1.58233,2.63859 -1.621316,2.90422 -0.05567,0.37932 -1.102545,1.90535 -1.990397,2.90141 l -0.685038,0.76853 0.396875,-0.224 0.396875,-0.22401 -0.386,0.47523 c -0.212302,0.26138 -0.670306,0.58332 -1.017792,0.71544 l -0.63179,0.2402 -0.124865,0.47749 -0.124867,0.47749 -0.813155,-0.11935 -0.813157,-0.11934 0.198797,0.32166 0.198797,0.32166 -0.491942,-0.0688 c -0.270568,-0.0378 -1.206317,0.0904 -2.079442,0.28496 l -1.5875,0.35375 -2.778125,-0.0474 c -1.527969,-0.026 -3.849688,-0.0698 -5.159375,-0.0973 -1.309688,-0.0274 -2.887266,0.045 -3.505729,0.16098 l -1.124479,0.2109 z M 83.27874,255.29341 v -0.38524 l -0.224803,0.13894 -0.224801,0.13894 0.152223,0.2463 c 0.213947,0.34617 0.297381,0.30719 0.297381,-0.13894 z m -17.722733,-7.07271 -0.138965,-0.34726 -0.02087,0.50712 -0.02088,0.50711 0.159853,-0.15985 c 0.08792,-0.0879 0.09732,-0.31612 0.02088,-0.50712 z m 5.507802,5.60586 c 0.08994,-0.14552 0.216027,-0.26458 0.280199,-0.26458 0.06417,0 0.116676,0.11906 0.116676,0.26458 0,0.14552 -0.12609,0.26459 -0.280199,0.26459 h -0.280197 z m 17.594791,-4.6019 c 0,-0.0572 0.184777,-0.17489 0.410617,-0.26155 l 0.410618,-0.15757 -0.16165,0.26155 c -0.155379,0.25141 -0.659585,0.37186 -0.659585,0.15757 z m -59.680185,-1.01039 c -0.427408,-0.46738 -0.587557,-0.70654 -0.355886,-0.53146 0.23167,0.17508 0.469795,0.2896 0.529167,0.25448 0.05937,-0.0351 0.07792,-0.014 0.04122,0.047 -0.0367,0.0609 0.130584,0.32884 0.371736,0.59531 0.241153,0.26647 0.382751,0.48449 0.314662,0.48449 -0.06809,0 -0.473495,-0.3824 -0.900903,-0.84979 z"
         id="path148"
         inkscape:connector-curvature="0" />
      <path
         style="fill:#ff0000;stroke-width:0.26458332"
         d="m 26.355146,269.92337 0.139538,-0.3541 3.896021,-1.24076 c 2.142812,-0.68242 4.402037,-1.37162 5.020501,-1.53155 l 1.124479,-0.29079 v -0.38668 -0.38668 h 0.38126 c 0.209693,0 0.447982,-0.10795 0.529532,-0.23991 l 0.148271,-0.2399 -0.595677,0.13392 c -0.327623,0.0737 -0.952865,0.29031 -1.389428,0.48146 -1.18024,0.51677 -5.46696,2.1686 -6.151562,2.37042 l -0.595313,0.17551 v -0.27632 c 0,-0.32349 0.960755,-0.97036 1.719792,-1.15792 0.291041,-0.0719 1.625028,-0.46172 2.964415,-0.86622 l 2.435248,-0.73546 -0.135759,-0.21966 -0.135759,-0.21967 h 0.529167 c 0.291041,0 0.602751,-0.11906 0.692688,-0.26458 l 0.163521,-0.26458 -0.346344,-0.009 -0.346344,-0.009 0.590648,-0.49286 0.590648,-0.49285 -0.72294,-0.20214 -0.722939,-0.20214 0.463021,-0.10935 c 0.254661,-0.0602 0.46302,-0.23527 0.46302,-0.38916 v -0.2798 l -0.992187,0.14557 -0.992188,0.14557 0.529167,-0.22115 c 0.291042,-0.12163 0.767292,-0.31328 1.058333,-0.4259 l 0.529167,-0.20476 -0.727604,-0.0995 -0.727604,-0.0995 v -0.24701 -0.24701 h 0.513551 c 0.282454,0 0.597806,-0.13633 0.700782,-0.30295 l 0.187231,-0.30294 -0.68772,0.13146 -0.687719,0.13147 0.05308,-0.29154 0.05308,-0.29153 -1.389062,-0.08 -1.389063,-0.08 v -0.26697 -0.26697 l 1.256771,0.17198 c 0.691224,0.0946 1.522725,0.21271 1.84778,0.26249 l 0.591008,0.0905 0.143948,-0.23292 0.143949,-0.23291 -0.867249,-0.16196 c -0.476987,-0.0891 -1.27688,-0.19289 -1.777541,-0.23071 l -0.910293,-0.0687 -0.113474,-0.34042 -0.113473,-0.34042 1.156058,0.18021 c 0.635832,0.0991 1.394183,0.22986 1.685225,0.29055 l 0.529166,0.11034 -0.79375,-0.38232 c -0.436562,-0.21027 -0.995082,-0.38769 -1.241156,-0.39425 -0.246073,-0.007 -0.515906,-0.12277 -0.599628,-0.25823 l -0.152222,-0.2463 0.280534,-0.17339 0.280535,-0.17338 0.665511,0.43606 0.665512,0.43606 0.447332,-0.0958 0.447332,-0.0958 -0.81302,-0.43227 c -0.447161,-0.23774 -0.967755,-0.61871 -1.156876,-0.84659 l -0.343855,-0.41432 h 0.274931 c 0.151212,0 0.314619,0.11637 0.363126,0.2586 l 0.08819,0.25859 0.926042,0.15869 0.926042,0.15869 -0.727604,-0.66918 c -0.400183,-0.36804 -0.727605,-0.74244 -0.727605,-0.83198 v -0.16282 l 0.595313,0.18299 0.595312,0.18298 -0.656262,-0.76046 c -0.360944,-0.41826 -1.015787,-1.17201 -1.455208,-1.675 l -0.798946,-0.91452 0.469414,0.35691 c 0.258179,0.19631 0.527859,0.29848 0.599289,0.22705 0.07143,-0.0714 -1.371894,-1.54692 -3.20739,-3.27885 -1.835496,-1.73194 -3.371676,-3.08945 -3.413733,-3.01669 -0.04206,0.0728 -0.324055,-0.16536 -0.626659,-0.52916 -0.302605,-0.36381 -0.554152,-0.56802 -0.558994,-0.45382 -0.01695,0.39993 -2.390052,-2.59501 -2.390052,-3.01633 0,-0.0976 0.193685,-0.25173 0.43041,-0.34257 l 0.430411,-0.16516 0.409548,0.33529 0.409548,0.33529 -0.46589,-0.71596 -0.465889,-0.71597 0.170713,-0.27622 c 0.09389,-0.15192 0.389476,-0.27622 0.656855,-0.27622 h 0.486143 l 0.830361,0.99219 c 0.943307,1.12714 0.863903,1.02708 2.482122,3.12786 0.664511,0.86267 1.515985,1.91783 1.892164,2.34479 0.37618,0.42696 1.068,1.27891 1.537379,1.8932 0.469379,0.6143 1.08375,1.26196 1.365269,1.43926 l 0.511853,0.32234 -1.435415,-1.81867 c -0.789479,-1.00027 -2.537859,-3.16581 -3.88529,-4.8123 l -2.449875,-2.99362 v -0.51211 -0.51211 h 0.696363 0.696362 l 0.824992,0.87836 c 0.453745,0.48309 1.001179,1.22723 1.21652,1.65364 0.605111,1.19822 4.693623,7.39727 5.083033,7.70696 0.190449,0.15146 0.804475,0.35803 1.364503,0.45904 l 1.018231,0.18367 -0.17395,-0.28146 -0.173951,-0.28146 0.166452,-0.26932 0.166453,-0.26933 1.087412,0.93079 c 0.598077,0.51193 1.185043,0.93078 1.304371,0.93078 0.119327,0 0.216958,0.11505 0.216958,0.25566 v 0.25566 l -0.921616,-0.54377 c -0.50689,-0.29907 -1.051428,-0.50049 -1.210087,-0.44761 l -0.28847,0.0962 1.094208,0.61498 1.094207,0.61498 0.446608,-0.38851 0.446609,-0.3885 0.363802,0.13084 0.363802,0.13084 -0.120894,-0.36268 -0.120893,-0.36268 -0.3752,-0.007 c -1.140379,-0.0199 -2.888742,-1.17177 -2.888742,-1.90322 v -0.36006 l 0.554203,0.2966 0.554204,0.2966 -0.175158,-0.55187 -0.175159,-0.55188 h 0.18433 c 0.264595,0 2.497163,2.43655 2.497163,2.72531 v 0.24172 l 0.418514,-0.1606 c 0.230184,-0.0883 0.576224,-0.1606 0.76898,-0.1606 h 0.350465 L 43.745989,250.85 43.5975,250.25469 l 0.545881,0.66037 0.545882,0.66038 -0.138588,-0.79267 -0.138588,-0.79267 0.411071,0.52917 0.411072,0.52917 -0.229097,-1.0309 c -0.126004,-0.56699 -0.34733,-1.10396 -0.491837,-1.19327 -0.144507,-0.0893 -0.351461,-0.51838 -0.459897,-0.95348 l -0.197156,-0.7911 0.412297,0.3395 c 0.226763,0.18673 0.558613,0.69274 0.737445,1.12448 0.342106,0.82592 0.638128,0.98037 0.94069,0.49081 l 0.181804,-0.29416 -0.232335,-0.16886 c -0.531972,-0.38663 -1.182069,-1.32474 -1.283689,-1.85241 l -0.108887,-0.5654 h 0.270414 0.270414 l -0.168804,-0.76857 -0.168805,-0.76856 0.280074,-0.17309 0.280073,-0.1731 0.03307,0.2802 c 0.06327,0.53605 0.127771,0.68248 0.706121,1.60312 0.31996,0.50932 0.592112,0.98557 0.604783,1.05833 0.01267,0.0728 0.05306,0.40441 0.08975,0.737 0.0367,0.33258 0.203383,0.74136 0.370417,0.9084 l 0.303699,0.3037 0.179176,-0.17918 0.179177,-0.17918 -0.439928,-0.48611 -0.439927,-0.48611 0.1628,-0.1628 0.1628,-0.16281 -0.927485,-1.93239 c -0.510116,-1.06282 -1.000221,-2.1515 -1.089122,-2.41929 l -0.161639,-0.4869 0.156706,-0.25355 0.156705,-0.25356 0.372886,0.30947 0.372887,0.30947 -0.394645,-1.11855 -0.394645,-1.11854 0.170882,-0.27649 0.170882,-0.27649 0.375645,0.5031 0.375647,0.5031 -0.166651,-1.05833 -0.16665,-1.05834 0.245729,0.39688 c 0.135151,0.21828 0.392323,1.02334 0.571495,1.78901 l 0.325766,1.39214 -0.156389,0.40754 -0.156388,0.40754 0.227448,-0.14057 0.227448,-0.14057 0.133931,0.99853 c 0.07366,0.5492 0.457632,1.76713 0.853266,2.70652 0.395635,0.93939 0.892043,2.17228 1.10313,2.73974 l 0.383794,1.03176 -0.152786,0.69563 -0.152787,0.69564 -0.557252,0.34801 c -1.328351,0.82957 -2.407473,1.37414 -2.513296,1.26831 -0.06281,-0.0628 -0.584579,0.30808 -1.159493,0.82419 l -1.045298,0.93839 v 0.49926 0.49926 l 0.879689,0.36756 c 0.483829,0.20216 1.673789,0.50585 2.644354,0.67486 l 1.764665,0.30731 0.63262,0.49762 0.632622,0.49762 0.173489,0.92478 0.17349,0.92478 0.716724,0.66216 c 0.394197,0.36419 1.073909,0.96405 1.510472,1.33303 l 0.79375,0.67086 -1.398857,-0.53337 c -0.769372,-0.29336 -1.543278,-0.52853 -1.719792,-0.52262 l -0.320934,0.0107 0.926041,0.80983 0.926042,0.80983 -0.661458,-0.19042 c -0.363802,-0.10473 -0.863555,-0.36771 -1.110561,-0.58441 l -0.449101,-0.39399 -2.329024,-0.11587 c -2.36847,-0.11783 -4.313398,-0.53251 -4.313398,-0.91967 v -0.21394 l -0.398917,0.15308 -0.398918,0.15308 -0.682372,-0.4471 c -0.375304,-0.24591 -0.742303,-0.38718 -0.815553,-0.31393 -0.07325,0.0733 -0.01778,0.88643 0.123271,1.80708 l 0.256452,1.67389 -0.133156,0.87906 -0.133157,0.87906 -0.911866,0.88559 c -1.037323,1.00743 -2.394424,1.72192 -3.270631,1.72192 h -0.596333 l 0.478889,-0.52917 C 37.76907,267.48204 37.713,267.473 36.304359,267.96999 l -1.091599,0.38514 v -0.21049 c 0,-0.11578 0.482219,-0.36965 1.071597,-0.56416 1.194563,-0.39424 1.360034,-0.54434 1.087054,-0.98603 l -0.187683,-0.30367 -2.242255,1.12671 c -2.370955,1.19138 -5.725782,2.37312 -7.60073,2.67736 l -1.125143,0.18258 z m 23.277413,-9.74681 -0.163521,-0.26458 h 0.333115 0.333115 l -0.294447,-0.29445 -0.294446,-0.29444 -0.276082,0.17063 -0.276081,0.17062 0.149044,0.38841 c 0.08197,0.21362 0.262394,0.3884 0.400934,0.3884 h 0.251891 z m -15.003367,-8.6651 c -0.220553,-0.25466 -0.622655,-0.73091 -0.893558,-1.05833 -0.270903,-0.32743 -0.609317,-0.59532 -0.75203,-0.59532 -0.142714,0 0.205566,0.47625 0.773956,1.05834 1.037383,1.06237 1.621873,1.46157 0.871632,0.59531 z m 7.198159,-0.28826 c 0,-0.12216 -0.327422,-0.38623 -0.727604,-0.58682 -1.20478,-0.60389 -1.294797,-0.57861 -0.463021,0.13004 0.82045,0.69901 1.190625,0.84103 1.190625,0.45678 z m 4.772119,-1.22151 -0.319758,-0.38528 0.19595,-0.31705 0.19595,-0.31706 -0.305464,0.18879 c -0.404995,0.2503 -0.389874,0.87315 0.02526,1.04066 0.528699,0.21334 0.545425,0.19645 0.208056,-0.21006 z m -14.826285,-1.54718 c 0,-0.0442 -0.446485,-0.4907 -0.992188,-0.99219 l -0.992187,-0.9118 0.911798,0.99219 c 0.848682,0.92351 1.072577,1.11384 1.072577,0.9118 z m 14.552083,-0.54539 c 0,-0.41992 -1.060333,-1.84167 -1.239719,-1.66228 -0.105978,0.10598 1.001068,2.01166 1.173573,2.0202 0.03638,0.002 0.06615,-0.15926 0.06615,-0.35792 z m 0.97449,-1.80508 -0.138964,-0.34727 -0.02089,0.50712 -0.02089,0.50712 0.159852,-0.15985 c 0.08792,-0.0879 0.09732,-0.31613 0.02089,-0.50712 z M 28.3136,244.69844 c -0.913293,-0.94589 -1.723921,-1.71979 -1.801396,-1.71979 -0.07747,0 0.345186,0.50601 0.939246,1.12448 0.594059,0.61846 1.300153,1.39237 1.569097,1.71979 0.268945,0.32742 0.593524,0.59531 0.721288,0.59531 0.127763,0 -0.514942,-0.77391 -1.428235,-1.71979 z m 18.881002,0.39275 c -0.0767,-0.29331 -0.244149,-0.59799 -0.372105,-0.67707 l -0.232646,-0.14379 v 0.25856 c 0,0.45125 0.313295,1.09559 0.532704,1.09559 h 0.211506 z m -17.160734,24.90655 c 0.0792,-0.12815 0.413647,-0.29026 0.743219,-0.36025 0.329573,-0.07 1.407754,-0.43789 2.395959,-0.81755 l 1.796737,-0.69029 -0.174966,0.2831 c -0.09623,0.1557 -0.904763,0.62835 -1.796737,1.05033 l -1.62177,0.76723 -0.743219,2.1e-4 -0.743219,2.1e-4 z m 29.255983,-1.75892 c 0,-0.10929 0.208359,-0.35403 0.463021,-0.54386 l 0.46302,-0.34515 -1.521354,0.1214 -1.521354,0.12139 0.0019,-0.20229 c 0.0028,-0.31204 1.623002,-1.34277 2.649741,-1.68568 l 0.920327,-0.30737 0.79375,-0.74203 c 0.937734,-0.87665 1.733071,-1.20242 4.205028,-1.72242 l 1.83611,-0.38623 0.87561,-0.54116 0.875609,-0.54116 -0.334534,-0.81984 -0.334533,-0.81985 -1.51874,-0.56671 -1.518743,-0.56671 -0.772949,-0.93772 -0.772948,-0.93772 -0.277768,-2.21524 c -0.152818,-1.21838 -0.277812,-2.72063 -0.277812,-3.33835 V 250.139 l 0.396875,0.1523 0.396875,0.1523 -0.01961,-1.68196 c -0.01079,-0.92507 -0.114953,-2.21773 -0.231473,-2.87258 l -0.211855,-1.19062 -0.04116,1.05833 -0.04116,1.05833 -0.221871,-0.39687 c -0.313741,-0.56121 -1.028864,-5.02845 -1.207111,-7.54063 l -0.150189,-2.11666 0.235141,-0.79375 0.23514,-0.79375 0.28547,0.71212 c 0.157009,0.39166 0.368398,1.62724 0.469752,2.74572 l 0.184282,2.03361 0.448932,-0.59516 0.448932,-0.59516 0.20343,0.49527 c 0.111887,0.27239 0.256847,1.61707 0.322133,2.98816 l 0.118702,2.4929 0.380008,0.54254 c 0.209005,0.29839 0.380008,0.82827 0.380008,1.17752 v 0.63498 l 0.396875,-0.32938 0.396875,-0.32937 0.03603,1.55375 0.03603,1.55375 0.118665,-0.66146 c 0.06527,-0.3638 0.227645,-0.77457 0.360844,-0.91281 l 0.242179,-0.25136 0.02387,1.57427 0.02387,1.57427 0.293666,-0.92604 0.293666,-0.92604 0.110652,0.79375 0.110651,0.79375 0.21468,-0.52917 0.214683,-0.52916 0.0186,0.84428 0.0186,0.84428 -0.268899,0.16619 -0.268899,0.16619 0.177488,0.28718 0.177488,0.28718 -0.280625,-0.17344 -0.280625,-0.17343 0.124034,-0.59505 0.124034,-0.59505 -0.40408,0.66146 -0.404082,0.66146 -0.0094,-0.46302 -0.0094,-0.46302 h -0.262925 -0.262921 l 0.09082,0.59531 0.09082,0.59531 0.738089,0.0128 0.73809,0.0128 0.48654,-1.07114 0.486542,-1.07114 0.0267,1.19062 0.0267,1.19063 0.133453,-0.33073 c 0.185891,-0.46068 0.618521,-0.41441 0.618521,0.0661 v 0.39688 h 0.256281 0.256278 l -0.153588,0.40024 -0.153588,0.40025 0.34144,0.4114 0.341439,0.41141 0.360656,-0.61321 0.360657,-0.61322 -0.173067,0.66146 c -0.09519,0.3638 -0.278747,0.77457 -0.407911,0.91281 -0.383669,0.41064 -0.269219,0.90226 0.278262,1.19526 l 0.51311,0.27461 0.18923,-0.30618 0.18923,-0.30618 -0.305465,0.18879 -0.305464,0.18879 v -0.22728 c 0,-0.12501 0.125598,-0.35288 0.279107,-0.50639 l 0.279106,-0.27911 0.122454,-1.29516 c 0.06735,-0.71234 0.245954,-2.05688 0.396897,-2.98787 l 0.274444,-1.69269 0.525597,-1.03026 c 0.289081,-0.56665 0.76354,-1.2682 1.054354,-1.55902 0.290817,-0.29081 0.633275,-0.80366 0.761021,-1.13965 0.302708,-0.79618 2.40198,-3.6013 2.695112,-3.6013 0.124569,0 0.226492,-0.22026 0.226492,-0.48947 v -0.48947 l 0.827693,-1.16418 c 0.455229,-0.6403 1.128593,-1.43207 1.496359,-1.75949 l 0.668671,-0.59531 h 0.488013 c 0.567849,0 0.62474,0.27921 0.157284,0.77195 l -0.330729,0.34862 0.587211,-0.35429 0.587211,-0.35428 0.537268,0.57668 c 0.586912,0.62998 0.694426,1.26421 0.259837,1.5328 l -0.277432,0.17146 0.304655,0.36709 0.304654,0.36708 -1.81316,1.77333 c -0.997238,0.97533 -1.664332,1.68548 -1.482431,1.57812 l 0.330729,-0.19521 v 0.29223 c 0,0.16072 -0.268383,0.56061 -0.596408,0.88863 l -0.596411,0.59641 0.08125,0.42191 0.08125,0.4219 -0.873906,0.61056 c -0.941879,0.65805 -1.313164,1.07874 -1.121343,1.27056 0.06637,0.0664 0.475368,-0.21916 0.908896,-0.63451 l 0.788231,-0.75517 0.201014,0.20101 0.201015,0.20102 -0.835311,0.70574 c -0.459422,0.38815 -1.152093,0.92579 -1.539269,1.19476 -0.387175,0.26896 -0.635809,0.55716 -0.552524,0.64045 0.08329,0.0833 0.418851,-0.0921 0.745699,-0.38981 0.326848,-0.29769 0.846505,-0.671 1.154795,-0.82958 l 0.560523,-0.28834 0.167658,0.16765 0.167656,0.16766 -0.438459,0.48449 -0.43846,0.4845 h -0.447151 -0.447151 l -0.480359,0.53079 -0.480357,0.53078 0.159629,0.15963 0.159631,0.15963 1.237435,-0.83513 c 0.68059,-0.45932 1.301827,-0.77074 1.38053,-0.69204 0.259733,0.25973 -0.783932,1.17958 -1.670246,1.47209 l -0.870651,0.28734 -0.147386,0.38408 c -0.08106,0.21124 -0.27721,0.38408 -0.435886,0.38408 h -0.288501 l 0.189277,-0.30626 0.189281,-0.30627 -0.600832,0.15713 -0.600832,0.15712 0.579358,-0.6167 0.579356,-0.6167 -0.25554,-0.15793 -0.25554,-0.15793 -0.422833,0.64532 -0.422831,0.64532 0.157615,0.41074 0.157615,0.41074 h 0.421484 0.421484 l -0.3175,0.3175 -0.3175,0.3175 v 0.75681 0.7568 l 0.971735,-0.0821 0.971735,-0.0821 0.112493,-0.34227 0.112493,-0.34226 -0.753499,0.18307 -0.753499,0.18307 0.661459,-0.56985 0.661458,-0.56985 -0.744829,0.26603 c -1.030187,0.36794 -1.038968,0.35408 -0.265655,-0.41923 l 0.685255,-0.68526 0.193652,0.31333 0.193648,0.31333 0.82886,-0.42862 c 0.997675,-0.51591 1.072798,-0.75092 0.167402,-0.52368 -0.93024,0.23348 -0.822539,-0.009 0.297929,-0.66971 1.023652,-0.60397 1.447665,-0.55179 0.898004,0.11051 l -0.334685,0.40327 h 0.296982 0.296978 v 0.39306 0.39307 l -1.190624,0.2998 -1.190625,0.29981 v 0.35196 0.35197 l 0.917543,-0.38338 c 1.070851,-0.44743 1.463706,-0.48205 1.463706,-0.12899 v 0.25439 l -1.016317,0.27366 -1.016315,0.27367 -0.479898,0.53028 c -0.627735,0.69364 -0.431324,0.66888 0.959093,-0.12089 l 1.146408,-0.65117 0.571524,0.14344 0.571526,0.14345 0.176771,-0.28602 c 0.09722,-0.15732 0.30726,-0.28603 0.466746,-0.28603 h 0.289978 l -0.437883,0.48386 c -0.240837,0.26612 -0.437883,0.5708 -0.437883,0.67707 v 0.19322 l 0.264584,-0.16352 0.264583,-0.16352 v 0.1668 c 0,0.0918 -0.16442,0.33123 -0.365376,0.53218 l -0.365377,0.36538 -0.206211,-0.18584 -0.206208,-0.18584 0.18963,0.32961 0.189632,0.3296 -0.742524,0.29553 c -0.40839,0.16254 -1.05855,0.46071 -1.444805,0.66259 -0.386255,0.20188 -0.922036,0.3595 -1.190625,0.35028 l -0.488344,-0.0168 0.595312,-0.23928 c 0.813943,-0.32717 0.750777,-0.41164 -0.330729,-0.4423 l -0.926041,-0.0263 v 0.37069 0.37069 h 0.292891 0.292891 l -0.156139,0.40689 -0.156138,0.40689 0.394406,0.15135 0.394407,0.15135 0.990195,-0.21383 0.990195,-0.21383 -1.190625,-0.17238 -1.190625,-0.17238 0.79375,-0.0412 c 1.118174,-0.0581 2.778125,-0.54864 2.778125,-0.82104 v -0.22874 l 0.463021,0.0725 0.46302,0.0725 0.719429,-0.79584 0.719426,-0.79584 -0.142396,-0.2304 -0.142399,-0.2304 -0.250616,0.15489 -0.250616,0.15489 0.175421,0.31244 0.175424,0.31245 -0.333261,-0.30768 -0.333264,-0.30767 0.221308,-0.35379 c 0.121719,-0.19458 0.224454,-0.53237 0.228301,-0.75065 l 0.007,-0.39688 0.350396,0.0727 0.350396,0.0727 -0.170241,-0.27545 -0.170241,-0.27545 -0.272698,0.16853 -0.272698,0.16854 0.300548,-0.49495 c 0.46296,-0.76241 2.870713,-4.0729 4.779338,-6.57126 l 1.719792,-2.25117 1.272386,-0.003 1.272384,-0.003 -0.19989,0.33073 c -0.31546,0.52195 -3.553172,4.73825 -4.364477,5.68362 -0.403547,0.47024 -1.292227,1.7204 -1.974842,2.77813 -0.682617,1.05773 -1.76671,2.72352 -2.409097,3.70175 l -1.167979,1.77861 -0.147021,0.99952 c -0.08086,0.54973 -0.444826,1.64623 -0.808805,2.43667 l -0.661784,1.43715 -1.255683,1.34097 -1.255684,1.34098 0.115703,0.39687 0.115699,0.39688 -0.271139,-0.39051 -0.27114,-0.39051 -0.212024,0.5228 -0.212024,0.5228 -0.79375,0.0258 c -0.436562,0.0142 -1.567656,0.23823 -2.513541,0.49786 l -1.719792,0.47206 -2.910417,-0.0518 c -1.600729,-0.0285 -4.04151,-0.0739 -5.423958,-0.10098 l -2.513541,-0.0492 -0.992188,0.22788 -0.992187,0.22789 z m 4.682979,-2.66035 0.09422,-0.28663 h -0.392586 -0.392586 l 0.123891,0.20046 0.123894,0.20047 -0.466262,0.13502 -0.46626,0.13502 0.640734,-0.0489 0.640733,-0.0489 z m 15.888374,-9.9088 c 0.763985,-0.32491 1.389063,-0.67742 1.389063,-0.78336 v -0.19262 l -0.727604,0.13493 c -0.400183,0.0742 -1.011553,0.35536 -1.358599,0.62477 l -0.630994,0.48984 h -0.89036 -0.89036 v 0.28617 0.28617 l 0.859896,-0.12758 c 0.472943,-0.0702 1.484974,-0.39341 2.248958,-0.71832 z m 0.198438,0.53814 0.529166,-0.22739 -0.396875,-0.0146 c -0.218281,-0.008 -0.575468,0.10087 -0.793749,0.24194 l -0.396875,0.25647 0.264583,-0.0145 c 0.145521,-0.008 0.502708,-0.11687 0.79375,-0.24193 z m -2.248958,-0.79375 c 0,-0.3315 -0.280787,-0.3315 -0.79375,0 l -0.396875,0.25648 0.595312,0.004 0.595313,0.004 v -0.26458 z m -8.466667,-0.66146 v -0.66145 l -0.595312,0.004 -0.595313,0.004 0.396875,0.25088 c 0.218281,0.13799 0.411758,0.37429 0.429948,0.52512 0.09832,0.81521 0.363802,0.72571 0.363802,-0.12264 z m 14.850417,-0.85989 0.363124,-0.46302 -0.46302,0.36312 c -0.254662,0.19972 -0.463021,0.40808 -0.463021,0.46302 0,0.21777 0.217273,0.0776 0.562917,-0.36312 z m -17.400569,-1.78594 -0.152297,-0.39687 h -0.378999 -0.378998 l 0.34116,0.38681 c 0.187639,0.21274 0.426722,0.39134 0.531296,0.39687 l 0.190132,0.0101 -0.152294,-0.39688 z m -1.767025,-1.24023 -0.138964,-0.34727 -0.02088,0.50712 -0.02088,0.50712 0.159854,-0.15985 c 0.08792,-0.0879 0.09732,-0.31613 0.02088,-0.50712 z m 1.19208,-0.60916 0.108368,-0.92825 -0.17644,0.19819 c -0.09704,0.10901 -0.249922,0.59107 -0.339735,1.07125 l -0.163293,0.87305 0.231365,-0.14299 c 0.127251,-0.0787 0.280133,-0.56071 0.339735,-1.07125 z m 10.418064,-0.26704 0.708689,-1.04432 -0.428953,0.356 -0.428953,0.356 v -0.23854 c 0,-0.13121 0.430297,-0.68157 0.956217,-1.22303 0.525918,-0.54146 0.871308,-0.98447 0.767533,-0.98447 -0.103775,0 -0.694542,0.53553 -1.312812,1.19007 l -1.124128,1.19007 -0.02336,0.82148 c -0.02684,0.94412 -0.04952,0.95495 0.885764,-0.42326 z m -11.005238,-1.05857 c 0,-0.43656 -0.107653,-0.96386 -0.239231,-1.17177 l -0.239231,-0.37803 0.01373,1.52759 0.01373,1.52759 0.225505,-0.35581 c 0.124028,-0.1957 0.225504,-0.71301 0.225504,-1.14957 z m 10.153407,-0.27642 -0.150337,-0.39178 0.326581,-0.3935 0.32658,-0.39351 h -0.312594 -0.312595 l 0.166188,-0.2689 0.16619,-0.26889 0.312446,0.17542 0.312447,0.17542 -0.345014,-0.36954 -0.345014,-0.36955 -0.479754,0.63492 -0.479753,0.63493 0.128022,0.48955 c 0.07041,0.26926 0.240226,0.48956 0.377362,0.48956 h 0.249338 l -0.188786,0.30546 -0.188788,0.30547 0.29391,-0.18165 0.293907,-0.18164 z m 4.421743,-4.75066 c 0.327937,-0.63471 -2.354951,2.20537 -3.499141,3.70416 l -0.80794,1.05834 2.016839,-2.11667 c 1.109261,-1.16417 2.139871,-2.35479 2.290242,-2.64583 z m -2.891629,2.3151 0.363125,-0.46302 -0.463021,0.36313 c -0.44073,0.34564 -0.580887,0.56291 -0.363125,0.56291 0.05494,0 0.2633,-0.20836 0.463021,-0.46302 z m -0.454956,-0.46302 0.433406,-0.66146 h -0.270685 c -0.148876,0 -0.270682,0.11056 -0.270682,0.24569 0,0.13512 -0.187097,0.43278 -0.415774,0.66146 l -0.415774,0.41577 h 0.253053 c 0.139178,0 0.448085,-0.29766 0.686456,-0.66146 z m -45.616293,20.00726 v -0.2754 l 1.124479,-0.28967 c 0.618464,-0.15931 1.51247,-0.4116 1.986681,-0.56064 0.474211,-0.14904 1.009992,-0.22164 1.190625,-0.16134 l 0.328423,0.10964 -1.455208,0.54094 c -0.800364,0.29752 -1.842161,0.6244 -2.315104,0.72641 l -0.859896,0.18547 z m 0.909611,-1.32755 c 0.18888,-0.30561 2.672713,-0.90602 3.117712,-0.75363 l 0.338302,0.11585 -1.495929,0.43789 c -0.822762,0.24084 -1.63346,0.43789 -1.801553,0.43789 h -0.305623 z m 0.32804,-1.37007 c 0.156833,-0.15683 0.717061,-0.38256 1.244951,-0.50162 l 0.9598,-0.21647 0.127596,0.20646 0.127596,0.20645 -1.172209,0.29517 c -1.458389,0.36722 -1.646408,0.36869 -1.287734,0.01 z m 0.217557,-1.30235 0.163522,-0.26458 1.241156,0.0264 1.241156,0.0264 -0.661459,0.21183 c -0.363802,0.11651 -0.995907,0.22371 -1.404677,0.23821 l -0.743219,0.0264 z m 0.264584,-1.05833 0.163521,-0.26458 h 0.910427 0.910427 v 0.26458 0.26458 h -1.073948 -1.073949 z m 48.778547,-4.41704 c 0.167479,-0.31931 0.422929,-0.65376 0.567667,-0.74321 l 0.263159,-0.16265 v 0.2392 c 0,0.13155 -0.255449,0.466 -0.567666,0.74321 l -0.567666,0.50403 z m -10.27326,-0.41161 c 0.0097,-0.38213 0.627335,-1.25677 0.887445,-1.25677 0.09683,0 -0.0087,0.35719 -0.2344,0.79375 -0.435515,0.8422 -0.666864,1.00623 -0.653045,0.46302 z m -36.785496,-0.19843 -0.396875,-0.25648 0.463021,-0.004 0.463021,-0.004 v 0.26459 c 0,0.32268 -0.02984,0.32268 -0.529167,0 z m 7.761972,-5.3076 c -0.460342,-0.29491 -1.024565,-0.82247 -1.25383,-1.17237 l -0.416843,-0.63619 0.232701,-0.14382 0.232701,-0.14381 0.470113,0.72533 c 0.258563,0.39893 0.777602,0.99308 1.153421,1.32032 0.845689,0.73638 0.683026,0.75604 -0.418263,0.0505 z m 0.836986,-0.56626 c -0.616193,-0.35111 -1.455208,-1.25438 -1.455208,-1.56666 v -0.21579 l 0.330729,0.14692 c 0.309004,0.13727 1.947431,1.96268 1.745851,1.94509 -0.05071,-0.004 -0.33033,-0.14373 -0.621372,-0.30956 z m 0.288104,-0.76103 c -0.686918,-0.81635 -0.865145,-1.30261 -0.477441,-1.30261 0.114145,0 0.4326,0.38695 0.707677,0.85989 0.275078,0.47295 0.62817,0.94737 0.784651,1.05428 l 0.284509,0.19439 -0.307209,0.004 c -0.168965,0.002 -0.615449,-0.36228 -0.992187,-0.81 z"
         id="path146"
         inkscape:connector-curvature="0" />
      <path
         style="fill:#ff6600;stroke-width:0.26458332"
         d="m 26.673872,269.88175 -0.09959,-0.29877 2.533306,-0.82212 c 3.638626,-1.18083 6.443461,-1.98421 6.551219,-1.87645 0.13511,0.13511 -4.081756,2.04337 -5.416551,2.45115 l -1.134053,0.34646 0.192655,-0.32096 0.192655,-0.32096 -0.381518,0.30323 c -0.209835,0.16677 -0.821847,0.42336 -1.360026,0.5702 l -0.978507,0.26699 z m 3.39275,0.11163 c 0.138245,-0.13055 0.787136,-0.31347 1.441979,-0.40649 l 1.190625,-0.16913 -0.661458,0.39711 -0.661458,0.39711 -0.780521,0.009 -0.780521,0.009 z m 6.998229,-1.56182 c 0,-0.11641 0.142875,-0.35454 0.3175,-0.52916 l 0.3175,-0.3175 -0.515937,-0.008 -0.515938,-0.008 0.463021,-0.26968 0.463021,-0.26969 v -0.49125 -0.49125 l -0.595313,0.14849 -0.595312,0.14849 0.661458,-0.56133 0.661459,-0.56133 -0.417884,-0.009 -0.417883,-0.009 0.02101,-0.59532 0.02101,-0.59531 0.370635,-0.23392 0.370636,-0.23391 -0.635219,-0.35202 -0.635218,-0.35201 0.463021,-0.009 0.463021,-0.009 v -0.26459 -0.26458 l -0.859896,-0.0209 -0.859896,-0.0209 0.396875,-0.13237 c 0.218281,-0.0728 0.575469,-0.19047 0.79375,-0.26149 l 0.396875,-0.12912 -0.465116,-0.26111 -0.465117,-0.26111 -0.303368,0.18749 -0.303368,0.1875 0.188787,-0.30547 0.188787,-0.30549 h 0.513552 0.513551 v -0.26458 -0.26458 h -0.529166 -0.529167 v -0.26459 -0.26458 H 34.55131 33.096101 v -0.28784 -0.28784 l 1.12448,0.17303 c 0.618463,0.0952 1.511432,0.23794 1.984375,0.31728 l 0.859895,0.14426 v -0.26317 c 0,-0.14474 -0.26789,-0.33658 -0.595312,-0.42631 l -0.595313,-0.16315 0.358977,-0.23151 0.358977,-0.23152 -0.341415,-0.21101 -0.341414,-0.211 0.511604,-0.19185 0.511605,-0.19185 -1.058334,-0.46179 -1.058333,-0.46179 0.339625,-0.11948 0.339625,-0.11949 0.330707,0.27447 0.330707,0.27446 0.330787,-0.20444 0.330787,-0.20444 -0.685704,-0.6857 -0.685704,-0.68571 0.610627,0.15073 0.610626,0.15073 -0.582684,-0.63813 c -0.320477,-0.35096 -0.758774,-1.05956 -0.973994,-1.57465 l -0.391309,-0.93654 -2.201006,-2.129 c -2.59093,-2.50616 -5.177388,-4.82654 -5.999341,-5.38215 -0.559563,-0.37825 -1.890207,-2.09838 -1.890207,-2.44348 0,-0.0906 0.208359,-0.20674 0.463021,-0.25797 l 0.463021,-0.0932 0.33169,0.27219 c 0.182429,0.1497 2.019374,2.11765 4.0821,4.37323 2.062726,2.25557 3.963986,4.33255 4.225023,4.6155 l 0.474612,0.51447 0.193326,-0.19332 0.193326,-0.19333 -2.004586,-2.04093 c -1.102522,-1.12252 -2.942383,-3.04084 -4.08858,-4.26295 -1.146197,-1.2221 -2.417795,-2.57218 -2.825773,-3.00018 l -0.741779,-0.77818 0.101045,-0.3071 c 0.05557,-0.16891 0.344778,-0.34321 0.642674,-0.38734 l 0.54163,-0.0802 1.805118,2.32919 c 1.595573,2.05881 4.966302,6.14801 6.264444,7.59972 l 0.463021,0.51779 v -0.25084 c 0,-0.24086 -4.084776,-5.56933 -5.790879,-7.55402 -0.453037,-0.52702 -0.823704,-1.03303 -0.823704,-1.12448 0,-0.0915 -0.238125,-0.4044 -0.529167,-0.69544 -0.291041,-0.29104 -0.529166,-0.70776 -0.529166,-0.92604 v -0.39688 h 0.622676 0.622676 l 0.714803,0.72761 c 0.393141,0.40018 1.443968,1.91823 2.335169,3.37343 0.891202,1.45521 1.692228,2.70537 1.780058,2.77813 0.08783,0.0728 0.544097,0.74015 1.013927,1.48308 1.093678,1.72942 1.549093,2.11373 2.762429,2.33111 l 0.988197,0.17704 -0.146339,-0.38135 -0.146339,-0.38135 0.264339,-0.16337 0.264339,-0.16337 0.191454,0.30978 0.191454,0.30977 -0.371609,-0.21559 -0.37161,-0.21559 0.220486,0.24086 c 0.121268,0.13247 0.30262,0.24085 0.403005,0.24085 0.100386,0 0.59648,0.33624 1.102431,0.74719 l 0.919912,0.74719 -0.877833,-0.43253 c -0.482807,-0.23789 -1.008323,-0.38903 -1.167812,-0.33587 l -0.28998,0.0967 0.998858,0.58934 0.998857,0.58934 0.499684,-0.15859 c 0.274826,-0.0872 0.499684,-0.2659 0.499684,-0.39704 v -0.23845 l 0.442809,0.16992 0.442809,0.16992 -0.184283,-0.48023 -0.184282,-0.48023 0.445958,0.36815 0.445959,0.36815 0.111314,-0.33073 0.111313,-0.33073 h 0.403134 0.403134 l -0.171986,-0.44818 -0.171985,-0.44819 0.540553,0.48919 0.540553,0.4892 v -0.32121 -0.3212 l 0.281458,0.17395 0.281458,0.17395 -0.187499,-1.01823 -0.187501,-1.01824 -0.487228,-0.62641 -0.487228,-0.62641 0.146969,-0.2378 0.146969,-0.2378 0.246301,0.15223 c 0.135465,0.0837 0.246301,0.31978 0.246301,0.52457 0,0.4018 1.580628,2.24225 1.925706,2.24225 h 0.209579 l -0.304673,-0.56929 -0.304672,-0.56928 0.493801,0.1792 0.4938,0.1792 -0.850043,-0.67971 c -0.467524,-0.37385 -1.10071,-1.03175 -1.407079,-1.462 l -0.557036,-0.78229 h 0.409515 0.409514 l 0.560339,1.09836 0.56034,1.09835 0.201967,-0.32679 0.201968,-0.32678 0.160808,0.41905 c 0.08844,0.23049 0.291631,0.41906 0.451525,0.41906 h 0.290717 l -0.198209,-0.59531 c -0.109015,-0.32742 -0.206336,-1.27982 -0.216268,-2.11643 l -0.01806,-1.52112 0.187817,-2.3e-4 c 0.103299,-1.3e-4 0.335478,0.50578 0.515953,1.12424 0.180475,0.61846 0.59907,1.64277 0.930211,2.27623 l 0.602075,1.15175 0.05392,0.83263 0.05392,0.83262 -0.290501,0.53765 -0.290501,0.53765 -1.17501,0.58683 c -0.646255,0.32275 -1.284502,0.58683 -1.418327,0.58683 -0.133825,0 -0.686331,0.43029 -1.227791,0.95621 l -0.984473,0.95622 v 0.4922 0.49219 l 0.738842,0.38207 c 0.406364,0.21014 1.507692,0.51703 2.447396,0.68198 0.939705,0.16495 1.900533,0.35609 2.135175,0.42475 l 0.426622,0.12485 0.871869,1.71772 0.871868,1.71771 0.854578,0.52816 c 0.470019,0.29049 1.006549,0.71127 1.192292,0.93508 l 0.337711,0.40692 -1.376098,-0.54241 c -0.756851,-0.29832 -1.578633,-0.5424 -1.826178,-0.5424 h -0.450082 l 0.990118,0.70448 c 0.544566,0.38746 0.954672,0.73993 0.911344,0.78325 -0.159033,0.15904 -1.24629,-0.2336 -1.24629,-0.45006 0,-0.37126 -1.864397,-0.74244 -3.96875,-0.79013 l -1.984375,-0.045 -0.89813,-0.51179 -0.89813,-0.51179 -0.332924,0.12775 -0.332923,0.12775 -0.488738,-0.37028 c -0.268806,-0.20366 -0.574846,-0.37408 -0.680088,-0.37871 l -0.191348,-0.008 0.162357,2.47166 0.162357,2.47165 -0.969413,1.07302 -0.969412,1.07303 -0.893665,0.42407 c -0.964289,0.45758 -1.739735,0.55226 -1.739735,0.2124 z m 13.082118,-7.96654 c 0.08182,-0.13238 0.07611,-0.43004 -0.01269,-0.66146 l -0.161458,-0.42075 h -0.352952 c -0.194124,0 -0.429761,0.12428 -0.523637,0.27618 l -0.170685,0.27617 0.319758,0.38528 c 0.366001,0.44101 0.686686,0.49243 0.901666,0.14458 z m -4.456701,-10.50137 c -0.09416,-0.24539 -0.230737,-0.38663 -0.303498,-0.31387 -0.07276,0.0728 -0.05525,0.33306 0.03891,0.57845 0.09416,0.24539 0.230737,0.38662 0.303498,0.31386 0.07276,-0.0728 0.05525,-0.33306 -0.03891,-0.57844 z m -16.8275,18.17434 c 0,-0.42865 1.081252,-1.02313 2.248958,-1.2365 0.582084,-0.10636 1.441463,-0.35329 1.909731,-0.54874 0.468269,-0.19544 1.040843,-0.35535 1.272386,-0.35535 h 0.420988 l -0.163521,0.26458 c -0.08994,0.14552 -0.376327,0.26458 -0.636423,0.26458 -0.260096,0 -0.818616,0.16561 -1.241156,0.36802 -1.352702,0.64799 -2.603649,1.17261 -3.21565,1.34857 l -0.595313,0.17116 z m 30.427083,0.10223 c 0,-0.11006 0.208359,-0.35543 0.463021,-0.54526 l 0.46302,-0.34515 -1.521354,0.1214 -1.521354,0.12139 0.0019,-0.20229 c 0.0028,-0.31204 1.623002,-1.34277 2.649741,-1.68568 l 0.920327,-0.30737 0.794737,-0.74701 0.794734,-0.74701 1.06816,-0.37687 c 0.587486,-0.20728 1.542478,-0.44321 2.122202,-0.5243 1.226963,-0.17162 2.242616,-0.53048 3.110156,-1.09892 l 0.617212,-0.40441 -0.116822,-0.79597 -0.116824,-0.79597 -0.63105,-0.15839 c -0.34712,-0.0871 -0.631092,-0.26453 -0.631092,-0.39428 0,-0.12974 -0.0893,-0.21997 -0.198437,-0.2005 -0.109141,0.0195 -0.575898,-0.0531 -1.037238,-0.16115 l -0.838804,-0.19654 -0.802767,-0.99894 -0.802764,-0.99893 -0.276661,-2.20642 c -0.152165,-1.21353 -0.272876,-2.74532 -0.268248,-3.40398 l 0.0084,-1.19757 0.388459,0.5136 0.388461,0.51359 v -1.10891 -1.1089 h 0.282414 0.282413 l -0.194077,-0.59531 c -0.106741,-0.32742 -0.338698,-1.30969 -0.515458,-2.18282 l -0.321382,-1.5875 -0.03958,1.19063 -0.03958,1.19062 -0.221872,-0.39687 c -0.31374,-0.56121 -1.028864,-5.02845 -1.207111,-7.54063 l -0.150188,-2.11666 0.23514,-0.79375 0.235141,-0.79375 0.285469,0.71212 c 0.157009,0.39166 0.368398,1.62724 0.469752,2.74572 l 0.184282,2.03361 0.458671,-0.60808 0.458674,-0.60807 0.19399,0.88323 c 0.339019,1.54354 0.510736,7.70494 0.283919,10.1873 -0.06648,0.72761 -0.05994,1.05503 0.01453,0.72761 0.07448,-0.32743 0.246192,-0.59532 0.381592,-0.59532 h 0.246182 v 0.44979 0.4498 l 0.3175,-0.3175 c 0.174625,-0.17463 0.431202,-0.3175 0.570174,-0.3175 h 0.252675 l -0.438674,0.48472 -0.438671,0.48473 0.754785,0.67252 0.754784,0.67252 0.411642,-0.23037 0.411641,-0.23037 -0.137483,0.59448 -0.13748,0.59447 0.473824,-0.64066 c 0.260601,-0.35237 0.626144,-1.06674 0.812313,-1.5875 l 0.338492,-0.94684 0.0021,1.05834 0.0021,1.05833 -0.378124,0.66146 -0.378124,0.66146 -0.0094,-0.34116 -0.0094,-0.34116 -0.374205,0.34116 -0.374209,0.34116 0.806535,0.74507 0.806532,0.74507 0.194143,-0.21591 c 0.106781,-0.11874 0.27159,-0.62857 0.366242,-1.13295 l 0.172095,-0.91705 -0.393276,0.52017 -0.393277,0.52018 -0.0084,-0.54474 c -0.0046,-0.29961 0.173424,-0.77586 0.395671,-1.05833 l 0.404088,-0.5136 -0.07336,0.52917 -0.07336,0.52917 0.300601,-0.0561 0.300601,-0.0561 -0.228145,0.98215 c -0.321794,1.38532 -0.280014,1.61277 0.15611,0.84985 0.207967,-0.3638 0.386561,-0.5424 0.396875,-0.39688 0.01032,0.14553 0.188907,-0.0331 0.396875,-0.39687 0.207967,-0.3638 0.381896,-0.5424 0.386511,-0.39688 0.0046,0.14553 -0.23571,0.66497 -0.534051,1.15432 -0.600149,0.98441 -0.479253,1.48192 0.16487,0.67845 l 0.408736,-0.50985 -0.300614,0.61798 c -0.165341,0.33988 -0.236575,0.68201 -0.1583,0.76028 0.21963,0.2194 0.959122,-0.13499 0.959122,-0.45953 v -0.2885 l -0.330729,0.1987 -0.330729,0.19869 0.347387,-0.4287 0.34739,-0.4287 0.120317,-1.27573 c 0.06618,-0.70166 0.243818,-2.03745 0.394761,-2.96844 l 0.274444,-1.69269 0.537046,-1.0527 c 0.295375,-0.57899 0.824611,-1.3192 1.176081,-1.64494 0.351467,-0.32572 0.639032,-0.76045 0.639032,-0.96604 0,-0.2056 0.185346,-0.63843 0.411877,-0.96185 l 0.411879,-0.58804 0.580308,0.009 0.580311,0.009 -0.529167,0.46631 c -0.291041,0.25648 -0.670988,0.71593 -0.844322,1.02101 l -0.315159,0.55469 0.157266,0.15726 0.157263,0.15727 0.620914,-0.8416 c 0.341503,-0.46288 0.620913,-0.71399 0.620913,-0.55801 0,0.15597 -0.178594,0.43181 -0.396875,0.61296 -0.218281,0.18116 -0.396875,0.44844 -0.396875,0.59396 v 0.26459 l 0.396875,-0.32938 0.396875,-0.32938 -0.0099,0.23084 c -0.0055,0.12696 -0.431588,0.70708 -0.946944,1.28916 l -0.937011,1.05834 0.286909,-0.58058 c 0.1578,-0.31932 0.405333,-0.65376 0.550071,-0.74322 0.144751,-0.0894 0.263173,-0.28926 0.263173,-0.444 v -0.28137 l -0.447664,0.36313 -0.447665,0.36312 0.187397,-0.31244 0.187396,-0.31245 -0.231328,-0.14297 -0.23133,-0.14297 -0.469104,0.87107 -0.469103,0.87107 0.308552,0.57653 c 0.169703,0.3171 0.438001,0.57654 0.596222,0.57654 h 0.287671 l -0.301072,0.36276 -0.301069,0.36277 0.217807,0.58879 0.217808,0.5888 0.712324,-0.93391 c 0.867977,-1.13798 0.918568,-1.48977 0.117012,-0.81368 l -0.595312,0.50214 0.641432,-0.72571 c 0.615463,-0.69633 0.993653,-0.96623 0.709372,-0.50625 l -0.135636,0.21946 0.517361,-0.0381 0.517358,-0.0381 0.741619,-0.71051 c 0.40789,-0.39079 0.828588,-0.71052 0.934884,-0.71052 h 0.19327 l -0.281736,0.52643 c -0.154956,0.28954 -0.659339,0.72169 -1.120852,0.96035 -0.982006,0.50782 -1.650513,1.12319 -1.444246,1.32945 0.07986,0.0799 0.689342,-0.22919 1.354412,-0.68677 l 1.20922,-0.83196 v 0.37944 0.37944 l -0.992187,0.46965 c -0.934749,0.44247 -1.62632,1.07322 -1.645232,1.50057 l -0.0084,0.19013 0.463021,-0.16795 c 0.254661,-0.0924 0.914995,-0.5197 1.467408,-0.94963 l 1.00439,-0.78169 0.186235,0.18696 0.186237,0.18697 -0.661458,0.54038 c -0.363802,0.29722 -0.98888,0.65581 -1.389062,0.79686 -0.400183,0.14106 -0.727604,0.34738 -0.727604,0.45848 v 0.20201 l -0.672622,-0.12858 -0.672621,-0.12858 0.450514,-0.49781 0.450512,-0.49781 -0.182116,-0.18212 -0.182118,-0.18211 -0.549515,0.54952 -0.549516,0.54951 0.177821,0.56027 0.177821,0.56026 0.445191,0.004 0.44519,0.004 -0.360442,0.22836 -0.360441,0.22836 0.187983,1.61967 0.187981,1.61967 h 0.785167 c 0.43184,0 1.02983,-0.13094 1.328867,-0.29098 l 0.543701,-0.29098 -0.179835,0.29098 -0.179835,0.29098 0.346343,-0.004 c 0.190489,-0.002 0.524938,-0.11946 0.743219,-0.26053 l 0.396875,-0.25648 -0.518964,-0.004 -0.518964,-0.004 1.037928,-0.52917 c 0.570863,-0.29104 1.061945,-0.52916 1.091296,-0.52916 0.02935,0 -0.07807,0.34819 -0.238702,0.77377 l -0.292066,0.77377 -0.848989,0.15927 -0.84899,0.15927 -0.323567,0.38988 c -0.177961,0.21443 -0.446503,0.38987 -0.59676,0.38987 h -0.273195 l 0.419425,-0.46346 0.419426,-0.46346 -1.172168,0.0932 -1.172168,0.0932 v 0.22233 c 0,0.12228 0.121005,0.29711 0.268899,0.38852 l 0.268899,0.16619 -0.145037,0.23467 -0.145039,0.23468 0.625864,0.41008 0.625864,0.41008 0.890394,-0.31039 0.890394,-0.31039 -0.494358,-0.17341 -0.494355,-0.17341 1.230683,-0.34457 1.230682,-0.34457 -0.127851,-0.20687 -0.127852,-0.20687 0.518223,0.13552 0.518224,0.13552 0.664405,-0.75551 c 0.365422,-0.41553 0.668168,-0.83427 0.672767,-0.93053 0.01066,-0.22316 -0.536218,-0.14236 -1.049973,0.15513 l -0.396875,0.22982 0.33073,-0.35632 c 0.181901,-0.19597 0.330729,-0.45859 0.330729,-0.5836 v -0.22728 l -0.305464,0.18879 -0.305464,0.18879 0.199667,-0.32307 c 0.109816,-0.17769 0.267378,-0.25535 0.350137,-0.17259 0.08276,0.0828 0.33873,-0.0199 0.568819,-0.22813 0.23009,-0.20823 0.534432,-0.37815 0.676315,-0.37761 0.141883,5.3e-4 0.293039,-0.10422 0.335902,-0.23281 l 0.07794,-0.23381 -0.793944,0.055 -0.793943,0.055 0.269169,-0.43632 c 0.504367,-0.81757 3.023962,-4.26361 4.718687,-6.45372 l 1.690526,-2.18469 1.313789,-0.0821 1.313788,-0.0821 -1.277844,1.66962 c -0.702816,0.91829 -1.364171,1.78868 -1.469681,1.9342 -0.105508,0.14552 -0.593408,0.74083 -1.084218,1.32291 -1.308796,1.55219 -5.507513,7.86507 -6.401686,9.6251 l -0.454115,0.89386 0.118287,0.61878 0.11829,0.61878 -0.49081,0.52683 -0.49081,0.52682 v 0.54585 0.54585 l -1.43474,1.48129 -1.43474,1.48129 0.06846,0.29903 c 0.03765,0.16446 0.01852,0.20973 -0.04252,0.10059 -0.06104,-0.10914 -0.220117,-0.19844 -0.353509,-0.19844 h -0.242536 l -0.02088,0.59531 -0.02088,0.59531 -0.126445,-0.3097 -0.126444,-0.30971 -1.874584,0.51948 c -2.442202,0.67677 -4.381827,0.89735 -6.826585,0.77633 -1.091407,-0.054 -3.234532,-0.0996 -4.7625,-0.10133 l -2.778125,-0.003 -0.727604,0.20789 -0.727604,0.20788 v -0.20011 z m 4.671197,-2.65111 c 0.08617,-0.22456 0.09263,-0.47233 0.01437,-0.5506 -0.198829,-0.19882 -1.245981,0.39252 -1.245981,0.70361 v 0.25528 h 0.537469 0.537472 z m 13.248812,-6.63073 c -0.08792,-0.0879 -0.316124,-0.0973 -0.507119,-0.0209 l -0.347266,0.13897 0.507119,0.0209 0.507116,0.0209 -0.15985,-0.15986 z m 6.837367,-4.13642 0.166444,-0.16644 -0.18234,-0.29504 -0.182343,-0.29503 -0.373319,0.30983 c -0.205324,0.1704 -0.373319,0.40378 -0.373319,0.5186 0,0.23549 0.689986,0.18297 0.944877,-0.0719 z m -48.305292,13.18812 c 0,-0.0572 0.184777,-0.17489 0.410617,-0.26155 l 0.410617,-0.15757 -0.161649,0.26155 c -0.155379,0.25141 -0.659585,0.37186 -0.659585,0.15757 z m -4.497917,-2.25944 c 0,-0.13571 0.23706,-0.32199 0.526799,-0.41395 l 0.526799,-0.1672 0.315535,0.19501 0.315535,0.19501 -0.511605,0.20035 c -0.721581,0.28257 -1.173063,0.27902 -1.173063,-0.009 z m 1.852083,-0.51614 c 0,-0.2445 0.906625,-0.55692 1.5875,-0.54703 l 0.396875,0.006 -0.661458,0.37811 c -0.758415,0.43355 -1.322917,0.50317 -1.322917,0.16315 z m -0.912812,-0.80401 c 0.138245,-0.1342 0.727604,-0.31293 1.309687,-0.39717 l 1.058334,-0.15317 -0.79375,0.38523 c -0.436563,0.21188 -1.025922,0.3906 -1.309688,0.39717 l -0.515937,0.0119 z m 0.298692,-1.36439 0.285463,-0.28546 1.156516,-0.11612 1.156516,-0.11613 -1.190625,0.39757 c -0.654843,0.21866 -1.303734,0.39938 -1.441979,0.40159 l -0.251354,0.004 z m 0.301372,-1.35971 0.25654,-0.25654 0.491125,0.1041 0.491125,0.10411 -0.747666,0.15244 -0.747665,0.15244 z m 0.177954,-0.99661 0.161019,-0.26053 0.648346,0.0537 c 0.356591,0.0295 0.648346,0.14676 0.648346,0.26054 v 0.20687 h -0.809365 -0.809365 z m 0.575767,-1.76794 c -0.246627,-0.24663 -0.220146,-0.61736 0.0441,-0.61736 0.121267,0 0.220486,0.17859 0.220486,0.39687 0,0.44962 -0.01934,0.46574 -0.264583,0.22049 z m 0.811388,-0.12103 c 0.179476,-0.18082 0.39297,-0.26211 0.474432,-0.18065 0.08146,0.0815 -0.06538,0.22941 -0.326319,0.32877 l -0.474432,0.18065 z m 0.864306,-0.68918 c -0.218281,-0.0831 -0.484349,-0.28205 -0.591261,-0.44213 l -0.194386,-0.29106 -0.0041,0.34634 -0.0041,0.34635 -0.268899,-0.16619 -0.268899,-0.16619 0.152222,-0.2463 c 0.21808,-0.35286 0.432277,-0.30149 1.179326,0.28286 0.682245,0.53366 0.682245,0.59602 0,0.33632 z m 42.512556,-2.37261 c 0.316854,-0.0617 0.718386,-0.28359 0.892291,-0.49313 0.173908,-0.20955 0.439132,-0.38099 0.589389,-0.38099 h 0.273195 l -0.47889,0.52916 -0.478891,0.52917 -0.686596,-0.036 -0.686597,-0.036 z m -43.091332,-0.26111 c 0.190996,-0.0764 0.419199,-0.067 0.507118,0.0209 l 0.159852,0.15987 -0.507117,-0.0209 -0.507119,-0.0209 z M 71.98985,254.8849 c 0,-0.14552 0.12609,-0.26459 0.280199,-0.26459 h 0.280197 l -0.163521,0.26459 c -0.08994,0.14552 -0.216027,0.26458 -0.280199,0.26458 -0.06417,0 -0.116676,-0.11906 -0.116676,-0.26458 z m 5.771224,0.0838 c 0.190995,-0.0764 0.419198,-0.067 0.507119,0.0209 l 0.159851,0.15985 -0.507117,-0.0209 -0.507118,-0.0209 0.347265,-0.13897 z m 2.522723,-0.47096 0.488738,-0.37029 0.417957,0.16039 0.41796,0.16038 -0.509821,0.19972 c -0.280402,0.10985 -0.688416,0.20431 -0.906698,0.20991 l -0.396874,0.0102 0.488738,-0.37029 z m 1.495636,-0.094 c 0,-0.31976 0.501968,-0.69257 0.685456,-0.50908 0.0666,0.0666 -0.06039,0.27169 -0.282186,0.45576 l -0.40327,0.33469 z m -4.034895,-0.37093 c 0.327422,-0.15791 0.595312,-0.396 0.595312,-0.52909 v -0.24198 l -0.595312,0.18162 -0.595313,0.18162 0.529167,-0.52233 0.529167,-0.52233 0.08819,0.22625 c 0.15099,0.38733 0.752547,0.24963 1.40385,-0.32136 l 0.624623,-0.54761 -0.79375,0.17161 -0.79375,0.17161 1.023207,-0.69541 c 1.055018,-0.71704 1.555885,-0.72439 0.966476,-0.0142 l -0.334685,0.40328 h 0.296982 0.296978 v 0.38489 0.38488 l -0.958725,0.17986 -0.958726,0.17986 -0.544195,0.62588 -0.544197,0.62588 -0.415309,-0.0179 -0.415306,-0.0179 0.595313,-0.28711 z m 1.918229,-0.33854 c 0.363802,-0.20797 0.840052,-0.37855 1.058333,-0.37908 l 0.396875,-0.001 -0.51359,0.38846 c -0.282475,0.21365 -0.758725,0.38424 -1.058334,0.37908 l -0.544742,-0.009 z m -11.35071,-1.77032 c 0.0145,-0.19049 0.121701,-0.644 0.23821,-1.0078 l 0.211836,-0.66146 0.02638,0.84428 0.02638,0.84428 -0.264583,0.16352 -0.264584,0.16352 0.02638,-0.34634 z m -0.547436,-0.34635 c 0,-0.29104 0.115414,-0.70776 0.256479,-0.92604 l 0.25648,-0.39687 v 0.52916 c 0,0.29105 -0.115414,0.70777 -0.25648,0.92605 l -0.256479,0.39687 z m -0.797803,-0.7276 -0.0041,-0.99219 h 0.264584 0.264583 l -0.004,0.59532 c -0.0021,0.32742 -0.119468,0.7739 -0.260533,0.99218 l -0.256479,0.39688 -0.004,-0.99219 z m -27.348033,-0.21394 -0.70185,-0.55207 v -0.38698 -0.38698 l 0.554203,0.2966 0.554204,0.2966 -0.195494,-0.61595 -0.195493,-0.61594 0.435039,0.36105 c 0.239272,0.19858 0.435041,0.53209 0.435041,0.74114 v 0.3801 l 0.226123,-0.13975 0.226124,-0.13976 0.633772,0.68922 0.633772,0.68921 -0.595312,-0.3098 c -0.327422,-0.17039 -0.595313,-0.39934 -0.595313,-0.50877 0,-0.10944 -0.247125,-0.21759 -0.549167,-0.24034 l -0.549167,-0.0414 0.322287,0.38833 c 0.524042,0.63143 0.119471,0.6919 -0.638769,0.0955 z m 26.738153,-0.51366 c 0.07611,-0.29105 0.184025,-0.52917 0.239813,-0.52917 0.05579,0 0.101433,0.23812 0.101433,0.52917 v 0.52916 h -0.239813 -0.239813 z m -23.865484,-1.05558 c -1.064241,-1.11082 -0.728944,-1.20885 0.381495,-0.11152 l 0.913305,0.90251 h -0.268492 c -0.14767,0 -0.609509,-0.35594 -1.026308,-0.79099 z m 23.302823,0.0331 c -0.07776,-0.12582 -0.213487,-0.92949 -0.301612,-1.78594 l -0.160226,-1.55717 0.281945,0.39688 c 0.155073,0.21828 0.283771,0.72056 0.285999,1.11617 l 0.004,0.7193 0.356248,-0.1367 0.356251,-0.13671 0.02294,0.80647 0.02294,0.80647 h -0.363564 c -0.199959,0 -0.427186,-0.10295 -0.504949,-0.22877 z m 1.337392,-0.16811 c 0.08376,-0.21828 0.199089,-0.39687 0.256281,-0.39687 0.05719,0 0.103984,0.17859 0.103984,0.39687 v 0.39688 h -0.256281 -0.256278 z m -23.74815,-0.022 c -0.01723,-0.13339 -0.01723,-0.33183 0,-0.44097 0.01723,-0.10915 -0.08773,-0.19845 -0.233251,-0.19845 -0.145521,0 -0.264583,-0.11906 -0.264583,-0.26458 0,-0.48275 0.490609,-0.27371 0.667786,0.28452 l 0.17428,0.54911 -0.15645,0.15645 -0.15645,0.15645 -0.03133,-0.24254 z m 32.973835,-0.37483 c 0.283091,-0.36381 0.636603,-0.78174 0.785582,-0.92876 0.148982,-0.14701 1.02402,-1.12928 1.944531,-2.18281 1.847506,-2.11449 1.881431,-2.59492 0.05158,-0.73044 -1.168982,1.19111 -1.851803,1.44869 -0.907817,0.34246 l 0.505497,-0.59238 -0.469416,0.36388 -0.469413,0.36387 -0.168373,-0.16837 -0.168373,-0.16838 0.399106,-0.46464 c 0.219509,-0.25555 0.497213,-0.64324 0.617122,-0.86152 l 0.218017,-0.39687 -0.559337,0.49017 -0.559338,0.49017 -0.34604,-0.11692 -0.346038,-0.11692 0.985573,-0.98841 c 0.542065,-0.54362 0.969322,-1.06877 0.949462,-1.167 -0.116755,-0.57744 0.685935,-1.89504 1.976692,-3.2447 l 0.736727,-0.77035 h 0.520044 0.520043 v 0.26458 c 0,0.14552 -0.106325,0.26459 -0.236275,0.26459 -0.129953,0 -0.313669,0.20168 -0.408263,0.44818 l -0.171984,0.44819 0.495242,-0.44819 c 0.641598,-0.58064 0.897474,-0.56492 1.457838,0.0895 l 0.460407,0.53772 -0.287677,0.53753 -0.287676,0.53753 0.291174,0.35084 0.291174,0.35085 -1.194509,1.19451 c -0.656982,0.65698 -1.523889,1.45371 -1.92646,1.77051 l -0.731949,0.576 0.463021,-0.14559 0.463021,-0.14559 v 0.26831 c 0,0.14757 -0.268383,0.53669 -0.596408,0.86471 l -0.596411,0.59641 0.07569,0.39301 0.07569,0.39302 -1.228134,0.86566 c -1.343809,0.94721 -1.858669,0.92425 -0.950564,-0.0424 1.149287,-1.22336 0.537626,-1.05162 -0.80659,0.22647 l -1.380895,1.31297 z m -30.402848,-1.60472 -0.682384,-0.81097 -0.201031,0.12415 -0.201032,0.12415 v -0.87803 c 0,-0.48292 0.0893,-0.96761 0.198438,-1.07708 l 0.198437,-0.19903 v 0.42933 c 0,0.23613 0.354099,1.02988 0.786885,1.76389 0.902417,1.5305 0.874002,1.68031 -0.09931,0.52359 z m 0.828812,-0.49074 -0.16386,-0.6266 0.279545,0.27954 0.279546,0.27955 -0.115686,0.34705 -0.115685,0.34706 z m -0.890085,-1.67666 c -0.31038,-0.47195 -0.64396,-1.20101 -0.741289,-1.62013 l -0.176961,-0.76204 0.520293,0.13606 0.520294,0.13606 -0.372521,-1.05584 -0.372521,-1.05584 0.168354,-0.2724 0.168354,-0.2724 0.495687,0.6313 0.495687,0.6313 -0.268963,-0.74482 c -0.147929,-0.40966 -0.268963,-0.93552 -0.268963,-1.16858 v -0.42375 l 0.155788,0.15579 c 0.08568,0.0857 0.269289,0.66095 0.408014,1.27837 l 0.252228,1.12258 -0.278892,0.17236 -0.278892,0.17237 0.311091,0.90847 c 0.1711,0.49965 0.436969,0.99129 0.590819,1.09252 l 0.279728,0.18405 -0.208871,0.20887 -0.208871,0.20887 -0.455054,-0.60328 -0.455054,-0.60328 -0.188308,0.18831 c -0.10357,0.10357 -0.186486,0.31729 -0.184257,0.47494 l 0.004,0.28663 0.223007,-0.35177 0.223007,-0.35177 0.273975,1.07937 c 0.33018,1.30081 0.12738,1.37077 -0.63096,0.21768 z"
         id="path144"
         inkscape:connector-curvature="0" />
      <path
         style="fill:#000000;stroke-width:0.26458332"
         d="m 30.52145,270.04738 c 0.25743,-0.0671 0.614618,-0.0627 0.79375,0.01 l 0.325693,0.13178 -0.79375,-0.01 -0.79375,-0.01 0.468057,-0.12197 z m -3.775348,-0.23759 c 0,-0.1663 1.335917,-0.67266 1.984375,-0.75216 0.291041,-0.0357 0.916119,-0.26564 1.389062,-0.51102 0.472943,-0.24537 0.859896,-0.39505 0.859896,-0.33261 0,0.0624 0.803672,-0.17012 1.785937,-0.51679 0.982266,-0.34668 1.882261,-0.63283 1.99999,-0.6359 l 0.214053,-0.006 -0.166189,0.2689 -0.166189,0.2689 -0.246301,-0.15223 -0.246301,-0.15222 v 0.24934 c 0,0.20823 -0.338937,0.38153 -1.322917,0.67639 -0.07276,0.0218 -0.28112,0.13415 -0.463021,0.24965 l -0.330729,0.21 -0.008,-0.34634 -0.008,-0.34635 -0.263535,0.45203 -0.263535,0.45203 -0.433281,-0.16626 -0.433281,-0.16627 0.179537,0.2905 0.179537,0.2905 -0.466863,0.14512 c -0.256774,0.0798 -0.943112,0.21504 -1.525195,0.30049 -0.582083,0.0855 -1.326224,0.19944 -1.653646,0.25329 -0.327422,0.0539 -0.595312,0.0433 -0.595312,-0.0234 z m 4.960937,-0.28346 c 0.181901,-0.0734 0.479557,-0.0734 0.661458,0 l 0.330729,0.13346 H 32.037768 31.37631 Z m 5.54894,-1.15913 0.32342,-0.34435 0.66407,-0.0291 0.66407,-0.0291 -0.19374,0.18824 c -0.106557,0.10354 -0.550927,0.27158 -0.987489,0.37343 l -0.79375,0.18517 z m 22.634748,-0.52854 0.468585,-0.28629 -0.128431,-0.2078 -0.128431,-0.20781 -1.266196,0.19848 -1.266195,0.19848 -0.21163,-0.19927 -0.211629,-0.19927 1.744863,-0.83348 c 0.959676,-0.45841 1.800133,-0.83347 1.867684,-0.83347 0.06755,0 0.497541,-0.3581 0.955534,-0.79579 l 0.832713,-0.79578 1.268275,-0.37664 c 0.697552,-0.20715 1.813184,-0.45835 2.479182,-0.55822 l 1.210906,-0.18159 0.852884,-0.57565 0.852884,-0.57565 -0.03468,-0.65003 c -0.01908,-0.35751 -0.04884,-0.72021 -0.06615,-0.80599 -0.03406,-0.1688 -1.299757,-0.8201 -1.783852,-0.91793 -0.163447,-0.033 -0.709494,-0.25572 -1.213438,-0.49485 l -0.91626,-0.4348 -0.555341,-0.9881 -0.555345,-0.98809 -0.152006,-1.31743 c -0.0836,-0.72458 -0.197911,-2.06156 -0.254016,-2.97106 l -0.102007,-1.65365 h 0.236855 c 0.130273,0 0.236858,0.13891 0.236858,0.30868 v 0.30868 l 0.190579,-0.19058 c 0.10482,-0.10482 0.155228,-0.60091 0.112022,-1.10243 l -0.07856,-0.91185 h 0.302686 0.302686 l -0.197136,-0.59531 c -0.108426,-0.32742 -0.341222,-1.36922 -0.517331,-2.31511 l -0.320194,-1.71979 -0.05055,1.05833 -0.05055,1.05834 -0.132368,-0.39688 c -0.158359,-0.47481 -0.32026,-0.99103 -0.395031,-1.25955 -0.02996,-0.10761 -0.209434,-1.14816 -0.398822,-2.31232 l -0.34434,-2.11667 -0.0053,-2.3151 -0.0053,-2.31511 h 0.241326 0.241327 l 0.147814,0.99219 c 0.0813,0.5457 0.224542,1.6768 0.318326,2.51354 l 0.170513,1.52136 h 0.234096 c 0.128754,0 0.234098,-0.11907 0.234098,-0.26459 0,-0.43773 0.45961,-0.29791 0.652327,0.19844 0.09888,0.25466 0.238019,1.62388 0.309203,3.04271 l 0.129426,2.57969 -0.347041,0.004 -0.34704,0.004 0.314896,0.20022 0.314899,0.20021 0.02564,1.31709 c 0.0141,0.7244 -0.03144,1.9124 -0.101179,2.64 -0.06974,0.72761 -0.06587,1.05503 0.0086,0.72761 0.07448,-0.32742 0.246192,-0.59531 0.381593,-0.59531 h 0.246181 v 0.45042 0.45043 l 0.833866,0.86033 0.833866,0.86033 0.430681,-0.2305 0.430684,-0.23049 -0.03522,0.70567 -0.03522,0.70568 0.568635,0.57727 c 0.312748,0.3175 0.726321,0.61516 0.919049,0.66146 l 0.350414,0.0842 0.33742,-1.05834 0.337421,-1.05833 0.02774,0.61271 c 0.01527,0.33699 -0.105172,0.86105 -0.267621,1.16459 l -0.295365,0.5519 0.449294,-0.17241 c 0.247113,-0.0948 0.495353,-0.17241 0.551643,-0.17241 0.05629,0 0.02903,-0.20836 -0.06058,-0.46303 l -0.16293,-0.46302 0.345228,0.31952 0.345229,0.31952 -0.349705,0.42136 -0.349703,0.42137 0.41079,0.41079 0.410789,0.41079 0.562509,-0.17854 0.562513,-0.17853 -0.154417,-0.24985 -0.154416,-0.24985 -0.312446,0.18209 -0.312447,0.18209 0.433928,-0.50851 0.433927,-0.5085 0.169495,-2.08294 0.169497,-2.08294 0.543449,-1.62123 0.543449,-1.62122 0.771355,-0.759 c 0.424246,-0.41744 0.771356,-0.91732 0.771356,-1.11084 0,-0.19351 0.286993,-0.66152 0.637765,-1.04001 l 0.637767,-0.68816 0.172752,0.27952 0.172754,0.27953 -0.413644,0.15873 c -0.227504,0.0873 -0.413644,0.27768 -0.413644,0.42308 0,0.14539 -0.357188,0.71533 -0.79375,1.26653 -0.88931,1.12285 -0.916374,1.24887 -0.493488,2.29788 0.165145,0.40966 0.337016,1.02584 0.381934,1.3693 0.04492,0.34346 0.164227,0.70064 0.265126,0.79375 l 0.183457,0.16928 0.105611,-0.29321 c 0.05809,-0.16126 0.277648,-0.51845 0.487915,-0.79375 l 0.382305,-0.50054 0.24003,0.36463 0.24003,0.36462 0.360312,-0.2221 0.36031,-0.2221 -0.463021,0.70806 c -0.566976,0.86704 -0.578663,1.01903 -0.06315,0.82121 l 0.399876,-0.15344 -0.148548,0.3871 -0.148548,0.38711 -0.659365,-0.12604 -0.659366,-0.12605 0.450514,-0.49781 0.450512,-0.49781 -0.173144,-0.17314 -0.173146,-0.17315 -0.530788,0.48036 -0.530789,0.48036 v 0.51293 0.51293 l 0.551532,0.14423 0.551535,0.14423 -0.316662,0.1957 -0.316663,0.19571 0.188608,1.62504 0.188605,1.62504 1.82548,-0.0802 c 1.004014,-0.0441 1.825482,-0.0553 1.825482,-0.0247 0,0.0305 -0.36861,0.23938 -0.819134,0.46413 l -0.819137,0.40864 0.160679,-0.41872 0.160676,-0.41872 -0.421516,0.16175 c -0.231833,0.089 -0.768964,0.16174 -1.193625,0.16174 h -0.77211 v 0.39687 0.39688 h 0.280199 0.280197 l -0.15222,0.2463 -0.152223,0.2463 0.304644,0.18828 0.304644,0.18828 -0.631058,0.3498 -0.631058,0.34979 0.447405,0.009 c 0.246073,0.005 0.526008,-0.11781 0.622075,-0.27325 l 0.17467,-0.28262 0.384903,0.1477 0.3849,0.1477 0.911254,-0.38074 c 1.041797,-0.43529 1.189755,-0.67485 0.315939,-0.51153 l -0.595312,0.11126 0.926041,-0.36243 0.926042,-0.36244 0.330729,0.12242 0.330729,0.12242 v -0.29289 -0.29289 h 0.409567 0.409565 l 0.640405,-0.72761 c 0.352224,-0.40018 0.64417,-0.80636 0.648769,-0.90263 0.01066,-0.22316 -0.536218,-0.14236 -1.049973,0.15514 l -0.396875,0.22981 0.33073,-0.35632 c 0.181901,-0.19597 0.330729,-0.45859 0.330729,-0.58359 v -0.22728 l -0.330729,0.19032 -0.33073,0.19033 0.206095,-0.22647 c 0.113353,-0.12456 0.373002,-0.25096 0.576995,-0.2809 l 0.370896,-0.0544 -0.16351,0.43692 -0.16351,0.43692 0.404612,-0.32843 0.404611,-0.32843 0.174093,0.17409 0.174093,0.17409 v -0.25576 c 0,-0.14067 -0.148828,-0.40714 -0.330729,-0.59216 l -0.330729,-0.3364 0.363802,0.085 0.363802,0.0851 0.117369,-0.31904 0.11737,-0.31903 -0.570871,0.10994 -0.57087,0.10994 0.354282,-0.43701 0.354283,-0.43701 -0.330729,0.1987 c -0.631944,0.37966 -0.317847,-0.12516 1.984375,-3.1893 3.027693,-4.0297 3.30314,-4.38748 3.679462,-4.77923 l 0.317762,-0.3308 1.077169,-0.13534 1.077169,-0.13534 v 0.15993 c 0,0.15689 -2.186869,3.07408 -3.632552,4.84567 -0.403191,0.49409 -1.772446,2.45862 -3.042793,4.36563 -1.270346,1.90701 -2.402985,3.58635 -2.516973,3.73187 -0.318336,0.40639 -1.116095,2.31697 -1.215239,2.91042 -0.08175,0.48934 -0.294836,1.04533 -1.064715,2.77812 -0.161637,0.3638 -0.950484,1.3067 -1.752995,2.09533 -0.80251,0.78862 -1.426392,1.54162 -1.386406,1.67331 l 0.0727,0.23944 -0.204991,-0.12091 c -0.112747,-0.0665 -1.276557,0.15227 -2.586244,0.48617 l -2.38125,0.6071 -3.307292,-0.0888 c -1.81901,-0.0488 -4.20026,-0.11799 -5.291666,-0.15368 -1.091406,-0.0357 -2.460625,0.0172 -3.042708,0.11755 l -1.058334,0.18243 0.468585,-0.28628 z m 4.070321,-2.24955 0.156676,-0.40829 -0.177671,-0.17766 -0.177667,-0.17767 -0.434581,0.27412 c -0.239022,0.15078 -0.481359,0.41446 -0.538525,0.58596 l -0.103944,0.31183 h 0.55952 0.559519 z m -33.627997,1.91962 0.144037,-0.37536 2.025122,-0.55793 c 1.113816,-0.30686 2.074331,-0.50871 2.134477,-0.44857 0.06014,0.0602 -0.232116,0.19158 -0.649469,0.29207 -0.417354,0.10049 -1.175544,0.38866 -1.684867,0.64039 -0.509322,0.25171 -1.193183,0.54026 -1.519689,0.64121 l -0.593648,0.18354 z m 7.14041,0.0821 -0.517432,-0.18336 0.462023,-0.25856 0.462023,-0.25856 -0.177171,-0.4617 -0.177171,-0.4617 -0.428878,0.14814 -0.428879,0.14815 0.463021,-0.36055 c 0.254662,-0.1983 0.463021,-0.43672 0.463021,-0.52981 0,-0.0931 -0.208359,-0.17867 -0.463021,-0.19016 l -0.463021,-0.0209 0.328615,-0.13275 0.328616,-0.13274 -0.257624,-0.48138 -0.257624,-0.48137 0.458175,-0.17788 0.458176,-0.17788 -0.661459,-0.36837 -0.661458,-0.36836 0.463021,-0.009 0.463021,-0.009 v -0.26459 -0.26458 l -0.463021,-0.004 -0.463021,-0.004 0.395586,-0.25008 0.395586,-0.25008 -0.527877,-0.39891 -0.527878,-0.39892 0.463021,-0.008 0.46302,-0.008 v -0.24618 c 0,-0.1354 -0.26789,-0.29888 -0.595312,-0.36328 l -0.595313,-0.11711 0.595313,-0.19674 c 0.727375,-0.24038 0.728287,-0.26346 0.04813,-1.21866 l -0.547183,-0.76844 h 0.447288 0.447289 l -0.346113,-0.41705 -0.346113,-0.41703 0.322648,-0.19941 0.322647,-0.19941 -0.685704,-0.6857 -0.685704,-0.68571 0.574107,0.15014 0.574106,0.15013 -0.823376,-1.13664 c -0.452856,-0.62515 -0.823375,-1.29326 -0.823375,-1.48469 0,-0.37616 -0.442722,-0.84475 -3.456436,-3.65844 -1.082137,-1.01032 -2.711663,-2.54235 -3.621168,-3.40451 -0.909505,-0.86216 -1.653646,-1.47284 -1.653646,-1.35708 0,0.26104 -1.569963,-1.79223 -1.580139,-2.06658 -0.004,-0.10914 0.2526,-0.19844 0.570331,-0.19844 h 0.577691 l 1.69249,1.78594 c 0.930868,0.98226 2.95451,3.18706 4.496981,4.89955 l 2.804493,3.11361 0.183112,-0.29628 0.183111,-0.29628 -2.15526,-2.15588 c -2.749296,-2.75008 -5.388514,-5.55211 -6.63694,-7.04638 l -0.978273,-1.17091 0.487347,-0.17446 0.487348,-0.17446 0.47098,0.32524 c 0.25904,0.17888 1.132908,1.19895 1.941929,2.26682 2.17231,2.86735 6.256729,7.67225 6.400016,7.52897 0.06842,-0.0684 -0.217044,-0.57414 -0.634375,-1.1238 -0.41733,-0.54966 -1.793232,-2.36861 -3.057558,-4.0421 -1.264327,-1.67349 -2.588903,-3.34043 -2.943502,-3.70431 -0.354599,-0.36388 -0.72973,-0.92942 -0.833625,-1.25677 l -0.1889,-0.59517 h 0.242931 c 0.133612,0 0.58812,0.12116 1.010017,0.26923 l 0.767087,0.26923 1.039762,1.649 c 0.571869,0.90695 2.024366,3.15049 3.227772,4.98565 l 2.18801,3.33665 0.962249,0.15615 0.962249,0.15615 1.289662,0.82758 1.289661,0.82757 0.94341,-0.34114 0.94341,-0.34115 -0.145295,-0.37863 -0.145296,-0.37863 0.423097,0.35113 0.423097,0.35115 0.214837,-0.34762 0.214836,-0.34761 0.335843,0.20756 0.335843,0.20756 -0.155568,-0.59489 -0.155569,-0.59489 0.510766,0.46223 0.510765,0.46224 v -0.32121 -0.3212 l 0.303171,0.18737 0.303171,0.18737 -0.174938,-0.76707 -0.174938,-0.76707 0.434,0.52917 0.433999,0.52916 -0.140588,-0.59531 -0.140587,-0.59531 h 0.211506 c 0.116328,0 0.280038,0.17859 0.363801,0.39687 0.08376,0.21829 0.279283,0.39688 0.434491,0.39688 h 0.282197 l -0.30029,-0.5611 -0.300289,-0.56109 0.267104,0.16508 0.267103,0.16508 0.402664,-0.15452 0.402664,-0.15452 -0.114111,-2.0953 c -0.06276,-1.15241 -0.07422,-2.0953 -0.02547,-2.0953 0.04875,0 0.429417,0.89297 0.84592,1.98438 0.416504,1.0914 0.830576,1.98437 0.92016,1.98437 0.08958,0 0.189926,0.52248 0.222982,1.16107 l 0.0601,1.16106 -0.406438,0.40644 c -0.223541,0.22354 -1.066743,0.7295 -1.873782,1.12434 -0.80704,0.39485 -1.819566,1.04693 -2.250057,1.44907 l -0.782712,0.73116 v 0.54851 0.54851 l 0.732942,0.37902 c 0.403118,0.20846 1.423486,0.50668 2.267484,0.6627 0.843997,0.15602 1.850936,0.43532 2.237641,0.62066 l 0.7031,0.33699 0.712404,1.48598 0.712402,1.48599 0.961139,0.59402 c 1.128771,0.69761 1.052211,0.98368 -0.151006,0.56424 -0.465706,-0.16234 -1.08785,-0.29517 -1.382542,-0.29517 H 50.46636 l 0.641434,0.69961 0.641432,0.69961 -0.764696,-0.48976 -0.764697,-0.48976 -2.542595,-0.15908 -2.542595,-0.15907 -0.926042,-0.42135 c -0.509323,-0.23174 -1.164166,-0.47921 -1.455208,-0.54993 -0.291042,-0.0707 -0.740916,-0.21565 -0.999721,-0.32208 l -0.470554,-0.19351 0.174549,2.48318 0.17455,2.48317 -0.731967,0.86989 -0.731967,0.86989 -0.357917,-0.13734 -0.357917,-0.13735 0.06297,0.2798 0.06297,0.27981 -0.79375,0.0699 c -0.436563,0.0385 -1.026594,-0.0126 -1.311182,-0.11343 z m 2.342262,-1.10841 c -0.07495,-0.12126 -0.248304,-0.22048 -0.385237,-0.22048 -0.136932,0 -0.248968,0.0992 -0.248968,0.22048 0,0.12127 0.173356,0.22049 0.385236,0.22049 h 0.385237 z m 10.430551,-6.37204 -0.08455,-0.59532 -0.595313,-0.0845 -0.595312,-0.0846 v 0.36236 c 0,0.46579 0.531567,0.99736 0.99736,0.99736 H 50.33082 Z M 33.4774,265.08505 c 0.282475,-0.22581 0.693241,-0.41057 0.912813,-0.41057 h 0.399222 l -0.251354,0.23485 c -0.138245,0.12916 -0.549011,0.31392 -0.912813,0.41057 l -0.661458,0.17573 z m -0.381299,-0.93974 c 0.218282,-0.14106 0.635,-0.24993 0.926042,-0.24193 l 0.529167,0.0145 -0.529167,0.22739 c -0.291042,0.12507 -0.70776,0.23394 -0.926042,0.24194 l -0.396875,0.0145 z m 0.134959,-1.32723 0.166189,-0.2689 0.246301,0.15223 c 0.366989,0.2268 0.298559,0.38557 -0.166188,0.38557 h -0.41249 z m 0.261916,-3.17068 -0.163521,-0.26459 h 0.280198 c 0.154109,0 0.280198,0.11907 0.280198,0.26459 0,0.14552 -0.0525,0.26458 -0.116676,0.26458 -0.06417,0 -0.190262,-0.11906 -0.280199,-0.26458 z m 1.653646,0.0893 c 0.181901,-0.0734 0.479557,-0.0734 0.661459,0 l 0.330729,0.13345 h -0.661459 -0.661458 z m 45.147843,-3.6085 -0.558925,-0.27917 0.9456,-0.48209 c 1.190461,-0.60693 1.192088,-0.60662 0.706591,0.13434 l -0.403905,0.61643 0.177319,0.17732 0.177315,0.17732 -0.242533,-0.0325 c -0.133395,-0.0179 -0.494051,-0.15811 -0.801462,-0.31166 z m -2.285344,-0.48103 0.859896,-0.24829 v -0.25701 c 0,-0.14137 0.148828,-0.25306 0.330729,-0.24822 l 0.330729,0.009 -0.624623,0.52036 -0.624626,0.52037 -0.565999,-0.0239 -0.566002,-0.0239 0.859896,-0.24829 z m -0.248047,-0.67848 c 0.190995,-0.0764 0.419198,-0.067 0.507119,0.0209 l 0.159851,0.15985 -0.507117,-0.0209 -0.507118,-0.0209 0.347265,-0.13897 z m 2.522723,-0.47096 0.488738,-0.37029 0.417957,0.16039 0.41796,0.16038 -0.509821,0.19972 c -0.280402,0.10985 -0.688416,0.20431 -0.906698,0.20991 l -0.396874,0.0102 0.488738,-0.37029 z m 1.495636,-0.14205 c 0,-0.14552 0.12609,-0.26458 0.280199,-0.26458 h 0.280197 l -0.163521,0.26458 c -0.08994,0.14552 -0.216027,0.26458 -0.280199,0.26458 -0.06417,0 -0.116676,-0.11906 -0.116676,-0.26458 z m -4.497916,-0.10398 c 0,-0.0572 0.178594,-0.17252 0.396875,-0.25628 l 0.396875,-0.1523 v 0.25628 0.25628 h -0.396875 c -0.218281,0 -0.396875,-0.0468 -0.396875,-0.10398 z m -8.45729,-0.37466 -0.0094,-0.34634 -0.264583,0.16352 -0.264583,0.16352 v -0.26705 c 0,-0.14688 0.189262,-0.37296 0.420581,-0.50242 0.23132,-0.12945 0.402739,-0.2842 0.380932,-0.34387 -0.0218,-0.0597 0.07904,-0.40617 0.224107,-0.76997 l 0.263755,-0.66146 0.0074,0.79375 0.0074,0.79375 -0.378124,0.66146 -0.378124,0.66146 -0.0094,-0.34635 z m 0.784373,-0.1672 c 0,-0.2097 0.119063,-0.45485 0.264584,-0.54479 l 0.264583,-0.16352 v 0.54478 0.54479 H 69.873184 69.6086 Z m 10.054167,-0.0156 c 0.363802,-0.20797 0.840052,-0.37856 1.058333,-0.37909 l 0.396875,-10e-4 -0.51359,0.38846 c -0.282475,0.21366 -0.758725,0.38424 -1.058334,0.37909 l -0.544742,-0.009 0.661458,-0.37813 z m -1.956366,-0.63087 0.501158,-0.48309 0.08819,0.22625 c 0.04851,0.12443 0.276712,0.22624 0.507119,0.22624 0.703599,0 0.177064,0.28908 -0.737312,0.40481 l -0.860316,0.10887 0.501158,-0.48309 z m 2.220949,-0.55976 c 0.734084,-0.57421 1.058333,-0.65813 1.058333,-0.27389 0,0.29968 -0.870587,0.80564 -1.371668,0.79717 l -0.348123,-0.006 z m -11.623069,-0.5797 c 0.01023,-0.19049 0.12092,-0.58447 0.245986,-0.87551 l 0.227391,-0.52917 0.0186,0.71199 0.0186,0.71199 -0.264583,0.16352 -0.264583,0.16352 0.0186,-0.34634 z m 10.586784,0.22877 c 0.06063,-0.0475 0.556728,-0.35486 1.102431,-0.68304 l 0.992187,-0.59669 v 0.29966 0.29966 l -0.917543,0.38338 c -0.845735,0.35337 -1.440701,0.50351 -1.177075,0.29703 z m -39.414563,-0.54678 -0.631058,-0.3498 0.235506,-0.14555 0.235505,-0.14555 0.623302,0.50472 c 0.714383,0.57847 0.466269,0.65141 -0.463255,0.13618 z m 27.490316,-0.75594 -0.0041,-0.99219 h 0.264584 0.264583 l -0.004,0.59532 c -0.0021,0.32742 -0.119468,0.7739 -0.260533,0.99218 l -0.256479,0.39688 -0.004,-0.99219 z m -0.797801,0.33073 c 0,-0.14552 0.12609,-0.26458 0.280199,-0.26458 h 0.280197 l -0.163521,0.26458 c -0.08994,0.14552 -0.216027,0.26458 -0.280199,0.26458 -0.06417,0 -0.116676,-0.11906 -0.116676,-0.26458 z m 1.591551,0.0818 c 0.0022,-0.11773 0.119467,-0.39265 0.260532,-0.61093 l 0.25648,-0.39687 0.004,0.4474 c 0.0021,0.24608 -0.115012,0.52099 -0.260533,0.61093 l -0.264583,0.16352 0.004,-0.21405 z m 11.240741,-0.48684 c 0.725222,-0.59446 1.455208,-0.85384 1.455208,-0.51707 0,0.19632 -1.670254,1.18635 -1.984375,1.17623 -0.145521,-0.005 0.0926,-0.30131 0.529167,-0.65916 z m -39.489062,-0.25528 c -0.181901,-0.2066 -0.330729,-0.50675 -0.330729,-0.667 V 249.562 l 0.263161,0.16264 c 0.144738,0.0895 0.387052,0.39414 0.538475,0.67707 l 0.275315,0.51444 -0.207746,-0.0101 c -0.114261,-0.006 -0.356575,-0.17911 -0.538476,-0.38572 z m 26.963129,-0.39797 v -0.66146 l 0.133453,0.33073 c 0.0734,0.1819 0.0734,0.47955 0,0.66146 l -0.133453,0.33072 z m -26.345869,-0.22908 -0.207227,-0.3353 0.158785,-0.15878 0.158786,-0.15879 0.159853,0.15985 c 0.08792,0.0879 0.109717,0.31026 0.04844,0.49409 l -0.111412,0.33423 z m 38.425317,0.0483 c 0.190995,-0.0764 0.419198,-0.067 0.507119,0.0209 l 0.159851,0.15986 -0.507117,-0.0209 -0.507118,-0.0209 0.347265,-0.13897 z m -35.702888,-0.54687 -0.363126,-0.46302 0.46302,0.36313 c 0.440729,0.34564 0.580887,0.56291 0.363126,0.56291 -0.05494,0 -0.263301,-0.20836 -0.46302,-0.46302 z m 34.664883,-1.05833 1.404556,-1.65365 h -0.275148 c -0.151331,0 -0.348731,0.11907 -0.438668,0.26459 -0.08994,0.14552 -0.287819,0.26458 -0.439738,0.26458 h -0.276217 l 1.554623,-1.78594 c 2.27943,-2.61859 2.511618,-3.04146 0.726382,-1.32291 -0.869217,0.83674 -1.684692,1.52135 -1.812169,1.52135 h -0.231772 l 0.504029,-0.58493 0.504028,-0.58493 -0.769519,0.4862 -0.769522,0.4862 0.527701,-0.76116 c 0.290234,-0.41865 0.627221,-0.93977 0.748855,-1.15805 l 0.221155,-0.39687 -0.559337,0.49017 -0.559338,0.49017 -0.34604,-0.11692 -0.346038,-0.11692 0.985573,-0.98841 c 0.542065,-0.54362 0.967772,-1.06877 0.946015,-1.167 -0.02175,-0.0982 0.123013,-0.51396 0.321709,-0.92385 l 0.361268,-0.74525 0.478655,0.12517 0.478655,0.12517 0.03917,-0.30596 c 0.02154,-0.16827 0.05131,-0.54408 0.06615,-0.83512 l 0.02697,-0.52917 0.33073,0.0661 0.330729,0.0661 v -0.39687 -0.39688 h 0.535265 0.535268 l -0.469122,0.72722 -0.46912,0.72723 0.768438,-0.59899 0.76844,-0.59898 0.554476,0.46425 c 0.304964,0.25534 0.595845,0.48705 0.646404,0.51491 0.180403,0.0994 -0.872292,1.67478 -1.119108,1.67478 h -0.251635 l 0.169995,0.16999 0.169995,0.17 0.403267,-0.33468 0.40327,-0.33469 v 0.35175 0.35174 l -1.719792,1.67803 c -1.565685,1.52766 -2.10907,2.18843 -1.479883,1.79957 l 0.239908,-0.14827 -0.14433,0.55192 c -0.07938,0.30356 -0.305721,0.61386 -0.502973,0.68955 l -0.35864,0.13762 0.135089,0.21858 0.135085,0.21857 -0.273214,0.16886 -0.273214,0.16886 0.135086,0.21857 0.135088,0.21858 -0.461499,0.17709 c -0.253826,0.0974 -0.51457,0.19918 -0.579433,0.22617 -0.06486,0.027 -0.383484,0.2856 -0.708051,0.5747 l -0.590121,0.52564 0.278926,0.17238 0.278929,0.17239 -0.181803,0.29417 c -0.09999,0.16179 -0.290102,0.29416 -0.422468,0.29416 h -0.240665 l 0.166354,-0.46302 0.166357,-0.46302 -0.759288,0.66146 -0.759286,0.66145 z m 1.881365,0.99219 c 0,-0.14552 0.119062,-0.26459 0.264583,-0.26459 0.145521,0 0.264583,0.11907 0.264583,0.26459 0,0.14552 -0.119062,0.26458 -0.264583,0.26458 -0.145521,0 -0.264583,-0.11906 -0.264583,-0.26458 z m -13.583986,-0.19844 c -0.06681,-0.10914 -0.187328,-0.91281 -0.267819,-1.78594 l -0.146355,-1.5875 0.289798,1.12448 0.289796,1.12448 h 0.301575 0.301574 l 0.05474,0.66146 0.05474,0.66146 h -0.378296 c -0.208063,0 -0.432959,-0.0893 -0.499763,-0.19844 z m -22.531639,-0.33073 -0.163521,-0.26458 h 0.280198 c 0.154109,0 0.280198,0.11906 0.280198,0.26458 0,0.14552 -0.0525,0.26458 -0.116676,0.26458 -0.06417,0 -0.190262,-0.11906 -0.280199,-0.26458 z m 2.419624,-0.58017 c -0.384907,-0.46462 -0.699832,-1.02024 -0.699832,-1.23472 v -0.38997 l 0.198438,0.19844 c 0.10914,0.10914 0.201532,0.27781 0.205314,0.37482 0.0038,0.097 0.225165,0.50279 0.491962,0.90172 l 0.485085,0.72534 0.21736,-0.13434 0.21736,-0.13433 0.166189,0.26889 0.166189,0.2689 h -0.374117 -0.374116 z m 30.82742,0.051 c 0.322765,-0.43656 0.705792,-0.79375 0.851172,-0.79375 h 0.264327 l -0.76046,0.79375 c -0.418253,0.43657 -0.80128,0.79375 -0.851173,0.79375 -0.04989,0 0.173369,-0.35718 0.496134,-0.79375 z m 2.403554,0.0802 0.713573,-0.71357 0.206457,0.20718 0.206455,0.20718 -0.624623,0.50639 c -0.343546,0.27852 -0.757558,0.50639 -0.920031,0.50639 h -0.295404 z m -34.523026,-0.071 -0.44524,-0.52 0.235864,-0.14578 0.235865,-0.14577 0.109777,0.20276 c 0.180726,0.33379 0.444244,1.12879 0.37416,1.12879 -0.03585,0 -0.265545,-0.234 -0.510426,-0.52 z m 31.561471,-0.14146 c 7.94e-4,-0.14552 0.362849,-0.6813 0.804828,-1.19062 l 0.803592,-0.92605 -0.274015,0.52917 c -0.407792,0.7875 -1.335823,1.89156 -1.334405,1.5875 z m -28.95219,-1.06856 c -0.255317,-0.66535 -0.179999,-0.83702 0.131904,-0.30066 0.154435,0.26558 0.225054,0.5386 0.156932,0.60673 -0.06812,0.0681 -0.198098,-0.0696 -0.288836,-0.30607 z m -1.091019,-0.12206 -0.163522,-0.26459 h 0.280199 c 0.154108,0 0.280198,0.11907 0.280198,0.26459 0,0.14552 -0.05251,0.26458 -0.116677,0.26458 -0.06417,0 -0.190261,-0.11906 -0.280198,-0.26458 z m -0.396875,-1.05834 c -0.155761,-0.29104 -0.223671,-0.52916 -0.15091,-0.52916 0.07276,0 0.259732,0.23812 0.415493,0.52916 0.155761,0.29104 0.22367,0.52917 0.15091,0.52917 -0.07276,0 -0.259732,-0.23813 -0.415493,-0.52917 z m 30.956249,0.42927 c 0,-0.0549 0.208359,-0.2633 0.463021,-0.46302 l 0.463021,-0.36312 -0.363125,0.46302 c -0.345644,0.44073 -0.562917,0.58089 -0.562917,0.36312 z m -30.109583,-1.01135 c -0.174625,-0.17463 -0.3175,-0.47228 -0.3175,-0.66146 v -0.34396 l -0.330729,-0.004 -0.330729,-0.004 0.389213,-0.24614 c 0.476439,-0.30131 0.495475,-0.28333 0.791107,0.74748 0.265678,0.92636 0.250762,0.9643 -0.201362,0.51218 z m 0.08617,-1.78603 c -0.34785,-0.67267 -0.59513,-2.41871 -0.298507,-2.10775 0.171779,0.18007 0.934479,2.88836 0.813413,2.88836 -0.06118,0 -0.292888,-0.35127 -0.514906,-0.78061 z m -1.126052,-0.52397 0.03848,-0.51084 0.213975,0.13224 c 0.117687,0.0727 0.151761,0.23291 0.07572,0.35595 l -0.138256,0.2237 0.332377,0.13401 0.332378,0.134 -0.446577,0.0209 -0.446577,0.0209 z m 34.589048,-3.45792 c 0,-0.14552 0.119063,-0.26458 0.264583,-0.26458 0.145521,0 0.264584,0.11906 0.264584,0.26458 0,0.14552 -0.119063,0.26459 -0.264584,0.26459 -0.14552,0 -0.264583,-0.11907 -0.264583,-0.26459 z"
         id="path142"
         inkscape:connector-curvature="0" />
    </g>
  </g>
</svg>
