<?xml version="1.0" encoding="UTF-8" standalone="no"?>
<!-- Created with Inkscape (http://www.inkscape.org/) -->

<svg
   xmlns:dc="http://purl.org/dc/elements/1.1/"
   xmlns:cc="http://creativecommons.org/ns#"
   xmlns:rdf="http://www.w3.org/1999/02/22-rdf-syntax-ns#"
   xmlns:svg="http://www.w3.org/2000/svg"
   xmlns="http://www.w3.org/2000/svg"
   xmlns:sodipodi="http://sodipodi.sourceforge.net/DTD/sodipodi-0.dtd"
   xmlns:inkscape="http://www.inkscape.org/namespaces/inkscape"
   width="75mm"
   height="120mm"
   viewBox="0 0 75 120"
   version="1.1"
   id="svg8"
   inkscape:version="0.92.4 (5da689c313, 2019-01-14)"
   sodipodi:docname="des.svg">
  <defs
     id="defs2" />
  <sodipodi:namedview
     id="base"
     pagecolor="#ffffff"
     bordercolor="#666666"
     borderopacity="1.0"
     inkscape:pageopacity="0.0"
     inkscape:pageshadow="2"
     inkscape:zoom="1.4"
     inkscape:cx="42.395096"
     inkscape:cy="256.76123"
     inkscape:document-units="mm"
     inkscape:current-layer="layer1"
     showgrid="false"
     units="mm"
     inkscape:window-width="1920"
     inkscape:window-height="1017"
     inkscape:window-x="-8"
     inkscape:window-y="-8"
     inkscape:window-maximized="1" />
  <metadata
     id="metadata5">
    <rdf:RDF>
      <cc:Work
         rdf:about="">
        <dc:format>image/svg+xml</dc:format>
        <dc:type
           rdf:resource="http://purl.org/dc/dcmitype/StillImage" />
        <dc:title />
      </cc:Work>
    </rdf:RDF>
  </metadata>
  <g
     inkscape:label="Calque 1"
     inkscape:groupmode="layer"
     id="layer1"
     transform="translate(0,-176.99999)">
    <g
       transform="translate(-109.80194,226.02975)"
       id="g4830">
      <path
         style="fill:#ff00ff;stroke-width:0.26458335"
         d="m 134.63459,29.38641 -15.21354,-6.14937 -0.0682,-15.05872 -0.0682,-15.05871 14.62029,-6.81519 c 8.04116,-3.74835 14.74816,-6.81421 14.90445,-6.81302 0.1563,0.001 3.97501,1.77551 8.48605,3.94292 4.51103,2.16742 9.32424,4.47541 10.69604,5.12888 1.37179,0.65348 3.89315,1.85719 5.60302,2.67492 l 3.10885,1.48679 0.001,12.23589 c 5.3e-4,6.72974 0.0783,13.57465 0.17263,15.21092 l 0.17142,2.97502 -2.35543,1.09635 c -3.79712,1.76739 -24.29093,11.10979 -24.58045,11.20535 -0.14552,0.048 -7.11067,-2.67988 -15.47812,-6.06203 z"
         id="path4203-5"
         inkscape:connector-curvature="0" />
      <path
         style="fill:#00ff00;stroke-width:0.26458335"
         d="m 143.69017,32.8925 c -3.24136,-1.32536 -5.84271,-2.46041 -5.78078,-2.52234 0.0619,-0.0619 2.59489,0.89666 5.6288,2.13022 l 5.51619,2.24282 0.20463,-0.70346 c 0.11254,-0.3869 0.12662,-7.01378 0.0313,-14.72638 -0.0953,-7.7126 -0.11141,-13.96339 -0.0357,-13.89063 0.12807,0.12311 0.59531,27.03491 0.49726,28.64115 -0.0549,0.899 0.14515,0.90272 2.03147,0.0378 2.16166,-0.99116 4.01794,-1.70571 4.01794,-1.54664 0,0.17908 -4.95991,2.48046 -5.67074,2.6312 -0.30831,0.0654 -3.11844,-0.93546 -6.44035,-2.29375 z m -8.79099,-3.65726 c -0.23847,-0.15411 -0.27111,-0.2581 -0.0818,-0.26054 0.17332,-0.002 0.3887,0.11501 0.47864,0.26054 0.20302,0.32848 0.11142,0.32848 -0.39687,0 z m 29.12621,-0.62563 c 0.0606,-0.053 0.4079,-0.2382 0.7717,-0.41146 0.6237,-0.29704 0.63214,-0.29153 0.14787,0.0964 -0.42148,0.33767 -1.28266,0.63269 -0.91957,0.31501 z m -9.28246,-0.34019 c -0.84087,-0.3359 -1.87235,-1.56643 -2.13705,-2.54945 -0.7352,-2.7303 1.35368,-5.19799 4.13471,-4.88452 1.53343,0.17284 2.63049,1.01884 3.17705,2.45 0.42475,1.11219 0.42552,1.25841 0.0122,2.31176 -0.24264,0.61847 -0.72698,1.47349 -1.07632,1.90005 -0.55052,0.67223 -0.84026,0.7859 -2.17446,0.85313 -0.84663,0.0427 -1.71791,0.006 -1.9362,-0.081 z m -23.41563,-0.4987 c -0.66476,-0.32019 -0.68626,-0.35642 -0.13229,-0.22292 0.3638,0.0877 0.77457,0.26509 0.91281,0.39426 0.34294,0.32041 0.15461,0.27907 -0.78052,-0.17134 z m 34.52812,-0.12298 c 0.51816,-0.33486 0.86841,-0.33486 0.66146,0 -0.0899,0.14552 -0.36485,0.26276 -0.61093,0.26053 -0.38556,-0.003 -0.39255,-0.0395 -0.0505,-0.26053 z m -26.65918,-0.77691 c -1.36211,-0.85483 -1.96276,-2.02816 -1.84659,-3.60716 0.17529,-2.38255 1.71656,-3.729 3.96387,-3.46284 1.59327,0.1887 2.42388,0.68924 3.00341,1.80993 0.87741,1.69673 0.10997,4.53081 -1.41506,5.22566 -1.3153,0.59928 -2.78382,0.61292 -3.70563,0.0344 z m 27.71752,0.40834 c 0,-0.0572 0.18477,-0.17489 0.41062,-0.26156 0.23545,-0.0904 0.34166,-0.046 0.24896,0.10399 -0.15538,0.25141 -0.65958,0.37186 -0.65958,0.15757 z m -39.15833,-0.95435 c -0.21829,-0.14107 -0.27782,-0.25648 -0.1323,-0.25648 0.14552,0 0.44318,0.11541 0.66146,0.25648 0.21828,0.14106 0.27781,0.25648 0.13229,0.25648 -0.14552,0 -0.44317,-0.11542 -0.66145,-0.25648 z m 41.53958,-0.10399 c 0,-0.0572 0.18477,-0.17488 0.41062,-0.26155 0.23545,-0.0904 0.34166,-0.046 0.24896,0.10398 -0.15538,0.25141 -0.65958,0.37186 -0.65958,0.15757 z M 124.71272,25.0019 c -0.87313,-0.41427 -1.46844,-0.75647 -1.32292,-0.76045 0.14552,-0.004 0.97896,0.33386 1.85208,0.75077 0.87313,0.41691 1.46844,0.75912 1.32292,0.76046 -0.14552,10e-4 -0.97896,-0.33651 -1.85208,-0.75078 z m 49.87396,-1.32291 c 0.21828,-0.14107 0.51593,-0.25648 0.66145,-0.25648 0.14552,0 0.086,0.11541 -0.13229,0.25648 -0.21828,0.14106 -0.51594,0.25647 -0.66146,0.25647 -0.14552,0 -0.086,-0.11541 0.1323,-0.25647 z m -50.53542,-2.02471 c -1.1683,-0.46898 -2.38125,-2.19916 -2.38125,-3.39665 0,-1.04745 0.9726,-2.72281 1.84154,-3.17215 1.64834,-0.85239 4.45484,-0.071 5.22714,1.45536 0.68374,1.35132 0.22925,3.55158 -0.95085,4.60317 -0.57862,0.51562 -2.92504,0.83604 -3.73658,0.51027 z m -4.3886,-5.7805 c 2.7e-4,-2.61938 0.0399,-3.65515 0.088,-2.30172 0.0481,1.35342 0.0479,3.49655 -5e-4,4.7625 -0.0484,1.26594 -0.0878,0.15859 -0.0875,-2.46078 z m 56.71628,1.52135 c -0.0598,-0.83674 -0.13015,-4.20026 -0.15623,-7.47448 -0.0556,-6.97405 -0.34504,-16.66875 -0.4977,-16.66875 -0.0585,0 -0.45675,0.18124 -0.88509,0.40274 -0.42835,0.22151 -1.08409,0.5188 -1.45719,0.66066 -1.10379,0.41966 -0.4972,-0.20175 0.88031,-0.90182 l 1.22748,-0.62382 -1.07493,-0.5484 c -0.59122,-0.30161 -3.26513,-1.58151 -5.94203,-2.84421 -2.6769,-1.26271 -5.81959,-2.74608 -6.98376,-3.29638 -8.01166,-3.78709 -12.46044,-5.81335 -12.76355,-5.81335 -0.19357,0 -0.61564,0.17192 -0.93795,0.38204 -0.3223,0.21012 -3.62209,1.76638 -7.33288,3.45837 -9.7346,4.43862 -20.10833,9.42766 -20.10833,9.6707 0,0.11506 0.62508,0.44481 1.38906,0.73278 4.43651,1.67227 7.09984,2.7554 7.00601,2.84924 -0.10286,0.10286 -3.57753,-1.10827 -6.98499,-2.43469 -0.89794,-0.34954 -1.70161,-0.63553 -1.78593,-0.63553 -0.0843,0 -0.15331,2.52016 -0.15331,5.60035 0,3.08019 -0.0448,5.55074 -0.0996,5.49011 -0.0548,-0.0606 -0.17359,-2.74517 -0.26408,-5.96563 l -0.16451,-5.85539 3.10835,-1.40259 c 2.97525,-1.34253 5.96595,-2.76628 16.21322,-7.71843 2.55102,-1.23282 5.91605,-2.81512 7.47786,-3.51621 l 2.83965,-1.27471 1.1211,0.55779 c 0.61661,0.30679 1.89501,0.90511 2.84089,1.32961 0.94589,0.42449 2.85089,1.31275 4.23333,1.97391 1.38245,0.66115 5.13292,2.44808 8.33438,3.97093 3.20146,1.52286 6.98169,3.33588 8.40052,4.02894 l 2.57969,1.26011 0.005,8.23509 c 0.003,4.52929 0.0783,10.40797 0.16783,13.06373 0.0895,2.65575 0.0983,4.82865 0.0194,4.82865 -0.0788,0 -0.19231,-0.68461 -0.25214,-1.52136 z m -14.42449,-0.0838 c -1.57272,-0.32872 -2.44969,-1.57354 -2.44804,-3.47489 0.002,-2.19157 1.56903,-3.65117 3.92014,-3.65117 1.35186,0 2.70243,0.92442 3.17866,2.17566 1.06522,2.79876 -1.56258,5.59587 -4.65076,4.9504 z m -29.05423,-0.26495 c -0.44458,-0.12921 -1.09942,-0.54478 -1.45521,-0.9235 -0.87657,-0.93307 -0.92778,-3.40266 -0.0939,-4.52914 2.05399,-2.77477 6.71863,-1.3318 6.72209,2.07943 8e-4,0.75568 -0.1228,1.01365 -0.5506,1.14943 -0.42677,0.13545 -0.5154,0.31925 -0.39165,0.81229 0.31627,1.2601 -2.04312,2.04726 -4.23071,1.41149 z m 9.40729,-4.67137 c -1.53129,-0.27654 -3.09181,-2.75136 -2.6676,-4.23052 0.76312,-2.66083 2.92496,-3.63877 5.47951,-2.47874 2.57942,1.17131 2.36905,5.40643 -0.32445,6.53185 -0.88742,0.37079 -1.26682,0.39785 -2.48746,0.17741 z m -22.66948,-4.3064 c 0,-0.94589 0.048,-1.33284 0.10671,-0.8599 0.0587,0.47295 0.0587,1.24685 0,1.71979 -0.0587,0.47295 -0.10671,0.086 -0.10671,-0.85989 z m 6.11844,-0.81182 c -1.41652,-0.41168 -1.89052,-1.20535 -2.03914,-3.41433 l -0.13302,-1.97718 0.91953,-0.84225 c 0.50574,-0.46324 1.32341,-0.91803 1.81705,-1.01064 1.10667,-0.20761 2.79269,0.2205 3.3668,0.85489 0.76041,0.84025 1.29656,2.46583 1.12134,3.39985 -0.20898,1.11395 -1.32451,2.4464 -2.43744,2.91141 -0.96833,0.40459 -1.44333,0.41881 -2.61512,0.0782 z m 42.04989,-1.03032 c -2.27033,-0.94137 -2.1496,-4.95183 0.20153,-6.6948 0.96705,-0.71691 3.13284,-0.42983 4.23949,0.56196 1.49227,1.33738 1.50192,3.94314 0.0205,5.52489 -0.63395,0.67687 -0.92105,0.77712 -2.31136,0.80705 -0.87313,0.0188 -1.84068,-0.0708 -2.15011,-0.1991 z M 152.09709,3.72593 c 0,-0.13368 2.88904,-1.48358 3.14083,-1.46756 0.22051,0.014 -1.1578,0.75544 -2.26238,1.21697 -0.48315,0.20187 -0.87845,0.31464 -0.87845,0.25059 z m -9.92187,-1.2326 c -0.58209,-0.27993 -0.76068,-0.43485 -0.39688,-0.34428 0.74917,0.18651 2.1245,0.87607 1.71979,0.86226 -0.14552,-0.005 -0.74083,-0.23806 -1.32291,-0.51798 z m -2.38125,-0.91632 c -0.66163,-0.31868 -0.68365,-0.35541 -0.1323,-0.22065 0.7497,0.18324 1.5924,0.61276 1.19063,0.60685 -0.14552,-0.002 -0.62177,-0.17593 -1.05833,-0.3862 z m 17.44692,-0.26844 c 0.5688,-0.42496 1.05285,-0.51316 0.82906,-0.15107 -0.0791,0.12796 -0.41353,0.30063 -0.74321,0.38372 -0.57832,0.14575 -0.58135,0.13755 -0.0858,-0.23265 z M 135.69292,0.11266 c -1.52796,-0.57144 -3.29137,-1.2304 -3.91867,-1.46435 -0.62731,-0.23395 -1.08705,-0.47888 -1.02164,-0.54429 0.10882,-0.10881 1.25701,0.29479 6.32938,2.22484 1.61109,0.61303 2.14178,0.89439 1.5875,0.84167 -0.10914,-0.0104 -1.4486,-0.48642 -2.97657,-1.05787 z m 11.16555,-2.54055 c -1.15194,-0.56772 -2.54017,-2.21798 -2.91322,-3.4631 -0.34201,-1.14154 0.0593,-3.14571 0.88101,-4.3998 0.71417,-1.08996 2.89249,-2.08915 4.55451,-2.08915 3.29998,0 5.53832,3.35277 4.58986,6.87509 -0.69901,2.59591 -4.63396,4.2983 -7.11216,3.07696 z m 18.2032,0.17771 c 0.21829,-0.14107 0.51594,-0.25648 0.66146,-0.25648 0.14552,0 0.086,0.11541 -0.13229,0.25648 -0.21828,0.14106 -0.51594,0.25648 -0.66146,0.25648 -0.14552,0 -0.086,-0.11542 0.13229,-0.25648 z m 1.85209,-0.66117 c 0,-0.13075 3.20547,-1.76157 4.69635,-2.38934 0.47294,-0.19914 0.8599,-0.27272 0.8599,-0.1635 0,0.10921 -0.56555,0.44555 -1.25677,0.74742 -0.69123,0.30186 -1.94138,0.85977 -2.77813,1.2398 -0.83674,0.38002 -1.52135,0.63455 -1.52135,0.56562 z"
         id="path4201-7"
         inkscape:connector-curvature="0" />
    </g>
  </g>
</svg>
