<?xml version="1.0" encoding="UTF-8" standalone="no"?>
<!-- Created with Inkscape (http://www.inkscape.org/) -->

<svg
   xmlns:dc="http://purl.org/dc/elements/1.1/"
   xmlns:cc="http://creativecommons.org/ns#"
   xmlns:rdf="http://www.w3.org/1999/02/22-rdf-syntax-ns#"
   xmlns:svg="http://www.w3.org/2000/svg"
   xmlns="http://www.w3.org/2000/svg"
   xmlns:sodipodi="http://sodipodi.sourceforge.net/DTD/sodipodi-0.dtd"
   xmlns:inkscape="http://www.inkscape.org/namespaces/inkscape"
   width="75mm"
   height="120mm"
   viewBox="0 0 75 120"
   version="1.1"
   id="svg8"
   inkscape:version="0.92.4 (5da689c313, 2019-01-14)"
   sodipodi:docname="dragon2.svg">
  <defs
     id="defs2">
    <pattern
       y="0"
       x="0"
       height="6"
       width="6"
       patternUnits="userSpaceOnUse"
       id="EMFhbasepattern" />
  </defs>
  <sodipodi:namedview
     id="base"
     pagecolor="#ffffff"
     bordercolor="#666666"
     borderopacity="1.0"
     inkscape:pageopacity="0.0"
     inkscape:pageshadow="2"
     inkscape:zoom="0.98994949"
     inkscape:cx="21.237336"
     inkscape:cy="213.48356"
     inkscape:document-units="mm"
     inkscape:current-layer="layer1"
     showgrid="false"
     units="mm"
     inkscape:window-width="1280"
     inkscape:window-height="972"
     inkscape:window-x="-8"
     inkscape:window-y="-8"
     inkscape:window-maximized="1" />
  <metadata
     id="metadata5">
    <rdf:RDF>
      <cc:Work
         rdf:about="">
        <dc:format>image/svg+xml</dc:format>
        <dc:type
           rdf:resource="http://purl.org/dc/dcmitype/StillImage" />
        <dc:title></dc:title>
      </cc:Work>
    </rdf:RDF>
  </metadata>
  <g
     inkscape:label="Calque 1"
     inkscape:groupmode="layer"
     id="layer1"
     transform="translate(0,-176.99999)">
    <g
       id="g63"
       transform="translate(8.2853554,-12.561668)">
      <path
         inkscape:connector-curvature="0"
         style="fill:#006680;fill-opacity:1;fill-rule:nonzero;stroke:none;stroke-width:0.26458332"
         d="m 10.714826,269.3828 c -0.169332,-0.23283 -0.698495,-0.40216 -1.1641579,-0.40216 -0.571496,0 -1.037159,-0.21166 -1.439323,-0.65616 -0.719661,-0.84666 -1.227657,-0.84666 -2.349482,0.0212 -1.1641583,0.88899 -2.5399813,1.26999 -3.2384763,0.88899 -0.5714957,-0.29633 -0.7196613,-1.29116 -0.2751645,-1.73565 0.169332,-0.16934 0.3386643,-4.6778 0.4444968,-12.21308 l 0.169332,-11.93791 -2.20131723,-3.66181 c -1.2276574,-2.01082 -2.83631217,-4.59313 -3.57713997,-5.75729 -0.7408279,-1.16416 -1.4181562,-2.30715 -1.5028222,-2.56115 9.6095956,-3.70414 10.4350894,0.67733 14.9647223,0 -0.126999,0.10584 -0.5714959,0.8255 -0.9948259,1.62983 -0.444497,0.80432 -1.82032,3.13264 -3.09031,5.18579 -1.2699908,2.05315 -2.4764821,4.08514 -2.6881472,4.50847 -0.3174976,0.61383 -0.4233301,2.92098 -0.5503291,12.00141 -0.1058325,7.09078 -0.063499,11.38758 0.1058326,11.64158 0.1904984,0.29633 0.2328314,0.16933 0.1904984,-0.4445 -0.0635,-0.86782 0.6349955,-1.94732 1.248824,-1.94732 0.4656633,0 1.1853243,-0.88899 1.1853243,-1.48165 0,-0.71966 0.507997,-1.16416 1.312324,-1.16416 0.359831,0 0.888994,-0.16933 1.142992,-0.35983 0.698494,-0.55033 1.418156,-0.23283 1.9049849,0.80433 0.507997,1.05832 1.291158,1.43932 2.285983,1.10066 1.100659,-0.381 1.418157,-1.24883 1.015993,-2.79399 -0.190499,-0.74082 -0.253998,-1.52398 -0.169332,-1.75682 0.402164,-1.03716 2.815146,-1.24882 4.635466,-0.42332 1.396989,0.63499 2.497648,0.67732 3.069144,0.10583 0.486829,-0.48683 0.507996,-0.59267 0.126999,-2.09549 -0.253999,-0.95249 -0.529163,-1.31232 -1.587489,-2.03198 -1.439322,-0.97366 -1.69332,-1.43932 -1.439322,-2.75165 0.105832,-0.63499 0.380997,-1.01599 0.931326,-1.29116 0.42333,-0.23283 1.058326,-0.67732 1.39699,-1.01599 0.486829,-0.508 1.015992,-0.65616 2.497647,-0.78316 2.222484,-0.1905 2.984478,-0.52916 2.984478,-1.33349 0,-0.3175 0.105834,-0.74083 0.232831,-0.91016 0.3175,-0.508 1.82032,-0.86783 3.76764,-0.86783 1.354656,0 1.841487,-0.10583 2.180151,-0.48683 0.677328,-0.71966 0.529162,-1.20649 -0.486831,-1.71448 -1.269989,-0.59267 -1.672153,-1.52399 -1.100658,-2.41299 0.254,-0.35983 0.61383,-0.67732 0.825494,-0.67732 0.486831,0 1.46049,-1.24883 1.46049,-1.86266 0,-0.86782 0.592661,-1.79915 1.291156,-2.05315 0.380997,-0.14816 1.227659,-0.42333 1.88382,-0.61383 0.888992,-0.27516 1.354656,-0.61383 1.926153,-1.46049 0.507995,-0.78316 0.973659,-1.16415 1.587487,-1.29115 1.206492,-0.254 3.111476,-1.20649 3.111476,-1.58749 0,-0.16933 0.232834,-0.52916 0.550331,-0.80433 0.465664,-0.42333 0.910159,-0.48683 2.539982,-0.4445 2.222484,0.0635 2.815145,-0.14816 3.38664,-1.24882 0.211666,-0.42333 1.291159,-1.39699 2.412984,-2.15898 1.418156,-0.97366 2.455315,-1.98966 3.51364,-3.38665 0.973659,-1.31232 1.883818,-2.20131 2.603479,-2.58231 0.613831,-0.3175 1.121825,-0.52916 1.121825,-0.46566 0,0.0847 0.423331,-0.0423 0.931328,-0.254 0.507995,-0.21167 0.931326,-0.33866 0.931326,-0.254 0,0.0635 0.35983,-0.0635 0.804328,-0.29633 l 0.804328,-0.42333 -0.423331,0.80433 c -0.656161,1.26999 -1.968487,2.64581 -3.090312,3.21731 -0.550328,0.27516 -1.015992,0.63499 -1.015992,0.78316 0,0.14816 -0.296331,0.40216 -0.656161,0.55033 -0.359831,0.16933 -1.185326,1.12182 -1.862654,2.11665 -0.656161,0.99482 -1.735653,2.24365 -2.391815,2.77281 -1.227658,1.01599 -2.30715,2.60348 -2.603481,3.85231 -0.232831,1.07949 -1.39699,2.26481 -2.349482,2.47648 -1.841486,0.35983 -1.799153,0.31749 -1.629822,1.67215 0.232833,1.75682 -0.317498,2.20132 -2.920977,2.37065 -2.349484,0.14817 -3.069145,0.65616 -2.561148,1.77799 0.253998,0.55033 0.486828,0.65616 1.46049,0.65616 1.396989,0 1.650986,0.46566 0.994825,1.86265 -0.338664,0.71966 -0.825495,1.10066 -2.349484,1.82032 -1.037159,0.508 -1.968484,1.10066 -2.053151,1.35466 -0.0635,0.23283 0.04233,0.86783 0.275164,1.41815 0.232834,0.55033 0.338667,1.22766 0.254,1.50283 -0.254,0.80432 -1.672156,1.37582 -3.76764,1.50282 -1.777987,0.127 -1.989651,0.1905 -2.645812,0.99482 -0.804328,0.93133 -2.116651,1.71449 -2.963312,1.71449 -0.296331,0 -0.529164,0.10583 -0.529164,0.254 0,0.14817 -0.190498,0.27517 -0.402162,0.27517 -0.761994,0 -0.571497,2.22248 0.296331,3.25964 0.888992,1.05832 0.825492,2.07432 -0.1905,2.92098 -0.444495,0.38099 -0.888992,0.69849 -0.994825,0.69849 -0.08467,0 -0.402164,0.35983 -0.698495,0.78316 -0.296331,0.4445 -0.910159,0.93133 -1.375823,1.07949 -1.248825,0.42333 -2.137817,1.20649 -2.328317,2.09549 -0.338664,1.58749 -1.926151,1.96848 -4.508466,1.16416 -1.862653,-0.59267 -2.561148,-0.35984 -3.428975,1.10065 -0.550329,0.9525 -1.015992,1.33349 -2.18015,1.86266 -1.672154,0.74083 -2.518815,0.80433 -2.984478,0.25399 z M 2.9255506,237.10388 2.7350519,233.06107 1.740226,232.76474 c -0.5503291,-0.16933 -1.37582303,-0.29633 -1.82031983,-0.29633 h -0.8043273 l 0.5714958,1.56632 c 0.3174976,0.86783 0.6773283,1.50283 0.8043272,1.41816 0.1481656,-0.0847 0.169332,-0.0423 0.084666,0.127 -0.1058326,0.14817 0,0.78316 0.2328314,1.41816 0.67732843,1.92615 2.07431803,4.80479 2.20131723,4.46613 0.042333,-0.16933 0,-2.13782 -0.084666,-4.3603 z m 2.0531516,0.381 c 0.8043269,-2.24365 1.5874879,-4.44497 1.7568199,-4.84714 l 0.296331,-0.76199 -1.015992,0.16933 c -0.529163,0.0847 -1.4393227,0.381 -2.0108184,0.61383 l -1.037159,0.4445 0.169332,1.96848 c 0.1058325,1.0795 0.169332,3.04798 0.169332,4.3603 0,1.31233 0.0635,2.32832 0.1269992,2.26482 0.0635,-0.0635 0.7619942,-1.96848 1.5451553,-4.21213 z m -3.4713077,1.94731 c -0.2539981,-0.55032 -1.01599263,-2.41298 -1.65098783,-4.12747 -0.7408278,-1.96848 -1.29115707,-3.06914 -1.48165577,-2.98447 -0.169332,0.0635 -0.4444966,-0.0423 -0.6138287,-0.23283 -0.3598307,-0.4445 -1.9049859,-0.71967 -1.6721543,-0.29634 0.1058325,0.14817 0.8466604,1.29116 1.6509878,2.51882 0.8043274,1.24882 2.05315147,3.23847 2.79397927,4.44497 1.31232353,2.18015 1.92615243,2.60348 0.97365953,0.67732 z m 3.7464722,-0.16933 c 0.021166,-0.1905 0.2963314,-0.67733 0.5926624,-1.12182 0.296331,-0.42333 0.84666,-1.31233 1.206491,-1.96849 2.518815,-4.46613 2.624647,-4.8048 1.206491,-4.25447 -0.359831,0.127 -0.740828,0.16934 -0.825494,0.10584 -0.317497,-0.33867 -0.465663,0.74082 -0.148165,1.12182 0.275164,0.3175 0.253998,0.35983 -0.0635,0.23283 -0.275165,-0.10583 -0.507996,0.21167 -0.825494,1.12183 -0.232832,0.69849 -0.783161,2.26481 -1.2276575,3.47131 -0.4444966,1.20649 -0.8043272,2.34948 -0.8043272,2.51881 0,0.35983 0.8254939,-0.78316 0.8889933,-1.22766 z"
         id="path20" />
      <path
         inkscape:connector-curvature="0"
         style="fill:#00222b;fill-opacity:1;fill-rule:nonzero;stroke:none;stroke-width:0.26458332"
         d="m 10.587827,269.23464 c -0.35983,-0.40216 -0.402164,-0.52916 -0.105833,-0.52916 0.296332,0 0.296332,-0.0423 -0.02117,-0.254 -0.444497,-0.27516 -0.8889929,-0.0847 -0.6561619,0.29633 0.3174979,0.508 -1.206491,0.0635 -1.735654,-0.50799 -0.719661,-0.762 -1.206491,-0.74083 -2.307149,0.10583 -1.1006588,0.82549 -2.6246474,1.22765 -3.3019757,0.86782 -0.5291627,-0.27516 -0.6349953,-1.29115 -0.1904987,-1.73565 0.1693323,-0.16933 0.3174979,-4.40263 0.4233304,-12.19191 l 0.169336,-11.91674 -0.6561619,-1.16416 c -0.3598307,-0.61383 -1.33348993,-2.22249 -2.13781743,-3.51364 -0.8043273,-1.31233 -2.18015047,-3.57714 -3.06914387,-5.01647 l -1.6086548,-2.60348 0.8043273,-1.01599 c 2.4341486,-3.06914 5.6726248,-4.08514 9.6730947,-2.98448 1.354657,0.35983 1.926153,0.67733 2.857479,1.67216 1.6933209,1.73565 2.1378179,2.41298 1.7356539,2.64581 -0.169332,0.10583 -0.5926619,0.82549 -0.9313259,1.56632 -0.359831,0.74083 -0.761995,1.35466 -0.931327,1.35466 -0.169332,0 -0.232831,0.127 -0.148166,0.254 0.08467,0.127 0,0.40216 -0.190498,0.59266 -0.190499,0.1905 -0.42333,0.55033 -0.529163,0.80433 -0.08467,0.25399 -0.296331,0.46566 -0.465663,0.46566 -0.148165,0 -0.211665,0.127 -0.126999,0.27516 0.105832,0.14817 0.04233,0.254 -0.126999,0.254 -0.169332,0 -0.211665,0.14817 -0.105833,0.3175 0.126999,0.1905 0.0635,0.23283 -0.126999,0.10583 -0.232831,-0.14816 -0.169332,-0.44449 0.253998,-1.16416 1.439323,-2.43414 2.412983,-4.31796 2.264817,-4.46613 -0.08467,-0.0635 -0.465663,-0.0423 -0.888993,0.0635 -0.402164,0.127 -0.825494,0.1905 -0.931327,0.16933 -0.402164,-0.0847 -0.507996,0.762 -0.169332,1.20649 0.338664,0.42333 0.317498,0.42333 -0.105833,0.10584 -0.253998,-0.21167 -0.444496,-0.254 -0.444496,-0.0847 0,0.4445 -0.55033,1.71449 -0.677328,1.58749 -0.0635,-0.0635 0.126998,-0.71966 0.402163,-1.46049 0.42333,-1.14299 0.444497,-1.37582 0.126999,-1.50282 -0.211665,-0.0635 -0.444497,-0.0212 -0.529162,0.10583 -0.08467,0.14817 -0.380998,0.254 -0.656162,0.254 -0.2751649,0 -0.9313268,0.21166 -1.4393231,0.44449 l -0.9313265,0.4445 0.1058329,4.12747 c 0.084666,3.49247 0.063499,3.70414 -0.1058329,1.48166 -0.1269989,-1.46049 -0.2328314,-3.32315 -0.2328314,-4.12747 -0.042333,-1.48166 -0.042333,-1.48166 -1.0583254,-1.79916 -0.5714958,-0.16933 -1.39698973,-0.29633 -1.86265293,-0.29633 h -0.825494 l 0.6773284,1.75682 c 0.3598306,0.97366 0.6138288,1.79916 0.5503293,1.86266 -0.042333,0.0423 -0.4444968,-0.80433 -0.8466606,-1.90499 -0.46566317,-1.20649 -0.88899327,-1.94732 -1.07949197,-1.86265 -0.169332,0.0635 -0.4444966,-0.0423 -0.6138287,-0.23283 -0.1481656,-0.1905 -0.6349953,-0.40217 -1.079492,-0.46567 l -0.7831609,-0.127 0.4444967,0.67733 c 0.91016,1.37582 3.97930387,6.28645 4.6989653,7.49295 0.4021638,0.69849 0.8254939,1.20649 0.9524929,1.12182 0.1269992,-0.0635 0.3598306,0.10583 0.5079962,0.40216 0.2751646,0.48683 1.3758231,0.78317 1.3123236,0.33867 -0.084666,-0.52916 0.0635,-1.07949 0.4021637,-1.54516 0.3598307,-0.48683 0.3809971,-0.46566 0.2328315,0.14817 -0.1058325,0.55033 0,0.46566 0.6138289,-0.381 0.402164,-0.59266 0.719661,-1.16416 0.677328,-1.26999 -0.02117,-0.10583 0.08467,-0.1905 0.232832,-0.1905 0.148166,0 0.211665,-0.127 0.105833,-0.27516 -0.08467,-0.14817 0.02117,-0.254 0.253998,-0.254 0.338664,0 0.275164,0.21167 -0.275165,1.12183 -0.402164,0.61382 -0.8043274,1.16415 -0.9313266,1.20649 -0.1269989,0.0635 -0.2328314,0.21166 -0.2328314,0.38099 0,0.14817 -0.3386643,0.8255 -0.7408278,1.48166 l -0.7619945,1.22766 -0.169332,11.70508 c -0.1058325,7.70461 -0.084666,11.70508 0.084666,11.70508 0.1481656,0 0.2751648,-0.40217 0.2751648,-0.91016 0,-0.762 0.1481656,-1.01599 1.1218249,-1.65099 0.7619946,-0.52916 1.1641576,-0.99483 1.2488236,-1.52399 0.105833,-0.635 0.317498,-0.82549 1.015993,-0.95249 0.48683,-0.10583 1.015992,-0.3175 1.185325,-0.48683 0.148165,-0.14817 0.592662,-0.29633 0.973659,-0.29633 0.550329,0 0.825494,0.254 1.2488239,1.05832 0.48683,0.889 0.507996,1.016 0.126999,0.889 -0.359831,-0.10584 -0.359831,-0.0635 0.02117,0.16933 0.275165,0.16933 0.656162,0.254 0.867827,0.16933 0.211666,-0.0847 0.380998,-0.0212 0.380998,0.10583 0,0.14817 0.126999,0.254 0.275164,0.254 0.169332,0 0.211665,-0.10583 0.148166,-0.23283 -0.08467,-0.127 0.126999,-0.29633 0.465663,-0.381 0.994826,-0.254 1.375823,-1.24882 0.973659,-2.64581 -0.169332,-0.65616 -0.253998,-1.43933 -0.148165,-1.75682 0.359831,-1.143 2.624647,-1.41816 4.444967,-0.52916 2.201317,1.07949 3.831138,0.46566 3.513641,-1.29116 -0.296331,-1.67216 -0.423331,-1.86266 -1.629822,-2.68815 -0.677328,-0.46566 -1.100658,-0.95249 -0.994826,-1.10066 0.105833,-0.1905 0.0635,-0.21166 -0.126999,-0.10583 -0.444496,0.27516 -0.656161,-0.48683 -0.444496,-1.56632 0.126999,-0.6985 0.380997,-1.016 1.015992,-1.33349 0.761994,-0.35983 0.783161,-0.35983 0.338664,0 -0.380997,0.29633 -0.42333,0.40216 -0.148165,0.40216 0.42333,0 1.587488,-1.10066 1.566321,-1.48165 0,-0.127 -0.105832,-0.0635 -0.232831,0.14816 -0.148166,0.23283 -0.338664,0.3175 -0.42333,0.23283 -0.380998,-0.38099 1.185324,-0.95249 3.005645,-1.10066 2.095484,-0.14816 2.688145,-0.44449 2.688145,-1.35465 0,-0.65616 0.761995,-1.46049 1.354657,-1.46049 0.296333,0 0.296333,0.0423 -0.02117,0.27516 -0.380997,0.23284 -0.296331,0.23284 1.058325,0 0.0635,-0.0212 -0.0635,-0.127 -0.275164,-0.27516 -0.317497,-0.21167 -0.275164,-0.254 0.211667,-0.254 0.338664,-0.0212 0.550328,0.10583 0.444495,0.254 -0.08466,0.14816 0.148166,0.254 0.592664,0.23283 0.656161,0 0.677328,-0.0423 0.211664,-0.23283 -0.486831,-0.21167 -0.465664,-0.23283 0.169333,-0.254 0.402164,0 0.761995,0.127 0.846659,0.3175 0.105833,0.254 0.127,0.254 0.148166,0 0.02117,-0.1905 0.232831,-0.33867 0.507995,-0.33867 0.613831,0 1.248825,-0.69849 1.481656,-1.67215 0.127,-0.61383 0.02117,-0.84666 -0.634995,-1.43932 -1.015992,-0.889 -1.015992,-1.16416 0.0635,-2.05315 0.486831,-0.40217 0.634995,-0.635 0.359831,-0.52917 -0.423331,0.127 -0.444497,0.0847 -0.169333,-0.23283 0.169333,-0.21166 0.444497,-0.381 0.592664,-0.33866 0.126997,0.0212 0.423331,-0.46567 0.613828,-1.10066 0.190497,-0.65616 0.507997,-1.26999 0.698495,-1.39699 0.275164,-0.16933 0.253997,-0.21167 -0.04233,-0.23283 -0.35983,0 -0.35983,-0.0212 0,-0.254 0.507998,-0.33867 1.121826,-0.33867 0.910162,0 -0.08467,0.14816 0.02117,0.1905 0.253997,0.10583 0.232831,-0.0847 0.338664,-0.27516 0.253997,-0.42333 -0.105833,-0.16933 0.148167,-0.21166 0.719662,-0.0847 0.656161,0.12699 0.783161,0.0847 0.507997,-0.10584 -0.359831,-0.254 -0.359831,-0.27516 0,-0.31749 0.211664,-0.0212 0.486828,-0.0212 0.613828,0 0.105833,0.0212 0.127,-0.0847 0.04233,-0.23284 -0.08467,-0.14816 -0.04233,-0.27516 0.105834,-0.27516 0.16933,0 0.29633,-0.16933 0.29633,-0.381 0,-0.23283 0.08467,-0.40216 0.190498,-0.381 0.486831,0.0847 0.867828,-0.0423 0.867828,-0.27516 0,-0.14817 -0.211667,-0.1905 -0.465664,-0.0847 -0.402164,0.14817 -0.423331,0.10584 -0.105833,-0.27516 0.1905,-0.23283 0.465664,-0.381 0.571497,-0.3175 0.126997,0.0847 0.296331,0.0212 0.380997,-0.127 0.105831,-0.14816 0.296331,-0.27516 0.465662,-0.27516 0.169333,0 0.0635,0.1905 -0.211664,0.40216 -0.613828,0.46566 -0.380998,0.508 0.529164,0.0847 0.35983,-0.14817 0.592661,-0.42333 0.486828,-0.5715 -0.08467,-0.14816 0,-0.1905 0.253997,-0.10583 0.423331,0.16933 1.587489,-0.78316 2.370651,-1.92615 0.29633,-0.40217 0.402164,-0.46567 0.29633,-0.16934 -0.148166,0.42333 -0.0635,0.46567 0.465664,0.3175 0.359831,-0.127 0.825493,-0.3175 1.037159,-0.46566 0.296331,-0.1905 0.253998,-0.21167 -0.1905,-0.10583 -0.338664,0.0635 -0.550328,0.0212 -0.465661,-0.0847 0.0635,-0.127 0.888992,-0.14816 1.82032,-0.0847 1.545153,0.127 1.75682,0.0847 2.243648,-0.48682 1.39699,-1.58749 2.180151,-2.28599 3.598307,-3.28081 0.931328,-0.635 2.095484,-1.79916 2.942145,-2.92098 1.52399,-2.07432 2.031985,-2.47648 3.852305,-3.09031 1.164158,-0.40217 1.545156,-0.381 1.545156,0.0635 0,0.33866 -1.94732,2.09548 -2.476482,2.26481 -0.35983,0.127 -0.402164,0.23283 -0.169333,0.381 0.254,0.14817 0.254,0.3175 0.02117,0.76199 -0.169331,0.29634 -0.423331,0.55033 -0.550328,0.55033 -0.423331,0 -0.296331,-0.46566 0.190497,-0.76199 0.275164,-0.14817 0.338664,-0.27517 0.148167,-0.27517 -0.486831,-0.0212 -1.926154,1.62983 -1.799154,2.03199 0.0635,0.16933 -0.04233,0.254 -0.253997,0.16933 -0.232834,-0.0847 -0.338667,0.0212 -0.296334,0.33867 0.105834,0.61382 -0.380997,1.41815 -0.846658,1.41815 -0.550331,0 -1.121826,0.67733 -0.825495,0.97366 0.169333,0.16933 -0.148167,0.61383 -0.931325,1.24883 -0.656164,0.55033 -1.206492,0.91016 -1.206492,0.82549 0,-0.23283 1.164158,-1.33349 1.439322,-1.33349 0.127,0 0.296331,-0.14817 0.338664,-0.33866 0.402164,-1.143 -2.370648,1.16415 -3.090309,2.58231 -1.312326,2.60348 -1.799154,3.15381 -2.815146,3.17498 -0.3175,0 -0.867828,0.25399 -1.248825,0.55033 -0.571495,0.44449 -0.698495,0.78316 -0.698495,1.69332 0,1.26999 -0.35983,1.58748 -1.75682,1.48165 -1.418156,-0.0847 -2.815145,0.67733 -3.386643,1.84149 -0.35983,0.74083 -0.423328,1.14299 -0.211664,1.37582 0.148167,0.1905 0.275164,0.46566 0.253998,0.61383 0,0.127 0.42333,0.46566 0.952494,0.71966 0.846659,0.40217 0.931326,0.55033 0.698495,0.99483 -0.148167,0.27516 -0.804328,0.74083 -1.481656,1.03716 -0.656161,0.29633 -1.545156,0.88899 -1.94732,1.33349 -0.677328,0.71966 -0.719662,0.88899 -0.507995,2.01082 0.275164,1.48165 0.190497,1.62982 -0.931328,1.84148 -0.719661,0.127 -0.867825,0.27517 -0.761995,0.67733 0.08467,0.27516 0.232834,0.508 0.380998,0.508 0.127,0 0.232833,0.10583 0.232833,0.254 0,0.14816 -0.719661,0.27516 -1.608656,0.27516 -1.291156,0 -1.672153,0.10583 -2.031984,0.57149 -1.037159,1.24883 -1.39699,1.52399 -1.82032,1.35466 -0.296331,-0.10583 -0.380998,-0.0635 -0.275164,0.10583 0.08467,0.16934 -0.105834,0.35983 -0.423331,0.4445 -0.867828,0.23283 -1.185325,0.1905 -0.719661,-0.10583 0.317497,-0.21167 0.275164,-0.254 -0.190498,-0.254 -1.142992,0 -1.269992,0.1905 -1.227658,1.86265 0.04233,1.31233 -0.02117,1.58749 -0.338664,1.46049 -0.232831,-0.0847 -0.317498,-0.0212 -0.232831,0.10583 0.08466,0.14817 0.317497,0.27517 0.507995,0.27517 0.1905,0 0.507997,0.21166 0.719661,0.46566 0.317497,0.42333 0.317497,0.42333 -0.105833,0.0847 -0.550328,-0.42333 -0.867826,-0.23283 -0.550328,0.33866 0.211664,0.40217 0.29633,0.42333 0.973658,0.42333 0.211667,0 0.359831,0.3175 0.380998,0.78316 0.02117,0.5715 -0.211664,0.97366 -0.783162,1.46049 -0.423328,0.381 -0.867825,0.67733 -0.973658,0.67733 -0.08467,0 -0.402164,0.35983 -0.698495,0.78316 -0.465664,0.6985 -1.46049,1.46049 -1.079492,0.8255 0.08467,-0.127 0,-0.29634 -0.169331,-0.381 -0.1905,-0.0635 -0.08467,-0.14817 0.232831,-0.14817 0.317497,-0.0212 0.656161,-0.127 0.740828,-0.27516 0.08467,-0.14817 -0.232833,-0.127 -0.783162,0.0212 -0.507997,0.14817 -1.037158,0.1905 -1.142992,0.127 -0.126997,-0.0635 -0.571494,0.16934 -0.994825,0.52917 -0.423331,0.35983 -0.634995,0.59266 -0.444497,0.50799 0.529164,-0.27516 0.656161,0.48683 0.211666,1.33349 -0.232833,0.42333 -0.402164,0.91016 -0.402164,1.07949 0,0.52917 -1.121825,1.143 -2.095485,1.143 -0.507996,0 -1.545155,-0.1905 -2.328316,-0.4445 -1.82032,-0.5715 -2.624647,-0.29633 -3.386642,1.12182 -0.42333,0.762 -0.973659,1.24883 -2.010818,1.75682 -1.735654,0.86783 -2.645814,0.93133 -3.280809,0.21167 z m 1.375823,0.10583 c -0.08467,-0.0847 -0.317497,-0.0847 -0.507996,-0.0212 -0.211665,0.0847 -0.148166,0.14817 0.169332,0.16934 0.275165,0 0.42333,-0.0635 0.338664,-0.14817 z m -3.7041389,-2.11665 c -0.08467,-0.0847 -0.317498,-0.0847 -0.507996,-0.0212 -0.211665,0.0847 -0.148166,0.14817 0.169332,0.16934 0.275164,0 0.42333,-0.0635 0.338664,-0.14817 z m 13.3560679,-1.48166 c 0.232831,-0.10583 0.486829,-0.0423 0.550329,0.127 0.0635,0.1905 0.380997,0.0212 0.825495,-0.40216 0.402164,-0.40216 0.634994,-0.84666 0.550328,-1.01599 -0.105834,-0.16933 -0.296331,-0.0423 -0.486828,0.3175 -0.169334,0.31749 -0.529164,0.61383 -0.825495,0.63499 -0.952493,0.0847 -1.735654,0.42333 -1.566322,0.71966 0.105832,0.14817 0.232831,0.16934 0.338664,0.0212 0.08467,-0.14817 0.359831,-0.3175 0.613829,-0.40217 z m -9.567263,-1.88381 c 0,-0.0635 -0.253998,-0.16934 -0.529163,-0.254 -0.296331,-0.0635 -0.465663,-0.0212 -0.380997,0.10583 0.127,0.23283 0.91016,0.33866 0.91016,0.14817 z m -2.1801499,-2.39182 c -0.190499,-0.21166 -0.444497,-0.3175 -0.571496,-0.23283 -0.126999,0.0847 -0.0635,0.23283 0.126999,0.35983 0.571496,0.35983 0.8254939,0.27516 0.444497,-0.127 z M 27.118871,261.0432 c 0,-0.14816 -0.04233,-0.27516 -0.105833,-0.27516 -0.0635,0 -0.190498,0.127 -0.296331,0.27516 -0.08466,0.14817 -0.02117,0.254 0.127,0.254 0.148166,0 0.275164,-0.10583 0.275164,-0.254 z m 2.391815,-1.35466 c 0,-0.14816 -0.126998,-0.19049 -0.275164,-0.10583 -0.148164,0.0847 -0.253998,0.27517 -0.253998,0.42333 0,0.14817 0.105834,0.1905 0.253998,0.10583 0.148166,-0.0847 0.275164,-0.27516 0.275164,-0.42333 z m -1.079492,-5.48212 c -0.02116,-0.35983 -0.0635,-0.33867 -0.253998,0.0847 -0.126997,0.31749 -0.23283,0.38099 -0.253997,0.14816 0,-0.1905 -0.08467,-0.29633 -0.169333,-0.21166 -0.232831,0.23283 0.169333,0.76199 0.444497,0.59266 0.127,-0.0847 0.232831,-0.35983 0.232831,-0.61383 z m 1.926153,-1.54516 c -0.169331,-0.0635 -0.465664,-0.0635 -0.656161,0 -0.1905,0.0847 -0.04233,0.127 0.338664,0.127 0.35983,0 0.507997,-0.0423 0.317497,-0.127 z m 2.412982,-0.99482 c 0.105833,-0.254 0.02117,-0.33867 -0.232831,-0.23283 -0.211664,0.0635 -0.317498,0.23283 -0.232831,0.38099 0.190497,0.3175 0.296331,0.29633 0.465662,-0.14816 z m -13.927563,-0.74083 c -0.08467,-0.1905 -0.148166,-0.14817 -0.169332,0.16933 0,0.27517 0.04233,0.4445 0.148165,0.33867 0.08467,-0.0847 0.08467,-0.29634 0.02117,-0.508 z m 15.959549,-1.41816 c 0,-0.0635 -0.254,-0.10583 -0.529164,-0.10583 -0.29633,0 -0.529161,0.10583 -0.529161,0.23283 0,0.127 0.232831,0.1905 0.529161,0.10583 0.275164,-0.0847 0.529164,-0.19049 0.529164,-0.23283 z m 20.129349,-23.60066 c 0.338664,-0.40216 0.317498,-0.42333 -0.10583,-0.0847 -0.423331,0.33866 -0.571498,0.55033 -0.359831,0.55033 0.0635,0 0.275164,-0.21167 0.465661,-0.46567 z m -30.077608,37.1049 c 0.08466,-0.23283 0.148164,-0.52917 0.148164,-0.65617 0,-0.127 0.1905,-0.16933 0.402164,-0.0847 0.507997,0.1905 0.507997,0.78316 -0.02117,0.99482 -0.634994,0.23284 -0.719661,0.1905 -0.529161,-0.25399 z m 4.212135,-9.24977 c 0,-0.21166 0.08466,-0.40216 0.211664,-0.40216 0.127,0 0.232831,0.127 0.232831,0.25399 0,0.14817 -0.105831,0.3175 -0.232831,0.381 -0.127,0.0847 -0.211664,-0.0212 -0.211664,-0.23283 z m 8.106772,-3.15381 c 0,-0.0423 0.190498,-0.16933 0.402164,-0.254 0.211664,-0.0847 0.402164,-0.0212 0.402164,0.10584 0,0.14816 -0.1905,0.254 -0.402164,0.254 -0.211666,0 -0.402164,-0.0423 -0.402164,-0.10584 z m -0.253997,-0.67733 c 0,-0.14816 0.105831,-0.27516 0.253997,-0.27516 0.148167,0 0.275164,0.127 0.275164,0.27516 0,0.14817 -0.126997,0.254 -0.275164,0.254 -0.148166,0 -0.253997,-0.10583 -0.253997,-0.254 z m 2.264815,-0.76199 c -0.126997,-0.1905 -0.148164,-0.40216 -0.04233,-0.48683 0.232831,-0.254 0.486828,0.10583 0.359831,0.48683 -0.08467,0.27516 -0.148167,0.27516 -0.317501,0 z M 38.65462,247.5813 c -0.169334,-0.27516 -0.105834,-1.65099 0.0635,-1.48166 0.148164,0.127 0.275164,1.71449 0.16933,1.71449 -0.0635,0 -0.16933,-0.10583 -0.23283,-0.23283 z m 0.507994,-1.88382 c 0.08467,-0.14816 0.211667,-0.27516 0.275167,-0.27516 0.0635,0 0.126997,0.127 0.126997,0.27516 0,0.14817 -0.126997,0.254 -0.29633,0.254 -0.148164,0 -0.190498,-0.10583 -0.105834,-0.254 z m 0.846662,-0.29633 c 0.1905,-0.1905 0.402164,-0.27517 0.48683,-0.1905 0.08466,0.0847 -0.0635,0.23283 -0.338664,0.33867 -0.380997,0.14816 -0.402164,0.10583 -0.148166,-0.14817 z m 1.142992,-0.508 c 0,-0.14816 0.16933,-0.25399 0.380997,-0.25399 0.232831,0 0.402164,0.0423 0.402164,0.10583 0,0.0423 -0.169333,0.16933 -0.402164,0.254 -0.211667,0.0847 -0.380997,0.0423 -0.380997,-0.10584 z m 1.481656,-0.82549 c 0.275164,-0.381 0.550328,-0.65616 0.613828,-0.59266 0.0635,0.0635 -0.169334,0.38099 -0.507998,0.69849 l -0.613828,0.59266 z M 31.881336,242.7765 c -0.211666,-0.127 -0.275164,-0.254 -0.127,-0.254 0.148167,0 0.444498,0.127 0.656162,0.254 0.211666,0.14817 0.275166,0.254 0.127,0.254 -0.148167,0 -0.444498,-0.10583 -0.656162,-0.254 z m -1.100658,-0.71966 c -0.317498,-0.42333 -0.317498,-0.42333 0.105833,-0.10583 0.444495,0.35983 0.592661,0.57149 0.359831,0.57149 -0.04233,0 -0.254,-0.21166 -0.465664,-0.46566 z m 10.837254,-0.50799 c 0.190497,-0.0847 0.423328,-0.0635 0.507994,0.0212 0.08467,0.0847 -0.0635,0.14817 -0.338664,0.127 -0.317497,0 -0.380997,-0.0635 -0.16933,-0.14816 z M 1.6132271,239.72853 c -0.2539982,-0.65617 -0.169332,-0.8255 0.1481656,-0.29634 0.1481653,0.254 0.211665,0.52917 0.1481653,0.61383 -0.063499,0.0635 -0.1904984,-0.0847 -0.2963309,-0.31749 z m 3.0903103,-1.46049 c 0.1481656,-0.5715 0.3174976,-0.99483 0.3809973,-0.93133 0.169332,0.16933 -0.1904986,1.71449 -0.4444968,1.86265 -0.1269989,0.0847 -0.084666,-0.33866 0.063499,-0.93132 z m 38.8828786,0.63499 c 0.275164,-0.0635 0.613828,-0.0635 0.804328,0 0.169331,0.0847 -0.04233,0.127 -0.465664,0.127 -0.444498,0 -0.592662,-0.0635 -0.338664,-0.127 z m 1.481656,-0.27516 c 0.190497,-0.0635 0.423331,-0.0635 0.507995,0.0212 0.08467,0.0847 -0.08466,0.14817 -0.359828,0.14817 -0.296334,-0.0212 -0.359831,-0.0847 -0.148167,-0.16933 z M 0.68190057,237.46371 c -0.1481656,-0.46566 -0.2328317,-0.88899 -0.1904987,-0.95249 0.0635,-0.0635 0.2539982,0.27516 0.4021638,0.74082 0.16933203,0.46567 0.25399813,0.91016 0.19049873,0.9525 -0.042333,0.0635 -0.23283183,-0.27517 -0.40216383,-0.74083 z M 33.257159,236.57472 c 0.169334,-0.381 0.359831,-0.61383 0.423331,-0.55033 0.169331,0.16933 -0.232833,1.20649 -0.486831,1.20649 -0.126997,0 -0.105833,-0.29633 0.0635,-0.65616 z M 5.5713641,235.89739 c 0.211665,-0.71966 0.338664,-0.93133 0.48683,-0.762 0.0635,0.0635 -0.0635,0.40217 -0.275165,0.762 l -0.380997,0.67733 z m 40.3645329,0.127 c 0,-0.3175 0.0635,-0.381 0.148167,-0.16934 0.08467,0.1905 0.0635,0.42333 -0.02117,0.508 -0.08467,0.0847 -0.148164,-0.0635 -0.127,-0.33866 z m 3.365476,-2.41299 c 0.1905,-0.0847 0.423331,-0.0635 0.507998,0.0212 0.08466,0.0847 -0.08467,0.14817 -0.359831,0.127 -0.296333,0 -0.359831,-0.0635 -0.148167,-0.14817 z m 10.37159,-11.85324 c 0.613828,-0.84666 1.058326,-1.26999 1.185326,-1.14299 0.0635,0.0635 -0.254,0.46566 -0.719662,0.88899 -0.465664,0.42333 -0.677328,0.52916 -0.465664,0.254 z m 1.608656,-2.34948 c -0.232833,-0.29634 -0.211666,-0.40217 0.08467,-0.52917 0.211666,-0.0847 0.48683,-0.0212 0.571497,0.14817 0.126997,0.1905 0.0635,0.21166 -0.169333,0.0635 -0.253998,-0.14817 -0.296331,-0.0847 -0.169331,0.23283 0.211664,0.52916 0.08466,0.5715 -0.317498,0.0847 z"
         id="path22" />
      <path
         inkscape:connector-curvature="0"
         style="fill:#00ccff;fill-opacity:1;fill-rule:nonzero;stroke:none;stroke-width:0.26458332"
         d="m 13.339473,268.87481 c -0.0635,-0.0635 -0.634995,-0.14817 -1.291157,-0.1905 -0.656162,-0.0423 -1.566322,-0.27516 -1.989652,-0.50799 -0.4444959,-0.23284 -0.9524929,-0.381 -1.1641579,-0.3175 -0.211665,0.0847 -0.296331,0 -0.190498,-0.14817 0.08467,-0.14817 -0.275165,-0.4445 -0.825494,-0.65616 -0.952493,-0.381 -0.994826,-0.35983 -2.264817,0.52916 -1.5663214,1.10066 -3.0903103,1.46049 -3.0903103,0.71966 0,-0.27516 0.2539982,-0.76199 0.5714958,-1.10066 0.3386643,-0.35983 0.5714958,-0.97365 0.5926624,-1.50282 0,-0.50799 0.1058326,-0.84666 0.2116651,-0.78316 0.1058326,0.0635 0.2116651,-0.0635 0.2116651,-0.29633 0,-0.254 0.084666,-0.381 0.2116651,-0.29633 0.3174976,0.1905 1.9049858,-1.33349 1.9049858,-1.84149 0,-0.50799 1.058326,-0.91016 2.391816,-0.91016 0.867826,0 1.100658,0.10584 1.354656,0.65616 0.1693319,0.35984 0.3809969,0.65617 0.5079959,0.65617 0.105833,0 0.275165,0.254 0.359831,0.52916 0.105833,0.29633 0.359831,0.52916 0.592663,0.52916 0.465663,0 2.201316,-1.22765 2.137817,-1.52399 -0.02117,-0.10583 0.0635,-0.40216 0.169332,-0.65616 0.126999,-0.254 0.148166,-0.76199 0.08467,-1.10066 -0.0635,-0.40216 0,-0.59266 0.190499,-0.50799 0.190498,0.0635 0.253998,-0.254 0.190498,-0.99483 -0.08467,-0.74083 -0.190498,-0.97366 -0.338664,-0.74083 -0.190498,0.29633 -0.232832,0.27517 -0.232832,-0.0847 0,-0.29633 0.190499,-0.46566 0.529163,-0.46566 0.275165,0 0.529163,-0.127 0.529163,-0.27517 0,-0.14817 0.190499,-0.127 0.507996,0.0635 0.380998,0.23283 0.656162,0.23283 1.206491,0 0.613829,-0.29633 0.761995,-0.254 1.33349,0.381 0.359831,0.38099 0.656162,0.57149 0.656162,0.40216 0,-0.16933 0.169332,-0.23283 0.380997,-0.14817 0.232832,0.0847 0.338665,0.23284 0.275165,0.33867 -0.0635,0.10583 0.275165,0.14816 0.740828,0.0847 1.121825,-0.16933 2.095485,-1.29115 1.735654,-1.96848 -0.148166,-0.27517 -0.211665,-0.65616 -0.148166,-0.84666 0.08467,-0.1905 0,-0.508 -0.169332,-0.67733 -0.232831,-0.27516 -0.232831,-0.29633 0.02117,-0.16933 0.190499,0.127 0.338665,0.0423 0.338665,-0.1905 0,-0.21166 -0.190499,-0.4445 -0.42333,-0.52916 -0.232832,-0.10583 -0.338665,-0.0635 -0.253999,0.0847 0.08467,0.14817 -0.232831,0 -0.740827,-0.31749 -0.698495,-0.46567 -0.804328,-0.635 -0.48683,-0.762 0.35983,-0.127 0.317497,-0.21166 -0.169332,-0.48683 -1.037159,-0.55033 -0.698495,-1.86265 0.804327,-3.19614 0.698495,-0.59266 1.206491,-1.18533 1.164158,-1.26999 -0.0635,-0.10584 0.190499,-0.1905 0.592662,-0.1905 0.380997,0 1.291158,-0.10583 2.01082,-0.21167 0.931325,-0.12699 1.206489,-0.10583 0.931325,0.0847 -0.338664,0.23283 -0.338664,0.254 0.0635,0.27516 0.275164,0 0.465664,-0.21166 0.465664,-0.46566 0,-0.40216 0.04233,-0.40216 0.275164,-0.0635 0.169331,0.29633 0.253997,0.0847 0.253997,-0.74083 0,-0.61383 0.08467,-1.12182 0.1905,-1.14299 0.126998,0 0.444495,-0.0635 0.740828,-0.127 0.296331,-0.0635 1.185323,-0.14816 2.010818,-0.23283 2.010817,-0.14816 2.815145,-0.381 2.984479,-0.84666 0.08466,-0.21166 0.29633,-0.29633 0.465661,-0.1905 0.1905,0.10584 0.232833,0.0635 0.127,-0.127 -0.105833,-0.16933 -0.08467,-0.29633 0.0635,-0.29633 0.148164,0 0.211664,-0.44449 0.169331,-0.97366 -0.04233,-0.69849 -0.275164,-1.12182 -0.761995,-1.48165 -0.380997,-0.27517 -0.698495,-0.635 -0.698495,-0.80433 0,-0.16933 0.465664,-0.76199 1.037159,-1.29116 0.677331,-0.63499 1.121826,-1.31232 1.227659,-1.90498 0.211664,-1.16416 0.719661,-1.60866 2.243651,-2.01082 1.227656,-0.33867 2.11665,-0.93133 2.11665,-1.43932 0,-0.16934 0.634995,-0.65617 1.418157,-1.0795 0.804328,-0.42333 1.396989,-0.86782 1.312322,-0.97366 -0.0635,-0.12699 0.04233,-0.14816 0.232831,-0.0635 0.1905,0.0635 0.825495,-0.27517 1.396992,-0.762 1.185323,-0.99483 2.222482,-1.39699 4.360299,-1.65099 1.587489,-0.1905 2.031987,-0.42333 2.709315,-1.48165 0.253997,-0.40217 1.269989,-1.24883 2.264815,-1.92615 1.926153,-1.29116 2.793981,-2.15899 3.280809,-3.21731 0.169333,-0.33867 0.402164,-0.635 0.529164,-0.635 0.105831,0 0.211664,-0.127 0.211664,-0.27516 0,-0.55033 1.926154,-2.03199 3.174976,-2.43415 0.719662,-0.23283 1.375823,-0.33867 1.439323,-0.23283 0.211667,0.35983 -0.634995,1.33349 -2.053151,2.39181 -0.761994,0.55033 -1.799153,1.58749 -2.30715,2.28598 -0.952493,1.31233 -2.222482,2.66698 -4.233302,4.4873 -0.656161,0.59267 -1.523987,1.79916 -1.968484,2.64582 -0.867828,1.75682 -1.566323,2.49765 -2.412982,2.49765 -0.3175,0 -0.867828,0.25399 -1.248825,0.55033 -0.571495,0.44449 -0.698495,0.78316 -0.698495,1.69332 v 1.14299 l -1.396989,0.16933 c -2.222484,0.29633 -3.534807,0.99483 -3.873471,2.07432 -0.423331,1.24882 -0.02117,2.15898 1.164159,2.73048 0.867825,0.40216 0.910158,0.48683 0.592661,0.97366 -0.1905,0.29633 -0.825495,0.71966 -1.396989,0.93132 -0.571498,0.23284 -1.439323,0.8255 -1.926154,1.33349 -0.740828,0.78316 -0.846659,1.05833 -0.677328,1.75682 0.444497,1.96849 0.1905,2.18015 -2.582315,2.24365 -1.058325,0 -1.587486,0.14817 -1.904984,0.508 -0.254,0.254 -0.35983,0.5715 -0.254,0.6985 0.127,0.127 0.08467,0.14816 -0.0635,0.0635 -0.148167,-0.0847 -0.719662,0.29633 -1.269992,0.84665 -0.698495,0.6985 -1.33349,1.05833 -2.053151,1.18533 -1.88382,0.29633 -2.645815,1.88382 -1.714487,3.64064 0.634995,1.22766 0.783159,2.75165 0.296331,3.17498 -0.232833,0.19049 -0.910161,0.80432 -1.502823,1.33349 -0.592661,0.55033 -1.227659,0.99482 -1.396989,0.99482 -0.825495,0 -2.476482,1.94732 -2.328318,2.70932 0.105834,0.48683 -1.164156,0.78316 -2.688145,0.63499 -0.888994,-0.0847 -1.947319,-0.16933 -2.349483,-0.16933 -0.402164,0.0212 -0.719661,-0.10583 -0.719661,-0.23283 0,-0.127 -0.359831,-0.0635 -0.804328,0.14816 -0.444496,0.23283 -0.78316,0.61383 -0.78316,0.88899 0,0.254 -0.148166,0.55034 -0.338665,0.635 -0.190498,0.0847 -0.04233,0.0847 0.338665,0 0.444496,-0.127 0.571495,-0.0847 0.380997,0.10583 -0.148166,0.14817 -0.423331,0.3175 -0.613829,0.35983 -0.48683,0.10584 -1.629821,1.143 -1.629821,1.43933 0,0.127 0.126999,0.0635 0.296331,-0.16933 0.211665,-0.29634 0.317497,-0.3175 0.402164,-0.0635 0.08466,0.19049 0.275164,0.25399 0.42333,0.16933 0.169332,-0.10583 0.211665,-0.0635 0.08467,0.127 -0.105833,0.16933 -0.275165,0.25399 -0.402164,0.16933 -0.126999,-0.0847 -0.317498,-0.0212 -0.402164,0.127 -0.169332,0.27516 -0.740827,0.35983 -0.952493,0.16933 z m 1.079492,-3.61947 c -0.486829,-0.29633 -1.142991,-0.3175 -0.952493,-0.0423 0.0635,0.10584 0.402164,0.23283 0.740828,0.254 0.465663,0.0423 0.507997,0 0.211665,-0.21166 z m -11.8744115,1.18532 c 0,-0.3175 0.063499,-0.35983 0.1481656,-0.16933 0.084666,0.21166 0.063499,0.42333 -0.021167,0.508 -0.084666,0.10583 -0.1481657,-0.0635 -0.1269986,-0.33867 z M 16.09112,265.69983 c 0.126999,-0.42333 0.634995,-0.48683 0.783161,-0.10583 0.08467,0.23283 -0.0635,0.35983 -0.359831,0.35983 -0.296331,0 -0.465663,-0.10583 -0.42333,-0.254 z m 2.624647,-0.0635 c -0.296331,-0.29633 -0.253998,-0.35983 0.190499,-0.35983 0.296331,0 0.550329,0.10584 0.550329,0.254 0,0.42333 -0.402164,0.48683 -0.740828,0.10583 z M 2.5233868,261.57236 c 0,-0.14816 0.1058326,-0.27516 0.2539982,-0.27516 0.1481656,0 0.2751645,0.127 0.2751645,0.27516 0,0.14817 -0.1269989,0.254 -0.2751645,0.254 -0.1481656,0 -0.2539982,-0.10583 -0.2539982,-0.254 z m 10.9642522,-2.39181 c -0.08467,-0.14817 -0.02117,-0.254 0.126999,-0.254 0.148166,0 0.275165,0.10583 0.275165,0.254 0,0.14816 -0.04233,0.27516 -0.105833,0.27516 -0.0635,0 -0.190499,-0.127 -0.296331,-0.27516 z M 3.0102167,258.33389 c -0.1481656,-0.29633 -0.1269992,-1.26999 0.042333,-1.26999 0.1058329,0 0.1904987,0.29633 0.1904987,0.67733 0,0.55032 -0.1058325,0.82549 -0.2328317,0.59266 z m 12.4035743,-0.91016 c 0.190499,-0.0635 0.48683,-0.0635 0.656162,0 0.190499,0.0847 0.04233,0.127 -0.317497,0.127 -0.380998,0 -0.529163,-0.0423 -0.338665,-0.127 z M 2.777385,256.4289 c 0,-0.23283 0.1269992,-0.42333 0.2751645,-0.42333 0.1269993,0 0.2539982,0.127 0.2539982,0.254 0,0.14817 -0.1269989,0.3175 -0.2539982,0.42333 -0.1481653,0.0847 -0.2751645,-0.0212 -0.2751645,-0.254 z m 0.063499,-3.74647 c -0.021166,-1.69332 0.042333,-3.00565 0.1481656,-2.89981 0.2539981,0.25399 0.2963312,5.29162 0.063499,5.69379 -0.1058325,0.16933 -0.211665,-1.07949 -0.2116646,-2.79398 z m 30.289274,-1.46049 c 0.1905,-0.1905 0.402164,-0.27516 0.486832,-0.1905 0.08467,0.0847 -0.0635,0.23283 -0.338665,0.33867 -0.380997,0.14816 -0.402163,0.10583 -0.148167,-0.14817 z M 2.8408845,247.03097 c -0.042333,-0.86783 0.042333,-1.62982 0.1904986,-1.73565 0.1904987,-0.10584 0.2751646,0.44449 0.2751646,1.56632 0,2.15898 -0.3809971,2.30715 -0.4656632,0.16933 z m 0.021167,-3.04798 c 0,-0.23283 0.1058326,-0.40216 0.2328315,-0.40216 0.1058326,0 0.2116651,0.16933 0.2116651,0.40216 0,0.21167 -0.1058325,0.381 -0.2116651,0.381 -0.1269989,0 -0.2328315,-0.16933 -0.2328315,-0.381 z m -0.8466603,-2.94214 c 0,-0.3175 0.0635,-0.35983 0.1481654,-0.16933 0.084666,0.21166 0.0635,0.42333 -0.021166,0.50799 -0.084666,0.10584 -0.1481656,-0.0635 -0.1269994,-0.33866 z m -0.698495,-8.42427 c -0.61382883,-0.1905 -1.35465663,-0.23283 -1.77798673,-0.127 -0.4444969,0.127 -0.67732827,0.10583 -0.59266247,-0.0423 0.084666,-0.127 -0.1269989,-0.254 -0.4656632,-0.254 -0.338664,0 -0.7408277,-0.10583 -0.8678268,-0.254 -0.1481655,-0.127 -0.6561618,-0.27516 -1.121825,-0.3175 -0.4656632,-0.0423 -0.8889934,-0.21166 -0.952493,-0.38099 -0.2116651,-0.52917 2.2859831,-2.96332 3.89463787,-3.80998 1.2488241,-0.63499 1.88381933,-0.78316 3.23847603,-0.78316 0.9313264,0 1.6933209,0.0847 1.6933209,0.1905 0,0.10583 0.4656632,0.21167 1.0159923,0.23283 0.550329,0.0212 1.375823,0.23283 1.820319,0.46567 0.931327,0.48683 2.9844779,2.53998 2.9844779,2.98447 0,0.16934 0.148166,0.35983 0.338664,0.4445 0.55033,0.1905 -0.6561609,0.95249 -1.3123229,0.80433 -0.296331,-0.0847 -0.804327,-0.0212 -1.100659,0.14816 -0.35983,0.1905 -0.592662,0.1905 -0.698494,0.0212 -0.211666,-0.33866 -1.545156,-0.10583 -3.0056443,0.55033 -1.3334902,0.57149 -1.6086547,0.59266 -3.0903106,0.127 z m 7.7469419,0.0847 c 0.169332,-0.19049 0.380998,-0.27516 0.465664,-0.19049 0.08467,0.0847 -0.0635,0.23283 -0.317498,0.33866 -0.380997,0.14817 -0.402164,0.10583 -0.148166,-0.14817 z"
         id="path24" />
      <path
         inkscape:connector-curvature="0"
         style="fill:#006680;fill-opacity:1;fill-rule:nonzero;stroke:none;stroke-width:0.26458332"
         d="m 2.777385,268.28215 c 0,-0.21167 0.2328317,-0.635 0.5291627,-0.9525 0.2963312,-0.31749 0.529163,-0.86782 0.529163,-1.22765 0,-0.42333 0.4021634,-1.016 1.1853243,-1.73566 0.6349951,-0.59266 1.2911571,-1.39699 1.4181561,-1.77798 0.211665,-0.52917 0.507996,-0.71967 1.354657,-0.84666 1.142991,-0.1905 2.116651,0.12699 2.137817,0.69849 0.02117,0.6985 1.2911569,1.77799 2.1166509,1.77799 0.444497,0 0.740828,-0.10584 0.677329,-0.23284 -0.08467,-0.14816 0.253998,-0.65616 0.761994,-1.16415 0.867827,-0.86783 0.931326,-1.03716 0.931326,-2.66698 0,-2.41298 0.275165,-2.51882 3.301976,-1.54516 1.439323,0.4445 1.968485,0.4445 3.132643,0 1.015993,-0.40216 1.291157,-1.22766 0.97366,-2.89981 -0.296331,-1.50282 -0.761995,-2.18015 -1.947319,-2.79398 -0.677328,-0.33866 -0.740828,-0.46566 -0.571496,-1.33349 0.126999,-0.65616 0.529163,-1.26999 1.291157,-1.94732 1.015993,-0.93132 1.206491,-1.01599 2.772814,-1.01599 2.031984,-0.0212 2.539981,-0.27517 3.196143,-1.56632 0.571495,-1.12183 1.079492,-1.35466 3.026809,-1.35466 3.026812,0 4.635466,-2.26482 2.815146,-3.9793 -0.444495,-0.40217 -0.783159,-0.8255 -0.783159,-0.93133 0,-0.10583 0.465661,-0.63499 1.037159,-1.16416 0.571495,-0.52916 1.100659,-1.31232 1.206489,-1.73565 0.275164,-1.31232 0.507998,-1.56632 2.074318,-2.11665 1.015994,-0.35983 1.735656,-0.80433 2.201317,-1.39699 0.359831,-0.48683 1.333492,-1.20649 2.158984,-1.62982 0.825495,-0.42333 1.968487,-1.12183 2.518815,-1.56632 1.185325,-0.93133 2.434148,-1.35466 4.106304,-1.35466 1.079492,0 1.291156,-0.127 2.391815,-1.33349 0.677328,-0.74083 1.904987,-1.77799 2.751646,-2.32832 1.523989,-1.01599 2.666981,-2.22248 3.894637,-4.08513 0.761995,-1.16416 2.285984,-2.26482 3.47131,-2.49765 1.185322,-0.23283 0.910158,0.3175 -0.888995,1.77798 -0.804328,0.65617 -1.989651,1.84149 -2.624645,2.62465 -1.227659,1.52399 -2.645815,3.00565 -4.296802,4.4873 -0.529164,0.48683 -1.269992,1.46049 -1.629823,2.13782 -0.931325,1.86265 -1.862653,2.83631 -2.857479,3.02681 -1.206492,0.23283 -1.968484,1.12183 -2.074317,2.41298 l -0.08467,1.05833 -1.333489,0.127 c -1.968487,0.21166 -3.21731,0.93132 -3.57714,2.03198 -0.465664,1.39699 -0.127,2.62465 0.804328,2.96331 1.121825,0.381 0.994825,1.016 -0.338664,1.58749 -0.613831,0.27517 -1.52399,0.86783 -2.01082,1.31232 -0.867826,0.8255 -0.888993,0.91017 -0.719662,2.28599 0.148167,1.39699 0.148167,1.46049 -0.507995,1.60865 -0.380997,0.10584 -1.185325,0.10584 -1.82032,0.0212 -1.291158,-0.16933 -1.904986,0.14817 -3.492473,1.88382 -0.571498,0.61383 -1.269992,1.16416 -1.566323,1.22766 -2.793979,0.52916 -3.682974,2.09548 -2.497648,4.38146 0.825495,1.65099 0.698495,2.34949 -0.698495,3.64064 -0.656161,0.61383 -1.375823,1.12183 -1.566323,1.12183 -0.571494,0 -1.968484,1.33349 -2.518814,2.41298 -0.275164,0.55033 -0.740828,1.12183 -0.994826,1.26999 -0.571495,0.3175 -1.904985,0.14817 -3.301975,-0.38099 -0.550329,-0.21167 -1.248824,-0.381 -1.545155,-0.381 -0.634996,0 -2.349483,1.60865 -2.349483,2.20132 0,0.52916 -1.862653,1.96848 -2.66698,2.05315 -0.740828,0.0847 -2.3494829,-0.48683 -2.3494829,-0.84667 0,-0.12699 -0.169332,-0.23283 -0.35983,-0.23283 -0.190499,0 -0.698495,-0.16933 -1.121826,-0.38099 -1.248824,-0.61383 -1.502822,-0.5715 -2.836312,0.33866 -1.587488,1.07949 -2.8363121,1.50282 -2.8363121,0.93133 z m 12.107244,-2.92098 c 0.04233,-0.16933 -0.232832,-0.381 -0.656162,-0.46566 -0.402164,-0.10584 -0.825494,-0.33867 -0.931327,-0.508 -0.105832,-0.1905 -0.190498,-0.0635 -0.190498,0.29633 0,0.86783 1.523988,1.43932 1.777987,0.67733 z M 1.5920604,232.68008 c -0.4444966,-0.14817 -1.46048923,-0.29633 -2.24365003,-0.35983 -0.80432727,-0.0423 -1.50282207,-0.21167 -1.54515517,-0.381 -0.063499,-0.14817 -0.4021637,-0.27516 -0.8043273,-0.27516 -0.3809972,0 -0.8466605,-0.10584 -1.0371591,-0.21167 -0.3598306,-0.23283 -0.1693321,-1.10066 0.2328316,-1.10066 0.1269991,0 0.2116652,-0.10583 0.1693321,-0.254 -0.1058325,-0.40216 1.862653,-2.05315 3.30197547,-2.77281 1.037159,-0.508 1.77798713,-0.67733 3.02681113,-0.67733 0.9313262,0 1.6721543,0.10584 1.6721543,0.254 0,0.14817 0.169332,0.1905 0.380997,0.10583 0.7408277,-0.27516 3.0268107,0.6985 3.9793037,1.71449 0.507996,0.52916 0.931327,1.07949 0.97366,1.22766 0.02117,0.14816 0.211665,0.42333 0.4021629,0.61383 0.444497,0.44449 0.444497,0.84666 0.02117,0.86782 -0.1904989,0 -0.5714959,0.0635 -0.8678269,0.127 -0.275165,0.0635 -1.185325,0.16933 -1.968485,0.21167 -0.804328,0.0423 -1.9473195,0.29633 -2.5188153,0.55033 -1.3546566,0.57149 -2.1801502,0.65616 -3.1749764,0.35983 z"
         id="path26" />
      <path
         inkscape:connector-curvature="0"
         style="fill:#0000ff;fill-opacity:1;fill-rule:nonzero;stroke:none;stroke-width:0.26458332"
         d="m 12.048316,267.39315 c 0,-0.14816 0.126999,-0.27516 0.275165,-0.27516 0.148166,0 0.211665,0.127 0.105832,0.27516 -0.08467,0.14817 -0.211665,0.254 -0.275164,0.254 -0.0635,0 -0.105833,-0.10583 -0.105833,-0.254 z m -8.4666035,-0.10583 c 0,-0.0423 0.169332,-0.254 0.3809971,-0.42333 0.3386643,-0.27516 0.4021638,-0.254 0.4021638,0.10583 0,0.23283 -0.1693323,0.42333 -0.4021638,0.42333 -0.2116651,0 -0.3809971,-0.0423 -0.3809971,-0.10583 z m 1.8414866,-0.4445 c 0,-0.12699 0.126999,-0.25399 0.275164,-0.25399 0.126999,0 0.253998,-0.10584 0.253998,-0.254 0,-0.127 -0.169332,-0.1905 -0.35983,-0.10583 -0.2116654,0.0847 -0.4444969,0.0212 -0.529163,-0.10584 -0.084666,-0.14816 0.1269992,-0.3175 0.48683,-0.381 0.550329,-0.10583 0.677328,-0.0212 0.677328,0.46567 0,0.3175 -0.190499,0.65616 -0.402164,0.74083 -0.211665,0.0847 -0.402163,0.0423 -0.402163,-0.10584 z m 4.360301,0.0212 c -0.08467,-0.14816 -0.02117,-0.27516 0.126999,-0.27516 0.1481649,0 0.2751639,0.127 0.2751639,0.27516 0,0.14817 -0.04233,0.254 -0.105832,0.254 -0.0635,0 -0.1904989,-0.10583 -0.2963309,-0.254 z m 2.1378169,-0.59266 c 0.08467,-0.21167 -0.08467,-0.381 -0.402164,-0.40217 -0.296331,-0.0212 -0.529162,0.0847 -0.529162,0.21167 0,0.14817 -0.190499,0.254 -0.402164,0.254 -0.211665,0 -0.402164,-0.1905 -0.402164,-0.40217 0,-0.46566 -0.4444959,-0.52916 -0.5926619,-0.10583 -0.04233,0.1905 -0.317498,0.23283 -0.677328,0.127 -0.48683,-0.14817 -0.550329,-0.27516 -0.296331,-0.57149 0.169332,-0.1905 0.232831,-0.55033 0.148165,-0.762 -0.232831,-0.59266 -0.952493,-0.48683 -0.952493,0.127 0,0.29633 -0.126999,0.52916 -0.275164,0.52916 -0.126999,0 -0.169332,-0.1905 -0.08467,-0.40216 0.105832,-0.27516 -0.04233,-0.40216 -0.48683,-0.42333 -0.444497,-0.0212 -0.48683,-0.0635 -0.148166,-0.14817 0.253998,-0.0635 0.402164,-0.254 0.296332,-0.38099 -0.211666,-0.35983 -0.888994,0.25399 -0.740828,0.65616 0.211665,0.55033 -0.55033,0.99482 -1.312324,0.80433 -0.9101598,-0.21167 -0.867827,-0.52917 0.084666,-1.03716 0.444497,-0.21167 0.994826,-0.78316 1.227658,-1.26999 0.571495,-1.0795 0.804327,-1.22766 2.031985,-1.22766 0.719661,-0.0212 1.058325,0.127 1.164158,0.44449 0.105832,0.254 0.5503289,0.84667 0.9948259,1.33349 0.656161,0.6985 0.952492,0.8255 1.545155,0.6985 0.634995,-0.127 0.719661,-0.0635 0.719661,0.508 0,0.52916 0.169332,0.67732 0.931327,0.82549 1.206491,0.23283 0.952493,0.635 -0.380998,0.635 -0.571495,-0.0212 -1.164158,0.0635 -1.312323,0.14816 -0.169332,0.10583 -0.232832,0.0423 -0.148166,-0.16933 z m -4.3814669,-3.09031 c 0,-0.14817 0.211665,-0.29633 0.465663,-0.381 0.253998,-0.0635 0.08467,-0.127 -0.380997,-0.14816 -0.656162,-0.0212 -0.825494,0.0635 -0.698495,0.38099 0.148165,0.42333 0.613829,0.52917 0.613829,0.14817 z m 0.698494,1.90498 c -0.232831,-0.23283 -0.211665,-0.61382 0.0635,-0.61382 0.105833,0 0.211665,0.1905 0.211665,0.40216 0,0.4445 -0.02117,0.46566 -0.275165,0.21166 z m 5.2069619,-0.71966 c -0.253998,-0.29633 -0.253998,-0.40216 0,-0.50799 0.169332,-0.0635 0.08467,-0.14817 -0.190499,-0.14817 -0.42333,-0.0212 -0.402163,-0.0847 0.190499,-0.55033 0.84666,-0.67733 1.33349,-2.13781 1.164158,-3.45014 -0.0635,-0.55033 0,-1.12182 0.148166,-1.29116 0.486829,-0.46566 1.69332,-0.33866 3.111477,0.33867 0.719661,0.35983 1.375823,0.52916 1.460489,0.40216 0.08467,-0.127 0.486829,-0.23283 0.91016,-0.23283 1.015992,0 1.862652,-1.07949 1.862652,-2.41298 0,-0.99483 -0.698494,-2.83632 -1.206491,-3.21731 -0.169332,-0.127 -0.169332,-0.1905 0,-0.1905 0.148166,-0.0212 -0.105832,-0.1905 -0.592662,-0.40216 -1.26999,-0.55033 -1.164158,-1.50283 0.275165,-2.85748 1.058325,-0.99483 1.248824,-1.05833 3.132644,-1.22766 2.180151,-0.16933 2.730479,-0.4445 3.005643,-1.54516 0.232833,-0.95249 0.550331,-1.10065 2.264817,-1.12182 2.603482,-0.0212 4.762466,-1.50282 4.381469,-3.00565 -0.08467,-0.35983 -0.465664,-1.01599 -0.846662,-1.48165 l -0.698495,-0.82549 0.973659,-0.9525 c 0.529164,-0.55033 1.015992,-1.26999 1.100659,-1.65099 0.317497,-1.52398 0.571497,-1.79915 1.904987,-2.11665 0.973658,-0.23283 1.587486,-0.61383 2.412981,-1.48165 0.613828,-0.65616 1.629823,-1.39699 2.243651,-1.67216 0.613828,-0.27516 1.545156,-0.86782 2.053151,-1.31232 1.142992,-1.01599 1.75682,-1.24882 3.788804,-1.48166 2.243651,-0.25399 2.434151,-0.33866 3.047979,-1.33349 0.29633,-0.50799 1.354656,-1.43932 2.328315,-2.07431 0.973661,-0.65617 1.989653,-1.41816 2.264817,-1.73566 0.275164,-0.29633 0.634995,-0.48683 0.783161,-0.38099 0.148164,0.0847 0.190498,0.0423 0.08467,-0.127 -0.211667,-0.35983 1.947318,-3.28081 2.96331,-3.97931 0.825494,-0.59266 2.158984,-0.95249 2.158984,-0.61383 0,0.14817 -0.444495,0.635 -0.994826,1.0795 -1.82032,1.54515 -2.963312,2.73048 -3.809971,3.95813 -0.465664,0.67733 -1.650989,1.92616 -2.645814,2.77282 -1.26999,1.10065 -2.095484,2.09548 -2.751646,3.32314 -1.100659,1.98965 -1.82032,2.62465 -3.111476,2.73048 -0.507997,0.0423 -0.867828,0.10583 -0.825495,0.16933 0.0635,0.0635 -0.04233,0.29633 -0.253997,0.52916 -0.211667,0.23283 -0.423331,0.91016 -0.465664,1.48166 -0.08467,1.05832 -0.08467,1.05832 -1.206492,1.05832 -0.634995,0 -1.121826,0.0847 -1.121826,0.1905 0,0.127 -0.148164,0.21167 -0.29633,0.21167 -0.169331,0 -0.232831,-0.1905 -0.126998,-0.46567 0.148164,-0.35983 0.105831,-0.40216 -0.127,-0.14816 -0.169333,0.16933 -0.507997,0.254 -0.740828,0.1905 -0.402164,-0.127 -0.402164,-0.10584 0,0.1905 0.380998,0.29633 0.317498,0.40216 -0.613828,1.07949 -0.571497,0.42333 -0.973661,0.86782 -0.888994,0.99482 0.08467,0.127 0.02117,0.3175 -0.126998,0.40217 -0.783161,0.48683 0.105831,2.62464 1.164156,2.81514 0.275167,0.0635 0.571498,0.27517 0.613831,0.48683 0.105831,0.33867 0.08466,0.33867 -0.148167,0.0212 -0.211664,-0.29633 -0.380997,-0.3175 -1.079492,-0.0212 -0.592661,0.254 -0.910158,0.254 -1.164158,0.0423 -0.253998,-0.21167 -0.465662,-0.21167 -0.804326,0.0423 -0.402164,0.27516 -0.380997,0.3175 0.232831,0.381 0.359831,0.0423 0.867828,0.0847 1.121825,0.10583 0.253998,0.0212 0.698495,-0.0635 0.973659,-0.16933 0.338664,-0.14817 0.444497,-0.127 0.338664,0.0635 -0.105833,0.14816 -0.486831,0.35983 -0.846661,0.44449 -0.359831,0.0847 -1.037159,0.52917 -1.50282,0.99483 -0.867829,0.82549 -1.65099,2.62465 -1.269993,2.85748 0.380998,0.254 0.402164,1.14299 0.02117,1.26999 -0.232831,0.0847 -0.296331,0.0212 -0.190497,-0.16933 0.126997,-0.1905 0.04233,-0.23284 -0.232834,-0.127 -0.211664,0.0847 -0.402161,0.23283 -0.402161,0.33866 0,0.0847 -0.677331,0.10583 -1.523989,0 -0.825495,-0.0847 -1.58749,-0.127 -1.69332,-0.0847 -0.105834,0.0635 -0.254,-0.0212 -0.359831,-0.14817 -0.08467,-0.14817 -0.359831,-0.27517 -0.613831,-0.254 -0.317497,0 -0.275164,0.0847 0.148167,0.254 0.338664,0.127 0.613828,0.33866 0.613828,0.46566 0,0.381 -0.698495,0.86783 -0.931326,0.635 -0.127,-0.10583 -0.148166,-0.0423 -0.04233,0.127 0.105833,0.16933 -0.1905,0.69849 -0.677328,1.18532 -0.465664,0.48683 -0.761995,0.65616 -0.677328,0.42333 0.126997,-0.33866 0.04233,-0.48683 -0.275167,-0.48683 -0.275164,-0.0212 -0.211664,-0.10583 0.211667,-0.25399 0.444497,-0.127 0.507995,-0.21167 0.190497,-0.23284 -0.634994,-0.0423 -0.571494,-0.46566 0.127,-0.63499 0.317498,-0.0847 0.529162,-0.23283 0.444498,-0.3175 -0.296334,-0.29633 -1.545156,0.48683 -1.545156,0.95249 0,0.254 -0.190498,0.635 -0.402164,0.84666 -0.211664,0.21167 -0.296331,0.48683 -0.190498,0.59266 0.105831,0.10584 0.04233,0.127 -0.148166,0.0212 -0.423331,-0.254 -0.402164,-0.29633 0.105833,-0.80433 0.423331,-0.44449 0.338664,-1.20649 -0.148167,-1.20649 -0.148164,0 -0.190497,0.16933 -0.126997,0.381 0.08466,0.21167 -0.04233,0.59266 -0.275167,0.82549 -0.253997,0.254 -0.380997,0.61383 -0.29633,0.80433 0.0635,0.21167 0.02117,0.35983 -0.127,0.35983 -0.126998,0 -0.253998,0.16934 -0.253998,0.381 0,0.1905 -0.16933,0.508 -0.402164,0.67733 -0.507994,0.42333 -0.507994,2.28598 0,3.17497 0.529164,0.91016 0.507998,1.03716 -0.190497,0.86783 -0.592662,-0.127 -0.592662,-0.127 -0.0635,0.3175 0.529164,0.4445 0.529164,0.4445 -0.02117,0.33866 -0.275164,-0.0635 -0.677328,0.0635 -0.867825,0.254 -0.507998,0.52916 -0.127,0.78316 0.529161,0.381 0.465664,-0.29633 0.592662,-0.29633 0.783162,0 0.338664,0.52916 0.29633,0.67733 -0.232831,0.86783 -0.232833,0.10583 -0.486831,0.0635 -0.550331,-0.0847 -0.04233,-0.16933 -0.190497,-0.29633 -0.317497,-0.29633 -0.127,0 -0.169334,0.16933 -0.105834,0.381 0.211667,0.50799 -1.269989,0.69849 -1.714486,0.21166 -0.253998,-0.27516 -0.423331,-0.29633 -0.634995,-0.0635 -0.1905,0.1905 -0.211667,0.35983 -0.04233,0.48683 0.148166,0.10583 0.29633,0.42333 0.338664,0.71966 0.0635,0.48683 0.04233,0.48683 -0.444498,-0.0635 -0.465661,-0.55033 -0.529161,-0.57149 -0.867825,-0.14816 -0.296333,0.381 -0.296333,0.40216 0.105831,0.254 0.48683,-0.16934 0.571497,0.0212 0.317497,0.71966 -0.105831,0.23283 -0.338664,0.42333 -0.550328,0.42333 -0.232831,0 -0.359831,0.23283 -0.317497,0.59266 0.08467,1.01599 -0.02117,1.52399 -0.338664,1.52399 -0.169334,0 -0.232831,-0.27517 -0.169334,-0.635 0.08467,-0.48683 0.02117,-0.59266 -0.35983,-0.48683 -0.275164,0.0635 -0.42333,0.23283 -0.338664,0.35983 0.08467,0.127 0.04233,0.21167 -0.0635,0.16933 -0.126999,-0.0212 -0.48683,0.0847 -0.804328,0.27517 -0.465663,0.254 -0.656162,0.23283 -1.015992,-0.127 -0.317498,-0.3175 -0.507996,-0.33866 -0.719661,-0.127 -0.402164,0.40216 -0.634996,0.381 -0.825494,-0.0847 -0.08467,-0.23284 -0.02117,-0.33867 0.211665,-0.254 0.190498,0.0847 0.42333,-0.0423 0.507996,-0.27517 0.08467,-0.21166 0.359831,-0.40216 0.634995,-0.42333 0.423331,0 0.423331,-0.0212 -0.04233,-0.29633 -0.35983,-0.21166 -0.529162,-0.1905 -0.698494,0.0635 -0.275165,0.46567 -1.312324,0.59266 -1.312324,0.1905 -0.02117,-0.1905 -0.190499,-0.10583 -0.402164,0.16933 -0.571495,0.74083 -1.142991,0.74083 -1.545155,-0.0212 -0.317498,-0.635 -0.380997,-0.635 -0.783161,-0.23284 -0.253998,0.254 -0.444497,0.5715 -0.444497,0.74083 0,0.16933 0.148166,0.0847 0.338665,-0.16933 0.317497,-0.4445 0.35983,-0.4445 0.804327,0.0423 0.402164,0.4445 0.402164,0.55033 0.08467,0.8255 -0.275165,0.21166 -0.444497,0.23283 -0.550329,0.0423 -0.105833,-0.16933 -0.296331,-0.21167 -0.423331,-0.127 -0.402163,0.23283 -0.296331,0.59266 0.211666,0.71966 0.253998,0.0635 0.105832,0.127 -0.338664,0.14817 -0.423331,0 -0.931327,-0.14817 -1.100659,-0.33867 z m 8.487771,-2.11665 c 0.719662,-0.16933 0.952492,-0.67733 0.338664,-0.67733 -0.55033,0 -2.116651,1.50283 -1.714488,1.65099 0.190499,0.0635 0.423331,-0.0847 0.529163,-0.33866 0.08467,-0.254 0.48683,-0.52917 0.846661,-0.635 z m -5.143462,-0.29633 c -0.169332,-0.21166 -0.380998,-0.33866 -0.444497,-0.27516 -0.190499,0.19049 0.190498,0.67732 0.507996,0.67732 0.169332,0 0.148166,-0.14816 -0.0635,-0.40216 z m 6.900282,-2.24365 c 0,-0.14816 -0.0635,-0.254 -0.127,-0.254 -0.0635,0 -0.190497,0.10584 -0.275164,0.254 -0.08467,0.14817 -0.04233,0.27517 0.105834,0.27517 0.16933,0 0.29633,-0.127 0.29633,-0.27517 z m 2.434148,-0.42333 c -0.169333,-0.0847 -0.465664,-0.0847 -0.656161,0 -0.1905,0.0635 -0.04233,0.127 0.338664,0.127 0.359831,0 0.507995,-0.0635 0.317497,-0.127 z m 0.740828,-1.94735 c 0.402165,-0.42333 0.423331,-0.52916 0.127,-0.52916 -0.211666,0 -0.402164,0.10583 -0.402164,0.254 0,0.14816 -0.169333,0.27516 -0.402164,0.27516 -0.211666,0 -0.380997,0.10583 -0.380997,0.254 0,0.4445 0.486828,0.3175 1.058325,-0.254 z m -0.529164,-0.65616 c 0,-0.0635 -0.126997,-0.1905 -0.275164,-0.27516 -0.148164,-0.0847 -0.253997,-0.0423 -0.253997,0.12699 0,0.14817 0.105833,0.27517 0.253997,0.27517 0.148167,0 0.275164,-0.0635 0.275164,-0.127 z m -0.931325,-3.04798 c 0.08467,-0.14816 -0.02117,-0.1905 -0.253997,-0.10583 -0.465664,0.16933 -0.550331,0.35983 -0.169334,0.35983 0.148167,0 0.338664,-0.10583 0.423331,-0.254 z m 1.375823,0.10583 c -0.08467,-0.0847 -0.317498,-0.10583 -0.507995,-0.0212 -0.211667,0.0847 -0.148167,0.14816 0.169331,0.14816 0.275164,0.0212 0.42333,-0.0423 0.338664,-0.127 z m 1.015992,-1.10065 c -0.08466,-0.10584 -0.359831,0.0423 -0.613828,0.31749 -0.444498,0.4445 -0.423331,0.46567 0.169333,0.14817 0.338664,-0.16933 0.529162,-0.381 0.444495,-0.46566 z m -6.752116,-0.3175 c 0,-0.127 -0.126999,-0.3175 -0.275165,-0.40217 -0.148165,-0.10583 -0.253998,0.0212 -0.253998,0.23284 0,0.23283 0.105833,0.42333 0.253998,0.42333 0.148166,0 0.275165,-0.10583 0.275165,-0.254 z m -0.08467,-1.50282 c -0.08467,-0.0847 -0.317498,-0.0847 -0.507996,-0.0212 -0.211665,0.0847 -0.148166,0.14817 0.169332,0.16933 0.275164,0 0.42333,-0.0635 0.338664,-0.14816 z m 7.344779,-0.635 c 0.105834,-0.14817 0.04233,-0.254 -0.105833,-0.254 -0.148164,0 -0.275164,0.10583 -0.275164,0.254 0,0.14817 0.04233,0.27517 0.105833,0.27517 0.0635,0 0.190498,-0.127 0.275164,-0.27517 z m -0.29633,-0.93132 c 0.10583,-0.23284 0.0635,-0.33867 -0.105834,-0.254 -0.127,0.0847 -0.253997,0.27516 -0.253997,0.42333 0,0.38099 0.190497,0.29633 0.359831,-0.16933 z m 1.100658,-0.127 c -0.08467,-0.14817 -0.3175,-0.254 -0.48683,-0.254 -0.1905,0 -0.148167,0.10583 0.08467,0.254 0.507995,0.33866 0.592662,0.33866 0.402164,0 z m -2.412984,-0.381 c 0.08467,-0.23283 0.04233,-0.40217 -0.08466,-0.40217 -0.127,0 -0.296333,0.16934 -0.380997,0.40217 -0.08467,0.21166 -0.04233,0.381 0.08466,0.381 0.127,0 0.296333,-0.16934 0.380997,-0.381 z m 3.34431,-0.10583 c 0,-0.127 -0.211664,-0.3175 -0.444498,-0.40217 -0.35983,-0.14816 -0.380997,-0.10583 -0.10583,0.23283 0.380994,0.4445 0.550328,0.508 0.550328,0.16934 z m 5.143463,-1.10066 c -0.08467,-0.14817 -0.275167,-0.254 -0.423331,-0.254 -0.148167,0 -0.1905,0.10583 -0.105833,0.254 0.105833,0.14816 0.29633,0.27516 0.444497,0.27516 0.126997,0 0.190497,-0.127 0.08467,-0.27516 z m 1.460489,-0.381 c 0,-0.46566 -0.148167,-0.67733 -0.486831,-0.67733 -0.253997,0 -0.48683,0.1905 -0.48683,0.40217 0,0.21166 0.169333,0.40216 0.380997,0.40216 0.1905,0 0.296331,0.10583 0.1905,0.254 -0.08467,0.14816 -0.02117,0.27516 0.126997,0.27516 0.148167,0 0.275167,-0.29633 0.275167,-0.65616 z m -5.418627,-0.127 c -0.08467,-0.14816 -0.275167,-0.27516 -0.423331,-0.27516 -0.148166,0 -0.105833,0.16933 0.08467,0.35983 0.380997,0.42333 0.613828,0.35983 0.338664,-0.0847 z m 1.015992,-0.16933 c 0.105833,-0.23283 0.0635,-0.33867 -0.105833,-0.23283 -0.127,0.0847 -0.253998,0.27516 -0.253998,0.40216 0,0.381 0.190498,0.29633 0.359831,-0.16933 z m 4.677799,-0.91016 c 0,-0.14817 -0.1905,-0.254 -0.402164,-0.254 -0.211667,0 -0.402164,0.10583 -0.402164,0.254 0,0.14816 0.190497,0.27516 0.402164,0.27516 0.211664,0 0.402164,-0.127 0.402164,-0.27516 z m 0.761995,-0.99483 c 0,-0.25399 -0.08467,-0.31749 -0.148167,-0.14816 -0.0635,0.16933 -0.359831,0.23283 -0.677328,0.14816 -0.380997,-0.0847 -0.486831,-0.0423 -0.359831,0.16933 0.296331,0.48684 1.206492,0.35984 1.185326,-0.16933 z m 1.164156,-1.12182 c -0.08466,-0.27517 -0.190497,-0.52916 -0.253997,-0.52916 -0.04233,0 -0.08467,0.25399 -0.08467,0.52916 0,0.29633 0.105833,0.52916 0.232833,0.52916 0.126998,0 0.169331,-0.23283 0.105831,-0.52916 z m -5.799622,-3.30198 c -0.08467,-0.21166 -0.1905,-0.40216 -0.232833,-0.40216 -0.04233,0 -0.148164,0.1905 -0.232831,0.40216 -0.08467,0.23283 0,0.40217 0.232831,0.40217 0.232833,0 0.317497,-0.16934 0.232833,-0.40217 z m 2.010818,-2.01082 c 0,-0.12699 0.23283,-0.23283 0.507997,-0.23283 0.253997,0 0.634995,-0.16933 0.804325,-0.38099 0.169334,-0.21167 0.486831,-0.3175 0.698495,-0.23284 0.254,0.0847 0.338664,0.0212 0.211667,-0.27516 -0.211667,-0.5715 -1.693323,-0.46566 -1.693323,0.14816 0,0.23284 -0.232831,0.508 -0.507995,0.59267 -0.275164,0.0847 -0.571497,0.33866 -0.634994,0.52916 -0.105834,0.254 -0.02117,0.33866 0.23283,0.23283 0.211664,-0.0847 0.380998,-0.254 0.380998,-0.381 z m 5.164627,-0.50799 c 0.211666,-0.3175 -0.148164,-0.3175 -0.656162,0 -0.35983,0.23283 -0.338664,0.254 0.04233,0.27516 0.253997,0 0.529164,-0.127 0.613828,-0.27516 z m -1.989651,-1.58749 c 0,-0.14817 -0.127,-0.254 -0.253998,-0.254 -0.148166,0 -0.275164,0.10583 -0.275164,0.254 0,0.14817 0.126998,0.27516 0.275164,0.27516 0.126998,0 0.253998,-0.12699 0.253998,-0.27516 z m 6.625119,0 c 0,-0.14817 -0.127,-0.254 -0.275167,-0.254 -0.148164,0 -0.253997,0.10583 -0.253997,0.254 0,0.14817 0.105833,0.27516 0.253997,0.27516 0.148167,0 0.275167,-0.12699 0.275167,-0.27516 z m -2.116654,-0.508 c 0,-0.14816 -0.190497,-0.19049 -0.402161,-0.10583 -0.232833,0.0847 -0.402164,0 -0.402164,-0.1905 0,-0.1905 -0.0635,-0.254 -0.148167,-0.16933 -0.253997,0.23283 0.127,0.71966 0.571498,0.71966 0.190497,0 0.380994,-0.127 0.380994,-0.254 z m -2.793978,-0.57149 c -0.08467,-0.10583 0.08467,-0.3175 0.338664,-0.48683 0.42333,-0.23283 0.402164,-0.254 -0.105831,-0.27517 -0.3175,0 -0.613831,0.1905 -0.677328,0.48683 -0.08467,0.27517 0,0.48683 0.211664,0.48683 0.190497,0 0.296331,-0.10583 0.232831,-0.21166 z m 4.910632,-0.889 c 0,-0.0635 -0.127,-0.19049 -0.275167,-0.27516 -0.148164,-0.0847 -0.253997,-0.0423 -0.253997,0.127 0,0.14816 0.105833,0.27516 0.253997,0.27516 0.148167,0 0.275167,-0.0635 0.275167,-0.127 z m -2.920979,-0.40216 c 0.656161,-0.40216 0.190497,-0.508 -0.656161,-0.127 -0.613831,0.27517 -0.677331,0.33867 -0.275167,0.35983 0.296331,0.0212 0.719661,-0.0847 0.931328,-0.23283 z m 5.418627,-1.24882 c 0.867825,-0.40217 1.058325,-0.74083 0.952492,-1.62982 -0.04233,-0.23284 0.08467,-0.3175 0.380997,-0.21167 0.253998,0.10583 0.359831,0.0635 0.253998,-0.10583 -0.105834,-0.16933 0.0635,-0.46567 0.380997,-0.67733 0.296331,-0.21167 0.550328,-0.52916 0.550328,-0.71966 -0.02116,-0.16933 -0.169331,-0.10583 -0.359831,0.14816 -0.16933,0.23284 -0.825492,0.635 -1.43932,0.889 -1.291158,0.50799 -1.418158,0.84666 -0.380997,0.95249 0.698495,0.0847 0.677328,0.10583 -0.571497,0.95249 -1.39699,0.91016 -1.291156,1.12183 0.232833,0.40217 z m -4.233304,-0.33867 c -0.08466,-0.14816 -0.296331,-0.27516 -0.465662,-0.254 -0.1905,0 -0.169333,0.10584 0.08466,0.254 0.507998,0.3175 0.592664,0.3175 0.380998,0 z m 2.815145,-0.86782 c -0.253997,-0.254 -0.29633,-0.23284 -0.148164,0.14816 0.105834,0.254 0.253998,0.40216 0.338664,0.3175 0.08467,-0.0635 0,-0.29633 -0.1905,-0.46566 z m 0.613831,-0.889 c 0.105831,-0.3175 0.04233,-0.381 -0.275164,-0.254 -0.211667,0.0847 -0.465664,0.14817 -0.529164,0.14817 -0.08467,0 -0.0635,0.127 0.02117,0.27516 0.253997,0.381 0.592661,0.3175 0.783161,-0.16933 z m 7.937442,-5.56679 c 0.126997,-0.35983 0.10583,-0.381 -0.232834,-0.0847 -0.465661,0.381 -0.507994,0.52917 -0.16933,0.52917 0.126997,0 0.29633,-0.1905 0.402164,-0.4445 z M 25.53138,261.02204 c 0.211664,-0.14817 0.634995,-0.381 0.931325,-0.52917 0.402164,-0.21166 0.402164,-0.16933 -0.105833,0.27517 -0.338664,0.29633 -0.761995,0.52916 -0.910159,0.52916 -0.169333,0 -0.127,-0.127 0.08467,-0.27516 z M 2.1847228,232.82824 c -0.2116651,-0.21166 -1.35465663,-0.42333 -2.81514573,-0.50799 -0.80432747,-0.0635 -1.50282227,-0.21167 -1.58748837,-0.33867 -0.084666,-0.127 -0.5503293,-0.31749 -1.0159925,-0.42333 -0.6138288,-0.14816 -0.8678269,-0.33866 -0.8678269,-0.69849 0,-0.27517 0.1269991,-0.508 0.2751646,-0.508 0.1269991,0 0.2539982,-0.14816 0.2539982,-0.3175 0,-0.29633 1.5451552,-1.79915 1.8626529,-1.79915 0.1058325,0 0.4444966,-0.23283 0.78316077,-0.52916 0.3386641,-0.29633 1.037159,-0.65616 1.5663217,-0.78316 1.26999053,-0.35983 3.72530593,-0.35983 3.72530593,0 0,0.14816 0.1269989,0.21166 0.2751645,0.10583 0.1481656,-0.0847 0.8889932,0.0212 1.6509882,0.254 0.994826,0.29633 1.714487,0.74083 2.539981,1.60865 0.634995,0.65616 1.058325,1.18533 0.952493,1.18533 -0.105833,0 0,0.25399 0.2751639,0.52916 0.253998,0.29633 0.42333,0.59266 0.359831,0.65616 -0.190498,0.1905 -1.9473189,0.4445 -3.5559739,0.52916 -0.719661,0.0423 -1.7144869,0.27517 -2.1801501,0.52917 -0.867827,0.44449 -2.2859831,0.74082 -2.4976482,0.50799 z"
         id="path28" />
      <path
         inkscape:connector-curvature="0"
         style="fill:#afe9dd;fill-opacity:1;fill-rule:nonzero;stroke:none;stroke-width:0.26458332"
         d="m 13.106642,265.80566 c 0,-0.33866 0.275164,-0.33866 0.783161,0 0.317497,0.21167 0.275164,0.254 -0.190499,0.254 -0.338664,0 -0.592662,-0.10583 -0.592662,-0.254 z m -1.672154,-0.16933 c 0.35983,-0.14816 0.465663,-0.88899 0.126998,-0.88899 -0.105832,0 -0.444496,0.16933 -0.761994,0.40216 -0.444497,0.29633 -0.592662,0.3175 -0.698495,0.0635 -0.1058319,-0.27516 -0.1481649,-0.27516 -0.1481649,0 -0.04233,0.381 -0.825494,0.4445 -0.825494,0.0423 0,-0.14817 0.169332,-0.33867 0.380997,-0.40217 0.5291629,-0.21166 0.7619939,-0.95249 0.359831,-1.20649 -0.169332,-0.10583 -0.253998,-0.27516 -0.148166,-0.381 0.253998,-0.23283 0.9948259,0.381 0.9948259,0.8255 0,0.21166 0.359831,0.3175 0.994826,0.29633 0.825494,-0.0423 0.994826,0.0423 0.994826,0.48683 0,0.29633 -0.148166,0.52916 -0.317498,0.52916 -0.169332,0 -0.402163,0.0847 -0.507996,0.1905 -0.105832,0.127 -0.317498,0.1905 -0.48683,0.1905 -0.148165,-0.0212 -0.126998,-0.0847 0.04233,-0.14817 z m -6.7944501,-0.84666 c 0,-0.14816 0.2328318,-0.33866 0.5079963,-0.44449 0.2963309,-0.0847 0.7619939,-0.46567 1.0583249,-0.84666 0.359831,-0.4445 0.55033,-0.55033 0.55033,-0.27517 0,0.21167 -0.190499,0.55033 -0.402164,0.71966 -0.211665,0.1905 -0.338664,0.4445 -0.253998,0.5715 0.08467,0.127 -0.02117,0.23283 -0.232832,0.23283 -0.232831,0 -0.592662,0.0635 -0.8254934,0.14817 -0.2328318,0.10583 -0.4021638,0.0423 -0.4021638,-0.10584 z m 9.1439321,-0.48683 c -0.253998,-0.63499 -0.0635,-0.67733 0.317498,-0.0847 0.169332,0.29633 0.211665,0.52916 0.08467,0.52916 -0.126999,0 -0.317498,-0.1905 -0.402164,-0.4445 z m -4.6777989,-0.29633 c -0.02117,-0.254 -0.02117,-0.55033 0,-0.65616 0,-0.10583 -0.190498,-0.1905 -0.444496,-0.21166 -0.338664,0 -0.296331,-0.0847 0.211665,-0.381 0.613828,-0.35983 0.571496,-0.381 -0.740828,-0.27517 -1.523989,0.127 -1.650988,-0.254 -0.190499,-0.52916 1.206491,-0.23283 1.650988,0.14817 1.650988,1.46049 0,1.03716 -0.42333,1.54516 -0.48683,0.59266 z m -1.079492,-0.50799 c 0.190499,-0.0635 0.42333,-0.0635 0.507997,0.0212 0.08467,0.0847 -0.08467,0.14817 -0.359831,0.14817 -0.296331,-0.0212 -0.359831,-0.0847 -0.148166,-0.16933 z m 5.9689559,-0.59267 c 0.232832,-0.35983 0.42333,-0.86782 0.42333,-1.12182 0,-0.3175 0.211665,-0.48683 0.571496,-0.48683 0.444497,0 0.48683,-0.0635 0.253998,-0.35983 -0.232831,-0.27517 -0.169332,-0.33867 0.359831,-0.23283 0.402164,0.0847 0.677328,0 0.677328,-0.16934 0,-0.14816 0.169332,-0.29633 0.402164,-0.29633 0.592662,0 0.338664,-0.55033 -0.359831,-0.82549 -0.465663,-0.16933 -0.571495,-0.10583 -0.571495,0.3175 0,0.27516 -0.127,0.50799 -0.275165,0.50799 -0.148166,0 -0.253998,-0.127 -0.253998,-0.27516 0,-0.14817 -0.126999,-0.21167 -0.275165,-0.10583 -0.148165,0.0847 -0.253998,0.0423 -0.253998,-0.10584 0,-0.14816 0.148165,-0.31749 0.317498,-0.38099 0.253998,-0.10583 0.232831,-0.21167 -0.0635,-0.42333 -0.35983,-0.254 -0.35983,-0.3175 0,-0.55033 0.211665,-0.14817 0.550329,-0.21167 0.740828,-0.127 0.211665,0.0635 0.592662,0.127 0.888993,0.127 0.275165,0 0.444497,0.10583 0.359831,0.25399 -0.08467,0.14817 0,0.1905 0.232832,0.10584 0.232831,-0.0847 0.740827,0.0212 1.142991,0.21166 0.740828,0.35983 1.481656,0.27517 2.899812,-0.38099 0.888993,-0.40217 1.185324,-2.28599 0.592662,-3.80998 -0.190498,-0.52916 -0.190498,-0.76199 0.02117,-0.82549 0.211664,-0.0847 0.211664,-0.21167 -0.02117,-0.48683 -0.232831,-0.27516 -0.232831,-0.35983 0.0635,-0.35983 0.296331,0 0.296331,-0.0423 0,-0.254 -0.296331,-0.16933 -0.275165,-0.27516 0.169331,-0.50799 0.402164,-0.23284 0.571497,-0.21167 0.677328,0.0423 0.1905,0.46566 0.698497,-0.29633 0.507997,-0.78316 -0.0635,-0.1905 0.02117,-0.35983 0.1905,-0.35983 0.359831,0 1.185323,-0.762 0.994826,-0.93133 -0.169334,-0.16933 -1.545156,0.42333 -2.01082,0.86783 -0.380998,0.38099 -0.486828,0.38099 -1.227657,0.0635 -0.48683,-0.21167 -0.48683,-0.23283 0.126999,-0.254 0.550329,-0.0212 0.592663,-0.0635 0.232832,-0.27516 -0.48683,-0.27517 -1.291157,-0.0847 -1.291157,0.29633 0,0.12699 -0.126999,0.23283 -0.253999,0.23283 -0.571495,0 -0.232831,-0.74083 0.380998,-0.889 0.380997,-0.10583 0.677328,-0.29633 0.677328,-0.44449 0,-0.14817 0.126999,-0.1905 0.296331,-0.0847 0.211665,0.127 0.253998,0.0423 0.148166,-0.254 -0.232832,-0.57149 0.910159,-1.05832 1.947317,-0.82549 0.402164,0.0847 1.164159,0.0423 1.693323,-0.10583 1.100659,-0.29634 1.142992,-0.254 0.338664,0.50799 -0.507997,0.46567 -0.529164,0.52916 -0.08467,0.35983 0.380998,-0.14816 0.444498,-0.10583 0.275164,0.14817 -0.126997,0.23283 -0.10583,0.29633 0.105834,0.16933 0.16933,-0.10583 0.23283,-0.3175 0.148166,-0.46566 -0.105833,-0.16933 0.0635,-0.23283 0.423328,-0.1905 0.338664,0.0635 0.656164,0.254 0.719662,0.42333 0.08467,0.23283 -0.04233,0.27516 -0.380998,0.14816 -0.423328,-0.16933 -0.444494,-0.12699 -0.08466,0.21167 0.211664,0.23283 0.634995,0.55033 0.931326,0.71966 0.465664,0.254 0.402164,0.27517 -0.338664,0.14817 -0.634995,-0.127 -0.888995,-0.0635 -1.015992,0.27516 -0.08467,0.23283 -0.317498,0.42333 -0.529164,0.42333 -0.211664,0 -0.359831,0.16933 -0.359831,0.40216 0,0.42334 0.423331,0.52917 0.571497,0.14817 0.04233,-0.127 0.317498,-0.27516 0.592662,-0.33866 0.35983,-0.0635 0.507997,0.10583 0.592661,0.61383 0.08467,0.57149 -0.0635,0.78316 -0.719661,1.12182 l -0.825492,0.42333 0.402164,-0.635 c 0.402161,-0.61382 0.402161,-0.63499 -0.232834,-0.52916 -0.35983,0.0635 -0.656161,0.0212 -0.656161,-0.127 0,-0.29633 -1.82032,0.0847 -2.201317,0.48683 -0.211664,0.21167 -0.105831,0.27517 0.35983,0.29633 0.507998,0 0.571498,0.0423 0.275164,0.23283 -0.338664,0.21167 -0.338664,0.3175 0.0635,0.762 0.444498,0.48683 0.550331,0.48683 1.841487,0.10583 0.740828,-0.21166 1.587489,-0.63499 1.862654,-0.95249 0.253997,-0.29633 0.402164,-0.381 0.275164,-0.16933 -0.338664,0.63499 -0.317498,1.39699 0.0635,2.51881 0.190497,0.5715 0.317497,1.07949 0.275164,1.12183 -0.04233,0.0423 -0.338664,-0.1905 -0.677328,-0.48683 -0.423331,-0.40217 -0.507995,-0.635 -0.275165,-0.762 0.211665,-0.127 0.211665,-0.254 0.04233,-0.38099 -0.148167,-0.0847 -0.380998,-0.0212 -0.507998,0.16933 -0.105833,0.1905 -0.444497,0.46566 -0.740828,0.63499 -0.275164,0.16934 -0.529161,0.48683 -0.529161,0.6985 0,0.23283 -0.08467,0.50799 -0.1905,0.61383 -0.105831,0.10583 -0.190497,0 -0.190497,-0.254 0,-0.40217 -0.0635,-0.40217 -0.677328,0 -0.359831,0.23283 -0.804328,0.35983 -1.015992,0.29633 -0.254,-0.10583 -0.3175,0.0423 -0.232834,0.48683 0.105834,0.52916 0.04233,0.61383 -0.317497,0.48683 -0.317497,-0.127 -0.486831,-0.0212 -0.592661,0.35983 -0.08467,0.35983 -0.296332,0.508 -0.571497,0.42333 -0.296331,-0.0847 -0.253998,-0.0212 0.08467,0.1905 0.783161,0.48683 1.354656,1.10066 1.545156,1.62982 0.169331,0.48683 -0.211667,0.88899 -0.486831,0.46566 -0.08467,-0.14816 -0.380997,-0.27516 -0.656161,-0.27516 -0.275165,0 -0.613829,-0.1905 -0.761995,-0.46566 -0.253998,-0.42334 -0.275164,-0.42334 -0.296331,0.0212 0,0.27517 -0.126999,0.40217 -0.296331,0.29633 -0.148165,-0.0847 -0.211665,-0.40216 -0.148165,-0.67733 0.08467,-0.27516 0.02117,-0.42333 -0.127,-0.31749 -0.148165,0.0847 -0.211665,0.44449 -0.148165,0.78316 0.0635,0.35983 0.02117,0.69849 -0.105832,0.78316 -0.127,0.0847 -0.232832,-0.10583 -0.232832,-0.40216 0,-0.33867 -0.169332,-0.55033 -0.465663,-0.52917 -0.359831,0 -0.380997,0.0423 -0.105833,0.21167 0.275165,0.16933 0.190499,0.254 -0.275164,0.35983 -0.825494,0.14816 -1.269991,-0.0212 -1.269991,-0.46566 0,-0.23284 0.275165,-0.381 0.677328,-0.381 0.465663,0 0.613829,-0.10584 0.48683,-0.33867 -0.126999,-0.19049 0,-0.14816 0.275165,0.0635 0.444496,0.35983 0.486829,0.35983 0.380997,0 -0.148166,-0.44449 -1.291157,-0.69849 -1.291157,-0.29633 0,0.14817 -0.253998,0.33867 -0.55033,0.4445 -0.317497,0.10583 -0.486829,0.3175 -0.402163,0.52916 0.08467,0.21167 0.04233,0.4445 -0.08467,0.508 -0.126999,0.0847 -0.296331,-0.0423 -0.402164,-0.29633 -0.126999,-0.35983 -0.253998,-0.33867 -0.804328,0.21166 -2.285983,2.18015 -2.349482,2.24365 -1.883819,1.56632 z m 9.524929,-7.53527 c -0.232831,-0.635 -0.888992,-0.74083 -0.888992,-0.14817 0,0.33866 0.169331,0.52916 0.507995,0.52916 0.338664,0 0.465664,-0.127 0.380997,-0.38099 z m -0.634995,-5.99013 c 0,-0.12699 -0.127,-0.25399 -0.253997,-0.25399 -0.148167,0 -0.275164,0.19049 -0.275164,0.42333 0,0.23283 0.126997,0.33866 0.275164,0.25399 0.126997,-0.10583 0.253997,-0.27516 0.253997,-0.42333 z M 20.51492,261.8052 c 0,-0.127 0.232832,-0.23284 0.529163,-0.23284 0.275165,0 0.529163,0.0423 0.529163,0.10584 0,0.0423 -0.253998,0.14816 -0.529163,0.23283 -0.296331,0.0847 -0.529163,0.0212 -0.529163,-0.10583 z m 2.116652,-2.20132 c 0,-0.23283 0.105831,-0.42333 0.253997,-0.42333 0.148167,0 0.275164,0.127 0.275164,0.254 0,0.14816 -0.126997,0.31749 -0.275164,0.42333 -0.148166,0.0847 -0.253997,-0.0212 -0.253997,-0.254 z m 2.772812,-1.20649 c 0.08467,-0.14817 0.275164,-0.27517 0.423331,-0.27517 0.148164,0 0.190497,0.127 0.10583,0.27517 -0.08466,0.14816 -0.29633,0.25399 -0.423328,0.25399 -0.148166,0 -0.1905,-0.10583 -0.105833,-0.25399 z m -0.973659,-0.1905 c 0.190498,-0.0635 0.423331,-0.0635 0.507995,0.0212 0.08467,0.0847 -0.08466,0.14816 -0.359831,0.14816 -0.29633,-0.0212 -0.35983,-0.0847 -0.148164,-0.16933 z m -0.08467,-5.10113 c 0.08467,-0.14817 0.211664,-0.27516 0.275164,-0.27516 0.0635,0 0.127,0.12699 0.127,0.27516 0,0.14816 -0.127,0.254 -0.296331,0.254 -0.148167,0 -0.1905,-0.10584 -0.105833,-0.254 z m 4.487299,-4.2333 c -0.08466,-0.14817 -0.04233,-0.27517 0.105833,-0.27517 0.148167,0 0.338664,0.127 0.423331,0.27517 0.105833,0.14816 0.04233,0.254 -0.08467,0.254 -0.148164,0 -0.338664,-0.10584 -0.444497,-0.254 z m -1.375823,-0.29633 c 0.634995,-0.35983 0.275164,-0.84666 -0.486828,-0.65617 -0.592664,0.14817 -0.592664,0.127 -0.338664,-0.63499 0.444495,-1.29116 1.904984,-1.77799 2.645812,-0.88899 0.317497,0.40216 0.296331,0.42333 -0.317497,0.27516 -1.100659,-0.27516 -1.418156,0.14817 -0.656162,0.86783 0.783162,0.74082 0.507995,1.33349 -0.613828,1.31232 -0.61383,0 -0.634997,-0.0423 -0.232833,-0.27516 z m 8.127939,0.0212 c 0,-0.14816 0.1905,-0.254 0.402164,-0.254 0.211667,0 0.402164,0.10584 0.402164,0.254 0,0.14817 -0.190497,0.27517 -0.402164,0.27517 -0.211664,0 -0.402164,-0.127 -0.402164,-0.27517 z m -1.312323,-0.27516 c 0,-0.14817 0.105834,-0.21167 0.253998,-0.10583 0.148166,0.0847 0.275166,0.21166 0.275166,0.27516 0,0.0635 -0.127,0.10583 -0.275166,0.10583 -0.148164,0 -0.253998,-0.127 -0.253998,-0.27516 z m -1.862653,-0.635 c 0,-0.23283 0.04233,-0.40216 0.105833,-0.40216 0.0635,0 0.169333,0.16933 0.253998,0.40216 0.08467,0.21167 0.04233,0.381 -0.105831,0.381 -0.127,0 -0.254,-0.16933 -0.254,-0.381 z m 0.275166,-1.20649 c -0.254,-0.14816 -0.275166,-0.254 -0.08467,-0.254 0.169331,0 0.380997,0.10584 0.465664,0.254 0.211664,0.33867 0.126997,0.33867 -0.380998,0 z m 1.841485,-0.52916 c 0,-0.27516 0.127,-0.52916 0.275166,-0.52916 0.126998,0 0.253998,0.254 0.253998,0.52916 0,0.29633 -0.127,0.52916 -0.253998,0.52916 -0.148166,0 -0.275166,-0.23283 -0.275166,-0.52916 z m -3.577141,-0.10583 c 0.444498,-0.1905 1.206492,-0.67733 1.693323,-1.0795 0.804326,-0.67732 0.867826,-0.84666 0.740828,-1.82032 -0.08467,-0.59266 -0.0635,-0.93132 0.04233,-0.76199 0.126997,0.1905 0.338664,0.21167 0.571494,0.0635 0.338664,-0.1905 0.338664,-0.33866 0.0635,-0.78316 -0.1905,-0.3175 -0.211666,-0.52916 -0.0635,-0.52916 0.148164,0 0.275164,0.10583 0.275164,0.25399 0,0.14817 0.232831,0.27517 0.529164,0.27517 0.275164,0 0.529162,0.127 0.529162,0.27516 0,0.16934 0.1905,0.16934 0.55033,-0.0212 0.402164,-0.21167 0.507995,-0.23283 0.380998,-0.0212 -0.105834,0.16933 0,0.29633 0.211664,0.29633 0.23283,0 0.35983,0.27517 0.35983,0.71966 0,0.40217 -0.0635,0.59267 -0.127,0.40217 -0.0635,-0.1905 -0.23283,-0.254 -0.402164,-0.14817 -0.16933,0.10583 -0.211664,0 -0.10583,-0.27516 0.08467,-0.23283 0.08467,-0.4445 -0.02117,-0.42333 -0.296331,0 -0.910161,0.42333 -0.867828,0.61383 0,0.0847 0,0.19049 0,0.23283 -0.02117,0.0423 -0.0635,0.33866 -0.105831,0.65616 -0.08467,0.80433 -0.380997,1.05832 -0.698497,0.59266 -0.211664,-0.29633 -0.232831,-0.23283 -0.105831,0.23283 0.126998,0.40217 0.08467,0.5715 -0.08467,0.46566 -0.148167,-0.0847 -0.338664,-0.0212 -0.402164,0.16934 -0.105834,0.254 -0.190498,0.254 -0.380998,0 -0.16933,-0.254 -0.444497,-0.16934 -1.121825,0.33866 -0.486828,0.35983 -1.20649,0.65616 -1.56632,0.635 -0.677328,0 -0.677328,0 0.10583,-0.35983 z m 3.577141,-2.64582 c 0,-0.0423 -0.169331,-0.16933 -0.402162,-0.254 -0.211666,-0.0847 -0.380997,-0.0212 -0.380997,0.10584 0,0.14816 0.169331,0.254 0.380997,0.254 0.232831,0 0.402162,-0.0423 0.402162,-0.10584 z m 1.058325,1.56632 v -0.52916 c 0,-0.44449 0.359831,-0.16933 0.444497,0.33867 0.04233,0.31749 -0.04233,0.59266 -0.16933,0.59266 -0.148167,0 -0.275167,-0.1905 -0.275167,-0.40217 z m 2.518815,-0.12699 c 0.08467,-0.14817 0.211666,-0.27517 0.275166,-0.27517 0.0635,0 0.126998,0.127 0.126998,0.27517 0,0.14816 -0.126998,0.25399 -0.296331,0.25399 -0.148164,0 -0.190497,-0.10583 -0.105833,-0.25399 z m -0.846659,-3.11148 c 0.126997,-0.65616 -0.296331,-1.12183 -0.571497,-0.65616 -0.126998,0.1905 -0.338664,0.14816 -0.698495,-0.0847 -0.465661,-0.35983 -0.444495,-0.381 0.402164,-0.42333 l 0.910161,-0.0212 -0.910161,-0.19049 c -1.142992,-0.21167 -1.82032,-0.0635 -1.291156,0.27516 0.253997,0.16933 0.211664,0.23283 -0.169333,0.23283 -0.296331,0 -0.719662,-0.127 -0.931326,-0.29633 -0.338664,-0.23283 -0.317497,-0.254 0.0635,-0.127 0.634995,0.21167 0.592662,-0.0212 -0.08467,-0.381 -0.444498,-0.23283 -0.634995,-0.16933 -1.164159,0.40217 -0.359831,0.35983 -0.698495,0.55033 -0.783162,0.42333 -0.08466,-0.14817 0.127,-0.4445 0.486831,-0.67733 0.846662,-0.5715 1.545156,-1.65099 1.545156,-2.41298 0,-0.80433 0.613828,-1.31233 1.989651,-1.67216 0.761995,-0.19049 1.481656,-0.67732 2.116651,-1.37582 0.550331,-0.5715 1.650989,-1.39699 2.476481,-1.82032 0.804328,-0.40216 1.841487,-1.05832 2.264818,-1.41816 1.058325,-0.88899 1.735653,-1.12182 3.894637,-1.35465 1.69332,-0.1905 1.841487,-0.254 2.497648,-1.18533 0.698495,-0.97366 2.074318,-2.11665 2.582315,-2.11665 0.126998,0 -0.148166,0.23283 -0.613828,0.52917 -0.48683,0.27516 -0.867828,0.61382 -0.867828,0.71966 0,0.10583 -0.402164,0.65616 -0.867828,1.18532 -0.888992,0.99483 -0.973659,1.01599 -3.894637,1.37582 -0.677328,0.0847 -2.370649,0.99483 -2.370649,1.26999 0,0.14817 0.169331,0.1905 0.380998,0.10584 0.23283,-0.0847 0.402164,0 0.402164,0.21166 0,0.21167 0.08467,0.59266 0.169331,0.86783 0.08467,0.27516 -0.105831,0.16933 -0.507995,-0.3175 -0.677328,-0.78316 -0.698495,-0.78316 -1.164159,-0.29633 -0.253997,0.27517 -0.317497,0.40216 -0.105833,0.29633 0.254,-0.14816 0.317497,-0.10583 0.1905,0.0847 -0.105834,0.16933 -0.444498,0.3175 -0.740828,0.3175 -0.296331,0 -0.867828,0.23283 -1.269992,0.50799 -0.402164,0.29633 -0.804326,0.46566 -0.888992,0.35983 -0.105834,-0.0847 -0.169334,-0.0212 -0.169334,0.127 0,0.46566 -1.523987,1.90499 -1.989651,1.90499 -0.211666,0 -0.402164,0.127 -0.402164,0.29633 0,0.14816 -0.105833,0.1905 -0.253997,0.10583 -0.148167,-0.0847 -0.740828,-0.0212 -1.333492,0.127 -0.952492,0.27516 -1.037159,0.33866 -0.761992,0.84666 0.232831,0.4445 0.169331,0.635 -0.275167,1.05833 -0.317497,0.27516 -0.486828,0.61382 -0.423328,0.74082 0.08466,0.127 0,0.29633 -0.1905,0.381 -0.29633,0.14817 0.973659,0.0423 2.624648,-0.21166 0.317498,-0.0423 0.656162,0.0847 0.719662,0.27516 0.08466,0.1905 0.317497,0.35983 0.550328,0.35983 0.529164,0 0.507997,0.381 -0.02117,1.20649 -0.402164,0.61383 -0.402164,0.635 0.127,0.635 0.317497,0 0.571495,0.10583 0.571495,0.21166 0,0.10584 -0.317498,0.1905 -0.698495,0.1905 -0.550328,0 -0.656161,-0.10583 -0.550328,-0.59266 z m 1.079492,0 c -0.486831,-0.381 -0.486831,-0.40216 0.08467,-0.254 0.338664,0.0847 0.550328,0.0635 0.486828,-0.0423 -0.04233,-0.0847 0.0635,-0.46567 0.232833,-0.80433 0.338664,-0.635 0.338664,-0.635 0.465662,0.3175 0.127,1.10066 -0.423331,1.43932 -1.26999,0.78316 z m -0.994825,-2.49765 c -0.169334,-0.63499 -0.02117,-1.01599 0.402161,-1.01599 0.169333,0 0.211667,0.27516 0.127,0.65616 -0.127,0.46566 -0.04233,0.67733 0.296331,0.76199 0.359831,0.0847 0.338664,0.127 -0.105831,0.14817 -0.359831,0.0212 -0.613831,-0.16933 -0.719661,-0.55033 z m 1.947317,-0.21166 c -0.211664,-0.127 -0.317497,-0.3175 -0.23283,-0.40217 0.08467,-0.0635 0.317497,0.0423 0.486828,0.254 0.380997,0.46566 0.317497,0.508 -0.253998,0.14817 z m -3.047976,-0.52917 c 0.105831,-0.14816 0.232831,-0.27516 0.296331,-0.27516 0.0635,0 0.105833,0.127 0.105833,0.27516 0,0.14817 -0.127,0.254 -0.275167,0.254 -0.148164,0 -0.211664,-0.10583 -0.126997,-0.254 z m 4.339132,-0.46566 c 0.1905,-0.35983 0.550331,-0.59266 0.910162,-0.5715 0.380997,0 0.444497,0.0635 0.190497,0.16934 -0.232831,0.0847 -0.634995,0.33866 -0.910159,0.57149 -0.465664,0.40217 -0.48683,0.40217 -0.1905,-0.16933 z m -1.820317,-0.33866 c 0,-0.16934 -0.127,-0.21167 -0.254,-0.127 -0.148164,0.0847 -0.275164,-0.0212 -0.275164,-0.23284 0,-0.21166 0.148166,-0.48682 0.317497,-0.59266 0.1905,-0.10583 0.232834,-0.0635 0.105834,0.127 -0.127,0.21167 0.08467,0.35983 0.613828,0.46566 0.444497,0.0847 0.740828,0.27517 0.656161,0.40217 -0.190497,0.3175 -1.164156,0.29633 -1.164156,-0.0423 z m 1.69332,-1.46049 c -0.04233,-0.40217 0.0635,-0.5715 0.296331,-0.48683 0.550328,0.21166 0.656161,0.82549 0.169333,0.95249 -0.296333,0.0847 -0.444497,-0.0423 -0.465664,-0.46566 z m 1.75682,-0.65617 c 0,-0.14816 0.127,-0.25399 0.275164,-0.25399 0.148167,0 0.211667,0.10583 0.105833,0.25399 -0.08467,0.14817 -0.211666,0.27517 -0.275164,0.27517 -0.0635,0 -0.105833,-0.127 -0.105833,-0.27517 z m 1.714487,-0.25399 c 0.08467,-0.14817 0.275164,-0.21167 0.402164,-0.127 0.380997,0.23283 0.317497,0.38099 -0.148167,0.38099 -0.232831,0 -0.338664,-0.10583 -0.253997,-0.25399 z M 42.86675,234.5851 c 0.08467,-0.14816 0.275164,-0.21166 0.402164,-0.127 0.380998,0.23284 0.317498,0.381 -0.148166,0.381 -0.232831,0 -0.338664,-0.10583 -0.253998,-0.254 z m 1.926154,-0.21166 c -0.08467,-0.3175 0.02117,-0.46566 0.338664,-0.46566 0.359831,0 0.423331,0.10583 0.211664,0.46566 -0.126997,0.254 -0.296331,0.46566 -0.338664,0.46566 -0.0635,0 -0.148164,-0.21166 -0.211664,-0.46566 z m -3.70414,0.0212 c 0.1905,-0.0635 0.42333,-0.0635 0.507997,0.0212 0.08466,0.0847 -0.0635,0.14817 -0.338664,0.14817 -0.3175,-0.0212 -0.380997,-0.0847 -0.169333,-0.16933 z m 2.603481,-0.0212 c -0.0635,-0.127 -0.04233,-0.35983 0.08467,-0.55033 0.148164,-0.254 0.275164,-0.27517 0.402161,-0.0635 0.08467,0.16933 0.04233,0.29633 -0.126997,0.29633 -0.169334,0 -0.211667,0.10583 -0.127,0.254 0.08467,0.14816 0.105833,0.27516 0.02117,0.27516 -0.0635,0 -0.190497,-0.10583 -0.253997,-0.21166 z m 3.704138,-1.22766 c 0.08467,-0.23283 0.3175,-0.42333 0.507997,-0.42333 0.211664,0 0.719661,-0.67733 1.164159,-1.52399 0.42333,-0.82549 1.079492,-1.86265 1.460489,-2.30715 0.423328,-0.50799 0.211664,0.0212 -0.592664,1.41816 -0.677328,1.20649 -1.587487,2.43415 -1.968484,2.73048 -0.571497,0.40216 -0.698495,0.42333 -0.571497,0.10583 z m -45.2116642,-0.3175 c -0.2116651,-0.21166 -1.35465663,-0.42333 -2.81514573,-0.50799 -0.80432747,-0.0635 -1.50282227,-0.21167 -1.58748837,-0.33867 -0.084666,-0.127 -0.5503293,-0.31749 -1.0159925,-0.42333 -0.6138288,-0.14816 -0.8678269,-0.33866 -0.8678269,-0.69849 0,-0.27517 0.1269991,-0.508 0.2751646,-0.508 0.1269991,0 0.2539982,-0.14816 0.2539982,-0.3175 0,-0.29633 1.5451552,-1.79915 1.8626529,-1.79915 0.1058325,0 0.4444966,-0.23283 0.78316077,-0.52916 0.3386641,-0.29633 1.037159,-0.65616 1.5663217,-0.78316 1.26999053,-0.35983 3.72530593,-0.35983 3.72530593,0 0,0.14816 0.1269989,0.21166 0.2751645,0.127 0.1481656,-0.10584 0.8889932,0 1.6509882,0.23283 0.994826,0.29633 1.714487,0.74083 2.539981,1.60865 0.634995,0.65616 1.058325,1.18533 0.952493,1.18533 -0.105833,0 0,0.25399 0.2751639,0.52916 0.253998,0.29633 0.42333,0.59266 0.359831,0.65616 -0.190498,0.1905 -1.9473189,0.4445 -3.5559739,0.52916 -0.719661,0.0423 -1.7144869,0.27517 -2.1801501,0.52917 -0.867827,0.44449 -2.2859831,0.74082 -2.4976482,0.50799 z m 50.8631242,-6.30762 c 0,-0.0635 0.275164,-0.27516 0.592661,-0.44449 0.550328,-0.27517 0.571495,-0.27517 0.232831,0.127 -0.338664,0.40216 -0.825492,0.59266 -0.825492,0.31749 z M 52.285848,226.309 c 0.04233,-0.0423 0.402164,-0.29633 0.761995,-0.59266 l 0.656161,-0.52917 -0.48683,0.59267 c -0.296331,0.33866 -0.634995,0.59266 -0.783162,0.59266 -0.148164,0 -0.211664,-0.0212 -0.148164,-0.0635 z m 2.561148,-2.49765 c 0.402162,-0.5715 0.740826,-0.78316 1.015993,-0.67733 0.338664,0.10583 0.380997,0.0212 0.253997,-0.40216 -0.105833,-0.29633 -0.0635,-0.61383 0.08467,-0.6985 0.16933,-0.10583 0.211664,0 0.10583,0.27517 -0.126997,0.3175 -0.08466,0.40216 0.169334,0.254 0.253997,-0.16934 0.275164,-0.10584 0.0635,0.27516 -0.317498,0.59266 -1.375823,1.58749 -1.375823,1.31232 0,-0.12699 -0.211667,-0.0423 -0.444498,0.14817 -0.317497,0.254 -0.275164,0.0847 0.127,-0.48683 z m 2.836313,-3.38664 c 0.423328,-0.35983 1.079492,-0.65616 1.460489,-0.635 0.402161,0 0.507995,0.0847 0.253997,0.16934 -0.211666,0.0847 -0.867828,0.35983 -1.460489,0.63499 l -1.058325,0.48683 z"
         id="path30" />
      <path
         inkscape:connector-curvature="0"
         style="fill:#00ffff;fill-opacity:1;fill-rule:nonzero;stroke:none;stroke-width:0.26458332"
         d="m 13.36064,265.7845 c 0,-0.14817 0.126999,-0.21167 0.275164,-0.10583 0.127,0.0847 0.253999,0.21166 0.253999,0.27516 0,0.0635 -0.126999,0.10583 -0.253999,0.10583 -0.148165,0 -0.275164,-0.127 -0.275164,-0.27516 z m -1.058325,-0.74083 c 0,-0.1905 -0.127,-0.254 -0.253999,-0.16933 -0.148165,0.0847 -0.275164,0.0423 -0.275164,-0.10583 0,-0.14817 0.126999,-0.33867 0.275164,-0.42333 0.296331,-0.1905 0.677329,0.59266 0.423331,0.84666 -0.08467,0.10583 -0.169332,0.0212 -0.169332,-0.14817 z m -7.4294453,-0.42333 c 0.1904984,-0.21166 0.5714954,-0.46566 0.8678264,-0.55033 0.275165,-0.0847 0.613829,-0.42333 0.740828,-0.74083 0.148166,-0.38099 0.232832,-0.42333 0.253998,-0.14816 0.02117,0.46566 -0.91016,1.39699 -1.672154,1.67215 -0.4233302,0.14817 -0.4444966,0.10584 -0.1904984,-0.23283 z m 5.1857943,-0.127 c -0.08467,-0.127 0,-0.3175 0.169333,-0.42333 0.190498,-0.127 0.232831,-0.0847 0.126998,0.0847 -0.105832,0.16933 0.105833,0.33866 0.55033,0.40216 l 0.740828,0.10584 -0.719662,0.0423 c -0.380997,0.0212 -0.783161,-0.0635 -0.867827,-0.21167 z m -2.2436499,-2.39181 c 0,-0.14817 0.317498,-0.254 0.719662,-0.254 0.634995,0.0212 0.656162,0.0423 0.190498,0.254 -0.719661,0.31749 -0.91016,0.31749 -0.91016,0 z m 7.8739419,-1.24883 c 0.190498,-0.0635 0.42333,-0.0635 0.507996,0.0212 0.08467,0.0847 -0.0635,0.14817 -0.338664,0.14817 -0.317498,-0.0212 -0.380997,-0.0847 -0.169332,-0.16934 z m 4.825964,-0.74083 c 0.190499,-0.23283 0.380997,-0.35983 0.444497,-0.29633 0.190499,0.1905 -0.190499,0.6985 -0.507996,0.6985 -0.169332,0 -0.148166,-0.14817 0.0635,-0.40217 z m -2.920978,-0.38099 c 0,-0.35983 0.465663,-0.59266 0.634995,-0.3175 0.08467,0.14817 -0.02117,0.3175 -0.232831,0.40216 -0.232832,0.0847 -0.402164,0.0423 -0.402164,-0.0847 z m 1.968485,-0.40217 c 0.275165,-0.21166 0.698495,-0.40216 0.931327,-0.42333 0.592662,0 1.142991,-0.52916 1.608654,-1.54515 l 0.423331,-0.889 v 0.9525 c 0,0.52916 -0.105834,0.97366 -0.253998,0.97366 -0.127,0 -0.55033,0.23283 -0.952493,0.50799 -0.402164,0.29634 -0.804328,0.46567 -0.888994,0.381 -0.08467,-0.0847 -0.42333,0 -0.761994,0.16933 -0.592662,0.27517 -0.592662,0.27517 -0.105833,-0.127 z m -3.555973,-0.67733 c 0,-0.14816 0.190498,-0.25399 0.402163,-0.25399 0.211666,0 0.402164,0.0423 0.402164,0.10583 0,0.0423 -0.190498,0.16933 -0.402164,0.254 -0.211665,0.0847 -0.402163,0.0423 -0.402163,-0.10584 z m 6.879115,-2.24364 c -0.169333,-0.21167 -0.42333,-0.3175 -0.550328,-0.254 -0.127,0.0847 -0.232833,-0.0212 -0.232833,-0.254 0,-0.508 0.677328,-0.27517 0.910161,0.29633 0.126998,0.35983 0.211664,0.33866 0.613828,-0.10583 0.253998,-0.29633 0.613828,-0.46567 0.825495,-0.40217 0.190497,0.0635 0.296331,0.0212 0.211664,-0.10583 -0.0635,-0.127 0.04233,-0.381 0.232831,-0.57149 0.211666,-0.1905 0.380997,-0.254 0.380997,-0.127 0,0.10583 0.105833,0.0423 0.232833,-0.16934 0.126998,-0.19049 0.359831,-0.27516 0.529162,-0.16933 0.211666,0.127 0.0635,0.40217 -0.423331,0.86783 -0.402161,0.35983 -0.571495,0.5715 -0.380997,0.46566 0.275166,-0.14816 0.3175,-0.10583 0.169333,0.127 -0.105833,0.16933 -0.402164,0.254 -0.677328,0.1905 -0.275164,-0.0635 -0.550331,0.0423 -0.613828,0.23283 -0.1905,0.48683 -0.804328,0.48683 -1.227659,-0.0212 z m 4.360302,-0.127 c -0.08467,-0.3175 -0.105833,-0.635 -0.04233,-0.6985 0.0635,-0.0847 0.211664,0.127 0.317497,0.42333 0.105833,0.3175 0.127,0.635 0.04233,0.6985 -0.0635,0.0847 -0.211664,-0.10584 -0.317497,-0.42333 z m -5.249294,-1.22766 c -0.275166,-0.29633 -0.1905,-0.93133 0.105831,-0.76199 0.148167,0.10583 0.211667,0.27516 0.127,0.40216 -0.08467,0.10583 0.02117,0.27516 0.190497,0.35983 0.1905,0.0635 0.211667,0.127 0.04233,0.14816 -0.148164,0 -0.359831,-0.0635 -0.465662,-0.14816 z m 4.78363,-0.21167 c -0.105834,-0.27516 -0.148164,-0.55032 -0.0635,-0.63499 0.232833,-0.23283 0.444497,0.16933 0.359831,0.65616 -0.105831,0.46566 -0.105831,0.46566 -0.296331,-0.0212 z m -3.34431,-2.73048 c -0.02116,-0.35983 0.127,-0.59266 0.380998,-0.59266 0.211666,0 0.402164,0.1905 0.402164,0.40216 0,0.23284 -0.126998,0.35984 -0.253998,0.27517 -0.127,-0.0847 -0.29633,0 -0.380997,0.16933 -0.0635,0.1905 -0.127,0.0635 -0.148167,-0.254 z m 2.899812,0.1905 c 0,-0.16933 0.105834,-0.21166 0.254,-0.127 0.148164,0.0847 0.275164,0.21167 0.275164,0.27517 0,0.0635 -0.127,0.127 -0.275164,0.127 -0.148166,0 -0.254,-0.127 -0.254,-0.27517 z m -1.206489,-1.18532 c 0.275164,-0.21167 0.613828,-0.40216 0.761995,-0.40216 0.148164,0 0.04233,0.19049 -0.232834,0.40216 -0.29633,0.21166 -0.634994,0.38099 -0.783161,0.38099 -0.148164,0 -0.04233,-0.16933 0.254,-0.38099 z m -2.158984,-1.03716 c 0,-0.21167 0.105831,-0.33867 0.232831,-0.254 0.127,0.0847 0.148166,0.254 0.0635,0.381 -0.211664,0.35983 -0.296331,0.3175 -0.296331,-0.127 z m 1.396989,-0.55033 c 0.465664,-0.33866 0.402164,-0.381 -0.804328,-0.381 -0.783161,0 -1.206489,-0.10583 -1.058325,-0.25399 0.423331,-0.40217 2.349484,0.0635 2.455315,0.57149 0.0635,0.33866 -0.08467,0.46566 -0.507995,0.46566 -0.592664,0 -0.592664,-0.0212 -0.08467,-0.40216 z m 2.497648,-2.47648 c 0,-0.27517 0.486831,-0.67733 0.634995,-0.52917 0.0635,0.0635 -0.0635,0.254 -0.275164,0.4445 -0.211666,0.1905 -0.359831,0.21167 -0.359831,0.0847 z m 6.011289,-2.41298 c 0.253997,-0.29634 0.486831,-0.52917 0.529164,-0.52917 0.04233,0 -0.04233,0.23283 -0.1905,0.52917 -0.169331,0.29633 -0.402164,0.52916 -0.550328,0.52916 -0.127,0 -0.04233,-0.23283 0.211664,-0.52916 z m 1.269989,-0.762 c -0.0635,-0.127 0.169334,-0.16933 0.529164,-0.10583 0.359831,0.0847 0.656162,0.16933 0.656162,0.23283 0,0.21167 -1.037159,0.10583 -1.185326,-0.127 z m 2.497651,-3.40781 c 0.211664,-0.0847 0.465661,-0.25399 0.571495,-0.40216 0.08467,-0.14817 0.29633,-0.16933 0.465664,-0.0847 0.571494,0.35983 0.275164,0.67733 -0.571498,0.65617 -0.465661,0 -0.677328,-0.0847 -0.465661,-0.16934 z m -1.989653,-0.59266 c -0.08467,-0.14816 -0.02117,-0.27516 0.127,-0.27516 0.148164,0 0.275164,0.127 0.275164,0.27516 0,0.14817 -0.04233,0.254 -0.105834,0.254 -0.0635,0 -0.190497,-0.10583 -0.29633,-0.254 z m 1.100658,0.0847 c -0.317497,-0.3175 -0.169333,-0.48683 0.486831,-0.52917 0.423328,-0.0212 0.677328,0.10584 0.677328,0.33867 0,0.381 -0.825495,0.50799 -1.164159,0.1905 z m -1.735653,-1.56632 c 0.02117,-0.3175 0.08467,-0.35984 0.169331,-0.16934 0.0635,0.21167 0.0635,0.42333 -0.02117,0.508 -0.105831,0.10583 -0.148164,-0.0635 -0.148164,-0.33866 z m 1.777987,-2.41299 c 0.190497,-0.0635 0.42333,-0.0635 0.507994,0.0212 0.08467,0.0847 -0.0635,0.14817 -0.338664,0.14817 -0.317497,-0.0212 -0.380997,-0.0847 -0.16933,-0.16934 z m 1.545156,-0.59266 c 0.465661,-0.27516 0.952492,-0.71966 1.100656,-0.95249 0.148167,-0.29633 0.380997,-0.381 0.592664,-0.254 0.253997,0.16933 0.190497,0.27516 -0.253997,0.4445 -0.3175,0.10583 -0.507998,0.31749 -0.423331,0.46566 0.0635,0.127 -0.232834,0.35983 -0.698495,0.52916 -1.185325,0.40217 -1.269992,0.35983 -0.317497,-0.23283 z m 2.751645,-2.26482 c 0,-0.0635 0.571495,-0.40216 1.26999,-0.76199 0.698494,-0.35983 1.439322,-0.84666 1.650989,-1.10066 0.571495,-0.69849 1.75682,-1.10066 3.767638,-1.31232 1.735653,-0.1905 1.862653,-0.254 2.518814,-1.20649 0.804329,-1.14299 1.418157,-1.43933 0.698495,-0.3175 -0.804328,1.22766 -1.502823,1.60865 -3.280809,1.79915 -2.158984,0.23283 -2.539982,0.381 -3.852305,1.56632 -1.227656,1.12183 -2.772812,1.86266 -2.772812,1.33349 z M 2.1847228,232.82824 c -0.2116651,-0.21166 -1.35465663,-0.42333 -2.81514573,-0.50799 -0.80432747,-0.0635 -1.50282227,-0.21167 -1.58748837,-0.33867 -0.084666,-0.127 -0.5503293,-0.31749 -1.0159925,-0.42333 -0.6138288,-0.14816 -0.8678269,-0.33866 -0.8678269,-0.69849 0,-0.27517 0.1269991,-0.508 0.2751646,-0.508 0.1269991,0 0.2539982,-0.14816 0.2539982,-0.3175 0,-0.29633 1.5451552,-1.79915 1.8626529,-1.79915 0.1058325,0 0.4444966,-0.23283 0.78316077,-0.52916 0.3386641,-0.29633 1.037159,-0.65616 1.5663217,-0.78316 1.26999053,-0.35983 3.72530593,-0.35983 3.72530593,0 0,0.14816 0.1269989,0.21166 0.2751645,0.10583 0.1481656,-0.0847 0.8889932,0.0212 1.6509882,0.254 0.994826,0.29633 1.714487,0.74083 2.539981,1.60865 0.634995,0.65616 1.058325,1.18533 0.952493,1.18533 -0.105833,0 0,0.25399 0.2751639,0.52916 0.253998,0.29633 0.42333,0.59266 0.359831,0.65616 -0.190498,0.1905 -1.9473189,0.4445 -3.5559739,0.52916 -0.719661,0.0423 -1.7144869,0.27517 -2.1801501,0.52917 -0.867827,0.44449 -2.2859831,0.74082 -2.4976482,0.50799 z M 49.25904,230.94442 c 0.211667,-0.55033 0.571497,-1.16415 0.804328,-1.39699 0.211664,-0.21166 0.08467,0.23284 -0.296331,0.99483 -0.804328,1.60865 -1.100658,1.84149 -0.507997,0.40216 z m 5.651458,-7.13311 c 0,-0.14817 0.1905,-0.4445 0.444497,-0.635 0.444498,-0.33866 0.444498,-0.33866 0.08467,0.16934 -0.211667,0.27516 -0.423331,0.57149 -0.465664,0.63499 -0.04233,0.0635 -0.0635,-0.0212 -0.0635,-0.16933 z m 2.899812,-3.51364 c 0.359831,-0.27517 0.846661,-0.52916 1.058325,-0.52916 0.465664,0 -0.35983,0.59266 -1.185322,0.88899 -0.423331,0.14817 -0.402164,0.0635 0.126997,-0.35983 z"
         id="path32" />
      <path
         inkscape:connector-curvature="0"
         style="fill:#ffcc00;fill-opacity:1;fill-rule:nonzero;stroke:none;stroke-width:0.26458332"
         d="m 2.1847228,232.82824 c -0.2116651,-0.21166 -1.35465663,-0.42333 -2.81514573,-0.50799 -0.80432747,-0.0635 -1.50282227,-0.21167 -1.58748837,-0.33867 -0.084666,-0.127 -0.5503293,-0.31749 -1.0159925,-0.42333 -0.6138288,-0.14816 -0.8678269,-0.33866 -0.8678269,-0.69849 0,-0.27517 0.1269991,-0.508 0.2751646,-0.508 0.1269991,0 0.2539982,-0.14816 0.2539982,-0.3175 0,-0.29633 1.5451552,-1.79915 1.8626529,-1.79915 0.1058325,0 0.4444966,-0.23283 0.78316077,-0.52916 0.3386641,-0.29633 1.037159,-0.65616 1.5663217,-0.78316 1.26999053,-0.35983 3.72530593,-0.35983 3.72530593,0 0,0.14816 0.1269989,0.21166 0.2751645,0.10583 0.1481656,-0.0847 0.8889932,0.0212 1.6509882,0.254 0.994826,0.29633 1.714487,0.74083 2.539981,1.60865 0.634995,0.65616 1.058325,1.18533 0.952493,1.18533 -0.105833,0 0,0.25399 0.2751639,0.52916 0.253998,0.29633 0.42333,0.59266 0.359831,0.65616 -0.190498,0.1905 -1.9473189,0.4445 -3.5559739,0.52916 -0.719661,0.0423 -1.7144869,0.27517 -2.1801501,0.52917 -0.867827,0.44449 -2.2859831,0.74082 -2.4976482,0.50799 z"
         id="path34" />
      <path
         inkscape:connector-curvature="0"
         style="fill:#ddff55;fill-opacity:1;fill-rule:nonzero;stroke:none;stroke-width:0.26458332"
         d="m 2.8197181,232.19325 c 0,-0.35983 0.063499,-0.508 0.1269989,-0.3175 0.084666,0.16933 0.084666,0.46566 0,0.65616 -0.063499,0.1905 -0.1269989,0.0423 -0.1269989,-0.33866 z m -5.0587959,-0.254 c 0,-0.127 0.1693321,-0.1905 0.3809972,-0.10583 0.2328315,0.0847 0.4021637,0.21166 0.4021637,0.254 0,0.0635 -0.1693322,0.10583 -0.4021637,0.10583 -0.2116651,0 -0.3809972,-0.10583 -0.3809972,-0.254 z m 9.9059269,-0.21167 c 0.380997,-0.40216 1.650987,-0.67732 1.820319,-0.40216 0.0635,0.127 -0.0635,0.23283 -0.317497,0.23283 -0.232832,0.0212 -0.740828,0.10584 -1.100659,0.23283 -0.444496,0.14817 -0.571495,0.127 -0.402163,-0.0635 z m -11.7685798,-1.12182 c 0,-0.14817 0.1269991,-0.254 0.2751646,-0.254 0.1693321,0 0.2116651,0.10583 0.1269991,0.254 -0.084666,0.14817 -0.2116651,0.27516 -0.2751646,0.27516 -0.063499,0 -0.1269991,-0.12699 -0.1269991,-0.27516 z m 0.5291628,-0.65616 c 0,-0.0847 0.2328316,-0.40217 0.5291627,-0.71966 0.4444967,-0.46567 0.5291628,-0.48683 0.5291628,-0.127 0,0.23283 -0.2328316,0.55033 -0.5291628,0.71966 -0.2963311,0.14816 -0.5291627,0.21166 -0.5291627,0.127 z m 1.3334901,-1.18533 c 0,-0.127 0.2328316,-0.38099 0.5291628,-0.52916 0.2751646,-0.16933 0.5291627,-0.254 0.5291627,-0.21166 0,0.0635 -0.2539981,0.29633 -0.5291627,0.55032 -0.2963312,0.23284 -0.5291628,0.33867 -0.5291628,0.1905 z m 10.5832549,-0.0212 c 0,-0.14817 -0.634995,-0.5715 -1.39699,-0.91016 -1.460489,-0.67733 -1.33349,-0.93133 0.148166,-0.29633 0.91016,0.38099 2.053151,1.48165 1.545155,1.48165 -0.169332,0 -0.296331,-0.127 -0.296331,-0.27516 z m -8.99576673,-1.18533 c 0.4444968,-0.55033 2.01081853,-0.91016 3.70413913,-0.86782 1.4393228,0.0423 1.4393228,0.0423 -0.4021634,0.21166 -1.0159926,0.0847 -2.26481673,0.35983 -2.75164633,0.61383 -0.6773283,0.33866 -0.8043276,0.35983 -0.5503294,0.0423 z"
         id="path36" />
    </g>
  </g>
</svg>
