<?xml version="1.0" encoding="UTF-8" standalone="no"?>
<!-- Created with Inkscape (http://www.inkscape.org/) -->

<svg
   xmlns:dc="http://purl.org/dc/elements/1.1/"
   xmlns:cc="http://creativecommons.org/ns#"
   xmlns:rdf="http://www.w3.org/1999/02/22-rdf-syntax-ns#"
   xmlns:svg="http://www.w3.org/2000/svg"
   xmlns="http://www.w3.org/2000/svg"
   xmlns:sodipodi="http://sodipodi.sourceforge.net/DTD/sodipodi-0.dtd"
   xmlns:inkscape="http://www.inkscape.org/namespaces/inkscape"
   width="75mm"
   height="120mm"
   viewBox="0 0 75 120"
   version="1.1"
   id="svg8"
   inkscape:version="0.92.4 (5da689c313, 2019-01-14)"
   sodipodi:docname="fanions.svg">
  <defs
     id="defs2" />
  <sodipodi:namedview
     id="base"
     pagecolor="#ffffff"
     bordercolor="#666666"
     borderopacity="1.0"
     inkscape:pageopacity="0.0"
     inkscape:pageshadow="2"
     inkscape:zoom="1.979899"
     inkscape:cx="44.759158"
     inkscape:cy="248.99729"
     inkscape:document-units="mm"
     inkscape:current-layer="layer1"
     showgrid="false"
     units="mm"
     inkscape:window-width="1280"
     inkscape:window-height="972"
     inkscape:window-x="-8"
     inkscape:window-y="-8"
     inkscape:window-maximized="1" />
  <metadata
     id="metadata5">
    <rdf:RDF>
      <cc:Work
         rdf:about="">
        <dc:format>image/svg+xml</dc:format>
        <dc:type
           rdf:resource="http://purl.org/dc/dcmitype/StillImage" />
        <dc:title></dc:title>
      </cc:Work>
    </rdf:RDF>
  </metadata>
  <g
     inkscape:label="Calque 1"
     inkscape:groupmode="layer"
     id="layer1"
     transform="translate(0,-176.99999)">
    <g
       id="g2177"
       transform="translate(0.80180855,4.0090428)">
      <path
         style="fill:#ffff00;stroke-width:0.26458335"
         d="m 54.138374,277.6509 c -0.404834,-0.1139 -0.85635,-0.6693 -1.322917,-1.62727 -0.678079,-1.39225 -0.747847,-1.45064 -1.634357,-1.36762 -2.087383,0.19547 -2.181032,0.17839 -2.65135,-0.48359 -0.258472,-0.36381 -0.538583,-1.04842 -0.622475,-1.52136 l -0.152529,-0.85989 1.382447,0.008 c 1.605328,0.01 2.30849,0.43444 2.30849,1.3942 0,0.90641 0.343323,1.08633 2.372318,1.24322 1.588587,0.12283 1.754047,0.19655 2.315104,1.03131 0.737034,1.0966 0.741667,1.21252 0.07508,1.87911 -0.541755,0.54175 -0.989613,0.60742 -2.069809,0.30348 z m -34.555846,-2.83569 c -0.228806,-0.2288 -0.416011,-0.65037 -0.416011,-0.93682 0,-0.94112 1.041553,-2.59413 1.920825,-3.04847 0.471515,-0.24365 0.976362,-0.60584 1.121883,-0.80488 0.180545,-0.24695 0.222564,0.35144 0.132292,1.88395 -0.141762,2.40661 -0.378398,2.86364 -1.63451,3.15686 -0.471919,0.11016 -0.847368,0.0265 -1.124479,-0.25064 z m -7.725094,-1.1117 c -0.832577,-0.67698 -0.964871,-1.65416 -0.358855,-2.65068 0.284025,-0.46704 0.64403,-0.84916 0.800011,-0.84916 0.518732,0 2.763523,0.5981 2.983421,0.7949 0.256048,0.22916 -0.449705,2.02524 -1.061384,2.70114 -0.539788,0.59646 -1.632156,0.59822 -2.363193,0.004 z m 20.160035,-1.27002 c -0.817742,-0.81775 0.351362,-3.02357 1.60251,-3.02357 0.480605,0 1.680707,0.38208 2.168652,0.69044 0.133236,0.0842 -0.763725,1.76926 -1.216903,2.28612 -0.507503,0.57881 -1.995075,0.60619 -2.554259,0.047 z m 12.460433,-0.44538 c -0.249886,-0.18272 -0.637839,-0.98639 -0.862118,-1.78593 -0.22428,-0.79955 -0.468305,-1.6434 -0.542277,-1.87524 -0.119645,-0.37495 0.04013,-0.38956 1.446509,-0.13229 2.113362,0.38661 2.789706,1.00877 2.603754,2.39515 -0.207534,1.54727 -1.504654,2.23279 -2.645868,1.39831 z M 17.652591,271.7666 c -1.155735,-0.42753 -1.511886,-2.19538 -0.607219,-3.01409 0.429828,-0.38899 0.789929,-0.44366 1.991782,-0.30241 1.876765,0.22058 2.775196,0.002 2.775196,-0.67376 0,-1.56078 1.111291,-2.14698 3.248362,-1.7135 l 1.500513,0.30437 -1.249958,1.3624 c -1.462395,1.59395 -1.857091,1.76973 -2.834783,1.26249 -0.398542,-0.20676 -0.762643,-0.37593 -0.809114,-0.37593 -0.04647,0 -0.636549,0.70267 -1.311283,1.5615 -1.293609,1.64656 -1.778045,1.93128 -2.703496,1.58893 z m 19.670793,-1.9647 c -0.464614,-0.46461 -0.563679,-1.62297 -0.189352,-2.21405 0.127783,-0.20177 0.830466,-0.42433 1.561518,-0.49458 l 1.329187,-0.12772 -0.664369,-0.57146 c -0.620077,-0.53337 -1.272651,-2.58801 -0.930611,-2.93005 0.387266,-0.38727 1.884556,-0.0854 2.52625,0.50928 0.838266,0.77688 0.906833,1.79027 0.170926,2.52618 -0.391991,0.39199 -0.430398,0.52917 -0.148156,0.52917 0.276844,0 0.147659,0.41594 -0.472509,1.52135 -0.765648,1.36472 -0.951309,1.52961 -1.803312,1.60151 -0.611929,0.0516 -1.102673,-0.0727 -1.379572,-0.34963 z m 23.575197,0.21824 c -0.257937,-0.0672 -0.765958,-0.70822 -1.128934,-1.42452 -0.625883,-1.23512 -1.215385,-1.62304 -1.577089,-1.03779 -0.580885,0.9399 -2.778125,-0.43519 -2.778125,-1.73862 0,-0.61476 -0.07572,-0.67828 -0.595312,-0.49943 -1.009973,0.34765 -2.562641,0.25183 -2.999598,-0.18513 -0.44066,-0.44066 -0.958175,-2.30059 -0.738862,-2.65544 0.07242,-0.11718 0.644367,-0.21304 1.270998,-0.21304 1.250706,0 2.530689,0.77705 2.537658,1.54055 0.0089,0.97101 0.369475,1.14331 1.448922,0.69229 0.778423,-0.32525 1.16354,-0.35851 1.639604,-0.1416 0.72679,0.33115 1.226857,1.454 0.985801,2.2135 -0.149667,0.47156 -0.08409,0.5101 0.588573,0.3459 1.941354,-0.4739 2.324595,-0.47713 3.16116,-0.0266 0.958435,0.51616 1.293191,1.36151 0.92384,2.33298 -0.344024,0.90485 -1.279342,1.17703 -2.738636,0.79696 z m -33.560509,-3.42513 c -0.488542,-0.58866 -0.320381,-1.71459 0.340273,-2.27832 0.589214,-0.50278 1.94051,-0.62445 2.203796,-0.19844 0.08994,0.14552 0.454152,0.26458 0.809366,0.26458 0.355214,0 0.645843,0.0542 0.645843,0.12054 0,0.33698 -1.419154,2.15242 -1.804395,2.30826 -0.804696,0.32553 -1.828824,0.22445 -2.194883,-0.21662 z m 15.839382,-0.1167 c -0.688221,-0.40086 -0.589394,-1.72857 0.186412,-2.50438 0.512972,-0.51297 0.922105,-0.64943 1.947119,-0.64943 h 1.297689 l -0.442119,1.3562 c -0.61686,1.89222 -1.704081,2.54606 -2.989101,1.79761 z m -11.068227,-1.98954 c -0.856404,-1.03191 0.138919,-3.11629 1.374449,-2.87835 1.667751,0.32118 1.77432,0.48496 1.265428,1.94477 -0.453509,1.30093 -1.908087,1.81533 -2.639877,0.93358 z m -8.42559,-0.53849 c -0.301604,-0.38343 -0.54837,-0.91008 -0.54837,-1.17033 0,-0.67174 1.200593,-2.01322 1.975957,-2.20782 0.94876,-0.23812 1.339897,-1.09429 0.844988,-1.84962 -0.63211,-0.96472 -0.222619,-2.31223 0.869579,-2.86153 1.472819,-0.74071 1.739175,-1.1135 1.272077,-1.78037 -0.245922,-0.35111 -0.350136,-0.93637 -0.277974,-1.56109 l 0.115441,-0.9994 -0.989538,0.11552 c -0.743105,0.0868 -1.07724,-0.004 -1.341701,-0.36608 -0.553891,-0.7575 -0.425277,-1.91892 0.29192,-2.63611 0.571933,-0.57194 0.857955,-0.64014 2.553325,-0.60883 1.556885,0.0288 1.82898,0.094 1.474348,0.35326 -0.239191,0.1749 -0.607467,0.80713 -0.818393,1.40496 l -0.383503,1.08696 0.785794,-0.15716 c 2.434942,-0.48699 2.392039,3.48262 -0.04342,4.01754 -1.018921,0.22379 -1.170389,0.6197 -0.683191,1.78574 0.532315,1.274 0.110064,2.09264 -1.254276,2.43172 l -1.019387,0.25335 0.152179,1.81519 c 0.181885,2.16953 -0.09432,2.90359 -1.249755,3.3214 -1.128884,0.40821 -1.094226,0.41599 -1.726096,-0.3873 z m 12.413318,-1.48359 c -0.451744,-0.48489 -0.538887,-0.87144 -0.477173,-2.11667 0.04152,-0.83789 0.159044,-1.52344 0.261154,-1.52344 0.102111,0 0.52056,0.36629 0.929889,0.81397 2.27684,2.49017 2.190329,2.3124 1.451004,2.98148 -0.67093,0.60719 -1.510604,0.54694 -2.164874,-0.15534 z m 11.7021,0.2625 c -0.292248,-0.35556 -0.403442,-0.85304 -0.35347,-1.5814 0.04682,-0.68236 1.167466,-1.29281 2.543607,-1.38559 0.671284,-0.0453 1.297328,-0.15909 1.39121,-0.25297 0.09388,-0.0939 0.139269,-0.68163 0.100868,-1.30611 -0.0865,-1.40664 0.215923,-1.6759 2.018032,-1.79673 1.077373,-0.0722 1.361549,-0.0137 1.256771,0.25902 -0.07446,0.1938 -0.13539,0.8593 -0.13539,1.47888 0,0.95684 -0.10377,1.1738 -0.688917,1.44041 -0.383823,0.17488 -1.079304,0.24066 -1.570442,0.14852 -0.859888,-0.16132 -0.90111,-0.12659 -1.679334,1.41507 -0.438796,0.86925 -0.991989,1.65497 -1.229323,1.74604 -0.682019,0.26171 -1.358273,0.19418 -1.653612,-0.16514 z m -9.299535,-3.03214 c -0.213495,-0.77321 -0.186753,-1.11025 0.125955,-1.5875 0.798838,-1.21918 2.766041,-0.48836 2.766041,1.02759 0,0.87965 -0.770424,1.54153 -1.794335,1.54153 -0.728535,0 -0.858787,-0.11648 -1.097661,-0.98162 z M 7.9026014,259.22839 c -0.7193971,-0.7194 -0.7680156,-1.02065 -0.3556373,-2.2036 0.31756,-0.91095 0.7536913,-1.12132 2.5177869,-1.21445 l 1.194612,-0.0631 -0.178751,1.07664 c -0.263702,1.58829 -0.792117,2.439 -1.7147629,2.76064 -0.7240773,0.25242 -0.8966833,0.2104 -1.4632477,-0.35616 z m 37.6560976,0.10616 c -0.638276,-0.37176 -1.256766,-1.6463 -1.256766,-2.58985 0,-1.24016 -0.252481,-1.62228 -1.071888,-1.62228 -1.257723,0 -2.150324,-1.00586 -2.303044,-2.59526 -0.148566,-1.54615 -0.02766,-1.61744 1.856081,-1.09431 1.374627,0.38175 1.986447,1.34557 1.561261,2.4595 -0.283866,0.74368 -0.257442,0.88293 0.245967,1.29621 0.310198,0.25466 0.854374,0.46302 1.209281,0.46302 1.009171,0 2.100588,0.69303 2.460744,1.56252 0.289888,0.69985 0.260874,0.88908 -0.245332,1.59998 -0.604369,0.84876 -1.549014,1.04892 -2.456304,0.52047 z m -31.951316,-0.72168 c -0.468369,-0.37926 -0.554692,-0.64212 -0.416898,-1.26949 0.186258,-0.84803 1.293024,-2.20964 1.819551,-2.23852 2.815149,-0.15441 3.627314,-0.14613 3.627314,0.037 0,0.12039 -0.170081,0.3141 -0.377959,0.43047 -0.207877,0.11637 -0.61081,0.75484 -0.895406,1.41882 -0.284596,0.66398 -0.718332,1.40812 -0.963857,1.65365 -0.586362,0.58636 -2.049874,0.56965 -2.792745,-0.0319 z m 20.3758,-0.84462 c -1.022718,-1.02272 -0.329478,-3.175 1.022652,-3.175 0.908116,0 1.887765,1.01847 1.887765,1.96257 0,1.58996 -1.788025,2.33482 -2.910417,1.21243 z m 36.644792,-1.03082 c -0.567966,-0.33127 -0.858076,-0.75853 -1.019884,-1.50201 -0.443172,-2.03629 -0.593874,-2.22967 -1.737567,-2.22967 -1.206434,0 -1.872758,-0.68611 -1.872758,-1.92835 0,-0.41375 -0.132574,-0.99999 -0.294611,-1.30276 -0.267747,-0.50029 -0.237595,-0.53395 0.33073,-0.36918 0.343937,0.0997 1.020643,0.25313 1.503793,0.34092 1.149438,0.20887 1.74915,1.1132 1.526231,2.30146 -0.186137,0.9922 0.08411,1.22249 1.434576,1.22249 0.913119,0 2.643031,1.52316 2.643031,2.32714 0,0.48536 -1.138883,1.67196 -1.557036,1.62227 -0.08952,-0.0106 -0.519943,-0.22767 -0.956505,-0.48231 z m -14.657089,-0.63776 c -1.502833,-0.52805 -1.583835,-2.05275 -0.158665,-2.98656 0.659072,-0.43184 0.723593,-0.4283 1.403294,0.0769 0.852316,0.63349 1.04429,1.72076 0.461002,2.61098 -0.477655,0.72899 -0.479888,0.72938 -1.705631,0.29869 z m -44.58127,-0.8666 c -0.278309,-0.72526 -0.175089,-1.82431 0.224978,-2.39549 0.212068,-0.30276 0.956209,-0.704 1.653646,-0.89162 1.629848,-0.43847 1.706256,-0.51945 1.42277,-1.50791 -0.198791,-0.69314 -0.142241,-0.91563 0.350341,-1.37839 0.323068,-0.3035 0.725604,-0.55183 0.894524,-0.55183 0.224297,0 0.233922,-0.19254 0.03569,-0.71393 -0.410676,-1.08016 0.374774,-2.31167 2.093027,-3.28166 1.097396,-0.61951 1.369575,-0.89662 1.222747,-1.24492 -0.424674,-1.00739 -0.415268,-1.63875 0.03579,-2.40233 0.397983,-0.67373 1.437415,-1.22216 2.090713,-1.1031 0.271726,0.0495 1.632667,-0.75018 1.971529,-1.15849 0.596285,-0.71848 0.868638,-0.44855 0.322,0.31913 -0.287245,0.4034 -0.720215,1.41438 -0.962157,2.24663 -0.461456,1.58736 -1.14329,2.31159 -2.176261,2.31159 -0.783559,0 -1.3737,0.93941 -1.637169,2.6061 -0.226547,1.43313 -0.612922,2.07444 -1.475873,2.44969 -0.384,0.16698 -0.140043,0.21539 0.850874,0.16884 0.764075,-0.0359 1.389153,0.003 1.389063,0.0855 -9.1e-5,0.0829 -0.297821,0.40953 -0.661623,0.72585 -0.363802,0.31632 -0.662272,0.66522 -0.663266,0.77532 -0.0041,0.45387 -1.826632,1.41617 -2.536297,1.33917 -0.69176,-0.0751 -0.757391,0.002 -0.947438,1.10998 -0.367497,2.14283 -0.456519,2.32018 -1.314844,2.61939 -1.174996,0.40961 -1.995041,0.36171 -2.182764,-0.12749 z m 9.099817,-0.0389 c -0.218281,-0.0831 -0.484348,-0.28205 -0.591261,-0.44214 -0.277104,-0.41491 -0.247574,-1.69681 0.05198,-2.25653 0.369676,-0.69075 1.724031,-1.16889 2.811199,-0.99247 0.517145,0.0839 1.259319,0.0319 1.649276,-0.11559 0.703976,-0.26626 0.702904,-0.26185 -0.150884,0.62153 -0.472943,0.48934 -0.859896,1.10022 -0.859896,1.35752 0,0.55492 -0.489494,1.54427 -0.899505,1.81804 -0.336396,0.22462 -1.432363,0.22987 -2.010912,0.01 z m 37.15739,-2.29587 c -0.53054,-0.37161 -1.896295,-2.96265 -1.677146,-3.1818 0.0637,-0.0637 0.708962,-0.19426 1.433928,-0.29015 1.11334,-0.14725 1.431158,-0.0853 2.045724,0.39883 0.571495,0.45019 0.727604,0.79465 0.727604,1.6055 0,0.87557 -0.118536,1.09363 -0.780611,1.436 -0.958717,0.49577 -1.083598,0.49803 -1.749499,0.0316 z M 9.8435183,251.63311 c -0.2527012,-0.19093 -0.531958,-0.71652 -0.620571,-1.16798 -0.2195679,-1.11862 0.8987987,-2.0682 2.1199397,-1.8 0.957285,0.21026 2.541521,0.93526 2.509567,1.14848 -0.01232,0.0822 -0.473161,0.53628 -1.024096,1.00909 -1.16149,0.9968 -2.321375,1.31172 -2.9848397,0.81041 z m 28.9245277,-1.20705 c -0.700776,-0.65392 -0.789152,-0.92185 -0.87272,-2.64583 -0.05114,-1.05503 -0.08169,-1.91823 -0.06788,-1.91823 0.01381,0 0.517962,0.23812 1.120347,0.52917 0.602387,0.29104 1.20161,0.52916 1.331608,0.52916 0.387445,0 1.028793,0.87446 1.21449,1.65593 0.278334,1.1713 -0.653105,2.57741 -1.707335,2.57741 -0.131323,0 -0.58965,-0.32743 -1.018505,-0.72761 z M 20.77322,249.66278 c -0.669898,-0.85164 -0.708039,-1.98875 -0.08535,-2.54456 0.585801,-0.52288 1.215827,-0.59561 2.711979,-0.31307 0.654844,0.12367 1.279922,0.20017 1.389062,0.17002 0.352874,-0.0975 0.210433,0.39958 -0.215883,0.75339 -0.227876,0.18912 -0.587079,0.67793 -0.798228,1.08625 -0.353057,0.68274 -1.577978,1.54511 -2.194692,1.54511 -0.142185,0 -0.505285,-0.31372 -0.806889,-0.69714 z m 30.485702,-0.42734 c -0.298972,-0.32743 -0.830755,-1.20499 -1.181738,-1.95013 l -0.638154,-1.35482 0.692145,0.19851 c 0.380682,0.10917 1.219131,0.20574 1.863225,0.2146 0.905518,0.0125 1.298739,0.16448 1.73406,0.67046 1.43537,1.66835 -0.985848,3.84625 -2.469538,2.22138 z m 12.002074,-0.76267 c -0.654437,-0.38042 -1.23198,-1.83095 -1.23198,-3.09418 v -1.02958 l 1.360731,0.44359 c 1.573067,0.51282 2.343436,1.32105 2.343436,2.4586 0,1.27582 -1.285835,1.91118 -2.472187,1.22157 z m -32.204009,-0.93248 c -0.361916,-0.95191 -0.314005,-1.25946 0.322201,-2.06826 0.529006,-0.67252 0.684276,-0.71772 2.111098,-0.61451 0.847053,0.0613 1.610135,0.18144 1.695743,0.26705 0.181364,0.18136 -1.117941,2.84216 -1.405742,2.87877 -2.015749,0.25635 -2.47978,0.17745 -2.7233,-0.46305 z m -5.124697,-0.50657 c -1.361529,-1.36153 0.587912,-3.47867 2.863147,-3.10945 1.134599,0.18412 1.363276,0.43028 0.819208,0.88181 -0.216678,0.17983 -0.393962,0.52823 -0.393962,0.77423 0,0.67851 -1.387649,1.86919 -2.178391,1.86919 -0.381825,0 -0.881326,-0.1871 -1.110002,-0.41578 z m 19.957212,-2.02635 c -0.302342,-0.32453 -0.618802,-0.89008 -0.703244,-1.25677 -0.08444,-0.3667 -0.332452,-0.95255 -0.551132,-1.30189 l -0.397606,-0.63515 1.024393,0.16922 c 0.563417,0.0931 1.28315,0.17054 1.599406,0.17214 0.891291,0.005 2.203114,1.24909 2.203114,2.09018 0,0.97783 -0.451408,1.35232 -1.630108,1.35232 -0.688616,0 -1.164424,-0.18174 -1.544823,-0.59005 z m -9.260486,-0.13197 c -1.648785,-0.62764 -0.572211,-3.51132 1.310892,-3.51132 0.951939,0 1.864243,0.80944 1.863786,1.65365 -5.3e-4,0.9279 -1.118563,2.05417 -2.014837,2.02963 -0.419632,-0.0115 -0.941559,-0.0889 -1.159841,-0.17196 z m -5.622395,-0.88668 c -0.607489,-0.35383 -0.583962,-1.52592 0.04711,-2.34705 1.037643,-1.35016 3.751353,-0.42161 3.357224,1.14874 -0.289867,1.15491 -2.277586,1.85458 -3.40433,1.19831 z m 28.496828,-0.89282 c -0.686395,-0.68639 -0.743376,-0.99586 -0.478475,-2.59871 0.161428,-0.97676 0.17898,-0.99013 0.781529,-0.59532 0.339019,0.22213 0.784601,0.40388 0.990182,0.40388 0.511318,0 0.934863,0.56153 1.116632,1.48042 0.111289,0.5626 0.0026,0.92806 -0.405612,1.36385 -0.716092,0.76447 -1.198695,0.75144 -2.004256,-0.0541 z m -18.19485,-1.31864 c -0.263888,-0.20007 -0.700985,-1.09429 -0.971328,-1.98717 -0.450612,-1.48828 -0.454724,-1.6118 -0.04937,-1.48371 0.243186,0.0769 1.033833,0.24999 1.756989,0.38477 2.024957,0.37741 2.783597,1.79774 1.674209,3.13447 -0.364151,0.43878 -1.806109,0.40984 -2.410499,-0.0484 z m -5.89955,-0.68689 c -0.782325,-0.2958 -0.952709,-0.93215 -0.524192,-1.95774 0.470807,-1.1268 0.767667,-1.29474 2.248704,-1.27217 0.668385,0.0102 1.364075,-0.10487 1.545976,-0.2557 0.214059,-0.17749 0.330729,-0.18088 0.330729,-0.01 0,0.14552 -0.170939,0.40645 -0.379867,0.57985 -0.208928,0.17339 -0.4538,0.65187 -0.544163,1.06329 -0.2667,1.21428 -1.714715,2.21603 -2.677187,1.85211 z m 12.382357,-1.3241 c -0.745818,-0.69483 -0.753835,-1.93158 -0.0173,-2.66812 0.489522,-0.48952 0.751478,-0.53947 2.036964,-0.38838 0.811361,0.0954 1.504987,0.20317 1.541394,0.23957 0.0364,0.0364 -0.06215,0.5718 -0.219004,1.18977 -0.489056,1.92673 -2.151647,2.7362 -3.34206,1.62716 z m 9.372513,-1.78435 c -0.280543,-0.54251 -0.352608,-1.19734 -0.245729,-2.23289 l 0.151228,-1.46525 1.177406,0.79462 c 1.490837,1.00616 1.848781,1.72899 1.361766,2.74997 -0.267978,0.56178 -0.579303,0.77873 -1.204545,0.83939 -0.70281,0.0682 -0.909246,-0.046 -1.240126,-0.68584 z m -32.844001,-0.69086 c -0.829998,-1.26674 0.05432,-2.88742 1.833928,-3.36104 1.622143,-0.43171 2.034663,-0.90813 1.840065,-2.12508 -0.229055,-1.43241 0.401225,-2.34711 1.617297,-2.34711 1.532387,0 2.160291,-0.43122 2.047878,-1.4064 -0.136475,-1.18394 0.869484,-2.60212 2.09424,-2.95242 0.521878,-0.14926 1.164924,-0.44998 1.428994,-0.66826 0.446619,-0.36918 0.465947,-0.35071 0.276942,0.26458 -0.111755,0.3638 -0.290492,1.23356 -0.397193,1.9328 -0.234616,1.53747 -1.195599,2.63207 -2.308598,2.62957 -0.896651,-0.002 -1.142045,0.30668 -1.147487,1.44344 -0.0031,0.64635 -0.213215,1.00596 -0.888921,1.52135 -0.48668,0.37121 -1.196274,0.67492 -1.576879,0.67492 -0.589587,0 -0.737444,0.16644 -0.998982,1.12448 -0.685755,2.51202 -0.838518,2.85772 -1.488895,3.3693 -0.913289,0.7184 -1.821619,0.6794 -2.332389,-0.10013 z m 15.682536,0.34766 c -0.688449,-0.40098 -0.589375,-1.72859 0.186933,-2.5049 0.542756,-0.54275 0.873427,-0.64023 2.004873,-0.591 0.745204,0.0324 1.401368,0.13411 1.458142,0.22597 0.135745,0.21965 -0.790038,2.02454 -1.363437,2.65814 -0.489768,0.54118 -1.552044,0.63958 -2.286511,0.21179 z m -4.044082,-0.49514 c -0.738542,-0.29937 -1.080101,-0.7691 -1.392934,-1.91566 -0.257984,-0.94553 -0.241937,-0.98218 0.501658,-1.1455 1.063543,-0.23359 2.308797,0.0851 2.622455,0.67119 0.442378,0.82659 0.301607,1.79049 -0.325657,2.22984 -0.659379,0.46185 -0.660752,0.46201 -1.405522,0.16013 z m 15.988916,-0.56956 c -0.646057,-0.64606 -0.533926,-1.92576 0.232431,-2.65262 0.448207,-0.4251 3.774189,-0.89982 3.754504,-0.53587 -0.0052,0.0953 -0.17953,0.471 -0.387498,0.8348 -0.207968,0.3638 -0.382344,0.92935 -0.387498,1.25677 -0.02315,1.47081 -2.121453,2.18741 -3.211939,1.09692 z M 44.619433,234.432 c -0.471757,-0.47176 -0.384283,-1.92265 0.156152,-2.59007 0.358026,-0.44214 0.729416,-0.57536 1.521354,-0.54572 0.576236,0.0216 1.329148,0.0337 1.673135,0.0269 0.604181,-0.0118 0.610926,0.01 0.198438,0.6394 -0.234847,0.35842 -0.426996,0.87323 -0.426996,1.14403 0,1.19712 -2.281724,2.16579 -3.122083,1.32543 z m -12.885999,-0.63245 c -0.789954,-0.7321 -0.843513,-1.4484 -0.154898,-2.07159 0.756957,-0.68503 1.924468,-0.45214 2.365354,0.47183 0.775049,1.62429 -0.886481,2.82678 -2.210456,1.59976 z m 25.023119,-0.80553 c -0.954103,-1.21294 -0.583364,-2.71348 0.79611,-3.2222 0.807104,-0.29764 3.15626,-0.38555 3.145023,-0.11769 -0.0046,0.11032 -0.183224,0.43169 -0.396875,0.71417 -0.213654,0.28247 -0.388461,0.79765 -0.388461,1.14483 0,0.7675 -1.345179,2.17803 -2.077112,2.17803 -0.291674,0 -0.777081,-0.31371 -1.078685,-0.69714 z m -15.262717,-1.1498 c -0.307525,-0.12425 -0.923076,-0.81738 -1.367893,-1.5403 l -0.808755,-1.31439 1.10331,-0.21125 c 0.606822,-0.11619 1.400966,-0.18048 1.764768,-0.14289 1.547966,0.15997 2.109859,1.82697 0.975136,2.89299 -0.665562,0.62526 -0.82563,0.6556 -1.666566,0.31584 z m -26.974812,-0.65584 c -0.491773,-0.75054 -0.323844,-2.02172 0.339792,-2.57216 0.231432,-0.19196 0.96792,-0.34901 1.636639,-0.34901 1.172036,0 1.218785,-0.0302 1.297206,-0.83903 0.118646,-1.22364 1.208427,-2.20368 2.450439,-2.20368 1.140003,0 1.489574,0.53754 1.06898,1.64379 -0.390275,1.02649 -1.049433,1.53121 -1.999774,1.53121 -0.991704,0 -1.345744,0.32009 -1.611204,1.45669 -0.334994,1.43432 -0.844555,1.98289 -1.841877,1.98289 -0.678775,0 -1.023515,-0.16738 -1.340201,-0.6507 z m 34.945388,0.059 c -0.833012,-0.71653 -0.806794,-1.49314 0.08769,-2.59779 0.421191,-0.52015 0.754642,-0.61471 2.252316,-0.63873 0.966862,-0.0155 1.754146,0.0358 1.749518,0.11406 -0.0046,0.0782 -0.183224,0.37337 -0.396875,0.65585 -0.213654,0.28247 -0.388461,0.7753 -0.388461,1.09517 0,0.82952 -0.790623,1.67082 -1.742771,1.85446 -0.62911,0.12134 -0.987798,0.0104 -1.561417,-0.48302 z m -13.570273,-1.93687 c -0.634863,-0.44468 -0.74994,-1.17248 -0.314148,-1.98677 0.54324,-1.01505 2.913139,-0.44778 3.232579,0.77376 0.161208,0.61646 -0.0181,0.92118 -0.777097,1.32069 -0.787996,0.41477 -1.442413,0.38186 -2.141334,-0.10768 z m 25.480674,-0.10555 c -0.106699,-0.17264 -0.115194,-0.83939 -0.01887,-1.48166 0.217929,-1.45326 0.891318,-1.96967 2.568422,-1.96967 1.210349,0 1.833001,0.31948 1.283975,0.6588 -0.147894,0.0914 -0.268899,0.50315 -0.268899,0.91501 0,1.16958 -0.764968,1.89771 -2.158772,2.05482 -0.784104,0.0884 -1.280327,0.0258 -1.405848,-0.1773 z M 28.9561,227.94925 c -0.448106,-0.16246 -2.116667,-1.68437 -2.116667,-1.93064 0,-0.0882 0.597022,-0.3751 1.326719,-0.63749 1.240877,-0.44622 1.370047,-0.44869 1.996421,-0.0383 0.36834,0.24135 0.802238,0.72969 0.964221,1.0852 0.517933,1.13674 -0.760327,2.03254 -2.170694,1.52121 z m 24.943387,-0.85435 c -0.104762,-1.19215 0.178753,-1.84995 0.974744,-2.26157 0.568639,-0.29406 0.95455,-0.33254 1.449075,-0.14453 1.072729,0.40785 1.472377,0.0931 1.472377,-1.15948 0,-1.32218 0.352232,-1.74441 1.455208,-1.74441 1.048325,0 1.455209,0.41749 1.455209,1.49313 0,1.08011 -0.809305,1.71845 -1.901696,1.49997 -0.856882,-0.17137 -1.514686,0.42754 -1.529474,1.39256 -0.01426,0.93125 -1.117341,1.73382 -2.288061,1.66474 -0.893442,-0.0527 -1.035444,-0.14941 -1.087382,-0.74041 z m -30.39459,-0.661 c -0.513267,-0.22343 -1.084954,-0.82967 -1.525216,-1.61738 -0.387322,-0.693 -0.672718,-1.28311 -0.634214,-1.31137 0.0385,-0.0283 0.829399,0.0255 1.757544,0.11936 1.318613,0.13342 1.795813,0.30446 2.182813,0.78239 0.604475,0.74649 0.632061,1.43677 0.0795,1.98932 -0.499647,0.49965 -0.785867,0.50545 -1.860429,0.0377 z m 22.784023,-1.03599 c -0.81733,-1.2474 0.321857,-3.08383 1.912987,-3.08383 1.444281,0 1.911702,-0.38058 1.743141,-1.41929 -0.206681,-1.27364 0.262618,-1.95521 1.571281,-2.28197 0.615987,-0.15381 1.326722,-0.39598 1.579409,-0.53815 0.710222,-0.39962 0.714796,-0.3646 0.182174,1.39514 -0.542547,1.79253 -1.018008,2.3151 -2.106374,2.3151 -0.895906,0 -1.48359,0.65893 -1.719011,1.92741 -0.240425,1.29545 -0.843823,2.00004 -1.884895,2.201 -0.698621,0.13486 -0.907912,0.0505 -1.278712,-0.51541 z m 19.688325,0.19874 c -0.507267,-0.61122 -0.430244,-2.10913 0.140904,-2.74024 0.63623,-0.70303 2.268035,-0.73615 2.881318,-0.0585 0.602469,0.66572 0.555712,2.04415 -0.09128,2.69114 -0.657524,0.65753 -2.420805,0.72224 -2.930938,0.10757 z m -48.180553,-2.04931 c -0.244081,-0.18558 -0.732917,-0.9912 -1.086303,-1.79027 l -0.64252,-1.45285 1.481023,0.0724 c 0.814563,0.0398 1.52168,0.1944 1.571372,0.34348 0.04969,0.14907 0.314364,0.27104 0.588159,0.27104 0.515729,0 1.045594,0.72341 1.045594,1.42751 0,1.11787 -1.978429,1.87294 -2.957325,1.12867 z m 18.097447,-0.0576 c -0.375116,-0.26274 -0.588039,-0.6865 -0.588039,-1.17032 0,-0.86846 1.147498,-2.3845 1.809456,-2.3906 0.959099,-0.009 1.154512,-0.38892 0.651007,-1.26623 -0.457864,-0.79778 -0.457168,-0.85931 0.01974,-1.74487 0.387713,-0.71994 0.707615,-0.95395 1.483194,-1.08499 l 0.988859,-0.16706 -0.02873,-1.55829 c -0.03209,-1.74071 0.323049,-2.22001 1.872205,-2.52674 1.431412,-0.28342 1.706737,-0.81345 1.309722,-2.52136 -0.187002,-0.80445 -0.427381,-1.60403 -0.534175,-1.77682 -0.11692,-0.18917 -0.03627,-0.31417 0.202702,-0.31417 0.218282,0 0.470459,0.11906 0.560396,0.26458 0.08994,0.14552 0.578625,0.26458 1.085974,0.26458 1.848051,0 2.940854,2.21946 1.673955,3.39975 -0.551788,0.51407 -1.354513,0.49987 -2.03872,-0.0361 -0.49526,-0.38794 -0.618419,-0.1334 -0.707038,1.46128 -0.106275,1.91242 -0.469337,2.50744 -1.738463,2.84918 -1.140669,0.30715 -1.136251,0.29866 -1.16598,2.2413 -0.01884,1.23089 -0.07906,1.34455 -0.926449,1.74837 -1.039841,0.49554 -1.420167,1.28002 -1.197078,2.46917 0.115181,0.61398 0.0081,1.01787 -0.410993,1.55071 -0.637704,0.81071 -1.450454,0.91875 -2.321544,0.30861 z m -12.700841,-0.52975 c -0.413222,-0.28943 -0.587198,-0.68122 -0.587198,-1.32233 0,-1.31511 0.758581,-1.96937 2.283368,-1.96937 h 1.225035 l -0.137542,1.22026 c -0.209097,1.85511 -1.60718,2.89548 -2.783663,2.07144 z M 63.4742,221.13383 c -0.837475,-1.09799 -1.583444,-1.39154 -2.191748,-0.8625 -0.244234,0.21241 -0.563123,0.35262 -0.708644,0.31158 -0.145521,-0.041 -0.567965,-0.14081 -0.938763,-0.22169 -0.42495,-0.0927 -0.888666,-0.5287 -1.254376,-1.17938 -0.319106,-0.56778 -0.759865,-1.18144 -0.979464,-1.36369 -0.801539,-0.66522 -0.405797,-0.8539 1.580565,-0.7536 2.168134,0.10949 2.757715,0.44362 2.884718,1.63482 0.111265,1.0436 0.29187,1.09401 1.540163,0.42987 1.293186,-0.68803 2.202834,-0.71328 2.901966,-0.0806 0.492014,0.44527 0.635916,1.55682 0.275027,2.12439 -0.21839,0.34346 -1.461916,0.87645 -2.044846,0.87645 -0.201401,0 -0.680471,-0.41205 -1.064598,-0.91567 z m -50.831567,-1.61541 c -0.549161,-0.54916 -0.647365,-0.84007 -0.513576,-1.52136 0.09098,-0.46329 0.365168,-0.99118 0.609302,-1.17308 1.672525,-1.24618 3.681649,1.35744 2.194824,2.84427 -0.715248,0.71525 -1.47518,0.66554 -2.29055,-0.14983 z m 14.199174,0.17538 c -1.383073,-0.37895 -1.298237,-2.5017 0.125914,-3.15059 0.773219,-0.3523 2.930952,-0.093 2.533487,0.30451 -0.154289,0.15429 -0.280525,0.65068 -0.280525,1.10308 0,1.4133 -0.974966,2.12766 -2.378876,1.743 z m 27.275681,-2.21226 c -0.34952,-0.17976 -0.761466,-0.56496 -0.91544,-0.856 -0.153974,-0.29104 -0.493083,-0.85177 -0.753576,-1.24606 -0.637161,-0.96442 -0.618445,-1.0029 0.487868,-1.0029 2.609988,0 4.117576,1.32261 3.164904,2.77657 -0.479698,0.73211 -1.023668,0.82215 -1.983756,0.32839 z M 31.12586,216.75051 c -0.544748,-0.50751 -0.655304,-0.79 -0.929057,-2.37393 -0.06288,-0.3638 -0.206518,-0.88185 -0.319204,-1.15122 -0.196385,-0.46944 -0.16936,-0.47139 0.651343,-0.047 0.82764,0.42799 0.850789,0.42563 0.693288,-0.0706 -0.318167,-1.00246 0.2609,-1.8396 1.406358,-2.03313 1.361964,-0.2301 1.739207,-0.71086 1.653349,-2.10704 -0.06043,-0.98272 0.03827,-1.21952 0.762254,-1.82871 1.022509,-0.86038 1.586453,-0.88153 2.332456,-0.0874 0.676968,0.7206 0.728787,1.49832 0.171617,2.57577 -0.353529,0.68365 -0.547204,0.78061 -1.559193,0.78061 -1.272087,0 -1.476721,0.23726 -1.476721,1.71212 0,0.4813 -0.223486,1.15108 -0.496634,1.48841 -0.36476,0.45046 -0.460684,0.88136 -0.361241,1.62275 0.239253,1.78376 -1.270867,2.69117 -2.528615,1.5194 z M 4.9568483,216.47026 c -1.4248924,-0.5271 -1.6277228,-2.72872 -0.3160628,-3.4307 0.8412477,-0.45022 2.5518404,0.10533 2.9387072,0.95442 0.1621838,0.35595 0.3948309,0.64718 0.5169935,0.64718 0.4081708,0 0.2281729,0.46542 -0.2409071,0.62291 -0.2546615,0.0855 -0.8807151,0.44009 -1.3912302,0.78797 -0.6798914,0.4633 -1.0831833,0.57518 -1.5075006,0.41822 z m 4.469975,-0.78107 c -0.8101822,-0.7548 -0.7445729,-1.84878 0.1630252,-2.71832 0.8843715,-0.84728 1.6456465,-0.90553 2.3054835,-0.17642 0.266061,0.29399 1.028654,0.70242 1.694653,0.90761 0.665999,0.2052 0.967,0.38137 0.668893,0.39151 -0.298107,0.0101 -1.037648,0.49468 -1.643423,1.07676 -1.25957,1.21031 -2.269971,1.37472 -3.1886317,0.51886 z m 6.0448357,-1.29522 c -0.55445,-1.036 -0.328334,-2.0656 0.610978,-2.78205 0.96994,-0.73981 1.492513,-0.83754 1.962947,-0.3671 0.1693,0.1693 0.739844,0.29157 1.267877,0.27172 l 0.960059,-0.0361 -0.884231,1.02505 c -0.486327,0.56377 -1.098149,1.33446 -1.359604,1.71264 -0.60107,0.86942 -2.130564,0.97456 -2.558026,0.17583 z m 40.994559,-0.1669 c -0.14192,-0.37328 -0.258035,-0.83634 -0.258035,-1.02903 0,-0.70949 0.971336,-1.53645 2.000758,-1.70337 0.979263,-0.15879 1.0443,-0.22641 1.081,-1.12383 0.06356,-1.55431 0.437854,-1.96134 2.199339,-2.39166 0.880334,-0.21507 1.644705,-0.34694 1.698598,-0.29304 0.05389,0.0539 -0.155038,0.83197 -0.464291,1.72907 -0.527081,1.52899 -0.62856,1.64838 -1.621152,1.90717 -1.466535,0.38236 -1.626195,0.52617 -1.804572,1.62538 -0.20234,1.24687 -0.861277,1.95799 -1.81432,1.95799 -0.571597,0 -0.823076,-0.16777 -1.017325,-0.67868 z m -8.119081,-0.36546 c -0.481417,-0.52376 -1.542711,-2.88199 -1.364668,-3.03232 0.05367,-0.0453 0.799325,-0.002 1.657001,0.0969 1.169606,0.1345 1.682176,0.33094 2.050521,0.78582 0.634695,0.78382 0.622376,1.47494 -0.03806,2.13537 -0.671843,0.67185 -1.694537,0.67815 -2.304796,0.0142 z M 27.90486,212.8186 c -0.632685,-0.17628 -1.058661,-0.96679 -1.441646,-2.67535 -0.08155,-0.3638 -0.261116,-0.83532 -0.399039,-1.04782 -0.214898,-0.33108 -0.328776,-0.31575 -0.796089,0.10716 -0.299926,0.27143 -0.549281,0.62388 -0.554122,0.78323 -0.01234,0.4063 -0.835501,1.34718 -1.48073,1.6925 -0.561234,0.30036 -1.573461,0.16714 -2.148488,-0.28277 -0.540992,-0.42328 -0.378315,-1.65285 0.318095,-2.40429 0.54911,-0.5925 0.871023,-0.7001 2.094618,-0.7001 0.917288,0 1.488945,-0.12089 1.563839,-0.33072 0.08144,-0.22818 0.326338,-0.13942 0.789792,0.28627 0.36952,0.3394 1.152709,0.68151 1.740763,0.76038 1.909072,0.25606 2.913967,2.0276 1.889164,3.33042 -0.309827,0.39389 -0.64398,0.70429 -0.742558,0.68978 -0.09858,-0.0145 -0.473697,-0.10841 -0.833599,-0.20869 z M 27.835,207.92602 c -0.31384,-0.31385 -0.362645,-0.64155 -0.201773,-1.35483 0.338767,-1.50205 0.705527,-1.77406 2.258036,-1.67466 1.449504,0.0928 2.239838,-0.28716 2.239838,-1.07681 0,-0.87889 0.783272,-1.61397 1.719791,-1.61397 1.528377,0 2.241318,1.67857 1.238788,2.91664 -0.49139,0.60684 -1.098119,0.6999 -2.993314,0.45912 -0.921631,-0.1171 -0.959358,-0.0902 -0.926041,0.66147 0.06047,1.36419 -2.408367,2.60999 -3.335325,1.68304 z m -4.874903,-0.16366 c -0.677926,-0.27338 -0.926315,-0.92866 -0.839674,-2.21517 0.07883,-1.17049 -0.127959,-1.39178 -0.950385,-1.01706 -0.5309,0.2419 -0.761972,0.20131 -1.310504,-0.23016 -0.533247,-0.41946 -0.681834,-0.79894 -0.745632,-1.90435 -0.0789,-1.36704 -0.0887,-1.38134 -1.005718,-1.46733 -0.509323,-0.0478 -1.134401,-0.27457 -1.389062,-0.50403 -0.493665,-0.4448 -0.631342,-1.78742 -0.209993,-2.04783 0.139165,-0.086 0.191039,-0.31792 0.115275,-0.51536 -0.09876,-0.25736 0.07303,-0.34165 0.606868,-0.29779 1.878893,0.1544 2.257677,0.6037 2.129359,2.5258 -0.06089,0.91206 -0.04478,0.92727 1.066654,1.0076 1.415166,0.10227 2.059739,0.91195 1.805376,2.26783 -0.189134,1.00817 0.07959,1.22249 1.532788,1.22249 0.468317,0 0.99436,0.14287 1.168985,0.3175 0.446583,0.44658 0.394852,1.83557 -0.09438,2.53404 -0.433604,0.61906 -0.934052,0.70526 -1.879959,0.32382 z m 17.68756,-1.069 c -0.791853,-0.73773 -0.787098,-2.19522 0.009,-2.75282 0.754446,-0.52843 1.082953,-0.51875 1.735979,0.0511 0.884153,0.77161 0.968854,1.82442 0.207992,2.58528 -0.796838,0.79684 -1.196989,0.82069 -1.952953,0.1164 z m 23.167298,0.35709 c -0.294182,-0.0769 -0.464339,-0.37925 -0.466633,-0.82921 -0.0021,-0.38951 -0.07547,-0.97634 -0.163295,-1.30406 -0.133384,-0.49773 -0.0011,-0.66213 0.803405,-0.99826 1.067961,-0.44623 1.789369,-0.23731 2.267854,0.65675 0.422019,0.78854 0.324731,1.30421 -0.378785,2.00773 -0.625329,0.62533 -1.070832,0.72621 -2.062546,0.46705 z M 40.60907,201.30082 c -0.445465,-0.83236 -0.150921,-2.44132 0.511855,-2.79602 0.987039,-0.52825 1.740096,-0.30443 2.607562,0.77502 0.460917,0.57355 0.83803,1.09801 0.83803,1.16548 0,0.0675 -0.527216,0.43163 -1.171593,0.80926 -1.48599,0.87085 -2.336985,0.88498 -2.785854,0.0463 z m 5.697019,-0.13155 c -0.619207,-0.68421 -0.607327,-2.01846 0.02418,-2.71627 0.484021,-0.53483 0.889209,-0.54325 3.210412,-0.0667 0.829464,0.17028 0.847048,0.19751 0.351679,0.54448 -0.286793,0.20087 -0.598054,0.71404 -0.691692,1.14037 -0.204402,0.93063 -0.591085,1.28632 -1.62274,1.49265 -0.57984,0.11597 -0.899636,0.0168 -1.271839,-0.39451 z m 11.305011,-0.025 c -0.319802,-0.12879 -0.768765,-0.59637 -0.997693,-1.03907 -0.588619,-1.13826 -1.525887,-1.69011 -2.505192,-1.47502 -0.439205,0.0965 -1.037005,0.0997 -1.328441,0.007 -0.554106,-0.17587 -1.701313,-2.40155 -1.44861,-2.81043 0.217448,-0.35184 2.870028,-0.2849 3.236603,0.0817 0.174625,0.17463 0.3175,0.77812 0.3175,1.3411 v 1.0236 l 2.050521,-0.17867 c 2.308413,-0.20115 2.816103,0.0676 3.134453,1.65937 0.144457,0.72227 0.06696,0.87115 -0.645176,1.23941 -0.910116,0.47064 -1.001051,0.4782 -1.813965,0.15082 z m -30.642464,-2.91071 c -0.265089,-0.29292 -0.48198,-0.88669 -0.48198,-1.3195 0,-1.86853 1.851603,-2.40005 3.879894,-1.11374 l 1.16424,0.73834 -0.824322,0.81651 c -1.524312,1.50987 -2.878381,1.82808 -3.737832,0.87839 z m 6.504585,-0.95831 c -0.676476,-0.86 -0.689621,-1.89056 -0.03414,-2.67629 0.689333,-0.82631 1.669558,-0.75207 2.620061,0.19843 0.436562,0.43657 1.0708,0.8013 1.409417,0.81052 l 0.615664,0.0168 -0.601179,0.24145 c -0.330647,0.1328 -0.67533,0.45268 -0.76596,0.71084 -0.498809,1.4208 -2.360324,1.82152 -3.243866,0.69827 z m -19.003058,-0.53963 c -1.204598,-0.84029 -0.428678,-2.73198 1.120584,-2.73198 1.204957,0 1.818542,0.64583 1.612242,1.69696 -0.277164,1.4122 -1.518273,1.88225 -2.732826,1.03502 z m 41.482746,-0.33333 c -0.434737,-0.81232 -0.324192,-1.42376 0.398274,-2.20291 0.79361,-0.85588 1.409571,-0.91445 2.220487,-0.21114 0.631883,0.54803 0.59331,1.15473 -0.148177,2.33051 -0.494306,0.78382 -2.067335,0.83701 -2.470584,0.0835 z m -8.27323,-0.21583 c -0.224639,-0.25467 -0.490948,-0.8512 -0.591794,-1.32564 -0.280164,-1.31805 -0.776657,-1.70111 -1.630629,-1.25806 -0.939726,0.48754 -1.84843,0.0523 -2.215962,-1.06131 -0.155208,-0.47029 -0.510617,-1.06179 -0.789798,-1.31444 -0.467304,-0.42291 -0.54153,-0.42545 -0.934981,-0.032 -0.235059,0.23506 -0.721943,0.42738 -1.081964,0.42738 -0.800804,0 -1.95345,-1.096 -1.95345,-1.85745 0,-0.30722 -0.113969,-0.77154 -0.253265,-1.03181 -0.213809,-0.39951 -0.141679,-0.47515 0.463021,-0.48558 0.393957,-0.007 1.036598,-0.0962 1.428091,-0.19866 0.561007,-0.14684 0.855287,-0.0428 1.389063,0.49094 0.372491,0.3725 0.677256,0.97441 0.677256,1.3376 0,0.94032 0.682184,1.23541 1.787941,0.7734 1.5005,-0.62695 2.432574,0.29899 2.208461,2.19393 -0.03606,0.30486 1.510964,0.66157 3.147348,0.72571 0.890133,0.0349 0.929151,0.0789 1.00619,1.13597 0.06535,0.89666 -0.031,1.17752 -0.521894,1.52135 -0.787299,0.55145 -1.625049,0.53522 -2.133634,-0.0413 z m -8.484497,-0.27259 c -0.693179,-0.76595 -0.575945,-2.03694 0.247642,-2.68477 0.87593,-0.68901 1.469861,-0.69449 2.080985,-0.0192 0.26339,0.29105 0.691534,0.52917 0.951434,0.52917 0.666599,0 0.873,0.4603 0.289451,0.64551 -0.267626,0.0849 -0.656307,0.53999 -0.863737,1.01123 -0.309571,0.70328 -0.545497,0.87095 -1.316712,0.93578 -0.656479,0.0552 -1.075,-0.0707 -1.389063,-0.41771 z M 60.76668,194.8752 c -0.424622,-0.15861 -1.121614,-1.48618 -1.110499,-2.11519 0.01582,-0.89481 0.729131,-1.50867 1.720461,-1.48057 0.512847,0.0145 1.106043,0.1705 1.31821,0.34659 0.606856,0.50364 1.186249,0.10974 1.186249,-0.80648 0,-1.69776 1.255826,-2.68333 2.671786,-2.09682 0.901205,0.37329 1.456777,1.57751 1.065281,2.30902 -0.633013,1.1828 -2.186019,1.69658 -3.204887,1.06029 -0.637106,-0.39788 -1.054846,-0.0611 -1.481392,1.19436 -0.297201,0.87475 -1.57217,1.8103 -2.165209,1.5888 z m -12.788142,-2.4866 c -0.421928,-0.42193 -0.517641,-0.75215 -0.395303,-1.36384 0.345276,-1.72638 1.546582,-2.007 3.058705,-0.71451 0.503825,0.43065 0.773983,0.783 0.600353,0.783 -0.173633,0 -0.39119,0.30079 -0.483463,0.66843 -0.308888,1.23072 -1.832861,1.57435 -2.780292,0.62692 z m 5.432221,-1.49784 c -0.864232,-0.59178 -0.556924,-2.25242 0.506479,-2.73694 0.49013,-0.22332 0.814562,-0.1917 1.460521,0.14234 0.930175,0.48101 1.014566,0.87977 0.426755,2.01648 -0.321353,0.62143 -0.577633,0.77978 -1.256771,0.77656 -0.469207,-0.002 -0.980848,-0.0915 -1.136984,-0.19844 z m -18.501534,-2.63784 c -0.853017,-0.20478 -1.190625,-0.61237 -1.190625,-1.43743 0,-1.11878 1.124386,-2.1788 2.063834,-1.94568 0.98093,0.24341 1.904916,1.16396 1.904916,1.89783 0,0.92062 -1.589781,1.77057 -2.778125,1.48528 z"
         id="path2183"
         inkscape:connector-curvature="0" />
      <path
         style="fill:#00ff00;stroke-width:0.26458335"
         d="m 54.165372,277.65177 c -0.363768,-0.10652 -0.867701,-0.72639 -1.322916,-1.62727 -0.776989,-1.53768 -1.092026,-1.67769 -2.736419,-1.21613 -0.914416,0.25666 -1.797185,-0.48307 -2.081475,-1.74422 -0.251989,-1.11786 -0.06315,-1.27298 1.54967,-1.27298 1.15501,0 1.871451,0.62922 1.871451,1.64362 0,0.77045 0.519494,0.99286 2.332498,0.9986 1.412962,0.004 2.046451,0.329 2.552523,1.30763 0.361172,0.69843 0.349271,0.81422 -0.148757,1.44737 -0.54429,0.69195 -0.93187,0.78101 -2.016575,0.46338 z m -42.198349,-3.84006 c -0.793464,-0.60283 -1.051699,-1.68727 -0.606701,-2.5478 0.216754,-0.41916 0.515803,-0.83732 0.664554,-0.92926 0.318775,-0.19701 3.138478,0.39303 3.325676,0.69593 0.170601,0.27603 -0.589822,2.07232 -1.129925,2.66913 -0.4981,0.5504 -1.604222,0.60537 -2.253604,0.112 z m 20.050446,-1.37822 c -0.868532,-0.86853 0.365686,-3.02357 1.731637,-3.02357 0.402606,0 0.805598,0.11906 0.895535,0.26458 0.08994,0.14552 0.396219,0.26458 0.680625,0.26458 0.493946,0 0.498719,0.044 0.106585,0.98251 -0.225785,0.54037 -0.603022,1.19522 -0.838309,1.4552 -0.531529,0.58734 -2.01283,0.61994 -2.576073,0.0567 z m 12.773634,-0.2905 c -0.443863,-0.11783 -0.655876,-0.54911 -1.379657,-2.80653 l -0.405294,-1.26409 1.375495,0.16463 c 1.998062,0.23914 2.704793,0.8316 2.672606,2.24045 -0.03502,1.53292 -0.758079,2.06504 -2.26315,1.66554 z m -27.128644,-0.37167 c -1.161545,-0.43183 -1.526078,-2.19618 -0.622671,-3.01376 0.433319,-0.39214 0.795085,-0.44023 2.189134,-0.29093 1.935348,0.20725 2.583428,0.0342 2.583428,-0.68992 0,-1.55959 1.112085,-2.14797 3.239351,-1.71387 l 1.491503,0.30437 -1.198624,1.38906 c -0.982211,1.13827 -1.351965,1.38906 -2.047927,1.38906 -0.467116,0 -1.000461,-0.14883 -1.185209,-0.33073 -0.269493,-0.26534 -0.449966,-0.19678 -0.912812,0.34675 -0.317299,0.37261 -0.934095,1.09536 -1.370657,1.60611 -0.93143,1.08972 -1.37789,1.29668 -2.165516,1.00386 z m 19.680639,-2.03867 c -1.102098,-1.21781 -0.164608,-2.70398 1.705686,-2.70398 h 0.97911 l -0.773396,-0.7734 c -0.601874,-0.60187 -0.773398,-1.01263 -0.773398,-1.85209 0,-1.04179 0.02941,-1.07848 0.859896,-1.0728 1.800129,0.0123 2.950292,2.00476 1.813499,3.14156 -0.40322,0.40322 -0.45167,0.55673 -0.175718,0.55673 0.276844,0 0.147659,0.41594 -0.472509,1.52135 -0.759973,1.35461 -0.955466,1.53001 -1.783598,1.60034 -0.647383,0.055 -1.0667,-0.072 -1.379572,-0.41771 z m -10.005026,-3.13764 c -0.488542,-0.58866 -0.320381,-1.71459 0.340273,-2.27832 0.589214,-0.50278 1.94051,-0.62445 2.203796,-0.19844 0.08994,0.14552 0.454152,0.26458 0.809366,0.26458 0.355214,0 0.645843,0.0542 0.645843,0.12054 0,0.33698 -1.419154,2.15242 -1.804395,2.30826 -0.804696,0.32553 -1.828824,0.22445 -2.194883,-0.21662 z m 15.839382,-0.1167 c -0.708247,-0.41252 -0.59086,-1.73768 0.220541,-2.48966 0.526105,-0.48758 0.972735,-0.63127 1.938954,-0.62378 l 1.255395,0.01 -0.433954,1.33115 c -0.608772,1.86742 -1.701988,2.51748 -2.980936,1.77256 z m -11.068227,-1.98954 c -0.494639,-0.59601 -0.335143,-2.00846 0.285281,-2.52637 0.399995,-0.3339 0.745149,-0.38581 1.473356,-0.22157 1.268117,0.286 1.308738,0.35403 0.942134,1.57765 -0.448876,1.49821 -1.904976,2.12917 -2.700771,1.17029 z m 25.10768,-0.28668 c 0.190995,-0.0764 0.419198,-0.067 0.507119,0.0209 0.08792,0.0879 -0.06835,0.15045 -0.347266,0.13896 -0.308226,-0.0127 -0.370919,-0.0754 -0.159853,-0.15985 z m -21.106749,-1.72123 c -0.549304,-0.58961 -0.6706,-1.80669 -0.308867,-3.09914 l 0.177864,-0.63549 0.78795,0.87462 c 0.433374,0.48103 1.055844,1.15937 1.383266,1.50741 0.742883,0.78965 0.743907,1.00382 0.0073,1.51978 -0.80748,0.56558 -1.410703,0.51633 -2.047486,-0.16718 z m 11.781147,0.22769 c -0.579509,-0.42374 -0.629999,-1.66307 -0.08976,-2.2033 0.214916,-0.21492 1.063139,-0.482 1.88494,-0.59352 0.821801,-0.11152 1.580041,-0.28863 1.68498,-0.39357 0.104939,-0.10494 0.156131,-0.59319 0.113758,-1.085 -0.127937,-1.48498 0.283884,-1.92569 1.896242,-2.02926 l 1.414447,-0.0909 -0.11738,1.32292 c -0.152432,1.71797 -0.560194,2.12822 -2.057718,2.07026 l -1.187664,-0.046 -0.774483,1.53424 c -0.942298,1.86668 -1.710402,2.28692 -2.767359,1.51405 z m -9.358654,-3.01329 c -0.245806,-0.80091 -0.228362,-1.09552 0.094,-1.5875 0.470823,-0.71857 1.729086,-0.81765 2.259983,-0.17796 0.978509,1.17903 0.286626,2.74887 -1.211524,2.74887 -0.73955,0 -0.876938,-0.11827 -1.142458,-0.98341 z M 7.6340742,258.9608 c -0.4870583,-0.74334 -0.3643562,-1.61529 0.3504403,-2.4903 0.3498062,-0.42821 0.8135734,-0.59018 1.8554396,-0.64802 0.9093289,-0.0505 1.3890629,0.0272 1.3890629,0.22484 0,0.86769 -0.875839,3.06916 -1.3144232,3.30388 -0.8855964,0.47396 -1.8188514,0.3142 -2.2805196,-0.3904 z m 5.9656168,-0.35416 c -0.742689,-0.6014 -0.576862,-1.53383 0.479149,-2.69423 0.654667,-0.71938 0.901067,-0.80185 2.640281,-0.88361 1.903713,-0.0895 2.362773,0.10167 1.435619,0.59787 -0.265436,0.14205 -0.619754,0.71602 -0.787373,1.27549 -0.167619,0.55946 -0.550395,1.28086 -0.850613,1.6031 -0.678444,0.72823 -2.082671,0.77703 -2.917063,0.10138 z m 20.383492,-0.83839 c -1.022718,-1.02272 -0.329478,-3.175 1.022652,-3.175 0.908116,0 1.887765,1.01847 1.887765,1.96257 0,1.58996 -1.788025,2.33482 -2.910417,1.21243 z m 36.796181,-0.95732 c -0.773655,-0.39626 -1.319877,-1.31163 -1.332638,-2.23326 -0.0155,-1.11941 -0.624689,-1.70632 -1.677,-1.61565 -1.077505,0.0928 -1.77196,-0.64578 -1.77196,-1.88462 0,-0.41375 -0.132574,-0.99999 -0.294611,-1.30276 -0.267747,-0.50029 -0.237595,-0.53395 0.33073,-0.36918 0.343937,0.0997 1.020643,0.25313 1.503793,0.34092 1.149438,0.20887 1.74915,1.1132 1.526231,2.30146 -0.183719,0.97931 0.08727,1.22249 1.362294,1.22249 0.813644,0 2.345706,1.10437 2.587078,1.86486 0.205171,0.64645 -0.426231,1.71822 -1.111496,1.88672 -0.264033,0.0649 -0.769123,-0.03 -1.122421,-0.21098 z m -15.431077,-0.91596 c -0.624107,-0.36351 -0.611224,-1.87934 0.02082,-2.45134 1.456113,-1.31776 3.370339,0.44449 2.417254,2.22535 -0.303254,0.56663 -1.64044,0.69058 -2.438087,0.22599 z m -43.958671,-0.6619 c -0.300331,-0.78265 -0.161955,-1.90252 0.302421,-2.44751 0.254662,-0.29887 1.058334,-0.71424 1.785938,-0.92305 0.967627,-0.27769 1.311784,-0.5025 1.281465,-0.83705 -0.02487,-0.27449 0.05475,-0.3612 0.199112,-0.21684 0.212667,0.21266 -0.05073,2.46463 -0.447806,3.82866 -0.25278,0.86834 -2.827912,1.3599 -3.12113,0.59579 z m 9.099817,-0.0389 c -0.536673,-0.2043 -0.784845,-0.61788 -0.789698,-1.31606 -0.01161,-1.67002 1.297443,-2.64408 3.135977,-2.33346 0.648299,0.10953 1.290347,0.0558 1.668809,-0.13966 0.518199,-0.26762 0.483941,-0.17696 -0.217414,0.5754 -0.457894,0.4912 -0.914108,1.28127 -1.013808,1.75571 -0.0997,0.47443 -0.358642,1.03998 -0.575427,1.25677 -0.392394,0.39239 -1.452577,0.48903 -2.208439,0.2013 z m 37.15739,-2.29587 c -0.53054,-0.37161 -1.896295,-2.96265 -1.677146,-3.1818 0.0637,-0.0637 0.708962,-0.19426 1.433928,-0.29015 1.11334,-0.14725 1.431158,-0.0853 2.045724,0.39883 0.575781,0.45357 0.727604,0.79281 0.727604,1.62579 0,0.95106 -0.08854,1.08963 -0.917543,1.43601 -1.109353,0.46351 -0.968373,0.46252 -1.612567,0.0113 z m -46.68239,-1.21545 c 0.218281,-0.14106 0.575469,-0.24993 0.79375,-0.24193 0.261688,0.01 0.216625,0.092 -0.132291,0.24193 -0.727362,0.31256 -1.145108,0.31256 -0.661459,0 z m 14.561393,-0.51177 c -0.583621,-1.0905 -0.267718,-2.25143 0.756813,-2.78123 0.850868,-0.44 4.238029,-0.44847 3.637147,-0.009 -0.458041,0.33492 -1.277501,2.21464 -1.094536,2.51068 0.16918,0.27374 -1.32258,0.79142 -2.280573,0.79142 -0.46573,0 -0.847621,-0.19183 -1.018851,-0.51178 z m -2.655143,-1.44021 c 0,-0.0549 0.20836,-0.2633 0.463021,-0.46302 0.419644,-0.32911 0.429002,-0.31975 0.0999,0.0999 -0.345644,0.44073 -0.562916,0.58089 -0.562916,0.36312 z m 28.068209,-0.96953 c -0.448868,-0.61965 -0.816126,-1.32308 -0.816126,-1.56319 0,-0.2401 -0.130045,-0.56659 -0.288991,-0.72554 -0.208933,-0.20893 0.212522,-0.25307 1.521354,-0.15931 2.026283,0.14515 2.736387,0.64519 2.736387,1.92688 0,0.86247 -0.410612,1.26261 -1.524195,1.48532 -0.728531,0.14571 -0.89647,0.0463 -1.628429,-0.96416 z m -34.947375,-0.015 c -0.636079,-0.17861 -0.638383,-0.18675 -0.06005,-0.21211 0.561567,-0.0246 0.575653,-0.0658 0.21261,-0.62169 -0.646219,-0.98945 0.16288,-2.36556 2.05743,-3.49926 1.128852,-0.6755 1.495454,-0.80195 1.352677,-0.46656 -0.107723,0.25305 -0.311315,0.93634 -0.452429,1.51842 -0.591422,2.43958 -1.750991,3.66288 -3.110241,3.2812 z m 47.269479,-0.27355 c -0.654437,-0.38042 -1.23198,-1.83095 -1.23198,-3.09418 v -1.02958 l 1.360731,0.44359 c 1.573067,0.51282 2.343436,1.32105 2.343436,2.4586 0,1.27582 -1.285835,1.91118 -2.472187,1.22157 z M 31.232509,247.673 c -0.569934,-0.81369 -0.534533,-1.33493 0.149746,-2.20485 0.53966,-0.68607 0.667803,-0.72132 2.137571,-0.58804 0.859923,0.078 1.621626,0.1999 1.692675,0.27095 0.07105,0.0711 -0.178491,0.73633 -0.554527,1.4784 -0.585515,1.15546 -0.793951,1.34923 -1.451359,1.34923 -0.422209,0 -0.943631,0.0675 -1.158716,0.15006 -0.229714,0.0882 -0.566134,-0.0999 -0.81539,-0.45575 z m 14.548151,-2.88962 c -0.376737,-0.44772 -0.684977,-1.01654 -0.684977,-1.26404 0,-0.2475 -0.197755,-0.73233 -0.439454,-1.0774 -0.437113,-0.62407 -0.435351,-0.62637 0.330729,-0.43302 0.4236,0.10692 1.231746,0.23711 1.795878,0.28931 1.245706,0.11528 2.281597,1.00947 2.281597,1.96949 0,0.95277 -0.458356,1.32972 -1.616898,1.32972 -0.771625,0 -1.12858,-0.17433 -1.666875,-0.81406 z m -9.151644,0.092 c -1.648785,-0.62764 -0.572211,-3.51132 1.310892,-3.51132 0.86514,0 1.864108,0.78916 1.864108,1.4726 0,1.54275 -1.66661,2.61291 -3.175,2.03872 z m -4.960937,-0.78329 c 0.254661,-0.0665 0.67138,-0.0665 0.926042,0 0.254661,0.0666 0.0463,0.12101 -0.463021,0.12101 -0.509323,0 -0.717682,-0.0545 -0.463021,-0.12101 z m 27.834762,-1.04687 c -0.68662,-0.74088 -0.735428,-0.99024 -0.487312,-2.48985 l 0.155688,-0.94097 1.26441,0.60512 c 1.159579,0.55495 1.57712,1.10304 1.589778,2.08684 0.0056,0.43199 -1.026306,1.43895 -1.474536,1.43895 -0.219562,0 -0.691174,-0.31504 -1.048028,-0.70009 z m -40.185134,0.0197 c -0.538183,-0.53819 -0.527222,-1.29829 0.03238,-2.24562 0.372125,-0.62996 1.43136,-1.17271 2.063753,-1.05747 0.271726,0.0495 1.632667,-0.75018 1.971529,-1.15848 0.596285,-0.71849 0.868638,-0.44856 0.322,0.31912 -0.287245,0.4034 -0.720215,1.41439 -0.962157,2.24664 -0.25639,0.88195 -0.677646,1.67971 -1.009834,1.91238 -0.7394,0.5179 -1.891099,0.51 -2.417673,-0.0166 z m 21.990892,-1.28772 c -0.263888,-0.20006 -0.702387,-1.09892 -0.974442,-1.99746 -0.446339,-1.47415 -0.452329,-1.61747 -0.06134,-1.46743 0.238321,0.0915 0.94465,0.23636 1.56962,0.32202 1.475766,0.20228 2.560486,1.22073 2.32841,2.18615 -0.302372,1.25785 -1.80331,1.75954 -2.862252,0.95672 z m -7.737867,-0.27247 c -0.282474,-0.21365 -0.379341,-0.39224 -0.215257,-0.39688 0.164081,-0.005 0.446551,0.17018 0.627708,0.38847 0.418251,0.50396 0.247333,0.50745 -0.412451,0.008 z m 1.838317,-0.41362 c -0.821994,-0.31197 -0.966787,-0.99741 -0.43878,-2.07712 0.44304,-0.90597 0.545661,-0.96165 1.915311,-1.03925 0.795952,-0.0451 1.599623,-0.2085 1.785938,-0.36312 0.239159,-0.19849 0.338748,-0.19842 0.338748,2.3e-4 0,0.15475 -0.115673,0.35285 -0.25705,0.44023 -0.141378,0.0874 -0.481756,0.65995 -0.756399,1.27238 -0.578474,1.28997 -1.745147,2.08644 -2.587768,1.76665 z m 12.378587,-1.39778 c -0.647906,-0.68967 -0.711094,-1.18134 -0.274865,-2.13876 0.396608,-0.87046 0.849352,-1.01275 2.547305,-0.80061 1.163569,0.14538 1.387467,0.25416 1.250635,0.60764 -0.09167,0.2368 -0.233473,0.76161 -0.315121,1.16624 -0.174429,0.86441 -1.229239,1.77785 -2.053008,1.77785 -0.318812,0 -0.838536,-0.27556 -1.154946,-0.61236 z m 9.849218,-1.17763 c -0.628161,-0.41943 -0.8664,-1.33532 -0.71895,-2.76397 l 0.151514,-1.46801 1.158015,0.78154 c 0.636907,0.42984 1.279448,1.00843 1.427869,1.28576 0.695007,1.29864 -0.843849,2.94898 -2.018448,2.16468 z m -17.502108,-0.91418 c -0.82018,-0.39556 -0.793065,-1.62005 0.05464,-2.46776 0.542756,-0.54275 0.873427,-0.64023 2.004873,-0.591 0.745204,0.0324 1.401368,0.13411 1.458142,0.22597 0.135745,0.21965 -0.790038,2.02454 -1.363437,2.65814 -0.498258,0.55057 -1.248619,0.6114 -2.154218,0.17465 z m -4.781791,-0.93385 c -0.297516,-0.25466 -0.654905,-0.89722 -0.794197,-1.42791 -0.24397,-0.92949 -0.225198,-0.9705 0.511625,-1.11787 1.087659,-0.21753 2.327706,0.0871 2.626365,0.64511 0.350798,0.65547 0.32009,1.66378 -0.06231,2.04619 -0.463941,0.46394 -1.658472,0.38775 -2.281478,-0.14552 z m 16.75184,0.0971 c -0.336598,-0.24612 -0.500362,-0.69026 -0.500362,-1.357 0,-1.23917 0.815496,-1.97976 2.185665,-1.9849 0.529582,-0.002 1.242607,-0.0785 1.584499,-0.17003 l 0.621623,-0.16642 -0.464968,0.89763 c -0.25573,0.4937 -0.505968,1.25483 -0.556083,1.69139 -0.05011,0.43656 -0.292192,0.94258 -0.537953,1.12448 -0.590635,0.43716 -1.709563,0.4203 -2.332421,-0.0351 z M 44.619433,234.432 c -0.471757,-0.47176 -0.384283,-1.92265 0.156152,-2.59007 0.358026,-0.44214 0.729416,-0.57536 1.521354,-0.54572 0.576236,0.0216 1.329148,0.0337 1.673135,0.0269 0.604181,-0.0118 0.610926,0.01 0.198438,0.6394 -0.234847,0.35842 -0.426996,0.87323 -0.426996,1.14403 0,1.19712 -2.281724,2.16579 -3.122083,1.32543 z m -12.856559,-0.65151 c -0.813673,-0.75448 -0.843706,-1.07473 -0.175874,-1.87526 0.85213,-1.02146 2.173351,-0.62315 2.491044,0.75097 0.330338,1.42881 -1.19035,2.16728 -2.31517,1.12429 z m 25.111173,-0.72232 c -0.824725,-0.82473 -0.849966,-1.77514 -0.07055,-2.65655 0.48074,-0.54365 0.916103,-0.70162 2.262126,-0.82082 l 1.666814,-0.14762 -0.378177,0.73993 c -0.207999,0.40696 -0.458798,1.11454 -0.557331,1.57239 -0.197012,0.91544 -0.7591,1.52219 -1.66611,1.79851 -0.434047,0.13223 -0.767668,0.003 -1.256771,-0.48584 z m -15.380211,-1.21395 c -0.307525,-0.12425 -0.923076,-0.81738 -1.367893,-1.5403 l -0.808755,-1.31439 1.10331,-0.21125 c 0.606822,-0.11619 1.400966,-0.18048 1.764768,-0.14289 1.547966,0.15997 2.109859,1.82697 0.975136,2.89299 -0.665562,0.62526 -0.82563,0.6556 -1.666566,0.31584 z m -26.974812,-0.65584 c -0.850094,-1.29741 0.260232,-3.23499 1.653424,-2.88532 0.33705,0.0846 0.894306,0.0832 1.238347,-0.003 0.497314,-0.12482 0.5998,-0.29159 0.500006,-0.81363 -0.274834,-1.4377 2.450996,-2.97507 3.351378,-1.89017 0.765112,0.92191 -0.537783,2.80344 -1.941281,2.80344 -1.018739,0 -1.281691,0.25962 -1.741881,1.71979 -0.460505,1.46117 -0.72308,1.71979 -1.74609,1.71979 -0.65084,0 -1.001253,-0.17354 -1.313903,-0.6507 z m 34.945388,0.059 c -0.833012,-0.71653 -0.806794,-1.49314 0.08769,-2.59779 0.421191,-0.52015 0.754642,-0.61471 2.252316,-0.63873 0.966862,-0.0155 1.754146,0.0358 1.749518,0.11406 -0.0046,0.0782 -0.183224,0.37337 -0.396875,0.65585 -0.213654,0.28247 -0.388461,0.7753 -0.388461,1.09517 0,0.82952 -0.790623,1.67082 -1.742771,1.85446 -0.62911,0.12134 -0.987798,0.0104 -1.561417,-0.48302 z m -13.570273,-1.93687 c -0.634863,-0.44468 -0.74994,-1.17248 -0.314148,-1.98677 0.54324,-1.01505 2.913139,-0.44778 3.232579,0.77376 0.161208,0.61646 -0.0181,0.92118 -0.777097,1.32069 -0.787996,0.41477 -1.442413,0.38186 -2.141334,-0.10768 z m 25.671857,-0.0161 c -0.773748,-0.33984 -0.0042,-3.09221 0.949139,-3.39479 0.293937,-0.0933 1.026859,-0.14057 1.628722,-0.10505 0.961205,0.0567 1.076569,0.13055 0.948548,0.60714 -0.08016,0.29842 -0.147373,0.79728 -0.14936,1.10858 -0.0058,0.91397 -0.828334,1.65881 -1.987987,1.80027 -0.582083,0.071 -1.207161,0.0637 -1.389062,-0.0161 z m -27.839035,-0.53187 c -0.01289,-0.46039 0.744638,-2.15871 1.045964,-2.34494 0.55467,-0.34281 0.245724,1.18463 -0.384506,1.901 -0.359204,0.4083 -0.65686,0.60807 -0.661458,0.44394 z M 28.9561,227.94925 c -0.448106,-0.16246 -2.116667,-1.68437 -2.116667,-1.93064 0,-0.0882 0.597022,-0.3751 1.326719,-0.63749 1.242399,-0.44676 1.369417,-0.44911 1.998607,-0.0369 0.797753,0.52271 1.242869,1.51055 0.808553,1.79441 -0.163581,0.10691 -0.193545,0.19621 -0.06659,0.19843 0.12696,0.002 0.08262,0.18265 -0.09854,0.40093 -0.328546,0.39587 -1.100055,0.48386 -1.852083,0.21121 z m 24.943387,-0.85435 c -0.104762,-1.19215 0.178753,-1.84995 0.974744,-2.26157 0.568639,-0.29406 0.95455,-0.33254 1.449075,-0.14453 1.072729,0.40785 1.472377,0.0931 1.472377,-1.15948 0,-1.32218 0.352232,-1.74441 1.455208,-1.74441 1.048325,0 1.455209,0.41749 1.455209,1.49313 0,1.08011 -0.809305,1.71845 -1.901696,1.49997 -0.856882,-0.17137 -1.514686,0.42754 -1.529474,1.39256 -0.01426,0.93125 -1.117341,1.73382 -2.288061,1.66474 -0.893442,-0.0527 -1.035444,-0.14941 -1.087382,-0.74041 z m -30.39459,-0.66318 c -0.514803,-0.22274 -1.083636,-0.82513 -1.525216,-1.6152 -0.387322,-0.693 -0.672718,-1.28311 -0.634214,-1.31137 0.0385,-0.0283 0.829399,0.0255 1.757544,0.11936 1.318613,0.13342 1.795813,0.30446 2.182813,0.78239 1.18427,1.46251 0.0087,2.79912 -1.780927,2.02482 z m 23.070754,-0.75912 c -1.263772,-0.92511 -0.08547,-3.35852 1.626256,-3.35852 1.489417,0 1.892983,-0.36158 1.733196,-1.55289 -0.109474,-0.81618 -0.02148,-1.14838 0.421529,-1.59139 0.307938,-0.30794 0.768244,-0.569 1.022905,-0.58013 0.602811,-0.0264 1.139942,-0.14637 1.750325,-0.39109 0.399238,-0.16006 0.465447,-0.10175 0.346477,0.30517 -0.08089,0.27667 -0.27727,1.00703 -0.436393,1.62302 -0.303485,1.17482 -0.866852,1.65814 -1.932736,1.65814 -0.853295,0 -1.42811,0.68966 -1.743033,2.09129 -0.143031,0.63658 -0.417814,1.3116 -0.610629,1.50003 -0.56968,0.55675 -1.62587,0.70047 -2.177897,0.29637 z m 19.428545,-0.0435 c -0.578332,-0.69685 -0.447956,-2.2673 0.234071,-2.81957 1.201608,-0.97301 3.199083,-0.28029 3.199083,1.10943 0,0.62248 -0.467516,1.60833 -0.899504,1.89678 -0.510696,0.341 -2.198963,0.21663 -2.53365,-0.18664 z m -48.207504,-2.08178 c -0.244081,-0.18558 -0.734127,-0.99394 -1.088992,-1.79635 l -0.645209,-1.45893 1.485867,0.11972 c 0.817227,0.0658 1.525554,0.22314 1.574061,0.34955 0.04851,0.12641 0.312209,0.22983 0.586004,0.22983 1.071307,0 1.268856,1.81672 0.279488,2.57026 -0.551667,0.42017 -1.629178,0.41324 -2.191219,-0.0141 z m 5.397446,-0.5868 c -0.402688,-0.28206 -0.588038,-0.6831 -0.588038,-1.27235 0,-1.32352 0.511047,-1.80587 2.07225,-1.95588 1.235197,-0.11869 1.367333,-0.0802 1.367333,0.39837 0,1.38274 -0.370713,2.25577 -1.163017,2.7389 -0.992035,0.60493 -0.957388,0.60307 -1.688528,0.091 z M 12.642633,219.5184 c -0.542469,-0.54247 -0.646268,-0.84264 -0.516225,-1.49286 0.08952,-0.44762 0.370719,-0.97172 0.624877,-1.16467 1.674055,-1.27088 3.679637,1.30962 2.181898,2.80736 -0.715248,0.71525 -1.47518,0.66554 -2.29055,-0.14983 z m 14.148112,0.11271 c -1.044134,-0.38217 -1.272481,-1.67296 -0.442398,-2.50077 0.641817,-0.64006 1.058416,-0.75126 2.543848,-0.67903 0.73583,0.0358 0.825164,0.10975 0.609769,0.50494 -0.138803,0.25466 -0.324813,0.91489 -0.41335,1.46717 -0.120275,0.75023 -0.328996,1.06802 -0.825429,1.25677 -0.365448,0.13894 -0.686464,0.24322 -0.713372,0.23173 -0.02691,-0.0115 -0.368488,-0.13785 -0.759068,-0.28081 z m 10.65291,-1.70472 c 0.0127,-0.30823 0.07539,-0.37092 0.159851,-0.15985 0.07643,0.19099 0.06703,0.41919 -0.02088,0.50711 -0.08792,0.0879 -0.150452,-0.0684 -0.138964,-0.34726 z m -6.365909,-1.29557 c -0.339037,-0.36089 -0.70099,-1.16456 -0.804341,-1.78594 -0.103352,-0.62138 -0.287467,-1.36758 -0.409147,-1.65823 -0.21559,-0.51496 -0.203231,-0.51665 0.484325,-0.0661 0.912879,0.59814 0.904285,0.60137 0.931328,-0.34979 0.03112,-1.09469 0.420736,-1.49462 1.660025,-1.704 1.244137,-0.21019 1.556235,-0.66871 1.374984,-2.02003 -0.118279,-0.88184 -0.02764,-1.10932 0.720503,-1.80819 1.051835,-0.98256 1.655226,-1.00862 2.36814,-0.1023 0.6507,0.82723 0.688345,1.43971 0.152212,2.47647 -0.340616,0.65868 -0.57246,0.7774 -1.653646,0.84676 l -1.257488,0.0807 -0.137567,1.36712 c -0.07566,0.75191 -0.340011,1.59081 -0.587441,1.86422 -0.330893,0.36563 -0.407556,0.75789 -0.289864,1.48314 0.296222,1.8254 -1.314188,2.69385 -2.552023,1.37624 z m 26.932911,0.47542 c 0.190995,-0.0764 0.419198,-0.067 0.507119,0.0209 0.08792,0.0879 -0.06835,0.15046 -0.347266,0.13897 -0.308226,-0.0127 -0.370919,-0.0754 -0.159853,-0.15985 z m -1.49542,-2.87442 c -0.168881,-0.37065 -0.307054,-0.83371 -0.307054,-1.02902 0,-0.71145 0.969304,-1.54094 2.000758,-1.71216 0.918731,-0.15251 1.040717,-0.25805 1.03152,-0.89248 -0.0057,-0.39573 0.07982,-0.71952 0.190133,-0.71952 0.11031,0 0.142142,-0.15224 0.07074,-0.33832 -0.236863,-0.61725 0.524692,-1.20139 2.064663,-1.58368 0.836744,-0.20772 1.518443,-0.30673 1.514885,-0.22002 -0.03108,0.75747 -0.636434,2.62291 -0.971214,2.99284 -0.229836,0.25396 -0.814012,0.53607 -1.298173,0.6269 -1.046374,0.1963 -1.297014,0.47212 -1.526514,1.67992 -0.224946,1.18381 -0.867656,1.86945 -1.752417,1.86945 -0.504367,0 -0.799288,-0.19537 -1.017326,-0.67391 z m -3.002497,0.22858 c 0.190995,-0.0764 0.419198,-0.067 0.507119,0.0209 0.08792,0.0879 -0.06835,0.15045 -0.347265,0.13897 -0.308227,-0.0127 -0.37092,-0.0754 -0.159854,-0.15986 z m -25.563777,-1.61376 c -0.633187,-0.10199 -0.810453,-0.40754 -1.441851,-2.4853 -0.350758,-1.15424 -0.343335,-1.24561 0.110851,-1.36438 0.267731,-0.07 0.417112,-0.0146 0.331958,0.12321 -0.09178,0.14851 0.124334,0.18045 0.53073,0.0785 1.497923,-0.37596 2.863098,1.39238 2.145797,2.77949 -0.430398,0.8323 -0.779669,1.01313 -1.677485,0.86852 z m -4.747551,-4.4733 c 0.254662,-0.0665 0.671381,-0.0665 0.926042,0 0.254661,0.0666 0.0463,0.121 -0.463021,0.121 -0.509323,0 -0.717682,-0.0545 -0.463021,-0.121 z m 5.440495,-0.26294 c 0.190995,-0.0764 0.419198,-0.067 0.507119,0.0209 0.08792,0.0879 -0.06835,0.15045 -0.347266,0.13896 -0.308226,-0.0127 -0.370919,-0.0754 -0.159853,-0.15985 z m -5.710829,-0.40933 c -0.658924,-0.31756 -0.994358,-1.22643 -0.769698,-2.08552 0.260684,-0.99686 -0.04879,-1.30511 -1.13579,-1.13129 -0.842622,0.13474 -1.062119,0.0644 -1.427407,-0.45707 -0.252931,-0.36111 -0.431666,-1.13968 -0.431666,-1.88034 v -1.26404 h -1.043331 c -0.778211,0 -1.147992,-0.14942 -1.455208,-0.58804 -0.474656,-0.67766 -0.541672,-1.68176 -0.129257,-1.93665 0.155441,-0.0961 0.218144,-0.34269 0.13934,-0.54805 -0.106887,-0.27854 0.02294,-0.33895 0.511129,-0.23782 0.359925,0.0746 0.937839,0.19379 1.284253,0.26496 0.722148,0.14836 0.98038,0.84848 0.776455,2.10512 -0.16279,1.00316 0.182724,1.33767 1.294204,1.25297 1.13098,-0.0862 1.847796,0.79623 1.747326,2.15096 l -0.0822,1.10843 1.275202,0.1465 c 0.701361,0.0806 1.384147,0.31869 1.517303,0.52916 0.370782,0.58606 0.295919,1.65487 -0.161675,2.30817 -0.447967,0.63957 -0.976001,0.71219 -1.908977,0.26255 z m 41.016168,-0.65498 c -0.439534,-0.0847 -0.596258,-0.30025 -0.598925,-0.82387 -0.0021,-0.39006 -0.07538,-0.97701 -0.163105,-1.30433 -0.130836,-0.48822 -0.0046,-0.66025 0.702588,-0.95761 1.033624,-0.4346 1.725771,-0.29498 2.250348,0.45396 0.557538,0.796 0.481748,1.42674 -0.260652,2.16914 -0.646057,0.64606 -0.794086,0.68154 -1.930254,0.46271 z m -23.211772,-5.62813 c -0.577702,-0.63835 -0.396624,-2.3373 0.303697,-2.84939 0.935548,-0.68409 1.862579,-0.40694 2.697387,0.80641 l 0.782963,1.13799 -1.128726,0.71409 c -1.342413,0.84927 -2.015696,0.89768 -2.655321,0.1909 z m 5.670942,-0.22723 c -0.733719,-0.59413 -0.772017,-1.96882 -0.07627,-2.73761 0.487616,-0.53881 0.931074,-0.54392 2.967939,-0.0342 0.784643,0.19635 0.843458,0.26686 0.476555,0.57137 -0.230209,0.19105 -0.549802,0.74504 -0.710211,1.23108 -0.20583,0.62368 -0.532852,0.9678 -1.11135,1.16946 -1.00901,0.35175 -0.837849,0.37389 -1.546667,-0.20008 z m 11.204683,-0.0465 c -0.319802,-0.12879 -0.768765,-0.59637 -0.997693,-1.03907 -0.605806,-1.1715 -1.495388,-1.67128 -2.604442,-1.46322 -0.978654,0.18359 -2.032992,-0.20227 -2.035744,-0.74504 -7.94e-4,-0.17678 -0.178858,-0.66123 -0.39547,-1.07656 -0.216615,-0.41533 -0.327917,-0.86181 -0.247341,-0.99219 0.218006,-0.35274 2.870073,-0.28683 3.237357,0.0804 0.174625,0.17463 0.3175,0.77812 0.3175,1.3411 v 1.0236 l 2.050521,-0.17867 c 2.308413,-0.20115 2.816103,0.0676 3.134453,1.65937 0.144457,0.72227 0.06696,0.87115 -0.645176,1.23941 -0.910116,0.47063 -1.001051,0.4782 -1.813965,0.15082 z m -30.615307,-2.8807 c -0.604918,-0.66843 -0.616701,-2.01757 -0.02335,-2.67322 0.696817,-0.76998 2.040196,-0.6824 3.27715,0.21365 l 1.024329,0.74202 -0.543314,0.74585 c -0.556472,0.76391 -1.897594,1.47427 -2.783337,1.47427 -0.273164,0 -0.701329,-0.22615 -0.951481,-0.50257 z m 6.477428,-0.98832 c -0.676476,-0.86 -0.689621,-1.89056 -0.03414,-2.67629 0.689333,-0.82631 1.669558,-0.75207 2.620061,0.19843 0.436562,0.43657 1.0708,0.8013 1.409417,0.81052 l 0.615664,0.0168 -0.578017,0.23288 c -0.317907,0.12809 -0.72431,0.5075 -0.903113,0.84313 -0.764728,1.43546 -2.239703,1.70623 -3.129875,0.57455 z m -18.744225,-0.42209 c -1.429037,-0.68871 -0.799081,-2.84952 0.830739,-2.84952 0.919213,0 1.754699,0.65433 1.754699,1.37422 0,0.60785 -1.033017,1.80336 -1.540557,1.78288 -0.2441,-0.01 -0.714296,-0.14826 -1.044881,-0.30758 z m 41.208056,-0.61778 c -0.377901,-0.99396 -0.328948,-1.23463 0.414131,-2.036 0.788996,-0.8509 1.345843,-0.89976 2.194478,-0.19255 0.56311,0.46926 0.59046,0.59724 0.309539,1.44844 -0.338309,1.02508 -0.925401,1.45879 -1.974712,1.45879 -0.492281,0 -0.758106,-0.19123 -0.943436,-0.67868 z m -8.286818,-0.0698 c -0.240837,-0.26612 -0.438616,-0.7126 -0.439513,-0.99218 -7.94e-4,-0.27959 -0.172725,-0.83633 -0.381841,-1.23721 -0.370446,-0.71015 -0.363638,-0.72471 0.265104,-0.56691 0.354925,0.0891 1.211363,0.17895 1.903196,0.19971 l 1.257879,0.0377 0.08015,1.09967 c 0.06535,0.89666 -0.031,1.17752 -0.521894,1.52135 -0.795909,0.55748 -1.623843,0.53368 -2.163079,-0.0622 z m -8.482534,-0.35429 c -0.641414,-0.91575 -0.531455,-1.94778 0.275124,-2.58223 0.87593,-0.68901 1.469861,-0.69449 2.080985,-0.0192 0.26339,0.29105 0.698561,0.52917 0.96705,0.52917 0.570222,0 0.645459,0.40963 0.131222,0.71446 -0.196315,0.11637 -0.524581,0.56877 -0.729482,1.00533 -0.299244,0.63757 -0.562457,0.80962 -1.337715,0.87437 -0.758889,0.0634 -1.055365,-0.0481 -1.387184,-0.52189 z m 20.815154,-1.95781 c -0.404971,-0.84923 -0.410287,-1.01505 -0.05302,-1.65365 0.469588,-0.83937 1.299872,-1.01592 2.662661,-0.56615 0.858472,0.28332 0.938789,0.37629 0.609521,0.70556 -0.208585,0.20859 -0.379244,0.60887 -0.379244,0.88951 0,0.71849 -0.93437,1.5686 -1.724072,1.5686 -0.502738,0 -0.775944,-0.2311 -1.115841,-0.94387 z m -16.257796,-0.57748 c -0.216869,-0.25466 -0.543878,-0.84142 -0.726689,-1.30391 -0.415409,-1.05092 -0.92207,-1.25765 -1.751079,-0.71446 -0.399232,0.26159 -0.89703,0.35997 -1.304242,0.25777 -0.679627,-0.17058 -1.581999,-1.53945 -1.380249,-2.0938 0.06261,-0.17203 -0.07899,-0.53697 -0.314661,-0.81097 -0.403966,-0.46967 -0.394986,-0.48776 0.156824,-0.31607 0.321923,0.10016 0.838742,0.0465 1.148482,-0.11929 1.124834,-0.60199 2.919336,0.80248 2.481887,1.94245 -0.078,0.20326 0.154196,0.48385 0.549404,0.66392 0.545404,0.24851 0.833478,0.23484 1.417638,-0.0672 1.485987,-0.76843 2.748073,0.88664 1.893604,2.48323 -0.36308,0.67842 -1.621239,0.72384 -2.170919,0.0784 z m 4.253481,-0.88746 c -0.421928,-0.42193 -0.517641,-0.75215 -0.395303,-1.36384 0.345276,-1.72638 1.546582,-2.007 3.058705,-0.71451 0.503825,0.43065 0.779737,0.783 0.61314,0.783 -0.166598,0 -0.378259,0.23742 -0.470358,0.5276 -0.430924,1.35772 -1.8327,1.74124 -2.806184,0.76775 z m 16.630166,-0.27996 c -0.789345,-0.28829 -0.962335,-1.15731 -0.481915,-2.42091 0.347329,-0.91354 1.755264,-1.37699 2.567152,-0.84503 1.438264,0.94239 1.342551,2.39597 -0.210659,3.19916 -0.824841,0.42654 -0.883809,0.42864 -1.874578,0.0668 z m -11.197945,-1.21788 c -0.864232,-0.59178 -0.556924,-2.25242 0.506479,-2.73694 0.49013,-0.22332 0.814562,-0.1917 1.460521,0.14234 0.930175,0.48101 1.014566,0.87977 0.426755,2.01648 -0.321353,0.62143 -0.577633,0.77978 -1.256771,0.77656 -0.469207,-0.002 -0.980848,-0.0915 -1.136984,-0.19844 z m -18.853324,-2.85885 c -0.681464,-0.28653 -0.838835,-0.50401 -0.838835,-1.15922 0,-1.78147 2.315728,-2.57206 3.42038,-1.16772 0.634227,0.80629 0.675994,1.14535 0.217641,1.7668 -0.522002,0.70774 -1.827057,0.96889 -2.799186,0.56014 z"
         id="path2181"
         inkscape:connector-curvature="0" />
      <path
         style="fill:#00ffff;stroke-width:0.26458335"
         d="m 54.165372,277.65177 c -0.363768,-0.10652 -0.867701,-0.72639 -1.322916,-1.62727 -0.776989,-1.53768 -1.092026,-1.67769 -2.736419,-1.21613 -0.914416,0.25666 -1.797185,-0.48307 -2.081475,-1.74422 -0.251989,-1.11786 -0.06315,-1.27298 1.54967,-1.27298 1.15501,0 1.871451,0.62922 1.871451,1.64362 0,0.77045 0.519494,0.99286 2.332498,0.9986 1.412962,0.004 2.046451,0.329 2.552523,1.30763 0.361172,0.69843 0.349271,0.81422 -0.148757,1.44737 -0.54429,0.69195 -0.93187,0.78101 -2.016575,0.46338 z m -22.147903,-5.21828 c -0.868532,-0.86853 0.365686,-3.02357 1.731637,-3.02357 0.402606,0 0.805598,0.11906 0.895535,0.26458 0.08994,0.14552 0.396219,0.26458 0.680625,0.26458 0.493946,0 0.498719,0.044 0.106585,0.98251 -0.225785,0.54037 -0.603022,1.19522 -0.838309,1.4552 -0.531529,0.58734 -2.01283,0.61994 -2.576073,0.0567 z m 12.773634,-0.2905 c -0.443863,-0.11783 -0.655876,-0.54911 -1.379657,-2.80653 l -0.405294,-1.26409 1.375495,0.16463 c 1.998062,0.23914 2.704793,0.8316 2.672606,2.24045 -0.03502,1.53292 -0.758079,2.06504 -2.26315,1.66554 z m -7.448005,-2.41034 c -1.102098,-1.21781 -0.164608,-2.70398 1.705686,-2.70398 h 0.97911 l -0.773396,-0.7734 c -0.601874,-0.60187 -0.773398,-1.01263 -0.773398,-1.85209 0,-1.04179 0.02941,-1.07848 0.859896,-1.0728 1.800129,0.0123 2.950292,2.00476 1.813499,3.14156 -0.40322,0.40322 -0.45167,0.55673 -0.175718,0.55673 0.276844,0 0.147659,0.41594 -0.472509,1.52135 -0.759973,1.35461 -0.955466,1.53001 -1.783598,1.60034 -0.647383,0.055 -1.0667,-0.072 -1.379572,-0.41771 z m 5.834356,-3.25434 c -0.708247,-0.41252 -0.59086,-1.73768 0.220541,-2.48966 0.526105,-0.48758 0.972735,-0.63127 1.938954,-0.62378 l 1.255395,0.01 -0.433954,1.33115 c -0.608772,1.86742 -1.701988,2.51748 -2.980936,1.77256 z m 14.039453,-2.27622 c 0.190995,-0.0764 0.419198,-0.067 0.507119,0.0209 0.08792,0.0879 -0.06835,0.15045 -0.347266,0.13896 -0.308226,-0.0127 -0.370919,-0.0754 -0.159853,-0.15985 z m -21.106749,-1.72123 c -0.546365,-0.58645 -0.671089,-1.80861 -0.314039,-3.07722 0.165891,-0.58943 0.189865,-0.59463 0.609221,-0.13229 0.240094,0.2647 0.864892,0.93966 1.388438,1.49992 1.115947,1.19419 1.142543,1.33136 0.363866,1.87677 -0.807479,0.56558 -1.410703,0.51633 -2.047486,-0.16718 z m 11.781147,0.22769 c -0.579509,-0.42374 -0.629999,-1.66307 -0.08976,-2.2033 0.214916,-0.21492 1.063139,-0.482 1.88494,-0.59352 0.821801,-0.11152 1.580041,-0.28863 1.68498,-0.39357 0.104939,-0.10494 0.156131,-0.59319 0.113758,-1.085 -0.127937,-1.48498 0.283884,-1.92569 1.896242,-2.02926 l 1.414447,-0.0909 -0.11738,1.32292 c -0.152432,1.71797 -0.560194,2.12822 -2.057718,2.07026 l -1.187664,-0.046 -0.774483,1.53424 c -0.942298,1.86668 -1.710402,2.28692 -2.767359,1.51405 z m -34.291614,-4.10191 c -0.742689,-0.6014 -0.576862,-1.53383 0.479149,-2.69423 0.654667,-0.71938 0.901067,-0.80185 2.640281,-0.88361 1.903713,-0.0895 2.362773,0.10167 1.435619,0.59787 -0.265436,0.14205 -0.619754,0.71602 -0.787373,1.27549 -0.167619,0.55946 -0.550395,1.28086 -0.850613,1.6031 -0.678444,0.72823 -2.082671,0.77703 -2.917063,0.10138 z m 20.383492,-0.83839 c -1.022718,-1.02272 -0.329478,-3.175 1.022652,-3.175 0.908116,0 1.887765,1.01847 1.887765,1.96257 0,1.58996 -1.788025,2.33482 -2.910417,1.21243 z m 21.365104,-1.87328 c -0.624107,-0.36351 -0.611224,-1.87934 0.02082,-2.45134 1.456113,-1.31776 3.370339,0.44449 2.417254,2.22535 -0.303254,0.56663 -1.64044,0.69058 -2.438087,0.22599 z m -34.858854,-0.70082 c -0.536673,-0.2043 -0.784845,-0.61788 -0.789698,-1.31606 -0.01161,-1.67002 1.297443,-2.64408 3.135977,-2.33346 0.648299,0.10953 1.290347,0.0558 1.668809,-0.13966 0.518199,-0.26762 0.483941,-0.17696 -0.217414,0.5754 -0.457894,0.4912 -0.914108,1.28127 -1.013808,1.75571 -0.0997,0.47443 -0.358642,1.03998 -0.575427,1.25677 -0.392394,0.39239 -1.452577,0.48903 -2.208439,0.2013 z m 37.15739,-2.29587 c -0.53054,-0.37161 -1.896295,-2.96265 -1.677146,-3.1818 0.0637,-0.0637 0.708962,-0.19426 1.433928,-0.29015 1.11334,-0.14725 1.431158,-0.0853 2.045724,0.39883 0.575781,0.45357 0.727604,0.79281 0.727604,1.62579 0,0.95106 -0.08854,1.08963 -0.917543,1.43601 -1.109353,0.46351 -0.968373,0.46252 -1.612567,0.0113 z m -32.120997,-1.72722 c -0.583621,-1.0905 -0.267718,-2.25143 0.756813,-2.78123 0.850868,-0.44 4.238029,-0.44847 3.637147,-0.009 -0.458041,0.33492 -1.277501,2.21464 -1.094536,2.51068 0.16918,0.27374 -1.32258,0.79142 -2.280573,0.79142 -0.46573,0 -0.847621,-0.19183 -1.018851,-0.51178 z m 25.413066,-2.40974 c -0.448868,-0.61965 -0.816126,-1.32308 -0.816126,-1.56319 0,-0.2401 -0.130045,-0.56659 -0.288991,-0.72554 -0.208933,-0.20893 0.212522,-0.25307 1.521354,-0.15931 2.026283,0.14515 2.736387,0.64519 2.736387,1.92688 0,0.86247 -0.410612,1.26261 -1.524195,1.48532 -0.728531,0.14571 -0.89647,0.0463 -1.628429,-0.96416 z m -19.706383,-1.08834 c -0.569934,-0.81369 -0.534533,-1.33493 0.149746,-2.20485 0.53966,-0.68607 0.667803,-0.72132 2.137571,-0.58804 0.859923,0.078 1.621626,0.1999 1.692675,0.27095 0.07105,0.0711 -0.178491,0.73633 -0.554527,1.4784 -0.585515,1.15546 -0.793951,1.34923 -1.451359,1.34923 -0.422209,0 -0.943631,0.0675 -1.158716,0.15006 -0.229714,0.0882 -0.566134,-0.0999 -0.81539,-0.45575 z m 14.548151,-2.88962 c -0.376737,-0.44772 -0.684977,-1.01654 -0.684977,-1.26404 0,-0.2475 -0.197755,-0.73233 -0.439454,-1.0774 -0.437113,-0.62407 -0.435351,-0.62637 0.330729,-0.43302 0.4236,0.10692 1.231746,0.23711 1.795878,0.28931 1.245706,0.11528 2.281597,1.00947 2.281597,1.96949 0,0.95277 -0.458356,1.32972 -1.616898,1.32972 -0.771625,0 -1.12858,-0.17433 -1.666875,-0.81406 z m -9.151644,0.092 c -1.648785,-0.62764 -0.572211,-3.51132 1.310892,-3.51132 0.86514,0 1.864108,0.78916 1.864108,1.4726 0,1.54275 -1.66661,2.61291 -3.175,2.03872 z m 4.585455,-3.22197 c -0.480632,-0.44778 -1.31708,-2.85217 -1.076066,-3.09318 0.0515,-0.0515 0.712097,-0.0204 1.468001,0.0691 1.716275,0.20327 2.816354,1.14321 2.564445,2.19115 -0.321795,1.33864 -1.927852,1.79111 -2.95638,0.83289 z m 6.573165,-1.96005 c -0.647906,-0.68966 -0.711094,-1.18133 -0.274865,-2.13875 0.396608,-0.87046 0.849352,-1.01276 2.547305,-0.80061 1.163569,0.14538 1.387467,0.25416 1.250635,0.60763 -0.09167,0.23681 -0.233473,0.76162 -0.315121,1.16624 -0.174429,0.86442 -1.229239,1.77786 -2.053008,1.77786 -0.318812,0 -0.838536,-0.27557 -1.154946,-0.61237 z m -12.434681,-3.02565 c -0.297516,-0.25466 -0.654905,-0.89722 -0.794197,-1.42791 -0.24397,-0.92949 -0.225198,-0.9705 0.511625,-1.11787 1.087659,-0.21753 2.327706,0.0871 2.626365,0.64511 0.350798,0.65547 0.32009,1.66378 -0.06231,2.04619 -0.463941,0.46394 -1.658472,0.38775 -2.281478,-0.14552 z m 16.75184,0.0971 c -0.336598,-0.24612 -0.500362,-0.69026 -0.500362,-1.357 0,-1.23917 0.815496,-1.97976 2.185665,-1.9849 0.529582,-0.002 1.242607,-0.0785 1.584499,-0.17003 l 0.621623,-0.16642 -0.464968,0.89763 c -0.25573,0.4937 -0.505968,1.25483 -0.556083,1.69139 -0.05011,0.43656 -0.292192,0.94258 -0.537953,1.12448 -0.590635,0.43716 -1.709563,0.4203 -2.332421,-0.0351 z m -20.341921,-2.98438 c -0.813673,-0.75448 -0.843706,-1.07473 -0.175874,-1.87526 0.85213,-1.02146 2.173351,-0.62315 2.491044,0.75097 0.330338,1.42881 -1.19035,2.16728 -2.31517,1.12429 z m 25.111173,-0.72232 c -0.824725,-0.82473 -0.849966,-1.77514 -0.07055,-2.65655 0.48074,-0.54365 0.916103,-0.70162 2.262126,-0.82082 l 1.666814,-0.14762 -0.378177,0.73993 c -0.207999,0.40696 -0.458798,1.11454 -0.557331,1.57239 -0.197012,0.91544 -0.7591,1.52219 -1.66611,1.79851 -0.434047,0.13223 -0.767668,0.003 -1.256771,-0.48584 z M 14.519024,231.1883 c -0.850094,-1.29741 0.260232,-3.23499 1.653424,-2.88532 0.33705,0.0846 0.894306,0.0832 1.238347,-0.003 0.497314,-0.12482 0.5998,-0.29159 0.500006,-0.81363 -0.274834,-1.4377 2.450996,-2.97507 3.351378,-1.89017 0.765112,0.92191 -0.537783,2.80344 -1.941281,2.80344 -1.018739,0 -1.281691,0.25962 -1.741881,1.71979 -0.460505,1.46117 -0.72308,1.71979 -1.74609,1.71979 -0.65084,0 -1.001253,-0.17354 -1.313903,-0.6507 z m 47.046972,-1.89397 c -0.773748,-0.33984 -0.0042,-3.09221 0.949139,-3.39479 0.293937,-0.0933 1.026859,-0.14057 1.628722,-0.10505 0.961205,0.0567 1.076569,0.13056 0.948548,0.60714 -0.08016,0.29842 -0.147373,0.79728 -0.14936,1.10858 -0.0058,0.91397 -0.828334,1.65881 -1.987987,1.80027 -0.582083,0.071 -1.207161,0.0637 -1.389062,-0.0161 z M 46.575651,225.6726 c -1.263772,-0.92511 -0.08547,-3.35852 1.626256,-3.35852 1.489417,0 1.892983,-0.36158 1.733196,-1.55289 -0.109474,-0.81618 -0.02148,-1.14838 0.421529,-1.59139 0.307938,-0.30794 0.768244,-0.569 1.022905,-0.58013 0.602811,-0.0264 1.139942,-0.14637 1.750325,-0.39109 0.399238,-0.16006 0.465447,-0.10175 0.346477,0.30517 -0.08089,0.27667 -0.27727,1.00703 -0.436393,1.62302 -0.303485,1.17482 -0.866852,1.65814 -1.932736,1.65814 -0.853295,0 -1.42811,0.68966 -1.743033,2.09129 -0.143031,0.63658 -0.417814,1.3116 -0.610629,1.50003 -0.56968,0.55675 -1.62587,0.70047 -2.177897,0.29637 z m 19.428545,-0.0435 c -0.578332,-0.69685 -0.447956,-2.2673 0.234071,-2.81957 1.201608,-0.97301 3.199083,-0.28029 3.199083,1.10943 0,0.62248 -0.467516,1.60833 -0.899504,1.89678 -0.510696,0.341 -2.198963,0.21663 -2.53365,-0.18664 z m -42.810058,-2.66858 c -0.402688,-0.28206 -0.588038,-0.6831 -0.588038,-1.27235 0,-1.32352 0.511047,-1.80587 2.07225,-1.95588 1.235197,-0.11869 1.367333,-0.0802 1.367333,0.39837 0,1.38274 -0.370713,2.25577 -1.163017,2.7389 -0.992035,0.60493 -0.957388,0.60307 -1.688528,0.091 z m 3.596607,-3.32941 c -1.044134,-0.38217 -1.272481,-1.67296 -0.442398,-2.50077 0.641817,-0.64006 1.058416,-0.75126 2.543848,-0.67903 0.73583,0.0358 0.825164,0.10975 0.609769,0.50494 -0.138803,0.25466 -0.324813,0.91489 -0.41335,1.46717 -0.120275,0.75023 -0.328996,1.06802 -0.825429,1.25677 -0.365448,0.13894 -0.686464,0.24322 -0.713372,0.23173 -0.02691,-0.0115 -0.368488,-0.13785 -0.759068,-0.28081 z m 10.65291,-1.70472 c 0.0127,-0.30823 0.07539,-0.37092 0.159851,-0.15985 0.07643,0.19099 0.06703,0.41919 -0.02088,0.50711 -0.08792,0.0879 -0.150452,-0.0684 -0.138964,-0.34726 z m -6.365909,-1.29557 c -0.339037,-0.36089 -0.70099,-1.16456 -0.804341,-1.78594 -0.103352,-0.62138 -0.287467,-1.36758 -0.409147,-1.65823 -0.21559,-0.51496 -0.203231,-0.51665 0.484325,-0.0661 0.912879,0.59814 0.904285,0.60137 0.931328,-0.34979 0.03112,-1.09469 0.420736,-1.49462 1.660025,-1.704 1.244137,-0.21019 1.556235,-0.66871 1.374984,-2.02003 -0.118279,-0.88184 -0.02764,-1.10932 0.720503,-1.80819 1.051835,-0.98256 1.655226,-1.00862 2.36814,-0.1023 0.6507,0.82723 0.688345,1.43971 0.152212,2.47647 -0.340616,0.65868 -0.57246,0.7774 -1.653646,0.84676 l -1.257488,0.0807 -0.137567,1.36712 c -0.07566,0.75191 -0.340011,1.59081 -0.587441,1.86422 -0.330893,0.36563 -0.407556,0.75789 -0.289864,1.48314 0.296222,1.8254 -1.314188,2.69385 -2.552023,1.37624 z m 26.932911,0.47542 c 0.190995,-0.0764 0.419198,-0.067 0.507119,0.0209 0.08792,0.0879 -0.06835,0.15046 -0.347266,0.13897 -0.308226,-0.0127 -0.370919,-0.0754 -0.159853,-0.15985 z m -1.49542,-2.87442 c -0.168881,-0.37065 -0.307054,-0.83371 -0.307054,-1.02902 0,-0.71145 0.969304,-1.54094 2.000758,-1.71216 0.918731,-0.15251 1.040717,-0.25805 1.03152,-0.89248 -0.0057,-0.39573 0.07982,-0.71952 0.190133,-0.71952 0.11031,0 0.142142,-0.15224 0.07074,-0.33832 -0.236863,-0.61725 0.524692,-1.20139 2.064663,-1.58368 0.836744,-0.20772 1.518443,-0.30673 1.514885,-0.22002 -0.03108,0.75747 -0.636434,2.62291 -0.971214,2.99284 -0.229836,0.25396 -0.814012,0.53607 -1.298173,0.6269 -1.046374,0.1963 -1.297014,0.47212 -1.526514,1.67992 -0.224946,1.18381 -0.867656,1.86945 -1.752417,1.86945 -0.504367,0 -0.799288,-0.19537 -1.017326,-0.67391 z m -3.002497,0.22858 c 0.190995,-0.0764 0.419198,-0.067 0.507119,0.0209 0.08792,0.0879 -0.06835,0.15045 -0.347265,0.13897 -0.308227,-0.0127 -0.37092,-0.0754 -0.159854,-0.15986 z m -25.563777,-1.61376 c -0.633912,-0.10211 -0.809701,-0.40577 -1.445926,-2.49767 l -0.38001,-1.24948 1.35039,0.14929 c 1.492454,0.165 1.951339,0.43626 2.3031,1.36146 0.162928,0.42854 0.116406,0.85257 -0.150069,1.36788 -0.430398,0.8323 -0.779669,1.01313 -1.677485,0.86852 z m -4.747551,-4.4733 c 0.254662,-0.0665 0.671381,-0.0665 0.926042,0 0.254661,0.0666 0.0463,0.121 -0.463021,0.121 -0.509323,0 -0.717682,-0.0545 -0.463021,-0.121 z m -0.270334,-0.67227 c -0.658924,-0.31756 -0.994358,-1.22643 -0.769698,-2.08552 0.260684,-0.99686 -0.04879,-1.30511 -1.13579,-1.13129 -0.842622,0.13474 -1.062119,0.0644 -1.427407,-0.45707 -0.252931,-0.36111 -0.431666,-1.13968 -0.431666,-1.88034 v -1.26404 h -1.043331 c -0.778211,0 -1.147992,-0.14942 -1.455208,-0.58804 -0.474656,-0.67766 -0.541672,-1.68176 -0.129257,-1.93665 0.155441,-0.0961 0.218144,-0.34269 0.13934,-0.54805 -0.106887,-0.27854 0.02294,-0.33895 0.511129,-0.23782 0.359925,0.0746 0.937839,0.19379 1.284253,0.26496 0.722148,0.14836 0.98038,0.84848 0.776455,2.10512 -0.16279,1.00316 0.182724,1.33767 1.294204,1.25297 1.13098,-0.0862 1.847796,0.79623 1.747326,2.15096 l -0.0822,1.10843 1.275202,0.1465 c 0.701361,0.0806 1.384147,0.31869 1.517303,0.52916 0.370782,0.58606 0.295919,1.65487 -0.161675,2.30817 -0.447967,0.63957 -0.976001,0.71219 -1.908977,0.26255 z m 41.016168,-0.65498 c -0.439534,-0.0847 -0.596258,-0.30025 -0.598925,-0.82387 -0.0021,-0.39006 -0.07538,-0.97701 -0.163105,-1.30433 -0.130836,-0.48822 -0.0046,-0.66025 0.702588,-0.95761 1.033624,-0.4346 1.725771,-0.29498 2.250348,0.45396 0.557538,0.796 0.481748,1.42674 -0.260652,2.16914 -0.646057,0.64606 -0.794086,0.68154 -1.930254,0.46271 z m -23.211772,-5.62813 c -0.577702,-0.63835 -0.396624,-2.3373 0.303697,-2.84939 0.935548,-0.68409 1.862579,-0.40694 2.697387,0.80641 l 0.782963,1.13799 -1.128726,0.71409 c -1.342413,0.84927 -2.015696,0.89768 -2.655321,0.1909 z m 5.670942,-0.22723 c -0.733719,-0.59413 -0.772017,-1.96882 -0.07627,-2.73761 0.487616,-0.53881 0.931074,-0.54392 2.967939,-0.0342 0.784643,0.19635 0.843458,0.26686 0.476555,0.57137 -0.230209,0.19105 -0.549802,0.74504 -0.710211,1.23108 -0.20583,0.62368 -0.532852,0.9678 -1.11135,1.16946 -1.00901,0.35175 -0.837849,0.37389 -1.546667,-0.20008 z m 11.204683,-0.0465 c -0.319802,-0.12879 -0.768765,-0.59637 -0.997693,-1.03907 -0.605806,-1.1715 -1.495388,-1.67128 -2.604442,-1.46322 -0.978654,0.18359 -2.032992,-0.20227 -2.035744,-0.74504 -7.94e-4,-0.17678 -0.178858,-0.66123 -0.39547,-1.07656 -0.216615,-0.41533 -0.327917,-0.86181 -0.247341,-0.99219 0.218006,-0.35274 2.870073,-0.28683 3.237357,0.0804 0.174625,0.17463 0.3175,0.77812 0.3175,1.3411 v 1.0236 l 2.050521,-0.17867 c 2.308413,-0.20115 2.816103,0.0676 3.134453,1.65937 0.144457,0.72227 0.06696,0.87115 -0.645176,1.23941 -0.910116,0.47063 -1.001051,0.4782 -1.813965,0.15082 z m -42.882104,-4.29111 c -1.429037,-0.68871 -0.799081,-2.84952 0.830739,-2.84952 0.919213,0 1.754699,0.65433 1.754699,1.37422 0,0.60785 -1.033017,1.80336 -1.540557,1.78288 -0.2441,-0.01 -0.714296,-0.14826 -1.044881,-0.30758 z m 41.208056,-0.61778 c -0.377901,-0.99396 -0.328948,-1.23463 0.414131,-2.036 0.788996,-0.8509 1.345843,-0.89976 2.194478,-0.19255 0.56311,0.46926 0.59046,0.59724 0.309539,1.44844 -0.338309,1.02508 -0.925401,1.45879 -1.974712,1.45879 -0.492281,0 -0.758106,-0.19123 -0.943436,-0.67868 z m -8.286818,-0.0698 c -0.240837,-0.26612 -0.438616,-0.7126 -0.439513,-0.99218 -7.94e-4,-0.27959 -0.172725,-0.83633 -0.381841,-1.23721 -0.370446,-0.71015 -0.363638,-0.72471 0.265104,-0.56691 0.354925,0.0891 1.211363,0.17895 1.903196,0.19971 l 1.257879,0.0377 0.08015,1.09967 c 0.06535,0.89666 -0.031,1.17752 -0.521894,1.52135 -0.795909,0.55748 -1.623843,0.53368 -2.163079,-0.0622 z m 12.33262,-2.3121 c -0.404971,-0.84923 -0.410287,-1.01505 -0.05302,-1.65365 0.469588,-0.83937 1.299872,-1.01592 2.662661,-0.56615 0.858472,0.28332 0.938789,0.37629 0.609521,0.70556 -0.208585,0.20859 -0.379244,0.60887 -0.379244,0.88951 0,0.71849 -0.93437,1.5686 -1.724072,1.5686 -0.502738,0 -0.775944,-0.2311 -1.115841,-0.94387 z m -16.257796,-0.57748 c -0.216869,-0.25466 -0.543878,-0.84142 -0.726689,-1.30391 -0.415409,-1.05092 -0.92207,-1.25765 -1.751079,-0.71446 -0.399232,0.26159 -0.89703,0.35997 -1.304242,0.25777 -0.679627,-0.17058 -1.581999,-1.53945 -1.380249,-2.0938 0.06261,-0.17203 -0.07899,-0.53697 -0.314661,-0.81097 -0.403966,-0.46967 -0.394986,-0.48776 0.156824,-0.31607 0.321923,0.10016 0.838742,0.0465 1.148482,-0.11929 1.124834,-0.60199 2.919336,0.80248 2.481887,1.94245 -0.078,0.20326 0.154196,0.48385 0.549404,0.66392 0.545404,0.24851 0.833478,0.23484 1.417638,-0.0672 1.485987,-0.76843 2.748073,0.88664 1.893604,2.48323 -0.36308,0.67842 -1.621239,0.72384 -2.170919,0.0784 z m 20.883647,-1.16742 c -0.789345,-0.28829 -0.962335,-1.15731 -0.481915,-2.42091 0.347329,-0.91354 1.755264,-1.37699 2.567152,-0.84503 1.438264,0.94239 1.342551,2.39597 -0.210659,3.19916 -0.824841,0.42654 -0.883809,0.42864 -1.874578,0.0668 z m -30.051269,-4.07673 c -0.681464,-0.28653 -0.838835,-0.50401 -0.838835,-1.15922 0,-1.78147 2.315728,-2.57206 3.42038,-1.16772 0.634227,0.80629 0.675994,1.14535 0.217641,1.7668 -0.522002,0.70774 -1.827057,0.96889 -2.799186,0.56014 z"
         id="path2179"
         inkscape:connector-curvature="0" />
    </g>
  </g>
</svg>
