<?xml version="1.0" encoding="UTF-8" standalone="no"?>
<!-- Created with Inkscape (http://www.inkscape.org/) -->

<svg
   xmlns:dc="http://purl.org/dc/elements/1.1/"
   xmlns:cc="http://creativecommons.org/ns#"
   xmlns:rdf="http://www.w3.org/1999/02/22-rdf-syntax-ns#"
   xmlns:svg="http://www.w3.org/2000/svg"
   xmlns="http://www.w3.org/2000/svg"
   xmlns:sodipodi="http://sodipodi.sourceforge.net/DTD/sodipodi-0.dtd"
   xmlns:inkscape="http://www.inkscape.org/namespaces/inkscape"
   version="1.1"
   id="svg2949"
   width="283"
   height="443"
   viewBox="0 0 283 443"
   sodipodi:docname="lampions3.svg"
   inkscape:version="0.92.4 (5da689c313, 2019-01-14)">
  <metadata
     id="metadata2955">
    <rdf:RDF>
      <cc:Work
         rdf:about="">
        <dc:format>image/svg+xml</dc:format>
        <dc:type
           rdf:resource="http://purl.org/dc/dcmitype/StillImage" />
        <dc:title></dc:title>
      </cc:Work>
    </rdf:RDF>
  </metadata>
  <defs
     id="defs2953" />
  <sodipodi:namedview
     pagecolor="#ffffff"
     bordercolor="#666666"
     borderopacity="1"
     objecttolerance="10"
     gridtolerance="10"
     guidetolerance="10"
     inkscape:pageopacity="0"
     inkscape:pageshadow="2"
     inkscape:window-width="1280"
     inkscape:window-height="972"
     id="namedview2951"
     showgrid="false"
     inkscape:zoom="1.5067919"
     inkscape:cx="112.64858"
     inkscape:cy="221.5"
     inkscape:window-x="-8"
     inkscape:window-y="-8"
     inkscape:window-maximized="1"
     inkscape:current-layer="g151"
     showguides="false" />
  <g
     id="g151"
     transform="translate(25.882805,-2.654647)">
    <g
       id="g142"
       transform="translate(10.618586,4.6456314)">
      <path
         style="fill:#ffffff"
         d="m 188.20267,387.05094 -5.5,-0.587 -0.29893,-5.15387 c -0.26505,-4.56985 -0.58608,-5.22595 -2.83308,-5.78991 -6.98412,-1.7529 -19.18023,-12.75744 -23.36799,-21.0849 -2.10282,-4.18152 -2.55354,-6.67041 -2.83701,-15.6661 -0.43878,-13.9243 1.3173,-20.39179 7.1553,-26.3523 3.78247,-3.86186 14.82191,-10.45292 17.5077,-10.45292 0.62463,0 1.20388,-2.63046 1.37629,-6.25 0.29399,-6.17178 0.34653,-6.27383 4.19815,-8.15422 6.95997,-3.39793 25.50794,-1.88289 27.07926,2.21189 0.42788,1.11505 -0.0612,1.28548 -2.21528,0.77194 -5.17543,-1.23384 -17.0922,-1.83467 -20.93412,-1.05547 l -3.83029,0.77685 5.76399,1.21321 c 3.26955,0.68817 9.49587,1.01008 14.38738,0.74384 l 8.62339,-0.46937 -0.49606,5.16261 -0.49606,5.16261 5.86523,2.96076 c 10.83369,5.46882 15.95917,15.88452 16.20231,32.92535 0.1258,8.81627 -0.22454,11.48619 -2.18472,16.65004 -3.02321,7.96423 -9.21017,15.33298 -16.38572,19.51562 -5.63845,3.28665 -5.72069,3.40024 -5.75,7.94188 l -0.0297,4.60755 -6.14669,0.64245 c -3.38068,0.35335 -6.86818,0.56911 -7.75,0.47946 -0.88182,-0.0896 -4.07831,-0.42714 -7.10331,-0.75 z M 53.267591,355.82863 c -2.989292,-0.49583 -5.570685,-1.03712 -5.736428,-1.20286 -0.687709,-0.68771 -0.614626,-7.36147 0.108543,-9.91183 0.683068,-2.40894 0.50417,-2.75 -1.442476,-2.75 -2.227092,0 -9.617524,-3.57291 -11.494563,-5.55706 -0.55,-0.58139 -2.719892,-2.31649 -4.821982,-3.8558 -2.10209,-1.5393 -4.091188,-3.53862 -4.420217,-4.44293 -0.329029,-0.90432 -1.372323,-2.6547 -2.318432,-3.88975 -3.666379,-4.78609 -3.511866,-30.55945 0.208056,-34.70446 0.468916,-0.5225 0.852575,-1.8896 0.852575,-3.038 0,-2.4541 9.091622,-12.512 11.309953,-12.512 0.837859,0 1.750354,0.5625 2.027766,1.25 0.326891,0.81012 0.532168,0.68871 0.583334,-0.34501 0.109717,-2.21668 3.315241,-4.90499 5.848671,-4.90499 1.161733,0 2.390357,-0.45 2.730276,-1 0.339919,-0.55 1.603976,-1.03553 2.809017,-1.07895 1.205041,-0.0434 1.628483,-0.30592 0.940983,-0.58333 -1.512363,-0.61025 -1.637113,-4.74588 -0.222869,-7.38841 0.919667,-1.71842 1.793242,-1.85446 8.349562,-1.30024 9.200067,0.77769 19.878987,-0.36685 17.233947,-1.84709 -2.70677,-1.51479 -16.60267,-2.18505 -20.852782,-1.00582 -3.830442,1.06279 -5.714236,0.21842 -3.496848,-1.56738 3.419666,-2.75407 15.1116,-3.1345 23.2874,-0.75773 6.06897,1.7643 6.36666,2.6268 5.13772,14.88561 -0.1397,1.39356 0.99864,2.24053 4.56387,3.39568 2.6125,0.84646 4.75,1.92346 4.75,2.39334 0,0.46987 0.675,0.85432 1.5,0.85432 0.825,0 1.5,0.41786 1.5,0.92857 0,0.51072 0.7875,1.71607 1.75,2.67857 0.9625,0.9625 1.75,2.01771 1.75,2.3449 0,0.3272 0.95945,1.62475 2.13211,2.88345 1.17266,1.2587 2.473203,4.17314 2.890103,6.47653 0.41689,2.30339 0.88811,4.8049 1.04715,5.55892 0.15905,0.75402 -0.10967,2.41998 -0.59714,3.70214 -0.70459,1.85321 -0.58757,2.21655 0.57073,1.77207 1.77389,-0.68071 1.91242,0.79948 0.23209,2.47981 -0.96661,0.96661 -0.9493,1.66636 0.0821,3.3179 0.87552,1.40192 0.97532,2.42468 0.30229,3.09771 -0.67303,0.67303 -0.64585,1.79251 0.0823,3.39064 0.76055,1.66924 0.77473,3.05913 0.0472,4.62733 -0.57194,1.2328 -1.53628,3.47896 -2.14297,4.99146 -0.606693,1.5125 -1.589283,2.75 -2.183533,2.75 -0.59425,0 -0.80234,0.45 -0.46242,1 0.33992,0.55 0.11492,1 -0.5,1 -0.61492,0 -0.81601,0.48868 -0.44688,1.08595 1.02243,1.65432 -9.37384,10.79176 -15.30312,13.45016 l -5.25,2.35383 v 5.44804 c 0,4.04541 -0.40724,5.60432 -1.58179,6.05503 -2.23228,0.85661 -14.89214,0.54338 -21.353286,-0.52832 z M 146.20267,246.06979 c -2.35696,-0.68366 -2.49543,-1.10836 -2.42019,-7.42278 l 0.0798,-6.69763 -3.57982,-0.99422 c -5.44324,-1.51174 -17.07979,-11.5919 -17.07979,-14.79538 0,-0.48871 -0.7477,-2.38736 -1.66155,-4.21921 -3.54541,-7.10694 -2.62493,-24.88525 1.36777,-26.41739 0.7813,-0.29981 1.18386,-0.92808 0.89458,-1.39615 -0.79861,-1.29217 3.11739,-10.69906 4.33487,-10.41309 0.92069,0.21626 1.51686,-1.73605 1.20296,-3.93937 -0.14097,-0.98952 8.00696,-7.81063 9.32993,-7.81063 0.6097,0 2.66621,-0.79413 4.57,-1.76474 3.3856,-1.72608 3.46144,-1.90034 3.46144,-7.9534 0,-7.3451 0.65481,-7.85853 11.18573,-8.77058 7.5513,-0.65399 16.36521,1.09135 17.12115,3.39036 0.34709,1.05559 -0.12769,1.22992 -1.923,0.70613 -4.06908,-1.18719 -17.44495,-1.9127 -21.44132,-1.16297 -7.06342,1.3251 -1.45518,2.52396 11.88158,2.53989 l 12.82414,0.0153 -0.2559,4.82145 c -0.24687,4.65118 1.27869,8.40737 3.60762,8.88261 1.55374,0.31705 7.83035,2.4819 9.5,3.27662 2.39392,1.13947 9.97714,11.37 9.65036,13.01932 -0.16345,0.825 0.38353,2.85 1.21553,4.5 1.85132,3.67153 2.07359,19.96052 0.29661,21.7375 -0.63938,0.63938 -1.1625,2.39594 -1.1625,3.90348 0,1.50754 -0.45,3.0191 -1,3.35902 -0.55,0.33992 -1,1.62118 -1,2.84725 0,2.20222 -7.67261,9.65276 -9.94046,9.65276 -0.58275,0 -1.05954,0.39459 -1.05954,0.87686 0,0.93312 -8.14908,4.67502 -11.5,5.28057 -1.73408,0.31336 -2.06648,1.35736 -2.5,7.85199 l -0.5,7.49058 -11.5,0.1655 c -6.325,0.091 -12.625,-0.16081 -14,-0.55965 z M -3.130666,237.29727 c -0.366667,-0.36666 -0.666667,-3.07631 -0.666667,-6.02144 0,-4.89236 -0.237472,-5.45541 -2.75,-6.52022 -4.539071,-1.92366 -13.096407,-8.80217 -15.120221,-12.15384 -5.521411,-9.14411 -7.887281,-23.96017 -5.371385,-33.63783 2.714192,-10.44043 7.55489,-16.57285 16.741606,-21.20905 3.3,-1.6654 6.138001,-3.15016 6.30667,-3.29947 0.168668,-0.14932 0.49074,-2.12174 0.715716,-4.38316 0.817443,-8.21683 3.440927,-10.09536 14.776011,-10.58026 7.812824,-0.33423 14.6416,1.03269 16.451603,3.29313 0.6875,0.85859 1.25,3.704 1.25,6.32315 0,4.6383 0.110464,4.81136 4.25,6.65847 5.211482,2.32541 13.21861,10.74166 15.824772,16.63332 2.845192,6.43203 3.610693,20.38573 1.556775,28.3772 -2.622972,10.20557 -10.491494,19.55885 -18.809357,22.35862 -5.084199,1.71132 -5.82219,2.69374 -5.82219,7.75049 0,2.57266 -0.54,5.21756 -1.2,5.87756 -1.288839,1.28884 -26.892451,1.77422 -28.133333,0.53333 z m 25.833333,-91.71456 c 3.832316,-1.17607 3.907764,-1.27801 1.799772,-2.4317 -3.422849,-1.87329 -16.145647,-2.59679 -21.256919,-1.20879 -3.888901,1.05606 -4.216391,1.3451 -2.568732,2.26718 1.830613,1.02446 10.437149,2.43611 15.525879,2.54657 1.375,0.0298 4.3,-0.49812 6.5,-1.17326 z m 50.75,-0.28105 c -0.72973,-0.29445 -1.25,-2.30555 -1.25,-4.83185 0,-4.17534 -0.16697,-4.40775 -4.75,-6.61154 -6.3629,-3.05966 -15.827865,-12.64435 -18.369343,-18.60171 -1.124525,-2.63594 -2.724678,-6.29908 -3.555896,-8.1403 -2.261584,-5.00963 -1.862613,-18.639757 0.750006,-25.622605 3.253526,-8.695828 10.025114,-16.097069 18.132023,-19.818019 4.69837,-2.156479 4.70731,-2.170144 5,-7.635162 0.27181,-5.075288 0.54862,-5.624049 3.79321,-7.519797 4.76062,-2.781537 19.20795,-2.957499 23.29188,-0.283684 2.44433,1.600346 2.70812,2.355246 2.70812,7.75 0,5.528868 0.16868,5.977651 2.250003,5.986331 3.17659,0.01325 11.96896,5.273694 15.16702,9.074374 9.72108,11.552848 12.61694,31.008372 6.62999,44.542872 -2.28378,5.16287 -9.51703,12.62186 -16.79701,17.32122 -5.22895,3.37539 -5.25,3.40989 -5.25,8.60393 0,4.56278 -0.28138,5.29037 -2.250003,5.81793 -2.67925,0.71801 -23.70668,0.69163 -25.5,-0.032 z m 22.47917,-93.941887 c -0.3323,-0.332291 -1.1948,-0.367818 -1.91667,-0.07895 -0.79773,0.319226 -0.56078,0.556183 0.60417,0.604167 1.05416,0.04342 1.64479,-0.192928 1.3125,-0.52522 z m -1.16976,-2.058043 c 1.78221,-0.684848 1.73655,-0.802545 -0.55941,-1.44207 -6.68827,-1.862976 -22,-0.26952 -22,2.289488 0,1.204418 19.08553,0.487493 22.55941,-0.847418 z"
         id="path148"
         inkscape:connector-curvature="0" />
      <path
         style="fill:#ffff00"
         d="m 193.95267,387.30166 c 0.6875,-0.27741 1.8125,-0.27741 2.5,0 0.6875,0.27741 0.125,0.50439 -1.25,0.50439 -1.375,0 -1.9375,-0.22698 -1.25,-0.50439 z m 5.0625,-0.0208 c 0.72187,-0.28887 1.58437,-0.25335 1.91667,0.0789 0.33229,0.33229 -0.25834,0.56864 -1.3125,0.52522 -1.16495,-0.048 -1.4019,-0.28494 -0.60417,-0.60416 z m -13.1538,-10.52602 c -7.93439,-1.00755 -13.81788,-4.16155 -21.06205,-11.29087 -9.00289,-8.86016 -11.02007,-13.56979 -11.43366,-26.69478 -0.43878,-13.9243 1.3173,-20.39179 7.1553,-26.3523 3.81459,-3.89468 14.82904,-10.45295 17.55541,-10.45295 0.61947,0 1.1263,-0.64671 1.1263,-1.43713 0,-1.11617 0.83749,-1.28367 3.75,-0.75 2.0625,0.37792 9.15,0.68713 15.75,0.68713 6.6,0 12.29091,0.40117 12.64646,0.89148 0.35555,0.49031 3.28055,2.29031 6.5,4 10.68871,5.67624 15.68745,16.53471 15.70198,34.10852 0.007,8.54996 -0.36597,10.86727 -2.57263,15.98099 -3.37942,7.83147 -9.00801,14.5417 -15.58039,18.57445 -4.91934,3.01846 -5.97236,3.26291 -14.5,3.36601 -5.05748,0.0611 -11.824,-0.22261 -15.03672,-0.63058 z M 59.471697,356.27095 c 0.97297,-0.25354 2.32297,-0.23687 3,0.0371 0.67703,0.27393 -0.11903,0.48137 -1.76903,0.46099 -1.65,-0.0204 -2.203936,-0.2445 -1.23097,-0.49804 z m -6.76903,-4.30701 c -0.339919,-0.55 -0.141476,-1 0.440983,-1 0.582459,0 1.059017,0.45 1.059017,1 0,0.55 -0.198442,1 -0.440983,1 -0.242541,0 -0.719098,-0.45 -1.059017,-1 z m 3.5,-5.67998 c -6.057488,-0.62289 -8,-1.31226 -8,-2.83907 0,-0.84087 -0.913625,-1.48095 -2.113845,-1.48095 -2.39252,0 -9.114974,-3.49979 -12.485293,-6.5 -1.235699,-1.1 -3.631406,-3.04673 -5.323793,-4.32606 -1.692388,-1.27933 -3.077069,-2.8189 -3.077069,-3.42126 0,-0.60236 -0.763116,-1.93843 -1.695814,-2.96905 -1.8268,-2.01859 -2.070804,-3.52914 -2.791884,-17.28363 -0.460043,-8.77526 0.06699,-13.87805 1.351388,-13.08424 0.349971,0.21629 0.722346,-0.57627 0.827501,-1.76125 0.541877,-6.10635 1.865322,-8.89966 6.443403,-13.59968 4.782874,-4.91026 7.799334,-6.35779 7.928792,-3.80483 0.03486,0.6875 0.471715,0.23384 0.970782,-1.00813 0.499068,-1.24197 2.158044,-2.75289 3.686614,-3.3576 1.52857,-0.60471 3.531454,-1.48284 4.450855,-1.95141 0.9194,-0.46856 7.8944,-0.62258 15.500003,-0.34226 12.98799,0.4787 20.58199,1.67332 22.77836,3.58328 0.5225,0.45437 1.76,0.82612 2.75,0.82612 0.99,0 1.8,0.45 1.8,1 0,0.55 0.675,1 1.5,1 1.4582,0 1.92104,1.12833 1.56158,3.8069 -0.0965,0.7188 0.49571,1.1688 1.31594,1 0.82023,-0.16879 1.47694,0.0727 1.45935,0.53656 -0.0176,0.4639 1.08242,2.0389 2.44446,3.5 1.36204,1.4611 2.828213,4.45654 3.258143,6.65654 0.42994,2.2 0.90261,4.61692 1.05038,5.37094 0.14778,0.75402 -0.13016,2.41998 -0.61763,3.70214 -0.70459,1.85321 -0.58757,2.21655 0.57073,1.77207 1.77389,-0.68071 1.91242,0.79948 0.23209,2.47981 -0.96661,0.96661 -0.94157,1.67874 0.11875,3.37658 1.16921,1.87221 1.10867,2.32349 -0.46617,3.47504 -0.99543,0.72788 -1.32202,1.32342 -0.72574,1.32342 2.04021,0 2.29126,3.14518 0.65128,8.15913 -0.90194,2.75752 -2.247793,5.24694 -2.990783,5.53205 -0.74299,0.28512 -1.05466,0.99771 -0.69259,1.58354 0.41463,0.6709 0.0338,0.82551 -1.02888,0.41772 -1.44387,-0.55406 -1.52525,-0.34484 -0.56428,1.45074 0.79837,1.49176 0.80505,1.90173 0.0231,1.41848 -0.60487,-0.37383 -1.09999,-0.0906 -1.10026,0.62932 -7.5e-4,1.98776 -8.90268,9.23025 -14.25543,11.59803 -2.60925,1.15419 -4.74408,2.57383 -4.74408,3.15476 0,1.01225 -11.67848,1.23195 -20,0.37625 z M 196.01517,288.28083 c 0.72187,-0.28887 1.58437,-0.25335 1.91667,0.0789 0.33229,0.33229 -0.25834,0.56864 -1.3125,0.52522 -1.16495,-0.048 -1.4019,-0.28494 -0.60417,-0.60416 z m -47,-42 c 0.72187,-0.28887 1.58437,-0.25335 1.91667,0.0789 0.33229,0.33229 -0.25834,0.56864 -1.3125,0.52522 -1.16495,-0.048 -1.4019,-0.28494 -0.60417,-0.60416 z m -0.5625,-12.00137 c -2.3375,-0.23678 -4.25,-0.8373 -4.25,-1.33447 0,-0.49718 -1.70684,-1.36357 -3.79297,-1.9253 -2.08614,-0.56174 -4.67364,-1.82882 -5.75,-2.81573 -1.07637,-0.98691 -3.41953,-2.82529 -5.20703,-4.08529 -1.7875,-1.26001 -3.25,-2.88018 -3.25,-3.60038 0,-0.7202 -0.70629,-1.89563 -1.56952,-2.61205 -0.86324,-0.71642 -1.35521,-2.12214 -1.09326,-3.12382 0.26194,-1.00168 0.0674,-1.56854 -0.43235,-1.25969 -0.49974,0.30886 -1.4017,-0.70302 -2.00437,-2.24862 -1.50414,-3.85753 -2.21937,-19.99507 -0.92174,-20.79704 0.56168,-0.34714 1.02124,-1.45646 1.02124,-2.46516 0,-1.0087 0.70352,-2.10396 1.56338,-2.43392 0.85986,-0.32996 1.3267,-0.98289 1.03742,-1.45096 -0.79861,-1.29217 3.11739,-10.69906 4.33487,-10.41309 0.58538,0.1375 1.12058,-0.425 1.18933,-1.25 0.0687,-0.825 0.18125,-1.94574 0.25,-2.49053 0.16944,-1.34268 5.28034,-6.00947 6.58136,-6.00947 0.574,0 1.05795,-0.5625 1.07544,-1.25 0.0179,-0.70533 0.73018,-0.37852 1.63454,0.75 1.03413,1.29047 1.41301,1.44239 1.06797,0.42823 -1.15258,-3.3877 3.03938,-4.30469 20.11234,-4.39954 15.35124,-0.0853 16.43327,0.0329 17.76925,1.94025 0.78244,1.11708 1.75145,1.97247 2.15336,1.90086 0.40191,-0.0716 1.77253,0.26589 3.04584,0.75 1.2733,0.48411 3.10161,0.8802 4.06291,0.8802 2.78411,0 12.67174,11.93235 11.83266,14.2796 -0.23994,0.67122 0.26218,2.5704 1.11584,4.2204 2.0542,3.97051 2.12425,19.64947 0.0987,22.09012 -0.77047,0.92836 -1.26726,2.70739 -1.10398,3.95339 0.16329,1.24601 -0.17969,2.56 -0.76217,2.92 -0.58249,0.35999 -1.05906,1.65767 -1.05906,2.88374 0,2.20221 -7.67261,9.65275 -9.94046,9.65275 -0.58275,0 -1.05954,0.48032 -1.05954,1.06739 0,0.61672 -0.85503,0.79601 -2.02512,0.42464 -1.37891,-0.43765 -1.93733,-0.22667 -1.75,0.66118 0.16042,0.76032 -1.60095,1.95277 -4.22488,2.86023 -2.475,0.85596 -5.44339,2.08195 -6.59643,2.72442 -2.31204,1.28827 -16.48013,2.25366 -23.15357,1.57766 z M -7.892599,224.01319 c -6.604948,-3.66413 -11.589699,-7.79265 -13.771666,-11.4061 -5.524628,-9.14907 -7.891227,-23.96296 -5.374674,-33.64315 2.712782,-10.435 7.548394,-16.564 16.741606,-21.21952 6.56061,-3.32234 7.55793,-4.2989 6.831975,-6.6898 -0.409743,-1.34946 -0.320036,-1.33903 0.591556,0.0688 1.538697,2.37631 13.660721,4.17852 24.203179,3.59833 10.801327,-0.59443 14.337269,0.76169 21.194017,8.12844 6.4807,6.96272 8.554497,12.03386 9.310398,22.7671 1.046156,14.85463 -3.06776,25.77231 -12.53746,33.27246 -2.172107,1.72034 -5.444271,3.62953 -7.271475,4.24264 -1.827205,0.61311 -4.070052,1.7599 -4.984105,2.54842 -1.3113,1.1312 -4.686831,1.37543 -16,1.15764 -13.222679,-0.25455 -14.695566,-0.47434 -18.933351,-2.82527 z M 159.95267,149.30166 c 0.6875,-0.27741 1.8125,-0.27741 2.5,0 0.6875,0.27741 0.125,0.50439 -1.25,0.50439 -1.375,0 -1.9375,-0.22698 -1.25,-0.50439 z m 7,0 c 0.6875,-0.27741 1.8125,-0.27741 2.5,0 0.6875,0.27741 0.125,0.50439 -1.25,0.50439 -1.375,0 -1.9375,-0.22698 -1.25,-0.50439 z m 5.25,-1.73073 c 0,-0.21616 0.69837,-0.661 1.55194,-0.98855 0.88992,-0.34149 1.29132,-0.17385 0.94098,0.39301 -0.58726,0.95021 -2.49292,1.40545 -2.49292,0.59554 z M 66.897287,133.50753 c -5.83394,-2.72101 -15.34636,-12.46678 -17.813963,-18.25097 -1.124525,-2.63594 -2.724678,-6.29908 -3.555896,-8.1403 -2.261584,-5.00963 -1.862613,-18.639757 0.750006,-25.622605 3.208634,-8.575844 9.812852,-15.866716 17.850403,-19.706351 2.51616,-1.201997 4.8112,-2.529399 5.10009,-2.949783 0.28889,-0.420384 2.09049,-0.411316 4.00356,0.02015 5.02733,1.133846 17.85724,1.265483 22.17632,0.227533 2.03783,-0.489725 3.83783,-0.518819 4,-0.06465 0.16217,0.454166 1.564383,1.053231 3.116033,1.331256 4.03441,0.722891 11.02219,5.043052 14.12883,8.735075 7.05091,8.37953 11.02802,22.436529 9.46685,33.460355 -1.60748,11.35087 -5.30087,17.53121 -14.84625,24.84299 -8.9707,6.87156 -9.27359,6.96157 -25.375983,7.54098 -13.27939,0.47782 -15.23771,0.33108 -19,-1.42368 z"
         id="path146"
         inkscape:connector-curvature="0" />
      <path
         style="fill:#ff00ff"
         d="m 193.95267,387.30166 c 0.6875,-0.27741 1.8125,-0.27741 2.5,0 0.6875,0.27741 0.125,0.50439 -1.25,0.50439 -1.375,0 -1.9375,-0.22698 -1.25,-0.50439 z M 59.471697,356.27095 c 0.97297,-0.25354 2.32297,-0.23687 3,0.0371 0.67703,0.27393 -0.11903,0.48137 -1.76903,0.46099 -1.65,-0.0204 -2.203936,-0.2445 -1.23097,-0.49804 z m -6.76903,-4.30701 c -0.339919,-0.55 -0.141476,-1 0.440983,-1 0.582459,0 1.059017,0.45 1.059017,1 0,0.55 -0.198442,1 -0.440983,1 -0.242541,0 -0.719098,-0.45 -1.059017,-1 z m 3.5,-5.67998 c -6.057488,-0.62289 -8,-1.31226 -8,-2.83907 0,-0.84087 -0.913625,-1.48095 -2.113845,-1.48095 -2.39252,0 -9.114974,-3.49979 -12.485293,-6.5 -1.235699,-1.1 -3.631406,-3.04673 -5.323793,-4.32606 -1.692388,-1.27933 -3.077069,-2.8189 -3.077069,-3.42126 0,-0.60236 -0.763116,-1.93843 -1.695814,-2.96905 -1.8268,-2.01859 -2.070804,-3.52914 -2.791884,-17.28363 -0.460043,-8.77526 0.06699,-13.87805 1.351388,-13.08424 0.349971,0.21629 0.722346,-0.57627 0.827501,-1.76125 0.541877,-6.10635 1.865322,-8.89966 6.443403,-13.59968 4.782874,-4.91026 7.799334,-6.35779 7.928792,-3.80483 0.03486,0.6875 0.471715,0.23384 0.970782,-1.00813 0.499068,-1.24197 2.158044,-2.75289 3.686614,-3.3576 1.52857,-0.60471 3.531454,-1.48284 4.450855,-1.95141 0.9194,-0.46856 7.8944,-0.62258 15.500003,-0.34226 12.98799,0.4787 20.58199,1.67332 22.77836,3.58328 0.5225,0.45437 1.76,0.82612 2.75,0.82612 0.99,0 1.8,0.45 1.8,1 0,0.55 0.675,1 1.5,1 1.4582,0 1.92104,1.12833 1.56158,3.8069 -0.0965,0.7188 0.49571,1.1688 1.31594,1 0.82023,-0.16879 1.47694,0.0727 1.45935,0.53656 -0.0176,0.4639 1.08242,2.0389 2.44446,3.5 1.36204,1.4611 2.828213,4.45654 3.258143,6.65654 0.42994,2.2 0.90261,4.61692 1.05038,5.37094 0.14778,0.75402 -0.13016,2.41998 -0.61763,3.70214 -0.70459,1.85321 -0.58757,2.21655 0.57073,1.77207 1.77389,-0.68071 1.91242,0.79948 0.23209,2.47981 -0.96661,0.96661 -0.94157,1.67874 0.11875,3.37658 1.16921,1.87221 1.10867,2.32349 -0.46617,3.47504 -0.99543,0.72788 -1.32202,1.32342 -0.72574,1.32342 2.04021,0 2.29126,3.14518 0.65128,8.15913 -0.90194,2.75752 -2.247793,5.24694 -2.990783,5.53205 -0.74299,0.28512 -1.05466,0.99771 -0.69259,1.58354 0.41463,0.6709 0.0338,0.82551 -1.02888,0.41772 -1.44387,-0.55406 -1.52525,-0.34484 -0.56428,1.45074 0.79837,1.49176 0.80505,1.90173 0.0231,1.41848 -0.60487,-0.37383 -1.09999,-0.0906 -1.10026,0.62932 -7.5e-4,1.98776 -8.90268,9.23025 -14.25543,11.59803 -2.60925,1.15419 -4.74408,2.57383 -4.74408,3.15476 0,1.01225 -11.67848,1.23195 -20,0.37625 z M 196.01517,288.28083 c 0.72187,-0.28887 1.58437,-0.25335 1.91667,0.0789 0.33229,0.33229 -0.25834,0.56864 -1.3125,0.52522 -1.16495,-0.048 -1.4019,-0.28494 -0.60417,-0.60416 z m -47,-42 c 0.72187,-0.28887 1.58437,-0.25335 1.91667,0.0789 0.33229,0.33229 -0.25834,0.56864 -1.3125,0.52522 -1.16495,-0.048 -1.4019,-0.28494 -0.60417,-0.60416 z m -0.5625,-12.00137 c -2.3375,-0.23678 -4.25,-0.8373 -4.25,-1.33447 0,-0.49718 -1.70684,-1.36357 -3.79297,-1.9253 -2.08614,-0.56174 -4.67364,-1.82882 -5.75,-2.81573 -1.07637,-0.98691 -3.41953,-2.82529 -5.20703,-4.08529 -1.7875,-1.26001 -3.25,-2.88018 -3.25,-3.60038 0,-0.7202 -0.70629,-1.89563 -1.56952,-2.61205 -0.86324,-0.71642 -1.35521,-2.12214 -1.09326,-3.12382 0.26194,-1.00168 0.0674,-1.56854 -0.43235,-1.25969 -0.49974,0.30886 -1.4017,-0.70302 -2.00437,-2.24862 -1.50414,-3.85753 -2.21937,-19.99507 -0.92174,-20.79704 0.56168,-0.34714 1.02124,-1.45646 1.02124,-2.46516 0,-1.0087 0.70352,-2.10396 1.56338,-2.43392 0.85986,-0.32996 1.3267,-0.98289 1.03742,-1.45096 -0.79861,-1.29217 3.11739,-10.69906 4.33487,-10.41309 0.58538,0.1375 1.12058,-0.425 1.18933,-1.25 0.0687,-0.825 0.18125,-1.94574 0.25,-2.49053 0.16944,-1.34268 5.28034,-6.00947 6.58136,-6.00947 0.574,0 1.05795,-0.5625 1.07544,-1.25 0.0179,-0.70533 0.73018,-0.37852 1.63454,0.75 1.03413,1.29047 1.41301,1.44239 1.06797,0.42823 -1.15258,-3.3877 3.03938,-4.30469 20.11234,-4.39954 15.35124,-0.0853 16.43327,0.0329 17.76925,1.94025 0.78244,1.11708 1.75145,1.97247 2.15336,1.90086 0.40191,-0.0716 1.77253,0.26589 3.04584,0.75 1.2733,0.48411 3.10161,0.8802 4.06291,0.8802 2.78411,0 12.67174,11.93235 11.83266,14.2796 -0.23994,0.67122 0.26218,2.5704 1.11584,4.2204 2.0542,3.97051 2.12425,19.64947 0.0987,22.09012 -0.77047,0.92836 -1.26726,2.70739 -1.10398,3.95339 0.16329,1.24601 -0.17969,2.56 -0.76217,2.92 -0.58249,0.35999 -1.05906,1.65767 -1.05906,2.88374 0,2.20221 -7.67261,9.65275 -9.94046,9.65275 -0.58275,0 -1.05954,0.48032 -1.05954,1.06739 0,0.61672 -0.85503,0.79601 -2.02512,0.42464 -1.37891,-0.43765 -1.93733,-0.22667 -1.75,0.66118 0.16042,0.76032 -1.60095,1.95277 -4.22488,2.86023 -2.475,0.85596 -5.44339,2.08195 -6.59643,2.72442 -2.31204,1.28827 -16.48013,2.25366 -23.15357,1.57766 z m 11.5,-84.9778 c 0.6875,-0.27741 1.8125,-0.27741 2.5,0 0.6875,0.27741 0.125,0.50439 -1.25,0.50439 -1.375,0 -1.9375,-0.22698 -1.25,-0.50439 z m 7,0 c 0.6875,-0.27741 1.8125,-0.27741 2.5,0 0.6875,0.27741 0.125,0.50439 -1.25,0.50439 -1.375,0 -1.9375,-0.22698 -1.25,-0.50439 z m 5.25,-1.73073 c 0,-0.21616 0.69837,-0.661 1.55194,-0.98855 0.88992,-0.34149 1.29132,-0.17385 0.94098,0.39301 -0.58726,0.95021 -2.49292,1.40545 -2.49292,0.59554 z"
         id="path144"
         inkscape:connector-curvature="0" />
    </g>
  </g>
</svg>
