<?xml version="1.0" encoding="UTF-8" standalone="no"?>
<!-- Created with Inkscape (http://www.inkscape.org/) -->

<svg
   xmlns:dc="http://purl.org/dc/elements/1.1/"
   xmlns:cc="http://creativecommons.org/ns#"
   xmlns:rdf="http://www.w3.org/1999/02/22-rdf-syntax-ns#"
   xmlns:svg="http://www.w3.org/2000/svg"
   xmlns="http://www.w3.org/2000/svg"
   xmlns:sodipodi="http://sodipodi.sourceforge.net/DTD/sodipodi-0.dtd"
   xmlns:inkscape="http://www.inkscape.org/namespaces/inkscape"
   version="1.1"
   id="svg2949"
   width="283"
   height="443"
   viewBox="0 0 283 443"
   sodipodi:docname="serpentins.svg"
   inkscape:version="0.92.4 (5da689c313, 2019-01-14)">
  <metadata
     id="metadata2955">
    <rdf:RDF>
      <cc:Work
         rdf:about="">
        <dc:format>image/svg+xml</dc:format>
        <dc:type
           rdf:resource="http://purl.org/dc/dcmitype/StillImage" />
        <dc:title></dc:title>
      </cc:Work>
    </rdf:RDF>
  </metadata>
  <defs
     id="defs2953" />
  <sodipodi:namedview
     pagecolor="#ffffff"
     bordercolor="#666666"
     borderopacity="1"
     objecttolerance="10"
     gridtolerance="10"
     guidetolerance="10"
     inkscape:pageopacity="0"
     inkscape:pageshadow="2"
     inkscape:window-width="1280"
     inkscape:window-height="972"
     id="namedview2951"
     showgrid="false"
     inkscape:zoom="1.5067919"
     inkscape:cx="112.64858"
     inkscape:cy="221.5"
     inkscape:window-x="-8"
     inkscape:window-y="-8"
     inkscape:window-maximized="1"
     inkscape:current-layer="g180"
     showguides="false" />
  <g
     id="g151"
     transform="translate(25.882805,-2.654647)">
    <g
       id="g180"
       transform="translate(23.228158,-38.492376)">
      <path
         style="fill:#ff00ff"
         d="m 9.1182112,460.19453 c -0.350339,-0.56686 0.05106,-0.7345 0.9409828,-0.39301 1.732418,0.66479 2.049388,1.38156 0.610956,1.38156 -0.517542,0 -1.2159138,-0.44485 -1.5519388,-0.98855 z M 5.7737282,458.879 c -2.692898,-3.24475 4.6907318,-15.69592 9.3077868,-15.69592 2.526967,0 4.438776,4.94551 3.264574,8.44487 -1.454303,4.33412 -2.447145,5.33554 -6.054054,6.10632 -1.749497,0.37387 -3.6836978,1.08334 -4.2982238,1.57661 -0.691187,0.55481 -1.537904,0.39009 -2.220083,-0.43188 z m 6.7301688,-24.32513 c -1.948225,-2.34747 -1.489683,-9.0922 0.830364,-12.21389 2.594465,-3.49093 7.674757,-4.15048 9.253116,-1.20129 1.417197,2.64806 0.343863,8.69329 -2.182874,12.29439 -2.185839,3.11525 -5.81775,3.63048 -7.900606,1.12079 z M 22.59582,409.33946 c -0.01276,-1.38075 -0.166486,-1.41747 -0.923784,-0.22068 -0.755291,1.19362 -1.175798,1.21384 -2.493904,0.1199 -1.984737,-1.64718 -1.531625,-6.34361 1.047177,-10.85382 1.436569,-2.5125 2.421836,-3.20066 4.135824,-2.88868 1.2375,0.22526 2.25,0.022 2.25,-0.45177 0,-1.87756 2.80408,-0.72199 3.369714,1.38867 1.063627,3.96891 0.670334,7.17206 -1.271634,10.35674 -2.174584,3.56616 -6.088903,5.19865 -6.113393,2.54964 z m 4.015313,-10.7154 c 0,-0.85746 -0.45,-1.2809 -1,-0.94098 -0.55,0.33992 -1,1.04148 -1,1.55902 0,0.51754 0.45,0.94098 1,0.94098 0.55,0 1,-0.70156 1,-1.55902 z m -0.431559,-14.22534 c -0.713139,-2.2469 1.599668,-10.43834 3.087206,-10.93419 0.632732,-0.21091 1.541745,1.69516 2.109816,4.42399 0.688165,3.30572 1.034814,3.94652 1.116321,2.06361 0.08828,-2.03926 0.759143,-2.89181 2.648763,-3.36607 1.866459,-0.46845 2.380641,-1.10744 1.959323,-2.4349 -0.740374,-2.33271 0.937533,-3.36294 2.46992,-1.51653 2.088184,2.51611 -2.043181,10.13863 -6.505652,12.00317 -4.780133,1.99726 -6.191462,1.94826 -6.885697,-0.23908 z M 135.61113,360.7421 c 0,-0.79254 0.45,-1.7191 1,-2.05902 0.55,-0.33992 1,0.30852 1,1.44098 0,1.13246 -0.45,2.05902 -1,2.05902 -0.55,0 -1,-0.64844 -1,-1.44098 z M 36.2778,360.51641 c -1.217929,-1.21793 -0.689078,-3.33333 0.833333,-3.33333 0.825,0 1.5,-0.43588 1.5,-0.96862 0,-0.53273 -0.74882,-0.68126 -1.664045,-0.33006 -0.915225,0.35121 -1.412457,0.22459 -1.10496,-0.28138 0.307496,-0.50597 -0.130891,-1.55829 -0.974194,-2.3385 -1.358247,-1.25663 -1.480191,-1.05685 -1.068233,1.75 0.255776,1.74271 0.123308,3.16856 -0.294373,3.16856 -1.370872,0 -2.014595,-3.84109 -1.291486,-7.70629 1.254595,-6.70611 6.173941,-8.3915 8.73574,-2.99291 1.843311,3.88448 1.409449,9.2153 -0.963402,11.83727 -1.799093,1.98798 -2.643502,2.26014 -3.70838,1.19526 z m 104.99955,-1.74407 c 0.55703,-1.58592 0.30245,-1.81433 -1.49755,-1.34362 -1.29827,0.33951 -2.17482,0.10301 -2.18398,-0.58926 -0.009,-0.67706 -0.39188,-0.56128 -0.92379,0.27932 -0.7529,1.18984 -1.17839,1.21168 -2.48468,0.12755 -1.9379,-1.60831 -1.99921,-4.11513 -0.20562,-8.4078 1.36805,-3.2742 6.82592,-6.901 9.0822,-6.03519 2.73709,1.05032 4.0229,10.37974 1.43057,10.37974 -0.48585,0 -0.88337,0.81399 -0.88337,1.80887 0,0.99488 -0.6761,2.68238 -1.50245,3.75 -1.45283,1.87701 -1.48029,1.87802 -0.83133,0.0304 z M 36.811133,333.98308 c -0.66,-0.66 -1.2,-1.7299 -1.2,-2.37756 0,-0.64765 -0.675,-1.73775 -1.5,-2.42244 -3.809807,-3.16186 -0.149026,-12.97554 4.312074,-11.55965 1.203359,0.38194 2.187926,1.29096 2.187926,2.02005 0,0.72909 0.675,1.58464 1.5,1.90123 1.74591,0.66996 2.08832,7.15673 0.431826,8.1805 -0.587495,0.3631 -0.829252,1.28279 -0.537238,2.04377 0.292014,0.76097 -0.322724,1.84046 -1.366085,2.39885 -2.369502,1.26811 -2.375949,1.2678 -3.828503,-0.18475 z m 103.299337,-4.16066 c -2.54231,-3.88006 -1.21689,-9.80214 3.02797,-13.52918 3.84613,-3.37694 6.70271,-3.21493 9.14921,0.5189 3.17305,4.84268 -1.21148,13.79591 -7.33372,14.97551 -2.64355,0.50934 -3.43155,0.18961 -4.84346,-1.96523 z M 30.585398,303.39264 c -4.592862,-4.59286 -5.405038,-9.60475 -2.048669,-12.64223 2.759503,-2.49731 5.073006,-1.64541 8.404569,3.09483 2.823369,4.01716 2.873385,4.29004 1.543867,8.42312 -0.755717,2.3493 -1.948113,4.45755 -2.649767,4.685 -0.701655,0.22745 -3.064155,-1.37488 -5.25,-3.56072 z m 111.282052,-2.23838 c -2.70002,-1.08552 -6.2474,-6.6008 -6.25258,-9.72118 -0.005,-2.82004 3.32823,-6.25 6.07318,-6.25 1.14231,0 3.39231,1.31538 5,2.92308 3.7878,3.78779 4.14156,10.11005 0.70057,12.52022 -2.5126,1.75989 -2.4675,1.75558 -5.52117,0.52788 z M 17.131952,276.79481 c -4.635875,-4.63588 -4.18443,-12.82036 0.89057,-16.14563 3.100689,-2.03165 4.290319,-1.33485 6.670776,3.90727 2.467165,5.43306 2.436745,10.10772 -0.08216,12.62663 -2.625035,2.62504 -4.566671,2.52424 -7.479181,-0.38827 z m 113.859828,-1.52132 c -6.90854,-4.21267 -7.00928,-17.09041 -0.1337,-17.09041 4.63007,0 8.91795,5.66173 9.05644,11.95813 0.14852,6.75286 -3.15188,8.65122 -8.92274,5.13228 z M 12.678441,246.76621 c -1.905288,-2.29843 -2.194039,-8.59727 -0.425228,-9.27602 0.746856,-0.2866 1.35792,-1.30071 1.35792,-2.25358 0,-2.3048 4.463702,-4.40674 5.834577,-2.74749 1.480541,1.79199 2.692372,9.13767 1.372932,8.32221 -0.588122,-0.36348 -1.351964,-0.20353 -1.697428,0.35544 -0.345463,0.55897 -0.151557,1.01631 0.430902,1.01631 1.439642,0 1.342223,3.31679 -0.140983,4.8 -1.407343,1.40734 -4.184345,1.6309 -3.342705,0.2691 0.316431,-0.512 0.152045,-1.19251 -0.365301,-1.51224 -0.517347,-0.31974 -1.087187,0.16924 -1.266312,1.08662 -0.3005,1.539 -0.436458,1.53434 -1.758374,-0.0603 z m 108.009609,-1.66005 c -3.78174,-3.78175 -4.19379,-9.23349 -1.00434,-13.28822 2.04617,-2.60129 6.10063,-3.49015 8.52772,-1.86955 3.81667,2.54846 4.71115,12.92324 1.3997,16.23469 -2.80312,2.80312 -5.35047,2.49568 -8.92308,-1.07692 z M 20.604914,220.17146 c -0.8197,-1.53162 -0.681601,-2.84399 0.578758,-5.5 0.910439,-1.91861 2.072886,-3.48838 2.583216,-3.48838 0.510329,0 1.848702,-0.85788 2.97416,-1.90641 2.706338,-2.52134 5.870085,-3.32976 5.870085,-1.49997 0,0.77351 0.675,1.40638 1.5,1.40638 1.848553,0 1.851075,0.224 0.05103,4.53212 -0.796936,1.90733 -1.921936,3.46788 -2.5,3.46788 -0.578065,0 -1.287586,-0.0107 -1.576714,-0.0238 -0.289127,-0.0131 -1.578229,1.11191 -2.86467,2.5 -2.821188,3.04412 -5.163757,3.22547 -6.615862,0.51219 z m 9.006219,-9.98838 c 0,-0.55 -0.45,-1 -1,-1 -0.55,0 -1,0.45 -1,1 0,0.55 0.45,1 1,1 0.55,0 1,-0.45 1,-1 z m 92.180337,1.49239 c -5.78036,-6.64799 0.50587,-19.80607 6.96394,-14.57664 3.20071,2.59177 3.08151,11.15056 -0.204,14.64782 -2.88433,3.07023 -4.0391,3.05807 -6.75994,-0.0712 z M 38.249507,199.68308 c -0.316583,-0.825 -0.350809,-2.2875 -0.07606,-3.25 0.27475,-0.9625 -0.03314,-0.7375 -0.684199,0.5 -1.618615,3.07658 -2.826847,2.8282 -2.432224,-0.5 0.179337,-1.5125 0.377376,-3.22707 0.440088,-3.81016 0.238522,-2.21777 6.414188,-7.43984 8.798421,-7.43984 5.60342,0 7.82831,3.41752 4.81583,7.39732 -0.78989,1.04353 -1.23296,2.22611 -0.9846,2.62797 0.47723,0.77218 -6.825992,5.97471 -8.387201,5.97471 -0.502948,0 -1.173473,-0.675 -1.490055,-1.5 z m 87.912903,-15.41703 c -1.01402,-1.64072 0.59107,-8.44848 2.59154,-10.99167 4.52416,-5.75153 13.03936,-6.38568 13.61833,-1.01418 0.28172,2.61375 -5.46708,9.80687 -9.44541,11.81845 -2.65456,1.34223 -5.99357,1.43473 -6.76446,0.1874 z m -72.351277,-6.28297 c -0.66,-0.66 -1.2,-3.74429 -1.2,-6.85398 0,-4.61554 0.45039,-6.13996 2.45225,-8.3 4.7359,-5.11012 8.9681,-2.60938 8.71527,5.14972 -0.12997,3.9888 -0.68444,5.19855 -3.64571,7.95426 -3.85086,3.58354 -4.55872,3.81309 -6.32181,2.05 z m 85.427877,-21.08283 c -1.45665,-1.06513 -1.63747,-2.16416 -1.06549,-6.47597 1.19635,-9.01854 10.40854,-15.90107 13.51476,-10.09704 2.50281,4.67655 -0.90422,13.48246 -6.41114,16.5704 -2.79824,1.56909 -3.89519,1.56956 -6.03813,0.003 z m -76.659147,-12.7756 c -0.58367,-1.0906 -0.74588,-2.49313 -0.36047,-3.11675 0.41825,-0.67673 0.25555,-0.85868 -0.40358,-0.45132 -0.60738,0.37538 -1.57691,-0.2005 -2.15451,-1.27975 -2.72755,-5.09649 0.75154,-14.09375 5.44983,-14.09375 3.06892,0 6.49144,5.00622 6.49471,9.5 0.005,6.96381 -6.63484,13.90945 -9.02598,9.44157 z m 87.587967,-20.16407 c -3.24603,-4.63436 -0.90037,-13.93594 3.98251,-15.79241 3.49824,-1.33002 5.02076,-0.39713 6.29546,3.85743 2.72204,9.08537 -5.54771,18.68837 -10.27797,11.93498 z M 63.051643,113.11734 c -2.58596,-2.85745 -2.48812,-9.05768 0.19948,-12.64137 1.65739,-2.209994 2.89723,-2.792894 5.94049,-2.792894 3.46385,0 3.9365,0.31591 4.75723,3.179664 1.26917,4.4285 0.0475,9.83862 -2.61477,11.57893 -4.17598,2.72986 -6.26891,2.9006 -8.28243,0.67567 z M 156.61113,94.399606 c -0.825,-0.26263 -2.2875,-1.16353 -3.25,-2.002 -5.26119,-4.58324 3.34545,-17.3408 9.50903,-14.09517 1.23253,0.64903 2.58325,1.67519 3.00158,2.28035 0.85208,1.2326 -0.029,8.21586 -1.35563,10.74511 -1.00825,1.92218 -5.74009,3.76088 -7.90498,3.07171 z m -89.789147,-10.6756 c -6.36377,-8.09023 -4.89646,-17.54092 2.72341,-17.54092 1.13616,0 2.06574,0.47655 2.06574,1.05901 0,0.58246 0.45943,0.77508 1.02096,0.42803 1.43038,-0.88402 3.97904,5.68664 3.97904,10.25833 0,7.49726 -5.76557,10.9107 -9.78915,5.79555 z M 158.68371,59.548223 c -4.41565,-5.613584 -1.75842,-14.365141 4.36168,-14.365141 4.47022,0 6.06574,2.235827 6.06574,8.5 0,2.931213 -0.5977,5.9128 -1.37244,6.846305 -2.12871,2.564929 -6.65108,2.074899 -9.05498,-0.981164 z"
         id="path197"
         inkscape:connector-curvature="0" />
    </g>
  </g>
</svg>
