<?xml version="1.0" encoding="UTF-8" standalone="no"?>
<!-- Created with Inkscape (http://www.inkscape.org/) -->

<svg
   xmlns:dc="http://purl.org/dc/elements/1.1/"
   xmlns:cc="http://creativecommons.org/ns#"
   xmlns:rdf="http://www.w3.org/1999/02/22-rdf-syntax-ns#"
   xmlns:svg="http://www.w3.org/2000/svg"
   xmlns="http://www.w3.org/2000/svg"
   xmlns:sodipodi="http://sodipodi.sourceforge.net/DTD/sodipodi-0.dtd"
   xmlns:inkscape="http://www.inkscape.org/namespaces/inkscape"
   version="1.1"
   id="svg2949"
   width="283"
   height="443"
   viewBox="0 0 283 443"
   sodipodi:docname="serpentins3.svg"
   inkscape:version="0.92.4 (5da689c313, 2019-01-14)">
  <metadata
     id="metadata2955">
    <rdf:RDF>
      <cc:Work
         rdf:about="">
        <dc:format>image/svg+xml</dc:format>
        <dc:type
           rdf:resource="http://purl.org/dc/dcmitype/StillImage" />
        <dc:title></dc:title>
      </cc:Work>
    </rdf:RDF>
  </metadata>
  <defs
     id="defs2953" />
  <sodipodi:namedview
     pagecolor="#ffffff"
     bordercolor="#666666"
     borderopacity="1"
     objecttolerance="10"
     gridtolerance="10"
     guidetolerance="10"
     inkscape:pageopacity="0"
     inkscape:pageshadow="2"
     inkscape:window-width="1280"
     inkscape:window-height="972"
     id="namedview2951"
     showgrid="false"
     inkscape:zoom="1.5067919"
     inkscape:cx="-147.94485"
     inkscape:cy="221.5"
     inkscape:window-x="-8"
     inkscape:window-y="-8"
     inkscape:window-maximized="1"
     inkscape:current-layer="g180"
     showguides="false" />
  <g
     id="g151"
     transform="translate(25.882805,-2.654647)">
    <g
       id="g180"
       transform="translate(23.228158,-38.492376)">
      <path
         style="fill:#ffffff"
         d="m -23.584267,469.02653 c -0.717861,-1.34134 -1.352657,-4.60384 -1.410657,-7.25 -0.263742,-12.03278 8.89129,-18.88306 12.272714,-9.1831 2.248862,6.45109 0.468353,14.10325 -4.011688,17.2412 -3.254425,2.27949 -5.32891,2.03477 -6.850369,-0.8081 z m 3.217242,-37.29185 c -1.491185,-0.52016 -1.680496,-8.00687 -0.294635,-11.65196 1.391873,-3.6609 5.389196,-6.03855 7.896294,-4.69679 4.2176294,2.25721 3.3221584,12.7308 -1.274987,14.9125 -3.184639,1.51135 -4.957547,1.91383 -6.326672,1.43625 z m 11.4166664,-33.93603 c -1.1669994,-1.167 -0.717598,-7.33476 0.738319,-10.13299 0.772742,-1.48519 2.547829,-3.76788 3.944637,-5.07264 3.237273,-3.02396 7.315999,-2.30815 8.259098,1.44945 0.80353,3.20153 -2.094861,9.87349 -5.428217,12.49551 -2.426708,1.90884 -6.227899,2.54661 -7.513837,1.26067 z M 129.35822,366.90022 c -1.7249,-4.53683 -1.13072,-8.22934 1.86346,-11.58041 l 2.83871,-3.17707 2.16129,2.16129 c 2.92232,2.92232 3.01286,10.30972 0.16129,13.16129 -2.80092,2.80092 -5.83788,2.55662 -7.02475,-0.5651 z M 8.3829747,364.83335 c 0,-6.63516 7.2447513,-14.2635 12.5392503,-13.20317 1.62764,0.32597 1.94997,1.19646 1.89729,5.12385 -0.0533,3.97653 -0.60302,5.28784 -3.446171,8.22123 -2.696632,2.78221 -4.154186,3.49006 -7.186536,3.49006 -3.7068973,0 -3.8038333,-0.0926 -3.8038333,-3.63197 z M 25.954405,339.89389 c -3.18649,-3.18648 -1.36646,-9.4411 4.32049,-14.84765 2.70865,-2.57509 3.3673,-2.78384 5.58928,-1.77144 1.9936,0.90835 2.5188,1.87768 2.5188,4.64884 0,9.55367 -7.56201,16.83682 -12.42857,11.97025 z m 110.178565,0.49484 c -1.24454,-0.72737 -1.75,-2.28762 -1.75,-5.4019 0,-3.59848 0.6004,-5.01571 3.36808,-7.95031 1.85244,-1.96416 4.07692,-3.5712 4.94329,-3.5712 2.23733,0 4.68929,3.91094 4.68489,7.47251 -0.004,3.59308 -3.3678,9.52749 -5.39977,9.52749 -0.78811,0 -2.03222,0.2129 -2.7647,0.4731 -0.73249,0.26021 -2.11929,0.0129 -3.08179,-0.54969 z m 7.7425,-31.23758 c -1.78566,-2.54939 -1.94532,-8.59788 -0.32106,-12.16275 1.3127,-2.88106 5.30951,-4.33714 7.73334,-2.81734 2.55791,1.60388 2.66433,10.30103 0.16492,13.47852 -2.80817,3.57002 -5.72372,4.14779 -7.5772,1.50157 z m -105.825825,0.6475 c -0.36667,-0.36666 -0.66667,-2.58214 -0.66667,-4.92327 0,-6.63807 6.72846,-13.69612 10.91872,-11.45356 4.14108,2.21624 3.34756,12.34273 -1.21775,15.5404 -2.18149,1.52797 -7.82067,2.05007 -9.0343,0.83643 z m 3.78558,-32.97935 c -1.34874,-1.45532 -2.48881,-3.36782 -2.53349,-4.25 -0.0447,-0.88219 -0.17614,-2.93503 -0.29212,-4.56186 -0.12444,-1.74536 0.52376,-3.69252 1.58124,-4.75 5.46786,-5.46786 13.82922,3.7197 10.75172,11.81413 -1.9595,5.15388 -5.71143,5.84359 -9.50735,1.74773 z m 100.156865,0.11228 c -3.53709,-3.53709 -3.95415,-11.08549 -0.8131,-14.71626 3.48172,-4.02455 8.13441,-0.54685 8.95009,6.68983 0.84241,7.47384 -3.95619,12.20723 -8.13699,8.02643 z M 30.408415,248.49076 c -1.08601,-1.08601 -2.2486,-3.22351 -2.58353,-4.75 -0.33492,-1.52649 -0.7597,-3.27918 -0.94394,-3.89487 -0.18425,-0.61569 0.52172,-2.52819 1.56882,-4.25 3.87111,-6.36552 9.64729,-2.8469 10.70306,6.51989 0.45386,4.02669 0.21257,4.85869 -1.87446,6.46334 -3.07355,2.36314 -4.43597,2.34562 -6.86995,-0.0884 z m 95.390395,-6.18819 c -3.41241,-6.59886 0.13826,-15.21253 6.03306,-14.63577 2.57085,0.25153 3.27227,0.93821 4.45619,4.36253 1.64791,4.76635 0.94687,8.56436 -2.10576,11.40831 -3.26333,3.04026 -6.44727,2.60917 -8.38349,-1.13507 z M 20.196545,221.75059 c -2.48611,-2.84467 -3.132263,-8.76831 -1.335468,-12.24292 1.854188,-3.58562 5.987948,-5.00487 8.183238,-2.80958 3.33353,3.33353 2.38655,15.76723 -1.20087,15.76723 -0.71329,0 -1.92459,0.24087 -2.69178,0.53527 -0.76718,0.29439 -2.09699,-0.26811 -2.95512,-1.25 z m 97.174855,-2.79921 c -2.05915,-2.48113 -0.49835,-10.55178 2.55975,-13.23606 3.54689,-3.11331 7.79938,-2.97736 9.2913,0.29705 1.53181,3.36195 1.4645,4.96443 -0.35641,8.48568 -1.497,2.89488 -6.03353,5.96727 -8.81097,5.96727 -0.78496,0 -1.99262,-0.68127 -2.68367,-1.51394 z M 26.226255,198.07451 c -4.19083,-2.08936 -3.64573,-9.19004 1.10476,-14.39116 3.40255,-3.72532 5.26321,-4.00678 8.05196,-1.21803 2.91295,2.91295 2.67938,9.03915 -0.48815,12.80354 -2.98059,3.54224 -5.53367,4.36856 -8.66857,2.80565 z m 91.485995,-7.38452 c -2.58853,-1.64659 -2.55684,-5.90393 0.075,-10.07302 3.00225,-4.75587 5.86094,-6.55289 9.12222,-5.73436 4.97256,1.24804 4.40408,10.00841 -0.91262,14.06365 -3.32256,2.53424 -6.11717,3.12245 -8.28459,1.74373 z M 35.970165,170.95423 c -3.49502,-2.64481 -1.69317,-11.36806 3.27729,-15.86627 4.23448,-3.83215 10.13552,-1.44023 10.13552,4.10833 0,4.23301 -3.86452,10.31448 -7.5268,11.84467 -4.05039,1.69236 -3.52475,1.70011 -5.88601,-0.0867 z m 89.888485,-7.52825 c -0.35329,-0.57164 -0.64235,-3.07279 -0.64235,-5.5581 0,-3.55377 0.5421,-5.02116 2.5385,-6.87136 3.60759,-3.3434 8.59875,-4.29192 10.30508,-1.95838 2.41261,3.29944 1.57569,7.07743 -2.52207,11.38507 -3.80924,4.00434 -8.21535,5.37125 -9.67916,3.00277 z M 53.978305,140.25874 c -3.84063,-2.14933 0.30482,-11.52888 6.57959,-14.88703 4.69881,-2.51473 8.72702,2.0383 6.47692,7.32077 -2.5643,6.02011 -9.07619,9.79375 -13.05651,7.56626 z m 80.941255,-4.09723 c -2.54904,-3.89034 0.48627,-11.62241 5.60076,-14.26721 4.10449,-2.12252 7.63262,-1.15851 8.55032,2.33625 1.36474,5.19723 -0.29827,9.01971 -5.3826,12.37207 -3.78743,2.49724 -6.94735,2.33828 -8.76848,-0.44111 z M 72.582975,117.26532 c -2.78843,-2.78843 0.41632,-13.45393 4.73752,-15.76656 5.95601,-3.187546 10.1365,0.43845 8.14995,7.06896 -2.34657,7.83214 -9.15679,12.42828 -12.88747,8.6976 z M 146.47084,104.0712 c -0.63636,-0.76677 -1.41709,-3.58998 -1.73495,-6.273806 -0.52769,-4.45551 -0.30999,-5.16651 2.50445,-8.17937 5.36796,-5.746427 10.09601,-2.64535 10.12789,6.64276 0.0111,3.23981 -0.58848,4.898676 -2.43981,6.749996 -2.71522,2.71522 -6.67244,3.21138 -8.45758,1.06042 z M 75.792215,83.967152 c -2.69248,-4.109234 -1.15187,-10.44707 3.22127,-13.251821 4.21746,-2.704908 6.52896,-2.838728 8.63659,-0.5 2.53426,2.812132 3.06174,6.713423 1.35416,10.015512 -0.84782,1.639506 -1.29225,3.23017 -0.98761,3.534808 0.61934,0.619341 -6.1758,2.685433 -8.8606,2.694103 -0.94982,0.003 -2.46354,-1.118604 -3.36381,-2.492602 z m 73.625935,-15.43608 c -2.91993,-5.455944 0.92269,-15.261771 6.22285,-15.879821 2.14248,-0.249835 3.10673,0.363822 4.71396,3 2.87306,4.71239 2.59544,8.400492 -0.89507,11.891003 -3.50582,3.505823 -8.43491,3.991195 -10.04174,0.988818 z"
         id="path240"
         inkscape:connector-curvature="0" />
    </g>
  </g>
</svg>
