<?xml version="1.0" encoding="UTF-8" standalone="no"?>
<!-- Created with Inkscape (http://www.inkscape.org/) -->

<svg
   xmlns:dc="http://purl.org/dc/elements/1.1/"
   xmlns:cc="http://creativecommons.org/ns#"
   xmlns:rdf="http://www.w3.org/1999/02/22-rdf-syntax-ns#"
   xmlns:svg="http://www.w3.org/2000/svg"
   xmlns="http://www.w3.org/2000/svg"
   xmlns:sodipodi="http://sodipodi.sourceforge.net/DTD/sodipodi-0.dtd"
   xmlns:inkscape="http://www.inkscape.org/namespaces/inkscape"
   width="75mm"
   height="120mm"
   viewBox="0 0 75 120"
   version="1.1"
   id="svg8"
   inkscape:version="0.92.4 (5da689c313, 2019-01-14)"
   sodipodi:docname="feu17.svg">
  <defs
     id="defs2" />
  <sodipodi:namedview
     id="base"
     pagecolor="#ffffff"
     bordercolor="#666666"
     borderopacity="1.0"
     inkscape:pageopacity="0.0"
     inkscape:pageshadow="2"
     inkscape:zoom="0.98994949"
     inkscape:cx="-37.15592"
     inkscape:cy="298.19798"
     inkscape:document-units="mm"
     inkscape:current-layer="layer1"
     showgrid="false"
     units="mm"
     inkscape:window-width="1920"
     inkscape:window-height="1017"
     inkscape:window-x="-8"
     inkscape:window-y="-8"
     inkscape:window-maximized="1" />
  <metadata
     id="metadata5">
    <rdf:RDF>
      <cc:Work
         rdf:about="">
        <dc:format>image/svg+xml</dc:format>
        <dc:type
           rdf:resource="http://purl.org/dc/dcmitype/StillImage" />
        <dc:title />
      </cc:Work>
    </rdf:RDF>
  </metadata>
  <g
     inkscape:label="Calque 1"
     inkscape:groupmode="layer"
     id="layer1"
     transform="translate(0,-176.99999)">
    <g
       id="g2692"
       transform="translate(-0.80180858,3.4745035)">
      <path
         style="fill:#ffe680;stroke-width:0.26458335"
         d="m 46.534558,285.2929 c -0.154387,-0.40018 -0.713608,-2.15636 -1.242711,-3.90261 -1.236017,-4.07933 -2.021033,-6.26523 -2.189506,-6.09676 -0.07349,0.0735 0.0086,1.2372 0.182443,2.58602 0.173834,1.34883 0.376111,2.92866 0.449504,3.51074 0.08261,0.65516 0.04031,0.95755 -0.111036,0.79375 -0.134461,-0.14552 -0.587038,-2.05052 -1.005728,-4.23333 l -0.761254,-3.96875 -0.132292,3.04271 c -0.142518,3.2779 -0.162787,3.23867 -0.751874,-1.45521 -0.190254,-1.51597 -0.208701,-1.43848 -0.409377,1.71979 -0.366392,5.7664 -0.621485,6.13411 -0.657714,0.94809 -0.0182,-2.60724 -0.08244,-4.69084 -0.142732,-4.63021 -0.06029,0.0606 -0.478357,2.3129 -0.929045,5.00504 -1.367232,8.16703 -1.720636,7.82644 -0.522253,-0.50333 0.280588,-1.95032 0.465796,-3.5904 0.411572,-3.64462 -0.05422,-0.0542 -0.476961,1.09501 -0.939421,2.55385 -0.46246,1.45884 -0.963607,2.65243 -1.113661,2.65243 -0.156551,0 -0.197834,-0.23626 -0.09687,-0.55437 0.416901,-1.31354 1.446525,-5.33138 1.439243,-5.61628 -0.0044,-0.1714 -0.371932,0.5218 -0.816779,1.54044 -1.640499,3.75654 -2.362734,5.2351 -2.493383,5.10445 -0.07367,-0.0737 0.404641,-1.68212 1.062921,-3.57433 0.658278,-1.8922 1.196872,-3.54135 1.196872,-3.66476 0,-0.12342 -0.609034,0.84217 -1.35341,2.14575 -1.523838,2.66861 -1.505508,2.64213 -1.696701,2.45094 -0.152019,-0.15202 -2.36e-4,-0.5842 1.050528,-2.99121 0.608346,-1.39356 0.625864,-1.50669 0.143388,-0.92604 -0.302292,0.3638 -0.749308,0.95911 -0.993367,1.32291 -1.18981,1.77356 -3.853408,5.29148 -3.940501,5.20439 -0.156043,-0.15605 0.439547,-1.15905 2.506173,-4.22051 2.427669,-3.5963 2.625117,-4.12887 0.871239,-2.35 -0.765689,0.7766 -1.460738,1.34343 -1.544556,1.25961 -0.08382,-0.0838 0.423884,-0.89781 1.128223,-1.80888 0.70434,-0.91106 0.990799,-1.40896 0.636572,-1.10643 -0.354224,0.30252 -1.637215,1.41279 -2.851087,2.46726 -1.213871,1.05447 -2.285433,1.83592 -2.38125,1.73656 -0.09582,-0.0994 1.075947,-1.37096 2.603916,-2.82579 2.658213,-2.53096 2.754188,-2.86831 0.349202,-1.22747 -0.608301,0.41503 -1.173848,0.7546 -1.256771,0.7546 -0.466635,0 0.03148,-0.54239 1.440281,-1.56831 0.875075,-0.63725 1.542108,-1.20757 1.482294,-1.26738 -0.05982,-0.0598 -0.974167,0.31895 -2.031897,0.84169 -1.05773,0.52274 -2.02583,0.91621 -2.151333,0.87438 -0.125502,-0.0418 0.663948,-0.60503 1.754336,-1.25155 1.090385,-0.64651 1.940317,-1.21768 1.888736,-1.26926 -0.05158,-0.0516 -0.672412,0.16495 -1.379627,0.48119 -3.280574,1.46693 -3.270221,1.46348 -3.270221,1.09024 0,-0.1193 1.134239,-0.73131 2.520529,-1.36002 1.386292,-0.62872 2.485477,-1.17817 2.442636,-1.22101 -0.04284,-0.0428 -1.319358,0.26814 -2.836698,0.69108 -1.517343,0.42293 -2.806962,0.72081 -2.86582,0.66195 -0.177432,-0.17743 2.370774,-1.35774 3.723504,-1.7247 2.001072,-0.54284 1.301863,-0.57878 -1.606114,-0.0826 -2.359568,0.40264 -3.357813,0.38125 -2.914115,-0.0624 0.07679,-0.0768 1.37039,-0.3782 2.874668,-0.6698 1.504278,-0.2916 2.800747,-0.59678 2.881043,-0.67817 0.0803,-0.0814 -0.985102,-0.0713 -2.36755,0.0225 -3.15116,0.21376 -2.706583,-0.24545 0.722127,-0.74589 l 2.320581,-0.3387 -1.852083,-0.1785 c -1.018646,-0.0982 -2.358099,-0.17935 -2.976562,-0.18038 -0.618464,-0.001 -1.12448,-0.12094 -1.12448,-0.26646 0,-0.24932 2.242294,-0.37823 4.630209,-0.2662 2.080617,0.0976 0.708104,-0.24892 -3.185404,-0.80428 -5.598182,-0.79849 -5.678138,-0.81363 -5.678138,-1.07513 0,-0.29234 -0.304386,-0.30448 4.101042,0.16358 4.925017,0.52327 5.163402,0.4886 2.460445,-0.3578 -1.266132,-0.39648 -2.397225,-0.82142 -2.513542,-0.94431 -0.220253,-0.23269 1.483056,-0.0794 3.757263,0.33825 0.727605,0.1336 1.356805,0.21196 1.398225,0.17413 0.04142,-0.0378 -1.119438,-0.52125 -2.579687,-1.07425 -1.460248,-0.55301 -2.654996,-1.10451 -2.654996,-1.22556 0,-0.35973 0.633627,-0.25712 2.673075,0.43288 1.061508,0.35913 1.962124,0.62086 2.001367,0.58161 0.03924,-0.0392 -0.821601,-0.54144 -1.912986,-1.11599 -1.091387,-0.57455 -2.308019,-1.30825 -2.703627,-1.63043 -0.61821,-0.50348 -0.648514,-0.58714 -0.21565,-0.59532 0.490529,-0.009 2.131817,0.68041 4.759259,1.99987 0.711779,0.35744 1.329925,0.61412 1.373655,0.57039 0.04373,-0.0437 -0.686606,-0.5953 -1.62297,-1.2257 -0.936363,-0.6304 -1.63658,-1.25281 -1.556035,-1.38314 0.168619,-0.27283 0.920681,0.0849 2.172052,1.03325 0.476903,0.36141 0.921583,0.60263 0.988176,0.53603 0.12146,-0.12146 -3.712848,-3.71182 -4.140816,-3.87736 -0.1254,-0.0485 -0.228,-0.2636 -0.228,-0.47798 0,-0.32443 0.138041,-0.30964 0.823278,0.0882 0.452802,0.26289 1.316005,0.8965 1.918229,1.40801 1.825101,1.55021 2.164606,1.78725 1.889067,1.31893 -0.27355,-0.46494 -2.42769,-2.97299 -4.035261,-4.69823 -0.618464,-0.66373 -1.12448,-1.31501 -1.12448,-1.44729 0,-0.46701 1.519608,0.85159 4.052319,3.51629 1.409245,1.48269 2.562265,2.61779 2.562265,2.52244 0,-0.0954 -0.446485,-0.75969 -0.992188,-1.47631 -1.428639,-1.87608 -2.181463,-3.14901 -1.947791,-3.29342 0.229584,-0.14189 1.683896,1.53404 2.801356,3.22825 1.358974,2.06038 0.973769,0.96818 -0.634863,-1.80007 -0.871233,-1.49928 -1.516388,-2.83546 -1.433676,-2.96929 0.152595,-0.2469 1.658024,1.69403 2.380205,3.06878 0.217328,0.4137 0.447458,0.69988 0.511397,0.63594 0.136358,-0.13636 -0.319871,-1.26121 -1.747856,-4.3094 -2.234499,-4.76978 -1.469811,-4.76249 0.958768,0.009 0.845965,1.66213 1.574046,2.98613 1.617959,2.94222 0.04391,-0.0439 -0.09922,-0.58734 -0.318064,-1.20762 -0.218847,-0.62027 -0.32776,-1.24127 -0.24203,-1.37998 0.173574,-0.28085 0.865423,1.07324 1.577075,3.08668 0.522571,1.47847 1.033725,2.24053 0.798613,1.19062 -0.08147,-0.3638 -0.518385,-2.24711 -0.970923,-4.18513 -0.45254,-1.93801 -0.751498,-3.59497 -0.66435,-3.68211 0.236577,-0.23658 0.298799,-0.10813 0.98347,2.0303 0.710432,2.21889 1.475446,2.94537 1.16469,1.10602 -0.336145,-1.98963 0.338111,-1.17141 0.791594,0.96061 0.531794,2.50019 0.610677,2.74577 0.637392,1.98437 0.03814,-1.0871 0.550055,-0.61514 0.550055,0.50712 0,0.60634 0.05145,1.05099 0.114324,0.98811 0.122867,-0.12287 0.333248,-9.26677 0.541184,-23.52179 0.07111,-4.87495 0.207502,-13.93335 0.303091,-20.12978 l 0.173802,-11.26625 -3.005172,-3.15355 c -1.652841,-1.73444 -3.568015,-3.74885 -4.255937,-4.47645 -0.687922,-0.72761 -2.388354,-2.50759 -3.778739,-3.95551 -1.534501,-1.59801 -2.526085,-2.84576 -2.523174,-3.175 0.0048,-0.54148 1.120938,-1.80236 3.506789,-3.96151 1.826517,-1.65297 6.61085,-3.55302 9.02185,-3.58293 l 0.759476,-0.009 -0.91398,1.12448 c -1.292016,1.58958 -2.212017,3.2744 -2.699028,4.94281 -0.495263,1.69668 -0.493799,1.68279 -0.154903,1.47334 0.145521,-0.0899 0.264584,-0.3429 0.264584,-0.56213 0,-1.33916 3.396755,-6.71392 4.243083,-6.71392 0.488625,0 2.207093,2.06975 3.185327,3.83646 0.564028,1.01865 1.153744,2.46688 1.310481,3.2183 0.25219,1.20906 0.211484,1.57429 -0.353878,3.175 -2.894443,8.19507 -3.887097,11.07983 -3.887097,11.29636 0,0.13845 0.25545,0.0249 0.567667,-0.2523 0.561774,-0.49879 0.564668,-0.49831 0.279029,0.0469 -0.158752,0.30301 -0.456014,0.68984 -0.660582,0.85962 -0.298498,0.24773 -0.380622,1.57574 -0.415883,6.72511 -0.04249,6.20436 -0.0993,10.7529 -0.448612,35.91747 -0.171389,12.34691 -0.03639,13.74217 0.819172,8.46667 0.432308,-2.66564 0.895913,-4.11341 0.74201,-2.31718 -0.04062,0.47408 -0.141859,2.11213 -0.224975,3.6401 l -0.151119,2.77812 1.489204,-4.63021 c 1.360824,-4.23105 1.972839,-5.71671 1.972839,-4.78905 0,0.18913 -0.310475,1.49286 -0.689946,2.89719 -0.993058,3.67507 -1.453001,5.65794 -1.338879,5.77206 0.05475,0.0548 0.438952,-0.64707 0.853784,-1.5596 0.457438,-1.00625 0.791774,-1.48129 0.84962,-1.20717 0.05246,0.24858 -0.150516,1.00785 -0.451057,1.68727 -0.300542,0.67943 -0.544282,1.36901 -0.541644,1.53242 0.0049,0.30202 0.786744,-1.0285 2.701795,-4.5977 0.585595,-1.09141 1.168673,-2.09749 1.295731,-2.23573 0.451263,-0.491 0.228925,0.29419 -0.526148,1.85811 -0.416438,0.86253 -0.848577,1.8659 -0.960308,2.2297 -0.11173,0.3638 -0.485383,1.22305 -0.830339,1.90944 -0.344956,0.68638 -0.627192,1.32177 -0.627192,1.41197 0,0.0902 0.71388,-0.79881 1.586399,-1.97558 0.872522,-1.17677 1.719652,-2.13958 1.882513,-2.13958 0.189508,0 0.153927,0.21701 -0.09883,0.60277 -0.217218,0.33151 -0.895138,1.5519 -1.50649,2.71197 -0.88333,1.67617 -0.970238,1.94625 -0.423291,1.31547 0.984255,-1.13513 3.952658,-4.62019 4.732539,-5.55625 0.991653,-1.19025 1.08795,-0.66476 0.124632,0.68011 -1.945532,2.71612 -3.679722,4.99456 -3.909682,5.13668 -0.135565,0.0838 -0.513567,0.52742 -0.840005,0.98586 -0.75893,1.06582 -0.480454,0.88378 2.325497,-1.5202 1.266474,-1.08504 2.356919,-1.91857 2.423205,-1.85228 0.143375,0.14337 -1.926037,2.65712 -2.571567,3.12372 -0.247507,0.1789 -0.545129,0.48394 -0.661379,0.67786 -0.255857,0.4268 1.046009,-0.20636 2.625003,-1.27667 2.88639,-1.95653 3.038051,-1.49662 0.224398,0.68048 -3.582577,2.77206 -3.47721,2.82142 1.046298,0.4901 2.445133,-1.26016 4.527735,-2.20917 4.628004,-2.1089 0.100269,0.10027 0.0047,0.29133 -0.212363,0.42458 -1.657821,1.01768 -5.875446,3.51043 -6.704166,3.96237 -0.559802,0.3053 -0.976521,0.59365 -0.926041,0.64078 0.05048,0.0471 1.103818,-0.2521 2.340745,-0.66496 3.344756,-1.1164 3.384603,-0.914 0.132291,0.67198 -3.2507,1.5852 -3.15188,1.78599 0.380328,0.77278 1.31358,-0.3768 2.539286,-0.62878 2.72379,-0.55997 0.215776,0.0805 0.146664,0.19337 -0.193701,0.31641 -0.291042,0.10522 -1.362604,0.4894 -2.38125,0.85373 -1.018646,0.36434 -2.090208,0.76031 -2.38125,0.87993 l -0.529167,0.21751 0.529167,0.0158 c 0.291042,0.009 1.953392,-0.16185 3.69411,-0.37897 5.938258,-0.74067 5.439246,-0.29279 -0.915985,0.82214 -3.653369,0.64093 -3.921636,0.84657 -0.932614,0.71491 1.451597,-0.0639 3.058941,-0.0287 3.571875,0.0783 l 0.932614,0.19458 -0.79375,0.18926 c -0.436562,0.10409 -1.627187,0.21743 -2.645833,0.25187 -1.018646,0.0344 -2.209271,0.14329 -2.645834,0.2419 -0.680505,0.15371 -0.567264,0.20489 0.79375,0.35876 0.873125,0.0987 2.123282,0.3592 2.778125,0.57888 1.174068,0.39387 1.148308,0.39797 -1.852083,0.2945 l -3.042708,-0.10492 4.233333,1.06126 c 2.328333,0.58369 4.282943,1.10908 4.343577,1.16752 0.376661,0.36306 -0.582022,0.29044 -3.938921,-0.29839 -2.08404,-0.36557 -3.827676,-0.62615 -3.874748,-0.57907 -0.04707,0.0471 0.982853,0.538 2.288727,1.09096 2.921371,1.23703 3.352001,1.71539 0.733915,0.81525 -3.063653,-1.05332 -3.687088,-1.24177 -3.784817,-1.14404 -0.05038,0.0504 2.113436,1.22217 4.808485,2.60397 4.711252,2.41555 6.520251,3.43296 6.110552,3.43667 -0.35369,0.003 -3.686525,-1.31144 -4.663573,-1.83956 -1.414592,-0.76462 -5.772009,-2.72207 -5.46278,-2.454 0.145521,0.12615 1.122852,0.87132 2.171848,1.65594 2.128552,1.59209 2.362433,2.0723 0.417899,0.85804 -0.696757,-0.43509 -1.981206,-1.17219 -2.854331,-1.63801 l -1.5875,-0.84693 1.432494,1.27324 c 0.787871,0.70028 2.15709,1.96765 3.042709,2.81638 1.504002,1.44136 1.529685,1.48499 0.389384,0.66145 -0.671457,-0.48492 -2.11596,-1.56629 -3.210012,-2.40304 -1.094052,-0.83674 -2.066232,-1.52135 -2.1604,-1.52135 -0.09417,0 0.793255,1.10133 1.972054,2.4474 1.178798,1.34606 2.258054,2.65575 2.39835,2.91041 0.523549,0.95034 -0.224142,0.40277 -2.167658,-1.5875 -1.101296,-1.12778 -2.226315,-2.22911 -2.500045,-2.44739 -0.472143,-0.37651 -0.471096,-0.35359 0.02043,0.44653 0.284964,0.46387 1.23249,1.76881 2.105615,2.89987 3.087359,3.99939 3.287424,4.93479 0.264583,1.23705 -1.018645,-1.24608 -2.30438,-2.75735 -2.857185,-3.35838 l -1.005102,-1.09278 1.100744,2.11666 c 0.605411,1.16417 1.223502,2.26838 1.373537,2.4538 0.150032,0.18541 0.210642,0.39926 0.134688,0.47522 -0.185613,0.18561 -1.497967,-1.52425 -2.594954,-3.38095 -0.490767,-0.83065 -0.933942,-1.46863 -0.984834,-1.41774 -0.05089,0.0509 0.217154,0.82832 0.595659,1.72761 2.139225,5.08257 2.097177,5.75865 -0.09004,1.4477 -0.779391,-1.53616 -1.456023,-2.75407 -1.503627,-2.70647 -0.09942,0.0994 1.033463,4.43215 1.43043,5.47072 0.82813,2.16661 2.136844,7.70407 1.820768,7.70407 -0.07371,0 -0.260326,-0.32742 -0.414711,-0.7276 z m -3.571507,-10.96367 c -0.08446,-0.21107 -0.147156,-0.14838 -0.159851,0.15985 -0.01148,0.27891 0.05104,0.43518 0.138965,0.34727 0.08792,-0.0879 0.09732,-0.31613 0.02087,-0.50712 z m -2.535997,-78.58091 c -0.452202,-1.50087 -1.394836,-4.49988 -2.094741,-6.66447 -1.391496,-4.30346 -1.48377,-4.42327 -3.687902,-4.78847 -1.504037,-0.2492 -5.483577,0.099 -6.074683,0.53145 -0.432403,0.31638 -0.306123,0.51893 1.512583,2.42614 1.091407,1.14451 2.859612,3.02925 3.929346,4.1883 3.119586,3.38004 6.999158,7.27434 7.123232,7.15026 0.06289,-0.0629 -0.25563,-1.34234 -0.707835,-2.84321 z m 2.705259,-1.53824 c 0.654923,-1.96453 1.558472,-4.61344 2.007886,-5.88648 0.44941,-1.27303 0.817112,-2.4995 0.817112,-2.72548 0,-0.73544 -1.726861,-1.21335 -4.171786,-1.15455 -2.363917,0.0568 -4.29488,0.41336 -4.29488,0.79294 0,0.12236 0.232415,0.85202 0.516474,1.62146 0.284062,0.76944 0.755428,2.23243 1.047478,3.25107 0.29205,1.01865 0.817226,2.68552 1.167058,3.70417 0.349832,1.01864 0.796933,2.41595 0.993558,3.10511 0.196623,0.68917 0.440484,1.16542 0.541912,1.05834 0.101431,-0.10709 0.720265,-1.80204 1.375188,-3.76658 z M 25.965694,271.5923 c 0.282475,-0.21366 0.699193,-0.38468 0.926041,-0.38005 0.32974,0.007 0.309458,0.0863 -0.101139,0.39687 -0.282475,0.21366 -0.699194,0.38468 -0.926042,0.38005 -0.32974,-0.007 -0.309458,-0.0863 0.10114,-0.39687 z m 29.274082,-13.18492 c 0.06063,-0.053 0.4079,-0.25113 0.771702,-0.44019 0.605049,-0.31442 0.630492,-0.3062 0.298334,0.0965 -0.199721,0.24211 -0.546987,0.4402 -0.771703,0.4402 -0.224716,0 -0.358965,-0.0434 -0.298333,-0.0965 z m -7.526023,-64.78 c 1.871612,-1.92121 4.442928,-4.54742 5.714034,-5.83601 l 2.311104,-2.34288 -0.988187,-0.42412 c -1.104503,-0.47405 -4.411453,-0.60244 -6.563212,-0.25483 l -1.341697,0.21675 -0.341966,-1.14279 c -0.548838,-1.83412 -1.83067,-4.26764 -2.812388,-5.33925 -0.500023,-0.5458 -0.90913,-1.04527 -0.90913,-1.10993 0,-0.23984 1.49995,-0.0995 2.910417,0.27232 1.73922,0.45847 5.333958,2.288 6.312138,3.21254 0.384628,0.36353 0.996977,0.84648 1.360779,1.07321 0.556268,0.34669 2.589315,2.6983 2.861389,3.30974 0.104008,0.23374 -11.338351,11.85837 -11.67244,11.85837 -0.134075,0 1.287547,-1.5719 3.159159,-3.49312 z"
         id="path2702"
         inkscape:connector-curvature="0" />
      <path
         style="fill:#ffcc00;stroke-width:0.26458335"
         d="m 46.10206,283.83769 c -1.642169,-5.17656 -3.160901,-9.7059 -3.230986,-9.63581 -0.04164,0.0416 0.09017,1.25935 0.292909,2.70602 0.554019,3.95327 0.68675,5.52711 0.44326,5.25588 -0.429917,-0.47888 -1.333966,-6.30293 -1.166731,-7.51628 0.152498,-1.10642 0.133829,-1.15683 -0.276497,-0.7465 -0.351613,0.35161 -0.446321,1.01538 -0.471316,3.30321 -0.02593,2.37387 -0.06927,2.6597 -0.253606,1.67254 -0.122282,-0.65484 -0.30803,-2.02406 -0.412776,-3.04271 -0.189235,-1.84032 -0.192553,-1.82687 -0.522214,2.11667 -0.182472,2.18281 -0.364326,4.20688 -0.404116,4.49792 -0.03979,0.29104 -0.137155,-1.67349 -0.216366,-4.36563 -0.102478,-3.48293 -0.0574,-4.97111 0.156276,-5.15937 0.165161,-0.14552 0.36412,-0.44318 0.442132,-0.66146 0.101545,-0.28413 0.150164,-0.24654 0.171143,0.13229 0.01611,0.29104 0.20411,0.76028 0.417762,1.04276 0.379028,0.50112 0.388461,0.49929 0.388461,-0.0755 0,-0.49635 0.07896,-0.54678 0.501819,-0.32047 0.417142,0.22324 0.528574,0.16197 0.660355,-0.36309 0.124161,-0.4947 0.287851,-0.60095 0.754952,-0.49006 0.328027,0.0779 0.745244,0.32773 0.927145,0.55525 0.181901,0.22752 0.335761,0.30162 0.341913,0.16466 0.0061,-0.13695 0.311681,0.46537 0.678958,1.33849 2.059148,4.89522 2.001559,5.54671 -0.114248,1.29241 -0.768252,-1.54474 -1.441696,-2.76376 -1.496538,-2.70891 -0.109792,0.10979 1.094406,4.89196 1.326345,5.26724 0.07958,0.12876 0.484918,1.45815 0.900753,2.95419 1.320932,4.75228 1.440505,6.8189 0.161211,2.78622 z m -4.73202,-9.525 c -0.0734,-0.1819 -0.133454,-0.0331 -0.133454,0.33073 0,0.3638 0.06006,0.51263 0.133454,0.33073 0.0734,-0.1819 0.0734,-0.47956 0,-0.66146 z m -0.868024,-0.87364 c 0.09035,-0.23546 0.046,-0.34166 -0.103984,-0.24897 -0.143854,0.0889 -0.261554,0.27369 -0.261554,0.41062 0,0.38059 0.189645,0.29672 0.365538,-0.16165 z m 2.53075,-0.74196 c -0.254754,-0.23481 -0.289962,-0.19401 -0.157104,0.18203 0.09418,0.26656 0.185044,0.62375 0.201924,0.79375 0.01688,0.17 0.08758,0.0881 0.157105,-0.18203 0.06953,-0.27012 -0.02133,-0.62731 -0.201925,-0.79375 z m -5.521232,11.84616 c 0.0127,-0.30823 0.07539,-0.37092 0.15985,-0.15986 0.07643,0.191 0.06703,0.4192 -0.02088,0.50712 -0.08792,0.0879 -0.150453,-0.0684 -0.138965,-0.34726 z m 0.275232,-1.17864 c -0.01736,-0.36933 0.141497,-2.0362 0.352986,-3.70416 0.77506,-6.11274 0.785527,-5.96328 -0.215437,-3.07619 -1.066773,3.0769 -1.606182,3.83879 -0.999431,1.41167 0.236085,-0.9444 0.53789,-1.64994 0.670676,-1.56788 0.132786,0.0821 0.164031,0.024 0.06944,-0.12908 -0.219908,-0.35581 0.09068,-1.95108 0.348808,-1.79155 0.106781,0.066 0.133419,-0.1977 0.0592,-0.58597 l -0.134954,-0.70596 -0.247496,0.64782 c -0.245388,0.6423 -0.250217,0.63993 -0.566531,-0.27822 -0.334153,-0.96994 -0.253876,-2.16339 0.10632,-1.58058 0.107495,0.17393 0.141671,0.57095 0.07595,0.88226 -0.114488,0.54229 -0.102772,0.5455 0.27941,0.0765 0.255493,-0.31353 0.52414,-0.41011 0.747242,-0.26864 0.191582,0.12149 0.464526,0.22271 0.606544,0.22494 0.431702,0.007 0.860555,1.52701 0.467744,1.65811 -0.182809,0.061 -0.271175,0.20995 -0.196372,0.33099 0.144812,0.23431 -0.462986,4.5497 -1.043326,7.40766 -0.192071,0.94588 -0.363415,1.41761 -0.380762,1.04827 z m -7.704455,-3.20366 c 0,-0.3624 0.840833,-1.7578 1.510597,-2.50691 0.406098,-0.45421 0.769842,-0.96537 0.808318,-1.13591 0.116887,-0.51809 1.453242,-2.42408 1.598064,-2.27926 0.18084,0.18084 0.845521,-0.38405 0.845521,-0.71858 0,-0.14552 -0.202676,-0.10117 -0.450394,0.0985 -0.424135,0.34195 -0.424135,0.32498 0,-0.29106 0.565269,-0.82104 0.56738,-1.03596 0.0094,-0.95406 -0.242565,0.0356 -0.46826,0.25028 -0.501544,0.47706 -0.06939,0.47279 -1.718842,2.12984 -1.919923,1.92876 -0.07327,-0.0733 0.375153,-0.7361 0.996484,-1.47296 0.621332,-0.73686 1.079577,-1.38987 1.018321,-1.45113 -0.06126,-0.0613 -1.210596,0.84679 -2.554092,2.01786 -1.343496,1.17108 -2.572229,2.08607 -2.730521,2.0333 -0.158292,-0.0528 0.917654,-1.21279 2.390992,-2.57783 2.587538,-2.39736 3.295449,-3.31466 1.658451,-2.14902 -0.434724,0.30955 -0.859433,0.45114 -0.943796,0.31464 -0.210388,-0.34042 1.123752,-1.35179 1.561569,-1.18378 0.194275,0.0746 0.431826,0.008 0.527896,-0.14708 0.09607,-0.15544 0.369591,-0.28262 0.60783,-0.28262 0.312706,0 0.183565,0.25752 -0.464391,0.92604 -0.987769,1.01912 -0.816287,1.27966 0.21768,0.33073 0.450573,-0.41352 0.684708,-0.49432 0.766705,-0.26458 0.06493,0.1819 0.286718,0.33073 0.492871,0.33073 0.501973,0 0.47399,0.17592 -0.172355,1.08363 -0.300953,0.42265 -0.423751,0.76845 -0.272889,0.76845 0.150863,0 0.198269,0.19812 0.105347,0.44028 -0.117885,0.3072 -0.06994,0.37908 0.158631,0.23782 0.180173,-0.11135 0.257884,-0.3841 0.172691,-0.60611 -0.164854,-0.4296 0.274481,-1.13032 0.708689,-1.13032 0.143272,0 0.188224,0.17859 0.0999,0.39687 -0.560676,1.38555 -0.559694,1.35117 -0.02641,0.92604 0.341403,-0.27216 0.215358,0.10199 -0.401105,1.19063 -0.494422,0.87312 -1.083114,1.91417 -1.308203,2.31343 -0.358524,0.63595 -0.806128,0.9704 -0.806128,0.60234 0,-0.47712 0.896245,-2.22644 1.116754,-2.17972 0.14977,0.0317 0.332404,-0.1077 0.405852,-0.30986 0.07597,-0.20909 0.01532,-0.29449 -0.140689,-0.19807 -0.170263,0.10523 -0.225425,-0.0564 -0.145498,-0.42619 0.115748,-0.53558 0.05932,-0.51559 -0.559218,0.19807 -1.450075,1.67307 -1.870424,2.21951 -1.946118,2.52993 -0.04306,0.17659 -0.513356,0.87022 -1.045099,1.5414 -1.3104,1.65402 -1.390156,1.74458 -1.390156,1.57849 z m 2.38125,-7.50191 c 0.493655,-0.50932 0.838023,-0.92604 0.765263,-0.92604 -0.07276,0 -0.536192,0.41672 -1.029846,0.92604 -0.493654,0.50933 -0.838023,0.92605 -0.765262,0.92605 0.07276,0 0.536191,-0.41672 1.029845,-0.92605 z m 2.368855,-0.77881 c 0.258746,-0.31177 0.221432,-0.37474 -0.203118,-0.34276 -0.308089,0.0232 -0.466482,0.1789 -0.388567,0.38194 0.16528,0.43071 0.203829,0.42816 0.591685,-0.0392 z m -0.252188,8.23678 c 0,-0.0919 1.352722,-4.0374 1.870403,-5.45535 0.30906,-0.84653 0.345848,-0.86884 0.545013,-0.33044 0.241122,0.65182 0.03197,1.44264 -0.323443,1.22298 -0.128606,-0.0795 -0.167066,0.0295 -0.08547,0.24211 0.143666,0.37438 -1.555443,4.40336 -1.856997,4.40336 -0.08223,0 -0.149508,-0.0372 -0.149508,-0.0827 z m 14.948958,-3.54184 c -1.018645,-1.2528 -2.268802,-2.75484 -2.778125,-3.33786 -0.60271,-0.68992 -0.80999,-1.09929 -0.593664,-1.17247 0.349486,-0.11824 0.195226,-0.59642 -0.192402,-0.59642 -0.580758,0 0.577326,2.93358 1.912212,4.84388 0.794735,1.13731 0.364834,1.13482 -0.524102,-0.003 -1.121074,-1.435 -2.149367,-3.3314 -2.008799,-3.70467 0.07634,-0.20271 -0.07942,-0.2806 -0.427178,-0.21363 -0.592865,0.11417 -0.771501,-0.48818 -0.241852,-0.81552 0.182316,-0.11268 0.23391,-0.073 0.127976,0.0984 -0.09762,0.15795 -0.08175,0.34635 0.03527,0.41868 0.117017,0.0723 0.367064,-0.21711 0.555659,-0.64318 0.188595,-0.42607 0.511516,-0.77467 0.7176,-0.77467 0.206084,0 0.374698,-0.25086 0.374698,-0.55747 0,-0.39512 0.119584,-0.51159 0.410618,-0.39991 0.257296,0.0987 0.343728,0.0493 0.231481,-0.13228 -0.269502,-0.43606 1.494623,-0.003 2.131467,0.52379 0.482447,0.39873 0.497851,0.39885 0.191683,0.001 -0.275193,-0.35719 -0.256365,-0.4615 0.108574,-0.60154 0.242824,-0.0932 0.503833,-0.10709 0.580017,-0.0309 0.07619,0.0762 -0.03015,0.14117 -0.236304,0.1444 -0.234244,0.004 -0.126738,0.21139 0.286631,0.5538 0.458433,0.37974 0.515122,0.50068 0.184695,0.39402 -0.297061,-0.0959 -0.411634,-0.0485 -0.303967,0.1257 0.09504,0.15377 0.331211,0.2188 0.524825,0.14451 0.343808,-0.13194 2.91365,1.6305 2.695525,1.84862 -0.0606,0.0606 -1.170091,-0.52385 -2.465528,-1.29877 -1.295437,-0.7748 -2.593467,-1.4912 -2.884509,-1.59187 l -0.529166,-0.18305 0.529166,0.4162 c 0.291042,0.22891 0.48948,0.55662 0.440973,0.72825 -0.04851,0.17163 -0.0036,0.22747 0.09977,0.12409 0.20647,-0.20647 3.489677,2.40088 4.750927,3.77294 0.436563,0.47492 -0.635,-0.21115 -2.38125,-1.52458 -2.84671,-2.14115 -4.303554,-2.89699 -4.013769,-2.08244 0.05608,0.15764 0.291973,0.27101 0.524193,0.25193 0.554683,-0.0456 4.860758,4.83713 4.544652,5.15323 -0.229515,0.22952 -3.86674,-3.65959 -3.690008,-3.94554 0.0884,-0.14304 0.06258,-0.24301 -0.05738,-0.22217 -0.512802,0.0891 -0.720246,-0.05 -0.388294,-0.26034 0.253995,-0.16094 0.159729,-0.22746 -0.322337,-0.22746 -0.606385,0 -0.649171,0.0601 -0.38903,0.54614 0.160756,0.30037 1.081601,1.56541 2.046322,2.8112 2.029846,2.62122 2.767904,3.72514 2.479355,3.70839 -0.112496,-0.007 -1.037974,-1.0369 -2.05662,-2.28971 z m -7.519736,-1.82151 c 0.0127,-0.30822 0.07539,-0.37092 0.159851,-0.15985 0.07643,0.19099 0.06703,0.4192 -0.02088,0.50712 -0.08792,0.0879 -0.150452,-0.0684 -0.138964,-0.34727 z m 16.636532,-1.0221 c -1.221912,-0.45025 -3.957421,-1.70256 -3.957421,-1.8117 0,-0.27139 1.658716,0.1033 2.613446,0.59037 2.669606,1.36193 3.313496,1.94707 1.343975,1.22133 z m -28.563671,-1.17438 c 0,-0.12878 0.298826,-0.42995 0.66406,-0.66926 0.467645,-0.30641 0.643726,-0.33526 0.595312,-0.0975 -0.126243,0.6199 -1.259372,1.30983 -1.259372,0.76679 z m 11.641667,-0.7075 c 0,-0.22687 0.121005,-0.3377 0.268899,-0.2463 0.147894,0.0914 0.2004,0.27702 0.116676,0.41249 -0.226809,0.36699 -0.385575,0.29856 -0.385575,-0.16619 z M 25.965694,271.5923 c 0.282475,-0.21366 0.699193,-0.38424 0.926041,-0.37909 0.26437,0.006 0.17497,0.14513 -0.249007,0.3875 -0.865727,0.4949 -1.334761,0.48906 -0.677034,-0.008 z m 3.197849,-0.20771 c 1.457373,-0.97293 2.944093,-1.68053 3.281008,-1.56157 0.221176,0.0781 -0.366556,0.50176 -1.417354,1.0217 -1.800437,0.89087 -2.840884,1.19227 -1.863654,0.53987 z m 24.202102,-0.0485 c -0.405765,-0.23196 -0.508043,-0.385 -0.264584,-0.39592 0.53326,-0.0239 -0.463026,-0.79471 -1.027181,-0.79471 -0.301104,0 -0.272941,0.0961 0.116716,0.39842 0.478999,0.37158 0.463386,0.38048 -0.231826,0.13207 -1.296434,-0.46324 -1.752594,-0.79226 -1.610775,-1.16184 0.193376,-0.50393 -0.582861,-0.73839 -0.956019,-0.28876 -0.263244,0.31719 -0.402328,0.30967 -0.953646,-0.0516 -0.354996,-0.2326 -0.585081,-0.48328 -0.511294,-0.55707 0.07379,-0.0738 0.311621,0.0131 0.528527,0.19315 0.216905,0.18001 0.547206,0.27212 0.733999,0.20468 0.2041,-0.0737 0.04928,-0.25899 -0.38798,-0.46436 -0.400182,-0.18796 -0.727604,-0.50349 -0.727604,-0.70119 0,-0.25339 0.21467,-0.3136 0.727604,-0.20408 0.696484,0.14871 0.705639,0.13761 0.214014,-0.25955 -0.486627,-0.39311 -0.458843,-0.41392 0.529166,-0.3963 0.691764,0.0123 0.883238,0.0816 0.568847,0.20572 -0.35138,0.13874 0.147717,0.45337 1.930331,1.21688 1.322334,0.56636 2.460366,1.12055 2.528959,1.23154 0.06859,0.11099 -1.076971,-0.20685 -2.545697,-0.7063 -3.101072,-1.05455 -3.779168,-1.13901 -2.101141,-0.26171 0.654844,0.34236 1.190625,0.77354 1.190625,0.95818 0,0.18464 0.165402,0.39084 0.36756,0.45822 0.222612,0.0742 0.294901,0.005 0.183316,-0.17559 -0.231394,-0.3744 0.843822,0.0129 2.285873,0.82337 0.696108,0.39123 0.901166,0.62811 0.670515,0.77454 -0.432382,0.27451 -0.478404,0.26801 -1.258305,-0.17782 z m 0.79375,-0.13229 c -0.218282,-0.14107 -0.515938,-0.25648 -0.661459,-0.25648 -0.14552,0 -0.08599,0.11541 0.132292,0.25648 0.218281,0.14106 0.515938,0.25648 0.661458,0.25648 0.145521,0 0.08599,-0.11542 -0.132291,-0.25648 z m -15.434027,0.0882 c -0.09702,-0.097 -0.17639,-0.29942 -0.17639,-0.44979 0,-0.16579 0.123235,-0.15017 0.313089,0.0397 0.172202,0.1722 0.251577,0.3746 0.17639,0.44979 -0.07519,0.0752 -0.216077,0.0573 -0.313089,-0.0397 z m -10.606651,-0.55248 c -0.286658,-0.28666 3.637275,-1.97046 4.858726,-2.08492 0.646435,-0.0606 1.122685,-0.0711 1.058333,-0.0233 -0.641638,0.47622 -1.603115,0.98448 -1.477324,0.78095 0.08802,-0.14243 -0.133271,-0.25896 -0.491766,-0.25896 -0.385852,0 -0.582088,0.11281 -0.480938,0.27648 0.105481,0.17067 0.0024,0.21182 -0.269409,0.10752 -0.242152,-0.0929 -0.440278,-0.0653 -0.440278,0.0614 0,0.12672 -0.327421,0.36078 -0.727604,0.52013 -0.400182,0.15935 -0.98381,0.40096 -1.29695,0.53692 -0.313142,0.13595 -0.642895,0.17364 -0.73279,0.0838 z m 12.980413,-0.19717 c -0.09277,-0.24175 -5.29e-4,-0.39688 0.236276,-0.39688 0.213714,0 0.388572,0.1786 0.388572,0.39688 0,0.21828 -0.106325,0.39687 -0.236275,0.39687 -0.129953,0 -0.304808,-0.17859 -0.388573,-0.39687 z m -7.967324,-0.65048 c -0.09494,-0.15362 0.01865,-0.3527 0.252439,-0.44241 0.582055,-0.22336 0.763122,0.0221 0.29989,0.40657 -0.260766,0.21642 -0.433785,0.22765 -0.552329,0.0358 z m 6.113574,0.0456 c -0.107807,-0.17444 0.03481,-0.56012 0.320508,-0.86678 0.304914,-0.32729 0.582319,-0.44317 0.680522,-0.28427 0.09118,0.14753 0.0021,0.36485 -0.197861,0.48294 -0.200004,0.11808 -0.418835,0.38743 -0.486291,0.59854 -0.08961,0.28044 -0.174969,0.29918 -0.316878,0.0696 z M 27.528341,269.2417 c 0.268806,-0.21052 0.660895,-0.3167 0.871308,-0.23595 0.477954,0.18341 0.419105,0.22966 -0.566296,0.44514 -0.729578,0.15954 -0.754237,0.14263 -0.305012,-0.20919 z m 1.279343,-0.38366 c -0.359397,-0.22789 0.01177,-0.42234 2.050259,-1.07405 0.952616,-0.30456 2.663952,-0.12834 2.663952,0.2743 0,0.26358 0.044,0.25337 -1.5875,0.36848 l -1.190625,0.084 0.79375,-0.37064 c 0.822936,-0.38426 0.551513,-0.35399 -1.434518,0.15998 -0.858131,0.22208 -1.069676,0.36622 -0.79375,0.54086 0.206901,0.13095 0.257122,0.2381 0.111601,0.2381 -0.145521,0 -0.421447,-0.0995 -0.613169,-0.22104 z m 7.360044,-0.56461 c 0,-0.14552 0.12609,-0.26458 0.280199,-0.26458 0.154109,0 0.206613,0.11906 0.116676,0.26458 -0.08994,0.14552 -0.216027,0.26458 -0.280199,0.26458 -0.06417,0 -0.116676,-0.11906 -0.116676,-0.26458 z m 18.045404,-0.29379 c -2.957023,-0.50573 -4.214829,-0.81169 -2.633425,-0.64058 0.545703,0.059 0.992188,-0.004 0.992188,-0.1406 0,-0.13637 0.208359,-0.24612 0.463021,-0.2439 0.398946,0.003 0.408101,0.0423 0.06614,0.28064 -0.300074,0.20913 -0.203274,0.23986 0.396875,0.126 0.858536,-0.16287 4.447067,0.73105 3.81898,0.95132 -0.208669,0.0732 -1.60537,-0.0766 -3.103784,-0.33288 z m 0.276992,-0.41061 c -0.181901,-0.0734 -0.479557,-0.0734 -0.661458,0 -0.181902,0.0734 -0.03307,0.13346 0.330729,0.13346 0.363802,0 0.51263,-0.0601 0.330729,-0.13346 z m -28.111979,0.20609 c 0,-0.36002 1.076255,-0.55906 2.248958,-0.41591 0.841537,0.10272 0.949934,0.0733 0.529167,-0.14382 -0.456753,-0.23565 -0.429599,-0.25366 0.198437,-0.13161 0.410253,0.0797 0.727604,0.0238 0.727604,-0.12823 0,-0.14829 0.20836,-0.2678 0.463021,-0.26557 0.395698,0.003 0.405316,0.0413 0.06615,0.26053 -0.330806,0.21379 -0.308782,0.2621 0.132292,0.2902 0.599479,0.0382 -2.853756,0.72684 -3.770313,0.75188 -0.327422,0.009 -0.595312,-0.0889 -0.595312,-0.21747 z m 12.170833,-0.29544 c -0.339169,-0.21919 -0.329552,-0.25707 0.06615,-0.26053 0.254661,-0.002 0.463021,0.11501 0.463021,0.26053 0,0.32269 -0.02984,0.32269 -0.529167,0 z m -6.35,-0.26458 c -0.30816,-0.19915 -0.23074,-0.25739 0.346345,-0.26054 0.428911,-0.002 0.674066,0.10784 0.579697,0.26054 -0.203034,0.32851 -0.417701,0.32851 -0.926042,0 z m 7.276042,0 c 0.08994,-0.14552 0.216027,-0.26459 0.280199,-0.26459 0.06417,0 0.116676,0.11907 0.116676,0.26459 0,0.14552 -0.12609,0.26458 -0.280199,0.26458 -0.154109,0 -0.206613,-0.11906 -0.116676,-0.26458 z m -1.5875,-0.52917 c -0.08994,-0.14552 0.02209,-0.26458 0.248967,-0.26458 0.22687,0 0.412491,0.11906 0.412491,0.26458 0,0.14552 -0.112035,0.26458 -0.248968,0.26458 -0.136932,0 -0.322553,-0.11906 -0.41249,-0.26458 z m 1.190625,-0.0882 c 0,-0.19403 0.176704,-0.35278 0.392673,-0.35278 0.29723,0 0.321511,0.0858 0.0999,0.35278 -0.161028,0.19402 -0.337732,0.35277 -0.392673,0.35277 -0.05494,0 -0.0999,-0.15875 -0.0999,-0.35277 z m 7.276041,0.0882 c -0.08994,-0.14552 -0.04446,-0.26458 0.101063,-0.26458 0.145521,0 0.338167,0.11906 0.428104,0.26458 0.08994,0.14552 0.04446,0.26458 -0.101063,0.26458 -0.145521,0 -0.338166,-0.11906 -0.428104,-0.26458 z m 4.630209,0 c -0.238467,-0.15411 -0.2711,-0.2581 -0.08176,-0.26053 0.173313,-0.002 0.3887,0.11501 0.478637,0.26053 0.203015,0.32849 0.111421,0.32849 -0.396875,0 z M 27.822948,266.1936 c 0.08421,-0.13626 0.359131,-0.24637 0.610927,-0.24469 0.251796,0.002 0.934061,-0.12212 1.516145,-0.27511 0.582083,-0.15299 1.475052,-0.28937 1.984375,-0.30307 0.779671,-0.021 0.842401,-0.0634 0.396875,-0.26865 -0.500849,-0.2307 -0.501854,-0.24032 -0.01881,-0.17984 0.693208,0.0868 0.588613,0.55892 -0.164007,0.7403 l -0.610929,0.14723 0.649904,0.173 c 0.357447,0.0951 0.587688,0.23522 0.511644,0.31127 -0.07604,0.076 -0.546309,0.0212 -1.045033,-0.1218 -0.498724,-0.14304 -1.264745,-0.25169 -1.702268,-0.24146 -0.683758,0.016 -0.721167,0.0505 -0.26633,0.24598 0.396928,0.17057 0.211198,0.23204 -0.74322,0.24599 -0.727726,0.0106 -1.206842,-0.0874 -1.119268,-0.22915 z m 20.956586,0.0714 c -0.407601,-0.4076 -0.114868,-0.61491 0.815798,-0.57772 0.923362,0.0369 0.937128,0.0488 0.198438,0.17104 l -0.79375,0.13139 0.661458,0.19947 0.661458,0.19946 -0.683506,0.0264 c -0.37593,0.0145 -0.762883,-0.053 -0.859896,-0.15002 z m 3.383101,-0.32755 c 0.43761,-0.17119 0.381875,-0.22915 -0.363803,-0.37828 -0.484319,-0.0969 -1.154853,-0.17612 -1.490069,-0.17612 -0.335219,0 -0.796587,-0.18709 -1.025261,-0.41577 -0.228676,-0.22868 -0.415774,-0.28821 -0.415774,-0.13229 0,0.15591 -0.115327,0.28348 -0.256281,0.28348 -0.140951,0 -0.199154,-0.14883 -0.129333,-0.33073 0.07964,-0.2075 0.661146,-0.33228 1.560689,-0.33491 1.379945,-0.004 1.503286,0.35444 0.147842,0.42966 -0.363802,0.0202 0.05292,0.1399 0.926041,0.26601 0.873125,0.12612 2.123282,0.39731 2.778125,0.60265 l 1.190625,0.37333 -1.719791,0.008 c -1.05976,0.005 -1.521458,-0.07 -1.20301,-0.1946 z M 35.501351,265.6842 c 0.121417,-0.2134 0.05633,-0.45448 -0.15962,-0.59126 -0.239731,-0.15184 -0.256691,-0.23234 -0.04951,-0.235 0.495273,-0.006 0.704871,0.53963 0.337391,0.87889 -0.257805,0.23802 -0.286845,0.2261 -0.128257,-0.0526 z m 1.941275,0.0942 c -0.224417,-0.35567 0.04794,-1.71828 0.343447,-1.71828 0.128556,0 0.233738,0.16867 0.233738,0.37482 0,0.20616 0.148829,0.43488 0.33073,0.50828 0.205163,0.0828 0.1623,0.14138 -0.112893,0.15434 -0.243991,0.0115 -0.484907,0.22925 -0.535374,0.48391 -0.05046,0.25466 -0.167306,0.34328 -0.259648,0.19693 z m -7.215979,-0.90505 c -0.08331,-0.1348 -0.788435,-0.17936 -1.566931,-0.099 -0.870651,0.0899 -1.482359,0.0378 -1.589282,-0.13517 -0.11765,-0.19037 0.76868,-0.30801 2.742479,-0.36401 1.60397,-0.0455 2.915139,-0.0232 2.913708,0.0495 -0.0042,0.21311 -1.385081,0.79375 -1.887694,0.79375 -0.253442,0 -0.528968,-0.11029 -0.61228,-0.2451 z m 3.162956,-0.54865 c -0.08994,-0.14552 -0.08994,-0.38365 0,-0.52917 0.210934,-0.3413 -0.474416,-0.34579 -0.814866,-0.005 -0.410012,0.41001 -9.636175,-0.87395 -9.636175,-1.34102 0,-0.2085 1.823115,-0.0876 6.020543,0.39922 1.492287,0.17308 2.623381,0.23292 2.513542,0.13298 -0.109842,-0.0999 -1.152211,-0.45294 -2.316377,-0.78445 -1.164167,-0.3315 -2.235729,-0.71671 -2.38125,-0.85601 -0.298848,-0.28608 1.594059,-0.11845 3.68191,0.32605 0.715362,0.1523 1.34026,0.2373 1.38866,0.1889 0.0484,-0.0484 -1.042498,-0.53544 -2.424218,-1.08231 -2.350462,-0.9303 -3.269327,-1.47973 -2.46353,-1.47307 0.463748,0.004 2.485247,0.63998 3.748381,1.17957 1.869839,0.79877 1.226902,0.27699 -1.438442,-1.16737 -2.685958,-1.45554 -3.581012,-2.13173 -2.821714,-2.13173 0.436444,0 2.810395,1.00729 4.730384,2.00715 1.887738,0.98307 1.844781,0.76492 -0.129233,-0.65625 -2.054659,-1.47924 -2.02161,-2.0646 0.03825,-0.67741 0.746472,0.50271 1.451213,0.91238 1.566095,0.91038 0.114882,-0.002 -0.861679,-1.00511 -2.170131,-2.22915 -3.589696,-3.3581 -2.712045,-3.13225 1.932067,0.4972 1.381731,1.07984 -0.122695,-0.84424 -3.587956,-4.5888 -0.618464,-0.66831 -1.12448,-1.31277 -1.12448,-1.43213 0,-0.45602 1.643547,0.98728 4.080942,3.58373 2.659872,2.83345 3.206668,3.18895 1.541454,1.00218 -1.44862,-1.90233 -2.180569,-3.14956 -1.936771,-3.30023 0.205507,-0.12701 2.041128,2.08605 3.027087,3.64951 0.260327,0.41281 0.527151,0.69673 0.592945,0.63094 0.06579,-0.0658 -0.546492,-1.27335 -1.360633,-2.68347 -1.803956,-3.1245 -1.8156,-4.10356 -0.01601,-1.34575 0.714343,1.09472 1.340985,1.94821 1.392536,1.89666 0.113885,-0.11389 -0.428974,-1.43473 -1.798373,-4.37565 -2.326775,-4.99697 -1.365708,-4.49807 1.211292,0.6288 0.950891,1.89177 1.728726,3.38005 1.728523,3.30729 -2.04e-4,-0.0728 -0.226671,-0.87643 -0.503262,-1.78594 -0.276587,-0.9095 -0.421817,-1.65364 -0.322728,-1.65364 0.236572,0 0.920052,1.38981 1.496338,3.0427 0.513596,1.47308 1.048708,2.25858 0.811107,1.19063 -0.08094,-0.3638 -0.462124,-2.03068 -0.847074,-3.70417 -0.384953,-1.67349 -0.757754,-3.3106 -0.828448,-3.63802 -0.07069,-0.32742 -0.01781,-0.59531 0.117549,-0.59531 0.135343,0 0.521309,0.9525 0.8577,2.11667 0.405231,1.40239 0.742222,2.11666 0.998646,2.11666 0.30494,0 0.349102,-0.22446 0.208219,-1.05833 -0.331287,-1.96087 0.332968,-1.10972 0.774322,0.99219 0.23681,1.12778 0.537268,2.4077 0.667686,2.84427 0.1992,0.6668 0.21381,0.6139 0.09135,-0.33073 -0.0965,-0.74439 -0.04492,-1.12448 0.152619,-1.12448 0.173734,0 0.2984,0.46058 0.2984,1.10243 0,0.60634 0.06305,1.03938 0.1401,0.96233 0.183676,-0.18367 0.301254,-6.34572 0.819819,-42.96489 l 0.168918,-11.92825 -4.242501,-4.47591 c -2.333376,-2.46176 -5.385335,-5.66587 -6.782128,-7.12025 -1.460979,-1.5212 -2.539625,-2.86639 -2.539625,-3.16719 0,-0.80018 4.186114,-4.69453 5.937727,-5.52387 2.05314,-0.97212 4.251565,-1.6727 5.961226,-1.89968 l 1.447911,-0.19223 -0.946666,1.1574 c -1.275154,1.55901 -2.534679,3.85896 -2.744184,5.01102 -0.272629,1.49916 -0.405794,1.59716 -1.5948,1.17369 -1.727951,-0.61542 -6.595731,-0.38092 -7.329749,0.3531 -0.224946,0.22495 0.196154,0.82397 1.666579,2.37075 1.082169,1.13836 3.455863,3.66126 5.274873,5.60644 3.965819,4.2409 5.520198,5.82469 5.716527,5.82469 0.264914,0 -0.177073,-1.65571 -1.730423,-6.48229 -2.423829,-7.53134 -2.262232,-6.75071 -1.732399,-8.36868 0.714965,-2.18331 1.56496,-3.71748 2.839791,-5.12557 l 1.163421,-1.28504 0.684639,0.51048 c 0.701743,0.52323 2.468612,3.0102 3.229374,4.54554 0.234389,0.47303 0.539515,1.45776 0.678056,2.18828 0.227909,1.20177 0.163173,1.57329 -0.679987,3.90244 -0.512535,1.41582 -1.273493,3.58625 -1.691021,4.82317 -0.417531,1.23693 -1.067012,3.06649 -1.443292,4.06569 -0.675624,1.79408 -0.67718,1.8149 -0.12496,1.67049 l 0.559192,-0.14623 -0.528685,0.57847 c -0.511234,0.55936 -0.534062,1.07197 -0.691513,15.52742 -0.440319,40.42548 -0.43993,39.936 -0.03048,38.36458 0.208544,-0.80036 0.525007,-2.39304 0.703254,-3.53928 0.38304,-2.46317 0.761413,-1.97263 0.423548,0.54911 -0.125291,0.93513 -0.192069,2.29221 -0.1484,3.01574 0.07572,1.25454 0.14564,1.10008 1.508721,-3.33305 0.786127,-2.5567 1.530268,-4.71094 1.653645,-4.78719 0.327936,-0.20267 0.319305,-0.15794 -0.834006,4.32284 -0.582083,2.26148 -1.052557,4.24365 -1.045496,4.40483 0.0071,0.16117 0.418002,-0.48086 0.913204,-1.42675 0.967754,-1.8485 1.27671,-1.45987 0.391065,0.49192 -0.935289,2.06119 -0.553974,1.78823 0.79956,-0.57235 0.727605,-1.26895 1.322917,-2.36765 1.322917,-2.44155 0,-0.27305 1.365128,-2.2865 1.475454,-2.17617 0.06289,0.0629 -0.05856,0.46109 -0.269888,0.88489 -0.489185,0.98104 -2.793066,6.28477 -2.793066,6.42988 0,0.06 0.722477,-0.86136 1.605502,-2.0475 1.578266,-2.12003 2.650223,-2.98218 1.612281,-1.29672 -1.1978,1.94505 -2.430497,4.24892 -2.328156,4.35126 0.06015,0.0601 0.628735,-0.54442 1.263515,-1.34349 3.716663,-4.67857 5.869504,-6.83437 4.065892,-4.07148 -1.17556,1.8008 -3.456678,4.78679 -4.094898,5.36023 -0.655714,0.58916 -1.30669,1.63827 -0.836068,1.34741 0.15539,-0.096 1.318737,-1.06238 2.585212,-2.14742 1.266474,-1.08504 2.356919,-1.91857 2.423205,-1.85228 0.143375,0.14337 -1.926037,2.65712 -2.571567,3.12372 -0.247507,0.1789 -0.545129,0.48394 -0.661379,0.67786 -0.228097,0.3805 0.997569,-0.1713 2.228128,-1.0031 4.382,-2.96204 2.924124,-1.14754 -1.851237,2.30409 -1.480225,1.0699 -1.124871,1.09819 0.792903,0.0631 3.404026,-1.83724 7.207309,-3.72569 7.305562,-3.62744 0.201001,0.201 -0.830202,0.93098 -3.20452,2.26845 -1.309687,0.73776 -2.511488,1.45243 -2.670672,1.58817 -0.159182,0.13573 -0.676262,0.44683 -1.149067,0.69132 -1.432595,0.74083 -0.790681,0.6849 1.684147,-0.14674 1.2906,-0.43369 2.453325,-0.75293 2.583831,-0.70943 0.130508,0.0435 -1.032026,0.66622 -2.583413,1.38382 -2.113865,0.97778 -2.697017,1.34982 -2.327138,1.48465 0.27146,0.099 0.612625,0.0889 0.758145,-0.0223 0.289081,-0.22096 4.183296,-1.31986 4.677257,-1.31986 0.5075,0 0.0029,0.34208 -1.026681,0.69604 -0.533363,0.18336 -1.066922,0.27333 -1.185686,0.19993 -0.11876,-0.0734 -0.215931,-0.0116 -0.215931,0.13728 0,0.1489 -0.744141,0.50198 -1.653646,0.78462 -1.481148,0.46028 -1.557047,0.51593 -0.727604,0.53347 0.509323,0.0108 2.235729,-0.1557 3.836458,-0.36993 3.655928,-0.48929 5.125469,-0.48069 2.910417,0.017 -3.467751,0.77919 -8.566455,1.5433 -6.085417,0.91199 0.597247,-0.15198 0.318865,-0.20973 -1.124479,-0.23329 -1.496274,-0.0244 -1.918229,-0.11677 -1.918229,-0.41987 0,-0.2291 -0.156017,-0.3287 -0.380169,-0.24269 -0.209093,0.0802 -0.347668,0.28486 -0.307946,0.45472 0.03972,0.16986 0.02204,0.2188 -0.03931,0.10875 -0.06134,-0.11005 -0.238813,-0.12142 -0.39439,-0.0253 -0.155575,0.0962 -0.209037,0.0554 -0.118804,-0.0906 0.289777,-0.46887 -1.47878,-0.34231 -1.870614,0.13386 -0.202176,0.24569 -0.298493,0.30805 -0.214035,0.13858 0.08446,-0.16947 0.004,-0.36843 -0.178816,-0.44213 -0.264136,-0.10649 -0.264475,-0.13829 -0.0016,-0.15489 0.181901,-0.0115 0.321329,-0.22925 0.309841,-0.48391 -0.01249,-0.2766 -0.07462,-0.32986 -0.15434,-0.13229 -0.0734,0.1819 -0.374393,0.33073 -0.668877,0.33073 -0.328562,0 -0.484812,0.1319 -0.404421,0.3414 0.08107,0.21125 -0.208711,0.44772 -0.760158,0.62032 -0.855912,0.2679 -0.885008,0.25439 -0.735476,-0.34139 0.09312,-0.37124 0.03788,-0.62032 -0.137633,-0.62032 -0.161298,0 -0.293267,0.23813 -0.293267,0.52917 0,0.29104 -0.119063,0.52917 -0.264584,0.52917 -0.14552,0 -0.264583,-0.12609 -0.264583,-0.2802 0,-0.15465 -0.146103,-0.18991 -0.326078,-0.0787 -0.666927,0.41218 -1.306705,0.29603 -1.173575,-0.21307 0.180949,-0.69194 -0.05657,-0.60311 -0.333261,0.12464 -0.19749,0.51944 -0.411541,0.60761 -1.427845,0.58812 -0.65754,-0.0126 -1.138336,0.0696 -1.068435,0.18271 0.0699,0.11309 -0.154837,0.20563 -0.499412,0.20563 -0.344577,0 -0.85762,0.17481 -1.140095,0.38846 -0.619046,0.46823 -1.145352,0.53435 -0.698799,0.0878 0.383942,-0.38394 0.423381,-0.8375 0.05292,-0.60854 -0.145521,0.0899 -0.264584,-0.0291 -0.264584,-0.26458 0,-0.23546 -0.110826,-0.35961 -0.246282,-0.2759 -0.135456,0.0837 -0.192656,0.44793 -0.127116,0.80937 0.123333,0.68014 -0.0035,0.85299 -0.28806,0.39257 z m -0.203949,-1.48277 c -0.08792,-0.0879 -0.316124,-0.0973 -0.507119,-0.0209 -0.211066,0.0845 -0.148373,0.14716 0.159854,0.15985 0.278913,0.0115 0.435184,-0.051 0.347265,-0.13896 z m 7.131564,-0.41892 c -0.08446,-0.21107 -0.147156,-0.14838 -0.159851,0.15985 -0.01148,0.27891 0.05104,0.43518 0.138964,0.34727 0.08792,-0.0879 0.09732,-0.31613 0.02088,-0.50712 z m 12.18302,0.41892 c -0.08792,-0.0879 -0.316125,-0.0973 -0.507119,-0.0209 -0.211066,0.0845 -0.148373,0.14716 0.159853,0.15985 0.278913,0.0115 0.435184,-0.051 0.347266,-0.13896 z m -9.717927,-0.51722 c 0,-0.22687 -0.121004,-0.33771 -0.268898,-0.2463 -0.147894,0.0914 -0.200401,0.27702 -0.116676,0.41249 0.226809,0.36699 0.385574,0.29856 0.385574,-0.16619 z m 0.879761,-69.5698 c 0.955442,-2.7649 1.911088,-5.50303 2.12366,-6.08473 0.454001,-1.24239 0.392671,-1.39052 -0.778264,-1.87977 -1.55774,-0.65087 -7.516823,-0.31662 -7.516823,0.42162 0,0.10973 0.399846,1.43505 0.888547,2.94515 0.488702,1.51011 1.411436,4.37567 2.050521,6.36793 0.639085,1.99225 1.236948,3.54006 1.328582,3.43958 0.09164,-0.10049 0.948335,-2.44489 1.903777,-5.20978 z m 1.104614,71.56979 c -0.08994,-0.14552 -0.03743,-0.26458 0.116676,-0.26458 0.15411,0 0.280199,0.11906 0.280199,0.26458 0,0.14552 -0.0525,0.26458 -0.116676,0.26458 -0.06417,0 -0.190261,-0.11906 -0.280199,-0.26458 z m 9.326563,0.0893 c 0.181901,-0.0734 0.479557,-0.0734 0.661458,0 0.181901,0.0734 0.03307,0.13346 -0.330729,0.13346 -0.363802,0 -0.51263,-0.0601 -0.330729,-0.13346 z m -4.960938,-0.61852 c 0.218282,-0.14106 0.515938,-0.25648 0.661459,-0.25648 0.145521,0 0.08599,0.11542 -0.132292,0.25648 -0.218281,0.14107 -0.515937,0.25648 -0.661458,0.25648 -0.145521,0 -0.08599,-0.11541 0.132291,-0.25648 z m 3.919141,0.0838 c 0.190995,-0.0764 0.419198,-0.067 0.507119,0.0209 0.08792,0.0879 -0.06835,0.15045 -0.347266,0.13897 -0.308226,-0.0127 -0.370919,-0.0754 -0.159853,-0.15985 z m 1.174089,-0.002 c 0.254661,-0.0666 0.67138,-0.0666 0.926041,0 0.254662,0.0665 0.0463,0.121 -0.463021,0.121 -0.509323,0 -0.717682,-0.0545 -0.46302,-0.121 z M 42.517728,263.5153 c 0,-0.15411 0.119063,-0.20661 0.264583,-0.11667 0.145521,0.0899 0.264584,0.21602 0.264584,0.2802 0,0.0642 -0.119063,0.11667 -0.264584,0.11667 -0.14552,0 -0.264583,-0.12609 -0.264583,-0.2802 z m 13.15861,-5.30888 c 0.179478,-0.18082 0.39297,-0.26211 0.474433,-0.18065 0.08146,0.0815 -0.06538,0.22941 -0.326319,0.32876 -0.377084,0.14359 -0.407474,0.1132 -0.148114,-0.14811 z M 46.767233,194.6731 c 1.169847,-1.20054 3.148118,-3.22939 4.39616,-4.50855 1.248042,-1.27916 2.329011,-2.2659 2.402155,-2.19276 0.150717,0.15072 -8.427873,8.87898 -8.729792,8.8821 -0.107535,0.001 0.761632,-0.98024 1.931477,-2.18079 z m 7.392162,-7.47366 c 0,-0.0632 0.347104,-0.46994 0.771342,-0.90393 0.91898,-0.94011 0.766776,-1.13298 -1.271381,-1.61105 -1.356871,-0.31827 -4.431035,-0.2412 -6.146678,0.15409 -0.621803,0.14326 -0.710867,0.0683 -0.860497,-0.72444 -0.238783,-1.26503 -1.772131,-4.19955 -2.937433,-5.62165 -0.889399,-1.0854 -0.93744,-1.21571 -0.448164,-1.21571 3.410185,0 9.203896,3.22701 11.921389,6.64004 l 1.084149,1.36164 -0.725636,0.87101 c -0.657471,0.7892 -1.387091,1.34151 -1.387091,1.05 z"
         id="path2700"
         inkscape:connector-curvature="0" />
      <path
         style="fill:#ffeeaa;stroke-width:0.26458335"
         d="m 46.670871,285.6519 c -0.108267,-0.27549 -0.134514,-0.56322 -0.05833,-0.6394 0.241316,-0.24132 0.453644,0.15413 0.352529,0.65657 -0.09267,0.46046 -0.106821,0.45963 -0.294199,-0.0172 z m -9.159337,-1.10865 c 0.0127,-0.30823 0.07539,-0.37092 0.15985,-0.15986 0.07643,0.191 0.06703,0.4192 -0.02088,0.50712 -0.08792,0.0879 -0.150453,-0.0684 -0.138965,-0.34726 z m 8.728958,-0.0285 c 0.01023,-0.11772 0.12092,-0.45217 0.245986,-0.74322 0.219231,-0.51018 0.228058,-0.50836 0.245986,0.0505 0.01024,0.31884 -0.100465,0.65329 -0.245986,0.74322 -0.145521,0.0899 -0.256214,0.0672 -0.245986,-0.0505 z m -8.443489,-1.14009 c 0,-0.3638 0.06006,-0.51263 0.133453,-0.33073 0.0734,0.1819 0.0734,0.47956 0,0.66146 -0.0734,0.1819 -0.133453,0.0331 -0.133453,-0.33073 z m 7.79612,-0.93627 c -0.09074,-0.23646 -0.157432,-0.56902 -0.148206,-0.73902 0.0092,-0.16999 0.130844,-0.0239 0.270266,0.32464 0.139422,0.34855 0.206116,0.68111 0.148207,0.73902 -0.05791,0.0579 -0.179531,-0.0882 -0.270267,-0.32464 z m -7.833844,-0.18821 c 0.0021,-0.1819 0.119467,-0.50932 0.260532,-0.7276 0.199861,-0.30927 0.257374,-0.23626 0.260533,0.33073 0.0021,0.40018 -0.115012,0.7276 -0.260533,0.7276 -0.14552,0 -0.26276,-0.14883 -0.260532,-0.33073 z m 5.698286,-0.26458 c -0.322191,-1.04582 -0.366895,-1.76524 -0.152842,-2.45968 0.232804,-0.75529 0.240208,-0.74601 0.220996,0.27686 -0.01093,0.58209 0.06836,1.38576 0.176207,1.78594 0.189143,0.70184 -0.03717,1.06941 -0.244361,0.39688 z m -5.433703,-1.85209 c 0.0031,-0.65252 0.06591,-0.76418 0.260533,-0.46302 0.336074,0.52004 0.336074,1.32292 0,1.32292 -0.145521,0 -0.262761,-0.38695 -0.260533,-0.8599 z m 2.154391,0.33073 c 0,-0.3638 0.06006,-0.51263 0.133453,-0.33073 0.0734,0.1819 0.0734,0.47956 0,0.66146 -0.0734,0.1819 -0.133453,0.0331 -0.133453,-0.33073 z m -10.095942,-0.3033 c 0,-0.4474 0.9094,-1.85664 1.350429,-2.09267 0.284061,-0.15203 0.458848,-0.36966 0.388413,-0.48362 -0.07043,-0.11397 0.037,-0.20721 0.238752,-0.20721 0.226341,0 -0.0011,0.4644 -0.593717,1.21267 -1.303065,1.64513 -1.383877,1.73685 -1.383877,1.57083 z m 4.497917,-0.22586 c 0,-0.14552 0.12609,-0.26459 0.280199,-0.26459 0.154109,0 0.206613,0.11907 0.116676,0.26459 -0.08994,0.14552 -0.216027,0.26458 -0.280199,0.26458 -0.06417,0 -0.116676,-0.11906 -0.116676,-0.26458 z m 3.851159,-1.20533 c -0.09961,-0.53098 -0.121584,-1.02494 -0.04882,-1.0977 0.07276,-0.0728 0.213794,0.30214 0.313407,0.83312 0.09961,0.53098 0.121581,1.02495 0.04882,1.09771 -0.07276,0.0728 -0.213794,-0.30215 -0.313404,-0.83313 z m 12.079343,-0.91154 c -0.478798,-0.55756 -0.762601,-1.08046 -0.630674,-1.16199 0.257474,-0.15913 0.733107,0.328 1.457708,1.49292 0.646549,1.03944 0.19439,0.85851 -0.827034,-0.33093 z m 0.209081,-0.36428 c 0,-0.0549 -0.208359,-0.2633 -0.46302,-0.46302 -0.419645,-0.32911 -0.429004,-0.31975 -0.0999,0.0999 0.345644,0.44073 0.562917,0.58088 0.562917,0.36312 z m -9.473419,0.49677 c 0.0054,-0.43656 0.06469,-0.58312 0.131773,-0.32569 0.06708,0.25743 0.06267,0.61462 -0.0098,0.79375 -0.07248,0.17913 -0.127362,-0.0315 -0.12197,-0.46806 z m -5.707436,-0.0102 c -0.255317,-0.66534 -0.179998,-0.83702 0.131903,-0.30065 0.154435,0.26557 0.225055,0.5386 0.156932,0.60672 -0.06812,0.0681 -0.198098,-0.0696 -0.288835,-0.30607 z m 10.521421,-0.73942 c -0.325945,-0.70851 -0.414263,-1.14653 -0.231172,-1.14653 0.162957,0 0.481815,0.51594 0.708573,1.14653 0.226759,0.63059 0.330785,1.14653 0.231172,1.14653 -0.09962,0 -0.418473,-0.51594 -0.708573,-1.14653 z m -2.971707,0.35279 c 0,-0.36381 0.06005,-0.51263 0.133453,-0.33073 0.0734,0.1819 0.0734,0.47955 0,0.66146 -0.0734,0.1819 -0.133453,0.0331 -0.133453,-0.33073 z m -4.25422,-0.15434 c 0.0127,-0.30823 0.07539,-0.37092 0.159851,-0.15986 0.07643,0.191 0.06703,0.4192 -0.02088,0.50712 -0.08792,0.0879 -0.150452,-0.0684 -0.138964,-0.34726 z m 1.633334,-0.77171 c 0.0029,-0.58208 0.05712,-0.78905 0.120407,-0.45993 0.06329,0.32912 0.06088,0.80537 -0.0053,1.05833 -0.06622,0.25297 -0.118004,-0.0163 -0.115067,-0.5984 z m 7.234558,0.16019 c -0.363506,-0.40168 -0.385649,-0.5455 -0.10862,-0.7055 0.191381,-0.11054 0.260517,-0.10437 0.153639,0.0137 -0.106879,0.11808 0.01199,0.36556 0.264167,0.54995 0.252172,0.18439 0.388496,0.40525 0.302946,0.4908 -0.08555,0.0856 -0.361008,-0.0715 -0.612132,-0.34897 z m 3.003227,-1.27902 c -0.501489,-0.54261 -0.643909,-0.76228 -0.316487,-0.48816 0.327422,0.27411 0.595313,0.40582 0.595313,0.29269 0,-0.11313 0.177284,-0.0586 0.393962,0.12126 0.216678,0.17983 0.334999,0.42236 0.262935,0.53897 -0.07207,0.1166 0.01855,0.2723 0.20135,0.346 0.182809,0.0737 0.206907,0.14341 0.05355,0.15489 -0.153355,0.0115 -0.689137,-0.42305 -1.190625,-0.96565 z m -10.761612,-0.33637 c 0,-0.65485 0.0516,-0.92274 0.114662,-0.59532 0.06307,0.32743 0.06307,0.86321 0,1.19063 -0.06306,0.32742 -0.114662,0.0595 -0.114662,-0.59531 z m 9.582562,0.78943 c -0.0914,-0.14789 -0.263533,-0.20874 -0.38251,-0.1352 -0.118978,0.0735 -0.37864,-0.0734 -0.57703,-0.32642 -0.318638,-0.40644 -0.311581,-0.4218 0.06051,-0.13167 0.231669,0.18064 0.482595,0.26706 0.557609,0.19204 0.07501,-0.075 0.286997,0.0451 0.471073,0.26688 0.184075,0.2218 0.267602,0.40327 0.18561,0.40327 -0.08199,0 -0.223859,-0.121 -0.315262,-0.2689 z M 29.042113,275.2856 c 0.706474,-0.752 0.747164,-0.76732 0.671668,-0.25293 -0.07361,0.50153 -0.336804,0.7574 -0.857739,0.83386 -0.311894,0.0458 -0.264927,-0.10086 0.186071,-0.58093 z m 12.458446,-0.77444 c -0.01564,-0.99019 0.05914,-1.43817 0.198749,-1.19063 0.123103,0.21828 0.134385,0.93266 0.02508,1.5875 l -0.198753,1.19063 -0.02508,-1.5875 z m 1.302641,1.03628 c 0.0127,-0.30822 0.07539,-0.37092 0.159851,-0.15985 0.07643,0.19099 0.06703,0.4192 -0.02088,0.50712 -0.08792,0.0879 -0.150452,-0.0684 -0.138964,-0.34727 z m 3.914111,-0.0441 c -0.329107,-0.41965 -0.319749,-0.42901 0.0999,-0.0999 0.254662,0.19972 0.463021,0.40808 0.463021,0.46302 0,0.21776 -0.217273,0.0776 -0.562917,-0.36312 z m -5.766194,-0.22049 c 0.0127,-0.30823 0.07539,-0.37092 0.159851,-0.15985 0.07643,0.19099 0.06703,0.4192 -0.02088,0.50712 -0.08792,0.0879 -0.150453,-0.0684 -0.138964,-0.34727 z m 12.18678,-0.38363 c -0.343546,-0.2862 -0.510826,-0.52036 -0.371737,-0.52036 0.139089,0 0.468386,0.23812 0.731776,0.52916 0.605071,0.6686 0.448485,0.66477 -0.360039,-0.009 z m -4.568503,-0.18963 c -0.329107,-0.41965 -0.319748,-0.42901 0.0999,-0.0999 0.254661,0.19972 0.46302,0.40808 0.46302,0.46302 0,0.21776 -0.217273,0.0776 -0.562917,-0.36312 z m -16.61411,0.0156 c -0.03018,-0.45532 0.438044,-0.67404 0.663167,-0.30978 0.114112,0.18463 0.07718,0.23915 -0.09141,0.13496 -0.155577,-0.0962 -0.343167,-0.0253 -0.416867,0.15755 -0.09591,0.2379 -0.13994,0.24281 -0.154889,0.0172 z m 11.90625,-0.23611 c 0.0127,-0.30822 0.07539,-0.37091 0.15985,-0.15985 0.07643,0.191 0.06703,0.4192 -0.02087,0.50712 -0.08792,0.0879 -0.150453,-0.0684 -0.138965,-0.34727 z m -7.958389,-0.37482 c 0.15576,-0.29104 0.342733,-0.52916 0.415494,-0.52916 0.07276,0 0.0048,0.23812 -0.150911,0.52916 -0.15576,0.29104 -0.342733,0.52917 -0.415494,0.52917 -0.07276,0 -0.0048,-0.23813 0.150911,-0.52917 z m 2.806009,0.10956 c -0.08856,-0.23079 -0.04539,-0.61774 0.09594,-0.8599 0.204393,-0.35022 0.258604,-0.26438 0.265004,0.41961 0.0088,0.94154 -0.11203,1.08895 -0.360945,0.44029 z m -8.097676,-0.50643 c 0.341776,-0.3638 0.68094,-0.66146 0.7537,-0.66146 0.07276,0 -0.147341,0.29766 -0.489117,0.66146 -0.341775,0.3638 -0.680939,0.66146 -0.7537,0.66146 -0.07276,0 0.147342,-0.29766 0.489117,-0.66146 z m 0.529167,0.29698 c 0,-0.0549 0.208359,-0.2633 0.463021,-0.46302 0.419645,-0.32911 0.429003,-0.31975 0.0999,0.0999 -0.345644,0.44073 -0.562917,0.58089 -0.562917,0.36313 z m 11.395681,-0.62771 c 0.01648,-0.64475 0.04449,-0.66735 0.245985,-0.19844 0.310545,0.72268 0.310545,0.92604 0,0.92604 -0.14552,0 -0.256214,-0.32742 -0.245985,-0.7276 z m 5.239318,0.26458 c -0.329107,-0.41964 -0.319748,-0.429 0.0999,-0.0999 0.254661,0.19972 0.46302,0.40808 0.46302,0.46302 0,0.21776 -0.217273,0.0776 -0.562917,-0.36313 z m 4.267084,0.22692 c 0,-0.17836 -0.10315,-0.26054 -0.229222,-0.18263 -0.126074,0.0779 -0.424225,-0.0738 -0.662559,-0.33716 -0.370522,-0.40942 -0.375806,-0.47883 -0.03646,-0.47883 0.480536,0 1.348094,0.90307 1.103008,1.14815 -0.09612,0.0961 -0.174768,0.0288 -0.174767,-0.14953 z m 7.006966,-0.13134 c -0.276379,-0.20209 -0.686089,-0.30992 -0.910466,-0.23962 -0.340921,0.10681 -0.346302,0.084 -0.03275,-0.13869 0.263703,-0.18729 0.558562,-0.14636 0.992188,0.13777 0.339341,0.22234 0.616982,0.4501 0.616982,0.50612 0,0.17327 -0.144722,0.11555 -0.665951,-0.26558 z m -21.122312,-0.28554 c -0.08197,-0.21362 -0.03518,-0.45878 0.103984,-0.54478 0.139165,-0.086 0.253029,0.0888 0.253029,0.3884 0,0.63885 -0.147138,0.7033 -0.357013,0.15638 z m -2.364576,-0.31388 c -0.07805,-0.12628 0.02614,-0.4594 0.23151,-0.74027 0.263766,-0.36072 0.372221,-0.39871 0.369361,-0.12937 -0.0057,0.5333 -0.429569,1.14682 -0.600871,0.86964 z m 1.419561,-0.51039 c 0.0127,-0.30823 0.07539,-0.37092 0.159851,-0.15986 0.07643,0.191 0.06703,0.4192 -0.02088,0.50712 -0.08792,0.0879 -0.150453,-0.0684 -0.138964,-0.34726 z m -6.900056,-0.0946 c 0,-0.13693 0.09922,-0.31029 0.220486,-0.38524 0.121269,-0.075 0.220488,0.0371 0.220488,0.24897 0,0.21188 -0.09922,0.38524 -0.220488,0.38524 -0.121267,0 -0.220486,-0.11204 -0.220486,-0.24897 z m 3.700521,-0.89209 c 0.50732,-0.54861 0.96506,-0.86949 1.017201,-0.71307 0.110662,0.33199 -0.493649,1.13931 -0.699058,0.9339 -0.07659,-0.0766 -0.387051,0.0668 -0.689901,0.3187 -0.30285,0.25187 -0.135559,0.009 0.371758,-0.53953 z m 1.061979,0.64429 c 0,-0.12771 0.198086,-0.3956 0.440193,-0.59532 0.39915,-0.32927 0.410617,-0.30762 0.122984,0.23219 -0.32806,0.61568 -0.563177,0.76727 -0.563177,0.36313 z m 13.46,-0.23084 c -0.329107,-0.41964 -0.319749,-0.429 0.0999,-0.0999 0.254662,0.19972 0.463021,0.40808 0.463021,0.46302 0,0.21776 -0.217273,0.0776 -0.562917,-0.36313 z m -17.285158,-0.0479 c -0.08372,-0.13547 -0.05106,-0.30882 0.07258,-0.38524 0.123643,-0.0764 0.224804,0.0344 0.224804,0.2463 0,0.44614 -0.08343,0.48511 -0.297382,0.13894 z m 14.31281,-0.15058 c -0.08376,-0.21828 -0.03697,-0.39687 0.103984,-0.39687 0.140954,0 0.256281,0.17859 0.256281,0.39687 0,0.21829 -0.04679,0.39688 -0.103984,0.39688 -0.05719,0 -0.172516,-0.17859 -0.256281,-0.39688 z M 25.716686,271.733 c 0.08994,-0.14552 0.216026,-0.26458 0.280199,-0.26458 0.06417,0 0.116676,0.11906 0.116676,0.26458 0,0.14552 -0.126089,0.26459 -0.280198,0.26459 -0.154109,0 -0.206613,-0.11907 -0.116677,-0.26459 z m 20.555924,-0.28169 c -0.175882,-0.28163 -0.214289,-0.51206 -0.08535,-0.51206 0.363123,0 0.881867,0.72947 0.629611,0.88538 -0.12346,0.0763 -0.368377,-0.0917 -0.544256,-0.37332 z m 5.064562,-0.10354 c 0,-0.21188 0.10116,-0.32272 0.224803,-0.2463 0.12364,0.0764 0.156302,0.24977 0.07258,0.38523 -0.213948,0.34618 -0.297381,0.3072 -0.297381,-0.13893 z m -21.692439,-0.20979 c -0.101891,-0.16487 -0.04744,-0.20267 0.132114,-0.0917 0.168005,0.10383 0.306219,0.0925 0.307137,-0.0253 7.93e-4,-0.11773 0.338264,-0.40549 0.749654,-0.63946 0.5783,-0.3289 0.74798,-0.34655 0.74798,-0.0778 0,0.19119 -0.09922,0.2863 -0.220488,0.21135 -0.121266,-0.075 -0.221414,-0.0399 -0.222549,0.0778 -0.0037,0.38222 -1.301768,0.85586 -1.493848,0.54507 z m -1.553991,-0.47495 c -0.148375,-0.24008 -0.03069,-0.29754 0.734799,-0.35878 0.181901,-0.0146 0.42909,-0.14552 0.549309,-0.29104 0.132625,-0.16054 0.17929,-0.11845 0.118666,0.10703 -0.126527,0.47058 -1.192483,0.88305 -1.402774,0.54279 z m 5.604114,0.0774 c -0.0763,-0.12346 0.09169,-0.36837 0.373319,-0.54425 0.28163,-0.17588 0.512053,-0.21429 0.512053,-0.0854 0,0.36313 -0.729469,0.88187 -0.885372,0.62961 z m 14.609955,-0.26424 c -0.329107,-0.41964 -0.319749,-0.429 0.0999,-0.0999 0.254662,0.19972 0.463021,0.40808 0.463021,0.46302 0,0.21776 -0.217273,0.0776 -0.562917,-0.36313 z m -1.421458,-0.0661 c -0.08994,-0.14552 -0.04446,-0.26459 0.101063,-0.26459 0.145521,0 0.338167,0.11907 0.428104,0.26459 0.08994,0.14552 0.04446,0.26458 -0.101063,0.26458 -0.145521,0 -0.338167,-0.11906 -0.428104,-0.26458 z m 2.744375,-0.46302 c -0.32707,-0.41705 -0.318302,-0.42793 0.08831,-0.10952 0.248285,0.19443 0.594103,0.26533 0.768482,0.15756 0.200576,-0.12396 0.247698,-0.0837 0.128268,0.10951 -0.264808,0.42847 -0.562848,0.3808 -0.985057,-0.15755 z m -19.627747,0.0147 c -0.09857,-0.15949 -0.0051,-0.35678 0.207669,-0.43843 0.212786,-0.0817 0.468622,-0.0162 0.568526,0.14544 0.104815,0.1696 0.062,0.21997 -0.101219,0.11909 -0.155578,-0.0961 -0.330769,-0.0311 -0.389316,0.14453 -0.07479,0.22436 -0.15975,0.2331 -0.28566,0.0294 z m 3.14484,-0.0488 c -0.08198,-0.13264 0.02886,-0.30944 0.246301,-0.39289 0.217445,-0.0834 0.395356,-0.0434 0.395356,0.089 0,0.35865 -0.470191,0.58137 -0.641657,0.30393 z m 20.536056,-0.38945 c -0.481465,-0.17443 -0.793792,-0.39875 -0.694057,-0.49848 0.176096,-0.1761 1.701741,0.47872 1.701741,0.73039 0,0.069 -0.02976,0.11644 -0.06614,0.10537 -0.03638,-0.0111 -0.460074,-0.16285 -0.941539,-0.33728 z m -26.508982,-0.0301 c 0,-0.0676 0.230899,-0.24655 0.513109,-0.39759 0.366432,-0.19611 0.567203,-0.18708 0.702339,0.0316 0.113099,0.183 0.07369,0.23478 -0.09795,0.1287 -0.157951,-0.0976 -0.361968,-0.0565 -0.453372,0.0914 -0.166117,0.26878 -0.664125,0.3782 -0.664125,0.14591 z m 5.416817,-0.41773 c -0.08601,-0.13917 -0.09956,-0.25303 -0.03011,-0.25303 0.06945,0 0.314597,-0.0723 0.54478,-0.1606 0.230184,-0.0883 0.418515,-0.0415 0.418515,0.10398 0,0.37016 -0.743342,0.61682 -0.933183,0.30965 z m -0.389734,-0.7822 c -0.238466,-0.15411 -0.2711,-0.2581 -0.08176,-0.26053 0.173312,-0.002 0.388699,0.11501 0.478636,0.26053 0.203015,0.32849 0.111421,0.32849 -0.396876,0 z m 23.8125,0.006 c -0.868376,-0.14255 -0.885137,-0.16341 -0.269147,-0.33513 0.361293,-0.10071 0.762754,-0.0772 0.892138,0.0521 0.129381,0.12938 0.399327,0.17228 0.599876,0.0953 0.200546,-0.077 0.364633,-0.0804 0.364633,-0.008 0,0.2612 -0.678019,0.34461 -1.5875,0.19532 z m -23.151042,-0.27098 c -0.08994,-0.14552 -0.03743,-0.26459 0.116676,-0.26459 0.15411,0 0.280199,0.11907 0.280199,0.26459 0,0.14552 -0.0525,0.26458 -0.116675,0.26458 -0.06417,0 -0.190262,-0.11906 -0.2802,-0.26458 z m 15.478125,0 c -0.319291,-0.20635 -0.277447,-0.25728 0.214054,-0.26054 0.340669,-0.002 0.538588,0.113 0.447405,0.26054 -0.196636,0.31816 -0.169138,0.31816 -0.661459,0 z m -21.695833,-0.27668 c -0.28984,-0.19613 -0.182805,-0.22068 0.396875,-0.091 0.972855,0.21762 1.18404,0.36905 0.507118,0.36365 -0.278915,-0.002 -0.685712,-0.12491 -0.903993,-0.27263 z m 27.202474,0.0959 c 0.190995,-0.0764 0.419198,-0.067 0.507119,0.0209 0.08792,0.0879 -0.06835,0.15045 -0.347266,0.13897 -0.308226,-0.0127 -0.370919,-0.0754 -0.159853,-0.15985 z m -1.604036,-0.25908 c 0.181901,-0.0734 0.479557,-0.0734 0.661458,0 0.181901,0.0734 0.03307,0.13346 -0.330729,0.13346 -0.363802,0 -0.512631,-0.0601 -0.330729,-0.13346 z m 2.926953,-0.005 c 0.190994,-0.0764 0.419198,-0.067 0.507119,0.0209 0.08792,0.0879 -0.06835,0.15045 -0.347266,0.13896 -0.308226,-0.0127 -0.370919,-0.0754 -0.159853,-0.15985 z m -27.78125,-0.26458 c 0.190996,-0.0764 0.419199,-0.067 0.507118,0.0209 0.08792,0.0879 -0.06835,0.15046 -0.347266,0.13897 -0.308224,-0.0127 -0.370919,-0.0754 -0.159852,-0.15985 z m 3.175,0 c 0.190995,-0.0764 0.419198,-0.067 0.507119,0.0209 0.08792,0.0879 -0.06835,0.15046 -0.347266,0.13897 -0.308226,-0.0127 -0.370919,-0.0754 -0.159853,-0.15985 z m 1.613117,-0.10427 c -0.271375,-0.1718 -0.174813,-0.23716 0.354721,-0.24011 0.790107,-0.004 0.932376,0.12534 0.372883,0.34004 -0.195099,0.0749 -0.52252,0.0299 -0.727604,-0.0999 z m 18.759799,0.10427 c 0.190995,-0.0764 0.419198,-0.067 0.507119,0.0209 0.08792,0.0879 -0.06835,0.15046 -0.347265,0.13897 -0.308227,-0.0127 -0.37092,-0.0754 -0.159854,-0.15985 z m 3.175,0 c 0.190995,-0.0764 0.419198,-0.067 0.507119,0.0209 0.08792,0.0879 -0.06835,0.15046 -0.347265,0.13897 -0.308227,-0.0127 -0.37092,-0.0754 -0.159854,-0.15985 z m -5.043619,-0.25908 c 0.181901,-0.0734 0.479557,-0.0734 0.661458,0 0.181901,0.0734 0.03307,0.13345 -0.330729,0.13345 -0.363802,0 -0.51263,-0.06 -0.330729,-0.13345 z m -21.219584,-0.8655 c 0.147093,-0.14453 0.635482,-0.15576 1.177396,-0.0271 l 0.926042,0.21989 -1.177396,0.0271 c -0.731822,0.0168 -1.082273,-0.0664 -0.926042,-0.21989 z m 21.765287,0.0662 c 0.190994,-0.0764 0.419198,-0.067 0.507119,0.0209 0.08792,0.0879 -0.06835,0.15045 -0.347266,0.13897 -0.308226,-0.0127 -0.370919,-0.0754 -0.159853,-0.15985 z m -0.891784,-0.37327 c -0.08149,-0.13186 0.156512,-0.23974 0.528902,-0.23974 0.810697,0 0.876187,0.15079 0.148172,0.34117 -0.290898,0.0761 -0.595579,0.0304 -0.677074,-0.10143 z m 3.719518,0.0248 c 0.749192,-0.19064 0.756618,-0.2049 0.132292,-0.25417 -0.363802,-0.0287 -0.508701,-0.11355 -0.322001,-0.18855 0.186701,-0.075 0.543888,-0.0468 0.79375,0.0626 0.249862,0.10944 0.60312,0.17498 0.785022,0.14565 0.181901,-0.0293 0.330729,0.0709 0.330729,0.22285 0,0.15749 -0.540134,0.26273 -1.256771,0.24488 -1.12182,-0.0279 -1.171538,-0.053 -0.463021,-0.23328 z m -22.078958,-0.27868 c 0.21072,-0.13331 0.859375,-0.25257 1.441458,-0.26503 0.835348,-0.0179 0.946841,-0.0706 0.529167,-0.25004 -0.43138,-0.18537 -0.446487,-0.23083 -0.08176,-0.24599 0.557644,-0.0232 0.901205,0.4754 0.42926,0.62295 -0.830014,0.25949 -2.684634,0.36998 -2.318123,0.13811 z m 20.031522,-0.43762 c 0.329118,-0.0633 0.805368,-0.0609 1.058334,0.005 0.252965,0.0662 -0.01633,0.118 -0.598398,0.11507 -0.582083,-0.003 -0.789054,-0.0571 -0.459936,-0.12041 z m -20.16552,-0.32255 c -0.08331,-0.1348 -0.788435,-0.17936 -1.566931,-0.099 -0.870651,0.0899 -1.482359,0.0378 -1.589282,-0.13517 -0.11765,-0.19037 0.76868,-0.30801 2.742479,-0.36401 1.60397,-0.0455 2.915139,-0.0232 2.913708,0.0495 -0.0042,0.21311 -1.385081,0.79375 -1.887694,0.79375 -0.253442,0 -0.528968,-0.11029 -0.61228,-0.2451 z m 19.040419,-0.0235 c 0.08858,-0.14333 0.531064,-0.26059 0.98329,-0.26059 0.999437,0 0.898493,0.13204 -0.271301,0.35488 -0.545505,0.10392 -0.812623,0.0685 -0.711989,-0.0943 z m -15.877463,-0.52518 c -0.08994,-0.14552 -0.08994,-0.38365 0,-0.52917 0.210934,-0.3413 -0.474416,-0.34579 -0.814866,-0.005 -0.410012,0.41001 -9.636175,-0.87395 -9.636175,-1.34102 0,-0.2085 1.823115,-0.0876 6.020543,0.39922 1.492287,0.17308 2.623381,0.23292 2.513542,0.13298 -0.109842,-0.0999 -1.152211,-0.45294 -2.316377,-0.78445 -1.164167,-0.3315 -2.235729,-0.71671 -2.38125,-0.85601 -0.298848,-0.28608 1.594059,-0.11845 3.68191,0.32605 0.715362,0.1523 1.34026,0.2373 1.38866,0.1889 0.0484,-0.0484 -1.042498,-0.53544 -2.424218,-1.08231 -2.350462,-0.9303 -3.269327,-1.47973 -2.46353,-1.47307 0.463748,0.004 2.485247,0.63998 3.748381,1.17957 1.869839,0.79877 1.226902,0.27699 -1.438442,-1.16737 -2.685958,-1.45554 -3.581012,-2.13173 -2.821714,-2.13173 0.436444,0 2.810395,1.00729 4.730384,2.00715 1.887738,0.98307 1.844781,0.76492 -0.129233,-0.65625 -2.054659,-1.47924 -2.02161,-2.0646 0.03825,-0.67741 0.746472,0.50271 1.451213,0.91238 1.566095,0.91038 0.114882,-0.002 -0.861679,-1.00511 -2.170131,-2.22915 -3.589696,-3.3581 -2.712045,-3.13225 1.932067,0.4972 1.381731,1.07984 -0.122695,-0.84424 -3.587956,-4.5888 -0.618464,-0.66831 -1.12448,-1.31277 -1.12448,-1.43213 0,-0.45602 1.643547,0.98728 4.080942,3.58373 2.659872,2.83345 3.206668,3.18895 1.541454,1.00218 -1.44862,-1.90233 -2.180569,-3.14956 -1.936771,-3.30023 0.205507,-0.12701 2.041128,2.08605 3.027087,3.64951 0.260327,0.41281 0.527151,0.69673 0.592945,0.63094 0.06579,-0.0658 -0.546492,-1.27335 -1.360633,-2.68347 -1.803956,-3.1245 -1.8156,-4.10356 -0.01601,-1.34575 0.714343,1.09472 1.340985,1.94821 1.392536,1.89666 0.113885,-0.11389 -0.428974,-1.43473 -1.798373,-4.37565 -2.326775,-4.99697 -1.365708,-4.49807 1.211292,0.6288 0.950891,1.89177 1.728726,3.38005 1.728523,3.30729 -2.04e-4,-0.0728 -0.226671,-0.87643 -0.503262,-1.78594 -0.276587,-0.9095 -0.421817,-1.65364 -0.322728,-1.65364 0.236572,0 0.920052,1.38981 1.496338,3.0427 0.513596,1.47308 1.048708,2.25858 0.811107,1.19063 -0.08094,-0.3638 -0.462124,-2.03068 -0.847074,-3.70417 -0.384953,-1.67349 -0.757754,-3.3106 -0.828448,-3.63802 -0.07069,-0.32742 -0.01781,-0.59531 0.117549,-0.59531 0.135343,0 0.521309,0.9525 0.8577,2.11667 0.405231,1.40239 0.742222,2.11666 0.998646,2.11666 0.30494,0 0.349102,-0.22446 0.208219,-1.05833 -0.331287,-1.96087 0.332968,-1.10972 0.774322,0.99219 0.23681,1.12778 0.537268,2.4077 0.667686,2.84427 0.1992,0.6668 0.21381,0.6139 0.09135,-0.33073 -0.0965,-0.74439 -0.04492,-1.12448 0.152619,-1.12448 0.173734,0 0.2984,0.46058 0.2984,1.10243 0,0.60634 0.06305,1.03938 0.1401,0.96233 0.183671,-0.18367 0.301302,-6.34835 0.819771,-42.96172 l 0.168865,-11.92509 -1.6227,-1.73467 c -0.892487,-0.95407 -1.622703,-1.83588 -1.622703,-1.95957 0,-0.1237 0.634638,0.45702 1.410309,1.29048 0.775668,0.83347 1.499502,1.51539 1.608521,1.51539 0.318603,0 -0.04807,-1.41604 -1.678559,-6.48229 -2.423829,-7.53134 -2.262232,-6.75071 -1.732399,-8.36868 0.714965,-2.18331 1.56496,-3.71748 2.839791,-5.12557 l 1.163421,-1.28504 0.684639,0.51048 c 0.701743,0.52323 2.468612,3.0102 3.229374,4.54554 0.234389,0.47303 0.539515,1.45776 0.678056,2.18828 0.227909,1.20177 0.163173,1.57329 -0.679987,3.90244 -0.512535,1.41582 -1.273493,3.58625 -1.691021,4.82317 -0.417531,1.23693 -1.067012,3.06649 -1.443292,4.06569 -0.675624,1.79408 -0.67718,1.8149 -0.12496,1.67049 l 0.559192,-0.14623 -0.529699,0.57847 c -0.512596,0.55978 -0.534937,1.0612 -0.691838,15.52742 -0.439023,40.4771 -0.43861,39.93607 -0.02914,38.36458 0.208544,-0.80036 0.525007,-2.39304 0.703254,-3.53928 0.38304,-2.46317 0.761413,-1.97263 0.423548,0.54911 -0.125291,0.93513 -0.192069,2.29221 -0.1484,3.01574 0.07572,1.25454 0.14564,1.10008 1.508721,-3.33305 0.786127,-2.5567 1.530268,-4.71094 1.653645,-4.78719 0.327936,-0.20267 0.319305,-0.15794 -0.834006,4.32284 -0.582083,2.26148 -1.052557,4.24365 -1.045496,4.40483 0.0071,0.16117 0.418002,-0.48086 0.913204,-1.42675 0.967754,-1.8485 1.27671,-1.45987 0.391065,0.49192 -0.935289,2.06119 -0.553974,1.78823 0.79956,-0.57235 0.727605,-1.26895 1.322917,-2.36765 1.322917,-2.44155 0,-0.27305 1.365128,-2.2865 1.475454,-2.17617 0.06289,0.0629 -0.05856,0.46109 -0.269888,0.88489 -0.489185,0.98104 -2.793066,6.28477 -2.793066,6.42988 0,0.06 0.722477,-0.86136 1.605502,-2.0475 1.578266,-2.12003 2.650223,-2.98218 1.612281,-1.29672 -1.1978,1.94505 -2.430497,4.24892 -2.328156,4.35126 0.06015,0.0601 0.628735,-0.54442 1.263515,-1.34349 3.716663,-4.67857 5.869504,-6.83437 4.065892,-4.07148 -1.17556,1.8008 -3.456678,4.78679 -4.094898,5.36023 -0.655714,0.58916 -1.30669,1.63827 -0.836068,1.34741 0.15539,-0.096 1.318737,-1.06238 2.585212,-2.14742 1.266474,-1.08504 2.356919,-1.91857 2.423205,-1.85228 0.143375,0.14337 -1.926037,2.65712 -2.571567,3.12372 -0.247507,0.1789 -0.545129,0.48394 -0.661379,0.67786 -0.228097,0.3805 0.997569,-0.1713 2.228128,-1.0031 4.382,-2.96204 2.924124,-1.14754 -1.851237,2.30409 -1.480225,1.0699 -1.124871,1.09819 0.792903,0.0631 3.404026,-1.83724 7.207309,-3.72569 7.305562,-3.62744 0.201001,0.201 -0.830202,0.93098 -3.20452,2.26845 -1.309687,0.73776 -2.511488,1.45243 -2.670672,1.58817 -0.159182,0.13573 -0.676262,0.44683 -1.149067,0.69132 -1.432595,0.74083 -0.790681,0.6849 1.684147,-0.14674 1.2906,-0.43369 2.453325,-0.75293 2.583831,-0.70943 0.130508,0.0435 -1.032026,0.66622 -2.583413,1.38382 -2.113865,0.97778 -2.697017,1.34982 -2.327138,1.48465 0.27146,0.099 0.612625,0.0889 0.758145,-0.0223 0.289081,-0.22096 4.183296,-1.31986 4.677257,-1.31986 0.5075,0 0.0029,0.34208 -1.026681,0.69604 -0.533363,0.18336 -1.066922,0.27333 -1.185686,0.19993 -0.11876,-0.0734 -0.215931,-0.0116 -0.215931,0.13728 0,0.1489 -0.744141,0.50198 -1.653646,0.78462 -1.481148,0.46028 -1.557047,0.51593 -0.727604,0.53347 0.509323,0.0108 2.235729,-0.1557 3.836458,-0.36993 3.655928,-0.48929 5.125469,-0.48069 2.910417,0.017 -3.467751,0.77919 -8.566455,1.5433 -6.085417,0.91199 0.597247,-0.15198 0.318865,-0.20973 -1.124479,-0.23329 -1.496274,-0.0244 -1.918229,-0.11677 -1.918229,-0.41987 0,-0.2291 -0.156017,-0.3287 -0.380169,-0.24269 -0.209093,0.0802 -0.347668,0.28486 -0.307946,0.45472 0.03972,0.16986 0.02204,0.2188 -0.03931,0.10875 -0.06134,-0.11005 -0.238813,-0.12142 -0.39439,-0.0253 -0.155575,0.0962 -0.209037,0.0554 -0.118804,-0.0906 0.289777,-0.46887 -1.47878,-0.34231 -1.870614,0.13386 -0.202176,0.24569 -0.298493,0.30805 -0.214035,0.13858 0.08446,-0.16947 0.004,-0.36843 -0.178816,-0.44213 -0.264136,-0.10649 -0.264475,-0.13829 -0.0016,-0.15489 0.181901,-0.0115 0.321329,-0.22925 0.309841,-0.48391 -0.01249,-0.2766 -0.07462,-0.32986 -0.15434,-0.13229 -0.0734,0.1819 -0.374393,0.33073 -0.668877,0.33073 -0.367231,0 -0.487585,0.12467 -0.38313,0.39687 0.08378,0.21834 0.0072,0.3985 -0.17013,0.40049 -0.177334,0.002 -0.58225,0.0733 -0.899813,0.15847 -0.485431,0.13018 -0.554257,0.0664 -0.432163,-0.40049 0.08342,-0.3192 0.01954,-0.55533 -0.150278,-0.55533 -0.162493,0 -0.295441,0.23813 -0.295441,0.52917 0,0.29104 -0.119063,0.52917 -0.264584,0.52917 -0.14552,0 -0.264583,-0.12609 -0.264583,-0.2802 0,-0.15465 -0.146103,-0.18991 -0.326078,-0.0787 -0.666927,0.41218 -1.306705,0.29603 -1.173575,-0.21307 0.180949,-0.69194 -0.05657,-0.60311 -0.333261,0.12464 -0.19749,0.51944 -0.411541,0.60761 -1.427845,0.58812 -0.65754,-0.0126 -1.138336,0.0696 -1.068435,0.18271 0.0699,0.11309 -0.154837,0.20563 -0.499412,0.20563 -0.344577,0 -0.85762,0.17481 -1.140095,0.38846 -0.619046,0.46823 -1.145352,0.53435 -0.698799,0.0878 0.383942,-0.38394 0.423381,-0.8375 0.05292,-0.60854 -0.145521,0.0899 -0.264584,-0.0291 -0.264584,-0.26458 0,-0.23546 -0.110826,-0.35961 -0.246282,-0.2759 -0.135456,0.0837 -0.192656,0.44793 -0.127116,0.80937 0.123333,0.68014 -0.0035,0.85299 -0.28806,0.39257 z m -0.203949,-1.48277 c -0.08792,-0.0879 -0.316124,-0.0973 -0.507119,-0.0209 -0.211066,0.0845 -0.148373,0.14716 0.159854,0.15985 0.278913,0.0115 0.435184,-0.051 0.347265,-0.13896 z m 7.131564,-0.41892 c -0.08446,-0.21107 -0.147156,-0.14838 -0.159851,0.15985 -0.01148,0.27891 0.05104,0.43518 0.138964,0.34727 0.08792,-0.0879 0.09732,-0.31613 0.02088,-0.50712 z m 12.18302,0.41892 c -0.08792,-0.0879 -0.316125,-0.0973 -0.507119,-0.0209 -0.211066,0.0845 -0.148373,0.14716 0.159853,0.15985 0.278913,0.0115 0.435184,-0.051 0.347266,-0.13896 z m -9.717927,-0.51722 c 0,-0.22687 -0.121004,-0.33771 -0.268898,-0.2463 -0.147894,0.0914 -0.200401,0.27702 -0.116676,0.41249 0.226809,0.36699 0.385574,0.29856 0.385574,-0.16619 z m 0.879761,-69.5698 c 0.955442,-2.7649 1.911088,-5.50303 2.12366,-6.08473 0.454001,-1.24239 0.392671,-1.39052 -0.778264,-1.87977 -1.55774,-0.65087 -7.516823,-0.31662 -7.516823,0.42162 0,0.10973 0.399846,1.43505 0.888547,2.94515 0.488702,1.51011 1.411436,4.37567 2.050521,6.36793 0.639085,1.99225 1.236948,3.54006 1.328582,3.43958 0.09164,-0.10049 0.948335,-2.44489 1.903777,-5.20978 z m 10.712297,71.65363 c 0.190994,-0.0764 0.419198,-0.067 0.507119,0.0209 0.08792,0.0879 -0.06835,0.15045 -0.347266,0.13896 -0.308226,-0.0127 -0.370919,-0.0754 -0.159853,-0.15985 z m -5.048031,-0.64584 c 0.179478,-0.18082 0.39297,-0.26211 0.474433,-0.18065 0.08146,0.0815 -0.06538,0.22941 -0.326319,0.32876 -0.377084,0.14359 -0.407474,0.1132 -0.148114,-0.14811 z m 3.725114,0.11668 c 0.190995,-0.0764 0.419198,-0.067 0.507119,0.0209 0.08792,0.0879 -0.06835,0.15045 -0.347266,0.13897 -0.308226,-0.0127 -0.370919,-0.0754 -0.159853,-0.15985 z m 1.174089,-0.002 c 0.254661,-0.0666 0.67138,-0.0666 0.926041,0 0.254662,0.0665 0.0463,0.121 -0.463021,0.121 -0.509323,0 -0.717682,-0.0545 -0.46302,-0.121 z M 42.517728,263.5153 c 0,-0.15411 0.119063,-0.20661 0.264583,-0.11667 0.145521,0.0899 0.264584,0.21602 0.264584,0.2802 0,0.0642 -0.119063,0.11667 -0.264584,0.11667 -0.14552,0 -0.264583,-0.12609 -0.264583,-0.2802 z m 13.15861,-5.30888 c 0.179478,-0.18082 0.39297,-0.26211 0.474433,-0.18065 0.08146,0.0815 -0.06538,0.22941 -0.326319,0.32876 -0.377084,0.14359 -0.407474,0.1132 -0.148114,-0.14811 z M 45.246683,196.21346 c 0.314738,-0.35335 0.622498,-0.5922 0.683913,-0.53078 0.142661,0.14265 -0.781954,1.17324 -1.052605,1.17324 -0.111955,0 0.05396,-0.28911 0.368692,-0.64246 z m -9.288865,-2.19886 c -0.888314,-0.98389 -3.109486,-3.3359 -4.935937,-5.22669 -1.972577,-2.04206 -3.32082,-3.65019 -3.32082,-3.96094 0,-0.80046 4.185677,-4.6946 5.937727,-5.52415 2.087266,-0.98828 4.276547,-1.67832 5.939163,-1.87198 l 1.42585,-0.16608 -0.924605,1.13047 c -1.255231,1.53472 -2.513952,3.83939 -2.722121,4.9841 -0.27618,1.51868 -0.399105,1.59933 -1.727232,1.1332 -1.970701,-0.69167 -7.675199,-0.15891 -7.349548,0.68639 0.08299,0.21542 4.695005,5.26072 6.171242,6.75101 1.923849,1.94217 3.37361,3.60135 3.252566,3.72239 -0.07214,0.0721 -0.85797,-0.67383 -1.746285,-1.65772 z m 10.468795,1.12153 c 0.149966,-0.29105 0.730801,-0.96065 1.290744,-1.48801 0.559943,-0.52736 2.074931,-2.05019 3.36664,-3.38408 1.291709,-1.33388 2.406658,-2.36714 2.477662,-2.29614 0.071,0.071 -1.566683,1.83197 -3.639307,3.91325 -2.072622,2.08128 -3.645704,3.54602 -3.495739,3.25498 z m 7.732782,-7.94351 c 0,-0.0669 0.358473,-0.46426 0.796607,-0.88297 0.95704,-0.91459 0.778433,-1.13845 -1.296646,-1.62519 -1.356871,-0.31827 -4.431035,-0.2412 -6.146678,0.15409 -0.621803,0.14326 -0.710867,0.0683 -0.860497,-0.72444 -0.238783,-1.26503 -1.772131,-4.19955 -2.937433,-5.62165 -0.889399,-1.0854 -0.93744,-1.21571 -0.448164,-1.21571 3.410185,0 9.203896,3.22701 11.921389,6.64004 l 1.084149,1.36164 -0.725636,0.87101 c -0.664059,0.79711 -1.387091,1.34088 -1.387091,1.04318 z"
         id="path2698"
         inkscape:connector-curvature="0" />
      <path
         style="fill:#440055;stroke-width:0.26458335"
         d="m 40.276578,254.48317 c 0.183671,-0.18367 0.301302,-6.34835 0.819771,-42.96172 l 0.168865,-11.92509 -1.6227,-1.73467 c -0.892487,-0.95407 -1.622703,-1.83588 -1.622703,-1.95957 0,-0.1237 0.634638,0.45702 1.410309,1.29048 0.775668,0.83347 1.499502,1.51539 1.608521,1.51539 0.318603,0 -0.04807,-1.41604 -1.678559,-6.48229 -2.423829,-7.53134 -2.262232,-6.75071 -1.732399,-8.36868 0.714965,-2.18331 1.56496,-3.71748 2.839791,-5.12557 l 1.163421,-1.28504 0.684639,0.51048 c 0.701743,0.52323 2.468612,3.0102 3.229374,4.54554 0.234389,0.47303 0.539515,1.45776 0.678056,2.18828 0.227909,1.20177 0.163173,1.57329 -0.679987,3.90244 -0.512535,1.41582 -1.273493,3.58625 -1.691021,4.82317 -0.417531,1.23693 -1.067012,3.06649 -1.443292,4.06569 -0.675624,1.79408 -0.67718,1.8149 -0.12496,1.67049 l 0.559192,-0.14623 -0.529868,0.57847 c -0.512659,0.55968 -0.535321,1.06386 -0.697876,15.52742 -0.216561,19.26915 -0.438126,40.2012 -0.432691,40.87812 0.0028,0.34225 -0.06688,0.41728 -0.197123,0.21241 -0.132805,-0.20891 -0.334118,-0.23281 -0.591259,-0.0702 -0.858455,-1.26196 -1.328587,-5.36028 -0.117501,-1.64932 z m 0.564295,-0.80799 c -0.0734,-0.1819 -0.133453,-0.0331 -0.133453,0.33073 0,0.3638 0.06005,0.51263 0.133453,0.33073 0.0734,-0.18191 0.0734,-0.47956 0,-0.66146 z m 2.821199,-60.92031 c 0.955442,-2.7649 1.911088,-5.50303 2.12366,-6.08473 0.454001,-1.24239 0.392671,-1.39052 -0.778264,-1.87977 -1.55774,-0.65087 -7.516823,-0.31662 -7.516823,0.42162 0,0.10973 0.399846,1.43505 0.888547,2.94515 0.488702,1.51011 1.411436,4.37567 2.050521,6.36793 0.639085,1.99225 1.236948,3.54006 1.328582,3.43958 0.09164,-0.10049 0.948335,-2.44489 1.903777,-5.20978 z m -2.181788,61.36128 c 0.141452,-0.6112 0.203446,0.0989 0.13897,0.34727 -0.08792,0.0879 -0.150453,-0.0683 -0.138965,-0.34727 z m 3.766399,-57.9027 c 0.314738,-0.35335 0.622498,-0.5922 0.683913,-0.53078 0.142661,0.14265 -0.781954,1.17324 -1.052605,1.17324 -0.111955,0 0.05396,-0.28911 0.368692,-0.64246 z m -9.288865,-2.19886 c -0.888314,-0.98389 -3.109486,-3.3359 -4.935937,-5.22669 -1.972577,-2.04206 -3.32082,-3.65019 -3.32082,-3.96094 0,-0.80046 4.185677,-4.6946 5.937727,-5.52415 2.087266,-0.98828 4.276547,-1.67832 5.939163,-1.87198 l 1.42585,-0.16608 -0.924605,1.13047 c -1.255231,1.53472 -2.513952,3.83939 -2.722121,4.9841 -0.27618,1.51868 -0.399105,1.59933 -1.727232,1.1332 -1.970701,-0.69167 -7.675199,-0.15891 -7.349548,0.68639 0.08299,0.21542 4.695005,5.26072 6.171242,6.75101 1.923849,1.94217 3.37361,3.60135 3.252566,3.72239 -0.07214,0.0721 -0.85797,-0.67383 -1.746285,-1.65772 z m 10.468795,1.12153 c 0.149966,-0.29105 0.730801,-0.96065 1.290744,-1.48801 0.559943,-0.52736 2.074931,-2.05019 3.36664,-3.38408 1.291709,-1.33388 2.406658,-2.36714 2.477662,-2.29614 0.071,0.071 -1.566683,1.83197 -3.639307,3.91325 -2.072622,2.08128 -3.645704,3.54602 -3.495739,3.25498 z m 7.732782,-7.94351 c 0,-0.0669 0.358473,-0.46426 0.796607,-0.88297 0.95704,-0.91459 0.778433,-1.13845 -1.296646,-1.62519 -1.356871,-0.31827 -4.431035,-0.2412 -6.146678,0.15409 -0.621803,0.14326 -0.710867,0.0683 -0.860497,-0.72444 -0.238783,-1.26503 -1.772131,-4.19955 -2.937433,-5.62165 -0.889399,-1.0854 -0.93744,-1.21571 -0.448164,-1.21571 3.410185,0 9.203896,3.22701 11.921389,6.64004 l 1.084149,1.36164 -0.725636,0.87101 c -0.664059,0.79711 -1.387091,1.34088 -1.387091,1.04318 z"
         id="path2696"
         inkscape:connector-curvature="0"
         sodipodi:nodetypes="ccscsscscsccccccsccccsccccsscccccscccccccsccscssscccccccccscsccscscccccsccc" />
      <path
         style="fill:#fff6d5;stroke-width:0.26458335"
         d="m 31.794962,261.95497 c 0.08601,-0.13916 0.33116,-0.18595 0.544782,-0.10398 0.546923,0.20988 0.482473,0.35701 -0.156382,0.35701 -0.29963,0 -0.474411,-0.11386 -0.3884,-0.25303 z m 0.734745,-0.59906 c -0.818986,-0.39498 -0.756028,-0.79729 0.06615,-0.42268 0.363802,0.16576 0.661458,0.40133 0.661458,0.52349 0,0.26082 0.03118,0.26514 -0.727604,-0.10081 z m -3.505729,-0.73541 c -0.218281,-0.14106 -0.277812,-0.25648 -0.132292,-0.25648 0.145521,0 0.443178,0.11542 0.661459,0.25648 0.218281,0.14107 0.277812,0.25648 0.132291,0.25648 -0.14552,0 -0.443177,-0.11541 -0.661458,-0.25648 z m 19.446875,0 c 0.08994,-0.14552 0.282583,-0.26458 0.428104,-0.26458 0.145521,0 0.191,0.11906 0.101063,0.26458 -0.08994,0.14552 -0.282583,0.26459 -0.428104,0.26459 -0.145521,0 -0.191,-0.11907 -0.101063,-0.26459 z m 5.822707,0.003 c -0.09269,-0.14999 0.01352,-0.19434 0.248967,-0.10399 0.45837,0.17589 0.542235,0.36554 0.16165,0.36554 -0.136932,0 -0.321712,-0.1177 -0.410617,-0.26155 z m -21.503955,-0.38644 c -0.859113,-0.47469 -0.92714,-0.59179 -0.317704,-0.5469 0.295487,0.0218 0.737661,0.24 0.98261,0.48495 0.513633,0.51363 0.204663,0.54242 -0.664906,0.0619 z m -5.765578,-0.53424 c -0.435933,-0.32972 -0.44786,-0.38973 -0.07888,-0.39687 0.239092,-0.005 0.503246,0.17018 0.587008,0.38846 0.189194,0.49303 0.133802,0.49395 -0.508131,0.008 z m 20.520784,0.12388 c 0.218282,-0.14106 0.575469,-0.25648 0.79375,-0.25648 0.352777,0 0.352777,0.0285 0,0.25648 -0.218281,0.14107 -0.575468,0.25648 -0.79375,0.25648 -0.352776,0 -0.352776,-0.0285 0,-0.25648 z M 33.12502,259.41007 c -0.291042,-0.21991 -0.529167,-0.52443 -0.529167,-0.6767 0,-0.15228 -1.012031,-1.22414 -2.248958,-2.38194 -1.359035,-1.27208 -2.039565,-2.0679 -1.719792,-2.01114 0.291042,0.0517 0.50083,0.2314 0.466196,0.39942 -0.03464,0.16803 0.08443,0.25276 0.264583,0.1883 0.180155,-0.0645 1.035521,0.47209 1.900812,1.19234 1.660655,1.38229 2.259804,1.55123 1.183862,0.33381 l -0.640453,-0.72466 0.624462,0.52727 c 0.848804,0.7167 2.248138,2.50537 2.086491,2.66702 -0.07203,0.072 -0.508133,-0.1864 -0.969113,-0.57429 -1.117902,-0.94066 -1.389037,-0.59479 -0.328356,0.41885 0.459512,0.43913 0.835474,0.85692 0.835474,0.92841 0,0.23852 -0.391287,0.11739 -0.926041,-0.28669 z m -1.836965,-2.89554 c -0.719289,-0.64451 -1.366949,-1.11269 -1.439244,-1.04039 -0.0723,0.0723 0.159026,0.3332 0.514046,0.57978 0.355023,0.24658 0.883621,0.71794 1.174663,1.04747 0.291041,0.32952 0.648229,0.59595 0.79375,0.59206 0.145521,-0.004 -0.323927,-0.5344 -1.043215,-1.17892 z m -0.277829,2.78609 c -0.09269,-0.14999 0.01352,-0.19434 0.248968,-0.10399 0.458369,0.17589 0.542234,0.36554 0.16165,0.36554 -0.136933,0 -0.321712,-0.1177 -0.410618,-0.26155 z m 17.72521,-0.5322 c 0.26339,-0.29104 0.538422,-0.52917 0.611183,-0.52917 0.07276,0 -0.08321,0.23813 -0.346599,0.52917 -0.26339,0.29104 -0.538422,0.52917 -0.611182,0.52917 -0.07276,0 0.08321,-0.23813 0.346598,-0.52917 z m -21.409999,-0.54271 c -1.34859,-0.85525 -1.447443,-1.22769 -0.245809,-0.9261 0.526997,0.13227 0.628647,0.2425 0.370668,0.40194 -0.263553,0.16288 -0.140268,0.33096 0.47682,0.65007 0.457753,0.23671 0.832279,0.48686 0.832279,0.55589 0,0.20954 -0.113697,0.15548 -1.433958,-0.6818 z m 20.659109,-0.38333 c 1.074653,-1.28563 1.317623,-1.47322 0.901801,-0.69625 -0.145521,0.27191 -0.202388,0.55658 -0.126368,0.6326 0.139391,0.13938 -1.282721,1.25427 -1.599909,1.25427 -0.09392,0 0.277096,-0.53578 0.824476,-1.19062 z m -17.571505,0.24247 c -0.472943,-0.37273 -0.859896,-0.78638 -0.859896,-0.91922 0,-0.39875 1.680062,0.74976 1.745112,1.19298 0.07508,0.51152 0.134501,0.5299 -0.885216,-0.27376 z m 1.25677,0.40337 c 0,-0.15411 0.119063,-0.20661 0.264584,-0.11668 0.145521,0.0899 0.264583,0.21603 0.264583,0.2802 0,0.0642 -0.119062,0.11668 -0.264583,0.11668 -0.145521,0 -0.264584,-0.12609 -0.264584,-0.2802 z m 3.174585,-0.34633 c -0.218054,-0.17527 -0.753647,-0.73065 -1.19021,-1.23418 -0.683675,-0.78853 -0.697536,-0.83108 -0.09996,-0.30679 0.601927,0.52811 0.715383,0.55243 0.856867,0.18374 0.08969,-0.23374 0.05887,-0.36057 -0.0685,-0.28185 -0.127366,0.0787 -0.380966,-0.0369 -0.56356,-0.2569 -0.280633,-0.33815 -0.254577,-0.37227 0.16846,-0.2206 0.275243,0.0987 0.649272,0.29458 0.831173,0.43533 0.181901,0.14075 0.334515,0.15203 0.339143,0.0251 0.0046,-0.12696 0.183223,2.7e-4 0.396875,0.28276 0.213653,0.28247 0.3845,0.69919 0.379658,0.92604 -0.0066,0.31157 -0.130273,0.26685 -0.505431,-0.18286 -0.671658,-0.80512 -0.925909,-0.75561 -0.382066,0.0744 0.499867,0.7629 0.422876,1.02633 -0.162449,0.55584 z m 11.534121,-0.29951 c 0.48404,-0.73874 0.614112,-0.81839 0.540131,-0.33073 -0.07588,0.50018 -0.432154,0.99219 -0.718468,0.99219 -0.140287,0 -0.06004,-0.29766 0.178337,-0.66146 z m 9.297821,0.36404 c 0.179478,-0.18082 0.39297,-0.26211 0.474433,-0.18065 0.08146,0.0815 -0.06538,0.22941 -0.326319,0.32876 -0.377084,0.14359 -0.407474,0.1132 -0.148114,-0.14811 z m -2.959899,-0.25158 c 0.145791,-0.23589 0.04243,-0.28618 -0.367755,-0.17891 -0.891992,0.23326 -0.674224,-0.004 0.55394,-0.6046 1.110213,-0.54253 1.116086,-0.54268 0.463021,-0.0113 -0.708528,0.57655 -0.556866,0.72506 0.281977,0.27612 0.281474,-0.15064 0.511773,-0.21323 0.511773,-0.13908 0,0.0741 -0.370293,0.32629 -0.82287,0.56033 -0.530276,0.27421 -0.750766,0.30885 -0.620086,0.0974 z m -1.996628,-0.64163 c 0.341776,-0.3638 0.68094,-0.66146 0.7537,-0.66146 0.07276,0 -0.147341,0.29766 -0.489116,0.66146 -0.341776,0.3638 -0.68094,0.66146 -0.7537,0.66146 -0.07276,0 0.147341,-0.29766 0.489116,-0.66146 z m -4.930526,-0.3033 c 0.01966,-0.3423 0.125032,-0.62245 0.234172,-0.62255 0.109141,-1.1e-4 0.198438,-0.12423 0.198438,-0.27584 0,-0.1516 0.259884,-0.53856 0.577524,-0.85989 l 0.577522,-0.58425 -0.44523,0.71829 c -0.727146,1.17311 -0.491178,1.20675 0.529299,0.0755 0.525063,-0.58209 0.791858,-0.82021 0.592876,-0.52917 -0.198983,0.29104 -0.79796,1.01768 -1.331061,1.61474 -0.869299,0.97361 -0.965589,1.02138 -0.93354,0.46321 z m -10.181357,-0.67954 c -0.31905,-0.62361 -0.612778,-1.53832 -0.652732,-2.03269 l -0.07264,-0.89887 0.510296,0.83912 c 0.280662,0.46151 0.510297,1.00025 0.510297,1.19719 0,0.19695 0.178594,0.50631 0.396875,0.68747 0.50982,0.42311 0.502324,0.17763 -0.02577,-0.84357 -0.331266,-0.64059 -0.359431,-0.956 -0.130283,-1.45892 0.160792,-0.3529 0.186147,-0.576 0.05634,-0.49578 -0.129805,0.0802 -0.368835,-0.38163 -0.531175,-1.02635 -0.400698,-1.59131 -0.354481,-2.01236 0.124039,-1.13005 0.218911,0.40363 0.31481,0.86851 0.213109,1.03307 -0.101701,0.16455 -0.0731,0.23009 0.06355,0.14563 0.136652,-0.0845 0.436983,0.37071 0.667401,1.01148 0.230417,0.64077 0.317394,1.10227 0.19328,1.02556 -0.258558,-0.1598 -0.0083,1.38362 0.332806,2.05226 0.367221,0.7199 0.264735,1.21334 -0.140996,0.67885 -0.360894,-0.47542 -0.842206,-0.65873 -0.569029,-0.21672 0.08373,0.13547 0.03579,0.31827 -0.106532,0.40622 -0.142314,0.088 -0.519792,-0.3503 -0.838843,-0.9739 z m 9.154102,0.6194 c 0.106357,-0.34542 0.213791,-0.76214 0.238747,-0.92605 0.07687,-0.50488 0.452964,-0.97488 0.671851,-0.8396 0.114355,0.0707 0.195424,-0.22477 0.180154,-0.65654 -0.02562,-0.72445 -0.424637,-1.1732 -0.424637,-0.47756 0,0.16977 -0.06831,0.24037 -0.151802,0.15688 -0.162849,-0.16285 0.598741,-1.78848 0.837885,-1.78848 0.07883,0 0.06346,0.26789 -0.03416,0.59531 -0.174598,0.58563 -0.170722,0.58671 0.23834,0.0661 0.519163,-0.66067 0.54271,-0.22533 0.03578,0.66146 -0.510235,0.89256 -0.491251,1.20035 0.04687,0.76 0.244062,-0.19972 -0.0085,0.35125 -0.561173,1.22437 -1.201717,1.89838 -1.330521,2.04465 -1.077857,1.22406 z m 2.543164,0.42959 c 0.06224,-0.0364 0.5881,-0.48287 1.168577,-0.99219 l 1.055415,-0.92604 -0.911799,0.99218 c -0.501488,0.54571 -1.027348,0.99219 -1.168574,0.99219 -0.14123,0 -0.205857,-0.0298 -0.143619,-0.0661 z m 2.885451,-0.29834 c 0,-0.0549 0.208359,-0.2633 0.463021,-0.46302 0.419645,-0.32911 0.429003,-0.31975 0.0999,0.0999 -0.345644,0.44073 -0.562917,0.58089 -0.562917,0.36312 z m 4.324855,-0.0759 c 0.097,-0.16947 0.03281,-0.35598 -0.142642,-0.41446 -0.208465,-0.0695 -0.172241,-0.16265 0.104545,-0.26887 0.446704,-0.17141 0.510952,0.40064 0.0882,0.78537 -0.124558,0.11335 -0.147106,0.0674 -0.05011,-0.10204 z M 43.576061,256.8285 c 0,-0.10653 0.180158,-0.62488 0.400349,-1.15187 0.220192,-0.52699 0.346229,-1.01229 0.280083,-1.07844 -0.06615,-0.0661 -0.29976,0.30933 -0.519139,0.83438 -0.577622,1.38244 -1.003792,1.19198 -0.518663,-0.2318 0.222343,-0.65254 0.348401,-1.33715 0.280133,-1.52135 -0.06827,-0.18421 -0.336465,0.40922 -0.59599,1.31873 -0.259524,0.9095 -0.566925,1.65364 -0.683114,1.65364 -0.116187,0 -0.137229,-0.79265 -0.04676,-1.76146 0.121629,-1.30251 0.08457,-1.71206 -0.142248,-1.57188 -0.194069,0.11994 -0.306734,-0.007 -0.306734,-0.34691 0,-0.36303 0.125606,-0.48827 0.388509,-0.38739 0.21368,0.082 0.378174,0.22709 0.365543,0.32243 -0.01262,0.0953 -5.29e-4,0.59006 0.02692,1.09938 0.04875,0.90487 0.06125,0.89277 0.546947,-0.52917 0.273381,-0.80036 0.699423,-2.19935 0.946756,-3.10885 0.269494,-0.991 0.592995,-1.65365 0.807302,-1.65365 0.196683,0 0.357605,0.12609 0.357605,0.2802 0,0.15411 -0.131818,0.19873 -0.292928,0.0992 -0.19423,-0.12004 -0.236535,-0.003 -0.125555,0.34631 0.09206,0.29005 0.02619,0.8705 -0.146376,1.28991 -0.172563,0.4194 -0.286697,0.92332 -0.253626,1.11983 0.03307,0.1965 -0.03713,0.29824 -0.156007,0.22608 -0.118872,-0.0722 -0.239694,0.42191 -0.268491,1.09793 -0.04754,1.11608 -0.02193,1.17361 0.278334,0.62551 0.18188,-0.33198 0.425119,-0.51058 0.540533,-0.39687 0.115411,0.1137 0.175181,0.0281 0.132815,-0.19014 -0.101425,-0.5226 0.266812,-1.5875 0.548945,-1.5875 0.122089,0 0.159713,0.23812 0.0836,0.52917 -0.07611,0.29104 -0.250584,0.52916 -0.387721,0.52916 -0.137136,0 -0.182395,0.10832 -0.100573,0.24071 0.229441,0.37124 -0.137385,1.10117 -0.454806,0.90499 -0.179382,-0.11086 -0.217392,-0.006 -0.104568,0.28775 0.09749,0.25405 0.177255,0.51874 0.177255,0.58818 0,0.0694 0.121991,0.0509 0.271094,-0.0413 0.149101,-0.0922 0.01881,0.28778 -0.289517,0.84429 -0.596244,1.07613 -1.039911,1.63965 -1.039911,1.32082 z m -5.860774,-0.37515 c -0.02196,-0.10914 -0.05821,-0.55562 -0.08053,-0.99218 -0.02233,-0.43657 -0.120497,-1.32953 -0.218157,-1.98438 l -0.177562,-1.19062 0.355296,1.22666 c 0.585565,2.02168 0.741278,3.13896 0.43747,3.13896 -0.152115,0 -0.294545,-0.0893 -0.316513,-0.19844 z m 0.994291,-0.22007 c -0.08833,-0.23019 -0.1606,-0.70805 -0.1606,-1.06193 0,-0.35387 -0.114829,-0.85015 -0.255177,-1.10284 -0.140351,-0.25268 -0.425609,-1.05474 -0.633913,-1.78234 -0.274402,-0.95849 -0.392292,-1.14071 -0.427955,-0.66146 -0.02707,0.3638 -0.328936,-0.41011 -0.670804,-1.71979 -0.706167,-2.70532 -0.752716,-3.04271 -0.41979,-3.04271 0.309628,0 0.967213,2.58301 0.875651,3.43958 -0.05568,0.52089 -0.01373,0.57712 0.197424,0.26459 0.235625,-0.34877 0.268619,-0.34634 0.27218,0.02 0.0021,0.2293 0.295365,0.69058 0.651415,1.02507 0.356052,0.33449 0.696608,0.80173 0.75679,1.03831 0.06019,0.23658 0.0556,0.0137 -0.01019,-0.4953 -0.06579,-0.50899 -0.210577,-0.98524 -0.32175,-1.05833 -0.315751,-0.2076 -0.601681,-2.11727 -0.317015,-2.11727 0.352433,0 1.182063,3.90806 0.944395,4.44869 -0.10786,0.24536 -0.175014,0.54197 -0.14923,0.65916 0.374494,1.70204 0.123008,3.33081 -0.331435,2.14655 z m 11.282629,-0.24255 c 0.59041,-0.71875 0.599784,-1.10217 0.01535,-0.6281 -0.252053,0.20445 -0.366062,0.22705 -0.260911,0.0517 0.280085,-0.46704 2.296523,-2.01584 2.293157,-1.76135 -0.0016,0.12137 -0.567153,0.82383 -1.256771,1.56104 -0.689618,0.7372 -1.045493,1.08671 -0.790831,0.77669 z m 1.923865,0.38736 c 0.159208,-0.2576 0.08474,-0.29635 -0.292963,-0.15246 -0.681577,0.25966 -0.223522,-0.13569 1.014902,-0.87597 1.207712,-0.72192 1.120225,-0.14597 -0.116747,0.76856 -0.45026,0.33289 -0.722596,0.44983 -0.605192,0.25987 z M 39.53117,255.30002 c -0.173967,-1.29701 0.05003,-2.92897 0.374491,-2.72844 0.12695,0.0785 0.2487,0.58211 0.270555,1.11923 0.0395,0.97062 0.04087,0.96932 0.224845,-0.21406 l 0.185106,-1.19062 0.07104,1.19062 c 0.06471,1.08443 0.08707,1.11982 0.250751,0.39688 0.173371,-0.76575 0.185534,-0.75292 0.344826,0.36376 0.09081,0.63663 0.06294,1.41054 -0.06195,1.71979 -0.124888,0.30925 -0.234614,0.40926 -0.243837,0.22224 -0.01252,-0.25369 -0.146733,-0.27048 -0.528545,-0.0661 -0.725892,0.38848 -0.726128,0.38827 -0.887285,-0.81326 z m 0.256881,-1.34371 c -0.08446,-0.21107 -0.147156,-0.14837 -0.159851,0.15985 -0.01148,0.27892 0.05104,0.43519 0.138965,0.34727 0.08792,-0.0879 0.09732,-0.31613 0.02088,-0.50712 z m 8.217768,1.7459 c 0.314944,-0.44948 0.781888,-0.98527 1.037659,-1.19062 0.347948,-0.27937 0.320857,-0.16761 -0.107591,0.44387 -0.314944,0.44949 -0.781888,0.98527 -1.037658,1.19062 -0.347949,0.27937 -0.320858,0.16761 0.10759,-0.44387 z m 8.058253,0.1883 c -0.233431,-0.14427 -0.12314,-0.30056 0.370964,-0.52569 0.867426,-0.39523 1.057423,-0.26105 0.431917,0.30503 -0.270738,0.24502 -0.611802,0.33875 -0.802881,0.22066 z m -22.392489,-0.62782 c -0.313309,-0.42006 -0.403143,-0.45901 -0.305157,-0.13229 0.07637,0.25466 0.08159,0.46302 0.01159,0.46302 -0.235405,0 -2.008256,-2.93632 -1.923917,-3.18653 0.07275,-0.21582 2.177124,2.21503 2.701298,3.12038 0.318725,0.55051 -0.0099,0.37078 -0.48381,-0.26458 z M 32.9806,254.24784 c -0.162431,-0.3035 -0.362181,-0.48498 -0.443887,-0.40327 -0.08171,0.0817 0.0021,0.33003 0.186124,0.55183 0.475673,0.57315 0.604327,0.499 0.257763,-0.14856 z m -2.196743,0.40043 c -0.414515,-0.49881 -0.615847,-0.90693 -0.447405,-0.90693 0.168441,0 0.23147,-0.12101 0.140067,-0.2689 -0.0914,-0.1479 -0.257302,-0.21259 -0.368662,-0.14377 -0.253963,0.15696 -2.560991,-2.16717 -2.355351,-2.37281 0.224442,-0.22444 4.732503,4.12422 4.56177,4.40047 -0.270275,0.43732 -0.771218,0.20555 -1.530419,-0.70806 z m 1.030004,0.17043 c -0.09543,-0.15443 -0.434779,-0.41663 -0.754097,-0.58268 -0.553521,-0.28785 -0.550733,-0.26947 0.05988,0.39441 0.609316,0.66247 1.063402,0.78561 0.694221,0.18827 z m 2.386502,0.0585 c -0.143584,-0.37709 -0.113194,-0.40748 0.148114,-0.14812 0.180821,0.17948 0.262115,0.39297 0.180652,0.47443 -0.08146,0.0815 -0.229407,-0.0654 -0.328766,-0.32631 z m 7.279921,-0.76107 c 0.0127,-0.30822 0.07539,-0.37092 0.15985,-0.15985 0.07643,0.19099 0.06703,0.4192 -0.02088,0.50712 -0.08792,0.0879 -0.150453,-0.0683 -0.138965,-0.34727 z m -7.80864,-0.082 c -0.09954,-0.16106 -0.04786,-0.29283 0.114834,-0.29283 0.162698,0 0.221028,-0.12101 0.129625,-0.2689 -0.0914,-0.1479 -0.258218,-0.21203 -0.370695,-0.14251 -0.2232,0.13794 -1.34643,-1.94891 -1.34643,-2.50154 0,-0.33608 1.233623,1.22818 1.793288,2.27392 0.308062,0.57562 0.0045,1.45791 -0.320622,0.93186 z m 14.931501,0.1818 c 0,-0.32675 2.428144,-2.98699 2.66709,-2.92203 0.133831,0.0364 0.243326,-0.15353 0.243326,-0.42201 0,-0.26849 0.238125,-0.70366 0.529167,-0.96705 0.291042,-0.26339 0.529167,-0.38715 0.529167,-0.27503 0,0.33995 -2.342854,3.75206 -2.841554,4.13842 -0.444018,0.34399 -0.444143,0.33538 -0.0027,-0.18462 0.254661,-0.29999 0.458182,-0.65513 0.452268,-0.78919 -0.0059,-0.13406 -0.363101,0.16847 -0.79375,0.6723 -0.430641,0.50382 -0.782989,0.84097 -0.782989,0.74921 z m -13.14214,-0.69959 c -0.08611,-0.3293 -0.302382,-0.54277 -0.480597,-0.47438 -0.365443,0.14023 -1.286547,-1.58259 -1.050407,-1.96467 0.229717,-0.37169 0.574456,-0.29633 0.751182,0.16421 0.09796,0.25528 0.049,0.34352 -0.129421,0.23325 -0.174599,-0.10792 -0.251122,0.008 -0.195406,0.29506 0.05037,0.25983 0.256982,0.52751 0.45914,0.59482 0.22308,0.0743 0.294941,0.005 0.182821,-0.17651 -0.101605,-0.1644 -0.119776,-0.29891 -0.04038,-0.29891 0.226719,0 0.96929,1.9162 0.805894,2.07959 -0.08044,0.0804 -0.216715,-0.12316 -0.302826,-0.45246 z m 11.576447,0.10516 c 0.39384,-0.70815 1.94406,-2.52604 2.1541,-2.52604 0.129391,0 0.02426,0.35719 -0.23362,0.79375 -0.257884,0.43656 -0.587565,0.79375 -0.732623,0.79375 -0.14506,0 -0.506341,0.27352 -0.802852,0.60781 -0.296507,0.33429 -0.469759,0.48312 -0.385005,0.33073 z m -0.458587,-1.41594 c -0.189799,-0.12081 0.07965,-0.84157 0.78413,-2.09752 0.590312,-1.0524 1.123053,-1.8637 1.183873,-1.80288 0.06082,0.0608 -0.217236,0.80282 -0.617905,1.64888 -0.400667,0.84606 -0.761141,1.69803 -0.80105,1.89327 -0.101349,0.4958 -0.215704,0.57042 -0.549048,0.35825 z m -4.574045,-0.36688 c 0.04131,-0.87991 0.724469,-3.99014 0.773462,-3.52134 0.110151,1.054 -0.0466,2.64773 -0.268415,2.72907 -0.124846,0.0458 -0.166036,0.2421 -0.09153,0.43626 0.07451,0.19416 0.0083,0.43162 -0.147156,0.52769 -0.15544,0.0961 -0.275304,0.0188 -0.266361,-0.17168 z m -9.08331,-2.52916 c -0.757055,-1.65082 -1.103132,-2.71197 -0.88447,-2.71197 0.261522,0 2.349204,3.72176 2.181664,3.8893 -0.0922,0.0922 -0.167643,0.0287 -0.167643,-0.14104 0,-0.16977 -0.115326,-0.30868 -0.25628,-0.30868 -0.140952,0 -0.187746,0.17859 -0.103984,0.39687 0.08376,0.21829 0.101917,0.39688 0.04035,0.39688 -0.06157,0 -0.425908,-0.68461 -0.809633,-1.52136 z m 11.712885,-0.923 c 0,-0.31613 0.898009,-2.75218 1.093499,-2.96637 0.312692,-0.34259 0.287337,-0.0114 -0.119163,1.55647 -0.186108,0.71782 -0.481468,1.35282 -0.656355,1.41111 -0.174889,0.0583 -0.317981,0.0577 -0.317981,-0.001 z"
         id="path2694"
         inkscape:connector-curvature="0" />
    </g>
  </g>
</svg>
