<?xml version="1.0" encoding="UTF-8" standalone="no"?>
<!-- Created with Inkscape (http://www.inkscape.org/) -->

<svg
   xmlns:dc="http://purl.org/dc/elements/1.1/"
   xmlns:cc="http://creativecommons.org/ns#"
   xmlns:rdf="http://www.w3.org/1999/02/22-rdf-syntax-ns#"
   xmlns:svg="http://www.w3.org/2000/svg"
   xmlns="http://www.w3.org/2000/svg"
   xmlns:sodipodi="http://sodipodi.sourceforge.net/DTD/sodipodi-0.dtd"
   xmlns:inkscape="http://www.inkscape.org/namespaces/inkscape"
   width="75mm"
   height="120mm"
   viewBox="0 0 75 120"
   version="1.1"
   id="svg8"
   inkscape:version="0.92.4 (5da689c313, 2019-01-14)"
   sodipodi:docname="feu31.svg">
  <defs
     id="defs2" />
  <sodipodi:namedview
     id="base"
     pagecolor="#ffffff"
     bordercolor="#666666"
     borderopacity="1.0"
     inkscape:pageopacity="0.0"
     inkscape:pageshadow="2"
     inkscape:zoom="1.979899"
     inkscape:cx="73.235981"
     inkscape:cy="214.71171"
     inkscape:document-units="mm"
     inkscape:current-layer="layer1"
     showgrid="false"
     units="mm"
     inkscape:window-width="1920"
     inkscape:window-height="1017"
     inkscape:window-x="-8"
     inkscape:window-y="-8"
     inkscape:window-maximized="1" />
  <metadata
     id="metadata5">
    <rdf:RDF>
      <cc:Work
         rdf:about="">
        <dc:format>image/svg+xml</dc:format>
        <dc:type
           rdf:resource="http://purl.org/dc/dcmitype/StillImage" />
        <dc:title />
      </cc:Work>
    </rdf:RDF>
  </metadata>
  <g
     inkscape:label="Calque 1"
     inkscape:groupmode="layer"
     id="layer1"
     transform="translate(0,-176.99999)">
    <g
       id="g3508"
       transform="translate(-2.1381562,-6.1471993)">
      <path
         style="fill:#ff9955;stroke-width:0.26458335"
         d="m 42.148156,253.60504 c -0.0024,-0.32742 -0.118817,-2.02406 -0.258916,-3.77031 -0.59703,-7.44153 -0.768874,-7.85363 -1.323962,-3.175 -0.172649,1.4552 -0.362506,2.69551 -0.4219,2.75622 -0.0594,0.0607 -0.04657,-1.36804 0.0285,-3.175 l 0.136494,-3.28539 -0.531032,1.85208 c -1.22894,4.28618 -1.418037,4.89411 -1.49759,4.81456 -0.04599,-0.046 0.148863,-1.43864 0.43301,-3.09477 0.284146,-1.65613 0.468989,-3.05878 0.410763,-3.11701 -0.09161,-0.0916 -3.32118,6.43252 -3.32118,6.7092 0,0.0566 -0.424765,0.84906 -0.943925,1.76107 -1.255562,2.20566 -0.943467,1.21585 1.258139,-3.99019 1.00607,-2.37901 1.793433,-4.42659 1.749689,-4.55019 -0.04374,-0.1236 -0.788807,0.71671 -1.655704,1.86735 -0.866897,1.15064 -1.623867,2.04438 -1.682157,1.98609 -0.05829,-0.0583 0.457843,-1.01059 1.146958,-2.11623 0.689115,-1.10564 1.201695,-2.0615 1.139066,-2.12413 -0.06263,-0.0626 -1.117008,0.8945 -2.343066,2.12696 -1.226055,1.23246 -2.332897,2.24083 -2.459651,2.24083 -0.22519,0 2.003642,-2.76775 3.104129,-3.8547 1.06295,-1.04987 1.874226,-2.04979 1.480272,-1.82447 -0.218281,0.12484 -1.230313,0.83811 -2.248958,1.58506 -1.944122,1.42556 -6.332971,4.38608 -7.011459,4.72961 -0.738488,0.37391 2.259882,-2.12626 6.825041,-5.69102 0.770594,-0.60173 1.349338,-1.14579 1.286095,-1.20903 -0.06324,-0.0633 -0.753261,0.19845 -1.533374,0.58154 -0.780111,0.38309 -1.716043,0.8035 -2.079845,0.93424 -0.576448,0.20717 -0.597985,0.19606 -0.167579,-0.0864 3.019795,-1.98206 3.628472,-2.43372 3.387833,-2.51394 -0.154276,-0.0514 -0.5174,0.0333 -0.806942,0.18825 -1.056804,0.56558 -1.192413,0.24658 -0.164354,-0.38662 1.242058,-0.76501 1.183511,-0.77486 -1.5875,-0.26715 -7.95897,1.45824 -9.209749,1.63373 -8.517146,1.19494 0.263278,-0.16679 1.769878,-0.53126 3.348,-0.80993 1.578122,-0.27867 3.6249,-0.74352 4.548397,-1.03301 0.923496,-0.28948 1.917208,-0.53542 2.208249,-0.54652 0.496284,-0.0189 0.49321,-0.0347 -0.04946,-0.25329 -0.318244,-0.12822 -1.492332,-0.23312 -2.609086,-0.23312 -1.116753,0 -2.086127,-0.0557 -2.154163,-0.1237 -0.06804,-0.068 0.689333,-0.20457 1.683044,-0.3034 0.993711,-0.0988 2.163934,-0.27717 2.600497,-0.39631 l 0.79375,-0.21659 -0.926042,-0.0268 c -1.415219,-0.0409 -2.913475,-0.33112 -2.784758,-0.53938 0.06333,-0.10248 0.894408,-0.14022 1.846831,-0.0839 0.952421,0.0564 1.731677,0.0433 1.731677,-0.0289 0,-0.0723 -2.232422,-0.85157 -4.960938,-1.73178 -4.820589,-1.55511 -6.247908,-2.12259 -5.357812,-2.13018 0.218281,-0.002 1.527969,0.30365 2.910417,0.67891 5.429183,1.47372 6.418201,1.71762 6.526392,1.60943 0.06175,-0.0618 -0.56002,-0.4917 -1.381718,-0.95544 -0.821695,-0.46374 -1.433226,-0.90392 -1.358955,-0.9782 0.07427,-0.0743 0.990071,0.24025 2.035114,0.69892 1.045043,0.45867 1.944068,0.78996 1.997834,0.73619 0.05377,-0.0538 -0.858017,-0.78901 -2.026182,-1.63389 -1.168167,-0.84487 -2.067218,-1.59285 -1.997892,-1.66217 0.06933,-0.0693 1.059606,0.37464 2.200621,0.98659 l 2.074577,1.11263 -3.439583,-3.35782 c -1.891771,-1.84681 -3.26099,-3.26882 -3.042708,-3.16002 0.218281,0.1088 1.527968,1.10412 2.910416,2.21182 2.93324,2.35028 4.233334,3.28425 4.233334,3.04115 0,-0.0957 -0.595313,-0.84198 -1.322917,-1.65833 -1.892999,-2.1239 -1.633887,-2.33303 0.396875,-0.32032 0.945885,0.93748 1.719792,1.61055 1.719792,1.49571 0,-0.11484 -0.714375,-1.29317 -1.5875,-2.61851 -1.528866,-2.32072 -1.958801,-3.22171 -1.256771,-2.63376 0.181901,0.15235 1.045104,1.29357 1.918229,2.53606 2.397247,3.41136 2.528803,3.16308 0.771406,-1.45583 -1.306759,-3.4345 -1.400416,-4.55577 -0.14981,-1.79352 2.45137,5.41443 2.822247,5.79554 1.646275,1.69173 -0.39705,-1.3856 -0.432949,-1.72273 -0.142526,-1.3385 0.213508,0.28248 0.388197,0.65416 0.388197,0.82597 0,0.1718 0.290798,0.95272 0.646215,1.73537 0.80695,1.77693 0.8641,1.0475 0.135792,-1.7331 -0.706408,-2.697 -0.499356,-3.24915 0.255135,-0.68037 1.262399,4.29802 1.217917,4.23212 1.587262,2.35164 l 0.228034,-1.16101 0.04988,1.71979 c 0.02743,0.94588 0.08973,1.60073 0.13844,1.45521 0.299151,-0.89372 0.972765,-3.45919 1.354693,-5.15938 0.415962,-1.85169 1.082009,-3.67742 0.772182,-2.11667 -0.258202,1.3007 -0.933982,6.29495 -0.917525,6.78084 0.01349,0.39866 0.0661,0.37189 0.269803,-0.13727 0.139169,-0.34786 0.418807,-1.00271 0.621419,-1.45521 0.20261,-0.4525 0.566688,-1.47757 0.809059,-2.27794 0.667303,-2.20357 0.666784,-2.20227 0.817139,-2.05192 0.147865,0.14787 -0.776195,4.21486 -1.22715,5.40096 -0.144931,0.38121 -0.203378,0.75324 -0.129879,0.82673 0.0735,0.0735 0.625737,-0.92527 1.227196,-2.2195 1.883836,-4.05367 3.146245,-6.59595 3.149121,-6.34179 0.0048,0.42655 -1.358051,4.24228 -1.608918,4.50458 -0.132218,0.13825 -0.24156,0.4359 -0.24298,0.66146 -0.0013,0.22556 -0.302557,1.05451 -0.669187,1.84212 -0.816563,1.75417 -0.721387,2.3509 0.148317,0.92993 0.349769,-0.57146 0.797428,-1.20456 0.994799,-1.40688 0.197371,-0.20232 0.545375,-0.65252 0.773345,-1.00045 0.718609,-1.09673 0.663475,-0.47151 -0.07704,0.87362 -0.390115,0.70864 -0.793945,1.40749 -0.897403,1.55302 -0.103457,0.14552 -0.264755,0.47912 -0.358439,0.74134 -0.229132,0.64134 0.280041,0.31636 1.143342,-0.72973 1.217527,-1.47532 2.38443,-2.6098 2.38443,-2.31819 0,0.15848 -0.707141,1.27538 -1.571427,2.48201 -1.636757,2.28507 -1.844275,2.89172 -0.608626,1.77922 1.039027,-0.93547 3.79757,-3.01105 4.480335,-3.37109 0.319267,-0.16836 0.970881,-0.66268 1.448028,-1.09848 0.477144,-0.43581 1.049361,-0.78889 1.271592,-0.78462 0.441532,0.008 0.0064,0.4261 -3.162464,3.03495 -3.254488,2.67938 -4.278214,3.57188 -4.097067,3.57188 0.09559,0 1.174395,-0.54543 2.397339,-1.21205 1.222947,-0.66663 2.218232,-1.11312 2.211745,-0.99219 -0.0065,0.12092 -0.901174,0.80354 -1.988191,1.51692 -1.087016,0.71338 -1.94397,1.32947 -1.904343,1.3691 0.03963,0.0396 1.077026,-0.27235 2.305325,-0.69329 1.228301,-0.42093 2.289,-0.70961 2.357112,-0.6415 0.18152,0.18152 0.109476,0.22563 -2.345608,1.43616 -1.645883,0.81153 -2.000634,1.06586 -1.322917,0.94846 5.280459,-0.91477 8.036838,-1.21302 7.650869,-0.82785 -0.06063,0.0605 -2.015244,0.54911 -4.343577,1.08578 -4.322286,0.99627 -5.709145,1.53382 -3.645226,1.41289 0.6145,-0.036 1.199891,0.0172 1.300867,0.11814 0.100978,0.10098 -0.451406,0.18359 -1.227516,0.18359 -0.77611,0 -1.346788,0.0643 -1.268167,0.14295 0.07862,0.0786 1.437916,0.36196 3.020661,0.62965 l 2.877714,0.48671 -2.910417,0.0399 c -1.708517,0.0234 -2.74652,0.13061 -2.513541,0.25962 0.218281,0.12088 2.004219,0.61299 3.96875,1.09358 1.964531,0.48059 4.048125,1.08403 4.630208,1.34099 1.050917,0.46392 1.052772,0.4673 0.264583,0.48279 -0.880901,0.0173 -6.909813,-1.14317 -8.285956,-1.59493 -1.515419,-0.49749 -1.23082,-0.0407 0.520121,0.83481 0.924229,0.46213 2.059429,1.12477 2.522662,1.47253 0.463232,0.34776 0.969248,0.63229 1.124479,0.63229 0.155231,0 0.282236,0.11906 0.282236,0.26458 0,0.14552 -0.03985,0.26458 -0.08856,0.26458 -0.229581,0 -4.001701,-1.92215 -4.962937,-2.52895 -1.532046,-0.96714 -1.565151,-0.63006 -0.05624,0.57259 0.699201,0.55728 1.809552,1.49333 2.467449,2.08011 0.657897,0.58678 1.878002,1.65256 2.711341,2.36839 0.833337,0.71583 1.454134,1.36253 1.379546,1.43712 -0.07459,0.0746 -0.520785,-0.22172 -0.991547,-0.65847 -1.002507,-0.93006 -6.970636,-5.38745 -7.213421,-5.38745 -0.09115,0 0.403524,0.68461 1.099265,1.52135 l 1.264986,1.52136 -1.107379,-1.04114 c -0.609058,-0.57263 -1.163492,-0.98503 -1.232075,-0.91645 -0.113366,0.11336 2.278904,3.6591 3.552153,5.26488 0.288465,0.3638 0.526079,0.76183 0.528032,0.8845 0.0035,0.21855 -2.431066,-2.57022 -4.195535,-4.80599 -0.490487,-0.6215 -0.94401,-1.07778 -1.007832,-1.01396 -0.06382,0.0638 0.783971,1.83536 1.883981,3.93674 1.100008,2.10139 2.000017,3.98616 2.000017,4.18837 0,0.46303 -0.43534,-0.15981 -1.582176,-2.26362 -1.798564,-3.29937 -2.772286,-4.76848 -2.860776,-4.31622 -0.04802,0.24545 0.09856,0.99375 0.325734,1.66289 0.633068,1.86466 0.465659,1.78008 -0.508841,-0.25709 -1.079963,-2.25763 -1.138185,-1.83149 -0.252114,1.84535 0.372943,1.54756 0.638,3.01561 0.589021,3.26233 -0.08886,0.44758 -0.354047,-0.34383 -1.622817,-4.84309 l -0.671502,-2.38125 0.157321,5.75468 c 0.08652,3.16508 0.07952,5.75469 -0.01556,5.75469 -0.09508,0 -0.17476,-0.26789 -0.177064,-0.59531 z m 7.312916,-1.66388 c -0.255318,-0.66534 -0.179999,-0.83702 0.131903,-0.30065 0.154434,0.26557 0.225054,0.5386 0.156932,0.60672 -0.06812,0.0681 -0.198099,-0.0696 -0.288835,-0.30607 z m -4.24901,-4.54242 c -0.143584,-0.37708 -0.113194,-0.40747 0.148114,-0.14811 0.180822,0.17948 0.262115,0.39297 0.180652,0.47443 -0.08146,0.0815 -0.229407,-0.0654 -0.328766,-0.32632 z m -13.907635,-6.42756 c 0.218281,-0.14106 0.515938,-0.25647 0.661459,-0.25647 0.14552,0 0.08599,0.11541 -0.132292,0.25647 -0.218281,0.14107 -0.515938,0.25648 -0.661458,0.25648 -0.145521,0 -0.08599,-0.11541 0.132291,-0.25648 z m 8.995834,-17.72708 c 0,-1.74625 0.0893,-3.17483 0.198437,-3.17463 0.109141,2e-4 0.211823,1.42895 0.228182,3.175 0.01636,1.74605 -0.07294,3.17463 -0.198438,3.17463 -0.125499,0 -0.228181,-1.42875 -0.228181,-3.175 z"
         id="path3516"
         inkscape:connector-curvature="0" />
      <path
         style="fill:#ffff00;stroke-width:0.26458335"
         d="m 42.099366,252.54671 c -0.07123,-0.90951 -0.05026,-2.48709 0.04659,-3.50573 0.146386,-1.53966 0.178965,-1.26071 0.193125,1.65364 0.0094,1.92815 -0.01159,3.50573 -0.04659,3.50573 -0.03499,0 -0.121901,-0.74414 -0.193125,-1.65364 z m -8.149105,0.61092 c 0,-0.13693 0.117699,-0.32171 0.261553,-0.41061 0.149982,-0.0927 0.194337,0.0135 0.103984,0.24896 -0.175892,0.45837 -0.365537,0.54224 -0.365537,0.16165 z m 15.510811,-1.21647 c -0.255318,-0.66534 -0.179999,-0.83702 0.131903,-0.30065 0.154434,0.26557 0.225054,0.5386 0.156932,0.60672 -0.06812,0.0681 -0.198099,-0.0696 -0.288835,-0.30607 z m -9.406797,-3.31911 c 0.01021,-0.49719 0.126976,-1.14212 0.259445,-1.43316 0.162131,-0.35621 0.188209,-0.0968 0.07979,0.79375 -0.191775,1.57526 -0.365215,1.90216 -0.339238,0.63941 z m 4.082444,0.55122 c 0.08994,-0.14552 0.216027,-0.26459 0.280199,-0.26459 0.06417,0 0.116676,0.11907 0.116676,0.26459 0,0.14552 -0.12609,0.26458 -0.280199,0.26458 -0.154109,0 -0.206613,-0.11906 -0.116676,-0.26458 z m -0.392824,-0.71199 c 0.0022,-0.11773 0.119467,-0.39265 0.260532,-0.61093 0.221033,-0.34202 0.25704,-0.33504 0.260533,0.0505 0.0021,0.24607 -0.115012,0.52099 -0.260533,0.61093 -0.145521,0.0899 -0.26276,0.0672 -0.260532,-0.0505 z m 3.595079,-0.30225 c -0.07495,-0.12127 0.03185,-0.22049 0.237328,-0.22049 0.205478,0 0.312277,0.0992 0.237329,0.22049 -0.07495,0.12127 -0.181745,0.22049 -0.237329,0.22049 -0.05558,0 -0.162383,-0.0992 -0.237328,-0.22049 z M 27.44283,247.62427 c 0.559947,-0.63065 0.686597,-0.68827 0.686597,-0.31239 0,0.1404 -0.26789,0.39584 -0.595312,0.56766 -0.592121,0.31072 -0.592611,0.30935 -0.09128,-0.25527 z m 11.181737,0.31427 c -0.09701,-0.097 -0.17639,-0.29941 -0.17639,-0.44979 0,-0.16578 0.123235,-0.15016 0.31309,0.0397 0.172201,0.1722 0.251576,0.37461 0.176389,0.44979 -0.07519,0.0752 -0.216077,0.0573 -0.313089,-0.0397 z m 3.040385,-0.35277 c 0,-0.3638 0.06005,-0.51263 0.133453,-0.33073 0.0734,0.1819 0.0734,0.47956 0,0.66146 -0.0734,0.1819 -0.133453,0.0331 -0.133453,-0.33073 z m 3.54711,-0.18703 c -0.143584,-0.37708 -0.113194,-0.40747 0.148114,-0.14811 0.180822,0.17948 0.262115,0.39297 0.180652,0.47443 -0.08146,0.0815 -0.229407,-0.0654 -0.328766,-0.32632 z m -13.378468,-0.16009 c 0,-0.0454 0.386953,-0.3619 0.859896,-0.70336 l 0.859896,-0.62082 -0.641432,0.70336 c -0.5479,0.60079 -1.07836,0.90618 -1.07836,0.62082 z m 2.645833,-0.18205 c 0,-0.14552 0.12609,-0.26458 0.280199,-0.26458 0.154109,0 0.206613,0.11906 0.116676,0.26458 -0.08994,0.14552 -0.216027,0.26458 -0.280199,0.26458 -0.06417,0 -0.116676,-0.11906 -0.116676,-0.26458 z m 14.42126,-0.52754 c -0.264197,-0.29194 -0.393869,-0.53079 -0.28816,-0.53079 0.278924,0 1.033137,0.79696 0.889831,0.94026 -0.06672,0.0667 -0.337474,-0.11754 -0.601671,-0.40947 z m -13.96265,-0.29904 c 0.179478,-0.18082 0.39297,-0.26212 0.474433,-0.18065 0.08146,0.0815 -0.06538,0.2294 -0.326319,0.32876 -0.377084,0.14359 -0.407474,0.1132 -0.148114,-0.14811 z m 9.744859,-0.15419 c -0.143585,-0.37709 -0.113194,-0.40748 0.148113,-0.14812 0.180822,0.17948 0.262115,0.39297 0.180653,0.47443 -0.08146,0.0815 -0.229407,-0.0654 -0.328766,-0.32631 z m 8.736491,-0.24728 c -0.139348,-0.36313 -0.100632,-0.3795 0.236275,-0.0999 0.459116,0.38103 0.5069,0.53419 0.166656,0.53419 -0.129953,0 -0.311271,-0.19543 -0.402931,-0.4343 z M 30.91214,245.49028 c 0.164193,-0.28756 0.09572,-0.33396 -0.291915,-0.19779 -0.477688,0.16782 -0.476571,0.15484 0.01968,-0.22877 0.59911,-0.46311 0.94887,-0.0205 0.39088,0.49468 -0.258784,0.23891 -0.285274,0.2237 -0.118655,-0.0681 z m 2.360076,0.0395 c 0.09031,-0.0903 0.350252,-0.1915 0.577656,-0.22487 0.227402,-0.0334 0.339572,0.0132 0.249267,0.10351 -0.09031,0.0903 -0.350253,0.1915 -0.577657,0.22488 -0.227401,0.0334 -0.339571,-0.0132 -0.249266,-0.10352 z m 2.618321,-0.41346 c 0,-0.19403 0.156861,-0.35278 0.348578,-0.35278 0.260483,0 0.274585,0.0892 0.0558,0.35278 -0.161028,0.19403 -0.317889,0.35278 -0.348578,0.35278 -0.03069,0 -0.0558,-0.15875 -0.0558,-0.35278 z m 4.578626,-0.0441 c -0.08376,-0.21829 -0.03697,-0.39688 0.103983,-0.39688 0.140955,0 0.256281,0.17859 0.256281,0.39688 0,0.21828 -0.04679,0.39687 -0.103984,0.39687 -0.05719,0 -0.172516,-0.17859 -0.25628,-0.39687 z m 3.799848,0.13229 c 0,-0.14552 0.119062,-0.26459 0.264583,-0.26459 0.145521,0 0.264583,0.11907 0.264583,0.26459 0,0.14552 -0.119062,0.26458 -0.264583,0.26458 -0.145521,0 -0.264583,-0.11906 -0.264583,-0.26458 z m -8.482169,-1.64781 c 1.414185,-1.48726 1.836716,-1.72412 1.497169,-0.83928 -0.09416,0.24539 -0.25046,0.3669 -0.347327,0.27004 -0.09687,-0.0969 -0.719143,0.33226 -1.382834,0.95361 -0.953897,0.89305 -0.905084,0.81252 0.232992,-0.38437 z m 5.592641,0.9643 c 0.0127,-0.30822 0.07539,-0.37092 0.15985,-0.15985 0.07643,0.19099 0.06703,0.4192 -0.02087,0.50712 -0.08792,0.0879 -0.150453,-0.0684 -0.138965,-0.34727 z m 5.729597,-0.0882 c -0.281279,-0.36087 -0.268155,-0.37341 0.09469,-0.0905 0.23167,0.18063 0.487638,0.26201 0.568818,0.18083 0.08118,-0.0812 0.213817,-0.0405 0.294748,0.0905 0.259466,0.41983 -0.619339,0.25398 -0.958257,-0.18083 z m -15.540069,-0.12195 c 0,-0.0549 0.208359,-0.2633 0.46302,-0.46302 0.419645,-0.32911 0.429004,-0.31975 0.0999,0.0999 -0.345643,0.44073 -0.562916,0.58088 -0.562916,0.36312 z m 19.460842,-0.14209 c -0.08519,-0.13784 -0.04211,-0.32032 0.09573,-0.4055 0.13784,-0.0852 0.320318,-0.0421 0.405506,0.0957 0.08519,0.13784 0.04211,0.32032 -0.09573,0.40551 -0.13784,0.0852 -0.320318,0.0421 -0.405506,-0.0957 z M 34.876302,243.617 c 0.26339,-0.29104 0.538422,-0.52917 0.611182,-0.52917 0.07276,0 -0.08321,0.23813 -0.346598,0.52917 -0.263391,0.29104 -0.538422,0.52916 -0.611183,0.52916 -0.07276,0 0.08321,-0.23812 0.346599,-0.52916 z m 1.984375,0.42927 c 0,-0.0549 0.20836,-0.2633 0.463021,-0.46302 0.419645,-0.32911 0.429003,-0.31975 0.0999,0.0999 -0.345644,0.44073 -0.562917,0.58089 -0.562917,0.36313 z m 3.392469,-0.56156 c -0.17054,-0.79282 -0.08808,-1.14944 0.199313,-0.86204 0.08371,0.0837 0.111528,0.49051 0.06182,0.90399 l -0.09039,0.7518 z m 3.575347,-0.48862 c -0.03835,-0.96289 -0.0016,-1.03826 0.302741,-0.62196 0.190513,0.26054 0.285078,0.70816 0.210145,0.9947 -0.240427,0.9194 -0.468005,0.754 -0.512886,-0.37274 z m -4.699223,0.44437 c -0.0931,-0.24261 -0.04631,-0.56408 0.103984,-0.71437 0.187952,-0.18795 0.273257,-0.0503 0.273257,0.44112 0,0.8162 -0.13216,0.91193 -0.377241,0.27325 z m 1.708261,0.17654 c 0,-0.21828 0.115414,-0.57547 0.25648,-0.79375 0.227983,-0.35278 0.256479,-0.35278 0.256479,0 0,0.21828 -0.115414,0.57547 -0.256479,0.79375 -0.227984,0.35277 -0.25648,0.35277 -0.25648,0 z m -2.897632,-0.41893 c 0.0127,-0.30822 0.07539,-0.37091 0.159851,-0.15985 0.07643,0.191 0.06703,0.4192 -0.02088,0.50712 -0.08792,0.0879 -0.150452,-0.0683 -0.138964,-0.34727 z m -3.725055,0.0545 c 0,-0.0549 0.208359,-0.2633 0.463021,-0.46302 0.419645,-0.32911 0.429003,-0.31975 0.0999,0.0999 -0.345644,0.44073 -0.562917,0.58089 -0.562917,0.36313 z m 8.73125,-0.41366 c 0,-0.63885 0.147137,-0.7033 0.357013,-0.15638 0.08197,0.21362 0.03518,0.45878 -0.103984,0.54478 -0.139166,0.086 -0.253029,-0.0888 -0.253029,-0.3884 z m -11.641667,-0.12929 c 0,-0.0728 0.238125,-0.25973 0.529167,-0.41549 0.291042,-0.15576 0.529167,-0.22367 0.529167,-0.15091 0,0.0728 -0.238125,0.25973 -0.529167,0.41549 -0.291042,0.15576 -0.529167,0.22368 -0.529167,0.15091 z m 4.497917,0.0138 c 0,-0.0549 0.208359,-0.2633 0.463021,-0.46302 0.419645,-0.32911 0.429003,-0.31975 0.0999,0.0999 -0.345644,0.44073 -0.562917,0.58088 -0.562917,0.36312 z m 11.343333,-0.36313 c -0.329107,-0.41965 -0.319749,-0.42901 0.0999,-0.0999 0.254661,0.19972 0.463021,0.40808 0.463021,0.46302 0,0.21776 -0.217273,0.0776 -0.562917,-0.36312 z m -11.8725,0.0985 c 0,-0.0549 0.20836,-0.2633 0.463021,-0.46302 0.419645,-0.32911 0.429003,-0.31975 0.0999,0.0999 -0.345644,0.44073 -0.562917,0.58089 -0.562917,0.36313 z m 13.865487,-0.49542 -0.504028,-0.59531 0.595312,0.50403 c 0.559446,0.47366 0.715761,0.68659 0.504029,0.68659 -0.05021,0 -0.318098,-0.26789 -0.595313,-0.59531 z m 2.009513,-0.0655 c -1.004149,-0.50987 -1.080643,-0.5987 -0.48841,-0.56718 0.386217,0.0206 0.655447,0.11314 0.598289,0.20574 -0.103283,0.16731 0.8998,0.57642 1.279184,0.52171 0.10914,-0.0157 0.198437,0.0905 0.198437,0.23597 0,0.35804 -0.200599,0.30797 -1.5875,-0.39624 z m -6.593694,-0.28727 c 0.0127,-0.30822 0.07539,-0.37091 0.15985,-0.15985 0.07643,0.191 0.06703,0.4192 -0.02088,0.50712 -0.08792,0.0879 -0.150453,-0.0684 -0.138965,-0.34727 z m 1.046752,-0.0928 c -0.367368,-0.68643 -0.346744,-0.98983 0.04093,-0.60215 0.2998,0.2998 0.542838,1.11393 0.332534,1.11393 -0.05476,0 -0.222824,-0.2303 -0.373464,-0.51178 z m -10.3965,-0.0571 c 0.180639,-0.22322 0.2648,-0.46949 0.187028,-0.54727 -0.07777,-0.0778 0.04508,-0.21297 0.273,-0.30043 0.337878,-0.12965 0.364154,-0.0651 0.14228,0.34945 -0.14967,0.27966 -0.420317,0.5975 -0.601435,0.70629 -0.26239,0.15763 -0.262567,0.11535 -7.94e-4,-0.20804 z m 11.180942,0.0241 c 0,-0.15411 0.119063,-0.20662 0.264584,-0.11668 0.14552,0.0899 0.264583,0.21603 0.264583,0.2802 0,0.0642 -0.119063,0.11667 -0.264583,0.11667 -0.145521,0 -0.264584,-0.12609 -0.264584,-0.28019 z m -12.565835,-0.246 c -0.09269,-0.14998 0.01352,-0.19434 0.248968,-0.10399 0.458369,0.1759 0.542234,0.36554 0.16165,0.36554 -0.136933,0 -0.321713,-0.1177 -0.410618,-0.26155 z m -9.524206,-0.53651 c 0.0914,-0.1479 0.277025,-0.20041 0.41249,-0.11668 0.366989,0.22681 0.298559,0.38557 -0.166189,0.38557 -0.226869,0 -0.337705,-0.121 -0.246301,-0.26889 z m 0.791083,-0.26027 c -0.2088,-0.33785 0.667846,-0.33785 1.190625,0 0.310418,0.2006 0.241772,0.25736 -0.315114,0.26053 -0.391594,0.002 -0.785574,-0.11501 -0.875511,-0.26053 z m 30.630556,0.0812 c 0.257431,-0.0671 0.614619,-0.0627 0.79375,0.01 0.179131,0.0725 -0.03149,0.12737 -0.468056,0.12197 -0.436563,-0.005 -0.583126,-0.0647 -0.325694,-0.13177 z M 26.541927,240.1774 c -0.339168,-0.21918 -0.329551,-0.25706 0.06615,-0.26053 0.254662,-0.002 0.463021,0.11501 0.463021,0.26053 0,0.32269 -0.02984,0.32269 -0.529167,0 z m 1.008724,0.0839 c 0.190996,-0.0764 0.419199,-0.067 0.507118,0.0209 0.08792,0.0879 -0.06835,0.15046 -0.347265,0.13897 -0.308225,-0.0127 -0.37092,-0.0754 -0.159853,-0.15985 z m 6.531901,-0.50723 1.058334,-0.67146 -1.190625,0.20795 c -0.654844,0.11437 -1.642708,0.18443 -2.195251,0.15569 -0.600898,-0.0313 -0.940189,0.052 -0.844283,0.20718 0.08819,0.14269 -0.07778,0.25944 -0.368821,0.25944 -0.291042,0 -0.589196,-0.0971 -0.662566,-0.21585 -0.132375,-0.21418 3.365134,-1.35458 4.263781,-1.39025 0.407106,-0.0162 0.399158,-0.0484 -0.06057,-0.24598 -0.291041,-0.12507 -1.531276,-0.23576 -2.756077,-0.24599 -1.224799,-0.0102 -2.171845,-0.0737 -2.104544,-0.14096 0.0673,-0.0673 1.069409,-0.19988 2.226908,-0.29462 2.864904,-0.23449 3.230809,-0.52717 0.941113,-0.75279 -2.366328,-0.23318 -2.261636,-0.63018 0.128884,-0.48875 1.512892,0.0895 1.714142,0.0514 1.397799,-0.26498 -0.203253,-0.20325 -0.546725,-0.37153 -0.763273,-0.37394 -0.494467,-0.006 -7.78954,-2.34963 -8.860393,-2.84709 -1.25244,-0.58182 -0.220214,-0.47016 2.513542,0.27191 5.45633,1.48109 6.418519,1.7173 6.532213,1.60361 0.06495,-0.065 -0.485257,-0.44648 -1.222685,-0.84784 -1.959505,-1.0665 -1.637112,-1.27734 0.537909,-0.35178 1.03328,0.4397 1.925661,0.75248 1.983073,0.69507 0.05741,-0.0574 -0.855448,-0.79159 -2.028576,-1.6315 -1.173128,-0.83991 -2.076858,-1.58321 -2.008286,-1.65178 0.06857,-0.0686 0.98012,0.36007 2.025661,0.95254 1.045543,0.59247 1.979623,1.07665 2.075733,1.07596 0.09611,-6.9e-4 -1.373063,-1.4963 -3.264834,-3.32357 -1.891771,-1.82726 -3.26099,-3.23109 -3.042708,-3.1196 0.218281,0.11149 1.868659,1.37554 3.667508,2.80901 1.798849,1.43347 3.334306,2.54263 3.412125,2.46482 0.07782,-0.0778 -0.338788,-0.66253 -0.92579,-1.29935 -1.830364,-1.98571 -1.805583,-2.51196 0.03356,-0.71269 1.796523,1.75756 2.273053,1.87198 1.072382,0.25748 -1.073396,-1.44336 -2.566749,-3.97274 -2.427644,-4.11184 0.100015,-0.10002 1.44195,1.6211 3.819141,4.89829 0.04398,0.0606 0.160496,0.0297 0.258918,-0.0687 0.09842,-0.0984 -0.386916,-1.67684 -1.078534,-3.50758 -1.36499,-3.61319 -1.461182,-4.7387 -0.15363,-1.79756 2.279139,5.12658 2.865305,5.90488 1.830641,2.43067 -0.300016,-1.0074 -0.49477,-1.97274 -0.432784,-2.14519 0.06198,-0.17245 0.24538,0.16598 0.407543,0.75207 0.162163,0.58609 0.530765,1.53859 0.819118,2.11667 0.70157,1.40648 0.707867,0.58046 0.01619,-2.12395 -0.941639,-3.68178 -0.385146,-2.8644 0.789236,1.15923 0.602832,2.06539 0.956466,2.19907 1.13298,0.42827 0.07886,-0.79112 0.122,-0.62411 0.17086,0.66146 0.03595,0.94588 0.10522,1.60073 0.15393,1.45521 0.280244,-0.83724 0.970092,-3.43997 1.363913,-5.14593 0.618991,-2.68133 0.739987,-1.98195 0.239845,1.38634 -0.476496,3.20904 -0.511797,4.09492 -0.124605,3.12711 0.139168,-0.34786 0.420862,-1.00271 0.625985,-1.45521 0.205127,-0.4525 0.58216,-1.53711 0.837859,-2.41023 0.436356,-1.49002 0.895416,-2.42965 0.895416,-1.83279 0,0.14158 -0.293611,1.38579 -0.65247,2.7649 -0.35886,1.37911 -0.720432,2.80513 -0.803492,3.16893 -0.144516,0.63295 0.734607,-1.05883 3.222379,-6.20115 0.6292,-1.30059 1.144,-2.26204 1.144,-2.13656 0,0.42228 -1.368867,4.23413 -1.611688,4.48802 -0.132218,0.13825 -0.24156,0.4359 -0.24298,0.66146 -0.0013,0.22556 -0.302557,1.05451 -0.669187,1.84212 -0.366633,0.78761 -0.632032,1.53574 -0.589775,1.66251 0.04226,0.12677 0.71919,-0.6677 1.504296,-1.76548 0.785106,-1.09779 1.474222,-1.94923 1.531366,-1.89208 0.10287,0.10287 -0.535559,1.33596 -1.565843,3.02435 -0.757029,1.24059 -0.415132,1.32723 0.627255,0.15897 3.028635,-3.39438 3.436395,-3.41949 1.032629,-0.0636 -0.864285,1.20663 -1.530974,2.23432 -1.481531,2.28376 0.04944,0.0494 0.825034,-0.48365 1.72354,-1.18465 0.898507,-0.701 2.190274,-1.66392 2.870595,-2.13982 0.680323,-0.4759 1.653667,-1.21881 2.162989,-1.65091 1.186636,-1.00672 2.039181,-1.05902 0.908617,-0.0557 -0.446149,0.39592 -2.193558,1.84979 -3.883134,3.23082 -1.689576,1.38103 -3.029995,2.55292 -2.978708,2.60421 0.05129,0.0513 1.114086,-0.46321 2.361779,-1.14333 1.247691,-0.68012 2.263222,-1.13764 2.256735,-1.01671 -0.0065,0.12092 -0.901174,0.80354 -1.988191,1.51692 -1.087016,0.71338 -1.94397,1.32947 -1.904343,1.3691 0.03963,0.0396 1.083143,-0.27535 2.318919,-0.69995 2.572909,-0.88402 2.37916,-0.83792 2.37916,-0.56612 0,0.2198 -1.009457,0.74731 -3.439584,1.79741 l -1.455208,0.62882 1.387166,-0.0611 c 0.762939,-0.0336 1.388017,-0.13651 1.389062,-0.22869 0.0011,-0.0922 0.782288,-0.25119 1.736101,-0.35334 0.953812,-0.10214 2.091719,-0.28825 2.528681,-0.41357 0.436964,-0.12532 1.03378,-0.13933 1.326258,-0.0311 0.376701,0.13936 -0.418571,0.41194 -2.727121,0.93473 -5.763488,1.30521 -6.35548,1.53281 -4.581813,1.76156 l 1.322916,0.17061 -1.43316,0.0416 c -0.788237,0.0229 -1.368836,0.10589 -1.290215,0.18451 0.07862,0.0786 1.437916,0.36897 3.020661,0.64522 2.369458,0.41357 2.620698,0.49773 1.422506,0.47655 -3.412797,-0.0603 -4.497917,0.0474 -4.497917,0.44677 0,0.2367 -0.155122,0.32905 -0.396875,0.23628 -0.251312,-0.0964 -0.396875,0.004 -0.396875,0.27288 0,0.23386 -0.168672,0.42519 -0.374827,0.42519 -0.206153,0 -0.422429,0.14281 -0.48061,0.31735 -0.06502,0.19506 -0.174303,0.13879 -0.283602,-0.14603 -0.10114,-0.26357 -0.07076,-0.39722 0.07046,-0.30995 0.136554,0.0844 0.392809,-0.11778 0.569455,-0.44927 0.293476,-0.55075 0.282535,-0.57085 -0.126852,-0.2331 -0.350091,0.28883 -0.590907,0.30453 -1.101651,0.0718 -0.399701,-0.18212 -0.653624,-0.19723 -0.653624,-0.0389 0,0.1424 -0.297656,0.25891 -0.661458,0.25891 -0.411575,0 -0.661458,0.14993 -0.661458,0.39688 0,0.21828 -0.20836,0.38747 -0.463021,0.37598 -0.276606,-0.0125 -0.329867,-0.0746 -0.132292,-0.15434 0.65695,-0.26508 0.335074,-0.80731 -0.462418,-0.77898 -0.436231,0.0155 -0.793419,0.11747 -0.79375,0.22661 -2.64e-4,0.10914 -0.0899,0.18433 -0.19904,0.1671 -0.546241,-0.0863 -0.871916,0.0624 -0.710147,0.32416 0.112633,0.18225 0.24343,0.19589 0.346345,0.0361 0.09095,-0.14119 0.403489,-0.16842 0.694531,-0.0605 0.490469,0.18187 0.474522,0.22168 -0.218041,0.54445 -0.587838,0.27396 -0.855892,0.28036 -1.25677,0.03 -0.28026,-0.17502 -0.510281,-0.22792 -0.511157,-0.11754 -7.94e-4,0.11037 -0.67287,0.211 -1.493316,0.22362 -1.06611,0.0164 -1.583537,0.14851 -1.813513,0.46302 -0.332287,0.45443 -0.807847,0.62824 -0.542004,0.19809 0.245801,-0.39771 -0.481938,-0.49053 -0.862465,-0.11 -0.193595,0.19359 -0.551844,0.34827 -0.796112,0.34373 -0.26193,-0.005 -0.01,-0.28371 0.614211,-0.67971 z m 1.5875,-0.37037 c 0.08994,-0.14552 0.03743,-0.26458 -0.116676,-0.26458 -0.154109,0 -0.280199,0.11906 -0.280199,0.26458 0,0.14553 0.0525,0.26459 0.116676,0.26459 0.06417,0 0.190262,-0.11906 0.280199,-0.26459 z m 0.396875,-1.11463 c 0,-0.11456 0.185621,-0.20828 0.412491,-0.20828 0.22687,0 0.338706,-0.11939 0.248526,-0.2653 -0.09933,-0.16072 -0.340165,-0.17426 -0.610929,-0.0344 -0.245829,0.12702 -0.655322,0.19741 -0.909984,0.15642 -0.456932,-0.0735 -0.612531,0.17012 -0.305011,0.47763 0.224962,0.22497 1.164907,0.1232 1.164907,-0.12611 z m 5.203473,-1.11962 c 0,-0.2102 -0.06945,-0.3747 -0.154342,-0.36555 -0.49966,0.0538 -0.630761,-0.0882 -0.286631,-0.31061 0.218281,-0.14107 0.270804,-0.25831 0.116716,-0.26054 -0.154088,-0.002 -0.511276,0.18427 -0.79375,0.41443 -0.408194,0.33259 -0.42254,0.39012 -0.06991,0.28031 0.24402,-0.076 0.586021,0.0334 0.76,0.24298 0.393068,0.47362 0.427921,0.47354 0.427921,-0.001 z m 5.500852,0.13587 c 0.08373,-0.13547 0.03122,-0.32109 -0.116676,-0.41249 -0.147894,-0.0914 -0.268899,0.0194 -0.268899,0.2463 0,0.46475 0.158766,0.53318 0.385575,0.16619 z m -7.529325,-0.28287 c 0,-0.14552 -0.208359,-0.26276 -0.463021,-0.26053 -0.395697,0.003 -0.405315,0.0414 -0.06614,0.26053 0.499324,0.32269 0.529166,0.32269 0.529166,0 z m 3.439584,0.008 c 0,-0.14095 -0.178594,-0.18774 -0.396875,-0.10398 -0.218282,0.0838 -0.396875,0.19909 -0.396875,0.25628 0,0.0572 0.178593,0.10398 0.396875,0.10398 0.218281,0 0.396875,-0.11532 0.396875,-0.25628 z m 0.264583,-0.80206 c 0,-0.14552 -0.0525,-0.26458 -0.116676,-0.26458 -0.06417,0 -0.190262,0.11906 -0.280199,0.26458 -0.08994,0.14553 -0.03743,0.26459 0.116676,0.26459 0.154109,0 0.280199,-0.11906 0.280199,-0.26459 z m 3.439583,-0.23627 c 0,-0.12995 -0.195434,-0.31127 -0.434297,-0.40293 -0.363136,-0.13935 -0.379503,-0.10063 -0.0999,0.23627 0.381035,0.45912 0.534194,0.5069 0.534194,0.16666 z m -9.651719,-0.56649 c 0.107005,-0.17314 -0.09348,-0.22599 -0.546016,-0.14393 -0.975315,0.17686 -1.155742,0.41753 -0.313018,0.41753 0.379466,0 0.766033,-0.12312 0.859034,-0.2736 z m 9.782542,4.50531 c -0.264197,-0.29193 -0.431477,-0.57793 -0.371737,-0.63555 0.05974,-0.0576 0.322541,0.18124 0.583994,0.53079 0.577424,0.77198 0.448953,0.83539 -0.212257,0.10476 z m -17.997339,-0.01 c -0.08601,-0.13918 0.08877,-0.25304 0.388401,-0.25304 0.638854,0 0.703304,0.14714 0.15638,0.35701 -0.213621,0.082 -0.458772,0.0352 -0.544781,-0.10398 z m 24.15037,0.1009 c 0.181901,-0.0734 0.479558,-0.0734 0.661459,0 0.181901,0.0734 0.03307,0.13345 -0.33073,0.13345 -0.363802,0 -0.51263,-0.0601 -0.330729,-0.13345 z m -5.611095,-0.33566 c -0.08373,-0.13547 -0.05106,-0.30882 0.07258,-0.38524 0.123642,-0.0764 0.224803,0.0344 0.224803,0.2463 0,0.44614 -0.08343,0.48512 -0.297381,0.13894 z m 4.304715,0.0656 c 0.190995,-0.0764 0.419198,-0.067 0.507119,0.0209 0.08792,0.0879 -0.06835,0.15045 -0.347266,0.13896 -0.308226,-0.0127 -0.370919,-0.0754 -0.159853,-0.15985 z M 49.90857,239.2833 c 0.07696,-0.20054 5.29e-4,-0.51308 -0.17013,-0.69453 -0.239477,-0.2548 -0.225465,-0.30421 0.06155,-0.21705 0.204382,0.0621 0.468437,0.3746 0.586785,0.69453 0.164261,0.44404 0.116583,0.58169 -0.201475,0.58169 -0.245287,0 -0.359106,-0.14998 -0.276733,-0.36464 z m 3.835831,0.1839 c 0.190995,-0.0764 0.419198,-0.067 0.507119,0.0209 0.08792,0.0879 -0.06835,0.15046 -0.347266,0.13897 -0.308226,-0.0127 -0.370919,-0.0754 -0.159853,-0.15985 z m -10.054167,-0.26459 c 0.190995,-0.0764 0.419198,-0.067 0.507119,0.0209 0.08792,0.0879 -0.06835,0.15045 -0.347265,0.13896 -0.308227,-0.0127 -0.37092,-0.0754 -0.159854,-0.15985 z m 4.551299,-0.11516 c -0.361727,-0.1443 -0.867743,-0.20743 -1.124479,-0.14029 -0.649623,0.16988 -0.588523,-0.28326 0.06621,-0.49107 0.293156,-0.093 0.455176,-0.2951 0.360048,-0.44903 -0.09916,-0.16043 -0.01611,-0.22757 0.194593,-0.15734 0.202157,0.0674 0.37297,0.2912 0.379584,0.49735 0.0066,0.20615 0.125677,0.35646 0.264583,0.33401 0.138907,-0.0225 0.40608,0.12638 0.59372,0.33073 0.392237,0.42717 0.197295,0.44725 -0.734264,0.0756 z m 2.642061,-0.24535 c -0.289841,-0.19614 -0.182806,-0.22068 0.396875,-0.091 0.972854,0.21761 1.184039,0.36905 0.507119,0.36364 -0.278916,-0.002 -0.685713,-0.12491 -0.903994,-0.27262 z m -7.9375,-0.0894 c 0,-0.0558 0.297656,-0.15835 0.661458,-0.22789 0.363802,-0.0695 0.661459,-0.0239 0.661459,0.10144 0,0.12535 -0.297657,0.2279 -0.661459,0.2279 -0.363802,0 -0.661458,-0.0456 -0.661458,-0.10145 z m -2.645833,-15.81765 c 0,-1.62498 0.07304,-2.88147 0.162319,-2.7922 0.253815,0.25382 0.312573,5.74671 0.06147,5.74671 -0.123084,0 -0.223792,-1.32953 -0.223792,-2.95451 z"
         id="path3514"
         inkscape:connector-curvature="0" />
      <path
         style="fill:#ffeeaa;stroke-width:0.26458335"
         d="m 43.923811,242.80815 c -0.1163,-0.44473 -0.07408,-0.48765 0.23081,-0.23461 0.205232,0.17033 0.3079,0.41526 0.228152,0.54429 -0.215868,0.34929 -0.301802,0.2913 -0.458962,-0.30968 z m -7.063134,0.0307 c 0,-0.13693 0.1177,-0.32171 0.261554,-0.41061 0.149982,-0.0927 0.194337,0.0135 0.103984,0.24896 -0.175892,0.45837 -0.365538,0.54224 -0.365538,0.16165 z m 15.478125,-0.54478 c 0.08994,-0.14552 0.216027,-0.26458 0.280199,-0.26458 0.06417,0 0.116676,0.11906 0.116676,0.26458 0,0.14552 -0.12609,0.26458 -0.280199,0.26458 -0.154109,0 -0.206613,-0.11906 -0.116676,-0.26458 z m -26.855208,-1.85208 c -0.483649,-0.31256 -0.0659,-0.31256 0.661458,0 0.348917,0.14993 0.393979,0.23234 0.132292,0.24193 -0.218281,0.008 -0.575469,-0.10087 -0.79375,-0.24193 z m 4.977474,-0.70991 c 0.190995,-0.0764 0.419198,-0.067 0.507119,0.0209 0.08792,0.0879 -0.06835,0.15045 -0.347266,0.13896 -0.308226,-0.0127 -0.370919,-0.0754 -0.159853,-0.15985 z m 3.092318,-0.61301 c -0.08994,-0.14552 -0.03743,-0.26458 0.116676,-0.26458 0.154109,0 0.280199,0.11906 0.280199,0.26458 0,0.14552 -0.0525,0.26458 -0.116676,0.26458 -0.06417,0 -0.190262,-0.11906 -0.280199,-0.26458 z m 1.322916,0 c -0.08994,-0.14552 -0.03743,-0.26458 0.116676,-0.26458 0.154109,0 0.280199,0.11906 0.280199,0.26458 0,0.14552 -0.0525,0.26458 -0.116676,0.26458 -0.06417,0 -0.190262,-0.11906 -0.280199,-0.26458 z m 3.857347,-0.94809 c 0.0127,-0.30822 0.07539,-0.37092 0.159851,-0.15985 0.07643,0.19099 0.06703,0.4192 -0.02088,0.50712 -0.08792,0.0879 -0.150452,-0.0684 -0.138964,-0.34727 z M 33.884115,237.999 c -0.883317,-0.29979 -0.919787,-0.55846 -0.132292,-0.93826 0.559557,-0.26986 0.563528,-0.28975 0.06615,-0.33108 -0.291042,-0.0242 -0.767292,-0.0698 -1.058333,-0.10136 -0.291042,-0.0316 -0.923148,-0.0794 -1.404679,-0.10622 -0.481531,-0.0269 -0.8143,-0.14788 -0.739489,-0.26893 0.07481,-0.12105 0.885875,-0.17572 1.802366,-0.12149 1.199403,0.071 1.814398,-0.0133 2.194697,-0.30067 0.520512,-0.39333 0.519287,-0.39938 -0.08257,-0.40767 -0.341492,-0.005 -0.53881,0.10827 -0.447405,0.25617 0.08994,0.14552 0.03743,0.26458 -0.116676,0.26458 -0.154109,0 -0.280199,-0.10418 -0.280199,-0.23151 0,-0.12733 -0.26789,-0.23667 -0.595312,-0.24297 -0.626256,-0.0121 -8.436576,-2.53873 -9.166588,-2.96543 -0.672697,-0.39321 0.155587,-0.33706 1.710232,0.11593 3.164028,0.92192 7.592547,2.01921 7.703104,1.90866 0.06649,-0.0665 -0.4826,-0.45986 -1.220209,-0.87415 -1.932389,-1.08534 -1.649589,-1.25758 0.537044,-0.32708 1.03328,0.4397 1.925661,0.75248 1.983073,0.69507 0.05741,-0.0574 -0.855448,-0.79159 -2.028576,-1.6315 -1.173128,-0.83991 -2.076858,-1.58321 -2.008286,-1.65178 0.06857,-0.0686 0.98012,0.36007 2.025661,0.95254 1.045543,0.59247 2.006968,1.07722 2.136502,1.07722 0.129532,0 -0.922924,-1.05836 -2.338795,-2.35192 -2.741436,-2.50462 -4.684168,-4.48903 -4.029516,-4.11597 0.218281,0.12439 1.868659,1.399 3.667508,2.83247 1.798849,1.43347 3.33157,2.54537 3.406042,2.4709 0.07447,-0.0745 -0.367133,-0.70613 -0.981345,-1.40367 -1.836353,-2.0855 -1.780034,-2.44902 0.0952,-0.61445 1.796523,1.75756 2.273053,1.87198 1.072382,0.25748 -1.073396,-1.44336 -2.566749,-3.97274 -2.427644,-4.11184 0.100015,-0.10002 1.44195,1.6211 3.819141,4.89829 0.04398,0.0606 0.160496,0.0297 0.258918,-0.0687 0.09842,-0.0984 -0.386916,-1.67684 -1.078534,-3.50758 -0.691618,-1.83074 -1.191858,-3.39425 -1.111644,-3.47447 0.08022,-0.0802 0.370792,0.37703 0.645726,1.01609 1.076653,2.50257 2.663608,5.64097 2.675689,5.29149 0.007,-0.20259 -0.232741,-1.19259 -0.53276,-2.2 -0.300016,-1.0074 -0.49477,-1.97274 -0.432784,-2.14519 0.06198,-0.17245 0.24538,0.16598 0.407543,0.75207 0.162163,0.58609 0.530765,1.53859 0.819118,2.11667 0.70157,1.40648 0.707867,0.58046 0.01619,-2.12395 -0.941639,-3.68178 -0.385146,-2.8644 0.789236,1.15923 0.602832,2.06539 0.956466,2.19907 1.13298,0.42827 0.07886,-0.79112 0.122,-0.62411 0.17086,0.66146 0.03595,0.94588 0.10522,1.60073 0.15393,1.45521 0.280244,-0.83724 0.970092,-3.43997 1.363913,-5.14593 0.618991,-2.68133 0.739987,-1.98195 0.239845,1.38634 -0.476496,3.20904 -0.511797,4.09492 -0.124605,3.12711 0.139168,-0.34786 0.420862,-1.00271 0.625985,-1.45521 0.205127,-0.4525 0.58216,-1.53711 0.837859,-2.41023 0.436356,-1.49002 0.895416,-2.42965 0.895416,-1.83279 0,0.14158 -0.293611,1.38579 -0.65247,2.7649 -0.35886,1.37911 -0.725078,2.80513 -0.813816,3.16893 -0.211603,0.86751 1.625682,-2.45146 2.022271,-3.65313 0.32558,-0.98652 2.354432,-5.00166 2.354432,-4.65947 0,0.40398 -1.377294,4.21783 -1.611688,4.46291 -0.132218,0.13825 -0.24156,0.4359 -0.24298,0.66146 -0.0013,0.22556 -0.302557,1.05451 -0.669187,1.84212 -0.366633,0.78761 -0.632032,1.53574 -0.589775,1.66251 0.04226,0.12677 0.71919,-0.6677 1.504296,-1.76548 0.785106,-1.09779 1.474222,-1.94923 1.531366,-1.89208 0.10287,0.10287 -0.535559,1.33596 -1.565843,3.02435 -0.757029,1.24059 -0.415132,1.32723 0.627255,0.15897 3.028635,-3.39438 3.436395,-3.41949 1.032629,-0.0636 -0.864285,1.20663 -1.530633,2.23466 -1.480775,2.28452 0.04986,0.0499 1.059355,-0.66183 2.24332,-1.58153 1.183968,-0.91969 2.518061,-1.89903 2.964651,-2.17629 0.446588,-0.27727 1.182802,-0.84281 1.63603,-1.25677 0.453226,-0.41396 1.005872,-0.74917 1.228103,-0.7449 0.478412,0.009 -0.0099,0.45978 -4.290253,3.95842 -1.689576,1.38103 -3.029995,2.55292 -2.978708,2.60421 0.05129,0.0513 1.114086,-0.46321 2.361779,-1.14333 1.247691,-0.68012 2.263222,-1.13764 2.256735,-1.01671 -0.0065,0.12092 -0.901174,0.80354 -1.988191,1.51692 -1.087016,0.71338 -1.94397,1.32947 -1.904343,1.3691 0.03963,0.0396 1.083143,-0.27535 2.318919,-0.69995 2.572909,-0.88402 2.37916,-0.83792 2.37916,-0.56612 0,0.22255 -1.067176,0.77759 -3.439584,1.78894 l -1.455208,0.62035 1.389063,-0.0316 c 0.763984,-0.0174 1.389062,-0.11826 1.389062,-0.22419 0,-0.18789 3.447812,-0.66779 4.229473,-0.58869 0.216157,0.0219 0.463608,-0.0745 0.549894,-0.21407 0.09175,-0.14845 0.402815,-0.16287 0.749218,-0.0347 0.462952,0.17126 -0.109942,0.38257 -2.622798,0.96739 -1.768325,0.41155 -3.502719,0.74827 -3.85421,0.74827 -0.351493,0 -0.639077,0.11692 -0.639077,0.25982 0,0.1429 -0.169889,0.19463 -0.377531,0.11495 -0.20764,-0.0797 -0.519875,0.0266 -0.693854,0.23627 -0.173979,0.20963 -0.510106,0.38589 -0.746948,0.39169 -0.236844,0.006 0.0067,0.22916 0.541327,0.49635 0.534575,0.26719 1.264759,0.42983 1.622634,0.36142 0.357873,-0.0684 0.727475,-1.3e-4 0.821335,0.15174 0.155898,0.25224 -0.264924,0.36919 -2.439087,0.67784 -0.412793,0.0586 -0.568241,-0.0239 -0.479727,-0.25454 0.07201,-0.18767 -0.03028,-0.40309 -0.227333,-0.4787 -0.447624,-0.17177 -0.753131,0.53282 -0.321056,0.74045 0.435404,0.20923 -1.425392,-0.0288 -1.999239,-0.25569 -0.316566,-0.12519 -0.463021,-0.0576 -0.463021,0.21377 0,0.47423 -0.815631,0.84619 -1.044281,0.47623 -0.0883,-0.14288 -0.533874,-0.20094 -0.990164,-0.12903 -0.456292,0.0719 -0.906608,0.006 -1.000701,-0.14606 -0.0941,-0.15225 -0.402183,-0.27682 -0.684636,-0.27682 -0.282453,0 -0.513551,-0.11906 -0.513551,-0.26458 0,-0.40821 0.565512,-0.31371 1.118732,0.18695 0.478931,0.43342 0.49358,0.42197 0.365271,-0.2856 -0.112067,-0.61801 -0.07222,-0.68614 0.246584,-0.42156 0.209139,0.17357 0.329723,0.39734 0.267964,0.49727 -0.06176,0.0999 0.164801,0.18169 0.503471,0.18169 0.399597,0 0.56897,-0.12193 0.482475,-0.34733 -0.07331,-0.19103 0.01368,-0.52441 0.1933,-0.74083 0.254206,-0.3063 0.255275,-0.39351 0.0048,-0.39351 -0.176964,0 -0.381867,0.22989 -0.455345,0.51086 -0.07599,0.29061 -0.286255,0.45227 -0.487688,0.37498 -0.194754,-0.0747 -0.291957,-0.29782 -0.216006,-0.49575 0.109773,-0.28606 -0.04288,-0.31205 -0.74431,-0.12671 -0.485322,0.12823 -1.287438,0.29249 -1.782479,0.36501 -0.495041,0.0725 -0.984538,0.26853 -1.087771,0.43556 -0.119943,0.19407 -0.239821,0.10437 -0.3321,-0.24849 -0.126124,-0.48231 -0.288303,-0.53412 -1.281324,-0.40935 -1.420683,0.1785 -1.674159,0.38633 -0.477723,0.39169 1.510979,0.007 1.778595,0.43307 0.401505,0.63958 -0.669518,0.1004 -1.217303,0.30134 -1.217303,0.44653 0,0.14519 -0.108895,0.19669 -0.241985,0.11443 -0.133091,-0.0823 -0.281919,-0.0476 -0.33073,0.077 -0.04881,0.1246 -0.416165,0.11542 -0.816348,-0.0204 z m 1.846572,-0.89187 c -0.08792,-0.0879 -0.316124,-0.0973 -0.507119,-0.0209 -0.211066,0.0845 -0.148373,0.14715 0.159853,0.15985 0.278913,0.0115 0.435184,-0.051 0.347266,-0.13897 z m 9.166032,-0.34965 c 0.12696,-0.0108 0.07637,-0.20578 -0.112417,-0.43325 -0.311041,-0.37479 -0.365265,-0.37426 -0.577826,0.006 -0.129013,0.23054 -0.346316,0.3501 -0.482893,0.26569 -0.136578,-0.0844 -0.248322,-0.0281 -0.248322,0.12508 0,0.15319 0.26789,0.2286 0.595312,0.16756 0.327422,-0.061 0.699188,-0.11981 0.826146,-0.13063 z m 1.488958,-0.8894 c 0,-0.18731 -0.26789,-0.35899 -0.595312,-0.3815 -0.578586,-0.0398 -0.580882,-0.0302 -0.08172,0.34057 0.628335,0.46674 0.677034,0.46968 0.677034,0.0409 z m -9.349279,-0.32088 c -0.07677,-0.22858 -0.678802,-0.28754 -1.630929,-0.15971 -0.149868,0.0201 -0.132144,0.1198 0.04088,0.2299 0.455086,0.2896 1.692542,0.23497 1.590048,-0.0702 z m 14.442508,-1.36586 c -0.181901,-0.0734 -0.479557,-0.0734 -0.661458,0 -0.181901,0.0734 -0.03307,0.13346 0.330729,0.13346 0.363802,0 0.51263,-0.0601 0.330729,-0.13346 z m -5.429469,-1.30754 c -0.08792,-0.0879 -0.316124,-0.0973 -0.507119,-0.0209 -0.211066,0.0845 -0.148373,0.14716 0.159853,0.15986 0.278913,0.0115 0.435184,-0.0511 0.347266,-0.13897 z m -14.083551,4.65777 c -0.43138,-0.18537 -0.446487,-0.23083 -0.08176,-0.24598 0.246073,-0.0102 0.520991,0.10046 0.610928,0.24598 0.188029,0.30424 0.178835,0.30424 -0.529166,0 z m 6.482291,-0.20788 c 0,-0.11434 0.229383,-0.20789 0.509741,-0.20789 0.280358,0 0.451924,0.0936 0.381259,0.20789 -0.167057,0.2703 -0.891,0.2703 -0.891,0 z m 12.104688,-0.23193 c 0.181901,-0.0734 0.479557,-0.0734 0.661458,0 0.181901,0.0734 0.03307,0.13345 -0.330729,0.13345 -0.363802,0 -0.51263,-0.0601 -0.330729,-0.13345 z m -2.910417,-1.05833 c 0.181901,-0.0734 0.479557,-0.0734 0.661458,0 0.181901,0.0734 0.03307,0.13345 -0.330729,0.13345 -0.363802,0 -0.51263,-0.0601 -0.330729,-0.13345 z m 1.604036,-0.006 c 0.190995,-0.0764 0.419198,-0.067 0.507119,0.0209 0.08792,0.0879 -0.06835,0.15045 -0.347265,0.13896 -0.308227,-0.0127 -0.37092,-0.0754 -0.159854,-0.15985 z M 40.371627,225.3791 c 0.02117,-0.28096 0.132828,-0.45253 0.248142,-0.38126 0.293372,0.18131 0.262712,0.89209 -0.03848,0.89209 -0.136478,0 -0.230825,-0.22987 -0.209661,-0.51083 z"
         id="path3512"
         inkscape:connector-curvature="0" />
      <path
         style="fill:#ffcc00;stroke-width:0.26458335"
         d="m 43.923811,242.80815 c -0.1163,-0.44473 -0.07408,-0.48765 0.23081,-0.23461 0.205232,0.17033 0.3079,0.41526 0.228152,0.54429 -0.215868,0.34929 -0.301802,0.2913 -0.458962,-0.30968 z m -7.063134,0.0307 c 0,-0.13693 0.1177,-0.32171 0.261554,-0.41061 0.149982,-0.0927 0.194337,0.0135 0.103984,0.24896 -0.175892,0.45837 -0.365538,0.54224 -0.365538,0.16165 z m 15.478125,-0.54478 c 0.08994,-0.14552 0.216027,-0.26458 0.280199,-0.26458 0.06417,0 0.116676,0.11906 0.116676,0.26458 0,0.14552 -0.12609,0.26458 -0.280199,0.26458 -0.154109,0 -0.206613,-0.11906 -0.116676,-0.26458 z m -18.25625,-4.23333 c -0.50492,-0.21697 -0.501888,-0.22825 0.06615,-0.24599 0.327422,-0.0102 0.595313,0.10047 0.595313,0.24599 0,0.14552 -0.02977,0.25621 -0.06615,0.24598 -0.03638,-0.0102 -0.304271,-0.12092 -0.595313,-0.24598 z M 33.685677,237.163 c 0,-0.0572 0.184777,-0.17489 0.410618,-0.26155 0.235458,-0.0904 0.341661,-0.046 0.248967,0.10398 -0.155379,0.25141 -0.659585,0.37186 -0.659585,0.15757 z m 13.708724,-0.60592 c 0.190995,-0.0764 0.419198,-0.067 0.507119,0.0209 0.08792,0.0879 -0.06835,0.15045 -0.347266,0.13896 -0.308226,-0.0127 -0.370919,-0.0754 -0.159853,-0.15985 z m -13.708724,-1.62379 c -0.218281,-0.0989 -0.427066,-0.32995 -0.463965,-0.5134 -0.05382,-0.2676 0.03774,-0.2681 0.463021,-0.002 0.29156,0.18209 0.530111,0.42149 0.530111,0.532 0,0.22737 0.0087,0.22763 -0.529167,-0.0161 z m 13.829514,-0.49549 c 0.257432,-0.0671 0.61462,-0.0627 0.79375,0.01 0.179131,0.0725 -0.03149,0.12736 -0.468055,0.12197 -0.436563,-0.005 -0.583126,-0.0647 -0.325695,-0.13177 z m -19.253472,-0.34581 c -0.431379,-0.18537 -0.446488,-0.23083 -0.08176,-0.24599 0.246074,-0.0102 0.520991,0.10047 0.610928,0.24599 0.188029,0.30424 0.178835,0.30424 -0.529167,0 z m 22.307682,-0.18074 c 0.190995,-0.0764 0.419198,-0.067 0.507119,0.0209 0.08792,0.0879 -0.06835,0.15046 -0.347266,0.13897 -0.308226,-0.0127 -0.370919,-0.0754 -0.159853,-0.15985 z m -3.389974,-0.44833 c 0,-0.0549 0.15875,-0.23164 0.352777,-0.39267 0.267031,-0.22161 0.35278,-0.19733 0.35278,0.0999 0,0.21597 -0.15875,0.39267 -0.35278,0.39267 -0.194027,0 -0.352777,-0.045 -0.352777,-0.0999 z m -22.030972,-0.72668 c 0.179476,-0.18082 0.39297,-0.26212 0.474432,-0.18065 0.08146,0.0815 -0.06538,0.2294 -0.32632,0.32876 -0.377083,0.14359 -0.407474,0.1132 -0.148112,-0.14811 z m 21.431249,0 c 0.179478,-0.18082 0.39297,-0.26212 0.474432,-0.18065 0.08146,0.0815 -0.06538,0.2294 -0.326318,0.32876 -0.377084,0.14359 -0.407474,0.1132 -0.148114,-0.14811 z m -22.551318,-0.23175 c -0.08994,-0.14552 0.02913,-0.26459 0.264583,-0.26459 0.235458,0 0.35452,0.11907 0.264583,0.26459 -0.08994,0.14552 -0.208999,0.26458 -0.264583,0.26458 -0.05558,0 -0.174646,-0.11906 -0.264583,-0.26458 z m 9.901848,-0.72761 -0.641432,-0.7276 0.727604,0.64143 c 0.680056,0.59952 0.84894,0.81378 0.641432,0.81378 -0.04739,0 -0.374814,-0.32742 -0.727604,-0.72761 z m -2.171515,-0.0645 c -0.203205,-0.29012 -0.431114,-0.46583 -0.506465,-0.39048 -0.07535,0.0754 -0.28761,-0.0445 -0.471686,-0.26627 -0.499573,-0.60194 0.148402,-0.51414 0.766395,0.10385 0.278913,0.27892 0.556726,0.45751 0.61736,0.39688 0.06063,-0.0606 0.110244,0.0683 0.110244,0.28663 0,0.51994 -0.07316,0.50141 -0.515848,-0.13061 z m 3.955431,0.3511 c -0.09701,-0.097 -0.176389,-0.29942 -0.176389,-0.4498 0,-0.16579 0.123235,-0.15016 0.313089,0.0397 0.172201,0.1722 0.251576,0.37461 0.17639,0.44979 -0.07519,0.0752 -0.216078,0.0573 -0.31309,-0.0397 z m 10.142361,-0.0882 c 0,-0.14552 0.126089,-0.26458 0.280199,-0.26458 0.154109,0 0.206613,0.11906 0.116676,0.26458 -0.08994,0.14552 -0.216027,0.26458 -0.2802,0.26458 -0.06417,0 -0.116675,-0.11906 -0.116675,-0.26458 z m 2.116666,-0.66146 c 0.341776,-0.3638 0.68094,-0.66146 0.7537,-0.66146 0.07276,0 -0.147341,0.29766 -0.489116,0.66146 -0.341776,0.3638 -0.68094,0.66146 -0.753701,0.66146 -0.07276,0 0.147342,-0.29766 0.489117,-0.66146 z m -1.058333,0.16469 c 0,-0.26685 0.765225,-0.954 0.888338,-0.7977 0.04499,0.0571 -0.13648,0.31221 -0.40327,0.56687 -0.266787,0.25466 -0.485068,0.35853 -0.485068,0.23083 z m -1.70629,-0.94994 c 0.468892,-1.12222 0.477097,-1.28429 0.05264,-1.04003 -0.192151,0.11058 -0.238345,0.0894 -0.110244,-0.0505 0.121269,-0.13247 0.299863,-0.24268 0.396875,-0.24491 0.09701,-0.002 0.3458,-0.11127 0.55286,-0.24232 0.271412,-0.17178 0.252955,-0.0619 -0.06615,0.39365 -0.514262,0.73422 -0.578045,1.15828 -0.132828,0.88312 0.170381,-0.1053 0.08108,0.12206 -0.198438,0.50524 -0.713248,0.97775 -0.948079,0.88081 -0.494723,-0.20422 z M 34.700005,230.454 c -0.369694,-0.40019 -0.745421,-0.93597 -0.834946,-1.19063 -0.08953,-0.25466 -0.272835,-0.46302 -0.407355,-0.46302 -0.134517,0 -0.3234,-0.20836 -0.419737,-0.46302 -0.09634,-0.25466 0.406863,0.10827 1.118221,0.80652 0.711359,0.69824 1.293379,1.44238 1.293379,1.65364 0,0.49081 0.03673,0.50764 -0.749562,-0.34349 z m 2.425256,0.47863 c 0,-0.13693 0.119062,-0.32255 0.264583,-0.41249 0.145521,-0.0899 0.264583,0.0221 0.264583,0.24897 0,0.22687 -0.119062,0.41249 -0.264583,0.41249 -0.145521,0 -0.264583,-0.11203 -0.264583,-0.24897 z m 7.091931,-0.74322 c 0.07666,-0.40018 0.189381,-0.57803 0.250491,-0.39522 0.06111,0.1828 0.231879,0.25773 0.37949,0.1665 0.157202,-0.0971 0.143986,0.0666 -0.03191,0.39523 -0.423664,0.79163 -0.763492,0.69702 -0.598072,-0.16651 z m -11.218111,-0.13229 -0.504029,-0.59531 0.595313,0.50403 c 0.559445,0.47366 0.715761,0.68659 0.504028,0.68659 -0.05021,0 -0.318098,-0.26789 -0.595312,-0.59531 z m 3.481731,0.1437 c -0.143584,-0.37708 -0.113194,-0.40747 0.148114,-0.14811 0.180822,0.17948 0.262115,0.39297 0.180652,0.47443 -0.08146,0.0815 -0.229407,-0.0654 -0.328766,-0.32632 z m 12.947573,-0.0776 c 0.263391,-0.29104 0.538422,-0.52917 0.611183,-0.52917 0.07276,0 -0.08321,0.23813 -0.346599,0.52917 -0.26339,0.29104 -0.538422,0.52916 -0.611182,0.52916 -0.07276,0 0.08321,-0.23812 0.346598,-0.52916 z M 30.10578,228.23419 c -1.159754,-1.18451 -1.84686,-2.01703 -1.526901,-1.85004 0.319959,0.167 0.766443,0.56732 0.992187,0.88962 0.225745,0.32229 0.410445,0.48539 0.410445,0.36243 0,-0.12296 0.177282,-0.0764 0.393962,0.1034 0.216677,0.17983 0.328715,0.43253 0.248967,0.56156 -0.07974,0.12904 0.08558,0.23461 0.367393,0.23461 0.28181,0 0.660603,0.17859 0.841761,0.39687 0.181157,0.21828 0.251079,0.39688 0.155379,0.39688 -0.0957,0 -0.04656,0.23812 0.109204,0.52916 0.15576,0.29105 0.245637,0.52917 0.199724,0.52917 -0.04591,0 -1.032368,-0.96915 -2.192121,-2.15366 z m 1.595522,0.83074 c -0.08994,-0.14552 -0.282583,-0.26458 -0.428104,-0.26458 -0.14552,0 -0.191,0.11906 -0.101062,0.26458 0.08994,0.14552 0.282583,0.26459 0.428103,0.26459 0.145521,0 0.191,-0.11907 0.101063,-0.26459 z m 6.750926,1.12448 c -0.0046,-0.37662 0.811599,-1.22366 1.274768,-1.32291 0.169775,-0.0364 0.308681,0.0529 0.308681,0.19843 0,0.14552 -0.119062,0.26459 -0.264583,0.26459 -0.145521,0 -0.234818,0.14883 -0.198438,0.33073 0.03638,0.1819 -0.101536,0.29468 -0.306482,0.25061 -0.204947,-0.0441 -0.471014,0.075 -0.591262,0.26459 -0.167688,0.26437 -0.219575,0.26763 -0.222684,0.014 z m 3.466224,-0.49677 c 0.02209,-0.54694 0.06762,-0.61458 0.16242,-0.24127 0.115274,0.45393 0.170042,0.42499 0.438467,-0.23171 0.277818,-0.67967 0.340876,-0.7093 0.668753,-0.31423 0.313624,0.37789 0.303962,0.41392 -0.07228,0.26954 -0.282485,-0.10839 -0.434297,-0.0293 -0.434297,0.22613 0,0.21604 -0.178594,0.54101 -0.396875,0.72217 -0.337823,0.28036 -0.392309,0.21629 -0.366184,-0.43063 z m 1.027642,0.41501 c 0,-0.15411 0.119062,-0.20661 0.264583,-0.11667 0.145521,0.0899 0.264584,0.21602 0.264584,0.28019 0,0.0642 -0.119063,0.11668 -0.264584,0.11668 -0.145521,0 -0.264583,-0.12609 -0.264583,-0.2802 z m 3.96875,0.0921 c 0,-0.15195 0.208359,-0.43969 0.463021,-0.63941 0.428297,-0.33589 0.433911,-0.32344 0.07487,0.16604 -0.213485,0.29104 -0.421844,0.57878 -0.463021,0.63941 -0.04118,0.0606 -0.07487,-0.0141 -0.07487,-0.16604 z m -9.125601,-0.34516 c 0.157252,-0.25444 0.09598,-0.30415 -0.223705,-0.18147 -0.242152,0.0929 -0.440277,0.0635 -0.440277,-0.0653 0,-0.12883 0.140141,-0.28095 0.311427,-0.33804 0.182499,-0.0608 0.223576,-0.24597 0.09922,-0.44718 -0.172484,-0.27908 -0.254788,-0.27616 -0.439669,0.0156 -0.172712,0.27258 -0.235979,0.23162 -0.262858,-0.17019 -0.01947,-0.29104 -0.01333,-0.68994 0.01365,-0.88645 0.03037,-0.2212 -0.07559,-0.28025 -0.278199,-0.15503 -0.231254,0.14292 -0.275249,0.0668 -0.149987,-0.25967 0.09749,-0.25406 0.177752,-0.54148 0.178363,-0.63872 0.0011,-0.18901 1.118471,1.95439 1.39668,2.67939 0.09163,0.23879 0.03434,0.5159 -0.127307,0.6158 -0.191431,0.11831 -0.218395,0.0595 -0.07733,-0.16878 z m 2.398414,0.0359 c -0.08205,-0.13275 0.02806,-0.58118 0.24467,-0.99651 l 0.393841,-0.75514 0.0016,0.84428 c 0.0016,0.8464 -0.360545,1.35976 -0.640141,0.90737 z m -4.732227,-0.2156 c -0.09857,-0.15949 -0.0051,-0.35678 0.207669,-0.43843 0.212786,-0.0817 0.468622,-0.0162 0.568526,0.14544 0.104815,0.1696 0.062,0.21997 -0.101219,0.11909 -0.155578,-0.0961 -0.330769,-0.0311 -0.389316,0.14453 -0.07479,0.22436 -0.15975,0.2331 -0.28566,0.0294 z m 5.659469,-0.23518 c 0.0127,-0.30822 0.07539,-0.37092 0.159851,-0.15985 0.07643,0.19099 0.06703,0.4192 -0.02088,0.50712 -0.08792,0.0879 -0.150452,-0.0683 -0.138964,-0.34727 z m 5.772259,-0.16823 c 0.348575,-0.3957 0.7273,-0.66165 0.841613,-0.591 0.114313,0.0707 0.282628,0.007 0.374031,-0.14045 0.0914,-0.14789 0.03307,-0.2689 -0.129625,-0.2689 -0.162697,0 -0.214373,-0.13177 -0.114834,-0.29283 0.12678,-0.20513 0.245779,-0.18798 0.397356,0.0573 0.217988,0.35271 -0.233024,1.167 -0.499033,0.90099 -0.07761,-0.0776 -0.447596,0.12787 -0.822193,0.45662 l -0.681087,0.59774 z m 2.144352,0.48726 c 0,-0.0549 0.20836,-0.2633 0.463021,-0.46302 0.419645,-0.32911 0.429004,-0.31975 0.0999,0.0999 -0.345643,0.44073 -0.562917,0.58089 -0.562917,0.36313 z m 1.921934,-0.86366 c 0.402219,-0.43611 0.67011,-0.87397 0.595312,-0.97302 -0.0748,-0.0991 -0.05879,-0.12273 0.03558,-0.0526 0.09437,0.0701 0.381347,-0.11439 0.637731,-0.41 0.256384,-0.29562 0.528876,-0.436 0.605533,-0.31196 0.07666,0.12403 -0.47821,0.74639 -1.233043,1.38302 -0.822796,0.69394 -1.07955,0.83994 -0.641114,0.36457 z m -16.075269,-0.0917 c -0.09269,-0.14998 0.01352,-0.19434 0.248968,-0.10398 0.45837,0.17589 0.542235,0.36553 0.16165,0.36553 -0.136933,0 -0.321712,-0.11769 -0.410618,-0.26155 z m 3.453422,-0.2346 c 0.100298,-0.36378 0.06954,-0.56434 -0.07302,-0.47623 -0.263631,0.16293 -1.022911,-2.40121 -0.782288,-2.64184 0.07885,-0.0788 0.28189,0.37468 0.451204,1.00783 0.169313,0.63315 0.424667,1.29378 0.567455,1.46806 0.171545,0.20938 0.158485,0.47865 -0.0385,0.79375 -0.258689,0.41381 -0.275201,0.39376 -0.124846,-0.15157 z m 12.02283,0.13168 c 0,-0.0549 0.20836,-0.26331 0.463021,-0.46302 0.419645,-0.32911 0.429003,-0.31975 0.0999,0.0999 -0.345644,0.44073 -0.562917,0.58089 -0.562917,0.36313 z m -15.544271,-0.43752 c -0.327421,-0.13161 -0.595312,-0.36219 -0.595312,-0.5124 0,-0.15021 0,-0.33264 0,-0.4054 0,-0.0728 -0.238125,-0.37041 -0.529167,-0.66146 -0.629311,-0.62931 -0.743357,-1.30089 -0.135204,-0.79616 0.216677,0.17982 0.336425,0.42005 0.266102,0.53384 -0.07032,0.11378 0.06709,0.28169 0.305366,0.37312 0.238273,0.0914 0.364249,0.23522 0.279947,0.31952 -0.0843,0.0843 0.166548,0.43493 0.557443,0.77916 0.773308,0.681 0.752631,0.73226 -0.149175,0.36978 z m 4.564063,0.008 c 0.08994,-0.14552 0.216027,-0.26458 0.280199,-0.26458 0.06417,0 0.116676,0.11906 0.116676,0.26458 0,0.14552 -0.12609,0.26459 -0.280199,0.26459 -0.154109,0 -0.206613,-0.11907 -0.116676,-0.26459 z m 3.579921,-0.18282 c -0.0044,-0.17331 0.111016,-0.3887 0.256537,-0.47863 0.145521,-0.0899 0.264584,-0.39462 0.264584,-0.67708 0,-0.28245 0.119062,-0.51355 0.264583,-0.51355 0.145521,0 0.264583,0.30468 0.264583,0.67707 0,0.37239 -0.111744,0.60802 -0.248322,0.52361 -0.136578,-0.0844 -0.371081,0.0574 -0.521121,0.31511 -0.150039,0.25772 -0.27642,0.32678 -0.280844,0.15347 z m -4.32621,-2.11705 c -0.577255,-2.37787 -0.442492,-2.83033 0.203332,-0.68268 0.696196,2.31514 0.712354,2.39924 0.487574,2.53791 -0.115062,0.071 -0.425968,-0.76387 -0.690906,-1.85523 z m 9.874414,1.69912 c 0,-0.22053 0.178594,-0.4695 0.396875,-0.55326 0.218281,-0.0838 0.396875,-0.0515 0.396875,0.0716 0,0.12313 -0.178594,0.3721 -0.396875,0.55326 -0.323086,0.26813 -0.396875,0.25482 -0.396875,-0.0716 z m -7.916611,-0.34734 c 0.0127,-0.30822 0.07539,-0.37092 0.15985,-0.15985 0.07643,0.191 0.06703,0.4192 -0.02088,0.50712 -0.08792,0.0879 -0.150453,-0.0683 -0.138965,-0.34727 z m 4.176278,0.0911 c 0.376944,-0.48082 0.844952,-0.39694 0.809027,0.14499 -0.01434,0.21629 -0.0639,0.20793 -0.158019,-0.0266 -0.11207,-0.27931 -0.217057,-0.27931 -0.574427,0 -0.390107,0.30489 -0.39837,0.29212 -0.07658,-0.11834 z m -2.72306,-0.61712 c -0.09732,-0.38775 -0.117414,-0.76454 -0.04465,-0.8373 0.07276,-0.0728 0.211918,0.18496 0.309237,0.57271 0.09732,0.38775 0.117411,0.76454 0.04465,0.8373 -0.07276,0.0728 -0.211916,-0.18496 -0.309235,-0.57271 z m 11.327249,0.0442 c 0.08329,-0.56746 0.571924,-1.0356 0.949558,-0.90972 0.178464,0.0595 0.03247,0.35575 -0.35442,0.71921 -0.501205,0.47086 -0.642943,0.51623 -0.595138,0.19051 z m -17.200245,-0.22374 c 0.08192,-0.25466 0.0498,-0.46302 -0.07139,-0.46302 -0.285268,0 -1.1914,-2.36402 -0.985178,-2.57024 0.08626,-0.0863 0.349937,0.30792 0.585946,0.87597 0.236005,0.56804 0.526918,1.21782 0.646469,1.44394 0.122865,0.23239 0.09951,0.57748 -0.05372,0.79375 -0.220118,0.31069 -0.243078,0.29557 -0.122135,-0.0804 z m 9.446861,0.15393 c -0.01148,-0.17 -0.08941,-0.52719 -0.173159,-0.79375 -0.14474,-0.4607 -0.137274,-0.46128 0.151019,-0.0117 0.166806,0.26014 0.244729,0.61733 0.173156,0.79375 -0.09392,0.23151 -0.13594,0.23476 -0.151016,0.0117 z m 1.698903,-0.35237 c 0.08994,-0.14552 0.216027,-0.26458 0.280199,-0.26458 0.06417,0 0.116676,0.11906 0.116676,0.26458 0,0.14552 -0.12609,0.26458 -0.280199,0.26458 -0.154109,0 -0.206613,-0.11906 -0.116676,-0.26458 z m -4.945147,-0.5555 c -0.09188,-0.23276 -0.04075,-1.00666 0.113625,-1.71979 0.359627,-1.66125 0.541128,-1.17926 0.264795,0.70318 -0.124203,0.84609 -0.280249,1.26531 -0.37842,1.01661 z m 1.520444,-0.3044 c 0.100557,-0.32742 0.347959,-0.9525 0.549777,-1.38906 0.305324,-0.66045 0.341466,-0.68267 0.215215,-0.13229 -0.08345,0.3638 -0.188571,0.89958 -0.233598,1.19063 -0.04503,0.29104 -0.09706,0.61846 -0.115633,0.7276 -0.01857,0.10914 -0.160851,0.19844 -0.31618,0.19844 -0.170656,0 -0.210063,-0.23558 -0.09958,-0.59532 z m -3.515389,-0.1801 c 0.02117,-0.28096 0.132828,-0.45253 0.248142,-0.38126 0.293372,0.18131 0.262712,0.89209 -0.03848,0.89209 -0.136478,0 -0.230825,-0.22987 -0.209661,-0.51083 z m 5.670441,0.0706 c 0.112697,-0.29368 0.06707,-0.37732 -0.13703,-0.25118 -0.221345,0.1368 -0.240816,0.0207 -0.07039,-0.41961 0.129577,-0.3348 0.358508,-0.58149 0.508736,-0.5482 0.150227,0.0333 0.264744,-0.14531 0.254481,-0.39688 -0.01027,-0.25157 0.244205,-0.99318 0.565491,-1.64802 0.321287,-0.65485 0.506254,-0.89297 0.411044,-0.52917 -0.09521,0.3638 -0.236911,0.92935 -0.314886,1.25677 -0.07798,0.32742 -0.253984,0.59531 -0.391128,0.59531 -0.137147,0 -0.183587,0.10642 -0.103206,0.23648 0.145338,0.23516 -0.541684,2.14477 -0.771626,2.14477 -0.06624,0 -0.04441,-0.19812 0.04851,-0.44027 z"
         id="path3510"
         inkscape:connector-curvature="0" />
    </g>
  </g>
</svg>
