<?xml version="1.0" encoding="UTF-8" standalone="no"?>
<!-- Created with Inkscape (http://www.inkscape.org/) -->

<svg
   xmlns:dc="http://purl.org/dc/elements/1.1/"
   xmlns:cc="http://creativecommons.org/ns#"
   xmlns:rdf="http://www.w3.org/1999/02/22-rdf-syntax-ns#"
   xmlns:svg="http://www.w3.org/2000/svg"
   xmlns="http://www.w3.org/2000/svg"
   xmlns:sodipodi="http://sodipodi.sourceforge.net/DTD/sodipodi-0.dtd"
   xmlns:inkscape="http://www.inkscape.org/namespaces/inkscape"
   version="1.1"
   id="svg2949"
   width="283"
   height="443"
   viewBox="0 0 283 443"
   sodipodi:docname="feu53.svg"
   inkscape:version="0.92.4 (5da689c313, 2019-01-14)">
  <metadata
     id="metadata2955">
    <rdf:RDF>
      <cc:Work
         rdf:about="">
        <dc:format>image/svg+xml</dc:format>
        <dc:type
           rdf:resource="http://purl.org/dc/dcmitype/StillImage" />
        <dc:title />
      </cc:Work>
    </rdf:RDF>
  </metadata>
  <defs
     id="defs2953" />
  <sodipodi:namedview
     pagecolor="#ffffff"
     bordercolor="#666666"
     borderopacity="1"
     objecttolerance="10"
     gridtolerance="10"
     guidetolerance="10"
     inkscape:pageopacity="0"
     inkscape:pageshadow="2"
     inkscape:window-width="1920"
     inkscape:window-height="1017"
     id="namedview2951"
     showgrid="false"
     inkscape:zoom="1.5067919"
     inkscape:cx="14.592419"
     inkscape:cy="194.95353"
     inkscape:window-x="-8"
     inkscape:window-y="-8"
     inkscape:window-maximized="1"
     inkscape:current-layer="svg2949" />
  <g
     id="g6765"
     transform="translate(-12.201271,-17.832627)">
    <path
       style="fill:#d7d7f4"
       d="m 144.83283,423.34202 c -2.15653,-3.16913 -2.51837,-3.35096 -3.64426,-1.83128 -1.13302,1.52931 -1.25,1.48215 -1.25,-0.50393 0,-1.20512 -0.45,-2.19113 -1,-2.19113 -0.55,0 -1,0.45 -1,1 0,0.55 -0.40787,1 -0.90638,1 -0.49851,0 -0.67103,-0.9 -0.38337,-2 0.30554,-1.16838 0.0307,-2 -0.66101,-2 -0.69529,0 -0.94259,-0.76068 -0.59911,-1.84287 0.35065,-1.1048 -0.29015,-2.95532 -1.59999,-4.62051 l -2.18489,-2.77764 2.31865,0.73591 c 1.75006,0.55545 2.18246,0.40108 1.76331,-0.62949 -2.20553,-5.4227 -2.19387,-5.48059 0.59266,-2.94109 l 2.66013,2.42432 0.0153,-3.42432 c 0.008,-1.88337 0.45154,-4.09931 0.9847,-4.92431 0.70991,-1.09851 0.97347,-0.36246 0.98469,2.75 0.008,2.3375 0.37531,4.25 0.81531,4.25 0.44,0 1.31482,-0.51482 1.94405,-1.14405 0.85873,-0.85873 0.99938,-0.54699 0.56396,1.25 -0.47639,1.96606 -0.34125,2.17058 0.75595,1.14405 2.18852,-2.04758 3.39675,-1.41656 1.43604,0.75 -1.60085,1.76892 -1.62239,2 -0.18637,2 0.96306,0 1.40994,0.55678 1.09843,1.36858 -0.31609,0.82371 0.39312,1.66313 1.78138,2.10842 2.21551,0.71064 2.18814,0.76601 -0.69344,1.40263 -1.99456,0.44065 -2.58107,0.92681 -1.75,1.45059 1.99819,1.25936 1.44292,2.86579 -0.75,2.16978 -1.1,-0.34913 -1.99832,-0.26695 -1.99626,0.18261 0.002,0.44957 0.9263,2.33064 2.05389,4.18017 1.12758,1.84953 1.86581,3.54711 1.64051,3.77241 -0.22529,0.2253 -1.48704,-1.17369 -2.80388,-3.10885 z m -0.89723,-35.25595 -2.20053,-3.72961 -1.43019,2.72961 c -0.7866,1.50128 -1.57841,2.72961 -1.75958,2.72961 -0.18116,0 -0.12005,-1.09509 0.13582,-2.43354 0.40869,-2.13793 0.17926,-2.35982 -1.88868,-1.82659 -1.99251,0.51378 -2.16695,0.3787 -1.13626,-0.87989 1.54858,-1.89101 0.69799,-6.97967 -1.43747,-8.59965 -0.89878,-0.68181 -1.34036,-1.53344 -0.98131,-1.8925 0.35906,-0.35906 1.41675,-0.0262 2.35042,0.73967 1.50831,1.23724 1.63515,1.16951 1.13762,-0.6075 -0.30798,-1.1 -0.87368,-2.9 -1.25712,-4 -0.63455,-1.82041 -0.51877,-1.79879 1.28938,0.24079 l 1.98655,2.2408 0.99381,-3.7408 c 0.88164,-3.31857 1.00547,-3.4304 1.09716,-0.99079 0.0568,1.5125 0.55335,2.75 1.10335,2.75 0.55,0 1,-0.45 1,-1 0,-0.55 0.48032,-1 1.06739,-1 0.61231,0 0.79675,0.85269 0.43261,2 -0.34913,1.1 -0.30238,2 0.10387,2 0.40626,0 1.63124,-0.7875 2.72219,-1.75 1.96794,-1.73624 1.96918,-1.7277 0.15781,1.08534 -1.44979,2.25152 -1.55824,3.00066 -0.52668,3.6382 0.71447,0.44157 1.03112,1.23635 0.70367,1.76618 -0.32745,0.52983 1.3024,1.58953 3.62189,2.3549 l 4.21725,1.39157 -4.6984,0.30959 c -3.78131,0.24916 -4.58128,0.6148 -4.09837,1.87324 0.50525,1.31665 0.26242,1.38296 -1.53732,0.41977 -2.0106,-1.07604 -2.07885,-0.98999 -1.15079,1.45098 0.54261,1.42718 1.45202,3.46457 2.02091,4.52755 1.85939,3.4743 0.21723,2.02711 -2.039,-1.79693 z m -0.49703,-30.27039 c -0.6514,-2.05237 -2.5,-2.79181 -2.5,-1 0,0.55 -0.42416,1 -0.94258,1 -0.51842,0 -0.76926,-0.9 -0.55742,-2 0.21184,-1.1 -0.009,-2 -0.49003,-2 -0.48136,0 -1.16084,0.9 -1.50997,2 -0.34913,1.1 -1.14445,2 -1.76739,2 -0.80604,0 -0.78661,-0.346 0.0674,-1.2 1.67734,-1.67734 1.51752,-4.13582 -0.22538,-3.46701 -1.00993,0.38755 -1.33994,-0.0913 -1.13223,-1.64301 0.16123,-1.20449 0.628,-2.98321 1.03726,-3.95271 0.42689,-1.01128 0.21791,-2.39677 -0.49022,-3.25 -0.85751,-1.03323 -0.89166,-1.48727 -0.11188,-1.48727 0.61734,0 1.13675,-0.7875 1.15424,-1.75 0.0288,-1.58346 0.17153,-1.56527 1.5,0.19113 1.35656,1.79353 1.47354,1.56542 1.53849,-3 0.0386,-2.71762 0.45702,-5.84113 0.92971,-6.94113 0.62751,-1.46029 0.88698,-0.5158 0.96152,3.5 0.0936,5.04229 0.22341,5.33964 1.55995,3.573 0.80183,-1.05985 1.72397,-1.66089 2.04922,-1.33565 0.32524,0.32525 0.0684,1.56844 -0.57069,2.76265 -0.63912,1.19421 -0.96928,2.36405 -0.73368,2.59965 0.23559,0.2356 1.62205,-0.5106 3.08102,-1.65823 1.45896,-1.14762 2.65266,-1.74542 2.65266,-1.32845 0,0.41697 -0.92416,1.74185 -2.05368,2.94417 l -2.05368,2.18604 2.80368,-0.43866 2.80368,-0.43865 -2.29332,2.01243 -2.29331,2.01243 2.79331,1.60444 2.79332,1.60443 -2.75,-0.41113 c -1.5125,-0.22612 -2.75,-0.11353 -2.75,0.2502 0,0.36373 0.5325,1.19383 1.18333,1.84466 1.66823,1.66823 0.18917,2.7707 -1.65916,1.23673 -1.78347,-1.48015 -1.96965,-0.32195 -0.54892,3.41484 0.56537,1.48703 0.59369,2.5651 0.0674,2.5651 -0.49933,0 -1.19351,-0.9 -1.54264,-2 z m -2.08936,-34.5 c -0.3451,-1.375 -0.97379,-2.5 -1.39708,-2.5 -0.42329,0 -1.51937,1.0125 -2.43573,2.25 l -1.66611,2.25 0.5872,-2.84565 c 0.32296,-1.56511 0.0849,-3.45086 -0.52897,-4.19056 -0.6139,-0.7397 -1.75828,-1.09851 -2.54306,-0.79736 -0.78479,0.30115 -1.42689,0.25857 -1.42689,-0.0946 0,-0.3532 0.74189,-1.77445 1.64865,-3.15834 1.24135,-1.89453 1.36487,-2.79995 0.5,-3.66482 -1.63332,-1.63332 -1.42221,-3.0676 0.35135,-2.38702 1.08369,0.41585 1.5,-0.10953 1.5,-1.89301 0,-1.35774 0.39752,-2.46862 0.88337,-2.46862 0.48585,0 1.20021,1.0125 1.58746,2.25 0.6117,1.95479 0.87654,1.65957 2.01845,-2.25 l 1.31437,-4.5 0.0982,4.44113 c 0.0928,4.19578 0.18467,4.33389 1.66379,2.5 1.50042,-1.8603 1.54737,-1.82421 1.12758,0.8669 -0.32336,2.0729 -0.0815,2.67123 0.92372,2.28548 1.03449,-0.39697 1.25515,0.31005 0.91818,2.94197 -0.24396,1.90549 -0.0142,3.46452 0.51067,3.46452 0.52483,0 0.95424,0.45 0.95424,1 0,0.55 -0.72675,1 -1.61501,1 -1.48668,0 -1.48668,0.19586 0,2.46482 0.88826,1.35565 1.61501,2.73629 1.61501,3.06809 0,0.3318 -1.34403,-0.35375 -2.98673,-1.52346 l -2.98673,-2.12674 0.61173,3.05865 c 0.33645,1.68225 0.33905,3.05864 0.006,3.05864 -0.33327,0 -0.8883,-1.125 -1.23341,-2.5 z m 4.17021,-31.34366 c -0.86165,-1.66623 -2.02363,-3.31196 -2.5822,-3.65717 -0.55856,-0.34521 -1.43324,0.41375 -1.94372,1.68659 -0.84117,2.09736 -0.93456,1.98623 -0.99651,-1.18576 l -0.0684,-3.5 -2.45907,3 c -2.49332,3.04178 -3.3143,2.83213 -1.58234,-0.40407 1.21592,-2.27187 0.23399,-6.09593 -1.56524,-6.09593 -0.76085,0 -1.38337,-0.49814 -1.38337,-1.10699 0,-0.60884 0.66059,-0.8535 1.46797,-0.54367 0.80739,0.30982 1.73395,0.13297 2.05902,-0.39301 0.32508,-0.52598 0.077,-0.95633 -0.55131,-0.95633 -0.62829,0 -0.94401,-0.5625 -0.7016,-1.25 0.24241,-0.6875 -0.42573,-2.4875 -1.48476,-4 -1.05903,-1.5125 -1.58637,-2.75 -1.17187,-2.75 0.41451,0 1.77679,0.96119 3.02729,2.13598 l 2.27365,2.13598 -0.46827,-3.88598 c -0.43932,-3.64574 -0.40061,-3.71558 0.62621,-1.12975 0.60197,1.51593 1.50606,2.50187 2.00908,2.19098 0.50302,-0.31088 0.92148,-2.00119 0.9299,-3.75623 0.0117,-2.42807 0.24708,-2.83235 0.98469,-1.69098 0.53316,0.825 0.98627,2.625 1.00692,4 l 0.0375,2.5 2.05672,-2.5 2.05673,-2.5 -0.54284,2.53015 c -0.7234,3.3718 0.29366,6.96985 1.97017,6.96985 0.75726,0 1.11221,0.62483 0.80691,1.42043 -0.35846,0.93413 0.25142,1.53326 1.78139,1.75 1.27955,0.18126 2.23166,0.77957 2.1158,1.32957 -0.11585,0.55 -1.69085,1.2329 -3.5,1.51756 -3.03839,0.47808 -3.1374,0.60587 -1.29768,1.675 1.09542,0.63659 1.65042,1.49869 1.23333,1.91577 -0.41708,0.41709 -1.29083,0.22584 -1.94167,-0.425 -2.28892,-2.28892 -2.75051,-1.14178 -1.15005,2.85816 0.88939,2.22282 1.36893,4.28963 1.06564,4.59293 -0.3033,0.30329 -1.25643,-0.81184 -2.11807,-2.47808 z m 3.41915,-18.09732 c 0,-0.51754 0.44485,-1.21592 0.98855,-1.55194 0.56686,-0.35034 0.7345,0.0511 0.39301,0.94098 -0.66479,1.73242 -1.38156,2.04939 -1.38156,0.61096 z m -2.48619,-14.37358 c -1.07175,-1.75199 -2.34483,-4.08544 -2.82907,-5.18544 -0.84237,-1.91351 -0.92615,-1.89189 -1.93725,0.5 l -1.0568,2.5 -0.68563,-3 -0.68563,-3 -1.13497,2.75 c -0.62423,1.5125 -1.42735,2.75 -1.78471,2.75 -0.35736,0 -0.36953,-1.40108 -0.0271,-3.1135 l 0.6227,-3.11351 -2.58446,1.69341 c -1.42146,0.93137 -2.79412,1.48375 -3.05037,1.22751 -0.25624,-0.25625 0.77797,-1.44433 2.29826,-2.64018 2.27077,-1.78619 2.50328,-2.33928 1.30266,-3.09869 -0.80382,-0.50843 -2.50055,-0.93131 -3.77051,-0.93973 -3.5304,-0.0234 -1.52726,-2.00407 2.11804,-2.09426 1.75504,-0.0434 2.62848,-0.30592 1.94098,-0.58333 -0.6875,-0.27741 -1.25,-1.16844 -1.25,-1.98007 0,-0.81163 0.46804,-1.18642 1.04008,-0.83288 0.68462,0.42312 0.79881,-0.32568 0.33413,-2.19098 -0.63755,-2.55919 -0.54453,-2.7008 0.95992,-1.46135 1.41196,1.16326 1.68393,1.16326 1.78435,0 0.0652,-0.75484 0.0529,-2.04744 -0.0273,-2.87244 -0.10613,-1.0923 0.26937,-0.9724 1.38152,0.44113 0.83999,1.06762 1.52725,2.53012 1.52725,3.25 0,2.13146 1.70629,1.49176 2.51032,-0.94113 l 0.74358,-2.25 0.45262,2.32645 c 0.31015,1.59414 0.93479,2.14144 1.98439,1.73866 1.14363,-0.43885 1.35809,-0.14147 0.84634,1.17355 -0.78946,2.02865 -0.81477,2.19848 -0.65567,4.40005 0.0754,1.04304 1.39067,1.87738 3.61842,2.29531 1.925,0.36113 3.5,1.10661 3.5,1.65661 0,0.60944 -1.46457,0.73515 -3.75,0.32186 l -3.75,-0.67814 2.25,2.44727 c 1.2375,1.34601 2.25,2.76615 2.25,3.15588 0,0.38974 -1.125,-0.0285 -2.5,-0.92946 -1.48011,-0.9698 -2.5,-1.19144 -2.5,-0.54329 0,0.60213 0.73133,2.92255 1.62518,5.1565 0.89385,2.23395 1.4479,4.239 1.23122,4.45568 -0.21667,0.21668 -1.27084,-1.03949 -2.34259,-2.79149 z m -2.64621,-33.18544 c -0.34782,-0.55 -0.95235,-2.49104 -1.34339,-4.31342 -0.63749,-2.97095 -0.84199,-3.13425 -1.97855,-1.57992 -1.10777,1.51498 -1.36904,1.11327 -2.0726,-3.18658 -0.44276,-2.70604 -0.7088,-5.66771 -0.59119,-6.58149 0.1176,-0.91378 -0.2577,-1.95283 -0.83402,-2.30902 -0.57632,-0.35618 -1.04785,-1.12615 -1.04785,-1.71103 0,-0.68678 0.51367,-0.63712 1.45031,0.14022 1.2345,1.02455 1.38198,0.63357 0.99115,-2.62756 l -0.45916,-3.8312 1.46375,3 c 0.80506,1.65 1.51115,2.325 1.56909,1.5 0.0579,-0.825 0.2718,-3.525 0.47523,-6 0.20343,-2.475 0.64467,-24.8246 0.98053,-49.66578 0.40032,-29.60855 0.26721,-45.37804 -0.38645,-45.78202 -0.5484,-0.33894 -0.76558,-1.21958 -0.48262,-1.95698 0.28297,-0.7374 -0.43459,-5.266755 -1.59458,-10.06524 -2.2386,-9.260342 -2.29007,-14.352765 -0.0604,-5.975703 2.48461,9.334879 4.40046,14.946433 5.31147,15.557393 0.54828,0.3677 0.53989,1.96315 -0.021,4 -0.51321,1.86358 -1.06002,21.16333 -1.21513,42.88833 -0.15511,21.725 -0.39623,43.2125 -0.53582,47.75 -0.13959,4.5375 -0.0182,8.25 0.26969,8.25 0.28792,0 1.14577,-0.7875 1.90633,-1.75 1.21677,-1.53984 1.30124,-1.26962 0.70339,2.25 -0.6192,3.6453 -0.53253,3.8783 0.9774,2.62756 0.91127,-0.75485 1.65686,-1.06277 1.65686,-0.68426 0,0.3785 -0.48862,1.60118 -1.08583,2.71707 -0.98028,1.83167 -0.85953,1.95706 1.24216,1.29001 2.07533,-0.65868 2.17989,-0.56042 0.96338,0.90537 -1.209,1.45677 -1.05607,1.64425 1.34118,1.64425 1.72165,0 2.55323,0.45464 2.28636,1.25 -0.23069,0.6875 -1.05569,1.31059 -1.83334,1.38465 -3.14896,0.29988 -3.34233,0.46786 -1.66391,1.44545 0.9625,0.5606 1.75,1.46275 1.75,2.00477 0,0.6302 -0.69735,0.61229 -1.93426,-0.0497 -1.06388,-0.56934 -2.14675,-1.03517 -2.40642,-1.03517 -0.25967,0 -0.21692,0.9759 0.095,2.16867 0.44294,1.6938 0.21646,2.03411 -1.0343,1.55415 -1.23172,-0.47266 -1.67283,0.12326 -1.91074,2.58133 -0.17013,1.75772 -0.5939,2.74585 -0.94172,2.19585 z m 12.1324,-137.500002 c 1.1749,-1.65 2.30962,-3 2.52158,-3 0.21197,0 -0.38117,1.347155 -1.31809,2.993677 -0.93692,1.646523 -2.07163,2.996523 -2.52158,3 -0.44996,0.0035 0.14319,-1.343677 1.31809,-2.993677 z m -6.98469,-3.583333 c 0.008,-1.054167 0.47209,-2.591667 1.03038,-3.416667 0.74131,-1.095458 0.83408,-0.690916 0.34401,1.5 -0.36908,1.65 -0.83275,3.1875 -1.03038,3.416667 -0.19762,0.229166 -0.35243,-0.445834 -0.34401,-1.5 z M 135.93857,74.815678 c -0.67396,-2.809375 -0.99362,-5.339716 -0.71035,-5.622981 0.28326,-0.283265 1.01831,1.831692 1.63343,4.699904 0.61512,2.868212 0.93478,5.398553 0.71035,5.622981 -0.22443,0.224428 -0.95947,-1.890529 -1.63343,-4.699904 z m 15.73121,-0.08016 c 0.35361,-1.352204 0.8069,-1.805497 1.05655,-1.056551 0.24048,0.721441 -0.0382,1.787158 -0.61931,2.36826 -0.74207,0.742068 -0.87221,0.351636 -0.43724,-1.311709 z m 14.9878,1.08016 c 2.18421,-3.343677 11.49938,-15 11.98728,-15 0.65329,0 -2.13626,4.298457 -5.02962,7.750207 -3.47119,4.141112 -8.02989,8.891218 -6.95766,7.249793 z M 133.51,65.244249 c -0.36782,-1.465513 -0.47591,-2.857426 -0.24019,-3.09314 0.23571,-0.235714 0.72951,0.770485 1.09733,2.235998 0.36782,1.465513 0.47591,2.857426 0.24019,3.09314 -0.23571,0.235714 -0.72951,-0.770485 -1.09733,-2.235998 z m -24.57143,-6.258896 c 0,-0.845543 2.15455,-3.614062 4.78789,-6.152264 3.1194,-3.006702 6.86558,-5.369883 10.75,-6.781369 3.27916,-1.19155 7.64961,-2.457193 9.71211,-2.812539 2.81582,-0.485135 3.747,-0.306967 3.73795,0.715206 -0.007,0.74871 -1.08977,3.24605 -2.407,5.549643 -1.31723,2.303594 -2.70652,5.606885 -3.08732,7.340647 -0.58784,2.676422 -1.01702,3.044778 -2.84299,2.44008 -4.4013,-1.457554 -10.30448,-1.519341 -15.40064,-0.161196 -4.66342,1.242819 -5.25,1.227377 -5.25,-0.138208 z m 46.00146,-2.575129 c -0.67209,-2.252 -2.29736,-5.934082 -3.61172,-8.182404 -1.31436,-2.248321 -2.38974,-4.443335 -2.38974,-4.877808 0,-1.517591 8.20206,0.53856 14.326,3.591346 3.3957,1.692755 7.8615,4.698295 9.924,6.678976 2.0625,1.980682 3.75,3.86874 3.75,4.195685 0,0.326945 -2.8125,0.419481 -6.25,0.205636 -3.83138,-0.238348 -7.85143,0.166878 -10.38829,1.047153 l -4.13829,1.435962 z m -5.00146,2.247968 c -1.37587,-0.567249 -5.53516,-0.789736 -9.25,-0.494796 -5.9011,0.468519 -6.75,0.32171 -6.75,-1.167337 0,-2.135691 5.90375,-11.146639 8.25,-12.592057 2.40044,-1.478801 4.59826,0.04451 7.94913,5.509569 2.88815,4.710379 4.56831,9.942766 3.15928,9.838721 -0.47213,-0.03486 -1.98341,-0.527208 -3.35841,-1.0941 z"
       id="path6771"
       inkscape:connector-curvature="0" />
    <path
       style="fill:#d42aff"
       d="m 144.83283,423.34202 c -2.15653,-3.16913 -2.51837,-3.35096 -3.64426,-1.83128 -1.13302,1.52931 -1.25,1.48215 -1.25,-0.50393 0,-1.20512 -0.45,-2.19113 -1,-2.19113 -0.55,0 -1,0.45 -1,1 0,0.55 -0.40787,1 -0.90638,1 -0.49851,0 -0.67103,-0.9 -0.38337,-2 0.30554,-1.16838 0.0307,-2 -0.66101,-2 -0.69529,0 -0.94259,-0.76068 -0.59911,-1.84287 0.35065,-1.1048 -0.29015,-2.95532 -1.59999,-4.62051 l -2.18489,-2.77764 2.31865,0.73591 c 1.75006,0.55545 2.18246,0.40108 1.76331,-0.62949 -2.20553,-5.4227 -2.19387,-5.48059 0.59266,-2.94109 l 2.66013,2.42432 0.0153,-3.42432 c 0.008,-1.88337 0.45154,-4.09931 0.9847,-4.92431 0.70991,-1.09851 0.97347,-0.36246 0.98469,2.75 0.008,2.3375 0.37531,4.25 0.81531,4.25 0.44,0 1.31482,-0.51482 1.94405,-1.14405 0.85873,-0.85873 1.00422,-0.60934 0.58337,1 -0.32603,1.24674 -0.0934,2.14405 0.55595,2.14405 0.61415,0 1.11663,-0.45 1.11663,-1 0,-0.55 0.51974,-1 1.15499,-1 0.65499,0 0.37144,0.86581 -0.65499,2 -1.60085,1.76892 -1.62239,2 -0.18637,2 0.96306,0 1.40994,0.55678 1.09843,1.36858 -0.31609,0.82371 0.39312,1.66313 1.78138,2.10842 2.21551,0.71064 2.18814,0.76601 -0.69344,1.40263 -1.99456,0.44065 -2.58107,0.92681 -1.75,1.45059 1.99819,1.25936 1.44292,2.86579 -0.75,2.16978 -1.1,-0.34913 -1.99832,-0.26695 -1.99626,0.18261 0.002,0.44957 0.9263,2.33064 2.05389,4.18017 1.12758,1.84953 1.86581,3.54711 1.64051,3.77241 -0.22529,0.2253 -1.48704,-1.17369 -2.80388,-3.10885 z m -0.89723,-35.25595 -2.20053,-3.72961 -1.43019,2.72961 c -0.7866,1.50128 -1.57841,2.72961 -1.75958,2.72961 -0.18116,0 -0.12005,-1.09509 0.13582,-2.43354 0.40869,-2.13793 0.17926,-2.35982 -1.88868,-1.82659 -1.99251,0.51378 -2.16695,0.3787 -1.13626,-0.87989 1.54858,-1.89101 0.69799,-6.97967 -1.43747,-8.59965 -0.89878,-0.68181 -1.34036,-1.53344 -0.98131,-1.8925 0.35906,-0.35906 1.41675,-0.0262 2.35042,0.73967 1.50831,1.23724 1.63515,1.16951 1.13762,-0.6075 -0.30798,-1.1 -0.87368,-2.9 -1.25712,-4 -0.63455,-1.82041 -0.51877,-1.79879 1.28938,0.24079 l 1.98655,2.2408 0.99381,-3.7408 0.99381,-3.74079 0.17103,4 c 0.1555,3.63686 0.26954,3.79573 1.25616,1.75 0.59683,-1.2375 1.4967,-2.25 1.99971,-2.25 0.50302,0 0.62893,0.9 0.2798,2 -0.34913,1.1 -0.30238,2 0.10387,2 0.40626,0 1.63124,-0.7875 2.72219,-1.75 1.96794,-1.73624 1.96918,-1.7277 0.15781,1.08534 -1.44979,2.25152 -1.55824,3.00066 -0.52668,3.6382 0.71447,0.44157 1.03112,1.23635 0.70367,1.76618 -0.32745,0.52983 1.3024,1.58953 3.62189,2.3549 l 4.21725,1.39157 -4.6984,0.30959 c -3.93791,0.25948 -4.59551,0.58432 -4.06277,2.0069 0.55784,1.4896 0.42619,1.52691 -1.07577,0.30482 -0.94126,-0.76588 -1.8989,-1.20499 -2.12807,-0.97582 -0.22918,0.22918 0.43469,2.3183 1.47527,4.6425 1.04058,2.3242 1.73341,4.22582 1.53962,4.22582 -0.19378,0 -1.34256,-1.67833 -2.55285,-3.72961 z m -0.49703,-30.27039 c -0.6514,-2.05237 -2.5,-2.79181 -2.5,-1 0,0.55 -0.42416,1 -0.94258,1 -0.51842,0 -0.76926,-0.9 -0.55742,-2 0.21184,-1.1 -0.009,-2 -0.49003,-2 -0.48136,0 -1.16084,0.9 -1.50997,2 -0.34913,1.1 -1.14445,2 -1.76739,2 -0.80604,0 -0.78661,-0.346 0.0674,-1.2 0.66,-0.66 1.2,-1.83314 1.2,-2.60699 0,-0.86593 -0.60197,-1.17599 -1.56539,-0.80629 -1.18929,0.45637 -1.42955,0.12168 -1,-1.39301 0.31096,-1.09654 0.82757,-2.9153 1.14801,-4.0417 0.32044,-1.12639 -0.0171,-2.78564 -0.75,-3.68723 -1.15787,-1.42428 -1.09456,-1.54995 0.48277,-0.9583 1.50578,0.5648 1.71013,0.29827 1.19822,-1.56277 -0.59999,-2.18128 -0.57399,-2.1897 0.93461,-0.30258 1.45632,1.82172 1.5561,1.63718 1.62207,-3 0.0386,-2.71762 0.45702,-5.84113 0.92971,-6.94113 0.61884,-1.44013 0.89805,-0.32038 0.9974,4 0.11689,5.08375 0.30367,5.65641 1.22309,3.75 0.59683,-1.2375 1.45523,-2.25 1.90757,-2.25 0.45234,0 0.37099,1.18741 -0.18079,2.63869 -0.55177,1.45128 -0.76386,2.87805 -0.47131,3.17061 0.29256,0.29255 1.65515,-0.5233 3.02798,-1.813 2.99677,-2.81532 3.35759,-1.54226 0.44238,1.56084 l -2.05368,2.18604 2.80368,-0.43866 2.80368,-0.43865 -2.29332,2.01243 -2.29331,2.01243 2.79331,1.60444 2.79332,1.60443 -2.75,-0.41113 c -1.5125,-0.22612 -2.75,-0.11353 -2.75,0.2502 0,0.36373 0.5325,1.19383 1.18333,1.84466 1.66823,1.66823 0.18917,2.7707 -1.65916,1.23673 -1.78347,-1.48015 -1.96965,-0.32195 -0.54892,3.41484 0.56537,1.48703 0.59369,2.5651 0.0674,2.5651 -0.49933,0 -1.19351,-0.9 -1.54264,-2 z m -7.00108,-35.34565 c 0.32296,-1.56511 0.0849,-3.45086 -0.52897,-4.19056 -0.6139,-0.7397 -1.75828,-1.09851 -2.54306,-0.79736 -0.78479,0.30115 -1.42689,0.25857 -1.42689,-0.0946 0,-0.3532 0.74189,-1.77445 1.64865,-3.15834 1.24135,-1.89453 1.36487,-2.79995 0.5,-3.66482 -1.63332,-1.63332 -1.42221,-3.0676 0.35135,-2.38702 1.08369,0.41585 1.5,-0.10953 1.5,-1.89301 0,-1.35774 0.39752,-2.46862 0.88337,-2.46862 0.48585,0 1.20021,1.0125 1.58746,2.25 0.6117,1.95479 0.87654,1.65957 2.01845,-2.25 l 1.31437,-4.5 0.0982,4.44113 c 0.0928,4.19578 0.18467,4.33389 1.66379,2.5 1.5028,-1.86326 1.54848,-1.83081 1.13867,0.80887 -0.2703,1.74105 0.0244,2.75 0.80322,2.75 0.77779,0 1.10171,1.10318 0.88086,3 -0.19212,1.65 0.0919,3 0.63117,3 0.53926,0 0.98047,0.45 0.98047,1 0,0.55 -0.72675,1 -1.61501,1 -1.48668,0 -1.48668,0.19586 0,2.46482 0.88826,1.35565 1.61501,2.73629 1.61501,3.06809 0,0.3318 -1.3698,-0.37211 -3.04401,-1.56425 l -3.044,-2.16752 0.68985,2.74858 c 0.48833,1.94568 0.35513,2.54172 -0.456,2.04042 -0.63024,-0.3895 -1.14587,-1.35662 -1.14587,-2.14916 0,-0.79254 -0.39511,-1.44098 -0.87803,-1.44098 -0.48291,0 -1.62778,1.0125 -2.54414,2.25 l -1.66611,2.25 z m 9.08193,-30.49801 c -0.86165,-1.66623 -2.02363,-3.31196 -2.5822,-3.65717 -0.55856,-0.34521 -1.43324,0.41375 -1.94372,1.68659 -0.84383,2.10399 -0.93718,1.99626 -1.02751,-1.18576 l -0.0994,-3.5 -2.45907,3 c -2.49132,3.03934 -3.25463,2.83648 -1.52034,-0.40407 1.21592,-2.27187 0.23399,-6.09593 -1.56524,-6.09593 -0.76085,0 -1.38337,-0.49814 -1.38337,-1.10699 0,-0.60884 0.66059,-0.8535 1.46797,-0.54367 0.80739,0.30982 1.73395,0.13297 2.05902,-0.39301 0.32508,-0.52598 0.077,-0.95633 -0.55131,-0.95633 -0.62829,0 -0.94401,-0.5625 -0.7016,-1.25 0.24241,-0.6875 -0.42573,-2.4875 -1.48476,-4 -1.05903,-1.5125 -1.58637,-2.75 -1.17187,-2.75 0.41451,0 1.80062,0.98358 3.08024,2.18572 l 2.3266,2.18573 -0.57269,-3.43573 c -0.54364,-3.26141 -0.50357,-3.31997 0.78982,-1.15436 0.74939,1.25475 1.67663,1.96725 2.06055,1.58334 0.38392,-0.38392 0.70492,-2.08553 0.71334,-3.78137 0.0117,-2.35847 0.2432,-2.7307 0.98469,-1.58333 0.53316,0.825 0.98627,2.625 1.00692,4 l 0.0375,2.5 2.05672,-2.5 2.05673,-2.5 -0.54284,2.53015 c -0.76656,3.57299 0.32748,6.96712 2.25155,6.98516 1.3962,0.0131 1.41963,0.15049 0.1614,0.94621 -1.55292,0.98208 -1.69018,0.8838 3.53535,2.53142 2.52595,0.79643 0.5937,2.50432 -2.8724,2.53886 -3.0118,0.03 -3.08277,0.11367 -1.26398,1.48967 1.05985,0.80183 1.61485,1.77001 1.23333,2.15153 -0.38151,0.38152 -1.22616,0.16117 -1.877,-0.48967 -2.28892,-2.28892 -2.75051,-1.14178 -1.15005,2.85816 0.88939,2.22282 1.36893,4.28963 1.06564,4.59293 -0.3033,0.30329 -1.25643,-0.81184 -2.11807,-2.47808 z m 3.41915,-18.09732 c 0,-0.51754 0.44485,-1.21592 0.98855,-1.55194 0.56686,-0.35034 0.7345,0.0511 0.39301,0.94098 -0.66479,1.73242 -1.38156,2.04939 -1.38156,0.61096 z m -1.87715,-13.30479 c -2.83318,-5.31319 -3.92166,-6.87653 -4.74647,-6.81723 -0.48201,0.0346 -0.93263,0.513 -1.00138,1.063 -0.30389,2.43112 -0.66037,2.29746 -1.3336,-0.5 l -0.72197,-3 -1.13497,2.75 c -0.62423,1.5125 -1.42735,2.75 -1.78471,2.75 -0.35736,0 -0.37975,-1.35 -0.0498,-3 0.33,-1.65 0.21635,-3 -0.25256,-3 -0.4689,0 -1.41275,0.675 -2.09744,1.5 -0.68469,0.825 -1.75229,1.48578 -2.37244,1.4684 -0.62016,-0.0174 0.18268,-1.18337 1.78409,-2.59108 2.33521,-2.05277 2.63218,-2.73639 1.5,-3.45309 -0.77641,-0.49148 -2.45071,-0.9005 -3.72067,-0.90892 -1.28185,-0.008 -2.03408,-0.46016 -1.69098,-1.01531 0.33992,-0.55 2.03148,-1 3.75902,-1 2.44298,0 2.87431,-0.26667 1.94098,-1.2 -1.47256,-1.47256 -1.59114,-3.15977 -0.15992,-2.27523 0.68306,0.42216 0.80329,-0.32993 0.35027,-2.19098 l -0.68982,-2.83379 2.19919,1.94974 2.19918,1.94974 -0.56371,-3.19974 c -0.30999,-1.75986 -0.30884,-3.19974 0.003,-3.19974 0.31145,0 1.03689,1.35 1.61208,3 0.5752,1.65 1.3993,3 1.83135,3 0.43205,0 1.12016,-1.0125 1.52913,-2.25 l 0.74358,-2.25 0.45262,2.32645 c 0.31015,1.59414 0.93479,2.14144 1.98439,1.73866 1.14363,-0.43885 1.35809,-0.14147 0.84634,1.17355 -0.78946,2.02865 -0.81477,2.19848 -0.65567,4.40005 0.0754,1.04304 1.39067,1.87738 3.61842,2.29531 1.925,0.36113 3.5,1.10661 3.5,1.65661 0,0.60125 -1.3956,0.73818 -3.5,0.34339 -2.23847,-0.41994 -3.5,-0.26873 -3.5,0.41951 0,0.59185 0.9,1.55777 2,2.14647 1.1,0.5887 2,1.51491 2,2.05824 0,0.54332 -1.125,0.25074 -2.5,-0.6502 -1.48011,-0.9698 -2.5,-1.19144 -2.5,-0.54329 0,0.60213 0.73133,2.92255 1.62518,5.1565 1.77569,4.43788 1.42478,6.34698 -0.50233,2.73298 z m -3.25525,-34.25423 c -0.34782,-0.55 -0.95235,-2.49104 -1.34339,-4.31342 -0.64801,-3.01998 -0.8267,-3.15516 -2.0177,-1.52637 -1.14547,1.56653 -1.38679,1.04991 -1.9556,-4.18658 -0.35689,-3.2855 -1.10802,-6.80495 -1.66918,-7.82101 -0.56117,-1.01606 -0.76413,-2.10356 -0.45102,-2.41667 0.31311,-0.3131 0.56929,-0.0443 0.56929,0.59738 0,0.64167 0.43875,1.16667 0.975,1.16667 0.56068,0 0.70682,-1.34092 0.3439,-3.15549 -0.45115,-2.25575 -0.30145,-2.95176 0.525,-2.44098 0.63586,0.39298 1.18773,1.47545 1.22639,2.40549 0.0566,1.36218 0.22415,1.30209 0.86161,-0.30902 0.43523,-1.1 0.70236,-2.45 0.59361,-3 -0.10875,-0.55 -0.008,-0.6597 0.2238,-0.24377 0.23183,0.41593 0.88129,0.47207 1.44323,0.12477 0.64995,-0.40168 0.778,0.23283 0.35191,1.74377 l -0.66982,2.37523 2.02662,-2.5 2.02661,-2.5 -0.59803,3.77007 c -0.52392,3.3029 -0.38112,3.68684 1.1524,3.09837 1.54105,-0.59135 1.60664,-0.40301 0.54828,1.57456 -1.11674,2.08664 -1.03674,2.19375 1.12582,1.50738 2.07533,-0.65868 2.17989,-0.56042 0.96338,0.90537 -1.20718,1.45458 -1.06208,1.64425 1.25785,1.64425 1.44234,0 2.62244,0.45 2.62244,1 0,0.55 -0.45,1.05625 -1,1.125 -0.55,0.0687 -1.45,0.2375 -2,0.375 -0.55,0.1375 -1.3375,0.31993 -1.75,0.40541 -0.4125,0.0855 0.0375,0.61408 1,1.17469 0.9625,0.5606 1.75,1.46275 1.75,2.00477 0,0.6302 -0.69735,0.61229 -1.93426,-0.0497 -1.06384,-0.56934 -2.14671,-1.03517 -2.40638,-1.03517 -0.25967,0 -0.23677,0.9 0.0509,2 0.29241,1.11819 0.0307,2 -0.59362,2 -0.61415,0 -1.18049,-0.5625 -1.25854,-1.25 -0.078,-0.6875 -0.41554,0.55 -0.75,2.75 -0.33445,2.2 -0.89267,3.55 -1.24049,3 z m -0.78865,-39.08333 c 0.048,-1.16495 0.28494,-1.4019 0.60416,-0.60417 0.28887,0.72187 0.25335,1.58437 -0.0789,1.91667 -0.3323,0.33229 -0.56864,-0.25834 -0.52522,-1.3125 z m -1,-42 c 0.048,-1.16495 0.28494,-1.4019 0.60416,-0.60417 0.28887,0.72187 0.25335,1.58437 -0.0789,1.91667 -0.3323,0.33229 -0.56864,-0.25834 -0.52522,-1.3125 z"
       id="path6769"
       inkscape:connector-curvature="0" />
    <path
       style="fill:#8800aa"
       d="m 146.43857,425.81568 c -0.33992,-0.55 -0.14148,-1 0.44098,-1 0.58246,0 1.05902,0.45 1.05902,1 0,0.55 -0.19844,1 -0.44098,1 -0.24254,0 -0.7191,-0.45 -1.05902,-1 z m -2.40606,-3.38681 c -0.92216,-1.11113 -0.91945,-1.603 0.012,-2.17867 0.72841,-0.45018 0.94238,-0.32174 0.54233,0.32556 -0.36341,0.58801 -0.0954,1.27093 0.59549,1.51761 0.69093,0.24667 0.98286,0.74598 0.64873,1.10957 -0.33412,0.36359 -1.14348,0.0153 -1.79856,-0.77407 z m -11.59394,-13.61319 c -0.33992,-0.55 -0.14148,-1 0.44098,-1 0.58246,0 1.05902,0.45 1.05902,1 0,0.55 -0.19844,1 -0.44098,1 -0.24254,0 -0.7191,-0.45 -1.05902,-1 z m 6.53063,-7 c 0,-0.825 0.43621,-2.175 0.96937,-3 0.86167,-1.33333 0.96937,-1.33333 0.96937,0 0,0.825 -0.43621,2.175 -0.96937,3 -0.86167,1.33333 -0.96937,1.33333 -0.96937,0 z m -0.0306,-14 c 0.5887,-1.1 1.29537,-2 1.57037,-2 0.275,0 0.0183,0.9 -0.57037,2 -0.5887,1.1 -1.29537,2 -1.57037,2 -0.275,0 -0.0183,-0.9 0.57037,-2 z m -2.96972,-3.53649 c 0.62805,-0.75674 0.81214,-1.95811 0.40911,-2.66971 -0.50494,-0.89151 -0.39845,-0.98286 0.34248,-0.2938 1.84228,1.71331 1.79868,3.72083 -0.0877,4.03687 -1.43004,0.23959 -1.56819,0.0162 -0.66391,-1.07336 z m 0.0487,-6.04684 c 0.048,-1.16495 0.28494,-1.4019 0.60416,-0.60417 0.28887,0.72187 0.25335,1.58438 -0.0789,1.91667 -0.3323,0.33229 -0.56864,-0.25834 -0.52522,-1.3125 z m -2.46586,-3.59965 c 0.28881,-0.4673 0.94401,-0.59075 1.45601,-0.27431 0.51199,0.31643 0.9309,0.69877 0.9309,0.84964 0,0.15087 -0.65521,0.27432 -1.45601,0.27432 -0.80081,0 -1.21971,-0.38234 -0.9309,-0.84965 z m 5.11812,-2.89718 c 0.35361,-1.3522 0.8069,-1.8055 1.05655,-1.05655 0.24048,0.72144 -0.0382,1.78716 -0.61931,2.36826 -0.74207,0.74207 -0.87221,0.35164 -0.43724,-1.31171 z m -2.70225,-0.88078 c -0.80907,-0.51167 -1.2107,-1.19066 -0.8925,-1.50885 0.3182,-0.3182 1.14776,0.10733 1.84348,0.94562 0.69572,0.8383 1.09735,1.51728 0.8925,1.50886 -0.20484,-0.008 -1.03441,-0.43396 -1.84348,-0.94563 z m 7.47101,-1.03906 c -0.33992,-0.55 -0.14148,-1 0.44098,-1 0.58246,0 1.05902,0.45 1.05902,1 0,0.55 -0.19844,1 -0.44098,1 -0.24254,0 -0.7191,-0.45 -1.05902,-1 z m 2.83333,-16.45601 c 0,-0.80081 0.375,-1.22425 0.83334,-0.94098 0.45833,0.28326 0.83333,0.93847 0.83333,1.45601 0,0.51754 -0.375,0.94098 -0.83333,0.94098 -0.45834,0 -0.83334,-0.65521 -0.83334,-1.45601 z m -11.631,-2.21066 c 0.28141,-0.73333 0.64036,-1.33333 0.79767,-1.33333 0.15731,0 0.51626,0.6 0.79767,1.33333 0.28141,0.73334 -0.0775,1.33334 -0.79767,1.33334 -0.72013,0 -1.07908,-0.6 -0.79767,-1.33334 z m 10.94909,-7.08833 c -0.25664,-0.41525 0.3918,-1.8151 1.44098,-3.11078 1.04918,-1.29568 1.9076,-1.91104 1.9076,-1.36745 0,0.54359 -0.6963,1.56622 -1.54733,2.27251 -1.2359,1.02571 -1.28622,1.44982 -0.25,2.10714 0.91278,0.57901 0.9443,0.82749 0.10635,0.83827 -0.65504,0.008 -1.40096,-0.32444 -1.6576,-0.73969 z M 138.9386,333.8747 c 0,-0.51754 0.44485,-1.21592 0.98855,-1.55194 0.56686,-0.35034 0.7345,0.0511 0.39301,0.94098 -0.66479,1.73242 -1.38156,2.04939 -1.38156,0.61096 z m 2.5,-11.05902 c 0.33992,-0.55 0.81648,-1 1.05902,-1 0.24254,0 0.44098,0.45 0.44098,1 0,0.55 -0.47656,1 -1.05902,1 -0.58246,0 -0.7809,-0.45 -0.44098,-1 z m -5.62756,-4.75 c -1.24387,-1.58606 -1.2085,-1.62143 0.37756,-0.37756 1.66575,1.30637 2.19548,2.12756 1.37244,2.12756 -0.20765,0 -0.99515,-0.7875 -1.75,-1.75 z m -2.37244,-3.25 c 0.33992,-0.55 0.81648,-1 1.05902,-1 0.24254,0 0.44098,0.45 0.44098,1 0,0.55 -0.47656,1 -1.05902,1 -0.58246,0 -0.7809,-0.45 -0.44098,-1 z m 2.14103,-4.77181 c -0.42857,-0.69345 -1.26766,-0.95894 -1.86464,-0.58999 -0.65322,0.40371 -0.79728,0.20462 -0.3618,-0.5 0.39798,-0.64395 1.09451,-0.94159 1.54783,-0.66142 0.45333,0.28017 1.11914,-0.66559 1.47957,-2.10169 0.95713,-3.81347 1.52906,-2.46861 0.69158,1.62619 -0.46208,2.25935 -0.98776,3.04367 -1.49254,2.22691 z m 8.00963,-2.69616 c -0.30982,-0.80739 -0.22638,-1.67622 0.18543,-1.93073 0.41181,-0.25451 0.81419,0.40608 0.89418,1.46798 0.08,1.0619 -0.003,1.93072 -0.18543,1.93072 -0.18197,0 -0.58435,-0.66059 -0.89418,-1.46797 z m 2.89205,-13.46293 c -0.31644,-0.512 -0.19299,-1.1672 0.27431,-1.45601 0.46731,-0.28881 0.84965,0.13009 0.84965,0.9309 0,0.8008 -0.12345,1.45601 -0.27432,1.45601 -0.15087,0 -0.53321,-0.41891 -0.84964,-0.9309 z m -4.92962,-6.25208 c 0.28881,-0.4673 0.94401,-0.59075 1.45601,-0.27431 0.51199,0.31643 0.9309,0.69877 0.9309,0.84964 0,0.15087 -0.65521,0.27432 -1.45601,0.27432 -0.80081,0 -1.21971,-0.38234 -0.9309,-0.84965 z m 6.14857,-4.52428 c 1.24391,-0.23919 3.04391,-0.23011 4,0.0202 0.95609,0.25029 -0.0617,0.446 -2.26166,0.4349 -2.2,-0.0111 -2.98225,-0.21589 -1.73834,-0.45508 z m -2.76166,-8.35176 c 0,-0.58246 0.45,-0.7809 1,-0.44098 0.55,0.33992 1,0.81648 1,1.05902 0,0.24254 -0.45,0.44098 -1,0.44098 -0.55,0 -1,-0.47656 -1,-1.05902 z m -10.51554,-0.75877 c 0.26645,-0.26645 -0.29605,-1.07714 -1.25,-1.80153 -0.95395,-0.72439 -1.2417,-1.33138 -0.63945,-1.34888 0.60226,-0.0175 1.84163,0.7932 2.75416,1.80153 1.41466,1.56319 1.4375,1.83334 0.15499,1.83334 -0.82729,0 -1.28615,-0.21801 -1.0197,-0.48446 z m 5.01554,-1.18221 c 0.33992,-0.55 0.81648,-1 1.05902,-1 0.24254,0 0.44098,0.45 0.44098,1 0,0.55 -0.47656,1 -1.05902,1 -0.58246,0 -0.7809,-0.45 -0.44098,-1 z m -2.34211,-2 c 0,-1.375 0.22698,-1.9375 0.50439,-1.25 0.27741,0.6875 0.27741,1.8125 0,2.5 -0.27741,0.6875 -0.50439,0.125 -0.50439,-1.25 z m 4.46565,-2.53866 c -0.96498,-2.51469 -0.68031,-3.16355 0.49853,-1.13634 0.58369,1.00375 0.8506,2.03566 0.59313,2.29313 -0.25747,0.25747 -0.74872,-0.26309 -1.09166,-1.15679 z m 6.01483,-6.96134 c -0.31658,-0.825 -0.13972,-1.5 0.39301,-1.5 0.53274,0 0.96862,0.675 0.96862,1.5 0,0.825 -0.17686,1.5 -0.39301,1.5 -0.21616,0 -0.65203,-0.675 -0.96862,-1.5 z m -3.17949,-4.56653 c -0.36253,-0.58659 -0.44468,-1.281 -0.18255,-1.54313 0.26212,-0.26213 0.74306,0.21781 1.06875,1.06653 0.67618,1.76211 0.0999,2.07206 -0.8862,0.4766 z m -4.45888,-0.93347 c 0,-0.55 0.47656,-1 1.05902,-1 0.58246,0 0.7809,0.45 0.44098,1 -0.33992,0.55 -0.81648,1 -1.05902,1 -0.24254,0 -0.44098,-0.45 -0.44098,-1 z m 9.66667,-1.66667 c -0.36667,-0.36666 -0.66667,-1.13166 -0.66667,-1.7 0,-0.6266 0.46577,-0.56756 1.18333,0.15 0.65084,0.65084 0.95084,1.41584 0.66667,1.7 -0.28417,0.28417 -0.81667,0.21667 -1.18333,-0.15 z m -9.16667,-1.33333 c -0.33992,-0.55 0.11008,-1 1,-1 0.88992,0 1.33992,0.45 1,1 -0.33992,0.55 -0.78992,1 -1,1 -0.21008,0 -0.66008,-0.45 -1,-1 z m -5.28943,-4.60086 c -0.70918,-0.76953 -0.84824,-1.39914 -0.30901,-1.39914 1.03844,0 2.54172,1.90221 1.94858,2.46567 -0.19258,0.18294 -0.93038,-0.297 -1.63957,-1.06653 z m 10.78943,0.60086 c 0,-0.55 0.47656,-1 1.05902,-1 0.58246,0 0.7809,0.45 0.44098,1 -0.33992,0.55 -0.81648,1 -1.05902,1 -0.24254,0 -0.44098,-0.45 -0.44098,-1 z m 5.8125,0.31689 c 0.72187,-0.28887 1.58437,-0.25335 1.91667,0.0789 0.33229,0.33229 -0.25834,0.56864 -1.3125,0.52522 -1.16495,-0.048 -1.4019,-0.28494 -0.60417,-0.60416 z m -22.04405,-3.48534 c 0.5811,-0.5811 1.64682,-0.85979 2.36826,-0.61931 0.74895,0.24965 0.29565,0.70294 -1.05655,1.05655 -1.66335,0.43497 -2.05378,0.30483 -1.31171,-0.43724 z m 14.23155,-5.89057 c 0,-0.58246 0.45,-0.7809 1,-0.44098 0.55,0.33992 1,0.81648 1,1.05902 0,0.24254 -0.45,0.44098 -1,0.44098 -0.55,0 -1,-0.47656 -1,-1.05902 z m -8.66667,-1.59177 c 0,-0.9845 0.33697,-1.0378 1.33334,-0.21089 0.73333,0.60861 1.33333,1.20147 1.33333,1.31746 0,0.11599 -0.6,0.21089 -1.33333,0.21089 -0.73334,0 -1.33334,-0.59286 -1.33334,-1.31746 z m 2.66667,-3.40823 c 0,-0.58246 0.45,-0.7809 1,-0.44098 0.55,0.33992 1,0.81648 1,1.05902 0,0.24254 -0.45,0.44098 -1,0.44098 -0.55,0 -1,-0.47656 -1,-1.05902 z m 6.25218,-11.44098 c 0.0111,-2.2 0.21589,-2.98225 0.45508,-1.73834 0.23919,1.24391 0.23011,3.04391 -0.0202,4 -0.25029,0.95609 -0.446,-0.0617 -0.4349,-2.26166 z m -2.17323,-3.08333 c 0.048,-1.16495 0.28494,-1.4019 0.60416,-0.60417 0.28887,0.72187 0.25335,1.58437 -0.0789,1.91667 -0.3323,0.33229 -0.56864,-0.25834 -0.52522,-1.3125 z m -2.62007,-0.4832 c -0.36253,-0.58659 -0.44468,-1.281 -0.18255,-1.54313 0.26212,-0.26213 0.74306,0.21781 1.06875,1.06653 0.67618,1.76211 0.0999,2.07206 -0.8862,0.4766 z m 9.10541,-8.2266 c 0.37553,-0.98622 0.93469,-1.54122 1.24258,-1.23333 0.30789,0.30789 6.4e-4,1.11479 -0.68278,1.79313 -0.98762,0.98026 -1.10248,0.8654 -0.5598,-0.5598 z m -3.56429,-3.26589 c 0,-0.85746 0.45734,-1.27636 1.01631,-0.9309 0.55897,0.34546 0.75742,1.04702 0.44098,1.55902 -0.85723,1.38704 -1.45729,1.12841 -1.45729,-0.62812 z m -4.18616,-0.94786 c -0.37738,-0.38432 -0.32949,-1.665 0.10642,-2.84594 0.43592,-1.18095 0.66594,-2.72093 0.51116,-3.42218 -0.15478,-0.70125 -0.0517,-0.81095 0.22899,-0.24377 0.28073,0.56718 0.92198,0.77687 1.425,0.46598 0.50302,-0.31088 0.91459,-0.0887 0.91459,0.49377 0,0.58246 -0.42011,1.05902 -0.93358,1.05902 -0.51347,0 -1.07597,1.16817 -1.25,2.59594 -0.17403,1.42777 -0.62519,2.2815 -1.00258,1.89718 z m 2.18616,-1.37509 c 0,-0.55 0.45,-1.27811 1,-1.61803 0.55,-0.33992 1,-0.16803 1,0.38197 0,0.55 -0.45,1.27811 -1,1.61803 -0.55,0.33992 -1,0.16803 -1,-0.38197 z m 0.0789,-18.70136 c 0.048,-1.16495 0.28494,-1.4019 0.60416,-0.60417 0.28887,0.72187 0.25335,1.58437 -0.0789,1.91667 -0.3323,0.33229 -0.56864,-0.25834 -0.52522,-1.3125 z m -1,-42 c 0.048,-1.16495 0.28494,-1.4019 0.60416,-0.60417 0.28887,0.72187 0.25335,1.58437 -0.0789,1.91667 -0.3323,0.33229 -0.56864,-0.25834 -0.52522,-1.3125 z"
       id="path6767"
       inkscape:connector-curvature="0" />
  </g>
</svg>
