<?xml version="1.0" encoding="UTF-8" standalone="no"?>
<!-- Created with Inkscape (http://www.inkscape.org/) -->

<svg
   xmlns:dc="http://purl.org/dc/elements/1.1/"
   xmlns:cc="http://creativecommons.org/ns#"
   xmlns:rdf="http://www.w3.org/1999/02/22-rdf-syntax-ns#"
   xmlns:svg="http://www.w3.org/2000/svg"
   xmlns="http://www.w3.org/2000/svg"
   xmlns:sodipodi="http://sodipodi.sourceforge.net/DTD/sodipodi-0.dtd"
   xmlns:inkscape="http://www.inkscape.org/namespaces/inkscape"
   version="1.1"
   id="svg2949"
   width="283"
   height="443"
   viewBox="0 0 283 443"
   sodipodi:docname="feu98.svg"
   inkscape:version="0.92.4 (5da689c313, 2019-01-14)">
  <metadata
     id="metadata2955">
    <rdf:RDF>
      <cc:Work
         rdf:about="">
        <dc:format>image/svg+xml</dc:format>
        <dc:type
           rdf:resource="http://purl.org/dc/dcmitype/StillImage" />
        <dc:title></dc:title>
      </cc:Work>
    </rdf:RDF>
  </metadata>
  <defs
     id="defs2953" />
  <sodipodi:namedview
     pagecolor="#ffffff"
     bordercolor="#666666"
     borderopacity="1"
     objecttolerance="10"
     gridtolerance="10"
     guidetolerance="10"
     inkscape:pageopacity="0"
     inkscape:pageshadow="2"
     inkscape:window-width="1280"
     inkscape:window-height="972"
     id="namedview2951"
     showgrid="false"
     inkscape:zoom="1.5067919"
     inkscape:cx="151.7376"
     inkscape:cy="221.34636"
     inkscape:window-x="-8"
     inkscape:window-y="-8"
     inkscape:window-maximized="1"
     inkscape:current-layer="g180"
     showguides="true" />
  <g
     id="g151"
     transform="translate(25.882805,-2.654647)">
    <g
       id="g180"
       transform="translate(23.228158,-38.492376)">
      <path
         style="fill:#ff0000"
         d="m 12.326256,428.09158 c -0.312153,-1.375 -0.586989,-3.56336 -0.610746,-4.86303 -0.02376,-1.29967 -0.257901,-2.57774 -0.520321,-2.84016 -0.262419,-0.26242 -2.998483,1.42652 -6.080142,3.75319 -3.081659,2.32667 -5.902022,3.93131 -6.267474,3.56586 -0.365452,-0.36545 2.402758,-3.55583 6.151578,-7.08972 7.644178,-7.20592 7.884441,-6.617 -3.434104,-8.41745 l -5.5,-0.87488 6.25,-0.11691 c 4.721037,-0.0883 6.25,-0.46941 6.25,-1.55788 0,-0.79254 -0.403684,-1.69048 -0.897076,-1.99541 -0.493392,-0.30493 -3.305892,-3.3641 -6.25,-6.79815 -4.400304,-5.13257 -4.819036,-5.9131 -2.352924,-4.38595 1.65,1.02178 3.470225,2.36689 4.044945,2.98913 0.57472,0.62225 2.875383,2.8498 5.112585,4.95013 l 4.067641,3.81876 1.761472,-9.06876 c 0.96881,-4.98783 2.193036,-9.06877 2.720502,-9.06877 0.552684,0 0.882765,3.70741 0.779036,8.75 -0.099,4.8125 -0.136387,9.09268 -0.08309,9.51151 0.0533,0.41883 2.621101,-1.29448 5.706227,-3.80735 3.085126,-2.51287 5.871259,-4.30691 6.191407,-3.98677 0.320148,0.32015 -1.790001,2.98402 -4.68922,5.9197 -5.575797,5.64593 -5.482523,6.51213 0.72028,6.68899 1.467517,0.0418 4.243213,0.67518 6.168213,1.40741 3.211813,1.22171 2.758949,1.28679 -5.5,0.79039 l -9,-0.54094 2.556762,2.88353 c 3.932864,4.4355 8.193164,10.46694 7.724418,10.93568 -0.231438,0.23144 -2.846774,-2.09805 -5.811858,-5.17665 -5.971557,-6.20017 -5.910588,-6.2209 -7.720028,2.6245 -0.7865,3.84478 -1.00317,4.13599 -1.488085,2 z m 139.261504,-8.10775 c 0.0125,-0.76574 1.53855,-4.20475 3.39124,-7.64225 1.85268,-3.4375 3.07699,-6.25 2.72068,-6.25 -0.35631,0 -2.17768,0.43875 -4.04748,0.97501 -1.86981,0.53625 -5.24184,1.205 -7.4934,1.4861 -4.14121,0.51702 -3.51672,0.20674 12.73886,-6.3295 1.44892,-0.58259 0.13848,-1.6487 -6.25895,-5.09196 -4.45035,-2.3953 -7.88833,-4.55832 -7.63994,-4.8067 0.62193,-0.62194 14.41797,4.71806 15.11877,5.85198 0.31105,0.50329 1.04084,0.91507 1.62175,0.91507 1.00568,0 0.46919,-8.87401 -0.80104,-13.25 -0.27939,-0.9625 -0.0596,-1.75 0.48845,-1.75 0.54804,0 1.72974,2.52249 2.626,5.60552 l 1.62957,5.60553 3.15539,-4.10553 c 1.73546,-2.25803 3.50909,-4.10552 3.94139,-4.10552 1.13394,0 1.08263,0.14232 -2.19588,6.09023 -1.64004,2.97537 -2.99004,5.67388 -3,5.99668 -0.01,0.3228 3.01938,-0.1652 6.73188,-1.08444 3.7125,-0.91924 8.55,-1.94701 10.75,-2.28394 3.7697,-0.57731 3.85607,-0.53618 1.5,0.71442 -1.375,0.72985 -5.7625,2.36959 -9.75,3.64386 -3.9875,1.27427 -7.25,2.58528 -7.25,2.91335 0,0.32807 2.24107,1.92699 4.98016,3.55316 2.73908,1.62618 4.98908,3.27122 5,3.65565 0.0229,0.80824 -7.01429,-1.9396 -8.43016,-3.29173 -0.5225,-0.49898 -1.59314,-0.90724 -2.37921,-0.90724 -1.16125,0 -1.31967,1.35928 -0.84493,7.25 l 0.58429,7.25 -2.10544,-7.25 c -1.158,-3.9875 -2.37528,-7.22906 -2.70508,-7.20347 -0.3298,0.0256 -3.18713,3.46461 -6.34963,7.64225 -3.1625,4.17764 -5.73978,6.9692 -5.72729,6.20347 z M -22.230919,378.23614 c -0.04487,-2.3955 -0.330232,-4.60409 -0.634134,-4.90799 -0.303901,-0.3039 0.006,-1.24284 0.688776,-2.08652 1.01591,-1.25541 0.987851,-1.38123 -0.154519,-0.69286 -1.108329,0.66786 -1.258889,0.29545 -0.730948,-1.80804 0.860385,-3.42804 -0.422423,-3.38733 -5.693034,0.18067 -2.299096,1.5564 -4.799579,3.19313 -5.556629,3.63717 -2.460708,1.44331 0.102092,-1.92078 4.126454,-5.41665 2.0625,-1.79164 3.75,-3.66091 3.75,-4.15393 0,-0.49303 -1.6875,-0.94127 -3.75,-0.99609 -2.0625,-0.0548 -4.875,-0.41939 -6.25,-0.81015 -2.413447,-0.68588 -2.383153,-0.73436 0.875,-1.40032 1.85625,-0.37942 4.948637,-0.68985 6.871972,-0.68985 3.447245,0 3.473579,-0.032 1.851923,-2.25 -7.022914,-9.60552 -7.260628,-11.81156 -0.561781,-5.21344 4.126796,4.06474 5.208362,4.69047 5.984688,3.4624 0.521165,-0.82443 0.954463,-2.51146 0.962885,-3.74896 0.0084,-1.2375 0.465313,-2.25 1.015313,-2.25 0.55,0 1,1.83064 1,4.06809 v 4.0681 l 3.109839,-2.3181 c 4.524317,-3.37245 8.890161,-5.8799 8.890161,-5.10591 0,0.36936 -1.8,2.35003 -4,4.4015 -2.2,2.05146 -4,4.14986 -4,4.66309 0,0.51324 3.219658,1.20308 7.154795,1.53299 10.982785,0.92076 11.490144,2.99475 0.585714,2.39429 -4.81772,-0.2653 -8.990127,-0.10918 -9.272015,0.34693 -0.281889,0.4561 0.893999,2.43122 2.613083,4.38915 1.719084,1.95793 2.651351,3.55987 2.071705,3.55987 -0.579646,0 -1.413762,-0.60931 -1.853592,-1.35402 -0.729411,-1.23502 -4.473491,-3.64598 -5.661992,-3.64598 -0.271582,0 -0.785599,2.5875 -1.142259,5.75 -0.356661,3.1625 -0.999777,6.875 -1.429147,8.25 -0.648453,2.07658 -0.794491,1.76233 -0.862258,-1.85544 z m 71.77195,-4.64456 c -0.09824,-2.75 -0.09855,-6.4625 -6.83e-4,-8.25 0.218549,-3.99182 -0.58192,-4.04199 -5.671108,-0.3554 -4.837181,3.50404 -10.325586,6.41734 -10.937295,5.80563 -0.245983,-0.24598 1.403386,-1.96666 3.665266,-3.82374 2.261879,-1.85707 5.438138,-4.54893 7.058353,-5.98192 l 2.945846,-2.60543 -7.701105,-1.31732 c -8.678764,-1.48455 -7.817142,-2.78267 1.92588,-2.90153 l 5.761139,-0.0703 -5.127766,-7.05004 c -2.820271,-3.87752 -4.869464,-7.30834 -4.553762,-7.62404 0.315702,-0.3157 3.520057,2.25494 7.120789,5.71254 3.600733,3.4576 6.700976,6.10092 6.889431,5.87404 0.188454,-0.22687 0.92307,-3.225 1.632481,-6.6625 1.78757,-8.66182 3.4776,-8.12052 2.64416,0.84691 l -0.65959,7.0969 4.76599,-3.45034 c 7.38832,-5.34877 14.36397,-9.16238 13.72804,-7.50516 -0.30308,0.78982 -3.70756,4.03278 -7.5655,7.20659 -3.85794,3.1738 -6.86101,5.92398 -6.67349,6.11149 0.18752,0.18752 4.50333,0.87475 9.59071,1.52718 5.08737,0.65243 9.00211,1.43388 8.69943,1.73657 -0.30269,0.30268 -4.81698,0.43658 -10.03177,0.29755 -5.7241,-0.15261 -9.48143,0.13725 -9.48143,0.73143 0,0.54132 0.33804,1.13421 0.7512,1.31755 0.41315,0.18333 2.43815,2.32683 4.5,4.76333 5.97808,7.06436 4.43434,8.18578 -2.21312,1.60768 -4.08944,-4.04677 -6.10441,-5.45027 -6.41559,-4.4687 -0.24951,0.78706 -1.356858,4.80602 -2.460772,8.93102 l -2.007116,7.5 z m 163.975049,-5.52833 c -4.91417,-8.07656 -4.51452,-7.92364 -7.05295,-2.69879 -1.26314,2.59992 -2.62865,4.72712 -3.03448,4.72712 -0.91622,0 0.0784,-6.84469 1.35653,-9.33565 0.51805,-1.0096 0.76803,-2.00953 0.5555,-2.22205 -0.21252,-0.21252 -3.06148,0.87619 -6.33102,2.41936 -6.61704,3.12313 -12.56541,4.90337 -10.94461,3.27551 0.55,-0.55239 3.66283,-2.6028 6.9174,-4.55645 l 5.9174,-3.55209 -6.4174,-2.96843 c -7.28365,-3.36911 -5.41846,-3.95764 3.72736,-1.1761 l 6.14477,1.86883 -0.77002,-2.68489 c -0.4235,-1.47668 -1.53433,-4.16291 -2.4685,-5.96939 -2.71671,-5.25354 -1.03589,-4.71922 2.59327,0.82438 1.82802,2.79233 3.56212,5.07697 3.85356,5.07697 0.29144,0 1.80569,-2.8125 3.36502,-6.25 3.21831,-7.09473 4.50734,-6.41937 2.25079,1.17925 -0.82822,2.78891 -1.4018,5.07075 -1.27464,5.07075 0.12717,0 3.47792,-1.06346 7.4461,-2.36324 3.96819,-1.29978 7.21489,-2.22256 7.21489,-2.05062 0,0.17194 -3.67305,2.22354 -8.16233,4.55913 -4.48929,2.33558 -7.52679,4.44592 -6.75,4.68964 2.50661,0.78647 17.91233,8.171 17.91233,8.58604 0,0.53265 -10.72694,-1.98643 -14.39121,-3.37959 -1.58739,-0.60352 -3.04703,-0.93645 -3.24364,-0.73984 -0.19662,0.19661 1.02459,2.9092 2.71379,6.02798 3.4951,6.45301 2.59585,7.76227 -1.12791,1.64217 z m -71.78455,-8.47167 c -0.63543,-2.2 -1.15784,-5.4625 -1.1609,-7.25 -0.007,-3.92262 -0.60997,-4.00302 -5.0613,-0.67457 -1.89435,1.41649 -4.79428,3.27374 -6.44428,4.12723 l -3,1.5518 2.39937,-2.60068 c 1.31965,-1.43037 3.90408,-3.62512 5.74317,-4.87723 1.83908,-1.2521 3.34709,-2.50155 3.35112,-2.77655 0.004,-0.275 -3.22034,-0.43134 -7.16526,-0.34742 -8.68178,0.18468 -12.04598,-0.77952 -6.3284,-1.81377 2.2,-0.39795 5.8,-0.76374 8,-0.81286 l 4,-0.0893 -2.89621,-2.15823 c -1.59292,-1.18703 -4.29292,-3.46823 -6,-5.06932 -2.98393,-2.79867 -3.00725,-2.8823 -0.60379,-2.16548 1.375,0.41008 4.75,2.26228 7.5,4.11601 l 5,3.37041 0.5,-7.76502 0.5,-7.76501 1.31374,5 c 0.72256,2.75 1.62256,6.2157 2,7.70155 l 0.68626,2.70155 5.85088,-3.95155 c 9.95419,-6.72282 9.72127,-4.65228 -0.3698,3.28736 l -3.48108,2.73891 9.5,0.12941 c 10.78707,0.14693 8.17291,1.57423 -3.25,1.77446 -3.7125,0.0651 -6.7231,0.45581 -6.69021,0.86831 0.0329,0.4125 2.49551,2.775 5.47251,5.25 8.53875,7.09889 6.57784,7.36007 -3.86864,0.51528 l -2.66366,-1.74531 -0.0997,3.86501 c -0.0548,2.12576 -0.43242,4.99001 -0.8391,6.36501 -0.69964,2.36551 -0.80157,2.28481 -1.89474,-1.5 z m -161.166483,-13.5 c 0,-1.1 0.407871,-2 0.90638,-2 0.49851,0 0.671025,0.9 0.383369,2 -0.287656,1.1 -0.695528,2 -0.90638,2 -0.210853,0 -0.383369,-0.9 -0.383369,-2 z m 30.70477,-8.24726 c 0.837456,-2.88901 1.889003,-5.98213 2.336771,-6.87361 0.688314,-1.3704 -0.359614,-1.24815 -6.781155,0.79107 -9.672752,3.07167 -12.569329,2.52059 -5.260386,-1.0008 3.025,-1.45743 6.0625,-2.65426 6.75,-2.65963 2.812809,-0.022 0.896484,-1.69786 -5,-4.37263 -7.293595,-3.30853 -6.267996,-4.51106 1.837655,-2.15468 3.095023,0.89975 5.845035,1.41818 6.111136,1.15208 0.266102,-0.2661 0.128577,-1.53023 -0.30561,-2.80918 -0.434187,-1.27895 -0.700275,-2.66286 -0.591306,-3.07536 0.108969,-0.4125 -0.278433,-0.75 -0.860892,-0.75 -0.582459,0 -0.804656,-0.41157 -0.493769,-0.91459 0.310886,-0.50302 -5.7e-5,-1.1425 -0.690983,-1.42105 -0.835836,-0.33698 -0.869457,-0.53288 -0.100467,-0.58541 0.63567,-0.0434 2.467655,1.90165 4.071078,4.32237 2.859496,4.31705 2.941996,4.36013 4.308838,2.25 0.766438,-1.18322 2.38646,-4.17632 3.600049,-6.65132 2.786769,-5.68335 2.991218,-3.13535 0.361681,4.50753 -1.101424,3.20134 -1.869609,5.9536 -1.707077,6.11614 0.162531,0.16253 3.166234,-0.59796 6.674895,-1.68998 8.345342,-2.59736 9.760363,-1.98828 2.951871,1.2706 -5.240452,2.50834 -5.335576,2.62515 -2.917099,3.58189 7.360376,2.91176 9.436984,4.0529 7.5,4.12142 -1.1,0.0389 -4.211695,-0.60018 -6.914877,-1.42021 -2.703183,-0.82003 -5.109059,-1.29679 -5.346391,-1.05945 -0.237333,0.23733 1.005238,2.51976 2.761268,5.07206 1.75603,2.5523 2.998481,4.83485 2.761002,5.07233 -0.23748,0.23748 -2.405695,-1.67423 -4.818255,-4.24824 l -4.386474,-4.68003 -2.745922,6.09904 c -3.502557,7.77963 -5.072693,8.79567 -3.105581,2.00964 z m 31.868855,-19.50274 c 2.832942,-6.63778 3.387844,-8.25 2.839522,-8.25 -0.295544,0 -2.737758,0.71972 -5.427142,1.59937 -7.787975,2.54732 -8.127583,0.94166 -0.562004,-2.65713 l 6.924,-3.2936 -3.452845,-1.19541 c -4.860635,-1.68279 -14.184529,-6.49719 -13.639142,-7.04258 0.64293,-0.64293 11.933137,2.08503 14.652408,3.54034 2.947107,1.57724 3.260019,1.12312 2.074476,-3.01062 -0.540594,-1.88494 -0.982898,-3.79419 -0.982898,-4.24279 0,-1.63737 2.065548,0.52332 3.878529,4.05718 l 1.859822,3.62517 2.142953,-4.8445 c 2.596706,-5.8703 3.781836,-5.48879 1.702026,0.5479 -0.82211,2.38622 -1.27707,4.55627 -1.011,4.82233 0.26607,0.26607 2.93345,-0.75663 5.92752,-2.27267 2.99407,-1.51604 6.83633,-3.15581 8.53837,-3.64395 5.24558,-1.50442 2.95214,1.10603 -4.35974,4.96233 -3.67316,1.93724 -6.67848,3.82592 -6.67848,4.19707 0,0.37115 3.17294,1.91968 7.05099,3.44118 3.87804,1.5215 7.2796,3.13627 7.55901,3.58837 0.66995,1.08399 1.12074,1.16449 -8.86703,-1.58342 -4.80863,-1.32299 -8.74297,-2.27795 -8.74297,-2.12213 0,0.15582 0.675,1.89881 1.5,3.87332 3.21917,7.70456 0.72047,8.66755 -2.66011,1.02519 -1.063413,-2.40402 -2.094868,-4.37095 -2.29212,-4.37095 -0.197253,0 -2.069695,2.925 -4.160983,6.5 -4.161805,7.1145 -6.34914,8.69197 -3.813162,2.75 z m 65.033538,-5.35687 c -0.24195,-0.76622 -1.20214,-3.64313 -2.13375,-6.39313 -0.93161,-2.75 -1.88174,-5.63187 -2.1114,-6.40417 -0.24676,-0.82979 -2.47933,1.52225 -5.45794,5.75 -2.77221,3.9348 -5.24037,7.15417 -5.4848,7.15417 -0.24443,0 1.1419,-3.15 3.08073,-7 1.93883,-3.85 3.3062,-7 3.0386,-7 -0.26759,0 -3.76075,1.28623 -7.762573,2.85828 -4.00182,1.57206 -8.62603,3.16186 -10.27603,3.53289 -2.5909,0.58261 -2.38635,0.31163 1.5,-1.9871 2.475,-1.46393 6.90055,-3.77914 9.83455,-5.1449 l 5.334543,-2.4832 -5.834543,-3.01634 c -10.16201,-5.25354 -11.33455,-5.89854 -11.33455,-6.235 0,-0.40767 6.98706,1.70954 13.000003,3.93923 8.6276,3.19925 8.30296,3.22372 7.53682,-0.56808 -0.37737,-1.86768 -0.89584,-4.14541 -1.15215,-5.06162 -1.03537,-3.70105 1.60547,-2.59912 2.72483,1.13698 0.66389,2.21587 1.38243,4.02886 1.59675,4.02886 0.21433,0 1.49512,-1.2375 2.84621,-2.75 1.92941,-2.15991 2.31497,-2.32085 1.7968,-0.75 -0.36285,1.1 -1.104,2.57337 -1.647,3.27417 -1.92075,2.47893 0.48259,2.64165 6.60249,0.44704 11.21055,-4.02012 11.17638,-2.01586 -0.0388,2.27587 -2.87872,1.10161 -5.32868,2.45292 -5.44436,3.00292 -0.11567,0.55 3.54289,2.55308 8.13015,4.4513 12.01737,4.9728 8.38697,5.40189 -4.82936,0.5708 -2.40769,-0.88011 -4.63528,-1.34254 -4.95019,-1.02762 -0.31492,0.31491 0.21642,3.53357 1.18075,7.15258 0.96433,3.619 1.51501,6.81833 1.22373,7.1096 -0.29128,0.29128 -0.72756,-0.0973 -0.96951,-0.86353 z m 43.84026,-9.39313 c 0.31069,-2.75 0.85841,-6.33596 1.21714,-7.9688 l 0.65225,-2.9688 -2.90841,1.91951 c -8.42607,5.56109 -15.68974,9.59098 -16.68769,9.25833 -0.61901,-0.20634 2.76984,-3.49255 7.53078,-7.30269 9.64066,-7.71534 9.77011,-7.08754 -2.05362,-9.95958 -4.01616,-0.97554 -6.94116,-2.11043 -6.5,-2.52197 0.73048,-0.68141 10.62339,0.2706 16.01132,1.5408 2.18016,0.51398 2.17031,0.42944 -0.75,-6.43318 -5.23324,-12.29793 -3.1907,-13.40032 3.05244,-1.64744 1.91861,3.61182 3.78837,6.57074 4.15504,6.57538 0.36666,0.005 1.82845,-3.25406 3.24841,-7.24156 2.48267,-6.97177 2.62824,-6.4086 0.93906,3.63318 -0.36811,2.18838 -0.26061,3.71235 0.24633,3.49177 0.49474,-0.21527 4.16203,-2.08086 8.14953,-4.14575 3.9875,-2.06489 7.25,-3.5269 7.25,-3.24892 0,0.27798 -3.46097,3.06493 -7.69104,6.19321 l -7.69103,5.68779 8.44103,2.71465 c 8.61407,2.7703 8.07012,3.78849 -0.9863,1.84623 -8.21339,-1.76145 -8.53766,-1.3784 -5.0538,5.96982 1.66678,3.51559 2.86262,6.55988 2.65741,6.76508 -0.2052,0.2052 -2.03207,-2.12551 -4.05971,-5.17935 -2.02764,-3.05385 -4.0817,-5.30827 -4.56457,-5.00984 -0.48288,0.29844 -1.16974,2.22775 -1.52635,4.28737 -0.35661,2.05962 -1.3222,4.86976 -2.14575,6.24476 -1.43242,2.39158 -1.47286,2.28315 -0.93247,-2.5 z m -42.44742,-20.37756 c 0,-0.48265 0.74867,-1.49515 1.66372,-2.25 1.5086,-1.24448 1.55194,-1.16266 0.46482,0.87756 -1.23991,2.32696 -2.12854,2.89993 -2.12854,1.37244 z m -77.000003,-1.4735 c 0,-0.74308 1.125,-3.4669 2.5,-6.05292 1.375,-2.58601 2.5,-4.84491 2.5,-5.01977 0,-0.17485 -2.8125,-0.70717 -6.25,-1.18292 l -6.25,-0.86501 6.75,-0.30985 c 7.465738,-0.3427 7.968793,-0.9609 5.176264,-6.36106 -2.076702,-4.0159 -1.338238,-4.49567 2.259775,-1.46814 l 2.937176,2.47147 3.367309,-5.14362 c 4.396957,-6.71643 5.018971,-4.57488 0.944895,3.25321 -1.750554,3.36358 -3.014658,6.2741 -2.809122,6.46782 0.205537,0.19373 3.729807,0.868 7.831712,1.49838 4.101901,0.63039 7.664401,1.35255 7.916671,1.60481 0.25226,0.25226 -2.7627,0.45866 -6.699916,0.45866 h -7.15857 l 1.58671,3.96558 c 2.416644,6.03979 1.064928,7.15142 -2.208247,1.81603 -1.592061,-2.59512 -3.22756,-4.73262 -3.634442,-4.75 -0.406882,-0.0174 -2.383093,2.44339 -4.39158,5.46839 -3.869351,5.82766 -4.368635,6.30184 -4.368635,4.14894 z m -31,-9.34578 c 0,-1.1166 0.452165,-4.41444 1.004811,-7.32853 0.552645,-2.91409 0.819763,-5.48339 0.593594,-5.70956 -0.226169,-0.22617 -4.115906,0.7591 -8.64386,2.18948 -4.527953,1.43038 -8.41874,2.41459 -8.646193,2.18714 -0.537831,-0.53784 5.247522,-3.95974 9.573167,-5.66232 l 3.38152,-1.33096 -7.694713,-2.22073 c -7.8239,-2.25802 -9.343922,-2.98542 -8.338827,-3.99051 0.512696,-0.5127 9.636429,0.81813 15.766047,2.29971 2.204031,0.53273 1.934648,-0.0207 -2.30608,-4.73737 -9.245317,-10.28302 -8.510209,-12.00177 1.310534,-3.06416 7.219722,6.5705 6.534466,6.80755 9.462147,-3.27322 0.932497,-3.21083 1.864565,-5.66875 2.071263,-5.46205 0.206698,0.20669 -0.0654,3.49136 -0.604667,7.29926 -1.285677,9.07852 -0.891513,10.04989 3.216123,7.92575 1.749438,-0.90467 5.695022,-2.48849 8.767965,-3.51959 4.540852,-1.52365 5.212626,-1.58177 3.587169,-0.31035 -1.1,0.86041 -4.1375,2.66107 -6.75,4.00146 -2.6125,1.3404 -4.75,2.79694 -4.75,3.23678 0,0.43983 2.929136,1.38191 6.509191,2.09351 3.580055,0.71161 6.786352,1.74228 7.125105,2.2904 0.382397,0.61873 -0.474153,0.78175 -2.259191,0.42997 -1.581308,-0.31163 -5.574435,-0.87558 -8.873616,-1.25321 l -5.998511,-0.68661 3.748511,4.14916 c 6.290818,6.96318 3.88286,7.96863 -2.708148,1.13079 l -2.956659,-3.06738 -2.043341,6.47097 c -2.189596,6.93414 -3.543341,9.1929 -3.543341,5.91217 z m 83.25,-9.49598 c -0.6875,-2.58105 -1.25,-5.59199 -1.25,-6.69098 0,-3.41462 -1.44504,-3.18259 -8.83996,1.4194 -3.93802,2.4507 -7.16004,4.1333 -7.16004,3.73911 0,-0.39419 2.56177,-3.3055 5.69282,-6.46956 3.13105,-3.16407 5.49355,-5.93406 5.25,-6.15554 -0.24355,-0.22148 -3.80618,-2.48325 -7.91696,-5.02615 -4.11077,-2.5429 -7.03577,-4.6215 -6.5,-4.6191 0.91392,0.004 11.86974,3.80819 15.72414,5.45976 1.58126,0.67755 1.75,-0.003 1.75,-7.05713 0,-8.49279 0.95876,-8.78236 3.00305,-0.90699 1.97087,7.59255 2.23235,7.88629 5.05975,5.68388 3.531853,-2.75117 12.232543,-7.22187 12.851093,-6.60332 0.29051,0.2905 -0.13378,0.93173 -0.94285,1.42496 -3.93138,2.39664 -12.971043,10.52004 -12.971043,11.6563 0,0.70775 1.4625,2.04113 3.25,2.96307 1.787503,0.92193 5.275003,3.22017 7.750003,5.10719 4.20491,3.20596 4.30327,3.38337 1.5,2.7055 -1.65,-0.399 -5.56786,-2.00724 -8.706343,-3.57387 l -5.70635,-2.84843 -0.29365,7.24236 -0.29366,7.24236 z m 35.473683,-4.36803 c 0.43954,-1.06653 1.83792,-3.89526 3.1075,-6.28606 1.26959,-2.39079 2.07635,-4.57889 1.7928,-4.86244 -0.28354,-0.28355 -3.95118,0.24882 -8.1503,1.18303 -7.81059,1.7377 -10.78934,1.58704 -5.77473,-0.29206 1.54058,-0.5773 5.44115,-2.15685 8.66793,-3.51013 l 5.86688,-2.4605 -5.86688,-3.76371 c -7.29146,-4.67761 -5.50543,-5.67202 2.76478,-1.53935 l 6.14435,3.07037 -0.59471,-5.02141 c -0.66609,-5.62407 0.54817,-5.82165 2.34363,-0.38136 l 1.17084,3.54768 2.34818,-3.3116 c 1.2915,-1.82139 3.09168,-4.35489 4.00039,-5.63 3.00033,-4.2101 2.63036,-1.49559 -0.48658,3.57009 -3.69912,6.01183 -3.90089,7.72103 -0.80776,6.84252 6.54478,-1.85883 15.04267,-3.63489 15.44877,-3.22878 0.52174,0.52173 -3.86702,2.59653 -10.94877,5.17608 -2.6125,0.95161 -4.75,2.04831 -4.75,2.43712 0,0.38881 1.9125,1.69628 4.25,2.90549 5.20764,2.69397 9.66988,6.06349 8.06977,6.09363 -0.64913,0.0122 -4.09691,-1.32776 -7.66174,-2.97776 -3.56484,-1.65 -6.80476,-3 -7.19983,-3 -0.39507,0 -0.49006,2.025 -0.21109,4.5 0.59712,5.29759 -0.85811,6.09045 -1.81516,0.98895 -0.36227,-1.93107 -1.02967,-3.74033 -1.48312,-4.02057 -0.45344,-0.28024 -2.15005,1.41223 -3.77024,3.76104 -1.62019,2.34882 -3.91516,5.1432 -5.09994,6.20973 -2.13161,1.91886 -2.14578,1.91886 -1.35497,0 z M 34.320213,237.84158 c 0.550031,-0.6875 1.339169,-2.375 1.753641,-3.75 0.414472,-1.375 1.661049,-3.78786 2.770173,-5.36191 l 2.016588,-2.86192 -3.397784,0.67444 c -1.868781,0.37094 -4.59969,1.13615 -6.068686,1.70047 -1.468997,0.56432 -3.475398,0.8711 -4.45867,0.68174 -0.998443,-0.19228 1.593187,-1.63453 5.869876,-3.26661 4.211703,-1.60728 7.476144,-3.21599 7.254313,-3.57492 -0.221831,-0.35893 -2.838529,-1.19757 -5.814883,-1.86365 -2.976354,-0.66608 -6.259394,-1.8925 -7.295644,-2.72538 -1.716782,-1.37985 -1.357066,-1.45651 4.050843,-0.86323 3.264213,0.3581 7.006008,1.05832 8.315099,1.55603 4.410684,1.67694 5.204418,1.23291 4.180162,-2.33846 -2.054712,-7.16436 -0.326588,-9.21905 2.587986,-3.07704 1.453774,3.0636 1.933195,3.42941 2.863942,2.18526 3.835618,-5.12716 7.617878,-9.14085 7.617878,-8.08401 0,0.68008 -1.35,3.10013 -3,5.37789 -2.647668,3.655 -3.840932,6.8413 -2.562053,6.8413 0.6559,0 13.778033,-3.00837 15.937283,-3.65376 1.10895,-0.33147 1.6236,-0.15336 1.25945,0.43585 -0.33868,0.54799 -1.85753,1.29306 -3.37523,1.65571 -5.12507,1.22461 -11.22213,3.81356 -10.75626,4.56735 0.25455,0.41187 2.46875,1.25396 4.92046,1.87131 5.45383,1.37329 7.64726,3.79514 2.48184,2.74029 -1.87302,-0.38249 -5.38902,-0.97364 -7.81332,-1.31365 -4.286727,-0.60123 -4.389101,-0.55206 -3.72593,1.78934 0.375049,1.32416 0.95558,3.75756 1.29007,5.40756 0.828492,4.08686 -1.178633,2.18214 -2.88047,-2.7335 -0.701712,-2.02684 -1.539624,-3.81597 -1.862028,-3.97584 -0.322403,-0.15986 -3.163084,2.74684 -6.312623,6.45934 -3.14954,3.7125 -5.978356,6.75 -6.286257,6.75 -0.307902,0 -0.109796,-0.5625 0.440234,-1.25 z m 51.996084,-22.45155 c 3.43819,-3.18915 6.250693,-6.13595 6.250003,-6.54845 -6.9e-4,-0.4125 -3.852813,-0.75 -8.560273,-0.75 -11.12765,0 -10.14518,-1.63831 1.5302,-2.55166 l 8.944653,-0.69972 -4.707913,-4.42354 c -3.88921,-3.65428 -4.27317,-4.30348 -2.20792,-3.73312 1.375,0.37973 4.06696,1.75189 5.982133,3.04923 1.91518,1.29735 3.82768,2.35881 4.25,2.35881 0.42233,0 0.76787,-2.2875 0.76787,-5.08333 0,-6.48599 2.11416,-6.23371 3.4176,0.40781 0.97985,4.9927 1.6104,5.55164 3.5824,3.17552 0.68469,-0.825 1.97729,-1.48574 2.87244,-1.46832 1.15489,0.0225 0.82891,0.62754 -1.12244,2.08341 -4.0887,3.0505 -3.40978,4.09692 2.5,3.85323 2.8875,-0.11906 6.825,-0.15375 8.75,-0.0771 5.11487,0.20371 1.75461,2.04608 -4,2.19314 -2.475,0.0632 -5.54816,0.40978 -6.82924,0.77008 -2.21109,0.62187 -2.09751,0.82872 2.23903,4.07796 2.51255,1.88257 4.39369,3.59744 4.18032,3.81082 -0.21338,0.21337 -2.90844,-1.03452 -5.98904,-2.7731 l -5.60107,-3.16104 -0.0153,3.34546 c -0.0116,2.52793 -0.2522,2.9789 -0.98469,1.84546 -0.53316,-0.825 -0.97627,-2.7375 -0.98469,-4.25 -0.0153,-2.75002 -1.33854,-3.65405 -2.52902,-1.72782 -0.98756,1.59791 -10.605433,8.48427 -14.486293,10.37213 -3.01127,1.46485 -2.6271,0.89292 2.75125,-4.09586 z m 82.689113,-5.29845 c 0.261,-3.575 0.76786,-7.94947 1.12634,-9.72104 l 0.6518,-3.22104 -8.19543,3.55153 c -4.50748,1.95334 -8.37967,3.36728 -8.60486,3.1421 -0.22518,-0.22519 3.17836,-2.38675 7.56343,-4.80347 4.67763,-2.57797 7.46562,-4.65989 6.7456,-5.03726 -0.67498,-0.35377 -4.60224,-1.46978 -8.72724,-2.48003 -8.86163,-2.17029 -6.98891,-3.04857 3.14705,-1.47592 3.9192,0.60808 7.25693,0.97448 7.41719,0.81422 0.16027,-0.16026 -1.53254,-2.98637 -3.76178,-6.28024 l -4.05318,-5.98885 5.02967,4.86816 c 2.76632,2.67748 5.44163,4.61355 5.94514,4.30236 0.50351,-0.31118 1.76014,-3.05078 2.79252,-6.08799 1.03238,-3.03721 2.03582,-5.36343 2.22987,-5.16938 0.19405,0.19405 -0.16999,3.35501 -0.80898,7.02435 -0.63899,3.66934 -0.93596,6.89738 -0.65993,7.17341 0.27603,0.27602 3.4765,-1.04911 7.11215,-2.94474 3.63565,-1.89563 6.61028,-3.09728 6.61028,-2.67033 0,0.42695 -1.4625,1.48849 -3.25,2.35898 -1.7875,0.87049 -4.57899,2.47577 -6.20332,3.5673 -3.26908,2.1968 -3.61579,1.93209 6.20332,4.73626 7.39205,2.11104 8.21991,3.3488 1.5,2.2427 -2.6125,-0.43002 -5.83224,-0.80868 -7.15499,-0.84147 -2.21653,-0.0549 -2.28325,0.0775 -0.85148,1.69039 0.85443,0.9625 2.51042,3.55 3.67997,5.75 2.00251,3.76686 1.80826,3.65029 -3.33277,-2 -3.84493,-4.2258 -5.60085,-5.55645 -5.9382,-4.5 -0.26343,0.825 -1.87572,5.325 -3.58285,10 l -3.10388,8.5 z m -192.594224,-11.70893 -0.346139,-7.20893 -4.851595,3.024 c -5.965855,3.71852 -7.39298,3.08651 -1.789262,-0.79238 4.636004,-3.20904 5.106368,-4.29373 1.890857,-4.36044 -1.2375,-0.0257 -5.175,-0.66541 -8.75,-1.42165 l -6.5,-1.37497 8.752334,0.17165 c 4.813784,0.0944 8.751284,-0.09 8.75,-0.40984 -0.0013,-0.31982 -2.665936,-3.46872 -5.921449,-6.99755 -3.255513,-3.52884 -5.725863,-6.60932 -5.489667,-6.84551 0.236196,-0.2362 0.987297,0.24663 1.669114,1.07294 0.681818,0.82631 3.808811,3.64494 6.948875,6.26362 5.5082,4.59361 5.725584,4.67897 6.174366,2.42461 0.255837,-1.28514 0.895153,-4.36162 1.420702,-6.83662 l 0.955543,-4.5 0.120091,5.16821 c 0.190997,8.21973 0.730377,8.86642 4.803768,5.75949 4.639135,-3.53844 5.115675,-2.5948 0.801343,1.58682 -1.916761,1.8578 -3.48502,3.71229 -3.48502,4.12109 0,0.40881 3.2625,1.10803 7.25,1.55384 l 7.25,0.81055 -6.981171,0.5 -6.981171,0.5 3.981171,4.47762 c 3.65635,4.1123 3.738497,4.32279 1.006842,2.57996 -1.63588,-1.04371 -3.84153,-2.70558 -4.901443,-3.69304 -2.622228,-2.44298 -3.611241,-1.5209 -3.694513,3.44448 -0.133515,7.96121 -1.71273,8.70554 -2.083576,0.98205 z M 138.2545,187.34158 c -0.44581,-3.9875 -1.08537,-7.25 -1.42126,-7.25 -0.33589,0 -1.43364,0.74474 -2.43945,1.65499 -1.00581,0.91024 -1.82874,1.19034 -1.82874,0.62244 0,-0.5679 0.675,-1.59274 1.5,-2.27743 2.76661,-2.29609 1.53812,-2.82903 -3.47366,-1.50695 -2.73552,0.72162 -7.34802,1.56662 -10.25,1.87779 -5.23138,0.56094 -5.20636,0.54202 2.93664,-2.22126 l 8.21297,-2.78702 -4.58389,-2.22703 c -2.52114,-1.22487 -4.40246,-2.40846 -4.18071,-2.63022 0.58313,-0.58312 9.16419,1.61276 10.28865,2.63286 2.08766,1.8939 2.55,0.50902 2.55,-7.63817 0,-4.675 0.41729,-8.5 0.92732,-8.5 0.51002,0 1.47609,3.40182 2.14681,7.55959 l 1.21949,7.55959 4.01051,-3.80959 4.01051,-3.80959 -2.65732,3.59439 c -3.59864,4.86765 -3.4618,5.99672 0.58608,4.8358 1.78387,-0.5116 4.37137,-0.89466 5.75,-0.85124 l 2.5066,0.0789 -2.5,0.80333 c -1.375,0.44183 -4.525,1.36135 -7,2.04339 l -4.5,1.24005 5.96958,2.89725 c 8.53354,4.14162 9.18218,5.39018 1.24897,2.40413 -7.76737,-2.92363 -7.54202,-3.10669 -7.94475,6.45396 l -0.2738,6.5 -0.81055,-7.25 z m -88.313862,-5.12287 c -0.936921,-3.36992 -2.003928,-6.12713 -2.371127,-6.12713 -0.367199,0 -2.125585,2.25 -3.907524,5 -1.781939,2.75 -3.441872,5 -3.688739,5 -0.495078,0 2.913536,-6.51169 4.816902,-9.20204 2.047153,-2.89358 0.237912,-3.0733 -9.031387,-0.89712 -4.917708,1.15454 -9.335584,2.08123 -9.817501,2.05931 -1.520425,-0.0691 6.932737,-3.98218 11.466917,-5.30813 l 4.343133,-1.27009 -7.078423,-3.26265 c -12.667998,-5.83906 -9.240378,-6.63797 4.246867,-0.98986 3.77009,1.57882 7.091114,2.87058 7.380053,2.87058 0.288938,0 0.296295,-2.03211 0.01635,-4.5158 -0.606719,-5.3828 0.747425,-6.97078 1.684555,-1.97545 0.789658,4.20924 1.755288,4.38297 4.11999,0.74125 0.982121,-1.5125 3.615256,-5 5.851406,-7.75 2.23615,-2.75 4.18435,-5.1875 4.32934,-5.41667 0.14498,-0.22916 0.47991,-0.20035 0.7443,0.064 0.26438,0.26439 -1.58993,3.96007 -4.1207,8.21264 -2.53077,4.25257 -4.43458,7.88851 -4.2307,8.07988 0.20389,0.19137 3.2957,-0.26993 6.8707,-1.02513 3.575,-0.75519 7.85,-1.33496 9.5,-1.28837 2.34648,0.0662 1.69296,0.47681 -3,1.88473 -3.3,0.99002 -8.1375,2.35101 -10.75,3.02442 -2.6125,0.67342 -4.748296,1.50341 -4.746214,1.84443 0.0021,0.34102 3.188044,1.95869 7.079914,3.59483 3.89186,1.63613 7.28853,3.31848 7.54815,3.73854 0.25961,0.42007 -0.11385,0.56851 -0.82991,0.32987 -6.76266,-2.25375 -15.195126,-4.48335 -15.563412,-4.11506 -0.251397,0.2514 -0.003,3.07041 0.552087,6.26447 1.350015,7.7688 0.681188,7.97417 -1.415024,0.43452 z M 92.63534,166.84158 c -0.0387,-3.1625 -0.393643,-5.75 -0.788843,-5.75 -0.39521,0 -3.08408,2.33613 -5.97526,5.19141 -2.89119,2.85527 -5.53622,4.91189 -5.87784,4.57027 -0.65061,-0.65061 4.30803,-8.35521 7.3084,-11.35557 1.65843,-1.65844 1.5117,-1.71108 -2.99646,-1.07497 -2.60716,0.36787 -6.87779,0.91712 -9.49029,1.22054 l -4.75,0.55169 3.5,-1.62303 c 1.925,-0.89267 5.7497,-2.20468 8.49934,-2.91558 l 4.99934,-1.29256 -4.88505,-3.098 c -2.68677,-1.7039 -5.38648,-3.27854 -5.99934,-3.4992 -0.61286,-0.22065 -0.83597,-0.70362 -0.49579,-1.07326 0.66455,-0.72212 11.54562,3.00202 13.65567,4.67377 1.85751,1.47167 2.14132,0.76856 2.35196,-5.82692 0.29057,-9.09806 1.667233,-12.39382 1.858203,-4.44859 0.23486,9.771 0.85797,10.44916 5.01567,5.45875 1.925,-2.31054 4.33132,-4.74016 5.34738,-5.39915 3.61085,-2.34193 2.87085,-0.0307 -1.70508,5.32552 -2.55327,2.98863 -4.6423,5.67769 -4.6423,5.97569 0,0.29801 3.9375,0.32765 8.75,0.0659 9.88296,-0.5376 8.70038,0.97051 -1.68211,2.14516 -3.33734,0.37758 -6.06789,1.03823 -6.06789,1.46813 0,0.4299 2.02251,1.76071 4.49446,2.95736 3.95985,1.91693 6.61379,4.00268 5.09307,4.00268 -0.29178,0 -3.07433,-1.125 -6.18345,-2.5 -3.10912,-1.375 -6.04695,-2.5 -6.52851,-2.5 -0.48156,0 -0.9072,2.3625 -0.94586,5.25 -0.10308,7.69993 -1.76974,10.83708 -1.85942,3.5 z M -0.728646,156.29452 c 0.199677,-3.13662 0.494507,-6.94044 0.655178,-8.45294 0.160671,-1.5125 0.175813,-2.75 0.03365,-2.75 -0.142164,0 -4.415812,2.02342 -9.496994,4.49648 -5.081183,2.47306 -9.49943,4.21146 -9.818327,3.86309 -0.318897,-0.34836 -0.04923,-0.82363 0.599256,-1.05616 0.648487,-0.23254 4.233321,-2.38793 7.966296,-4.78976 7.561294,-4.86501 7.981818,-4.19 -4.145365,-6.654 -7.0956,-1.44168 -4.930908,-2.2227 4.658669,-1.68084 3.762731,0.21261 6.84133,0.0744 6.84133,-0.30723 0,-0.38158 -1.4625,-1.91804 -3.25,-3.41434 -1.7875,-1.4963 -4.825,-4.55704 -6.75,-6.80164 l -3.5,-4.08109 4.5,3.12147 c 2.475,1.71681 6.075,4.72326 8,6.681 1.925,1.95773 3.747387,3.57381 4.04975,3.59127 0.302362,0.0175 1.367698,-3.45575 2.367412,-7.71825 3.089196,-13.17146 3.523471,-13.57978 3.456549,-3.25 -0.03385,5.225 -0.01928,9.84135 0.03237,10.25855 0.05166,0.4172 2.56284,-0.63482 5.580411,-2.33783 7.736262,-4.36608 9.037517,-3.1322 1.656065,1.57032 -3.64391,2.32143 -5.668249,4.18407 -4.9977,4.59849 0.619891,0.38311 4.805715,1.003 9.30183,1.37752 12.94855,1.07861 12.994255,2.77963 0.05331,1.98411 l -11,-0.67621 5.25,5.55266 c 2.8875,3.05397 5.25,5.83525 5.25,6.18062 0,0.96142 -5.144304,-2.9511 -8.437091,-6.41685 -1.615397,-1.70026 -3.466158,-3.09138 -4.112798,-3.09138 -0.688676,0 -1.675853,3.10037 -2.383064,7.48434 -1.454453,9.0161 -2.865044,10.64052 -2.360737,2.7186 z m 170.879416,-14.0498 c 0.20315,-2.8993 0.63103,-5.69483 0.95084,-6.21229 1.08289,-1.75215 -1.42741,-0.95331 -6.61372,2.10465 -6.92286,4.08186 -7.41664,3.02436 -0.80556,-1.72522 l 5.31319,-3.81715 -6.46524,-1.20488 c -3.55587,-0.66269 -7.70273,-1.2259 -9.21523,-1.25157 -1.5125,-0.0257 -2.75,-0.49668 -2.75,-1.04668 0,-0.58823 3.5,-1 8.5,-1 4.675,0 8.5,-0.20834 8.5,-0.46298 0,-0.25464 -0.90946,-2.77029 -2.02102,-5.59034 -2.47433,-6.27742 -0.8868,-6.2033 3.50075,0.16345 l 3.08671,4.47912 2.20827,-4.73502 c 1.21455,-2.60426 1.95642,-5.39132 1.6486,-6.19347 -0.30781,-0.80215 -0.079,-1.75553 0.50852,-2.11862 1.26079,-0.77922 1.29535,1.87714 0.11654,8.95786 -0.45782,2.75 -0.72442,5.11907 -0.59245,5.2646 0.13197,0.14553 2.3568,-0.91854 4.94408,-2.3646 6.52365,-3.64614 7.02995,-2.2063 0.62438,1.77563 -5.80806,3.61048 -5.95893,3.37349 3.97562,6.24495 l 5.5,1.5897 -7.25,-0.51212 c -3.9875,-0.28167 -7.25,-0.32991 -7.25,-0.10721 0,0.2227 1.11958,2.36334 2.48795,4.75698 3.59303,6.28512 3.07703,7.01353 -1.33985,1.89144 l -3.84649,-4.46064 -0.66352,3.5369 c -0.36494,1.9453 -1.28413,4.38562 -2.04263,5.42294 -1.22405,1.67398 -1.33757,1.29336 -1.00974,-3.38543 z m -30.74902,-50.26885 0.40207,-7.1157 -6.86939,3.77998 c -3.77816,2.07899 -7.44275,4.22018 -8.14355,4.75821 -0.70079,0.53802 -1.48861,0.76377 -1.75072,0.50166 -0.58545,-0.58544 3.75739,-4.44948 8.77599,-7.80844 2.05438,-1.375 3.73831,-2.79262 3.74207,-3.15026 0.004,-0.35764 -2.13459,-1.16398 -4.75188,-1.79186 -7.46345,-1.79045 -8.71766,-3.236136 -2.24129,-2.583475 3.025,0.304847 6.2875,0.80314 7.25,1.107319 2.63436,0.832534 2.15775,-0.317152 -2.37663,-5.732975 -5.28894,-6.317056 -4.19412,-7.561379 1.62663,-1.848749 2.45194,2.406395 4.62787,4.17833 4.8354,3.937632 0.47646,-0.552607 3.40886,-8.775633 4.07875,-11.437632 0.27681,-1.1 0.36445,1.4875 0.19476,5.75 -0.1697,4.2625 -0.16675,7.75 0.007,7.75 0.17329,0 2.44381,-1.35 5.04559,-3 5.37026,-3.405718 9.04714,-4.131501 5.06608,-1 -1.39842,1.1 -2.95567,2 -3.46055,2 -0.96083,0 -5.26703,4.229676 -5.26703,5.17299 0,0.29925 3.3893,1.12385 7.53177,1.83244 8.74016,1.49506 11.29782,3.39836 3.30571,2.45996 -2.93562,-0.34468 -5.85599,-0.7844 -6.48971,-0.97714 -2.64724,-0.80515 -2.05593,1.08276 1.77062,5.65315 2.23731,2.67223 3.6086,4.8586 3.04731,4.8586 -0.5613,0 -1.8407,-1.0125 -2.84312,-2.25 -2.77844,-3.43002 -8.39303,-7.82449 -9.28927,-7.27059 -0.43853,0.27103 -1.11125,3.42404 -1.49492,7.00669 -0.93823,8.76105 -2.20542,8.31291 -1.70169,-0.60181 z"
         id="path285"
         inkscape:connector-curvature="0" />
    </g>
  </g>
</svg>
