<?xml version="1.0" encoding="UTF-8" standalone="no"?>
<!-- Created with Inkscape (http://www.inkscape.org/) -->

<svg
   xmlns:dc="http://purl.org/dc/elements/1.1/"
   xmlns:cc="http://creativecommons.org/ns#"
   xmlns:rdf="http://www.w3.org/1999/02/22-rdf-syntax-ns#"
   xmlns:svg="http://www.w3.org/2000/svg"
   xmlns="http://www.w3.org/2000/svg"
   xmlns:sodipodi="http://sodipodi.sourceforge.net/DTD/sodipodi-0.dtd"
   xmlns:inkscape="http://www.inkscape.org/namespaces/inkscape"
   width="75mm"
   height="120mm"
   viewBox="0 0 75 120"
   version="1.1"
   id="svg8"
   inkscape:version="0.92.4 (5da689c313, 2019-01-14)"
   sodipodi:docname="hoshi4.svg">
  <defs
     id="defs2" />
  <sodipodi:namedview
     id="base"
     pagecolor="#ffffff"
     bordercolor="#666666"
     borderopacity="1.0"
     inkscape:pageopacity="0.0"
     inkscape:pageshadow="2"
     inkscape:zoom="0.98994949"
     inkscape:cx="14.54967"
     inkscape:cy="261.84721"
     inkscape:document-units="mm"
     inkscape:current-layer="layer1"
     showgrid="false"
     units="mm"
     inkscape:window-width="1920"
     inkscape:window-height="1017"
     inkscape:window-x="-8"
     inkscape:window-y="-8"
     inkscape:window-maximized="1" />
  <metadata
     id="metadata5">
    <rdf:RDF>
      <cc:Work
         rdf:about="">
        <dc:format>image/svg+xml</dc:format>
        <dc:type
           rdf:resource="http://purl.org/dc/dcmitype/StillImage" />
        <dc:title />
      </cc:Work>
    </rdf:RDF>
  </metadata>
  <g
     inkscape:label="Calque 1"
     inkscape:groupmode="layer"
     id="layer1"
     transform="translate(0,-176.99999)">
    <g
       id="g6463"
       transform="translate(-0.56696424,9.8273811)">
      <path
         style="fill:#0000ff;stroke-width:0.26458335"
         d="m 56.589401,257.79319 c -0.08266,-0.0827 -0.09497,-1.69635 -0.02734,-3.58596 0.06762,-1.88962 0.04269,-3.43567 -0.05541,-3.43567 -0.304858,0 -2.49296,1.28211 -4.301591,2.52051 -0.950772,0.65101 -1.83016,1.18365 -1.954194,1.18365 -0.489547,0 0.121219,-0.7098 1.427637,-1.65913 1.703011,-1.23751 3.357321,-2.76342 3.357321,-3.09673 0,-0.26363 -1.230545,-0.65082 -3.29275,-1.03609 -2.050399,-0.38305 -1.695429,-0.55805 1.131986,-0.55805 1.479462,0 2.689931,-0.0595 2.689931,-0.13229 0,-0.21339 -0.959866,-1.11164 -1.35599,-1.26895 -0.269891,-0.10719 -0.276214,-0.14987 -0.0245,-0.16537 0.186619,-0.0115 -0.43846,-0.96869 -1.389063,-2.1271 -0.9506,-1.15842 -1.728364,-2.17465 -1.728364,-2.25827 0,-0.27234 1.038543,0.39505 2.383597,1.53174 2.39735,2.02598 3.110204,2.56816 3.376581,2.56816 0.279728,0 0.724538,-3.27214 0.495244,-3.64315 -0.0743,-0.12022 -0.04185,-0.36944 0.07212,-0.55384 0.119983,-0.19413 0.341913,0.65049 0.527219,2.00649 0.41859,3.06307 0.520285,3.21327 1.638565,2.42001 0.48568,-0.34451 1.243915,-0.95326 1.68497,-1.35277 0.441055,-0.39951 0.891214,-0.72693 1.000355,-0.7276 0.318416,-0.002 0.228582,0.48236 -0.132292,0.71323 -0.290044,0.18556 -2.177732,2.26467 -3.008063,3.3131 -0.233072,0.29429 -0.05783,0.62602 0.823433,1.55874 0.615736,0.65169 1.269873,1.13477 1.453637,1.07352 0.19314,-0.0644 0.280826,0.0421 0.207814,0.25243 -0.06947,0.20009 0.463212,1.04841 1.18373,1.88515 1.333749,1.54889 1.414457,1.97444 0.173831,0.91653 -2.248217,-1.91711 -4.489029,-3.63228 -4.663101,-3.56925 -0.110929,0.0402 -0.238524,0.39562 -0.283549,0.78989 -0.184679,1.61726 -1.272323,6.5765 -1.411755,6.43707 z m -49.2823525,-12.33458 0.1623499,-2.75685 -1.6900535,1.65365 c -0.9295294,0.9095 -1.7761469,1.65365 -1.8813722,1.65365 -0.2536539,0 -0.2470375,-0.72496 0.00765,-0.83785 0.1094311,-0.0485 0.7940405,-0.79093 1.5213541,-1.64982 l 1.3223889,-1.56163 -2.4473959,0.13935 c -1.3460677,0.0766 -2.4473958,0.0587 -2.4473958,-0.0399 0,-0.0986 1.1310938,-0.40165 2.5135417,-0.67347 1.3824479,-0.27182 2.5135416,-0.58723 2.5135416,-0.70092 0,-0.11369 -0.7229112,-1.01607 -1.606469,-2.0053 -1.7492139,-1.9584 -2.271736,-2.72462 -1.8580383,-2.72462 0.1420527,0 0.3286485,0.11386 0.4146574,0.25303 0.086009,0.13916 0.3311607,0.18595 0.5447815,0.10398 0.2375633,-0.0912 0.3884018,0.009 0.3884018,0.25725 0,0.45457 2.1684916,2.82532 2.5842804,2.82532 0.1465786,0 0.4255407,-1.22039 0.6199155,-2.71198 0.3387477,-2.59947 0.3619506,-2.66258 0.5593003,-1.52135 0.1132401,0.65484 0.1994575,1.93476 0.1915944,2.84427 -0.014766,1.70809 0.2408515,2.04193 0.8727278,1.13981 0.340123,-0.4856 2.9275459,-2.39658 3.2449049,-2.39658 0.283474,0 -0.365122,0.93492 -1.560208,2.24896 -0.661738,0.7276 -1.207141,1.39431 -1.212004,1.48158 -0.007,0.12469 2.727135,0.39678 5.745843,0.57181 0.181901,0.0106 0.330729,0.1031 0.330729,0.20567 0,0.10257 -1.42875,0.27176 -3.175,0.37599 -1.74625,0.10422 -3.175,0.30465 -3.175,0.44538 0,0.14074 0.458164,0.93397 1.018142,1.76273 1.79384,2.65486 1.711545,2.88237 -0.273157,0.75516 -1.0645861,-1.14102 -2.0249069,-1.98438 -2.1340475,-1.87413 -0.1091406,0.11025 -0.2002973,0.6271 -0.2025706,1.14855 -0.00445,1.02071 -0.6200206,3.9094 -0.8907782,4.18016 -0.090729,0.0907 -0.091903,-1.07563 -0.00262,-2.59189 z m 56.7965475,-6.52716 c -0.152019,-0.5457 -0.607946,-2.21258 -1.013171,-3.70417 -0.405223,-1.49158 -0.824923,-2.71198 -0.932664,-2.71198 -0.107741,0 -0.922073,0.7925 -1.809623,1.76111 -0.88755,0.9686 -1.664894,1.70993 -1.727431,1.64739 -0.06254,-0.0625 0.538192,-1.11586 1.334953,-2.34072 1.719472,-2.64334 1.810073,-2.51176 -2.199436,-3.19427 -2.512005,-0.4276 -3.718465,-0.78392 -2.654258,-0.78392 0.230407,0 0.478978,-0.14883 0.552376,-0.33073 0.106762,-0.26458 0.137628,-0.26458 0.154339,0 0.01524,0.24114 0.737585,0.33073 2.666723,0.33073 1.455208,0 2.645833,-0.0464 2.645833,-0.10302 0,-0.0567 -0.504436,-1.09846 -1.120966,-2.31511 -1.421519,-2.80518 -1.375682,-2.69285 -1.051078,-2.57588 0.151442,0.0546 1.003557,1.08148 1.893583,2.28203 0.890027,1.20055 1.710539,2.18281 1.823358,2.18281 0.217127,0 2.688436,-3.26346 2.688436,-3.55018 0,-0.25907 1.659332,-2.02243 1.78493,-1.89683 0.126195,0.12619 -1.581404,3.63602 -2.672199,5.49249 l -0.72629,1.2361 1.534383,0.16838 c 0.843912,0.0926 1.797481,0.27576 2.119045,0.40701 0.321561,0.13126 1.198769,0.32011 1.949344,0.41968 2.303341,0.30555 0.807059,0.68759 -2.027648,0.51771 -3.145927,-0.18853 -3.897841,-0.0356 -3.649591,0.74208 0.09912,0.31053 0.162814,1.01964 0.141534,1.5758 -0.02127,0.55617 0.144576,1.86585 0.368567,2.91042 0.223991,1.04457 0.450448,2.10758 0.503238,2.36224 0.18643,0.89936 -0.303708,0.4493 -0.576287,-0.52917 z m -25.06006,-1.51106 c -0.683773,-1.09707 -1.330103,-1.99467 -1.436288,-1.99467 -0.106188,0 -0.476107,0.56555 -0.822045,1.25677 -0.687011,1.37273 -1.024268,1.05512 -0.581683,-0.54779 0.460769,-1.66877 -0.01535,-1.75841 -2.973081,-0.55971 -0.980369,0.39732 -0.147569,-0.40741 1.244248,-1.20231 l 1.361242,-0.77744 -1.512555,-0.66892 c -1.567111,-0.69305 -1.949402,-1.03881 -0.917241,-0.82959 0.327422,0.0664 1.115475,0.19137 1.751227,0.27777 1.035751,0.14078 1.135525,0.10813 0.95976,-0.31406 -0.107887,-0.25915 -0.466778,-1.18555 -0.797534,-2.05868 -0.330758,-0.87312 -0.692327,-1.8121 -0.803484,-2.08662 -0.148571,-0.36692 -0.103468,-0.46624 0.170291,-0.37499 0.20482,0.0683 0.809739,0.9446 1.344269,1.94739 0.949695,1.78166 1.542658,2.40575 1.542658,1.62363 0,-0.4535 1.787827,-4.15212 2.00704,-4.15212 0.08124,0 0.0581,0.68461 -0.05142,1.52136 -0.109516,0.83674 -0.203128,1.72971 -0.208026,1.98437 -0.0049,0.25467 -0.102452,0.46302 -0.216791,0.46302 -0.271748,0 -0.259265,0.56765 0.02225,1.01166 0.17861,0.28171 0.625528,0.21475 2.285172,-0.34238 2.759419,-0.9263 3.26784,-0.74688 1.023615,0.36124 -1.000522,0.49402 -2.047388,1.05495 -2.32637,1.24651 -0.489726,0.33626 -0.485156,0.35786 0.132291,0.62572 0.819285,0.35542 4.117301,2.2014 4.344866,2.43193 0.184499,0.1869 -0.594024,0.008 -3.23279,-0.74142 -1.710619,-0.48606 -2.239209,-0.39255 -1.668476,0.29514 0.184076,0.2218 0.271878,0.40327 0.195114,0.40327 -0.07677,0 0.03477,0.66764 0.247859,1.48363 0.213085,0.816 0.336058,1.53501 0.273267,1.5978 -0.06279,0.0628 -0.673613,-0.78344 -1.357385,-1.88051 z m 12.959593,-1.00248 c -0.111805,-0.83675 -0.338391,-1.52318 -0.503523,-1.52541 -0.220295,-0.003 -0.221369,-0.0558 -0.004,-0.19843 0.179996,-0.11813 0.283797,-0.97289 0.264583,-2.17877 l -0.03162,-1.98437 -0.926041,0.0115 c -0.509323,0.006 -1.342761,0.0978 -1.852084,0.20336 -0.86374,0.17897 -0.839824,0.14785 0.355465,-0.46263 0.704829,-0.35998 1.437894,-0.7843 1.629035,-0.94293 0.491754,-0.40812 0.314634,-1.4178 -0.452123,-2.57737 -0.361651,-0.54692 -0.867921,-1.40162 -1.125048,-1.89934 l -0.4675,-0.90493 0.783135,0.64035 c 0.430723,0.35219 1.111401,1.0932 1.512615,1.64668 1.052782,1.45232 1.453396,1.21362 2.120199,-1.26327 0.665572,-2.47232 0.977455,-2.36294 0.624818,0.21912 -0.136279,0.99785 -0.211333,2.09198 -0.16679,2.43141 l 0.08099,0.61716 1.452383,-0.49397 c 0.798808,-0.27168 1.475586,-0.47076 1.503947,-0.44239 0.05594,0.0559 -2.201056,1.69535 -2.784838,2.02284 -0.270025,0.15147 -0.0027,0.68068 1.091018,2.15957 1.470379,1.98824 3.632282,5.38187 3.632282,5.70174 0,0.0964 -0.425998,-0.32243 -0.946658,-0.93071 -0.520663,-0.60827 -1.171771,-1.10595 -1.446906,-1.10595 -0.314643,0 -0.448683,-0.13437 -0.361275,-0.36215 0.07643,-0.19919 -0.299358,-0.82426 -0.835092,-1.38907 -0.535733,-0.5648 -1.153914,-1.29851 -1.373737,-1.63048 -0.219824,-0.33196 -0.456452,-0.54679 -0.525841,-0.47741 -0.06939,0.0694 -0.332693,1.59116 -0.585116,3.3817 l -0.458954,3.25553 -0.203279,-1.52135 z m -27.457816,-3.37344 c -0.09549,-0.50932 -0.232041,-1.62319 -0.303441,-2.47525 -0.0714,-0.85206 -0.197127,-1.61652 -0.279395,-1.69879 -0.08227,-0.0823 -0.416998,0.0915 -0.743846,0.38609 -1.035021,0.93296 -3.637376,2.75488 -3.627356,2.53953 0.0053,-0.11374 0.779198,-1.03064 1.719791,-2.03758 0.940594,-1.00693 1.710171,-1.98296 1.710171,-2.16896 0,-0.18598 -1.03494,-0.9023 -2.299866,-1.59182 -2.624863,-1.43081 -2.5392,-1.79871 0.177134,-0.76074 1.149935,0.43941 2.055755,0.63671 2.408778,0.52467 0.540312,-0.17149 0.557447,-0.2826 0.380561,-2.46763 -0.232537,-2.87249 0.161041,-2.62584 0.780804,0.48932 0.246006,1.23652 0.503294,2.30423 0.571751,2.37268 0.06846,0.0685 1.133524,-0.39444 2.366815,-1.02867 1.233292,-0.63422 2.306105,-1.08938 2.384031,-1.01145 0.07793,0.0779 -0.72884,0.8209 -1.792809,1.65107 -1.063969,0.83016 -1.969022,1.60112 -2.011226,1.71325 -0.04221,0.11212 0.493576,0.56986 1.190626,1.01719 1.174303,0.75361 3.289054,2.69501 2.935655,2.69501 -0.312602,0 -2.227442,-0.95851 -3.316684,-1.66022 -0.615572,-0.39657 -1.231173,-0.72103 -1.368003,-0.72103 -0.220114,0 -0.364572,0.96513 -0.633631,4.23333 l -0.07624,0.92604 z m 32.089702,-7.63473 c -0.0064,-0.19727 0.178205,-1.09024 0.410302,-1.98437 0.232101,-0.89413 0.576281,-2.43369 0.764847,-3.42125 l 0.342845,-1.79555 -1.227865,-0.65567 -1.227865,-0.65567 1.190625,0.07 c 1.110953,0.0653 1.196038,0.0232 1.271542,-0.62859 0.0445,-0.3842 -0.104325,-1.41342 -0.330729,-2.28714 -0.463188,-1.7875 -0.532691,-2.67516 -0.17952,-2.29274 0.254815,0.27593 1.321189,3.06204 1.547598,4.0434 0.0783,0.33938 0.294122,0.67529 0.479613,0.74647 0.341244,0.13095 2.561011,-1.12036 2.723647,-1.53535 0.04851,-0.12377 0.263721,-0.22504 0.478251,-0.22504 0.214529,0 0.93323,-0.30325 1.597112,-0.67389 1.264028,-0.7057 1.862458,-0.74637 0.821264,-0.0558 -0.331965,0.22016 -1.020289,0.77939 -1.529612,1.24273 -0.509323,0.46333 -1.362517,1.12793 -1.895988,1.47689 -0.533471,0.34896 -1.044011,0.75431 -1.134536,0.90078 -0.207309,0.33543 1.167948,1.90952 1.492872,1.7087 0.13204,-0.0816 0.426378,-0.0769 0.654079,0.0105 0.317381,0.12179 0.34394,0.24329 0.113792,0.5206 -0.234141,0.28212 -0.09321,0.6095 0.640336,1.4875 0.517303,0.61917 0.88088,1.18544 0.807948,1.25837 -0.07293,0.0729 -1.154308,-0.73482 -2.403065,-1.795 -1.257131,-1.06728 -2.363594,-1.82127 -2.479132,-1.68937 -0.114771,0.13102 -0.601335,1.25025 -1.081255,2.48717 -1.005009,2.59028 -1.830162,4.26209 -1.847106,3.74236 z m -36.581089,-2.81631 c -0.09345,-0.29104 -0.250663,-1.86418 -0.349363,-3.49586 l -0.179455,-2.96669 -1.36079,0.68629 c -0.748434,0.37745 -1.42032,0.7606 -1.493081,0.85143 -0.202642,0.25298 -2.139704,0.88894 -2.280064,0.74859 -0.06808,-0.0681 0.268257,-0.36988 0.747413,-0.67066 0.479156,-0.30079 1.347443,-0.88713 1.929526,-1.303 0.582083,-0.41586 1.293967,-0.8461 1.581963,-0.95608 0.465017,-0.17759 0.32368,-0.39507 -1.262695,-1.94298 -0.982478,-0.95866 -1.731408,-1.79793 -1.66429,-1.86505 0.06712,-0.0671 0.834647,0.42631 1.705619,1.09651 0.870971,0.6702 1.704395,1.21854 1.852053,1.21854 0.260998,0 0.370157,-0.58294 0.710175,-3.79259 0.204019,-1.92586 0.40311,-1.80186 0.405157,0.25233 8.47e-4,0.85574 0.06943,2.06082 0.152403,2.67796 0.141727,1.0542 0.193065,1.112 0.848775,0.9557 0.383858,-0.0915 0.816986,-0.25397 0.962507,-0.36104 0.440063,-0.32378 3.602474,-1.37745 3.735361,-1.24457 0.06811,0.0681 -0.625424,0.50931 -1.541181,0.98043 -0.915758,0.47113 -2.069692,1.10184 -2.564299,1.40157 l -0.899285,0.54498 0.766993,0.64969 c 1.801712,1.52618 4.109082,3.80977 3.979932,3.93892 -0.07698,0.077 -0.688518,-0.23026 -1.358982,-0.68275 -0.670464,-0.45249 -1.27849,-0.82271 -1.351168,-0.82271 -0.07268,0 -0.561223,-0.41672 -1.085656,-0.92604 -0.524433,-0.50933 -1.04314,-0.92605 -1.152683,-0.92605 -0.232466,0 -0.619396,2.52089 -0.434694,2.83208 0.06876,0.11585 0.04507,0.98454 -0.05263,1.93042 -0.112065,1.08489 -0.240375,1.52444 -0.347557,1.19063 z m 21.916224,-1.49432 c -0.07436,-0.48781 -0.197405,-1.52816 -0.273428,-2.31187 -0.07602,-0.78372 -0.210481,-1.49721 -0.298802,-1.58553 -0.08832,-0.0883 -0.865923,0.23015 -1.728007,0.70771 -1.756521,0.97305 -2.04792,0.83408 -0.627518,-0.29927 1.198251,-0.95608 0.941081,-1.31261 -1.27354,-1.76556 -2.687521,-0.54968 -2.479349,-0.86192 0.43315,-0.64969 1.482272,0.10802 2.56917,0.0899 2.511639,-0.042 -0.05578,-0.12783 -0.487513,-0.97315 -0.959411,-1.87851 -1.024863,-1.96624 -1.059196,-2.23552 -0.235455,-1.84678 0.403399,0.19038 0.579914,0.4568 0.501446,0.75686 -0.08642,0.33047 0.0818,0.51399 0.587454,0.6409 0.389705,0.0978 0.802251,0.0735 0.916771,-0.0541 0.191254,-0.21308 0.795528,-3.12614 1.214406,-5.85437 0.280977,-1.83007 0.690168,-1.31689 0.527431,0.66146 -0.38929,4.73248 -0.384135,5.07606 0.08023,5.34697 0.411411,0.24002 0.410033,0.25993 -0.0185,0.26738 -0.28395,0.005 -0.46302,0.21269 -0.46302,0.53721 0,0.29104 0.119062,0.52916 0.264583,0.52916 0.145521,0 0.264583,-0.09 0.264583,-0.19999 0,-0.11 0.344519,-0.3525 0.765599,-0.53888 0.421079,-0.18639 1.082055,-0.63218 1.468839,-0.99063 0.386784,-0.35846 0.765069,-0.65175 0.840637,-0.65175 0.07556,0 0.908352,-0.55014 1.850631,-1.22254 1.816015,-1.29588 2.63194,-1.42393 1.130308,-0.17739 -0.489281,0.40616 -2.003224,1.73978 -3.36432,2.9636 -2.66596,2.39706 -2.690405,2.51431 -0.575027,2.75773 1.171726,0.13483 4.613233,1.20773 4.437544,1.38342 -0.04949,0.0495 -1.314752,-0.0327 -2.811687,-0.18269 -1.496934,-0.14998 -2.90189,-0.20353 -3.122123,-0.11902 -0.401995,0.15426 -0.35079,0.23583 2.296681,3.65887 1.051348,1.35934 -0.01492,0.73494 -1.747285,-1.0232 -0.948825,-0.96294 -1.785085,-1.69085 -1.858356,-1.61758 -0.07327,0.0733 -0.168876,0.86341 -0.212455,1.75586 -0.09104,1.86441 -0.32634,2.33422 -0.522989,1.04425 z m -0.42808,-7.36922 c 0,-0.29398 -0.176389,-0.52917 -0.396875,-0.52917 -0.478417,0 -0.511495,0.30871 -0.07937,0.74083 0.426982,0.42699 0.47625,0.40509 0.47625,-0.21166 z m -12.797382,-2.14056 c -0.09196,-0.4598 -0.167201,-1.63472 -0.167201,-2.61092 0,-0.9762 -0.06924,-1.84415 -0.153871,-1.92878 -0.169349,-0.16935 -1.190302,0.22472 -3.575212,1.37999 -1.823637,0.88338 -1.841924,0.60243 -0.02755,-0.42332 2.05437,-1.16145 3.227638,-2.00413 3.224619,-2.31604 -0.0016,-0.16211 -0.49208,-0.80634 -1.090028,-1.43163 -0.597947,-0.62528 -1.036579,-1.18748 -0.974738,-1.24932 0.06184,-0.0618 0.717198,0.29484 1.456352,0.79261 0.739153,0.49777 1.417193,0.83176 1.506757,0.7422 0.08956,-0.0896 0.164666,-0.47042 0.166893,-0.84635 0.0022,-0.37593 0.119468,-0.8621 0.260533,-1.08038 0.181999,-0.28162 0.257657,0.0464 0.260533,1.12952 l 0.004,1.52639 0.727604,-0.16109 c 0.400182,-0.0886 1.122534,-0.28133 1.605227,-0.42829 1.346144,-0.40983 1.315564,-0.0444 -0.05188,0.61992 -1.104309,0.53651 -1.578141,1.01771 -1.002133,1.01771 0.193072,0 1.085803,0.80268 4.740453,4.26226 0.472942,0.4477 0.859895,0.93569 0.859895,1.08443 0,0.32359 -0.93776,-0.25767 -2.910416,-1.804 -2.429164,-1.90417 -4.016807,-3.05427 -4.093642,-2.96547 -0.04009,0.0463 -0.155482,1.27297 -0.256423,2.72587 -0.100941,1.45289 -0.219324,2.67742 -0.263073,2.72116 -0.04375,0.0438 -0.154784,-0.29666 -0.246745,-0.75647 z m 37.083344,-0.9578 c -0.0676,-0.26044 -0.149421,-1.3042 -0.181817,-2.31947 -0.0324,-1.01528 -0.09752,-1.88458 -0.144724,-1.93178 -0.0472,-0.0472 -0.656537,0.27612 -1.354082,0.71849 -0.697545,0.44237 -1.316122,0.75644 -1.374619,0.69795 -0.129844,-0.12985 1.840518,-1.98713 2.118759,-1.99717 0.109141,-0.004 0.198438,-0.17037 0.198438,-0.36985 0,-0.25537 -0.549603,-0.41685 -1.857468,-0.54572 -2.407359,-0.23721 -2.135452,-0.67909 0.417875,-0.67909 1.082818,0 1.96876,-0.0797 1.96876,-0.17705 0,-0.0974 -0.363803,-0.82166 -0.808451,-1.60954 -0.933365,-1.65383 -0.920951,-2.44575 0.0173,-1.10372 0.614275,0.87863 1.098838,1.3479 1.242981,1.20376 0.03865,-0.0387 0.301662,-0.9962 0.584462,-2.12787 0.282797,-1.13167 0.594336,-2.13537 0.692306,-2.23044 0.09797,-0.0951 0.09082,1.12553 -0.01588,2.71245 l -0.194014,2.8853 1.636639,-1.16551 c 4.691874,-3.34125 5.589481,-3.5278 1.98388,-0.41231 -2.32074,2.00528 -2.58431,2.36528 -1.663142,2.27159 1.012008,-0.10293 4.4607,0.33186 4.615204,0.58185 0.07812,0.1264 -0.132882,0.24517 -0.468892,0.26394 -0.33601,0.0188 -0.908585,0.0606 -1.272387,0.0928 -2.32221,0.20619 -3.179733,0.22107 -3.342782,0.058 -0.101746,-0.10175 -0.42173,-0.185 -0.711071,-0.185 -0.478385,0 -0.48949,0.042 -0.122491,0.46302 0.567941,0.65158 1.84382,3.01603 1.7033,3.15655 -0.06417,0.0642 -0.631719,-0.5428 -1.261232,-1.34882 l -1.144564,-1.4655 -0.344945,1.11873 c -0.189719,0.6153 -0.39075,1.6932 -0.446733,2.39533 -0.111797,1.40215 -0.281022,1.77936 -0.470604,1.049 z"
         id="path6469"
         inkscape:connector-curvature="0" />
      <path
         style="fill:#8080ff;stroke-width:0.26458335"
         d="m 56.588091,257.2318 c -0.01937,-0.27892 -0.0063,-1.85875 0.02912,-3.51075 l 0.06435,-3.00364 -0.624432,0.18386 -0.624433,0.18386 0.624107,-0.45654 c 0.838372,-0.61328 1.076659,-0.19261 0.906532,1.6004 -0.179155,1.88819 0.341598,2.1271 0.574434,0.26353 0.09951,-0.79642 0.27749,-1.50772 0.395518,-1.58067 0.118028,-0.0729 0.04553,0.72885 -0.161108,1.78177 -0.206639,1.05292 -0.501121,2.56924 -0.654404,3.3696 -0.30307,1.58247 -0.474636,1.96097 -0.529684,1.16858 z m 0.480552,-2.80569 c -0.08446,-0.21106 -0.147156,-0.14837 -0.159851,0.15986 -0.01148,0.27891 0.05104,0.43518 0.138965,0.34726 0.08792,-0.0879 0.09732,-0.31612 0.02088,-0.50712 z m 5.669714,-0.48851 c -0.645737,-0.46777 -1.031645,-0.92643 -0.924859,-1.09922 0.101449,-0.16415 0.06515,-0.22351 -0.08131,-0.13299 -0.145511,0.0899 -0.986621,-0.41834 -1.869139,-1.12947 -0.882515,-0.71114 -1.674828,-1.22273 -1.760691,-1.13687 -0.08586,0.0859 -0.156117,0.0242 -0.156117,-0.13695 0,-0.55075 0.563824,-0.6426 0.935231,-0.15235 0.510251,0.67351 0.486888,0.0874 -0.02569,-0.64437 -0.38321,-0.54711 -0.369152,-0.65277 0.192645,-1.44794 0.333309,-0.47177 0.846749,-1.06216 1.140976,-1.31198 0.834205,-0.7083 0.158861,-0.55048 -0.811477,0.18964 -1.063411,0.8111 -1.168164,0.81706 -1.163055,0.0661 0.003,-0.43836 0.06448,-0.49992 0.233262,-0.2335 0.248623,0.39245 1.160465,-0.13477 2.797228,-1.61736 1.246404,-1.12899 1.524502,-0.89512 0.440727,0.37064 -0.217065,0.25351 -0.522251,0.38841 -0.678194,0.29977 -0.155942,-0.0886 -0.196376,-0.0648 -0.08985,0.0529 0.106523,0.11773 -0.22633,0.70236 -0.739675,1.29919 -0.513344,0.59682 -1.035907,1.2042 -1.161251,1.34972 -0.137641,0.1598 0.207674,0.72277 0.871966,1.42157 0.736336,0.77459 0.985203,1.19905 0.752957,1.28422 -0.268237,0.0984 -0.243938,0.24099 0.107153,0.62894 0.24973,0.27595 0.584431,0.49794 0.743779,0.49331 0.159345,-0.005 0.06944,-0.1753 -0.199795,-0.37927 -0.269232,-0.20397 -0.411036,-0.49784 -0.315114,-0.65305 0.243705,-0.39432 0.741511,-0.35412 0.601155,0.0486 -0.0634,0.1819 0.474236,1.01534 1.194755,1.85208 0.720521,0.83675 1.256588,1.52136 1.191263,1.52136 -0.06533,0 -0.617422,-0.36122 -1.226881,-0.80271 z m -2.41087,-2.90976 c 0,-0.34104 -0.753817,-0.649 -0.995937,-0.40688 -0.09865,0.0987 -0.0042,0.29013 0.209849,0.42551 0.512167,0.32391 0.786088,0.31741 0.786088,-0.0186 z m -10.054167,3.23015 c 0,-0.12999 1.071468,-1.11645 2.381039,-2.19212 1.309571,-1.07568 2.381133,-2.10001 2.38125,-2.27631 2.17e-4,-0.32711 -1.097045,-0.69562 -3.292539,-1.10579 -2.050399,-0.38305 -1.695429,-0.55805 1.131986,-0.55805 1.479462,0 2.689931,-0.0595 2.689931,-0.13229 0,-0.21339 -0.959866,-1.11164 -1.35599,-1.26895 -0.294457,-0.11694 -0.296235,-0.14846 -0.0093,-0.16537 0.194958,-0.0115 -0.43012,-0.96924 -1.389063,-2.12834 -0.958935,-1.15909 -1.743525,-2.18482 -1.743525,-2.27938 0,-0.23508 1.298239,0.6338 2.112304,1.41372 0.366202,0.35084 1.084289,0.909 1.595747,1.24035 0.511458,0.33135 1.091584,0.79725 1.289166,1.03532 0.562386,0.67763 1.0882,0.52882 1.0882,-0.30797 0,-0.40746 0.128601,-0.86944 0.285779,-1.02662 0.19558,-0.19558 0.205158,-0.57776 0.03035,-1.21088 -0.140488,-0.5088 -0.167399,-1.06754 -0.0598,-1.24164 0.110681,-0.17908 0.269841,0.22489 0.36653,0.93031 0.232606,1.69704 0.215818,2.02573 -0.09368,1.83445 -0.156816,-0.0969 -0.264584,0.20746 -0.264584,0.74729 0,0.74634 -0.112458,0.93231 -0.622787,1.02987 -0.46201,0.0883 -0.750448,-0.0709 -1.117303,-0.61673 -0.436938,-0.65012 -1.582338,-1.23349 -1.865633,-0.95019 -0.05703,0.057 0.189455,0.42001 0.547754,0.80662 0.358299,0.38661 0.575331,0.70293 0.482293,0.70293 -0.09304,0 0.171857,0.35595 0.588658,0.79099 0.416798,0.43505 0.69591,0.8529 0.620247,0.92856 -0.07566,0.0757 -0.936906,0.14956 -1.913872,0.16422 -1.838467,0.0276 -2.144262,0.15284 -0.801269,0.32821 0.42604,0.0556 1.174099,0.27769 1.662348,0.49344 l 0.887727,0.39228 -1.350618,1.16313 c -1.382702,1.19076 -1.910615,2.0387 -0.653738,1.05004 0.383426,-0.3016 0.889442,-0.54763 1.124479,-0.54674 0.243734,0.001 0.09508,0.1749 -0.345995,0.40491 -0.425334,0.22181 -1.326288,0.80054 -2.002121,1.28608 -1.580052,1.13515 -2.38392,1.5616 -2.38392,1.26465 z m 3.175103,-10.16186 c -0.288025,-0.30916 -0.603583,-0.4822 -0.701243,-0.38455 -0.236773,0.23678 0.70862,1.26575 0.998394,1.08666 0.124593,-0.077 -0.0091,-0.39295 -0.297151,-0.70211 z M 7.1502887,247.6627 c -0.00223,-0.32742 0.115011,-0.59531 0.2605318,-0.59531 0.3315023,0 0.3315023,0.28079 0,0.79375 -0.2074,0.32093 -0.2572557,0.28295 -0.2605318,-0.19844 z m 0.5460032,-1.5434 c 0.012695,-0.30823 0.075391,-0.37092 0.1598525,-0.15985 0.07643,0.19099 0.067031,0.4192 -0.020889,0.50711 -0.087919,0.0879 -0.1504529,-0.0683 -0.1389635,-0.34726 z m 2.7653541,-1.56604 c -0.9770933,-1.09173 -1.8846554,-1.91814 -2.0168045,-1.83647 -0.132149,0.0817 -0.240271,0.0224 -0.240271,-0.1317 0,-0.53023 0.486723,-0.2779 1.4743276,0.76432 0.5443829,0.57449 1.0962829,1.02097 1.2264439,0.99219 0.130162,-0.0288 0.540326,0.45368 0.911476,1.07214 0.37115,0.61847 0.617791,1.12448 0.54809,1.12448 -0.0697,0 -0.926168,-0.89323 -1.903262,-1.98496 z m 0.744643,0.25376 c -0.08617,-0.22456 -0.213419,-0.35154 -0.282774,-0.28219 -0.06935,0.0694 -0.04762,0.25309 0.0483,0.40829 0.260892,0.42213 0.41338,0.34012 0.234473,-0.1261 z m 46.760837,1.0477 c 0.0127,-0.30823 0.07539,-0.37092 0.15985,-0.15986 0.07643,0.191 0.06703,0.4192 -0.02087,0.50712 -0.08792,0.0879 -0.150453,-0.0683 -0.138965,-0.34726 z M 3.7066538,245.7592 c 0,-0.13743 0.4387369,-0.70297 0.9749708,-1.25677 0.536234,-0.55381 0.774359,-0.75942 0.5291667,-0.45692 -0.9145696,1.12833 -0.4013901,0.97387 0.8458158,-0.25459 0.9143555,-0.9006 1.3513427,-1.17556 1.4960888,-0.94136 0.1195099,0.19337 0.096448,0.26408 -0.055502,0.17017 -0.142984,-0.0884 -0.9613252,0.54808 -1.8185355,1.41433 -1.5164615,1.53245 -1.9720044,1.83856 -1.9720046,1.32514 z m 4.2849136,-1.20535 c 0.00539,-0.43657 0.06469,-0.58313 0.1317736,-0.3257 0.067083,0.25743 0.062672,0.61462 -0.0098,0.79375 -0.072477,0.17913 -0.127363,-0.0315 -0.1219708,-0.46805 z m 2.0842896,-1.3586 c -0.3016033,-0.38343 -0.5408229,-0.88944 -0.531599,-1.12448 0.010149,-0.2586 0.1201246,-0.1683 0.2785137,0.22868 0.1439584,0.36081 0.4525213,0.86682 0.6856943,1.12448 0.233174,0.25765 0.354609,0.46846 0.269857,0.46846 -0.08475,0 -0.400862,-0.31372 -0.702466,-0.69714 z m -3.9879532,-0.49349 0.6214078,-0.66145 H 5.8694411 c -0.4933469,0 -0.8415422,-0.13646 -0.8439222,-0.33073 -0.00262,-0.21487 -0.072148,-0.23416 -0.1984375,-0.0551 -0.1069123,0.15162 -0.5515734,0.20804 -0.9881359,0.12539 -0.6611697,-0.12517 -0.4726607,-0.21158 1.1285926,-0.51732 1.7548244,-0.33505 1.9078644,-0.41515 1.7561997,-0.91914 -0.1307248,-0.4344 -0.095911,-0.48538 0.1633103,-0.23915 0.4882912,0.46383 0.1064247,1.14227 -0.6429337,1.14227 -0.3597813,0 -0.727732,0.11906 -0.8176689,0.26458 -0.091609,0.14823 0.114845,0.26458 0.4694544,0.26458 0.3481369,0 0.7061542,0.0732 0.7955939,0.16262 0.2155526,0.21555 -0.5862558,1.42488 -0.9447236,1.42488 -0.1541508,0 -6.406e-4,-0.29765 0.3411336,-0.66146 z m -4.1010416,-0.66145 c -0.2069524,-0.33486 0.1433056,-0.33486 0.6614583,0 0.3420234,0.22103 0.3350398,0.25704 -0.050531,0.26053 -0.2460733,0.002 -0.5209906,-0.11501 -0.6109273,-0.26053 z m 9.3296468,-0.45172 c 0.329119,-0.0633 0.805369,-0.0609 1.058334,0.005 0.252965,0.0662 -0.01631,0.118 -0.598398,0.11506 -0.582083,-0.003 -0.789054,-0.0571 -0.459936,-0.1204 z m 1.942788,-0.51444 c -0.323207,-0.3649 -0.306718,-0.39777 0.132292,-0.26368 0.275838,0.0843 1.007539,0.18058 1.626002,0.21407 1.539948,0.0834 1.427337,0.48902 -0.132291,0.47653 -0.800822,-0.006 -1.390726,-0.16129 -1.626003,-0.42692 z m -3.4672265,-0.38071 c 0,-0.15869 0.5502445,-0.9326 1.2227645,-1.71979 0.672521,-0.78719 1.135529,-1.43126 1.028907,-1.43126 -0.106622,0 -0.801516,0.50601 -1.544208,1.12448 -0.7426923,0.61846 -1.1695557,0.86348 -0.9485852,0.54449 0.3692533,-0.53305 2.9445992,-2.46272 3.2867612,-2.46272 0.283475,0 -0.365121,0.93492 -1.560208,2.24896 -0.661738,0.7276 -1.20714,1.40599 -1.212004,1.50752 -0.0049,0.10154 0.616234,0.22834 1.380218,0.28179 l 1.389063,0.0972 -1.521354,0.0489 c -0.951946,0.0306 -1.5213545,-0.0591 -1.5213545,-0.23959 z m -2.5135417,-1.03438 c -0.089937,-0.14553 -0.037432,-0.26459 0.1166768,-0.26459 0.1541089,0 0.2801982,0.11906 0.2801982,0.26459 0,0.14552 -0.052504,0.26458 -0.1166767,0.26458 -0.064172,0 -0.1902614,-0.11906 -0.2801983,-0.26458 z m 1.367014,0.0882 c -0.097014,-0.097 -0.1882571,-0.96022 -0.2027627,-1.91823 -0.019291,-1.27407 -0.083262,-1.56421 -0.2382096,-1.08038 l -0.211836,0.66146 v -0.66146 c 0,-0.72071 0.3929158,-2.14906 0.4730842,-1.71979 0.05851,0.3133 0.4138404,4.89479 0.379629,4.89479 -0.012933,0 -0.1028912,-0.0794 -0.1999049,-0.17639 z M 64.0276,238.71854 c -0.253473,-0.90532 -0.262027,-1.28049 -0.03439,-1.50813 0.227639,-0.22764 0.305887,-0.20758 0.314545,0.0806 0.0063,0.21101 0.109413,0.88967 0.229057,1.50813 0.290044,1.49931 -0.08342,1.44018 -0.509217,-0.0806 z m -58.7476895,-0.0253 c -0.5403855,-0.57239 -0.7231909,-0.8991 -0.4487775,-0.80205 0.2546615,0.0901 0.4630208,0.0443 0.4630208,-0.10165 0,-0.14597 0.3571875,0.1 0.79375,0.54659 0.9301663,0.95155 1.0767417,1.41643 0.1813849,0.57528 -0.8468334,-0.79554 -1.2086347,-0.72563 -0.4459682,0.0862 0.3417742,0.3638 0.5644785,0.66146 0.4948981,0.66146 -0.06958,0 -0.536819,-0.43461 -1.0383081,-0.96581 z m 33.6840735,-1.38458 c -0.75179,-1.18114 -1.264492,-2.14752 -1.139336,-2.14752 0.125156,0 0.547023,0.54513 0.937482,1.2114 0.774557,1.32168 1.197198,1.40052 0.668756,0.12475 -0.417872,-1.00883 -0.194075,-1.611 0.581528,-1.5647 l 0.603615,0.036 -0.595313,0.11466 c -0.603139,0.11617 -0.748054,0.36609 -0.408919,0.70523 0.186188,0.18618 0.38548,1.15145 0.444051,2.15075 0.01707,0.29105 0.134823,0.6047 0.261699,0.69701 0.126878,0.0923 0.181782,0.31455 0.12201,0.49387 -0.05978,0.17932 -0.723781,-0.64035 -1.475573,-1.82148 z m -31.2468038,1.02748 c 0,-0.3638 0.060053,-0.51263 0.1334521,-0.33073 0.073399,0.1819 0.073399,0.47956 0,0.66146 -0.073399,0.1819 -0.1334521,0.0331 -0.1334521,-0.33073 z M 35.98582,237.3422 c 0,-0.25562 0.110707,-0.85078 0.246018,-1.32258 0.188849,-0.65847 0.153712,-0.95012 -0.151191,-1.25502 -0.353221,-0.35322 -0.333941,-0.39721 0.174114,-0.39721 0.522875,0 0.555681,0.0926 0.386861,1.09182 -0.137496,0.81383 -0.104172,1.04219 0.130889,0.89692 0.187918,-0.11614 0.143396,0.13762 -0.110172,0.62797 -0.481566,0.93124 -0.676519,1.03444 -0.676519,0.3581 z m 15.998627,-0.96816 c -0.101553,-0.81281 -0.31967,-1.47931 -0.484841,-1.48154 -0.173704,-0.002 -0.144661,-0.10256 0.06891,-0.2378 0.253738,-0.16067 0.317027,-0.49441 0.202422,-1.06743 -0.10392,-0.51961 -0.06856,-0.77301 0.09386,-0.67263 0.14333,0.0886 0.260599,0.45872 0.260599,0.82252 0,0.41075 0.109508,0.59378 0.288925,0.48289 0.204893,-0.12663 0.233894,0.34978 0.09971,1.63803 -0.104065,0.99913 -0.224263,1.85639 -0.267102,1.90502 -0.04284,0.0486 -0.160959,-0.57644 -0.26249,-1.38906 z m -48.2622949,0.4665 c -0.5505728,-0.69994 -0.5338615,-1.24527 0.021153,-0.69025 0.1608278,0.16083 0.4408525,0.23545 0.6222767,0.16583 0.1816262,-0.0697 0.398286,0.13508 0.4821224,0.45567 0.1142879,0.43704 0.07677,0.50675 -0.1504365,0.27954 -0.4483322,-0.44833 -0.8445741,-0.36746 -0.4614476,0.0942 0.1811573,0.21828 0.2639086,0.39688 0.183892,0.39688 -0.080017,0 -0.393919,-0.31583 -0.6975604,-0.70185 z m 54.0080869,-0.6405 c -0.479719,-0.57139 -1.099881,-1.0389 -1.378138,-1.0389 -0.324368,0 -0.455036,-0.13261 -0.364122,-0.36953 0.07799,-0.20324 -0.196236,-0.71534 -0.609394,-1.13799 -0.413157,-0.42266 -1.074695,-1.1791 -1.470088,-1.68099 -0.494432,-0.62762 -0.719807,-0.77284 -0.721826,-0.46513 -0.0016,0.24607 -0.104796,0.51036 -0.229296,0.58731 -0.124499,0.0769 -0.170151,-0.15416 -0.101449,-0.51355 0.0687,-0.3594 0.217765,-0.65346 0.331245,-0.65346 0.286592,0 1.848649,1.8095 1.848649,2.14149 0,0.14905 0.09722,0.21091 0.216038,0.13748 0.118819,-0.0734 0.423206,0.21719 0.676415,0.64584 0.253209,0.42865 0.57372,0.77936 0.712248,0.77936 0.267385,0 -0.13906,-0.84138 -0.830776,-1.71979 -1.0306,-1.30876 -2.392384,-3.30729 -2.253559,-3.30729 0.395507,0 5.365506,7.31482 5.130008,7.55032 -0.04606,0.0461 -0.476236,-0.38377 -0.955955,-0.95517 z m 5.192234,-1.58007 c -0.368155,-1.30309 -0.575392,-2.36925 -0.460529,-2.36925 0.114864,0 0.361463,0.68198 0.548,1.51551 0.293314,1.31068 0.366339,1.4269 0.54029,0.85989 0.162099,-0.52836 0.187716,-0.46664 0.13199,0.31802 -0.03803,0.5355 0.02503,0.91542 0.140142,0.84428 0.115109,-0.0711 0.209288,0.10878 0.209288,0.39982 0,1.30558 -0.494975,0.60573 -1.109181,-1.56827 z m -19.131444,1.59366 c -0.436563,-0.11894 -1.150938,-0.33465 -1.5875,-0.47934 -0.758339,-0.25135 -0.764241,-0.26452 -0.132292,-0.2952 l 0.661458,-0.0321 -0.661458,-0.37812 c -0.363802,-0.20797 -0.570357,-0.38235 -0.459012,-0.3875 0.247446,-0.0115 3.104845,1.58588 3.104845,1.73567 0,0.0589 -0.02976,0.0949 -0.06615,0.08 -0.03638,-0.0149 -0.423333,-0.1244 -0.859895,-0.24334 z m 14.857481,-0.58947 c 0.112387,-0.1819 0.63705,-0.98557 1.165923,-1.78594 1.793309,-2.71389 1.788481,-2.56794 0.101193,-3.05845 -0.813705,-0.23655 -1.431348,-0.4782 -1.372547,-0.537 0.161856,-0.16186 2.799273,0.66523 2.962261,0.92896 0.07824,0.12659 -0.03122,0.56454 -0.24325,0.97323 -0.455861,0.87867 -0.335483,1.11373 0.315773,0.61659 0.25818,-0.19708 0.123774,0.0198 -0.298675,0.48206 -0.422452,0.46221 -0.871887,0.77623 -0.998744,0.69783 -0.126857,-0.0784 -0.199689,-0.0444 -0.161846,0.0755 0.08941,0.28344 -1.14337,1.9379 -1.443984,1.9379 -0.126741,0 -0.138489,-0.14883 -0.02611,-0.33073 z m 2.208144,-2.31511 c 0,-0.14552 -0.0525,-0.26458 -0.116676,-0.26458 -0.06417,0 -0.190262,0.11906 -0.280199,0.26458 -0.08994,0.14553 -0.03743,0.26459 0.116676,0.26459 0.154109,0 0.280199,-0.11906 0.280199,-0.26459 z m -27.384375,1.73169 c 0.436562,-0.35582 1.121172,-0.78639 1.521354,-0.95683 0.695833,-0.29636 0.995309,-0.77486 0.484957,-0.77486 -0.508127,0 -2.734474,-1.07982 -2.568516,-1.24578 0.09578,-0.0958 0.305276,-0.043 0.465539,0.11724 0.160264,0.16027 0.664295,0.25662 1.120069,0.21412 0.455774,-0.0425 0.594249,-0.021 0.307721,0.0477 -0.439378,0.10539 -0.387586,0.18104 0.330729,0.48307 1.065763,0.44812 1.085776,0.94461 0.05644,1.40024 -0.437385,0.19361 -0.718468,0.47624 -0.624628,0.62808 0.09632,0.15584 0.01159,0.22306 -0.194577,0.15433 -0.200856,-0.0669 -0.52359,0.0367 -0.717185,0.23026 -0.193596,0.1936 -0.492313,0.3514 -0.663821,0.35068 -0.171506,-7.9e-4 0.04536,-0.29244 0.48192,-0.64825 z m 6.813021,-0.88779 c -1.065896,-0.5085 -1.088372,-0.87817 -0.08052,-1.32429 0.428656,-0.18974 0.72454,-0.48788 0.657518,-0.66254 -0.07276,-0.18961 0.40041,-0.50305 1.174361,-0.77794 1.573832,-0.55897 2.694774,-0.59734 1.443892,-0.0494 -0.461803,0.20228 -0.915315,0.49022 -1.007803,0.63987 -0.09249,0.14965 -0.309962,0.27027 -0.483275,0.26804 -0.189338,-0.002 -0.156704,-0.10642 0.08176,-0.26053 0.352777,-0.22799 0.352777,-0.25648 0,-0.25648 -0.218281,0 -0.575469,0.11541 -0.79375,0.25648 -0.352777,0.22798 -0.352777,0.25708 0,0.26189 0.218281,0.003 -0.07937,0.29389 -0.661458,0.64648 l -1.058334,0.64109 0.701903,0.26728 c 0.386045,0.14701 0.780026,0.39369 0.875511,0.54819 0.09548,0.15449 0.136816,0.26542 0.09185,0.24651 -0.04497,-0.0189 -0.468715,-0.219 -0.941657,-0.44463 z m -15.774383,-0.91004 c -0.19789,-0.73842 -0.218428,-2.98413 -0.02553,-2.79123 0.184607,0.18461 0.481015,3.38654 0.313498,3.38654 -0.07064,0 -0.200225,-0.26789 -0.287971,-0.59531 z m 28.185428,0.0661 c 0,-0.3638 0.06005,-0.51263 0.133454,-0.33072 0.0734,0.1819 0.0734,0.47955 0,0.66145 -0.0734,0.18191 -0.133454,0.0331 -0.133454,-0.33073 z m 10.827031,-0.41892 c 0.0127,-0.30822 0.07539,-0.37092 0.15985,-0.15985 0.07643,0.19099 0.06703,0.4192 -0.02087,0.50712 -0.08792,0.0879 -0.150453,-0.0684 -0.138965,-0.34727 z m -27.588395,-0.3378 c 0.282596,-0.17923 0.274788,-0.38464 -0.04258,-1.12043 -0.862534,-1.99971 -1.4927,-3.76867 -1.381977,-3.87939 0.251121,-0.25112 0.659897,0.26259 1.474131,1.85253 0.466169,0.91028 1.044112,1.81755 1.284319,2.01615 0.346006,0.28607 0.354288,0.33745 0.03986,0.24732 -0.218281,-0.0626 -0.736137,-0.73908 -1.150789,-1.50336 -1.034061,-1.90594 -1.171152,-1.53053 -0.212871,0.58291 0.79792,1.75977 0.80644,2.03497 0.06279,2.02778 -0.323913,-0.003 -0.340445,-0.0538 -0.07289,-0.22351 z m 2.788838,-0.44306 c -0.08569,-0.22332 -0.01095,-0.92342 0.166102,-1.55579 0.412578,-1.47358 0.239639,-2.52131 -0.222086,-1.34547 -0.511802,1.30338 -0.940501,2.04954 -1.02753,1.78845 -0.08803,-0.26409 1.70733,-4.03741 1.921018,-4.03741 0.07077,0 0.128664,0.30469 0.128664,0.67708 0,0.37239 -0.08951,0.62175 -0.198901,0.55414 -0.109394,-0.0676 -0.187899,0.49092 -0.174453,1.24116 0.01344,0.75025 -0.09864,1.44485 -0.249078,1.54357 -0.185807,0.12193 -0.174104,0.3977 0.03649,0.8599 0.195839,0.42982 0.211601,0.6804 0.0428,0.6804 -0.146968,0 -0.33733,-0.18271 -0.423026,-0.40603 z m 13.179345,-0.46239 c -0.03251,-0.76831 -0.180594,-1.05628 -0.637656,-1.24 l -0.595313,-0.23928 0.603615,-0.0168 c 0.717836,-0.02 0.927373,0.41286 0.780288,1.61169 l -0.108593,0.88508 -0.04234,-1.00071 z m -11.998203,0.4231 c 0.190995,-0.0764 0.419198,-0.067 0.507119,0.0209 0.08792,0.0879 -0.06835,0.15045 -0.347266,0.13896 -0.308226,-0.0127 -0.370919,-0.0754 -0.159853,-0.15985 z m 23.421136,-0.21613 c 0,-0.18419 0.209555,-0.26947 0.485071,-0.19742 0.266788,0.0698 0.485069,0.1586 0.485069,0.19742 0,0.0388 -0.218281,0.12765 -0.485069,0.19742 -0.275516,0.0721 -0.485071,-0.0132 -0.485071,-0.19742 z m -43.72602,0 c 4.5e-4,-0.14552 0.777106,-1.0957 1.7259,-2.11151 1.14776,-1.22883 1.684076,-2.00373 1.602554,-2.31547 -0.06739,-0.2577 -0.01457,-0.40182 0.117381,-0.32027 0.45952,0.284 0.232674,0.81799 -0.884571,2.08227 -0.618463,0.69985 -1.124479,1.37742 -1.124479,1.5057 0,0.12828 -0.09575,0.22801 -0.212773,0.22163 -0.117025,-0.006 -0.440486,0.2615 -0.718802,0.59531 -0.278315,0.33381 -0.50566,0.48786 -0.50521,0.34234 z m 46.548243,-0.14438 c -0.28984,-0.19614 -0.182806,-0.22069 0.396875,-0.091 0.972855,0.21761 1.18404,0.36905 0.507119,0.36364 -0.278916,-0.002 -0.685713,-0.12491 -0.903994,-0.27262 z m 2.778125,0.0121 c 0.291042,-0.12506 0.826823,-0.23393 1.190625,-0.24193 0.521327,-0.0115 0.577379,0.0398 0.264584,0.24193 -0.218282,0.14107 -0.754063,0.24994 -1.190625,0.24194 -0.681493,-0.0125 -0.71891,-0.0467 -0.264584,-0.24194 z m -1.852083,-0.545 c -0.436563,-0.12452 -1.389063,-0.3066 -2.116667,-0.40461 -0.727604,-0.098 -1.198726,-0.22381 -1.046937,-0.27955 0.321706,-0.11814 3.01095,0.28704 4.354229,0.65603 0.731062,0.20082 0.78677,0.2544 0.264583,0.25446 -0.363802,4e-5 -1.018646,-0.10181 -1.455208,-0.22633 z m -38.241523,-0.4686 c -0.5144,-0.24288 -1.288306,-0.72253 -1.719792,-1.06588 -0.47126,-0.375 -0.520398,-0.45317 -0.12306,-0.19577 0.893871,0.57907 1.898518,0.9941 2.046986,0.84563 0.06683,-0.0668 -0.48546,-0.55758 -1.227317,-1.09056 -1.471258,-1.05699 -1.882458,-1.58644 -0.48894,-0.62954 1.336469,0.91772 2.047441,1.61774 1.894459,1.86527 -0.07686,0.12437 0.03884,0.22612 0.257125,0.22612 0.218281,0 0.470458,0.11906 0.560395,0.26458 0.222793,0.36049 -0.09349,0.30254 -1.199856,-0.21985 z m 19.948305,-0.18555 c 0.546061,-0.31447 0.837065,-0.35554 1.045105,-0.1475 0.208039,0.20804 0.181496,0.28933 -0.09532,0.29193 -0.211005,0.002 -0.681302,0.0684 -1.045104,0.14751 -0.630068,0.13706 -0.625546,0.1232 0.09532,-0.29194 z m -27.347407,0.0409 c 0,-0.055 0.208359,-0.2633 0.463021,-0.46303 0.419644,-0.3291 0.429002,-0.31974 0.0999,0.0999 -0.345644,0.44073 -0.562916,0.58089 -0.562916,0.36313 z m 3.534614,-0.93807 c 0.02294,-0.55749 0.189835,-0.94667 0.434136,-1.01233 0.268007,-0.072 0.297237,-0.0354 0.09002,0.11278 -0.16877,0.12069 -0.364131,0.57624 -0.434136,1.01233 -0.1166,0.72635 -0.124154,0.71689 -0.09002,-0.11278 z m 32.382573,0.59815 c 0.181901,-0.0734 0.479558,-0.0734 0.661459,0 0.181901,0.0734 0.03307,0.13345 -0.330729,0.13345 -0.363802,0 -0.512631,-0.0601 -0.33073,-0.13345 z m -6.832959,-0.57244 c 0.91055,-0.73089 0.899826,-1.28748 -0.05683,-2.94993 -0.462647,-0.80398 -0.813236,-1.55107 -0.779081,-1.66021 0.03415,-0.10915 -0.04423,-0.19844 -0.174178,-0.19844 -0.129953,0 -0.308163,-0.18733 -0.396023,-0.41629 -0.247756,-0.64565 1.221399,0.64314 2.074127,1.81949 1.033203,1.42531 1.457087,1.20581 2.068084,-1.07093 0.588833,-2.19414 0.992447,-2.35561 0.696931,-0.27882 -0.109704,0.77097 -0.208156,1.85626 -0.218779,2.41177 -0.01767,0.92411 0.03132,0.99578 0.575998,0.84257 0.466024,-0.13109 0.509119,-0.10711 0.198438,0.11041 -0.813626,0.56964 -1.057736,0.32082 -1.082196,-1.1031 -0.02363,-1.37615 -0.0263,-1.38046 -0.285295,-0.46302 -0.408567,1.44721 -0.626931,1.475 -1.819312,0.23147 -0.810078,-0.84482 -0.969328,-0.94309 -0.589519,-0.36376 0.494105,0.75367 1.209392,2.53601 1.065536,2.65509 -0.03704,0.0307 -0.484058,0.25664 -0.993381,0.50219 l -0.926042,0.44645 z m 3.105584,-4.61014 c -0.0734,-0.18191 -0.133454,-0.0331 -0.133454,0.33072 0,0.36381 0.06006,0.51263 0.133454,0.33073 0.0734,-0.1819 0.0734,-0.47955 0,-0.66145 z m 1.412271,4.84229 c -0.341103,-0.23217 -0.331808,-0.2707 0.06615,-0.27418 0.254662,-0.002 0.464844,-0.15288 0.467072,-0.33478 0.0031,-0.25037 0.05785,-0.24589 0.225433,0.0184 0.165679,0.2613 0.897104,0.32787 2.906942,0.26459 1.477058,-0.0465 2.685302,0.005 2.684984,0.11388 -2.65e-4,0.10914 -0.923311,0.19974 -2.051098,0.20135 -1.127786,0.002 -2.467239,0.0654 -2.976562,0.14188 -0.509323,0.0764 -1.104635,0.0174 -1.322917,-0.13115 z m 8.73125,0.002 c 0,-0.13693 0.1177,-0.32171 0.261554,-0.41062 0.149982,-0.0927 0.194337,0.0135 0.103984,0.24897 -0.175892,0.45849 -0.365538,0.54235 -0.365538,0.16177 z M 22.888945,229.3403 c 0.263389,-0.29104 0.538421,-0.52916 0.611181,-0.52916 0.07276,0 -0.08321,0.23812 -0.346597,0.52916 -0.263389,0.29105 -0.538421,0.52917 -0.611181,0.52917 -0.07276,0 0.08321,-0.23812 0.346597,-0.52917 z m 1.125868,-0.13229 c -0.06955,-0.3638 -0.02389,-0.66146 0.101448,-0.66146 0.125341,0 0.227893,0.29766 0.227893,0.66146 0,0.36381 -0.04565,0.66146 -0.101448,0.66146 -0.05579,0 -0.158347,-0.29765 -0.227893,-0.66146 z m 38.238348,0.0661 c -0.610182,-0.78897 -0.69352,-1.12431 -0.164383,-0.66146 0.291135,0.25466 0.593781,0.46302 0.67255,0.46302 0.07877,0 0.937596,-1.12066 1.908503,-2.49036 1.818529,-2.56547 2.809695,-3.66143 2.454069,-2.71352 -0.100007,0.26656 -0.18183,0.54148 -0.18183,0.61093 0,0.0694 -0.103444,0.0623 -0.229875,-0.0158 -0.126431,-0.0781 -1.030928,1.04593 -2.009989,2.49793 -0.979062,1.452 -1.87307,2.64 -1.986685,2.64 -0.113615,0 -0.321678,-0.14883 -0.46236,-0.33073 z m -8.127806,-0.32232 c 0.282474,-0.21365 0.632653,-0.38846 0.778174,-0.38846 0.14552,0 0.03347,0.17481 -0.249008,0.38846 -0.282474,0.21366 -0.632653,0.38846 -0.778174,0.38846 -0.145521,0 -0.03347,-0.1748 0.249008,-0.38846 z m 10.730177,-0.93149 c 0.326234,-0.58046 0.636346,-1.01218 0.689139,-0.95939 0.113686,0.11369 -0.98011,2.01476 -1.159206,2.01476 -0.0677,0 0.143833,-0.47492 0.470067,-1.05537 z m -9.463384,0.32777 c 0.122949,-0.19927 0.06639,-0.33485 -0.142275,-0.34109 -0.190489,-0.006 0.05862,-0.18612 0.553588,-0.40093 0.494962,-0.21482 0.925756,-0.35899 0.957318,-0.32038 0.03157,0.0386 -0.309382,0.36787 -0.757655,0.73167 -0.448276,0.3638 -0.723215,0.51263 -0.610976,0.33073 z m 4.376841,-1.5875 c -0.480127,-0.98227 -0.918017,-1.87532 -0.97309,-1.98456 -0.2843,-0.56394 0.686784,0.19668 1.189942,0.93203 0.321419,0.46975 0.839822,1.21128 1.152006,1.64784 0.442331,0.61855 0.387911,0.58935 -0.246546,-0.13229 -0.924576,-1.05163 -0.994725,-0.99187 -0.427972,0.36456 0.662813,1.58634 0.238189,1.08022 -0.69434,-0.82758 z m -33.983875,0.96913 c -0.09777,-0.1582 -0.07078,-0.39462 0.05998,-0.52539 0.14061,-0.14061 0.237749,-0.0231 0.237749,0.28764 0,0.6012 -0.04895,0.64028 -0.29773,0.23775 z m -4.152939,-1.18661 c -0.98913,-0.53661 -0.928922,-0.76011 0.06614,-0.24554 0.436563,0.22575 0.79375,0.46693 0.79375,0.53596 0,0.17026 -0.02843,0.16066 -0.859895,-0.29042 z m 4.989697,0.0395 c 0.07945,-0.20703 0.336923,-0.45028 0.572175,-0.54056 0.351398,-0.13484 0.340429,-0.0677 -0.06146,0.37642 -0.576318,0.63682 -0.708385,0.67927 -0.510712,0.16414 z m 38.997282,-0.13714 c 0,-0.13693 0.117699,-0.32171 0.261553,-0.41061 0.149982,-0.0927 0.194337,0.0135 0.103984,0.24896 -0.175892,0.45837 -0.365537,0.54224 -0.365537,0.16165 z m -42.06875,-0.27189 c 0,-0.14095 -0.174818,-0.1892 -0.388485,-0.10721 -0.38773,0.14879 -2.896469,-0.67309 -2.68872,-0.88083 0.06028,-0.0603 0.567563,0.0817 1.127305,0.31563 1.506998,0.62966 2.208205,0.35984 2.240857,-0.86229 0.0145,-0.54293 0.112007,-1.2848 0.21667,-1.64861 0.165172,-0.57412 0.211862,-0.50425 0.353625,0.52917 0.08983,0.65485 0.232138,1.48828 0.31624,1.85208 0.0841,0.36381 -0.01831,0.24474 -0.227579,-0.26458 l -0.380489,-0.92604 -0.05148,0.79375 c -0.02831,0.43656 -0.03215,0.94258 -0.0085,1.12448 0.02362,0.1819 -0.08133,0.33073 -0.233235,0.33073 -0.1519,0 -0.276182,-0.11533 -0.276182,-0.25628 z m 1.322916,0.15484 c 0,-0.0558 0.23829,-0.16374 0.529532,-0.2399 0.291243,-0.0762 0.46281,-0.0305 0.38126,0.10143 -0.142412,0.23043 -0.910792,0.34725 -0.910792,0.13847 z m 31.766637,-0.9569 c -0.0024,-0.21828 0.220152,-1.23031 0.494787,-2.24895 l 0.49934,-1.85209 -0.106325,1.53332 c -0.09326,1.34491 -0.875869,3.60838 -0.887802,2.56772 z m 9.657665,-0.0776 c 0.09936,-0.26094 0.247303,-0.40778 0.328766,-0.32632 0.08146,0.0815 1.69e-4,0.29495 -0.180652,0.47443 -0.261308,0.25936 -0.291698,0.22897 -0.148114,-0.14811 z m -47.417855,-0.32908 c -0.453066,-0.34326 -0.454944,-0.3709 -0.02572,-0.3787 0.254662,-0.005 0.463021,0.10691 0.463021,0.24787 0,0.14095 0.178594,0.18774 0.396875,0.10398 0.218281,-0.0838 0.396875,-0.0928 0.396875,-0.02 0,0.3465 -0.795582,0.37678 -1.231053,0.0469 z m 8.90397,0.0381 c 0,-0.0572 0.184777,-0.17489 0.410618,-0.26156 0.235458,-0.0904 0.341661,-0.046 0.248967,0.10399 -0.155379,0.25141 -0.659585,0.37186 -0.659585,0.15757 z m 1.172887,-0.35904 c 0.03725,-0.25466 0.294609,-0.50662 0.571903,-0.55992 0.495792,-0.0953 0.495794,-0.0876 1.4e-4,0.46302 -0.611206,0.67899 -0.65836,0.68697 -0.572043,0.0969 z m -8.919766,-2.00601 c -0.294817,-0.74959 -0.246755,-1.13252 0.09877,-0.78699 0.159168,0.15917 0.244947,0.5104 0.190621,0.78052 -0.09527,0.47369 -0.105543,0.47392 -0.289396,0.006 z m 3.538362,-0.57368 c -0.0067,-0.80699 0.05222,-0.95391 0.247912,-0.61862 0.161791,0.2772 0.165016,0.66833 0.0087,1.05833 -0.216831,0.54107 -0.249006,0.48594 -0.256637,-0.43971 z m 34.379121,0.52917 c 0,-0.14552 0.115414,-0.44318 0.256479,-0.66146 0.141066,-0.21828 0.256479,-0.27781 0.256479,-0.13229 0,0.14552 -0.115413,0.44318 -0.256479,0.66146 -0.141065,0.21828 -0.256479,0.27781 -0.256479,0.13229 z m 4.867198,-1.1274 c -0.738325,-0.68962 -1.132779,-1.09336 -0.87657,-0.8972 0.256212,0.19615 0.580412,0.28584 0.72044,0.19929 0.218575,-0.13508 1.895411,1.48788 1.895411,1.83452 0,0.34136 -0.522494,-9e-5 -1.739281,-1.13661 z m 1.210115,0.63924 c 0,-0.0502 -0.267891,-0.3181 -0.595313,-0.59531 l -0.595312,-0.50403 0.504028,0.59531 c 0.473663,0.55945 0.686597,0.71576 0.686597,0.50403 z m -22.094167,-1.28142 c -0.09666,-0.64457 -0.123949,-1.52214 -0.06064,-1.95014 0.08861,-0.59909 0.124227,-0.51539 0.154746,0.36368 0.0218,0.62803 0.169736,1.38495 0.328737,1.68205 0.195255,0.36483 0.202071,0.6272 0.02101,0.80827 -0.181073,0.18108 -0.325141,-0.11232 -0.443841,-0.90386 z m 3.537665,0.0397 c -0.528939,-0.43235 -1.281949,-1.23203 -1.673355,-1.77706 -0.669869,-0.9328 -0.648083,-0.92266 0.371131,0.17286 1.184326,1.273 1.676379,1.3564 0.786569,0.13333 l -0.558731,-0.768 0.621173,0.72059 c 2.000988,2.32126 2.183469,2.93258 0.453213,1.51828 z m 12.248277,-0.2545 c 0,-0.3638 0.06005,-0.51263 0.133453,-0.33072 0.0734,0.1819 0.0734,0.47955 0,0.66145 -0.0734,0.1819 -0.133453,0.0331 -0.133453,-0.33073 z m 1.024662,-0.13229 c 0,-0.14552 0.115414,-0.44317 0.256479,-0.66146 0.141066,-0.21828 0.256479,-0.27781 0.256479,-0.13229 0,0.14552 -0.115413,0.44318 -0.256479,0.66146 -0.141065,0.21828 -0.256479,0.27781 -0.256479,0.13229 z m -38.351799,-0.55121 c 0.0127,-0.30823 0.07539,-0.37092 0.159852,-0.15985 0.07643,0.19099 0.06703,0.41919 -0.02089,0.50711 -0.08792,0.0879 -0.150452,-0.0683 -0.138964,-0.34726 z m 42.312445,0.0423 c 0.368136,-0.47205 0.354854,-0.49808 -0.183404,-0.35943 -0.395052,0.10176 -0.73288,-0.0299 -1.058333,-0.41258 -0.46499,-0.54669 -0.464288,-0.55133 0.02561,-0.16975 0.277019,0.21576 0.712955,0.35684 0.968748,0.31351 0.665719,-0.11278 0.851737,0.35222 0.310611,0.77644 -0.424905,0.33311 -0.429742,0.32178 -0.06323,-0.14819 z m -37.47457,-0.28333 c -0.08344,-0.21744 -0.240529,-0.34046 -0.349082,-0.27337 -0.108554,0.0671 -0.59546,-0.17172 -1.082013,-0.53069 -0.486553,-0.35896 -0.749474,-0.65267 -0.58427,-0.65267 0.165205,0 0.373957,0.11907 0.463893,0.26459 0.238525,0.38594 0.723568,0.32451 0.522267,-0.0661 -0.09373,-0.1819 0.186648,0.0466 0.623065,0.50785 0.436418,0.46122 0.863268,0.7688 0.948557,0.68351 0.08529,-0.0853 0.15507,-0.0162 0.15507,0.15361 0,0.44472 -0.518285,0.38032 -0.697487,-0.0867 z m 35.217166,-0.14314 c -0.28163,-0.3112 -0.6619,-0.4721 -0.900901,-0.3812 -0.333724,0.12693 -0.349022,0.0923 -0.07923,-0.17948 0.270335,-0.27232 0.471776,-0.19935 1.052319,0.38119 0.394891,0.39489 0.649846,0.71799 0.566566,0.71799 -0.08328,0 -0.370718,-0.24233 -0.638752,-0.5385 z m -2.463321,-0.51984 c 0,-0.3638 0.06006,-0.51263 0.133453,-0.33072 0.0734,0.1819 0.0734,0.47955 0,0.66145 -0.0734,0.1819 -0.133453,0.0331 -0.133453,-0.33073 z M 19.66094,217.69864 c 0,-0.80037 0.0496,-1.12779 0.110223,-0.72761 0.06062,0.40019 0.06062,1.05503 0,1.45521 -0.06062,0.40018 -0.110223,0.0728 -0.110223,-0.7276 z m 18.615037,0.6495 c 0.0806,-0.21003 0.253129,-0.31601 0.3834,-0.23549 0.328112,0.20278 0.29791,0.2997 -0.14654,0.47025 -0.255749,0.0981 -0.33461,0.02 -0.23686,-0.23476 z m 4.059843,0.15986 c 0,-0.13693 0.1177,-0.32171 0.261554,-0.41061 0.149982,-0.0927 0.194337,0.0135 0.103984,0.24896 -0.175892,0.45837 -0.365538,0.54224 -0.365538,0.16165 z m -27.668273,-0.41817 c 0.280419,-0.21215 0.574627,-0.32095 0.653796,-0.24178 0.166077,0.16608 -0.505909,0.63836 -0.899064,0.63187 -0.145521,-0.002 -0.03515,-0.17794 0.245268,-0.39009 z m 5.68693,-0.85445 c 0.126429,-0.91313 0.144873,-0.93157 0.232111,-0.23211 0.05212,0.4179 -0.0097,0.86428 -0.137343,0.99194 -0.133093,0.1331 -0.173521,-0.19105 -0.09477,-0.75983 z m 18.695906,0.7632 c -0.07792,-0.12607 0.09323,-0.4418 0.380326,-0.70162 0.398055,-0.36023 0.451702,-0.55709 0.225946,-0.82911 -0.201496,-0.24279 -0.206185,-0.35671 -0.01468,-0.35671 0.57735,0 0.614378,0.58775 0.07331,1.16369 -0.307617,0.32745 -0.478842,0.67582 -0.380497,0.77417 0.09835,0.0983 0.106461,0.1788 0.01805,0.1788 -0.08842,0 -0.224523,-0.10315 -0.30244,-0.22922 z m -23.437479,-0.26755 c 0,-0.1277 0.208359,-0.39559 0.463021,-0.59531 0.428468,-0.33603 0.433404,-0.32487 0.06614,0.14943 -0.36079,0.46596 -0.354775,0.49679 0.06615,0.33904 0.254662,-0.0954 0.463021,-0.0582 0.463021,0.0828 0,0.14095 -0.238125,0.25628 -0.529167,0.25628 -0.291041,0 -0.529166,-0.10448 -0.529166,-0.23219 z m 7.388308,-0.49541 -0.641433,-0.72761 0.727604,0.64143 c 0.680056,0.59952 0.848939,0.81378 0.641433,0.81378 -0.04739,0 -0.374816,-0.32742 -0.727604,-0.7276 z m 18.540858,0.39687 c 0,-0.23041 -0.148828,-0.47898 -0.330729,-0.55237 -0.259043,-0.10453 -0.257244,-0.13798 0.0083,-0.15434 0.37728,-0.0233 0.745519,0.70254 0.487405,0.96066 -0.09074,0.0907 -0.164984,-0.0235 -0.164984,-0.25395 z m 19.63674,-0.52916 c 0.409491,-0.40019 0.891474,-0.72399 1.071081,-0.71956 0.179605,0.004 0.08843,0.13974 -0.202612,0.30071 -0.291042,0.16097 -0.773028,0.48477 -1.071079,0.71956 -0.298053,0.23479 -0.206877,0.0995 0.20261,-0.30071 z m -39.664173,-0.0855 -0.742358,-0.68076 0.859896,0.59822 c 0.472942,0.32903 0.859895,0.63537 0.859895,0.68076 0,0.20885 -0.292659,0.0297 -0.977433,-0.59822 z m 27.311719,0.42951 c -0.0854,-0.13818 -0.717507,-0.2114 -1.404678,-0.16271 -1.084926,0.0769 -1.127493,0.0626 -0.323358,-0.10808 0.509323,-0.10814 0.687917,-0.21532 0.396875,-0.23818 -0.291041,-0.0229 -1.064948,-0.21366 -1.719791,-0.42399 -1.118831,-0.35936 -1.134785,-0.3772 -0.264584,-0.29594 0.509323,0.0476 1.104636,0.15269 1.322917,0.23362 0.218281,0.0809 1.021953,0.34453 1.785937,0.5858 0.763985,0.24127 1.389063,0.48863 1.389063,0.5497 0,0.22506 -1.032288,0.10264 -1.182381,-0.14022 z m 7.530603,-0.17496 c -0.639273,-0.36964 -0.622993,-0.37918 0.526285,-0.30834 1.125495,0.0694 1.194724,0.0326 1.357757,-0.72066 l 0.171794,-0.79375 0.03131,0.8599 c 0.01722,0.47294 -0.08776,0.87775 -0.233281,0.89958 -0.145521,0.0218 -0.413411,0.0516 -0.595312,0.0661 -0.181901,0.0146 -0.39106,0.10568 -0.464799,0.20251 -0.07374,0.0968 -0.430927,0.004 -0.79375,-0.20538 z m -12.465632,-0.1768 c 0.127661,-0.12766 0.57404,-0.18946 0.991949,-0.13734 0.699458,0.0872 0.681011,0.10568 -0.232111,0.23211 -0.568785,0.0787 -0.892929,0.0383 -0.759838,-0.0948 z m -26.558632,-0.844 c 0.436563,-0.35784 0.892182,-0.65491 1.012488,-0.66014 0.120306,-0.005 -0.135006,0.28814 -0.567361,0.65194 -0.432354,0.3638 -0.887973,0.66087 -1.012487,0.66014 -0.124514,-7.2e-4 0.130798,-0.29409 0.56736,-0.65194 z m 1.042758,0.27098 c 0.282474,-0.22631 0.62974,-0.41147 0.771701,-0.41147 0.336164,0 0.186064,0.12221 -0.623834,0.50792 -0.623693,0.29704 -0.632136,0.29153 -0.147867,-0.0965 z m 41.027866,0.12072 c -0.09236,-0.14943 0.01267,-0.19465 0.24502,-0.10549 0.403973,0.15502 2.794436,-1.17149 2.795341,-1.55118 2.62e-4,-0.10914 0.18592,-0.19844 0.412578,-0.19844 0.226655,0 0.94103,-0.2953 1.5875,-0.65622 1.20097,-0.67049 1.656837,-0.57611 0.580083,0.1201 -0.60493,0.39114 -0.735399,0.44115 -1.322917,0.5071 -0.239956,0.0269 -0.247822,0.0905 -0.02866,0.23151 0.200398,0.12896 0.06682,0.36638 -0.396875,0.70538 l -0.698947,0.511 0.504029,-0.57714 c 0.757232,-0.86708 0.06333,-0.70602 -1.503122,0.3489 -1.429763,0.96285 -1.900677,1.10679 -2.174033,0.66448 z m -37.932275,-0.62477 c -0.602344,-0.64117 -0.521923,-0.85923 0.49186,-1.33369 0.218281,-0.10216 0.124605,0.0158 -0.20817,0.26212 l -0.605045,0.44787 0.58502,0.62272 c 0.32176,0.3425 0.525488,0.62272 0.452728,0.62272 -0.07276,0 -0.395137,-0.27978 -0.716393,-0.62174 z m 17.111,-0.0882 c 0.190995,-0.0764 0.419198,-0.067 0.507119,0.0209 0.08792,0.0879 -0.06835,0.15046 -0.347265,0.13897 -0.308227,-0.0127 -0.37092,-0.0754 -0.159854,-0.15985 z m 20.31093,-0.49245 c -0.117266,-0.46723 -0.302635,-0.64892 -0.56094,-0.5498 -0.216265,0.083 -0.385797,-0.003 -0.385797,-0.19643 0,-0.64172 0.764185,-0.34905 1.080114,0.41367 0.172714,0.41697 0.252772,0.81939 0.1779,0.89426 -0.07487,0.0749 -0.214945,-0.17789 -0.311277,-0.5617 z M 35.853529,215.3173 c -0.09311,-0.15066 0.134749,-0.26459 0.529166,-0.26459 0.394417,0 0.622277,0.11393 0.529167,0.26459 -0.08994,0.14552 -0.328062,0.26458 -0.529167,0.26458 -0.201104,0 -0.439229,-0.11906 -0.529166,-0.26458 z m 3.505729,0.0894 c 0.181901,-0.0734 0.479557,-0.0734 0.661458,0 0.181901,0.0734 0.03307,0.13346 -0.330729,0.13346 -0.363802,0 -0.51263,-0.0601 -0.330729,-0.13346 z m 5.297628,-0.9152 c 0.621741,-0.65489 1.051898,-1.26924 0.955907,-1.36524 -0.175707,-0.1757 -1.745689,0.80193 -1.909958,1.18934 -0.04851,0.1144 -0.316399,0.208 -0.595312,0.208 -0.385567,0 -0.498483,-0.1744 -0.471088,-0.72761 0.03089,-0.62384 0.05238,-0.64271 0.150693,-0.13229 0.104307,0.54155 0.607026,0.86893 0.607026,0.39532 0,-0.11 0.344519,-0.3525 0.765598,-0.53888 0.421079,-0.18639 1.082056,-0.63218 1.46884,-0.99063 0.386783,-0.35846 0.788746,-0.65175 0.893254,-0.65175 0.104505,0 0.902044,-0.53453 1.772304,-1.18784 1.627251,-1.22159 1.97917,-1.38675 1.97917,-0.92882 0,0.14552 -0.131693,0.26458 -0.29265,0.26458 -0.160957,0 -0.52768,0.29879 -0.814935,0.66398 -0.287258,0.36519 -0.631817,0.59629 -0.765683,0.51355 -0.133869,-0.0827 -0.243398,-0.039 -0.243398,0.0973 0,0.13622 -1.041797,1.17784 -2.315105,2.3147 -1.273307,1.13687 -1.806405,1.53121 -1.184663,0.87633 z m 2.455677,-2.26039 0.911799,-0.96956 -1.11883,0.77113 c -0.615358,0.42412 -1.121373,0.86042 -1.12448,0.96956 -0.0122,0.42888 0.460407,0.15517 1.331511,-0.77113 z m 1.871591,-1.61012 c 0.329107,-0.41964 0.319749,-0.429 -0.0999,-0.0999 -0.254662,0.19972 -0.463021,0.40808 -0.463021,0.46302 0,0.21776 0.217273,0.0776 0.562917,-0.36313 z M 17.26655,213.4316 c -0.909506,-0.88803 -1.653646,-1.66465 -1.653646,-1.72582 0,-0.22809 1.043624,0.45727 1.245439,0.81789 0.115373,0.20616 0.328832,0.41306 0.474352,0.45978 0.145521,0.0467 0.238625,0.16282 0.206897,0.258 -0.03173,0.0952 0.139392,0.33331 0.380267,0.52917 0.384966,0.31302 0.414577,0.29387 0.244738,-0.15823 -0.182986,-0.4871 -0.166997,-0.49061 0.302025,-0.0661 0.634625,0.57432 1.044594,0.56924 1.197231,-0.0148 0.109906,-0.42056 0.123814,-0.41829 0.151692,0.0248 0.01798,0.28569 -0.194744,0.54674 -0.513439,0.63008 -0.322839,0.0844 -0.487621,0.28956 -0.405179,0.5044 0.07642,0.19915 0.112924,0.36062 0.08111,0.35882 -0.03181,-0.002 -0.801982,-0.72985 -1.711487,-1.61788 z m 3.210465,0.71058 c -0.0805,-0.20978 -0.09973,-0.59674 -0.04274,-0.8599 0.06471,-0.29877 0.155271,-0.15552 0.241137,0.38142 0.144091,0.90104 0.05043,1.12692 -0.198396,0.47848 z m 20.280164,-0.32732 -0.588399,-0.74647 0.740992,-0.13285 c 0.499782,-0.0896 0.805069,-0.34798 0.937829,-0.79375 0.10991,-0.36904 0.130677,-0.0767 0.04703,0.66202 -0.194739,1.71967 -0.420622,1.92046 -1.137449,1.01105 z m 0.784891,-0.085 c 0,-0.29398 -0.176389,-0.52917 -0.396875,-0.52917 -0.478417,0 -0.511495,0.30871 -0.07937,0.74083 0.426982,0.42699 0.47625,0.40509 0.47625,-0.21166 z m -20.157942,0.34842 c 0.190996,-0.0764 0.419199,-0.067 0.507118,0.0209 0.08792,0.0879 -0.06835,0.15045 -0.347266,0.13896 -0.308224,-0.0127 -0.370919,-0.0754 -0.159852,-0.15985 z m 18.162955,-1.16311 c -0.374539,-0.73912 -0.62407,-1.48326 -0.554511,-1.65365 0.09089,-0.22264 0.132347,-0.21675 0.147359,0.0209 0.01148,0.1819 0.201375,0.33073 0.421966,0.33073 0.273897,0 0.384408,0.23072 0.348501,0.7276 -0.02892,0.40019 0.09245,0.9955 0.26969,1.32292 0.177247,0.32742 0.260554,0.59531 0.185124,0.59531 -0.07543,0 -0.443588,-0.60473 -0.818129,-1.34385 z m -17.125568,0.78186 c 0.179476,-0.18083 0.39297,-0.26212 0.474432,-0.18066 0.08146,0.0815 -0.06538,0.22941 -0.32632,0.32877 -0.377083,0.14358 -0.407475,0.11319 -0.148112,-0.14811 z m 35.806141,-0.0995 c -0.02111,-0.44831 -0.06826,-0.46853 -0.308422,-0.1323 -0.227751,0.31885 -0.257832,0.27984 -0.153012,-0.19843 0.07176,-0.32743 0.02257,-0.59532 -0.109339,-0.59532 -0.131897,0 -0.23455,-0.26789 -0.228118,-0.59531 0.0096,-0.48749 0.108289,-0.41224 0.54502,0.41546 0.293331,0.55592 0.476062,1.15124 0.40607,1.32292 -0.06999,0.17168 -0.138481,0.074 -0.152199,-0.21702 z M 24.213735,213.4622 c 0.08891,-0.14385 0.01572,-0.26155 -0.162647,-0.26155 -0.178362,0 -0.25385,-0.0704 -0.167751,-0.15654 0.0861,-0.0861 0.357101,-0.0443 0.602225,0.0929 0.413803,0.23157 0.414239,0.26148 0.0061,0.41809 -0.258296,0.0991 -0.372914,0.0608 -0.277929,-0.0929 z m 18.785417,-0.5231 c -0.09269,-0.14998 0.01352,-0.19434 0.248968,-0.10399 0.458369,0.1759 0.542234,0.36554 0.161649,0.36554 -0.136932,0 -0.321712,-0.1177 -0.410617,-0.26155 z m -17.464373,-0.26762 c -0.08994,-0.14552 0.02913,-0.26458 0.264583,-0.26458 0.235458,0 0.35452,0.11906 0.264583,0.26458 -0.08994,0.14553 -0.208999,0.26459 -0.264583,0.26459 -0.05558,0 -0.174646,-0.11906 -0.264583,-0.26459 z m 3.194529,-1.35784 c -0.220922,-0.99928 -0.302006,-4.46424 -0.104453,-4.46358 0.156504,5.2e-4 0.437507,4.73512 0.296326,4.99275 -0.02935,0.0536 -0.115689,-0.18457 -0.191873,-0.52917 z m 7.182598,0.26341 c -0.256511,-0.14355 -0.389167,-0.38594 -0.294796,-0.53864 0.09437,-0.1527 -0.171013,-0.56839 -0.589748,-0.92377 -0.554498,-0.47059 -0.604602,-0.57059 -0.18442,-0.3681 0.568497,0.27398 1.821834,1.80502 1.632559,1.99429 -0.05347,0.0535 -0.307086,-0.0202 -0.563595,-0.16378 z m 6.210912,-0.88994 c 0.0054,-0.43656 0.06469,-0.58313 0.131773,-0.32569 0.06708,0.25743 0.06267,0.61461 -0.0098,0.79375 -0.07248,0.17913 -0.127363,-0.0315 -0.121971,-0.46806 z m -22.229319,0 c 0.003,-0.29104 0.107034,-0.82682 0.231149,-1.19063 l 0.225663,-0.66145 -0.04544,0.66145 c -0.02499,0.36381 0.05858,0.82869 0.185719,1.03307 0.151616,0.24374 0.133823,0.31146 -0.05171,0.19679 -0.155576,-0.0961 -0.343166,-0.0252 -0.416867,0.15756 -0.0737,0.18281 -0.131533,0.0942 -0.128516,-0.19679 z m 45.970577,-0.0505 c -0.01082,-0.26325 -0.07304,-0.76907 -0.138274,-1.12403 -0.160171,-0.87151 0.116959,-0.55232 0.411189,0.4736 0.143073,0.49887 0.13984,0.88612 -0.0081,0.97759 -0.1348,0.0833 -0.25394,-0.0639 -0.264753,-0.32716 z M 42.937049,209.7611 c 0,-0.65485 0.0516,-0.92274 0.114662,-0.59531 0.06307,0.32742 0.06307,0.8632 0,1.19062 -0.06306,0.32742 -0.114662,0.0595 -0.114662,-0.59531 z m -9.617088,-0.19844 -0.641432,-0.7276 0.727604,0.64143 c 0.680056,0.59951 0.848939,0.81377 0.641432,0.81377 -0.04739,0 -0.374814,-0.32742 -0.727604,-0.7276 z m -4.146585,-0.7276 c 0.0029,-0.58209 0.05712,-0.78906 0.120407,-0.45994 0.06329,0.32912 0.06088,0.80537 -0.0053,1.05833 -0.06622,0.25297 -0.118004,-0.0163 -0.115067,-0.59839 z m 13.204219,0.39687 c 0,-0.3638 0.06006,-0.51263 0.133454,-0.33073 0.0734,0.1819 0.0734,0.47956 0,0.66146 -0.0734,0.1819 -0.133454,0.0331 -0.133454,-0.33073 z m -9.96365,-1.32292 c -0.864015,-0.87312 -1.4556,-1.57405 -1.314635,-1.55761 0.253243,0.0295 3.227054,3.14511 3.001992,3.14511 -0.06403,0 -0.823341,-0.71437 -1.687357,-1.5875 z m -8.863541,0.94271 c 0,-0.25951 1.31778,-0.90049 1.441097,-0.70096 0.08018,0.12973 -0.211271,0.36034 -0.647661,0.51247 -0.43639,0.15212 -0.793436,0.23695 -0.793436,0.18849 z m 44.947519,-1.01535 c -0.509624,-0.61489 -1.017473,-1.29657 -1.128551,-1.51486 -0.111077,-0.21828 -0.02246,-0.17659 0.196932,0.0926 0.21939,0.26923 0.506447,0.42304 0.637903,0.34179 0.22402,-0.13845 1.499912,1.91879 1.308645,2.11006 -0.04859,0.0486 -0.505304,-0.41475 -1.014929,-1.02964 z m -25.861488,-0.25808 c 0.02635,-0.62867 0.067,-0.69876 0.151209,-0.26066 0.07175,0.37331 0.232735,0.52873 0.426987,0.41223 0.176379,-0.10578 0.154091,0.007 -0.05131,0.26066 -0.503921,0.62123 -0.568087,0.57103 -0.526886,-0.41223 z m 22.982719,-0.24254 c 0,-1.30567 0.130788,-1.26361 0.342791,0.11024 0.08481,0.54961 0.04251,0.99219 -0.09484,0.99219 -0.136372,0 -0.247949,-0.49609 -0.247949,-1.10243 z m -35.347013,-0.0221 -0.504029,-0.59531 0.595313,0.50403 c 0.559445,0.47366 0.715761,0.68659 0.504028,0.68659 -0.05021,0 -0.318098,-0.26789 -0.595312,-0.59531 z m 33.350189,-0.4429 c 0.575236,-0.59315 1.102005,-1.07845 1.170599,-1.07845 0.06859,0 -0.135253,0.27672 -0.452991,0.61494 -0.317741,0.33822 -0.516586,0.67606 -0.441878,0.75077 0.07471,0.0747 -0.192095,0.28329 -0.592891,0.46351 -0.661887,0.29763 -0.632799,0.22877 0.317161,-0.75077 z m 2.835545,0.77363 c 0.0043,-0.21828 0.103103,-0.69453 0.219612,-1.05833 0.170294,-0.53174 0.21336,-0.55769 0.219612,-0.13229 0.0043,0.29104 -0.09455,0.76729 -0.219612,1.05833 -0.139311,0.3242 -0.224377,0.37544 -0.219612,0.13229 z m -40.067306,-0.15844 c -0.105336,-0.10534 0.224567,-0.47426 0.733117,-0.81983 1.127969,-0.76648 1.149924,-1.08814 0.140293,-2.05542 -0.43139,-0.4133 -0.722019,-0.85229 -0.645845,-0.97555 0.07618,-0.12325 -0.04712,-0.22409 -0.27399,-0.22409 -0.22687,0 -0.41249,-0.12609 -0.41249,-0.2802 0,-0.30986 0.164751,-0.23051 1.752285,0.84395 0.599953,0.40605 1.184587,0.65368 1.299189,0.55028 0.114601,-0.10339 0.121385,-0.037 0.01508,0.14753 -0.147317,0.25572 -0.381273,0.20166 -0.983694,-0.2273 -1.001192,-0.71291 -1.232337,-0.52798 -0.362025,0.28963 0.801193,0.75269 0.841182,1.34635 0.120984,1.79612 -0.299982,0.18734 -0.456885,0.47044 -0.353473,0.63777 0.121071,0.1959 0.03829,0.24423 -0.237223,0.1385 -0.232751,-0.0893 -0.463121,-0.0426 -0.511937,0.10387 -0.04881,0.14644 -0.174934,0.18007 -0.28027,0.0747 z m 16.626344,-0.81184 c -0.0931,-0.24262 -0.04631,-0.56409 0.103984,-0.71438 0.187952,-0.18795 0.273257,-0.0503 0.273257,0.44112 0,0.8162 -0.13216,0.91193 -0.377241,0.27326 z m 24.685157,-0.81566 c -0.329107,-0.41964 -0.319749,-0.429 0.0999,-0.0999 0.254662,0.19972 0.463021,0.40808 0.463021,0.46302 0,0.21776 -0.217273,0.0776 -0.562917,-0.36313 z m -2.612083,-0.39413 c 0,-0.30646 -0.291277,-0.46429 -0.992188,-0.5376 l -0.992187,-0.10379 0.926042,-0.0404 c 1.190167,-0.052 1.850913,0.32306 1.38685,0.78712 -0.261633,0.26164 -0.328517,0.2402 -0.328517,-0.1053 z m -34.263542,-0.13877 c -0.741016,-0.11473 -0.705858,-0.14647 0.529167,-0.47785 1.687362,-0.45274 1.970127,-0.45092 1.363345,0.009 -0.268806,0.20366 -0.675291,0.2987 -0.903298,0.21121 -0.27359,-0.10499 -0.349507,-0.0538 -0.223253,0.15046 0.105222,0.17025 0.154519,0.29171 0.109551,0.26991 -0.04497,-0.0218 -0.438949,-0.0949 -0.875512,-0.16254 z m 38.959896,0.0155 c 0.327422,-0.0631 0.863203,-0.0631 1.190625,0 0.327422,0.0631 0.05953,0.11466 -0.595312,0.11466 -0.654844,0 -0.922735,-0.0516 -0.595313,-0.11466 z m -40.523035,-0.96711 c -0.09175,-0.48908 -0.05302,-1.17369 0.08607,-1.52135 0.206433,-0.51597 0.255979,-0.35259 0.269668,0.88925 0.01892,1.71707 -0.109418,1.94513 -0.355742,0.6321 z m 41.779806,0.46579 c -1.758045,-0.33408 -1.778196,-0.34582 -0.396875,-0.23113 0.800364,0.0665 1.78263,0.12186 2.182812,0.12312 0.400183,0.001 0.727605,0.12137 0.727605,0.26689 0,0.30896 -0.0774,0.30407 -2.513542,-0.15888 z m -9.392708,-0.38959 c 0,-0.11274 0.95278,-0.24382 2.117288,-0.29128 1.164508,-0.0475 2.117008,0.003 2.116667,0.11214 -2.65e-4,0.10914 -0.6257,0.21708 -1.389685,0.23985 -0.763984,0.0228 -1.716484,0.0646 -2.116666,0.0929 -0.400183,0.0283 -0.727604,-0.0408 -0.727604,-0.15356 z m 6.614583,-0.16879 c 0,-0.15195 0.208359,-0.43969 0.463021,-0.63941 0.428297,-0.33589 0.433911,-0.32344 0.07487,0.16604 -0.213484,0.29104 -0.421844,0.57878 -0.463021,0.63941 -0.04118,0.0606 -0.07487,-0.0141 -0.07487,-0.16604 z m -1.058333,-0.42502 c 0,-0.19959 3.754135,-2.8647 3.870859,-2.74797 0.06103,0.061 -0.78495,0.7303 -1.879949,1.48727 -1.095002,0.75697 -1.99091,1.32429 -1.99091,1.2607 z m -2.048434,-0.798 c -0.232767,-0.51087 -0.205864,-0.61806 0.15597,-0.62144 0.24049,-0.002 0.524729,0.12674 0.631642,0.28663 0.115488,0.17272 0.197673,0.0759 0.202488,-0.23845 0.0044,-0.29105 0.128958,-0.70776 0.276672,-0.92605 0.196213,-0.28995 0.220906,-0.18302 0.09166,0.39688 -0.253974,1.13952 -0.365641,1.25765 -0.826926,0.87482 -0.356936,-0.29623 -0.386525,-0.26286 -0.2232,0.25173 0.246753,0.77745 0.0499,0.76205 -0.308306,-0.0241 z m 1.835431,-0.30868 c 0.0054,-0.43656 0.06469,-0.58313 0.131773,-0.32569 0.06708,0.25743 0.06267,0.61461 -0.0098,0.79374 -0.07248,0.17914 -0.127363,-0.0315 -0.12197,-0.46805 z m 3.504684,-0.49723 c 0.590669,-0.56452 1.046361,-1.12352 1.01265,-1.24221 -0.03371,-0.1187 0.293711,-0.4686 0.727604,-0.77756 1.849956,-1.31728 0.335992,0.4864 -2.004838,2.3885 -0.445148,0.36172 -0.326085,0.19579 0.264584,-0.36873 z m -6.216388,-0.7201 c -0.397238,-0.74224 -0.327131,-1.16019 0.130855,-0.7801 0.209632,0.17398 0.308459,0.50575 0.21962,0.73726 -0.102452,0.26699 -0.055,0.3551 0.129736,0.24092 0.160197,-0.099 0.353785,-0.0789 0.430199,0.0448 0.07641,0.12365 -0.04085,0.22481 -0.260591,0.22481 -0.219742,0 -0.512159,-0.21046 -0.649819,-0.46768 z m 2.437315,-1.29621 c 0,-0.3638 0.06006,-0.51263 0.133453,-0.33073 0.0734,0.1819 0.0734,0.47956 0,0.66146 -0.0734,0.1819 -0.133453,0.0331 -0.133453,-0.33073 z m 0.389586,-0.55518 c -0.09018,-0.45088 -0.06519,-0.99624 0.05551,-1.21194 0.144698,-0.25855 0.235087,0.0207 0.265311,0.81977 0.05302,1.40185 -0.08512,1.57071 -0.320823,0.39217 z"
         id="path6467"
         inkscape:connector-curvature="0" />
      <path
         style="fill:#2a2aff;stroke-width:0.26458335"
         d="m 56.908792,255.90888 c 0.0127,-0.30822 0.07539,-0.37092 0.159851,-0.15985 0.07643,0.19099 0.06703,0.4192 -0.02088,0.50712 -0.08792,0.0879 -0.150452,-0.0684 -0.138964,-0.34727 z m -0.243697,-1.16857 c 0,-0.36381 0.06005,-0.51263 0.133454,-0.33073 0.0734,0.1819 0.0734,0.47955 0,0.66145 -0.0734,0.18191 -0.133454,0.0331 -0.133454,-0.33072 z m -5.758148,-0.92188 c 0.03114,-0.21215 0.158523,-0.47847 0.283078,-0.59182 0.124558,-0.11335 0.140822,-0.0573 0.03614,0.12463 -0.10468,0.1819 -0.08805,0.33073 0.03695,0.33073 0.125005,0 0.387625,-0.14883 0.583597,-0.33073 0.281728,-0.2615 0.317415,-0.26179 0.170474,-10e-4 -0.102214,0.18112 -0.40657,0.44744 -0.676349,0.59182 -0.377532,0.20205 -0.477467,0.17367 -0.433896,-0.12321 z m 11.934082,0.12813 c -0.08994,-0.14553 -0.04446,-0.26459 0.101062,-0.26459 0.145521,0 0.338167,0.11906 0.428104,0.26459 0.08994,0.14552 0.04446,0.26458 -0.101063,0.26458 -0.14552,0 -0.338166,-0.11906 -0.428103,-0.26458 z m -5.40307,-0.41893 c 0.0127,-0.30822 0.07539,-0.37092 0.159851,-0.15985 0.07643,0.19099 0.06703,0.4192 -0.02088,0.50712 -0.08792,0.0879 -0.150453,-0.0684 -0.138964,-0.34727 z m -0.738965,-1.03628 c 0.0021,-0.72761 0.05337,-0.99386 0.114186,-0.59168 0.06082,0.40219 0.05919,0.9975 -0.0036,1.32292 -0.0628,0.32542 -0.112559,-0.004 -0.110575,-0.73124 z m 4.653076,0.19843 c -0.329107,-0.41964 -0.319749,-0.429 0.0999,-0.0999 0.254662,0.19972 0.463021,0.40808 0.463021,0.46302 0,0.21776 -0.217273,0.0776 -0.562917,-0.36313 z m -9.49125,0.0985 c 0,-0.0549 0.20836,-0.2633 0.463021,-0.46302 0.419645,-0.32911 0.429003,-0.31975 0.0999,0.0999 -0.345644,0.44073 -0.562917,0.58089 -0.562917,0.36313 z m 8.168333,-1.15688 c -0.329107,-0.41964 -0.319749,-0.429 0.0999,-0.0999 0.254662,0.19972 0.463021,0.40808 0.463021,0.46302 0,0.21776 -0.217273,0.0776 -0.562917,-0.36313 z m 1.010113,-0.0106 c -0.397335,-0.43904 -0.391977,-0.47631 0.0735,-0.51138 0.344347,-0.0259 0.489968,0.12283 0.463547,0.47356 -0.04664,0.61914 -0.0131,0.61678 -0.537049,0.0378 z m -7.326362,-0.45246 c 0.341775,-0.3638 0.680939,-0.66146 0.7537,-0.66146 0.07276,0 -0.147342,0.29766 -0.489117,0.66146 -0.341776,0.3638 -0.68094,0.66146 -0.7537,0.66146 -0.07276,0 0.147341,-0.29766 0.489117,-0.66146 z m 5.257916,-0.33073 c -0.329107,-0.41964 -0.319749,-0.429 0.0999,-0.0999 0.254662,0.19972 0.463021,0.40808 0.463021,0.46302 0,0.21776 -0.217273,0.0776 -0.562917,-0.36313 z m 0.548674,-1.05833 -0.911799,-0.99219 0.992188,0.9118 c 0.923507,0.84868 1.11384,1.07258 0.911799,1.07258 -0.04422,0 -0.490699,-0.44649 -0.992188,-0.99219 z m -4.748257,0.62771 c 0,-0.0549 0.208359,-0.2633 0.463021,-0.46302 0.419645,-0.32911 0.429003,-0.31975 0.0999,0.0999 -0.345644,0.44073 -0.562917,0.58089 -0.562917,0.36313 z m -1.107943,-1.40376 c 0.190995,-0.0764 0.419198,-0.067 0.507119,0.0209 0.08792,0.0879 -0.06835,0.15045 -0.347265,0.13897 -0.308227,-0.0127 -0.37092,-0.0754 -0.159854,-0.15985 z m 0.124397,-0.80984 c 1.425141,-0.0625 2.003179,-0.18091 1.877348,-0.38451 -0.111061,-0.1797 -0.06126,-0.21967 0.127966,-0.10272 0.696251,0.4303 -0.110421,0.68103 -2.029571,0.63081 l -2.034905,-0.0533 z M 7.1462372,247.59656 c 0,-0.14553 0.1260893,-0.26459 0.2801982,-0.26459 0.1541089,0 0.2066137,0.11906 0.1166767,0.26459 -0.089937,0.14552 -0.2160259,0.26458 -0.2801982,0.26458 -0.064172,0 -0.1166767,-0.11906 -0.1166767,-0.26458 z m 52.5197918,-0.26459 c 0.26339,-0.29104 0.538421,-0.52916 0.611182,-0.52916 0.07276,0 -0.08321,0.23812 -0.346599,0.52916 -0.26339,0.29104 -0.538422,0.52917 -0.611182,0.52917 -0.07276,0 0.08321,-0.23813 0.346599,-0.52917 z m -1.413434,-0.26458 c 0,-0.3638 0.06005,-0.51263 0.133454,-0.33073 0.0734,0.1819 0.0734,0.47956 0,0.66146 -0.0734,0.1819 -0.133454,0.0331 -0.133454,-0.33073 z m -3.745941,-0.15434 c -0.363802,-0.20186 -0.494179,-0.36878 -0.289722,-0.37093 0.279445,-0.003 0.2466,-0.14657 -0.132291,-0.57854 -0.277218,-0.31606 -0.360744,-0.49105 -0.185619,-0.38888 0.285538,0.1666 1.557875,1.7944 1.353251,1.73133 -0.04629,-0.0143 -0.381817,-0.19111 -0.745619,-0.39298 z m 4.233333,0.31903 c 0,-0.0549 0.208359,-0.2633 0.463021,-0.46302 0.419645,-0.32911 0.429003,-0.31975 0.0999,0.0999 -0.345644,0.44073 -0.562917,0.58089 -0.562917,0.36313 z m -47.24477,-1.54365 c -0.427407,-0.46738 -0.587556,-0.70654 -0.355886,-0.53146 0.231671,0.17508 0.51865,0.23006 0.637732,0.12218 0.119082,-0.10787 0.130866,-0.0473 0.02619,0.13459 -0.104679,0.1819 -0.07697,0.33073 0.06157,0.33073 0.13854,0 0.320424,0.1786 0.404186,0.39688 0.219315,0.57152 0.09821,0.50064 -0.773783,-0.45292 z m 48.83227,0.58521 c -0.276212,-0.1785 -0.296323,-0.26777 -0.06615,-0.29361 0.885428,-0.0994 0.987123,-0.15089 0.919485,-0.46569 -0.03998,-0.1861 0.05707,-0.25817 0.215675,-0.16014 0.193784,0.11976 0.139089,0.34318 -0.166743,0.68112 -0.250317,0.2766 -0.466431,0.50108 -0.480258,0.49885 -0.01382,-0.002 -0.203732,-0.11947 -0.422013,-0.26053 z m -3.12342,-0.92604 c 0.0054,-0.43657 0.06469,-0.58313 0.131774,-0.3257 0.06708,0.25743 0.06267,0.61462 -0.0098,0.79375 -0.07248,0.17913 -0.127362,-0.0315 -0.12197,-0.46805 z m -1.937414,-0.0661 c -0.329107,-0.41964 -0.319749,-0.429 0.0999,-0.0999 0.44073,0.34564 0.580888,0.56291 0.363125,0.56291 -0.05494,0 -0.2633,-0.20836 -0.463021,-0.46302 z m 6.383751,-0.16604 c 0,-0.0549 0.208359,-0.2633 0.46302,-0.46302 0.419645,-0.32911 0.429004,-0.31975 0.0999,0.0999 -0.345643,0.44073 -0.562916,0.58089 -0.562916,0.36313 z M 7.9608752,244.5318 c 0.012695,-0.30823 0.075391,-0.37092 0.1598525,-0.15985 0.076431,0.19099 0.067031,0.4192 -0.020889,0.50711 -0.087919,0.0879 -0.150453,-0.0684 -0.1389645,-0.34726 z m 44.8008488,-0.17639 -0.504029,-0.59531 0.595313,0.50403 c 0.559445,0.47366 0.715761,0.68659 0.504028,0.68659 -0.05021,0 -0.318098,-0.26789 -0.595312,-0.59531 z m 0.66657,-0.39688 -0.641432,-0.7276 0.727604,0.64143 c 0.680056,0.59952 0.84894,0.81378 0.641432,0.81378 -0.04739,0 -0.374814,-0.32742 -0.727604,-0.72761 z m -47.4726818,-0.0661 c 0.263389,-0.29104 0.5384204,-0.52917 0.6111808,-0.52917 0.072761,0 -0.083208,0.23813 -0.3465975,0.52917 -0.263389,0.29104 -0.5384205,0.52917 -0.6111809,0.52917 -0.07276,0 0.083209,-0.23813 0.3465976,-0.52917 z m 51.7678168,0 c 0,-0.3638 0.06005,-0.51263 0.133453,-0.33073 0.0734,0.1819 0.0734,0.47956 0,0.66146 -0.0734,0.1819 -0.133453,0.0331 -0.133453,-0.33073 z m -6.260952,-1.05996 c -0.264197,-0.29193 -0.401712,-0.60943 -0.305591,-0.70555 0.09612,-0.0961 0.174768,-0.0359 0.174768,0.13391 0,0.16978 0.133011,0.27892 0.295582,0.24254 0.16257,-0.0364 0.330631,0.14221 0.373464,0.39687 0.09872,0.58691 0.04854,0.58059 -0.538223,-0.0678 z m 5.975482,-0.68188 c 0.0127,-0.30823 0.07539,-0.37092 0.159851,-0.15985 0.07643,0.19099 0.06703,0.41919 -0.02088,0.50711 -0.08792,0.0879 -0.150453,-0.0683 -0.138964,-0.34726 z M 6.0382944,241.85957 c 0.1909961,-0.0764 0.4191993,-0.067 0.5071182,0.0209 0.087919,0.0879 -0.068351,0.15045 -0.3472656,0.13897 -0.3082245,-0.0127 -0.3709194,-0.0754 -0.1598526,-0.15985 z m 8.9131506,-0.61301 c -0.08994,-0.14553 -0.03743,-0.26459 0.116677,-0.26459 0.154109,0 0.280198,0.11906 0.280198,0.26459 0,0.14552 -0.0525,0.26458 -0.116676,0.26458 -0.06417,0 -0.190262,-0.11906 -0.280199,-0.26458 z m -4.02986,-0.44794 c 0.257431,-0.0671 0.614619,-0.0627 0.79375,0.01 0.179132,0.0725 -0.03149,0.12737 -0.468056,0.12197 -0.436563,-0.005 -0.583125,-0.0647 -0.325694,-0.13177 z m -5.1320134,-1.60259 c -0.3291076,-0.41964 -0.3197493,-0.429 0.099895,-0.0999 0.2546615,0.19972 0.4630209,0.40808 0.4630209,0.46302 0,0.21776 -0.2172722,0.0776 -0.5629156,-0.36313 z m 34.3085904,-0.0479 c -0.08372,-0.13547 -0.05106,-0.30882 0.07258,-0.38523 0.123643,-0.0764 0.224803,0.0344 0.224803,0.2463 0,0.44613 -0.08343,0.48511 -0.297381,0.13893 z m 23.933492,-0.29848 c 0,-0.15411 0.119062,-0.20661 0.264583,-0.11668 0.145521,0.0899 0.264583,0.21603 0.264583,0.2802 0,0.0642 -0.119062,0.11668 -0.264583,0.11668 -0.145521,0 -0.264583,-0.12609 -0.264583,-0.2802 z m -55.5207238,-1.3073 c 0,-0.3638 0.060053,-0.51263 0.1334521,-0.33073 0.073399,0.1819 0.073399,0.47956 0,0.66146 -0.073399,0.1819 -0.1334521,0.0331 -0.1334521,-0.33073 z m 3.3978068,0.42927 c 0,-0.0549 0.20836,-0.2633 0.463021,-0.46302 0.419644,-0.32911 0.429002,-0.31975 0.0999,0.0999 -0.345644,0.44073 -0.562916,0.58089 -0.562916,0.36313 z m 24.077083,-0.82615 c 0,-0.21828 0.0468,-0.39687 0.103984,-0.39687 0.05719,0 0.172517,0.17859 0.256281,0.39687 0.08376,0.21828 0.03697,0.39688 -0.103984,0.39688 -0.140954,0 -0.256281,-0.1786 -0.256281,-0.39688 z m 16.191164,-0.26458 c 0.0054,-0.43656 0.06469,-0.58313 0.131773,-0.32569 0.06708,0.25743 0.06267,0.61462 -0.0098,0.79375 -0.07248,0.17913 -0.127362,-0.0315 -0.12197,-0.46806 z m 5.502048,-0.74264 c -0.781069,-0.93098 -0.815158,-1.01976 -0.221137,-0.57588 0.386255,0.28862 0.840989,0.74472 1.010521,1.01356 0.573881,0.91003 0.139017,0.66892 -0.789384,-0.43768 z M 3.7948482,236.5739 c 0,-0.23402 0.1367353,-0.25271 0.4850696,-0.0663 0.2667881,0.14278 0.4850694,0.28943 0.4850694,0.32588 0,0.0365 -0.2182813,0.0663 -0.4850694,0.0663 -0.2667884,0 -0.4850696,-0.14665 -0.4850696,-0.32589 z m 32.4764448,-0.50881 c 0.0127,-0.30822 0.07539,-0.37092 0.15985,-0.15985 0.07643,0.19099 0.06703,0.4192 -0.02087,0.50712 -0.08792,0.0879 -0.150453,-0.0683 -0.138965,-0.34727 z m 22.47188,-0.64536 c 0.33356,-0.62326 0.437787,-0.65605 0.437787,-0.13773 0,0.21202 -0.161507,0.44747 -0.358902,0.52322 -0.281519,0.10803 -0.298527,0.0249 -0.07888,-0.38549 z m -2.725682,-0.7878 c -0.07611,-0.29104 -0.09418,-0.52917 -0.04017,-0.52917 0.05401,0 0.225653,0.23813 0.381413,0.52917 0.156459,0.29235 0.174434,0.52917 0.04017,0.52917 -0.13367,0 -0.305305,-0.23813 -0.381415,-0.52917 z m -19.816697,-0.18074 c 0.190995,-0.0764 0.419198,-0.067 0.507119,0.0209 0.08792,0.0879 -0.06835,0.15045 -0.347265,0.13896 -0.308227,-0.0127 -0.37092,-0.0754 -0.159854,-0.15985 z m 4.430811,-0.22455 c -0.282475,-0.21365 -0.38635,-0.38846 -0.230833,-0.38846 0.155514,0 0.430974,0.1786 0.612132,0.39688 0.412009,0.49644 0.2824,0.49358 -0.381299,-0.008 z m 11.27099,-0.12388 c 0,-0.3638 0.06005,-0.51263 0.133454,-0.33072 0.0734,0.1819 0.0734,0.47955 0,0.66145 -0.0734,0.18191 -0.133454,0.0331 -0.133454,-0.33073 z m 7.774734,0.28287 c -0.08373,-0.13547 -0.03122,-0.32109 0.116676,-0.41249 0.147894,-0.0914 0.268899,-0.0789 0.268899,0.0278 0,0.10671 0.327421,-0.0942 0.727604,-0.44644 0.699878,-0.61607 0.697992,-0.60774 -0.0495,0.21846 -0.870098,0.96172 -0.853752,0.9523 -1.063678,0.61263 z m -24.071374,-0.62501 c 0.09936,-0.26093 0.247304,-0.40778 0.328766,-0.32631 0.08146,0.0815 1.7e-4,0.29495 -0.180652,0.47443 -0.261308,0.25936 -0.291698,0.22897 -0.148114,-0.14812 z m 20.6375,-0.37405 c -0.143584,-0.37708 -0.113194,-0.40747 0.148114,-0.14811 0.180822,0.17948 0.262115,0.39297 0.180652,0.47443 -0.08146,0.0815 -0.229407,-0.0654 -0.328766,-0.32632 z m 6.085417,-0.79375 c -0.143584,-0.37708 -0.113194,-0.40747 0.148114,-0.14811 0.180821,0.17948 0.262114,0.39297 0.180652,0.47443 -0.08146,0.0815 -0.229407,-0.0654 -0.328766,-0.32632 z M 24.38593,231.98614 c 0,-0.3638 0.06005,-0.51263 0.133452,-0.33073 0.0734,0.1819 0.0734,0.47956 0,0.66146 -0.0734,0.1819 -0.133452,0.0331 -0.133452,-0.33073 z m 42.506531,-0.18074 c 0.190995,-0.0764 0.419198,-0.067 0.507119,0.0209 0.08792,0.0879 -0.06835,0.15046 -0.347266,0.13897 -0.308226,-0.0127 -0.370919,-0.0754 -0.159853,-0.15985 z m 2.889469,-0.11668 c 0.179478,-0.18082 0.39297,-0.26211 0.474433,-0.18065 0.08146,0.0815 -0.06538,0.22941 -0.326319,0.32877 -0.377084,0.14358 -0.407474,0.11319 -0.148114,-0.14812 z m -49.935693,-0.21613 c 0,-0.13694 0.117699,-0.32171 0.261553,-0.41062 0.149982,-0.0927 0.194338,0.0135 0.103984,0.24897 -0.175893,0.45837 -0.365537,0.54223 -0.365537,0.16165 z m 17.067498,-0.0126 c -0.09269,-0.14998 0.01352,-0.19433 0.248968,-0.10398 0.458369,0.17589 0.542234,0.36554 0.16165,0.36554 -0.136933,0 -0.321712,-0.1177 -0.410618,-0.26156 z m 1.738808,-0.15737 c 0.0127,-0.30822 0.07539,-0.37092 0.15985,-0.15985 0.07643,0.191 0.06703,0.4192 -0.02087,0.50712 -0.08792,0.0879 -0.150453,-0.0684 -0.138965,-0.34727 z m 14.287499,0.23611 c -0.03018,-0.45532 0.438045,-0.67404 0.663168,-0.30978 0.114112,0.18463 0.07718,0.23915 -0.09141,0.13495 -0.155578,-0.0961 -0.343167,-0.0252 -0.416867,0.15756 -0.09591,0.2379 -0.139941,0.24281 -0.15489,0.0173 z m 1.697435,-0.34797 c -0.264197,-0.29193 -0.431477,-0.57793 -0.371737,-0.63555 0.05974,-0.0576 0.32254,0.18124 0.583994,0.53079 0.577424,0.77198 0.448952,0.83539 -0.212257,0.10476 z m -12.037073,0.0137 c 0.218281,-0.14772 0.625078,-0.2704 0.903994,-0.27262 0.67692,-0.005 0.465735,0.14602 -0.507119,0.36364 -0.579681,0.12966 -0.686716,0.10512 -0.396875,-0.091 z m 18.520833,-0.0121 c -0.238466,-0.15411 -0.2711,-0.2581 -0.08176,-0.26053 0.173313,-0.002 0.3887,0.11501 0.478637,0.26053 0.203015,0.32849 0.111421,0.32849 -0.396875,0 z m -22.06584,-0.48569 c -0.07516,-0.12161 -0.03175,-0.5681 0.09647,-0.99219 0.225168,-0.74479 0.23155,-0.73727 0.187182,0.22058 -0.04897,1.05731 -0.07064,1.11626 -0.283647,0.77161 z m 9.498132,-0.0435 c 0.08994,-0.14552 0.216027,-0.26458 0.280199,-0.26458 0.06417,0 0.116676,0.11906 0.116676,0.26458 0,0.14552 -0.12609,0.26458 -0.280199,0.26458 -0.15411,0 -0.206614,-0.11906 -0.116676,-0.26458 z m 17.401389,0.0812 c 0.257431,-0.0671 0.614619,-0.0627 0.79375,0.01 0.179131,0.0725 -0.03149,0.12736 -0.468056,0.12197 -0.436563,-0.005 -0.583126,-0.0647 -0.325694,-0.13178 z m -28.117014,-0.6104 c 0.15576,-0.29104 0.342733,-0.52916 0.415493,-0.52916 0.07276,0 0.0048,0.23812 -0.15091,0.52916 -0.15576,0.29105 -0.342733,0.52917 -0.415494,0.52917 -0.07276,0 -0.0048,-0.23812 0.150911,-0.52917 z m 11.511248,0.26762 c -0.09269,-0.14998 0.01352,-0.19434 0.248968,-0.10399 0.458369,0.1759 0.542234,0.36554 0.161649,0.36554 -0.136932,0 -0.321712,-0.1177 -0.410617,-0.26155 z m 14.897476,0.0808 c 0.190994,-0.0764 0.419197,-0.067 0.507118,0.0209 0.08792,0.0879 -0.06835,0.15045 -0.347265,0.13896 -0.308227,-0.0127 -0.37092,-0.0754 -0.159853,-0.15985 z m -9.105702,-0.657 c -0.06558,-0.10611 0.138176,-0.14336 0.452795,-0.0828 0.785156,0.15121 0.955619,0.37282 0.245636,0.31933 -0.318555,-0.024 -0.632851,-0.13044 -0.698431,-0.23656 z m 2.209998,-0.13124 c 0.181901,-0.0734 0.479558,-0.0734 0.661459,0 0.181901,0.0734 0.03307,0.13346 -0.330729,0.13346 -0.363802,0 -0.512631,-0.0601 -0.33073,-0.13346 z m 1.389063,0.0263 c 0.928134,-0.20487 2.591268,-0.24136 2.475672,-0.0543 -0.06911,0.11182 -0.743704,0.1895 -1.4991,0.17262 -0.755396,-0.0169 -1.194853,-0.0701 -0.976572,-0.11831 z m -34.639529,-0.53452 c 0.0127,-0.30823 0.07539,-0.37092 0.159853,-0.15986 0.07643,0.191 0.06703,0.4192 -0.02089,0.50712 -0.08792,0.0879 -0.150453,-0.0684 -0.138964,-0.34726 z m 27.115914,0.0768 c 0.09936,-0.26094 0.247303,-0.40778 0.328766,-0.32632 0.08146,0.0815 1.69e-4,0.29495 -0.180652,0.47443 -0.261308,0.25936 -0.291698,0.22897 -0.148114,-0.14811 z m -12.836856,-0.0547 c -0.0053,-0.14552 0.283597,-0.74083 0.64211,-1.32291 0.577577,-0.93776 0.652788,-0.98549 0.660103,-0.41893 0.0046,0.35168 -0.07564,0.55551 -0.178186,0.45297 -0.102544,-0.10254 -0.395208,0.20503 -0.650367,0.68351 -0.255159,0.47847 -0.468307,0.75088 -0.47366,0.60536 z m 24.329221,0.0324 c 0,-0.0549 0.208359,-0.2633 0.463021,-0.46302 0.419645,-0.32911 0.429003,-0.31975 0.0999,0.0999 -0.345644,0.44073 -0.562917,0.58089 -0.562917,0.36313 z m -27.88362,-1.00685 c 0.07641,-0.12364 0.249769,-0.1563 0.385236,-0.0726 0.346176,0.21395 0.307197,0.29738 -0.138935,0.29738 -0.211881,0 -0.322715,-0.10116 -0.246301,-0.2248 z m 20.769649,-0.16554 c 0.318103,-0.50936 1.007729,-0.97419 1.163846,-0.78446 0.03276,0.0398 -0.295746,0.36075 -0.730001,0.71321 -0.735539,0.597 -0.76522,0.60187 -0.433845,0.0712 z m -2.085062,-0.5798 c 0,-0.50932 0.05445,-0.71768 0.121002,-0.46302 0.06655,0.25466 0.06655,0.67138 0,0.92604 -0.06655,0.25466 -0.121002,0.0463 -0.121002,-0.46302 z m -1.119717,0.14791 c 0,-0.20969 0.107958,-0.44798 0.239908,-0.52953 0.131951,-0.0815 0.177594,0.09 0.101434,0.38126 -0.161558,0.6178 -0.341342,0.69589 -0.341342,0.14827 z m 7.646477,-0.47016 c -0.199239,-0.4776 -0.326364,-1.02915 -0.282501,-1.22565 0.04966,-0.2225 -0.04217,-0.28194 -0.243412,-0.15756 -0.195021,0.12053 -0.255095,0.0896 -0.151505,-0.078 0.09441,-0.15275 -0.0063,-0.34601 -0.223703,-0.42945 -0.217445,-0.0834 -0.395356,-0.27933 -0.395356,-0.4353 0,-0.29939 0.852519,0.48296 1.727541,1.58534 0.415269,0.52317 0.427157,0.5839 0.0584,0.29833 -0.529963,-0.41041 -0.5891,-0.22998 -0.177001,0.54003 0.157311,0.29394 0.232868,0.58759 0.167905,0.65255 -0.06496,0.065 -0.281128,-0.27266 -0.480364,-0.75027 z m -36.48606,-1.01628 c 0,-0.15411 0.119062,-0.20661 0.264583,-0.11668 0.145521,0.0899 0.264583,0.21603 0.264583,0.2802 0,0.0642 -0.119062,0.11668 -0.264583,0.11668 -0.145521,0 -0.264583,-0.12609 -0.264583,-0.2802 z m 29.654222,-0.66789 c 0.0127,-0.30823 0.07539,-0.37092 0.15985,-0.15985 0.07643,0.19099 0.06703,0.41919 -0.02088,0.50711 -0.08792,0.0879 -0.150453,-0.0684 -0.138965,-0.34726 z m 3.439583,-0.26458 c 0.0127,-0.30823 0.07539,-0.37092 0.159851,-0.15986 0.07643,0.191 0.06703,0.4192 -0.02088,0.50712 -0.08792,0.0879 -0.150453,-0.0684 -0.138964,-0.34726 z m -27.658547,-0.62113 c -0.08372,-0.13547 -0.05106,-0.30882 0.07258,-0.38524 0.123643,-0.0764 0.224803,0.0344 0.224803,0.2463 0,0.44613 -0.08343,0.48511 -0.297381,0.13894 z m -5.149787,-0.43721 c 0.01269,-0.30822 0.07539,-0.37092 0.159853,-0.15985 0.07643,0.19099 0.06703,0.4192 -0.02089,0.50712 -0.08792,0.0879 -0.150453,-0.0683 -0.138965,-0.34727 z m 42.312445,0.27493 c 0,-0.0307 0.15875,-0.18755 0.352777,-0.34857 0.263623,-0.21879 0.35278,-0.20469 0.35278,0.0558 0,0.19172 -0.15875,0.34858 -0.35278,0.34858 -0.194027,0 -0.352777,-0.0251 -0.352777,-0.0558 z m -9.260416,-0.51746 c 0,-0.21828 0.04679,-0.39688 0.103983,-0.39688 0.05719,0 0.172517,0.1786 0.256281,0.39688 0.08376,0.21828 0.03697,0.39687 -0.103984,0.39687 -0.140954,0 -0.25628,-0.17859 -0.25628,-0.39687 z m -32.787446,-1.08038 c 0.0127,-0.30823 0.07539,-0.37092 0.159853,-0.15986 0.07643,0.191 0.06703,0.4192 -0.02089,0.50712 -0.08792,0.0879 -0.150453,-0.0684 -0.138964,-0.34726 z m -4.121929,-0.37483 c -0.09934,-0.31298 -0.121077,-0.62858 -0.04832,-0.70134 0.07276,-0.0728 0.213565,0.12378 0.312899,0.43675 0.09933,0.31298 0.121077,0.62858 0.04832,0.70134 -0.07276,0.0728 -0.213565,-0.12378 -0.312899,-0.43675 z m 43.523958,-0.39688 c -0.181158,-0.21828 -0.240689,-0.39687 -0.132292,-0.39687 0.108397,0 0.03728,-0.20836 -0.158033,-0.46302 -0.195318,-0.25466 -0.03497,-0.17783 0.356323,0.17075 0.391295,0.34857 0.648554,0.73553 0.57169,0.85989 -0.189592,0.30678 -0.256177,0.28895 -0.637688,-0.17075 z m -21.43125,-0.66146 c 0,-0.14552 0.119062,-0.26458 0.264583,-0.26458 0.145521,0 0.264584,0.11906 0.264584,0.26458 0,0.14553 -0.119063,0.26459 -0.264584,0.26459 -0.145521,0 -0.264583,-0.11906 -0.264583,-0.26459 z m 3.838332,-0.26155 c -0.09269,-0.14998 0.01352,-0.19434 0.248967,-0.10398 0.45837,0.17589 0.542235,0.36553 0.16165,0.36553 -0.136932,0 -0.321712,-0.1177 -0.410617,-0.26155 z m -4.051335,-0.92907 c 0.0054,-0.43656 0.06469,-0.58313 0.131773,-0.32569 0.06708,0.25743 0.06267,0.61461 -0.0098,0.79375 -0.07248,0.17913 -0.127362,-0.0315 -0.12197,-0.46806 z m 20.945152,-0.33597 c 0.09703,-0.15699 -0.0334,-0.34017 -0.289848,-0.40707 -0.416843,-0.10873 -0.418841,-0.12487 -0.01886,-0.15231 0.56084,-0.0385 0.855895,0.39761 0.442071,0.65336 -0.185713,0.11478 -0.239128,0.0771 -0.133368,-0.094 z M 61.35207,219.0877 c -0.329107,-0.41964 -0.319749,-0.429 0.0999,-0.0999 0.254662,0.19973 0.463021,0.40808 0.463021,0.46303 0,0.21776 -0.217273,0.0776 -0.562917,-0.36313 z m -41.709032,-1.12448 c 0,-0.50932 0.05445,-0.71768 0.121,-0.46302 0.06655,0.25466 0.06655,0.67138 0,0.92604 -0.06655,0.25466 -0.121,0.0463 -0.121,-0.46302 z m 18.632939,0.38492 c 0.0806,-0.21003 0.253129,-0.31601 0.3834,-0.23549 0.328112,0.20278 0.29791,0.2997 -0.14654,0.47025 -0.255749,0.0981 -0.33461,0.02 -0.23686,-0.23476 z m 0.763852,-0.36664 c -0.08372,-0.13546 -0.05106,-0.30882 0.07258,-0.38523 0.123642,-0.0764 0.224803,0.0344 0.224803,0.2463 0,0.44613 -0.08343,0.48511 -0.297381,0.13893 z M 20.41718,217.43405 c 0,-0.3638 0.06005,-0.51263 0.133452,-0.33072 0.0734,0.1819 0.0734,0.47955 0,0.66145 -0.0734,0.1819 -0.133452,0.0331 -0.133452,-0.33073 z m 21.009609,-0.18702 c -0.143584,-0.37709 -0.113194,-0.40748 0.148113,-0.14812 0.180822,0.17948 0.262115,0.39297 0.180653,0.47444 -0.08146,0.0815 -0.229407,-0.0654 -0.328766,-0.32632 z m 7.523615,0.21179 c 0,-0.13189 0.238125,-0.17754 0.529166,-0.10143 0.291042,0.0761 0.529167,0.18403 0.529167,0.23981 0,0.0558 -0.238125,0.10144 -0.529167,0.10144 -0.291041,0 -0.529166,-0.10792 -0.529166,-0.23982 z m -2.447396,-0.19999 c 0.181901,-0.0734 0.479557,-0.0734 0.661458,0 0.181901,0.0734 0.03307,0.13345 -0.330729,0.13345 -0.363802,0 -0.51263,-0.0601 -0.330729,-0.13345 z m -6.663719,-0.4315 c 0.09936,-0.26094 0.247303,-0.40778 0.328766,-0.32632 0.08146,0.0815 1.69e-4,0.29496 -0.180653,0.47443 -0.261307,0.25936 -0.291697,0.22897 -0.148113,-0.14811 z m 19.56403,-0.184 c -0.0927,-0.14998 0.01352,-0.19433 0.248967,-0.10398 0.45837,0.17589 0.542235,0.36554 0.16165,0.36554 -0.136932,0 -0.321712,-0.1177 -0.410617,-0.26156 z m -38.355158,-1.04308 c -0.08372,-0.13546 -0.05106,-0.30882 0.07258,-0.38523 0.123641,-0.0764 0.224802,0.0344 0.224802,0.2463 0,0.44613 -0.08343,0.48511 -0.297382,0.13893 z m 15.140978,-0.32743 c 0.15375,-0.15375 0.435722,-0.22749 0.626603,-0.16386 0.198159,0.066 0.07822,0.18599 -0.279546,0.27955 -0.440095,0.11508 -0.543396,0.0806 -0.347057,-0.11569 z m -17.950427,-0.94762 -0.641433,-0.7276 0.727604,0.64143 c 0.680056,0.59951 0.848939,0.81377 0.641433,0.81377 -0.04739,0 -0.374816,-0.32742 -0.727604,-0.7276 z m 44.420416,0.54686 c 0.190994,-0.0764 0.419197,-0.067 0.507118,0.0209 0.08792,0.0879 -0.06835,0.15045 -0.347265,0.13896 -0.308227,-0.0127 -0.37092,-0.0754 -0.159853,-0.15985 z m -18.206641,-0.18374 c 0,-0.0549 0.208359,-0.2633 0.463021,-0.46302 0.419645,-0.3291 0.429003,-0.31974 0.0999,0.0999 -0.345644,0.44073 -0.562917,0.58089 -0.562917,0.36312 z m 19.686434,-0.20517 c -0.117203,-0.18964 -0.07296,-0.23412 0.116435,-0.11707 0.168005,0.10383 0.305464,0.0913 0.305464,-0.0278 0,-0.1191 0.238125,-0.36526 0.529167,-0.54702 0.747329,-0.46671 0.644154,-0.0248 -0.124749,0.5343 -0.458242,0.33322 -0.690395,0.37748 -0.826317,0.15756 z m -45.913933,-0.9517 c -0.329107,-0.41964 -0.319749,-0.429 0.0999,-0.0999 0.254661,0.19972 0.463021,0.40808 0.463021,0.46302 0,0.21777 -0.217272,0.0776 -0.562916,-0.36312 z m 23.240488,-0.0659 c -0.07607,-0.2909 -0.05568,-0.57997 0.0453,-0.64239 0.100989,-0.0624 0.207539,0.1756 0.236781,0.52891 0.06437,0.77779 -0.09192,0.84067 -0.282086,0.11348 z m 2.193261,0.34019 c 0.218281,-0.0808 0.575469,-0.27977 0.79375,-0.44213 0.344874,-0.25652 0.349295,-0.23453 0.03375,0.16782 -0.19972,0.25466 -0.556908,0.45362 -0.79375,0.44213 -0.360217,-0.0175 -0.365736,-0.0449 -0.03375,-0.16782 z m 2.116667,-1.2341 c 0,-0.0549 0.208359,-0.2633 0.46302,-0.46302 0.419646,-0.32911 0.429004,-0.31975 0.0999,0.0999 -0.345644,0.44073 -0.562917,0.58089 -0.562917,0.36313 z m -6.879167,-0.97405 c 0,-0.15411 0.119063,-0.20662 0.264583,-0.11668 0.145521,0.0899 0.264584,0.21603 0.264584,0.2802 0,0.0642 -0.119063,0.11667 -0.264584,0.11667 -0.14552,0 -0.264583,-0.12609 -0.264583,-0.28019 z M 35.88345,211.3002 c 0.07641,-0.12364 0.24977,-0.1563 0.385236,-0.0726 0.346176,0.21394 0.307198,0.29738 -0.138935,0.29738 -0.211881,0 -0.322715,-0.10116 -0.246301,-0.22481 z m -7.285074,-0.37051 c 0.0127,-0.30822 0.07539,-0.37091 0.159851,-0.15985 0.07643,0.191 0.06703,0.4192 -0.02088,0.50712 -0.08792,0.0879 -0.150453,-0.0684 -0.138965,-0.34727 z m 13.49375,-0.26458 c 0.0127,-0.30822 0.07539,-0.37092 0.159851,-0.15985 0.07643,0.19099 0.06703,0.4192 -0.02088,0.50712 -0.08792,0.0879 -0.150453,-0.0684 -0.138965,-0.34727 z m -6.86322,-0.38363 c -0.343546,-0.2862 -0.510826,-0.52036 -0.371737,-0.52036 0.139089,0 0.468386,0.23812 0.731776,0.52916 0.605071,0.6686 0.448485,0.66477 -0.360039,-0.009 z m -1.922669,-0.7188 c -0.329107,-0.41964 -0.319749,-0.429 0.0999,-0.0999 0.254661,0.19972 0.463021,0.40808 0.463021,0.46302 0,0.21777 -0.217273,0.0776 -0.562917,-0.36312 z m -4.148003,-0.7276 c 0.0054,-0.43657 0.06469,-0.58313 0.131773,-0.3257 0.06708,0.25743 0.06267,0.61462 -0.0098,0.79375 -0.07248,0.17913 -0.127363,-0.0315 -0.121971,-0.46805 z m -5.60783,0.0186 c 0,-0.0728 0.238125,-0.25973 0.529166,-0.41549 0.291042,-0.15576 0.529167,-0.22367 0.529167,-0.15091 0,0.0728 -0.238125,0.25973 -0.529167,0.41549 -0.291041,0.15576 -0.529166,0.22368 -0.529166,0.15091 z m 45.51364,-0.2768 c -0.20869,-0.25146 -0.228764,-0.40327 -0.05332,-0.40327 0.319762,0 0.69257,0.50197 0.509084,0.68545 -0.0666,0.0666 -0.27169,-0.0604 -0.455766,-0.28218 z m -36.286974,-0.3371 c -0.329107,-0.41964 -0.319749,-0.429 0.0999,-0.0999 0.254662,0.19972 0.463021,0.40808 0.463021,0.46302 0,0.21776 -0.217273,0.0776 -0.562917,-0.36313 z m 9.844223,-0.74965 c 0.0127,-0.30822 0.07539,-0.37092 0.15985,-0.15985 0.07643,0.19099 0.06703,0.4192 -0.02087,0.50712 -0.08792,0.0879 -0.150453,-0.0684 -0.138965,-0.34727 z m 23.059244,-0.37483 c 0,-0.50932 0.05445,-0.71768 0.121002,-0.46302 0.06655,0.25466 0.06655,0.67138 0,0.92605 -0.06655,0.25466 -0.121002,0.0463 -0.121002,-0.46303 z m 1.017839,-0.41892 c 0.0127,-0.30822 0.07539,-0.37092 0.15985,-0.15985 0.07643,0.19099 0.06703,0.4192 -0.02088,0.50712 -0.08792,0.0879 -0.150453,-0.0684 -0.138965,-0.34727 z m -36.053832,-1.6139 c 0.190995,-0.0764 0.419198,-0.067 0.507119,0.0209 0.08792,0.0879 -0.06835,0.15045 -0.347265,0.13896 -0.308227,-0.0127 -0.37092,-0.0754 -0.159854,-0.15985 z m 1.107943,-0.0838 c -0.238466,-0.15411 -0.2711,-0.2581 -0.08176,-0.26054 0.173313,-0.002 0.3887,0.11502 0.478637,0.26054 0.203015,0.32849 0.111421,0.32849 -0.396875,0 z m 41.010417,0 c -0.238467,-0.15411 -0.2711,-0.2581 -0.08176,-0.26054 0.173313,-0.002 0.388699,0.11502 0.478637,0.26054 0.203014,0.32849 0.111421,0.32849 -0.396875,0 z m -40.348959,-0.26459 c -0.08994,-0.14552 -0.03743,-0.26458 0.116676,-0.26458 0.15411,0 0.280199,0.11906 0.280199,0.26458 0,0.14552 -0.0525,0.26459 -0.116676,0.26459 -0.06417,0 -0.190261,-0.11907 -0.280199,-0.26459 z m 37.918099,-0.18074 c 0.190995,-0.0764 0.419201,-0.067 0.507119,0.0209 0.08792,0.0879 -0.06835,0.15045 -0.347266,0.13896 -0.308226,-0.0127 -0.370919,-0.0754 -0.159853,-0.15985 z m -6.895703,-0.27056 c 0.327422,-0.0631 0.863203,-0.0631 1.190625,0 0.327422,0.0631 0.05953,0.11466 -0.595312,0.11466 -0.654844,0 -0.922735,-0.0516 -0.595313,-0.11466 z"
         id="path6465"
         inkscape:connector-curvature="0" />
    </g>
  </g>
</svg>
