<?xml version="1.0" encoding="UTF-8" standalone="no"?>
<!-- Created with Inkscape (http://www.inkscape.org/) -->

<svg
   xmlns:dc="http://purl.org/dc/elements/1.1/"
   xmlns:cc="http://creativecommons.org/ns#"
   xmlns:rdf="http://www.w3.org/1999/02/22-rdf-syntax-ns#"
   xmlns:svg="http://www.w3.org/2000/svg"
   xmlns="http://www.w3.org/2000/svg"
   xmlns:sodipodi="http://sodipodi.sourceforge.net/DTD/sodipodi-0.dtd"
   xmlns:inkscape="http://www.inkscape.org/namespaces/inkscape"
   width="75mm"
   height="120mm"
   viewBox="0 0 75 120"
   version="1.1"
   id="svg8"
   inkscape:version="0.92.4 (5da689c313, 2019-01-14)"
   sodipodi:docname="hoshi3.svg">
  <defs
     id="defs2" />
  <sodipodi:namedview
     id="base"
     pagecolor="#ffffff"
     bordercolor="#666666"
     borderopacity="1.0"
     inkscape:pageopacity="0.0"
     inkscape:pageshadow="2"
     inkscape:zoom="1.4"
     inkscape:cx="22.304427"
     inkscape:cy="302.0508"
     inkscape:document-units="mm"
     inkscape:current-layer="layer1"
     showgrid="false"
     units="mm"
     inkscape:window-width="1920"
     inkscape:window-height="1017"
     inkscape:window-x="-8"
     inkscape:window-y="-8"
     inkscape:window-maximized="1" />
  <metadata
     id="metadata5">
    <rdf:RDF>
      <cc:Work
         rdf:about="">
        <dc:format>image/svg+xml</dc:format>
        <dc:type
           rdf:resource="http://purl.org/dc/dcmitype/StillImage" />
        <dc:title />
      </cc:Work>
    </rdf:RDF>
  </metadata>
  <g
     inkscape:label="Calque 1"
     inkscape:groupmode="layer"
     id="layer1"
     transform="translate(0,-176.99999)">
    <g
       id="g6362"
       transform="translate(-0.12826238,-2.8063296)">
      <path
         style="fill:#80ffe6;stroke-width:0.26458335"
         d="m 54.24207,253.41739 c 0,-0.14552 -0.245152,-0.26458 -0.544782,-0.26458 -0.29963,0 -0.471197,-0.11907 -0.381259,-0.26459 0.08994,-0.14552 0.364855,-0.26551 0.610928,-0.26664 0.390959,-0.002 0.747493,-0.49793 1.299001,-1.80759 0.119888,-0.2847 -0.151797,-0.31683 -1.380697,-0.16329 -1.763866,0.22038 -1.773475,-0.0235 -0.03513,-0.89163 l 1.194234,-0.59643 -1.042604,-1.48836 c -1.107686,-1.58128 -1.299442,-2.37702 -0.634317,-2.63226 0.551871,-0.21177 0.863415,0.14248 0.385215,0.43802 -0.321778,0.19887 -0.310176,0.26345 0.07381,0.4108 0.250581,0.0961 0.455604,0.34068 0.455604,0.5434 0,0.20271 0.119063,0.36857 0.264584,0.36857 0.14552,0 0.264583,0.14995 0.264583,0.33322 0,0.42294 0.996929,1.05887 1.33368,0.85075 0.139599,-0.0863 0.25382,-0.32844 0.25382,-0.53813 0,-0.20969 0.106135,-0.38126 0.235855,-0.38126 0.12972,0 0.426413,-0.47625 0.659315,-1.05833 0.232905,-0.58209 0.497676,-1.05834 0.588383,-1.05834 0.28226,0 -0.197522,3.03225 -0.510558,3.22676 -0.547992,0.3405 0.0048,0.49492 0.75317,0.2104 1.067605,-0.4059 3.830085,-0.59943 3.830085,-0.26832 0,0.14891 -0.119063,0.28563 -0.264583,0.30382 -0.145521,0.0182 -0.353881,0.0547 -0.463021,0.0811 -0.109141,0.0264 -0.60247,0.1438 -1.096285,0.26087 -2.5595,0.6068 -3.125341,1.26909 -1.724703,2.01869 0.361172,0.19329 0.59784,0.50477 0.525926,0.69217 -0.07191,0.1874 0.04458,0.76037 0.258884,1.27326 0.432985,1.03628 0.189973,1.21385 -0.546894,0.39961 -0.286186,-0.31623 -0.670327,-0.47322 -0.944782,-0.38611 -0.254381,0.0807 -0.539086,0.0229 -0.632682,-0.12855 -0.09684,-0.15668 0.0646,-0.27534 0.374608,-0.27534 0.736848,0 0.685366,-0.29548 -0.199129,-1.14288 l -0.74391,-0.71271 -0.446715,0.93677 c -0.551534,1.15658 -0.551396,1.1834 0.0061,1.1834 0.24905,0 -0.01426,0.23812 -0.58511,0.52917 -1.204232,0.61395 -1.190625,0.61092 -1.190625,0.26458 z m -33.998917,-1.32262 c -0.100049,-0.72744 -0.278159,-1.38211 -0.395801,-1.45482 -0.117642,-0.0727 -0.474567,0.30962 -0.793168,0.84961 -0.502809,0.85219 -0.613013,0.92151 -0.834863,0.52508 -0.183311,-0.32755 -0.139055,-0.57324 0.156497,-0.8688 0.413673,-0.41367 0.585307,-1.73881 0.213648,-1.64953 -0.33835,0.0813 -2.182812,-0.92508 -2.182812,-1.19097 0,-0.14393 0.483613,-0.18526 1.130409,-0.0966 1.75251,0.2402 1.878308,0.0542 1.692827,-2.5025 l -0.160379,-2.21073 0.5182,1.05834 c 0.28501,0.58208 0.657543,1.50592 0.827851,2.05296 0.288888,0.92794 0.340896,0.96635 0.775668,0.57289 0.25631,-0.23196 0.981275,-0.49045 1.611034,-0.57442 1.013815,-0.1352 1.106114,-0.10557 0.805513,0.25854 -0.186726,0.22617 -0.69895,0.56011 -1.138276,0.74208 -0.519629,0.21524 -0.747721,0.46391 -0.652686,0.71157 0.08035,0.20938 0.146089,0.42676 0.146089,0.48305 0,0.0563 0.198125,0.0263 0.440278,-0.0666 0.281148,-0.10788 0.375866,-0.0647 0.262063,0.11941 -0.09802,0.1586 0.09849,0.50625 0.436687,0.77257 0.808221,0.63644 1.628953,1.90558 1.387845,2.14611 -0.104852,0.1046 -0.449192,-0.1102 -0.765201,-0.47732 -0.788963,-0.91659 -1.783556,-1.58146 -2.365731,-1.58146 -0.443098,0 -0.470098,0.16459 -0.303817,1.85209 0.154518,1.56811 0.120214,1.85208 -0.223734,1.85208 -0.28682,0 -0.459707,-0.38879 -0.588141,-1.32262 z m -9.234479,-7.96607 c -0.06532,-0.20273 -0.194483,-0.93415 -0.287023,-1.62537 -0.17884,-1.33585 -0.381438,-1.50254 -1.0335798,-0.85039 -0.4738237,0.47382 -3.4014264,1.86637 -4.4600632,2.12148 -1.105861,0.26649 -0.8702416,-0.21204 0.4630208,-0.94036 0.6548438,-0.35773 1.190625,-0.72411 1.190625,-0.81419 0,-0.0901 0.4834843,-0.3818 1.0744097,-0.64827 0.5909252,-0.26647 1.1811556,-0.68395 1.3116229,-0.92773 0.194546,-0.36351 0.048884,-0.49966 -0.8098263,-0.75694 -1.5302807,-0.45848 -1.2798901,-0.82162 0.5665197,-0.82162 h 1.6135592 l -0.7536634,-0.90694 c -0.414515,-0.49882 -0.9024916,-0.91554 -1.0843926,-0.92605 -0.1819011,-0.0105 -0.3307292,-0.14966 -0.3307292,-0.30923 0,-0.15957 -0.47625,-0.83118 -1.0583333,-1.49246 -0.5820833,-0.66128 -1.0583333,-1.30061 -1.0583333,-1.42073 0,-0.35484 1.7526312,0.78411 3.1763152,2.06413 l 1.3216016,1.18823 0.0186,-1.01671 c 0.03912,-2.13867 0.410872,-2.1111 0.758468,0.0563 0.185416,1.15612 0.384047,2.1799 0.441402,2.27507 0.05735,0.0952 0.760282,-0.18227 1.562061,-0.61653 1.776847,-0.96238 2.462988,-0.87119 0.954778,0.1269 -1.612925,1.06738 -1.461217,1.41468 0.699723,1.60182 0.620255,0.0537 1.156036,0.20323 1.190625,0.33226 0.08602,0.32089 -2.34884,0.5772 -2.845076,0.29949 -0.570853,-0.31947 -0.501763,0.0846 0.280938,1.64289 1.034301,2.05924 0.637276,2.14556 -0.733953,0.15957 -1.372857,-1.98835 -1.477243,-1.93797 -1.672038,0.80691 -0.109188,1.53859 -0.289088,2.04455 -0.497254,1.39851 z m 18.262082,-2.68371 c -0.04613,-0.1819 -0.233156,-0.74745 -0.415613,-1.25677 -0.314512,-0.87796 -0.47073,-1.57321 -0.520192,-2.3151 -0.04028,-0.60421 -0.411916,-0.33892 -1.022135,0.72964 -0.331767,0.58096 -0.781833,1.0563 -1.000145,1.0563 -0.303302,0 -0.207823,-0.33989 0.404777,-1.44091 0.440938,-0.7925 0.801706,-1.58299 0.801706,-1.75665 0,-0.31587 -1.353402,-0.24591 -3.373438,0.17438 -0.523481,0.10891 -0.859896,0.0737 -0.859896,-0.09 0,-0.32087 1.590678,-0.97754 2.976563,-1.22881 0.545703,-0.0989 0.992187,-0.26981 0.992187,-0.37972 0,-0.10991 -0.515937,-0.52596 -1.146527,-0.92455 -0.630591,-0.39859 -1.15219,-0.86882 -1.159111,-1.04495 -0.0069,-0.17613 -0.09903,-0.52859 -0.204696,-0.78325 -0.290822,-0.70093 0.136534,-0.55713 1.452001,0.48856 l 1.190625,0.94646 0.18337,-0.88288 c 0.100853,-0.48558 0.256976,-1.44842 0.346942,-2.13964 0.250587,-1.92537 0.619469,-1.4942 0.631122,0.73767 0.0057,1.09695 0.08897,2.12156 0.184991,2.27692 0.200128,0.32382 1.100852,-0.57867 1.659205,-1.66245 0.334237,-0.64877 1.629981,-1.51398 1.620226,-1.08189 -0.0024,0.10602 -0.293579,0.66902 -0.647078,1.2511 -0.353499,0.58208 -0.833692,1.39126 -1.067097,1.79816 l -0.424367,0.73982 2.063633,-0.17719 c 2.273602,-0.19523 2.374551,0.10213 0.218887,0.64477 -1.643411,0.41368 -1.704784,0.47911 -0.947155,1.00978 0.780859,0.54693 2.106708,1.92888 2.430277,2.5331 0.29573,0.55224 -0.09237,0.629 -0.611661,0.12098 -0.192296,-0.18812 -1.176364,-0.9294 -2.186821,-1.64729 -1.276339,-0.9068 -1.778024,-1.15108 -1.643377,-0.8002 0.266528,0.69456 0.560615,5.43536 0.337172,5.43536 -0.09928,0 -0.218245,-0.14883 -0.264375,-0.33073 z m 28.940064,-1.09208 c 0,-0.34598 -0.181081,-0.77934 -0.402402,-0.96303 -0.221321,-0.18368 -0.727337,-0.91207 -1.124479,-1.61865 l -0.722077,-1.28468 -0.678349,2.03285 c -0.373095,1.11808 -0.819579,2.07994 -0.992188,2.13747 -0.399582,0.1332 -0.390342,-0.24071 0.05244,-2.12229 0.255593,-1.08615 0.273333,-1.52366 0.06201,-1.5294 -0.162798,-0.004 -0.08764,-0.12941 0.167026,-0.27773 0.656879,-0.3826 0.573411,-0.77256 -0.165364,-0.77256 -1.015505,0 -2.282031,-0.31204 -2.282031,-0.56224 0,-0.12733 0.526044,-0.23151 1.168984,-0.23151 1.978562,0 2.054945,-0.0854 1.864321,-2.08372 -0.09196,-0.96401 -0.0543,-2.05039 0.08369,-2.41417 0.2187,-0.57657 0.295151,-0.41378 0.595818,1.26865 0.189712,1.06155 0.440471,1.98914 0.557242,2.06131 0.116774,0.0722 0.580382,-0.0591 1.03024,-0.29174 0.900334,-0.46559 3.339076,-0.59012 3.738292,-0.19091 0.160584,0.16059 -0.332057,0.36778 -1.351163,0.56828 -0.906799,0.1784 -1.889797,0.56842 -2.261714,0.89736 l -0.657821,0.58181 0.817185,1.5875 c 0.44945,0.87313 1.084556,1.94469 1.411345,2.38125 0.704678,0.94139 0.608777,1.45521 -0.271597,1.45521 -0.496869,0 -0.639411,-0.14024 -0.639411,-0.62906 z m -15.69598,-3.00896 c -0.19063,-0.32389 -0.462796,-1.76326 -0.59,-3.12023 -0.06538,-0.69747 -0.159943,-1.3092 -0.210142,-1.3594 -0.0502,-0.0502 -0.542663,0.26746 -1.09437,0.7059 -1.564703,1.24347 -1.852541,1.08291 -0.809752,-0.45169 0.357368,-0.52591 0.597969,-1.04 0.534673,-1.14242 -0.0633,-0.10241 -0.497073,-0.2626 -0.963949,-0.35598 -1.18033,-0.23607 -0.638349,-0.69295 0.930117,-0.78408 0.680087,-0.0395 1.220938,-0.18386 1.20189,-0.32077 -0.08339,-0.5994 -0.478969,-1.35697 -0.88416,-1.69325 -0.241388,-0.20034 -0.564264,-0.59852 -0.717508,-0.88486 -0.252783,-0.47233 -0.212545,-0.50403 0.433872,-0.34179 0.391871,0.0983 0.978879,0.46626 1.304462,0.81757 l 0.591968,0.63874 0.335973,-1.3109 c 0.184785,-0.72099 0.424191,-1.3109 0.532011,-1.3109 0.404066,0 0.481351,0.31661 0.2873,1.177 -0.348316,1.54439 0.05149,1.67792 1.675329,0.55954 1.02068,-0.70297 1.415656,-1.13286 1.319432,-1.43607 -0.08204,-0.25853 -0.04615,-0.32624 0.08914,-0.16818 0.12456,0.14552 0.336473,0.35612 0.470913,0.468 0.13535,0.11264 -0.456419,0.85544 -1.325994,1.66442 -1.479695,1.37658 -1.539859,1.47934 -1.041267,1.77847 0.291041,0.1746 0.70776,0.33077 0.926041,0.34703 0.748223,0.0557 1.5875,0.40799 1.5875,0.6663 0,0.14209 -0.148828,0.23903 -0.330729,0.2154 -0.181901,-0.0236 -0.846024,-0.0288 -1.475825,-0.0116 l -1.145098,0.0313 0.945034,1.10406 c 0.519766,0.60723 0.886052,1.16304 0.813967,1.23512 -0.220472,0.22048 -1.52314,-0.57425 -2.316338,-1.41313 l -0.750517,-0.79375 0.08592,2.84427 c 0.07641,2.52973 -0.03916,3.27573 -0.40989,2.64583 z m 25.574905,-2.31205 c 0.365062,-0.65317 0.5836,-1.23284 0.48564,-1.28817 -0.09796,-0.0553 -0.654356,-0.17983 -1.23644,-0.27668 -2.101292,-0.34962 -2.513541,-0.46893 -2.513541,-0.72743 0,-0.16663 0.798811,-0.20008 2.182812,-0.0914 l 2.182813,0.1714 -0.0933,-2.26882 c -0.0621,-1.51021 0.0026,-2.26882 0.193397,-2.26882 0.157681,0 0.360434,0.32742 0.450559,0.72761 0.391906,1.74016 0.668081,2.71197 0.770708,2.71197 0.06069,0 0.548963,-0.29765 1.085056,-0.66145 0.958591,-0.65052 1.698704,-0.85325 1.690394,-0.46302 -0.0024,0.10914 -0.372372,0.61515 -0.822325,1.12447 l -0.8181,0.92605 0.888471,0.15194 0.888471,0.15195 -0.727604,0.20747 c -0.880764,0.25113 -0.889873,0.31909 -0.132292,0.987 l 0.595313,0.52485 -0.859896,-0.15171 c -0.472943,-0.0834 -1.201947,-0.2231 -1.620007,-0.31035 -0.657273,-0.13717 -0.878041,-0.0119 -1.631781,0.92604 -1.221467,1.51996 -1.828924,1.45473 -0.95835,-0.10289 z m -5.409451,-4.53057 c -0.202636,-0.2416 -0.552487,-0.90355 -0.777444,-1.47101 l -0.409011,-1.03175 -0.600107,1.06774 c -0.330057,0.58726 -0.711549,1.06774 -0.847756,1.06774 -0.302903,0 -0.316479,0.14993 0.142615,-1.57519 0.211193,-0.7936 0.326337,-1.50056 0.255873,-1.57102 -0.07046,-0.0705 -0.839983,-0.17961 -1.710047,-0.24254 -0.870061,-0.0629 -1.58193,-0.20566 -1.58193,-0.31717 0,-0.11151 0.565547,-0.28434 1.256771,-0.38406 2.450153,-0.3535 2.519762,-0.39185 2.366404,-1.30374 -0.07621,-0.45319 -0.217953,-1.06211 -0.314973,-1.35315 l -0.176401,-0.52917 0.429996,0.52917 c 0.2365,0.29104 0.577548,0.7513 0.757886,1.0228 0.313015,0.47125 0.386627,0.45639 1.623062,-0.32774 0.712349,-0.45175 1.333746,-0.7828 1.380887,-0.73567 0.04714,0.0471 -0.390768,0.58659 -0.973129,1.19878 -0.964981,1.01441 -1.361596,1.88345 -0.860399,1.88525 0.358532,0.001 2.583627,2.05831 2.414595,2.2322 -0.0908,0.0934 -0.6019,-0.0879 -1.135776,-0.40288 -0.533877,-0.31499 -1.038548,-0.50485 -1.121495,-0.42191 -0.08294,0.083 -0.0049,0.75898 0.173405,1.50229 0.35655,1.48627 0.269399,1.83158 -0.293026,1.16103 z m -41.899622,-3.74071 c -0.08909,-0.83675 -0.246482,-1.84351 -0.349768,-2.23726 -0.185532,-0.70729 -0.204758,-0.69507 -1.597941,1.0152 -0.775582,0.95211 -1.468529,1.67272 -1.539883,1.60137 -0.150472,-0.15048 0.53378,-1.61175 1.615108,-3.44919 l 0.755596,-1.28395 -2.356169,0.17324 c -2.127425,0.15642 -2.30784,0.13449 -1.858354,-0.22588 0.273798,-0.21951 1.134925,-0.53137 1.913615,-0.69303 0.778691,-0.16165 1.479786,-0.39745 1.55799,-0.52398 0.07821,-0.12654 -0.336438,-0.61471 -0.921428,-1.08482 -1.428995,-1.14837 -1.438365,-1.76187 -0.01582,-1.03614 1.72289,0.87895 1.862054,0.78566 1.866675,-1.2514 0.0048,-2.10269 0.323223,-1.85125 0.819864,0.64735 0.182323,0.91726 0.428717,1.66776 0.547541,1.66776 0.118824,0 0.216043,-0.12543 0.216043,-0.27872 0,-0.41121 1.407128,-2.10252 1.749247,-2.10252 0.420367,-10e-6 0.124352,1.32616 -0.465657,2.08619 -0.269412,0.34705 -0.48984,0.70512 -0.48984,0.79571 0,0.0906 0.982266,0.13507 2.182813,0.0988 1.492185,-0.045 2.015387,0.0112 1.653645,0.17788 -0.291041,0.13407 -0.826823,0.26128 -1.190625,0.28269 -0.363802,0.0214 -1.112454,0.17861 -1.663672,0.34932 l -1.002213,0.3104 0.8024,0.87472 c 0.873669,0.95241 1.443375,1.88254 1.263334,2.06258 -0.06262,0.0626 -0.736244,-0.38169 -1.496938,-0.98736 l -1.383081,-1.10123 0.04196,1.56002 c 0.07639,2.8398 0.0016,4.07356 -0.246921,4.07356 -0.13505,0 -0.318434,-0.68461 -0.40752,-1.52135 z m 31.307044,-2.38125 c -0.02074,-0.40019 -0.03697,-1.35378 -0.0361,-2.11911 l 0.0016,-1.39151 -1.290048,1.20669 c -0.709525,0.66368 -1.415579,1.12911 -1.569008,1.03428 -0.153427,-0.0948 -0.207772,-0.24359 -0.120766,-0.3306 0.08701,-0.087 -0.113433,-0.30899 -0.445418,-0.49329 l -0.60361,-0.33511 0.661458,-0.0182 c 0.363802,-0.01 0.903245,-0.22258 1.198764,-0.4724 0.605557,-0.51192 1.447075,-1.65654 1.447075,-1.9683 0,-0.11314 -0.707348,-0.20571 -1.571885,-0.20571 -0.864536,0 -1.642036,-0.11351 -1.727776,-0.25224 -0.149434,-0.24179 1.448442,-0.79087 2.713013,-0.93228 0.858994,-0.096 0.97993,-0.31208 0.463696,-0.82832 -0.441524,-0.44152 -0.935382,-1.48329 -0.935382,-1.97314 0,-0.13604 0.293921,-0.24736 0.653156,-0.24736 0.437166,0 0.608171,0.11723 0.517125,0.35449 -0.182747,0.47623 0.475954,0.99459 0.917271,0.72184 0.192506,-0.11897 0.382932,-0.55865 0.423164,-0.97705 0.04024,-0.4184 0.194233,-1.05839 0.34222,-1.42219 0.315645,-0.77598 0.472885,-0.47809 0.67491,1.27862 0.07251,0.63048 0.192024,1.20652 0.265597,1.2801 0.07357,0.0736 0.659587,-0.17439 1.30226,-0.55102 1.677813,-0.98326 1.751672,-0.85624 0.364461,0.6268 -0.674756,0.72137 -1.22683,1.41807 -1.22683,1.54823 0,0.13015 0.775282,0.44651 1.722847,0.703 2.437286,0.65974 2.518249,1.05638 0.168363,0.82483 -1.040165,-0.10249 -1.89121,-0.10109 -1.89121,0.003 0,0.10422 0.327421,0.61699 0.727604,1.13949 1.256517,1.64059 1.949008,2.72924 1.818859,2.85939 -0.235693,0.23569 -0.881991,-0.31904 -2.045287,-1.75552 -0.63945,-0.78962 -1.281697,-1.38493 -1.427218,-1.32292 -0.145521,0.062 -0.273092,0.49829 -0.283493,0.9695 -0.0104,0.47122 -0.098,0.93585 -0.194675,1.03252 -0.09667,0.0967 -0.252328,0.75293 -0.345906,1.45835 -0.183859,1.38599 -0.607568,1.73757 -0.668822,0.55498 z m -45.2060622,0.12855 c 0,-0.0384 -0.238125,-0.72136 -0.5291666,-1.51762 -0.2910417,-0.79625 -0.5291667,-1.83739 -0.5291667,-2.31363 v -0.86589 l -1.4104559,0.79601 c -2.3699009,1.33749 -2.8883676,0.91274 -0.6535195,-0.5354 l 1.3756076,-0.89136 -1.8060956,-0.33334 c -0.9933527,-0.18333 -1.8703449,-0.39758 -1.9488717,-0.47611 -0.078527,-0.0785 0.7105053,-0.14278 1.7534045,-0.14278 1.0428993,0 1.8961806,-0.0749 1.8961806,-0.16637 0,-0.0915 -0.4167188,-0.62762 -0.9260417,-1.19138 -1.4197642,-1.57151 -1.2387476,-2.05579 0.3231325,-0.86448 0.4962363,0.37849 0.9655871,0.62483 1.0430018,0.54742 0.077415,-0.0774 0.010065,-0.75014 -0.1496693,-1.49495 -0.1597329,-0.74481 -0.2866366,-1.61623 -0.2820088,-1.93649 0.00822,-0.56894 0.017317,-0.57052 0.396875,-0.0687 0.2136535,0.28248 0.3884605,0.7327 0.3884605,1.00049 0,0.2678 0.1854364,0.55807 0.4120809,0.64504 0.2266442,0.087 0.3494944,0.32122 0.2730002,0.52056 -0.076494,0.19934 -0.045888,0.61436 0.068014,0.92227 0.2002679,0.54137 0.2296811,0.53298 0.8923176,-0.25451 0.3768731,-0.44789 0.7263773,-0.90804 0.7766765,-1.02256 0.096489,-0.21967 1.6462954,-1.13425 1.9220663,-1.13425 0.08881,0 -0.138176,0.44648 -0.5044063,0.99219 -0.3662297,0.5457 -0.9718704,1.44992 -1.3458682,2.00937 -0.3739978,0.55945 -0.6246937,1.07249 -0.5571022,1.14008 0.067592,0.0676 1.1069947,-0.0638 2.3097847,-0.29195 1.202789,-0.22817 2.244949,-0.35679 2.315909,-0.28583 0.198725,0.19872 -2.6506238,1.45772 -3.3057113,1.46064 -1.7312396,0.008 -0.1193522,1.6178 2.0289463,2.02667 0.815057,0.15512 0.965594,0.29712 0.649779,0.6129 -0.362881,0.36285 -2.3345188,-0.14722 -3.5604199,-0.9211 -0.5728985,-0.36166 -1.1211549,-0.65756 -1.2183472,-0.65756 -0.097192,0 -0.1072899,1.07157 -0.022439,2.38125 0.084851,1.30969 0.1024744,2.38125 0.039164,2.38125 -0.06331,0 -0.1151099,-0.0314 -0.1151099,-0.0699 z M 32.01707,222.86673 c 0,-0.0704 0.5309,-1.143 1.179777,-2.38349 0.648875,-1.24049 1.09536,-2.2523 0.992188,-2.24847 -0.103174,0.004 -1.079098,0.48007 -2.168718,1.05833 -2.128139,1.12939 -3.283921,1.40971 -2.066875,0.5013 0.392972,-0.29331 0.652463,-0.69495 0.576646,-0.89254 -0.09258,-0.24124 0.15071,-0.41648 0.740712,-0.53355 0.483208,-0.0959 1.269418,-0.37448 1.747131,-0.61912 l 0.868569,-0.44481 -1.265444,-1.10058 c -0.695994,-0.60531 -1.203127,-1.16431 -1.126961,-1.24222 0.07617,-0.0779 0.701246,0.20863 1.389062,0.63673 1.390854,0.86569 1.373206,0.88291 1.284997,-1.25403 -0.02508,-0.60797 0.06738,-1.17525 0.205512,-1.26061 0.269352,-0.16647 0.410787,0.20456 0.674998,1.7707 0.19219,1.13923 0.586118,1.29648 0.828508,0.33073 0.09131,-0.36381 0.253058,-0.66146 0.359444,-0.66146 0.106389,0 0.336063,-0.31304 0.510392,-0.69565 0.52134,-1.14422 0.662035,-0.48313 0.19867,0.93352 -0.236878,0.72422 -0.430691,1.39486 -0.430691,1.49032 0,0.0954 0.610539,0.0896 1.356752,-0.0131 0.968274,-0.13317 1.304713,-0.1024 1.175012,0.10747 -0.09996,0.16173 -0.297604,0.29406 -0.439211,0.29406 -0.141605,0 -0.693219,0.18207 -1.225804,0.4046 l -0.968341,0.4046 1.572149,0.7579 c 1.570027,0.75687 3.634182,2.41299 2.977544,2.38894 -0.190884,-0.007 -0.722074,-0.21535 -1.180425,-0.46302 -2.421396,-1.30841 -4.007578,-1.94211 -4.176604,-1.66863 -0.07374,0.11932 -0.01847,0.62006 0.122843,1.11276 0.334791,1.16734 0.334547,2.96289 -2.65e-4,2.7559 -0.141509,-0.0875 -0.398481,-0.63026 -0.571044,-1.20624 -0.172676,-0.57598 -0.403149,-1.04723 -0.512274,-1.04723 -0.109124,0 -0.527253,0.51979 -0.929174,1.15509 -0.628872,0.99403 -1.699075,2.02183 -1.699075,1.63175 z m 31.441792,-8.67382 c -0.024,-0.32742 -0.06257,-1.42875 -0.08572,-2.4474 -0.07129,-3.13647 0.184904,-2.99635 -2.679792,-1.4657 -1.399503,0.74777 -2.585315,1.31882 -2.635142,1.269 -0.04982,-0.0498 0.560586,-0.6102 1.356463,-1.24528 0.795878,-0.63507 1.388229,-1.2135 1.316337,-1.2854 -0.07189,-0.0719 0.06414,-0.2732 0.30231,-0.44735 0.368747,-0.26963 0.269947,-0.34271 -0.66557,-0.49231 -0.604229,-0.0966 -1.098597,-0.28286 -1.098597,-0.41387 0,-0.39094 1.914707,-0.5826 2.90867,-0.29115 1.28892,0.37794 1.244817,0.408 1.4459,-0.98575 0.422386,-2.92765 0.804805,-3.17324 0.804805,-0.51685 v 1.62067 l 1.499155,0.0103 c 1.861119,0.0128 2.221476,0.29215 0.701485,0.54375 -0.628269,0.104 -1.252734,0.25496 -1.387698,0.33548 -0.134964,0.0805 0.341286,0.65966 1.058334,1.28696 0.848328,0.74215 1.147442,1.14245 0.856318,1.14599 -0.246073,0.003 -0.516331,-0.10608 -0.600572,-0.24239 -0.170138,-0.27529 -1.68434,-1.0751 -2.035381,-1.0751 -0.123164,0 -0.223933,0.81856 -0.223933,1.81901 0,2.08069 -0.225367,3.47266 -0.56224,3.47266 -0.12733,0 -0.251142,-0.26789 -0.275135,-0.59531 z M 18.87174,211.18952 c 0.438562,-2.09483 0.758277,-4.11405 0.666013,-4.20631 -0.05679,-0.0568 -0.576155,0.0112 -1.154152,0.15104 -1.638562,0.39647 -3.612283,0.53709 -3.431432,0.24447 0.08713,-0.14099 1.015587,-0.51151 2.063226,-0.82338 1.04764,-0.31187 1.994329,-0.64707 2.103753,-0.74489 0.109424,-0.0978 -0.217998,-0.58197 -0.727604,-1.0759 -1.475322,-1.42993 -1.108712,-1.82626 0.608834,-0.65819 0.913828,0.62148 1.000255,0.63507 1.314292,0.20661 0.184877,-0.25223 0.456003,-0.90374 0.602502,-1.4478 0.415693,-1.54376 0.899512,-1.61491 0.692115,-0.10178 -0.242972,1.77267 0.350491,2.24146 2.867158,2.26486 1.624217,0.0151 1.793413,0.0617 1.375208,0.37883 -0.262282,0.19889 -0.900071,0.44101 -1.41731,0.53804 -0.517239,0.097 -1.241093,0.29074 -1.608564,0.43045 -0.617258,0.23468 -0.636193,0.28931 -0.248695,0.71749 0.617603,0.68245 1.819424,3.42343 1.720323,3.92354 -0.05718,0.28853 -0.365115,0.003 -0.9286,-0.85991 -0.463681,-0.71038 -1.197972,-1.70831 -1.631759,-2.21764 -0.726984,-0.85357 -0.802975,-0.88463 -0.971086,-0.39687 -1.185428,3.4394 -2.295622,5.59467 -1.894222,3.67734 z m 3.091164,-6.05859 c 0,-0.21828 -0.178594,-0.39688 -0.396875,-0.39688 -0.413167,0 -0.524925,0.31293 -0.220486,0.61736 0.304438,0.30444 0.617361,0.19268 0.617361,-0.22048 z"
         id="path6366"
         inkscape:connector-curvature="0" />
      <path
         style="fill:#d7f4ee;stroke-width:0.26458335"
         d="m 54.506654,253.4584 c 0,-0.16808 -0.327422,-0.31826 -0.727605,-0.33374 l -0.727604,-0.0282 0.69799,-0.2771 c 0.713679,-0.28332 1.681876,-1.88657 1.407445,-2.33061 -0.08376,-0.13553 -0.02619,-0.24641 0.127908,-0.24641 0.381413,0 0.352269,0.37368 -0.116676,1.49602 -0.481573,1.15256 -0.502997,1.7084 -0.0425,1.10273 0.231378,-0.30432 0.457581,-0.36801 0.719191,-0.20249 0.325802,0.20614 0.326623,0.24206 0.0056,0.24552 -0.206822,0.002 -0.593775,0.2011 -0.859896,0.44193 -0.289496,0.262 -0.483854,0.31513 -0.483854,0.1323 z m 4.427952,0.0654 c -0.08699,-0.087 -0.0866,-0.34464 7.94e-4,-0.57257 0.100341,-0.26148 0.05154,-0.34798 -0.132239,-0.2344 -0.160197,0.099 -0.369622,0.0532 -0.465394,-0.10173 -0.121086,-0.19593 -0.287845,-0.18737 -0.547449,0.0281 -0.268327,0.22275 -0.373248,0.22636 -0.373248,0.0128 0,-0.16333 0.1318,-0.29697 0.292891,-0.29697 0.165061,0 0.221279,-0.20209 0.12881,-0.46303 -0.09881,-0.27882 0.04547,-0.19988 0.362686,0.19844 0.359558,0.4515 0.531185,0.53548 0.540692,0.26459 0.01095,-0.31234 0.07163,-0.2978 0.284786,0.0682 0.148971,0.25581 0.204142,0.57306 0.122598,0.705 -0.08154,0.13194 0.0013,0.30019 0.184118,0.37389 0.183803,0.0741 0.20425,0.14334 0.04575,0.15489 -0.15765,0.0115 -0.357804,-0.0503 -0.444792,-0.13727 z m -38.405414,-0.54268 c -0.09143,-0.23828 -0.10391,-0.49556 -0.02772,-0.57175 0.07619,-0.0762 0.154194,0.0301 0.17335,0.23631 0.01916,0.20615 0.122546,-0.0419 0.229753,-0.55122 l 0.194924,-0.92604 0.03483,0.97657 c 0.03724,1.04406 -0.33041,1.55204 -0.605132,0.83613 z m -2.358712,-0.99961 c -0.07968,-0.20764 0.05641,-0.53506 0.302422,-0.7276 0.410431,-0.32122 0.414586,-0.30783 0.05042,0.16249 -0.364393,0.4706 -0.355917,0.49718 0.10357,0.32467 0.424926,-0.15953 0.449982,-0.12708 0.166041,0.21504 -0.410697,0.49486 -0.441816,0.49613 -0.622451,0.0254 z m 40.397983,-0.35274 c 0.09615,-0.15557 0.02524,-0.34316 -0.157557,-0.41686 -0.200517,-0.0808 -0.14869,-0.14229 0.130643,-0.15489 0.523598,-0.0236 0.619226,0.38051 0.157557,0.66583 -0.180546,0.11159 -0.233971,0.0731 -0.130643,-0.0941 z m -38.426951,-0.37256 c -0.01688,-0.24276 -0.09921,-0.65948 -0.182961,-0.92605 -0.144325,-0.45937 -0.136494,-0.46007 0.150091,-0.0133 0.166298,0.25923 0.248631,0.67595 0.182962,0.92604 -0.107566,0.40964 -0.122441,0.41097 -0.150092,0.0133 z m 3.027911,-0.51626 c -0.576137,-0.58077 -0.644751,-0.73533 -0.264584,-0.59598 0.505611,0.18533 0.505755,0.17858 0.0096,-0.45204 -0.276999,-0.3521 -0.06864,-0.19544 0.463021,0.34812 0.904836,0.9251 1.22495,1.55208 0.768218,1.50463 -0.10914,-0.0113 -0.548472,-0.37346 -0.976293,-0.80473 z m 32.669524,0.67748 c -0.0052,-0.15409 0.144613,-0.49075 0.332822,-0.74815 0.323943,-0.44301 0.376873,-0.43752 0.992188,0.10293 l 0.649988,0.5709 -0.652703,-0.41703 c -0.616148,-0.39369 -0.671192,-0.38376 -0.982813,0.17723 -0.18156,0.32685 -0.334328,0.46821 -0.339482,0.31412 z m -37.020351,-1.2218 c -0.01883,-0.43453 -0.209619,-0.75496 -0.493713,-0.8292 -0.43394,-0.1134 -0.433419,-0.12293 0.0083,-0.15169 0.536689,-0.035 0.822666,0.50594 0.640078,1.21062 -0.08328,0.32142 -0.134052,0.24601 -0.154669,-0.22973 z m 33.835974,0.33964 c 0,-0.28226 0.810345,-0.62907 1.008007,-0.43141 0.07619,0.0762 -0.03015,0.14689 -0.236304,0.15712 -0.221375,0.011 -0.15819,0.11168 0.154339,0.24598 0.468908,0.2015 0.44631,0.22951 -0.198438,0.24599 -0.400182,0.0102 -0.727604,-0.0877 -0.727604,-0.21768 z m 4.750372,-0.31555 c -0.162431,-0.30351 -0.22615,-0.62101 -0.1416,-0.70556 0.08455,-0.0846 0.153728,-0.0233 0.153728,0.13605 0,0.15939 0.187098,0.47689 0.415774,0.70556 0.228675,0.22868 0.292397,0.41578 0.1416,0.41578 -0.150794,0 -0.407069,-0.24833 -0.569502,-0.55183 z M 20.74984,249.98084 c 0.01568,-0.21661 0.265273,-0.41813 0.554644,-0.44783 0.38156,-0.0391 0.40337,-0.0173 0.07938,0.0794 -0.245715,0.0734 -0.495304,0.27487 -0.554644,0.44783 -0.05934,0.17295 -0.09506,0.13723 -0.07938,-0.0794 z m 33.690668,-1.58879 c -0.400183,-0.55678 -0.727604,-1.10047 -0.727604,-1.20819 0,-0.10773 0.365955,0.30932 0.813236,0.92678 0.447281,0.61745 0.774703,1.16114 0.727604,1.20819 -0.0471,0.0471 -0.413054,-0.36999 -0.813236,-0.92678 z m 3.45612,0.87585 c 0.190994,-0.0764 0.419197,-0.067 0.507118,0.0209 0.08792,0.0879 -0.06835,0.15046 -0.347265,0.13897 -0.308226,-0.0127 -0.37092,-0.0754 -0.159853,-0.15985 z m -40.894662,-0.40677 c -0.327422,-0.15791 -0.595312,-0.38797 -0.595312,-0.51126 0,-0.31388 1.372338,-0.27275 1.852083,0.0555 0.326918,0.22369 0.303598,0.25796 -0.132292,0.19439 -0.311901,-0.0455 -0.502008,0.0586 -0.46302,0.25355 0.03638,0.1819 0.03638,0.32267 0,0.31282 -0.03638,-0.01 -0.334037,-0.14711 -0.661459,-0.30502 z m 4.603292,-0.078 c -0.298591,-0.21834 -0.365676,-0.40514 -0.185485,-0.51651 0.155257,-0.0959 0.350829,0.004 0.434604,0.22248 0.08378,0.21832 0.32106,0.33219 0.527298,0.25305 0.206238,-0.0791 0.374979,-0.0844 0.374979,-0.0116 0,0.32884 -0.728117,0.3621 -1.151396,0.0526 z m 35.282646,-0.14388 c 0,-0.15411 0.119062,-0.20661 0.264583,-0.11667 0.145521,0.0899 0.264583,0.21602 0.264583,0.2802 0,0.0642 -0.119062,0.11667 -0.264583,0.11667 -0.145521,0 -0.264583,-0.12609 -0.264583,-0.2802 z M 18.947449,248.4344 c -0.07495,-0.12127 0.03709,-0.22048 0.248969,-0.22048 0.211879,0 0.385236,0.0992 0.385236,0.22048 0,0.12127 -0.112036,0.22049 -0.248969,0.22049 -0.136932,0 -0.310289,-0.0992 -0.385236,-0.22049 z m 35.898715,-0.74821 c -0.526849,-0.55862 -1.046972,-1.01568 -1.155827,-1.01568 -0.108857,0 -0.297137,-0.10838 -0.418406,-0.24085 -0.130747,-0.14283 -0.06758,-0.15209 0.155207,-0.0228 0.289684,0.16818 0.332475,0.10218 0.186917,-0.28831 -0.13935,-0.37383 -0.01259,-0.31895 0.484204,0.20963 0.370139,0.39383 0.672978,0.83613 0.672978,0.98288 0,0.28754 0.844698,0.81461 1.305523,0.81461 0.155088,0 0.281977,-0.22539 0.281977,-0.50086 0,-0.27547 0.165002,-0.56418 0.366673,-0.64156 0.305924,-0.1174 0.303149,-0.0134 -0.01675,0.62789 -0.582512,1.16767 -0.822841,1.17735 -1.86249,0.075 z m 5.569535,0.64935 c 8e-6,-0.18816 0.27782,-0.35928 0.61736,-0.38027 0.33954,-0.021 0.617345,0.0683 0.617345,0.19844 0,0.13013 -0.109326,0.2366 -0.242943,0.2366 -0.13362,0 -0.411433,0.0647 -0.617363,0.14367 -0.205928,0.079 -0.37441,-0.0103 -0.374399,-0.19844 z m -1.604531,-0.12859 c 0.257431,-0.0671 0.614619,-0.0627 0.79375,0.01 0.179131,0.0725 -0.03149,0.12736 -0.468056,0.12197 -0.436563,-0.005 -0.583126,-0.0647 -0.325694,-0.13178 z m -1.440532,-0.78877 c 0.112906,-0.55376 0.179438,-0.6203 0.256543,-0.25654 0.05726,0.27012 -0.01135,0.60657 -0.15244,0.74766 -0.165666,0.16567 -0.202541,-0.008 -0.104103,-0.49112 z m -36.991181,-0.0201 c 0.0032,-0.36069 0.05432,-0.38369 0.231511,-0.10405 0.158562,0.25025 0.282276,0.27028 0.408438,0.0661 0.09954,-0.16106 0.307594,-0.29283 0.462345,-0.29283 0.177426,0 0.15969,0.14661 -0.04801,0.39687 -0.447775,0.53954 -1.059246,0.50118 -1.054282,-0.0661 z m -1.001,-0.8599 c 0,-0.50932 0.05445,-0.71768 0.121,-0.46302 0.06655,0.25466 0.06655,0.67138 0,0.92604 -0.06655,0.25466 -0.121,0.0463 -0.121,-0.46302 z m 3.763748,0.55673 c 0.178005,-0.29541 0.06903,-0.33439 -0.544523,-0.19481 -0.620145,0.14109 -0.676924,0.11981 -0.296439,-0.1111 0.258846,-0.1571 0.724978,-0.24803 1.035848,-0.20208 0.545371,0.0806 0.547966,0.0975 0.07389,0.48043 -0.379341,0.30642 -0.440601,0.3127 -0.26878,0.0276 z m 34.154982,-1.08589 c 0.298802,-1.10194 0.650851,-1.24281 0.628163,-0.25136 -0.01148,0.50205 -0.08543,0.75051 -0.164319,0.55215 -0.121095,-0.3045 -0.182346,-0.3045 -0.393319,0 -0.170493,0.24607 -0.1929,0.15051 -0.07053,-0.30079 z m -4.378031,-0.36378 c 0,-0.20254 0.238125,-0.43053 0.529166,-0.50664 0.291042,-0.0761 0.529167,-0.0591 0.529167,0.0378 0,0.0969 -0.238125,0.32488 -0.529167,0.50664 -0.433993,0.27103 -0.529166,0.26424 -0.529166,-0.0378 z m -33.866667,-1.10705 c 0,-0.37239 0.107885,-0.6104 0.239744,-0.5289 0.13186,0.0815 0.177505,0.38617 0.101433,0.67707 -0.19038,0.72802 -0.341177,0.66253 -0.341177,-0.14817 z m -8.025694,-0.29306 c -0.09701,-0.097 -0.176389,-0.47405 -0.176389,-0.83785 0,-0.84394 0.346982,-0.52467 0.385477,0.35469 0.03221,0.73574 0.03562,0.72786 -0.209088,0.48316 z m -6.5263892,-0.60906 c 0,-0.14095 0.1785938,-0.18775 0.396875,-0.10399 0.2182813,0.0838 0.396875,0.19909 0.396875,0.25628 0,0.0572 -0.1785937,0.10399 -0.396875,0.10399 -0.2182812,0 -0.396875,-0.11533 -0.396875,-0.25628 z m 3.1386939,-1.08189 c 0.4893545,-0.29833 0.9469033,-0.48526 1.0167752,-0.41539 0.1332497,0.13325 -1.3291574,0.96053 -1.694934,0.95882 -0.1163672,-5.3e-4 0.1888042,-0.24508 0.6781588,-0.54343 z m 6.0166843,0.0594 c -0.07495,-0.12127 0.03709,-0.22049 0.248969,-0.22049 0.21188,0 0.385236,0.0992 0.385236,0.22049 0,0.12127 -0.112036,0.22049 -0.248968,0.22049 -0.136933,0 -0.310289,-0.0992 -0.385237,-0.22049 z m -3.049073,-0.99219 c 0.01269,-0.30822 0.07539,-0.37092 0.159852,-0.15985 0.07643,0.19099 0.06703,0.4192 -0.02089,0.50712 -0.08792,0.0879 -0.150453,-0.0684 -0.138964,-0.34727 z m 0.79375,0 c 0.01269,-0.30822 0.07539,-0.37092 0.159852,-0.15985 0.07643,0.19099 0.06703,0.4192 -0.02089,0.50712 -0.08792,0.0879 -0.150453,-0.0684 -0.138964,-0.34727 z m 1.646384,0.0694 c -0.08884,-0.14375 -0.03424,-0.18269 0.121332,-0.0865 0.155576,0.0961 0.330716,0.0313 0.389199,-0.14418 0.07132,-0.21395 0.157583,-0.18545 0.261956,0.0865 0.17317,0.45128 -0.50452,0.57776 -0.772487,0.14418 z m 16.244347,-0.27115 c -0.07516,-0.19588 -0.04322,-0.99955 0.07098,-1.78594 l 0.207637,-1.4298 0.03301,1.78593 c 0.03262,1.765 -0.04548,2.12336 -0.311621,1.42981 z M 8.9545602,240.81005 c 0.596464,-0.47 0.7801663,-0.75833 0.5670648,-0.89003 -0.1857822,-0.11482 -0.037985,-0.19482 0.3599371,-0.19482 0.6460559,0 0.6290899,0.0385 -0.3936606,0.89297 -0.5878478,0.49113 -1.146846,0.89165 -1.2422185,0.89003 -0.095372,-0.002 0.2236224,-0.31578 0.7088772,-0.69815 z m 3.4495948,-0.0265 c -0.329108,-0.41964 -0.319749,-0.429 0.0999,-0.0999 0.254661,0.19972 0.46302,0.40808 0.46302,0.46302 0,0.21776 -0.217272,0.0776 -0.562915,-0.36313 z m 45.983055,0.022 c -0.09702,-0.097 -0.17639,-0.33635 -0.17639,-0.53187 0,-0.19552 -0.386953,-0.92518 -0.859896,-1.62148 -1.208619,-1.7794 -1.559909,-2.43275 -1.308018,-2.43275 0.119804,0 0.416542,0.41672 0.659421,0.92604 0.24288,0.50933 0.562587,0.92605 0.710462,0.92605 0.35314,0 0.356876,0.017 -0.291901,-1.32585 -0.576197,-1.19258 -0.476274,-1.84221 0.315084,-2.04847 0.225383,-0.0587 0.174294,0.0657 -0.12655,0.30836 -0.490416,0.39549 -0.477195,0.46143 0.472892,2.35857 0.537578,1.07344 1.190398,2.18032 1.450711,2.45974 0.260313,0.27941 0.424542,0.65428 0.364955,0.83304 -0.115197,0.34559 -0.915561,0.44384 -1.21077,0.14863 z m 0.710539,-0.6835 c -0.74517,-1.21621 -1.416095,-2.0781 -1.416095,-1.81914 0,0.40891 1.134387,2.14246 1.404678,2.1466 0.117729,0.002 0.122864,-0.14555 0.0114,-0.32745 z m -5.120262,0.36569 c 0,-0.15055 0.176093,-0.94979 0.391319,-1.77609 0.215225,-0.82631 0.33497,-1.59355 0.266102,-1.70498 -0.06887,-0.11143 0.06024,-0.27377 0.286911,-0.36075 0.728634,-0.2796 0.160428,-0.62428 -1.337709,-0.81146 -0.802288,-0.10024 -1.458706,-0.28681 -1.458706,-0.41459 0,-0.12779 0.684609,-0.26805 1.521354,-0.31169 l 1.521354,-0.0794 V 232.737 c 0,-1.26052 0.0856,-2.37799 0.190222,-2.48328 0.104622,-0.10528 0.115594,0.43867 0.02439,1.20879 -0.09667,0.81624 -0.06566,1.33825 0.07436,1.25163 0.133001,-0.0823 0.225097,0.43059 0.206362,1.14921 -0.0186,0.71378 0.07771,1.29779 0.214053,1.29779 0.136338,0 0.186571,0.0992 0.111631,0.22047 -0.07494,0.12126 -0.528455,0.18098 -1.007803,0.13271 -0.854017,-0.086 -0.857465,-0.0822 -0.171432,0.18929 0.385064,0.15238 0.762323,0.51493 0.838351,0.80566 0.16995,0.64989 -0.929431,4.00511 -1.35927,4.14839 -0.171329,0.0571 -0.311497,-0.0194 -0.311497,-0.1699 z m 1.300268,-2.81308 c 0.008,-0.14552 -0.100869,-0.086 -0.241935,0.13229 -0.141065,0.21828 -0.249936,0.57547 -0.241935,0.79375 0.01535,0.41906 0.456319,-0.42486 0.48387,-0.92604 z m 0.287232,-0.66146 c 0,-0.14552 -0.0525,-0.26458 -0.116676,-0.26458 -0.06417,0 -0.190262,0.11906 -0.280199,0.26458 -0.08994,0.14552 -0.03743,0.26459 0.116676,0.26459 0.154109,0 0.280199,-0.11907 0.280199,-0.26459 z m -41.687125,3.15033 c -0.06348,-0.10272 0.408632,-0.22848 1.04914,-0.27948 0.640508,-0.051 1.117496,-0.0166 1.059975,0.0765 -0.152861,0.24731 -1.973434,0.42253 -2.109115,0.203 z m 14.864603,-0.38243 c -0.09074,-0.23646 -0.152791,-0.68808 -0.137895,-1.0036 0.01712,-0.36266 0.106992,-0.23371 0.244329,0.35057 0.231119,0.98328 0.16827,1.3689 -0.106434,0.65303 z m -14.237504,-0.3028 c 0.190996,-0.0764 0.419199,-0.067 0.507118,0.0209 0.08792,0.0879 -0.06835,0.15045 -0.347265,0.13897 -0.308225,-0.0127 -0.37092,-0.0754 -0.159853,-0.15985 z m 11.691276,0.0379 c 0,-0.44124 1.116357,-2.23378 1.314778,-2.11115 0.129887,0.0803 0.312142,0.023 0.405014,-0.12726 0.235577,-0.38118 0.6653,-0.0612 0.64286,0.47863 -0.01566,0.37702 -0.04964,0.36826 -0.215955,-0.0557 -0.16854,-0.42963 -0.302683,-0.32337 -0.918599,0.72761 -0.613532,1.04691 -1.228098,1.5913 -1.228098,1.08786 z m 1.322917,-1.80392 c 0,-0.33616 -0.122211,-0.18606 -0.507924,0.62384 -0.297034,0.62369 -0.291525,0.63214 0.09645,0.14787 0.226311,-0.28248 0.411472,-0.62974 0.411472,-0.77171 z m -20.1083335,1.36833 c 0,-0.11843 0.7194507,-0.21532 1.5987797,-0.21532 H 10.60838 l -0.738884,-0.92604 c -0.4063862,-0.50932 -0.887712,-0.92604 -1.069613,-0.92604 -0.1819011,-10e-6 -0.3307292,-0.11533 -0.3307292,-0.25629 0,-0.47828 0.7282519,0.0204 1.5829262,1.08393 0.468295,0.58273 0.809727,1.09687 0.758739,1.14254 -0.223451,0.20013 -3.3999985,0.29096 -3.3999985,0.0972 z m 5.6998405,0.0675 c -0.08372,-0.13547 -0.01282,-0.33246 0.157557,-0.43775 0.184639,-0.11412 0.239158,-0.0772 0.134959,0.0914 -0.09615,0.15557 -0.02525,0.34316 0.157557,0.41686 0.237898,0.0959 0.242806,0.13994 0.01726,0.15489 -0.173313,0.0115 -0.383614,-0.0899 -0.467336,-0.22541 z m 20.027581,-0.32586 c -0.18008,-0.18008 -0.327422,-0.47518 -0.327422,-0.65576 0,-0.18059 -0.139295,-0.41444 -0.309546,-0.51966 -0.206862,-0.12785 -0.254627,-0.0482 -0.143989,0.24013 0.102703,0.26764 -0.332248,0.0738 -1.145662,-0.51059 -0.721172,-0.51811 -1.311219,-1.01419 -1.311219,-1.1024 0,-0.0882 0.142875,-0.0175 0.3175,0.15711 0.174625,0.17462 0.493035,0.3175 0.707578,0.3175 0.283128,0 0.22148,-0.17947 -0.224841,-0.65455 -0.549756,-0.58519 -0.567454,-0.67277 -0.167002,-0.82644 0.246356,-0.0945 0.52216,-0.0976 0.612897,-0.007 0.09074,0.0907 -0.06067,0.16498 -0.336474,0.16498 -0.355253,0 -0.0089,0.44601 1.187815,1.52979 0.929098,0.84138 1.639436,1.67928 1.578528,1.862 -0.088,0.26399 -0.17799,0.26497 -0.438163,0.005 z m -1.190466,-1.72719 c -0.246002,-0.246 -0.535956,-0.35859 -0.644348,-0.2502 -0.108392,0.10839 -0.02193,0.30784 0.192138,0.44322 0.644147,0.40737 0.930413,0.28518 0.45221,-0.19302 z m -18.980706,1.05741 c 0,-0.14634 2.110286,-1.13931 2.42128,-1.13931 0.51753,0 -0.64855,0.77599 -1.180124,0.78534 -0.263249,0.005 -0.420819,0.10196 -0.350154,0.2163 0.07066,0.11434 -0.100903,0.20789 -0.38126,0.20789 -0.280358,0 -0.509742,-0.0316 -0.509742,-0.0702 z m -1.455208,-1.13931 c -0.101656,-0.60169 -0.129331,-1.14949 -0.0615,-1.21732 0.06783,-0.0678 0.202662,0.37281 0.299627,0.9792 0.09696,0.60638 0.124641,1.15418 0.0615,1.21732 -0.06314,0.0631 -0.197971,-0.3775 -0.299627,-0.9792 z m 17.526032,0.0662 c -0.133371,-1.0448 0.132863,-1.66292 0.476652,-1.10665 0.124373,0.20124 0.09444,0.2614 -0.07726,0.15528 -0.187735,-0.11603 -0.233415,0.17627 -0.138332,0.88516 0.07808,0.58212 0.07978,1.0584 0.0038,1.0584 -0.076,0 -0.195177,-0.44649 -0.264837,-0.99219 z m 13.292632,-0.61498 c -0.159652,-0.5929 -0.233172,-1.21798 -0.16338,-1.38906 0.06979,-0.17109 0.157747,-0.0134 0.195453,0.35039 0.03771,0.3638 0.150114,-0.23151 0.249793,-1.32292 l 0.18124,-1.98437 -0.02175,2.30179 c -0.01196,1.26598 0.06363,2.38715 0.16797,2.49149 0.271114,0.27111 0.234239,0.63068 -0.06468,0.63068 -0.139911,0 -0.385008,-0.4851 -0.544658,-1.078 z m -32.6835819,-0.31146 -1.0454986,-1.12408 1.1244791,1.04588 1.1244794,1.04589 0.0186,-0.9136 c 0.01023,-0.50247 0.121785,-1.15172 0.247903,-1.44276 0.1481,-0.34176 0.176219,-0.0607 0.0794,0.79375 -0.08245,0.72761 -0.229548,1.41204 -0.326884,1.52096 -0.09734,0.10893 -0.647449,-0.30779 -1.2224732,-0.92604 z m 17.8722099,0.48018 c 0,-0.23057 -0.338307,-0.42209 -0.859896,-0.48682 -0.84662,-0.10507 -0.844578,-0.10737 0.132292,-0.14906 0.829913,-0.0354 0.992187,0.0442 0.992187,0.48683 0,0.29104 -0.05953,0.52916 -0.132292,0.52916 -0.07276,0 -0.132291,-0.17105 -0.132291,-0.38011 z m -3.96875,-0.28135 c 0.181157,-0.21828 0.463626,-0.38747 0.627709,-0.37598 0.185878,0.013 0.173045,0.0714 -0.03404,0.15489 -0.182808,0.0737 -0.265078,0.24289 -0.182823,0.37598 0.08226,0.13309 -0.05064,0.24199 -0.295332,0.24199 -0.365455,0 -0.386079,-0.0709 -0.115509,-0.39688 z m 1.256771,-0.0429 c 0.181901,-0.0734 0.479557,-0.0734 0.661458,0 0.181901,0.0734 0.03307,0.13345 -0.330729,0.13345 -0.363802,0 -0.51263,-0.0601 -0.330729,-0.13345 z M 7.5431121,235.42572 c -0.4182533,-0.43656 -0.612096,-0.79375 -0.4307612,-0.79375 0.1813346,0 0.2487734,-0.13094 0.1498637,-0.29098 -0.1300803,-0.21047 -0.028673,-0.21008 0.3665244,0.001 0.3004981,0.16083 0.6353775,0.4406 0.7441766,0.62171 0.1292841,0.21522 0.040511,0.20167 -0.2562418,-0.0391 -0.7224509,-0.58622 -0.8590394,-0.0933 -0.1757066,0.63406 0.3412352,0.36332 0.5624179,0.66051 0.4915167,0.66051 -0.070901,0 -0.4711184,-0.35719 -0.8893718,-0.79375 z m 60.1927079,0.56003 c 0,-0.12855 0.24493,-0.29778 0.544288,-0.37606 0.446609,-0.11679 0.488278,-0.0748 0.232188,0.23372 -0.349325,0.42091 -0.776476,0.49921 -0.776476,0.14234 z m -42.8625,-0.28336 c 0.218282,-0.14771 0.625079,-0.27039 0.903994,-0.27262 0.676922,-0.005 0.465735,0.14603 -0.507119,0.36364 -0.579679,0.12967 -0.686715,0.10512 -0.396875,-0.091 z m 1.91823,-0.44565 c 0.629255,-0.18265 0.585623,-0.36545 -0.264584,-1.10847 l -0.727604,-0.63587 0.882071,0.62593 c 1.082251,0.76798 1.177536,1.13977 0.308554,1.20395 -0.38204,0.0282 -0.465865,-0.008 -0.198437,-0.0855 z m 41.214738,-0.0106 c -0.0032,-0.17151 0.1803,-0.49801 0.40786,-0.72557 0.503481,-0.50349 0.281753,-0.94697 -0.473456,-0.94697 -0.306707,0 -0.483819,-0.0738 -0.393583,-0.16407 0.267282,-0.26728 1.512139,0.14595 1.505744,0.49984 -0.0077,0.42651 -1.03889,1.74364 -1.046565,1.33677 z m -36.30341,-0.26578 c 0.190994,-0.0764 0.419198,-0.067 0.507119,0.0209 0.08792,0.0879 -0.06835,0.15046 -0.347266,0.13897 -0.308226,-0.0127 -0.370919,-0.0754 -0.159853,-0.15985 z m -2.066068,-0.28228 c 0.0013,-0.27018 1.016741,-1.91823 1.181857,-1.91823 0.07276,0 -0.103953,0.38695 -0.392695,0.85989 l -0.524986,0.8599 0.727313,0.16713 c 0.714674,0.16423 0.712369,0.16768 -0.132583,0.19844 -0.472942,0.0172 -0.859451,-0.058 -0.858906,-0.16713 z m 2.644844,-0.0661 c -0.586613,-0.18787 -0.547423,-0.21482 0.346345,-0.23821 0.610211,-0.016 0.943289,0.078 0.84428,0.23821 -0.183857,0.29749 -0.261723,0.29749 -1.190625,0 z m 37.161636,-0.2126 c 0.438428,-0.517 0.674336,-0.58287 1.55484,-0.43411 0.836874,0.14139 0.99454,0.10569 0.813726,-0.18427 -0.123349,-0.1978 -0.256257,-0.56489 -0.295354,-0.81576 -0.06268,-0.40218 0.01363,-0.41782 0.64535,-0.13229 l 0.716436,0.32382 -0.627578,0.0899 -0.627579,0.0899 0.641594,0.57158 c 0.352877,0.31436 0.525984,0.48227 0.384678,0.37313 -0.355881,-0.27487 -0.742874,-0.24923 -0.565674,0.0375 0.08019,0.12976 -0.332928,0.1144 -0.918041,-0.0341 -0.905748,-0.22991 -1.151184,-0.19616 -1.651545,0.2271 l -0.587698,0.49714 z m -11.497053,-0.0298 c 0,-0.11817 -0.442513,-0.20127 -0.983361,-0.18467 -0.787117,0.0242 -1.003065,-0.0754 -1.082104,-0.49899 -0.09697,-0.51967 -0.09183,-0.52001 0.286526,-0.0192 0.368252,0.48743 0.426579,0.49035 1.320527,0.0661 1.026364,-0.48705 3.504441,-0.60196 3.768466,-0.17476 0.109577,0.1773 -0.324141,0.21142 -1.271754,0.10004 -0.986094,-0.11589 -1.498973,-0.0704 -1.631924,0.1447 -0.142113,0.22994 0.078,0.27377 0.824352,0.16414 1.012489,-0.14872 0.887187,-0.0522 -0.503124,0.38738 -0.400182,0.12654 -0.727604,0.13339 -0.727604,0.0152 z M 6.4847788,234.1028 c -0.089937,-0.14552 -0.037432,-0.26458 0.1166768,-0.26458 0.1541089,0 0.2801982,0.11906 0.2801982,0.26458 0,0.14553 -0.052504,0.26459 -0.1166767,0.26459 -0.064172,0 -0.1902614,-0.11906 -0.2801983,-0.26459 z m 22.0927082,-0.0156 c 0,-0.1541 0.101119,-0.2177 0.224708,-0.14132 0.123587,0.0764 0.381831,-0.15471 0.573876,-0.51355 0.192043,-0.35883 0.451675,-0.65243 0.576964,-0.65243 0.125285,0 -0.03628,0.35719 -0.359051,0.79375 -0.597027,0.80752 -1.016497,1.01944 -1.016497,0.51355 z m 10.583333,0.0312 c 0,-0.13694 0.11991,-0.32308 0.266465,-0.41366 0.146555,-0.0906 0.448445,-0.51659 0.670864,-0.9467 0.386173,-0.74678 0.377145,-0.79296 -0.200321,-1.02479 -0.332592,-0.13352 -0.448061,-0.25031 -0.256593,-0.25953 0.191468,-0.009 0.586108,0.11059 0.87698,0.26626 0.435581,0.23312 0.470511,0.35334 0.198056,0.68162 -0.264985,0.31929 -0.263945,0.43991 0.0052,0.60627 0.246073,0.15208 0.143436,0.35915 -0.383424,0.77358 -0.772163,0.60738 -1.17724,0.71644 -1.17724,0.31694 z m 1.322917,-0.81868 c 0,-0.37588 -0.126651,-0.31825 -0.686596,0.31239 -0.501328,0.56463 -0.500838,0.56599 0.09128,0.25528 0.327421,-0.17182 0.595312,-0.42727 0.595312,-0.56767 z m -13.677434,0.12479 -0.742358,-0.67827 0.701183,0.4268 c 0.554718,0.33766 0.729972,0.35499 0.839007,0.083 0.0758,-0.18911 0.147225,-0.076 0.158713,0.25147 0.02641,0.75214 -0.04977,0.74554 -0.956545,-0.083 z m 15.17674,0.50188 c -0.09701,-0.097 -0.176389,-0.4017 -0.176389,-0.67708 0,-0.31108 -0.115674,-0.42919 -0.305464,-0.3119 -0.189257,0.11697 -0.233643,0.0726 -0.116676,-0.11667 0.326712,-0.52864 0.622424,-0.33434 0.743161,0.48828 0.12586,0.85755 0.120108,0.8821 -0.144632,0.61737 z m 2.098326,-0.91455 c -0.681654,-0.60001 -1.180772,-1.14953 -1.109152,-1.22115 0.07162,-0.0716 0.42385,0.21094 0.782736,0.62792 0.358883,0.41697 0.741291,0.66956 0.849791,0.56131 0.108503,-0.10825 -0.01664,-0.43319 -0.278088,-0.72208 -0.420219,-0.46434 -0.427378,-0.54369 -0.06172,-0.68401 0.227507,-0.0873 0.690197,-0.106 1.028203,-0.0416 0.458372,0.0874 0.39152,0.12635 -0.263054,0.15322 l -0.87761,0.036 0.975627,1.19063 c 1.254535,1.53099 0.645237,1.58902 -1.046734,0.0997 z m -18.943465,0.16489 c 0,-0.21828 0.04679,-0.39687 0.103984,-0.39687 0.05719,0 0.172517,0.17859 0.256279,0.39687 0.08376,0.21828 0.03697,0.39688 -0.103984,0.39688 -0.140953,0 -0.256279,-0.1786 -0.256279,-0.39688 z m 40.817014,-0.0511 c 0.257431,-0.0671 0.614619,-0.0627 0.79375,0.01 0.179131,0.0725 -0.03149,0.12736 -0.468056,0.12197 -0.436563,-0.005 -0.583126,-0.0647 -0.325694,-0.13178 z m -1.129514,-0.34077 c 0,-0.1483 0.377031,-0.26963 0.837848,-0.26963 0.963419,0 0.928507,0.1155 -0.110244,0.3647 -0.431943,0.10362 -0.727604,0.065 -0.727604,-0.0951 z m 3.754284,0.0716 c 0.532402,-0.0813 0.738941,-0.28785 0.820253,-0.82025 0.09816,-0.64274 0.112511,-0.62838 0.14832,0.14832 0.03731,0.80929 -0.01095,0.85756 -0.820253,0.82025 -0.776701,-0.0358 -0.791052,-0.0502 -0.14832,-0.14832 z m -43.047577,-0.34552 c -0.0914,-0.14789 -0.268797,-0.20548 -0.394207,-0.12798 -0.125411,0.0775 -0.302804,0.0199 -0.394208,-0.12797 -0.263311,-0.42605 0.558054,-0.31221 0.923374,0.12797 0.181158,0.21828 0.262294,0.39688 0.180304,0.39688 -0.08199,0 -0.223859,-0.12101 -0.315263,-0.2689 z m 2.832373,-0.65714 c 0.0054,-0.43657 0.06469,-0.58313 0.131773,-0.3257 0.06708,0.25743 0.06267,0.61462 -0.0098,0.79375 -0.07248,0.17913 -0.127363,-0.0315 -0.121971,-0.46805 z m 2.053146,0.212 c 0.282183,-0.58499 1.347382,-1.4783 1.53684,-1.28884 0.124727,0.12473 -0.691708,1.73829 -0.879544,1.73829 -0.07414,0 -0.01156,-0.23029 0.139086,-0.51177 0.480814,-0.89841 0.292463,-0.96839 -0.402867,-0.14968 -0.47388,0.55796 -0.590773,0.62094 -0.393515,0.212 z m 25.189132,-0.3443 c 0,-0.3638 0.06005,-0.51263 0.133453,-0.33072 0.0734,0.1819 0.0734,0.47955 0,0.66145 -0.0734,0.18191 -0.133453,0.0331 -0.133453,-0.33073 z m 14.495071,-0.17237 c -0.146698,-0.38584 -0.221147,-0.83232 -0.165444,-0.99218 0.0557,-0.15986 0.18877,0.0992 0.295701,0.57564 l 0.194418,0.86629 1.088031,-0.80015 c 1.760455,-1.29465 2.45791,-0.98554 0.918596,0.40713 -0.823452,0.745 -0.832517,0.74709 -0.219443,0.0505 0.909034,-1.0328 0.51457,-1.17895 -0.582411,-0.21579 -0.507437,0.44553 -0.999136,0.81006 -1.092669,0.81006 -0.09353,0 -0.290081,-0.31569 -0.436779,-0.70154 z m -42.150107,-0.72059 c 0.05313,-0.41838 0.09659,-0.92439 0.09659,-1.12448 0,-0.20009 0.119063,-0.36381 0.264584,-0.36381 0.145521,0 0.264583,0.29766 0.264583,0.66146 0,0.36381 -0.110781,0.66146 -0.246182,0.66146 -0.1354,0 -0.297928,0.20836 -0.361177,0.46302 -0.06325,0.25466 -0.07153,0.12072 -0.01841,-0.29765 z m 18.617428,0.62838 c 0,-0.14552 0.126089,-0.26458 0.280199,-0.26458 0.154109,0 0.206613,0.11906 0.116676,0.26458 -0.08994,0.14552 -0.216027,0.26458 -0.280199,0.26458 -0.06417,0 -0.116676,-0.11906 -0.116676,-0.26458 z m -7.784788,-0.29762 c 0.0787,-0.12735 0.761153,-0.22214 1.516549,-0.21066 1.56763,0.0238 1.41409,0.14475 -0.407683,0.32104 -0.688581,0.0666 -1.187569,0.017 -1.108866,-0.11038 z m 30.274371,-0.23155 c 0,-0.14552 0.119062,-0.26458 0.264583,-0.26458 0.145521,0 0.264584,0.11906 0.264584,0.26458 0,0.14553 -0.119063,0.26459 -0.264584,0.26459 -0.145521,0 -0.264583,-0.11906 -0.264583,-0.26459 z m -27.486975,-0.72207 c -0.185253,-0.44723 -0.624906,-1.0838 -0.977008,-1.41458 -0.3521,-0.33078 -0.630783,-0.78903 -0.619295,-1.01832 0.01381,-0.27556 0.06632,-0.30421 0.15489,-0.0845 0.0737,0.18281 0.248587,0.26156 0.388633,0.175 0.140049,-0.0866 0.572508,0.1605 0.961017,0.54902 l 0.706385,0.70638 0.343045,-0.88139 c 0.22097,-0.56774 0.295921,-0.646 0.210622,-0.21993 -0.07283,0.3638 -0.134049,0.81028 -0.136036,0.99219 -0.0062,0.56827 -0.7342,0.36219 -1.311029,-0.37112 -0.303643,-0.38602 -0.621892,-0.63204 -0.707223,-0.54671 -0.08533,0.0853 0.226848,0.63049 0.69373,1.21146 0.466883,0.58098 0.799425,1.20467 0.738983,1.386 -0.06044,0.18133 -0.261463,-0.0362 -0.446714,-0.48348 z m 2.549996,0.53969 c -0.58325,-0.15242 -0.58819,-0.44504 -0.01535,-0.9097 0.381108,-0.30914 0.414435,-0.30799 0.22416,0.008 -0.147976,0.24555 -0.05864,0.49142 0.264364,0.72761 0.490424,0.3586 0.383154,0.39813 -0.473168,0.17435 z m 18.432089,-0.38335 c -0.114112,-0.18463 -0.07718,-0.23915 0.09141,-0.13496 0.155578,0.0962 0.343167,0.0252 0.416867,-0.15755 0.09591,-0.2379 0.139941,-0.24281 0.15489,-0.0172 0.03018,0.45531 -0.438044,0.67403 -0.663168,0.30978 z m 6.540246,-0.62489 c -0.03975,-1.15785 0.375243,-1.69905 0.603986,-0.78767 0.09909,0.3948 0.114837,0.78315 0.03499,0.86299 -0.07984,0.0798 -0.159255,-0.083 -0.176471,-0.36195 -0.01918,-0.31075 -0.109514,-0.19977 -0.233281,0.28663 l -0.201975,0.79375 z m -25.964523,-0.2488 c 0,-0.24414 0.102558,-0.3805 0.227907,-0.30303 0.125346,0.0775 0.927989,-0.38287 1.783646,-1.02296 0.855658,-0.6401 1.597451,-1.12211 1.648431,-1.07113 0.180465,0.18047 -0.364559,0.87014 -1.278734,1.6181 -0.509323,0.41672 -0.762635,0.55057 -0.562917,0.29743 0.524582,-0.66487 0.13674,-0.56572 -0.909944,0.23263 -0.751287,0.57303 -0.908389,0.61609 -0.908389,0.24896 z m 18.950395,-0.026 c -0.255317,-0.66535 -0.179998,-0.83703 0.131903,-0.30066 0.154435,0.26557 0.225055,0.5386 0.156932,0.60672 -0.06812,0.0681 -0.198099,-0.0696 -0.288835,-0.30606 z m 0.649661,-0.27641 c 0.0127,-0.30822 0.07539,-0.37092 0.15985,-0.15985 0.07643,0.19099 0.06703,0.4192 -0.02088,0.50712 -0.08792,0.0879 -0.150453,-0.0684 -0.138965,-0.34727 z m 2.095778,-0.61093 c 0,-0.17837 -0.09498,-0.2656 -0.211072,-0.19385 -0.116088,0.0718 -0.364196,0.0358 -0.551349,-0.0799 -0.267319,-0.16521 -0.254574,-0.24319 0.05943,-0.36369 0.424641,-0.16295 1.160389,0.50429 0.872982,0.7917 -0.09349,0.0935 -0.169994,0.024 -0.169994,-0.1543 z M 20.908622,227.8189 c 0.0022,-0.25466 0.119468,-0.64161 0.260532,-0.8599 0.194627,-0.30116 0.257457,-0.1895 0.260532,0.46303 0.0022,0.47294 -0.115011,0.85989 -0.260532,0.85989 -0.145521,0 -0.26276,-0.20836 -0.260532,-0.46302 z m 22.139854,-0.26458 c -0.07853,-0.40019 -0.03288,-0.84072 0.101449,-0.97896 0.150534,-0.15493 0.244229,0.12421 0.244229,0.7276 0,1.15865 -0.146701,1.26531 -0.345678,0.25136 z M 60.3832,227.06466 c -0.187637,-0.2036 -0.22443,-0.37019 -0.08176,-0.37019 0.274754,0 0.672497,0.50329 0.515562,0.65238 -0.05095,0.0484 -0.246163,-0.0786 -0.433802,-0.28219 z M 17.597279,226.1653 c 0.446189,-0.86283 0.750863,-1.07662 0.471324,-0.33072 -0.157748,0.42092 -0.126922,0.42693 0.339033,0.0661 0.473589,-0.3667 0.485135,-0.36189 0.151851,0.0632 -0.198389,0.25306 -0.46628,0.39487 -0.595312,0.31512 -0.129033,-0.0797 -0.234605,0.0406 -0.234605,0.26749 0,0.22687 -0.12212,0.41249 -0.271377,0.41249 -0.154541,0 -0.09466,-0.34173 0.139086,-0.79375 z m 3.094288,0.1323 c 0.0054,-0.43657 0.06469,-0.58313 0.131774,-0.3257 0.06708,0.25743 0.06267,0.61462 -0.0098,0.79375 -0.07248,0.17913 -0.127363,-0.0315 -0.121971,-0.46805 z m 36.725503,0.12725 c 0,-0.16006 0.295662,-0.1987 0.727604,-0.0951 1.038752,0.24919 1.073664,0.36469 0.110244,0.36469 -0.460816,0 -0.837848,-0.12133 -0.837848,-0.26962 z m 3.061679,-0.72257 c 0.131702,-0.10914 0.328316,-0.3175 0.43692,-0.46302 0.112689,-0.15099 0.199205,-0.0658 0.201517,0.19844 0.0024,0.25738 -0.191794,0.46302 -0.436922,0.46302 -0.242533,0 -0.333216,-0.0893 -0.201515,-0.19844 z m 1.491951,-0.70091 c 0.18764,-0.20361 0.38285,-0.33059 0.433803,-0.28219 0.156935,0.14908 -0.240808,0.65237 -0.515562,0.65237 -0.142671,0 -0.105878,-0.16658 0.08176,-0.37018 z m -43.711963,-0.0643 c 0,-0.14197 0.185162,-0.48923 0.411471,-0.77171 0.387979,-0.48427 0.393486,-0.47582 0.09645,0.14787 -0.385713,0.8099 -0.507924,0.96 -0.507924,0.62384 z m 33.885264,-0.27749 c 0.01023,-0.26325 0.12092,-0.71677 0.245986,-1.00781 0.191677,-0.44605 0.230312,-0.39656 0.245986,0.31512 0.01024,0.46435 -0.100465,0.91786 -0.245986,1.0078 -0.145521,0.0899 -0.256215,-0.0519 -0.245986,-0.31511 z m 10.941931,-0.26544 c 0.03857,-0.26278 0.157993,-0.45794 0.265388,-0.43369 0.401804,0.0907 0.417147,0.28683 0.04651,0.59443 -0.310679,0.25784 -0.36893,0.22782 -0.311902,-0.16074 z M 6.6135563,223.77557 c -0.1827628,-0.44123 -0.2567387,-0.87779 -0.1643909,-0.97014 0.092348,-0.0924 0.1679051,0.0376 0.1679051,0.28868 0,0.25113 0.1190625,0.38301 0.2645833,0.29307 0.1500606,-0.0927 0.2645834,0.12954 0.2645834,0.51355 0,0.88421 -0.1269387,0.85439 -0.5326809,-0.12516 z m 13.8036237,0.27307 c 0,-0.3638 0.06005,-0.51263 0.133452,-0.33073 0.0734,0.1819 0.0734,0.47956 0,0.66146 -0.0734,0.1819 -0.133452,0.0331 -0.133452,-0.33073 z m 2.834891,0.0661 c -0.315546,-0.40235 -0.311123,-0.42434 0.03375,-0.16781 0.218282,0.16236 0.575469,0.36132 0.79375,0.44213 0.331986,0.12291 0.326468,0.15034 -0.03375,0.16782 -0.236843,0.0115 -0.59403,-0.18747 -0.79375,-0.44214 z m 37.396837,0.0738 c 0.104021,-0.11522 0.07006,-0.43197 -0.07546,-0.70388 -0.145521,-0.27191 -0.205053,-0.49438 -0.132292,-0.49438 0.07276,0 0.255865,0.2309 0.4069,0.51311 0.200504,0.37465 0.185166,0.56459 -0.05684,0.70388 -0.182293,0.10492 -0.246335,0.0965 -0.142314,-0.0187 z M 23.516655,223.5856 c -0.329108,-0.41965 -0.319749,-0.42901 0.0999,-0.0999 0.254661,0.19972 0.46302,0.40808 0.46302,0.46302 0,0.21776 -0.217272,0.0776 -0.562915,-0.36312 z m -2.316809,-0.38126 c -0.04897,-0.71387 0.385767,-0.78037 0.926134,-0.14167 l 0.498382,0.58907 -0.572066,-0.48299 c -0.553836,-0.4676 -0.576045,-0.4676 -0.696912,0 -0.106915,0.41362 -0.129254,0.41873 -0.155538,0.0356 z m 34.126217,-1.20624 c -1.255869,-1.42468 -1.705507,-2.17006 -1.073388,-1.77939 0.178443,0.11029 0.214868,-0.0703 0.103608,-0.51355 -0.143865,-0.57321 -0.08148,-0.68363 0.38627,-0.68363 0.306819,0 0.557851,-0.11906 0.557851,-0.26458 0,-0.14552 -0.238125,-0.26458 -0.529167,-0.26458 -0.594349,0 -0.723749,-0.75792 -0.216077,-1.26559 0.172201,-0.1722 0.221996,-0.40419 0.110659,-0.51552 -0.111337,-0.11134 -0.37129,0.0285 -0.577673,0.31074 -0.362934,0.49634 -0.375242,0.49271 -0.375242,-0.11066 0,-0.34311 0.07007,-0.55376 0.15571,-0.46812 0.08564,0.0856 0.702143,-0.19083 1.370004,-0.61438 0.667861,-0.42354 1.270042,-0.71433 1.338183,-0.64619 0.06814,0.0681 -0.369768,0.65945 -0.973129,1.31402 -0.603359,0.65457 -1.097018,1.30239 -1.097018,1.4396 0,0.13721 0.358227,0.32815 0.796059,0.42431 0.437833,0.0962 0.747313,0.25446 0.687737,0.35175 -0.05957,0.0973 0.299683,0.18597 0.798351,0.19705 0.498671,0.0111 1.052391,0.17407 1.23049,0.36222 0.263959,0.27884 -0.03079,0.30884 -1.594408,0.16227 -1.055026,-0.0989 -1.918229,-0.077 -1.918229,0.0487 0,0.12566 0.36771,0.72848 0.817131,1.3396 0.58801,0.79957 0.687123,1.06124 0.35347,0.93321 -0.31645,-0.12144 -0.402918,-0.0797 -0.272349,0.13162 0.105222,0.17025 0.349184,0.30954 0.542142,0.30954 0.192955,0 0.545862,0.29766 0.784233,0.66146 0.782002,1.19349 -0.03684,0.69241 -1.405218,-0.85989 z m 0.106632,-5.6224 c 0.08994,-0.14552 0.04446,-0.26458 -0.101063,-0.26458 -0.14552,0 -0.338166,0.11906 -0.428103,0.26458 -0.08994,0.14552 -0.04446,0.26458 0.101063,0.26458 0.14552,0 0.338166,-0.11906 0.428103,-0.26458 z m -23.403287,6.48229 c -0.0049,-0.14552 0.227706,-0.62177 0.516829,-1.05833 0.289123,-0.43656 0.526465,-0.63789 0.527423,-0.44741 0.0011,0.19425 0.135887,0.26344 0.307208,0.15756 0.190775,-0.11791 0.233579,-0.0725 0.114009,0.12099 -0.105299,0.17038 -0.296635,0.24478 -0.425191,0.16532 -0.128558,-0.0795 -0.413218,0.1865 -0.632584,0.591 -0.219364,0.4045 -0.402828,0.61639 -0.407694,0.47087 z m 16.993743,-0.39687 c -0.02193,-0.29104 0.08031,-0.52917 0.227179,-0.52917 0.322718,0 0.945049,-0.5988 1.763871,-1.69717 l 0.60859,-0.81637 -1.270048,-0.15687 -1.270048,-0.15687 1.389063,-0.0416 c 1.761527,-0.0527 1.786033,0.25343 0.16465,2.05679 -1.226304,1.36395 -1.420646,2.13547 -0.298564,1.18527 l 0.596935,-0.5055 -0.504029,0.59531 c -0.626073,0.73946 -1.354302,0.77368 -1.407599,0.0661 z m 3.668612,-0.13229 c 0,-0.43657 0.102325,-1.03188 0.227391,-1.32292 0.19386,-0.45114 0.22739,-0.41212 0.22739,0.26458 0,0.43657 -0.102324,1.03188 -0.22739,1.32292 -0.193861,0.45114 -0.227391,0.41212 -0.227391,-0.26458 z m -37.343443,0.15012 c 0,-0.29793 1.033942,-0.65958 1.254662,-0.43887 0.08605,0.0861 -0.07175,0.17213 -0.350668,0.19128 -0.278915,0.0192 -0.0904,0.12255 0.418923,0.22976 l 0.926042,0.19492 -1.124479,0.0348 c -0.618464,0.0192 -1.12448,-0.0762 -1.12448,-0.21192 z m 3.439584,-0.0178 -0.926042,-0.19493 0.844281,-0.0348 c 0.464355,-0.0191 0.917866,0.0842 1.007802,0.22976 0.08994,0.14552 0.126729,0.24891 0.08176,0.22975 -0.04497,-0.0191 -0.498479,-0.12255 -1.007802,-0.22975 z m 3.329542,-0.4343 c -0.139347,-0.36314 -0.10063,-0.3795 0.236276,-0.0999 0.459117,0.38104 0.506899,0.5342 0.166656,0.5342 -0.129952,0 -0.311271,-0.19544 -0.402932,-0.4343 z m 13.504572,0.22323 c -0.07175,-0.11609 -0.0245,-0.38248 0.104966,-0.59198 0.177511,-0.28722 0.224443,-0.23531 0.19082,0.21107 -0.04838,0.64229 -0.09619,0.70386 -0.295786,0.38091 z m 16.481891,0.0126 c -0.120007,-1.10785 -0.09396,-1.65364 0.0789,-1.65364 0.113945,0 0.207174,0.41672 0.207174,0.92604 0,0.50932 -0.05953,0.92604 -0.132292,0.92604 -0.07276,0 -0.141965,-0.0893 -0.153786,-0.19844 z m -41.592833,-0.89937 c -1.0276557,-0.22634 -2.5710889,-0.92705 -2.5710889,-1.16726 0,-0.0742 0.2483224,-0.002 0.5518272,0.16052 0.8773665,0.46955 0.8677331,0.11623 -0.017132,-0.62833 l -0.8105706,-0.68205 0.6009587,-0.32024 c 0.5236851,-0.27905 0.5588569,-0.26916 0.2735332,0.077 -0.4425995,0.53688 0.4745984,1.39746 2.1789174,2.04441 1.428167,0.54212 1.305397,0.84898 -0.206445,0.516 z m 7.879953,0.0395 c 0.727362,-0.31255 1.145107,-0.31255 0.661458,0 -0.218281,0.14107 -0.575469,0.24994 -0.79375,0.24194 -0.261687,-0.01 -0.216625,-0.092 0.132292,-0.24194 z M 2.3870123,221.20437 c 0.0018,-0.10914 0.4482858,-0.48609 0.9921876,-0.83766 0.7595153,-0.49093 0.8968497,-0.52547 0.5920373,-0.14889 -0.3596709,0.44435 -0.3534704,0.47404 0.066146,0.31679 0.7629284,-0.28593 0.5233977,0.006 -0.3713792,0.45194 -0.9177234,0.45782 -1.2839822,0.5202 -1.2789917,0.21782 z M 35.092465,220.9957 c -0.255317,-0.66534 -0.179998,-0.83702 0.131903,-0.30066 0.154435,0.26558 0.225055,0.53861 0.156932,0.60673 -0.06812,0.0681 -0.198098,-0.0696 -0.288835,-0.30607 z m -12.914587,-0.0382 c 0.190996,-0.0764 0.419199,-0.067 0.507118,0.0209 0.08792,0.0879 -0.06835,0.15045 -0.347266,0.13896 -0.308224,-0.0127 -0.370919,-0.0754 -0.159852,-0.15985 z m 1.504817,-0.0838 c -0.619977,-0.15776 -0.417241,-0.20794 0.926042,-0.22923 1.198769,-0.019 1.599556,0.0505 1.322917,0.22923 -0.451426,0.29173 -1.102462,0.29173 -2.248959,0 z m 12.080317,-0.26459 c 0,-0.3638 0.06005,-0.51263 0.133453,-0.33072 0.0734,0.1819 0.0734,0.47955 0,0.66145 -0.0734,0.1819 -0.133453,0.0331 -0.133453,-0.33073 z M 5.7573564,220.20586 c -0.070209,-0.36727 -0.024559,-0.73148 0.1014471,-0.80936 0.1260052,-0.0779 0.2291003,0.22262 0.2291003,0.66777 0,0.98225 -0.1569908,1.0495 -0.3305474,0.14159 z m 12.4676316,-0.0598 c -0.329107,-0.41964 -0.319749,-0.429 0.0999,-0.0999 0.254661,0.19972 0.463021,0.40808 0.463021,0.46302 0,0.21776 -0.217272,0.0776 -0.562916,-0.36313 z m 22.258749,0.18283 c 0,-0.15411 -0.09922,-0.21888 -0.220485,-0.14394 -0.121269,0.075 -0.220488,-0.0376 -0.220488,-0.25006 0,-0.31958 0.08382,-0.31049 0.485071,0.0526 0.552529,0.50004 0.595635,0.62155 0.220485,0.62155 -0.14552,0 -0.264583,-0.12609 -0.264583,-0.28019 z m -10.964817,-0.2739 c 0.07362,-0.11912 0.313496,-0.14764 0.533069,-0.0634 0.219572,0.0843 0.375753,0.0493 0.34707,-0.0777 -0.02868,-0.12699 0.07796,-0.52855 0.236992,-0.89236 0.173974,-0.39798 0.295826,-0.49459 0.305914,-0.24253 0.0092,0.23041 -0.07252,0.50822 -0.181665,0.61736 -0.109141,0.10914 -0.198438,0.33735 -0.198438,0.50712 0,0.16977 -0.264779,0.32204 -0.588396,0.33837 -0.323617,0.0163 -0.528164,-0.0678 -0.454546,-0.18688 z m 23.664817,0.0249 c 0,-0.14552 0.12609,-0.26459 0.280199,-0.26459 0.154109,0 0.206613,0.11907 0.116676,0.26459 -0.08994,0.14552 -0.216027,0.26458 -0.280199,0.26458 -0.06417,0 -0.116676,-0.11906 -0.116676,-0.26458 z M 7.1462372,219.8153 c -0.2384669,-0.1541 -0.2711009,-0.25809 -0.081761,-0.26053 0.1733129,-0.002 0.3886988,0.11501 0.4786357,0.26053 0.2030162,0.32849 0.1114222,0.32849 -0.3968747,0 z M 18.52332,219.55072 c -0.218281,-0.14106 -0.277812,-0.25648 -0.132291,-0.25648 0.145521,0 0.443177,0.11542 0.661458,0.25648 0.218281,0.14107 0.277813,0.25648 0.132292,0.25648 -0.145521,0 -0.443177,-0.11541 -0.661459,-0.25648 z m 2.910417,0.0902 c 0,-0.14441 0.327422,-0.5512 0.727604,-0.904 l 0.727604,-0.64143 -0.661458,0.79375 c -0.363802,0.43657 -0.691224,0.84336 -0.727604,0.904 -0.03638,0.0606 -0.06615,-0.008 -0.06615,-0.15232 z m 14.043806,-0.24456 c 0.0127,-0.30822 0.07539,-0.37092 0.15985,-0.15985 0.07643,0.19099 0.06703,0.4192 -0.02088,0.50712 -0.08792,0.0879 -0.150453,-0.0684 -0.138965,-0.34727 z m -18.365334,-0.022 c -0.300203,-0.30021 -0.194954,-0.61737 0.204872,-0.61737 0.209693,0 0.454002,0.1177 0.542908,0.26156 0.09602,0.15535 -0.02269,0.19081 -0.292372,0.0873 -0.308035,-0.1182 -0.392507,-0.0747 -0.26271,0.13532 0.20779,0.33622 0.09104,0.4169 -0.192698,0.13316 z m 3.548666,-0.24253 c 0.0127,-0.30823 0.07539,-0.37092 0.159853,-0.15985 0.07643,0.19099 0.06703,0.41919 -0.02089,0.50711 -0.08792,0.0879 -0.150453,-0.0684 -0.138965,-0.34726 z m 2.313929,-0.28862 c 0.112905,-0.55376 0.179438,-0.6203 0.256541,-0.25654 0.05725,0.27012 -0.01134,0.60657 -0.15244,0.74766 -0.165665,0.16567 -0.202542,-0.008 -0.104101,-0.49112 z m 15.193829,0.4347 c -0.737778,-0.29655 -0.782214,-0.52025 -0.06615,-0.333 0.846452,0.22135 0.613095,-0.13097 -0.463021,-0.69907 -0.545703,-0.28809 -0.9007,-0.52906 -0.788879,-0.53549 0.224618,-0.0129 2.8394,1.31913 2.8394,1.44647 0,0.0439 -0.256744,0.0127 -0.57054,-0.0694 -0.390908,-0.10223 -0.510947,-0.0528 -0.381259,0.15706 0.217398,0.35176 0.221761,0.3515 -0.569555,0.0334 z m -18.301508,-0.41067 c 0.01269,-0.30823 0.07539,-0.37092 0.159853,-0.15986 0.07643,0.191 0.06703,0.4192 -0.02089,0.50712 -0.08792,0.0879 -0.150453,-0.0684 -0.138965,-0.34726 z m 14.15133,0.0768 c 0.09936,-0.26094 0.247304,-0.40778 0.328766,-0.32632 0.08146,0.0815 1.7e-4,0.29495 -0.180652,0.47443 -0.261308,0.25936 -0.291698,0.22897 -0.148114,-0.14811 z m 14.138199,0.09 c 0,-0.24952 1.615164,-0.79809 2.38125,-0.80876 0.995566,-0.0139 1.112726,-0.42294 0.415417,-1.45048 -0.864169,-1.27343 -0.864931,-1.72195 -0.0029,-1.72195 0.40295,0 0.607968,0.11182 0.506389,0.27618 -0.09388,0.15189 -0.02679,0.44955 0.149072,0.66145 0.250142,0.30141 0.249708,0.38529 -0.0021,0.38529 -0.176964,0 -0.384022,-0.23812 -0.460132,-0.52917 -0.07611,-0.29104 -0.243557,-0.52916 -0.372104,-0.52916 -0.409964,0 -0.255048,0.42033 0.579511,1.57241 0.728896,1.00621 0.814388,1.4447 0.289195,1.48324 -1.122773,0.0824 -2.689804,0.46966 -2.689804,0.66473 0,0.1366 -0.178594,0.24837 -0.396875,0.24837 -0.218282,0 -0.396875,-0.11347 -0.396875,-0.25215 z M 2.846758,218.83205 c -1.1433815,-0.17321 -0.8499116,-0.60627 0.396875,-0.58565 0.847743,0.014 0.9942505,0.0717 0.5953125,0.23449 -0.4459211,0.18192 -0.3834868,0.23477 0.396875,0.33593 0.8087077,0.10484 0.8254696,0.12039 0.1322917,0.12275 -0.4365625,0.002 -1.1211719,-0.0469 -1.5213542,-0.10752 z m 6.3665364,-0.25582 c 0.1909961,-0.0764 0.4191993,-0.067 0.5071182,0.0209 0.087919,0.0879 -0.068351,0.15045 -0.3472656,0.13896 -0.3082245,-0.0127 -0.3709194,-0.0754 -0.1598526,-0.15985 z m -4.332053,-0.29387 c 0.1066366,-0.18828 0.041328,-0.54546 -0.1451314,-0.79375 -0.3052297,-0.40644 -0.2888533,-0.40548 0.1643203,0.01 0.4204933,0.38524 0.4443801,0.51588 0.1451311,0.79375 -0.2884607,0.26786 -0.3204549,0.26597 -0.16432,-0.01 z m 26.8216366,0.0293 c 0.190994,-0.0764 0.419198,-0.067 0.507119,0.0209 0.08792,0.0879 -0.06835,0.15046 -0.347266,0.13897 -0.308226,-0.0127 -0.370919,-0.0754 -0.159853,-0.15985 z M 7.4980457,217.8089 c -0.096432,-0.2513 0.081002,-0.64829 0.4434594,-0.99219 l 0.6042096,-0.57328 -0.4351554,0.65418 c -0.5500008,0.82684 -0.5458484,0.99788 0.027865,1.14781 0.4339403,0.1134 0.4334188,0.12293 -0.00831,0.15169 -0.2592285,0.0169 -0.5436624,-0.15781 -0.6320751,-0.38821 z m 2.9446033,0.13672 c -0.230843,-0.37351 -0.167781,-0.40901 1.065844,-0.59996 l 1.054964,-0.16329 -0.790381,0.52097 c -0.90882,0.59905 -1.089587,0.63196 -1.330427,0.24228 z m -1.3731471,-0.16575 c 0.2574308,-0.0671 0.6146183,-0.0627 0.79375,0.01 0.1791311,0.0725 -0.031494,0.12737 -0.4680564,0.12197 -0.4365625,-0.005 -0.5831248,-0.0647 -0.3256936,-0.13177 z m 24.6017911,-0.21578 c 0.109458,-0.12066 -0.0035,-0.44312 -0.250931,-0.71657 -0.664228,-0.73396 -0.698375,-1.33171 -0.05645,-0.98816 0.63288,0.3387 0.660331,0.55547 0.04222,0.3334 -0.360754,-0.12961 -0.327142,-0.0171 0.152191,0.50955 0.477276,0.52438 0.536596,0.72135 0.264583,0.87854 -0.192847,0.11145 -0.261072,0.1039 -0.151614,-0.0168 z m -28.38955,-0.54186 c -0.1853237,-0.22331 -0.4956185,-0.34512 -0.6895438,-0.27071 -0.3477192,0.13344 -1.414712,-0.7933 -1.414712,-1.22875 0,-0.1232 0.2414598,-0.0948 0.5365771,0.0632 0.2951176,0.15794 0.471769,0.39203 0.3925591,0.52019 -0.07921,0.12817 -0.00462,0.31918 0.1657617,0.42448 0.1934705,0.11957 0.2388981,0.0768 0.1209927,-0.11401 -0.1038331,-0.168 -0.069725,-0.30546 0.075796,-0.30546 0.1455208,0 0.3381679,0.11906 0.4281048,0.26458 0.3809521,0.6164 0.6214515,0.17606 0.5769089,-1.05626 -0.026257,-0.72647 -0.1370391,-1.32178 -0.2461797,-1.32292 -0.1091406,-0.001 -0.1884053,-0.32949 -0.1761435,-0.72967 0.02055,-0.67067 0.06274,-0.63962 0.5391783,0.39687 0.2842863,0.61847 0.6384684,1.12448 0.7870708,1.12448 0.1486027,0 0.1999861,0.11359 0.1141855,0.25242 -0.085801,0.13883 -0.080522,0.55315 0.011732,0.92071 0.1323673,0.5274 0.2617996,0.61796 0.6138799,0.42953 0.2453812,-0.13132 0.6104681,-0.5458 0.8113046,-0.92107 0.3497937,-0.6536 2.1274386,-1.93022 2.1274386,-1.52783 0,0.25867 -1.303828,2.16916 -1.4803617,2.16916 -0.076102,0 -0.064783,-0.11906 0.025154,-0.26459 0.3308297,-0.53529 -0.3937344,-0.24367 -1.0667518,0.42935 -0.7836136,0.78362 -0.9762771,0.67444 -1.4580497,-0.82622 -0.4202642,-1.30907 -0.6260193,-0.86618 -0.2907734,0.62588 0.2650953,1.17986 0.04008,1.6024 -0.5041276,0.94667 z m 3.9771092,-2.31577 c 0.00223,-0.11773 -0.1150109,-0.14047 -0.2605317,-0.0505 -0.1455209,0.0899 -0.2627601,0.36485 -0.2605318,0.61093 0.00349,0.38557 0.039499,0.39255 0.2605318,0.0505 0.1410642,-0.21828 0.2583034,-0.4932 0.2605317,-0.61093 z m 10.7803108,2.56774 c -0.106109,-0.10611 -0.192926,-0.37548 -0.192926,-0.59862 0,-0.29781 0.07827,-0.32742 0.294349,-0.11134 0.161892,0.16189 0.248708,0.43127 0.192925,0.59862 -0.05578,0.16735 -0.18824,0.21745 -0.294348,0.11134 z m 32.26263,-0.0165 c -0.09701,-0.097 -0.168021,-0.3649 -0.157792,-0.59531 0.01339,-0.30151 0.07658,-0.27062 0.225486,0.11025 0.153411,0.39238 0.256831,0.13015 0.4001,-1.01447 0.106265,-0.84899 0.252741,-1.48409 0.325501,-1.41133 0.195337,0.19533 -0.20456,3.08725 -0.426908,3.08725 -0.104499,0 -0.269374,-0.0794 -0.366387,-0.17639 z m -15.852952,-0.79258 c 0.181901,-0.0734 0.479557,-0.0734 0.661459,0 0.181901,0.0734 0.03307,0.13345 -0.33073,0.13345 -0.363802,0 -0.51263,-0.0601 -0.330729,-0.13345 z m 1.778797,-0.10091 c -0.08601,-0.13917 0.08877,-0.25303 0.3884,-0.25303 0.638855,0 0.703305,0.14714 0.156382,0.35701 -0.213622,0.082 -0.458774,0.0352 -0.544782,-0.10398 z m -3.279262,-0.67195 c 0.0127,-0.30823 0.07539,-0.37092 0.159851,-0.15986 0.07643,0.191 0.06703,0.4192 -0.02088,0.50712 -0.08792,0.0879 -0.150453,-0.0684 -0.138965,-0.34726 z m -3.366312,-0.43653 c -0.255225,-0.41296 0.0576,-0.47601 0.555474,-0.11196 0.42876,0.31352 0.432432,0.35005 0.03519,0.35005 -0.243935,0 -0.509736,-0.10714 -0.590666,-0.23809 z m 21.9086,-0.24739 c -0.02328,-0.38828 -0.119398,-0.92406 -0.213577,-1.19063 -0.131289,-0.3716 -0.09593,-0.41535 0.151564,-0.18757 0.181232,0.16679 0.274897,0.68895 0.213577,1.19062 -0.08879,0.72636 -0.117144,0.76145 -0.151564,0.18758 z m -17.504844,0.0601 c 0,-0.13693 0.1177,-0.32171 0.261554,-0.41062 0.149982,-0.0927 0.194337,0.0135 0.103984,0.24897 -0.175892,0.45837 -0.365538,0.54223 -0.365538,0.16165 z m 27.516667,-0.95727 c 0,-0.38401 0.114522,-0.6063 0.264583,-0.51355 0.145521,0.0899 0.264584,0.39462 0.264584,0.67707 0,0.28245 -0.119063,0.51355 -0.264584,0.51355 -0.145521,0 -0.264583,-0.30468 -0.264583,-0.67707 z m -29.36875,-0.24897 c 0,-0.3638 0.102553,-0.66146 0.227894,-0.66146 0.125341,0 0.170992,0.29766 0.101446,0.66146 -0.06955,0.3638 -0.172095,0.66146 -0.227893,0.66146 -0.0558,0 -0.101447,-0.29766 -0.101447,-0.66146 z m 0.550056,0.24254 c 0.0127,-0.30823 0.07539,-0.37092 0.15985,-0.15986 0.07643,0.191 0.06703,0.4192 -0.02087,0.50712 -0.08792,0.0879 -0.150453,-0.0683 -0.138965,-0.34726 z m 2.098963,-0.38079 c 0.33356,-0.62326 0.437787,-0.65605 0.437787,-0.13772 0,0.21202 -0.161507,0.44746 -0.358902,0.52321 -0.281519,0.10803 -0.298526,0.0249 -0.07888,-0.38549 z m 27.30147,-2.31745 c -0.04198,-1.53828 0.03099,-1.9586 0.362088,-2.08565 0.228063,-0.0875 0.542869,-0.0309 0.699571,0.12579 0.203494,0.20349 0.126275,0.24343 -0.270219,0.13974 -0.521001,-0.13624 -0.560776,-0.0255 -0.646998,1.80074 l -0.09187,1.94591 z m -0.825434,1.11073 c 0.0127,-0.30822 0.07539,-0.37091 0.159851,-0.15985 0.07643,0.191 0.06703,0.4192 -0.02088,0.50712 -0.08792,0.0879 -0.150452,-0.0683 -0.138964,-0.34727 z M 18.787904,211.5398 c 0,-0.25066 0.121331,-0.45575 0.269624,-0.45575 0.152515,0 0.207331,-0.31603 0.126206,-0.7276 -0.135734,-0.68862 -0.128937,-0.69453 0.126857,-0.11031 0.2034,0.46456 0.172172,0.75736 -0.126206,1.18335 -0.332497,0.47471 -0.396481,0.49251 -0.396481,0.11031 z m 39.422916,-0.18185 c 0,-0.15064 0.09124,-0.2739 0.202758,-0.2739 0.345697,0 2.972242,-2.5146 2.972242,-2.84557 0,-0.17205 0.178594,-0.24429 0.396875,-0.16052 0.575773,0.22094 0.488606,0.49811 -0.264583,0.84129 -0.828426,0.37745 -0.878544,0.93109 -0.06615,0.73072 0.327422,-0.0808 0.05953,0.11365 -0.595312,0.43201 -0.654844,0.31837 -1.279922,0.55501 -1.389063,0.52588 -0.109141,-0.0291 -0.198437,0.0619 -0.198437,0.2023 0,0.1404 -0.238125,0.38272 -0.529167,0.53848 -0.358772,0.19201 -0.529167,0.195 -0.529167,0.009 z m 5.336143,-0.45069 c -0.02447,-0.46104 -0.121531,-1.05636 -0.215709,-1.32292 -0.130934,-0.3706 -0.09555,-0.41503 0.150341,-0.1888 0.187407,0.17243 0.277408,0.72437 0.21571,1.32292 -0.09404,0.91235 -0.110831,0.93343 -0.150342,0.1888 z m -39.728789,-0.0818 c -0.228451,-0.42687 -0.205804,-0.49474 0.122983,-0.36857 0.221648,0.085 0.402997,0.3205 0.402997,0.52321 0,0.51681 -0.197741,0.45868 -0.52598,-0.15464 z m 42.451683,-0.54467 c -0.430647,-0.28388 -0.672944,-0.51692 -0.538438,-0.51788 0.134509,-0.001 -0.02328,-0.28684 -0.350626,-0.63529 -0.437703,-0.46591 -0.509095,-0.68675 -0.269825,-0.83463 0.1992,-0.12311 0.257689,-0.0916 0.150834,0.0813 -0.09599,0.15532 0.330102,0.70157 0.946872,1.21389 1.243981,1.03332 1.285153,1.49941 0.06118,0.6926 z m -3.367093,-1.3462 c 0.179477,-0.18083 0.39297,-0.26212 0.474432,-0.18066 0.08146,0.0815 -0.06538,0.22941 -0.326318,0.32877 -0.377085,0.14358 -0.407475,0.11319 -0.148114,-0.14811 z m -42.78384,-0.0995 c 0,-0.14552 0.115416,-0.44318 0.25648,-0.66146 0.141064,-0.21828 0.25648,-0.27781 0.25648,-0.13229 0,0.14552 -0.115416,0.44317 -0.25648,0.66145 -0.141064,0.21829 -0.25648,0.27782 -0.25648,0.1323 z m 2.074814,-0.33073 c -0.329107,-0.41965 -0.319749,-0.42901 0.0999,-0.0999 0.440729,0.34564 0.580887,0.56292 0.363126,0.56292 -0.05494,0 -0.263302,-0.20836 -0.463021,-0.46302 z m 38.348723,-0.51147 c 0.190995,-0.0764 0.419198,-0.067 0.507119,0.0209 0.08792,0.0879 -0.06835,0.15046 -0.347266,0.13897 -0.308226,-0.0127 -0.370919,-0.0754 -0.159853,-0.15985 z m 5.27513,0.006 c 0.181901,-0.0734 0.479557,-0.0734 0.661458,0 0.181901,0.0734 0.03307,0.13345 -0.330729,0.13345 -0.363802,0 -0.51263,-0.06 -0.330729,-0.13345 z m -6.548437,-0.35393 c 0,-0.14552 0.112035,-0.26458 0.248967,-0.26458 0.136933,0 0.322554,0.11906 0.412491,0.26458 0.08994,0.14552 -0.02209,0.26458 -0.248968,0.26458 -0.226869,0 -0.41249,-0.11906 -0.41249,-0.26458 z m 2.800794,-0.0115 c -0.424093,-0.12682 -0.870577,-0.16909 -0.992187,-0.0939 -0.121608,0.0752 -0.221107,-0.002 -0.221107,-0.17222 0,-0.19602 0.241707,-0.25006 0.661458,-0.14791 0.363802,0.0885 0.94946,0.23099 1.301462,0.31656 0.520649,0.12658 0.661955,0.0402 0.757719,-0.46302 0.10641,-0.55921 0.121173,-0.54874 0.153746,0.109 0.03926,0.79288 -0.2535,0.87246 -1.661091,0.45153 z m 2.116249,-0.15823 c -0.139348,-0.36313 -0.100632,-0.3795 0.236275,-0.0999 0.459116,0.38103 0.5069,0.53419 0.166656,0.53419 -0.129953,0 -0.311272,-0.19543 -0.402931,-0.4343 z m -49.25449,-0.0629 c 0.07908,-0.12796 0.390569,-0.29719 0.692195,-0.37606 0.450282,-0.11776 0.492565,-0.0761 0.236309,0.23264 -0.334543,0.4031 -1.168619,0.53193 -0.928504,0.14342 z m 4.670835,-0.18628 c 0.0127,-0.30823 0.07539,-0.37092 0.159852,-0.15986 0.07643,0.191 0.06703,0.4192 -0.02089,0.50712 -0.08792,0.0879 -0.150452,-0.0684 -0.138964,-0.34726 z m 2.855779,-0.0441 c -0.329107,-0.41965 -0.319749,-0.429 0.0999,-0.0999 0.254662,0.19972 0.463021,0.40808 0.463021,0.46302 0,0.21777 -0.217272,0.0776 -0.562916,-0.36312 z m 43.111223,0.28228 c 0.190995,-0.0764 0.419198,-0.067 0.507119,0.0209 0.08792,0.0879 -0.06835,0.15045 -0.347266,0.13896 -0.308226,-0.0127 -0.370919,-0.0754 -0.159853,-0.15985 z m -48.41875,-0.26458 c 0.190996,-0.0764 0.4192,-0.067 0.507119,0.0209 0.08792,0.0879 -0.06835,0.15046 -0.347266,0.13897 -0.308225,-0.0127 -0.370919,-0.0754 -0.159853,-0.15985 z m 46.785715,-0.79989 c -0.239971,-0.70835 0.07337,-2.58656 0.380315,-2.27962 0.120375,0.12038 0.128543,0.81388 0.01815,1.54112 -0.161309,1.06268 -0.239533,1.20766 -0.398465,0.7385 z m -45.076895,-0.3666 c 0.257722,-0.15004 0.389084,-0.4143 0.291914,-0.58726 -0.112385,-0.20004 -0.04301,-0.19012 0.190661,0.0273 0.312844,0.29105 0.30879,0.37875 -0.02733,0.59126 -0.217065,0.13723 -0.513726,0.24771 -0.659247,0.24552 -0.145521,-0.002 -0.05372,-0.12676 0.204002,-0.2768 z m 3.256513,-0.94259 c -0.115231,-0.30029 -0.04276,-0.37024 0.262291,-0.25318 0.231833,0.089 0.729277,0.16175 1.105431,0.16175 0.861508,0 0.709471,0.1418 -0.372534,0.34747 -0.618877,0.11763 -0.877311,0.0511 -0.995188,-0.25604 z m 3.021777,0.17315 c -0.621892,-0.19916 -0.609088,-0.21341 0.214052,-0.23821 0.521865,-0.0157 0.80946,0.0805 0.711989,0.23821 -0.08994,0.14552 -0.18626,0.25271 -0.214052,0.23821 -0.02779,-0.0145 -0.348187,-0.1217 -0.711989,-0.23821 z m -5.450763,-0.59531 c -0.104679,-0.1819 -0.0929,-0.24247 0.02619,-0.13459 0.119082,0.10788 0.379021,0.0613 0.577643,-0.10357 0.285407,-0.23687 0.326185,-0.20864 0.194474,0.13459 -0.19844,0.51713 -0.535172,0.56081 -0.798304,0.10357 z m -1.784272,-0.41771 c -0.240835,-0.26612 -0.437882,-0.56378 -0.437882,-0.66146 0,-0.27633 0.743228,-0.20882 0.924169,0.0839 0.09666,0.15639 -0.03004,0.19154 -0.315114,0.0874 -0.442458,-0.1616 -0.440496,-0.13282 0.02726,0.3999 0.277215,0.31572 0.444496,0.57403 0.371736,0.57403 -0.07276,0 -0.329339,-0.21773 -0.570174,-0.48385 z m 3.022589,-1.52257 c 0.0127,-0.30822 0.07539,-0.37092 0.159853,-0.15985 0.07643,0.19099 0.06703,0.4192 -0.02089,0.50712 -0.08792,0.0879 -0.150453,-0.0684 -0.138964,-0.34727 z m 0.431685,-0.37456 c -0.07607,-0.2909 -0.03043,-0.59558 0.101433,-0.67708 0.13186,-0.0815 0.239744,0.15652 0.239744,0.52891 0,0.81069 -0.150797,0.87618 -0.341177,0.14817 z"
         id="path6364"
         inkscape:connector-curvature="0" />
    </g>
  </g>
</svg>
