<?xml version="1.0" encoding="UTF-8" standalone="no"?>
<!-- Created with Inkscape (http://www.inkscape.org/) -->

<svg
   xmlns:dc="http://purl.org/dc/elements/1.1/"
   xmlns:cc="http://creativecommons.org/ns#"
   xmlns:rdf="http://www.w3.org/1999/02/22-rdf-syntax-ns#"
   xmlns:svg="http://www.w3.org/2000/svg"
   xmlns="http://www.w3.org/2000/svg"
   xmlns:sodipodi="http://sodipodi.sourceforge.net/DTD/sodipodi-0.dtd"
   xmlns:inkscape="http://www.inkscape.org/namespaces/inkscape"
   version="1.1"
   id="svg2949"
   width="283"
   height="443"
   viewBox="0 0 283 443"
   sodipodi:docname="feu121.svg"
   inkscape:version="0.92.4 (5da689c313, 2019-01-14)">
  <metadata
     id="metadata2955">
    <rdf:RDF>
      <cc:Work
         rdf:about="">
        <dc:format>image/svg+xml</dc:format>
        <dc:type
           rdf:resource="http://purl.org/dc/dcmitype/StillImage" />
        <dc:title></dc:title>
      </cc:Work>
    </rdf:RDF>
  </metadata>
  <defs
     id="defs2953" />
  <sodipodi:namedview
     pagecolor="#ffffff"
     bordercolor="#666666"
     borderopacity="1"
     objecttolerance="10"
     gridtolerance="10"
     guidetolerance="10"
     inkscape:pageopacity="0"
     inkscape:pageshadow="2"
     inkscape:window-width="1280"
     inkscape:window-height="972"
     id="namedview2951"
     showgrid="false"
     inkscape:zoom="1.5067919"
     inkscape:cx="133.12378"
     inkscape:cy="221.34636"
     inkscape:window-x="-8"
     inkscape:window-y="-8"
     inkscape:window-maximized="1"
     inkscape:current-layer="g534"
     showguides="true" />
  <g
     id="g151"
     transform="translate(25.882805,-2.654647)">
    <g
       id="g534"
       transform="translate(-21.900834,-45.792654)">
      <g
         id="g769"
         transform="translate(7.9639399,-1.3273235)">
        <path
           style="fill:#ff00ff"
           d="m 130.56489,477.67786 c -3.44146,-3.44146 -3.6843,-5.88272 -0.88412,-8.88835 2.01746,-2.16549 6.10785,-2.83693 9.45586,-1.55219 3.98486,1.52914 3.6123,10.16556 -0.53426,12.38473 -3.00651,1.60903 -4.95577,1.13752 -8.03748,-1.94419 z m 20.07692,0.22911 c -4.23459,-1.51342 -5.29705,-7.53668 -1.96104,-11.11746 2.58019,-2.76952 6.8912,-2.81795 10.32618,-0.11598 6.32392,4.97438 -0.44485,14.06408 -8.36514,11.23344 z m -40.54545,-2.76057 c -4.88748,-4.88747 -2.18688,-11.54545 4.68306,-11.54545 4.24384,0 6.5407,1.61957 7.40975,5.22483 0.52827,2.19153 0.0647,3.31691 -2.36835,5.75 -3.6662,3.6662 -6.46467,3.83042 -9.72446,0.57062 z m 55.30816,-9.11077 c -7.14968,-3.87938 -2.60152,-14.65244 5.50174,-13.03179 6.06112,1.21222 7.92267,8.73156 3.10069,12.52453 -3.08849,2.4294 -4.86669,2.53426 -8.60243,0.50726 z m -71.690129,-3.06954 c -2.76854,-3.51963 -2.61371,-6.91492 0.4553,-9.98393 2.08602,-2.08602 3.09091,-2.40421 5.74906,-1.82038 6.386129,1.40263 8.010319,6.19357 4.132279,12.18917 -2.13253,3.29699 -7.600639,3.09339 -10.336639,-0.38486 z m 30.466669,-12.50088 c -2.11404,-2.51238 -2.50633,-3.75479 -1.97342,-6.25 0.9622,-4.50533 2.21953,-5.61426 6.36549,-5.61426 4.85711,0 6.98425,1.70488 7.71043,6.1798 0.49733,3.06465 0.1697,4.09965 -1.97737,6.24672 -3.49286,3.49286 -6.87082,3.30528 -10.12513,-0.56226 z m 52.46276,-0.86212 c -5.40013,-5.78085 -3.0686,-12.00214 4.49799,-12.00214 3.39936,0 4.73694,0.50018 5.9433,2.22251 3.30664,4.72089 0.91405,11.01576 -4.69129,12.34275 -2.25176,0.53307 -3.2901,0.0702 -5.75,-2.56312 z M 144.26473,447.081 c -2.26665,-2.26664 -2.04921,-7.64537 0.41604,-10.29149 2.39671,-2.57257 4.94985,-2.76284 8.99621,-0.67037 6.53569,3.37974 3.98632,11.70319 -3.76222,12.2833 -2.70519,0.20253 -4.55984,-0.23125 -5.65003,-1.32144 z m -59.597483,-1.45461 c -3.16498,-3.16498 -3.519848,-6.52236 -1.055243,-9.98359 2.101841,-2.95175 3.346307,-3.46357 7.529807,-3.09683 2.76997,0.24283 5.5,3.73275 5.5,7.03091 0,6.62997 -7.56984,10.45423 -11.974564,6.04951 z m 24.289933,-4.03242 c -4.90642,-1.97684 -5.90671,-9.59611 -1.69477,-12.90922 3.04678,-2.3966 6.61908,-1.96573 10.1294,1.22174 3.00927,2.73253 2.92176,7.11361 -0.20455,10.2399 -2.56725,2.56725 -4.57473,2.92035 -8.23008,1.44758 z m 71.24133,-10.21553 c -4.40329,-6.28659 0.35474,-13.09873 7.42699,-10.63333 3.41919,1.19193 5.01631,3.49493 5.01631,7.23338 0,5.25568 -9.35342,7.81136 -12.4433,3.39995 z m -25.09142,0.27098 c -7.65609,-3.10332 -6.10936,-13.5765 1.97123,-13.34744 4.69032,0.13296 7.56804,2.68882 7.54818,6.70396 -0.0181,3.65458 -0.72442,4.89542 -3.66895,6.44531 -2.49905,1.31538 -3.04831,1.334 -5.85046,0.19817 z m -70.942451,-3.61993 c -3.633356,-1.88633 -4.487683,-3.13839 -4.507515,-6.60597 -0.02263,-3.95591 4.461493,-7.16917 8.981097,-6.43574 4.50177,0.73054 6.29783,3.1464 5.60848,7.54391 -0.90841,5.79486 -5.10355,8.08249 -10.082062,5.4978 z m 46.496881,-0.713 c -4.39926,-2.22591 -6.34405,-8.52215 -3.73462,-12.09075 2.02174,-2.7649 8.73162,-3.2416 11.70764,-0.83177 3.42795,2.77578 3.49636,9.58276 0.12376,12.31373 -2.72071,2.20309 -4.65795,2.34875 -8.09678,0.60879 z m -23.73046,-5.96554 c -3.24193,-3.54201 -3.58902,-6.0992 -1.23419,-9.09287 4.17524,-5.30796 13.94494,-2.20097 13.94494,4.43481 0,6.56754 -8.20945,9.57602 -12.71075,4.65806 z m 71.06952,-9.30032 c -5.68198,-5.68198 1.66954,-14.13578 8.95697,-10.29998 2.95989,1.55797 3.65095,2.79047 3.66895,6.5436 0.0295,6.1546 -7.87577,8.50653 -12.62592,3.75638 z m -28.13626,-0.006 c -2.69022,-1.88431 -3.04285,-7.82709 -0.66581,-11.22079 2.18431,-3.11854 7.36421,-3.00005 10.40623,0.23802 1.88936,2.01113 2.19934,3.15209 1.69715,6.24672 -0.33793,2.0824 -1.3857,4.35016 -2.32838,5.03947 -2.33964,1.71078 -6.42792,1.57461 -9.10919,-0.30342 z m -65.000003,-5 c -1.631609,-1.14321 -2.222506,-2.56429 -2.222506,-5.3454 0,-6.53375 5.8109,-9.41789 11.48475,-5.70023 1.88873,1.23755 2.51525,2.51412 2.51525,5.125 0,6.38529 -6.47014,9.63766 -11.777494,5.92025 z m 28.917773,-2.52311 c -6.71611,-7.20889 1.47205,-16.94597 9.16297,-10.89629 3.30412,2.59902 3.54713,6.6253 0.62417,10.34124 -2.56581,3.2619 -7.02949,3.51505 -9.78714,0.55505 z m 20.07891,-3.47008 c -5.17901,-2.1776 -5.05484,-10.20098 0.19488,-12.59291 3.69019,-1.68136 8.97749,1.63605 9.39584,5.89523 0.6189,6.30089 -3.57268,9.22808 -9.59072,6.69768 z m 37.03081,-4.39405 c -3.08755,-2.57574 -3.10265,-8.34581 -0.0275,-10.49974 4.27978,-2.99767 10.53937,-1.31002 10.91687,2.9433 0.42479,4.78618 -0.23938,6.50035 -3.08972,7.97432 -3.77704,1.95318 -5.03846,1.8856 -7.79966,-0.41788 z m -76.525909,-6.46743 c -2.1329,-1.61824 -2.60373,-7.82419 -0.76196,-10.04338 2.70584,-3.26034 11.776299,-1.18785 12.148559,2.7758 0.31574,3.36175 -0.42868,6.31256 -1.87405,7.42857 -2.11448,1.63265 -7.263309,1.5455 -9.512549,-0.16099 z m 61.545629,-5.36125 c -1.22666,-0.95027 -2.51445,-3.16043 -2.86175,-4.91147 -0.51638,-2.60352 -0.14211,-3.67306 2.05375,-5.86892 2.24584,-2.24584 3.27546,-2.58943 6.29249,-2.09983 4.7626,0.77286 6.64579,2.83208 6.64579,7.26701 0,6.37257 -6.98043,9.60272 -12.13028,5.61321 z m -41.61473,-4.0565 c -3.64635,-4.02917 -0.68825,-12.17126 4.42193,-12.17126 1.14231,0 3.42367,1.34674 5.06969,2.99275 3.19118,3.19118 3.2128,5.68975 0.0801,9.25725 -2.02318,2.30399 -7.45584,2.2593 -9.57174,-0.0787 z m 20.51932,-2.48571 c -4.69362,-4.99614 -1.62695,-11.68555 5.35707,-11.68555 4.25656,0 6.40953,1.86102 7.10403,6.14071 0.46602,2.87176 0.14656,4.07732 -1.52284,5.74672 -2.89764,2.89764 -8.1169,2.80131 -10.93826,-0.20188 z m 82.32569,-254.42785 c -6.12482,-2.2161 -11.18762,-5.63465 -15.19145,-10.25771 -4.50495,-5.20166 -6.20196,-9.1297 -7.4376,-17.215734 -0.94098,-6.157793 -0.85537,-8.160011 0.55363,-12.947266 4.45919,-15.150643 19.73767,-25.150156 35.85376,-23.465692 8.30739,0.868295 13.7649,3.748733 19.83256,10.467496 7.18565,7.956739 8.21475,10.779107 8.26417,22.665117 0.035,8.412359 -0.31968,10.750219 -2.22926,14.694869 -2.87109,5.9309 -8.56766,11.65854 -14.58338,14.66293 -6.48279,3.23766 -18.17285,3.88881 -25.06243,1.39599 z"
           id="path775"
           inkscape:connector-curvature="0"
           sodipodi:nodetypes="scccscccccsscccscccssccccscsccsccccccscsccssssccsccsccscccscscsscscsccscsccscscccccscscccssccsccccsccccccsccsscsccscccccscscccssscccsc" />
        <path
           style="fill:#00ff00"
           d="m 114.09636,339.1464 c -3.21878,-3.21878 -3.31271,-8.40058 -0.20455,-11.28449 2.38356,-2.21159 3.58715,-2.56957 8,-2.37944 6.4041,0.27592 9.29863,9.37554 4.43555,13.94417 -3.26578,3.06803 -9.01445,2.93632 -12.231,-0.28024 z m 26.95883,-0.11399 c -3.63589,-1.79404 -6.47972,-7.02816 -5.39599,-9.93146 1.33722,-3.5824 4.91568,-5.95455 8.98261,-5.95455 9.93856,0 12.16727,13.10898 2.78479,16.37973 -1.69578,0.59115 -3.12859,1.06457 -3.18401,1.05205 -0.0554,-0.0125 -1.48976,-0.70812 -3.1874,-1.54577 z m -49.373319,-4.23755 c -2.48956,-2.48957 -3.04006,-3.85818 -3.04006,-7.55797 0,-4.90904 0.51094,-5.51072 5.66719,-6.67365 7.824239,-1.76466 13.215469,2.51918 11.912339,9.46546 -0.73724,3.92984 -3.34891,6.17613 -8.341739,7.17469 -2.63747,0.52749 -3.65848,0.13071 -6.19773,-2.40853 z m 71.270569,-2.96615 c -4.56338,-3.60123 -4.20083,-11.19894 0.6542,-13.70957 6.44642,-3.33358 11.78967,-0.76745 12.71142,6.10475 0.50735,3.78258 0.28062,4.30817 -2.90738,6.73978 -3.98995,3.04329 -7.34625,3.3209 -10.45824,0.86504 z m -96.238049,-7.86262 c -4.588698,-5.83358 -0.966702,-13.36514 6.42742,-13.36514 6.574599,0 10.301742,5.74858 7.336657,11.31574 -1.778368,3.339 -3.980751,4.61757 -8.014077,4.65246 -2.804033,0.0242 -4.169657,-0.59398 -5.75,-2.60306 z m 119.947129,-3.65673 c -1.36416,-0.68631 -3.04503,-2.36396 -3.73526,-3.72812 -3.17134,-6.26778 0.0153,-11.98029 6.68308,-11.98029 8.03908,0 11.42266,8.8593 5.39723,14.13171 -2.79202,2.4431 -5.57699,2.96929 -8.34505,1.5767 z m -57.33262,-4.51313 c -3.69241,-3.85405 -3.71563,-9.24107 -0.0522,-12.1227 8.51299,-6.69632 19.35469,4.66514 11.72878,12.29106 -3.60339,3.60338 -8.12545,3.53818 -11.67655,-0.16836 z m -23.19745,-2.38996 c -4.98822,-5.92816 -1.27315,-13.77435 6.51036,-13.74981 4.78494,0.0151 8.05906,2.96593 8.71473,7.85428 0.44223,3.29713 0.1089,4.35749 -2.0478,6.51419 -3.88105,3.88105 -9.61766,3.61172 -13.17729,-0.61866 z m 44.65638,-2.66029 c -1.6519,-1.27051 -2.50549,-3.15463 -2.86195,-6.31713 -0.45349,-4.02331 -0.21338,-4.73835 2.23884,-6.66726 7.4548,-5.86395 17.26077,1.42162 13.85591,10.29456 -0.78187,2.03753 -5.55144,4.55184 -8.57916,4.52256 -1.26481,-0.0122 -3.35895,-0.83696 -4.65364,-1.83273 z M 46.266511,309.73874 c -2.879023,-3.18129 -3.825516,-8.18237 -2.058862,-10.87863 3.118923,-4.76007 11.066682,-5.71755 14.979617,-1.80462 3.237506,3.23751 3.187326,7.52114 -0.134349,11.46873 -2.144158,2.54818 -3.320035,3.07673 -6.845012,3.07673 -2.881151,0 -4.800558,-0.60161 -5.941394,-1.86221 z m 37.797673,-3.3759 c -3.214061,-1.68955 -4.423879,-3.94968 -4.390948,-8.20303 0.04225,-5.45765 3.349306,-8.0394 9.279145,-7.24404 4.91793,0.65963 6.68943,2.74544 6.68943,7.8763 0,3.82217 -2.59713,7.723 -5.25,7.88538 -0.6875,0.0421 -1.95993,0.21589 -2.827627,0.38622 -0.867694,0.17034 -2.442694,-0.14504 -3.5,-0.70083 z m 116.333366,-2.7394 c -4.84971,-3.81477 -3.69505,-11.95447 2.00312,-14.12092 3.2571,-1.23834 6.07614,-0.6058 9.57866,2.14927 3.46251,2.72361 3.49018,6.81205 0.0736,10.87243 -3.10415,3.68908 -7.79991,4.13193 -11.65537,1.09922 z m -31.7667,-6.27249 c -2.63901,-4.32831 -2.50345,-7.3265 0.46551,-10.29546 1.76203,-1.76202 3.52537,-2.44558 6.25,-2.42275 6.53214,0.0547 9.88145,4.26202 8.2105,10.31372 -1.18508,4.29197 -3.32095,5.65449 -8.86401,5.65449 -3.53043,0 -4.34753,-0.43808 -6.062,-3.25 z m -105.624957,-2.9196 c -4.271542,-2.06831 -5.84874,-10.17683 -2.558662,-13.15432 1.772686,-1.60426 12.595931,-3.13451 11.679242,-1.65127 -0.254452,0.41171 0.178479,1.28065 0.96207,1.93097 4.222788,3.5046 1.865789,12.33171 -3.583822,13.42163 -3.766024,0.7532 -3.823603,0.74836 -6.498828,-0.54701 z m -34.441005,-2.75349 c -5.904597,-5.90459 -2.289671,-14.07691 6.22675,-14.07691 7.826886,0 12.245118,7.05534 8.158137,13.02749 -2.370865,3.46445 -3.287983,3.9398 -7.634887,3.9572 -2.908695,0.0116 -4.528284,-0.68606 -6.75,-2.90778 z m 101.030662,0.0307 c -2.2625,-2.26254 -2.95374,-3.86708 -2.95374,-6.85638 0,-7.8245 7.90545,-10.71456 13.9372,-5.09513 1.88284,1.75413 2.1926,2.8395 1.75067,6.1343 -0.60628,4.52018 -2.87838,7.16143 -6.98413,8.11886 -2.2547,0.52576 -3.36832,0.08 -5.75,-2.30169 z m -23.76404,-2.40567 c -1.18741,-1.26395 -2.44114,-3.70912 -2.78606,-5.43371 -1.35127,-6.75638 7.98277,-10.89851 13.9615,-6.19563 3.46983,2.72936 3.69987,8.8573 0.4463,11.88846 -3.06423,2.85476 -8.81689,2.7265 -11.62174,-0.25912 z m 109.3066,-2.95195 c -2.06511,-1.77672 -2.62809,-3.18563 -2.67638,-6.69797 -0.0514,-3.73584 0.39844,-4.81572 2.80946,-6.74502 4.90108,-3.92186 10.90858,-2.25092 13.38277,3.72233 3.54118,8.54915 -6.49107,15.76439 -13.51585,9.72066 z m -66.34644,-2.09049 c -3.13172,-3.33356 -3.16029,-8.95168 -0.0624,-12.26454 2.04322,-2.185 3.02453,-2.49867 6.41094,-2.04926 7.81274,1.03681 11.19901,9.24987 5.85554,14.20204 -3.55442,3.29411 -9.16617,3.34551 -12.20412,0.11176 z m -61.293794,-1.16351 c -3.338019,-1.82906 -4.805216,-5.9592 -3.653846,-10.28551 0.919716,-3.45587 3.761795,-5.21049 8.439801,-5.21049 3.28485,0 8.357979,5.07878 8.357979,8.3673 0,5.76231 -7.858889,10.02463 -13.143934,7.1287 z m 99.019034,-0.39607 c -1.81562,-1.47019 -2.3222,-2.826 -2.23916,-5.99286 0.17746,-6.76768 4.76209,-10.12091 11.01578,-8.05701 3.8528,1.27154 5.34828,3.48881 5.34828,7.92964 0,6.73707 -8.70509,10.50893 -14.1249,6.12023 z M 47.094062,274.95492 c -3.451365,-3.72408 -3.262589,-8.20344 0.497542,-11.80588 2.526193,-2.42025 3.495515,-2.73868 6.75,-2.21749 4.652301,0.74503 7.300207,3.76488 7.300207,8.32563 0,7.60809 -9.374552,11.27972 -14.547749,5.69774 z m 119.901698,-2.72595 c -2.10677,-1.81217 -2.73377,-3.21222 -2.65667,-5.93224 0.1293,-4.56137 0.81667,-5.59476 4.83941,-7.27557 9.91007,-4.14069 16.7441,9.37146 7.06324,13.96533 -4.55291,2.1605 -5.99051,2.04273 -9.24598,-0.75752 z M 16.743629,270.70276 c -6.256545,-6.25655 -0.892164,-16.78538 7.861744,-15.43049 6.761625,1.04655 9.397509,9.489 4.584187,14.68265 -3.068512,3.31099 -9.49655,3.69723 -12.445931,0.74784 z M 123.09636,267.1464 c -3.61399,-3.61398 -3.35397,-8.61085 0.62218,-11.95656 3.8598,-3.24781 7.31097,-3.29211 10.46872,-0.13435 5.17392,5.17391 1.60102,14.54546 -5.54545,14.54546 -1.94837,0 -3.99822,-0.90731 -5.54545,-2.45455 z m -53.225589,0.78526 c -1.68212,-0.6768 -4.22896,-5.69134 -4.22896,-8.3265 0,-6.08702 10.598388,-9.49842 14.961045,-4.81566 2.016658,2.16463 2.714081,7.29515 1.273642,9.3694 -2.40637,3.46524 -8.22529,5.29379 -12.005727,3.77276 z m 154.203749,-3.63493 c -3.77846,-3.25011 -3.99934,-9.99007 -0.41758,-12.74208 3.47294,-2.66841 9.94346,-2.57258 12.91003,0.1912 1.94674,1.81366 2.22281,2.84998 1.78767,6.71054 -0.88143,7.82 -8.40255,10.89601 -14.28012,5.84034 z m -119.413,0.0439 c -7.467279,-3.85097 -5.126969,-14.73969 3.168,-14.73969 4.36574,0 9.24253,5.12428 8.35133,8.77518 -1.33381,5.46411 -6.90059,8.3465 -11.51933,5.96454 z m 95.05702,-2.3286 c -2.56505,-2.15833 -3.07673,-3.3104 -3.07673,-6.9274 0,-3.49591 0.51173,-4.74106 2.63486,-6.41111 1.44917,-1.13992 3.59904,-2.07258 4.77749,-2.07258 2.13786,0 6.43037,2.43757 7.82234,4.44204 2.64007,3.80176 -2.23635,13.55797 -6.77665,13.55797 -1.26753,0 -3.68912,-1.16501 -5.38131,-2.58889 z m -57.15365,-1.33419 c -3.0766,-3.0766 -3.54266,-5.31711 -1.96771,-9.45952 1.55166,-4.08118 4.96746,-5.75362 9.30511,-4.55592 7.25177,2.00231 8.76026,8.11778 3.33952,13.53852 -4.16709,4.16709 -6.86619,4.28766 -10.67692,0.47692 z M 37.096356,255.14639 c -5.105788,-5.10578 -1.605047,-14.54545 5.394245,-14.54545 1.881528,0 4.087857,1.07254 6.129387,2.97961 2.763949,2.58192 3.097338,3.41614 2.497792,6.25 -1.590953,7.51997 -9.006066,10.33121 -14.021424,5.31584 z m 145.045454,-0.36006 c -5.8428,-1.14479 -7.61978,-9.15652 -3.04545,-13.73084 3.24494,-3.24494 7.2004,-3.15931 10.74073,0.23254 6.12266,5.86588 0.8203,15.16676 -7.69528,13.4983 z m -95.976925,-5.43539 c -3.77034,-3.27735 -3.83517,-9.22463 -0.135249,-12.40717 3.187095,-2.74143 4.665065,-2.88396 8.632195,-0.83248 5.806849,3.00284 6.674759,8.8858 1.90325,12.90076 -3.78304,3.18322 -7.00715,3.28828 -10.400196,0.33889 z m 35.931475,-2.20455 c -3.30246,-3.30245 -3.1387,-7.01515 0.46853,-10.62237 3.14556,-3.14556 5.52278,-3.58831 9.51065,-1.77132 3.04692,1.38827 3.97104,3.87711 3.12133,8.40644 -1.19176,6.35263 -8.50829,8.57948 -13.10051,3.98725 z m -109.152189,0.44276 c -3.636748,-1.46457 -5.41294,-6.01795 -4.063121,-10.41606 1.469469,-4.78797 5.017549,-6.75469 10.112728,-5.60554 6.810523,1.53603 8.903407,5.58563 6.023371,11.65485 -2.290876,4.82768 -6.841408,6.47357 -12.072978,4.36675 z m 44.440054,-0.75104 c -3.311137,-2.05279 -4.145088,-4.27719 -3.297474,-8.79537 0.778909,-4.15194 3.837099,-6.4418 8.603252,-6.4418 8.283778,0 11.212117,11.74555 3.874364,15.54005 -3.635604,1.88004 -5.772848,1.80953 -9.180142,-0.30288 z m 101.614585,-0.22875 c -5.44094,-2.19569 -6.9965,-9.45983 -2.90245,-13.55387 5.02692,-5.02692 13.55933,-1.64173 13.53014,5.36803 -0.0175,4.19411 -0.51046,5.12665 -3.9572,7.48538 -2.74179,1.87632 -3.54713,1.96089 -6.67049,0.70046 z m -51.857,-3.16315 c -4.90445,-2.68253 -5.91672,-7.77448 -2.42742,-12.21041 2.52282,-3.20725 8.68552,-3.69614 11.15415,-0.88486 3.81356,4.34287 2.88384,10.96733 -1.84137,13.12028 -3.04275,1.38637 -4.31338,1.38176 -6.88536,-0.025 z m 126.84927,-0.62154 c -5.61452,-2.6597 -7.07191,-9.592 -2.89472,-13.76918 6.64568,-6.64569 17.22604,1.65973 13.51809,10.6115 -0.6684,1.61367 -1.27616,2.93395 -1.35056,2.93395 -0.0744,0 -1.48231,0.38616 -3.12868,0.85814 -2.10497,0.60346 -3.92852,0.41516 -6.14413,-0.63441 z m -25.84927,-0.35429 c -3.40848,-1.90549 -4.5,-4.07532 -4.5,-8.94556 0,-4.98005 1.57441,-6.85158 6.90322,-8.20597 5.27451,-1.34058 11.37479,5.68008 9.65196,11.10822 -1.4969,4.71633 -8.31498,8.13426 -12.05518,6.04331 z m -68.18463,-2.85489 c -2.81907,-1.16361 -4.31537,-4.02686 -4.31537,-8.25768 0,-4.67021 1.88625,-6.80321 6.53509,-7.38997 7.74317,-0.97733 12.33086,7.31411 7.21491,13.03969 -2.58307,2.89087 -6.27607,3.91171 -9.43463,2.60796 z m 45.33065,-5.4668 c -2.09331,-1.94002 -2.64602,-3.37662 -2.64602,-6.87756 0,-2.43391 0.56502,-4.89422 1.25559,-5.46735 3.75889,-3.1196 11.68838,-2.04456 13.78263,1.86857 2.54377,4.75308 0.45304,10.03092 -4.7585,12.01234 -3.6149,1.37438 -4.73695,1.14861 -7.6337,-1.536 z m -152.191474,-3.0023 c -3.515409,-3.5154 -3.424347,-9.74217 0.191478,-13.0932 3.509684,-3.25266 6.85857,-3.1015 10.4309,0.47083 4.520593,4.52059 3.97709,10.96339 -1.148444,13.61391 -4.043564,2.091 -6.665839,1.81656 -9.473934,-0.99154 z m 45.09551,-0.42681 c 0.208634,-0.20975 -0.279778,-1.32238 -1.08536,-2.47251 -3.074208,-4.38904 -0.760783,-10.65006 4.629466,-12.52911 5.41442,-1.88748 9.905839,1.26331 9.905839,6.94907 0,5.17023 -4.505671,9.08604 -10.011597,8.70093 -2.099725,-0.14686 -3.646982,-0.43863 -3.438348,-0.64838 z m 44.609124,-2.1834 c -6.60156,-2.6453 -8.15065,-10.27251 -3.05342,-15.03403 4.81859,-4.50124 10.6549,-3.32228 13.7772,2.78305 1.88353,3.68306 1.26554,6.36724 -2.28296,9.91574 -3.57145,3.57145 -4.62698,3.86348 -8.44082,2.33524 z m -23.843809,-2.92673 c -2.82486,-1.15819 -4.31537,-4.02075 -4.31537,-8.28778 0,-5.46762 4.41532,-8.27318 10.413639,-6.61696 3.94179,1.08838 5.58972,3.3272 5.57977,7.58049 -0.0145,6.20825 -5.70112,9.77477 -11.678039,7.32425 z m -90.24279,-3.64337 c -2.02449,-2.57372 -2.695707,-7.57772 -1.451399,-10.82034 1.184397,-3.08648 5.987713,-4.7272 10.378171,-3.54497 4.518408,1.21668 6.000648,3.31132 6.000648,8.47988 0,5.07113 -3.595575,8.52029 -8.881965,8.52029 -3.100891,0 -4.427774,-0.57831 -6.045455,-2.63486 z m 45.54243,0.17004 c -2.266838,-3.45963 -2.050351,-8.69077 0.471692,-11.39787 1.685956,-1.80966 2.972696,-2.18196 6.700119,-1.93856 4.013085,0.26205 4.861098,0.72671 6.51679,3.57084 3.525613,6.05625 -0.375414,12.23041 -7.727556,12.23041 -3.515744,0 -4.654576,-0.47089 -5.961045,-2.46482 z m 104.955229,-0.45756 c -0.95685,-1.05732 -1.98824,-3.77519 -2.29198,-6.03973 -0.7029,-5.24049 2.348,-9.03789 7.2612,-9.03789 7.29006,0 11.30837,7.27408 7.45899,13.50251 -1.92317,3.11176 -2.63178,3.49749 -6.42502,3.49749 -2.93608,0 -4.8051,-0.59851 -6.00319,-1.92238 z m -18.93538,-2.1502 c -2.13999,-1.68332 -2.63486,-2.90688 -2.63486,-6.5147 0,-3.92975 0.37486,-4.67558 3.25,-6.46623 6.09009,-3.79293 12.75,-0.28811 12.75,6.70976 0,7.07743 -7.72944,10.70423 -13.36514,6.27117 z m 92.55484,-0.22549 c -4.49871,-4.78866 -3.39081,-12.14784 2.10321,-13.9706 5.96216,-1.97807 11.70709,1.8565 11.70709,7.81412 0,7.36497 -8.93361,11.34747 -13.8103,6.15648 z m -26.73515,-3.15648 c -3.09383,-3.09382 -3.25927,-8.25269 -0.38197,-11.91059 2.09576,-2.66432 4.99472,-3.25921 9.71747,-1.9941 5.41915,1.45166 6.19396,10.81031 1.18999,14.37345 -3.75685,2.67512 -7.55058,2.50616 -10.52549,-0.46876 z m -23.67629,-4.22933 c -2.41049,-0.63265 -3.84731,-6.48215 -2.6539,-10.80435 1.16568,-4.22174 3.95909,-5.9063 8.40958,-5.07138 5.14943,0.96604 7.86606,3.69558 7.86606,7.90343 0,6.72689 -5.68645,10.05496 -13.62174,7.9723 z m -99.716827,-2.06612 c -2.523766,-2.04459 -4.203544,-8.24467 -2.876276,-10.61637 1.392823,-2.48884 6.723208,-4.87344 9.394874,-4.2029 6.50909,1.63368 8.345,8.79808 3.49689,13.64619 -3.33065,3.33066 -6.844265,3.7422 -10.015488,1.17308 z m -48.415409,-2.70225 c -3.918688,-3.63172 -3.724907,-9.46214 0.430702,-12.95885 4.031898,-3.39261 7.374958,-3.29106 11.000198,0.33419 4.67914,4.67914 3.713477,10.5384 -2.225085,13.50094 -4.324399,2.15729 -6.116613,1.9867 -9.205815,-0.87628 z m 72.528286,0.1378 c -4.95886,-5.27847 -0.83973,-13.68555 6.70536,-13.68555 4.82054,0 8.12033,3.47938 8.12033,8.56228 0,6.69366 -10.07847,10.17645 -14.82569,5.12327 z m 20.87344,-0.63488 c -0.79874,-0.50529 -1.73624,-0.74319 -2.08334,-0.52868 -0.34709,0.21452 -0.64754,-0.15267 -0.66766,-0.81598 -0.0201,-0.6633 -0.36552,-2.86856 -0.76756,-4.90057 -1.00373,-5.07317 2.53667,-8.80544 8.35278,-8.80544 7.30241,0 10.81288,8.39605 5.66348,13.54545 -2.55558,2.55559 -7.6766,3.28987 -10.4977,1.50522 z m -67.124672,-5.97375 c -3.515691,-3.51569 -3.82389,-7.662 -0.850497,-11.44206 1.681474,-2.13765 2.908057,-2.63486 6.5,-2.63486 5.807468,0 8.42742,2.50192 8.42742,8.04775 0,8.1764 -8.352365,11.75373 -14.076923,6.02917 z m 92.326922,-0.066 c -2.96759,-1.80937 -3.25,-2.41509 -3.25,-6.97058 0,-4.51328 0.28134,-5.1345 2.95034,-6.5147 6.42495,-3.32247 13.04966,-0.21936 13.04966,6.11264 0,4.74437 -1.36705,6.94538 -5.12811,8.2565 -4.05584,1.41387 -3.80578,1.44287 -7.62189,-0.88386 z m -136.477997,0.2004 c -3.436015,-0.42814 -6.772002,-4.57749 -6.772002,-8.4231 0,-4.08509 4.816468,-8.78822 9,-8.78822 2.152497,0 4.081926,0.92808 6.076923,2.92308 3.292054,3.29205 3.521122,4.70983 1.530646,9.47371 -1.511762,3.61816 -5.14885,5.39852 -9.835567,4.81453 z m 77.300578,-7.84618 c -4.27256,-5.43168 -1.04089,-13.36514 5.44424,-13.36514 7.237359,0 11.124389,7.32005 7.126789,13.42116 -1.39279,2.12568 -2.46367,2.57884 -6.09408,2.57884 -3.567039,0 -4.798389,-0.50092 -6.476949,-2.63486 z m 106.999999,-1 c -2.27109,-2.88723 -2.59994,-5.84788 -1.09051,-9.81797 1.26035,-3.31497 4.74043,-4.62467 9.46008,-3.56022 4.85085,1.09406 6.73399,3.56235 6.1134,8.01305 -1.03002,7.38702 -10.21587,10.78987 -14.48297,5.36514 z m 28.42742,1.48013 c -3.2442,-1.77444 -4.5,-3.99232 -4.5,-7.94751 0,-2.92629 0.65644,-4.27233 3.07673,-6.30887 3.67432,-3.09173 5.39386,-3.2091 9.58398,-0.65415 3.90324,2.38003 4.74845,4.83203 3.39641,9.85315 -1.45667,5.40966 -6.71004,7.70852 -11.55712,5.05738 z m -117.04545,-6.29982 c -5.33247,-5.33247 -1.88883,-14.54545 5.43682,-14.54545 3.51751,0 9.10863,4.5276 9.10863,7.37602 0,4.54038 -5.25568,9.62398 -9.94975,9.62398 -1.17764,0 -3.2457,-1.10455 -4.5957,-2.45455 z m 59.9977,-0.19147 c -2.80587,-3.02759 -3.02533,-5.04663 -1.05986,-9.75068 2.40269,-5.75044 10.49265,-5.67656 13.88197,0.12678 4.94833,8.4727 -6.16117,16.81116 -12.82211,9.6239 z m -39.37967,-0.98884 c -2.49367,-3.17018 -2.76477,-9.5301 -0.50265,-11.79221 3.08949,-3.08949 8.75405,-3.2514 12.7029,-0.36308 0.97506,0.71319 2.04305,2.96186 2.37332,4.99704 0.51976,3.20295 0.191,4.10981 -2.44591,6.74672 -4.04447,4.04447 -9.13414,4.21718 -12.12766,0.41153 z m -89.026188,-3.1649 c -7.582915,-7.58292 0.509874,-19.58379 9.923581,-14.71577 3.656034,1.89061 5.397868,5.74124 4.576813,10.11784 -0.748663,3.99072 -3.357556,6.33045 -7.876366,7.06375 -3.05871,0.49636 -4.019508,0.1387 -6.624028,-2.46582 z m 28.957858,-0.0253 c -3.269804,-2.69541 -4.135467,-7.43 -2.000401,-10.94083 4.695813,-7.72165 16.396954,-2.60518 13.905924,6.08054 -0.487497,1.6998 -1.480702,3.68489 -2.207123,4.41131 -2.100441,2.10044 -7.397522,2.34567 -9.6984,0.44898 z M 20.99881,177.6094 c -3.062078,-1.23573 -5.356999,-4.93796 -5.356999,-8.64207 0,-2.33293 0.825649,-3.88334 3.076725,-5.7775 4.24131,-3.56882 8.721674,-3.45253 12.336184,0.32021 7.280522,7.59922 -0.19394,18.07912 -10.05591,14.09932 z m 134.143,-4.16319 c -3.11422,-1.70335 -4.50135,-3.95707 -4.48469,-7.2864 0.0178,-3.56306 0.59629,-4.56683 3.9572,-6.86683 3.8374,-2.6261 7.46911,-2.14435 10.4386,1.38469 3.39261,4.03189 3.29105,7.37495 -0.33419,11.00019 -3.04805,3.04807 -6.17994,3.62635 -9.57692,1.76835 z m 33.99393,-1.09683 c -1.73875,-1.49562 -2.80188,-3.62551 -3.16649,-6.34382 -0.46898,-3.49655 -0.16222,-4.47894 2.10729,-6.74844 5.56238,-5.56239 14.56527,-1.93082 14.56527,5.87529 0,2.67036 -0.76824,4.39063 -2.92308,6.54546 -3.52233,3.52233 -7.01134,3.74372 -10.58299,0.67151 z M 91.762551,171.5031 c -3.57798,-0.74374 -4.743499,-1.91471 -5.775815,-5.80287 -0.787552,-2.96628 2.164915,-8.80893 4.888175,-9.67326 3.34277,-1.06096 8.58355,0.52543 10.723569,3.24601 2.53208,3.21902 2.5588,4.97036 0.13644,8.94287 -2.096559,3.43823 -4.861439,4.34964 -9.972369,3.28725 z m 129.138059,-0.61907 c -3.19599,-0.59875 -5.2588,-4.0705 -5.2588,-8.85061 0,-5.06798 2.28859,-7.43248 7.19388,-7.43248 7.8,0 11.6222,7.79085 6.55612,13.36343 -2.44894,2.69378 -5.00524,3.57274 -8.4912,2.91966 z M 58.564888,162.67786 c -4.667596,-4.66759 -3.601352,-11.04734 2.258096,-13.51104 4.723516,-1.9861 8.821442,-0.64648 11.027748,3.60496 4.919791,9.48021 -5.753549,17.43838 -13.285844,9.90608 z m 54.305882,2.25379 c -1.92189,-0.77327 -4.22896,-5.84448 -4.22896,-9.29575 0,-2.38124 0.72449,-3.50916 3.25,-5.05972 4.01558,-2.4654 8.3263,-1.84505 11.5,1.65496 4.03579,4.45073 2.1738,10.74086 -3.65912,12.36115 -3.87682,1.07693 -4.90266,1.12766 -6.86192,0.33936 z m 19.22559,-1.78526 c -5.10691,-5.10689 -1.43805,-13.54545 5.88921,-13.54545 4.46854,0 7.57786,2.62973 8.27698,7.00031 1.26481,7.90704 -8.35822,12.35312 -14.16619,6.54514 z m -99.253882,-6.57313 c -4.105099,-3.82448 -4.105099,-10.12016 0,-13.94464 4.284118,-3.99126 12.94815,-1.03359 14.118827,4.8198 0.756626,3.78312 -0.922814,8.86986 -3.358936,10.17363 -3.08731,1.65228 -8.418397,1.13265 -10.759891,-1.04879 z m 138.199332,-2.37232 c -4.31076,-4.31076 -4.43475,-7.71909 -0.42662,-11.72722 2.59425,-2.59425 3.45494,-2.89155 6.75,-2.33159 7.95054,1.35112 10.80038,9.0889 5.35354,14.53573 -3.95573,3.95575 -7.38429,3.81571 -11.67692,-0.47692 z m 31.62394,-5.29669 c -3.18658,-4.05108 -2.44024,-9.12362 1.75713,-11.94242 2.67568,-1.79688 3.86626,-2.03562 6.45258,-1.29387 1.74433,0.50026 3.79837,1.53644 4.56454,2.30261 1.99877,1.99876 1.88208,7.67078 -0.22385,10.88037 -1.50643,2.29593 -2.51641,2.75 -6.11677,2.75 -3.49271,0 -4.71561,-0.51258 -6.43363,-2.69669 z M 77.714391,147.96609 c -2.794934,-3.55319 -2.611136,-7.57166 0.516314,-11.28842 3.25995,-3.87423 7.1128,-4.04006 11.334376,-0.48783 2.34364,1.97203 3.07673,3.41304 3.07673,6.04775 0,7.52782 -10.379022,11.51084 -14.92742,5.7285 z m 70.973809,-4.16491 c -4.16166,-4.16166 -4.20838,-9.19209 -0.12331,-13.27716 4.09166,-4.09166 8.8402,-3.7098 13.93509,1.12062 4.73554,4.48973 0.40056,13.39095 -7.11553,14.61064 -3.14361,0.51014 -4.0724,0.16975 -6.69625,-2.4541 z m -44.80234,-1.30566 c -1.0823,-0.40037 -2.9554,-1.98346 -4.162459,-3.51798 -5.38348,-6.84398 3.917839,-15.65837 11.973799,-11.34695 2.46533,1.3194 4.71433,5.88968 4.1682,8.47035 -1.02765,4.85602 -7.21315,8.15778 -11.97954,6.39458 z m -53.823849,-2.00041 c -2.680963,-1.3508 -5.4202,-6.00509 -5.4202,-9.20956 0,-2.89433 5.065663,-7.68461 8.126385,-7.68461 2.824388,0 7.638021,2.69128 8.843971,4.94461 3.736209,6.98118 -4.499726,15.50191 -11.550156,11.94956 z m 76.369169,0.0478 c -2.10027,-1.2244 -3.7368,-6.76611 -3.05357,-10.34018 0.57814,-3.02437 4.61449,-6.60176 7.44872,-6.60176 3.16646,0 7.84035,2.93521 8.83353,5.54747 1.34617,3.54071 0.10625,8.2096 -2.78402,10.48309 -2.67915,2.10742 -7.64914,2.54109 -10.44466,0.91138 z m 58.25842,-5.70215 c -1.34354,-1.08793 -2.38708,-3.35051 -2.73226,-5.92398 -0.4766,-3.55335 -0.18083,-4.54141 2.01754,-6.73978 2.93055,-2.93055 5.25705,-3.19195 10.16346,-1.14192 7.76763,3.24552 4.69207,15.56589 -3.88575,15.56589 -1.86406,0 -4.36741,-0.79209 -5.56299,-1.76022 z M 73.925945,127.89969 c -2.752767,-0.53282 -7.284134,-5.77398 -7.284134,-8.42513 0,-2.76637 2.613064,-7.51116 4.544802,-8.25243 6.242235,-2.39537 13.455198,1.88009 13.455198,7.97553 0,2.76634 -2.823482,7.00183 -5.472058,8.2086 -1.442126,0.65708 -2.713374,1.1334 -2.824995,1.0585 -0.111621,-0.0749 -1.200087,-0.32918 -2.418813,-0.56507 z m 90.762255,-5.09851 c -1.67551,-1.67551 -3.04639,-3.72671 -3.04639,-4.55821 0,-6.11977 6.17308,-10.52346 11.93573,-8.51459 7.93985,2.76785 6.35488,14.13976 -2.16341,15.52209 -3.17851,0.5158 -4.09436,0.18228 -6.72593,-2.44929 z m -70.476149,-5.12262 c -0.95685,-1.05731 -1.98126,-3.7231 -2.27646,-5.92398 -0.73044,-5.44581 2.75516,-9.15364 8.604999,-9.15364 8.6394,0 12.37949,7.96879 6.5808,14.02132 -3.51634,3.67026 -10.059229,4.20563 -12.909339,1.0563 z m 48.604069,-1.39207 c -2.53237,-2.69559 -2.78604,-6.60192 -0.69169,-10.65193 2.67864,-5.17992 11.36696,-5.15896 14.05229,0.0339 1.75563,3.395 1.82639,5.04541 0.35482,8.27516 -2.2244,4.88203 -10.07083,6.22236 -13.71542,2.34288 z m -21.7416,-1.98976 c -3.93408,-3.38396 -3.98978,-9.9597 -0.11261,-13.2947 3.78784,-3.258164 8.28902,-3.149756 11.87518,0.28601 8.16975,7.82711 -3.18603,20.38591 -11.76257,13.00869 z"
           id="path773"
           inkscape:connector-curvature="0"
           sodipodi:nodetypes="csscccssccccsssscccsscssccscsscccccccsccsscccsccccccsccsssccccccsccccccscccccsccsscccsscccccccscccccccsccccssssscsssccscscccssccccccscsccsscccccsccsscccscssscccccsccscccccscssssscccsccsscccssscscccscscscccccscccsccccscsccsccsccssccsssscssscsscssccscssssccsssccsssscssssscsscccsccccsscssccssscssssssscccscsssssscscscccsscscsscsscscsccsccccsssssccccccscscsssssssssscsccccccccccccscscsssscscssscscsscssscccssccssccssccssccccsscscscssscscccscssscsscscssccssscccscscscssssscsscccccscccscc" />
      </g>
    </g>
  </g>
</svg>
