<?xml version="1.0" encoding="UTF-8" standalone="no"?>
<!-- Created with Inkscape (http://www.inkscape.org/) -->

<svg
   xmlns:dc="http://purl.org/dc/elements/1.1/"
   xmlns:cc="http://creativecommons.org/ns#"
   xmlns:rdf="http://www.w3.org/1999/02/22-rdf-syntax-ns#"
   xmlns:svg="http://www.w3.org/2000/svg"
   xmlns="http://www.w3.org/2000/svg"
   xmlns:sodipodi="http://sodipodi.sourceforge.net/DTD/sodipodi-0.dtd"
   xmlns:inkscape="http://www.inkscape.org/namespaces/inkscape"
   version="1.1"
   id="svg2949"
   width="283"
   height="443"
   viewBox="0 0 283 443"
   sodipodi:docname="feu105.svg"
   inkscape:version="0.92.4 (5da689c313, 2019-01-14)">
  <metadata
     id="metadata2955">
    <rdf:RDF>
      <cc:Work
         rdf:about="">
        <dc:format>image/svg+xml</dc:format>
        <dc:type
           rdf:resource="http://purl.org/dc/dcmitype/StillImage" />
        <dc:title></dc:title>
      </cc:Work>
    </rdf:RDF>
  </metadata>
  <defs
     id="defs2953" />
  <sodipodi:namedview
     pagecolor="#ffffff"
     bordercolor="#666666"
     borderopacity="1"
     objecttolerance="10"
     gridtolerance="10"
     guidetolerance="10"
     inkscape:pageopacity="0"
     inkscape:pageshadow="2"
     inkscape:window-width="1280"
     inkscape:window-height="972"
     id="namedview2951"
     showgrid="false"
     inkscape:zoom="1.0654628"
     inkscape:cx="160.15892"
     inkscape:cy="221.34636"
     inkscape:window-x="-8"
     inkscape:window-y="-8"
     inkscape:window-maximized="1"
     inkscape:current-layer="g180"
     showguides="true" />
  <g
     id="g151"
     transform="translate(25.882805,-2.654647)">
    <g
       id="g180"
       transform="translate(23.228158,-38.492376)">
      <path
         style="fill:#ff0066"
         d="m 73.893347,398.27999 c -1.22238,-0.85619 -2.22251,-2.40463 -2.22251,-3.44099 0,-1.03635 -0.45,-2.16239 -1,-2.50231 -1.97821,-1.2226 -0.98022,-5.67363 1.92308,-8.57692 3.33243,-3.33244 7.45387,-3.81375 12.09694,-1.41273 8.77027,4.53529 5.44859,17.48965 -4.4846,17.48965 -2.24973,0 -5.09054,-0.70052 -6.31291,-1.5567 z m 26.675363,-0.73063 c -6.370493,-4.28839 -7.160223,-10.45031 -1.944297,-15.17066 8.433087,-7.63184 22.671877,1.54647 17.603657,11.34731 -3.27524,6.33361 -9.62664,7.88435 -15.65936,3.82335 z m -51.948462,-3.28003 c -4.512106,-1.89029 -7.150946,-6.17496 -6.330258,-10.27841 0.816708,-4.08353 3.382416,-6.21063 8.284357,-6.86811 8.01758,-1.07539 13.0711,3.70521 11.69135,11.05993 -1.15226,6.14206 -7.13891,8.81242 -13.645449,6.08659 z m 76.483792,-2.73643 c -2.54137,-2.186 -2.93321,-3.21434 -2.93321,-7.69798 0,-4.23205 0.43014,-5.52324 2.36078,-7.08658 2.61853,-2.12036 9.96334,-2.61133 13.19461,-0.88201 2.99878,1.6049 5.21203,6.73136 4.51355,10.45455 -0.84408,4.49934 -3.71714,6.72755 -9.3756,7.27125 -4.10202,0.39416 -5.26741,0.0849 -7.76013,-2.05923 z m 23.42285,-10.21261 c -4.99351,-2.71275 -5.4784,-11.94174 -0.82537,-15.70954 2.78462,-2.25484 8.31219,-2.2753 12.08822,-0.0448 3.1529,1.86247 5.469,7.843 4.37376,11.29377 -1.65994,5.23001 -9.89562,7.57933 -15.6366,4.46052 z M 23.433408,380.2713 c -2.965109,-1.60885 -5.762571,-6.13774 -5.762571,-9.32919 0,-5.70895 9.843035,-10.13294 15.641058,-7.02993 5.515368,2.95174 7.081387,11.29297 2.904397,15.46996 -2.865501,2.86551 -8.427465,3.25239 -12.782884,0.88916 z m 68.605509,-10.00581 c -3.7066,-3.93014 -3.80351,-4.32114 -2.35943,-9.51968 1.12935,-4.06556 4.12571,-5.90912 9.604136,-5.90912 4.565047,0 7.011287,1.37237 8.876857,4.97998 2.21592,4.28513 1.87383,6.53644 -1.59324,10.48522 -2.58819,2.94778 -3.77257,3.5348 -7.131927,3.5348 -3.323686,0 -4.617466,-0.62468 -7.396396,-3.5712 z m -24.3139,-0.0367 c -4.44631,-3.74133 -5.09211,-5.40488 -3.90847,-10.06806 2.77854,-10.94657 19.85429,-8.17429 19.85429,3.22343 0,8.3577 -9.36853,12.37909 -15.94582,6.84467 z M 168.7809,366.44114 c -4.79026,-2.65504 -6.21142,-8.03282 -3.70684,-14.02712 2.91966,-6.98775 13.15494,-6.63099 17.57115,0.61245 2.81272,4.61343 2.55716,8.02966 -0.87559,11.70442 -2.29284,2.45449 -3.70829,3.09833 -6.75,3.07032 -2.11682,-0.0195 -4.92426,-0.63152 -6.23872,-1.36007 z m -48.31542,-1.09891 c -1.70457,-0.9594 -3.08973,-2.90673 -3.74442,-5.26413 -1.44078,-5.18794 -1.37116,-5.59132 1.41715,-8.21079 3.52255,-3.30927 11.17239,-3.9527 14.54313,-1.22323 3.33228,2.69831 3.54759,10.07892 0.38624,13.24027 -2.72136,2.72136 -9.05535,3.45411 -12.6021,1.45788 z m -120.49609463,-1.4651 c -6.70746497,-4.08978 -8.29274497,-12.18469 -3.22182397,-16.45159 4.564952,-3.84115 11.0207144,-3.6453 15.1248696,0.45886 2.750009,2.75001 2.996327,3.50395 2.521392,7.71756 -0.404165,3.58574 -1.249275,5.31574 -3.640447,7.45225 -3.6715322,3.28051 -6.4106096,3.48953 -10.78399063,0.82292 z m 40.08632163,-5.7359 c -5.645835,-6.16377 -3.81747,-12.38235 4.076018,-13.86318 6.970292,-1.30764 12.539112,2.95258 12.539112,9.59258 0,5.2687 -2.93034,7.96606 -8.654085,7.96606 -3.998698,0 -5.003318,-0.46633 -7.961045,-3.69542 z m 102.865823,-2.78318 c -3.98099,-1.74499 -5.71315,-5.24282 -4.85678,-9.80759 0.81093,-4.32261 3.20028,-6.52042 7.69472,-7.07787 6.24131,-0.77411 8.98654,0.29971 10.59253,4.14338 3.56253,8.52635 -4.84675,16.50461 -13.43047,12.74208 z M 20.888559,346.8228 c -2.810811,-1.25843 -4.272232,-2.70372 -5.081609,-5.0255 -1.674343,-4.80303 -1.420308,-6.40369 1.475963,-9.29996 4.819903,-4.8199 14.388832,-4.3606 17.806016,0.85469 5.584621,8.52321 -4.302385,17.90223 -14.20037,13.47077 z M 185.7877,346.206 c -3.03183,-2.12358 -5.0774,-7.12488 -4.38838,-10.7293 0.42952,-2.24689 1.62397,-3.35862 5.57547,-5.18938 4.54863,-2.1074 5.29022,-2.19473 7.7659,-0.91451 3.8639,1.99811 7.16944,7.66229 6.35811,10.8949 -1.55314,6.18815 -10.17837,9.53338 -15.3111,5.93829 z m -206.53894,-5.54931 c -4.007116,-4.68141 -4.171251,-5.4642 -2.156701,-10.2857 1.743,-4.17159 6.036523,-6.5343 11.87413,-6.5343 8.9946794,0 12.4102764,10.8216 5.6871964,18.01868 -2.296212,2.4581 -3.578372,2.98132 -7.3058364,2.98132 -4.069481,0 -4.878102,-0.41735 -8.098789,-4.18 z m 118.323283,1.07424 c -4.014586,-4.29763 -3.862716,-8.13273 0.49462,-12.49007 2.939287,-2.93929 3.846777,-3.31024 6.749997,-2.75915 4.89272,0.92873 6.64892,2.0574 8.36504,5.376 1.9754,3.81999 1.07878,7.30503 -2.69674,10.48193 -4.29754,3.61614 -9.18138,3.38592 -12.912917,-0.60871 z m -28.353026,-0.14424 c -3.70686,-3.25373 -4.51251,-10.27474 -1.60222,-13.96282 5.44972,-6.90617 19.05404,-2.79217 19.05404,5.76203 0,8.38317 -11.23133,13.66088 -17.45182,8.20079 z m 59.451813,-4.40587 c -2.96295,-1.16477 -7.99999,-6.77993 -7.99999,-8.91817 0,-1.19994 0.66054,-3.76261 1.46787,-5.69481 2.87477,-6.8803 14.33731,-7.66768 18.76681,-1.28911 1.65773,2.38716 0.76985,10.04003 -1.48965,12.83969 -2.25632,2.79569 -7.57061,4.3103 -10.74504,3.0624 z m 35.4113,-1.23508 c -6.39313,-3.89849 -9.18354,-10.3278 -6.1295,-14.1228 4.34673,-5.40131 11.78088,-6.48727 16.60747,-2.42597 5.77431,4.85877 5.03967,13.82196 -1.38266,16.86956 -4.23705,2.01061 -5.33559,1.97187 -9.09531,-0.32079 z M 43.454739,330.09903 c -6.04395,-3.74826 -5.723176,-11.4988 0.636407,-15.37687 7.359641,-4.48791 15.579691,-0.83994 15.579691,6.91409 0,4.38637 -1.60365,6.30124 -7.25448,8.6623 -4.593218,1.91917 -5.580759,1.89718 -8.961618,-0.19952 z m 159.716091,-2.98705 c -3.38334,-0.79469 -7.5,-5.40386 -7.5,-8.39728 0,-4.80964 1.75396,-7.74837 5.57823,-9.34625 3.36914,-1.40772 3.98299,-1.37709 7.99819,0.39902 4.67975,2.07007 5.82003,4.26099 5.24726,10.08198 -0.46765,4.75267 -6.24204,8.45612 -11.32368,7.26253 z M 3.0278354,323.84511 c -3.40761803,-1.37514 -5.356999,-5.04172 -5.356999,-10.07594 0,-5.33969 1.75408097,-7.47357 7.432122,-9.04135 5.0033846,-1.3815 10.1390116,0.37885 12.0852706,4.1425 3.919722,7.57991 -0.433063,16.03147 -8.1904692,15.90298 -2.104808,-0.0349 -4.7912744,-0.45255 -5.9699244,-0.92819 z M 79.747567,318.2478 c -4.41244,-3.71282 -4.35863,-9.15467 0.12784,-12.92979 2.76838,-2.32944 3.86745,-2.63277 8.07467,-2.22851 6.12166,0.58821 7.88381,2.34517 8.447456,8.42252 0.61876,6.67164 -1.853386,9.32467 -8.688926,9.32467 -3.79571,0 -5.57006,-0.57701 -7.96104,-2.58889 z m 23.647863,-1.16294 c -2.01645,-2.22814 -3.724587,-6.69536 -3.724587,-9.74069 0,-5.53019 10.224457,-8.47856 15.368997,-4.43187 5.56885,4.38046 3.76884,12.95895 -3.1206,14.87225 -5.19832,1.44365 -6.69533,1.32077 -8.52381,-0.69969 z m -134.346291,-1.67311 c -6.851731,-3.00834 -8.523924,-10.58328 -3.455225,-15.65198 2.511942,-2.51194 3.68568,-2.92308 8.345012,-2.92308 6.088056,0 8.148415,1.47867 9.726267,6.98032 2.380248,8.29944 -6.349201,15.22441 -14.616054,11.59474 z m 181.240991,-0.63414 c -6.34146,-1.84444 -9.92043,-8.38849 -7.7335,-14.14052 1.27927,-3.36474 3.82702,-4.74218 10.15817,-5.49201 5.97062,-0.70713 8.41223,0.95839 9.98895,6.81385 2.27955,8.46562 -4.23857,15.19644 -12.41362,12.81868 z m 25.80091,-1.08547 c -1.14389,-0.55505 -2.87397,-2.35361 -3.84462,-3.99679 -1.49914,-2.53784 -1.57883,-3.43661 -0.52934,-5.97028 1.30579,-3.15246 5.45783,-5.88838 8.93622,-5.88838 2.71091,0 9.23092,2.73685 10.21718,4.28879 1.65683,2.6071 0.8344,8.3306 -1.51409,10.5369 -2.52692,2.37391 -9.39627,2.90717 -13.26535,1.02976 z M 26.170837,312.4584 c -4.422241,-2.05684 -6.5,-5.10771 -6.5,-9.54425 0,-5.55412 4.271609,-9.07746 11.005297,-9.07746 5.22486,0 7.44541,1.42505 9.131693,5.86031 1.281865,3.37156 0.169923,9.55196 -2.085813,11.59338 -2.512674,2.27393 -7.983971,2.82718 -11.551177,1.16802 z m 37,-2.57212 c -2.42669,-0.99936 -6.5,-6.36281 -6.5,-8.55876 0,-2.89141 2.88273,-7.2269 5.20995,-7.83553 6.69197,-1.75011 14.79005,3.17681 14.79005,8.99835 0,5.65368 -7.6087,9.82209 -13.5,7.39594 z m 60.554743,-5.30362 c -1.34489,-0.68775 -3.26698,-2.65743 -4.2713,-4.37708 -3.28278,-5.62088 0.98796,-11.27082 8.73979,-11.56224 3.07625,-0.11565 4.25077,0.41117 6.18733,2.7753 2.76644,3.37728 2.57093,8.62878 -0.42857,11.51056 -2.46575,2.369 -7.29976,3.15052 -10.22725,1.65346 z m 83.86834,-6.66905 c -4.84571,-4.8457 -3.13765,-13.50541 3.34503,-16.95911 2.29397,-1.22213 2.97875,-1.15913 5.91315,0.54397 4.33889,2.51826 7.36301,8.03351 6.43416,11.73433 -1.90478,7.58927 -10.28438,10.08879 -15.69234,4.68081 z m -217.3987906,-0.0516 c -5.5024794,-3.627 -6.1607744,-10.23503 -1.4853844,-14.91042 3.8305324,-3.83054 8.6507454,-4.84391 12.8099654,-2.69309 3.895421,2.0144 5.1511264,4.35202 5.1511264,9.58933 0,8.41357 -9.1313484,12.85527 -16.4757074,8.01418 z m 51.6943076,-3.82112 c -2.686802,-2.50985 -3.2186,-3.73766 -3.2186,-7.4311 0,-6.13595 2.881764,-8.76271 9.934727,-9.05562 4.633153,-0.19242 5.514793,0.10584 7.650933,2.58828 5.49296,6.3835 1.81878,15.44347 -6.650056,16.39803 -3.976429,0.4482 -4.871876,0.15816 -7.717004,-2.49959 z m 44.7814,1.50623 c -3.42146,-1.72453 -4.97575,-7.87516 -2.92083,-11.55828 1.70796,-3.06124 8.61937,-5.69561 12.43214,-4.73867 5.690513,1.42823 7.805593,10.49139 3.514386,15.05918 -2.6895,2.86282 -8.673456,3.43145 -13.025696,1.23777 z m 96.571193,-7.07851 c -4.53091,-4.27319 -4.67636,-7.52419 -0.49413,-11.04332 3.73301,-3.14112 6.47437,-3.87912 10.37421,-2.79283 3.4849,0.9707 6.37268,5.39239 6.47563,9.91527 0.10307,4.52821 -3.13314,7.28896 -8.54427,7.28896 -3.44081,0 -4.91353,-0.635 -7.81144,-3.36808 z m -220.071193,0.94131 c -5.045782,-2.18647 -6.916625,-5.09632 -6.960615,-10.82635 -0.03633,-4.73284 0.223781,-5.30896 3.358498,-7.43853 9.517731,-6.46587 19.719866,1.68152 16.518546,13.19165 -1.235758,4.44309 -8.125587,7.14923 -12.916429,5.07323 z m 53.332546,-1.39352 c -3.200702,-1.30472 -5.955577,-6.01104 -6.014422,-10.2748 -0.120343,-8.71987 9.762066,-12.52835 16.324877,-6.29127 2.712153,2.57754 2.984491,3.36436 2.545367,7.35392 -0.784917,7.13117 -7.012864,11.59396 -12.855822,9.21215 z m 48.662664,-2.59359 c -3.29424,-3.29424 -3.98716,-6.73411 -2.09398,-10.39512 1.93593,-3.74367 7.0104,-5.65653 11.76567,-4.43516 6.52968,1.67712 8.49143,11.74711 3.08753,15.84888 -3.02454,2.29573 -10.00191,1.73871 -12.75922,-1.0186 z m 42.333063,-2.25559 c -1.46946,-1.55679 -2.95707,-4.40553 -3.3058,-6.33053 -0.92229,-5.09105 1.01028,-7.1526 7.26882,-7.75397 4.61289,-0.44324 5.43199,-0.20482 8.16788,2.37742 5.76956,5.44554 2.96574,12.57353 -5.4704,13.90708 -3.50242,0.55366 -4.31453,0.28541 -6.6605,-2.2 z m 51.67172,1.77529 c -3.15935,-1.37394 -5.53865,-4.56915 -6.13392,-8.23738 -0.7771,-4.78875 2.78414,-8.4685 9.11446,-9.41779 4.34349,-0.65135 4.95885,-0.4728 7.65176,2.2201 6.38015,6.38016 3.87264,14.97267 -4.63385,15.87887 -2.19914,0.23428 -4.89844,0.0346 -5.99845,-0.4438 z m -27.1,-3.50582 c -3.96639,-3.9664 -4.27413,-6.45519 -1.15,-9.30072 5.39197,-4.91113 10.56667,-5.26585 14.55029,-0.99741 3.6834,3.94676 3.80065,7.25104 0.37872,10.67296 -4.33332,4.33333 -9.20333,4.20085 -13.77901,-0.37483 z m 81.52298,-6.70462 c -2.68048,-0.98473 -5.92298,-6.45647 -5.92298,-9.99505 0,-3.36836 1.87505,-5.82128 5.65819,-7.40198 7.02582,-2.93558 10.61566,-1.73703 13.91665,4.64637 2.39173,4.62509 -0.0842,11.14001 -4.86744,12.80744 -3.54354,1.23528 -5.29824,1.22394 -8.78442,-0.0568 z M 38.255165,269.58669 c -4.72189,-4.53183 -5.375683,-8.93528 -1.81663,-12.23542 2.172502,-2.01445 3.743637,-2.51458 7.899504,-2.51458 4.413218,0 5.497038,0.39334 7.260218,2.63486 3.73502,4.74831 2.39999,11.11023 -2.907404,13.85479 -4.351184,2.25008 -6.683786,1.86123 -10.435688,-1.73965 z m 48.671992,1.22118 c -2.86182,-1.15058 -6.24773,-6.66604 -6.25258,-10.18513 -0.005,-3.81359 5.96101,-7.78605 11.69392,-7.78605 10.279143,0 14.420553,13.14843 5.618076,17.83666 -2.549906,1.35809 -7.855506,1.42262 -11.059416,0.13452 z m -96.7563206,-1.13816 c -4.7724644,-2.63955 -6.4999994,-5.12003 -6.4999994,-9.33302 0,-6.72126 6.4819594,-11.31016 13.3120804,-9.42428 8.956773,2.47309 9.7327134,14.91848 1.15362,18.50306 -4.035356,1.68608 -5.303671,1.72656 -7.965701,0.25424 z M 112.9751,264.88065 c -3.18609,-1.94268 -4.9569,-6.46414 -4.14682,-10.58812 0.52101,-2.65235 5.03693,-5.53809 9.63086,-6.15427 3.62411,-0.4861 4.4789,-0.18822 7.16343,2.49631 2.41177,2.41177 3.04827,3.90906 3.04827,7.17065 0,8.04766 -8.10737,11.70235 -15.69574,7.07543 z m -50.028253,-1.09761 c -4.54861,-2.13283 -6.27601,-4.40239 -6.27601,-8.24575 0,-5.7887 8.79751,-11.11687 14.25198,-8.63165 6.89093,3.13972 7.60773,14.85142 1.0907,17.82078 -3.23565,1.47426 -4.10317,1.38399 -9.06667,-0.94338 z m -51.874265,-2.48185 c -3.0025222,-3.1836 -3.4888932,-4.30107 -2.9956082,-6.88259 0.780909,-4.08676 5.7897292,-8.58191 9.5625872,-8.58191 4.151043,0 7.625429,1.81385 8.921004,4.65732 2.988126,6.55823 -0.571333,13.0879 -7.652204,14.03765 -3.945238,0.52916 -4.509306,0.29661 -7.835779,-3.23047 z m -46.166795,0.99224 c -4.248151,-1.78621 -7.608451,-7.65227 -6.812855,-11.89316 0.734922,-3.91747 2.129114,-5.28768 6.719884,-6.6043 4.130857,-1.18471 9.237992,0.31742 11.35492,3.33975 0.826705,1.18029 1.503101,4.09234 1.503101,6.47123 0,7.09821 -6.317742,11.39737 -12.76505,8.68648 z m 219.858873,-0.61844 c -5.52685,-3.79412 -5.92899,-5.14766 -3.08026,-10.36752 2.37036,-4.34335 3.90107,-5.36637 8.54955,-5.71396 3.50311,-0.26195 8.45947,2.38619 9.98404,5.33437 2.03148,3.92845 1.81665,6.37433 -0.83016,9.45142 -3.32166,3.86167 -10.02071,4.45524 -14.62317,1.29569 z m -49.8529,-2.0883 c -2.92788,-3.12555 -4.44846,-7.49371 -3.3337,-9.57666 1.77983,-3.32565 5.01125,-5.36898 8.65403,-5.47224 2.96323,-0.084 4.25469,0.52848 6.56389,3.11294 3.63867,4.07238 3.79226,8.35946 0.4203,11.73141 -3.28991,3.28992 -9.32037,3.39017 -12.30452,0.20455 z m 25.25907,-0.91068 c -5.50805,-3.02906 -6.80855,-7.98597 -3.4998,-13.33964 1.60237,-2.59268 2.84549,-3.35083 6.25,-3.81175 6.77424,-0.91712 11.66246,3.05051 11.718,9.51118 0.0261,3.03837 -0.56558,4.15475 -3.31259,6.25 -3.53198,2.69397 -7.81441,3.22764 -11.15561,1.39021 z M 46.91844,250.13064 c -2.884444,-0.55538 -7.247603,-6.24516 -7.247603,-9.45125 0,-1.39923 1.21492,-3.63249 2.804719,-5.15561 4.980371,-4.7715 13.952051,-3.08722 16.288411,3.05787 1.40613,3.6984 -0.60644,8.95201 -4.12676,10.77243 -2.8897,1.49432 -3.61303,1.56709 -7.718767,0.77656 z m 54.64044,-0.79359 c -3.847927,-2.09131 -6.070903,-8.62951 -4.508827,-13.26133 0.88067,-2.61132 5.397777,-5.23903 9.006027,-5.23903 7.15147,0 11.28124,5.00233 9.48888,11.49373 -2.05815,7.45396 -7.83659,10.34881 -13.98608,7.00663 z m -26.097603,-3.8152 c -6.9046,-6.40806 -2.76098,-14.68516 7.35158,-14.68516 3.7882,0 8.85798,4.78896 8.85798,8.36731 0,4.14508 -3.91565,7.75643 -9.033,8.331 -3.78267,0.42471 -4.8821,0.11631 -7.17656,-2.01315 z m 133.627783,-3.62937 c -2.36622,-3.57561 -2.49996,-4.27813 -1.43089,-7.51739 1.21356,-3.67713 5.11146,-6.5384 8.90725,-6.5384 3.22703,0 7.11187,4.11638 7.76672,8.22965 0.52339,3.28751 0.21048,4.08771 -2.63952,6.75 -4.85602,4.5362 -9.20103,4.2177 -12.60356,-0.92386 z M -3.0450296,243.1231 c -6.669288,-1.25377 -9.8103224,-12.85113 -4.829589,-17.83186 3.654994,-3.655 11.188654,-3.50405 14.7460194,0.29545 3.4317342,3.66532 4.1811622,6.56333 2.788515,10.78309 -1.511744,4.58063 -7.4556854,7.74013 -12.7049454,6.75332 z m 25.3105526,-3.81385 c -6.189929,-3.22803 -7.425112,-9.14377 -3.005792,-14.39583 2.156783,-2.5632 3.311496,-3.07673 6.918212,-3.07673 5.826469,0 7.089669,0.6115 9.577026,4.63613 5.451448,8.82063 -3.980052,17.79556 -13.489446,12.83643 z m 102.180457,0.0181 c -5.50038,-3.08471 -6.30253,-8.74962 -1.93163,-13.64151 3.28761,-3.67947 7.4422,-4.20237 11.62318,-1.46289 9.85526,6.45742 0.60272,20.87761 -9.69155,15.1044 z m 23.86716,-3.75741 c -5.26566,-5.26566 -4.23421,-13.33173 2.18266,-17.06859 2.83308,-1.64983 3.86863,-1.77099 7,-0.81894 4.21788,1.28237 8.17504,6.34094 8.17504,10.45042 0,4.41148 -4.76416,8.81028 -10.20641,9.4237 -4.00729,0.45168 -4.98448,0.18022 -7.15129,-1.98659 z m -183.029438,-1.16612 c -2.665371,-2.17961 -2.848855,-2.75934 -2.388774,-7.54749 0.594636,-6.18849 2.837841,-8.79821 7.775909,-9.04638 5.207588,-0.26171 5.485787,-0.17916 8.353977,2.47899 3.671155,3.40231 3.767817,10.51686 0.191478,14.0932 -3.338683,3.33869 -9.863903,3.34884 -13.93259,0.0217 z m 215.657058,-0.35319 c -5.23799,-0.81696 -7.79996,-8.35452 -4.80692,-14.14242 1.70378,-3.29474 3.31189,-4.07152 8.42894,-4.07152 4.76213,0 10.10805,4.79316 10.10805,9.06289 0,5.56921 -6.95871,10.20717 -13.73007,9.15105 z M 61.170837,231.13028 c -3.29673,-0.81306 -6.42739,-4.38961 -7.13254,-8.1484 -0.59339,-3.16305 -0.30966,-3.83008 2.69691,-6.34007 6.98844,-5.83421 17.46142,-2.37077 17.23268,5.69889 -0.17245,6.08385 -6.40649,10.36567 -12.79705,8.78958 z m 43.500003,-4.99297 c -5.137417,-1.85458 -6.683747,-10.3702 -2.5827,-14.22294 6.30404,-5.92232 18.22431,0.24547 16.18417,8.37401 -1.3736,5.47285 -7.42944,8.07699 -13.60147,5.84893 z m -24.224863,-2.85942 c -5.26508,-2.85726 -6.22599,-8.11541 -2.36496,-12.9412 2.09847,-2.62282 3.03729,-3 7.46725,-3 6.48219,0 9.32658,2.5032 9.4797,8.34259 0.20295,7.73998 -7.20662,11.60107 -14.58199,7.59861 z M 38.67135,220.7598 c -4.493925,-1.87569 -7.000513,-5.01539 -7.000513,-8.76868 0,-4.61642 2.228935,-6.87441 8.619964,-8.73233 4.776879,-1.38867 5.556816,-1.38204 8.366947,0.0711 8.132239,4.20535 5.271469,16.80538 -4.093515,18.02955 -1.866368,0.24397 -4.518165,-0.0259 -5.892883,-0.59967 z m 162.83051,-2.42734 c -3.8308,-2.11671 -5.4151,-7.46561 -3.37801,-11.40489 1.95979,-3.78983 4.33832,-5.09088 9.30693,-5.09088 11.11657,0 11.73251,17.06614 0.64009,17.73526 -2.14502,0.12939 -5.10107,-0.42838 -6.56901,-1.23949 z M 4.0188334,216.13772 c -3.12341903,-1.55681 -4.34799703,-4.32736 -4.34799703,-9.83714 0,-3.71449 5.33592603,-7.46389 10.62218063,-7.46389 5.973447,0 9.37782,3.22102 9.37782,8.87276 0,5.36021 -0.74403,6.94351 -4.071521,8.66423 -3.58071,1.85165 -7.5545752,1.77068 -11.5804826,-0.23596 z M 133.13611,215.88517 c -2.82517,-1.14516 -4.34617,-3.20291 -5.08017,-6.87295 -0.53301,-2.66504 -0.10888,-3.65176 2.83511,-6.59575 4.5291,-4.5291 7.69822,-5.2721 12.49403,-2.92922 4.66065,2.27685 6.39167,7.26529 4.28553,12.34997 -1.87431,4.52499 -8.68086,6.42066 -14.5345,4.04795 z m 36.03472,-2.76172 c -3.46635,-0.83406 -7.5,-5.41818 -7.5,-8.52351 0,-3.5327 2.37458,-8.30928 4.5448,-9.14207 0.89034,-0.34165 3.4166,-0.62118 5.61392,-0.62118 3.08233,0 4.66299,0.66785 6.9182,2.92308 4.10815,4.10814 3.95241,8.24759 -0.47692,12.67692 -3.27605,3.27605 -4.79146,3.72347 -9.1,2.68676 z m -192.229512,-0.98096 c -2.671596,-0.52669 -6.270481,-5.26734 -6.270481,-8.25983 0,-1.17991 0.723582,-3.58544 1.607961,-5.34563 4.589344,-9.13422 15.012349,-9.0896 18.4983144,0.0792 2.952904,7.76672 -4.7671824,15.3141 -13.8357944,13.52627 z m 133.625812,-5.47731 c -7.15411,-5.9264 -6.26542,-15.97611 1.70734,-19.30734 6.88365,-2.87617 14.29639,2.19935 14.58923,9.98929 0.19147,5.09311 -4.31003,9.53178 -10.32122,10.17717 -2.79267,0.29984 -4.95087,-0.0105 -5.97535,-0.85912 z m -51.973213,-4.75157 c -6.41028,-6.41027 -1.48243,-15.07692 8.57271,-15.07692 7.76624,0 11.64027,9.95485 6.04966,15.54545 -3.6995,3.69951 -10.67794,3.47591 -14.62237,-0.46853 z m 29.6186,-1.75789 c -3.19604,-0.89095 -6.42099,-3.3634 -7.07506,-5.42419 -0.33625,-1.05943 -0.0781,-3.54188 0.57355,-5.51655 2.262,-6.85393 14.585676,-9.60595 18.431093,-4.11586 2.06942,2.95451 1.90859,9.68603 -0.300007,12.55677 -1.82989,2.37851 -7.608736,3.6207 -11.629576,2.49983 z m 97.381393,-5.24211 c -3.53718,-3.53717 -3.821,-7.66568 -0.79176,-11.51674 2.94531,-3.74436 6.36241,-4.88237 10.53011,-3.5069 4.77407,1.57558 6.93899,5.99934 5.41891,11.0729 -2.18528,7.29382 -9.82333,9.28468 -15.15726,3.95074 z M 24.552312,195.3336 c -2.55857,-1.39043 -5.881475,-6.88412 -5.881475,-9.72373 0,-1.62404 3.375081,-4.94224 6.855297,-6.73975 5.107857,-2.63819 14.144703,2.53229 14.144703,8.09296 0,3.53679 -2.855788,7.62769 -6.118839,8.76519 -4.091201,1.4262 -5.785799,1.35189 -8.999686,-0.39467 z m 123.097598,-4.24691 c -3.29334,-2.96699 -4.64847,-9.07862 -2.7904,-12.58466 1.15239,-2.17447 6.68162,-4.66534 10.35612,-4.66534 3.56665,0 8.4563,5.01787 8.45146,8.67308 -0.005,3.79309 -3.40062,9.14996 -6.56182,10.35185 -4.09301,1.55615 -6.19609,1.16137 -9.45536,-1.77493 z m -153.9790736,0.44356 c -2.473434,-0.84348 -4.0368564,-2.29223 -5.3303694,-4.9394 -3.456855,-7.07443 0.4336,-13.56061 8.6920764,-14.49146 3.83312497,-0.43205 4.851609,-0.14029 6.995991,2.00409 3.0000304,3.00003 4.3384564,8.9099 2.7883414,12.31203 -1.0784504,2.36694 -6.65025143,6.46619 -8.6460394,6.361 -0.55,-0.029 -2.575,-0.58981 -4.5,-1.24626 z m 52.5674266,-8.6399 c -9.01905,-5.9454 -6.564422,-15.8466 4.149944,-16.73957 6.29719,-0.52483 9.53528,1.24156 10.67548,5.82353 2.48215,9.97471 -6.36806,16.49117 -14.825424,10.91604 z m 75.817657,-3.96055 c -5.62696,-3.43121 -5.01454,-11.61747 1.08566,-14.51221 7.11971,-3.37852 13.3944,-1.05776 15.0365,5.5614 0.76938,3.10131 -1.58192,8.29211 -4.45186,9.82806 -2.99704,1.60396 -8.24865,1.20921 -11.6703,-0.87725 z m 46.79029,-4.33555 c -1.27855,-0.62138 -3.23162,-2.90763 -4.34016,-5.08055 -1.90964,-3.7432 -1.92979,-4.14088 -0.38368,-7.56954 2.17026,-4.81279 6.62942,-7.40739 10.31944,-6.00445 5.92537,2.25282 8.7061,6.83703 7.62924,12.57723 -0.9842,5.24616 -8.15487,8.54136 -13.22484,6.07731 z m -97.950303,-1.76176 c -5.55628,-3.38766 -6.73969,-9.20845 -2.69455,-13.25359 4.10022,-4.10022 14.19278,-3.99627 16.42203,0.16914 2.63962,4.93217 1.21839,11.43178 -2.97376,13.59962 -3.88661,2.00984 -6.84475,1.86813 -10.75372,-0.51517 z m 26.774926,-0.26843 c -1.375,-0.68374 -3.342946,-2.96559 -4.373206,-5.07078 -1.62341,-3.31717 -1.6948,-4.16099 -0.53536,-6.32742 2.48682,-4.64668 9.477483,-6.69401 14.224313,-4.16583 3.33588,1.7767 4.61755,3.97996 4.65245,7.99777 0.0578,6.65316 -7.53425,10.7656 -13.968197,7.56626 z m -85.611879,-1.70744 c -3.1368972,-1.26745 -6.3881176,-5.90281 -6.3881176,-9.10774 0,-6.43679 4.7041826,-10.91219 11.4700346,-10.91219 4.705668,0 7.139171,1.34361 9.019616,4.97998 4.966398,9.60396 -3.968982,19.13396 -14.101533,15.03995 z M 145.97319,160.8249 c -2.75736,-1.11043 -5.30236,-5.91761 -5.30236,-10.01547 0,-6.52752 9.39101,-11.80773 15.66494,-8.8078 3.40032,1.62588 5.99969,8.05082 4.9497,12.2343 -1.55884,6.21094 -8.66158,9.26729 -15.31228,6.58897 z M 38.975171,156.88069 c -3.759691,-2.29243 -6.053178,-5.50622 -6.848273,-9.59627 -0.44655,-2.29711 0.05976,-3.69858 2.293903,-6.34957 2.500529,-2.96708 3.59152,-3.46193 8.536479,-3.87201 5.398542,-0.44769 5.834128,-0.30558 9.112687,2.97298 6.46601,6.46601 5.59709,14.2332 -1.94479,17.3844 -4.576108,1.91201 -7.349449,1.77782 -11.150006,-0.53953 z m 77.839149,-8.57673 c -4.17145,-3.51004 -5.76812,-8.58431 -3.69617,-11.74651 2.16942,-3.31096 6.04702,-5.17531 10.76395,-5.17531 3.24129,0 4.53915,0.61079 6.89107,3.24305 8.51136,9.52588 -4.14956,21.93276 -13.95885,13.67877 z m -53.748573,-1.80401 c -2.29404,-1.97325 -2.70511,-3.09753 -2.64268,-7.22774 0.0635,-4.20024 0.52894,-5.29756 3.29557,-7.76953 2.7762,-2.48054 3.76207,-2.7921 7.13058,-2.25346 5.51238,0.88147 7.71626,2.53675 8.98293,6.74688 1.51594,5.03865 0.44576,8.30228 -3.52767,10.75799 -4.53521,2.80292 -9.80224,2.70181 -13.23873,-0.25414 z m 25.00509,-4.06326 c -3.90934,-3.90934 -4.25083,-6.69225 -1.3958,-11.37493 5.24964,-8.6102 17.372983,-6.28741 18.696773,3.58224 0.97484,7.26789 -2.65377,11.19269 -10.348023,11.19269 -2.70728,0 -4.36222,-0.80927 -6.95295,-3.4 z"
         id="path470"
         inkscape:connector-curvature="0" />
    </g>
  </g>
</svg>
