<?xml version="1.0" encoding="UTF-8" standalone="no"?>
<!-- Created with Inkscape (http://www.inkscape.org/) -->

<svg
   xmlns:dc="http://purl.org/dc/elements/1.1/"
   xmlns:cc="http://creativecommons.org/ns#"
   xmlns:rdf="http://www.w3.org/1999/02/22-rdf-syntax-ns#"
   xmlns:svg="http://www.w3.org/2000/svg"
   xmlns="http://www.w3.org/2000/svg"
   xmlns:sodipodi="http://sodipodi.sourceforge.net/DTD/sodipodi-0.dtd"
   xmlns:inkscape="http://www.inkscape.org/namespaces/inkscape"
   version="1.1"
   id="svg2949"
   width="283"
   height="443"
   viewBox="0 0 283 443"
   sodipodi:docname="feu77.svg"
   inkscape:version="0.92.4 (5da689c313, 2019-01-14)">
  <metadata
     id="metadata2955">
    <rdf:RDF>
      <cc:Work
         rdf:about="">
        <dc:format>image/svg+xml</dc:format>
        <dc:type
           rdf:resource="http://purl.org/dc/dcmitype/StillImage" />
        <dc:title />
      </cc:Work>
    </rdf:RDF>
  </metadata>
  <defs
     id="defs2953" />
  <sodipodi:namedview
     pagecolor="#ffffff"
     bordercolor="#666666"
     borderopacity="1"
     objecttolerance="10"
     gridtolerance="10"
     guidetolerance="10"
     inkscape:pageopacity="0"
     inkscape:pageshadow="2"
     inkscape:window-width="1920"
     inkscape:window-height="1017"
     id="namedview2951"
     showgrid="false"
     inkscape:zoom="1.5067919"
     inkscape:cx="112.64858"
     inkscape:cy="221.5"
     inkscape:window-x="-8"
     inkscape:window-y="-8"
     inkscape:window-maximized="1"
     inkscape:current-layer="svg2949"
     showguides="false" />
  <g
     id="g108"
     transform="translate(1.3273233,-0.66366155)"
     style="fill:#00ff00">
    <path
       style="fill:#00ff00"
       d="m 126.12913,347.96403 c -8.50145,-9.12524 3.74819,-19.11885 12.59317,-10.27388 1.929,1.929 2.3631,3.13428 1.87623,5.20934 -1.51921,6.47489 -10.29406,9.54625 -14.4694,5.06454 z m 30.21834,-0.56312 c -2.24675,-0.43635 -5.01168,-6.25092 -4.42314,-9.30175 0.5972,-3.09572 4.40534,-6 7.86731,-6 4.2466,0 9.24876,4.58018 9.24876,8.46853 0,5.4614 -5.2377,8.2811 -12.69293,6.83322 z m -55.66105,-4.754 c -5.11688,-4.74217 -2.917066,-11.74354 4.13281,-13.15352 4.95306,-0.99061 7.80837,0.21609 9.63884,4.07352 1.50509,3.17174 1.51499,3.76179 0.10873,6.48119 -2.88778,5.58436 -9.35282,6.79481 -13.88038,2.59881 z m 80.60398,-3.76719 c -5.4003,-5.78303 -0.92112,-14.64345 6.72313,-13.29924 4.37686,0.76966 7.03674,3.76583 6.99507,7.87946 -0.0466,4.59524 -2.1939,6.79868 -7.16378,7.35094 -3.61211,0.40138 -4.66631,0.0908 -6.55442,-1.93116 z M 72.120774,331.34916 c -1.177659,-0.9625 -2.406026,-3.40444 -2.729705,-5.42652 -0.490314,-3.06312 -0.159125,-4.10593 1.98496,-6.25 7.218673,-7.21869 18.670635,1.12731 12.972339,9.45402 -0.930619,1.35987 -2.168119,2.80311 -2.75,3.20719 -1.938101,1.34589 -7.308769,0.7879 -9.477594,-0.98469 z m 136.669606,-4.33011 c -2.69911,-1.57208 -4.88059,-6.55133 -4.14838,-9.46867 1.48027,-5.89787 10.90396,-7.36686 14.67932,-2.28827 4.69647,6.31768 -3.72587,15.72054 -10.53094,11.75694 z m -64.66842,-7.28792 c -2.82784,-4.57555 -2.61771,-7.24966 0.84152,-10.70889 3.62524,-3.62523 6.9683,-3.7268 11.00019,-0.33418 6.26857,5.27465 2.59381,14.41111 -5.79626,14.41111 -3.42189,0 -4.24851,-0.46053 -6.04545,-3.36804 z m -25.4452,-1.26833 c -5.25978,-5.25977 -1.704,-13.36364 5.86364,-13.36364 7.86226,0 11.28945,8.47504 5.42327,13.41111 -3.97679,3.34626 -7.90973,3.3297 -11.28691,-0.0475 z m 52.30805,-3.01553 c -2.10586,-0.5684 -4.94441,-5.57074 -4.94441,-8.71344 0,-5.84781 8.14447,-8.66867 13.30603,-4.60857 3.25828,2.56296 4.128,5.26765 2.63233,8.18614 -2.39549,4.67428 -6.17052,6.43782 -10.99395,5.13587 z M 52.46462,313.85613 c -7.836329,-4.14383 -6.768598,-16.21327 1.413738,-15.98064 5.008493,0.14241 7.07442,1.15355 8.673013,4.24489 1.966589,3.80296 1.880306,5.21165 -0.504947,8.24401 -2.553039,3.24566 -6.989707,4.86245 -9.581804,3.49174 z m 40.01782,-3.52228 c -2.004468,-1.39197 -4.442036,-5.68448 -4.442036,-7.82233 0,-3.07381 3.494366,-7.08254 6.70954,-7.69717 8.123626,-1.55292 12.370376,7.35874 6.367376,13.36174 -2.807951,2.80796 -6.404417,3.70668 -8.63488,2.15776 z m 135.92204,-0.40428 c -2.15965,-1.04571 -4.36408,-4.74852 -4.36408,-7.33041 0,-4.61828 4.65668,-8.5 10.19697,-8.5 2.34671,0 6.80303,4.65017 6.80303,7.09897 0,3.1073 -2.05783,6.50399 -4.9895,8.23576 -3.18856,1.88354 -4.59227,1.97452 -7.64642,0.49568 z m -36.4973,-6.30078 c -5.26554,-2.94175 -4.44059,-12.90046 1.23395,-14.89609 1.42785,-0.50215 4.27346,-0.59832 6.32359,-0.21371 3.03308,0.569 4.00101,1.35389 5.19568,4.21313 1.69857,4.06525 1.2487,6.20231 -1.93526,9.19349 -3.01067,2.82838 -7.53028,3.53994 -10.81796,1.70318 z M 69.394267,294.92502 c -3.186806,-1.54251 -5.857469,-8.01634 -4.417193,-10.70753 4.210061,-7.86657 16.06333,-5.63258 16.06333,3.02746 0,3.47678 -4.508958,8.87517 -7.338894,8.78653 -1.188608,-0.0372 -3.126867,-0.53513 -4.307243,-1.10646 z m 79.519203,0.40755 c -5.53594,-0.72176 -8.80794,-7.83396 -5.9951,-13.03128 2.54619,-4.70461 10.66478,-5.07512 13.58393,-0.61992 4.11271,6.27677 -0.50054,14.57534 -7.58883,13.6512 z M 29.984033,290.8763 c -3.752529,-4.10849 -3.724051,-7.15056 0.102762,-10.97738 2.632165,-2.63216 3.549981,-2.96623 6.75,-2.45683 4.336051,0.69022 8.203609,4.5984 8.203609,8.28976 0,1.45321 -1.238198,3.75935 -2.923077,5.44423 -4.057824,4.05784 -8.247788,3.9543 -12.133294,-0.29978 z m 86.979447,0.29978 c -1.6077,-1.60769 -2.92308,-3.88003 -2.92308,-5.04965 0,-6.90062 7.48375,-11.62672 13.12967,-8.2916 5.8421,3.45101 5.6645,10.5902 -0.35474,14.26013 -4.43864,2.70624 -6.41067,2.52232 -9.85185,-0.91888 z m 128.02133,-1.72881 c -2.72552,-0.73566 -5.20725,-6.1335 -4.51544,-9.82118 1.82965,-9.75288 16.57103,-7.99562 16.57103,1.97536 0,6.07934 -5.45281,9.62804 -12.05559,7.84582 z m -74.88472,-2.81617 c -2.65719,-1.42208 -4.97179,-5.09706 -5.02425,-7.97722 -0.0195,-1.06991 1.17375,-3.20741 2.65165,-4.75 3.49594,-3.64897 8.96368,-3.8698 12.1386,-0.49027 4.60782,4.90481 1.79578,11.59835 -5.87607,13.98689 -0.85271,0.26548 -2.60318,-0.0807 -3.88993,-0.7694 z m 42.21231,-1.74262 c -2.26643,-1.09386 -2.62281,-1.80412 -3.77207,-7.51781 -1.34424,-6.68297 7.96098,-10.8432 13.86521,-6.19893 4.5025,3.54167 3.28533,10.50545 -2.34512,13.41707 -3.36532,1.74027 -4.65947,1.79033 -7.74802,0.29967 z m -114.759623,-2.0024 c -3.028818,-1.75586 -5.44208,-5.04169 -5.479104,-7.46019 -0.0183,-1.19531 1.172477,-3.60623 2.646166,-5.35761 2.408159,-2.86193 3.090518,-3.12919 6.739781,-2.63972 4.7094,0.63167 7.58078,3.54805 7.58078,7.6996 0,4.16918 -0.92949,5.88318 -4.07152,7.50799 -3.36562,1.74043 -4.76376,1.78754 -7.416103,0.24993 z m -43.242448,-7.5641 c -2.939031,-0.47009 -6.269925,-4.81071 -6.269925,-8.17059 0,-1.6568 1.118774,-3.7499 2.933837,-5.48884 2.453237,-2.35034 3.48932,-2.70659 6.324796,-2.17464 6.728167,1.26221 9.780375,7.25515 6.256999,12.28548 -1.699938,2.427 -5.982223,4.07058 -9.245707,3.54859 z M 187.07936,270.9106 c -4.1854,-4.49249 -1.04284,-11.96004 5.59304,-13.29055 6.99135,-1.40177 11.56592,8.28119 6.368,13.47911 -2.81779,2.81779 -9.25474,2.71631 -11.96104,-0.18856 z M 19.040404,268.39978 c -4.21458,-1.52144 -6.02813,-6.95001 -3.889728,-11.6433 2.375057,-5.21268 8.698484,-6.00241 13.068742,-1.63215 3.674954,3.67495 3.306252,7.03836 -1.230484,11.22483 -2.892211,2.66891 -4.842192,3.17198 -7.94853,2.05062 z m 119.335616,-3.87409 c -2.11107,-2.11107 -2.47095,-3.20516 -2.00293,-6.08923 1.08838,-6.70692 5.52567,-9.32622 11.20847,-6.61628 3.77579,1.80055 5.08428,4.65088 4.04181,8.80442 -1.62529,6.47567 -8.61456,8.53388 -13.24735,3.90109 z m 116.75672,-0.82824 c -1.24096,-1.32094 -2.49403,-4.17423 -2.78461,-6.34066 -0.45943,-3.42531 -0.17035,-4.22053 2.21683,-6.09829 3.88657,-3.05718 8.78471,-2.85291 11.40286,0.47552 6.29951,8.00852 -3.93472,19.30853 -10.83508,11.96343 z M 75.214718,262.78471 c -4.735848,-5.04107 -1.64618,-13.68555 4.891427,-13.68555 4.118021,0 6.609682,1.47166 8.420526,4.97344 3.950974,7.64034 -7.362779,15.04471 -13.311953,8.71211 z m 42.255352,-1.65025 c -6.03441,-2.44231 -6.94647,-11.68245 -1.43448,-14.53281 4.01839,-2.07799 6.47049,-1.88287 9.39412,0.74751 3.88796,3.498 3.87309,8.67555 -0.0353,12.29775 -2.76752,2.56485 -4.47199,2.88481 -7.92431,1.48755 z m 109.57033,0.27072 c -4.63564,-1.65674 -5.5495,-9.84742 -1.54545,-13.85147 2.63057,-2.63058 4.93245,-3.01831 8.91955,-1.50242 3.75153,1.42634 4.90665,4.29152 3.63463,9.01545 -1.53701,5.70801 -5.84019,8.18564 -11.00873,6.33844 z m -64.63592,-2.47561 c -2.31523,-1.12106 -4.36408,-4.79317 -4.36408,-7.8217 0,-1.04345 1.05378,-3.12227 2.34174,-4.61961 2.93543,-3.41264 7.18069,-3.57741 11.57384,-0.44921 2.72864,1.94297 3.14828,2.79787 2.88843,5.8845 -0.23736,2.81959 -1.04891,4.11158 -3.70189,5.89345 -3.69068,2.47881 -5.45302,2.70321 -8.73804,1.11257 z M 39.963481,249.17608 c -4.404429,-4.40443 -3.894416,-10.00614 1.148444,-12.61391 3.923177,-2.02875 5.312731,-1.85201 8.851754,1.12588 4.083318,3.43589 4.137727,7.50395 0.153648,11.48803 -1.607692,1.6077 -3.892308,2.92308 -5.076923,2.92308 -1.184615,0 -3.469231,-1.31538 -5.076923,-2.92308 z m 162.413689,1.44641 c -4.8049,-3.36548 -3.23534,-12.08006 2.61193,-14.50208 2.74897,-1.13866 3.6762,-1.09368 6.64572,0.32239 1.89806,0.90512 3.87325,2.75624 4.38932,4.1136 2.7949,7.35114 -7.10146,14.65074 -13.64697,10.06609 z M 99.310334,245.38371 c -1.226546,-0.23014 -3.174216,-1.61871 -4.328161,-3.08571 -4.156546,-5.28419 -0.180795,-12.19884 7.014027,-12.19884 4.85922,0 7.41616,2.72594 7.22891,7.70673 -0.20607,5.48142 -4.32198,8.62719 -9.914776,7.57782 z m 40.212256,-1.22982 c -4.68603,-1.90082 -5.78476,-10.58602 -1.72873,-13.66521 2.28445,-1.73428 8.25569,-1.69789 10.58126,0.0645 1.0091,0.76472 2.07686,3.19568 2.37281,5.40214 0.46443,3.46259 0.15908,4.36299 -2.23074,6.5778 -2.82396,2.61715 -5.39582,3.0806 -8.9946,1.6208 z m -74.982186,-2.73335 c -1.131094,-0.22975 -2.849211,-2.16473 -3.954666,-4.45383 -1.7744,-3.6743 -1.817161,-4.29289 -0.463672,-6.70757 3.193676,-5.69763 10.969371,-6.45315 14.906152,-1.44834 2.398822,3.04961 2.49182,4.46017 0.542571,8.2296 -1.244024,2.40568 -6.35814,5.39213 -8.429608,4.92258 -0.330427,-0.0749 -1.500777,-0.31899 -2.600777,-0.54244 z m 112.864076,-0.51639 c -4.34864,-2.05389 -5.66118,-8.98158 -2.45243,-12.94421 1.51504,-1.87099 2.8803,-2.36078 6.58061,-2.36078 5.53167,0 7.50774,1.97846 7.50774,7.51682 0,5.84489 -6.51613,10.20628 -11.63592,7.78817 z m 85.76411,-2.98282 c -5.17463,-4.8361 -4.13267,-12.57915 1.97944,-14.70985 3.83887,-1.33823 7.32113,0.1057 9.63218,3.99404 1.94596,3.27405 1.0617,7.24633 -2.30836,10.36959 -3.82221,3.54231 -5.80452,3.61609 -9.30326,0.34622 z m -249.769639,0.7326 c -3.8065702,-1.65635 -6.1415608,-7.22318 -4.3970199,-10.48288 2.5880139,-4.83575 10.6406939,-5.66434 13.9658929,-1.43703 3.486128,4.43189 2.329866,9.14649 -2.907404,11.85479 -3.429191,1.7733 -2.751037,1.76667 -6.661469,0.0651 z m 106.880419,-0.26195 c -2.27643,-0.43777 -5.23897,-4.83629 -5.23897,-7.77834 0,-2.56424 2.92101,-6.27784 5.4341,-6.90858 3.05989,-0.76799 8.35296,1.1277 9.58701,3.43354 1.84917,3.4552 1.1402,7.68851 -1.65597,9.88798 -2.59757,2.04325 -3.66698,2.22294 -8.12617,1.3654 z m 113.93534,-2.60727 c -3.30567,-3.51872 -3.05779,-10.84544 0.46055,-13.61297 3.62309,-2.84993 7.87263,-2.656 11.03207,0.50344 2.19987,2.19988 2.4943,3.18526 2.01638,6.74844 -1.02681,7.6554 -8.83775,11.3334 -13.509,6.36109 z m -77.72101,-1.95793 c -2.33936,-1.17363 -4.4533,-5.10982 -4.4533,-8.29213 0,-5.41648 7.41787,-9.88175 12.19135,-7.33872 6.00233,3.19769 6.55312,9.16438 1.27385,13.79964 -3.65647,3.21042 -5.51145,3.58736 -9.0119,1.83121 z m 57.5467,-4.43385 c -6.08743,-2.22529 -7.93757,-9.44711 -3.54545,-13.83922 2.99969,-2.9997 6.41533,-3.13134 9.91059,-0.38197 2.64302,2.079 3.50151,6.5054 2.01368,10.38262 -0.51235,1.33517 -5.53125,4.74193 -6.57916,4.46585 -0.16481,-0.0434 -0.97466,-0.32569 -1.79966,-0.62728 z M 37.397403,224.10758 c -3.214252,-1.29711 -5.356999,-4.99527 -5.356999,-9.24562 0,-3.20523 0.503041,-4.09891 3.25,-5.77376 4.127464,-2.51656 6.81753,-2.51036 10.038363,0.0232 5.066949,3.98566 3.966337,12.18384 -2.000687,14.9026 -2.747889,1.25202 -3.04842,1.25676 -5.930677,0.0936 z m 51.108283,-1.98459 c -4.554763,-1.79105 -6.68703,-8.51025 -4.001365,-12.6091 4.593705,-7.01088 15.600319,-4.13188 15.834849,4.14192 0.16305,5.75209 -6.540378,10.54858 -11.833484,8.46718 z m 50.158054,-1.11516 c -4.9771,-1.3901 -6.92958,-4.38082 -6.16941,-9.44998 0.77096,-5.14114 4.20585,-8.45868 8.75785,-8.45868 3.91757,0 8.78822,4.82208 8.78822,8.70057 0,5.78812 -6.06003,10.69302 -11.37666,9.20809 z m -29.39438,-5.57796 c -0.69907,-0.28127 -1.96238,-1.84829 -2.80734,-3.48229 -2.31485,-4.47641 -0.43564,-9.35866 4.1898,-10.88519 4.46643,-1.47406 7.93184,-0.58993 9.98805,2.54823 2.09609,3.19905 1.13417,8.86127 -1.8619,10.9598 -2.11019,1.47804 -6.89603,1.91061 -9.50861,0.85945 z m 71.3776,-0.82764 c -1.25435,-0.94954 -2.05432,-3.10757 -2.37006,-6.39358 -0.41683,-4.33803 -0.15365,-5.28325 2.09798,-7.53488 2.98416,-2.98416 6.19486,-3.2765 9.69301,-0.88256 3.46081,2.36837 3.93979,3.28868 3.9572,7.60341 0.0284,7.03288 -7.93871,11.32523 -13.37813,7.20761 z M 61.28133,212.84916 c -3.383725,-3.61217 -4.224486,-6.88382 -2.700479,-10.50836 2.1933,-5.21633 9.204916,-6.08203 13.209553,-1.63095 2.984666,3.31741 2.859004,7.5121 -0.338894,11.31258 -3.150783,3.7445 -7.133654,4.06826 -10.17018,0.82673 z m 203.89473,0.51884 c -6.23317,-3.01881 -6.52949,-12.40147 -0.47874,-15.15837 6.61735,-3.01508 12.37421,0.6203 12.31128,7.77439 -0.0592,6.73406 -5.79017,10.3104 -11.83254,7.38398 z M 9.4044858,211.92957 C 4.844605,209.72164 3.4860652,201.30127 7.26291,198.65586 c 3.058135,-2.142 10.052457,-2.02937 12.004226,0.1933 3.836451,4.36895 2.871257,10.11373 -2.134111,12.7021 -3.418079,1.76756 -4.727091,1.83164 -7.7285392,0.37831 z M 159.26554,211.42859 c -1.9131,-0.76933 -4.07049,-6.68761 -3.50884,-9.62567 0.66367,-3.4718 3.28863,-5.66802 7.61328,-6.36982 3.05871,-0.49636 4.01951,-0.1387 6.62403,2.46582 3.75205,3.75206 3.88757,7.0471 0.4575,11.12351 -2.06015,2.44835 -3.33663,3.06061 -6.25,2.99778 -2.01361,-0.0434 -4.2348,-0.30965 -4.93597,-0.59162 z m 75.27007,-3.74331 c -4.3756,-4.3756 -4.53046,-11.42652 -0.30068,-13.69023 1.19401,-0.63901 3.93367,-1.20805 6.08814,-1.26455 4.90074,-0.12851 7.73207,2.90321 7.68553,8.22944 -0.0687,7.85995 -8.253,11.94534 -13.47299,6.72534 z m -27.86035,-5.6587 c -3.71885,-2.92524 -3.71339,-9.02337 0.0112,-12.47517 8.31383,-7.705 19.35381,4.54792 11.32854,12.57319 -2.60306,2.60306 -7.96475,2.55671 -11.3397,-0.098 z M 92.199792,197.49825 c -7.441841,-5.21247 -2.156775,-16.54857 6.873212,-14.74257 3.906046,0.78121 7.166116,5.56884 6.334696,9.30293 -1.3158,5.90953 -8.382096,8.81977 -13.207908,5.43964 z m 29.486628,-1.85134 c -7.6589,-7.09802 2.58205,-17.87579 10.82471,-11.39212 2.32874,1.8318 2.65541,2.67961 2.17446,5.64341 -1.21971,7.51618 -7.90292,10.47175 -12.99917,5.74871 z m 25.6103,0.42343 c -3.66353,-1.47289 -6.22385,-6.59404 -5.16097,-10.32296 1.09892,-3.85536 3.37211,-5.64822 7.16152,-5.64822 6.05949,0 9.25363,3.76189 8.15708,9.607 -0.47558,2.53505 -1.58184,4.13412 -3.79269,5.48225 -3.50768,2.1389 -3.30746,2.11116 -6.36494,0.88193 z M 36.941614,192.9934 c -5.455797,-5.84045 -2.431866,-13.89424 5.216825,-13.89424 8.250842,0 11.755832,8.27998 5.958888,14.07692 -3.879174,3.87918 -7.435681,3.82104 -11.175713,-0.18268 z m 136.873926,-3.45304 c -3.67191,-1.99268 -4.99017,-4.77807 -4.21554,-8.90723 1.10327,-5.88088 7.38495,-8.3204 12.46789,-4.84192 3.36106,2.30009 3.94461,3.31218 3.92539,6.80796 -0.0186,3.38695 -1.43814,5.63286 -4.63714,7.33666 -2.80518,1.49404 -4.1929,1.42127 -7.5406,-0.39547 z M 67.629298,187.02243 c -1.423892,-1.69219 -2.587212,-3.82969 -2.585156,-4.75 0.006,-2.67515 3.802936,-8.16299 5.731564,-8.28396 7.168635,-0.44965 10.264698,1.70116 10.264698,7.13082 0,8.50996 -8.185788,12.11308 -13.411106,5.90314 z m -54.625023,-3.80555 c -2.541018,-2.54102 -3.0314522,-3.75194 -2.775168,-6.85209 0.268509,-3.24805 0.838242,-4.02299 4.145032,-5.63799 4.465279,-2.18081 7.494682,-1.34533 10.223611,2.81954 2.816286,4.29819 -0.294107,10.81372 -5.782178,12.11227 -2.191569,0.51856 -3.328868,0.0407 -5.811297,-2.44173 z m 216.210435,-2.43217 c -2.36274,-2.51503 -2.94258,-8.38151 -1.15799,-11.71604 0.55897,-1.04445 2.78858,-2.42999 4.95467,-3.07897 4.94889,-1.48272 8.29787,0.36404 9.99711,5.51281 2.80318,8.49372 -7.81923,15.64182 -13.79379,9.2822 z m 29.068,0.36466 c -1.46228,-1.21976 -2.47518,-3.47001 -2.87502,-6.38716 -0.5413,-3.94924 -0.29964,-4.82161 1.96224,-7.08349 5.66557,-5.66557 15.07047,-1.87472 15.07047,6.07449 0,2.79062 -0.72255,4.24495 -3.21578,6.47265 -3.73701,3.33903 -7.65018,3.6693 -10.94191,0.92351 z m -152.63007,-1.92618 c -2.82278,-3.11915 -3.19319,-8.54308 -0.75025,-10.98602 4.3811,-4.3811 11.13885,-3.97086 13.61982,0.82682 2.1227,4.10485 1.90137,6.32967 -0.93406,9.38915 -3.04901,3.28994 -9.29061,3.69263 -11.93551,0.77005 z m 93.1789,-2.80543 c -2.7011,-0.71034 -5.96861,-6.76331 -5.23305,-9.69404 1.40917,-5.61458 9.6705,-7.48688 13.98736,-3.17001 6.2524,6.25239 0.15799,15.20783 -8.75431,12.86405 z m -45.47622,-3.48818 c -1.20179,-0.59296 -2.82265,-2.39456 -3.6019,-4.00355 -2.87194,-5.92988 0.7256,-11.82687 7.21515,-11.82687 4.69591,0 7.85638,2.41465 8.66838,6.6228 1.12198,5.81463 -6.92745,11.84935 -12.28163,9.20762 z m -27.24234,-2.46528 c -4.47266,-5.68607 -0.80585,-13.36514 6.38197,-13.36514 5.20284,0 7.93146,3.08538 7.24629,8.19371 -0.7254,5.40831 -3.1163,7.80629 -7.78325,7.80629 -2.88435,0 -4.26034,-0.62028 -5.84501,-2.63486 z m -78.966821,-5.26635 c -3.722655,-3.47748 -4.011551,-7.00099 -0.855755,-10.43716 3.545699,-3.86071 7.901086,-4.8561 11.546917,-2.63894 3.468483,2.10931 4.672446,4.9578 3.719247,8.79948 -1.811912,7.30256 -8.914627,9.41045 -14.410409,4.27662 z m 32.34879,0.44667 c -3.495881,-3.49588 -3.257604,-7.69194 0.62218,-10.95656 3.422801,-2.88009 5.254251,-3.15097 8.884351,-1.31402 1.588701,0.80393 2.711782,2.4712 3.168349,4.70356 1.676801,8.19864 -6.914296,13.32761 -12.67488,7.56702 z m -60.34075,-8.12791 c -2.935635,-3.73206 -3.504185,-6.31957 -2.004364,-9.12201 2.736469,-5.11314 9.716794,-6.35031 14.140569,-2.50623 2.036406,1.76955 2.31479,7.89224 0.468197,10.29736 -3.431721,4.46969 -9.621328,5.12324 -12.604402,1.33088 z m 154.573291,-2.22226 c -5.57846,-5.82267 -1.7522,-13.76801 6.52577,-13.55095 7.59385,0.19912 10.3862,7.91046 4.86406,13.43259 -3.82733,3.82734 -7.79688,3.86859 -11.38983,0.11836 z m 40.76516,0.1587 c -3.65351,-3.9422 -3.38701,-9.38964 0.62448,-12.76509 4.16742,-3.50665 8.27371,-3.3923 12.00019,0.33419 3.26705,3.26704 3.71514,6.64457 1.46007,11.0054 -1.68349,3.2555 -3.32024,4.07152 -8.16653,4.07152 -2.46352,0 -4.17521,-0.7653 -5.91821,-2.64602 z m 34.24394,-1.487 c -2.82852,-3.22344 -3.03479,-3.81821 -2.72836,-7.86698 0.25045,-3.3092 2.80335,-5.80424 6.74558,-6.59268 2.70467,-0.54094 3.69181,-0.15595 6.30782,2.46007 5.5001,5.50009 2.97617,12.71334 -5.07504,14.50418 -1.99733,0.44426 -3.1413,-0.10147 -5.25,-2.50459 z M 99.494954,151.64462 c -4.905975,-4.90597 -2.259257,-11.74106 5.079546,-13.11782 7.93385,-1.4884 12.43968,6.85898 6.8511,12.69219 -3.58224,3.73906 -8.44379,3.9125 -11.930646,0.42563 z m 51.295446,-5.66055 c -4.04402,-3.01717 -3.89178,-8.74638 0.32673,-12.29602 4.81277,-4.04968 9.93918,-3.39258 12.52368,1.60528 1.96563,3.80111 1.0311,8.16393 -2.31205,10.79364 -3.24597,2.55329 -7.02768,2.51636 -10.53836,-0.1029 z m -84.998126,-2.13988 c -1.511471,-1.23477 -3.026615,-3.6895 -3.366987,-5.45497 -0.517792,-2.68572 -0.122388,-3.7064 2.421207,-6.25 4.905349,-4.90534 11.733574,-3.97984 14.17808,1.92172 1.640352,3.96016 -0.12359,8.54184 -4.075364,10.58538 -3.869516,2.001 -5.948576,1.81888 -9.156936,-0.80213 z m 60.288186,-0.55112 c -5.51195,-5.51195 -2.85235,-12.53872 5.24308,-13.85243 2.94617,-0.4781 4.01958,-0.12967 6.14339,1.99414 5.105,5.105 2.32126,12.76482 -5.18454,14.26598 -2.64245,0.52849 -3.66126,0.13297 -6.20193,-2.40769 z m 70.32402,-6.3635 c -4.74146,-2.29586 -5.70631,-9.57909 -1.78806,-13.49734 2.18006,-2.18006 3.20031,-2.49228 6.63758,-2.03125 6.0209,0.80758 7.55045,3.22486 6.92754,10.94818 -0.37066,4.59576 -6.67865,7.0491 -11.77706,4.58041 z M 36.330325,135.63173 c -2.41419,-1.7369 -3.867528,-7.13733 -2.814033,-10.4566 0.735279,-2.31666 5.3117,-5.07597 8.418688,-5.07597 1.096643,0 3.234808,1.06739 4.751478,2.37197 3.35651,2.88715 3.674717,8.7517 0.639548,11.78687 -2.664636,2.66464 -8.234242,3.36047 -10.995681,1.37373 z m 194.779855,-4.46738 c -2.94613,-2.7521 -3.25684,-3.53073 -2.72773,-6.83554 0.74825,-4.6736 3.78681,-7.22964 8.59442,-7.22964 10.23986,0 10.69069,14.63756 0.51085,16.5866 -2.48501,0.47578 -3.67095,0.007 -6.37754,-2.52142 z M 87.230103,127.8011 c -1.187411,-1.26395 -2.443496,-3.72093 -2.791301,-5.45994 -0.528491,-2.64245 -0.132972,-3.66126 2.407692,-6.20193 5.239401,-5.2394 11.683823,-3.1051 12.86331,4.26015 0.521186,3.25448 0.20275,4.2238 -2.217501,6.75 -3.440239,3.59083 -7.27241,3.8342 -10.2622,0.65172 z m 80.817747,-6.34622 c -2.61796,-2.9817 -3.09154,-4.20897 -2.60466,-6.75 1.81798,-9.48816 16.84256,-10.44499 19.15787,-1.22006 0.86505,3.44665 -2.00644,9.45314 -5.07739,10.62071 -5.04491,1.91807 -8.07993,1.21705 -11.47582,-2.65065 z m -54.14056,-3.01355 c -3.05645,-3.49742 -3.91775,-6.07818 -2.91167,-8.72439 2.00753,-5.28019 10.1309,-7.65979 14.04779,-4.11505 2.87294,2.59997 2.68617,8.5012 -0.35961,11.36257 -3.3119,3.11136 -8.70249,3.85012 -10.77651,1.47687 z m 30.53277,-0.77011 c -6.37009,-2.77305 -6.04066,-11.63786 0.55931,-15.05083 9.16486,-4.739335 16.81456,6.81959 9.08572,13.72878 -3.42801,3.06445 -5.11219,3.29532 -9.64503,1.32205 z M 54.230103,114.8011 c -3.346824,-3.56255 -3.761382,-7.70545 -1.108515,-11.07802 1.975034,-2.51085 2.710708,-2.78104 6.271655,-2.30342 5.26311,0.70593 7.90099,3.87469 7.205352,8.65544 -0.938951,6.4529 -8.155622,9.21038 -12.368492,4.726 z m 157.004977,-1.19158 c -4.2053,-3.53853 -4.29955,-7.55934 -0.2716,-11.58728 3.72963,-3.729625 8.1818,-3.909105 11.62237,-0.46853 4.94813,4.94813 2.31235,13.06905 -4.60077,14.17512 -2.89224,0.46275 -4.15114,0.0675 -6.75,-2.11931 z M 77.146159,99.197955 c -3.836869,-3.58417 -3.987615,-6.9442 -0.469391,-10.46243 6.729622,-6.72962 17.144319,-0.0463 13.742455,8.81884 -0.737927,1.923 -5.481826,4.544795 -8.223404,4.544795 -1.069147,0 -3.341494,-1.30554 -5.04966,-2.901205 z m 109.346491,-0.74481 c -3.17092,-3.42148 -3.12266,-7.40379 0.13664,-11.27725 5.2057,-6.18663 15.41111,-2.74927 15.41111,5.19072 0,7.712765 -10.30273,11.745995 -15.54775,6.08653 z m -79.52917,-8.27706 c -1.6077,-1.60769 -2.92308,-3.61152 -2.92308,-4.45294 0,-2.69053 2.15414,-6.37157 4.36046,-7.45126 4.77149,-2.334996 6.37,-2.270401 9.52568,0.38492 4.1217,3.46819 4.18883,7.52124 0.19078,11.51928 -3.79299,3.793 -7.36085,3.793 -11.15384,0 z m 57.93298,1.4302 c -5.42969,-2.998 -5.59101,-11.93996 -0.25923,-14.369284 3.956,-1.802476 8.86147,-1.393887 10.94818,0.911904 5.97163,6.59857 -2.89454,17.76106 -10.68895,13.45738 z m -27.93298,-4.4302 c -3.28823,-3.28822 -3.75125,-6.88335 -1.3571,-10.53728 1.85,-2.823451 6.36041,-4.616588 9.61584,-3.822822 7.69612,1.876536 8.93778,12.101492 1.9108,15.735282 -4.36237,2.25587 -6.87877,1.91559 -10.16954,-1.37518 z"
       id="path112"
       inkscape:connector-curvature="0" />
    <path
       style="fill:#00ff00"
       d="m 128.8529,349.41606 c 0.72187,-0.28887 1.58437,-0.25336 1.91667,0.0789 0.33229,0.33229 -0.25834,0.56864 -1.3125,0.52522 -1.16495,-0.048 -1.4019,-0.28494 -0.60417,-0.60415 z m 33.88827,-2.42291 c 3.58639,-1.03718 4.2966,-1.87338 5.35645,-6.30669 l 0.73806,-3.0873 0.10236,2.79546 c 0.12613,3.44461 -3.88119,7.74091 -7.10219,7.61435 -1.84245,-0.0724 -1.66379,-0.27285 0.90532,-1.01582 z m -24.13648,-1.18712 c 0.37553,-0.98622 0.93469,-1.54122 1.24258,-1.23333 0.30789,0.30789 6.4e-4,1.1148 -0.68278,1.79313 -0.98762,0.98026 -1.10248,0.8654 -0.5598,-0.5598 z m 15.41565,-0.23104 c -0.69572,-0.83828 -1.07128,-1.71782 -0.83459,-1.95452 0.2367,-0.23669 0.97964,0.44918 1.65098,1.52417 1.45181,2.32473 0.96763,2.57996 -0.81639,0.43035 z m -51.47286,-1.46438 c -0.35034,-0.56686 0.0511,-0.7345 0.94098,-0.39301 1.73242,0.66479 2.04939,1.38156 0.61096,1.38156 -0.51754,0 -1.21592,-0.44485 -1.55194,-0.98855 z m 20.49292,-3.73399 c 0,-0.58074 0.92671,-2.11824 2.05935,-3.41668 l 2.05935,-2.36078 -1.75669,3 c -2.31206,3.94843 -2.36201,4.00717 -2.36201,2.77746 z m 64.8125,0.0394 c 0.72187,-0.28887 1.58437,-0.25336 1.91667,0.0789 0.33229,0.33229 -0.25834,0.56864 -1.3125,0.52522 -1.16495,-0.048 -1.4019,-0.28494 -0.60417,-0.60416 z m -73.79719,-1.50788 c -0.008,-0.93004 0.43469,-1.9691 0.98469,-2.30902 1.2656,-0.78217 1.2656,0.54164 0,2.5 -0.8354,1.29269 -0.97149,1.26629 -0.98469,-0.19098 z m 23.85713,-1.55898 c -1.24387,-1.58606 -1.2085,-1.62142 0.37756,-0.37756 0.9625,0.75485 1.75,1.54235 1.75,1.75 0,0.82304 -0.82119,0.29331 -2.12756,-1.37244 z m 14.12756,0.0717 c 0,-0.55642 1.0125,-1.86892 2.25,-2.91666 l 2.25,-1.90499 -1.98934,2.5 c -1.09414,1.375 -2.10664,2.6875 -2.25,2.91668 -0.14336,0.22916 -0.26066,-0.0386 -0.26066,-0.59503 z m 13.87244,-2.07165 c -1.24387,-1.58606 -1.2085,-1.62142 0.37756,-0.37756 1.66575,1.30637 2.19548,2.12756 1.37244,2.12756 -0.20765,0 -0.99515,-0.7875 -1.75,-1.75 z m 13.20651,0.16668 c 0.048,-1.16495 0.28494,-1.40191 0.60416,-0.60418 0.28887,0.72188 0.25335,1.58438 -0.0789,1.91668 -0.3323,0.33228 -0.56864,-0.25834 -0.52522,-1.3125 z m -47.26645,-1.09978 c 0.72187,-0.28887 1.58437,-0.25336 1.91667,0.0789 0.33229,0.33229 -0.25834,0.56864 -1.3125,0.52522 -1.16495,-0.048 -1.4019,-0.28494 -0.60417,-0.60415 z m -32.312496,-2.3169 c 0.995486,-1.1 2.190226,-2 2.654986,-2 0.46475,0 -0.055,0.9 -1.15499,2 -1.099996,1.1 -2.29474,2 -2.654984,2 -0.360243,0 0.159502,-0.9 1.154988,-2 z m -25.416667,0.6376 c 0.229167,-0.19934 2.418279,-0.61847 4.864694,-0.93142 2.877588,-0.3681 3.936781,-0.24555 3,0.3471 -1.336416,0.84548 -8.802714,1.40019 -7.864694,0.58432 z m 106.416663,-4.6376 c 0.99549,-1.1 2.03498,-2 2.30998,-2 0.275,0 -0.31449,0.9 -1.30998,2 -0.99549,1.1 -2.03498,2 -2.30998,2 -0.275,0 0.31449,-0.9 1.30998,-2 z m 11.05887,-0.5318 c -1.06762,-0.8075 -1.46022,-1.4682 -0.87244,-1.4682 0.58777,0 1.62888,0.67501 2.31357,1.5 1.5572,1.87633 1.06734,1.86551 -1.44113,-0.0318 z m 15.31357,-2.2182 c -1.24387,-1.58606 -1.2085,-1.62142 0.37756,-0.37756 0.9625,0.75485 1.75,1.54235 1.75,1.75 0,0.82304 -0.82119,0.29331 -2.12756,-1.37244 z m 9.12756,1.37244 c 0,-0.20765 0.7875,-0.99515 1.75,-1.75 1.58606,-1.24387 1.62143,-1.2085 0.37756,0.37756 -1.30637,1.66575 -2.12756,2.19548 -2.12756,1.37244 z m -61,-5 c 0,-0.20765 0.7875,-0.99515 1.75,-1.75 1.58606,-1.24387 1.62143,-1.2085 0.37756,0.37756 -1.30637,1.66575 -2.12756,2.19548 -2.12756,1.37244 z m -30.1875,-1.30554 c 0.72187,-0.28887 1.58438,-0.25336 1.91667,0.0789 0.33229,0.33229 -0.25834,0.56864 -1.3125,0.52522 -1.16495,-0.048 -1.4019,-0.28494 -0.60417,-0.60415 z m 79.26645,-0.90022 c 0.048,-1.16495 0.28494,-1.40191 0.60416,-0.60418 0.28887,0.72188 0.25335,1.58438 -0.0789,1.91668 -0.3323,0.33228 -0.56864,-0.25834 -0.52522,-1.3125 z m -87.73387,-3.9598 c -0.32569,-0.84873 -0.36872,-1.76657 -0.0956,-2.03966 0.27309,-0.2731 0.73656,0.4213 1.02992,1.54313 0.62315,2.38293 -0.0692,2.75089 -0.9343,0.49653 z m 56.92395,-0.14986 c 0.97297,-0.25354 2.32297,-0.23688 3,0.0371 0.67703,0.27393 -0.11903,0.48137 -1.76903,0.46098 -1.65,-0.0204 -2.20394,-0.2445 -1.23097,-0.49803 z m -42.53347,-6.56334 -1.76444,-3.24367 2.01444,2.36078 c 1.71413,2.00884 2.63029,4.1548 1.76444,4.13289 -0.1375,-0.003 -1.044,-1.46597 -2.01444,-3.25 z m 26.13727,1.6031 c -0.75463,-0.90927 -2.72223,-2.24166 -4.37244,-2.96086 -1.80925,-0.7885 -2.31191,-1.32317 -1.26617,-1.34677 1.55694,-0.0351 9.14951,5.86095 7.63822,5.93155 -0.34515,0.0161 -1.24498,-0.71464 -1.99961,-1.62392 z m 75.2105,0.28868 c 0.22917,-0.2005 1.54167,-0.90033 2.91667,-1.55516 2.35727,-1.12265 2.38918,-1.10184 0.55887,0.36453 -1.593,1.27626 -4.84786,2.39129 -3.47554,1.19063 z m -50.00438,-3.21878 c 0.048,-1.16495 0.28494,-1.4019 0.60416,-0.60417 0.28887,0.72187 0.25335,1.58438 -0.0789,1.91667 -0.3323,0.33229 -0.56864,-0.25834 -0.52522,-1.3125 z m 43.48534,-0.12354 c -0.54268,-1.4252 -0.42782,-1.54006 0.5598,-0.5598 0.68342,0.67834 0.99067,1.48524 0.68278,1.79313 -0.30789,0.30789 -0.86705,-0.24711 -1.24258,-1.23333 z M 63.198299,306.09916 c 0,-1.375 0.226973,-1.9375 0.504386,-1.25 0.277412,0.6875 0.277412,1.8125 0,2.5 -0.277413,0.6875 -0.504386,0.125 -0.504386,-1.25 z m 57.610551,-0.16845 c 0.5811,-0.5811 1.64682,-0.85979 2.36826,-0.6193 0.74895,0.24964 0.29565,0.70294 -1.05655,1.05655 -1.66335,0.43497 -2.05378,0.30482 -1.31171,-0.43725 z m -32.689499,-2.41487 c 0.04798,-1.16495 0.284941,-1.40191 0.604167,-0.60418 0.288871,0.72188 0.253344,1.58438 -0.07895,1.91668 -0.332292,0.33228 -0.568641,-0.25834 -0.52522,-1.3125 z m 106.671049,0.92104 c 0.6875,-0.2774 1.8125,-0.2774 2.5,0 0.6875,0.27741 0.125,0.5044 -1.25,0.5044 -1.375,0 -1.9375,-0.22699 -1.25,-0.5044 z m 29.44495,-1.83772 c 0.0204,-1.65 0.2445,-2.20394 0.49804,-1.23096 0.25354,0.97296 0.23687,2.32296 -0.0371,3 -0.27393,0.67702 -0.48137,-0.11904 -0.46099,-1.76904 z m -121.116,-2.08332 c 0.048,-1.16495 0.28494,-1.40191 0.60416,-0.60418 0.28887,0.72188 0.25335,1.58438 -0.0789,1.91668 -0.3323,0.33228 -0.56864,-0.25834 -0.52522,-1.3125 z m -55.078946,0.20576 c 0,-0.20765 0.7875,-0.99515 1.75,-1.75 1.586056,-1.24387 1.621426,-1.2085 0.377555,0.37756 -1.306369,1.66575 -2.127555,2.19548 -2.127555,1.37244 z m 191.564286,-1.32931 c -0.54268,-1.4252 -0.42782,-1.54006 0.5598,-0.5598 0.68342,0.67834 0.99067,1.48524 0.68278,1.79314 -0.30789,0.30788 -0.86705,-0.24712 -1.24258,-1.23334 z M 90.762626,297.04876 c 1.222222,-1.28617 2.415649,-2.13849 2.65206,-1.89404 0.23641,0.24444 -0.76359,1.29676 -2.222223,2.33849 l -2.652059,1.89405 z m 114.356724,-0.53293 c 0.048,-1.16495 0.28494,-1.4019 0.60416,-0.60417 0.28887,0.72187 0.25335,1.58438 -0.0789,1.91667 -0.3323,0.33229 -0.56864,-0.25834 -0.52522,-1.3125 z m -50.57895,-3.41667 c 0.99549,-1.1 2.03498,-2 2.30998,-2 0.275,0 -0.31449,0.9 -1.30998,2 -0.99549,1.1 -2.03498,2 -2.30998,2 -0.275,0 0.31449,-0.9 1.30998,-2 z m 77.76903,1.30701 c 0.97297,-0.25353 2.32297,-0.23687 3,0.0371 0.67703,0.27394 -0.11903,0.48138 -1.76903,0.46099 -1.65,-0.0204 -2.20394,-0.2445 -1.23097,-0.49804 z M 120.7904,293.43688 c 0.6875,-0.2774 1.8125,-0.2774 2.5,0 0.6875,0.27741 0.125,0.5044 -1.25,0.5044 -1.375,0 -1.9375,-0.22699 -1.25,-0.5044 z m 82.39426,-2.08772 c -1.0912,-2.55004 -1.06651,-2.60885 0.33949,-0.80886 0.83394,1.06761 1.51625,2.30511 1.51625,2.75 0,1.5199 -0.67833,0.81035 -1.85574,-1.94114 z m -59.94426,0.55001 c -0.66,-0.66001 -1.1478,-2.12251 -1.084,-3.25 0.11365,-2.00843 0.12597,-2.00945 0.60761,-0.05 0.27038,1.1 0.94828,2.5625 1.50644,3.25 1.29454,1.59452 0.55058,1.63063 -1.03005,0.05 z m 45.8,0.48911 c 0,-0.57433 0.7875,-1.66183 1.75,-2.41668 1.61876,-1.26951 1.63998,-1.22245 0.28297,0.62756 -0.80687,1.1 -1.59437,2.1875 -1.75,2.41668 -0.15563,0.22916 -0.28297,-0.0533 -0.28297,-0.62756 z M 27.424446,287.65757 c -0.304254,-0.79287 -0.376946,-2.25537 -0.161539,-3.25 0.244555,-1.12921 0.58685,-0.58778 0.911381,1.44159 0.544599,3.40552 0.190618,4.25922 -0.749842,1.80841 z m 170.428454,0.75849 c 0.72187,-0.28887 1.58437,-0.25336 1.91667,0.0789 0.33229,0.33229 -0.25834,0.56864 -1.3125,0.52522 -1.16495,-0.048 -1.4019,-0.28494 -0.60417,-0.60415 z m -153.617547,-2.8169 c 0.02038,-1.65 0.244498,-2.20394 0.498042,-1.23096 0.253543,0.97296 0.236869,2.32296 -0.03705,3 -0.273927,0.67702 -0.481372,-0.11904 -0.460992,-1.76904 z m 19.883998,0.91668 c 0.04798,-1.16495 0.284941,-1.40191 0.604167,-0.60418 0.288871,0.72188 0.253344,1.58438 -0.07895,1.91668 -0.332292,0.33228 -0.568641,-0.25834 -0.52522,-1.3125 z M 167.0404,284.09916 c -0.5887,-1.1 -0.84537,-2 -0.57037,-2 0.275,0 0.98167,0.9 1.57037,2 0.5887,1.1 0.84537,2 0.57037,2 -0.275,0 -0.98167,-0.9 -1.57037,-2 z m 47.75,1.33772 c 0.6875,-0.2774 1.8125,-0.2774 2.5,0 0.6875,0.27741 0.125,0.5044 -1.25,0.5044 -1.375,0 -1.9375,-0.22699 -1.25,-0.5044 z m -58.64961,-2.6332 c -1.26492,-2.10631 -1.24361,-2.12762 0.47833,-0.47833 0.99123,0.94941 1.58698,1.94144 1.3239,2.20452 -0.26308,0.26308 -1.07408,-0.5137 -1.80223,-1.72619 z m -89.600386,-0.70452 c 0.995486,-1.1 2.034975,-2 2.309975,-2 0.275,0 -0.314489,0.9 -1.309975,2 -0.995486,1.1 -2.034975,2 -2.309975,2 -0.275,0 0.314489,-0.9 1.309975,-2 z m 33.25,1.33772 c 0.687496,-0.2774 1.812496,-0.2774 2.499996,0 0.6875,0.27741 0.125,0.5044 -1.25,0.5044 -1.374996,0 -1.937496,-0.22699 -1.249996,-0.5044 z m 140.328946,-0.92104 c 0.048,-1.16495 0.28494,-1.40191 0.60416,-0.60418 0.28887,0.72188 0.25335,1.58438 -0.0789,1.91668 -0.3323,0.33228 -0.56864,-0.25834 -0.52522,-1.3125 z M 77.912849,281.34916 c -1.243871,-1.58606 -1.208501,-1.62142 0.377555,-0.37756 0.9625,0.75485 1.75,1.54235 1.75,1.75 0,0.82304 -0.821186,0.29331 -2.127555,-1.37244 z m -48.372445,-1.25 c 0.995486,-1.1 2.034975,-2 2.309975,-2 0.275,0 -0.314489,0.9 -1.309975,2 -0.995486,1.1 -2.034975,2 -2.309975,2 -0.275,0 0.314489,-0.9 1.309975,-2 z m 135.694946,-1.5 c 0.0204,-1.65 0.2445,-2.20394 0.49804,-1.23096 0.25354,0.97296 0.23687,2.32296 -0.0371,3 -0.27393,0.67702 -0.48137,-0.11904 -0.46099,-1.76904 z m 15.884,0.91668 c 0.048,-1.16495 0.28494,-1.40191 0.60416,-0.60418 0.28887,0.72188 0.25335,1.58438 -0.0789,1.91668 -0.3323,0.33228 -0.56864,-0.25834 -0.52522,-1.3125 z m -88.694904,-1.85826 c -0.304254,-0.79287 -0.376946,-2.25538 -0.161539,-3.25 0.244555,-1.12922 0.58685,-0.58779 0.911381,1.44159 0.544599,3.40551 0.190618,4.25921 -0.749842,1.80841 z m 56.428454,0.75848 c 0.72187,-0.28887 1.58437,-0.25335 1.91667,0.0789 0.33229,0.3323 -0.25834,0.56865 -1.3125,0.52522 -1.16495,-0.048 -1.4019,-0.28494 -0.60417,-0.60415 z M 34.309436,277.40617 c 0.972967,-0.25353 2.322967,-0.23687 3,0.0371 0.677032,0.27394 -0.119032,0.48138 -1.769032,0.46099 -1.65,-0.0204 -2.203936,-0.2445 -1.230968,-0.49804 z m 146.295254,-2.01388 c -0.54268,-1.4252 -0.42782,-1.54005 0.5598,-0.5598 0.68342,0.67835 0.99067,1.48524 0.68278,1.79314 -0.30789,0.30789 -0.86705,-0.24712 -1.24258,-1.23334 z m 27.51466,0.12355 c 0.048,-1.16495 0.28494,-1.40191 0.60416,-0.60418 0.28887,0.72188 0.25335,1.58438 -0.0789,1.91668 -0.3323,0.33228 -0.56864,-0.25834 -0.52522,-1.3125 z m 45.79349,-0.16668 c -1.24387,-1.58606 -1.2085,-1.62142 0.37756,-0.37756 0.9625,0.75485 1.75,1.54235 1.75,1.75 0,0.82304 -0.82119,0.29331 -2.12756,-1.37244 z m -203.467448,-2.5 -1.904988,-2.25 2.25,1.90499 c 2.114445,1.79022 2.705241,2.59501 1.904988,2.59501 -0.189757,0 -1.202257,-1.01249 -2.25,-2.25 z m 194.328338,1.12591 c 0.67834,-0.68342 1.48524,-0.99067 1.79313,-0.68278 0.30789,0.30789 -0.24711,0.86706 -1.23333,1.24258 -1.4252,0.54268 -1.54006,0.42782 -0.5598,-0.5598 z m 4.01667,-0.53819 c 0.6875,-0.2774 1.8125,-0.2774 2.5,0 0.6875,0.27741 0.125,0.5044 -1.25,0.5044 -1.375,0 -1.9375,-0.22699 -1.25,-0.5044 z m -79.01667,-1.46181 c 0.67834,-0.68342 1.48524,-0.99067 1.79313,-0.68278 0.30789,0.30789 -0.24711,0.86706 -1.23333,1.24258 -1.4252,0.54268 -1.54006,0.42782 -0.5598,-0.5598 z m 7.26667,0.12409 c -0.90129,-0.58246 -1.02463,-0.97548 -0.30902,-0.98469 0.65504,-0.008 1.4691,0.4347 1.80902,0.98469 0.7673,1.24153 0.42112,1.24153 -1.5,0 z m -71.44113,-2.5318 c -1.06762,-0.8075 -1.46022,-1.4682 -0.87244,-1.4682 0.58777,0 1.62888,0.67501 2.31357,1.5 1.5572,1.87633 1.06734,1.86551 -1.44113,-0.0318 z m 79.78621,-1.01132 c -0.32569,-0.84873 -0.36872,-1.76657 -0.0956,-2.03966 0.27309,-0.2731 0.73656,0.4213 1.02992,1.54313 0.62315,2.38293 -0.0692,2.75089 -0.9343,0.49653 z M 20.790404,268.43688 c 0.6875,-0.2774 1.8125,-0.2774 2.5,0 0.6875,0.27741 0.125,0.5044 -1.25,0.5044 -1.375,0 -1.9375,-0.22699 -1.25,-0.5044 z m 77.5,-1.02704 c 0.9625,-0.25152 2.537496,-0.25152 3.499996,0 0.9625,0.25153 0.175,0.45732 -1.75,0.45732 -1.924996,0 -2.712496,-0.20579 -1.749996,-0.45732 z m -34.171053,-1.894 c 0.04798,-1.16495 0.284941,-1.40191 0.604167,-0.60418 0.288871,0.72188 0.253344,1.58438 -0.07895,1.91668 -0.332292,0.33228 -0.568641,-0.25834 -0.52522,-1.3125 z m 10.988206,-2.84519 c -1.254811,-1.33569 -2.043778,-3.02319 -1.753261,-3.75 0.409856,-1.02538 0.545903,-0.99982 0.607161,0.11406 0.04342,0.78956 1.057388,2.47706 2.253261,3.75 1.195873,1.27296 1.949314,2.31446 1.674314,2.31446 -0.275,0 -1.526664,-1.09283 -2.781475,-2.42852 z m 11.432847,-0.57149 c 0.995486,-1.1 2.034975,-2 2.309975,-2 0.275,0 -0.314489,0.9 -1.309975,2 -0.995486,1.1 -2.034975,2 -2.309975,2 -0.275,0 0.314489,-0.9 1.309975,-2 z m 112.600386,-1.29548 c -1.26492,-2.10631 -1.24361,-2.12762 0.47833,-0.47833 0.99123,0.94941 1.58698,1.94144 1.3239,2.20452 -0.26308,0.26308 -1.07408,-0.5137 -1.80223,-1.72619 z m -79.10039,0.91211 c 0,-0.21084 0.90062,-0.61888 2.00138,-0.90674 1.10076,-0.28785 1.7492,-0.11534 1.44098,0.38337 -0.53825,0.87092 -3.44236,1.31244 -3.44236,0.52337 z m 16.19495,-2.11663 c 0.0204,-1.65 0.2445,-2.20394 0.49804,-1.23096 0.25354,0.97296 0.23687,2.32296 -0.0371,3 -0.27393,0.67702 -0.48137,-0.11904 -0.46099,-1.76904 z m 51.30505,0.5 c 0.99549,-1.1 2.03498,-2 2.30998,-2 0.275,0 -0.31449,0.9 -1.30998,2 -0.99549,1.1 -2.03498,2 -2.30998,2 -0.275,0 0.31449,-0.9 1.30998,-2 z M 30.119351,259.51584 c 0.04798,-1.16495 0.284941,-1.40191 0.604167,-0.60418 0.288871,0.72188 0.253344,1.58438 -0.07895,1.91668 -0.332292,0.33228 -0.568641,-0.25834 -0.52522,-1.3125 z m 84.793489,-0.16668 c -1.24387,-1.58606 -1.2085,-1.62142 0.37756,-0.37756 0.9625,0.75485 1.75,1.54235 1.75,1.75 0,0.82304 -0.82119,0.29331 -2.12756,-1.37244 z m 119.12756,1.37244 c 0,-0.20765 0.7875,-0.99515 1.75,-1.75 1.58606,-1.24387 1.62143,-1.2085 0.37756,0.37756 -1.30637,1.66575 -2.12756,2.19548 -2.12756,1.37244 z M 55.852904,259.41606 c 0.721875,-0.28887 1.584375,-0.25336 1.916667,0.0789 0.332291,0.33229 -0.258334,0.56864 -1.3125,0.52522 -1.164943,-0.048 -1.4019,-0.28494 -0.604167,-0.60415 z m 95.266446,-2.90022 c 0.048,-1.16495 0.28494,-1.40191 0.60416,-0.60418 0.28887,0.72188 0.25335,1.58438 -0.0789,1.91668 -0.3323,0.33228 -0.56864,-0.25834 -0.52522,-1.3125 z m 42.73355,0.90022 c 0.72187,-0.28887 1.58437,-0.25336 1.91667,0.0789 0.33229,0.33229 -0.25834,0.56864 -1.3125,0.52522 -1.16495,-0.048 -1.4019,-0.28494 -0.60417,-0.60415 z m -55.3125,-4.3169 c 0.99549,-1.1 2.03498,-2 2.30998,-2 0.275,0 -0.31449,0.9 -1.30998,2 -0.99549,1.10001 -2.03498,2 -2.30998,2 -0.275,0 0.31449,-0.89999 1.30998,-2 z m 126.18715,-1.04815 c -1.54707,-1.62352 -2.40432,-2.95185 -1.90499,-2.95185 0.9215,0 3.32949,2.47321 4.62475,4.75 1.09005,1.91607 0.359,1.43275 -2.71976,-1.79815 z m -243.874646,0.36504 c 0.721875,-0.28886 1.584375,-0.25335 1.916667,0.0789 0.332291,0.33229 -0.258334,0.56864 -1.3125,0.52522 -1.164943,-0.048 -1.4019,-0.28494 -0.604167,-0.60416 z m 65.059945,-1.06689 c -1.243871,-1.58605 -1.208501,-1.62142 0.377555,-0.37756 0.9625,0.75485 1.75,1.54235 1.75,1.75 0,0.82304 -0.821186,0.29331 -2.127555,-1.37244 z m 58.127551,-0.25 c -0.825,-0.53316 -1.05,-0.96937 -0.5,-0.96937 0.55,0 1.675,0.43621 2.5,0.96937 0.825,0.53316 1.05,0.96938 0.5,0.96938 -0.55,0 -1.675,-0.43622 -2.5,-0.96938 z m -104.595008,-2.25 -1.904988,-2.25 2.25,1.90499 c 2.114445,1.79022 2.705241,2.59501 1.904988,2.59501 -0.189757,0 -1.202257,-1.0125 -2.25,-2.25 z m 161.467448,0.5 c -1.24387,-1.58605 -1.2085,-1.62142 0.37756,-0.37756 1.66575,1.30637 2.19548,2.12756 1.37244,2.12756 -0.20765,0 -0.99515,-0.7875 -1.75,-1.75 z m 23.12756,-0.62756 c 0,-0.20765 0.7875,-0.99515 1.75,-1.75 1.58606,-1.24387 1.62143,-1.2085 0.37756,0.37756 -1.30637,1.66575 -2.12756,2.19548 -2.12756,1.37244 z m 11.55887,-1.15424 c -1.06762,-0.80751 -1.46022,-1.4682 -0.87244,-1.4682 0.58777,0 1.62888,0.675 2.31357,1.5 1.5572,1.87633 1.06734,1.86551 -1.44113,-0.0318 z m -116.28984,-2.16119 c 0.97297,-0.25354 2.32297,-0.23687 3,0.0371 0.67703,0.27393 -0.11903,0.48138 -1.76903,0.46099 -1.65,-0.0204 -2.20394,-0.2445 -1.23097,-0.49804 z m 79.80992,-0.89034 c 0.048,-1.16494 0.28494,-1.4019 0.60416,-0.60417 0.28887,0.72188 0.25335,1.58438 -0.0789,1.91667 -0.3323,0.33229 -0.56864,-0.25833 -0.52522,-1.3125 z m -94.99562,0.32268 c 0.22917,-0.14336 1.54167,-1.15587 2.91667,-2.25 l 2.5,-1.98935 -1.90499,2.25 c -1.04774,1.2375 -2.36024,2.25 -2.91666,2.25 -0.55643,0 -0.82418,-0.1173 -0.59502,-0.26065 z m 38.1857,-0.43233 c 0.97297,-0.25354 2.32297,-0.23687 3,0.0371 0.67703,0.27393 -0.11903,0.48137 -1.76903,0.46099 -1.65,-0.0204 -2.20394,-0.2445 -1.23097,-0.49804 z m -75.456526,-2.99013 c 0.721875,-0.28886 1.584375,-0.25335 1.916667,0.0789 0.332291,0.33229 -0.258334,0.56864 -1.3125,0.52522 -1.164943,-0.048 -1.4019,-0.28494 -0.604167,-0.60416 z m -4.8125,-1.28551 c 0,-0.53273 0.675,-0.70958 1.5,-0.39301 0.825,0.3166 1.5,0.75246 1.5,0.96862 0,0.21616 -0.675,0.39301 -1.5,0.39301 -0.825,0 -1.5,-0.43588 -1.5,-0.96862 z m 8.083333,0.60407 c 0.229167,-0.20049 1.541667,-0.90031 2.916667,-1.55516 2.357268,-1.12265 2.389176,-1.10183 0.55887,0.36454 -1.592998,1.27626 -4.847861,2.39128 -3.475537,1.19062 z m 195.257333,-0.97933 c -0.36373,-0.63587 -0.3179,-0.84735 0.10183,-0.46996 0.41973,0.37738 1.86759,0.26624 3.21747,-0.24698 1.34988,-0.51322 2.21062,-0.53881 1.91276,-0.0569 -0.90727,1.46799 -4.52861,2.00358 -5.23206,0.7738 z m -51.46823,-1.40612 c -1.24387,-1.58605 -1.2085,-1.62142 0.37756,-0.37756 0.9625,0.75485 1.75,1.54235 1.75,1.75 0,0.82304 -0.82119,0.29331 -2.12756,-1.37244 z M 21.040404,237.7216 c 0,-0.20765 0.7875,-0.99515 1.75,-1.75 1.586056,-1.24387 1.621426,-1.2085 0.377555,0.37756 -1.306369,1.66575 -2.127555,2.19548 -2.127555,1.37244 z M 273.0404,236.09916 c 0.5887,-1.1 1.29537,-2 1.57037,-2 0.275,0 0.0183,0.9 -0.57037,2 -0.5887,1.10001 -1.29537,2 -1.57037,2 -0.275,0 -0.0183,-0.89999 0.57037,-2 z m -28.39405,-1.15206 c 1.04173,-1.45863 2.09405,-2.45863 2.33849,-2.22222 0.24445,0.23641 -0.60787,1.42985 -1.89404,2.65206 l -2.3385,2.22222 z m -200.855946,0.48978 c 0.6875,-0.2774 1.8125,-0.2774 2.5,0 0.6875,0.27741 0.125,0.50439 -1.25,0.50439 -1.375,0 -1.9375,-0.22698 -1.25,-0.50439 z m 85.814286,-0.63085 c 0.37553,-0.98622 0.93469,-1.54122 1.24258,-1.23333 0.30789,0.30789 6.4e-4,1.11479 -0.68278,1.79313 -0.98762,0.98026 -1.10248,0.8654 -0.5598,-0.5598 z m 12.43571,-0.20687 c 0,-0.86218 0.90249,-1.5 2.12244,-1.5 1.77324,0 1.91763,0.2468 0.87756,1.5 -0.68469,0.825 -1.63979,1.5 -2.12244,1.5 -0.48266,0 -0.87756,-0.675 -0.87756,-1.5 z m 64.75,0.83772 c 0.6875,-0.2774 1.8125,-0.2774 2.5,0 0.6875,0.27741 0.125,0.50439 -1.25,0.50439 -1.375,0 -1.9375,-0.22698 -1.25,-0.50439 z m 26.2779,-0.8041 c -0.66934,-0.80651 -1.06194,-1.9168 -0.87244,-2.46731 0.1895,-0.55051 0.8647,0.10936 1.50045,1.46638 1.31782,2.81288 1.12751,3.1162 -0.62801,1.00093 z m -75.43862,-0.38916 c -0.29082,-0.47055 0.58263,-0.64309 1.94098,-0.38343 1.35836,0.25967 2.46974,0.64466 2.46974,0.85555 0,0.77375 -3.89864,0.35645 -4.41072,-0.47212 z M 94.040404,233.7216 c 0,-0.20765 0.7875,-0.99514 1.75,-1.75 1.586056,-1.24386 1.621426,-1.20849 0.377555,0.37756 -1.306369,1.66575 -2.127555,2.19548 -2.127555,1.37244 z m 13.049816,-1.06241 c -0.65728,-0.79197 -2.17488,-1.63068 -3.37244,-1.86381 -2.11592,-0.41189 -2.11824,-0.42769 -0.0824,-0.56003 1.15226,-0.0749 2.9095,0.76382 3.90499,1.86382 0.99549,1.1 1.57033,1.99999 1.27743,1.99999 -0.2929,0 -1.07032,-0.64798 -1.72761,-1.43997 z m 8.14513,-2.06003 c 0.0204,-1.65 0.2445,-2.20394 0.49804,-1.23097 0.25354,0.97297 0.23687,2.32297 -0.037,3 -0.27393,0.67703 -0.48137,-0.11903 -0.46099,-1.76903 z m 159.94123,1.29705 c -0.46324,-5.79283 -5.14528,-9.50449 -9.77091,-7.74583 -1.45345,0.55261 -2.82821,0.81918 -3.055,0.59238 -1.02835,-1.02835 5.9452,-2.49697 8.05238,-1.69582 3.01846,1.14762 5.86892,5.61475 5.33533,8.36136 -0.27638,1.42267 -0.47337,1.59375 -0.5618,0.48791 z M 8.1193512,230.51583 c 0.047984,-1.16495 0.2849403,-1.4019 0.6041666,-0.60417 0.2888706,0.72187 0.2533443,1.58437 -0.078947,1.91667 -0.3322917,0.33229 -0.5686404,-0.25834 -0.5252196,-1.3125 z m 135.4210488,-0.41667 -4,-0.71619 3.69098,-0.1419 c 2.03004,-0.078 3.9691,0.30809 4.30902,0.85809 0.33992,0.55 0.47898,0.93614 0.30902,0.85809 -0.16996,-0.078 -2.10902,-0.46419 -4.30902,-0.85809 z m 8.88953,-1.42727 c -0.30123,-0.785 -0.38004,-2.4725 -0.17514,-3.75 0.27408,-1.70876 0.50623,-1.33149 0.87828,1.42727 0.52359,3.88245 0.24656,4.7976 -0.70314,2.32273 z m 61.61047,0.42727 c -0.825,-0.53316 -1.05,-0.96937 -0.5,-0.96937 0.55,0 1.675,0.43621 2.5,0.96937 0.825,0.53316 1.05,0.96937 0.5,0.96937 -0.55,0 -1.675,-0.43621 -2.5,-0.96937 z m 46,-0.94098 c 0,-0.51754 0.44485,-1.21592 0.98855,-1.55194 0.56686,-0.35033 0.7345,0.0511 0.39301,0.94098 -0.66479,1.73242 -1.38156,2.04939 -1.38156,0.61096 z M 9.0404038,227.7216 c 0,-0.20765 0.7875,-0.99514 1.7500002,-1.75 1.586056,-1.24386 1.621426,-1.20849 0.377555,0.37756 -1.3063692,1.66575 -2.1275552,2.19548 -2.1275552,1.37244 z M 208.91284,225.34916 c -1.24387,-1.58606 -1.2085,-1.62143 0.37756,-0.37756 0.9625,0.75486 1.75,1.54235 1.75,1.75 0,0.82304 -0.82119,0.29331 -2.12756,-1.37244 z m 36.86312,-1.50632 -1.76444,-3.24368 2.01444,2.36078 c 1.71413,2.00885 2.63029,4.1548 1.76444,4.1329 -0.1375,-0.003 -1.044,-1.46598 -2.01444,-3.25 z m -178.985556,1.59404 c 0.6875,-0.27741 1.8125,-0.27741 2.5,0 0.6875,0.27741 0.125,0.50439 -1.25,0.50439 -1.375,0 -1.9375,-0.22698 -1.25,-0.50439 z m 50.983326,-0.46181 c 0.67834,-0.68342 1.48524,-0.99067 1.79313,-0.68278 0.30789,0.30789 -0.24711,0.86705 -1.23333,1.24258 -1.4252,0.54268 -1.54006,0.42782 -0.5598,-0.5598 z m -77.920826,-0.55902 c 0.721875,-0.28887 1.584375,-0.25335 1.916667,0.0789 0.332291,0.33229 -0.258334,0.56864 -1.3125,0.52522 -1.164943,-0.048 -1.4019,-0.28494 -0.604167,-0.60416 z m 182.266446,-0.90022 c 0.048,-1.16495 0.28494,-1.4019 0.60416,-0.60417 0.28887,0.72187 0.25335,1.58437 -0.0789,1.91667 -0.3323,0.33229 -0.56864,-0.25834 -0.52522,-1.3125 z m -100.26645,-0.0998 c 0.72187,-0.28887 1.58437,-0.25336 1.91667,0.0789 0.33229,0.33229 -0.25834,0.56864 -1.3125,0.52522 -1.16495,-0.048 -1.4019,-0.28495 -0.60417,-0.60417 z m 32.90972,-3.36729 c 1.22222,-1.28617 2.41565,-2.13849 2.65206,-1.89404 0.23641,0.24444 -0.76359,1.29676 -2.22222,2.33849 l -2.65206,1.89405 z m 86.09028,0.36729 c 0.72187,-0.28887 1.58437,-0.25336 1.91667,0.0789 0.33229,0.33229 -0.25834,0.56864 -1.3125,0.52522 -1.16495,-0.048 -1.4019,-0.28495 -0.60417,-0.60417 z m -94.3125,-2.31688 c 0.99549,-1.1 2.03498,-2 2.30998,-2 0.275,0 -0.31449,0.9 -1.30998,2 -0.99549,1.1 -2.03498,2 -2.30998,2 -0.275,0 0.31449,-0.9 1.30998,-2 z m 18.00708,1.01145 c -0.35034,-0.56686 0.0511,-0.7345 0.94098,-0.39301 1.73242,0.66479 2.04939,1.38156 0.61096,1.38156 -0.51754,0 -1.21592,-0.44485 -1.55194,-0.98855 z m 56.09887,-2.85939 -1.89405,-2.65206 2.3385,2.22222 c 1.28617,1.22222 2.13849,2.41565 1.89404,2.65206 -0.24444,0.23641 -1.29676,-0.76359 -2.33849,-2.22222 z M 48.198299,216.09916 c 0,-1.375 0.226973,-1.9375 0.504386,-1.25 0.277412,0.6875 0.277412,1.8125 0,2.5 -0.277413,0.6875 -0.504386,0.125 -0.504386,-1.25 z m 111.592101,1.33772 c 0.6875,-0.27741 1.8125,-0.27741 2.5,0 0.6875,0.27741 0.125,0.50439 -1.25,0.50439 -1.375,0 -1.9375,-0.22698 -1.25,-0.50439 z m -97.242917,-3.32627 c -0.350339,-0.56686 0.05106,-0.7345 0.940983,-0.39301 1.732417,0.66479 2.049387,1.38156 0.610955,1.38156 -0.517541,0 -1.215913,-0.44485 -1.551938,-0.98855 z m 20.650816,-1.01145 c 0,-1.375 0.226973,-1.9375 0.504386,-1.25 0.277412,0.6875 0.277412,1.8125 0,2.5 -0.277413,0.6875 -0.504386,0.125 -0.504386,-1.25 z m 65.921051,0.41667 c 0.048,-1.16495 0.28494,-1.4019 0.60416,-0.60417 0.28887,0.72187 0.25335,1.58437 -0.0789,1.91667 -0.3323,0.33229 -0.56864,-0.25834 -0.52522,-1.3125 z m 40.92105,1.20577 c 0,-0.20765 0.7875,-0.99514 1.75,-1.75 1.58606,-1.24386 1.62143,-1.20849 0.37756,0.37756 -1.30637,1.66575 -2.12756,2.19548 -2.12756,1.37244 z m 74.50708,-1.61098 c -0.35034,-0.56686 0.0511,-0.7345 0.94098,-0.39301 1.73242,0.66479 2.04939,1.38156 0.61096,1.38156 -0.51754,0 -1.21592,-0.44485 -1.55194,-0.98855 z M 11.790404,212.43688 c 0.6875,-0.27741 1.8125,-0.27741 2.5,0 0.6875,0.27741 0.125,0.50439 -1.25,0.50439 -1.375,0 -1.9375,-0.22698 -1.25,-0.50439 z m 20.25,-0.0486 c 0,-0.57432 0.7875,-1.66182 1.75,-2.41667 1.618755,-1.26951 1.639977,-1.22245 0.282968,0.62756 -0.806868,1.1 -1.594368,2.1875 -1.75,2.41667 -0.155633,0.22916 -0.282968,-0.0532 -0.282968,-0.62756 z M 165.8529,211.41605 c 0.72187,-0.28887 1.58437,-0.25335 1.91667,0.0789 0.33229,0.33229 -0.25834,0.56864 -1.3125,0.52522 -1.16495,-0.048 -1.4019,-0.28494 -0.60417,-0.60416 z m 95.81104,-0.85555 c -0.96498,-2.51469 -0.68031,-3.16354 0.49853,-1.13633 0.58369,1.00375 0.8506,2.03566 0.59313,2.29312 -0.25747,0.25748 -0.74872,-0.26309 -1.09166,-1.15679 z m -243.623536,0.1611 c 0,-0.20765 0.7875,-0.99514 1.75,-1.75 1.586056,-1.24386 1.621426,-1.20849 0.377555,0.37756 -1.306369,1.66575 -2.127555,2.19548 -2.127555,1.37244 z m 139.458876,-0.68897 c -0.36253,-0.58659 -0.44468,-1.281 -0.18255,-1.54313 0.26212,-0.26213 0.74306,0.21781 1.06875,1.06653 0.67618,1.76212 0.0999,2.07206 -0.8862,0.4766 z M 275.77161,209.019 c 0.35361,-1.3522 0.8069,-1.8055 1.05655,-1.05655 0.24048,0.72144 -0.0382,1.78716 -0.61931,2.36826 -0.74207,0.74207 -0.87221,0.35164 -0.43724,-1.31171 z m -170.65226,-0.50317 c 0.048,-1.16495 0.28494,-1.4019 0.60416,-0.60417 0.28887,0.72187 0.25335,1.58437 -0.0789,1.91667 -0.3323,0.33229 -0.56864,-0.25834 -0.52522,-1.3125 z m 16.116,-0.91667 c 0.0204,-1.65 0.2445,-2.20394 0.49804,-1.23097 0.25354,0.97297 0.23687,2.32297 -0.037,3 -0.27393,0.67703 -0.48137,-0.11903 -0.46099,-1.76903 z m 112.67749,-0.25 c -1.24387,-1.58606 -1.2085,-1.62143 0.37756,-0.37756 0.9625,0.75485 1.75,1.54235 1.75,1.75 0,0.82304 -0.82119,0.29331 -2.12756,-1.37244 z M 95.547483,207.11061 c -0.350339,-0.56686 0.05106,-0.7345 0.940983,-0.39301 1.732417,0.66479 2.049387,1.38156 0.610955,1.38156 -0.517541,0 -1.215913,-0.44485 -1.551938,-0.98855 z m 50.897907,-1.26145 -1.90499,-2.25 2.25,1.90499 c 2.11444,1.79022 2.70524,2.59501 1.90499,2.59501 -0.18976,0 -1.20226,-1.0125 -2.25,-2.25 z m 113.73119,-0.81144 c -0.12178,-2.29055 2.94432,-6.93856 4.57709,-6.93856 0.34945,0 -0.30364,1.0125 -1.45129,2.25 -1.14766,1.2375 -2.28982,3.375 -2.53814,4.75 l -0.45148,2.5 z M 21.119351,204.51583 c 0.04798,-1.16495 0.284941,-1.4019 0.604167,-0.60417 0.288871,0.72187 0.253344,1.58437 -0.07895,1.91667 -0.332292,0.33229 -0.568641,-0.25834 -0.52522,-1.3125 z m 69.733553,0.90022 c 0.721875,-0.28887 1.584375,-0.25335 1.916667,0.0789 0.332291,0.33229 -0.258334,0.56864 -1.3125,0.52522 -1.164943,-0.048 -1.4019,-0.28494 -0.604167,-0.60416 z M 246.8649,203.42498 c 0.42673,-2.09296 0.67819,-2.34442 0.96961,-0.9696 0.2164,1.02092 -0.0429,2.29254 -0.57615,2.82582 -0.62614,0.62614 -0.76551,-0.0314 -0.39346,-1.85622 z m 29.25445,0.0909 c 0.048,-1.16495 0.28494,-1.4019 0.60416,-0.60417 0.28887,0.72187 0.25335,1.58437 -0.0789,1.91667 -0.33229,0.33229 -0.56864,-0.25834 -0.52522,-1.3125 z m -157.20651,-1.16672 c -1.24387,-1.58606 -1.2085,-1.62143 0.37756,-0.37756 0.9625,0.75486 1.75,1.54235 1.75,1.75 0,0.82304 -0.82119,0.29331 -2.12756,-1.37244 z m 96.86089,0.62591 c 0.67834,-0.68342 1.48524,-0.99067 1.79313,-0.68278 0.30789,0.30789 -0.24711,0.86705 -1.23333,1.24258 -1.4252,0.54268 -1.54006,0.42782 -0.5598,-0.5598 z m -10.23888,-1.88203 c -0.99854,-1.10338 -1.63078,-2.18431 -1.40499,-2.40207 0.2258,-0.21776 1.21905,0.685 2.20722,2.00614 2.18239,2.91772 1.69683,3.15736 -0.80223,0.39593 z m 25.66559,-0.74388 c -0.16012,-3.25156 2.58355,-7.25 4.97482,-7.25 0.62417,0 -0.0231,0.91087 -1.43844,2.02416 -1.54681,1.21672 -2.73347,3.31095 -2.97483,5.25 l -0.40152,3.22584 z m -52.16004,1.37244 c 0,-0.20765 0.7875,-0.99514 1.75,-1.75 1.58606,-1.24386 1.62143,-1.20849 0.37756,0.37756 -1.30637,1.66575 -2.12756,2.19548 -2.12756,1.37244 z m -173.9999962,-1 c 0,-0.20765 0.7875,-0.99514 1.75,-1.75 1.5860556,-1.24386 1.6214259,-1.20849 0.3775553,0.37756 -1.3063698,1.66575 -2.1275553,2.19548 -2.1275553,1.37244 z M 218.60469,199.80603 c 0.37553,-0.98622 0.93469,-1.54122 1.24258,-1.23332 0.30789,0.30788 6.4e-4,1.11479 -0.68278,1.79312 -0.98762,0.98026 -1.10248,0.8654 -0.5598,-0.5598 z m 55.46467,0.33219 c -0.80907,-0.51167 -1.2107,-1.19066 -0.8925,-1.50885 0.3182,-0.31819 1.14776,0.10733 1.84348,0.94562 1.4426,1.73823 1.16599,1.90204 -0.95098,0.56323 z M 17.912849,198.34916 c -1.243871,-1.58606 -1.208501,-1.62143 0.377555,-0.37756 0.9625,0.75486 1.75,1.54235 1.75,1.75 0,0.82304 -0.821186,0.29331 -2.127555,-1.37244 z m 151.532541,-0.5 -1.90499,-2.25 2.25,1.90499 c 2.11444,1.79022 2.70524,2.59501 1.90499,2.59501 -0.18976,0 -1.20226,-1.0125 -2.25,-2.25 z m 77.67396,1.03896 c -0.0434,-0.94108 -1.0638,-2.62858 -2.26751,-3.75 -1.20371,-1.12143 -1.66408,-2.03896 -1.02305,-2.03896 1.61009,0 4.51474,4.64942 3.88457,6.21796 -0.32922,0.81946 -0.54355,0.66467 -0.59401,-0.429 z m -62.80992,-0.48195 c 0.97297,-0.25354 2.32297,-0.23687 3,0.0371 0.67703,0.27393 -0.11903,0.48137 -1.76903,0.46099 -1.65,-0.0204 -2.20394,-0.24449 -1.23097,-0.49804 z m -81.76903,-2.30701 c 0.99549,-1.1 2.03498,-2 2.30998,-2 0.275,0 -0.31449,0.9 -1.30998,2 -0.99549,1.1 -2.03498,2 -2.30998,2 -0.275,0 0.31449,-0.9 1.30998,-2 z m 28.5,-0.5 c 1.29175,-1.375 2.57363,-2.5 2.84863,-2.5 0.275,0 -0.55688,1.125 -1.84863,2.5 -1.29175,1.375 -2.57363,2.5 -2.84863,2.5 -0.275,0 0.55688,-1.125 1.84863,-2.5 z m 138.8125,1.81689 c 0.72187,-0.28887 1.58438,-0.25335 1.91667,0.0789 0.33229,0.33229 -0.25834,0.56864 -1.3125,0.52522 -1.16495,-0.048 -1.4019,-0.28494 -0.60417,-0.60416 z m -49.65461,-2.31689 c 0,-1.375 0.22698,-1.9375 0.50439,-1.25 0.27741,0.6875 0.27741,1.8125 0,2.5 -0.27741,0.6875 -0.50439,0.125 -0.50439,-1.25 z m -183.285441,-1.75 c -1.243871,-1.58606 -1.208501,-1.62143 0.377555,-0.37756 0.9625,0.75486 1.75,1.54235 1.75,1.75 0,0.82304 -0.821186,0.29331 -2.127555,-1.37244 z M 154.0404,194.7216 c 0,-0.20765 0.7875,-0.99514 1.75,-1.75 1.58606,-1.24386 1.62143,-1.20849 0.37756,0.37756 -1.30637,1.66575 -2.12756,2.19548 -2.12756,1.37244 z m 50.07895,-1.20577 c 0.048,-1.16495 0.28494,-1.4019 0.60416,-0.60417 0.28887,0.72187 0.25335,1.58437 -0.0789,1.91667 -0.3323,0.33229 -0.56864,-0.25834 -0.52522,-1.3125 z M 47.040404,193.7216 c 0,-0.20765 0.7875,-0.99514 1.75,-1.75 1.586056,-1.24386 1.621426,-1.20849 0.377555,0.37756 -1.306369,1.66575 -2.127555,2.19548 -2.127555,1.37244 z M 239.8529,192.41605 c 0.72187,-0.28887 1.58437,-0.25335 1.91667,0.0789 0.33229,0.33229 -0.25834,0.56864 -1.3125,0.52522 -1.16495,-0.048 -1.4019,-0.28494 -0.60417,-0.60416 z m -21.35362,-1.38342 c -0.36253,-0.58659 -0.44468,-1.281 -0.18255,-1.54313 0.26212,-0.26213 0.74306,0.21781 1.06875,1.06653 0.67618,1.76212 0.0999,2.07206 -0.8862,0.4766 z M 77.540404,188.09916 c 0.995486,-1.1 2.034975,-2 2.309975,-2 0.275,0 -0.314489,0.9 -1.309975,2 -0.995486,1.1 -2.034975,2 -2.309975,2 -0.275,0 0.314489,-0.9 1.309975,-2 z m 79.657886,-1 c 0,-1.375 0.22698,-1.9375 0.50439,-1.25 0.27741,0.6875 0.27741,1.8125 0,2.5 -0.27741,0.6875 -0.50439,0.125 -0.50439,-1.25 z m 13.71455,0.25 c -1.24387,-1.58606 -1.2085,-1.62143 0.37756,-0.37756 0.9625,0.75486 1.75,1.54235 1.75,1.75 0,0.82304 -0.82119,0.29331 -2.12756,-1.37244 z m -103.999991,-1 c -1.243871,-1.58606 -1.208501,-1.62143 0.377555,-0.37756 1.665748,1.30637 2.195479,2.12756 1.372445,2.12756 -0.207656,0 -0.995156,-0.7875 -1.75,-1.75 z m 143.377551,1.06067 c 0.9625,-0.25152 2.5375,-0.25152 3.5,0 0.9625,0.25153 0.175,0.45733 -1.75,0.45733 -1.925,0 -2.7125,-0.2058 -1.75,-0.45733 z M 16.852904,185.41605 c 0.721875,-0.28887 1.584375,-0.25335 1.916667,0.0789 0.332291,0.33229 -0.258334,0.56864 -1.3125,0.52522 -1.164943,-0.048 -1.4019,-0.28494 -0.604167,-0.60416 z m 85.059936,-1.06689 c -1.24387,-1.58606 -1.2085,-1.62143 0.37756,-0.37756 0.9625,0.75486 1.75,1.54235 1.75,1.75 0,0.82304 -0.82119,0.29331 -2.12756,-1.37244 z m -65.150214,-3.3004 c 1.222222,-1.28617 2.415649,-2.13848 2.65206,-1.89403 0.23641,0.24443 -0.76359,1.29676 -2.222223,2.33849 l -2.652059,1.89404 z m 11.150223,0.3004 c -1.243871,-1.58606 -1.208501,-1.62143 0.377555,-0.37756 0.9625,0.75486 1.75,1.54235 1.75,1.75 0,0.82304 -0.821186,0.29331 -2.127555,-1.37244 z m 47.940055,1.06689 c 0.721875,-0.28887 1.584375,-0.25335 1.916667,0.0789 0.332291,0.33229 -0.258334,0.56864 -1.3125,0.52522 -1.164943,-0.048 -1.4019,-0.28494 -0.604167,-0.60416 z m 89.345386,-1.31689 c 0,-1.375 0.22698,-1.9375 0.50439,-1.25 0.27741,0.6875 0.27741,1.8125 0,2.5 -0.27741,0.6875 -0.50439,0.125 -0.50439,-1.25 z m 43.92592,-0.41079 c -1.30203,-1.38594 -2.0631,-3.19264 -1.79032,-4.25 0.41095,-1.59287 0.49004,-1.5586 0.59051,0.2558 0.13243,2.3918 2.67933,4.97032 5.616,5.68576 1.93861,0.47228 1.93629,0.4908 -0.0757,0.60324 -1.14162,0.0638 -3.09485,-0.96887 -4.3405,-2.2948 z m 8.41619,1.25012 c 1.1,-0.60493 2.8177,-2.05376 3.81711,-3.2196 l 1.81712,-2.11973 -1.09003,2.22708 c -1.03986,2.12457 -3.98726,4.30742 -5.72846,4.24251 -0.44866,-0.0167 0.0843,-0.52535 1.18426,-1.13026 z m 20.74231,-0.78911 c -1.43603,-1.19786 -2.47317,-3.46037 -2.84978,-6.21674 -0.5081,-3.71875 -0.23007,-4.72358 1.95994,-7.08348 3.36871,-3.63002 9.2783,-3.83638 12.47322,-0.43555 1.19587,1.27295 2.17431,2.68364 2.17431,3.13486 0,0.45122 -0.93266,-0.36528 -2.07258,-1.81445 -1.60419,-2.0394 -2.95134,-2.63486 -5.96105,-2.63486 -5.4458,0 -8.31276,3.12711 -7.63483,8.32762 0.62484,4.79321 2.96702,7.44674 7.02318,7.95679 l 3.14528,0.39552 -3,0.12676 c -1.65,0.0697 -4.01596,-0.72069 -5.25769,-1.75647 z M 10.604697,180.39229 c -0.542685,-1.4252 -0.427821,-1.54006 0.559795,-0.5598 0.683418,0.67834 0.990671,1.48524 0.682784,1.79313 -0.307887,0.30789 -0.867048,-0.24711 -1.242579,-1.23333 z m 258.058423,-0.29313 c 1.16749,-1.375 2.36947,-3.175 2.67105,-4 0.46954,-1.28446 0.55968,-1.27358 0.62728,0.0757 0.0434,0.86663 -1.15855,2.66662 -2.67105,4 l -2.75,2.4243 z m -120.86106,0.29274 c 1.24391,-0.23919 3.04391,-0.23011 4,0.0202 0.95609,0.25029 -0.0617,0.446 -2.26166,0.4349 -2.2,-0.0111 -2.98225,-0.21589 -1.73834,-0.45508 z M 43.852904,179.41605 c 0.721875,-0.28887 1.584375,-0.25335 1.916667,0.0789 0.332291,0.33229 -0.258334,0.56864 -1.3125,0.52522 -1.164943,-0.048 -1.4019,-0.28494 -0.604167,-0.60416 z m -18.654605,-2.31689 c 0,-1.375 0.226973,-1.9375 0.504386,-1.25 0.277412,0.6875 0.277412,1.8125 0,2.5 -0.277413,0.6875 -0.504386,0.125 -0.504386,-1.25 z m 53.127838,-0.69945 c -1.217846,-1.2653 -1.850091,-2.30055 -1.404987,-2.30055 0.975158,0 4.613348,3.88818 4.02979,4.30668 -0.225795,0.16194 -1.406956,-0.74082 -2.624803,-2.00613 z m 91.714263,1.75847 c 0,-0.51754 0.44485,-1.21592 0.98855,-1.55194 0.56686,-0.35033 0.7345,0.0511 0.39301,0.94098 -0.66479,1.73242 -1.38156,2.04939 -1.38156,0.61096 z m 11.87244,-1.80902 c -1.26951,-1.61876 -1.22245,-1.63998 0.62756,-0.28297 1.1,0.80687 2.1875,1.59437 2.41667,1.75 0.22916,0.15563 -0.0532,0.28297 -0.62756,0.28297 -0.57432,0 -1.66182,-0.7875 -2.41667,-1.75 z M 67.040404,176.7216 c 0,-0.20765 0.7875,-0.99514 1.75,-1.75 1.586056,-1.24386 1.621426,-1.20849 0.377555,0.37756 -1.306369,1.66575 -2.127555,2.19548 -2.127555,1.37244 z m 52.078946,-2.20577 c 0.048,-1.16495 0.28494,-1.4019 0.60416,-0.60417 0.28887,0.72187 0.25335,1.58437 -0.0789,1.91667 -0.3323,0.33229 -0.56864,-0.25834 -0.52522,-1.3125 z m 86.92105,1.20577 c 0,-0.20765 0.7875,-0.99514 1.75,-1.75 1.58606,-1.24386 1.62143,-1.20849 0.37756,0.37756 -1.30637,1.66575 -2.12756,2.19548 -2.12756,1.37244 z m 37.07895,-1.20577 c 0.048,-1.16495 0.28494,-1.4019 0.60416,-0.60417 0.28887,0.72187 0.25335,1.58437 -0.0789,1.91667 -0.3323,0.33229 -0.56864,-0.25834 -0.52522,-1.3125 z m -68.26645,-0.0998 c 0.72187,-0.28887 1.58437,-0.25336 1.91667,0.0789 0.33229,0.33229 -0.25834,0.56864 -1.3125,0.52522 -1.16495,-0.048 -1.4019,-0.28495 -0.60417,-0.60417 z m -20.8125,-1.31688 c -1.82797,-1.18132 -0.24909,-1.18132 2.5,0 1.31874,0.56668 1.48906,0.87815 0.5,0.9144 -0.825,0.0302 -2.175,-0.38124 -3,-0.9144 z m -136.187496,-3.6831 c 0.721875,-0.28887 1.584375,-0.25335 1.916667,0.0789 0.332291,0.33229 -0.258334,0.56864 -1.3125,0.52522 -1.164943,-0.048 -1.4019,-0.28494 -0.604167,-0.60416 z m 175.266446,-0.90022 c 0.048,-1.16495 0.28494,-1.4019 0.60416,-0.60417 0.28887,0.72187 0.25335,1.58437 -0.0789,1.91667 -0.3323,0.33229 -0.56864,-0.25834 -0.52522,-1.3125 z m 16,-1 c 0.048,-1.16495 0.28494,-1.4019 0.60416,-0.60417 0.28887,0.72187 0.25335,1.58437 -0.0789,1.91667 -0.3323,0.33229 -0.56864,-0.25834 -0.52522,-1.3125 z m 31.43084,0.59917 c -0.33454,-0.5413 -2.0486,-1.40071 -3.80902,-1.90982 -2.3139,-0.66916 -2.60803,-0.95063 -1.06155,-1.01583 1.17656,-0.0496 3.20156,0.79484 4.5,1.87654 1.29843,1.08171 2.04984,1.9817 1.6698,2 -0.38004,0.0183 -0.9647,-0.4096 -1.29923,-0.95089 z M 54.040404,167.71579 c 0,-0.21085 0.900621,-0.61888 2.00138,-0.90674 1.100759,-0.28785 1.749201,-0.11534 1.440983,0.38337 -0.538251,0.87091 -3.442363,1.31244 -3.442363,0.52337 z m 70.194946,-2.11663 c 0.0204,-1.65 0.2445,-2.20394 0.49804,-1.23097 0.25354,0.97297 0.23687,2.32297 -0.037,3 -0.27393,0.67703 -0.48137,-0.11903 -0.46099,-1.76903 z m -45.322501,-0.25 c -1.243871,-1.58606 -1.208501,-1.62143 0.377555,-0.37756 0.9625,0.75486 1.75,1.54235 1.75,1.75 0,0.82304 -0.821186,0.29331 -2.127555,-1.37244 z m 86.285441,-0.25 c 0,-1.375 0.22698,-1.9375 0.50439,-1.25 0.27741,0.6875 0.27741,1.8125 0,2.5 -0.27741,0.6875 -0.50439,0.125 -0.50439,-1.25 z m 41.71455,-1.75 c -1.24387,-1.58606 -1.2085,-1.62143 0.37756,-0.37756 0.9625,0.75486 1.75,1.54235 1.75,1.75 0,0.82304 -0.82119,0.29331 -2.12756,-1.37244 z m -9.13911,-1.37409 c 0.67834,-0.68342 1.48524,-0.99067 1.79313,-0.68278 0.30789,0.30789 -0.24711,0.86705 -1.23333,1.24258 -1.4252,0.54268 -1.54006,0.42782 -0.5598,-0.5598 z m -178.328338,-4.12591 -1.904988,-2.25 2.25,1.90499 c 2.114445,1.79022 2.705241,2.59501 1.904988,2.59501 -0.189757,0 -1.202257,-1.0125 -2.25,-2.25 z m 57.673959,0.66667 c 0.04798,-1.16495 0.284941,-1.4019 0.604167,-0.60417 0.288871,0.72187 0.253344,1.58437 -0.07895,1.91667 -0.332292,0.33229 -0.568641,-0.25834 -0.52522,-1.3125 z m -16.558509,-2.35228 c -0.364197,-1.14748 -1.980284,-2.76795 -3.591307,-3.60104 -1.611022,-0.83309 -2.929131,-1.73971 -2.929131,-2.01471 0,-0.275 1.33666,0.19122 2.970356,1.03604 2.882458,1.49058 5.694256,5.18405 4.70197,6.17634 -0.269342,0.26934 -0.787692,-0.44914 -1.151888,-1.59663 z m 117.748588,1.24262 c 0.97297,-0.25354 2.32297,-0.23687 3,0.0371 0.67703,0.27393 -0.11903,0.48137 -1.76903,0.46099 -1.65,-0.0204 -2.20394,-0.24449 -1.23097,-0.49804 z m -88.396581,-3.05701 c -1.243871,-1.58606 -1.208501,-1.62143 0.377555,-0.37756 0.9625,0.75486 1.75,1.54235 1.75,1.75 0,0.82304 -0.821186,0.29331 -2.127555,-1.37244 z m 169.247061,-0.75 c 0.89073,-1.1 1.86771,-2.675 2.17105,-3.5 0.46813,-1.27314 0.56349,-1.25877 0.63049,0.095 0.0434,0.87726 -0.93355,2.45226 -2.17105,3.5 -2.23084,1.88877 -2.23621,1.88796 -0.63049,-0.095 z M 83.790404,152.43688 c 0.6875,-0.27741 1.8125,-0.27741 2.5,0 0.6875,0.27741 0.125,0.50439 -1.25,0.50439 -1.375,0 -1.9375,-0.22698 -1.25,-0.50439 z m 15.122445,-1.08772 c -1.243871,-1.58606 -1.208501,-1.62143 0.377555,-0.37756 0.962496,0.75486 1.749996,1.54235 1.749996,1.75 0,0.82304 -0.82119,0.29331 -2.127551,-1.37244 z m 72.127551,-3.69098 c 0,-0.79254 0.40803,-1.69316 0.90674,-2.00138 0.49871,-0.30822 0.67122,0.34022 0.38337,1.44098 -0.61061,2.33499 -1.29011,2.63015 -1.29011,0.5604 z m -16.75,-0.24834 c 0.9625,-0.25152 2.5375,-0.25152 3.5,0 0.9625,0.25153 0.175,0.45733 -1.75,0.45733 -1.925,0 -2.7125,-0.2058 -1.75,-0.45733 z m -24.5,-1.97295 c 0.6875,-0.27741 1.8125,-0.27741 2.5,0 0.6875,0.27741 0.125,0.50439 -1.25,0.50439 -1.375,0 -1.9375,-0.22698 -1.25,-0.50439 z m 19.2779,-0.80411 c -0.66934,-0.80651 -1.06194,-1.91679 -0.87244,-2.4673 0.1895,-0.55052 0.8647,0.10936 1.50045,1.46637 1.31782,2.81288 1.12751,3.1162 -0.62801,1.00093 z m -23.62291,-1.78362 -1.90499,-2.25 2.25,1.90499 c 2.11444,1.79022 2.70524,2.59501 1.90499,2.59501 -0.18976,0 -1.20226,-1.0125 -2.25,-2.25 z m 9.59501,1.87244 c 0,-0.20765 0.7875,-0.99514 1.75,-1.75 1.58606,-1.24386 1.62143,-1.20849 0.37756,0.37756 -1.30637,1.66575 -2.12756,2.19548 -2.12756,1.37244 z M 23.852904,143.41605 c 0.721875,-0.28887 1.584375,-0.25335 1.916667,0.0789 0.332291,0.33229 -0.258334,0.56864 -1.3125,0.52522 -1.164943,-0.048 -1.4019,-0.28494 -0.604167,-0.60416 z m 40.059945,-1.06689 c -1.243871,-1.58606 -1.208501,-1.62143 0.377555,-0.37756 0.9625,0.75486 1.75,1.54235 1.75,1.75 0,0.82304 -0.821186,0.29331 -2.127555,-1.37244 z m 47.733501,-1.09794 -1.89405,-2.65206 2.3385,2.22222 c 1.28617,1.22222 2.13849,2.41565 1.89404,2.65206 -0.24444,0.23641 -1.29676,-0.76359 -2.33849,-2.22222 z m 72.39405,1.84794 c -0.90129,-0.58246 -1.02463,-0.97549 -0.30902,-0.98469 0.65504,-0.008 1.4691,0.43469 1.80902,0.98469 0.7673,1.24153 0.42112,1.24153 -1.5,0 z m 63,-0.37756 c 0,-0.20765 0.7875,-0.99514 1.75,-1.75 1.58606,-1.24386 1.62143,-1.20849 0.37756,0.37756 -1.30637,1.66575 -2.12756,2.19548 -2.12756,1.37244 z m -68.1875,-1.30555 c 0.72187,-0.28887 1.58437,-0.25335 1.91667,0.0789 0.33229,0.33229 -0.25834,0.56864 -1.3125,0.52522 -1.16495,-0.048 -1.4019,-0.28494 -0.60417,-0.60416 z m -14.65461,-2.31689 c 0,-1.375 0.22698,-1.9375 0.50439,-1.25 0.27741,0.6875 0.27741,1.8125 0,2.5 -0.27741,0.6875 -0.50439,0.125 -0.50439,-1.25 z m 55.09211,1.31067 c 0.9625,-0.25152 2.5375,-0.25152 3.5,0 0.9625,0.25153 0.175,0.45733 -1.75,0.45733 -1.925,0 -2.7125,-0.2058 -1.75,-0.45733 z m 33.5,-0.97295 c 0.6875,-0.27741 1.8125,-0.27741 2.5,0 0.6875,0.27741 0.125,0.50439 -1.25,0.50439 -1.375,0 -1.9375,-0.22698 -1.25,-0.50439 z M 79.198299,137.09916 c 0,-1.375 0.226973,-1.9375 0.504386,-1.25 0.277412,0.6875 0.277412,1.8125 0,2.5 -0.277413,0.6875 -0.504386,0.125 -0.504386,-1.25 z m 122.654601,0.31689 c 0.72187,-0.28887 1.58437,-0.25335 1.91667,0.0789 0.33229,0.33229 -0.25834,0.56864 -1.3125,0.52522 -1.16495,-0.048 -1.4019,-0.28494 -0.60417,-0.60416 z M 39.309436,136.40617 c 0.972967,-0.25354 2.322967,-0.23687 3,0.0371 0.677032,0.27393 -0.119032,0.48137 -1.769032,0.46099 -1.65,-0.0204 -2.203936,-0.24449 -1.230968,-0.49804 z m -4.289088,-1.83118 c -0.69572,-0.83829 -1.071285,-1.71782 -0.83459,-1.95452 0.236696,-0.23669 0.979634,0.44918 1.650975,1.52417 1.451813,2.32472 0.967628,2.57996 -0.816385,0.43035 z m 158.584342,-0.1827 c -0.54268,-1.4252 -0.42782,-1.54006 0.5598,-0.5598 0.68342,0.67834 0.99067,1.48524 0.68278,1.79313 -0.30789,0.30789 -0.86705,-0.24711 -1.24258,-1.23333 z m 39.94279,-1.28168 c -0.35034,-0.56686 0.0511,-0.7345 0.94098,-0.39301 1.73242,0.66479 2.04939,1.38156 0.61096,1.38156 -0.51754,0 -1.21592,-0.44485 -1.55194,-0.98855 z m 7.99292,-2.01145 c 0.99549,-1.1 2.03498,-2 2.30998,-2 0.275,0 -0.31449,0.9 -1.30998,2 -0.99549,1.1 -2.03498,2 -2.30998,2 -0.275,0 0.31449,-0.9 1.30998,-2 z m -49.268,-2 c 0,-1.925 0.2058,-2.7125 0.45733,-1.74999 0.25152,0.96249 0.25152,2.53749 0,3.49999 -0.25153,0.9625 -0.45733,0.175 -0.45733,-1.75 z m 37.64044,1.25 c -1.24387,-1.58606 -1.2085,-1.62143 0.37756,-0.37756 0.9625,0.75486 1.75,1.54235 1.75,1.75 0,0.82304 -0.82119,0.29331 -2.12756,-1.37244 z M 69.309436,129.40617 c 0.972967,-0.25354 2.322967,-0.23687 3,0.0371 0.677032,0.27393 -0.119032,0.48137 -1.769032,0.46099 -1.65,-0.0204 -2.203936,-0.24449 -1.230968,-0.49804 z m 17.655282,-2.057 -2.424314,-2.75 2.75,2.4243 c 2.570289,2.26589 3.208588,3.07569 2.424314,3.07569 -0.179127,0 -1.416627,-1.2375 -2.75,-2.74999 z m 44.344712,2.057 c 0.97297,-0.25354 2.32297,-0.23687 3,0.0371 0.67703,0.27393 -0.11903,0.48137 -1.76903,0.46099 -1.65,-0.0204 -2.20394,-0.24449 -1.23097,-0.49804 z m -98.269026,-3.24798 c 0,-0.51754 0.444846,-1.21593 0.988546,-1.55194 0.56686,-0.35034 0.734507,0.0511 0.393011,0.94097 -0.664791,1.73242 -1.381557,2.04939 -1.381557,0.61097 z m 195.078946,-1.64235 c 0.048,-1.16495 0.28494,-1.40191 0.60416,-0.60417 0.28887,0.72186 0.25335,1.58437 -0.0789,1.91667 -0.3323,0.33229 -0.56864,-0.25834 -0.52522,-1.3125 z m -35.07895,0.20577 c 0,-0.20765 0.7875,-0.99515 1.75,-1.75 1.58606,-1.24387 1.62143,-1.2085 0.37756,0.37756 -1.30637,1.66575 -2.12756,2.19548 -2.12756,1.37244 z m 12.87244,-1.37244 c -1.24387,-1.58607 -1.2085,-1.62144 0.37756,-0.37756 1.66575,1.30636 2.19548,2.12756 1.37244,2.12756 -0.20765,0 -0.99515,-0.7875 -1.75,-1.75 z m -121.714541,-2.25 c 0,-1.375 0.226973,-1.9375 0.504386,-1.25 0.277412,0.6875 0.277412,1.8125 0,2.5 -0.277413,0.6875 -0.504386,0.125 -0.504386,-1.25 z m 113.654601,0.31689 c 0.72187,-0.28888 1.58437,-0.25336 1.91667,0.0789 0.33229,0.33229 -0.25834,0.56863 -1.3125,0.52521 -1.16495,-0.048 -1.4019,-0.28494 -0.60417,-0.60416 z M 40.309436,120.40617 c 0.972967,-0.25353 2.322967,-0.23687 3,0.0371 0.677032,0.27393 -0.119032,0.48136 -1.769032,0.46099 -1.65,-0.0204 -2.203936,-0.2445 -1.230968,-0.49804 z m 188.730964,0.31544 c 0,-0.20765 0.7875,-0.99515 1.75,-1.75 1.58606,-1.24387 1.62143,-1.2085 0.37756,0.37756 -1.30637,1.66575 -2.12756,2.19548 -2.12756,1.37244 z m -114.44236,-1.52918 c -0.30822,-0.49871 0.34022,-0.67122 1.44098,-0.38337 2.33499,0.61061 2.63015,1.29011 0.5604,1.29011 -0.79254,0 -1.69316,-0.40803 -2.00138,-0.90674 z m 33.19236,-0.75555 c 0.6875,-0.27741 1.8125,-0.27741 2.5,0 0.6875,0.27741 0.125,0.50439 -1.25,0.50439 -1.375,0 -1.9375,-0.22698 -1.25,-0.50439 z m 92.25,-0.33771 c -0.90129,-0.58246 -1.02463,-0.9755 -0.30902,-0.98469 0.65504,-0.008 1.4691,0.43468 1.80902,0.98469 0.7673,1.24153 0.42112,1.24153 -1.5,0 z m -74.84211,-2 c 0,-1.375 0.22698,-1.9375 0.50439,-1.25 0.27741,0.6875 0.27741,1.8125 0,2.5 -0.27741,0.6875 -0.50439,0.125 -0.50439,-1.25 z m -109.568607,0.14446 c -0.290815,-0.47055 0.582628,-0.64309 1.940983,-0.38343 1.358356,0.25967 2.469738,0.64465 2.469738,0.85554 0,0.77376 -3.898641,0.35644 -4.410721,-0.47211 z m 128.568607,-1.14446 c 0,-1.375 0.22698,-1.9375 0.50439,-1.25 0.27741,0.6875 0.27741,1.8125 0,2.5 -0.27741,0.6875 -0.50439,0.125 -0.50439,-1.25 z m 31.11114,0.307 c 0.97297,-0.25353 2.32297,-0.23687 3,0.0371 0.67703,0.27393 -0.11903,0.48136 -1.76903,0.46099 -1.65,-0.0204 -2.20394,-0.2445 -1.23097,-0.49804 z m 4.73097,-0.70002 c 0,-0.21616 0.69837,-0.661 1.55194,-0.98855 0.88992,-0.34148 1.29132,-0.17384 0.94098,0.39301 -0.58726,0.95021 -2.49292,1.40545 -2.49292,0.59554 z M 91.309436,113.40617 c 0.972967,-0.25353 2.322967,-0.23687 3,0.0371 0.677032,0.27393 -0.119032,0.48136 -1.769032,0.46099 -1.65,-0.0204 -2.203936,-0.2445 -1.230968,-0.49804 z m 74.809914,-0.98443 c -0.0902,-1.34554 4.62712,-5.32447 6.30591,-5.31884 0.61333,0.002 -0.29756,0.86515 -2.02419,1.91801 -1.72664,1.05284 -3.37861,2.51365 -3.67106,3.24626 -0.33798,0.84666 -0.56048,0.90299 -0.61066,0.15457 z m 14.42105,-3.32257 c -0.33992,-0.55001 -1.82898,-1.06129 -3.30902,-1.13618 -2.33411,-0.11812 -2.39464,-0.19339 -0.45643,-0.56754 1.229,-0.23724 3.24163,0.27405 4.47251,1.13618 1.23087,0.86215 1.71438,1.56754 1.07446,1.56754 -0.63992,0 -1.4416,-0.45 -1.78152,-1 z M 52.040404,104.7216 c 0,-0.20765 0.7875,-0.99514 1.75,-1.75 1.586056,-1.24387 1.621426,-1.2085 0.377555,0.37757 -1.306369,1.66575 -2.127555,2.19548 -2.127555,1.37243 z m 11,-1.62243 c -0.901292,-0.58246 -1.024633,-0.97549 -0.309017,-0.98469 0.655041,-0.008 1.469098,0.43469 1.809017,0.98469 0.767305,1.24152 0.421123,1.24152 -1.5,0 z m 158.872436,-1.75 c -1.24387,-1.586065 -1.2085,-1.621435 0.37756,-0.37757 1.66575,1.30637 2.19548,2.12757 1.37244,2.12757 -0.20765,0 -0.99515,-0.7875 -1.75,-1.75 z m -74.05994,0.0669 c 0.72187,-0.28887 1.58437,-0.25335 1.91667,0.0789 0.33229,0.3323 -0.25834,0.56864 -1.3125,0.52522 -1.16495,-0.048 -1.4019,-0.28494 -0.60417,-0.60416 z M 89.040404,98.099165 c 0.588702,-1.1 1.295368,-2 1.570368,-2 0.275,0 0.01833,0.9 -0.570368,2 -0.588702,1.1 -1.295368,2.000005 -1.570368,2.000005 -0.275,0 -0.01833,-0.900005 0.570368,-2.000005 z m -14.805051,-4.5 c 0.02038,-1.65 0.244498,-2.20394 0.498042,-1.23097 0.253543,0.97297 0.236869,2.32297 -0.03705,3 -0.273927,0.67703 -0.481372,-0.11903 -0.460992,-1.76903 z m 93.617547,-1.18311 c 0.72187,-0.28887 1.58437,-0.25335 1.91667,0.0789 0.33229,0.3323 -0.25834,0.56864 -1.3125,0.52522 -1.16495,-0.048 -1.4019,-0.28494 -0.60417,-0.60416 z m -78.905333,-2.92875 c -0.73575,-0.88653 -2.25335,-1.983 -3.372445,-2.43662 -1.433729,-0.58114 -1.569312,-0.84347 -0.459032,-0.88813 0.866627,-0.0349 2.632569,1.06161 3.924314,2.43661 1.291745,1.375 2.100287,2.5 1.796759,2.5 -0.303528,0 -1.153847,-0.72534 -1.889596,-1.61186 z m 52.361863,-0.0811 c 0.97297,-0.25354 2.32297,-0.23687 3,0.037 0.67703,0.27393 -0.11903,0.48137 -1.76903,0.46099 -1.65,-0.0204 -2.20394,-0.2445 -1.23097,-0.49804 z m -4.86404,-2.55704 -1.90499,-2.25 2.25,1.90499 c 2.11444,1.79022 2.70524,2.59501 1.90499,2.59501 -0.18976,0 -1.20226,-1.0125 -2.25,-2.25 z m 12.6954,-0.45452 c 0.72815,-1.21249 1.53915,-1.98927 1.80223,-1.72619 0.26308,0.26308 -0.33267,1.25511 -1.3239,2.20452 -1.72194,1.64929 -1.74325,1.62798 -0.47833,-0.47833 z m 49.77205,-0.0455 c -1.24387,-1.58606 -1.2085,-1.62143 0.37756,-0.37756 1.66575,1.30637 2.19548,2.12756 1.37244,2.12756 -0.20765,0 -0.99515,-0.7875 -1.75,-1.75 z m -21.79349,-2.83333 c 0.048,-1.16495 0.28494,-1.4019 0.60416,-0.60417 0.28887,0.72187 0.25335,1.58437 -0.0789,1.91667 -0.3323,0.33229 -0.56864,-0.25834 -0.52522,-1.3125 z m -28.67396,-8.66665 -1.90499,-2.25 2.25,1.904988 c 2.11444,1.790218 2.70524,2.595012 1.90499,2.595012 -0.18976,0 -1.20226,-1.0125 -2.25,-2.25 z"
       id="path110"
       inkscape:connector-curvature="0" />
  </g>
</svg>
