<?xml version="1.0" encoding="UTF-8" standalone="no"?>
<!-- Created with Inkscape (http://www.inkscape.org/) -->

<svg
   xmlns:dc="http://purl.org/dc/elements/1.1/"
   xmlns:cc="http://creativecommons.org/ns#"
   xmlns:rdf="http://www.w3.org/1999/02/22-rdf-syntax-ns#"
   xmlns:svg="http://www.w3.org/2000/svg"
   xmlns="http://www.w3.org/2000/svg"
   xmlns:sodipodi="http://sodipodi.sourceforge.net/DTD/sodipodi-0.dtd"
   xmlns:inkscape="http://www.inkscape.org/namespaces/inkscape"
   version="1.1"
   id="svg2949"
   width="283"
   height="443"
   viewBox="0 0 283 443"
   sodipodi:docname="feu73.svg"
   inkscape:version="0.92.4 (5da689c313, 2019-01-14)">
  <metadata
     id="metadata2955">
    <rdf:RDF>
      <cc:Work
         rdf:about="">
        <dc:format>image/svg+xml</dc:format>
        <dc:type
           rdf:resource="http://purl.org/dc/dcmitype/StillImage" />
        <dc:title></dc:title>
      </cc:Work>
    </rdf:RDF>
  </metadata>
  <defs
     id="defs2953" />
  <sodipodi:namedview
     pagecolor="#ffffff"
     bordercolor="#666666"
     borderopacity="1"
     objecttolerance="10"
     gridtolerance="10"
     guidetolerance="10"
     inkscape:pageopacity="0"
     inkscape:pageshadow="2"
     inkscape:window-width="1280"
     inkscape:window-height="972"
     id="namedview2951"
     showgrid="false"
     inkscape:zoom="1.5067919"
     inkscape:cx="112.64858"
     inkscape:cy="221.5"
     inkscape:window-x="-8"
     inkscape:window-y="-8"
     inkscape:window-maximized="1"
     inkscape:current-layer="svg2949" />
  <path
     style="fill:#ffcc00"
     d="m 126.50402,343.75947 c -2.43857,-1.17839 -5.71773,-8.27423 -4.67726,-10.12119 3.67122,-6.51685 10.47452,-7.73292 15.44643,-2.761 1.6077,1.60769 2.92308,3.61152 2.92308,4.45294 0,2.84555 -2.15636,6.28513 -4.9895,7.95871 -3.18775,1.88304 -5.51889,2.00909 -8.70275,0.47054 z m 28.44223,-1.83516 c -0.96251,-0.58823 -2.40289,-2.33201 -3.20083,-3.87506 -1.85805,-3.59309 -0.29929,-9.35563 3.00974,-11.12657 5.10547,-2.73236 13.44916,1.87312 13.43614,7.41638 -0.0128,5.46461 -8.63521,10.40252 -13.24505,7.58525 z m -55.608257,-5.51707 c -4.811096,-6.11632 -3.068784,-12.93786 3.756207,-14.7064 7.41565,-1.92158 14.40162,5.5881 11.04058,11.86826 -2.9768,5.5622 -11.38539,7.17504 -14.796787,2.83814 z m 80.032587,-2.76749 c -3.34175,-3.55714 -2.94629,-8.85818 0.90242,-12.09666 3.58415,-3.01586 3.87278,-3.05465 8.46175,-1.13726 5.69861,2.38103 7.29277,9.59545 2.95391,13.36803 -3.47092,3.01793 -9.41771,2.95319 -12.31808,-0.13411 z M 71.071368,324.05414 c -3.291974,-2.66568 -3.150744,-9.58837 0.250707,-12.289 3.134876,-2.48897 9.634343,-1.82537 12.113978,1.23685 6.08521,7.51491 -4.760684,17.2095 -12.364685,11.05215 z M 204.86941,319.9776 c -3.63899,-4.3247 -3.41488,-7.16496 0.86166,-10.91981 4.45208,-3.90898 7.76189,-3.96074 11.54212,-0.18051 5.53316,5.53315 2.7262,12.28524 -5.66501,13.62704 -3.70705,0.59279 -4.30139,0.36994 -6.73877,-2.52672 z m -62.60056,-5.65826 c -1.13992,-1.44917 -2.0709,-3.58667 -2.06884,-4.75 0.006,-3.32072 3.46222,-8.15129 6.83073,-9.54658 2.72976,-1.1307 3.40763,-1.03236 6.1003,0.88499 6.64862,4.73424 7.59185,8.67368 3.14215,13.12337 -2.3655,2.36551 -3.78227,2.92308 -7.42742,2.92308 -3.67504,0 -4.88592,-0.48511 -6.57692,-2.63486 z m -24.95002,-1.46396 c -2.93368,-3.14894 -3.43729,-6.5598 -1.46222,-9.90333 5.74703,-9.72895 19.76197,-3.07982 15.71848,7.45735 -1.66675,4.34347 -10.99708,5.94429 -14.25626,2.44598 z m 51.68878,-3.55943 c -4.5029,-1.83933 -5.74823,-5.62932 -3.36441,-10.23912 4.34809,-8.40829 16.55307,-5.93685 16.55307,3.35192 0,3.23456 -2.6009,7.40683 -4.75,7.61976 -0.4125,0.0409 -1.65,0.23178 -2.75,0.42424 -1.1,0.19246 -3.6599,-0.3281 -5.68866,-1.1568 z M 47.969881,305.7042 c -2.398684,-3.70571 -2.808237,-8.98901 -0.881282,-11.3687 3.824431,-4.72297 9.226702,-5.64871 13.472815,-2.30872 2.123124,1.67005 2.634859,2.9152 2.634859,6.41111 0,3.61699 -0.511682,4.76907 -3.076725,6.92742 -4.071503,3.42594 -10.04361,3.59252 -12.149667,0.33889 z M 225.9179,304.76996 c -6.67309,-4.86101 -2.67071,-15.81576 5.77837,-15.81576 3.78658,0 6.04825,1.49515 7.47613,4.94237 1.67719,4.0491 0.65475,7.47222 -3.01166,10.08293 -3.99519,2.84482 -7.09433,3.08399 -10.24284,0.79046 z M 89.650818,301.49965 c -2.648972,-2.64897 -3.107068,-6.01921 -1.344088,-9.88853 2.694877,-5.91461 10.700779,-5.85654 14.18126,0.10287 3.52502,6.03567 -0.77671,12.24021 -8.486395,12.24021 -1.042927,0 -3.000777,-1.10455 -4.350777,-2.45455 z m 101.433502,-3.04238 c -3.92103,-2.13511 -5.37103,-6.42153 -3.59367,-10.62339 2.26281,-5.34949 5.00509,-7.25306 9.433,-6.54795 7.64873,1.21798 11.01399,10.01781 5.81807,15.21372 -1.35,1.35 -3.33819,2.45455 -4.41821,2.45455 -1.08001,0 -2.56297,0.2082 -3.29545,0.46268 -0.73249,0.25447 -2.50717,-0.17735 -3.94374,-0.95961 z m -47.13595,-10.26002 c -6.83731,-4.23922 -2.95242,-16.24305 5.25686,-16.24305 6.86817,0 10.97448,6.4254 7.84422,12.27434 -2.95241,5.51663 -8.09291,7.07384 -13.10108,3.96871 z m -78.163203,-2.31978 c -3.122256,-3.71059 -3.207997,-5.18547 -0.551343,-9.48403 2.263194,-3.66192 6.629986,-5.22272 9.826245,-3.51213 3.614684,1.93452 6.166799,6.08921 5.493749,8.94349 -1.76086,7.46748 -9.994195,9.72679 -14.768651,4.05267 z m -34.932592,0.9442 c -1.014033,-0.58945 -2.468072,-2.56606 -3.231196,-4.39247 -2.38225,-5.70153 1.6694,-12.475 7.4621,-12.475 8.331342,0 12.08101,9.42485 6.007039,15.09879 -3.243659,3.03003 -6.962713,3.67252 -10.237943,1.76868 z m 87.658405,-0.37719 c -5.77377,-2.42769 -6.88987,-7.73635 -2.76382,-13.14589 2.04254,-2.6779 3.25358,-3.34439 6.07692,-3.34439 4.16579,0 9.37219,4.5059 9.37219,8.1112 0,2.70656 -4.07994,9.02418 -5.5,8.51653 -0.55,-0.19661 -1.68131,-0.009 -2.51403,0.41629 -0.83433,0.4264 -2.93142,0.1778 -4.67126,-0.55374 z m 124.35981,-2.95861 c -4.40219,-4.4022 -4.46815,-9.49802 -0.17514,-13.53109 2.95135,-2.77265 6.84531,-2.88034 10.32091,-0.28543 4.01267,2.99589 4.58447,7.56831 1.58074,12.64066 -1.57538,2.66033 -9.4522,3.45016 -11.72651,1.17586 z m -74.17452,-2.73208 c -2.77872,-1.5833 -5.5,-4.82483 -5.5,-6.55147 0,-2.85383 3.14342,-7.99243 5.56378,-9.09523 1.92723,-0.8781 3.30996,-0.7871 6.31601,0.41569 6.62961,2.65264 8.1459,9.54913 3.04348,13.84253 -3.30239,2.77878 -6.22699,3.20971 -9.42327,1.38848 z m 43.38661,-0.46138 c -6.13486,-2.45019 -7.56484,-8.44916 -3.33572,-13.99382 3.23658,-4.24337 7.84857,-4.56204 12.26324,-0.84734 5.62296,4.73142 4.95183,11.0527 -1.52384,14.35275 -3.45186,1.7591 -4.11292,1.8027 -7.40368,0.48841 z M 93.936055,274.41373 c -3.774522,-3.49993 -3.664371,-7.68879 0.306609,-11.65977 2.632165,-2.63216 3.549981,-2.96623 6.749996,-2.45683 4.42542,0.70445 8.21704,4.6311 8.17181,8.46283 -0.086,7.2882 -9.640297,10.83536 -15.228415,5.65377 z m -42.154549,-6.50306 c -3.354889,-1.00325 -4.548281,-2.50641 -4.56992,-5.75613 -0.01698,-2.54928 2.644939,-8.29093 4.374219,-9.43503 2.517243,-1.66541 6.823356,-0.70627 9.687391,2.15777 4.646554,4.64655 3.516803,10.09525 -2.625296,12.66158 -1.863064,0.77844 -3.514343,1.37666 -3.669508,1.32939 -0.155166,-0.0473 -1.593764,-0.47819 -3.196886,-0.95758 z m 136.375844,-1.41975 c -1.39641,-0.75867 -3.1434,-2.50887 -3.8822,-3.88933 -1.17365,-2.19298 -1.09927,-2.9277 0.58899,-5.81841 2.49006,-4.26356 6.16827,-6.33791 9.67686,-5.45731 4.09543,1.02789 6.65527,4.1345 6.65527,8.07681 0,6.62333 -6.94529,10.39894 -13.03892,7.08824 z M 18.696273,261.16105 c -9.6846714,-2.00145 -7.390958,-16.20685 2.616883,-16.20685 7.319001,0 11.352188,7.23486 7.107215,12.74916 -1.886978,2.45121 -6.557757,4.11205 -9.724098,3.45769 z m 120.828737,-1.7084 c -5.85451,-2.46584 -6.41384,-7.44093 -1.44309,-12.83595 2.2613,-2.45431 3.15315,-2.76667 6.60413,-2.31299 7.52404,0.98912 10.08314,8.4446 4.64298,13.52648 -3.33803,3.11818 -5.43062,3.46448 -9.80402,1.62246 z m 115.40767,0.85344 c -3.03766,-0.86771 -4.79436,-5.55814 -3.64318,-9.72735 1.3122,-4.75241 4.79133,-7.05638 9.361,-6.1991 3.76463,0.70625 7.54577,4.92704 7.54577,8.42317 0,4.93911 -7.46215,9.16049 -13.26359,7.50328 z M 73.650818,255.49965 c -2.891947,-2.89194 -3.102868,-5.5966 -0.727643,-9.33063 2.351766,-3.69715 3.204387,-4.18179 7.388239,-4.19951 9.03441,-0.0383 12.536628,10.52781 4.813338,14.52168 -4.28426,2.21547 -8.643647,1.83875 -11.473934,-0.99154 z m 149.193942,-1.16968 c -2.00655,-2.00655 -2.47916,-3.24229 -2.0079,-5.25 2.40567,-10.24897 11.08953,-13.26348 16.10941,-5.59222 3.45256,5.27612 3.07857,7.2471 -2.13486,11.25092 -3.9684,3.04767 -8.67088,2.88706 -11.96665,-0.4087 z m -109.0822,-1.71857 c -2.9431,-2.9431 -3.34529,-7.10001 -1.00959,-10.43469 2.35839,-3.36707 9.2748,-3.11828 12.85551,0.46243 4.67902,4.67902 1.76418,10.37645 -6.09592,11.91526 -2.57367,0.50385 -3.67545,0.13155 -5.75,-1.943 z m 46.07973,-1.10945 c -4.26259,-3.95044 -3.54764,-10.51302 1.4255,-13.08474 6.91766,-3.57725 12.92848,-0.0441 12.92848,7.59927 0,7.22654 -8.833,10.60214 -14.35398,5.48547 z m 43.28575,-5.58992 c -0.73495,-0.45423 -1.76479,-0.56103 -2.28853,-0.23734 -0.52374,0.32369 -0.63117,0.069 -0.23873,-0.56598 0.39244,-0.63498 0.17971,-1.15451 -0.47272,-1.15451 -0.82536,0 -1.03583,-1.5654 -0.69183,-5.14552 0.37315,-3.88347 1.07885,-5.59492 2.87723,-6.97776 7.93874,-6.10444 18.52617,4.57083 11.50079,11.59621 -1.38989,1.38989 -3.33503,2.5615 -4.32253,2.60358 -0.9875,0.0421 -2.52264,0.21841 -3.41143,0.39185 -0.88879,0.17343 -2.2173,-0.0563 -2.95225,-0.51053 z M 38.842296,242.50195 c -5.593066,-5.18348 -1.743046,-13.54775 6.235942,-13.54775 6.670109,0 10.338724,6.76389 6.293361,11.60318 -4.082182,4.88333 -8.601495,5.58474 -12.529303,1.94457 z m 55.990341,-6.18411 c -3.046797,-3.0468 -3.158983,-3.86859 -1.176007,-8.61452 3.225652,-7.72007 15.53964,-5.29573 15.53964,3.0594 0,7.29257 -9.10488,10.81387 -14.363633,5.55512 z m 42.923813,0.50504 c -7.36288,-5.79164 -4.04544,-13.93023 5.64016,-13.83688 4.68074,0.0451 6.70555,2.00248 7.41335,7.16639 0.555,4.04918 0.35067,4.68468 -2.13483,6.63978 -3.48686,2.74276 -7.45667,2.75393 -10.91868,0.0307 z m -73.059017,-3.01445 c -3.781051,-1.02678 -5.50116,-3.35143 -5.50116,-7.43458 0,-4.58074 2.72715,-7.43924 7.738708,-8.11143 3.815056,-0.51171 4.509499,-0.25402 7.265025,2.69578 3.281386,3.51273 3.299885,5.42603 0.09613,9.94217 -2.097056,2.95608 -5.559278,4.00501 -9.598701,2.90806 z m 109.953387,-1.30878 c -1.35807,-1.35806 -2.45455,-3.626 -2.45455,-5.07692 0,-3.47625 5.01083,-8.46853 8.5,-8.46853 3.65238,0 8.5,4.9895 8.5,8.74876 0,6.70369 -9.50422,9.83793 -14.54545,4.79669 z m 86.62237,-0.62237 c -2.72598,-2.72598 -3.15884,-3.76413 -2.64404,-6.34135 1.50123,-7.51564 8.77745,-10.09867 13.93076,-4.94537 5.04564,5.04565 2.38852,12.46321 -4.99345,13.9396 -2.52012,0.50403 -3.58543,0.055 -6.29327,-2.65288 z m -249.761545,0.0699 c -5.1862721,-2.0896 -5.8715844,-9.50577 -1.238647,-13.40413 3.723714,-3.1333 6.120364,-3.24824 10.556919,-0.50629 9.743644,6.0219 1.531072,18.28172 -9.318272,13.91042 z m 108.184625,0.0832 c -9.13985,-3.83928 -5.72136,-16.4659 3.9659,-14.64855 4.59317,0.86168 7.5341,3.74951 7.5341,7.39806 0,4.97062 -6.76849,9.238 -11.5,7.25049 z m 115.85882,-0.29172 c -3.53954,-1.13962 -5.35882,-4.27743 -5.35882,-9.24262 0,-2.52885 0.76387,-4.00681 3.07673,-5.95295 3.40425,-2.86449 5.53457,-3.17875 9.45121,-1.3942 4.59542,2.09381 6.95783,9.33915 4.19026,12.8512 -1.64861,2.09209 -5.92518,4.97776 -7.19071,4.85202 -0.56512,-0.0562 -2.44102,-0.5572 -4.16867,-1.11345 z m -81.83575,-5.03446 c -1.7983,-1.56317 -2.62539,-3.32711 -2.70946,-5.77854 -0.13988,-4.07846 1.63692,-7.97146 3.63824,-7.97146 0.75982,0 1.56148,-0.54 1.78148,-1.2 0.22,-0.66 2.11582,-1.2 4.21293,-1.2 9.06259,0 11.79696,12.63726 3.64636,16.8521 -4.16957,2.15617 -7.53879,1.93237 -10.56955,-0.7021 z m 55.60193,-5.62082 c -4.97026,-3.82209 -1.53013,-12.365 5.21027,-12.93871 6.81085,-0.5797 11.06001,6.94478 7.10803,12.58702 -1.99531,2.8487 -8.81787,3.04348 -12.3183,0.35169 z M 36.696273,216.24837 c -2.662232,-0.63072 -5.450181,-4.24118 -5.477764,-7.09383 -0.03683,-3.80919 2.710081,-7.91137 6.085569,-9.08808 2.673972,-0.93215 3.679534,-0.78878 6.441935,0.91848 4.336941,2.68038 6.047697,7.40851 3.878464,10.71918 -1.273898,1.94421 -7.464206,5.62004 -8.646085,5.13408 -0.155166,-0.0638 -1.182119,-0.32923 -2.282119,-0.58983 z m 50.551099,-1.72124 c -4.784381,-2.64958 -5.30377,-8.47411 -1.128022,-12.64985 3.853067,-3.85307 8.405415,-3.94061 12.272204,-0.23599 3.750226,3.59295 3.708976,7.5625 -0.118358,11.38983 -3.224883,3.22489 -6.98318,3.73482 -11.025824,1.49601 z m 46.171758,-2.51656 c -2.59431,-2.36953 -3.22286,-3.7174 -3.22286,-6.91111 0,-3.23607 0.59013,-4.46403 3.20114,-6.66106 2.62664,-2.21017 3.88975,-2.60122 7.0381,-2.17894 5.46271,0.73271 8.5561,3.08689 9.30556,7.08188 1.78511,9.51541 -9.07822,15.28535 -16.32194,8.66923 z m -26.0343,-4.09533 c -1.20371,-1.12142 -2.22299,-2.58392 -2.26507,-3.25 -0.0421,-0.66607 -0.24374,-2.11078 -0.44813,-3.21047 -0.55667,-2.99513 4.23009,-7.50165 7.96173,-7.4956 3.97492,0.006 8.40055,3.67106 9.15282,7.57891 1.23602,6.42091 -9.33155,11.1004 -14.40135,6.37716 z m 73.09815,-0.21104 c -7.96836,-5.62891 -1.50169,-17.81252 7.74367,-14.58956 5.80215,2.02264 7.78066,10.11943 3.51507,14.38501 -3.08297,3.08298 -7.08118,3.15561 -11.25874,0.20455 z m 84.41722,0.6566 c -5.22726,-2.83931 -6.22904,-9.9115 -1.96415,-13.86613 3.3112,-3.07032 7.09128,-3.2478 10.58818,-0.49714 4.98148,3.91844 4.43336,13.04681 -0.86324,14.37617 -1.2534,0.31458 -2.88322,0.78209 -3.62182,1.03891 -0.73859,0.25682 -2.60113,-0.21649 -4.13897,-1.05181 z M 59.840851,204.3267 c -5.441901,-5.86885 -1.440264,-13.3725 7.131448,-13.3725 6.021608,0 9.422865,8.06292 5.463754,12.95221 -1.07835,1.33171 -3.346607,2.38656 -5.855421,2.72306 -3.580382,0.48023 -4.427661,0.19074 -6.739781,-2.30277 z m -49.456508,0.83959 c -2.5735264,-0.409 -6.461279,-5.88066 -5.8348904,-8.21209 0.2216543,-0.825 0.5703657,-2.16408 0.7749142,-2.97572 0.6329337,-2.51148 4.9614112,-5.35761 8.1480052,-5.35761 3.405488,0 8.723901,5.00771 8.723901,8.21425 0,4.50981 -6.593716,9.16048 -11.81193,8.33117 z m 147.735007,-2.13517 c -3.62668,-3.62668 -3.89609,-8.07961 -0.67308,-11.12505 1.84553,-1.74385 3.13406,-2.04399 7.16787,-1.66962 5.74633,0.53331 7.58213,2.40602 7.58213,7.73457 0,7.66578 -8.43809,10.69894 -14.07692,5.0601 z m 74.82692,-0.13648 c -6.4446,-6.23324 -1.02691,-16.76374 8.26022,-16.05559 0.83062,0.0633 2.74312,1.25836 4.25,2.65562 5.12422,4.75145 3.07571,13.53142 -3.51146,15.05023 -5.40755,1.24682 -6.14286,1.11198 -8.99876,-1.65026 z m -27.16111,-8.01717 c -1.42389,-1.69219 -2.58889,-3.6879 -2.58889,-4.4349 0,-2.84157 2.00858,-6.44789 4.50069,-8.08078 2.18302,-1.43037 3.19194,-1.51665 6.42127,-0.54912 4.77489,1.43059 7.31341,5.83405 6.0011,10.40982 -0.98026,3.41796 -0.7319,3.10151 -3.60732,4.59626 -4.01957,2.08951 -7.93075,1.38169 -10.72685,-1.94128 z M 90.831132,189.88162 c -2.032361,-1.59866 -2.634859,-2.95404 -2.634859,-5.92742 0,-7.82927 10.218924,-11.09383 15.411107,-4.92327 3.34872,3.97972 3.2679,6.39811 -0.33419,10.00019 -3.574937,3.57495 -8.546451,3.91479 -12.442058,0.8505 z m 33.865138,1.26867 c -4.57275,-0.55394 -6.5,-2.86026 -6.5,-7.7785 0,-5.1844 3.3341,-8.41759 8.68031,-8.41759 6.99233,0 10.98909,8.31207 6.06969,12.62314 -3.86517,3.3872 -5.15871,3.94742 -8.25,3.57295 z m 20,-2.40391 c -5.06081,-2.90237 -5.9738,-8.40929 -2.04545,-12.33763 2.84112,-2.84113 7.19226,-3.20567 11.52424,-0.96552 5.3355,2.7591 5.20399,9.20939 -0.25563,12.53825 -3.63946,2.21907 -6.30246,2.43992 -9.22316,0.7649 z M 36.235228,185.76564 c -2.218841,-2.38165 -2.711529,-7.68621 -1.009311,-10.86683 3.019812,-5.64257 11.703209,-5.20932 14.824371,0.73965 1.85526,3.53614 1.33625,6.27932 -1.777092,9.39266 -3.684311,3.68431 -8.988306,4.00795 -12.037968,0.73452 z m 138.475382,-1.53673 c -5.83434,-1.50476 -7.23275,-8.71014 -2.59126,-13.35163 4.80537,-4.80538 10.82343,-3.16734 13.70552,3.73045 1.45576,3.48413 0.92072,5.84936 -1.824,8.06324 -1.68969,1.3629 -6.75381,2.21213 -9.29026,1.55794 z M 68.696273,181.82653 c -1.1,-0.64201 -2.151849,-1.29027 -2.337443,-1.44059 -0.185594,-0.15031 -0.693937,-1.85394 -1.129652,-3.78585 -1.448616,-6.42297 3.955728,-11.86997 10.217095,-10.29773 3.829279,0.96154 5.771973,3.01239 6.375296,6.73024 0.460789,2.83951 0.09731,4.12718 -1.772833,6.28048 -2.677097,3.08243 -8.259831,4.31846 -11.352463,2.51345 z m -56.863636,-6.50869 c -1.45,-1.45 -2.6363639,-3.67883 -2.6363639,-4.95295 0,-9.2504 11.3848669,-12.36848 15.5749959,-4.26566 2.053121,3.9703 1.764405,6.60648 -1.029541,9.40042 -3.387977,3.38798 -8.416062,3.31122 -11.909091,-0.18181 z m 218.169923,0.63636 c -2.25717,-2.21376 -3.80629,-5.55585 -3.80629,-8.21175 0,-5.94036 6.93271,-9.42577 12.75734,-6.41374 3.41316,1.76502 4.24266,3.36381 4.24266,8.17734 0,2.59558 -0.69301,3.90064 -2.96218,5.57831 -3.49531,2.58419 -8.08565,2.97444 -10.23153,0.86984 z m 30.98485,1.22407 c -2.77395,-0.57606 -6.10314,-6.8398 -5.31766,-10.00497 1.79868,-7.24796 8.52675,-9.37272 13.60344,-4.29602 4.10072,4.10071 4.07042,9.16878 -0.0731,12.23224 -3.00404,2.22098 -5.02645,2.73042 -8.21265,2.06875 z m -155.1191,-4.2674 c -2.95544,-2.32475 -4.37692,-7.77108 -2.79815,-10.72102 0.58132,-1.08622 2.5666,-2.69132 4.41171,-3.56689 2.7678,-1.3134 4.01762,-1.3885 7.14333,-0.42919 7.4422,2.28408 8.91921,10.28385 2.67319,14.47851 -4.20791,2.82591 -8.03917,2.90588 -11.43008,0.23859 z m 94.55612,-2.49416 c -4.66437,-1.53627 -6.62816,-3.89541 -6.62816,-7.96251 0,-4.20106 1.96999,-6.44303 6.53939,-7.44223 8.26975,-1.80836 14.06924,6.45461 8.4548,12.04621 -4.29631,4.27884 -4.87116,4.50961 -8.36603,3.35853 z m -46.72816,-4.42277 c -3.23759,-1.82745 -5.48075,-5.34008 -5.45345,-8.53974 0.0644,-7.55272 14.21429,-9.20452 16.96106,-1.97997 1.4977,3.93924 1.24256,5.17172 -1.75761,8.49009 -3.36809,3.72532 -5.83574,4.239 -9.75,2.02962 z m -27.04545,-1.49429 c -5.40491,-5.4049 -1.83669,-14.54545 5.67814,-14.54545 4.00533,0 8.87926,4.78432 8.83551,8.67308 -0.0815,7.24864 -9.37654,11.00949 -14.51365,5.87237 z m -78.225587,-4.21474 c -1.695839,-0.68232 -4.32007,-5.86634 -3.805406,-7.51736 0.22517,-0.72234 0.678505,-2.54267 1.00741,-4.04516 0.668905,-3.05567 4.946482,-5.76819 9.096299,-5.76819 3.19703,0 8.472737,4.96437 8.472737,7.97274 0,7.03128 -7.983317,12.08899 -14.77104,9.35797 z m 31.225585,-1.78526 c -1.640787,-1.64078 -2.454545,-3.57859 -2.454545,-5.84501 0,-8.4542 12.090272,-10.16764 15.885954,-2.25136 1.219139,2.54263 1.175787,3.2808 -0.360176,6.13291 -2.710336,5.03279 -9.04966,5.98504 -13.071233,1.96346 z M 20.196273,150.7447 c -9.578509,-6.44317 0.1856,-19.6128 10.07998,-13.59567 3.224845,1.96115 5.291714,6.05871 4.428299,8.77908 -0.855022,2.69394 -4.827804,5.94024 -8.056354,6.58313 -2.140273,0.42618 -3.914274,-0.0595 -6.451925,-1.76654 z m 197.309297,1.52039 c -2.87157,-0.56948 -6.38459,-7.79981 -5.6255,-11.57816 1.32092,-6.57489 10.38469,-8.81809 15.39312,-3.80965 7.22924,7.22923 0.7291,17.46948 -9.76762,15.38781 z m -42.94475,-2.48027 c -4.70883,-2.28009 -5.10547,-8.23255 -0.83326,-12.50476 2.64091,-2.64091 8.58633,-2.81772 11.71871,-0.3485 3.83738,3.02497 3.89473,8.97703 0.11514,11.95006 -2.81389,2.21341 -7.50015,2.59817 -11.00059,0.9032 z m 75.48616,0.0504 c -3.92893,-1.45415 -5.36854,-5.7059 -3.47028,-10.24909 2.76061,-6.60705 10.12465,-7.08859 14.16247,-0.9261 1.86254,2.8426 1.31888,8.33407 -1.017,10.27268 -1.98072,1.64385 -6.52648,2.06788 -9.67519,0.90251 z M 102.21683,146.8707 c -4.329329,-1.78416 -6.020557,-4.01077 -6.020557,-7.92645 0,-2.91721 0.654654,-4.24232 3.0944,-6.26351 8.392147,-6.95242 20.219387,2.4356 14.237187,11.30095 -0.91762,1.35988 -1.70512,2.54488 -1.75,2.63333 -0.43369,0.85478 -7.63968,1.04748 -9.56103,0.25568 z m 48.15375,-8.23095 c -6.44898,-6.86463 2.37922,-17.55339 10.87103,-13.1621 5.02128,2.5966 5.54325,8.71431 1.17117,13.72655 -2.33526,2.6772 -9.30368,2.35057 -12.0422,-0.56445 z m -24.53945,-1.75813 c -3.53887,-2.78368 -3.62136,-8.03183 -0.18031,-11.47287 5.36328,-5.36329 15.54545,-1.73106 15.54545,5.54545 0,7.01034 -9.38552,10.63099 -15.36514,5.92742 z m -61.180312,-1.38197 c -3.246505,-3.2465 -3.100496,-6.79095 0.443119,-10.75695 5.262609,-5.88988 14.28237,-3.82865 15.359455,3.51001 0.380323,2.5913 -0.135693,3.78006 -2.795347,6.43972 -4.170097,4.1701 -9.324476,4.48998 -13.007227,0.80722 z m 131.033132,-4.20063 c -6.46563,-6.46563 -3.2689,-15.61755 5.45515,-15.61755 2.213,0 4.67126,0.53749 5.46281,1.19442 2.27989,1.89214 3.35368,6.255 2.41087,9.79554 -0.74011,2.77935 -1.55919,3.42584 -6.01811,4.75 -6.22042,1.84726 -5.32607,1.86224 -7.31072,-0.12241 z m -159.852818,-4.4174 c -5.011988,-3.94243 -2.07297,-12.1918 4.803175,-13.48177 4.380368,-0.82177 7.377727,0.86916 9.177907,5.17759 1.296591,3.10318 1.269815,3.76157 -0.258174,6.34825 -2.669563,4.51921 -9.268508,5.45976 -13.722908,1.95593 z m 197.859978,0.0642 c -0.34817,-0.56335 -0.98614,-0.80604 -1.41771,-0.53932 -0.43157,0.26673 -1.30048,-0.64711 -1.9309,-2.03074 -4.73238,-10.38644 5.99105,-17.63085 13.75774,-9.29429 3.71341,3.98587 2.30063,10.09087 -2.62759,11.35456 -5.4927,1.40844 -7.15869,1.51758 -7.78154,0.50979 z M 87.95898,121.38723 c -4.603652,-2.49514 -4.817062,-8.43737 -0.473458,-13.18303 4.98634,-5.44789 15.974538,0.86646 14.151038,8.13187 -1.29665,5.16627 -8.533885,7.839 -13.67758,5.05116 z m 84.5321,-3.61414 c -6.26269,-1.66641 -8.2175,-8.4721 -3.88139,-13.51313 2.004,-2.32979 3.20617,-2.80576 7.08658,-2.80576 3.88041,0 5.08258,0.47597 7.08658,2.80576 6.2097,7.21921 -0.55669,16.1035 -10.29177,13.51313 z m -54.29481,-4.61754 c -6.40079,-0.9644 -9.06667,-8.30428 -4.92742,-13.566485 2.76748,-3.51828 8.63012,-3.65482 12.53959,-0.29203 2.15986,1.857825 2.69376,3.139455 2.57904,6.191015 -0.19788,5.26355 -4.52733,8.52087 -10.19121,7.6675 z m 25.50515,-3.33097 c -4.3753,-3.84157 -4.47637,-6.69463 -0.40156,-11.335575 3.89374,-4.43472 7.61067,-4.68036 11.87562,-0.7848 2.05279,1.87499 3.01649,3.704555 3.02875,5.749995 0.0265,4.41669 -0.27572,6.56557 -0.84348,5.99782 -0.2762,-0.2762 -1.2137,0.11203 -2.08333,0.86274 -0.86963,0.7507 -3.04133,1.63997 -4.826,1.97615 -2.68267,0.50533 -3.85213,0.078 -6.75,-2.46633 z m 70.79721,0.11783 c -2.55178,-1.02764 -5.30236,-5.83343 -5.30236,-9.26424 0,-2.995875 3.67347,-6.508655 7.63492,-7.300945 4.06205,-0.81241 8.21744,2.72446 9.00307,7.662985 0.46654,2.93271 0.10089,4.0927 -2.00707,6.36723 -1.55611,1.67907 -3.18255,2.54906 -4.10423,2.19537 -0.83968,-0.32221 -1.52669,-0.14996 -1.52669,0.38277 0,1.15133 -0.75334,1.14254 -3.69764,-0.0432 z M 53.892066,106.92955 c -4.706342,-3.70201 -3.347496,-10.855305 2.445713,-12.874825 7.466154,-2.60272 14.652984,5.66647 10.167224,11.698435 -2.707271,3.64044 -8.762429,4.2052 -12.612937,1.17639 z M 78.41621,92.144955 c -4.281129,-3.713 -3.528241,-9.9739 1.663032,-13.82951 1.521647,-1.13014 2.24852,-1.05165 7.17646,0.77488 2.807925,1.04075 5.940571,5.57256 5.940571,8.59386 0,5.38213 -10.176433,8.45348 -14.780063,4.46077 z m 110.75257,0.11721 c -3.21562,-2.20057 -3.9386,-3.31567 -3.9572,-6.10341 -0.0187,-2.8019 3.87978,-6.88913 7.41798,-7.77716 8.33356,-2.09159 15.01142,9.346 8.22994,14.09594 -2.82305,1.97734 -8.64329,1.87012 -11.69072,-0.21537 z m -81.72251,-7.79621 c -2.73286,-1.97392 -2.97883,-6.46936 -0.57648,-10.5362 2.69941,-4.56974 9.60078,-5.44137 13.15217,-1.66109 2.65662,2.82784 2.83062,7.65347 0.38485,10.67386 -2.38683,2.94761 -9.78485,3.8172 -12.96054,1.52343 z m 58.93778,0.4556 c -4.50613,-1.84932 -5.38628,-3.51646 -4.19404,-7.94412 0.64486,-2.39482 2.11038,-4.70057 3.61373,-5.6856 5.35714,-3.51013 14.49053,2.15144 13.00691,8.06267 -1.10336,4.39613 -7.88111,7.43253 -12.4266,5.56705 z m -24.18778,-1.93488 c 0,-0.5469 -1.06854,-1.26255 -2.37453,-1.59034 -2.57742,-0.64689 -4.62547,-4.14495 -4.62547,-7.90028 0,-3.10559 5.29398,-7.54185 9,-7.54185 4.28221,0 9,4.42105 9,8.43391 0,1.85648 -0.76797,3.95111 -1.7866,4.87296 -2.45481,2.22158 -9.2134,4.95453 -9.2134,3.7256 z"
     id="path48"
     inkscape:connector-curvature="0" />
</svg>
