<?xml version="1.0" encoding="UTF-8" standalone="no"?>
<!-- Created with Inkscape (http://www.inkscape.org/) -->

<svg
   xmlns:dc="http://purl.org/dc/elements/1.1/"
   xmlns:cc="http://creativecommons.org/ns#"
   xmlns:rdf="http://www.w3.org/1999/02/22-rdf-syntax-ns#"
   xmlns:svg="http://www.w3.org/2000/svg"
   xmlns="http://www.w3.org/2000/svg"
   xmlns:sodipodi="http://sodipodi.sourceforge.net/DTD/sodipodi-0.dtd"
   xmlns:inkscape="http://www.inkscape.org/namespaces/inkscape"
   version="1.1"
   id="svg2949"
   width="283"
   height="443"
   viewBox="0 0 283 443"
   sodipodi:docname="feu87.svg"
   inkscape:version="0.92.4 (5da689c313, 2019-01-14)">
  <metadata
     id="metadata2955">
    <rdf:RDF>
      <cc:Work
         rdf:about="">
        <dc:format>image/svg+xml</dc:format>
        <dc:type
           rdf:resource="http://purl.org/dc/dcmitype/StillImage" />
        <dc:title></dc:title>
      </cc:Work>
    </rdf:RDF>
  </metadata>
  <defs
     id="defs2953" />
  <sodipodi:namedview
     pagecolor="#ffffff"
     bordercolor="#666666"
     borderopacity="1"
     objecttolerance="10"
     gridtolerance="10"
     guidetolerance="10"
     inkscape:pageopacity="0"
     inkscape:pageshadow="2"
     inkscape:window-width="1280"
     inkscape:window-height="972"
     id="namedview2951"
     showgrid="false"
     inkscape:zoom="1.5067919"
     inkscape:cx="112.64858"
     inkscape:cy="221.5"
     inkscape:window-x="-8"
     inkscape:window-y="-8"
     inkscape:window-maximized="1"
     inkscape:current-layer="g151"
     showguides="false" />
  <g
     id="g151"
     transform="translate(25.882805,-2.654647)">
    <path
       style="fill:#00ffff"
       d="m 99.38997,325.16084 c -2.07076,-2.07076 -2.91862,-3.89314 -2.90777,-6.25 0.0177,-3.83628 0.55635,-4.80755 3.9572,-7.13488 7.84207,-5.36665 17.40029,2.42379 13.3972,10.9194 -2.78191,5.90395 -9.80893,7.10319 -14.44663,2.46548 z m 26.15365,-1.66581 c -2.56505,-2.15835 -3.07673,-3.31043 -3.07673,-6.92742 0,-5.35133 3.29063,-8.48369 8.91235,-8.48369 4.76145,0 7.77763,2.21767 8.99051,6.61034 1.22543,4.43815 -0.21426,7.98221 -4.04789,9.96466 -4.05913,2.09905 -7.31877,1.74706 -10.77824,-1.16389 z m -46.763821,-1.58679 c -6.842387,-1.82251 -9.526993,-10.13877 -4.979559,-15.42547 1.713389,-1.99193 3.212209,-2.6877 5.641109,-2.61864 7.15899,0.20355 11.02554,3.726 11.02554,10.04434 0,5.79272 -5.59496,9.62245 -11.68709,7.99977 z m 70.827371,-4.90413 c -1.0657,-1.14389 -2.17842,-3.28139 -2.4727,-4.75 -0.70378,-3.51215 2.1303,-9.25445 5.48035,-11.10404 2.38045,-1.31427 3.07655,-1.26867 6.89106,0.45143 5.61818,2.53345 7.65312,6.89021 5.55909,11.90193 -1.73196,4.14515 -4.17372,5.58049 -9.49338,5.58049 -2.79053,0 -4.62166,-0.63852 -5.96442,-2.07981 z m -100.390303,-6.0003 c -2.414972,-1.40659 -4.749978,-6.22351 -4.749978,-9.7988 0,-7.66476 10.912193,-10.29555 16.606354,-4.00357 2.951527,3.2614 2.480741,9.55065 -0.934845,12.48861 -2.945128,2.5333 -7.820765,3.11979 -10.921531,1.31376 z m 129.750023,-4.64719 c -5.33003,-1.25884 -8.34519,-7.18172 -6.50087,-12.77006 2.95508,-8.95398 17.40087,-5.59012 17.40087,4.05197 0,5.47745 -5.61291,9.96679 -10.9,8.71809 z m -61.25099,-4.30423 c -1.23804,-0.49761 -2.98624,-2.4466 -3.88489,-4.33109 -4.64767,-9.74627 7.11494,-18.31216 14.7128,-10.7143 7.73471,7.73471 -0.511,19.19214 -10.82791,15.04539 z m -27.172281,-3.55736 c -2.58222,-2.17279 -3.07673,-3.30024 -3.07673,-7.0147 0,-3.92008 0.37137,-4.65224 3.25,-6.40737 7.456781,-4.54649 15.750001,-0.0775 15.750001,8.48717 0,3.32287 -5.30433,7.52379 -9.5,7.52379 -2.14134,0 -4.45459,-0.93235 -6.423271,-2.58889 z m 49.225821,-3.56047 c -1.20859,-0.61015 -2.90919,-2.60926 -3.7791,-4.44247 -2.79377,-5.88743 1.38962,-12.40817 7.96047,-12.40817 6.01044,0 11.61046,5.97657 10.08968,10.76811 -1.62933,5.13355 -9.50323,8.48952 -14.27105,6.08253 z M 28.748906,293.56045 c -3.251031,-1.36695 -5.288816,-5.14853 -5.266704,-9.77358 0.01799,-3.7628 0.707578,-4.9945 3.668946,-6.55325 8.235294,-4.33472 16.809745,2.58828 14.380283,11.61061 -1.513072,5.61912 -6.371726,7.41176 -12.782525,4.71622 z m 38.614287,-3.65518 c -4.209479,-3.46835 -6.381526,-11.05116 -4.130991,-14.42165 2.818604,-4.22125 11.806337,-4.03101 15.230717,0.32239 2.68312,3.41103 2.57646,8.5075 -0.24603,11.75591 -2.65523,3.0559 -8.466191,4.3105 -10.853696,2.34335 z m 128.396747,-0.39861 c -3.86271,-1.67826 -5.29305,-4.08459 -5.29305,-8.90475 0,-6.44538 6.61074,-10.39315 12.31574,-7.35465 3.41066,1.81653 4.61802,3.99962 4.65246,8.41235 0.0523,6.70295 -5.5861,10.49261 -11.67515,7.84705 z m -32.90493,-5.38128 c -1.16154,-0.48115 -3.11688,-2.14982 -4.34522,-3.70814 -4.26125,-5.40604 -0.33372,-15.33332 6.06631,-15.33332 3.89617,0 7.89079,1.69732 7.89079,3.3528 0,0.77127 0.69728,1.981 1.54951,2.68829 2.47309,2.05248 1.52155,8.8467 -1.54951,11.06381 -3.18683,2.3007 -6.91808,3.05245 -9.61188,1.93656 z M 10.979262,275.87084 c -5.4889658,-3.18206 -7.3406308,-8.43386 -4.8032278,-13.62322 1.495508,-3.05853 2.450534,-3.76806 5.7908548,-4.30225 7.22133,-1.15484 11.5,2.55975 11.5,9.98391 0,6.63182 -7.032364,11.10408 -12.487627,7.94156 z m 34.512436,-0.51392 c -4.772568,-2.43491 -7.015831,-8.11156 -4.638977,-11.7391 3.858645,-5.88904 8.48567,-6.60361 14.046821,-2.1693 2.229836,1.77801 2.836201,3.11156 2.923183,6.42881 0.188283,7.18064 -5.798837,10.81223 -12.331027,7.47959 z m 73.475192,0.78164 c -5.05102,-2.06734 -7.44711,-8.32246 -5.00041,-13.05385 3.6025,-6.96647 10.91626,-7.46545 15.25041,-1.04045 3.88798,5.76359 2.57951,11.16838 -3.29837,13.62432 -3.8084,1.59125 -4.15487,1.61467 -6.95163,0.46998 z M 92.85501,274.1417 c -3.284881,-1.38611 -6.388121,-6.00374 -6.388121,-9.50555 0,-3.88518 4.14496,-8.23122 8.723781,-9.14699 6.15834,-1.23166 12.64593,6.88569 10.33387,12.92987 -1.83991,4.8099 -8.11528,7.6444 -12.66953,5.72267 z m 117.92725,-4.02692 c -2.95364,-1.24121 -4.31537,-4.08454 -4.31537,-9.01057 0,-7.46569 6.1953,-11.03914 13.02002,-7.50994 3.80223,1.96621 5.30916,4.92141 4.55621,8.93502 -1.10849,5.90874 -7.94502,9.81938 -13.26086,7.58549 z m -70.72068,-1.56503 c -4.19266,-2.17674 -5.52689,-4.39855 -5.56289,-9.26358 -0.0526,-7.11032 6.17505,-11.20933 12.28394,-8.08521 6.12352,3.1316 7.47424,9.93934 2.93426,14.78897 -3.53069,3.7715 -6.04005,4.43678 -9.65531,2.55982 z m 38.11256,-3.48147 c -3.49157,-2.74646 -5.22914,-8.13726 -3.6053,-11.18539 4.02406,-7.55363 15.37787,-6.9352 17.99009,0.9799 1.52005,4.60581 0.42576,7.93472 -3.36888,10.24841 -4.1238,2.51439 -7.78295,2.50013 -11.01591,-0.0429 z M 71.825436,264.66139 c -3.553202,-1.57178 -5.963295,-7.03182 -4.926789,-11.1616 0.666843,-2.65691 5.881215,-6.406 8.918242,-6.41213 1.0175,-0.002 3.38,1.52626 5.25,3.39626 4.09164,4.09164 4.49154,8.26686 1.15,12.00659 -2.85865,3.19929 -6.39601,3.93828 -10.391453,2.17088 z m -41.063737,-6.75858 c -9.039325,-2.40523 -8.028467,-15.65262 1.328336,-17.40797 5.971464,-1.12025 10.376854,2.78631 10.376854,9.20187 0,2.03547 -1.258328,5.64389 -2.499644,7.16807 -0.897144,1.10157 -6.564874,1.74068 -9.205546,1.03803 z m 126.132531,-4.12773 c -2.04822,-1.7618 -2.79671,-3.47992 -3.15911,-7.25148 -0.61566,-6.4072 1.77055,-8.93968 8.42334,-8.93968 3.6705,0 4.91839,0.5078 6.89501,2.80576 3.45149,4.01259 3.25208,9.00943 -0.50966,12.77116 -3.61954,3.61955 -7.8937,3.84491 -11.64958,0.61424 z M -2.7052936,251.98469 c -3.34728,-1.27213 -5.020051,-5.78145 -4.18304,-11.27631 0.857292,-5.628 1.898489,-6.62446 6.92190399,-6.62446 6.38814881,0 9.93331881,3.3497 9.93331881,9.38564 0,7.18848 -5.839033,11.11205 -12.6721828,8.51513 z M 112.96689,250.13856 c -3.37007,-1.37934 -5.55661,-4.60143 -6.08232,-8.96292 -0.43688,-3.62452 -0.11895,-4.54429 2.46343,-7.12667 1.63077,-1.63078 3.92201,-2.96505 5.09163,-2.96505 3.74564,0 8.132,3.00642 9.63514,6.60396 1.28196,3.06814 1.2689,3.85345 -0.11245,6.76442 -0.91258,1.92313 -3.01905,3.98776 -5.06303,4.96246 -1.92514,0.91804 -3.59749,1.64064 -3.71633,1.60577 -0.11884,-0.0349 -1.11607,-0.43175 -2.21607,-0.88197 z m 107.70798,-2.62152 c -3.06323,-2.14557 -5.36349,-7.89749 -4.28547,-10.71605 1.03543,-2.70721 3.83686,-5.25512 6.75409,-6.14288 3.31257,-1.00807 9.16198,1.87106 10.3961,5.11704 3.22421,8.4803 -5.78347,16.70179 -12.86472,11.74189 z M 51.478567,246.29446 c -2.785885,-2.25587 -3.975317,-10.34388 -1.890821,-12.85737 2.490797,-3.00341 7.789428,-4.63297 10.88934,-3.34895 5.562713,2.30415 7.429465,11.61571 3.256904,16.24578 -2.127912,2.36123 -9.319287,2.33808 -12.255423,-0.0395 z m 36.243812,-1.42859 c -2.23721,-1.07916 -4.23894,-6.06118 -4.24991,-10.5774 -0.0198,-8.16668 14.651941,-9.78189 17.266671,-1.90088 2.87673,8.67067 -5.08589,16.3039 -13.016761,12.47828 z m 104.199061,-2.2365 c -3.32647,-3.32646 -3.46819,-10.52319 -0.26599,-13.50649 3.16563,-2.94924 9.19485,-2.74646 12.35689,0.41559 5.58875,5.58874 1.7167,15.54545 -6.04545,15.54545 -2.47924,0 -4.35079,-0.75988 -6.04545,-2.45455 z m -57.73938,-0.20635 c -4.96916,-1.38972 -8.6021,-8.23155 -6.93942,-13.06886 0.74805,-2.17633 6.85828,-5.2712 10.34228,-5.23844 5.52757,0.052 8.88197,3.91479 8.88197,10.22814 0,5.5313 -6.38366,9.72953 -12.28483,8.07916 z M 16.368099,232.97816 c -4.006104,-4.28854 -4.07348,-9.93863 -0.15121,-12.68032 8.134545,-5.68609 15.25,-2.24334 15.25,7.37859 0,8.05601 -9.432089,11.36796 -15.09879,5.30173 z m 153.171371,-0.5291 c -3.76948,-4.79211 -2.39858,-11.11096 3.0183,-13.91213 6.45401,-3.3375 13.90304,2.61025 12.36125,9.86998 -1.07667,5.06965 -3.13119,6.67701 -8.53454,6.67701 -3.96466,0 -5.12323,-0.44597 -6.84501,-2.63486 z m -97.072581,-4.07458 c -3.499296,-1.28666 -5,-3.64966 -5,-7.87297 0,-3.4245 0.522925,-4.68376 2.634859,-6.34501 5.514401,-4.33763 13.665461,-1.31913 14.951661,5.53691 1.18886,6.33717 -5.81793,11.16984 -12.58652,8.68107 z m 37.522001,-2.54056 c -1.53752,-1.33593 -2.82725,-3.74361 -3.17468,-5.92653 -0.79942,-5.02271 2.82734,-8.838 8.35723,-8.79167 4.14564,0.0347 6.34192,1.29125 8.13211,4.65246 4.5266,8.49901 -5.97805,16.44041 -13.31466,10.06574 z M -9.3044286,223.62289 c -3.5508294,-2.98783 -5.0394324,-8.15555 -3.2905754,-11.42332 1.719789,-3.21346 6.7370334,-5.39918 10.6909424,-4.65742 4.1772438,0.78366 6.5924078,4.21033 6.7324758,9.55215 0.126814,4.83635 -2.44761,7.80478 -7.4766268,8.62087 -2.822285,0.458 -4.104303,0.055 -6.656216,-2.09228 z m 49.0225096,0.92442 c -2.675392,-1.87392 -4.731584,-8.69725 -3.381235,-11.2204 2.170713,-4.05602 4.927728,-5.53346 9.245185,-4.95437 5.311709,0.71245 6.988508,2.44715 7.596009,7.85831 0.411804,3.66806 0.08709,4.78582 -2.063472,7.10307 -2.939084,3.16689 -7.859526,3.69077 -11.396487,1.21339 z m 105.671889,-1.38647 c -3.82015,-3.82015 -4.14996,-10.58993 -0.67308,-13.81596 3.69811,-3.43129 7.31627,-3.33824 11.63927,0.29932 3.48049,2.92864 4.89555,8.10476 3.12178,11.41908 -1.17642,2.19815 -6.5485,5.02064 -9.55585,5.02064 -0.88498,0 -2.92443,-1.31538 -4.53212,-2.92308 z m 83.55268,-0.47018 c -4.40259,-1.92211 -6.72818,-8.17942 -4.85458,-13.06194 1.82512,-4.75618 11.81282,-5.61866 14.85008,-1.28237 2.24299,3.20232 1.98093,10.28538 -0.47126,12.73757 -1.1,1.1 -2.4132,2 -2.91821,2 -0.50502,0 -1.51752,0.20859 -2.25,0.46354 -0.73249,0.25494 -2.6927,-0.13062 -4.35603,-0.8568 z M 90.410009,221.23894 c -2.45247,-1.98589 -5.14512,-9.46503 -4.24867,-11.80116 0.83165,-2.16723 5.76997,-4.35386 9.832811,-4.35386 2.70848,0 4.39781,0.77123 6.67298,3.04639 2.63216,2.63217 2.96623,3.54998 2.45683,6.75 -1.13233,7.11337 -9.38016,10.67767 -14.713951,6.35863 z m 110.033851,-2.17653 c -2.89061,-2.70024 -3.1764,-3.45499 -2.68773,-7.09829 0.30586,-2.28036 1.57439,-5.17696 2.87879,-6.57351 1.99725,-2.13835 2.97221,-2.42554 6.79251,-2.00081 5.35914,0.59581 8.03946,3.38655 8.03946,8.37065 0,4.74218 -1.55567,7.23987 -5.54837,8.90813 -4.76442,1.9907 -5.81482,1.81263 -9.47466,-1.60617 z m -75.1123,-3.95997 c -2.51254,-2.51254 -2.93297,-3.63713 -2.67307,-7.15003 0.34664,-4.68543 2.9644,-7.24118 8.57879,-8.37557 2.81699,-0.56918 3.68346,-0.21858 6.25,2.5289 2.18838,2.34268 2.97554,4.15741 2.9643,6.83394 -0.0175,4.16021 -0.51453,5.09625 -3.9572,7.4522 -3.78596,2.59089 -7.73912,2.13426 -11.16282,-1.28944 z m 53.45539,-1.52599 c -3.54359,-1.48997 -4.32006,-3.10811 -4.32006,-9.00289 0,-6.68815 4.09451,-9.60364 10.5126,-7.48548 4.36654,1.44109 6.4874,4.40408 6.4874,9.06336 0,6.04553 -6.6707,9.9517 -12.67994,7.42501 z M 14.360158,209.61053 c -9.1504938,-5.05612 -7.1234888,-17.35915 2.917682,-17.70904 5.264419,-0.18344 8.952404,2.94931 9.828637,8.3489 0.482316,2.97216 0.106218,4.07036 -2.281023,6.66056 -3.442655,3.73533 -6.95234,4.64068 -10.465296,2.69958 z m 46.029808,-2.44969 c -6.184831,-6.18483 -2.043527,-16.07692 6.730571,-16.07692 4.921132,0 9.346352,4.49797 9.346352,9.5 0,2.70513 -0.75897,4.41282 -2.923077,6.57692 -2.164102,2.16411 -3.871795,2.92308 -6.576923,2.92308 -2.705128,0 -4.412821,-0.75897 -6.576923,-2.92308 z m 49.389834,-1.1794 c -3.41767,-0.98881 -7.31645,-5.14105 -7.30733,-7.78238 0.0316,-9.16028 6.95657,-14.36766 14.52236,-10.92045 7.42648,3.38373 6.98883,16.0351 -0.64678,18.69689 -1.74878,0.60963 -3.22496,1.06784 -3.28038,1.01823 -0.0554,-0.0496 -1.53497,-0.50513 -3.28787,-1.01229 z m -27.031111,-4.10382 c -2.7482,-1.32683 -4.6593,-6.79848 -3.77722,-10.81454 0.7354,-3.34828 4.71561,-5.97916 9.04576,-5.97916 3.26241,0 9.449661,5.8704 9.449661,8.96574 0,6.60994 -8.203731,10.97314 -14.718201,7.82796 z m -44.547018,-2.78768 c -5.438136,-4.27764 -5.297857,-11.03381 0.30765,-14.8172 4.226178,-2.85243 8.426735,-2.36237 11.707568,1.36587 7.037533,7.99725 -3.68631,20.00285 -12.015218,13.45133 z m 113.470789,0.94638 c -2.91949,-1.17168 -5.4506,-7.08036 -4.5882,-10.71082 1.06662,-4.49018 3.25956,-6.24158 7.81511,-6.24158 7.79548,0 11.69238,5.14823 8.99664,11.88554 -2.14794,5.36822 -6.73494,7.26961 -12.22355,5.06686 z m -161.705571,-0.89776 c -2.739597,-1.12129 -5.416466,-4.26012 -5.635372,-6.60789 -0.686963,-7.36767 2.118813,-11.44675 7.8735934,-11.44675 3.967042,0 8.76445599,2.26161 9.640598,4.5448 3.2223838,8.3974 -4.079611,16.702 -11.8788194,13.50984 z m 235.900001,-2.45464 c -4.18637,-4.18637 -4.47683,-8.16681 -0.90564,-12.41093 4.8895,-5.81084 14.07571,-4.72973 16.39722,1.92977 1.77217,5.08363 1.31815,7.82528 -1.81466,10.95808 -4.22682,4.22683 -9.14466,4.05534 -13.67692,-0.47692 z m -95.09745,0.24167 c -2.36273,-1.18317 -5.30255,-6.46137 -5.30255,-9.52029 0,-4.96603 6.02957,-8.65262 11.68709,-7.1457 7.05258,1.8785 9.68566,11.01383 4.31291,14.96343 -3.20879,2.35884 -7.89689,3.10497 -10.69745,1.70256 z m 68.75594,-3.2794 c -1.38124,-1.47028 -2.48226,-4.14915 -2.77424,-6.75 -0.655,-5.83451 2.76869,-9.81227 8.44549,-9.81227 4.87681,0 7.80841,2.07056 9.29069,6.56191 2.17429,6.58815 -2.09091,12.43809 -9.06862,12.43809 -2.52588,0 -4.2879,-0.72885 -5.89332,-2.43773 z m -21.64941,-3.62199 c -3.39252,-1.28225 -6.55843,-5.63491 -7.11461,-9.78154 -0.5034,-3.75313 -0.30371,-4.18288 2.83197,-6.09456 5.70224,-3.47639 10.61162,-2.40519 13.36321,2.9158 2.04815,3.96069 1.89811,7.25734 -0.46715,10.26428 -2.15776,2.74315 -5.62084,3.8271 -8.61342,2.69602 z M 66.683684,185.52322 c -5.015366,-3.5129 -6.124434,-11.40294 -2.113138,-15.03311 2.685071,-2.42995 10.094523,-2.44092 12.771373,-0.0189 7.94097,7.18502 -1.94906,21.15215 -10.658235,15.05201 z m 26.690676,-1.7211 c -2.254981,-1.72494 -4.119811,-8.02399 -3.319501,-11.21266 0.75439,-3.00576 5.691661,-6.49607 9.197211,-6.5018 3.37894,-0.006 7.3015,2.95947 8.86467,6.70066 1.17635,2.8154 1.16881,3.79385 -0.0518,6.71511 -0.78582,1.88073 -2.33728,3.90573 -3.44768,4.5 -2.68703,1.43805 -9.25352,1.32047 -11.24293,-0.20131 z M 16.723209,183.0551 c -3.525584,-1.41743 -6.44206,-6.87016 -5.836135,-10.9114 0.768115,-5.12297 3.731749,-7.55978 9.194176,-7.55978 3.755099,0 4.984286,0.49465 6.972223,2.80576 4.327157,5.03062 2.316843,13.48645 -3.705423,15.58582 -3.661765,1.2765 -3.648176,1.27634 -6.624841,0.0796 z m 100.227591,0.26351 c -2.90165,-2.09805 -6.48391,-7.71427 -6.48391,-10.16539 0,-1.56197 1.07307,-3.93511 2.45225,-5.42328 1.95059,-2.10471 3.37119,-2.64602 6.94424,-2.64602 6.39863,0 10.05806,3.27309 10.05806,8.9962 0,3.48384 -0.55841,4.70741 -3.24305,7.10614 -3.13343,2.79971 -7.48527,3.75366 -9.72759,2.13235 z m -71.341515,-5.81686 c -3.799365,-1.59752 -6.638289,-7.28935 -5.641028,-11.30986 1.864246,-7.51579 10.294543,-9.67897 15.597422,-4.00221 7.003988,7.49779 -0.62761,19.23453 -9.956394,15.31207 z m 99.287275,-0.38253 c -2.95245,-1.19494 -5.45647,-5.45845 -5.71104,-9.72397 -0.18838,-3.15641 0.25151,-3.98483 3.17925,-5.9873 4.67281,-3.19603 8.57595,-3.00405 12.17904,0.59905 4.10815,4.10814 3.95241,8.24759 -0.47692,12.67692 -3.43703,3.43703 -5.4044,3.95949 -9.17033,2.4353 z M -7.2192886,173.13369 c -3.9231344,-2.3921 -5.3138224,-4.86399 -5.3138224,-9.44507 0,-5.73188 5.0953274,-9.3722 11.4496514,-8.18012 4.2527848,0.79782 6.9538898,3.86451 6.9363658,7.87516 -0.02569,5.8801 -1.215549,8.39148 -4.7763098,10.08118 -4.277484,2.0298 -4.434112,2.02354 -8.295885,-0.33115 z m 89.0149176,-4.50753 c -3.45962,-1.50491 -4.72674,-3.35006 -5.64988,-8.22718 -0.49191,-2.59889 -0.076,-3.74892 2.26036,-6.25 3.50394,-3.75097 8.73236,-4.14717 13.15641,-0.99697 2.376591,1.69229 2.904371,2.79454 2.904371,6.06575 0,5.03749 -1.2802,7.44258 -4.979981,9.35581 -3.49458,1.80712 -3.6553,1.80821 -7.69128,0.0526 z m 113.752601,-0.29224 c -3.94675,-3.22713 -3.8858,-10.49098 0.11933,-14.22232 2.85267,-2.65768 6.6997,-2.5677 10.90145,0.25496 2.83294,1.90313 3.44896,2.98296 3.70512,6.49471 0.25609,3.51088 -0.14277,4.6291 -2.39602,6.71735 -3.25922,3.02054 -9.12041,3.37959 -12.32988,0.7553 z m 27.96976,0.32293 c -2.97472,-1.64739 -3.88863,-3.77106 -3.98081,-9.25035 -0.0567,-3.36878 0.43975,-4.57862 2.56457,-6.25 3.89561,-3.06429 8.86712,-2.72445 12.44206,0.8505 7.87119,7.87118 -1.28895,20.04212 -11.02582,14.64985 z m -59.26761,-5.32293 c -4.42072,-5.06801 -4.88119,-9.77352 -1.33124,-13.60398 5.44817,-5.87867 16.54775,-1.64851 16.54775,6.30651 0,5.39927 -3.82317,9.04747 -9.48138,9.04747 -2.76005,0 -4.73406,-0.60234 -5.73513,-1.75 z m -65.14863,-3.32258 c -2.24525,-1.76611 -2.6326,-2.83815 -2.61955,-7.25 0.0175,-5.90161 0.44428,-6.76145 4.16764,-8.39579 5.9888,-2.62873 14.81705,2.18106 14.81705,8.07259 0,2.32662 -2.36975,6.32744 -4.95411,8.36398 -2.46252,1.94051 -8.46782,1.52435 -11.41103,-0.79078 z m 24.13536,0.10647 c -3.14104,-2.47073 -5.17885,-7.26965 -4.40176,-10.36583 0.36566,-1.45688 2.26313,-3.25569 4.92233,-4.6664 7.35083,-3.8996 12.66058,-0.43053 12.69447,8.29379 0.0285,7.34313 -7.54005,11.20239 -13.21504,6.73844 z m -98.847144,-4.95697 c -3.643753,-3.64375 -4.009598,-9.42592 -0.850497,-13.44206 1.742631,-2.2154 2.864249,-2.63486 7.045455,-2.63486 6.725578,0 9.881965,2.99147 9.881965,9.36565 0,3.7488 -0.488624,4.86771 -3.076725,7.04546 -4.304727,3.62219 -9.168863,3.49715 -13.000198,-0.33419 z m 33.46504,1.95419 c -3.069231,-1.25636 -6.388839,-5.89293 -6.38349,-8.91597 0.0057,-3.206 5.285846,-9.11514 8.14493,-9.11514 5.755971,0 10.850443,4.92584 10.850443,10.49129 0,5.18442 -7.464385,9.64689 -12.611883,7.53982 z m -58.9262386,-8.31024 c -2.957102,-2.54359 -4.641073,-9.00417 -3.295252,-12.64227 2.357376,-6.37259 10.0625528,-8.00327 14.9102966,-3.15552 4.768146,4.76814 3.582987,13.65007 -2.2219478,16.65192 -3.873158,2.00288 -6.3314998,1.77934 -9.3930968,-0.85413 z M 143.92428,144.80092 c -3.18068,-2.7359 -4.45726,-10.09441 -2.2591,-13.02197 3.39528,-4.52189 12.90427,-3.52053 16.33835,1.72055 5.46776,8.34485 -6.42149,17.88836 -14.07925,11.30142 z m 37.1315,-0.79373 c -3.74847,-4.4548 -3.56013,-9.79818 0.48803,-13.84635 3.8093,-3.8093 7.67138,-4.00104 11.73401,-0.58256 3.74524,3.15141 4.86801,8.29204 2.71881,12.44814 -3.12734,6.04761 -10.67667,7.04846 -14.94085,1.98077 z m 33.28932,1.8224 c -4.50379,-1.78925 -7.11751,-8.35253 -5.25703,-13.20087 0.83757,-2.18267 5.61624,-4.5448 9.1943,-4.5448 6.09245,0 10.45766,6.5212 8.25074,12.32582 -0.9739,2.56157 -6.47707,6.7785 -8.56622,6.56406 -0.55,-0.0564 -2.17981,-0.57135 -3.62179,-1.14421 z M 74.466889,142.84112 c -5.161215,-2.70312 -5.608308,-12.24066 -0.749158,-15.9813 2.518518,-1.93878 7.883858,-2.30936 10.804548,-0.74626 4.88913,2.61659 6.15989,11.65558 2.14893,15.28545 -2.48388,2.24789 -9.15965,3.03672 -12.20432,1.44211 z m 48.359531,-5.70128 c -2.42939,-1.03333 -5.35953,-6.26797 -5.35953,-9.5747 0,-7.82004 11.75527,-11.0319 16.7182,-4.56788 1.97169,2.56806 1.59417,10.49399 -0.59417,12.47442 -2.26996,2.05428 -7.83073,2.91602 -10.7645,1.66816 z m -78.898131,-1.63312 c -4.000792,-2.03887 -5.4614,-4.187 -5.4614,-8.03214 0,-4.60026 0.854505,-6.26406 4.071521,-7.92764 3.964215,-2.04998 8.203447,-1.82117 11.29362,0.60956 3.58921,2.82327 3.806521,10.51488 0.384859,13.62187 -3.180402,2.88791 -6.815131,3.4985 -10.2886,1.72835 z m 55.923461,-0.63833 c -4.02319,-3.08974 -4.35223,-3.73047 -4.36955,-8.50879 -0.0135,-3.73736 0.34928,-4.41285 3.14744,-5.85984 10.1772,-5.26283 19.80203,5.77323 11.91417,13.66108 -3.49963,3.49964 -6.77429,3.71634 -10.69206,0.70755 z m 66.80321,-5.5516 c -3.02351,-0.50769 -6.17962,-5.78868 -6.18433,-10.34801 -0.005,-4.53356 3.22809,-8.88486 6.60096,-8.88486 3.65676,0 9.08532,2.55229 10.31481,4.8496 1.74881,3.26768 1.14096,8.58661 -1.35633,11.86843 -0.7643,1.0044 -7.54233,2.82258 -9.37511,2.51484 z M 15.979262,127.92106 c -5.953584,-3.60183 -7.1652368,-9.71937 -2.923479,-14.76041 3.360903,-3.99421 8.906623,-4.2749 13.105342,-0.66331 2.311114,1.98793 2.805764,3.21712 2.805764,6.97222 0,3.26957 -0.582506,5.14131 -2.05978,6.61858 -2.510071,2.51007 -8.224313,3.46852 -10.927847,1.83292 z m 181.716588,-3.50643 c -1.99366,-0.80215 -4.22896,-5.89493 -4.22896,-9.63503 0,-10.34116 14.29103,-11.95101 18.06126,-2.03455 1.48841,3.9148 1.12285,5.96661 -1.65015,9.26215 -2.1584,2.56511 -3.28083,3.06359 -6.75,2.99777 -2.28861,-0.0434 -4.73308,-0.30907 -5.43215,-0.59034 z M 64.765962,120.99885 c -2.948148,-1.09059 -5.397031,-5.05717 -5.732507,-9.28523 -0.31535,-3.9744 -0.0073,-4.60183 3.40594,-6.93766 3.349421,-2.29215 8.200879,-2.1301 11.392635,0.38054 2.119459,1.66716 2.634859,2.91695 2.634859,6.38922 0,2.63505 -0.68173,5.14428 -1.75,6.4412 -2.155979,2.61745 -7.029617,4.09259 -9.950927,3.01193 z m 77.700928,-4.61049 c -4.03128,-1.50233 -6,-4.62741 -6,-9.52421 0,-3.90088 0.5131,-5.38424 2.57602,-7.447161 2.16134,-2.16134 3.21381,-2.49047 6.5381,-2.04459 5.06231,0.679 8.68411,3.059411 9.48006,6.230741 0.98156,3.91085 -0.42125,9.13745 -2.88591,10.75236 -2.69595,1.76645 -7.64332,2.80241 -9.70827,2.03286 z m -55.694241,-5.71838 c -2.38148,-2.0489 -2.79065,-3.13334 -2.70582,-7.17132 0.0843,-4.014281 0.59446,-5.199251 3.26578,-7.586071 3.77939,-3.37689 6.905521,-3.58305 10.574101,-0.69735 3.734,2.93717 4.88212,6.363151 3.5178,10.497091 -2.30843,6.99463 -9.468351,9.41728 -14.651861,4.95765 z m 30.146641,0.0109 c -6.97918,-3.04614 -8.1215,-11.173231 -2.26333,-16.102561 3.41563,-2.87405 5.72834,-3.10554 9.83095,-0.984 5.71978,2.95781 6.9331,10.775061 2.33396,15.037401 -1.45532,1.34874 -2.99351,2.45225 -3.41822,2.45225 -0.4247,0 -1.37149,0.20859 -2.10397,0.46354 -0.73249,0.25494 -2.70321,-0.13504 -4.37939,-0.86662 z m -83.064284,-1.55544 c -3.193927,-1.32306 -6.388117,-5.94988 -6.388117,-9.253251 0,-4.00044 4.819448,-8.78822 8.846352,-8.78822 1.768727,0 4.26308,1.06264 6.076923,2.58889 2.455933,2.06653 3.076725,3.36679 3.076725,6.444241 0,6.51102 -6.140564,11.27479 -11.611883,9.00834 z m 145.847344,-2.07806 c -2.70609,-1.08716 -4.23546,-4.68213 -4.23546,-9.955981 0,-10.23084 15.64972,-10.72204 17.5578,-0.55109 1.6011,8.534611 -5.0922,13.813491 -13.32234,10.507071 z M 54.124153,93.936379 c -3.589488,-3.13617 -4.794483,-7.62083 -3.118599,-11.60659 4.118769,-9.79567 17.461335,-6.86662 17.461335,3.83322 0,7.88237 -8.77484,12.63809 -14.342736,7.77337 z m 105.342737,0.44383 c -0.825,-0.3002 -2.7375,-1.69886 -4.25,-3.10814 -7.36684,-6.86411 1.31177,-18.69614 10.80419,-14.72996 3.76952,1.57501 5.44581,4.65868 5.44581,10.01801 0,5.57813 -6.50727,9.81876 -12,7.82009 z m -79.076921,-9.21937 c -4.77759,-4.77759 -3.77344,-11.55159 2.1678,-14.62392 7.46262,-3.85907 15.899391,5.09111 11.879481,12.60239 -1.23256,2.30305 -6.039351,4.94461 -8.997621,4.94461 -1.16962,0 -3.44197,-1.31539 -5.04966,-2.92308 z m 53.048741,0.17308 c -2.43861,-2.19176 -3.10155,-3.64887 -3.26577,-7.17796 -0.18676,-4.01346 0.11202,-4.64531 3.19183,-6.75 4.19125,-2.86421 8.02432,-2.95768 11.43008,-0.27871 3.07118,2.41579 4.4222,8.01482 2.79545,11.58515 -1.08413,2.37942 -6.418,5.37152 -9.57551,5.37152 -0.83399,0 -2.89322,-1.2375 -4.57608,-2.75 z m -23.61482,-2.24158 c -5.04073,-2.03419 -7.02917,-9.72279 -3.607,-13.94699 2.05232,-2.53331 8.60189,-4.26861 11.633,-3.08215 6.80946,2.66541 8.64132,9.4615 4.02811,14.94399 -2.05289,2.43972 -3.34689,3.0636 -6.25,3.01334 -2.01361,-0.0349 -4.62546,-0.45255 -5.80411,-0.92819 z"
       id="path262"
       inkscape:connector-curvature="0" />
  </g>
</svg>
