<?xml version="1.0" encoding="UTF-8" standalone="no"?>
<!-- Created with Inkscape (http://www.inkscape.org/) -->

<svg
   xmlns:dc="http://purl.org/dc/elements/1.1/"
   xmlns:cc="http://creativecommons.org/ns#"
   xmlns:rdf="http://www.w3.org/1999/02/22-rdf-syntax-ns#"
   xmlns:svg="http://www.w3.org/2000/svg"
   xmlns="http://www.w3.org/2000/svg"
   xmlns:sodipodi="http://sodipodi.sourceforge.net/DTD/sodipodi-0.dtd"
   xmlns:inkscape="http://www.inkscape.org/namespaces/inkscape"
   width="75mm"
   height="120mm"
   viewBox="0 0 75 120"
   version="1.1"
   id="svg8"
   inkscape:version="0.92.4 (5da689c313, 2019-01-14)"
   sodipodi:docname="kikublancs2.svg">
  <defs
     id="defs2" />
  <sodipodi:namedview
     id="base"
     pagecolor="#ffffff"
     bordercolor="#666666"
     borderopacity="1.0"
     inkscape:pageopacity="0.0"
     inkscape:pageshadow="2"
     inkscape:zoom="1.4"
     inkscape:cx="104.23229"
     inkscape:cy="256.76123"
     inkscape:document-units="mm"
     inkscape:current-layer="layer1"
     showgrid="false"
     units="mm"
     inkscape:window-width="1920"
     inkscape:window-height="1017"
     inkscape:window-x="-8"
     inkscape:window-y="-8"
     inkscape:window-maximized="1" />
  <metadata
     id="metadata5">
    <rdf:RDF>
      <cc:Work
         rdf:about="">
        <dc:format>image/svg+xml</dc:format>
        <dc:type
           rdf:resource="http://purl.org/dc/dcmitype/StillImage" />
        <dc:title />
      </cc:Work>
    </rdf:RDF>
  </metadata>
  <g
     inkscape:label="Calque 1"
     inkscape:groupmode="layer"
     id="layer1"
     transform="translate(0,-176.99999)">
    <g
       id="g3769"
       transform="matrix(0.94702343,0,0,0.94702343,4.9076719,-2.6396705)">
      <path
         style="fill:#e6e2c9;stroke-width:0.26458335"
         d="m 31.696095,284.81043 c -0.883865,-1.12365 -0.723734,-2.28674 0.47639,-3.46022 0.563618,-0.55111 1.175112,-1.29231 1.358876,-1.64712 l 0.334113,-0.64511 0.374224,0.93825 c 0.205822,0.51603 0.655863,1.08898 1.000088,1.2732 1.141061,0.61068 1.230445,2.04408 0.207418,3.32623 -0.642946,0.80579 -0.871599,0.91189 -1.965172,0.9119 -1.021831,10e-6 -1.333161,-0.12152 -1.785937,-0.69713 z m 8.245178,0.1583 c -1.301117,-0.52271 -1.459606,-2.49626 -0.305983,-3.81016 0.448056,-0.51031 0.909313,-1.2586 1.02501,-1.66286 l 0.210359,-0.73502 0.281475,0.70161 c 0.15481,0.38588 0.702384,1.02265 1.216831,1.41504 1.456452,1.11089 1.539516,2.98176 0.178772,4.0265 -0.490731,0.37677 -1.751992,0.40818 -2.606464,0.0649 z m -14.519926,-0.25268 c -0.80274,-0.32395 -1.418997,-1.30617 -1.407857,-2.24392 0.01121,-0.94424 0.909159,-2.11167 1.842568,-2.39555 0.363802,-0.11065 0.817038,-0.42222 1.007189,-0.69238 0.422098,-0.59971 0.963197,-0.65197 0.740458,-0.0715 -0.09748,0.25402 0.15245,0.80003 0.63315,1.3832 1.112663,1.34985 1.06662,2.35647 -0.157342,3.44009 -0.962176,0.85185 -1.625836,0.99667 -2.658166,0.58008 z m 21.469086,-1.88071 c -0.291042,-0.16719 -0.677995,-0.49052 -0.859896,-0.71853 -0.494755,-0.62014 -0.403961,-2.28101 0.16297,-2.98114 0.401719,-0.4961 0.447418,-0.7773 0.245295,-1.50933 -0.333446,-1.20765 -0.118732,-1.32783 0.610381,-0.34165 0.419192,0.56698 0.823857,0.81455 1.33146,0.81455 1.843431,0 2.950961,2.59594 1.729867,4.05464 -0.707364,0.84501 -2.335543,1.18958 -3.220077,0.68146 z m -28.78155,-0.83481 c -1.755776,-1.41757 -0.349644,-4.37934 1.998544,-4.20959 0.434553,0.0314 0.972325,-0.16931 1.319065,-0.49235 0.691944,-0.64464 0.9394,-0.25579 0.361906,0.56869 -0.354434,0.50603 -0.356819,0.66483 -0.01978,1.3166 0.543578,1.05116 0.488864,1.35231 -0.444149,2.4446 -0.9905,1.15959 -2.083511,1.28606 -3.215589,0.37205 z m 35.50294,-2.91752 c -0.606063,-0.4625 -1.311518,-1.92804 -1.219219,-2.53285 0.04331,-0.28379 0.219589,-0.68569 0.391735,-0.89311 0.216037,-0.26031 0.238429,-0.63711 0.07228,-1.21643 -0.132389,-0.46162 -0.219252,-0.8388 -0.193029,-0.83819 0.02622,5.3e-4 0.633402,0.29826 1.349287,0.66146 0.715886,0.36319 1.439273,0.66035 1.607524,0.66035 0.168254,0 0.549169,0.26789 0.846479,0.59531 1.50681,1.65942 0.643572,3.88577 -1.506657,3.88577 -0.509323,0 -1.116105,-0.14504 -1.348401,-0.32231 z m -20.5461,-0.86135 c -0.4499,-0.18917 -0.946438,-0.58393 -1.103415,-0.87725 -0.591794,-1.10577 -0.212582,-2.69821 0.816417,-3.42842 0.268779,-0.19074 0.688752,-0.72652 0.933275,-1.19063 l 0.444585,-0.84383 0.260339,0.88326 c 0.143187,0.4858 0.531741,1.0611 0.863452,1.27845 0.93109,0.61007 1.271571,1.95152 0.788672,3.10727 -0.218024,0.5218 -0.433032,0.94873 -0.4778,0.94873 -0.04476,0 -0.44727,0.10493 -0.894458,0.23318 -0.55303,0.15861 -1.074677,0.12318 -1.631067,-0.11076 z m -20.302746,-0.31682 c -1.409825,-0.35692 -1.909642,-2.33635 -0.910632,-3.60638 0.456481,-0.58032 0.7614,-0.69714 1.819686,-0.69714 0.807281,0 1.391541,-0.14486 1.600694,-0.39688 0.512262,-0.61723 0.807569,-0.46767 0.528073,0.26746 -0.138918,0.36538 -0.191308,1.16906 -0.116422,1.78594 0.11888,0.97928 0.03473,1.23072 -0.663184,1.9815 -0.774662,0.83335 -1.15385,0.94509 -2.258215,0.6655 z m 26.94587,-0.068 c -0.780534,-0.31498 -1.417373,-1.29613 -1.417373,-2.18368 0,-0.4965 0.348996,-1.1194 1.058334,-1.88894 0.582083,-0.63149 1.058333,-1.34321 1.058333,-1.58159 0,-0.73739 0.477491,-0.47728 0.661458,0.36032 0.09589,0.43656 0.313706,0.79375 0.484045,0.79375 0.556294,2e-5 1.764914,1.78926 1.764914,2.61279 0,1.5572 -1.9288,2.56568 -3.609711,1.88735 z m -13.720498,-0.18913 c -0.291041,-0.0718 -0.797057,-0.3775 -1.124479,-0.67938 -1.178468,-1.08654 -0.436612,-3.47504 1.291625,-4.15856 0.490154,-0.19385 1.160526,-0.59343 1.489712,-0.88795 l 0.598528,-0.53549 -0.170868,0.85434 c -0.134009,0.67005 -0.04388,0.98952 0.417819,1.48097 1.69382,1.80299 -0.04554,4.53198 -2.502337,3.92607 z m 20.335082,-2.4567 c -1.360128,-0.54888 -1.817921,-2.33207 -0.898713,-3.50066 0.397732,-0.50563 0.48184,-0.89951 0.360741,-1.68932 l -0.157925,-1.02996 0.808387,0.75651 c 0.444614,0.41608 0.912177,0.69236 1.039032,0.61396 0.126854,-0.0784 0.600945,0.0368 1.053536,0.25599 0.633079,0.30661 0.889918,0.66471 1.113457,1.55246 0.597707,2.37372 -1.105183,3.93421 -3.318515,3.04102 z m 12.471984,-0.90549 c -0.830299,-0.8303 -1.064635,-1.82449 -0.660191,-2.80091 0.178491,-0.43091 0.24924,-1.08344 0.157224,-1.45007 -0.09682,-0.38577 -0.05372,-0.66659 0.102319,-0.66659 0.148294,0 0.269624,0.11906 0.269624,0.26458 0,0.14552 0.57686,0.26458 1.281909,0.26458 1.27273,0 2.157674,0.524 2.157674,1.27761 0,0.17044 0.111041,0.30989 0.246753,0.30989 0.443712,0 0.60207,1.08037 0.274334,1.87159 -0.176385,0.42583 -0.472112,0.77425 -0.65717,0.77425 -0.185057,0 -0.405,0.17859 -0.488765,0.39687 -0.251616,0.6557 -1.938163,0.50375 -2.683711,-0.2418 z M 18.12122,273.34478 c -0.716046,-0.56324 -1.087185,-1.80325 -0.837487,-2.79813 0.199042,-0.79305 1.266958,-1.49566 2.6192,-1.72326 0.582083,-0.098 1.246061,-0.25848 1.475505,-0.35667 0.332675,-0.14237 0.41459,-0.002 0.404422,0.69208 -0.007,0.47883 0.07465,1.34685 0.181467,1.92894 0.171693,0.9356 0.10541,1.15805 -0.571556,1.91823 -0.913518,1.0258 -2.225458,1.16167 -3.271551,0.33881 z m -11.1167243,-1.076 c -0.5248281,-0.57223 -0.7264749,-1.06855 -0.7235526,-1.78093 0.00759,-1.8499 0.7988572,-2.28304 3.7071952,-2.02935 l 2.0952307,0.18277 -0.521989,0.6636 c -0.287094,0.36498 -0.521989,0.96231 -0.521989,1.32739 0,0.39091 -0.353492,1.02768 -0.859896,1.549 -1.1249587,1.15809 -2.1667667,1.18681 -3.1749993,0.0875 z m 45.2642013,-0.97029 c -1.132011,-0.46514 -1.705972,-1.54752 -1.408448,-2.65607 0.107709,-0.40133 0.192685,-1.18454 0.18883,-1.74047 -0.0058,-0.8413 0.06639,-0.97917 0.430716,-0.82222 0.240747,0.10371 1.004406,0.26947 1.697021,0.36836 1.386443,0.19795 1.829956,0.6196 2.299219,2.18587 0.362556,1.2101 -0.167473,2.46673 -1.207167,2.86202 -0.797541,0.30322 -0.776528,0.3053 -2.000171,-0.19749 z m -22.919962,-0.35037 c -0.316719,-0.29507 -0.645491,-0.81394 -0.730602,-1.15304 -0.232878,-0.92787 0.529685,-2.49207 1.391365,-2.85404 0.407744,-0.17128 1.065569,-0.67756 1.461838,-1.12507 l 0.720487,-0.81365 0.0071,0.93332 c 0.0039,0.51332 0.167204,1.16817 0.362863,1.4552 0.838206,1.22969 0.715471,2.49339 -0.34518,3.55404 -0.705684,0.70568 -2.112198,0.70727 -2.867888,0.003 z m 7.733506,0.28125 c -0.301275,-0.12193 -0.760791,-0.54681 -1.021143,-0.94416 -0.680474,-1.03853 -0.394531,-2.36522 0.765921,-3.55363 0.514408,-0.5268 0.935289,-1.22069 0.935289,-1.54198 0,-0.7103 0.433837,-0.77216 0.649517,-0.0926 0.08581,0.27035 0.689145,1.03232 1.340747,1.69326 1.262071,1.28015 1.485128,2.15809 0.883682,3.47812 -0.459769,1.00908 -2.2435,1.4914 -3.554013,0.961 z m 26.377723,-2.32677 c -0.867585,-0.30994 -1.35599,-1.13676 -1.35599,-2.29556 0,-0.64537 -0.114649,-1.47494 -0.254772,-1.8435 -0.243941,-0.64161 -0.220766,-0.66331 0.544994,-0.51015 0.446212,0.0892 1.069255,0.0157 1.409366,-0.1663 0.500132,-0.26766 0.755727,-0.25068 1.423321,0.0945 1.136761,0.58784 1.639591,1.41625 1.639591,2.70122 0,0.85154 -0.135014,1.18871 -0.595312,1.48666 -0.66565,0.43087 -2.254126,0.73209 -2.811198,0.53309 z M 44.25786,268.52567 c -0.574791,-0.12637 -1.2594,-0.42373 -1.521354,-0.66079 -0.577442,-0.52258 -0.616498,-1.8009 -0.09328,-3.05314 0.210656,-0.50417 0.313177,-1.1837 0.22783,-1.51007 -0.133583,-0.51082 -0.277006,-0.57055 -1.030528,-0.42919 -1.085639,0.20367 -2.597944,-0.38904 -3.024024,-1.18517 -0.173424,-0.32405 -0.241451,-0.97852 -0.153588,-1.47761 0.08675,-0.49276 0.230278,-1.31264 0.318961,-1.82196 0.156546,-0.8991 0.449929,-1.17094 0.746265,-0.69145 0.07974,0.12902 0.576503,0.31554 1.103913,0.41448 1.772812,0.33258 2.658354,1.74903 2.17895,3.48529 -0.255921,0.92687 -0.222981,1.05116 0.426738,1.61002 0.387239,0.33309 0.968595,0.60562 1.291902,0.60562 0.652656,0 1.75758,0.67086 2.152558,1.30694 0.485262,0.78149 0.431805,1.76274 -0.135308,2.48371 -0.78618,0.99947 -1.290979,1.18672 -2.489039,0.92332 z m -21.047636,-0.4011 c -1.132577,-0.40885 -1.800833,-2.84824 -0.987341,-3.60417 0.702316,-0.65262 2.090116,-1.27743 2.49353,-1.12263 0.231251,0.0887 0.687689,-0.0138 1.014309,-0.22776 0.712049,-0.46655 0.963515,-0.28892 0.756819,0.53462 -0.08395,0.33447 -0.0094,1.04213 0.165664,1.57257 0.673481,2.04067 -1.256414,3.6367 -3.442981,2.84737 z M 11.064897,267.7104 c -1.7872097,-0.91848 -1.9958667,-2.61357 -0.512754,-4.1655 0.71865,-0.752 0.905463,-0.82002 1.769832,-0.64436 0.531506,0.10802 1.353328,0.19265 1.82627,0.18807 0.925056,-0.009 1.079171,0.21173 0.489586,0.70104 -0.252955,0.20993 -0.326078,0.6371 -0.230737,1.34792 0.12424,0.92628 0.03703,1.14315 -0.793856,1.97403 -0.995078,0.99508 -1.531835,1.1212 -2.548341,0.5988 z m -7.319393,-1.63921 c -1.2425871,-0.52247 -1.7582685,-2.05945 -1.143603,-3.4085 0.5675357,-1.2456 2.059758,-1.40898 3.8933017,-0.42626 0.5304626,0.28431 1.2043656,0.52499 1.4975623,0.53484 0.504123,0.0169 0.5011996,0.0333 -0.053813,0.30126 -0.322794,0.15584 -0.7142292,0.66917 -0.8698561,1.14072 -0.5234389,1.58604 -2.0030733,2.41318 -3.3235919,1.85794 z m 52.517285,-1.18081 c -0.48152,-0.48152 -0.773398,-1.04924 -0.773398,-1.5043 0,-0.402 -0.258879,-1.00647 -0.575286,-1.34327 l -0.575289,-0.61236 h 1.017476 c 0.559848,0 1.227103,-0.18972 1.483559,-0.42181 0.629303,-0.56951 1.916131,-0.27083 2.761615,0.64099 0.963697,1.0393 0.894932,2.43845 -0.163627,3.32917 -1.102629,0.9278 -2.189085,0.89755 -3.17505,-0.0884 z m -23.186554,-0.40753 c -0.720317,-0.5198 -1.189651,-2.07984 -0.874826,-2.90788 0.126341,-0.33231 0.566028,-0.86517 0.977077,-1.18413 0.411049,-0.31897 0.881547,-0.89279 1.045549,-1.27517 l 0.298183,-0.69523 0.40428,0.7774 c 0.222356,0.42757 0.713251,1.06604 1.09088,1.41883 0.881846,0.82384 0.982517,2.84521 0.177967,3.57332 -0.72734,0.65823 -2.395718,0.81488 -3.11911,0.29286 z m 16.00598,-0.0726 c -1.03251,-0.64033 -1.41373,-1.70711 -1.047208,-2.93045 0.161745,-0.53986 0.2198,-1.26561 0.129011,-1.61279 -0.153601,-0.58737 -0.111673,-0.61708 0.603591,-0.42767 0.422762,0.11195 1.125845,0.24884 1.562407,0.30421 2.434437,0.30871 3.3493,3.40488 1.363813,4.61555 -1.019222,0.62148 -1.671388,0.63425 -2.611614,0.0512 z m -32.354282,-0.9041 c -1.238413,-0.67736 -1.564233,-2.17327 -0.796652,-3.65761 0.436824,-0.84473 1.030391,-1.1171 2.317544,-1.06346 0.473197,0.0197 1.255329,0.0356 1.738071,0.0352 0.729009,-5.3e-4 0.824787,0.0632 0.565323,0.3758 -0.192113,0.23149 -0.245825,0.73124 -0.139503,1.29798 0.396441,2.11322 -1.898426,3.9891 -3.684783,3.01204 z m 10.918793,-0.98255 c -1.880396,-0.43476 -2.408777,-2.27928 -1.063064,-3.71104 0.55123,-0.58648 1.032251,-0.80409 1.984375,-0.89772 1.173416,-0.11538 1.256771,-0.0829 1.256771,0.48976 0,0.33734 0.119062,0.68693 0.264583,0.77687 0.145521,0.0899 0.264583,0.62216 0.264583,1.18272 0,0.81328 -0.16447,1.15759 -0.814051,1.70417 -0.447725,0.37674 -0.89421,0.6709 -0.992188,0.65368 -0.09797,-0.0172 -0.503428,-0.10652 -0.901009,-0.19844 z m 37.566097,-0.5852 c -0.540231,-0.31466 -1.256765,-1.60314 -1.256765,-2.25994 0,-0.25043 -0.197046,-0.67306 -0.437883,-0.93918 -0.413118,-0.45649 -0.400473,-0.48385 0.223575,-0.48385 0.363802,0 0.867114,-0.22725 1.118471,-0.50499 1.624208,-1.79474 4.263398,-1.0167 4.405487,1.29874 0.133858,2.18131 -0.639638,3.17979 -2.453354,3.16695 -0.625078,-0.004 -1.344867,-0.12941 -1.599531,-0.27773 z M 9.9810583,261.2698 c -0.363802,-0.25171 -0.706348,-0.49242 -0.761213,-0.5349 -0.05486,-0.0425 -0.186897,-0.55379 -0.293405,-1.13624 -0.15719,-0.8596 -0.09626,-1.16353 0.323599,-1.6142 1.0484187,-1.12534 2.3913967,-1.24223 3.4616677,-0.30129 0.294925,0.25928 0.859151,0.39823 1.455208,0.35835 0.918299,-0.0614 0.943503,-0.0427 0.444351,0.32995 -1.01321,0.75646 -1.190679,0.96594 -1.199427,1.41574 -0.02718,1.39738 -2.198043,2.33551 -3.4307807,1.48259 z m -8.1076275,-1.67922 c -1.55687437,-0.65577 -1.85675487,-2.58353 -0.6089876,-3.91484 0.8733395,-0.93181 1.5831999,-1.08818 2.1020317,-0.46302 0.1811573,0.21828 0.493392,0.39687 0.6938552,0.39687 0.2004629,0 0.3644781,0.11448 0.3644781,0.25439 0,0.13991 0.4913953,0.3867 1.0919894,0.54842 1.0804662,0.29094 1.1226424,0.64493 0.098636,0.82786 -0.2910417,0.052 -0.5642647,0.33144 -0.6071624,0.62099 -0.2043708,1.37948 -1.8327582,2.27778 -3.1348404,1.72933 z m 43.7660522,-0.46104 c -0.396981,-0.0629 -0.974138,-0.4341 -1.282573,-0.82492 -0.460878,-0.58399 -0.530183,-0.92272 -0.388991,-1.90122 0.09449,-0.65484 0.165823,-1.47235 0.158515,-1.81669 -0.01109,-0.52216 0.08544,-0.5996 0.581604,-0.46663 0.327192,0.0877 1.050539,0.16106 1.607434,0.16304 2.1389,0.008 3.351662,2.52695 1.964023,4.07994 -0.634177,0.70975 -1.468646,0.95202 -2.640012,0.76648 z m 13.222615,-0.60529 c -0.367075,-0.28874 -0.741725,-0.82108 -0.832556,-1.18298 -0.09083,-0.36191 -0.401868,-0.7847 -0.691192,-0.93954 -0.73578,-0.39378 -0.65541,-0.79208 0.159829,-0.79208 0.37723,0 0.9886,-0.23812 1.358598,-0.52916 0.94233,-0.74124 1.83229,-0.66187 2.738382,0.24423 1.017239,1.01723 1.03504,2.13758 0.0485,3.05235 -0.870194,0.80689 -1.875272,0.86007 -2.78156,0.14718 z m -37.33303,-0.65301 c -1.025618,-0.95051 -0.984126,-2.54743 0.09421,-3.62576 0.681166,-0.68117 0.916698,-0.76679 1.653646,-0.60118 1.077742,0.2422 1.230755,0.24343 2.1321,0.0172 0.72979,-0.18317 0.731579,-0.18037 0.302615,0.47431 -0.289737,0.4422 -0.374579,0.9178 -0.258223,1.44756 0.483103,2.19955 -2.280909,3.81095 -3.924344,2.28786 z m 9.227184,-0.13928 c -1.076798,-1.12394 -1.028171,-2.2537 0.138944,-3.22805 0.491699,-0.41049 1.159359,-0.74634 1.48369,-0.74634 0.324332,0 0.663276,-0.11906 0.753213,-0.26458 0.288581,-0.46694 0.661199,-0.28297 0.669873,0.33072 0.0046,0.32743 0.183223,0.82643 0.396875,1.10891 0.494011,0.65314 0.494506,1.55658 0.0013,2.51019 -0.700365,1.35435 -2.295154,1.48825 -3.443967,0.28915 z m 21.425847,0.20736 c -0.758264,-0.42998 -0.917421,-0.74951 -0.921991,-1.85103 -0.0021,-0.53712 -0.123113,-1.05016 -0.268634,-1.1401 -0.48302,-0.29852 -0.273825,-0.66145 0.38126,-0.66145 0.355213,0 0.719428,-0.11907 0.809365,-0.26459 0.266121,-0.43059 1.88054,-0.30182 2.487877,0.19844 0.693069,0.57087 1.082768,1.86009 0.796325,2.63442 -0.231315,0.6253 -1.50812,1.40545 -2.278875,1.39243 -0.261887,-0.004 -0.714285,-0.14308 -1.005327,-0.30812 z m -15.310151,-1.29054 c -0.506622,-0.39851 -0.69714,-0.79193 -0.69714,-1.43959 0,-0.49017 0.126092,-0.96915 0.280207,-1.0644 0.154114,-0.0952 0.259998,-0.4297 0.235296,-0.74322 -0.07429,-0.94291 -0.01,-1.01347 0.559946,-0.61429 0.300456,0.21044 0.782426,0.32088 1.071041,0.2454 0.635728,-0.16624 1.708327,0.76409 1.938568,1.68145 0.173688,0.69203 -0.212871,1.6262 -0.887129,2.14388 -0.640017,0.49139 -1.725563,0.40056 -2.500789,-0.20923 z m -22.086273,-0.26903 c -1.180673,-0.46068 -1.656025,-1.30647 -1.539401,-2.73907 0.08533,-1.04815 0.25751,-1.43157 0.868008,-1.9329 1.098277,-0.9019 2.598408,-0.68576 3.671984,0.52906 0.436563,0.49399 1.031875,0.99258 1.322917,1.10796 0.490354,0.19441 0.475799,0.22856 -0.198438,0.46562 -0.414685,0.14581 -0.727604,0.45263 -0.727604,0.71345 0,0.59663 -1.272825,1.77192 -2.116666,1.95445 -0.363803,0.0787 -0.940162,0.0343 -1.2808,-0.0986 z M 6.9370833,254.7064 c -0.8772049,-0.87721 -1.0550829,-1.78146 -0.5446184,-2.76859 0.7573055,-1.46446 2.7364124,-1.37163 3.7208851,0.17454 0.291041,0.4571 0.691185,0.83567 0.889207,0.84128 0.219382,0.006 0.116016,0.21348 -0.264583,0.53055 -0.343544,0.2862 -0.514573,0.52433 -0.380066,0.52917 0.134507,0.005 -0.03508,0.30646 -0.3768497,0.67026 -0.830219,0.88373 -2.172982,0.89378 -3.043975,0.0228 z m 60.1736227,-0.92848 c -0.425371,-0.42537 -0.773398,-0.95841 -0.773398,-1.18452 0,-0.22612 -0.296635,-0.60549 -0.659186,-0.84305 -0.708107,-0.46397 -0.659712,-0.9032 0.09951,-0.9032 0.257088,0 0.747065,-0.29765 1.08884,-0.66146 1.33168,-1.4175 4.207227,-0.45251 4.35787,1.46245 0.19127,2.43143 -2.446385,3.79704 -4.113638,2.12978 z m -26.245407,-0.83336 c -0.542478,-0.44716 -0.986325,-0.97619 -0.986325,-1.17563 0,-0.19943 -0.251031,-0.53844 -0.55785,-0.75334 -0.534387,-0.3743 -0.496533,-0.96219 0.06195,-0.96219 0.146643,0 0.682885,-0.3175 1.191652,-0.70555 0.518216,-0.39527 1.26774,-0.70556 1.704292,-0.70556 2.195645,0 3.211092,3.73227 1.286259,4.72764 -1.090874,0.56411 -1.596131,0.48451 -2.69998,-0.42537 z m -13.157158,0.33783 c -1.025403,-0.1556 -1.852083,-1.07695 -1.852083,-2.06418 0,-1.0303 1.119272,-2.48773 1.910519,-2.48773 0.595477,0 2.322814,0.97688 2.322814,1.31364 0,0.11668 0.267891,0.29358 0.595313,0.3931 0.369763,0.1124 0.467897,0.23339 0.259016,0.31935 -0.184962,0.0761 -0.510588,0.47543 -0.723612,0.88738 -0.514074,0.99411 -1.692555,1.76278 -2.511967,1.63844 z m 19.488933,-0.33276 c -0.379918,-0.29884 -0.813985,-1.00098 -0.964594,-1.56029 -0.150609,-0.55932 -0.478917,-1.09564 -0.729578,-1.19183 -0.333412,-0.12794 -0.03081,-0.34797 1.127353,-0.81973 0.870701,-0.35466 1.79928,-0.6454 2.063509,-0.64607 1.459717,-0.004 2.539365,1.77215 2.024967,3.33079 -0.493694,1.49591 -2.200968,1.92599 -3.521657,0.88713 z m 12.797856,-0.43845 c -0.558268,-0.28776 -0.977672,-0.73279 -1.069522,-1.13486 -0.08443,-0.36959 -0.476073,-0.81801 -0.887569,-1.01624 -0.763315,-0.36771 -0.781238,-0.5668 -0.06054,-0.67257 0.230848,-0.0339 0.747776,-0.35968 1.148722,-0.72399 0.924568,-0.84007 2.110912,-1.35943 2.322666,-1.01681 0.08655,0.14004 0.385707,0.25461 0.664806,0.25461 1.255665,0 1.926251,2.94432 0.903523,3.96705 -0.764688,0.76469 -1.944069,0.89847 -3.022082,0.34281 z M 0.51492963,252.28736 c -0.86494378,-0.60583 -0.8303028,-2.54491 0.061394,-3.43661 1.14895297,-1.14895 3.09244267,-0.68336 3.60282517,0.86312 0.1643481,0.49797 0.5547453,1.00867 0.8675497,1.13487 0.5579777,0.22511 0.5584114,0.22977 0.022924,0.24622 -0.3001962,0.009 -0.8880186,0.37396 -1.3062719,0.81052 -0.8720638,0.91024 -2.2609651,1.07352 -3.24842097,0.38188 z M 19.819576,251.77377 c -0.683276,-0.57494 -0.771648,-0.80234 -0.679546,-1.74864 0.129835,-1.33397 0.206428,-1.46311 1.160427,-1.95644 1.12384,-0.58116 2.625365,-0.0398 3.225873,1.16311 0.246619,0.494 0.57404,1.02383 0.727604,1.17739 0.363055,0.36306 0.356614,0.70254 -0.01333,0.70254 -0.160894,0 -0.646279,0.29766 -1.078633,0.66146 -1.036927,0.87252 -2.305894,0.87274 -3.342397,5.3e-4 z m 14.106273,0.41076 c -1.940964,-0.79443 -2.086808,-3.89856 -0.223064,-4.74774 1.485468,-0.67682 3.078628,-0.17504 3.720965,1.17196 0.439015,0.92062 0.434514,0.98226 -0.15248,2.08876 -0.811728,1.53012 -1.975853,2.04757 -3.345421,1.48702 z m 19.019504,-1.45226 c -0.497821,-0.21668 -0.890121,-0.62124 -0.990592,-1.02154 -0.109077,-0.43461 -0.462933,-0.7684 -1.027837,-0.96957 l -0.861491,-0.30678 0.905663,-0.38758 c 0.498115,-0.21318 1.070891,-0.62348 1.272834,-0.9118 0.20194,-0.28831 0.689499,-0.69089 1.083461,-0.89461 2.181693,-1.1282 4.083076,1.47314 2.760781,3.7771 -0.64956,1.1318 -1.657853,1.36111 -3.142819,0.71478 z M 7.6813784,248.99253 c -1.4516568,-0.58473 -1.7187389,-2.36523 -0.5732399,-3.8215 0.9298464,-1.1821 2.9577745,-0.78257 3.7313715,0.73514 0.801493,1.57243 0.775429,1.84385 -0.252162,2.62588 -0.9720727,0.73977 -1.8623657,0.88085 -2.9059696,0.46048 z M 14.0821,248.41432 c -0.74656,-0.42335 -0.917366,-0.74934 -0.921991,-1.75968 -0.01428,-3.11944 3.895327,-3.74882 4.64059,-0.74706 0.102273,0.41194 0.349224,0.81163 0.54878,0.88821 0.454857,0.17454 0.476294,0.61178 0.02999,0.61178 -0.183058,0 -0.89198,0.29765 -1.57538,0.66146 -1.364993,0.72664 -1.924368,0.7976 -2.721993,0.34529 z m 24.196042,-0.33555 c -0.0073,-0.005 -0.07041,-0.68969 -0.140168,-1.52074 -0.173099,-2.06214 0.331287,-3.24737 1.479679,-3.47705 1.547696,-0.30954 2.048508,-0.19255 2.751344,0.64272 0.909762,1.08119 0.885069,2.12866 -0.07552,3.20375 -0.653844,0.73178 -0.987804,0.87288 -2.38125,1.0061 -0.891413,0.0852 -1.626751,0.15058 -1.634083,0.14522 z m -9.415338,-0.45527 c -0.59876,-0.28592 -1.154663,-1.25919 -1.154663,-2.02159 0,-0.25182 0.197586,-0.73994 0.439079,-1.08472 0.41266,-0.58915 0.409617,-0.64842 -0.05057,-0.98492 -0.269306,-0.19692 -0.927084,-0.35804 -1.46173,-0.35804 -1.122297,0 -2.178045,-0.72044 -2.790054,-1.90394 -1.238364,-2.39473 1.953396,-4.27997 3.918734,-2.31464 0.745781,0.74579 0.796375,0.91091 0.652167,2.12854 -0.235323,1.98693 0.10075,2.61921 1.392184,2.61921 1.533411,0 2.134061,0.74096 2.131626,2.62958 l -0.0019,1.47146 -1.254871,0.0445 c -0.690181,0.0245 -1.509181,-0.077 -1.820002,-0.2254 z m -7.234639,-0.7758 c -1.823027,-0.72736 -2.165554,-2.39603 -0.784352,-3.82107 0.729514,-0.75266 0.910058,-0.81569 1.846176,-0.64451 1.245041,0.22767 2.035023,1.08069 2.27044,2.45162 0.09426,0.54893 0.274809,1.06198 0.401215,1.1401 0.486066,0.3004 0.197305,0.64603 -0.497774,0.59581 -0.400182,-0.0289 -0.987667,0.0883 -1.305522,0.26038 -0.680207,0.36835 -1.042942,0.37167 -1.930183,0.0177 z m 24.203934,0.0369 c -0.291041,-0.12785 -0.929148,-0.16583 -1.418013,-0.0844 l -0.888849,0.14802 0.448633,-0.6847 c 0.246748,-0.37659 0.367038,-0.81673 0.267311,-0.97809 -0.29309,-0.47423 0.09852,-1.97144 0.678476,-2.59395 0.536128,-0.57546 1.612453,-0.73543 2.80152,-0.41638 0.769612,0.2065 1.484159,1.62266 1.375013,2.72512 -0.137168,1.38551 -1.979054,2.44886 -3.264091,1.88441 z M 1.2789312,246.24459 c -1.37971017,-0.76472 -1.83332224,-3.13052 -0.78711867,-4.10521 0.63664787,-0.59313 2.06100377,-0.9917 2.31240157,-0.64707 0.090962,0.12469 0.3926692,0.35192 0.6704603,0.50494 0.277791,0.15302 0.7143334,0.66841 0.9700942,1.1453 0.2557608,0.47689 0.6833209,1.03252 0.9501338,1.23472 0.4519277,0.34249 0.4353394,0.36821 -0.2424901,0.37605 -0.4001822,0.005 -0.7277496,0.0977 -0.7279272,0.20685 -1.778e-4,0.10914 -0.2819212,0.52586 -0.6260967,0.92604 -0.6852508,0.79676 -1.5154561,0.91486 -2.5194572,0.35838 z M 34.851891,245.8023 c 0,-0.15529 -0.416719,-0.67537 -0.926042,-1.15572 -2.103395,-1.98376 -0.405315,-4.77324 2.351771,-3.86332 1.865828,0.61577 1.866614,3.12406 0.0013,4.22461 -0.493836,0.29137 -0.897884,0.65285 -0.897884,0.80327 0,0.15043 -0.119063,0.27351 -0.264584,0.27351 -0.14552,0 -0.264583,-0.12706 -0.264583,-0.28235 z m 31.578637,0.0336 c -0.312531,-0.13381 -0.64698,-0.3707 -0.74322,-0.52642 -0.09624,-0.15572 -0.525142,-0.28312 -0.953116,-0.28312 -0.926296,0 -1.009401,-0.30222 -0.182822,-0.66487 0.345448,-0.15155 0.627695,-0.5388 0.672465,-0.92263 0.169881,-1.45645 1.126032,-2.38125 2.461977,-2.38125 1.986748,0 3.341672,2.62241 2.15134,4.16385 -0.517046,0.66957 -2.459548,1.01993 -3.406624,0.61444 z m -7.712099,-1.3905 c -0.174005,-0.17401 -0.79313,-0.28825 -1.375833,-0.25387 -1.178219,0.0695 -1.372417,-0.28688 -0.546584,-1.00312 0.323683,-0.28073 0.503907,-0.76008 0.488572,-1.29947 -0.0346,-1.21693 1.408014,-2.68342 2.639729,-2.68342 1.169014,0 1.819899,0.37139 2.309215,1.31762 0.658584,1.27357 0.510857,2.34804 -0.460283,3.34778 -0.654891,0.67418 -1.083823,0.88589 -1.799167,0.88804 -0.516598,0.002 -1.08164,-0.13955 -1.255649,-0.31356 z m -7.683769,-0.83848 c -0.776616,-0.1652 -1.320946,-0.39102 -1.209628,-0.50184 0.111318,-0.11081 0.176313,-0.77318 0.144431,-1.47191 -0.100846,-2.21013 1.265166,-3.25466 3.347421,-2.55963 1.254083,0.4186 1.966349,1.65155 1.630529,2.82248 -0.215789,0.75242 -1.145947,1.80742 -1.593532,1.80742 -0.111353,0 -0.361027,0.0459 -0.554829,0.10192 -0.193805,0.0561 -0.987779,-0.0332 -1.764392,-0.19844 z m -42.4013727,-1.7799 c -0.7772916,-0.75982 -0.8257759,-0.91154 -0.6812597,-2.13175 0.2046398,-1.72787 0.9411527,-2.40584 2.4259054,-2.23309 1.314836,0.15298 2.513542,1.36488 2.513542,2.54123 0,0.4368 0.236428,1.026 0.529166,1.31874 0.678105,0.67811 0.700334,1.16971 0.03408,0.75363 -0.389938,-0.24352 -0.728243,-0.2159 -1.592854,0.13005 -1.582158,0.63305 -2.2768367,0.55155 -3.2285767,-0.37881 z m 31.8286987,-1.4107 c -0.06641,-1.61016 0.0076,-2.0113 0.482225,-2.61473 0.469474,-0.59683 0.766926,-0.71277 1.828702,-0.71277 2.181608,0 3.470743,1.75244 2.684846,3.64976 -0.436367,1.05348 -1.1434,1.38832 -3.145991,1.48987 l -1.771335,0.0898 z m -19.466574,1.24866 c -0.102488,-0.10249 -0.929955,-0.15889 -1.838817,-0.12533 -1.381495,0.051 -1.753592,-0.0332 -2.269095,-0.51346 -0.508247,-0.4735 -0.594756,-0.76843 -0.492225,-1.67809 0.192454,-1.70744 0.853728,-2.52387 2.044244,-2.52387 1.490727,0 2.389455,0.94719 2.389455,2.51831 0,0.67136 0.128709,1.46114 0.28602,1.75508 0.292045,0.54569 0.216617,0.90356 -0.119582,0.56736 z m 10.74677,-0.96665 c -0.173527,-0.38085 -0.599059,-0.68679 -1.092536,-0.78548 -1.87884,-0.37577 -2.583801,-2.67662 -1.233739,-4.02668 2.007169,-2.00717 5.120117,0.70137 3.611515,3.14234 -0.306228,0.49549 -0.556781,1.21426 -0.556781,1.59727 0,0.86466 -0.351594,0.89968 -0.728459,0.0725 z M 2.2785222,240.13784 c -0.890312,-0.49189 -1.40104187,-1.73028 -1.186104,-2.876 0.208529,-1.11155 0.8784433,-1.73906 2.0615581,-1.93105 0.7800578,-0.12659 1.0518087,-0.0156 1.8848991,0.77015 0.6270384,0.59138 0.9734328,1.15817 0.9734328,1.59279 0,0.3711 0.07227,0.86306 0.1605992,1.09324 0.091581,0.23866 0.023855,0.41851 -0.1575938,0.41851 -0.175006,0 -0.6414908,0.23021 -1.036633,0.51158 -1.0182662,0.72507 -1.9005542,0.86256 -2.7001584,0.42078 z m 33.4332648,-1.76837 c -0.933609,-1.1653 -1.012293,-1.55827 -0.567484,-2.83426 0.476473,-1.3668 1.871692,-1.75633 3.42106,-0.95512 0.886415,0.45838 1.184751,1.30543 0.932802,2.64843 -0.149122,0.7949 -0.371912,1.02523 -1.533845,1.58576 -0.74766,0.36068 -1.366864,0.64964 -1.376008,0.64213 -0.0092,-0.008 -0.403582,-0.49663 -0.876525,-1.08694 z m 27.353268,0.47883 c 0.102404,-0.31287 0.163457,-0.94089 0.135667,-1.3956 -0.06294,-1.02989 0.355344,-2.16608 1.083665,-2.94357 0.848786,-0.90609 2.544604,-0.82521 3.612438,0.1723 0.67714,0.63254 0.821733,0.97136 0.821733,1.9255 0,2.1085 -1.088914,2.84428 -4.17662,2.82215 -1.580896,-0.0113 -1.653876,-0.04 -1.476883,-0.58078 z m -16.21559,-0.95932 c 0.08804,-0.44021 0.05078,-1.08786 -0.08281,-1.43922 -0.368911,-0.97031 0.11756,-2.34003 1.020532,-2.87343 1.43025,-0.84487 2.914817,-0.41004 3.611333,1.05776 0.357507,0.75339 0.377102,1.04539 0.112942,1.68313 -0.175784,0.42438 -0.431249,0.7716 -0.567706,0.7716 -0.136453,0 -0.177646,0.11399 -0.09154,0.25331 0.23608,0.38199 -1.356725,1.10266 -2.0516,0.92825 -0.33436,-0.0839 -0.946169,-0.024 -1.359578,0.1332 -0.738362,0.28073 -0.748824,0.27163 -0.591576,-0.5146 z m 7.317009,-0.20246 c 0,-0.45708 -0.119062,-0.90464 -0.264583,-0.99458 -0.370192,-0.22879 -0.315235,-2.29336 0.07456,-2.80105 0.514559,-0.67019 1.399103,-1.03541 2.507757,-1.03541 2.742341,0 3.299066,4.01536 0.658405,4.74871 -0.54547,0.15148 -1.295373,0.27609 -1.666451,0.2769 -0.371078,8e-4 -0.817563,0.14435 -0.992188,0.31898 -0.246943,0.24694 -0.3175,0.13282 -0.3175,-0.51355 z M 24.416425,237.2127 c -0.282474,-0.21366 -0.859783,-0.38847 -1.282909,-0.38847 -1.183909,0 -2.304542,-1.3421 -2.304542,-2.75998 0,-1.48282 0.850389,-2.32254 2.393004,-2.36299 0.922089,-0.0242 1.219261,0.10828 1.865447,0.83149 0.864182,0.96719 0.989645,2.00612 0.352173,2.91624 -0.27803,0.39694 -0.35899,0.85625 -0.243562,1.38179 0.191,0.86962 -0.0067,0.96649 -0.779611,0.38192 z m -8.289691,-0.69862 c -0.177217,-0.17722 -0.922131,-0.2854 -1.737923,-0.2524 -1.196708,0.0484 -1.558699,-0.0524 -2.236849,-0.62303 -1.971532,-1.65894 -0.837563,-4.37067 1.827689,-4.37067 0.439282,0 1.024949,0.12109 1.301481,0.26909 0.60614,0.32439 1.130245,2.0969 0.895996,3.03022 -0.106564,0.42459 -0.01161,0.91349 0.257055,1.32352 0.234323,0.35762 0.426041,0.71394 0.426041,0.79182 0,0.24749 -0.41217,0.15277 -0.73349,-0.16855 z m 26.398074,-1.06186 c 0,-0.31804 -0.24284,-0.83675 -0.539644,-1.15268 -0.747104,-0.79525 -0.910458,-2.1609 -0.402186,-3.36228 0.417537,-0.98693 0.428046,-0.99219 1.980195,-0.99219 1.417645,0 1.623105,0.0745 2.245408,0.81405 1.252704,1.48875 0.877615,2.82022 -1.062549,3.77177 -0.794869,0.38984 -1.513493,0.88672 -1.596943,1.1042 -0.227335,0.59242 -0.624281,0.47615 -0.624281,-0.18287 z m -11.880996,-1.37269 c -0.204393,-0.24792 -0.953286,-0.70099 -1.664205,-1.00682 -1.42811,-0.61436 -1.800633,-1.09721 -1.800633,-2.33389 0,-1.65119 0.910678,-2.62448 2.467748,-2.63742 2.135952,-0.0178 3.357226,2.62582 2.056786,4.45212 -0.276405,0.38817 -0.544295,0.99175 -0.595312,1.34128 -0.08548,0.58558 -0.121955,0.6001 -0.464384,0.18473 z M 5.5647118,233.92482 c -1.281982,-0.54632 -1.6004794,-1.7591 -1.0765348,-4.09925 0.2165678,-0.96728 2.2935763,-1.10864 3.4734322,-0.23639 0.8984321,0.66419 1.2256991,1.4646 1.2256991,2.99773 0,1.0565 -0.08499,1.29379 -0.463021,1.29275 -0.2546614,-7.9e-4 -0.9392708,0.0648 -1.5213541,0.14551 -0.5820834,0.0807 -1.3192829,0.0356 -1.6382214,-0.10035 z M 36.31537,232.89407 c -0.651631,-0.44331 -1.194517,-1.09392 -1.430779,-1.71467 -0.338026,-0.88813 -0.332655,-1.1011 0.04789,-1.89911 0.892649,-1.87191 3.239614,-2.16674 4.578808,-0.57519 0.563113,0.66922 0.662614,1.004 0.549362,1.84836 -0.132588,0.98852 -1.043257,2.30202 -1.596027,2.30202 -0.145077,0 -0.451745,0.16942 -0.681485,0.37648 -0.36517,0.32913 -0.549786,0.28663 -1.467771,-0.33789 z m 23.262752,-1.25299 c -0.263682,-2.46222 0.57776,-3.81268 2.375603,-3.81268 1.362427,0 2.778972,1.1524 2.82743,2.30019 0.05136,1.21642 -0.04052,1.50553 -0.689072,2.16836 -0.490223,0.50101 -1.004287,0.66745 -2.47899,0.80262 l -1.860518,0.17054 z m -10.906549,-1.23984 c -0.06857,-1.76152 -0.04073,-1.85263 0.833438,-2.72679 1.202274,-1.20228 2.629358,-1.26511 3.685921,-0.1623 0.982818,1.02584 1.000686,2.78732 0.03879,3.82468 -0.369692,0.3987 -0.875707,0.73384 -1.124479,0.74477 -0.248772,0.0109 -1.107157,0.0474 -1.907522,0.081 l -1.455208,0.0611 z m -29.165515,1.13133 c -0.218281,-0.14107 -0.886834,-0.25831 -1.485673,-0.26053 -2.158955,-0.008 -3.360512,-1.99992 -2.344482,-3.88658 1.391221,-2.58334 5.500705,-0.46052 4.374043,2.25948 -0.170393,0.41137 -0.230504,1.0639 -0.133581,1.45008 0.194879,0.77645 0.164403,0.80895 -0.410307,0.43755 z M 9.2153403,228.07135 c -0.9989215,-0.60748 -1.2978943,-1.31062 -1.2070239,-2.83876 0.099253,-1.66909 0.6718849,-2.16669 2.4934136,-2.16669 1.306857,0 1.590464,0.0976 2.232925,0.76815 0.711444,0.74259 0.729849,0.83283 0.55312,2.71198 l -0.182813,1.94383 -1.527325,0.0446 c -1.099949,0.0322 -1.7609657,-0.0975 -2.3622967,-0.46314 z m 34.6323837,0.0319 c 0,-0.28537 -0.230375,-0.73349 -0.511942,-0.99581 -1.849758,-1.72331 -0.775748,-4.43124 1.692661,-4.26776 0.803056,0.0532 1.247815,0.27067 1.791618,0.87607 1.283806,1.42923 0.788223,3.18583 -1.11348,3.94674 -0.561054,0.22449 -1.096783,0.53224 -1.190509,0.68389 -0.280341,0.4536 -0.668348,0.31245 -0.668348,-0.24313 z m 11.474776,0.11674 c 0.104259,-0.27169 0.04774,-1.04734 -0.125598,-1.72366 -0.379608,-1.48116 -0.211624,-2.26597 0.691803,-3.23203 0.851879,-0.91094 2.78733,-1.04589 3.355997,-0.234 0.19015,0.27148 0.449011,0.5011 0.575243,0.51026 0.126233,0.009 0.461677,0.39843 0.74543,0.86502 l 0.515916,0.84836 -0.610619,1.15103 c -0.704527,1.32804 -0.89835,1.44225 -2.864614,1.68797 -0.800365,0.10002 -1.684237,0.28067 -1.964164,0.40145 -0.424511,0.18316 -0.477504,0.13763 -0.319394,-0.2744 z m -32.093762,-0.2535 c -3.225957,-1.16559 -2.597041,-5.4298 0.800825,-5.4298 0.968879,0 2.249341,0.62988 2.595559,1.27679 0.307689,0.57493 -0.01349,2.19275 -0.601258,3.02867 -1.182639,1.68191 -1.215438,1.69511 -2.795126,1.12434 z m 6.547447,-1.32947 c -2.09527,-1.17531 -2.681978,-2.37238 -2.070642,-4.22474 0.415314,-1.25842 1.21294,-1.74621 2.759707,-1.6877 1.52872,0.0578 2.42111,0.69757 2.77849,1.99189 0.315582,1.14295 0.01291,1.84028 -1.475885,3.40029 l -1.017831,1.06652 z m 7.156784,-0.36644 c -1.058492,-1.07307 -1.816495,-2.39295 -1.816495,-3.16297 0,-0.28253 0.386954,-0.99667 0.859896,-1.58698 0.71695,-0.89487 1.021268,-1.07556 1.830642,-1.08695 1.809617,-0.0254 3.394879,1.4147 3.394879,3.08412 0,0.77347 -1.400876,2.45848 -2.043914,2.45848 -0.16441,0 -0.520174,0.28126 -0.790583,0.62503 l -0.491654,0.62504 z m -19.392418,-2.11586 c -0.07956,-0.12873 -0.684159,-0.31495 -1.343555,-0.41384 -1.618572,-0.24272 -2.511771,-1.20102 -2.511771,-2.69486 0,-0.8478 0.17556,-1.28713 0.767611,-1.92093 0.422187,-0.45195 0.993687,-0.82173 1.27,-0.82173 0.276314,0 0.625354,-0.12296 0.775646,-0.27326 0.413623,-0.41362 0.943083,-0.0875 1.785355,1.09955 0.894043,1.26006 1.084299,2.99577 0.384467,3.5075 -0.29064,0.21252 -0.388055,0.55283 -0.296038,1.03419 0.101664,0.53182 0.03053,0.71744 -0.274957,0.71744 -0.226658,0 -0.477199,-0.10533 -0.556758,-0.23406 z m 32.64876,-0.86211 c -0.0046,-0.48852 -0.167466,-1.09777 -0.361858,-1.35391 -0.384543,-0.50668 -0.330591,-1.76181 0.111215,-2.58733 0.312513,-0.58394 1.859137,-1.31259 2.786071,-1.31259 0.335669,0 1.035505,0.40101 1.555189,0.89113 0.744966,0.7026 0.94488,1.09357 0.94488,1.84791 0,1.42694 -1.114745,2.55569 -2.791288,2.82634 -0.720366,0.1163 -1.518113,0.29362 -1.772775,0.39405 -0.384482,0.15162 -0.464447,0.0319 -0.471434,-0.7056 z m -5.81242,-2.19937 c 0,-0.35735 -0.297656,-1.08833 -0.661458,-1.62443 -0.363802,-0.53609 -0.661459,-1.26166 -0.661459,-1.61239 0,-0.84835 0.676032,-2.11727 1.308262,-2.45563 1.692005,-0.90554 4.247988,0.71386 4.247988,2.6914 0,0.61547 -1.918202,2.59242 -2.515372,2.59242 -0.207034,0 -0.503867,0.23813 -0.659628,0.52917 -0.400611,0.74855 -1.058333,0.67363 -1.058333,-0.12054 z m -21.180602,-0.33602 c -1.065275,-0.11143 -2.092877,-0.91189 -2.57176,-2.00329 -0.391858,-0.89306 -0.425644,-2.03807 -0.06014,-2.03807 0.145521,0 0.264583,-0.13486 0.264583,-0.29969 0,-0.59768 1.141012,-1.28781 2.12917,-1.28781 1.484091,0 2.63333,1.16306 2.63333,2.66501 0,0.70135 -0.174233,1.32231 -0.459461,1.63748 -0.252705,0.27924 -0.461064,0.69508 -0.463021,0.9241 -0.0041,0.48375 -0.195109,0.53592 -1.472703,0.40227 z m 14.614186,-1.13656 c -0.139493,-0.36689 -0.574744,-0.83893 -0.967219,-1.04898 -1.292344,-0.69164 -1.867855,-2.70742 -1.158007,-4.05603 0.437171,-0.83055 0.735418,-0.9662 2.134386,-0.97074 1.085292,-0.004 1.373521,0.12152 2.211366,0.95937 0.849845,0.84984 0.945431,1.07597 0.810861,1.91822 -0.106249,0.665 -0.467998,1.2359 -1.191797,1.88086 -0.571585,0.50932 -1.162257,1.16417 -1.312603,1.45521 -0.263205,0.50951 -0.282782,0.50439 -0.526987,-0.13791 z m -7.853376,-0.42635 c -1.531159,-0.87383 -1.984375,-1.54663 -1.984375,-2.94581 0,-1.65223 0.923608,-2.8667 2.305648,-3.03173 1.105088,-0.13196 1.711513,0.12425 2.645826,1.11784 0.497972,0.52957 0.600924,0.88085 0.516318,1.76177 -0.111524,1.1612 -1.037629,2.73615 -1.608918,2.73615 -0.186134,0 -0.445918,0.2173 -0.577297,0.48288 -0.227303,0.45951 -0.290113,0.45364 -1.297202,-0.1211 z"
         id="path3771"
         inkscape:connector-curvature="0" />
    </g>
  </g>
</svg>
