<?xml version="1.0" encoding="UTF-8" standalone="no"?>
<!-- Created with Inkscape (http://www.inkscape.org/) -->

<svg
   xmlns:dc="http://purl.org/dc/elements/1.1/"
   xmlns:cc="http://creativecommons.org/ns#"
   xmlns:rdf="http://www.w3.org/1999/02/22-rdf-syntax-ns#"
   xmlns:svg="http://www.w3.org/2000/svg"
   xmlns="http://www.w3.org/2000/svg"
   xmlns:sodipodi="http://sodipodi.sourceforge.net/DTD/sodipodi-0.dtd"
   xmlns:inkscape="http://www.inkscape.org/namespaces/inkscape"
   width="75mm"
   height="120mm"
   viewBox="0 0 75 120"
   version="1.1"
   id="svg8"
   inkscape:version="0.92.4 (5da689c313, 2019-01-14)"
   sodipodi:docname="kikublancs3.svg">
  <defs
     id="defs2" />
  <sodipodi:namedview
     id="base"
     pagecolor="#ffffff"
     bordercolor="#666666"
     borderopacity="1.0"
     inkscape:pageopacity="0.0"
     inkscape:pageshadow="2"
     inkscape:zoom="1.4"
     inkscape:cx="30.539657"
     inkscape:cy="359.19365"
     inkscape:document-units="mm"
     inkscape:current-layer="layer1"
     showgrid="false"
     units="mm"
     inkscape:window-width="1920"
     inkscape:window-height="1017"
     inkscape:window-x="-8"
     inkscape:window-y="-8"
     inkscape:window-maximized="1" />
  <metadata
     id="metadata5">
    <rdf:RDF>
      <cc:Work
         rdf:about="">
        <dc:format>image/svg+xml</dc:format>
        <dc:type
           rdf:resource="http://purl.org/dc/dcmitype/StillImage" />
        <dc:title />
      </cc:Work>
    </rdf:RDF>
  </metadata>
  <g
     inkscape:label="Calque 1"
     inkscape:groupmode="layer"
     id="layer1"
     transform="translate(0,-176.99999)">
    <g
       id="g6126"
       transform="translate(-0.56311191,-0.41580942)">
      <path
         style="fill:#2affd5;stroke-width:0.26458335"
         d="m 33.896058,259.85105 c -0.800365,-0.12497 -1.752865,-0.22844 -2.116667,-0.22995 -0.522165,-0.002 -0.577881,-0.0562 -0.264583,-0.25662 0.327107,-0.20926 0.338733,-0.34771 0.06615,-0.78754 -0.181901,-0.29351 -0.330729,-0.73518 -0.330729,-0.98148 0,-0.86711 0.627263,-2.16827 1.190625,-2.46977 0.735917,-0.39385 1.190625,-1.67673 1.190625,-3.35915 0,-2.04225 0.255021,-2.99085 0.804055,-2.99085 0.421394,0 0.483079,0.32658 0.56224,2.97656 0.08879,2.9723 0.09016,2.97779 0.962856,3.83015 0.800245,0.78161 0.867177,0.97072 0.79375,2.24253 -0.06785,1.17521 -0.181978,1.44022 -0.741651,1.7222 -0.570646,0.2875 -0.280049,0.32962 2.116666,0.30673 1.922034,-0.0184 2.476651,-0.0851 1.799802,-0.21678 -0.538075,-0.10464 -1.163153,-0.34365 -1.389062,-0.53113 -0.737079,-0.61173 -0.432504,-3.20254 0.484266,-4.11932 0.271296,-0.27129 0.332013,-0.90528 0.238819,-2.49361 -0.1162,-1.98037 -0.08864,-2.12983 0.392782,-2.12983 0.421843,0 0.581794,0.30632 0.863473,1.65364 0.276211,1.32117 0.552645,1.86258 1.374883,2.69278 1.232392,1.24432 1.526704,1.75233 1.526704,2.6352 0,2.04559 -1.527858,2.82566 -5.426739,2.77071 -1.453679,-0.0205 -3.297896,-0.1395 -4.098261,-0.26447 z m 8.665104,-0.13809 c 0.181901,-0.0734 0.479557,-0.0734 0.661459,0 0.181901,0.0734 0.03307,0.13345 -0.33073,0.13345 -0.363802,0 -0.51263,-0.06 -0.330729,-0.13345 z m 1.86862,-0.27009 c 0.190995,-0.0764 0.419198,-0.067 0.507119,0.0209 0.08792,0.0879 -0.06835,0.15045 -0.347266,0.13897 -0.308226,-0.0127 -0.370919,-0.0754 -0.159853,-0.15985 z m -14.2875,-0.26459 c 0.190995,-0.0764 0.419198,-0.067 0.507119,0.0209 0.08792,0.0879 -0.06835,0.15045 -0.347266,0.13896 -0.308226,-0.0127 -0.370919,-0.0754 -0.159853,-0.15985 z m 15.610417,0 c 0.190994,-0.0764 0.419198,-0.067 0.507119,0.0209 0.08792,0.0879 -0.06835,0.15045 -0.347266,0.13896 -0.308226,-0.0127 -0.370919,-0.0754 -0.159853,-0.15985 z m 2.033984,-0.49618 c -0.145521,-0.0388 -0.595035,-0.14352 -0.998919,-0.23271 -1.708988,-0.3774 -2.280237,-2.10183 -1.253897,-3.78515 0.578742,-0.9492 0.531828,-2.58067 -0.123677,-4.30105 -0.194064,-0.50932 -0.490389,-1.77074 -0.6585,-2.80315 -0.168111,-1.0324 -0.476745,-2.20687 -0.685853,-2.60993 -0.539139,-1.03919 -0.495091,-1.99525 0.09192,-1.99525 0.744649,0 1.305655,1.28576 1.500767,3.43958 0.09887,1.09141 0.401849,2.46062 0.673288,3.04271 0.271436,0.58208 0.726731,1.65364 1.011764,2.38125 0.380214,0.97057 0.768485,1.46226 1.457809,1.84611 1.643219,0.91503 2.068148,3.08548 0.817362,4.17491 -0.738789,0.64348 -1.414116,0.95411 -1.832068,0.84268 z m -21.375317,-0.50701 c -0.394565,-0.2047 -0.718176,-0.28995 -0.719135,-0.18944 -9.58e-4,0.10051 -0.238299,-0.17444 -0.527423,-0.611 -0.336727,-0.50844 -0.526306,-1.24164 -0.527423,-2.03982 -0.0014,-1.01952 0.130045,-1.36826 0.723157,-1.91823 0.398695,-0.36969 0.820393,-0.67216 0.937105,-0.67216 0.548694,0 1.919394,-1.80677 2.458893,-3.24115 0.09578,-0.25466 0.33886,-0.46302 0.540168,-0.46302 0.416055,0 0.524878,1.72268 0.124455,1.97015 -0.132858,0.0821 -0.321117,0.62019 -0.418354,1.19573 -0.149365,0.88407 -0.06699,1.1904 0.530876,1.97424 0.593518,0.77815 0.678561,1.08927 0.527198,1.92874 -0.304938,1.6912 -2.249779,2.79215 -3.649517,2.06596 z m 26.60491,-3.10313 c -0.769747,-0.82433 -0.998583,-2.04398 -0.606441,-3.23218 0.289806,-0.87812 0.250928,-1.05485 -0.500833,-2.27662 -1.406136,-2.28526 -0.919641,-2.51372 1.113454,-0.52289 1.100746,1.07787 1.525106,1.32448 2.290945,1.33133 1.470867,0.0132 1.94718,0.54289 2.073217,2.30569 0.104606,1.46304 0.07539,1.54699 -0.749874,2.15459 -0.472297,0.34773 -1.347086,0.68647 -1.943976,0.75274 -0.894442,0.0993 -1.189204,0.009 -1.676492,-0.51266 z m -33.467212,-0.62329 c -0.923811,-0.50133 -1.263423,-1.15229 -1.263423,-2.42171 0,-1.33217 0.580757,-2.11519 1.81538,-2.44764 0.55124,-0.14843 1.350553,-0.6403 1.77625,-1.09304 2.217398,-2.35824 2.686913,-2.92095 3.374416,-4.0442 0.773522,-1.26379 1.500621,-1.60737 1.500621,-0.70909 0,0.28245 -0.105237,0.57859 -0.23386,0.65808 -0.128623,0.0795 -0.498257,0.7116 -0.821409,1.40468 -0.323151,0.69308 -1.063181,1.96074 -1.64451,2.81702 -0.919654,1.35462 -1.019175,1.6398 -0.766091,2.19526 0.159979,0.35112 0.29087,1.21441 0.29087,1.91843 0,1.06854 -0.107754,1.35064 -0.652149,1.70734 -0.806552,0.52847 -2.41661,0.53557 -3.376095,0.0149 z m -5.156995,-3.47727 c -0.818846,-0.1585 -1.927261,-1.56244 -1.927261,-2.44111 0,-1.08342 0.517016,-2.37531 1.068769,-2.6706 0.266169,-0.14245 0.892432,-0.259 1.391697,-0.259 0.507124,0 1.204658,-0.23355 1.580481,-0.52917 0.37,-0.29104 0.784322,-0.52916 0.920716,-0.52916 0.136394,0 0.46349,-0.23813 0.726879,-0.52917 0.263389,-0.29104 0.691725,-0.52917 0.951857,-0.52917 0.707373,0 0.424474,0.92094 -0.647335,2.1073 -0.833735,0.92285 -0.896402,1.10831 -0.765849,2.26657 0.103031,0.91409 0.01416,1.49921 -0.322706,2.12474 -0.579754,1.07654 -1.295574,1.31427 -2.977248,0.98877 z m 43.836438,-0.75076 c -0.551001,-0.58688 -0.652241,-0.95394 -0.652241,-2.36477 0,-1.21916 -0.12501,-1.80825 -0.463021,-2.18189 -0.254661,-0.28151 -0.46302,-0.71082 -0.46302,-0.95402 0,-0.69742 0.915093,-0.52372 1.852083,0.35156 0.679942,0.63516 1.084408,0.79375 2.024383,0.79375 2.246534,0 3.193888,2.02519 1.869164,3.99577 -0.549224,0.817 -0.737153,0.90611 -2.059736,0.97667 -1.2817,0.0684 -1.533202,-0.005 -2.107612,-0.61707 z m -20.830604,-0.76803 c -1.071652,-1.27569 -1.096431,-2.90812 -0.06195,-4.08172 l 0.785604,-0.89126 -0.169032,-3.14364 c -0.148011,-2.75268 -0.117345,-3.14363 0.246578,-3.14363 0.285055,0 0.505611,0.41965 0.70212,1.33593 0.157578,0.73477 0.286507,1.50282 0.286507,1.70677 0,1.43962 0.647504,3.12103 1.518248,3.94253 0.801798,0.75645 0.946983,1.07165 0.969182,2.10415 0.03593,1.67095 -0.651447,2.34036 -2.537855,2.47152 -1.019503,0.0709 -1.496554,-0.0116 -1.739397,-0.30065 z m -8.506388,-2.23277 c -0.544587,-0.7648 -0.560414,-0.90347 -0.234718,-2.05663 0.270632,-0.95819 0.539975,-1.33103 1.196539,-1.6563 0.83353,-0.41295 1.616993,-1.7751 2.029539,-3.52862 0.09928,-0.42199 0.350301,-0.7276 0.597633,-0.7276 0.349131,0 0.393076,0.1799 0.242364,0.99219 -0.50182,2.70462 -0.504899,3.3143 -0.01855,3.66993 0.303181,0.2217 0.515419,0.80254 0.589206,1.61251 0.164677,1.80766 -0.253306,2.25677 -2.233678,2.40002 -1.52468,0.11029 -1.606392,0.0837 -2.168351,-0.7055 z m 5.32317,-0.54911 c 0.04516,-0.38593 0.274019,-0.70577 0.541269,-0.75645 0.353481,-0.067 0.463021,0.0911 0.463021,0.66865 0,0.5857 -0.12218,0.75645 -0.541269,0.75645 -0.423161,0 -0.524195,-0.1459 -0.463021,-0.66865 z m 13.160415,0.60956 c -1.060961,-0.28637 -1.632297,-2.53091 -0.998376,-3.92221 0.261591,-0.57413 0.226835,-0.79234 -0.223232,-1.40151 -0.625409,-0.8465 -1.674101,-3.14268 -1.674101,-3.66556 0,-0.68876 1.004877,-0.36514 1.542193,0.49666 1.766993,2.83408 2.702311,3.9026 3.416102,3.9026 1.255299,0 1.966031,1.59624 1.494155,3.35574 -0.260414,0.971 -2.12933,1.61957 -3.556741,1.23428 z m 16.104364,-2.07305 c -0.564049,-0.31732 -0.7459,-0.66051 -0.878038,-1.65702 -0.17485,-1.31865 -0.567055,-2.34212 -1.122556,-2.92937 -0.998132,-1.05516 0.227473,-1.49118 1.515277,-0.53907 0.563515,0.41663 1.000686,0.52847 1.652334,0.42272 1.417039,-0.22995 2.302258,0.0563 2.729529,0.8825 0.519178,1.00398 0.479274,2.62569 -0.08219,3.34032 -0.610012,0.77642 -2.797974,1.05171 -3.814355,0.47992 z m -29.159088,-0.2919 c -0.217001,-0.5655 0.385048,-1.96048 0.846108,-1.96048 0.541528,0 0.307607,2.22112 -0.244946,2.32581 -0.236352,0.0448 -0.506875,-0.11962 -0.601162,-0.36533 z m -24.9029871,-0.0939 c -0.9218215,-0.37392 -1.3066741,-1.43696 -1.0319152,-2.85035 0.3359925,-1.72838 1.1230332,-2.17405 2.9929523,-1.69481 1.237916,0.31727 1.395482,0.30168 2.112769,-0.20907 0.426301,-0.30356 0.95207,-0.55192 1.168376,-0.55192 0.216306,0 0.912301,-0.23551 1.546656,-0.52335 0.634355,-0.28785 1.302201,-0.52598 1.484102,-0.52917 0.642506,-0.0113 0.319946,0.81846 -0.491085,1.26327 -0.451999,0.24789 -1.523561,0.91313 -2.38125,1.47831 -1.346152,0.88705 -1.55999,1.14036 -1.563487,1.85208 -0.0022,0.45347 -0.09153,0.94355 -0.198438,1.08907 -0.609096,0.82906 -2.428155,1.16697 -3.6386801,0.67594 z m 11.4053141,-1.88687 c -0.781057,-0.92823 -0.878941,-2.01214 -0.285365,-3.15999 0.488254,-0.94418 1.14004,-1.31762 2.299699,-1.31762 0.869269,0 2.769117,-1.04765 3.200814,-1.76505 0.306268,-0.50896 0.98006,-0.43183 0.973157,0.1114 -0.0032,0.25466 -0.238713,0.76068 -0.523283,1.12448 -0.28457,0.3638 -0.520048,0.75926 -0.523284,0.8788 -0.0032,0.11953 -0.195172,0.40662 -0.426526,0.63798 -0.269668,0.26966 -0.378026,0.711 -0.301905,1.22965 0.303653,2.06892 -0.582893,3.07441 -2.71074,3.07441 -0.811483,0 -1.156327,-0.16489 -1.702567,-0.81406 z m 32.379228,-1.52105 c -0.430249,-0.34839 -0.654283,-0.9088 -0.803812,-2.01069 -0.202888,-1.49508 -0.258593,-1.57654 -2.609972,-3.81647 -1.321464,-1.25883 -2.401689,-2.4376 -2.400501,-2.61951 0.0031,-0.46851 0.691444,-0.4098 1.532824,0.13073 0.864436,0.55534 2.967255,2.63087 2.967255,2.92875 0,0.38055 2.004737,1.10761 3.065467,1.11176 1.319642,0.005 1.581195,0.18326 2.102896,1.43186 0.451807,1.08133 0.336579,2.26826 -0.220203,2.26826 -0.183385,0 -0.505055,0.23812 -0.714827,0.52917 -0.493625,0.68486 -2.099,0.71024 -2.919127,0.0461 z m -25.39129,-0.70536 c 0,-0.37267 0.230016,-0.80286 0.529167,-0.98969 0.291042,-0.18175 0.529167,-0.46436 0.529167,-0.62802 0,-0.47511 1.060357,-1.69182 1.474412,-1.69182 0.713306,0 0.403087,1.21476 -0.526164,2.06036 -0.49711,0.45236 -0.981382,1.0668 -1.076164,1.36543 -0.245753,0.7743 -0.930418,0.68875 -0.930418,-0.11626 z m 14.993057,0.21824 c -0.09701,-0.097 -0.17639,-0.52246 -0.17639,-0.94544 0,-1.13151 0.896739,-0.89678 1.008952,0.2641 0.07912,0.81854 -0.346803,1.1671 -0.832562,0.68134 z m 25.080171,-2.48748 c -0.09607,-0.15544 -0.326228,-0.22446 -0.511466,-0.15338 -0.208047,0.0798 -0.627684,-0.46495 -1.097716,-1.42509 -0.512496,-1.04687 -0.998469,-1.65513 -1.488525,-1.86309 -0.446937,-0.18966 -0.727604,-0.51209 -0.727604,-0.83586 0,-0.45615 0.11575,-0.50226 0.859896,-0.34253 1.094062,0.23482 2.100826,0.23518 3.799991,0.001 1.318577,-0.18147 1.370144,-0.16314 2.05052,0.72888 0.496332,0.65072 0.697926,1.23373 0.697926,2.01842 0,0.96092 -0.111032,1.17109 -0.859896,1.62768 -0.928264,0.56597 -2.440305,0.70126 -2.723126,0.24365 z m -35.046144,-0.15461 c -1.060477,-0.42563 -1.5875,-1.24245 -1.5875,-2.46043 0,-1.46579 0.519036,-2.29162 1.587828,-2.52637 0.520231,-0.11426 0.793422,-0.33694 0.793422,-0.64673 0,-0.25985 0.238125,-0.77519 0.529166,-1.14519 0.291042,-0.36999 0.529167,-0.84246 0.529167,-1.04991 0,-0.20746 0.0893,-0.46649 0.198438,-0.57563 0.10914,-0.10914 0.205472,-0.27781 0.214071,-0.37483 0.135316,-1.5267 0.481261,-2.42535 0.933665,-2.42535 0.683934,0 0.650144,0.7007 -0.159483,3.3073 -0.361598,1.16416 -0.657469,2.27954 -0.657487,2.47861 -2.1e-5,0.19907 0.35715,0.76876 0.793713,1.26598 0.936172,1.06624 1.058756,2.51005 0.297201,3.50044 -0.369623,0.48069 -0.792467,0.65195 -1.780053,0.72093 -0.712401,0.0498 -1.473867,0.0188 -1.692148,-0.0688 z M 5.4053547,237.72345 c -0.8224845,-0.65144 -1.0364142,-2.1601 -0.4742841,-3.3447 0.4948946,-1.04291 1.272704,-1.38887 2.4453968,-1.08768 1.4740822,0.3786 3.0239906,0.45689 3.3135136,0.16736 0.161238,-0.16124 0.516203,-0.29316 0.788811,-0.29316 0.825492,0 0.419625,0.84196 -0.801062,1.66178 -0.674357,0.45291 -1.1916621,1.03683 -1.2970039,1.46404 -0.343848,1.39445 -0.9170574,1.88443 -2.2075846,1.88707 -0.7321449,0.002 -1.4128758,-0.1736 -1.7677868,-0.45471 z m 13.9386203,0.072 c 0,-0.21828 0.225386,-0.39687 0.500859,-0.39687 0.275472,0 0.569392,0.17859 0.653154,0.39687 0.110028,0.28673 -0.02898,0.39688 -0.500859,0.39688 -0.404193,0 -0.653154,-0.15128 -0.653154,-0.39688 z m 38.89375,-0.66146 c 0,-0.29398 0.176389,-0.52916 0.396875,-0.52916 0.220485,0 0.396875,0.23518 0.396875,0.52916 0,0.29398 -0.17639,0.52917 -0.396875,0.52917 -0.220486,0 -0.396875,-0.23519 -0.396875,-0.52917 z m -42.264641,-0.33073 c -0.303993,-0.32742 -0.631735,-1.13294 -0.728316,-1.79004 -0.144601,-0.9838 -0.07715,-1.31988 0.382054,-1.90367 0.509884,-0.64821 0.711362,-0.70749 2.35191,-0.69206 1.410172,0.0133 2.107786,-0.13144 3.258924,-0.67602 1.641475,-0.77654 2.075069,-0.84975 2.075069,-0.35039 0,0.25858 -1.665362,1.69227 -2.867767,2.46881 -0.0493,0.0319 -0.20539,0.57318 -0.346861,1.20298 -0.365355,1.62647 -1.116556,2.33571 -2.473914,2.33571 -0.798908,0 -1.249082,-0.16232 -1.651099,-0.59532 z m 25.423718,0.15997 c -1.314444,-0.67727 -1.855726,-2.57081 -1.086829,-3.80201 0.275958,-0.44188 0.190159,-0.93852 -0.536466,-3.10526 -0.979435,-2.9206 -0.988338,-2.97614 -0.477094,-2.97614 0.340889,0 1.478812,1.94761 1.478812,2.53105 0,0.13602 0.462494,0.75328 1.027768,1.37168 0.699815,0.76558 1.245169,1.12436 1.709084,1.12436 0.878666,0 2.025648,1.22469 2.025648,2.16288 0,2.41059 -2.072982,3.75894 -4.140923,2.69344 z m -19.364064,-0.77969 c 0.0929,-0.47913 1.448055,-1.08634 1.750186,-0.78421 0.32642,0.32642 -0.392293,1.07332 -1.115414,1.15916 -0.569992,0.0677 -0.705112,-0.0121 -0.634772,-0.37495 z m 15.472726,-0.83549 c -0.0902,-0.5457 -0.165309,-1.73632 -0.16691,-2.64583 -0.0024,-1.29481 0.08321,-1.65365 0.393962,-1.65365 0.468998,0 0.427543,-0.21341 0.552464,2.84428 0.07882,1.92941 0.02426,2.44739 -0.257765,2.44739 -0.20786,0 -0.426466,-0.41571 -0.521751,-0.99219 z m 18.020281,-0.24853 c -0.621498,-0.16241 -0.610153,-1.14053 0.01323,-1.14053 0.557143,0 1.11125,0.48814 1.11125,0.97896 0,0.34608 -0.270008,0.38487 -1.12448,0.16157 z m -30.844947,-0.78273 c 0.05127,-0.26621 0.311016,-0.52596 0.577222,-0.57723 0.349537,-0.0673 0.458113,0.0413 0.390798,0.3908 -0.05127,0.26621 -0.311016,0.52596 -0.577222,0.57723 -0.349537,0.0673 -0.458113,-0.0413 -0.390798,-0.3908 z m 28.58276,-0.93988 c -0.528037,-0.52804 -0.376449,-1.05059 0.277812,-0.95767 0.382577,0.0543 0.625526,0.29728 0.679861,0.67986 0.09292,0.65426 -0.429636,0.80585 -0.957673,0.27781 z m 4.884171,-0.0682 c -0.267779,-0.20291 -0.684498,-0.75758 -0.926041,-1.2326 -0.317958,-0.6253 -0.749531,-0.9654 -1.563651,-1.23221 -1.643634,-0.53869 -1.480579,-1.10248 0.312653,-1.08106 1.110559,0.0132 1.572824,-0.10925 2.034265,-0.53915 1.074171,-1.00074 3.529891,-0.5546 3.84438,0.69843 0.249229,0.99301 -0.126461,3.07457 -0.621155,3.44161 -0.59342,0.44028 -2.471052,0.40674 -3.080451,-0.055 z m -27.691254,-0.66328 c 0,-0.79305 0.506473,-1.25633 1.604671,-1.46782 0.705906,-0.13595 0.641157,0.26658 -0.215609,1.34035 -0.897347,1.12464 -1.389062,1.16976 -1.389062,0.12747 z m -5.74832,0.0961 c -1.375266,-0.69279 -1.529837,-2.90621 -0.284004,-4.06688 0.473977,-0.44158 0.932405,-0.53649 2.591228,-0.53649 1.734261,0 2.140428,-0.0923 2.911929,-0.66146 0.865719,-0.63871 2.212591,-0.88382 2.479897,-0.45131 0.157512,0.25486 -2.153388,2.1711 -2.618248,2.1711 -0.460658,0 -1.184566,1.17881 -1.184566,1.92895 0,1.4544 -2.312834,2.41373 -3.896236,1.61609 z m -10.92043,-0.12435 c 0,-0.54697 0.80963,-1.0835 2.255807,-1.4949 0.802788,-0.22838 1.531322,-0.34352 1.618965,-0.25588 0.330885,0.33089 -0.176107,0.9659 -0.88688,1.11083 -0.406414,0.0829 -1.076005,0.32454 -1.48798,0.53705 -0.884439,0.45622 -1.499912,0.49844 -1.499912,0.1029 z m 33.809913,-1.1363 c -0.249497,-0.18954 -0.69175,-0.90013 -0.982787,-1.57909 -0.291033,-0.67895 -0.652449,-1.23447 -0.80314,-1.23447 -0.150693,0 -0.273986,-0.29765 -0.273986,-0.66145 0,-0.59366 0.106873,-0.66146 1.042717,-0.66146 0.573495,0 1.116304,-0.11906 1.206241,-0.26459 0.08994,-0.14552 0.697688,-0.26458 1.350558,-0.26458 2.064014,0 3.102266,1.79733 2.192141,3.79484 -0.517906,1.13667 -2.708798,1.64792 -3.731744,0.8708 z m 21.289566,-0.30674 c -0.327422,-0.3497 -0.595313,-0.7505 -0.595313,-0.89066 0,-0.45667 -1.377026,-1.35147 -2.086202,-1.35562 -0.380558,-0.002 -0.869522,-0.11634 -1.086586,-0.25357 -0.743513,-0.47006 0.175779,-0.92554 1.883714,-0.93331 1.160238,-0.005 1.687658,-0.12462 1.913046,-0.43285 0.529553,-0.72421 2.28527,-0.85171 3.278632,-0.23809 0.472943,0.29215 0.859896,0.74724 0.859896,1.01131 0,0.26408 0.131914,0.61205 0.293143,0.77328 0.368128,0.36813 -0.175379,2.17241 -0.797828,2.64855 -0.231745,0.17727 -1.016669,0.31882 -1.744273,0.31455 -1.049264,-0.006 -1.446062,-0.13929 -1.918229,-0.64359 z m -24.496006,-0.0374 c -0.323969,-0.32397 -0.181309,-1.14653 0.198845,-1.14653 0.729617,0 1.212265,0.32729 1.212265,0.82206 0,0.34832 -0.188018,0.50086 -0.61736,0.50086 -0.339551,0 -0.696738,-0.0794 -0.79375,-0.17639 z m -12.347223,-0.38536 c 0,-0.59139 0.578318,-1.29034 1.067641,-1.29034 0.540703,0 0.665702,0.4189 0.297924,0.99839 -0.266338,0.41966 -1.365565,0.65466 -1.365565,0.29195 z m -27.3690238,-0.2071 c -0.081493,-0.13186 -0.3771577,-0.17987 -0.6570313,-0.10668 -0.3703328,0.0968 -0.6223594,-0.0864 -0.9257781,-0.67316 -1.035146,-2.00175 -0.090443,-4.0075 1.88752,-4.0075 0.7136469,0 1.2059962,0.16891 1.5273385,0.52399 0.2608133,0.2882 0.8745792,0.5991 1.3639237,0.6909 1.0559589,0.1981 1.1462599,0.72148 0.2282592,1.32298 -0.3638021,0.23837 -0.6614584,0.63708 -0.6614584,0.88602 0,1.03646 -2.2719183,2.15767 -2.7627736,1.36345 z m 14.9419218,-0.88474 c 0.01076,-0.42778 1.052013,-1.18078 1.941504,-1.40403 1.116542,-0.28023 0.928843,0.73197 -0.239004,1.28888 -1.109892,0.52927 -1.713939,0.57013 -1.7025,0.11515 z m -7.152065,-0.99219 c -0.897145,-0.89714 -0.790635,-3.04756 0.194729,-3.93155 0.573811,-0.51478 0.899058,-0.60136 1.854534,-0.49367 0.695544,0.0784 1.411113,0.36775 1.790207,0.72389 0.399552,0.37536 0.797965,0.52941 1.084651,0.4194 0.24922,-0.0956 1.445904,-0.23599 2.659295,-0.31191 2.054033,-0.12851 2.206167,-0.10265 2.206167,0.37495 0,0.40974 -0.25293,0.55004 -1.25677,0.69713 -0.691224,0.10129 -1.955774,0.37645 -2.810111,0.61148 -1.290749,0.35509 -1.597364,0.55362 -1.813767,1.17439 -0.325511,0.93376 -0.928905,1.26506 -2.304041,1.26506 -0.722949,0 -1.249264,-0.17354 -1.604894,-0.52917 z m 29.152263,-0.58578 c -1.227347,-0.94331 -1.420765,-1.53088 -0.503936,-1.53088 0.703283,0 2.307923,1.36931 2.307923,1.96946 0,0.63639 -0.592862,0.49225 -1.803987,-0.43858 z m 18.009716,-0.38319 c -0.181901,-0.0734 -0.330729,-0.30897 -0.330729,-0.52349 0,-0.60555 2.215113,-0.38169 2.332223,0.23569 0.06995,0.36878 -0.09114,0.45877 -0.79147,0.44214 -0.48361,-0.0115 -1.028123,-0.081 -1.210024,-0.15434 z m -5.093229,-1.27998 c 0,-0.29986 0.323379,-0.39688 1.322917,-0.39688 0.999537,0 1.322916,0.097 1.322916,0.39688 0,0.29986 -0.323379,0.39687 -1.322916,0.39687 -0.999538,0 -1.322917,-0.097 -1.322917,-0.39687 z m -2.499574,-0.1097 c -0.08226,-0.13309 1.3e-5,-0.313 0.182821,-0.39981 0.182809,-0.0868 0.06449,-0.10812 -0.262935,-0.0474 -0.327421,0.0608 -0.595312,-0.005 -0.595312,-0.14613 0,-0.47531 1.709465,-0.12239 1.80317,0.37227 0.06001,0.31676 -0.08064,0.46302 -0.445238,0.46302 -0.293124,0 -0.600253,-0.1089 -0.682506,-0.24199 z m -10.676676,-0.3401 c -0.510201,-0.5102 -0.36685,-1.00541 0.291042,-1.00541 0.673285,0 1.243541,0.44892 1.243541,0.97896 0,0.43224 -1.10967,0.45137 -1.534583,0.0265 z m -15.39875,-0.60854 c 0,-0.2456 0.248962,-0.39687 0.653154,-0.39687 0.47188,0 0.610887,0.11015 0.50086,0.39687 -0.08376,0.21828 -0.377682,0.39688 -0.653155,0.39688 -0.275472,0 -0.500859,-0.1786 -0.500859,-0.39688 z m 10.165374,-0.35438 c -1.027713,-0.64207 -1.543868,-1.86041 -1.362149,-3.21524 0.27614,-2.05877 2.379099,-2.9725 4.506441,-1.95804 2.000512,0.95398 2.065033,4.84371 0.08709,5.25013 -2.096167,0.43072 -2.431738,0.42274 -3.23138,-0.0768 z m 25.194217,-0.0439 c -0.415819,-0.12792 -0.976534,-0.43213 -1.246034,-0.67602 -0.269499,-0.2439 -1.030613,-0.50438 -1.691362,-0.57886 -0.912746,-0.10288 -1.201362,-0.2459 -1.201362,-0.59533 0,-0.34086 0.290394,-0.49887 1.121775,-0.61038 1.040694,-0.13959 1.836651,-0.7247 2.112791,-1.55312 0.105024,-0.31507 2.398408,-0.56017 3.141427,-0.33573 0.974452,0.29434 1.353505,2.41509 0.536869,3.00369 -0.295418,0.21292 -0.443204,0.55699 -0.366017,0.85215 0.07963,0.3045 -0.0097,0.49644 -0.232132,0.49866 -0.198874,0.002 -0.599713,0.054 -0.890754,0.11556 -0.291042,0.0616 -0.869382,0.007 -1.285201,-0.12062 z m 7.725842,-1.05689 c -0.529837,-0.50634 -1.10679,-0.79375 -1.593395,-0.79375 -0.443455,0 -0.828406,-0.17093 -0.919486,-0.40828 -0.203247,-0.52966 -0.03874,-0.67352 1.017072,-0.88945 0.484674,-0.0991 0.98987,-0.41722 1.139587,-0.71752 0.898088,-1.80139 2.809832,-2.11521 4.230573,-0.69447 0.51498,0.51498 0.665216,0.9362 0.665216,1.86507 0,1.28679 -0.578533,2.23355 -1.215485,1.98913 -0.204608,-0.0785 -0.372015,-0.011 -0.372015,0.15013 0,0.16543 -0.461624,0.29289 -1.060741,0.29289 -0.817639,0 -1.251096,-0.18191 -1.891326,-0.79375 z m -46.858449,-0.40758 c -1.026347,-0.95168 -1.026391,-2.65835 -9.3e-5,-3.68465 0.619096,-0.61909 0.886981,-0.70652 1.836753,-0.59947 0.968541,0.10917 1.062739,0.0761 0.730401,-0.25622 -0.20985,-0.20984 -0.381545,-0.55163 -0.381545,-0.75952 0,-0.44503 0.682422,-0.50757 0.942726,-0.0864 0.09911,0.16037 0.552625,0.46621 1.007803,0.67964 1.847337,0.86622 2.948401,1.60144 3.02958,2.02297 0.164317,0.85323 -1.576012,0.29298 -3.060836,-0.98535 -0.840067,-0.72324 -0.971928,-0.39971 -0.264773,0.64964 0.541403,0.80339 1.646392,1.54042 2.909563,1.94069 0.569751,0.18054 0.607671,0.84496 0.06022,1.05503 -0.221543,0.085 -0.9828,0.0207 -1.691681,-0.14293 -1.158182,-0.26734 -1.382087,-0.2399 -2.208112,0.27061 -1.20787,0.7465 -2.024199,0.71731 -2.910002,-0.10405 z m 28.062401,0.40413 c -0.538075,-0.0953 -1.145723,-0.31225 -1.350325,-0.48206 -0.230047,-0.19092 -0.866362,-0.25469 -1.66751,-0.16713 -3.694906,0.40388 -3.586752,0.40501 -3.497246,-0.0367 0.08493,-0.41919 1.776616,-1.15116 2.677898,-1.1587 0.853252,-0.007 2.025906,-0.79219 2.196073,-1.47018 0.380243,-1.51502 2.794688,-1.99611 3.920617,-0.78121 1.165529,1.25762 1.071584,3.58061 -0.161549,3.99454 -0.860081,0.2887 -1.018458,0.29629 -2.117958,0.10149 z m -18.931572,-0.17177 c -0.45946,-0.1854 -0.414438,-0.86759 0.06951,-1.0533 0.47023,-0.18045 1.187256,0.34138 1.187256,0.86405 0,0.35887 -0.609092,0.45059 -1.25677,0.18925 z M 3.2511592,222.76401 c -0.6625992,-0.7053 -0.996471,-2.17052 -0.7334132,-3.21862 0.1914318,-0.76273 1.5630675,-1.72344 2.4627675,-1.72496 0.3611031,-5.3e-4 1.0925998,0.52786 1.9086497,1.37891 0.7653657,0.7982 1.5781504,1.39663 1.9280446,1.41958 0.3326906,0.0218 0.9025483,0.10837 1.2663502,0.19235 0.363802,0.084 1.107943,0.22447 1.653646,0.31221 0.618711,0.0995 0.992187,0.3044 0.992187,0.5444 0,0.45743 -2.197634,0.5422 -3.2899533,0.1269 -1.0334244,-0.39291 -2.21703,-0.0496 -2.6007967,0.7544 -0.2833132,0.59353 -0.5242079,0.70553 -1.6609825,0.77221 -1.1192526,0.0656 -1.4240434,-0.0225 -1.9264993,-0.55738 z m 13.0942048,-0.35846 c -0.09701,-0.097 -0.176389,-0.33514 -0.176389,-0.52917 0,-0.25122 0.418923,-0.35278 1.455208,-0.35278 1.067456,0 1.455208,0.0982 1.455208,0.36857 0,0.20272 -0.188331,0.44084 -0.418514,0.52917 -0.560635,0.21513 -2.095051,0.20467 -2.315513,-0.0158 z m 16.051192,-1.49344 c -2.122427,-2.14341 -3.903258,-3.35726 -4.925407,-3.35726 -1.245021,0 -2.015089,-0.6891 -2.328385,-2.08358 -0.307854,-1.37026 0.07341,-2.15366 1.375949,-2.82723 0.962605,-0.49778 1.94656,-0.33038 2.813283,0.47863 0.474831,0.44322 0.595312,0.84395 0.595312,1.98011 0,1.32281 0.08022,1.50474 1.124479,2.55022 1.410076,1.41173 2.844271,3.22221 2.844271,3.59051 0,0.47601 -0.896096,0.27797 -1.499502,-0.3314 z m 9.172419,-0.0783 c 0,-0.21714 0.407138,-0.81401 0.904753,-1.32639 1.229003,-1.26547 1.74108,-2.44399 1.74108,-4.00702 0,-1.078 0.129582,-1.44258 0.723987,-2.03699 0.618575,-0.61857 0.878613,-0.70325 1.785938,-0.58158 1.901327,0.25496 2.977951,2.04927 2.223349,3.70543 -0.323114,0.70916 -0.829323,1.00159 -2.616607,1.51155 -0.82495,0.23538 -1.568884,0.73539 -2.422224,1.628 -1.26724,1.32557 -2.340276,1.83314 -2.340276,1.107 z m 2.695281,-0.30242 c 0.106291,-0.55768 1.260197,-0.78031 1.556819,-0.30037 0.317225,0.51328 0.03955,0.76339 -0.847532,0.76339 -0.616789,0 -0.777536,-0.10494 -0.709287,-0.46302 z m -27.146789,-0.34885 c -1.397655,-0.459 -1.612127,-0.47137 -2.005208,-0.11564 -0.268359,0.24286 -0.956197,0.39834 -1.762268,0.39834 -1.039887,0 -1.444911,-0.13072 -1.897396,-0.61236 -1.304632,-1.38872 -0.23026,-3.88556 1.671929,-3.88556 1.341902,0 2.206963,0.50294 2.564169,1.49077 0.33689,0.93166 0.910403,1.28887 3.324553,2.07067 0.812137,0.26301 1.389062,0.60585 1.389062,0.82545 0,0.52824 -1.371954,0.45655 -3.284841,-0.17167 z M 34.32069,218.7666 c -0.236177,-0.4977 -0.50275,-1.27161 -0.592386,-1.71979 -0.142078,-0.71039 -0.08915,-0.81487 0.412766,-0.81487 0.598644,0 1.194062,1.04381 1.51728,2.6599 0.131283,0.65641 0.07182,0.77968 -0.376156,0.77968 -0.345649,0 -0.682556,-0.31708 -0.961504,-0.90492 z m 13.243701,0.25827 c -0.149852,-0.39051 1.893374,-1.7346 2.636866,-1.7346 0.651002,0 0.365348,0.64547 -0.614738,1.38906 -1.059151,0.80359 -1.797915,0.92983 -2.022128,0.34554 z m 10.144167,-0.67627 c 0,-0.42837 0.17639,-0.52916 0.926042,-0.52916 0.749652,0 0.926041,0.10079 0.926041,0.52916 0,0.42838 -0.176389,0.52917 -0.926041,0.52917 -0.749652,0 -0.926042,-0.10079 -0.926042,-0.52917 z m -21.715931,-0.85989 c -0.644729,-2.36983 -1.121788,-3.2819 -2.346968,-4.48706 -1.653336,-1.62632 -1.905241,-2.68147 -0.878745,-3.68081 0.433322,-0.42185 1.170612,-0.78288 1.805988,-0.88433 0.926116,-0.14787 1.167439,-0.0777 1.755476,0.51032 0.899181,0.89918 0.997376,0.55358 0.63641,-2.23989 -0.267885,-2.07313 -0.366546,-2.32283 -1.261925,-3.19382 -1.186526,-1.15421 -1.476057,-2.36097 -0.897456,-3.74057 0.324774,-0.77438 0.629502,-1.04657 1.445366,-1.29101 2.27942,-0.68293 4.259868,0.50577 4.259868,2.55684 0,0.94801 -0.177046,1.34302 -1.058333,2.36127 -0.723315,0.83572 -1.045784,1.44803 -1.018691,1.93432 l 0.03964,0.71151 0.110223,-0.7276 c 0.07749,-0.51155 0.265726,-0.72761 0.633904,-0.72761 0.47779,0 0.516827,0.15626 0.445447,1.7832 -0.06365,1.45071 -0.164568,1.79967 -0.541255,1.87149 -0.34389,0.0656 -0.463021,-0.0869 -0.463021,-0.59258 0,-0.37447 -0.0893,-0.68086 -0.198437,-0.68085 -0.109141,0 -0.209312,1.0418 -0.222605,2.3151 -0.01328,1.27331 0.0241,1.86135 0.08308,1.30677 0.08217,-0.77261 0.211524,-0.98824 0.553331,-0.92241 0.267449,0.0515 0.43852,0.32285 0.427188,0.67759 -0.0104,0.32543 -0.04016,1.36854 -0.06615,2.31803 -0.04318,1.57785 -0.104142,1.74797 -0.708705,1.97783 -0.363802,0.13831 -0.661458,0.37349 -0.661458,0.52262 0,0.14912 -0.178594,0.27113 -0.396875,0.27113 -0.218281,0 -0.39525,-0.20836 -0.393263,-0.46302 0.0069,-0.88883 0.325464,-1.65365 0.688705,-1.65365 0.243943,0 0.353999,-0.28679 0.329985,-0.85989 -0.02606,-0.62184 -0.06777,-0.69509 -0.150693,-0.26459 -0.06307,0.32742 -0.284975,0.59531 -0.493136,0.59531 -0.212963,0 -0.383106,-0.26033 -0.389067,-0.59531 -0.0097,-0.54353 -0.04738,-0.52733 -0.433554,0.18617 -0.367562,0.67913 -0.379129,0.99103 -0.08832,2.38125 0.593445,2.83697 0.638884,3.84873 0.172858,3.84873 -0.261385,0 -0.525156,-0.41263 -0.71882,-1.12448 z m 32.746659,0.93346 c -0.408776,-0.0615 -0.808469,-0.28174 -0.888204,-0.48952 -0.09517,-0.248 -0.544287,-0.3778 -1.30729,-0.3778 -1.455097,0 -1.550482,-0.53538 -0.24705,-1.38663 0.503399,-0.32875 0.949884,-0.83587 0.992188,-1.12691 0.04238,-0.29157 0.509638,-0.76086 1.040672,-1.04519 0.943322,-0.50509 0.986793,-0.50564 2.050521,-0.026 0.597723,0.26954 1.101513,0.62081 1.119534,0.78061 0.161235,1.42973 0.169281,2.73553 0.01818,2.95075 -0.205883,0.29324 -1.562838,0.9331 -1.849334,0.87203 -0.102293,-0.0218 -0.520444,-0.0899 -0.92922,-0.15137 z m -6.466666,-0.26029 c -0.804299,-0.15492 -0.75498,-0.77417 0.07831,-0.98331 0.829715,-0.20825 1.178457,-0.014 1.178457,0.65648 0,0.51162 -0.126534,0.54452 -1.256771,0.32683 z m -22.688862,-1.99609 c 0.09542,-0.47294 0.358267,-1.36351 0.584102,-1.97905 0.374444,-1.02059 0.372669,-1.17707 -0.02019,-1.77663 -0.576025,-0.87913 -0.562004,-2.89804 0.0249,-3.58348 0.327602,-0.38261 0.780902,-0.53219 1.612802,-0.53219 1.599631,0 2.595213,0.74879 2.828065,2.12702 0.225862,1.33687 -0.275008,2.18314 -1.499735,2.53394 -0.75474,0.21618 -1.015399,0.53072 -1.791306,2.16164 -0.655992,1.37886 -1.047395,1.90865 -1.410086,1.90865 -0.425609,0 -0.475631,-0.13092 -0.328549,-0.8599 z M 5.2010617,215.72267 c -0.099633,-0.16122 -0.276729,-0.23404 -0.3935463,-0.16185 -0.116817,0.0722 -0.4250655,-0.4256 -0.6849967,-1.10622 -0.3364624,-0.88102 -0.3843379,-1.26691 -0.1661978,-1.33963 0.1685222,-0.0562 0.306404,-0.31188 0.306404,-0.56824 0,-0.77315 0.8778925,-1.34188 2.0713543,-1.34188 0.607005,0 1.1036456,0.11104 1.1036456,0.24676 0,0.13571 0.2298502,0.3197 0.5107784,0.40887 0.280928,0.0892 0.5827641,0.48986 0.6707468,0.89044 0.087982,0.40059 0.4534448,1.04484 0.8121383,1.43167 0.9932667,1.07119 0.8588527,1.49604 -0.4723093,1.49283 -0.6184635,-0.002 -1.6762661,0.0745 -2.3506726,0.16882 -0.7880567,0.11025 -1.2909212,0.0668 -1.4073447,-0.12157 z m 14.3782723,-0.62803 c -1.25897,-0.85371 -1.833421,-1.06058 -2.774679,-0.99921 -1.250961,0.0816 -2.947511,-0.91386 -3.15313,-1.85004 -0.41527,-1.89071 0.572356,-3.1572 2.46202,-3.1572 1.286001,0 2.046935,0.76583 2.299602,2.31441 0.151942,0.93125 0.428719,1.33341 1.615426,2.34725 0.787638,0.6729 1.432068,1.38758 1.432068,1.58819 0,0.5514 -0.876429,0.43801 -1.881307,-0.2434 z m 13.167107,0.12428 c -0.557776,-0.61634 -0.585462,-1.8974 -0.04101,-1.8974 0.218281,0 0.396875,0.16402 0.396875,0.36448 0,0.20046 0.178594,0.5127 0.396875,0.69385 0.493363,0.40946 0.521676,1.32292 0.04101,1.32292 -0.195728,0 -0.552916,-0.21773 -0.79375,-0.48385 z m 21.25795,-0.0262 c 0,-0.33973 0.348893,-0.66396 1.044864,-0.97102 0.712562,-0.31438 1.141785,-0.72017 1.349618,-1.27591 0.595797,-1.59317 0.909331,-2.06762 1.519732,-2.29969 2.12766,-0.80894 4.159142,0.91856 3.455123,2.93811 -0.412734,1.18397 -1.412238,1.59161 -3.708511,1.5125 -1.292215,-0.0445 -2.057903,0.0456 -2.290662,0.26958 -0.543227,0.52275 -1.370164,0.418 -1.370164,-0.17357 z m -31.220833,-1.71063 c 0,-0.20271 -0.178594,-0.4371 -0.396875,-0.52086 -0.490016,-0.18804 -0.52907,-1.22724 -0.04612,-1.22724 0.486352,0 1.501328,1.12948 1.501328,1.6707 0,0.26958 -0.209295,0.44597 -0.529166,0.44597 -0.291042,0 -0.529167,-0.16586 -0.529167,-0.36857 z m 28.575,-1.3051 c 0,-0.19292 0.267891,-0.59956 0.595312,-0.90366 1.026311,-0.9532 4.712666,-3.50809 5.061681,-3.50809 0.183247,0 0.86062,-0.44648 1.505278,-0.99219 2.174944,-1.84109 2.362729,-2.09407 2.362729,-3.18299 0,-1.56385 0.895871,-2.28318 2.635358,-2.11604 1.669725,0.16044 2.391725,0.88165 2.391725,2.38909 0,1.47701 -1.184955,2.57921 -2.772841,2.57921 -1.099674,0 -3.279018,0.61337 -3.566358,1.00373 -0.0787,0.10692 -1.333717,0.98601 -2.788926,1.95354 -1.455208,0.96752 -3.003021,2.06701 -3.439583,2.44332 -0.84328,0.72688 -1.984375,0.91899 -1.984375,0.33408 z m -2.38125,-0.44659 c 0,-0.28589 0.55666,-1.36326 0.818375,-1.58391 0.0863,-0.0728 0.460758,-0.74227 0.832122,-1.4878 0.580406,-1.16519 0.655908,-1.59592 0.537753,-3.06786 -0.123921,-1.54379 -0.07721,-1.76849 0.47454,-2.28252 0.889762,-0.82894 3.107497,-0.80741 3.901602,0.0379 0.643776,0.68527 0.981792,1.9817 0.753668,2.89063 -0.165843,0.66077 -1.415986,1.52842 -2.202212,1.52842 -0.75053,0 -3.060919,2.34244 -3.531703,3.5807 -0.173347,0.45594 -0.449458,0.65263 -0.916138,0.65263 -0.367403,0 -0.668007,-0.12067 -0.668007,-0.26817 z m 15.411979,0.0578 c -1.101275,-0.0649 -1.389062,-0.17549 -1.389062,-0.5336 0,-0.24843 0.244493,-0.60438 0.543319,-0.791 0.298826,-0.18662 0.780476,-0.89987 1.070332,-1.585 0.289859,-0.68513 0.722966,-1.39452 0.962459,-1.57642 0.772361,-0.58662 2.060572,-0.39598 2.952157,0.43688 0.679003,0.63429 0.821733,0.97029 0.821733,1.93449 0,0.78735 -0.166212,1.34528 -0.511033,1.7154 -0.526936,0.5656 -0.96381,0.6048 -4.449905,0.39925 z m -41.212189,-1.78829 c -1.227103,-1.36074 -2.77479,-2.00658 -2.77479,-1.15791 0,0.87739 -1.012791,0.61814 -1.622557,-0.41534 -0.300508,-0.50932 -0.705188,-0.92604 -0.899289,-0.92604 -0.194101,0 -0.425004,-0.22715 -0.513118,-0.50477 -0.234886,-0.74006 -2.424338,-2.67023 -3.028926,-2.67023 -0.285705,0 -0.583544,-0.10369 -0.661864,-0.23041 -0.07832,-0.12673 -0.4723,-0.299 -0.875511,-0.38283 -0.80352,-0.16705 -1.659152,-1.41082 -1.659152,-2.41179 0,-1.00997 1.110602,-2.36618 2.24338,-2.7395 2.178947,-0.7181 3.31287,0.32011 3.31287,3.03324 0,1.3186 0.149596,1.80649 0.992188,3.23597 0.929549,1.577 0.996953,1.63508 1.067665,0.92002 0.160727,-1.6253 1.153661,-2.48304 2.874421,-2.48304 0.342087,0 0.621976,-0.0583 0.621976,-0.12958 0,-0.0713 -0.535,-0.96424 -1.18889,-1.98438 -1.023754,-1.59716 -1.295496,-1.85479 -1.956394,-1.85479 -0.48176,0 -1.073436,-0.28578 -1.589235,-0.76761 -0.685389,-0.64025 -0.821731,-0.96651 -0.821731,-1.96636 0,-1.04083 0.109016,-1.27637 0.827554,-1.78801 0.465184,-0.33124 1.375285,-0.6419 2.078422,-0.70947 1.061735,-0.10202 1.339493,-0.0256 1.837007,0.50511 0.504572,0.53829 0.566275,0.82781 0.443395,2.08051 -0.07851,0.80037 -0.147727,1.724 -0.153817,2.05252 -0.01192,0.64306 1.394884,3.62143 1.840685,3.89695 0.148778,0.0919 0.270504,0.34506 0.270504,0.56247 0,0.21742 0.297657,0.83334 0.661459,1.36873 0.363802,0.53538 0.661458,1.24344 0.661458,1.57346 0,0.78584 -0.740581,0.78923 -1.03176,0.005 -0.194287,-0.52345 -0.24343,-0.46278 -0.407121,0.50263 -0.143204,0.84457 -0.0522,1.40934 0.394357,2.4474 0.319287,0.74219 0.684922,1.34944 0.812523,1.34944 0.1276,0 0.232001,0.1786 0.232001,0.39688 0,0.74626 -0.925289,0.37013 -1.98771,-0.808 z m 2.790769,-0.36523 c -0.388623,-0.72615 -0.339144,-1.34031 0.10798,-1.34031 0.422191,0 1.205628,0.98387 1.205628,1.51408 0,0.5292 -1.008806,0.39575 -1.313608,-0.17377 z m 4.743648,-0.84006 c -0.491774,-1.49009 -1.623015,-2.83928 -2.917714,-3.47984 -1.168679,-0.57822 -1.57066,-1.28263 -1.57066,-2.75232 0,-0.70475 0.202325,-1.12395 0.821731,-1.70256 0.693676,-0.648 1.041153,-0.76762 2.229757,-0.76762 1.20597,0 1.486712,0.10004 1.956392,0.69714 0.665814,0.84645 0.721895,2.43317 0.12668,3.58419 -0.473146,0.91496 -0.329642,2.72366 0.315008,3.97028 0.507521,0.98144 0.465706,1.53798 -0.115552,1.53798 -0.33551,0 -0.598344,-0.33793 -0.845642,-1.08725 z m -23.3926169,-0.0622 c -1.4614594,-1.91607 -0.2489811,-4.12424 2.2712095,-4.13632 1.0150064,-0.005 1.2999784,0.1065 1.6536454,0.64626 0.235018,0.35868 0.427305,1.18509 0.427305,1.83647 0,0.65137 0.119063,1.2579 0.264583,1.34784 0.427108,0.26397 0.303734,0.87866 -0.198437,0.98868 -0.254661,0.0558 -0.82014,0.005 -1.256618,-0.11334 -0.4890798,-0.13238 -0.8274983,-0.11309 -0.8819448,0.0502 -0.048591,0.14578 -0.4295534,0.26504 -0.8465833,0.26504 -0.5489088,0 -0.9445638,-0.24428 -1.4331598,-0.88487 z m 36.8959099,-1.31117 c 0,-0.3347 0.132554,-0.74109 0.294561,-0.9031 0.171148,-0.17115 0.233484,-0.71988 0.148785,-1.30969 -0.519215,-3.61558 -0.518935,-3.63113 0.079,-4.38856 0.474107,-0.60057 0.781953,-0.72761 1.763207,-0.72761 1.186585,0 2.171378,0.34889 2.53904,0.89951 0.119981,0.17969 0.195937,0.11416 0.198438,-0.1712 0.0021,-0.25427 0.365352,-1.22701 0.806942,-2.16163 0.740386,-1.56704 0.779764,-1.79117 0.505817,-2.87911 -0.361932,-1.43736 0.115787,-2.59661 1.328465,-3.22371 0.978149,-0.50582 1.68193,-0.50741 2.651572,-0.006 1.082114,0.55958 1.590421,1.40568 1.590421,2.64734 0,1.50667 -0.537226,2.15041 -1.974466,2.36594 -1.324938,0.19868 -1.574988,0.39637 -3.082457,2.43695 -0.574852,0.77815 -1.173742,1.41482 -1.33087,1.41482 -0.17884,0 -0.225661,0.32159 -0.125193,0.8599 0.214818,1.15098 -0.588335,2.44712 -1.885725,3.04322 -1.14001,0.52379 -2.066835,1.39437 -2.314207,2.17377 -0.243435,0.76699 -1.193332,0.7106 -1.193332,-0.0709 z m -10.955195,-1.16473 c -0.08387,-0.26424 -0.265684,-1.8486 -0.404034,-3.52077 -0.671923,-8.12132 -0.548765,-7.43214 -1.486506,-8.31819 -1.100307,-1.03965 -1.441765,-1.73408 -1.441765,-2.93215 0,-2.40006 1.954538,-3.60603 4.40704,-2.7192 1.077624,0.38968 1.678377,1.55522 1.678377,3.25627 0,1.02631 -0.131861,1.3661 -0.756613,1.94971 -0.41614,0.38873 -0.849157,0.99836 -0.962266,1.35472 -0.177385,0.5589 -0.218747,8.16717 -0.05679,10.44666 0.06424,0.90409 -0.720685,1.29191 -0.97744,0.48295 z m 22.596862,-4.16424 c 0,-0.35521 0.125206,-0.72322 0.278233,-0.8178 0.178392,-0.11025 0.216445,-0.8042 0.106047,-1.93384 -0.154014,-1.57592 -0.109108,-1.84177 0.425445,-2.51875 0.54623,-0.69177 0.714121,-0.74721 1.951977,-0.64456 1.994104,0.16537 2.794548,0.94762 2.794548,2.73105 0,1.62101 -0.479566,2.1933 -2.017705,2.40783 -1.408417,0.19644 -2.414646,0.60484 -2.585188,1.04927 -0.244271,0.63656 -0.953357,0.43337 -0.953357,-0.2732 z m -14.2875,-0.97559 c 0,-0.56757 1.400177,-3.23893 2.037643,-3.88757 0.188984,-0.19229 0.343607,-0.53111 0.343607,-0.75292 0,-0.22182 0.200244,-0.74229 0.444989,-1.15661 0.419092,-0.70947 0.416777,-0.8363 -0.03977,-2.17945 -0.560247,-1.64822 -0.422894,-2.57922 0.519557,-3.52167 1.266378,-1.26638 4.663321,-0.4133 4.996958,1.25489 0.471289,2.35644 -0.07639,3.36318 -2.125353,3.90679 -0.951706,0.2525 -1.192938,0.47652 -1.806154,1.6773 -0.389258,0.76224 -0.911011,1.56448 -1.159452,1.78276 -0.248439,0.21828 -0.610973,0.78383 -0.805633,1.25677 -0.194656,0.47294 -0.439428,0.8599 -0.543938,0.8599 -0.104508,0 -0.325633,0.29765 -0.491395,0.66146 -0.382735,0.84001 -1.371057,0.91091 -1.371057,0.0983 z m -14.291065,-2.4134 c -0.288725,-0.47294 -0.650252,-1.23732 -0.803395,-1.69863 -0.18449,-0.55572 -0.534573,-0.92801 -1.037528,-1.10335 -1.649225,-0.57492 -2.26173,-2.08802 -1.697268,-4.19283 0.184568,-0.68824 1.334024,-1.1445 2.853634,-1.13271 1.547248,0.012 2.061637,0.50353 2.216797,2.11829 0.105402,1.09695 0.02352,1.49522 -0.434827,2.11518 -0.657267,0.889 -0.733219,2.44195 -0.167807,3.43103 0.841076,1.47131 -0.04472,1.9125 -0.929606,0.46302 z m 11.622099,-1.05833 c -0.01273,-0.1819 -0.0592,-1.20356 -0.103278,-2.27034 -0.07053,-1.70694 -0.169029,-2.03239 -0.821129,-2.71304 -0.622416,-0.64966 -0.737727,-0.98975 -0.720595,-2.1253 0.02809,-1.86197 0.846241,-2.70295 2.629588,-2.70295 0.723373,0 1.30184,0.13119 1.361001,0.30868 0.05659,0.16977 0.250811,0.30868 0.431599,0.30868 0.695724,0 1.47928,1.20613 1.47928,2.27707 0,0.89373 -0.17498,1.22406 -1.160963,2.19173 -0.820166,0.80493 -1.207534,1.43064 -1.319612,2.13154 -0.23491,1.46905 -0.911505,2.92466 -1.359434,2.92466 -0.216329,0 -0.403736,-0.14883 -0.416457,-0.33073 z"
         id="path6130"
         inkscape:connector-curvature="0" />
      <path
         style="fill:#80ffe6;stroke-width:0.26458335"
         d="m 32.806276,259.35725 c -0.235579,-0.13765 -0.574545,-0.60328 -0.753258,-1.03473 -0.399817,-0.96524 0.02781,-2.52717 0.805897,-2.94359 0.279387,-0.14952 0.507976,-0.43776 0.507976,-0.64053 0,-0.20276 0.169757,-0.53842 0.377238,-0.7459 0.207481,-0.20748 0.426551,-0.78153 0.486823,-1.27567 0.06446,-0.52852 0.139922,-0.13587 0.183261,0.95365 0.04052,1.01865 0.06546,1.92375 0.05541,2.01133 -0.01005,0.0876 0.26297,0.10549 0.606706,0.0398 0.889984,-0.17013 1.35492,0.92087 1.229018,2.88394 -0.05051,0.7876 -2.52708,1.31965 -3.499067,0.75172 z m 2.123424,-0.83488 c 0.160415,-0.46016 0.237263,-0.89106 0.170776,-0.95754 -0.197385,-0.19738 -0.939835,0.66511 -0.939835,1.09179 0,0.21655 -0.148828,0.45378 -0.330729,0.52717 -0.181901,0.0734 -0.07449,0.14286 0.238699,0.15434 0.410179,0.0151 0.651,-0.21309 0.861089,-0.81576 z m -1.999546,-0.0979 c -0.209875,-0.54693 -0.357013,-0.48248 -0.357013,0.15638 0,0.29963 0.113864,0.47441 0.253029,0.3884 0.139166,-0.086 0.185957,-0.33116 0.103984,-0.54478 z m 6.82638,0.69198 c -0.0218,-0.20616 -0.117986,-0.29649 -0.213736,-0.20073 -0.417698,0.41769 -0.88424,-0.49539 -0.88424,-1.73057 0,-1.09278 0.08952,-1.3387 0.529167,-1.45367 0.291041,-0.0761 0.529166,-0.28921 0.529166,-0.47355 0,-0.48114 1.330053,-0.68614 1.504371,-0.23187 0.07686,0.20029 0.29102,0.36417 0.475914,0.36417 0.957778,0 1.374486,2.50386 0.553368,3.32498 -0.598554,0.59856 -1.210736,0.46677 -1.210736,-0.26063 0,-0.85345 -0.266909,-1.50664 -0.545335,-1.33456 -0.123918,0.0766 -0.158234,0.31402 -0.07626,0.52765 0.08198,0.21361 0.02516,0.3884 -0.126273,0.3884 -0.151423,0 -0.324916,0.32742 -0.38554,0.7276 -0.06062,0.40018 -0.128061,0.55893 -0.149865,0.35278 z m 1.018691,-2.66788 c -0.518152,-0.33486 -0.86841,-0.33486 -0.661459,0 0.08994,0.14552 0.364855,0.26276 0.610929,0.26053 0.385569,-0.003 0.392554,-0.0395 0.05053,-0.26053 z m 5.756814,1.39203 c -1.300757,-0.64643 -1.541105,-1.86578 -0.560964,-2.84592 0.44563,-0.44563 0.870522,-3.49159 0.450877,-3.23224 -0.142188,0.0879 -0.38026,-0.44494 -0.533874,-1.19484 -0.240416,-1.17363 -0.228661,-1.28699 0.08848,-0.85327 0.201154,0.2751 0.494003,0.98011 0.650777,1.56668 0.156771,0.58659 0.409427,1.21822 0.561456,1.40364 0.15203,0.18542 0.199922,0.41362 0.106423,0.50711 -0.0935,0.0935 -0.169994,0.0112 -0.169994,-0.18278 0,-0.19402 -0.08418,-0.2686 -0.187055,-0.16572 -0.246304,0.2463 1.180359,1.46224 1.939078,1.65266 0.386651,0.097 0.541697,0.28538 0.444164,0.53955 -0.08241,0.21475 0.0019,0.67371 0.187036,1.01991 0.307671,0.57489 0.260528,0.69374 -0.543856,1.37121 -1.008168,0.8491 -1.417042,0.91869 -2.432553,0.41401 z m 0.06402,-0.59828 c 0,-0.14553 -0.12609,-0.26459 -0.280199,-0.26459 -0.154109,0 -0.206613,0.11906 -0.116676,0.26459 0.08994,0.14552 0.216027,0.26458 0.280199,0.26458 0.06417,0 0.116676,-0.11906 0.116676,-0.26458 z m -19.952837,0.30213 c -0.07783,-0.12594 -0.169988,-0.60263 -0.204785,-1.05931 -0.06686,-0.87747 -0.622602,-1.11093 -1.220711,-0.51282 -0.246945,0.24694 -0.3175,0.16167 -0.3175,-0.38373 0,-0.38871 0.206355,-0.82142 0.463021,-0.97091 0.256965,-0.14967 0.315838,-0.27327 0.132291,-0.27774 -0.181901,-0.004 -0.330729,-0.12337 -0.330729,-0.26432 0,-0.14095 0.178594,-0.18775 0.396875,-0.10399 0.218281,0.0838 0.396875,0.0168 0.396875,-0.1489 0,-0.16565 0.208359,-0.37601 0.463021,-0.46747 0.254661,-0.0915 0.825029,-0.55169 1.267484,-1.02276 l 0.804463,-0.8565 -0.01072,1.63998 c -0.0096,1.47157 0.04363,1.63859 0.518454,1.62639 0.413067,-0.0106 0.548164,0.1859 0.615757,0.89567 0.08004,0.84043 0.05116,0.88048 -0.381516,0.52916 -0.257461,-0.20905 -0.386408,-0.24374 -0.286549,-0.0771 0.09986,0.16665 -0.0039,0.37417 -0.230566,0.46115 -0.226669,0.087 -0.343104,0.26983 -0.258747,0.40632 0.181012,0.29288 -0.004,0.41691 -0.963518,0.646 -0.391264,0.0934 -0.775072,0.0668 -0.852906,-0.0591 z m -0.684663,-2.46916 c 0,-0.34776 -0.60134,-0.13 -0.733176,0.26551 -0.06445,0.19335 0.05651,0.25248 0.314193,0.1536 0.23044,-0.0884 0.418983,-0.27703 0.418983,-0.41911 z m 29.782635,-0.29178 c 0.09936,-0.26094 0.247303,-0.40778 0.328766,-0.32632 0.08146,0.0815 1.69e-4,0.29495 -0.180652,0.47443 -0.261308,0.25936 -0.291698,0.22897 -0.148114,-0.14811 z m -2.726433,-0.51776 c -0.546973,-1.14132 -0.595106,-1.52135 -0.192691,-1.52135 0.63505,0 0.497361,-1.907 -0.201869,-2.79593 -0.615043,-0.7819 -0.362321,-0.70108 0.998619,0.31936 0.524902,0.39357 1.008772,0.55035 1.39047,0.45054 0.72739,-0.19022 1.582457,0.40926 1.058146,0.74185 -0.241604,0.15326 -0.175345,0.21894 0.223753,0.22179 0.311853,0.002 0.623538,0.15288 0.692634,0.33478 0.179202,0.47178 -0.08728,2.05053 -0.346107,2.05053 -0.119367,0 -0.158705,-0.32743 -0.08742,-0.72761 0.126285,-0.7089 0.11848,-0.714 -0.303702,-0.19844 -0.358918,0.43831 -0.408321,0.44967 -0.287732,0.0661 0.09138,-0.29061 7.94e-4,-0.47534 -0.242983,-0.49609 -1.327271,-0.11297 -1.312852,-0.12356 -1.395973,1.02526 -0.06292,0.86964 -0.187701,1.12448 -0.550603,1.12448 -0.258085,0 -0.597631,-0.26789 -0.754544,-0.59532 z m -32.417254,0.14773 c -0.256443,-0.0669 -0.385739,-0.25191 -0.287325,-0.41115 0.113483,-0.18362 0.02282,-0.22961 -0.24787,-0.12574 -0.29145,0.11184 -0.382708,0.0489 -0.287758,-0.19857 0.08881,-0.23145 -0.08332,-0.39385 -0.476495,-0.44955 -0.544951,-0.0772 -0.609664,-0.21749 -0.56429,-1.22335 0.03709,-0.82215 0.219896,-1.27674 0.661459,-1.64484 0.735174,-0.61287 1.661224,-0.70444 1.445766,-0.14297 -0.0809,0.21083 0.501672,-0.27065 1.29461,-1.06995 0.792938,-0.7993 1.441705,-1.56119 1.441705,-1.69309 0,-0.13191 0.176072,-0.33836 0.391272,-0.45879 0.215199,-0.12044 0.639344,-0.6919 0.942545,-1.26992 0.3032,-0.57803 0.483807,-0.83153 0.40135,-0.56335 -0.08246,0.26818 -0.219692,0.76558 -0.304965,1.10533 -0.08527,0.33976 -0.32289,0.68215 -0.528038,0.76087 -0.205148,0.0787 -0.372997,0.31554 -0.372997,0.52626 0,0.21072 -0.09437,0.42282 -0.209708,0.47133 -0.864231,0.36346 -1.852829,3.66007 -1.097594,3.66007 0.154109,0 0.206614,0.11906 0.116677,0.26458 -0.08994,0.14552 -0.01362,0.26458 0.169593,0.26458 0.259089,0 0.262559,0.0706 0.01562,0.3175 -0.174625,0.17463 -0.3175,0.52331 -0.3175,0.77485 0,0.96853 -0.922869,1.43539 -2.186052,1.1059 z m 19.648552,-0.0564 c 0,-0.18017 -0.187391,-0.51497 -0.416425,-0.74401 -0.26081,-0.26081 -0.315465,-0.47882 -0.146259,-0.58339 0.171413,-0.10594 0.180041,-0.30949 0.0236,-0.55687 -0.311425,-0.49245 -0.327845,-1.31593 -0.02625,-1.31593 0.284171,0 0.968288,3.12481 0.735155,3.35794 -0.09341,0.0934 -0.169836,0.0224 -0.169836,-0.15774 z m -6.081366,-3.66322 c 0.0026,-0.63245 0.08402,-0.86608 0.224623,-0.64435 0.204248,0.32209 0.102061,1.63654 -0.127227,1.63654 -0.05579,0 -0.09962,-0.44649 -0.0974,-0.99219 z M 14.1846,250.32153 c -0.145521,-0.13447 -0.464298,-0.38847 -0.708392,-0.56444 -0.807269,-0.58196 -0.721043,-2.23395 0.166592,-3.19173 0.883031,-0.9528 1.467841,-0.91549 1.467841,0.0937 0,0.52917 0.132292,0.79375 0.396875,0.79375 0.264584,0 0.396875,-0.26458 0.396875,-0.79375 0,-0.55923 0.128183,-0.79375 0.433853,-0.79375 0.238619,0 0.587791,-0.20836 0.775938,-0.46302 0.291718,-0.39485 0.393404,-0.40861 0.690627,-0.0935 0.202195,0.21439 0.217672,0.29609 0.03686,0.1946 -0.43483,-0.24407 -0.6535,0.60663 -0.57849,2.25053 0.04053,0.88824 -0.05013,1.42342 -0.252555,1.49089 -0.173679,0.0579 -0.243585,0.22208 -0.155346,0.36485 0.419065,0.67806 -2.007379,1.32485 -2.670679,0.71189 z m 1.305782,-2.04728 c 0.08051,-0.13028 -0.01168,-0.29752 -0.204871,-0.37165 -0.193192,-0.0741 -0.351259,0.0324 -0.351259,0.23686 0,0.4166 0.332197,0.49712 0.55613,0.13479 z m 45.459322,1.41211 c -0.395857,-0.4299 -0.437806,-1.17525 -0.06615,-1.17525 0.145521,0 0.264583,-0.47625 0.264583,-1.05834 0,-0.90908 -0.08085,-1.05833 -0.573265,-1.05833 -0.315293,0 -0.499432,-0.0738 -0.409196,-0.16407 0.09024,-0.0902 0.46727,-0.088 0.837848,0.005 0.452855,0.11366 0.67378,0.35025 0.67378,0.72154 0,0.38235 0.12219,0.50555 0.396875,0.40014 0.302543,-0.1161 0.395912,0.0501 0.392824,0.6993 -0.0043,0.89617 -0.140872,1.18764 -0.789699,1.68495 -0.303861,0.2329 -0.474387,0.22002 -0.727604,-0.055 z m -22.557359,-0.56211 c -7.94e-4,-0.26447 -0.158679,-0.78177 -0.350623,-1.14955 -0.365292,-0.69993 -0.288222,-2.53857 0.116903,-2.78895 0.129442,-0.08 0.237173,-1.18023 0.2394,-2.44495 0.0028,-1.58237 0.08404,-2.17572 0.260533,-1.90261 0.141065,0.21828 0.258305,0.76262 0.260533,1.20964 0.0088,1.75557 1.464278,4.62002 2.136489,4.20457 0.136848,-0.0846 0.248811,0.0844 0.248811,0.37539 0,0.29105 -0.121004,0.60395 -0.268898,0.69536 -0.147894,0.0914 -0.205698,0.26845 -0.12845,0.39344 0.07725,0.12499 -0.0994,0.30338 -0.39256,0.39642 -0.735211,0.23335 -0.676553,0.73758 0.0623,0.53558 0.572371,-0.15648 0.574921,-0.14991 0.06615,0.17035 -0.291042,0.18321 -0.663273,0.35479 -0.82718,0.3813 -0.163909,0.0265 -0.550863,0.12844 -0.859896,0.22652 -0.431834,0.13706 -0.562261,0.067 -0.563512,-0.30251 z m 20.669821,0 c -0.01688,-0.31762 -0.243477,-0.64502 -0.503549,-0.72756 -0.935787,-0.29701 -0.516793,-2.26683 0.482166,-2.26683 0.348985,0 0.519858,0.17965 0.519858,0.54656 0,0.3006 0.119849,0.7705 0.266333,1.0442 0.196175,0.36656 0.169095,0.55364 -0.102799,0.71021 -0.203023,0.11691 -0.428122,0.45069 -0.500224,0.74173 -0.121952,0.49227 -0.133234,0.4889 -0.161785,-0.0483 z m 0.354883,-0.85945 c 0.08373,-0.13546 0.05106,-0.30882 -0.07258,-0.38523 -0.123642,-0.0764 -0.224803,0.0344 -0.224803,0.2463 0,0.44613 0.08343,0.48511 0.297381,0.13893 z m -22.161598,-0.12229 c -0.108267,-0.27549 -0.134514,-0.56323 -0.05833,-0.63941 0.241316,-0.24132 0.453644,0.15413 0.352529,0.65657 -0.09267,0.46046 -0.106821,0.45963 -0.294199,-0.0172 z m -7.63448,-0.81627 c -0.195316,-0.23155 -0.533715,-0.61856 -0.751996,-0.86003 -0.356458,-0.39432 -0.349721,-0.42118 0.06615,-0.26371 0.507431,0.19215 0.582493,-0.003 0.220644,-0.57494 -0.232664,-0.36746 -0.03384,-0.75254 0.737597,-1.4286 0.199612,-0.17494 0.692206,-0.64371 1.094653,-1.04172 0.66086,-0.65357 0.744074,-0.67643 0.859245,-0.23602 0.176583,0.67526 -0.238332,1.3213 -0.794848,1.23763 -0.255006,-0.0383 -0.314817,-0.0186 -0.132916,0.044 0.181901,0.0625 0.330729,0.46217 0.330729,0.88806 v 0.77435 l 0.529166,-0.52916 c 0.65268,-0.65268 1.129163,-0.68415 1.001451,-0.0661 -0.05263,0.25466 -0.272902,0.45091 -0.489503,0.43612 -0.216601,-0.0148 -0.541814,0.13152 -0.722696,0.32516 -0.270521,0.28959 -0.187103,0.32371 0.470101,0.19226 0.608208,-0.12163 0.798981,-0.0639 0.798981,0.24185 0,0.2209 -0.184777,0.47255 -0.410618,0.55921 -0.225837,0.0867 -0.350139,0.0597 -0.276222,-0.0599 0.07392,-0.1196 -0.03962,-0.21745 -0.252312,-0.21745 -0.212691,0 -0.35628,0.18851 -0.31909,0.41892 0.09575,0.59322 -1.484223,0.72238 -1.958512,0.1601 z m 15.294001,-1.13071 c -0.122684,-0.90977 -0.330411,-1.72047 -0.461616,-1.80156 -0.131201,-0.0811 -0.233285,-0.34876 -0.226853,-0.59483 0.0065,-0.24781 0.248756,0.002 0.54306,0.55954 0.367564,0.69654 0.506259,1.38982 0.449921,2.24896 l -0.08145,1.24201 z m -7.750855,0.79155 c 0.09615,-0.15557 0.03127,-0.33071 -0.144179,-0.3892 -0.201298,-0.0671 -0.153093,-0.16999 0.130643,-0.27887 0.515927,-0.19798 0.639633,0.45594 0.14418,0.76215 -0.180547,0.11159 -0.233971,0.0731 -0.130644,-0.0941 z m 9.927357,-0.50394 c -0.253542,-0.30755 -0.345831,-1.08373 -0.305818,-2.57205 0.04749,-1.76657 -0.02745,-2.2235 -0.437661,-2.66839 -0.501631,-0.54403 -1.339437,-2.34354 -1.339437,-2.87694 0,-0.45332 0.741331,0.71625 0.929693,1.46673 0.09262,0.36905 0.52678,0.93596 0.964792,1.25979 0.613543,0.45362 0.76113,0.72925 0.642832,1.20059 -0.123441,0.49183 -0.0616,0.58774 0.315373,0.48916 0.355449,-0.093 0.483378,0.052 0.528656,0.59911 0.071,0.85784 0.187621,1.01142 0.582649,0.76728 0.214633,-0.13265 0.209154,-0.28582 -0.02011,-0.56205 -0.410564,-0.4947 -0.259532,-0.59017 0.554022,-0.3502 0.363802,0.10731 0.51263,0.20697 0.330729,0.22148 -0.464667,0.037 -0.412269,0.46763 0.07989,0.65649 0.235458,0.0904 0.341662,0.046 0.248968,-0.10398 -0.08891,-0.14385 -0.03556,-0.26155 0.118549,-0.26155 0.154109,0 0.280199,0.35718 0.280199,0.79375 0,0.43656 -0.131799,0.79375 -0.292891,0.79375 -0.161089,0 -0.225608,0.17533 -0.143372,0.38963 0.372536,0.97082 -2.309681,1.63971 -3.037071,0.7574 z m 2.150417,-0.0446 c 0,-0.12127 -0.178593,-0.22049 -0.396875,-0.22049 -0.218281,0 -0.396875,0.0992 -0.396875,0.22049 0,0.12126 0.178594,0.22048 0.396875,0.22048 0.218282,0 0.396875,-0.0992 0.396875,-0.22048 z m 0.09654,-0.96791 c -0.08814,-0.2297 0.03518,-0.46626 0.295071,-0.56599 0.331854,-0.12735 0.362051,-0.22354 0.117592,-0.37462 -0.180906,-0.11181 -0.47547,-0.14705 -0.654585,-0.0783 -0.418377,0.16055 -0.355512,1.41314 0.07094,1.41338 0.177332,1.1e-4 0.254275,-0.1774 0.170984,-0.39445 z m -31.317369,-0.66369 c 0,-0.14552 0.119063,-0.26458 0.264583,-0.26458 0.145521,0 0.264584,0.11906 0.264584,0.26458 0,0.14552 -0.119063,0.26458 -0.264584,0.26458 -0.14552,0 -0.264583,-0.11906 -0.264583,-0.26458 z m 45.534617,-0.48289 c -0.614172,-0.76329 -0.73968,-2.03287 -0.224721,-2.27319 0.264583,-0.12347 0.264583,-0.18521 0,-0.30868 -0.181901,-0.0849 -0.330729,-0.29478 -0.330729,-0.46642 0,-0.17165 -0.260189,-0.42962 -0.578197,-0.57327 -0.318008,-0.14365 -0.630407,-0.42447 -0.694222,-0.62405 -0.07017,-0.21944 0.202232,-0.12758 0.689153,0.23242 0.572889,0.42356 1.173906,0.59557 2.083284,0.59625 0.702958,5.3e-4 1.069747,0.0535 0.815086,0.11771 -0.466236,0.11756 -0.668211,1.13629 -0.225285,1.13629 0.130754,0 0.220051,0.43609 0.198437,0.96909 -0.02312,0.57035 0.09678,1.01489 0.291431,1.08039 0.198776,0.0669 0.330729,-0.1234 0.330729,-0.47691 0,-0.54011 0.642583,-1.27944 1.12952,-1.29958 0.183041,-0.008 0.103478,0.61687 -0.241615,1.89632 -0.06668,0.24723 -0.282919,0.38748 -0.480521,0.31165 -0.197604,-0.0758 -0.774993,-0.0231 -1.283091,0.11721 -0.83148,0.22958 -0.979324,0.18608 -1.479259,-0.43523 z m -31.880447,0.10812 c 0.08843,-0.23044 0.277024,-0.41898 0.419102,-0.41898 0.347766,0 0.130001,0.60134 -0.265509,0.73318 -0.193344,0.0644 -0.252476,-0.0565 -0.153593,-0.3142 z m -5.831951,-0.23196 c 0.09936,-0.26093 0.247304,-0.40778 0.328766,-0.32631 0.08146,0.0815 1.68e-4,0.29495 -0.180653,0.47443 -0.261307,0.25936 -0.291698,0.22897 -0.148113,-0.14812 z M 9.1372444,243.68246 c 0.081224,-0.32742 0.079078,-0.44574 -0.00477,-0.26294 -0.322612,0.70339 -0.569295,0.019 -0.3338759,-0.92628 0.136098,-0.54647 0.2826401,-1.16373 0.3256492,-1.37168 0.1217446,-0.58864 0.861487,-0.72065 2.4290873,-0.43348 1.329272,0.24351 1.817917,0.67946 1.193882,1.06513 -0.135716,0.0839 -0.236776,0.50353 -0.224578,0.93255 0.0122,0.42902 0.112135,0.72445 0.222081,0.6565 0.109947,-0.0679 0.145159,0.085 0.07825,0.33983 -0.08044,0.30639 -0.421923,0.48506 -1.007892,0.52735 -0.81885,0.0591 -0.906233,-0.0113 -1.14924,-0.92604 -0.144654,-0.5445 -0.275311,-0.78164 -0.290351,-0.52698 -0.01504,0.25466 -0.146408,0.46302 -0.291929,0.46302 -0.1455209,0 -0.2645834,0.23812 -0.2645834,0.52917 0,0.30409 -0.1763889,0.52916 -0.4147047,0.52916 -0.2974319,0 -0.3729429,-0.16834 -0.2670255,-0.59531 z m 1.7400636,-2.18281 c 0,-0.38163 -0.152376,-0.66146 -0.360185,-0.66146 -0.241527,0 -0.318529,0.21791 -0.233739,0.66146 0.06955,0.3638 0.231629,0.66146 0.360185,0.66146 0.128557,0 0.233739,-0.29766 0.233739,-0.66146 z m 10.337954,1.02265 c -0.301604,-0.38343 -0.548371,-1.02221 -0.548371,-1.41953 0,-0.81812 0.904531,-2.11666 1.474412,-2.11666 0.20772,0 0.377672,0.11906 0.377672,0.26458 0,0.48975 0.714158,0.27001 1.719791,-0.52917 1.183941,-0.94088 1.190625,-0.94236 1.190625,-0.26458 0,0.29104 -0.148828,0.52916 -0.330729,0.52916 -0.230471,-1e-5 -0.330729,0.5184 -0.330729,1.7101 0,1.26681 -0.118391,1.82855 -0.456721,2.16707 -0.538391,0.53868 -0.712042,0.42736 -0.789285,-0.50595 -0.03128,-0.37798 -0.142169,-0.63452 -0.246415,-0.57009 -0.104246,0.0644 -0.241368,-0.15252 -0.304714,-0.4821 -0.06335,-0.32958 -0.131391,-0.0337 -0.151208,0.65754 -0.03017,1.05214 -0.119064,1.25677 -0.545995,1.25677 -0.28048,0 -0.75673,-0.31372 -1.058333,-0.69714 z m 3.155796,-1.15494 c 0,-0.14553 -0.126089,-0.26459 -0.280198,-0.26459 -0.154109,0 -0.206614,0.11906 -0.116677,0.26459 0.08994,0.14552 0.216026,0.26458 0.280198,0.26458 0.06417,0 0.116677,-0.11906 0.116677,-0.26458 z m -0.47625,-1.37584 c -0.246944,-0.24694 -0.3175,-0.17639 -0.3175,0.3175 0,0.49389 0.07056,0.56445 0.3175,0.3175 0.246944,-0.24694 0.246944,-0.38805 0,-0.635 z m -0.745713,0.17147 c 0.09035,-0.23546 0.046,-0.34166 -0.103984,-0.24897 -0.143854,0.0889 -0.261553,0.27369 -0.261553,0.41062 0,0.38058 0.189644,0.29672 0.365537,-0.16165 z m 43.311602,1.31461 c 0.0127,-0.30823 0.07539,-0.37092 0.15985,-0.15985 0.07643,0.19099 0.06703,0.4192 -0.02088,0.50711 -0.08792,0.0879 -0.150453,-0.0684 -0.138965,-0.34726 z m -53.108219,-0.43692 c -0.103185,-0.16695 -0.04534,-0.35098 0.128543,-0.40894 0.173885,-0.058 0.484116,-0.27334 0.689405,-0.47863 0.407998,-0.408 1.204799,-0.50699 1.204799,-0.14968 0,0.63344 -1.725473,1.51825 -2.022747,1.03725 z m 40.203339,0.1175 c -0.374664,-0.23819 -0.955778,-2.63656 -0.761498,-3.14284 0.07432,-0.19368 0.03254,-0.35215 -0.09284,-0.35215 -0.125383,0 -0.290883,-0.16395 -0.367773,-0.36432 -0.113139,-0.29484 0.103576,-0.28222 1.136314,0.0661 0.701862,0.23675 1.157388,0.50404 1.012274,0.59398 -0.146066,0.0905 -0.223036,0.88796 -0.172431,1.78642 0.08937,1.58682 -0.05494,1.85721 -0.754044,1.41276 z m -25.480592,-0.56896 c 0,-0.13693 0.1177,-0.32171 0.261554,-0.41062 0.149981,-0.0927 0.194336,0.0135 0.103983,0.24897 -0.175892,0.45837 -0.365537,0.54224 -0.365537,0.16165 z m 14.985568,-0.14791 c -0.08376,-0.21828 -0.03697,-0.39687 0.103984,-0.39687 0.140954,0 0.256281,0.17859 0.256281,0.39687 0,0.21828 -0.04679,0.39688 -0.103984,0.39688 -0.05719,0 -0.172516,-0.1786 -0.256281,-0.39688 z m 12.795682,-0.39687 c -0.481534,-0.15422 -0.529186,-0.21901 -0.175181,-0.23821 0.418693,-0.0227 0.463825,-0.18266 0.324747,-1.15085 -0.158962,-1.10661 -0.15444,-1.11476 0.284443,-0.51284 0.403378,0.55323 0.680895,2.2042 0.359741,2.14013 -0.07276,-0.0145 -0.429948,-0.12172 -0.79375,-0.23823 z m -1.058334,-0.51874 c 0,-0.29678 0.112035,-0.53959 0.248968,-0.53959 0.438073,0 0.50092,0.38608 0.120137,0.73803 -0.306615,0.28341 -0.369105,0.24981 -0.369105,-0.19844 z m -38.364583,0.0201 c 0,-0.23753 0.795041,-0.64662 0.951878,-0.48978 0.04531,0.0453 -0.150321,0.22772 -0.434744,0.40535 -0.284424,0.17763 -0.517134,0.21563 -0.517134,0.0844 z m 12.964583,-0.48322 c 0,-0.15195 0.20836,-0.43969 0.463021,-0.63941 0.428297,-0.33589 0.433912,-0.32344 0.07487,0.16604 -0.213484,0.29104 -0.421843,0.57878 -0.46302,0.63941 -0.04118,0.0606 -0.07487,-0.0141 -0.07487,-0.16603 z M 7.1731415,237.43626 c 0,-0.2875 -0.1340141,-0.5674 -0.2978092,-0.622 -0.1648407,-0.0549 -0.3211491,-0.76528 -0.3500837,-1.59093 -0.042808,-1.22153 0.031039,-1.51344 0.4077891,-1.61196 0.6127237,-0.16023 1.0338538,0.30003 1.0338538,1.12992 0,0.37204 0.1085191,1.05482 0.241154,1.51729 0.1952251,0.68071 0.1700297,0.81356 -0.1322917,0.69755 -0.2224236,-0.0854 -0.3734456,0.0223 -0.3734456,0.26626 0,0.22526 -0.1190625,0.48315 -0.2645834,0.57309 -0.1455208,0.0899 -0.2645833,-0.0717 -0.2645833,-0.35921 z m 25.3999995,-0.0803 c -0.509323,-0.28301 -0.723746,-0.45478 -0.476496,-0.38171 0.333537,0.0986 0.408287,0.0168 0.289658,-0.3167 -0.08794,-0.24725 -0.26625,-0.58778 -0.396248,-0.75672 -0.143875,-0.18698 -0.122777,-0.37737 0.05392,-0.48658 0.21065,-0.13019 0.21065,-0.27535 0,-0.52916 -0.200769,-0.24192 -0.204732,-0.40264 -0.01286,-0.52123 0.152588,-0.0943 0.277431,0.007 0.277431,0.22541 0,0.21828 0.136428,0.48119 0.303171,0.58425 0.212947,0.1316 0.251438,-0.0188 0.129339,-0.50523 -0.146812,-0.58495 -0.05,-0.75664 0.622871,-1.10459 0.438187,-0.2266 0.798526,-0.6173 0.800754,-0.86822 0.0053,-0.60197 0.447241,-1.28375 0.680725,-1.05027 0.101409,0.10141 0.03377,0.36585 -0.150302,0.58765 -0.240718,0.29004 -0.248497,0.40327 -0.02772,0.40327 0.203152,0 0.263702,0.35897 0.179036,1.06139 -0.102741,0.85237 -0.01429,1.16728 0.44918,1.59906 0.403241,0.37567 0.610158,0.43852 0.686797,0.2086 0.06033,-0.18098 0.0026,-0.36671 -0.128439,-0.41273 -0.614791,-0.21603 -0.995018,-0.59565 -0.789551,-0.78829 0.124846,-0.11705 0.280398,-0.0633 0.345662,0.11955 0.06527,0.18281 0.217967,0.27101 0.339331,0.196 0.121364,-0.075 0.356629,0.27561 0.522811,0.77915 0.687724,2.08382 -1.442598,3.21092 -3.699086,1.9571 z m 2.285707,-0.15577 c -0.02548,-0.32118 0.125357,-0.43938 0.492418,-0.38584 0.424855,0.062 0.452681,0.0258 0.141166,-0.18331 -0.258212,-0.17335 -0.5016,-0.1662 -0.727604,0.0214 -0.386958,0.32115 -0.4582,1.0108 -0.104418,1.0108 0.129352,0 0.218649,-0.20836 0.198438,-0.46302 z m -17.962269,-0.24852 c -0.254661,-0.0666 -0.463021,-0.29087 -0.463021,-0.49848 0,-0.20761 -0.0893,-0.37833 -0.198437,-0.37937 -0.109141,-0.001 -0.226929,-0.59285 -0.261752,-1.31512 -0.07511,-1.55791 0.116051,-1.71076 2.444564,-1.95466 1.785928,-0.18705 2.534037,0.0599 1.864607,0.61545 -0.225169,0.18687 -0.409399,0.61582 -0.409399,0.95322 0,0.33739 -0.127179,0.69205 -0.282621,0.78811 -0.155441,0.0961 -0.219406,0.33941 -0.142144,0.54075 0.29022,0.7563 -1.268811,0.9948 -1.753995,0.26833 -0.124619,-0.18659 -0.195841,-0.14387 -0.198438,0.11905 -0.0022,0.22555 0.138823,0.55298 0.313448,0.7276 0.339693,0.3397 0.03986,0.38408 -0.912812,0.13512 z m 25.058703,-0.27248 c -1.481071,-0.74812 -1.84935,-1.9638 -1.058317,-3.49348 0.212476,-0.41089 0.319616,-0.81377 0.238088,-0.8953 -0.08153,-0.0815 -0.06618,-0.281 0.03411,-0.44327 0.133189,-0.2155 0.282192,-0.21216 0.552749,0.0124 0.203724,0.16908 0.321374,0.38675 0.261446,0.48371 -0.05993,0.097 0.209272,0.16216 0.598225,0.14488 1.155324,-0.0513 1.632974,0.17453 1.637279,0.7742 0.003,0.42577 0.061,0.47454 0.235823,0.1985 0.404908,-0.63933 0.645898,1.22482 0.274315,2.12191 -0.268404,0.64798 -0.442908,0.76644 -0.943854,0.64071 -0.453654,-0.11386 -0.577797,-0.0584 -0.474123,0.21175 0.214839,0.55987 -0.482107,0.6853 -1.355738,0.24401 z m 1.123334,-2.5217 c -0.06306,-0.32742 -0.114663,-0.0595 -0.114663,0.59531 0,0.65485 0.0516,0.92274 0.114663,0.59531 0.06307,-0.32742 0.06307,-0.8632 0,-1.19062 z m -2.128163,-0.26458 c -0.0734,-0.18191 -0.133453,-0.0331 -0.133453,0.33073 0,0.3638 0.06005,0.51263 0.133453,0.33072 0.0734,-0.1819 0.0734,-0.47955 0,-0.66145 z m -18.431478,2.34341 c 0,-0.0572 0.184777,-0.17489 0.410617,-0.26156 0.235459,-0.0904 0.341662,-0.046 0.248968,0.10399 -0.155379,0.25141 -0.659585,0.37186 -0.659585,0.15757 z m 27.847395,-0.6938 c -0.472942,-0.43024 -0.859895,-0.90697 -0.859895,-1.05939 0,-0.15242 0.416718,0.13958 0.926041,0.64891 0.797439,0.79744 1.106893,1.22947 0.859896,1.20051 -0.03638,-0.004 -0.453099,-0.35978 -0.926042,-0.79003 z m 17.727084,0.34555 c 0.536487,-0.13179 0.638913,-1.28478 0.132291,-1.48921 -0.181901,-0.0734 0.118023,-0.14285 0.666499,-0.15434 0.957003,-0.0201 0.990187,0.008 0.822677,0.70672 -0.09601,0.40018 -0.187571,0.74675 -0.203481,0.77015 -0.0159,0.0234 -0.445643,0.0961 -0.954965,0.16148 -0.509323,0.0654 -0.717683,0.0678 -0.463021,0.005 z M 5.3210582,235.16526 c 0,-0.35521 0.1190625,-0.71943 0.2645833,-0.80936 0.154364,-0.0954 0.2645833,0.17364 0.2645833,0.64584 0,0.44515 -0.1190625,0.80937 -0.2645833,0.80937 -0.1455208,0 -0.2645833,-0.29063 -0.2645833,-0.64585 z m 60.7775038,0.11668 c -0.07611,-0.29104 -0.03047,-0.52917 0.101433,-0.52917 0.131897,0 0.239813,0.23813 0.239813,0.52917 0,0.29104 -0.04565,0.52917 -0.101433,0.52917 -0.05579,0 -0.163703,-0.23813 -0.239813,-0.52917 z M 8.7606415,234.48191 c -0.5909842,-0.18366 -0.5580525,-0.20837 0.3090897,-0.23193 0.5338011,-0.0145 1.1886448,-0.10343 1.4552088,-0.19761 0.394095,-0.13923 0.42353,-0.1053 0.15752,0.18162 -0.402688,0.43434 -1.0522757,0.51814 -1.9218185,0.24792 z m 51.3332175,-1.64737 c 0.0021,-0.1819 0.106407,-0.49227 0.23151,-0.6897 0.29382,-0.46371 0.618813,0.0254 0.398449,0.59968 -0.191526,0.49911 -0.635748,0.56259 -0.629959,0.09 z M 30.88996,232.50381 c 0.08377,-0.21828 0.273198,-0.39687 0.420968,-0.39687 0.154863,0 0.129149,0.16812 -0.0607,0.39687 -0.181158,0.21828 -0.370594,0.39688 -0.420968,0.39688 -0.05037,0 -0.02307,-0.1786 0.0607,-0.39688 z m -6.140459,-0.46483 c -0.561909,-0.65696 -0.844995,-2.31329 -0.395368,-2.31329 0.154829,0 0.281508,-0.15848 0.281508,-0.35217 0,-0.78865 1.954043,-1.24835 2.439323,-0.57387 0.123858,0.17215 0.376803,0.14903 0.724014,-0.0662 0.293508,-0.1819 0.654328,-0.33073 0.801823,-0.33073 0.498927,0 0.272103,0.54464 -0.327139,0.78551 -0.456115,0.18333 -0.487047,0.2432 -0.132291,0.25605 0.576738,0.0209 0.592296,0.37887 0.04045,0.93072 -0.232415,0.23241 -0.36078,0.5836 -0.285257,0.7804 0.224946,0.5862 -0.36094,0.97885 -0.802184,0.5376 -0.595088,-0.59508 -1.135818,-0.46103 -1.135818,0.2816 0,0.82482 -0.534281,0.85324 -1.209057,0.0643 z m 2.002807,-2.28498 c 0,-0.12996 -0.178594,-0.30481 -0.396875,-0.38858 -0.403298,-0.15476 -0.541865,0.12708 -0.220486,0.44846 0.252862,0.25286 0.617361,0.21751 0.617361,-0.0599 z m 31.122795,2.06118 c -0.22061,-1.10305 -0.04793,-1.29765 1.11116,-1.25223 0.54171,0.0212 1.242515,-0.0993 1.557345,-0.26776 0.374809,-0.20059 0.629023,-0.21476 0.736383,-0.041 0.09018,0.14591 0.04082,0.2653 -0.109686,0.2653 -0.184491,0 -0.189494,0.22135 -0.01534,0.67937 0.237953,0.62586 0.211388,0.6652 -0.337278,0.49943 -0.327565,-0.099 -0.70585,-0.28279 -0.840634,-0.40849 -0.334992,-0.31243 -0.945565,0.23617 -0.945565,0.84958 0,0.8788 -0.970175,0.60684 -1.156372,-0.32415 z m -41.573837,-0.23741 c 0.08994,-0.14552 0.216026,-0.26458 0.280199,-0.26458 0.06417,0 0.116676,0.11906 0.116676,0.26458 0,0.14552 -0.126089,0.26459 -0.280198,0.26459 -0.154109,0 -0.206613,-0.11907 -0.116677,-0.26459 z m 31.710355,-0.36509 c -0.323956,-0.15191 -0.70064,-0.70674 -0.875059,-1.2889 -0.168436,-0.5622 -0.537549,-1.25347 -0.820251,-1.53617 -0.508949,-0.50895 -0.503914,-0.51401 0.511935,-0.51401 0.602289,0 1.165979,-0.16874 1.365075,-0.40863 0.2403,-0.28955 0.577461,-0.35807 1.156875,-0.23514 1.057537,0.22438 1.852541,0.90543 1.485447,1.27252 -0.14896,0.14896 -0.270835,0.56744 -0.270835,0.92995 0,0.63715 0.0131,0.642 0.39324,0.14552 0.359478,-0.4695 0.368448,-0.43929 0.104462,0.35189 -0.429246,1.28647 -1.807466,1.86604 -3.050889,1.28297 z m 2.216947,-0.58851 c -0.08792,-0.0879 -0.316125,-0.0973 -0.507119,-0.0209 -0.211066,0.0845 -0.148373,0.14716 0.159853,0.15985 0.278913,0.0115 0.435184,-0.051 0.347266,-0.13896 z m -9.445681,0.43477 c -0.214066,-0.13538 -0.320331,-0.31503 -0.236141,-0.39922 0.08419,-0.0842 0.303679,0.0284 0.487754,0.2502 0.381688,0.4599 0.308502,0.50325 -0.251613,0.14902 z m 30.948588,-0.0103 c 0,-0.14552 0.126089,-0.26458 0.280199,-0.26458 0.154109,0 0.206613,0.11906 0.116676,0.26458 -0.08994,0.14553 -0.216027,0.26459 -0.280199,0.26459 -0.06417,0 -0.116676,-0.11906 -0.116676,-0.26459 z m -26.9875,-0.39687 c -0.183735,-0.22139 -0.212387,-0.39688 -0.06479,-0.39688 0.145521,0 0.412803,0.1786 0.59396,0.39688 0.183735,0.22139 0.212387,0.39687 0.06479,0.39687 -0.145521,0 -0.412803,-0.17859 -0.59396,-0.39687 z m 11.377083,-0.13229 -0.661458,-0.21184 0.661458,-0.0223 c 0.363802,-0.0123 0.840052,0.0931 1.058333,0.23416 0.352777,0.22798 0.352777,0.254 0,0.23416 -0.218281,-0.0123 -0.694531,-0.11765 -1.058333,-0.23416 z M 5.0271879,229.79183 c -0.079586,-0.53924 0.109669,-1.55674 0.3423327,-1.84049 0.1439222,-0.17553 0.1690404,-0.47318 0.055818,-0.66146 -0.1599007,-0.26589 -0.1085051,-0.2634 0.2302155,0.0112 0.2398406,0.19443 0.5548765,0.28009 0.7000793,0.19035 0.3734388,-0.2308 1.6379891,0.12488 1.4611686,0.41098 -0.080538,0.13032 -0.6005425,0.16432 -1.1555661,0.0756 -0.6832097,-0.10925 -1.0766115,-0.0522 -1.2180594,0.17668 -0.1458743,0.23603 -0.084136,0.29016 0.2045751,0.17937 0.315391,-0.12102 0.4386368,0.0566 0.5194416,0.74879 0.09353,0.80116 0.034677,0.90746 -0.5023887,0.90746 -0.3345813,0 -0.6215089,-0.0893 -0.6376167,-0.19843 z M 60.25871,229.5934 c -0.08376,-0.21828 -0.03697,-0.39688 0.103984,-0.39688 0.140954,0 0.256281,0.1786 0.256281,0.39688 0,0.21828 -0.04679,0.39687 -0.103984,0.39687 -0.05719,0 -0.172517,-0.17859 -0.256281,-0.39687 z m 8.213802,-0.5597 c 0.132778,-0.34602 0.04303,-0.39311 -0.471326,-0.24725 -0.447122,0.12678 -0.525984,0.10458 -0.266203,-0.075 0.300686,-0.20781 0.276156,-0.27936 -0.132292,-0.38586 -0.275783,-0.0719 -0.08471,-0.092 0.424617,-0.0447 0.509323,0.0474 0.985573,0.10823 1.058333,0.13529 0.07276,0.0271 0.221589,0.0351 0.330729,0.0179 0.109141,-0.0172 0.198438,0.20679 0.198438,0.49783 0,0.38626 -0.17639,0.52917 -0.653156,0.52917 -0.492617,0 -0.612841,-0.10506 -0.48914,-0.42741 z m -28.755621,-0.23405 c 0,-0.21828 0.0468,-0.39688 0.103984,-0.39688 0.05719,0 0.172517,0.1786 0.256281,0.39688 0.08376,0.21828 0.03697,0.39687 -0.103984,0.39687 -0.140954,0 -0.256281,-0.17859 -0.256281,-0.39687 z m -26.358902,-0.1551 c -0.636288,-0.18448 -0.864734,-0.43028 -0.992188,-1.06754 -0.270413,-1.35207 -0.1964,-1.77074 0.413481,-2.33893 0.610527,-0.56879 2.175874,-0.74052 2.466318,-0.27058 0.0914,0.1479 0.295421,0.18903 0.453371,0.0914 0.157987,-0.0976 0.212083,-0.056 0.120248,0.0926 -0.09181,0.14856 0.05604,0.47189 0.328555,0.71851 0.272518,0.24663 0.537601,0.34024 0.589073,0.20802 0.05147,-0.13221 0.927024,-0.31194 1.945669,-0.3994 l 1.852084,-0.159 -1.058334,0.41363 c -0.582083,0.22749 -1.534583,0.47287 -2.116666,0.54527 -1.027059,0.12776 -1.72675,0.4714 -1.680001,0.82511 0.08664,0.65555 -0.129038,1.05483 -0.713699,1.32121 -0.370649,0.16888 -0.698071,0.29632 -0.727604,0.2832 -0.02953,-0.0131 -0.425671,-0.13171 -0.880307,-0.26353 z m 1.223486,-3.0199 c 0,-0.36381 -0.119063,-0.66146 -0.264584,-0.66146 -0.14552,0 -0.264583,0.29765 -0.264583,0.66146 0,0.3638 0.119063,0.66145 0.264583,0.66145 0.145521,0 0.264584,-0.29765 0.264584,-0.66145 z m 20.920681,3.10885 c 0.01021,-0.10914 0.120919,-0.43656 0.245985,-0.7276 0.201496,-0.46891 0.229508,-0.44631 0.245986,0.19843 0.01024,0.40019 -0.100465,0.72761 -0.245986,0.72761 -0.14552,0 -0.256214,-0.0893 -0.245985,-0.19844 z M 3.4689749,228.0059 c 0,-0.36381 -0.00893,-0.74778 -0.019844,-0.85328 -0.010914,-0.10551 0.1081484,-0.23449 0.2645833,-0.28664 0.1675695,-0.0559 0.2844271,0.29472 0.2844271,0.85329 0,0.52144 -0.1190625,0.94808 -0.2645833,0.94808 -0.1455208,0 -0.2645833,-0.29765 -0.2645831,-0.66145 z M 41.96585,227.73311 c -0.436563,-0.35784 -0.665676,-0.65122 -0.509141,-0.65194 0.156533,-7.9e-4 0.56424,0.29634 0.906016,0.66014 0.783944,0.83448 0.62721,0.83124 -0.396875,-0.008 z m -11.773959,0.1461 c 0,-0.12013 0.357188,-0.34294 0.79375,-0.49513 0.436563,-0.15218 0.79375,-0.23208 0.79375,-0.17755 0,0.0545 -0.357187,0.27734 -0.79375,0.49512 -0.436562,0.21779 -0.79375,0.29769 -0.79375,0.17756 z M 5.5194957,226.52864 c -0.2546615,-0.27892 -0.373724,-0.50333 -0.2645834,-0.4987 0.2771024,0.0117 1.1244792,0.67538 1.1244792,0.88065 0,0.30649 -0.3891298,0.13365 -0.8598958,-0.38195 z m 36.3090353,-0.91005 c -0.279606,-0.33691 -0.263239,-0.37562 0.0999,-0.23628 0.238863,0.0917 0.434298,0.27298 0.434298,0.40294 0,0.34024 -0.15316,0.29246 -0.534194,-0.16666 z m -5.978102,-1.59726 c -0.645033,-0.84569 -0.849667,-2.33163 -0.362556,-2.63268 0.147895,-0.0914 0.20845,-0.26401 0.134565,-0.38355 -0.241432,-0.39065 1.14201,-1.069 2.180145,-1.069 1.205246,0 1.649725,0.37069 1.649725,1.37584 0,0.40746 0.119063,0.74083 0.264583,0.74083 0.415743,0 0.309007,1.84546 -0.13226,2.28673 -0.229399,0.2294 -0.967703,0.42065 -1.749795,0.45327 -1.234877,0.0515 -1.408062,-0.0158 -1.984407,-0.77144 z m 2.11006,-3.42377 c -0.08376,-0.21828 -0.199088,-0.39687 -0.25628,-0.39687 -0.05719,0 -0.103984,0.17859 -0.103984,0.39687 0,0.21828 0.115326,0.39688 0.25628,0.39688 0.140952,0 0.187746,-0.1786 0.103984,-0.39688 z m 24.245986,3.82085 c 0,-0.15411 0.119062,-0.20662 0.264583,-0.11668 0.145521,0.0899 0.264583,0.21603 0.264583,0.2802 0,0.0642 -0.119062,0.11667 -0.264583,0.11667 -0.145521,0 -0.264583,-0.12609 -0.264583,-0.28019 z m -39.628629,-1.19002 c -0.671486,-0.47032 -0.713972,-0.82618 -0.273976,-2.29476 0.535488,-1.7873 2.462747,-1.913 3.226109,-0.21041 0.375604,0.83774 1.119898,1.59413 1.568634,1.59413 0.190468,0 0.577421,0.18832 0.859896,0.41848 0.506341,0.41257 0.506122,0.41588 -0.01558,0.23456 -0.291042,-0.10115 -0.736188,-0.24347 -0.989215,-0.31626 -0.538941,-0.15505 -2.847235,0.47675 -2.847235,0.77932 0,0.35075 -0.909238,0.22878 -1.528629,-0.20506 z m 27.325504,0.002 c -1.336445,-0.68472 -1.491258,-1.08364 -0.85026,-2.19099 0.724207,-1.25109 0.933283,-1.38791 1.993508,-1.30459 1.141273,0.0897 1.941976,1.23634 1.43274,2.05176 -0.179866,0.28801 -0.32703,0.70386 -0.32703,0.92412 0,0.27001 -0.280122,0.40906 -0.859896,0.42684 -0.814723,0.025 -0.825148,0.0375 -0.198437,0.23821 0.546925,0.17515 0.569833,0.21612 0.132291,0.23658 -0.291041,0.0136 -0.886354,-0.15826 -1.322916,-0.38193 z m 1.900531,-2.81468 c -0.08446,-0.21106 -0.147156,-0.14837 -0.159851,0.15986 -0.01148,0.27891 0.05104,0.43518 0.138965,0.34726 0.08792,-0.0879 0.09732,-0.31612 0.02088,-0.50712 z m 5.904677,2.69544 c 0,-0.14552 0.12609,-0.26458 0.280199,-0.26458 0.154109,0 0.206613,0.11906 0.116676,0.26458 -0.08994,0.14553 -0.216027,0.26459 -0.280199,0.26459 -0.06417,0 -0.116676,-0.11906 -0.116676,-0.26459 z m 14.073759,-0.65916 c 0.04031,-1.07218 1.007491,-2.25673 1.007491,-1.23393 0,0.3136 0.127566,0.57018 0.283482,0.57018 0.155914,0 0.09227,0.19121 -0.141425,0.42491 -0.328062,0.32806 -0.355137,0.50897 -0.118792,0.79375 0.248369,0.29926 0.176749,0.36884 -0.379685,0.36884 -0.613691,0 -0.682149,-0.0971 -0.651071,-0.92375 z m -25.847818,0.39442 c -0.116554,-0.18859 2.246712,-0.61955 2.424195,-0.44207 0.04877,0.0488 -0.449726,0.21187 -1.107763,0.36246 -0.658035,0.15058 -1.250429,0.1864 -1.316432,0.0796 z M 4.0737531,221.72204 c -0.00692,-0.1819 -0.093143,-0.52374 -0.1916051,-0.75963 -0.1033136,-0.24752 -0.00475,-0.60318 0.233069,-0.841 0.22665,-0.22665 0.4120912,-0.59919 0.4120912,-0.82786 0,-0.22868 0.1488281,-0.4176 0.3307292,-0.41983 0.220486,-0.003 0.1984375,-0.0896 -0.066146,-0.26053 -0.3286395,-0.21239 -0.3058943,-0.25648 0.1322917,-0.25648 0.7030503,0 1.3321625,0.40236 0.9746186,0.62333 -0.1498759,0.0926 -0.2290731,0.61353 -0.1759934,1.15755 0.05308,0.54403 0.035172,0.8438 -0.039794,0.66616 -0.212552,-0.50366 -0.8381117,0.20396 -0.6879477,0.77819 0.086954,0.33251 -0.028443,0.47083 -0.3928025,0.47083 -0.2837606,0 -0.5215903,-0.14883 -0.528511,-0.33073 z m 2.30969,-0.13229 c -0.00223,-0.32742 0.1150109,-0.59531 0.2605317,-0.59531 0.3315023,0 0.3315023,0.28078 0,0.79375 -0.2074,0.32093 -0.2572557,0.28295 -0.2605317,-0.19844 z m 62.7508499,-0.19956 c 0.166039,-0.36441 0.337357,-0.6271 0.380709,-0.58375 0.160983,0.16098 -0.23485,1.24633 -0.454546,1.24633 -0.125429,0 -0.0922,-0.29816 0.07384,-0.66258 z m -40.794485,-0.66034 c -0.209852,-0.12969 -0.322019,-0.29534 -0.249259,-0.3681 0.07276,-0.0728 0.303991,-0.0262 0.513842,0.10352 0.209852,0.1297 0.322019,0.29534 0.249259,0.3681 -0.07276,0.0728 -0.30399,0.0262 -0.513842,-0.10352 z m -10.731201,-0.91762 c -0.657726,-0.49748 -0.188692,-0.50331 0.677034,-0.008 0.423977,0.24237 0.513377,0.38149 0.249008,0.3875 -0.226848,0.005 -0.643567,-0.16543 -0.926042,-0.37908 z m -5.748762,-0.46895 c -0.259969,-0.26665 -0.401771,-0.59953 -0.315114,-0.73974 0.08666,-0.14021 0.02444,-0.25494 -0.138256,-0.25494 -0.162697,0 -0.217212,-0.12718 -0.121144,-0.28262 0.09607,-0.15544 0.337407,-0.22017 0.536308,-0.14384 0.427436,0.16402 0.76804,-0.25888 0.394457,-0.48977 -0.3276,-0.20247 -0.05793,-0.93645 0.343165,-0.93401 0.417441,0.003 0.493622,2.34267 0.09409,2.89012 -0.297141,0.40715 -0.355731,0.40382 -0.793502,-0.0452 z m 2.457046,0.0793 c 0,-0.30786 -0.172596,-0.54478 -0.396875,-0.54478 -0.411894,0 -0.525154,-0.31269 -0.222781,-0.61506 0.09575,-0.0958 0.363642,-0.0263 0.595312,0.15434 0.354737,0.27659 0.376595,0.26579 0.138487,-0.0684 -0.161381,-0.22653 -0.203208,-0.73756 -0.09745,-1.19062 0.101905,-0.43656 0.199369,-0.58539 0.216587,-0.33073 0.01722,0.25466 0.150366,0.46302 0.295887,0.46302 0.145521,0 0.264583,0.35719 0.264583,0.79375 0,0.43656 -0.115325,0.79375 -0.256279,0.79375 -0.140954,0 -0.192368,0.16655 -0.114254,0.37011 0.07811,0.20357 0.01485,0.44872 -0.140595,0.54479 -0.165487,0.10227 -0.282622,-0.0511 -0.282622,-0.37012 z M 30.85335,218.9706 c -2.00438,-1.7869 -2.788857,-2.30457 -3.068536,-2.02489 -0.386581,0.38658 -1.53525,0.0946 -1.835594,-0.46661 -0.141836,-0.26502 -0.277035,-0.9706 -0.300441,-1.56794 -0.05519,-1.40859 0.497634,-1.97446 1.928961,-1.97446 1.45661,0 2.197544,0.85887 2.001546,2.32014 -0.141489,1.05489 0.451194,2.9582 0.84532,2.71462 0.119184,-0.0737 0.373824,0.15966 0.565869,0.5185 0.192043,0.35883 0.494903,0.65242 0.673026,0.65242 0.178123,0 0.392391,0.1786 0.476155,0.39688 0.23831,0.62103 -0.138867,0.45429 -1.286306,-0.56866 z m -2.04501,-5.16949 c -0.0576,-0.17281 -0.246197,-0.36135 -0.419102,-0.41899 -0.193345,-0.0644 -0.252476,0.0565 -0.153594,0.3142 0.184552,0.48093 0.731436,0.581 0.572696,0.10479 z m -12.771657,5.60586 c -0.504919,-0.21697 -0.501888,-0.22824 0.06615,-0.24599 0.327422,-0.0102 0.595312,0.10047 0.595312,0.24599 0,0.14552 -0.02977,0.25621 -0.06614,0.24598 -0.03638,-0.0102 -0.304271,-0.12092 -0.595313,-0.24598 z m 18.822993,-0.59531 c -0.204325,-0.32743 -0.453044,-0.9525 -0.552712,-1.38907 -0.172511,-0.75562 -0.161716,-0.76833 0.224692,-0.26458 0.223247,0.29104 0.409691,0.77324 0.414322,1.07156 0.0046,0.29832 0.151288,0.68527 0.325913,0.8599 0.174625,0.17462 0.2369,0.3175 0.138391,0.3175 -0.09851,0 -0.346282,-0.26789 -0.550606,-0.59531 z m 8.720211,0.12824 c 0.624528,-0.41701 1.004615,-1.56992 0.941036,-2.85443 -0.05508,-1.11283 0.04472,-1.4568 0.594966,-2.05052 0.395129,-0.42636 0.941118,-0.7134 1.356955,-0.7134 0.693468,0 0.695508,0.006 0.607947,1.85268 -0.04832,1.01897 0.0013,1.85241 0.110579,1.85208 0.109141,-2.6e-4 0.198438,-0.84317 0.198438,-1.87298 v -1.87238 l 0.619466,0.7479 c 0.948722,1.14543 1.017268,1.81714 0.262459,2.57195 -0.687197,0.6872 -2.998592,1.6206 -2.998592,1.21091 0,-0.45014 -0.721122,0.0348 -1.016823,0.68377 -0.162112,0.3558 -0.446129,0.64508 -0.63115,0.64285 -0.231299,-0.003 -0.245446,-0.0648 -0.04528,-0.19843 z m -7.400398,-1.98033 c -0.08775,-0.32742 -0.157377,-0.71437 -0.154736,-0.85989 0.0071,-0.39367 0.781722,0.7051 0.781722,1.1089 0,0.57151 -0.455586,0.39057 -0.626986,-0.24901 z m 4.228671,-1.78594 c 0.09059,-0.50932 0.234604,-1.04339 0.320027,-1.18681 0.249468,-0.41884 0.02739,-2.05908 -0.352147,-2.60094 -0.283911,-0.40534 -0.286851,-0.6775 -0.01582,-1.46393 0.306049,-0.88801 0.425146,-0.97276 1.474724,-1.04946 0.983276,-0.0718 1.226402,0.02 1.751306,0.66146 1.064294,1.30067 0.672912,2.55845 -0.964512,3.09963 -0.620721,0.20516 -0.956897,0.52543 -1.138719,1.08485 -0.141888,0.43656 -0.353261,0.85664 -0.469712,0.93351 -0.116451,0.0769 -0.337312,0.43405 -0.4908,0.79375 -0.24588,0.57621 -0.259479,0.54386 -0.114355,-0.27206 z m 2.483731,-3.29167 c 0,-0.0642 -0.119062,-0.19026 -0.264583,-0.2802 -0.145521,-0.0899 -0.264583,-0.0374 -0.264583,0.11668 0,0.1541 0.119062,0.28019 0.264583,0.28019 0.145521,0 0.264583,-0.0525 0.264583,-0.11667 z M 5.8164759,215.2629 c -0.2830959,-0.34295 -0.290236,-0.46443 -0.032397,-0.55121 0.2046454,-0.0689 0.3307292,-0.60725 0.3307292,-1.41219 0,-1.32278 0.1917485,-1.51527 1.1450336,-1.14946 0.3093553,0.11871 0.3425973,0.3326 0.1539311,0.99044 -0.3733411,1.30177 -0.3062245,1.8201 0.2223894,1.7175 0.2546615,-0.0494 0.4790528,-0.26652 0.498647,-0.48242 0.077573,-0.85474 0.1139243,-0.90755 0.3612489,-0.52484 0.1410642,0.21828 0.2583034,0.61436 0.2605317,0.88017 0.00332,0.39596 -0.1714092,0.46817 -0.967006,0.39963 -0.6021919,-0.0519 -1.0125856,0.0409 -1.0803819,0.24431 -0.1499946,0.44998 -0.4610801,0.41098 -0.892726,-0.11193 z m 62.9384361,0.26467 c 0.181901,-0.0734 0.479557,-0.0734 0.661458,0 0.181901,0.0734 0.03307,0.13346 -0.330729,0.13346 -0.363802,0 -0.51263,-0.0601 -0.330729,-0.13346 z m -33.094964,-0.53033 c -0.09701,-0.097 -0.17639,-0.36906 -0.17639,-0.60455 0,-0.23549 -0.475033,-0.82105 -1.055632,-1.30126 -0.868749,-0.71853 -1.009269,-0.95973 -0.79375,-1.36243 0.144037,-0.26913 0.261882,-0.84461 0.261882,-1.27883 0,-1.24301 0.251979,-1.62654 1.068623,-1.62654 1.300991,0 2.385251,2.13001 1.470649,2.88907 -0.28508,0.23659 -0.399391,0.22877 -0.492945,-0.0337 -0.06699,-0.18798 -0.20511,-0.26484 -0.306938,-0.17081 -0.101824,0.094 -0.05111,0.91007 0.112694,1.81341 0.290965,1.60458 0.268452,2.03234 -0.08819,1.67569 z m 22.04861,-0.65397 c 0,-0.15652 -0.183303,-0.21424 -0.407339,-0.12827 -0.329957,0.12661 -0.395624,-0.0423 -0.34566,-0.88908 0.03393,-0.57497 0.217231,-1.10508 0.407342,-1.17804 0.190111,-0.0729 0.345657,-0.31916 0.345657,-0.54713 0,-0.33092 0.105479,-0.35803 0.523211,-0.13447 0.426865,0.22845 0.494736,0.20581 0.36857,-0.12298 -0.114136,-0.29743 0.02604,-0.403 0.53512,-0.403 0.379372,0 0.689766,0.11533 0.689766,0.25628 0,0.14095 0.179943,0.18723 0.399875,0.10283 0.285504,-0.10955 0.353327,-0.0321 0.237133,0.27066 -0.09901,0.25802 0.0034,0.48787 0.261583,0.58693 0.50919,0.1954 0.557257,1.06942 0.0848,1.54188 -0.489606,0.4896 -2.026187,0.68381 -1.853689,0.23428 0.07324,-0.19086 0.0014,-0.34703 -0.159724,-0.34703 -0.161092,0 -0.292891,0.16586 -0.292891,0.36857 0,0.20271 -0.178594,0.4371 -0.396875,0.52087 -0.218281,0.0838 -0.396875,0.0242 -0.396875,-0.1323 z m 0.268634,-1.88161 c 0.0027,-0.22049 0.08955,-0.19844 0.260533,0.0661 0.141065,0.21828 0.256479,0.27781 0.256479,0.13229 0,-0.14552 -0.104442,-0.42949 -0.232093,-0.63105 -0.185433,-0.2928 -0.29287,-0.25291 -0.534424,0.19843 -0.198601,0.3711 -0.208359,0.56491 -0.02844,0.56491 0.15064,0 0.275714,-0.14882 0.277942,-0.33072 z m -38.897801,1.50573 c 0,-0.22687 0.119063,-0.3389 0.264584,-0.24896 0.145521,0.0899 0.264583,0.27555 0.264583,0.41249 0,0.13693 -0.119062,0.24896 -0.264583,0.24896 -0.145521,0 -0.264584,-0.18562 -0.264584,-0.41249 z m 19.314584,-1.08681 c 0,-0.6791 0.04315,-1.18511 0.09589,-1.12448 0.231849,0.26656 0.359151,2.3592 0.143518,2.3592 -0.131672,0 -0.239405,-0.55562 -0.239405,-1.23472 z m -20.835938,0.78341 c -0.392414,-0.0756 -0.601415,-0.31129 -0.613219,-0.69157 l -0.01791,-0.57691 -0.287109,0.59531 c -0.355032,0.73615 -0.770485,0.75899 -1.203174,0.0661 -0.19589,-0.31367 -0.221808,-0.52917 -0.06365,-0.52917 0.146754,0 0.266825,-0.23812 0.266825,-0.52917 0,-0.35277 -0.176389,-0.52916 -0.529167,-0.52916 -0.291041,0 -0.529166,0.11906 -0.529166,0.26458 0,0.14552 -0.119063,0.26458 -0.264584,0.26458 -0.523565,0 -0.248219,-0.79376 0.593481,-1.71088 0.471935,-0.51422 1.045776,-0.93495 1.275203,-0.93495 0.720847,0 1.656239,1.3336 1.619569,2.30904 -0.01906,0.50702 0.07552,0.82044 0.220531,0.73082 0.141132,-0.0872 0.1843,0.0245 0.09719,0.25146 -0.09219,0.24025 0.01736,0.47519 0.266095,0.57063 0.394986,0.15157 0.348574,0.67904 -0.05279,0.59994 -0.100552,-0.0198 -0.450713,-0.0876 -0.778135,-0.1507 z m 34.329688,-1.63413 c 0,-0.14552 0.119062,-0.33816 0.264583,-0.4281 0.145521,-0.0899 0.264583,-0.0445 0.264583,0.10106 0,0.14552 -0.119062,0.33817 -0.264583,0.42811 -0.145521,0.0899 -0.264583,0.0445 -0.264583,-0.10107 z m -19.138194,-0.4722 c -0.09701,-0.097 -0.17639,-0.51373 -0.17639,-0.92604 0,-0.57326 0.124511,-0.74965 0.529167,-0.74965 0.291042,0 0.529167,0.11906 0.529167,0.26458 0,0.14552 -0.132943,0.26458 -0.295429,0.26458 -0.172453,0 -0.242792,0.27534 -0.168981,0.66146 0.122489,0.64076 -0.0553,0.8473 -0.417534,0.48507 z m 16.756944,0.0188 c 0,-0.0867 0.2242,-0.47363 0.498223,-0.8599 1.073629,-1.51339 1.669778,-3.17655 1.600084,-4.46396 -0.100701,-1.86016 -0.01233,-2.77083 0.252963,-2.60687 0.129032,0.0797 0.381735,-0.0323 0.561565,-0.24897 0.392826,-0.47332 1.618985,-0.51881 2.061331,-0.0765 0.174625,0.17463 0.3175,0.21571 0.3175,0.0913 0,-0.12441 0.238125,-0.0107 0.529167,0.25268 0.558559,0.50549 0.769935,2.51354 0.264583,2.51354 -0.145521,0 -0.234817,0.1394 -0.198437,0.30978 0.03638,0.17038 -0.529167,0.5356 -1.256771,0.8116 -0.727604,0.276 -1.362604,0.61286 -1.41111,0.74856 -0.04851,0.1357 -0.263893,0.24673 -0.478637,0.24673 -0.214744,0 -0.316857,0.11906 -0.22692,0.26458 0.08994,0.14552 0.05193,0.26458 -0.08446,0.26458 -0.136388,0 -0.698985,0.65485 -1.250217,1.45521 -0.96538,1.40169 -1.178867,1.63668 -1.178867,1.29762 z M 37.377416,210.9403 c 0,-0.3638 0.06006,-0.51263 0.133454,-0.33073 0.0734,0.1819 0.0734,0.47956 0,0.66146 -0.0734,0.1819 -0.133454,0.0331 -0.133454,-0.33073 z m 16.469546,-0.49067 c 0.277214,-0.31221 0.611663,-0.56766 0.743217,-0.56766 0.372464,0 -0.02355,0.49351 -0.666668,0.83082 -0.576546,0.3024 -0.577078,0.30057 -0.07655,-0.26316 z m 10.740763,-0.28746 c 0,-0.13694 0.119062,-0.32256 0.264583,-0.41249 0.145521,-0.0899 0.264583,0.0221 0.264583,0.24896 0,0.22687 -0.119062,0.41249 -0.264583,0.41249 -0.145521,0 -0.264583,-0.11203 -0.264583,-0.24896 z m -41.275,-0.94166 c 0,-0.21828 0.04679,-0.39688 0.103984,-0.39688 0.05719,0 0.172517,0.1786 0.256279,0.39688 0.08376,0.21828 0.03697,0.39687 -0.103984,0.39687 -0.140953,0 -0.256279,-0.17859 -0.256279,-0.39687 z m 32.702852,-0.36187 c 0.567338,-0.4173 1.130953,-0.70167 1.252481,-0.63192 0.224108,0.12862 -1.609275,1.36723 -2.046231,1.38241 -0.130779,0.005 0.226409,-0.33318 0.79375,-0.75049 z m 9.122203,0.0752 c 0.0127,-0.30823 0.07539,-0.37092 0.159851,-0.15986 0.07643,0.191 0.06703,0.4192 -0.02088,0.50712 -0.08792,0.0879 -0.150453,-0.0684 -0.138964,-0.34726 z m -53.766285,0.0312 c -0.06775,-0.0677 -0.576244,-0.17937 -1.129996,-0.24805 -0.5537517,-0.0687 -1.0837139,-0.2071 -1.1776937,-0.3076 -0.2573303,-0.27518 2.4359987,0.15556 2.7263157,0.43601 0.15825,0.15288 0.150082,0.24282 -0.02205,0.24282 -0.150372,0 -0.328831,-0.0554 -0.396577,-0.12318 z m 10.953566,-0.56046 c -0.324934,-0.37074 -0.801184,-0.65253 -1.058333,-0.62621 -1.052483,0.10775 -1.399831,-0.0514 -1.799722,-0.82473 -0.466904,-0.90289 -0.419634,-2.00252 0.08169,-1.90032 0.178446,0.0364 0.324447,-0.15924 0.324447,-0.43471 0,-0.58105 0.496953,-0.8237 1.675286,-0.81801 1.335516,0.006 1.617759,0.32895 1.544968,1.76528 -0.03549,0.70036 -0.07502,1.77939 -0.08783,2.39786 -0.01281,0.61846 -0.03824,1.12233 -0.05651,1.1197 -0.01826,-0.003 -0.299062,-0.30812 -0.623996,-0.67886 z m 15.229113,-1.23459 c -0.02532,-0.61847 -0.0599,-1.48167 -0.07683,-1.91823 -0.03175,-0.8188 -0.825259,-1.98438 -1.350949,-1.98438 -0.163838,0 -0.509323,-0.46887 -0.767744,-1.04195 -0.987468,-2.18981 0.411792,-3.81768 2.984568,-3.47218 0.190365,0.0256 0.63685,0.29927 0.992188,0.60823 1.009703,0.87793 0.899578,2.43651 -0.261475,3.70062 -0.568364,0.6188 -0.954915,0.86486 -1.039167,0.66145 -0.07378,-0.17813 -0.0678,0.0631 0.01331,0.53602 0.0811,0.47294 0.03568,0.8599 -0.100933,0.8599 -0.139962,0 -0.198266,0.69299 -0.133565,1.5875 0.06316,0.87312 0.04099,1.5875 -0.04926,1.5875 -0.09025,0 -0.184814,-0.50602 -0.210143,-1.12448 z M 9.752829,207.8196 c -0.2546615,-0.0512 -0.4630208,-0.27099 -0.4630208,-0.4884 0,-0.28318 -0.1688666,-0.34781 -0.5953125,-0.22785 -0.3531473,0.0993 -0.4664575,0.0768 -0.2785497,-0.0553 0.2085213,-0.14663 0.2325085,-0.35598 0.070197,-0.61264 -0.3300291,-0.52187 -0.3227636,-1.38925 0.00991,-1.18364 0.1455208,0.0899 0.2645833,0.0374 0.2645833,-0.11668 0,-0.36266 1.5031417,-0.36616 1.7269547,-0.004 0.09388,0.1519 0.02565,0.45094 -0.151623,0.66453 -0.269216,0.32439 -0.220275,0.37696 0.297106,0.31914 0.814276,-0.091 1.064734,0.83018 0.281412,1.03502 -0.295904,0.0774 -0.57415,0.2807 -0.618324,0.45182 -0.04418,0.17112 -0.288677,0.26924 -0.5433382,0.21803 z m 0.066146,-1.11263 c 0,-0.14552 -0.1260893,-0.26459 -0.2801982,-0.26459 -0.154109,0 -0.2066137,0.11907 -0.1166768,0.26459 0.089937,0.14552 0.216026,0.26458 0.2801983,0.26458 0.064172,0 0.1166767,-0.11906 0.1166767,-0.26458 z m 56.223958,1.05833 c 0.08994,-0.14552 0.216027,-0.26458 0.280199,-0.26458 0.06417,0 0.116676,0.11906 0.116676,0.26458 0,0.14552 -0.12609,0.26458 -0.280199,0.26458 -0.154109,0 -0.206613,-0.11906 -0.116676,-0.26458 z m -48.021875,-0.80936 c 0,-0.15411 0.119063,-0.20662 0.264583,-0.11668 0.145521,0.0899 0.264584,0.21603 0.264584,0.2802 0,0.0642 -0.119063,0.11667 -0.264584,0.11667 -0.14552,0 -0.264583,-0.12609 -0.264583,-0.28019 z m 12.182078,-0.10313 c -0.180808,-0.21786 -0.328745,-0.81605 -0.328745,-1.32931 0,-0.51326 -0.107156,-0.9332 -0.238125,-0.9332 -0.130968,0 -0.238125,0.17859 -0.238125,0.39688 0,0.21828 -0.183414,0.39687 -0.407588,0.39687 -0.54647,0 -1.988744,-1.08446 -1.815366,-1.36499 0.07563,-0.12238 0.01945,-0.22251 -0.124851,-0.22251 -0.508191,0 -0.5889,-1.05525 -0.151248,-1.97753 0.243474,-0.51309 0.518411,-0.94808 0.610971,-0.96665 0.777182,-0.15594 1.593249,-0.24836 2.122326,-0.24036 0.74835,0.0113 1.882423,1.14323 1.882423,1.87885 0,0.56103 -0.499001,1.58321 -0.926042,1.89695 -0.14552,0.10692 -0.187825,0.19621 -0.09401,0.19844 0.09382,0.002 0.07866,0.41157 -0.03367,0.90965 -0.126275,0.55989 -0.09712,1.01273 0.07637,1.18622 0.154339,0.15433 0.216223,0.345 0.13752,0.42371 -0.0787,0.0787 -0.291029,-0.0352 -0.47184,-0.25302 z m 8.720005,-0.98369 c 0,-1.30567 0.130789,-1.26361 0.342792,0.11024 0.08481,0.54961 0.04251,0.99219 -0.09484,0.99219 -0.136371,0 -0.247949,-0.49609 -0.247949,-1.10243 z m 6.085417,0.66809 c 0,-0.13947 0.148828,-0.41133 0.330729,-0.60415 0.240996,-0.25546 0.248619,-0.38093 0.02809,-0.46248 -0.166452,-0.0615 -0.240273,-0.3504 -0.164047,-0.64189 0.07623,-0.29149 -0.07839,-0.93289 -0.343588,-1.42534 -0.469016,-0.87091 -0.468148,-0.92177 0.03176,-1.86287 0.504883,-0.95047 0.537916,-0.96558 1.875216,-0.85761 0.748704,0.0604 1.532294,0.28091 1.74131,0.48993 0.54551,0.54551 0.774517,1.68864 0.488828,2.44006 -0.196755,0.5175 -0.395163,0.62621 -0.992621,0.54386 -0.604703,-0.0833 -0.646409,-0.0595 -0.219298,0.12524 0.487508,0.21089 0.463752,0.26107 -0.313967,0.66325 -0.462762,0.2393 -1.057286,0.36518 -1.321165,0.27972 -0.279176,-0.0904 -0.367004,-0.062 -0.210056,0.068 0.174416,0.14445 0.05755,0.44857 -0.330729,0.86062 -0.33025,0.35047 -0.600456,0.52311 -0.600456,0.38364 z M 24.412834,205.6486 c 0,-0.3638 0.06005,-0.51263 0.133453,-0.33072 0.0734,0.1819 0.0734,0.47955 0,0.66145 -0.0734,0.1819 -0.133453,0.0331 -0.133453,-0.33073 z m 9.23953,0.11025 c 0.0127,-0.30823 0.07539,-0.37092 0.15985,-0.15986 0.07643,0.191 0.06703,0.4192 -0.02087,0.50712 -0.08792,0.0879 -0.150453,-0.0684 -0.138965,-0.34726 z m 27.528718,-1.15341 c 0.024,-1.0613 0.153405,-1.61756 0.398177,-1.71149 0.199448,-0.0765 0.362632,-0.32148 0.362632,-0.54433 0,-0.22285 0.178594,-0.40518 0.396875,-0.40518 0.218282,0 0.396875,0.15486 0.396875,0.34413 0,0.6826 0.670738,1.76845 1.093634,1.77047 0.237699,10e-4 0.483463,0.26995 0.546143,0.59738 0.105976,0.55358 0.03395,0.58881 -1.027489,0.50252 -1.01275,-0.0823 -1.141454,-0.0301 -1.141454,0.46302 0,0.37988 -0.167913,0.55581 -0.530469,0.55581 -0.475377,0 -0.526775,-0.16328 -0.494924,-1.57233 z m -44.350649,1.04316 c -0.08994,-0.14552 -0.08091,-0.26458 0.02007,-0.26458 0.100973,0 -0.124707,-0.2425 -0.501513,-0.5389 -0.376805,-0.29639 -0.6505,-0.68335 -0.608212,-0.8599 0.04229,-0.17654 0.02695,-0.23169 -0.03409,-0.12255 -0.205882,0.36814 -1.021675,0.20193 -1.585044,-0.32292 -0.309222,-0.28809 -0.600813,-0.39776 -0.651695,-0.24511 -0.173504,0.52051 -1.533601,-1.04367 -1.565656,-1.80059 -0.04984,-1.17689 0.04601,-1.48463 0.616494,-1.97941 0.858808,-0.74484 1.471575,-0.81625 2.588011,-0.30159 1.121243,0.51687 1.192443,0.70214 1.078523,2.80634 -0.03827,0.70688 0.07366,1.4369 0.253549,1.65365 0.177136,0.21343 0.239848,0.38806 0.139361,0.38806 -0.100488,0 0.06353,0.34581 0.364478,0.76845 0.300951,0.42265 0.547183,0.83937 0.547183,0.92604 0,0.25748 -0.484658,0.17908 -0.661459,-0.10699 z m 16.530415,-1.5875 c -0.04515,-0.65484 -0.101999,-1.66687 -0.126333,-2.24895 -0.02434,-0.58209 -0.180737,-1.89178 -0.347567,-2.91042 -0.166828,-1.01865 -0.305684,-2.3336 -0.308565,-2.92212 -0.0043,-0.88127 -0.194244,-1.27273 -1.076595,-2.21896 -0.974267,-1.04481 -1.064181,-1.25954 -0.992188,-2.36955 0.06376,-0.98304 0.171035,-1.21318 0.551162,-1.18238 0.341439,0.0277 0.430035,-0.094 0.320299,-0.43971 -0.11735,-0.36973 0.03169,-0.51822 0.658231,-0.65584 0.931198,-0.20452 2.915099,0.069 2.915099,0.40188 0,0.12326 0.138851,0.55928 0.30856,0.96893 0.523036,1.26256 0.414536,2.22999 -0.334052,2.97858 -1.036434,1.03643 -1.329386,2.26176 -1.17997,4.93548 0.0724,1.29567 0.03318,3.3678 -0.08717,4.60473 -0.173903,1.78732 -0.235667,2.00456 -0.300906,1.05833 z m -10.698283,-1.04005 c -0.08372,-0.13546 -0.03122,-0.32108 0.116677,-0.41249 0.147895,-0.0914 0.268899,0.0194 0.268899,0.2463 0,0.46475 -0.158764,0.53318 -0.385576,0.16619 z m 33.723076,-1.29949 c 0,-0.41148 0.728959,-0.88976 0.909897,-0.59699 0.08979,0.14528 -0.0782,0.39338 -0.373319,0.55132 -0.295119,0.15794 -0.536578,0.17849 -0.536578,0.0457 z m -35.022655,-1.19671 c -0.237331,-0.50014 -0.431511,-1.04018 -0.431511,-1.20009 0,-0.1599 -0.416719,-0.30562 -0.926042,-0.32381 -1.276696,-0.0456 -1.236432,-0.0299 -2.050521,-0.79713 -0.928275,-0.8748 -0.987125,-2.16793 -0.132291,-2.90689 0.861295,-0.74455 1.730474,-1.04941 2.465757,-0.86487 0.558392,0.14015 0.647684,0.32317 0.677927,1.3895 0.03371,1.18845 0.04047,1.1982 0.209545,0.30204 l 0.174714,-0.92604 0.139637,0.84716 c 0.0768,0.46594 0.0024,1.18032 -0.165325,1.5875 -0.336172,0.8161 -0.271824,1.36018 0.316969,2.68006 0.525287,1.17752 0.271016,1.37134 -0.278859,0.21257 z m 20.970899,-0.0845 c 0.104489,-0.3907 0.342212,-0.7611 0.528272,-0.82312 0.244505,-0.0815 0.220282,0.11543 -0.08737,0.71036 -0.522938,1.01125 -0.692817,1.0547 -0.440907,0.11276 z m 15.178098,0.41916 c -0.311536,-0.11524 -0.571931,-0.42429 -0.578654,-0.68677 -0.0067,-0.26248 -0.0862,-0.92372 -0.176612,-1.46942 -0.133147,-0.80363 -0.08346,-0.99219 0.261435,-0.99219 0.243263,0 0.425823,-0.21741 0.425823,-0.50711 0,-0.27892 0.148828,-0.5572 0.330729,-0.6184 0.455321,-0.1532 1.256771,0.078 1.256771,0.36262 0,0.12855 0.214312,0.23373 0.47625,0.23373 0.609565,0 1.11125,0.50168 1.11125,1.11125 0,0.26193 0.119062,0.47625 0.264583,0.47625 0.145521,0 0.264583,0.11906 0.264583,0.26458 0,0.14552 -0.238125,0.26458 -0.529166,0.26458 -0.576202,0 -0.734042,0.68136 -0.199142,0.85966 0.45008,0.15003 -0.63582,0.71217 -1.590415,0.82332 -0.413052,0.0481 -1.005899,-0.007 -1.317435,-0.1221 z m 1.700636,-2.63993 c 0.03852,-0.50522 0.01807,-0.52882 -0.09675,-0.11157 -0.08008,0.29104 -0.280662,0.62753 -0.445728,0.74775 -0.198302,0.14442 -0.165475,0.18227 0.09675,0.11156 0.218282,-0.0588 0.41886,-0.39534 0.445728,-0.74774 z m -9.176978,1.90087 c 0,-0.32899 0.590886,-1.69856 0.81117,-1.88015 0.145146,-0.11965 0.77633,-1.77781 0.77633,-2.03947 0,-0.0596 -0.113046,-0.0386 -0.251214,0.0468 -0.387717,0.23963 -0.611833,-1.49481 -0.299355,-2.31669 0.342459,-0.90074 1.05921,-1.18876 2.480938,-0.99697 0.875548,0.11812 1.125111,0.27662 1.27278,0.80838 0.101029,0.36381 0.195557,0.48882 0.210061,0.27782 0.05632,-0.8192 0.643734,0.24403 0.643734,1.16516 0,1.23396 -0.711661,1.99661 -1.86313,1.99661 -0.946208,0 -2.722959,1.16533 -2.722972,1.78593 -6e-6,0.18191 -0.119071,0.33073 -0.264592,0.33073 -0.145521,0 -0.264583,0.17157 -0.264583,0.38126 0,0.2097 -0.119063,0.45485 -0.264583,0.54479 -0.145521,0.0899 -0.264584,0.043 -0.264584,-0.10423 z m 4.960356,-3.73223 c 0.07071,-0.26223 0.03286,-0.29506 -0.111567,-0.0968 -0.120219,0.16507 -0.456705,0.36565 -0.747747,0.44573 -0.417248,0.11481 -0.393652,0.13528 0.111567,0.0968 0.352404,-0.0269 0.68889,-0.22745 0.747747,-0.44573 z m -11.714935,2.18546 c 0.190248,-0.75801 0.627586,-1.18405 0.987258,-0.96176 0.116089,0.0717 0.224806,-0.0849 0.241591,-0.34819 0.01677,-0.26325 0.05818,-0.5977 0.09199,-0.74322 0.03381,-0.14552 0.08143,-0.44318 0.105823,-0.66146 0.03632,-0.325 0.08554,-0.33187 0.271809,-0.0379 0.506857,0.79993 0.554606,-0.29114 0.0934,-2.13415 -0.265496,-1.06095 -0.463008,-2.07782 -0.438912,-2.25972 0.0241,-0.1819 0.05869,-0.51635 0.07688,-0.74322 0.01818,-0.22687 0.152135,-0.3389 0.297656,-0.24897 0.145521,0.0899 0.264583,0.007 0.264583,-0.18532 0,-0.19187 0.238125,-0.49756 0.529167,-0.67932 0.291042,-0.18176 0.529167,-0.21786 0.529167,-0.0802 0,0.13764 0.501221,0.24333 1.113827,0.23487 0.612605,-0.008 1.158308,0.11807 1.212672,0.28117 0.05437,0.1631 0.25427,0.29654 0.444228,0.29654 0.415335,0 0.750602,1.56655 0.526425,2.45975 -0.165039,0.65756 -1.536043,1.57135 -2.804871,1.86948 -0.428496,0.10068 -0.756812,0.39704 -0.849657,0.76696 -0.08322,0.33159 -0.379478,0.84779 -0.658352,1.14712 -0.278871,0.29934 -0.589706,0.80471 -0.690745,1.12306 -0.101039,0.31835 -0.281498,0.51838 -0.401018,0.44451 -0.11952,-0.0739 -0.291812,0.16253 -0.382868,0.52532 -0.09106,0.3628 -0.295257,0.65963 -0.453782,0.65963 -0.182054,0 -0.221202,-0.26704 -0.106272,-0.72495 z m -15.735004,-0.20109 c -0.189851,-0.22875 -0.215566,-0.39687 -0.0607,-0.39687 0.14777,0 0.337204,0.17859 0.420969,0.39687 0.08376,0.21828 0.111077,0.39688 0.0607,0.39688 -0.05037,0 -0.239811,-0.1786 -0.420968,-0.39688 z m 11.792974,-2.46864 c 0.125587,-0.94672 0.0895,-1.36782 -0.117221,-1.36782 -0.164269,0 -0.29867,-0.39596 -0.29867,-0.87992 0,-0.58887 -0.211912,-1.079 -0.640672,-1.4818 -0.878078,-0.82491 -0.8083,-2.65434 0.131069,-3.43632 0.69949,-0.5823 1.567937,-0.72579 1.567937,-0.25907 0,0.1621 0.192701,0.21895 0.431509,0.12731 0.258244,-0.0991 0.789437,0.10742 1.322916,0.51432 0.690875,0.52696 0.891408,0.87398 0.891408,1.5426 0,0.94004 -0.90034,2.14968 -1.379569,1.8535 -0.162605,-0.1005 -0.215001,-0.0582 -0.119433,0.0964 0.09364,0.15152 0.0024,0.41489 -0.20302,0.58528 -0.205304,0.17039 -0.452583,0.77919 -0.549511,1.3529 -0.09692,0.5737 -0.273679,1.0431 -0.392787,1.0431 -0.119105,0 -0.159893,0.21667 -0.09064,0.4815 0.06925,0.26483 -0.06774,0.64222 -0.304421,0.83865 -0.391264,0.32472 -0.413864,0.23295 -0.248894,-1.01067 z m -12.802287,0.12602 c -0.288028,-0.79876 -0.475855,-0.96467 -1.092083,-0.96467 -0.910727,0 -1.316171,-0.45306 -1.517901,-1.69618 -0.121727,-0.75012 -0.06731,-0.94965 0.258985,-0.94965 0.2272,0 0.451138,-0.26301 0.497639,-0.58447 0.09592,-0.6631 0.894464,-0.94122 2.248559,-0.78314 0.721557,0.0842 0.878697,0.2157 0.878697,0.7351 0,0.34788 0.152625,0.63251 0.339167,0.63251 0.186542,0 0.363977,0.29977 0.394301,0.66616 0.04763,0.57553 -0.0345,0.64991 -0.603674,0.5467 -0.590419,-0.10706 -0.629126,-0.064 -0.372865,0.41483 0.157269,0.29386 0.216767,0.60347 0.132216,0.68802 -0.08455,0.0846 -0.153728,0.008 -0.153728,-0.17056 0,-0.17837 -0.121004,-0.24951 -0.268899,-0.15811 -0.147895,0.0914 -0.200399,0.27702 -0.116677,0.41249 0.08372,0.13547 0.02613,0.2463 -0.127976,0.2463 -0.154109,0 -0.280198,-0.13891 -0.280198,-0.30868 0,-0.16977 -0.07955,-0.22913 -0.176787,-0.13189 -0.09723,0.0972 -0.02596,0.45861 0.158389,0.80307 0.184347,0.34445 0.293667,0.83791 0.242933,1.09656 -0.06279,0.32012 -0.203308,0.16227 -0.440098,-0.49439 z"
         id="path6128"
         inkscape:connector-curvature="0" />
    </g>
  </g>
</svg>
