<?xml version="1.0" encoding="UTF-8" standalone="no"?>
<!-- Created with Inkscape (http://www.inkscape.org/) -->

<svg
   xmlns:dc="http://purl.org/dc/elements/1.1/"
   xmlns:cc="http://creativecommons.org/ns#"
   xmlns:rdf="http://www.w3.org/1999/02/22-rdf-syntax-ns#"
   xmlns:svg="http://www.w3.org/2000/svg"
   xmlns="http://www.w3.org/2000/svg"
   xmlns:sodipodi="http://sodipodi.sourceforge.net/DTD/sodipodi-0.dtd"
   xmlns:inkscape="http://www.inkscape.org/namespaces/inkscape"
   version="1.1"
   id="svg2949"
   width="283"
   height="443"
   viewBox="0 0 283 443"
   sodipodi:docname="feu154.svg"
   inkscape:version="0.92.4 (5da689c313, 2019-01-14)">
  <metadata
     id="metadata2955">
    <rdf:RDF>
      <cc:Work
         rdf:about="">
        <dc:format>image/svg+xml</dc:format>
        <dc:type
           rdf:resource="http://purl.org/dc/dcmitype/StillImage" />
        <dc:title></dc:title>
      </cc:Work>
    </rdf:RDF>
  </metadata>
  <defs
     id="defs2953" />
  <sodipodi:namedview
     pagecolor="#ffffff"
     bordercolor="#666666"
     borderopacity="1"
     objecttolerance="10"
     gridtolerance="10"
     guidetolerance="10"
     inkscape:pageopacity="0"
     inkscape:pageshadow="2"
     inkscape:window-width="1280"
     inkscape:window-height="972"
     id="namedview2951"
     showgrid="false"
     inkscape:zoom="1.0654628"
     inkscape:cx="114.4831"
     inkscape:cy="224.72047"
     inkscape:window-x="-8"
     inkscape:window-y="-8"
     inkscape:window-maximized="1"
     inkscape:current-layer="g928"
     showguides="true" />
  <g
     id="g151"
     transform="translate(25.882805,-2.654647)">
    <g
       id="g534"
       transform="translate(-21.900834,-45.792654)">
      <g
         id="g928"
         transform="translate(-3.9819699,-1.3273232)">
        <g
           id="g1450"
           transform="translate(7.9639398,-25.219142)">
          <path
             style="fill:#ffff00"
             d="m 133.49528,404.85125 c -0.95483,-2.33217 -0.94607,-13.49201 0.0397,-50.49931 0.54035,-20.28648 0.46131,-29.8694 -0.25,-30.30901 -0.57211,-0.35358 -1.04314,-0.27882 -1.04674,0.16614 -0.004,0.44496 -0.86646,6.65902 -1.91746,13.80902 -2.12264,14.4404 -2.50372,18.00181 -4.01258,37.5 -1.52466,19.70226 -2.93659,27 -5.22381,27 -2.68211,0 -2.69041,-0.47778 -0.37355,-21.5 1.79956,-16.32833 4.05494,-33.33469 6.09075,-45.92622 0.79376,-4.90941 1.40215,-9.63441 1.35198,-10.5 -0.17296,-2.98422 -3.88164,10.43382 -3.8952,14.09289 -0.007,2.01666 -0.43977,3.81666 -0.96068,4 -0.5209,0.18333 -1.60292,3.25833 -2.40448,6.83333 -0.80155,3.575 -2.15933,9.2 -3.01728,12.5 -1.91854,7.37948 -1.94179,7.79968 -0.38114,6.88712 0.6875,-0.402 0.50379,0.13394 -0.40825,1.19099 -0.91462,1.06003 -1.94592,4.61255 -2.29975,7.92189 -1.56217,14.61109 -2.69005,19.49029 -4.85612,21.00746 -3.44634,2.41392 -4.97388,1.90815 -4.47629,-1.48211 0.40317,-2.74698 0.24472,-2.92649 -2.07029,-2.34546 -2.21642,0.55628 -2.34127,0.45191 -1.07761,-0.90084 0.78609,-0.84152 2.09884,-1.43175 2.91722,-1.31164 1.09248,0.16034 2.08212,-2.19841 3.72337,-8.87451 1.22947,-5.0011 2.46473,-10.73611 2.74502,-12.74449 0.28028,-2.00837 1.16477,-5.60837 1.96552,-8 1.6301,-4.86865 5.16056,-18.5376 6.62971,-25.66836 2.61395,-12.6873 4.96102,-22.44622 7.21524,-30.00036 1.36557,-4.57617 2.16807,-7.95117 1.78335,-7.5 -0.7682,0.90088 -9.54503,23.61179 -10.36494,26.82031 -0.2811,1.1 -1.71422,5.15 -3.18472,9 -1.47049,3.85 -4.42576,12.9925 -6.56726,20.31666 -2.14149,7.32416 -4.54739,14.74916 -5.34644,16.5 -3.07583,6.73964 -4.468107,10.7336 -3.54221,10.16137 1.49625,-0.92473 1.14005,0.29402 -0.721267,2.46789 -0.92715,1.08283 -2.164654,3.45048 -2.750005,5.26143 -1.570669,4.85933 -4.148215,4.37361 -3.753662,-0.70735 0.303069,-3.90285 4.821273,-20.0083 6.171857,-22 1.448457,-2.13605 7.194167,-19.6567 6.630907,-20.21996 -0.32782,-0.32781 -0.10396,-1.18893 0.49745,-1.91359 1.30524,-1.57271 11.96929,-27.61966 11.50006,-28.08889 -0.74337,-0.74337 -2.66497,2.73912 -5.92541,10.7385 -2.85812,7.01233 -14.304037,31.51413 -22.598777,48.37627 -2.122419,4.31461 -1.819769,7.46095 0.530083,5.51075 1.069852,-0.88793 1.383177,-0.81821 1.383177,0.30781 0,2.2694 -0.997651,2.7405 -3.659971,1.72829 -1.609941,-0.6121 -2.242341,-0.59013 -1.838161,0.0638 0.338891,0.54834 0.192092,0.99698 -0.32622,0.99698 -0.518312,0 -1.177741,0.9 -1.465397,2 -0.287656,1.1 -1.299392,2 -2.2483,2 -3.084642,0 -1.136908,-6.65751 6.498464,-22.21228 3.968954,-8.08554 7.225987,-15.058 7.237853,-15.49435 0.01187,-0.43635 0.802538,-1.91837 1.757049,-3.29337 0.95451,-1.375 2.96595,-5.2 4.46988,-8.5 1.50392,-3.3 4.78857,-10.11837 7.29922,-15.15194 3.02128,-6.05733 4.3281,-9.76882 3.86474,-10.9763 -0.61514,-1.60304 -0.91424,-1.46329 -2.4655,1.15194 -0.97099,1.63697 -3.37643,5.6763 -5.34542,8.9763 -1.96899,3.3 -4.67047,8.025 -6.003287,10.5 -2.575343,4.78232 -12.787166,22.76107 -21.157776,37.25 -3.369624,5.83262 -5.648924,8.75004 -6.836132,8.75004 -1.03554,0 -1.781042,-0.73902 -1.781042,-1.76555 0,-1.69409 11.144072,-21.60158 22.906898,-40.9203 3.076206,-5.05222 8.743099,-14.37984 12.593099,-20.72806 3.85,-6.34821 7.36406,-11.55208 7.80902,-11.56415 0.44496,-0.0121 0.5309,-0.47194 0.19098,-1.02194 -0.33992,-0.55 -0.21776,-1 0.27146,-1 0.92397,0 5.21884,-5.76217 9.13063,-12.25 1.24356,-2.0625 2.04486,-3.75 1.78066,-3.75 -1.64505,0 -29.772996,37.738 -39.87613,53.5 -2.467774,3.85 -7.000236,10.35979 -10.072137,14.4662 -3.071901,4.10641 -5.3217,7.93141 -4.999552,8.5 0.322147,0.56859 0.237625,0.72035 -0.187827,0.33724 -0.425453,-0.3831 -2.533063,1.5294 -4.683579,4.25 -3.976422,5.03055 -6.863522,6.36991 -6.863522,3.18406 0,-0.96937 2.250726,-5.08276 5.001613,-9.14087 5.764116,-8.50322 5.637213,-8.33888 25.498387,-33.02065 8.25,-10.2524 15.797867,-19.86366 16.773047,-21.35835 1.71428,-2.62754 1.70966,-2.71763 -0.13921,-2.71763 -2.63666,0 -4.37033,1.66685 -16.788442,16.14132 -22.290787,25.98201 -26.523235,31.34751 -25.519501,32.35124 0.370758,0.37076 0.224106,0.53839 -0.325894,0.37252 -0.55,-0.16588 -3.781381,2.60274 -7.180846,6.15249 -3.399465,3.54974 -6.491009,6.14391 -6.870096,5.76482 -1.095218,-1.09522 0.297346,-5.05156 2.775097,-7.8842 1.94363,-2.22201 13.193878,-14.85353 16.282181,-18.28125 0.553484,-0.61432 2.276931,-2.69194 3.829882,-4.61694 1.552951,-1.925 8.4126,-9.16118 15.243665,-16.08041 10.527988,-10.66386 13.962967,-14.91959 12.042227,-14.91959 -0.732911,0 -12.07239,10.57801 -18.059996,16.84724 -3.334163,3.49098 -7.531596,7.36224 -9.327629,8.6028 -1.796034,1.24056 -7.460608,6.28192 -12.587943,11.20302 -11.499244,11.03671 -18.497748,16.82907 -19.329025,15.99779 -1.72078,-1.72078 2.657441,-6.27838 25.121592,-26.15085 3.730371,-3.3 7.970133,-7.1357 9.421692,-8.52378 1.45156,-1.38808 3.9199,-3.51183 5.4852,-4.71944 7.414584,-5.72025 16.78944,-15.46144 16.245121,-16.87992 -0.581184,-1.51454 -3.129406,0.30758 -14.992653,10.72058 -2.254158,1.9786 -7.283552,6.0286 -11.176432,9 -3.892879,2.97141 -8.842879,6.85427 -11,8.62857 -8.517013,7.00554 -25.963841,20.26383 -26.672037,20.26876 -1.174705,0.008 -0.879307,-2.452 0.5,-4.16418 0.6875,-0.85342 6.2,-5.23727 12.25,-9.74188 6.05,-4.50461 13.925,-10.41792 17.5,-13.14069 3.575,-2.72277 10.1,-7.65812 14.5,-10.96745 13.4593,-10.123 16.946524,-13.10398 18.315921,-15.65698 0.91814,-1.71172 -4.82524,1.69932 -19,11.28425 -23.982792,16.21708 -24.030508,16.24907 -29.815921,19.98572 -2.475,1.59854 -5.00306,3.37736 -5.617911,3.95292 -3.146235,2.94521 -14.429213,9.54243 -15.348437,8.97432 -1.758996,-1.08712 0.374453,-3.64166 5.797276,-6.94151 10.2911,-6.26227 29.039726,-18.19173 41.669072,-26.51339 7.15,-4.71125 13.413913,-8.74137 13.919807,-8.95584 1.056578,-0.44791 6.244838,-4.11567 12.654033,-8.94557 2.434387,-1.83453 6.901157,-4.57636 9.926157,-6.09296 6.71611,-3.36716 12.8051,-7.06272 11.64526,-7.06779 -1.19823,-0.005 -47.836165,24.14913 -50.145257,25.97085 -0.55,0.43392 -3.7,2.24505 -7,4.02474 -3.3,1.77969 -8.925,4.81393 -12.5,6.74276 -3.575,1.92882 -8.3,4.73143 -10.5,6.22801 -6.615406,4.50023 -20.334672,11.25011 -21.456656,10.55669 -1.88889,-1.1674 0.619571,-4.0087 5.625205,-6.37159 2.657298,-1.25437 5.580018,-2.68194 6.494933,-3.17238 1.613244,-0.86478 27.183338,-14.08837 39.336518,-20.34291 3.3,-1.69832 6.225,-3.10119 6.5,-3.11749 0.275,-0.0163 2.682285,-1.31074 5.349522,-2.87651 3.527005,-2.07049 4.549532,-3.14686 3.749493,-3.9469 -1.289835,-1.28983 -16.290087,4.33877 -35.195858,13.20669 -3.628264,1.70186 -7.228264,3.10431 -8,3.11654 -0.771736,0.0122 -2.528157,0.90222 -3.903157,1.97776 -1.375,1.07554 -2.993363,1.96553 -3.596362,1.97776 -0.602999,0.0122 -2.402999,0.65234 -4,1.42247 -11.747067,5.66484 -17.700816,7.73759 -18.510089,6.44415 -1.529764,-2.44498 0.875755,-3.61202 31.856451,-15.45516 15.662562,-5.98741 19.951245,-7.65163 22.75,-8.82812 1.65,-0.6936 4.575,-1.86772 6.5,-2.60916 1.925,-0.74145 4.782963,-2.1142 6.351029,-3.05056 2.609209,-1.55807 2.684412,-1.75536 0.886635,-2.32595 -1.972084,-0.62591 -14.297452,3.09318 -48.171863,14.53552 -9.588809,3.23898 -18.801309,5.88905 -20.472222,5.88905 -3.0131269,0 -3.0218609,-0.0157 -1.065801,-1.91568 1.10864,-1.07685 8.321373,-3.7498 16.472222,-6.10438 19.369891,-5.5955 21.047833,-6.05731 24.26224,-6.67755 1.519232,-0.29314 3.008289,-0.9311 3.309017,-1.41769 0.300727,-0.48658 1.624045,-0.8847 2.940707,-0.8847 1.316661,0 3.427604,-0.395 4.690983,-0.87779 1.263379,-0.48278 5.752283,-1.93988 9.975341,-3.23801 6.77591,-2.08284 7.868694,-2.75951 9.298443,-5.75772 l 1.620155,-3.39751 -4.798443,0.67071 c -6.636451,0.92761 -6.538792,0.90726 -33.798443,7.04227 -8.8,1.98051 -20.595093,4.45397 -26.211317,5.49656 -5.616224,1.0426 -10.5711866,2.11805 -11.011028,2.38989 -0.4398415,0.27184 -1.670563,-0.14253 -2.7349367,-0.92082 -2.6929121,-1.96911 -1.1039875,-3.1112 5.4572817,-3.92259 3.025,-0.37409 5.853488,-0.89768 6.285528,-1.16355 0.432041,-0.26586 3.357041,-0.8765 6.5,-1.35698 6.0775,-0.92909 14.332211,-2.45263 17.837752,-3.29226 1.167803,-0.27971 3.867803,-0.76535 6,-1.0792 3.707166,-0.54569 8.055683,-1.41159 25.87672,-5.15271 4.4,-0.92368 10.025,-2.07941 12.5,-2.56828 12.417696,-2.4528 12.523515,-2.69557 1,-2.29421 -20.044835,0.69816 -45.197302,2.71465 -62,4.97058 -1.925,0.25845 -7.325,0.87753 -12,1.37573 -4.6749999,0.49821 -9.1749999,1.05659 -9.9999999,1.24086 -2.4961242,0.55752 -1.6797018,-2.55372 1,-3.81082 2.3195681,-1.08815 5.920011,-1.5084 24.4999999,-2.85969 18.06573,-1.31389 48.749585,-4.43531 49.350136,-5.02032 0.192574,-0.18759 0.01023,-0.89106 -0.40521,-1.56325 -0.586608,-0.94915 -7.701614,-1.03911 -31.850135,-0.4027 -17.102135,0.45071 -33.746119,0.77192 -36.9866302,0.7138 -6.3855098,-0.11452 -8.85161001,-1.38261 -6.752094,-3.47199 0.9719005,-0.96721 9.6140772,-1.17415 38.2000002,-0.91471 33.196726,0.30127 36.943933,0.17449 36.943933,-1.25 0,-0.95622 -0.892845,-1.61358 -2.25,-1.65657 -4.875814,-0.15448 -10.167203,-1.06826 -11.67003,-2.01534 -1.076412,-0.67835 0.491667,-0.75353 4.92003,-0.23588 3.575,0.41789 9.718383,0.77391 13.651962,0.79115 4.088508,0.0179 6.90952,0.42539 6.585955,0.95129 -0.311304,0.50597 0.182813,0.63259 1.098038,0.28138 0.915225,-0.3512 1.664045,-0.25444 1.664045,0.21502 0,0.77708 9.56463,2.42649 20.999997,3.62144 4.46718,0.4668 4.45989,0.45984 -1,-0.95462 -3.025,-0.78366 -10.674997,-2.61174 -16.999997,-4.06239 -6.325,-1.45065 -13.975,-3.27588 -17,-4.05606 C 66.091136,248.36408 42.242537,243.56161 28.935731,241.45603 3.1238539,237.37175 -0.93142043,236.2302 0.7435738,233.52 c 0.7802999,-1.26255 10.9838212,-0.51801 15.3025862,1.11661 1.265775,0.47909 3.740775,1.11904 5.5,1.42211 3.217594,0.55432 11.709228,2.50181 30.198593,6.9258 15.844626,3.79119 27.631572,6.35076 32.5,7.05747 2.475,0.35928 6.895868,1.33001 9.824152,2.15718 7.719195,2.18049 7.308815,1.07003 -0.587651,-1.59016 -3.705076,-1.24817 -7.636501,-2.6574 -8.736501,-3.13161 -5.572399,-2.40229 -40.3086,-13.9614 -45,-14.97458 -19.204656,-4.14754 -35.1831075,-8.66297 -36.1412913,-10.21334 -0.9288201,-1.50287 1.8156291,-2.83494 4.6412914,-2.25275 1.375,0.2833 3.3999999,0.70619 4.4999999,0.93976 3.0911,0.65633 33.206168,10.67675 50.870461,16.92651 8.728753,3.0883 16.261212,5.61509 16.738798,5.61509 0.477586,0 0.778827,-1.08154 0.669424,-2.40343 -0.160523,-1.93956 -1.750646,-3.17302 -8.238798,-6.39087 C 56.472904,226.63387 40.991854,220.27812 20.744753,213.3588 12.583938,210.5699 9.0408931,208.62994 9.5138401,207.20943 10.057644,205.5761 13.068881,205.121 15.62619,206.28566 c 1.16521,0.53066 3.243563,1.41924 4.618563,1.97462 8.312582,3.35757 22.110575,9.75212 40.707092,18.86531 11.663901,5.71588 21.563901,10.37819 22,10.3607 0.436099,-0.0175 1.603049,-0.64616 2.593221,-1.39704 1.651022,-1.25201 1.300483,-1.66886 -4.227153,-5.02672 -3.315107,-2.01382 -6.319101,-4.13336 -6.675543,-4.7101 -1.193356,-1.93089 3.461792,0.19534 10.371032,4.73696 3.702243,2.43357 7.100272,4.42558 7.551176,4.42669 0.450903,0.001 2.700903,1.28004 5,2.84207 2.299095,1.56204 7.330172,4.50693 11.180172,6.54421 6.03715,3.19463 6.58735,3.34424 4,1.08765 -1.65,-1.43907 -4.575,-3.68462 -6.5,-4.99012 -1.925,-1.3055 -7.324997,-5.15956 -11.999997,-8.56459 -4.675,-3.40502 -12.55,-8.92874 -17.5,-12.27492 -4.95,-3.34619 -9.15,-6.43459 -9.333333,-6.86313 -0.183334,-0.42854 -0.854437,-0.77916 -1.491341,-0.77916 -0.636904,0 -3.411904,-1.5085 -6.166667,-3.35223 -2.754762,-1.84373 -8.158659,-5.36027 -12.008659,-7.81455 -23.230182,-14.80862 -27.874429,-18.36857 -25.268102,-19.36871 1.628147,-0.62478 8.558773,2.46165 11.559593,5.14786 0.93968,0.84116 6.433509,4.64794 12.208509,8.45952 13.121366,8.66027 30.477945,20.42838 39,26.4428 3.575,2.52304 7.276722,5.02446 8.226049,5.5587 3.185946,1.79291 0.586624,-2.47675 -3.726049,-6.12043 -2.2,-1.85873 -6.056976,-5.19604 -8.571058,-7.41624 -12.5783,-11.10796 -32.381074,-27.02283 -41.428942,-33.29516 -10.014871,-6.94269 -11.136303,-7.99679 -9.864902,-9.27267 0.848938,-0.85192 1.857346,-0.75917 4,0.36791 2.949349,1.55141 40.127271,32.73036 54.864902,46.01198 4.145012,3.7355 5.5,4.3816 5.5,2.62258 0,-0.56575 -12.920158,-13.95042 -28.711463,-29.74372 -20.47506,-20.47765 -28.207137,-28.81222 -26.953421,-29.05366 2.14115,-0.41235 7.56435,3.94464 18.719593,15.03928 9.443402,9.39209 30.4471,31.22192 36.192688,37.61623 3.316222,3.69065 5.752603,5.22713 5.752603,3.62781 0,-0.86826 -6.999633,-9.97494 -18.151381,-23.61536 -5.69174,-6.96194 -13.931435,-17.08694 -18.310432,-22.5 -4.378998,-5.41307 -9.891498,-12.02811 -12.25,-14.70009 -2.358503,-2.67199 -4.288187,-5.25949 -4.288187,-5.75 0,-3.1307 6.854893,2.53432 17.071413,14.10815 5.744907,6.50815 21.336789,26.66119 28.625929,37 9.895965,14.0363 13.594185,18.20378 14.072675,15.85831 0.33621,-1.64806 -20.583943,-34.43895 -31.457111,-49.30683 -7.609186,-10.40473 -17.300172,-24.85193 -17.307286,-25.80148 -0.01214,-1.62055 3.756939,-0.62798 5.695913,1.5 2.97271,3.26247 15.805452,23.33446 33.085641,51.75 5.184263,8.525 10.430423,16.85 11.658153,18.5 1.22772,1.65 3.45368,5.475 4.94657,8.5 1.49288,3.025 3.39236,6.0193 4.22106,6.654 0.96254,0.73721 1.13049,1.38652 0.46504,1.7978 -0.57293,0.35409 -2.63869,-1.85271 -4.59057,-4.904 -1.95189,-3.05129 -3.76863,-5.5478 -4.03721,-5.5478 -1.16484,0 1.1026,5.72649 3.74002,9.44555 1.5814,2.22995 3.63764,5.17945 4.56942,6.55445 0.93178,1.375 1.95122,2.725 2.26542,3 0.3142,0.275 1.65808,2.075 2.98638,4 1.32831,1.925 2.92829,3.95 3.55552,4.5 0.62723,0.55 1.93662,2.125 2.90976,3.5 1.10522,1.56162 1.53388,1.80826 1.14204,0.6571 -0.34502,-1.0136 -0.92235,-3.0386 -1.28295,-4.5 -0.3606,-1.46141 -1.48368,-3.38488 -2.49573,-4.2744 -1.01206,-0.88951 -1.8401,-2.12594 -1.8401,-2.74762 0,-0.62168 -2.17192,-5.06889 -4.82648,-9.8827 -2.65457,-4.81381 -6.29766,-11.67738 -8.09575,-15.25238 -1.7981,-3.575 -6.31792,-12.35 -10.04405,-19.5 -11.772693,-22.59041 -31.033717,-61.34657 -31.033717,-62.44464 0,-0.58045 0.893615,-1.05536 1.985812,-1.05536 2.530182,0 6.317102,5.66078 8.996223,13.44778 1.125003,3.26988 2.679683,6.91318 3.454844,8.09623 0.775161,1.18304 2.52986,4.80711 3.899332,8.05349 1.369472,3.24637 4.81732,10.8525 7.661883,16.9025 2.844566,6.05 6.033673,12.9125 7.086913,15.25 1.05325,2.3375 2.81381,6.24771 3.91236,8.68936 2.3137,5.14243 3.55052,6.18075 5.46739,4.58988 1.16026,-0.96292 1.07953,-1.88209 -0.51256,-5.83609 -1.03934,-2.58123 -4.83026,-12.34315 -8.42426,-21.69315 -3.59401,-9.35 -6.983062,-17.78139 -7.531243,-18.73643 -0.548182,-0.95504 -0.996694,-2.27558 -0.996694,-2.93454 0,-0.65896 -2.952869,-7.7022 -6.56193,-15.65164 -6.800747,-14.97956 -7.178828,-17.74719 -2.108836,-15.43715 1.981662,0.9029 3.265531,3.84016 7.615499,17.42287 2.877608,8.98529 7.035734,21.96189 9.240294,28.83689 2.20455,6.875 5.58649,16.87859 7.51542,22.23021 3.17318,8.80363 3.73533,9.71132 5.90335,9.53189 1.31791,-0.10907 2.3962,-0.52821 2.3962,-0.93142 0,-1.10374 -2.54083,-10.28281 -5.48926,-19.83068 -1.44367,-4.675 -3.22689,-10.525 -3.96271,-13 -0.73582,-2.475 -3.43729,-11.25 -6.00327,-19.5 -8.055488,-25.89962 -8.736911,-29.5 -5.583301,-29.5 1.439694,0 2.201181,0.99754 2.862661,3.75 12.35161,51.39609 21.15813,82.6518 22.80702,80.94563 0.10398,-0.1076 -0.89244,-5.82063 -2.21426,-12.69563 -1.32183,-6.875 -2.865,-15.875 -3.42927,-20 -1.25923,-9.20544 -3.25653,-20.46542 -5.85354,-33 -2.64409,-12.76184 -3.09933,-20.5 -1.20602,-20.5 1.99016,0 2.84038,3.66022 5.06247,21.79405 1.06446,8.68673 2.17691,17.23673 2.47211,19 0.65878,3.93502 1.09709,6.69707 2.6233,16.53113 0.6551,4.22115 2.27841,13.07482 3.60734,19.67482 1.32893,6.6 3.31717,18.06307 4.4183,25.47348 1.10113,7.41042 2.20149,13.67292 2.44524,13.91667 1.62232,1.62232 -2.67363,-50.0407 -7.34994,-88.39015 -2.20509,-18.08351 -2.28296,-29 -0.20687,-29 1.04159,0 1.71028,1.52804 2.18809,5 0.74919,5.44406 3.20969,36.58376 4.89821,61.99119 0.58451,8.79515 1.22427,16.15272 1.42169,16.35014 0.19742,0.19742 0.83582,0.0642 1.41866,-0.296 0.72456,-0.4478 0.9828,-13.4303 0.81653,-41.04907 -0.17786,-29.54351 0.0677,-40.70531 0.91418,-41.55256 0.87694,-0.87774 1.3982,-0.7084 2.15139,0.69894 1.30406,2.43666 1.19125,-1.02207 1.19125,36.52403 0,18.24166 0.17402,32.97916 0.38672,32.75 0.21269,-0.22917 1.13594,-7.16667 2.05166,-15.41667 1.98093,-17.84676 6.44562,-47.03767 7.70226,-50.35869 0.76192,-2.01359 1.12344,-2.16703 2.47088,-1.04876 1.84691,1.5328 1.61671,4.78487 -2.22319,31.40745 -1.34859,9.35 -2.88629,20.6 -3.41711,25 -0.53081,4.4 -1.41388,10.7 -1.96237,14 -1.2059,7.25526 -1.23987,8.5 -0.23198,8.5 0.42727,0 1.82824,-6.4125 3.11325,-14.25 3.43401,-20.94452 10.71132,-56.82977 12.16763,-60 0.69481,-1.5125 1.61072,-2.75 2.03538,-2.75 1.35783,0 2.03388,3.79428 1.37308,7.70629 -1.51149,8.94816 -5.62149,27.77582 -8.79596,40.29371 -5.2135,20.5584 -7.92644,33.07714 -7.30322,33.70037 0.30943,0.30943 0.0813,1.46182 -0.50685,2.56088 -0.91328,1.70649 -2.18872,7.06823 -5.52796,23.23875 -1.36029,6.58734 0.95631,1.14628 2.62639,-6.16865 4.15796,-18.21185 12.8059,-49.1957 20.74672,-74.33135 5.98599,-18.94788 7.5854,-23.14694 8.79467,-23.08938 3.05747,0.14552 1.10415,8.31477 -9.85151,41.20142 -6.30068,18.91338 -11.76794,35.96296 -12.14945,37.88796 -0.38151,1.925 -1.54987,6.16182 -2.59635,9.41516 -2.91366,9.05809 -2.12687,9.12279 1.03172,0.0848 5.53888,-15.84889 6.092,-17.32208 7.56188,-20.14041 0.82026,-1.57278 1.49416,-3.20122 1.49755,-3.61877 0.008,-0.98442 8.94858,-21.92948 9.92056,-23.24082 0.40766,-0.55 1.56108,-3.25 2.56315,-6 4.43623,-12.17449 12.50742,-28.73212 14.27245,-29.27921 2.27766,-0.706 1.45969,7.87035 -1.19315,12.50999 -1.33049,2.32694 -6.54292,13.35194 -11.58319,24.50001 -16.01355,35.41879 -14.98914,32.78169 -12.72366,32.75385 1.08786,-0.0134 7.47234,-12.38368 23.21715,-44.98464 4.43737,-9.18794 11.2892,-20 12.67443,-20 1.62991,0 0.84438,5.51077 -1.2829,9 -1.17362,1.925 -8.4208,15.80364 -16.10485,30.84141 -9.88419,19.34346 -13.65941,27.65301 -12.9058,28.40662 0.75362,0.75362 1.58982,0.10845 2.85859,-2.20555 0.98636,-1.79892 2.69362,-4.68189 3.79391,-6.40662 1.10029,-1.72472 3.76987,-6.06086 5.93241,-9.63586 2.16253,-3.575 4.19591,-6.725 4.51862,-7 0.77208,-0.65794 17.94663,-26.11757 20.64784,-30.60845 3.15326,-5.24241 4.4006,-6.24635 4.4006,-3.54185 0,3.7598 -2.60846,8.09133 -26.76318,44.44197 -6.86779,10.3354 -12.25832,19.0202 -11.97896,19.29956 0.27936,0.27937 1.57313,-0.88091 2.87504,-2.57839 1.3019,-1.69749 3.6046,-4.5917 5.1171,-6.43158 1.5125,-1.83989 2.75,-3.60289 2.75,-3.91778 0,-0.31489 1.0125,-1.63671 2.25,-2.93737 4.55018,-4.78241 14.59484,-16.45514 21.27737,-24.72607 8.59655,-10.6399 14.94297,-17.19633 15.8081,-16.3312 1.49283,1.49283 0.42218,3.71106 -4.17068,8.64106 -5.35525,5.74834 -15.40584,17.9466 -27.83391,33.7816 -4.49301,5.7247 -9.31664,11.48645 -10.71918,12.8039 -1.40253,1.31745 -2.32675,2.75668 -2.05382,3.1983 0.27294,0.44161 2.39657,-1.3113 4.71918,-3.89536 2.32262,-2.58407 4.65062,-4.87836 5.17333,-5.09843 0.52272,-0.22007 10.40504,-9.78257 21.96072,-21.25 11.55567,-11.46743 21.3655,-20.84987 21.7996,-20.84987 2.67391,0 -1.75784,4.95926 -23.21838,25.98204 -20.89795,20.47168 -25.89042,26.01796 -23.41998,26.01796 0.3148,0 4.4773,-3.1587 9.25,-7.01932 4.77271,-3.86063 9.13996,-7.38478 9.70499,-7.83144 0.56504,-0.44666 9.09421,-7.47546 18.95371,-15.61954 10.21573,-8.43834 18.10118,-14.28302 18.33278,-13.58822 0.56693,1.7008 -3.67471,5.96104 -15.31383,15.381 -21.92825,17.74732 -37.5,31.54705 -37.5,33.23261 0,1.48095 2.56696,2.04425 3.16667,0.69491 0.18333,-0.4125 2.80833,-2.37843 5.83333,-4.36873 23.48991,-15.45519 38.39418,-25.45048 43.5,-29.1725 3.3,-2.40563 6.7875,-4.6601 7.75,-5.00994 3.06851,-1.11529 1.94498,1.79647 -1.88196,4.8773 -1.99757,1.60813 -5.03507,4.06323 -6.75,5.45577 -6.71631,5.45375 -19.03256,14.07739 -35.11804,24.58907 -10.72757,7.01035 -12.66937,8.60966 -11.66854,9.61049 0.65163,0.65163 3.66166,-0.53388 8.82863,-3.47717 4.31195,-2.45625 10.76491,-6.10688 14.33991,-8.11252 3.575,-2.00564 7.175,-4.07727 8,-4.60362 0.825,-0.52635 4.2,-2.55238 7.5,-4.50228 3.3,-1.94991 7.8,-4.62767 10,-5.95058 5.15962,-3.1026 15.38679,-8.58529 16.01462,-8.58529 0.26696,0 0.48538,0.5815 0.48538,1.29222 0,0.71073 -3.0375,3.04822 -6.75,5.19444 -3.7125,2.14622 -8.1,4.89285 -9.75,6.10363 -3.68554,2.70446 -30.96096,18.99346 -38.5,22.99237 -5.73919,3.04421 -7.60639,4.68644 -5.96942,5.25018 0.53156,0.18307 13.67964,-5.96612 29.21795,-13.66486 27.00177,-13.37853 38.17719,-17.80646 34.8728,-13.81733 -1.35534,1.63619 -33.35688,17.89287 -52.3154,26.57605 -6.32081,2.895 -9.83721,5.08493 -10.16254,6.32899 -0.38417,1.46905 -0.11552,1.74679 1.17957,1.21952 0.92237,-0.37552 5.27704,-1.96545 9.67704,-3.53318 4.4,-1.56773 10.475,-3.81187 13.5,-4.98698 3.025,-1.17511 7.3,-2.72213 9.5,-3.43783 3.78379,-1.23092 10.58794,-3.73029 15,-5.50996 1.1,-0.4437 6.41187,-2.15707 11.80416,-3.80749 8.16709,-2.4997 9.75338,-2.73733 9.5,-1.42309 -0.30314,1.57241 -9.68015,5.67176 -24.80416,10.84365 -8.00893,2.73877 -27.32369,9.6601 -40.58333,14.54278 -4.95553,1.82481 -8.08334,3.52997 -8.08334,4.40674 0,0.78658 0.11761,1.43015 0.26135,1.43015 1.37182,0 28.83244,-6.7258 35.40532,-8.67166 23.76765,-7.03625 37.84829,-10.32001 40.3243,-9.40408 1.49708,0.55381 1.5954,0.88464 0.51361,1.72815 -1.34946,1.05223 -17.32114,6.20319 -21.70018,6.99843 -1.29924,0.23594 -7.59924,1.71276 -14,3.28181 -6.40075,1.56905 -14.11273,3.34223 -17.13773,3.94041 -3.025,0.59817 -9.18965,1.8316 -13.69923,2.74095 l -8.19923,1.65336 3.40771,1.73735 c 2.71433,1.38384 4.38266,1.56161 8.19923,0.87366 2.63534,-0.47502 11.09152,-1.748 18.79152,-2.82885 7.7,-1.08084 18.17106,-2.67274 23.26902,-3.53754 11.07783,-1.87921 24.60178,-2.42571 25.04325,-1.01199 0.63466,2.03236 -16.53086,4.89506 -53.81227,8.97431 -7.975,0.87261 -15.00006,1.75978 -15.61124,1.97149 -0.61118,0.21171 -1.37273,1.3849 -1.69234,2.60708 l -0.5811,2.22215 25.69234,-0.67899 c 14.13079,-0.37345 30.19234,-0.89683 35.69234,-1.16308 9.91933,-0.48018 14.07986,0.38718 11.97133,2.49571 -0.65145,0.65145 -20.814,1.11158 -56.59929,1.29164 -45.82043,0.23055 -54.86562,0.49541 -51.4797,1.50742 2.25921,0.67525 7.70766,1.74336 12.10766,2.37357 4.4,0.63021 9.125,1.30777 10.5,1.50569 1.375,0.19792 7.225,0.59028 13,0.87191 5.775,0.28163 13.875,0.74157 18,1.02208 4.125,0.28052 12.225,0.72488 18,0.98748 28.85244,1.31195 36,2.00237 36,3.4774 0,1.51421 -5.30122,2.11554 -10.5,1.19104 -2.75,-0.48903 -9.39135,-0.97989 -14.75855,-1.0908 -5.36721,-0.1109 -10.76721,-0.36212 -12,-0.55826 -1.2328,-0.19613 -6.06645,-0.63214 -10.74145,-0.96889 -4.675,-0.33676 -12.2813,-1.06699 -16.90288,-1.62274 -9.28837,-1.11694 -11.54507,-0.36416 -8.38417,2.79674 1.60824,1.60824 1.69529,2.11627 0.54647,3.18942 -1.99066,1.85956 -1.06352,3.41747 2.82015,4.73877 1.88124,0.64004 7.47043,2.51787 12.42043,4.17297 4.95,1.6551 11.25,3.91214 14,5.01564 5.43555,2.18113 11.4052,3.94979 24.41228,7.23275 9.20834,2.32416 12.08772,3.70173 12.08772,5.78308 0,0.99383 -1.01867,1.23651 -3.75,0.89337 -4.56447,-0.57344 -23.70835,-7.38982 -38.75,-13.79733 -15.08547,-6.42619 -26.26903,-10.03769 -28.97786,-9.35782 -1.41865,0.35606 -2.26189,1.12623 -1.94107,1.77287 0.31198,0.62883 -0.0286,0.43529 -0.75691,-0.43009 -1.61696,-1.92133 -10.05197,-6.92658 -11.67292,-6.92658 -0.64517,0 -3.13145,-0.92056 -5.52506,-2.04569 -2.39361,-1.12513 -4.75121,-1.95563 -5.2391,-1.84556 -0.48789,0.11008 -2.61646,-0.5679 -4.73015,-1.50661 -2.11369,-0.93872 -4.2567,-1.56888 -4.76225,-1.40037 -0.50554,0.16852 2.79884,2.01811 7.34308,4.11021 4.54423,2.0921 6.97508,3.53173 5.40189,3.19917 -1.57319,-0.33255 -4.72319,-1.43492 -7,-2.4497 -2.27681,-1.01478 -4.92715,-2.10462 -5.88965,-2.42187 -0.9625,-0.31724 -1.75,-1.21345 -1.75,-1.99156 0,-0.77812 -0.86119,-1.63996 -1.91375,-1.91521 -3.33825,-0.87298 -3.5723,3.35925 -0.33558,6.06833 1.51213,1.26562 3.9236,3.3371 5.35883,4.60328 1.43522,1.26619 5.26022,4.04804 8.5,6.1819 3.23977,2.13387 6.78568,4.69616 7.8798,5.69399 1.9311,1.76115 2.0183,1.74702 2.98089,-0.48304 1.47946,-3.42752 3.68044,-4.70737 7.02981,-4.08777 4.26552,0.78908 2.18191,-0.88134 -4.73293,-3.79437 -5.93174,-2.49888 -7.85055,-4.38687 -3.01707,-2.9686 1.5125,0.44381 8.6,3.59613 15.75,7.00515 7.15,3.40902 13.9,6.55758 15,6.9968 7.25434,2.89661 23.04198,9.74737 34.85416,15.12434 12.27262,5.58656 15.92958,7.97678 14.45707,9.44928 -0.89435,0.89435 -14.73565,-4.7784 -27.31123,-11.19329 -7.15,-3.64726 -14.4625,-7.33206 -16.25,-8.18844 -1.7875,-0.85639 -3.25,-1.91331 -3.25,-2.34872 0,-0.43541 -0.74426,-0.79165 -1.6539,-0.79165 -0.90965,0 -4.51431,-1.59964 -8.01038,-3.55474 -5.25013,-2.93605 -6.44169,-3.28415 -6.8461,-2 -0.26929,0.8551 -0.68211,2.18184 -0.91739,2.94829 -0.66666,2.1718 3.04952,4.89118 14.42777,10.55777 5.775,2.87607 10.95,5.57903 11.5,6.00658 0.55,0.42756 5.05,2.93605 10,5.57442 4.95,2.63838 9.94272,5.52032 11.09494,6.40431 1.15221,0.884 4.63971,2.68302 7.75,3.99782 3.11028,1.31481 5.65506,2.99243 5.65506,3.72805 0,0.73563 -0.44283,1.3375 -0.98407,1.3375 -2.35359,0 -22.12484,-10.92096 -32.79517,-18.11493 -2.35358,-1.58679 -4.5287,-2.88507 -4.8336,-2.88507 -0.30489,0 -5.52726,-3.00434 -11.60525,-6.67632 -10.51228,-6.35092 -11.1181,-6.5844 -12.42988,-4.79043 -1.83605,2.51094 -1.36581,3.51068 2.71516,5.77249 7.73628,4.28771 26.60245,16.19821 28.93281,18.26572 1.375,1.21991 4.75,3.4103 7.5,4.86755 6.45206,3.41898 16.73776,10.77427 17.2607,12.34309 0.74894,2.24681 -4.35471,1.27896 -6.7607,-1.2821 -1.29175,-1.375 -2.7918,-2.5 -3.33345,-2.5 -0.54164,0 -3.2757,-1.69292 -6.07568,-3.76205 -5.11813,-3.78219 -30.15653,-20.87153 -33.31444,-22.73795 -0.93058,-0.55 -2.26154,-1.51842 -2.95768,-2.15205 -0.69613,-0.63362 -2.85264,-2.13283 -4.79223,-3.33156 -1.93958,-1.19873 -3.52652,-2.62313 -3.52652,-3.16534 0,-0.5422 -0.91244,-0.69623 -2.02764,-0.34228 -1.48441,0.47114 -2.82084,-0.20556 -4.98824,-2.52577 -3.27079,-3.50139 -11.18606,-9.11439 -11.87762,-8.42284 -0.24191,0.24191 -0.25233,0.57205 -0.0232,0.73365 0.89535,0.63134 24.53255,20.19802 26.41667,21.86751 1.1,0.97468 6.05,4.69487 11,8.26708 4.95,3.5722 10.53706,7.74967 12.41568,9.28326 3.42002,2.79189 14.78448,11.29073 20.76857,15.53166 3.07095,2.17638 4.70216,5.03693 3.53681,6.20228 -0.80425,0.80428 -4.15523,-1.54983 -17.72103,-12.44928 -6.6,-5.30277 -16.5,-13.18557 -22,-17.51732 -5.5,-4.33175 -10.675,-8.44994 -11.5,-9.15155 -5.99608,-5.09922 -8.84909,-7.32745 -9.38202,-7.32745 -0.33989,0 -0.61798,1.27413 -0.61798,2.83139 0,2.21267 1.66683,4.45253 7.62773,10.25 4.19525,4.08024 8.35775,8.25451 9.25,9.27617 2.82781,3.23796 19.5585,17.86382 21.12227,18.46496 1.8134,0.69711 2.5408,1.29054 9.41617,7.68204 5.64239,5.24529 7.45038,8.99544 4.33679,8.99544 -2.0216,0 -16.81952,-13.61682 -37.87752,-34.85434 -13.2758,-13.38897 -16.9365,-16.06963 -16.84683,-12.33664 0.0157,0.65504 3.42941,5.24098 7.58595,10.19098 4.15654,4.95 10.90043,13.5 14.98643,19 4.08599,5.5 10.23125,13.0929 13.65613,16.8731 6.63526,7.32367 9.37899,12.11573 7.57524,13.23051 -1.80684,1.11669 -9.32949,-7.52319 -17.504,-20.10361 -1.42952,-2.2 -4.46119,-6.25 -6.73705,-9 -2.27587,-2.75 -5.45861,-6.8 -7.07278,-9 -7.3512,-10.01922 -15.96327,-19.5 -17.71323,-19.5 -1.63208,0 -1.72068,0.2922 -0.68222,2.25 0.6564,1.2375 2.58473,4.13975 4.28519,6.44944 1.70045,2.30969 4.21673,6.08019 5.59173,8.37889 2.97326,4.97066 12.33528,19.4314 14.76307,22.80331 0.94313,1.3099 3.06977,4.52072 4.72586,7.13515 1.65609,2.61443 4.89058,7.60154 7.18777,11.08246 2.29718,3.48092 3.95312,6.6907 3.67987,7.13283 -1.36375,2.20659 -11.06927,-9.67018 -20.21069,-24.73208 -5.90386,-9.72751 -6.47883,-10.63156 -7.89974,-12.42096 -0.68963,-0.86847 -4.54394,-6.71544 -8.56515,-12.99327 -4.02121,-6.27783 -8.06948,-11.52551 -8.99614,-11.66152 -0.92667,-0.136 -1.68485,-0.12326 -1.68485,0.0283 0,1.1293 22.34099,44.54742 22.92207,44.54742 0.40953,0 0.75671,0.5625 0.77153,1.25 0.0148,0.6875 1.66481,3.65772 3.66666,6.60049 2.00186,2.94277 3.63974,5.78183 3.63974,6.30902 0,0.52719 0.5625,0.63482 1.25,0.23918 0.6875,-0.39564 0.9462,-0.38089 0.57488,0.0328 -0.37131,0.41366 0.207,2.81 1.28513,5.32519 2.4693,5.76064 1.16692,7.78798 -2.68533,4.18011 -2.31819,-2.17115 -31.2557,-59.06536 -32.90094,-64.68676 -0.6982,-2.38559 -2.52409,-3.10922 -2.52324,-1 9.7e-4,2.38625 4.12713,12.25623 5.59673,13.38763 0.81272,0.6257 1.36752,1.5257 1.23287,2 -0.31011,1.09238 4.14157,14.48788 5.30722,15.96991 0.4791,0.60914 1.70494,3.53414 2.72407,6.5 3.29947,9.60203 8.01615,21.73041 9.95897,25.60832 2.6997,5.38867 3.51905,9.28708 1.94869,9.27176 -1.12233,-0.011 -5.76905,-6.06788 -5.76905,-7.51986 0,-0.30815 -1.575,-3.92433 -3.5,-8.03596 -1.925,-4.11163 -3.5,-7.74696 -3.5,-8.07851 0,-0.66441 -7.12838,-20.22881 -9.96632,-27.35332 -0.98587,-2.475 -3.04759,-7.65 -4.58159,-11.5 -3.36752,-8.45174 -3.07689,-8.05627 -4.84317,-6.59039 -1.05701,0.87723 -1.2134,1.98269 -0.58867,4.161 0.46791,1.63151 0.89208,3.17834 0.94261,3.43739 0.19961,1.02354 1.26265,4.09528 2.07366,5.992 0.47035,1.1 2.24102,7.85 3.93483,15 1.69381,7.15 3.61203,14.125 4.26271,15.5 0.65069,1.375 1.24101,2.95 1.31182,3.5 0.38401,2.98254 1.79355,9.13198 2.28812,9.98242 0.63057,1.08431 0.73394,1.57423 2.00806,9.51758 0.88494,5.51702 0.62359,8 -0.84206,8 -1.59255,0 -5.28591,-12.65244 -9.48703,-32.5 -4.03375,-19.05682 -9.58555,-41.78306 -10.85133,-44.41982 -2.29087,-4.77215 -3.16822,-3.24686 -2.83512,4.92894 0.17958,4.40788 0.71101,7.7767 1.18095,7.48627 0.46994,-0.29044 0.63095,1.50428 0.3578,3.98827 -0.27316,2.48399 -0.10087,4.51634 0.38285,4.51634 0.48373,0 0.68178,2.73349 0.44012,6.07443 -0.27078,3.74339 -0.007,6.50635 0.68619,7.2 0.61906,0.61906 1.12557,2.86213 1.12557,4.98459 0,2.12246 0.3375,3.65332 0.75,3.40191 0.4125,-0.2514 0.85839,1.38044 0.99087,3.62632 0.13247,2.24589 0.74589,4.39555 1.36315,4.77704 0.67619,0.4179 0.73155,0.8411 0.13928,1.06466 -0.6184,0.23342 -0.32926,4.80981 0.77954,12.33819 1.71528,11.64621 1.35234,17.5008 -0.99498,16.05008 -1.49597,-0.92456 -4.02786,-10.37602 -4.02786,-15.03585 0,-2.2856 -0.67235,-8.61642 -1.4941,-14.0685 -0.82176,-5.45208 -1.49676,-12.30193 -1.5,-15.22189 -0.004,-3.75725 -0.34335,-5.10046 -1.16041,-4.59549 -0.71613,0.44259 -0.88303,0.27426 -0.43954,-0.44331 0.8368,-1.35397 -1.21506,-28.48234 -2.43184,-32.15218 -0.54524,-1.64448 -0.8221,1.00765 -0.80903,7.75 0.0137,7.07616 0.37829,10.25474 1.1774,10.26531 0.71385,0.009 0.6293,0.34989 -0.2206,0.8882 -0.75796,0.48009 -1.08853,1.34143 -0.7346,1.91411 1.34231,2.1719 2.21785,27.39424 1.01831,29.33514 -1.19733,1.93733 -2.31584,0.58661 -2.81777,-3.40276 -0.72171,-5.73621 -1.50112,-24.8428 -1.54885,-37.96862 -0.0314,-8.64354 -0.30368,-10.61703 -1.40632,-10.19391 -0.78559,0.30146 -1.63306,2.73456 -1.99186,5.71862 -0.50463,4.19699 -0.30147,5.43383 1.05849,6.44391 1.43495,1.06579 1.45564,1.25 0.14038,1.25 -1.30474,0 -1.52696,1.73473 -1.44113,11.25 0.0843,9.35 0.35006,11.19528 1.57341,10.92602 1.18115,-0.25998 1.13967,0.0432 -0.20999,1.53453 -1.91995,2.12152 -2.0688,4.13021 -1.83706,24.78945 0.16942,15.10395 -0.52732,20.53414 -2.72888,21.268 -0.65723,0.21907 -1.53269,-0.42661 -1.94548,-1.43484 z m -4.55754,-86.06413 c -0.25354,-0.97297 -0.47766,-0.41903 -0.49804,1.23097 -0.0204,1.65 0.18706,2.44606 0.46099,1.76903 0.27392,-0.67703 0.29059,-2.02703 0.0371,-3 z m 16.45674,-11.26903 -0.89026,-7.5 -0.12973,9.08333 c -0.0714,4.99584 0.20776,9.42651 0.62026,9.84594 1.20016,1.22033 1.35972,-3.34188 0.39973,-11.42927 z m 20.26864,5.25 c -4.80001,-8.63134 -8.31501,-14.25 -8.91474,-14.25 -0.63733,0 2.36062,6.42293 5.73832,12.29401 1.51693,2.6367 2.75805,5.3742 2.75805,6.08333 0,1.68136 0.98798,2.62266 2.75273,2.62266 0.99531,0 0.29785,-2.01677 -2.33436,-6.75 z m -16.04337,-0.125 c -0.35139,-1.75694 -0.84734,-2.986 -1.10211,-2.73123 -0.25476,0.25477 -0.15257,1.87757 0.22711,3.60623 0.90076,4.10114 1.70865,3.29325 0.875,-0.875 z m -7.99233,-15.77346 c -0.54276,-10.78264 -0.96002,-13.89264 -1.52302,-11.35154 -1.87126,8.44607 -0.45,28.92368 1.84797,26.62571 0.23245,-0.23244 0.0862,-7.10582 -0.32495,-15.27417 z m 11.85999,12.44084 c -0.58992,-0.71081 -1.14835,-1.74238 -1.24096,-2.29238 -0.0926,-0.55 -0.42231,-1.225 -0.73268,-1.5 -0.31038,-0.275 -0.27902,0.625 0.0697,2 0.34869,1.375 0.64014,3.1525 0.64765,3.95 0.0103,1.09829 0.29444,1.16921 1.17127,0.29238 0.82888,-0.82888 0.85303,-1.52462 0.085,-2.45 z m 5.75734,1.72786 c 0,-1.40045 -3.32971,-8.52024 -3.98465,-8.52024 -0.42212,0 -0.0393,2.025 0.8507,4.5 0.89,2.475 1.95923,4.5 2.37607,4.5 0.41683,0 0.75788,-0.21589 0.75788,-0.47976 z m 6.0683,-7.76033 c -4.59524,-7.5821 -7.99635,-11.55768 -4.49986,-5.25991 3.89442,7.01453 6.83789,11.427 7.30867,10.95623 0.22037,-0.22038 -1.04359,-2.78372 -2.80881,-5.69632 z m -13.77855,-0.75991 c -0.28766,-1.1 -0.69553,-2 -0.90638,-2 -0.21085,0 -0.38337,0.9 -0.38337,2 0,1.1 0.40787,2 0.90638,2 0.49851,0 0.67103,-0.9 0.38337,-2 z m 20.05913,-0.31779 c 0.35811,0.35812 0.65112,0.44954 0.65112,0.20315 0,-0.24638 -2.79704,-3.13388 -6.21564,-6.41666 -3.4186,-3.28279 -5.4436,-5.03327 -4.5,-3.88996 0.9436,1.14331 1.71564,2.32413 1.71564,2.62405 0,0.29992 1.19816,2.68904 2.66257,5.30917 2.30567,4.12529 2.82159,4.54639 3.84888,3.14149 0.65247,-0.8923 1.47931,-1.32936 1.83743,-0.97124 z m -48.34888,-5.74897 c 4.81791,-9.61124 4.86494,-10.50996 0.17185,-3.28385 -5.84369,8.99774 -6.49831,10.35904 -4.95703,10.3083 0.70685,-0.0233 2.86018,-3.18427 4.78518,-7.02445 z m 12.68311,4.87926 c -0.31922,-0.79773 -0.55618,-0.56078 -0.60416,0.60417 -0.0434,1.05416 0.19292,1.64479 0.52522,1.3125 0.33229,-0.3323 0.36781,-1.1948 0.0789,-1.91667 z m 43.31689,0.74652 c 0,-0.24254 -0.45,-0.7191 -1,-1.05902 -0.55,-0.33992 -1,-0.14148 -1,0.44098 0,0.58246 0.45,1.05902 1,1.05902 0.55,0 1,-0.19844 1,-0.44098 z m -3.00599,-1.80902 c -0.003,-0.6875 -3.9408,-4.59068 -8.75,-8.67374 -7.85531,-6.66923 -8.27753,-6.38725 -1.36577,0.91213 1.30803,1.38138 3.49894,3.97411 4.86869,5.76161 2.50683,3.27137 5.2582,4.3201 5.24708,2 z m -63.30903,-3.39835 c -0.18,-0.18001 2.09322,-2.92027 5.05162,-6.08947 2.9584,-3.1692 5.8436,-6.66218 6.41156,-7.76218 0.56797,-1.1 -2.59516,1.825 -7.02917,6.5 -4.43402,4.675 -8.0747,9.13224 -8.09042,9.90499 -0.0217,1.06484 0.45712,0.96544 1.97756,-0.41054 1.10337,-0.99854 1.85886,-1.9628 1.67885,-2.1428 z m 15.24415,-1.85165 c 0,-0.55 -0.64311,0.125 -1.42913,1.5 -0.78602,1.375 -1.42913,2.95 -1.42913,3.5 0,0.55 0.64311,-0.125 1.42913,-1.5 0.78602,-1.375 1.42913,-2.95 1.42913,-3.5 z m 24.68917,1.83841 c -0.84603,-1.56113 -1.55624,-2.52208 -1.57826,-2.13546 -0.0677,1.18867 2.25876,5.83158 2.70066,5.38968 0.2287,-0.2287 -0.27638,-1.6931 -1.1224,-3.25422 z m -8.91104,-2.57675 c -0.23919,-1.24391 -0.44398,-0.46166 -0.45508,1.73834 -0.0111,2.2 0.18461,3.21775 0.4349,2.26166 0.25029,-0.95609 0.25937,-2.75609 0.0202,-4 z m 5.72131,1.80977 c -0.36782,-1.46551 -0.86162,-2.47171 -1.09733,-2.236 -0.23572,0.23572 -0.12763,1.62763 0.24019,3.09314 0.36782,1.46551 0.86162,2.47171 1.09733,2.236 0.23572,-0.23572 0.12763,-1.62763 -0.24019,-3.09314 z m 5.6935,-1.24643 c -1.17884,-2.02721 -1.46351,-1.37835 -0.49853,1.13634 0.34294,0.8937 0.83419,1.41426 1.09166,1.15679 0.25747,-0.25747 -0.009,-1.28938 -0.59313,-2.29313 z m -22.69528,-3.325 c 0.46475,-1.73748 0.38603,-2.04249 -0.25808,-1 -0.50973,0.825 -1.2277,2.625 -1.5955,4 -0.46475,1.73748 -0.38603,2.04249 0.25808,1 0.50973,-0.825 1.2277,-2.625 1.5955,-4 z m -19.87974,-0.20384 3.95295,-4.20383 -4.16535,3.45383 c -3.54569,2.94003 -5.18704,4.95384 -4.0376,4.95384 0.16338,0 2.07588,-1.89173 4.25,-4.20384 z m -1.0404,-3.31925 c 2.78613,-2.52374 3.88827,-3.95901 2.49335,-3.24697 -3.61055,1.84301 -9,6.00973 -9,6.95812 0,1.63778 1.62446,0.71125 6.50665,-3.71115 z m 5.81445,-8.38697 c 0.6484,-0.794 -2.6461,1.16217 -7.3211,4.34704 -4.675,3.18487 -8.67172,6.25462 -8.88161,6.82167 -0.45363,1.22559 14.49718,-9.08017 16.20271,-11.16871 z m 51.6789,8.51705 c 0,-0.21616 -0.69837,-0.661 -1.55194,-0.98855 -0.88992,-0.34149 -1.29132,-0.17385 -0.94098,0.39301 0.58726,0.95021 2.49292,1.40545 2.49292,0.59554 z m -49.87244,-3.35699 c 1.24387,-1.58606 1.2085,-1.62143 -0.37756,-0.37756 -0.9625,0.75485 -1.75,1.54235 -1.75,1.75 0,0.82304 0.82119,0.29331 2.12756,-1.37244 z m -18.56869,-1.80178 c 1.8655,-1.49132 1.84373,-1.5259 -0.55887,-0.8876 -3.085333,0.81968 -5.004988,2.43938 -2.891127,2.43938 0.829879,0 2.38238,-0.6983 3.449997,-1.55178 z m 6.44113,-2.94822 c 1.375,-0.78602 2.05,-1.42913 1.5,-1.42913 -0.55,0 -2.125,0.64311 -3.5,1.42913 -1.375,0.78602 -2.05,1.42913 -1.5,1.42913 0.55,0 2.125,-0.64311 3.5,-1.42913 z m -0.30002,-3.32657 c 8.55312,-3.71921 16.82955,-7.9965 12.80002,-6.6151 -12.4232,4.25891 -24.499997,9.01562 -24.499997,9.64985 0,1.52978 2.981132,0.75653 11.699977,-3.03475 z m -7.199977,-1.79189 c 2.749997,-0.8956 7.474997,-2.53065 10.499997,-3.63345 3.025,-1.1028 7.975,-2.57615 11,-3.27412 3.07525,-0.70956 4.39201,-1.3142 2.98677,-1.3715 -1.38227,-0.0564 -8.80727,1.26509 -16.5,2.93656 -7.69272,1.67146 -15.233631,3.30458 -16.757576,3.62916 -1.523946,0.32457 -3.024151,1.00005 -3.333789,1.50105 -0.319697,0.51728 0.553562,0.63069 2.020809,0.26243 1.614374,-0.40518 2.583789,-0.23262 2.583789,0.45992 0,1.51254 1.629791,1.4017 7.5,-0.51005 z m 48.499997,1.2409 c 0,-0.20765 -0.7875,-0.99515 -1.75,-1.75 -1.58606,-1.24387 -1.62143,-1.2085 -0.37756,0.37756 1.30637,1.66575 2.12756,2.19548 2.12756,1.37244 z m 36.79782,-2.15796 c -0.43941,-0.43941 -13.64315,-3.44837 -17.79782,-4.05589 -1.375,-0.20106 2,1.14076 7.5,2.98182 5.5,1.84107 10.15937,2.92827 10.35417,2.41599 0.19479,-0.51227 0.16943,-1.11613 -0.0564,-1.34192 z m -60.67026,-0.1282 c 1.24448,-1.5086 1.16266,-1.55194 -0.87756,-0.46482 -2.32696,1.23991 -2.89993,2.12854 -1.37244,2.12854 0.48265,0 1.49515,-0.74867 2.25,-1.66372 z m 63.87244,-2.33628 c 0,-0.55 -1.4625,-0.96837 -3.25,-0.92971 -2.72353,0.0589 -2.92602,0.2095 -1.25,0.92971 2.7627,1.18717 4.5,1.18717 4.5,0 z m -87,-7.44164 c 0.825,-0.1795 -1.11406,-0.37856 -4.309014,-0.44236 -3.194959,-0.0638 -5.584776,0.24683 -5.310705,0.69029 0.449312,0.727 5.768876,0.5899 9.619719,-0.24793 z m 9.75853,-2.13316 c -0.9068,-0.9068 -19.758527,-3.09001 -19.758527,-2.28823 0,0.39552 2.5875,1.00419 5.75,1.35261 3.162497,0.34842 6.424997,0.7786 7.249997,0.95596 2.70384,0.58125 7.34615,0.56728 6.75853,-0.0203 z m 66.03348,-0.54026 c 7.16213,-0.0925 10.16519,-0.47534 9.875,-1.25892 -0.22936,-0.61931 -0.83387,-1.04332 -1.34337,-0.94223 -0.5095,0.10108 -5.62825,0.46524 -11.375,0.80923 -5.74675,0.344 -12.92364,1.02708 -15.94864,1.51797 -5.45801,0.8857 -5.44656,0.88914 1.5,0.44969 3.85,-0.24356 11.6314,-0.50264 17.29201,-0.57574 z m -15.93635,-2.2845 c 3.10438,-0.76975 10.04468,-1.97662 15.42288,-2.68192 6.1183,-0.80235 10.23574,-1.83886 11,-2.76909 1.0526,-1.28121 0.7549,-1.3943 -2.15354,-0.81808 -1.85625,0.36776 -4.24531,0.66865 -5.30902,0.66865 -1.15946,0 -1.65998,0.44339 -1.24977,1.10713 0.45277,0.7326 0.0157,0.89494 -1.2921,0.47987 -1.087,-0.345 -4.85585,0.0355 -8.37523,0.84552 -3.51939,0.81004 -7.93643,1.73874 -9.81566,2.06378 -3.79612,0.6566 -7.52688,2.42172 -5.22756,2.47329 0.74561,0.0167 3.89561,-0.59939 7,-1.36915 z m 9.84272,-5.0272 c 4.29089,-1.33472 10.38912,-3.01204 13.55162,-3.72739 5.59151,-1.26477 6.77835,-2.09226 4.77589,-3.32985 -1.03647,-0.64057 -15.51749,3.96852 -23.02589,7.32881 -6.07366,2.71819 -4.64833,2.6358 4.69838,-0.27157 z m -66.96921,-0.17741 c -0.3323,-0.33229 -1.1948,-0.36781 -1.91667,-0.0789 -0.79773,0.31922 -0.56078,0.55618 0.60417,0.60416 1.05416,0.0434 1.64479,-0.19293 1.3125,-0.52522 z m 14.27083,0.21116 c 0,-0.21616 -0.69837,-0.661 -1.55194,-0.98855 -0.88992,-0.34149 -1.29132,-0.17385 -0.94098,0.39301 0.58726,0.95021 2.49292,1.40545 2.49292,0.59554 z m -9,-1.08131 c 0,-1.06646 -6.1418,-3.55608 -7.18388,-2.91204 -0.62633,0.3871 -0.85011,0.25037 -0.50476,-0.30842 0.34121,-0.55208 -0.48926,-1.59765 -1.845487,-2.32349 -1.35623,-0.72583 -2.46587,-1.69746 -2.46587,-2.15918 0,-0.46173 0.7875,-0.39776 1.75,0.14215 5.147407,2.8874 15.330647,6.83741 14.240417,5.52376 -0.67942,-0.81865 -1.64062,-1.48846 -2.136,-1.48846 -0.49538,0 -4.26528,-2.22813 -8.37756,-4.95139 l -7.476857,-4.95139 v 2.82895 c 0,1.55592 -0.703435,3.41274 -1.563188,4.12627 -1.412485,1.17226 -1.40244,1.38729 0.104193,2.23045 1.52878,0.85554 12.961632,4.4626 14.708992,4.64068 0.4125,0.042 0.75,-0.13701 0.75,-0.39789 z m 42.09737,-3.46921 c 1.61894,-1.61893 4.3831,-4.07016 6.14258,-5.44716 1.75948,-1.377 2.96184,-2.74085 2.67192,-3.03078 -0.28993,-0.28993 -3.42621,2.15347 -6.96951,5.42978 -3.5433,3.27631 -6.07024,5.96474 -5.61544,5.97431 0.45481,0.01 2.15151,-1.30721 3.77045,-2.92615 z m 16.95616,-3.19532 c 11.79613,-6.93197 11.44638,-6.69458 10.80629,-7.33466 -0.26043,-0.26043 -2.24793,0.74022 -4.41667,2.22366 -2.16873,1.48345 -7.30725,4.62153 -11.41894,6.97352 -4.11168,2.35198 -7.01259,4.27633 -6.44646,4.27633 0.56612,0 5.73022,-2.76248 11.47578,-6.13885 z m 4.37703,2.63885 c 4.22413,-1.925 8.33031,-3.5 9.12484,-3.5 0.79453,0 1.4446,-0.45 1.4446,-1 0,-1.55671 -2.07069,-1.18137 -7.5,1.35945 -5.32103,2.49015 -12.41732,6.63058 -11.37484,6.63681 0.34383,0.002 4.08126,-1.57126 8.3054,-3.49626 z m -29.46119,-1 c 0,-0.55 -0.43621,-0.325 -0.96937,0.5 -0.53316,0.825 -0.96937,1.95 -0.96937,2.5 0,0.55 0.43621,0.325 0.96937,-0.5 0.53316,-0.825 0.96937,-1.95 0.96937,-2.5 z m 25.77478,-6.97783 c 3.98428,-2.67696 7.06123,-5.05012 6.83766,-5.27369 -0.50997,-0.50997 -13.05611,7.79008 -17.08181,11.30067 l -3,2.61614 3,-1.88796 c 1.65,-1.03838 6.25987,-4.0782 10.24415,-6.75516 z m -39.5757,3.24628 c -0.74207,-0.74207 -0.87221,-0.35164 -0.43724,1.31171 0.35361,1.3522 0.8069,1.8055 1.05655,1.05655 0.24048,-0.72144 -0.0382,-1.78716 -0.61931,-2.36826 z m -12.51346,-0.59719 c -2.90638,-3.21151 -1.77379,-3.65408 1.55682,-0.60835 3.41182,3.12 3.12953,2.56204 -2.29423,-4.5346 -4.07864,-5.33665 -9.46937,-11.14461 -8.37974,-9.02831 0.42478,0.825 2.27754,3.37573 4.11724,5.6683 4.15626,5.17935 4.33605,6.65545 0.34492,2.8317 -4.58129,-4.38915 -3.57115,-1.82966 1.23523,3.12984 4.13135,4.26297 6.71612,6.18386 3.41976,2.54142 z m 28.63512,-2.17264 c 0.28785,-1.10076 0.11534,-1.7492 -0.38337,-1.44098 -0.49871,0.30822 -0.90674,1.20884 -0.90674,2.00138 0,2.06975 0.6795,1.77459 1.29011,-0.5604 z m -15.33248,-0.74862 c -0.085,-3.51039 -2.78321,-12.80781 -2.97467,-10.25 -0.17873,2.38774 -0.2267,2.36529 -1.06819,-0.5 -0.48458,-1.65 -1.35599,-4.9125 -1.93646,-7.25 -1.06271,-4.27943 -2.57417,-5.46676 -3.58983,-2.81999 -0.50874,1.32575 0.96729,5.51777 4.07384,11.56999 0.70578,1.375 1.22798,3.91962 1.16046,5.65472 -0.0675,1.73509 0.16757,2.97518 0.52244,2.75574 0.35486,-0.21943 0.90324,0.27344 1.21861,1.09528 0.79194,2.06375 2.64553,1.88099 2.5938,-0.25574 z m -1.87868,-1.83333 c 0.048,-1.16495 0.28494,-1.4019 0.60416,-0.60417 0.28887,0.72187 0.25335,1.58437 -0.0789,1.91667 -0.3323,0.33229 -0.56864,-0.25834 -0.52522,-1.3125 z m 37.62822,-1.72911 c 0.43606,-0.70836 2.25533,-2.30848 4.04283,-3.55583 1.7875,-1.24736 3.25,-2.70188 3.25,-3.23227 0,-1.10811 -11.82574,8.19501 -11.93075,9.38572 -0.0959,1.08779 3.66641,-1.01944 4.63792,-2.59762 z m -18.04893,-1.43756 c 0.32751,-0.9625 1.9147,-4.61939 3.52709,-8.12643 1.61239,-3.50703 2.6519,-7.10537 2.31001,-7.9963 -0.43065,-1.12227 -1.51516,0.37569 -3.53047,4.87643 -1.59987,3.57297 -2.92147,7.25724 -2.93687,8.18728 -0.0154,0.93004 -0.478,1.9691 -1.028,2.30902 -1.3089,0.80894 -1.28767,2.5 0.0314,2.5 0.56727,0 1.29935,-0.7875 1.62686,-1.75 z m 16.87306,-4.30263 c 3.28279,-3.32895 5.2937,-5.74755 4.4687,-5.37468 -1.47656,0.66736 -11.71125,11.42731 -10.86946,11.42731 0.23763,0 3.11798,-2.72368 6.40076,-6.05263 z m -41.40923,2.37763 c -1.17884,-2.02721 -1.46351,-1.37835 -0.49853,1.13634 0.34294,0.8937 0.83419,1.41426 1.09166,1.15679 0.25747,-0.25747 -0.009,-1.28938 -0.59313,-2.29313 z m 31.31488,-4.88018 c 4.46685,-7.05135 5.36344,-9.30913 3.03409,-7.64045 -1.05654,0.75688 -8.86331,15.19563 -8.216,15.19563 0.21774,0 2.5496,-3.39983 5.18191,-7.55518 z m 0.56305,5.55518 c 0.5887,-1.1 0.84537,-2 0.57037,-2 -0.275,0 -0.98167,0.9 -1.57037,2 -0.5887,1.1 -0.84537,2 -0.57037,2 0.275,0 0.98167,-0.9 1.57037,-2 z m -48.77778,-2.22222 c -1.19166,-1.19167 -2.50994,-1.82339 -2.9295,-1.40383 -0.41956,0.41956 0.34871,1.60128 1.70728,2.62605 3.19593,2.41069 4.02553,1.58109 1.22222,-1.22222 z m 53.15934,0.67028 c 0.34149,-0.88992 0.17385,-1.29132 -0.39301,-0.94098 -0.5437,0.33602 -0.98855,1.0344 -0.98855,1.55194 0,1.43843 0.71677,1.12146 1.38156,-0.61096 z m 23.42988,-0.48702 c 1.20371,-1.12142 2.18856,-1.78059 2.18856,-1.46481 0,0.31578 0.94831,0.0666 2.10736,-0.55369 1.45131,-0.77672 1.78541,-1.44977 1.0732,-2.16198 -1.09143,-1.09143 -6.79482,1.8448 -9.19059,4.73152 -1.95962,2.3612 1.18176,1.90823 3.82147,-0.55104 z m -81.81144,-0.46104 c 0,-0.825 -0.43588,-1.5 -0.96862,-1.5 -0.532727,0 -0.709587,0.675 -0.393007,1.5 0.316587,0.825 0.752457,1.5 0.968617,1.5 0.21615,0 0.39301,-0.675 0.39301,-1.5 z m 44.85943,-3.5 c 0,-0.94548 -0.31771,-0.76064 -0.85943,0.5 -0.47269,1.1 -0.85943,2.675 -0.85943,3.5 0,0.94548 0.31771,0.76064 0.85943,-0.5 0.47269,-1.1 0.85943,-2.675 0.85943,-3.5 z m 14.28767,-1.75 c 1.78375,-2.6125 2.50376,-4.15182 1.60003,-3.4207 -1.64481,1.33064 -6.0494,8.1707 -5.26145,8.1707 0.23003,0 1.87767,-2.1375 3.66142,-4.75 z m 3.23446,1.19806 c 0.34149,-0.88992 0.17385,-1.29132 -0.39301,-0.94098 -0.5437,0.33602 -0.98855,1.0344 -0.98855,1.55194 0,1.43843 0.71677,1.12146 1.38156,-0.61096 z m -43.72708,-3.44806 c -0.95125,-3.56387 -3.65448,-5.71224 -3.65448,-2.90437 0,1.01815 3.77602,6.90437 4.42916,6.90437 0.16114,0 -0.18747,-1.8 -0.77468,-4 z m 6.92295,-2.5 c -0.55415,-3.025 -1.41323,-5.5 -1.90906,-5.5 -0.79627,0 -0.57305,2.02123 0.77305,7 0.22306,0.825 0.43999,2.0625 0.48207,2.75 0.0421,0.6875 0.43313,1.25 0.869,1.25 0.43587,0 0.33909,-2.475 -0.21506,-5.5 z m 7.86933,-1.75 c 0.4677,-3.85756 0.34435,-5.75 -0.3748,-5.75 -0.64672,0 -1.07196,2.44626 -1.07196,6.16667 0,7.45851 0.50973,7.31171 1.44676,-0.41667 z m 10.75324,184.05 c -1.62862,-1.62862 -1.6694,-24.39186 -0.0455,-25.39549 0.63498,-0.39244 0.89988,-0.30154 0.58867,0.20201 -0.69475,1.12413 1.22093,3.86064 3.25682,4.6523 1.17241,0.4559 1.10493,0.60053 -0.30902,0.66223 -1.0405,0.0454 -1.52262,0.54235 -1.13486,1.16976 0.98023,1.58604 0.7283,18.02477 -0.29187,19.04494 -0.48567,0.48567 -1.38991,0.33859 -2.06425,-0.33575 z m -16.2,-41.83138 c 0,-0.53274 0.675,-0.96862 1.5,-0.96862 0.825,0 1.5,0.17686 1.5,0.39301 0,0.21616 -0.675,0.65203 -1.5,0.96862 -0.825,0.31658 -1.5,0.13972 -1.5,-0.39301 z m 123.5,-72.97316 c -7.15,-1.57322 -16.6,-3.81043 -21,-4.97158 -6.61475,-1.74562 -26.55302,-6.02388 -28.07351,-6.02388 -0.23457,0 -0.42649,-0.37866 -0.42649,-0.84146 0,-0.46281 1.9125,-0.49706 4.25,-0.0761 7.87269,1.41775 28.15362,4.72664 41.75,6.81161 14.00562,2.14774 22.31611,4.64413 21.70186,6.51903 -0.61059,1.86374 -4.75601,1.54088 -18.20186,-1.41761 z m -84,-7.77708 c -2.2,-1.49511 -5.35,-3.37959 -7,-4.18773 -3.34351,-1.63759 -7.11921,-5.03065 -5.59797,-5.03065 0.53896,0 1.24958,0.43629 1.57914,0.96954 0.32957,0.53324 4.40612,3.04469 9.05902,5.58098 4.6529,2.5363 8.45981,4.8 8.45981,5.03046 0,1.13524 -2.90882,0.0779 -6.5,-2.3626 z M 49.744753,253.4689 c -3.941927,-0.8073 -13.459696,-1.44046 -36.963264,-2.45894 -11.8747752,-0.51456 -15.5143347,-1.5577 -12.5283767,-3.59078 1.732096,-1.17934 14.4336187,-0.48718 28.9141947,1.57566 7.262214,1.03454 9.051448,1.28271 18.332728,2.54272 4.815405,0.65373 9.004463,1.59179 9.309017,2.08457 0.643485,1.04118 -1.454358,0.99568 -7.064299,-0.15323 z m 15.5,-31.85025 c -3.025,-1.55077 -9.55,-5.03184 -14.5,-7.73574 -4.95,-2.70389 -11.475,-5.96588 -14.5,-7.24886 -8.770218,-3.71968 -21,-10.25818 -21,-11.22739 0,-1.74824 5.066311,-0.8407 10.73407,1.92282 6.342927,3.09272 10.741882,5.52409 29.108791,16.08889 6.788574,3.90485 12.68133,7.09972 13.095013,7.09972 0.413683,0 1.56664,0.9 2.562126,2 2.433523,2.68901 1.062482,2.4648 -5.5,-0.89944 z"
             id="path1458"
             inkscape:connector-curvature="0" />
          <path
             style="fill:#ffcc00"
             d="m 133.49528,404.85125 c -0.9649,-2.35676 -0.94679,-13.82632 0.0797,-50.47455 0.58773,-20.98334 0.51471,-29.8364 -0.25,-30.30902 -0.59413,-0.36719 -1.08319,-0.30357 -1.08679,0.14139 -0.004,0.44496 -0.86448,6.65902 -1.91306,13.80902 -2.17141,14.80622 -2.60758,18.73124 -4.16721,37.5 -2.02686,24.39158 -2.51386,27 -5.04099,27 -2.72482,0 -2.7416,-0.81808 -0.42047,-20.5 0.84321,-7.15 1.75842,-15.2722 2.03379,-18.04934 0.27538,-2.77713 1.6288,-12.58985 3.00759,-21.80603 1.3788,-9.21619 2.46585,-17.29399 2.41568,-17.95067 -0.17757,-2.32422 -3.88182,10.85259 -3.8952,13.85604 -0.007,1.6775 -0.43859,3.4775 -0.95805,4 -0.51946,0.5225 -1.60625,3.875 -2.4151,7.45 -0.80885,3.575 -2.3987,10.3868 -3.53301,15.13733 -1.1343,4.75054 -2.53252,12.85054 -3.10716,18 -1.25329,11.23099 -2.53512,15.54337 -5.0146,16.87035 -3.30892,1.77087 -4.28031,1.21555 -3.62296,-2.07116 0.54364,-2.71824 0.38939,-2.99261 -1.36871,-2.43461 -1.47405,0.46784 -1.83728,0.2533 -1.41856,-0.83789 0.30957,-0.80672 1.31112,-1.35693 2.22567,-1.22271 1.32192,0.19402 2.14005,-1.72254 3.99069,-9.34863 1.28033,-5.27597 2.51287,-10.71768 2.73898,-12.09268 0.41973,-2.55239 1.13077,-5.28901 3.89737,-15 1.2174,-4.27317 5.85083,-24.13596 9.0976,-39 0.18021,-0.825 1.45012,-5.32302 2.82203,-9.99559 1.37191,-4.67257 2.38236,-8.60761 2.24544,-8.74453 -0.85022,-0.85023 -15.39033,39.68367 -20.64647,57.55678 -2.15389,7.32416 -4.56993,14.74916 -5.36898,16.5 -3.07583,6.73964 -4.468107,10.7336 -3.54221,10.16137 1.5422,-0.95313 1.11248,0.68927 -0.500177,1.91173 -0.80555,0.61063 -2.045012,2.91024 -2.754363,5.11024 -0.744438,2.30882 -1.922076,4 -2.785368,4 -3.232041,0 -1.114425,-8.64454 8.892788,-36.30217 2.24917,-6.21619 3.53189,-10.96731 2.85048,-10.55804 -0.84394,0.5069 -0.80784,0.21252 0.11325,-0.92339 1.03545,-1.27694 12.11927,-27.26049 12.14293,-28.4664 0.003,-0.1375 -0.37758,-0.25 -0.84507,-0.25 -0.46749,0 -2.09602,3.0375 -3.61896,6.75 -2.36185,5.75755 -21.539225,47.00586 -25.163805,54.12442 -1.638336,3.21764 -0.736522,5.66625 1.436762,3.9011 1.340443,-1.08871 1.469797,-1.00724 0.883217,0.55627 -0.377967,1.00748 -0.687221,1.97785 -0.687221,2.15638 0,0.17852 -0.894939,0.0906 -1.988753,-0.19548 -1.093814,-0.28604 -1.699285,-0.98844 -1.345491,-1.56089 0.376668,-0.60946 0.158026,-0.74093 -0.527559,-0.31721 -0.643952,0.39798 -0.911923,1.14251 -0.595492,1.65451 0.316431,0.51199 0.151255,0.9309 -0.367057,0.9309 -0.518312,0 -1.177741,0.9 -1.465397,2 -0.287656,1.1 -1.240141,2 -2.116631,2 -2.779996,0 -1.814665,-4.75977 3.013981,-14.8611 9.52647,-19.92896 10.766357,-22.64876 10.497471,-23.0271 -0.151741,-0.2135 0.129104,-0.6635 0.624099,-1 0.494995,-0.33649 2.617139,-4.2118 4.715886,-8.6118 2.09874,-4.4 5.78218,-11.94091 8.18541,-16.75757 2.40324,-4.81666 4.36953,-9.40261 4.36953,-10.19098 0,-3.45431 -2.13559,-2.21284 -4.5784,2.66154 -1.45728,2.90785 -3.22295,5.96201 -3.9237,6.78701 -0.70076,0.825 -2.53548,3.975 -4.07716,7 -1.541667,3.025 -4.464849,8.2 -6.495944,11.5 -2.031094,3.3 -6.494268,11.175 -9.918164,17.5 -3.423895,6.325 -7.42858,13.29673 -8.8993,15.49273 -2.92296,4.36441 -6.107342,5.8403 -6.107309,2.83059 1.7e-5,-1.55023 13.788958,-26.44406 19.842904,-35.82332 1.06501,-1.65 5.403767,-8.85 9.641686,-16 4.237907,-7.15 8.787567,-14.43248 10.110337,-16.18328 1.32278,-1.7508 2.40505,-3.6633 2.40505,-4.25 0,-0.5867 0.44035,-1.06672 0.97856,-1.06672 0.58356,0 0.49716,1.05656 -0.21405,2.6175 -1.07364,2.35638 -0.91208,2.85881 1.6194,5.0363 2.95694,2.54345 5.71985,2.45949 8.57998,-0.26073 1.44694,-1.37616 2.35986,-8.71119 0.9779,-7.85709 -0.39335,0.2431 -1.29525,-0.25695 -2.00423,-1.11122 -1.08153,-1.30315 -0.68052,-2.67987 2.49087,-8.55147 2.07896,-3.84905 3.59189,-7.1863 3.36208,-7.41611 -0.22982,-0.22982 -2.40646,2.87449 -4.83698,6.89845 -2.43052,4.02397 -5.45046,7.80302 -6.71097,8.39788 -2.05133,0.96807 -1.93989,0.59176 1.06189,-3.58597 1.84456,-2.56715 4.36735,-6.35504 5.6062,-8.41754 9.65788,-16.07883 -20.66637,23.37614 -37.852494,49.25 -3.105262,4.675 -7.876181,11.59617 -10.602042,15.38038 -2.725861,3.78421 -4.806111,7.38421 -4.622778,8 0.183334,0.61579 0.01153,0.79782 -0.381782,0.4045 -0.393314,-0.39331 -2.494095,1.51919 -4.668401,4.25 -4.025431,5.05573 -6.789836,6.36763 -6.774808,3.21512 0.01223,-2.56576 12.553107,-20.40946 24.072565,-34.2515 7.155538,-8.59825 19.99563,-24.81161 22.76725,-28.7485 2.2284,-3.1653 2.23558,-3.25 0.2757,-3.25 -1.10678,0 -3.09555,1.0125 -4.419487,2.25 -3.879271,3.62601 -23.770681,26.88237 -36.982503,43.23869 -5.018537,6.21298 -13.934878,15.51131 -14.874087,15.51131 -0.466279,0 -0.84778,-0.87664 -0.84778,-1.94808 0,-1.78544 4.859314,-8.18019 12.9576,-17.05192 1.757177,-1.925 5.073061,-5.74292 7.368633,-8.48428 6.305254,-7.52967 12.210987,-13.81085 21.897874,-23.28998 7.439455,-7.2799 10.359103,-11.22574 8.306277,-11.22574 -0.697919,0 -11.16262,9.68305 -17.494121,16.18742 -3.044944,3.12807 -7.336263,7.09604 -9.536263,8.81769 -2.2,1.72165 -7.375,6.3719 -11.5,10.33389 -11.081921,10.64399 -19.930704,18.06363 -20.666019,17.32831 -1.73881,-1.73881 2.583522,-6.24401 25.105128,-26.16731 3.730371,-3.3 7.970133,-7.1357 9.421692,-8.52378 1.45156,-1.38808 3.927382,-3.51771 5.501827,-4.73251 1.574445,-1.21481 6.00158,-5.14059 9.838078,-8.72396 6.678492,-6.23785 7.141318,-6.48869 10.871674,-5.89219 2.822577,0.45135 4.620397,0.14853 6.524267,-1.09893 2.3544,-1.54266 2.56005,-2.14724 1.97497,-5.80612 -0.62707,-3.92146 -0.46225,-4.25557 4.13765,-8.38764 2.6349,-2.36692 5.12823,-4.31056 5.54073,-4.31918 0.4125,-0.009 0.75,-0.46893 0.75,-1.0229 0,-1.15069 -9.68814,5.27199 -12.08715,8.01308 -0.87473,0.99946 -2.1141,1.48779 -2.76112,1.08791 -0.73608,-0.45493 1.41171,-2.49227 5.75825,-5.46213 7.6649,-5.2372 10.69207,-8.09905 7.48146,-7.07291 -1.78309,0.5699 -1.77852,0.51267 0.0799,-0.99917 1.08421,-0.88204 2.57009,-1.37393 3.30193,-1.09309 0.73185,0.28084 1.05571,0.0658 0.71968,-0.47793 -0.33602,-0.5437 0.0355,-0.98855 0.82562,-0.98855 0.79011,0 2.05417,-0.75307 2.80902,-1.67349 2.04489,-2.49343 -46.132222,22.40129 -69.30203,35.81068 -3.67096,2.12455 -6.958152,3.86281 -7.30487,3.86281 -0.346717,0 -3.193205,1.72877 -6.325526,3.84172 -8.01875,5.40915 -21.910845,12.45201 -23.105408,11.71373 -2.074299,-1.28199 0.399282,-3.82057 6.797905,-6.97653 10.357783,-5.10874 42.501329,-21.70162 43.612342,-22.51322 0.55,-0.40178 2.575,-1.34434 4.5,-2.09458 4.827844,-1.88159 13,-6.94637 13,-8.05689 0,-0.50283 -0.703519,-0.91423 -1.563375,-0.91423 -2.225083,0 -21.036822,7.57498 -34.533468,13.9057 -3.628264,1.70186 -7.228264,3.10431 -8,3.11654 -0.771736,0.0122 -2.528157,0.90222 -3.903157,1.97776 -1.375,1.07554 -2.993363,1.96553 -3.596362,1.97776 -0.602999,0.0122 -2.402999,0.65234 -4,1.42247 -4.783112,2.30658 -17.195497,7.59977 -17.821251,7.59977 -0.320313,0 -0.582387,-0.83855 -0.582387,-1.86344 0,-1.97316 5.276082,-4.72024 18.594387,-9.68147 3.798087,-1.41483 9.718113,-3.67102 13.155613,-5.01375 3.4375,-1.34274 9.2875,-3.59874 13,-5.01333 3.7125,-1.4146 7.65,-2.98646 8.75,-3.49302 1.1,-0.50656 3.80841,-1.54248 6.018689,-2.30203 2.210279,-0.75956 5.497234,-2.28018 7.304346,-3.37915 2.738934,-1.66564 2.998255,-2.10841 1.558454,-2.66091 -1.926783,-0.73938 -8.202338,1.10944 -42.546669,12.53456 -13.015849,4.32989 -24.928349,7.87254 -26.472222,7.87254 -5.9667447,0 0.974789,-3.64432 14.137402,-7.42217 7.15,-2.05214 14.125,-4.09448 15.5,-4.53852 1.375,-0.44405 4.525,-1.36174 7,-2.03931 2.475,-0.67757 5.625,-1.57757 7,-2 1.375,-0.42243 4.525,-1.32039 7,-1.99548 8.612267,-2.34912 17.502322,-5.50105 17.860794,-6.33247 0.198436,-0.46025 1.196978,0.53818 2.21898,2.21873 2.008767,3.30315 5.488577,4.68536 9.353576,3.7153 2.252707,-0.56539 3.867006,-2.97629 3.304691,-4.93543 -0.130923,-0.45614 2.686959,-1.85387 6.261956,-3.10605 3.575,-1.25219 9.65,-3.94033 13.5,-5.97366 7.81021,-4.12487 7.47222,-4.05633 -7.81307,1.58433 -6.26346,2.31138 -11.522852,3.70803 -12.500001,3.31943 -1.228808,-0.48869 -0.329076,-1.15213 3.313074,-2.44297 6.531017,-2.31472 24.439737,-7.89601 26.999997,-8.41461 1.3732,-0.27815 1.12022,-0.44147 -0.80718,-0.52112 -1.54395,-0.0638 -4.69395,0.32719 -7,0.86888 -2.30605,0.54168 -9.59282,2.15873 -16.19282,3.59344 -6.599997,1.4347 -12.740827,3.26902 -13.646287,4.07625 -0.905459,0.80723 -1.805459,1.03501 -2,0.50618 -0.22578,-0.61376 -2.342952,-0.60571 -5.85371,0.0223 -3.025,0.54107 -6.175,1.10424 -7,1.25148 -7.190219,1.28326 -9.911287,1.85847 -12.5,2.64239 -3.781833,1.14521 -28.891921,6.52011 -41.705913,8.92729 -5.338252,1.00281 -10.0682151,2.04722 -10.5110285,2.32089 -1.2469591,0.77066 -4.5663209,-2.05771 -3.8241792,-3.25853 0.3625351,-0.58663 1.841347,-1.06657 3.2862487,-1.06657 1.4449011,0 5.355844,-0.6323 8.690983,-1.40511 3.335139,-0.77281 9.438889,-1.92742 13.563889,-2.5658 4.125,-0.63838 9.076511,-1.56589 11.003359,-2.06114 1.926847,-0.49524 5.301847,-1.17524 7.5,-1.5111 2.198152,-0.33586 6.021641,-1.07221 8.496641,-1.63633 2.475,-0.56412 6.075,-1.2406 8,-1.50328 1.925,-0.26267 7.1,-1.29494 11.5,-2.29392 4.4,-0.99898 10.7,-2.35673 14,-3.01722 3.3,-0.66049 6.9,-1.60944 8,-2.10877 l 2,-0.90787 -2,0.46959 c -1.1,0.25828 -6.725,0.70751 -12.5,0.9983 -18.780141,0.94562 -40.233246,2.61817 -53,4.13204 -23.6801409,2.80796 -31.2385737,3.50537 -31.8089575,2.93499 -0.3145971,-0.3146 0.102736,-1.24673 0.9274069,-2.0714 1.4849009,-1.4849 10.3497946,-2.83228 25.8815506,-3.93376 17.884511,-1.26832 49.215041,-4.40093 49.792665,-4.97855 0.224184,-0.22419 0.06788,-0.9573 -0.34734,-1.62914 -0.585905,-0.94801 -7.717506,-1.03998 -31.850136,-0.41076 -17.102354,0.44592 -33.746517,0.76684 -36.9870282,0.71316 -6.3829436,-0.10574 -8.8530413,-1.37287 -6.7524816,-3.46393 0.9724219,-0.96802 9.7035978,-1.17204 38.7053038,-0.90439 33.96288,0.31343 37.392617,0.19705 36.837332,-1.25 -0.336761,-0.87759 -1.576648,-1.62769 -2.755304,-1.66689 -4.830571,-0.16068 -10.078058,-1.08015 -11.563041,-2.02609 -1.548288,-0.98627 0.685675,-0.87439 13.902473,0.69625 4.460019,0.53001 6.796176,1.40112 3.757548,1.40112 -0.876339,0 -1.765991,0.7875 -1.977007,1.75 -0.432245,1.97159 1.170876,6.38235 2.711513,7.46034 1.660861,1.16211 7.463106,0.56977 8.670597,-0.88517 0.616145,-0.74241 1.623058,-1.00074 2.237585,-0.57406 0.614526,0.42667 3.592321,0.50557 6.617321,0.17533 l 5.499997,-0.60045 -6.249997,-0.16299 c -5.017014,-0.13084 -6.25,-0.48132 -6.25,-1.77654 0,-1.3216 0.768965,-1.50976 4.25,-1.03992 9.520867,1.28504 16.212597,1.66402 14.249997,0.80704 -1.1,-0.48032 -5.36116,-1.19834 -9.46925,-1.5956 -7.912338,-0.76514 -11.040476,-1.85651 -11.015434,-3.84316 0.011,-0.87274 0.222195,-0.89784 0.75,-0.0891 0.735734,1.12728 9.912227,2.85016 20.234684,3.79905 l 5.5,0.50558 -6,-1.52343 c -3.3,-0.83789 -10.724997,-2.61172 -16.499997,-3.94185 -5.775,-1.33012 -16.125,-3.75618 -23,-5.39123 -15.859063,-3.7717 -29.540372,-6.45886 -43.5,-8.54389 -14.848971,-2.21787 -25.3777968,-4.52316 -26.1163713,-5.7182 -0.3351502,-0.54229 -0.1096634,-1.48568 0.5010818,-2.09642 0.8139278,-0.81393 3.4475712,-0.64359 9.8628675,0.63789 4.813832,0.96159 9.877422,1.97262 11.252422,2.24674 4.483587,0.89385 19.370623,4.37412 25,5.84447 3.025,0.79011 7.525,1.88632 10,2.43603 2.475,0.54971 8.55,1.8974 13.5,2.99486 4.95,1.09746 11.025,2.28934 13.5,2.64862 2.475,0.35928 6.895868,1.33001 9.824152,2.15718 7.719195,2.18049 7.308815,1.07003 -0.587651,-1.59016 -3.705076,-1.24821 -7.636501,-2.65744 -8.736501,-3.13165 -5.572399,-2.40229 -40.3086,-13.9614 -45,-14.97458 -19.204656,-4.14754 -35.1831075,-8.66297 -36.1412913,-10.21334 -0.9288201,-1.50287 1.8156291,-2.83494 4.6412914,-2.25275 1.375,0.2833 3.3999999,0.70619 4.4999999,0.93976 3.114837,0.66137 33.720868,10.86966 46.5,15.50954 6.325,2.2965 13.975,4.89733 17,5.77963 3.025,0.8823 6.573186,2.42503 7.884859,3.4283 2.971767,2.27304 5.941353,2.31957 9.142635,0.14325 2.453486,-1.66795 2.458791,-1.66514 0.689634,0.36507 -1.733488,1.98927 -1.705789,2.07599 1,3.13085 4.651652,1.81347 13.596259,4.2049 14.045859,3.7553 0.83545,-0.83545 -5.84905,-3.63638 -7.04236,-2.95088 -0.67135,0.38565 -0.8795,0.32542 -0.46257,-0.13386 0.41693,-0.45928 -0.48307,-1.6906 -1.999997,-2.73628 -2.728554,-1.88089 -2.731315,-1.89381 -0.25806,-1.2078 1.374997,0.38139 5.874997,2.30472 9.999997,4.27407 9.96029,4.75523 10.07966,4.79193 5.80305,1.78434 -2.03332,-1.42996 -3.96614,-2.59993 -4.29516,-2.59993 -0.32901,0 -3.89992,-2.22797 -7.93534,-4.95104 -4.035417,-2.72308 -7.507313,-4.78086 -7.71532,-4.57285 -0.208007,0.208 -0.889328,-0.70489 -1.514048,-2.02867 -1.067795,-2.26263 -1.007248,-2.33965 1.010484,-1.28536 1.180485,0.61682 3.271337,1.88926 4.646337,2.82765 1.374997,0.93839 5.649997,3.38699 9.499997,5.44133 6.12218,3.26676 6.62379,3.40216 4,1.07977 -1.65,-1.46047 -4.575,-3.72353 -6.5,-5.02903 -1.925,-1.3055 -7.324997,-5.15956 -11.999997,-8.56459 -4.675,-3.40502 -12.55,-8.92286 -17.5,-12.26185 -4.95,-3.33899 -9.225,-6.35992 -9.5,-6.71318 -0.275,-0.35326 -0.954198,-0.82227 -1.509328,-1.04224 -0.555131,-0.21997 -5.660041,-3.32494 -11.344246,-6.89994 -5.684204,-3.575 -13.211841,-8.3 -16.728082,-10.5 -9.988121,-6.24925 -16.545121,-11.77322 -15.369902,-12.94844 1.004299,-1.0043 8.504568,2.29395 11.93914,5.25025 0.83183,0.716 6.237418,4.45914 12.012418,8.3181 23.739259,15.86301 32.815153,22.02593 38.75387,26.31551 8.53863,6.16752 11.507451,7.56993 15.946467,7.53278 4.26109,-0.0357 6.82261,-1.55665 7.56699,-4.49313 0.46197,-1.8224 0.50963,-1.83029 0.61667,-0.10206 0.097,1.56708 8.14936,14.02111 10.10383,15.62699 0.33469,0.275 1.69533,2.075 3.02363,4 1.32831,1.925 2.92829,3.95 3.55552,4.5 0.62723,0.55 1.93662,2.125 2.90976,3.5 1.10522,1.56162 1.53388,1.80826 1.14204,0.6571 -0.34502,-1.0136 -0.92235,-3.0386 -1.28295,-4.5 -0.3606,-1.46141 -1.48368,-3.38488 -2.49573,-4.2744 -1.01206,-0.88951 -1.8401,-2.17786 -1.8401,-2.86299 0,-0.68514 -2.17382,-5.13236 -4.83072,-9.88271 -2.65689,-4.75035 -6.29578,-11.562 -8.08642,-15.137 -1.79064,-3.575 -6.40714,-12.575 -10.2589,-20 -13.570813,-26.16035 -30.823957,-60.80574 -30.823957,-61.89644 0,-0.60696 0.8388,-1.10356 1.863999,-1.10356 2.390401,0 6.54301,5.99753 9.011134,13.01461 1.06116,3.01696 4.269309,10.43539 7.129219,16.48539 8.672769,18.34682 12.995645,27.67994 12.995645,28.05767 0,0.19749 2.20499,4.99031 4.89998,10.65071 2.69499,5.66039 5.18495,11.25572 5.53325,12.43407 0.95502,3.23096 5.98733,5.00561 9.24714,3.26102 3.94933,-2.11362 5.06333,-5.40926 2.72829,-8.0713 -1.04976,-1.19678 -1.32812,-1.8359 -0.61858,-1.42028 0.94701,0.55473 1.15591,0.13506 0.78554,-1.5781 -1.12773,-5.21644 -4.62343,-24.75363 -5.51694,-30.83379 -1.3586,-9.24495 -3.64411,-21.97059 -5.92676,-33 -2.65948,-12.85017 -3.09888,-20.5 -1.1775,-20.5 1.95781,0 3.42921,6.99643 5.97149,28.39426 2.1508,18.10279 3.59322,27.08965 7.72111,48.10574 1.35036,6.875 3.35777,18.56307 4.4609,25.97348 1.10314,7.41042 2.26613,13.71042 2.58441,14 0.77997,0.70964 -0.41874,-19.92252 -2.26432,-38.97348 -1.74078,-17.9692 -5.26676,-51.02142 -5.94506,-55.72855 -1.35428,-9.39802 -1.61331,-22.07285 -0.4656,-22.78217 1.61628,-0.99892 2.82642,1.15275 3.38057,6.01072 0.66325,5.81444 3.52409,43.39247 4.14911,54.5 1.03225,18.34424 2.56225,29.42721 4.24504,30.75 2.17032,1.70602 5.79045,1.56965 8.68538,-0.32718 2.38839,-1.56493 2.40004,-1.55522 1.49976,1.25 -1.16446,3.62836 -4.97721,20.80906 -4.97721,22.42786 0,2.69371 1.29372,-0.3033 2.50226,-5.79671 0.70228,-3.19218 2.03644,-8.65105 2.96481,-12.13081 0.92837,-3.47975 1.43322,-6.99063 1.12189,-7.80193 -0.31133,-0.81131 -0.19792,-1.24759 0.25202,-0.96951 0.44994,0.27808 2.29088,-4.98605 4.09098,-11.69806 3.98066,-14.84263 7.84116,-28.00125 13.26195,-45.20366 5.57198,-17.68224 7.13416,-21.69173 8.30609,-21.31849 2.65802,0.84655 0.19849,10.95548 -10.29619,42.31849 -6.07335,18.15 -11.34958,34.575 -11.72496,36.5 -0.37538,1.925 -1.58449,6.33969 -2.68692,9.81043 -1.10243,3.47073 -1.81232,6.50251 -1.57754,6.73729 0.23477,0.23478 1.46301,-2.95012 2.72942,-7.07754 2.47551,-8.0681 3.47319,-9.66273 3.69812,-5.91086 0.28648,4.77847 5.31928,7.26865 10.94077,5.41339 1.95322,-0.64462 3.36012,-1.36322 3.12646,-1.59688 -0.23367,-0.23367 1.19868,-2.17504 3.183,-4.31417 4.41224,-4.75648 9.10784,-10.63559 9.10784,-11.40345 0,-0.31202 1.0125,-1.63148 2.25,-2.93214 4.55018,-4.78241 14.59484,-16.45514 21.27737,-24.72607 8.59655,-10.6399 14.94297,-17.19633 15.8081,-16.3312 1.49283,1.49283 0.42218,3.71106 -4.17068,8.64106 -5.21037,5.59283 -15.50307,18.09454 -26.59911,32.30777 -3.81388,4.8853 -8.73581,10.78544 -10.93763,13.1114 -2.20182,2.32597 -3.71531,4.51705 -3.3633,4.86905 0.35201,0.35201 -0.0136,1.29359 -0.81237,2.0924 -2.05143,2.05143 -1.81516,3.62603 0.99987,6.6635 3.11399,3.36005 6.79579,3.41743 9.36909,0.14602 1.08158,-1.375 2.42674,-2.5 2.98925,-2.5 0.56251,0 1.17274,-0.3375 1.35608,-0.75 0.18333,-0.4125 2.80833,-2.36293 5.83333,-4.3343 23.19268,-15.11445 35.86355,-23.62988 42.15848,-28.33251 4.03353,-3.01325 8.12295,-5.68503 9.0876,-5.93729 2.95362,-0.77239 1.95758,1.84241 -1.87804,4.93023 -8.50486,6.84675 -10.0672,8.08114 -13.86804,10.95702 -5.84025,4.41899 -25.20132,17.46812 -40.01087,26.96685 -6.75245,4.33097 -11.3257,8.43501 -9.43913,8.47069 0.8525,0.0161 2.1808,-0.53319 2.95177,-1.22069 1.1911,-1.06213 1.20437,-0.98894 0.0883,0.48701 -0.75137,0.9937 -1.05104,2.78248 -0.70027,4.18008 1.4261,5.68203 6.36904,7.13112 12.146,3.56077 1.79954,-1.11218 7.02765,-3.34157 11.61803,-4.95419 4.59038,-1.61263 10.82114,-3.89351 13.84614,-5.06862 3.025,-1.17511 7.3,-2.72213 9.5,-3.43783 4.135,-1.34517 11.5012,-4.06988 15,-5.54839 1.1,-0.46483 4.7,-1.56952 8,-2.45486 3.3,-0.88534 7.72249,-2.27352 9.82776,-3.08485 3.54026,-1.36436 3.8028,-1.34557 3.4955,0.25008 -0.35537,1.84529 -5.54798,4.06597 -28.82326,12.3266 -7.425,2.6352 -19.35,6.89971 -26.5,9.47668 -7.15,2.57697 -16.6,5.81629 -21,7.19848 -9.0852,2.85398 -26.5,9.41293 -26.5,9.98072 0,0.20703 1.2375,0.1325 2.75,-0.16563 2.18108,-0.42991 2.33624,-0.35908 0.75,0.34238 -1.1,0.48644 -4.12701,1.19779 -6.72669,1.58078 -2.59968,0.38299 -4.98874,1.12035 -5.30902,1.63857 -0.75355,1.21927 1.17367,1.19545 5.54231,-0.0685 1.92137,-0.5559 8.2184,-1.68875 13.9934,-2.51746 5.775,-0.82871 11.5125,-1.73246 12.75,-2.00833 1.93774,-0.43198 2.25,-0.0927 2.25,2.44488 0,2.01187 0.87228,3.64752 2.75,5.15663 l 2.75,2.21015 -16.5,-0.57767 c -15.20777,-0.53243 -16.14757,-0.46663 -12,0.84016 2.475,0.7798 8.1,1.94853 12.5,2.59717 16.61605,2.44951 17.25213,2.57822 14,2.83289 -1.65,0.12922 -4.575,0.20184 -6.5,0.16139 -3.42073,-0.0719 -3.44012,-0.0504 -0.85616,0.94663 1.98137,0.76455 2.51126,1.52719 2.11471,3.04359 -0.3145,1.20266 0.35754,3.22272 1.65677,4.98003 l 2.18591,2.9566 -4.80061,-2.45208 c -7.92805,-4.04952 -24.95731,-10.2805 -25.79826,-9.43955 -0.22011,0.22011 3.28931,2.09924 7.79872,4.17585 4.50941,2.0766 7.00703,3.52746 5.55029,3.22413 -4.7388,-0.98674 -14.85134,-5.93451 -14.85134,-7.26633 0,-0.71388 -0.4132,-1.29796 -0.91821,-1.29796 -0.50502,0 -1.63512,-0.2751 -2.51134,-0.61134 -1.21006,-0.46434 -1.42932,-0.18444 -0.91185,1.16404 0.4913,1.28031 0.32721,1.55656 -0.58843,0.99067 -2.5055,-1.54849 0.90047,3.39129 3.52317,5.10974 1.38763,0.90922 3.79189,2.82172 5.34281,4.25 1.55091,1.42829 6.22382,4.94552 10.38424,7.81606 7.30329,5.03901 7.58868,5.1427 8.26752,3.00384 0.38672,-1.21843 1.42514,-2.76525 2.30761,-3.43737 2.7743,-2.11301 3.11939,-1.39146 0.55903,1.16891 -2.9703,2.97029 -3.09386,4.90614 -0.47999,7.52001 3.16587,3.16587 6.765,3.59411 10.01459,1.19158 2.47372,-1.8289 2.98291,-1.90473 4.06169,-0.60489 0.67836,0.81739 6.23096,3.98794 12.3391,7.04568 6.10814,3.05774 11.55668,5.91251 12.10788,6.34394 0.5512,0.43142 5.05218,2.94308 10.00218,5.58145 4.95,2.63838 9.94272,5.52032 11.09494,6.40431 1.15221,0.884 4.63971,2.68302 7.75,3.99782 3.11028,1.31481 5.65506,2.99243 5.65506,3.72805 0,0.73563 -0.44283,1.3375 -0.98407,1.3375 -2.31758,0 -19.9356,-9.71211 -33.51593,-18.476 -2.75,-1.77468 -9.91009,-6.05642 -15.91132,-9.51497 -10.31207,-5.94293 -10.98558,-6.18673 -12.26348,-4.43909 -1.64411,2.24846 -1.29103,3.60955 1.27891,4.93006 5.23582,2.69031 28.20162,17.08316 30.39589,19.04934 1.375,1.23207 4.75,3.43242 7.5,4.88967 6.78258,3.59413 16.84963,10.87687 16.70049,12.08153 -0.25228,2.03762 -3.86705,1.46329 -6.16142,-0.97895 -1.31323,-1.39788 -2.82928,-2.54159 -3.36899,-2.54159 -0.53972,0 -2.37377,-1.05676 -4.07569,-2.34836 -1.70191,-1.2916 -8.26939,-5.85647 -14.59439,-10.14416 -23.61577,-16.00902 -30.52979,-20.859 -31.62294,-22.18258 -0.61762,-0.7478 -1.85474,-1.07883 -2.74916,-0.73561 -1.06454,0.40851 -2.6529,-0.47504 -4.59884,-2.55818 -1.63495,-1.75022 -4.67136,-4.335 -6.74758,-5.74396 -2.07621,-1.40896 -5.35141,-3.70215 -7.27821,-5.09599 l -3.50327,-2.53424 2.5,2.47291 c 2.02444,2.0025 20.83987,17.99035 29.5,25.06675 6.25001,5.10704 19.61715,14.80342 20.40755,14.80342 0.50918,0 1.07578,0.3437 1.25912,0.76379 0.52306,1.19853 15.28134,12.89003 18.46862,14.63084 3.90877,2.13486 6.82894,4.75789 7.63195,6.85537 1.54921,4.04652 -3.45684,1.18682 -17.26724,-9.86389 -27.66622,-22.13776 -33.50514,-26.80165 -34.5,-27.55715 -0.55,-0.41767 -2.63441,-2.12505 -4.63202,-3.79418 -1.9976,-1.66913 -4.0976,-3.03478 -4.66666,-3.03478 -0.56906,0 -1.18465,-0.3375 -1.36799,-0.75 -0.18333,-0.4125 -5.95833,-5.69331 -12.83333,-11.73513 -11.61495,-10.20734 -12.11058,-10.53434 -7,-4.61841 3.025,3.5017 6.93748,7.94313 8.69441,9.86985 3.12478,3.42679 3.15209,3.53834 1.25301,5.11841 -3.05796,2.54428 -3.57702,7.48568 -1.05159,10.01111 2.88986,2.88986 5.72522,2.63696 9.18109,-0.81891 1.6077,-1.60769 2.92308,-2.56868 2.92308,-2.13554 0,1.90276 36.26461,36.05862 38.28485,36.05862 0.90327,0 1.09083,0.15445 8.86882,7.3035 5.80539,5.33596 7.76835,9.1965 4.67612,9.1965 -2.01846,0 -17.99809,-14.68258 -37.94743,-34.86725 -13.31607,-13.47317 -16.9451,-16.12677 -16.85375,-12.32373 0.0157,0.65504 3.42941,5.24098 7.58595,10.19098 4.15654,4.95 10.90043,13.5 14.98643,19 4.08599,5.5 10.23125,13.0929 13.65613,16.8731 6.63526,7.32367 9.37899,12.11573 7.57524,13.23051 -1.80269,1.11412 -9.14842,-7.31283 -17.5242,-20.10361 -1.44062,-2.2 -4.23681,-6.0119 -6.21374,-8.4709 -1.97693,-2.45899 -4.12323,-5.15899 -4.76955,-6 -8.00967,-10.42231 -17.95383,-22.33323 -18.97161,-22.72378 -3.27559,-1.25697 -3.25568,0.60341 0.0559,5.22098 1.96184,2.73554 4.47706,6.5487 5.58938,8.4737 1.11232,1.925 2.58019,4.3723 3.26193,5.43845 1.7359,2.7147 11.56899,17.72141 12.89408,19.67821 0.60212,0.88916 2.83751,4.26416 4.96753,7.5 2.13003,3.23584 5.64152,8.56626 7.80332,11.84539 4.36333,6.61854 4.41,8.76122 0.11556,5.30593 -2.51911,-2.02687 -14.84507,-19.73244 -21.07144,-30.26798 -1.30017,-2.2 -2.66539,-4.225 -3.03381,-4.5 -0.36843,-0.275 -2.36795,-3.2 -4.4434,-6.5 -9.04656,-14.38423 -12.73755,-19.5 -14.06911,-19.5 -0.78276,0 -1.4232,0.18653 -1.4232,0.41452 0,1.34047 24.03287,47.76387 26.20698,50.62306 4.71271,6.19769 10.18701,17.96843 8.93772,19.21772 -0.82428,0.82428 -1.76942,0.50643 -3.59566,-1.20923 -2.42136,-2.27475 -22.35512,-40.91002 -30.07769,-58.29607 -3.66597,-8.25331 -5.47135,-10.64906 -5.47135,-7.26052 0,2.78007 5.20283,14.5032 6.17107,13.90479 0.52948,-0.32723 0.84034,0.0127 0.69079,0.75538 -0.30658,1.52256 3.93421,14.7526 5.27546,16.45789 0.4791,0.60914 1.70494,3.53414 2.72407,6.5 3.29947,9.60203 8.01615,21.73041 9.95897,25.60832 2.6997,5.38867 3.51905,9.28708 1.94869,9.27176 -1.21515,-0.0119 -5.76905,-6.12029 -5.76905,-7.7384 0,-0.42836 -0.82846,-2.34717 -1.84102,-4.26403 -1.01256,-1.91685 -3.07114,-6.86019 -4.57462,-10.98519 -1.50348,-4.125 -3.34919,-9.075 -4.10159,-11 -0.7524,-1.925 -2.99321,-7.775 -4.97957,-13 -4.21452,-11.086 -8.70788,-22.33102 -9.14753,-22.8925 -0.98666,-1.26007 -3.01225,2.30623 -2.64046,4.64885 0.39937,2.51636 0.9298,4.0253 3.42513,9.74365 0.48001,1.1 1.26718,4.025 1.74926,6.5 1.69241,8.68873 5.99259,24.15313 7.08091,25.46447 0.60481,0.72875 1.00813,1.70988 0.89626,2.18027 -0.26412,1.11056 1.22623,8.5635 1.96723,9.83768 0.68318,1.17477 0.90198,2.26546 1.96119,9.77626 0.91332,6.47634 -0.0737,9.4965 -2.03972,6.24132 -1.39086,-2.30287 -4.71595,-14.92312 -8.29938,-31.5 -4.30172,-19.89964 -9.58725,-41.4051 -10.79445,-43.91982 -2.29087,-4.77215 -3.16822,-3.24686 -2.83512,4.92894 0.17958,4.40788 0.71101,7.7767 1.18095,7.48627 0.46994,-0.29044 0.63095,1.50428 0.3578,3.98827 -0.27316,2.48399 -0.12958,4.51606 0.31904,4.51572 0.44863,-3.4e-4 0.65491,2.3216 0.45839,5.15987 -0.19651,2.83828 0.10001,6.77606 0.65893,8.75063 1.85661,6.55905 3.22839,13.52623 3.75868,19.09012 0.28832,3.025 0.95535,7.75 1.48231,10.5 1.39108,7.25956 1.45645,14.40093 0.14384,15.71354 -1.87487,1.87487 -4.30281,-5.56586 -5.2838,-16.19287 -0.48337,-5.23637 -1.32516,-12.44567 -1.87065,-16.02067 -0.54549,-3.575 -1.00084,-8.88906 -1.0119,-11.80902 -0.0111,-2.91996 -0.35761,-5.10063 -0.77011,-4.84594 -0.4125,0.25469 -0.76138,-1.85625 -0.77528,-4.69098 -0.0415,-8.46334 -1.553,-24.97259 -2.53183,-27.65406 -0.93628,-2.5649 -0.51893,19.16582 0.65299,34 0.32588,4.125 0.53124,9.29638 0.45635,11.49196 -0.13655,4.00388 -1.42239,6.47122 -2.70434,5.18926 -0.63115,-0.63115 -1.94683,-22.99341 -2.58273,-43.89808 -0.22252,-7.3151 -0.498,-8.57242 -1.7131,-7.81865 -1.34707,0.83564 -1.81333,10.2085 -2.24029,45.03551 -0.0101,0.825 0.0491,8.25 0.13149,16.5 0.15102,15.11304 -0.54941,20.53538 -2.74725,21.268 -0.65723,0.21907 -1.53269,-0.42661 -1.94548,-1.43484 z m 28.29492,-82.78771 c 1.35,-1.35 2.48307,-3.4875 2.51794,-4.75 l 0.0634,-2.29545 0.90439,2.25 c 0.7579,1.88556 3.96884,3.31084 3.96884,1.7617 0,-0.26857 -2.5875,-4.88258 -5.75,-10.25337 -3.1625,-5.37078 -6.38818,-11.00036 -7.16817,-12.51018 -0.78,-1.50983 -1.5995,-2.56381 -1.82113,-2.34219 -0.22162,0.22163 1.88756,5.05845 4.68708,10.7485 2.79951,5.69005 4.46941,9.55804 3.71088,8.59554 -0.75853,-0.9625 -1.8309,-1.75 -2.38304,-1.75 -0.55215,0 -1.77726,-2.025 -2.72247,-4.5 -0.94521,-2.475 -2.13135,-4.5 -2.63586,-4.5 -1.16964,0 -1.19551,1.71002 -0.0367,2.42621 0.48433,0.29933 1.08516,1.61436 1.33519,2.92229 0.36646,1.91701 0.0988,2.28502 -1.3806,1.89815 -1.00936,-0.26395 -1.8352,-1.07587 -1.8352,-1.80426 0,-0.7284 -0.52089,-1.64628 -1.15752,-2.03974 -0.8036,-0.49666 -0.97322,-0.0106 -0.55474,1.58966 0.33153,1.26779 0.31418,3.70065 -0.0386,5.40638 l -0.64135,3.10131 -1.22706,-4 c -0.96368,-3.14144 -1.24355,-3.46022 -1.30391,-1.48519 -0.0794,2.5972 2.97165,9.16095 5.68727,12.23519 2.14909,2.4329 4.89227,2.18452 7.78133,-0.70455 z m -32.24496,-0.88613 c 0.28296,-0.73738 0.11299,-1.97488 -0.3777,-2.75 -0.6493,-1.02567 -0.89633,-0.66071 -0.90748,1.34068 -0.0166,2.98623 0.47372,3.52394 1.28518,1.40932 z m 12.69951,-0.65932 c 2.44313,-2.44313 2.73185,-2.46493 3.31067,-0.25 0.73958,2.83007 0.53807,-7.71961 -0.27218,-14.25 l -0.74445,-6 -0.14702,6.58333 c -0.11232,5.02947 -0.49068,6.58334 -1.60303,6.58334 -0.80081,0 -1.22376,-0.37579 -0.9399,-0.83509 0.28386,-0.4593 0.17498,-7.4718 -0.24197,-15.58334 -0.84593,-16.45735 -2.05209,-15.39818 -2.24381,1.97038 -0.0965,8.73947 -0.3766,10.61949 -1.51716,10.18182 -0.76937,-0.29523 -1.65842,-0.11679 -1.97568,0.39654 -0.31725,0.51333 -1.60027,0.82112 -2.85115,0.68397 -2.02909,-0.22248 -2.30645,0.23612 -2.57232,4.25307 -0.20926,3.16181 0.20908,5.06274 1.40499,6.38421 2.28639,2.52643 7.8112,2.46358 10.39301,-0.11823 z m 22.93124,-17.46623 c -1.8406,-3.03697 -4.39459,-6.76197 -5.67555,-8.27777 -1.28096,-1.5158 0.0286,1.16541 2.91008,5.95823 2.8815,4.79283 5.4355,8.51783 5.67556,8.27778 0.24005,-0.24006 -1.06949,-2.92126 -2.91009,-5.95824 z m -29.24191,-1.28377 c -0.25153,-0.9625 -0.45733,-0.175 -0.45733,1.75 0,1.925 0.2058,2.7125 0.45733,1.75 0.25152,-0.9625 0.25152,-2.5375 0,-3.5 z m 11.99378,1.5625 c -0.31922,-0.79773 -0.55618,-0.56078 -0.60416,0.60417 -0.0434,1.05416 0.19292,1.64479 0.52522,1.3125 0.33229,-0.3323 0.36781,-1.1948 0.0789,-1.91667 z m 3.60664,-0.8125 c -0.28766,-1.1 -0.69553,-2 -0.90638,-2 -0.21085,0 -0.38337,0.9 -0.38337,2 0,1.1 0.40787,2 0.90638,2 0.49851,0 0.67103,-0.9 0.38337,-2 z m 20.05913,-0.31779 c 0.35811,0.35812 0.65112,0.44954 0.65112,0.20315 0,-0.24638 -2.79704,-3.13388 -6.21564,-6.41666 -3.4186,-3.28279 -5.4436,-5.03327 -4.5,-3.88996 0.9436,1.14331 1.71564,2.32413 1.71564,2.62405 0,0.29992 1.19816,2.68904 2.66257,5.30917 2.30567,4.12529 2.82159,4.54639 3.84888,3.14149 0.65247,-0.8923 1.47931,-1.32936 1.83743,-0.97124 z m -43.43271,-7.18221 c 0,-0.55 -0.86228,0.575 -1.91617,2.5 -1.05389,1.925 -1.91617,3.95 -1.91617,4.5 0,0.55 0.86228,-0.575 1.91617,-2.5 1.05389,-1.925 1.91617,-3.95 1.91617,-4.5 z m -11.32569,-2.70112 c 10.29559,-12.22015 10.66628,-13.39218 1.04337,-3.29888 -7.18141,7.53245 -10.04266,11.5 -8.29337,11.5 0.18727,0 3.44977,-3.6905 7.25,-8.20112 z m 35.98427,4.00437 c -1.87892,-2.68253 -2.03727,-1.91248 -0.36256,1.76312 0.66671,1.46326 1.37535,2.17102 1.57475,1.57281 0.1994,-0.59821 -0.34608,-2.09938 -1.21219,-3.33593 z m -8.86749,-2.04159 c -0.23919,-1.24391 -0.44398,-0.46166 -0.45508,1.73834 -0.0111,2.2 0.18461,3.21775 0.4349,2.26166 0.25029,-0.95609 0.25937,-2.75609 0.0202,-4 z m 5.72131,1.80977 c -0.36782,-1.46551 -0.86162,-2.47171 -1.09733,-2.236 -0.23572,0.23572 -0.12763,1.62763 0.24019,3.09314 0.36782,1.46551 0.86162,2.47171 1.09733,2.236 0.23572,-0.23572 0.12763,-1.62763 -0.24019,-3.09314 z m -16.58587,-6.07143 c -0.003,-0.55 -0.62329,0.35 -1.37881,2 -0.75553,1.65 -1.35974,3.675 -1.34271,4.5 0.017,0.825 0.63751,-0.075 1.37882,-2 0.74131,-1.925 1.34553,-3.95 1.3427,-4.5 z m -20.29565,1.29616 3.95295,-4.20383 -4.16535,3.45383 c -3.54569,2.94003 -5.18704,4.95384 -4.0376,4.95384 0.16338,0 2.07588,-1.89173 4.25,-4.20384 z m 6.58051,-6.54616 c 1.24387,-1.58606 1.2085,-1.62143 -0.37756,-0.37756 -0.9625,0.75485 -1.75,1.54235 -1.75,1.75 0,0.82304 0.82119,0.29331 2.12756,-1.37244 z m 25.55555,-0.4375 c -0.31922,-0.79773 -0.55618,-0.56078 -0.60416,0.60417 -0.0434,1.05416 0.19292,1.64479 0.52522,1.3125 0.33229,-0.3323 0.36781,-1.1948 0.0789,-1.91667 z m -36.01736,-5.48008 c -0.59715,-0.59715 -12.151646,4.62528 -12.491933,5.64614 -0.201199,0.6036 2.587926,-0.35911 6.198053,-2.13935 3.61014,-1.78023 6.44238,-3.35829 6.29388,-3.50679 z m 37.91297,-4.10623 c -1.72194,-1.64929 -1.74325,-1.62798 -0.47833,0.47833 0.72815,1.21249 1.53915,1.98927 1.80223,1.72619 0.26308,-0.26308 -0.33267,-1.25511 -1.3239,-2.20452 z m 38.42128,0.29286 c 0,-0.81452 -1.2375,-1.73981 -2.75,-2.05619 -1.5125,-0.31639 -5.54248,-1.22496 -8.95552,-2.01905 -9.83719,-2.28877 -9.57511,-1.53395 0.70552,2.03201 11.41998,3.96116 11,3.88315 11,2.04323 z m -81.75,-7.18133 c -0.6875,-0.27741 -1.8125,-0.27741 -2.5,0 -0.6875,0.27741 -0.125,0.50439 1.25,0.50439 1.375,0 1.9375,-0.22698 1.25,-0.50439 z m 72.98002,-6.33772 c 8.3271,0 10.82729,-0.29826 10.47831,-1.25 -0.25208,-0.6875 -0.87519,-1.1673 -1.38469,-1.06621 -0.5095,0.10108 -5.62825,0.46524 -11.375,0.80923 -5.74675,0.344 -12.92364,1.03035 -15.94864,1.52523 l -5.5,0.89978 6.39669,-0.45901 c 3.51818,-0.25246 11.31818,-0.45902 17.33333,-0.45902 z m -72.50085,-7.60417 c -0.3323,-0.33229 -1.1948,-0.36781 -1.91667,-0.0789 -0.79773,0.31922 -0.56078,0.55618 0.60417,0.60416 1.05416,0.0434 1.64479,-0.19293 1.3125,-0.52522 z m 69.50111,-10.51671 c 3.15166,-1.85852 5.73916,-3.76837 5.75,-4.24413 0.0109,-0.47576 -1.21778,-0.0405 -2.73028,0.96725 -1.5125,1.00774 -6.35,3.97752 -10.75,6.59951 -4.4,2.622 -8.675,5.24703 -9.5,5.83341 -2.18242,1.55118 10.51603,-5.19668 17.23028,-9.15604 z m -22.10404,6.14848 c 1.63482,-1.63482 5.65021,-5.0762 8.92308,-7.64751 3.27287,-2.57132 5.95148,-4.94624 5.95247,-5.27761 9.8e-4,-0.33136 2.02598,-1.8813 4.5,-3.4443 4.76333,-3.00932 5.33198,-3.60358 3.14049,-3.28194 -1.2016,0.17636 -4.94006,3.05749 -15.08253,11.62376 -5.75359,4.85944 -12.01437,11 -11.21535,11 0.44519,0 2.14703,-1.33758 3.78184,-2.9724 z m 21.30432,-0.5276 c 4.22413,-1.925 8.33031,-3.5 9.12484,-3.5 0.79453,0 1.4446,-0.45 1.4446,-1 0,-1.55671 -2.07069,-1.18137 -7.5,1.35945 -5.32103,2.49015 -12.41732,6.63058 -11.37484,6.63681 0.34383,0.002 4.08126,-1.57126 8.3054,-3.49626 z m -29.46119,-1 c 0,-0.55 -0.43621,-0.325 -0.96937,0.5 -0.53316,0.825 -0.96937,1.95 -0.96937,2.5 0,0.55 0.43621,0.325 0.96937,-0.5 0.53316,-0.825 0.96937,-1.95 0.96937,-2.5 z m 27.78063,-8.29161 c 3.4375,-2.3556 6.25,-4.5177 6.25,-4.80467 0,-0.63591 -0.75859,-0.19408 -9,5.24192 -3.575,2.35806 -7.85,5.44084 -9.5,6.85063 -2.91848,2.4936 -2.87772,2.4876 1.5,-0.22086 2.475,-1.53126 7.3125,-4.71142 10.75,-7.06702 z m -40.7467,6.30029 c -0.52096,-1.37022 -0.68868,-3.16499 -0.37272,-3.98837 0.31596,-0.82339 0.10036,-3.6398 -0.47911,-6.25869 -0.57948,-2.61889 -1.59768,-8.02412 -2.26268,-12.01162 -0.665,-3.9875 -1.63949,-7.25 -2.16552,-7.25 -0.88377,0 -0.77161,1.17064 0.62277,6.5 1.32486,5.06365 1.75684,8.95242 0.83313,7.5 -0.52468,-0.825 -1.25174,-3.3092 -1.61568,-5.52046 -0.82114,-4.98902 -1.98061,-6.95781 -3.53271,-5.99856 -1.42648,0.88161 -0.76413,3.98068 2.19725,10.28075 1.174,2.49757 2.16546,6.00321 2.20325,7.79032 0.0378,1.78711 0.36995,3.06485 0.73813,2.83941 0.36817,-0.22543 1.21477,1.28177 1.88131,3.34933 1.33844,4.15171 1.86144,5.25921 2.48355,5.25921 0.22892,0 -0.01,-1.12109 -0.53097,-2.49132 z m -9.8867,-1.96764 c -7.9736,-10.6225 -12.30643,-15.68454 -12.90918,-15.0818 -0.25338,0.25338 1.3963,2.67866 3.66595,5.38951 5.82368,6.95575 5.12281,7.56674 -1.34863,1.17568 -3.01139,-2.97398 -5.78916,-5.09334 -6.17282,-4.70969 -0.38365,0.38366 1.27124,2.38229 3.67754,4.44141 2.40631,2.05912 5.67792,5.17508 7.27026,6.92436 1.59234,1.74928 3.72838,3.11775 4.74674,3.04104 1.10462,-0.0832 1.53633,-0.55945 1.07014,-1.18051 z m -4.13666,-1.06521 c -1.93237,-2.32837 -0.55355,-2.76715 1.51451,-0.48196 0.99854,1.10337 1.35088,2.00613 0.78298,2.00613 -0.5679,0 -1.60177,-0.68587 -2.29749,-1.52417 z m 29.31017,-1.47721 c 0.28785,-1.10076 0.11534,-1.7492 -0.38337,-1.44098 -0.49871,0.30822 -0.90674,1.20884 -0.90674,2.00138 0,2.06975 0.6795,1.77459 1.29011,-0.5604 z m 24.16588,-15.87596 c -0.26913,-0.26913 -0.85315,-0.0693 -1.29784,0.44401 -0.44468,0.51333 -3.23208,3.63333 -6.19422,6.93333 l -5.3857,6 6.68354,-6.44401 c 3.67595,-3.54421 6.46335,-6.66421 6.19422,-6.93333 z m -45.63987,9.37311 c -0.62755,-1.37732 -1.32936,-2.31586 -1.55958,-2.08564 -0.46705,0.46705 1.56047,4.58987 2.2572,4.58987 0.24386,0 -0.0701,-1.1269 -0.69762,-2.50423 z m 24.20633,-0.0548 c 0.53512,-1.40747 2.12238,-5.07196 3.52724,-8.14331 1.40487,-3.07135 2.2775,-6.30561 1.93918,-7.18726 -0.42153,-1.09848 -1.53064,0.44159 -3.524,4.89331 -1.59987,3.57297 -2.92147,7.25724 -2.93687,8.18728 -0.0154,0.93004 -0.478,1.9691 -1.028,2.30902 -1.30575,0.807 -1.28899,2.5 0.0248,2.5 0.56361,0 1.46258,-1.15157 1.9977,-2.55904 z m 6.4145,-5.99614 c 4.46685,-7.05135 5.36344,-9.30913 3.03409,-7.64045 -1.05654,0.75688 -8.86331,15.19563 -8.216,15.19563 0.21774,0 2.5496,-3.39983 5.18191,-7.55518 z m 0.56305,5.55517 c 0.5887,-1.1 0.84537,-2 0.57037,-2 -0.275,0 -0.98167,0.9 -1.57037,2 -0.5887,1.1 -0.84537,2 -0.57037,2 0.275,0 0.98167,-0.9 1.57037,-2 z m 5.03297,-2.5 c 1.35701,-1.85001 1.33579,-1.89707 -0.28297,-0.62756 -0.9625,0.75485 -1.75,1.84235 -1.75,2.41667 0,0.57432 0.12734,0.85672 0.28297,0.62756 0.15563,-0.22917 0.94313,-1.31667 1.75,-2.41667 z m -59.4288,-1.22917 c -1.016517,-1.01651 -1.855247,0.51389 -1.021217,1.86338 0.630027,1.01942 0.865577,1.02021 1.204297,0.004 0.2316,-0.69479 0.14921,-1.53513 -0.18308,-1.86742 z m 45.25526,-2.27083 c 0,-0.94548 -0.31771,-0.76064 -0.85943,0.5 -0.47269,1.1 -0.85943,2.675 -0.85943,3.5 0,0.94548 0.31771,0.76064 0.85943,-0.5 0.47269,-1.1 0.85943,-2.675 0.85943,-3.5 z m -25.63947,-2.79346 c -0.94598,-2.85278 -2.28246,-5.1913 -2.96996,-5.19671 -0.6875,-0.005 -1.25,0.42183 -1.25,0.94941 0,1.07816 5.28543,10.08866 5.68404,9.69005 0.14074,-0.14073 -0.5181,-2.58997 -1.46408,-5.44275 z m 40.33458,0.54346 c 2.05818,-2.8875 2.78247,-4.39916 1.60954,-3.35925 -1.99568,1.76935 -6.54343,8.60925 -5.72416,8.60925 0.20486,0 2.05644,-2.3625 4.11462,-5.25 z m 2.82702,1.69806 c 0.34149,-0.88992 0.17385,-1.29132 -0.39301,-0.94098 -0.5437,0.33602 -0.98855,1.0344 -0.98855,1.55194 0,1.43843 0.71677,1.12146 1.38156,-0.61096 z m -28.82186,-7.76716 c 0.26236,-3.175 0.0267,-5.81848 -0.55048,-6.1752 -0.64075,-0.39601 -1.00922,1.83185 -1.00922,6.10195 0,7.93362 0.90666,7.9762 1.5597,0.0733 z m 10.55711,183.95985 c -1.59812,-1.92562 -1.38439,-24.37984 0.2409,-25.30863 0.62826,-0.35902 0.84309,-0.31892 0.4774,0.0891 -0.3657,0.40803 0.0231,2.38854 0.86403,4.40113 1.01748,2.43518 1.48055,6.49917 1.38431,12.14901 -0.15046,8.83308 -0.93297,11.11979 -2.96664,8.66937 z M 129.97808,362.394 c 0.67834,-0.68342 1.48524,-0.99067 1.79313,-0.68278 0.30789,0.30789 -0.24711,0.86705 -1.23333,1.24258 -1.4252,0.54268 -1.54006,0.42782 -0.5598,-0.5598 z M 30.244753,348.20922 c 0,-2.17124 2.012834,-4.04966 13.5,-12.5985 6.05,-4.50246 13.7,-10.22444 17,-12.7155 3.3,-2.49107 9.375,-7.02666 13.5,-10.0791 8.160282,-6.03849 13.909723,-10.606 17.521485,-13.91954 2.18279,-2.00256 2.339393,-2.0185 2.792924,-0.28419 0.264259,1.01053 0.185336,1.74021 -0.175385,1.62151 -0.66193,-0.21781 -6.51416,4.37032 -15.120054,11.85408 -2.574077,2.23844 -6.443877,5.3862 -8.599555,6.99503 -2.155678,1.60883 -10.219415,7.89887 -17.919415,13.97788 -22.448021,17.72229 -22.5,17.75729 -22.5,15.14833 z m -6.401992,-8.53255 c -0.84462,-1.36662 1.192918,-3.51042 6.278806,-6.60624 10.05331,-6.11952 28.930385,-18.12248 41.623186,-26.46603 7.15,-4.70002 14.137914,-9.12515 15.528698,-9.83362 1.390784,-0.70848 4.90429,-3.23683 7.807791,-5.61856 5.235778,-4.2949 19.012098,-12.11888 19.854828,-11.27615 0.24133,0.24133 -2.17799,2.25207 -5.37627,4.4683 -3.19828,2.21623 -6.60255,4.73695 -7.56505,5.60161 -0.9625,0.86466 -2.130257,1.57211 -2.595007,1.57211 -0.46476,0 -1.6499,0.88939 -2.633649,1.97642 -0.983749,1.08703 -2.097788,1.78535 -2.475641,1.55182 -0.77314,-0.47782 -2.399873,0.52048 -16.552035,10.15772 -15.530816,10.57606 -28.605284,19.38145 -32.993665,22.22057 -2.2,1.42331 -4.225,2.84789 -4.5,3.16571 -0.951135,1.09926 -12.506499,8.58623 -14.217975,9.21213 -0.944886,0.34556 -1.927694,0.28895 -2.184017,-0.12579 z M 252.24475,316.91002 c -3.575,-1.3312 -12.35,-5.40705 -19.5,-9.05744 -7.15,-3.65039 -14.4625,-7.33774 -16.25,-8.19412 -1.7875,-0.85639 -3.25,-1.91331 -3.25,-2.34872 0,-0.43541 -0.74426,-0.79165 -1.6539,-0.79165 -0.90965,0 -4.51431,-1.59964 -8.01038,-3.55474 -4.55726,-2.54857 -6.47264,-3.18544 -6.76687,-2.25 -1.2099,3.84656 -1.41764,4.08495 -1.4899,1.70973 -0.0757,-2.48936 -4.07895,-7.45539 -4.07895,-5.05998 0,0.63525 -0.47656,1.15499 -1.05902,1.15499 -0.58246,0 -0.80719,-0.40746 -0.4994,-0.90547 0.30778,-0.498 -2.36566,-2.27436 -5.94099,-3.94746 -3.57532,-1.67309 -6.50059,-3.25922 -6.50059,-3.52473 0,-0.74078 5.02336,0.96182 9.70169,3.28825 5.00831,2.49052 5.4089,2.54119 4.65994,0.58941 -0.41491,-1.08124 0.0824,-1.48038 1.78138,-1.42971 2.0027,0.0597 2.08282,0.17832 0.53299,0.78904 -1.0032,0.39532 -1.81468,1.08635 -1.80329,1.53563 0.0281,1.10731 21.45919,11.60504 23.69169,11.60504 0.61375,0 6.77841,2.6693 16.4356,7.11661 3.575,1.64635 11.22197,5.12237 16.99326,7.72448 6.63532,2.99168 10.61461,5.36125 10.82332,6.44501 0.40724,2.11462 0.19998,2.09091 -7.81658,-0.89417 z m 0.42431,-13.37197 c -7.61209,-2.62007 -24.53084,-9.07633 -28.92431,-11.03763 -4.39186,-1.96057 -14.36281,-5.81468 -20.75623,-8.02298 -4.12834,-1.42593 -6.28066,-2.62754 -5.53354,-3.08928 0.67248,-0.41562 1.69487,-0.36379 2.27198,0.11516 0.98784,0.81984 17.45778,6.6559 36.51779,12.93995 4.675,1.54134 12.55,3.80228 17.5,5.02432 8.32988,2.05645 12.5,4.12666 12.5,6.20549 0,1.53247 -5.37761,0.68675 -13.57569,-2.13503 z m -76.92431,-2.01996 c 0.33992,-0.55 0.81648,-1 1.05902,-1 0.24254,0 0.44098,0.45 0.44098,1 0,0.55 -0.47656,1 -1.05902,1 -0.58246,0 -0.7809,-0.45 -0.44098,-1 z m 77,-12.00454 c -7.15,-1.57322 -16.6,-3.81043 -21,-4.97158 -4.4,-1.16115 -12.47279,-3.00183 -17.93954,-4.0904 -10.22949,-2.03696 -14.14295,-3.52606 -7.06046,-2.68656 2.2,0.26077 10.075,1.45836 17.5,2.66131 7.425,1.20295 19.35,3.12022 26.5,4.26061 12.72596,2.02972 19.88468,4.33391 19.66978,6.33116 -0.19086,1.77378 -4.39877,1.41548 -17.66978,-1.50454 z m -84,-7.81179 c -2.2,-1.5142 -5.6875,-3.54609 -7.75,-4.5153 -2.0625,-0.96921 -3.75,-2.18343 -3.75,-2.69826 0,-0.51483 3.41218,1.08128 7.58263,3.54692 4.17044,2.46563 7.96889,4.48297 8.44098,4.48297 0.4721,0 1.13647,0.45 1.47639,1 1.17018,1.89339 -2.00794,0.9313 -6,-1.81633 z m -86.535792,-4.01932 c 0.65881,-1.2846 1.472091,-2.06139 1.807291,-1.72619 0.335201,0.3352 -0.203825,1.38624 -1.197835,2.33565 -1.727753,1.65022 -1.754575,1.6234 -0.609456,-0.60946 z m 117.293952,0.0585 c 0.0949,-1.25971 0.66281,-1.80672 1.53021,-1.47387 0.75863,0.29111 1.00409,0.80941 0.54548,1.15177 -0.45862,0.34236 -1.14721,1.0056 -1.53022,1.47387 -0.383,0.46827 -0.62846,-0.05 -0.54547,-1.15177 z m 65.58365,-0.71442 c -0.27034,-0.27034 -4.50784,-0.72003 -9.41667,-0.99932 -27.70812,-1.57642 -32.30825,-1.92726 -46.72729,-3.56374 -4.84119,-0.54944 -9.12115,-0.80184 -9.51103,-0.56088 -0.38988,0.24096 -1.44673,-0.10142 -2.34855,-0.76085 -1.75884,-1.28609 4.77482,-1.33317 21.66173,-0.15608 4.4,0.3067 12.5,0.7625 18,1.01289 29.4666,1.34147 36.5,2.00592 36.5,3.44818 0,1.41608 -6.97185,2.76614 -8.15819,1.5798 z M 89.244753,275.51809 c 0,-0.55 0.675,-1 1.5,-1 0.825,0 1.5,0.45 1.5,1 0,0.55 -0.675,1 -1.5,1 -0.825,0 -1.5,-0.45 -1.5,-1 z M 197.53112,263.04455 c 1.68027,-0.87174 10.52553,-1.46934 28.32837,-1.9139 14.23689,-0.35552 30.38526,-0.87529 35.88526,-1.15504 9.7764,-0.49727 14.1507,0.37191 11.99164,2.38277 -0.5506,0.51281 -18.26097,1.15265 -39.82001,1.43862 -31.72534,0.42083 -38.38145,0.28318 -36.38526,-0.75245 z m 2.79258,-4.10979 c 0.048,-1.16495 0.28494,-1.4019 0.60416,-0.60417 0.28887,0.72187 0.25335,1.58437 -0.0789,1.91667 -0.3323,0.33229 -0.56864,-0.25834 -0.52522,-1.3125 z m -32.07895,-3.38773 c 0,-0.75293 11.3237,-4.15439 18.75,-5.6322 1.7875,-0.35571 3.25,-1.06705 3.25,-1.58076 0,-0.51371 0.42692,-0.67016 0.9487,-0.34768 0.52179,0.32248 2.88429,0.13685 5.25,-0.41251 15.85949,-3.68286 26.6022,-6.43986 35.3013,-9.05971 5.5,-1.65639 14.86643,-4.12445 20.81429,-5.48457 5.94786,-1.36012 11.1938,-2.70749 11.65765,-2.99417 0.46384,-0.28667 1.82447,-0.15828 3.02362,0.28531 1.74456,0.64536 1.9129,1.01772 0.84235,1.86329 -1.81008,1.42969 -13.18308,4.77042 -31.83791,9.35214 -13.93103,3.42153 -19.14371,4.57359 -25.5,5.63579 -5.25145,0.87756 -17.26915,3.69575 -19.5,4.5728 -1.375,0.54058 -4.75,1.1712 -7.5,1.40138 -2.75,0.23018 -5.14157,0.83276 -5.31461,1.33905 -0.17303,0.5063 -0.91962,0.68838 -1.65909,0.40462 -0.73947,-0.28376 -2.96039,-0.0698 -4.93539,0.47557 -1.975,0.54532 -3.59091,0.62707 -3.59091,0.18165 z m 33,-0.40011 c 0,-0.87687 1.71236,-1.60811 4.75,-2.02843 16.59142,-2.29577 32.9804,-4.7226 40.75,-6.03414 11.02721,-1.86144 24.81417,-2.43793 25.5,-1.06626 0.97264,1.94528 -15.11156,4.64154 -53.34538,8.94252 -16.87738,1.89855 -17.65462,1.90676 -17.65462,0.18631 z M 53.145457,254.08546 c -0.828393,-0.82839 -21.504091,-2.5206 -36.8221,-3.01372 -15.1493741,-0.48769 -19.3215322,-1.43648 -16.0702447,-3.65455 1.5303147,-1.044 10.0832347,-0.66448 23.9916407,1.06457 21.97439,2.7318 30.448722,4.08505 31.373696,5.01003 0.701739,0.70173 0.541392,1.0263 -0.507029,1.0263 -0.843334,0 -1.728017,-0.19468 -1.965963,-0.43263 z m 19.099296,-19.5637 c -4.125,-2.1344 -9.525,-4.745 -12,-5.80133 -13.75274,-5.86968 -22.455178,-9.35046 -30.5,-12.19933 -15.323463,-5.4264 -19.9999999,-7.53992 -19.9999999,-9.03879 0,-1.95882 3.2027759,-2.4251 6.3814369,-0.92906 1.44021,0.67784 3.518563,1.56642 4.618563,1.97463 8.93434,3.3155 61.5,28.55485 61.5,29.52916 0,1.13911 -3.0501,0.0608 -10,-3.53528 z m 121.558867,0.46248 c -1.26817,-0.95786 -1.46778,-1.46615 -0.57577,-1.46615 0.75095,0 13.99946,-6.25902 29.44113,-13.90892 26.67941,-13.21716 37.98297,-17.70738 34.74986,-13.80401 -1.75111,2.11414 -52.00638,27.1522 -61.07586,30.42908 -0.32902,0.11888 -1.47174,-0.44362 -2.53936,-1.25 z M 80.994753,230.89387 c -3.7125,-2.39884 -6.75,-4.62005 -6.75,-4.93604 0,-1.06143 4.149861,0.72972 8.843856,3.81716 5.967208,3.92489 6.506794,4.41591 5.493276,4.99888 -0.460422,0.26483 -3.874632,-1.48117 -7.587132,-3.88 z m 32.200967,-3.30103 c -2.96271,-4.81502 -8.65116,-9.06299 -12.16113,-9.08158 -0.70941,-0.004 -2.414837,-1.66535 -3.789837,-3.69242 -1.375,-2.02708 -3.85,-5.35789 -5.5,-7.40181 -1.65,-2.04392 -5.025,-6.292 -7.5,-9.44019 -2.475,-3.14819 -7.435063,-9.1518 -11.022362,-13.34136 -3.587298,-4.18957 -8.987298,-10.75269 -12,-14.58473 -3.012701,-3.83203 -7.615138,-9.41455 -10.227638,-12.40559 -4.98149,-5.70328 -5.654205,-7.12707 -3.367415,-7.12707 1.220463,0 10.277265,8.68154 15.299714,14.66579 0.999736,1.19118 2.701313,3.21618 3.781283,4.5 7.682629,9.13273 15.614888,19.47748 25.277767,32.96564 10.578768,14.76665 14.258648,18.73217 14.258648,15.36549 0,-1.63783 -22.821075,-36.92012 -31.658573,-48.94542 -7.501624,-10.20756 -17.32855,-24.83332 -17.335804,-25.8015 -0.0031,-0.4125 0.861618,-0.75 1.921576,-0.75 2.388584,0 5.97428,4.31658 13.038187,15.69582 3.00596,4.8423 9.75596,15.6405 15,23.996 13.989004,22.28915 21.342794,34.15809 23.020264,37.15445 0.8171,1.45955 2.75559,4.84024 4.30776,7.51263 3.81177,6.5628 2.63977,7.18776 -1.34244,0.71585 z m 77.29903,3.83158 c -1.2375,-0.46303 -2.25,-1.04986 -2.25,-1.30406 0,-0.2542 3.4875,-2.36683 7.75,-4.69474 4.2625,-2.32791 8.875,-4.99983 10.25,-5.93761 1.375,-0.93777 5.2,-3.13662 8.5,-4.88633 3.3,-1.74972 9.9016,-5.57239 14.67022,-8.49484 4.76861,-2.92245 9.26861,-5.60162 10,-5.95373 0.73138,-0.3521 4.02978,-2.19275 7.32978,-4.09033 6.71822,-3.86315 7.5,-4.09794 7.5,-2.25247 0,0.71073 -3.0375,3.04822 -6.75,5.19444 -3.7125,2.14622 -8.1,4.89285 -9.75,6.10363 -3.68554,2.70446 -30.96096,18.99346 -38.5,22.99237 -3.025,1.60454 -5.725,3.19819 -6,3.54145 -0.275,0.34325 -1.5125,0.24526 -2.75,-0.21778 z M 55.962282,216.61555 c -8.130359,-4.33351 -17.130359,-8.877 -20,-10.09665 -8.560036,-3.63817 -20.717529,-10.15907 -20.717529,-11.11224 0,-2.20777 6.047494,-0.45888 15.365394,4.44356 14.590745,7.67664 40.460126,22.57654 41.157907,23.70557 1.163204,1.88211 -1.202619,0.84328 -15.805772,-6.94024 z m 33.733747,4.83544 c -2.173202,-1.8477 -6.008252,-5.17598 -8.522334,-7.39618 -12.904471,-11.396 -32.348381,-27.02759 -41.428942,-33.30607 -9.991242,-6.90814 -11.13769,-7.98449 -9.864902,-9.26176 1.517346,-1.52268 5.48498,0.55778 11.927558,6.25431 2.715539,2.40109 10.562344,9.06042 17.437344,14.79852 12.1152,10.11174 24.290055,20.58502 30.48417,26.22365 3.232813,2.9429 4.51583,3.41244 4.51583,1.65265 0,-0.60609 -12.92187,-13.99044 -28.715267,-29.743 -20.501406,-20.44839 -28.2113,-28.73806 -26.953422,-28.98031 2.902923,-0.55905 12.382042,8.09886 37.168689,33.94862 20.50256,21.38194 21.760599,22.92405 20.182778,24.74015 -0.781991,0.90009 -1.614948,2.2648 -1.851014,3.03269 -0.311422,1.01302 -1.513566,0.47423 -4.380488,-1.96327 z m 93.684321,-3.1973 c -0.62458,-0.62458 -1.1356,-1.43507 -1.1356,-1.80108 0,-0.64102 12.26947,-10.95161 16.61927,-13.96592 1.1656,-0.80773 9.64783,-7.7686 18.8494,-15.4686 18.47705,-15.46185 19.53133,-16.23147 19.53133,-14.2579 0,1.70427 -6.08479,7.54725 -17.32162,16.63323 -9.87477,7.98464 -16.4283,13.49623 -27.717,23.31027 -5.73897,4.98928 -7.97831,6.39747 -8.82578,5.55 z m -5.8693,-2.58528 c -2.13638,-0.62199 -2.04924,-0.83163 2,-4.81171 2.32853,-2.28876 13.89102,-13.65126 25.69441,-25.25 11.8034,-11.59873 21.8159,-21.08861 22.25,-21.08861 2.68791,0 -1.79688,5.01152 -23.46071,26.21616 -13.3375,13.05479 -24.1375,24.19675 -24,24.75991 0.1375,0.56316 0.1375,0.97907 0,0.92425 -0.1375,-0.0548 -1.25517,-0.39232 -2.4837,-0.75 z m -10.2663,-2.48423 c 0,-0.91635 -0.46347,-1.66609 -1.02994,-1.66609 -0.56646,0 -0.17316,-1.2375 0.874,-2.75 1.04716,-1.5125 2.74814,-4.19454 3.77994,-5.9601 4.70173,-8.04531 10.76592,-17.83568 11.32882,-18.2899 0.72853,-0.58787 15.08356,-21.82263 19.82046,-29.31952 5.8104,-9.19589 7.62387,-6.01329 1.925,3.37835 -11.84008,19.51225 -36.69828,56.5014 -36.69828,54.60726 z m -14,-5.1418 c 0,-0.85035 0.87084,-3.45368 1.93521,-5.78519 1.06436,-2.3315 4.03728,-9.4141 6.60649,-15.7391 2.5692,-6.325 5.28604,-12.625 6.03743,-14 0.75138,-1.375 2.46121,-5.2 3.79961,-8.5 8.55302,-21.08863 11.73407,-27.5 13.64431,-27.5 2.42845,0 0.78146,7.88281 -3.44581,16.49232 -7.15196,14.56613 -23.57674,51.31935 -23.57707,52.75768 -9e-5,0.4125 0.56233,0.74298 1.24983,0.73439 1.08781,-0.0136 8.42638,-14.22377 23.23127,-44.98439 4.41198,-9.1669 11.26949,-20 12.66031,-20 1.99448,0 0.59728,5.76108 -2.89158,11.92285 -2.0625,3.64264 -9.14742,17.24864 -15.74427,30.23555 l -11.99427,23.61257 -3.70299,0.0511 c -2.03665,0.0281 -4.62673,0.54547 -5.75573,1.1497 -1.65889,0.88782 -2.05274,0.80196 -2.05274,-0.44748 z m -39.7944,-0.0632 c 0.35455,-0.35455 -0.23298,-2.69203 -1.30561,-5.19439 -1.07264,-2.50236 -1.77027,-4.72973 -1.5503,-4.9497 0.21997,-0.21998 1.17213,1.5299 2.11589,3.88861 0.94377,2.35871 2.16283,4.56476 2.70903,4.90232 0.54619,0.33757 0.18157,0.92517 -0.81028,1.30578 -0.99185,0.38061 -1.51328,0.40193 -1.15873,0.0474 z m 4.54447,-7.71107 c -0.8712,-3.4375 -2.77204,-10.075 -4.22409,-14.75 -1.45205,-4.675 -3.24213,-10.525 -3.97795,-13 -0.73582,-2.475 -3.43729,-11.25 -6.00327,-19.5 -5.138217,-16.52015 -7.45481,-25.08112 -7.509135,-27.75 -0.05437,-2.67078 3.814615,-2.23545 4.443795,0.5 2.46468,10.71538 4.8556,20.35613 7.99806,32.25 2.0344,7.7 5.47711,20.975 7.65046,29.5 2.17334,8.525 4.18898,16.2875 4.47919,17.25 0.2902,0.9625 0.12249,1.75 -0.37271,1.75 -0.49519,0 -1.61315,-2.8125 -2.48435,-6.25 z m 28.92991,-10 c 3.83935,-22.7226 10.99697,-58.00097 12.37628,-61 2.32811,-5.06204 4.32989,-2.32589 3.35037,4.57947 -1.15688,8.15569 -5.36486,27.42352 -9.75577,44.67053 -2.45043,9.625 -4.76388,19.4125 -5.14099,21.75 -0.39063,2.42128 -1.23471,4.25 -1.96167,4.25 -0.98171,0 -0.72069,-3.28646 1.13178,-14.25 z m -11.75745,0.46862 c -0.42189,-63.81516 -0.37575,-68.16527 0.73483,-69.27591 0.87651,-0.87656 1.39857,-0.70671 2.15139,0.69993 1.30131,2.43153 1.17526,-1.13524 1.31134,37.10736 0.11561,32.48911 0.17001,33.39508 1.45609,24.25 0.7348,-5.225 1.6296,-12.65 1.98846,-16.5 1.05092,-11.27498 6.23711,-41.70175 7.28692,-42.75156 0.61754,-0.61754 1.37917,-0.18584 2.12249,1.20308 1.25659,2.34795 0.6991,8.56208 -3.0546,34.04848 -1.09357,7.425 -2.42144,17.1 -2.95083,21.5 -0.52938,4.4 -1.41128,10.7 -1.95977,14 -0.5485,3.3 -0.99987,6.0625 -1.00306,6.13889 -0.0376,0.90237 -3.68028,-0.52396 -4.1855,-1.63889 -0.5752,-1.26935 -0.69053,-1.24735 -0.75,0.14301 -0.0387,0.90366 -0.74529,1.90203 -1.57029,2.21862 -1.27817,0.49048 -1.51146,-1.15744 -1.57747,-11.14301 z m -31.29252,-9.54878 c -3.225,-8.34341 -6.486066,-16.47648 -7.24682,-18.07348 -0.760753,-1.59702 -1.383187,-3.36756 -1.383187,-3.93456 0,-0.56699 -2.952869,-7.53499 -6.56193,-15.48443 -6.800747,-14.97956 -7.178828,-17.74719 -2.108836,-15.43715 2.420332,1.10278 2.884353,2.36272 15.379513,41.75976 1.39551,4.4 3.8796,11.96482 5.52021,16.81072 1.64061,4.8459 2.82133,8.97233 2.62381,9.16984 -0.19752,0.19752 -2.99776,-6.4673 -6.22276,-14.81072 z"
             id="path1456"
             inkscape:connector-curvature="0" />
        </g>
      </g>
    </g>
  </g>
</svg>
