<?xml version="1.0" encoding="UTF-8" standalone="no"?>
<!-- Created with Inkscape (http://www.inkscape.org/) -->

<svg
   xmlns:dc="http://purl.org/dc/elements/1.1/"
   xmlns:cc="http://creativecommons.org/ns#"
   xmlns:rdf="http://www.w3.org/1999/02/22-rdf-syntax-ns#"
   xmlns:svg="http://www.w3.org/2000/svg"
   xmlns="http://www.w3.org/2000/svg"
   xmlns:sodipodi="http://sodipodi.sourceforge.net/DTD/sodipodi-0.dtd"
   xmlns:inkscape="http://www.inkscape.org/namespaces/inkscape"
   version="1.1"
   id="svg2949"
   width="283"
   height="443"
   viewBox="0 0 283 443"
   sodipodi:docname="feu78.svg"
   inkscape:version="0.92.4 (5da689c313, 2019-01-14)">
  <metadata
     id="metadata2955">
    <rdf:RDF>
      <cc:Work
         rdf:about="">
        <dc:format>image/svg+xml</dc:format>
        <dc:type
           rdf:resource="http://purl.org/dc/dcmitype/StillImage" />
        <dc:title></dc:title>
      </cc:Work>
    </rdf:RDF>
  </metadata>
  <defs
     id="defs2953" />
  <sodipodi:namedview
     pagecolor="#ffffff"
     bordercolor="#666666"
     borderopacity="1"
     objecttolerance="10"
     gridtolerance="10"
     guidetolerance="10"
     inkscape:pageopacity="0"
     inkscape:pageshadow="2"
     inkscape:window-width="1280"
     inkscape:window-height="972"
     id="namedview2951"
     showgrid="false"
     inkscape:zoom="1.5067919"
     inkscape:cx="112.64858"
     inkscape:cy="221.5"
     inkscape:window-x="-8"
     inkscape:window-y="-8"
     inkscape:window-maximized="1"
     inkscape:current-layer="svg2949"
     showguides="false" />
  <path
     style="fill:#00ff00"
     d="m -2.482242,205.38141 c 0,-77.825 0.1185854,-109.662492 0.2635231,-70.75 0.1449376,38.9125 0.1449376,102.5875 0,141.5 -0.1449377,38.9125 -0.2635231,7.075 -0.2635231,-70.75 z M 132.00312,339.84734 c -1.50306,-1.81107 -1.48158,-22.19356 0.049,-46.46593 0.53755,-8.525 1.23226,-20.9 1.54378,-27.5 0.31153,-6.6 0.98697,-15.58819 1.50097,-19.97377 0.51401,-4.38557 1.00374,-10.01057 1.08829,-12.5 0.0846,-2.48942 0.52705,1.32377 0.98333,8.47377 0.45628,7.15 0.55184,26.275 0.21236,42.5 -0.33948,16.225 -0.54709,33.325 -0.46136,38 0.30031,16.37586 -1.25001,21.88358 -4.91633,17.46593 z m -13.55973,-2.96053 c -1.13656,-4.5284 -0.33274,-10.75182 8.65443,-67.0054 3.79187,-23.73451 7.10437,-41.66254 7.60529,-41.16161 0.36817,0.36817 -1.55216,20.67623 -5.64161,59.66161 -1.06733,10.175 -2.44281,23.9 -3.05662,30.5 -1.69076,18.17976 -2.09854,19.94633 -4.68927,20.31492 -1.68047,0.23908 -2.37215,-0.31709 -2.87222,-2.30952 z m 26.13945,-0.7554 c -2.01266,-4.85791 -4.44826,-45.77619 -5.90769,-99.25 -0.41999,-15.3884 -0.3915,-15.68648 0.7452,-7.79791 1.31931,9.15576 3.21899,12.9256 2.16579,4.29791 -0.51491,-4.21803 -0.40587,-5.15037 0.46781,-4 1.16624,1.5356 1.06116,0.4531 -0.63097,-6.5 -0.41281,-1.69627 -0.19062,-2.5 0.69113,-2.5 0.88639,0 0.7793,-0.3974 -0.33686,-1.25 -0.90002,-0.6875 -1.92311,-2.6 -2.27355,-4.25 -0.55781,-2.6264 -0.30457,-2.4396 2.03358,1.5 1.4689,2.475 5.05866,9 7.97724,14.5 2.91858,5.5 8.63907,16.075 12.7122,23.5 9.17222,16.72021 33.40768,65.57008 34.30555,69.1475 0.7788,3.10299 -1.05038,4.75738 -3.00827,2.72082 -3.26512,-3.3963 -16.49261,-32.1901 -16.49261,-35.90135 0,-1.08183 -0.35634,-1.96697 -0.79186,-1.96697 -0.76193,0 -4.06075,-6.61269 -22.57353,-45.25 -4.67762,-9.7625 -8.75715,-17.75 -9.06562,-17.75 -0.63993,0 1.00883,4.31906 8.3983,22 8.24328,19.72386 14.1497,34.16981 15.68819,38.37027 0.77965,2.12865 2.14857,5.27865 3.04203,7 2.68493,5.17276 14.09484,33.40784 14.80279,36.63109 0.49119,2.23636 0.2965,2.99864 -0.76586,2.99864 -3.02405,0 -4.97004,-3.82132 -14.25894,-28 -3.06381,-7.975 -6.2124,-16.075 -6.99686,-18 -0.78447,-1.925 -3.95679,-10.7 -7.04961,-19.5 -5.02665,-14.30234 -8.55322,-22.87477 -6.99356,-17 5.17425,19.48973 13.07134,45.33855 20.62308,67.50358 5.13075,15.05919 5.87615,18.99642 3.59644,18.99642 -3.52008,0 -6.42293,-6.38751 -11.13419,-24.5 -2.00286,-7.7 -4.71425,-18.05 -6.02531,-23 -1.31105,-4.95 -4.2435,-16.19711 -6.51653,-24.99359 -2.27304,-8.79647 -4.3847,-16.22147 -4.69258,-16.5 -0.30789,-0.27852 -0.33326,0.61859 -0.0564,1.99359 0.27687,1.375 2.34107,11.5 4.5871,22.5 2.24603,11 5.23835,26.40248 6.64959,34.22774 1.41123,7.82526 2.99551,15.35774 3.5206,16.73884 0.5251,1.38111 1.25396,5.43177 1.61968,9.00147 0.56834,5.5473 0.42027,6.58427 -1.01905,7.13659 -1.05484,0.40478 -2.20137,-0.0545 -3.06876,-1.22921 -2.85513,-3.86681 -6.80881,-25.64678 -13.1382,-72.37543 -3.011,-22.22964 -3.28236,-23.44188 -2.90999,-13 0.38156,10.69964 3.98127,54.66522 5.87027,71.69734 1.21333,10.93983 0.82558,15.30266 -1.36002,15.30266 -0.59579,0 -1.68918,-1.4625 -2.42975,-3.25 z m -0.86834,-102.9375 c -0.31922,-0.79773 -0.55618,-0.56078 -0.60416,0.60417 -0.0434,1.05416 0.19292,1.64479 0.52522,1.3125 0.33229,-0.3323 0.36781,-1.1948 0.0789,-1.91667 z m -38.06716,103.62907 c -0.8771,-2.28569 4.30852,-25.1391 16.77491,-73.92835 3.08987,-12.09273 5.45577,-22.44273 5.25754,-23 -0.37144,-1.04425 -6.10298,16.62153 -11.67565,35.98678 -1.74098,6.05 -4.86707,15.725 -6.94686,21.5 -2.07979,5.775 -5.00648,14.55 -6.50375,19.5 -3.188214,10.54027 -6.182121,17.5 -7.528083,17.5 -1.659214,0 -2.315382,-5.089 -1.208825,-9.37519 2.196141,-8.50664 23.902038,-67.2903 35.309518,-95.62481 2.25003,-5.58874 2.42183,-4.10253 0.33722,2.91713 -0.86242,2.90408 -1.38452,5.46366 -1.16022,5.68795 0.2243,0.2243 0.99318,-1.50759 1.70864,-3.84863 0.71545,-2.34105 1.47608,-3.76586 1.69028,-3.16624 0.71885,2.01222 -2.83236,20.75313 -10.68908,56.40979 -1.15129,5.225 -2.53431,12.1269 -3.07336,15.33755 -1.25142,7.45351 -6.43866,29.31056 -7.81098,32.91245 -1.14797,3.01305 -3.53842,3.64867 -4.4813,1.19157 z M 81.448616,324.97093 c 0.369696,-1.97065 3.632725,-9.54696 7.251177,-16.83626 3.618452,-7.28929 10.387533,-21.35326 15.042407,-31.25326 4.65487,-9.9 11.98683,-25.2 16.29324,-34 7.9608,-16.2676 11.13598,-24.14385 7.25641,-18 -1.04191,1.65 -3.18981,5.475 -4.77313,8.5 -1.58332,3.025 -7.51569,13.90199 -13.18304,24.17108 -5.66736,10.2691 -10.304294,18.85785 -10.304294,19.08612 0,0.74772 -15.523392,28.05497 -20.602994,36.2428 -3.441922,5.54805 -5.642563,8.09794 -7.18004,8.31955 -2.18735,0.31528 -2.735125,-0.84071 -2.283771,-4.81955 0.09359,-0.825 3.296904,-6.08027 7.118483,-11.67838 3.821578,-5.59812 6.948324,-10.40325 6.948324,-10.67807 0,-0.27483 3.7125,-6.16937 8.25,-13.09898 15.443562,-23.5852 34.969812,-56.37989 34.256392,-57.53422 -0.47258,-0.76467 3.92916,-6.60865 8.06992,-10.71404 1.74432,-1.72942 1.77985,-1.72184 0.9541,0.20369 -0.47172,1.1 -0.89654,2.96953 -0.94404,4.15451 -0.0475,1.18498 -0.34662,1.99367 -0.6647,1.79708 -0.31807,-0.19658 -1.39965,1.53389 -2.40349,3.84549 -1.00384,2.31161 -3.52303,7.90678 -5.59819,12.43371 -2.07516,4.52693 -4.09085,9.25193 -4.4793,10.5 -0.38845,1.24807 -2.22152,5.56457 -4.07349,9.59224 -1.85196,4.02767 -3.3672,7.53985 -3.3672,7.80486 0,0.26501 -0.85695,2.36965 -1.90433,4.67697 -1.81522,3.99882 -5.98235,13.90597 -17.537763,41.69514 -7.41067,17.82165 -7.762047,18.45533 -10.444748,18.83626 -2.212652,0.31418 -2.323981,0.10105 -1.695933,-3.24674 z m 123.885254,-4.09021 c -1.1129,-0.7795 -3.8241,-4.47324 -6.02488,-8.2083 -2.20079,-3.73505 -4.93188,-8.36601 -6.0691,-10.29101 -1.13722,-1.925 -4.34909,-7.55 -7.13749,-12.5 -2.78841,-4.95 -6.19204,-10.8 -7.56362,-13 -1.37159,-2.2 -2.80377,-4.675 -3.18262,-5.5 -0.37885,-0.825 -2.11015,-3.75 -3.84734,-6.5 -9.19684,-14.55875 -25.42753,-43.52375 -21.85386,-39 2.57276,3.25673 20.35248,30.69982 22.35173,34.5 1.01274,1.925 6.94509,11.23912 13.18302,20.69804 23.23508,35.23269 25.47525,39.17433 23.09882,40.64304 -0.51216,0.31653 -1.84176,-0.0623 -2.95466,-0.84177 z M 56.390052,313.87369 c -0.318212,-0.82925 0.258411,-2.6925 1.281385,-4.14056 4.499027,-6.36855 6.123565,-8.56831 10.359951,-14.02818 16.711188,-21.53747 26.598428,-34.28619 28.870428,-37.22586 1.446262,-1.87128 5.329574,-6.82551 8.629574,-11.0094 3.3,-4.1839 7.77241,-9.95544 9.93869,-12.82566 6.31675,-8.36939 5.24228,-5.31774 -1.71704,4.87665 -3.51463,5.1484 -12.90354,19.03573 -20.864258,30.86073 -7.960716,11.825 -16.842823,24.65 -19.738016,28.5 -2.895192,3.85 -6.848662,9.1375 -8.785487,11.75 -3.564522,4.80803 -6.860242,6.14788 -7.975227,3.24228 z m 158.561848,0.22592 c -0.86872,-0.67001 -4.13218,-4.5932 -7.25213,-8.7182 -3.11995,-4.125 -6.1238,-8.04578 -6.67522,-8.71283 -0.55142,-0.66706 -6.03504,-8.76706 -12.18582,-18 -6.15078,-9.23295 -13.69518,-20.16217 -16.76532,-24.28717 -10.98049,-14.75321 -17.49387,-24.88148 -16.5853,-25.79005 0.2988,-0.29881 0.54328,-0.12587 0.54328,0.38431 0,0.51018 1.58813,2.72268 3.52918,4.91667 1.94105,2.19399 9.35905,11.63907 16.48446,20.98907 7.1254,9.35 18.6291,24.425 25.56377,33.5 13.74938,17.99301 17.91991,24.3863 16.94107,25.9701 -0.81475,1.3183 -1.63669,1.26075 -3.59797,-0.2519 z M 47.304414,307.25444 c -1.548486,-1.54849 -0.0405,-5.19576 3.990371,-9.65127 5.07738,-5.61227 19.356439,-20.7732 29.389912,-31.20503 5.034321,-5.2342 13.584321,-14.21121 18.999999,-19.9489 14.098104,-14.93636 30.284484,-31.32418 25.991484,-26.31495 -3.8423,4.48334 -4.77619,6.42533 -1.98107,4.11956 1.50469,-1.24125 1.55197,-1.16269 0.49462,0.82187 -1.23823,2.32406 -2.86027,3.62834 -4.89663,3.93737 -1.60285,0.24324 -12.68313,12.61534 -23.283065,25.99757 -1.363256,1.72108 -9.004366,10.94608 -16.980244,20.5 -7.975878,9.55391 -16.126991,19.39575 -18.113584,21.87075 -8.509666,10.60178 -11.044472,12.44035 -13.611793,9.87303 z m 176.108476,-3.11122 c -3.21883,-2.82617 -27.14269,-30.16929 -44.80374,-51.20721 -3.25724,-3.88003 -8.20724,-9.54695 -11,-12.59315 -5.77153,-6.29529 -11.97054,-13.96145 -11.28949,-13.96145 0.5207,0 23.54909,23.46518 31.89504,32.5 3.13261,3.39118 5.32539,6.61279 5.04316,7.40935 -0.33823,0.95458 0.005,1.21575 1.06417,0.80936 1.10088,-0.42244 6.23248,4.25566 17.34226,15.80966 15.91608,16.55248 18.96704,20.46584 17.97374,23.05431 -0.8195,2.1356 -2.16833,1.74106 -6.22514,-1.82087 z M 37.231388,298.18141 c -2.078573,-2.07857 -1.338314,-3.79352 3.500019,-8.10843 2.58501,-2.30537 5.680798,-5.21128 6.879528,-6.4576 1.19873,-1.24632 3.961174,-3.72132 6.138764,-5.5 16.509464,-13.48514 36.360307,-30.45223 47.191061,-40.33557 3.07484,-2.80588 7.39063,-6.63088 9.59063,-8.5 2.2,-1.86912 4.45,-3.88232 5,-4.47379 0.55,-0.59146 3.7,-3.25384 7,-5.9164 6.9384,-5.59814 -25.623348,26.99898 -55.387296,55.44746 -19.68836,18.8182 -26.661761,25.04433 -28.050211,25.04433 -0.364372,0 -1.202495,-0.54 -1.862495,-1.2 z m 195.408302,-3.71953 c -4.28619,-2.82567 -13.67046,-11.16724 -26.6083,-23.65179 -6.325,-6.10341 -20.3875,-19.54189 -31.25,-29.86331 -18.95046,-18.00651 -25.05932,-24.38074 -15,-15.65162 11.29653,9.80273 28.25988,24.13812 36.6662,30.98589 4.99609,4.0698 11.12649,9.2448 13.62311,11.5 2.49662,2.2552 9.01613,7.70036 14.4878,12.10036 13.27895,10.67816 15.59918,13.00732 14.86455,14.92173 -0.80788,2.10529 -3.25931,1.98197 -6.78336,-0.34126 z M 29.521402,287.36525 c -2.213898,-3.58216 1.285274,-6.88464 22.509986,-21.24468 4.675,-3.16297 13.675,-9.34444 20,-13.7366 6.325,-4.39215 15.775,-10.9398 21,-14.55032 5.225,-3.61052 11.656642,-8.17017 14.292522,-10.13256 2.63589,-1.96238 4.95599,-3.3996 5.15578,-3.19382 0.19979,0.20578 -11.79425,10.27414 -26.653421,22.37414 -14.859169,12.1 -28.611511,23.35 -30.56076,25 -1.949249,1.65 -5.450293,4.35 -7.780098,6 -2.329805,1.65 -6.197562,4.40085 -8.595016,6.113 -5.201581,3.71473 -8.437023,4.8788 -9.368993,3.37084 z m 210.615218,-2.04667 c -1.86712,-1.14612 -3.93738,-2.61335 -4.60057,-3.26051 -0.66318,-0.64716 -5.58935,-4.55166 -10.94704,-8.67666 -5.35769,-4.125 -15.43743,-12.0322 -22.39943,-17.57155 -6.96201,-5.53936 -18.17069,-14.2173 -24.90819,-19.28432 -6.7375,-5.06702 -12.25,-9.44704 -12.25,-9.73338 0,-0.28634 3.9375,2.14316 8.75,5.39888 4.8125,3.25573 14.825,9.85758 22.25,14.67079 38.39239,24.88761 51.28761,34.51139 50.79954,37.91203 -0.40861,2.84708 -2.64688,3.02921 -6.69431,0.54472 z M 22.388128,274.86868 c -1.07582,-2.80355 -0.733098,-3.03428 41.64326,-28.03581 12.240423,-7.2217 48.246392,-26.5384 48.672622,-26.11218 0.68673,0.68674 -65.665913,44.228 -80.76048,52.99582 -5.140943,2.98617 -8.68753,3.4138 -9.555402,1.15217 z m 223.074662,-1.78579 c -3.33772,-1.76081 -9.41272,-5.36262 -13.5,-8.00401 -4.08727,-2.64139 -11.9314,-7.56547 -17.4314,-10.94241 -5.5,-3.37694 -10.225,-6.3908 -10.5,-6.69747 -0.275,-0.30668 -1.71909,-1.23259 -3.20909,-2.05759 -1.48999,-0.825 -9.58999,-5.6426 -18,-10.70579 -8.41,-5.06318 -18.13684,-10.91318 -21.6152,-13 -3.47836,-2.08681 -7.30336,-4.58156 -8.5,-5.54387 -2.604,-2.09407 25.56727,13.15846 33.09371,17.91765 2.89818,1.83261 5.64788,3.33201 6.11045,3.33201 0.46257,0 2.36633,1.0338 4.23058,2.29733 1.86425,1.26353 8.56455,5.05327 14.88955,8.42164 6.325,3.36837 14.65,7.93579 18.5,10.14983 3.85,2.21404 10.88001,6.04994 15.62224,8.52423 8.71817,4.54876 10.63986,6.44487 8.59962,8.48511 -1.47138,1.47138 -1.28025,1.52156 -8.29046,-2.17666 z M 15.031388,263.27533 c 0,-2.66201 3.841312,-5.73278 10.948711,-8.75248 12.016791,-5.10553 62.83782,-27.37524 67.551289,-29.60088 9.298252,-4.39052 21.246622,-9.54058 22.125862,-9.53682 1.68274,0.007 -5.90845,4.11585 -34.901173,18.88993 -66.279791,33.77478 -65.724689,33.52985 -65.724689,29.00025 z m 232.500002,-3.481 c -4.4,-1.95946 -11.6,-5.13498 -16,-7.05671 -8.89356,-3.88432 -66.43704,-32.63802 -73.5,-36.72695 -8.72685,-5.0522 -3.28191,-2.7806 23.56172,9.82982 11.5796,5.43978 20.65063,9.27643 48.43828,20.48724 28.10174,11.33753 29.42024,11.99209 29.81955,14.80368 0.46523,3.27574 -2.74338,2.9275 -12.31955,-1.33708 z M 10.388129,250.86868 c -0.8526383,-2.22194 1.202471,-4.16109 6.472028,-6.10684 2.569177,-0.94865 5.121231,-2.04439 5.671231,-2.43498 0.55,-0.39059 9.775,-3.50483 20.5,-6.92053 10.725,-3.4157 25.35,-8.16265 32.5,-10.54878 17.812323,-5.9444 37.589092,-11.72038 38.163492,-11.14598 0.26098,0.26098 -2.14404,1.45255 -5.34449,2.64792 -3.20045,1.19538 -7.169,2.78572 -8.819004,3.53408 -1.649998,0.74836 -7.949998,3.22779 -13.999998,5.50983 -6.05,2.28205 -13.925,5.2629 -17.5,6.62413 -3.575,1.36122 -11.225,4.19579 -17,6.29904 -5.775,2.10325 -16.005162,6.12601 -22.733694,8.93946 -12.721575,5.31938 -16.926229,6.16518 -17.909565,3.60265 z m 236.643261,-3.88912 c -23.48935,-8.15323 -48.49473,-17.33975 -54,-19.83861 -3.025,-1.37305 -9.24481,-4.00739 -13.8218,-5.85407 -4.57699,-1.84668 -7.91493,-3.49323 -7.41764,-3.65899 0.49728,-0.16576 7.63114,1.91601 15.85302,4.62615 8.22189,2.71014 16.05983,5.08499 17.41765,5.27745 1.35782,0.19246 2.69377,0.58046 2.96877,0.86223 0.81604,0.83613 35.43505,12.44255 51.14263,17.14616 5.10347,1.52823 6.24088,2.39973 5.53447,4.24061 -0.93133,2.42702 -4.02992,1.93605 -17.6771,-2.80093 z m 9.5,-7.68468 c -1.65,-0.4853 -8.85,-2.5085 -16,-4.49599 -12.13463,-3.37309 -22.08623,-6.34807 -45.5,-13.60202 -5.225,-1.61878 -12.82851,-3.90499 -16.89669,-5.08046 -4.06818,-1.17546 -6.85071,-2.3192 -6.18341,-2.54163 1.13066,-0.37689 8.64965,1.22976 20.64441,4.41127 7.84017,2.07954 31.09802,7.33214 39.43569,8.90625 4.125,0.77877 12.45,2.5753 18.5,3.99228 6.05,1.41698 12.15395,2.82298 13.56433,3.12444 3.29501,0.7043 5.73491,4.2507 3.77784,5.4911 -1.67676,1.06273 -7.3821,0.95949 -11.34217,-0.20524 z M 7.6563888,237.58366 c -1.1241639,-1.81893 1.4255169,-3.25807 9.9104692,-5.59385 4.930491,-1.35729 12.010427,-3.37008 15.733189,-4.47285 3.722763,-1.10278 7.097763,-2.01951 7.5,-2.03717 0.402238,-0.0177 4.781341,-0.94362 9.731341,-2.05769 4.95,-1.11407 16.65,-3.40633 26,-5.09392 9.35,-1.68759 20.69622,-3.94099 25.213812,-5.00756 4.5176,-1.06656 8.7926,-1.91293 9.5,-1.88082 1.55211,0.0705 -13.995852,4.4121 -48.213812,13.46332 -14.025,3.70985 -31.125,8.24348 -38,10.07474 -12.896556,3.4352 -16.5259972,3.97952 -17.3749992,2.6058 z M 135.62075,225.88141 c -0.73918,-2.94511 0.21921,-7.5 1.57807,-7.5 0.52283,0 0.6708,0.45273 0.32882,1.00606 -0.34198,0.55334 -0.64658,2.80334 -0.6769,5 -0.0638,4.62658 -0.355,4.98021 -1.22999,1.49394 z M 5.2376237,226.33406 c -1.8701658,-0.75057 -2.1069205,-1.2697 -1.2820128,-2.81106 0.7261593,-1.35684 2.9261494,-2.20497 7.7937651,-3.00462 18.082398,-2.97058 25.46196,-4.00024 33.282012,-4.64381 4.675,-0.38474 13.45,-1.32163 19.5,-2.08197 18.836787,-2.36734 48.749192,-5.49533 49.109102,-5.13542 0.18884,0.18884 -6.73346,1.5989 -15.382882,3.13347 -8.64942,1.53457 -23.82622,4.27801 -33.72622,6.09654 -9.9,1.81853 -21.375,3.84417 -25.5,4.50143 -4.125,0.65726 -12.43405,2.04951 -18.464556,3.0939 -12.2915712,2.12871 -12.1645272,2.12165 -15.3292083,0.85154 z M 252.53139,226.14697 c -2.2,-0.42552 -13.45,-2.33608 -25,-4.24568 -19.05243,-3.15 -42.47136,-7.84613 -45,-9.02372 -1.39733,-0.65074 8.37022,0.30777 26,2.55143 13.38829,1.70386 24.59331,2.95705 52.33557,5.85333 9.11702,0.95181 11.28452,2.04452 9.15213,4.6139 -1.41624,1.70646 -9.37176,1.82053 -17.4877,0.25074 z M 4.0956512,214.28063 c -2.4045954,-0.95976 -2.4109882,-0.99612 -0.5,-2.84361 2.0857777,-2.01649 5.9820835,-2.42348 37.9357368,-3.96266 8.8,-0.42389 16.9,-0.81999 18,-0.88022 7.916149,-0.43348 57.691712,-1.04267 56.500002,-0.69149 -0.825,0.24311 -15.225,1.59382 -32.000002,3.00158 -16.775,1.40776 -31.85,2.7267 -33.5,2.93098 -22.395982,2.77276 -42.9091052,3.85303 -46.4357368,2.44542 z m 113.6690688,-0.0233 c 0.67834,-0.68342 1.48524,-0.99067 1.79313,-0.68278 0.30789,0.30789 -0.24711,0.86705 -1.23333,1.24258 -1.4252,0.54268 -1.54006,0.42782 -0.5598,-0.5598 z m 148.18334,0.74662 c -0.22917,-0.20762 -14.36667,-1.15434 -31.41667,-2.10384 -17.05,-0.94949 -38.65,-2.54568 -48,-3.54708 l -17,-1.82073 19.5,0.52656 c 10.725,0.28961 33.13649,0.63322 49.80331,0.76358 25.54335,0.19979 30.54177,0.47548 31.82143,1.75514 1.35749,1.35749 1.34429,1.69194 -0.12474,3.16097 -1.54149,1.54149 -3.63926,2.12065 -4.58333,1.26539 z m -102.30408,-10.6121 c 8.31192,-0.44483 17.08692,-1.06868 19.5,-1.38633 2.41308,-0.31766 7.08741,-0.81836 10.38741,-1.11268 3.3,-0.29432 7.8,-0.75926 10,-1.03321 2.2,-0.27395 14.125,-1.19741 26.5,-2.05212 12.375,-0.85471 25.77266,-1.79647 29.77258,-2.0928 10.77624,-0.79834 14.26421,0.48707 10.77896,3.97232 -2.18232,2.18231 -20.7426,2.99292 -93.55154,4.0858 -22.22676,0.33363 -25.17351,0.24977 -13.38741,-0.38098 z m -59.69592,-0.41852 c -0.22917,-0.22446 -22.522637,-0.66689 -49.541039,-0.98318 -27.018402,-0.3163 -49.8559012,-0.85581 -50.7499993,-1.1989 -2.0746251,-0.79611 -2.1013569,-3.01331 -0.04584,-3.80209 3.7083043,-1.42301 38.2706053,-0.38474 68.4202073,2.05537 17.875,1.44669 32.687501,2.78931 32.916671,2.98361 0.22916,0.1943 0.19166,0.57827 -0.0833,0.85327 -0.275,0.275 -0.6875,0.31636 -0.91666,0.0919 z m 5.89583,-0.27502 c 0.72187,-0.28887 1.58437,-0.25335 1.91667,0.0789 0.33229,0.33229 -0.25834,0.56864 -1.3125,0.52522 -1.16495,-0.048 -1.4019,-0.28494 -0.60417,-0.60416 z m 2,-2 c 0.72187,-0.28887 1.58437,-0.25335 1.91667,0.0789 0.33229,0.33229 -0.25834,0.56864 -1.3125,0.52522 -1.16495,-0.048 -1.4019,-0.28494 -0.60417,-0.60416 z m -21.312502,-1.95258 c -5.5,-0.76064 -26.65,-3.42616 -47,-5.92337 -24.128595,-2.9609 -37.7827198,-5.05293 -39.2499992,-6.01372 -2.6772035,-1.75307 -2.6927813,-1.84159 -0.6785714,-3.8558 1.7855916,-1.78559 6.5936996,-2.01701 12.7357506,-0.61298 2.306051,0.52715 11.16782,2.13038 19.69282,3.56275 34.781114,5.84391 72.949142,13.09461 73.891542,14.03701 0.82211,0.82211 -9.33711,0.19663 -19.391542,-1.19389 z m 82.500002,0.56133 c 1.925,-0.47829 5.975,-1.31481 9,-1.85892 3.025,-0.54412 10,-1.93128 15.5,-3.0826 5.5,-1.15131 11.575,-2.29944 13.5,-2.5514 1.925,-0.25195 8,-1.31262 13.5,-2.35703 5.5,-1.04441 12.925,-2.42082 16.5,-3.05868 3.575,-0.63787 11,-1.96643 16.5,-2.95236 9.60162,-1.72118 13.5,-1.45109 13.5,0.93534 0,2.5006 -8.36452,4.30444 -43.5,9.38092 -27.19124,3.92867 -50.56024,6.70363 -55,6.531 l -3,-0.11664 z m -9.1875,-1.60876 c 0.72187,-0.28887 1.58437,-0.25335 1.91667,0.0789 0.33229,0.33229 -0.25834,0.56864 -1.3125,0.52522 -1.16495,-0.048 -1.4019,-0.28494 -0.60417,-0.60416 z m -65.312502,-2.38747 c -3.85,-1.07264 -9.035117,-2.3645 -11.522483,-2.8708 -2.487366,-0.50631 -9.677249,-2.10768 -15.977517,-3.55862 -6.300268,-1.45094 -13.490151,-3.04762 -15.977517,-3.5482 -2.487366,-0.50057 -8.797483,-1.83282 -14.022483,-2.96055 -5.225,-1.12774 -14.856427,-3.16422 -21.403172,-4.52552 -6.546744,-1.36129 -12.5092442,-2.97808 -13.2499993,-3.59285 -1.909548,-1.58479 -1.6684914,-3.63036 0.5689199,-4.82779 2.8231671,-1.51091 14.7970204,0.9903 32.8033544,6.85228 4.829493,1.57225 15.530897,4.76255 23.780897,7.08956 18.561821,5.23558 43.500002,13.02822 43.500002,13.59282 0,0.63962 -0.92613,0.4598 -8.500002,-1.65033 z m 15.500002,1.07058 c -0.825,-0.53316 -1.05,-0.96937 -0.5,-0.96937 0.55,0 1.675,0.43621 2.5,0.96937 0.825,0.53316 1.05,0.96937 0.5,0.96937 -0.55,0 -1.675,-0.43621 -2.5,-0.96937 z m 17.45888,-0.0665 c -0.36253,-0.58659 -0.44468,-1.281 -0.18255,-1.54313 0.26212,-0.26213 0.74306,0.21781 1.06875,1.06653 0.67618,1.76211 0.0999,2.07206 -0.8862,0.4766 z m 35.78957,0.48475 c 0.63235,-0.63235 11.11377,-3.5583 33.75155,-9.42194 17.50005,-4.53286 37.84555,-10.62124 51.79701,-15.50023 10.15483,-3.55129 14.20299,-3.82329 14.20299,-0.95437 0,0.77381 -1.2375,2.04232 -2.75,2.8189 -3.85557,1.97962 -17.31035,6.12935 -27.85046,8.58965 -4.89475,1.14255 -11.37454,2.72883 -14.39954,3.52508 -4.68266,1.23258 -18.25293,4.16644 -27,5.83734 -1.375,0.26266 -8.07438,1.64976 -14.88752,3.08244 -13.51334,2.84162 -13.71413,2.8732 -12.86403,2.0231 z M 88.531388,188.82332 C 67.346228,181.19257 32.23244,169.5334 19.66565,165.95718 10.421482,163.3265 8.0313888,162.05708 8.0313888,159.77802 c 0,-1.74217 4.2033792,-2.80358 7.7499992,-1.95699 3.033189,0.72404 16.742406,6.06652 19.486431,7.59387 0.955037,0.53158 2.197442,0.96651 2.760899,0.96651 0.563457,0 2.932063,0.86067 5.263568,1.91261 2.331506,1.05193 6.039102,2.46898 8.239102,3.14899 2.2,0.68002 7.15,2.71424 11,4.52049 3.85,1.80625 11.95,5.15107 18,7.43294 6.05,2.28186 12.35,4.75849 14,5.50361 1.65,0.74512 5.700002,2.48977 9.000002,3.877 11.15647,4.68986 3.10571,2.56783 -15.000002,-3.95373 z m 21.000002,0.41944 c -4.95,-2.78018 -11.250002,-6.29818 -14.000002,-7.8178 -2.75,-1.51961 -8.6,-4.78341 -13,-7.25288 -10.214647,-5.73292 -17.831134,-9.83637 -34,-18.3178 -22.325202,-11.71076 -28.185012,-15.20964 -28.991224,-17.3106 -0.704427,-1.8357 0.26811,-3.16564 2.300241,-3.14556 1.946862,0.0192 15.494309,7.13858 23.938765,12.58011 3.16372,2.03867 7.327218,4.72363 9.252218,5.96658 1.925,1.24294 8.071739,4.96896 13.659419,8.28005 5.587681,3.31108 13.237681,8.0139 17,10.45072 11.625281,7.52957 20.574203,13.1761 27.090583,17.09344 3.4375,2.06646 6.25,3.94962 6.25,4.18479 0,0.63648 0.18024,0.72587 -9.5,-4.71105 z m 19.29336,3.39478 c -1.48086,-1.70227 -1.81005,-3.09797 -1.9279,-8.17399 -0.0506,-2.17829 -10.02736,-30.17671 -13.39179,-37.58214 -0.74963,-1.65 -5.65268,-13.90515 -10.89567,-27.23367 -5.243002,-13.32852 -10.892911,-26.928172 -12.555363,-30.221472 -3.564089,-7.06043 -3.957571,-11.04485 -1.090733,-11.04485 2.178481,0 5.017301,3.57377 7.546296,9.5 4.47246,10.48034 17.14588,47.388192 23.07851,67.209782 8.94432,29.88398 11.43917,38.62767 11.11436,38.95248 -0.1925,0.19249 -1.03747,-0.44027 -1.87771,-1.40614 z m 32.20664,0.74387 c 0.825,-0.53316 1.95,-0.96937 2.5,-0.96937 0.55,0 0.325,0.43621 -0.5,0.96937 -0.825,0.53316 -1.95,0.96937 -2.5,0.96937 -0.55,0 -0.325,-0.43621 0.5,-0.96937 z m -65.000002,-6.63223 c -7.975,-3.57111 -17.425,-7.77519 -21,-9.34242 -3.575,-1.56722 -8.525,-3.74412 -11,-4.83756 -9.216209,-4.07163 -31.712036,-13.4444 -37.819356,-15.75724 -7.873518,-2.98169 -12.180644,-5.98685 -12.180644,-8.49864 0,-4.87164 7.351996,-1.89063 55,22.30075 34.452012,17.49164 44.386212,22.79431 42.500002,22.68564 -0.55,-0.0317 -7.525,-2.97943 -15.500002,-6.55053 z m 18.000002,1.56607 C 91.371272,173.02236 73.542762,161.1036 64.132449,154.9567 25.628241,129.80542 25.350272,129.59875 26.388128,126.89414 c 0.931577,-2.42765 2.928507,-1.81255 10.764955,3.31584 11.91869,7.79991 74.216977,53.58461 82.378307,60.54204 4.64911,3.96331 2.71079,3.10454 -5.5,-2.43677 z m 44,3.67761 c 0,-0.418 9.53479,-6.69431 11.36861,-7.48342 0.47774,-0.20557 5.59642,-3.58098 11.37485,-7.5009 5.77843,-3.91992 11.96252,-8.02713 13.74242,-9.12713 1.7799,-1.1 4.31122,-2.79535 5.62515,-3.76745 1.31393,-0.97209 4.46869,-3.22209 7.01057,-5 2.54188,-1.7779 9.87649,-7.05755 16.29913,-11.73255 14.90072,-10.84615 23.40504,-15.91872 25.88691,-15.44075 2.67709,0.51556 2.97824,0.96466 2.22928,3.32444 -1.2378,3.89996 -11.13434,10.50177 -43.03692,28.70916 -49.65812,28.34081 -50.5,28.80791 -50.5,28.0186 z m 7.08471,0.0465 c 0.32159,-0.36339 4.59659,-2.72602 9.5,-5.25029 4.90341,-2.52428 11.61529,-6.07455 14.91529,-7.88949 3.3,-1.81495 13.425,-7.10808 22.5,-11.76252 9.075,-4.65444 21.76141,-11.22855 28.19202,-14.60913 6.4306,-3.38059 12.63223,-6.14652 13.78138,-6.14652 3.48429,0 3.72244,3.03135 0.44495,5.66361 -2.59974,2.08793 -22.31964,12.33639 -23.73746,12.33639 -0.30945,0 -4.38677,1.8 -9.06072,4 -4.67394,2.2 -8.73498,4 -9.02452,4 -0.28954,0 -10.55451,4.30966 -22.81105,9.57701 -25.73008,11.05775 -25.47063,10.95185 -24.69989,10.08094 z m -44.21227,-2.40795 c -1.24387,-1.58606 -1.2085,-1.62143 0.37756,-0.37756 0.9625,0.75485 1.75,1.54235 1.75,1.75 0,0.82304 -0.82119,0.29331 -2.12756,-1.37244 z m 10.20651,-0.83333 c 0.048,-1.16495 0.28494,-1.4019 0.60416,-0.60417 0.28887,0.72187 0.25335,1.58437 -0.0789,1.91667 -0.3323,0.33229 -0.56864,-0.25834 -0.52522,-1.3125 z m -14.17118,-2.0278 c -1.52656,-1.83939 -40.827824,-34.46599 -53.795068,-44.65887 -4.736987,-3.72351 -12.088539,-9.49468 -16.336781,-12.82484 -8.860118,-6.94536 -12.775923,-11.2308 -12.775923,-13.98189 0,-2.19275 0.76648,-2.34275 4.573965,-0.89515 3.618993,1.37594 12.180025,8.7476 34.904705,30.05544 3.861732,3.62097 13.99633,13.01502 22.52133,20.87569 8.525002,7.86066 16.298752,15.1993 17.275002,16.30809 0.97626,1.10879 2.00862,1.78237 2.29415,1.49684 0.53609,-0.53608 -14.79446,-16.91896 -34.058705,-36.39659 -23.991251,-24.257 -37.510447,-38.99934 -37.510447,-40.90418 0,-0.88092 0.96209,-1.46341 2.417095,-1.46341 2.736424,0 24.528421,23.93702 64.501307,70.85029 5.78915,6.7943 7.47477,9.25563 7.80055,11.3903 0.33291,2.18148 -0.0947,2.21649 -1.81118,0.14828 z m 69.09223,1.2908 c 0,-0.29386 3.55308,-1.90451 7.89572,-3.57921 4.34265,-1.6747 13.00515,-5.23386 19.25,-7.90924 26.623,-11.40565 43.80571,-18.19122 46.06459,-18.19122 2.09059,0 2.97583,1.35134 2.20358,3.36381 -1.14188,2.97568 -5.64237,4.62813 -56.41389,20.71346 -9.075,2.87512 -17.0625,5.43207 -17.75,5.6821 -0.6875,0.25003 -1.25,0.21417 -1.25,-0.0797 z m -63.37163,-3.92967 c -0.77975,-1.2375 -6.04232,-9.675 -11.6946,-18.75 -5.65227,-9.075 -14.61632,-23.025 -19.920096,-31 -5.303777,-7.975 -11.148736,-17.2 -12.988798,-20.5 -1.840062,-3.3 -5.339813,-8.89328 -7.777225,-12.42952 -4.501463,-6.530792 -6.362247,-12.263582 -4.378531,-13.489592 3.001555,-1.85506 7.338913,4.22231 19.313358,27.061262 6.201467,11.82811 24.038162,43.86981 37.635352,67.60785 2.30842,4.03006 2.15753,5.22476 -0.18946,1.5 z m 7.11048,0.5 c -0.27192,-0.9625 -2.37808,-8.95 -4.68034,-17.75 -2.30226,-8.8 -5.10718,-19.15 -6.23315,-23 -1.12597,-3.85 -2.62238,-9.025 -3.32536,-11.5 -0.70298,-2.475 -2.18202,-7.65 -3.28676,-11.5 -5.20723,-18.14707 -11.37248,-41.346322 -11.64314,-43.811982 -0.33433,-3.04566 0.49731,-3.98311 2.76242,-3.11391 2.24753,0.86246 4.25121,5.80245 6.66241,16.4259 1.18592,5.225 3.91903,16.702982 6.07359,25.506632 5.3961,22.04877 11.48729,50.35196 14.36398,66.74336 0.67081,3.82227 0.20259,5.17229 -0.69365,2 z m 9.58347,-1.75 c 0.30578,-1.65 0.83835,-6.15 1.18348,-10 0.34514,-3.85 0.81016,-8.8 1.03337,-11 0.75534,-7.44455 3.45613,-42.87772 4.97001,-65.204322 1.4717,-21.70452 2.22705,-26.39659 4.47294,-27.78463 2.03223,-1.25598 4.01765,1.63347 4.02753,5.8614 0.0127,5.44508 -1.70547,21.01974 -4.09591,37.127552 -1.06108,7.15 -3.29733,22.675 -4.96945,34.5 -3.61624,25.57359 -5.73651,38.1378 -6.56864,38.9242 -0.33511,0.31669 -0.3591,-0.7742 -0.0533,-2.4242 z m 4.67768,2.3284 c 0,-0.27772 1.61308,-5.86522 3.58462,-12.41667 3.39356,-11.27681 6.9705,-23.3758 9.87783,-33.41173 0.71699,-2.475 2.65965,-8.775 4.31702,-14 4.43501,-13.98175 7.10914,-23.19554 10.25507,-35.334172 2.97056,-11.46203 5.24644,-15.50745 7.61725,-13.53985 2.00212,1.66162 1.65108,5.70361 -1.25899,14.49639 -1.43396,4.3327 -3.42456,10.577632 -4.42356,13.877632 -1.72355,5.69341 -16.05003,45.35939 -24.8966,68.93165 -3.6744,9.79068 -5.07264,12.93211 -5.07264,11.39675 z m -27.7582,-19.00128 c -5.06373,-10.07991 -10.7642,-21.25212 -12.6677,-24.82712 -1.90351,-3.575 -4.983972,-9.65 -6.845477,-13.5 -3.021601,-6.24933 -6.922372,-13.73303 -16.418936,-31.500002 -4.653762,-8.70665 -5.573547,-11.96151 -3.594754,-12.72085 3.5452,-1.36042 10.033779,9.09682 19.957419,32.164102 1.879466,4.36879 4.045468,9.31879 4.813328,11 0.76787,1.68121 3.71972,8.68175 6.55967,15.55675 2.83996,6.875 6.52856,15.425 8.19689,19 7.51923,16.11265 9.78523,21.41758 9.50615,22.25484 -0.16489,0.49467 -4.44286,-7.3478 -9.50659,-17.42772 z m 14.94351,11.47374 c -0.57547,-3.19047 -2.62202,-14.57586 -4.54789,-25.30086 -1.92587,-10.725 -6.00715,-32.72643 -9.0695,-48.89206 -3.06236,-16.165632 -5.56792,-30.228132 -5.56792,-31.249992 0,-1.15128 0.71455,-1.85794 1.87868,-1.85794 2.30109,0 3.67518,3.29284 5.00751,12 0.54703,3.575 1.9057,11.9 3.01925,18.499992 1.11355,6.6 2.74076,16.95 3.61601,23 0.87525,6.05 2.44191,16.85 3.48148,24 2.4575,16.90231 4.3172,34.51321 3.70882,35.12159 -0.26407,0.26407 -0.95097,-2.13026 -1.52644,-5.32073 z m 24.54164,0.98668 c 6.96608,-10.65687 14.65068,-22.54694 19.69788,-30.47772 18.53267,-29.12082 35.4405,-53.160422 38.1099,-54.184762 2.2302,-0.85581 3.46527,0.0689 3.46527,2.59446 0,3.505932 -15.45888,25.142942 -39.58877,55.410412 -4.32775,5.42854 -11.13863,14.25757 -15.13528,19.62007 -3.99666,5.3625 -7.50412,9.75 -7.79435,9.75 -0.29024,0 0.27017,-1.22061 1.24535,-2.71246 z m 12.27305,2.29564 c 0,-0.18941 3.88925,-3.66061 8.64278,-7.71378 9.36155,-7.98228 17.57101,-15.19681 20.90267,-18.3694 6.12543,-5.83298 15.39573,-13.5 16.32305,-13.5 0.58362,0 1.50024,-0.82048 2.03693,-1.82329 1.13161,-2.11444 17.49729,-16.27954 20.88234,-18.07443 1.25828,-0.66719 3.18958,-0.92686 4.29179,-0.57703 4.91621,1.56035 -1.00201,8.06087 -20.31511,22.31392 -21.08083,15.55765 -52.76445,38.2219 -52.76445,37.74401 z m -52.12803,-2.4379 c -0.75458,-1.0201 -4.07197,-5.3533 -7.37197,-9.62933 -3.3,-4.27603 -7.125,-9.24364 -8.5,-11.03912 -8.549641,-11.16421 -27.645613,-35.4862 -34.527619,-43.97683 -4.457975,-5.5 -8.912456,-11.23403 -9.898847,-12.74228 -1.923227,-2.940732 -1.535692,-5.757712 0.792095,-5.757712 1.654212,0 11.563156,10.955632 17.239757,19.060802 9.380769,13.39407 11.674653,16.72795 14.751286,21.43919 1.795862,2.75 8.862776,13.30495 15.704268,23.45545 6.84148,10.15049 12.79892,19.03799 13.23875,19.75 1.21757,1.97102 0.1286,1.54376 -1.42772,-0.56017 z m 27.20446,-0.45246 c -0.042,-0.99395 0.34096,-3.69395 0.85111,-6 1.1126,-5.02938 3.31838,-16.72393 5.60054,-29.69282 0.91945,-5.225 3.01693,-16.25 4.66107,-24.5 1.64413,-8.25 3.80755,-19.275002 4.80759,-24.499992 2.87628,-15.02791 3.74367,-18.17069 5.48938,-19.88929 1.50534,-1.48197 1.75112,-1.45556 3.075,0.33042 2.03372,2.74359 1.94381,3.4359 -3.02003,23.25542 -2.45241,9.791892 -7.38861,29.503442 -10.96935,43.803442 -7.12472,28.45315 -10.37743,39.97998 -10.49531,37.19282 z m 6.92357,-0.19015 c 0,-0.52079 2.07031,-5.90944 4.60069,-11.97478 2.53038,-6.06534 6.16897,-14.85289 8.08574,-19.52789 1.91678,-4.675 3.88788,-9.4 4.38022,-10.5 1.12081,-2.50415 5.64642,-14.84328 12.10338,-33 7.94796,-22.349342 8.51553,-23.499992 11.59171,-23.499992 3.11708,0 0.476,9.37195 -8.60842,30.547262 -8.74107,20.37499 -32.15332,69.85631 -32.15332,67.9554 z m -13.1878,-53.19548 c -0.22371,-28.493952 -0.12811,-52.932182 0.21244,-54.307182 0.91551,-3.6964 3.46534,-3.64551 5.01683,0.10012 1.08903,2.62913 1.10376,7.09415 0.0835,25.29628 -0.68143,12.156972 -1.64844,31.103592 -2.14892,42.103592 -0.96571,21.2255 -2.04198,37.79924 -2.48759,38.30719 -0.14822,0.16896 -0.45253,-23.00604 -0.67624,-51.5 z m -3.13616,40.19281 c -0.45317,-6.05 -0.99525,-12.575 -1.20461,-14.5 -0.20936,-1.925 -1.32835,-12.95 -2.48663,-24.5 -1.15829,-11.55 -2.93871,-25.725 -3.9565,-31.499992 -2.77305,-15.73441 -3.07681,-18.50744 -2.39876,-21.89771 0.42554,-2.1277 1.20143,-3.10229 2.46978,-3.10229 2.41602,0 4.53362,4.2588 5.22088,10.5 1.71289,15.55497 3.71317,59.700192 3.46632,76.499992 -0.28651,19.4993 -0.28655,19.49961 -1.11048,8.5 z m 35.78501,8.54303 c 2.17821,-2.40688 2.67736,-2.5673 1.93025,-0.62035 -0.30027,0.78248 -1.27341,1.70184 -2.16255,2.04304 -1.32812,0.50964 -1.28666,0.25575 0.2323,-1.42269 z m -4.46105,-0.74716 c 0,-0.2761 2.01549,-2.74372 4.47887,-5.48359 2.46338,-2.73987 6.55965,-7.75599 9.10282,-11.14693 2.54318,-3.39094 10.31519,-13.30547 17.27113,-22.03228 24.36498,-30.56787 26.99276,-33.46457 29.14893,-32.13199 2.70996,1.67485 -0.82118,8.52639 -7.98783,15.49892 -0.28266,0.275 -3.87181,4.325 -7.9759,9 -14.23016,16.20971 -44.03802,47.54582 -44.03802,46.29587 z m 20.07199,-14.90168 c 6.83541,-6.93319 12.88779,-13.12069 13.44973,-13.75 7.54339,-8.44758 26.55421,-28.61751 28.41189,-30.14419 4.53214,-3.72462 8.06639,-3.9442 8.06639,-0.50116 0,2.22156 -7.8168,11.01606 -14.60343,16.42998 -2.80689,2.23915 -14.3644,12.28368 -25.68336,22.32118 -11.31895,10.0375 -20.91501,18.25 -21.32457,18.25 -0.40956,0 4.84795,-5.67261 11.68335,-12.60581 z m -26.07199,8.88733 c 0,-0.46008 0.64858,-1.76249 1.4413,-2.89425 0.79271,-1.13176 7.70386,-14.39438 15.3581,-29.4725 20.36533,-40.117742 23.45359,-45.709012 25.84985,-46.800812 1.18317,-0.53909 2.42111,-0.71026 2.75098,-0.38039 1.61332,1.61332 -0.12903,5.82115 -8.55147,20.652122 -8.11596,14.29131 -11.87775,20.48488 -24.36421,40.11431 -9.08543,14.2828 -10.48455,16.61282 -10.48455,17.4604 0,0.50686 -0.45,1.19968 -1,1.5396 -0.55,0.33992 -1,0.2416 -1,-0.21848 z"
     id="path125"
     inkscape:connector-curvature="0" />
</svg>
