<?xml version="1.0" encoding="UTF-8" standalone="no"?>
<!-- Created with Inkscape (http://www.inkscape.org/) -->

<svg
   xmlns:dc="http://purl.org/dc/elements/1.1/"
   xmlns:cc="http://creativecommons.org/ns#"
   xmlns:rdf="http://www.w3.org/1999/02/22-rdf-syntax-ns#"
   xmlns:svg="http://www.w3.org/2000/svg"
   xmlns="http://www.w3.org/2000/svg"
   xmlns:sodipodi="http://sodipodi.sourceforge.net/DTD/sodipodi-0.dtd"
   xmlns:inkscape="http://www.inkscape.org/namespaces/inkscape"
   version="1.1"
   id="svg2949"
   width="283"
   height="443"
   viewBox="0 0 283 443"
   sodipodi:docname="feu80.svg"
   inkscape:version="0.92.4 (5da689c313, 2019-01-14)">
  <metadata
     id="metadata2955">
    <rdf:RDF>
      <cc:Work
         rdf:about="">
        <dc:format>image/svg+xml</dc:format>
        <dc:type
           rdf:resource="http://purl.org/dc/dcmitype/StillImage" />
        <dc:title></dc:title>
      </cc:Work>
    </rdf:RDF>
  </metadata>
  <defs
     id="defs2953" />
  <sodipodi:namedview
     pagecolor="#ffffff"
     bordercolor="#666666"
     borderopacity="1"
     objecttolerance="10"
     gridtolerance="10"
     guidetolerance="10"
     inkscape:pageopacity="0"
     inkscape:pageshadow="2"
     inkscape:window-width="1280"
     inkscape:window-height="972"
     id="namedview2951"
     showgrid="false"
     inkscape:zoom="1.5067919"
     inkscape:cx="112.64858"
     inkscape:cy="221.5"
     inkscape:window-x="-8"
     inkscape:window-y="-8"
     inkscape:window-maximized="1"
     inkscape:current-layer="g151"
     showguides="false" />
  <g
     id="g151"
     transform="translate(25.882805,-2.654647)">
    <path
       style="fill:#ff00ff"
       d="m 101.16148,338.51554 c -0.86356,-1.04052 -1.09078,-3.10871 -0.69032,-6.2833 0.32832,-2.60273 1.30284,-10.30115 2.16559,-17.1076 0.86275,-6.80645 1.79113,-16.25645 2.06308,-21 0.58938,-10.28057 2.35057,-27.71854 3.11827,-30.87464 0.93557,-3.84625 2.2247,-2.46883 1.87182,2 -0.18459,2.3375 -0.89249,18.875 -1.57311,36.75 -0.72495,19.03908 -1.69946,33.50487 -2.35286,34.92616 -1.4017,3.04898 -2.94795,3.58296 -4.60247,1.58938 z m 11.89536,-1.19278 c -0.72116,-1.85468 -0.89555,-7.7956 -0.50851,-17.32276 0.32399,-7.975 0.87749,-23.725 1.22999,-35 0.65067,-20.81199 2.17842,-31.69707 2.31581,-16.5 0.0398,4.4 0.51485,15.27524 1.05571,24.16719 1.69254,27.82604 2.04078,40.72684 1.18321,43.83281 -1.11105,4.02405 -3.86451,4.45342 -5.27621,0.82276 z M 124.75367,333.75 c -0.79793,-2.8875 -1.75227,-11.97021 -2.12075,-20.1838 -0.36849,-8.2136 -0.87816,-15.8636 -1.13262,-17 -0.25445,-1.13641 -0.72379,-10.33657 -1.04297,-20.44479 -0.48632,-15.4019 -0.35587,-18.30398 0.80547,-17.91787 0.8798,0.29251 1.64522,2.80406 2.09632,6.8786 0.3908,3.52982 1.19517,10.69286 1.78749,15.91786 0.59232,5.225 1.50705,14.45 2.03272,20.5 0.52568,6.05 1.41253,13.475 1.97078,16.5 1.29325,7.00767 1.6617,18.12399 0.65463,19.75 -1.67025,2.69676 -3.62918,1.14546 -5.05107,-4 z m 14.61462,2.44055 c -1.3786,-1.19565 -2.62466,-3.9686 -3.28422,-7.30859 -1.19563,-6.05466 -3.80187,-24.15601 -4.41397,-30.6568 -0.22138,-2.35116 -0.63745,-5.05116 -0.9246,-6 -1.65,-5.45212 -4.3552,-35.31677 -3.08391,-34.04548 0.28216,0.28215 2.12317,8.34074 4.09114,17.90796 1.96797,9.56722 4.64553,21.50318 5.95014,26.52435 3.23421,12.44779 6.44571,27.34515 6.44571,29.90006 0,1.15813 -0.57574,2.89307 -1.27943,3.85542 -1.21204,1.65756 -1.39643,1.64824 -3.50086,-0.17692 z M 88.544064,334.4396 c -0.76611,-3.05243 -0.33364,-6.12849 3.08452,-21.9396 1.42684,-6.6 3.20041,-14.925 3.94128,-18.5 3.65845,-17.65359 4.850696,-22.57759 5.677916,-23.45 1.32226,-1.39448 1.11909,4.67013 -0.5229,15.60827 -0.783026,5.2162 -2.157676,17.32699 -3.054766,26.91287 C 95.964424,331.29731 94.377234,337 91.010164,337 c -1.12252,0 -2.0705,-0.98423 -2.4661,-2.5604 z m 63.893996,-0.94939 c -1.29606,-0.9078 -2.47163,-3.08626 -2.8433,-5.26895 -0.34852,-2.04669 -1.468,-6.19626 -2.48775,-9.22126 -1.01975,-3.025 -2.73723,-8.875 -3.81662,-13 -7.38283,-28.21418 -9.04089,-35.06431 -9.56091,-39.5 l -0.58617,-5 2.42384,6.16214 c 1.33311,3.38917 3.19237,8.78917 4.13168,12 3.42161,11.696 9.82628,30.05338 13.59245,38.95934 4.15133,9.81679 4.54759,12.05223 2.60686,14.70634 -1.13876,1.55735 -1.44779,1.57185 -3.46008,0.16239 z m -75.622806,-0.15688 c -1.766431,-1.76642 -0.0302,-9.11084 7.21784,-30.53153 4.33648,-12.81599 8.84869,-25.3268 10.02714,-27.8018 l 2.14263,-4.5 -0.67305,4 c -0.37017,2.2 -1.2208,5.575 -1.89028,7.5 -0.66948,1.925 -1.98784,7.775 -2.9297,13 -0.94186,5.225 -2.34118,12.425 -3.10959,16 -0.76842,3.575 -1.92385,9.425 -2.56764,13 -0.64378,3.575 -1.57189,7.2875 -2.06245,8.25 -0.87201,1.71089 -4.83059,2.40765 -6.1549,1.08333 z m 86.086966,-5.58658 c -0.81202,-1.23928 -3.58482,-7.65178 -6.16179,-14.25 -2.57697,-6.59821 -5.98797,-15.14675 -7.58001,-18.99675 -1.59204,-3.85 -3.83034,-10.11515 -4.97399,-13.92255 -1.14366,-3.80741 -2.45671,-7.40741 -2.9179,-8 -1.18608,-1.52404 -2.2679,-7.78692 -1.23477,-7.14841 0.47028,0.29065 3.19138,5.69747 6.0469,12.01517 2.85551,6.31769 9.0194,18.93934 13.69752,28.0481 8.41663,16.38799 10.08802,21.8069 7.27529,23.58763 -2.05864,1.30332 -2.52106,1.15481 -4.15125,-1.33319 z m -99.741118,-1.21382 c -1.147866,-3.01912 -0.871847,-3.70931 12.102732,-30.26305 5.43661,-11.12656 9.88475,-20.54299 9.88475,-20.9254 0,-0.38241 1.52655,-3.87886 3.39233,-7.76989 1.86578,-3.89102 3.67637,-7.9265 4.02354,-8.96772 0.34716,-1.04122 0.87545,-1.64888 1.17397,-1.35037 0.29851,0.29852 -0.83862,4.52543 -2.52697,9.39313 -1.68835,4.8677 -3.24644,9.52537 -3.46242,10.35037 -1.18829,4.53903 -4.51924,14.12876 -9.37834,27 -3.0107,7.975 -5.864082,15.87417 -6.340859,17.55372 C 71.005989,325.16043 67.682737,329 65.584878,329 c -0.817188,0 -1.907887,-1.11018 -2.423776,-2.46707 z m 111.612868,-5.0504 c -0.88371,-0.88371 -7.04263,-12.4913 -13.68648,-25.79464 -6.64385,-13.30334 -12.49805,-24.61539 -13.00932,-25.13789 -1.24165,-1.26891 -1.19641,-4.83294 0.0516,-4.06166 0.53963,0.33351 4.86433,7.22257 9.61044,15.30902 4.74612,8.08645 9.9296,16.87004 11.51886,19.51909 1.58926,2.64904 2.88956,5.0105 2.88956,5.24768 0,0.23718 1.60635,2.66716 3.56966,5.39995 2.4484,3.40799 3.46926,5.81885 3.25,7.6752 -0.38787,3.284 -2.03129,4.00623 -4.19427,1.84325 z M 52.148584,318.87886 c 0,-2.97393 3.811405,-10.2206 14.058311,-26.72927 2.167929,-3.49272 3.941689,-6.56646 3.941689,-6.83053 0,-0.49497 4.670576,-7.86013 10.82442,-17.06933 1.92961,-2.88764 3.67428,-5.08436 3.87705,-4.88159 0.20277,0.20277 -3.8188,8.86539 -8.93683,19.25026 -5.11802,10.38488 -11.032292,22.7066 -13.142823,27.3816 -4.313252,9.5542 -6.102107,12 -8.776805,12 -1.39926,0 -1.845012,-0.75406 -1.845012,-3.12114 z m -10.333333,-3.54553 c -0.366667,-0.36666 -0.666667,-1.35211 -0.666667,-2.18988 0,-2.07311 8.021548,-15.21449 9.674049,-15.84861 0.729273,-0.27985 1.325951,-0.92989 1.325951,-1.44453 0,-0.51464 1.769479,-3.27899 3.932176,-6.14301 2.162696,-2.86401 7.757627,-10.3823 12.433178,-16.7073 4.675552,-6.325 9.201226,-12.4 10.057046,-13.5 l 1.55604,-2 -0.65194,2 c -0.35857,1.1 -1.41456,3.125 -2.34664,4.5 -0.93208,1.375 -1.87135,2.96222 -2.087275,3.52715 -0.492448,1.28843 -9.681868,16.83914 -15.052733,25.47285 -2.22394,3.575 -5.300188,8.975 -6.836108,12 -4.304551,8.47783 -8.954406,12.716 -11.337077,10.33333 z M 182.68554,310.80731 C 172.52459,295.94844 166.98431,287.20762 156.60038,269.65312 153.73147,264.8031 151.90893,261 152.45358,261 c 0.13323,0 3.38161,4.33403 7.21862,9.63118 5.7676,7.9624 12.48709,16.74235 20.178,26.36534 8.1303,10.17276 10.35908,13.70094 10.09246,15.97648 -0.51534,4.39834 -3.34612,3.55357 -7.25712,-2.16569 z m 6.31949,-11.35315 c -10.83846,-13.81516 -16.79564,-21.80234 -16.82941,-22.56428 -0.0149,-0.33557 -1.48954,-2.18289 -3.27704,-4.10516 C 165.57033,269.20554 156.74992,257 157.49165,257 c 0.22658,0 2.41913,2.43807 4.87231,5.41793 4.91994,5.9762 16.55819,18.85605 30.09569,33.30637 6.40849,6.84061 8.72624,9.99827 8.5,11.58023 -0.67922,4.74923 -3.54752,2.86567 -11.95462,-7.85037 z m -158.513292,6.9977 c -0.599751,-1.56292 1.258186,-4.60107 7.656846,-12.52065 3.034008,-3.75518 15.607447,-18.37984 18.499131,-21.51707 0.550478,-0.59722 4.557954,-4.99013 8.905502,-9.76203 4.347548,-4.7719 8.127901,-8.45291 8.400784,-8.18003 0.272883,0.27289 -2.129788,3.9908 -5.339269,8.26204 -6.069784,8.07778 -11.550503,15.62743 -15.075116,20.76588 -1.131784,1.65 -4.22065,6.15 -6.864146,10 -8.627576,12.56524 -14.521915,17.28249 -16.183732,12.95186 z m 173.430642,-7.41515 c -2.91975,-2.29668 -14.36073,-14.12797 -21.3764,-22.10568 -9.33863,-10.6192 -10.3974,-11.91788 -10.3974,-12.75339 0,-0.46183 -1.14398,-1.45192 -2.54217,-2.20021 -1.3982,-0.74829 -4.44278,-3.63683 -6.76575,-6.41898 -5.69414,-6.81971 -7.65983,-9.79568 -3.8366,-5.80845 1.71398,1.7875 3.40006,3.25 3.74684,3.25 0.34678,0 3.67143,3.11418 7.38811,6.9204 5.92307,6.06577 17.37156,16.5064 26.44529,24.1172 7.86892,6.60023 13.56428,12.81874 13.56428,14.81023 0,2.7568 -2.85164,2.84331 -6.2262,0.18888 z m -182.773796,-2.3709 c 0,-2.37638 4.216169,-6.72248 20.047974,-20.66581 4.059196,-3.575 12.121482,-10.77615 17.916191,-16.00255 5.794709,-5.2264 11.423813,-10.1764 12.50912,-11 1.964381,-1.49069 1.964381,-1.48588 0,1.06669 -1.085307,1.41027 -6.923285,7.9237 -12.973285,14.47428 -29.600186,32.04932 -37.5,38.81733 -37.5,32.12739 z M 208.59866,286.56336 c -8.13867,-6.06854 -16.18664,-12.93021 -31.74228,-27.06336 -17.11605,-15.55086 -22.18005,-21.26665 -11.2078,-12.65037 8.95685,7.03364 27.29543,20.88472 42.45043,32.0627 7.7529,5.71836 10.04957,7.94657 10.04957,9.75 0,3.54969 -2.79959,2.93437 -9.54992,-2.09897 z m -196.065142,1.99738 c -0.884627,-2.3053 0.672875,-4.11752 8.628497,-10.03959 4.117613,-3.0651 8.701982,-6.49433 10.187487,-7.62052 1.485505,-1.12618 5.597218,-4.15203 9.137141,-6.72412 C 44.026565,261.60443 51.518146,255.9 57.134599,251.5 c 9.865896,-7.72907 15.859901,-11.42912 13.070875,-8.06855 -0.670618,0.80805 -5.090944,4.75404 -9.822945,8.76886 -4.732001,4.01483 -11.557957,10.05902 -15.168792,13.43153 -3.610834,3.37251 -8.140153,7.41527 -10.065153,8.98391 -1.925,1.56864 -3.725,3.10489 -4,3.4139 C 29.116975,280.31249 15.655514,290 14.514963,290 c -0.786032,0 -1.677682,-0.64767 -1.981445,-1.43926 z M 212.07914,274.2443 C 205.71595,269.98494 199.10898,265.375 197.39698,264 c -1.712,-1.375 -5.95575,-4.48971 -9.43056,-6.92157 -9.60327,-6.72089 -17.23466,-12.45988 -18.05253,-13.5759 -1.58171,-2.15835 -0.63435,-2.47163 1.98469,-0.65631 3.38053,2.34313 38.05822,24.16725 48,30.20841 5.57686,3.3888 7.25,4.92934 7.25,6.67543 0,3.75261 -2.77964,2.74073 -15.06944,-5.48576 z M 6.34777,278.79919 c -1.973714,-1.97372 0.876355,-5.44883 8.649804,-10.54677 4.208055,-2.7597 9.90101,-6.21001 12.65101,-7.66734 2.75,-1.45733 6.883756,-3.87265 9.186125,-5.36739 2.302369,-1.49473 6.352369,-4.0088 9,-5.58683 7.404754,-4.41334 17.503319,-10.70623 20.642485,-12.8633 1.555736,-1.06902 3.018668,-1.75361 3.250961,-1.52132 0.495791,0.49579 -10.793732,8.96679 -33.079571,24.82099 -8.8,6.26034 -16.225,11.61876 -16.5,11.9076 -1.120935,1.17736 -9.613861,6.73413 -11.128145,7.28095 -0.89548,0.32336 -2.098181,0.11789 -2.672669,-0.45659 z m 218.19036,-10.46326 c -2.13925,-1.46524 -9.51455,-5.88284 -16.38955,-9.81687 -6.875,-3.93404 -14.3,-8.29689 -16.5,-9.69521 -2.2,-1.39832 -8.63377,-5.35946 -14.29728,-8.80252 -5.6635,-3.44306 -10.10828,-6.44911 -9.87728,-6.6801 0.231,-0.231 8.01477,3.48098 17.29728,8.24884 9.2825,4.76786 23.96478,12.23088 32.62728,16.5845 13.90652,6.98916 15.75,8.20299 15.75,10.37054 0,3.35778 -3.52782,3.27207 -8.61045,-0.20918 z M -1.919135,265.95815 c -1.106405,-0.6838 -0.889609,-1.37679 1.093924,-3.49675 2.472857,-2.64294 4.845889,-3.87647 25.473795,-13.2416 10.215628,-4.63792 21.360679,-9.78792 34.341191,-15.86866 2.937656,-1.37615 5.535798,-2.30748 5.773649,-2.06963 0.237852,0.23785 -2.615684,2.22223 -6.341191,4.40973 -3.725507,2.18751 -10.598649,6.35128 -15.273649,9.25283 -10.807213,6.70752 -38.000238,20.83552 -41.231026,21.42138 -1.351252,0.24503 -3.077764,0.0617 -3.836693,-0.4073 z m 231.567715,-9.88988 c -2.75,-0.98208 -7.925,-3.15068 -11.5,-4.81911 -3.575,-1.66843 -9.425,-4.25679 -13,-5.75192 -9.09071,-3.80188 -33.15425,-15.67633 -32.69622,-16.13435 0.35396,-0.35396 16.52317,5.36166 23.19622,8.19958 2.8277,1.20256 25.66955,9.68061 35.5,13.17628 5.11613,1.81928 8,3.95199 8,5.91624 0,1.79947 -3.40753,1.58902 -9.5,-0.58672 z M -6.657524,254.94808 c -4.180317,-1.67702 -0.964058,-4.03851 12.425175,-9.12299 11.652057,-4.4248 25.810498,-9.60807 32.380933,-11.85435 1.375,-0.47008 6.306625,-2.21168 10.959166,-3.87022 4.652542,-1.65853 8.63202,-2.84267 8.843285,-2.6314 0.420502,0.4205 -14.002494,7.26905 -43.302451,20.56155 -5.303773,2.40616 -18.698058,8.01274 -18.887538,7.90594 -0.06185,-0.0349 -1.150211,-0.4797 -2.41857,-0.98853 z M 107.69161,244.25155 c -1.50942,-3.93349 2.04138,-7.696 6.22939,-6.60081 2.6315,0.68815 2.7964,1.63758 0.65615,3.77783 -1.3539,1.35391 -1.36544,1.57143 -0.0833,1.57143 0.81845,0 1.68899,-0.5625 1.93452,-1.25 0.24554,-0.6875 0.79716,-0.92337 1.22584,-0.52417 1.02637,0.95583 -1.45883,3.92111 -2.66271,3.17707 -0.51178,-0.31629 -1.47329,-0.14768 -2.13669,0.3747 -1.7627,1.38798 -4.53716,1.1053 -5.16317,-0.52605 z m 127.95697,0.74843 c -1.1,-0.47557 -6.95,-2.44943 -13,-4.38636 -6.05,-1.93693 -12.35,-3.98728 -14,-4.55632 -1.65,-0.56905 -9.72286,-3.30009 -17.93968,-6.06898 -8.21683,-2.7689 -15.19183,-5.31544 -15.5,-5.65899 -0.30818,-0.34355 0.56468,-0.32634 1.93968,0.0382 1.375,0.36458 9.025,2.2266 17,4.13782 7.975,1.91122 18.775,4.61587 24,6.01032 5.225,1.39445 12.60948,3.17443 16.40996,3.9555 7.33961,1.50844 10.24609,3.37676 9.25817,5.95125 -0.65815,1.71511 -4.8511,2.01157 -8.16813,0.57752 z M -11.929681,243.4057 c -1.129529,-1.361 -0.965404,-1.86416 1.121564,-3.43836 1.344594,-1.01423 4.472413,-2.37918 6.950709,-3.03323 2.478296,-0.65405 8.555992,-2.316 13.505992,-3.69322 4.95,-1.37723 11.475,-3.07417 14.5,-3.77098 3.025,-0.69681 11.071185,-2.67891 17.880411,-4.40467 6.809226,-1.72576 12.525564,-2.9926 12.702973,-2.81519 0.17741,0.17741 -7.643775,3.00623 -17.380411,6.28626 -9.736635,3.28003 -17.927973,6.23413 -18.202973,6.56466 -0.275,0.33053 -1.625,0.8577 -3,1.17149 -1.375,0.31378 -7.331557,2.40585 -13.236793,4.64903 -12.041983,4.5743 -12.976962,4.7308 -14.841472,2.48421 z m 139.078261,0.53528 c 0,-0.58246 -0.38775,-0.81937 -0.86166,-0.52648 -0.47392,0.2929 -0.81142,-0.69241 -0.75,-2.18957 0.14408,-3.51245 3.23856,-6.77947 5.02058,-5.30052 0.7013,0.58203 1.47689,0.85645 1.72352,0.60982 0.24663,-0.24663 0.49686,0.54477 0.55607,1.75868 0.0592,1.2139 -0.10899,1.64459 -0.37376,0.95709 -0.71483,-1.85607 -2.31245,-1.51324 -2.33006,0.5 -0.0132,1.50934 -0.16047,1.54372 -1.07086,0.25 -0.8095,-1.15037 -0.96285,-0.74246 -0.65788,1.75 0.21872,1.7875 0.0256,3.25 -0.42914,3.25 -0.45475,0 -0.82681,-0.47656 -0.82681,-1.05902 z m 4.07895,-1.52431 c 0.048,-1.16495 0.28494,-1.4019 0.60416,-0.60417 0.28887,0.72187 0.25335,1.58437 -0.0789,1.91667 -0.3323,0.33229 -0.56864,-0.25834 -0.52522,-1.3125 z m -40.004356,-2.7773 c -1.54356,-2.88417 -0.53682,-7.03072 1.51575,-6.24308 0.77531,0.29752 1.40966,0.10506 1.40966,-0.42767 0,-0.53274 0.62686,-0.96862 1.39301,-0.96862 1.91513,0 2.97046,3.15246 1.39086,4.15474 -0.70613,0.44805 -0.98317,0.82153 -0.61566,0.82995 0.36752,0.008 1.32261,0.26642 2.12242,0.57334 1.11883,0.42934 1.33488,-0.0662 0.9368,-2.14862 -0.35836,-1.87466 -0.16545,-2.48914 0.627576,-1.99902 1.73234,1.07065 1.3713,4.35841 -0.605006,5.50951 -0.9625,0.56061 -1.3,1.03986 -0.75,1.065 0.55,0.0251 0.325,0.48194 -0.5,1.0151 -0.825,0.53316 -2.175,0.94464 -3,0.9144 -0.98906,-0.0362 -0.81874,-0.34772 0.5,-0.9144 1.41751,-0.60912 1.54857,-0.8799 0.45,-0.92971 -0.8525,-0.0387 -2.00909,0.3888 -2.57021,0.94992 -0.6936,0.6936 -1.43157,0.25156 -2.3052,-1.38084 z m 70.786186,-2.69872 -2.36078,-2.05935 2.75,1.67436 c 1.5125,0.9209 2.75,1.84761 2.75,2.05935 0,0.78084 -0.83549,0.33522 -3.13922,-1.67436 z M 140.14858,234 c -1.84101,-1.5967 -1.97269,-2 -0.65301,-2 1.00838,0 1.65301,-0.81244 1.65301,-2.08333 0,-2.78869 2.40318,-1.92153 2.8341,1.02265 0.23612,1.61328 -0.03,2.05763 -0.90753,1.5153 -0.89336,-0.55213 -1.08345,-0.16254 -0.67771,1.38901 0.69047,2.64038 0.62081,2.64522 -2.24886,0.15637 z m 95.5,-1.65106 c -14.08752,-2.77506 -28.5,-6.60343 -28.5,-7.57041 0,-0.54588 -0.67651,-0.73291 -1.50335,-0.41562 -0.82685,0.31729 -6.33935,-0.53914 -12.25,-1.90319 -5.91066,-1.36405 -14.00915,-3.21992 -17.99665,-4.12415 -3.9875,-0.90423 -7.25,-1.96225 -7.25,-2.35114 0,-0.3889 1.0125,-0.55475 2.25,-0.36855 30.76507,4.62886 69.47605,11.31842 73,12.61497 1.5125,0.55648 2.75,1.61636 2.75,2.35529 0,2.61449 -3.33454,3.17431 -10.5,1.7628 z m -250.027175,-1.39292 c -1.273301,-2.06024 2.402864,-5.84533 6.269612,-6.45538 12.696648,-2.00311 17.543197,-2.71827 33.757567,-4.98128 9.9,-1.38173 19.8,-2.80253 22,-3.15734 7.402798,-1.19389 2.942219,0.59616 -7.57257,3.03891 -18.398195,4.2742 -24.307879,5.7793 -29.939849,7.62518 C 5.388698,228.58209 -10.443029,232 -12.902867,232 c -0.456783,0 -1.120861,-0.46979 -1.475728,-1.04398 z M 145.64858,230 c -0.33992,-0.55 -0.14148,-1 0.44098,-1 0.58246,0 1.05902,0.45 1.05902,1 0,0.55 -0.19844,1 -0.44098,1 -0.24254,0 -0.7191,-0.45 -1.05902,-1 z m -64.499996,-1 c 0,-0.55 -0.7875,-1.01431 -1.75,-1.0318 -1.58346,-0.0288 -1.56527,-0.17153 0.19113,-1.5 1.39184,-1.05274 1.53333,-1.47253 0.5,-1.48351 -1.19501,-0.0127 -1.20833,-0.16281 -0.078,-0.87895 1.15087,-0.72914 1.15087,-0.94806 0,-1.40574 -0.98586,-0.39206 -0.90143,-0.56396 0.30506,-0.62105 0.91752,-0.0434 2.45814,-0.38207 3.42361,-0.75256 1.34355,-0.51557 1.6076,-0.28846 1.12546,0.96798 -0.34646,0.90287 -0.19959,1.90755 0.32639,2.23262 1.64477,1.01652 1.14959,4.76115 -0.54367,4.11138 -0.825,-0.31658 -1.5,-0.13972 -1.5,0.39301 0,0.53274 -0.45,0.96862 -1,0.96862 -0.55,0 -1,-0.45 -1,-1 z m 25.441126,-0.57416 c -1.06762,-0.86578 -1.37863,-1.28923 -0.69113,-0.94098 0.6875,0.34825 1.25,0.15662 1.25,-0.42584 0,-2.06128 0.28959,-2.57356 2.21869,-3.92475 1.46796,-1.0282 2.23369,-1.08189 3.09833,-0.21725 0.86465,0.86465 0.59668,1.29279 -1.08427,1.73236 -1.22801,0.32114 -2.23275,1.00796 -2.23275,1.52627 0,0.51831 0.41157,0.68802 0.91459,0.37714 0.50302,-0.31089 1.1425,5e-5 1.42105,0.69098 0.40248,0.99831 0.52267,0.99959 0.58541,0.006 0.0867,-1.37214 2.07895,-1.76554 2.07895,-0.41052 0,0.66549 -4.22817,3.16052 -5.35592,3.16052 -0.144,0 -1.13533,-0.70837 -2.20295,-1.57416 z m 16.22227,-4.11261 c -0.83249,-5.13007 0.65487,-6.71713 4.45398,-4.75253 2.60291,1.34602 2.78882,1.74606 1.73043,3.72366 -0.65217,1.2186 -1.10973,2.32814 -1.01679,2.46564 0.96399,1.42619 -0.1891,1.14255 -1.24926,-0.3073 -0.78003,-1.06675 -1.75503,-1.60276 -2.16667,-1.19113 -0.41163,0.41164 -0.22342,0.74843 0.41824,0.74843 0.64167,0 1.16667,0.675 1.16667,1.5 0,3.18506 -2.75822,1.37735 -3.3366,-2.18677 z m -63.663396,2.29376 c 0,-0.21616 0.698372,-0.661 1.551938,-0.98855 0.889925,-0.34149 1.291322,-0.17385 0.940983,0.39301 -0.587258,0.95021 -2.492921,1.40545 -2.492921,0.59554 z m 44.999996,-2.54797 c 0,-0.51754 0.45,-1.2191 1,-1.55902 0.55,-0.33992 1,0.0835 1,0.94098 0,0.85746 -0.45,1.55902 -1,1.55902 -0.55,0 -1,-0.42344 -1,-0.94098 z m 48.24702,-3.30009 C 152.77537,219.61964 150.96182,217 149.79333,217 c -0.27395,0 -0.7039,0.7875 -0.95542,1.75 -0.29672,1.13541 -0.49807,0.83292 -0.57333,-0.86133 -0.1007,-2.26681 0.21383,-2.54827 2.384,-2.13342 1.375,0.26285 2.5,0.902 2.5,1.42034 0,0.51835 0.45734,0.65979 1.01631,0.31433 0.55897,-0.34546 0.78335,-1.00506 0.49862,-1.46576 -0.28473,-0.4607 0.49543,-0.56031 1.73369,-0.22134 1.83002,0.50095 1.92385,0.68438 0.50138,0.98006 -2.03421,0.42285 -2.30812,1.82399 -0.5,2.55766 0.94068,0.38169 0.87881,0.76971 -0.25,1.56802 -2.05232,1.45142 -4.25736,1.36351 -3.75298,-0.14963 z m 88.65144,-0.14911 c -0.21915,-0.19457 -3.32346,-0.6125 -6.89846,-0.92874 -5.86428,-0.51874 -18.86125,-2.40164 -53,-7.67821 -17.52125,-2.70813 -8.93394,-2.47375 36,0.98256 6.875,0.52882 16.1,1.23597 20.5,1.57143 7.86539,0.59967 12.0332,2.40242 9.95714,4.30689 -1.08076,0.99144 -5.9489,2.28745 -6.55868,1.74607 z M 92.372034,217.57075 c 0.11058,-1.33609 0.61179,-2.34859 1.1138,-2.25 0.50201,0.0986 1.13988,-0.44589 1.41748,-1.20995 0.33855,-0.93179 0.0819,-1.12786 -0.77951,-0.59549 -0.82395,0.50924 -1.03818,0.39557 -0.5977,-0.31713 0.37759,-0.61096 1.34453,-0.85833 2.14876,-0.54972 0.80423,0.30861 1.21326,0.96396 0.90896,1.45632 -0.3043,0.49237 -0.11422,0.89522 0.42241,0.89522 0.53663,0 1.20266,-0.5625 1.48007,-1.25 0.36845,-0.91313 0.52566,-0.87546 0.58333,0.13976 0.0434,0.76436 0.8227,1.9336 1.731726,2.59829 2.58888,1.89304 0.65253,3.51195 -4.200596,3.51195 -4.0792,0 -4.41387,-0.19225 -4.22873,-2.42925 z m 7.776546,0.59592 c 0,-0.45834 -0.674996,-0.83334 -1.499996,-0.83334 -0.825,0 -1.5,0.375 -1.5,0.83334 0,0.45833 0.675,0.83333 1.5,0.83333 0.825,0 1.499996,-0.375 1.499996,-0.83333 z M -14.601416,218.328 c -1.556783,-0.32319 -2.25,-1.18577 -2.25,-2.79973 0,-4.44903 3.683496,-4.89719 49,-5.96176 18.307105,-0.43006 23.423306,0.41971 11,1.82704 -3.025,0.34268 -10,1.31616 -15.5,2.16328 -5.5,0.84713 -14.05,2.15985 -19,2.91714 -11.364903,1.73871 -20.352985,2.45545 -23.25,1.85403 z m 67.5625,-3.01111 c 0.721875,-0.28887 1.584375,-0.25335 1.916667,0.0789 0.332291,0.33229 -0.258334,0.56864 -1.3125,0.52522 -1.164943,-0.048 -1.4019,-0.28494 -0.604167,-0.60416 z m 19.819994,-1.43119 c -1.112329,-1.58807 -1.218917,-2.77364 -0.448146,-4.98468 C 72.889148,207.30546 73.750213,206 74.246409,206 c 1.284085,0 1.115605,1.38499 -0.347825,2.85925 -1.002248,1.00966 -0.903147,1.12719 0.5,0.59301 0.9625,-0.36643 1.75,-1.06809 1.75,-1.55925 0,-1.4369 2.73516,-1.02555 3.32032,0.49936 0.79338,2.0675 0.28924,4.15282 -1.38214,5.71707 -2.26839,2.12299 -3.704387,2.06243 -5.305686,-0.22374 z m 62.794562,1.34899 c -1.56769,-1.07347 -2.35347,-3.73573 -1.50691,-5.1055 0.55558,-0.89894 1.4377,-0.82493 3.61182,0.30302 3.01627,1.56486 4.11943,1.4308 3.00915,-0.36568 C 140.32716,209.47994 139.18366,209 138.14858,209 c -2.69703,0 -3.35874,-1.67292 -0.91454,-2.3121 1.27561,-0.33358 2.79796,0.19552 3.98875,1.38631 2.34334,2.34334 2.65527,6.4197 0.42579,5.56416 -0.91371,-0.35062 -1.5,-0.002 -1.5,0.89301 0,1.53962 -2.73687,1.96054 -4.57294,0.70331 z m -21.42706,-3.79147 c 0,-1.9209 0.46002,-2.25773 2.75,-2.01358 2.50373,0.26694 2.85775,0.77516 2.4,3.44536 -0.0825,0.48125 -1.275,0.875 -2.65,0.875 -1.94416,0 -2.5,-0.51288 -2.5,-2.30678 z m -7,-2.29058 c 0,-0.53097 -0.9,-0.73005 -2,-0.44239 -1.5348,0.40136 -2,0.0307 -2,-1.59362 0,-1.16415 0.47656,-2.11663 1.05902,-2.11663 0.58246,0 0.7809,0.45 0.44098,1 -0.33992,0.55 -0.18962,1 0.33399,1 0.52362,0 1.23577,-0.73941 1.58256,-1.64313 0.34679,-0.90372 0.93153,-1.34212 1.29942,-0.97423 1.13416,1.13416 1.31059,4.48291 0.27007,5.12599 -0.54232,0.33517 -0.98604,0.17498 -0.98604,-0.35599 z m 113.5,-2.2377 c -5.5,-0.42015 -15.85,-0.83878 -23,-0.93028 -13.95197,-0.17855 -29.39917,-1.52972 -22,-1.92435 2.2,-0.11733 4.675,-0.34372 5.5,-0.50308 1.38503,-0.26753 13.45387,-0.92889 38.5,-2.10976 5.5,-0.25931 13.67137,-0.72057 18.1586,-1.02502 8.6608,-0.58763 12.3414,0.51487 12.3414,3.69678 0,3.59681 -8.4858,4.401 -29.5,2.79571 z m -94.5,-1.13161 c 0,-0.88916 -0.5625,-1.84364 -1.25,-2.12105 -0.96135,-0.38791 -0.94772,-0.52262 0.059,-0.58333 0.71996,-0.0434 1.08863,-0.43554 0.81928,-0.87136 -0.26936,-0.43583 0.3474,-0.85548 1.37057,-0.93255 1.38249,-0.10414 1.75599,0.4016 1.45413,1.969 -0.53307,2.76802 -2.453,4.75549 -2.453,2.53929 z m -141.647669,-0.83542 c -2.746354,-1.03292 -3.526739,-2.32983 -2.699345,-4.48598 0.691281,-1.80145 0.299387,-1.80202 29.347018,0.0428 3.025,0.19212 13.15,0.68173 22.5,1.08802 9.35,0.4063 15.875,1.04405 14.5,1.41722 -1.375,0.37318 -13.975,1.03152 -28,1.46299 -14.025,0.43147 -27.3,0.89659 -29.5,1.03361 -2.2,0.13701 -4.966453,-0.11437 -6.147673,-0.55864 z m 103.397673,-0.7129 c -2.46984,-0.53865 -2.24135,-5.07427 0.36971,-7.33883 1.5673,-1.35932 2.59207,-1.58562 3.93227,-0.86836 2.31851,1.24083 3.55427,4.97946 1.96962,5.95883 -0.65583,0.40533 -1.14822,1.13665 -1.09421,1.62515 0.10527,0.95196 -2.32733,1.24478 -5.17739,0.62321 z M 158.26458,203.25 c -0.0638,-1.2375 -0.55017,-2.25 -1.08082,-2.25 -0.53065,0 -1.46471,-0.93406 -2.07569,-2.07569 -1.02251,-1.91058 -0.94127,-1.98493 1.0213,-0.93459 2.49441,1.33497 3.37367,3.17827 2.71978,5.70187 -0.37117,1.43251 -0.49268,1.34072 -0.58457,-0.44159 z m -5.01172,-0.16533 c -0.89374,-0.56531 -1.12488,-1.54851 -0.64266,-2.73375 0.72562,-1.78349 0.77789,-1.78447 1.43476,-0.0269 0.37494,1.0032 1.00164,1.7907 1.39266,1.75 1.00322,-0.10442 1.03459,1.32155 0.036,1.63474 -0.45375,0.14231 -1.45307,-0.13852 -2.22072,-0.62407 z m -98.291776,-0.76778 c 0.721875,-0.28887 1.584375,-0.25335 1.916667,0.0789 0.332291,0.33229 -0.258334,0.56864 -1.3125,0.52522 -1.164943,-0.048 -1.4019,-0.28494 -0.604167,-0.60416 z m 58.803866,-0.1286 c -0.26642,-0.43108 -0.071,-1.4373 0.4343,-2.23604 0.74037,-1.17035 0.93532,-1.06403 1.0043,0.54775 0.0716,1.67195 0.19709,1.73001 0.76532,0.35399 0.57887,-1.40182 0.87101,-1.43891 1.96914,-0.25 0.70918,0.7678 1.15918,1.42945 1,1.47032 -2.70344,0.69411 -4.78616,0.74 -5.17306,0.11398 z m 23.49853,-2.58121 c -1.64534,-0.91201 -2.01189,-1.55271 -1.18183,-2.06572 0.6618,-0.40901 0.96172,-1.37314 0.66649,-2.14251 -0.3007,-0.7836 0.0725,-1.39885 0.84849,-1.39885 0.76191,0 1.61226,-0.5625 1.88967,-1.25 0.40351,-1 0.52017,-1 0.58333,0 0.0434,0.6875 0.97895,1.25 2.07895,1.25 2.09008,0 2.40713,0.77545 1.39522,3.41247 -0.33264,0.86682 -1.00764,1.32707 -1.5,1.02277 -0.49237,-0.3043 -0.89522,0.14828 -0.89522,1.00574 0,1.8756 -0.74365,1.90739 -3.8851,0.1661 z m 37.8851,-1.66923 c 2.475,-0.53175 6.075,-1.17159 8,-1.42188 5.0804,-0.66054 21.60407,-3.41657 28,-4.6702 3.025,-0.59291 7.975,-1.45514 11,-1.91607 8.65891,-1.31939 12.1351,-1.97456 17.5,-3.29833 2.75,-0.67855 5.74919,-1.07258 6.66486,-0.87562 2.11615,0.45518 3.17562,3.12908 1.86536,4.70784 -1.22934,1.48126 -13.34773,3.33279 -30.03022,4.58822 -6.875,0.51737 -16.775,1.37918 -22,1.91512 -5.225,0.53594 -13.1,1.19118 -17.5,1.45609 -6.84885,0.41235 -7.35248,0.34253 -3.5,-0.48517 z M 72.148584,196.5 c -0.957206,-1.15336 -0.97323,-1.82733 -0.06934,-2.91645 0.933722,-1.12506 0.804625,-1.50412 -0.627555,-1.84261 -1.435786,-0.33934 -1.20776,-0.67025 1.119345,-1.62436 4.308011,-1.76629 5.878841,-0.79223 5.051831,3.13259 -0.37674,1.78796 -1.15359,3.70083 -1.72634,4.25083 -0.70627,0.67823 -0.814269,0.59779 -0.33563,-0.25 0.43797,-0.77574 0.0918,-1.25 -0.91231,-1.25 -0.889919,0 -1.339919,0.45 -1,1 0.949282,1.53597 -0.100787,1.18595 -1.500001,-0.5 z m 32.429516,-0.17694 c 0.30117,-0.78481 0.13382,-1.17122 -0.37188,-0.85869 -0.50569,0.31254 -1.24507,0.0414 -1.64305,-0.60257 -0.45192,-0.73122 -0.29014,-0.90292 0.4309,-0.45729 0.68411,0.4228 1.15451,0.0783 1.15451,-0.84549 0,-0.85746 0.47656,-1.55902 1.05902,-1.55902 0.58246,0 0.75315,0.4949 0.37932,1.09977 -0.45991,0.74414 0.0305,0.71966 1.51668,-0.0757 2.03473,-1.08895 2.11461,-1.0227 1.08549,0.90024 -0.73967,1.38208 -0.76496,2.07569 -0.0757,2.07569 0.56935,0 1.03518,0.39375 1.03518,0.875 0,0.48125 -1.15156,0.875 -2.55902,0.875 -1.80561,0 -2.39781,-0.42011 -2.01146,-1.42694 z M 124.14858,196 c 0,-1.4308 0.64035,-1.97753 2.25,-1.92105 1.2375,0.0434 1.6875,0.30592 1,0.58333 -0.6875,0.27741 -1.25,1.14189 -1.25,1.92105 0,0.77917 -0.45,1.41667 -1,1.41667 -0.55,0 -1,-0.9 -1,-2 z m -90.999996,-0.071 c -5.225,-0.42333 -15.575,-1.055 -23,-1.40371 -27.345011,-1.28425 -28,-1.41592 -28,-5.62865 0,-3.88481 5.749385,-3.77055 29.5,0.58627 7.7,1.41249 18.725,3.2336 24.5,4.04691 5.775,0.81332 12.75,1.8739 15.5,2.35686 l 5,0.87811 -7,-0.0331 c -3.85,-0.0182 -11.275,-0.37939 -16.5,-0.80272 z m 141.999996,-4.01344 c 3.575,-1.13124 8.3,-2.50236 10.5,-3.04694 2.2,-0.54457 6.25,-1.6235 9,-2.39761 2.75,-0.77411 6.575,-1.68155 8.5,-2.01654 3.48525,-0.60651 12.41996,-3.1563 29.45003,-8.40445 4.92252,-1.51697 9.72889,-2.55445 10.68083,-2.30552 1.97596,0.51673 3.32081,3.22398 2.15192,4.33196 -1.80055,1.70672 -20.69764,6.3076 -30.77496,7.49278 -2.71824,0.31968 -5.19897,0.73991 -5.51275,0.93384 -0.50831,0.31415 -29.87342,5.79311 -37.49507,6.99585 -1.65,0.26038 -0.075,-0.45214 3.5,-1.58337 z m -61.26764,-1.00006 c 0.41445,-1.58486 0.74789,-1.76464 1.39106,-0.75 0.78758,1.24244 1.30745,0.42833 0.96375,-1.50922 -0.0823,-0.46406 0.34814,-0.67781 0.95658,-0.475 0.60844,0.20281 1.0725,0.695 1.03125,1.09375 -0.0412,0.39875 -0.075,1.4 -0.075,2.225 0,0.91777 -0.93404,1.5 -2.40638,1.5 -1.94658,0 -2.30222,-0.3983 -1.86126,-2.08453 z M 50.148584,190.938 C 30.90849,187.40297 10.475791,183.39108 -1.035432,180.88818 -5.81164,179.84968 -10.501207,179 -11.456691,179 c -2.403936,0 -5.373962,-2.89053 -4.720297,-4.59396 0.766648,-1.99785 8.238802,-1.77543 17.325572,0.51574 20.984017,5.29096 59.148574,15.89346 59.894376,16.63926 0.674875,0.67488 -5.866074,0.30079 -10.894376,-0.62307 z m 41,-2.93797 c 0,-0.55 0.45,-1 1,-1 0.55,0 1,0.45 1,1 0,0.55 -0.45,1 -1,1 -0.55,0 -1,-0.45 -1,-1 z m 3.20616,-0.72627 c 0.1639,-0.96288 -0.36949,-1.77997 -1.20616,-1.84769 -3.53414,-0.28606 -3.90752,-0.50345 -3.35183,-1.95156 0.48174,-1.25541 0.86347,-1.29968 2.15584,-0.25 1.3332,1.08283 1.47137,1.01115 0.91461,-0.47448 -1.00533,-2.68252 2.16717,-2.19447 3.25022,0.5 0.83771,2.08412 0.91424,2.10255 1.03806,0.25 l 0.13367,-2 0.79556,2 c 0.43756,1.1 0.40593,2.15 -0.0703,2.33333 -0.47622,0.18334 -0.86585,0.97084 -0.86585,1.75 0,0.77917 -0.69473,1.41667 -1.54384,1.41667 -0.90904,0 -1.42301,-0.7098 -1.25,-1.72627 z m 76.793836,0.29882 c 1.925,-0.73681 7.775,-2.92757 13,-4.86835 5.225,-1.94078 12.65,-4.72551 16.5,-6.18829 3.85,-1.46279 8.41446,-3.08517 10.14325,-3.60529 1.72878,-0.52012 8.47878,-3.02733 15,-5.57157 12.95213,-5.05325 17.603,-5.86131 18.14291,-3.15218 0.5213,2.61578 -3.27182,4.44337 -16.28616,7.84694 -6.6,1.72606 -16.05,4.50409 -21,6.1734 -4.95,1.6693 -10.35,3.39651 -12,3.83824 -1.65,0.44173 -7.67061,2.18721 -13.37913,3.87885 -10.53082,3.12065 -16.51294,4.09488 -10.12087,1.64825 z m -40.00802,-2.08222 C 130.28243,184.45635 130.24739,184 131.02614,184 c 0.61734,0 1.12933,0.5625 1.13775,1.25 0.0103,0.845 0.31725,0.77255 0.94722,-0.22361 1.02785,-1.62533 -0.67735,-3.32068 -2.31929,-2.3059 -0.52374,0.32369 -0.63117,0.069 -0.23873,-0.56598 0.39244,-0.63498 1.38852,-1.15451 2.21352,-1.15451 0.825,0 1.22189,-0.45 0.88197,-1 -0.33992,-0.55 -0.14148,-1 0.44098,-1 0.58246,0 1.05902,1.125 1.05902,2.5 0,2.90233 0.78743,3.17297 2.48343,0.85355 1.07278,-1.46712 1.18685,-1.41488 1.04728,0.47963 -0.18977,2.57591 -0.34014,2.72013 -3.66629,3.51648 -1.74832,0.41858 -3.05196,0.12929 -3.87244,-0.85933 z m 22.36965,0.01 c -0.31659,-0.825 -1.00402,-1.5 -1.52764,-1.5 -0.52361,0 -0.63094,0.51953 -0.2385,1.15451 0.44563,0.72104 0.27393,0.88282 -0.45729,0.4309 -0.64395,-0.39798 -0.93568,-1.10408 -0.64828,-1.5691 0.2874,-0.46502 0.18224,-1.03517 -0.23369,-1.267 -0.41593,-0.23184 -0.1395,-0.26358 0.61429,-0.0705 0.93813,0.24024 1.20429,-0.2847 0.84362,-1.6639 -0.35117,-1.34288 -0.0382,-2.01486 0.9385,-2.01486 0.80597,0 1.18728,0.45 0.84736,1 -0.33992,0.55 -0.17898,1 0.35765,1 0.53663,0 1.20266,-0.5625 1.48007,-1.25 0.30132,-0.74674 0.53617,-0.54544 0.58333,0.5 0.0895,1.9845 1.70583,2.36937 2.3121,0.55056 0.25007,-0.75023 0.64404,-0.56297 1.05194,0.5 0.4776,1.24459 0.12524,1.69944 -1.31647,1.69944 -1.08274,0 -1.91533,0.3375 -1.8502,0.75 0.50347,3.18867 -1.67425,4.57107 -2.75679,1.75 z M 45.148584,181.88722 c -5.225,-1.60752 -13.775,-4.24369 -19,-5.85816 -5.225,-1.61446 -12.425,-3.64006 -16,-4.50132 -18.567392,-4.47309 -24.365607,-7.17736 -21.86061,-10.1957 C -11.104001,160.59942 -9.839398,160 -8.901795,160 c 2.258122,0 20.285348,5.95549 21.500379,7.10288 0.5225,0.49342 1.698108,0.89712 2.612462,0.89712 1.514273,0 10.422135,3.41339 19.029913,7.29204 1.874194,0.84451 5.207625,2.09582 7.407625,2.7807 5.438849,1.69316 16.361804,6.78412 14.5,6.75815 -0.825,-0.0115 -5.775,-1.33616 -11,-2.94367 z m 125.999996,-0.21653 c 0,-0.38407 5.40811,-3.08246 32,-15.96647 29.17142,-14.13382 33.86049,-16.06489 35.568,-14.64778 3.69264,3.06461 -0.06,5.68548 -17.568,12.26967 -9.39567,3.5334 -13.34215,5.10404 -30.09801,11.97858 -9.89548,4.05988 -19.90199,7.26064 -19.90199,6.366 z m -93.726296,-1.50154 c -0.74804,-0.46231 -0.0397,-1.22716 1.95374,-2.10953 2.98664,-1.32202 3.02936,-1.42048 0.94991,-2.18972 -2.98938,-1.10584 -2.7399,-1.43275 1.17297,-1.53702 3.06941,-0.0818 3.34191,0.15283 3.25,2.79834 -0.0949,2.73242 -2.86375,4.93868 -4.34235,3.46009 -0.32522,-0.32522 0.1587,-0.59131 1.07536,-0.59131 0.91667,0 1.66667,-0.43588 1.66667,-0.96862 0,-1.03973 -3.15387,-0.18367 -4.02639,1.09289 -0.28952,0.42359 -1.05448,0.44378 -1.69991,0.0449 z m 29.111266,-3.15368 c 0.0222,-3.79245 0.12378,-3.92161 2.06916,-2.62993 2.60729,1.73117 2.59942,3.50297 -0.0233,5.24439 -1.97686,1.31258 -2.06812,1.19595 -2.04587,-2.61446 z M 103.77093,179 c -0.71495,-1.85551 -0.29869,-4.68264 0.84236,-5.72106 0.47077,-0.42842 0.55599,-0.25487 0.18938,0.38565 -0.3666,0.64052 -0.18961,1.32357 0.39332,1.51788 0.71272,0.23757 0.74757,1.16629 0.10639,2.83541 -0.71359,1.85763 -1.0989,2.10473 -1.53145,0.98212 z m 16.12765,-0.0801 C 117.77665,177.68399 117.60381,176 119.59889,176 c 0.79767,0 1.93387,-0.7875 2.5249,-1.75 0.98198,-1.59918 1.05089,-1.57764 0.79969,0.25 -0.18841,1.37077 0.26729,1.9577 1.44844,1.86555 1.38781,-0.10826 1.52698,0.23246 0.71482,1.75 -1.12307,2.09848 -2.57879,2.32417 -5.18816,0.80435 z m -84.249996,-9.0427 c -11,-4.41659 -24.438851,-9.55826 -29.864112,-11.42594 -10.787257,-3.71358 -12.635888,-4.80596 -12.635888,-7.46672 0,-4.7309 6.530792,-2.44005 39.27487,13.77671 18.885045,9.35296 26.075262,13.26747 24.22513,13.18869 -0.55,-0.0234 -10,-3.65615 -21,-8.07274 z m 24,2.68471 c -13.517819,-5.98756 -60.150877,-29.75815 -61.217967,-31.20506 -2.990066,-4.05436 2.519593,-4.50454 9.82471,-0.80276 2.772141,1.40475 12.544681,6.86646 21.716756,12.13714 9.172076,5.27067 18.251501,10.47402 20.176501,11.56299 1.925,1.08897 4.705901,2.8354 6.17978,3.88096 1.473879,1.04555 4.623879,3.01244 7,4.37087 5.302781,3.03159 3.11342,3.06482 -3.67978,0.0559 z m 113.999996,-0.11157 c 1.1,-0.85872 10.775,-6.77497 21.5,-13.14722 10.725,-6.37224 20.175,-12.1611 21,-12.86412 3.00011,-2.55654 14.24185,-8.439 16.12745,-8.439 2.77918,0 3.49482,2.83331 1.2615,4.9944 -1.77818,1.72065 -15.60751,8.90611 -44.38895,23.06364 -6.875,3.3818 -13.625,6.55483 -15,7.05117 -2.41289,0.87101 -2.43031,0.84805 -0.5,-0.65887 z m -33.04094,-3.17482 c -0.42597,-0.97653 -0.67343,-2.38318 -0.5499,-3.12587 0.12353,-0.7427 -0.25034,-1.05682 -0.83082,-0.69806 -0.64329,0.39757 -0.82119,0.0419 -0.45557,-0.91094 0.42983,-1.12011 1.5926,-1.45382 4.10206,-1.17728 3.65851,0.40316 5.23402,1.88706 5.25986,4.95402 0.0116,1.3787 -0.47904,1.66048 -2.03268,1.16738 -1.12639,-0.3575 -2.64884,-0.15134 -3.38321,0.45813 -1.01473,0.84215 -1.52114,0.68195 -2.10974,-0.66738 z M 89.510214,167.5 c -0.92189,-2.40238 0.35185,-4.54718 2.26456,-3.8132 1.10276,0.42316 1.46238,0.26553 1.02154,-0.44776 -1.07193,-1.73442 0.9874,-2.3836 2.35063,-0.74102 1.34324,1.61851 0.57909,6.50198 -1.01741,6.50198 -0.53952,0 -0.98095,-0.45 -0.98095,-1 0,-0.55 -0.7875,-0.99311 -1.75,-0.98469 -1.49555,0.0131 -1.5319,0.15626 -0.25,0.98469 1.04886,0.67782 1.11461,0.97398 0.21862,0.98469 -0.70477,0.008 -1.54041,-0.65969 -1.85699,-1.48469 z M 36.148584,150.44783 C 21.023584,141.37437 7.536733,132.83966 6.177805,131.48181 3.890182,129.196 3.828311,128.8917 5.343169,127.37684 c 1.037805,-1.0378 2.489921,-1.42045 3.970779,-1.04633 2.911534,0.73555 29.2875,20.04894 53.791093,39.38769 3.851223,3.03946 -1.28547,0.12961 -26.956457,-15.27037 z m 89.249996,14.81538 c -0.6875,-0.23643 -1.25,-0.86893 -1.25,-1.40556 0,-0.53663 0.48322,-0.67704 1.07382,-0.31202 0.59061,0.36501 0.47811,-0.29858 -0.25,-1.47464 -1.0349,-1.67162 -1.39438,-1.80358 -1.64714,-0.60464 -0.59731,2.83326 -2.21101,1.56727 -1.97361,-1.54835 0.30463,-3.99787 2.76136,-5.33665 6.36359,-3.4678 1.89845,0.98493 2.84772,2.35429 3.07571,4.43681 0.35246,3.21952 -1.3492,5.20538 -2.6529,3.09596 -0.6102,-0.98733 -0.8658,-0.93828 -1.13819,0.21842 -0.19321,0.82043 -0.91378,1.29825 -1.60128,1.06182 z m 53.36664,-2.92811 c 1.71415,-1.55931 5.98915,-5.08014 9.5,-7.82408 6.97073,-5.44804 23.60723,-19.37127 28.38336,-23.75428 5.02775,-4.61393 11.5,-5.90084 11.5,-2.28662 0,2.24676 -13.71378,12.34357 -36.5,26.87322 -15.60443,9.95018 -16.92107,10.66472 -12.88336,6.99176 z m -72.92209,0.55377 c -1.35369,-0.7875 -1.53258,-1.37911 -0.71491,-2.36433 0.59979,-0.72271 0.96224,-1.86764 0.80545,-2.54428 -0.1568,-0.67664 0.38991,-1.43327 1.21491,-1.68139 1.33333,-0.40101 1.33333,-0.33326 0,0.60969 -1.29439,0.9154 -1.26012,1.06291 0.25,1.07613 0.9625,0.008 1.75,-0.48979 1.75,-1.10713 0,-0.77551 0.46364,-0.73766 1.5,0.12244 2.12636,1.76472 1.86829,2.87507 -0.96864,4.16767 -1.35776,0.61863 -2.2312,1.50898 -1.94099,1.97856 0.67187,1.0871 0.33715,1.04166 -1.89582,-0.25736 z M 47.148584,147.38494 c -11.275,-8.55715 -23.556032,-17.88191 -27.291182,-20.72169 -6.59284,-5.01245 -9.014934,-8.75713 -6.980247,-10.79182 2.150997,-2.151 6.936846,0.90958 20.547491,13.14024 13.067462,11.74255 35.841126,34.02666 34.706071,33.96002 -0.265173,-0.0156 -9.707133,-7.02961 -20.982133,-15.58675 z m 132.618756,2.936 c 18.4704,-18.0165 31.8641,-30.12819 34.7929,-31.46264 3.76662,-1.71619 5.48344,0.12666 3.26799,3.50787 -1.73517,2.6482 -2.4495,3.25831 -22.09382,18.87043 -29.90866,23.76958 -32.58104,25.29001 -15.96707,9.08434 z m -18.61876,8.13587 c 0.825,-1.02763 3.79986,-4.36331 6.6108,-7.41262 2.81094,-3.0493 8.60263,-9.59419 12.87042,-14.54419 23.63147,-27.409 24.70086,-28.5 27.93541,-28.5 3.85592,0 3.23693,2.36922 -2.16663,8.29284 -2.6125,2.86394 -5.03501,5.43216 -5.38335,5.70716 -0.34835,0.275 -9.2737,8.825 -19.83412,19 -17.26686,16.63667 -24.28144,22.74935 -20.03253,17.45681 z m -96.97827,-8.22723 c -3.56305,-3.15127 -10.98805,-10.05134 -16.5,-15.33349 -5.511949,-5.28215 -12.046726,-11.34098 -14.521726,-13.46406 -11.693418,-10.03074 -14.792864,-15.46406 -9.269308,-16.24905 1.650084,-0.23451 3.602198,1.18608 7.5,5.45787 2.89812,3.1762 8.698364,9.39386 12.889432,13.81702 11.32635,11.95361 27.969067,31.6033 26.69797,31.52171 -0.174952,-0.0112 -3.233317,-2.59873 -6.796368,-5.75 z m 99.43961,-5.62716 c 3.68524,-4.89368 11.80545,-16.59618 18.04491,-26.00557 6.23946,-9.4094 12.48017,-18.17491 13.86823,-19.478933 2.69748,-2.534143 5.62552,-2.301833 5.62552,0.446328 0,1.567145 -3.05726,6.517505 -5.71709,9.257185 -0.7056,0.72678 -1.28291,1.70714 -1.28291,2.17857 0,0.47143 -0.57248,1.45179 -1.27217,2.17857 -0.69969,0.72679 -6.04345,6.94643 -11.87501,13.82143 -5.83157,6.875 -12.26715,14.3 -14.30129,16.5 -2.03415,2.2 -4.00289,4.45 -4.37499,5 -0.3721,0.55 -1.74284,1.9 -3.04609,3 -1.30325,1.1 0.64565,-2.00391 4.33089,-6.89758 z M 68.00453,143.75 C 56.088805,130.38602 52.073301,125.97893 44.099711,117.51402 32.558415,105.26157 30.148584,102.14393 30.148584,99.465204 30.148584,97.517831 30.661619,97 32.590954,97 c 2.354093,0 9.000791,6.59382 13.407993,13.30132 1.391797,2.11823 12.043476,16.39188 22.162584,29.69868 3.296472,4.33492 8.154563,12 7.605543,12 -0.22363,0 -3.716773,-3.7125 -7.762544,-8.25 z m 94.38293,-12.10569 c 5.09361,-8.62719 12.18612,-20.90393 15.76112,-27.28164 3.575,-6.37771 7.33916,-12.184428 8.3648,-12.903815 2.20559,-1.547008 4.6352,-0.873296 4.6352,1.285305 0,1.453224 -5.4528,10.0497 -11.89694,18.75584 -1.6284,2.2 -7.2545,10.33076 -12.50244,18.06835 -13.35427,19.68963 -15.31095,20.62091 -4.36174,2.07596 z M 74.874958,141.71349 C 69.623373,133.73567 63.616497,125.46289 52.573852,111 39.375633,93.713892 39.859673,94.485638 40.651424,91.991051 41.598173,89.008109 44.73949,89.588016 47.471071,93.25 c 4.013544,5.380598 25.744161,41.27797 30.570373,50.5 2.01531,3.85089 -0.25004,2.39394 -3.166486,-2.03651 z M 140.54731,144.5 c 0.25682,-1.1 2.11417,-6.275 4.12744,-11.5 2.01327,-5.225 6.92357,-19.04465 10.91179,-30.71033 C 162.82664,81.112124 164.24898,78 166.68769,78 c 3.52304,0 2.04551,6.671294 -4.58181,20.687646 -2.75759,5.832124 -7.34713,16.050764 -10.19899,22.708104 -5.62287,13.12596 -12.11077,26.32169 -11.35958,23.10425 z M 77.689094,133.21314 C 73.912489,126.77091 69.387026,119.25 67.632506,116.5 61.934666,107.56931 52.295761,91.039075 51.710137,89.193935 c -0.314013,-0.989366 0.06553,-2.669269 0.843439,-3.733116 1.397944,-1.911803 1.439173,-1.911822 3.549827,-0.0017 1.827822,1.654156 15.612488,28.481171 21.859011,42.540891 6.12532,13.78692 7.184,16.3355 6.90265,16.61685 -0.17018,0.17019 -3.39937,-4.96149 -7.17597,-11.40371 z M 135.73885,142 c 0.31992,-1.925 1.4942,-7.1 2.60952,-11.5 1.11532,-4.4 2.37806,-9.8 2.80608,-12 1.86906,-9.60688 9.27897,-36.258057 10.82096,-38.919722 2.25451,-3.891538 3.90132,-4.271032 5.29172,-1.219435 0.94867,2.082109 0.69696,3.869891 -1.45419,10.32855 -12.39854,37.225517 -15.26536,45.404617 -17.77827,50.721887 -2.40163,5.0818 -2.7813,5.50991 -2.29582,2.58872 z m -7.0659,-2 c 3.23617,-20.83718 6.81786,-45.640093 7.9083,-54.76432 1.41614,-11.849443 2.55542,-14.523206 5.97982,-14.033937 3.28278,0.469034 3.10872,5.261992 -0.76539,21.076669 -1.91613,7.821878 -5.12155,21.196588 -7.12317,29.721588 -2.00162,8.525 -4.29267,16.85 -5.09122,18.5 l -1.45191,3 z M 88.640694,137.28576 C 87.667354,135.20359 81.533444,122.74992 75.009787,109.61094 63.262096,85.9505 61.223381,79.983154 64.898584,80.015313 c 0.9625,0.0084 2.316485,0.374943 3.008856,0.81449 1.436687,0.912072 15.487364,35.401017 20.266624,49.746667 3.30309,9.91474 3.53697,13.27735 0.46663,6.70929 z M 108.73214,137.75 c -0.25,-1.2375 -1.19384,-9 -2.09742,-17.25 -1.70888,-15.60261 -3.34784,-29.204795 -4.03649,-33.5 -2.18875,-13.651413 -1.57262,-18 2.55035,-18 3.84448,0 4.07263,1.840865 4.57374,36.90456 0.44771,31.32765 0.24197,37.94459 -0.99018,31.84544 z m 6.49539,-0.33333 c 0.048,-1.16495 0.28494,-1.4019 0.60416,-0.60417 0.28887,0.72187 0.25335,1.58437 -0.0789,1.91667 -0.3323,0.33229 -0.56864,-0.25834 -0.52522,-1.3125 z m 7.57805,-4.26195 c 0.0863,-3.1101 0.445,-10.13618 0.797,-15.61352 0.352,-5.47735 1.02867,-17.40235 1.50371,-26.500005 C 125.98811,74.152953 127.01563,69 129.50138,69 c 2.92961,0 3.90272,2.819965 3.36387,9.748141 -0.6847,8.803357 -4.57142,38.317759 -5.30074,40.251859 -0.31109,0.825 -0.77516,3.525 -1.03127,6 -0.548,5.29569 -2.39811,12.89019 -3.27183,13.43048 -0.33706,0.20843 -0.54218,-2.16567 -0.45583,-5.27576 z M 96.168634,134.75 c -0.51539,-1.2375 -3.6029,-9.45 -6.86112,-18.25 -3.25823,-8.8 -8.0019,-20.857621 -10.54149,-26.794713 -5.109908,-11.946013 -5.224826,-12.492377 -3.20776,-15.250882 1.39,-1.90094 1.44079,-1.900118 3.63802,0.05887 3.50507,3.125031 6.59037,12.023748 11.957,34.486725 0.9855,4.125 2.29047,8.85 2.89994,10.5 1.28756,3.48583 4.05656,17.5 3.45775,17.5 -0.2229,0 -0.82695,-1.0125 -1.34234,-2.25 z m 6.554946,0.14313 C 102.1174,133.10429 99.564164,122.34919 97.763584,114 c -0.77098,-3.575 -3.24976,-13.57955 -5.50839,-22.232334 -2.25864,-8.652784 -4.0923,-16.752784 -4.07481,-18 0.0433,-3.087643 2.36536,-5.936227 4.24959,-5.213182 2.95375,1.13346 3.23448,2.546536 8.333336,41.945516 2.49984,19.3163 3.11916,24.99042 2.77162,25.39313 -0.1866,0.21622 -0.55171,-0.23378 -0.81135,-1 z m 49.425,0.62709 c 0,-0.6664 6.48959,-15.6162 8.47357,-19.52022 0.69876,-1.375 3.43771,-7.675 6.08656,-14 5.94918,-14.205642 7.77642,-17 11.11637,-17 2.26351,0 2.46888,0.299651 1.88474,2.75 -0.36056,1.5125 -1.53435,3.969278 -2.6084,5.459507 -1.07406,1.49023 -1.95284,2.897966 -1.95284,3.128304 0,0.424939 -6.92537,13.036529 -12.16986,22.162189 -1.58042,2.75 -4.20367,7.55472 -5.82944,10.67715 -2.61764,5.02742 -5.0007,8.05017 -5.0007,6.34307 z m -36.18184,-3.06444 c -0.37501,-0.57433 -0.68467,-14.74933 -0.68813,-31.5 -0.005,-25.551698 0.23572,-30.777826 1.49668,-32.45578 1.49086,-1.983885 1.51856,-1.980978 3.43813,0.360784 2.36386,2.883775 2.36627,1.550461 -0.0445,24.639216 -1.09112,10.45 -2.32956,23.725 -2.7521,29.5 -0.42254,5.775 -1.07508,10.0301 -1.45009,9.45578 z"
       id="path155"
       inkscape:connector-curvature="0" />
    <path
       style="fill:#00ffff"
       d="m 106.44824,327 c 0,-3.025 0.18747,-4.2625 0.41659,-2.75 0.22913,1.5125 0.22913,3.9875 0,5.5 -0.22912,1.5125 -0.41659,0.275 -0.41659,-2.75 z m 5.85823,-6 c 0,-1.375 0.22698,-1.9375 0.50439,-1.25 0.27741,0.6875 0.27741,1.8125 0,2.5 -0.27741,0.6875 -0.50439,0.125 -0.50439,-1.25 z m 13.92106,-23.58333 c 0.048,-1.16495 0.28494,-1.4019 0.60416,-0.60417 0.28887,0.72187 0.25335,1.58438 -0.0789,1.91667 -0.3323,0.33229 -0.56864,-0.25834 -0.52522,-1.3125 z m -6,-12 c 0.048,-1.16495 0.28494,-1.4019 0.60416,-0.60417 0.28887,0.72187 0.25335,1.58438 -0.0789,1.91667 -0.3323,0.33229 -0.56864,-0.25834 -0.52522,-1.3125 z M 120.30647,277 c 0,-1.375 0.22698,-1.9375 0.50439,-1.25 0.27741,0.6875 0.27741,1.8125 0,2.5 -0.27741,0.6875 -0.50439,0.125 -0.50439,-1.25 z m -11.07894,-11.58333 c 0.048,-1.16495 0.28494,-1.4019 0.60416,-0.60417 0.28887,0.72187 0.25335,1.58438 -0.0789,1.91667 -0.3323,0.33229 -0.56864,-0.25834 -0.52522,-1.3125 z m -1.53592,-21.16512 c -1.50942,-3.93349 2.04138,-7.696 6.22939,-6.60081 2.6315,0.68815 2.7964,1.63758 0.65615,3.77783 -1.3539,1.35391 -1.36544,1.57143 -0.0833,1.57143 0.81845,0 1.68899,-0.5625 1.93452,-1.25 0.24554,-0.6875 0.79716,-0.92337 1.22584,-0.52417 1.02637,0.95583 -1.45883,3.92111 -2.66271,3.17707 -0.51178,-0.31629 -1.47329,-0.14768 -2.13669,0.3747 -1.7627,1.38798 -4.53716,1.1053 -5.16317,-0.52605 z m 19.45697,-0.31057 c 0,-0.58246 -0.38775,-0.81937 -0.86166,-0.52648 -0.47392,0.2929 -0.81142,-0.69241 -0.75,-2.18957 0.14408,-3.51245 3.23856,-6.77947 5.02058,-5.30052 0.7013,0.58203 1.47689,0.85645 1.72352,0.60982 0.24663,-0.24663 0.49686,0.54477 0.55607,1.75868 0.0592,1.2139 -0.10899,1.64459 -0.37376,0.95709 -0.71483,-1.85607 -2.31245,-1.51324 -2.33006,0.5 -0.0132,1.50934 -0.16047,1.54372 -1.07086,0.25 -0.8095,-1.15037 -0.96285,-0.74246 -0.65788,1.75 0.21872,1.7875 0.0256,3.25 -0.42914,3.25 -0.45475,0 -0.82681,-0.47656 -0.82681,-1.05902 z m 4.07895,-1.52431 c 0.048,-1.16495 0.28494,-1.4019 0.60416,-0.60417 0.28887,0.72187 0.25335,1.58437 -0.0789,1.91667 -0.3323,0.33229 -0.56864,-0.25834 -0.52522,-1.3125 z m -40.004356,-2.7773 c -1.54356,-2.88417 -0.53682,-7.03072 1.51575,-6.24308 0.77531,0.29752 1.40966,0.10506 1.40966,-0.42767 0,-0.53274 0.62686,-0.96862 1.39301,-0.96862 1.91513,0 2.97046,3.15246 1.39086,4.15474 -0.70613,0.44805 -0.98317,0.82153 -0.61566,0.82995 0.36752,0.008 1.32261,0.26642 2.12242,0.57334 1.11883,0.42934 1.33488,-0.0662 0.9368,-2.14862 -0.35836,-1.87466 -0.16545,-2.48914 0.627576,-1.99902 1.73234,1.07065 1.3713,4.35841 -0.605006,5.50951 -0.9625,0.56061 -1.3,1.03986 -0.75,1.065 0.55,0.0251 0.325,0.48194 -0.5,1.0151 -0.825,0.53316 -2.175,0.94464 -3,0.9144 -0.98906,-0.0362 -0.81874,-0.34772 0.5,-0.9144 1.41751,-0.60912 1.54857,-0.8799 0.45,-0.92971 -0.8525,-0.0387 -2.00909,0.3888 -2.57021,0.94992 -0.6936,0.6936 -1.43157,0.25156 -2.3052,-1.38084 z M 140.14858,234 c -1.84101,-1.5967 -1.97269,-2 -0.65301,-2 1.00838,0 1.65301,-0.81244 1.65301,-2.08333 0,-2.78869 2.40318,-1.92153 2.8341,1.02265 0.23612,1.61328 -0.03,2.05763 -0.90753,1.5153 -0.89336,-0.55213 -1.08345,-0.16254 -0.67771,1.38901 0.69047,2.64038 0.62081,2.64522 -2.24886,0.15637 z m 5.5,-4 c -0.33992,-0.55 -0.14148,-1 0.44098,-1 0.58246,0 1.05902,0.45 1.05902,1 0,0.55 -0.19844,1 -0.44098,1 -0.24254,0 -0.7191,-0.45 -1.05902,-1 z m -64.499996,-1 c 0,-0.55 -0.7875,-1.01431 -1.75,-1.0318 -1.58346,-0.0288 -1.56527,-0.17153 0.19113,-1.5 1.39184,-1.05274 1.53333,-1.47253 0.5,-1.48351 -1.19501,-0.0127 -1.20833,-0.16281 -0.078,-0.87895 1.15087,-0.72914 1.15087,-0.94806 0,-1.40574 -0.98586,-0.39206 -0.90143,-0.56396 0.30506,-0.62105 0.91752,-0.0434 2.45814,-0.38207 3.42361,-0.75256 1.34355,-0.51557 1.6076,-0.28846 1.12546,0.96798 -0.34646,0.90287 -0.19959,1.90755 0.32639,2.23262 1.64477,1.01652 1.14959,4.76115 -0.54367,4.11138 -0.825,-0.31658 -1.5,-0.13972 -1.5,0.39301 0,0.53274 -0.45,0.96862 -1,0.96862 -0.55,0 -1,-0.45 -1,-1 z m 25.441126,-0.57416 c -1.06762,-0.86578 -1.37863,-1.28923 -0.69113,-0.94098 0.6875,0.34825 1.25,0.15662 1.25,-0.42584 0,-2.06128 0.28959,-2.57356 2.21869,-3.92475 1.46796,-1.0282 2.23369,-1.08189 3.09833,-0.21725 0.86465,0.86465 0.59668,1.29279 -1.08427,1.73236 -1.22801,0.32114 -2.23275,1.00796 -2.23275,1.52627 0,0.51831 0.41157,0.68802 0.91459,0.37714 0.50302,-0.31089 1.1425,5e-5 1.42105,0.69098 0.40248,0.99831 0.52267,0.99959 0.58541,0.006 0.0867,-1.37214 2.07895,-1.76554 2.07895,-0.41052 0,0.66549 -4.22817,3.16052 -5.35592,3.16052 -0.144,0 -1.13533,-0.70837 -2.20295,-1.57416 z m 16.22227,-4.11261 c -0.83249,-5.13007 0.65487,-6.71713 4.45398,-4.75253 2.60291,1.34602 2.78882,1.74606 1.73043,3.72366 -0.65217,1.2186 -1.10973,2.32814 -1.01679,2.46564 0.96399,1.42619 -0.1891,1.14255 -1.24926,-0.3073 -0.78003,-1.06675 -1.75503,-1.60276 -2.16667,-1.19113 -0.41163,0.41164 -0.22342,0.74843 0.41824,0.74843 0.64167,0 1.16667,0.675 1.16667,1.5 0,3.18506 -2.75822,1.37735 -3.3366,-2.18677 z m -18.6634,-0.25421 c 0,-0.51754 0.45,-1.2191 1,-1.55902 0.55,-0.33992 1,0.0835 1,0.94098 0,0.85746 -0.45,1.55902 -1,1.55902 -0.55,0 -1,-0.42344 -1,-0.94098 z m 48.24702,-3.30009 C 152.77537,219.61964 150.96182,217 149.79333,217 c -0.27395,0 -0.7039,0.7875 -0.95542,1.75 -0.29672,1.13541 -0.49807,0.83292 -0.57333,-0.86133 -0.1007,-2.26681 0.21383,-2.54827 2.384,-2.13342 1.375,0.26285 2.5,0.902 2.5,1.42034 0,0.51835 0.45734,0.65979 1.01631,0.31433 0.55897,-0.34546 0.78335,-1.00506 0.49862,-1.46576 -0.28473,-0.4607 0.49543,-0.56031 1.73369,-0.22134 1.83002,0.50095 1.92385,0.68438 0.50138,0.98006 -2.03421,0.42285 -2.30812,1.82399 -0.5,2.55766 0.94068,0.38169 0.87881,0.76971 -0.25,1.56802 -2.05232,1.45142 -4.25736,1.36351 -3.75298,-0.14963 z m -60.023566,-3.18818 c 0.11058,-1.33609 0.61179,-2.34859 1.1138,-2.25 0.50201,0.0986 1.13988,-0.44589 1.41748,-1.20995 0.33855,-0.93179 0.0819,-1.12786 -0.77951,-0.59549 -0.82395,0.50924 -1.03818,0.39557 -0.5977,-0.31713 0.37759,-0.61096 1.34453,-0.85833 2.14876,-0.54972 0.80423,0.30861 1.21326,0.96396 0.90896,1.45632 -0.3043,0.49237 -0.11422,0.89522 0.42241,0.89522 0.53663,0 1.20266,-0.5625 1.48007,-1.25 0.36845,-0.91313 0.52566,-0.87546 0.58333,0.13976 0.0434,0.76436 0.8227,1.9336 1.731726,2.59829 2.58888,1.89304 0.65253,3.51195 -4.200596,3.51195 -4.0792,0 -4.41387,-0.19225 -4.22873,-2.42925 z m 7.776546,0.59592 c 0,-0.45834 -0.674996,-0.83334 -1.499996,-0.83334 -0.825,0 -1.5,0.375 -1.5,0.83334 0,0.45833 0.675,0.83333 1.5,0.83333 0.825,0 1.499996,-0.375 1.499996,-0.83333 z M 72.781078,213.8857 c -1.112329,-1.58807 -1.218917,-2.77364 -0.448146,-4.98468 C 72.889148,207.30546 73.750213,206 74.246409,206 c 1.284085,0 1.115605,1.38499 -0.347825,2.85925 -1.002248,1.00966 -0.903147,1.12719 0.5,0.59301 0.9625,-0.36643 1.75,-1.06809 1.75,-1.55925 0,-1.4369 2.73516,-1.02555 3.32032,0.49936 0.79338,2.0675 0.28924,4.15282 -1.38214,5.71707 -2.26839,2.12299 -3.704387,2.06243 -5.305686,-0.22374 z m 62.794562,1.34899 c -1.56769,-1.07347 -2.35347,-3.73573 -1.50691,-5.1055 0.55558,-0.89894 1.4377,-0.82493 3.61182,0.30302 3.01627,1.56486 4.11943,1.4308 3.00915,-0.36568 C 140.32716,209.47994 139.18366,209 138.14858,209 c -2.69703,0 -3.35874,-1.67292 -0.91454,-2.3121 1.27561,-0.33358 2.79796,0.19552 3.98875,1.38631 2.34334,2.34334 2.65527,6.4197 0.42579,5.56416 -0.91371,-0.35062 -1.5,-0.002 -1.5,0.89301 0,1.53962 -2.73687,1.96054 -4.57294,0.70331 z m -21.42706,-3.79147 c 0,-1.9209 0.46002,-2.25773 2.75,-2.01358 2.50373,0.26694 2.85775,0.77516 2.4,3.44536 -0.0825,0.48125 -1.275,0.875 -2.65,0.875 -1.94416,0 -2.5,-0.51288 -2.5,-2.30678 z m -7,-2.29058 c 0,-0.53097 -0.9,-0.73005 -2,-0.44239 -1.5348,0.40136 -2,0.0307 -2,-1.59362 0,-1.16415 0.47656,-2.11663 1.05902,-2.11663 0.58246,0 0.7809,0.45 0.44098,1 -0.33992,0.55 -0.18962,1 0.33399,1 0.52362,0 1.23577,-0.73941 1.58256,-1.64313 0.34679,-0.90372 0.93153,-1.34212 1.29942,-0.97423 1.13416,1.13416 1.31059,4.48291 0.27007,5.12599 -0.54232,0.33517 -0.98604,0.17498 -0.98604,-0.35599 z m 19,-3.36931 c 0,-0.88916 -0.5625,-1.84364 -1.25,-2.12105 -0.96135,-0.38791 -0.94772,-0.52262 0.059,-0.58333 0.71996,-0.0434 1.08863,-0.43554 0.81928,-0.87136 -0.26936,-0.43583 0.3474,-0.85548 1.37057,-0.93255 1.38249,-0.10414 1.75599,0.4016 1.45413,1.969 -0.53307,2.76802 -2.453,4.75549 -2.453,2.53929 z m -38.249996,-1.54832 c -2.46984,-0.53865 -2.24135,-5.07427 0.36971,-7.33883 1.5673,-1.35932 2.59207,-1.58562 3.93227,-0.86836 2.31851,1.24083 3.55427,4.97946 1.96962,5.95883 -0.65583,0.40533 -1.14822,1.13665 -1.09421,1.62515 0.10527,0.95196 -2.32733,1.24478 -5.17739,0.62321 z M 158.26458,203.25 c -0.0638,-1.2375 -0.55017,-2.25 -1.08082,-2.25 -0.53065,0 -1.46471,-0.93406 -2.07569,-2.07569 -1.02251,-1.91058 -0.94127,-1.98493 1.0213,-0.93459 2.49441,1.33497 3.37367,3.17827 2.71978,5.70187 -0.37117,1.43251 -0.49268,1.34072 -0.58457,-0.44159 z m -5.01172,-0.16533 c -0.89374,-0.56531 -1.12488,-1.54851 -0.64266,-2.73375 0.72562,-1.78349 0.77789,-1.78447 1.43476,-0.0269 0.37494,1.0032 1.00164,1.7907 1.39266,1.75 1.00322,-0.10442 1.03459,1.32155 0.036,1.63474 -0.45375,0.14231 -1.45307,-0.13852 -2.22072,-0.62407 z m -39.48791,-0.89638 c -0.26642,-0.43108 -0.071,-1.4373 0.4343,-2.23604 0.74037,-1.17035 0.93532,-1.06403 1.0043,0.54775 0.0716,1.67195 0.19709,1.73001 0.76532,0.35399 0.57887,-1.40182 0.87101,-1.43891 1.96914,-0.25 0.70918,0.7678 1.15918,1.42945 1,1.47032 -2.70344,0.69411 -4.78616,0.74 -5.17306,0.11398 z m 23.49853,-2.58121 c -1.64534,-0.91201 -2.01189,-1.55271 -1.18183,-2.06572 0.6618,-0.40901 0.96172,-1.37314 0.66649,-2.14251 -0.3007,-0.7836 0.0725,-1.39885 0.84849,-1.39885 0.76191,0 1.61226,-0.5625 1.88967,-1.25 0.40351,-1 0.52017,-1 0.58333,0 0.0434,0.6875 0.97895,1.25 2.07895,1.25 2.09008,0 2.40713,0.77545 1.39522,3.41247 -0.33264,0.86682 -1.00764,1.32707 -1.5,1.02277 -0.49237,-0.3043 -0.89522,0.14828 -0.89522,1.00574 0,1.8756 -0.74365,1.90739 -3.8851,0.1661 z M 72.148584,196.5 c -0.957206,-1.15336 -0.97323,-1.82733 -0.06934,-2.91645 0.933722,-1.12506 0.804625,-1.50412 -0.627555,-1.84261 -1.435786,-0.33934 -1.20776,-0.67025 1.119345,-1.62436 4.308011,-1.76629 5.878841,-0.79223 5.051831,3.13259 -0.37674,1.78796 -1.15359,3.70083 -1.72634,4.25083 -0.70627,0.67823 -0.814269,0.59779 -0.33563,-0.25 0.43797,-0.77574 0.0918,-1.25 -0.91231,-1.25 -0.889919,0 -1.339919,0.45 -1,1 0.949282,1.53597 -0.100787,1.18595 -1.500001,-0.5 z m 32.429516,-0.17694 c 0.30117,-0.78481 0.13382,-1.17122 -0.37188,-0.85869 -0.50569,0.31254 -1.24507,0.0414 -1.64305,-0.60257 -0.45192,-0.73122 -0.29014,-0.90292 0.4309,-0.45729 0.68411,0.4228 1.15451,0.0783 1.15451,-0.84549 0,-0.85746 0.47656,-1.55902 1.05902,-1.55902 0.58246,0 0.75315,0.4949 0.37932,1.09977 -0.45991,0.74414 0.0305,0.71966 1.51668,-0.0757 2.03473,-1.08895 2.11461,-1.0227 1.08549,0.90024 -0.73967,1.38208 -0.76496,2.07569 -0.0757,2.07569 0.56935,0 1.03518,0.39375 1.03518,0.875 0,0.48125 -1.15156,0.875 -2.55902,0.875 -1.80561,0 -2.39781,-0.42011 -2.01146,-1.42694 z M 124.14858,196 c 0,-1.4308 0.64035,-1.97753 2.25,-1.92105 1.2375,0.0434 1.6875,0.30592 1,0.58333 -0.6875,0.27741 -1.25,1.14189 -1.25,1.92105 0,0.77917 -0.45,1.41667 -1,1.41667 -0.55,0 -1,-0.9 -1,-2 z m -10.26764,-5.08453 c 0.41445,-1.58486 0.74789,-1.76464 1.39106,-0.75 0.78758,1.24244 1.30745,0.42833 0.96375,-1.50922 -0.0823,-0.46406 0.34814,-0.67781 0.95658,-0.475 0.60844,0.20281 1.0725,0.695 1.03125,1.09375 -0.0412,0.39875 -0.075,1.4 -0.075,2.225 0,0.91777 -0.93404,1.5 -2.40638,1.5 -1.94658,0 -2.30222,-0.3983 -1.86126,-2.08453 z M 91.148584,188 c 0,-0.55 0.45,-1 1,-1 0.55,0 1,0.45 1,1 0,0.55 -0.45,1 -1,1 -0.55,0 -1,-0.45 -1,-1 z m 3.20616,-0.72627 c 0.1639,-0.96288 -0.36949,-1.77997 -1.20616,-1.84769 -3.53414,-0.28606 -3.90752,-0.50345 -3.35183,-1.95156 0.48174,-1.25541 0.86347,-1.29968 2.15584,-0.25 1.3332,1.08283 1.47137,1.01115 0.91461,-0.47448 -1.00533,-2.68252 2.16717,-2.19447 3.25022,0.5 0.83771,2.08412 0.91424,2.10255 1.03806,0.25 l 0.13367,-2 0.79556,2 c 0.43756,1.1 0.40593,2.15 -0.0703,2.33333 -0.47622,0.18334 -0.86585,0.97084 -0.86585,1.75 0,0.77917 -0.69473,1.41667 -1.54384,1.41667 -0.90904,0 -1.42301,-0.7098 -1.25,-1.72627 z m 36.785816,-1.7834 C 130.28243,184.45635 130.24739,184 131.02614,184 c 0.61734,0 1.12933,0.5625 1.13775,1.25 0.0103,0.845 0.31725,0.77255 0.94722,-0.22361 1.02785,-1.62533 -0.67735,-3.32068 -2.31929,-2.3059 -0.52374,0.32369 -0.63117,0.069 -0.23873,-0.56598 0.39244,-0.63498 1.38852,-1.15451 2.21352,-1.15451 0.825,0 1.22189,-0.45 0.88197,-1 -0.33992,-0.55 -0.14148,-1 0.44098,-1 0.58246,0 1.05902,1.125 1.05902,2.5 0,2.90233 0.78743,3.17297 2.48343,0.85355 1.07278,-1.46712 1.18685,-1.41488 1.04728,0.47963 -0.18977,2.57591 -0.34014,2.72013 -3.66629,3.51648 -1.74832,0.41858 -3.05196,0.12929 -3.87244,-0.85933 z m 22.36965,0.01 c -0.31659,-0.825 -1.00402,-1.5 -1.52764,-1.5 -0.52361,0 -0.63094,0.51953 -0.2385,1.15451 0.44563,0.72104 0.27393,0.88282 -0.45729,0.4309 -0.64395,-0.39798 -0.93568,-1.10408 -0.64828,-1.5691 0.2874,-0.46502 0.18224,-1.03517 -0.23369,-1.267 -0.41593,-0.23184 -0.1395,-0.26358 0.61429,-0.0705 0.93813,0.24024 1.20429,-0.2847 0.84362,-1.6639 -0.35117,-1.34288 -0.0382,-2.01486 0.9385,-2.01486 0.80597,0 1.18728,0.45 0.84736,1 -0.33992,0.55 -0.17898,1 0.35765,1 0.53663,0 1.20266,-0.5625 1.48007,-1.25 0.30132,-0.74674 0.53617,-0.54544 0.58333,0.5 0.0895,1.9845 1.70583,2.36937 2.3121,0.55056 0.25007,-0.75023 0.64404,-0.56297 1.05194,0.5 0.4776,1.24459 0.12524,1.69944 -1.31647,1.69944 -1.08274,0 -1.91533,0.3375 -1.8502,0.75 0.50347,3.18867 -1.67425,4.57107 -2.75679,1.75 z m -76.087926,-5.33085 c -0.74804,-0.46231 -0.0397,-1.22716 1.95374,-2.10953 2.98664,-1.32202 3.02936,-1.42048 0.94991,-2.18972 -2.98938,-1.10584 -2.7399,-1.43275 1.17297,-1.53702 3.06941,-0.0818 3.34191,0.15283 3.25,2.79834 -0.0949,2.73242 -2.86375,4.93868 -4.34235,3.46009 -0.32522,-0.32555 0.1587,-0.59164 1.07536,-0.59164 0.91667,0 1.66667,-0.43588 1.66667,-0.96862 0,-1.03973 -3.15387,-0.18367 -4.02639,1.09289 -0.28952,0.42359 -1.05448,0.44378 -1.69991,0.0449 z m 29.111266,-3.15368 c 0.0222,-3.79245 0.12378,-3.92161 2.06916,-2.62993 2.60729,1.73117 2.59942,3.50297 -0.0233,5.24439 -1.97686,1.31258 -2.06812,1.19595 -2.04587,-2.61446 z M 103.77093,179 c -0.71495,-1.85551 -0.29869,-4.68264 0.84236,-5.72106 0.47077,-0.42842 0.55599,-0.25487 0.18938,0.38565 -0.3666,0.64052 -0.18961,1.32357 0.39332,1.51788 0.71272,0.23757 0.74757,1.16629 0.10639,2.83541 -0.71359,1.85763 -1.0989,2.10473 -1.53145,0.98212 z m 16.12765,-0.0801 C 117.77665,177.68399 117.60381,176 119.59889,176 c 0.79767,0 1.93387,-0.7875 2.5249,-1.75 0.98198,-1.59918 1.05089,-1.57764 0.79969,0.25 -0.18841,1.37077 0.26729,1.9577 1.44844,1.86555 1.38781,-0.10826 1.52698,0.23246 0.71482,1.75 -1.12307,2.09848 -2.57879,2.32417 -5.18816,0.80435 z m 20.70906,-9.64438 c -0.42597,-0.97653 -0.67343,-2.38318 -0.5499,-3.12587 0.12353,-0.7427 -0.25034,-1.05682 -0.83082,-0.69806 -0.64329,0.39757 -0.82119,0.0419 -0.45557,-0.91094 0.42983,-1.12011 1.5926,-1.45382 4.10206,-1.17728 3.65851,0.40316 5.23402,1.88706 5.25986,4.95402 0.0116,1.3787 -0.47904,1.66048 -2.03268,1.16738 -1.12639,-0.3575 -2.64884,-0.15134 -3.38321,0.45813 -1.01473,0.84215 -1.52114,0.68195 -2.10974,-0.66738 z M 89.510214,167.5 c -0.92189,-2.40238 0.35185,-4.54718 2.26456,-3.8132 1.10276,0.42316 1.46238,0.26553 1.02154,-0.44776 -1.07193,-1.73442 0.9874,-2.3836 2.35063,-0.74102 1.34324,1.61851 0.57909,6.50198 -1.01741,6.50198 -0.53952,0 -0.98095,-0.45 -0.98095,-1 0,-0.55 -0.7875,-0.99311 -1.75,-0.98469 -1.49555,0.0131 -1.5319,0.15626 -0.25,0.98469 1.04886,0.67782 1.11461,0.97398 0.21862,0.98469 -0.70477,0.008 -1.54041,-0.65969 -1.85699,-1.48469 z m 35.888366,-2.23679 c -0.6875,-0.23643 -1.25,-0.86893 -1.25,-1.40556 0,-0.53663 0.48322,-0.67704 1.07382,-0.31202 0.59061,0.36501 0.47811,-0.29858 -0.25,-1.47464 -1.0349,-1.67162 -1.39438,-1.80358 -1.64714,-0.60464 -0.59731,2.83326 -2.21101,1.56727 -1.97361,-1.54835 0.30463,-3.99787 2.76136,-5.33665 6.36359,-3.4678 1.89845,0.98493 2.84772,2.35429 3.07571,4.43681 0.35246,3.21952 -1.3492,5.20538 -2.6529,3.09596 -0.6102,-0.98733 -0.8658,-0.93828 -1.13819,0.21842 -0.19321,0.82043 -0.91378,1.29825 -1.60128,1.06182 z m -19.55545,-2.37434 c -1.35369,-0.7875 -1.53258,-1.37911 -0.71491,-2.36433 0.59979,-0.72271 0.96224,-1.86764 0.80545,-2.54428 -0.1568,-0.67664 0.38991,-1.43327 1.21491,-1.68139 1.33333,-0.40101 1.33333,-0.33326 0,0.60969 -1.29439,0.9154 -1.26012,1.06291 0.25,1.07613 0.9625,0.008 1.75,-0.48979 1.75,-1.10713 0,-0.77551 0.46364,-0.73766 1.5,0.12244 2.12636,1.76472 1.86829,2.87507 -0.96864,4.16767 -1.35776,0.61863 -2.2312,1.50898 -1.94099,1.97856 0.67187,1.0871 0.33715,1.04166 -1.89582,-0.25736 z"
       id="path153"
       inkscape:connector-curvature="0" />
  </g>
</svg>
