<?xml version="1.0" encoding="UTF-8" standalone="no"?>
<!-- Created with Inkscape (http://www.inkscape.org/) -->

<svg
   xmlns:dc="http://purl.org/dc/elements/1.1/"
   xmlns:cc="http://creativecommons.org/ns#"
   xmlns:rdf="http://www.w3.org/1999/02/22-rdf-syntax-ns#"
   xmlns:svg="http://www.w3.org/2000/svg"
   xmlns="http://www.w3.org/2000/svg"
   xmlns:sodipodi="http://sodipodi.sourceforge.net/DTD/sodipodi-0.dtd"
   xmlns:inkscape="http://www.inkscape.org/namespaces/inkscape"
   version="1.1"
   id="svg2949"
   width="283"
   height="443"
   viewBox="0 0 283 443"
   sodipodi:docname="feu124.svg"
   inkscape:version="0.92.4 (5da689c313, 2019-01-14)">
  <metadata
     id="metadata2955">
    <rdf:RDF>
      <cc:Work
         rdf:about="">
        <dc:format>image/svg+xml</dc:format>
        <dc:type
           rdf:resource="http://purl.org/dc/dcmitype/StillImage" />
        <dc:title></dc:title>
      </cc:Work>
    </rdf:RDF>
  </metadata>
  <defs
     id="defs2953" />
  <sodipodi:namedview
     pagecolor="#ffffff"
     bordercolor="#666666"
     borderopacity="1"
     objecttolerance="10"
     gridtolerance="10"
     guidetolerance="10"
     inkscape:pageopacity="0"
     inkscape:pageshadow="2"
     inkscape:window-width="1280"
     inkscape:window-height="972"
     id="namedview2951"
     showgrid="false"
     inkscape:zoom="1.5067919"
     inkscape:cx="144.21902"
     inkscape:cy="277.65991"
     inkscape:window-x="-8"
     inkscape:window-y="-8"
     inkscape:window-maximized="1"
     inkscape:current-layer="g534"
     showguides="true" />
  <g
     id="g151"
     transform="translate(25.882805,-2.654647)">
    <g
       id="g534"
       transform="translate(-21.900834,-45.792654)">
      <g
         id="g839"
         transform="translate(-0.777528,35.8401)">
        <path
           style="fill:#ffff00"
           d="m 105.59311,339.77099 c -5.2782,-2.86741 -6.31112,-11.18238 -1.93298,-15.56052 2.28996,-2.28997 3.82034,-2.92308 7.06574,-2.92308 5.44634,0 7.86814,1.41341 9.62454,5.61706 3.94009,9.42998 -5.66607,17.80538 -14.7573,12.86654 z m 23.78996,-0.93585 c -2.09533,-1.94189 -2.64602,-3.37567 -2.64602,-6.88922 0,-2.74332 0.668,-5.25428 1.75,-6.57816 1.90985,-2.33678 7.70251,-3.68558 11.61312,-2.70408 3.07547,0.77189 6.63688,6.35416 6.63688,10.40285 0,7.22781 -11.61387,11.08836 -17.35398,5.76861 z m 27.60947,0.2342 c -2.19302,-1.05784 -4.27259,-6.12697 -4.21811,-10.28195 0.0896,-6.8356 11.08018,-10.10971 16.32626,-4.86364 2.12792,2.12792 2.63636,3.57719 2.63636,7.5147 0,4.43062 -0.29827,5.0602 -3.25,6.8599 -3.54993,2.16443 -7.98857,2.46215 -11.49451,0.77099 z m 22.66759,-6.70503 c -5.51557,-5.51557 -3.41487,-13.05218 4.47096,-16.04032 9.3702,-3.55061 16.67887,8.39183 9.70475,15.85764 -4.03512,4.31962 -9.96239,4.396 -14.17571,0.18268 z m -96.447319,-0.47286 c -5.111562,-2.22711 -6.922503,-8.90569 -3.965411,-14.62408 2.734307,-5.28756 8.468269,-6.50989 14.185389,-3.02394 5.987861,3.65103 5.666231,12.53561 -0.606824,16.76302 -3.856698,2.59903 -5.361263,2.73754 -9.613154,0.885 z m 122.524239,-9.89597 c -3.33828,-1.68572 -6.30057,-8.0631 -5.48023,-11.79811 0.76897,-3.50107 4.98221,-6.68279 9.88012,-7.4612 3.08705,-0.49061 4.06303,-0.13971 6.56205,2.35931 1.6146,1.6146 3.24438,4.16579 3.62174,5.6693 0.98704,3.93269 -1.69192,8.87156 -5.89367,10.86542 -4.16522,1.97653 -5.39672,2.02829 -8.69001,0.36528 z M 60.499621,317.722 c -3.83111,-2.07874 -5.567318,-6.06106 -4.721352,-10.82931 2.099641,-11.83452 19.958781,-9.1993 19.958781,2.94504 0,1.68001 -1.244245,3.8939 -3.4,6.04966 -3.774449,3.77445 -7.265225,4.31546 -11.837429,1.83461 z M 225.63844,304.22142 c -3.36816,-1.29584 -5.38766,-5.16625 -5.25885,-10.07869 0.18603,-7.09465 6.41522,-10.52935 13.62939,-7.51508 6.80056,2.84146 8.78166,12.61284 3.28711,16.21301 -3.0624,2.00656 -8.3907,2.63766 -11.65765,1.38076 z M 44.791792,299.06974 c -6.266226,-3.29764 -7.584067,-12.34393 -2.533923,-17.39408 6.04251,-6.04251 17.479181,-0.60932 17.479181,8.3038 0,6.72412 -9.018279,12.20939 -14.945258,9.09028 z m 102.444678,-2.53235 c -0.39301,-0.9625 -0.95616,-12.27167 -1.25145,-25.13149 -0.45294,-19.72576 -0.31886,-23.30657 0.85757,-22.90238 0.80726,0.27736 1.34097,1.70129 1.26744,3.38149 -0.0699,1.59631 0.24753,4.71669 0.70533,6.93417 0.4578,2.21748 1.12562,12.00498 1.48406,21.75 0.56543,15.37274 0.45313,17.71821 -0.84835,17.71821 -0.82502,0 -1.82159,-0.7875 -2.2146,-1.75 z m 11.08812,0.89165 c -1.23652,-2.00074 -5.73951,-29.99803 -7.09958,-44.14165 -0.72397,-7.5286 0.65234,-7.25121 2.48075,0.5 6.23329,26.42472 8.67917,43.38773 6.37293,44.1984 -0.6371,0.22394 -1.42644,-0.0266 -1.7541,-0.55675 z m -34.18287,-1.52947 c -0.65965,-1.71904 2.98642,-18.21909 5.19283,-23.49977 2.01618,-4.82541 5.4025,-18.82393 5.4025,-22.33312 0,-1.65655 0.47051,-2.78912 1.075,-2.58762 0.59125,0.19708 1.11095,0.69773 1.15489,1.11256 0.10074,0.95108 -1.92974,12.46741 -4.26603,24.19577 -0.98604,4.95 -2.07554,10.8 -2.42112,13 -1.3622,8.67213 -2.14873,10.99302 -3.83552,11.31787 -0.9423,0.18147 -1.97844,-0.36109 -2.30255,-1.20569 z m 11.13113,-0.49938 c -1.01188,-3.18815 0.52875,-18.26212 4.0486,-39.6128 1.26074,-7.64739 1.29871,-7.11848 0.86157,12 -0.51505,22.52593 -0.77898,26.61177 -1.82873,28.3103 -1.08104,1.74917 -2.39963,1.45069 -3.08144,-0.6975 z m 32.11439,-0.86978 c -0.25731,-0.41634 -1.64997,-5.25384 -3.09479,-10.75 -1.44483,-5.49616 -3.30476,-12.07854 -4.13318,-14.62752 -2.18491,-6.72273 -3.37448,-15.01625 -2.09255,-14.58894 1.24433,0.41477 12.67033,35.03344 12.67033,38.38875 0,2.21078 -2.29152,3.29005 -3.34981,1.57771 z m -53.98352,-0.90969 c -0.36667,-0.36666 -0.66667,-1.5604 -0.66667,-2.65275 0,-2.16993 7.45802,-21.35376 12.29739,-31.63187 1.67065,-3.54821 3.31125,-7.78956 3.64578,-9.42523 0.33453,-1.63567 1.22741,-3.18034 1.98418,-3.4326 0.96257,-0.32085 1.19641,0.10732 0.77837,1.42524 -0.32867,1.03613 -1.30571,4.13388 -2.17122,6.88388 -6.68647,21.24513 -12.03961,37.1992 -12.83418,38.25 -1.0536,1.39334 -2.03495,1.58204 -3.03365,0.58333 z m 62.90175,-4.53911 c -0.86263,-1.23158 -1.56842,-3.72823 -1.56842,-5.54811 0,-2.09019 -0.58068,-3.53171 -1.5766,-3.91388 -0.86714,-0.33275 -2.05173,-1.78113 -2.63244,-3.21861 -3.83531,-9.49391 -6.78423,-17.84833 -6.78733,-19.22876 -0.002,-0.88833 -0.89463,-2.74787 -1.98364,-4.13231 -1.089,-1.38444 -2.42786,-3.69513 -2.97524,-5.13486 -0.79803,-2.09897 -0.69946,-2.61769 0.49744,-2.61769 0.91803,0 3.55277,4.33106 6.84379,11.25 7.79815,16.39463 10.61402,22.82983 10.61402,24.25654 0,0.69566 0.67223,2.55378 1.49384,4.12915 0.82161,1.57537 1.49661,3.40025 1.5,4.05529 0.0118,2.2737 -1.86554,2.33028 -3.42542,0.10324 z m -76.06842,-1.79422 c -0.71879,-1.16303 -0.932,-0.76403 6.81298,-12.75 3.28739,-5.0875 6.36181,-9.25 6.83205,-9.25 0.47023,0 0.85497,-0.86553 0.85497,-1.9234 0,-1.05788 1.61721,-4.04207 3.5938,-6.63154 1.97659,-2.58948 4.36088,-6.08121 5.29842,-7.75941 0.93754,-1.67819 2.24533,-3.2315 2.9062,-3.45179 1.82364,-0.60788 1.43675,2.62419 -0.67176,5.61177 -1.03034,1.4599 -3.32875,5.54995 -5.10759,9.08899 -4.4293,8.81219 -13.73581,23.72357 -16.29369,26.1066 -2.36042,2.19907 -3.32374,2.41766 -4.22538,0.95878 z m 81.75596,-6.75 c -4.78007,-7.50422 -10.1819,-18.08122 -14.2801,-27.96097 -2.18226,-5.26089 -1.07482,-4.09399 3.52414,3.71337 1.65,2.8011 4.9125,7.60061 7.25,10.66557 2.3375,3.06497 4.25,5.93627 4.25,6.38068 0,0.4444 1.61482,3.51881 3.58848,6.83201 3.2596,5.4719 3.732,8.11934 1.44879,8.11934 -0.46458,0 -3.06617,-3.4875 -5.78131,-7.75 z m 58.24404,2.90032 c -8.21461,-2.67106 -10.98453,-13.26423 -4.75056,-18.16787 4.57476,-3.59851 14.63595,-1.86788 17.22092,2.96216 2.67383,4.99611 0.4485,12.15422 -4.51005,14.5072 -3.44877,1.63655 -4.72977,1.74895 -7.96031,0.69851 z m -47.34879,-3.00447 c -3.72824,-4.01363 -13.56041,-17.84567 -16.19396,-22.78189 -1.21365,-2.27482 -4.17553,-6.25018 -6.58194,-8.83413 -4.38186,-4.70513 -5.52855,-7.52983 -3.05675,-7.52983 1.21687,0 6.26419,6.20018 14.50356,17.81635 1.82717,2.57601 4.56151,6.03365 6.07631,7.68365 4.22738,4.60469 10.10157,13.32872 10.10157,15.00231 0,2.32048 -1.93652,1.77873 -4.84879,-1.35646 z m -103.15121,0.0767 c 0,-1.26058 9.11901,-13.34152 13,-17.22251 0.275,-0.275 2.28985,-2.75 4.47744,-5.5 5.03044,-6.32372 13.7724,-15.5 14.76637,-15.5 1.82702,0 0.43909,3.21354 -3.49381,8.08936 -2.3375,2.89793 -6.85481,8.67584 -10.03846,12.8398 -9.63452,12.60118 -14.710198,18.07084 -16.76917,18.07084 -1.068303,0 -1.94237,-0.34987 -1.94237,-0.77749 z m -57.534718,-4.17403 c -7.371443,-2.98794 -6.619649,-15.41473 1.12841,-18.65207 6.127676,-2.56031 11.949414,1.01323 13.088767,8.03424 1.297632,7.99637 -6.435795,13.77193 -14.217177,10.61783 z m 49.97893,-2.13875 c -0.853501,-1.38099 3.698929,-6.09271 20.299188,-21.00943 18.81166,-16.90386 18.67646,-16.47141 -2.16162,6.91383 -8.676151,9.73669 -14.737116,15.18587 -16.890797,15.18587 -0.315122,0 -0.876169,-0.49062 -1.246771,-1.09027 z m 110.028218,-9.56558 c -4.93484,-5.31072 -12.00993,-12.84559 -15.72243,-16.74415 -7.80299,-8.19407 -9.00585,-11.68068 -2,-5.79722 9.18767,7.71574 30.25,29.02222 30.25,30.60064 0,3.65765 -4.07737,1.03459 -12.52757,-8.05927 z m -116.47243,0.86498 c 0,-1.64199 14.148156,-13.62267 23.86525,-20.20913 2.02855,-1.375 5.98652,-4.1875 8.79549,-6.25 4.74512,-3.48413 8.33926,-4.77527 8.33926,-2.99575 0,1.36706 -20.568898,18.47315 -31.838001,26.47802 -7.209744,5.12135 -9.161999,5.75566 -9.161999,2.97686 z m 133.29969,0.47233 c -0.43983,-0.7252 -3.38719,-3.01896 -6.54969,-5.09724 -3.1625,-2.07828 -5.75,-4.10935 -5.75,-4.51349 0,-0.40414 -2.49367,-2.58229 -5.54148,-4.84033 -7.57413,-5.61147 -16.83983,-14.18243 -16.11529,-14.90696 0.75753,-0.75753 3.80833,1.25486 13.61066,8.97792 4.32712,3.40925 11.73268,9.03548 16.4568,12.50274 4.72412,3.46725 8.58931,6.95475 8.58931,7.75 0,1.80886 -3.62098,1.90697 -4.70031,0.12736 z M 68.905267,258.13073 c 0.252007,-1.77989 2.856482,-3.83998 10.831783,-8.56772 5.775,-3.42341 12.975,-7.76571 16,-9.64956 6.60124,-4.11098 15.51292,-8.62606 17.02577,-8.62606 2.64936,0 -0.35111,2.14791 -31.02577,22.2101 -4.675,3.0576 -9.549302,5.87817 -10.831783,6.26793 -2.028505,0.61649 -2.288631,0.40388 -2,-1.63469 z m 179.331783,1.00193 c -3.38319,-1.85046 -4.50063,-4.03975 -4.48469,-8.7864 0.0171,-5.09615 0.41875,-5.94534 3.9572,-8.36683 4.85702,-3.32386 11.69155,-1.58792 14.53487,3.6918 2.38962,4.43727 0.64913,10.96675 -3.49447,13.10948 -3.39991,1.75817 -7.67996,1.90145 -10.51291,0.35195 z m -41.02878,-6.19035 c -12.57648,-7.49311 -31.73082,-20.65492 -30.05903,-20.65492 0.711,0 14.4769,6.99577 19.08781,9.70034 1.65,0.96782 6.825,3.99387 11.5,6.72456 9.19023,5.36805 12,7.41218 12,8.73009 0,1.98615 -4.13509,0.50091 -12.52878,-4.50007 z m -188.886617,0.17151 c -4.102556,-3.52887 -4.717057,-10.32157 -1.269764,-14.03599 3.291344,-3.54638 6.883361,-4.36643 11.478367,-2.6205 4.487292,1.70501 6.660124,5.60007 5.770201,10.34376 -0.979166,5.21941 -3.512009,7.61347 -8.669887,8.19483 -3.772324,0.4252 -4.991511,0.11125 -7.308917,-1.8821 z m 46.415397,-4.36825 c 0,-0.92859 2.53303,-2.67832 6.368656,-4.39925 3.502761,-1.57158 9.690261,-4.44321 13.75,-6.38139 9.501039,-4.53594 25.908604,-10.98361 26.484594,-10.40763 0.81704,0.81705 -1.97803,2.43205 -21.829426,12.61318 -19.247527,9.87143 -24.773824,11.78427 -24.773824,8.57509 z m 139.5,-7.50733 c -9.35,-4.93533 -18.9125,-9.95794 -21.25,-11.16135 -6.34212,-3.26512 -5.6004,-5.28447 1,-2.72254 8.21887,3.19013 37.41418,17.82347 38.73483,19.41476 1.14042,1.37412 0.64203,3.55915 -0.79385,3.48037 -0.38004,-0.0208 -8.34098,-4.0759 -17.69098,-9.01124 z m -40,5.04915 c -0.33992,-0.55 -0.14148,-1 0.44098,-1 0.58246,0 1.05902,0.45 1.05902,1 0,0.55 -0.19844,1 -0.44098,1 -0.24254,0 -0.7191,-0.45 -1.05902,-1 z m -27.3,-5.2 c -3.16152,-3.16152 -0.0397,-7.82694 4.15912,-6.21569 2.99431,1.14903 1.42325,7.41569 -1.85912,7.41569 -0.605,0 -1.64,-0.54 -2.3,-1.2 z m 14.42138,-1.32148 c -1.96363,-1.96363 -2.00181,-2.57599 -0.30528,-4.89613 2.60583,-3.56368 8.42497,0.43064 6.0716,4.16761 -1.50203,2.38511 -3.81723,2.67761 -5.76632,0.72852 z m -91.202761,-0.6102 c -0.384678,-0.62242 0.151264,-1.62199 1.190983,-2.22127 4.306057,-2.48195 47.328488,-15.71415 48.640398,-14.9601 2.86941,1.64926 -0.38474,3.07182 -28.413823,12.42114 -18.591693,6.20141 -20.293145,6.57957 -21.417558,4.76023 z m 153.081381,-2.97363 c -5.5,-2.18279 -10.9,-4.38375 -12,-4.89103 -1.1,-0.50728 -4.7,-1.79336 -8,-2.85796 -9.96672,-3.21533 -15.93632,-6.10938 -14.84761,-7.19809 0.64284,-0.64284 8.97085,1.72855 24.10658,6.86431 22.6278,7.67792 26.78054,9.50612 25.671,11.30139 -0.99929,1.61688 -4.82287,0.79259 -14.92997,-3.21862 z m -89.5,-0.89469 c -2.27085,-4.24313 2.97974,-8.1392 6.02458,-4.47039 0.97068,1.16961 1.00455,2.11105 0.14388,4 -1.36529,2.9965 -4.6812,3.24936 -6.16846,0.47039 z m 131.76257,0.47503 c -4.02194,-2.24167 -5.66927,-6.12317 -5.02491,-11.83992 0.45728,-4.05694 1.04619,-5.14202 3.65374,-6.73206 8.67966,-5.29271 16.76564,0.89555 15.1601,11.60212 -0.4646,3.09815 -1.3881,4.99688 -2.91789,5.99924 -3.47573,2.27738 -7.8291,2.66607 -10.87104,0.97062 z m -94.0959,-4.1417 c -1.16112,-1.16111 -0.72064,-5.04365 0.70658,-6.22814 0.75529,-0.62683 2.10917,-0.8573 3.00863,-0.51214 2.24146,0.86013 3.28494,5.37075 1.50347,6.49897 -1.65358,1.04723 -4.29082,1.16917 -5.21868,0.24131 z M 10.660127,226.36431 c -7.6976913,-7.69769 0.919414,-20.2843 11.022184,-16.09959 5.399511,2.23655 7.717668,9.03189 4.891396,14.33841 -1.83828,3.4515 -4.010959,4.61826 -8.66358,4.65246 -3.473185,0.0255 -4.903671,-0.54495 -7.25,-2.89128 z m 47.076923,1.44213 c 0,-0.81452 1.0125,-1.71659 2.25,-2.00459 2.043703,-0.47563 37.456658,-7.12716 43.98773,-8.2621 3.31894,-0.57676 6.47338,0.45288 5.17949,1.69062 -0.87642,0.83839 -6.80153,2.22799 -32.41722,7.60273 -13.564236,2.84608 -19,3.12455 -19,0.97334 z m 88.04568,-0.96401 c -1.82073,-2.19384 -0.89583,-6.00501 1.54183,-6.3533 3.14721,-0.44966 4.97459,2.26917 3.58095,5.32787 -1.26391,2.774 -3.3286,3.18728 -5.12278,1.02543 z m 70.95432,-1.16552 c -4.125,-0.75466 -11.325,-2.07424 -16,-2.9324 -10.70055,-1.96423 -20.05792,-4.55439 -19.53137,-5.40637 0.63386,-1.02559 26.24846,2.41359 45.28137,6.07977 3.41249,0.65733 5.25,1.51146 5.25,2.44038 0,1.78021 -4.58064,1.72482 -15,-0.18138 z m -99.98922,-0.87653 c -0.72092,-0.86865 -0.96549,-2.55731 -0.58814,-4.0608 0.55017,-2.19204 1.12293,-2.52769 3.86167,-2.26299 2.48174,0.23986 3.29027,0.83691 3.54245,2.61584 0.62396,4.40151 -4.10522,6.97422 -6.81598,3.70795 z m 14.65589,-1.17966 c -1.35841,-1.3584 -0.60674,-5.29504 1.19519,-6.2594 2.88039,-1.54154 5.61121,0.90508 4.76655,4.27048 -0.48117,1.91713 -1.31006,2.65559 -2.9808,2.65559 -1.27285,0 -2.61428,-0.3 -2.98094,-0.66667 z m -74.658311,-5.2375 c -3.430572,-2.32873 1.02413,-3.55799 17.273913,-4.76669 20.02813,-1.48974 35.467768,-1.67104 34.167728,-0.40122 -0.87679,0.85641 -5.07217,1.46024 -28.45,4.09477 -16.430959,1.85166 -21.496462,2.08809 -22.991641,1.07314 z m 110.620281,-0.6212 c -0.34477,-0.89845 -0.3473,-2.74738 -0.006,-4.10873 0.48648,-1.93827 1.16939,-2.40909 3.14825,-2.17054 3.3009,0.39793 5.11244,3.1755 3.62276,5.55464 -1.47944,2.36279 -5.95289,2.84194 -6.76538,0.72463 z m -14.2462,-1.92039 c -0.83725,-2.18184 1.50646,-4.71306 4.03005,-4.3525 1.48048,0.21153 2.08751,1.02525 2.08751,2.79826 0,1.98517 -0.56748,2.56527 -2.75569,2.81697 -1.80507,0.20763 -2.96479,-0.22797 -3.36187,-1.26273 z m -13.34257,-1.0062 c -0.66276,-0.79858 -1.05138,-2.24978 -0.86359,-3.22488 0.40063,-2.08029 4.50909,-4.38112 6.47562,-3.6265 1.95085,0.74862 2.79638,5.05827 1.33732,6.81633 -1.5754,1.89824 -5.38708,1.91747 -6.94935,0.035 z m -22.75211,-1.42061 c -3.1318,-2.10466 -1.31786,-7.66031 2.27834,-6.97798 2.80108,0.53146 3.29506,6.39209 0.59821,7.09733 -1.0686,0.27945 -2.36305,0.22574 -2.87655,-0.11935 z m 70.21224,-1.12173 c -2.96584,-0.58652 -2.97153,-0.60002 -0.5,-1.1853 2.10427,-0.49831 24.00762,-1.18026 41.1721,-1.28188 5.09116,-0.0301 7.11505,1.02924 4.79894,2.51195 -1.5662,1.00263 -40.36785,0.96443 -45.47104,-0.0448 z m -59.46013,-2.45766 c -2.65646,-3.20083 1.24523,-8.11777 4.71013,-5.93574 3.46233,2.18041 2.22883,7.3877 -1.75,7.3877 -0.96531,0 -2.29737,-0.65338 -2.96013,-1.45196 z m 130.98069,0.33592 c -4.61455,-1.84115 -6.02197,-3.90334 -5.99832,-8.78895 0.0348,-7.18779 4.3892,-11.29583 10.97776,-10.35662 7.1966,1.02588 10.71099,7.85371 7.51215,14.59477 -1.07815,2.27201 -2.76607,3.90831 -4.74228,4.59722 -3.62967,1.26531 -4.47435,1.26025 -7.74931,-0.0464 z M 75.73705,208.28871 c -15.15231,-0.87696 -19,-1.63243 -19,-3.73051 0,-1.38398 1.631361,-1.48937 13.75,-0.88824 26.155436,1.29739 37.75,2.56625 37.75,4.1312 0,1.22654 -15.669896,1.46162 -32.5,0.48755 z m 106.53515,-0.94444 c -0.31228,-0.50528 -0.22293,-1.12537 0.19854,-1.378 0.42147,-0.25262 11.4905,-1.91202 24.59785,-3.68755 17.57041,-2.38011 24.12539,-2.9344 24.95,-2.10979 0.70596,0.70596 0.76809,1.46626 0.16846,2.0615 -2.4079,2.39027 -48.66893,7.12977 -49.91485,5.11384 z m -31.78515,-1.13698 c -2.45821,-1.43178 -2.26418,-5.62193 0.29799,-6.43513 3.81401,-1.21052 6.59571,3.47153 3.75201,6.31523 -1.4329,1.4329 -1.77816,1.44312 -4.05,0.1199 z m 16.19873,-2.20132 c -2.6125,-3.73633 -0.36016,-7.58116 3.5599,-6.07689 2.06975,0.79423 2.98787,5.05514 1.48059,6.8713 -1.70403,2.05322 -3.21599,1.81493 -5.04049,-0.79441 z m -62.03206,-0.12347 c -0.54249,-0.52715 -26.79377,-5.24665 -33.91667,-6.09759 -8.50716,-1.01632 -13,-2.41119 -13,-4.03606 0,-0.84898 0.942951,-1.46138 2.25,-1.46126 3.94929,3.4e-4 26.7356,3.9685 34.566811,6.01968 12.357489,3.23674 11.540859,2.1386 -1.816811,-2.44311 -15.913026,-5.4582 -31.002183,-11.33369 -32.677594,-12.72416 -2.109688,-1.75089 -0.329144,-3.11539 3.297348,-2.52689 1.85102,0.30038 8.431311,2.55778 14.622868,5.01644 6.191558,2.45867 16.094878,6.34662 22.007378,8.6399 6.68266,2.59201 10.75,4.70845 10.75,5.59377 0,0.78329 -0.45,1.42417 -1,1.42417 -0.55,0 -1,0.675 -1,1.5 0,1.33382 -3.0076,2.14043 -4.08333,1.09511 z m 14.28333,-1.79511 c -0.66,-0.66 -1.2,-2.45143 -1.2,-3.98095 0,-2.13169 0.58314,-2.92731 2.49776,-3.40784 3.7088,-0.93085 5.50224,0.16349 5.50224,3.35741 0,3.15925 -1.58438,5.23138 -4,5.23138 -0.88,0 -2.14,-0.54 -2.8,-1.2 z m 19.46667,0.53333 c -1.35435,-1.35434 -0.65817,-6.39936 0.96925,-7.02386 2.07824,-0.7975 4.75708,0.86003 5.22282,3.23162 0.54384,2.76922 -4.2681,5.71622 -6.19207,3.79224 z M 14.63826,199.18163 c -5.3034866,-5.6774 -3.359254,-13.84542 3.763771,-15.81218 4.281083,-1.18207 9.549442,0.58156 11.254528,3.76754 1.99719,3.73178 1.318425,10.00338 -1.374054,12.69585 -3.727618,3.72762 -9.825687,3.43658 -13.644245,-0.65121 z m 172.62102,2.14173 c -0.30542,-0.49418 4.06463,-2.3085 9.71123,-4.03182 5.6466,-1.72331 11.39154,-3.541 12.76654,-4.03931 4.49016,-1.62724 17.41739,-4.96484 19.2299,-4.96484 1.81821,0 2.45973,2.45575 0.89427,3.42326 -0.98957,0.61158 -33.89229,9.01929 -38.8354,9.9237 -1.76617,0.32314 -3.46112,0.1832 -3.76654,-0.31099 z m -6.52223,-3.54959 c 0,-0.74338 1.0125,-1.67105 2.25,-2.06147 1.2375,-0.39043 5.85,-2.46806 10.25,-4.61695 20.4565,-9.99062 34.5,-14.86013 34.5,-11.96268 0,1.77187 -3.76323,3.78932 -18.074,9.68942 -17.72314,7.30696 -28.926,10.77389 -28.926,8.95168 z m -74.52298,-3.7927 c -8.550881,-3.6831 -37.218262,-18.4425 -40.422603,-20.81157 -3.458195,-2.55675 -3.745401,-3.40298 -1.453464,-4.28248 0.929984,-0.35686 4.806716,1.11621 9.25,3.5148 4.206976,2.27102 10.799047,5.79826 14.649047,7.83831 11.69035,6.1945 21.92452,12.11158 23.34596,13.4979 2.38508,2.32616 -0.2552,2.44568 -5.36894,0.24304 z m 48.93943,-0.0508 c -1.213,-3.16103 -0.0118,-6.14286 2.47456,-6.14286 3.1098,0 5.00842,2.8465 3.50175,5.25 -1.42245,2.26914 -5.2299,2.83798 -5.97631,0.89286 z m 22.58355,0.88785 c 0,-1.27832 36.00371,-23.04682 40.65912,-24.58325 2.26795,-0.74849 3.86959,-0.81877 4.49127,-0.19709 1.05331,1.05331 -2.44296,3.45266 -18.15039,12.45588 -18.16166,10.40994 -27,14.4443 -27,12.32446 z m -49.33333,-2.1974 c -0.36667,-0.36666 -0.66667,-1.91134 -0.66667,-3.43261 0,-3.72414 3.44309,-4.90208 6.21792,-2.12725 1.63033,1.63033 1.78096,2.3601 0.84728,4.1047 -1.08607,2.02934 -4.94643,2.90727 -6.39853,1.45516 z m -29.40746,-9.98835 c -16.099415,-10.9208 -29.25921,-21.26829 -29.25921,-23.0064 0,-2.33689 3.700749,-1.4499 8.173404,1.95899 2.379628,1.81367 7.251596,5.27907 10.826596,7.7009 10.32556,6.99489 25.46977,19.07913 25.82332,20.6056 0.6788,2.93067 -3.22979,1.1077 -15.56411,-7.25909 z m 43.2232,6.99457 c -1.6346,-1.6346 -1.77697,-2.40836 -0.87542,-4.75776 0.81568,-2.12562 5.98757,-2.08074 6.8087,0.0591 1.57625,4.10765 -2.94435,7.6876 -5.93328,4.69867 z m 33.51759,-0.19634 c 0,-0.47123 3.65735,-3.50873 8.12744,-6.75 4.4701,-3.24127 9.5326,-7.04177 11.25,-8.44556 5.83423,-4.76883 13.38643,-9.94765 14.50654,-9.94765 0.61381,0 1.11602,-0.35298 1.11602,-0.78439 0,-1.46783 6.13807,-4.47754 7.12297,-3.49264 1.65793,1.65793 -0.0361,3.79345 -6.40721,8.07687 -3.41867,2.29844 -9.59076,6.50898 -13.71576,9.35675 -9.90711,6.83954 -19.71546,12.84341 -20.98193,12.84341 -0.55994,0 -1.01807,-0.38556 -1.01807,-0.85679 z m 76.22326,-2.8144 c -0.7022,-0.28232 -2.13464,-2.19494 -3.1832,-4.25029 -2.0952,-4.10692 -1.51715,-10.03 1.24878,-12.79593 2.65566,-2.65566 8.83089,-2.71361 12.64243,-0.11865 8.49779,5.78542 4.62315,17.9713 -5.64609,17.75711 -2.08185,-0.0434 -4.35971,-0.30993 -5.06192,-0.59224 z m -78.22326,-1.51643 c 0,-1.65406 32.24579,-33.1298 34.44021,-33.61775 2.48722,-0.55305 2.97062,2.05429 0.7189,3.87761 -1.18751,0.96159 -2.15911,2.1921 -2.15911,2.73446 0,0.54236 -1.527,2.27023 -3.39333,3.83971 -1.86633,1.56947 -5.61299,4.73611 -8.32591,7.03696 -2.71291,2.30085 -7.37342,6.09526 -10.35667,8.43201 -2.98325,2.33675 -5.64909,4.50424 -5.92409,4.81663 -0.275,0.3124 -1.5125,1.42523 -2.75,2.47298 -1.81704,1.53841 -2.25,1.61681 -2.25,0.40739 z m -64.5,-4.45397 c -2.75,-2.52738 -7.25,-6.72067 -10,-9.31843 -2.75,-2.59775 -8.825,-8.0305 -13.5,-12.07278 -4.675,-4.04227 -8.645496,-7.93855 -8.823324,-8.65839 -0.558527,-2.26091 3.508854,-1.44047 6.996599,1.41129 3.864709,3.15999 32.826725,32.10471 32.826725,32.80712 0,1.57456 -3.16482,-0.18458 -7.5,-4.16881 z m 59.5,1.17412 c 0,-3.5551 28.32264,-38.45013 31.25,-38.5017 3.6444,-0.0642 1.72217,3.85183 -6.6115,13.46917 -3.33612,3.85 -6.75706,7.7022 -7.60209,8.56044 -0.84502,0.85824 -4.64423,5.24574 -8.44268,9.75 -6.88656,8.1662 -8.59373,9.50156 -8.59373,6.72209 z m -57.62157,-7.81719 C 97.616742,158.43077 85.73705,143.37127 85.73705,141.8313 c 0,-3.48945 3.168309,-0.96238 12.168992,9.70609 16.404618,19.44432 24.240528,30.86136 21.081008,30.71534 -0.4125,-0.0191 -3.95471,-3.73157 -7.87157,-8.25 z m 8.16492,2.15381 c -1.45142,-1.72491 -3.57665,-4.98862 -4.72274,-7.25268 -1.14609,-2.26406 -4.02364,-7.1279 -6.39456,-10.80855 -4.67483,-7.25725 -12.42605,-21.06993 -12.42605,-22.14323 0,-0.36558 0.872325,-0.66469 1.938499,-0.66469 1.274191,0 3.011631,1.79913 5.069981,5.25 7.80676,13.08821 9.99152,17.0785 9.99152,18.24871 0,0.69102 0.60803,1.76102 1.35118,2.37778 2.19614,1.82264 9.72331,16.95944 8.73673,17.56918 -0.49808,0.30783 -2.09314,-0.8516 -3.54456,-2.57652 z m 49.97473,-5.48432 c 8.15064,-15.00238 17.15684,-29.7882 19.35202,-31.77095 4.15117,-3.74945 3.32916,0.86936 -1.86461,10.47704 -5.57022,10.30408 -18.72431,28.98202 -20.92817,29.71664 -0.76245,0.25415 0.78589,-3.53608 3.44076,-8.42273 z m -9.51808,6.69808 c 0,-0.93483 2.02328,-5.86529 5.85919,-14.27805 1.17745,-2.58232 2.14081,-4.98802 2.14081,-5.346 0,-0.35797 1.63688,-4.09516 3.63751,-8.30486 2.00063,-4.2097 4.45964,-9.5665 5.46446,-11.904 1.90236,-4.4254 4.89803,-5.78778 4.89803,-2.22754 0,1.79175 -9.83452,22.6231 -15.09665,31.97754 -1.08287,1.925 -2.67798,5.1875 -3.54468,7.25 -1.44277,3.43336 -3.35867,5.04935 -3.35867,2.83291 z M 26.052422,176.28041 c -1.201546,-0.48411 -2.664046,-1.77601 -3.25,-2.87087 -1.347845,-2.51847 -1.396952,-10.12215 -0.06537,-10.12215 0.55,0 1,-0.92296 1,-2.05103 0,-1.38308 1.0957,-2.50884 3.364502,-3.4568 4.48713,-1.87484 9.847648,-0.40734 12.5924,3.4473 6.300944,8.84886 -3.151741,19.27998 -13.64153,15.05355 z m 99.327758,-1.21115 c -0.79461,-1.25503 -5.53681,-10.60687 -10.53823,-20.78187 -8.81609,-17.93562 -10.84331,-23.85413 -8.45827,-24.69398 2.35009,-0.82755 23.44506,45.90125 21.31553,47.21737 -0.48086,0.29719 -1.52443,-0.4865 -2.31903,-1.74152 z m 29.6595,-1.87561 c 0.67232,-4.79885 2.59138,-11.47617 9.02614,-31.40626 2.89176,-8.95653 4.65977,-13 5.68425,-13 2.70855,0 2.15294,4.22618 -1.92908,14.67321 -2.21927,5.67973 -5.63044,15.36854 -7.58037,21.53068 -3.79261,11.98533 -6.28067,15.90923 -5.20094,8.20237 z m -27.32495,-4.15626 c -1.15886,-3.9875 -2.35014,-8.09074 -2.64729,-9.11831 -0.36837,-1.27387 -0.11049,-1.72506 0.81052,-1.41805 0.74294,0.24764 2.13296,3.33838 3.08893,6.86831 0.95598,3.52993 2.01913,7.43055 2.36256,8.66805 0.36543,1.31677 0.18225,2.25 -0.44165,2.25 -0.58633,0 -2.01422,-3.2625 -3.17307,-7.25 z m 5.58368,6.34929 c -0.30617,-0.4954 -1.23794,-6.4579 -2.0706,-13.25 -0.83267,-6.79211 -1.91686,-14.37429 -2.40932,-16.84929 -1.78446,-8.96837 -2.36119,-19.70907 -1.10014,-20.48845 0.65613,-0.4055 1.62666,-0.30359 2.15674,0.22649 0.93724,0.93724 3.848,24.25236 3.65319,29.26196 -0.0821,2.11173 1.50143,15.30463 2.22056,18.5 0.66526,2.95603 -1.0835,4.81103 -2.45043,2.59929 z m 10.4403,-8.34929 c 0.003,-11.06484 2.14126,-39.14853 3.12005,-40.97742 1.19835,-2.23914 2.47608,-2.2631 3.32062,-0.0623 0.70633,1.84069 -0.68046,18.2164 -3.00396,35.47159 -0.7911,5.87504 -1.43837,10.93754 -1.43837,11.25 0,0.31246 -0.45,0.56811 -1,0.56811 -0.56018,0 -0.99927,-2.74889 -0.99834,-6.25 z m 6.35363,3 c 0.31784,-1.7875 1.76378,-11.8 3.21322,-22.25 2.67108,-19.25771 3.62111,-22.93174 5.74919,-22.23375 2.02027,0.66262 1.93165,6.84862 -0.21794,15.21319 -3.6099,14.04697 -7.09976,29.23898 -7.09976,30.90656 0,0.8877 -0.50008,1.614 -1.11129,1.614 -0.70564,0 -0.90035,-1.18635 -0.53342,-3.25 z m -10.2912,1.75 c -0.47446,-2.85966 -2.15675,-24.48815 -2.7029,-34.75 -0.54741,-10.28537 -0.42928,-11.75 0.94771,-11.75 0.86519,0 1.80768,0.37961 2.09443,0.84358 0.93796,1.51765 1.5082,38.55373 0.65678,42.65642 -0.45656,2.2 -0.90477,3.55 -0.99602,3 z m 103.35458,-7.57507 c -4.46343,-1.29601 -6.64667,-4.24238 -7.16861,-9.67431 -0.40224,-4.18622 -0.12309,-5.10487 2.28218,-7.51013 2.61858,-2.61858 5.12353,-3.30636 10.33994,-2.83901 6.5083,0.58309 10.6616,8.23183 7.64135,14.07235 -1.21892,2.35714 -8.27156,7.38784 -9.72369,6.93598 -0.15941,-0.0496 -1.67644,-0.4928 -3.37117,-0.98488 z M 120.45021,145.53739 c -6.50857,-17.09799 -6.74525,-17.97848 -5.18156,-19.27622 1.84003,-1.5271 2.76565,0.46484 6.57978,14.15981 5.73659,20.59777 5.21772,22.49645 -1.39822,5.11641 z m -80.567144,5.89503 c -1.648533,-1.26793 -2.505458,-3.15437 -2.859428,-6.29479 -0.700304,-6.21307 2.361569,-9.83083 8.948661,-10.57329 4.212968,-0.47486 4.967088,-0.22846 7.717003,2.52146 4.163061,4.16306 4.210285,9.1929 0.124671,13.27851 -2.341451,2.34145 -3.784037,2.91866 -7.25,2.90084 -2.613231,-0.0134 -5.259226,-0.73929 -6.680907,-1.83273 z m 189.138114,-9.92028 c -5.39491,-0.86409 -9.11099,-9.94272 -6.25449,-15.28014 1.36947,-2.55887 6.14853,-4.94461 9.90492,-4.94461 4.1567,0 8.98112,4.49094 9.66831,9 0.93456,6.13224 -6.4192,12.32984 -13.31874,11.22475 z M 60.827198,135.41391 c -3.811709,-1.06628 -6.590148,-5.61389 -6.590148,-10.78643 0,-6.40835 3.484538,-9.34009 11.101218,-9.34009 7.224164,0 10.398782,2.81843 10.398782,9.23204 0,5.19354 -2.099161,8.49362 -6.598574,10.37359 -3.588915,1.49955 -4.588763,1.56221 -8.311278,0.52089 z M 204.39335,125.15486 c -3.03532,-1.7644 -4.72564,-7.03247 -3.58358,-11.16866 1.92244,-6.96252 11.73043,-9.90189 17.03175,-5.10427 4.20542,3.80586 2.98635,12.12716 -2.32126,15.84476 -2.54822,1.78483 -8.40527,2.01022 -11.12691,0.42817 z M 81.962124,119.28319 c -3.271125,-1.9944 -5.514277,-5.85947 -4.780544,-8.23712 0.213633,-0.69227 0.657529,-2.488 0.986434,-3.99049 1.287448,-5.88128 11.981072,-7.548084 17.167329,-2.67585 5.647377,5.30544 1.012803,16.91259 -6.749503,16.90392 -1.841834,-0.002 -4.822507,-0.90226 -6.623716,-2.00046 z m 98.669576,-3.65727 c -2.41645,-0.64645 -4.18997,-4.72966 -4.29807,-9.89553 -0.0812,-3.88056 0.35,-4.99934 2.70918,-7.029064 5.61445,-4.83039 13.65448,-1.98901 15.68244,5.542224 2.31271,8.58876 -4.36788,13.9842 -14.09355,11.38237 z m -70.79825,-4.60327 c -3.37879,-1.73643 -6.3464,-6.06035 -6.3464,-9.24694 0,-1.67566 1.15568,-3.855544 3.04648,-5.746344 3.77068,-3.770675 10.6742,-4.434958 14.07855,-1.35469 4.60097,4.16297 3.48421,13.341344 -1.96622,16.159874 -3.41515,1.76604 -5.64922,1.81372 -8.81241,0.1881 z m 47.65458,-1.39335 c -4.57376,-1.89712 -5.99595,-5.79802 -4.31734,-11.841914 0.87026,-3.13344 1.92626,-4.40066 4.8744,-5.849436 6.9802,-3.430208 13.69196,0.800026 13.69196,8.62967 0,4.51968 -1.7737,7.06571 -6.68426,9.59481 -2.70931,1.39538 -2.9575,1.37789 -7.56476,-0.53313 z m -25.50098,-2.27469 c -3.37035,-2.11329 -3.68492,-3.00604 -3.29928,-9.363354 0.47674,-7.859005 8.98772,-11.781904 15.38271,-7.090234 10.75612,7.891204 -0.75061,23.559528 -12.08343,16.453588 z"
           id="path845"
           inkscape:connector-curvature="0" />
        <path
           style="fill:#ff00ff"
           d="m 147.25906,296.53738 c -0.38058,-0.9625 -0.91639,-12.26255 -1.19068,-25.11123 -0.40975,-19.19382 -0.2608,-23.28008 0.83498,-22.90633 0.75125,0.25624 1.27137,1.72413 1.19098,3.36123 -0.0785,1.59848 0.24014,5.29787 0.70807,8.22087 0.46794,2.923 1.13986,12.7105 1.49316,21.75 0.55489,14.19737 0.439,16.43546 -0.85109,16.43546 -0.8214,0 -1.80484,-0.7875 -2.18542,-1.75 z m 10.97632,0.74729 c -1.79601,-2.906 -8.40138,-51.23367 -6.7811,-49.61339 1.95145,1.95145 9.33349,37.41382 9.5662,45.95479 0.11798,4.33034 -1.25515,6.13413 -2.7851,3.6586 z m -34.13396,-1.49015 c -0.53988,-1.4069 1.97838,-11.7144 8.18624,-33.50714 1.48839,-5.225 2.64124,-10.7375 2.56189,-12.25 -0.0794,-1.5125 0.31288,-2.75 0.87162,-2.75 1.2865,0 1.29409,3.49777 0.021,9.67371 -0.54719,2.65446 -2.3636,12.02629 -4.03648,20.82629 -1.67287,8.8 -3.2805,16.7875 -3.5725,17.75 -0.64889,2.13885 -3.24613,2.30451 -4.03177,0.25714 z m 11.31858,0.10902 c -0.6428,-1.67511 1.02749,-26.33577 1.93819,-28.61616 0.32948,-0.825 1.17046,-5.55 1.86886,-10.5 l 1.26981,-9 0.0447,16 c 0.0475,16.99108 -1.56473,32.59595 -3.43132,33.2124 -0.61974,0.20467 -1.38036,-0.28864 -1.69026,-1.09624 z m 31.96229,-1.38116 c -0.26004,-0.42075 -1.9004,-6.1515 -3.64524,-12.735 -1.74484,-6.5835 -3.37936,-12.30479 -3.63225,-12.71399 -1.24161,-2.00896 -3.07704,-14.85577 -2.07472,-14.52167 1.26991,0.42331 12.70697,34.98654 12.70697,38.40097 0,2.21597 -2.29242,3.2886 -3.35476,1.56969 z m -53.97857,-0.90171 c -0.36667,-0.36662 -0.66667,-1.51119 -0.66667,-2.54344 0,-2.16225 8.68835,-24.26791 12.4759,-31.74229 1.40451,-2.77167 2.89778,-6.69566 3.31837,-8.71998 0.42059,-2.02432 1.38218,-3.8864 2.13686,-4.13796 0.95853,-0.31951 1.19202,0.11051 0.77459,1.4265 -0.32867,1.03613 -1.31763,4.13388 -2.19769,6.88388 -0.88007,2.75 -3.90252,12.2 -6.71656,21 -5.77289,18.05288 -6.83314,20.125 -9.1248,17.83333 z m 63.39825,-3.75511 c -0.63894,-0.76987 -1.42183,-3.12741 -1.73978,-5.23899 -0.31794,-2.11158 -1.36819,-4.51423 -2.33389,-5.33923 -1.6926,-1.446 -7.26148,-14.98044 -8.97934,-21.82311 -0.45885,-1.82771 -1.46222,-4.07771 -2.22973,-5 -0.7675,-0.92229 -1.92282,-2.91439 -2.56738,-4.42689 -0.95584,-2.24296 -0.91569,-2.75 0.21776,-2.75 1.71167,0 17.56744,32.0506 17.56744,35.51054 0,0.69346 0.67223,2.54978 1.49384,4.12515 0.82161,1.57537 1.49661,3.40025 1.5,4.05529 0.01,1.90383 -1.66433,2.41098 -2.92892,0.88724 z m -76.53918,-2.53652 c -0.67335,-1.08951 12.25227,-22.04165 13.59776,-22.04165 0.48208,0 0.8765,-0.86553 0.8765,-1.9234 0,-1.05788 1.61721,-4.04207 3.5938,-6.63154 1.97659,-2.58948 4.36088,-6.08121 5.29842,-7.75941 1.71828,-3.07572 4.10778,-4.72247 4.10778,-2.83092 0,1.35998 -12.21288,23.94717 -16.78025,31.03436 -3.92453,6.08969 -8.14898,11.11091 -9.34782,11.11091 -0.41464,0 -1.02043,-0.43126 -1.34619,-0.95835 z m 83.32851,-4.25168 c -4.73286,-7.35137 -5.4424,-8.60454 -8.37405,-14.78997 -1.43373,-3.025 -3.73139,-7.6375 -5.1059,-10.25 -3.23773,-6.15385 -1.74759,-6.15257 2.07459,0.002 1.6219,2.61151 4.4344,6.59456 6.25,8.8512 1.81561,2.25665 3.30111,4.42797 3.30111,4.82517 0,0.3972 1.83917,3.81795 4.08703,7.60168 3.69729,6.22344 4.2969,8.97016 1.9582,8.97016 -0.46021,0 -2.34615,-2.34451 -4.19098,-5.21003 z m 10.95781,-1.03997 c -2.58862,-2.06075 -14.03378,-17.76302 -18.28107,-25.08086 -2.18055,-3.75697 -4.76241,-7.25781 -5.73746,-7.77964 -1.5482,-0.82857 -4.79353,-5.79782 -4.79353,-7.33984 0,-2.02186 3.07944,0.29682 6.27119,4.72191 2.07415,2.87563 5.33665,7.02351 7.25,9.2175 1.91334,2.19399 3.47881,4.34154 3.47881,4.77234 0,0.4308 1.71149,2.68572 3.80331,5.01093 5.29673,5.88769 11.19669,14.43989 11.19669,16.22997 0,1.82551 -1.09872,1.91087 -3.18794,0.24769 z m -104.114331,-1.3856 c -1.003536,-1.00354 1.354245,-4.31056 12.380161,-17.3644 13.36126,-15.81871 18.74145,-21.51399 19.5551,-20.70035 1.05078,1.05079 -0.96343,4.64848 -5.78233,10.32813 -2.39286,2.82029 -6.15066,7.50458 -8.35066,10.40955 -11.352905,14.99084 -15.805123,19.32421 -17.802271,17.32707 z m -8.279614,-6.49689 c -0.404012,-0.65371 1.579206,-3.38954 4.690983,-6.47118 6.868633,-6.80211 24.014782,-22.11361 27.062812,-24.16708 l 2.32809,-1.56844 -2.08062,2.41959 c -17.136738,19.92869 -27.977096,30.9196 -30.496053,30.9196 -0.442911,0 -1.120256,-0.50962 -1.505212,-1.13249 z m 110.911295,-9.11751 c -17.31129,-17.78966 -23.32941,-24.41126 -23.32941,-25.66883 0,-0.69707 2.22185,0.59283 4.93743,2.86645 8.15336,6.82637 30.06257,29.17448 30.06257,30.6648 0,3.04321 -3.07243,0.97333 -11.67059,-7.86242 z m -117.32941,0.95295 c 0,-2.37555 7.972131,-9.12506 27.16174,-22.99617 9.90603,-7.16052 13.83826,-9.08241 13.83826,-6.76348 0,0.51881 -0.90958,1.58038 -2.02128,2.35905 -1.1117,0.77867 -3.6992,2.95595 -5.75,4.8384 -2.0508,1.88245 -5.52872,4.75085 -7.72872,6.37422 -2.2,1.62337 -6.475,5.04047 -9.5,7.59355 -5.926374,5.00182 -13.3315,9.89148 -14.980128,9.89148 -0.56093,0 -1.019872,-0.58367 -1.019872,-1.29705 z m 133.29969,-0.0216 c -0.43983,-0.72529 -3.04969,-2.81572 -5.79969,-4.6454 -2.75,-1.82969 -5.675,-4.10767 -6.5,-5.06218 -0.825,-0.95451 -3.75,-3.41524 -6.5,-5.4683 -5.06527,-3.78157 -15.5,-13.24824 -15.5,-14.06203 0,-1.32111 2.59833,0.29761 11.72843,7.30661 5.55244,4.2625 13.96,10.5859 18.68346,14.05199 4.72346,3.4661 8.58811,6.9536 8.58811,7.75 0,1.81054 -3.62037,1.91014 -4.70031,0.12931 z M 69.11276,258.82409 c -0.849302,-2.21324 -0.08703,-2.89281 9.859068,-8.78929 5.095872,-3.02106 10.840222,-6.42639 12.765222,-7.56741 11.67888,-6.92251 20.16697,-11.29101 21.24226,-10.93258 1.24426,0.41475 -36.760348,26.21533 -41.027937,27.85306 -1.675462,0.64297 -2.433297,0.49246 -2.838613,-0.56378 z m 137.62429,-6.23353 c -5.225,-3.12906 -11.975,-7.43704 -15,-9.5733 -3.025,-2.13627 -6.95693,-4.86191 -8.73762,-6.05699 -1.78069,-1.19509 -3.24319,-2.51796 -3.25,-2.93973 -0.014,-0.86722 7.76958,2.90422 15.98762,7.74661 3.025,1.78245 8.875,5.18576 13,7.56291 8.14289,4.69259 11,6.79966 11,8.11232 0,2.00319 -4.12234,0.46466 -13,-4.85182 z m -40,-2.30317 c -0.5887,-1.1 -0.84537,-2 -0.57037,-2 0.275,0 0.98167,0.9 1.57037,2 0.5887,1.1 0.84537,2 0.57037,2 -0.275,0 -0.98167,-0.9 -1.57037,-2 z m -102,-1.55103 c 0,-0.85306 1.6875,-2.24977 3.75,-3.1038 2.0625,-0.85403 8.435037,-3.78357 14.161193,-6.51008 12.215661,-5.81649 28.055877,-12.20135 28.692057,-11.56518 0.81481,0.81481 -1.96099,2.41224 -21.907726,12.60752 -19.396748,9.91417 -24.695524,11.75332 -24.695524,8.57154 z m 136.5,-9.06824 c -20.24188,-10.69948 -25.83122,-14.29263 -20.1682,-12.9653 7.09173,1.6622 39.01858,17.35512 41.38617,20.34244 1.17839,1.48684 0.88689,3.26706 -0.52699,3.2183 -0.38004,-0.0131 -9.69098,-4.78105 -20.69098,-10.59544 z m -37,6.61927 c -0.33992,-0.55 -0.14148,-1 0.44098,-1 0.58246,0 1.05902,0.45 1.05902,1 0,0.55 -0.19844,1 -0.44098,1 -0.24254,0 -0.7191,-0.45 -1.05902,-1 z m -27.3,-5.2 c -3.16152,-3.16152 -0.0397,-7.82694 4.15912,-6.21569 2.26349,0.86859 2.06816,5.11665 -0.29338,6.38051 -2.4106,1.29011 -2.41082,1.2901 -3.86574,-0.16482 z m 14.40879,-1.67979 c -2.29107,-2.5316 -0.58734,-6.40794 2.60674,-5.93089 2.93338,0.4381 4.58018,3.32488 3.17217,5.56068 -1.57072,2.49418 -3.73147,2.63261 -5.77891,0.37021 z m -91.113728,-0.1282 c -0.705851,-1.14209 2.126873,-3.90205 4.064614,-3.96021 0.582823,-0.0175 6.657823,-1.8888 13.5,-4.15846 16.324808,-5.41521 31.749384,-9.73095 32.411654,-9.06867 1.84801,1.848 -0.45198,2.84489 -26.951933,11.68177 -18.780995,6.26286 -22.070209,7.04938 -23.024335,5.50557 z m 162.504938,0.35592 c -0.825,-0.27179 -2.4,-0.88243 -3.5,-1.35697 -8.15213,-3.51683 -25.13389,-9.99096 -26.20648,-9.99096 -0.72342,0 -3.22291,-0.83626 -5.55442,-1.85836 -2.3315,-1.0221 -5.54506,-2.39364 -7.14123,-3.04788 -1.8521,-0.75913 -2.55513,-1.5365 -1.94309,-2.14854 1.01259,-1.01259 46.19049,13.85155 48.87709,16.08123 2.67198,2.21754 -0.27114,3.72518 -4.53187,2.32148 z m -98.61047,-3.7752 c -1.06904,-2.78588 0.0626,-6.06588 2.19798,-6.37099 3.14721,-0.44966 4.97459,2.26917 3.58095,5.32787 -1.23761,2.71626 -4.88429,3.3745 -5.77893,1.04312 z m 37.27714,-4.23938 c -1.04352,-1.04351 -0.78152,-4.81848 0.41766,-6.01766 2.80045,-2.80045 7.42437,2.16153 4.87584,5.23232 -1.25408,1.51107 -4.13967,1.93918 -5.2935,0.78534 z M 57.73705,227.85478 c 0,-1.52381 1.389484,-2.12333 7,-3.02032 5.641977,-0.90202 29.991366,-5.36778 36.30159,-6.65783 4.31796,-0.88276 6.091,-0.89665 6.93333,-0.0543 0.62246,0.62246 0.93675,1.31869 0.69841,1.54717 -0.46599,0.44674 -13.195283,3.27359 -32.352198,7.1846 -13.843767,2.82627 -18.581132,3.0814 -18.581132,1.00068 z m 88.04568,-1.01235 c -1.82073,-2.19384 -0.89583,-6.00501 1.54183,-6.3533 3.14721,-0.44966 4.97459,2.26917 3.58095,5.32787 -1.26391,2.774 -3.3286,3.18728 -5.12278,1.02543 z m 65.95432,-2.17288 c -7.425,-1.32074 -15.77158,-2.80864 -18.54796,-3.30645 -2.77638,-0.4978 -6.60138,-1.61869 -8.5,-2.49087 -3.43064,-1.57594 -3.40555,-1.58231 4.04796,-1.02715 6.84247,0.50964 35.37265,4.78476 40.75,6.10621 1.2375,0.3041 2.25,1.17913 2.25,1.94451 0,1.89743 -3.72223,1.66921 -20,-1.22625 z m -94.25,0.53774 c -3.72127,-2.16744 -1.05715,-7.38489 3.44496,-6.74666 2.64888,0.3755 3.67004,4.07958 1.75936,6.3818 -1.39792,1.68439 -2.77328,1.78081 -5.20432,0.36486 z m 13.63404,-2.36149 c -1.01246,-2.63844 0.10335,-5.05371 2.49151,-5.39307 3.14348,-0.4467 4.51951,1.12447 3.73218,4.26144 -0.4794,1.91009 -1.29327,2.57322 -3.15817,2.57322 -1.38178,0 -2.76126,-0.64871 -3.06552,-1.44159 z m -73.63404,-4.19745 c -2.418401,-0.70149 -2.189464,-2.22392 0.5,-3.325 2.241677,-0.91775 33.885063,-3.04544 45.2,-3.03923 8.79111,0.005 5.6398,1.59064 -5.95,2.99417 -22.649815,2.74291 -37.555425,4.00663 -39.75,3.37006 z m 109.98074,-0.62025 c -0.28861,-0.75211 -0.28897,-2.60083 -8.1e-4,-4.10826 0.42779,-2.23785 0.98677,-2.68498 3.04614,-2.43662 3.29672,0.39757 5.1068,3.17636 3.61795,5.55417 -1.36298,2.1768 -5.94661,2.85831 -6.66328,0.99071 z m -14.12025,-2.31336 c -0.86832,-2.26283 1.22852,-4.5933 3.802,-4.22561 1.48048,0.21153 2.08751,1.02525 2.08751,2.79826 0,1.95377 -0.57294,2.56644 -2.62225,2.8041 -1.73288,0.20095 -2.84102,-0.26599 -3.26726,-1.37675 z m -13.45714,-1.17735 c -1.57265,-3.00118 0.3751,-6.25 3.74704,-6.25 3.43436,0 4.85634,2.71752 3.11983,5.96223 -1.34851,2.51971 -5.60387,2.69804 -6.86687,0.28777 z m -22.86559,-1.12257 c -1.86969,-1.25648 -2.18263,-4.0897 -0.62389,-5.64844 2.41361,-2.41361 4.79154,-1.41958 5.13974,2.14855 0.23312,2.38876 -0.14752,3.22913 -1.6393,3.61924 -1.0686,0.27945 -2.36305,0.22574 -2.87655,-0.11935 z m 70.71224,-1.23148 c -4.29677,-0.77669 -3.61856,-0.85711 12,-1.42283 32.91113,-1.19209 36.95665,-0.99692 32.97104,1.59068 -1.59038,1.03253 -39.10494,0.89251 -44.97104,-0.16785 z m -59.8,-2.09595 c -3.20225,-3.20225 0.17694,-7.86055 4.32961,-5.96846 3.85245,1.75529 2.69738,7.16846 -1.52961,7.16846 -0.88,0 -2.14,-0.54 -2.8,-1.2 z m -39.283333,-1.18483 c -0.229167,-0.21166 -6.434343,-0.66693 -13.78928,-1.01172 -15.158164,-0.7106 -18.127387,-1.23669 -18.127387,-3.21186 0,-1.85828 7.245545,-1.82108 30.942919,0.1589 20.048351,1.6751 21.503191,1.91867 20.561451,3.44245 -0.57323,0.9275 -18.63592,1.50129 -19.587703,0.62223 z m 93.537073,-1.69002 c -0.87931,-1.42276 0.50654,-1.7072 21.54626,-4.4222 10.725,-1.38398 21.35416,-2.78974 23.62035,-3.12392 4.16406,-0.61403 6.60782,0.7928 4.69675,2.70387 -1.00597,1.00597 -17.39532,3.41048 -29.8171,4.37451 -16.9992,1.31927 -19.48415,1.37725 -20.04626,0.46774 z m -33.14427,-2.56107 c -0.82725,-2.15578 0.94923,-4.86408 3.19053,-4.86408 0.98011,0 2.24019,0.72633 2.80016,1.61408 1.52773,2.42194 0.1156,4.88592 -2.80016,4.88592 -1.45016,0 -2.83531,-0.71022 -3.19053,-1.63592 z m 18.34552,-0.19282 c -2.55238,-2.82035 -2.16004,-6.17126 0.72257,-6.17126 3.50822,0 5.19159,2.45545 3.7909,5.52961 -1.34307,2.94772 -2.30301,3.08418 -4.51347,0.64165 z m -73.15499,-2.73603 c -6.05,-1.26899 -16.068448,-3.02745 -22.263217,-3.9077 -6.19477,-0.88024 -11.93227,-1.85718 -12.75,-2.17098 -2.160572,-0.82908 -1.823249,-3.35655 0.447975,-3.35655 3.569094,0 21.458192,3.09783 32.853757,5.68924 6.208683,1.41188 11.495225,2.36036 11.747865,2.10772 0.25264,-0.25265 -5.27719,-2.38484 -12.288518,-4.73821 -23.954333,-8.04033 -32.247862,-11.59113 -32.247862,-13.8066 0,-2.15233 5.300268,-0.93725 18.5,4.24107 6.05,2.37344 15.8375,6.19255 21.75,8.4869 6.68175,2.59286 10.75,4.71051 10.75,5.59571 0,0.78329 -0.45,1.42417 -1,1.42417 -0.55,0 -1,0.675 -1,1.5 0,1.8581 -0.86932,1.79426 -14.5,-1.06477 z m 24.7,0.36477 c -0.66,-0.66 -1.2,-2.1799 -1.2,-3.37756 0,-5.10784 7.24597,-6.13789 7.82226,-1.11197 0.53938,4.70407 -3.60086,7.51093 -6.62226,4.48953 z m 19.46667,0.53333 c -1.35435,-1.35434 -0.65817,-6.39936 0.96925,-7.02386 2.07824,-0.7975 4.75708,0.86003 5.22282,3.23162 0.54384,2.76922 -4.2681,5.71622 -6.19207,3.79224 z m 48.86289,-1.28549 c -0.30139,-0.48766 0.91867,-1.3378 2.71123,-1.8892 1.79257,-0.5514 7.53421,-2.3443 12.75921,-3.98421 12.05701,-3.78422 24.58464,-7.17443 26.51116,-7.17443 1.59471,0 2.05833,2.53 0.62585,3.41532 -0.95997,0.5933 -33.79424,8.97792 -38.84824,9.92036 -1.76617,0.32935 -3.45782,0.19982 -3.75921,-0.28784 z m -6.52956,-3.02259 c 0,-1.37172 2.14058,-2.49448 20.60027,-10.80501 17.60112,-7.92401 26.39973,-10.71396 26.39973,-8.3711 0,1.81372 -4.02764,3.93281 -19.15099,10.07605 -15.59431,6.33455 -27.84901,10.33895 -27.84901,9.10006 z m -71,-2.78308 c -0.825,-0.26837 -9.75822,-4.56403 -19.8516,-9.54591 -18.220377,-8.99321 -27.1484,-14.15088 -27.1484,-15.68351 0,-2.39302 3.947323,-1.62382 10.850953,2.1145 4.206976,2.27808 10.574047,5.69365 14.149047,7.59016 11.09821,5.88752 23.93576,13.36963 24.49686,14.27751 0.72062,1.16599 -0.64682,1.84906 -2.49686,1.24725 z m 45.41645,-1.59931 c -1.213,-3.16103 -0.0118,-6.14286 2.47456,-6.14286 3.1098,0 5.00842,2.8465 3.50175,5.25 -1.42245,2.26914 -5.2299,2.83798 -5.97631,0.89286 z m 23.28314,0.25755 c 1.07685,-1.07685 3.0392,-2.33514 20.30041,-13.01696 10.35352,-6.40711 20.78324,-11.88345 22.63209,-11.88345 5.51563,0 -5.48885,7.52607 -29.7835,20.36922 -9.87443,5.22003 -15.92178,7.30397 -13.149,4.53119 z m -50.31555,-2.342 c -0.86322,-2.24952 -0.0566,-4.73866 1.92861,-5.95123 2.5739,-1.57216 6.15065,2.65862 4.63765,5.48568 -1.20353,2.24882 -5.75804,2.57174 -6.56626,0.46555 z M 99.21088,182.71109 C 83.201002,171.84957 69.73705,161.29044 69.73705,159.59617 c 0,-3.80677 5.374223,-0.54349 32.25,19.58253 11.84984,8.8738 14.87073,12.10869 11.30765,12.10869 -0.79329,0 -7.13101,-3.85934 -14.08382,-8.5763 z m 43.00858,6.91585 c -1.6346,-1.6346 -1.77697,-2.40836 -0.87542,-4.75776 0.81568,-2.12562 5.98757,-2.08074 6.8087,0.0591 1.57625,4.10765 -2.94435,7.6876 -5.93328,4.69867 z m 34.23971,0.0492 c -0.99267,-0.99266 9.92694,-9.60288 27.77788,-21.90315 4.4,-3.03184 9.0336,-6.2503 10.29689,-7.15214 3.31192,-2.36431 5.33226,-0.2436 2.62948,2.76011 -2.50625,2.78531 -37.62493,26.64686 -39.5097,26.84506 -0.32084,0.0337 -0.85838,-0.21371 -1.19455,-0.54988 z m -74.72212,-15.98161 c -6.875,-6.32923 -15.058183,-13.62256 -18.184851,-16.20741 -7.411253,-6.12696 -8.82665,-9.20006 -3.611719,-7.84174 2.266275,0.5903 21.55259,18.71357 31.8103,29.89201 8.82394,9.61598 3.23738,6.35631 -10.01373,-5.84286 z m 72.00456,10.84286 c 0.005,-0.87946 31.49001,-31.34658 33.69252,-32.60362 0.91394,-0.52162 1.94437,-0.39677 2.6493,0.32098 0.87471,0.89063 0.60965,1.61929 -1.09638,3.01392 -1.2375,1.01162 -2.25,2.31051 -2.25,2.88642 0,0.98194 -5.56695,5.81391 -20.31435,17.6323 -3.43154,2.75 -7.32448,6.0125 -8.65097,7.25 -2.44009,2.27639 -4.03845,2.87129 -4.03012,1.5 z m -5.00456,-2.23649 c 0,-3.85169 28.12369,-38.93773 31.25,-38.98632 3.75658,-0.0584 1.66241,4.01309 -7.14073,13.88297 -3.6351,4.07558 -10.10846,11.50058 -14.38525,16.5 -7.73726,9.04458 -9.72402,10.80237 -9.72402,8.60335 z m -58,-8.75542 c -12.852286,-14.84999 -25,-30.30947 -25,-31.81561 0,-3.72258 2.971087,-1.19805 13.60186,11.55752 16.11657,19.33782 22.75259,29.11951 19.64814,28.96193 -0.4125,-0.0209 -4.125,-3.93766 -8.25,-8.70384 z m 8.18266,1.83537 c -1.74004,-2.40206 -4.80575,-7.34325 -6.81269,-10.98042 -2.00693,-3.63717 -4.224,-7.28804 -4.92682,-8.11304 -1.69626,-1.99116 -9.273468,-15.4235 -10.458177,-18.53952 -0.793612,-2.08736 -0.642707,-2.46048 0.99512,-2.46048 1.344117,0 3.205147,2.20239 6.126277,7.25 2.30762,3.9875 5.25272,8.92785 6.54465,10.97856 1.29194,2.05071 2.34898,4.35811 2.34898,5.12756 0,0.76944 0.63622,1.927 1.41381,2.57235 2.08342,1.72908 8.87328,15.71025 8.36708,17.22885 -0.25886,0.7766 -1.71339,-0.46192 -3.59823,-3.06386 z m 46.81734,2.73509 c 0,-1.66006 16.95946,-31.59778 20.6145,-36.38978 2.92558,-3.83563 5.92669,-4.71928 4.8854,-1.43846 -2.77134,8.73172 -25.4999,42.44877 -25.4999,37.82824 z m -6,-0.82718 c 0,-0.54925 1.8,-4.99618 4,-9.88208 2.2,-4.88589 4,-9.13471 4,-9.44181 0,-0.3071 2.18086,-5.19766 4.84635,-10.86792 2.66549,-5.67026 5.12637,-11.09706 5.46862,-12.05956 0.34224,-0.9625 1.31138,-1.75 2.15365,-1.75 0.84226,0 1.55601,0.7875 1.58611,1.75 0.0645,2.06285 -20.20646,43.19177 -21.30473,43.22637 -0.4125,0.013 -0.75,-0.42575 -0.75,-0.975 z m -33.71082,-1.26238 c -2.06178,-2.72501 -19.14076,-37.46923 -20.0258,-40.73899 -0.97005,-3.58387 -0.69784,-6 0.676,-6 1.07549,0 16.06062,30.48386 16.06062,32.6717 0,0.52395 0.9,2.81543 2,5.09216 1.1,2.27674 2,4.74627 2,5.48783 0,0.74157 0.48921,1.83752 1.08713,2.43544 0.68697,0.68697 0.72867,1.30868 0.11331,1.68899 -0.5356,0.33102 -1.39567,0.0443 -1.91126,-0.63713 z m 29.10734,-2.83585 c 1.50779,-9.46917 12.49273,-43.64666 14.24447,-44.31887 3.64933,-1.40038 2.84585,3.24582 -3.37293,19.50449 -2.19022,5.72618 -5.19564,14.33709 -6.67872,19.13534 -3.00948,9.73664 -5.34197,12.89592 -4.19282,5.67904 z m -27.3924,-4.65314 c -1.25797,-4.2625 -2.52023,-8.3739 -2.80502,-9.13645 -0.30824,-0.82535 0.001,-1.21339 0.76504,-0.95884 0.70557,0.23519 2.33479,4.0091 3.6205,8.38645 2.66357,9.06847 2.72799,9.45884 1.56103,9.45884 -0.46988,0 -1.88357,-3.4875 -3.14155,-7.75 z m 5.66568,7 c -0.24653,-0.4125 -0.96547,-5.025 -1.59764,-10.25 -0.63217,-5.225 -1.56178,-11.75 -2.06579,-14.5 -1.93032,-10.53216 -3.24747,-24.6589 -2.38004,-25.52633 2.28889,-2.28889 3.53263,1.24436 4.95244,14.069 0.81369,7.34979 1.30817,13.83442 1.09883,14.41029 -0.20933,0.57587 0.20304,4.87204 0.91639,9.54704 1.58849,10.41042 1.68113,13 0.46503,13 -0.51754,0 -1.14269,-0.3375 -1.38922,-0.75 z m 10.71455,-17 c 1.17566,-27.67624 2.04778,-34.25 4.54384,-34.25 2.37601,0 2.21358,5.33665 -1.01959,33.5 -1.48463,12.93216 -2.00499,15.5 -3.141,15.5 -0.66242,0 -0.79427,-5.07412 -0.38325,-14.75 z m 6.06315,11.5 c 0.29597,-1.7875 1.45162,-10 2.5681,-18.25 2.73437,-20.20494 3.81408,-25.22066 5.57452,-25.89621 3.25248,-1.24809 2.95855,4.60171 -1.04997,20.89621 -0.81181,3.3 -2.48256,10.6125 -3.71278,16.25 -1.23021,5.6375 -2.61503,10.25 -3.07737,10.25 -0.46234,0 -0.59847,-1.4625 -0.3025,-3.25 z m -10.40285,1.25 c -0.31979,-0.99889 -2.06634,-23.7787 -2.66432,-34.75 -0.53171,-9.75548 -0.40738,-11.25 0.93587,-11.25 0.85196,0 1.813,0.83171 2.13564,1.84825 0.97956,3.08632 1.46202,37.4063 0.5785,41.15175 -0.45409,1.925 -0.89765,3.275 -0.98569,3 z m -19.16978,-25.5 c -6.7554,-17.73813 -6.89279,-18.24024 -5.34327,-19.52622 1.81788,-1.50871 2.68613,0.32658 5.92599,12.52622 1.46064,5.5 3.12006,11.20191 3.68761,12.6709 0.56755,1.469 0.86718,3.494 0.66584,4.5 -0.20135,1.00601 -2.42262,-3.5709 -4.93617,-10.1709 z"
           id="path843"
           inkscape:connector-curvature="0"
           sodipodi:nodetypes="sscccssscscccscsccccccsccccccsccsccssssccscccccsccssscccssccsssccsccsscscccsssscsssccsccsccscccscsscsssssssssssccsssscsccsscccccccscscsssssssscssssscsssssssscsccccscscsscssccscccccccsccssccccssccssccccsssccscccsccccsccccccccscccscccscccssssscsscssscccscssccscscsscssccsscsssssssssscsccccsccsccsssssscssssscsscsssssssccssssssccscccsccccsscsscccsssscsccssssscscccssccscccsssssssscsccsccsscssccsccssccccscsscssccssssssssscccssssscssscsccs" />
        <path
           style="fill:#00ffff"
           d="m 136.93705,241.08739 c -3.16152,-3.16152 -0.0397,-7.82694 4.15912,-6.21569 2.26349,0.86859 2.06816,5.11665 -0.29338,6.38051 -2.4106,1.29011 -2.41082,1.2901 -3.86574,-0.16482 z m 14.40879,-1.67979 c -2.29107,-2.5316 -0.58734,-6.40794 2.60674,-5.93089 2.93338,0.4381 4.58018,3.32488 3.17217,5.56068 -1.57072,2.49418 -3.73147,2.63261 -5.77891,0.37021 z m -34.70617,-3.55092 c 0.26308,0.26308 -0.26308,-0.26308 0,0 z m 7.48691,0.003 c -1.06904,-2.78588 0.0626,-6.06588 2.19798,-6.37099 3.14721,-0.44966 4.97459,2.26917 3.58095,5.32787 -1.23761,2.71626 -4.88429,3.3745 -5.77893,1.04312 z m 37.27714,-4.23938 c -1.04352,-1.04351 -0.78152,-4.81848 0.41766,-6.01766 2.80045,-2.80045 7.42437,2.16153 4.87584,5.23232 -1.25408,1.51107 -4.13967,1.93918 -5.2935,0.78534 z m -15.62099,-4.77831 c -1.82073,-2.19384 -0.89583,-6.00501 1.54183,-6.3533 3.14721,-0.44966 4.97459,2.26917 3.58095,5.32787 -1.26391,2.774 -3.3286,3.18728 -5.12278,1.02543 z m -28.29568,-1.63514 c -3.72127,-2.16744 -1.05715,-7.38489 3.44496,-6.74666 2.64888,0.3755 3.67004,4.07958 1.75936,6.3818 -1.39792,1.68439 -2.77328,1.78081 -5.20432,0.36486 z m 13.63404,-2.36149 c -1.01246,-2.63844 0.10335,-5.05371 2.49151,-5.39307 3.14348,-0.4467 4.51951,1.12447 3.73218,4.26144 -0.4794,1.91009 -1.29327,2.57322 -3.15817,2.57322 -1.38178,0 -2.76126,-0.64871 -3.06552,-1.44159 z m 36.3467,-4.8177 c -0.28861,-0.75211 -0.28897,-2.60083 -8.1e-4,-4.10826 0.42779,-2.23785 0.98677,-2.68498 3.04614,-2.43662 3.29672,0.39757 5.1068,3.17636 3.61795,5.55417 -1.36298,2.1768 -5.94661,2.85831 -6.66328,0.99071 z m -14.12025,-2.31333 c -0.86832,-2.26283 1.22852,-4.5933 3.802,-4.22561 1.48048,0.21153 2.08751,1.02525 2.08751,2.79826 0,1.95377 -0.57294,2.56644 -2.62225,2.8041 -1.73288,0.20095 -2.84102,-0.26599 -3.26726,-1.37675 z m -13.45714,-1.17738 c -1.57265,-3.00118 0.3751,-6.25 3.74704,-6.25 3.43436,0 4.85634,2.71752 3.11983,5.96223 -1.34851,2.51971 -5.60387,2.69804 -6.86687,0.28777 z m -22.86559,-1.12257 c -1.86969,-1.25648 -2.18263,-4.0897 -0.62389,-5.64844 2.41361,-2.41361 4.79154,-1.41958 5.13974,2.14855 0.23312,2.38876 -0.14752,3.22913 -1.6393,3.61924 -1.0686,0.27945 -2.36305,0.22574 -2.87655,-0.11935 z m 10.91224,-3.32743 c -3.20225,-3.20225 0.17694,-7.86055 4.32961,-5.96846 3.85245,1.75529 2.69738,7.16846 -1.52961,7.16846 -0.88,0 -2.14,-0.54 -2.8,-1.2 z m 21.10947,-5.43592 c -0.82725,-2.15578 0.94923,-4.86408 3.19053,-4.86408 0.98011,0 2.24019,0.72633 2.80016,1.61408 1.52773,2.42194 0.1156,4.88592 -2.80016,4.88592 -1.45016,0 -2.83531,-0.71022 -3.19053,-1.63592 z m 18.34552,-0.19282 c -2.55238,-2.82035 -2.16004,-6.17126 0.72257,-6.17126 3.50822,0 5.19159,2.45545 3.7909,5.52961 -1.34307,2.94772 -2.30301,3.08418 -4.51347,0.64165 z m -48.45499,-2.37126 c -0.66,-0.66 -1.2,-2.1799 -1.2,-3.37756 0,-5.10784 7.24597,-6.13789 7.82226,-1.11197 0.53938,4.70407 -3.60086,7.51093 -6.62226,4.48953 z m 19.46667,0.53333 c -1.35435,-1.35434 -0.65817,-6.39936 0.96925,-7.02386 2.07824,-0.7975 4.75708,0.86003 5.22282,3.23162 0.54384,2.76922 -4.2681,5.71622 -6.19207,3.79224 z m 16.74978,-8.69049 c -1.213,-3.16103 -0.0118,-6.14286 2.47456,-6.14286 3.1098,0 5.00842,2.8465 3.50175,5.25 -1.42245,2.26914 -5.2299,2.83798 -5.97631,0.89286 z m -27.03241,-2.08443 c -0.86322,-2.24952 -0.0566,-4.73866 1.92861,-5.95123 2.5739,-1.57216 6.15065,2.65862 4.63765,5.48568 -1.20353,2.24882 -5.75804,2.57174 -6.56626,0.46555 z m 14.09837,-2.21884 c -1.6346,-1.6346 -1.77697,-2.40836 -0.87542,-4.75776 0.81568,-2.12562 5.98757,-2.08074 6.8087,0.0591 1.57625,4.10765 -2.94435,7.6876 -5.93328,4.69867 z"
           id="path841"
           inkscape:connector-curvature="0"
           sodipodi:nodetypes="sscsccccsscccccsccsccssccscccsccccccccscccscccscccscsscscscsscssscsccccsscssccsccscc" />
      </g>
    </g>
  </g>
</svg>
