<?xml version="1.0" encoding="UTF-8" standalone="no"?>
<!-- Created with Inkscape (http://www.inkscape.org/) -->

<svg
   xmlns:dc="http://purl.org/dc/elements/1.1/"
   xmlns:cc="http://creativecommons.org/ns#"
   xmlns:rdf="http://www.w3.org/1999/02/22-rdf-syntax-ns#"
   xmlns:svg="http://www.w3.org/2000/svg"
   xmlns="http://www.w3.org/2000/svg"
   xmlns:sodipodi="http://sodipodi.sourceforge.net/DTD/sodipodi-0.dtd"
   xmlns:inkscape="http://www.inkscape.org/namespaces/inkscape"
   version="1.1"
   id="svg2949"
   width="283"
   height="443"
   viewBox="0 0 283 443"
   sodipodi:docname="feu129.svg"
   inkscape:version="0.92.4 (5da689c313, 2019-01-14)">
  <metadata
     id="metadata2955">
    <rdf:RDF>
      <cc:Work
         rdf:about="">
        <dc:format>image/svg+xml</dc:format>
        <dc:type
           rdf:resource="http://purl.org/dc/dcmitype/StillImage" />
        <dc:title></dc:title>
      </cc:Work>
    </rdf:RDF>
  </metadata>
  <defs
     id="defs2953" />
  <sodipodi:namedview
     pagecolor="#ffffff"
     bordercolor="#666666"
     borderopacity="1"
     objecttolerance="10"
     gridtolerance="10"
     guidetolerance="10"
     inkscape:pageopacity="0"
     inkscape:pageshadow="2"
     inkscape:window-width="1280"
     inkscape:window-height="972"
     id="namedview2951"
     showgrid="false"
     inkscape:zoom="1.5067919"
     inkscape:cx="144.21902"
     inkscape:cy="267.49357"
     inkscape:window-x="-8"
     inkscape:window-y="-8"
     inkscape:window-maximized="1"
     inkscape:current-layer="g928"
     showguides="true" />
  <g
     id="g151"
     transform="translate(25.882805,-2.654647)">
    <g
       id="g534"
       transform="translate(-21.900834,-45.792654)">
      <g
         id="g928"
         transform="translate(-3.9819699,-1.3273232)">
        <path
           style="fill:#00ff00;stroke-width:0.91299182"
           d="m 135.14065,468.28932 c -4.34039,-2.89452 -1.54997,-9.36414 4.03884,-9.36414 5.04018,0 7.02084,4.46301 4.02648,9.07285 -1.16676,1.79623 -5.57018,1.95526 -8.06532,0.29129 z m 16.36474,-2.34729 c -4.40214,-4.68588 -1.01784,-9.82182 5.3857,-8.17319 2.81134,0.72379 3.15847,1.16673 3.42338,4.36821 0.21449,2.59214 -0.14396,3.88358 -1.31574,4.7404 -2.42955,1.77652 -5.27986,1.42071 -7.49334,-0.93542 z m -32.57035,-4.46761 c -4.87524,-2.79595 -5.47969,-7.2712 -1.27573,-9.44516 2.34619,-1.21326 3.29306,-1.27419 5.51284,-0.35472 5.30454,2.19721 5.6433,8.15897 0.56421,9.92955 -1.53523,0.53518 -2.83273,0.96057 -2.88332,0.9453 -0.0506,-0.0153 -0.91371,-0.49901 -1.918,-1.07497 z m 48.84506,-4.37522 c -2.1975,-2.1975 -2.28309,-3.50605 -0.40473,-6.18779 1.4384,-2.05361 5.22944,-2.70605 7.46667,-1.28503 0.62012,0.39388 1.38006,1.97899 1.68876,3.52247 0.45372,2.26861 0.15504,3.09084 -1.55889,4.29132 -2.81986,1.97512 -4.97805,1.87279 -7.19181,-0.34097 z m -62.24034,-10.07612 c -0.83951,-0.48986 -1.81391,-2.19974 -2.16533,-3.79973 -0.5201,-2.368 -0.25985,-3.21603 1.39929,-4.55952 2.79504,-2.26329 5.15193,-2.06941 7.86858,0.64723 4.66563,4.66563 -1.27287,11.11371 -7.10254,7.71202 z m 36.62126,-0.93509 c -2.60871,-2.60871 -2.06144,-6.49734 1.06834,-7.59123 7.05421,-2.46549 12.437,5.38507 5.77391,8.42097 -3.2706,1.49019 -4.69506,1.31744 -6.84225,-0.82974 z m 37.5338,-2.17196 c -1.87154,-2.25507 -0.78501,-6.29778 2.05705,-7.65378 2.20075,-1.05001 2.87237,-1.01603 4.79321,0.24255 2.57593,1.68782 2.83358,3.811 0.81258,6.69637 -1.64141,2.34344 -5.97567,2.74778 -7.66284,0.71486 z m -20.68939,-4.14515 c -5.75813,-2.32663 -1.33259,-11.42919 4.48191,-9.21852 1.21976,0.46376 2.4511,1.45131 2.73631,2.19455 0.73262,1.9092 -0.3256,5.43443 -2.0257,6.74816 -1.67492,1.29428 -2.55611,1.34108 -5.19252,0.27581 z m -34.26933,-1.96105 c -4.02232,-1.47412 -3.93227,-5.92451 0.16425,-8.1169 1.31993,-0.70641 2.48712,-0.58552 4.52585,0.46875 3.36082,1.73794 3.70022,5.16766 0.71809,7.25643 -2.28904,1.60329 -2.13307,1.592 -5.40819,0.39172 z m 60.69604,-8.32863 c -1.23762,-1.97386 -1.2893,-8.29216 -0.0741,-9.0638 2.12134,-1.34707 5.13706,-0.75984 6.56461,1.27827 2.24914,3.21109 1.7862,5.95218 -1.27238,7.53383 -3.27008,1.69102 -4.28495,1.73997 -5.2181,0.2517 z m -45.7844,-1.3299 c -1.13385,-0.94929 -2.19613,-3.21183 -2.52787,-5.38414 -0.54108,-3.543 -0.39847,-3.85419 2.6214,-5.72057 3.51595,-2.17299 6.24814,-1.75526 8.98626,1.37393 2.67792,3.06038 2.85727,5.44196 0.59763,7.93606 -2.82922,3.12277 -7.13693,3.92166 -9.67742,1.79472 z m -38.74429,-1.25396 c -2.10225,-1.22445 -2.06042,-5.61609 0.0719,-7.5458 4.73532,-4.28541 12.0039,2.16233 7.50699,6.65924 -2.02121,2.02122 -5.0271,2.37284 -7.57888,0.88656 z m 60.4938,-5.66946 c -3.89286,-1.96956 -3.60464,-7.76546 0.47869,-9.62595 6.23521,-2.84095 10.2453,6.59005 4.1819,9.83508 -2.19924,1.177 -1.89382,1.1907 -4.66059,-0.20913 z m -39.06819,-3.61558 c -1.61631,-1.96644 -1.56978,-3.79359 0.16272,-6.39094 2.01986,-3.02816 6.71126,-3.46256 9.08364,-0.8411 1.96269,2.16874 1.90573,3.06025 -0.38125,5.96768 -2.07234,2.63455 -7.14433,3.35793 -8.86511,1.26436 z m 58.3174,-5.36936 c -3.5813,-3.84407 -1.52437,-8.09727 3.91597,-8.09727 2.7115,0 3.54631,0.44702 4.42133,2.36748 2.48008,5.44317 -4.2776,10.08737 -8.3373,5.72979 z m -76.0526,-3.76055 c -2.51129,-1.97409 -2.83839,-4.96049 -0.76988,-7.02899 2.36873,-2.36873 5.01181,-2.38552 7.35063,-0.0467 2.36385,2.36386 2.30167,3.25928 -0.415,5.97595 -2.50755,2.50755 -4.02951,2.77901 -6.16575,1.09974 z m 36.3182,-2.11945 c -2.12953,-2.12953 -1.81524,-6.41214 0.59443,-8.09995 2.72209,-1.90662 4.55949,-1.79022 7.43415,0.471 2.95153,2.32167 3.29624,6.69678 0.63965,8.11854 -2.61071,1.39721 -7.0311,1.14754 -8.66823,-0.48959 z m 28.69403,-7.69522 c -2.65687,-2.65686 -2.40369,-6.74761 0.49945,-8.07037 3.17607,-1.44712 4.45421,-1.33432 6.09849,0.53819 2.52474,2.87517 2.78406,5.45411 0.75269,7.48548 -2.36873,2.36873 -5.01181,2.38552 -7.35063,0.0468 z M 116.32205,391.503 c -0.83958,-0.92773 -1.38166,-2.63587 -1.20463,-3.79588 0.37588,-2.46301 3.75007,-5.47325 6.13498,-5.47325 2.39507,0 5.60319,4.41828 4.91038,6.76265 -1.24278,4.20534 -6.98067,5.66681 -9.84073,2.50648 z m 17.30614,-5.45224 c -2.39553,-4.63246 1.66308,-9.55961 6.48573,-7.87366 2.10957,0.73748 2.60933,1.50403 2.84607,4.36536 0.36083,4.36136 -1.03707,6.08235 -4.94046,6.08235 -2.43328,0 -3.33294,-0.52735 -4.39134,-2.57405 z m 20.63963,1.47846 c -0.60257,-0.60257 -1.09559,-2.66561 -1.09559,-4.58453 0,-2.80728 0.4328,-3.68613 2.21516,-4.49823 3.40976,-1.55359 6.57832,-0.31725 7.74199,3.02083 1.41956,4.07218 -0.63839,7.15752 -4.77414,7.15752 -1.6455,0 -3.48484,-0.49301 -4.08742,-1.09559 z m -29.25085,-44.32575 c -1.03444,-0.87875 -2.13573,-3.04748 -2.44733,-4.8194 -0.4646,-2.64203 -0.15226,-3.66867 1.73606,-5.7062 4.44282,-4.79388 12.43268,-1.9208 12.43268,4.47067 0,6.21123 -7.17464,9.91743 -11.72141,6.05493 z m 22.73466,-1.38294 c -3.20663,-1.62524 -4.23686,-6.34393 -2.15466,-9.86881 3.62642,-6.13903 13.96621,-3.71065 13.96621,3.28007 0,5.85276 -6.31425,9.37497 -11.81155,6.58874 z m -44.77072,-3.38704 c -4.5974,-4.5974 -2.40699,-11.17762 3.90004,-11.71614 3.71169,-0.31693 7.56544,1.75283 8.44941,4.53796 1.99209,6.27652 -7.64785,11.87978 -12.34945,7.17818 z m 67.48741,-1.4993 c -0.78112,-0.22849 -2.11373,-1.58941 -2.96132,-3.02427 -1.40231,-2.37394 -1.41597,-2.90826 -0.1517,-5.93409 2.20525,-5.27791 7.51038,-6.18468 12.06545,-2.06228 5.29449,4.79158 -1.52935,13.19189 -8.95243,11.02064 z m -90.835522,-8.24365 c -4.265211,-4.60225 -2.357816,-10.57056 3.769878,-11.7961 6.676366,-1.33526 10.701488,8.0555 5.280509,12.31964 -3.253787,2.55943 -6.359692,2.37976 -9.050387,-0.52354 z m 111.257192,-3.98257 c -2.28484,-0.92048 -3.96654,-5.81769 -3.26251,-9.50061 0.99754,-5.21829 9.40804,-6.28928 13.04822,-1.66154 3.08885,3.92683 1.97602,8.26043 -2.74859,10.70362 -2.98903,1.54568 -4.15066,1.62138 -7.03712,0.45853 z m -51.12175,-4.3496 c -1.09538,-0.86759 -2.26666,-3.09532 -2.60284,-4.95053 -0.51771,-2.85693 -0.25421,-3.73015 1.72184,-5.7062 5.99058,-5.99058 15.53831,1.16313 11.53527,8.64288 -0.50805,0.9493 -2.45957,2.15254 -4.33671,2.67386 -4.26636,1.18485 -3.94609,1.21831 -6.31756,-0.66001 z m -22.20269,-1.38363 c -3.10198,-1.56123 -3.65924,-7.03396 -0.98823,-9.70497 5.80064,-5.80064 15.36827,-1.08915 13.43448,6.61567 -0.95341,3.7987 -7.7064,5.47486 -12.44625,3.0893 z m 44.1472,-3.11937 c -2.45224,-0.46557 -4.58083,-2.77644 -5.29447,-5.74785 -0.38923,-1.62063 0.084,-3.06347 1.6319,-4.97581 3.00727,-3.71522 8.10524,-3.79581 11.21772,-0.17734 2.70672,3.14675 2.73598,5.33535 0.10994,8.22392 -2.21949,2.44139 -4.57442,3.26387 -7.66509,2.67708 z m -99.130826,-1.32301 c -3.572391,-1.30585 -5.027779,-6.71023 -2.666799,-9.90279 3.512949,-4.75027 10.142442,-4.24312 12.63955,0.96692 1.554937,3.24427 0.571638,6.00431 -2.904493,8.15268 -3.306621,2.0436 -3.547249,2.07026 -7.068258,0.78319 z m 32.848816,-4.4043 c -4.339493,-3.41344 -3.676432,-9.27978 1.28465,-11.36575 7.55311,-3.17584 14.19612,5.30036 8.56627,10.93021 -2.74094,2.74095 -6.69768,2.91588 -9.85092,0.43554 z m 111.93698,-0.44067 c -2.2966,-1.60861 -4.39183,-6.32214 -3.65907,-8.23167 0.78292,-2.04027 6.15393,-5.03575 9.0363,-5.03966 3.91387,-0.005 6.48057,3.14826 5.8398,7.17504 -0.94833,5.95959 -6.84037,9.16182 -11.21703,6.09629 z m -30.4577,-5.05782 c -1.00429,-1.00429 -1.82598,-2.61408 -1.82598,-3.5773 0,-0.96322 -0.24925,-2.40084 -0.55388,-3.19469 -0.35526,-0.9258 0.52782,-2.45385 2.46263,-4.26123 2.45125,-2.28982 3.53055,-2.71504 5.75969,-2.26921 6.82946,1.36589 9.00816,7.72219 4.27068,12.45966 -3.19959,3.1996 -7.40579,3.55012 -10.11314,0.84277 z m -101.936515,-6.183 c -1.080152,-0.86759 -2.22564,-2.83536 -2.54553,-4.37283 -0.479905,-2.30654 -0.09515,-3.30444 2.200101,-5.7062 2.943825,-3.08042 5.672709,-3.62712 9.469639,-1.89713 3.418525,1.55758 4.518438,4.79848 2.923801,8.61499 -2.004815,4.79819 -8.131063,6.5073 -12.048011,3.36117 z m 65.726115,0.64078 c -4.03849,-1.49394 -6.24519,-8.57389 -3.70396,-11.88375 2.20271,-2.86894 5.06723,-3.76509 8.45802,-2.64603 5.9518,1.96427 7.52439,7.03669 3.6201,11.67667 -2.43781,2.89717 -5.46602,3.9289 -8.37416,2.85311 z m -95.194155,-4.16732 c -2.764666,-3.5147 -2.571409,-8.97619 0.386202,-10.9141 7.251314,-4.75123 15.653931,5.26423 9.834304,11.72197 -2.30914,2.56233 -7.918258,2.11896 -10.220506,-0.80787 z m 71.350245,0.98435 c -3.09598,-2.16851 -2.8771,-8.7351 0.37647,-11.29437 3.03865,-2.3902 5.28514,-2.39126 8.63761,-0.004 2.14267,1.52573 2.65166,2.5645 2.65166,5.41169 0,6.01143 -6.67721,9.38088 -11.66574,5.88678 z m 104.79091,-1.91744 c -4.03193,-1.54072 -5.06768,-8.94047 -1.71999,-12.28817 1.53232,-1.53232 2.67292,-1.83259 5.51376,-1.45155 1.96997,0.26423 4.18193,0.9785 4.91546,1.58727 1.84448,1.53079 1.68373,7.56331 -0.26406,9.90929 -1.65289,1.99081 -6.04951,3.15862 -8.44517,2.24316 z m -64.15329,-2.824 c -1.86345,-2.06777 -2.8218,-5.97758 -2.05636,-8.3893 0.79933,-2.51843 5.55629,-4.91815 8.35622,-4.21541 3.67488,0.92233 5.8129,3.77641 5.8129,7.75974 0,2.68535 -0.51563,3.96134 -2.02914,5.02145 -2.75055,1.92656 -8.27553,1.82986 -10.08362,-0.17648 z m 35.1658,-1.13123 c -2.62817,-1.60242 -2.96722,-2.27088 -2.96722,-5.84988 0,-3.39127 0.45148,-4.42062 2.80902,-6.40436 3.50574,-2.94988 7.90904,-3.11502 10.81718,-0.40568 1.80451,1.68115 2.03908,2.60871 1.65931,6.56115 -0.71681,7.45995 -5.88728,10.01984 -12.31829,6.09877 z m -92.15249,-0.0163 c -4.12714,-1.66286 -5.295868,-8.23676 -2.07835,-11.69036 4.10514,-4.40636 11.83333,-1.01037 11.83333,5.1999 0,5.88164 -4.24916,8.70881 -9.75498,6.49046 z M 61.632166,283.4026 c -2.097702,-1.59294 -3.521569,-5.86109 -2.849102,-8.54041 0.76415,-3.04462 5.206735,-5.24617 9.109106,-4.51408 5.75403,1.07947 7.686144,7.38266 3.610891,11.77993 -2.470762,2.66599 -7.229383,3.28044 -9.870895,1.27456 z m 112.742024,-4.84498 c -1.57614,-1.10398 -2.02913,-2.32165 -2.02913,-5.4545 0,-3.5429 0.32749,-4.20261 2.69364,-5.42619 3.80212,-1.96615 6.17585,-1.73636 8.76025,0.84805 6.14998,6.14997 -2.23091,15.07141 -9.42476,10.03264 z m -141.188348,-2.1512 c -2.289463,-2.52983 -2.485204,-7.81194 -0.373487,-10.07859 5.650495,-6.0651 15.380374,0.23017 12.167147,7.87219 -0.639778,1.52158 -1.858792,3.03343 -2.708919,3.35965 -3.042067,1.16735 -7.496342,0.60191 -9.084741,-1.15325 z m 99.966838,-2.4852 c -1.04174,-1.32436 -1.89225,-3.75306 -1.89225,-5.40349 0,-2.44753 0.59308,-3.36443 3.23064,-4.99453 2.76993,-1.71191 3.59933,-1.84393 5.81601,-0.92575 4.47286,1.85273 6.273,9.237 2.9786,12.21838 -2.67062,2.41688 -7.8907,1.95601 -10.133,-0.89461 z m -52.116806,-2.3876 c -2.293528,-3.76166 -2.287579,-3.84025 0.574864,-7.5931 3.028483,-3.97055 7.449288,-4.33333 10.88904,-0.89357 2.738693,2.73869 2.858882,5.85714 0.348731,9.04828 -1.536857,1.9538 -2.653955,2.40561 -5.947867,2.40561 -3.595799,0 -4.260736,-0.33642 -5.864768,-2.96722 z m 148.447966,-0.23919 c -2.08026,-3.17487 -2.12027,-8.23045 -0.083,-10.48165 3.92914,-4.34162 12.33159,-0.61371 12.33159,5.47113 0,6.38046 -8.95165,10.0423 -12.2486,5.01052 z m -114.99063,-1.42482 c -4.66127,-3.66655 -1.99028,-10.88963 4.02683,-10.88963 3.35679,0 7.26244,3.5509 7.26244,6.60279 0,5.74749 -6.36142,8.1631 -11.28927,4.28684 z m 89.44722,-0.89776 c -2.67646,-3.1808 -2.68006,-5.64221 -0.0142,-9.76362 2.02648,-3.13304 8.68583,-2.92528 11.26325,0.35137 3.85638,4.90259 1.08964,10.79353 -5.57741,11.87544 -2.75872,0.44768 -3.48918,0.13044 -5.67157,-2.46319 z m -51.03361,-0.658 c -4.75632,-2.93724 -3.93639,-9.13855 1.57436,-11.90712 2.06495,-1.03742 2.86549,-0.97435 5.79325,0.45649 3.0194,1.47563 3.42816,2.08622 3.67551,5.49043 0.48502,6.67525 -5.04879,9.66197 -11.04312,5.9602 z M 51.865708,263.37278 c -2.037386,-2.18688 -2.110648,-2.46076 -1.907747,-7.13178 0.301525,-6.94144 7.907062,-9.39125 12.599835,-4.05853 2.899841,3.2953 2.669671,7.23552 -0.614514,10.5197 -3.285792,3.2858 -7.386906,3.55871 -10.077574,0.67061 z m 135.375152,0.16578 c -4.32564,-1.74283 -4.99962,-6.19233 -1.61096,-10.6351 2.90847,-3.81319 6.72804,-4.12233 10.03795,-0.81242 3.01512,3.01511 2.86561,6.40478 -0.42777,9.69814 -2.74862,2.74864 -4.54441,3.14136 -7.99922,1.74938 z m -87.02215,-6.38457 c -3.58559,-3.58558 -1.65876,-10.9559 2.86421,-10.9559 2.09189,0 5.49629,1.63071 6.47998,3.1039 2.3835,3.56963 -0.92108,9.67799 -5.23573,9.67799 -1.25536,0 -3.10417,-0.82169 -4.10846,-1.82599 z m -28.199969,-2.6362 c -2.244283,-2.24428 -2.620617,-8.70128 -0.657836,-11.28692 1.525496,-2.00959 6.726491,-2.10639 9.481829,-0.17648 1.558996,1.09196 2.022402,2.30828 2.000094,5.2497 -0.03654,4.81788 -1.643699,6.96569 -5.705479,7.62483 -2.480235,0.40249 -3.618916,0.0886 -5.118608,-1.41113 z m 60.569679,-0.51777 c -2.19767,-2.19766 -2.94577,-6.24803 -1.54226,-8.35 1.29565,-1.94039 4.95585,-3.25752 7.37499,-2.6539 3.71806,0.92774 5.62117,3.14157 5.62117,6.53895 0,6.25559 -6.95288,8.96596 -11.4539,4.46495 z M 30.321087,253.11913 c -2.241186,-1.6388 -2.53048,-9.24729 -0.402748,-10.59232 2.45239,-1.55026 8.08305,-1.02756 10.04291,0.93231 5.500859,5.50086 -3.286277,14.30609 -9.640162,9.66001 z M 164.72614,251.8324 c -2.042,-2.25638 -1.95221,-7.69099 0.15863,-9.60127 2.49815,-2.26079 7.13979,-1.91448 9.78427,0.73 1.23254,1.23253 2.24098,2.64375 2.24098,3.13603 0,1.70171 -1.94416,6.00072 -3.02434,6.68757 -2.09429,1.33166 -7.61171,0.75801 -9.15954,-0.95233 z m 69.63214,-0.99912 c -5.71426,-5.71425 -0.90885,-14.24078 6.83227,-12.12292 3.69988,1.01225 6.20261,5.77795 4.93856,9.40402 -1.98844,5.70404 -7.51023,6.9795 -11.77083,2.7189 z m -118.55245,-0.64985 c -4.97387,-6.32325 1.66453,-13.74601 8.93231,-9.9877 4.25467,2.20017 4.78459,6.77191 1.25134,10.79557 -2.25384,2.56668 -7.88033,2.12032 -10.18365,-0.80787 z m 96.4826,0.50648 c -4.34747,-2.53217 -4.72738,-10.53178 -0.6567,-13.82802 2.19749,-1.77942 6.45977,-2.12073 9.06589,-0.72598 4.06728,2.17675 4.11297,12.44522 0.065,14.61161 -2.20165,1.17829 -6.40132,1.14974 -8.4742,-0.0576 z m -64.87301,-3.68028 c -2.52988,-1.47175 -3.58779,-5.15509 -2.46111,-8.56896 1.2405,-3.75874 4.41655,-5.29983 8.20248,-3.98005 3.25332,1.13411 4.5804,3.19871 4.5804,7.12591 0,2.19321 -0.65328,3.21073 -2.96722,4.62157 -3.32412,2.02676 -4.94481,2.20339 -7.35455,0.80153 z m 44.51747,-3.96551 c -2.75567,-2.75567 -2.9153,-6.73383 -0.37943,-9.45576 2.52931,-2.71489 6.74124,-2.60826 9.59234,0.24285 2.58494,2.58493 2.76657,4.13724 0.90527,7.73663 -2.25346,4.35769 -6.60227,4.9922 -10.11818,1.47628 z M 49.741572,240.3371 c -2.008132,-1.52321 -3.336944,-5.8706 -2.743414,-8.97545 0.55376,-2.89681 5.481945,-5.74249 8.592762,-4.96173 6.177716,1.55052 8.385355,8.64803 4.041153,12.99223 -2.525326,2.52533 -7.216158,2.9735 -9.890501,0.94495 z m 44.999185,-1.17766 c -2.885368,-1.06093 -4.564959,-3.37007 -4.564959,-6.27602 0,-3.79205 2.054475,-5.85816 5.825162,-5.85816 3.85424,0 5.88492,1.59905 6.58995,5.18919 0.46166,2.35089 0.12279,3.35472 -1.77219,5.2497 -2.33382,2.33382 -3.4754,2.65224 -6.077963,1.69529 z m 36.341523,-1.81401 c -3.40856,-1.35952 -4.36308,-3.11904 -4.36036,-8.03769 0.002,-3.51161 0.7839,-4.6805 3.93178,-5.87733 6.48093,-2.46404 11.7193,0.64328 11.88733,7.05137 0.16341,6.23211 -5.11507,9.39384 -11.45875,6.86365 z m -22.55154,-2.92112 c -2.04373,-2.04374 -2.5363,-6.36956 -1.04299,-9.15983 0.48295,-0.90241 2.1143,-2.1528 3.6252,-2.77864 6.55383,-2.71468 12.28032,5.88437 7.13666,10.71658 -3.24376,3.04736 -7.37412,3.56663 -9.71887,1.22189 z m -37.318731,-1.61916 c -1.883425,-0.75779 -3.724695,-5.16835 -3.232501,-7.7431 0.676998,-3.54149 7.556345,-5.87149 10.955023,-3.71043 1.188063,0.75544 3.024341,5.04628 3.024341,7.067 0,3.4363 -6.507218,6.09234 -10.746863,4.38653 z m 98.409241,-0.56305 c -2.64872,-1.34015 -4.16123,-4.94986 -3.37937,-8.06504 1.27002,-5.06018 10.261,-6.80238 12.59534,-2.44062 3.93526,7.3531 -2.02294,14.14509 -9.21597,10.50566 z M 30.090046,231.77653 c -2.636643,-0.40987 -5.62124,-5.11922 -4.926958,-7.77416 0.636428,-2.4337 3.738681,-5.12302 5.956512,-5.16366 1.933308,-0.0354 5.351563,1.62774 6.316941,3.07353 1.084148,1.62366 0.795797,6.97253 -0.442515,8.20863 -1.429794,1.42723 -4.160637,2.08213 -6.90398,1.65566 z m 205.666454,-1.5143 c -2.95582,-2.95581 -2.91001,-6.86674 0.12265,-10.47085 1.75067,-2.08055 3.13672,-2.80902 5.34463,-2.80902 7.04125,0 10.77349,9.40732 5.40699,13.62861 -3.33964,2.62695 -8.04964,2.4759 -10.87427,-0.34874 z m -85.75629,-2.27863 c -1.92864,-3.72958 -1.74584,-5.78645 0.72014,-8.10313 2.66361,-2.50232 7.9421,-2.66769 10.07081,-0.3155 2.042,2.25639 1.9522,7.69099 -0.15863,9.60127 -0.98842,0.8945 -3.21386,1.51099 -5.45451,1.51099 -3.26785,0 -3.97516,-0.36796 -5.17781,-2.69363 z m 62.72553,0.25659 c -1.73699,-0.69887 -3.86101,-5.32389 -3.86101,-8.40726 0,-3.30149 3.62168,-6.50254 7.35701,-6.50254 3.70848,0 8.16385,4.06869 8.16385,7.45532 0,5.26644 -6.60411,9.48864 -11.65985,7.45448 z m -24.35156,-5.98303 c -2.16756,-3.09464 -1.80103,-7.71699 0.81973,-10.33776 2.56377,-2.56377 4.95789,-2.81433 8.64962,-0.90526 6.94682,3.59234 3.73309,13.27215 -4.40639,13.27215 -2.72824,0 -3.99819,-0.50898 -5.06296,-2.02913 z m -93.074449,-4.24857 c -0.852508,-0.94202 -1.781256,-3.13773 -2.063886,-4.87937 -0.437451,-2.69569 -0.135061,-3.46459 2.033351,-5.17026 4.419634,-3.47648 10.522154,-0.90728 11.735844,4.94086 0.43111,2.07728 0.10386,3.26933 -1.31584,4.79321 -2.4343,2.61291 -8.1532,2.7866 -10.389469,0.31556 z m 24.371399,0.23355 c -0.59944,-0.2556 -1.57054,-1.92107 -2.15798,-3.70104 -0.92694,-2.80866 -0.83507,-3.54841 0.69524,-5.59809 3.55557,-4.7623 10.37161,-4.23094 12.88072,1.00416 1.0613,2.21433 0.99892,2.90546 -0.49372,5.46963 -1.48307,2.54776 -2.24464,2.95847 -5.77144,3.11256 -2.23461,0.0976 -4.55338,-0.0316 -5.15282,-0.28722 z M 50.4841,215.20171 c -2.982907,-5.76831 -0.371459,-11.00124 5.490071,-11.00124 4.145291,0 6.811873,2.66658 6.811873,6.81187 0,4.22489 -2.878109,6.88301 -7.452643,6.88301 -2.904068,0 -3.678947,-0.43042 -4.849301,-2.69364 z m 89.20229,2.08258 c -1.34243,-0.54013 -3.861,-5.08719 -3.861,-6.97072 0,-0.70483 1.00749,-2.36861 2.23888,-3.69731 2.74348,-2.96025 6.60748,-3.16329 9.96338,-0.52354 6.21571,4.88928 -0.75609,14.24344 -8.34126,11.19157 z m -62.520745,-4.94003 c -0.878766,-0.51184 -2.239828,-2.17224 -3.024584,-3.6898 -1.474975,-2.85228 -1.31998,-3.37952 2.046398,-6.96113 1.699243,-1.80789 7.34223,-1.39999 9.42338,0.68116 5.096706,5.0967 -2.141352,13.64142 -8.445194,9.96977 z m 84.426665,-0.43513 c -1.48965,-1.04339 -2.02913,-2.34082 -2.02913,-4.87996 0,-3.99613 1.91349,-6.17862 6.16208,-7.02834 2.28827,-0.45765 3.30648,-0.10967 5.18979,1.77364 2.94592,2.94592 2.98112,6.03579 0.10412,9.14012 -2.56701,2.76986 -6.32605,3.16643 -9.42686,0.99454 z M 30.810172,208.28641 c -2.840965,-3.02407 -2.806874,-8.02414 0.07173,-10.52074 2.457966,-2.13178 3.770194,-2.21385 7.182655,-0.4492 4.006597,2.07189 5.039409,8.30624 1.896688,11.44896 -2.54015,2.54015 -6.509935,2.33235 -9.151077,-0.47902 z m 202.460818,-1.34489 c -3.33861,-1.78409 -4.86264,-5.02141 -3.99372,-8.48344 0.90857,-3.62005 3.07371,-5.21351 7.08393,-5.21351 6.8802,0 10.44235,6.83182 6.30477,12.0919 -2.35272,2.99101 -5.72366,3.5669 -9.39498,1.60505 z m -126.24634,-3.15605 c -2.9354,-2.93541 -2.86981,-6.39334 0.17481,-9.21501 2.65277,-2.45849 4.87083,-2.79175 7.91539,-1.18922 2.7102,1.42654 3.33333,2.54752 3.34972,6.02602 0.029,6.16668 -6.97205,8.84609 -11.43992,4.37821 z m 100.93817,0.42607 c -1.01038,-1.01038 -1.86759,-2.14519 -1.90491,-2.5218 -0.0373,-0.37661 -0.24468,-1.6388 -0.46082,-2.80487 -0.60361,-3.25648 4.34592,-7.84049 7.62733,-7.06407 5.15992,1.22091 7.67407,8.46899 4.06926,11.7313 -2.71328,2.45548 -7.21656,2.77375 -9.33086,0.65944 z m -26.42355,-4.0511 c -4.25232,-4.52639 -1.80073,-12.39382 3.86208,-12.39382 4.75798,0 7.02953,2.17305 7.02953,6.7247 0,4.82946 -1.37683,6.69296 -5.48975,7.43024 -2.67902,0.48023 -3.56872,0.19018 -5.40186,-1.76112 z m -56.21329,-1.61591 c -1.00429,-0.5695 -2.12782,-1.4814 -2.49675,-2.02647 -1.20676,-1.78294 -0.73253,-7.67421 0.73598,-9.14272 2.92396,-2.92396 9.70443,-1.18971 11.10974,2.84154 1.09718,3.14738 0.15143,5.99688 -2.63912,7.95145 -2.44555,1.71294 -4.18097,1.81024 -6.70985,0.3762 z m 21.49475,-0.071 c -3.97875,-2.01343 -4.2272,-8.80252 -0.41357,-11.30131 1.73526,-1.13698 2.71521,-1.20318 5.28014,-0.35667 4.70496,1.55278 5.72354,6.10229 2.33166,10.41438 -2.08707,2.65328 -3.8207,2.95279 -7.19823,1.2436 z m -86.982422,-4.2842 c -3.26618,-2.56917 -4.014409,-7.97947 -1.477063,-10.68035 4.501184,-4.79129 11.986095,-3.39374 13.582843,2.53612 2.031437,7.54419 -5.999769,12.94722 -12.10578,8.14423 z m 26.187527,-0.44675 c -4.49489,-4.49488 -2.129961,-11.45388 3.89246,-11.45388 6.034325,0 9.393985,6.55396 5.740545,11.19855 -2.545975,3.23669 -6.545643,3.3427 -9.633005,0.25534 z m -47.605478,-5.98336 c -1.234011,-0.49714 -2.366884,-2.13246 -2.96418,-4.27884 -1.293907,-4.64966 0.924238,-7.91238 5.654672,-8.31758 4.244189,-0.36356 7.067326,2.47311 7.067326,7.10119 0,2.65549 -0.5068,3.58234 -2.651595,4.8493 -2.928037,1.72964 -4.142237,1.84 -7.106223,0.64593 z M 196.7852,186.22766 c -0.89154,-0.23367 -2.06206,-2.02269 -2.68604,-4.10532 -0.91524,-3.05484 -0.87406,-4.10423 0.23889,-6.08709 2.60598,-4.64288 9.47924,-4.94203 12.36477,-0.53816 1.28098,1.95502 1.34785,2.86109 0.43587,5.90506 -1.45575,4.85883 -4.61259,6.33016 -10.35349,4.82551 z m -33.91261,-1.46031 c -0.8825,-0.6453 -1.8289,-2.84593 -2.10311,-4.89029 -0.41338,-3.08197 -0.13965,-4.05137 1.6022,-5.67416 2.67824,-2.49515 7.17849,-2.53905 9.80123,-0.0956 2.55863,2.38372 2.74178,8.13836 0.32851,10.32233 -1.98635,1.79763 -7.37388,1.98659 -9.62883,0.33772 z m 59.85917,-1.60127 c -3.37122,-3.14077 -2.52593,-8.30239 1.71913,-10.49761 3.59939,-1.86131 5.15169,-1.67967 7.73663,0.90527 2.8489,2.84889 2.84962,5.96557 0.002,9.0381 -2.7264,2.94182 -6.64839,3.17166 -9.45786,0.55424 z m -120.01794,-0.64917 c -1.83937,-2.04105 -2.84051,-6.03637 -2.17337,-8.67342 0.57587,-2.27628 5.47894,-4.88984 8.35168,-4.45183 3.17696,0.48441 5.93445,3.81382 5.93445,7.1653 0,5.98728 -8.37465,10.10794 -12.11276,5.95995 z m 42.24149,-4.51381 c -2.36004,-0.84346 -3.65197,-3.24146 -3.65197,-6.77857 0,-3.82776 3.20493,-7.1957 6.84744,-7.1957 1.11993,0 3.11875,0.85151 4.44183,1.89225 1.85553,1.45956 2.40561,2.69701 2.40561,5.41168 0,5.31207 -4.84303,8.52873 -10.04291,6.67034 z m -20.89772,-2.61691 c -1.72604,-1.45237 -3.01257,-3.588 -3.3975,-5.63981 -0.53613,-2.85786 -0.28771,-3.5877 1.84585,-5.42291 2.79191,-2.40149 8.20589,-2.82545 10.81277,-0.84673 0.88097,0.66869 2.04859,2.49751 2.59468,4.06405 0.83819,2.40444 0.69242,3.33446 -0.93551,5.9685 -3.0614,4.95346 -6.55119,5.55326 -10.92029,1.8769 z m -50.59505,-0.42528 c -3.218638,-2.53178 -3.78189,-4.89366 -1.864771,-7.81955 3.172152,-4.84132 10.773309,-5.89614 13.582875,-1.88493 5.023775,7.17245 -4.699768,15.22511 -11.718104,9.70448 z m 108.92543,-5.15575 c -2.28048,-0.84664 -3.65197,-3.22486 -3.65197,-6.33265 0,-4.43189 0.76351,-5.64368 4.28901,-6.8072 2.79096,-0.92109 3.53224,-0.82473 5.62546,0.73128 3.0532,2.26964 3.70409,7.2612 1.3154,10.08768 -1.74786,2.06819 -5.31543,3.16084 -7.5779,2.32089 z M 51.202516,168.78948 c -1.197477,-0.76143 -3.024341,-5.05175 -3.024341,-7.10256 0,-2.16842 3.48372,-4.96202 6.187797,-4.96202 6.012491,0 9.453179,6.48421 5.610902,10.57412 -2.073125,2.20674 -6.472579,2.95405 -8.774358,1.49046 z m 157.865364,-4.35592 c -3.98517,-2.79132 -1.93739,-9.95497 2.99232,-10.46791 3.53453,-0.36777 5.03908,0.0379 6.84744,1.84625 5.61793,5.61794 -3.15438,13.30428 -9.83976,8.62166 z M 90.756793,162.53485 c -3.03178,-3.03178 -3.110282,-6.71647 -0.214809,-10.08266 4.286793,-4.98369 13.328696,-2.35539 13.328696,3.8744 0,7.514 -8.014157,11.30798 -13.113887,6.20826 z m 68.308387,-5.31195 c -2.97292,-2.97293 -3.07958,-8.02401 -0.21185,-10.03264 2.90836,-2.0371 8.52224,-1.82579 10.75276,0.40472 4.1141,4.11411 0.53497,11.86889 -5.47795,11.86889 -1.77885,0 -3.65035,-0.82836 -5.06296,-2.24097 z m -44.21283,-1.51435 c -2.96652,-1.18386 -3.64693,-2.39394 -3.66376,-6.51584 -0.0178,-4.35281 2.54455,-7.08638 6.60521,-7.04664 3.72107,0.0364 5.88789,1.64915 7.17449,5.3399 1.20192,3.44781 -0.6079,6.95746 -4.31445,8.36669 -2.70596,1.02881 -2.87283,1.02466 -5.80149,-0.14411 z m 22.36122,-2.61496 c -1.22769,-1.35658 -1.49671,-2.6615 -1.08226,-5.2497 0.94221,-5.88416 6.65968,-8.5107 11.35982,-5.21859 2.89765,2.02958 2.89765,8.82277 0,10.85236 -2.89587,2.02835 -8.27631,1.82728 -10.27756,-0.38407 z m -73.372013,-2.74475 c -2.193812,-3.60745 -1.578908,-7.70023 1.357925,-9.03835 3.54468,-1.61506 6.619298,-1.19963 9.04046,1.22154 4.552065,4.55207 1.667912,10.5409 -5.076374,10.5409 -3.089395,0 -3.925716,-0.42808 -5.322011,-2.72409 z M 193.4622,149.53929 c -2.11551,-2.1155 -3.31986,-5.81295 -2.54834,-7.82351 0.89547,-2.33356 4.98737,-4.40724 7.46804,-3.78464 3.17719,0.79743 5.91787,3.74622 5.91787,6.36723 0,5.31286 -7.25648,8.82201 -10.83757,5.24092 z m 28.10981,-9.51787 c -9.33219,-3.18132 -14.32981,-8.06679 -18.50685,-18.09155 -6.16001,-14.78384 -1.42806,-28.858174 12.93151,-38.46249 6.23973,-4.17341 20.40258,-5.781511 27.93909,-3.172305 9.72096,3.365482 17.7109,14.931549 18.56545,26.874945 1.14945,16.06516 -6.89423,28.98901 -20.57904,33.06453 -8.04784,2.39675 -12.84153,2.34654 -20.35016,-0.21313 z M 84.697847,139.37805 c -2.133708,-2.13371 -2.507497,-8.34073 -0.597728,-9.92569 4.522927,-3.7537 11.55363,-0.75065 11.55363,4.93494 0,5.88654 -6.911645,9.03501 -10.955902,4.99075 z m 90.082033,-0.74464 c -0.82508,-0.91171 -1.75324,-2.92315 -2.06258,-4.46987 -1.21535,-6.07671 7.45689,-9.30026 11.43039,-4.24878 2.48495,3.15911 2.389,5.39758 -0.34874,8.13531 -2.67651,2.67652 -6.87879,2.94831 -9.01907,0.58334 z m -66.1411,-7.06756 c -2.87685,-2.01502 -2.69538,-6.13906 0.37648,-8.55538 3.19114,-2.51016 6.30959,-2.38997 9.04828,0.34873 2.73415,2.73413 2.80037,4.10557 0.34874,7.2223 -2.20413,2.8021 -6.55297,3.24009 -9.7735,0.98435 z m 46.13119,-0.47785 c -2.20558,-1.28463 -2.15903,-7.35283 0.0719,-9.37178 2.41976,-2.18985 6.26812,-1.87318 8.87128,0.72998 2.80379,2.80379 2.84211,5.09294 0.12791,7.64279 -2.24547,2.1095 -6.38227,2.5651 -9.07108,0.99901 z m -21.61729,-3.24546 c -2.12819,-2.70556 -2.33034,-4.19979 -0.92375,-6.82805 3.46025,-6.46553 13.96751,-1.96374 12.16636,5.21262 -1.15139,4.58746 -8.11747,5.58839 -11.24261,1.61543 z"
           id="path932"
           inkscape:connector-curvature="0"
           sodipodi:nodetypes="cscccccccscsccssccccsccsccsccssscssscsssccsccccsccscsscscssccccccscsccssccsccccscssscscscccsssccccscssscssccsscscssscssccccccsscscscssssccscssccscsccssssscscccccccsscsccssssssscccscscsscscsccssssssccsscccssssccsscssssscssccscscscsscscssscssccscssssccssccscsssssccsssccssscsssscscscccsccsccsscscssccssscscscccccccsscccccccscsccsscscccsscscccscscsccscccssccccssscccscsccsssccccsccscscccccccccssssssscssccssccscsscssccscssccccsccsccscscssccscscsssccsssssscsscccssscccccccccsccccccccccsscsscsssscsccsssssssscsscsccssscscsssssscccscccccsccscscccssccscscsssssssscssccscccsccccacscccccc" />
        <path
           style="fill:#6600ff;stroke-width:0.91299182"
           d="m 36.981987,420.42183 c -2.528969,-1.68653 -2.727152,-5.73318 -0.384607,-7.85315 3.70231,-3.35055 11.052953,-0.34652 9.888477,4.04117 -0.322332,1.21455 -0.969679,2.79886 -1.438546,3.52069 -1.166758,1.79623 -5.570181,1.95526 -8.065324,0.29129 z m 16.364748,-2.3473 c -2.461262,-2.61989 -2.535314,-5.32293 -0.203652,-7.43306 1.444444,-1.3072 2.437606,-1.458 5.249703,-0.79707 3.140317,0.73807 3.494376,1.12534 3.744818,4.09612 0.494888,5.87051 -4.814068,8.36712 -8.790869,4.13401 z m -32.570353,-4.4676 c -4.875239,-2.79595 -5.479694,-7.27121 -1.275732,-9.44516 2.346188,-1.21327 3.29306,-1.27419 5.512845,-0.35472 5.304537,2.1972 5.643294,8.15897 0.564201,9.92955 -1.535223,0.53518 -2.832721,0.96057 -2.883319,0.94529 -0.05058,-0.0152 -0.913704,-0.499 -1.917995,-1.07496 z m 48.845062,-4.37522 c -2.197498,-2.1975 -2.283091,-3.50606 -0.404729,-6.1878 2.81479,-4.01867 9.534647,-1.48131 9.534647,3.60019 0,1.828 -3.328138,4.41359 -5.681101,4.41359 -0.892559,0 -2.444526,-0.82169 -3.448817,-1.82598 z M 7.381103,399.15559 c -0.839514,-0.48987 -1.8139141,-2.19974 -2.1653338,-3.79973 -0.5200976,-2.368 -0.2598466,-3.21604 1.3992878,-4.55952 2.795042,-2.26329 5.15193,-2.06942 7.868584,0.64723 4.665626,4.66562 -1.272867,11.11371 -7.102538,7.71202 z m 36.621261,-0.9351 c -2.608709,-2.6087 -2.061444,-6.49734 1.068338,-7.59122 7.054213,-2.46549 12.437002,5.38506 5.773906,8.42097 -3.270592,1.49019 -4.69506,1.31744 -6.842244,-0.82975 z m 37.533796,-2.17196 c -1.871542,-2.25507 -0.785008,-6.29778 2.057053,-7.65377 2.200749,-1.05002 2.872373,-1.01603 4.793207,0.24254 2.575933,1.68782 2.83358,3.811 0.812581,6.69638 -1.641413,2.34344 -5.975668,2.74778 -7.662841,0.71485 z m -20.689389,-4.14514 c -5.75813,-2.32664 -1.332594,-11.42919 4.481913,-9.21852 1.219757,0.46376 2.4511,1.4513 2.73631,2.19455 0.732621,1.90919 -0.325601,5.43443 -2.025701,6.74816 -1.67492,1.29428 -2.556112,1.34108 -5.192522,0.27581 z m -34.26933,-1.96106 c -4.022323,-1.47411 -3.932274,-5.9245 0.164247,-8.11689 1.31993,-0.70641 2.487126,-0.58552 4.525856,0.46874 3.360814,1.73795 3.700219,5.16767 0.718086,7.25644 -2.289035,1.60329 -2.133068,1.592 -5.408189,0.39171 z m 60.694764,-8.32863 c -1.13589,-1.80836 -1.233078,-7.3256 -0.151995,-8.62823 1.532986,-1.84712 5.074344,-1.39794 6.64375,0.8427 2.24914,3.2111 1.786205,5.95218 -1.272382,7.53384 -3.270063,1.69102 -4.28457,1.73994 -5.219373,0.25169 z m -45.783124,-1.3299 c -1.133854,-0.94928 -2.196129,-3.21182 -2.527874,-5.38414 -0.541075,-3.54299 -0.398466,-3.85418 2.6214,-5.72057 3.515959,-2.17298 6.248142,-1.75525 8.986268,1.37394 2.677915,3.06037 2.857263,5.44196 0.597626,7.93606 -2.829215,3.12277 -7.13693,3.92166 -9.67742,1.79471 z M 2.7447934,379.02985 c -2.1022567,-1.22445 -2.060418,-5.61609 0.071889,-7.5458 4.7353226,-4.28541 12.0038986,2.16233 7.5069916,6.65923 -2.021217,2.02122 -5.0271059,2.37284 -7.5788806,0.88657 z m 60.4857076,-5.67349 c -3.261836,-1.65022 -3.19947,-6.61007 0.114234,-9.08411 1.976764,-1.47586 2.745667,-1.60265 4.388213,-0.72359 2.827417,1.51319 3.751967,4.55109 2.268848,7.455 -0.674199,1.32005 -1.890879,2.6553 -2.703734,2.96722 -1.803085,0.69191 -1.349922,0.76037 -4.067561,-0.61452 z M 24.196194,369.8322 c -1.552141,-1.55214 -1.427381,-4.04568 0.337158,-6.7387 2.088442,-3.18736 7.029262,-3.14176 9.143112,0.0844 1.449228,2.2118 1.433543,2.46419 -0.297901,4.79321 -2.040107,2.74421 -7.244444,3.79904 -9.182369,1.86111 z m 58.291605,-5.45676 c -3.520642,-3.77896 -1.524961,-8.09726 3.742116,-8.09726 2.471405,0 3.446088,0.51812 4.428759,2.35427 2.84827,5.32204 -4.047557,10.16886 -8.170875,5.74299 z M 6.435198,360.61489 c -2.5112857,-1.97409 -2.838386,-4.96048 -0.7698808,-7.02898 2.1309138,-2.13092 4.5254078,-2.39661 6.5920568,-0.73145 2.588122,2.08532 2.699398,4.30488 0.334383,6.66989 -2.49864,2.49864 -4.022012,2.76848 -6.156559,1.09054 z m 36.318203,-2.11944 c -2.129526,-2.12953 -1.815238,-6.41215 0.59443,-8.09995 2.722095,-1.90663 4.559491,-1.79022 7.434155,0.471 2.951529,2.32167 3.296238,6.69677 0.639642,8.11854 -2.610709,1.3972 -7.031096,1.14754 -8.668227,-0.48959 z m 28.694026,-7.69522 c -2.65686,-2.65686 -2.403688,-6.74761 0.499453,-8.07037 3.17607,-1.44712 4.454213,-1.33432 6.098493,0.53819 2.524742,2.87516 2.784059,5.45411 0.752688,7.48548 -2.368729,2.36873 -5.011813,2.38552 -7.350634,0.0467 z m -53.284036,-7.16472 c -1.976281,-2.18377 -1.441706,-5.45238 1.247913,-7.63031 2.721163,-2.20346 5.283493,-1.8054 7.491582,1.16384 1.469287,1.97578 1.574281,2.72027 0.665041,4.71583 -1.655665,3.63379 -6.828822,4.59676 -9.404536,1.75064 z m 17.306143,-5.45224 c -2.395535,-4.63247 1.663078,-9.55961 6.485729,-7.87366 2.109568,0.73748 2.609331,1.50402 2.84607,4.36536 0.360832,4.36135 -1.037068,6.08235 -4.940464,6.08235 -2.433278,0 -3.33294,-0.52735 -4.391335,-2.57405 z m 20.639631,1.47846 c -1.883447,-1.88345 -1.36442,-7.82621 0.783941,-8.97598 5.162046,-2.76264 10.854002,3.11411 7.691298,7.941 -1.549785,2.36527 -6.536035,2.97418 -8.475239,1.03498 z"
           id="path930"
           inkscape:connector-curvature="0"
           sodipodi:nodetypes="cccccssccsscsccsscsssccsccsccssscssscsssccscccccscscsscscsscccccccccccccsscssscssscssscscscccccsccccscssss" />
        <path
           style="fill:#ff00ff;stroke-width:0.91299182"
           d="m 221.55977,414.77582 c -2.52897,-1.68652 -2.72716,-5.73318 -0.38461,-7.85314 3.70231,-3.35056 11.05295,-0.34653 9.88848,4.04116 -0.32234,1.21456 -0.96968,2.79886 -1.43855,3.52069 -1.16676,1.79623 -5.57018,1.95526 -8.06532,0.29129 z m 16.36474,-2.34729 c -2.46126,-2.6199 -2.53531,-5.32294 -0.20365,-7.43306 1.44445,-1.3072 2.43761,-1.458 5.2497,-0.79708 3.14032,0.73807 3.49438,1.12535 3.74482,4.09613 0.49489,5.87051 -4.81407,8.36711 -8.79087,4.13401 z m -32.57035,-4.46761 c -4.87524,-2.79594 -5.47969,-7.2712 -1.27573,-9.44515 2.34619,-1.21327 3.29306,-1.27419 5.51284,-0.35473 5.30454,2.19721 5.6433,8.15897 0.56421,9.92955 -1.53523,0.53518 -2.83273,0.96057 -2.88332,0.9453 -0.0506,-0.0152 -0.91371,-0.49901 -1.918,-1.07497 z m 48.84506,-4.37522 c -2.1975,-2.1975 -2.28309,-3.50605 -0.40473,-6.18779 2.81479,-4.01867 9.53465,-1.48131 9.53465,3.60019 0,1.82799 -3.32814,4.41358 -5.6811,4.41358 -0.89256,0 -2.44453,-0.82169 -3.44882,-1.82598 z m -62.24034,-10.07612 c -0.83951,-0.48986 -1.81391,-2.19974 -2.16533,-3.79973 -0.52011,-2.368 -0.25985,-3.21603 1.39929,-4.55952 2.79504,-2.26329 5.15193,-2.06941 7.86858,0.64723 4.66563,4.66563 -1.27287,11.11371 -7.10254,7.71202 z m 36.62126,-0.93509 c -2.60871,-2.60871 -2.06144,-6.49734 1.06834,-7.59123 7.05421,-2.46548 12.437,5.38507 5.77391,8.42097 -3.2706,1.49019 -4.69506,1.31744 -6.84225,-0.82974 z m 37.5338,-2.17196 c -1.87154,-2.25507 -0.78501,-6.29778 2.05705,-7.65378 2.20075,-1.05001 2.87237,-1.01603 4.79321,0.24255 2.57593,1.68782 2.83358,3.811 0.81258,6.69637 -1.64141,2.34344 -5.97567,2.74778 -7.66284,0.71486 z m -20.68939,-4.14515 c -5.75813,-2.32663 -1.33259,-11.42919 4.48191,-9.21851 1.21976,0.46375 2.4511,1.4513 2.73631,2.19455 0.73262,1.90919 -0.3256,5.43442 -2.0257,6.74815 -1.67492,1.29428 -2.55611,1.34108 -5.19252,0.27581 z m -34.26933,-1.96105 c -4.02232,-1.47412 -3.93227,-5.92451 0.16425,-8.1169 1.31993,-0.70641 2.48712,-0.58552 4.52585,0.46875 3.36082,1.73794 3.70022,5.16766 0.71809,7.25643 -2.28904,1.6033 -2.13307,1.592 -5.40819,0.39172 z m 60.69476,-8.32863 c -1.13589,-1.80836 -1.23307,-7.3256 -0.15199,-8.62823 1.53298,-1.84713 5.07434,-1.39795 6.64375,0.8427 2.24914,3.21109 1.7862,5.95218 -1.27238,7.53383 -3.27007,1.69102 -4.28457,1.73995 -5.21938,0.2517 z m -45.78312,-1.3299 c -1.13385,-0.94929 -2.19613,-3.21183 -2.52787,-5.38414 -0.54108,-3.543 -0.39847,-3.85419 2.6214,-5.72057 3.51595,-2.17299 6.24814,-1.75526 8.98626,1.37393 2.67792,3.06038 2.85727,5.44196 0.59763,7.93606 -2.82922,3.12277 -7.13693,3.92166 -9.67742,1.79472 z m -38.74429,-1.25396 c -2.10226,-1.22445 -2.06042,-5.61609 0.0719,-7.54579 4.73532,-4.28542 12.00389,2.16232 7.50699,6.65923 -2.02122,2.02122 -5.02711,2.37284 -7.57888,0.88656 z m 60.48571,-5.67349 c -3.26184,-1.65022 -3.19947,-6.61007 0.11423,-9.08411 1.97677,-1.47586 2.74567,-1.60265 4.38822,-0.72358 2.82741,1.51318 3.75196,4.55109 2.26884,7.455 -0.67419,1.32005 -1.89087,2.6553 -2.70373,2.96722 -1.80308,0.6919 -1.34992,0.76037 -4.06756,-0.61453 z m -39.03431,-3.52415 c -1.55214,-1.55214 -1.42738,-4.04569 0.33716,-6.7387 2.08844,-3.18737 7.02926,-3.14176 9.14311,0.0844 1.44923,2.21179 1.43355,2.46419 -0.2979,4.7932 -2.04011,2.74422 -7.24444,3.79904 -9.18237,1.86112 z m 58.29161,-5.45676 c -3.52064,-3.77897 -1.52496,-8.09726 3.74211,-8.09726 2.47141,0 3.44609,0.51812 4.42876,2.35426 2.84827,5.32204 -4.04755,10.16886 -8.17087,5.743 z m -76.0526,-3.76055 c -2.51129,-1.97409 -2.83839,-4.96049 -0.76988,-7.02899 2.13091,-2.13091 4.52541,-2.3966 6.59205,-0.73144 2.58813,2.08532 2.6994,4.30487 0.33439,6.66989 -2.49864,2.49863 -4.02202,2.76848 -6.15656,1.09054 z m 36.3182,-2.11945 c -2.12953,-2.12953 -1.81524,-6.41214 0.59443,-8.09994 2.72209,-1.90663 4.55949,-1.79023 7.43415,0.47099 2.95153,2.32167 3.29624,6.69678 0.63965,8.11854 -2.61071,1.39721 -7.0311,1.14754 -8.66823,-0.48959 z m 28.69403,-7.69522 c -2.65686,-2.65686 -2.40369,-6.74761 0.49945,-8.07037 3.17607,-1.44712 4.45421,-1.33432 6.09849,0.53819 2.52474,2.87517 2.78406,5.45412 0.75269,7.48549 -2.36873,2.36873 -5.01181,2.38552 -7.35063,0.0467 z m -53.28404,-7.16472 c -1.97628,-2.18376 -1.44171,-5.45237 1.24791,-7.63031 2.72117,-2.20346 5.2835,-1.80539 7.49158,1.16385 1.46929,1.97578 1.57429,2.72027 0.66505,4.71583 -1.65567,3.63379 -6.82883,4.59676 -9.40454,1.75063 z m 17.30614,-5.45224 c -2.39553,-4.63246 1.66308,-9.55961 6.48573,-7.87366 2.10957,0.73748 2.60933,1.50403 2.84607,4.36536 0.36083,4.36136 -1.03707,6.08236 -4.94046,6.08236 -2.43328,0 -3.33294,-0.52736 -4.39134,-2.57406 z m 20.63963,1.47846 c -1.88344,-1.88344 -1.36442,-7.82621 0.78394,-8.97597 5.16205,-2.76264 10.85401,3.1141 7.6913,7.941 -1.54978,2.36527 -6.53603,2.97418 -8.47524,1.03497 z"
           id="path930-5"
           inkscape:connector-curvature="0"
           sodipodi:nodetypes="cccccssccsscsccsscsssccsccsccssscssscsssccscccccscscsscscsscccccccccccccsscssscssscssscscscccccsccccscssss" />
      </g>
    </g>
  </g>
</svg>
