<?xml version="1.0" encoding="UTF-8" standalone="no"?>
<!-- Created with Inkscape (http://www.inkscape.org/) -->

<svg
   xmlns:dc="http://purl.org/dc/elements/1.1/"
   xmlns:cc="http://creativecommons.org/ns#"
   xmlns:rdf="http://www.w3.org/1999/02/22-rdf-syntax-ns#"
   xmlns:svg="http://www.w3.org/2000/svg"
   xmlns="http://www.w3.org/2000/svg"
   xmlns:sodipodi="http://sodipodi.sourceforge.net/DTD/sodipodi-0.dtd"
   xmlns:inkscape="http://www.inkscape.org/namespaces/inkscape"
   version="1.1"
   id="svg2949"
   width="283"
   height="443"
   viewBox="0 0 283 443"
   sodipodi:docname="feu74.svg"
   inkscape:version="0.92.4 (5da689c313, 2019-01-14)">
  <metadata
     id="metadata2955">
    <rdf:RDF>
      <cc:Work
         rdf:about="">
        <dc:format>image/svg+xml</dc:format>
        <dc:type
           rdf:resource="http://purl.org/dc/dcmitype/StillImage" />
        <dc:title />
      </cc:Work>
    </rdf:RDF>
  </metadata>
  <defs
     id="defs2953" />
  <sodipodi:namedview
     pagecolor="#ffffff"
     bordercolor="#666666"
     borderopacity="1"
     objecttolerance="10"
     gridtolerance="10"
     guidetolerance="10"
     inkscape:pageopacity="0"
     inkscape:pageshadow="2"
     inkscape:window-width="1920"
     inkscape:window-height="1017"
     id="namedview2951"
     showgrid="false"
     inkscape:zoom="1.5067919"
     inkscape:cx="112.64858"
     inkscape:cy="221.5"
     inkscape:window-x="-8"
     inkscape:window-y="-8"
     inkscape:window-maximized="1"
     inkscape:current-layer="svg2949" />
  <path
     style="fill:#0000ff"
     d="m 123.88645,370.06495 c -2.88672,-1.39471 -5.61947,-7.20832 -4.73765,-10.07881 2.27154,-7.39434 12.84698,-9.82987 17.42291,-4.01251 4.63993,5.8987 0.39897,15.35426 -6.8267,15.22068 -2.01361,-0.0372 -4.64996,-0.54544 -5.85856,-1.12936 z m 28.69021,-0.44805 c -3.14101,-1.3207 -5.99276,-6.26956 -5.99276,-10.39971 0,-1.15998 1.31538,-3.42443 2.92308,-5.03212 2.28996,-2.28997 3.82034,-2.92308 7.06574,-2.92308 4.95314,0 7.16004,1.05205 9.40992,4.4858 3.3931,5.17852 -0.92491,13.77735 -7.39534,14.72701 -1.61866,0.23757 -4.32344,-0.14849 -6.01064,-0.8579 z m -54.992756,-3.06435 c -7.162359,-2.63355 -9.000297,-15.01662 -2.684055,-18.08375 3.830879,-1.86026 5.098685,-1.93712 9.078691,-0.55042 4.9718,1.73226 6.54175,3.85463 6.54175,8.84361 0,7.13843 -6.58839,12.12468 -12.936386,9.79056 z m 78.354676,-3.75468 c -3.10945,-2.17795 -3.69544,-6.97711 -1.46704,-12.01478 1.55302,-3.51086 2.48307,-4.36806 5.31583,-4.89949 3.34329,-0.62721 9.02571,0.67494 11.54653,2.64593 2.71062,2.11938 0.67216,12.90098 -2.78944,14.75357 -2.7413,1.46709 -10.23009,1.17883 -12.60588,-0.48523 z M 72.990653,352.28881 c -2.883824,-1.16607 -5.753429,-7.50143 -4.919755,-10.86157 1.053331,-4.24548 4.409824,-7.16525 8.23698,-7.16525 5.099507,0 8.934995,2.43664 10.287813,6.53572 1.599913,4.84778 0.681529,7.54521 -3.477618,10.21428 -3.652428,2.34389 -6.576668,2.71257 -10.12742,1.27682 z m 125.229607,-1.66318 c -8.29577,-8.29577 5.21652,-20.78994 13.84043,-12.79757 2.42198,2.24462 2.69855,3.08997 2.20785,6.74843 -1.10604,8.24617 -10.36226,11.73515 -16.04828,6.04914 z m -57.94927,-9.16836 c -7.66194,-7.99734 2.30729,-19.75396 12.99631,-15.32642 4.70748,1.9499 6.65868,7.75491 4.16978,12.40548 -2.09056,3.90625 -5.14136,5.65758 -9.91609,5.69239 -3.71836,0.0271 -5.06026,-0.48586 -7.25,-2.77145 z m -23.302,-0.0656 c -3.51813,-2.18662 -4.61145,-5.72603 -3.26977,-10.58521 1.09402,-3.96218 4.47288,-5.87783 10.36745,-5.87783 5.15873,0 8.07845,2.05909 9.02397,6.36403 1.77047,8.06087 -8.77369,14.66599 -16.12165,10.09901 z m 52.45911,-4.38468 c -5.15204,-4.35519 -6.05131,-10.53405 -2.03752,-13.99973 6.98178,-6.02838 18.19332,-2.20233 18.19332,6.20865 0,2.97467 -2.63562,7.78067 -4.94461,9.01641 -3.25464,1.74182 -8.36141,1.18368 -11.21119,-1.22533 z m 49.07888,-2.66811 c -3.45706,-3.45706 -3.58497,-4.85919 -0.91981,-10.08332 3.07882,-6.03499 7.24755,-7.46662 13.0319,-4.47541 5.46009,2.82352 5.25699,12.11341 -0.33943,15.52577 -4.59698,2.80295 -8.30746,2.49817 -11.77266,-0.96704 z M 47.860741,333.28927 c -5.909758,-3.60333 -6.097129,-13.51749 -0.31201,-16.50909 4.788531,-2.47625 8.831984,-1.94721 12.133963,1.58757 4.97213,5.32268 3.687917,12.83193 -2.647163,15.4789 -4.413978,1.84428 -5.326828,1.78882 -9.17479,-0.55738 z m 57.535659,0.28961 c 0.72187,-0.28887 1.58437,-0.25335 1.91667,0.0789 0.33229,0.33229 -0.25834,0.56864 -1.3125,0.52522 -1.16495,-0.048 -1.4019,-0.28494 -0.60417,-0.60416 z M 92.307168,332.0908 c -2.697301,-0.98431 -6.723264,-7.08343 -6.723264,-10.18538 0,-0.78993 1.590658,-2.83286 3.534796,-4.53984 4.05815,-3.5631 8.598994,-4.07617 12.49269,-1.41155 3.35561,2.29637 3.94161,3.30801 3.94354,6.80796 0.003,5.05259 -1.10015,7.51541 -4.04847,9.04005 -3.220614,1.66544 -5.252034,1.72921 -9.199292,0.28876 z m 99.637052,-8.28898 c -1.14658,-0.8031 -2.67205,-2.8782 -3.38994,-4.61135 -1.13086,-2.73013 -1.06989,-3.58822 0.4563,-6.42219 4.0657,-7.54954 16.11484,-7.45555 18.62334,0.14527 0.9529,2.88731 0.80455,3.84768 -1.06045,6.86532 -1.19258,1.92963 -2.99852,3.95273 -4.01321,4.49577 -2.70733,1.44892 -8.2231,1.20325 -10.61604,-0.47282 z M 69.912641,317.80423 c -3.882109,-1.68869 -5.328737,-4.21055 -5.328737,-9.28941 0,-4.50919 3.941494,-9.10487 8.104299,-9.44939 6.766032,-0.55997 13.698068,6.26692 12.39369,12.20571 -0.781966,3.56027 -6.14711,8.00777 -9.59238,7.95171 -1.323085,-0.0215 -3.832677,-0.65991 -5.576872,-1.41862 z m 167.799719,-2.59139 c -3.2345,-1.98517 -3.3522,-2.27051 -2.89582,-7.0202 0.62877,-6.54377 2.8502,-8.93065 8.31156,-8.93065 5.97395,0 8.55845,2.35421 8.6345,7.86515 0.10808,7.83082 -7.41318,12.15919 -14.05024,8.0857 z m -89.05486,-0.69678 c -4.41877,-2.26209 -6.84634,-8.38519 -4.85826,-12.25407 2.70783,-5.26954 8.34857,-7.62688 13.29975,-5.55814 6.89814,2.88222 8.57436,10.10986 3.5837,15.45238 -1.59567,1.70817 -3.58386,3.10576 -4.41821,3.10576 -0.83435,0 -2.11631,0.22683 -2.84879,0.50407 -0.73249,0.27724 -2.87367,-0.28526 -4.75819,-1.25 z m -29.74486,-1.71183 c -3.83847,-1.66971 -5.32874,-4.20776 -5.32874,-9.07529 0,-7.28486 8.88668,-12.15802 15.9084,-8.72363 2.92629,1.43127 3.75189,2.52046 4.45693,5.87989 1.12265,5.34925 -0.70896,9.29213 -5.37693,11.57484 -4.23929,2.07308 -5.57566,2.1207 -9.65966,0.34419 z m -87.328736,-0.19799 c -6.649838,-2.65465 -8.304163,-11.22764 -3.023955,-15.67064 7.800301,-6.56352 16.963977,-2.78117 17.009213,7.02063 0.02133,4.6208 -3.542439,8.3325 -8.486821,8.83912 -2.19914,0.22533 -4.673437,0.14023 -5.498437,-0.18911 z m 144.253756,-7.45692 c -3.83592,-2.45662 -5.39644,-6.99562 -3.91501,-11.38733 2.68494,-7.95949 12.76038,-9.44443 17.39709,-2.56402 3.27903,4.86575 2.94567,8.58251 -1.13584,12.66402 -4.00144,4.00144 -7.53325,4.3697 -12.34624,1.28733 z m 38.85517,0.51643 c -3.50092,-1.47203 -5.10893,-4.11708 -5.10893,-8.40376 0,-4.45951 1.54695,-6.78386 5.65819,-8.50165 5.03994,-2.10582 7.64498,-1.87349 10.69579,0.9539 3.71997,3.44755 3.78027,10.59207 0.11803,13.98611 -3.09346,2.86692 -7.43362,3.61761 -11.36308,1.9654 z m -123.295308,-6.0639 c -3.590692,-3.79584 -4.89815,-7.41146 -3.577257,-9.89249 3.297453,-6.19359 9.199104,-8.75228 14.818515,-6.42464 3.73629,1.54762 5.05559,3.89862 5.1279,9.13791 0.074,5.36474 -3.07787,8.59337 -9.191573,9.41529 -4.027713,0.54148 -4.768436,0.31072 -7.177585,-2.23607 z m -40.937605,-6.73224 c -5.202793,-3.60129 -6.181963,-7.18151 -3.423171,-12.51643 3.081472,-5.95891 13.195811,-6.32874 16.936782,-0.6193 6.050105,9.23363 -4.431552,19.42219 -13.513611,13.13573 z m 201.359443,1.35584 c -2.85819,-1.14826 -4.54797,-5.48412 -3.76462,-9.65972 1.31188,-6.99294 11.26385,-9.99907 15.45658,-4.66888 3.73502,4.74831 2.39999,11.11023 -2.9074,13.85479 -3.27239,1.69222 -5.4583,1.81012 -8.78456,0.47381 z m -121.48548,-5.04357 c -2.70759,-1.57702 -4.7989,-6.42528 -4.15669,-9.63636 0.63887,-3.19433 5.78806,-7.28353 9.17154,-7.28353 8.32708,0 12.18177,9.20724 6.31209,15.07692 -3.086,3.086 -7.85935,3.86266 -11.32694,1.84297 z m 22.16336,-1.20169 c -4.17061,-3.2021 -4.92605,-8.16103 -1.84076,-12.08334 1.66716,-2.11946 2.91695,-2.63486 6.38922,-2.63486 5.75562,0 8.6912,2.41392 8.82855,7.25974 0.14361,5.06628 -3.333,8.75188 -8.21466,8.70846 -1.96663,-0.0175 -4.28969,-0.58 -5.16235,-1.25 z m -137.090598,-5.4682 c -3.188047,-3.43614 -3.914901,-6.33234 -2.696584,-10.74472 1.191482,-4.31519 4.236822,-6.50528 9.045666,-6.50528 2.913105,0 4.391878,0.7096 6.772867,3.25 4.267316,4.55302 4.156399,8.84891 -0.344687,13.35 -4.419591,4.41959 -9.060785,4.6557 -12.777262,0.65 z m 214.472068,1.66286 c -4.09318,-1.20914 -6.29481,-4.37316 -6.29481,-9.04647 0,-8.68335 13.60526,-12.39798 17.54005,-4.78895 2.11116,4.08254 1.80863,8.4208 -0.79005,11.32915 -2.67101,2.98929 -6.06549,3.803 -10.45519,2.50627 z m -31.29481,-0.57767 c -4.65173,-1.8488 -7.08828,-8.34259 -5.0962,-13.58216 2.17479,-5.72013 12.22749,-7.71264 16.64165,-3.29848 3.3354,3.33539 3.43773,10.32493 0.20455,13.97185 -2.27657,2.56789 -8.64253,4.14383 -11.75,2.90879 z m -86.88215,-2.71081 c -2.0864,-0.75473 -4.17406,-2.58892 -5.44915,-4.78754 -1.8607,-3.20837 -1.94099,-3.98464 -0.80449,-7.77796 2.90449,-9.69432 15.79986,-8.66686 19.16411,1.52694 1.45226,4.4004 -0.89731,9.04367 -5.56262,10.99296 -1.8708,0.78167 -3.52842,1.38698 -3.68358,1.34514 -0.15517,-0.0418 -1.80409,-0.62663 -3.66427,-1.29954 z m -39.812082,-3.0378 c -2.401986,-2.0661 -2.805764,-3.15814 -2.805764,-7.58835 0,-5.97003 2.136952,-8.46429 8.231262,-9.60759 9.269603,-1.73899 15.205468,8.39953 9.467065,16.16984 -3.10803,4.20855 -10.593174,4.72428 -14.892563,1.0261 z m 97.928852,-1.58263 c -5.37302,-5.00572 -2.95749,-14.36437 4.34314,-16.82698 10.18034,-3.43399 16.48047,8.64126 8.38594,16.07303 -3.72228,3.4175 -9.50261,3.75987 -12.72908,0.75395 z m -32.23462,-8.2826 c -5.51658,-2.75646 -7.45785,-12.34797 -3.40546,-16.82582 3.66806,-4.05315 12.65887,-3.22722 15.94529,1.46479 1.94123,2.77151 1.85451,8.63166 -0.17052,11.52281 -1.43981,2.05562 -6.93798,5.14264 -9.08719,5.10213 -0.43017,-0.008 -1.90712,-0.57687 -3.28212,-1.26391 z m -99.275405,-1.47318 c -4.729533,-5.22607 -4.093504,-14.22671 1.134106,-16.04907 3.540369,-1.23418 10.770671,0.002 12.98922,2.22025 2.61684,2.61684 2.18718,9.84994 -0.772231,13.00009 -1.935006,2.05972 -3.367017,2.58056 -7.095012,2.58056 -3.180152,0 -5.176638,-0.55906 -6.256083,-1.75183 z M 258.6977,265.67953 c -2.98288,-3.79211 -3.39406,-5.97489 -1.73126,-9.19039 2.01453,-3.89567 3.80265,-5.22067 7.95476,-5.89446 4.63636,-0.75238 8.6627,2.93375 8.6627,7.93073 0,7.91606 -10.3676,12.89859 -14.8862,7.15412 z M 92.583904,264.17617 c -3.064357,-1.1374 -6,-6.05004 -6,-10.04067 0,-3.44323 3.543836,-7.46993 7.433289,-8.44612 3.104626,-0.77921 8.386017,1.19894 10.783437,4.03895 1.73349,2.05351 2.3079,7.00291 1.15994,9.99447 -0.66554,1.73435 -7.438176,5.59176 -9.586828,5.46024 -0.709411,-0.0434 -2.414838,-0.49651 -3.789838,-1.00687 z M 233.1187,259.1584 c -4.9447,-4.3415 -4.93259,-8.84197 0.0364,-13.52833 2.39163,-2.2556 4.62117,-3.40722 6.75,-3.48656 5.17135,-0.19275 6.0671,0.0969 8.4288,2.72562 4.32039,4.80886 2.04182,12.38068 -4.78864,15.91284 -4.2247,2.18468 -6.49116,1.83176 -10.42656,-1.62357 z M 8.9724269,257.09911 c -2.342132,-2.59242 -4.388523,-7.91472 -4.388523,-11.41376 0,-3.60816 4.726812,-6.7169 9.2880991,-6.10862 5.177163,0.69041 8.321599,2.9726 9.652673,7.0058 2.018965,6.11752 -1.669195,11.11584 -9.085001,12.31229 -2.666158,0.43015 -3.789681,0.0611 -5.4672481,-1.79571 z M 115.61792,256.53499 c -1.90629,-0.97515 -4.30605,-3.22836 -5.33279,-5.00714 -3.59977,-6.2364 1.04554,-13.1136 9.07015,-13.42803 4.47881,-0.1755 9.00476,2.42207 9.80995,5.6302 1.15552,4.60397 0.0103,9.76719 -2.58133,11.6375 -3.86374,2.7884 -7.11964,3.13503 -10.96598,1.16747 z m 42.71596,-1.35311 c -2.28895,-1.33319 -4.74998,-6.16448 -4.74998,-9.32478 0,-2.53453 4.08141,-7.5181 6.29545,-7.687 6.30583,-0.48106 7.31993,-0.26551 9.09972,1.93418 2.7593,3.41028 3.54141,8.135 1.89548,11.45067 -2.07169,4.17337 -8.44021,6.01523 -12.54067,3.62693 z m 23.16336,-0.20169 c -6.718,-5.15792 -3.69533,-15.35346 5.26735,-17.76686 4.64143,-1.2498 7.11326,-0.15717 9.86908,4.36248 2.7973,4.58766 2.49028,8.29998 -0.97285,11.7631 -2.43734,2.43735 -3.72517,2.9178 -7.75,2.89128 -2.6548,-0.0175 -5.54092,-0.58 -6.41358,-1.25 z m 25.55419,-2.05067 c -2.98469,-2.98469 -3.24719,-3.68913 -2.51525,-6.75 1.38787,-5.80395 2.03882,-6.64241 6.47099,-8.33508 5.65353,-2.1591 9.12262,-0.91354 11.1818,4.01478 1.96208,4.69591 1.03654,8.6851 -2.75531,11.87574 -4.25975,3.58434 -8.25215,3.32464 -12.38223,-0.80544 z m -146.219082,0.0825 c -4.412157,-4.7269 -3.703517,-12.31036 1.366198,-14.62028 11.096332,-5.05583 20.639989,5.6296 12.611484,14.12028 -3.473713,3.67368 -10.771644,3.93474 -13.977682,0.5 z M 262.1551,240.89391 c -3.97068,-3.74483 -4.52604,-6.88479 -2.06085,-11.65194 1.84994,-3.57738 4.3095,-4.97998 8.73278,-4.97998 4.44022,0 6.69486,1.77906 7.63787,6.02678 1.14995,5.17988 -0.42892,9.72685 -4.16946,12.00757 -4.43332,2.70313 -6.01983,2.48371 -10.14034,-1.40243 z M 86.882939,239.75889 c -2.965427,-2.07707 -4.635643,-7.48136 -3.353975,-10.8524 1.128369,-2.96783 6.461311,-6.63508 9.657057,-6.64076 1.156164,-0.002 3.631164,1.02313 5.5,2.27818 5.920389,3.97597 4.903939,12.5615 -1.819998,15.37271 -4.190641,1.75207 -7.327214,1.70251 -9.983084,-0.15773 z m 50.213331,0.29002 c -6.17996,-3.58264 -7.33137,-10.2853 -2.53631,-14.76456 3.66769,-3.42613 7.53208,-4.25471 11.70727,-2.51021 6.56759,2.74412 8.08295,12.16673 2.64463,16.44452 -2.88264,2.26748 -8.6387,2.67195 -11.81559,0.83025 z M 36.813433,239.15119 c -1.090285,-0.40332 -2.960483,-2.10699 -4.155996,-3.78593 -2.835926,-3.98269 -1.96385,-9.46917 2.110021,-13.27474 5.221501,-4.87761 15.882661,-2.35651 17.298709,4.09071 0.785151,3.57478 -1.640622,9.30185 -4.818416,11.37594 -2.717241,1.77349 -7.835486,2.5554 -10.434318,1.59402 z m 125.742977,-4.5355 c -3.95461,-2.63316 -4.97251,-4.462 -4.97251,-8.93405 0,-5.30936 2.32513,-8.25351 7.42638,-9.40347 7.93178,-1.78805 13.69152,4.21138 12.11434,12.61846 -1.14684,6.1132 -9.21777,9.28162 -14.56821,5.71906 z m -52.70993,-1.46922 c -3.64248,-1.05215 -6.26258,-5.10973 -6.26258,-9.69846 0,-3.42678 4.22269,-8.1491 7.38636,-8.26033 1.1625,-0.0409 3.16763,-0.26938 4.45584,-0.5078 3.16025,-0.58488 9.1578,5.33013 9.1578,9.03177 0,4.16391 -2.6329,8.22672 -6.11884,9.44192 -3.6416,1.26947 -4.20074,1.26901 -8.61858,-0.007 z m 127.73742,-1.36694 c -4.30539,-1.45208 -7.92976,-6.43417 -7.25366,-9.97096 0.61885,-3.23731 6.6069,-8.54658 9.63923,-8.54658 4.68142,0 8.42511,2.08127 10.10269,5.6165 3.94261,8.30844 -3.45289,15.9484 -12.48826,12.90104 z M 60.888165,230.30595 c -2.320165,-1.4147 -3.38588,-2.9621 -3.88973,-5.64786 -1.38792,-7.39824 2.178037,-11.35283 10.262889,-11.38136 3.331806,-0.0118 4.596961,0.51862 6.25,2.62012 3.189453,4.05473 2.777403,9.50647 -1.004343,13.28822 -3.605964,3.60596 -7.005326,3.9339 -11.618816,1.12088 z M 8.5379369,228.51199 c -6.962489,-6.22152 -3.991241,-16.52273 4.7657621,-16.52273 4.926139,0 9.772816,3.11499 10.720282,6.89 2.446649,9.74823 -8.049988,16.27742 -15.4860441,9.63273 z m 175.8966731,1.62129 c -2.79792,-1.02528 -5.10071,-5.24098 -5.10071,-9.33785 0,-2.1935 4.19232,-10.27578 4.23315,-8.161 0.009,0.47985 0.66065,0.33814 1.44753,-0.31491 1.66658,-1.38314 6.07377,-1.66698 9.41542,-0.60638 2.60473,0.82671 5.1539,5.93137 5.1539,10.32056 0,3.92822 -5.55968,9.25598 -9.54761,9.14934 -1.62381,-0.0434 -4.14457,-0.51581 -5.60168,-1.04976 z m 24.51337,-3.04088 c -3.95086,-1.91304 -5.49851,-8.2465 -3.23114,-13.22284 3.07076,-6.73957 13.77432,-6.30409 17.2165,0.70047 2.18152,4.43923 1.63152,7.80191 -1.84465,11.27808 -2.61439,2.61439 -8.1413,3.18084 -12.14071,1.24429 z M 92.414926,217.78189 c -1.514661,-0.85062 -3.178448,-3.04258 -3.846961,-5.06819 -2.301306,-6.97303 2.49186,-12.45171 10.893699,-12.45171 4.982926,0 8.122236,3.45838 8.122236,8.94777 0,7.01162 -8.945815,12.06699 -15.168974,8.57213 z m 31.241554,-4.15476 c -3.43457,-4.36635 -3.21051,-10.85408 0.48748,-14.11514 7.58148,-6.6857 19.25086,1.54964 15.39305,10.86321 -2.50616,6.0504 -12.12921,8.02096 -15.88053,3.25193 z m 25.63135,1.03875 c -5.53524,-3.00123 -6.26173,-10.14626 -1.48533,-14.60809 2.77406,-2.59136 3.79354,-2.94182 7.38131,-2.53743 8.27203,0.93238 12.0364,6.4911 8.88835,13.12513 -2.49882,5.26587 -9.15096,7.07482 -14.78433,4.02039 z m 115.0659,-1.10087 c -1.74119,-0.44485 -3.12941,-4.24269 -4.31929,-11.81658 -0.79645,-5.06963 1.66743,-7.79445 6.60705,-7.30677 4.398,0.43419 7.21914,4.36532 7.34517,10.23518 0.13348,6.21666 -4.25186,10.26296 -9.63293,8.88817 z M 40.368266,209.17193 c -4.668538,-3.48415 -4.97387,-11.79219 -0.583695,-15.88226 5.03162,-4.68767 15.005185,-0.77778 16.353829,6.41112 0.713421,3.80286 -1.468115,8.90942 -4.499105,10.53156 -3.058125,1.63665 -8.320539,1.14155 -11.271029,-1.06042 z M 170.5839,208.06487 c -3.05034,-2.06486 -3.53898,-2.97087 -3.8034,-7.05202 -0.36736,-5.66986 0.85932,-8.2113 4.99579,-10.35035 7.37587,-3.81421 15.80761,0.79407 15.80761,8.63948 0,8.69025 -9.71192,13.69639 -17,8.76289 z M 68.333882,207.18188 c -0.962512,-0.56061 -2.453553,-2.37977 -3.313424,-4.04258 -3.1812,-6.15176 0.851378,-12.43581 8.620043,-13.43279 3.712112,-0.47639 4.870401,-0.18959 7.037889,1.74262 3.313525,2.95385 4.178252,7.38571 2.242513,11.49324 -2.159826,4.58302 -10.056747,6.87815 -14.587021,4.23951 z m 130.299358,-3.66989 c -6.466,-5.96253 -2.97323,-17.25 5.33781,-17.25 7.64389,0 11.07073,3.81795 10.43088,11.62136 -0.28463,3.47133 -0.78658,4.11492 -4.77992,6.12864 -5.76783,2.90855 -7.37153,2.83558 -10.98877,-0.5 z m -183.549336,0.80464 c -2.946914,-1.20615 -5.1871091,-4.12966 -5.9632261,-7.78217 -0.996117,-4.68786 0.126254,-7.06298 4.2877511,-9.0736 9.367705,-4.52598 19.001917,4.60936 13.529171,12.82862 -3.247648,4.87749 -6.814991,6.08946 -11.853696,4.02715 z m 215.739076,-3.08891 c -6.39222,-2.83986 -8.13371,-8.81835 -3.89956,-13.38707 3.10365,-3.34889 6.3427,-4.43971 10.43951,-3.51573 5.24684,1.18336 7.22097,3.55933 7.22097,8.69085 0,3.68176 -0.53259,4.94131 -3.10576,7.34501 -3.58755,3.35128 -4.83478,3.45276 -10.65516,0.86694 z m -125.316,-2.88881 c -3.88974,-3.88974 -4.0996,-9.99131 -0.46853,-13.62237 5.16129,-5.1613 17.54545,-1.50226 17.54545,5.184 0,5.89049 -5.55081,11.36145 -11.52726,11.36145 -1.56974,0 -3.80274,-1.17615 -5.54966,-2.92308 z m 47.49712,-4.21011 c -5.73932,-2.81625 -7.07791,-11.36294 -2.49712,-15.94373 2.39722,-2.39722 3.76423,-2.92308 7.59879,-2.92308 3.94119,0 5.13147,0.48789 7.57692,3.10576 3.06744,3.28371 3.59959,6.26735 1.816,10.18192 -1.99808,4.38531 -10.36461,7.60568 -14.49459,5.57913 z m -24.58277,-1.11681 c -3.07399,-2.48733 -4.83743,-6.27852 -4.83743,-10.39993 0,-5.20971 3.35183,-8.35007 8.91235,-8.35007 4.3603,0 7.53383,2.02835 9.68645,6.19106 1.46577,2.83449 1.45132,3.37139 -0.18867,7.00823 -2.6239,5.81877 -9.67676,8.70312 -13.5727,5.55071 z m -42.480427,-6.69041 c -3.082635,-1.31761 -5.356999,-5.00839 -5.356999,-8.6932 0,-2.3605 0.832255,-3.8889 3.204568,-5.88507 2.787713,-2.3457 3.852619,-2.6342 8.186431,-2.21777 5.875614,0.56457 8.608997,3.19714 8.608997,8.29147 0,6.63045 -8.066631,11.3155 -14.642997,8.50457 z M 251.9409,185.27041 c -2.75041,-1.10993 -5.357,-4.83428 -5.357,-7.6542 0,-5.35049 8.27621,-10.67088 13.84823,-8.90239 3.0151,0.95696 5.71128,8.6112 4.11721,11.68839 -2.95418,5.70272 -6.83113,7.19963 -12.60844,4.8682 z M 53.595142,184.36814 c -2.913623,-0.80898 -7.011238,-6.43076 -7.011238,-9.61917 0,-5.75061 9.126863,-10.91971 14.991389,-8.49055 5.355995,2.21853 6.783782,10.79608 2.55636,15.35755 -1.348738,1.45531 -3.111934,2.64602 -3.918213,2.64602 -0.806278,0 -2.065265,0.17936 -2.797749,0.39858 -0.732483,0.21922 -2.45173,0.0876 -3.820549,-0.29243 z m 127.819778,-1.63567 c -3.06376,-1.66385 -5.32829,-7.35307 -4.39961,-11.05324 0.7916,-3.15395 4.86833,-6.72229 8.18795,-7.16685 4.7749,-0.63945 9.44879,1.66847 11.02667,5.44486 3.75303,8.98227 -6.12092,17.49674 -14.81501,12.77523 z m 35.43156,-2.57661 c -5.09367,-1.4861 -7.92423,-8.41994 -5.37889,-13.17633 1.84741,-3.4522 6.14485,-5.08714 11.71985,-4.45876 5.49854,0.61977 6.4948,1.49189 7.35704,6.44037 1.52292,8.7401 -4.69471,13.82147 -13.698,11.19472 z M 22.583904,177.66158 c -3.824427,-2.58867 -5,-4.47986 -5,-8.04367 0,-6.84237 3.849607,-10.75592 10.580184,-10.75592 5.204564,0 7.670494,3.01832 7.968824,9.7539 0.200271,4.52164 -0.136114,5.84542 -1.902866,7.48838 -3.128505,2.90929 -8.573157,3.63735 -11.646142,1.55731 z m 85.287856,-6.04925 c -0.66668,-0.27047 -2.16471,-2.03305 -3.32895,-3.91683 -1.85879,-3.00758 -1.97273,-3.86161 -0.93476,-7.00668 1.30887,-3.96592 5.95226,-7.41935 9.97585,-7.41935 3.65052,0 8.84623,3.53167 9.59711,6.52343 0.77349,3.0818 -2.10925,10.13763 -4.71064,11.52985 -1.81588,0.97183 -8.4689,1.15361 -10.59861,0.28958 z m 49.82806,-2.10034 c -5.97674,-5.6372 -4.13592,-13.60316 3.74449,-16.20393 3.33227,-1.09975 4.66915,-1.12582 6.84701,-0.13351 5.12142,2.33347 7.94094,8.92911 6.08856,14.24284 -1.27926,3.66969 -3.51395,4.8446 -9.21446,4.8446 -3.59011,0 -5.16505,-0.58014 -7.4656,-2.75 z m -23.14341,-3.8963 c -6.00685,-3.99963 -6.592,-8.43961 -1.82745,-13.86613 2.93088,-3.33809 3.49041,-3.56179 8.21628,-3.2848 4.50469,0.26403 5.32634,0.67682 7.35494,3.69511 3.18334,4.7364 2.9022,7.68364 -1.11628,11.70212 -3.87638,3.87638 -8.47944,4.51565 -12.62749,1.7537 z m -65.520255,-4.99972 c -3.121366,-3.36801 -3.183822,-7.96947 -0.169067,-12.4561 1.981661,-2.94915 2.906096,-3.43813 7,-3.70267 2.83386,-0.18312 4.716816,0.11628 4.716816,0.75 0,0.58013 0.663444,1.05479 1.47432,1.05479 1.812905,0 4.52568,5.0193 4.52568,8.37361 0,1.36012 -1.165002,3.85747 -2.588894,5.54966 -2.24998,2.67395 -3.238059,3.07673 -7.547749,3.07673 -4.077908,0 -5.3945,-0.47007 -7.411106,-2.64602 z M 235.734,161.19273 c -4.59041,-4.92723 -3.33436,-12.12015 2.54546,-14.5769 9.0363,-3.7756 16.30683,3.93949 11.84449,12.56872 -2.3278,4.50146 -10.94654,5.70425 -14.38995,2.00818 z m -38.63773,-2.0869 c -9.58823,-5.83307 -5.63972,-17.84384 5.86612,-17.84384 7.7793,0 12.4771,9.62739 7.47895,15.32691 -2.74721,3.13272 -10.06438,4.51276 -13.34507,2.51693 z M 39.938333,157.56994 c -3.31886,-0.64918 -5.542898,-3.80043 -6.086597,-8.62411 -0.43072,-3.82134 -0.111325,-4.82745 2.438409,-7.6811 2.74677,-3.07417 3.224092,-3.24027 7.478009,-2.60236 6.203384,0.93025 9.092801,4.11562 9.219338,10.16362 0.08103,3.87281 -0.351302,4.99332 -2.709352,7.02206 -2.669878,2.29703 -5.224551,2.72246 -10.339807,1.72189 z m 51.236372,-10.21317 c -4.102858,-4.28246 -4.015895,-9.43227 0.22324,-13.21993 7.98114,-7.13115 19.472405,-0.33289 16.199625,9.58373 -2.24624,6.80618 -11.436377,8.84097 -16.422865,3.6362 z m 80.838865,-1.05948 c -2.95815,-1.19725 -5.42967,-5.42023 -5.42967,-9.27743 0,-4.74782 4.74511,-8.75962 10.35283,-8.7529 5.80017,0.007 9.5973,3.20431 10.33474,8.70236 0.49876,3.71855 0.21588,4.54306 -2.48545,7.2444 -2.37468,2.37468 -3.89393,3.03426 -6.8752,2.98488 -2.1048,-0.0349 -4.75857,-0.44045 -5.89725,-0.90131 z m 45.78974,-5.63222 c -3.31615,-1.44932 -5.21941,-4.65601 -5.21941,-8.79387 0,-3.42896 4.22078,-6.76706 9.2771,-7.33698 3.90408,-0.44004 4.64586,-0.18563 6.56226,2.25068 3.88972,4.94498 2.34817,11.20989 -3.52362,14.32011 -2.63637,1.39646 -2.93716,1.37781 -7.09633,-0.43994 z m -96.46614,-0.36013 c -5.53552,-1.07416 -7.75327,-3.5367 -7.75327,-8.60904 0,-5.58128 4.13371,-9.43391 10.12218,-9.43391 5.65223,0 8.87782,3.40283 8.87782,9.36565 0,3.7488 -0.48862,4.86771 -3.07673,7.04546 -1.69219,1.42389 -3.37969,2.53714 -3.75,2.47389 -0.3703,-0.0632 -2.3593,-0.44217 -4.42,-0.84205 z m 22.16981,-2.96603 c -4.83762,-4.83762 -3.52743,-12.61319 2.61661,-15.52873 8.6786,-4.11826 15.90472,1.6367 13.40818,10.67842 -2.1403,7.75153 -10.57162,10.30348 -16.02479,4.85031 z m -86.781355,-3.62388 c -2.546071,-3.2368 -3.372542,-7.13078 -2.324713,-10.95304 0.967748,-3.53014 4.258173,-5.46476 9.3294,-5.48526 2.954256,-0.0119 4.255581,0.67907 6.855666,3.6404 2.726673,3.10551 3.123259,4.19571 2.637353,7.25 -0.805102,5.06067 -4.599348,8.09486 -10.122611,8.09486 -3.493527,0 -4.774084,-0.5116 -6.375095,-2.54696 z m 136.626055,-9.42106 c -4.89797,-3.85274 -4.35724,-13.53111 0.88954,-15.92171 7.31552,-3.33317 14.02898,0.13202 15.05344,7.76993 0.48867,3.6433 0.20288,4.39805 -2.68773,7.09829 -3.91638,3.65844 -9.39049,4.09351 -13.25525,1.05349 z M 85.287833,121.66588 c -3.156225,-1.71132 -4.703929,-4.9621 -4.703929,-9.8801 0,-4.85753 4.606011,-8.52379 10.708648,-8.52379 3.927825,0 5.019072,0.49185 7.923275,3.5712 5.125743,5.43487 4.439153,11.78932 -1.611907,14.91845 -3.687269,1.90676 -8.705672,1.87181 -12.316087,-0.0858 z m 83.296067,-6.13247 c -5.37974,-1.86835 -9.36383,-9.85457 -7.06189,-14.15577 1.49475,-2.792974 6.18271,-5.115654 10.32514,-5.115654 5.56352,0 11.00143,7.439984 9.31698,12.747214 -1.1954,3.76637 -8.94653,7.78617 -12.58023,6.52421 z m -55.16399,-3.40503 c -2.63749,-0.96601 -3.31307,-1.93927 -4.82148,-6.94599 -2.04076,-6.773694 5.58152,-13.370114 12.23547,-10.588724 4.5402,1.89782 5.86421,3.86025 5.93228,8.792734 0.0492,3.56316 -0.46078,4.73523 -3.07745,7.07323 -3.26316,2.91563 -5.75767,3.32101 -10.26882,1.66875 z m 24.96348,-4.35667 c -7.87402,-5.35054 -3.80297,-16.509724 6.02301,-16.509724 4.3811,0 6.06995,0.89133 7.71449,4.07152 2.35522,4.55449 1.85184,8.693494 -1.46007,12.005404 -3.64419,3.6442 -7.35873,3.77514 -12.27743,0.4328 z"
     id="path61"
     inkscape:connector-curvature="0" />
</svg>
