<?xml version="1.0" encoding="UTF-8" standalone="no"?>
<!-- Created with Inkscape (http://www.inkscape.org/) -->

<svg
   xmlns:dc="http://purl.org/dc/elements/1.1/"
   xmlns:cc="http://creativecommons.org/ns#"
   xmlns:rdf="http://www.w3.org/1999/02/22-rdf-syntax-ns#"
   xmlns:svg="http://www.w3.org/2000/svg"
   xmlns="http://www.w3.org/2000/svg"
   xmlns:sodipodi="http://sodipodi.sourceforge.net/DTD/sodipodi-0.dtd"
   xmlns:inkscape="http://www.inkscape.org/namespaces/inkscape"
   version="1.1"
   id="svg2949"
   width="283"
   height="443"
   viewBox="0 0 283 443"
   sodipodi:docname="feu86.svg"
   inkscape:version="0.92.4 (5da689c313, 2019-01-14)">
  <metadata
     id="metadata2955">
    <rdf:RDF>
      <cc:Work
         rdf:about="">
        <dc:format>image/svg+xml</dc:format>
        <dc:type
           rdf:resource="http://purl.org/dc/dcmitype/StillImage" />
        <dc:title></dc:title>
      </cc:Work>
    </rdf:RDF>
  </metadata>
  <defs
     id="defs2953" />
  <sodipodi:namedview
     pagecolor="#ffffff"
     bordercolor="#666666"
     borderopacity="1"
     objecttolerance="10"
     gridtolerance="10"
     guidetolerance="10"
     inkscape:pageopacity="0"
     inkscape:pageshadow="2"
     inkscape:window-width="1280"
     inkscape:window-height="972"
     id="namedview2951"
     showgrid="false"
     inkscape:zoom="1.5067919"
     inkscape:cx="112.64858"
     inkscape:cy="221.5"
     inkscape:window-x="-8"
     inkscape:window-y="-8"
     inkscape:window-maximized="1"
     inkscape:current-layer="g151"
     showguides="false" />
  <g
     id="g151"
     transform="translate(25.882805,-2.654647)">
    <path
       style="fill:#ffffff"
       d="m 97.621898,314.93357 c -3.960761,-4.0785 -4.184621,-5.33972 -1.73233,-9.75986 0.9625,-1.73486 1.80563,-3.28492 1.87362,-3.44457 0.44753,-1.05092 10.318292,-1.71204 11.498112,-0.77013 2.36972,1.89188 3.87827,5.39685 3.87827,9.01079 0,2.89583 -0.62428,3.90173 -3.73213,6.01357 -5.06835,3.44403 -7.64426,3.21458 -11.785542,-1.0498 z m 28.267672,0.1938 c -0.9625,-0.73064 -1.75,-1.84133 -1.75,-2.46819 0,-0.62687 -0.40077,-1.13976 -0.89059,-1.13976 -1.35748,0 -1.92943,-7.26797 -0.72562,-9.22075 1.49419,-2.42382 5.5304,-3.87487 9.48509,-3.40996 5.54724,0.65214 10.67363,8.71783 6.54727,10.30126 -1.06109,0.40718 -1.21494,0.83577 -0.46613,1.29856 1.83004,1.13103 0.11047,3.81415 -3.17942,4.96101 -4.03861,1.40787 -6.87501,1.30657 -9.0206,-0.32217 z m -52.777497,-2.25425 c -3.944625,-2.62651 -4.972506,-4.46016 -4.972506,-8.87052 0,-3.02883 0.618963,-4.71604 2.314451,-6.30887 3.496679,-3.28495 11.668329,-2.80818 11.700859,0.68268 0.0121,1.29862 0.19487,1.35965 0.87196,0.29116 0.67121,-1.0592 1.20908,-0.84868 2.48469,0.97251 3.41412,4.87434 1.63488,9.86306 -4.5904,12.87079 -5.00633,2.41879 -4.73904,2.4064 -7.809054,0.36225 z m 76.527497,-3.54865 c -2.8544,-1.61862 -3.46736,-2.8327 -3.48469,-6.90204 -0.0153,-3.59544 2.62929,-7.90301 4.85199,-7.90301 0.62298,0 1.1327,-0.45 1.1327,-1 0,-1.79797 5.94517,-1.05483 8,1 1.1,1.1 2.32666,1.8875 2.72592,1.75 1.27151,-0.4379 2.58666,4.86843 1.8923,7.635 -1.10393,4.39839 -4.09434,6.61875 -8.86822,6.58459 -2.3375,-0.0167 -5.15,-0.54077 -6.25,-1.16454 z m -99.750003,-8.96733 c -3.221621,-1.17664 -3.788925,-5.07034 -1,-6.86354 1.601922,-1.02998 1.587533,-1.07363 -0.17005,-0.51582 -4.664988,1.48055 -3.168079,-5.53253 1.888011,-8.84541 2.482546,-1.62663 2.601472,-1.60612 3.487726,0.6015 0.693491,1.72745 0.933018,1.85823 0.980927,0.53555 0.0792,-2.18669 1.4688,-2.2143 5.047502,-0.10031 2.115736,1.24979 2.927307,2.64362 3.347997,5.75 0.489845,3.61701 0.185206,4.48338 -2.584575,7.35031 -3.301074,3.41686 -5.970758,3.92366 -10.997538,2.08772 z m 2.912281,-6.08772 c -0.277413,-0.6875 -0.504386,-0.125 -0.504386,1.25 0,1.375 0.226973,1.9375 0.504386,1.25 0.277412,-0.6875 0.277412,-1.8125 0,-2.5 z m 117.260802,2.32692 c -1.6077,-1.60769 -2.92308,-3.65504 -2.92308,-4.54966 0,-3.28441 3.20203,-7.71373 6.60396,-9.13514 3.05731,-1.27743 3.85466,-1.26832 6.6884,0.0764 3.90934,1.85511 5.95585,6.04046 5.08433,10.39806 -1.3291,6.64548 -10.17983,8.48415 -15.45361,3.21037 z m -54.56732,-7.44733 c -5.17864,-4.45448 -3.08723,-12.11296 4.1445,-15.17668 6.44325,-2.72967 12.49974,1.43391 12.49974,8.59306 0,7.80144 -10.43148,11.92761 -16.64424,6.58362 z m -23.133253,-0.18629 c -1.77953,-1.24643 -2.22251,-2.52774 -2.22251,-6.42858 0,-8.86924 6.044391,-11.80762 14.728513,-7.16002 2.19608,1.17531 3.48341,5.61892 2.60308,8.98531 -0.72,2.75328 -6.23773,6.15999 -9.977122,6.15999 -1.6002,0 -3.909591,-0.70052 -5.131961,-1.5567 z m 51.079853,-2.45509 c -2.29579,-0.92455 -5.30236,-5.73757 -5.30236,-8.48821 0,-2.58744 2.85173,-7.35028 5.13146,-8.57036 1.16092,-0.6213 3.73694,-1.12964 5.72448,-1.12964 2.86772,0 4.18455,0.68376 6.37889,3.31223 1.52084,1.82172 2.76517,4.15975 2.76517,5.19563 0,2.93963 -3.9598,7.77739 -7.61654,9.30528 -3.76904,1.57481 -4.06327,1.59039 -7.0811,0.37507 z M 23.581379,281.28614 c -3.622399,-3.83793 -2.922761,-8.94054 1.776608,-12.95719 3.869487,-3.30733 6.145567,-3.49473 10.464063,-0.86155 2.355019,1.43596 3.271591,2.80002 3.525197,5.24626 0.368881,3.55815 -1.752425,9.20516 -3.136578,8.3497 -0.464047,-0.28679 -1.083088,0.39389 -1.375647,1.51264 -0.839148,3.20891 -7.755773,2.41615 -11.253643,-1.28986 z M 190.4412,281.05175 c -1.26707,-1.11778 -2.58093,-3.4768 -2.91969,-5.24227 -0.51499,-2.68395 -0.11777,-3.70807 2.42415,-6.25 1.95774,-1.95774 4.0465,-3.03829 5.86699,-3.03509 7.56736,0.0133 12.04747,10.04524 6.59353,14.76437 -3.23724,2.80108 -8.64247,2.69401 -11.96498,-0.23701 z M 65.889567,279.6261 c -0.9625,-0.97595 -1.75,-2.29921 -1.75,-2.94057 0,-0.64136 -0.45,-1.16611 -1,-1.16611 -0.55,0 -1,-0.94303 -1,-2.09563 0,-5.76953 9.012978,-11.57334 13.90604,-8.95465 2.58874,1.38545 6.08488,6.76851 6.09022,9.3772 0.002,1.00481 -1.31164,3.14231 -2.91934,4.75 -2.3603,2.3603 -3.75613,2.91164 -7.249997,2.86365 -2.756307,-0.0379 -4.96215,-0.70354 -6.076923,-1.83389 z m 97.973133,-8.10983 c -2.29609,-1.8061 -2.72313,-2.90334 -2.72313,-6.99685 0,-4.05369 0.43481,-5.19686 2.63486,-6.92742 2.60086,-2.04584 6.79534,-2.60038 11.04599,-1.46038 2.95291,0.79196 5.62773,7.44597 4.34715,10.81416 -1.15641,3.04159 -4.40877,5.22151 -9.05487,6.0691 -2.74489,0.50075 -4.13066,0.16847 -6.25,-1.49861 z M 49.218514,267.8008 c -0.04342,-0.67023 -0.759678,-0.95739 -1.591682,-0.63812 -3.78404,1.45207 -7.03267,-4.90406 -5.470881,-10.7041 1.861489,-6.91305 7.989058,-8.89654 14.48614,-4.68916 5.392021,3.49176 6.152837,10.50897 1.497476,13.81161 -3.161495,2.24285 -7.529061,3.60345 -6.566212,2.04552 0.376335,-0.60892 0.245188,-1.10713 -0.291438,-1.10713 -0.536626,0 -1.202657,0.5625 -1.480069,1.25 -0.382745,0.94854 -0.523426,0.95611 -0.583334,0.0314 z M 7.4479354,262.56588 c -1.755398,-1.07034 -3.1790968,-2.75616 -3.1637758,-3.74627 0.01532,-0.9901 -0.263424,-2.71707 -0.619432,-3.8377 -0.910268,-2.86531 3.0140258,-7.74352 5.5753368,-6.93059 1.3501796,0.42853 1.8995026,0.11825 1.8995026,-1.07292 0,-1.32492 0.575792,-1.53463 2.75,-1.00158 1.5125,0.37081 3.425,1.38299 4.25,2.24927 0.825,0.86629 0.9375,1.26012 0.25,0.87518 -0.764759,-0.42819 -1.25,-0.0947 -1.25,0.85913 0,0.88305 0.851922,1.55902 1.964816,1.55902 2.903963,0 4.559075,3.65258 2.986552,6.59087 -0.689038,1.28748 -1.62982,2.10786 -2.090628,1.82306 -0.460807,-0.28479 -0.569841,0.18057 -0.242297,1.03413 0.447488,1.16614 -0.114695,1.58139 -2.261454,1.67042 -1.571344,0.0652 -3.419489,0.0454 -4.106989,-0.0438 -0.6875,-0.0893 -1.25,0.3074 -1.25,0.88151 0,1.5029 -1.077517,1.29397 -4.6916316,-0.9097 z m 86.7324416,0.15271 c -5.07088,-2.63759 -6.68158,-6.11712 -5.16887,-11.16609 1.57067,-5.24243 5.70117,-8.00071 10.946681,-7.31002 6.420172,0.84536 9.761622,5.59161 8.120652,11.53471 -1.1121,4.02772 -2.18834,5.1127 -7.1122,7.17002 -3.166472,1.32303 -3.847252,1.3001 -6.786263,-0.22862 z m 26.775833,0.083 c -4.56345,-2.83086 -5.10014,-8.60341 -1.22775,-13.20548 2.1527,-2.55834 3.3143,-3.07673 6.89425,-3.07673 3.37081,0 4.9795,0.62975 7.4111,2.90121 3.61052,3.37273 3.89251,6.08973 1.10085,10.60674 -2.8347,4.58664 -9.23729,5.83941 -14.17845,2.77426 z m 86.32505,0.10448 c -2.47511,-1.73363 -3.5339,-7.43179 -2.00459,-10.78825 0.80723,-1.77166 2.43614,-2.94498 5.07501,-3.65556 4.44331,-1.19646 6.80242,-0.68929 9.22003,1.98214 3.57939,3.95517 1.06083,12.92947 -3.70519,13.2026 -1.22482,0.0702 -3.22784,0.2332 -4.45114,0.36223 -1.22331,0.12903 -3.08366,-0.36739 -4.13412,-1.10316 z m -57.69445,-7.84068 c -4.16754,-1.75232 -5.68853,-3.97083 -5.80648,-8.4693 -0.12461,-4.75212 2.20149,-7.64956 7.38888,-9.20374 4.67201,-1.39976 8.57606,0.2644 11.20253,4.77527 1.71625,2.9476 1.73081,3.40381 0.22849,7.15849 -1.50723,3.76692 -2.68651,4.66628 -8.51303,6.49231 -0.8538,0.26758 -2.87898,-0.0713 -4.50039,-0.75303 z m 33.52565,-3.41927 c -2.66115,-2.66116 -3.03285,-3.61819 -2.47746,-6.37882 0.35939,-1.78635 1.81006,-4.29485 3.22372,-5.57444 2.32685,-2.10616 5.74725,-2.48713 10.99189,-1.2243 1.5837,0.38133 4.28393,5.12105 4.26672,7.48938 -0.0343,4.72288 -2.74737,7.43654 -8.17587,8.17766 -4.33094,0.59128 -4.9428,0.39672 -7.829,-2.48948 z m -112.472893,-0.0718 c -1.1,-0.44252 -2.317731,-0.62156 -2.706068,-0.39785 -1.053292,0.60675 -3.886971,-4.14028 -4.394746,-7.36217 -0.322926,-2.04899 0.321011,-3.73306 2.36241,-6.17833 2.308518,-2.76523 3.539359,-3.38076 6.938524,-3.46989 4.26992,-0.11196 8.29988,2.31983 8.29988,5.00838 0,0.73975 0.45,1.34501 1,1.34501 1.30387,0 1.28401,3.6008 -0.0334,6.06248 -0.83001,1.5509 -8.01982,6.14778 -9.176722,5.86723 -0.159451,-0.0387 -1.189878,-0.43234 -2.289878,-0.87486 z m -42.20031,-6.38026 c -0.439829,-0.72898 -1.536731,-1.59549 -2.437558,-1.92559 -1.052272,-0.38559 -1.778492,-2.07475 -2.031183,-4.72447 -0.316676,-3.32066 0.0999,-4.69289 2.137868,-7.04234 4.063763,-4.68487 6.877755,-4.73981 11.763114,-0.22967 3.395157,3.13439 4.114311,4.40928 3.837171,6.8024 -0.187584,1.61979 -0.39237,3.55572 -0.455082,4.30207 -0.06537,0.77795 -0.754084,1.11137 -1.61402,0.78138 -0.880739,-0.33797 -1.5,-0.0135 -1.5,0.78603 0,2.64605 -8.218995,3.70533 -9.70031,1.25019 z M 221.60485,242.5679 c -5.41809,-2.19617 -6.30202,-8.5219 -1.8414,-13.17779 4.00584,-4.18119 9.27666,-3.5876 13.55145,1.52613 2.16511,2.59003 2.26208,4.85665 0.36472,8.52574 -1.95117,3.77315 -7.15466,5.12023 -12.07477,3.12592 z m -117.12934,-2.99038 c -3.59548,-2.18654 -4.815892,-5.00274 -3.84832,-8.88027 2.27788,-9.12861 13.37942,-10.21849 16.95355,-1.6644 1.36793,3.27393 1.36733,3.95621 -0.006,6.61157 -1.42261,2.75102 -2.72799,3.6111 -7.93871,5.23057 -1.18721,0.36899 -3.28962,-0.15959 -5.16071,-1.29747 z m 19.31905,-2.88684 c -2.67388,-2.9546 -2.0605,-6.90963 1.59501,-10.28446 3.84643,-3.5511 7.84277,-3.34477 11.4945,0.59346 2.77941,2.99746 2.79877,3.90465 0.17394,8.15171 -1.89202,3.06135 -2.51531,3.36803 -6.84501,3.36803 -3.34477,0 -5.25636,-0.54465 -6.41844,-1.82874 z M -1.3604324,236.57427 c -1.1,-0.44252 -2.371965,-0.58804 -2.82659,-0.32337 -0.962752,0.56049 -3.865196,-2.3528 -5.630786,-5.65184 -0.8880096,-1.65926 -0.9254516,-2.59681 -0.135265,-3.387 0.600953,-0.60095 1.092641,-1.92794 1.092641,-2.94887 0,-2.29401 7.94697604,-6.08508 10.612,-5.06242 5.4973358,2.10953 8.7851024,8.83962 6.4498928,13.203 -0.913969,1.70777 -6.1078078,5.31614 -7.26223276,5.04536 -0.164813,-0.0387 -1.19966,-0.43234 -2.29966004,-0.87486 z M 170.12883,233.31974 c -4.25148,-1.57272 -5.98926,-3.86477 -5.98926,-7.89954 0,-5.70656 3.34082,-9.05116 9.55884,-9.56965 5.80979,-0.48445 8.93463,1.41592 10.33032,6.28239 1.97416,6.88349 -6.6878,13.85473 -13.8999,11.1868 z m 26.54713,-1.53665 c -2.33591,-2.33592 -2.65775,-3.32217 -2.19936,-6.73978 0.87465,-6.52096 5.39789,-8.90667 12.315,-6.49535 2.96109,1.03224 6.34797,5.46008 6.34797,8.29903 0,0.83544 -1.165,2.90351 -2.58889,4.5957 -3.55918,4.22984 -9.83139,4.38372 -13.87472,0.3404 z m -112.848773,-1.4638 c -1.99105,-1.63616 -2.97778,-3.54431 -3.37878,-6.53396 -0.51169,-3.81494 -0.25394,-4.51478 2.66813,-7.2444 3.91419,-3.6564 7.46051,-3.8725 12.12515,-0.73887 2.830071,1.9012 3.449121,2.98448 3.704531,6.48256 0.39828,5.45509 -2.76668,9.17045 -8.403501,9.86488 -3.06043,0.37704 -4.51036,-0.0181 -6.71553,-1.83021 z m -35.031318,0.12579 c -1.014033,-0.62145 -2.485038,-2.66486 -3.268899,-4.5409 -1.249566,-2.99063 -1.235455,-3.77791 0.114508,-6.38846 1.823347,-3.52596 4.916284,-5.72994 9.260299,-6.59874 6.991917,-1.39839 12.248906,9.6623 7.424221,15.62053 -2.103214,2.59736 -10.477977,3.7781 -13.530129,1.90757 z m 94.266811,-3.70305 c -4.62311,-4.13075 -4.54706,-9.34627 0.19971,-13.69636 4.27853,-3.92098 8.30183,-3.78 12.3375,0.43233 4.33947,4.52943 3.53952,10.64233 -1.82668,13.95882 -4.50785,2.78601 -6.99544,2.62464 -10.71053,-0.69479 z M 18.139567,220.53847 c 0,-0.56048 -0.649483,-1.01905 -1.443296,-1.01905 -2.169702,0 -4.556704,-4.0265 -4.556704,-7.68646 0,-2.62323 0.711798,-3.72512 3.732135,-5.77749 4.774276,-3.2442 9.180146,-3.27346 12.621842,-0.0838 2.948858,2.73291 3.447036,6.60388 1.146023,8.90489 -0.825,0.825 -1.5,1.99328 -1.5,2.59618 0,1.12117 -2.367648,2.23782 -7.25,3.41931 -1.6363,0.39597 -2.75,0.25278 -2.75,-0.35358 z m 92.594693,-1.54116 c -6.68132,-3.49654 -7.58279,-9.68979 -2.19469,-15.07789 4.28064,-4.28064 8.15166,-4.49044 12.49717,-0.67732 4.11258,3.60873 4.41496,10.0561 0.64828,13.82277 -1.35,1.35 -3.11319,2.45455 -3.91821,2.45455 -0.80501,0 -2.06297,0.22463 -2.79545,0.49917 -0.73249,0.27454 -2.63918,-0.18503 -4.2371,-1.02128 z M 231.178,217.63778 c -2.80421,-0.50093 -3.71676,-1.29044 -4.80543,-4.15747 -1.82316,-4.80137 -0.32299,-8.60752 4.12514,-10.46606 10.12967,-4.23245 17.40561,7.77986 8.16974,13.48794 -1.79517,1.10948 -3.43583,1.95799 -3.64591,1.88559 -0.21009,-0.0724 -1.93968,-0.4099 -3.84354,-0.75 z M 65.313881,215.20497 c -3.66644,-3.90275 -2.535013,-12.18642 1.963954,-14.37898 5.109431,-2.49006 7.576662,-2.41732 10.828892,0.31925 2.8019,2.35765 3.09721,3.13021 2.89452,7.57238 -0.21129,4.63058 -0.46729,5.07011 -4.00386,6.87434 -5.07764,2.59041 -9.008702,2.46021 -11.683506,-0.38699 z m -73.9620554,-3.44813 c -0.666742,-0.22225 -1.212258,-1.05284 -1.212258,-1.84575 0,-0.8076 -1.3435516,-1.71038 -3.0548146,-2.05263 -2.027599,-0.40552 -2.878806,-1.06964 -2.531386,-1.975 0.287887,-0.75022 0.08755,-1.36404 -0.445185,-1.36404 -2.215365,0 -0.725058,-4.49355 2.498654,-7.5339 3.283529,-3.09677 3.6825026,-3.21542 7.5288636,-2.23911 4.356368,1.10576 8.003868,4.78043 8.003868,8.06348 0,4.65508 -6.784046,10.28151 -10.787742,8.94695 z m 211.7108244,-2.1605 c -6.63804,-6.63804 -0.30278,-17.63705 8.98384,-15.59736 3.46339,0.76068 8.09308,5.70715 8.09308,8.64683 0,2.82438 -2.69127,7.63802 -4.94461,8.84397 -3.80998,2.03903 -9.01164,1.22724 -12.13231,-1.89344 z M 89.139567,208.87748 c -0.825,-0.22546 -2.56376,-1.96341 -3.8639,-3.8621 -2.83878,-4.14568 -2.34744,-7.46671 1.65434,-11.18199 2.30864,-2.14335 3.41327,-2.44831 7.46544,-2.061 6.160873,0.58886 8.744123,3.37023 8.744123,9.41474 0,3.84774 -0.38296,4.59518 -3.250002,6.34325 -3.00521,1.83231 -7.097921,2.34518 -10.750001,1.3471 z m -50.263843,-1.60806 c -1.949538,-1.48042 -3.736157,-5.91763 -3.736157,-9.27905 0,-1.65028 1.16462,-3.19023 3.732135,-4.9349 3.606963,-2.45099 9.267865,-3.46047 9.267865,-1.65268 0,0.48585 0.9,1.11872 2,1.40638 1.1,0.28766 2,1.24014 2,2.11663 0,0.87649 0.45,1.59362 1,1.59362 1.319129,0 1.274356,3.30375 -0.08521,6.28768 -2.177812,4.77977 -10.366693,7.35699 -14.178631,4.46232 z m 115.283556,-0.0298 c -5.61067,-2.84933 -6.5625,-10.02354 -1.94279,-14.64326 6.36696,-6.36695 16.92308,-2.53768 16.92308,6.13891 0,2.79945 -0.68842,4.18565 -3.07673,6.19528 -1.69219,1.42387 -3.90539,2.58887 -4.91821,2.58887 -1.01282,0 -2.44079,0.22045 -3.17327,0.48989 -0.73249,0.26944 -2.44792,-0.0769 -3.81208,-0.76971 z M 129.402,205.9907 c -3.05857,-2.14231 -3.90539,-7.57422 -1.74972,-11.2235 2.06389,-3.49387 6.7165,-5.49131 9.93795,-4.26652 3.2481,1.23493 6.54934,5.80406 6.54934,9.06473 0,5.9979 -9.45962,10.12211 -14.73757,6.42529 z m 48.97944,-0.50543 c -5.99835,-2.41035 -5.06053,-12.89017 1.3949,-15.58742 8.25349,-3.44853 16.57404,3.87001 13.32304,11.71862 -0.67876,1.63867 -2.04281,3.41221 -3.03122,3.94119 -2.21827,1.18718 -8.65134,1.14733 -11.68672,-0.0724 z M 63.563216,193.37641 c -2.062958,-1.00115 -4.423649,-5.92326 -4.423649,-9.22344 0,-3.0226 4.566771,-6.63355 8.389446,-6.63355 7.658174,0 10.414364,2.90178 9.151274,9.63464 -1.04956,5.59463 -7.806118,8.79975 -13.117071,6.22235 z m 166.575934,-1.70357 c -4.00901,-4.00901 -4.03567,-8.27117 -0.0765,-12.23034 4.14843,-4.14844 8.2428,-3.9572 12.79775,0.59775 2.97168,2.97168 3.42537,3.99816 2.90878,6.58112 -1.00512,5.0256 -3.59923,7.42695 -8.38003,7.75732 -3.59754,0.24861 -4.71118,-0.16702 -7.25,-2.70585 z m -215.740787,1.142 c -7.8668456,-1.51712 -6.3542456,-16.68834 1.741204,-17.46409 8.581117,-0.82229 14.155547,4.1373 11.99802,10.67467 -1.930852,5.85054 -6.612169,8.16387 -13.739224,6.78942 z m 94.512557,-1.26064 c -3.17182,-2.49495 -4.32855,-8.53544 -2.24379,-11.71719 2.43007,-3.70876 4.77455,-4.44615 10.34078,-3.25241 7.15029,1.53347 9.80314,6.17221 7.02139,12.2775 -2.16097,4.7428 -10.60077,6.24566 -15.11838,2.6921 z m 25.54402,-4.01757 c -3.07126,-1.27144 -4.47728,-4.41221 -4.121,-9.20545 0.38918,-5.23586 4.03857,-8.26631 9.95465,-8.26631 5.15128,0 8.85098,3.7853 8.85098,9.05577 0,3.86354 -3.6066,8.38887 -6.70455,8.41243 -0.9875,0.008 -2.69545,0.21488 -3.79545,0.46081 -1.1,0.24593 -2.98308,0.0402 -4.18463,-0.45725 z M 85.235327,186.4312 c -6.24471,-2.49723 -7.81946,-8.70983 -3.50687,-13.83505 2.21791,-2.63584 3.26563,-3.07673 7.31144,-3.07673 6.16131,0 9.099671,2.54644 9.099671,7.88595 0,4.3029 -2.25404,7.49974 -6.399141,9.0757 -3.19039,1.21299 -3.35021,1.21176 -6.5051,-0.0499 z m -96.194371,-1.09465 c -5.317523,-1.80661 -6.969867,-9.98643 -2.893741,-14.32527 1.846187,-1.96518 3.308106,-2.48514 6.9166666,-2.46006 4.424638,0.0308 8.736529,1.97402 7.38314304,3.32741 -0.3638,0.3638 0.146434,1.2522 1.13385396,1.97422 2.861366,2.09228 1.237258,7.06865 -3.152178,9.65848 -1.967981,1.16114 -4.159046,1.88825 -4.869033,1.6158 -0.709986,-0.27244 -1.432458,-0.13814 -1.605492,0.29847 -0.173035,0.4366 -1.483983,0.39653 -2.9132196,-0.0891 z m 49.113841,-0.8019 c -1.108377,-1.10838 -2.417085,-2.01523 -2.908241,-2.01523 -1.263761,0 -2.106989,-2.60502 -2.106989,-6.50921 0,-4.21964 3.799461,-7.49079 8.7006,-7.49079 4.731462,0 7.218749,1.56273 8.902957,5.5936 1.26099,3.01798 1.247661,3.79343 -0.110338,6.41951 -0.849519,1.64279 -2.170523,2.98689 -2.935566,2.98689 -0.765042,0 -1.540986,0.38038 -1.72432,0.84529 -0.183333,0.46491 -1.56398,1.14676 -3.068103,1.51523 -2.026717,0.49649 -3.25653,0.14818 -4.75,-1.34529 z m 167.348853,-1.18482 c -4.64679,-2.25002 -5.66234,-9.20957 -1.97021,-13.50192 1.91298,-2.22397 3.23927,-2.78304 6.60233,-2.78304 3.48384,0 4.70741,0.55841 7.10614,3.24305 3.70855,4.1506 3.70087,7.56213 -0.0254,11.28842 -3.11149,3.11149 -7.53928,3.77436 -11.71284,1.75349 z m -50.39157,-1.52245 c -3.47778,-2.37998 -3.93986,-3.28531 -3.9572,-7.75324 -0.0341,-8.78481 9.83402,-12.85924 16.06161,-6.63164 7.97435,7.97434 -2.78596,20.76188 -12.10441,14.38488 z m 23.42431,-3.13263 c -3.0357,-2.53767 -4.6523,-6.02128 -4.00011,-8.61982 0.65668,-2.61643 7.30203,-7.55726 10.15704,-7.55177 3.15369,0.006 8.34141,3.73037 9.03269,6.48465 1.99467,7.94738 -8.93353,14.91666 -15.18962,9.68694 z M 66.774426,170.44684 c -3.919357,-3.08297 -3.713103,-8.84235 0.441866,-12.33853 7.903415,-6.65029 18.029335,0.49993 13.813005,9.75379 -2.17558,4.77488 -9.72931,6.14455 -14.254871,2.58474 z m 32.865142,-0.8717 c -4.926961,-3.31363 -5.790831,-9.18405 -1.95953,-13.31594 4.123462,-4.44696 12.951922,-3.34404 15.349262,1.91754 1.73245,3.80232 1.33482,6.06468 -1.63973,9.32939 -3.60645,3.95826 -7.83405,4.70268 -11.750002,2.06901 z m 20.572582,-2.69058 c -4.89285,-6.22025 -0.79756,-13.86514 7.42742,-13.86514 8.7049,0 12.4411,7.71274 6.57692,13.57692 -2.3655,2.36551 -3.78227,2.92308 -7.42742,2.92308 -3.67504,0 -4.88592,-0.48511 -6.57692,-2.63486 z m 107.77162,-2.62011 c -2.87049,-2.42652 -4.8442,-5.72781 -4.8442,-8.10256 0,-0.81896 1.165,-2.87355 2.58889,-4.56574 2.13984,-2.54305 3.31067,-3.07121 6.75,-3.04493 4.49424,0.0343 6.67366,1.22756 8.49777,4.65246 2.12279,3.98569 1.42077,7.92134 -1.91339,10.72685 -3.77907,3.17988 -7.57698,3.29435 -11.07907,0.33392 z M 16.692528,163.57794 c -0.966358,-1.06781 -1.967171,-3.50094 -2.224029,-5.40695 -0.376553,-2.7942 0.07904,-4.05066 2.352027,-6.48652 4.360659,-4.67313 8.093275,-4.93659 12.762,-0.9008 3.547203,3.06631 3.800416,3.62491 3.168963,6.99085 -0.915553,4.88031 -4.648178,7.7449 -10.091793,7.7449 -2.89786,0 -4.75781,-0.60515 -5.967168,-1.94148 z m 29.947039,-0.747 c -5.228119,-1.37692 -7.116396,-5.73052 -4.894261,-11.28418 1.257512,-3.14284 2.431389,-4.25801 5.86081,-5.56772 3.9389,-1.50427 4.540378,-1.5074 7.381254,-0.0383 5.805509,3.00214 6.817864,8.719 2.402197,13.56541 -2.754609,3.02331 -6.958255,4.32344 -10.75,3.32481 z m 95.397883,-1.59416 c -2.79538,-1.8779 -3.45103,-3.00226 -3.69761,-6.34101 -0.24705,-3.34503 0.21896,-4.61362 2.65121,-7.21736 2.49253,-2.66826 3.6724,-3.15899 7.59518,-3.15899 5.99371,0 9.55334,3.17471 9.55334,8.52029 0,4.65614 -1.3536,7.09408 -4.97998,8.96936 -4.06719,2.10322 -7.16156,1.88836 -11.12214,-0.77229 z M -6.3604324,160.83531 c -3.9043276,-1.01974 -5.4999996,-3.41286 -5.4999996,-8.24864 0,-5.58712 2.4968706,-8.2408 8.1314626,-8.64214 3.22263704,-0.22954 4.17868104,0.23594 6.808795,3.31505 1.75122,2.05018 3.0597418,4.72161 3.0597418,6.24665 0,4.87519 -6.74763276,8.8315 -12.4999998,7.32908 z M 172.41185,158.66974 c -4.38133,-1.279 -6.27228,-3.85713 -6.27228,-8.55164 0,-3.70897 0.49546,-4.8378 3.07673,-7.00979 3.74058,-3.14749 7.73873,-3.30849 11.36309,-0.45757 5.80955,4.5698 5.21056,11.0108 -1.3678,14.70805 -2.11438,1.18835 -4.00806,2.11577 -4.20817,2.06095 -0.20012,-0.0548 -1.36633,-0.39232 -2.59157,-0.75 z m -88.917853,-2.84237 c -3.11949,-0.61019 -5.00182,-3.23629 -5.72107,-7.98168 -0.54292,-3.58201 -0.25279,-4.6251 2.04645,-7.3576 2.36972,-2.81624 3.12461,-3.12411 6.53772,-2.66632 7.73001,1.03681 11.252331,5.73488 8.77809,11.70822 -1.15272,2.78292 -6.64974,7.15649 -8.61365,6.85325 -0.48509,-0.0749 -1.84748,-0.32504 -3.02754,-0.55587 z m 113.507353,-2.29232 c -2.41567,-2.41567 -2.92505,-3.68237 -2.67308,-6.6472 0.27162,-3.19594 0.90363,-3.99259 4.95829,-6.24996 4.54709,-2.53153 4.72346,-2.55067 8.20481,-0.89053 7.11838,3.39452 8.0234,11.34707 1.71537,15.07331 -4.4571,2.63287 -8.73779,2.18198 -12.20539,-1.28562 z m -95.78505,-6.60452 c -2.576612,-2.16807 -3.076732,-3.30361 -3.076732,-6.98582 0,-4.01152 0.34571,-4.62569 3.944212,-7.00707 3.5818,-2.37032 4.27418,-2.50125 7.53542,-1.42495 7.66367,2.52925 8.54507,11.0706 1.62249,15.7231 -4.36508,2.93365 -6.24416,2.87644 -10.02539,-0.30526 z m 22.55813,0.51631 c -2.18889,-1.72178 -2.63486,-2.88035 -2.63486,-6.84501 0,-5.36229 1.66753,-7.55308 6.88886,-9.05054 8.34489,-2.39328 15.70424,7.20395 10.32787,13.46845 -3.95928,4.61331 -10.43275,5.6908 -14.58187,2.4271 z m -63.594679,-5.6938 c -1.318445,-1.06761 -2.554149,-3.5757 -3.021863,-6.13343 -0.882372,-4.82532 0.633498,-7.25692 5.73258,-9.19558 5.686816,-2.16213 12.258989,2.14942 12.233789,8.02573 -0.0232,5.40497 -1.91437,7.16285 -9.099311,8.45795 -2.706272,0.48781 -4.175161,0.19764 -5.845195,-1.15467 z m -30.640523,-1.66156 c -3.479932,-1.5149 -4.399661,-3.20777 -4.399661,-8.09809 0,-5.10635 3.473334,-8.53041 8.864904,-8.73914 3.643425,-0.14105 4.75914,0.28934 6.75,2.60386 1.311803,1.52506 2.385096,3.67009 2.385096,4.76673 0,3.58955 -3.055928,8.02 -6.534299,9.47336 -3.991575,1.66778 -3.217792,1.66852 -7.06604,-0.007 z m 188.295422,-2.09415 c -3.89958,-3.69907 -3.52416,-9.11393 0.80492,-11.60952 5.51916,-3.18164 7.88786,-3.25436 11.34167,-0.34817 2.51219,2.11387 3.15833,3.426 3.15833,6.41368 0,4.77111 -2.5252,7.15612 -8.20942,7.75366 -3.62186,0.38074 -4.72775,0.0363 -7.0955,-2.20965 z m -63.43002,0.42444 c -2.70048,-0.99898 -5.26506,-5.82141 -5.26506,-9.90044 0,-8.68911 12.7019,-10.85516 17.36496,-2.96123 2.22594,3.76821 1.27014,7.3914 -2.73324,10.36099 -3.82011,2.83364 -6.51886,3.55415 -9.36666,2.50068 z M -0.04321336,135.47694 c -3.18350704,-1.85713 -4.91897404,-6.86592 -3.80820604,-10.99099 1.172342,-4.35375 2.347267,-5.4913 6.612639,-6.40232 4.6216238,-0.98711 8.2552054,0.29698 9.9132584,3.5033 1.765992,3.41505 1.85623,8.8402 0.183286,11.01915 -2.76888,3.60636 -9.1905324,5.03538 -12.90097736,2.87086 z M 183.66278,132.95335 c -2.41192,-2.23529 -2.69746,-3.0981 -2.21522,-6.6935 0.70468,-5.2538 3.69788,-7.68823 9.48976,-7.7182 8.36851,-0.0433 11.94489,7.83025 6.30104,13.87201 -3.83799,4.10858 -9.48255,4.33298 -13.57558,0.53969 z M 80.274147,125.70842 c -3.51184,-4.93193 -3.55112,-7.31779 -0.18096,-10.99155 2.78064,-3.03113 3.45347,-3.27769 8.18676,-3 6.35931,0.37308 9.503901,3.59266 8.403301,8.60369 -1.14141,5.1968 -4.776551,8.19886 -9.927841,8.19886 -3.76908,0 -4.79715,-0.44589 -6.48126,-2.811 z m 50.353103,0.15582 c -4.45279,-4.45279 -3.57963,-12.21167 1.68036,-14.93172 10.03171,-5.1876 20.01726,8.84418 10.44687,14.68001 -3.85634,2.35152 -9.90194,2.477 -12.12723,0.25171 z m -24.3207,-4.09482 c -4.17111,-3.55275 -3.30858,-12.7659 1.4327,-15.30335 3.53513,-1.89194 9.28111,-1.5103 11.55916,0.76775 2.4931,2.49309 3.48531,8.71348 1.87101,11.72982 -2.42323,4.52784 -10.95103,6.1377 -14.86287,2.80578 z m -59.668503,-2.49765 c -5.993043,-5.155 -3.534048,-14.90465 4.121377,-16.34081 4.652586,-0.87284 8.024747,0.77533 9.981399,4.87847 1.435925,3.01117 1.439783,3.67601 0.04076,7.02434 -1.493666,3.57484 -3.062213,4.64813 -8.831703,6.04314 -1.990354,0.48124 -3.371457,0.0639 -5.311833,-1.60514 z M 208.63957,118.3062 c -4.45523,-1.56724 -5.27687,-2.50662 -6.01528,-6.87725 -1.2676,-7.50284 4.89758,-11.600353 12.2097,-8.11483 6.16642,2.9394 6.5651,10.83956 0.73964,14.65655 -2.69102,1.76322 -2.85321,1.77107 -6.93406,0.33553 z M 17.127629,115.43649 c -3.044606,-1.12119 -4.630285,-3.49304 -5.525516,-8.26502 -0.586885,-3.12837 -0.281721,-3.98672 2.354669,-6.62311 5.779617,-5.779623 14.16425,-2.975123 15.708049,5.25403 0.848836,4.52469 -0.777737,7.50675 -5.073637,9.30169 -3.825953,1.59858 -4.003757,1.6065 -7.463565,0.33241 z m 148.261941,-1.5915 c -1.76915,-1.23409 -2.25,-2.53406 -2.25,-6.08287 0,-7.880073 7.11457,-11.758993 13.78518,-7.5158 3.61052,2.29666 4.18419,3.22528 4.18419,6.7731 0,3.49956 -0.58577,4.51124 -3.94188,6.80796 -3.06297,2.09612 -8.78556,2.10468 -11.77749,0.0176 z m -98.841019,-8.59285 c -2.050344,-2.18929 -3.567782,-8.049763 -2.70447,-10.444873 0.240304,-0.66668 1.998835,-2.17746 3.907847,-3.35729 4.581268,-2.83138 11.006779,-2.03223 13.753579,1.71054 2.4984,3.40432 1.61591,9.064453 -1.88794,12.108903 -3.55221,3.08646 -10.170458,3.07771 -13.069016,-0.0173 z m 76.608879,-1.42191 c -3.84021,-1.63813 -5.85745,-6.829503 -4.60021,-11.838713 0.89175,-3.55301 7.60552,-6.61264 11.84328,-5.39726 4.86901,1.39641 6.73907,3.729 6.73907,8.40583 0,3.11026 -0.61066,4.74438 -2.40171,6.426993 -2.42244,2.27576 -8.7842,3.59594 -11.58043,2.40315 z M 90.922607,97.264447 c -3.99682,-3.30258 -4.55592,-9.69942 -1.14581,-13.10953 3.444,-3.444 7.444791,-4.15798 11.539783,-2.05939 4.14635,2.12491 4.78852,3.09193 4.80768,7.23963 0.0201,4.35711 -1.39374,6.82731 -4.96467,8.67391 -4.059072,2.099023 -7.059723,1.88076 -10.236983,-0.74462 z m 94.297333,-0.49503 c -1.18883,-0.97163 -2.41517,-3.4605 -2.75716,-5.59572 -0.54439,-3.39884 -0.2794,-4.12091 2.28041,-6.21403 3.58369,-2.93032 8.28865,-3.09943 11.69458,-0.42032 5.0985,4.01047 3.41857,11.13157 -3.0498,12.92793 -5.02168,1.39459 -5.67625,1.33867 -8.16803,-0.69786 z m -67.58037,-0.40473 c -3.22594,-1.76446 -4.5,-3.98678 -4.5,-7.84931 0,-9.33082 14.79935,-12.9143 18.04787,-4.37006 1.65349,4.34902 1.07765,7.40243 -1.97095,10.45102 -3.13385,3.13385 -7.78223,3.84388 -11.57692,1.76835 z m -81.500003,-2.14384 c -3.72134,-1.73148 -4.93287,-3.74992 -4.968197,-8.27711 -0.0438,-5.6127 2.996118,-8.42432 9.108334,-8.42432 5.880957,0 8.859863,2.90073 8.859863,8.62736 0,7.15299 -6.415677,11.13765 -13,8.07407 z M 166.63439,83.481237 c -3.91628,-1.49884 -6.49482,-4.89987 -6.49482,-8.56651 0,-1.939736 0.4405,-4.349874 0.97889,-5.355865 1.29711,-2.423668 6.38431,-4.116803 10.12281,-3.369101 4.04272,0.808544 8.34237,6.424209 7.49715,9.791836 -1.20062,4.78365 -8.07363,9.04215 -12.10403,7.49964 z m -105.404102,-2.0519 c -3.492254,-1.39632 -5.022779,-3.88829 -5.058918,-8.23684 -0.04248,-5.111605 4.292091,-9.673077 9.191909,-9.673077 6.693049,0 10.776288,3.64238 10.776288,9.612794 0,3.819303 -1.80016,6.405763 -5.548373,7.971863 -3.872902,1.6182 -5.946962,1.69027 -9.360906,0.32526 z M 138.02618,73.93755 c -5.78416,-2.438055 -7.95467,-10.413531 -3.86973,-14.219229 5.62465,-5.240157 12.39373,-5.256293 16.26545,-0.03877 2.42374,3.26623 1.74145,8.587417 -1.5769,12.298279 -2.87538,3.215487 -6.34746,3.844427 -10.81882,1.959724 z M 84.939007,69.76942 c -3.82689,-4.087364 -4.17369,-6.398882 -1.54523,-10.299253 3.12052,-4.630541 7.77276,-5.929566 12.369711,-3.453943 3.81698,2.055575 4.912992,4.827686 3.94622,9.981027 -1.26925,6.765691 -9.903461,8.970706 -14.770701,3.772169 z m 27.087173,-1.853995 c -9.91788,-4.119712 -6.41537,-16.396005 4.6779,-16.396005 9.54126,0 12.64518,12.925304 3.97397,16.548369 -4.16056,1.738394 -4.09734,1.739507 -8.65187,-0.152364 z"
       id="path249"
       inkscape:connector-curvature="0" />
  </g>
</svg>
