<?xml version="1.0" encoding="UTF-8" standalone="no"?>
<!-- Created with Inkscape (http://www.inkscape.org/) -->

<svg
   xmlns:dc="http://purl.org/dc/elements/1.1/"
   xmlns:cc="http://creativecommons.org/ns#"
   xmlns:rdf="http://www.w3.org/1999/02/22-rdf-syntax-ns#"
   xmlns:svg="http://www.w3.org/2000/svg"
   xmlns="http://www.w3.org/2000/svg"
   xmlns:sodipodi="http://sodipodi.sourceforge.net/DTD/sodipodi-0.dtd"
   xmlns:inkscape="http://www.inkscape.org/namespaces/inkscape"
   version="1.1"
   id="svg2949"
   width="283"
   height="443"
   viewBox="0 0 283 443"
   sodipodi:docname="feu91.svg"
   inkscape:version="0.92.4 (5da689c313, 2019-01-14)">
  <metadata
     id="metadata2955">
    <rdf:RDF>
      <cc:Work
         rdf:about="">
        <dc:format>image/svg+xml</dc:format>
        <dc:type
           rdf:resource="http://purl.org/dc/dcmitype/StillImage" />
        <dc:title></dc:title>
      </cc:Work>
    </rdf:RDF>
  </metadata>
  <defs
     id="defs2953" />
  <sodipodi:namedview
     pagecolor="#ffffff"
     bordercolor="#666666"
     borderopacity="1"
     objecttolerance="10"
     gridtolerance="10"
     guidetolerance="10"
     inkscape:pageopacity="0"
     inkscape:pageshadow="2"
     inkscape:window-width="1280"
     inkscape:window-height="972"
     id="namedview2951"
     showgrid="false"
     inkscape:zoom="1.5067919"
     inkscape:cx="112.64858"
     inkscape:cy="221.5"
     inkscape:window-x="-8"
     inkscape:window-y="-8"
     inkscape:window-maximized="1"
     inkscape:current-layer="g151"
     showguides="false" />
  <g
     id="g151"
     transform="translate(25.882805,-2.654647)">
    <g
       id="g82"
       transform="translate(-1.3273233,-15.92788)"
       style="fill:#ff00ff">
      <path
         style="fill:#ff00ff"
         d="m 104.86556,330.15084 c -2.68114,-2.19129 -3.72181,-8.08217 -1.86663,-10.56633 0.74857,-1.00238 3.17529,-2.06029 5.41517,-2.36072 3.45826,-0.46385 4.45171,-0.15143 6.71491,2.11177 4.29256,4.29256 3.17082,9.49301 -2.47193,11.46009 -4.26731,1.48759 -5.28554,1.40333 -7.79152,-0.64481 z m 26.09394,-2.56446 c -4.02745,-4.28703 -2.30195,-10.34636 3.44361,-12.09273 4.82508,-1.46659 11.2703,4.03328 9.87572,8.42721 -0.78705,2.47979 -6.08499,5.97086 -9.06933,5.97623 -1.14162,0.002 -3.05412,-1.03776 -4.25,-2.31071 z m -47.689676,-0.74353 c -2.95805,-0.86092 -6.48463,-5.32053 -6.48463,-8.20029 0,-0.79733 1.10351,-2.64039 2.45225,-4.0957 6.47646,-6.98821 18.90564,0.21118 14.51811,8.40937 -0.85319,1.59419 -6.13118,5.16728 -7.1707,4.85442 -0.16481,-0.0496 -1.65658,-0.48511 -3.31503,-0.9678 z m 73.290506,-4.50082 c -4.13093,-2.24178 -5.14126,-4.83252 -3.28468,-8.42275 3.24643,-6.27789 8.27,-7.35451 13.84706,-2.9676 3.52811,2.77522 3.43572,6.32976 -0.2606,10.02607 -3.22074,3.22074 -6.16288,3.61037 -10.30178,1.36428 z m -99.487173,-6.23834 c -3.371677,-0.34001 -8.287963,-5.0115 -8.287963,-7.87529 0,-2.38474 3.113772,-7.0505 5.589502,-8.37547 3.081567,-1.6492 8.986511,-0.39551 10.881756,2.31034 2.896998,4.13603 1.296452,11.70523 -2.83153,13.39067 -1.17685,0.4805 -3.585144,0.72789 -5.351765,0.54975 z m 123.406593,-6.31398 c -4.61144,-2.68268 -4.29546,-11.00965 0.51212,-13.49576 7.21785,-3.73249 16.18904,4.60123 11.51152,10.69354 -2.77934,3.61999 -8.37585,4.9243 -12.02364,2.80222 z m -58.506,-5.92783 c -3.25908,-3.03629 -3.04665,-9.3527 0.39028,-11.60465 5.86207,-3.84099 13.42116,-0.10862 13.42116,6.62679 0,5.97444 -9.18747,9.28575 -13.81144,4.97786 z m -24.843966,-0.43223 c -3.99461,-2.79795 -3.212,-11.21451 1.20021,-12.90764 5.621946,-2.15733 12.455196,1.61783 12.455196,6.88112 0,5.77303 -8.59913,9.56806 -13.655406,6.02652 z m -65.09755,-4.75063 c -2.918033,-1.40718 -4.87239,-8.11027 -3.343182,-11.46653 2.224614,-4.88248 10.790891,-5.82309 14.692429,-1.61325 3.663771,3.95326 3.039586,8.97435 -1.49417,12.01942 -3.680629,2.47207 -6.335316,2.7577 -9.855077,1.06036 z m 114.117036,0.0522 c -2.27987,-1.10391 -4.36408,-4.78281 -4.36408,-7.70313 0,-2.63825 4.16611,-6.06923 7.89713,-6.50364 7.48985,-0.87206 11.43041,8.1174 5.71377,13.03464 -2.89542,2.49054 -5.77119,2.85508 -9.24682,1.17215 z m -73.093595,-4.60743 c -2.555088,-0.40878 -6.270481,-5.11353 -6.270481,-7.94024 0,-1.04969 1.320227,-3.1734 2.933837,-4.71933 2.490672,-2.38622 3.466271,-2.71091 6.458648,-2.14954 5.794795,1.08711 9.381105,7.79922 6.357515,11.89867 -1.44316,1.95667 -6.238535,3.42897 -9.479519,2.91044 z m 125.404595,-2.19724 c -1.47129,-1.74855 -2.67508,-4.20078 -2.67508,-5.44943 0,-3.08929 3.13267,-6.46714 7.03591,-7.58659 2.92459,-0.83875 3.55462,-0.59917 6.70277,2.54898 2.87056,2.87056 3.3583,3.95177 2.80499,6.21804 -0.94032,3.85139 -3.57566,6.21194 -7.67837,6.87771 -3.06339,0.49712 -3.85892,0.16187 -6.19022,-2.60871 z m -30.48701,-3.73956 c -2.21868,-0.42368 -6.17655,-5.51759 -6.18433,-7.95942 -0.008,-2.46139 5.03282,-7.10534 8.23872,-7.59032 8.82859,-1.33555 13.39979,8.02105 6.68081,13.6747 -3.01658,2.53828 -4.0737,2.76519 -8.7352,1.87504 z M 14.862024,280.2911 C 8.920746,277.79298 8.013273,268.81953 13.3859,265.69461 c 3.886298,-2.26042 8.407294,-1.51304 11.885089,1.96474 3.181704,3.18172 3.18948,6.28552 0.02517,10.04609 -2.976361,3.53721 -6.244786,4.34715 -10.434133,2.58566 z m 33.310504,-0.73366 c -3.012442,-2.59137 -3.450639,-7.38485 -1.014915,-11.10224 4.020284,-6.13573 14.627581,-1.5399 14.627581,6.33771 0,2.52206 -3.208284,5.13999 -7.479706,6.10334 -3.00462,0.67765 -4.055515,0.44825 -6.13296,-1.33881 z m 72.247522,-1.72918 c -6.81978,-5.36445 0.84312,-15.9774 9.23303,-12.78756 6.43202,2.44545 7.05367,10.29797 1.06059,13.39712 -3.91391,2.02396 -7.19245,1.82982 -10.29362,-0.60956 z m -24.634856,-1.92742 c -4.7105,-4.71051 -0.0279,-13.85558 6.432966,-12.56342 3.80869,0.76174 7.56703,4.28954 7.56703,7.10287 0,1.20495 -0.93266,3.37651 -2.07258,4.82569 -2.64428,3.36164 -8.869286,3.69299 -11.927416,0.63486 z m 120.078966,-2.2719 c -5.44648,-2.76282 -4.45235,-12.84334 1.41174,-14.31513 5.62259,-1.41119 11.43638,3.75705 10.12116,8.99732 -1.10415,4.3993 -7.51566,7.35563 -11.5329,5.31781 z m -73.62442,-4.18266 c -3.20296,-3.20295 -3.15349,-6.8505 0.12791,-9.43165 6.77947,-5.33274 14.41754,-3.00964 14.41754,4.38505 0,6.82141 -9.48113,10.11092 -14.54545,5.0466 z m 41.58865,0.18182 c -4.94507,-2.50243 -4.21958,-10.49505 1.19795,-13.19767 4.41145,-2.20073 7.4866,-1.89276 10.42323,1.04388 2.14408,2.14407 2.47527,3.18689 1.98495,6.25 -1.0133,6.33031 -7.33917,9.07516 -13.60613,5.90379 z M 75.560335,268.38245 c -7.954995,-4.43502 -5.182473,-13.53235 4.163459,-13.66134 7.75351,-0.107 11.50348,6.29308 6.8114,11.62503 -2.81147,3.19488 -7.37725,4.04203 -10.974859,2.03631 z m -45.160131,-8.94644 c -3.602543,-5.49817 -0.798552,-11.29892 5.89521,-12.19568 3.319596,-0.44473 4.451712,-0.10622 6.73978,2.01524 2.702873,2.50607 3.622923,6.79207 1.984687,9.24556 -1.339375,2.0059 -5.05129,3.39971 -9.053936,3.39971 -3.095592,0 -4.300302,-0.53352 -5.565741,-2.46483 z m 132.019846,-1.60775 c -6.41493,-5.046 0.30295,-15.80257 8.03364,-12.86336 5.67934,2.15927 7.08795,8.27039 2.87695,12.48138 -3.03642,3.03643 -7.34426,3.18724 -10.91059,0.38198 z M -1.579947,254.82825 c -4.102406,-3.22695 -3.134033,-10.24379 1.865831,-13.51983 2.221397,-1.45551 3.163336,-1.52522 6.619178,-0.48982 7.071789,2.11876 8.544607,10.48644 2.49504,14.17534 -4.046042,2.4672 -7.703028,2.41202 -10.980049,-0.16569 z M 117.28519,252.7461 c -3.1162,-1.70443 -4.5,-3.95566 -4.5,-7.32079 0,-3.58755 3.91832,-6.53464 8.65429,-6.50917 3.40502,0.0183 4.66817,0.7663 6.19601,3.66895 1.78426,3.38982 1.37289,6.18346 -1.30485,8.86119 -2.61925,2.61926 -5.79799,3.07604 -9.04545,1.29982 z m -63.045451,-3.29982 c -1.35,-1.35 -2.454545,-3.40961 -2.454545,-4.57692 0,-3.03158 5.277859,-7.96853 8.518785,-7.96853 6.327441,0 11.098154,6.1102 8.52487,10.91843 -2.536704,4.73987 -10.579321,5.63681 -14.58911,1.62702 z m 171.377311,0.92547 c -5.33011,-2.89467 -4.59058,-11.08558 1.21811,-13.49162 4.9386,-2.04563 11.95003,2.92916 11.95003,8.47886 0,2.01061 -5.81113,6.54815 -8.32673,6.5018 -1.1953,-0.022 -3.37393,-0.69209 -4.84141,-1.48904 z M 92.973754,245.86187 c -2.42018,-2.25474 -2.64988,-3.61747 -1.23643,-7.33514 1.25125,-3.29102 4.45701,-4.91458 8.11681,-4.11076 3.978326,0.87379 5.931056,3.03237 5.931056,6.55629 0,6.20784 -8.084536,9.29339 -12.811436,4.88961 z m 104.574146,0.47364 c -5.46318,-2.96429 -4.44946,-11.06136 1.66149,-13.27111 6.57849,-2.37881 12.72452,3.24275 10.50529,9.60884 -1.68019,4.81982 -7.05291,6.43704 -12.16678,3.66227 z m -59.29743,-0.3862 c -5.04499,-2.04494 -6.47568,-9.00214 -2.51133,-12.21227 2.50748,-2.03044 8.08986,-2.41832 11.15966,-0.77541 4.17882,2.23644 4.37585,8.30688 0.39871,12.28402 -1.75873,1.75873 -5.68979,2.06448 -9.04704,0.70366 z M 24.173311,239.92076 c -2.413763,-0.97527 -6.388117,-5.67189 -6.388117,-7.54903 0,-0.69267 1.305544,-2.65698 2.90121,-4.36514 4.676681,-5.0064 11.657249,-3.67972 13.858152,2.63379 1.29401,3.712 -0.0129,6.82309 -3.658109,8.70809 -3.366188,1.74073 -3.742007,1.77277 -6.713136,0.57229 z m 150.821319,-3.82428 c -3.88537,-3.62948 -3.98669,-5.11848 -0.62055,-9.11892 4.37593,-5.20049 11.33897,-3.88698 14.07221,2.65459 1.42455,3.40943 1.38451,3.67761 -0.88841,5.95054 -1.30911,1.3091 -3.94926,2.63481 -5.867,2.94602 -2.91966,0.4738 -4.00885,0.0782 -6.69625,-2.43223 z M 74.979872,231.41119 c -3.955043,-3.32795 -4.072822,-6.29486 -0.389959,-9.82326 5.391901,-5.16578 13.195281,-2.43257 13.195281,4.62178 0,4.45295 -1.79659,6.62157 -6.0586,7.3132 -2.89433,0.4697 -4.143588,0.0787 -6.746722,-2.11172 z m 38.826798,-0.98749 c -2.58322,-2.74971 -3.01286,-7.96707 -0.83405,-10.12824 0.72191,-0.71607 3.16277,-1.59535 5.42412,-1.95396 3.6553,-0.57966 4.40433,-0.33626 6.75,2.19344 1.45115,1.565 2.63845,4.00911 2.63845,5.43136 0,6.34129 -9.39443,9.33693 -13.97852,4.4574 z m -70.432582,-2.5996 c -4.571472,-5.43288 -2.732219,-11.19116 3.976723,-12.4502 3.501496,-0.65712 9.372577,2.57699 9.552866,5.26223 0.227222,3.38429 -0.326402,4.78293 -2.963552,7.48692 -3.615766,3.70741 -7.282196,3.60368 -10.566037,-0.29895 z m -50.516314,-0.55813 c -4.776873,-6.07281 -1.383426,-12.86514 6.42742,-12.86514 5.635272,0 8.5,2.52119 8.5,7.48067 0,5.03385 -3.254478,8.01933 -8.741871,8.01933 -3.252236,0 -4.546703,-0.5514 -6.185549,-2.63486 z m 158.115976,-0.4041 c -1.39893,-1.3033 -2.18856,-3.23176 -2.18856,-5.34501 0,-8.89722 12.88322,-8.87092 14.60115,0.0298 1.21985,6.32011 -7.38083,10.00301 -12.41259,5.31521 z m -55.603906,-1.8675 c -2.50049,-2.76301 -1.72592,-7.91922 1.55603,-10.3583 2.31417,-1.71985 3.087906,-1.8149 6.257676,-0.76879 3.93378,1.29827 5.60164,3.50488 5.60164,7.4111 0,5.11795 -9.712006,7.80813 -13.415346,3.71599 z m 137.050206,-0.16612 c -6.96434,-5.47815 1.26829,-17.31311 8.66982,-12.46344 3.42901,2.24677 5.05701,6.4545 3.78835,9.79135 -1.87977,4.94415 -7.92212,6.24015 -12.45817,2.67209 z m -26.9403,-1.03854 c -4.76326,-2.77101 -4.07242,-10.05303 1.25212,-13.19831 3.77814,-2.23181 6.22152,-2.1327 9.41846,0.38201 5.54623,4.36267 1.965,13.95616 -5.18772,13.89701 -2.02258,-0.0167 -4.48987,-0.50305 -5.48286,-1.08071 z m -74.62198,-4.52374 c -2.90045,-3.68732 -2.67888,-7.74306 0.56228,-10.29256 5.45391,-4.29005 13.36514,-0.80834 13.36514,5.88197 0,6.84661 -9.61589,9.89181 -13.92742,4.41059 z m 54.92742,-3.05378 c -7.8492,-2.99492 -5.96189,-12.36815 2.47251,-12.27956 3.74693,0.0394 6.201,1.81917 7.02273,5.09319 1.10553,4.40482 -4.89093,8.94318 -9.49524,7.18637 z M 17.149276,212.73124 c -2.305481,-1.11633 -4.364082,-4.79031 -4.364082,-7.78857 0,-2.5147 5.55617,-7.04184 8.642467,-7.04184 5.32569,0 9.275663,3.67538 9.32573,8.67743 0.05759,5.75371 -7.43243,9.14136 -13.604115,6.15298 z m 52.635918,-0.51584 c -3.686096,-1.39858 -6,-4.692 -6,-8.53991 0,-3.47846 0.356243,-4.02556 3.467881,-5.32569 4.935541,-2.06219 7.852781,-1.80099 10.421335,0.93311 2.827984,3.01026 3.075174,8.11013 0.514904,10.62299 -2.120883,2.08159 -6.113232,3.1787 -8.40412,2.3095 z m 44.269926,-2.01768 c -3.13655,-0.60585 -6.26993,-4.98236 -6.26993,-8.75743 0,-3.94972 3.52968,-7.53946 7.41332,-7.53946 4.20007,0 9.62945,2.9823 10.73813,5.89833 1.30067,3.42105 -1.19685,8.78823 -4.7112,10.12439 -2.62832,0.99928 -3.28608,1.02443 -7.17032,0.27417 z m -25.494786,-4.83216 c -7.52982,-4.15128 -5.45286,-12.46473 3.11408,-12.46473 7.0919,0 10.960696,5.81373 6.89708,10.3644 -2.9059,3.25416 -6.53661,4.01589 -10.01116,2.10033 z m -43.580881,-1.49104 c -4.050394,-0.91145 -6.120443,-3.4673 -6.162456,-7.60867 -0.05955,-5.87046 7.436516,-8.30391 13.117839,-4.25846 2.482878,1.76797 2.909519,2.68432 2.654371,5.7011 -0.390398,4.61593 -4.572744,7.2995 -9.609754,6.16603 z m 111.205437,0.26101 c -3.4973,-2.33522 -4.40367,-9.01613 -1.57096,-11.5797 2.02831,-1.83559 7.30709,-2.18785 10.13182,-0.6761 2.98651,1.59834 4.16626,6.38443 2.26088,9.17213 -2.20482,3.22581 -3.24787,3.81835 -6.72144,3.81835 -1.65,0 -3.49513,-0.3306 -4.1003,-0.73468 z M -9.142226,201.26597 c -2.807215,-3.56879 -2.73482,-8.78788 0.149926,-10.80844 4.897683,-3.43047 11.666865,-1.18141 13.660957,4.53885 0.998806,2.86517 0.83125,3.36853 -2.002481,6.01563 -4.108541,3.83795 -8.90804,3.94117 -11.808402,0.25396 z m 145.383476,0.60786 c -4.95913,-1.8345 -6.72755,-8.08684 -3.46164,-12.23878 2.98578,-3.79581 9.14897,-3.44797 13.3504,0.75346 4.95232,4.95232 -2.89884,14.07106 -9.88876,11.48532 z m 97.13283,-2.04973 c -1.42389,-1.69219 -2.58889,-3.84207 -2.58889,-4.77749 0,-1.77151 2.61021,-6.10838 4.44204,-7.38047 3.85662,-2.67817 10.93868,1.50151 11.93624,7.04452 0.49008,2.72322 0.129,3.7423 -2.03734,5.75 -3.81813,3.53854 -8.45006,3.28765 -11.75205,-0.63656 z m -26.16858,-1.80874 c -1.69383,-1.03289 -3.6728,-3.30987 -4.3977,-5.05995 -1.17283,-2.83145 -1.10227,-3.47092 0.64054,-5.80522 6.2023,-8.30731 18.74104,-1.87253 14.76721,7.57843 -0.74769,1.77825 -2.49419,3.62618 -3.95039,4.17982 -3.42084,1.30061 -3.47312,1.29399 -7.05966,-0.89308 z m -26.86562,-6.36453 c -5.77714,-5.08385 -3.48604,-12.75 3.81045,-12.75 8.97981,0 11.74512,9.68527 3.9506,13.83666 -3.16744,1.68699 -4.88195,1.44693 -7.76105,-1.08666 z M 71.535172,188.82072 c -2.526666,-1.47165 -4.736719,-6.25459 -4.069322,-8.80672 0.677564,-2.591 5.099693,-5.11317 8.964965,-5.11317 1.584959,0 3.877899,1.08544 5.425929,2.56855 2.43614,2.33397 2.59261,2.91674 1.71325,6.38116 -1.34215,5.28765 -7.27973,7.73976 -12.034822,4.97018 z m 28.595468,-1.37063 c -3.531336,-1.53637 -4.745396,-4.10755 -3.771576,-7.98755 0.87136,-3.47178 4.063026,-5.56171 8.493646,-5.56171 4.18336,0 6.61472,2.16119 7.51922,6.6837 0.50046,2.5023 0.0989,3.52685 -2.2279,5.68439 -3.16897,2.93843 -5.37599,3.19877 -10.01339,1.18117 z M 19.596191,185.9668 c -5.067357,-3.98598 -4.507932,-12.42472 0.903633,-13.63099 1.531954,-0.34148 3.576127,-0.8354 4.542608,-1.09761 2.437844,-0.66139 7.742762,4.84029 7.742762,8.02994 0,6.26774 -8.34717,10.50725 -13.189003,6.69866 z m 104.188999,1.2278 c -3.07986,-1.12586 -6,-4.70658 -6,-7.3573 0,-4.60096 3.13247,-7.42535 8.09111,-7.29533 5.17469,0.13568 7.90889,2.89597 7.90889,7.98434 0,2.76717 -0.60795,3.77459 -3.25,5.38548 -3.36227,2.05002 -4.21036,2.21119 -6.75,1.28281 z m -75.092526,-6.5629 c -1.98489,-1.53413 -4.287667,-8.29771 -3.512691,-10.31726 0.317408,-0.82716 2.136907,-2.15564 4.043331,-2.9522 3.756884,-1.56972 7.422821,-0.80223 10.81006,2.26318 2.595015,2.34846 2.295328,7.87319 -0.527403,9.72272 -3.18935,2.08974 -8.894116,2.76691 -10.813297,1.28356 z m 99.342526,-0.71991 c -6.3317,-3.86051 -3.34272,-13.01096 4.25,-13.01096 4.78119,0 7.5,2.87951 7.5,7.9433 0,6.59532 -5.41445,8.93052 -11.75,5.06766 z M -5.137883,175.82391 c -3.717292,-3.7173 -3.881127,-6.20979 -0.622378,-9.46853 4.984923,-4.98492 14.562163,-1.77626 14.530142,4.86804 -0.01801,3.7372 -0.711495,4.97103 -3.668946,6.52771 -3.70045,1.94776 -6.981395,1.3302 -10.238818,-1.92722 z m 236.160833,-2.77276 c -2.32676,-0.66887 -6.23776,-6.0823 -6.23776,-8.63402 0,-0.78944 1.2329,-2.57857 2.73978,-3.97583 3.67474,-3.40741 8.54648,-3.41365 11.69626,-0.015 3.6815,3.9724 3.85121,7.3411 0.53681,10.6555 -2.81726,2.81725 -4.48078,3.19229 -8.73509,1.96933 z m -147.314676,-3.0734 c -3.20186,-3.20185 -3.51047,-4.69363 -1.76396,-8.5268 2.50434,-5.49643 13.00634,-4.87191 15.65017,0.93067 1.773,3.89131 1.45329,6.47957 -1.05929,8.57565 -3.56555,2.9745 -9.31171,2.5357 -12.82692,-0.97952 z m 117.127306,0.74679 c -1.11513,-1.19694 -2.26912,-2.93752 -2.56442,-3.86791 -0.84234,-2.65397 1.22696,-6.86788 3.991,-8.12726 3.70395,-1.68763 10.30819,0.4762 11.56819,3.79024 1.45021,3.81433 1.17896,5.24801 -1.49971,7.92668 -3.20312,3.20312 -8.64735,3.33492 -11.49506,0.27825 z m -27.78046,-2.53916 c -2.67902,-0.50266 -6.26993,-4.79596 -6.26993,-7.49633 0,-1.06814 1.29588,-3.23794 2.87972,-4.82179 2.47664,-2.47664 3.42146,-2.80078 6.75,-2.31576 6.94721,1.01233 9.51277,6.88111 5.12028,11.71275 -2.44688,2.69152 -5.00582,3.57299 -8.48007,2.92113 z m -43.76993,-2.44523 c -5.57967,-3.06845 -7.38937,-10.40255 -3.27749,-13.28262 2.49509,-1.74763 8.95779,-2.06576 11.73805,-0.57781 1.00599,0.53839 2.30887,2.35523 2.89528,4.03742 1.49697,4.29421 -0.072,7.75823 -4.31736,9.53206 -4.09782,1.71218 -4.4292,1.72587 -7.03848,0.29095 z m -25.91111,-2.91605 c -2.92034,-3.47062 -3.05807,-4.16339 -1.43919,-7.23901 1.6015,-3.04259 2.78755,-3.65137 7.14805,-3.66895 2.8345,-0.0114 4.41973,0.65582 6.25,2.63071 2.9949,3.23156 3.08414,5.28094 0.37967,8.71912 -3.08297,3.91936 -8.84235,3.7131 -12.33853,-0.44187 z m -73.588886,-2.16298 c -2.088041,-1.0932 -2.548886,-2.14344 -2.79667,-6.37341 -0.360333,-6.15134 0.908041,-7.49899 7.669323,-8.14867 4.32064,-0.41515 5.024607,-0.18428 6.966821,2.28484 2.768536,3.51963 2.739964,6.69855 -0.08947,9.95495 -2.678899,3.08315 -8.179614,4.15159 -11.75,2.28229 z m 29.732899,-1.51029 c -4.747733,-5.26831 -1.704469,-12.25 5.339681,-12.25 5.691951,0 8.650834,3.33321 7.989269,9 -0.305533,2.6171 -4.126576,5 -8.017645,5 -2.288951,0 -4.344613,-0.67731 -5.311305,-1.75 z M 5.001177,153.77324 c -4.588449,-1.32346 -7.039617,-6.38165 -5.076929,-10.47666 3.161182,-6.59559 12.129341,-6.56461 15.269481,0.0527 2.234538,4.70894 2.018153,6.01468 -1.48526,8.96262 -3.332365,2.804 -3.787381,2.88036 -8.707292,1.4613 z M 150.28519,149.7461 c -3.12987,-1.71191 -4.5,-3.95935 -4.5,-7.38141 0,-8.56959 13.85391,-9.38658 15.44398,-0.91077 1.31126,6.98959 -4.82501,11.639 -10.94398,8.29218 z m 36.42308,-1.76835 c -4.30849,-4.30848 -3.98158,-9.43081 0.76118,-11.92722 7.65445,-4.02898 16.96543,3.00988 13.23743,10.00716 -3.05018,5.72504 -9.33201,6.58666 -13.99861,1.92006 z m 31.12777,-1.73939 c -4.33643,-5.51288 -3.70367,-8.91435 2.22901,-11.98225 3.98728,-2.0619 8.02167,-0.34698 10.25485,4.35911 2.03282,4.28385 0.86526,7.80285 -3.08752,9.30569 -4.33587,1.64849 -7.1762,1.13989 -9.39634,-1.68255 z M 78.857774,145.26597 c -4.067623,-5.17114 -1.811137,-10.97126 4.42742,-11.38035 5.48719,-0.3598 6.43746,-0.006 7.97432,2.96555 2.11244,4.08501 1.91222,6.33789 -0.78877,8.87535 -3.37565,3.17125 -8.92944,2.951 -11.61297,-0.46055 z m 46.999996,-6 c -2.33622,-2.97002 -2.57835,-5.16099 -0.96231,-8.70782 1.18912,-2.60981 4.71218,-4.65731 8.01371,-4.65731 2.92567,0 7.87602,5.32277 7.87602,8.46853 0,6.8609 -10.63754,10.3503 -14.92742,4.8966 z m -19.6073,0.68335 c -2.66542,-1.08042 -4.15012,-2.94461 -4.98066,-6.25376 -0.94969,-3.78386 3.10924,-7.79472 7.88814,-7.79472 5.06789,0 6.40412,0.79392 7.64026,4.53945 1.36438,4.13412 0.17804,6.79327 -3.993,8.95019 -3.26853,1.69023 -3.67749,1.72509 -6.55474,0.55884 z m -60.819253,-2.50074 c -3.516483,-3.25897 -3.420839,-6.92678 0.277054,-10.62466 4.597366,-4.59737 10.594318,-3.6908 13.56319,2.05035 4.0148,7.76377 -7.210811,14.71826 -13.840244,8.57431 z m -27.722946,-7.47083 c -3.567436,-3.56743 -3.704688,-6.38622 -0.468532,-9.62237 3.518896,-3.5189 9.632598,-3.43051 12.472875,0.18031 2.900447,3.68732 2.678883,7.74306 -0.562279,10.29256 -3.780056,2.97339 -7.926373,2.66519 -11.442064,-0.8505 z M 167.9595,129.58638 c -4.69625,-4.99893 -1.51572,-12.68554 5.24896,-12.68554 4.35331,0 9.57673,4.16399 9.57673,7.63435 0,6.48025 -10.21392,9.96019 -14.82569,5.05119 z m 34.7181,-4.63928 c -2.38997,-2.38997 -2.82682,-3.48745 -2.28876,-5.75 1.06155,-4.46391 3.27238,-6.29626 7.59679,-6.29626 7.71194,0 11.45567,7.63389 6.15354,12.54775 -3.65011,3.38279 -7.75696,3.20311 -11.46157,-0.50149 z M 67.272873,123.24566 c -2.94484,-2.94484 -3.70751,-6.36038 -2.001597,-8.96393 2.447284,-3.73502 9.429797,-4.35545 13.258328,-1.17806 2.18423,1.81276 1.55529,8.47384 -0.966916,10.24046 -2.90995,2.0382 -8.203795,1.98754 -10.289815,-0.0985 z m 78.896667,-4.77921 c -7.53945,-3.28156 -5.77502,-14.54611 2.31445,-14.77611 9.82614,-0.27938 14.33404,11.2097 5.79773,14.77639 -4.10952,1.71707 -4.16656,1.71707 -8.11218,-2.8e-4 z m -54.344286,-4.37171 c -3.24319,-3.24319 -3.71824,-5.61135 -1.91816,-9.5621 1.13637,-2.49406 3.47735,-3.59334 7.70502,-3.61815 3.032946,-0.0178 8.173076,5.16134 8.173076,8.23511 0,3.05444 -3.6733,6.53589 -7.758006,7.35284 -2.64245,0.52849 -3.66126,0.13297 -6.20193,-2.4077 z m 28.236776,-1.16662 c -3.73937,-2.27999 -5.07743,-6.16286 -3.28068,-9.5201 2.37666,-4.440843 11.69599,-4.985304 14.93126,-0.87233 2.9188,3.71065 2.60797,6.73686 -1.00415,9.77625 -3.68034,3.09681 -6.32678,3.24997 -10.64643,0.61618 z m -85.27658,-1.25739 c -3.148236,-3.37923 -3.568436,-6.53013 -1.281171,-9.60695 3.010334,-4.049486 8.415828,-4.181878 12.296541,-0.30117 3.515711,3.51572 3.744658,5.90196 0.911794,9.50337 -2.747149,3.49243 -8.857376,3.69979 -11.927164,0.40475 z m 150.49974,-1.97771 c -5.15136,-2.9543 -6.02551,-8.44706 -1.86514,-11.719605 3.77597,-2.970179 8.70706,-2.724651 11.29256,0.562279 5.43504,6.909536 -1.83384,15.512236 -9.42742,11.157326 z M 58.535194,98.413652 c -3.129915,-2.157487 -3.75,-3.16522 -3.75,-6.094323 0,-4.314748 3.698181,-8.418494 7.586511,-8.418494 7.830892,0 13.155208,8.714386 8.293101,13.573438 -3.689984,3.687667 -7.692882,3.997667 -12.129612,0.939379 z M 161.57449,95.150835 c -0.83638,-0.9625 -1.83039,-3.050043 -2.20893,-4.638985 -0.55558,-2.332128 -0.1599,-3.44045 2.05279,-5.75 3.69467,-3.856412 8.76649,-3.604226 13.01801,0.647296 2.42147,2.421474 2.03475,6.774746 -0.83973,9.452734 -2.82563,2.632472 -9.83924,2.801046 -12.02214,0.288955 z M 85.708274,88.977758 c -4.69562,-4.695617 -3.60624,-11.328692 2.06514,-12.574336 7.82998,-1.719753 15.239736,5.44817 11.51246,11.136722 -3.27389,4.996589 -9.37286,5.642356 -13.5776,1.437614 z m 52.294356,-1.345464 c -3.82504,-4.071571 -2.56828,-9.51507 2.70066,-11.697536 2.55206,-1.057099 3.55433,-0.966544 6.78304,0.61285 5.07506,2.48257 6.45807,6.319936 3.64199,10.105239 -2.88566,3.878813 -9.90948,4.402936 -13.12569,0.979447 z m -23.38799,-1.986426 c -6.29575,-5.292593 -3.20017,-13.745033 5.03391,-13.745033 3.19303,0 4.45966,0.595175 6.54775,3.076725 3.34872,3.979727 3.2679,6.398112 -0.33419,10.000198 -3.56132,3.561326 -7.52576,3.796817 -11.24747,0.66811 z"
         id="path86"
         inkscape:connector-curvature="0" />
      <path
         style="fill:#ff00ff"
         d="m 107.59769,331.21772 c 0.72187,-0.28887 1.58437,-0.25334 1.91667,0.0789 0.33229,0.33229 -0.25834,0.56865 -1.3125,0.52522 -1.16495,-0.048 -1.4019,-0.28494 -0.60417,-0.60416 z m -3.94006,-2.06688 c -1.24387,-1.58606 -1.2085,-1.62144 0.37756,-0.37757 0.9625,0.75485 1.75,1.54235 1.75,1.75 0,0.82304 -0.82119,0.29332 -2.12756,-1.37243 z m 28.73939,-0.0691 c -0.27841,-0.45048 0.82003,-0.62439 2.44098,-0.38649 1.62096,0.2379 2.94719,0.60647 2.94719,0.81905 0,0.76198 -4.89266,0.3692 -5.38817,-0.43256 z M 82.925534,326.7536 c -1.84781,-0.53175 -3.17251,-1.15396 -2.94377,-1.3827 0.50499,-0.505 7.80343,1.4375 7.80343,2.0769 0,0.58924 -0.79382,0.47583 -4.85966,-0.6942 z m 59.279526,-0.82532 c 2.15042,-3.36487 1.99597,-4.70256 -0.87442,-7.57294 -1.35,-1.35 -2.05766,-2.45454 -1.57258,-2.45454 1.19981,0 5.02713,4.96699 5.02713,6.52406 0,0.68991 -0.93606,2.31671 -2.08013,3.61516 l -2.08013,2.36078 z m -12.96099,-0.094 c -0.36253,-0.58659 -0.44468,-1.28101 -0.18255,-1.54314 0.26212,-0.26213 0.74306,0.21781 1.06875,1.06653 0.67618,1.76211 0.0999,2.07207 -0.8862,0.47661 z m -38.458876,-0.82646 c 0,-0.49117 0.73865,-1.17647 1.64144,-1.5229 1.37248,-0.52667 1.43434,-0.38033 0.37756,0.89301 -1.44013,1.73524 -2.019,1.91584 -2.019,0.62989 z m -13,-3.10699 c -0.588702,-1.10001 -0.845368,-2 -0.570368,-2 0.275,0 0.981668,0.89999 1.570368,2 0.5887,1.1 0.84537,2 0.57037,2 -0.275,0 -0.98167,-0.9 -1.57037,-2 z m 88.807746,-1.09355 c 0.71926,-0.93036 1.69308,-2.97741 2.16404,-4.54901 0.71035,-2.37039 0.87096,-2.48343 0.94226,-0.66321 0.0473,1.20684 -0.92655,3.25388 -2.16405,4.54902 -1.2375,1.29512 -1.66151,1.59357 -0.94225,0.6632 z m -72.612796,-1.40645 c 0.0204,-1.65 0.2445,-2.20394 0.49804,-1.23098 0.25354,0.97297 0.23687,2.32298 -0.037,3 -0.27393,0.67704 -0.48137,-0.11903 -0.46099,-1.76902 z m 59.677486,0.75 c -1.24387,-1.58606 -1.2085,-1.62144 0.37756,-0.37757 0.9625,0.75485 1.75,1.54235 1.75,1.75 0,0.82304 -0.82119,0.29332 -2.12756,-1.37243 z m -23.15022,-2.30041 c 1.22222,-1.28617 2.41565,-2.13848 2.65206,-1.89404 0.23641,0.24444 -0.76359,1.29676 -2.22222,2.33849 l -2.65206,1.89405 z m -53.722216,0.10942 c 0,-0.51754 0.444846,-1.21592 0.988546,-1.55194 0.566864,-0.35034 0.734504,0.0511 0.393014,0.94098 -0.664794,1.73243 -1.38156,2.04939 -1.38156,0.61096 z m -21.25,-2.72129 c 0.6875,-0.27742 1.8125,-0.27742 2.5,0 0.6875,0.2774 0.125,0.50438 -1.25,0.50438 -1.375,0 -1.9375,-0.22698 -1.25,-0.50438 z m 36.12244,-1.08772 c -1.24387,-1.58606 -1.2085,-1.62144 0.37756,-0.37757 0.9625,0.75485 1.75,1.54235 1.75,1.75 0,0.82304 -0.82119,0.29332 -2.12756,-1.37243 z m 43.940056,1.06688 c 0.72187,-0.28887 1.58437,-0.25334 1.91667,0.0789 0.33229,0.33229 -0.25834,0.56865 -1.3125,0.52522 -1.16495,-0.048 -1.4019,-0.28494 -0.60417,-0.60416 z m -84.739916,-2.95174 c -1.139919,-1.44917 -2.033901,-3.58668 -1.986627,-4.75 0.06767,-1.6653 0.26807,-1.50743 0.942253,0.7423 0.470965,1.5716 1.627031,3.7091 2.569035,4.75 0.942004,1.0409 1.450651,1.89256 1.130327,1.89256 -0.320324,0 -1.515069,-1.1857 -2.654988,-2.63486 z m 29.36855,1.19002 c 1.06762,-0.85535 2.38012,-1.55516 2.91667,-1.55516 1.27054,0 0.70323,0.4619 -2.3578,1.91971 -2.35727,1.12265 -2.38918,1.10182 -0.55887,-0.36455 z m 86.431306,-2.30516 c -1.24387,-1.58606 -1.2085,-1.62144 0.37756,-0.37757 0.9625,0.75485 1.75,1.54235 1.75,1.75 0,0.82304 -0.82119,0.29332 -2.12756,-1.37243 z m 12,-3 c -1.24387,-1.58606 -1.2085,-1.62144 0.37756,-0.37757 0.9625,0.75485 1.75,1.54235 1.75,1.75 0,0.82304 -0.82119,0.29332 -2.12756,-1.37243 z m -79.872436,-3.64497 c 0,-0.21724 1.762146,-0.56302 3.915876,-0.76841 2.15374,-0.20539 3.70218,-0.0277 3.44099,0.39497 -0.47525,0.76897 -7.356866,1.11829 -7.356866,0.37344 z m 32.999996,0.0174 c 0,-0.20765 0.7875,-0.99515 1.75,-1.75 1.58606,-1.24387 1.62143,-1.2085 0.37756,0.37757 -1.30637,1.66575 -2.12756,2.19547 -2.12756,1.37243 z m 61.15789,-1.62243 c 0,-1.375 0.22698,-1.9375 0.50439,-1.25 0.27741,0.6875 0.27741,1.8125 0,2.5 -0.27741,0.6875 -0.50439,0.125 -0.50439,-1.25 z m -97.177946,-0.52418 c -0.69572,-0.83829 -1.07128,-1.71782 -0.83459,-1.95452 0.2367,-0.23669 0.97964,0.44918 1.65098,1.52418 1.45181,2.32471 0.96763,2.57996 -0.81639,0.43034 z m 12.605476,-0.38854 c 0.40355,-0.77698 1.06586,-2.80198 1.4718,-4.5 0.67857,-2.83845 0.74631,-2.88105 0.84042,-0.52842 0.0563,1.40738 -0.60601,3.43239 -1.4718,4.5 -0.86578,1.06763 -1.24397,1.30542 -0.84042,0.52842 z m 11.58268,-3.71485 c -0.11766,-2.88904 0.357,-4.53935 1.5819,-5.5 1.5268,-1.1974 1.60008,-1.17951 0.57451,0.14024 -0.64651,0.83198 -1.35837,3.30697 -1.58189,5.5 l -0.40641,3.98733 z m -65.399646,1.45912 c 0.581102,-0.5811 1.646819,-0.85979 2.36826,-0.61932 0.748946,0.24965 0.295653,0.70294 -1.056551,1.05655 -1.663345,0.43498 -2.053777,0.30484 -1.311709,-0.43723 z m 123.231546,-0.77254 c 0,-0.51754 0.44485,-1.21592 0.98855,-1.55194 0.56686,-0.35034 0.7345,0.0511 0.39301,0.94098 -0.66479,1.73243 -1.38156,2.04939 -1.38156,0.61096 z m -134.499996,-3.059 c 0.995486,-1.10001 2.034975,-2 2.309975,-2 0.275,0 -0.314489,0.89999 -1.309975,2 -0.995486,1.1 -2.034975,2 -2.309975,2 -0.275,0 0.314489,-0.9 1.309975,-2 z M 156.34948,295.6077 c 0.37553,-0.98622 0.93469,-1.54122 1.24258,-1.23333 0.30789,0.30789 6.4e-4,1.11479 -0.68278,1.79313 -0.98762,0.98026 -1.10248,0.86541 -0.5598,-0.5598 z m 43.30815,-2.45686 c -1.1941,-1.5226 -1.17752,-1.60002 0.12756,-0.59582 0.825,0.63479 2.625,1.36101 4,1.61381 l 2.5,0.45964 -2.62756,0.13618 c -1.44834,0.0751 -3.24349,-0.6492 -4,-1.61381 z m -129.999991,-1 c -1.243871,-1.58606 -1.208501,-1.62144 0.377555,-0.37757 0.9625,0.75485 1.75,1.54235 1.75,1.75 0,0.82304 -0.821186,0.29332 -2.127555,-1.37243 z m 8.127555,1.35699 c 0,-0.21617 0.69837,-0.66101 1.55194,-0.98856 0.88992,-0.34149 1.29132,-0.17385 0.94098,0.39301 -0.58726,0.95021 -2.49292,1.40545 -2.49292,0.59555 z m 30.219866,-0.78713 c -0.64907,-0.64906 -3.10157,-1.49275 -5.45,-1.87484 l -4.269866,-0.6947 3.639216,-0.12516 c 2.2996,-0.0791 4.50823,0.59879 6,1.84157 1.29843,1.08169 2.11328,1.98169 1.81078,2 -0.3025,0.0183 -1.08106,-0.4978 -1.73013,-1.14687 z m 100.44336,-0.29653 c 2.65483,-1.85951 3.71165,-5.89003 2.30581,-8.79386 -1.0559,-2.181 -1.04458,-2.18599 0.52039,-0.22948 2.40652,3.00862 -0.35239,10.5 -3.86692,10.5 -0.58714,0 -0.11881,-0.6645 1.04072,-1.47666 z M 27.943089,289.90084 c 0,-1.375 0.226973,-1.9375 0.504386,-1.25 0.277412,0.6875 0.277412,1.8125 0,2.5 -0.277413,0.6875 -0.504386,0.125 -0.504386,-1.25 z m 113.842101,0.059 c 0,-0.51754 0.44485,-1.21592 0.98855,-1.55194 0.56686,-0.35034 0.7345,0.0511 0.39301,0.94098 -0.66479,1.73243 -1.38156,2.04939 -1.38156,0.61096 z m 14.56429,-1.76589 c -0.54268,-1.4252 -0.42782,-1.54006 0.5598,-0.5598 0.68342,0.67834 0.99067,1.48524 0.68278,1.79313 -0.30789,0.30789 -0.86705,-0.24711 -1.24258,-1.23333 z m 14.24821,0.0238 c 0.72187,-0.28887 1.58437,-0.25335 1.91667,0.0789 0.33229,0.33229 -0.25834,0.56864 -1.3125,0.52522 -1.16495,-0.048 -1.4019,-0.28494 -0.60417,-0.60416 z m -5.94006,-2.06692 c -1.24387,-1.58606 -1.2085,-1.62144 0.37756,-0.37757 0.9625,0.75485 1.75,1.54235 1.75,1.75 0,0.82304 -0.82119,0.29332 -2.12756,-1.37243 z m 11.62756,-0.25 c 0.99549,-1.10001 2.03498,-2 2.30998,-2 0.275,0 -0.31449,0.89999 -1.30998,2 -0.99549,1.1 -2.03498,2 -2.30998,2 -0.275,0 0.31449,-0.9 1.30998,-2 z m -147.499996,0.62243 c 0,-0.20765 0.7875,-0.99515 1.75,-1.75 1.586056,-1.24387 1.621426,-1.2085 0.377555,0.37757 -1.306369,1.66575 -2.127555,2.19547 -2.127555,1.37243 z m -15,-6.62243 c -0.825,-0.53317 -1.05,-0.96938 -0.5,-0.96938 0.55,0 1.675,0.43621 2.5,0.96938 0.825,0.53315 1.05,0.96937 0.5,0.96937 -0.55,0 -1.675,-0.43622 -2.5,-0.96937 z m 9.352852,-1.06291 c 1.442413,-1.13462 3.037515,-3.49711 3.54467,-5.25 0.685912,-2.37075 0.945202,-2.63042 1.01229,-1.01382 0.09508,2.29111 -4.350829,8.32673 -6.133564,8.32673 -0.575281,0 0.134191,-0.92831 1.576604,-2.06291 z m 24.052136,-0.18709 -1.904988,-2.25 2.25,1.90499 c 2.114445,1.79021 2.705241,2.59501 1.904988,2.59501 -0.189757,0 -1.202257,-1.01251 -2.25,-2.25 z m 25.864044,0.55701 c 0.972967,-0.25355 2.322967,-0.23688 3,0.0371 0.677032,0.27392 -0.119032,0.48136 -1.769032,0.46098 -1.65,-0.0204 -2.203936,-0.2445 -1.230968,-0.49804 z m 50.980964,0.004 c 0.9625,-0.25153 2.5375,-0.25153 3.5,0 0.9625,0.25153 0.175,0.45732 -1.75,0.45732 -1.925,0 -2.7125,-0.20579 -1.75,-0.45732 z m 77.5625,0.006 c 0.72187,-0.28886 1.58437,-0.25335 1.91667,0.0789 0.33229,0.33229 -0.25834,0.56864 -1.3125,0.52522 -1.16495,-0.048 -1.4019,-0.28494 -0.60417,-0.60416 z m -142.158314,-1.317 c 0.6348,-0.82501 1.361018,-2.625 1.613818,-4 l 0.459636,-2.5 0.136182,2.62755 c 0.07507,1.44834 -0.649196,3.24349 -1.613818,4.00001 -1.522597,1.19409 -1.60002,1.17751 -0.595818,-0.12756 z m 59.840264,-1.00614 c -0.99854,-1.10337 -1.63078,-2.1843 -1.40499,-2.40206 0.2258,-0.21776 1.21905,0.685 2.20722,2.00614 2.18239,2.91771 1.69683,3.15735 -0.80223,0.39592 z m -13.49445,-0.37143 c 0,-0.20765 0.7875,-0.99514 1.75,-1.75 1.58606,-1.24387 1.62143,-1.20849 0.37756,0.37757 -1.30637,1.66575 -2.12756,2.19547 -2.12756,1.37243 z m 28.19495,-4.12243 c 0.0204,-1.65001 0.2445,-2.20394 0.49804,-1.23098 0.25354,0.97297 0.23687,2.32298 -0.0371,3 -0.27393,0.67704 -0.48137,-0.11903 -0.46099,-1.76902 z m -40.115996,-0.0833 c 0.048,-1.16496 0.28494,-1.40191 0.60416,-0.60418 0.28887,0.72187 0.25335,1.58437 -0.0789,1.91668 -0.3323,0.33228 -0.56864,-0.25835 -0.52522,-1.3125 z m 119.900986,0.0592 c -0.69572,-0.83828 -1.07128,-1.71782 -0.83459,-1.95452 0.2367,-0.23669 0.97964,0.44918 1.65098,1.52417 1.45181,2.32473 0.96763,2.57996 -0.81639,0.43035 z m 7.56444,0.59598 c -0.69084,-1.1178 1.09867,-2.41044 2.30491,-1.66496 1.30272,0.80513 3.48766,-4.01037 2.87778,-6.34252 -0.2973,-1.1369 -0.13252,-1.81491 0.36619,-1.50669 1.21078,0.7483 1.15041,4.11855 -0.11618,6.48518 -1.2958,2.42123 -4.65187,4.2924 -5.4327,3.02899 z m -112.38649,-2.07187 c 0,-1.375 0.22698,-1.9375 0.50439,-1.25 0.27741,0.6875 0.27741,1.8125 0,2.5 -0.27741,0.6875 -0.50439,0.125 -0.50439,-1.25 z m 8.84585,0.38486 c -0.006,-1.6788 3.9733,-6.39614 5.31884,-6.30592 0.74842,0.0502 0.69209,0.27269 -0.15458,0.61066 -0.7326,0.29245 -2.19342,1.94442 -3.24626,3.67106 -1.05285,1.72663 -1.91595,2.63752 -1.918,2.0242 z m 34.63559,-1.3066 c 1.72664,-1.05285 3.37861,-2.51366 3.67106,-3.24626 0.33798,-0.84668 0.56048,-0.90301 0.61066,-0.15458 0.0902,1.34553 -4.62712,5.32446 -6.30591,5.31883 -0.61333,-0.002 0.29756,-0.86515 2.02419,-1.91799 z m 34.17317,0.23862 c 0.72187,-0.28887 1.58437,-0.25334 1.91667,0.0789 0.33229,0.33229 -0.25834,0.56865 -1.3125,0.52522 -1.16495,-0.048 -1.4019,-0.28494 -0.60417,-0.60416 z m 5.13363,-0.42061 c 1.34537,-0.5373 2.94158,-1.29629 3.54713,-1.68661 0.60555,-0.39031 0.24244,0.0778 -0.80691,1.04034 -1.04936,0.96249 -2.64557,1.72148 -3.54713,1.6866 -1.03634,-0.0401 -0.73957,-0.42268 0.80691,-1.04033 z M 78.535194,269.23856 c 0.6875,-0.27742 1.8125,-0.27742 2.5,0 0.6875,0.2774 0.125,0.50438 -1.25,0.50438 -1.375,0 -1.9375,-0.22698 -1.25,-0.50438 z m -68.75,-0.71529 c 0,-0.20765 0.7875,-0.99514 1.75,-1.75 1.586056,-1.24387 1.621426,-1.20849 0.377555,0.37757 -1.306369,1.66575 -2.127555,2.19547 -2.127555,1.37243 z m 73.08333,0.1169 c 0.22917,-0.14336 1.54167,-1.15585 2.91667,-2.25 l 2.5,-1.98933 -1.90499,2.25 c -1.04774,1.23749 -2.36024,2.25 -2.91666,2.25 -0.55643,0 -0.82418,-0.1173 -0.59502,-0.26067 z m 98.375546,-0.80587 c -0.36253,-0.58659 -0.44468,-1.28099 -0.18255,-1.54313 0.26212,-0.26213 0.74306,0.21781 1.06875,1.06653 0.67618,1.76212 0.0999,2.07206 -0.8862,0.4766 z m 30.62007,-0.5168 c 0.048,-1.16495 0.28494,-1.40189 0.60416,-0.60416 0.28887,0.72186 0.25335,1.58436 -0.0789,1.91666 -0.3323,0.3323 -0.56864,-0.25834 -0.52522,-1.3125 z M 72.657639,266.15084 c -1.243871,-1.58607 -1.208501,-1.62144 0.377555,-0.37757 0.9625,0.75486 1.75,1.54235 1.75,1.75 0,0.82304 -0.821186,0.29332 -2.127555,-1.37243 z m -1.722613,-4.32569 c -0.140109,-2.40854 3.31601,-6.92432 5.299478,-6.92432 0.451224,0 -0.336344,0.9099 -1.750152,2.022 -1.413808,1.11211 -2.75707,3.2496 -2.985027,4.75 l -0.414467,2.72801 z m 17.008058,0.0757 c 0,-1.375 0.22698,-1.9375 0.50439,-1.25 0.27741,0.6875 0.27741,1.8125 0,2.5 -0.27741,0.6875 -0.50439,0.125 -0.50439,-1.25 z m 53.342106,-1 c 0.99549,-1.10001 2.03498,-2 2.30998,-2 0.275,0 -0.31449,0.89999 -1.30998,2 -0.99549,1.09999 -2.03498,2 -2.30998,2 -0.275,0 0.31449,-0.90001 1.30998,-2 z m 30.5,-2.37757 c 0,-0.20765 0.7875,-0.99514 1.75,-1.75 1.58606,-1.24386 1.62143,-1.20849 0.37756,0.37757 -1.30637,1.66575 -2.12756,2.19547 -2.12756,1.37243 z m 10.73333,-0.74653 c 0.67834,-0.68342 1.48524,-0.99067 1.79313,-0.68277 0.30789,0.30788 -0.24711,0.86704 -1.23333,1.24257 -1.4252,0.54269 -1.54006,0.42782 -0.5598,-0.5598 z m 12.13911,-0.6259 c -1.24387,-1.58607 -1.2085,-1.62144 0.37756,-0.37757 0.9625,0.75486 1.75,1.54235 1.75,1.75 0,0.82304 -0.82119,0.29332 -2.12756,-1.37243 z M 83.285194,255.90083 c -1.63041,-0.70061 -1.68751,-0.87242 -0.30902,-0.92971 0.93004,-0.0387 1.9691,0.37971 2.30902,0.92971 0.71066,1.14988 0.67591,1.14988 -2,0 z m 105.769026,-0.69299 c 0.97297,-0.25354 2.32297,-0.23687 3,0.0371 0.67703,0.27393 -0.11903,0.48137 -1.76903,0.46099 -1.65,-0.0204 -2.20394,-0.24449 -1.23097,-0.49804 z M 10.885585,253.19631 c 0.728145,-1.21249 1.539148,-1.98927 1.80223,-1.72619 0.263082,0.26308 -0.332672,1.25511 -1.323898,2.20452 -1.72194,1.64929 -1.74325,1.62798 -0.478332,-0.47833 z m 113.899605,-0.67304 c 0,-0.20765 0.7875,-0.99514 1.75,-1.75 1.58606,-1.24386 1.62143,-1.20849 0.37756,0.37756 -1.30637,1.66575 -2.12756,2.19548 -2.12756,1.37244 z m -58.999996,-2 c 0,-0.20765 0.7875,-0.99514 1.75,-1.75 1.586056,-1.24386 1.621426,-1.20849 0.377555,0.37756 -1.306369,1.66575 -2.127555,2.19548 -2.127555,1.37244 z m 108.564286,-1.3293 c -0.54268,-1.4252 -0.42782,-1.54007 0.5598,-0.5598 0.68342,0.67834 0.99067,1.48524 0.68278,1.79313 -0.30789,0.30788 -0.86705,-0.24711 -1.24258,-1.23333 z M 39.285194,247.90083 c -1.630408,-0.70061 -1.687513,-0.87242 -0.309017,-0.92971 0.930041,-0.0387 1.969098,0.37971 2.309017,0.92971 0.710664,1.14988 0.675913,1.14988 -2,0 z m 60.58333,-0.36455 c 0.229166,-0.2005 1.541666,-0.90032 2.916666,-1.55516 2.35727,-1.12265 2.38918,-1.10183 0.55887,0.36454 -1.593,1.27626 -4.847856,2.39128 -3.475536,1.19062 z m -47.925435,-2.63545 c 0,-1.375 0.226973,-1.9375 0.504386,-1.25 0.277412,0.6875 0.277412,1.8125 0,2.5 -0.277413,0.6875 -0.504386,0.125 -0.504386,-1.25 z m 89.111131,1.30701 c 0.97297,-0.25354 2.32297,-0.23687 3,0.0371 0.67703,0.27393 -0.11903,0.48137 -1.76903,0.46099 -1.65,-0.0204 -2.20394,-0.24449 -1.23097,-0.49804 z m -5.86404,-2.55701 -1.90499,-2.25 2.5,1.98934 c 1.375,1.09414 2.6875,2.10664 2.91667,2.25 0.22916,0.14336 -0.0386,0.26066 -0.59502,0.26066 -0.55642,0 -1.86892,-1.0125 -2.91666,-2.25 z m 101.84435,-1 c -1.07509,-2.9383 -1.04816,-3.06383 0.28076,-1.30887 1.27176,1.67947 2.02282,4.55887 1.18914,4.55887 -0.15442,0 -0.81588,-1.4625 -1.4699,-3.25 z m -15.09145,0.25 c 0,-1.375 0.22698,-1.9375 0.50439,-1.25 0.27741,0.6875 0.27741,1.8125 0,2.5 -0.27741,0.6875 -0.50439,0.125 -0.50439,-1.25 z m -27.96294,-2.5 c 0.0204,-1.65 0.2445,-2.20394 0.49804,-1.23097 0.25354,0.97297 0.23687,2.32297 -0.0371,3 -0.27393,0.67703 -0.48137,-0.11903 -0.46099,-1.76903 z M 2.535194,240.23855 c 0.6875,-0.27741 1.8125,-0.27741 2.5,0 0.6875,0.27741 0.125,0.50439 -1.25,0.50439 -1.375,0 -1.9375,-0.22698 -1.25,-0.50439 z m 24.0625,-0.0208 c 0.721875,-0.28887 1.584375,-0.25335 1.916667,0.0789 0.332291,0.33229 -0.258334,0.56864 -1.3125,0.52522 -1.164943,-0.048 -1.4019,-0.28494 -0.604167,-0.60416 z m 207.187496,-1.20927 c 0,-0.67412 -0.51953,-0.90459 -1.15451,-0.51215 -0.74421,0.45994 -0.88179,0.27226 -0.38713,-0.52811 0.54526,-0.88225 1.07722,-0.93181 1.83784,-0.17118 0.58876,0.58876 0.76297,1.37797 0.38713,1.7538 -0.37583,0.37583 -0.68333,0.13177 -0.68333,-0.54236 z M 31.785194,238.52327 c 0,-0.20765 0.7875,-0.99514 1.75,-1.75 1.586056,-1.24386 1.621426,-1.20849 0.377555,0.37756 -1.306369,1.66575 -2.127555,2.19548 -2.127555,1.37244 z m 27.25,-1.31176 c 0.9625,-0.25152 2.5375,-0.25152 3.5,0 0.9625,0.25153 0.175,0.45733 -1.75,0.45733 -1.925,0 -2.7125,-0.2058 -1.75,-0.45733 z m 74.749996,-1.02157 c 0,-0.57432 0.7875,-1.66182 1.75,-2.41667 1.61876,-1.26951 1.63998,-1.22245 0.28297,0.62756 -0.80687,1.1 -1.59437,2.1875 -1.75,2.41667 -0.15563,0.22916 -0.28297,-0.0532 -0.28297,-0.62756 z m 39.87244,-1.03911 c -1.24387,-1.58606 -1.2085,-1.62143 0.37756,-0.37756 0.9625,0.75486 1.75,1.54235 1.75,1.75 0,0.82304 -0.82119,0.29331 -2.12756,-1.37244 z m 33,-1 c -1.24387,-1.58606 -1.2085,-1.62143 0.37756,-0.37756 0.9625,0.75486 1.75,1.54235 1.75,1.75 0,0.82304 -0.82119,0.29331 -2.12756,-1.37244 z M 79.054224,233.20784 c 0.97297,-0.25354 2.32297,-0.23687 3,0.0371 0.67703,0.27393 -0.11903,0.48137 -1.76903,0.46099 -1.65,-0.0204 -2.20394,-0.24449 -1.23097,-0.49804 z m 35.603406,-2.05701 c -1.19261,-1.5207 -1.1759,-1.60381 0.12756,-0.63426 0.825,0.61365 2.175,1.36562 3,1.67105 1.25475,0.46453 1.23389,0.56823 -0.12756,0.63426 -0.89515,0.0434 -2.24515,-0.70855 -3,-1.67105 z m 7.12756,1.35699 c 0,-0.21616 0.69837,-0.661 1.55194,-0.98855 0.88992,-0.34149 1.29132,-0.17385 0.94098,0.39301 -0.58726,0.95021 -2.49292,1.40545 -2.49292,0.59554 z m 17.75,-0.31272 c 1.2375,-0.23836 3.2625,-0.23836 4.5,0 1.2375,0.23835 0.225,0.43337 -2.25,0.43337 -2.475,0 -3.4875,-0.19502 -2.25,-0.43337 z m 62.0625,0.0226 c 0.72187,-0.28887 1.58437,-0.25335 1.91667,0.0789 0.33229,0.33229 -0.25834,0.56864 -1.3125,0.52522 -1.16495,-0.048 -1.4019,-0.28494 -0.60417,-0.60416 z M 50.995767,229.50169 c 0.709185,-0.76953 1.446988,-1.24947 1.639563,-1.06653 0.593148,0.56346 -0.910139,2.46567 -1.94858,2.46567 -0.539225,0 -0.400167,-0.62961 0.309017,-1.39914 z m -59.238621,-3.65326 c -0.604128,-1.12882 -0.957461,-2.73231 -0.785183,-3.56329 0.172277,-0.831 0.808587,0.0926 1.414023,2.05241 1.237384,4.00544 1.00501,4.56376 -0.62884,1.51088 z m 193.900484,0.3024 c -1.24387,-1.58606 -1.2085,-1.62143 0.37756,-0.37756 0.9625,0.75486 1.75,1.54235 1.75,1.75 0,0.82304 -0.82119,0.29331 -2.12756,-1.37244 z m 54.00048,-2.97394 c -0.28395,-2.85027 -0.0916,-3.89472 0.59153,-3.21161 0.55679,0.55679 1.01756,1.55756 1.02394,2.22394 0.006,0.66639 0.46161,1.21161 1.01161,1.21161 0.55,0 0.9295,-0.6105 0.84333,-1.35667 -0.11075,-0.95907 0.15524,-1.04476 0.90762,-0.29238 1.19801,1.19801 -0.87395,4.50009 -2.27885,3.63181 -0.4407,-0.27237 -0.99863,0.0701 -1.23983,0.76101 -0.2412,0.69093 -0.62791,-0.64454 -0.85935,-2.96771 z m -167.872916,2.01305 c 0,-0.57432 0.7875,-1.66182 1.75,-2.41667 1.618755,-1.26951 1.639977,-1.22245 0.282968,0.62756 -0.806868,1.1 -1.594368,2.1875 -1.75,2.41667 -0.155633,0.22916 -0.282968,-0.0532 -0.282968,-0.62756 z m 35.100386,-0.99363 c 0.72815,-1.21249 1.53915,-1.98927 1.80223,-1.72619 0.26308,0.26308 -0.33267,1.25511 -1.3239,2.20452 -1.72194,1.64929 -1.74325,1.62798 -0.47833,-0.47833 z m -66.100386,-2.23646 c 0,-1.61753 0.355955,-3.16098 0.79101,-3.42985 0.435056,-0.26888 0.610823,1.05457 0.390594,2.94099 -0.490642,4.20269 -1.181604,4.48856 -1.181604,0.48886 z m 162.979936,0.41681 c -0.69572,-0.83829 -1.07128,-1.71781 -0.83459,-1.95452 0.2367,-0.23669 0.97964,0.44919 1.65098,1.52417 1.45181,2.32472 0.96763,2.57996 -0.81639,0.43035 z m 11.02006,1.14661 c 0,-0.20765 0.7875,-0.99514 1.75,-1.75 1.58606,-1.24386 1.62143,-1.20849 0.37756,0.37756 -1.30637,1.66575 -2.12756,2.19548 -2.12756,1.37244 z m -103,-2 c 0,-0.20765 0.7875,-0.99514 1.75,-1.75 1.58606,-1.24386 1.62143,-1.20849 0.37756,0.37756 -1.30637,1.66575 -2.12756,2.19548 -2.12756,1.37244 z m 19.40499,-1.87244 -1.90499,-2.25 2.5,1.98934 c 1.375,1.09414 2.6875,2.10664 2.91667,2.25 0.22916,0.14336 -0.0386,0.26066 -0.59502,0.26066 -0.55642,0 -1.86892,-1.0125 -2.91666,-2.25 z m 7.67834,1.88545 c 0.22917,-0.2005 1.54167,-0.90032 2.91667,-1.55516 2.35727,-1.12265 2.38918,-1.10183 0.55887,0.36454 -1.593,1.27626 -4.84786,2.39128 -3.47554,1.19062 z m -62.428818,-1.88545 c 0.25494,-0.4125 1.985412,-0.75 3.845492,-0.75 1.86008,0 3.59055,0.3375 3.84549,0.75 0.25494,0.4125 -1.47553,0.75 -3.84549,0.75 -2.36996,0 -4.100431,-0.3375 -3.845492,-0.75 z M 244.86414,219.3175 c 0.048,-1.16495 0.28494,-1.4019 0.60416,-0.60417 0.28887,0.72187 0.25335,1.58437 -0.0789,1.91667 -0.33229,0.33229 -0.56864,-0.25834 -0.52522,-1.3125 z m -2.07895,-1.41667 c 0,-1.1 0.40787,-2 0.90638,-2 0.49851,0 0.67103,0.9 0.38337,2 -0.28766,1.1 -0.69553,2 -0.90638,2 -0.21085,0 -0.38337,-0.9 -0.38337,-2 z m -123.73097,0.30701 c 0.97297,-0.25354 2.32297,-0.23687 3,0.0371 0.67703,0.27393 -0.11903,0.48137 -1.76903,0.46099 -1.65,-0.0204 -2.20394,-0.24449 -1.23097,-0.49804 z m 41.60341,-1.05701 c -1.24387,-1.58606 -1.2085,-1.62143 0.37756,-0.37756 0.9625,0.75486 1.75,1.54235 1.75,1.75 0,0.82304 -0.82119,0.29331 -2.12756,-1.37244 z m -155.999991,-1 c -1.243871,-1.58606 -1.208501,-1.62143 0.377555,-0.37756 0.9625,0.75486 1.75,1.54235 1.75,1.75 0,0.82304 -0.821186,0.29331 -2.127555,-1.37244 z m 42.877555,-0.91228 c 0.6875,-0.27741 1.8125,-0.27741 2.5,0 0.6875,0.27741 0.125,0.50439 -1.25,0.50439 -1.375,0 -1.9375,-0.22698 -1.25,-0.50439 z m 144.249996,0.28472 c 0,-0.20765 0.7875,-0.99514 1.75,-1.75 1.58606,-1.24386 1.62143,-1.20849 0.37756,0.37756 -1.30637,1.66575 -2.12756,2.19548 -2.12756,1.37244 z m 11.03063,-0.12244 c 0,-0.55 0.43621,-1.675 0.96937,-2.5 0.53316,-0.825 0.96937,-1.05 0.96937,-0.5 0,0.55 -0.43621,1.675 -0.96937,2.5 -0.53316,0.825 -0.96937,1.05 -0.96937,0.5 z m 37.67723,-2.09405 c -1.55977,-0.84575 -3.76662,-1.24054 -5,-0.89446 -1.73767,0.48759 -1.88842,0.39587 -0.70786,-0.43067 2.20164,-1.54143 4.18769,-1.28064 7,0.91918 2.98179,2.33239 2.52523,2.47583 -1.29214,0.40595 z M 25.285194,212.73044 c 1.1,-0.61027 2.697054,-1.60908 3.549009,-2.21959 0.851955,-0.61051 0.489362,-0.0975 -0.805763,1.13998 -1.295126,1.2375 -2.89218,2.23632 -3.54901,2.21959 -0.65683,-0.0167 -0.294236,-0.52971 0.805764,-1.13998 z m 74.3125,0.48728 c 0.721866,-0.28887 1.584366,-0.25335 1.916666,0.0789 0.33229,0.33229 -0.25834,0.56864 -1.3125,0.52522 -1.164946,-0.048 -1.401896,-0.28494 -0.604166,-0.60416 z m -28,-1 c 0.721875,-0.28887 1.584375,-0.25335 1.916667,0.0789 0.332291,0.33229 -0.258334,0.56864 -1.3125,0.52522 -1.164943,-0.048 -1.4019,-0.28494 -0.604167,-0.60416 z M 180.86414,211.3175 c 0.048,-1.16495 0.28494,-1.4019 0.60416,-0.60417 0.28887,0.72187 0.25335,1.58437 -0.0789,1.91667 -0.3323,0.33229 -0.56864,-0.25834 -0.52522,-1.3125 z m 34.79349,-0.16667 c -1.24387,-1.58606 -1.2085,-1.62143 0.37756,-0.37756 0.9625,0.75486 1.75,1.54235 1.75,1.75 0,0.82304 -0.82119,0.29331 -2.12756,-1.37244 z M 67.292273,210.91228 c -0.350339,-0.56686 0.05106,-0.7345 0.940983,-0.39301 1.732417,0.66479 2.049387,1.38156 0.610955,1.38156 -0.517541,0 -1.215913,-0.44485 -1.551938,-0.98855 z m 7.576254,0.72789 c 0.229167,-0.14336 1.541667,-1.15586 2.916667,-2.25 l 2.5,-1.98934 -1.90499,2.25 c -1.047741,1.2375 -2.360241,2.25 -2.916664,2.25 -0.556424,0 -0.824179,-0.1173 -0.595013,-0.26066 z M 194.86414,210.3175 c 0.048,-1.16495 0.28494,-1.4019 0.60416,-0.60417 0.28887,0.72187 0.25335,1.58437 -0.0789,1.91667 -0.3323,0.33229 -0.56864,-0.25834 -0.52522,-1.3125 z m 12.36218,0.15749 c 1.06762,-0.86579 3.09262,-1.5281 4.5,-1.4718 2.35263,0.0941 2.31004,0.16185 -0.52842,0.84042 -1.69801,0.40594 -3.72301,1.06825 -4.5,1.4718 -0.77699,0.40355 -0.5392,0.0254 0.52842,-0.84042 z m -91.3578,0.0665 c 0.22917,-0.19763 1.76667,-0.6613 3.41667,-1.03038 2.19092,-0.49007 2.59546,-0.3973 1.5,0.34401 -1.35037,0.91381 -5.92015,1.55175 -4.91667,0.68637 z m 25.78911,-1.39066 c -1.24387,-1.58606 -1.2085,-1.62143 0.37756,-0.37756 0.9625,0.75486 1.75,1.54235 1.75,1.75 0,0.82304 -0.82119,0.29331 -2.12756,-1.37244 z m -30.36536,-0.23855 c -0.35034,-0.56686 0.0511,-0.7345 0.94098,-0.39301 1.73242,0.66479 2.04939,1.38156 0.61096,1.38156 -0.51754,0 -1.21592,-0.44485 -1.55194,-0.98855 z m -98.370894,-3.08714 c -0.08833,-1.67067 0.830077,-3.42751 2.613818,-5 l 2.75,-2.42431 -2.162338,2.5 c -1.189286,1.375 -2.365504,3.625 -2.613818,5 l -0.45148,2.5 z m 124.676314,1.39258 c 0.72187,-0.28887 1.58437,-0.25335 1.91667,0.0789 0.33229,0.33229 -0.25834,0.56864 -1.3125,0.52522 -1.16495,-0.048 -1.4019,-0.28494 -0.60417,-0.60416 z m -91.562496,-3.08496 c -1.2375,-0.20407 -2.25,-0.75993 -2.25,-1.23526 0,-0.47533 1.134814,-0.65845 2.521809,-0.40694 1.386995,0.25151 3.450536,-0.0397 4.585646,-0.64724 1.135111,-0.60749 2.292116,-0.87625 2.571122,-0.59725 0.916958,0.91696 -5.128132,3.26603 -7.428577,2.88669 z m 61.828946,-0.81526 c 0.048,-1.16495 0.28494,-1.4019 0.60416,-0.60417 0.28887,0.72187 0.25335,1.58437 -0.0789,1.91667 -0.3323,0.33229 -0.56864,-0.25834 -0.52522,-1.3125 z m 126.07763,-2.75 c -1.68162,-1.79 -1.83864,-2.33333 -0.67432,-2.33333 0.83476,0 1.51774,0.57764 1.51774,1.28365 0,0.70599 0.7875,1.74232 1.75,2.30292 0.9625,0.5606 1.26594,1.03297 0.67431,1.04968 -0.59162,0.0167 -2.06211,-1.01958 -3.26773,-2.30292 z m 5.34753,1.33999 c -0.3539,-0.57263 0.43764,-0.90631 1.86889,-0.78785 1.36555,0.11301 2.2637,0.56002 1.99589,0.99333 -0.68619,1.11028 -3.13196,0.98023 -3.86478,-0.20548 z M 1.785194,201.52327 c 0,-0.20765 0.7875,-0.99514 1.75,-1.75 1.586056,-1.24386 1.621426,-1.20849 0.377555,0.37756 -1.306369,1.66575 -2.127555,2.19548 -2.127555,1.37244 z m 131.494446,-1.62856 c -0.99854,-1.10338 -1.63078,-2.18431 -1.40499,-2.40207 0.2258,-0.21776 1.21905,0.685 2.20722,2.00614 2.18239,2.91772 1.69683,3.15736 -0.80223,0.39593 z M 39.130271,199.3577 c -0.325685,-0.84871 -0.368713,-1.76657 -0.09562,-2.03966 0.273094,-0.27309 0.736558,0.42132 1.029919,1.54313 0.62315,2.38293 -0.06922,2.75089 -0.934299,0.49653 z m 26.096053,0.0983 c 1.067621,-0.85535 2.380121,-1.55517 2.916666,-1.55517 1.270543,0 0.703236,0.46191 -2.357796,1.91971 -2.357268,1.12265 -2.389176,1.10184 -0.55887,-0.36454 z m 18.71676,-0.55517 c 0,-1.375 0.22698,-1.9375 0.50439,-1.25 0.27741,0.6875 0.27741,1.8125 0,2.5 -0.27741,0.6875 -0.50439,0.125 -0.50439,-1.25 z m 59.842106,1.62244 c 0,-0.20765 0.7875,-0.99514 1.75,-1.75 1.58606,-1.24386 1.62143,-1.20849 0.37756,0.37756 -1.30637,1.66575 -2.12756,2.19548 -2.12756,1.37244 z m 66.8125,-1.30555 c 0.72187,-0.28887 1.58437,-0.25335 1.91667,0.0789 0.33229,0.33229 -0.25834,0.56864 -1.3125,0.52522 -1.16495,-0.048 -1.4019,-0.28494 -0.60417,-0.60416 z M -11.135859,197.3175 c 0.04798,-1.16495 0.284941,-1.4019 0.604167,-0.60417 0.288871,0.72187 0.253344,1.58437 -0.07895,1.91667 -0.332292,0.33229 -0.568641,-0.25834 -0.52522,-1.3125 z m 31.171053,0.89401 c 0.9625,-0.25152 2.5375,-0.25152 3.5,0 0.9625,0.25153 0.175,0.45733 -1.75,0.45733 -1.925,0 -2.7125,-0.2058 -1.75,-0.45733 z m 52.75,-0.31068 -3.5,-0.73672 3.190983,-0.13164 c 1.755041,-0.0724 3.469098,0.31836 3.809017,0.86836 0.339919,0.55 0.478976,0.94076 0.309017,0.86836 -0.169959,-0.0724 -1.884017,-0.46317 -3.809017,-0.86836 z m 141.083326,0.71703 c 0.22917,-0.15563 1.31667,-0.94313 2.41667,-1.75 1.85001,-1.35701 1.89707,-1.33579 0.62756,0.28297 -0.75485,0.9625 -1.84235,1.75 -2.41667,1.75 -0.57432,0 -0.85672,-0.12734 -0.62756,-0.28297 z M 97.885584,195.60535 c -1.26492,-2.10631 -1.24361,-2.12762 0.47833,-0.47833 0.99123,0.94941 1.58698,1.94144 1.3239,2.20452 -0.26308,0.26308 -1.07408,-0.5137 -1.80223,-1.72619 z m 106.772046,0.54548 c -1.24387,-1.58606 -1.2085,-1.62143 0.37756,-0.37756 0.9625,0.75486 1.75,1.54235 1.75,1.75 0,0.82304 -0.82119,0.29331 -2.12756,-1.37244 z m 41.7511,0.21134 c -0.34295,-0.8937 -0.58486,-2.3756 -0.53759,-3.29312 0.0473,-0.91751 0.4824,-0.34084 0.96694,1.28152 0.94266,3.15626 0.60928,4.71823 -0.42935,2.0116 z m -80.47928,-2.21134 c -1.0912,-2.55004 -1.06651,-2.60886 0.33949,-0.80887 0.83394,1.06762 1.51625,2.30512 1.51625,2.75 0,1.51991 -0.67833,0.81036 -1.85574,-1.94113 z m 69.85574,2.1212 c 0,-1.13312 6.91812,-8.31532 7.30527,-7.58412 0.20761,0.39211 -1.35114,2.40042 -3.4639,4.46292 -2.11275,2.0625 -3.84137,3.46704 -3.84137,3.1212 z M 130.86414,194.3175 c 0.048,-1.16495 0.28494,-1.4019 0.60416,-0.60417 0.28887,0.72187 0.25335,1.58437 -0.0789,1.91667 -0.3323,0.33229 -0.56864,-0.25834 -0.52522,-1.3125 z m -78.206501,-1.16667 c -1.243871,-1.58606 -1.208501,-1.62143 0.377555,-0.37756 0.9625,0.75486 1.75,1.54235 1.75,1.75 0,0.82304 -0.821186,0.29331 -2.127555,-1.37244 z m 63.940051,1.06689 c 0.72187,-0.28887 1.58437,-0.25335 1.91667,0.0789 0.33229,0.33229 -0.25834,0.56864 -1.3125,0.52522 -1.16495,-0.048 -1.4019,-0.28494 -0.60417,-0.60416 z m 37.6875,-1.31689 c 0.99549,-1.1 2.03498,-2 2.30998,-2 0.275,0 -0.31449,0.9 -1.30998,2 -0.99549,1.1 -2.03498,2 -2.30998,2 -0.275,0 0.31449,-0.9 1.30998,-2 z m -7.93571,-0.70687 c -0.54268,-1.4252 -0.42782,-1.54006 0.5598,-0.5598 0.68342,0.67834 0.99067,1.48524 0.68278,1.79313 -0.30789,0.30789 -0.86705,-0.24711 -1.24258,-1.23333 z m -14.56429,-1.00402 c 0,-0.57432 0.7875,-1.66182 1.75,-2.41667 1.61876,-1.26951 1.63998,-1.22245 0.28297,0.62756 -0.80687,1.1 -1.59437,2.1875 -1.75,2.41667 -0.15563,0.22916 -0.28297,-0.0532 -0.28297,-0.62756 z m 70.07895,-0.87244 c 0.048,-1.16495 0.28494,-1.4019 0.60416,-0.60417 0.28887,0.72187 0.25335,1.58437 -0.0789,1.91667 -0.3323,0.33229 -0.56864,-0.25834 -0.52522,-1.3125 z m -23.62007,-0.4832 c -0.36253,-0.58659 -0.44468,-1.281 -0.18255,-1.54313 0.26212,-0.26213 0.74306,0.21781 1.06875,1.06653 0.67618,1.76211 0.0999,2.07206 -0.8862,0.4766 z m 13.42228,-3.15205 c 0.46036,-2.77692 0.60121,-2.91777 0.91609,-0.91608 0.20464,1.30093 -0.0402,2.77757 -0.544,3.28141 -0.55478,0.55478 -0.70153,-0.37811 -0.37209,-2.36533 z m -122.008711,0.46858 c -1.243871,-1.58606 -1.208501,-1.62143 0.377555,-0.37756 0.9625,0.75486 1.75,1.54235 1.75,1.75 0,0.82304 -0.821186,0.29331 -2.127555,-1.37244 z m 33.877551,1.08772 c 0.6875,-0.27741 1.8125,-0.27741 2.5,0 0.6875,0.27741 0.125,0.50439 -1.25,0.50439 -1.375,0 -1.9375,-0.22698 -1.25,-0.50439 z m -80.999996,-1 c 0.6875,-0.27741 1.8125,-0.27741 2.5,0 0.6875,0.27741 0.125,0.50439 -1.25,0.50439 -1.375,0 -1.9375,-0.22698 -1.25,-0.50439 z m 100.749996,-0.33772 c -1.31874,-0.56668 -1.48906,-0.87815 -0.5,-0.9144 0.825,-0.0302 2.175,0.38124 3,0.9144 1.82797,1.18132 0.24909,1.18132 -2.5,0 z m 81,-1 c 0.99549,-1.1 2.03498,-2 2.30998,-2 0.275,0 -0.31449,0.9 -1.30998,2 -0.99549,1.1 -2.03498,2 -2.30998,2 -0.275,0 0.31449,-0.9 1.30998,-2 z m 33.25,1.33772 c 0.6875,-0.27741 1.8125,-0.27741 2.5,0 0.6875,0.27741 0.125,0.50439 -1.25,0.50439 -1.375,0 -1.9375,-0.22698 -1.25,-0.50439 z M 18.279646,184.8947 c -0.998538,-1.10337 -1.630783,-2.1843 -1.404988,-2.40206 0.225795,-0.21776 1.219044,0.685 2.207221,2.00613 2.182386,2.91772 1.696826,3.15736 -0.802233,0.39593 z m 11.005548,0.006 c 0.995486,-1.1 2.034975,-2 2.309975,-2 0.275,0 -0.314489,0.9 -1.309975,2 -0.995486,1.1 -2.034975,2 -2.309975,2 -0.275,0 0.314489,-0.9 1.309975,-2 z m 147.578946,0.41667 c 0.048,-1.16495 0.28494,-1.4019 0.60416,-0.60417 0.28887,0.72187 0.25335,1.58437 -0.0789,1.91667 -0.3323,0.33229 -0.56864,-0.25834 -0.52522,-1.3125 z m -44.97856,-1.12119 c 0.72815,-1.21249 1.53915,-1.98927 1.80223,-1.72619 0.26308,0.26308 -0.33267,1.25511 -1.3239,2.20452 -1.72194,1.64929 -1.74325,1.62798 -0.47833,-0.47833 z M 95.943084,181.9007 c 0,-1.375 0.22698,-1.9375 0.50439,-1.25 0.27741,0.6875 0.27741,1.8125 0,2.5 -0.27741,0.6875 -0.50439,0.125 -0.50439,-1.25 z m 113.592106,1.33772 c 0.6875,-0.27741 1.8125,-0.27741 2.5,0 0.6875,0.27741 0.125,0.50439 -1.25,0.50439 -1.375,0 -1.9375,-0.22698 -1.25,-0.50439 z m -97.67105,-1.92105 c 0.048,-1.16495 0.28494,-1.4019 0.60416,-0.60417 0.28887,0.72187 0.25335,1.58437 -0.0789,1.91667 -0.3323,0.33229 -0.56864,-0.25834 -0.52522,-1.3125 z m 65.92105,0.64235 c 0,-0.51754 0.44485,-1.21592 0.98855,-1.55194 0.56686,-0.35033 0.7345,0.0511 0.39301,0.94098 -0.66479,1.73242 -1.38156,2.04939 -1.38156,0.61096 z m -127.187496,-0.742 c 0.721875,-0.28887 1.584375,-0.25335 1.916667,0.0789 0.332291,0.33229 -0.258334,0.56864 -1.3125,0.52522 -1.164943,-0.048 -1.4019,-0.28494 -0.604167,-0.60416 z m 102.999996,0 c 0.72187,-0.28887 1.58437,-0.25335 1.91667,0.0789 0.33229,0.33229 -0.25834,0.56864 -1.3125,0.52522 -1.16495,-0.048 -1.4019,-0.28494 -0.60417,-0.60416 z M 15.943089,178.90083 c 0,-1.375 0.226973,-1.9375 0.504386,-1.25 0.277412,0.6875 0.277412,1.8125 0,2.5 -0.277413,0.6875 -0.504386,0.125 -0.504386,-1.25 z m 39.654605,1.31689 c 0.721875,-0.28887 1.584375,-0.25335 1.916667,0.0789 0.332291,0.33229 -0.258334,0.56864 -1.3125,0.52522 -1.164943,-0.048 -1.4019,-0.28494 -0.604167,-0.60416 z m 101.187496,0.30555 c 0,-0.20765 0.7875,-0.99514 1.75,-1.75 1.58606,-1.24386 1.62143,-1.20849 0.37756,0.37756 -1.30637,1.66575 -2.12756,2.19548 -2.12756,1.37244 z m -59.999996,-2.33332 c 0,-0.57432 0.7875,-1.66182 1.75,-2.41668 1.618756,-1.2695 1.639976,-1.22245 0.28297,0.62756 -0.80687,1.1 -1.59437,2.1875 -1.75,2.41667 -0.15563,0.22916 -0.28297,-0.0532 -0.28297,-0.62755 z m 12.139216,-2.32238 c -1.29844,-1.08171 -1.93068,-1.96674 -1.40499,-1.96674 0.52569,0 1.77028,0.9 2.76577,2 2.28688,2.52697 1.69506,2.5125 -1.36078,-0.0333 z m 36.11296,-1.46674 c 0.0111,-2.2 0.21589,-2.98225 0.45508,-1.73834 0.23919,1.24391 0.23011,3.04392 -0.0202,4 -0.25029,0.95609 -0.446,-0.0617 -0.4349,-2.26166 z m -68.752176,1.5 -4,-0.71619 3.690983,-0.1419 c 2.030037,-0.0781 3.969097,0.30809 4.309017,0.85809 0.33992,0.55 0.47898,0.93614 0.30902,0.85809 -0.16996,-0.078 -2.10902,-0.46419 -4.30902,-0.85809 z m 43.726186,-1.57872 c 0.94941,-0.99123 1.94144,-1.58698 2.20452,-1.3239 0.26308,0.26308 -0.5137,1.07408 -1.72619,1.80223 -2.10631,1.26492 -2.12762,1.24361 -0.47833,-0.47833 z m 10.33268,0.0469 c -1.06762,-0.80749 -1.46022,-1.46818 -0.87244,-1.46818 0.58777,0 1.62888,0.675 2.31357,1.5 1.5572,1.87632 1.06734,1.86551 -1.44113,-0.0318 z m -28.74637,-0.15131 c 0.72187,-0.28887 1.58437,-0.25335 1.91667,0.0789 0.33229,0.33229 -0.25834,0.56864 -1.3125,0.52522 -1.16495,-0.048 -1.4019,-0.28494 -0.60417,-0.60416 z m 131.1875,-1.09876 c 0,-0.43004 1.20369,-0.88152 2.67487,-1.00327 1.47119,-0.12175 3.40574,-0.78241 4.29901,-1.4681 0.89328,-0.6857 0.56449,-0.23423 -0.73063,1.00326 -2.25965,2.1591 -6.24325,3.09586 -6.24325,1.46811 z M 92.785194,172.50782 c 0,-0.21616 0.69837,-0.661 1.55194,-0.98855 0.88992,-0.34149 1.29132,-0.17385 0.94098,0.39301 -0.58726,0.95021 -2.49292,1.40545 -2.49292,0.59554 z M -8.15142,170.76161 c -0.03486,-0.90155 0.724114,-2.49777 1.686614,-3.54713 0.9625,-1.04935 1.430648,-1.41246 1.040329,-0.80691 -0.390319,0.60555 -1.149295,2.20177 -1.686613,3.54714 -0.617638,1.54648 -1.000256,1.84325 -1.04033,0.8069 z m 218.93661,0.76166 c 0,-0.20765 0.7875,-0.99514 1.75,-1.75 1.58606,-1.24386 1.62143,-1.20849 0.37756,0.37756 -1.30637,1.66575 -2.12756,2.19548 -2.12756,1.37244 z m 16.14426,-2.37244 c -1.0912,-2.55004 -1.06651,-2.60886 0.33949,-0.80887 0.83394,1.06762 1.51625,2.30512 1.51625,2.75 0,1.51991 -0.67833,0.81036 -1.85574,-1.94113 z M 7.349487,168.19396 c -0.542685,-1.4252 -0.427821,-1.54006 0.559795,-0.5598 0.683418,0.67834 0.990671,1.48524 0.682784,1.79313 -0.307887,0.30789 -0.867048,-0.24711 -1.242579,-1.23333 z m 90.667707,-1.29313 c 0,-1.925 0.2058,-2.7125 0.45733,-1.75 0.25152,0.9625 0.25152,2.5375 0,3.5 -0.25153,0.9625 -0.45733,0.175 -0.45733,-1.75 z m 115.925886,-1 c 0,-1.375 0.22698,-1.9375 0.50439,-1.25 0.27741,0.6875 0.27741,1.8125 0,2.5 -0.27741,0.6875 -0.50439,0.125 -0.50439,-1.25 z m -45.28545,-0.75 c -1.24387,-1.58606 -1.2085,-1.62143 0.37756,-0.37756 0.9625,0.75486 1.75,1.54235 1.75,1.75 0,0.82304 -0.82119,0.29331 -2.12756,-1.37244 z m -41.43131,-0.80517 c -1.86402,-1.49339 -1.85176,-1.51185 0.30887,-0.46481 1.2375,0.59969 2.25,1.29951 2.25,1.55516 0,0.76522 -0.51861,0.54424 -2.55887,-1.09035 z m 97.63782,-0.0282 c 0.048,-1.16495 0.28494,-1.4019 0.60416,-0.60417 0.28887,0.72187 0.25335,1.58437 -0.0789,1.91667 -0.3323,0.33229 -0.56864,-0.25834 -0.52522,-1.3125 z m -87.07895,0.20581 c 0,-0.20765 0.7875,-0.99514 1.75,-1.75 1.58606,-1.24386 1.62143,-1.20849 0.37756,0.37756 -1.30637,1.66575 -2.12756,2.19548 -2.12756,1.37244 z m 29.15789,-3.62244 c 0,-1.375 0.22698,-1.9375 0.50439,-1.25 0.27741,0.6875 0.27741,1.8125 0,2.5 -0.27741,0.6875 -0.50439,0.125 -0.50439,-1.25 z m -133.888854,0.30701 c 0.972967,-0.25354 2.322967,-0.23687 3,0.0371 0.677032,0.27393 -0.119032,0.48137 -1.769032,0.46099 -1.65,-0.0204 -2.203936,-0.24449 -1.230968,-0.49804 z m 165.730964,0.31543 c 0,-0.20765 0.7875,-0.99514 1.75,-1.75 1.58606,-1.24386 1.62143,-1.20849 0.37756,0.37756 -1.30637,1.66575 -2.12756,2.19548 -2.12756,1.37244 z m 13,-0.62244 c -0.90129,-0.58246 -1.02463,-0.97549 -0.30902,-0.98469 0.65504,-0.008 1.4691,0.43469 1.80902,0.98469 0.7673,1.24153 0.42112,1.24153 -1.5,0 z m 14.08333,0.71703 c 0.22917,-0.15563 1.31667,-0.94313 2.41667,-1.75 1.85001,-1.35701 1.89707,-1.33579 0.62756,0.28297 -0.75485,0.9625 -1.84235,1.75 -2.41667,1.75 -0.57432,0 -0.85672,-0.12734 -0.62756,-0.28297 z m -198.055422,-2.1834 c -0.669342,-0.80652 -1.061942,-1.9168 -0.872445,-2.46731 0.189498,-0.55051 0.864703,0.10936 1.500456,1.46637 1.317814,2.81288 1.127506,3.1162 -0.628011,1.00094 z m 33.784596,0.78326 c 0.721875,-0.28887 1.584375,-0.25335 1.916667,0.0789 0.332291,0.33229 -0.258334,0.56864 -1.3125,0.52522 -1.164943,-0.048 -1.4019,-0.28494 -0.604167,-0.60416 z m 6.920833,-0.44098 c 0.678334,-0.68342 1.485241,-0.99067 1.793128,-0.68278 0.307888,0.30789 -0.247112,0.86705 -1.233333,1.24258 -1.425198,0.54268 -1.540062,0.42782 -0.559795,-0.5598 z m 48.424553,-0.87591 c 0,-1.375 0.22698,-1.9375 0.50439,-1.25 0.27741,0.6875 0.27741,1.8125 0,2.5 -0.27741,0.6875 -0.50439,0.125 -0.50439,-1.25 z m 117.65461,-0.68311 c 0.72187,-0.28887 1.58438,-0.25335 1.91667,0.0789 0.33229,0.33229 -0.25834,0.56864 -1.3125,0.52522 -1.16495,-0.048 -1.4019,-0.28494 -0.60417,-0.60416 z M 42.980143,153.40083 c 0.02038,-1.65 0.244498,-2.20394 0.498042,-1.23097 0.253543,0.97297 0.236869,2.32297 -0.03705,3 -0.273927,0.67703 -0.481372,-0.11903 -0.460992,-1.76903 z m 13.883998,-0.0833 c 0.04798,-1.16495 0.284941,-1.4019 0.604167,-0.60417 0.288871,0.72187 0.253344,1.58437 -0.07895,1.91667 -0.332292,0.33229 -0.568641,-0.25834 -0.52522,-1.3125 z m 66.921049,1.20574 c 0,-0.20765 0.7875,-0.99514 1.75,-1.75 1.58606,-1.24386 1.62143,-1.20849 0.37756,0.37756 -1.30637,1.66575 -2.12756,2.19548 -2.12756,1.37244 z m 10.8125,-3.30555 c 0.72187,-0.28887 1.58437,-0.25335 1.91667,0.0789 0.33229,0.33229 -0.25834,0.56864 -1.3125,0.52522 -1.16495,-0.048 -1.4019,-0.28494 -0.60417,-0.60416 z M 15.609698,148.22665 c 0.426728,-2.09296 0.67819,-2.34442 0.969603,-0.9696 0.216399,1.02092 -0.04287,2.29254 -0.576149,2.82582 -0.626137,0.62614 -0.765512,-0.0314 -0.393454,-1.85622 z m 11.175496,1.96329 c 0,-0.57432 0.7875,-1.66182 1.75,-2.41667 1.618755,-1.26951 1.639977,-1.22245 0.282968,0.62756 -0.806868,1.1 -1.594368,2.1875 -1.75,2.41667 -0.155633,0.22916 -0.282968,-0.0532 -0.282968,-0.62756 z m 32.722222,-1.33951 c 1.222222,-1.28617 2.415649,-2.13849 2.65206,-1.89404 0.23641,0.24444 -0.76359,1.29676 -2.222223,2.33849 l -2.652059,1.89405 z m 93.546804,1.35741 c 0.97297,-0.25354 2.32297,-0.23687 3,0.0371 0.67703,0.27393 -0.11903,0.48137 -1.76903,0.46099 -1.65,-0.0204 -2.20394,-0.24449 -1.23097,-0.49804 z m 41.73097,0.29998 c 0,-0.21616 0.69837,-0.661 1.55194,-0.98855 0.88992,-0.34149 1.29132,-0.17385 0.94098,0.39301 -0.58726,0.95021 -2.49292,1.40545 -2.49292,0.59554 z m -154.595008,-2.85699 -1.904988,-2.25 2.25,1.90499 c 2.114445,1.79022 2.705241,2.59501 1.904988,2.59501 -0.189757,0 -1.202257,-1.0125 -2.25,-2.25 z m 177.645858,-1.41247 c -2.6332,-3.34758 -3.62855,-7.15983 -2.23358,-8.5548 0.76111,-0.7611 0.92129,-0.49899 0.55381,0.90624 -0.63122,2.41383 2.77103,8.81103 4.68601,8.81103 0.91093,0 1.74078,-2.05426 2.4238,-6 0.75957,-4.38791 1.29197,-5.6017 1.98153,-4.51757 1.50803,2.3709 1.41606,5.37976 -0.22157,7.24881 -1.23206,1.40618 -1.2802,2.01642 -0.25642,3.25 1.08047,1.30188 0.82494,1.51876 -1.78941,1.51876 -2.11175,0 -3.69405,-0.81895 -5.14417,-2.66247 z m -218.971899,0.0791 c 0.04798,-1.16495 0.284941,-1.4019 0.604167,-0.60417 0.288871,0.72187 0.253344,1.58438 -0.07895,1.91667 -0.332292,0.33229 -0.568641,-0.25834 -0.52522,-1.3125 z m 228.004379,1.30036 c 0.22917,-0.15563 1.31667,-0.94313 2.41667,-1.75 1.85001,-1.35701 1.89707,-1.33579 0.62756,0.28297 -0.75485,0.96251 -1.84235,1.75 -2.41667,1.75 -0.57432,0 -0.85672,-0.12734 -0.62756,-0.28297 z m -212.519033,-4.4239 c -0.542685,-1.4252 -0.427821,-1.54006 0.559795,-0.5598 0.683418,0.67834 0.990671,1.48524 0.682784,1.79313 -0.307887,0.3079 -0.867048,-0.24711 -1.242579,-1.23333 z m 169.514653,0.12354 c 0.048,-1.16495 0.28494,-1.4019 0.60416,-0.60417 0.28887,0.72187 0.25335,1.58438 -0.0789,1.91667 -0.3323,0.33229 -0.56864,-0.25834 -0.52522,-1.3125 z m 17.07894,-0.41662 c 0,-1.375 0.22698,-1.9375 0.50439,-1.25 0.27741,0.6875 0.27741,1.8125 0,2.5 -0.27741,0.6875 -0.50439,0.125 -0.50439,-1.25 z M 1.507416,140.85043 c 1.222222,-1.28617 2.415649,-2.13848 2.65206,-1.89404 0.23641,0.24444 -0.76359,1.29676 -2.222223,2.33849 l -2.652059,1.89406 z m 9.277778,-0.9496 c -0.825,-0.53315 -1.05,-0.96937 -0.5,-0.96937 0.55,0 1.675,0.43622 2.5,0.96937 0.825,0.53316 1.05,0.96937 0.5,0.96937 -0.55,0 -1.675,-0.43621 -2.5,-0.96937 z m 97.812496,0.31689 c 0.72187,-0.28887 1.58437,-0.25334 1.91667,0.0789 0.33229,0.3323 -0.25834,0.56865 -1.3125,0.52522 -1.16495,-0.048 -1.4019,-0.28494 -0.60417,-0.60415 z m 28.1875,0.30555 c 0,-0.20765 0.7875,-0.99515 1.75,-1.75 1.58606,-1.24387 1.62143,-1.2085 0.37756,0.37756 -1.30637,1.66575 -2.12756,2.19548 -2.12756,1.37244 z m -33.59501,-2.87244 -1.90499,-2.25 2.25,1.90499 c 2.11444,1.79022 2.70524,2.59501 1.90499,2.59501 -0.18976,0 -1.20226,-1.0125 -2.25,-2.25 z m -96.592486,0.56689 c 0.721875,-0.28887 1.584375,-0.25334 1.916667,0.0789 0.332291,0.3323 -0.258334,0.56865 -1.3125,0.52522 -1.164943,-0.048 -1.4019,-0.28494 -0.604167,-0.60415 z m 151.059936,-1.06689 c -1.24387,-1.58606 -1.2085,-1.62143 0.37756,-0.37756 1.66575,1.30637 2.19548,2.12756 1.37244,2.12756 -0.20765,0 -0.99515,-0.7875 -1.75,-1.75 z m -100.872436,0.37244 c 0,-0.20765 0.7875,-0.99515 1.75,-1.75 1.586056,-1.24387 1.621426,-1.2085 0.377555,0.37756 -1.306369,1.66575 -2.127555,2.19548 -2.127555,1.37244 z m 91.733326,-0.74653 c 0.67834,-0.68342 1.48524,-0.99067 1.79313,-0.68278 0.30789,0.30789 -0.24711,0.86705 -1.23333,1.24258 -1.4252,0.54269 -1.54006,0.42782 -0.5598,-0.5598 z m -68.999996,-2 c 0.67834,-0.68342 1.48524,-0.99067 1.79313,-0.68278 0.30789,0.30789 -0.24711,0.86705 -1.23333,1.24258 -1.4252,0.54269 -1.54006,0.42782 -0.5598,-0.5598 z m 37.345616,-1.45924 c 0.048,-1.16495 0.28494,-1.4019 0.60416,-0.60417 0.28887,0.72187 0.25335,1.58437 -0.0789,1.91667 -0.3323,0.33229 -0.56864,-0.25834 -0.52522,-1.3125 z m -16,-1 c 0.048,-1.16495 0.28494,-1.4019 0.60416,-0.60417 0.28887,0.72187 0.25335,1.58437 -0.0789,1.91667 -0.3323,0.33229 -0.56864,-0.25834 -0.52522,-1.3125 z m -71.472994,-2.56873 c 1.041726,-1.45863 2.094048,-2.45863 2.338492,-2.22221 0.244445,0.23641 -0.607877,1.42983 -1.894048,2.65205 l -2.338492,2.22222 z m 148.477374,0.86909 c 0.22917,-0.15563 1.31667,-0.94313 2.41667,-1.75 1.85001,-1.35701 1.89707,-1.33579 0.62756,0.28297 -0.75485,0.9625 -1.84235,1.75 -2.41667,1.75 -0.57432,0 -0.85672,-0.12734 -0.62756,-0.28297 z m -76.08333,-1.09459 c 0,-0.20765 0.7875,-0.99515 1.75,-1.75 1.58606,-1.24387 1.62143,-1.2085 0.37756,0.37756 -1.30637,1.66575 -2.12756,2.19548 -2.12756,1.37244 z m -57.999996,-1 c 0,-0.20765 0.7875,-0.99514 1.75,-1.75 1.586056,-1.24387 1.621426,-1.2085 0.377555,0.37757 -1.306369,1.66574 -2.127555,2.19547 -2.127555,1.37243 z m 122.458876,-0.68896 c -0.36253,-0.58659 -0.44468,-1.28101 -0.18255,-1.54314 0.26212,-0.26213 0.74306,0.21781 1.06875,1.06653 0.67618,1.76212 0.0999,2.07206 -0.8862,0.47661 z M 56.657639,126.15084 c -1.243871,-1.58607 -1.208501,-1.62144 0.377555,-0.37757 0.9625,0.75486 1.75,1.54235 1.75,1.75 0,0.82304 -0.821186,0.29332 -2.127555,-1.37243 z m 149.127551,1.3594 c 0,-0.21483 1.54343,-0.57079 3.42985,-0.79101 1.88642,-0.22023 3.20987,-0.0445 2.94099,0.3906 -0.48392,0.78299 -6.37084,1.153 -6.37084,0.40041 z m -190.842101,-2.6094 c 0,-1.375 0.226973,-1.9375 0.504386,-1.25 0.277412,0.6875 0.277412,1.8125 0,2.5 -0.277413,0.6875 -0.504386,0.125 -0.504386,-1.25 z m 116.111131,1.30701 c 0.97297,-0.25354 2.32297,-0.23687 3,0.037 0.67703,0.27393 -0.11903,0.48137 -1.76903,0.46099 -1.65,-0.0204 -2.20394,-0.2445 -1.23097,-0.49804 z m 71.13596,-1.55701 -1.90499,-2.25 2.25,1.90499 c 2.11444,1.79022 2.70524,2.59501 1.90499,2.59501 -0.18976,0 -1.20226,-1.01251 -2.25,-2.25 z M 51.054226,124.20785 c 0.972967,-0.25354 2.322967,-0.23687 3,0.037 0.677032,0.27393 -0.119032,0.48137 -1.769032,0.46099 -1.65,-0.0204 -2.203936,-0.2445 -1.230968,-0.49804 z m 17.730968,-0.36604 c 0,-0.58245 0.45,-0.7809 1,-0.44097 0.55,0.33992 1,0.81648 1,1.05902 0,0.24253 -0.45,0.44098 -1,0.44098 -0.55,0 -1,-0.47657 -1,-1.05903 z m -53,-2.31853 c 0,-0.20766 0.7875,-0.99516 1.75,-1.75 1.586056,-1.24387 1.621426,-1.2085 0.377555,0.37756 -1.306369,1.66574 -2.127555,2.19548 -2.127555,1.37244 z m 12.404988,-1.87244 -1.904988,-2.25 2.25,1.90498 c 2.114445,1.79022 2.705241,2.59502 1.904988,2.59502 -0.189757,0 -1.202257,-1.01251 -2.25,-2.25 z m 186.384868,-2.53257 -1.71014,-3.71743 1.96014,2.36078 c 1.07808,1.29843 1.96014,2.98593 1.96014,3.75 0,2.05693 -0.32455,1.70548 -2.21014,-2.39335 z m -64.97736,2.09945 c 0.72187,-0.28887 1.58437,-0.25334 1.91667,0.079 0.33229,0.33229 -0.25834,0.56864 -1.3125,0.52522 -1.16495,-0.048 -1.4019,-0.28494 -0.60417,-0.60417 z m -54.062496,-2.97917 c 0.6875,-0.27741 1.8125,-0.27741 2.5,0 0.6875,0.27742 0.125,0.50439 -1.25,0.50439 -1.375,0 -1.9375,-0.22697 -1.25,-0.50439 z m 25.249996,-2.94222 c -1.65976,-1.01819 -1.82781,-1.3008 -0.5,-0.84086 1.1,0.38103 3.35,1.04105 5,1.46671 2.74428,0.70796 2.7869,0.77964 0.5,0.84086 -1.375,0.0368 -3.625,-0.62321 -5,-1.46671 z m 37.232,-1.39549 c 0,-1.925 0.2058,-2.71251 0.45733,-1.75 0.25152,0.9625 0.25152,2.53749 0,3.5 -0.25153,0.9625 -0.45733,0.17499 -0.45733,-1.75 z m 45.50133,1.87591 c 0.67834,-0.68342 1.48524,-0.99067 1.79313,-0.68279 0.30789,0.30789 -0.24711,0.86705 -1.23333,1.24258 -1.4252,0.54269 -1.54006,0.42782 -0.5598,-0.55979 z m 5.01667,-0.5382 c 0.6875,-0.27741 1.8125,-0.27741 2.5,0 0.6875,0.27742 0.125,0.50439 -1.25,0.50439 -1.375,0 -1.9375,-0.22697 -1.25,-0.50439 z m -75.86884,-5.5563 c 0.46036,-2.77692 0.60121,-2.91776 0.91609,-0.91608 0.20464,1.30093 -0.0402,2.77757 -0.544,3.28142 -0.55478,0.55478 -0.70153,-0.37812 -0.37209,-2.36534 z m -84.723261,-0.78141 c 0,-1.375 0.226973,-1.9375 0.504386,-1.25 0.277412,0.6875 0.277412,1.8125 0,2.5 -0.277413,0.6875 -0.504386,0.125 -0.504386,-1.25 z m -16,-1 c 0,-1.375 0.226973,-1.9375 0.504386,-1.25 0.277412,0.6875 0.277412,1.8125 0,2.5 -0.277413,0.6875 -0.504386,0.125 -0.504386,-1.25 z m 112.068291,-0.57873 c 0.94941,-0.99122 1.94144,-1.58698 2.20452,-1.3239 0.26308,0.26309 -0.5137,1.07409 -1.72619,1.80223 -2.10631,1.26492 -2.12762,1.24361 -0.47833,-0.47833 z m 37.44048,0.91206 c -0.91035,-0.91035 -0.84554,-6.10476 0.0833,-6.678827 0.4125,-0.254939 0.75,1.293507 0.75,3.440987 0,2.14748 -0.0375,3.90451 -0.0833,3.90451 -0.0458,0 -0.38334,-0.3 -0.75,-0.66667 z m -50.79423,-4.08333 c -1.24387,-1.58606 -1.2085,-1.62143 0.37756,-0.37756 1.66575,1.30637 2.19548,2.12756 1.37244,2.12756 -0.20765,0 -0.99515,-0.7875 -1.75,-1.75 z m -96.372436,-1.25 c 0.995486,-1.100005 2.034975,-2.000005 2.309975,-2.000005 0.275,0 -0.314489,0.9 -1.309975,2.000005 -0.995486,1.09999 -2.034975,2 -2.309975,2 -0.275,0 0.314489,-0.90001 1.309975,-2 z m 28.25,-0.66229 c 0.6875,-0.277408 1.8125,-0.277408 2.5,0 0.6875,0.27742 0.125,0.50439 -1.25,0.50439 -1.375,0 -1.9375,-0.22697 -1.25,-0.50439 z m 7.408825,-2.837715 c 0.912354,-1.1 1.863572,-3.125 2.113818,-4.5 l 0.454993,-2.5 0.136182,2.595012 c 0.08311,1.583733 -0.740646,3.337389 -2.113818,4.5 -2.231856,1.889626 -2.236623,1.88886 -0.591175,-0.09501 z m -14.28638,-1.25 c -1.243871,-1.586056 -1.208501,-1.621426 0.377555,-0.377555 0.9625,0.754844 1.75,1.542344 1.75,1.75 0,0.823034 -0.821186,0.293303 -2.127555,-1.372445 z m 105.532541,-1.5 -1.90499,-2.25 2.25,1.904988 c 2.11444,1.790218 2.70524,2.595012 1.90499,2.595012 -0.18976,0 -1.20226,-1.0125 -2.25,-2.25 z m 28.40751,1.566886 c 0.72187,-0.288871 1.58437,-0.253344 1.91667,0.07895 0.33229,0.332292 -0.25834,0.568641 -1.3125,0.52522 -1.16495,-0.04798 -1.4019,-0.284941 -0.60417,-0.604167 z M 90.054224,91.207844 c 0.97297,-0.253543 2.32297,-0.236869 3,0.03705 0.67703,0.273923 -0.11903,0.481368 -1.76903,0.460988 -1.65,-0.02038 -2.20394,-0.244498 -1.23097,-0.498042 z m -4.86404,-2.557009 -1.90499,-2.25 2.25,1.904988 c 1.2375,1.047743 2.25,2.060243 2.25,2.25 0,0.800253 -0.80479,0.209457 -2.59501,-1.904988 z m 9.67834,1.989343 c 0.22917,-0.143361 1.54167,-1.155861 2.91667,-2.25 l 2.499996,-1.989343 -1.904986,2.25 c -1.04774,1.2375 -2.36024,2.25 -2.91666,2.25 -0.55643,0 -0.82418,-0.117296 -0.59502,-0.260657 z m 51.916666,-1.132354 c 0,-0.216156 0.69837,-0.661002 1.55194,-0.988546 0.88992,-0.341496 1.29132,-0.173849 0.94098,0.393011 -0.58726,0.950204 -2.49292,1.405448 -2.49292,0.595535 z m 12,-1.047972 c 0,-0.792541 0.40803,-1.693162 0.90674,-2.00138 0.49871,-0.308218 0.67122,0.340224 0.38337,1.440983 -0.61061,2.334987 -1.29011,2.630147 -1.29011,0.560397 z m -22.89764,-5.617887 c -0.0563,-1.407379 0.60601,-3.432379 1.4718,-4.5 0.86578,-1.067622 1.24397,-1.305411 0.84042,-0.52842 -0.40355,0.77699 -1.06586,2.80199 -1.4718,4.5 -0.67857,2.838461 -0.74631,2.881051 -0.84042,0.52842 z m 30.16667,-0.634121 c 0.97297,-0.253543 2.32297,-0.236869 3,0.03705 0.67703,0.273923 -0.11903,0.481368 -1.76903,0.460988 -1.65,-0.02038 -2.20394,-0.244498 -1.23097,-0.498042 z m -38.11114,-2.307009 c 0,-1.375 0.22698,-1.9375 0.50439,-1.25 0.27741,0.6875 0.27741,1.8125 0,2.5 -0.27741,0.6875 -0.50439,0.125 -0.50439,-1.25 z m -4.01867,-6.033269 c -1.29844,-1.081702 -1.93068,-1.966731 -1.40499,-1.966731 0.52569,0 1.77028,0.9 2.76577,2 2.28688,2.526974 1.69506,2.512505 -1.36078,-0.03327 z m 18.67328,1.350155 c 0.72187,-0.288871 1.58437,-0.253344 1.91667,0.07895 0.33229,0.332292 -0.25834,0.568641 -1.3125,0.52522 -1.16495,-0.04798 -1.4019,-0.284941 -0.60417,-0.604167 z"
         id="path84"
         inkscape:connector-curvature="0" />
    </g>
  </g>
</svg>
