<?xml version="1.0" encoding="UTF-8" standalone="no"?>
<!-- Created with Inkscape (http://www.inkscape.org/) -->

<svg
   xmlns:dc="http://purl.org/dc/elements/1.1/"
   xmlns:cc="http://creativecommons.org/ns#"
   xmlns:rdf="http://www.w3.org/1999/02/22-rdf-syntax-ns#"
   xmlns:svg="http://www.w3.org/2000/svg"
   xmlns="http://www.w3.org/2000/svg"
   xmlns:sodipodi="http://sodipodi.sourceforge.net/DTD/sodipodi-0.dtd"
   xmlns:inkscape="http://www.inkscape.org/namespaces/inkscape"
   version="1.1"
   id="svg2949"
   width="283"
   height="443"
   viewBox="0 0 283 443"
   sodipodi:docname="feu92.svg"
   inkscape:version="0.92.4 (5da689c313, 2019-01-14)">
  <metadata
     id="metadata2955">
    <rdf:RDF>
      <cc:Work
         rdf:about="">
        <dc:format>image/svg+xml</dc:format>
        <dc:type
           rdf:resource="http://purl.org/dc/dcmitype/StillImage" />
        <dc:title></dc:title>
      </cc:Work>
    </rdf:RDF>
  </metadata>
  <defs
     id="defs2953" />
  <sodipodi:namedview
     pagecolor="#ffffff"
     bordercolor="#666666"
     borderopacity="1"
     objecttolerance="10"
     gridtolerance="10"
     guidetolerance="10"
     inkscape:pageopacity="0"
     inkscape:pageshadow="2"
     inkscape:window-width="1280"
     inkscape:window-height="972"
     id="namedview2951"
     showgrid="false"
     inkscape:zoom="1.5067919"
     inkscape:cx="112.64858"
     inkscape:cy="221.5"
     inkscape:window-x="-8"
     inkscape:window-y="-8"
     inkscape:window-maximized="1"
     inkscape:current-layer="g151"
     showguides="false" />
  <g
     id="g151"
     transform="translate(25.882805,-2.654647)">
    <path
       style="fill:#ff0000"
       d="m 130.11978,302.56403 c -2.11193,-1.66125 -2.63486,-2.92051 -2.63486,-6.34501 0,-5.2121 2.19479,-7.53059 7.84637,-8.28863 3.36916,-0.4519 4.40872,-0.1296 6.57761,2.03929 4.50157,4.50157 3.07677,11.38545 -2.82057,13.62762 -4.00001,1.5208 -6.017,1.28842 -8.96855,-1.03327 z m -25.18031,-1.38197 c -1.35,-1.35 -2.45455,-3.40961 -2.45455,-4.57692 0,-2.68311 5.20102,-7.96853 7.84129,-7.96853 2.77263,0 5.24276,1.05499 4.66373,1.99188 -0.26592,0.43027 0.29217,0.72062 1.24021,0.64522 1.21293,-0.0965 2.01179,1.01083 2.69587,3.73679 0.89572,3.56927 0.75495,4.06073 -1.79023,6.25 -3.73881,3.21599 -8.93532,3.18257 -12.19632,-0.0784 z m -25.819695,-1.61803 c -5.70734,-4.48939 -1.79099,-12.92742 6,-12.92742 6.87149,0 9.84905,7.607 4.91059,12.54545 -3.03642,3.03643 -7.34426,3.18724 -10.91059,0.38197 z m -23.46337,-6.51986 c -1.896536,-1.32838 -2.223609,-2.34946 -1.972506,-6.15789 0.273635,-4.15017 0.644393,-4.74311 4.075965,-6.51855 3.205517,-1.65848 4.213931,-1.77126 6.685096,-0.74767 1.779649,0.73715 3.323827,2.39211 3.97505,4.26021 1.540944,4.42035 1.349781,5.56237 -1.38964,8.30179 -2.886066,2.88607 -7.937699,3.26897 -11.373965,0.86211 z M 154.948,291.35851 c -6.13628,-5.27821 -2.01907,-14.7219 6.41837,-14.7219 8.05307,0 11.72597,10.77679 5.32924,15.6367 -2.79154,2.12087 -8.75864,1.6562 -11.74761,-0.9148 z M 32.67587,280.88661 c -1.116837,-0.9625 -2.329109,-3.22008 -2.693939,-5.01684 -0.575294,-2.8333 -0.201068,-3.72911 2.819829,-6.75 2.682378,-2.68238 4.307533,-3.48316 7.068967,-3.48316 3.056367,0 3.964465,0.57218 6.150353,3.87528 3.158324,4.77255 2.633508,7.78457 -1.897329,10.88915 -3.912078,2.6806 -8.66686,2.88228 -11.447881,0.48557 z m 75.22887,-2.63018 c -3.00429,-3.00429 -3.52101,-4.10816 -2.98484,-6.37654 1.63489,-6.91674 12.67762,-10.05345 16.24197,-4.61357 3.99467,6.09664 1.11225,12.88113 -5.96019,14.02883 -3.25321,0.52792 -4.07075,0.18747 -7.29694,-3.03872 z m 71.58018,2.08617 c -3.13907,-1.58777 -5.368,-6.10362 -4.57403,-9.26707 1.39542,-5.55977 10.72866,-7.52118 15.30983,-3.2174 3.12042,2.93148 3.03354,8.10005 -0.19035,11.32393 -2.7185,2.71851 -6.61707,3.14755 -10.54545,1.16054 z m -92.988765,-2.5981 c -2.55444,-0.71103 -7.01124,-6.30567 -7.01124,-8.80123 0,-2.40509 4.61483,-6.14378 8.47814,-6.86854 6.89444,-1.2934 12.137775,5.53637 8.96326,11.6752 -2.29149,4.43126 -5.0567,5.49028 -10.43016,3.99457 z m 49.988765,-2.77449 c -2.39676,-0.93141 -7,-5.58078 -7,-7.07015 0,-5.46739 6.89788,-10.88019 12.521,-9.82529 4.10774,0.77062 5.5201,2.44957 6.17633,7.34216 0.41427,3.0886 0.0471,4.39367 -1.83989,6.54028 -2.35763,2.68196 -7.03242,4.11084 -9.85744,3.013 z m -73.500005,-4.48813 c -5.413395,-2.9609 -6.046159,-8.45296 -1.497924,-13.00119 2.533425,-2.53343 3.509107,-2.90007 6.25,-2.34865 3.987834,0.80229 7.747924,4.75132 7.747924,8.13726 0,3.20013 -5.075514,8.37738 -8.173077,8.3369 -1.279808,-0.0167 -3.226923,-0.52267 -4.326923,-1.12432 z m -48.024239,-7.24943 c -4.313958,-1.86787 -5.8683937,-5.72037 -4.057164,-10.05526 1.718771,-4.1136 4.169541,-5.54058 9.515662,-5.54058 4.489989,0 8.065741,2.6311 8.065741,5.9349 0,7.25568 -7.200246,12.39912 -13.524239,9.66094 z m 142.881244,0.45914 c -2.72296,-1.15801 -5.357,-4.88575 -5.357,-7.58132 0,-2.95271 6.0078,-8.47366 9.22088,-8.47366 1.44412,0 4.0102,1.165 5.70239,2.58889 5.62727,4.73503 3.30141,12.99011 -3.92327,13.9247 -1.925,0.24902 -4.46435,0.0426 -5.643,-0.45861 z m 36.42649,-0.80498 c -2.6472,-3.03481 -3.61438,-5.68383 -3.08544,-8.4508 0.70392,-3.68232 3.10093,-5.58351 8.0342,-6.37238 3.78657,-0.60549 4.47812,-0.37029 7.34719,2.49878 2.75737,2.75737 3.09047,3.64641 2.57429,6.87079 -0.77505,4.84139 -3.76225,7.20361 -9.10953,7.20361 -2.78441,0 -4.7569,-0.59921 -5.76071,-1.75 z m -89.03349,-9.60232 c -3.54472,-3.28974 -3.49671,-6.63681 0.15121,-10.54192 5.5648,-5.95714 15.09879,-2.91875 15.09879,4.81183 0,4.77909 -2.50605,7.16033 -8.20942,7.8006 -3.59764,0.40388 -4.73471,0.0695 -7.04058,-2.07051 z m -64.250005,0.19759 c -3.256602,-1.78123 -4.5,-3.99615 -4.5,-8.01608 0,-3.40684 0.398993,-3.99209 3.960162,-5.80887 5.205468,-2.65563 7.257866,-2.54919 10.963113,0.56857 4.083318,3.43589 4.137727,7.50395 0.153648,11.48803 -3.099749,3.09975 -6.962111,3.7455 -10.576923,1.76835 z m 39.52894,-3.66248 c -6.13151,-6.13151 -2.9765,-13.18279 5.89848,-13.18279 4.1321,0 5.26195,0.42528 7,2.63486 1.13992,1.44917 2.07258,3.67408 2.07258,4.94423 0,3.39855 -3.94999,7.23324 -8.22106,7.98109 -3.25183,0.56938 -4.10302,0.26959 -6.75,-2.37739 z m 46.043865,-1.91063 c -1.69004,-2.05032 -3.0728,-4.27102 -3.0728,-4.9349 0,-5.73829 6.45148,-10.09193 12.1298,-8.18554 5.17549,1.73758 6.8702,3.68987 6.8702,7.91437 0,2.96665 -0.64667,4.30026 -3.07673,6.34502 -4.65357,3.91572 -9.00164,3.53034 -12.85047,-1.13895 z m 47.61429,-3.07688 c -3.22175,-3.36278 -3.40328,-6.38074 -0.619,-10.29091 1.60788,-2.25805 2.84644,-2.90437 5.56575,-2.90437 6.32669,0 10.28073,3.32008 10.33436,8.67742 0.0698,6.97276 -10.05992,9.96761 -15.28111,4.51786 z M 3.9849153,242.48188 c -4.66469405,-2.55139 -5.782039,-6.959 -2.88499,-11.38045 1.288387,-1.96633 2.456839,-2.46482 5.777494,-2.46482 9.7515247,0 11.8902597,7.85697 3.6349897,13.3537 -2.8725067,1.91264 -3.8014547,1.98259 -6.5274937,0.49157 z M 63.484915,240.9301 c -7.152541,-2.61331 -7.898479,-10.62416 -1.315741,-14.13015 5.54524,-2.95341 12.315741,0.78001 12.315741,6.79121 0,3.18989 -2.96507,7.04545 -5.418213,7.04545 -0.780016,0 -2.017516,0.18935 -2.75,0.42077 -0.732483,0.23143 -2.006787,0.17415 -2.831787,-0.12728 z m 145.302365,-0.30528 c -5.18916,-2.08975 -6.43511,-11.38096 -1.94768,-14.52409 3.10479,-2.17468 9.87478,-1.85807 13.01046,0.60846 5.71868,4.49831 1.78323,15.00532 -5.56739,14.86403 -1.81376,-0.0349 -4.28669,-0.46164 -5.49539,-0.9484 z m -59.52722,-1.54701 c -3.33304,-1.80878 -4.77514,-4.33818 -4.77514,-8.37546 0,-4.47779 3.06388,-7.06574 8.36514,-7.06574 6.11473,0 9.63486,2.896 9.63486,7.92656 0,7.38166 -6.58011,11.12061 -13.22486,7.51464 z M 22.172006,231.83189 c -3.891891,-4.06226 -3.649317,-8.35957 0.6573,-11.64439 6.143568,-4.68593 13.886457,-2.07058 15.273666,5.15905 0.514994,2.68395 0.117775,3.70807 -2.424147,6.25 -4.150901,4.1509 -9.663454,4.24695 -13.506819,0.23534 z m 74.808119,-0.60916 c -5.58036,-5.58036 -3.50369,-12.28726 4.326065,-13.97161 3.27401,-0.70431 4.65122,-0.53494 6.731,0.82778 3.45525,2.26397 5.85561,7.92705 4.46295,10.52926 -2.89136,5.40256 -11.31323,6.82135 -15.520015,2.61457 z m 24.289655,-0.13983 c -1.83824,-0.9977 -3.07474,-2.8091 -3.82858,-5.60865 -1.03186,-3.83204 -0.92911,-4.31935 1.40226,-6.65072 4.45442,-4.45442 13.80432,-2.37052 15.2525,3.39947 0.93136,3.71086 -1.10519,7.3043 -5.08116,8.96557 -4.18759,1.74969 -4.33015,1.74774 -7.74502,-0.10567 z m -43.207125,-6.71274 c -2.40832,-1.37143 -4.29691,-3.36399 -4.8929,-5.16226 -0.84923,-2.56236 -0.63412,-3.21817 1.71972,-5.24286 5.45648,-4.69346 11.59828,-3.86996 14.38611,1.92891 1.08787,2.26284 1.04106,3.16737 -0.29789,5.75663 -0.87372,1.68957 -2.72131,3.50262 -4.10578,4.02899 -3.06017,1.16348 -2.16412,1.33578 -6.80926,-1.30941 z m 109.167835,0.87117 c -4.78557,-3.63244 -4.16701,-12.03283 0.96906,-13.16031 1.53195,-0.3363 3.37638,-0.79569 4.09872,-1.02086 1.81626,-0.56617 6.81078,2.15457 7.56547,4.12125 2.13065,5.55239 -1.80381,11.47917 -7.58337,11.4234 -1.8125,-0.0175 -4.08494,-0.63106 -5.04988,-1.36348 z M 48.317908,221.91542 c -3.360055,-0.49845 -7.832993,-4.56727 -7.832993,-7.12531 0,-1.06809 1.305544,-3.33958 2.90121,-5.04774 3.917599,-4.19381 9.926893,-4.41104 13.02621,-0.4709 5.107214,6.49277 0.365875,13.89901 -8.094427,12.64395 z m -56.5507157,-3.52881 c -1.136492,-1.2375 -2.3626963,-3.65334 -2.7248963,-5.36854 -0.563904,-2.67037 -0.209106,-3.49673 2.4687623,-5.75 3.425969,-2.88277 5.14795,-3.16394 9.686798,-1.58168 5.378822,1.87506 6.796704,8.02924 2.834808,12.3042 -3.23878605,3.49471 -9.241707,3.68853 -12.265472,0.39602 z m 173.0330977,1.24302 c -6.83421,-2.75357 -5.30319,-13.70305 2.17861,-15.58086 3.24258,-0.81384 8.25963,1.23616 9.0396,3.69364 2.79597,8.80931 -3.16921,15.13023 -11.21821,11.88722 z M 138.2349,216.5565 c -2.91881,-1.70005 -4.87591,-6.45846 -3.80972,-9.26277 1.96259,-5.162 7.59768,-6.98166 12.98822,-4.19411 3.14929,1.62857 4.07152,3.33784 4.07152,7.5462 0,5.29642 -8.10054,8.90997 -13.25002,5.91068 z m 81.7153,-1.87141 c -6.95045,-2.8173 -6.82427,-12.78481 0.19115,-15.10011 5.74982,-1.89761 10.27151,0.10171 12.30071,5.4389 2.63595,6.93307 -4.88059,12.74635 -12.49186,9.66121 z M 16.770442,213.11462 c -5.295017,-2.22639 -6.9559257,-8.19359 -3.476577,-12.4904 2.628543,-3.24611 9.197745,-3.2694 12.630207,-0.0448 6.526501,6.13133 -0.734753,16.07504 -9.15363,12.53517 z m 92.033078,-0.25025 c -1.19977,-0.95027 -2.47404,-3.34432 -2.83171,-5.32011 -0.58019,-3.20495 -0.29699,-3.88965 2.62607,-6.34925 2.66572,-2.24305 3.92792,-2.65117 6.77194,-2.18965 7.12459,1.15616 9.82901,8.11352 5.10745,13.13939 -2.81286,2.99415 -8.36955,3.33669 -11.67375,0.71962 z m -20.016915,-5.729 c -2.76353,-1.93565 -3.82599,-6.68315 -2.11268,-9.44029 0.72105,-1.16034 2.98204,-2.56109 5.02442,-3.11279 7.59433,-2.05139 13.771185,3.40316 10.925785,9.64814 -1.91553,4.20412 -9.661165,5.83018 -13.837525,2.90494 z m -26.299614,-2.34284 c -4.821101,-4.8211 -3.324597,-11.1625 3.173327,-13.4469 2.74688,-0.96569 8.728917,1.21533 10.422437,3.79995 3.27251,4.99449 -0.0791,10.45684 -7.345764,11.97187 -2.754864,0.57436 -3.703662,0.22142 -6.25,-2.32492 z m 132.497929,-0.31065 c -3.17298,-1.73549 -4.5,-3.97133 -4.5,-7.58185 0,-8.96101 13.01573,-11.68291 16.32731,-3.41443 1.18765,2.96536 1.23401,4.2144 0.24685,6.65101 -1.92631,4.75471 -7.59545,6.79493 -12.07416,4.34527 z m -69.36983,-6.38919 c -1.6628,-1.39916 -3.28379,-3.36472 -3.60219,-4.36792 -1.01002,-3.18229 1.24375,-7.09483 4.98807,-8.65931 5.14112,-2.1481 9.4675,-0.77561 11.94738,3.79014 1.77689,3.27148 1.82439,3.87501 0.5,6.3526 -1.39616,2.61184 -6.24985,5.42841 -9.35459,5.42841 -0.80046,0 -2.81586,-1.14476 -4.47867,-2.54392 z m 21.75334,0.65068 c -3.14056,-2.54307 -3.26706,-9.16765 -0.233,-12.20171 2.91013,-2.91014 8.73876,-2.82743 11.92859,0.16926 7.41262,6.96379 -3.76005,18.45825 -11.69559,12.03245 z M 38.75484,196.93349 c -3.293341,-0.63614 -6.422828,-5.12863 -6.068609,-8.71171 0.3585,-3.62639 5.573442,-7.58517 9.992022,-7.58517 6.217755,0 9.945709,7.8044 6.034426,12.63296 -1.787368,2.20654 -5.484,4.46926 -6.912023,4.23086 -0.448657,-0.0749 -1.819275,-0.33003 -3.045816,-0.56694 z m -51.095611,-2.61133 c -3.699671,-3.93812 -2.544356,-8.81159 2.7621393,-11.65154 4.469529,-2.39202 12.063547,2.05712 12.063547,7.06772 0,6.17726 -10.328658,9.37069 -14.8256863,4.58382 z m 182.114941,0.0644 c -6.29801,-6.88097 -1.33464,-16.2367 7.5756,-14.27968 3.72258,0.81761 5.07722,2.39783 5.78279,6.74577 1.2244,7.5451 -8.38682,12.96566 -13.35839,7.53391 z m -89.212525,-5.33889 c -2.0483,-1.72353 -3.07673,-3.49893 -3.07673,-5.31144 0,-6.85234 8.7951,-9.58628 14.19528,-4.41258 3.45896,3.31389 3.4986,4.71441 0.25383,8.96852 -3.18575,4.17674 -7.00494,4.43046 -11.37238,0.7555 z m -68.153653,-1.33414 c -1.607692,-1.60769 -2.9230767,-3.83652 -2.9230767,-4.95294 0,-3.46415 2.2340197,-7.14461 4.7146447,-7.76721 3.412773,-0.85655 9.500711,1.77273 11.227319,4.8489 1.300236,2.31653 1.302557,2.96932 0.0191,5.37034 -1.325169,2.47904 -6.214901,5.42399 -9.005868,5.42399 -0.609973,0 -2.424427,-1.31538 -4.032119,-2.92308 z m 90.000008,0 c -4.741765,-4.74175 -3.194485,-11.10147 3.25232,-13.3679 4.53705,-1.59503 12.8997,4.51893 12.7928,9.35286 -0.0784,3.54667 -5.26486,6.93812 -10.61022,6.93812 -1.4429,0 -3.75577,-1.24394 -5.4349,-2.92308 z m 120.34685,2.1459 c -2.53121,-0.40487 -6.02549,-4.40071 -6.90189,-7.89259 -0.35126,-1.3995 0.0817,-3.36773 1.07402,-4.88215 4.85017,-7.4023 16.52781,-4.21264 16.77788,4.58275 0.14096,4.95762 -5.37441,9.0838 -10.95001,8.19199 z M 59.813652,184.17885 c -5.677079,-2.46949 -6.5988,-7.81669 -2.03268,-11.79224 4.004327,-3.48642 12.888663,-1.13446 14.110973,3.73561 0.8761,3.49064 -0.90914,6.40841 -4.955403,8.09905 -3.978932,1.6625 -3.1927,1.66718 -7.12289,-0.0424 z m 66.625008,-6.43465 c -3.9686,-3.9686 -4.20434,-10.24206 -0.47665,-12.68454 5.26174,-3.44762 13.81423,-1.09484 15.13395,4.16334 1.21507,4.84123 -2.48015,9.33214 -8.9073,10.82531 -2.25322,0.52347 -3.36989,0.076 -5.75,-2.30411 z m 21.08632,-0.91368 c -3.94884,-3.94885 -3.95341,-7.43441 -0.0149,-11.37292 2.44176,-2.44177 3.55065,-2.896 5.75,-2.35536 5.49305,1.35029 7.22483,3.24449 7.22483,7.90244 0,4.9518 -1.9003,7.26199 -6.77555,8.23704 -2.62163,0.52433 -3.64968,0.1235 -6.18439,-2.4112 z m 46.83504,-0.094 c -3.28416,-2.65935 -3.1509,-9.64844 0.23626,-12.3912 3.08069,-2.49459 9.60765,-1.77398 12.12842,1.33905 6.08521,7.51491 -4.76068,17.2095 -12.36468,11.05215 z m -23.11239,-4.66526 c -1.55537,-0.84393 -2.99474,-2.66174 -3.33353,-4.20996 -0.32792,-1.4986 -0.74697,-3.22846 -0.93121,-3.84415 -0.18425,-0.61569 0.52172,-2.52819 1.56882,-4.25 1.60152,-2.63349 2.5136,-3.13057 5.7442,-3.13057 3.92922,0 7.13794,2.37207 8.53006,6.3059 0.99091,2.80011 -1.90184,8.57661 -4.85778,9.70046 -3.26923,1.24296 -3.39608,1.23217 -6.72056,-0.57168 z m -181.864832,-1.71901 c -1.868836,-1.2564 -3.537192,-3.24715 -3.707458,-4.42388 -0.37953,-2.62298 3.183571,-6.91783 6.4112583,-7.72792 3.473037,-0.87168 9.232566,1.87 10.404678,4.95289 1.368757,3.6001 1.317111,3.84219 -1.458612,6.83725 -3.070246,3.31285 -7.075172,3.43718 -11.6498663,0.36166 z m -2.214769,-4.90314 c -0.319226,-0.79773 -0.556183,-0.56078 -0.604167,0.60417 -0.04342,1.05416 0.192928,1.64479 0.52522,1.3125 0.332291,-0.3323 0.367818,-1.1948 0.07895,-1.91667 z m 104.088886,5.47337 c -3.76491,-0.57201 -6.92636,-4.781 -6.12647,-8.15647 0.90603,-3.82338 3.02697,-5.84538 6.89198,-6.57046 6.97795,-1.30907 12.018185,4.27107 9.452545,10.46508 -1.0058,2.42822 -4.933645,5.22121 -6.787105,4.82615 -0.38662,-0.0824 -1.93055,-0.33634 -3.43095,-0.5643 z m -50.272,-2.52132 c -1.1,-0.52001 -3.035553,-2.24128 -4.301229,-3.82503 -1.953517,-2.44446 -2.122974,-3.22406 -1.121501,-5.15954 2.081397,-4.02257 4.115698,-5.72555 7.626181,-6.38413 2.879921,-0.54027 3.898574,-0.19326 6.362712,2.16754 3.470112,3.32458 3.953706,8.20367 1.071629,10.81191 -2.617711,2.369 -7.250971,3.5176 -9.637792,2.38925 z M 110.2349,165.5565 c -1.92445,-1.12089 -4.74998,-6.01307 -4.74998,-8.22421 0,-0.772 1.10351,-2.59434 2.45225,-4.04966 1.92553,-2.07768 3.37536,-2.64273 6.75,-2.63071 5.17605,0.0184 6.34869,0.67337 7.73519,4.32014 2.60865,6.86128 -0.16525,11.68703 -6.68744,11.63414 -2.0625,-0.0167 -4.53751,-0.48909 -5.50002,-1.0497 z m 107.92316,-1.89649 c -3.59321,-4.27029 -3.50912,-8.34127 0.24994,-12.10032 1.99499,-1.995 3.92442,-2.92308 6.07692,-2.92308 4.22836,0 9,4.7013 9,8.86731 0,4.28478 -3.62063,7.96372 -8.57686,8.71497 -3.7033,0.56134 -4.3218,0.32687 -6.75,-2.55888 z M 15.884619,163.8713 c -0.605163,-0.40408 -1.655346,-1.78802 -2.33374,-3.07542 -3.7219177,-7.06315 8.140467,-13.82624 13.759722,-7.84482 4.680499,4.98216 1.002637,11.699 -6.390137,11.67024 -2.164552,-0.008 -4.430682,-0.34592 -5.035845,-0.75 z m 50,0 c -3.732131,-2.49201 -4.428555,-9.40065 -1.177198,-11.67799 5.064014,-3.54697 11.777494,-0.46635 11.777494,5.40434 0,5.05642 -6.585847,8.95417 -10.600296,6.27365 z m 72.054851,-5.68924 c -4.70342,-4.70341 -1.61745,-12.54545 4.93682,-12.54545 3.33057,0 8.60863,4.88561 8.60863,7.96853 0,3.19076 -4.36974,7.03147 -8,7.03147 -1.94837,0 -3.99822,-0.90731 -5.54545,-2.45455 z m 50.63219,-3.81019 c -1.39167,-0.71234 -3.06035,-3.01717 -3.94182,-5.44456 -1.43561,-3.95335 -1.41048,-4.34179 0.41326,-6.38802 2.84749,-3.19487 7.86388,-5.07291 10.68509,-4.00029 3.36286,1.27856 4.86257,3.46785 5.4681,7.98237 0.44605,3.32556 0.11712,4.37766 -2.04444,6.53922 -2.82684,2.82684 -6.68512,3.30502 -10.58019,1.31128 z M 80.769765,151.15218 c -5.25635,-2.272 -5.79891,-9.83212 -0.89401,-12.45715 3.99611,-2.13865 7.7349,-1.61356 10.37635,1.45731 5.29555,6.15644 -1.75788,14.33865 -9.48234,10.99984 z m 80.791885,-1.10446 c -5.99121,-5.04127 -2.93599,-13.44894 4.86183,-13.37931 5.03571,0.045 7.20531,2.06504 7.79009,7.25314 0.43904,3.89517 0.18353,4.63898 -2.25156,6.55442 -3.62555,2.85186 -6.65019,2.72731 -10.40036,-0.42825 z m -168.0000097,-2 c -4.1812623,-3.5183 -4.1400023,-7.33863 0.117953,-10.92147 2.596668,-2.18495 3.860196,-2.58229 6.74999995,-2.12265 8.25342305,1.31274 10.86738475,10.61036 3.98380105,14.17 -4.13180005,2.13663 -7.374274,1.80022 -10.851754,-1.12588 z m -0.837759,-6.88085 c 0.259666,-1.35835 0.08713,-2.2318 -0.383423,-1.94098 -0.828563,0.51208 -1.24587,4.41072 -0.47212,4.41072 0.210882,0 0.595877,-1.11138 0.855543,-2.46974 z M 121.9726,146.98143 c -1.95124,-1.95124 -3.48768,-5.67612 -3.48768,-8.45537 0,-3.20717 4.43595,-6.88945 8.29956,-6.88945 4.26908,0 6.69959,2.57481 7.40666,7.84637 0.4519,3.36916 0.1296,4.40872 -2.03929,6.57761 -2.99296,2.99296 -7.68287,3.41722 -10.17925,0.92084 z m -20.18513,-0.51992 c -2.265105,-1.11699 -5.302555,-6.40192 -5.302555,-9.22603 0,-5.26414 9.747985,-7.63804 13.751565,-3.34887 3.39619,3.63846 3.7601,7.059 1.07153,10.07162 -2.72246,3.05059 -6.4325,4.02609 -9.52054,2.50328 z m -49.667696,-2.89748 c -5.853199,-4.60413 -1.780418,-12.92742 6.325686,-12.92742 8.278722,0 11.156963,9.81939 3.967934,13.53699 -3.913913,2.02396 -7.192451,1.82981 -10.29362,-0.60957 z m 158.072396,-1.94306 c -3.33922,-2.62662 -5.22744,-8.14386 -3.739,-10.92504 1.36596,-2.55231 6.10266,-5.05932 9.55901,-5.05932 3.60509,0 8.48213,5.01118 8.44094,8.67308 -0.0356,3.16394 -1.29862,5.1126 -4.94071,7.62281 -3.26446,2.24995 -6.18809,2.15222 -9.32024,-0.31153 z m -186.826119,0.009 c -0.890375,-0.52024 -2.19434,-2.33522 -2.897701,-4.03328 -1.128431,-2.72427 -1.044218,-3.40333 0.716023,-5.7737 2.827741,-3.80788 6.430837,-5.62141 9.592159,-4.82797 6.382363,1.60187 8.878952,9.25389 4.393932,13.46735 -2.469846,2.3203 -8.765801,2.94304 -11.804413,1.1676 z m 124.560909,-5.7586 c -2.02656,-1.40738 -4.44204,-5.69486 -4.44204,-7.88469 0,-4.87133 10.80251,-8.70281 13.92595,-4.9393 4.1796,5.03612 0.86696,13.60339 -5.24853,13.57392 -1.74758,-0.008 -3.6535,-0.34592 -4.23538,-0.75 z m 26.3137,-4.21219 c -3.13164,-2.46335 -3.98227,-6.54457 -2.23543,-10.72535 2.49178,-5.96367 11.97156,-6.11423 15.01007,-0.23839 1.68647,3.26126 1.91246,5.94124 0.501,5.94124 -0.53273,0 -0.72916,0.62401 -0.43649,1.38669 0.69141,1.80178 -4.64864,5.61331 -7.8644,5.61331 -1.35343,0 -3.59206,-0.88987 -4.97475,-1.9775 z M 74.130935,128.18436 c -5.58774,-5.17855 -2.39677,-13.54775 5.16542,-13.54775 6.05834,0 8.9586,3.63991 8.32393,10.44675 -0.5326,5.71218 -8.65666,7.57978 -13.48935,3.101 z M 3.8519553,127.86437 c -4.59472705,-3.72187 -5.052488,-7.77367 -1.292158,-11.43732 3.808621,-3.7107 11.6782497,-2.98875 13.9633347,1.28097 4.098312,7.65777 -5.881065,15.65656 -12.6711767,10.15635 z M 126.10103,124.97999 c -4.92536,-4.92536 -4.57951,-11.63575 0.73088,-14.18096 3.84676,-1.8437 7.34306,-0.71885 9.68029,3.11442 2.86831,4.70426 2.5343,8.07284 -1.10401,11.13427 -3.89583,3.27812 -5.97645,3.26298 -9.30716,-0.0677 z m -85.259116,-1.3596 c -5.80101,-2.27429 -7.015791,-9.41021 -2.280274,-13.39489 3.666927,-3.08551 6.326933,-3.24992 10.583989,-0.65415 3.525417,2.14965 4.821816,5.00657 3.913703,8.62478 -1.022757,4.07499 -7.886329,7.12226 -12.217418,5.42426 z m 60.615516,-2.68789 c -5.312355,-3.66139 -6.330145,-7.39772 -3.101355,-11.38511 2.855775,-3.52672 8.678525,-3.21019 11.758535,0.63922 2.91037,3.63738 2.9938,6.38765 0.29773,9.81514 -2.39279,3.04194 -5.43326,3.35796 -8.95491,0.93075 z m 96.10422,-0.88478 c -5.06329,-4.26048 -4.08987,-11.92039 1.82624,-14.37092 4.62102,-1.91409 9.87773,0.1907 11.76657,4.71133 1.95092,4.66922 1.06661,7.6304 -3.0359,10.16588 -4.43655,2.74195 -6.8332,2.62701 -10.55691,-0.50629 z m -43.10149,-9.66111 c -2.24109,-3.65023 -1.87498,-8.3997 0.8094,-10.499999 2.70227,-2.1143 8.0394,-1.51687 10.76081,1.204549 5.08541,5.0854 1.59213,12.54545 -5.8746,12.54545 -3.09866,0 -4.02465,-0.52838 -5.69561,-3.25 z M 17.492562,108.14475 c -4.499775,-4.78979 -2.246671,-11.432009 4.537871,-13.377799 4.049037,-1.16124 7.030805,0.14968 8.999422,3.95657 1.922858,3.718389 1.329367,8.528669 -1.298397,10.523569 -3.049253,2.31488 -9.581292,1.72655 -12.238896,-1.10234 z m 39.91543,-0.43122 c -4.866662,-4.86666 -3.217183,-10.834659 3.618043,-13.090489 2.953921,-0.97488 3.946902,-0.89668 6.041533,0.47577 2.477329,1.62321 4.417347,5.225239 4.417347,8.201689 0,2.34897 -5.902544,7.33611 -8.682678,7.33611 -1.397958,0 -3.740639,-1.26947 -5.394245,-2.92308 z m 76.293718,-5.63762 c -2.39205,-1.67547 -5.21679,-6.428949 -5.21679,-8.778849 0,-2.56162 3.41039,-5.54316 7.07911,-6.18892 2.95619,-0.52034 4.13099,-0.16562 6.75,2.03814 4.78584,4.02701 4.35137,10.3114 -0.90063,13.027319 -3.58945,1.85617 -4.9467,1.83898 -7.71169,-0.0977 z m 51.1621,0.50516 c -3.04216,-1.12537 -6.37889,-5.783479 -6.37889,-8.904999 0,-7.99651 13.83644,-9.67697 16.99005,-2.06348 1.2443,3.004 0.52605,7.3508 -1.49125,9.025009 -2.13141,1.76892 -6.86493,2.77764 -9.11991,1.94347 z M 81.485175,98.406511 c -5.77446,-6.19815 -2.58831,-13.26644 5.8373,-12.94969 4.22879,0.15898 5.74591,1.38767 7.21691,5.84483 1.07029,3.24303 0.948,3.72294 -1.63594,6.42 -3.50803,3.661589 -8.37317,3.953399 -11.41827,0.68486 z M 105.408,94.713531 c -5.595945,-5.59593 -3.12642,-13.07691 4.31677,-13.07691 7.32373,0 11.56661,9.64727 6.12529,13.92741 -3.65122,2.87205 -6.99159,2.59998 -10.44206,-0.8505 z m -67.70629,-2.63762 c -5.392654,-3.77716 -5.717028,-8.68901 -0.836521,-12.66706 7.630998,-6.21994 17.648073,3.83683 11.547146,11.59291 -2.415591,3.07092 -7.177949,3.54853 -10.710625,1.07415 z m 124.0344,-3.97591 c -2.74362,-1.9217 -4.73348,-8.69371 -3.32683,-11.32206 2.82587,-5.28018 12.6931,-4.71553 15.59303,0.89231 2.20447,4.26297 1.82396,6.50135 -1.59412,9.37747 -3.47905,2.92743 -7.43766,3.31776 -10.67208,1.05228 z m -99.751195,-7.40874 c -2.973619,-1.21708 -5.398803,-4.29866 -6.08562,-7.73274 -0.514867,-2.57434 -0.158304,-3.36806 2.299118,-5.1179 6.122168,-4.35937 10.9163,-3.75436 13.755422,1.73589 1.94202,3.75546 0.53713,8.0346 -3.401753,10.36136 -3.183301,1.88042 -3.675577,1.93689 -6.567167,0.75339 z m 76.500005,-2.76087 c -3.77217,-1.37894 -6,-4.65128 -6,-8.8131 0,-5.02728 2.26115,-7.48067 6.89448,-7.48067 4.28805,0 6.76079,1.43268 8.59517,4.97998 2.46849,4.77353 1.94648,7.7835 -1.73965,10.03098 -3.27969,1.99966 -5.00691,2.28556 -7.75,1.28281 z m -55.086665,-3.57558 c -2.37411,-1.82278 -3.91334,-5.21594 -3.91334,-8.62677 0,-2.35506 0.66478,-3.38384 2.95034,-4.56574 7.08933,-3.66604 14.04966,0.27186 14.04966,7.94879 0,4.90318 -8.89041,8.4655 -13.08666,5.24372 z m 29.196735,-1.1137 c -4.87773,-2.70352 -6.66578,-9.88662 -3.2341,-12.99225 1.03179,-0.93375 3.42809,-1.94961 5.32512,-2.25745 4.21055,-0.68328 8.48078,2.57168 9.23158,7.03673 0.65664,3.90507 -0.91828,6.4956 -4.98104,8.19313 -3.99047,1.66733 -3.37262,1.6654 -6.34156,0.0198 z"
       id="path116"
       inkscape:connector-curvature="0" />
  </g>
</svg>
