<?xml version="1.0" encoding="UTF-8" standalone="no"?>
<!-- Created with Inkscape (http://www.inkscape.org/) -->

<svg
   xmlns:dc="http://purl.org/dc/elements/1.1/"
   xmlns:cc="http://creativecommons.org/ns#"
   xmlns:rdf="http://www.w3.org/1999/02/22-rdf-syntax-ns#"
   xmlns:svg="http://www.w3.org/2000/svg"
   xmlns="http://www.w3.org/2000/svg"
   xmlns:sodipodi="http://sodipodi.sourceforge.net/DTD/sodipodi-0.dtd"
   xmlns:inkscape="http://www.inkscape.org/namespaces/inkscape"
   version="1.1"
   id="svg2949"
   width="283"
   height="443"
   viewBox="0 0 283 443"
   sodipodi:docname="feu155.svg"
   inkscape:version="0.92.4 (5da689c313, 2019-01-14)">
  <metadata
     id="metadata2955">
    <rdf:RDF>
      <cc:Work
         rdf:about="">
        <dc:format>image/svg+xml</dc:format>
        <dc:type
           rdf:resource="http://purl.org/dc/dcmitype/StillImage" />
        <dc:title></dc:title>
      </cc:Work>
    </rdf:RDF>
  </metadata>
  <defs
     id="defs2953" />
  <sodipodi:namedview
     pagecolor="#ffffff"
     bordercolor="#666666"
     borderopacity="1"
     objecttolerance="10"
     gridtolerance="10"
     guidetolerance="10"
     inkscape:pageopacity="0"
     inkscape:pageshadow="2"
     inkscape:window-width="1280"
     inkscape:window-height="972"
     id="namedview2951"
     showgrid="false"
     inkscape:zoom="1.0654628"
     inkscape:cx="114.4831"
     inkscape:cy="224.72047"
     inkscape:window-x="-8"
     inkscape:window-y="-8"
     inkscape:window-maximized="1"
     inkscape:current-layer="g928"
     showguides="true" />
  <g
     id="g151"
     transform="translate(25.882805,-2.654647)">
    <g
       id="g534"
       transform="translate(-21.900834,-45.792654)">
      <g
         id="g928"
         transform="translate(-3.9819699,-1.3273232)">
        <g
           id="g1473"
           transform="translate(27.21822,-22.525423)">
          <path
             style="fill:#ff00ff"
             d="m 96.983103,331.17008 c -12.26457,-2.45538 -16.82231,-3.99618 -23.5,-7.94444 -1.1,-0.65039 -3.904913,-2.27114 -6.233141,-3.60167 -8.949186,-5.11427 -24.977376,-26.45816 -28.740584,-38.27232 -0.402508,-1.26363 -0.96835,-2.9725 -1.257427,-3.7975 -0.289078,-0.825 -0.57396,-9.15 -0.633071,-18.5 -0.12034,-19.03502 0.349106,-21.17877 8.211903,-37.5 5.060449,-10.50425 10.162228,-16.05583 19.463576,-21.17961 8.556939,-4.71372 23.461704,-10.44981 30.739104,-11.82994 7.542217,-1.43035 19.381497,-1.21822 29.386667,0.52653 4.78445,0.83434 9.18793,1.21481 9.7855,0.84549 0.60099,-0.37143 0.8027,-0.21231 0.4514,0.35611 -0.36575,0.59179 1.88719,1.94727 5.31216,3.19608 3.27099,1.19266 6.24361,2.64798 6.60581,3.23404 0.41855,0.67723 -0.0349,0.84548 -1.24419,0.46166 -14.4333,-4.58095 -28.38279,-6.16723 -40.84771,-4.64502 -5.499997,0.67165 -10.899997,1.60301 -11.999997,2.06969 -1.1,0.46667 -3.50809,1.14547 -5.35132,1.50844 -4.05079,0.79769 -14.14868,5.31465 -14.14868,6.32895 0,0.39919 -1.590464,1.30092 -3.534364,2.00385 -1.9439,0.70292 -7.0064,4.66934 -11.25,8.81427 -4.2436,4.14493 -7.115967,7.21068 -6.383039,6.81278 0.983366,-0.53386 0.911119,0.0916 -0.27568,2.38662 -0.884553,1.71053 -1.848279,3.11006 -2.141614,3.11006 -0.293335,0 -0.212251,-0.51953 0.180189,-1.15451 0.456277,-0.73827 0.27271,-0.88207 -0.509157,-0.39885 -0.672475,0.41561 -0.995418,1.3479 -0.717651,2.07175 0.277767,0.72385 -0.188244,1.58213 -1.03558,1.90728 -0.847337,0.32515 -1.297337,1.22515 -1,2 0.297336,0.77485 -0.01899,1.62355 -0.702947,1.88601 -0.683957,0.26246 -2.005543,3.21791 -2.936858,6.56766 -1.774985,6.38427 -2.227055,10.50817 -0.927986,8.46533 0.404078,-0.63543 0.667666,4.056 0.585752,10.4254 -0.08191,6.3694 0.214063,12.2893 0.657727,13.15533 1.701826,3.32196 3.953031,12.32735 3.332596,13.33124 -0.400156,0.64747 -0.164977,0.75237 0.611237,0.27264 0.902721,-0.55791 1.092824,-0.24626 0.668232,1.09549 -0.340227,1.07515 0.25124,3.15521 1.386276,4.87523 2.373769,3.59719 2.67283,2.57006 0.374197,-1.28518 l -1.61867,-2.71482 2.096434,2.5 c 1.153039,1.375 2.10644,2.90752 2.11867,3.40561 0.01223,0.49808 1.161714,2.39954 2.55441,4.22546 1.392695,1.82592 2.494499,3.58538 2.448452,3.90992 -0.04605,0.32454 1.068763,1.49662 2.477354,2.60462 1.408592,1.108 2.29834,2.43966 1.977218,2.95924 -0.321122,0.51959 -0.166868,0.82105 0.342785,0.66993 0.509653,-0.15113 4.497454,2.58535 8.861779,6.08107 4.364328,3.49571 9.718288,6.978 11.897688,7.73841 20.006797,6.9805 33.001817,7.64758 48.462547,2.48772 12.21526,-4.07672 22.25759,-10.003 25.6582,-15.14168 1.43417,-2.16716 2.95501,-3.9403 3.37965,-3.9403 0.42464,0 2.85136,-3.54671 5.39272,-7.88157 7.82181,-13.34189 11.74438,-36.44476 8.16987,-48.11843 -0.75785,-2.475 -2.84457,-7.55791 -4.63716,-11.29537 -5.78985,-12.0715 -21.92555,-23.98601 -35.37979,-26.12423 -2.09928,-0.33363 -4.21912,-0.8552 -4.71075,-1.15905 -1.75645,-1.08555 -17.51016,-0.46106 -25.11237,0.99546 -12.290937,2.35486 -23.962567,10.12723 -30.410237,20.2508 -0.992161,1.55781 -2.264328,3.15491 -2.827032,3.54911 -0.562704,0.3942 -1.083691,1.2942 -1.157748,2 -0.07406,0.7058 -0.218186,2.18328 -0.320286,3.28328 l -0.185635,2 -0.78175,-2 c -0.750681,-1.92051 -0.811091,-1.90771 -1.520009,0.32217 -0.406042,1.2772 -0.454589,3.4524 -0.107882,4.83379 0.346706,1.38139 0.255685,2.28005 -0.20227,1.99701 -0.457956,-0.28303 -0.889054,0.91677 -0.957996,2.66622 -0.116987,2.96863 -0.07077,3.01405 0.692884,0.68081 0.791319,-2.41777 0.821513,-2.42554 0.917914,-0.23643 0.05482,1.24496 -0.43487,3.11952 -1.088208,4.16568 -0.913445,1.46266 -0.916292,2.78797 -0.01233,5.73643 0.646559,2.10888 1.353073,5.89161 1.57003,8.40607 0.216957,2.51446 1.104556,5.94491 1.972443,7.62321 0.867886,1.67831 1.258422,3.40567 0.867858,3.83858 -0.390565,0.43291 -0.242369,0.52197 0.329325,0.1979 0.571694,-0.32407 2.081032,1.3742 3.354087,3.77393 2.72676,5.14001 11.606,12.43434 19.82283,16.28455 5.10008,2.38978 6.965532,2.70674 15.783642,2.68185 12.53522,-0.0354 21.16334,-2.83709 28.83253,-9.36241 8.84828,-7.52854 12.54331,-15.75063 13.38283,-29.77914 0.99064,-16.55357 -4.34775,-27.04151 -17.08058,-33.55694 -5.88093,-3.00929 -6.63133,-3.13825 -18.13478,-3.11655 -11.45877,0.0216 -12.27959,0.16467 -18.199012,3.17162 -6.703,3.40498 -11.02636,7.35746 -11.93891,10.91474 -0.31649,1.2337 -1.04695,1.95167 -1.62326,1.59549 -0.57631,-0.35618 -0.80178,-0.24057 -0.50104,0.25691 0.30074,0.49748 0.23574,2.70451 -0.14445,4.90451 -0.38018,2.2 -0.18032,6.79611 0.44414,10.21357 0.81754,4.47415 0.83125,6.54478 0.049,7.39671 -0.78723,0.8573 -0.77231,1.00739 0.0542,0.54501 1.36035,-0.76105 4.71148,3.96598 3.82661,5.39773 -0.33874,0.54809 -0.0199,0.87288 0.70844,0.72176 0.73318,-0.15213 1.17554,0.39479 0.991,1.22522 -0.18334,0.825 -0.004,1.17059 0.39869,0.76797 0.40261,-0.40261 2.51481,0.87861 4.69377,2.84717 5.275732,4.76631 9.999852,6.60488 17.240872,6.70993 13.32953,0.1934 22.68733,-10.1024 22.35494,-24.59572 -0.13559,-5.91207 -4.49052,-13.05806 -8.89322,-14.59285 -1.629,-0.56785 -2.96177,-0.77577 -2.96177,-0.46204 0,0.31374 -0.5625,0.10375 -1.25,-0.46663 -3.38572,-2.80895 -14.39425,1.53422 -16.70154,6.58922 -0.57665,1.26338 -1.04846,3.86538 -1.04846,5.78223 0,2.68356 0.50893,3.67344 2.2127,4.3037 3.2846,1.21505 5.11412,0.35278 6.7873,-3.1989 1.90465,-4.04303 5.62482,-4.85599 6.88449,-1.50444 0.62159,1.65384 0.47619,2.55007 -0.5062,3.12005 -0.75806,0.43983 -1.37829,1.47889 -1.37829,2.30902 0,0.83013 0.45,1.23121 1,0.89129 0.55,-0.33992 1,-0.14148 1,0.44098 0,0.58246 -0.7875,1.06591 -1.75,1.07433 -1.27573,0.0112 -1.40483,0.23438 -0.47637,0.82363 2.06843,1.31272 -2.02483,4.26766 -6.39164,4.61415 -10.49239,0.83252 -17.828567,-9.24857 -13.574657,-18.65375 2.511797,-5.55346 5.500627,-8.60568 10.663157,-10.88931 10.10515,-4.46999 19.27359,-2.82809 26.29235,4.70848 3.5529,3.81502 4.26213,5.18434 3.77554,7.28946 -0.38782,1.67785 -0.28551,2.12272 0.29011,1.26137 0.64059,-0.95857 1.06852,-0.43427 1.53038,1.875 2.45647,12.28236 -2.73559,24.20158 -13.71898,31.49414 -6.9055,4.585 -11.72846,5.27494 -20.43127,2.92278 -16.767867,-4.53197 -27.094447,-16.50806 -28.868327,-33.47963 -1.6697,-15.97483 13.08443,-31.31757 33.659707,-35.00255 7.91858,-1.4182 13.89702,-0.71617 23.1691,2.72067 11.35527,4.209 22.23312,16.67637 20.17656,23.12485 -0.44138,1.38396 -0.35592,1.42355 0.4913,0.22755 0.82821,-1.16916 1.15685,-0.925 1.70738,1.26848 0.37496,1.49398 0.47089,3.81939 0.21316,5.16758 -0.25772,1.3482 -0.0836,2.21333 0.38696,1.92251 0.47055,-0.29081 0.8023,2.0853 0.73723,5.28026 -0.097,4.76107 -0.25603,5.26782 -0.88169,2.80902 -0.69852,-2.74514 -0.76972,-2.78761 -0.83813,-0.5 -0.0411,1.375 0.30976,4.49206 0.77974,6.92681 0.47129,2.44152 0.47219,5.13233 0.002,6 -0.46886,0.86525 -1.76234,3.74383 -2.8744,6.39683 -1.11205,2.653 -2.4774,4.54213 -3.03411,4.19806 -0.5679,-0.35098 -0.77812,-0.0156 -0.47892,0.76413 0.29331,0.76435 -0.94935,3.18358 -2.76145,5.37609 -10.22551,12.37207 -26.59591,19.23198 -43.12792,18.07248 -7.557107,-0.53004 -18.634117,-5.37156 -24.456357,-10.68936 -1.71462,-1.56606 -3.53847,-3.00436 -4.053,-3.19621 -4.359199,-1.62544 -13.191238,-18.48098 -15.180788,-28.97184 -2.821185,-14.87605 0.94738,-33.21906 8.873228,-43.18931 3.084298,-3.87987 13.65397,-12.23487 18.16399,-14.35808 7.81091,-3.67719 24.569797,-7.33737 33.486107,-7.31345 2.75,0.007 7.86892,0.6897 11.37539,1.51627 7.80764,1.84049 23.26449,9.19478 28.45284,13.53772 3.93779,3.29615 16.37146,21.25865 17.00872,24.57192 0.19654,1.02187 0.90269,3.19459 1.56921,4.82826 0.66653,1.63368 1.00244,3.77118 0.74648,4.75 -0.25597,0.97883 0.001,1.77968 0.57106,1.77968 1.1719,0 0.40557,11.46575 -1.11448,16.67473 -0.50954,1.7461 -0.72496,3.3762 -0.47872,3.62244 0.83294,0.83294 -3.72156,16.15964 -6.7966,22.87177 -1.68039,3.66792 -4.35545,7.91462 -5.94458,9.4371 -1.58912,1.52248 -2.90737,3.24645 -2.92943,3.83105 -0.0221,0.5846 -2.32427,2.86291 -5.11604,5.06291 -2.79177,2.2 -6.18183,5.0217 -7.53347,6.27044 -3.11429,2.8772 -10.00295,6.33399 -18.23175,9.14884 -8.09216,2.76811 -26.42129,3.63007 -36.078627,1.69665 z M 153.9831,279.19635 c 0,-1.27054 -0.4619,-0.70323 -1.91971,2.3578 -1.12265,2.35727 -1.10183,2.38918 0.36454,0.55887 0.85535,-1.06762 1.55517,-2.38012 1.55517,-2.91667 z m 3,-6.76023 c 0,-0.55 -0.45,-0.72189 -1,-0.38197 -0.55,0.33992 -1,1.06803 -1,1.61803 0,0.55 0.45,0.72189 1,0.38197 0.55,-0.33992 1,-1.06803 1,-1.61803 z M 40.666217,258.36665 c -0.319226,-0.79773 -0.556183,-0.56078 -0.604167,0.60417 -0.04342,1.05416 0.192928,1.64479 0.52522,1.3125 0.332291,-0.3323 0.367818,-1.1948 0.07895,-1.91667 z m 43.316886,-0.25348 c 0,-0.24254 -0.45,-0.7191 -1,-1.05902 -0.55,-0.33992 -1,-0.14148 -1,0.44098 0,0.58246 0.45,1.05902 1,1.05902 0.55,0 1,-0.19844 1,-0.44098 z M 152.9831,239.74528 c 0,-0.44488 -0.68231,-1.68238 -1.51625,-2.75 -1.406,-1.79999 -1.43069,-1.74117 -0.33949,0.80887 1.17741,2.75149 1.85574,3.46104 1.85574,1.94113 z M 44.06205,236.97082 c 0.04798,-1.16495 0.284941,-1.4019 0.604167,-0.60417 0.288871,0.72187 0.253344,1.58437 -0.07895,1.91667 -0.332292,0.33229 -0.568641,-0.25834 -0.52522,-1.3125 z"
             id="path1477"
             inkscape:connector-curvature="0"
             sodipodi:nodetypes="ccsscsssssccccccccscsscsscsscsssssscscscssscsccccscscscscccscscscscsscsssccscscssscccssccccccccscscsccscsscssscccssscscscsssccccccsccccccccccsssccscccscssccsssccsccsssssscscccssssssccsccccc" />
          <path
             style="fill:#00ffff"
             d="m 103.9513,396.30415 c -0.0307,-2.17371 -0.0807,-2.18546 -1.47249,-0.3465 -1.2957,1.71195 -1.5043,1.73768 -2.07298,0.25574 -0.34776,-0.90626 -0.982917,-1.43106 -1.411457,-1.16621 -0.74115,0.45806 -2.17313,-2.47917 -3.47514,-7.12812 -1.17951,-4.21155 8.732927,-9.68384 14.325777,-7.90874 1.11968,0.35537 2.3162,1.52965 2.65893,2.6095 0.34274,1.07986 1.06573,1.68985 1.60665,1.35554 0.61049,-0.37731 0.86764,1.37965 0.67801,4.63248 -0.23068,3.95682 -0.78501,5.51048 -2.26327,6.34332 -1.07677,0.60664 -2.57141,1.66549 -3.32143,2.35299 -2.28655,2.09597 -5.21673,1.53811 -5.2526,-1 z m 24.39588,-4.91959 c -2.35018,-1.13798 -4.36408,-4.80354 -4.36408,-7.9432 0,-7.73844 11.33459,-11.47162 16.82588,-5.54181 5.33511,5.76117 1.32122,14.72693 -6.53043,14.58692 -2.0875,-0.0372 -4.75661,-0.53308 -5.93137,-1.10191 z m -55.631253,-2.32271 c -3.122807,-4.29313 -3.280476,-8.05096 -0.456294,-10.87514 2.99397,-2.99397 9.31426,-4.48773 11.04817,-2.61116 0.90673,0.98134 0.88966,1.11075 -0.0747,0.56629 -0.6875,-0.38815 -1.25,-0.22917 -1.25,0.35329 0,0.58246 0.8632,1.05902 1.91821,1.05902 3.74453,0 5.0821,1.15026 5.06648,4.35699 -0.013,2.65698 -1.92485,7.78507 -1.96938,5.28223 -0.008,-0.47344 -0.90034,0.20156 -1.98204,1.5 -1.0817,1.29843 -1.9817,1.79113 -2,1.0949 -0.0439,-1.66988 -5.81506,-1.24514 -6.47576,0.4766 -0.72368,1.8859 -1.83122,1.53753 -3.824686,-1.20302 z m 82.624173,-3.49928 c -5.73468,-2.31423 -7.21753,-10.65727 -2.607,-14.66792 3.34385,-2.90877 6.34633,-3.77123 10.34483,-2.97153 3.64575,0.72915 5.64516,2.58672 7.01558,6.5179 2.55101,7.31783 -6.76911,14.34361 -14.75341,11.12155 z M 51.875604,382.19864 c 1.872184,-2.27596 0.571997,-3.37352 -1.63637,-1.38136 -2.311459,2.08517 -4.730608,0.40604 -5.686726,-3.94713 -0.923998,-4.20694 2.686562,-9.91719 6.789424,-10.73777 5.130317,-1.02606 6.977703,-0.62999 9.836452,2.10886 4.095281,3.92353 3.713678,11.06293 -0.625355,11.69977 -0.951424,0.13964 -2.053746,0.77794 -2.449605,1.41846 -0.395858,0.64051 -2.272373,1.47223 -4.170032,1.84828 -3.157359,0.62566 -3.332065,0.53999 -2.057788,-1.00911 z m 127.422066,-9.56605 c -3.05293,-2.84423 -3.90443,-8.76077 -1.62871,-11.31684 4.00317,-4.49633 12.9421,-5.99648 11.68148,-1.96041 -0.46628,1.49286 -0.35051,1.4794 0.95502,-0.11103 1.59,-1.93698 1.78184,-1.7993 4.42237,3.17415 1.4524,2.7356 1.65849,6.13569 0.3719,6.13569 -0.48585,0 -1.11731,0.89458 -1.40323,1.98796 -1.05174,4.02187 -10.8057,5.43799 -14.39883,2.09048 z M 24.253527,366.00188 c -6.529037,-2.90469 -5.554953,-13.86826 1.469439,-16.53893 4.804608,-1.8267 12.260137,-0.49019 12.260137,2.19781 0,0.56994 -0.707143,0.3291 -1.571429,-0.53518 -2.589265,-2.58927 -2.966188,-1.7726 -0.428571,0.92857 2.383885,2.53753 4.70919,3.45651 3.404508,1.34549 -0.442079,-0.7153 -0.274316,-0.88306 0.440984,-0.44098 1.479621,0.91445 1.478413,4.11555 -0.0026,6.91123 -1.342382,2.53398 -5.882958,6.67498 -7.342884,6.69669 -0.55,0.008 -1.9,0.20775 -3,0.44349 -1.1,0.23574 -3.453309,-0.21795 -5.229576,-1.00819 z M 204.4831,357.60965 c -5.85073,-2.39716 -7.9582,-11.69268 -3.42602,-15.1113 9.73191,-7.34079 22.28062,2.85784 14.45762,11.75004 -1.35762,1.54317 -2.48262,2.24326 -2.5,1.55576 -0.0174,-0.6875 -0.52974,-1.25 -1.13859,-1.25 -0.60884,0 -0.84797,0.675 -0.53138,1.5 0.34112,0.88896 0.0107,1.5 -0.81123,1.5 -0.76275,0 -1.98613,0.19686 -2.71861,0.43747 -0.73249,0.24061 -2.23179,0.0687 -3.33179,-0.38197 z M 8.755105,340.76579 c -6.040951,-0.75343 -8.994103,-9.83907 -4.522002,-13.91236 5.318963,-4.84463 11.590794,-5.39445 11.224897,-0.98402 -0.09969,1.20161 1.101834,3.82343 2.670049,5.82627 2.750501,3.5128 2.7895,3.71656 1.103177,5.76379 -1.979863,2.40359 -6.43652,3.81013 -10.476121,3.30632 z M 218.85167,333.0443 c -3.27379,-1.7788 -3.91998,-3.39851 -3.17857,-7.96727 1.06809,-6.58188 7.79563,-9.39159 14.35966,-5.9972 2.95411,1.52763 3.30351,2.399 3.1879,7.95043 -0.12738,6.11712 -8.06492,9.43932 -14.36899,6.01404 z M -5.516897,316.99222 c -4.600057,-2.32516 -6.327795,-5.31621 -5.304355,-9.18287 1.636077,-6.18127 10.342785,-9.14418 15.687417,-5.33847 2.04636,1.45714 2.824249,2.68243 2.401827,3.78324 -0.394067,1.02693 -0.225075,1.3811 0.457657,0.95915 0.67622,-0.41793 0.986258,0.17723 0.826167,1.58595 -0.548839,4.82949 -1.825136,6.83523 -5.263617,8.27192 -4.369962,1.82589 -5.048694,1.8198 -8.805096,-0.0789 z m 237.293487,-7.4487 c -4.83885,-0.86215 -7.86008,-4.42506 -7.53845,-8.89003 0.31088,-4.31584 3.9141,-7.13865 9.98582,-7.82302 3.75455,-0.42319 4.81237,-0.13555 6.61424,1.79852 2.32358,2.49407 2.8553,7.72925 1.11526,10.98055 -1.60656,3.00187 -5.961,4.68513 -10.17687,3.93398 z M -14.516897,290.70447 c -4.006586,-1.30278 -5.276109,-2.72919 -5.929106,-6.6618 -0.59673,-3.59374 -0.33638,-4.34871 2.500164,-7.25 1.741441,-1.78118 4.012861,-3.28852 5.047599,-3.34963 1.034739,-0.0611 2.760549,-0.16111 3.835134,-0.22222 1.074585,-0.0611 3.324585,0.90236 5,2.14105 2.461248,1.81967 3.040102,2.96652 3.014406,5.97222 -0.03918,4.58345 -1.605501,6.75274 -6.288563,8.70945 -3.885067,1.62329 -4.146097,1.64731 -7.179634,0.66093 z M 236.9831,283.85009 c -2.94258,-1.07141 -6,-5.58003 -6,-8.84789 0,-2.45792 0.85396,-3.99065 3.5348,-6.34446 4.42534,-3.8855 8.38055,-4.03267 13.03192,-0.4849 3.70057,2.82256 4.17472,4.95598 2.29796,10.33966 -1.56448,4.48785 -7.93696,7.13181 -12.86468,5.33759 z M -17.621674,260.0837 c -5.160484,-2.17883 -6.013725,-9.60474 -1.590504,-13.84246 3.722777,-3.56665 11.057303,-3.82494 14.156326,-0.49853 2.961232,3.17851 2.66077,8.12062 -0.711045,11.69552 -3.279013,3.47652 -7.601732,4.44116 -11.854777,2.64547 z m 257.033194,-6.61246 c -3.13157,-0.89903 -4.79528,-3.22244 -5.88129,-8.21335 -1.30822,-6.01211 9.4989,-11.9399 15.35434,-8.42197 3.6587,2.19812 4.71573,5.71484 3.21913,10.71002 -1.55014,5.17393 -6.78948,7.61989 -12.69218,5.9253 z M -14.216338,233.4274 c -5.332542,-3.88448 -4.463682,-12.06423 1.685132,-15.86441 3.868637,-2.39095 6.086434,-2.50339 10.7709,-0.5461 5.09017,2.12681 6.591887,6.64741 4.013487,12.08175 -2.547384,5.36897 -11.728772,7.78216 -16.469519,4.32876 z m 248.202878,-7.63189 c -9.73937,-4.87965 -6.82982,-16.7176 4.42055,-17.98568 3.15826,-0.35598 4.57601,-0.14739 4.57601,0.67328 0,0.65399 0.40803,0.9369 0.90674,0.62868 0.49871,-0.30822 0.70717,0.22772 0.46325,1.19098 -0.24393,0.96326 0.45592,3.50045 1.55521,5.6382 2.21311,4.30374 1.73018,6.30084 -2.13459,8.82743 -3.97442,2.59828 -6.18767,2.83055 -9.78717,1.02711 z m 12.56085,-13.94823 c -0.54268,-1.4252 -0.42782,-1.54006 0.5598,-0.5598 0.68342,0.67834 0.99067,1.48524 0.68278,1.79313 -0.30789,0.30789 -0.86705,-0.24711 -1.24258,-1.23333 z M -4.703075,206.60392 c -4.53999,-2.76823 -5.387328,-4.8467 -3.689351,-9.04977 1.467527,-3.63263 7.336607,-8.26541 9.586484,-7.56712 0.708975,0.22004 2.51409,0.66811 4.011368,0.9957 3.463401,0.75777 6.777677,4.28489 6.777677,7.21293 0,8.42939 -9.117014,13.02351 -16.686178,8.40826 z m 13.686178,-9.49075 c 0,-0.24254 -0.45,-0.7191 -1,-1.05902 -0.55,-0.33992 -1,-0.14148 -1,0.44098 0,0.58246 0.45,1.05902 1,1.05902 0.55,0 1,-0.19844 1,-0.44098 z m 210.208587,3.42164 c -3.10636,-1.88909 -4.84414,-6.44198 -4.04422,-10.59563 0.53263,-2.76576 6.62408,-6.38503 10.74638,-6.38503 2.78705,0 3.84315,0.51532 4.61119,2.25 0.63973,1.4449 1.7086,2.14562 2.98713,1.9583 1.52793,-0.22386 1.66635,-0.0729 0.59521,0.64908 -0.89018,0.60002 -1.12296,1.61118 -0.64266,2.7917 0.71817,1.7652 0.79114,1.75829 1.57543,-0.14908 0.45231,-1.1 0.85401,-1.42305 0.89266,-0.71788 0.14735,2.68779 -2.76812,7.88198 -5.38741,9.59821 -3.91248,2.56355 -7.7695,2.76785 -11.33371,0.60033 z M 12.340102,183.60913 c -3.04352,-1.29434 -5.356999,-4.98891 -5.356999,-8.55498 0,-3.50012 2.430167,-7.5 4.556704,-7.5 0.793813,0 1.443955,-0.3375 1.444761,-0.75 8.06e-4,-0.4125 1.754522,-0.86997 3.897147,-1.01659 3.322497,-0.22737 4.294051,0.20684 6.603225,2.95114 4.928057,5.85667 1.843423,14.35948 -5.561617,15.33063 -1.892121,0.24815 -4.404571,0.0411 -5.583221,-0.4602 z M 206.47318,179.5381 c -0.30477,-0.49313 -1.19142,-0.65205 -1.97033,-0.35316 -0.77891,0.2989 -2.74917,-0.24395 -4.37835,-1.20633 -5.29419,-3.12736 -4.55309,-10.3568 1.37306,-13.39423 1.64205,-0.84163 3.27376,-1.92706 3.62603,-2.41206 1.78459,-2.45702 14.04909,3.64803 12.46798,6.20632 -0.27726,0.44861 -0.73279,2.07682 -1.01231,3.61825 -0.27951,1.54142 -1.24668,3.6186 -2.14927,4.61594 -2.03971,2.25385 -7.1994,4.15078 -7.95681,2.92527 z M 27.896193,159.41353 c -7.425766,-7.81272 6.567725,-18.87889 14.535388,-11.49471 4.286478,3.97257 3.108477,10.26172 -2.461612,13.14212 -4.290561,2.21874 -9.011338,1.57461 -12.073776,-1.64741 z m 155.415647,1.68286 c -5.13839,-2.23517 -6.91356,-7.83458 -3.86405,-12.18837 0.80559,-1.15013 1.25559,-2.37526 1,-2.72251 -0.25558,-0.34725 -0.16371,-0.40538 0.20416,-0.12918 0.36787,0.2762 1.48039,-0.23225 2.47227,-1.12989 1.36035,-1.2311 3.0744,-1.50995 6.97667,-1.13499 5.69163,0.54689 8.8189,3.24521 8.85997,7.64467 0.0339,3.6305 -3.66223,8.81238 -7.15388,10.02958 -3.90546,1.36145 -4.58414,1.33195 -8.49514,-0.36931 z m 8.17126,-3.54224 c 0.33992,-0.55 0.14148,-1 -0.44098,-1 -0.58246,0 -1.05902,0.45 -1.05902,1 0,0.55 0.19844,1 0.44098,1 0.24254,0 0.7191,-0.45 1.05902,-1 z M 49.983103,147.31849 c -1.578138,-0.82947 -2.836433,-2.66652 -3.412374,-4.98189 -0.800227,-3.21705 -0.579593,-4.1042 1.794968,-7.21741 1.489038,-1.95223 3.812106,-3.82679 5.162374,-4.16568 5.200453,-1.30523 11.038449,2.19878 12.034876,7.22344 1.329487,6.70416 -8.851555,12.67793 -15.579844,9.14154 z m 109.836177,-5.01931 c -3.51369,-2.9613 -4.33203,-6.05863 -2.38559,-9.02927 0.85603,-1.30648 1.32985,-2.67699 1.05292,-3.04559 -0.27693,-0.36859 -0.21825,-0.45991 0.1304,-0.20293 0.34865,0.25699 1.75934,-0.41801 3.13486,-1.5 3.69947,-2.91 7.83019,-2.52212 11.42514,1.07282 2.55534,2.55535 2.93808,3.55188 2.40043,6.25 -0.3518,1.76547 -1.08224,3.36088 -1.62322,3.54535 -0.54097,0.18448 -0.71072,0.77692 -0.37721,1.31653 1.03324,1.67183 -2.89651,3.78313 -7.09391,3.81129 -2.71663,0.0182 -4.85466,-0.69346 -6.66382,-2.2182 z m -85.062747,-5.49503 c -6.985034,-7.38588 -0.48067,-16.98265 10.22657,-15.08863 4.76659,0.84316 8,3.67202 8,6.99907 0,3.44018 -2.82295,7.52766 -6.35708,9.20471 -5.13056,2.43462 -8.84216,2.08591 -11.86949,-1.11515 z m 58.726567,-0.45782 c -3.20158,-1.8361 -4.43417,-4.03458 -4.4682,-7.9696 -0.037,-4.28377 3.0938,-7.38031 8.48459,-8.39163 4.02545,-0.75518 9.04223,1.42858 8.84651,3.85082 -0.0754,0.93319 0.2621,1.44999 0.75,1.14845 0.48791,-0.30154 0.8871,1.01878 0.8871,2.93404 0,5.18764 -4.1014,9.64468 -8.83889,9.60533 -2.01361,-0.0167 -4.56111,-0.54656 -5.66111,-1.17741 z m -25.56759,-3.03428 c -3.95294,-0.96431 -6.93241,-4.88715 -6.93241,-9.1274 0,-1.43849 1.36027,-4.11017 3.10359,-6.0957 2.65325,-3.02188 3.73041,-3.5348 7.42328,-3.5348 3.22584,0 5.12602,0.67849 7.50401,2.67944 2.86169,2.40796 3.12961,3.09185 2.6443,6.75 -0.39247,2.95835 -1.40703,4.79763 -3.7132,6.73154 -3.9253,3.2917 -5.5049,3.7007 -10.02957,2.59692 z"
             id="path1475"
             inkscape:connector-curvature="0"
             sodipodi:nodetypes="ccccscccccccssccssscssscccccsscsssscsccsccscscsssccccscsscccsccccscscscccsccsccsscccscccssccscsccscsccccssccssscccsscccsccccscsccsssccccccscssccsssssssccscscccccccssscsccccsccccccsscssccsssccssssssscscssscccccccccsscscsccsccsccsssssscs" />
        </g>
      </g>
    </g>
  </g>
</svg>
