<?xml version="1.0" encoding="UTF-8" standalone="no"?>
<!-- Created with Inkscape (http://www.inkscape.org/) -->

<svg
   xmlns:dc="http://purl.org/dc/elements/1.1/"
   xmlns:cc="http://creativecommons.org/ns#"
   xmlns:rdf="http://www.w3.org/1999/02/22-rdf-syntax-ns#"
   xmlns:svg="http://www.w3.org/2000/svg"
   xmlns="http://www.w3.org/2000/svg"
   xmlns:sodipodi="http://sodipodi.sourceforge.net/DTD/sodipodi-0.dtd"
   xmlns:inkscape="http://www.inkscape.org/namespaces/inkscape"
   version="1.1"
   id="svg2949"
   width="283"
   height="443"
   viewBox="0 0 283 443"
   sodipodi:docname="feu133.svg"
   inkscape:version="0.92.4 (5da689c313, 2019-01-14)">
  <metadata
     id="metadata2955">
    <rdf:RDF>
      <cc:Work
         rdf:about="">
        <dc:format>image/svg+xml</dc:format>
        <dc:type
           rdf:resource="http://purl.org/dc/dcmitype/StillImage" />
        <dc:title></dc:title>
      </cc:Work>
    </rdf:RDF>
  </metadata>
  <defs
     id="defs2953" />
  <sodipodi:namedview
     pagecolor="#ffffff"
     bordercolor="#666666"
     borderopacity="1"
     objecttolerance="10"
     gridtolerance="10"
     guidetolerance="10"
     inkscape:pageopacity="0"
     inkscape:pageshadow="2"
     inkscape:window-width="1280"
     inkscape:window-height="972"
     id="namedview2951"
     showgrid="false"
     inkscape:zoom="1.5067919"
     inkscape:cx="144.21902"
     inkscape:cy="267.49357"
     inkscape:window-x="-8"
     inkscape:window-y="-8"
     inkscape:window-maximized="1"
     inkscape:current-layer="g928"
     showguides="true" />
  <g
     id="g151"
     transform="translate(25.882805,-2.654647)">
    <g
       id="g534"
       transform="translate(-21.900834,-45.792654)">
      <g
         id="g928"
         transform="translate(-3.9819699,-1.3273232)">
        <g
           id="g1042"
           transform="translate(1.990985,-1.9909849)">
          <path
             style="fill:#00ff00"
             d="m 177.10757,431.33551 c -3.15111,-1.66203 -4.04641,-5.38661 -2.31176,-9.61721 1.97925,-4.82713 0.3033,-6.54755 -5.69263,-5.84368 -2.49635,0.29305 -5.66381,0.86921 -7.03881,1.28036 -2.23998,0.66978 -2.35871,0.57524 -1.1416,-0.90897 1.23189,-1.50221 0.93373,-1.63801 -3.2013,-1.45805 -2.50784,0.10915 -4.9032,-0.14505 -5.32303,-0.56488 -1.2726,-1.2726 1.10473,-4.03165 5.67312,-6.58407 5.21502,-2.91368 13.81985,-3.27496 18.62163,-0.78182 3.58141,1.85951 4.36524,3.384 4.38592,8.53028 0.0224,5.56065 2.03118,8.70979 5.40015,8.46555 1.53747,-0.11146 3.40877,-1.01146 4.15845,-2 1.83768,-2.42319 1.77561,-10.06203 -0.12531,-15.42161 -2.46091,-6.93844 -2.11148,-13.31712 0.94935,-17.33007 2.39894,-3.14518 2.54838,-3.93529 2.02759,-10.72054 -0.66599,-8.67702 0.89163,-12.02095 7.69731,-16.52474 3.80417,-2.51748 5.20296,-2.81398 14.83015,-3.14349 10.3437,-0.35405 10.67165,-0.43677 12.1849,-3.07345 2.3512,-4.09674 7.53156,-6.08344 15.86267,-6.08344 8.75969,0 13.24198,-1.88281 15.42273,-6.4784 0.8675,-1.82812 1.57727,-3.78382 1.57727,-4.346 0,-1.57623 5.0206,-7.1756 6.43391,-7.1756 2.1067,0 4.56245,-3.48976 4.62948,-6.57874 0.0623,-2.87338 0.0791,-2.88201 1.02139,-0.52633 1.35967,3.39907 0.34514,5.66533 -4.15516,9.28187 -3.41203,2.74198 -3.93049,3.69567 -3.93621,7.24056 -0.0143,8.85811 -5.67047,13.10494 -18.33951,13.7699 -6.94706,0.36462 -9.14731,0.8617 -10.70379,2.41819 -1.94563,1.94563 -1.924,1.96075 3.11744,2.18011 6.62789,0.28838 14.19476,3.61023 17.93973,7.87551 2.36238,2.6906 2.99272,4.3436 2.99272,7.84805 0,3.91857 -0.35103,4.62104 -2.99146,5.98646 -9.23915,4.77775 -23.24686,-0.0954 -28.54306,-9.92981 l -1.92029,-3.56577 h -7.15047 c -10.37196,0 -17.39472,3.66083 -17.39472,9.06752 0,2.57209 3.18527,4.82107 5.5,3.88331 1.1,-0.44564 5.34542,-0.84189 9.43428,-0.88054 5.55335,-0.0525 8.46292,0.44035 11.5,1.94801 6.24749,3.10137 7.67268,4.52206 8.58231,8.55525 0.75035,3.32695 0.53597,4.02774 -2.01144,6.57515 -2.2644,2.2644 -3.74194,2.84808 -7.17823,2.83568 -5.99192,-0.0216 -14.93747,-2.26204 -19.29317,-4.83196 -5.20489,-3.07097 -7.26909,-2.77528 -9.22251,1.32109 -1.7836,3.74026 -1.64555,4.28876 2.86615,11.3872 2.75235,4.3304 2.7267,10.94037 -0.06,15.44929 -3.90723,6.32203 -19.29288,11.51915 -25.07423,8.46983 z m 47.6339,-42.38075 c 0.33788,-0.88051 -0.0137,-1.99862 -0.78138,-2.48469 -1.82948,-1.15842 -12.89572,-1.17673 -12.89572,-0.0213 0,1.25481 6.94337,3.99358 10.28138,4.05542 1.66378,0.0308 3.02824,-0.59175 3.39572,-1.54939 z m 22.07585,-17.14293 c 0.45366,-1.3776 -2.26569,-2.61283 -8.10138,-3.67997 -4.49723,-0.82238 -4.23678,0.47415 0.70754,3.52221 3.38638,2.08763 6.7348,2.15907 7.39384,0.15776 z M 83.273568,422.56434 c -7.67666,-3.48411 -8.940449,-5.91531 -9.868058,-18.98354 -0.426397,-6.0071 -1.168175,-9.47009 -2.369721,-11.06302 -1.71566,-2.2745 -1.832254,-2.28817 -6.110225,-0.71669 -7.115583,2.61385 -9.963685,2.84074 -17.969716,1.43151 -8.744129,-1.53914 -13.443225,-4.35957 -14.38159,-8.63192 -0.928505,-4.22745 0.718457,-6.46675 6.624954,-9.00766 7.174113,-3.08622 16.169413,-2.59095 24.187048,1.33172 5.147417,2.51839 6.111893,2.6939 8.764883,1.595 6.549568,-2.71292 9.082451,-10.93663 4.976259,-16.1568 -1.915048,-2.43459 -10.65476,-7.68575 -11.279651,-6.77725 -0.177801,0.25849 -1.310825,2.58665 -2.51783,5.17368 -2.874234,6.16048 -6.233463,8.29631 -13.048407,8.29631 -4.924905,0 -5.655028,-0.31013 -8.793979,-3.73531 -3.814966,-4.16285 -4.619247,-9.42575 -1.861841,-12.18315 1.363837,-1.36384 7.734737,-3.58886 13.93868,-4.86806 3.580063,-0.73817 -4.900149,-3.70926 -10.717881,-3.75507 -7.673902,-0.0604 -14.801055,-2.87367 -17.532119,-6.92032 -1.988692,-2.94667 -3.145677,-9.03809 -1.716667,-9.03809 0.293334,0 2.135505,1.60217 4.093715,3.56038 4.330028,4.33003 6.471784,5.19841 17.372952,7.0439 11.078511,1.87552 16.391038,3.88935 17.951377,6.80487 0.954978,1.78439 2.73365,2.67515 7.259631,3.63563 4.495908,0.9541 7.345341,2.37236 11.396588,5.67248 6.448472,5.25289 8.392404,8.65461 8.392404,14.68603 0,6.1777 -1.467465,8.88674 -6.873778,12.68949 -2.544422,1.78972 -4.784993,3.37227 -4.979046,3.51678 -0.194053,0.14452 0.776009,2.65398 2.155694,5.5766 1.379684,2.92261 2.834874,7.56384 3.233756,10.31384 1.057714,7.29216 3.226333,12.07097 6.06467,13.3642 7.168409,3.26615 12.66955,-1.50351 6.935888,-6.01361 -1.386794,-1.09085 -2.754144,-3.49016 -3.129612,-5.49158 -0.555676,-2.96201 -0.254005,-3.96712 1.810234,-6.03136 1.488854,-1.48886 4.094713,-2.69401 6.53202,-3.02092 3.57665,-0.47973 4.49694,-0.14652 7.80146,2.82469 6.71568,6.0383 9.45017,9.05721 8.9447,9.87507 -0.81584,1.32006 -8.79565,-0.15216 -11.65036,-2.1494 -5.00337,-3.50053 -8.176834,-1.27678 -3.81334,2.67213 3.48643,3.15518 6.1626,8.28137 5.4672,10.4724 -1.77352,5.58785 -16.623214,7.94066 -25.290292,4.00704 z m -25.90869,-38.90916 c 1.973821,-1.97382 -1.245227,-3.25394 -6.723929,-2.6739 -5.609117,0.59384 -7.894891,2.09641 -5.568216,3.66029 1.903329,1.27933 10.735136,0.57062 12.292145,-0.98639 z M 53.429515,358.4831 c 3.254769,-2.5602 3.426453,-4.92742 0.357365,-4.92742 -2.235335,0 -6.557766,2.40232 -7.906523,4.39429 -2.105201,3.10915 3.74871,3.52256 7.549158,0.53313 z m 79.064365,-14.06373 c -1.47254,-2.84759 -1.62262,-5.13445 -1.06282,-16.19509 0.70108,-13.85222 2.01722,-19.09172 3.04935,-12.13933 0.32421,2.1839 1.09127,6.44573 1.70457,9.47073 0.6133,3.025 1.33162,8.42743 1.59626,12.0054 0.41617,5.62646 0.20733,6.75323 -1.54575,8.33974 -1.98723,1.79842 -2.06053,1.76939 -3.74161,-1.48145 z m 22.79945,0.46702 c -2.89213,-1.16364 -4.22407,-6.38949 -4.86718,-19.09627 -0.86108,-17.01347 0.2111,-19.23186 4.40025,-9.10425 6.21594,15.02752 7.54019,22.56561 4.68127,26.6473 -1.59716,2.28027 -2.01999,2.4361 -4.21434,1.55322 z m -48.02896,-3.53071 c -0.66,-0.66 -1.2,-2.49316 -1.2,-4.07368 0,-5.98115 9.96289,-31.21342 11.4039,-28.88182 1.29996,2.10338 0.68201,18.47291 -0.92965,24.62625 -2.21568,8.45952 -5.86579,11.73771 -9.27425,8.32925 z m 69.57767,-4.50267 c -2.58555,-2.87217 -6.04475,-14.32171 -8.20854,-27.16927 -0.848,-5.03498 1.30529,-2.73458 7.68212,8.20696 6.46048,11.08509 8.01643,14.74267 7.58074,17.82004 -0.42667,3.01369 -4.74079,3.71226 -7.05432,1.14227 z m -93.110999,-2.964 c -2.522745,-2.52274 2.597545,-13.49598 12.987486,-27.83333 l 3.623373,-5 -0.647547,4.23105 c -0.78339,5.11859 -5.735237,20.63803 -7.9542,24.92903 -1.950248,3.77136 -6.036779,5.64559 -8.009112,3.67325 z m 111.020839,-9.58333 c -3.43332,-5.27138 -10.39076,-23.38008 -9.37354,-24.3973 0.62004,-0.62004 6.61204,5.69324 6.65672,7.01364 0.0161,0.47649 2.53976,3.57793 5.60808,6.89208 6.10005,6.58878 7.83729,9.94773 6.95764,13.45255 -0.43503,1.73327 -1.28529,2.28903 -3.50201,2.28903 -2.4307,0 -3.50776,-0.89091 -6.34689,-5.25 z m -52.4611,-1 c -2.19869,-2.6985 -3.21038,-9.79089 -3.10252,-21.75 0.062,-6.875 0.4033,-13.85 0.75843,-15.5 l 0.6457,-3 1.69418,4.5 c 0.93179,2.475 1.96994,6.975 2.30699,10 0.33704,3.025 0.79032,6.85 1.00728,8.5 1.49933,11.40247 1.59786,14.38049 0.54111,16.35504 -1.30764,2.44334 -2.38549,2.69382 -3.85117,0.89496 z m -20.0739,-2.31462 c -0.93741,-2.05739 -0.76387,-4.67797 0.87741,-13.25 2.51225,-13.12085 5.04675,-23.11473 6.01354,-23.71224 1.11048,-0.68632 -0.0455,33.64638 -1.23829,36.77686 -1.31817,3.45958 -4.11898,3.55143 -5.65266,0.18538 z m -57.485839,0.89795 c -1.724339,-1.72433 -0.3949,-6.19622 3.083333,-10.37153 3.936497,-4.72542 12.529166,-13.50478 15.486865,-15.82334 1.611318,-1.26313 1.659129,-1.11856 0.661434,2 -2.816552,8.80388 -10.824848,21.25508 -15.088967,23.46014 -3.111577,1.60906 -3.244726,1.63267 -4.142665,0.73473 z m 95.848259,-2.6702 c -2.28833,-3.49243 -7.57397,-24.46044 -7.49269,-29.72333 0.0223,-1.44381 3.91016,2.78648 3.95552,4.30393 0.0122,0.40905 2.07151,5.30338 4.57618,10.87629 2.99543,6.66487 4.44992,11.19879 4.25,13.24808 -0.38648,3.96159 -3.10558,4.62737 -5.28901,1.29503 z m -58.31493,0.13687 c -3.215202,-3.21521 0.93322,-16.18088 10.25778,-32.06011 2.17677,-3.70694 4.34665,-6.73989 4.82195,-6.73989 1.30284,0 -0.24138,10.76021 -2.43971,17 -1.06573,3.025 -2.29534,6.86059 -2.73246,8.52353 -0.43713,1.66293 -1.31516,3.99585 -1.95117,5.18425 -0.63601,1.18841 -1.15639,3.0648 -1.15639,4.16977 0,1.10498 -1.00013,2.70956 -2.22251,3.56575 -2.67197,1.87152 -3.03443,1.89976 -4.57749,0.3567 z m 79.06838,-4.22762 c -1.58678,-1.3352 -4.60987,-6.1727 -6.71796,-10.75 -2.10809,-4.57731 -5.08815,-11.02238 -6.62236,-14.32238 -4.01465,-8.63534 -5.11562,-11.73395 -3.90286,-10.98442 1.11932,0.69177 8.9748,11.10027 8.9748,11.89159 0,0.83844 5.87096,9.24085 7.26544,10.39816 2.1977,1.82393 7.05927,12.90611 6.40717,14.60545 -0.83799,2.18376 -2.0329,1.99838 -5.40423,-0.8384 z m 40.50021,-0.57157 c -1.50227,-0.44984 -4.09402,-1.87155 -5.75943,-3.15935 -3.73147,-2.8854 -17.00916,-21.10643 -17.00916,-23.34175 0,-2.32943 10.46094,5.11697 20.27155,14.42988 6.24656,5.92967 7.76625,7.93294 7.52754,9.92288 -0.34637,2.88741 -1.25974,3.27748 -5.0305,2.14834 z M 83.622428,307.93096 c -0.737943,-2.9402 0.537763,-5.17352 11.210244,-19.62528 6.235018,-8.44293 9.050828,-10.90622 7.737738,-6.76902 -2.47312,7.79211 -9.943348,23.86604 -12.173239,26.19354 -3.412751,3.56215 -5.912497,3.63622 -6.774743,0.20076 z m -35.557304,0.12562 c -2.021589,-2.43586 0.488163,-6.80795 7.382776,-12.86108 9.383251,-8.23804 15.482354,-12.66585 16.090718,-11.68149 1.175988,1.90278 -9.498477,17.22173 -15.943485,22.88052 -4.000672,3.51264 -5.685523,3.88452 -7.530009,1.66205 z m 147.571146,-4.57192 c -5.81509,-5.10571 -18.58538,-24.24883 -17.1403,-25.69391 0.97159,-0.97159 18.15065,16.47179 21.20106,21.52727 2.43553,4.03642 2.62727,7.23766 0.43352,7.23766 -0.54812,0 -2.57055,-1.38196 -4.49428,-3.07102 z m -63.1698,-2.46303 c -0.69865,-2.78363 1.40625,-18.22947 2.58339,-18.95698 0.76558,-0.47316 2.01451,9.09774 2.01451,15.43772 0,5.6105 -3.41667,8.22564 -4.5979,3.51926 z m 14.91887,-1.14398 c -1.58053,-3.68988 -2.97072,-17.83887 -2.14778,-21.85947 0.33411,-1.63233 0.83609,-1.28954 2.98365,2.0375 2.2424,3.47394 2.60771,5.20346 2.7777,13.15073 0.22148,10.35446 -1.03906,12.68162 -3.61357,6.67124 z m -28.96301,-2.07197 c 0.271,-0.9625 0.7804,-3.325 1.132,-5.25 1.00214,-5.48673 3.80812,-13 4.85511,-13 0.98306,0 0.18451,15.45635 -0.95149,18.41674 -0.33416,0.87079 -1.71474,1.58326 -3.06796,1.58326 -1.86427,0 -2.34101,-0.424 -1.96766,-1.75 z m -50.357956,-2.0224 c 0,-2.25176 1.831028,-4.3889 9.75,-11.38001 12.429819,-10.97342 15.887977,-13.84759 16.661202,-13.84759 1.483248,0 -4.764819,10.23806 -10.840458,17.76314 -7.056399,8.73981 -8.958261,10.23686 -13.005003,10.23686 -2.13735,0 -2.565741,-0.4629 -2.565741,-2.7724 z m 95.122946,0.20158 c -2.06931,-2.63071 -5.15154,-11.7696 -5.08699,-15.08309 0.0294,-1.50789 0.47301,-1.3115 2.4216,1.072 3.75867,4.59759 7.90662,13.19048 7.22489,14.96706 -0.87887,2.29028 -2.2286,2.00729 -4.5595,-0.95597 z m 71.91958,0.32047 c -5.37892,-2.7147 -24.1213,-20.79246 -22.26002,-21.47067 0.70538,-0.25703 5.31434,1.82506 10.24213,4.62685 4.92778,2.80179 9.30065,5.09708 9.71748,5.10063 0.41684,0.004 2.91987,1.85949 5.56231,4.12432 3.80344,3.25993 4.74099,4.66314 4.5,6.735 -0.39746,3.41691 -2.31112,3.63483 -7.7619,0.88387 z m -133.04253,-4.07821 c 0,-3.5391 3.35318,-9.19291 9.59101,-16.17144 l 3.57544,-4 -0.67396,4 c -0.37067,2.2 -1.76808,6.31448 -3.10535,9.14328 -4.78068,10.11281 -9.38714,13.56168 -9.38714,7.02816 z m -69.66284,-1.23521 c -1.107692,-2.8866 1.515919,-6.28078 8.863867,-11.46726 7.878039,-5.56063 20.671262,-12.43002 21.53692,-11.56436 1.358639,1.35864 -9.602965,13.03658 -19.737943,21.02782 -4.815034,3.79656 -9.627833,4.701 -10.662844,2.0038 z m 142.9097,-2.18623 c -3.7801,-3.53469 -9.08808,-13.74211 -7.81044,-15.01975 1.51682,-1.51682 15.29053,15.78451 14.09987,17.71103 -1.05256,1.70307 -2.04341,1.27908 -6.28943,-2.69128 z m 34.41175,0 c -6.91841,-4.68037 -24.65861,-21.84401 -24.65861,-23.85719 0,-1.77826 31.52634,18.95467 33.57372,22.07936 1.74871,2.66887 0.93163,5.52783 -1.57983,5.52783 -0.98567,0 -4.28654,-1.6875 -7.33528,-3.75 z m -120.633918,-2.5 c 0.02923,-2.66376 12.080308,-15.92008 12.724368,-13.99694 0.58767,1.75476 -6.428444,14.00499 -8.72508,15.23411 -2.918209,1.56178 -4.026238,1.21901 -3.999288,-1.23717 z m -33.024688,-2.06291 c 0,-1.2721 1.2375,-3.42734 2.75,-4.78943 6.444621,-5.80372 25.933893,-19.89766 27.514727,-19.89766 1.0634,0 -5.688632,7.89812 -16.456648,19.25 -6.211372,6.54816 -7.852031,7.75 -10.579736,7.75 -2.707262,0 -3.228343,-0.37332 -3.228343,-2.31291 z m 133.341296,-1.62573 c -3.09731,-1.88358 -11.3413,-10.75333 -11.3413,-12.20215 0,-1.56967 2.22405,-0.89252 7.3894,2.24985 6.60999,4.02122 9.6106,6.81816 9.6106,8.95827 0,2.57249 -2.37663,2.98998 -5.6587,0.99403 z M 77.695857,277.85383 c -1.579769,-1.57977 -0.160347,-3.89304 6.05568,-9.86912 7.126154,-6.85107 8.860842,-7.78503 7.761944,-4.17903 -1.562444,5.12711 -12.06296,15.80281 -13.817624,14.04815 z m 166.868513,-3.11122 c -8.46125,-2.95768 -27.10643,-15.91383 -25.38249,-17.63777 0.2523,-0.2523 3.81657,0.40112 7.92061,1.45205 7.12553,1.82464 11.01665,3.31766 22.65974,8.69448 5.84498,2.69923 7.69307,5.81407 4.73356,7.97811 -2.34143,1.7121 -3.8526,1.63802 -9.93142,-0.48687 z m -104.4323,-1.06042 c -1.21337,-2.26721 -1.32415,-15.61032 -0.15446,-18.60421 0.76935,-1.96917 0.77724,-1.96915 1.83373,0.005 0.58357,1.09043 1.51924,4.46117 2.07924,7.49053 1.62124,8.77006 -0.94727,16.36162 -3.75851,11.10878 z m 78.4323,-1.77471 c -7.863,-4.08363 -20.36124,-12.436 -23.04292,-15.39923 -3.08869,-3.41296 0.47653,-2.37337 13.88042,4.04743 6.88899,3.3 12.86959,6 13.29022,6 1.95069,0 8.37228,5.47336 8.37228,7.136 0,2.96568 -4.62533,2.30548 -12.5,-1.7842 z m -88.03135,0.54944 c -0.86228,-2.7168 0.23993,-9.96994 2.23226,-14.68949 1.30477,-3.09082 1.67937,-3.39841 2.23924,-1.83869 0.74981,2.08884 0.48494,12.79713 -0.40417,16.3396 -0.71909,2.8651 -3.18159,2.97927 -4.06733,0.18858 z m 18.73386,-0.65124 c -1.06352,-1.5125 -2.23621,-5 -2.60597,-7.75 -0.36976,-2.75 -0.93877,-6.34117 -1.26447,-7.98038 -0.52067,-2.62045 -0.40309,-2.82345 0.9736,-1.6809 0.86117,0.71471 1.87781,2.73088 2.25919,4.48038 0.38137,1.74949 1.75694,5.5918 3.05682,8.53846 2.24009,5.07802 2.35206,7.14244 0.3874,7.14244 -0.48009,0 -1.74305,-1.2375 -2.80657,-2.75 z m -28.20251,-1.625 c 0,-4.47207 1.16633,-8.12618 3.53844,-11.08592 3.16249,-3.94592 3.94832,-2.77854 2.4617,3.65694 -1.89669,8.21066 -6.00014,13.29129 -6.00014,7.42898 z m 35.07609,-0.25539 c -1.74418,-2.21737 -6.07609,-14.26735 -6.07609,-16.90174 0,-0.44907 1.19167,0.27444 2.64815,1.60782 l 2.64816,2.42431 -0.55454,-2.25 c -0.78485,-3.18452 0.364,-2.80678 4.56206,1.5 5.98169,6.13658 7.69617,8.45407 7.69617,10.40301 0,4.05643 -3.69985,1.58079 -9.25744,-6.19433 -1.70554,-2.38606 -1.71138,-2.34054 -0.19784,1.54132 0.85778,2.2 1.98613,4.4275 2.50744,4.95 1.48144,1.48481 1.13016,5.55 -0.47958,5.55 -0.78508,0 -2.3585,-1.18368 -3.49649,-2.63039 z M 45.740804,269.80568 c -2.077399,-3.52816 6.111091,-8.41124 29.025704,-17.30901 7.754213,-3.01097 -9.1768,10.1887 -20.412296,15.91373 -4.278449,2.18008 -7.814086,2.75281 -8.613408,1.39528 z m 151.823566,-2.1492 c -4.43043,-2.55232 -10.77209,-9.1008 -8.81337,-9.1008 1.64231,0 9.99349,3.47643 12.81337,5.33395 9.2068,6.06474 5.70806,9.35954 -4,3.76685 z M 23.314374,268.9253 c -2.517787,-1.0802 -1.371918,-5.3237 2,-7.40662 8.560934,-5.2883 35.522188,-10.06761 29.547334,-5.23773 -0.713534,0.57679 -6.282903,3.53975 -12.376376,6.58434 -10.683206,5.33784 -16.539408,7.18901 -19.170958,6.06001 z m 87.416666,-0.0363 c -1.20827,-1.20827 -0.68271,-4.78986 1.08992,-7.42752 3.11912,-4.64123 7.31153,-9.17102 7.9225,-8.56005 0.88313,0.88312 -1.67443,9.6623 -3.90494,13.40424 -1.85092,3.10514 -3.66708,4.02374 -5.10748,2.58333 z m -42.736233,-2.91715 c -1.639769,-1.9758 -0.337622,-4.38005 3.354221,-6.19315 6.231187,-3.06018 9.638913,-4.15572 10.183865,-3.27397 0.772002,1.24913 -5.064696,7.79075 -8.567303,9.60202 -3.460362,1.78943 -3.371735,1.79183 -4.970783,-0.1349 z m 98.609673,-4.94274 c -4.51454,-4.51452 -8.23318,-11.47343 -6.13109,-11.47343 2.09267,0 13.59098,11.23237 13.59098,13.27664 0,2.87193 -3.67247,1.98423 -7.45989,-1.8032 z m -65.02196,1.55593 c -1.04186,-1.68577 2.21496,-6.60407 7.54844,-11.39933 5.91228,-5.31565 7.31213,-5.76575 5.84701,-1.88004 -3.65272,9.68756 -11.07056,17.04112 -13.39545,13.27937 z m 67.90506,-9.42105 c -7.02476,-6.99028 -9.01506,-11.59679 -3.17321,-7.34432 11.46627,8.34666 13.75,10.33002 13.75,11.94149 0,3.6159 -4.12494,1.82301 -10.57679,-4.59717 z m -74.902398,3.45724 c -0.393311,-1.23921 0.03482,-2.92596 1.10167,-4.34031 1.853538,-2.45729 12.640288,-10.79582 13.218078,-10.21802 1.4953,1.4953 -5.96827,11.64756 -10.872337,14.78901 -2.733441,1.75099 -2.820299,1.74518 -3.447411,-0.23068 z M 226.56437,255.6308 c -9.54309,-3.71488 -21.57237,-9.47933 -24,-11.50084 -1.9104,-1.5908 -1.79839,-1.63695 2.5,-1.02991 4.33664,0.61244 12.20148,2.58331 26.07218,6.5335 7.53146,2.14486 10.95532,4.97915 8.94339,7.40337 -1.76724,2.1294 -5.40566,1.75087 -13.51557,-1.40612 z m -22.5,-1.86556 c -11.47677,-5.80706 -12.92026,-7.79887 -4.84726,-6.68855 8.5165,1.17132 14.84726,4.60395 14.84726,8.05042 0,2.2333 -3.96076,1.6939 -10,-1.36187 z M 36.731041,252.88901 c -1.281825,-1.28182 -0.649842,-3.27197 1.384828,-4.36089 7.291168,-3.90211 40.562862,-11.24673 37.448505,-8.26663 -2.613824,2.50114 -31.865064,13.29419 -36.029817,13.29419 -1.175267,0 -2.43685,-0.3 -2.803516,-0.66667 z m 24.266411,-1.20828 c 1.558864,-2.91277 17.461866,-9.91307 18.54366,-8.16269 1.382548,2.23701 -11.418533,10.03764 -16.472084,10.03764 -2.696784,0 -2.951594,-0.23063 -2.071576,-1.87495 z m 117.958208,-0.43841 c -4.25418,-2.17581 -10.77726,-9.134 -9.63431,-10.27695 0.96995,-0.96995 16.20021,8.01022 16.53518,9.74959 0.50592,2.62705 -2.36636,2.84655 -6.90087,0.52736 z m 75.60871,1.66839 c -9.12003,-2.20351 -28.5,-10.74317 -28.5,-12.55833 0,-1.19836 2.16953,-0.99553 18.34528,1.71511 17.95102,3.00812 23.64001,5.76573 19.30941,9.35981 -1.64166,1.36246 -6.43837,2.13971 -9.15469,1.48341 z M 88.064374,247.71067 c 0,-2.49327 2.416527,-4.48364 9.185923,-7.56599 9.838703,-4.47991 10.250533,-3.2928 1.505886,4.34078 -6.124667,5.34648 -10.691809,6.72417 -10.691809,3.22521 z m 44.395536,0.43339 c -0.8632,-2.24947 0.16423,-13.30029 1.58369,-17.03374 1.89628,-4.98761 2.89168,-1.4619 2.16542,7.66997 -0.6939,8.72514 -2.37908,12.93402 -3.74911,9.36377 z m 6.21145,-0.17017 c -0.97564,-2.54248 -0.69755,-17.41821 0.32562,-17.41821 1.30001,0 1.83781,2.30713 2.62242,11.25 0.57433,6.54626 0.44533,7.75 -0.83055,7.75 -0.83078,0 -1.78365,-0.7118 -2.11749,-1.58179 z M 14.169566,247.18243 c -1.551537,-1.86949 -0.513325,-4.11976 2.543285,-5.51245 3.901646,-1.77771 21.306621,-4.26944 27.405066,-3.92337 l 5.446457,0.30907 -5,2.63342 c -6.721463,3.54008 -20.70711,7.86658 -25.429177,7.86658 -2.104264,0 -4.338798,-0.61796 -4.965631,-1.37325 z m 133.207824,0.58787 c -1.9185,-1.2199 -5.01305,-9.38009 -5.78864,-15.26435 -0.64786,-4.91528 -0.56579,-5.30303 0.83618,-3.95027 0.85501,0.825 2.92366,4.82439 4.597,8.88754 3.89875,9.46679 4.00831,12.64979 0.35546,10.32708 z m -22.30325,-3.96462 c 0.0106,-2.99553 3.76053,-11.55425 6.46251,-14.75 l 1.69099,-2 -0.70077,2 c -0.38543,1.1 -1.14542,3.8 -1.68887,6 -0.54345,2.2 -1.40718,5.6875 -1.9194,7.75 -1.10871,4.46428 -3.85931,5.17975 -3.84446,1 z m 55.43009,-1.86032 c -2.78307,-1.39471 -7.05807,-4.12997 -9.5,-6.07835 l -4.43986,-3.54251 3.5,0.73002 c 4.72213,0.98494 20.35969,8.68886 20.80798,10.25116 0.60234,2.09914 -4.90741,1.37625 -10.36812,-1.36032 z m -29.83867,-1.66812 c -2.46936,-3.23751 -6.7625,-11.89359 -6.18517,-12.47092 1.50359,-1.50358 12.58398,11.13045 12.58398,14.34844 0,2.57467 -3.86879,1.4395 -6.39881,-1.87752 z m -31.60119,0.16423 c 0,-2.34589 10.20997,-14.75589 10.76646,-13.08641 0.83295,2.49886 -7.48432,15.20062 -9.95355,15.20062 -0.4471,0 -0.81291,-0.9514 -0.81291,-2.11421 z m 86.81877,-0.39179 c -7.51965,-3.95551 -7.23869,-4.89031 1.27574,-4.24451 8.45829,0.64155 13.12461,2.36263 12.68549,4.67879 -0.51092,2.6948 -8.48416,2.44678 -13.96123,-0.43428 z M 55.700555,238.77603 c -1.648806,-2.66783 11.843503,-6.74792 19.863819,-6.00684 l 4,0.36959 -6,2.86416 c -6.228341,2.97316 -16.732402,4.60376 -17.863819,2.77309 z m 29.099387,0.18188 c -0.328771,-0.32877 -0.338803,-1.27261 -0.02229,-2.09742 1.03827,-2.70569 16.621898,-8.18954 17.809928,-6.26728 0.95623,1.54724 -10.642852,8.96247 -14.019331,8.96247 -1.743798,0 -3.439536,-0.26899 -3.768307,-0.59777 z m 30.672588,-1.78097 c -0.30919,-0.80574 -0.0768,-2.37197 0.51652,-3.48052 1.01294,-1.89271 0.85101,-1.9786 -2.65707,-1.40932 -3.70351,0.601 -3.72269,0.58657 -2.22314,-1.67188 0.83193,-1.25296 5.00935,-4.08184 9.28314,-6.28642 7.84162,-4.04498 11.28498,-4.33082 6.67239,-0.55388 l -2.5,2.04707 2.40892,-0.75098 c 2.0858,-0.65025 1.75624,0.0798 -2.45684,5.44236 -5.48196,6.97765 -8.16485,8.95441 -9.04392,6.66357 z m 44.3129,0.0363 c -3.42608,-1.42713 -14.23463,-11.98638 -12.76934,-12.47481 1.72846,-0.57615 14.83609,8.57333 15.56291,10.86334 0.88094,2.7756 0.51202,2.98841 -2.79357,1.61147 z m 67.40447,-0.7282 c -10.13858,-2.13373 -20.39973,-5.02441 -21.57553,-6.07806 -1.12712,-1.01003 27.36907,-1.04838 32.45461,-0.0437 1.92754,0.3808 4.58669,1.45993 5.90923,2.39805 5.95459,4.2238 -3.96142,6.42319 -16.78831,3.72369 z m -45.80651,-2.83444 c -12.7823,-6.18137 -12.0807,-7.60864 2.0364,-4.14271 7.57242,1.85914 12.52709,4.63264 10.91821,6.11176 -2.35786,2.16769 -5.33662,1.71493 -12.95461,-1.96905 z m -148.192681,0.55729 c -2.292839,-2.7627 2.348122,-4.44864 15.373665,-5.58484 14.878189,-1.29781 28.237645,-1.38455 26.95,-0.17499 -0.922128,0.86621 -28.834104,6.04794 -37.006743,6.87014 -2.804556,0.28214 -4.44572,-0.0606 -5.316922,-1.11031 z m 51.510369,-4.9286 c -2.438565,-1.78312 -1.146009,-4.37176 2.552224,-5.11141 4.531185,-0.90622 14.811068,-0.74248 14.811068,0.23593 0,0.46646 -1.9125,1.64064 -4.249996,2.60927 -10.017226,4.15102 -10.436568,4.22349 -13.113296,2.26622 z M 245.6899,228.95578 c -11.74461,-2.33453 -18.82522,-4.60041 -17.74654,-5.67909 1.47121,-1.47121 22.38961,-3.62318 29.95429,-3.08153 3.62808,0.25978 7.17481,0.95227 7.88161,1.53887 1.8816,1.56158 1.56978,4.53698 -0.71489,6.82165 -2.38612,2.38612 -8.72467,2.51701 -19.37447,0.4001 z m -85.62553,-1.37154 c -4.79861,-1.53465 -11.78484,-4.8714 -12.44885,-5.9458 -1.35229,-2.18805 9.68012,-0.48118 16.69885,2.58355 6.7797,2.96036 3.24273,5.75852 -4.25,3.36225 z M 10.264374,226.35568 c -1.8002183,-1.80022 -1.4513715,-4.26264 0.905969,-6.39501 1.830782,-1.65607 3.570808,-1.88603 13.316194,-1.7599 6.626146,0.0858 13.819156,0.81347 17.590284,1.77959 10.299273,2.63855 10.019267,2.91726 -5.575468,5.54968 -13.501964,2.27916 -24.43928,2.62334 -26.236979,0.82564 z m 97.382596,0.33365 c -0.89193,-1.44318 2.65123,-3.87942 7.4174,-5.10014 2.475,-0.6339 5.2875,-1.38109 6.25,-1.66042 3.72805,-1.08192 1.47824,1.31466 -4.12687,4.39609 -5.96669,3.2802 -8.57505,3.92664 -9.54053,2.36447 z m 72.6674,-1.31649 c -8.63051,-2.89545 -8.06207,-4.25723 1.41846,-3.39813 8.27852,0.75018 14.85945,2.91777 13.84449,4.56001 -1.02699,1.66171 -8.55473,1.08867 -15.26295,-1.16188 z M 53.505067,224.45972 c -0.372538,-0.60278 0.02937,-1.80267 0.893129,-2.66643 2.515505,-2.51551 24.666178,-1.95188 24.666178,0.62763 0,0.84607 -15.554303,3.13476 -21.304319,3.13476 -1.967706,0 -3.882451,-0.49318 -4.254988,-1.09596 z m 150.072973,0.047 c -2.74249,-0.46906 -6.11749,-1.1484 -7.5,-1.50965 l -2.51367,-0.65681 2.44398,-0.93182 c 1.34419,-0.51249 6.60402,-1.20507 11.68852,-1.53906 10.15654,-0.66716 15.71229,0.64424 15.15316,3.57681 -0.24375,1.27847 -1.74442,1.64076 -7.29626,1.76144 -3.84417,0.0836 -9.23325,-0.23185 -11.97573,-0.70091 z m -94.99635,-5.3147 c -1.82118,-1.33167 -1.81404,-1.40715 0.23672,-2.50468 2.51887,-1.34806 20.62285,-1.55047 19.80143,-0.22139 -0.30941,0.50063 -3.82347,1.43406 -7.80902,2.07428 -3.98555,0.64022 -7.94506,1.35772 -8.79891,1.59445 -0.85385,0.23672 -2.39745,-0.18747 -3.43022,-0.94266 z M 82.314374,218.9625 c -1.946065,-0.89283 -1.473442,-3.21687 0.914035,-4.49461 3.575554,-1.91358 21.308561,1.01519 19.159401,3.16435 -1.05498,1.05498 -18.197329,2.19099 -20.073436,1.33026 z m 69.999996,-0.13022 c -8.01926,-0.99518 -0.87605,-3.5253 10.41181,-3.68786 6.6114,-0.0952 7.92372,0.44302 6.99311,2.86813 -0.46216,1.20438 -2.0808,1.508 -7.37354,1.38309 -3.72976,-0.088 -8.24388,-0.34153 -10.03138,-0.56336 z m 62.75,-0.90483 c -3.025,-0.19695 -7.525,-0.65518 -10,-1.0183 l -4.5,-0.6602 3.5,-0.80291 c 5.96685,-1.36881 26.18971,-4.75038 32.56801,-5.44586 5.51354,-0.60119 6.32988,-0.4364 8.93383,1.80342 l 2.86582,2.46508 -2.8889,1.89287 c -2.35943,1.54596 -4.91318,1.91406 -13.93383,2.00843 -6.07471,0.0636 -13.51993,-0.0456 -16.54493,-0.24253 z M 32.053947,215.74832 c -2.096896,-1.69796 -2.129542,-1.90981 -0.539356,-3.5 1.832277,-1.83228 2.730395,-2.00404 9.549783,-1.82642 5.678692,0.14792 8.869096,0.62849 22.5,3.38917 l 11,2.22785 -5,0.67077 c -2.75,0.36893 -11.812647,0.7102 -20.139216,0.75838 -13.193654,0.0764 -15.426053,-0.14466 -17.371211,-1.71975 z m 106.010423,0.80736 c 0,-0.55 0.70156,-1 1.55902,-1 0.85746,0 1.2809,0.45 0.94098,1 -0.33992,0.55 -1.04148,1 -1.55902,1 -0.51754,0 -0.94098,-0.45 -0.94098,-1 z m 43.25,0.28268 c -2.8875,-0.21296 -5.25,-0.81368 -5.25,-1.33494 0,-0.52126 0.15302,-0.94774 0.34004,-0.94774 0.18702,0 3.89952,-0.91546 8.25,-2.03436 8.14376,-2.09449 12.40996,-1.94633 12.40996,0.43097 0,3.18996 -5.79649,4.62015 -15.75,3.88607 z m -60.78204,-3.27455 c -8.18678,-0.71803 -12.99174,-2.35162 -11.93695,-4.0583 1.51275,-2.44769 21.46899,1.40244 21.46899,4.14197 0,0.49951 -0.3375,0.84353 -0.75,0.76449 -0.4125,-0.079 -4.36442,-0.46071 -8.78204,-0.84816 z m 27.53204,0.12735 c 0,-2.54732 12.99814,-9.13548 18.02389,-9.13548 7.32058,0 3.08958,4.00856 -7.52389,7.12832 -10.46851,3.07715 -10.5,3.08317 -10.5,2.00716 z m -85.128319,-2.1528 c -8.004857,-1.35263 -10.896786,-3.82851 -6.943272,-5.94436 2.29229,-1.2268 14.06985,0.7713 21.065787,3.57388 4.222673,1.6916 4.343504,1.8423 2,2.49441 -3.264899,0.90849 -10.334282,0.85415 -16.122515,-0.12393 z m 141.313159,0.2128 c -7.35336,-0.42129 -6.22158,-2.14609 2.87473,-4.38098 8.02718,-1.97221 15.04941,-2.03144 15.67347,-0.1322 0.92971,2.8294 -8.38363,5.09554 -18.5482,4.51318 z m -113.313159,-1.2128 c -2.545578,-0.43014 -5.610227,-1.30757 -6.810331,-1.94985 -3.1143,-1.66672 -2.231565,-4.46561 1.524371,-4.83332 3.576132,-0.35012 13.307677,3.05919 16.623279,5.82373 l 2.291,1.91022 -4.5,-0.0844 c -2.474996,-0.0464 -6.582742,-0.43628 -9.128319,-0.86643 z m 28.637289,-2.77582 c -5.66636,-1.95423 -8.09497,-3.29566 -8.34831,-4.61115 -0.31556,-1.63853 0.0857,-1.77208 3.4358,-1.14359 4.47677,0.83984 12.47992,4.73006 14.3388,6.96987 1.90646,2.29715 0.072,2.06067 -9.42629,-1.21513 z m 30.06094,0.65955 c 3.99657,-6.87346 11.64021,-14.47262 13.43908,-13.36086 2.80091,1.73106 0.15223,5.88239 -6.25899,9.80983 -1.5125,0.92654 -3.95604,2.46447 -5.43009,3.41763 -2.31557,1.4973 -2.55358,1.51544 -1.75,0.1334 z m -11.04179,-3.36641 c -0.39104,-2.2 -1.11733,-5.575 -1.61397,-7.5 -1.26419,-4.9 -1.13507,-11.74543 0.23755,-12.59376 2.42622,-1.49948 3.84937,2.84564 3.77801,11.53489 -0.0849,10.33403 -1.30999,14.70018 -2.40159,8.55887 z m 34.47188,2.62314 c 0,-1.07703 8.06227,-4.61255 14.35819,-6.29646 4.03817,-1.08004 4.86532,-1.03174 6.26277,0.36571 1.48014,1.48014 1.40924,1.74172 -0.87835,3.2406 -3.92115,2.56924 -19.74261,4.72509 -19.74261,2.69015 z m 57,-1.11591 c -3.43889,-0.55154 -3.45984,-0.58378 -1.19969,-1.8464 6.14762,-3.43432 23.39692,-8.14873 29.69969,-8.11722 5.07262,0.0254 7.9263,2.03787 7.00513,4.94024 -0.94569,2.9796 -3.57072,3.73017 -17.13662,4.89989 -12.26355,1.05741 -12.53408,1.05923 -18.36851,0.12349 z m -107.45413,-3.40182 c -6.7393,-3.77439 -10.17916,-7.60541 -6.82887,-7.60541 2.23901,0 7.68058,4.00271 11.10906,8.17161 1.27933,1.55561 2.17933,2.81491 2,2.79842 -0.17933,-0.0165 -3.00542,-1.53056 -6.28019,-3.36462 z m 23.45413,2.67792 c 0,-0.48583 0.39443,-1.31083 0.87651,-1.83333 0.48207,-0.5225 1.8658,-3.64454 3.07495,-6.93786 2.43086,-6.62083 3.82613,-8.76763 5.16185,-7.94211 2.08327,1.28753 0.70213,6.31655 -3.15811,11.49936 -3.91554,5.25706 -5.9552,7.04284 -5.9552,5.21394 z M 27.281126,204.42233 c -12.920164,-1.35327 -19.1495018,-4.93189 -14.592177,-8.38289 2.802905,-2.12248 10.049078,-1.77526 19.026122,0.91169 7.508009,2.24725 18.349303,7.0456 18.349303,8.1214 0,0.71993 -13.33561,0.33936 -22.783248,-0.6502 z m 30.783248,-2.50514 c -6.875,-1.92111 -13.860586,-3.84298 -15.523526,-4.27083 -9.759725,-2.51101 -9.763577,-6.09068 -0.0066,-6.09068 8.361005,0 36.530079,10.11644 36.530079,13.11915 0,1.79751 -8.864334,0.63348 -21,-2.75764 z m 68.805296,-1.13455 c -4.09861,-4.23557 -6.8053,-8.07815 -6.8053,-9.66122 0,-1.86526 4.28396,-0.0546 6.35078,2.68426 2.42984,3.21988 5.97478,10.75777 5.35206,11.3805 -0.17788,0.17787 -2.38177,-1.80372 -4.89754,-4.40354 z m 4.70727,-2.202 c -4.60234,-9.13902 -4.7764,-16.35845 -0.27184,-11.27496 1.71508,1.93551 4.20645,8.78627 5.28394,14.52981 1.11489,5.94288 -1.10674,4.50015 -5.0121,-3.25485 z m 11.51923,-0.20986 c -0.0326,-7.89053 1.11051,-12.8151 2.97483,-12.8151 0.58088,0 1.33127,0.71699 1.66755,1.59331 0.81618,2.12693 -1.66842,15.03405 -3.30996,17.19474 -1.10384,1.45295 -1.30542,0.54929 -1.33242,-5.97295 z m -46.531796,4.57023 c -8.093911,-2.38829 -10.516391,-3.54744 -11.584461,-5.54315 -1.227184,-2.29301 -0.417106,-3.84218 2.009121,-3.84218 2.543634,0 15.368346,6.56131 17.561506,8.98472 1.78079,1.96775 1.76709,2.01364 -0.58118,1.94563 -1.32275,-0.0383 -4.654986,-0.73357 -7.404986,-1.54502 z m 103.499996,0.2518 c 0,-1.87497 32.54436,-13.64926 37.65095,-13.62182 5.83648,0.0314 6.92675,3.25754 2.15279,6.37024 -3.73501,2.43529 -21.52114,6.6162 -31.01211,7.28989 -4.8354,0.34322 -8.79163,0.32599 -8.79163,-0.0383 z m -27,-2.96761 c 0,-1.38896 6.33794,-6.30019 11.5,-8.91128 2.10687,-1.0657 3.71505,-1.24847 5.40182,-0.61391 l 2.40183,0.90355 -2.27109,2.41747 c -2.02118,2.15144 -13.48332,7.53465 -16.04308,7.53465 -0.54421,0 -0.98948,-0.59872 -0.98948,-1.33048 z M 72.193511,197.97943 c -6.805018,-1.83037 -11.471484,-4.03957 -13.674341,-6.4737 -1.588225,-1.75497 -1.594927,-1.95905 -0.08339,-2.53908 2.864307,-1.09914 8.117634,0.49929 14.677974,4.46607 9.596574,5.80266 9.294675,7.29427 -0.920247,4.54671 z m 123.420739,0.65696 c -0.62605,-1.01298 8.28886,-7.69756 12.75402,-9.56322 4.07972,-1.70462 9.27985,-2.00001 10.15926,-0.5771 0.78248,1.26608 -3.20823,4.97045 -7.20334,6.68648 -4.69397,2.01621 -15.17441,4.32034 -15.70994,3.45384 z m -95.886835,-4.52815 c -8.863188,-3.64427 -12.239528,-7.60004 -7.71302,-9.0367 2.402616,-0.76256 6.229792,1.17598 11.799975,5.97692 6.91758,5.96225 5.51889,7.0094 -4.086955,3.05978 z m 68.336955,-1.5954 c 0,-1.67994 9.27299,-11.11045 11.91113,-12.11347 3.16567,-1.20359 4.42343,0.14616 3.1811,3.41373 -0.62824,1.65238 -3.28851,3.87293 -7.38326,6.16284 -6.91325,3.86611 -7.70897,4.12797 -7.70897,2.5369 z M 68.564374,189.11 c -16.391273,-5.60708 -27.5,-11.91086 -27.5,-15.60521 0,-2.56312 4.685033,-2.63502 9.798306,-0.15038 10.382928,5.04526 27.201694,15.7856 27.201694,17.37079 0,1.29786 -1.956784,0.96516 -9.5,-1.6152 z m 10,-1.70843 c -7.575125,-3.83881 -13.5,-8.24208 -13.5,-10.03298 0,-1.60053 5.60717,-0.77202 9.725987,1.43709 5.66881,3.04044 13.274013,9.51453 13.274013,11.29977 0,2.00908 -0.456076,1.87928 -9.5,-2.70388 z m 27.054386,-0.93713 c -3.82009,-2.70805 -7.300691,-5.48286 -7.734683,-6.16625 -1.421309,-2.23805 -0.893064,-4.74251 1.000298,-4.74251 3.708885,0 15.048285,12.07207 14.012705,14.91811 -0.18299,0.50292 -3.45823,-1.30129 -7.27832,-4.00935 z m 92.4714,2.34124 c 0.0253,-0.73473 2.33799,-2.34622 16.47421,-11.47902 9.75521,-6.30242 13.28304,-7.96278 17.15172,-8.07245 3.95752,-0.11218 5.68238,1.26723 4.72014,3.77481 -0.74844,1.95038 -16.21708,9.57458 -28.18146,13.89011 -7.4909,2.70195 -10.21,3.20661 -10.16461,1.88655 z m -38.02579,-0.73977 c 0,-1.62824 9.17764,-14.3966 11.38984,-15.84609 4.69796,-3.07822 6.16356,0.27591 2.64331,6.04938 -2.8654,4.69945 -14.03315,12.49579 -14.03315,9.79671 z m 62.56876,-0.39897 c -1.16195,-1.88008 12.78192,-10.13353 24.6381,-14.58343 5.81893,-2.18398 11.79314,-1.45213 11.79314,1.44468 0,4.97292 -12.31125,10.78146 -27.50494,12.97704 -8.6144,1.24484 -8.26085,1.23843 -8.9263,0.16171 z M 44.064374,186.43092 c -17.517342,-2.83768 -26.035062,-6.10324 -26.841471,-10.29058 -0.783788,-4.06988 4.439904,-4.6006 13.897299,-1.41194 7.142148,2.40806 20.0482,9.62777 20.695682,11.57728 0.461368,1.38914 0.08796,1.39517 -7.75151,0.12524 z m 144.082976,-0.6365 c 1.87916,-3.00902 17.44952,-14.23874 19.74246,-14.23874 2.70104,0 2.93534,3.09548 0.42456,5.60918 -1.57788,1.57972 -19.06656,10.39082 -20.62417,10.39082 -0.35353,0 -0.14781,-0.79257 0.45715,-1.76126 z m -74.78536,-5.05207 c -2.63869,-2.64733 -5.41991,-5.99197 -6.1805,-7.43254 -1.43467,-2.71731 -0.96769,-5.75413 0.88483,-5.75413 1.89294,0 8.06688,6.937 10.03759,11.27817 3.7191,8.1926 2.1508,8.82379 -4.74192,1.9085 z m 41.73751,3.56333 c 0.16224,-5.77224 6.38418,-20.10423 8.43614,-19.43228 1.76967,0.57951 1.73039,7.39096 -0.0627,10.87214 -3.616,7.02023 -8.46961,11.98207 -8.37344,8.56014 z m -30.18197,-3.5 c -2.23636,-2.68644 -6.85316,-12.87781 -6.85316,-15.12803 0,-3.39383 2.17265,-3.64229 4.66317,-0.53328 2.57463,3.21399 3.85106,6.74397 4.7591,13.16131 0.64047,4.52638 -0.20076,5.34498 -2.56911,2.5 z m 24.681,-1.5 c 0.22462,-1.7875 0.67478,-5.80601 1.00034,-8.93002 0.59593,-5.71841 2.39285,-8.60095 4.53598,-7.27642 1.59723,0.98714 0.63272,7.2212 -2.15955,13.95805 -2.55821,6.17214 -3.98963,7.12524 -3.37677,2.24839 z m -16.42307,-0.54242 c -1.72816,-3.2291 -4.41,-15.98625 -3.73207,-17.75292 0.62424,-1.62673 0.77715,-1.6233 2.63622,0.0591 2.50289,2.26509 3.97205,7.52125 3.97918,14.23621 0.006,5.32986 -1.14369,6.70812 -2.88333,3.45758 z m -56.823637,-3.16799 c -10.051634,-6.37702 -21.755682,-15.67746 -23.255242,-18.47941 -1.017228,-1.90071 -1.093987,-2.8984 -0.285217,-3.70717 2.380872,-2.38087 6.920852,0.50245 18.06694,11.47423 15.461459,15.21966 16.844468,17.92638 5.473519,10.71235 z m 66.312747,0.84066 c -1.76739,-11.07782 -1.28622,-16.88025 1.3998,-16.88025 2.22635,0 3.04224,5.09065 1.89882,11.84745 -1.32995,7.85895 -2.5506,9.72134 -3.29862,5.0328 z m -52.600196,0.41352 c -0.825,-0.30158 -2.4,-1.33282 -3.5,-2.29164 -1.1,-0.95882 -3.330509,-2.36405 -4.956687,-3.12272 -1.626177,-0.75868 -4.300891,-3.2947 -5.943808,-5.6356 -6.892322,-9.8205 4.476458,-6.10339 12.090399,3.95305 6.052738,7.99442 6.226626,8.52862 2.310096,7.09691 z m 88.999996,0.079 c 0,-3.54549 15.23102,-20.37277 18.44014,-20.37277 3.46636,0 1.148,4.12813 -6.33149,11.27399 -7.50019,7.16563 -12.10865,10.62855 -12.10865,9.09874 z m 15,-4.13073 c 0,-1.72603 19.70812,-20.87846 22.80363,-22.16066 3.15834,-1.30827 6.19637,-0.93937 6.19637,0.75238 0,2.34159 -5.24891,6.972 -15.39263,13.57884 -13.87562,9.0375 -13.60737,8.88315 -13.60737,7.8294 z m -140.499996,-3.7866 c -1.65,-0.77916 -5.7,-2.60934 -9,-4.06705 -5.866639,-2.59149 -12.753679,-7.22178 -15.25,-10.25287 -0.6875,-0.83478 -1.25,-2.55677 -1.25,-3.82665 0,-3.47475 5.350976,-3.10106 11.554219,0.8069 6.886103,4.33815 17.950854,13.47993 19.881175,16.42597 1.549183,2.36435 1.523881,2.45582 -0.662341,2.39431 -1.250179,-0.0352 -3.623053,-0.70145 -5.273053,-1.48061 z m 161.499996,1.00938 c 0,-1.89712 4.0672,-5.93472 9.81584,-9.74442 11.37209,-7.53642 13.88401,-8.77908 18.96175,-9.38047 4.08323,-0.48359 5.02851,-0.28761 5.58307,1.15755 0.96978,2.52721 -5.4692,8.21617 -13.36066,11.80441 -10.91519,4.96312 -21,7.92274 -21,6.16293 z M 79.087549,155.79326 C 66.789198,145.20927 63.41034,140.80971 65.768859,138.45119 c 0.616096,-0.61609 2.067036,-0.78542 3.320701,-0.38752 3.301467,1.04785 13.802324,12.0137 19.224814,20.07613 7.86747,11.69774 6.767141,11.4179 -9.226825,-2.34654 z m 15.367615,5.51632 c -6.319891,-5.48682 -7.320471,-6.77903 -7.358987,-9.5039 -0.0674,-4.76848 6.280159,-0.98122 11.10399,6.62518 5.126633,8.08386 3.601113,9.2565 -3.745003,2.87872 z m 86.678736,1.56323 c 2.67839,-7.0447 17.34626,-25.86374 22.1713,-28.44602 2.57653,-1.37892 4.21248,0.20383 3.41678,3.30567 -0.60356,2.35284 -24.17972,27.82322 -25.75403,27.82322 -0.46974,0 -0.39507,-1.20729 0.16595,-2.68287 z m -8.53088,-0.56713 c 0.37038,-1.2375 2.14013,-5.175 3.93278,-8.75 2.27786,-4.54264 3.90216,-6.59623 5.39397,-6.81955 1.83265,-0.27435 2.1346,0.17398 2.1346,3.16941 0,2.7998 -1.00745,4.59128 -5.10034,9.06955 -5.42454,5.93532 -7.4595,7.00081 -6.36101,3.33059 z m -61.77372,-3 c -4.27902,-5.23183 -9.76493,-14.82781 -9.76493,-17.08086 0,-2.6951 3.917,-1.9695 6.96142,1.28956 3.79217,4.05953 9.58754,20.0413 7.26745,20.0413 -0.54337,0 -2.55214,-1.9125 -4.46394,-4.25 z m 26.2807,-0.90355 c -1.76789,-8.13794 -3.06935,-20.90377 -2.40213,-23.56216 0.75051,-2.99029 2.43554,-2.48579 4.30707,1.28955 1.8246,3.68066 2.145,24.72758 0.40298,26.47141 -0.86218,0.86309 -1.43444,-0.17803 -2.30792,-4.1988 z m 25.5161,-6.09645 c 1.19128,-9.14186 2.94795,-14.75 4.62022,-14.75 0.47351,0 1.36162,1.09889 1.97357,2.44198 0.8615,1.89079 0.75691,3.52722 -0.4634,7.25 -2.26464,6.90877 -5.65747,14.30802 -6.56074,14.30802 -0.42626,0 -0.23261,-4.1625 0.43035,-9.25 z m -61.48017,4.52663 c -9.158718,-10.81412 -12.207581,-15.0648 -15.601584,-21.75152 -3.620632,-7.13321 -3.855859,-9.52511 -0.936732,-9.52511 3.018375,0 7.600536,5.92971 12.750303,16.5 8.914503,18.29771 9.845343,21.92879 3.788013,14.77663 z m 19.63773,-6.79318 c -3.43629,-6.9446 -4.94245,-14.48345 -2.8936,-14.48345 2.92251,0 6.621,8.12205 8.53807,18.75 1.0391,5.76061 -1.7118,3.68126 -5.64447,-4.26655 z m -57.803876,3.67786 c -5.128731,-3.25255 -17.872918,-15.35158 -20.375741,-19.34425 -2.259138,-3.60393 -0.662344,-6.81706 3.387801,-6.81706 3.638239,0 11.592383,8.3529 18.485067,19.41176 5.612347,9.00464 5.174118,10.98033 -1.497127,6.74955 z m 107.420866,-0.0927 c 0.32246,-1.61228 3.22763,-8.49478 6.45594,-15.29444 6.22471,-13.11086 10.17783,-17.87382 12.93535,-15.58528 2.16356,1.79559 0.8879,6.07462 -3.59963,12.07445 -2.15421,2.88015 -4.75563,6.81166 -5.78094,8.73666 -3.07084,5.76541 -8.36881,13 -9.52004,13 -0.65769,0 -0.84871,-1.14123 -0.49068,-2.93141 z m -40.23267,-2.06861 c -0.76801,-2.475 -2.16374,-6.975 -3.10161,-10 -3.12882,-10.09164 -4.49564,-21.40902 -3.13434,-25.95262 0.66694,-2.22606 1.65117,-4.04738 2.18718,-4.04738 1.6233,0 4.85088,6.17819 5.46834,10.46743 0.31928,2.21791 0.44468,10.78257 0.27866,19.03257 -0.2924,14.53095 -0.3455,14.85929 -1.69823,10.5 z m 19.94938,1.75 c 0.0858,-3.64272 2.53505,-17.67138 3.20163,-18.33795 1.1729,-1.1729 2.67226,0.68125 3.31306,4.09704 0.49847,2.65706 -0.0492,4.92269 -2.40872,9.96492 -3.24136,6.92662 -4.1917,7.91631 -4.10597,4.27599 z m 6.7139,1.64562 c -0.95885,-1.6168 5.00648,-35.40079 6.70983,-38.00044 2.0662,-3.15341 4.12814,-3.96801 6.03601,-2.38461 2.22252,1.84452 1.8026,7.02755 -1.10134,13.59387 -1.42373,3.21932 -3.68506,9.23781 -5.02516,13.37443 -2.76272,8.5279 -5.83074,14.74649 -6.61934,13.41675 z m -12.80232,-0.56229 c -0.0195,-0.18333 -0.27086,-9.10833 -0.5586,-19.83333 -0.40187,-14.97916 -0.21978,-20.06129 0.78544,-21.92103 1.9551,-3.61714 3.36183,-3.54022 5.17607,0.283 2.09449,4.41382 2.15245,16.54513 0.12727,26.63803 -2.57553,12.83568 -3.01039,14.33855 -4.27045,14.75857 -0.67337,0.22445 -1.24024,0.2581 -1.25973,0.0748 z m 60.03543,-0.37317 c 0,-1.07997 4.0302,-8.4021 6.9507,-12.62815 6.19895,-8.97005 11.35248,-13.88327 15.19572,-14.48714 3.04909,-0.47908 3.75036,-0.24546 4.28092,1.42619 0.91004,2.8673 -0.98357,6.30786 -5.23485,9.51138 -2.03087,1.53033 -7.29249,5.90529 -11.69249,9.72211 -7.40432,6.42295 -9.5,7.84705 -9.5,6.45561 z m -89.55815,-2.71016 c -0.3811,-1.2375 -3.33643,-8.24076 -6.56738,-15.5628 -5.98091,-13.55401 -7.1215,-18.77144 -4.33722,-19.83987 3.05065,-1.17064 7.34803,5.4174 8.90563,13.65267 0.26006,1.375 1.12978,4.975 1.93271,8 2.12707,8.01369 3.01837,16 1.78564,16 -0.56455,0 -1.33827,-1.0125 -1.71938,-2.25 z M 74.841855,136.51147 c -5.220916,-5.24932 -10.681678,-11.42787 -12.135027,-13.73013 -2.992026,-4.73968 -3.43143,-8.98567 -1.025442,-9.90894 3.119739,-1.19715 6.771454,1.244 11.873601,7.93744 5.189949,6.80864 12.106044,21.53681 11.24447,23.94567 -0.283759,0.79336 -4.165271,-2.4202 -9.957602,-8.24404 z m 114.669875,4.29421 c 3.31997,-18.58357 20.27456,-40.23386 21.33979,-27.25 0.22635,2.75896 -0.77454,5.19381 -4.72729,11.5 -4.64821,7.41572 -14.91358,19.5 -16.56489,19.5 -0.39465,0 -0.41608,-1.6875 -0.0476,-3.75 z m -94.854057,-12 C 87.374483,118.4759 81.841971,107.34203 82.24584,103.82756 c 0.799593,-6.95806 9.614994,-1.57341 14.218758,8.68514 4.056672,9.03947 6.945022,24.04298 4.628562,24.04298 -0.53417,0 -3.430138,-3.4875 -6.435487,-7.75 z m 76.406697,5.27814 c 0,-4.4711 4.7068,-22.01258 7.55142,-28.14292 3.37129,-7.265342 5.63454,-9.3057 8.07533,-7.280029 4.06058,3.369979 -1.06195,18.329379 -10.83609,31.644809 -4.09221,5.57486 -4.79066,6.12569 -4.79066,3.77814 z m -56.47051,-11.77814 c -6.23712,-13.22386 -9.1541,-26.638633 -6.65109,-30.587493 1.27553,-2.01233 5.17365,-0.995049 7.33766,1.914886 2.70628,3.639135 3.64752,8.575397 4.41853,23.172607 0.80358,15.21364 -0.0764,16.16171 -5.1051,5.5 z m 39.55489,-5 c 0.15768,-19.153134 2.29911,-26.756858 7.76433,-27.569341 4.82873,-0.717858 5.16163,8.477619 0.77419,21.384921 -6.89545,20.28555 -8.66516,21.56734 -8.53852,6.18442 z m -20.054,-0.33789 c -2.62009,-10.72611 -2.97109,-20.677088 -0.88301,-25.033723 1.81612,-3.789197 3.76303,-3.635084 6.5628,0.519495 2.02788,3.009175 2.28096,4.553538 2.21233,13.499998 -0.0765,9.97315 -2.217,19.53362 -4.54726,20.31037 -0.54626,0.18209 -2.05145,-4.00117 -3.34486,-9.29614 z"
             id="path1046"
             inkscape:connector-curvature="0" />
          <path
             style="fill:#ff00ff"
             d="m 177.0596,431.24062 c -3.10073,-1.54588 -3.99389,-5.30283 -2.26379,-9.52232 1.97925,-4.82713 0.3033,-6.54755 -5.69263,-5.84368 -2.49635,0.29305 -5.66381,0.86921 -7.03881,1.28036 -2.24947,0.67262 -2.36246,0.57983 -1.12756,-0.92589 1.25104,-1.52538 0.91931,-1.67341 -3.75,-1.67341 -5.51714,0 -6.61788,-1.37882 -3.37244,-4.22442 5.75101,-5.04248 16.70037,-6.66904 22.98551,-3.41457 3.28725,1.70215 3.77284,2.79999 4.61254,10.42821 0.79222,7.19678 4.54722,9.38631 8.61299,5.02222 2.51884,-2.70366 2.72995,-9.61176 0.48699,-15.93571 -2.46091,-6.93844 -2.11148,-13.31712 0.94935,-17.33007 2.39894,-3.14518 2.54838,-3.93529 2.02759,-10.72054 -0.66599,-8.67702 0.89163,-12.02095 7.69731,-16.52474 3.80417,-2.51748 5.20296,-2.81398 14.83015,-3.14349 10.3437,-0.35405 10.67165,-0.43677 12.1849,-3.07345 2.39709,-4.17669 7.51026,-6.08344 16.31346,-6.08344 9.54942,0 12.61474,-1.48056 15.41967,-7.44779 1.17124,-2.49173 2.12954,-4.90688 2.12954,-5.367 0,-1.1566 4.39707,-5.18521 5.65946,-5.18521 1.9074,0 4.34003,-3.63395 4.40393,-6.57874 0.0623,-2.87338 0.0791,-2.88201 1.02139,-0.52633 1.35967,3.39907 0.34514,5.66533 -4.15516,9.28187 -3.41203,2.74198 -3.93049,3.69567 -3.93621,7.24056 -0.0143,8.85811 -5.67047,13.10494 -18.33951,13.7699 -7.04032,0.36952 -9.1375,0.85189 -10.76068,2.47508 l -2.01611,2.01611 5.17838,0.18328 c 10.92506,0.38668 20.95962,7.54159 20.9292,14.92307 -0.008,2.04336 -0.34592,4.21033 -0.75,4.8155 -1.35638,2.03135 -5.20657,3.47219 -9.48724,3.55036 -9.49551,0.1734 -17.21175,-4.02696 -21.28197,-11.58489 -2.07035,-3.84441 -2.23191,-3.9006 -10.46548,-3.63955 -6.3417,0.20107 -10.55526,1.55245 -13.75,4.40993 -4.33244,3.87508 -1.73719,10.55998 3.34892,8.62624 3.26768,-1.24237 13.90177,-1.22929 18.40108,0.0226 1.925,0.53563 5.1875,2.36588 7.25,4.06723 3.14976,2.59822 3.75,3.71035 3.75,6.94797 0,5.02976 -3.49897,8.0065 -9.38486,7.98416 -5.80189,-0.022 -14.78434,-2.29664 -19.08139,-4.83196 -5.94525,-3.50779 -8.61063,-2.67862 -10.0691,3.1324 -0.53139,2.11724 -0.0716,3.67479 1.94267,6.58145 4.79448,6.91843 5.19649,13.23019 1.22837,19.2863 -3.62975,5.53969 -19.13205,10.27861 -24.64046,7.53237 z m 47.68187,-42.28586 c 0.90722,-2.36417 -1.46583,-3.36659 -8.01043,-3.38377 -6.60006,-0.0173 -7.29444,1.53447 -1.6063,3.58972 4.92434,1.77927 8.8875,1.6944 9.61673,-0.20595 z m 22.07585,-17.14293 c 0.45688,-1.38736 -2.26785,-2.6129 -8.23903,-3.70579 l -3.98607,-0.72956 1.98607,2.20763 c 3.41047,3.79092 9.30213,5.07278 10.23903,2.22772 z M 83.273568,422.56434 c -7.703183,-3.49615 -8.939212,-5.89788 -9.883794,-19.20523 -0.440766,-6.20954 -1.161025,-9.61382 -2.342832,-11.07328 -1.650441,-2.03821 -1.850333,-2.05445 -6.094489,-0.49501 -7.08534,2.60338 -9.95382,2.82614 -17.989047,1.397 -8.620984,-1.53332 -13.486704,-4.47834 -14.420058,-8.72787 -0.897246,-4.08514 0.801775,-6.34857 6.655864,-8.86693 7.174113,-3.08622 16.169413,-2.59095 24.187048,1.33172 5.147417,2.51839 6.111893,2.6939 8.764883,1.595 5.951077,-2.46502 8.742288,-9.67792 5.842128,-15.09692 -1.11865,-2.09021 -9.509036,-7.86714 -11.426209,-7.86714 -0.608163,0 -2.035469,2.20058 -3.171791,4.89018 -2.671502,6.32326 -6.154197,8.60982 -13.113757,8.60982 -4.924905,0 -5.655028,-0.31013 -8.793979,-3.73531 -3.814966,-4.16285 -4.619247,-9.42575 -1.861841,-12.18315 1.38835,-1.38835 8.403384,-3.8136 13.93868,-4.81891 3.981011,-0.72302 -4.029056,-3.76263 -9.915393,-3.76263 -6.956034,0 -14.431152,-2.40773 -17.290034,-5.56911 -2.144445,-2.37134 -4.094784,-8.96401 -2.981278,-10.07752 0.304354,-0.30435 2.200543,1.0938 4.213753,3.10701 4.434102,4.4341 6.53131,5.29156 17.472952,7.1439 11.078511,1.87552 16.391038,3.88935 17.951377,6.80487 0.954978,1.78439 2.73365,2.67515 7.259631,3.63563 4.495908,0.9541 7.345341,2.37236 11.396588,5.67248 6.448472,5.25289 8.392404,8.65461 8.392404,14.68603 0,6.1777 -1.467465,8.88674 -6.873778,12.68949 -2.544422,1.78972 -4.784993,3.37227 -4.979046,3.51678 -0.194053,0.14452 0.776009,2.65398 2.155694,5.5766 1.379684,2.92261 2.834874,7.56384 3.233756,10.31384 1.057714,7.29216 3.226333,12.07097 6.06467,13.3642 7.355422,3.35135 12.46085,-1.32618 6.780499,-6.21222 -1.919578,-1.65115 -2.653373,-3.28818 -2.75,-6.135 -0.114114,-3.362 0.324056,-4.19377 3.266088,-6.19995 4.762353,-3.24747 8.416623,-2.98066 12.778023,0.93297 6.5654,5.89134 9.32338,8.94213 8.82008,9.75649 -0.81584,1.32006 -8.79565,-0.15216 -11.65036,-2.1494 -5.00337,-3.50053 -8.176834,-1.27678 -3.81334,2.67213 3.48643,3.15518 6.1626,8.28137 5.4672,10.4724 -1.77352,5.58785 -16.623214,7.94066 -25.290292,4.00704 z m -25.90869,-38.90916 c 1.973821,-1.97382 -1.245227,-3.25394 -6.723929,-2.6739 -5.609117,0.59384 -7.894891,2.09641 -5.568216,3.66029 1.903329,1.27933 10.735136,0.57062 12.292145,-0.98639 z M 53.429515,358.4831 c 3.47744,-2.73535 3.425597,-4.93776 -0.115141,-4.89146 -3.216308,0.0421 -8.818101,4.23582 -7.818468,5.85326 1.094952,1.77167 5.071424,1.28959 7.933609,-0.9618 z"
             id="path1044"
             inkscape:connector-curvature="0" />
        </g>
      </g>
    </g>
  </g>
</svg>
