<?xml version="1.0" encoding="UTF-8" standalone="no"?>
<!-- Created with Inkscape (http://www.inkscape.org/) -->

<svg
   xmlns:dc="http://purl.org/dc/elements/1.1/"
   xmlns:cc="http://creativecommons.org/ns#"
   xmlns:rdf="http://www.w3.org/1999/02/22-rdf-syntax-ns#"
   xmlns:svg="http://www.w3.org/2000/svg"
   xmlns="http://www.w3.org/2000/svg"
   xmlns:sodipodi="http://sodipodi.sourceforge.net/DTD/sodipodi-0.dtd"
   xmlns:inkscape="http://www.inkscape.org/namespaces/inkscape"
   version="1.1"
   id="svg2949"
   width="283"
   height="443"
   viewBox="0 0 283 443"
   sodipodi:docname="feu146.svg"
   inkscape:version="0.92.4 (5da689c313, 2019-01-14)">
  <metadata
     id="metadata2955">
    <rdf:RDF>
      <cc:Work
         rdf:about="">
        <dc:format>image/svg+xml</dc:format>
        <dc:type
           rdf:resource="http://purl.org/dc/dcmitype/StillImage" />
        <dc:title></dc:title>
      </cc:Work>
    </rdf:RDF>
  </metadata>
  <defs
     id="defs2953" />
  <sodipodi:namedview
     pagecolor="#ffffff"
     bordercolor="#666666"
     borderopacity="1"
     objecttolerance="10"
     gridtolerance="10"
     guidetolerance="10"
     inkscape:pageopacity="0"
     inkscape:pageshadow="2"
     inkscape:window-width="1280"
     inkscape:window-height="972"
     id="namedview2951"
     showgrid="false"
     inkscape:zoom="1.0654628"
     inkscape:cx="129.71757"
     inkscape:cy="224.72047"
     inkscape:window-x="-8"
     inkscape:window-y="-8"
     inkscape:window-maximized="1"
     inkscape:current-layer="g928"
     showguides="true" />
  <g
     id="g151"
     transform="translate(25.882805,-2.654647)">
    <g
       id="g534"
       transform="translate(-21.900834,-45.792654)">
      <g
         id="g928"
         transform="translate(-3.9819699,-1.3273232)">
        <path
           style="fill:#ffffff"
           d="m 136.85858,393.89371 c -10.02472,-4.363 -7.74053,-18.76635 3.20895,-20.23466 13.75489,-1.84452 18.87206,16.95026 5.61726,20.63156 -4.62371,1.28416 -5.00287,1.26711 -8.82621,-0.3969 z m -28.37829,-1.31463 c -2.75198,-1.37477 -3.84946,-2.80215 -5.13514,-6.67871 -2.68962,-8.10968 0.31619,-12.46686 9.6626,-14.00678 8.03438,-1.32374 13.76618,5.72776 12.05783,14.83406 -1.25407,6.68474 -9.2618,9.50993 -16.58529,5.85143 z m 54.37048,-0.68865 c -4.11558,-1.79105 -7.10724,-8.9997 -5.72914,-13.80485 1.13972,-3.97399 6.46861,-7.75495 10.92981,-7.75495 4.29297,0 9.06042,4.03827 10.52042,8.91133 1.54453,5.15519 -0.6029,9.1896 -6.38003,11.98626 -5.05018,2.44475 -5.21772,2.45663 -9.34106,0.66221 z M 79.015081,379.22704 c -3.955464,-3.47295 -4.500627,-6.64909 -2.119454,-12.34804 1.74879,-4.18544 4.171677,-5.54837 9.863377,-5.54837 11.21441,0 16.254166,14.57035 6.741297,19.48965 -4.954159,2.56189 -10.440008,1.9585 -14.48522,-1.59324 z m 108.965199,2.28336 c -3.16237,-0.59175 -7.41773,-5.22431 -8.08983,-8.80692 -0.77551,-4.13382 2.41681,-8.98478 7.23849,-10.99941 2.88982,-1.20745 3.83031,-1.20015 6.82944,0.053 3.99936,1.67104 7.51272,6.77526 7.51816,10.92239 0.007,5.24122 -7.2621,9.99752 -13.49626,8.83098 z m 22.62307,-13.18179 c -5.28402,-1.24757 -8.31739,-4.96489 -8.88677,-10.89054 -0.44874,-4.67012 -0.24318,-5.2986 2.60254,-7.95689 7.55758,-7.05984 18.2457,-3.27343 19.74146,6.99368 0.26888,1.84567 -0.0957,4.46726 -0.81028,5.82575 -1.20472,2.29044 -7.29818,7.16052 -8.6679,6.92766 -0.33117,-0.0563 -2.12174,-0.46115 -3.97905,-0.89966 z m -154.850989,-5.5259 c -3.210177,-3.21018 -3.477043,-3.90727 -2.962995,-7.73978 0.648979,-4.83851 3.152741,-7.35311 8.278941,-8.31479 7.014726,-1.31597 12.411978,3.44291 12.411978,10.94394 0,4.76805 -4.559677,8.63855 -10.176725,8.63855 -3.270761,0 -4.683139,-0.65986 -7.551199,-3.52792 z M 222.90389,345.08003 c -2.61834,-2.39953 -3.6923,-4.33372 -4.10189,-7.38748 -0.4951,-3.69122 -0.18607,-4.53931 2.86859,-7.87252 2.87591,-3.13816 4.10853,-3.7536 7.70676,-3.84795 3.72046,-0.0976 4.72343,0.36794 7.63268,3.54248 6.27208,6.84403 5.38482,14.28251 -2.07541,17.3996 -5.2359,2.18769 -8.12234,1.74764 -12.03073,-1.83413 z m -184.20681,-0.3101 c -7.90349,-5.53582 -5.706822,-17.19129 3.590431,-19.05075 2.495599,-0.49911 4.09616,-0.0565 7.183349,1.98651 4.22534,2.7962 5.354563,5.29727 4.833104,10.70464 -0.601201,6.23427 -10.200972,10.14604 -15.606884,6.3596 z m 200.318,-19.54289 c -4.78102,-4.19779 -4.93226,-9.2352 -0.43121,-14.36161 2.66894,-3.03976 3.7193,-3.5348 7.5,-3.5348 3.7814,0 4.94517,0.54876 8.31925,3.92284 2.36977,2.36977 3.78573,4.64622 3.57651,5.75 -0.19048,1.00494 -0.38076,2.58013 -0.42284,3.50043 -0.0421,0.92031 -1.24151,3.05781 -2.6654,4.75 -2.23913,2.66106 -3.24769,3.07673 -7.46521,3.07673 -4.02833,0 -5.491,-0.53971 -8.4111,-3.10359 z M 27.258455,322.08063 c -2.898689,-2.25883 -5.770625,-8.18286 -5.774432,-11.91111 -0.0068,-6.67543 7.56051,-10.74406 14.176212,-7.62195 5.803356,2.73875 8.550026,10.86816 5.259346,15.56627 -3.147077,4.49308 -10.314862,6.57439 -13.661126,3.96679 z M 249.13658,303.1981 c -2.1726,-1.26291 -4.6563,-6.75745 -4.6563,-10.30087 0,-3.4155 5.01474,-8.29114 9.36758,-9.10774 9.73942,-1.82712 16.63755,10.68985 9.70934,17.61806 -2.43673,2.43674 -3.72618,2.91802 -7.75,2.89267 -2.6548,-0.0167 -5.65658,-0.51268 -6.67062,-1.10212 z M 20.692197,297.12878 c -6.044106,-1.60854 -9.366451,-11.2771 -5.682429,-16.53678 1.813992,-2.58984 7.572825,-4.39091 11.517268,-3.60202 3.93035,0.78607 7.023666,4.44676 7.639912,9.04121 0.938498,6.99703 -6.344506,12.99519 -13.474751,11.09759 z M 253.36176,277.82754 c -3.13237,-1.70225 -5.88148,-7.07665 -5.88148,-11.49804 0,-4.856 5.537,-9.99887 10.76514,-9.99887 6.41558,0 12.23486,6.05375 12.23486,12.72783 0,7.61494 -9.90534,12.68902 -17.11852,8.76908 z M 14.230263,271.25052 c -5.0831332,-2.96065 -6.489198,-14.27158 -2.295433,-18.46534 3.394476,-3.39448 11.238141,-3.5071 14.246177,-0.20455 6.316066,6.93446 5.609513,14.46973 -1.711767,18.25571 -3.319035,1.71634 -7.699101,1.89352 -10.238977,0.41418 z M 253.45679,252.04883 c -6.44027,-5.14971 -7.68932,-11.76968 -3.17415,-16.82303 2.35812,-2.63919 3.49648,-3.12681 7.18091,-3.07596 5.23491,0.0722 8.82177,2.41398 11.28944,7.37048 2.04515,4.10782 1.42657,6.72504 -2.61409,11.06031 -2.04205,2.19094 -3.43683,2.74353 -6.86087,2.7182 -2.36376,-0.0175 -4.98332,-0.58 -5.82124,-1.25 z M 14.179496,241.07566 c -3.086215,-2.47382 -4.8514141,-8.10129 -3.601248,-11.48081 1.194288,-3.22847 5.495129,-5.56402 10.440745,-5.6698 5.665376,-0.12117 9.359113,3.22489 10.161178,9.20473 0.484398,3.61145 0.184462,4.47035 -2.497768,7.15258 -3.904111,3.90411 -10.192875,4.2481 -14.502907,0.7933 z M 246.30701,227.58677 c -5.09225,-4.20005 -5.76059,-5.39163 -5.79493,-10.33183 -0.033,-4.74718 1.64647,-7.2211 6.65246,-9.79935 7.41754,-3.82027 17.21369,2.07615 17.28247,10.40253 0.041,4.95844 -1.91897,7.89734 -6.99297,10.4859 -5.18399,2.64467 -7.18747,2.50857 -11.14703,-0.75725 z M 20.246254,216.36118 c -3.543683,-2.78746 -4.189953,-7.28364 -1.81776,-12.64637 2.222073,-5.02337 5.644038,-6.87086 10.900016,-5.88483 6.026213,1.13052 10.513036,8.63634 8.65747,14.48271 -1.717151,5.41026 -12.794616,7.93832 -17.739726,4.04849 z M 236.48028,205.54115 c -5.82004,-0.89826 -10.28343,-7.86351 -9.35934,-14.60552 0.80942,-5.90531 3.07475,-7.83393 9.86289,-8.39685 6.62489,-0.54939 9.9528,1.24647 12.17777,6.57156 3.37552,8.07876 -4.09357,17.75623 -12.68132,16.43081 z M 34.480285,196.058 c -1.375,-0.68374 -3.323282,-2.92443 -4.329516,-4.97931 -1.537476,-3.13977 -1.645641,-4.29331 -0.677608,-7.22647 2.314994,-7.01451 10.734236,-9.88388 16.256195,-5.54031 3.366075,2.64775 6.103862,9.49074 4.783889,11.95713 -3.179579,5.9411 -10.448765,8.56575 -16.03296,5.78896 z M 219.98028,179.79544 c -5.62374,-2.79246 -7.07633,-9.82418 -3.21577,-15.56693 2.07581,-3.08786 2.78609,-3.42466 7.78483,-3.69136 4.84312,-0.25841 5.79527,0.0202 7.96578,2.33056 1.94557,2.07097 2.46516,3.68403 2.46516,7.65309 0,4.5138 -0.35472,5.32517 -3.46223,7.91944 -3.84461,3.20962 -7.0459,3.58564 -11.53777,1.3552 z M 48.476902,174.48109 c -5.898999,-5.899 -4.615328,-15.45717 2.533765,-18.86634 3.194005,-1.52311 3.967642,-1.54722 7.670365,-0.23904 4.837706,1.70917 7.466478,4.98134 8.24537,10.26345 0.682995,4.63178 -0.563325,7.18239 -4.759939,9.74124 -4.794801,2.9236 -10.223266,2.56699 -13.689561,-0.89931 z M 199.7366,165.30181 c -3.06296,-1.23144 -6.24805,-6.75277 -6.25258,-10.83883 -0.005,-4.78708 6.3535,-11.13235 11.15611,-11.13235 6.01635,0 10.84015,5.38673 10.84015,12.10518 0,2.44329 -0.96017,4.11788 -4.04211,7.04966 -4.15936,3.9567 -7.10296,4.66517 -11.70157,2.81634 z M 71.235947,162.57584 c -5.21061,-3.23074 -7.147742,-10.65254 -4.245312,-16.26523 1.92855,-3.7294 4.320206,-4.97998 9.523909,-4.97998 3.404176,0 4.787316,0.62157 7.565741,3.4 2.977778,2.97778 3.4,4.03333 3.4,8.5 0,3.79995 -0.520005,5.62 -2.039934,7.13993 -4.127647,4.12765 -9.706926,4.99385 -14.204404,2.20528 z m 103.003193,-6.2156 c -3.39607,-2.67711 -6.27211,-11.55604 -4.90311,-15.13695 1.56776,-4.10081 4.78932,-6.22599 9.43797,-6.22599 5.27152,0 9.00652,2.33892 11.23531,7.03575 4.58921,9.67103 -7.61342,20.75711 -15.77017,14.32719 z m -75.340417,-1.96062 c -4.249291,-1.79627 -7.418438,-6.88985 -7.418438,-11.92321 0,-10.44329 9.515125,-15.12705 18.225005,-8.97115 5.63268,3.98103 5.50477,14.76503 -0.225,18.96831 -3.06112,2.24559 -7.78961,3.10627 -10.581567,1.92605 z m 49.896267,-3.48498 c -5.75168,-2.58765 -7.86453,-9.72152 -4.57619,-15.45113 5.46139,-9.51592 20.23186,-4.70201 20.25489,6.60134 0.0145,7.14328 -8.62831,12.02172 -15.6787,8.84979 z m -25.10214,-1.11487 c -3.72015,-1.58888 -6.21257,-6.34924 -6.21257,-11.86559 0,-3.94885 1.89476,-6.24381 6.872,-8.32343 6.46421,-2.70092 12.53085,0.25884 14.8609,7.25026 2.81566,8.44852 -6.95743,16.596 -15.52033,12.93876 z"
           id="path1308"
           inkscape:connector-curvature="0" />
      </g>
    </g>
  </g>
</svg>
