<?xml version="1.0" encoding="UTF-8" standalone="no"?>
<!-- Created with Inkscape (http://www.inkscape.org/) -->

<svg
   xmlns:dc="http://purl.org/dc/elements/1.1/"
   xmlns:cc="http://creativecommons.org/ns#"
   xmlns:rdf="http://www.w3.org/1999/02/22-rdf-syntax-ns#"
   xmlns:svg="http://www.w3.org/2000/svg"
   xmlns="http://www.w3.org/2000/svg"
   xmlns:sodipodi="http://sodipodi.sourceforge.net/DTD/sodipodi-0.dtd"
   xmlns:inkscape="http://www.inkscape.org/namespaces/inkscape"
   version="1.1"
   id="svg2949"
   width="283"
   height="443"
   viewBox="0 0 283 443"
   sodipodi:docname="feu141.svg"
   inkscape:version="0.92.4 (5da689c313, 2019-01-14)">
  <metadata
     id="metadata2955">
    <rdf:RDF>
      <cc:Work
         rdf:about="">
        <dc:format>image/svg+xml</dc:format>
        <dc:type
           rdf:resource="http://purl.org/dc/dcmitype/StillImage" />
        <dc:title></dc:title>
      </cc:Work>
    </rdf:RDF>
  </metadata>
  <defs
     id="defs2953" />
  <sodipodi:namedview
     pagecolor="#ffffff"
     bordercolor="#666666"
     borderopacity="1"
     objecttolerance="10"
     gridtolerance="10"
     guidetolerance="10"
     inkscape:pageopacity="0"
     inkscape:pageshadow="2"
     inkscape:window-width="1280"
     inkscape:window-height="972"
     id="namedview2951"
     showgrid="false"
     inkscape:zoom="1.5067919"
     inkscape:cx="144.21902"
     inkscape:cy="239.32773"
     inkscape:window-x="-8"
     inkscape:window-y="-8"
     inkscape:window-maximized="1"
     inkscape:current-layer="g928"
     showguides="true" />
  <g
     id="g151"
     transform="translate(25.882805,-2.654647)">
    <g
       id="g534"
       transform="translate(-21.900834,-45.792654)">
      <g
         id="g928"
         transform="translate(-3.9819699,-1.3273232)">
        <g
           id="g1201"
           transform="translate(0,1.3273234)">
          <path
             style="fill:#ff00ff"
             d="m 244.23832,280.12995 c -2.99214,2.1879 2.77678,-2.03044 0,0 z m 8.4807,-23.57707 c 0,4.40573 0,-4.67244 0,0 z m 0.75,-28.22016 c 3.21753,1.687 4.25,2.81695 4.25,4.6513 0,5.94925 -7.80873,-6.51718 -4.25,-4.6513 z m 1.38922,-20.87497 c 2.84885,2.33788 1.94502,4.51099 -3.10697,7.47021 -4.51055,2.64208 -0.70758,-10.60057 3.10697,-7.47021 z M 209.14,120.45483 c 3.18746,2.64535 -3.39662,-2.81895 0,0 z m 19.57902,3.37266 c -8.16361,-2.91178 -17.13013,-9.00506 -19.5097,-13.25798 -5.19241,-9.28024 -4.54199,-34.197904 0.25641,-40.504911 10.05585,-13.217381 30.26609,-17.104735 45.58372,-8.767836 5.81268,3.163659 8.79149,6.541212 12.83705,14.555419 2.91111,5.766885 3.02799,6.47901 2.64263,16.100986 -0.36242,9.048932 -0.71664,10.608892 -3.50198,15.422182 -6.20696,10.72613 -17.64557,17.21254 -30.09564,17.06611 -3.69187,-0.0434 -7.38749,-0.31971 -8.21249,-0.61397 z"
             id="path1211"
             inkscape:connector-curvature="0"
             sodipodi:nodetypes="ccsscsccccccscssscscs" />
          <path
             style="fill:#ffff00"
             d="m 137.35388,476.44782 c -2.63206,-2.07037 -3.58982,-6.95138 -1.86955,-9.52772 2.61511,-3.91648 10.01897,-3.97347 12.73345,-0.098 3.39338,4.84472 -0.12106,11.6983 -5.99876,11.6983 -1.22666,0 -3.41597,-0.93266 -4.86514,-2.07258 z m 19.58765,-2.48412 c -1.52596,-1.06882 -2.22251,-2.58123 -2.22251,-4.82569 0,-6.34172 7.4306,-9.80601 12.86646,-5.99858 1.95069,1.36631 2.21162,2.18574 1.67175,5.25 -1.12326,6.37553 -7.22731,9.13832 -12.3157,5.57427 z m -38.571,-1.53046 c -1.55122,-2.21466 -0.87157,-6.73783 1.42892,-9.50976 3.13336,-3.77546 11.91957,-0.15739 11.91957,4.90836 0,5.94371 -9.99504,9.38913 -13.34849,4.6014 z m -13.90151,-6.99294 c -2.17168,-1.26489 -2.32945,-6.6476 -0.28059,-9.57276 2.29712,-3.2796 5.18781,-3.50645 8.55694,-0.67152 3.62525,3.05045 4.18636,8.60499 1.03939,10.2892 -2.44144,1.30662 -7.0333,1.28448 -9.31574,-0.0449 z m 70.42431,-3.23435 c -5.916,-6.2973 2.03292,-14.85612 9.89143,-10.65037 2.64331,1.41466 2.71361,8.94954 0.10552,11.30983 -2.65509,2.40283 -7.41506,2.08883 -9.99695,-0.65946 z M 95.935329,451.7704 c -1.102893,-0.9625 -2.291544,-3.00832 -2.641447,-4.54626 -0.51086,-2.24541 -0.05367,-3.37878 2.320809,-5.75326 2.630969,-2.63097 3.268122,-2.8387 5.778829,-1.88413 6.45286,2.45337 7.99273,6.54439 4.25292,11.29879 -2.44923,3.11369 -6.712095,3.50212 -9.711111,0.88486 z m 42.186021,-0.75676 c -2.11196,-2.11196 -2.50494,-3.2302 -2.00813,-5.71422 0.89873,-4.49367 2.37932,-5.77902 6.65682,-5.77902 4.22942,0 6.60993,1.80095 7.60124,5.75063 1.76396,7.0282 -6.9019,11.09064 -12.24993,5.74261 z m 17.67383,-4.63691 c -1.8964,-1.76677 -2.20662,-2.84703 -1.76438,-6.14412 0.64704,-4.82409 1.94728,-5.81513 7.18075,-5.47311 5.14222,0.33604 7.27903,3.89303 5.52728,9.20087 -1.68142,5.09476 -6.84496,6.23487 -10.94365,2.41636 z m 28.69012,0.39367 c -0.84903,-0.9625 -1.84315,-3.16067 -2.20914,-4.88482 -0.55925,-2.6345 -0.23629,-3.4724 2.02356,-5.25 3.32162,-2.61279 8.53349,-2.75148 10.76431,-0.28644 2.27705,2.51611 2.10033,7.72592 -0.34501,10.17126 -2.51317,2.51317 -8.11661,2.65005 -10.23372,0.25 z m -64.85727,-3.89723 c -2.05719,-3.32859 -2.12705,-3.87462 -0.79972,-6.25 3.13388,-5.60834 14.14071,-3.08577 14.14071,3.24079 0,4.04233 -2.87605,6.65644 -7.32343,6.65644 -3.25134,0 -4.07018,-0.4963 -6.01756,-3.64723 z m -28.734696,-7.66721 c -2.796731,-2.97699 -2.988098,-9.63912 -0.345573,-12.03056 3.440656,-3.11375 8.460317,-1.93048 10.771669,2.53918 4.03713,7.80696 -4.611755,15.68045 -10.426096,9.49138 z m 76.912346,0.40111 c -2.47286,-2.47287 -2.73404,-7.29642 -0.51523,-9.51523 3.43947,-3.43948 10.45365,-0.58215 10.39677,4.23527 -0.0684,5.79389 -6.12919,9.03231 -9.88154,5.27996 z m -27.69423,-7.60332 c -3.6079,-3.6079 -3.01351,-8.23387 1.38689,-10.79388 2.82641,-1.64432 3.69489,-1.73568 6.28822,-0.66149 3.74363,1.55067 5.1772,4.10496 4.32235,7.7015 -1.54914,6.51764 -7.4023,8.34902 -11.99746,3.75387 z m -24.60313,-1.23335 c -4.46143,-5.13421 -1.6963,-12.25 4.76023,-12.25 2.52519,0 3.82616,0.64374 5.03765,2.49271 4.16565,6.35758 -4.90379,15.38943 -9.79788,9.75729 z m 72.5672,-0.97767 c -4.56815,-3.77713 -3.86428,-8.99093 1.51456,-11.21892 4.71029,-1.95107 9.08326,0.93051 9.11363,6.00546 0.0332,5.54158 -6.4093,8.70182 -10.62819,5.21346 z m -25.90195,-6.72688 c -4.51797,-4.51796 -2.11744,-10.54545 4.19988,-10.54545 3.857,0 7.81091,3.9585 6.88085,6.88884 -0.75743,2.38644 -5.15529,6.11116 -7.21559,6.11116 -0.77583,0 -2.51514,-1.10455 -3.86514,-2.45455 z M 91.71902,416.5204 c -2.553554,-2.55355 -2.645472,-8.10588 -0.171259,-10.34501 4.141988,-3.74845 11.171259,-0.80416 11.171259,4.67921 0,6.88652 -6.454659,10.21114 -11,5.6658 z m 37.90593,-4.55034 c -3.89627,-2.08522 -5.24829,-8.96445 -2.3345,-11.87823 1.76622,-1.76621 10.91421,-2.21269 11.92212,-0.58186 0.33637,0.54426 0.68246,2.76688 0.76908,4.93914 0.25725,6.45092 -5.0944,10.33725 -10.3567,7.52095 z m 20.43105,-2.11861 c -3.53514,-1.83406 -4.30263,-3.06984 -4.32167,-6.95861 -0.0197,-4.0142 2.2258,-5.82699 7.21776,-5.82699 4.91007,0 7.76618,2.91668 7.00704,7.15563 -1.01516,5.66853 -5.22056,8.05931 -9.90313,5.62997 z m 32.21334,-4.68982 c -3.18217,-3.18217 -3.36947,-7.82207 -0.43422,-10.75733 1.69486,-1.69486 2.91792,-2.00855 6.14412,-1.57582 4.67699,0.62731 5.70341,1.84424 5.72447,6.78693 0.017,3.9986 -1.95699,6.36794 -6.18437,7.42286 -2.10867,0.5262 -3.25798,0.11538 -5.25,-1.87664 z m -81.85576,-4.75235 c -2.815146,-1.63769 -3.928907,-5.64877 -2.647022,-9.53291 1.105768,-3.35051 1.684257,-3.71549 5.452462,-3.4401 5.27824,0.38575 6.41456,1.11179 7.05118,4.50526 0.85351,4.54959 -0.0667,7.03711 -3.11745,8.42712 -3.07328,1.40028 -4.38836,1.40821 -6.73917,0.0406 z m 68.70514,-8.65419 c -1.62335,-1.08395 -3.3997,-4.81134 -3.3997,-7.13376 0,-2.54288 2.81472,-4.10093 7.40858,-4.10093 2.90875,0 3.81214,0.52615 5.06574,2.95034 1.98203,3.83283 1.92717,4.64817 -0.47432,7.04966 -1.98933,1.98933 -6.50024,2.63693 -8.6003,1.23469 z m -54.32712,-5.86955 c -2.93637,-3.73299 -2.68062,-7.74169 0.66164,-10.37072 2.00563,-1.57763 3.53426,-1.99072 5.73661,-1.55025 6.19828,1.23965 8.07254,6.56819 4.00895,11.3975 -3.41043,4.05306 -7.4702,4.25726 -10.4072,0.52347 z m 36.66358,-0.61514 c -2.9249,-2.22108 -4.00012,-6.69819 -2.25008,-9.3691 3.64248,-5.55912 11.77378,-3.68249 12.32089,2.84355 0.51157,6.1022 -5.49928,9.99704 -10.07081,6.52555 z m -16.46119,-1.84399 c -1.34275,-0.49671 -2.54734,-2.22475 -3.20713,-4.60075 -1.38734,-4.99599 -1.38883,-4.98427 0.93216,-7.30526 4.36189,-4.36189 12,-0.75959 12,5.65946 0,4.7362 -5.04612,7.9774 -9.72503,6.24655 z m 9.96596,-43.15601 c -3.35712,-3.58377 -4.24773,-7.25374 -4.14125,-17.0651 0.10851,-9.99839 0.80764,-13.82067 2.63961,-14.43133 2.31064,-0.77021 9.26071,18.31336 9.26071,25.42815 0,7.71527 -3.58776,10.52121 -7.75907,6.06828 z m -22.76292,-0.7743 c -3.2656,-3.60845 -1.97109,-16.92077 2.7131,-27.90057 1.75198,-4.10666 2.00603,-4.30656 3.53282,-2.77977 2.25963,2.25964 3.05446,22.4026 1.11294,28.20464 -1.57491,4.70646 -4.46127,5.6775 -7.35886,2.4757 z m -19.88279,-3.14321 c -2.593806,-3.70317 -1.94509,-10.3302 2.01057,-20.5392 5.63643,-14.54683 7.46374,-13.72368 7.11851,3.20671 -0.17702,8.68113 -0.64591,11.84323 -2.2243,15 -2.35265,4.70531 -4.6898,5.49481 -6.90478,2.33249 z m 63.20451,-1.03339 c -4.4321,-5.8196 -9.04038,-30.7991 -5.6819,-30.7991 1.56918,0 1.8331,0.42351 7.12739,11.43739 4.6424,9.65775 6.61074,16.30052 5.79668,19.56261 -0.95077,3.80985 -4.25751,3.71811 -7.24217,-0.2009 z m 23.11042,-6.52815 c -3.42612,-2.88288 -7.76951,-11.45802 -10.96388,-21.64594 -4.5908,-14.64157 -0.39929,-12.70538 12.39828,5.72715 7.52935,10.84465 8.52839,13.7749 5.67068,16.63261 -2.61188,2.61188 -3.22603,2.55019 -7.10508,-0.71382 z m -108.338721,0.15763 c -2.702247,-2.70225 -2.35926,-5.92945 1.425095,-13.40891 3.640497,-7.19514 14.845103,-22.23557 16.022599,-21.50784 1.099286,0.67939 0.542487,4.08725 -2.597157,15.89574 -2.323908,8.74043 -5.814112,15.39209 -9.875189,18.8202 -2.538633,2.14296 -3.01401,2.16215 -4.975348,0.20081 z m 53.954531,-8.3999 c -2.14556,-2.37082 -3.42336,-8.41404 -3.48241,-16.46981 -0.0402,-5.48086 -0.15976,-5.79075 -1.54355,-4 -1.48484,1.92151 -1.51516,1.92151 -3,0 -1.58242,-2.04778 -1.84854,-7.44804 -0.68876,-13.97674 1.09886,-6.18574 2.89763,-5.52175 4.34905,1.60541 1.19206,5.85354 1.32384,6.06378 1.81261,2.89195 0.92478,-6.00117 2.67197,-4.57641 5.0617,4.12757 2.74624,10.00243 3.80031,24.08202 1.96818,26.28959 -1.63609,1.97136 -2.33541,1.89826 -4.47682,-0.46797 z m 19.67945,-1.28118 c -2.10657,-2.53825 -5.09756,-11.67208 -5.7708,-17.62273 -0.38112,-3.36862 -1.08482,-6.12477 -1.56378,-6.12477 -0.47895,0 -0.87083,0.90001 -0.87083,2 0,3.08941 -3.6798,2.51988 -5.41639,-0.83832 -2.45803,-4.75331 -2.28297,-16.16168 0.248,-16.16168 1.17102,0 4.42924,6.72171 5.21079,10.74986 l 0.7276,3.75014 0.115,-3.33333 c 0.15014,-4.35195 1.95304,-3.70646 3.84357,1.3761 0.80957,2.17649 2.61499,6.88223 4.01205,10.45724 2.85699,7.31091 4.3068,13.71283 3.55132,15.68158 -0.6395,1.66652 -2.73016,1.70025 -4.08653,0.0659 z m -38.24328,-2.29313 c -1.65113,-1.98949 -1.43984,-6.92012 0.6548,-15.28047 2.09365,-8.35637 4.97308,-15.1739 6.40881,-15.1739 0.70552,0 0.91071,1.51617 0.57515,4.25 -0.28691,2.3375 -0.79479,7.625 -1.12862,11.75 -1.12928,13.9541 -3.16822,18.48114 -6.51014,14.45437 z m 91.93575,-0.73175 c -6.5829,-4.41211 -21.28532,-29.86831 -17.14788,-29.69036 2.02921,0.0873 11.59951,8.19542 16.48656,13.96774 7.25226,8.56598 9.04646,12.12539 7.78481,15.4438 -1.19792,3.15075 -2.74801,3.21142 -7.12349,0.27882 z M 61.216541,314.51766 c -3.181646,-3.51568 -0.639892,-8.94675 8.081485,-17.26805 10.705966,-10.21485 15.210508,-12.96341 13.896399,-8.47921 -2.401426,8.1945 -11.380662,22.46215 -16.071592,25.53713 -4.07923,2.674 -3.68908,2.66012 -5.906292,0.21013 z m 107.312919,-3.19817 c -3.04334,-4.01318 -4.71358,-7.80271 -8.16375,-18.52237 -2.84987,-8.85457 -3.10106,-10.27672 -1.8151,-10.27672 1.87016,0 17.44886,27.29784 16.98066,29.75443 -0.59506,3.12224 -4.29217,2.6178 -7.00181,-0.95534 z m -70.109204,1.56881 c -2.267695,-2.26769 0.628977,-12.66759 6.353484,-22.81086 6.33776,-11.2299 8.15816,-9.98335 4.69855,3.21743 -3.95443,15.08889 -8.13865,22.50682 -11.052034,19.59343 z m -18.034569,-7.03457 c -1.73749,-1.73749 -0.381879,-6.86129 3.211416,-12.1382 4.553026,-6.68631 18.662177,-21.95399 19.516917,-21.11949 0.74348,0.72586 -5.43392,13.36596 -10.714754,21.92436 -6.168517,9.99702 -9.863825,13.48309 -12.013579,11.33333 z m 106.161073,-3.63059 c -2.83628,-2.16093 -6.65397,-7.04732 -11.07774,-14.17875 -6.93393,-11.178 -7.69689,-12.90628 -5.45079,-12.34731 1.6777,0.41751 18.0008,18.03211 21.85273,23.58172 4.74514,6.83651 1.87074,8.42609 -5.3242,2.94434 z m 37.60095,-2.11847 c -1.68921,-0.7356 -7.12863,-5.89852 -12.0876,-11.47316 -13.21243,-14.8528 -15.02401,-19.20564 -5.15551,-12.38755 3.00632,2.07704 8.83092,6.09293 12.94356,8.9242 6.28135,4.32429 12.87086,10.83353 12.87086,12.71409 0,0.99302 -3.1748,3.63709 -4.32143,3.59901 -0.64821,-0.0215 -2.56066,-0.641 -4.24988,-1.37659 z M 45.564998,298.0817 c -0.966075,-2.12029 -0.688968,-2.97172 2.122477,-6.52147 4.943697,-6.24193 17.316461,-14.15491 19.195143,-12.27623 2.130173,2.13017 -14.993581,21.2364 -19.032898,21.2364 -0.645468,0 -1.673592,-1.0974 -2.284722,-2.4387 z m 66.820692,-1.22797 c -2.11404,-2.11402 2.98979,-16.33333 5.86264,-16.33333 1.75246,0 1.84499,2.15627 0.3847,8.96534 -1.32771,6.1909 -4.12517,9.49017 -6.24734,7.36799 z m 42.38608,-1.28058 c -2.57066,-2.57066 -4.66108,-10.20234 -4.21119,-15.37417 0.21628,-2.48633 1.85558,-0.69184 5.31798,5.82142 4.64628,8.74031 3.96458,14.62412 -1.10679,9.55275 z m 37.34265,-13.30275 c -15.22191,-17.76741 -16.39438,-20.65241 -4.30634,-10.59616 17.48832,14.54883 22.97573,21.84616 16.42776,21.84616 -1.92594,0 -4.64608,-2.52457 -12.12142,-11.25 z m -125.728733,9.58333 c -0.366667,-0.36666 -0.666667,-1.89975 -0.666667,-3.40688 0,-2.98487 3.401588,-6.20863 16.639691,-15.76982 7.632791,-5.51277 8.360309,-5.85211 8.360309,-3.89952 0,1.35703 -8.859405,13.29991 -13.594923,18.32657 -4.340372,4.60724 -8.875103,6.61296 -10.73841,4.74965 z M 166.6967,288.49222 c -3.39053,-4.28089 -6.52949,-12.82001 -5.20097,-14.14853 0.9981,-0.9981 10.92437,12.13754 11.79581,15.60964 1.04408,4.15994 -2.82112,3.30359 -6.59484,-1.46111 z m -67.706739,-0.95517 c 0.666916,-4.97223 9.920789,-18.15825 11.579369,-16.49967 0.57391,0.57391 -2.9332,10.59627 -5.50543,15.73302 -1.71232,3.41949 -2.97095,4.75 -4.49339,4.75 -1.888578,0 -2.057669,-0.42615 -1.580549,-3.98335 z m -66.251453,-4.49317 c -1.901976,-2.29174 0.500085,-7.16292 5.217154,-10.57994 4.200499,-3.04283 22.446521,-9.59371 23.575795,-8.46444 1.189464,1.18947 -14.252996,14.6835 -20.312437,17.74954 -5.183081,2.62262 -7.131641,2.92013 -8.480512,1.29484 z m 53.647179,-0.19015 c -1.741736,-1.74173 -0.13197,-4.42802 5.926407,-9.88966 7.258959,-6.54397 8.996176,-7.74725 10.473836,-7.2547 1.29184,0.43061 -6.856965,11.61514 -11.006389,15.10665 -3.33902,2.8096 -4.270186,3.16138 -5.393854,2.03771 z m 94.184543,-2.04332 c -3.60476,-3.86873 -10.0981,-13.37645 -9.52613,-13.94842 0.64739,-0.64739 11.96094,7.67158 13.92048,10.23588 4.27424,5.59334 0.40443,8.86273 -4.39435,3.71254 z m 50.39216,-2.40382 c -6.77179,-3.49248 -18.77321,-13.82193 -18.14942,-15.62093 0.27771,-0.80091 3.88275,0.0381 11.40605,2.65463 18.59506,6.46709 23.6426,10.05509 19.92472,14.1633 -2.46617,2.72508 -6.24131,2.38227 -13.18135,-1.197 z m -19.66217,-0.63284 c -5.59338,-3.00493 -22.42311,-18.61525 -21.01008,-19.48778 0.51088,-0.31547 5.20388,1.90533 10.42888,4.9351 5.225,3.02976 11.15411,6.38961 13.17581,7.46629 4.63276,2.46728 6.9697,5.82164 5.67172,8.141 -1.25164,2.23657 -2.41679,2.08792 -8.26633,-1.05461 z m -155.3312,1.08437 c -2.428051,-0.97974 -1.340806,-5.16702 2,-7.70255 3.987096,-3.02603 25.874767,-13.84374 26.58112,-13.13738 0.280555,0.28055 -0.466675,1.54982 -1.66051,2.8206 -3.511733,3.73807 -2.532805,3.90312 3.374909,0.56901 3.050035,-1.72133 5.810992,-2.86422 6.135458,-2.53976 1.19928,1.19928 -4.12956,7.60452 -10.141548,12.19008 -5.744828,4.3818 -9.041131,0.94713 -4.293063,-4.47327 l 2.246367,-2.56445 -2.996367,2.5276 c -7.625937,6.43288 -18.148843,13.31774 -19.706528,12.89345 -0.159411,-0.0434 -0.852338,-0.30592 -1.539838,-0.58333 z m 86.47864,-4.4697 c -0.95075,-0.53207 -1.73865,-1.73254 -1.75088,-2.66771 -0.0174,-1.33234 -0.43992,-1.15927 -1.95228,0.79969 -1.71227,2.2179 -2.09643,2.33074 -3.40446,1 -0.81092,-0.825 -1.87994,-3.075 -2.37561,-5 l -0.90122,-3.5 -0.72727,3.80256 c -0.75494,3.94728 -2.9724,5.74197 -4.81631,3.89806 -0.58573,-0.58574 -1.0184,-3.45799 -0.9615,-6.38279 l 0.10346,-5.31783 -1.92922,4.26524 c -2.22771,4.92519 -4.70901,6.37146 -6.56845,3.82853 -1.61996,-2.21542 -0.52928,-6.18253 3.23253,-11.75757 3.81518,-5.65415 5.31033,-5.97974 5.3706,-1.16953 l 0.048,3.83333 1.70197,-3.38847 c 2.11568,-4.21213 3.54359,-4.17866 4.22903,0.0991 l 0.52705,3.28935 1.35458,-2.43021 c 1.30039,-2.33301 1.40932,-2.35537 2.72295,-0.55888 0.7526,1.02924 1.4216,3.02284 1.48667,4.43022 0.11318,2.44769 0.14576,2.43211 0.75,-0.35863 0.80227,-3.70536 2.48576,-4.29293 3.89861,-1.3607 1.01172,2.09971 1.10302,1.9844 1.1654,-1.4718 0.0373,-2.06248 0.51771,-3.74998 1.06771,-3.74998 0.98209,0 1.43336,1.52593 1.03509,3.5 -0.11097,0.55 0.15284,0.6454 0.58625,0.212 0.4334,-0.4334 1.62351,0.6916 2.64468,2.5 1.02118,1.8084 1.54044,2.388 1.15391,1.288 -1.29596,-3.68807 -1.65568,-7.5 -0.70774,-7.5 1.93329,0 8.84834,9.40085 9.84965,13.39037 0.99438,3.96193 -2.2159,4.71313 -5.21942,1.22133 l -2.34242,-2.72322 v 3.05577 c 0,3.41726 -1.86915,4.04374 -4.42857,1.48433 -1.42857,-1.42858 -1.57143,-1.34303 -1.57143,0.94097 0,3.04374 -0.97136,3.78561 -3.27136,2.49847 z m 49.25637,-2.30379 c -2.73115,-1.50059 -9.25983,-9.95608 -8.37247,-10.84343 1.00859,-1.00859 8.92342,2.29359 11.72594,4.89224 4.85873,4.50527 2.29513,9.05475 -3.35347,5.95119 z m -83.4825,-6.55631 c -0.72144,-2.27306 1.02737,-5.64886 5.31403,-10.25792 5.79659,-6.23255 6.62945,-1.49028 1.27328,7.25 -3.09185,5.04534 -5.58005,6.18149 -6.58731,3.00792 z m -84.75251,0.33789 c -2.557244,-0.71962 -2.256357,-5.78438 0.5,-8.4164 4.040466,-3.85821 12.813695,-6.73452 28.461227,-9.33104 6.284756,-1.04288 4.577511,1.89706 -4.711227,8.1129 -10.780682,7.21422 -19.931394,10.8498 -24.25,9.63454 z m 135.8677,-1.59581 c -4.67566,-7.365 -6.92061,-13.71555 -4.8677,-13.76983 0.4125,-0.0109 2.8975,2.35159 5.52223,5.25 l 4.77223,5.26983 -3.02223,-5.65481 c -3.41697,-6.3934 -3.53084,-6.84519 -1.72518,-6.84519 1.18312,0 5.41917,4.07082 10.10697,9.71275 2.56713,3.08964 1.48683,5.57645 -1.86834,4.30082 -2.29095,-0.87102 -2.53568,-0.72517 -2.53568,1.51119 0,1.96745 -0.50814,2.47524 -2.47695,2.47524 -1.47878,0 -3.05256,-0.90671 -3.90535,-2.25 z M 46.077684,264.01268 c -0.866939,-2.25921 2.097915,-6.08959 6.883922,-8.89356 3.279928,-1.92161 25.145799,-9.59872 27.33896,-9.59872 1.444805,0 -0.07025,1.8539 -2.831546,3.46481 -1.7875,1.04282 -5.684183,3.68198 -8.659295,5.86484 -6.448182,4.73103 -17.761168,10.67035 -20.324485,10.67035 -1.005944,0 -2.089345,-0.67847 -2.407556,-1.50772 z m 170.141336,-3.92525 c -3.3,-1.85721 -7.8,-4.29325 -10,-5.41342 -5.11205,-2.60291 -8.03428,-4.95267 -7.19857,-5.78837 0.7154,-0.71539 15.66939,3.2055 19.69857,5.16492 1.375,0.66868 4.1875,1.94066 6.25,2.82663 2.91296,1.25129 3.75,2.17249 3.75,4.12703 0,2.17787 -0.43698,2.5124 -3.25,2.48806 -1.79589,-0.0155 -5.93451,-1.53893 -9.25,-3.40485 z m -148.5,0.0219 c 0,-2.72994 11.524883,-10.58889 15.528256,-10.58889 1.349567,0 1.254511,0.49633 -0.591574,3.08892 -4.558315,6.40157 -14.936682,11.61273 -14.936682,7.49997 z m 31.666667,0.74444 c -1.821951,-1.82194 -0.163267,-4.69928 5.083333,-8.81808 5.13391,-4.03033 8.25,-5.53188 8.25,-3.97541 0,1.39545 -4.06369,8.25006 -6.34942,10.71016 -2.42632,2.61142 -5.52999,3.53726 -6.983913,2.08333 z m 99.363213,-0.44592 c -3.88014,-1.54855 -9.02988,-5.83593 -9.02988,-7.51775 0,-1.75201 3.34752,-1.28559 10.99174,1.5315 4.61738,1.70162 6.41256,4.59395 3.85665,6.2137 -1.67473,1.06132 -2.68859,1.02169 -5.81851,-0.22745 z m 41.97012,0.47809 c -4.53914,-1.74773 -15.1758,-7.17509 -19.6838,-10.04366 -5.14855,-3.27617 -6.94175,-5.02963 -6.05277,-5.91861 1.19665,-1.19664 29.31598,4.10723 30.31104,5.71726 0.29896,0.48374 1.34726,0.87952 2.32956,0.87952 2.12943,0 5.09597,3.03076 5.09597,5.2063 0,0.85184 -0.65735,2.09436 -1.46078,2.76115 -1.66598,1.38263 -8.29531,2.26202 -10.53922,1.39804 z m -68.1497,-4.87186 c -4.20982,-2.30758 -11.83966,-13.49364 -9.20381,-13.49364 1.47825,0 11.10298,7.03944 12.90426,9.43806 3.54834,4.725 1.53879,6.92742 -3.70045,4.05558 z m -78.8503,-3.90475 c 0,-3.45376 6.80689,-8.8857 13.86857,-11.06723 l 2.36858,-0.7317 -1.86858,3.19358 c -2.63095,4.49657 -9.937842,11.01646 -12.346227,11.01646 -1.470616,0 -2.022343,-0.65779 -2.022343,-2.41111 z m 79.47766,-5.71625 c -4.81822,-4.44128 -5.48677,-5.87827 -2.72766,-5.86287 2.88955,0.0161 11.89884,4.63274 12.59841,6.45578 1.12982,2.94428 0.73396,3.53445 -2.37075,3.53445 -2.1517,0 -4.31223,-1.18897 -7.5,-4.12736 z m -35.50241,0.56226 c -1.4792,-3.89058 -1.27456,-17.70134 0.25473,-17.19157 1.88472,0.62824 4.76147,9.68626 4.76599,15.00667 0.003,4.10402 -0.27133,4.75 -2.02072,4.75 -1.25331,0 -2.39633,-0.97731 -3,-2.5651 z m -74.97525,-0.39972 c 0,-2.47621 2.879932,-4.03219 10.5,-5.67298 11.86686,-2.55522 12.540724,-1.38433 2.25,3.90953 -8.227458,4.23246 -12.75,4.85797 -12.75,1.76345 z m 137.39077,-1.14877 c -11.63444,-6.14943 -11.90096,-8.52963 -0.71534,-6.38844 11.22959,2.1496 15.4127,5.0139 12.12457,8.30203 -1.93912,1.93912 -5.13385,1.40329 -11.40923,-1.91359 z M 40.322764,245.9302 c -0.831454,-2.16674 0.07526,-3.36308 3.766304,-4.96937 4.24674,-1.84812 1.719303,-1.77862 -5.725703,0.15743 -7.642344,1.98737 -18.085244,2.34636 -19.760905,0.67931 -0.972153,-0.96716 -0.947437,-1.8036 0.118198,-4 0.741062,-1.52742 1.279961,-3.08131 1.197552,-3.4531 -0.301156,-1.35864 6.551917,-2.22075 16.841279,-2.1186 10.556185,0.1048 18.959531,1.56433 18.959531,3.29297 0,0.50673 -1.802901,1.46148 -4.006447,2.12168 -5.491501,1.64529 -4.525263,2.00154 2.56504,0.94568 12.576905,-1.87286 16.441407,-2.13543 16.441407,-1.11705 0,2.49984 -19.908024,10.05129 -26.498346,10.05129 -2.082807,0 -3.511315,-0.58279 -3.89791,-1.59024 z m 47.890725,0.58129 c -1.303251,-2.1087 0.699647,-4.70295 5.72735,-7.41834 5.745892,-3.10327 12.778181,-5.80603 12.778181,-4.91113 0,0.31507 -2.1375,2.68121 -4.75,5.25809 -7.308092,7.20844 -12.136698,9.69071 -13.755531,7.07138 z m 41.094891,-1.49105 c -0.34511,-1.375 -0.35897,-3.7375 -0.0308,-5.25 0.50291,-2.31789 0.22668,-2.12147 -1.75798,1.25 -2.98179,5.06538 -6.80557,6.08994 -6.79087,1.81955 0.01,-2.81982 5.56997,-10.92639 8.70721,-12.69466 1.32649,-0.74766 1.46237,-0.31075 0.93305,3 l -0.61955,3.87511 1.66622,-3.25 c 0.91642,-1.78749 2.32004,-3.25 3.11915,-3.25 1.17963,0 1.35893,1.31405 0.95314,6.9854 -0.49445,6.91058 -1.82195,10.0146 -4.28297,10.0146 -0.69803,0 -1.5515,-1.125 -1.8966,-2.5 z m 19.6694,-0.15936 c -1.14892,-0.46416 -2.13391,-2.3189 -5.11823,-9.63768 -1.37569,-3.37378 -1.46825,-5.70296 -0.22663,-5.70296 1.41904,0 11.0861,9.49716 11.0861,10.89125 0,3.67618 -2.62317,5.70911 -5.74124,4.44939 z m 65.70451,-3.21168 c -10.96126,-3.94084 -13.96327,-5.27109 -13.96327,-6.18741 0,-0.44869 1.4625,-0.63392 3.25,-0.41164 1.7875,0.22229 7.70945,0.9106 13.15988,1.52955 10.96235,1.24491 16.59012,3.32292 16.59012,6.12576 0,2.83805 -9.70219,2.29973 -19.03673,-1.05626 z m -37.03341,-0.89601 c -5.70805,-3.41341 -11.52125,-7.98383 -10.89936,-8.56923 0.74545,-0.70171 17.86136,4.00164 19.4944,5.35696 2.9388,2.43899 1.22217,6.02182 -2.85669,5.96227 -0.64251,-0.009 -3.22477,-1.24687 -5.73835,-2.75 z m -62.52962,-1.63234 c -0.92332,-2.40611 1.9741,-6.12613 7.85742,-10.08819 5.89668,-3.97105 6.96845,-3.40801 3.43213,1.80304 -2.91565,4.29647 -4.36409,5.77776 -7.9296,8.10947 -2.48714,1.62651 -2.79701,1.6427 -3.35995,0.17568 z m -30.012203,-1.03179 c -1.504404,-3.92041 5.697757,-7.55262 14.996823,-7.56324 l 4.88486,-0.006 -2.38486,1.82704 c -2.94831,2.25871 -10.454983,5.83008 -14.125542,6.72035 -2.039835,0.49475 -2.901939,0.24451 -3.371281,-0.97857 z m 152.767953,-1.10469 c -9.60402,-2.08441 -16.43814,-4.21664 -18.61105,-5.80662 -1.81773,-1.33008 -1.57073,-1.51036 3.516,-2.56636 9.15164,-1.89987 20.5613,-2.89231 24.60796,-2.14044 6.22395,1.15638 10.3311,3.74775 10.3311,6.51828 0,5.32857 -7.10727,6.75946 -19.84401,3.99514 z m -84.48187,-2.5566 c -4.14075,-2.74271 -6.67412,-5.52952 -6.67412,-7.34179 0,-1.39511 3.69619,-0.31419 8.68403,2.53955 4.17493,2.38865 5.35692,3.58217 5.12172,5.17168 -0.46365,3.13351 -1.96018,3.05599 -7.13163,-0.36944 z m -93.990388,0.85204 c -1.740101,-1.27389 -1.728031,-1.4095 0.287798,-3.2338 2.198155,-1.9893 11.194308,-2.77229 17.52847,-1.52559 2.910753,0.5729 2.836381,0.65251 -2.5,2.67572 -7.861605,2.98061 -13.114863,3.69527 -15.316268,2.08367 z m 117.066268,-4.45253 c -3.1625,-1.40874 -5.75,-2.95411 -5.75,-3.43419 0,-0.48007 3.98026,-0.87285 8.84501,-0.87285 7.54711,0 9.10812,0.29072 10.63801,1.98124 1.46733,1.62137 1.56406,2.25711 0.53255,3.5 -1.8562,2.2366 -7.68579,1.75675 -14.26557,-1.1742 z m 23.75,-0.13871 c -4.76105,-2.33036 -5.62859,-3.08987 -4.20132,-3.67822 2.94032,-1.21205 17.62909,0.009 19.21707,1.59752 2.181,2.18169 0.2576,4.07681 -4.64207,4.57382 -3.41214,0.34613 -5.69276,-0.20198 -10.37368,-2.49312 z m -89.16417,-0.73554 c -0.85354,-2.22431 0.32573,-3.07513 8.19922,-5.91557 l 6.96495,-2.51266 -5.19677,0.61949 c -6.08777,0.7257 -10.30323,-0.10341 -10.30323,-2.02647 0,-2.37714 7.15166,-3.29431 15.25,-1.95572 3.78692,0.62594 5.23561,2.34514 2,2.37345 -1.49941,0.0131 -1.53521,0.15737 -0.25,1.00736 1.27201,0.84127 1.12002,1.30032 -1,3.02028 -3.3711,2.73494 -11.5629,6.95705 -13.49814,6.95705 -0.86055,0 -1.83526,-0.70525 -2.16603,-1.56721 z m -71.08583,-0.18194 c -2.433679,-0.28273 -3.25,-0.87022 -3.25,-2.33896 0,-2.94242 3.82385,-3.89438 16.3151,-4.06172 6.151695,-0.0824 9.980331,-0.33412 8.50808,-0.55936 -3.747861,-0.57339 -5.301508,-2.64894 -3.254521,-4.34779 1.286789,-1.06794 2.898699,-1.09849 8.378499,-0.15881 3.731847,0.63994 8.082901,1.70106 9.669009,2.35805 2.781664,1.15221 2.658809,1.22224 -3.467705,1.97665 -8.469775,1.04295 -9.732215,1.69086 -3.648462,1.87244 2.75,0.0821 5.9,0.5039 7,0.93741 1.775496,0.6997 1.663244,0.85744 -1,1.40515 -10.864801,2.23448 -28.536736,3.69684 -35.25,2.91694 z m 43.261609,-1.23206 c -0.417124,-0.67492 -0.01677,-1.94268 0.904673,-2.86475 1.254529,-1.25536 3.874099,-1.71467 10.868325,-1.9056 l 9.215393,-0.25155 -5.5,2.61876 c -6.326656,3.01236 -14.343149,4.25617 -15.488391,2.40314 z m 71.738391,-1.97712 c -3.4375,-1.6262 -6.25,-3.25899 -6.25,-3.62842 0,-0.36942 3.2625,-0.35242 7.25,0.0377 7.4234,0.7264 11.05837,2.58181 10.07557,5.14295 -0.83014,2.16332 -4.22818,1.68707 -11.07557,-1.55229 z m 56.29614,-1.71814 c -7.12462,-0.76885 -13.18659,-1.63065 -13.47104,-1.9151 -1.26706,-1.26705 2.99697,-2.20671 15.25057,-3.36073 14.9197,-1.40512 22.93663,-0.63975 23.49175,2.24275 0.2329,1.20934 -0.75488,2.20331 -3.20834,3.22843 -4.05803,1.69554 -4.58388,1.6909 -22.06294,-0.19535 z m -34.54614,-2.51898 c -6.97299,-1.52053 -6.74776,-2.41868 1.04802,-4.17919 9.02224,-2.03747 11.36346,-2.03941 13.0471,-0.0107 1.1488,1.38422 1.00777,1.88364 -0.98834,3.5 -2.51936,2.04005 -6.06044,2.22645 -13.10678,0.68993 z M 20.412937,221.79874 c -2.559951,-0.38499 -2.779235,-0.74462 -2.5,-4.10017 l 0.306083,-3.67817 5.411436,-0.30786 c 5.29225,-0.30108 18.463013,1.85911 23.870591,3.91511 3.793494,1.44231 1.650305,2.44802 -8.109682,3.8055 -7.726085,1.0746 -13.521541,1.18624 -18.978428,0.36559 z m 117.710043,-0.66802 c -0.90952,-2.37017 1.16334,-4.44302 2.80318,-2.80318 0.94286,0.94286 0.84144,1.57285 -0.46325,2.87754 -1.56053,1.56054 -1.71444,1.55565 -2.33993,-0.0744 z m -52.20075,-0.79747 c -1.494253,-0.75483 -2.193086,-1.88573 -2,-3.23653 0.263887,-1.84613 0.961968,-2.06961 6.29679,-2.01579 3.472623,0.035 7.684918,0.81226 10,1.84511 3.70427,1.65264 3.83867,1.84724 1.81789,2.63213 -3.924511,1.52432 -13.700661,1.99453 -16.11468,0.77508 z m 70.4792,-0.61008 c -8.06924,-0.3518 -8.52583,-1.9522 -1.11514,-3.90867 6.86343,-1.81198 11.93273,-1.34835 11.93273,1.09135 0,2.4992 -2.59752,3.17569 -10.81759,2.81732 z m 39.06759,-1.8921 c -3.43486,-0.89762 -1.63324,-2.26054 6.30162,-4.76716 9.1769,-2.89899 11.24822,-3.09207 12.8224,-1.1953 1.21269,1.46119 -0.34191,3.3449 -4.55828,5.52329 -2.12069,1.09567 -11.02614,1.36417 -14.56574,0.43917 z m 28.32948,-2.07689 c -2.98128,-0.96628 -5.5963,-2.28423 -5.81115,-2.92878 -0.23966,-0.71898 3.40123,-2.38982 9.42052,-4.32315 8.40806,-2.70056 10.98593,-3.10336 18.02584,-2.81653 6.20396,0.25277 8.64755,0.76763 9.98305,2.10345 6.62088,6.62241 -17.22606,12.62973 -31.61826,7.96501 z M 53.283902,214.98186 c -11.643529,-1.40726 -15.820619,-2.8774 -15.343664,-5.40023 0.62401,-3.30066 10.491862,-2.23879 29.566765,3.18167 4.008391,1.13905 7.522448,2.45037 7.809017,2.91405 0.728249,1.17833 -9.093622,0.86828 -22.032118,-0.69549 z m 61.497958,0.15338 c -1.13456,-0.50626 -2.06284,-1.7517 -2.06284,-2.76765 0,-1.38725 0.7497,-1.84719 3.0109,-1.84719 3.08757,0 11.54991,3.48036 12.60219,5.18299 0.73741,1.19315 -10.67544,0.71462 -13.55025,-0.56815 z m 31.93716,0.66789 c 0,-1.22141 3.46026,-4.22926 8.72856,-7.58736 6.5058,-4.14691 11.34938,-3.30289 7.11688,1.24016 -3.15509,3.3866 -15.84544,8.46996 -15.84544,6.3472 z m 29.5,-2.18602 c -2.97334,-0.75981 -2.94224,-0.79475 3.5,-3.93088 7.08835,-3.45066 10.47998,-3.96336 11.34287,-1.71469 1.59902,4.16697 -7.33357,7.56455 -14.84287,5.64557 z M 67.524824,211.12166 c -5.311031,-1.42981 -7.805804,-3.14404 -7.805804,-5.3636 0,-3.16235 18.293247,1.15925 22.964286,5.42509 1.237336,1.13 0.539881,1.3268 -4.5,1.26977 -3.280357,-0.0371 -8.076674,-0.63619 -10.658482,-1.33126 z m 24.450359,0.42394 c -6.220278,-1.47668 -8.412368,-5.44592 -3.66557,-6.63729 4.310195,-1.08179 17.409407,3.95465 17.409407,6.69365 0,1.08416 -9.096697,1.04686 -13.743837,-0.0564 z m 30.091187,-1.59196 c -5.8675,-2.83968 -7.82014,-4.7588 -7.00451,-6.88427 0.86905,-2.26472 5.41611,-0.26329 11.2226,4.9397 5.81799,5.21332 4.1371,5.98822 -4.21809,1.94457 z m 18.70282,0.66051 c -1.28413,-2.39943 -1.36485,-14.04805 -0.11107,-16.02945 1.32881,-2.09998 4.04815,0.42266 4.1051,3.80814 0.0417,2.47659 0.15794,2.4121 2.02389,-1.12244 3.25752,-6.17051 7.56274,-3.93407 5.09645,2.64746 l -1.1626,3.10254 2.43082,-3 c 2.2866,-2.82202 2.53301,-2.89973 4.15334,-1.30998 1.62982,1.59908 1.62589,1.8375 -0.073,4.43038 -2.07961,3.17388 -8.6071,9.36781 -9.8797,9.37482 -0.47665,0.003 -0.62045,-0.93664 -0.31955,-2.08727 0.49072,-1.8765 0.37395,-1.94369 -1.13337,-0.6521 -3.11221,2.66679 -4.06795,2.82288 -5.13028,0.8379 z M 104.96902,208.173 c -3.77695,-1.23906 -4.06346,-2.14688 -1.16681,-3.69712 1.6619,-0.88943 2.47082,-0.76408 4,0.6198 1.87431,1.69624 2.65514,4.56315 1.16681,4.28411 -0.4125,-0.0773 -2.2125,-0.6204 -4,-1.20679 z m 20.25,-2.76268 c -6.49586,-4.82825 -8.56964,-8.88992 -4.53896,-8.88992 2.15008,0 5.24649,2.8475 8.15563,7.5 3.37519,5.39785 2.32075,5.80308 -3.61667,1.38992 z m 4.08221,-2.60041 c -1.97022,-3.14982 -3.58221,-6.52851 -3.58221,-7.50822 0,-2.22539 2.75149,-2.31615 5.12403,-0.16904 1.66053,1.50277 1.82605,1.43486 2.43715,-1 0.9039,-3.60143 2.26634,-3.26929 4.04427,0.9859 2.03263,4.86476 1.47455,6.94604 -1.80355,6.72607 -2.43774,-0.16359 -2.5617,0.0265 -1.78448,2.73651 1.44578,5.04114 -0.71341,4.17886 -4.43521,-1.77122 z m 4.1009,-4.47701 c -0.31922,-0.79773 -0.55618,-0.56077 -0.60416,0.60417 -0.0434,1.05417 0.19292,1.64479 0.52522,1.3125 0.33229,-0.33229 0.36781,-1.1948 0.0789,-1.91667 z m 3.31689,8.6875 c 0,-0.825 0.45,-1.5 1,-1.5 0.55,0 1,0.675 1,1.5 0,0.825 -0.45,1.5 -1,1.5 -0.55,0 -1,-0.675 -1,-1.5 z m 63.5,0.66456 c 1.61703,-1.71554 22.74385,-7.9848 29.12979,-8.64409 7.24529,-0.74802 9.64912,0.40887 6.97936,3.35892 -3.16853,3.50119 -10.30267,5.21703 -24.10915,5.79856 -9.14506,0.38517 -12.70347,0.23293 -12,-0.51339 z m -30.5,-1.03594 c 0,-1.91885 11.82677,-10.12862 14.59102,-10.12862 6.04566,0 2.1158,5.99961 -5.48465,8.37328 -6.56308,2.04968 -9.10637,2.53993 -9.10637,1.75534 z m -75.5,-3.4242 c -4.22509,-2.25649 -6.094529,-3.87001 -6.319551,-5.45442 -0.272457,-1.91841 0.137557,-2.25 2.782119,-2.25 3.85617,0 8.997137,2.11637 11.223882,4.6205 1.58193,1.779 1.58193,2.03264 0,4.09244 l -1.68645,2.19589 z m -62.74168,0.80648 c -10.531734,-1.53002 -13.75832,-3.32198 -13.75832,-7.64094 0,-2.37631 0.356104,-2.94729 1.551938,-2.4884 0.853566,0.32754 1.30615,0.19784 1.005743,-0.28823 -1.614178,-2.6118 7.315858,-2.73058 14.535769,-0.19335 6.79325,2.38729 19.123231,9.19023 19.665118,10.85002 0.532873,1.63218 -10.940547,1.51291 -23.000248,-0.2391 z m 36.24168,-1.02315 c -15.6194,-2.72238 -27.9782,-7.90452 -27.993167,-11.73775 -0.01007,-2.58017 8.65089,-2.36112 14.754065,0.37317 9.973699,4.46832 21.820044,10.22539 23.711608,11.52333 1.897719,1.30218 1.878762,1.34962 -0.5,1.25098 -1.359878,-0.0564 -5.847506,-0.69077 -9.972506,-1.40973 z m 125,-0.29424 c 0,-1.82813 14.39181,-8.39076 17.59645,-8.02392 4.88594,0.55929 4.30743,3.54304 -1.15549,5.95955 -5.39073,2.38459 -16.44096,3.77208 -16.44096,2.06437 z m -116.207082,-2.603 c -3.688895,-1.30202 -8.058816,-3.43003 -9.710935,-4.72891 -3.699956,-2.90887 -3.607743,-5.47747 0.182268,-5.07709 2.971281,0.31389 17.735749,9.6632 17.735749,11.23082 0,1.36516 -0.595304,1.2618 -8.207082,-1.42482 z M 102.21902,197.951 c -7.359642,-3.81985 -11.192168,-10.4306 -6.047053,-10.4306 4.936143,0 9.772183,4.09692 12.099203,10.25 0.8524,2.2539 -1.89935,2.33601 -6.05215,0.1806 z m 61.5,0.25923 c 0,-0.79472 0.69957,-2.02553 1.5546,-2.73514 0.85502,-0.70961 2.02471,-2.16862 2.59929,-3.24224 0.96992,-1.8123 0.75206,-1.78756 -3.04341,0.34561 -2.24846,1.26371 -4.37871,2.00704 -4.7339,1.65186 -1.61721,-1.61722 5.76849,-13.64683 9.65596,-15.72734 1.56887,-0.83963 2.45611,-0.82193 3.53138,0.0705 2.03783,1.69125 1.78129,4.23837 -0.75114,7.45783 -1.20297,1.52933 -1.76547,2.58808 -1.25,2.35277 0.51547,-0.2353 2.14602,-1.03504 3.62345,-1.7772 2.98679,-1.50035 5.81377,-0.89384 5.81377,1.24731 0,2.4475 -3.87066,6.42718 -8.25389,8.48635 -6.5553,3.07958 -8.74611,3.54793 -8.74611,1.86972 z m -54.07388,-4.52172 c -9.13067,-5.79051 -12.735551,-13.28625 -6.7233,-13.97998 3.61307,-0.41689 6.88536,3.2767 11.23722,12.684 0.85798,1.85467 1.55996,3.54217 1.55996,3.75 0,0.948 -1.95488,0.15817 -6.07388,-2.45402 z m 83.59602,1.86771 c -0.45764,-0.74048 1.87172,-2.93733 5.94307,-5.60498 3.39355,-2.22354 2.54695,-3.00561 -1.17185,-1.08254 -3.9425,2.03874 -16.30071,5.97768 -16.89382,5.38457 -0.67978,-0.67978 8.14418,-7.88309 14.21106,-11.601 5.52873,-3.38811 10.10049,-4.04834 11.04207,-1.59462 0.32444,0.84549 -0.20536,2.41599 -1.17735,3.49002 -1.20464,1.33111 0.74642,0.68097 6.12872,-2.04225 9.25896,-4.68464 16.98852,-6.21035 18.00768,-3.55447 1.26538,3.29752 -1.43722,6.59287 -7.87935,9.60751 -6.4106,2.99988 -27.45481,8.22006 -28.21023,6.99776 z m 29.43672,-2.48625 c 3.52956,-4.25286 21.50128,-11.54957 28.44648,-11.54957 6.2192,0 7.48674,4.49324 2.34466,8.31153 -4.48692,3.3318 -10.94413,4.68847 -22.31526,4.68847 -8.34369,0 -9.51349,-0.20018 -8.47588,-1.45043 z M 68.21902,188.09471 c -13.462027,-5.43687 -19.593395,-10.28259 -18.061603,-14.27437 1.355409,-3.53214 10.364734,0.7717 22.12045,10.56715 9.689676,8.07392 8.789402,8.89621 -4.058847,3.70722 z m 86.51473,2.17569 c 0.0336,-2.8542 3.70449,-12.78226 5.43199,-14.69112 2.40432,-2.65675 3.3517,-2.59541 4.67208,0.30251 1.30115,2.85572 -0.68669,7.39358 -5.42692,12.38861 -3.2638,3.43925 -4.70135,4.05396 -4.67715,2 z m -99.51473,-1.2299 c -0.55,-0.1771 -5.05,-1.54323 -10,-3.03584 -18.850092,-5.68398 -25.079821,-9.97611 -21.008793,-14.47454 3.508128,-3.87644 11.865261,-1.68668 23.008793,6.02883 8.935803,6.18693 13.96278,13.40162 8,11.48155 z m 58.6872,-4.04476 c -6.33529,-7.19727 -6.60138,-13.06212 -0.49519,-10.91469 3.29666,1.15938 5.97705,5.51758 6.88482,11.19445 0.92042,5.75598 -1.1568,5.66503 -6.38963,-0.27976 z m 34.86543,-0.76517 c -0.0879,-9.6722 5.4885,-17.67749 7.89849,-11.33874 1.19816,3.15141 -0.70819,8.55526 -4.71658,13.36989 l -3.12927,3.75869 -0.0526,-5.78984 z m -68.574822,2.41876 c -4.714597,-2.1417 -10.766933,-7.8521 -9.866479,-9.30905 0.344033,-0.55666 1.975594,-0.81397 3.625692,-0.57178 l 3.000178,0.44034 -3.316425,-2.59422 c -1.824034,-1.42681 -5.961982,-5.13313 -9.19544,-8.23625 -4.884957,-4.68805 -5.82375,-6.12528 -5.552174,-8.5 0.242829,-2.12335 0.93393,-2.94386 2.688682,-3.19217 2.68413,-0.37981 8.71084,5.3605 18.405476,17.53083 7.033416,8.8295 7.658272,11.63241 1.705188,7.64889 -1.640984,-1.09805 -1.211353,-0.32718 1.277494,2.29217 5.896149,6.20533 4.824181,7.94203 -2.772192,4.49124 z m 61.711212,0.22427 c -1.23339,-2.30462 -2.7299,-11.6834 -2.43974,-15.29014 0.43658,-5.42683 5.57178,-6.61636 6.835,-1.58328 0.89552,3.56803 -0.45058,14.95512 -2.02192,17.10404 -1.23275,1.6859 -1.35394,1.67413 -2.37334,-0.23062 z m -8.24224,-1.63461 c -1.92768,-2.75345 -4.30481,-14.62199 -3.40058,-16.97839 0.85965,-2.24022 3.1245,-2.23506 4.29912,0.01 1.70467,3.25785 3.19672,12.50896 2.56263,15.88896 -0.73538,3.91992 -1.34053,4.10868 -3.46117,1.07963 z m -10.45518,-3.14272 c -1.426,-2.43327 -2.86031,-6.07313 -3.18738,-8.08858 -0.54526,-3.36005 -0.41051,-3.63633 1.62206,-3.32587 1.97466,0.30161 3.20698,1.90015 6.22502,8.07502 0.46678,0.95504 0.8487,3.09253 0.8487,4.75 0,4.42825 -2.45506,3.79958 -5.5084,-1.41057 z m 62.5084,2.25453 c 0,-0.67152 1.2375,-2.55268 2.75,-4.18034 2.77806,-2.98958 1.94841,-2.84278 -2.90437,0.51391 -1.4599,1.00981 -3.61324,1.83603 -4.78518,1.83603 -1.81122,0 -1.97244,-0.29593 -1.0749,-1.97299 2.50103,-4.67323 11.20391,-14.02701 13.05091,-14.02701 2.5331,0 2.68003,4.51431 0.26126,8.02749 -1.19831,1.74054 -1.27233,2.14702 -0.25,1.37308 0.79876,-0.60469 4.37728,-3.35906 7.95228,-6.12083 7.71206,-5.95772 13.96253,-9.27974 17.46016,-9.27974 6.78748,0 -0.59619,7.68218 -15.13023,15.74191 -16.0707,8.91189 -17.32993,9.49962 -17.32993,8.08849 z m -96.983153,-6.59148 c -7.187562,-5.65181 -10.428935,-10.4935 -8.390063,-12.53237 1.881393,-1.88138 10.187782,6.04532 12.381692,11.81574 1.707829,4.49193 0.976517,4.62324 -3.991629,0.71663 z m 121.531453,-0.50419 c 0.65528,-1.70762 12.67883,-12.57792 17.62545,-15.9349 4.00333,-2.7168 11.50443,-4.52104 14.31397,-3.44292 2.93329,1.12561 1.8151,6.4918 -2.1276,10.21024 -2.00193,1.88807 -4.0136,3.43285 -4.47036,3.43285 -0.45677,0 -3.31307,1.13556 -6.34733,2.52346 -8.26481,3.7804 -19.97206,5.75971 -18.99413,3.21127 z M 50.802558,169.48111 c -9.436481,-4.72362 -12.611509,-6.8438 -14.574189,-9.73214 -3.01571,-4.43802 -3.126815,-5.82774 -0.57509,-7.19339 5.130123,-2.74555 11.953519,0.32415 21.390712,9.62325 8.869328,8.73954 11.312378,13.34157 7.082551,13.34157 -0.69253,0 -6.688323,-2.71768 -13.323984,-6.03929 z m 48.813095,1.28929 c -7.827329,-8.36429 -10.75995,-15.25 -6.494967,-15.25 2.492619,0 8.570814,8.45804 9.978764,13.88585 0.72963,2.81279 1.03384,5.11415 0.67603,5.11415 -0.35781,0 -2.22973,-1.6875 -4.159827,-3.75 z m 73.644347,-1.5 c 1.26328,-5.86609 5.83042,-12.75 8.45902,-12.75 1.59154,0 1.15873,5.31761 -0.65336,8.02749 -2.4098,3.60372 -6.58169,7.97251 -7.61319,7.97251 -0.4908,0 -0.57741,-1.4625 -0.19247,-3.25 z m 7.45902,2.21483 c 0,-2.6085 10.65203,-16.60832 16.66165,-21.8982 4.56624,-4.01937 8.74522,-5.24227 9.62511,-2.81663 0.24939,0.6875 -0.15107,2.825 -0.8899,4.75 l -1.34335,3.5 3.22325,-3.99673 c 4.73171,-5.86719 21.14164,-9.18302 19.22125,-5.15439 -1.25583,2.63382 -9.29852,9.20034 -17.35113,14.16647 -0.90551,0.55845 -3.53648,2.29091 -5.84659,3.84993 -2.31011,1.55902 -4.67592,2.67601 -5.25734,2.48221 -0.58143,-0.19381 0.58378,-2.78901 2.58935,-5.76712 l 3.64649,-5.41473 -3.24214,2.41718 c -1.78319,1.32945 -3.95945,2.86718 -4.83614,3.41718 -0.87668,0.55 -4.51789,3.3625 -8.09157,6.25 -6.55799,5.29841 -8.10894,6.1046 -8.10894,4.21483 z M 86.010013,164.2704 c -9.315755,-9.51385 -15.189288,-20.75 -10.846757,-20.75 2.567433,0 6.266638,4.29499 11.97209,13.90026 7.950093,13.38419 7.565468,15.72535 -1.125333,6.84974 z m 27.056827,1 c -3.83432,-4.31185 -8.34782,-12.10925 -8.34782,-14.42144 0,-3.05195 2.98199,-3.09363 5.61994,-0.0786 2.12781,2.432 6.0965,10.31551 6.41858,12.75 0.59916,4.52893 -0.68012,5.13553 -3.6907,1.75 z m 49.2402,-2 c 1.05448,-7.32698 2.36976,-11.47921 4.40472,-13.90533 1.67925,-2.00204 2.11349,-2.12547 2.97163,-0.84467 2.61378,3.90116 0.78978,10.96799 -4.3233,16.75 -2.92299,3.30539 -3.73961,2.77045 -3.05305,-2 z m -11.01495,0.5 c -0.91327,-4.28694 -0.98612,-12.32699 -0.15404,-17 0.57365,-3.22163 1.21092,-4.25 2.63368,-4.25 3.03119,0 4.25156,3.59396 3.49402,10.28978 -0.71118,6.28595 -3.18906,13.71022 -4.57585,13.71022 -0.44659,0 -1.0756,-1.2375 -1.39781,-2.75 z m 17.42693,1.37084 c 0,-3.23145 10.61,-25.36179 13.84161,-28.87084 4.64272,-5.0413 6.72504,-3.35743 5.01412,4.05466 -0.83902,3.63486 -3.29121,7.8578 -9.05298,15.59027 -7.55741,10.14226 -9.80275,12.25547 -9.80275,9.22591 z m -31.28935,-0.28371 c -0.28329,-0.46042 -1.04185,-3.53713 -1.68568,-6.83713 -2.16208,-11.08188 0.12053,-21.33808 3.07827,-13.83128 2.30566,5.85179 1.04087,24.62336 -1.39259,20.66841 z m -14.1938,-7.30388 c -3.07252,-6.06331 -3.5655,-14.38184 -0.82099,-13.8533 2.71143,0.52217 5.45022,6.33944 6.03837,12.82568 0.46114,5.08552 0.29762,5.99437 -1.0785,5.99437 -0.94051,0 -2.67954,-2.08687 -4.13888,-4.96675 z M 70.085696,156.65346 C 58.5449,150.28943 49.811032,142.00966 49.752447,137.37739 c -0.03747,-2.96238 1.47717,-3.85699 6.530169,-3.85699 2.557869,0 4.20952,0.84129 6.668212,3.39654 4.781494,4.96927 9.768192,11.63472 9.768192,13.05662 0,0.68028 0.9,2.05136 2,3.04684 1.905847,1.72478 2.830596,6.52006 1.25,6.48188 -0.4125,-0.01 -3.059996,-1.29193 -5.883324,-2.84882 z m 28.455227,-2.88306 c -7.552273,-9.99515 -12.048647,-21.25 -8.489495,-21.25 1.570314,0 8.667592,7.87761 8.667592,9.62057 0,0.65992 1.34965,4.05276 2.99921,7.53965 1.64957,3.48688 2.99957,6.90228 3,7.58978 0.002,2.61516 -2.72333,1.07121 -6.177307,-3.5 z m 32.785137,1.16836 c -1.25747,-3.27692 -4.65957,-21.13376 -5.26261,-27.62226 -0.54133,-5.82447 -0.39082,-6.84106 1.09738,-7.41214 1.09926,-0.42183 2.51051,0.12295 3.89147,1.5022 2.01744,2.01496 2.18858,3.29909 2.48402,18.63895 0.19419,10.08293 -0.0553,16.47489 -0.64301,16.47489 -0.52817,0 -1.23343,-0.71174 -1.56725,-1.58164 z m 11.84927,-2.86115 c -0.36643,-2.44354 -0.50651,-8.32532 -0.31128,-13.07062 0.31613,-7.68373 0.21788,-8.29182 -0.8979,-5.5572 -2.41464,5.91798 -3.55179,3.36431 -6.20271,-13.92939 -2.70486,-17.64548 -0.0198,-26.733101 6.8175,-23.073892 3.7075,1.984191 6.32237,13.755772 4.27804,19.258792 -0.47302,1.27331 -1.18674,4.10027 -1.58603,6.28213 l -0.72598,3.96702 1.97141,-2.43459 c 1.62154,-2.00252 2.23657,-2.21453 3.46551,-1.1946 3.18287,2.64155 2.8445,11.19613 -0.93725,23.69514 -3.60849,11.92642 -4.80592,13.16176 -5.87131,6.05721 z m 15.56212,3.69279 c 0.0295,-1.20138 2.96729,-17.57666 3.49836,-19.5 0.26577,-0.9625 0.75874,-2.71364 1.09549,-3.89143 0.48175,-1.68492 -0.048,-1.41843 -2.48498,1.25 -4.56958,5.0036 -5.333,3.08116 -4.80843,-12.10857 0.43995,-12.73905 1.23022,-16.40623 4.16881,-19.34482 2.94917,-2.94917 5.4519,-2.046 7.56447,2.72983 2.11277,4.77626 1.73369,9.43484 -1.50814,18.53371 l -1.57434,4.41871 2.10548,-1.90544 c 2.07115,-1.87436 2.12848,-1.87399 3.51517,0.0224 1.84345,2.52107 1.79006,3.44605 -0.62484,10.82714 -3.55103,10.85366 -7.91803,19.71845 -9.71376,19.71845 -0.68845,0 -1.24343,-0.3375 -1.23329,-0.75 z m -42.26416,-2.27043 c -1.58719,-2.47101 -3.69683,-6.98757 -7.69744,-16.47957 l -2.10736,-5 0.27527,5 c 0.4112,7.46933 -2.23568,6.83231 -8.310236,-2 -6.770569,-9.84429 -9.870871,-16.33596 -10.553201,-22.09717 -1.014714,-8.56767 3.441325,-9.68433 9.940113,-2.49095 3.287964,3.63938 7.698584,13.27393 7.698584,16.81677 0,1.43978 0.17527,1.41392 1.35539,-0.2 3.35005,-4.58146 7.76839,3.02953 10.29575,17.73537 1.70563,9.92452 1.45349,12.37473 -0.89687,8.71555 z M 91.090004,108.32478 c 0.589102,-0.3826 0.72216,-1.04457 0.295683,-1.47104 -0.926485,-0.92649 -2.662299,1.54771 -2.572407,3.66666 0.05656,1.33334 0.127079,1.33334 0.634631,0 0.314049,-0.825 1.05299,-1.81303 1.642093,-2.19562 z m 95.629016,43.85217 c 0,-1.73414 4.46495,-12.37409 7.19959,-17.15655 5.98113,-10.46008 7.23869,9.13656 -1.85396,15.3459 -2.80311,1.91423 -5.34563,2.77542 -5.34563,1.81065 z M 77.225902,138.88515 C 68.38693,130.14511 65.71902,125.92302 65.71902,120.67497 c 0,-6.89953 5.833018,-6.54146 12.107937,0.74328 5.813845,6.74946 11.869417,23.76205 9.073158,25.49023 -0.528012,0.32633 -4.881408,-3.28417 -9.674213,-8.02333 z m 96.215228,-0.062 c -0.83608,-1.45542 3.31312,-16.69657 6.07164,-22.30279 1.48844,-3.02499 3.25256,-5.39289 3.92026,-5.26199 0.67587,0.1325 0.97395,-0.3876 0.67244,-1.17331 -0.31417,-0.81872 0.4025,-1.91656 1.70683,-2.61462 3.39864,-1.81889 5.17624,1.13429 4.65875,7.73973 -0.43533,5.55665 -2.06757,8.42833 -10.40737,18.31019 -4.90953,5.81733 -5.88039,6.59471 -6.62255,5.30279 z m -53.94056,-4.05279 c -2.28222,-2.61305 -8.53188,-20.16106 -8.81464,-24.75 -0.64119,-10.406149 0.32625,-12.396184 5.40646,-11.121132 3.56368,0.894426 6.3923,8.468972 7.21059,19.308682 0.69116,9.15559 -0.054,18.31245 -1.49025,18.31245 -0.43105,0 -1.47153,-0.78749 -2.31216,-1.75 z"
             id="path1209"
             inkscape:connector-curvature="0"
             sodipodi:nodetypes="cscsccscscccsccscscccsccscssssscscscccccscscssccsscccscccccccccccscccscccssscssssscccsccsscsccccscsssccccsscscscscsccccccsscsscsssscssssscscsscccssscsscsssscccscccssccssssccscscccssscssccsccsssssscscscssccscscssccscsccsccccssccsscsssscssccsssccsssssscssscccscssscsscscsccccccccccccsccccccccccssscccsccscccscccscsccsccccscscscsccccccscccssscccscssccssccssccsccccccsccsssscssscssssscsccsscccsccscccsscccsccccscsssssssscsscscssccssccssscccccssccscscccsscssccsscsccccscccccccsccscscsscscccssssscsscccscccscccssccccscssccsssscccsccccsccscsccscsccscccccccscsssccscccccccscscsscsccccscsccssscscssccsscscscccsscccssccsccsccccccccccssccccccccssccsccscsccccccsssssccsccsscsssscscssscssssccscccsccsssssssssssccccccsccssssccsscsscscccsssscssscssssccsccccsscccscccsccccccccssccccccsscccscsccccccscsscscscscsssscssccscsscsscssssscsscssscssccccccsccccccssssscscccccccscccscscsscsscscccssscscsssccssscccscsccsscsccsscscsscscccccccscccsscccsccsssscsccccccsscscsscccccccsscccsssc" />
          <path
             style="fill:#00ffff"
             d="m 137.35388,476.44782 c -1.86824,-1.46956 -2.6304,-2.99706 -2.61955,-5.25 0.0192,-3.99192 0.84556,-5.29382 4.15972,-6.55387 5.44141,-2.06882 10.77029,1.65485 10.81023,7.55387 0.0177,2.61229 -4.3749,6.32258 -7.48526,6.32258 -1.22666,0 -3.41597,-0.93266 -4.86514,-2.07258 z m 19.36514,-2.92742 c -2.59643,-2.59643 -2.53842,-6.04579 0.15934,-9.47544 1.89474,-2.40878 2.65629,-2.6785 6.21491,-2.20119 4.90616,0.65806 6.9092,3.01814 6.0744,7.15717 -1.22213,6.05949 -8.32863,8.63948 -12.44865,4.51946 z m -37.8,-0.2 c -1.68787,-1.68786 -1.49235,-6.93759 0.3567,-9.57749 1.78442,-2.54761 6.85689,-2.98367 9.68984,-0.83299 2.84749,2.16172 3.23113,6.74711 0.78315,9.36048 -2.34857,2.50725 -8.75162,3.12807 -10.82969,1.05 z m -14.62857,-8.37142 c -3.20657,-3.20657 -1.06224,-10.54395 3.42433,-11.71722 3.31169,-0.86603 8.00424,3.73163 8.00424,7.84235 0,2.31422 -0.60831,3.70148 -1.93426,4.41112 -2.85951,1.53035 -7.70116,1.25689 -9.49431,-0.53625 z m 70.60288,-2.74302 c -2.98185,-3.17404 -2.7961,-7.05129 0.46055,-9.61298 2.87776,-2.26364 6.41299,-2.65251 9.43088,-1.0374 2.64331,1.41467 2.71361,8.94955 0.10552,11.30983 -2.65509,2.40283 -7.41506,2.08883 -9.99695,-0.65945 z M 96.455177,452.2704 c -0.905356,-0.6875 -2.13863,-2.57536 -2.74061,-4.19524 -1.448771,-3.89854 1.319226,-7.91619 5.760524,-8.3612 4.101079,-0.41092 8.583379,4.11349 7.733789,7.80644 -1.14916,4.9951 -7.01747,7.58718 -10.753703,4.75 z m 41.666173,-1.25676 c -4.52431,-4.52431 -1.67021,-11.49324 4.70701,-11.49324 4.3012,0 5.71298,0.93159 6.91047,4.56003 1.70221,5.15774 -0.39609,8.84551 -5.26284,9.2495 -2.93905,0.24396 -4.28499,-0.24664 -6.35464,-2.31629 z m 17.67025,-5.1281 c -2.48248,-3.15596 -2.63656,-6.11494 -0.47881,-9.19555 1.29893,-1.85448 2.36127,-2.21938 5.74253,-1.97251 5.30728,0.38751 7.45392,3.87851 5.68351,9.24289 -1.76328,5.3428 -7.46957,6.3463 -10.94723,1.92517 z m 29.75243,1.59674 c -0.92125,-0.53751 -2.20296,-2.57705 -2.84825,-4.53229 -1.0037,-3.04126 -0.92245,-3.83211 0.56228,-5.47273 2.52518,-2.79029 7.90802,-3.54918 10.96537,-1.54593 1.85978,1.21858 2.49559,2.51108 2.49559,5.07317 0,5.85474 -6.14141,9.41471 -11.17499,6.47778 z m -64.83446,-3.21188 c -2.77807,-4.19353 -3.08954,-5.94998 -1.4884,-8.39362 1.18111,-1.80261 2.45253,-2.35638 5.41012,-2.35638 7.16702,0 10.88364,6.25307 6.55774,11.03314 -2.56082,2.82967 -8.52407,2.66856 -10.47946,-0.28314 z m -29.405905,-8.86208 c -2.326755,-1.83022 -2.64501,-2.72668 -2.384859,-6.71766 0.243864,-3.74113 0.782467,-4.87515 2.869508,-6.04169 7.800059,-4.35981 14.979186,8.22193 7.629017,13.37019 -2.912836,2.04023 -4.937125,1.88783 -8.113666,-0.61084 z m 76.493875,-0.034 c -3.86825,-4.1521 -1.84892,-10.85392 3.2704,-10.85392 5.66193,0 8.88602,6.72748 4.90108,10.22673 -3.22364,2.83074 -5.92536,3.0381 -8.17148,0.62718 z m -27.39518,-7.44671 c -3.85434,-3.57395 -3.43633,-8.08107 0.98817,-10.65478 2.9054,-1.69005 3.47179,-1.71939 6.75,-0.34965 3.56865,1.49108 4.15166,2.80212 3.6007,8.09724 -0.5823,5.59627 -6.737,7.17428 -11.33887,2.90719 z m -24.46703,-1.15721 c -5.1033,-4.45368 -2.34549,-12.25 4.33322,-12.25 6.29546,0 8.32493,7.12554 3.42503,12.02544 -2.4401,2.4401 -5.13032,2.51797 -7.75825,0.22456 z m 71.44981,-2.23495 c -1.46637,-1.74267 -2.66612,-3.61356 -2.66612,-4.15752 0,-4.2191 6.31332,-7.81818 10.15927,-5.79157 3.00731,1.5847 3.80653,2.83677 3.82542,5.99291 0.0211,3.53125 -1.91952,5.80327 -5.56857,6.51944 -2.61062,0.51236 -3.49304,0.11899 -5.75,-2.56326 z m -23.35075,-4.02203 c -4.34805,-1.75187 -5.51595,-6.79244 -2.31537,-9.99302 2.73882,-2.73882 7.12982,-2.55516 9.92008,0.41492 2.69653,2.87033 2.18771,5.56854 -1.61405,8.55899 -2.86144,2.25081 -2.9122,2.25945 -5.99066,1.01911 z M 91.71902,416.5204 c -2.553554,-2.55355 -2.645472,-8.10588 -0.171259,-10.34501 2.480556,-2.24487 6.741673,-2.08458 9.171259,0.34501 4.12982,4.12982 1.17851,12 -4.5,12 -1.375,0 -3.4,-0.9 -4.5,-2 z m 36.6248,-5.28509 c -2.55373,-1.86733 -3.29391,-8.90294 -1.16102,-11.03583 1.77904,-1.77905 9.00061,-2.3054 11.33273,-0.826 0.71309,0.45235 1.37327,2.74721 1.46708,5.0997 0.13538,3.39492 -0.30963,4.66608 -2.15729,6.16223 -2.69364,2.18118 -6.95063,2.45052 -9.4815,0.5999 z m 19.54951,-3.02936 c -4.58961,-4.88542 -2.01555,-10.86742 4.75263,-11.04489 5.30382,-0.13907 7.99222,2.55007 7.29545,7.29747 -0.85981,5.85822 -7.98349,8.07397 -12.04808,3.74742 z m 34.37601,-3.04432 c -6.75557,-6.75557 1.40741,-16.5617 9.22717,-11.08453 2.8127,1.97009 3.09407,8.34789 0.47251,10.7104 -3.36301,3.03071 -6.90643,3.16738 -9.69968,0.37413 z m -81.31486,-4.67777 c -3.195943,-1.28396 -4.569137,-5.42238 -3.187922,-9.6075 1.022724,-3.09888 1.427187,-3.35479 5.280012,-3.34065 5.53353,0.0203 6.7224,0.93818 7.35857,5.68123 0.46646,3.4777 0.18514,4.25957 -2.21068,6.14412 -2.99511,2.35595 -3.84314,2.48746 -7.23998,1.1228 z m 68.65387,-8.62595 c -1.80273,-0.48183 -3.88933,-4.42472 -3.88933,-7.34938 0,-4.03759 9.98578,-5.75174 11.96482,-2.05387 3.40775,6.36745 -0.85641,11.33272 -8.07549,9.40325 z m -54.81675,-5.97237 c -2.93637,-3.73299 -2.68062,-7.74169 0.66164,-10.37072 2.00563,-1.57763 3.53426,-1.99072 5.73661,-1.55025 6.19828,1.23965 8.07254,6.56819 4.00895,11.3975 -3.41043,4.05306 -7.4702,4.25726 -10.4072,0.52347 z m 36.66358,-0.61514 c -0.90536,-0.6875 -2.12832,-2.54824 -2.7177,-4.13498 -2.11783,-5.70168 4.39456,-10.60219 9.91225,-7.45886 2.17087,1.23671 2.55417,2.137 2.47176,5.80569 -0.13894,6.18516 -5.17352,9.19984 -9.66631,5.78815 z m -16.46119,-1.84399 c -1.34275,-0.49671 -2.54734,-2.22475 -3.20713,-4.60075 -1.38734,-4.99599 -1.38883,-4.98427 0.93216,-7.30526 4.36189,-4.36189 12,-0.75959 12,5.65946 0,4.7362 -5.04612,7.9774 -9.72503,6.24655 z"
             id="path1203"
             inkscape:connector-curvature="0" />
        </g>
      </g>
    </g>
  </g>
</svg>
