<?xml version="1.0" encoding="UTF-8" standalone="no"?>
<!-- Created with Inkscape (http://www.inkscape.org/) -->

<svg
   xmlns:dc="http://purl.org/dc/elements/1.1/"
   xmlns:cc="http://creativecommons.org/ns#"
   xmlns:rdf="http://www.w3.org/1999/02/22-rdf-syntax-ns#"
   xmlns:svg="http://www.w3.org/2000/svg"
   xmlns="http://www.w3.org/2000/svg"
   xmlns:sodipodi="http://sodipodi.sourceforge.net/DTD/sodipodi-0.dtd"
   xmlns:inkscape="http://www.inkscape.org/namespaces/inkscape"
   version="1.1"
   id="svg2949"
   width="283"
   height="443"
   viewBox="0 0 283 443"
   sodipodi:docname="feu134.svg"
   inkscape:version="0.92.4 (5da689c313, 2019-01-14)">
  <metadata
     id="metadata2955">
    <rdf:RDF>
      <cc:Work
         rdf:about="">
        <dc:format>image/svg+xml</dc:format>
        <dc:type
           rdf:resource="http://purl.org/dc/dcmitype/StillImage" />
        <dc:title></dc:title>
      </cc:Work>
    </rdf:RDF>
  </metadata>
  <defs
     id="defs2953" />
  <sodipodi:namedview
     pagecolor="#ffffff"
     bordercolor="#666666"
     borderopacity="1"
     objecttolerance="10"
     gridtolerance="10"
     guidetolerance="10"
     inkscape:pageopacity="0"
     inkscape:pageshadow="2"
     inkscape:window-width="1280"
     inkscape:window-height="972"
     id="namedview2951"
     showgrid="false"
     inkscape:zoom="1.5067919"
     inkscape:cx="144.21902"
     inkscape:cy="267.49357"
     inkscape:window-x="-8"
     inkscape:window-y="-8"
     inkscape:window-maximized="1"
     inkscape:current-layer="g928"
     showguides="true" />
  <g
     id="g151"
     transform="translate(25.882805,-2.654647)">
    <g
       id="g534"
       transform="translate(-21.900834,-45.792654)">
      <g
         id="g928"
         transform="translate(-3.9819699,-1.3273232)">
        <path
           style="fill:#ffffff"
           d="m 217.6395,458.85757 c -2.69034,-2.69034 -2.13392,-6.08753 1.26286,-7.7104 3.49456,-1.6696 7.20844,-0.69941 8.81517,2.30279 3.03215,5.66563 -5.33202,10.15362 -10.07803,5.40761 z M 95.257694,455.69655 c -2.090499,-2.9846 -1.969237,-4.04132 0.757747,-6.60318 3.806162,-3.5757 8.687089,-2.35999 10.135729,2.52454 1.5425,5.201 -7.686935,8.65661 -10.893476,4.07864 z m 157.897846,-7.23204 c -1.35,-1.35 -2.45455,-3.30525 -2.45455,-4.34501 0,-4.41789 7.15117,-6.90641 10.42857,-3.62901 3.34691,3.34691 0.7646,10.42857 -3.80277,10.42857 -0.94419,0 -2.82125,-1.10456 -4.17125,-2.45455 z m -102.53147,-8.46854 c -1.6077,-1.60769 -2.92308,-3.42814 -2.92308,-4.04544 0,-2.0514 4.87201,-6.03147 7.38312,-6.03147 5.73363,0 7.99557,7.37702 3.44946,11.25 -2.86979,2.44486 -4.53914,2.19729 -7.9095,-1.17309 z M 129.15554,426.4645 c -2.95128,-2.95127 -3.08613,-4.6639 -0.54809,-6.9608 2.8743,-2.6012 8.15781,-1.75295 10.03729,1.61146 1.4102,2.52438 1.35331,2.85879 -0.89312,5.25 -3.01188,3.20601 -5.46113,3.23431 -8.59608,0.0993 z m 55.10215,-6.76796 c -3.41966,-4.88224 -1.05839,-8.77748 5.32085,-8.77748 3.14126,0 6.12245,2.95443 6.12245,6.06752 0,4.69677 -8.62159,6.73852 -11.4433,2.70996 z m 50.67503,1.38689 c -0.69755,-0.44275 -1.67981,-2.23994 -2.1828,-3.99376 -0.83512,-2.91191 -0.66477,-3.31792 1.96207,-4.67631 5.64437,-2.91882 10.7975,2.09662 7.43184,7.23327 -1.49255,2.27793 -4.83627,2.94415 -7.21111,1.4368 z M 86.272419,418.34762 c -2.211341,-2.21134 -1.954371,-4.72019 0.743022,-7.25425 2.738076,-2.57228 4.9567,-2.7603 7.11412,-0.60289 3.396636,3.39663 0.883329,9.42858 -3.928571,9.42858 -1.296429,0 -3.064286,-0.70714 -3.928571,-1.57144 z M 46.14546,413.45443 c -4.269044,-4.26903 -2.37475,-8.53537 3.789789,-8.53537 3.103542,0 4.765741,1.77095 4.765741,5.07756 0,4.95353 -5.027779,6.98557 -8.55553,3.45781 z m 108.12696,-10.10681 c -3.47724,-3.47724 -0.59506,-9.42856 4.56618,-9.42856 3.62421,0 6.11239,2.23889 6.11239,5.5 0,1.5939 -0.7983,3.42775 -1.81613,4.17201 -2.45984,1.79867 -6.94348,1.67552 -8.86244,-0.24345 z m 104.82827,-0.19387 c -0.60516,-0.40409 -1.6165,-1.71544 -2.24742,-2.91414 -0.98884,-1.8787 -0.7839,-2.46516 1.48515,-4.25 3.29121,-2.58886 4.82952,-2.6036 7.36257,-0.0706 2.26853,2.26853 2.43543,3.31787 0.96482,6.06574 -1.04697,1.95628 -5.38265,2.62622 -7.56512,1.16895 z m -52.82827,-4.80613 c -4.38704,-4.38704 0.7681,-10.42696 6.27167,-7.34809 2.94304,1.64643 3.96001,5.2469 2.11122,7.47456 -1.58956,1.9153 -6.41391,1.84252 -8.38289,-0.12647 z m -102.82143,-2.50867 c -3.95035,-2.30086 -0.4557,-9.91989 4.55,-9.91989 3.05473,0 4.7,1.79529 4.7,5.12857 0,4.90503 -4.79262,7.38752 -9.25,4.79132 z m -33.470083,-5.93998 c -3.388083,-1.36331 -4.119895,-5.88132 -1.319887,-8.14863 1.243846,-1.00721 2.786557,-1.83128 3.428248,-1.83128 2.371205,0 5.611722,3.17599 5.611722,5.5 0,1.33262 -0.98151,3.07407 -2.222506,3.9433 -2.510424,1.75836 -2.470859,1.7545 -5.497577,0.53661 z m 60.964913,-1.22991 c -0.55003,-0.6875 -1.30315,-2.23949 -1.67359,-3.44885 -0.80529,-2.62896 2.35849,-6.30115 5.42876,-6.30115 3.05453,0 6.2301,3.6714 5.45018,6.30115 -0.83639,2.82013 -3.24288,4.69885 -6.01886,4.69885 -1.20254,0 -2.63646,-0.5625 -3.18649,-1.25 z m 104.79035,-4.68426 c -1.82789,-3.41546 -1.2046,-5.75293 1.87409,-7.02816 3.96331,-1.64167 7.09073,0.0333 7.09073,3.79759 0,1.52065 -0.54,3.30482 -1.2,3.96482 -1.90147,1.90147 -6.59158,1.45796 -7.76482,-0.73425 z M 14.257694,373.69655 c -2.139056,-3.05393 -1.956929,-4.46916 0.808317,-6.28101 5.120856,-3.35531 11.293344,2.7023 7.06355,6.93209 -2.255398,2.2554 -6.056285,1.94103 -7.871867,-0.65108 z M 153.4374,372.22712 c -2.14588,-0.55964 -4.93119,-5.63691 -4.17432,-7.60926 0.99311,-2.58801 5.28849,-3.8837 8.16979,-2.4644 4.01036,1.97545 4.74712,5.3775 1.80233,8.32229 -2.48903,2.48904 -2.71155,2.55624 -5.7978,1.75137 z m -35.96314,-2.05806 c -0.84519,-0.9625 -1.84777,-2.77042 -2.22796,-4.01759 -0.57903,-1.89947 -0.15991,-2.49101 2.58174,-3.64378 4.11626,-1.73076 7.07188,-0.71328 8.3528,2.87547 0.83316,2.33425 0.62944,3.02898 -1.36078,4.64057 -2.91875,2.36345 -5.35569,2.41167 -7.3458,0.14533 z m -29.77327,-4.25 c -2.596265,-2.59627 -2.529993,-4.51538 0.222506,-6.44331 2.829673,-1.98198 5.214234,-1.9771 7.206065,0.0147 2.432322,2.43232 1.962925,5.92917 -0.975624,7.26806 -3.44736,1.57076 -4.131778,1.48172 -6.452947,-0.83945 z m 117.6989,0.21978 c -0.93439,-1.03249 -1.6989,-2.55959 -1.6989,-3.39353 0,-2.47153 3.57451,-5.00567 6.5607,-4.65121 3.66019,0.43448 5.14117,2.92215 3.88284,6.52219 -1.24014,3.54804 -6.1396,4.40109 -8.74464,1.52255 z m 40.0057,-12.46978 c -0.92271,-0.6875 -1.96204,-2.69786 -2.30962,-4.46745 -0.53802,-2.73917 -0.27566,-3.37979 1.76487,-4.30952 2.76194,-1.25843 7.76615,0.1583 7.9553,2.25222 0.39455,4.36764 -1.62794,7.77475 -4.61515,7.77475 -0.61476,0 -1.87269,-0.5625 -2.7954,-1.25 z m -134.77202,-2.1157 c -5.78351,-2.93357 -4.00929,-8.6343 2.68722,-8.6343 4.00613,0 5.85711,2.61543 4.45706,6.29782 -1.10829,2.91503 -4.08464,3.88842 -7.14428,2.33648 z m -63.492455,-2.08534 c -2.010305,-3.06811 -1.176044,-5.89262 2.194006,-7.42812 3.302945,-1.50492 5.69684,-0.73945 7.350473,2.35039 3.124639,5.83844 -5.900144,10.63969 -9.544479,5.07773 z m 125.882975,-1.1786 c -1.68576,-2.57279 -1.66343,-2.68088 1.03271,-5 3.20026,-2.75275 5.85611,-3.01558 8.07276,-0.79894 2.08791,2.08791 1.98707,4.74245 -0.25731,6.77358 -2.80561,2.53904 -6.83685,2.09499 -8.84816,-0.97464 z M 65.402551,321.21244 c -0.295993,-1.53636 -0.99085,-4.59339 -1.544125,-6.79338 -2.328984,-9.26079 -3.173526,-27.21889 -2.77468,-59 0.462398,-36.84513 1.946861,-52.01925 7.679552,-78.50001 1.131134,-5.225 3.147099,-14.78439 4.47992,-21.24308 5.288413,-25.62703 17.390062,-49.22481 33.081082,-64.506906 4.09419,-3.9875 8.21634,-7.23082 9.16034,-7.20737 1.21509,0.0302 0.5191,1.12539 -2.3831,3.75 -7.03724,6.36419 -14.765447,16.382796 -19.058884,24.707356 -12.363219,23.97112 -20.712658,53.13371 -26.053887,91 -2.31128,16.38567 -2.549525,21.22867 -2.65646,54.00001 -0.07878,24.14411 0.326792,40.11662 1.231518,48.5 0.741944,6.875 1.413828,13.57945 1.493076,14.89879 0.205115,3.4148 -2.009066,3.74395 -2.654352,0.39459 z m 113.724119,-0.61282 c 1.06963,-5.91229 0.78539,-66.50074 -0.38553,-82.18057 -0.57502,-7.7 -1.28907,-17.6 -1.58678,-22 -0.29772,-4.4 -1.1992,-14.3 -2.0033,-22 -0.80411,-7.7 -1.69571,-16.25 -1.98134,-19 -0.28564,-2.75 -0.92643,-7.7 -1.42398,-11 -0.49755,-3.3 -1.40762,-10.05 -2.02238,-15 -3.24479,-26.12679 -6.94975,-46.90457 -9.48842,-53.212066 -1.16229,-2.88779 -1.1966,-3.36405 -0.14438,-2.00421 3.07154,3.96949 7.79871,21.574316 10.99922,40.963076 3.1603,19.14514 4.18267,27.83257 6.6201,56.2532 0.56603,6.6 1.47643,16.725 2.0231,22.5 3.53742,37.36929 4.21226,78.93978 1.59629,98.33318 -0.8037,5.95823 -1.78355,11.13324 -2.17744,11.5 -0.39389,0.36675 -0.40521,-1.05192 -0.0252,-3.15261 z m -49.81484,-5.43056 c -2.30931,-26.21776 -2.77341,-41.05804 -2.72859,-87.25001 0.0551,-56.78607 0.53885,-73.64106 2.71221,-94.5 2.36723,-22.71961 4.23337,-31.66368 8.97355,-43.008526 2.20956,-5.28821 2.82739,-3.67223 1.01357,2.65105 -3.17503,11.068696 -4.79277,25.533796 -7.33401,65.577646 -0.41116,6.47891 -0.74757,46.09237 -0.74757,88.02991 0,41.93754 -0.27147,76.25004 -0.60326,76.25001 -0.3318,-4e-5 -0.91045,-3.48758 -1.2859,-7.75008 z m 62.14721,-21.75 c 0.65335,-37.79348 -1.03856,-60.12245 -9.85036,-130.00001 -1.67866,-13.3118 -4.29309,-28.7533 -7.32379,-43.25632 -2.98094,-14.26494 -7.17048,-23.997526 -14.4685,-33.611346 -2.86736,-3.77723 -4.98854,-7.09252 -4.71374,-7.36732 0.27481,-0.2748 2.68032,1.73917 5.34558,4.4755 10.83893,11.12792 20.74429,44.041026 24.30495,80.759496 0.48001,4.94999 1.53667,14.39999 2.34814,20.99999 5.21173,42.38938 7.76092,88.54472 6.34922,114.95856 -1.3816,25.85086 -2.49164,21.97224 -1.9915,-6.95855 z m 8.60469,-3.23116 c 0.0805,-36.92597 -2.11654,-66.77422 -8.92634,-121.26885 -2.46178,-19.70007 -7.67042,-45.21079 -11.94421,-58.5 -1.72777,-5.37241 1.95415,2.3383 4.70514,9.85358 7.29999,19.9424 12.99356,54.93154 16.86574,103.64642 0.54647,6.875 1.35828,15.875 1.80401,20 1.48817,13.77212 1.30936,51.62183 -0.30418,64.38649 -0.8264,6.53757 -1.6746,12.05855 -1.8849,12.26885 -0.2103,0.2103 -0.35217,-13.46362 -0.31526,-30.38649 z m -39.21797,26.23116 c -0.0896,-2.2 -0.58367,-12.325 -1.09795,-22.5 -0.51427,-10.17501 -1.22185,-27.5 -1.57238,-38.5 -0.35053,-11.00001 -0.78978,-21.35001 -0.97612,-23.00001 -0.42521,-3.76524 -1.31219,-24.67459 -2.01498,-47.5 -0.56453,-18.33541 -2.89201,-53.50478 -4.50017,-68 -1.47052,-13.25458 -2.144,-32.036626 -1.02603,-28.613886 1.11263,3.40638 4.56418,35.998066 5.99557,56.613886 3.66215,52.74489 4.45016,68.46288 5.4897,109.50001 0.32045,12.64999 0.77522,28.175 1.01061,34.5 0.23539,6.32499 0.074,16 -0.35868,21.5 -0.43267,5.5 -0.85997,8.19999 -0.94957,6 z m 8.82944,-9.5 c -0.18193,-6.875 -0.28168,-13.40001 -0.22167,-14.5 0.20598,-3.77593 -1.76693,-57.00644 -2.81683,-76.00001 -1.03726,-18.76488 -4.00185,-55.51687 -5.88852,-73 -0.53417,-4.95 -1.23683,-11.925 -1.56146,-15.5 -0.88006,-9.69179 -2.19395,-18.40207 -4.37379,-28.995666 -1.07465,-5.22263 -1.8208,-9.62879 -1.65811,-9.79149 0.94343,-0.94342 3.64852,9.1209 5.46494,20.332336 1.15438,7.12516 2.5411,15.42983 3.08159,18.45482 2.60761,14.59397 6.45741,54.64555 10.14077,105.5 1.03992,14.35773 0.31605,67.3549 -1.08586,79.50001 -0.69317,6.00508 -0.77548,5.54822 -1.08106,-6 z m -29.09842,2.5 c -0.37211,-13.3433 -0.46474,-15.21603 -1.21179,-24.5 -0.7538,-9.36779 -1.94888,-77.41723 -1.84402,-105.00001 0.0862,-22.67878 1.95393,-68.25271 3.21708,-78.5 1.35416,-10.985606 3.11645,-16.382566 2.449,-7.499986 -2.14469,28.542096 -2.63585,60.624176 -1.95963,127.999986 0.40573,40.42501 0.82611,77.775 0.93419,83.00001 0.10808,5.225 -0.14782,10.39999 -0.56867,11.5 -0.46679,1.22008 -0.86305,-1.50964 -1.01616,-7 z m -32.655,-8.5 c -1.63115,-21.03969 -2.19737,-55.61292 -1.19554,-73.00001 1.53838,-26.69914 4.05738,-61.64465 4.97377,-69 3.19781,-25.66703 4.39521,-31.80882 8.9681,-46 3.01023,-9.34174 10.88162,-26.484586 11.75826,-25.607946 0.24618,0.24619 -1.42038,5.09619 -3.70346,10.77778 -8.63928,21.499376 -12.68954,43.836966 -15.47209,85.330166 -2.49158,37.15412 -2.74358,43.80017 -3.41264,90.00001 l -0.63719,44 z m 110.21526,-10 c 0.14554,-14.02501 -0.11381,-30.22501 -0.57632,-36 -1.89876,-23.70843 -5.04887,-55.75647 -5.84844,-59.50001 -0.46989,-2.2 -1.3585,-8.275 -1.97469,-13.5 -1.41154,-11.96932 -9.11961,-47.10511 -12.48681,-56.91882 -1.40001,-4.08035 -2.39601,-7.56829 -2.21332,-7.75098 0.1827,-0.18269 2.02469,3.37903 4.09332,7.91495 5.52611,12.11715 12.30481,41.06166 16.10215,68.75485 3.80973,27.78347 3.51058,24.96978 5.5286,52 1.51313,20.2675 0.73634,57.48938 -1.35651,65.00001 -1.46591,5.26074 -1.52107,4.39069 -1.26798,-20 z m -136.241101,21.5 c 0.02038,-1.65 0.244498,-2.20394 0.498042,-1.23098 0.253543,0.97297 0.236869,2.32297 -0.03705,3 -0.273927,0.67703 -0.481372,-0.11903 -0.460992,-1.76902 z M 227.14972,284.87225 c -0.0593,-35.22939 -1.22385,-48.3565 -8.55667,-96.4532 -5.11955,-33.57971 -14.09991,-65.26216 -23.0424,-81.29297 -3.15611,-5.65782 -12.2018,-16.361166 -17.03115,-20.152176 -7.25439,-5.69466 -7.54958,-5.67446 -1.64318,0.1124 7.73438,7.57785 18.63899,25.127626 17.49848,28.161896 -0.24206,0.64397 -1.28019,-0.63122 -2.30696,-2.83375 -4.52973,-9.71679 -14.66696,-23.550716 -20.57963,-28.084336 -2.21571,-1.69893 -3.86176,-3.36793 -3.65789,-3.70889 0.20387,-0.34097 -1.20433,-1.7954 -3.12933,-3.23206 l -3.5,-2.61212 3,0.32101 c 1.65,0.17655 2.89664,0.85608 2.77031,1.51007 -0.12632,0.65398 0.77368,1.49517 2,1.86932 1.22633,0.37414 4.92969,2.44873 8.22969,4.6102 3.3,2.16148 4.65,2.78502 3,1.38565 -1.65,-1.39936 -2.5894,-2.54653 -2.08755,-2.54927 1.92817,-0.0105 10.44561,6.19549 14.73989,10.73978 9.51187,10.065656 12.83699,15.459106 21.30565,34.558466 5.99789,13.52702 12.57297,38.68474 17.17016,65.69678 7.18165,42.19782 8.76963,58.98121 7.99507,84.50001 -0.33387,11 -1.17319,22.90542 -1.86513,26.45648 -1.13947,5.84771 -1.26403,3.82049 -1.32104,-21.5 -0.0703,-31.2175 -2.19502,-56.45474 -7.53133,-89.45649 -6.65443,-41.15337 -16.80018,-73.29224 -27.69579,-87.73243 -4.72197,-6.258126 -15.41169,-17.399136 -16.06627,-16.744546 -0.28254,0.28253 1.05934,2.19294 2.98194,4.24534 11.69901,12.488806 17.98693,27.370776 26.71663,63.231636 7.5558,31.03861 9.89741,46.82275 14.14686,95.36007 1.42516,16.27824 1.28124,49.63594 -0.24849,57.59313 -1.10526,5.74921 -1.24619,3.13101 -1.29187,-24 z m -108.90536,19.29681 c -0.34501,-4.2625 -1.08033,-10.61282 -1.63407,-14.11183 -1.36999,-8.65684 -0.88737,-83.47061 0.70404,-109.13818 0.69906,-11.275 1.98832,-26.125 2.86501,-33 0.8767,-6.875 2.01129,-15.875 2.52131,-20 1.17739,-9.5225 5.36172,-24.63201 9.11327,-32.907816 3.03486,-6.69482 5.15712,-8.0676 2.44784,-1.58338 -9.23693,22.107086 -16.879,118.963856 -15.04962,190.741206 0.69151,27.13204 0.28665,35.49865 -0.96778,20 z m 91.54258,-13.87818 c -0.0806,-20.75409 -1.81203,-51.33865 -4.06873,-71.87183 -7.42928,-67.59735 -11.03984,-85.40608 -22.48944,-110.92691 -2.07219,-4.61884 -2.27496,-5.61199 -0.91874,-4.5 4.23349,3.47116 11.41932,22.30661 17.52135,45.92691 1.74005,6.73557 4.73689,26.63315 6.32575,42 0.88144,8.525 2.0239,17.975 2.5388,21 2.79629,16.42803 3.49785,29.16502 3.35991,61.00001 -0.0854,19.70465 -0.56473,34.7354 -1.16404,36.5 -0.75586,2.2255 -1.04109,-2.71272 -1.10486,-19.12818 z m 38.76852,11.12818 c 0.88411,-13.69583 0.81482,-60.30449 -0.10331,-69.50001 -0.41187,-4.125 -1.45633,-14.7 -2.32105,-23.5 -1.90726,-19.40992 -9.71186,-55.88049 -14.81048,-69.20883 -6.4757,-16.9282 -18.53756,-36.27643 -28.30607,-45.405336 -7.07143,-6.60842 -10.90524,-8.18288 -4.27406,-1.75527 7.99055,7.74526 15.12418,17.602376 20.9576,28.958846 11.66165,22.70285 17.18984,43.13285 24.05545,88.8995 3.56762,23.78196 4.86675,59.52956 2.8806,79.26402 -1.98523,19.72525 -2.75819,17.08566 -2.85598,-9.75292 -0.13442,-36.89315 -1.46683,-54.13643 -6.76124,-87.5 -5.40478,-34.05909 -12.37963,-55.67299 -24.45413,-75.77926 -12.72433,-21.188346 -21.79444,-30.156676 -37.32784,-36.908976 -3.92689,-1.707 -4.98157,-2.64166 -4.79575,-4.25 0.21791,-1.88602 -0.33615,-2.07788 -6.5,-2.25085 l -6.73821,-0.18908 6,-0.37873 c 8.32179,-0.52529 20.73784,1.44505 27.24773,4.32404 6.45231,2.85352 16.80213,10.65676 23.63168,17.81711 23.9074,25.065376 41.37184,70.866766 44.08522,115.615736 0.35017,5.775 1.08246,14.26023 1.62732,18.85606 1.15616,9.75202 1.43336,38.10716 0.48533,49.64395 -0.36156,4.39999 -0.87828,10.90141 -1.14825,14.44757 -0.26997,3.54617 -0.6787,6.63542 -0.90828,6.86502 -0.22959,0.22958 -0.42843,-12.12183 -0.44189,-27.44759 -0.0324,-36.96709 -1.98116,-60.73454 -7.61408,-92.86501 -3.38645,-19.31647 -6.62026,-30.73444 -12.07487,-42.63411 -10.86355,-23.69972 -21.83639,-39.213596 -35.08568,-49.605656 -6.32707,-4.96264 -17.76001,-10.67851 -23.30423,-11.6509 -3.21326,-0.56357 -3.29519,-0.52069 -1,0.52337 13.47612,6.13018 17.86244,8.88717 24.44909,15.36731 14.75716,14.518506 21.33286,24.517756 29.57826,44.977726 11.53943,28.63374 16.77067,55.03972 19.91427,100.52226 2.02591,29.31148 0.70066,57.39518 -3.30326,70.00001 -1.38011,4.34478 -1.40715,4.1551 -0.78389,-5.5 z M 174.95099,74.256784 c -0.6875,-0.27742 -1.8125,-0.27742 -2.5,0 -0.6875,0.27741 -0.125,0.50438 1.25,0.50438 1.375,0 1.9375,-0.22697 1.25,-0.50438 z M 74.220855,308.9512 c -1.591472,-2.57505 -2.685803,-33.18798 -2.181739,-61.03215 0.614002,-33.917 1.666638,-44.56975 7.658059,-77.5 6.051442,-33.26014 12.614752,-50.37921 27.503815,-71.738146 2.2,-3.15598 4.36406,-5.74348 4.80902,-5.75 0.88669,-0.013 0.84712,0.0625 -4.16054,7.937706 -9.985662,15.70377 -19.559071,43.94527 -26.118846,77.05044 -5.985005,30.20449 -7.445087,51.40938 -6.6887,97.14048 0.317116,19.17273 0.396692,34.85953 0.176837,34.85953 -0.219855,0 -0.668913,-0.43554 -0.997906,-0.96786 z m -29.415382,-4.25346 c -6.010643,-21.95279 -2.464637,-95.70281 6.312065,-131.27869 6.665492,-27.0182 11.804263,-40.69001 21.362126,-56.8344 7.142362,-12.06432 19.239112,-25.353576 28.642776,-31.466406 7.88932,-5.12845 7.408,-3.70913 -1.07149,3.15961 -21.195659,17.169346 -34.212822,41.520036 -44.177568,82.641196 -8.122249,33.51779 -12.472038,86.46549 -10.097348,122.90968 0.516411,7.92532 0.772881,14.57574 0.569933,14.77868 -0.202948,0.20295 -0.89617,-1.55641 -1.540494,-3.90967 z m 9.456252,1.08932 c -1.784386,-7.87444 -3.597395,-33.94408 -3.605138,-51.83904 -0.0077,-17.69457 1.807388,-42.97202 3.520521,-49.02897 0.233341,-0.825 1.381173,-8.025 2.550738,-16 3.753649,-25.59529 10.853656,-51.16658 18.041227,-64.97705 1.61759,-3.1081 5.751513,-9.52516 9.186495,-14.26013 3.434982,-4.73497 6.920422,-9.58518 7.745422,-10.778236 1.935211,-2.79856 13.11076,-12.20714 13.74562,-11.57229 0.26642,0.26642 -1.81566,2.87015 -4.62686,5.78606 -16.785145,17.410396 -33.948132,54.980766 -39.42452,86.301646 -1.791512,10.24612 -1.778323,10.14708 -5.392926,40.5 -2.967666,24.92039 -3.501154,52.84457 -1.441318,75.44239 1.027077,11.26776 0.899413,15.71532 -0.299261,10.42562 z m 27.060898,0.45735 c -1.253501,-4.07874 -2.621056,-28.80097 -2.612094,-47.22057 0.01292,-26.56303 3.056388,-70.51388 6.066365,-87.60479 1.332456,-7.5658 4.264809,-19.22035 6.793361,-27 2.110302,-6.49281 8.693615,-23.66246 10.102035,-26.34665 0.47714,-0.90934 2.30448,-4.57834 4.06077,-8.15335 3.87528,-7.88831 9.1982,-16.144306 11.65431,-18.076136 1.09108,-0.85818 0.77412,-0.0334 -0.79782,2.07615 -11.7821,15.811356 -25.778725,59.644286 -29.856178,93.499986 -0.59616,4.95 -1.283557,10.575 -1.52755,12.5 -0.243992,1.925 -0.715603,6.65 -1.048022,10.5 -0.33242,3.85 -1.032557,10.6 -1.555859,15 -1.541325,12.95968 -2.140183,48.74276 -1.104562,66.00001 0.528094,8.8 0.831033,16.14641 0.673198,16.32535 -0.157836,0.17895 -0.539415,-0.49605 -0.847954,-1.5 z m 18.573316,-2.82535 c 0.02038,-1.65001 0.244501,-2.20394 0.498041,-1.23098 0.25354,0.97297 0.23687,2.32297 -0.037,3 -0.27393,0.67703 -0.481371,-0.11903 -0.460991,-1.76902 z m 49.591971,-2.58333 c -0.1172,-2.97917 -0.29262,-7.66667 -0.38983,-10.41667 -0.0972,-2.75 -0.88307,-20.97501 -1.74635,-40.50001 -2.92717,-66.20423 -3.88715,-158.748226 -1.7032,-164.192406 0.8387,-2.09074 0.93382,-1.9787 1.01226,1.19242 0.0476,1.925 0.33047,7.1 0.62857,11.5 1.54846,22.855876 2.12294,38.763756 2.38347,65.999996 0.15783,16.49999 0.42093,31.79999 0.58466,33.99999 0.60308,8.10327 0.66035,106.61649 0.0623,107.2145 -0.34035,0.34036 -0.71472,-1.81867 -0.83191,-4.79783 z m -59.256002,-2.16667 c -0.669053,-2.05831 -1.536319,-20.75228 -2.149721,-46.33736 -0.632766,-26.39279 -0.360241,-30.12832 6.194799,-84.91265 1.438538,-12.0227 5.277331,-28.66848 9.109364,-39.5 4.06666,-11.49473 16.00455,-34.999986 17.77585,-34.999986 0.21987,0 -1.99618,5.06249 -4.92456,11.249986 -9.47305,20.01606 -14.33503,38.04288 -19.89096,73.75 -3.038394,19.52728 -3.660794,26.72786 -4.710843,54.5 -0.665447,17.6 -0.942004,39.98751 -0.614573,49.75001 0.541958,16.15868 0.356924,20.02646 -0.789356,16.5 z m 8.829003,-2.45209 c -0.971675,-3.87147 -1.013374,-76.42232 -0.05247,-91.29792 1.110899,-17.19766 3.544119,-43.18333 4.766719,-50.90632 0.55778,-3.52348 2.38092,-11.84848 4.05141,-18.5 1.67049,-6.65152 3.2597,-13.21868 3.53157,-14.59368 1.49677,-7.56987 13.49889,-30.561096 18.53208,-35.499986 l 2.03819,-2 -1.26171,2.5 c -0.69394,1.375 -2.48457,4.3 -3.97918,6.5 -8.95412,13.180016 -13.22514,26.612906 -18.44126,57.999986 -7.05593,42.4578 -8.902416,67.2822 -8.372649,112.56289 0.231249,19.76542 0.295589,35.93712 0.142969,35.93712 -0.152615,0 -0.582664,-1.21594 -0.955665,-2.70209 z M 266.81364,274.41906 c -0.26216,-54.26339 -5.72174,-93.98189 -17.67034,-128.55182 -5.12929,-14.84017 -18.34906,-38.41176 -27.15736,-48.423066 -10.35433,-11.76849 -27.64938,-23.01406 -39.08417,-25.41325 -2.91457,-0.61153 -8.87707,-1.11186 -13.25,-1.11186 -4.63385,0 -7.95078,-0.41719 -7.95078,-1 0,-1.497205 14.45085,-1.187577 22.31177,0.47806 12.54699,2.65855 23.91606,9.83555 36.75182,23.20045 16.35619,17.030466 26.44115,34.619686 35.44599,61.821476 4.54568,13.73158 5.37469,17.37903 7.95497,35 0.88592,6.05 2.01758,13.7 2.51481,17 3.12262,20.72414 3.51616,26.60448 3.44664,51.50001 -0.0562,20.12158 -0.44931,28.18486 -1.63328,33.5 l -1.55929,7 z M 36.95099,291.11984 c -1.502725,-6.37063 -1.660993,-49.28491 -0.25276,-68.53584 2.660364,-36.36789 14.308598,-84.79277 24.454724,-101.66495 1.157603,-1.92499 2.991976,-5.23014 4.076385,-7.34477 4.041684,-7.8814 23.217109,-26.188646 31.471651,-30.046756 0.825,-0.3856 0.375,0.0958 -1,1.06974 -4.70765,3.33456 -17.187214,15.818896 -21.388792,21.396956 -8.153789,10.82507 -18.527738,34.94733 -23.570777,54.80848 -8.154084,32.11347 -11.059127,57.02334 -11.90903,102.11636 -0.561851,29.80993 -0.76909,32.91627 -1.881401,28.20078 z M 237.43421,109.66091 C 226.29659,93.316854 212.95825,80.814474 199.68032,74.273184 c -9.98678,-4.919929 -18.48105,-6.602955 -31.194,-6.180678 -11.22309,0.372788 -12.71125,-0.349752 -4.28533,-2.080635 l 5,-1.027119 -5,0.334703 c -4.89082,0.327394 -4.93449,0.305825 -2,-0.987742 4.96755,-2.189768 16.89544,-1.703523 27.42764,1.118098 7.82448,2.096213 16.07236,5.658353 16.07236,6.941423 0,0.16998 -4.1625,-1.25926 -9.25,-3.176099 -5.0875,-1.916837 -11.725,-3.651866 -14.75,-3.85562 l -5.5,-0.370462 4.98811,0.916167 c 8.81995,1.619961 18.51758,5.216704 24.33947,9.027244 8.54928,5.59567 19.0624,14.8416 24.47107,21.52148 5.47207,6.758176 14.18882,20.310976 13.50392,20.995876 -0.24912,0.24912 -2.98033,-3.25589 -6.06935,-7.78891 z M 67.226598,104.41905 C 74.017425,92.801854 89.162259,79.468094 99.95099,75.607964 c 3.0775,-1.1011 1.88683,0.0416 -3,2.87916 -2.6125,1.51696 -5.979151,3.69722 -7.481446,4.84502 -2.799569,2.13897 -16.523638,15.71349 -21.319209,21.086906 l -2.677384,3 z m 102.989292,-11.218776 -1.75601,-2.78121 2.315,2.22222 c 1.27325,1.22222 2.06346,2.47376 1.75601,2.78121 -0.30744,0.30744 -1.34919,-0.69256 -2.315,-2.22222 z m -0.2649,-5.02531 c -2.8875,-3.13217 -5.25,-5.86109 -5.25,-6.06427 0,-1.0111 6.7916,5.52124 8.78605,8.45065 1.25733,1.84675 2.15733,3.34664 2,3.3331 -0.15733,-0.0135 -2.64855,-2.58731 -5.53605,-5.71948 z m -55.75,1.7441 c 0.99549,-1.1 1.96904,-2 2.16346,-2 0.19442,0 -0.20857,0.9 -0.89553,2 -0.68696,1.1 -1.66052,2 -2.16346,2 -0.50295,0 -0.1,-0.9 0.89553,-2 z m 9.27575,-0.58882 c 1.17199,-1.69884 2.90057,-3.72384 3.84129,-4.5 1.54712,-1.27647 1.60807,-1.22025 0.6385,0.58882 -0.58954,1.1 -2.31812,3.125 -3.84129,4.5 l -2.76939,2.5 z M 93.70099,76.289654 c 0,-1.05009 4.279153,-3.76583 8.40616,-5.33491 1.48948,-0.5663 2.46708,-0.63959 2.17245,-0.16287 -0.29463,0.47673 -2.00785,1.44948 -3.80715,2.16167 -1.799305,0.7122 -4.05896,1.96554 -5.02146,2.7852 -0.9625,0.81966 -1.75,1.06757 -1.75,0.55091 z"
           id="path1059"
           inkscape:connector-curvature="0" />
      </g>
    </g>
  </g>
</svg>
