<?xml version="1.0" encoding="UTF-8" standalone="no"?>
<!-- Created with Inkscape (http://www.inkscape.org/) -->

<svg
   xmlns:dc="http://purl.org/dc/elements/1.1/"
   xmlns:cc="http://creativecommons.org/ns#"
   xmlns:rdf="http://www.w3.org/1999/02/22-rdf-syntax-ns#"
   xmlns:svg="http://www.w3.org/2000/svg"
   xmlns="http://www.w3.org/2000/svg"
   xmlns:sodipodi="http://sodipodi.sourceforge.net/DTD/sodipodi-0.dtd"
   xmlns:inkscape="http://www.inkscape.org/namespaces/inkscape"
   version="1.1"
   id="svg2949"
   width="283"
   height="443"
   viewBox="0 0 283 443"
   sodipodi:docname="feu125.svg"
   inkscape:version="0.92.4 (5da689c313, 2019-01-14)">
  <metadata
     id="metadata2955">
    <rdf:RDF>
      <cc:Work
         rdf:about="">
        <dc:format>image/svg+xml</dc:format>
        <dc:type
           rdf:resource="http://purl.org/dc/dcmitype/StillImage" />
        <dc:title></dc:title>
      </cc:Work>
    </rdf:RDF>
  </metadata>
  <defs
     id="defs2953" />
  <sodipodi:namedview
     pagecolor="#ffffff"
     bordercolor="#666666"
     borderopacity="1"
     objecttolerance="10"
     gridtolerance="10"
     guidetolerance="10"
     inkscape:pageopacity="0"
     inkscape:pageshadow="2"
     inkscape:window-width="1280"
     inkscape:window-height="972"
     id="namedview2951"
     showgrid="false"
     inkscape:zoom="1.5067919"
     inkscape:cx="144.21902"
     inkscape:cy="277.65991"
     inkscape:window-x="-8"
     inkscape:window-y="-8"
     inkscape:window-maximized="1"
     inkscape:current-layer="g534"
     showguides="true" />
  <g
     id="g151"
     transform="translate(25.882805,-2.654647)">
    <g
       id="g534"
       transform="translate(-21.900834,-45.792654)">
      <g
         id="g858"
         transform="translate(-8.6276015,-13.273234)">
        <path
           style="fill:#ffff00"
           d="m 54.017661,477.84732 c -3.840127,-1.10924 -6.716088,-5.86694 -5.928104,-9.80685 0.290992,-1.45497 2.440058,-5.5071 4.775703,-9.00476 l 4.246626,-6.35937 2.071597,2.58142 c 7.798887,9.7182 9.201194,13.79165 6.491107,18.85548 -0.861317,1.60938 -6.915126,5.15015 -8.13739,4.75941 -0.155166,-0.0496 -1.738958,-0.511 -3.519539,-1.02533 z m 40.76564,-39.36412 c -1.90948,-1.38619 -4.27198,-2.52035 -5.25,-2.52035 -2.559098,0 -5.77822,-3.59017 -5.77822,-6.44424 0,-3.19925 3.426161,-6.97603 8.921143,-9.83409 4.541577,-2.36216 8.979866,-7.154 7.757946,-8.37591 -0.37784,-0.37784 -1.726699,0.28979 -2.997479,1.48363 -2.18851,2.056 -7.401206,3.14396 -6.266458,1.3079 0.293252,-0.4745 -1.928903,-0.29038 -4.938124,0.40913 -6.145532,1.42858 -8.2366,0.29681 -4.717126,-2.55308 1.142965,-0.92552 2.902834,-3.43426 3.91082,-5.57497 2.364217,-5.02102 10.446408,-10.54494 14.300718,-9.77408 1.945099,0.38902 3.523669,-0.19002 5.846539,-2.14459 3.3392,-2.80974 4.14134,-2.35213 1.65022,0.94143 -2.31394,3.0593 -1.74883,3.57407 2.13989,1.94926 1.98444,-0.82915 3.80294,-1.3127 4.04109,-1.07454 0.23816,0.23816 -0.74257,1.83012 -2.17941,3.53769 -2.44707,2.90819 -2.51297,3.24669 -1.0411,5.34808 0.86423,1.23386 1.57133,3.6745 1.57133,5.42364 0,2.7355 -0.74938,3.67766 -5.35845,6.73699 -6.789519,4.50663 -9.239089,8.03648 -8.007399,11.53875 1.29205,3.67392 5.426589,4.86982 10.562779,3.05523 5.61046,-1.98214 7.89697,-5.41734 8.72178,-13.10342 0.37495,-3.49405 1.24084,-7.37163 1.9242,-8.61683 0.73297,-1.33563 0.98474,-3.63777 0.61398,-5.6141 -0.59,-3.14499 1.09239,-10.04267 3.58586,-14.70177 0.88638,-1.65621 11.62539,-9.25724 17.91271,-12.67854 7.9616,-4.33238 21.60492,-0.887 31.16714,7.87071 6.05913,5.54934 6.96496,7.2564 4.3774,8.24934 -2.42351,0.92999 -1.72288,3.60313 1.23959,4.72946 4.02562,1.53054 8.38829,0.47594 18.22638,-4.40592 1.35628,-0.67301 3.83128,-3.16674 5.5,-5.54162 2.62858,-3.74093 3.05752,-5.27514 3.20982,-11.48075 0.39723,-16.18513 4.19445,-24.66279 11.04672,-24.66279 1.27945,0 2.27749,-0.61012 2.27749,-1.39229 0,-2.16689 13.16316,-5.12595 16.01439,-3.60001 3.23823,1.73304 1.28909,2.95854 -6.44832,4.05428 -8.228,1.16523 -9.80168,1.96513 -12.52037,6.36406 -1.80997,2.92859 -2.18488,5.31612 -2.47527,15.76294 -0.28388,10.2129 -0.70849,13.0143 -2.49089,16.43392 -3.17553,6.09238 -14.75495,15.34214 -19.29436,15.41253 -1.25685,0.0195 -3.41018,0.67854 -4.78518,1.46457 -4.03609,2.30723 -16.6698,1.95357 -21.51481,-0.60229 -5.35948,-2.82726 -5.37093,-2.84219 -5.99677,-7.82321 -0.30143,-2.39909 -0.75116,-4.69061 -0.99939,-5.09225 -0.67768,-1.09651 -11.32195,-5.98225 -13.03319,-5.98225 -2.09956,0 -10.41236,8.82618 -12.1579,12.90877 -1.04461,2.44317 -1.2647,5.06959 -0.77698,9.27181 0.52844,4.55305 0.32283,6.40889 -0.92024,8.30605 -0.8804,1.34365 -1.60072,3.97505 -1.60072,5.84756 0,4.31833 -6.73961,13.11234 -11.60808,15.14652 -1.86183,0.77793 -7.09917,1.67216 -11.63854,1.9872 -7.703459,0.53462 -8.484699,0.40486 -11.725159,-1.94756 z m 22.654849,-98.77035 c -1.24394,-7.43266 0.64363,-116.86091 2.40198,-139.25 1.94507,-24.76657 6.55486,-56.49854 10.07223,-69.33319 1.10532,-4.03326 1.80537,-7.5375 1.55566,-7.78721 -0.46464,-0.46464 -5.17746,14.11281 -6.01987,18.6204 -0.25697,1.375 -1.21109,5.875 -2.12026,10 -6.87574,31.19587 -10.5577,83.61736 -10.56725,150.44999 -0.004,31.15988 -0.25556,38.70004 -1.25556,37.70023 -1.99453,-1.99417 -1.72231,-95.65265 0.37246,-128.15023 1.61271,-25.0189 7.6743,-59.64534 13.56605,-77.49508 2.6042,-7.88974 6.30048,-15.29565 6.30775,-12.63828 0.002,0.87373 0.72507,1.17799 2.00374,0.84362 1.167,-0.30518 2,-0.0307 2,0.65905 0,0.65014 -1.11467,17.82051 -2.47704,38.15638 -3.90346,58.26612 -4.66883,78.71956 -4.83435,129.19119 -0.0852,25.96928 -0.47359,46.89428 -0.86315,46.5 -1.36813,-1.38469 -2.85497,-33.46842 -2.73237,-58.96036 0.1807,-37.57494 4.15002,-117.19129 6.93625,-139.12691 0.58476,-4.60372 0.88321,-8.55039 0.66323,-8.77037 -1.0315,-1.0315 -4.8654,23.59091 -7.17891,46.105 -2.85491,27.7828 -4.2095,60.16843 -5.17756,123.78576 -0.59782,39.28627 -1.19665,48.20199 -2.65303,39.50001 z m 16.00992,-214.48097 c -0.25354,-0.97297 -0.47766,-0.41903 -0.49804,1.23097 -0.0204,1.64999 0.18706,2.44606 0.46099,1.76903 0.27392,-0.67704 0.29059,-2.02704 0.0371,-3 z m 2.44373,208.96989 c -1.53274,-10.88117 -2.65456,-50.79714 -2.53613,-90.23892 0.10554,-35.14637 2.15685,-107.94432 3.28275,-116.5 0.36189,-2.75 0.64869,37.29999 0.63732,89 -0.0114,51.69999 0.33026,100.82765 0.75917,109.17255 0.85145,16.56592 -0.34347,21.34224 -2.14311,8.56637 z m -35.43762,2.01108 c -0.827299,-5.9695 0.0397,-58.24072 1.24816,-75.25 0.99557,-14.01304 3.23181,-41.95351 4.60205,-57.5 0.97067,-11.01306 5.42925,-37.61457 7.51733,-44.85109 1.13453,-3.9319 2.95935,-10.29892 4.05514,-14.14891 2.07606,-7.29414 5.84447,-15.86709 6.62957,-15.08199 0.24983,0.24983 -0.47487,3.29547 -1.61043,6.76811 -4.60047,14.0686 -9.42523,38.06462 -13.0318,64.81388 -2.6386,19.57006 -7.10912,95.22649 -7.10912,120.31069 0,10.27912 -0.40077,18.68931 -0.89059,18.68931 -0.48983,0 -1.12447,-1.6875 -1.41031,-3.75 z m 76.67135,-46.92046 c 0.14243,-55.88317 -0.34716,-69.54282 -3.39886,-94.82954 -3.70149,-30.67084 -8.16059,-48.99227 -15.64998,-64.30222 -2.50278,-5.11622 -4.32993,-9.5228 -4.06033,-9.7924 0.74257,-0.74257 7.25836,8.70006 10.67825,15.47483 4.19749,8.31518 9.58442,32.57705 12.01636,54.11979 2.26377,20.05302 4.05261,58.67714 4.00616,86.5 -0.0507,30.3718 -1.47979,61.41577 -2.89233,62.82954 -0.45585,0.45625 -0.77052,-22.04375 -0.69927,-50 z m -8.89341,-9.12949 c -0.0247,-63.12515 -0.52208,-72.33253 -6.00881,-111.23267 -2.65843,-18.84791 -5.29112,-29.47547 -10.39629,-41.96738 -3.47233,-8.49651 -3.42909,-8.33877 -2.05292,-7.48825 1.71828,1.06195 6.01986,10.33952 8.98999,19.38946 2.7756,8.45717 6.32336,25.83649 8.08359,39.59879 1.85111,14.47287 3.94521,50.96388 4.47615,78 0.57271,29.16262 -0.83519,80.16638 -2.25201,81.58332 -0.44921,0.44924 -0.82707,-25.59823 -0.8397,-57.88327 z M 68.101056,296.71285 c 0.334309,-22.6875 0.862451,-44.40001 1.173651,-48.25 1.421271,-17.58326 6.948776,-54.94793 8.999216,-60.83265 0.798629,-2.29205 1.4586,-5.16755 1.466605,-6.39001 0.02407,-3.6762 6.971096,-23.33155 10.646009,-30.12096 4.273157,-7.89467 12.655743,-18.5772 21.505803,-27.40638 3.72128,-3.7125 6.51466,-6.75 6.20751,-6.75 -1.42145,0 -11.33656,8.69595 -15.71025,13.77851 -15.240147,17.71024 -25.665607,39.51055 -31.017929,64.86049 -5.713606,27.06107 -7.296191,44.66888 -8.994004,100.06715 -0.660862,21.56338 -1.499396,39.50398 -1.863409,39.86801 -1.639192,1.63918 -2.002394,-6.87998 -1.447821,-33.95977 0.695547,-33.9635 3.031167,-72.0891 5.244842,-85.61439 4.50173,-27.50506 13.549868,-55.34791 23.158875,-71.26428 5.337496,-8.84104 16.962966,-20.97275 25.772036,-26.89428 5.81854,-3.91128 8.72234,-5.00367 6.64401,-2.49944 -0.61257,0.73811 -0.8949,1.56089 -0.62738,1.8284 0.26751,0.26751 -1.82197,2.9261 -4.64329,5.90799 -13.19409,13.94499 -24.039958,32.23402 -29.745092,50.15815 -4.901996,15.40087 -9.684936,44.0851 -11.632685,69.76346 -0.354607,4.675 -0.799355,10.52499 -0.988329,13 -0.188974,2.47499 -0.608684,15.97499 -0.932691,30 -0.881212,38.14434 -1.62596,52 -2.795025,52 -0.697849,0 -0.83308,-13.26101 -0.420652,-41.25 z m 8.766681,2.75 c 0.370033,-60.10852 3.675968,-92.60478 12.716602,-125 2.53785,-9.09387 6.356072,-18.94684 9.724352,-25.09386 7.613359,-13.89414 9.035379,-16.25355 12.298859,-20.40614 4.72186,-6.00832 9.45721,-10.97626 10.47485,-10.98936 0.45503,-0.006 -1.15993,2.35186 -3.5888,5.23936 -11.17409,13.28404 -19.284769,29.5849 -26.255824,52.76902 -8.00669,26.6284 -11.047847,58.23947 -13.034007,135.48098 -0.354113,13.77139 -1.077001,25.44914 -1.60948,26 -0.622617,0.64409 -0.881193,-12.87993 -0.726552,-38 z m 15.4551,30.58429 c -0.668742,-7.66631 -0.0048,-42.99686 0.931834,-49.58429 0.234599,-1.65001 0.675545,-8.85001 0.979878,-16 0.304334,-7.15001 0.769322,-15.02501 1.033302,-17.5 0.26398,-2.47501 0.71889,-8.77501 1.01092,-14 0.29203,-5.22501 0.94014,-11.75 1.44025,-14.5 0.50011,-2.75 1.20708,-8.15001 1.57105,-12 0.36397,-3.85001 1.106229,-7.5428 1.649479,-8.20621 0.54324,-0.66339 0.71284,-1.65094 0.37689,-2.19452 -1.20793,-1.95446 4.31882,-27.57392 9.62116,-44.59927 2.13175,-6.84487 11.69342,-26.9574 12.45413,-26.19669 0.27687,0.27688 -0.45048,2.4594 -1.61634,4.85005 -12.53066,25.69465 -18.51266,59.64109 -23.498159,133.34664 -0.85566,12.64999 -1.76713,23.89999 -2.02549,25 -0.25836,1.09999 -0.75871,12.125 -1.11189,24.5 -0.35318,12.375 -0.971202,23.11892 -1.373389,23.8754 -0.402188,0.75647 -1.051819,-2.29951 -1.443625,-6.79111 z m 68.531693,7.91571 c -0.0747,-0.275 -0.31605,-21.42501 -0.53637,-47 -0.59999,-69.64786 -2.00624,-108.77864 -4.51009,-125.5 -3.00583,-20.07367 -4.91853,-29.7961 -7.12146,-36.19902 -2.15586,-6.26611 -2.51852,-9.28798 -0.92322,-7.69267 3.43084,3.43084 8.83252,27.61304 11.36788,50.89169 3.59641,33.0208 5.65981,147.69175 2.89704,161 -0.5709,2.75 -1.0991,4.77499 -1.17378,4.5 z m 35.53771,-2.6785 c -0.30424,-1.55183 -0.82362,-15.6465 -1.15418,-31.3215 -0.33055,-15.67501 -1.24124,-36.60001 -2.02375,-46.5 -0.78252,-9.90001 -1.89656,-24.52501 -2.47565,-32.5 -3.61457,-49.77824 -7.67321,-71.66694 -16.50254,-89 -2.80092,-5.49855 -12.2727,-16.09009 -17.00395,-19.01416 -1.9124,-1.18193 -3.47709,-2.60796 -3.47709,-3.16895 0,-1.40628 6.98103,2.9288 11.64948,7.23409 12.39844,11.43397 18.86745,27.28544 22.81828,55.91322 2.98162,21.60487 7.24234,61.77875 8.54138,80.5358 0.95866,13.84226 1.46404,79.36014 0.61868,80.20551 -0.24063,0.24062 -0.68642,-0.83219 -0.99066,-2.38401 z M 84.241086,330.67676 c -1.931072,-18.03209 2.20954,-90.85593 7.090971,-124.71391 3.239827,-22.47169 6.402894,-36.22823 10.788963,-46.92241 1.44873,-3.53233 2.63406,-6.79453 2.63406,-7.24934 0,-3.62276 17.29441,-32.86718 18.64068,-31.52091 0.24359,0.2436 -1.19065,3.23012 -3.18721,6.63673 -8.34545,14.23934 -15.66514,33.35772 -20.471709,53.47024 -3.8456,16.09147 -5.515784,26.86897 -7.994193,51.58569 -1.130574,11.27499 -2.339426,21.39999 -2.686338,22.5 -0.787959,2.49847 -0.897681,5.32337 -1.806113,46.5 -0.740365,33.55862 -1.642929,42.47113 -3.009111,29.71391 z m 68.425624,5.70276 c -0.0486,-0.50417 -0.0311,-28.81667 0.039,-62.91667 0.14603,-71.07462 -0.52925,-86.09938 -5.4763,-121.84616 -1.96729,-14.21539 -3.41144,-26.34252 -3.20922,-26.94917 1.39043,-4.17129 9.91237,47.33097 11.30065,68.29533 1.82428,27.54856 0.0994,141.46035 -2.17923,143.91667 -0.21259,0.22915 -0.4263,0.004 -0.4749,-0.5 z M 51.545517,331.95915 c -0.280788,-2.47296 -0.395869,-10.5713 -0.255734,-17.9963 0.140134,-7.42501 0.320904,-18.35248 0.401711,-24.28326 0.08081,-5.93079 0.553728,-15.38079 1.050938,-21 5.726954,-64.72307 10.636601,-90.34886 21.691205,-113.21674 8.26264,-17.09236 13.687221,-24.09516 25.603933,-33.05311 6.43572,-4.83782 19.54671,-11.95103 20.41943,-11.07831 0.40767,0.40767 -7.45212,4.99003 -11.20192,6.53087 -1.42531,0.58567 -9.626039,7.10974 -12.000639,9.54706 -9.631933,9.88637 -15.644715,19.72236 -24.484863,40.05349 -4.615185,10.61428 -8.791283,29.76781 -12.42787,57 -3.493204,26.15846 -4.370493,37.93311 -5.625253,75.5 -1.057583,31.66352 -2.060116,41.77958 -3.170938,31.9963 z m 182.995683,3.41139 c -0.39008,-0.60078 -0.65106,-13.65078 -0.57995,-29 0.20446,-44.13185 -2.57926,-74.81703 -9.78485,-107.85958 -1.91325,-8.77354 -3.36447,-16.64854 -3.22494,-17.5 0.13954,-0.85147 -0.0815,-2.08204 -0.4911,-2.73461 -0.40965,-0.65257 -2.10282,-5.75772 -3.76261,-11.34477 -5.40499,-18.19389 -14.78816,-34.11922 -26.42058,-44.84161 -4.34993,-4.00963 -19.29434,-12.12712 -22.32618,-12.12712 -0.82664,0 -1.17761,-0.60532 -0.8484,-1.46323 0.40957,-1.06731 -0.44085,-1.63062 -3.14301,-2.08189 -2.03747,-0.34027 -4.8295,-1.03514 -6.2045,-1.54417 -6.70547,-2.48235 9.38004,0.23532 17,2.87218 12.92466,4.47253 18.79953,7.63184 26.90725,14.46986 5.9173,4.99063 8.68608,8.3593 13.76491,16.74725 6.40467,10.57764 10.32262,18.30326 10.334,20.37711 0.003,0.61759 0.62501,2.30893 1.38138,3.75855 1.25112,2.39784 3.22856,8.59752 7.13329,22.36434 7.96981,28.09895 13.43803,76.63562 13.80107,122.5 0.12837,16.21713 -0.16246,23.05847 -1.04149,24.5 -0.98825,1.62063 -1.22582,-1.50921 -1.25243,-16.5 -0.0459,-25.88475 -2.02247,-51.6386 -6.10136,-79.5 -7.33843,-50.12608 -10.4187,-62.2534 -22.78699,-89.71457 -5.75077,-12.76836 -14.46513,-22.3152 -27.3772,-29.99254 -7.25676,-4.31476 -17.33273,-8.76092 -19.76243,-8.72043 -0.825,0.0138 1.425,1.19412 5,2.62305 12.1059,4.83874 28.20684,18.97607 33.68474,29.57667 7.67807,14.85831 15.22532,35.39814 16.80242,45.72782 0.37788,2.47499 1.50109,7.875 2.49603,12 1.82984,7.5865 2.48614,13.02641 6.03222,50 3.06001,31.90553 3.58765,91.74612 0.77071,87.40769 z M 35.396606,334.13283 c -1.192002,-1.84677 -0.933615,-50.05504 0.346618,-64.66998 1.716878,-19.59963 4.916106,-46.39885 6.625461,-55.5 4.803271,-25.57419 11.006171,-48.31993 16.089652,-59 2.282314,-4.79501 7.730111,-13.53523 9.34953,-15 0.304033,-0.27501 1.512918,-2.08182 2.686412,-4.01515 2.360928,-3.88963 11.822375,-13.50645 17.260802,-17.54425 5.716718,-4.24443 12.714719,-7.44946 20.755849,-9.50604 9.1696,-2.34519 12.24415,-2.45431 12.24415,-0.43456 0,1.66993 -1.64536,2.05783 -2.16667,0.5108 -0.7453,-2.21178 -16.90383,3.78094 -25.333329,9.39537 -16.045596,10.6871 -28.658552,27.87874 -36.611075,49.90142 -4.839273,13.40125 -10.098035,37.23133 -12.314159,55.80161 -0.813274,6.81493 -2.432316,20.2658 -3.59787,29.8908 -1.2447,10.27857 -2.605646,30.70488 -3.298043,49.5 -0.686627,18.6385 -1.537306,31.44465 -2.037328,30.66998 z m 110.025144,0.16334 c -1.04686,-1.04685 -0.77896,-5.33332 0.33333,-5.33332 0.55,0 1,1.35 1,3 0,3.10687 -0.20356,3.4631 -1.33333,2.33332 z m 41.04686,-43.08332 c -0.79771,-61.68678 -4.13986,-102.63905 -10.7398,-131.59764 -3.42945,-15.04743 -7.61997,-24.3993 -15.50767,-34.60805 -3.079,-3.98504 -5.36891,-7.4748 -5.08868,-7.75503 0.28022,-0.28022 3.05018,1.89338 6.15546,4.83022 4.23311,4.0035 6.72977,7.59699 9.977,14.3601 9.56754,19.92666 13.35456,44.56004 15.99159,104.0204 1.97279,44.48268 2.30398,93.5 0.63175,93.5 -0.47675,0 -1.1156,-19.23751 -1.41965,-42.75 z m 27.33228,24.43551 c -0.1095,-17.34757 -0.51857,-25.46322 -3.00848,-59.68551 -4.5841,-63.00563 -10.20457,-94.53317 -20.50125,-115 -3.30431,-6.56802 -18.0118,-21.39816 -24.59071,-24.79578 l -4.44537,-2.29577 3,2.26729 c 7.45749,5.63611 17.62904,17.13102 20.87544,23.59139 5.25127,10.45012 9.24585,24.37982 11.53743,40.23287 1.1528,7.97499 2.54865,17.57294 3.10189,21.32877 0.55324,3.75584 0.78175,7.19147 0.50779,7.63473 -0.27396,0.44328 0.16978,5.92033 0.98608,12.17122 2.74619,21.02919 3.54566,35.18581 4.1657,73.76437 0.40355,25.10885 0.2763,38.18842 -0.36767,37.79043 -0.57879,-0.35771 -1.26072,-11.65409 -1.654,-27.39909 -1.08015,-43.24393 -3.58591,-80.24841 -7.19745,-106.29043 -1.33481,-9.625 -2.68461,-19.52501 -2.99955,-22 -1.11613,-8.77119 -7.66651,-31.46862 -10.98134,-38.051 -3.89392,-7.7323 -12.66126,-16.98145 -22.40338,-23.63457 -3.61401,-2.46809 -5.50209,-4.17531 -4.19571,-3.79381 1.60775,0.46951 2.15642,0.33961 1.69806,-0.40204 -0.42384,-0.68578 -0.0987,-0.87371 0.86903,-0.50235 0.85041,0.32634 1.31644,0.96509 1.03562,1.41945 -0.28081,0.45437 0.0163,1.15174 0.66026,1.54972 0.73122,0.45193 0.90292,0.29014 0.45729,-0.4309 -1.21959,-1.97334 1.37858,-1.28336 7.76453,2.06197 10.26705,5.37848 19.67645,16.35864 28.32922,33.05833 3.8413,7.41365 7.4474,21.66507 10.68442,42.22519 3.36646,21.38229 8.66705,80.14625 9.29074,103.00001 0.62587,22.9334 -0.1,40.5 -1.67347,40.5 -0.45624,0 -0.88155,-8.24152 -0.94512,-18.31449 z m 8.61766,-12.37785 c -0.34167,-16.94421 -0.8187,-33.28267 -1.06007,-36.30766 -0.24137,-3.02501 -0.71782,-10.45 -1.05878,-16.5 -1.54876,-27.48172 -5.26699,-53.30253 -11.2294,-77.98142 -6.17615,-25.56356 -11.77576,-36.16 -26.81522,-50.74385 -3.94606,-3.82652 -16.71169,-10.77473 -19.79591,-10.77473 -0.87233,0 -1.86417,-0.45 -2.20409,-1 -1.0232,-1.65558 1.20256,-1.15753 9.52593,2.13156 14.75808,5.83186 29.07997,21.86073 36.34811,40.68033 5.53878,14.34172 11.56146,44.08571 14.61694,72.18811 0.62789,5.77499 1.57748,13.19999 2.11019,16.5 2.51411,15.57409 3.26734,89.3133 0.93781,91.80766 -0.41486,0.4442 -1.03384,-13.0558 -1.37551,-30 z M 42.499089,325.21285 c -0.668143,-12.5075 0.209018,-54.26684 1.26556,-60.25 0.534172,-3.02501 1.401529,-9.55001 1.927458,-14.5 2.996987,-28.20736 9.403033,-60.44824 15.182984,-76.41418 1.112192,-3.0722 2.655597,-7.63236 3.429789,-10.13368 2.198919,-7.10444 10.725165,-23.16182 15.801708,-29.75917 8.030785,-10.4366 17.181193,-17.30075 29.533102,-22.15415 8.67874,-3.41011 7.97522,-1.84266 -1.27902,2.84968 -15.0198,7.61573 -29.51755,22.94591 -36.770047,38.8813 -11.959441,26.27759 -18.722346,55.5201 -23.295845,100.7302 -1.208442,11.94572 -3.658044,50.78882 -3.368201,53.40922 0.03594,0.32493 0.01206,6.10327 -0.05307,12.84078 -0.131367,13.58918 -1.7273,16.61381 -2.374413,4.5 z m -15.083036,5.96167 c -1.16819,-1.8212 -0.962005,-53.30219 0.27119,-67.71167 0.564843,-6.6 1.476762,-17.45116 2.026487,-24.11368 0.549725,-6.66253 1.222566,-12.73753 1.495202,-13.5 0.272636,-0.76248 1.426825,-6.75087 2.564865,-13.30754 1.13804,-6.55667 2.930245,-14.88167 3.982679,-18.5 9.580552,-32.93851 15.070045,-45.88705 24.622323,-58.07878 13.391509,-17.09182 25.014623,-24.94113 43.876281,-29.6305 6.74753,-1.67757 8.08783,-2.25409 5.35534,-2.30354 -4.32723,-0.0783 -14.994739,3.07458 -23.355339,6.90292 -12.406445,5.68094 -23.537696,14.82486 -30.471343,25.03112 -3.75114,5.52163 -10.898459,18.89647 -13.092442,24.5 -0.646035,1.64999 -1.379102,2.4506 -1.629037,1.77912 -0.739951,-1.98797 6.652292,-18.29631 11.231874,-24.77912 10.149509,-14.36755 25.589996,-26.82515 39.78836,-32.10182 3.394928,-1.26169 5.470418,-2.31742 4.612198,-2.34608 -1.44731,-0.0483 -9.394158,2.86552 -16.43961,6.02787 -1.65,0.7406 -5.748628,3.05058 -9.108063,5.13329 -3.359434,2.0827 -6.452034,3.78674 -6.872444,3.78674 -1.380831,0 1.782167,-3.11147 6.375945,-6.27207 12.969211,-8.92305 23.004812,-12.003607 39.578571,-12.149137 7.78428,-0.06835 9.02031,0.153208 9.32332,1.671207 0.27233,1.36429 -0.38314,1.7831 -2.97401,1.90019 -2.86033,0.12927 -2.6964,0.23727 1.17668,0.77527 l 4.5,0.62507 -6.84145,1.26993 c -19.267269,3.57644 -37.944621,13.19575 -47.546223,24.48751 -10.165909,11.95539 -22.212378,38.81858 -29.024626,64.72387 -4.475901,17.02073 -8.61877,58.27918 -11.393635,113.46816 -0.67821,13.48883 -1.568634,23.43574 -2.033093,22.71167 z M 108.25508,102.02021 c 3.36313,-0.69563 3.52234,-0.82684 1,-0.82405 -1.65,0.002 -4.35,0.34683 -6,0.76669 -4.158589,1.05818 -0.0656,1.10514 5,0.0574 z m 148.48464,225.44264 c -0.103,-2.75 -0.12647,-6.35001 -0.0522,-8 0.33239,-7.38034 -2.01342,-52.33654 -3.3917,-65 -4.20419,-38.62759 -14.18741,-82.76428 -23.07,-101.99447 -6.04552,-13.08813 -20.65312,-30.36387 -32.21098,-38.09447 -5.48194,-3.66665 -22.22531,-10.39782 -25.8848,-10.4062 -1.16875,-0.003 -3.64375,-0.34236 -5.5,-0.75486 -3.22431,-0.71652 -3.12944,-0.77621 2.125,-1.33701 5.33323,-0.5692 5.25742,-0.59497 -2.5,-0.84968 -9.28383,-0.30483 -6.97162,-1.798409 3.0399,-1.963635 7.60677,-0.125539 15.87674,1.980825 25.38445,6.465415 19.82637,9.3517 26.88077,15.90086 38.7072,35.93491 4.64213,7.86381 11.1226,23.55759 11.76856,28.5 l 0.58813,4.5 -1.91995,-4 c -1.05598,-2.20001 -1.95334,-4.51837 -1.99413,-5.15191 -0.11038,-1.71503 -7.97593,-18.10677 -11.44344,-23.84809 -5.21504,-8.63482 -14.6627,-19.49869 -21.01601,-24.16632 -7.41742,-5.44943 -19.20215,-11.53976 -26.55372,-13.72294 -8.87158,-2.63458 -9.19339,-1.80416 -0.47678,1.23028 18.68899,6.50604 36.46726,22.45642 48.66222,43.65898 5.23009,9.09319 10.63853,24.07511 14.25941,39.5 3.40044,14.48583 6.48469,30.301 7.41069,38 3.05955,25.4377 4.71533,41.10341 5.65468,53.5 0.90836,11.98753 0.57896,46.57037 -0.47625,50 -0.86099,2.7984 -0.9356,2.66399 -1.11028,-2 z m -112.19945,-23.25 c -0.11814,-11.96251 -0.2655,-27.15001 -0.32746,-33.75 -0.17761,-18.92048 -1.45026,-56.40774 -2.54617,-75 -1.62322,-27.53812 -2.80155,-73.92845 -1.90175,-74.87064 1.64758,-1.7252 2.40774,8.37668 4.99435,66.37064 2.18097,48.89909 2.82648,139 0.99584,139 -0.62943,0 -1.0796,-8.05987 -1.21481,-21.75 z m 86.21481,-170.23654 c 0,-1.33337 -10.27035,-13.35947 -15.25466,-17.8625 -11.82775,-10.68566 -29.88611,-18.064636 -47.67767,-19.481959 -3.53779,-0.28183 -5.87237,-0.166339 -5.18797,0.256646 0.68441,0.422985 -0.76545,0.725252 -3.2219,0.671706 -2.45645,-0.05355 -4.28375,-0.392892 -4.06066,-0.754099 0.22309,-0.361208 -0.45832,-0.430817 -1.51424,-0.154688 -1.05592,0.27613 -2.70624,0.06197 -3.66739,-0.475915 -1.52361,-0.852655 -1.23042,-1.304409 2.28807,-3.525535 2.21958,-1.401161 5.78179,-2.807825 7.91601,-3.125918 l 3.88041,-0.578353 -4,2.031593 c -2.2,1.117376 -3.1,1.76512 -2,1.439429 3.6126,-1.069626 11.73105,-2.455525 13.88649,-2.370559 1.16243,0.04582 -0.50986,0.718537 -3.71621,1.494923 -3.20634,0.776385 -6.58134,1.897872 -7.5,2.492192 -1.44868,0.937222 -1.40789,0.996798 0.30749,0.449058 3.13437,-1.000838 15.484,-2.389413 17.86154,-2.008326 1.18838,0.19048 4.36016,0.624435 7.0484,0.964343 2.68824,0.339908 6.51324,1.519839 8.5,2.62207 l 3.61229,2.004055 -3.5,-0.653554 c -1.925,-0.359455 -5.3,-1.037723 -7.5,-1.507263 -2.2,-0.46954 -8.05,-0.80864 -13,-0.753555 l -9,0.100154 8.03318,0.70454 c 20.90923,1.833817 35.02596,8.864825 49.87127,24.838985 5.79706,6.23787 10.32858,14.16907 8.09555,14.16907 -0.275,0 -0.5,-0.44395 -0.5,-0.98654 z M 153.28154,94.155973 c -0.30789,-0.307887 -1.11479,-6.34e-4 -1.79313,0.682784 -0.98026,0.987616 -0.8654,1.10248 0.5598,0.559795 0.98622,-0.375531 1.54122,-0.934692 1.23333,-1.242579 z m -26.52646,28.865887 c 0,-0.51754 0.44485,-1.21591 0.98855,-1.55194 0.56686,-0.35033 0.7345,0.0511 0.39301,0.94099 -0.66479,1.73241 -1.38156,2.04938 -1.38156,0.61095 z M 87.755081,99.938871 c 0,-1.326024 9.81877,-3.761652 17.999999,-4.46505 5.25709,-0.451989 9.72606,-0.168161 14.94365,0.949081 4.09401,0.87665 7.58721,1.737469 7.76267,1.912931 0.17546,0.175461 -6.32418,0.112619 -14.44365,-0.139651 -11.20604,-0.348169 -16.147959,-0.09302 -20.512669,1.059063 -3.1625,0.834755 -5.75,1.142385 -5.75,0.683626 z m 38.499999,-3.685483 c -2.2,-0.811981 -7.70032,-1.722199 -12.22294,-2.022705 -5.09169,-0.338319 -7.98811,-0.926358 -7.60624,-1.544238 1.55302,-2.51283 24.32918,1.592242 24.32918,4.38498 0,0.490281 -0.1125,0.838966 -0.25,0.774856 -0.1375,-0.06411 -2.05,-0.780913 -4.25,-1.592893 z"
           id="path862"
           inkscape:connector-curvature="0" />
        <path
           style="fill:#00ffff"
           d="m 54.017661,477.84732 c -3.840127,-1.10924 -6.716088,-5.86694 -5.928104,-9.80685 0.290992,-1.45497 2.440058,-5.5071 4.775703,-9.00476 l 4.246626,-6.35937 2.071597,2.58142 c 7.798887,9.7182 9.201194,13.79165 6.491107,18.85548 -0.861317,1.60938 -6.915126,5.15015 -8.13739,4.75941 -0.155166,-0.0496 -1.738958,-0.511 -3.519539,-1.02533 z"
           id="path860"
           inkscape:connector-curvature="0"
           sodipodi:nodetypes="scscsscs" />
      </g>
    </g>
  </g>
</svg>
