<?xml version="1.0" encoding="UTF-8" standalone="no"?>
<!-- Created with Inkscape (http://www.inkscape.org/) -->

<svg
   xmlns:dc="http://purl.org/dc/elements/1.1/"
   xmlns:cc="http://creativecommons.org/ns#"
   xmlns:rdf="http://www.w3.org/1999/02/22-rdf-syntax-ns#"
   xmlns:svg="http://www.w3.org/2000/svg"
   xmlns="http://www.w3.org/2000/svg"
   xmlns:sodipodi="http://sodipodi.sourceforge.net/DTD/sodipodi-0.dtd"
   xmlns:inkscape="http://www.inkscape.org/namespaces/inkscape"
   width="75mm"
   height="120mm"
   viewBox="0 0 75 120"
   version="1.1"
   id="svg8"
   inkscape:version="0.92.4 (5da689c313, 2019-01-14)"
   sodipodi:docname="feu4.svg">
  <defs
     id="defs2" />
  <sodipodi:namedview
     id="base"
     pagecolor="#ffffff"
     bordercolor="#666666"
     borderopacity="1.0"
     inkscape:pageopacity="0.0"
     inkscape:pageshadow="2"
     inkscape:zoom="0.98994949"
     inkscape:cx="-53.54984"
     inkscape:cy="94.305468"
     inkscape:document-units="mm"
     inkscape:current-layer="layer1"
     showgrid="false"
     units="mm"
     inkscape:window-width="1920"
     inkscape:window-height="1017"
     inkscape:window-x="-8"
     inkscape:window-y="-8"
     inkscape:window-maximized="1" />
  <metadata
     id="metadata5">
    <rdf:RDF>
      <cc:Work
         rdf:about="">
        <dc:format>image/svg+xml</dc:format>
        <dc:type
           rdf:resource="http://purl.org/dc/dcmitype/StillImage" />
        <dc:title />
      </cc:Work>
    </rdf:RDF>
  </metadata>
  <g
     inkscape:label="Calque 1"
     inkscape:groupmode="layer"
     id="layer1"
     transform="translate(0,-176.99999)">
    <g
       id="g8468"
       transform="translate(0.18689638,181.35781)">
      <path
         style="fill:#e9afc6;stroke-width:0.26458335"
         d="m 44.430074,89.475041 c 0.768718,-8.23007 0.700431,-29.16256 -0.143283,-43.92084 -0.141427,-2.47385 -0.311806,-4.8551 -0.378621,-5.29166 -0.06682,-0.43657 -0.187875,-2.04391 -0.269026,-3.57188 -0.355412,-6.69217 -1.027774,-10.65272 -2.39183,-14.08906 -0.102561,-0.25838 -0.06458,-0.46302 0.08593,-0.46302 0.368522,0 1.817502,3.86819 2.315326,6.18099 0.731144,3.39677 0.898597,4.71707 1.430795,11.28151 0.841709,10.38203 1.114285,16.73289 1.124228,26.19375 0.01423,13.55076 -0.299603,18.40957 -1.512467,23.41562 l -0.384619,1.5875 z m 3.474299,-2.77813 c 0.253984,-4.76303 0.126794,-23.15311 -0.246126,-35.58646 -0.120512,-4.01794 -0.688596,-10.93749 -1.096952,-13.36146 -0.06129,-0.3638 -0.248139,-1.79255 -0.415226,-3.175 -0.625248,-5.17326 -1.90649,-9.26356 -3.874545,-12.36927 -1.303089,-2.05635 -0.671931,-1.71684 1.106702,0.59532 2.924979,3.80236 4.578807,13.15442 5.661488,32.01458 0.503774,8.77571 -0.225968,32.70318 -1.05531,34.60243 -0.171735,0.39329 -0.198159,-0.50484 -0.08003,-2.72014 z m -9.032359,0.92604 c 0.521052,-8.57416 0.691745,-15.29935 0.748766,-29.50104 0.03593,-8.94953 -0.01847,-18.95078 -0.120888,-22.225 -0.250452,-8.00642 -0.483177,-13.40274 -0.633286,-14.68437 -0.11756,-1.00375 -0.105407,-1.02557 0.235635,-0.42297 0.24986,0.44148 0.396598,0.52435 0.480857,0.27157 0.170288,-0.51086 1.684356,3.7827 2.163058,6.13396 0.546934,2.68639 0.947899,6.48633 1.197386,11.34764 0.268168,5.22536 0.267816,29.23795 -5.3e-4,37.04167 -0.200646,5.83468 -0.863912,13.68429 -1.182706,13.99709 -0.08863,0.087 -0.07666,-3.23516 0.02661,-7.3825 0.253664,-10.18746 0.30611,-38.8999 0.07974,-43.65626 -0.393327,-8.2644 -0.967402,-12.9875 -1.929554,-15.875 l -0.396729,-1.19062 0.126428,1.19062 c 0.189111,1.78093 0.610638,7.6907 0.776806,10.89073 0.271828,5.23481 0.36725,31.51957 0.140563,38.71865 -0.132649,4.21268 -0.448635,8.93496 -0.770136,11.50938 -0.63654,5.09709 -1.144278,7.16493 -0.942007,3.83645 z m -5.258033,1.12448 c -0.257529,-0.96096 -0.189944,-3.10885 0.09782,-3.10885 0.15119,0 0.264583,0.79375 0.264583,1.85208 0,1.93339 -0.09385,2.25887 -0.362403,1.25677 z m 19.275187,-2.97656 c 0.107498,-2.03729 0.262213,-4.59713 0.34381,-5.68854 0.235805,-3.15405 0.107022,-19.38652 -0.184824,-23.29622 -0.388385,-5.20293 -0.845902,-9.85147 -1.014328,-10.30587 -0.0809,-0.21828 -0.122285,-0.59952 -0.09196,-0.8472 0.08376,-0.68407 -1.004586,-7.7199 -1.587905,-10.2653 -0.610555,-2.66423 -2.095002,-7.28451 -2.992374,-9.31362 -0.351639,-0.79512 -1.240263,-2.2396 -1.974723,-3.20996 -1.097113,-1.44948 -1.196895,-1.66189 -0.559231,-1.19045 1.844659,1.36382 4.481613,6.122 5.630823,10.1604 1.355722,4.7641 1.722826,6.82754 2.844583,15.98905 1.031475,8.42416 1.461865,26.4422 0.789027,33.03201 -0.395039,3.86902 -1.047462,8.31676 -1.246891,8.5004 -0.0833,0.0767 -0.06351,-1.52741 0.04399,-3.5647 z m 2.824824,3.04271 c 0,-0.3638 0.06005,-0.51263 0.133453,-0.33073 0.0734,0.1819 0.0734,0.47956 0,0.66146 -0.0734,0.1819 -0.133453,0.0331 -0.133453,-0.33073 z m -33.758953,-0.33073 c -0.363772,-1.22479 -0.455713,-11.97081 -0.165373,-19.32878 0.363236,-9.20536 1.018816,-15.22651 2.525301,-23.19351 2.294025,-12.13189 4.917686,-19.25838 8.7215,-23.68969 0.620091,-0.72239 0.340366,-0.18477 -1.927317,3.70417 -1.041625,1.78632 -2.382499,5.54816 -3.520273,9.87616 -1.207697,4.59398 -3.218341,14.92326 -3.511065,18.03738 -0.08891,0.94588 -0.21452,2.01745 -0.279127,2.38125 -0.06461,0.3638 -0.239353,2.03068 -0.388322,3.70416 -0.148969,1.67349 -0.393728,4.11428 -0.543908,5.42396 -0.413461,3.6057 -0.695412,10.94733 -0.67826,17.66094 0.0085,3.3106 -7.67e-4,6.01927 -0.02048,6.01927 -0.01973,0 -0.115427,-0.26789 -0.212674,-0.59531 z m 36.404786,0.0661 c 0,-0.36381 0.06006,-0.51263 0.133454,-0.33073 0.0734,0.1819 0.0734,0.47955 0,0.66145 -0.0734,0.18191 -0.133454,0.0331 -0.133454,-0.33072 z m -34.056602,-1.75514 c -0.222977,-1.78464 0.322318,-22.3568 0.665587,-25.11045 0.1277,-1.02438 0.366366,-3.52469 0.530369,-5.55625 0.486576,-6.02735 1.679199,-13.9863 2.773722,-18.51041 0.211236,-0.87312 0.572807,-2.42093 0.803495,-3.43958 0.946303,-4.17863 3.266403,-10.00969 4.737333,-11.90625 0.505155,-0.65133 0.564798,-0.18569 0.06871,0.53644 -0.625546,0.91058 -2.825348,6.99602 -3.173613,8.77935 -0.05089,0.26059 -0.162042,0.65239 -0.247002,0.87067 -0.310137,0.79678 -2.08752,9.19731 -2.463147,11.64166 -0.858673,5.58775 -1.682462,12.20969 -2.106555,16.93334 -0.07186,0.80036 -0.18478,1.99099 -0.250939,2.64583 -0.06616,0.65485 -0.185428,2.79797 -0.265043,4.7625 -0.07961,1.96453 -0.197468,4.16719 -0.261896,4.89479 -0.06443,0.72761 -0.196487,4.35901 -0.293462,8.0698 -0.09697,3.71078 -0.209941,6.78666 -0.251036,6.83529 -0.04109,0.0486 -0.16103,-0.60239 -0.266522,-1.44673 z m 12.250835,0.49841 c -0.367943,-2.8961 -0.439653,-21.2438 -0.125386,-32.08073 0.111831,-3.8563 0.261461,-9.3927 0.332512,-12.30312 0.07105,-2.91042 0.185412,-6.18464 0.254135,-7.27604 0.06872,-1.09141 0.192553,-3.65125 0.27518,-5.68854 0.171297,-4.22353 0.601811,-8.27946 0.940816,-8.86355 0.133422,-0.22987 0.177117,1.77412 0.103844,4.7625 -0.06958,2.83766 -0.185693,7.83829 -0.258035,11.1125 -0.07234,3.27422 -0.244279,8.92969 -0.382082,12.56771 -0.337206,8.90241 -0.665176,24.77413 -0.671111,32.47761 -0.0045,5.84309 -0.167129,7.6746 -0.469873,5.29166 z m 14.39173,-10.90971 c -0.01077,-6.56394 -0.06893,-12.01837 -0.129257,-12.12096 -0.06033,-0.10258 -0.185814,-2.74636 -0.278863,-5.87506 -0.248161,-8.34401 -0.870998,-15.16699 -1.908053,-20.90208 -0.515096,-2.84856 -1.835896,-8.44746 -2.350024,-9.96178 -0.729843,-2.1497 -2.207575,-4.98056 -3.209938,-6.1492 -0.677551,-0.78994 -0.817812,-1.06629 -0.438047,-0.86304 0.842248,0.45076 2.540121,2.5457 3.316163,4.09168 2.000811,3.9859 3.554201,10.67624 4.434731,19.10005 0.16732,1.60073 0.412317,3.77066 0.544434,4.82207 0.342151,2.72291 0.823081,14.76427 0.869431,21.76856 0.04569,6.90458 -0.403013,17.55425 -0.755941,17.94179 -0.04128,0.0453 -0.08387,-5.28808 -0.09464,-11.85203 z M 8.7392385,87.292221 C 8.4028449,85.794461 8.2716251,74.796531 8.5443044,70.954201 9.6976999,54.701711 10.710422,49.293861 14.50068,39.147671 c 0.229061,-0.61318 0.34005,-1.32755 0.246642,-1.5875 -0.09341,-0.25995 -0.06872,-0.38057 0.05486,-0.26805 0.123582,0.11253 0.494064,-0.51195 0.823292,-1.38772 0.56057,-1.49115 1.230669,-2.69457 3.81428,-6.85005 2.603464,-4.18741 6.8444,-8.21635 10.244693,-9.73259 1.842826,-0.82174 2.006502,-0.78603 0.573423,0.12509 -3.430664,2.18116 -7.56025,6.18704 -9.658696,9.36936 -2.717004,4.12037 -4.374853,7.78507 -6.195515,13.69528 -0.470696,1.52797 -0.912982,2.95672 -0.982857,3.175 -0.887116,2.77124 -1.491144,5.47002 -2.161447,9.6573 -1.5849225,9.90074 -2.2061518,17.10658 -2.2524726,26.12715 -0.018494,3.60139 -0.04951,6.54819 -0.068926,6.54844 -0.019415,2.5e-4 -0.1088393,-0.32697 -0.1987191,-0.72716 z m 21.6567295,-0.19843 c -0.309332,-1.27861 -0.248068,-10.58909 0.141894,-21.56354 0.286022,-8.04939 0.379417,-9.56631 1.189164,-19.31459 0.884473,-10.64788 3.150227,-22.73584 4.66942,-24.91168 0.551063,-0.78925 0.604739,-1.01749 0.239286,-1.01749 -0.872212,0 -3.554867,8.26166 -4.639318,14.2875 -0.379738,2.11006 -0.856488,4.72943 -1.059447,5.82084 -0.577607,3.10608 -0.879351,5.15258 -1.30687,8.86354 -0.778803,6.76015 -0.96861,9.36234 -1.225486,16.80104 -0.143219,4.14735 -0.366774,10.6162 -0.496792,14.37522 -0.130017,3.75903 -0.30606,6.90427 -0.391205,6.98942 -0.08515,0.0851 -0.158126,-0.13293 -0.162172,-0.4846 -0.004,-0.35168 -0.07854,-4.77154 -0.165539,-9.82193 -0.234608,-13.61939 0.503653,-22.51978 3.243556,-39.10394 1.357146,-8.21456 2.137598,-11.02305 4.217411,-15.17651 0.645615,-1.28931 1.106535,-2.45312 1.024263,-2.58624 -0.08227,-0.13312 0.0081,-0.20931 0.200814,-0.16933 0.192717,0.04 0.317679,-0.085 0.277693,-0.27769 -0.03998,-0.19272 0.04108,-0.28008 0.180157,-0.19413 0.139071,0.086 0.327642,0.0353 0.419045,-0.11262 0.0914,-0.14789 0.302038,-0.2689 0.468074,-0.2689 0.217448,0 0.213082,0.0888 -0.01561,0.3175 -0.38557,0.38557 -0.422696,0.83708 -0.04989,0.60667 0.147191,-0.091 0.01519,0.46755 -0.293312,1.24115 -1.03047,2.58394 -1.211114,3.24249 -1.655947,6.03676 -1.390753,8.73622 -2.743938,21.18456 -3.206883,29.50105 -0.081,1.4552 -0.202152,3.41974 -0.269213,4.36562 -0.06706,0.94589 -0.185796,3.20807 -0.263856,5.02709 -0.07806,1.81901 -0.215336,4.49791 -0.305056,5.95312 -0.08972,1.45521 -0.240755,5.6224 -0.335635,9.26042 -0.132945,5.09767 -0.231222,6.37188 -0.428546,5.55625 z m 25.611489,-5.4867 c -0.0059,-3.53075 -0.08387,-7.66971 -0.173283,-9.19768 -0.08941,-1.52797 -0.220464,-4.32594 -0.291235,-6.21771 -0.61618,-16.47131 -1.054288,-21.11833 -2.818686,-29.89791 -1.412261,-7.02737 -3.803697,-12.1113 -7.006357,-14.89474 -0.704067,-0.61191 -1.160116,-1.11256 -1.013439,-1.11256 0.933694,0 4.125558,3.23733 5.486303,5.56444 2.745589,4.69545 5.281186,17.07708 5.985562,29.22827 0.15811,2.72754 0.126569,3.5004 -0.15236,3.73334 -0.451159,0.37677 -0.448545,0.63229 0.0065,0.63229 0.42368,0 0.606103,2.84919 0.85548,13.36146 0.126704,5.34112 0.06941,7.79016 -0.256275,10.95377 -0.230709,2.24102 -0.462664,4.11779 -0.515461,4.17059 -0.0528,0.0528 -0.10082,-2.79281 -0.106717,-6.32356 z m 7.221054,-0.46643 c 0.268615,-13.37435 0.174738,-17.51905 -0.563309,-24.87083 -0.54579,-5.43672 -2.235419,-14.90347 -3.319007,-18.59596 -0.861182,-2.9346 -3.629385,-9.02273 -5.530517,-12.16329 -0.757716,-1.25171 -4.40999,-4.86659 -4.662157,-4.61442 -0.04502,0.045 0.786609,0.96806 1.848059,2.0512 1.563921,1.59588 2.185549,2.49619 3.277929,4.74747 1.312857,2.70565 3.32868,8.30887 4.140636,11.50937 0.776888,3.06229 2.34896,11.78817 2.6694,14.81667 0.898152,8.48856 1.093142,18.69718 0.51167,26.78832 -0.264031,3.674 -0.57513,6.58492 -0.691333,6.46872 -0.116202,-0.1162 -0.07793,-2.40782 0.08506,-5.09249 0.31038,-5.11263 0.163409,-15.65668 -0.280096,-20.09476 -0.13815,-1.38245 -0.382699,-4.29948 -0.543441,-6.48229 -0.756113,-10.26768 -3.0127,-20.18247 -6.101043,-26.80624 -1.005851,-2.15731 -2.908919,-4.82314 -4.379185,-6.13439 l -0.741677,-0.66145 0.452027,0.66145 c 2.977605,4.35717 3.403716,5.1839 4.772972,9.26042 1.102315,3.2818 1.752648,5.81846 2.645447,10.31875 0.984173,4.96088 1.222283,6.68088 2.032844,14.68438 0.315278,3.11306 0.324591,27.50147 0.01117,29.23646 -0.137227,0.75962 -0.233876,-1.58692 -0.266994,-6.4823 -0.13948,-20.61863 -0.470088,-25.75209 -2.36855,-36.77708 -1.299202,-7.54491 -3.522829,-14.11355 -6.049537,-17.87045 -1.410668,-2.09749 -3.216711,-4.11666 -4.280844,-4.78601 l -0.64606,-0.40639 h 0.854909 c 0.470199,0 0.724056,0.0809 0.564128,0.17971 -0.278648,0.17222 0.779894,1.06019 1.25284,1.05096 0.11426,-0.002 0.0326,-0.11481 -0.181468,-0.25019 -0.214066,-0.13538 -0.301378,-0.33398 -0.194026,-0.44134 0.107352,-0.10735 0.336073,-0.0543 0.508275,0.11791 0.172198,0.1722 0.438105,0.31044 0.590902,0.30721 0.152796,-0.003 -0.01984,-0.23872 -0.383646,-0.52329 -1.147575,-0.89764 -0.185455,-0.57214 1.368607,0.46302 2.788026,1.85712 4.154721,3.33579 5.930265,6.41615 3.048339,5.2885 4.234178,8.58066 6.14706,17.06563 2.035278,9.02787 2.67214,20.65278 2.041408,37.26256 -0.304273,8.01279 -0.685562,7.75516 -0.522713,-0.35319 z m -49.455671,4.82865 c -0.394195,-4.09948 -0.499806,-11.41812 -0.20713,-14.35365 0.16685,-1.67349 0.367054,-3.81661 0.444899,-4.7625 0.628056,-7.63147 2.420803,-17.76623 3.954802,-22.35729 0.340357,-1.01865 1.114937,-3.41986 1.721288,-5.33604 1.224347,-3.86915 4.496636,-10.69459 6.257701,-13.0525 1.317219,-1.76364 4.768187,-5.29167 5.176087,-5.29167 0.161669,0 -0.416708,0.74414 -1.285279,1.65365 -0.868569,0.9095 -2.10737,2.36802 -2.752884,3.24114 -1.223658,1.65512 -5.01219,8.93269 -5.01219,9.62816 0,0.21975 -0.603083,1.93085 -1.340184,3.80245 -1.853414,4.70608 -3.526911,11.23597 -4.355894,16.99648 -1.801993,12.52184 -2.240568,17.95742 -2.065437,25.59843 0.08518,3.71633 0.04193,6.01928 -0.113043,6.01928 -0.138053,0 -0.328284,-0.80368 -0.422736,-1.78594 z m 2.897503,0.92604 c -0.913724,-4.50857 -0.603864,-18.03006 0.632092,-27.58281 0.150623,-1.16417 0.341042,-2.83105 0.423155,-3.70417 0.478613,-5.08922 3.053594,-15.19422 5.316903,-20.86513 1.159114,-2.90426 3.720095,-7.94803 4.653579,-9.16508 1.065822,-1.38958 3.770824,-4.29439 4.448101,-4.77665 l 0.707732,-0.50395 v 0.68417 c 0,0.41504 -0.07831,0.55747 -0.199075,0.36207 -0.475962,-0.77013 -4.953596,5.05723 -6.506423,8.46769 -0.231901,0.50933 -0.749842,1.64042 -1.15098,2.51355 -1.893908,4.12231 -4.722057,13.80072 -5.837245,19.97604 -0.543865,3.01164 -1.930796,16.20642 -2.237157,21.28353 -0.220766,3.65861 -0.219755,8.38828 0.0025,11.52267 0.187234,2.64096 0.07721,3.41812 -0.253144,1.78807 z m -5.509825,-1.25677 c -0.418518,-2.56866 -0.54803,-9.30882 -0.235321,-12.24669 0.173687,-1.63177 0.553393,-5.28857 0.84379,-8.12623 0.290398,-2.83765 0.636908,-5.81422 0.770022,-6.61458 0.269579,-1.62087 0.78143,-4.9293 0.982418,-6.35 0.703236,-4.97091 3.254114,-12.97713 5.985259,-18.78542 2.604778,-5.53954 5.812768,-9.93971 8.770094,-12.02931 2.199264,-1.55396 3.206626,-1.99157 1.730854,-0.7519 -5.26412,4.42194 -8.036115,8.71424 -11.756998,18.20517 -2.247121,5.73177 -3.038293,9.11782 -4.760259,20.37292 -1.390111,9.08602 -1.792143,13.31924 -1.972524,20.76979 -0.104454,4.31445 -0.233283,6.31762 -0.357335,5.55625 z m 54.450825,-9.39271 c 0.04383,-5.82083 -0.0293,-12.19068 -0.162502,-14.15521 -0.795716,-11.73543 -2.401464,-20.51665 -4.934971,-26.9875 -1.278126,-3.26447 -3.789082,-8.1166 -5.202981,-10.05417 -1.034129,-1.41713 -3.632031,-3.57577 -5.918166,-4.91751 -0.907105,-0.53238 -1.58455,-1.0727 -1.505431,-1.20072 0.192534,-0.31153 -1.1649,-0.81119 -1.722755,-0.63414 -0.243073,0.0772 -0.673833,-0.0421 -0.957242,-0.265 -0.476218,-0.37454 -0.414988,-0.39334 0.80763,-0.24793 2.182498,0.25957 4.686703,1.10907 5.987796,2.03124 3.548933,2.51534 5.309944,4.12568 6.591808,6.02781 0.343236,0.50933 0.693259,0.98558 0.777828,1.05834 0.25264,0.21736 2.261513,3.71872 3.11195,5.42396 2.57724,5.16769 4.661868,14.64046 5.502327,25.00312 0.10032,1.23693 0.242883,2.48708 0.316805,2.77813 0.241562,0.95105 0.325569,21.66754 0.09227,22.75416 -0.171778,0.8001 -0.235569,0.18678 -0.261426,-2.51354 -0.01881,-1.96453 -0.09776,-6.60797 -0.175448,-10.31875 -0.122614,-5.85688 -0.292204,-8.44634 -1.057016,-16.13958 -0.43837,-4.40956 -2.214904,-12.81618 -3.550491,-16.80104 -2.131251,-6.35882 -4.130374,-9.83685 -7.679987,-13.36146 -2.081993,-2.06734 -2.944349,-2.71733 -4.857739,-3.6615 -1.279507,-0.63138 -2.381205,-1.09313 -2.448221,-1.02611 -0.06702,0.067 0.41339,0.37344 1.06757,0.68094 3.092481,1.45364 5.842164,3.75576 7.406153,6.20067 1.28053,2.00179 3.697046,6.6973 4.249436,8.25704 1.261975,3.56334 1.528984,4.4145 2.116505,6.74687 0.761971,3.02493 1.907765,8.87003 2.108427,10.75586 0.07978,0.74973 0.201951,1.52364 0.271497,1.71979 0.702175,1.98043 0.90881,23.37284 0.288404,29.85769 -0.324048,3.38714 -0.3376,3.0245 -0.26203,-7.01146 z m -46.336971,7.35963 c -0.468379,-6.59536 -0.262504,-14.81955 0.558448,-22.30859 0.215353,-1.96453 0.441967,-4.5839 0.503585,-5.82083 0.06162,-1.23693 0.34629,-3.43959 0.632603,-4.89479 0.286313,-1.45521 0.597911,-3.18162 0.692439,-3.83646 0.234502,-1.62451 1.833645,-7.40569 3.087272,-11.16104 0.847547,-2.5389 2.805203,-6.82614 4.06829,-8.90949 1.743739,-2.87615 2.314035,-3.70884 2.925688,-4.27178 l 0.718003,-0.66082 -0.342765,0.66146 c -0.188524,0.3638 -0.939329,1.61396 -1.668458,2.77813 -2.007057,3.20458 -3.16812,5.93884 -5.336685,12.5677 -1.892372,5.7846 -3.279701,13.06494 -3.983065,20.90209 -0.07183,0.80036 -0.241854,2.64583 -0.377829,4.10104 -0.510714,5.46566 -0.757843,10.13189 -0.930826,17.5756 -0.07584,3.26366 -0.184152,5.98018 -0.240684,6.03672 -0.05653,0.0565 -0.19424,-1.18499 -0.306016,-2.75894 z m -13.7655028,0.51172 c -0.3329398,-2.98474 -0.2648895,-16.07671 0.1034891,-19.90989 0.3096731,-3.22233 2.0317603,-12.69573 2.6693421,-14.68438 0.139967,-0.43656 0.7563276,-2.40109 1.3696902,-4.36562 0.6133624,-1.96453 1.4451114,-4.40531 1.8483304,-5.42396 0.403219,-1.01865 1.054432,-2.67858 1.447139,-3.68875 0.392707,-1.01016 0.977685,-2.26032 1.299952,-2.77812 0.322267,-0.51781 0.66371,-1.15219 0.758764,-1.40975 0.894818,-2.4246 7.161527,-9.68035 9.379924,-10.86029 0.400038,-0.21278 1.501248,-0.80443 2.447134,-1.31477 0.945885,-0.51035 2.13651,-1.00721 2.645833,-1.10415 l 0.926042,-0.17625 -1.058333,0.61277 c -0.582084,0.33702 -1.510277,0.85049 -2.06265,1.14104 -0.945625,0.4974 -2.838554,1.84337 -4.867609,3.46113 -2.516093,2.00607 -6.721191,7.99986 -8.575447,12.22311 -0.429201,0.97755 -0.884165,1.96478 -1.011031,2.19385 -0.126867,0.22907 -0.599641,1.71735 -1.05061,3.30729 -0.450969,1.58995 -0.994669,3.30752 -1.208221,3.81685 -0.412214,0.98313 -2.6282349,9.98868 -2.8972492,11.77396 -0.087711,0.58208 -0.2726643,1.65364 -0.4110064,2.38125 -0.6711397,3.52982 -1.1541694,11.21646 -1.1762962,18.71885 -0.012769,4.32901 -0.1030341,7.87112 -0.200592,7.87135 -0.097558,2.3e-4 -0.2670258,-0.80325 -0.376595,-1.78552 z m 27.9143368,-2.77812 c -0.09451,-14.84135 0.401072,-29.79226 1.339662,-40.41511 0.135004,-1.52796 0.315802,-3.73062 0.40177,-4.89479 0.08597,-1.16416 0.26143,-2.89057 0.389911,-3.83646 0.128485,-0.94588 0.359598,-2.73182 0.513588,-3.96875 0.617249,-4.95804 0.779992,-5.9843 1.065247,-6.71742 0.519962,-1.33632 0.583883,-0.57273 0.199798,2.38675 -0.205248,1.58151 -0.394367,3.8875 -0.420264,5.12442 -0.0259,1.23693 -0.157377,2.96334 -0.292175,3.83646 -0.243686,1.57842 -0.401306,3.3765 -1.182867,13.49375 -0.224832,2.91042 -0.458465,5.70839 -0.519187,6.21771 -0.06072,0.50932 -0.189309,2.95011 -0.28575,5.42396 -0.09644,2.47385 -0.218088,4.97417 -0.270327,5.55625 -0.05224,0.58208 -0.179713,5.67201 -0.283271,11.31094 -0.10356,5.63893 -0.288155,10.2526 -0.410207,10.2526 -0.122055,0 -0.232722,-1.69664 -0.245928,-3.77031 z m -30.2010215,2.97656 c -0.1071536,-0.3638 -0.1844905,-1.25677 -0.1718599,-1.98437 l 0.022966,-1.32292 0.2488475,1.05833 c 0.136866,0.58209 0.2142029,1.47506 0.1718598,1.98438 -0.071164,0.85598 -0.091726,0.876 -0.2718123,0.26458 z m 67.8826065,-5.95312 c -0.03257,-5.56651 -0.653608,-14.6961 -1.565846,-23.01875 -0.412322,-3.76174 -2.301243,-13.23521 -3.125452,-15.67501 -2.004134,-5.93258 -3.326862,-8.71142 -6.053637,-12.71773 -3.255476,-4.7831 -6.608929,-7.39755 -11.583048,-9.03047 -0.91226,-0.29947 -1.936644,-0.5445 -2.276414,-0.5445 -0.360622,0 -0.61776,-0.15822 -0.61776,-0.38011 0,-0.22671 -0.347033,-0.43077 -0.859896,-0.50563 -0.472943,-0.069 0.443378,-0.0951 2.036268,-0.0579 2.103305,0.0491 2.718985,-0.004 2.248958,-0.1924 -0.355962,-0.14301 -2.016424,-0.2628 -3.689914,-0.26618 -3.698673,-0.007 -2.83501,-0.43566 1.058334,-0.5247 2.174004,-0.0497 2.665439,0.0237 3.638021,0.5432 0.618463,0.33038 1.124479,0.64129 1.124479,0.69092 0,0.0496 -0.327422,0.0414 -0.727604,-0.0183 -0.400183,-0.0597 -0.07276,0.135 0.727604,0.43262 2.914769,1.08385 4.86597,2.26916 6.926855,4.20789 1.873869,1.7628 5.230847,6.22603 4.918091,6.53879 -0.06921,0.0692 -0.428784,-0.32307 -0.799045,-0.87173 -1.011012,-1.49814 -4.269647,-5.04081 -5.550886,-6.03473 -2.708643,-2.10122 -7.85249,-4.23093 -9.758273,-4.04021 -0.738484,0.0739 -0.5768,0.14939 0.919133,0.42919 3.680688,0.68841 6.08397,2.01414 9.387089,5.17823 4.142806,3.96843 8.202927,11.27831 10.244053,18.44349 0.90469,3.17584 1.969812,9.30151 2.492504,14.33476 0.13946,1.34294 0.440648,4.16811 0.669306,6.27817 0.439772,4.0582 0.722128,17.58841 0.419632,20.10833 -0.108961,0.9077 -0.185169,-0.33665 -0.202552,-3.30729 z m -68.1152115,0.92604 c -0.7191374,-8.04204 0.4032459,-21.68167 2.3949363,-29.10417 1.2606507,-4.69811 2.4410694,-8.57293 2.6961447,-8.85031 0.1271272,-0.13825 0.2311402,-0.41791 0.2311402,-0.62147 0,-0.20357 0.1680888,-0.7453 0.3735306,-1.20386 0.2054418,-0.45855 0.9465953,-2.1394 1.6470077,-3.73521 1.1764,-2.6803 3.449267,-6.56508 3.973508,-6.79151 0.123014,-0.0531 0.580849,-0.63022 1.017412,-1.28242 2.827273,-4.22381 8.255716,-8.56589 12.252264,-9.8003 2.404959,-0.74281 3.560003,-0.68239 1.638361,0.0857 -2.796607,1.11783 -6.231012,3.09683 -7.888223,4.54541 -0.918783,0.80312 -1.763011,1.46021 -1.876063,1.46021 -0.113052,0 -0.968664,0.91365 -1.90136,2.03033 -0.932697,1.11668 -1.977416,2.32643 -2.321598,2.68833 -0.9246,0.97221 -2.344026,3.27479 -3.257761,5.28473 -1.135408,2.49755 -3.0191493,7.15401 -3.3386424,8.25286 -0.1480868,0.50932 -0.6235007,2.11667 -1.0564752,3.57188 -1.0900312,3.66354 -1.4938819,5.52736 -2.5511773,11.77395 -1.3995871,8.2689 -1.5160461,9.40792 -1.7042942,16.66876 -0.1097635,4.23364 -0.2322092,6.10624 -0.3287104,5.02708 z M 16.647643,24.253621 c 0.264197,-0.29193 0.537742,-0.4734 0.607878,-0.40327 0.177782,0.17779 -0.482129,0.93406 -0.815041,0.93406 -0.150257,0 -0.05703,-0.23885 0.207163,-0.53079 z m 0.924574,-1.00301 c 0,-0.68333 5.182601,-4.55162 6.098093,-4.55162 0.28407,0 0.516491,-0.10223 0.516491,-0.22719 0,-0.36603 4.124605,-1.89058 5.079841,-1.87764 0.718214,0.01 0.544409,0.11948 -0.9788,0.61804 -3.396434,1.11167 -8.106037,3.85983 -9.774857,5.70386 -0.504295,0.55723 -0.940768,0.71245 -0.940768,0.33455 z m 16.404167,-3.89016 c 0.341775,-0.3638 0.680939,-0.66146 0.7537,-0.66146 0.07276,0 -0.147341,0.29766 -0.489117,0.66146 -0.341775,0.3638 -0.680939,0.66146 -0.7537,0.66146 -0.07276,0 0.147341,-0.29766 0.489117,-0.66146 z m 12.7,-0.66146 c -0.238467,-0.15411 -0.2711,-0.25809 -0.08176,-0.26053 0.173313,-0.002 0.3887,0.11501 0.478637,0.26053 0.203015,0.32849 0.111421,0.32849 -0.396875,0 z M 26.28608,16.526501 c 1.26118,-0.73496 1.716245,-0.84751 3.704165,-0.91614 l 2.266347,-0.0782 -2.778125,0.63142 c -1.527969,0.34728 -3.113298,0.76216 -3.522953,0.92197 -1.273557,0.49681 -1.16437,0.31217 0.330566,-0.55902 z m 14.950769,-1.13843 c 0.282475,-0.21628 0.748803,-0.39324 1.036286,-0.39324 0.670698,0 0.524497,0.11395 -0.623835,0.48625 -0.841488,0.27281 -0.879149,0.26432 -0.412451,-0.093 z"
         id="path8531"
         inkscape:connector-curvature="0" />
    </g>
  </g>
</svg>
