<?xml version="1.0" encoding="UTF-8" standalone="no"?>
<!-- Created with Inkscape (http://www.inkscape.org/) -->

<svg
   xmlns:dc="http://purl.org/dc/elements/1.1/"
   xmlns:cc="http://creativecommons.org/ns#"
   xmlns:rdf="http://www.w3.org/1999/02/22-rdf-syntax-ns#"
   xmlns:svg="http://www.w3.org/2000/svg"
   xmlns="http://www.w3.org/2000/svg"
   xmlns:sodipodi="http://sodipodi.sourceforge.net/DTD/sodipodi-0.dtd"
   xmlns:inkscape="http://www.inkscape.org/namespaces/inkscape"
   version="1.1"
   id="svg2949"
   width="283"
   height="443"
   viewBox="0 0 283 443"
   sodipodi:docname="feu82.svg"
   inkscape:version="0.92.4 (5da689c313, 2019-01-14)">
  <metadata
     id="metadata2955">
    <rdf:RDF>
      <cc:Work
         rdf:about="">
        <dc:format>image/svg+xml</dc:format>
        <dc:type
           rdf:resource="http://purl.org/dc/dcmitype/StillImage" />
        <dc:title></dc:title>
      </cc:Work>
    </rdf:RDF>
  </metadata>
  <defs
     id="defs2953" />
  <sodipodi:namedview
     pagecolor="#ffffff"
     bordercolor="#666666"
     borderopacity="1"
     objecttolerance="10"
     gridtolerance="10"
     guidetolerance="10"
     inkscape:pageopacity="0"
     inkscape:pageshadow="2"
     inkscape:window-width="1280"
     inkscape:window-height="972"
     id="namedview2951"
     showgrid="false"
     inkscape:zoom="1.5067919"
     inkscape:cx="112.64858"
     inkscape:cy="221.5"
     inkscape:window-x="-8"
     inkscape:window-y="-8"
     inkscape:window-maximized="1"
     inkscape:current-layer="g151"
     showguides="false" />
  <g
     id="g151"
     transform="translate(25.882805,-2.654647)">
    <path
       style="fill:#d45500"
       d="m 69.981231,347.65083 c -3.930811,-22.1681 -1.730766,-149.85589 2.536558,-147.21854 0.850744,0.52579 0.774927,3.29621 -1.162231,42.46854 -0.685912,13.87022 -0.978561,40.81311 -0.714164,65.75 0.246379,23.2375 0.328298,42.25 0.182042,42.25 -0.146256,0 -0.525248,-1.4625 -0.842205,-3.25 z m 74.526049,-9.75 c -0.10638,-5.225 -0.38088,-10.4 -0.61,-11.5 -0.22912,-1.1 -0.65054,-10.1 -0.93649,-20 -0.94541,-32.73162 -3.54932,-77.74258 -5.49582,-95 -2.55034,-22.61108 -3.11738,-30.33059 -2.09351,-28.5 0.91584,1.63743 1.78529,6.00552 2.58759,13 0.81128,7.0728 3.5082,27.18598 4.08965,30.5 3.01349,17.17541 5.71804,103.53104 3.61732,115.5 -0.96271,5.48511 -0.96585,5.47429 -1.15874,-4 z m 38.45961,-21.24991 c 0,-39.58446 -0.96565,-49.5623 -10.08925,-104.25009 -3.66504,-21.96863 -6.74724,-35.9928 -10.54934,-48 -3.0935,-9.76942 -3.23975,-10.5 -2.10189,-10.5 0.87245,0 4.45536,10.61643 7.7622,23 3.07505,11.51558 8.99245,42.28557 11.53864,60 1.14629,7.975 2.47859,17.2 2.96068,20.5 1.97367,13.5102 3.03855,32.27388 3.07283,54.14464 0.0344,21.91807 -0.50907,30.35525 -1.95516,30.35545 -0.35129,4e-5 -0.63871,-11.36246 -0.63871,-25.25 z M 50.292838,338.65083 c -0.09573,-1.2375 -0.310003,-3.6 -0.476164,-5.25 -0.913902,-9.07515 -1.76321,-58.28178 -1.242722,-72 1.58476,-41.76867 7.345471,-81.66587 14.360435,-99.45669 2.45383,-6.22322 5.521715,-10.98365 4.216867,-6.54331 -8.61415,29.31358 -10.55482,39.37704 -12.631232,65.5 -1.959284,24.64939 -2.552208,44.09026 -2.493282,81.75 0.03292,21.0375 -0.304582,38.25 -0.75,38.25 -0.445417,0 -0.888174,-1.0125 -0.983902,-2.25 z m 9.174052,1.25 c 0,-0.55 0.45,-1 1,-1 0.55,0 1,0.45 1,1 0,0.55 -0.45,1 -1,1 -0.55,0 -1,-0.45 -1,-1 z m 96.55048,-1.25 c -1.03018,-3.32962 -2.28248,-24.53741 -3.05578,-51.75 -0.96076,-33.80935 -4.24583,-71.45021 -8.06065,-92.36047 -0.78873,-4.32326 -1.39852,-9.27326 -1.3551,-11 l 0.0789,-3.13953 1.3764,4 c 2.20628,6.41175 8.33237,47.48117 9.92219,66.51858 0.80293,9.61478 1.76162,33.56892 2.1304,53.23142 0.59258,31.5945 0.36886,39.04188 -1.0364,34.5 z m 17.89567,0.16287 c -0.36954,-0.59793 -0.17109,-1.58793 0.44098,-2.2 0.81716,-0.81716 1.11287,-0.52829 1.11287,1.08713 0,2.41451 -0.51946,2.78655 -1.55385,1.11287 z m 18.94137,-4.66287 c 0.22606,-2.6125 0.45635,-9.85 0.51175,-16.08333 0.0764,-8.59275 0.403,-11.23052 1.35073,-10.90815 1.16282,0.39554 1.26394,13.24851 0.18956,24.09332 -0.17154,1.73149 -0.34061,4.16066 -0.37572,5.39816 -0.0351,1.2375 -0.51913,2.25 -1.07559,2.25 -0.59801,0 -0.84367,-1.94241 -0.60073,-4.75 z m -71.51799,-4.41667 c -0.0718,-4.58333 -0.24819,-12.15833 -0.39207,-16.83333 -0.14388,-4.675 -0.5479,-19.075 -0.89782,-32 -0.34992,-12.925 -0.83489,-25.075 -1.07772,-27 -0.4146,-3.28671 -0.96318,-18.64022 -1.96517,-55 -0.56326,-20.43929 0.81245,-12.8802 2.8799,15.82423 0.85867,11.92167 1.77177,24.60077 2.02911,28.17577 0.86521,12.01937 2.71201,79.42475 2.38146,86.92001 -0.21168,4.80011 -0.76858,7.56595 -1.57722,7.83333 -0.92646,0.30635 -1.28377,-1.7436 -1.38047,-7.92001 z m 12.74282,2.93017 c -0.56348,-5.54439 -1.94009,-32.83258 -3.59505,-71.2635 -1.51016,-35.06855 -2.44091,-50.28036 -3.48762,-57 -0.8929,-5.7322 -1.7792,-20.99674 -1.18726,-20.44772 0.95114,0.88215 5.45611,34.06188 7.18897,52.94772 2.14025,23.32573 4.10772,99.48697 2.59422,100.42237 -0.56888,0.35159 -1.2022,-1.59822 -1.51326,-4.65887 z m -75.283157,-1.5135 c -1.247508,-8.80447 -0.879507,-74.59995 0.524354,-93.75 2.377437,-32.43059 9.502105,-76.5 12.367697,-76.5 0.589653,0 0.70925,1.12124 0.293329,2.75 -8.173109,32.0061 -12.24629,83.6232 -11.28434,143 0.469186,28.96072 -0.14587,36.88737 -1.90104,24.5 z m 43.260487,-0.49078 c -0.81992,-8.98023 -1.4043,-19.13704 -2.086188,-36.25922 -0.32855,-8.25 -0.79743,-19.05 -1.04195,-24 -0.49575,-10.03575 -0.52112,-87.57874 -0.0299,-91.5 0.17224,-1.375 0.37058,-4.0375 0.44078,-5.91667 0.0702,-1.87916 0.40051,-3.14377 0.734048,-2.81024 0.33353,0.33354 0.74053,10.19604 0.90444,21.91667 0.83948,60.0285 2.24415,120.59395 3.11797,134.43789 0.36373,5.76263 0.19939,9.36048 -0.44578,9.75921 -0.6345,0.39215 -1.23854,-1.74125 -1.59338,-5.62764 z m -62.117439,-0.0958 c -0.357667,-2.3851 -0.690424,-21.8476 -0.739459,-43.25 -0.111198,-48.53438 1.026515,-59.62019 10.893462,-106.14521 3.506075,-16.53198 10.24134,-35.96075 11.117759,-32.07066 0.210353,0.93368 -0.133983,2.66258 -0.76519,3.842 -1.691875,3.16129 -4.578614,12.48933 -6.331865,20.46041 -4.364582,19.84337 -5.718364,26.6529 -6.66004,33.5 -0.567308,4.125 -1.225769,8.175 -1.463246,9 -0.237478,0.825 -1.21171,9.375 -2.16496,19 -1.346906,13.59975 -1.721248,26.69345 -1.679632,58.75 0.04942,38.07028 -0.544239,48.0004 -2.206829,36.91346 z m 72.087149,-6.41342 c -0.34818,-5.9125 -0.82939,-13.675 -1.06933,-17.25 -0.4242,-6.32004 -1.20537,-24.10079 -2.04291,-46.5 -1.35274,-36.17755 -1.69271,-82.5 -0.60548,-82.5 0.74248,0 1.1614,2.06428 1.16688,5.75 0.005,3.1625 0.42482,10.7 0.9336,16.75 0.50877,6.05 1.18245,18.875 1.49706,28.5 0.31462,9.625 0.79916,21.55 1.07677,26.5 0.89673,15.98944 1.39743,33.57001 1.50946,53 0.14705,25.50418 0.11213,26.5 -0.92921,26.5 -0.49707,0 -1.18865,-4.8375 -1.53684,-10.75 z m 53.43596,1 c -0.009,-17.95598 -5.42093,-85.89315 -8.90282,-111.75 -1.89525,-14.07428 -3.27318,-22.98329 -3.64876,-23.59098 -0.68433,-1.10727 -5.43461,-24.34484 -5.39859,-26.40902 0.0308,-1.76473 0.19352,-1.70592 1.38338,0.5 2.7138,5.0312 7.92924,29.54582 9.01258,42.36264 0.31903,3.77445 0.78123,7.18814 1.0271,7.58597 0.58448,0.9457 6.06123,51.68941 7.45269,69.05139 1.38532,17.28527 1.43811,52 0.0791,52 -0.59797,0 -1.00187,-3.91976 -1.00465,-9.75 z m -85.77673,7 c -1.24271,-3.02629 -0.72327,-116.33016 0.61546,-134.25 1.47024,-19.68004 2.14495,-24.42097 3.30974,-23.25618 0.49106,0.49106 0.39427,6.2746 -0.22278,13.31224 -1.57084,17.91574 -2.62468,71.94063 -2.17877,111.69394 0.2113,18.8375 0.11661,34.25 -0.21043,34.25 -0.32703,0 -0.91799,-0.7875 -1.31322,-1.75 z m 94.38518,-14.75 c -1.68602,-44.23261 -6.16025,-89.47513 -11.57062,-117 -4.99667,-25.42017 -5.89623,-33.33277 -2.94321,-25.88869 3.36811,8.49046 5.74054,22.23598 10.94064,63.38869 4.58029,36.24758 7.45851,88.25229 5.20246,94 -0.73184,1.8645 -1.14599,-1.82137 -1.62927,-14.5 z m -84.26848,6.75 c -1.27778,-11.85507 -0.91072,-133.21123 0.41211,-136.25 0.80558,-1.85057 1.0552,7.76107 0.9609,37 -0.0701,21.725 0.24037,54.6875 0.68985,73.25 0.55352,22.85898 0.48732,33.75 -0.20515,33.75 -0.56231,0 -1.39828,-3.4875 -1.85771,-7.75 z m -59.017218,2 c -1.24684,-6.05243 -0.859014,-63.41652 0.539171,-79.75 1.595255,-18.63562 6.629435,-54.14055 8.719976,-61.5 0.859288,-3.025 1.958322,-7.075 2.442298,-9 2.203848,-8.76574 10.476725,-27.48015 14.366921,-32.5 2.665923,-3.44007 1.763403,0.2009 -1.796823,7.2488 -8.124371,16.08315 -9.942501,21.88242 -14.186712,45.2512 -5.944563,32.73097 -7.598478,53.75252 -7.769197,98.74787 -0.07355,19.38634 -0.450845,35.24884 -0.838423,35.25 -0.387578,10e-4 -1.052323,-1.68537 -1.477211,-3.74787 z m 172.177568,-0.5 c 0.0992,-2.3375 0.25327,-8.4875 0.34235,-13.66667 0.21213,-12.33242 1.23796,-11.14719 1.34109,1.54948 0.11144,13.72071 -0.0537,16.36719 -1.02146,16.36719 -0.4633,0 -0.76118,-1.9125 -0.66198,-4.25 z m 15.99328,-4.75 c 1.68281,-23.04014 1.07735,-51.44701 -1.51328,-71 -5.25534,-39.665 -7.83875,-52.12672 -14.92023,-71.97134 -4.38655,-12.29253 -12.87783,-29.76334 -19.17875,-39.46023 -3.78693,-5.82797 -4.79796,-8.25584 -2.96661,-7.124 2.02154,1.24938 12.19817,17.69956 17.0468,27.55557 5.5137,11.20793 9.64473,22.56257 12.91556,35.5 8.19581,32.41766 14.05875,101.65551 10.57313,124.86239 -0.82875,5.5177 -1.76414,10.28091 -2.07864,10.5849 -0.31451,0.30399 -0.2596,-3.72229 0.12202,-8.94729 z m -198.794008,1.75 c -1.812608,-14.95466 1.041953,-81.13703 4.323958,-100.25 3.197747,-18.62229 5.242572,-28.81258 7.12358,-35.5 1.160262,-4.125 2.951528,-10.46905 3.980591,-14.0979 1.984716,-6.99882 11.652988,-27.45937 12.551068,-26.56129 0.292329,0.29233 -0.683262,3.09932 -2.167982,6.23776 -8.113897,17.15137 -16.206031,50.88614 -20.010728,83.42143 -2.086924,17.846 -3.437292,44.64838 -3.538228,70.22744 -0.04508,11.42491 -0.45663,20.77256 -0.91455,20.77256 -0.457919,0 -1.064388,-1.9125 -1.347709,-4.25 z m -10.028275,-3.41667 c -1.0619512,-1.06195 -0.7710962,-8.33333 0.333333,-8.33333 0.55,0 1,2.025 1,4.5 0,4.5784 -0.15181,5.01486 -1.333333,3.83333 z m 202.401503,-5.33333 c -0.19904,-0.825 -0.46257,-5.1 -0.58563,-9.5 -0.34614,-12.37607 -2.44317,-44.98839 -3.53661,-55 -3.45789,-31.66085 -18.67475,-87.39361 -28.12235,-103 -2.37114,-3.91686 -2.34255,-5.43208 0.045,-2.38486 2.92727,3.73606 10.60211,20.45015 14.08291,30.66943 7.02972,20.63857 12.6009,45.49338 15.06627,67.21543 0.59302,5.225 1.24909,10.85 1.45794,12.5 1.26101,9.96259 2.6245,38.80221 2.31663,49 -0.19924,6.6 -0.52512,11.325 -0.72416,10.5 z M 0.46689014,297.04093 c 0,-12.1348 1.72707596,-34.41563 3.96407466,-51.1401 0.551743,-4.125 1.741026,-13.35 2.64285,-20.5 2.178437,-17.27147 10.0352102,-48.42939 15.3817462,-61 5.692668,-13.38443 10.496184,-22.82758 12.426989,-24.43 2.282585,-1.89438 1.972929,-0.59052 -1.375077,5.79002 -9.099069,17.34076 -18.062155,44.84205 -20.578275,63.13998 -0.189074,1.375 -1.012725,5.65 -1.830335,9.5 -3.7250922,17.54088 -8.3987022,63.47754 -8.5716209,84.25 -0.03435,4.12643 -0.491189,7.25 -1.060352,7.25 -0.61482596,0 -0.99999996,-4.9533 -0.99999996,-12.8599 z m 9.34710266,11.32205 c -1.368469,-3.56617 1.4967672,-53.5469 4.1826872,-72.96215 4.114343,-29.74064 7.120379,-43.94441 12.380737,-58.5 3.266787,-9.03932 11.079213,-25.34359 11.798895,-24.62391 0.236555,0.23655 -0.562672,2.37609 -1.776061,4.75453 -6.611397,12.95941 -12.328131,33.01375 -16.353842,57.36938 -2.440709,14.76634 -5.424681,39.28403 -6.146198,50.5 -0.371502,5.775 -0.827685,10.76493 -1.013738,11.08873 -0.186054,0.32381 -0.396972,7.85972 -0.468707,16.74647 -0.119711,14.8301 -0.964336,19.89926 -2.6037732,15.62695 z M 231.58802,298.74237 c -0.0397,-15.47483 -0.96444,-31.73857 -2.72015,-47.84154 -1.39833,-12.82512 -2.03557,-17.27848 -4.29271,-30 -7.37351,-41.5579 -22.08789,-76.00098 -41.24533,-96.54615 -11.08537,-11.88837 -13.92777,-14.1584 -24.51656,-19.57975 -14.81239,-7.583789 -13.21,-8.170009 2.15362,-0.78788 8.26349,3.97056 17.94636,11.76286 25.71201,20.69179 10.23517,11.76837 11.84808,13.84417 12.4103,15.97199 0.32698,1.2375 0.90771,2.25 1.29051,2.25 0.73329,0 6.28377,10.67485 10.42651,20.05253 4.75183,10.75648 13.52223,41.74597 15.19146,53.67778 0.24855,1.77667 0.86523,5.15167 1.37039,7.5 0.50517,2.34833 1.21978,7.19469 1.58803,10.76969 0.36826,3.575 1.06873,8.075 1.55661,10 1.87139,7.38383 3.04272,23.16482 2.93185,39.5 -0.13641,20.09816 -0.33016,24.18583 -1.18702,25.04268 -0.35222,0.35223 -0.65351,-4.46329 -0.66952,-10.70114 z m -38.5277,1.90846 c -0.30277,-2.8875 -0.78157,-8.175 -1.064,-11.75 -1.3774,-17.43494 -2.89845,-30.98389 -5.22024,-46.5 -6.18028,-41.30167 -8.53265,-53.19814 -14.03934,-71 -1.36106,-4.4 -2.84716,-9.2375 -3.30245,-10.75 -1.41835,-4.7119 0.67379,-3.01156 3.028,2.46093 5.60367,13.02611 13.33223,50.3256 18.39734,88.78907 4.92676,37.41292 6.0569,54 3.67922,54 -0.51043,0 -1.17577,-2.3625 -1.47853,-5.25 z M -6.8819969,299.9064 c -0.720147,-3.60074 0.09945,-26.044 1.369653,-37.50557 4.127206,-37.24152 5.39542004,-45.14688 11.8805467,-74.05694 7.4151672,-33.05608 26.7727402,-66.32064 46.3793912,-79.69956 2.221793,-1.51608 4.254026,-2.5421 4.516074,-2.28006 0.262048,0.26205 -3.81837,4.65248 -9.067596,9.75651 -11.095935,10.78901 -14.98107,15.76322 -21.133799,27.05799 -10.705109,19.65172 -17.4069872,41.42885 -26.12854686,84.90227 -0.737094,3.67411 -2.04901804,14.02411 -2.91538604,23 -0.866369,8.97588 -1.798947,17.89479 -2.072395,19.81979 -0.273449,1.925 -0.771361,9.8 -1.106471,17.5 -0.335111,7.7 -0.721658,14.12812 -0.858994,14.28472 -0.137335,0.1566 -0.52545,-1.09402 -0.862477,-2.77915 z M 202.04495,287.15083 c -1.19688,-22.02699 -1.97779,-27.86792 -9.12474,-68.25 -1.86243,-10.52322 -2.7817,-14.46404 -7.34796,-31.5 -5.41652,-20.20816 -8.22673,-27.89029 -15.6079,-42.66653 -1.28209,-2.56659 -2.059,-4.9386 -1.72646,-5.27114 1.83514,-1.83514 13.36978,23.82218 17.95459,39.93767 6.4898,22.81147 11.58087,48.90545 15.31208,78.4812 2.88595,22.87577 3.84165,42.0188 2.09776,42.0188 -0.47552,0 -1.17634,-5.7375 -1.55737,-12.75 z m 39.37802,3.66667 c -0.0242,-0.22917 -0.44951,-9.71285 -0.94524,-21.07486 -0.62051,-14.2221 -1.72647,-25.43795 -3.54984,-36 -6.25128,-36.21119 -11.73769,-54.3295 -23.87413,-78.84181 -8.71833,-17.60866 -15.10424,-27.18667 -24.50226,-36.75011 -6.45786,-6.57153 -9.42863,-8.95447 -18.13995,-14.55061 -3.90571,-2.50902 -27.83316,-10.691059 -31.27799,-10.695569 -1.77397,-0.002 -2.68226,-0.45695 -2.42926,-1.21593 1.16969,-3.50908 20.42062,1.55243 31.49617,8.28106 3.55896,2.162129 6.65428,3.931159 6.8785,3.931159 0.22421,0 3.68716,2.65888 7.69544,5.90861 7.64156,6.19545 17.02694,16.32649 20.23383,21.84139 1.03943,1.7875 2.24284,3.25 2.67426,3.25 0.43141,0 0.78439,0.47187 0.78439,1.0486 0,0.57673 1.81638,3.7832 4.0364,7.12551 3.93185,5.91951 11.09264,20.24465 15.15918,30.32589 4.51689,11.19769 11.60709,43.61699 14.21568,65 2.37866,19.49815 3.63877,50.7833 2.10716,52.31492 -0.28513,0.28513 -0.53818,0.33091 -0.56234,0.10175 z m -257.403205,-8.75007 c -0.346355,-1.09127 -0.388018,-4.61269 -0.09258,-7.82537 0.295434,-3.21267 1.015769,-12.14123 1.600745,-19.84123 1.464831,-19.28149 5.0934111,-42.12768 10.0854801,-63.5 2.412885,-10.33017 8.9478107,-30.37294 10.0531817,-30.83333 0.440166,-0.18334 0.800302,-0.98207 0.800302,-1.77497 0,-3.84666 14.3353412,-27.76509 20.7135582,-34.56044 1.503419,-1.60174 2.199563,-3.16282 1.741172,-3.90451 -0.443976,-0.71837 -0.351645,-0.98108 0.220526,-0.62745 0.54135,0.33457 4.104981,-2.41496 7.919181,-6.11007 4.686112,-4.53979 9.46062,-7.96635 14.723777,-10.56693 4.283878,-2.1167 8.015314,-3.622109 8.292081,-3.345339 0.276767,0.27677 -3.909827,3.474669 -9.303541,7.106439 -18.217714,12.26662 -30.370046,27.19701 -39.570642,48.6166 -0.826867,1.925 -2.4045262,5.525 -3.5059082,8 -2.024569,4.54956 -9.9342327,33.4462 -12.1806597,44.5 -0.670647,3.3 -1.411542,6.9 -1.646432,8 -0.726322,3.40139 -6.5237721,48.4638 -7.5192691,58.44576 -1.010159,10.12897 -1.347614,11.31911 -2.330968,8.22084 z m 88.642074,-86.6666 c 0.02038,-1.65 0.244498,-2.20394 0.498042,-1.23097 0.253543,0.97297 0.236869,2.32297 -0.03705,3 -0.273927,0.67703 -0.481372,-0.11903 -0.460992,-1.76903 z m 1.39146,-11 c 0.282621,-4.4 0.923551,-9.575 1.424281,-11.5 0.50073,-1.925 1.36432,-5.3 1.91908,-7.5 1.81473,-7.19658 0.17173,7.90755 -1.95801,18 l -1.899208,9 z m 67.080261,-12.16667 c -0.36667,-0.36666 -0.65299,-1.37916 -0.63626,-2.25 0.025,-1.3003 0.22011,-1.2571 1.09166,0.24167 1.07678,1.85169 0.76461,3.22835 -0.4554,2.00833 z m 16.06734,-2.0168 c -1.65493,-2.89817 -6.00761,-19.31653 -5.12102,-19.31653 0.18461,0 1.02455,1.33219 1.86654,2.96042 2.57208,4.97385 5.68316,20.6093 3.25448,16.35611 z m -51.13131,-8.41441 c -3.4329,-2.70032 -3.14149,-5.99805 0.6473,-7.32504 4.02483,-1.40966 8.17292,0.30133 8.55056,3.52692 0.55461,4.73721 -5.05773,7.05475 -9.19786,3.79812 z m -14.3527,-1.12261 c -2.91757,-1.4071 -2.93196,-5.18844 -0.0275,-7.22281 2.937312,-2.05737 4.370572,-1.96362 6.777492,0.4433 2.407718,2.40772 2.535328,4.32182 0.42857,6.42857 -1.79975,1.79975 -3.95592,1.90516 -7.178572,0.35094 z m 31.46237,-2.42223 c -4.84035,-2.53612 -2.4857,-8.35728 3.3805,-8.35728 2.19996,0 3.24862,0.65538 4.12447,2.57766 2.16311,4.74751 -2.54899,8.37632 -7.50497,5.77962 z m -46.46687,-6.51178 c -3.034252,-3.03425 0.22036,-8.8455 4.95395,-8.8455 2.29887,0 5.04269,4.26436 4.62768,7.19218 -0.27079,1.91036 -1.01679,2.35871 -4.33163,2.60332 -2.24878,0.16595 -4.55057,-0.25057 -5.25,-0.95 z m 80.92576,-1.94288 c -0.72041,-1.15356 -1.02919,-2.37802 -0.68617,-2.72104 0.73211,-0.73211 2.47744,1.75951 2.4996,3.56842 0.0212,1.72744 -0.2988,1.57792 -1.81343,-0.84738 z m -119.17126,0.60674 c 0,-2.08475 11.644517,-20.14441 14.517704,-22.51573 1.704406,-1.4067 1.734392,-1.34813 0.515216,1.00637 -0.711986,1.375 -2.71471,4.525 -4.450499,7 -1.735789,2.475 -4.382268,6.61424 -5.881065,9.19832 -2.502913,4.31526 -4.701356,6.79881 -4.701356,5.31104 z m 62.0586,-2.18087 c -2.940698,-2.05974 -2.301108,-5.45493 1.35691,-7.20302 2.63268,-1.2581 3.04908,-1.21059 4.29239,0.48973 3.3623,4.59823 -1.09935,9.9002 -5.6493,6.71329 z m 32.6403,-0.10871 c -3.04046,-3.35966 -1.84722,-6.28252 3.05475,-7.48268 1.35768,-0.33241 3.10377,0.13661 4.39195,1.17972 1.80417,1.46093 1.98689,2.18867 1.16934,4.65733 -1.21357,3.66446 -5.96734,4.57241 -8.61604,1.64563 z m -20.68812,-2.70679 c -1.97161,-2.37564 -0.43019,-6.51299 2.42648,-6.51299 3.84005,0 5.56274,1.05509 5.56274,3.40699 0,4.24758 -5.32399,6.3174 -7.98922,3.106 z m -24.42839,-4.82909 c -2.35572,-1.72254 -1.68973,-4.82204 1.36314,-6.34406 4.605122,-2.29591 8.552462,2.16217 5.031792,5.68284 -2.312122,2.31212 -3.911092,2.47745 -6.394932,0.66122 z m -19.38239,-1.8839 c -3.094337,-3.09434 -0.259849,-8.69826 4.43499,-8.7682 1.99019,-0.0296 5.36501,3.65754 5.36501,5.86159 0,3.34786 -7.217956,5.48865 -9.8,2.90661 z m 53.42663,-1.31623 c -2.10666,-2.10666 -0.59058,-5.20373 2.98687,-6.10161 3.72452,-0.9348 5.71588,1.32131 4.07747,4.61955 -1.49405,3.00763 -4.83737,3.70904 -7.06434,1.48206 z m -16.17465,-3.91671 c -2.2088,-3.37106 -0.48208,-6.56706 3.54802,-6.56706 5.20219,0 6.64816,7.05636 1.71688,8.37837 -3.3268,0.89188 -3.54227,0.81775 -5.2649,-1.81131 z m 32.94772,1.66011 c -2.31079,-1.52718 -3.51282,-5.14729 -2.3997,-7.22717 2.10913,-3.94094 10,-1.41089 10,3.2063 0,2.69362 -5.33661,5.51691 -7.6003,4.02087 z m -94.831902,-7.72717 c 1.468269,-1.925 3.110491,-3.5 3.649383,-3.5 1.126316,0 -4.304628,6.81842 -5.518072,6.9278 -0.44049,0.0397 0.40042,-1.5028 1.868689,-3.4278 z m 36.279302,0.0638 c -1.45953,-3.20332 -0.53329,-5.35344 2.65037,-6.15249 2.91091,-0.73059 6.50253,1.77909 6.50253,4.54371 0,4.46547 -7.26915,5.74315 -9.1529,1.60878 z m 96.6529,1.4362 c -0.33992,-0.55 -0.14148,-1 0.44098,-1 0.58246,0 1.05902,0.45 1.05902,1 0,0.55 -0.19844,1 -0.44098,1 -0.24254,0 -0.7191,-0.45 -1.05902,-1 z M 65.229153,125.82759 c -0.955755,-0.55683 -2.23181,-1.9356 -2.835677,-3.06394 -0.898763,-1.67935 -0.687954,-2.48793 1.16205,-4.45717 2.826482,-3.00865 6.321928,-3.08528 8.35466,-0.18314 2.158678,3.08194 1.945712,5.39161 -0.665802,7.22079 -2.568443,1.799 -3.613096,1.88297 -6.015231,0.48346 z m 57.904407,0.40657 c -1.06103,-1.06103 -0.77194,-6.15024 0.39017,-6.86846 3.47392,-2.147 8.46519,2.99627 5.90333,6.08312 -1.23749,1.49109 -5.10513,1.97372 -6.2935,0.78534 z m -28.263598,-2.86351 c -0.88058,-3.5085 2.71938,-7.51314 5.293998,-5.88911 4.83514,3.04993 3.98333,7.6816 -1.513608,8.23009 -2.65178,0.26459 -3.21378,-0.0834 -3.78039,-2.34098 z m -45.383016,-1.99399 c 0.69572,-0.83829 1.470881,-1.31823 1.72258,-1.06653 0.693498,0.6935 -0.715543,2.5907 -1.924098,2.5907 -0.663093,0 -0.587231,-0.57378 0.201518,-1.52417 z m 57.229944,-0.13811 c -2.99544,-1.20869 0.24438,-7.33772 3.87874,-7.33772 2.13044,0 3.87126,2.06537 3.87126,4.59301 0,2.92863 -3.88467,4.30441 -7.75,2.74471 z m 29.5,-1.41782 c -1.94928,-1.13535 -2.29772,-5.02796 -0.71482,-7.98564 2.45459,-4.58644 10.46925,-0.77447 9.20985,4.38043 -1.11296,4.5555 -4.43959,5.96729 -8.49503,3.60521 z m -53.55,-5.1199 c -0.66,-0.66 -1.2,-1.94026 -1.2,-2.84501 0,-1.97184 3.0905,-4.96768 5.07874,-4.92319 2.35382,0.0527 4.92126,2.55333 4.92126,4.79326 0,3.50967 -6.17705,5.59789 -8.8,2.97494 z m 35.83983,-1.25201 c -2.70336,-3.25735 1.45568,-7.47766 5.96017,-6.04799 2.24443,0.71235 2.71127,4.38873 0.8,6.3 -1.64482,1.64482 -5.299,1.50859 -6.76017,-0.25201 z m -51.384842,-5.37673 c -0.910244,-1.00581 -1.654988,-3.04046 -1.654988,-4.52144 0,-6.444109 10.18455,-5.400759 10.81341,1.10778 0.26285,2.72051 -0.11055,3.40487 -2.315103,4.24304 -3.706233,1.40911 -4.954414,1.25783 -6.843319,-0.82938 z m 26.920294,-3.08807 c -2.212632,-2.44493 -0.77821,-5.564459 2.994,-6.511219 2.89396,-0.72634 5.013778,0.53901 5.974608,3.566319 1.4132,4.4526 -5.538428,6.7352 -8.968608,2.9449 z m 15.610718,0.86197 c -1.8667,-0.74867 -2.2533,-1.55793 -2,-4.18661 0.2884,-2.992869 0.59741,-3.258549 3.78992,-3.258549 2.91957,0 3.63619,0.45572 4.47724,2.847249 0.83278,2.368 0.67843,3.08336 -0.91705,4.25 -2.18675,1.59899 -2.22458,1.60145 -5.35011,0.34791 z m 19.03333,-1.50409 c -4.05217,-2.83825 -1.90546,-9.441069 3.06948,-9.441069 1.41258,0 3.27548,0.70715 4.13976,1.57143 4.48067,4.480659 -1.97954,11.532659 -7.20924,7.869639 z m -49.6447,-7.358599 c -2.37669,-2.62621 -1.63179,-6.20496 1.67537,-8.04905 2.47108,-1.37789 3.02892,-1.37789 5.5,0 3.4491,1.92324 3.99612,5.22046 1.31149,7.90509 -2.58367,2.58367 -6.22308,2.6454 -8.48686,0.14396 z m 35.64788,-3.63917 c -1.22238,-0.85619 -2.22251,-2.36144 -2.22251,-3.34501 0,-3.61683 5.5019,-6.38398 8.61522,-4.33297 2.21363,1.4583 2.64374,5.29105 0.81993,7.30635 -2.11257,2.33436 -4.253,2.44464 -7.21264,0.37163 z m -19.222508,-1.4433 c -3.563972,-3.56396 -2.31307,-7.58738 2.66871,-8.58374 2.403628,-0.48073 3.531448,-0.11778 5.200288,1.6735 1.17205,1.25805 2.131,2.87751 2.131,3.5988 0,1.99511 -3.74625,5.31144 -5.999998,5.31144 -1.1,0 -2.9,-0.9 -4,-2 z"
       id="path181"
       inkscape:connector-curvature="0" />
  </g>
</svg>
