<?xml version="1.0" encoding="UTF-8" standalone="no"?>
<!-- Created with Inkscape (http://www.inkscape.org/) -->

<svg
   xmlns:dc="http://purl.org/dc/elements/1.1/"
   xmlns:cc="http://creativecommons.org/ns#"
   xmlns:rdf="http://www.w3.org/1999/02/22-rdf-syntax-ns#"
   xmlns:svg="http://www.w3.org/2000/svg"
   xmlns="http://www.w3.org/2000/svg"
   xmlns:sodipodi="http://sodipodi.sourceforge.net/DTD/sodipodi-0.dtd"
   xmlns:inkscape="http://www.inkscape.org/namespaces/inkscape"
   version="1.1"
   id="svg2949"
   width="283"
   height="443"
   viewBox="0 0 283 443"
   sodipodi:docname="feu81.svg"
   inkscape:version="0.92.4 (5da689c313, 2019-01-14)">
  <metadata
     id="metadata2955">
    <rdf:RDF>
      <cc:Work
         rdf:about="">
        <dc:format>image/svg+xml</dc:format>
        <dc:type
           rdf:resource="http://purl.org/dc/dcmitype/StillImage" />
        <dc:title></dc:title>
      </cc:Work>
    </rdf:RDF>
  </metadata>
  <defs
     id="defs2953" />
  <sodipodi:namedview
     pagecolor="#ffffff"
     bordercolor="#666666"
     borderopacity="1"
     objecttolerance="10"
     gridtolerance="10"
     guidetolerance="10"
     inkscape:pageopacity="0"
     inkscape:pageshadow="2"
     inkscape:window-width="1280"
     inkscape:window-height="972"
     id="namedview2951"
     showgrid="false"
     inkscape:zoom="1.5067919"
     inkscape:cx="112.64858"
     inkscape:cy="221.5"
     inkscape:window-x="-8"
     inkscape:window-y="-8"
     inkscape:window-maximized="1"
     inkscape:current-layer="g151"
     showguides="false" />
  <g
     id="g151"
     transform="translate(25.882805,-2.654647)">
    <path
       style="fill:#00ff00"
       d="m 64.779098,333.01642 c -0.603528,-2.22245 -0.07199,-45.31364 0.733029,-59.42626 0.188241,-3.3 0.639295,-11.85 1.002342,-19 0.363048,-7.15 0.854612,-15.925 1.092365,-19.5 0.237753,-3.575 0.67593,-10.55 0.973726,-15.5 0.495017,-8.22823 1.255129,-16.84029 2.086781,-23.64318 0.17772,-1.45375 0.624727,-5.72875 0.993348,-9.5 0.368622,-3.77125 0.815796,-7.98182 0.99372,-9.35682 0.177925,-1.375 0.574933,-4.75 0.88224,-7.5 0.484718,-4.33759 1.594976,-13.2529 3.165525,-25.41898 2.184749,-16.92389 8.256949,-40.7778 13.384919,-52.581016 0.9558,-2.2 2.02611,-5.19767 2.37846,-6.6615 0.71666,-2.97726 9.677467,-16.79356 12.289217,-18.94823 1.5313,-1.26331 1.57843,-1.18988 0.5161,0.80403 -0.643,1.20687 -1.56982,2.44197 -2.0596,2.74467 -1.21621,0.75166 -6.395773,10.95034 -8.664717,17.06103 -1.02109,2.75 -2.4337,6.125 -3.13912,7.5 -0.70542,1.375 -1.28536,3.23254 -1.28875,4.12788 -0.003,0.89533 -0.70086,3.290516 -1.54994,5.322646 -0.84907,2.03213 -1.96081,5.57458 -2.47053,7.87212 -0.50971,2.29754 -1.6236,7.10235 -2.4753,10.67735 -1.52912,6.41852 -1.76558,7.64054 -2.99913,15.5 -0.3453,2.2 -0.80644,4.675 -1.02476,5.5 -0.21833,0.825 -0.68587,4.63062 -1.039,8.45694 -0.35312,3.82631 -0.8324,7.87631 -1.06506,9 -0.23266,1.12368 -0.895925,6.76806 -1.473916,12.54306 -0.577991,5.775 -1.2262,12.075 -1.440465,14 -0.214265,1.925 -0.65311,7.1 -0.975211,11.5 -0.322101,4.4 -0.777084,10.17905 -1.011074,12.84234 -0.618031,7.03448 -1.366954,19.38649 -2.040719,33.65766 -0.32458,6.875 -0.796186,16.1 -1.048014,20.5 -0.698858,12.21061 -1.122411,22.06087 -1.93496,45 -0.756357,21.35278 -1.487635,27.22768 -2.791506,22.42626 z m 35.922352,-0.1366 c -0.59893,-2.06194 0.13714,-106.99646 0.86132,-122.78966 0.31373,-6.84178 1.27063,-30.62378 2.11242,-52.5 0.55929,-14.53475 1.21625,-25.02458 1.94147,-31 0.26701,-2.2 0.91102,-7.44346 1.43113,-11.65214 0.52012,-4.20867 1.2191,-11.82416 1.5533,-16.923306 0.3342,-5.09915 0.81982,-9.6145 1.07916,-10.03413 0.25934,-0.41962 0.68225,-3.15413 0.93979,-6.07668 0.25754,-2.92256 1.12233,-7.33874 1.92175,-9.81374 l 1.45349,-4.5 -0.46599,8.5 c -0.25629,4.675 -0.66832,10.075 -0.91562,12 -0.24729,1.925 -0.71534,5.75 -1.04009,8.5 -0.32475,2.75 -0.76074,6.124996 -0.96887,7.499996 -0.20813,1.375 -0.63684,7.45 -0.95269,13.5 -0.31585,6.05 -0.77946,12.575 -1.03023,14.5 -0.47009,3.60843 -1.3504,19.71679 -2.04448,37.41073 -0.43431,11.07175 -1.25714,44.33132 -1.98139,80.08927 -1.16244,57.39302 -2.07109,84.42103 -2.86483,85.21478 -0.20051,0.2005 -0.66384,-0.6658 -1.02964,-1.92512 z m -11.665437,0.12701 c -0.0421,-0.77917 -0.27527,-2.31667 -0.5182,-3.41667 -0.65847,-2.98164 -0.61274,-47.99705 0.0732,-72 1.26385,-44.22935 1.43357,-49.26915 1.97007,-58.5 0.30368,-5.225 0.75677,-14.675 1.00687,-21 0.25009,-6.325 0.9009,-16 1.44623,-21.5 0.54533,-5.5 1.231,-13.375 1.5237,-17.5 0.2927,-4.125 1.4773,-12.9 2.632444,-19.5 1.155143,-6.6 2.227513,-12.9 2.383043,-14 0.15553,-1.1 0.55728,-3.125 0.89278,-4.5 0.3355,-1.374996 0.83503,-3.849996 1.11008,-5.499996 0.78709,-4.72183 3.33834,-14.54181 4.65596,-17.92122 0.66022,-1.69333 1.75972,-4.42878 2.44333,-6.07878 0.68362,-1.65 1.52671,-3.85191 1.87354,-4.89313 0.34683,-1.04122 0.86003,-1.6637 1.14044,-1.38328 0.28042,0.28041 -0.23636,2.70732 -1.1484,5.39313 -0.91209,2.6858 -1.79269,5.55828 -1.95693,6.38328 -0.16424,0.825 -0.36748,1.5 -0.45164,1.5 -0.21161,0 -0.66358,1.89829 -2.5,10.5 -0.29356,1.375 -0.73528,3.4 -0.9816,4.5 -2.67006,11.923416 -3.49179,16.330206 -3.96126,21.243476 -0.30252,3.16609 -0.74143,7.10973 -0.97535,8.76366 -1.00667,7.11771 -1.67615,13.50807 -2.199303,20.99286 -0.30754,4.4 -0.68671,9.8 -0.842604,12 -0.15589,2.2 -0.58408,8.95 -0.95153,15 -0.36746,6.05 -0.85361,12.575 -1.08034,14.5 -0.82464,7.00136 -2.054,46.83963 -3.05503,99 -0.60389,31.4668 -1.28382,48.16416 -1.99003,48.87038 -0.25463,0.25462 -0.49739,-0.17455 -0.53947,-0.95371 z m -12.641463,-2.6241 c -1.489907,-3.88264 -0.70347,-65.69172 1.206113,-94.79257 0.18045,-2.75 0.64011,-11.975 1.02147,-20.5 0.38136,-8.525 0.81054,-17.075 0.95374,-19 0.38625,-5.19222 1.51102,-17.86297 2.04169,-23 0.25568,-2.475 0.71083,-7.425 1.01144,-11 0.4751,-5.64995 0.94883,-9.55735 3.0916,-25.5 0.22177,-1.65 0.59185,-4.125 0.82241,-5.5 0.23056,-1.375 0.7149,-4.3 1.07632,-6.5 0.83294,-5.07022 6.24475,-27.026476 7.64092,-30.999996 0.57976,-1.65 1.423694,-3.9 1.875394,-5 0.45171,-1.1 1.080543,-3.20032 1.397403,-4.66738 0.7094,-3.28449 6.75454,-13.78584 7.95145,-13.81291 0.47959,-0.0108 0.13755,0.99279 -0.76009,2.23029 -1.75966,2.42592 -3.59609,6.33793 -4.10753,8.75 -0.17493,0.825 -1.2238,3.975 -2.33081,7 -1.10702,3.025 -2.355753,7.075 -2.774977,9 -0.41921,1.925 -0.89696,3.949996 -1.06167,4.499996 -1.06448,3.55459 -4.36586,19.83538 -4.86529,23.99324 -0.33077,2.75372 -1.00643,6.58176 -1.50146,8.50676 -0.49502,1.925 -1.12865,6.38028 -1.40805,9.90062 -0.27939,3.52034 -0.95124,9.82034 -1.49298,14 -0.54174,4.17966 -1.27613,11.42286 -1.63197,16.096 -0.35583,4.67315 -0.82521,9.39815 -1.04305,10.5 -0.62083,3.1403 -1.28934,16.2253 -1.9671,38.50338 -0.34302,11.275 -0.73262,22.3 -0.86578,24.5 -0.13315,2.2 -0.57318,12.55 -0.97785,23 -0.40466,10.45 -0.93322,19.61691 -1.17458,20.37092 -0.24135,0.75401 -0.44624,10.31651 -0.45531,21.25 -0.009,10.93349 -0.24143,19.87908 -0.51636,19.87908 -0.27494,0 -0.794731,-0.76834 -1.155093,-1.70743 z m 36.45672,1.11283 c -1.63616,-1.63616 -1.02659,-218.69871 0.63721,-226.9054 0.22301,-1.1 0.71264,-8.615296 1.08806,-16.700666 0.37541,-8.08538 1.06091,-15.96038 1.52333,-17.50001 l 0.84075,-2.79932 0.18564,3 c 0.17988,2.90705 0.2071,2.92286 0.87866,0.51008 1.05974,-3.80749 1.83828,-1.35565 2.53704,7.98992 1.59898,21.385536 1.57649,20.946246 3.12155,60.965276 0.3284,8.50591 0.81722,15.82147 1.08627,16.2568 0.26906,0.43534 0.61654,33.30096 0.77218,73.03472 0.2608,66.57845 -0.42059,97.15568 -2.20475,98.93766 -0.38758,0.3871 -0.74866,-32.0108 -0.80241,-71.99532 -0.0878,-65.31425 -0.92555,-124.0777 -1.9631,-137.69914 -1.08528,-14.24822 -1.66207,-24.915666 -1.79334,-33.166846 -0.0802,-5.04176 -0.48333,-9.50427 -0.89583,-9.91667 -0.4125,-0.4124 -0.77438,0.78768 -0.80417,2.66685 -0.0298,1.87917 -0.19945,8.14167 -0.37702,13.91667 -0.17756,5.775 -0.59821,55.049996 -0.93477,109.499996 -0.56535,91.46423 -1.1387,129.33799 -1.97055,130.16985 -0.18159,0.18158 -0.59773,0.0626 -0.92475,-0.26445 z m 33.00328,-15.6554 c 1.33146,-25.03144 0.73256,-84.78098 -1.20532,-120.25 -0.21035,-3.85 -0.67116,-12.41576 -1.02403,-19.03502 -0.35287,-6.61926 -0.80628,-13.36926 -1.00757,-15 -0.20129,-1.63074 -0.64628,-6.56498 -0.98886,-10.96498 -0.34258,-4.4 -1.05943,-11.37088 -1.59299,-15.49085 -0.53357,-4.11997 -1.21185,-10.64497 -1.5073,-14.5 -0.29546,-3.85503 -0.80521,-7.90915 -1.1328,-9.00915 -0.32758,-1.1 -0.70857,-2.99332 -0.84664,-4.20737 -0.8229,-7.23576 -7.29089,-30.018086 -10.27683,-36.198276 -1.1244,-2.32722 -1.81462,-4.82998 -1.53384,-5.56168 0.28078,-0.73171 -0.0466,-1.67471 -0.72761,-2.09557 -0.87139,-0.53855 -1.04307,-0.25693 -0.57962,0.95079 0.39113,1.01928 0.25712,1.46793 -0.33006,1.10503 -0.5437,-0.33603 -0.98855,-1.3944 -0.98855,-2.35194 0,-0.95754 -0.5625,-2.35801 -1.25,-3.11215 -0.6875,-0.75414 0.0404,-0.40027 1.61754,0.78638 1.57714,1.18664 3.26464,1.91211 3.75,1.61214 0.48535,-0.29996 0.88965,0.0437 0.89843,0.76363 0.009,0.71996 1.41178,2.88402 3.11776,4.80902 5.89661,6.65363 10.83634,14.86041 13.74996,22.84391 1.60866,4.40783 2.69785,8.24121 2.42044,8.51863 -0.27742,0.27742 -0.15002,1.077796 0.28312,1.778626 0.43313,0.70082 0.8968,2.19326 1.03037,3.31653 0.13358,1.12326 0.99101,5.1923 1.90542,9.0423 2.09482,8.82005 2.37726,10.19897 2.96993,14.5 0.26527,1.925 0.70101,5.075 0.96833,7 0.26731,1.925 0.74401,6.425 1.05934,10 0.31532,3.575 0.95959,9.2 1.43171,12.5 0.47212,3.3 0.84654,6.675 0.83204,7.5 -0.0145,0.825 0.29409,5.325 0.68576,10 2.96542,35.39549 4.08253,65.99148 3.77896,103.5 -0.13799,17.05 -0.44106,31.9 -0.67349,33 -0.23243,1.1 -0.45703,5.4875 -0.49911,9.75 -0.0421,4.2625 -0.44029,7.75 -0.8849,7.75 -0.44462,0 -0.82393,-16.7625 -0.84293,-37.25 -0.019,-20.4875 -0.59761,-50.525 -1.28581,-66.75 -1.36185,-32.10684 -1.33968,-31.70515 -2.59349,-47 -0.4734,-5.775 -0.77588,-10.82791 -0.67216,-11.2287 0.10372,-0.40078 -0.22996,-4.00078 -0.74151,-8 -0.51154,-3.99921 -1.17805,-9.7463 -1.48113,-12.7713 -0.30308,-3.025 -0.74928,-6.625 -0.99156,-8 -0.24228,-1.375 -0.70092,-4.525 -1.0192,-7 -0.31828,-2.475 -0.83045,-5.85 -1.13815,-7.5 -0.30769,-1.65 -0.71435,-4.8 -0.90367,-7 -0.37712,-4.38228 -1.26653,-9.16139 -2.14019,-11.5 -0.30821,-0.825 -0.77366,-2.625 -1.03433,-4 -1.49441,-7.882746 -6.80612,-19.709766 -11.98391,-26.683276 -1.29997,-1.75081 -2.36357,-3.55506 -2.36357,-4.00945 0,-0.4544 -0.9,-1.38824 -2,-2.0752 -2.52441,-1.57652 -2.52441,-0.45934 0,2.76793 1.07554,1.375 1.96553,2.8082 1.97776,3.1849 0.0122,0.37669 0.50387,1.95169 1.09254,3.5 0.58866,1.5483 1.02955,2.93232 0.97974,3.07558 -0.0498,0.14326 0.62922,1.65239 1.50897,3.35363 0.87974,1.70123 1.75785,4.28401 1.95136,5.73952 0.19351,1.4555 0.41727,2.64637 0.49724,2.64637 0.08,0 0.29314,0.675 0.4737,1.5 1.08585,4.96138 1.65315,7.733436 1.94418,9.499996 0.18123,1.1 1.05235,5.825 1.93583,10.5 0.88348,4.675 2.06388,14.35 2.62311,21.5 1.80501,23.0777 1.93534,24.85228 2.56983,34.99071 0.34388,5.49489 0.79028,10.25776 0.99201,10.58415 0.20172,0.3264 0.66398,7.08058 1.02723,15.0093 0.36326,7.92871 0.79499,15.54084 0.9594,16.91584 0.49528,4.14201 1.81552,46.74298 1.79747,58 -0.0224,13.96118 -1.21148,36.47654 -2.4822,47 -0.56451,4.675 -1.01425,9.2875 -0.99942,10.25 0.0148,0.9625 -0.39867,1.75 -0.91888,1.75 -0.58565,0 -0.65718,-5.4265 -0.18785,-14.25 z m 23.34642,14.25 c -0.0618,-0.275 -0.30963,-19.4 -0.55061,-42.5 -0.24098,-23.1 -0.69711,-46.275 -1.01362,-51.5 -0.31651,-5.225 -0.81786,-16.25 -1.11411,-24.5 -0.29625,-8.25 -0.70286,-16.575 -0.90358,-18.5 -0.20072,-1.925 -0.62939,-7.1 -0.95262,-11.5 -1.22794,-16.71601 -1.5933,-20.07924 -3.14094,-28.91368 -0.87547,-4.99748 -1.7451,-10.21132 -1.9325,-11.58632 -0.18741,-1.375 -0.82607,-4.64636 -1.41925,-7.26969 -0.59318,-2.62333 -1.27148,-6.22333 -1.50733,-8 -0.23585,-1.77667 -1.1492,-6.15531 -2.02965,-9.73031 -0.88045,-3.575 -1.77504,-7.64133 -1.98797,-9.03629 -0.42255,-2.76821 -5.58446,-16.381716 -8.32235,-21.948526 -2.13954,-4.35022 -8.16037,-13.26755 -9.62129,-14.24987 -0.67333,-0.45275 -0.43285,-0.74056 0.62665,-0.75 1.01064,-0.009 3.22932,2.35467 5.38292,5.73469 2.01501,3.1625 3.94134,5.975 4.28073,6.25 0.3394,0.275 0.7441,1.26485 0.89936,2.19966 0.15525,0.93481 1.48707,4.30981 2.9596,7.5 1.47253,3.19019 2.77574,6.25034 2.89602,6.80034 0.12028,0.55 1.39207,4.824996 2.8262,9.499996 1.43413,4.675 2.83406,9.625 3.11097,11 0.2769,1.375 0.7958,3.4 1.15311,4.5 1.07958,3.32361 1.12321,3.55438 3.21395,17 1.11179,7.15 2.25227,14.125 2.53439,15.5 0.28213,1.375 0.73973,4.975 1.01689,8 0.27717,3.025 0.72195,7.525 0.9884,10 0.26645,2.475 0.73312,7.65 1.03704,11.5 0.30392,3.85 0.74913,8.8 0.98935,11 0.24022,2.2 0.67919,7.375 0.97549,11.5 0.2963,4.125 0.87118,12 1.27752,17.5 1.10206,14.91709 0.6682,96.27534 -0.5386,101 -0.56194,2.2 -1.07232,3.775 -1.13417,3.5 z M 45.223109,319.33945 c -1.146736,-28.7094 -0.407122,-80.20407 1.375238,-95.74929 1.131533,-9.86889 1.54532,-13.52383 2.037837,-18 0.302585,-2.75 0.956882,-7.025 1.453994,-9.5 1.067747,-5.31606 3.057583,-18.64057 3.731904,-24.98989 0.262264,-2.46944 0.884903,-5.25236 1.383642,-6.18426 0.49874,-0.9319 0.906799,-2.87853 0.906799,-4.32585 0,-1.44732 0.430646,-3.43615 0.956991,-4.41964 0.526345,-0.98348 1.14118,-3.3164 1.3663,-5.18426 0.225119,-1.86785 0.656888,-4.0711 0.959486,-4.8961 0.726038,-1.97947 2.03169,-7.11357 2.288784,-9 0.112436,-0.825 0.693694,-2.7375 1.291683,-4.25 0.59799,-1.5125 0.818292,-2.75 0.48956,-2.75 -0.328731,0 -0.150134,-0.5625 0.396882,-1.25 0.547017,-0.6875 2.174633,-4.93427 3.616926,-9.43726 6.08196,-18.98853 18.069388,-40.682906 27.472638,-49.718906 l 4.064937,-3.90616 -0.20721,2.6958 c -0.11396,1.48269 -0.6549,3.01546 -1.202093,3.40616 -0.54718,0.3907 -1.860994,2.28537 -2.919574,4.21037 -1.05858,1.925 -2.19048,3.725 -2.51533,4 -0.32485,0.275 -2.22692,3.89793 -4.2268,8.05095 -6.08914,12.644856 -12.653333,32.617936 -14.279621,43.449046 -0.330329,2.2 -0.788791,4.675 -1.018804,5.5 -0.230013,0.825 -0.677552,3.25402 -0.99453,5.39782 -0.316978,2.14381 -0.780059,4.84381 -1.02907,6 -0.461249,2.14167 -0.848447,4.70378 -2.584555,17.10218 -0.539103,3.85 -1.126671,7.9 -1.305707,9 -0.179036,1.1 -0.637843,4.025 -1.019572,6.5 -0.381728,2.475 -1.100938,6.525 -1.598244,9 -0.953848,4.74712 -1.394011,8.31324 -3.024021,24.5 -1.625554,16.1425 -1.846639,19.22729 -2.508435,35 -0.5617,13.38713 -0.853905,17.77777 -1.846811,27.75 -0.150596,1.5125 -0.409622,13.6625 -0.575615,27 -0.228296,18.34356 -0.503049,22.69735 -1.12805,17.87528 -0.895566,-6.90954 -0.525476,-64.08924 0.457115,-70.62528 0.330735,-2.2 0.834507,-9.175 1.119492,-15.5 0.284986,-6.325 0.701301,-13.075 0.925145,-15 0.223844,-1.925 0.691551,-6.65 1.039348,-10.5 0.659432,-7.29969 0.97932,-9.98616 1.934625,-16.24732 0.314913,-2.06398 0.83306,-6.67768 1.151438,-10.25268 0.318377,-3.575 1.186784,-9.2 1.929792,-12.5 0.743008,-3.3 1.651948,-8.475 2.019866,-11.5 0.367919,-3.025 1.332968,-8.65 2.144555,-12.5 0.811587,-3.85 1.664445,-8.4074 1.895241,-10.12755 0.230796,-1.72015 0.908097,-4.41232 1.505113,-5.98259 0.597017,-1.57027 2.195487,-7.13788 3.552157,-12.37245 2.779498,-10.72443 7.328778,-23.055256 11.255948,-30.509246 3.501,-6.64513 3.45044,-6.50816 2.40233,-6.50816 -0.50289,0 -1.55217,1.2375 -2.33174,2.75 -0.77956,1.5125 -1.68228,2.975 -2.00604,3.25 -0.88507,0.75177 -10.91453,21.593776 -10.91453,22.681256 0,0.51869 -0.9,2.80587 -2,5.0826 -1.1,2.27674 -2,4.69182 -2,5.36684 0,0.67502 -0.429828,2.60925 -0.955173,4.2983 -2.329747,7.49042 -4.279212,14.20856 -4.592013,15.82476 -0.186685,0.96457 -0.566456,2.1211 -0.843936,2.57007 -0.486449,0.78709 -0.838058,2.23239 -2.110717,8.67617 -0.325878,1.65 -1.001554,4.575 -1.501502,6.5 -1.181814,4.55045 -2.031733,9.56718 -4.404846,26 -0.833986,5.775 -1.733257,12.75 -1.998382,15.5 -0.878619,9.11346 -1.875669,19.9578 -2.114665,23 -1.067786,13.59195 -1.69255,23.27373 -1.968161,30.5 -0.178305,4.675 -0.668335,14.35 -1.088957,21.5 -0.420621,7.15 -0.68671,22.1125 -0.591307,33.25 0.177547,20.72724 -1.019352,28.03444 -1.719755,10.49929 z M 93.871083,75.090164 c 2.27719,-3.3 3.713094,-6 3.190894,-6 -0.522204,0 -0.949454,0.36514 -0.949454,0.81143 0,0.4463 -0.7875,1.70074 -1.75,2.78765 -3.21,3.62491 -6.32021,8.40092 -5.47082,8.40092 0.46147,0 2.7022,-2.7 4.97938,-6 z M 135.11575,328.50683 c 0.0369,-10.48643 -1.28285,-144.10131 -1.47579,-149.41667 -0.37733,-10.39561 -1.56708,-31.67814 -2.04044,-36.5 -0.21598,-2.2 -0.62212,-6.025 -0.90253,-8.5 -0.28042,-2.475 -0.77692,-8.325 -1.10334,-13 -0.50095,-7.17482 -1.7456,-16.47301 -4.11258,-30.723296 -0.25367,-1.52719 -0.63854,-4.13983 -0.85528,-5.80588 -0.21673,-1.66605 -0.66748,-4.36605 -1.00166,-6 -0.33418,-1.63396 -0.75502,-3.87082 -0.9352,-4.97082 -0.18018,-1.1 -0.67189,-3.35 -1.09268,-5 -0.42079,-1.65 -0.41061,-2.67135 0.0226,-2.26966 1.25232,1.16115 4.42514,11.01385 4.46101,13.85299 0.018,1.42084 0.37015,2.92084 0.78265,3.33334 0.4125,0.4125 0.77541,1.05 0.80646,1.41666 0.0311,0.36667 0.3608,2.01667 0.73277,3.66667 0.72871,3.23237 1.2925,6.69055 2.11939,12.999996 0.28832,2.2 1.19828,8.725 2.02212,14.5 0.82384,5.775 1.75796,16.575 2.07581,24 0.31785,7.425 0.86455,14.85 1.21488,16.5 0.66996,3.15543 0.69827,3.78921 1.76431,39.5 0.9459,31.68632 1.00665,91.33203 0.10694,105 -0.41635,6.325 -0.83498,14.95245 -0.93028,19.17211 -0.0953,4.21966 -0.50834,8.00716 -0.91784,8.41667 -0.40951,0.4095 -0.74311,0.33205 -0.74134,-0.17211 z m 43.23335,-31.55536 c 0.17134,-44.05856 -1.27753,-87.1526 -3.84495,-114.36131 -0.25949,-2.75 -0.68062,-7.25 -0.93584,-10 -0.25522,-2.75 -0.64103,-5.9 -0.85737,-7 -0.64477,-3.2785 -2.45801,-13.57954 -3.52048,-20 -0.54609,-3.3 -1.25144,-7.125 -1.56745,-8.5 -0.316,-1.375 -1.01572,-4.75 -1.55494,-7.5 -0.53921,-2.75 -1.63409,-7.025 -2.43306,-9.5 -0.79897,-2.475 -1.65642,-5.69803 -1.90545,-7.16229 -0.24903,-1.46426 -0.97669,-3.64123 -1.61703,-4.83771 -0.64034,-1.19648 -1.37626,-3.3446 -1.63539,-4.77359 -0.25912,-1.42899 -1.07252,-3.752016 -1.80755,-5.162276 -0.73503,-1.41027 -2.84659,-5.71413 -4.69236,-9.56413 -1.84576,-3.85 -3.69541,-7.15 -4.11032,-7.33333 -0.41491,-0.18334 -0.75438,-0.93334 -0.75438,-1.66667 0,-0.73334 -0.5625,-1.56031 -1.25,-1.83772 -0.74674,-0.30132 -0.54544,-0.53617 0.5,-0.58334 0.9625,-0.0434 1.75,0.39267 1.75,0.96909 0,0.57642 1.67765,3.61393 3.72812,6.75001 2.05046,3.13608 4.27399,6.92817 4.94117,8.42687 4.96357,11.149716 6.48928,15.021206 6.99272,17.744026 0.25108,1.35792 0.93494,3.04542 1.51969,3.75 0.58476,0.70458 0.8145,1.28106 0.51055,1.28106 -0.30395,0 -0.10938,1.4625 0.43239,3.25 1.85308,6.11405 2.11762,7.25488 2.60867,11.25 0.27041,2.2 0.86998,4.47074 1.33238,5.04609 0.4624,0.57534 0.84269,1.92534 0.84509,3 0.004,1.94588 0.45879,4.69849 1.56082,9.45391 0.31865,1.375 0.77129,4.075 1.00587,6 0.8267,6.78415 2.58,20.54136 3.05869,24 1.38151,9.98162 2.99982,31.17437 4.04717,53 0.5766,12.01584 0.60032,66.69558 0.031,71.5 -0.26069,2.2 -0.77349,8.95 -1.13955,15 -0.36607,6.05 -0.82274,11.16259 -1.01482,11.36131 -0.19209,0.19871 -0.29262,-14.20129 -0.2234,-32 z m 10.45018,22.33929 c 0.81149,-29.11663 0.11843,-74.5435 -1.24237,-81.43032 -0.42102,-2.13074 -0.6439,-4.62153 -1.99277,-22.27028 -0.29425,-3.85 -0.7347,-8.35 -0.97879,-10 -0.24409,-1.65 -0.66648,-5.7 -0.93865,-9 -0.95855,-11.62204 -3.08578,-29.54609 -4.02301,-33.89782 -0.24901,-1.1562 -0.68336,-3.67718 -0.96522,-5.60218 -0.28186,-1.925 -1.00367,-6.2 -1.60402,-9.5 -0.60036,-3.3 -1.27888,-7.35 -1.50783,-9 -0.68667,-4.94858 -3.19261,-16.05389 -5.86697,-26 -1.79595,-6.67926 -13.24827,-30.499996 -14.66351,-30.499996 -0.49699,0 -0.90361,-0.60062 -0.90361,-1.3347 0,-0.73409 -1.2375,-2.50081 -2.75,-3.92605 -1.5125,-1.42524 -4.0625,-3.97462 -5.66667,-5.6653 -1.60416,-1.69067 -3.29166,-3.07395 -3.75,-3.07395 -0.45833,0 -0.83333,-0.631 -0.83333,-1.40223 0,-0.77122 2.3625,0.7959 5.25,3.48249 2.8875,2.6866 5.5875,4.89259 6,4.90223 0.4125,0.01 0.75,0.66699 0.75,1.4608 0,0.79381 0.7875,2.03131 1.75,2.75 0.9625,0.71869 2.38854,2.54421 3.16898,4.05671 0.78044,1.5125 1.79294,2.75 2.25,2.75 0.45706,0 0.83102,0.675 0.83102,1.5 0,0.825 0.35134,1.5 0.78076,1.5 0.42942,0 1.31117,1.2375 1.95943,2.75 6.34671,14.807776 8.75599,22.745906 12.67138,41.749996 1.47311,7.15 3.09175,14.575 3.59698,16.5 0.50523,1.925 1.15288,5.75 1.43921,8.5 0.28633,2.75 0.76647,6.125 1.06697,7.5 0.30051,1.375 0.78528,5.2 1.07728,8.5 0.292,3.3 0.75074,6.6579 1.01942,7.462 0.26868,0.8041 0.71726,3.9541 0.99686,7 0.27959,3.0459 0.90763,8.013 1.39563,11.038 0.48801,3.025 1.17389,8.65 1.52418,12.5 0.35029,3.85 0.8178,8.575 1.0389,10.5 0.2211,1.925 0.64438,6.65 0.94062,10.5 0.29624,3.85 0.75833,8.125 1.02687,9.5 1.29146,6.61272 0.556,59.84937 -1.04304,75.5 -0.85235,8.34249 -2.03043,8.79982 -1.8047,0.7006 z m -153.900598,-3.2006 c -0.748412,-6.68032 -0.294922,-82.88858 0.505807,-85 0.312871,-0.825 0.830205,-4.875 1.149632,-9 0.627857,-8.108 1.285531,-13.7724 2.147973,-18.5 0.301004,-1.65 0.741634,-4.125 0.979177,-5.5 0.494704,-2.86355 1.605376,-8.78799 2.062205,-11 0.17038,-0.825 0.512897,-3.075 0.761148,-5 0.248251,-1.925 1.826422,-9.125 3.507047,-16 1.680626,-6.875 3.216387,-13.4 3.412803,-14.5 0.196416,-1.1 1.154438,-4.64229 2.128938,-7.87176 0.9745,-3.22946 1.914529,-6.60446 2.088953,-7.5 0.174425,-0.89553 0.385996,-1.62824 0.470158,-1.62824 0.08416,0 0.28954,-0.675 0.456394,-1.5 0.166855,-0.825 2.010453,-6.45 4.096886,-12.5 3.694013,-10.71148 6.148185,-16.12424 9.861559,-21.749996 0.998349,-1.5125 1.425926,-2.75689 0.950171,-2.76531 -0.475756,-0.008 -0.3763,-0.34592 0.221013,-0.75 0.597313,-0.40408 2.659241,-3.20969 4.582064,-6.23469 1.922822,-3.025 6.030683,-8.40343 9.128583,-11.95206 3.0979,-3.54863 5.41521,-6.6694 5.14958,-6.93503 -0.81552,-0.81551 -8.27289,6.98542 -14.261172,14.9182 -5.796916,7.67927 -19.279248,33.391566 -19.384763,36.968886 -0.0081,0.275 -0.866501,2.16957 -1.907532,4.21016 -1.04103,2.04059 -1.892783,4.1488 -1.892783,4.6849 0,0.53611 -0.519145,2.24154 -1.153656,3.78984 -0.634512,1.54831 -1.27188,3.2651 -1.416375,3.8151 -0.144495,0.55 -1.683303,5.5 -3.419573,11 -3.767853,11.93547 -3.523888,11.00356 -5.497579,21 -0.868733,4.4 -2.017979,9.6388 -2.553881,11.64177 -0.535901,2.00297 -1.21415,5.82797 -1.50722,8.5 -0.293069,2.67203 -0.931728,7.33323 -1.419241,10.35823 -1.432638,8.88945 -2.357519,18.60059 -3.428614,36 -0.355504,5.775 -0.856098,12.075 -1.112431,14 -0.256332,1.925 -0.727536,7.64376 -1.047119,12.70836 -0.319583,5.0646 -0.731418,11.5896 -0.915188,14.5 -0.18377,2.9104 -0.40402,12.95718 -0.489446,22.32618 -0.08543,9.369 -0.512058,17.61175 -0.948074,18.31724 -1.127694,1.82465 -1.975606,-11.42514 -1.528352,-23.88261 0.206728,-5.75804 0.608494,-16.99417 0.892813,-24.96917 0.644342,-18.07343 1.541984,-34.71594 2.049594,-38 0.212531,-1.375 0.881496,-7.225 1.486588,-13 0.605092,-5.775 1.287941,-11.175 1.517443,-12 0.229502,-0.825 0.682114,-4.2 1.005805,-7.5 0.323691,-3.3 0.764347,-6.675 0.979236,-7.5 0.214889,-0.825 0.685396,-3.975 1.045571,-7 0.360175,-3.025 0.855997,-5.82696 1.101826,-6.22658 0.245829,-0.39962 0.654309,-1.97462 0.907732,-3.5 0.253423,-1.52538 1.129671,-5.69842 1.947218,-9.27342 0.817548,-3.575 1.679561,-7.4 1.915586,-8.5 0.236025,-1.1 1.403415,-5.1042 2.594201,-8.89823 1.190786,-3.79403 2.318408,-7.69448 2.505827,-8.66767 0.744727,-3.86705 10.658889,-27.49827 15.704981,-37.4341 4.579854,-9.017796 12.026758,-19.159096 20.046508,-27.299606 4.55067,-4.61919 6.74955,-6.12529 9.80072,-6.71289 2.78149,-0.53567 2.39556,0.85801 -1.3149,4.74839 -4.6423,4.86741 -9.75,11.47972 -9.75,12.62214 0,0.53642 -0.34563,1.1253 -0.76807,1.30864 -2.393655,1.03881 -12.631368,21.206906 -17.174445,33.833326 -0.692629,1.925 -1.64838,4.4 -2.12389,5.5 -1.200701,2.77759 -4.868501,14.07381 -5.268587,16.22638 -0.181309,0.97549 -0.904977,3.79862 -1.608151,6.27362 -0.703174,2.475 -1.420787,5.4 -1.594696,6.5 -0.473311,2.99376 -1.481107,7.80099 -1.995736,9.51975 -0.250273,0.83586 -1.562591,7.58586 -2.916262,15 -1.353672,7.41414 -2.727541,14.60525 -3.053043,15.98025 -0.325502,1.375 -0.829548,4.75 -1.120103,7.5 -0.290554,2.75 -0.903752,6.35 -1.362661,8 -0.45891,1.65 -0.824433,3.675 -0.812272,4.5 0.01216,0.825 -0.262503,6 -0.610362,11.5 -1.404133,22.2007 -1.678357,31.13585 -1.74129,56.73702 -0.03615,14.70537 -0.376758,29.10537 -0.75691,32 l -0.691186,5.26298 z m -22.025948,-2.15305 c -0.513491,-6.15756 -0.06641,-35.46782 0.676447,-44.34695 0.998784,-11.93819 1.570042,-20.18712 2.081196,-30.05234 0.286467,-5.52879 0.743773,-11.15379 1.016235,-12.5 0.272462,-1.34621 0.714514,-4.24766 0.982338,-6.44766 0.267824,-2.2 0.671417,-5.125 0.896873,-6.5 0.225456,-1.375 1.143795,-7.225 2.040753,-13 0.896959,-5.775 1.83841,-11.625 2.092114,-13 0.253703,-1.375 0.724901,-4.3 1.047105,-6.5 0.322205,-2.2 0.979335,-5.35 1.46029,-7 0.480955,-1.65 1.072432,-4.125 1.314394,-5.5 0.73999,-4.20516 4.788959,-18.20196 6.839475,-23.64325 1.066011,-2.82879 2.050872,-5.75379 2.18858,-6.5 0.137709,-0.74621 0.914817,-2.93175 1.726907,-4.85675 0.81209,-1.925 2.078847,-5.525 2.815014,-8 0.736168,-2.475 3.076293,-7.94371 5.200278,-12.1527 2.123984,-4.20898 3.86179,-8.16529 3.86179,-8.79181 0,-0.62651 0.830518,-2.03057 1.845596,-3.12013 1.015078,-1.08956 3.152578,-4.516166 4.75,-7.614676 4.834212,-9.37692 21.319051,-24.8528 33.307274,-31.2687 4.25912,-2.27941 1.17417,0.79035 -4.69692,4.6738 -8.374629,5.53942 -20.068341,17.76184 -25.164535,26.3023 -9.182242,15.388056 -16.982633,32.047626 -21.933714,46.844606 -2.809236,8.39578 -5.107701,16.3325 -5.107701,17.63717 0,1.30466 -0.45,2.65022 -1,2.99014 -0.55,0.33992 -1,1.68095 -1,2.98006 0,1.29911 -0.946933,6.33506 -2.104296,11.19098 -1.157363,4.85593 -2.282508,9.95396 -2.500323,11.32896 -0.217814,1.375 -0.692814,4.075 -1.055556,6 -0.362742,1.925 -0.769634,4.4 -0.904205,5.5 -0.542888,4.43764 -1.464181,11.19667 -1.976429,14.5 -0.298511,1.925 -0.734739,5.975 -0.969397,9 -0.234657,3.025 -0.650715,7.075 -0.924573,9 -0.273857,1.925 -0.747667,6.875 -1.05291,11 -0.602151,8.13737 -1.49682,17.73848 -2.096636,22.5 -0.207853,1.65 -0.635266,14.25 -0.949806,28 -0.542369,23.70942 -1.728344,33.06646 -2.705658,21.34695 z m -9.5415963,2.40305 c -1.551225,-3.7776 -0.492646,-67.0382 1.27542,-76.21903 0.197708,-1.02661 0.639673,-5.16606 0.982144,-9.19877 1.302526,-15.33769 3.6638923,-31.69646 5.9662503,-41.3322 1.314165,-5.5 3.135794,-13.15 4.048063,-17 2.96543,-12.51485 3.960471,-15.9428 9.143607,-31.5 4.767936,-14.31098 15.991962,-38.28565 20.330159,-43.425486 1.427241,-1.69098 4.494011,-5.59089 6.815044,-8.66647 9.359431,-12.40209 29.135888,-27.31605 40.220698,-30.33151 2.40173,-0.65336 2.4237,-0.61909 0.55887,0.87169 -1.06762,0.85348 -2.75512,1.55178 -3.75,1.55178 -0.99488,0 -1.80887,0.45 -1.80887,1 0,0.55 -0.41775,1 -0.92833,1 -4.13594,0 -20.954389,13.8288 -28.57167,23.49279 -1.65,2.09334 -3.719602,4.52633 -4.599117,5.40664 -4.340347,4.34429 -18.205596,27.439146 -21.973544,36.600566 -1.141047,2.77435 -5.499213,16.77188 -7.472462,24 -0.900887,3.3 -2.319921,8.25 -3.15341,11 -0.833488,2.75 -1.708485,6.125 -1.944437,7.5 -0.235952,1.375 -0.848139,3.85 -1.360415,5.5 -0.512277,1.65 -1.184512,4.575 -1.493857,6.5 -0.309345,1.925 -0.976925,5.975 -1.483511,9 -0.506586,3.025 -1.169309,7.75 -1.472717,10.5 -0.997793,9.04369 -1.535434,12.966 -2.122076,15.4814 -0.318292,1.36477 -0.775865,4.92764 -1.01683,7.9175 -0.240964,2.98985 -0.636198,6.59822 -0.878296,8.0186 -0.242099,1.42037 -0.7067123,5.0575 -1.0324733,8.0825 -0.325761,3.025 -0.773171,6.85 -0.994245,8.5 -1.618313,12.07842 -1.949995,20.04257 -1.75958,42.25 0.119077,13.8875 -0.01352,25.25 -0.294648,25.25 -0.281133,0 -0.834528,-0.7875 -1.229767,-1.75 z m -10.465329,-7.45364 c -0.268027,-1.813 -0.306319,-11.39636 -0.085093,-21.29636 0.221225,-9.9 0.433406,-19.8 0.471513,-22 0.06051,-3.49337 3.161119,-35.78443 4.3689419,-45.5 0.2393121,-1.925 0.6915031,-5.975 1.0048681,-9 0.313364,-3.025 0.846389,-6.625 1.1845,-8 1.135941,-4.61956 1.347688,-5.69768 3.194408,-16.26448 0.55409,-3.17046 1.210467,-6.09546 1.458615,-6.5 0.248148,-0.40453 0.723882,-2.45859 1.057188,-4.56456 0.333305,-2.10597 0.993575,-4.58097 1.467266,-5.5 0.473691,-0.91903 1.1749203,-3.47096 1.5582863,-5.67096 1.092465,-6.26926 7.961807,-27.40498 11.050373,-34 0.772725,-1.65 3.687567,-7.91138 6.477427,-13.91417 9.851946,-21.197906 23.16316,-37.587826 39.394014,-48.505316 7.540863,-5.07227 17.414207,-10.08051 19.872917,-10.08051 1.95362,0 -0.28627,1.54376 -7.87284,5.42609 -3.929377,2.01081 -8.059275,4.42504 -9.177547,5.36496 -1.118272,0.93992 -3.72961,3.05895 -5.802972,4.70895 -10.669419,8.49082 -23.219465,23.10795 -27.045415,31.499996 -0.376119,0.825 -0.941677,1.725 -1.256794,2 -1.041959,0.90931 -11.462847,23.26984 -12.583063,27 -0.412931,1.375 -1.543391,4.3 -2.512133,6.5 -0.968743,2.2 -2.070706,4.9 -2.448807,6 -1.271688,3.69969 -6.799698,24.96137 -7.539964,29 -0.403252,2.2 -1.8999463,9.25046 -3.3259873,15.66769 -3.269458,14.71266 -4.647751,22.77452 -5.153907,30.14605 -0.361332,5.26233 -0.630703,8.08886 -2.019069,21.18626 -0.233207,2.2 -0.686775,7.15 -1.0079281,11 -0.321154,3.85 -0.7626999,8.35 -0.9812129,10 -0.600916,4.53754 -1.399298,17.35604 -2.086498,33.5 -0.339472,7.975 -0.742444,14.63336 -0.895493,14.79636 -0.15305,0.163 -0.497567,-1.187 -0.765594,-3 z M 245.28244,290.0383 c 0.2351,-22.66324 -0.98877,-56.14153 -2.64849,-72.44814 -0.2799,-2.75 -0.7612,-7.7 -1.06955,-11 -1.26981,-13.58971 -2.12737,-19.7187 -3.84773,-27.5 -0.79039,-3.575 -2.63409,-12.125 -4.0971,-19 -3.40449,-15.99835 -8.47688,-32.14834 -13.14626,-41.85638 -2.02204,-4.20399 -3.65487,-7.86862 -3.62853,-8.14362 0.0264,-0.275 -0.80263,-1.69447 -1.84217,-3.15437 -1.03954,-1.4599 -1.89008,-3.1474 -1.89008,-3.75 0,-0.6026 -0.45,-1.09563 -1,-1.09563 -0.55,0 -1,-0.61431 -1,-1.36514 0,-0.750826 -0.93266,-2.550826 -2.07258,-3.999996 -1.13992,-1.44917 -1.68038,-2.63486 -1.20103,-2.63486 0.47935,0 1.97452,1.7879 3.32258,3.9731 1.34807,2.185206 2.73954,3.985206 3.09215,3.999996 0.35262,0.0148 2.5505,4.4144 4.88418,9.7769 2.33368,5.3625 4.72353,10.65 5.31078,11.75 0.58726,1.1 1.17716,2.45 1.3109,3 0.13374,0.55 1.13395,3.475 2.22269,6.5 2.70575,7.51779 4.90999,14.91124 5.58091,18.71948 0.30791,1.74774 0.97891,4.27998 1.49113,5.6272 0.51221,1.34722 1.21588,4.40785 1.56371,6.80141 0.34783,2.39355 1.09018,6.37691 1.64967,8.85191 1.42438,6.30094 3.80084,21.10035 4.81734,30 0.47116,4.125 1.14658,9.975 1.50095,13 0.35437,3.025 0.82085,7.975 1.03661,11 0.21576,3.025 0.74174,10.45 1.16885,16.5 0.88055,12.47301 0.91649,60.52084 0.0485,64.8383 -1.40029,6.96519 -1.7746,2.54529 -1.55743,-18.39016 z m -9.66991,18.05186 c 0.33992,-0.55 0.81648,-1 1.05902,-1 0.24254,0 0.44098,0.45 0.44098,1 0,0.55 -0.47656,1 -1.05902,1 -0.58246,0 -0.7809,-0.45 -0.44098,-1 z m -26.52476,-19 c -0.14776,-8.525 -0.35528,-19.55 -0.46116,-24.5 -0.2048,-9.57411 -1.43163,-31.0026 -2.06108,-36 -0.20783,-1.65 -0.61273,-6.375 -0.89978,-10.5 -0.5299,-7.61478 -0.99113,-11.91327 -2.146,-20 -0.35346,-2.475 -0.79906,-6.525 -0.99022,-9 -0.19116,-2.475 -0.61069,-6.3 -0.93228,-8.5 -0.32159,-2.2 -0.73636,-5.125 -0.9217,-6.5 -1.21196,-8.99102 -4.21247,-23.20786 -7.0703,-33.5 -2.68952,-9.686 -3.5247,-12.84994 -4.0854,-15.47672 -0.29076,-1.3622 -1.22224,-4.0622 -2.06995,-6 -0.84771,-1.93781 -1.89154,-4.42328 -2.31962,-5.52328 -2.95638,-7.59678 -4.80283,-11.58075 -7.23504,-15.610596 -1.53049,-2.53583 -2.78271,-5.06823 -2.78271,-5.62755 0,-0.55933 -0.70467,-1.60179 -1.56594,-2.31657 -0.86126,-0.71479 -2.23124,-2.58618 -3.0444,-4.15865 -1.42384,-2.7534 -1.40556,-2.81351 0.49477,-1.62673 1.08529,0.67777 2.44562,2.26906 3.02297,3.5362 0.57735,1.26715 1.45337,2.3039 1.94671,2.3039 1.03099,0 9.40606,16.503676 9.88475,19.478606 0.1751,1.08824 0.75549,2.41574 1.28975,2.95 0.53427,0.53427 0.97139,1.50143 0.97139,2.14927 0,0.64783 0.76016,2.92033 1.68924,5.05 0.92908,2.12966 1.77283,4.20962 1.875,4.62212 0.10217,0.4125 0.29826,0.975 0.43576,1.25 0.1375,0.275 0.3625,0.95 0.5,1.5 0.1375,0.55 0.3625,1.225 0.5,1.5 0.1375,0.275 0.33529,0.8375 0.43952,1.25 0.10424,0.4125 0.73857,2.55 1.40963,4.75 1.46399,4.79959 7.7887,36.14401 8.57569,42.5 0.30646,2.475 0.80767,5.625 1.11381,7 0.30614,1.375 0.72717,3.85 0.93564,5.5 0.53128,4.20511 1.61864,13.42834 2.00419,17 0.17811,1.65 0.59641,5.475 0.92955,8.5 1.38837,12.6066 1.58641,16.88579 2.15195,46.5 0.34422,18.02501 0.19269,33.51129 -0.36205,37 -0.8562,5.38465 -0.9816,4.41035 -1.22269,-9.5 z m 26.59897,13.33278 c -0.35188,-0.91697 -0.17502,-2.13197 0.39301,-2.7 0.71037,-0.71037 1.03278,-0.18992 1.03278,1.66722 0,3.08485 -0.4995,3.44667 -1.42579,1.03278 z m -9.57421,-0.3918 c 0,-0.58246 0.45,-0.7809 1,-0.44098 0.55,0.33992 1,0.81648 1,1.05902 0,0.24254 -0.45,0.44098 -1,0.44098 -0.55,0 -1,-0.47656 -1,-1.05902 z m -240.981511,-4.44098 c -0.376057,-4.14137 -0.05536,-27.48985 0.494477,-36 1.295466,-20.05088 1.775016,-24.97189 3.50818,-36 1.0372477,-6.6 2.1728197,-14.925 2.5234947,-18.5 0.350674,-3.575 1.255892,-9.65 2.011596,-13.5 0.755703,-3.85 1.634266,-8.53713 1.952361,-10.41584 0.318095,-1.87872 0.760306,-3.71025 0.982691,-4.07008 0.222384,-0.35982 0.636843,-1.74769 0.921018,-3.08415 0.600107,-2.82227 2.593575,-10.85076 3.151022,-12.69043 0.210073,-0.69327 0.438637,-1.59327 0.50792,-2 0.06928,-0.40672 0.510168,-1.45738 0.979746,-2.3348 0.469578,-0.87741 1.123849,-2.90241 1.453936,-4.5 0.984776,-4.76622 2.143176,-8.7586 3.454177,-11.9047 0.458378,-1.1 2.2706343,-6.05 4.0272363,-11 1.756601,-4.95 3.796431,-10.35089 4.532954,-12.00197 0.736523,-1.65108 2.298295,-5.2396 3.470605,-7.97449 4.82081,-11.2465 19.428934,-30.212556 30.091454,-39.068436 4.87986,-4.05302 12.108618,-8.65735 18.700487,-11.9112 7.183333,-3.5458 19.102609,-7.5439 22.490149,-7.5439 2.52249,0 1.79671,0.90902 -1.18412,1.48307 -7.21406,1.3893 -28.08788,10.76321 -28.08788,12.61356 0,0.49685 -0.5625,0.9094 -1.25,0.91678 -0.6875,0.007 -2.536652,1.01988 -4.109226,2.25 -4.719965,3.69212 -17.708191,16.98792 -20.256896,20.73659 -1.308797,1.925 -3.590274,5.3 -5.069947,7.5 C 22.46407,110.42875 9.782107,139.0137 7.5780327,150.09016 c -0.38305,1.925 -1.015705,3.95 -1.4059,4.5 -0.872372,1.22965 -2.762477,7.82281 -3.551278,12.38773 -0.321962,1.86325 -1.000712,4.16377 -1.508332,5.11227 -0.972984,1.81804 -1.327175,3.50766 -2.93479,14 -1.0199141,6.65662 -4.378303,26.72758 -5.521752,33 -0.350923,1.925 -0.825414,5.75 -1.054423,8.5 -0.22901,2.75 -0.649316,6.35 -0.934014,8 -0.284698,1.65 -0.7868487,6.375 -1.1158907,10.5 -0.329042,4.125 -0.762532,9.525 -0.963312,12 -0.20078,2.475 -0.664496,8.775 -1.030479,14 -1.479223,21.11827 -2.167765,28.35312 -2.426843,25.5 z M 217.22815,270.7095 c -0.0875,-16.43436 -0.33101,-30.15936 -0.54113,-30.5 -0.32351,-0.52446 -1.23334,-14.76841 -2.05162,-32.11934 -0.11672,-2.475 -0.53622,-6.75 -0.93221,-9.5 -0.39598,-2.75 -0.90332,-6.35 -1.12741,-8 -0.45168,-3.32577 -4.0611,-22.57382 -4.96931,-26.5 -0.31807,-1.375 -1.00346,-4.975 -1.52308,-8 -0.96642,-5.626 -3.49306,-14.92038 -5.02915,-18.5 -0.47203,-1.1 -1.3458,-4.025 -1.94171,-6.5 -0.59591,-2.475 -1.57778,-5.625 -2.18193,-7 -1.94374,-4.42376 -3.60016,-8.35822 -6.22098,-14.77652 -1.4096,-3.45208 -5.15811,-10.158826 -8.33,-14.903886 -3.1719,-4.74506 -6.21709,-9.31957 -6.76709,-10.16559 -1.87233,-2.88005 -10.98855,-11.79531 -14.5,-14.18037 -1.925,-1.3075 -3.725,-2.62826 -4,-2.93503 -0.275,-0.30676 -2.16974,-1.43371 -4.21052,-2.50432 -5.73121,-3.00664 -3.75249,-2.93188 2.32211,0.0877 5.91639,2.94097 12.62453,7.8023 14.75325,10.69154 0.75066,1.01885 2.55066,3.09252 4,4.60816 4.88576,5.10927 8.13516,9.05603 8.13516,9.88107 0,0.45105 0.7875,1.7189 1.75,2.81744 0.9625,1.09854 2.44872,3.3209 3.30272,4.93857 4.70317,8.908896 5.88754,11.259686 7.28329,14.456226 1.56548,3.58526 3.85961,9.08304 4.16656,9.98498 0.0936,0.275 0.42029,1.175 0.72601,2 2.4723,6.6717 5.00518,14.59529 5.37617,16.81821 0.24617,1.47498 0.8354,3.80679 1.30941,5.18179 0.47401,1.375 1.62407,6.1 2.55569,10.5 0.93163,4.4 2.0776,9.35 2.54661,11 1.50238,5.28542 3.75723,20.13998 5.38873,35.5 1.79124,16.86387 3.10738,88.39324 1.7296,94 -0.54842,2.23173 -0.91773,-7.32767 -1.01917,-26.38066 z m 9.61357,28.7214 c -0.40428,-0.63759 -0.45638,-6.26259 -0.11577,-12.5 0.89976,-16.47704 0.50573,-36.76376 -1.00052,-51.5115 -0.27128,-2.65608 -0.77873,-9.55424 -1.12767,-15.32924 -0.34893,-5.775 -0.86122,-11.85 -1.13842,-13.5 -0.53244,-3.16941 -0.75739,-5.05757 -1.84658,-15.5 -1.37266,-13.16009 -4.36057,-29.89232 -6.4286,-36 -0.46557,-1.375 -1.6228,-5.425 -2.57163,-9 -0.94883,-3.575 -2.13045,-7.625 -2.62583,-9 -0.49538,-1.375 -1.07928,-3.4 -1.29755,-4.5 -0.64855,-3.26841 -3.66285,-11.71408 -5.68829,-15.93783 -1.03858,-2.16581 -1.88833,-4.52831 -1.88833,-5.25 0,-0.72169 -0.3596,-1.31217 -0.79911,-1.31217 -0.43951,0 -1.33697,-1.48742 -1.99435,-3.30537 -0.65738,-1.81796 -1.98851,-4.18046 -2.95806,-5.25 -0.96955,-1.06955 -2.26458,-3.069626 -2.87783,-4.444626 -1.51567,-3.39834 -6.79512,-10.09743 -13.12065,-16.64875 -6.03763,-6.25316 -6.89898,-8.00626 -1.68398,-3.42743 7.30636,6.41507 18.38888,21.31678 23.1116,31.076176 4.01545,8.29785 7.10866,15.47193 8.19212,19 0.59117,1.925 1.85066,5.975 2.79887,9 0.94822,3.025 1.86462,6.4 2.03644,7.5 0.17183,1.1 0.74938,3.125 1.28345,4.5 0.87275,2.24695 6.47397,27.7885 7.45615,34 0.21742,1.375 0.70938,4.525 1.09323,7 0.38386,2.475 0.89426,5.4 1.13423,6.5 3.80391,17.43652 5.6271,109.47103 2.05708,103.84074 z m 8.44733,-26.27789 c -0.10391,-13.71543 0.20081,-25.17802 0.67715,-25.47241 0.90961,-0.56217 1.29608,6.60058 1.62341,30.0878 0.20399,14.63684 -0.18985,20.32176 -1.40786,20.32176 -0.38707,0 -0.78879,-11.22172 -0.8927,-24.93715 z m -35.30146,22.18715 c -0.0687,-0.4125 -0.23526,-5.025 -0.3701,-10.25 -0.53916,-20.89329 -2.30691,-52.11185 -4.04866,-71.5 -0.19764,-2.2 -0.62208,-7.375 -0.94319,-11.5 -0.32111,-4.125 -1.00862,-10.2 -1.52781,-13.5 -1.2959,-8.23693 -2.90854,-20.08826 -3.46984,-25.5 -0.2567,-2.475 -0.70097,-5.625 -0.98726,-7 -0.28629,-1.375 -0.78129,-4.075 -1.10001,-6 -0.31872,-1.925 -0.97531,-4.625 -1.45909,-6 -0.48377,-1.375 -1.07972,-3.85 -1.32432,-5.5 -0.24461,-1.65 -0.88583,-4.125 -1.42496,-5.5 -0.53912,-1.375 -1.03413,-2.8375 -1.10002,-3.25 -0.0659,-0.4125 -0.15324,-0.8625 -0.19411,-1 -0.0409,-0.1375 -0.27169,-1.375 -0.51293,-2.75 -0.24124,-1.375 -1.10416,-4.1875 -1.91759,-6.25 -0.81344,-2.0625 -1.16762,-3.75 -0.78707,-3.75 0.38054,0 0.1519,-0.54 -0.5081,-1.2 -0.66,-0.66 -1.2,-1.82949 -1.2,-2.59887 0,-0.76938 -0.74377,-3.04188 -1.65283,-5.05 -6.26208,-13.833076 -8.50297,-18.151126 -9.41969,-18.151126 -0.57503,0 -0.7674,-0.45 -0.42748,-1 0.33992,-0.55 0.14148,-1 -0.44098,-1 -0.58246,0 -1.05902,-0.60615 -1.05902,-1.34699 0,-0.74084 -0.9,-2.3847 -2,-3.65301 -1.1,-1.26831 -2,-2.62581 -2,-3.01665 0,-0.39085 -1.19318,-1.90381 -2.65152,-3.36214 -1.45833,-1.45833 -2.42412,-2.8789 -2.14621,-3.15682 0.45262,-0.45262 5.79223,5.04708 9.82273,10.11724 2.18522,2.74889 9.18028,15.41837 8.51278,15.41837 -0.30806,0 1.24893,3.597976 3.45997,7.995516 2.21104,4.39754 4.02837,8.21781 4.03852,8.4895 0.0101,0.27169 0.23032,1.06121 0.48929,1.75448 0.79276,2.12228 5.56998,20.13232 5.90466,22.2605 0.173,1.1 0.40639,2 0.51867,2 0.11227,0 0.35186,0.675 0.53242,1.5 0.7272,3.32268 1.57348,7.67937 2.11278,10.87672 0.31325,1.8572 0.75995,4.3322 0.99266,5.5 0.23271,1.1678 1.09065,6.62328 1.90654,12.12328 0.81588,5.5 1.9233,12.7 2.46093,16 0.53762,3.3 1.27679,9.825 1.64259,14.5 0.3658,4.675 0.80491,9.85 0.97579,11.5 1.58056,15.26092 3.22658,83.5 2.01414,83.5 -0.32271,0 -0.64296,-0.3375 -0.71168,-0.75 z M 234.84374,236.01 c 0.35361,-1.3522 0.8069,-1.8055 1.05655,-1.05655 0.24048,0.72144 -0.0382,1.78716 -0.61931,2.36826 -0.74207,0.74207 -0.87221,0.35164 -0.43724,-1.31171 z m -0.73121,-5.86082 c 0,-2.41457 0.55611,-2.65816 1.34934,-0.59105 0.30982,0.80739 0.13297,1.73395 -0.39301,2.05902 -0.52598,0.32508 -0.95633,-0.33551 -0.95633,-1.46797 z m -0.0504,-4.55902 c -0.10502,-1.1 -0.33214,-4.25 -0.50471,-7 -0.17256,-2.75 -0.58532,-7.025 -0.91723,-9.5 -0.33191,-2.475 -0.8218,-6.525 -1.08864,-9 -0.26684,-2.475 -0.94188,-7.425 -1.50008,-11 -0.5582,-3.575 -1.16754,-8.3 -1.35409,-10.5 -0.18655,-2.2 -0.59432,-4.675 -0.90615,-5.5 -0.31184,-0.825 -0.78505,-3.075 -1.0516,-5 -0.72863,-5.26222 -3.29526,-17.26193 -4.11741,-19.25 -0.40109,-0.96991 -0.28595,-1.75 0.2583,-1.75 0.5401,0 1.32611,1.4625 1.7467,3.25 0.42058,1.7875 0.8532,3.475 0.96136,3.75 0.10817,0.275 0.46571,1.175 0.79454,2 0.32883,0.825 0.86219,3.92121 1.18525,6.88048 0.32306,2.95926 0.81837,5.75422 1.10069,6.21102 0.28231,0.45679 1.39782,7.71058 2.47889,16.11952 1.08108,8.40894 2.18444,16.41398 2.45193,17.78898 0.26748,1.375 0.70165,6.23022 0.96481,10.78938 0.26316,4.55917 0.66276,8.60917 0.88801,9 0.22525,0.39084 0.0475,1.61062 -0.39504,2.71062 l -0.80458,2 z m -12.44962,-80.5 c -0.33992,-0.55 -0.14148,-1 0.44098,-1 0.58246,0 1.05902,0.45 1.05902,1 0,0.55 -0.19844,1 -0.44098,1 -0.24254,0 -0.7191,-0.45 -1.05902,-1 z m -1.31064,-4.75 c -0.5793,-1.5125 -2.4869,-6.8 -4.2391,-11.75 -3.64009,-10.2833 -12.48584,-28.869676 -14.55854,-30.589856 -0.76545,-0.63527 -1.39172,-1.56914 -1.39172,-2.07528 0,-1.37275 -7.3013,-10.87662 -11.14326,-14.50484 -6.11897,-5.77854 -7.36811,-6.80204 -12.60742,-10.33002 -2.85876,-1.925 -5.20935,-3.84132 -5.22353,-4.25848 -0.0305,-0.8978 4.14867,1.31538 5.2089,2.75848 0.40408,0.55 0.74158,0.63035 0.75,0.17857 0.008,-0.45179 0.62778,-0.22679 1.37635,0.5 0.74857,0.72678 3.06237,2.67143 5.14178,4.32143 2.07941,1.65 4.05445,3.225 4.38896,3.5 0.33452,0.275 2.36998,2.75 4.52324,5.5 2.15327,2.75 4.40327,5.45513 5,6.01141 1.44131,1.34357 4.7724,6.32033 6.51833,9.73859 0.77254,1.512496 1.80513,2.749996 2.29465,2.749996 0.48952,0 0.61192,0.45 0.272,1 -0.33992,0.55 -0.0665,1 0.60765,1 0.67413,0 0.96808,0.2576 0.65324,0.57245 -0.31485,0.31484 1.18515,4.08403 3.33333,8.37596 2.14818,4.29193 3.90578,8.05503 3.90578,8.36245 0,0.30742 0.51414,1.82574 1.14254,3.37404 2.83762,6.99165 6.41848,18.3151 5.79184,18.3151 -0.38046,0 -1.16572,-1.2375 -1.74502,-2.75 z M 205.7792,92.423494 c -0.36667,-0.36666 -0.65299,-1.37916 -0.63626,-2.25 0.025,-1.3003 0.22011,-1.2571 1.09166,0.24167 1.07678,1.85169 0.76461,3.22835 -0.4554,2.00833 z m -1.463,-10.37881 c -0.67134,-1.07499 -0.81495,-1.95452 -0.31913,-1.95452 0.89777,0 2.44391,3.00488 1.85114,3.59765 -0.17126,0.17127 -0.86067,-0.56814 -1.53201,-1.64313 z m -39.16919,-2.92082 c -2.74368,-2.68204 -3.64424,-4.0337 -2.68749,-4.0337 0.53021,0 3.98745,3.28376 5.52735,5.25 2.15892,2.75664 0.49565,2.04427 -2.83986,-1.2163 z m 28.83796,-0.7837 c -1.24387,-1.58606 -1.2085,-1.62143 0.37756,-0.37756 1.66575,1.30637 2.19548,2.12756 1.37244,2.12756 -0.20765,0 -0.99515,-0.7875 -1.75,-1.75 z m -149.83217,-6.25 c 12.73562,-12.29444 32.111812,-20.84025 49.959723,-22.0346 9.262957,-0.61985 6.519877,-1.45768 -3.5,-1.06901 -6.07701,0.23573 -9.95003,0.93456 -13.5,2.43589 -0.825,0.34891 -3.525,1.31764 -6,2.15274 l -4.5,1.51836 2.468666,-1.92093 c 3.232219,-2.51508 15.404064,-6.08964 20.722314,-6.08562 5.90127,0.004 6.36852,-1.80577 0.58355,-2.2608 l -4.77453,-0.37554 5.5,-0.17467 c 5.34054,-0.16961 13.696917,1.45059 12.687547,2.45996 -0.275,0.275 -2.11719,0.0535 -4.09377,-0.49228 -1.976573,-0.54576 -3.593777,-0.62966 -3.593777,-0.18644 0,0.44321 2.053657,1.11381 4.563677,1.49021 3.80697,0.57089 4.367,0.92134 3.37755,2.11355 -0.76733,0.92458 -3.173,1.43521 -6.813663,1.44628 -5.164984,0.0157 -10.391814,1.12852 -24.975759,5.3175 -5.644918,1.62141 -21.982489,10.87125 -26.189193,14.82753 -1.367212,1.28583 -3.640958,3.23787 -5.05277,4.33787 -1.411812,1.1 -0.0031,-0.475 3.130435,-3.5 z m 150.45973,0.49191 c -6.87143,-6.1661 -7.28977,-6.49191 -8.33535,-6.49191 -0.50587,0 -1.41855,-0.60101 -2.02819,-1.33558 -4.04116,-4.8693 -28.64529,-13.07794 -40.61371,-13.54989 -3.28748,-0.12963 -6.21248,-0.49367 -6.5,-0.80897 -0.28751,-0.3153 3.97725,-0.32211 9.47725,-0.0151 6.88107,0.38405 12.49515,1.3804 18,3.19451 8.14934,2.6856 21.41205,9.28426 24.13659,12.0088 0.82844,0.82845 1.81162,1.50649 2.18484,1.50676 0.37321,2.7e-4 2.61604,2.25027 4.98405,5 2.36802,2.74973 4.16802,4.99471 4,4.98884 -0.16801,-0.006 -2.55548,-2.0297 -5.30548,-4.49742 z m -54.20268,-1.03889 c -2.31148,-2.44916 -3.88648,-4.44817 -3.5,-4.44224 0.76187,0.0117 9.20268,7.86706 9.20268,8.56441 0,1.26184 -1.95525,-0.1515 -5.70268,-4.12217 z m 17.62699,-0.12272 -2.42431,-2.6697 2.71858,1.9197 c 1.49521,1.05583 2.73271,2.2572 2.75,2.6697 0.0516,1.23146 -0.49672,0.8857 -3.04427,-1.9197 z m 27.02269,-0.56613 c -2.44585,-1.7797 -5.347,-4.09387 -6.447,-5.14258 -1.97097,-1.87909 -1.95485,-1.88098 1.11128,-0.13052 3.31283,1.89132 11.2641,8.40835 10.33572,8.47138 -0.30415,0.0207 -2.55415,-1.41858 -5,-3.19828 z m -34.43992,-1.75272 c -0.35034,-0.56686 0.0511,-0.73451 0.94098,-0.39301 1.73242,0.66479 2.04939,1.38156 0.61096,1.38156 -0.51754,0 -1.21592,-0.44485 -1.55194,-0.98855 z m -19.50708,-2.68658 -2.5,-2.55424 2.75,1.72969 c 1.5125,0.95133 2.75,2.12794 2.75,2.61469 0,1.21112 -0.15019,1.1215 -3,-1.79014 z m 19,0.0806 c -2.475,-1.27767 -3.825,-2.33991 -3,-2.36053 1.55791,-0.0389 8,3.53671 8,4.44035 0,0.28308 -0.1125,0.45362 -0.25,0.37896 -0.1375,-0.0746 -2.275,-1.1811 -4.75,-2.45878 z m 10,-1.49484 c -1.66051,-1.35821 -1.82841,-1.69779 -0.5,-1.01125 3.26177,1.68573 5.07007,3.07047 4,3.06306 -0.55,-0.004 -2.125,-0.92712 -3.5,-2.05181 z m -22.97104,0.12841 c -0.80907,-0.51167 -1.22622,-1.17513 -0.927,-1.47435 0.29922,-0.29922 1.41119,0.112 2.47104,0.91382 2.10837,1.59509 0.82724,2.06018 -1.54404,0.56053 z m -35.52524,-1.95899 c 0.63264,-1.08969 0.39224,-1.25412 -1.03361,-0.70697 -1.80785,0.69374 -1.80809,0.65785 -0.009,-1.33006 1.01685,-1.12367 2.0013,-2.04303 2.1876,-2.04303 0.65946,0 -0.2765,3.95998 -1.1166,4.72423 -0.46902,0.42667 -0.48179,0.13679 -0.0284,-0.64417 z m 2.82961,-0.53608 c 0,-0.8008 0.38234,-1.21971 0.84965,-0.9309 0.4673,0.28881 0.59075,0.94402 0.27431,1.45601 -0.80862,1.30838 -1.12396,1.16106 -1.12396,-0.52511 z m 38.66667,0.45602 c -0.90129,-0.58246 -1.02463,-0.97549 -0.30902,-0.98469 0.65504,-0.008 1.4691,0.43469 1.80902,0.98469 0.7673,1.24152 0.42112,1.24152 -1.5,0 z m 22,-4 c -0.825,-0.53316 -1.05,-0.96938 -0.5,-0.96938 0.55,0 1.675,0.43622 2.5,0.96938 0.825,0.53315 1.05,0.96937 0.5,0.96937 -0.55,0 -1.675,-0.43622 -2.5,-0.96937 z m -75.500007,-2.53612 c 1.65,-0.75552 3.9,-1.36387 5,-1.35188 1.1,0.012 -0.025,0.65985 -2.5,1.43971 -5.55206,1.74942 -6.44398,1.71809 -2.5,-0.0878 z m 30.008377,-6.47743 c 1.52682,-2.47045 16.49163,-7.87921 16.49163,-5.9606 0,0.44838 -1.4625,1.16308 -3.25,1.58823 -1.7875,0.42515 -3.475,0.83611 -3.75,0.91325 -1.19234,0.33445 -6.30613,2.56613 -8.18799,3.57328 -1.57356,0.84214 -1.87818,0.81546 -1.30364,-0.11416 z m 5.99163,0.0136 c -0.33992,-0.55 0.0835,-1 0.94098,-1 0.85746,0 1.55902,0.45 1.55902,1 0,0.55 -0.42344,1 -0.94098,1 -0.51754,0 -1.2191,-0.45 -1.55902,-1 z m 3.82267,-0.71308 c 0.73425,-1.18804 14.84377,-3.3491 18.67733,-2.86068 1.375,0.17518 3.9625,0.37594 5.75,0.44613 1.7875,0.0702 3.25,0.53837 3.25,1.04039 0,0.50202 -1.4625,0.65842 -3.25,0.34755 -1.7875,-0.31087 -4.15,-0.59521 -5.25,-0.63186 -3.12685,-0.10418 -16.52918,1.44551 -18.26631,2.11211 -0.94974,0.36445 -1.30675,0.18667 -0.91102,-0.45364 z m -22.81559,-1.27547 c -0.35034,-0.56686 0.0511,-0.73451 0.94098,-0.39301 1.73242,0.66479 2.04939,1.38156 0.61096,1.38156 -0.51754,0 -1.21592,-0.44485 -1.55194,-0.98855 z m -24.694587,-2.69461 c 0.72187,-0.28887 1.58437,-0.25334 1.91667,0.079 0.33229,0.33229 -0.25834,0.56864 -1.3125,0.52522 -1.16495,-0.048 -1.4019,-0.28494 -0.60417,-0.60417 z"
       id="path168"
       inkscape:connector-curvature="0" />
  </g>
</svg>
