<?xml version="1.0" encoding="UTF-8" standalone="no"?>
<!-- Created with Inkscape (http://www.inkscape.org/) -->

<svg
   xmlns:dc="http://purl.org/dc/elements/1.1/"
   xmlns:cc="http://creativecommons.org/ns#"
   xmlns:rdf="http://www.w3.org/1999/02/22-rdf-syntax-ns#"
   xmlns:svg="http://www.w3.org/2000/svg"
   xmlns="http://www.w3.org/2000/svg"
   xmlns:sodipodi="http://sodipodi.sourceforge.net/DTD/sodipodi-0.dtd"
   xmlns:inkscape="http://www.inkscape.org/namespaces/inkscape"
   width="75mm"
   height="120mm"
   viewBox="0 0 75 120"
   version="1.1"
   id="svg8"
   inkscape:version="0.92.4 (5da689c313, 2019-01-14)"
   sodipodi:docname="yanagi5.svg">
  <defs
     id="defs2" />
  <sodipodi:namedview
     id="base"
     pagecolor="#ffffff"
     bordercolor="#666666"
     borderopacity="1.0"
     inkscape:pageopacity="0.0"
     inkscape:pageshadow="2"
     inkscape:zoom="0.98994949"
     inkscape:cx="14.54967"
     inkscape:cy="261.84721"
     inkscape:document-units="mm"
     inkscape:current-layer="layer1"
     showgrid="false"
     units="mm"
     inkscape:window-width="1920"
     inkscape:window-height="1017"
     inkscape:window-x="-8"
     inkscape:window-y="-8"
     inkscape:window-maximized="1" />
  <metadata
     id="metadata5">
    <rdf:RDF>
      <cc:Work
         rdf:about="">
        <dc:format>image/svg+xml</dc:format>
        <dc:type
           rdf:resource="http://purl.org/dc/dcmitype/StillImage" />
        <dc:title />
      </cc:Work>
    </rdf:RDF>
  </metadata>
  <g
     inkscape:label="Calque 1"
     inkscape:groupmode="layer"
     id="layer1"
     transform="translate(0,-176.99999)">
    <path
       style="fill:#00ffff;stroke-width:0.26917589"
       d="m 44.327902,264.57421 c -0.01707,-0.70322 -0.05187,-1.39971 -0.07732,-1.54775 -0.04392,-0.25555 -0.284664,-9.53331 -0.576229,-22.20701 -0.179151,-7.78723 -0.641417,-19.89421 -0.791377,-20.72654 -0.06669,-0.37012 -0.191958,-1.58142 -0.278388,-2.69177 -0.08642,-1.11034 -0.266004,-2.68502 -0.399055,-3.49928 -0.133054,-0.81426 -0.32043,-2.14668 -0.416397,-2.96094 -0.09597,-0.81425 -0.219402,-1.55356 -0.274306,-1.64289 -0.05491,-0.0893 -0.172803,-0.93724 -0.261997,-1.88424 -0.192576,-2.04459 -1.519721,-8.77702 -2.236373,-11.34484 -0.587613,-2.10545 -0.353304,-2.39308 0.43855,-0.53834 0.77931,1.82535 2.976407,9.97697 3.295504,12.22691 0.148222,1.04509 0.316825,1.97691 0.374674,2.07073 0.179298,0.29075 0.672627,5.14215 0.824822,8.11125 0.07968,1.55449 0.202447,3.85594 0.272816,5.11433 0.338238,6.04876 0.403991,7.3852 0.529753,10.76705 0.07432,1.99862 0.228135,5.99588 0.341808,8.8828 0.266964,6.78003 0.256096,20.22243 -0.01768,21.87053 -0.116817,0.70323 -0.326101,1.2786 -0.465077,1.2786 -0.138975,0 -0.266655,-0.57537 -0.283733,-1.2786 z m 3.28021,0.33647 c -0.0812,-4.34962 -0.30147,-11.13684 -0.410588,-12.65126 -0.07467,-1.03633 -0.1974,-3.45891 -0.272729,-5.38352 -0.375594,-9.59611 -0.443446,-11.15589 -0.550332,-12.65127 -0.06349,-0.88827 -0.186997,-3.25029 -0.274453,-5.24892 -0.557161,-12.73314 -3.101598,-26.68585 -6.074014,-33.30759 -1.11125,-2.47555 -0.338667,-2.13 0.940943,0.42086 3.042596,6.06532 4.893513,14.54599 5.820488,26.66871 0.15396,2.01346 0.34178,4.26649 0.417381,5.00672 0.0756,0.74024 0.186224,1.8304 0.245836,2.42259 0.05961,0.59219 0.241343,3.07534 0.403841,5.5181 0.162502,2.44278 0.41052,6.07665 0.551149,8.07528 0.140631,1.99863 0.334389,6.48041 0.430574,9.95951 0.147524,5.33607 0.104572,6.67258 -0.274568,8.54346 -0.247195,1.2198 -0.559474,2.49166 -0.693952,2.82635 -0.228618,0.56899 -0.245483,0.55606 -0.259576,-0.19902 z m -14.891873,-0.53834 c -0.09619,-0.5922 -0.249744,-1.99483 -0.341221,-3.11697 -0.09148,-1.12215 -0.207052,-2.394 -0.25684,-2.82635 -0.560132,-4.86433 -0.681803,-29.85367 -0.178789,-36.72106 0.16808,-2.29473 0.369245,-5.80747 0.447032,-7.8061 0.198821,-5.10841 1.315228,-13.85089 2.045225,-16.01597 0.149751,-0.44414 0.452272,-1.47373 0.67227,-2.288 0.219997,-0.81425 0.514876,-1.59553 0.655289,-1.73618 0.34865,-0.34923 0.320642,0.1703 -0.122617,2.27454 -0.575251,2.73081 -1.052255,6.61678 -0.906079,7.38145 0.07294,0.38161 0.04178,0.69383 -0.06926,0.69383 -0.318211,0 -0.493733,1.40917 -0.787902,6.32563 -0.28082,4.69335 -0.449718,7.26395 -0.725116,11.03621 -0.310886,4.25835 -0.331622,23.59458 -0.03451,32.1783 0.200983,5.80641 0.214576,9.2552 0.04032,10.22869 l -0.262902,1.46868 z m 8.585147,-0.29127 c -0.191097,-1.2657 -0.377601,-5.35594 -0.575856,-12.62917 -0.08072,-2.96094 -0.201108,-6.29199 -0.267548,-7.40234 -0.06644,-1.11035 -0.189928,-6.19778 -0.274417,-11.3054 -0.08449,-5.1076 -0.203168,-9.58938 -0.263733,-9.9595 -0.06056,-0.37011 -0.180328,-2.67157 -0.26614,-5.11434 -0.08581,-2.44277 -0.212166,-4.74422 -0.28079,-5.11435 -0.06862,-0.37011 -0.178908,-1.77444 -0.245072,-3.12074 -0.113503,-2.30949 -0.731051,-7.7684 -1.215183,-10.74181 -0.218557,-1.3423 -0.21922,-1.34303 -0.249766,-0.26917 -0.01685,0.59218 0.144142,3.07533 0.357746,5.5181 0.213601,2.44277 0.454142,6.86398 0.534537,9.82492 0.137568,5.06686 0.461984,31.95027 0.50673,41.99144 0.02059,4.61818 -0.265093,8.92848 -0.571445,8.62213 -0.446706,-0.44671 -0.807762,-5.22787 -0.834054,-11.04472 -0.06312,-13.96219 -0.307564,-34.61294 -0.444571,-37.55626 -0.07941,-1.70596 -0.15275,-6.39971 -0.162976,-10.43056 -0.01033,-4.0687 -0.124776,-7.32882 -0.257294,-7.32882 -0.131288,0 -0.24056,1.30214 -0.242829,2.89364 -0.0021,1.5915 -0.09312,6.40639 -0.201882,10.69974 -0.216092,8.52988 -0.244175,33.66043 -0.05059,45.2746 0.09094,5.45641 0.04012,7.40291 -0.199551,7.64316 -0.249569,0.25017 -0.358147,0.17663 -0.484918,-0.32848 -0.926056,-3.6897 -1.104939,-43.55179 -0.256532,-57.16526 0.353691,-5.67535 0.958336,-13.17467 1.071338,-13.28767 0.06945,-0.0695 0.126269,0.67411 0.126269,1.65235 0,2.32753 0.525536,2.70509 0.575007,0.41311 0.02016,-0.93404 0.09098,-1.39542 0.157382,-1.0253 0.220297,1.22798 0.653882,1.29164 0.458277,0.0672 -0.124246,-0.77767 -0.08556,-1.14399 0.120809,-1.14399 0.16697,0 0.30358,0.065 0.30358,0.14445 0,0.0795 0.295867,1.50272 0.657483,3.16281 1.062284,4.87671 1.819222,12.3782 2.165117,21.45692 0.08742,2.29472 0.209957,5.32295 0.272292,6.72939 0.194609,4.39093 0.39051,10.39727 0.544325,16.68891 0.08144,3.33105 0.275345,8.12413 0.430907,10.65129 0.204802,3.32705 0.198655,5.58664 -0.02229,8.18947 -0.333058,3.92366 -0.651196,5.08721 -0.914361,3.34416 z m 9.434695,0.69503 c -0.07752,-0.22207 -0.218816,-2.52353 -0.313986,-5.11434 -0.09516,-2.59082 -0.220072,-5.1951 -0.277566,-5.78728 -0.05749,-0.59219 -0.23885,-3.98381 -0.403018,-7.53693 -0.502996,-10.88644 -1.236482,-20.05361 -1.604539,-20.05361 -0.102023,0 -0.131511,-0.36781 -0.06553,-0.81736 0.172807,-1.17743 -0.539368,-6.69797 -1.613438,-12.50684 -0.164243,-0.88828 -0.332419,-1.91788 -0.373721,-2.28799 -0.455575,-4.08246 -3.669047,-13.55481 -5.342945,-15.7494 -0.379061,-0.49697 -0.6892,-0.97223 -0.6892,-1.05613 0,-0.40244 1.0275,-0.0784 1.6851,0.53128 0.405615,0.37611 0.737482,0.56382 0.737482,0.41714 0,-0.14668 -0.151411,-0.36356 -0.336469,-0.48195 -0.185059,-0.11839 -0.518164,-0.45752 -0.740234,-0.75361 -0.383326,-0.5111 -0.376513,-0.5187 0.134588,-0.15017 1.796318,1.29523 4.530426,5.01483 6.269305,8.52905 0.531467,1.07406 1.038424,1.90827 1.126574,1.8538 0.08815,-0.0545 0.173069,0.10402 0.188711,0.35223 0.01564,0.24822 0.412388,1.4809 0.881661,2.73929 1.451165,3.89142 1.818889,5.103 2.946041,9.7066 1.091164,4.45661 2.250473,11.1663 2.717942,15.73053 0.136467,1.33242 0.306112,2.84653 0.376991,3.36469 0.07088,0.51816 0.196991,2.15341 0.280248,3.63388 0.08326,1.48047 0.226762,4.02418 0.318898,5.6527 0.09213,1.62851 0.201941,3.02174 0.24401,3.09606 0.04208,0.0743 0.161592,2.55747 0.265601,5.51811 0.175419,4.99343 0.03115,7.30676 -0.585524,9.38887 -0.313058,1.057 -0.566817,-0.20914 -0.606962,-3.02844 -0.05981,-4.20037 -0.270842,-10.83663 -0.437672,-13.76332 -0.08017,-1.40644 -0.194046,-3.40507 -0.253053,-4.44139 -0.290478,-5.10163 -0.784768,-9.45151 -1.118382,-9.84206 -0.256013,-0.29971 -0.276368,-0.50406 -0.0707,-0.70974 0.433879,-0.43389 -0.938893,-9.60129 -2.188694,-14.61616 -2.159024,-8.66316 -4.45426,-14.51695 -7.652088,-19.51596 -0.54131,-0.84621 -1.044763,-1.47799 -1.118787,-1.40396 -0.07402,0.0741 0.298716,0.81195 0.828311,1.63984 1.781864,2.7855 3.431078,6.70206 4.831559,11.47399 1.215679,4.14225 3.221424,14.83712 3.803902,20.28285 0.09266,0.86634 0.212337,1.83537 0.265942,2.15342 0.05361,0.31804 0.286913,2.87972 0.518455,5.69261 0.231543,2.81288 0.474056,5.71998 0.53892,6.46022 0.06487,0.74023 0.199074,2.61773 0.298244,4.17222 0.09917,1.5545 0.274584,3.97708 0.38981,5.38353 0.274319,3.3483 0.12672,9.01298 -0.268928,10.32121 -0.651441,2.15402 -0.748676,1.23422 -1.219122,-11.53251 -0.08184,-2.2207 -0.261642,-5.18836 -0.399581,-6.59481 -0.137936,-1.40644 -0.324069,-4.25298 -0.413627,-6.32563 -0.08956,-2.07266 -0.397712,-5.82766 -0.68479,-8.34445 -0.696491,-6.1061 -0.761037,-6.61859 -0.932264,-7.40235 -0.08086,-0.37011 -0.26231,-1.33914 -0.403218,-2.1534 -0.140908,-0.81426 -0.325547,-1.78329 -0.410307,-2.15341 -0.08476,-0.37011 -0.212921,-1.09689 -0.284804,-1.61505 -0.07189,-0.51816 -0.235524,-1.24494 -0.363647,-1.61506 -0.128122,-0.37011 -0.306873,-1.20085 -0.397228,-1.84607 -0.243652,-1.73998 -1.891417,-7.42752 -2.972897,-10.26148 -1.164646,-3.05189 -3.157794,-7.17606 -3.905241,-8.08064 -0.305829,-0.37011 -0.0598,0.28623 0.546729,1.45854 1.471893,2.84489 3.195134,7.71149 4.439873,12.5386 0.897039,3.47875 1.614926,7.84335 2.429139,14.76868 1.072675,9.12369 1.163198,10.08097 1.46701,15.51361 0.157303,2.8129 0.337117,5.47773 0.399583,5.92187 0.06247,0.44415 0.245405,2.91197 0.406533,5.48408 0.161126,2.57209 0.312177,4.75242 0.335668,4.84516 0.0235,0.0928 -0.05032,1.77912 -0.164025,3.74751 -0.196555,3.40267 -0.744728,6.07432 -1.060653,5.16933 z m -20.9897,-0.40376 c -0.300706,-0.89883 -0.682579,-4.13296 -0.874032,-7.40234 -0.0997,-1.70253 -0.221608,-3.51947 -0.270902,-4.03763 -0.325197,-3.41819 0.0036,-21.11257 0.550112,-29.60935 0.177508,-2.75952 0.601716,-9.01361 0.812476,-11.97833 0.259802,-3.6546 1.137254,-8.53395 2.033579,-11.30839 0.559817,-1.73281 2.014222,-4.7252 2.876783,-5.91886 0.375183,-0.51921 0.384168,-0.51442 0.252608,0.13458 -0.07503,0.37012 -0.458317,1.52084 -0.851759,2.55717 -1.315715,3.46562 -2.513069,9.57816 -2.952746,15.07385 -0.08291,1.03632 -0.325208,3.94342 -0.538438,6.46022 -0.21323,2.51679 -0.459685,6.75632 -0.547673,9.42115 -0.08799,2.66485 -0.281039,7.20719 -0.429002,10.0941 -0.147963,2.88691 -0.209467,7.12643 -0.136679,9.42116 0.197583,6.22889 0.42574,12.04415 0.543885,13.86256 0.125206,1.92699 -0.185971,4.07373 -0.468212,3.23011 z m -3.230692,-0.40377 c -0.882956,-2.47571 -1.191386,-28.13844 -0.456152,-37.9538 0.338499,-4.51894 1.053382,-11.2319 1.483123,-13.92695 0.218111,-1.36784 0.396563,-2.9589 0.396563,-3.53567 0,-0.57678 0.186356,-1.69853 0.414122,-2.49278 1.074222,-3.74591 2.178574,-6.9534 2.836452,-8.23822 0.732481,-1.43052 2.913051,-4.3406 3.269956,-4.36392 0.107194,-0.007 -0.173306,0.61174 -0.623336,1.37499 -2.853383,4.83935 -3.883863,7.96486 -4.822913,14.62824 -0.166911,1.18437 -0.348658,2.45623 -0.403882,2.82634 -0.180224,1.20786 -0.925664,8.93529 -1.207443,12.51669 -0.151424,1.9246 -0.249836,8.88952 -0.218692,15.47761 0.08522,18.02782 0.0371,22.39745 -0.256381,23.28371 -0.182118,0.54994 -0.313349,0.67873 -0.411417,0.40376 z m -3.014968,-1.10713 c -0.111988,-0.50142 -0.230745,-7.81605 -0.263905,-16.25471 -0.06548,-16.66313 0.09262,-21.43439 0.985576,-29.74393 0.167048,-1.5545 0.32477,-3.13846 0.350493,-3.51992 0.02572,-0.38146 0.113491,-0.80541 0.195037,-0.94211 0.08154,-0.13671 0.232476,-0.79363 0.335401,-1.45985 0.384581,-2.48934 2.118236,-7.76709 3.535774,-10.76392 1.070081,-2.26228 1.282803,-2.88067 0.788109,-2.29111 -0.910086,1.08463 -2.511633,4.22298 -3.502787,6.86399 -0.02778,0.0741 -0.121496,0.31628 -0.208257,0.53835 -0.865123,2.21436 -2.253507,9.1879 -2.759941,13.86256 -0.0802,0.74023 -0.270934,2.29543 -0.423867,3.45599 -0.152933,1.16055 -0.20071,2.46227 -0.106171,2.8927 0.09454,0.43043 0.04724,1.1767 -0.105114,1.65836 -0.706783,2.23452 -1.041192,15.25562 -0.687173,26.75689 0.189887,6.169 0.02759,8.96713 -0.468672,8.08035 -0.584092,-1.04372 -0.973208,-8.98778 -0.892192,-18.2147 0.08206,-9.34614 0.401851,-14.59974 1.466447,-24.09124 0.315502,-2.81289 0.619666,-5.65942 0.67592,-6.32564 0.121888,-1.44351 0.603113,-3.30177 1.718098,-6.63446 1.731151,-5.17441 4.022709,-9.2657 6.573853,-11.73679 1.400641,-1.35669 2.411062,-1.80306 1.185283,-0.52362 -1.084802,1.1323 -0.870754,1.37198 0.274393,0.30725 0.548729,-0.5102 0.821269,-0.68536 0.605646,-0.38927 -0.215626,0.29609 -0.459004,0.59892 -0.540845,0.67294 -0.571412,0.51685 -3.002258,5.26828 -3.590488,7.01812 -0.798656,2.3758 -2.531512,9.8622 -2.830372,12.22796 -1.05634,8.36188 -1.434192,16.84625 -1.486491,33.3778 -0.03183,10.06381 -0.142817,15.24266 -0.333914,15.58178 -0.25567,0.45369 -0.307966,0.41058 -0.489841,-0.40377 z m 7.373225,-66.84113 c -0.07082,-0.0708 -0.289117,0.13828 -0.485117,0.46465 -0.340486,0.56697 -0.33475,0.57271 0.128755,0.12876 0.266815,-0.25556 0.427176,-0.52259 0.356362,-0.59341 z m -9.664119,67.02204 c 0,-0.23081 0.121128,-0.41965 0.269175,-0.41965 0.148047,0 0.269176,0.11397 0.269176,0.25328 0,0.13932 -0.121129,0.32816 -0.269176,0.41965 -0.148047,0.0915 -0.269175,-0.0225 -0.269175,-0.25328 z m 37.306939,-0.37746 c -0.115574,-0.18699 -0.259085,-2.96811 -0.318915,-6.18026 -0.114298,-6.1363 -0.631379,-20.23793 -0.770193,-21.00436 -0.04463,-0.24646 -0.164402,-1.296 -0.266142,-2.33234 -0.949612,-9.67256 -2.023648,-14.73015 -4.998055,-23.53565 -1.847273,-5.4687 -5.531214,-11.66574 -9.045028,-15.21534 -1.020252,-1.03064 -1.690051,-1.77217 -1.48844,-1.64786 0.228867,0.14113 0.451951,0.0879 0.593869,-0.14176 0.154617,-0.25017 0.03739,-0.47999 -0.366564,-0.71865 l -0.593869,-0.35087 0.639354,0.17465 c 0.445108,0.1216 0.581372,0.0809 0.448504,-0.13415 -0.273471,-0.44248 1.026527,-0.11454 2.680605,0.67621 1.685183,0.80563 4.092466,2.61311 6.191044,4.64849 4.220902,4.09379 5.715151,6.0905 8.019821,10.71662 2.582266,5.18334 3.979442,9.69997 6.356504,20.54856 0.893431,4.0775 1.423182,8.41089 2.155364,17.63102 0.330839,4.16616 0.224256,13.86314 -0.159648,14.52472 -0.269607,0.4646 -0.32489,0.38429 -0.463238,-0.67294 -0.0864,-0.66028 -0.282618,-3.98648 -0.436036,-7.39156 -0.278077,-6.17183 -0.718505,-12.94234 -0.949929,-14.60279 -0.229846,-1.64912 -0.422415,-2.89653 -0.820693,-5.31622 -0.219316,-1.33243 -0.461935,-2.9071 -0.539154,-3.49929 -0.120901,-0.92719 -0.506247,-2.74778 -1.452828,-6.86399 -0.439021,-1.90908 -1.353879,-5.04362 -2.146961,-7.35605 -0.448242,-1.30696 -0.814985,-2.48564 -0.814985,-2.61929 0,-0.26322 -1.783083,-4.17242 -2.848398,-6.24477 -1.74735,-3.3991 -6.772497,-9.3742 -9.668281,-11.49596 -1.798121,-1.3175 -1.957759,-1.40231 -2.126277,-1.12964 -0.07956,0.12873 0.376485,0.60832 1.01344,1.06575 3.170552,2.27691 6.090354,5.35639 8.04175,8.48153 1.361879,2.18105 4.398864,9.14112 4.925698,11.28859 0.09963,0.40611 0.278056,0.67848 0.396501,0.60528 0.118449,-0.0733 0.157575,0.0879 0.08695,0.35794 -0.07062,0.27007 0.126302,1.24715 0.437621,2.17127 0.311317,0.92413 0.797186,2.79281 1.079707,4.15262 0.282521,1.3598 0.69526,3.32028 0.917196,4.35661 1.512588,7.06304 3.350143,25.64638 3.031775,30.6606 -0.37891,5.96769 -0.856474,6.30054 -1.098566,0.76568 -0.09551,-2.18369 -0.229281,-4.63655 -0.297261,-5.45081 -0.06798,-0.81426 -0.183021,-2.51006 -0.255644,-3.76846 -0.15932,-2.76061 -0.429468,-5.85824 -0.575143,-6.59481 -0.05856,-0.29609 -0.164647,-1.56795 -0.235749,-2.82634 -0.188115,-3.32936 -0.859051,-7.96308 -1.753883,-12.11293 -0.430967,-1.99863 -0.845595,-3.99726 -0.921394,-4.44139 -0.302641,-1.77325 -0.49842,-2.54078 -1.38279,-5.42115 -0.506365,-1.6492 -0.920662,-3.1936 -0.920662,-3.43199 0,-0.23839 -0.121129,-0.43344 -0.269175,-0.43344 -0.148047,0 -0.269177,-0.21249 -0.269177,-0.47221 0,-1.66583 -3.640711,-9.15752 -5.787797,-11.90987 -1.105972,-1.41774 -5.635413,-5.7037 -6.909086,-6.53767 -1.553704,-1.01734 -2.000143,-1.20921 -1.705931,-0.73316 0.09323,0.15085 -0.01114,0.19871 -0.240996,0.1105 -0.222999,-0.0856 0.655302,0.91514 1.95178,2.22378 5.084819,5.13258 8.058071,11.00595 11.054321,21.83676 0.656338,2.37251 2.15128,10.54365 2.5468,13.92042 0.37578,3.20828 0.477739,4.36385 0.843099,9.55575 0.06771,0.96231 0.198522,4.23279 0.290674,7.26775 0.09215,3.03496 0.213821,5.88149 0.270372,6.32563 0.125826,0.9882 -0.357544,6.96467 -0.652243,8.06449 -0.144125,0.53788 -0.281762,0.68628 -0.423621,0.45675 z m -13.23333,-69.73022 c 0.14897,-0.24105 -1.700667,-1.10523 -2.365536,-1.10523 -0.194399,0 -0.353455,0.17014 -0.353455,0.3781 0,0.20795 0.151492,0.31997 0.336645,0.24892 0.185155,-0.071 0.679766,0.0568 1.099136,0.28405 0.899732,0.48763 1.08455,0.5156 1.28321,0.19416 z m -29.187952,69.16555 c 0,-0.1393 0.119742,-0.32729 0.266093,-0.41773 0.152586,-0.0943 0.197713,0.0137 0.105789,0.25328 -0.178945,0.46632 -0.371882,0.55165 -0.371882,0.16445 z m 2.671164,-0.1729 c -0.01132,-0.13571 -0.07178,-0.489 -0.134347,-0.78509 -0.357112,-1.69009 -0.661183,-6.53561 -0.819244,-13.05503 -0.368027,-15.17979 1.200435,-31.32652 3.961306,-40.78015 0.302652,-1.03633 0.662831,-2.09457 0.800398,-2.35163 0.33355,-0.62332 0.316219,-0.74389 -0.106928,-0.74389 -0.353633,0 -1.735696,3.88886 -2.862307,8.05399 -0.645918,2.38798 -1.760428,9.38485 -2.309579,14.49949 -0.617769,5.75373 -0.939112,13.75407 -0.888866,22.12972 0.05671,9.45243 0.05681,10.10287 0.0017,11.42651 -0.08252,1.98504 -0.529209,0.60226 -0.952136,-2.94748 -0.480408,-4.03218 -0.4306,-16.87308 0.09658,-24.89877 0.362425,-5.51749 2.241564,-19.12178 2.862927,-20.72654 0.08599,-0.22207 0.436661,-1.3728 0.77928,-2.55717 1.31889,-4.55918 3.065639,-8.15078 5.637791,-11.59221 0.837932,-1.12112 4.8989,-4.33555 5.154469,-4.07999 0.0781,0.0781 -0.309377,0.48693 -0.861064,0.90853 -2.223585,1.69924 -4.493807,4.59727 -6.128608,7.82345 -0.8243,1.6267 -0.837062,1.69129 -0.334132,1.69129 0.207587,0 0.50487,-0.3331 0.660628,-0.74024 0.86589,-2.2633 3.398083,-6.01382 4.847484,-7.17976 0.353934,-0.28472 1.0217,-0.86874 1.483921,-1.29781 1.853257,-1.72036 2.099085,-1.38694 0.310058,0.42053 -4.217049,4.26053 -6.319779,8.89503 -8.326987,18.35303 -1.556986,7.33654 -2.278567,13.78528 -2.545089,22.74536 -0.226074,7.60027 -0.09359,16.48613 0.242705,16.27828 0.316406,-0.19555 0.316428,-0.193 0.0077,0.88345 -0.137711,0.48018 -0.167994,0.87284 -0.0673,0.8726 0.244117,-5.4e-4 -0.03805,7.44447 -0.291758,7.69818 -0.10895,0.10895 -0.207358,0.0871 -0.218685,-0.0486 z m -5.471737,-0.78509 c -0.336876,-0.82921 -0.590788,-6.04667 -0.654985,-13.4588 -0.06184,-7.13931 0.638501,-18.62179 1.403689,-23.01454 0.219205,-1.25839 0.47939,-3.01477 0.578187,-3.90304 0.346784,-3.1179 1.822266,-9.98848 2.543488,-11.84374 0.172656,-0.44414 0.308718,-0.83655 0.302361,-0.872 -0.150065,-0.83695 3.34232,-7.1546 5.380736,-9.73364 2.254385,-2.85229 2.35203,-2.94831 3.843923,-3.77978 1.41798,-0.79028 1.481969,-0.55566 0.149735,0.54902 -1.80802,1.49919 -4.776809,5.54799 -6.189103,8.44062 -2.286519,4.68318 -4.076493,11.61744 -5.388149,20.87339 -0.890002,6.28045 -1.574965,20.0911 -1.408451,28.39805 0.131047,6.53758 -0.07164,9.55006 -0.561431,8.34446 z m 47.73235,-4.77788 c -0.01133,-2.84989 -0.05496,-5.36333 -0.09695,-5.58539 -0.042,-0.22207 -0.15764,-2.46297 -0.25699,-4.97976 -0.202248,-5.12353 -0.483593,-7.70042 -1.939652,-17.7656 -1.220947,-8.43994 -4.046286,-17.67982 -7.571915,-24.76287 -1.323212,-2.65835 -4.438484,-6.69278 -6.778293,-8.77823 -1.772343,-1.57966 -1.613248,-1.71496 0.323453,-0.27507 1.863437,1.38542 4.39783,4.07826 5.821964,6.18596 2.553976,3.77985 6.317625,13.0076 7.536567,18.47822 1.046007,4.69448 2.269834,11.18077 2.842923,15.06747 1.305871,8.8565 1.828718,23.55125 0.945997,26.58749 -0.59655,2.05193 -0.806578,0.99247 -0.827105,-4.17222 z m -50.142926,4.43524 c -0.376797,-0.60967 -0.683761,-2.84368 -0.729626,-5.31006 -0.04085,-2.1965 -0.130382,-2.72541 -0.4866331,-2.87472 -0.358246,-0.15013 -0.364133,-0.18636 -0.03281,-0.20193 0.347649,-0.0164 0.4019881,-0.92615 0.3909871,-6.54643 -0.01913,-9.77102 0.670051,-18.42417 1.891942,-23.75473 0.237551,-1.03632 0.780302,-3.6406 1.206114,-5.78728 1.207072,-6.08531 3.450816,-11.77807 6.153395,-15.6122 2.543881,-3.60899 6.132993,-6.76637 8.862197,-7.79618 2.239506,-0.84504 2.427888,-0.89754 1.742408,-0.48558 -0.337748,0.20298 -0.519442,0.47302 -0.403764,0.6001 0.115679,0.12707 0.06984,0.15067 -0.101856,0.0524 -0.171697,-0.0983 -0.514961,-0.10082 -0.762801,-0.006 -0.363792,0.1396 -0.381441,0.22247 -0.09159,0.43004 0.268554,0.19231 0.240324,0.21891 -0.112012,0.10557 -0.704072,-0.22648 -3.382517,1.4605 -4.932323,3.10656 -2.71114,2.87953 -3.981824,4.92793 -5.899895,9.51087 -1.861223,4.44712 -3.899907,12.05474 -4.328005,16.15055 -0.09284,0.88828 -0.331098,2.28127 -0.529454,3.09552 -0.198355,0.81426 -0.490255,3.41853 -0.648663,5.78729 -0.15841,2.36874 -0.350433,5.24631 -0.426717,6.39458 -0.07628,1.14827 -0.19741,6.83231 -0.269168,12.6312 -0.07175,5.79888 -0.17784,10.5908 -0.235739,10.6487 -0.0579,0.0579 -0.173092,-0.004 -0.255987,-0.1386 z m -2.7306708,-1.4743 c -0.6668093,-4.52164 -0.8226376,-18.43743 -0.2804845,-25.04786 0.4555952,-5.55502 1.6011672,-13.51681 2.4088573,-16.74169 1.104143,-4.40853 3.201594,-10.65649 3.930787,-11.70916 0.256384,-0.37011 0.558934,-0.97576 0.672334,-1.34588 0.113401,-0.37012 0.282725,-0.73351 0.376275,-0.80753 0.09356,-0.0741 0.740351,-0.98249 1.437332,-2.01881 0.696982,-1.03633 1.585408,-2.24762 1.974279,-2.69176 0.388872,-0.44415 0.846192,-0.98933 1.016265,-1.21152 1.129983,-1.47629 5.881091,-4.8809 6.269381,-4.49262 0.07751,0.0775 -0.505036,0.55456 -1.294555,1.06012 -0.789519,0.50554 -2.052266,1.59465 -2.806104,2.42025 -3.068258,3.36032 -6.724338,8.83412 -6.424014,9.6179 0.08336,0.21756 0.06495,0.30894 -0.04092,0.20307 -0.220563,-0.22056 -1.01915,1.44748 -1.339223,2.7973 -0.269286,1.13562 -0.258248,1.09786 -0.46302,1.58382 -0.367794,0.87285 -1.042918,3.06351 -1.524897,4.94803 -0.723942,2.83058 -2.3756501,12.31835 -2.5594121,14.70181 -0.08561,1.11035 -0.223468,2.86673 -0.306357,3.90306 -0.130379,1.63006 -0.202927,6.40195 -0.3427319,22.54347 -0.029499,3.40587 -0.3738541,4.52534 -0.7037969,2.288 z m -2.1561564,-0.21956 c -0.099684,-0.45385 -0.2724429,-2.54333 -0.3839086,-4.64328 -0.285303,-5.37494 -0.1101037,-12.03274 0.5715158,-21.71829 0.1614913,-2.29472 0.3144023,-4.47504 0.3398025,-4.84516 0.1478241,-2.154 0.4789837,-5.1419 0.6861772,-6.19104 0.7300279,-3.69657 1.7212892,-7.78769 2.0826012,-8.5953 0.227309,-0.50807 0.694976,-1.8113 1.0392621,-2.89607 0.344286,-1.08477 1.054924,-2.87623 1.579196,-3.98102 0.52427,-1.1048 0.95322,-2.12321 0.95322,-2.26313 0,-0.13992 0.09085,-0.29478 0.201882,-0.34412 0.111036,-0.0494 0.564667,-0.63482 1.008072,-1.30102 2.276608,-3.42058 5.451551,-6.67653 7.942026,-8.14466 2.050352,-1.20868 5.878223,-2.64159 6.099643,-2.28333 0.09602,0.15537 0.06502,0.22006 -0.06889,0.14375 -0.13391,-0.0763 -0.60686,0.0207 -1.051001,0.21545 -0.621912,0.27276 -0.683784,0.35791 -0.269175,0.37043 0.436851,0.0132 0.463929,0.0634 0.143615,0.26593 -0.226984,0.14356 -0.515414,0.1495 -0.678703,0.0139 -0.629836,-0.52271 -3.70972,1.37237 -6.084766,3.74402 -2.183247,2.18013 -5.089297,5.87905 -5.089297,6.47784 0,0.15032 -0.102054,0.2733 -0.226788,0.2733 -0.414122,0 -2.107876,3.76141 -3.420946,7.59709 -1.9806431,5.78575 -3.3875437,13.35008 -3.8935157,20.93386 -0.1727913,2.58989 -0.3692315,4.79798 -0.4365335,4.90688 -0.1247087,0.20178 -0.3801262,13.81093 -0.3714514,19.7917 0.00459,3.16394 -0.2856231,4.23154 -0.6720385,2.4722 z m -2.3865467,-0.29261 c -0.3187671,-1.59383 -0.719612,-12.1999 -0.5783194,-15.30191 0.077548,-1.70254 0.2017109,-4.73077 0.2759171,-6.7294 0.3354444,-9.03471 1.9135774,-18.42441 4.1621302,-24.76418 0.4463211,-1.2584 0.8131133,-2.56054 0.8150939,-2.89364 0.00199,-0.33311 0.1338593,-0.60565 0.2930636,-0.60565 0.1633325,0 0.2550299,-0.3812 0.2104412,-0.87482 -0.049221,-0.54492 0.036484,-0.85216 0.2272622,-0.81474 0.168456,0.0331 0.694736,-0.63316 1.1695101,-1.48047 1.154038,-2.05955 3.684632,-5.90606 4.023233,-6.11533 0.149125,-0.0922 0.269245,-0.31183 0.266932,-0.48815 -0.0043,-0.3245 -2.137233,1.94734 -2.144997,2.28466 -0.0023,0.10041 -0.163213,0.34271 -0.357557,0.53834 -0.194343,0.19564 -0.874358,1.23389 -1.511144,2.30723 -0.6367861,1.07334 -1.2035341,1.95152 -1.2594381,1.95152 -0.233412,0 0.100784,-1.54065 0.496307,-2.288 0.235057,-0.44413 0.5984481,-1.13338 0.8075351,-1.53166 1.179644,-2.24702 5.56763,-7.18963 7.592335,-8.55199 0.338568,-0.22781 1.086102,-0.72843 1.661187,-1.11249 1.964435,-1.31189 5.319341,-2.22169 9.79595,-2.65652 2.49776,-0.24262 2.470943,-0.24597 -1.196221,-0.14948 -3.919928,0.10314 -4.354991,-0.14058 -1.200684,-0.67263 1.707235,-0.28796 4.967883,-0.0646 6.252227,0.42821 0.247152,0.0948 0.449367,0.0535 0.449367,-0.0919 0,-0.317 -1.287385,-0.60079 -2.725405,-0.60079 -0.573681,0 -1.043056,-0.12114 -1.043056,-0.26918 0,-0.3454 2.269675,-0.34604 3.511719,-0.001 0.525003,0.14585 1.191214,0.44985 1.480467,0.67558 0.501154,0.39106 0.491063,0.40247 -0.214315,0.24248 -0.463289,-0.10508 -0.740233,-0.0563 -0.740233,0.13046 0,0.1641 -0.39367,0.31269 -0.874822,0.3302 l -0.874822,0.0318 0.807528,0.20547 c 0.75202,0.19137 0.724266,0.20986 -0.403764,0.26921 -0.666211,0.035 -1.304787,0.0485 -1.41906,0.0299 -0.114273,-0.0186 -1.291799,0.089 -2.616729,0.23905 -2.924556,0.33131 -6.45159,1.4759 -8.214826,2.6659 -2.460287,1.66043 -5.932248,4.81289 -5.631691,5.11345 0.07193,0.0719 0.824102,-0.53935 1.671498,-1.3584 2.987954,-2.88797 4.744932,-4.03518 7.853407,-5.12784 1.28718,-0.45246 5.570653,-1.27351 6.719915,-1.28806 0.77197,-0.0102 0.0076,0.34016 -0.978263,0.44785 -3.395485,0.3709 -9.509837,2.64198 -9.062331,3.36605 0.114187,0.18476 0.06522,0.227 -0.126088,0.10878 -0.286713,-0.17721 -1.438225,0.80212 -4.658732,3.9621 -0.574896,0.56408 -0.963346,1.15817 -0.863221,1.32017 0.105384,0.17051 0.05847,0.21817 -0.111416,0.11318 -0.395415,-0.24438 -2.353276,2.58998 -3.940952,5.70523 -1.339267,2.62785 -3.3856919,8.03407 -3.3856919,8.9443 0,0.29141 -0.116203,0.74015 -0.2582288,0.99723 -0.697474,1.26246 -1.9795675,8.07637 -2.5443539,13.52243 -0.7092029,6.83862 -0.7833056,8.49374 -0.849626,18.97689 -0.036528,5.77383 -0.077627,10.7704 -0.091333,11.10352 -0.036776,0.8938 -0.4699711,0.73567 -0.6657048,-0.243 z m 66.2253419,-1.35177 c -0.08881,-0.78841 -0.293077,-3.61379 -0.453944,-6.27864 -0.358268,-5.93491 -0.986339,-12.72679 -1.344151,-14.53549 -0.14644,-0.74023 -0.640388,-3.34451 -1.097662,-5.78728 -1.145103,-6.11719 -1.253261,-6.6243 -1.83709,-8.61363 -0.282417,-0.9623 -0.724654,-2.59754 -0.982748,-3.63387 -0.426958,-1.71437 -1.517684,-5.07622 -2.663627,-8.20987 -0.801743,-2.19241 -3.02671,-6.65512 -3.607694,-7.2361 -0.313496,-0.3135 -0.501182,-0.57 -0.417078,-0.57 0.744692,0 -5.103388,-6.01449 -7.732582,-7.95261 -2.041837,-1.50516 -5.399795,-3.23846 -6.773015,-3.49607 -0.544688,-0.10219 -0.990344,-0.27493 -0.990344,-0.38388 0,-0.10895 -0.27254,-0.33044 -0.605645,-0.4922 -0.494347,-0.24005 -0.358319,-0.2679 0.740234,-0.15147 4.726198,0.50084 11.46592,3.63598 14.891823,6.92728 2.328978,2.23747 5.315651,7.16669 8.01044,13.22047 4.053035,9.10502 7.478177,25.74692 8.081218,39.26454 0.196368,4.40178 -0.04184,8.47366 -0.470641,8.04487 -0.141116,-0.14111 -0.428595,-3.03063 -0.638846,-6.42115 -0.210251,-3.39051 -0.444665,-6.64909 -0.520922,-7.24128 -0.07626,-0.59219 -0.207831,-1.74291 -0.292385,-2.55717 -0.588333,-5.6656 -2.164185,-14.55167 -3.477462,-19.60902 -0.464907,-1.79033 -2.302661,-7.24717 -3.475891,-10.32094 -0.980873,-2.56983 -3.511421,-7.53317 -4.968051,-9.74419 -2.370134,-3.59763 -5.89378,-6.84007 -9.304177,-8.56163 -2.395772,-1.20938 -6.308273,-2.64249 -7.117963,-2.60724 -0.545843,0.0238 -0.58855,0.0602 -0.178791,0.15279 3.277775,0.74014 8.155854,3.48888 11.486832,6.4727 2.64402,2.36845 3.508519,3.44511 5.6778,7.07126 2.134252,3.56758 3.521391,6.91506 4.954229,11.95566 1.973337,6.94201 2.246796,8.09004 3.21125,13.48146 2.178004,12.1753 2.906133,18.71463 2.736062,24.57264 -0.124383,4.28429 -0.54057,5.89119 -0.839179,3.24006 z M 57.54857,196.92675 c -1.942638,-1.75073 -3.630718,-2.87148 -6.647507,-4.41339 -2.490863,-1.27312 -6.517951,-2.56463 -8.020686,-2.57228 -0.632453,-0.003 -0.721144,-0.0635 -0.405657,-0.27576 0.78888,-0.53074 4.308152,0.18076 8.748216,1.76865 l 0.538352,0.19253 -0.538352,-0.39752 c -0.567428,-0.41898 -4.548439,-1.71163 -5.921869,-1.92285 -0.444141,-0.0683 -1.594867,-0.136 -2.557171,-0.15044 -1.151583,-0.0173 -1.618592,-0.1092 -1.366247,-0.26891 0.28777,-0.18212 0.187068,-0.26927 -0.403764,-0.3494 l -0.787159,-0.10677 1.000763,-0.454 c 1.311613,-0.59501 4.206783,-0.59975 5.535397,-0.009 l 1.000764,0.44493 -0.807528,0.17312 c -0.791764,0.16975 -0.785436,0.17685 0.32425,0.36383 1.310555,0.22082 5.026571,1.85321 5.327639,2.34035 0.115156,0.18633 0.04243,0.43323 -0.16659,0.56563 -0.218526,0.1384 -0.245319,0.23665 -0.0652,0.23908 0.569716,0.008 4.620849,3.09207 5.750004,4.37786 1.565534,1.7827 1.240793,2.05715 -0.537649,0.45439 z m -27.455939,-4.03649 c 0,-0.15679 0.121128,-0.21021 0.269175,-0.11871 0.148047,0.0915 0.269176,0.21977 0.269176,0.28507 0,0.0653 -0.121129,0.11869 -0.269176,0.11869 -0.148047,0 -0.269175,-0.12828 -0.269175,-0.28505 z m 1.615055,-0.0998 c 0,-0.0741 0.242258,-0.26425 0.538351,-0.42272 0.296094,-0.15846 0.538352,-0.22755 0.538352,-0.15353 0,0.0741 -0.242258,0.26425 -0.538352,0.42272 -0.296093,0.15846 -0.538351,0.22755 -0.538351,0.15353 z M 30.76557,191.8294 c 0.09451,-0.15292 -0.160222,-0.28255 -0.589759,-0.30013 -0.679671,-0.0279 -0.659941,-0.0497 0.195139,-0.21736 0.523192,-0.10251 1.119249,-0.29021 1.324571,-0.41712 0.211088,-0.13045 0.148626,0.0773 -0.143729,0.47808 -0.482263,0.6611 -1.153569,1.0509 -0.786222,0.45653 z m -2.069289,-0.18388 c 0.194309,-0.0777 0.426474,-0.0682 0.515921,0.0213 0.08945,0.0894 -0.06954,0.15307 -0.353294,0.14138 -0.313576,-0.0129 -0.377357,-0.0767 -0.162627,-0.16263 z m 11.75962,-0.89283 c -0.210544,-0.34066 0.145794,-0.34066 0.67294,0 0.347961,0.22487 0.340855,0.2615 -0.05141,0.26506 -0.250345,0.002 -0.530035,-0.11702 -0.621533,-0.26506 z m -6.056457,-1.0767 c 0,-0.14805 0.11398,-0.26917 0.25329,-0.26917 0.139309,0 0.328151,0.12112 0.41965,0.26917 0.0915,0.14804 -0.02247,0.26917 -0.253289,0.26917 -0.230808,0 -0.419651,-0.12113 -0.419651,-0.26917 z"
       id="path7047"
       inkscape:connector-curvature="0" />
  </g>
</svg>
