<?xml version="1.0" encoding="UTF-8" standalone="no"?>
<!-- Created with Inkscape (http://www.inkscape.org/) -->

<svg
   xmlns:dc="http://purl.org/dc/elements/1.1/"
   xmlns:cc="http://creativecommons.org/ns#"
   xmlns:rdf="http://www.w3.org/1999/02/22-rdf-syntax-ns#"
   xmlns:svg="http://www.w3.org/2000/svg"
   xmlns="http://www.w3.org/2000/svg"
   xmlns:sodipodi="http://sodipodi.sourceforge.net/DTD/sodipodi-0.dtd"
   xmlns:inkscape="http://www.inkscape.org/namespaces/inkscape"
   width="75mm"
   height="120mm"
   viewBox="0 0 75 120"
   version="1.1"
   id="svg8"
   inkscape:version="0.92.4 (5da689c313, 2019-01-14)"
   sodipodi:docname="yanagi6.svg">
  <defs
     id="defs2" />
  <sodipodi:namedview
     id="base"
     pagecolor="#ffffff"
     bordercolor="#666666"
     borderopacity="1.0"
     inkscape:pageopacity="0.0"
     inkscape:pageshadow="2"
     inkscape:zoom="0.98994949"
     inkscape:cx="-38.22285"
     inkscape:cy="309.71989"
     inkscape:document-units="mm"
     inkscape:current-layer="layer1"
     showgrid="false"
     units="mm"
     inkscape:window-width="1920"
     inkscape:window-height="1017"
     inkscape:window-x="-8"
     inkscape:window-y="-8"
     inkscape:window-maximized="1" />
  <metadata
     id="metadata5">
    <rdf:RDF>
      <cc:Work
         rdf:about="">
        <dc:format>image/svg+xml</dc:format>
        <dc:type
           rdf:resource="http://purl.org/dc/dcmitype/StillImage" />
        <dc:title />
      </cc:Work>
    </rdf:RDF>
  </metadata>
  <g
     inkscape:label="Calque 1"
     inkscape:groupmode="layer"
     id="layer1"
     transform="translate(0,-176.99999)">
    <g
       id="g767"
       transform="translate(1.7008929,-3.0238096)">
      <path
         style="fill:#ff2a2a;stroke-width:0.26458335"
         d="m 40.068937,273.31937 c -0.771512,-16.59509 -0.108194,-33.23113 -0.646626,-49.82927 -0.769019,7.25407 -0.43135,14.61734 -0.58105,21.91595 -0.165375,9.23658 0.07578,18.51477 -0.767695,27.71809 -0.718931,-0.54525 -0.12324,-5.95763 -0.334177,-8.28691 -0.1202,-20.19337 0.03012,-40.39066 -0.302141,-60.58153 -0.561826,7.95212 -0.768233,15.97627 -1.007696,23.9627 -0.34835,14.76858 -0.188878,29.55364 -0.899716,44.31082 -0.809926,2.91153 -0.65582,-5.12397 -0.737357,-6.50021 0.03193,-16.93151 0.256195,-33.87066 0.907043,-50.7898 0.428337,-4.15545 0.312842,-8.55202 1.624659,-12.50078 -0.18703,2.41787 0.470322,-0.66803 0.909964,1.10404 0.147845,-3.80035 1.19506,-0.68608 2.120879,0.99902 0.01859,4.07727 1.277447,8.05793 1.551336,12.13335 1.449846,11.31514 1.015231,22.75656 1.359335,34.13459 -0.06934,7.13967 0.142187,14.33301 -0.697558,21.42681 -0.659653,-3.23093 -0.129456,-7.65951 -0.333019,-11.34196 -0.160795,-10.88595 0.100818,-21.79049 -0.43975,-32.66308 -0.349695,-4.93822 -0.772468,-9.87598 -1.167876,-14.80593 -0.938937,1.67723 0.250687,6.63437 -0.02475,9.51892 0.259739,16.79533 0.29464,33.5998 -0.06957,50.39334 0.232946,1.06451 -0.764728,0.0548 -0.464235,-0.31816 z m -0.418825,-51.81365 c -0.171169,-4.48097 -1.024659,2.35201 -0.06547,1.2146 l 0.04789,-0.54684 z M 39.107605,203.3299 c -1.071137,-3.38712 0.318338,3.62035 0.121157,0.5548 z m -7.057967,66.41817 c -0.321143,-12.34406 -0.25169,-24.70798 0.156563,-37.04873 0.702329,-7.9104 1.083574,-15.87822 2.541701,-23.70215 0.439151,-1.102 1.184723,-5.32779 0.03597,-2.01087 -1.84301,7.26607 -3.160062,14.70409 -3.298752,22.21301 -0.888778,4.35887 -0.696985,8.96949 -1.044515,13.43124 -0.480012,9.9776 -0.09738,19.98352 -0.557395,29.95376 -1.296453,-5.04956 -1.059569,-10.41506 -1.168374,-15.61486 0.0089,-11.75895 0.555936,-23.53063 1.66622,-35.23054 0.565429,-4.44376 1.423584,-8.84222 2.873879,-13.0892 0.121647,-1.91013 2.300285,-4.51744 2.108966,-5.83604 -2.170739,2.95479 -3.157586,6.30888 -4.225432,9.78654 -2.653063,11.7342 -3.636572,23.77573 -4.372134,35.7607 -0.423745,7.81448 -0.0084,15.64603 -0.126657,23.45724 -1.327109,-0.42482 -0.793108,-5.88088 -1.055473,-8.27085 -0.05666,-13.29097 0.471314,-26.61913 2.297784,-39.79166 0.423556,-3.53533 1.298463,-7.08315 1.913117,-10.53897 -1.653612,2.34658 -1.587972,6.08958 -2.440697,9.00268 -3.273668,15.2228 -3.010827,30.85428 -3.417581,46.33149 0.08927,1.83917 -0.412124,3.9366 -0.563412,0.90527 -0.988134,-15.27538 -0.106039,-30.67532 2.291542,-45.78401 0.57817,-3.66343 2.239204,-7.57155 2.369254,-11.02994 -1.179105,3.00259 -1.967707,5.86814 -2.65463,9.07418 -2.061033,9.17734 -2.890246,18.60012 -3.387814,27.97825 -0.179459,6.98097 0.123328,13.97827 -0.268397,20.9493 -1.600395,-1.15312 -1.009113,-6.23529 -1.347139,-8.88576 -0.129943,-6.66385 -0.125945,-13.34028 0.815696,-19.95118 1.215501,-10.23564 2.314114,-20.65841 5.98487,-30.35864 -1.542505,1.26929 -2.528014,5.65323 -3.36005,8.27428 -2.328414,8.94555 -3.973501,18.17354 -4.192562,27.40164 -0.973851,2.21461 -0.353841,6.80882 -0.596179,9.84289 -0.02303,4.09956 -0.02953,8.19919 -0.04431,12.29878 -1.492112,-0.52906 -1.362394,-1.88509 -1.280291,-3.21683 -0.09302,-13.41701 0.535128,-26.90149 3.241837,-40.07323 0.986767,-6.57183 3.303615,-12.99132 6.790749,-18.6336 -1.912913,0.58945 -2.661988,4.66085 -3.960894,6.4346 -2.832267,6.33062 -4.173886,13.18243 -5.271357,20.00378 -1.876068,10.51338 -2.17199,21.21554 -2.327374,31.86677 -1.23019,2.66411 -1.196248,-4.63336 -1.130512,-5.97268 0.06544,-11.01934 1.517306,-21.99173 3.367204,-32.83806 1.155453,-6.45674 3.273588,-12.71819 6.585487,-18.39747 1.165443,-3.40736 -2.157422,2.48014 -2.553161,3.44519 -5.27003,10.50162 -6.691829,22.36385 -8.163807,33.87341 -0.717361,5.87033 -0.47301,11.82447 -1.17746,17.6819 -1.616881,-2.33927 -0.225929,-6.74533 -0.548421,-9.83644 0.318194,-10.7831 2.110677,-21.50028 4.658308,-31.96675 1.989871,-7.60591 5.855036,-15.33628 12.674081,-19.65505 1.269876,-0.79096 5.117118,-2.15164 1.75399,-0.38814 -1.262434,2.00195 5.509379,-2.35864 2.716355,-0.3187 2.066573,-0.28266 -1.978698,3.98597 0.493956,1.70994 2.23068,-2.26959 0.355102,1.37472 0.851174,1.85576 0.497274,-1.76826 1.794545,-4.44318 0.823055,-0.94496 -1.9164,7.73971 -2.055971,15.77013 -2.764527,23.67706 -0.97385,14.7643 -0.511015,29.57643 -1.075296,44.35508 -0.276686,2.50188 -0.631589,-1.92183 -0.637162,-2.17943 z m 12.349663,-7.56266 c -0.04846,-14.80716 -0.330474,-29.63969 -1.651212,-44.39348 -0.418348,-4.12725 -1.551156,-8.14024 -2.197666,-12.22367 2.025668,5.47261 3.047988,11.42981 3.734909,17.26519 1.456311,14.08905 1.012731,28.27986 1.117272,42.4211 -0.03418,1.63598 0.1064,6.82994 -0.84542,5.95088 -0.152828,-3.00369 -0.141891,-6.01324 -0.157883,-9.02002 z m -8.453356,9.32656 c 0.338024,-0.47459 0.337973,0.47461 0,0 z m 13.899293,-1.6512 c -0.791549,-8.14418 -0.231528,-16.35694 -0.885828,-24.51717 -0.482096,-9.9437 -1.557453,-19.86576 -3.341835,-29.65871 -0.38857,-2.13023 -1.676316,-7.17338 -2.376932,-7.13522 2.536982,8.93262 3.632499,18.18274 4.174435,27.43068 0.799406,10.16007 0.595824,20.37752 0.661845,30.56401 0.343761,1.67793 -0.595468,7.17721 -1.093533,2.68695 -0.74155,-19.02633 0.472256,-38.32508 -3.691735,-57.04741 -0.585564,-2.92599 -2.607186,-6.85247 -2.954357,-8.95649 0.987789,1.5261 2.352553,3.00754 0.864521,0.45115 -1.795122,-2.81885 0.635665,0.0555 1.249174,1.35343 5.040121,8.427 5.805857,18.43843 6.982294,27.9664 0.935055,9.42832 1.206104,18.9114 1.308192,28.37991 -0.199443,2.92781 0.193099,8.30975 -0.718665,9.70833 l -0.09686,-0.54146 z m 2.749214,0.65902 c -1.154216,-9.47974 -0.417848,-19.07034 -1.408869,-28.56724 -1.082168,-9.7701 -1.796731,-19.69263 -4.568339,-29.16581 -1.005379,-3.49314 -3.003562,-6.55815 -4.645662,-9.71394 -0.703646,-1.74474 -2.490909,-3.3369 0.430633,-2.03018 -2.371923,-3.00787 6.037494,2.79798 1.7693,-0.45387 2.436336,0.28875 -3.949428,-1.80474 -0.405481,-0.99931 1.611461,0.30544 2.249261,0.65417 0.71607,-0.43159 2.842188,0.26679 6.138042,2.38556 8.282684,2.92985 -1.337212,-0.88569 -3.836883,-2.65987 -0.867775,-1.14626 2.729068,1.15315 5.220503,3.30499 7.331922,5.44078 2.52241,2.77008 4.183755,6.40447 5.549096,9.91457 0.928905,2.98929 -0.02222,1.05204 -0.997756,-0.11784 3.712226,10.51649 6.716236,21.45699 7.411086,32.64706 0.299533,1.59536 -1.033743,4.41556 -0.902642,1.15288 -0.643705,-7.18854 -1.587317,-14.40169 -3.526497,-21.36452 -0.656465,-2.46022 -1.634949,-5.29365 -2.47653,-7.87248 -1.823338,-5.11373 -4.252036,-10.31678 -8.186458,-14.0785 1.460258,2.90047 4.074389,5.37086 5.224959,8.56122 2.094727,3.978 3.269614,8.3989 4.512611,12.59764 2.108099,8.70242 3.068427,17.74853 3.348856,26.71236 -0.693408,2.77759 -1.094431,1.81603 -0.941969,-0.3252 -0.464048,-11.30849 -2.147525,-22.65607 -5.789519,-33.39492 -1.888858,-4.8535 -4.255343,-9.69287 -7.801261,-13.54902 1.024009,2.60599 4.082055,5.56164 4.913523,8.81015 2.705139,5.55825 3.840249,11.66131 5.238742,17.62703 0.520832,1.58275 0.622877,5.60463 1.183607,8.16375 0.361405,3.5228 1.00846,6.96087 0.872473,10.52445 0.04429,2.32469 0.878638,7.32884 -1.032027,7.71093 -0.173135,-13.08127 -1.4077,-26.31639 -5.573886,-38.77941 -1.860565,-4.93813 -4.087041,-9.87489 -7.560442,-13.89755 0.760127,2.28919 3.590359,5.5223 4.418361,8.56609 1.340589,2.88929 2.527833,6.0598 3.125315,9.00978 0.505454,3.11269 1.632004,6.1424 1.771494,8.11811 0.981442,5.52308 1.776423,11.07496 2.057455,16.68616 0.350958,4.22707 0.365909,8.47368 0.520767,12.71126 -1.155889,1.44335 -1.569781,1.12698 -1.361738,-0.66439 -0.246423,-11.52343 -1.192148,-23.08702 -3.532156,-34.36233 -1.136969,-4.0451 -2.605964,-8.02514 -4.223077,-11.89272 0.0057,-1.62804 -3.109691,-4.99475 -1.676582,-1.64652 1.508128,3.09161 2.641541,6.40385 3.562411,9.6912 2.089944,9.39351 3.774088,18.92274 3.796474,28.57752 0.01914,4.64287 0.318891,9.33329 -0.17331,13.94708 -1.801417,-0.22351 -0.465144,-5.88603 -0.951929,-8.32399 -0.21192,-8.5114 -0.967539,-17.01046 -2.104195,-25.44427 -1.00161,-5.90264 -2.381054,-11.7813 -5.069629,-17.17113 -0.758428,-2.72071 -1.799001,-1.8487 -0.608358,0.46414 2.760334,7.40558 4.315152,15.30171 5.329432,23.05379 0.762859,7.66191 1.288969,15.44858 1.231378,23.18929 -0.204309,1.50752 0.566321,6.9852 -0.959244,6.10196 -0.374755,-7.95741 -0.144133,-15.94873 -0.994229,-23.88657 -0.499694,-5.99018 -1.370641,-11.91838 -2.614844,-17.78961 -1.258169,-2.93604 -1.424947,-8.63387 -3.429237,-9.93206 2.136483,6.82988 3.390916,13.88741 4.299001,20.98041 1.421564,10.72927 1.370112,21.62245 0.639697,32.4026 -0.830313,1.19088 -0.357527,-3.9197 -0.514242,-4.88013 -0.104864,-13.28378 -0.515142,-26.68154 -3.656447,-39.65352 -1.508176,-6.44589 -3.106312,-13.09212 -6.711443,-18.72013 0.86117,2.77843 2.640327,5.92287 3.663912,8.91816 2.906032,11.67324 4.029939,23.72267 4.759579,35.70922 0.339663,6.62187 0.346986,13.30047 -0.300581,19.89173 -0.309488,0.18825 -0.387946,-0.429 -0.394484,-0.55616 z m -4.477673,-0.0661 c 0.337998,-0.47459 0.337998,0.47459 0,0 z M 22.187612,269.5276 c 0.281958,-0.72968 0.2415,0.70755 0,0 z m 26.19375,-0.66146 c 0.337997,-0.47458 0.337997,0.47458 0,0 z m 10.847917,-4.49792 c 0.338023,-0.47459 0.337972,0.47461 0,0 z m 2.38125,-1.85208 c 0.337998,-0.47459 0.337998,0.47459 0,0 z m -51.333248,-2.30201 c -1.0527316,-4.01216 -0.01195,-8.36024 -0.08405,-12.50091 0.264041,-7.00903 1.656757,-13.90878 3.040353,-20.76651 0.905992,-4.30104 2.368287,-8.48754 4.38806,-12.39031 0.681265,-2.75953 3.406502,-5.08246 4.16761,-7.70235 -2.522497,1.90697 -3.569539,5.26851 -5.235749,7.8464 -6.519546,12.75408 -7.3914528,27.37509 -7.8608789,41.42819 0.4849328,3.36564 -1.6710777,-0.86459 -1.2483405,-2.23087 0.1124973,-6.42747 0.8171694,-12.8322 1.7328166,-19.18402 1.1009238,-7.17332 2.8152288,-14.38037 6.1751038,-20.8516 0.955541,-1.88569 3.381448,-4.4694 3.437384,-6.0467 -6.456739,6.99695 -8.408648,16.61689 -10.4884155,25.59652 -1.1648578,6.46912 -1.4787855,13.02833 -2.0409881,19.56172 -1.3942616,-3.04137 -0.4359949,-6.5367 -0.3626347,-9.75358 0.9876565,-7.68558 2.0172537,-15.41091 4.2366853,-22.84931 1.453099,-3.52234 2.875362,-6.84604 5.240353,-9.86871 0.701397,-1.30387 3.776575,-5.25511 0.623626,-2.58614 -2.309617,2.11442 -3.214348,5.02647 -4.732924,7.31611 -4.3278191,8.61034 -5.4391435,18.34383 -6.4388063,27.79978 0.088167,1.60451 -0.3638151,6.46312 -0.9919023,2.35037 -0.00207,-5.78471 0.997605,-11.55719 2.1187262,-17.21932 1.1299291,-5.84691 3.0137756,-11.56374 6.1454694,-16.6585 -0.27369,-1.48963 -2.5270466,4.69895 -3.3767244,4.26579 1.1113052,-4.3073 4.1217804,-7.87896 6.9826224,-11.182 4.408268,-3.80239 9.991983,-6.99418 16.017963,-6.43422 1.693737,-0.23265 -1.001513,0.87462 1.260887,1.06739 -1.144973,0.10979 -5.581077,0.16318 -5.144544,0.90224 1.915851,-0.45231 3.85016,-0.36607 0.81905,0.42677 -1.536655,0.27804 -6.610375,3.54533 -2.736537,1.69833 2.047642,-1.64024 7.060764,-2.29645 2.94266,-0.183 -5.192461,3.30566 -8.157163,8.99603 -10.890178,14.31527 -2.657411,6.42249 -3.956175,13.33102 -5.29741,20.12549 -0.974031,7.34811 -1.403719,14.75059 -1.484781,22.16239 -0.06758,0.7151 0.11526,3.52094 -0.914506,1.54529 z m 3.443664,0.71451 c 0.337999,-0.47458 0.337999,0.47458 0,0 z m 47.889584,-0.52917 c 0.338023,-0.47459 0.337972,0.47461 0,0 z m 3.175,-1.71979 c 0.281964,-0.72968 0.241496,0.70755 0,0 z m -51.064584,-1.32291 c 0.281952,-0.72969 0.241504,0.70755 0,0 z m 40.216667,-0.66146 c 0.337997,-0.47458 0.337997,0.47458 0,0 z m -40.216667,-0.52917 c 0.337999,-0.47458 0.337999,0.47458 0,0 z m 2.910417,-0.26458 c 0.337997,-0.47458 0.337997,0.47458 0,0 z m 44.979167,-0.26459 c 0.338023,-0.47459 0.337972,0.47461 0,0 z m -37.041667,-5.29166 c 0.337997,-0.47458 0.337997,0.47458 0,0 z m 39.6875,-0.39688 c 0.281965,-0.72968 0.241498,0.70755 0,0 z m 0,-1.71979 c 0.337997,-0.47458 0.337997,0.47458 0,0 z m -50.00625,-0.39687 c 0.281956,-0.72968 0.241501,0.70755 0,0 z m 0.264583,-1.45521 c 0.337999,-0.47458 0.337999,0.47458 0,0 z m 21.960417,-2.11667 c 0.337997,-0.47458 0.337997,0.47458 0,0 z m 27.516667,-0.52917 c 0.338023,-0.47459 0.337972,0.47461 0,0 z m 2.38125,0 c 0.338023,-0.47459 0.337972,0.47461 0,0 z m -2.645834,-1.85208 c 0.337999,-0.47458 0.337999,0.47458 0,0 z m -2.910416,-0.79375 c 0.337998,-0.47459 0.337998,0.47459 0,0 z m 5.291666,-0.26458 c 0.337999,-0.47458 0.337999,0.47458 0,0 z m -48.154166,-0.79375 c 0.337998,-0.47459 0.337998,0.47459 0,0 z m 45.508333,0 c 0.337997,-0.47458 0.337997,0.47458 0,0 z m -0.529167,-2.91042 c 0.337999,-0.47458 0.337999,0.47458 0,0 z m 2.645834,0 c 0.337998,-0.47459 0.337998,0.47459 0,0 z m -49.741667,-0.26458 c 0.337997,-0.47458 0.337997,0.47458 0,0 z m 2.38125,0 c 0.337997,-0.47458 0.337997,0.47458 0,0 z m 41.804167,-1.05834 c 0.338023,-0.47459 0.337972,0.47461 0,0 z m -49.477084,-1.05833 c 0.337999,-0.47458 0.337999,0.47458 0,0 z m 48.947917,-1.5875 c 0.337997,-0.47458 0.337997,0.47458 0,0 z m 7.408333,-1.5875 c 0.337999,-0.47458 0.337999,0.47458 0,0 z m -35.454166,-0.26458 c 0.337972,-0.47461 0.338023,0.47459 0,0 z m 37.041666,-1.19063 c 0.281959,-0.72968 0.241502,0.70755 0,0 z m -31.75,-0.66146 c 0.337999,-0.47458 0.337999,0.47458 0,0 z m 31.770889,-0.55121 c 0.257317,-0.93814 0.164514,1.14844 0,0 z m -7.429222,-1.83004 c 0.337997,-0.47458 0.337997,0.47458 0,0 z m -0.264583,-2.11666 c 0.337972,-0.47461 0.338023,0.47459 0,0 z m -24.077084,-0.26459 c 0.337999,-0.47458 0.337999,0.47458 0,0 z m 25.4,-2.91041 c 0.337973,-0.47461 0.338024,0.47459 0,0 z m -7.9375,-0.79375 c 0.337973,-0.47461 0.338024,0.47459 0,0 z m 11.641667,0 c 0.337971,-0.47461 0.338022,0.47459 0,0 z m -6.879167,-1.32292 c 0.337999,-0.47458 0.337999,0.47458 0,0 z m -26.458333,-0.26458 c 0.337971,-0.47461 0.338022,0.47459 0,0 z m 32.808333,0 c 0.337973,-0.47461 0.338024,0.47459 0,0 z m -9.260416,-0.52917 c 0.337998,-0.47459 0.337998,0.47459 0,0 z m -23.283334,-1.32292 c 0.337999,-0.47458 0.337999,0.47458 0,0 z m -10.847916,-4.49791 c 0.337972,-0.47461 0.338023,0.47459 0,0 z m 18.785416,-11.1125 c 0.337973,-0.47461 0.338024,0.47459 0,0 z m -4.674306,-0.52917 c 0.562759,-1.35879 0.437153,1.31378 0,0 z m -2.734027,-0.26458 c 0.337971,-0.47461 0.338022,0.47459 0,0 z m -1.852083,-0.52917 c 0.337998,-0.47459 0.337998,0.47459 0,0 z m -0.705557,-0.30868 c 0.811269,-0.31183 0.08599,0.59603 0,0 z m 7.69175,-0.12908 c -0.121572,-0.71339 0.939074,1.00639 0,0 z m 9.537157,-0.49257 c -1.191635,-0.60241 -6.104762,-1.11019 -5.075998,-1.22167 1.210853,0.0958 6.535144,0.64909 2.5841,-0.17213 -2.186765,0.0967 -3.245413,-0.8953 -0.515008,-0.78676 -0.508784,-0.75368 -2.902697,0.56783 -3.049842,0.35794 -2.271464,-0.11722 -2.8333,0.0686 -0.390072,-0.81176 2.962235,-1.0441 7.689019,0.46984 8.691866,2.91935 -0.727166,0.55806 -1.520391,-0.14534 -2.245046,-0.28497 z m -11.76085,-0.0113 c 0.537912,-0.58065 0.599027,0.88536 0,0 z m 2.645833,-0.64584 c 0.337997,-0.47458 0.337997,0.47458 0,0 z m -0.97014,-0.30868 c 0.81127,-0.31183 0.08599,0.59603 0,0 z m 1.300869,-0.53516 c 2.134963,-0.18813 0.267462,0.40283 0,0 z m -4.349088,-0.26294 c 1.626935,-0.26534 -0.491537,0.51181 0,0 z m -0.347266,-0.63007 c -1.394607,-0.47512 -2.888242,-0.97166 -0.552265,-0.64035 1.609736,-0.27127 4.973903,2.35171 1.401456,0.93902 L 34.923,197.43336 Z m -6.218026,-0.0164 c 1.093648,-0.98062 5.924847,0.006 5.140694,0.47026 -2.109718,0.0571 -4.220698,0.0394 -6.331001,0.0596 0.396765,-0.17663 0.793557,-0.35324 1.190307,-0.52988 z m 9.260734,0.43038 c 0.337999,-0.47458 0.337999,0.47458 0,0 z m -5.291666,-1.99999 c 0.537912,-0.58065 0.599027,0.88536 0,0 z m 0.79375,-0.38126 c 0.337998,-0.47459 0.337998,0.47459 0,0 z"
         id="path771"
         inkscape:connector-curvature="0" />
      <path
         style="fill:#ffaaaa;stroke-width:0.26458335"
         d="m 38.140566,204.99025 c 1.365541,1.66951 0.834455,6.35339 1.245486,9.25142 0.201959,12.5123 -0.832243,-5.63695 -1.245486,-9.25142 z m 25.586629,11.75297 c 0.337999,-0.47458 0.337999,0.47458 0,0 z m 0.529167,0 c 0.337997,-0.47458 0.337997,0.47458 0,0 z m -13.83919,-0.8673 c -1.788932,-5.6636 -5.229455,-10.67576 -9.477556,-14.77624 0.110594,-1.50162 1.394396,1.84738 1.210815,0.004 2.253509,1.38739 5.143743,4.38717 5.842252,5.8993 -1.38157,-0.96622 -5.83796,-5.96602 -2.799042,-2.15165 2.562273,3.42668 5.05489,7.13172 6.147874,11.30496 -0.526717,-0.14994 -0.828275,0.78279 -0.924343,-0.28031 z m -7.327477,-13.68478 c -0.337998,-0.47459 -0.337998,0.47459 0,0 z m 20.240625,13.09687 c -1.526377,-2.66879 -3.01544,-5.52986 -5.111466,-7.86113 2.404992,0.71479 3.89685,5.12482 5.433364,7.56213 0.677293,0.67034 0.07795,1.95851 -0.321898,0.299 z m 1.190625,0.66146 c 0.337999,-0.47458 0.337999,0.47458 0,0 z m -0.529166,-1.32291 c 0.337972,-0.47461 0.338023,0.47459 0,0 z m -12.584195,-1.25673 c -0.473465,-1.51514 -3.476347,-4.96923 -2.603535,-5.65917 1.049542,1.37453 3.382717,4.5394 2.603535,5.65917 z m 12.055028,0.19843 c 0.337997,-0.47458 0.337997,0.47458 0,0 z m -35.171883,-0.44101 c -0.320459,-3.00993 2.259416,-6.10921 3.91543,-8.6499 1.154435,-2.23565 -2.423514,2.00994 -2.804198,3.0544 -0.591617,1.88196 -3.816383,5.90772 -1.600676,1.61699 1.202467,-2.72975 3.652536,-4.83889 4.992309,-7.31964 1.769788,-0.76941 2.988145,-0.11221 1.025337,1.94304 2.297127,-1.16206 -2.119092,2.92316 -1.837416,4.23373 -0.749057,0.96412 -1.593494,5.83673 -2.394393,4.64959 0.429352,-2.62944 2.277382,-5.42255 2.992921,-7.5077 -2.313847,2.05866 -3.074942,5.54761 -4.289314,7.97949 z m 5.043133,-8.88559 c 0.750653,-1.17913 -1.504759,1.5129 0,0 z m 0.264584,-1.5875 c 0.750647,-1.17911 -1.504761,1.51287 0,0 z m 6.468374,10.18646 c -0.02889,-2.37993 -1.037344,-5.98995 -0.657683,-7.68904 0.410002,2.24854 1.814129,6.75747 0.820467,8.10944 l -0.162784,-0.42044 z m -12.587541,0.19844 c 0.337972,-0.47461 0.338023,0.47459 0,0 z m 25.664583,0 c 0.337971,-0.47461 0.338022,0.47459 0,0 z m -22.225,-0.26459 c 0.337997,-0.47458 0.337997,0.47458 0,0 z m 32.279167,0 c 0.337998,-0.47459 0.337998,0.47459 0,0 z m -36.5125,-0.26458 c 0.337998,-0.47459 0.337998,0.47459 0,0 z m 26.05795,-0.7276 c -1.101808,-2.18951 -3.76893,-5.06636 -4.280779,-6.64755 1.885227,2.00204 5.088463,4.98416 5.226,7.24286 l -0.492213,-0.17487 z m 10.189966,0.46302 c 0.337973,-0.47461 0.338024,0.47459 0,0 z m -35.983333,-0.26457 c 0.337997,-0.47458 0.337997,0.47458 0,0 z m 4.233333,-0.26458 c 0.337999,-0.47458 0.337999,0.47458 0,0 z m 31.485417,0 c 0.337997,-0.47458 0.337997,0.47458 0,0 z m -50.348877,-0.83827 c 1.416802,-3.42382 4.586179,-5.92675 7.376353,-8.28444 3.412457,-2.55397 7.740639,-4.42275 12.065626,-3.97812 2.910122,1.76442 -3.685885,-0.52491 -5.151343,1.12459 -5.558407,1.79182 -10.048359,5.90172 -13.439283,10.50707 -0.198376,-0.15994 -0.485264,0.88 -0.851353,0.6309 z m 19.392627,-12.12631 c -0.337971,-0.47461 -0.338022,0.47459 0,0 z m -15.345833,11.90623 c 0.337972,-0.47461 0.338023,0.47459 0,0 z m 15.08125,0 c 0.337972,-0.47461 0.338023,0.47459 0,0 z m -17.727084,-0.23219 c 1.594702,-1.90735 0.50872,0.17768 0,0 z m 48.154167,-0.0324 c 0.337997,-0.47458 0.337997,0.47458 0,0 z m -46.010938,-0.58328 c 1.516951,-1.8713 -0.879557,1.58964 0,0 z m 10.292188,0.0541 c 0.337971,-0.47461 0.338022,0.47459 0,0 z m 5.55625,0 c 0.337971,-0.47461 0.338022,0.47459 0,0 z m -6.085417,-0.26459 c 0.337999,-0.47458 0.337999,0.47458 0,0 z m 6.35,-0.39687 c 0.281963,-0.72968 0.241498,0.70755 0,0 z m 8.73125,0.13229 c 0.337999,-0.47458 0.337999,0.47458 0,0 z m 20.479943,-0.17317 c -0.121588,-0.71342 0.939082,1.00637 0,0 z m -48.790359,-0.62058 c 2.230723,-2.34121 -1.628063,2.22566 0,0 z m 2.513541,0.39687 c 0.901422,-0.89983 -0.307772,0.86422 0,0 z m 3.66316,-0.21927 c 0.776816,-2.53618 3.718397,-5.01902 5.641354,-5.73561 -1.708167,1.84215 -4.546592,4.52619 -5.641354,5.73561 z m 7.44934,0.21927 c 0.90142,-0.89983 -0.307777,0.86422 0,0 z m -9.657291,-0.23477 c 0.633654,-1.41551 1.667059,-0.55764 0,0 z m 1.322916,0.10248 c 0.337999,-0.47458 0.337999,0.47458 0,0 z m 8.995834,0 c 0.337998,-0.47459 0.337998,0.47459 0,0 z m -5.55625,-0.26458 c 0.337998,-0.47459 0.337998,0.47459 0,0 z m 1.984375,-0.13229 c 0.901422,-0.89985 -0.30776,0.86421 0,0 z m 9.128125,0.13229 c 0.337998,-0.47459 0.337998,0.47459 0,0 z m 20.479943,-0.17317 c -0.121588,-0.71342 0.93908,1.00637 0,0 z M 18.08657,208.14426 c 0.901422,-0.89983 -0.307773,0.86422 0,0 z m 4.365625,0.1323 c 0.337973,-0.47461 0.338024,0.47459 0,0 z m 3.96875,0 c 0.337973,-0.47461 0.338024,0.47459 0,0 z m 0.661459,-0.1323 c 0.901419,-0.89983 -0.307774,0.86422 0,0 z m 33.171458,-0.19843 c -0.813859,-1.21366 1.609925,1.53387 0,0 z m -38.86,0.0661 c 0.337997,-0.47458 0.337997,0.47458 0,0 z m 20.722029,-1.63486 c -0.422043,-1.37842 -1.333831,-3.21612 -0.155988,-2.92894 0.04098,-2.49825 4.744684,5.38088 1.717336,1.88655 -1.466225,-0.4978 -0.470925,-2.2378 -1.795026,-0.9741 0.271661,1.24453 2.229942,5.75231 0.233678,2.01649 z m 1.238388,-1.54014 c -0.337999,-0.47458 -0.337999,0.47458 0,0 z m -19.84375,2.91042 c 0.337998,-0.47459 0.337998,0.47459 0,0 z m 1.058333,0 c 0.337997,-0.47458 0.337997,0.47458 0,0 z m 0.79375,0 c 0.337997,-0.47458 0.337997,0.47458 0,0 z m 1.322917,0 c 0.337998,-0.47459 0.337998,0.47459 0,0 z m -13.49375,-0.23219 c 1.594774,-1.90741 0.508672,0.17768 0,0 z m 3.042708,-0.16469 c 0.901421,-0.89983 -0.307774,0.86422 0,0 z m 16.536458,0.1323 c 0.337973,-0.47461 0.338024,0.47459 0,0 z m 21.43125,0 c 0.337973,-0.47461 0.338024,0.47459 0,0 z m -36.678393,-0.50835 c 1.338055,-3.39891 5.560861,-5.38815 8.940624,-6.61362 1.653448,-0.005 -2.932993,1.77783 -3.858627,2.75091 -1.875895,0.91382 -3.143309,3.40429 -5.081997,3.86271 z m 4.330227,0.0601 c 0.593942,-2.77951 4.237711,-4.57944 6.291001,-5.60017 3.076753,-0.88475 -2.472416,1.76333 -3.162047,2.68641 -1.18747,0.67587 -2.051916,2.50481 -3.128954,2.91376 z m 1.763526,0.0105 c -0.101833,-0.69901 0.883774,0.98197 0,0 z m 1.924245,0.13187 c 0.594842,-2.40911 5.59993,-6.25083 6.406772,-4.60185 -0.990002,0.94419 -5.512044,6.05612 -2.965456,2.29593 0.776676,-0.82919 2.734152,-3.16894 0.428275,-1.20282 -1.494869,0.94427 -2.479147,2.48465 -3.869591,3.50874 z m 5.906229,-4.72121 c -0.337999,-0.47458 -0.337999,0.47458 0,0 z m 0.79375,-0.26458 c -0.337999,-0.47458 -0.337999,0.47458 0,0 z m 27.516666,5.02708 c 0.337999,-0.47458 0.337999,0.47458 0,0 z M 21.129279,206.9536 c 0.337998,-0.47459 0.337998,0.47459 0,0 z m 6.35,0 c 0.337998,-0.47459 0.337998,0.47459 0,0 z m 5.291666,0 c 0.337999,-0.47458 0.337999,0.47458 0,0 z m 7.408334,0 c 0.337998,-0.47459 0.337998,0.47459 0,0 z m 1.322916,-0.13229 c 0.28196,-0.72968 0.241501,0.70755 0,0 z m 1.852084,0.13229 c 0.337998,-0.47459 0.337998,0.47459 0,0 z m 1.852083,0 c 0.337997,-0.47458 0.337997,0.47458 0,0 z m 4.736412,-1.68972 c -0.887707,-1.12484 -4.743243,-3.38934 -4.007548,-3.66069 1.887064,1.18938 6.088988,4.06859 5.960389,5.33891 -0.682095,-0.52192 -1.31899,-1.09975 -1.952841,-1.67822 z m 2.784472,0.56007 c -1.170613,-1.21231 -5.937241,-4.71163 -1.855541,-2.22735 1.246763,0.59617 5.560167,5.389 1.855541,2.22735 z m -28.290676,0.73277 c 0.901422,-0.89983 -0.307773,0.86422 0,0 z m 10.186459,0.1323 c 0.337972,-0.47461 0.338023,0.47459 0,0 z m 2.9718,-0.66146 c 0.144496,-1.9437 0.162844,1.9211 0,0 z m 17.105807,-0.15769 c -1.274167,-1.81433 -4.942556,-3.34407 -5.473052,-4.60481 2.217779,1.06919 6.24659,3.98796 6.340117,5.23934 l -0.403835,-0.27171 z m 1.880005,-0.25288 c -1.062358,-0.94973 -5.220431,-4.10333 -3.530336,-3.96059 0.752744,1.58293 4.980671,3.68471 4.398854,4.73417 l -0.399352,-0.3233 z m -3.701362,-3.95506 c -0.337999,-0.47458 -0.337999,0.47458 0,0 z m 6.051666,4.69636 c -0.759617,-1.10653 1.73987,1.45487 0,0 z m -44.393498,-0.4943 c 2.225479,-2.23106 -1.736642,2.18495 -0.129419,0.16717 l 0.127323,-0.16446 z m 19.556415,0.31147 c 0.567742,-1.8522 0.29666,1.39611 0,0 z m -10.054167,-0.0156 c 0.337999,-0.47458 0.337999,0.47458 0,0 z m 10.847917,0 c 0.337997,-0.47458 0.337997,0.47458 0,0 z m 1.5875,-0.13229 c 0.28196,-0.72968 0.241501,0.70755 0,0 z m 4.056944,0.0882 c 0.81127,-0.31183 0.08598,0.59603 0,0 z m 0.705556,0.0441 c 0.337997,-0.47458 0.337997,0.47458 0,0 z m 2.38125,0 c 0.337997,-0.47458 0.337997,0.47458 0,0 z M 25.23032,205.76301 c 0.901422,-0.89983 -0.307773,0.86422 0,0 z m 10.186459,0.1323 c 0.337972,-0.47461 0.338023,0.47459 0,0 z m 7.408333,0 c 0.337971,-0.47461 0.338022,0.47459 0,0 z m -2.963942,-0.735 c 0.137105,-2.26372 0.658486,1.60941 0,0 z m 3.493109,0.47041 c 0.337998,-0.47459 0.337998,0.47459 0,0 z m 14.816666,0 c 0.337999,-0.47458 0.337999,0.47458 0,0 z m -22.754166,-0.26458 c 0.337998,-0.47459 0.337998,0.47459 0,0 z m 22.313193,-0.30868 c 0.81127,-0.31183 0.08599,0.59603 0,0 z m -31.57361,-0.22049 c 0.337997,-0.47458 0.337997,0.47458 0,0 z m 7.805208,-0.13229 c 0.901418,-0.89983 -0.307766,0.8642 0,0 z m 0.661459,0.13229 c 0.337998,-0.47459 0.337998,0.47459 0,0 z m 1.058333,0 c 0.337997,-0.47458 0.337997,0.47458 0,0 z m 0.529167,0 c 0.337998,-0.47459 0.337998,0.47459 0,0 z m 1.246322,-0.39661 c 0.07401,-2.52862 0.635566,2.13569 0,0 z m 3.251594,0.39661 c 0.337999,-0.47458 0.337999,0.47458 0,0 z m -24.499224,-0.43775 c -0.121584,-0.71342 0.939079,1.00637 0,0 z m 31.113808,0.0253 c 0.537912,-0.58065 0.599027,0.88536 0,0 z m 9.789583,0.14791 c 0.337997,-0.47458 0.337997,0.47458 0,0 z m -30.427083,-0.26458 c 0.337972,-0.47461 0.338023,0.47459 0,0 z m 8.304609,-0.17529 c 1.106519,-1.23324 0.60225,0.41717 0,0 z m 0.955807,0.0274 c 0.537918,-0.58067 0.599027,0.88537 0,0 z m 0.79375,0.0156 c 0.281963,-0.72968 0.241498,0.70755 0,0 z m 1.599629,-0.28725 c 1.110934,-1.42148 -0.36277,1.67675 0,0 z m 0.517038,0.41955 c 0.337971,-0.47461 0.338022,0.47459 0,0 z m 1.308965,-0.83045 c -1.084038,-3.30058 1.387526,2.77298 0,0 z m -23.533965,0.28582 c 0.785427,-0.98327 1.778801,-0.13053 0,0 z m 10.715625,-0.11683 c 0.901419,-0.89985 -0.30776,0.86421 0,0 z m 11.773958,0 c 0.633635,-1.05707 0.421977,0.98397 0,0 z m -3.422811,-0.62771 c -1.975568,0.46377 1.535839,-2.01366 0.06374,0.27138 l -0.06374,-0.27139 z m 0.512395,0.0985 c 0.712393,-1.06625 0.623532,1.03012 0,0 z m 0.79375,0.0156 c 0.644958,-1.41271 0.287727,0.95708 0,0 z m 0.61736,0.0726 c 0.811267,-0.31183 0.08599,0.59603 0,0 z m 17.745916,-0.12908 c -0.121572,-0.71339 0.939074,1.00639 0,0 z m -14.774391,-0.41072 c -0.175387,-1.10925 0.738701,1.13842 0,0 z m -22.24201,-0.0776 c 0.90142,-0.89983 -0.307773,0.86422 0,0 z m 20.046852,-0.11036 c 1.051846,-1.83506 0.222656,0.72123 0,0 z m 0.590648,0.11036 c 0.901418,-0.89983 -0.307773,0.86422 0,0 z m 15.147395,-0.15133 c -2.273453,-1.76187 2.541688,1.22102 0,0 z m -29.567187,0.019 c 0.337997,-0.47458 0.337997,0.47458 0,0 z m 0.79375,0 c 0.337997,-0.47458 0.337997,0.47458 0,0 z m 11.261802,-0.20985 c 0.999727,-1.31775 -0.335122,1.21032 0,0 z m -10.732635,-0.0547 c 0.337998,-0.47459 0.337998,0.47459 0,0 z m 3.439583,0 c 0.337997,-0.47458 0.337997,0.47458 0,0 z m -10.31875,-0.26458 c 0.337971,-0.47461 0.338022,0.47459 0,0 z m 21.695833,0 c 0.337973,-0.47461 0.338024,0.47459 0,0 z m 7.14375,0 c 0.337973,-0.47461 0.338024,0.47459 0,0 z m 3.54661,-0.17318 c -0.121572,-0.71339 0.939074,1.00639 0,0 z m -31.724735,-0.2237 c 0.901422,-0.89983 -0.307764,0.8642 0,0 z m 25.267709,0.1323 c 0.337998,-0.47459 0.337998,0.47459 0,0 z m -18.520834,-0.26458 c 0.337999,-0.47458 0.337999,0.47458 0,0 z m 3.342079,-0.0534 c 0.218881,-1.78108 0.03668,0.0535 1.155842,-0.46034 -0.298871,0.23168 -0.724315,0.63297 -1.155842,0.46034 z m 1.155838,0.0534 c 0.337997,-0.47458 0.337997,0.47458 0,0 z m 0.627512,-0.20999 c 0.495304,-0.75098 1.551098,0.36932 0,5e-5 z m 12.866238,0.20999 c 0.337997,-0.47458 0.337997,0.47458 0,0 z m 6.35,0 c 0.337997,-0.47458 0.337997,0.47458 0,0 z m 1.190625,-0.13229 c 0.901419,-0.89985 -0.30776,0.86421 0,0 z m -31.028695,-0.41771 c 0.98343,-0.88445 0.33529,0.29205 -0.309347,0.35963 z m 24.017237,0.28542 c 0.337972,-0.47461 0.338023,0.47459 0,0 z m 1.146527,-0.0441 c 0.81127,-0.31183 0.08598,0.59603 0,0 z m 1.367014,-0.25364 c -1.65052,-0.97805 -3.454344,0.36584 -1.550007,-1.23597 0.337939,0.48148 4.509076,2.22267 1.550007,1.23597 z m 2.778125,0.29774 c 0.337973,-0.47461 0.338024,0.47459 0,0 z M 27.743862,200.8682 c 0.337997,-0.47458 0.337997,0.47458 0,0 z m 15.610417,0 c 0.337998,-0.47459 0.337998,0.47459 0,0 z m 0.926041,-0.13229 c 0.06983,-0.9703 0.794179,0.89131 0,0 z m 5.423959,0.13229 c 0.337998,-0.47459 0.337998,0.47459 0,0 z m -21.43125,-0.26458 c 0.337998,-0.47459 0.337998,0.47459 0,0 z m 3.175,0 c 0.337998,-0.47459 0.337998,0.47459 0,0 z m 8.995833,0 c 0.337997,-0.47458 0.337997,0.47458 0,0 z m 1.408594,-0.20772 c -0.26166,-0.90184 2.116942,0.89735 0,0 z m 7.322656,0.20772 c 0.337997,-0.47458 0.337997,0.47458 0,0 z m 1.852083,0 c 0.337999,-0.47458 0.337999,0.47458 0,0 z m -29.104166,-0.26458 c 0.337972,-0.47461 0.338023,0.47459 0,0 z m 6.614583,-0.1323 c -0.373222,-1.01606 1.602603,0.71851 0,0 z m 2.20486,0.0882 c 0.811269,-0.31183 0.08599,0.59603 0,0 z m 17.63889,0.0441 c 0.337971,-0.47461 0.338022,0.47459 0,0 z m 2.116667,0 c 0.337972,-0.47461 0.338023,0.47459 0,0 z m -28.045834,-0.26459 c 0.337999,-0.47458 0.337999,0.47458 0,0 z m 7.276042,-0.13229 c 0.811332,-0.85067 0.0836,0.91168 0,0 z m 14.155208,0.13229 c 0.337999,-0.47458 0.337999,0.47458 0,0 z m 3.96875,0 c 0.337999,-0.47458 0.337999,0.47458 0,0 z m -4.497916,-0.39689 c 0.281952,-0.72969 0.241504,0.70755 0,0 z m 1.058333,0.13229 c 0.337997,-0.47458 0.337997,0.47458 0,0 z m 2.38125,0 c 0.337997,-0.47458 0.337997,0.47458 0,0 z m 1.79016,-0.2434 c -1.640359,-0.0521 -2.342915,-1.27644 0.228052,-0.40683 1.624949,1.04496 0.976638,-0.1965 1.222938,-0.0449 1.526321,1.02062 -1.233169,0.92023 -1.45099,0.45176 z m -25.073493,-0.0212 c 0.337972,-0.47461 0.338023,0.47459 0,0 z m 5.291666,0 c 0.337973,-0.47461 0.338024,0.47459 0,0 z m 1.146527,-0.30868 c 0.811255,-0.31183 0.08601,0.59601 0,0 z m 14.678864,-0.004 c 1.626904,-0.26535 -0.491534,0.51184 0,0 z m -19.794141,-0.21613 c 0.337999,-0.47458 0.337999,0.47458 0,0 z m 20.769792,-0.13229 c 0.811325,-0.8507 0.08361,0.91169 0,0 z m -20.152431,-0.17639 c 0.811268,-0.31183 0.08598,0.59603 0,0 z m 18.18492,0.0728 -0.410186,-0.0671 c -5.60844,-0.26491 6.477267,-0.71697 0.410186,0.0671 z m 5.117246,-0.20189 c -0.121572,-0.71339 0.939074,1.00639 0,0 z m -22.243833,-0.13551 c 0.811267,-0.31183 0.08599,0.59603 0,0 z m 20.284723,0.0441 c 0.337997,-0.47458 0.337997,0.47458 0,0 z m -1.5875,-0.26458 c 0.337997,-0.47458 0.337997,0.47458 0,0 z m 2.38125,-0.13229 c -1.794314,-0.13838 -3.702496,-0.67762 -0.591084,-0.58015 0.415274,0.0345 2.587983,1.21068 0.591084,0.58015 z m -20.372917,-0.39692 c 0.337999,-0.47458 0.337999,0.47458 0,0 z m 0.617361,-0.30908 c 0.81127,-0.31183 0.08598,0.59603 0,0 z m 0.705556,-0.22048 c 0.337971,-0.47461 0.338022,0.47459 0,0 z m 17.991667,0 c 0.337972,-0.47461 0.338023,0.47459 0,0 z m -17.247526,-0.31304 c 1.626884,-0.26535 -0.491519,0.51184 0,0 z m 0.931553,0.004 c 0.811279,-0.31182 0.08597,0.59601 0,0 z m 0.705556,0.0441 c 0.337997,-0.47458 0.337997,0.47458 0,0 z m 14.502474,-0.0485 c 1.626887,-0.26535 -0.491521,0.51184 0,0 z"
         id="path769"
         inkscape:connector-curvature="0"
         sodipodi:nodetypes="ccccccccccccccccccccccccccccccccccccccccccccccccccccccccccccccccccccccccccccccccccccccccccccccccccccccccccccccccccccccccccccccccccccccccccccccccccccccccccccccccccccccccccccccccccccccccccccccccccccccccccccccccccccccccccccccccccccccccccccccccccccccccccccccccccccccccccccccccccccccccccccccccccccccccccccccccccccccccccccccccccccccccccccccccccccccccccccccccccccccccccccccccccccccccccccccccccccccccccccccccccccccccccccccccccccccccccccccccccccccccccccccccccccccccccccc" />
    </g>
  </g>
</svg>
