<?xml version="1.0" encoding="UTF-8" standalone="no"?>
<!-- Created with Inkscape (http://www.inkscape.org/) -->

<svg
   xmlns:dc="http://purl.org/dc/elements/1.1/"
   xmlns:cc="http://creativecommons.org/ns#"
   xmlns:rdf="http://www.w3.org/1999/02/22-rdf-syntax-ns#"
   xmlns:svg="http://www.w3.org/2000/svg"
   xmlns="http://www.w3.org/2000/svg"
   xmlns:sodipodi="http://sodipodi.sourceforge.net/DTD/sodipodi-0.dtd"
   xmlns:inkscape="http://www.inkscape.org/namespaces/inkscape"
   width="75mm"
   height="120mm"
   viewBox="0 0 75 120"
   version="1.1"
   id="svg8"
   inkscape:version="0.92.4 (5da689c313, 2019-01-14)"
   sodipodi:docname="feu19.svg">
  <defs
     id="defs2" />
  <sodipodi:namedview
     id="base"
     pagecolor="#ffffff"
     bordercolor="#666666"
     borderopacity="1.0"
     inkscape:pageopacity="0.0"
     inkscape:pageshadow="2"
     inkscape:zoom="1.4"
     inkscape:cx="82.018349"
     inkscape:cy="298.19798"
     inkscape:document-units="mm"
     inkscape:current-layer="layer1"
     showgrid="false"
     units="mm"
     inkscape:window-width="1920"
     inkscape:window-height="1017"
     inkscape:window-x="-8"
     inkscape:window-y="-8"
     inkscape:window-maximized="1" />
  <metadata
     id="metadata5">
    <rdf:RDF>
      <cc:Work
         rdf:about="">
        <dc:format>image/svg+xml</dc:format>
        <dc:type
           rdf:resource="http://purl.org/dc/dcmitype/StillImage" />
        <dc:title />
      </cc:Work>
    </rdf:RDF>
  </metadata>
  <g
     inkscape:label="Calque 1"
     inkscape:groupmode="layer"
     id="layer1"
     transform="translate(0,-176.99999)">
    <g
       id="g2872"
       transform="rotate(180,37.884576,235.17438)">
      <path
         style="fill:#aaffee;stroke-width:0.26458335"
         d="m 40.159359,273.26741 c -0.01643,-0.0728 -0.200625,-2.14017 -0.409331,-4.59424 -0.208706,-2.45408 -0.433266,-4.51576 -0.499023,-4.58152 -0.06576,-0.0658 -0.205306,1.13845 -0.310108,2.67602 -0.104798,1.53756 -0.291486,2.79557 -0.414858,2.79557 -0.123373,0 -0.25798,-1.33945 -0.299125,-2.97656 l -0.07481,-2.97657 -0.465259,1.85209 c -0.842103,3.35221 -1.029851,3.90251 -1.252032,3.66974 -0.19929,-0.20878 -0.06101,-1.5495 0.378486,-3.66974 0.0905,-0.43656 -0.648957,0.83958 -1.643226,2.83587 -0.994267,1.99629 -1.905707,3.72269 -2.02542,3.83645 -0.273918,0.2603 0.0475,-0.8685 0.536551,-1.88433 0.203422,-0.42254 0.369858,-0.90886 0.369858,-1.08072 0,-0.17186 0.47625,-1.48294 1.058334,-2.91352 0.582083,-1.43058 1.058333,-2.66073 1.058333,-2.73367 0,-0.0729 -0.404826,0.3337 -0.899612,0.90365 -0.958456,1.10405 -1.58023,1.10078 -0.85602,-0.005 0.692698,-1.05719 0.503962,-1.11647 -0.489363,-0.1537 -0.507143,0.49154 -0.996381,0.81941 -1.087196,0.72859 -0.180282,-0.18028 0.680979,-1.49424 1.335465,-2.03741 0.225073,-0.1868 0.409226,-0.4401 0.409226,-0.56289 0,-0.24638 -1.679969,0.6535 -2.513542,1.34639 -0.760838,0.63242 -2.489345,1.58851 -2.859394,1.58161 -0.345043,-0.006 -0.08141,-0.24098 2.5956,-2.30922 1.91807,-1.48189 1.984853,-1.61779 0.487568,-0.99219 -1.10033,0.45975 -1.149815,0.46772 -1.149815,0.18506 0,-0.1165 0.537361,-0.55149 1.194136,-0.96663 1.411795,-0.89239 1.392229,-1.14589 -0.04106,-0.53201 -2.234322,0.95697 -3.005238,1.17228 -3.00346,0.83883 0.0011,-0.17545 0.784426,-0.61376 1.741088,-0.97403 3.000187,-1.12985 2.575573,-1.30386 -1.633551,-0.66944 -1.442529,0.21742 -2.979968,0.38362 -3.41653,0.36933 -0.704887,-0.0231 -0.660455,-0.0644 0.396875,-0.36944 0.654844,-0.1889 2.38125,-0.62299 3.836458,-0.96464 l 2.645833,-0.62119 -1.936292,-0.0781 c -2.465223,-0.0994 -2.483112,-0.6551 -0.02742,-0.85165 l 1.699128,-0.136 -2.449229,-0.22296 c -3.498791,-0.31851 -3.557566,-0.82723 -0.07104,-0.61482 1.497595,0.0912 2.673626,0.11661 2.613404,0.0564 -0.06022,-0.0602 -1.841299,-0.69356 -3.95795,-1.40741 -6.218029,-2.09707 -5.968429,-2.47454 0.536469,-0.81131 1.661912,0.42493 3.132169,0.73576 3.267239,0.69074 0.135067,-0.045 -0.391239,-0.37174 -1.169574,-0.72605 -1.489782,-0.67815 -2.86692,-1.58737 -2.404293,-1.58737 0.150066,0 1.141965,0.35369 2.204217,0.78597 2.028846,0.82565 2.763623,0.89622 1.256903,0.12073 -1.005318,-0.51743 -3.689442,-2.55556 -3.549652,-2.69535 0.05066,-0.0507 1.016823,0.39208 2.147027,0.98387 1.130202,0.59179 2.097543,1.03336 2.149645,0.98126 0.0521,-0.0521 -1.230699,-1.32875 -2.850661,-2.837 -1.619964,-1.50825 -2.823132,-2.78303 -2.673707,-2.83283 0.271089,-0.0904 2.855418,1.8467 4.918295,3.68646 0.598963,0.53419 1.138478,0.9218 1.198919,0.86136 0.06044,-0.0605 -0.392631,-0.70587 -1.006829,-1.43427 -1.458447,-1.72963 -1.024062,-1.70072 0.715108,0.0476 0.750628,0.75458 1.418243,1.3185 1.483584,1.25316 0.06535,-0.0653 -0.643871,-1.24827 -1.57603,-2.62873 -0.932159,-1.38046 -1.697773,-2.59922 -1.701363,-2.70836 -0.01566,-0.47586 0.455668,-0.094 1.316389,1.06651 0.509323,0.68673 1.045104,1.37625 1.190625,1.53227 0.145521,0.15602 0.56224,0.72075 0.926042,1.25496 0.645697,0.94815 1.058333,1.22995 1.058333,0.72277 0,-0.23553 -0.283829,-1.01411 -0.824386,-2.26141 -0.409377,-0.94459 -2.006634,-5.53581 -2.186117,-6.28385 -0.327263,-1.36396 0.283379,-0.73222 1.022988,1.05833 1.323633,3.20444 2.063141,4.84122 2.148662,4.7557 0.04617,-0.0462 -0.08885,-0.73326 -0.300043,-1.52685 -0.678547,-2.54975 -0.385728,-2.31095 0.826149,0.67376 0.649941,1.60073 1.124458,2.61276 1.054481,2.24896 -0.06997,-0.36381 -0.359852,-1.70932 -0.644168,-2.99004 -0.732938,-3.30154 -0.127021,-2.80866 0.849273,0.69084 0.433758,1.5548 0.836729,2.77882 0.89549,2.72006 0.150966,-0.15097 0.273357,-4.85385 0.305316,-11.7318 0.01733,-3.73003 0.124296,-5.88698 0.291938,-5.88698 0.170217,0 0.275051,2.99613 0.293931,8.40052 l 0.02935,8.40052 0.516625,-2.64583 c 0.284144,-1.45521 0.641506,-2.7649 0.794139,-2.91042 0.190995,-0.18209 0.229111,-0.0996 0.122251,0.26458 -0.218718,0.74543 -0.733158,5.47696 -0.608986,5.60113 0.05643,0.0564 0.255635,-0.46637 0.44269,-1.16177 0.774713,-2.88009 0.927725,-1.66952 0.238014,1.88311 -0.138316,0.71246 -0.189487,1.35738 -0.113707,1.43316 0.07578,0.0758 0.137779,-0.007 0.137779,-0.18368 0,-0.48564 2.798405,-5.94076 3.514338,-6.85074 0.537631,-0.68334 0.442773,-0.0994 -0.230801,1.42093 -0.908111,2.04965 -1.961348,4.95679 -1.839833,5.0783 0.05285,0.0529 0.597376,-0.56786 1.210064,-1.37936 0.612685,-0.8115 1.232426,-1.47545 1.377201,-1.47545 0.253315,0 0.04723,0.3781 -1.295347,2.37652 -1.104199,1.6436 -0.660887,1.40772 1.448345,-0.77063 1.137018,-1.17428 2.163572,-2.13506 2.281232,-2.13506 0.27154,0 -0.13117,0.56438 -2.069782,2.90071 -0.85674,1.0325 -1.499825,1.93516 -1.429078,2.00591 0.07075,0.0707 1.220311,-0.64405 2.554584,-1.58844 2.698554,-1.91002 3.459368,-2.36358 3.648122,-2.17483 0.07034,0.0703 -0.683998,0.78718 -1.676307,1.59298 -0.992309,0.80579 -2.280447,1.89336 -2.86253,2.41681 l -1.058333,0.95173 1.940599,-0.95036 c 1.06733,-0.5227 2.079361,-0.9031 2.248959,-0.84534 0.304194,0.10361 -2.130184,1.77813 -3.102949,2.13442 -0.275489,0.1009 -0.449524,0.23482 -0.386747,0.2976 0.06278,0.0628 0.585838,-0.0539 1.162349,-0.2592 2.205795,-0.78565 2.237338,-0.3721 0.04387,0.57509 -0.757301,0.32703 -1.257848,0.59841 -1.112327,0.60308 0.350935,0.0113 6.114317,-0.7454 7.209896,-0.94657 0.498411,-0.0915 0.859895,-0.0476 0.859895,0.1046 0,0.22284 -2.59189,0.92234 -7.011458,1.89223 l -1.058333,0.23226 1.140095,0.0266 c 1.612423,0.0376 1.136258,0.54578 -0.560398,0.59809 -0.967473,0.0298 -1.09972,0.0689 -0.447406,0.13213 2.971705,0.28816 3.704167,0.42114 3.704167,0.6725 0,0.18614 -0.641818,0.22416 -1.918229,0.11364 l -1.918229,-0.16608 3.544649,1.18505 c 1.949556,0.65178 3.606509,1.24692 3.682116,1.32253 0.341577,0.34157 -0.196664,0.32776 -1.538581,-0.0395 -2.059527,-0.56364 -5.638816,-1.39852 -5.952768,-1.3885 -0.14552,0.005 0.378939,0.30065 1.165464,0.65778 1.841965,0.83637 1.618993,1.06342 -0.371714,0.37852 -0.848116,-0.2918 -1.57966,-0.49291 -1.62565,-0.44692 -0.04599,0.046 0.627102,0.49278 1.495756,0.99287 2.47146,1.42284 2.001732,1.89079 -0.508871,0.50695 -1.658355,-0.91409 -2.01695,-0.89766 -0.709633,0.0325 0.939662,0.66858 3.509899,2.88721 5.156583,4.45117 0.893665,0.84877 0.90387,0.87581 0.160565,0.42538 -0.436562,-0.26455 -2.021189,-1.36982 -3.521392,-2.45616 -1.500203,-1.08634 -2.7911,-1.91171 -2.868658,-1.83415 -0.07756,0.0776 0.405742,0.92325 1.073997,1.87931 0.668256,0.95607 1.215012,1.81877 1.215012,1.91711 0,0.0983 0.196678,0.4263 0.437062,0.7288 0.67147,0.84499 -1.779831,-1.78849 -2.732804,-2.93589 l -0.840534,-1.01202 0.317453,0.92604 c 0.174598,0.50932 0.983567,2.24113 1.797708,3.84846 0.814142,1.60734 1.570308,3.21468 1.680369,3.57188 l 0.200112,0.64945 -0.537366,-0.67191 c -0.295553,-0.36954 -1.020244,-1.6197 -1.610426,-2.77812 -1.165484,-2.28763 -2.80961,-4.8114 -2.578658,-3.9583 0.885261,3.27005 0.838345,4.12472 -0.101666,1.85208 -0.882288,-2.13308 -0.98624,-1.68179 -0.289484,1.25677 0.267407,1.12779 0.40507,2.05052 0.305917,2.05052 -0.09915,0 -0.553188,-1.16086 -1.008973,-2.57968 l -0.828698,-2.57969 0.07152,4.10104 c 0.03934,2.25557 -0.01527,4.3987 -0.12134,4.7625 -0.106072,0.3638 -0.206298,0.60193 -0.222724,0.52917 z m -7.166631,-6.54979 c 0,-0.14552 0.178594,-0.41281 0.396875,-0.59396 0.221388,-0.18374 0.396875,-0.21239 0.396875,-0.0648 0,0.14552 -0.178594,0.41281 -0.396875,0.59396 -0.221387,0.18374 -0.396875,0.21239 -0.396875,0.0648 z m -4.894792,-8.79605 c 0.08994,-0.14552 0.275559,-0.26458 0.412491,-0.26458 0.136933,0 0.248968,0.11906 0.248968,0.26458 0,0.14552 -0.185621,0.26459 -0.412491,0.26459 -0.22687,0 -0.338905,-0.11907 -0.248968,-0.26459 z"
         id="path2878"
         inkscape:connector-curvature="0" />
      <path
         style="fill:#00ffcc;stroke-width:0.26458335"
         d="m 40.093507,272.5839 c -0.101015,-1.81409 -0.183914,-2.77649 -0.465317,-5.40191 -0.163775,-1.52797 -0.368411,-3.10555 -0.454753,-3.50573 -0.09166,-0.42486 -0.04345,-0.7276 0.115872,-0.7276 0.150069,0 0.34957,0.92273 0.443336,2.05052 0.255238,3.06998 0.339227,3.11961 0.373141,0.22048 0.01688,-1.44308 0.110398,-2.54407 0.207815,-2.44666 0.198882,0.19888 0.15209,10.25339 -0.04865,10.45413 -0.07066,0.0707 -0.14781,-0.2188 -0.171444,-0.64323 z m -6.957433,-0.90399 c 0.0964,-0.36381 0.341707,-1.00718 0.545129,-1.42972 0.203422,-0.42254 0.378688,-0.95832 0.38948,-1.19062 0.01079,-0.23231 0.244912,-0.89862 0.520263,-1.48071 0.449057,-0.94929 0.486768,-0.97655 0.366012,-0.26458 -0.09837,0.58001 0.114302,0.33065 0.789818,-0.92604 1.235152,-2.29782 1.191625,-1.91028 -0.09247,0.82327 -1.30837,2.78523 -2.750103,5.34346 -2.518233,4.4684 z m 13.04027,-1.66798 c -0.380362,-0.61058 -1.016093,-1.76499 -1.412732,-2.56536 -0.760899,-1.53539 -2.287823,-4.015 -2.402057,-3.90077 -0.03708,0.0371 0.107614,0.82504 0.321538,1.75103 0.213923,0.92599 0.336372,1.7362 0.272108,1.80046 -0.227722,0.22773 -1.019802,-2.26106 -0.821648,-2.58168 0.11385,-0.18421 0.09202,-0.25822 -0.05024,-0.17031 -0.143552,0.0887 -0.246322,-0.29406 -0.239318,-0.89139 l 0.01228,-1.04688 0.720487,0.86612 c 0.811686,0.97577 0.970865,0.65901 0.27667,-0.55055 -0.251931,-0.43897 -0.364519,-0.89165 -0.250198,-1.00597 0.261752,-0.26175 0.728149,0.45661 0.51762,0.79725 -0.08564,0.13858 -0.03175,0.17534 0.119769,0.0817 0.151519,-0.0936 0.421529,0.006 0.600027,0.22078 0.178499,0.21508 0.425847,0.32844 0.549667,0.25192 0.12382,-0.0765 0.537517,0.37127 0.919329,0.9951 0.381812,0.62383 0.927553,1.49142 1.212758,1.92798 0.285207,0.43657 0.0069,0.20614 -0.618578,-0.51206 -0.625424,-0.7182 -1.440743,-1.65498 -1.811821,-2.08174 l -0.674688,-0.77591 v 0.94016 c 0,0.52953 0.110305,0.87199 0.252547,0.78408 0.138901,-0.0858 0.175303,-0.0311 0.08089,0.12166 -0.09441,0.15276 0.0043,0.34524 0.219242,0.42774 0.24176,0.0928 0.324972,0.3218 0.218101,0.6003 -0.106743,0.27817 -0.06793,0.38548 0.101534,0.28075 0.248195,-0.1534 2.881979,5.04205 2.665675,5.25835 -0.04807,0.0481 -0.398595,-0.41218 -0.77896,-1.02276 z m -9.801161,-0.87773 c -0.07169,-0.12783 0.02347,-1.11899 0.211492,-2.20258 0.188015,-1.08358 0.284863,-2.06235 0.21522,-2.17504 -0.06964,-0.11269 0.07488,-0.59454 0.321156,-1.0708 0.407961,-0.78891 0.466093,-0.81901 0.653675,-0.3385 0.310046,0.79422 0.282802,1.24465 -0.06238,1.03132 -0.194336,-0.12011 -0.233426,-0.0722 -0.10745,0.13161 0.108908,0.17621 -0.0077,1.17687 -0.259103,2.22369 -0.500817,2.08524 -0.772817,2.75651 -0.97261,2.4003 z m 1.928526,-2.54752 c -0.02341,-1.49159 -0.114223,-2.99763 -0.201816,-3.34676 -0.110188,-0.43919 -0.06585,-0.57704 0.143915,-0.4474 0.167621,0.10359 0.319958,0.91974 0.340717,1.8254 0.0348,1.51831 0.05139,1.56068 0.227036,0.57969 l 0.189492,-1.05833 0.03755,1.27239 c 0.02064,0.69981 -0.06108,1.21143 -0.181626,1.13693 -0.120544,-0.0745 -0.165333,0.51378 -0.09953,1.3073 0.07225,0.87126 0.0141,1.44276 -0.146767,1.44276 -0.158732,0 -0.283613,-1.09615 -0.308968,-2.71198 z m 3.045971,-0.0168 c -0.694857,-2.27807 -0.849709,-3.12405 -0.396497,-2.16607 0.182227,0.38518 0.213252,0.20519 0.114025,-0.66146 -0.125918,-1.09976 -0.105963,-1.1513 0.261464,-0.67534 0.218784,0.28341 0.337698,0.72989 0.264255,0.99219 -0.07344,0.26229 -0.205819,0.72993 -0.294169,1.0392 -0.09609,0.33635 -0.05636,0.49785 0.09886,0.40192 0.262036,-0.16195 1.006848,2.9414 0.764186,3.18406 -0.07045,0.0704 -0.435907,-0.88107 -0.812123,-2.1145 z m 8.035049,-1.21002 c -0.370493,-0.23479 -1.698712,-1.17103 -2.951596,-2.08053 -1.252884,-0.90951 -2.361478,-1.65365 -2.463538,-1.65365 -0.102061,0 -0.113004,0.20836 -0.02432,0.46302 0.134418,0.38598 0.0951,0.37756 -0.236276,-0.0506 -0.218641,-0.28246 -0.397526,-0.67361 -0.397526,-0.86919 0,-0.45987 0.883468,-0.0296 1.91547,0.93281 0.398663,0.37179 0.788641,0.61219 0.866613,0.53422 0.07798,-0.078 -0.412117,-0.59565 -1.089094,-1.15038 -1.074139,-0.88017 -1.176588,-1.04829 -0.804582,-1.32031 0.234456,-0.17144 0.358958,-0.37903 0.27667,-0.46132 -0.375888,-0.37589 0.428321,-1.1633 1.13592,-1.11219 0.407942,0.0295 0.541999,0.003 0.297905,-0.0596 -0.244094,-0.0623 -0.577205,-0.27395 -0.740249,-0.4704 -0.426765,-0.51422 0.940276,-0.76498 2.918611,-0.53537 2.29676,0.26657 2.002493,0.74694 -0.345493,0.56399 l -1.918229,-0.14946 2.090322,0.67771 c 1.478285,0.47928 1.981832,0.74639 1.719791,0.9123 -0.523655,0.33155 -0.983691,0.29314 -0.502822,-0.042 0.293267,-0.20438 0.163751,-0.23048 -0.496122,-0.0999 -0.491147,0.0971 -0.829969,0.0746 -0.752936,-0.0501 0.07703,-0.1247 -0.47362,-0.2466 -1.223671,-0.27089 -1.144662,-0.0371 -1.268101,0.001 -0.768416,0.23887 0.327421,0.15566 0.595312,0.39192 0.595312,0.52501 0,0.13309 -0.267891,0.15809 -0.595312,0.0555 -1.301594,-0.40761 -1.389894,-0.41889 -0.920478,-0.11753 0.257723,0.16545 0.387019,0.4328 0.287327,0.59411 -0.114456,0.18519 -0.03058,0.23546 0.227576,0.1364 0.41569,-0.15952 2.480387,1.0569 2.225897,1.31139 -0.07648,0.0765 -0.687268,-0.12633 -1.357302,-0.45068 -0.670033,-0.32436 -1.270132,-0.53786 -1.33355,-0.47444 -0.106788,0.10679 3.574399,3.40774 4.772718,4.27974 0.748459,0.54464 0.40336,0.70802 -0.408625,0.19346 z m -2.236793,-2.14667 c -0.26339,-0.29104 -0.592687,-0.52917 -0.731776,-0.52917 -0.139089,0 0.02819,0.23417 0.371737,0.52037 0.808524,0.67357 0.96511,0.67739 0.360039,0.009 z m -2.38125,-2.64583 c -0.08994,-0.14552 -0.01759,-0.26459 0.160774,-0.26459 0.178364,0 0.261962,-0.0623 0.185775,-0.13852 -0.225377,-0.22537 -1.018252,0.17248 -0.858581,0.43083 0.08051,0.13027 0.265449,0.23686 0.41097,0.23686 0.14552,0 0.191,-0.11906 0.101062,-0.26458 z M 47.473154,258.82 c -0.08792,-0.0879 -0.316124,-0.0973 -0.507119,-0.0209 -0.211066,0.0845 -0.148373,0.14715 0.159854,0.15985 0.278913,0.0115 0.435184,-0.051 0.347265,-0.13897 z m -11.705852,5.81609 c 0.472006,-1.12967 0.487019,-1.24306 0.135843,-1.02603 -0.375007,0.23177 -0.328639,-0.22203 0.06615,-0.64735 0.261498,-0.28173 0.261794,-0.31742 0.0013,-0.17048 -0.181118,0.10222 -0.460889,0.43171 -0.62171,0.73221 -0.211503,0.3952 -0.211897,0.4966 -0.0013,0.36652 0.160038,-0.0989 0.29098,-0.0745 0.29098,0.0542 0,0.32668 -1.289748,1.50602 -1.460394,1.33538 -0.206496,-0.2065 0.159258,-1.02683 0.39333,-0.88216 0.11022,0.0681 0.182988,-0.14093 0.161705,-0.46454 -0.03871,-0.58867 0.823021,-2.04361 1.21039,-2.04361 0.113035,0 0.333383,0.23892 0.489664,0.53093 0.215373,0.40243 0.170577,0.8507 -0.185084,1.85209 -0.25808,0.72663 -0.561946,1.32115 -0.675264,1.32115 -0.113316,0 -0.02585,-0.43126 0.194394,-0.95835 z m -6.314395,0.22486 c 3.059129,-2.49179 4.354624,-3.38232 3.936696,-2.70609 -0.257278,0.41628 0.12427,0.3127 1.12395,-0.30514 l 0.921827,-0.56972 -0.201493,0.63485 c -0.110821,0.34917 -0.380953,0.76607 -0.60029,0.92646 -0.219337,0.16038 -0.325308,0.41051 -0.23549,0.55584 0.19539,0.31614 -1.321911,1.83978 -1.577554,1.58414 -0.09773,-0.0977 0.324832,-0.77366 0.93903,-1.50206 1.220915,-1.44793 1.170088,-1.61607 -0.230436,-0.76229 -0.647054,0.39445 -0.813538,0.43328 -0.562914,0.1313 0.501687,-0.60449 0.02167,-0.52261 -0.767255,0.13088 -0.499136,0.41345 -0.538649,0.50792 -0.161015,0.38493 0.429575,-0.13989 0.451676,-0.10421 0.156049,0.252 -0.189418,0.22823 -0.510098,0.35138 -0.712624,0.27367 -0.202525,-0.0777 -0.302688,-0.0353 -0.222588,0.0944 0.155826,0.25213 -1.524685,1.34972 -2.051508,1.3399 -0.173582,-0.003 -0.06305,-0.21159 0.245615,-0.46302 z m 4.631905,-1.05245 c 0.329107,-0.41964 0.319749,-0.429 -0.0999,-0.0999 -0.254662,0.19972 -0.463021,0.40808 -0.463021,0.46302 0,0.21776 0.217273,0.0776 0.562917,-0.36313 z m -2.944167,-1.59 c 0,-0.32606 1.056965,-0.88947 1.340233,-0.7144 0.143209,0.0885 0.227661,0.0181 0.187677,-0.1564 -0.03999,-0.17453 0.0927,-0.37742 0.294857,-0.45087 0.224632,-0.0816 0.295916,-0.0176 0.183317,0.16457 -0.133948,0.21673 0.0052,0.2261 0.509561,0.0343 0.98125,-0.37307 1.068766,-0.33319 0.543211,0.24754 -0.254508,0.28123 -0.619403,0.45121 -0.810877,0.37774 -0.191473,-0.0735 -0.710155,0.0536 -1.152625,0.28242 -0.903801,0.46737 -1.095354,0.50499 -1.095354,0.21508 z m -1.847564,-0.67069 c 0.0057,-0.40602 2.842791,-1.51723 3.363497,-1.31741 0.400722,0.15377 -0.262208,0.50996 -2.375829,1.27655 -0.751247,0.27247 -0.99109,0.28239 -0.987668,0.0409 z m 4.052424,-1.12704 c 0,-0.21042 0.218281,-0.38258 0.485071,-0.38258 0.266788,0 0.485069,0.0553 0.485069,0.12298 0,0.0676 -0.218281,0.23981 -0.485069,0.38259 -0.366419,0.1961 -0.485071,0.16602 -0.485071,-0.12299 z m 18.353429,0.0437 c -0.552887,-0.17158 -0.910074,-0.41201 -0.79375,-0.53429 0.116326,-0.12228 -0.08615,-0.13462 -0.449956,-0.0274 -0.502433,0.14804 -0.590558,0.12003 -0.366554,-0.11652 0.225507,-0.23813 0.614651,-0.20683 1.653646,0.13301 0.747308,0.24443 1.358741,0.54978 1.358741,0.67855 0,0.27978 -0.102346,0.27005 -1.402127,-0.13333 z M 47.28789,260.3131 c -0.214066,-0.13538 -0.324437,-0.31092 -0.245268,-0.39009 0.07917,-0.0792 0.373377,0.0296 0.653796,0.24178 0.557839,0.42203 0.218874,0.54509 -0.408528,0.14831 z m -21.347267,-0.31038 c 0.350113,-0.20351 0.57125,-0.20123 0.780521,0.008 0.212945,0.21295 0.08069,0.28982 -0.48852,0.28395 -0.684242,-0.007 -0.720261,-0.0431 -0.292001,-0.292 z m 2.625369,-0.14789 c 0.257432,-0.0671 0.614619,-0.0627 0.79375,0.01 0.179131,0.0725 -0.03149,0.12736 -0.468056,0.12197 -0.436562,-0.005 -0.583125,-0.0647 -0.325694,-0.13177 z m -1.179123,-0.26197 c 0.190996,-0.0764 0.419199,-0.067 0.507118,0.0209 0.08792,0.0879 -0.06835,0.15045 -0.347266,0.13897 -0.308224,-0.0127 -0.370919,-0.0754 -0.159852,-0.15985 z m 2.89388,0.005 c 0.181901,-0.0734 0.479557,-0.0734 0.661458,0 0.181901,0.0734 0.03307,0.13345 -0.330729,0.13345 -0.363802,0 -0.51263,-0.06 -0.330729,-0.13345 z m 2.315104,-0.0957 c -0.778457,-0.20434 -0.774962,-0.20782 0.181343,-0.18036 0.5363,0.0154 0.916226,0.12325 0.84428,0.23966 -0.07194,0.11641 -0.153551,0.19757 -0.181343,0.18036 -0.02779,-0.0172 -0.407717,-0.12507 -0.84428,-0.23966 z m -3.886068,-0.17436 c 0.190995,-0.0764 0.419198,-0.067 0.507119,0.0209 0.08792,0.0879 -0.06835,0.15045 -0.347265,0.13897 -0.308227,-0.0127 -0.37092,-0.0754 -0.159854,-0.15986 z m 1.322917,-0.26459 c 0.190995,-0.0764 0.419198,-0.067 0.507119,0.0209 0.08792,0.0879 -0.06835,0.15045 -0.347266,0.13896 -0.308226,-0.0127 -0.370919,-0.0754 -0.159853,-0.15985 z m 1.769401,-0.45082 1.058333,-0.37129 -1.918229,-0.0277 c -1.123413,-0.0163 -1.918229,-0.14081 -1.918229,-0.30063 0,-0.37088 0.349023,-0.45419 2.579688,-0.61574 1.062881,-0.077 1.918229,-0.0328 1.918229,0.0991 0,0.13093 -0.922735,0.27864 -2.050521,0.32824 l -2.050521,0.0902 2.050521,0.0532 c 1.127786,0.0293 2.050521,0.16528 2.050521,0.30221 0,0.37393 -0.33001,0.51094 -1.612736,0.66957 l -1.165389,0.14411 z m -3.571875,-0.69135 c 0,-0.14552 0.119063,-0.26458 0.264583,-0.26458 0.145521,0 0.264584,0.11906 0.264584,0.26458 0,0.14552 -0.119063,0.26459 -0.264584,0.26459 -0.14552,0 -0.264583,-0.11907 -0.264583,-0.26459 z M 44.964304,256.77 c -0.02841,-0.38122 0.09254,-0.4555 0.54439,-0.33434 0.319501,0.0857 1.051206,0.1574 1.626013,0.15938 1.483604,0.005 0.849101,0.46325 -0.795742,0.57454 -1.14885,0.0777 -1.343306,0.0212 -1.374661,-0.39958 z m -14.546228,0.17447 c 0.257431,-0.0671 0.614619,-0.0627 0.79375,0.01 0.179131,0.0725 -0.03149,0.12736 -0.468056,0.12197 -0.436563,-0.005 -0.583126,-0.0647 -0.325694,-0.13178 z m -2.81233,-0.28599 c -0.07007,-0.11337 0.665948,-0.24176 1.63559,-0.2853 0.969645,-0.0435 1.699958,-0.0161 1.62292,0.0609 -0.242176,0.24218 -3.124835,0.44071 -3.25851,0.22441 z m 5.221506,-0.0666 c -0.149219,-0.14922 -1.27436,-0.61892 -2.500312,-1.04379 -1.225952,-0.42486 -2.084337,-0.77902 -1.907522,-0.78702 0.739476,-0.0335 5.102477,1.56851 5.102477,1.87348 0,0.31064 -0.363678,0.2883 -0.694643,-0.0427 z m 13.138097,-0.33869 c 0.07718,-0.0856 0.512628,-0.22132 0.967658,-0.30148 0.455033,-0.0802 1.10626,-0.26763 1.447171,-0.41658 0.4783,-0.20898 0.287541,-0.23594 -0.835367,-0.11804 -0.800364,0.084 -1.742675,0.22347 -2.094023,0.30987 -0.508286,0.125 -0.605893,0.0713 -0.477687,-0.2628 0.102801,-0.26789 -0.0011,-0.45467 -0.287226,-0.51593 -0.332071,-0.0711 -0.224624,-0.2148 0.414276,-0.55396 0.530686,-0.2817 0.836126,-0.34022 0.79375,-0.15205 -0.03789,0.16823 0.09652,0.36596 0.298678,0.43941 0.248393,0.0902 0.298656,0.0221 0.155033,-0.21033 -0.150943,-0.24423 -0.0899,-0.29681 0.210661,-0.18148 0.232751,0.0893 0.460642,0.0588 0.506423,-0.0678 0.04578,-0.12659 0.440428,-0.31525 0.87699,-0.41924 1.10839,-0.26402 0.630529,0.14899 -1.004339,0.86805 l -1.376911,0.60561 1.719792,-0.19884 c 0.945885,-0.10935 2.274343,-0.19822 2.952126,-0.19749 0.677783,8e-4 1.165283,-0.10714 1.083336,-0.23974 -0.08526,-0.13794 0.203772,-0.17052 0.67564,-0.0761 0.453546,0.0907 0.895805,0.0498 0.982795,-0.091 0.195834,-0.31686 0.920686,-0.33933 0.920686,-0.0285 0,0.12505 -1.346985,0.54565 -2.993305,0.93466 -3.333189,0.7876 -5.147958,1.10885 -4.936157,0.8738 z m 4.682805,-1.13735 c -0.08792,-0.0879 -0.316124,-0.0973 -0.507119,-0.0209 -0.211066,0.0845 -0.148373,0.14716 0.159854,0.15985 0.278913,0.0115 0.435184,-0.051 0.347265,-0.13896 z m -18.846051,0.0395 -1.058333,-0.34428 1.25916,0.0495 c 0.692539,0.0272 1.400961,0.19131 1.574271,0.36462 0.422431,0.42243 -0.356013,0.3918 -1.775098,-0.0699 z m 1.305391,-0.9096 c 0.0803,-0.12992 -0.627049,-0.72092 -1.571884,-1.31333 -0.944836,-0.59241 -1.717882,-1.20049 -1.717882,-1.35128 0,-0.41285 0.227095,-0.34583 1.760535,0.51959 1.5211,0.85845 1.808649,0.95292 1.530443,0.50277 -0.264055,-0.42725 0.76537,0.1558 1.200258,0.6798 0.545912,0.65779 0.195464,0.70399 -0.897313,0.1183 -1.3349,-0.71547 -1.461326,-0.50397 -0.224703,0.3759 0.876861,0.6239 0.920594,0.70448 0.382334,0.70448 -0.33428,0 -0.542084,-0.1063 -0.461788,-0.23623 z M 31.800939,252.628 c -0.17708,-0.28652 -1.718628,-1.14486 -1.718628,-0.95693 0,0.10734 1.628998,1.20954 1.801554,1.21894 0.04497,0.002 0.0076,-0.11545 -0.08293,-0.26201 z m 12.375835,1.52324 c 0.0636,-0.1819 0.341416,-0.30443 0.61736,-0.27228 0.282152,0.0329 0.348515,-0.009 0.151641,-0.0946 -0.2632,-0.1151 -0.202507,-0.31018 0.24456,-0.78606 0.327048,-0.34813 0.469397,-0.63296 0.316327,-0.63296 -0.153069,0 -0.431921,0.1851 -0.619672,0.41132 -0.187751,0.22623 -0.559517,0.52808 -0.826148,0.67077 -0.726266,0.38869 -0.6266,-0.34378 0.176678,-1.29842 0.694042,-0.82482 0.863338,-1.26258 0.370477,-0.95798 -0.665567,0.41134 0.31319,-0.8731 1.60137,-2.10151 1.474814,-1.40639 2.191371,-1.48107 0.898615,-0.0936 -1.341298,1.43951 -2.820266,3.37557 -2.683272,3.51257 0.07131,0.0713 1.221335,-0.64303 2.555608,-1.58742 2.698554,-1.91002 3.459368,-2.36358 3.648122,-2.17483 0.07034,0.0703 -0.683998,0.78917 -1.676307,1.5974 -2.639497,2.14986 -3.678023,3.06493 -3.487547,3.07297 0.0928,0.004 0.961877,-0.36404 1.931278,-0.81768 0.969402,-0.45364 1.823064,-0.76428 1.897023,-0.69032 0.24829,0.24829 -1.474737,1.28696 -1.812417,1.09255 -0.182893,-0.10529 -0.243993,-0.0937 -0.135779,0.0257 0.282686,0.31196 -0.738021,0.95556 -1.221319,0.77011 -0.223356,-0.0857 -0.676241,0.0334 -1.006412,0.26463 -0.720976,0.505 -1.097965,0.54098 -0.940186,0.0898 z m 2.704706,-0.72457 c 0.09269,-0.14999 -0.01352,-0.19434 -0.248968,-0.10399 -0.458369,0.17589 -0.542234,0.36554 -0.16165,0.36554 0.136933,0 0.321713,-0.1177 0.410618,-0.26155 z m -0.527294,-1.32595 c 0.08994,-0.14552 0.04446,-0.26458 -0.101062,-0.26458 -0.145521,0 -0.338167,0.11906 -0.428104,0.26458 -0.08994,0.14552 -0.04446,0.26458 0.101063,0.26458 0.14552,0 0.338166,-0.11906 0.428103,-0.26458 z m 1.348055,-1.09683 c 0.500528,-0.56373 0.499996,-0.56556 -0.07655,-0.26316 -0.643131,0.33731 -1.039133,0.83082 -0.666668,0.83082 0.131553,0 0.466003,-0.25545 0.743218,-0.56766 z m -21.853263,2.95535 c 0,-0.16624 -0.106671,-0.23632 -0.237046,-0.15575 -0.130375,0.0806 -0.57686,-0.0307 -0.992187,-0.24734 -0.693031,-0.36144 -0.706177,-0.39397 -0.159829,-0.39547 0.327422,-7.9e-4 0.595312,0.0968 0.595312,0.21713 0,0.12032 0.372356,0.16411 0.827458,0.0973 0.604635,-0.0887 0.796115,-0.0274 0.711068,0.22772 -0.149591,0.44877 -0.744776,0.65366 -0.744776,0.25639 z m 4.326554,-0.26925 c -0.674455,-0.27213 -1.065522,-0.80343 -0.571857,-0.77692 0.577913,0.031 1.136285,0.35923 1.206241,0.709 0.03638,0.1819 0.03638,0.32319 0,0.31396 -0.03638,-0.009 -0.321853,-0.11994 -0.634384,-0.24604 z m 1.229696,-0.002 c -0.218281,-0.14107 -0.277812,-0.25648 -0.132292,-0.25648 0.145521,0 0.443178,0.11541 0.661459,0.25648 0.218281,0.14106 0.277812,0.25648 0.132291,0.25648 -0.14552,0 -0.443177,-0.11542 -0.661458,-0.25648 z m 2.46775,-1.51662 c -0.577807,-0.54831 -0.833646,-0.82964 -0.568528,-0.62519 0.816594,0.62976 0.53554,-0.01 -0.592056,-1.34689 -1.493366,-1.77105 -0.94551,-1.5935 0.929421,0.3012 0.857212,0.86625 1.648928,1.51915 1.759373,1.45089 0.254812,-0.15748 0.610068,0.39377 0.393398,0.61044 -0.08885,0.0889 -0.537789,-0.18696 -0.997646,-0.61291 l -0.836099,-0.77446 0.603139,0.87513 c 0.852458,1.23687 0.541782,1.29163 -0.691002,0.12179 z m 9.244304,-8e-4 c 0.07379,-0.25682 0.227433,-0.69484 0.341434,-0.97337 0.15803,-0.38612 0.122918,-0.45429 -0.147801,-0.28698 -0.195292,0.1207 0.09146,-0.36579 0.637219,-1.08108 1.490806,-1.95388 1.930125,-1.97819 0.705438,-0.039 -1.086514,1.72037 -1.295972,2.21205 -0.815957,1.91539 0.147032,-0.0909 0.195998,0.009 0.111834,0.22851 -0.229171,0.5972 -0.99863,0.81594 -0.832167,0.23656 z M 42.261559,251.924 c -0.0046,-0.31536 0.233441,-1.13761 0.529042,-1.82722 0.747162,-1.74306 0.48855,-2.11839 -0.351285,-0.50982 -0.379883,0.7276 -0.696243,1.22687 -0.703019,1.10949 -0.03187,-0.55211 2.180341,-4.40105 2.438008,-4.2418 0.175946,0.10874 0.225711,0.0208 0.129739,-0.22933 -0.141155,-0.36784 0.667382,-2.06232 0.984059,-2.06232 0.07278,0 -0.120679,0.62508 -0.429897,1.38906 -1.410367,3.48457 -2.067753,5.38176 -1.962203,5.66282 0.063,0.16776 -0.05208,0.52495 -0.255741,0.79375 -0.353888,0.46709 -0.37066,0.46335 -0.378703,-0.0846 z m -10.856331,-1.01414 c -0.642681,-0.65484 -1.065736,-1.19062 -0.940123,-1.19062 0.125614,0 0.0016,-0.26279 -0.27564,-0.58398 -0.303178,-0.35127 -0.0574,-0.23813 0.616778,0.28391 0.616445,0.47734 1.202457,1.00802 1.302253,1.17929 0.09979,0.17127 -0.05676,0.10304 -0.347893,-0.15162 -1.014515,-0.88742 -0.984393,-0.45529 0.0415,0.59532 0.568389,0.58208 0.974529,1.05833 0.902536,1.05833 -0.072,0 -0.65673,-0.53578 -1.299411,-1.19063 z m 5.01664,1.05834 c -0.02872,-0.14552 -0.03741,-0.35601 -0.01931,-0.46775 0.0181,-0.11174 -0.147958,-0.63604 -0.369015,-1.1651 -0.221059,-0.52907 -0.353441,-1.01043 -0.294182,-1.06969 0.19631,-0.1963 1.017289,2.26004 0.87466,2.61696 -0.07696,0.19259 -0.163428,0.2311 -0.192149,0.0856 z m 0.360924,-1.97916 c -0.43134,-0.87025 -0.689023,-1.67751 -0.57263,-1.7939 0.116393,-0.11639 0.08737,-0.66162 -0.06449,-1.21162 -0.15186,-0.54999 -0.226044,-1.14172 -0.164848,-1.31495 0.171847,-0.48646 1.048575,1.69397 1.068655,2.65775 0.01183,0.56777 0.09632,0.74596 0.250899,0.52916 0.143301,-0.20097 0.170778,-0.0211 0.07134,0.46688 -0.119192,0.58499 -0.09109,0.68937 0.106839,0.39688 0.238728,-0.35278 0.26947,-0.35278 0.276672,0 0.0072,0.35278 0.0366,0.35278 0.264583,0 0.212725,-0.32917 0.257789,-0.3066 0.264145,0.13229 0.0042,0.29104 0.07716,0.82682 0.162097,1.19063 0.147632,0.63232 0.12896,0.62649 -0.423924,-0.1323 l -0.578355,-0.79375 0.119036,0.72761 c 0.06547,0.40018 0.09321,0.7276 0.06164,0.7276 -0.03157,0 -0.410316,-0.71202 -0.841653,-1.58228 z m -7.758814,1.0375 c 0,-0.15411 0.119063,-0.20661 0.264583,-0.11668 0.145521,0.0899 0.264584,0.21603 0.264584,0.2802 0,0.0642 -0.119063,0.11668 -0.264584,0.11668 -0.14552,0 -0.264583,-0.12609 -0.264583,-0.2802 z m 6.330871,-0.28471 c -0.208693,-0.38995 -0.362546,-0.46749 -0.496742,-0.25035 -0.122389,0.19803 -0.760963,-0.52819 -1.723753,-1.96033 -0.841139,-1.25119 -1.455232,-2.349 -1.364652,-2.43958 0.09058,-0.0906 0.201258,-0.11508 0.245949,-0.0545 0.04469,0.0606 0.444111,0.58649 0.8876,1.16858 0.44349,0.58208 0.748668,1.22373 0.67817,1.42589 -0.07286,0.20895 -0.0092,0.29403 0.147502,0.19718 0.151625,-0.0937 0.62334,0.27667 1.048261,0.82306 0.912032,1.17277 1.208789,1.65491 1.018593,1.65491 -0.07623,0 -0.274646,-0.25421 -0.440928,-0.56491 z m -0.931244,-1.15488 c -0.238371,-0.3638 -0.486267,-0.66146 -0.550881,-0.66146 -0.129664,0 0.119854,0.47931 0.516512,0.99219 0.455573,0.58905 0.480415,0.35002 0.03437,-0.33073 z m 5.796434,1.39293 c 0.139276,-0.39611 0.09104,-0.41518 -0.35133,-0.13892 -0.625149,0.39042 -0.958069,0.10955 -1.172784,-0.98943 -0.115178,-0.58953 -0.09544,-0.6576 0.07672,-0.26458 0.194434,0.44385 0.262493,0.34983 0.422153,-0.58321 0.104691,-0.6118 0.168185,-1.44524 0.1411,-1.85208 -0.1831,-2.75026 0.04578,-14.89492 0.28071,-14.89492 0.184703,0 0.249316,2.7917 0.198437,8.57392 -0.0415,4.71565 -0.0061,8.53096 0.07863,8.47846 0.08474,-0.0525 0.305533,-1.11344 0.490644,-2.35766 0.185107,-1.24422 0.459673,-2.3383 0.610142,-2.4313 0.18124,-0.11201 0.212029,0.15903 0.09122,0.80299 -0.100298,0.53464 -0.231415,1.99998 -0.291372,3.25633 -0.06123,1.28298 -0.246367,2.41035 -0.422368,2.57191 -0.234349,0.21512 -0.272651,0.17188 -0.151913,-0.17151 z M 41.2157,250.3589 c 0.0127,-0.30823 0.07539,-0.37092 0.159851,-0.15985 0.07643,0.19099 0.06703,0.4192 -0.02088,0.50712 -0.08792,0.0879 -0.150452,-0.0684 -0.138964,-0.34727 z m -12.45086,-1.82449 c -1.229386,-1.25265 -1.35214,-1.83957 -0.194254,-0.92877 0.539456,0.42433 1.669803,2.11385 1.414242,2.11385 -0.03131,0 -0.580302,-0.53329 -1.219988,-1.18508 z m 12.186277,0.50157 c 0.0127,-0.30822 0.07539,-0.37092 0.159851,-0.15985 0.07643,0.19099 0.06703,0.4192 -0.02088,0.50712 -0.08792,0.0879 -0.150453,-0.0684 -0.138964,-0.34727 z m 0.460068,-0.22914 c -0.08974,-0.4292 -0.05274,-1.07079 0.08222,-1.42576 0.355442,-0.93488 0.442347,-0.62746 0.249674,0.8832 -0.150082,1.17673 -0.186758,1.23668 -0.331894,0.54256 z m -3.635068,-0.0354 c 0.0127,-0.30823 0.07539,-0.37092 0.159851,-0.15985 0.07643,0.19099 0.06703,0.4192 -0.02088,0.50712 -0.08792,0.0879 -0.150453,-0.0684 -0.138964,-0.34727 z m -2.535031,-0.44097 c -0.06396,-0.1819 -0.434893,-1.2237 -0.824304,-2.31511 -0.931381,-2.6104 -1.424736,-4.49791 -1.175658,-4.49791 0.110276,0 0.409631,0.50601 0.665237,1.12447 1.188442,2.87559 1.460394,3.66479 1.209378,3.50966 -0.369305,-0.22825 -0.340516,0.12919 0.114211,1.41802 0.211825,0.60038 0.327152,1.0916 0.25628,1.0916 -0.07087,0 -0.181189,-0.14883 -0.245144,-0.33073 z m -0.778732,-3.66413 c -0.214818,-0.49497 -0.39524,-0.75671 -0.400937,-0.58166 -0.01273,0.3914 0.569108,1.704 0.698143,1.57496 0.05136,-0.0514 -0.08239,-0.49834 -0.297206,-0.9933 z m 1.18361,2.8237 c -0.39316,-1.03409 -0.315346,-1.19691 0.156189,-0.32681 0.223843,0.41305 0.341469,0.81652 0.261393,0.89659 -0.08008,0.0801 -0.267989,-0.17632 -0.417582,-0.56978 z m 1.644587,-0.83936 c -0.414068,-2.00472 -0.428416,-2.69258 -0.04824,-2.3124 0.154461,0.15446 0.303289,0.70203 0.330729,1.21681 0.02744,0.51478 0.139189,0.88144 0.24833,0.8148 0.109141,-0.0667 0.198437,0.0547 0.198437,0.26968 0,0.21496 0.07076,0.60894 0.15725,0.87551 0.121198,0.37354 0.09701,0.40003 -0.105494,0.11552 -0.214831,-0.30181 -0.279998,-0.27955 -0.357344,0.12208 -0.05203,0.27017 -0.242681,-0.22573 -0.423672,-1.102 z m -1.631101,-1.84799 c 0.0127,-0.30823 0.07539,-0.37092 0.159851,-0.15985 0.07643,0.19099 0.06703,0.4192 -0.02088,0.50712 -0.08792,0.0879 -0.150452,-0.0684 -0.138964,-0.34727 z m 5.42008,-0.98155 c 0.09936,-0.26094 0.247303,-0.40778 0.328766,-0.32632 0.08146,0.0815 1.69e-4,0.29495 -0.180652,0.47443 -0.261308,0.25936 -0.291698,0.22897 -0.148114,-0.14811 z"
         id="path2876"
         inkscape:connector-curvature="0" />
      <path
         style="fill:#d5fff6;stroke-width:0.26458335"
         d="m 40.157367,272.5839 c 0.0127,-0.30823 0.07539,-0.37092 0.159851,-0.15985 0.07643,0.19099 0.06703,0.4192 -0.02088,0.50712 -0.08792,0.0879 -0.150453,-0.0684 -0.138964,-0.34727 z m -7.154045,-0.40149 c -0.0058,-0.0874 0.127495,-0.56368 0.29627,-1.05833 0.301109,-0.88251 1.545219,-2.62176 1.545219,-2.1602 0,0.12925 -0.208359,0.47045 -0.46302,0.75824 -0.254662,0.28778 -0.499436,0.68737 -0.543944,0.88797 -0.09715,0.43787 -0.819438,1.79873 -0.834525,1.57232 z m 6.949421,-1.89157 c -0.02328,-0.82867 0.02664,-0.98528 0.189768,-0.59531 0.287152,0.68645 0.317309,1.71979 0.05019,1.71979 -0.114599,0 -0.222578,-0.50601 -0.239956,-1.12448 z m 6.587623,0.3187 c -0.177626,-0.28442 -0.215622,-0.51713 -0.08444,-0.51713 0.237535,0 0.646618,0.79504 0.489781,0.95187 -0.04531,0.0453 -0.227719,-0.15032 -0.405344,-0.43474 z m -0.936832,-1.50932 c -0.202054,-0.40018 -0.308726,-0.89301 -0.237053,-1.09516 0.07895,-0.22268 0.01368,-0.29548 -0.165563,-0.1847 -0.192559,0.11901 -0.236977,0.0294 -0.127196,-0.25671 0.154615,-0.40292 0.188669,-0.40386 0.408387,-0.0113 0.131837,0.23558 0.413351,0.84393 0.625586,1.35188 0.457311,1.09449 0.03282,1.25947 -0.504161,0.19594 z m -9.13171,-0.99219 c 0.0052,-1.14309 0.03655,-1.22095 0.230955,-0.57279 0.125418,0.41817 0.122777,1.00361 -0.006,1.32292 -0.176454,0.43762 -0.229545,0.2606 -0.224984,-0.75013 z m 2.052916,1.16858 c -0.01333,-0.0606 -0.06719,-0.52696 -0.119685,-1.03629 l -0.09544,-0.92604 0.267059,0.88891 c 0.146881,0.4889 0.20074,0.95523 0.119685,1.03629 -0.08106,0.0811 -0.158285,0.0978 -0.171614,0.0371 z m 3.255235,-1.27421 c -0.424683,-1.19143 -0.404345,-1.32233 0.09475,-0.60977 0.22843,0.32613 0.372692,0.7991 0.32058,1.05105 -0.06464,0.31254 -0.19661,0.17232 -0.415327,-0.44128 z m -2.121083,-0.68812 c 0.0054,-0.43656 0.06469,-0.58312 0.131773,-0.32569 0.06708,0.25743 0.06267,0.61462 -0.0098,0.79375 -0.07248,0.17913 -0.127362,-0.0315 -0.12197,-0.46806 z m -1.321925,-1.7643 c -0.02892,-0.97036 -0.129627,-1.98239 -0.223805,-2.24895 -0.12927,-0.36589 -0.09381,-0.41354 0.1447,-0.19444 0.207791,0.19087 0.284398,0.9607 0.223806,2.24895 l -0.09213,1.95874 z m 4.330063,1.1804 c -0.143584,-0.37708 -0.113194,-0.40747 0.148114,-0.14811 0.180821,0.17947 0.262114,0.39297 0.180652,0.47443 -0.08146,0.0815 -0.229407,-0.0654 -0.328766,-0.32632 z m -2.451267,-1.13589 c 0,-0.80036 0.0496,-1.12779 0.110223,-0.7276 0.06062,0.40018 0.06062,1.05502 0,1.4552 -0.06062,0.40019 -0.110223,0.0728 -0.110223,-0.7276 z m -1.340818,0.26458 c 0,-0.50932 0.05445,-0.71768 0.121002,-0.46302 0.06655,0.25466 0.06655,0.67138 0,0.92604 -0.06655,0.25467 -0.121002,0.0463 -0.121002,-0.46302 z m 6.854703,-0.48507 c -0.644914,-0.77027 -0.922377,-1.27882 -0.697735,-1.27882 0.205126,0 0.311634,0.0992 0.236685,0.22049 -0.07495,0.12127 -0.03133,0.22049 0.09693,0.22049 0.12826,0 0.54501,0.47625 0.926111,1.05833 0.3811,0.58208 0.651462,1.05833 0.600802,1.05833 -0.05066,0 -0.573918,-0.57547 -1.162796,-1.27882 z m -3.488632,0.19783 c -0.16243,-0.30351 -0.22615,-0.62101 -0.141599,-0.70556 0.08455,-0.0845 0.153728,-0.008 0.153728,0.17057 0,0.17836 0.119062,0.25071 0.264583,0.16077 0.145521,-0.0899 0.264583,0.0816 0.264583,0.38126 0,0.69308 -0.167769,0.6909 -0.541295,-0.007 z m 7.569764,-0.16437 c -0.143584,-0.37708 -0.113194,-0.40747 0.148114,-0.14811 0.180821,0.17948 0.262114,0.39297 0.180652,0.47443 -0.08146,0.0815 -0.229407,-0.0654 -0.328766,-0.32632 z m -20.629277,-0.38297 c 0.08803,-0.14243 0.217906,-0.2011 0.288623,-0.13038 0.07072,0.0707 0.445747,-0.19586 0.833401,-0.59238 0.387654,-0.39653 0.555739,-0.5261 0.37352,-0.28794 -0.182218,0.23816 -0.24175,0.53174 -0.132291,0.6524 0.109458,0.12066 0.06035,0.14003 -0.109117,0.043 -0.169471,-0.097 -0.354521,-0.0372 -0.411218,0.1329 -0.0567,0.17009 -0.30556,0.33898 -0.553025,0.3753 -0.247467,0.0363 -0.377917,-0.0505 -0.289893,-0.19293 z m 4.869558,-0.003 c 0,-0.16977 0.08047,-0.22821 0.178809,-0.12987 0.09835,0.0984 0.485298,-0.0902 0.859895,-0.41892 l 0.681088,-0.59773 -0.641432,0.7276 c -0.680627,0.77206 -1.07836,0.92658 -1.07836,0.41892 z m 2.872161,0.0441 c -0.0804,-0.21828 0.009,-0.75406 0.198686,-1.19062 0.248195,-0.57125 0.340821,-0.64542 0.33043,-0.26459 -0.02604,0.95394 -0.367665,1.89353 -0.529116,1.45521 z m 2.313673,-0.82021 c -0.09696,-0.60638 -0.12464,-1.15417 -0.0615,-1.21731 0.06314,-0.0631 0.197972,0.3775 0.299628,0.97919 0.101655,0.60169 0.129331,1.14949 0.0615,1.21732 -0.06783,0.0678 -0.202663,-0.37281 -0.299628,-0.9792 z m 1.824029,-0.25008 c -0.0013,-1.08327 0.04343,-1.19799 0.288737,-0.73964 0.159682,0.29837 0.235482,0.82942 0.168442,1.18012 -0.213683,1.1178 -0.45553,0.88478 -0.457179,-0.44048 z m -8.280162,0.85201 c 0.0511,-0.19281 0.20899,-0.34567 0.350872,-0.33968 0.141883,0.006 0.823516,-0.54615 1.51474,-1.22698 0.691224,-0.68083 1.254122,-1.12329 1.250886,-0.98324 -0.0078,0.33842 -1.039,1.64848 -1.046564,1.32962 -0.0032,-0.13637 -0.363072,0.0943 -0.799635,0.51252 -0.436562,0.41825 -0.795573,0.64889 -0.7978,0.51252 -0.0021,-0.13636 -0.130355,-0.0693 -0.284726,0.14894 -0.185883,0.26284 -0.249299,0.27847 -0.187773,0.0463 z m 10.266133,-0.31088 c -0.15576,-0.29105 -0.223671,-0.52917 -0.150911,-0.52917 0.07276,0 0.259734,0.23812 0.415494,0.52917 0.15576,0.29104 0.223671,0.52916 0.15091,0.52916 -0.07276,0 -0.259733,-0.23812 -0.415493,-0.52916 z m 4.894662,-0.15463 c -0.762918,-0.60893 -0.768602,-0.62863 -0.146905,-0.50928 0.739093,0.14189 1.499193,0.79743 1.164482,1.00429 -0.123177,0.0761 -0.581089,-0.14663 -1.017577,-0.49501 z m -7.801028,-0.96985 c 0.0033,-0.4814 0.05313,-0.51937 0.260532,-0.19844 0.331502,0.51296 0.331502,0.79375 0,0.79375 -0.14552,0 -0.26276,-0.26789 -0.260532,-0.59531 z m -6.221759,-0.19844 c 0.26339,-0.29104 0.538422,-0.52917 0.611182,-0.52917 0.07276,0 -0.08321,0.23813 -0.346599,0.52917 -0.26339,0.29104 -0.538422,0.52917 -0.611182,0.52917 -0.07276,0 0.08321,-0.23813 0.346599,-0.52917 z m 2.158042,-0.0457 c 0.490937,-0.54248 0.710864,-0.49871 0.482634,0.096 -0.08245,0.21485 -0.323871,0.39064 -0.536495,0.39064 -0.319543,0 -0.3102,-0.0844 0.05386,-0.48669 z m 5.911749,-0.0425 c 0,-0.29105 0.03369,-0.47956 0.07487,-0.41893 0.04118,0.0606 0.217881,0.29876 0.392673,0.52917 0.255471,0.33675 0.240784,0.41892 -0.07487,0.41892 -0.216284,0 -0.392674,-0.2377 -0.392673,-0.52916 z m 1.05482,-0.18488 c -0.182764,-0.44123 -0.256738,-0.87779 -0.164391,-0.97014 0.09235,-0.0923 0.167905,0.0376 0.167905,0.28869 0,0.25112 0.105571,0.39134 0.234603,0.31159 0.129032,-0.0797 0.396923,0.0621 0.595313,0.31511 0.332483,0.42411 0.321492,0.42922 -0.140478,0.0653 -0.465527,-0.36671 -0.487789,-0.35259 -0.312899,0.19844 0.276627,0.87158 0.0058,0.72268 -0.380053,-0.209 z m -11.638153,0.43776 c 0,-0.0549 0.20836,-0.2633 0.463021,-0.46302 0.419645,-0.32911 0.429003,-0.31975 0.0999,0.0999 -0.345644,0.44073 -0.562917,0.58089 -0.562917,0.36313 z m 13.989166,-0.89229 c -0.329107,-0.41965 -0.319748,-0.42901 0.0999,-0.0999 0.254661,0.19972 0.46302,0.40808 0.46302,0.46302 0,0.21776 -0.217273,0.0776 -0.562917,-0.36312 z m -14.253749,-0.34635 c 0,-0.15411 0.119062,-0.20661 0.264583,-0.11668 0.145521,0.0899 0.264583,0.0304 0.264583,-0.13229 0,-0.16269 0.131774,-0.21437 0.292831,-0.11483 0.204134,0.12616 0.184099,0.24987 -0.06615,0.40844 -0.486291,0.30813 -0.755851,0.29221 -0.755851,-0.0446 z m 3.571875,-0.24897 c 0.08994,-0.14552 0.282583,-0.26458 0.428104,-0.26458 0.14552,0 0.191,0.11906 0.101062,0.26458 -0.08994,0.14552 -0.282582,0.26459 -0.428103,0.26459 -0.145521,0 -0.191,-0.11907 -0.101063,-0.26459 z m -5.423959,-0.36078 c 0,-0.1893 0.396875,-0.46599 0.881944,-0.61486 0.714224,-0.2192 0.881946,-0.19881 0.881946,0.10723 0,0.23619 -0.181901,0.33033 -0.485071,0.25105 -0.266787,-0.0698 -0.485069,-0.0317 -0.485069,0.0847 0,0.11633 -0.178593,0.28004 -0.396875,0.3638 -0.227433,0.0873 -0.396875,0.005 -0.396875,-0.19188 z m 14.146996,0.0829 c -0.25141,-0.40679 0.09296,-0.66925 0.432551,-0.32966 0.190019,0.19002 0.194583,0.33801 0.01387,0.44969 -0.148146,0.0916 -0.349036,0.0376 -0.446424,-0.12003 z m 3.459096,0.0316 c -0.265096,-0.42893 0.31096,-0.55928 0.652577,-0.14766 0.265842,0.32032 0.249637,0.39396 -0.0867,0.39396 -0.22751,0 -0.482155,-0.11083 -0.565877,-0.2463 z m -13.50505,-0.28286 c 0.72826,-0.31295 0.987161,-0.31295 0.79375,0 -0.08994,0.14552 -0.424386,0.25621 -0.74322,0.24598 -0.558895,-0.0179 -0.56071,-0.0267 -0.05053,-0.24598 z m 11.598577,-0.0661 c -0.311783,-0.49908 -0.341739,-1.01597 -0.04837,-0.83466 0.142427,0.088 0.19254,0.22647 0.11136,0.30764 -0.08118,0.0812 -0.015,0.30739 0.147085,0.50268 0.162075,0.19529 0.227602,0.35507 0.14561,0.35507 -0.08199,0 -0.242048,-0.14883 -0.355685,-0.33073 z m 1.321908,-0.31909 c 0,-0.21188 0.101161,-0.32271 0.224804,-0.2463 0.123639,0.0764 0.156302,0.24977 0.07258,0.38524 -0.213947,0.34617 -0.297381,0.30719 -0.297381,-0.13894 z m -12.883874,-0.54081 c 0.08376,-0.21828 0.273198,-0.39687 0.420967,-0.39687 0.154864,0 0.129149,0.16812 -0.0607,0.39687 -0.181157,0.21829 -0.370594,0.39688 -0.420968,0.39688 -0.05037,0 -0.02307,-0.17859 0.0607,-0.39688 z m 14.118597,-0.1479 c 0,-0.15411 0.119063,-0.20662 0.264584,-0.11668 0.145521,0.0899 0.264583,0.21603 0.264583,0.2802 0,0.0642 -0.119062,0.11668 -0.264583,0.11668 -0.145521,0 -0.264584,-0.12609 -0.264584,-0.2802 z m 4.365625,0.0156 c 0.08994,-0.14552 0.282583,-0.26458 0.428104,-0.26458 0.145521,0 0.191,0.11906 0.101063,0.26458 -0.08994,0.14552 -0.282583,0.26459 -0.428104,0.26459 -0.145521,0 -0.191,-0.11907 -0.101063,-0.26459 z M 28.974369,259.8575 c 0.190995,-0.0764 0.419198,-0.067 0.507119,0.0209 0.08792,0.0879 -0.06835,0.15045 -0.347266,0.13896 -0.308226,-0.0127 -0.370919,-0.0754 -0.159853,-0.15985 z m 1.5875,-0.26458 c 0.190995,-0.0764 0.419198,-0.067 0.507119,0.0209 0.08792,0.0879 -0.06835,0.15045 -0.347266,0.13897 -0.308226,-0.0127 -0.370919,-0.0754 -0.159853,-0.15985 z m 14.601692,0.0768 c 0,-0.0572 0.184777,-0.17489 0.410618,-0.26155 0.235458,-0.0904 0.341662,-0.046 0.248967,0.10398 -0.155379,0.25141 -0.659585,0.37186 -0.659585,0.15757 z m -12.485026,-0.34134 c 0.190995,-0.0764 0.419198,-0.067 0.507119,0.0209 0.08792,0.0879 -0.06835,0.15045 -0.347265,0.13896 -0.308227,-0.0127 -0.37092,-0.0754 -0.159854,-0.15985 z m 12.220443,-0.34842 c 0,-0.14552 0.267891,-0.26276 0.595313,-0.26054 0.481393,0.003 0.519366,0.0531 0.198437,0.26054 -0.512964,0.3315 -0.79375,0.3315 -0.79375,0 z m -16.66875,-1.05834 c 0,-0.14552 0.12609,-0.26458 0.280199,-0.26458 0.154109,0 0.206613,0.11906 0.116676,0.26458 -0.08994,0.14552 -0.216027,0.26459 -0.280199,0.26459 -0.06417,0 -0.116676,-0.11907 -0.116676,-0.26459 z m 0.79375,-0.008 c 0,-0.38062 0.382257,-0.46847 2.601024,-0.59775 1.108591,-0.0646 1.788728,-0.0174 1.5875,0.11018 -0.193636,0.12276 -1.185503,0.23688 -2.204149,0.25362 -1.334542,0.0219 -1.667248,0.0896 -1.190625,0.24226 l 0.661458,0.21183 -0.727604,0.0264 c -0.400182,0.0145 -0.727604,-0.0964 -0.727604,-0.24651 z m 16.271875,0.008 c -0.08994,-0.14552 0.02209,-0.26458 0.248968,-0.26458 0.226869,0 0.41249,0.11906 0.41249,0.26458 0,0.14552 -0.112035,0.26459 -0.248967,0.26459 -0.136933,0 -0.322554,-0.11907 -0.412491,-0.26459 z m 2.778125,0.003 c 0.473115,-0.30921 1.242872,-0.3468 1.413809,-0.0691 0.06717,0.10915 -0.312759,0.22769 -0.84428,0.26344 -0.709462,0.0477 -0.860885,-0.004 -0.569529,-0.19439 z m -1.256771,-0.44987 c 0.254662,-0.0666 0.67138,-0.0666 0.926042,0 0.254661,0.0666 0.0463,0.121 -0.463021,0.121 -0.509323,0 -0.717682,-0.0545 -0.463021,-0.121 z M 30.280749,256.9526 c 0.181901,-0.0734 0.479557,-0.0734 0.661458,0 0.181901,0.0734 0.03307,0.13346 -0.330729,0.13346 -0.363802,0 -0.51263,-0.0601 -0.330729,-0.13346 z m 15.155058,-0.079 c -0.214066,-0.13538 -0.296889,-0.33847 -0.184052,-0.45131 0.112839,-0.11283 0.3057,-0.0425 0.42858,0.15634 0.156461,0.25316 0.548629,0.31788 1.308589,0.21594 0.618594,-0.083 1.021554,-0.0426 0.937208,0.0939 -0.193175,0.31256 -1.989556,0.30186 -2.490325,-0.0149 z m -17.865164,-0.27189 c -0.09269,-0.14998 0.01351,-0.19433 0.248968,-0.10398 0.458369,0.17589 0.542234,0.36554 0.16165,0.36554 -0.136934,0 -0.321712,-0.1177 -0.410618,-0.26156 z m 2.048648,-0.18542 c 0.254661,-0.0666 0.67138,-0.0666 0.926041,0 0.254662,0.0666 0.0463,0.121 -0.463021,0.121 -0.509322,0 -0.717682,-0.0544 -0.46302,-0.121 z m 17.612772,-0.40445 c 0.141097,-0.1411 0.477547,-0.20969 0.747665,-0.15244 0.363755,0.0771 0.297223,0.14364 -0.25654,0.25654 -0.482817,0.0984 -0.656791,0.0616 -0.491125,-0.1041 z m 1.569519,-0.38214 c 0.181901,-0.0734 0.479558,-0.0734 0.661459,0 0.181901,0.0734 0.03307,0.13345 -0.33073,0.13345 -0.363802,0 -0.51263,-0.06 -0.330729,-0.13345 z m -16.073437,-0.35394 c -0.615754,-0.1972 -0.621403,-0.21366 -0.08176,-0.23821 0.318834,-0.0145 0.653283,0.0927 0.74322,0.23821 0.08994,0.14552 0.12673,0.25271 0.08176,0.23821 -0.04497,-0.0145 -0.379418,-0.1217 -0.74322,-0.23821 z m 12.386376,0.0359 c 0.32209,-0.20425 1.63654,-0.10206 1.63654,0.12723 0,0.0558 -0.446484,0.0996 -0.992187,0.0974 -0.632452,-0.003 -0.866074,-0.084 -0.644353,-0.22462 z m 2.364145,-0.21114 c 0.181901,-0.0734 0.479557,-0.0734 0.661458,0 0.181901,0.0734 0.03307,0.13345 -0.330729,0.13345 -0.363802,0 -0.51263,-0.06 -0.330729,-0.13345 z m -16.123047,-0.27009 c 0.190995,-0.0764 0.419198,-0.067 0.507119,0.0209 0.08792,0.0879 -0.06835,0.15045 -0.347266,0.13897 -0.308226,-0.0127 -0.370919,-0.0754 -0.159853,-0.15985 z m 13.648483,-0.21608 c 0.276101,-0.20899 0.625385,-0.30373 0.77619,-0.21052 0.158226,0.0978 0.05782,0.25418 -0.237419,0.3698 -0.827246,0.32395 -1.078886,0.24956 -0.538771,-0.15928 z m 1.305986,-0.0253 c 0,-0.41661 0.332198,-0.49712 0.556131,-0.13479 0.08051,0.13027 -0.01167,0.29751 -0.204873,0.37165 -0.19319,0.0741 -0.351258,-0.0325 -0.351258,-0.23686 z m 3.301781,0.24136 c 0.190994,-0.0764 0.419198,-0.067 0.507119,0.0209 0.08792,0.0879 -0.06835,0.15046 -0.347266,0.13897 -0.308226,-0.0127 -0.370919,-0.0754 -0.159853,-0.15985 z m 1.852083,-0.26458 c 0.190995,-0.0764 0.419198,-0.067 0.507119,0.0209 0.08792,0.0879 -0.06835,0.15045 -0.347266,0.13897 -0.308226,-0.0127 -0.370919,-0.0754 -0.159853,-0.15986 z m 1.901693,-0.0838 c -0.33917,-0.21919 -0.329552,-0.25707 0.06615,-0.26053 0.254661,-0.002 0.46302,0.11501 0.46302,0.26053 0,0.32269 -0.02984,0.32269 -0.529166,0 z m -20.218374,-0.4343 c -0.139348,-0.36313 -0.100631,-0.3795 0.236276,-0.0999 0.459115,0.38103 0.506899,0.53419 0.166656,0.53419 -0.129953,0 -0.311272,-0.19544 -0.402932,-0.4343 z m 11.092916,-0.0992 c 0.0914,-0.1479 0.277024,-0.2004 0.41249,-0.11668 0.366988,0.22681 0.298559,0.38558 -0.16619,0.38558 -0.226869,0 -0.337703,-0.12101 -0.2463,-0.2689 z m 3.728754,0.0484 c -0.07495,-0.12127 0.03185,-0.22049 0.237329,-0.22049 0.205478,0 0.312277,0.0992 0.237328,0.22049 -0.07495,0.12127 -0.181745,0.22049 -0.237328,0.22049 -0.05558,0 -0.162383,-0.0992 -0.237329,-0.22049 z m -23.44288,-0.46301 c -0.624226,-0.34638 -0.629542,-0.36726 -0.09445,-0.37094 0.311853,-0.002 0.635538,0.1747 0.7193,0.39298 0.08376,0.21828 0.126267,0.3852 0.09445,0.37093 -0.03181,-0.0143 -0.355498,-0.19111 -0.719301,-0.39297 z m 5.750277,-0.14309 c 0.179478,-0.18082 0.39297,-0.26211 0.474433,-0.18065 0.08146,0.0815 -0.06538,0.22941 -0.326319,0.32877 -0.377084,0.14358 -0.407474,0.11319 -0.148114,-0.14812 z m 3.245557,-0.0427 c -0.218281,-0.1778 -0.436449,-0.50144 -0.484817,-0.71919 -0.05634,-0.25363 0.157604,-0.1654 0.595312,0.24551 0.37579,0.35279 0.683255,0.68022 0.683255,0.72761 0,0.18638 -0.416944,0.053 -0.79375,-0.25393 z m 11.792487,0.1055 c -0.07975,-0.12904 0.06206,-0.39693 0.315113,-0.59532 0.406445,-0.31863 0.421802,-0.31158 0.131675,0.0605 -0.180638,0.23167 -0.250092,0.49956 -0.154342,0.59532 0.09575,0.0958 0.101746,0.17409 0.01331,0.17409 -0.08842,0 -0.22602,-0.10557 -0.305766,-0.2346 z m -15.866274,-0.25047 c -0.07495,-0.12127 0.03185,-0.22049 0.237328,-0.22049 0.205479,0 0.312278,0.0992 0.237329,0.22049 -0.07495,0.12127 -0.181745,0.22049 -0.237329,0.22049 -0.05558,0 -0.162382,-0.0992 -0.237328,-0.22049 z m 14.127953,-0.002 c 0,-0.41148 0.728959,-0.88976 0.909897,-0.597 0.08979,0.14529 -0.0782,0.39338 -0.373319,0.55133 -0.295119,0.15794 -0.536578,0.17849 -0.536578,0.0457 z m 4.34036,-0.26541 c 0.105543,-0.17077 0.03607,-0.30901 -0.157556,-0.31351 -0.212752,-0.005 -0.166939,-0.11252 0.118771,-0.2789 0.255815,-0.14897 0.583237,-0.19786 0.727604,-0.10864 0.144367,0.0892 0.262488,0.0361 0.262488,-0.11796 0,-0.15411 0.133641,-0.2802 0.296979,-0.2802 0.210635,0 0.20501,0.11082 -0.01934,0.38114 -0.173979,0.20964 -0.505746,0.30846 -0.737259,0.21962 -0.266988,-0.10245 -0.3551,-0.055 -0.240922,0.12974 0.099,0.1602 0.04061,0.37742 -0.12977,0.48272 -0.193468,0.11957 -0.238897,0.0768 -0.120991,-0.11401 z M 34.310337,252.4916 c -0.511273,-0.61605 -0.14646,-0.73214 0.400714,-0.12752 0.264197,0.29193 0.357421,0.53079 0.207164,0.53079 -0.150257,0 -0.423802,-0.18147 -0.607878,-0.40327 z m 1.185053,-0.1435 c -0.09592,-0.1552 -0.117655,-0.33893 -0.0483,-0.40829 0.06935,-0.0693 0.196602,0.0576 0.282774,0.28219 0.178906,0.46622 0.02643,0.54823 -0.234474,0.1261 z m 7.700806,-0.32454 c 0.09936,-0.26094 0.247304,-0.40778 0.328766,-0.32632 0.08146,0.0815 1.7e-4,0.29496 -0.180652,0.47444 -0.261308,0.25936 -0.291698,0.22897 -0.148114,-0.14812 z m -11.410738,-0.78234 -0.777105,-0.85989 0.859896,0.7771 c 0.472943,0.42741 0.859896,0.81436 0.859896,0.8599 0,0.20441 -0.218316,0.0244 -0.942687,-0.77711 z m 10.486284,0.67708 c 0.01023,-0.11773 0.12092,-0.45218 0.245986,-0.74322 0.219231,-0.51018 0.228058,-0.50837 0.245986,0.0505 0.01024,0.31883 -0.100465,0.65328 -0.245986,0.74322 -0.145521,0.0899 -0.256214,0.0672 -0.245986,-0.0505 z m -9.048181,-1.07395 c -0.329107,-0.41965 -0.319749,-0.429 0.0999,-0.0999 0.254662,0.19972 0.463021,0.40808 0.463021,0.46302 0,0.21777 -0.217273,0.0776 -0.562917,-0.36312 z m 4.805453,-0.049 c -0.164042,-0.30652 -0.210744,-0.6989 -0.103786,-0.87196 0.122478,-0.19817 0.270695,-0.0297 0.400362,0.45519 0.254112,0.95016 0.102733,1.16288 -0.296576,0.41677 z m 8.722047,0.41207 c 0,-0.0549 0.20836,-0.2633 0.463021,-0.46302 0.419645,-0.3291 0.429004,-0.31975 0.0999,0.0999 -0.345643,0.44073 -0.562917,0.58089 -0.562917,0.36312 z m -7.703727,-0.42927 c -0.0897,-0.21828 -0.03017,-0.93265 0.132292,-1.5875 0.186848,-0.75312 0.282514,-3.91099 0.260342,-8.59382 -0.01929,-4.07176 0.06329,-7.64363 0.18347,-7.9375 0.121716,-0.2976 0.220271,3.18718 0.222469,7.86622 0.0024,4.81053 -0.09791,8.40052 -0.234402,8.40052 -0.131093,0 -0.274963,0.50601 -0.319709,1.12448 -0.04475,0.61846 -0.154755,0.94588 -0.244462,0.7276 z m -3.971689,-0.46302 c -0.329108,-0.41964 -0.319749,-0.429 0.0999,-0.0999 0.254661,0.19972 0.46302,0.40808 0.46302,0.46302 0,0.21776 -0.217273,0.0776 -0.562916,-0.36313 z m 4.531666,-0.16721 c 0,-0.3638 0.119063,-0.73504 0.264584,-0.82498 0.149439,-0.0924 0.264583,0.12434 0.264583,0.49794 0,0.3638 -0.119062,0.73504 -0.264583,0.82498 -0.14944,0.0924 -0.264584,-0.12434 -0.264584,-0.49794 z m 0.69777,-0.8063 c -0.100108,-0.85177 -0.139486,-1.5912 -0.08751,-1.64318 0.206218,-0.20621 0.607538,2.22823 0.444124,2.69408 -0.112726,0.32136 -0.239109,-0.0511 -0.356619,-1.0509 z m 4.85848,0.77507 c 0.341776,-0.3638 0.68094,-0.66145 0.7537,-0.66145 0.07276,0 -0.147341,0.29765 -0.489116,0.66145 -0.341776,0.36381 -0.68094,0.66146 -0.7537,0.66146 -0.07276,0 0.147341,-0.29765 0.489116,-0.66146 z m 0.264584,0.56157 c 0,-0.0549 0.208359,-0.2633 0.463021,-0.46302 0.419645,-0.32911 0.429003,-0.31975 0.0999,0.0999 -0.345644,0.44073 -0.562917,0.58089 -0.562917,0.36313 z m 3.065986,-0.16469 c 0.128262,-0.21828 0.235027,-0.47625 0.237255,-0.57327 0.0021,-0.097 0.08441,-0.25675 0.182634,-0.35497 0.09822,-0.0982 0.150595,0.0121 0.116384,0.24521 -0.03421,0.23309 -0.221337,0.57143 -0.415837,0.75185 -0.286613,0.26588 -0.309438,0.25284 -0.120436,-0.0688 z m -17.246333,-0.59531 -0.504028,-0.59532 0.595312,0.50403 c 0.327422,0.27722 0.595313,0.54511 0.595313,0.59532 0,0.21173 -0.212934,0.0554 -0.686597,-0.50403 z m 10.625482,0.25317 c 0.09936,-0.26094 0.247303,-0.40778 0.328766,-0.32632 0.08146,0.0815 1.69e-4,0.29495 -0.180652,0.47443 -0.261308,0.25936 -0.291698,0.22897 -0.148114,-0.14811 z m -5.265642,-0.86998 c -0.246775,-0.51749 -0.367705,-1.07191 -0.26874,-1.23204 0.09897,-0.16013 0.333891,0.23025 0.522054,0.86752 0.427668,1.44842 0.330348,1.58847 -0.253314,0.36452 z m -4.486344,0.14586 c -0.245467,-0.28668 -0.342985,-0.52124 -0.216707,-0.52124 0.290936,0 0.938697,0.7668 0.780989,0.92451 -0.06489,0.0649 -0.318815,-0.11658 -0.564282,-0.40327 z m 12.188341,-0.12139 c 0.251378,-0.33545 0.559059,-0.54777 0.683736,-0.47181 0.124677,0.076 0.08474,0.22583 -0.08874,0.33305 -0.173485,0.10722 -0.275495,0.28935 -0.226684,0.40473 0.04881,0.11537 -0.11693,0.23996 -0.368308,0.27686 -0.433018,0.0636 -0.433018,0.035 0,-0.54283 z m 5.29141,0.36955 c 0.176233,-0.23166 0.232161,-0.51864 0.124282,-0.63773 -0.107876,-0.11908 -0.05748,-0.13715 0.11199,-0.0402 0.169471,0.097 0.361532,0.0268 0.4268,-0.15602 0.06527,-0.18281 0.194027,-0.26339 0.286136,-0.17908 0.09211,0.0843 -0.155876,0.4415 -0.551082,0.79375 -0.395205,0.35225 -0.574363,0.45091 -0.398126,0.21923 z M 28.76484,248.53441 c -0.639688,-0.65179 -1.081196,-1.26695 -0.981131,-1.36701 0.100065,-0.10007 0.181936,-0.036 0.181936,0.14236 0,0.17836 0.122012,0.24889 0.27114,0.15672 0.149124,-0.0922 0.238421,-0.0153 0.198437,0.1708 -0.03999,0.1861 0.07613,0.34378 0.258027,0.35039 0.181901,0.007 0.337939,0.13109 0.34675,0.27661 0.0088,0.14552 0.267689,0.53247 0.575286,0.8599 1.03211,1.09863 0.326041,0.60898 -0.850445,-0.58977 z m 13.637606,0.57836 c 0.09936,-0.26094 0.247304,-0.40779 0.328766,-0.32632 0.08146,0.0815 1.7e-4,0.29495 -0.180652,0.47443 -0.261308,0.25936 -0.291698,0.22897 -0.148114,-0.14811 z m 4.172226,-0.0431 c 0,-0.21188 0.10116,-0.32272 0.224803,-0.2463 0.12364,0.0764 0.156302,0.24977 0.07258,0.38524 -0.213948,0.34617 -0.297381,0.30719 -0.297381,-0.13894 z m -11.343865,-0.6907 c -0.09592,-0.1552 -0.117655,-0.33893 -0.0483,-0.40829 0.06935,-0.0693 0.196601,0.0576 0.282774,0.28219 0.178905,0.46622 0.02643,0.54823 -0.234474,0.1261 z m 11.942678,0.0589 c -0.09156,-0.14815 -0.03755,-0.34904 0.12003,-0.44643 0.406792,-0.2514 0.669256,0.093 0.329666,0.43256 -0.190018,0.19001 -0.338011,0.19458 -0.449696,0.0139 z m -5.801286,-0.77306 c 0.08309,-0.32969 0.255762,-0.66414 0.383717,-0.74322 0.362095,-0.22379 0.273894,0.26026 -0.151069,0.82906 -0.370197,0.4955 -0.378394,0.49247 -0.232648,-0.0858 z m -0.685665,-0.21637 c 0.0127,-0.30822 0.07539,-0.37092 0.15985,-0.15985 0.07643,0.19099 0.06703,0.4192 -0.02088,0.50712 -0.08792,0.0879 -0.150453,-0.0684 -0.138965,-0.34727 z M 32.43223,247.42 c -0.01722,-0.11773 -0.01614,-0.30666 0.0024,-0.41985 0.01857,-0.11319 -0.14591,-0.27476 -0.365541,-0.35904 -0.406781,-0.15609 -0.561808,-0.6326 -0.200892,-0.61747 0.380923,0.016 1.131895,1.27879 0.860287,1.44665 -0.145735,0.0901 -0.279075,0.0674 -0.296307,-0.0503 z m 3.735498,-0.19844 c 0,-0.20969 0.107958,-0.44798 0.239908,-0.52953 0.131951,-0.0815 0.177594,0.09 0.101434,0.38126 -0.161558,0.6178 -0.341342,0.69589 -0.341342,0.14827 z m 1.608389,-0.56683 c 0.0127,-0.30822 0.07539,-0.37092 0.159851,-0.15985 0.07643,0.19099 0.06703,0.4192 -0.02088,0.50712 -0.08792,0.0879 -0.150453,-0.0684 -0.138964,-0.34727 z m -1.872972,-0.62379 c 0,-0.63886 0.147137,-0.70331 0.357013,-0.15638 0.08197,0.21362 0.03518,0.45877 -0.103984,0.54478 -0.139166,0.086 -0.253029,-0.0888 -0.253029,-0.3884 z m 1.5875,-0.25172 c 0,-0.17836 -0.11116,-0.25559 -0.247023,-0.17163 -0.135861,0.084 -0.235,-0.23642 -0.220308,-0.71198 l 0.02672,-0.86466 0.365919,0.89067 c 0.201252,0.48987 0.300392,0.9562 0.220308,1.03629 -0.08009,0.0801 -0.145611,-3.2e-4 -0.145611,-0.17869 z m 7.028492,-0.26551 c -0.08057,-0.13036 0.08483,-0.51731 0.367549,-0.85989 l 0.514037,-0.62287 -0.149439,0.59531 c -0.08219,0.32742 -0.261644,0.59531 -0.39878,0.59531 -0.137136,0 -0.175755,0.11906 -0.08582,0.26459 0.08994,0.14552 0.10399,0.26458 0.03123,0.26458 -0.07276,0 -0.19821,-0.10666 -0.278778,-0.23703 z m -3.853492,-0.40881 c 0,-0.58921 0.414343,-0.70648 0.4578,-0.12958 0.02117,0.28096 -0.07318,0.51084 -0.209661,0.51084 -0.136477,0 -0.248139,-0.17157 -0.248139,-0.38126 z m -7.408334,-2.51355 c 0,-0.13693 0.1177,-0.32171 0.261554,-0.41061 0.149982,-0.0927 0.194337,0.0135 0.103984,0.24896 -0.175892,0.45837 -0.365538,0.54224 -0.365538,0.16165 z"
         id="path2874"
         inkscape:connector-curvature="0" />
    </g>
  </g>
</svg>
