<?xml version="1.0" encoding="UTF-8" standalone="no"?>
<!-- Created with Inkscape (http://www.inkscape.org/) -->

<svg
   xmlns:dc="http://purl.org/dc/elements/1.1/"
   xmlns:cc="http://creativecommons.org/ns#"
   xmlns:rdf="http://www.w3.org/1999/02/22-rdf-syntax-ns#"
   xmlns:svg="http://www.w3.org/2000/svg"
   xmlns="http://www.w3.org/2000/svg"
   xmlns:sodipodi="http://sodipodi.sourceforge.net/DTD/sodipodi-0.dtd"
   xmlns:inkscape="http://www.inkscape.org/namespaces/inkscape"
   version="1.1"
   id="svg2949"
   width="283"
   height="443"
   viewBox="0 0 283 443"
   sodipodi:docname="feu54.svg"
   inkscape:version="0.92.4 (5da689c313, 2019-01-14)">
  <metadata
     id="metadata2955">
    <rdf:RDF>
      <cc:Work
         rdf:about="">
        <dc:format>image/svg+xml</dc:format>
        <dc:type
           rdf:resource="http://purl.org/dc/dcmitype/StillImage" />
        <dc:title />
      </cc:Work>
    </rdf:RDF>
  </metadata>
  <defs
     id="defs2953" />
  <sodipodi:namedview
     pagecolor="#ffffff"
     bordercolor="#666666"
     borderopacity="1"
     objecttolerance="10"
     gridtolerance="10"
     guidetolerance="10"
     inkscape:pageopacity="0"
     inkscape:pageshadow="2"
     inkscape:window-width="1920"
     inkscape:window-height="1017"
     id="namedview2951"
     showgrid="false"
     inkscape:zoom="1.5067919"
     inkscape:cx="14.592419"
     inkscape:cy="287.86617"
     inkscape:window-x="-8"
     inkscape:window-y="-8"
     inkscape:window-maximized="1"
     inkscape:current-layer="svg2949" />
  <g
     id="g6865"
     transform="translate(-6.636616,-3.3183083)">
    <path
       style="fill:#ffffff"
       d="m 138.24596,412.6705 c -1.32219,-3.30448 -1.99524,-3.93568 -3.7419,-3.50923 -1.17135,0.286 -1.56723,0.26164 -0.87973,-0.0541 2.25734,-1.03676 1.30633,-2.14086 -1.39862,-1.62378 -1.82828,0.3495 -2.42945,0.15168 -1.94099,-0.63867 0.38921,-0.62975 1.46859,-1.155 2.39863,-1.16723 1.33126,-0.0175 1.15916,-0.45629 -0.80902,-2.06268 -2.41574,-1.97168 -2.42417,-2.01921 -0.25,-1.41038 1.26235,0.3535 2.25,0.18744 2.25,-0.3783 0,-0.5546 -0.45,-1.28648 -1,-1.6264 -0.55,-0.33992 -1,-1.11122 -1,-1.714 0,-0.60279 0.96738,-0.23873 2.14974,0.80901 l 2.14973,1.90499 -0.66507,-3 c -0.62063,-2.79953 -0.56566,-2.8728 0.82274,-1.0965 1.16918,1.49582 1.5916,1.60291 1.97235,0.5 0.26648,-0.77193 0.66144,-2.7535 0.87768,-4.4035 0.26483,-2.02074 0.44207,-1.4495 0.543,1.75 0.0824,2.6125 0.57747,4.75 1.10014,4.75 0.52267,0 1.38892,-0.78375 1.925,-1.74167 1.43767,-2.56899 2.49379,-0.81652 1.08938,1.80765 -1.03223,1.92874 -0.97445,2.14742 0.41898,1.58565 4.44881,-1.79355 5.03669,-1.83826 2.86633,-0.21797 -1.2375,0.92386 -2.25,2.07124 -2.25,2.54972 0,0.47848 0.7875,1.07577 1.75,1.32729 1.66667,0.43555 1.66667,0.46285 0,0.57333 -0.9625,0.0638 -1.75,0.6495 -1.75,1.30155 0,0.65205 1.0125,2.27521 2.25,3.60702 l 2.25,2.42147 -3.87803,-2.16185 c -3.02413,-1.68583 -3.74766,-1.82213 -3.28599,-0.61901 0.35033,0.91294 0.0964,1.44566 -0.62197,1.30482 -0.75207,-0.14744 -1.13679,0.8084 -1.01106,2.512 0.11162,1.5125 -0.005,2.75 -0.2581,2.75 -0.25357,0 -1.18652,-1.81315 -2.07322,-4.02922 z m -3.86035,0.65234 c 0.94531,-1.44271 1.90782,-2.62312 2.13891,-2.62312 0.72338,0 -1.6049,3.85397 -2.75929,4.56743 -0.6041,0.37335 -0.32492,-0.50159 0.62038,-1.94431 z m 3.54387,-31.12312 c -0.12523,-4.38004 -1.36235,-5.85208 -4.1803,-4.97411 -2.35971,0.7352 -2.36271,0.72632 -0.46986,-1.39299 1.88693,-2.11268 1.88266,-2.1329 -0.45,-2.1329 -1.8166,0 -2.08377,-0.27122 -1.16864,-1.18635 0.91512,-0.91512 0.81111,-1.60097 -0.45499,-3 -0.90273,-0.99751 -1.31701,-1.81365 -0.92061,-1.81365 0.3964,0 1.59115,0.46583 2.65499,1.03518 1.21772,0.65171 1.93426,0.67357 1.93426,0.059 0,-0.53689 -0.45,-1.25428 -1,-1.5942 -0.55,-0.33992 -1,-1.32158 -1,-2.18146 0,-1.27633 0.27545,-1.33483 1.5,-0.31854 1.25982,1.04556 1.5,0.87444 1.5,-1.06868 0,-2.24899 0.041,-2.25939 1.4682,-0.37245 1.37415,1.81679 1.47895,1.6849 1.63618,-2.05887 0.10824,-2.57751 0.30802,-3.11094 0.56176,-1.5 0.21657,1.375 0.63933,3.61395 0.93945,4.97545 l 0.54569,2.47546 1.94091,-2.47546 1.94092,-2.47545 -0.99181,2.75 c -1.09979,3.04942 -0.34384,3.44123 3.27444,1.69714 1.52643,-0.73578 1.28076,-0.27988 -0.81574,1.51377 -1.77905,1.52206 -2.59302,2.86627 -2,3.30287 1.20934,0.89034 1.98158,4.65189 0.80585,3.92525 -1.49234,-0.92232 -4.28893,1.9641 -5.74069,5.92509 -1.40509,3.83364 -1.42539,3.84555 -1.51001,0.88588 z m 4.10729,-0.0428 c -1.67549,-3.67729 -1.35583,-4.46179 0.45586,-1.11876 0.84602,1.56112 1.3511,3.02552 1.1224,3.25422 -0.2287,0.2287 -0.93892,-0.73225 -1.57826,-2.13546 z m -2.02645,-30.9572 c -0.62451,-2.2 -1.53527,-4.62015 -2.02392,-5.37812 -0.48866,-0.75796 -1.38877,-1.0689 -2.00027,-0.69098 -0.63414,0.39192 -1.1118,0.0173 -1.1118,-0.87188 0,-0.85746 -0.5625,-1.56591 -1.25,-1.57433 -0.83882,-0.0103 -0.75658,-0.34524 0.25,-1.0183 1.30825,-0.87477 1.27629,-1.13483 -0.25,-2.03438 -2.13484,-1.2582 -2.34049,-3.37258 -0.25,-2.57038 1.66561,0.63915 2.07572,-0.88778 0.5,-1.86163 -0.55,-0.33992 -1,-1.13148 -1,-1.75902 0,-0.82185 0.33563,-0.80535 1.2,0.059 0.66,0.66 1.56,1.2 2,1.2 0.44,0 0.8,-0.7301 0.8,-1.62244 0,-1.16144 0.35518,-1.34 1.25,-0.62843 0.6875,0.54671 2.0375,0.86663 3,0.71093 0.97384,-0.15754 1.75,0.34295 1.75,1.12842 0,0.77634 0.36,1.41152 0.8,1.41152 0.44,0 1.4308,-0.5625 2.20177,-1.25 1.20061,-1.07062 1.20266,-0.98793 0.0143,0.57622 -1.18692,1.56225 -1.17995,1.95752 0.0482,2.73468 0.78964,0.49966 0.96896,0.91537 0.3985,0.92379 -1.45577,0.0215 -1.60254,4.11081 -0.21424,5.96922 0.96225,1.28809 0.92106,1.3375 -0.24679,0.29609 -0.77097,-0.6875 -1.81055,-1.25 -2.31018,-1.25 -0.49962,0 -0.62772,1.2375 -0.28466,2.75 0.56099,2.4733 0.48534,2.57392 -0.75183,1 -0.75657,-0.9625 -1.6272,-1.75 -1.93474,-1.75 -0.30753,0 -0.11686,1.60182 0.42371,3.55961 0.54057,1.95779 0.79038,4.09529 0.55512,4.75 -0.23525,0.65471 -0.93869,-0.60961 -1.5632,-2.80961 z m -10.13599,-8.5 c 0,-0.55 0.47656,-1 1.05902,-1 0.58246,0 0.7809,0.45 0.44098,1 -0.33992,0.55 -0.81648,1 -1.05902,1 -0.24254,0 -0.44098,-0.45 -0.44098,-1 z m 6.29912,-25 c 0.23453,-0.825 0.76139,-2.56885 1.17079,-3.87523 0.51183,-1.63323 0.3985,-2.16148 -0.36278,-1.69098 -0.60892,0.37633 -1.10713,0.15661 -1.10713,-0.48827 0,-0.72931 -1.11403,-1.00901 -2.94719,-0.73996 -1.62095,0.2379 -2.71939,0.064 -2.44098,-0.3865 0.27841,-0.45048 1.60465,-0.81906 2.94719,-0.81906 1.34254,0 2.44098,-0.40122 2.44098,-0.89159 0,-0.49038 -1.1434,-1.17857 -2.5409,-1.52932 -1.39749,-0.35075 -2.29704,-1.03229 -1.999,-1.51453 0.29804,-0.48224 1.51181,-0.62316 2.69727,-0.31316 1.47663,0.38615 1.93009,0.19913 1.43998,-0.59388 -0.39346,-0.63663 -0.19004,-1.15752 0.45204,-1.15752 0.7581,0 0.94873,-0.96421 0.54368,-2.75 -0.59249,-2.61217 -0.5478,-2.65271 0.89159,-0.80887 1.43867,1.84292 1.52065,1.76703 1.62019,-1.5 l 0.10486,-3.44113 1.195,3.85606 c 1.17512,3.79186 1.21479,3.81683 2.38305,1.5 l 1.18805,-2.35606 -0.23791,2.5 c -0.14477,1.52134 0.23734,2.40683 0.97611,2.262 0.70157,-0.13754 0.97299,0.39009 0.64301,1.25 -0.31469,0.82008 -0.0191,1.488 0.65844,1.488 0.84272,0 0.9193,0.39318 0.24347,1.25 -0.54227,0.6875 -0.89912,2.24163 -0.79298,3.45362 0.10614,1.21199 -0.18028,1.97293 -0.63649,1.69098 -0.4562,-0.28195 -0.82946,-0.0361 -0.82946,0.54638 0,0.58246 -0.70156,1.05902 -1.55902,1.05902 -0.85746,0 -1.2809,0.45 -0.94098,1 0.33992,0.55 0.27319,1.55796 -0.14828,2.23992 -0.51804,0.83821 -0.9629,0.43323 -1.37312,-1.25 l -0.60682,-2.48992 -1.74954,3 c -0.96225,1.65 -1.55765,2.325 -1.32312,1.5 z m 2.71619,-38.80902 c -0.008,-0.71996 -0.47646,-1.02401 -1.04009,-0.67567 -0.56362,0.34834 -0.96033,0.2624 -0.88158,-0.19098 0.46336,-2.66736 -0.38918,-3.32679 -4.34364,-3.35977 -4.07954,-0.034 -4.15371,-0.0888 -1.84917,-1.3659 2.29908,-1.27408 2.32027,-1.37911 0.5,-2.4783 -1.61437,-0.97485 -1.45284,-1.04565 1.07183,-0.46981 l 2.97266,0.67803 -1.87746,-2.91429 c -1.866,-2.8965 -1.86536,-2.90361 0.10608,-1.16429 1.09095,0.9625 2.29418,1.75 2.67385,1.75 0.37967,0 0.3821,-1.2375 0.005,-2.75 -0.61747,-2.47914 -0.52085,-2.61482 0.98095,-1.37756 1.50706,1.24162 1.68019,0.95563 1.81606,-3 l 0.1502,-4.37244 0.66164,4.5 c 0.63809,4.33988 0.70333,4.41105 1.83351,2 1.05079,-2.24167 1.1073,-2.08668 0.54689,1.5 l -0.62498,4 2.14127,-1.90499 c 1.17771,-1.04774 2.14128,-1.47524 2.14128,-0.95 0,0.52525 -0.54,1.49499 -1.2,2.15499 -0.93333,0.93333 -0.76667,1.2034 0.75,1.21531 1.62991,0.0128 1.70377,0.17695 0.45,1 -1.33333,0.87528 -1.33333,1.0941 0,1.96938 1.28415,0.84299 1.24817,0.98689 -0.25,1 -2.01979,0.0177 -2.34159,1.57694 -0.5,2.42275 0.6875,0.31575 0.19888,0.31067 -1.08583,-0.0113 -2.18062,-0.5465 -2.2528,-0.42961 -1.08628,1.75923 1.15604,2.16917 1.11934,2.23719 -0.49039,0.90893 -1.51197,-1.2476 -1.85896,-1.2476 -2.6484,0 -0.68602,1.08414 -0.91222,1.11516 -0.92379,0.12668 z m -0.93636,-31.06342 c -0.0663,-1.9927 -0.31905,-2.17319 -1.57895,-1.12756 -0.94589,0.78502 -1.5,0.85205 -1.5,0.18146 0,-0.58488 0.45,-1.34154 1,-1.68146 0.55,-0.33992 1,-1.0718 1,-1.6264 0,-0.56251 -0.99486,-0.7346 -2.25,-0.38921 -2.18667,0.60174 -2.19536,0.57549 -0.30887,-0.93261 1.85055,-1.47937 1.78056,-1.55533 -1.5,-1.62786 l -3.44113,-0.0761 3.5,-1.34784 c 1.925,-0.74131 3.02351,-1.38208 2.44113,-1.42392 -0.58238,-0.0418 -1.93238,-0.77438 -3,-1.62786 -1.88649,-1.5081 -1.8778,-1.53435 0.30887,-0.93261 1.2375,0.34054 2.25,0.34801 2.25,0.0166 0,-0.33141 -0.75724,-1.82423 -1.68277,-3.31738 l -1.68276,-2.71482 2.43276,2.48698 2.43277,2.48699 0.5234,-4.98699 0.52341,-4.98698 0.84419,3.5 c 0.46431,1.925 1.081,3.89926 1.37043,4.38724 0.28943,0.48798 1.13907,-0.41202 1.88808,-2 l 1.36184,-2.88724 -0.52473,2.75 c -0.2886,1.5125 -0.15615,2.75 0.29433,2.75 0.45048,0 1.40963,-0.5625 2.13144,-1.25 1.07114,-1.02021 1.18515,-0.82919 0.62021,1.03908 -0.63124,2.08754 -0.44304,2.23704 2.13761,1.69809 l 2.82979,-0.59099 -3,1.80191 -3,1.80191 3.25,0.31336 c 1.7875,0.17235 3.25,0.73485 3.25,1.25 0,0.51515 -1.36583,0.93664 -3.03518,0.93664 -2.77102,0 -2.93762,0.18231 -1.91418,2.09463 1.01298,1.89276 0.90687,2.02666 -1.10098,1.38939 -2.01888,-0.64077 -2.1676,-0.44374 -1.62692,2.15537 l 0.59508,2.86061 -1.37502,-3 -1.37502,-3 -0.94031,2.5 c -0.51717,1.375 -1.19439,3.175 -1.50494,4 -0.36144,0.96019 -0.59305,0.64622 -0.64358,-0.87244 z m 0.0958,-33.5 c -0.15093,-4.20814 -0.37926,-4.70272 -1.67475,-3.62756 -0.825,0.68469 -1.5,0.80219 -1.5,0.26112 0,-0.54108 -1.2375,-0.79649 -2.75,-0.56758 l -2.75,0.4162 2.40083,-1.42077 c 2.29634,-1.35895 2.3181,-1.46881 0.5,-2.52446 -1.75711,-1.02025 -1.71181,-1.1084 0.59917,-1.1659 2.29316,-0.0571 2.35521,-0.17212 0.75,-1.39066 -0.9625,-0.73064 -1.75,-1.6022 -1.75,-1.93681 0,-0.3346 0.675,-0.34935 1.5,-0.0328 0.825,0.31659 1.5,0.28012 1.5,-0.081 0,-0.36116 -0.70818,-2.02612 -1.57374,-3.69992 -0.86555,-1.6738 -1.31555,-3.30145 -1,-3.61701 0.31556,-0.31555 0.58375,-0.16123 0.59598,0.34293 0.0122,0.50417 0.94323,2.04167 2.0689,3.41667 l 2.04667,2.5 -0.51971,-5 -0.51971,-5 1.42937,4.39523 c 0.78615,2.41737 1.67974,4.64561 1.98576,4.95163 0.30602,0.30602 0.42817,-22.82183 0.27144,-51.39523 l -0.28496,-51.951638 -4.60927,-6 c -2.5351,-3.3 -8.44405,-11.175 -13.131,-17.5 -4.68695,-6.325 -10.14591,-13.525 -12.13102,-16 -1.98511,-2.475 -3.61367,-4.97185 -3.619,-5.548555 -0.005,-0.576705 1.75751,-2.8877 3.91744,-5.135546 2.15993,-2.247845 6.67367,-5.459443 10.03052,-7.136884 3.35686,-1.677441 8.62334,-3.573034 11.70329,-4.212429 4.46805,-0.927564 5.76025,-0.90308 6.39326,0.121137 0.60936,0.985968 1.11957,1.012931 2.19999,0.116262 1.11596,-0.926165 1.94362,-0.602902 4.00509,1.564302 1.42915,1.502442 3.75003,4.756713 5.15753,7.231713 1.40749,2.475 2.5645,3.75772 2.57112,2.850489 0.007,-0.907231 -1.51459,-3.91809 -3.38049,-6.690798 -1.86589,-2.772707 -3.19371,-5.24011 -2.9507,-5.483116 0.64447,-0.644474 7.41984,1.005612 13.53304,3.295863 7.49731,2.808793 19.50182,13.66928 17.41539,15.755709 -0.30627,0.30627 -1.13023,0.121516 -1.83102,-0.410563 -1.68563,-1.279825 -8.91768,-3.317584 -11.77417,-3.317584 -1.24738,0 -4.01551,0.523578 -6.1514,1.163506 -3.39001,1.015672 -4.07132,1.746259 -5.36215,5.75 l -1.47872,4.586494 0.55508,-4.078635 c 0.40326,-2.963069 0.13644,-4.426075 -0.97552,-5.348917 -2.71096,-2.249902 -8.31213,-2.936455 -13.34083,-1.635229 -5.17263,1.338469 -5.04031,0.999773 -3.93148,10.062781 0.60971,4.983482 0.60638,4.979603 -1.00801,-1.174265 -0.94628,-3.607096 -2.28235,-6.420292 -3.21336,-6.765981 -0.87648,-0.325445 -2.71861,-1.252892 -4.09361,-2.060994 -1.375,-0.808102 -4.075,-1.473401 -6,-1.478441 -3.85001,-0.01008 -11,1.726356 -11,2.671445 0,0.328766 0.93907,1.545115 2.08681,2.702996 2.60531,2.628308 13.01744,15.983415 19.18315,24.60524 2.55659,3.575 5.81879,7.85 7.24933,9.5 l 2.601,3 -0.55539,-4 c -0.5525,-3.979202 -0.54475,-3.972967 1.49075,1.199085 1.61008,4.091085 2.40824,5.063475 3.74524,4.562765 1.53385,-0.57442 1.55322,-0.45736 0.19911,1.20355 -1.28207,1.57255 -1.53688,9.263588 -1.75387,52.937228 -0.22616,45.51894 -0.0921,50.82444 1.2276,48.59737 1.46752,-2.47644 1.47539,-2.46702 0.83522,1 -0.61145,3.31147 -0.54629,3.4192 1.20963,2 1.68911,-1.36521 1.79469,-1.33686 1.17494,0.31539 -0.57013,1.51998 -0.3171,1.69991 1.55493,1.10576 1.91076,-0.60646 2.05398,-0.49048 0.98496,0.7976 -1.07122,1.29075 -0.85464,1.45236 1.50785,1.1251 2.34998,-0.32553 2.46241,-0.24353 0.75874,0.55347 -1.1,0.51459 -2.9,1.2689 -4,1.67624 -1.7713,0.65593 -1.65694,0.82349 1,1.46522 l 3,0.72459 -3.35699,0.11832 c -2.54666,0.0898 -3.21804,0.48039 -2.78138,1.61831 0.3471,0.90455 0.005,1.5 -0.86163,1.5 -0.94524,0 -1.21877,0.59906 -0.79905,1.75 0.58497,1.60408 0.46247,1.59586 -1.46907,-0.0986 -2.09946,-1.84176 -2.10868,-1.83251 -2.49486,2.5 l -0.38761,4.34859 -0.1747,-4.87244 z M 134.87433,76.699722 c -0.67396,-2.809375 -1.02653,-5.306807 -0.78348,-5.549848 0.24304,-0.243042 0.97637,1.87362 1.62963,4.703694 0.65326,2.830074 1.00583,5.327506 0.78349,5.549849 -0.22234,0.222342 -0.95568,-1.89432 -1.62964,-4.703695 z m 19,3.622445 c 0,-0.207656 0.7875,-0.995156 1.75,-1.75 1.58606,-1.243871 1.62143,-1.208501 0.37756,0.377555 -1.30637,1.665748 -2.12756,2.195479 -2.12756,1.372445 z m 4.5,-5.622445 c 0.99549,-1.1 2.03498,-2 2.30998,-2 0.275,0 -0.31449,0.9 -1.30998,2 -0.99549,1.1 -2.03498,2 -2.30998,2 -0.275,0 0.31449,-0.9 1.30998,-2 z m -11.42105,-3.583333 c 0.048,-1.164943 0.28494,-1.4019 0.60416,-0.604167 0.28887,0.721875 0.25335,1.584375 -0.0789,1.916667 -0.3323,0.332291 -0.56864,-0.258334 -0.52522,-1.3125 z m 15.92105,-1.146084 c 0,-0.868885 7.11662,-9.802506 9.77488,-12.270583 1.43607,-1.333333 1.49951,-1.333333 0.57093,0 -0.57456,0.825 -3.13741,4.105011 -5.69523,7.288914 -2.55782,3.183902 -4.65058,5.425653 -4.65058,4.981669 z m -29.92105,-1.853916 c 0.048,-1.164943 0.28494,-1.4019 0.60416,-0.604167 0.28887,0.721875 0.25335,1.584375 -0.0789,1.916667 -0.3323,0.332291 -0.56864,-0.258334 -0.52522,-1.3125 z"
       id="path6871"
       inkscape:connector-curvature="0" />
    <path
       style="fill:#ffff00"
       d="m 139.34295,415.19972 c -1.60852,-5.14874 -1.43362,-5.06526 -4.09909,-1.95643 l -2.53482,2.95643 2.08265,-3.15437 c 1.14545,-1.7349 2.08264,-3.45273 2.08264,-3.81739 0,-0.36466 -1.0125,-0.41184 -2.25,-0.10486 -1.2375,0.30699 -1.6875,0.29981 -1,-0.0159 2.25734,-1.03676 1.30633,-2.14086 -1.39862,-1.62378 -1.82828,0.3495 -2.42945,0.15168 -1.94099,-0.63867 0.38921,-0.62975 1.46859,-1.155 2.39863,-1.16723 1.33126,-0.0175 1.15916,-0.45629 -0.80902,-2.06268 -2.41574,-1.97168 -2.42417,-2.01921 -0.25,-1.41038 1.26235,0.3535 2.25,0.18744 2.25,-0.3783 0,-0.5546 -0.45,-1.28648 -1,-1.6264 -0.55,-0.33992 -1,-1.11122 -1,-1.714 0,-0.60279 0.96546,-0.23873 2.14547,0.80901 l 2.14548,1.90499 -0.55096,-2.98098 c -0.50443,-2.72926 -0.43459,-2.82185 0.82701,-1.09651 1.08005,1.47706 1.48141,1.58105 1.85645,0.48099 0.26316,-0.77193 0.66426,-2.5285 0.89133,-3.9035 0.24844,-1.50442 0.46709,-0.80751 0.54904,1.75 0.0749,2.3375 0.56382,4.25 1.08649,4.25 0.52267,0 1.38892,-0.78375 1.925,-1.74167 1.43767,-2.56899 2.49379,-0.81652 1.08938,1.80765 -1.03223,1.92874 -0.97445,2.14742 0.41898,1.58565 4.44881,-1.79355 5.03669,-1.83826 2.86633,-0.21797 -1.2375,0.92386 -2.25,2.10423 -2.25,2.62304 0,0.51882 0.7875,0.97182 1.75,1.00669 1.26271,0.0457 1.07867,0.33179 -0.66093,1.0273 l -2.41093,0.96392 2.91093,3.06761 2.91093,3.0676 -3.9373,-2.3042 c -3.27784,-1.91826 -3.82821,-2.01991 -3.28599,-0.6069 0.40767,1.06236 0.19717,1.60825 -0.5627,1.45928 -0.75207,-0.14744 -1.13679,0.8084 -1.01106,2.512 0.2193,2.97162 -0.47638,3.67614 -1.23433,1.25 z m -1.40499,-33 c -0.13776,-4.38453 -1.37303,-5.85139 -4.18878,-4.97411 -2.35971,0.7352 -2.36271,0.72632 -0.46986,-1.39299 1.88693,-2.11268 1.88266,-2.1329 -0.45,-2.1329 -1.8166,0 -2.08377,-0.27122 -1.16864,-1.18635 0.91512,-0.91512 0.81111,-1.60097 -0.45499,-3 -0.90273,-0.99751 -1.31701,-1.81365 -0.92061,-1.81365 0.3964,0 1.59115,0.46583 2.65499,1.03518 1.21772,0.65171 1.93426,0.67357 1.93426,0.059 0,-0.53689 -0.45,-1.25428 -1,-1.5942 -0.55,-0.33992 -1,-1.32158 -1,-2.18146 0,-1.27633 0.27545,-1.33483 1.5,-0.31854 1.25982,1.04556 1.5,0.87444 1.5,-1.06868 0,-2.24899 0.041,-2.25939 1.4682,-0.37245 1.37415,1.81679 1.47895,1.6849 1.63618,-2.05887 0.10824,-2.57751 0.30802,-3.11094 0.56176,-1.5 0.21657,1.375 0.63933,3.61395 0.93945,4.97545 l 0.54569,2.47546 1.94091,-2.47546 1.94092,-2.47545 -1.01656,2.8151 c -0.5591,1.5483 -1.01655,3.02236 -1.01655,3.27568 0,0.25332 1.4625,-0.24664 3.25,-1.11103 l 3.25,-1.57161 -3,2.55971 c -1.77873,1.51767 -2.59291,2.85941 -2,3.29593 1.81845,1.33878 1.43753,2.93169 -1.01493,4.24421 -1.36528,0.73067 -3.05277,3.08047 -3.87325,5.3934 -1.39825,3.94165 -1.45753,3.98373 -1.54819,1.09861 z m 3.89053,-0.58565 c -0.61391,-1.1471 -0.92784,-2.274 -0.69762,-2.50422 0.23022,-0.23022 0.93203,0.70832 1.55958,2.08564 0.62755,1.37733 0.94148,2.50423 0.69762,2.50423 -0.24385,0 -0.94566,-0.93854 -1.55958,-2.08565 z m -2.28119,-31.97242 c -1.28055,-3.60547 -2.23189,-4.94143 -3.2426,-4.55358 -0.84035,0.32247 -1.43037,-0.0569 -1.43037,-0.91973 0,-0.80774 -0.5625,-1.47551 -1.25,-1.48393 -0.83893,-0.0103 -0.75672,-0.34539 0.25,-1.01901 1.29833,-0.86874 1.23902,-1.2028 -0.44113,-2.48468 -1.73241,-1.32176 -1.4653,-1.93991 0.69113,-1.59942 1.10534,0.17453 0.91243,-1.66316 -0.25,-2.38158 -0.55,-0.33992 -1,-1.13148 -1,-1.75902 0,-0.82185 0.33563,-0.80535 1.2,0.059 0.66,0.66 1.56,1.2 2,1.2 0.44,0 0.8,-0.6 0.8,-1.33333 0,-0.73334 0.65521,-1.33334 1.45601,-1.33334 0.80081,0 1.18044,0.44589 0.84363,0.99086 -0.36732,0.59434 0.25055,0.7652 1.54399,0.42695 1.50698,-0.39408 2.15637,-0.10815 2.15637,0.94947 0,0.91073 0.57703,1.29194 1.44907,0.95731 0.96852,-0.37166 1.26467,-0.0755 0.89301,0.89301 -0.31619,0.82398 0.0293,1.45568 0.80093,1.46438 0.82002,0.009 0.96128,0.30604 0.35699,0.75 -1.56499,1.14978 -1.74678,4.21712 -0.3591,6.05888 1.06658,1.41558 1.04497,1.48171 -0.13913,0.42581 -0.77097,-0.6875 -1.81055,-1.25 -2.31018,-1.25 -0.49962,0 -0.62772,1.2375 -0.28466,2.75 0.56099,2.4733 0.48534,2.57392 -0.75183,1 -0.75657,-0.9625 -1.6272,-1.75 -1.93474,-1.75 -0.30753,0 -0.11686,1.60182 0.42371,3.55961 1.57233,5.69452 0.51337,5.96972 -1.4711,0.38232 z m -9.67297,-6.94193 c 0,-0.55 0.47656,-1 1.05902,-1 0.58246,0 0.7809,0.45 0.44098,1 -0.33992,0.55 -0.81648,1 -1.05902,1 -0.24254,0 -0.44098,-0.45 -0.44098,-1 z m 9.9682,-27.19098 c -0.0314,-2.28267 -0.0499,-2.28619 -1.61873,-0.30902 -1.53505,1.93461 -1.56626,1.91082 -0.95478,-0.72758 0.53837,-2.32292 0.2596,-2.82108 -1.87903,-3.35785 -1.38115,-0.34664 -3.21057,-0.36189 -4.06536,-0.0339 -0.89169,0.34217 -1.29375,0.17501 -0.94322,-0.39215 0.33602,-0.5437 1.7094,-0.98855 3.05194,-0.98855 1.34254,0 2.44098,-0.40122 2.44098,-0.89159 0,-0.49038 -1.1434,-1.17857 -2.5409,-1.52932 -1.39749,-0.35075 -2.29704,-1.03229 -1.999,-1.51453 0.29804,-0.48224 1.51181,-0.62316 2.69727,-0.31316 1.47663,0.38615 1.93009,0.19913 1.43998,-0.59388 -0.39346,-0.6366 -0.19004,-1.15749 0.45204,-1.15749 0.7581,0 0.94873,-0.96421 0.54368,-2.75 -0.59249,-2.61217 -0.5478,-2.65271 0.89159,-0.80887 1.43864,1.84288 1.52057,1.76695 1.61869,-1.5 l 0.10335,-3.44113 1.03138,3.89964 1.03138,3.89965 1.42794,-2.39965 1.42794,-2.39964 -0.51464,2.42436 c -0.3546,1.67038 0.13999,2.99212 1.59033,4.25 1.15775,1.0041 1.59492,1.82564 0.97151,1.82564 -0.6665,0 -0.99176,1.21722 -0.78948,2.95451 0.1892,1.62498 0.0679,2.90354 -0.26953,2.84124 -0.33744,-0.0623 -1.37262,0.22042 -2.30039,0.62825 -0.92777,0.40783 -1.45959,1.33376 -1.18182,2.05761 0.27776,0.72385 0.0243,1.61316 -0.56315,1.97626 -0.63728,0.39386 -1.081,-0.27128 -1.09997,-1.64885 z m -1.95799,-38.28994 c -1.04874,-1.95958 -2.14353,-2.52614 -4.92919,-2.55088 -3.25923,-0.029 -3.4175,-0.15576 -1.76125,-1.41127 1.7597,-1.33392 1.7597,-1.41483 0,-2.45106 -1.43857,-0.84712 -1.0866,-0.94027 1.68023,-0.44469 l 3.5,0.62692 -2.5,-2.8869 c -1.74643,-2.01671 -1.87341,-2.36155 -0.42126,-1.14405 1.14331,0.95857 2.38938,1.74285 2.76905,1.74285 0.37967,0 0.3821,-1.2375 0.005,-2.75 -0.60701,-2.43717 -0.50276,-2.59996 0.91647,-1.43106 1.41186,1.16283 1.64831,0.86693 1.99777,-2.5 0.39438,-3.79968 0.3973,-3.79625 0.57979,0.68106 0.13505,3.31345 0.43902,4.10448 1.15279,3 0.7711,-1.19319 0.97251,-0.99887 0.98469,0.95 0.0119,1.90556 0.28198,2.18333 1.21531,1.25 1.73488,-1.73488 3.27568,-1.47808 1.8,0.3 -1.03093,1.24219 -0.92307,1.50263 0.62756,1.51531 1.57883,0.0129 1.63723,0.16972 0.37244,1 -1.33333,0.87528 -1.33333,1.0941 0,1.96938 1.28415,0.84299 1.24817,0.98689 -0.25,1 -2.01979,0.0177 -2.34159,1.57694 -0.5,2.42275 0.6875,0.31575 0.2375,0.32293 -1,0.0159 -1.2375,-0.30698 -2.25,-0.16783 -2.25,0.30923 0,0.47707 0.5625,1.49819 1.25,2.26916 1.07062,1.20061 0.98793,1.20266 -0.57622,0.0143 -1.39813,-1.06223 -2.00075,-1.10506 -2.5708,-0.18269 -0.50957,0.8245 -1.17014,0.40965 -2.09277,-1.3143 z m 0.0659,-29.39152 c -0.0639,-1.9928 -0.31612,-2.17324 -1.57608,-1.12756 -0.94589,0.78502 -1.5,0.85205 -1.5,0.18146 0,-0.58488 0.45,-1.34154 1,-1.68146 0.55,-0.33992 1,-1.0718 1,-1.6264 0,-0.57782 -0.96072,-0.72195 -2.25,-0.33756 -2.2134,0.6599 -2.21747,0.64525 -0.25,-0.90081 1.92491,-1.51262 1.86859,-1.57546 -1.5,-1.67371 -2.80734,-0.0819 -3.10419,-0.26132 -1.5,-0.90667 1.1,-0.44252 2.30641,-0.62856 2.6809,-0.41341 0.3745,0.21515 0.96356,-0.0662 1.30902,-0.62513 0.34546,-0.55897 0.23756,-1.01631 -0.23977,-1.01631 -0.47734,0 -1.7414,-0.6983 -2.80902,-1.55178 -1.88649,-1.5081 -1.8778,-1.53435 0.30887,-0.93261 1.2375,0.34054 2.25,0.22884 2.25,-0.24822 0,-0.47707 -0.5625,-1.46247 -1.25,-2.1898 -1.03158,-1.09133 -0.85685,-1.12013 1,-0.16481 2.17713,1.12009 2.25256,1.0026 2.32895,-3.6276 0.0753,-4.56118 0.12577,-4.64475 1.07923,-1.78518 0.55015,1.65 1.22608,3.675 1.50205,4.5 0.35435,1.05927 0.92037,0.61854 1.92645,-1.5 l 1.42467,-3 -0.52473,2.75 c -0.2886,1.5125 -0.15615,2.75 0.29433,2.75 0.45048,0 1.40963,-0.5625 2.13144,-1.25 1.07114,-1.02021 1.18515,-0.82919 0.62021,1.03908 -0.63124,2.08754 -0.44304,2.23704 2.13761,1.69809 l 2.82979,-0.59099 -3,1.80191 -3,1.80191 3.25,0.31336 c 1.7875,0.17235 3.25,0.73485 3.25,1.25 0,0.51515 -1.38032,0.93664 -3.06739,0.93664 -2.72274,0 -2.98743,0.25193 -2.35575,2.24216 0.65592,2.06661 0.57028,2.12533 -1.09381,0.75 -1.67557,-1.38482 -1.76827,-1.29651 -1.2887,1.22758 0.2842,1.49585 0.13174,2.4818 -0.33881,2.19098 -0.47055,-0.29081 -0.85554,-1.2522 -0.85554,-2.1364 0,-2.21128 -1.26337,-0.77143 -2.67392,3.04745 -1.03369,2.79858 -1.18301,2.89483 -1.25,0.80579 z m 0.092,-34 c -0.14473,-3.76443 -0.37669,-4.19934 -1.66811,-3.12756 -1.06357,0.88269 -1.5,0.91277 -1.5,0.10339 0,-0.71826 -1.01961,-0.92789 -2.75,-0.56538 -2.70434,0.56654 -2.71248,0.55373 -0.49035,-0.7713 1.76752,-1.05396 1.9962,-1.61086 1.05,-2.55706 -0.9462,-0.9462 -0.78496,-1.21658 0.74035,-1.24145 1.83347,-0.0299 1.84542,-0.11119 0.2,-1.36025 -0.9625,-0.73064 -1.75,-1.6022 -1.75,-1.93681 0,-0.3346 0.675,-0.34935 1.5,-0.0328 0.825,0.31659 1.48405,0.18996 1.46456,-0.28138 -0.0195,-0.47132 -0.67854,-1.98196 -1.46456,-3.35696 -2.2991,-4.02185 -1.678,-4.83179 0.76685,-1 l 2.23315,3.5 0.34388,-3 0.34389,-3 1.3249,3 c 1.30424,2.95323 1.32739,2.96103 1.48506,0.5 0.0881,-1.375 0.39509,-1.91365 0.68222,-1.197 0.39083,0.9755 0.84993,0.8546 1.82653,-0.48098 1.15461,-1.57901 1.23938,-1.44148 0.73781,1.197 -0.53161,2.79646 -0.45227,2.88813 1.28174,1.48098 1.68173,-1.36472 1.78702,-1.33627 1.16749,0.31539 -0.57013,1.51998 -0.3171,1.69991 1.55493,1.10576 2.01806,-0.64051 2.09785,-0.54334 0.81908,0.99749 -1.2921,1.55688 -1.15939,1.65706 1.50784,1.13826 2.85959,-0.55621 2.51522,-0.32269 -2.57537,1.74639 l -2.5,1.01614 3,0.72197 3,0.72197 -3.35699,0.11832 c -2.54666,0.0898 -3.21804,0.48039 -2.78138,1.61831 0.3471,0.90455 0.005,1.5 -0.86163,1.5 -0.94524,0 -1.21877,0.59906 -0.79905,1.75 0.58571,1.60611 0.46523,1.59828 -1.46534,-0.0952 -2.08921,-1.83266 -2.10623,-1.81905 -2.50146,2 l -0.39794,3.84522 -0.16811,-4.37244 z m -2.08915,-20.71089 c 0.048,-1.16495 0.28494,-1.4019 0.60416,-0.60417 0.28887,0.72187 0.25335,1.58437 -0.0789,1.91667 -0.3323,0.33229 -0.56864,-0.25834 -0.52522,-1.3125 z m 3.07893,-94.416668 c 0,-1.375 0.22698,-1.9375 0.50439,-1.25 0.27741,0.6875 0.27741,1.8125 0,2.5 -0.27741,0.687498 -0.50439,0.124998 -0.50439,-1.25 z m 2,0 c 0,-1.375 0.22698,-1.9375 0.50439,-1.25 0.27741,0.6875 0.27741,1.8125 0,2.5 -0.27741,0.687498 -0.50439,0.124998 -0.50439,-1.25 z m -6.7836,-24.467011 c -0.30962,-0.806856 -0.36997,-2.044356 -0.1341,-2.75 0.23587,-0.705644 0.66592,-0.04549 0.95566,1.467011 0.56574,2.953223 0.099,3.682039 -0.82156,1.282989 z m -1.29534,-6.116322 c 0.048,-1.164943 0.28494,-1.4019 0.60416,-0.604167 0.28887,0.721875 0.25335,1.584375 -0.0789,1.916667 -0.3323,0.332291 -0.56864,-0.258334 -0.52522,-1.3125 z m -18.50595,-4.938138 c -1.05985,-0.801825 -1.69459,-1.690273 -1.41054,-1.974327 0.28406,-0.284055 1.33345,0.386295 2.33199,1.489667 0.99854,1.103372 1.63328,1.991819 1.41054,1.974328 -0.22275,-0.01749 -1.27214,-0.687843 -2.33199,-1.489668 z m 17.15821,-0.39837 c -0.43497,-1.663345 -0.30483,-2.053777 0.43724,-1.311709 0.5811,0.581102 0.85979,1.646819 0.61931,2.36826 -0.24965,0.748946 -0.70294,0.295653 -1.05655,-1.056551 z m -1.14826,-4.945944 c -0.43077,-0.697003 -0.51316,-1.537338 -0.18309,-1.867413 0.89497,-0.894961 1.87077,0.421303 1.38739,1.871444 -0.33872,1.016175 -0.57427,1.015386 -1.2043,-0.004 z m -4.71051,-5.884215 c -1.24387,-1.586056 -1.2085,-1.621426 0.37756,-0.377555 1.66575,1.306369 2.19548,2.127555 1.37244,2.127555 -0.20765,0 -0.99515,-0.7875 -1.75,-1.75 z m 3.7147,-1.916211 c 0.98576,-4.186139 5.44076,-12.130519 7.17585,-12.796335 1.26115,-0.483946 1.2369,-0.20659 -0.14788,1.691853 -1.83781,2.519522 -5.61511,10.453769 -5.61511,11.794581 0,0.471943 -0.46804,1.147341 -1.04008,1.500884 -0.68091,0.420823 -0.80964,-0.335799 -0.37278,-2.190983 z m 22.41286,0.166211 c 0,-1.375 0.17254,-2.5 0.38342,-2.5 0.21089,0 0.59848,1.125 0.86133,2.5 0.26285,1.375 0.0903,2.5 -0.38342,2.5 -0.47373,0 -0.86133,-1.125 -0.86133,-2.5 z m -17.25,-15.162281 c 0.6875,-0.277412 1.8125,-0.277412 2.5,0 0.6875,0.277413 0.125,0.504386 -1.25,0.504386 -1.375,0 -1.9375,-0.226973 -1.25,-0.504386 z"
       id="path6869"
       inkscape:connector-curvature="0" />
    <path
       style="fill:#d4aa00"
       d="m 139.37433,415.69972 c -0.33992,-0.55 -0.14148,-1 0.44098,-1 0.58246,0 1.05902,0.45 1.05902,1 0,0.55 -0.19844,1 -0.44098,1 -0.24254,0 -0.7191,-0.45 -1.05902,-1 z m -4.98872,-2.37688 c 0.94531,-1.44271 1.90782,-2.62312 2.13891,-2.62312 0.72338,0 -1.6049,3.85397 -2.75929,4.56743 -0.6041,0.37335 -0.32492,-0.50159 0.62038,-1.94431 z m 12.36116,-2.37312 c -1.24387,-1.58606 -1.2085,-1.62143 0.37756,-0.37756 0.9625,0.75485 1.75,1.54235 1.75,1.75 0,0.82304 -0.82119,0.29331 -2.12756,-1.37244 z m -6.17011,-0.91667 c 0.28141,-0.73333 0.64036,-1.33333 0.79767,-1.33333 0.15731,0 0.51626,0.6 0.79767,1.33333 0.28141,0.73334 -0.0775,1.33334 -0.79767,1.33334 -0.72013,0 -1.07908,-0.6 -0.79767,-1.33334 z m -5.56695,-3.35112 c -1.08482,-1.78384 -1.75339,-3.81407 -1.48572,-4.51163 0.26768,-0.69755 0.006,-1.56535 -0.58149,-1.92845 -0.58749,-0.36309 -1.06817,-1.15335 -1.06817,-1.75613 0,-0.60279 0.96546,-0.23873 2.14547,0.80901 l 2.14548,1.90499 -0.55096,-2.98098 c -0.51012,-2.76006 -0.44679,-2.83854 0.85453,-1.05887 0.77301,1.05716 1.41237,1.4986 1.42079,0.98098 0.008,-0.51762 0.4262,-0.29172 0.92839,0.50201 0.7335,1.15933 1.40938,1.21701 3.43668,0.29332 2.10498,-0.9591 2.43088,-0.90819 1.96463,0.30685 -0.30744,0.80118 -1.17172,1.45669 -1.92061,1.45669 -0.86804,0 -1.13524,0.63438 -0.7371,1.75 0.42073,1.17892 -0.0974,0.94464 -1.58768,-0.71792 -1.84706,-2.06056 -2.36546,-2.22562 -3.14061,-1 -0.51061,0.80735 -0.93528,1.80542 -0.9437,2.21792 -0.008,0.4125 0.90052,0.75 2.01987,0.75 1.80069,0 1.89644,0.25925 0.83102,2.25 -0.66229,1.2375 -1.09062,2.4 -0.95185,2.58333 0.13878,0.18334 0.0141,0.57159 -0.27713,0.86278 -0.2912,0.2912 -1.41703,-0.93006 -2.50184,-2.7139 z m -4.33538,-0.18221 c 0.93333,-0.93333 1.46667,-0.93333 2.4,0 0.93333,0.93333 0.66667,1.2 -1.2,1.2 -1.86667,0 -2.13333,-0.26667 -1.2,-1.2 z m 13.11667,-0.05 c -0.0458,-0.1375 -0.1941,-1.24163 -0.32947,-2.45362 -0.13537,-1.21199 0.0985,-1.99063 0.5197,-1.73031 0.42121,0.26032 0.69871,1.36445 0.61666,2.45362 -0.082,1.08917 -0.27841,1.98031 -0.43636,1.98031 -0.15796,0 -0.3247,-0.1125 -0.37053,-0.25 z m -13.41667,-3.75 c -0.33992,-0.55 -0.14148,-1 0.44098,-1 0.58246,0 1.05902,0.45 1.05902,1 0,0.55 -0.19844,1 -0.44098,1 -0.24254,0 -0.7191,-0.45 -1.05902,-1 z m 7.73652,-21.64595 c 0.10389,-3.02863 0.50539,-4.00658 1.48983,-3.62882 0.74119,0.28442 2.02776,1.9251 2.85904,3.64595 1.36944,2.83489 1.36597,2.94646 -0.037,1.18769 -0.85163,-1.06762 -1.58265,-2.41762 -1.62449,-3 -0.0418,-0.58238 -0.69562,0.51613 -1.45285,2.44113 l -1.37676,3.5 0.14221,-4.14595 z m -3.72944,-5.3426 c -0.35034,-0.56686 0.0511,-0.7345 0.94098,-0.39301 1.73242,0.66479 2.04939,1.38156 0.61096,1.38156 -0.51754,0 -1.21592,-0.44485 -1.55194,-0.98855 z m 7.24915,0.32419 c 0.69093,-0.27855 0.9589,-0.98755 0.59549,-1.57556 -0.39053,-0.6319 -0.18861,-0.77731 0.49377,-0.35557 0.68411,0.4228 1.15451,0.0783 1.15451,-0.84549 0,-0.85746 0.45,-1.55902 1,-1.55902 0.55,0 0.8875,0.56087 0.75,1.24638 -0.30266,1.5089 -2.86827,3.70801 -4.25,3.64287 -0.55,-0.0259 -0.4347,-0.27505 0.25623,-0.55361 z m -9.25405,-4.00449 c 0.2762,-0.36787 -0.24354,-1.49287 -1.15499,-2.5 -0.9907,-1.09472 -1.19267,-1.83115 -0.50218,-1.83115 0.63525,0 1.15499,0.47656 1.15499,1.05902 0,0.58246 0.4105,0.80531 0.91222,0.49523 1.04496,-0.64582 0.84007,2.11331 -0.21661,2.91681 -0.38259,0.29092 -0.46963,0.22796 -0.19343,-0.13991 z m 11.58115,-3.6957 c 0.22917,-0.2005 1.54167,-0.94917 2.91667,-1.66372 2.2868,-1.18837 2.38296,-1.15729 1.12756,0.36455 -0.75485,0.91505 -2.06735,1.66372 -2.91667,1.66372 -0.84932,0 -1.35672,-0.16405 -1.12756,-0.36455 z m -10.48556,-1.37102 c -0.32878,-0.32877 -0.59777,-1.22432 -0.59777,-1.99011 0,-0.7658 0.45734,-1.1097 1.01631,-0.76424 0.55897,0.34546 0.71796,1.15952 0.3533,1.80902 -0.4489,0.79953 -0.32404,0.85795 0.38662,0.1809 0.5773,-0.55 1.20582,-1.80264 1.39671,-2.78365 0.31173,-1.60208 0.48182,-1.56598 1.67088,0.35464 0.72811,1.17606 0.84061,1.83965 0.25,1.47464 -0.5906,-0.36502 -1.07382,-0.23525 -1.07382,0.28836 0,1.16902 -2.57924,2.25344 -3.40223,1.43044 z m 6.86111,-0.33096 c -0.36253,-0.58659 -0.44468,-1.281 -0.18255,-1.54313 0.26212,-0.26213 0.74306,0.21781 1.06875,1.06653 0.67618,1.76211 0.0999,2.07206 -0.8862,0.4766 z m 0.65712,-12.60168 c -0.0638,-0.64252 -0.40723,-1.99252 -0.76318,-3 -0.50214,-1.42127 -0.36907,-1.57546 0.59378,-0.68801 0.68253,0.62908 1.02596,1.97908 0.76318,3 -0.26278,1.02092 -0.52998,1.33052 -0.59378,0.68801 z m -2.116,-6.33179 c 0,-0.55 0.45,-1 1,-1 0.55,0 1,0.45 1,1 0,0.55 -0.45,1 -1,1 -0.55,0 -1,-0.45 -1,-1 z m -4,-3.5 c 0,-0.8667 0.59545,-1.20873 1.5,-0.86163 0.825,0.31659 1.5,0.70432 1.5,0.86163 0,0.15731 -0.675,0.54504 -1.5,0.86163 -0.90455,0.3471 -1.5,0.005 -1.5,-0.86163 z m -5,-1.5 c 0,-0.55 0.47656,-1 1.05902,-1 0.58246,0 0.7809,0.45 0.44098,1 -0.33992,0.55 -0.81648,1 -1.05902,1 -0.24254,0 -0.44098,-0.45 -0.44098,-1 z m 14,-1 c 0.5887,-1.1 1.29537,-2 1.57037,-2 0.275,0 0.0183,0.9 -0.57037,2 -0.5887,1.1 -1.29537,2 -1.57037,2 -0.275,0 -0.0183,-0.9 0.57037,-2 z m 0,-4.94098 c 0,-0.51754 0.44485,-1.21592 0.98855,-1.55194 0.56686,-0.35034 0.7345,0.0511 0.39301,0.94098 -0.66479,1.73242 -1.38156,2.04939 -1.38156,0.61096 z m -10.54112,-2.12555 c -0.36253,-0.58659 -0.44468,-1.281 -0.18255,-1.54313 0.26212,-0.26213 0.74306,0.21781 1.06875,1.06653 0.67618,1.76211 0.0999,2.07206 -0.8862,0.4766 z m 4.04112,-0.93347 c 1.91578,-2.11691 3.03666,-2.67735 2,-1 -0.33992,0.55 0.30852,1 1.44098,1 1.13246,0 2.05902,0.43886 2.05902,0.97525 0,0.62706 -0.89255,0.6359 -2.5,0.0247 -1.60745,-0.61115 -2.5,-0.60231 -2.5,0.0247 0,0.53639 -0.51974,0.97525 -1.15499,0.97525 -0.65499,0 -0.37144,-0.86581 0.65499,-2 z m 3.06429,-17.29313 c 0.37553,-0.98622 0.93469,-1.54122 1.24258,-1.23333 0.30789,0.30789 6.4e-4,1.11479 -0.68278,1.79313 -0.98762,0.98026 -1.10248,0.8654 -0.5598,-0.5598 z m -0.0744,-3.72318 c -0.34546,-0.55897 -0.94332,-0.8215 -1.32858,-0.5834 -0.38525,0.23809 -1.70829,-1.10456 -2.94009,-2.98369 -1.2318,-1.87913 -1.81582,-3.4166 -1.29783,-3.4166 0.51799,0 1.22015,0.87698 1.56034,1.94885 0.3402,1.07186 1.49553,2.22719 2.56739,2.56739 1.07187,0.34019 1.94885,1.08636 1.94885,1.65814 0,0.57178 0.69837,0.77161 1.55194,0.44406 0.88992,-0.34149 1.29132,-0.17385 0.94098,0.39301 -0.78927,1.27707 -2.20466,1.26398 -3.003,-0.0278 z m -9.72147,-2.15214 c 0.5811,-0.5811 1.64682,-0.85979 2.36826,-0.61931 0.74895,0.24965 0.29565,0.70294 -1.05655,1.05655 -1.66335,0.43497 -2.05378,0.30483 -1.31171,-0.43724 z m 13.45028,-1.67521 c -0.82888,-0.52596 -1.00542,-1.54191 -0.5,-2.87734 0.66078,-1.74595 0.98013,-1.84953 2.0707,-0.67165 0.8924,0.96384 0.93644,1.39265 0.14301,1.39265 -0.63053,0 -0.8874,0.675 -0.57081,1.5 0.31658,0.825 0.47722,1.49311 0.35699,1.48469 -0.12024,-0.008 -0.79519,-0.38118 -1.49989,-0.82835 z m -7.2187,-4.80333 c 0,-0.52416 0.41537,-1.38051 0.92305,-1.90301 0.50768,-0.5225 1.07755,-2.3 1.26638,-3.95 l 0.34332,-3 0.59603,2.75564 c 0.41239,1.9066 0.0222,3.41726 -1.26637,4.90301 -1.02433,1.18105 -1.86241,1.71852 -1.86241,1.19436 z m 4.73557,0.0492 c -0.84601,-0.84599 0.27638,-3.40221 1.49386,-3.40221 0.63844,0 0.60194,0.49826 -0.0983,1.34201 -0.61257,0.7381 -0.81767,1.6381 -0.45578,2 0.3619,0.36189 0.43299,0.65799 0.15799,0.65799 -0.275,0 -0.76899,-0.26899 -1.09776,-0.59777 z m -5.73557,-4.46123 c 0,-0.58246 0.45,-0.7809 1,-0.44098 0.55,0.33992 1,0.81648 1,1.05902 0,0.24254 -0.45,0.44098 -1,0.44098 -0.55,0 -1,-0.47656 -1,-1.05902 z m 2.09802,-22.23087 c -0.92277,-1.52968 -0.95164,-1.84933 -0.0938,-1.03825 0.68171,0.64452 1.78754,0.96154 2.4574,0.70449 0.66986,-0.25705 1.85253,0.34061 2.62815,1.32814 1.2988,1.65366 1.26594,1.68209 -0.41601,0.35981 -1.32904,-1.04484 -2.019,-1.12376 -2.53436,-0.28989 -0.47012,0.76067 -1.15629,0.40293 -2.0414,-1.0643 z m -4.36469,-5.8342 c 0.67834,-0.68342 1.48524,-0.99067 1.79313,-0.68278 0.30789,0.30789 -0.24711,0.86705 -1.23333,1.24258 -1.4252,0.54268 -1.54006,0.42782 -0.5598,-0.5598 z m 10.07917,0.0616 c -0.21771,-0.65313 -1.63333,-1.1875 -3.14583,-1.1875 -1.5125,0 -2.61875,-0.0995 -2.45834,-0.2211 0.16042,-0.12161 1.77719,-0.94236 3.59283,-1.82388 3.17454,-1.5413 3.27751,-1.52826 2.68461,0.33981 -0.49036,1.54499 -0.24499,1.82223 1.19884,1.35455 1.0631,-0.34436 1.40099,-0.23334 0.81539,0.26792 -0.55,0.47078 -1.29063,1.21636 -1.64583,1.65683 -0.35521,0.44048 -0.82396,0.26649 -1.04167,-0.38663 z m -7.8125,-6.72662 c 0,-1.18064 0.28349,-1.2205 1.5,-0.21089 0.825,0.68469 1.5,1.33979 1.5,1.45578 0,0.11599 -0.675,0.21089 -1.5,0.21089 -0.825,0 -1.5,-0.6551 -1.5,-1.45578 z m 3.07895,-4.79422 c 0.048,-1.16495 0.28494,-1.4019 0.60416,-0.60417 0.28887,0.72187 0.25335,1.58438 -0.0789,1.91667 -0.3323,0.33229 -0.56864,-0.25834 -0.52522,-1.3125 z m -6.07895,-16.80968 c 0,-0.21616 0.69837,-0.661 1.55194,-0.98855 0.88992,-0.34149 1.29132,-0.17385 0.94098,0.39301 -0.58726,0.95021 -2.49292,1.40545 -2.49292,0.59554 z m 15,-4 c 0,-0.21616 0.675,-0.65203 1.5,-0.96862 0.825,-0.31658 1.5,-0.13972 1.5,0.39301 0,0.53274 -0.675,0.96862 -1.5,0.96862 -0.825,0 -1.5,-0.17686 -1.5,-0.39301 z m -13.43571,-2.90012 c 0.37553,-0.98622 0.93469,-1.54122 1.24258,-1.23333 0.30789,0.30789 6.4e-4,1.11479 -0.68278,1.79313 -0.98762,0.98026 -1.10248,0.8654 -0.5598,-0.5598 z m 2.73801,-6.60291 c 0.0292,-3.46803 0.30751,-4.68777 0.7788,-3.41377 0.40331,1.09025 0.38283,3.51847 -0.0455,5.39604 -0.69001,3.02461 -0.7736,2.79864 -0.73329,-1.98227 z m 1.6977,2.83702 c 0,-0.58246 0.402,-0.81057 0.89333,-0.50691 0.49133,0.30366 1.22181,-0.68228 1.62329,-2.19098 0.40148,-1.5087 0.92867,-2.20554 1.17153,-1.54853 0.54795,1.48238 -1.41446,5.30544 -2.72333,5.30544 -0.53065,0 -0.96482,-0.47656 -0.96482,-1.05902 z m -4,-21.31854 c 0,-0.20765 0.7875,-0.99515 1.75,-1.75 1.58606,-1.24387 1.62143,-1.2085 0.37756,0.37756 -1.30637,1.66575 -2.12756,2.19548 -2.12756,1.37244 z m 7.8125,-1.30555 c 0.72187,-0.28887 1.58437,-0.25335 1.91667,0.0789 0.33229,0.33229 -0.25834,0.56864 -1.3125,0.52522 -1.16495,-0.048 -1.4019,-0.28494 -0.60417,-0.60416 z m -9.71211,-2.61237 c -1.26492,-2.10631 -1.24361,-2.12762 0.47833,-0.47833 0.99123,0.94941 1.58698,1.94144 1.3239,2.20452 -0.26308,0.26308 -1.07408,-0.5137 -1.80223,-1.72619 z m 1.76849,-5.04653 c 0.61257,-0.7381 0.78017,-1.71025 0.37244,-2.16032 -0.40772,-0.45008 -0.17882,-0.49462 0.50868,-0.099 0.6875,0.39564 1.25,0.24279 1.25,-0.33967 0,-0.58246 0.40787,-1.05902 0.90638,-1.05902 0.49851,0 0.67235,0.89494 0.38631,1.98875 -0.28604,1.09382 -0.91891,1.74226 -1.40638,1.44099 -0.48747,-0.30126 -0.88631,-0.0712 -0.88631,0.51126 0,0.58246 -0.5051,1.05902 -1.12244,1.05902 -0.82562,0 -0.82792,-0.35489 -0.009,-1.34201 z m 6.77382,-0.76394 c 0.40956,-1.84727 0.29501,-2.05808 -0.50158,-0.92301 -0.56781,0.80907 -1.20853,1.25907 -1.42384,1 -0.2153,-0.25907 -0.12046,-1.53894 0.21076,-2.84415 l 0.60222,-2.37312 1.41467,2.64332 c 1.04703,1.95641 1.12261,2.93537 0.29081,3.76717 -0.83179,0.83179 -0.9859,0.5017 -0.59304,-1.27021 z m 5.3573,0.10595 c 0,-0.55 0.47656,-1 1.05902,-1 0.58246,0 0.7809,0.45 0.44098,1 -0.33992,0.55 -0.81648,1 -1.05902,1 -0.24254,0 -0.44098,-0.45 -0.44098,-1 z M 139.03222,98.699722 c 0,-1.375 0.22698,-1.9375 0.50439,-1.25 0.27741,0.6875 0.27741,1.8125 0,2.5 -0.27741,0.687498 -0.50439,0.124998 -0.50439,-1.25 z m 2,0 c 0,-1.375 0.22698,-1.9375 0.50439,-1.25 0.27741,0.6875 0.27741,1.8125 0,2.5 -0.27741,0.687498 -0.50439,0.124998 -0.50439,-1.25 z m -6.7836,-24.467011 c -0.30962,-0.806856 -0.36997,-2.044356 -0.1341,-2.75 0.23587,-0.705644 0.66592,-0.04549 0.95566,1.467011 0.56574,2.953223 0.099,3.682039 -0.82156,1.282989 z m -1.29534,-6.116322 c 0.048,-1.164943 0.28494,-1.4019 0.60416,-0.604167 0.28887,0.721875 0.25335,1.584375 -0.0789,1.916667 -0.3323,0.332291 -0.56864,-0.258334 -0.52522,-1.3125 z m -18.50595,-4.938138 c -1.05985,-0.801825 -1.69459,-1.690273 -1.41054,-1.974327 0.28406,-0.284055 1.33345,0.386295 2.33199,1.489667 0.99854,1.103372 1.63328,1.991819 1.41054,1.974328 -0.22275,-0.01749 -1.27214,-0.687843 -2.33199,-1.489668 z m 17.15821,-0.39837 c -0.43497,-1.663345 -0.30483,-2.053777 0.43724,-1.311709 0.5811,0.581102 0.85979,1.646819 0.61931,2.36826 -0.24965,0.748946 -0.70294,0.295653 -1.05655,-1.056551 z m -1.14826,-4.945944 c -0.43077,-0.697003 -0.51316,-1.537338 -0.18309,-1.867413 0.89497,-0.894961 1.87077,0.421303 1.38739,1.871444 -0.33872,1.016175 -0.57427,1.015386 -1.2043,-0.004 z m -4.71051,-5.884215 c -1.24387,-1.586056 -1.2085,-1.621426 0.37756,-0.377555 1.66575,1.306369 2.19548,2.127555 1.37244,2.127555 -0.20765,0 -0.99515,-0.7875 -1.75,-1.75 z m 3.7147,-1.916211 c 0.98576,-4.186139 5.44076,-12.130519 7.17585,-12.796335 1.26115,-0.483946 1.2369,-0.20659 -0.14788,1.691853 -1.83781,2.519522 -5.61511,10.453769 -5.61511,11.794581 0,0.471943 -0.46804,1.147341 -1.04008,1.500884 -0.68091,0.420823 -0.80964,-0.335799 -0.37278,-2.190983 z m 22.41286,0.166211 c 0,-1.375 0.17254,-2.5 0.38342,-2.5 0.21089,0 0.59848,1.125 0.86133,2.5 0.26285,1.375 0.0903,2.5 -0.38342,2.5 -0.47373,0 -0.86133,-1.125 -0.86133,-2.5 z m -17.25,-15.162281 c 0.6875,-0.277412 1.8125,-0.277412 2.5,0 0.6875,0.277413 0.125,0.504386 -1.25,0.504386 -1.375,0 -1.9375,-0.226973 -1.25,-0.504386 z"
       id="path6867"
       inkscape:connector-curvature="0" />
  </g>
</svg>
