<?xml version="1.0" encoding="UTF-8" standalone="no"?>
<!-- Created with Inkscape (http://www.inkscape.org/) -->

<svg
   xmlns:dc="http://purl.org/dc/elements/1.1/"
   xmlns:cc="http://creativecommons.org/ns#"
   xmlns:rdf="http://www.w3.org/1999/02/22-rdf-syntax-ns#"
   xmlns:svg="http://www.w3.org/2000/svg"
   xmlns="http://www.w3.org/2000/svg"
   xmlns:sodipodi="http://sodipodi.sourceforge.net/DTD/sodipodi-0.dtd"
   xmlns:inkscape="http://www.inkscape.org/namespaces/inkscape"
   width="75mm"
   height="120mm"
   viewBox="0 0 75 120"
   version="1.1"
   id="svg8"
   inkscape:version="0.92.4 (5da689c313, 2019-01-14)"
   sodipodi:docname="hoshi5.svg">
  <defs
     id="defs2" />
  <sodipodi:namedview
     id="base"
     pagecolor="#ffffff"
     bordercolor="#666666"
     borderopacity="1.0"
     inkscape:pageopacity="0.0"
     inkscape:pageshadow="2"
     inkscape:zoom="1.4"
     inkscape:cx="-23.234253"
     inkscape:cy="248.99729"
     inkscape:document-units="mm"
     inkscape:current-layer="layer1"
     showgrid="false"
     units="mm"
     inkscape:window-width="1920"
     inkscape:window-height="1017"
     inkscape:window-x="-8"
     inkscape:window-y="-8"
     inkscape:window-maximized="1" />
  <metadata
     id="metadata5">
    <rdf:RDF>
      <cc:Work
         rdf:about="">
        <dc:format>image/svg+xml</dc:format>
        <dc:type
           rdf:resource="http://purl.org/dc/dcmitype/StillImage" />
        <dc:title />
      </cc:Work>
    </rdf:RDF>
  </metadata>
  <g
     inkscape:label="Calque 1"
     inkscape:groupmode="layer"
     id="layer1"
     transform="translate(0,-176.99999)">
    <g
       id="g1933"
       transform="translate(-0.18898814,2.0788688)">
      <path
         style="fill:#0000ff;stroke-width:0.26458335"
         d="m 26.045683,279.4797 c 0,-1.22108 -0.104371,-1.8677 -0.301466,-1.8677 -0.165807,0 -0.881971,0.35719 -1.591475,0.79375 -0.709505,0.43656 -1.365969,0.79375 -1.458809,0.79375 -0.271699,0 0.821463,-0.87117 1.992034,-1.5875 1.348447,-0.82519 1.377062,-1.24198 0.102945,-1.49941 l -0.992187,-0.20047 0.895169,-0.14225 0.895169,-0.14225 -1.041874,-1.32291 c -1.649674,-2.09467 -1.626725,-2.2129 0.134538,-0.69311 0.907358,0.78296 1.68824,1.37827 1.735293,1.32292 0.04705,-0.0554 0.298346,-0.78904 0.558428,-1.6304 0.260082,-0.84137 0.576463,-1.59378 0.703069,-1.67203 0.213865,-0.13217 0.08407,2.14889 -0.202055,3.55109 -0.09264,0.45399 -0.03659,0.55736 0.215165,0.39688 0.187237,-0.11936 1.01932,-0.6635 1.849075,-1.20921 0.829754,-0.5457 1.577869,-0.99218 1.662477,-0.99218 0.08461,0 -0.475218,0.55521 -1.24406,1.2338 -0.768842,0.67859 -1.437582,1.33344 -1.486088,1.45521 -0.04851,0.12177 0.33142,0.2214 0.84428,0.2214 1.405898,0 1.403501,0.45854 -0.0026,0.48676 -0.671391,0.0135 -1.272313,0.0761 -1.335382,0.13918 -0.06307,0.0631 0.421217,0.69003 1.07619,1.39325 0.654974,0.70322 1.140905,1.32854 1.079847,1.3896 -0.06106,0.0611 -0.762138,-0.32131 -1.557954,-0.8497 -0.795819,-0.5284 -1.498376,-0.87387 -1.561239,-0.76772 -0.06286,0.10616 -0.198596,0.81795 -0.301627,1.58177 -0.278758,2.06734 -0.666818,1.96114 -0.666818,-0.18252 z m -9.253948,-9.0776 c 0.0036,-0.32742 0.110761,-1.07156 0.23823,-1.65364 0.12747,-0.58209 0.311446,-1.74075 0.408837,-2.57482 l 0.177074,-1.51648 -1.142909,0.6534 c -1.799853,1.02897 -1.790546,0.77229 0.0208,-0.57374 1.944651,-1.4451 1.890296,-1.52629 -1.288664,-1.9249 -1.214328,-0.15226 -2.278297,-0.35201 -2.364375,-0.44388 -0.19824,-0.21158 3.184486,0.13343 4.219963,0.4304 0.426673,0.12237 0.834578,0.12734 0.906453,0.011 0.07188,-0.11629 -0.355154,-0.93497 -0.948955,-1.81929 -0.593802,-0.88431 -1.028414,-1.76151 -0.965807,-1.94934 0.06261,-0.18782 0.567632,0.34198 1.122275,1.17733 0.554645,0.83536 1.047515,1.51883 1.095269,1.51883 0.04775,0 0.26398,-0.56555 0.480503,-1.25677 l 0.393676,-1.25677 -0.158234,1.79189 c -0.148238,1.67868 -0.126637,1.7802 0.341934,1.60697 0.275092,-0.1017 0.857355,-0.444 1.293918,-0.76066 1.398899,-1.01471 1.621053,-0.9844 0.463021,0.0632 -1.199162,1.08478 -1.362853,1.39967 -0.727604,1.39967 0.218281,0 0.396875,0.12133 0.396875,0.26962 0,0.15549 -0.280023,0.19935 -0.661459,0.10361 -0.806311,-0.20237 -0.812392,-0.12324 -0.08762,1.14007 0.974823,1.69917 1.585795,3.02984 1.452387,3.16325 -0.07012,0.0701 -0.45451,-0.4474 -0.854197,-1.15005 -1.395663,-2.45358 -1.745674,-2.99733 -1.929343,-2.99733 -0.101743,0 -0.528291,1.60734 -0.947886,3.57187 -0.419594,1.96453 -0.80289,3.57188 -0.851768,3.57188 -0.04888,0 -0.08596,-0.26789 -0.0824,-0.59532 z m 44.302868,-4.56406 c 0.0828,-1.01864 0.219549,-2.53669 0.303877,-3.37344 0.130384,-1.29371 0.08866,-1.52135 -0.278837,-1.52135 -0.35824,0 -0.380846,-0.0959 -0.132162,-0.56056 0.265195,-0.49551 0.135808,-0.73045 -1.115168,-2.02486 l -1.415172,-1.46431 1.278536,0.89472 c 0.703196,0.4921 1.335302,0.98657 1.404678,1.09883 0.314179,0.50835 0.609798,0.0922 0.888661,-1.25111 0.166156,-0.80037 0.348711,-1.45521 0.405678,-1.45521 0.05697,0 0.03131,0.77391 -0.05702,1.71979 -0.101182,1.08352 -0.06211,1.71979 0.105606,1.71979 0.14641,0 1.134782,-0.47744 2.196378,-1.06098 1.061598,-0.58353 1.973212,-1.01794 2.025809,-0.96534 0.09628,0.0963 -1.134941,0.95854 -2.793733,1.95656 l -0.895403,0.53873 1.623007,0.18837 c 1.885249,0.21881 2.175489,0.66558 0.432385,0.66558 -0.654844,0 -1.190625,0.0647 -1.190625,0.14384 0,0.0791 0.293468,0.46033 0.65215,0.84715 1.055399,1.1382 0.516951,1.03733 -0.916988,-0.17179 -1.432504,-1.2079 -1.509651,-1.17888 -1.690237,0.63601 -0.31541,3.16989 -0.522256,4.53871 -0.739659,4.89479 -0.153128,0.2508 -0.186902,-0.28482 -0.09176,-1.45521 z m -22.859489,-4.0349 c -0.01024,-1.92815 -0.11798,-3.50572 -0.239445,-3.50572 -0.211693,0 -0.421804,0.21932 -2.35884,2.46229 -1.334961,1.5458 -1.00289,0.77671 0.487537,-1.12916 1.174102,-1.50137 1.278186,-1.73129 0.854639,-1.88791 -0.405453,-0.14993 -0.364411,-0.20931 0.257646,-0.37272 0.406958,-0.10692 0.675883,-0.25843 0.597609,-0.33671 -0.07828,-0.0783 -0.02463,-0.28413 0.119221,-0.45745 0.143846,-0.17332 0.33678,-1.19631 0.428744,-2.2733 0.09196,-1.07699 0.211362,-2.00778 0.265332,-2.06841 0.05397,-0.0606 0.09941,0.83233 0.100978,1.98437 l 0.0029,2.09462 1.087175,-1.13688 c 1.381202,-1.44435 1.651638,-1.24758 0.394267,0.28687 -0.901449,1.10011 -1.02058,1.58931 -0.336799,1.38305 1.105262,-0.33341 1.787549,-0.39468 1.634331,-0.14677 -0.09354,0.15135 -0.371409,0.27701 -0.617482,0.27924 -0.246073,0.002 -0.625999,0.12129 -0.84428,0.26458 -0.352777,0.23159 -0.352777,0.29271 0,0.55008 0.335301,0.24462 0.325038,0.26514 -0.06615,0.13229 -0.254661,-0.0865 -0.641614,-0.22952 -0.859896,-0.31785 -0.339981,-0.13758 -0.399542,0.32706 -0.415472,3.24115 -0.01023,1.87096 -0.120925,3.63987 -0.245991,3.93091 -0.143023,0.33283 -0.234291,-0.77154 -0.245986,-2.97657 z m 20.618902,0.0661 c 0.363802,-0.20797 0.780521,-0.37812 0.926042,-0.37812 0.145521,0 -0.03307,0.17015 -0.396875,0.37812 -0.363802,0.20797 -0.780521,0.37812 -0.926042,0.37812 -0.14552,0 0.03307,-0.17015 0.396875,-0.37812 z m -8.436451,-2.39411 c -0.150119,-0.54368 -0.420142,-1.86453 -0.600048,-2.93522 -0.179909,-1.07069 -0.39728,-1.94671 -0.483048,-1.94671 -0.08577,0 -0.352499,0.32742 -0.592735,0.7276 -0.240234,0.40019 -0.803971,1.14433 -1.252747,1.65365 l -0.815953,0.92604 0.785077,-1.37739 c 0.431792,-0.75756 0.983551,-1.6803 1.226129,-2.05052 0.525608,-0.80218 0.517541,-0.80274 -1.979872,-0.1386 -1.079756,0.28714 -2.004181,0.48109 -2.054278,0.43099 -0.0501,-0.0501 0.922634,-0.42794 2.161628,-0.83964 2.102805,-0.69874 2.710021,-1.19129 1.921986,-1.55904 -0.229904,-0.10729 -0.241297,-0.1976 -0.03737,-0.29622 0.19489,-0.0943 0.261546,-1.00457 0.198586,-2.71198 -0.104526,-2.83464 0.157615,-2.58139 0.69461,0.67105 0.174192,1.05502 0.395195,1.91579 0.49112,1.91281 0.09593,-0.003 0.560247,-0.62805 1.031827,-1.38906 0.800987,-1.29258 2.361544,-3.29392 2.110463,-2.70657 -0.06221,0.14552 -0.622509,1.13173 -1.245114,2.19156 -0.622607,1.05984 -1.058285,2.00071 -0.968176,2.09082 0.09011,0.0901 0.961011,-0.0907 1.935339,-0.40182 0.974326,-0.31111 1.808017,-0.52913 1.852645,-0.48451 0.04463,0.0446 -0.602007,0.35773 -1.436966,0.69578 -2.04525,0.82806 -2.126906,0.94624 -1.090414,1.57813 1.045546,0.63742 0.634058,0.72211 -0.733089,0.15088 -1.20433,-0.5032 -1.51081,-0.50059 -1.314407,0.0112 0.234884,0.6121 0.773358,6.47965 0.609666,6.64334 -0.07806,0.0781 -0.264742,-0.30291 -0.414859,-0.8466 z m -22.915374,-2.43454 c -0.09688,-1.12778 -0.259178,-2.5863 -0.36067,-3.24114 l -0.184532,-1.19063 -1.77857,2.35546 c -0.978213,1.29549 -1.778569,2.25771 -1.778569,2.13825 0,-0.11946 0.595312,-1.03311 1.322917,-2.03034 1.369966,-1.87763 1.555067,-2.31641 0.992187,-2.35196 -0.181901,-0.0115 0.0017,-0.14213 0.407918,-0.29031 0.599978,-0.21885 0.679877,-0.34025 0.425597,-0.64663 -0.2476,-0.29834 -0.236079,-0.34766 0.0551,-0.23589 0.299931,0.11512 0.356859,-0.28825 0.307207,-2.17676 -0.06978,-2.65409 0.07158,-2.63147 0.332766,0.0532 l 0.179215,1.84216 0.788948,-0.91611 c 0.821984,-0.95448 0.763775,-0.65748 -0.121605,0.62047 -0.637175,0.91969 -0.534014,1.03801 0.617191,0.70785 1.3151,-0.37717 1.580562,-0.30059 0.533291,0.15384 -1.004057,0.43568 -0.939149,0.57933 0.637638,1.41112 1.484482,0.7831 0.624316,0.69634 -0.953553,-0.0962 l -1.298903,-0.6524 0.176324,3.29823 c 0.19368,3.62294 -0.01963,4.51042 -0.2999,1.24771 z m 13.49245,1.52136 c -0.08994,-0.14552 -0.03743,-0.26458 0.116676,-0.26458 0.15411,0 0.280199,0.11906 0.280199,0.26458 0,0.14552 -0.0525,0.26458 -0.116676,0.26458 -0.06417,0 -0.190261,-0.11906 -0.280199,-0.26458 z m -5.754687,-0.7044 c 0.181901,-0.0734 0.479557,-0.0734 0.661458,0 0.181901,0.0734 0.03307,0.13346 -0.330729,0.13346 -0.363802,0 -0.51263,-0.0601 -0.330729,-0.13346 z M 16.528729,254.4458 c -0.0044,-0.15383 0.229595,-1.57315 0.520044,-3.15403 0.29045,-1.58089 0.483299,-2.91913 0.428554,-2.97387 -0.05475,-0.0547 -1.142474,0.3823 -2.417175,0.97121 -1.274701,0.58892 -2.390163,1.07076 -2.478804,1.07076 -0.08864,0 0.82544,-0.64541 2.031291,-1.43424 2.314197,-1.51387 2.315425,-1.52309 0.251476,-1.88894 -0.54731,-0.097 -1.060353,-0.28196 -1.140094,-0.41098 -0.187493,-0.30338 0.283754,-0.29604 2.009624,0.0313 0.771019,0.14622 1.450709,0.217 1.51042,0.15729 0.05971,-0.0597 -0.179782,-0.5663 -0.532209,-1.12575 -0.352427,-0.55945 -0.844062,-1.43391 -1.092521,-1.94323 l -0.451744,-0.92604 0.797152,0.92604 c 0.438433,0.50932 1.008079,1.313 1.265879,1.78594 0.528224,0.96904 0.780989,1.07194 0.974913,0.39687 0.976078,-3.39778 1.283146,-4.33009 1.390735,-4.2225 0.07022,0.0702 -0.06959,1.10119 -0.310691,2.29105 -0.241096,1.18985 -0.380248,2.22148 -0.309227,2.2925 0.07102,0.071 1.044526,-0.2937 2.163344,-0.81049 1.118819,-0.51679 2.101666,-0.93962 2.184106,-0.93962 0.201193,0 -1.413286,1.08803 -2.95619,1.99223 l -1.248842,0.73187 0.995224,0.34214 c 0.547374,0.18818 1.450462,0.41905 2.006862,0.51306 0.556401,0.094 1.07182,0.26829 1.145375,0.38731 0.14912,0.24128 -1.622846,0.077 -3.026504,-0.28057 -0.50114,-0.12766 -0.951375,-0.1919 -1.00052,-0.14276 -0.04915,0.0491 0.400986,0.99842 1.000293,2.1095 0.599308,1.11108 1.025792,2.02014 0.947743,2.02014 -0.07805,0 -0.694436,-0.7743 -1.369749,-1.72067 -0.675313,-0.94637 -1.321748,-1.66263 -1.436522,-1.59169 -0.114774,0.0709 -0.474189,1.23218 -0.7987,2.58056 -0.543937,2.26011 -1.034145,3.64001 -1.053543,2.96565 z m 7.615261,-1.35626 c 0.190997,-0.0764 0.4192,-0.067 0.507119,0.0209 0.08792,0.0879 -0.06835,0.15045 -0.347266,0.13896 -0.308225,-0.0127 -0.370919,-0.0754 -0.159853,-0.15985 z m 43.441276,-1.91428 c 0,-2.5795 -0.05766,-2.66748 -1.748099,-2.66748 -0.784794,0 -1.426901,-0.11906 -1.426901,-0.26458 0,-0.14552 0.654844,-0.26458 1.455209,-0.26458 0.800364,0 1.455208,-0.0843 1.455208,-0.18729 0,-0.103 -0.446484,-0.65961 -0.992188,-1.23691 l -0.992187,-1.04964 1.05247,0.84004 c 1.228609,0.98063 1.461072,1.03009 1.461072,0.31088 0,-0.29104 0.119062,-0.52917 0.264583,-0.52917 0.145521,0 0.264583,0.37564 0.264583,0.83476 0,0.79194 0.02482,0.8123 0.483854,0.39687 0.678014,-0.61359 1.020625,-0.54788 0.447181,0.0858 -0.560525,0.61938 -0.520851,0.6395 1.979382,1.00403 l 1.719792,0.25074 -1.785938,0.0368 c -0.982265,0.0203 -1.785937,0.10997 -1.785937,0.19935 0,0.0894 0.624853,0.89305 1.388562,1.78593 1.536385,1.79626 1.029883,1.56422 -0.931172,-0.42658 -0.694319,-0.70486 -1.378929,-1.20953 -1.521354,-1.12151 -0.142425,0.088 -0.258953,0.98645 -0.258953,1.99651 0,1.04792 -0.113607,1.83647 -0.264583,1.83647 -0.150892,0 -0.264584,-0.78654 -0.264584,-1.83044 z m -2.778125,-0.0216 c 0.418254,-0.43657 0.887013,-0.7932 1.041689,-0.79253 0.154675,7.9e-4 -0.09927,0.35786 -0.564319,0.79375 -1.098326,1.02945 -1.463924,1.02852 -0.47737,-0.001 z m -17.991666,0.26458 c -0.206952,-0.33486 0.143306,-0.33486 0.661458,0 0.342024,0.22103 0.335039,0.25704 -0.05053,0.26053 -0.246073,0.002 -0.520991,-0.11501 -0.610928,-0.26053 z m -9.203952,-2.56209 c -0.07085,-0.11882 -0.336992,-1.07924 -0.591434,-2.13427 -0.442722,-1.83572 -0.695018,-2.23211 -1.052531,-1.65364 -0.08994,0.14552 -0.283665,0.26458 -0.430506,0.26458 -0.146841,0 -0.03418,-0.32742 0.250351,-0.7276 l 0.517337,-0.72761 -0.649708,-0.48902 c -0.775448,-0.58366 -0.640254,-0.87613 0.197692,-0.42768 0.492392,0.26353 0.567322,0.25264 0.445534,-0.0647 -0.08053,-0.20985 -0.223636,-1.20597 -0.318018,-2.2136 -0.206648,-2.20616 0.162975,-1.8111 0.637619,0.6815 0.180118,0.94589 0.381582,1.80777 0.447701,1.91529 0.06612,0.10752 0.441431,-0.007 0.834025,-0.2542 l 0.713806,-0.44969 -0.529166,0.62358 c -0.378304,0.4458 -0.434877,0.65656 -0.198438,0.73927 0.181901,0.0636 0.336876,0.25459 0.344385,0.42436 0.0075,0.16978 0.496636,0.69564 1.086945,1.16858 1.344975,1.07756 0.955918,1.12375 -0.597765,0.071 -0.640361,-0.43391 -1.236149,-0.7911 -1.32397,-0.79375 -0.08782,-0.003 -0.01273,0.91792 0.166873,2.04571 0.313796,1.97043 0.325993,2.46608 0.04927,2.00197 z m 10.499492,-4.63895 c 1.089768,-1.84366 1.781432,-3.17164 1.69626,-3.25681 -0.05138,-0.0514 -1.162273,0.2652 -2.46865,0.70352 -3.646893,1.2236 -3.958625,1.31001 -3.664334,1.01572 0.144492,-0.14449 1.327084,-0.69204 2.627987,-1.21679 1.300904,-0.52474 2.463597,-1.0445 2.583762,-1.15501 0.120166,-0.11051 -0.147724,-0.32859 -0.595312,-0.48462 -1.675852,-0.58421 -0.553138,-0.68671 1.409041,-0.12864 0.407845,0.11599 0.464299,0.0497 0.298302,-0.35049 -0.691158,-1.66609 -1.448935,-3.9029 -1.354278,-3.99756 0.06123,-0.0612 0.539716,0.79142 1.063305,1.89478 0.523589,1.10336 1.001165,2.00611 1.061281,2.00611 0.06012,0 0.482526,-0.65233 0.938689,-1.44962 1.340789,-2.34346 1.644507,-2.01519 0.386429,0.41767 -0.232236,0.44909 -0.378148,0.86064 -0.324247,0.91454 0.0539,0.0539 0.677622,-0.0764 1.386049,-0.28965 0.708427,-0.2132 1.327602,-0.34809 1.375947,-0.29974 0.04834,0.0483 -0.507069,0.36656 -1.23425,0.70715 -0.72718,0.3406 -1.322146,0.70629 -1.322146,0.81264 0,0.10636 0.714589,0.27632 1.587973,0.37769 0.873387,0.10136 1.653432,0.29021 1.733437,0.41966 0.131548,0.21285 -1.127612,0.14775 -3.122973,-0.16145 -0.839385,-0.13007 -0.909145,0.15448 -0.366599,1.49536 0.198554,0.49071 0.433915,1.30892 0.523024,1.81825 0.120406,0.68821 -0.07534,0.42186 -0.762217,-1.03716 l -0.924235,-1.96319 -0.765289,1.16944 c -0.420907,0.6432 -1.086252,1.52663 -1.478544,1.9632 -0.690396,0.7683 -0.699641,0.77071 -0.288412,0.075 z m -9.100749,-0.19159 c 0.356651,-0.2446 3.153937,-0.42001 2.888369,-0.18112 -0.06063,0.0545 -0.824619,0.17884 -1.697744,0.27623 -1.1216,0.1251 -1.471025,0.0972 -1.190625,-0.0951 z m -0.25627,-1.51693 c 0.0093,-0.24577 1.306772,-1.24775 1.430124,-1.10446 0.04363,0.0507 -0.262168,0.36909 -0.679554,0.70758 -0.417385,0.33849 -0.755142,0.51708 -0.75057,0.39688 z m -5.29998,-0.89564 c 0,-0.15411 0.119063,-0.20661 0.264584,-0.11668 0.145521,0.0899 0.264583,0.21603 0.264583,0.2802 0,0.0642 -0.119062,0.11668 -0.264583,0.11668 -0.145521,0 -0.264584,-0.12609 -0.264584,-0.2802 z m -6.507853,-3.35782 c 0.709401,-1.38266 1.459207,-2.44453 1.472356,-2.08513 0.0099,0.27091 -1.827567,3.3419 -1.999575,3.3419 -0.06468,0 0.172573,-0.56555 0.527219,-1.25677 z m 2.543662,-0.4501 c -0.336759,-1.01153 -0.740002,-1.97587 -0.896099,-2.14297 -0.211857,-0.2268 -0.822385,-0.10801 -2.408115,0.46851 -2.342425,0.85164 -2.451083,0.60305 -0.139928,-0.32013 0.800365,-0.3197 1.750269,-0.69905 2.110899,-0.843 0.610121,-0.24353 0.621707,-0.28074 0.166695,-0.53537 -0.29034,-0.16249 -0.378208,-0.34214 -0.216289,-0.44221 0.177951,-0.10998 0.192985,-0.5819 0.04327,-1.35815 -0.419431,-2.17464 -0.219329,-2.5402 0.325313,-0.59429 0.295293,1.05503 0.61351,1.91719 0.707152,1.91591 0.09364,-0.001 0.632494,-0.71973 1.197451,-1.59658 0.564959,-0.87685 1.090089,-1.53138 1.166955,-1.45452 0.07687,0.0769 -0.04408,0.34885 -0.268766,0.6044 -0.62171,0.70712 -1.572993,2.7136 -1.286529,2.7136 0.139005,0 0.558144,-0.11611 0.931418,-0.25803 0.373277,-0.14192 0.678683,-0.15483 0.678683,-0.0287 0,0.12615 -0.297656,0.30406 -0.661458,0.39537 -0.363802,0.0913 -0.661459,0.28281 -0.661459,0.42556 0,0.14275 -0.178593,0.25954 -0.396875,0.25954 -0.501454,0 -0.498885,0.45599 0.01373,2.43419 0.590871,2.28025 0.315011,2.5227 -0.406035,0.35686 z m 11.427754,-0.74053 c -0.149696,-0.61846 -0.352891,-1.63049 -0.451541,-2.24896 -0.203567,-1.27619 -0.325027,-1.33342 -1.263385,-0.59531 -1.072192,0.84339 -1.099119,0.6122 -0.03728,-0.3201 l 0.967267,-0.84927 -1.024205,-0.86659 c -1.003392,-0.84897 -0.962237,-1.25139 0.0497,-0.48599 0.931857,0.70482 1.064898,0.49417 0.955522,-1.51294 -0.128069,-2.35014 0.117591,-2.25635 0.462118,0.17644 0.140047,0.98892 0.318111,1.86151 0.395695,1.9391 0.07758,0.0776 0.531254,-0.15187 1.008158,-0.5099 1.337344,-1.00398 1.764763,-1.13867 0.744799,-0.2347 -0.503824,0.44653 -1.023725,0.81187 -1.155337,0.81187 -0.131609,0 -0.17702,0.23812 -0.10091,0.52916 0.07611,0.29105 0.01783,0.52917 -0.129521,0.52917 -0.174929,0 -0.202496,0.82639 -0.07943,2.38125 0.103658,1.30969 0.130431,2.38125 0.0595,2.38125 -0.07094,0 -0.251449,-0.50601 -0.401145,-1.12448 z m 19.029574,-2.05052 c -0.0122,-0.80036 0.0831,-1.90875 0.211765,-2.46307 l 0.233944,-1.00787 -0.83557,0.17371 c -0.791945,0.16465 -0.807942,0.15265 -0.306401,-0.23 0.621496,-0.47417 0.514837,-0.53275 -1.719791,-0.94468 l -1.455209,-0.26825 1.91823,0.0858 c 1.055026,0.0472 1.918229,0.001 1.918229,-0.10246 0,-0.10353 -0.249153,-0.41373 -0.553673,-0.68931 -0.304522,-0.27559 -0.67714,-0.74053 -0.828042,-1.0332 -0.200121,-0.38812 -0.03307,-0.31732 0.617281,0.26162 0.490407,0.43657 0.932479,0.88305 0.982382,0.99219 0.250105,0.547 0.545695,0.056 0.716751,-1.19062 0.296206,-2.15864 0.640754,-2.67788 0.482811,-0.72761 -0.0766,0.94589 -0.185018,1.86862 -0.240921,2.05052 -0.163436,0.53177 0.733303,0.38599 2.75577,-0.44801 1.038661,-0.42831 1.888474,-0.72768 1.888474,-0.66527 0,0.0624 -0.718923,0.47639 -1.597607,0.91995 -1.441955,0.72789 -1.858582,1.31781 -0.930696,1.31781 0.192985,0 0.751504,0.18449 1.241155,0.40997 0.823318,0.37914 0.833697,0.39819 0.138012,0.25336 -0.413745,-0.0862 -1.243846,-0.22538 -1.844672,-0.30942 -1.213035,-0.16967 -1.242097,-0.30505 0.378375,1.76276 0.513181,0.65484 1.036789,1.36922 1.163574,1.5875 0.366297,0.63063 -0.53866,-0.14501 -2.127096,-1.82315 l -1.350037,-1.42628 -0.417428,2.48461 c -0.393321,2.34111 -0.418711,2.40057 -0.43961,1.0294 z m -22.524387,0.26459 c 0,-0.14553 0.12609,-0.26459 0.2802,-0.26459 0.154109,0 0.206613,0.11906 0.116675,0.26459 -0.08994,0.14552 -0.216027,0.26458 -0.280199,0.26458 -0.06417,0 -0.116676,-0.11906 -0.116676,-0.26458 z m 5.672966,-0.91763 c -0.282474,-0.21365 -0.379341,-0.39225 -0.215257,-0.39688 0.164081,-0.005 0.446551,0.17018 0.627708,0.38846 0.418251,0.50397 0.247333,0.50745 -0.412451,0.008 z m -16.587028,-0.82121 c -0.400182,-0.2171 -0.727604,-0.44791 -0.727604,-0.5129 0,-0.14771 1.366253,0.42431 1.706562,0.71449 0.414515,0.35345 -0.182435,0.23053 -0.978958,-0.20159 z m 23.869176,-2.98018 c 0.174308,-0.33988 0.389491,-0.54541 0.478179,-0.45672 0.08869,0.0887 -0.05393,0.36677 -0.316928,0.61797 -0.457134,0.43662 -0.46423,0.42953 -0.161251,-0.16125 z m 2.091473,-0.50651 c -0.741108,-1.21141 -0.972074,-1.44511 -1.81742,-1.83888 -0.65278,-0.30407 -0.653579,-0.30835 -0.06077,-0.32602 l 0.600691,-0.0179 -0.539922,-1.05833 c -0.691428,-1.35531 -0.536842,-1.34736 0.411559,0.0212 l 0.74811,1.07952 0.629012,-1.23769 c 0.345956,-0.68073 0.689123,-1.17758 0.762593,-1.10411 0.07347,0.0735 -0.0538,0.49592 -0.282805,0.93878 -0.593611,1.14791 -0.526733,1.35717 0.44351,1.38773 l 0.859896,0.0271 -0.873323,0.20683 c -0.480328,0.11376 -0.936985,0.27049 -1.014797,0.34831 -0.114474,0.11447 0.324697,1.28274 0.889892,2.36726 0.05688,0.10914 0.04657,0.19843 -0.02291,0.19843 -0.06948,0 -0.399473,-0.44648 -0.733316,-0.99218 z M 20.860017,228.2672 c 0.0729,-0.29105 0.389323,-1.28035 0.703172,-2.19847 0.31385,-0.91811 0.509369,-1.73056 0.434487,-1.80544 -0.168674,-0.16868 -1.63694,0.57503 -2.698868,1.36703 -1.344111,1.00246 -3.848191,2.3131 -3.697977,1.93553 0.07811,-0.19634 1.120707,-0.98177 2.316875,-1.7454 1.196169,-0.76363 2.520974,-1.67599 2.944012,-2.02745 l 0.769161,-0.63904 -1.033744,-0.28152 c -2.044679,-0.55684 -3.666594,-1.0741 -3.018118,-0.96253 0.363802,0.0626 1.476534,0.19675 2.472737,0.29812 l 1.81128,0.18431 -0.569969,-1.11723 c -0.798094,-1.5644 -0.521447,-1.96874 0.397208,-0.58056 l 0.762166,1.15171 0.602916,-1.68432 c 0.591076,-1.65125 0.6001,-1.66095 0.459543,-0.4937 -0.07886,0.65484 -0.211341,1.5424 -0.294412,1.97235 -0.143401,0.74219 -0.124192,0.76226 0.379814,0.39688 2.188688,-1.58674 2.97455,-2.11001 2.97455,-1.98062 0,0.0822 -0.535781,0.66283 -1.190625,1.29028 -0.654844,0.62745 -1.190625,1.20181 -1.190625,1.27636 0,0.0745 0.684609,0.30332 1.521354,0.50837 l 1.521354,0.37284 -1.785937,0.0782 c -0.982266,0.043 -1.785938,0.1428 -1.785938,0.22172 0,0.0789 0.416719,1.09128 0.926042,2.24969 0.509323,1.1584 0.925532,2.18973 0.924909,2.29182 -0.0019,0.31211 -1.503862,-2.0586 -1.996848,-3.15184 -0.255,-0.56549 -0.54577,-1.02817 -0.646156,-1.02817 -0.100386,0 -0.33373,0.50602 -0.518543,1.12448 -0.347511,1.16293 -1.729056,3.91577 -1.49382,2.97657 z m 27.410666,-0.1323 c 0,-0.14552 0.364215,-0.26458 0.809366,-0.26458 0.472202,0 0.741246,0.11022 0.645842,0.26458 -0.08994,0.14553 -0.454152,0.26459 -0.809365,0.26459 -0.355214,0 -0.645843,-0.11906 -0.645843,-0.26459 z m -1.124479,-0.17522 c 0.181901,-0.0734 0.479557,-0.0734 0.661458,0 0.181901,0.0734 0.03307,0.13345 -0.330729,0.13345 -0.363802,0 -0.51263,-0.0601 -0.330729,-0.13345 z M 32.395683,226.4245 c 0,-0.14101 1.139926,-2.24289 1.906371,-3.51512 0.585261,-0.97148 0.382484,-1.07686 -1.086644,-0.56472 -1.399119,0.48774 -1.236591,0.0496 0.212915,-0.57393 1.205426,-0.51856 1.762133,-1.04416 1.105961,-1.04416 -0.133458,0 -0.818067,-0.25249 -1.521354,-0.56109 -1.477473,-0.6483 -1.166526,-0.99843 0.331013,-0.37272 0.548629,0.22923 1.095245,0.31905 1.214696,0.1996 0.119454,-0.11945 0.03534,-0.91535 -0.18692,-1.76865 -0.595238,-2.28528 -0.324792,-2.38777 0.532802,-0.2019 0.412369,1.05105 0.822196,1.91101 0.910728,1.91101 0.08853,0 0.567475,-0.67963 1.064318,-1.5103 1.077587,-1.8016 1.390655,-1.48148 0.421518,0.43103 -0.374541,0.73912 -0.562634,1.34385 -0.417983,1.34385 0.144647,0 1.039624,-0.29232 1.98883,-0.6496 2.233129,-0.84054 2.237928,-0.44801 0.0067,0.54554 -0.945539,0.42104 -1.719445,0.83359 -1.719792,0.9168 -2.64e-4,0.0832 0.601668,0.42347 1.33781,0.75617 1.765044,0.7977 1.547982,0.93745 -0.362791,0.23357 -0.833043,-0.30687 -1.578996,-0.49357 -1.657676,-0.4149 -0.07868,0.0787 0.102122,0.88989 0.401778,1.80269 0.778854,2.3725 0.636477,2.52482 -0.361439,0.38666 l -0.862042,-1.84703 -0.737169,1.18557 c -0.405442,0.65207 -1.049369,1.68724 -1.430948,2.3004 -0.599742,0.96372 -1.09065,1.41888 -1.09065,1.01123 z m 13.44477,-1.86147 c 1.450153,-3.05583 2.010016,-4.36242 2.17197,-5.06888 0.190109,-0.82926 0.17838,-0.84071 -1.561033,-1.52314 -0.96392,-0.37817 -1.395394,-0.61877 -0.958832,-0.53464 0.436563,0.0841 1.168223,0.21556 1.625912,0.29208 l 0.832162,0.13912 -0.670869,-1.35558 c -0.922446,-1.86392 -0.559488,-2.00133 0.469651,-0.1778 1.000035,1.77197 1.217213,1.94304 1.466398,1.15508 0.237252,-0.75023 0.941136,-1.84379 1.090586,-1.69434 0.06157,0.0616 -0.07518,0.55981 -0.303898,1.10721 -0.228714,0.54739 -0.368739,1.04237 -0.311163,1.09995 0.05757,0.0576 0.833043,-0.24815 1.723263,-0.67938 0.890222,-0.43122 1.618583,-0.73363 1.618583,-0.67202 0,0.0616 -0.595312,0.47832 -1.322917,0.92602 -1.365268,0.84006 -1.666086,1.29525 -0.859895,1.30118 0.533598,0.004 3.263066,1.26715 2.805996,1.29865 -0.166574,0.0115 -1.100815,-0.2256 -2.07609,-0.52683 -0.975278,-0.30123 -1.828779,-0.49215 -1.896674,-0.42425 -0.06789,0.0679 0.367856,1.10058 0.96833,2.29486 1.203325,2.3933 1.282793,3.13678 0.121468,1.13643 -0.405114,-0.69779 -1.003335,-1.6663 -1.329378,-2.15224 l -0.592807,-0.88352 -1.088057,2.07415 c -0.980583,1.86926 -2.583209,4.25973 -1.922706,2.86789 z m -18.256879,-0.8422 c 0.190995,-0.0764 0.419198,-0.067 0.507119,0.0209 0.08792,0.0879 -0.06835,0.15045 -0.347266,0.13896 -0.308226,-0.0127 -0.370919,-0.0754 -0.159853,-0.15985 z m 15.682073,-2.0295 c 0.527122,-0.44741 2.623786,-1.492 2.623786,-1.30721 0,0.13036 -0.538967,0.49886 -1.197703,0.81889 -1.070456,0.52007 -1.729271,0.74566 -1.426083,0.48832 z m 12.148786,-3.94463 c 0,-0.34069 1.126948,-3.24137 1.35559,-3.48919 0.467945,-0.50718 0.232156,-0.86593 -0.495694,-0.7542 -0.616395,0.0946 -0.656834,0.0668 -0.264583,-0.18212 0.626591,-0.39763 0.585467,-0.77555 -0.246328,-2.2638 -0.865938,-1.54933 -0.403256,-1.34064 0.752716,0.33951 0.745617,1.08371 0.868865,1.16693 1.057643,0.7141 0.117525,-0.2819 0.456647,-1.09495 0.75361,-1.80677 0.674918,-1.61779 0.899575,-1.48688 0.384635,0.22413 -0.212944,0.70756 -0.387172,1.37408 -0.387172,1.48115 0,0.1946 0.917511,0.0142 2.62831,-0.51688 2.055071,-0.63791 0.789191,0.125 -1.966852,1.18536 l -0.79375,0.30539 1.113308,0.30691 c 1.235769,0.34067 1.880857,0.9341 0.760945,0.70001 -0.375997,-0.0786 -0.995757,-0.20833 -1.377246,-0.2883 l -0.693619,-0.1454 0.922002,1.26988 c 0.5071,0.69844 1.074679,1.56754 1.261284,1.93134 l 0.339283,0.66146 -0.590211,-0.52443 c -0.324615,-0.28844 -1.012915,-1.10027 -1.529554,-1.80407 l -0.939342,-1.27964 -0.753819,1.78675 c -0.674568,1.59891 -1.291156,2.62507 -1.291156,2.14881 z M 25.98351,214.112 c -0.106955,-0.3638 -0.273214,-1.58794 -0.369464,-2.72031 -0.09625,-1.13236 -0.265642,-2.11486 -0.376428,-2.18333 -0.110785,-0.0685 -0.777964,0.32871 -1.482619,0.88263 -1.430613,1.12458 -1.942649,1.46379 -1.942649,1.28696 0,-0.0657 0.595312,-0.57344 1.322917,-1.12832 0.727604,-0.55488 1.322916,-1.09217 1.322916,-1.19399 0,-0.10182 -0.74414,-0.13516 -1.653646,-0.0741 -1.16507,0.0782 -1.497301,0.0372 -1.124479,-0.13878 0.291042,-0.13741 1.213776,-0.25821 2.050521,-0.26843 0.83972,-0.0103 1.521354,-0.13882 1.521354,-0.28692 0,-0.32543 -1.445515,-1.68788 -2.447396,-2.30675 -0.400182,-0.24719 -0.727604,-0.53415 -0.727604,-0.63768 0,-0.10352 0.671835,0.21633 1.492967,0.71079 0.821132,0.49446 1.595038,0.83593 1.719792,0.75883 0.124753,-0.0771 0.244093,-0.93683 0.265198,-1.91051 l 0.03837,-1.77032 0.24841,1.98437 c 0.343842,2.74673 0.334484,2.72619 1.057902,2.3211 0.330724,-0.1852 1.077567,-0.67558 1.65965,-1.08973 1.034134,-0.7358 1.029597,-0.72574 -0.198438,0.43984 -0.691224,0.65607 -1.25677,1.26601 -1.25677,1.3554 0,0.0894 0.892968,0.10778 1.984374,0.0408 1.138873,-0.0699 1.984375,-0.0165 1.984375,0.12522 0,0.13581 -0.386953,0.26101 -0.859895,0.27823 -0.472943,0.0172 -1.208675,0.10652 -1.634961,0.19844 -0.734481,0.15838 -0.751115,0.19107 -0.31767,0.62432 0.251569,0.25145 0.65889,0.56994 0.905153,0.70775 0.246266,0.13782 0.364943,0.3334 0.263724,0.43461 -0.101217,0.10122 -0.65314,-0.1875 -1.226495,-0.64161 -1.736259,-1.37514 -1.863421,-1.24347 -1.94955,2.01863 -0.04624,1.75124 -0.149828,2.59007 -0.269562,2.18281 z m 28.37259,-0.10144 c 0,-0.0558 0.238289,-0.16374 0.529532,-0.2399 0.291242,-0.0762 0.462809,-0.0305 0.381259,0.10143 -0.142412,0.23043 -0.910791,0.34725 -0.910791,0.13847 z M 6.7310999,212.70165 c 0,-0.0652 0.2891118,-1.23176 0.6424708,-2.59223 0.3533587,-1.36048 0.6035318,-2.51253 0.5559399,-2.56012 -0.047592,-0.0476 -0.8129538,0.28016 -1.7008039,0.72835 -0.8878504,0.44819 -1.6142734,0.75807 -1.6142734,0.68864 0,-0.1782 2.9333711,-2.12942 3.571875,-2.37594 0.5673775,-0.21906 0.6966214,-0.13973 -2.778125,-1.70516 -1.422731,-0.64097 -0.7286781,-0.73797 1.1665296,-0.16304 0.7143517,0.21671 1.3922084,0.39401 1.5063481,0.39401 0.1141396,0 -0.1361554,-0.83343 -0.5562111,-1.85208 -0.4200556,-1.01865 -0.6811936,-1.85164 -0.5803064,-1.8511 0.1008872,5.3e-4 0.5937163,0.79438 1.0951758,1.7641 l 0.9117444,1.76313 0.4576955,-1.0365 c 0.2517328,-0.57008 0.4707448,-1.2151 0.4866939,-1.43338 0.037751,-0.51667 0.7823489,-1.82105 0.7946209,-1.39201 0.0052,0.18027 -0.238688,1.23197 -0.541878,2.33711 -0.3031894,1.10514 -0.4960384,2.06455 -0.4285535,2.13204 0.067485,0.0675 1.1711335,-0.36168 2.4525535,-0.9537 2.370575,-1.0952 3.876926,-1.3412 1.702254,-0.27798 -0.654844,0.32016 -1.6618,0.82237 -2.237681,1.11603 l -1.047056,0.53393 1.31164,0.56814 c 2.881442,1.24811 2.842675,1.60921 -0.07742,0.72117 -0.909505,-0.27658 -1.653646,-0.46908 -1.653646,-0.42777 0,0.0413 0.310648,0.77454 0.690329,1.62939 1.527996,3.44029 1.439033,3.60089 -0.345089,0.62298 -0.9710405,-1.62079 -1.3117603,-2.01133 -1.4426774,-1.65365 -1.3678514,3.73717 -1.9343667,5.14228 -2.1193715,5.25662 -0.1225259,0.0757 -0.2227742,0.0843 -0.2227742,0.019 z m 59.4747401,-5.44005 -0.07578,-2.68598 -0.992187,0.8187 c -1.093732,0.90249 -1.331355,0.85476 -0.396875,-0.0797 l 0.595312,-0.59531 -1.785937,-0.0782 c -2.58838,-0.11338 -2.202919,-0.58322 0.478485,-0.58322 h 2.264421 l -1.248288,-1.65365 -1.248289,-1.65364 1.176695,1.12448 c 0.647181,0.61846 1.261483,1.12448 1.365115,1.12448 0.103632,0 0.197249,-0.62508 0.208034,-1.38907 0.0108,-0.76398 0.114948,-1.92484 0.231468,-2.57968 0.181888,-1.02222 0.216538,-0.84445 0.24497,1.25677 0.0182,1.34607 0.09319,2.44739 0.166608,2.44739 0.07342,0 0.915725,-0.54675 1.871795,-1.21501 0.956066,-0.66825 1.777119,-1.17427 1.824561,-1.12448 0.04744,0.0498 -0.697079,0.74538 -1.654492,1.54574 -2.037337,1.70315 -2.326114,2.19739 -1.164305,1.99271 0.437793,-0.0771 1.074015,-0.0288 1.413825,0.10738 0.594791,0.23839 0.58823,0.24894 -0.175916,0.28299 -0.436563,0.0195 -1.013653,0.1219 -1.282422,0.22767 -0.450321,0.17721 -0.454544,0.22062 -0.0538,0.55322 0.567954,0.47136 1.556742,1.86312 1.323668,1.86312 -0.09948,0 -0.638657,-0.50081 -1.198168,-1.11291 -0.559512,-0.61209 -1.069163,-1.05858 -1.13256,-0.99218 -0.0634,0.0664 -0.197808,1.19228 -0.298693,2.50196 -0.100886,1.30969 -0.227987,2.42653 -0.282448,2.48186 -0.05446,0.0553 -0.13312,-1.10809 -0.1748,-2.58538 z m -15.649472,0.5004 c -0.960937,-1.01865 -1.808797,-1.85209 -1.884132,-1.85209 -0.07533,0 -0.13697,0.17157 -0.13697,0.38126 0,0.2097 -0.127026,0.45977 -0.282278,0.55572 -0.169442,0.10472 -0.248764,-0.0212 -0.198438,-0.31511 0.08641,-0.50457 -0.07879,-0.53896 -0.95428,-0.19866 -0.456131,0.1773 -0.449266,0.13814 0.06614,-0.37727 0.558774,-0.55878 0.780175,-1.36885 0.374119,-1.36885 -0.306412,0 -3.07443,-2.63362 -2.925035,-2.78301 0.126658,-0.12666 0.413139,0.091 2.291625,1.7408 0.486968,0.42769 0.992984,0.77762 1.124479,0.77762 0.131493,0 0.244639,-0.62507 0.251431,-1.38906 0.0068,-0.76398 0.181218,-2.16297 0.387614,-3.10885 l 0.375267,-1.71979 -0.113329,3.10885 c -0.06233,1.70987 -0.05876,3.10885 0.0079,3.10885 0.06669,0 0.85784,-0.59354 1.758109,-1.31899 0.900271,-0.72544 1.697813,-1.25803 1.772319,-1.18353 0.132117,0.13212 -0.615055,0.87854 -2.260737,2.25845 -1.25026,1.04835 -1.136894,1.33756 1.988407,5.07272 0.21308,0.25466 0.323858,0.46302 0.246171,0.46302 -0.07769,0 -0.927473,-0.83344 -1.888413,-1.85208 z m -2.498688,0.39687 c 0.0054,-0.43656 0.06469,-0.58312 0.131773,-0.32569 0.06708,0.25743 0.06267,0.61462 -0.0098,0.79375 -0.07248,0.17913 -0.127362,-0.0315 -0.12197,-0.46806 z m -3.491164,0.0324 c 0,-0.0549 0.20836,-0.2633 0.463021,-0.46302 0.419645,-0.32911 0.429004,-0.31975 0.0999,0.0999 -0.345643,0.44073 -0.562917,0.58089 -0.562917,0.36313 z m 18.107314,-1.18873 c 0.427408,-0.45542 0.892347,-0.82804 1.033195,-0.82804 0.346747,0 -0.615214,1.03989 -1.278173,1.38171 -0.379868,0.19587 -0.309771,0.0374 0.244978,-0.55367 z m -19.215256,-1.80253 c 0.190994,-0.0764 0.419198,-0.067 0.507119,0.0209 0.08792,0.0879 -0.06835,0.15046 -0.347266,0.13897 -0.308226,-0.0127 -0.370919,-0.0754 -0.159853,-0.15985 z m 1.835547,-0.006 c 0.327421,-0.0631 0.863203,-0.0631 1.190625,0 0.327421,0.0631 0.05953,0.11466 -0.595313,0.11466 -0.654844,0 -0.922734,-0.0516 -0.595312,-0.11466 z m 5.308203,0.006 c 0.190994,-0.0764 0.419198,-0.067 0.507119,0.0209 0.08792,0.0879 -0.06835,0.15046 -0.347266,0.13897 -0.308226,-0.0127 -0.370919,-0.0754 -0.159853,-0.15985 z m -34.206917,-5.34675 c 0.101567,-0.34799 0.521178,-1.18143 0.932467,-1.85209 1.543845,-2.51743 2.060654,-3.46834 1.885016,-3.46834 -0.09953,0 -1.007476,0.29979 -2.017666,0.6662 -2.262876,0.82078 -2.892871,0.73886 -0.764033,-0.0993 0.849585,-0.33451 1.841969,-0.7288 2.205298,-0.87619 l 0.660598,-0.26797 -0.659794,-0.53427 c -0.362887,-0.29385 -1.336092,-0.87567 -2.162678,-1.29292 -0.826586,-0.41726 -1.57709,-0.87873 -1.667786,-1.02548 -0.173091,-0.28006 1.657008,0.44093 3.39928,1.33919 0.563181,0.29036 1.073327,0.47857 1.133657,0.41824 0.06033,-0.0603 -0.01059,-0.63142 -0.157603,-1.26909 -0.147012,-0.63767 -0.265544,-1.39753 -0.263405,-1.68857 0.0058,-0.78516 0.671991,0.84483 0.902175,2.20728 0.102215,0.60501 0.264678,1.09787 0.361027,1.09526 0.09635,-0.003 0.570587,-0.60932 1.053861,-1.34823 1.033175,-1.57969 1.388319,-1.56117 0.576529,0.0301 -0.311345,0.61028 -0.520049,1.15564 -0.463786,1.21191 0.05626,0.0563 1.160523,-0.18886 2.453913,-0.5447 1.293389,-0.35585 2.393418,-0.6052 2.44451,-0.5541 0.05109,0.0511 -0.598379,0.33714 -1.443268,0.63568 -3.847353,1.35942 -3.903101,1.40711 -2.505688,2.14345 0.9552,0.50333 0.485701,0.62866 -0.621687,0.16597 -0.542823,-0.22681 -1.076935,-0.41238 -1.186915,-0.41238 -0.10998,0 -0.04998,0.74414 0.133323,1.65365 0.183307,0.9095 0.406046,2.18942 0.494975,2.84427 0.153451,1.12996 0.142495,1.15692 -0.21505,0.52916 -0.207206,-0.3638 -0.457773,-1.25677 -0.556815,-1.98437 -0.266702,-1.95931 -0.484513,-2.22092 -1.080387,-1.29765 -0.272708,0.42255 -0.641763,0.94691 -0.820122,1.16525 -0.178359,0.21834 -0.754112,0.99229 -1.279451,1.7199 -0.589994,0.81715 -0.884563,1.08103 -0.770495,0.69022 z m 40.350012,-1.35168 c -0.107561,-0.69945 0.0055,-4.85621 0.163648,-6.01927 0.08412,-0.61846 0.04625,-1.12448 -0.08415,-1.12448 -0.130405,0 -1.042808,0.66877 -2.027563,1.48616 -0.984758,0.81739 -1.847281,1.42934 -1.916721,1.3599 -0.06944,-0.0694 0.650851,-0.8532 1.600647,-1.74168 0.949796,-0.88849 1.726901,-1.67904 1.726901,-1.75678 0,-0.0777 -0.446484,-0.15366 -0.992187,-0.16869 l -0.992188,-0.0274 1.058333,-0.2723 c 0.582084,-0.14976 1.103622,-0.31173 1.158976,-0.35993 0.05535,-0.0482 -0.489807,-0.77656 -1.211469,-1.61858 -0.721662,-0.84203 -1.413526,-1.7032 -1.537478,-1.91372 -0.327094,-0.55553 1.158791,0.56019 2.227207,1.67237 0.496001,0.51632 1.002017,0.87683 1.124479,0.80115 0.122463,-0.0757 0.226902,-0.57707 0.232085,-1.11419 0.0098,-1.01938 0.63723,-3.96038 0.901157,-4.2243 0.08377,-0.0838 0.07528,1.17825 -0.01886,2.80448 -0.101741,1.75743 -0.07195,2.95679 0.07345,2.95679 0.134546,0 0.776095,-0.47287 1.425668,-1.05082 0.64957,-0.57795 1.300099,-1.05399 1.44562,-1.05786 0.145521,-0.004 -0.449792,0.64213 -1.322917,1.43555 l -1.5875,1.44258 1.058333,0.0513 c 0.582084,0.0282 1.236927,0.0756 1.455209,0.10527 0.218281,0.0297 1.230312,0.0872 2.248958,0.12789 l 1.852083,0.0739 -1.852083,0.21532 c -1.018646,0.11842 -2.41763,0.17538 -3.108854,0.12658 -1.386872,-0.0979 -1.685703,0.31645 -0.717368,0.9947 0.543137,0.38043 2.646646,3.05756 2.622773,3.338 -0.0071,0.0829 -0.870257,-0.77832 -1.918229,-1.91374 l -1.905405,-2.06438 -0.560764,3.91647 c -0.308419,2.15405 -0.588226,3.73787 -0.621792,3.51959 z"
         id="path1937"
         inkscape:connector-curvature="0" />
      <path
         style="fill:#00ffff;stroke-width:0.26458335"
         d="m 26.045683,280.93491 c 0,-0.22687 0.119063,-0.41249 0.264584,-0.41249 0.14552,0 0.264583,0.11203 0.264583,0.24896 0,0.13694 -0.119063,0.32256 -0.264583,0.41249 -0.145521,0.0899 -0.264584,-0.0221 -0.264584,-0.24896 z m -0.659585,-3.58446 c -0.09269,-0.14999 0.01351,-0.19434 0.248968,-0.10399 0.458369,0.17589 0.542234,0.36554 0.161649,0.36554 -0.136933,0 -0.321711,-0.1177 -0.410617,-0.26155 z m 2.472841,-0.59921 c 0.133308,-0.1333 0.524002,-0.19807 0.868206,-0.14393 0.529614,0.0833 0.492348,0.12058 -0.242379,0.24238 -0.525785,0.0872 -0.772613,0.0483 -0.625827,-0.0985 z m 2.023202,-0.19757 c -0.08994,-0.14552 -0.03743,-0.26459 0.116676,-0.26459 0.15411,0 0.280199,0.11907 0.280199,0.26459 0,0.14552 -0.0525,0.26458 -0.116675,0.26458 -0.06417,0 -0.190262,-0.11906 -0.2802,-0.26458 z m -4.669927,-0.6136 c 0.164841,-0.19862 0.211448,-0.45856 0.103569,-0.57765 -0.107878,-0.11908 -0.04731,-0.13086 0.134588,-0.0262 0.457244,0.26313 0.413557,0.59986 -0.10357,0.7983 -0.343234,0.13172 -0.371454,0.0909 -0.134587,-0.19447 z m 2.32854,-3.74355 c -0.08197,-0.21363 -0.0599,-0.4435 0.04906,-0.51084 0.108958,-0.0673 0.215421,0.10744 0.236585,0.3884 0.04577,0.60763 -0.07895,0.66109 -0.285645,0.12244 z m -10.755487,-2.37411 c 0,-0.22687 0.119062,-0.41249 0.264583,-0.41249 0.145521,0 0.264583,0.11203 0.264583,0.24896 0,0.13694 -0.119062,0.32256 -0.264583,0.41249 -0.145521,0.0899 -0.264583,-0.0221 -0.264583,-0.24896 z m 44.185416,-3.33853 c 0,-0.29963 0.119063,-0.47119 0.264583,-0.38126 0.145521,0.0899 0.264584,0.33509 0.264584,0.54479 0,0.20969 -0.119063,0.38126 -0.264584,0.38126 -0.14552,0 -0.264583,-0.24516 -0.264583,-0.54479 z m -43.370778,-1.46164 c 0.01269,-0.30822 0.07539,-0.37092 0.159852,-0.15985 0.07643,0.19099 0.06703,0.4192 -0.02089,0.50712 -0.08792,0.0879 -0.150453,-0.0684 -0.138964,-0.34727 z m 20.781143,-1.30901 c 0.06634,-0.71019 0.175529,-1.34615 0.24263,-1.41326 0.230632,-0.23063 0.113785,1.95076 -0.124677,2.32754 -0.152683,0.24125 -0.195148,-0.0879 -0.117953,-0.91428 z M 20.22485,263.57347 c 0,-0.15411 0.119062,-0.20662 0.264583,-0.11668 0.145521,0.0899 0.264584,0.21603 0.264584,0.2802 0,0.0642 -0.119063,0.11668 -0.264584,0.11668 -0.145521,0 -0.264583,-0.12609 -0.264583,-0.2802 z m -2.335169,-0.67303 c 0.237113,-0.23711 0.557978,-0.38753 0.713034,-0.33426 0.155056,0.0533 -0.03894,0.24728 -0.431114,0.43112 -0.658976,0.30891 -0.680349,0.30157 -0.28192,-0.0969 z m -3.882539,-0.36969 c -0.08994,-0.14552 0.01507,-0.26458 0.233353,-0.26458 0.218281,0 0.47046,0.11906 0.560397,0.26458 0.08994,0.14552 -0.01507,0.26458 -0.233354,0.26458 -0.218281,0 -0.47046,-0.11906 -0.560396,-0.26458 z m 3.68758,-0.73307 c 0.09031,-0.0903 0.350252,-0.1915 0.577655,-0.22488 0.227404,-0.0334 0.339574,0.0132 0.249267,0.10352 -0.09031,0.0903 -0.350251,0.1915 -0.577655,0.22487 -0.227403,0.0334 -0.339574,-0.0132 -0.249267,-0.10351 z m 45.499781,-0.39141 -0.504028,-0.59531 0.595312,0.50403 c 0.559446,0.47366 0.715762,0.68659 0.504029,0.68659 -0.05021,0 -0.318098,-0.26789 -0.595313,-0.59531 z m 2.105367,-0.64707 c 0.285964,-0.28596 0.96248,-0.32612 0.96248,-0.0571 0,0.13264 -0.257969,0.24117 -0.573265,0.24117 -0.315293,0 -0.490442,-0.0828 -0.389215,-0.18405 z m -1.881791,-0.5275 c 0.254661,-0.0666 0.67138,-0.0666 0.926042,0 0.254661,0.0666 0.0463,0.121 -0.463021,0.121 -0.509323,0 -0.717683,-0.0545 -0.463021,-0.121 z m -12.745257,-1.29487 c 0.0127,-0.30823 0.07539,-0.37092 0.159851,-0.15986 0.07643,0.191 0.06703,0.4192 -0.02088,0.50712 -0.08792,0.0879 -0.150453,-0.0684 -0.138964,-0.34726 z m 10.013034,0.35277 c -0.142853,-0.46677 -0.167626,-1.00366 -0.04044,-0.87648 0.193082,0.19309 0.327914,0.94263 0.169563,0.94263 -0.05989,0 -0.117991,-0.0298 -0.129125,-0.0661 z m 0.963295,-0.27599 c 0.09936,-0.26094 0.247304,-0.40778 0.328766,-0.32632 0.08146,0.0815 1.7e-4,0.29495 -0.180652,0.47443 -0.261308,0.25936 -0.291698,0.22897 -0.148114,-0.14811 z m -2.116666,-1.1678 c -0.143584,-0.37709 -0.113194,-0.40748 0.148114,-0.14812 0.180821,0.17948 0.262114,0.39297 0.180652,0.47443 -0.08146,0.0815 -0.229407,-0.0654 -0.328766,-0.32631 z m 2.515129,-0.52497 c 0.01023,-0.11773 0.12092,-0.45217 0.245986,-0.74322 0.219231,-0.51018 0.228057,-0.50836 0.245985,0.0505 0.01024,0.31884 -0.100464,0.65329 -0.245985,0.74322 -0.145521,0.0899 -0.256215,0.0672 -0.245986,-0.0505 z m -34.658125,-0.76526 c 0.0127,-0.30823 0.07539,-0.37092 0.15985,-0.15986 0.07643,0.191 0.06703,0.4192 -0.02088,0.50712 -0.08792,0.0879 -0.150453,-0.0684 -0.138965,-0.34726 z m 11.722285,-0.56703 c 0.439891,-0.51994 0.956826,-0.59826 0.956826,-0.14496 0,0.0884 -0.07964,0.0811 -0.176967,-0.0162 -0.09733,-0.0973 -0.424754,0.0317 -0.727604,0.28664 -0.549198,0.46238 -0.549333,0.46205 -0.05226,-0.12548 z m -0.872609,-0.33697 c -0.008,-0.21828 0.10087,-0.57547 0.241935,-0.79375 0.312557,-0.48365 0.312557,-0.0659 0,0.66146 -0.149934,0.34892 -0.232344,0.39398 -0.241935,0.13229 z m -13.780982,-0.36856 c 0,-0.0572 0.184778,-0.17489 0.410617,-0.26156 0.235459,-0.0904 0.341662,-0.046 0.248969,0.10399 -0.155379,0.2514 -0.659586,0.37185 -0.659586,0.15757 z m 25.685472,-1.10869 c 0.0127,-0.30823 0.07539,-0.37092 0.159851,-0.15986 0.07643,0.191 0.06703,0.4192 -0.02088,0.50712 -0.08792,0.0879 -0.150452,-0.0684 -0.138964,-0.34726 z M 16.520683,253.7995 c 0,-0.14552 0.12609,-0.26458 0.280198,-0.26458 0.154109,0 0.206614,0.11906 0.116677,0.26458 -0.08994,0.14552 -0.216026,0.26458 -0.280198,0.26458 -0.06417,0 -0.116677,-0.11906 -0.116677,-0.26458 z m 10.202035,-1.19904 c -0.282475,-0.21365 -0.401538,-0.38467 -0.264584,-0.38005 0.136954,0.005 0.480123,0.18323 0.762598,0.39688 0.282475,0.21365 0.401537,0.38467 0.264583,0.38005 -0.136953,-0.005 -0.480122,-0.18323 -0.762597,-0.39688 z m 40.862548,-0.10826 c 0,-0.28246 0.119063,-0.58714 0.264584,-0.67708 0.150061,-0.0927 0.264583,0.12955 0.264583,0.51355 0,0.3724 -0.119063,0.67708 -0.264583,0.67708 -0.145521,0 -0.264584,-0.2311 -0.264584,-0.51355 z m -16.933333,-0.2719 c 0,-0.14095 0.178594,-0.18774 0.396875,-0.10398 0.218281,0.0838 0.396875,0.19909 0.396875,0.25628 0,0.0572 -0.178594,0.10398 -0.396875,0.10398 -0.218281,0 -0.396875,-0.11532 -0.396875,-0.25628 z m -22.357291,-0.27288 c -0.08994,-0.14553 -0.03743,-0.26459 0.116675,-0.26459 0.15411,0 0.280199,0.11906 0.280199,0.26459 0,0.14552 -0.0525,0.26458 -0.116675,0.26458 -0.06417,0 -0.190262,-0.11906 -0.280199,-0.26458 z m 35.851041,-0.0999 c 0,-0.0549 0.208359,-0.2633 0.463021,-0.46302 0.419645,-0.32911 0.429003,-0.31975 0.0999,0.0999 -0.345644,0.44073 -0.562917,0.58089 -0.562917,0.36313 z m -15.324944,-1.64194 c 0.0127,-0.30823 0.07539,-0.37092 0.15985,-0.15986 0.07643,0.191 0.06703,0.4192 -0.02088,0.50712 -0.08792,0.0879 -0.150453,-0.0684 -0.138965,-0.34726 z m 18.785416,-0.52917 c 0.0127,-0.30823 0.07539,-0.37092 0.159851,-0.15985 0.07643,0.19099 0.06703,0.4192 -0.02088,0.50712 -0.08792,0.0879 -0.150452,-0.0684 -0.138964,-0.34727 z m -50.270834,-0.26458 c 0.0127,-0.30823 0.07539,-0.37092 0.159853,-0.15986 0.07643,0.191 0.06703,0.4192 -0.02089,0.50712 -0.08792,0.0879 -0.150453,-0.0683 -0.138965,-0.34726 z M 68.114433,249.037 c 0,-0.14552 0.12609,-0.26458 0.280199,-0.26458 0.154109,0 0.206613,0.11906 0.116676,0.26458 -0.08994,0.14552 -0.216027,0.26458 -0.280199,0.26458 -0.06417,0 -0.116676,-0.11906 -0.116676,-0.26458 z m -45.24375,-0.54478 c 0,-0.15411 0.119063,-0.20662 0.264584,-0.11668 0.14552,0.0899 0.264583,0.21603 0.264583,0.2802 0,0.0642 -0.119063,0.11668 -0.264583,0.11668 -0.145521,0 -0.264584,-0.12609 -0.264584,-0.2802 z m 41.539583,-0.21228 c 0,-0.12534 0.297657,-0.17099 0.661459,-0.10145 0.363802,0.0695 0.661458,0.1721 0.661458,0.2279 0,0.0558 -0.297656,0.10144 -0.661458,0.10144 -0.363802,0 -0.661459,-0.10255 -0.661459,-0.22789 z m -44.802777,-0.21308 c -0.323304,-0.3233 -0.181877,-0.61761 0.286632,-0.59647 0.279333,0.0126 0.331161,0.074 0.130643,0.15489 -0.182808,0.0737 -0.265078,0.24289 -0.182823,0.37598 0.17372,0.28109 0.02316,0.32321 -0.234452,0.0656 z m 46.919444,0.075 c 0,-0.0558 0.238289,-0.16375 0.529532,-0.23991 0.291243,-0.0762 0.462809,-0.0305 0.381259,0.10143 -0.142412,0.23043 -0.910791,0.34725 -0.910791,0.13848 z m 2.116667,-0.26305 c 0,-0.20046 0.178593,-0.5127 0.396875,-0.69385 0.250266,-0.20771 0.396875,-0.22544 0.396875,-0.048 0,0.15475 -0.121005,0.35615 -0.268899,0.44756 -0.147894,0.0914 -0.200401,0.27702 -0.116676,0.41249 0.08372,0.13546 0.02614,0.2463 -0.127976,0.2463 -0.15411,0 -0.280199,-0.16402 -0.280199,-0.36448 z m -31.316515,-0.56156 c 0.08377,-0.21828 0.199089,-0.39688 0.256281,-0.39688 0.05719,0 0.103984,0.1786 0.103984,0.39688 0,0.21828 -0.115327,0.39687 -0.256281,0.39687 -0.140951,0 -0.187746,-0.17859 -0.103984,-0.39687 z m 30.351402,0.13406 c -0.312531,-0.1261 -0.657421,-0.38644 -0.766421,-0.57854 -0.159396,-0.28092 -0.128447,-0.28455 0.158136,-0.0185 0.495334,0.45977 1.060744,0.41704 0.875329,-0.0661 -0.08376,-0.21829 -0.02183,-0.39688 0.137631,-0.39688 0.159459,0 0.265292,0.29766 0.235183,0.66146 -0.03011,0.3638 -0.05854,0.65391 -0.06318,0.64468 -0.0046,-0.009 -0.264144,-0.11994 -0.576675,-0.24604 z m -30.780836,-1.08215 c 0.0021,-0.35168 0.121126,-0.81801 0.264215,-1.03629 0.183036,-0.27922 0.209786,-0.12235 0.09023,0.52917 -0.209389,1.14109 -0.359828,1.35633 -0.354449,0.50712 z m 28.942686,-0.30868 -0.504029,-0.59532 0.595312,0.50403 c 0.559446,0.47366 0.715762,0.6866 0.504029,0.6866 -0.05021,0 -0.318098,-0.26789 -0.595312,-0.59531 z m -26.433196,-2.05052 c -0.08994,-0.14553 -0.04446,-0.26459 0.101063,-0.26459 0.145521,0 0.338167,0.11906 0.428104,0.26459 0.08994,0.14552 0.04446,0.26458 -0.101063,0.26458 -0.145521,0 -0.338166,-0.11906 -0.428104,-0.26458 z m 9.392709,-0.62907 c 0,-0.0549 0.208359,-0.2633 0.463021,-0.46302 0.419645,-0.32911 0.429003,-0.31975 0.0999,0.0999 -0.345644,0.44073 -0.562917,0.58089 -0.562917,0.36312 z m -3.836459,-1.22302 c -0.08994,-0.14552 -0.03743,-0.26458 0.116676,-0.26458 0.15411,0 0.280199,0.11906 0.280199,0.26458 0,0.14552 -0.0525,0.26459 -0.116676,0.26459 -0.06417,0 -0.190261,-0.11907 -0.280199,-0.26459 z m 9.552255,-1.27882 c -0.07495,-0.12127 0.03709,-0.22048 0.248968,-0.22048 0.211878,0 0.385236,0.0992 0.385236,0.22048 0,0.12127 -0.112035,0.22049 -0.248968,0.22049 -0.136932,0 -0.31029,-0.0992 -0.385236,-0.22049 z m -2.325822,-0.22483 c 0.190994,-0.0764 0.419198,-0.067 0.507119,0.0209 0.08792,0.0879 -0.06835,0.15045 -0.347266,0.13897 -0.308226,-0.0127 -0.370919,-0.0754 -0.159853,-0.15985 z M 35.835266,239.8933 c 0,-0.37239 0.107884,-0.6104 0.239745,-0.5289 0.13186,0.0815 0.177503,0.38617 0.101433,0.67707 -0.190381,0.72801 -0.341178,0.66252 -0.341178,-0.14817 z m 17.330209,-0.91043 c -0.08994,-0.14552 -0.03743,-0.26458 0.116676,-0.26458 0.154109,0 0.280199,0.11906 0.280199,0.26458 0,0.14552 -0.0525,0.26459 -0.116676,0.26459 -0.06417,0 -0.190262,-0.11907 -0.280199,-0.26459 z M 41.147822,236.1827 c 0.0127,-0.30823 0.07539,-0.37092 0.159851,-0.15985 0.07643,0.19099 0.06703,0.41919 -0.02088,0.50711 -0.08792,0.0879 -0.150453,-0.0684 -0.138964,-0.34726 z m 18.785417,-0.26458 c 0.0127,-0.30823 0.07539,-0.37092 0.15985,-0.15986 0.07643,0.191 0.06703,0.4192 -0.02087,0.50712 -0.08792,0.0879 -0.150453,-0.0684 -0.138965,-0.34726 z m 0.0039,-1.83004 c 0.0076,-0.92565 0.03981,-0.98078 0.256638,-0.43971 0.15629,0.39001 0.153067,0.78114 -0.0087,1.05834 -0.195688,0.33528 -0.254564,0.18837 -0.247912,-0.61863 z m -16.958138,0.11668 c 0,-0.15411 0.119063,-0.20662 0.264584,-0.11668 0.145521,0.0899 0.264583,0.21603 0.264583,0.2802 0,0.0642 -0.119062,0.11668 -0.264583,0.11668 -0.145521,0 -0.264584,-0.12609 -0.264584,-0.2802 z m -15.874999,-0.52917 c 0,-0.15411 0.119062,-0.20661 0.264583,-0.11668 0.145521,0.0899 0.264583,0.21603 0.264583,0.2802 0,0.0642 -0.119062,0.11668 -0.264583,0.11668 -0.145521,0 -0.264583,-0.12609 -0.264583,-0.2802 z m 33.358388,-0.93247 c 0.0127,-0.30823 0.07539,-0.37092 0.159851,-0.15986 0.07643,0.191 0.06703,0.4192 -0.02088,0.50712 -0.08792,0.0879 -0.150452,-0.0684 -0.138964,-0.34726 z m -0.671047,-1.41488 c -0.08372,-0.13547 -0.05106,-0.30882 0.07258,-0.38524 0.123643,-0.0764 0.224803,0.0344 0.224803,0.2463 0,0.44613 -0.08343,0.48511 -0.297381,0.13894 z m 3.692867,-0.0183 c -0.08994,-0.14552 -0.03743,-0.26458 0.116676,-0.26458 0.154109,0 0.280199,0.11906 0.280199,0.26458 0,0.14553 -0.0525,0.26459 -0.116676,0.26459 -0.06417,0 -0.190262,-0.11906 -0.280199,-0.26459 z m -1.047033,-0.51088 c -0.08373,-0.13547 -0.05106,-0.30882 0.07258,-0.38524 0.123642,-0.0764 0.224803,0.0344 0.224803,0.24631 0,0.44613 -0.08343,0.48511 -0.297381,0.13893 z m -4.31078,-0.31304 c 0.279361,-0.15729 0.630807,-0.1668 0.886021,-0.024 0.318426,0.1782 0.203954,0.24266 -0.463021,0.26071 -0.712462,0.0193 -0.795321,-0.0271 -0.423,-0.23672 z m -17.864346,-0.47778 c -0.115086,-0.4401 -0.08065,-0.5434 0.115686,-0.34706 0.15375,0.15375 0.227486,0.43572 0.163859,0.6266 -0.06605,0.19816 -0.185986,0.0782 -0.279545,-0.27954 z m 19.15628,-0.3333 c -0.820856,-1.01244 -0.633812,-1.1377 0.326091,-0.21837 0.41697,0.39934 0.655095,0.78565 0.529167,0.85846 -0.125929,0.0728 -0.510797,-0.21523 -0.855258,-0.64009 z m 1.750775,0.66603 c 0.181901,-0.0734 0.479557,-0.0734 0.661458,0 0.181901,0.0734 0.03307,0.13345 -0.330729,0.13345 -0.363802,0 -0.512631,-0.0601 -0.330729,-0.13345 z M 52.371725,229.987 c -0.08994,-0.14552 -0.04446,-0.26459 0.101063,-0.26459 0.14552,0 0.338166,0.11907 0.428103,0.26459 0.08994,0.14552 0.04446,0.26458 -0.101063,0.26458 -0.14552,0 -0.338166,-0.11906 -0.428103,-0.26458 z m -0.536747,-1.41695 c 0.334835,-0.24484 0.42985,-0.51765 0.299476,-0.85989 -0.153172,-0.40211 -0.125034,-0.43585 0.142219,-0.17056 0.183248,0.1819 0.696317,0.34292 1.140156,0.35781 l 0.806979,0.0271 -0.884409,0.20909 c -0.486426,0.11501 -1.016254,0.34095 -1.177396,0.50209 -0.161142,0.16114 -0.410993,0.29298 -0.555223,0.29298 -0.14423,0 -0.04154,-0.16137 0.228198,-0.35861 z m -3.564295,-0.43514 c 0,-0.14552 0.364215,-0.26458 0.809366,-0.26458 0.472202,0 0.741246,0.11022 0.645842,0.26458 -0.08994,0.14553 -0.454152,0.26459 -0.809365,0.26459 -0.355214,0 -0.645843,-0.11906 -0.645843,-0.26459 z m 2.116667,0 c -0.238467,-0.1541 -0.2711,-0.25809 -0.08176,-0.26053 0.173313,-0.002 0.3887,0.11501 0.478637,0.26053 0.203015,0.32849 0.111421,0.32849 -0.396875,0 z m -0.115282,-2.0391 c -0.143584,-0.37709 -0.113194,-0.40748 0.148114,-0.14812 0.180821,0.17948 0.262115,0.39297 0.180652,0.47443 -0.08146,0.0815 -0.229407,-0.0654 -0.328766,-0.32631 z m 0.77674,-2.98798 c -0.225756,-0.43656 -0.299992,-0.79375 -0.16497,-0.79375 0.135022,0 0.370012,0.35719 0.5222,0.79375 0.152186,0.43656 0.226422,0.79375 0.164968,0.79375 -0.06145,0 -0.296442,-0.35719 -0.522198,-0.79375 z m -29.67743,0.14393 c 0,-0.21188 0.101161,-0.32271 0.224802,-0.2463 0.123641,0.0764 0.156302,0.24977 0.07258,0.38524 -0.213949,0.34617 -0.297381,0.30719 -0.297382,-0.13894 z m 2.243446,0.2045 c 0.190996,-0.0764 0.419199,-0.067 0.507118,0.0209 0.08792,0.0879 -0.06835,0.15046 -0.347266,0.13897 -0.308224,-0.0127 -0.370919,-0.0754 -0.159852,-0.15985 z m -2.38125,-1.05833 c 0.190996,-0.0764 0.419199,-0.067 0.507118,0.0209 0.08792,0.0879 -0.06835,0.15045 -0.347266,0.13897 -0.308224,-0.0127 -0.370919,-0.0754 -0.159852,-0.15986 z m 11.059739,-0.13226 c 0.07642,-0.12364 0.24977,-0.1563 0.385236,-0.0726 0.346176,0.21395 0.307197,0.29738 -0.138935,0.29738 -0.211881,0 -0.322715,-0.10116 -0.246301,-0.2248 z m 0.89612,-0.23179 c 0,-0.15411 0.119063,-0.20661 0.264583,-0.11667 0.145521,0.0899 0.264584,0.21602 0.264584,0.2802 0,0.0642 -0.119063,0.11667 -0.264584,0.11667 -0.14552,0 -0.264583,-0.12609 -0.264583,-0.2802 z m 14.46389,-0.68994 c -0.09701,-0.097 -0.17639,-0.29942 -0.17639,-0.44979 0,-0.16579 0.123235,-0.15017 0.313089,0.0397 0.172202,0.1722 0.251577,0.37461 0.17639,0.44979 -0.07519,0.0752 -0.216077,0.0573 -0.313089,-0.0397 z m -24.617662,-0.4953 c -0.255317,-0.66534 -0.179999,-0.83702 0.131904,-0.30065 0.154435,0.26557 0.225054,0.5386 0.156932,0.60672 -0.06812,0.0681 -0.198098,-0.0696 -0.288836,-0.30607 z M 20.916229,220.149 c 0.07641,-0.12364 0.249771,-0.1563 0.385236,-0.0726 0.346176,0.21395 0.307197,0.29738 -0.138935,0.29738 -0.21188,0 -0.322715,-0.10116 -0.246301,-0.2248 z m 31.058621,-0.32015 c 0,-0.0572 0.184777,-0.17489 0.410617,-0.26156 0.235458,-0.0904 0.341662,-0.046 0.248968,0.10399 -0.155379,0.25141 -0.659585,0.37186 -0.659585,0.15757 z m -28.651663,-0.68977 c 0.07611,-0.29104 0.184025,-0.52917 0.239813,-0.52917 0.05579,0 0.101433,0.23813 0.101433,0.52917 0,0.29104 -0.107916,0.52917 -0.239813,0.52917 -0.131897,0 -0.177542,-0.23813 -0.101433,-0.52917 z m 8.758303,0.34843 c 0.190995,-0.0764 0.419198,-0.067 0.507119,0.0209 0.08792,0.0879 -0.06835,0.15046 -0.347265,0.13897 -0.308227,-0.0127 -0.37092,-0.0754 -0.159854,-0.15985 z m 17.51211,-0.52506 c 0.218281,-0.092 0.495236,-0.29827 0.615455,-0.45835 0.140589,-0.18721 0.17997,-0.14945 0.110366,0.10581 -0.05952,0.21829 -0.336471,0.42454 -0.615456,0.45836 -0.356404,0.0432 -0.389223,0.0117 -0.110365,-0.10582 z m -1.982502,-1.67242 c -0.09269,-0.14998 0.01352,-0.19434 0.248968,-0.10399 0.458369,0.1759 0.542234,0.36554 0.161649,0.36554 -0.136932,0 -0.321712,-0.1177 -0.410617,-0.26155 z m 8.135935,-0.20481 c 0.02453,-0.32558 0.138319,-0.59197 0.25287,-0.59197 0.276093,0 0.25722,0.30665 -0.04864,0.79041 -0.19555,0.30929 -0.239273,0.26681 -0.204226,-0.19844 z m 0.746622,-4.45048 c 0.0127,-0.30822 0.07539,-0.37092 0.159851,-0.15985 0.07643,0.19099 0.06703,0.4192 -0.02088,0.50712 -0.08792,0.0879 -0.150452,-0.0684 -0.138964,-0.34727 z M 6.8746906,212.2782 c -0.1759405,-0.28468 0.3419163,-0.67931 0.579568,-0.44166 0.087332,0.0873 0.012853,0.15879 -0.1655096,0.15879 -0.1783625,0 -0.250711,0.11906 -0.1607741,0.26458 0.089937,0.14553 0.1039903,0.26459 0.03123,0.26459 -0.072761,0 -0.2007918,-0.11084 -0.2845143,-0.2463 z m 52.1116174,-0.0183 c -0.08994,-0.14552 -0.03743,-0.26458 0.116676,-0.26458 0.154109,0 0.280199,0.11906 0.280199,0.26458 0,0.14553 -0.0525,0.26459 -0.116676,0.26459 -0.06417,0 -0.190262,-0.11906 -0.280199,-0.26459 z m 0.661458,0.0116 c 0,-0.14164 0.238125,-0.38496 0.529167,-0.54072 0.291042,-0.15576 0.529167,-0.18859 0.529167,-0.073 0,0.11564 -0.238125,0.35896 -0.529167,0.54072 -0.293127,0.18306 -0.529167,0.2156 -0.529167,0.073 z m 1.781527,-0.83814 c 0.179478,-0.18082 0.39297,-0.26211 0.474433,-0.18065 0.08146,0.0815 -0.06538,0.22941 -0.326319,0.32877 -0.377084,0.14358 -0.407474,0.11319 -0.148114,-0.14812 z M 7.4096929,210.96472 c -0.080513,-0.13027 0.025458,-0.3028 0.2354938,-0.3834 0.2547336,-0.0978 0.3328958,-0.0189 0.2347563,0.23686 -0.170552,0.44445 -0.2674665,0.47465 -0.4702501,0.14654 z m 20.3670821,-1.33236 c -0.08373,-0.13546 -0.05106,-0.30882 0.07258,-0.38523 0.123642,-0.0764 0.224803,0.0344 0.224803,0.2463 0,0.44613 -0.08343,0.48511 -0.297381,0.13893 z m 23.261153,-1.3588 c -0.284763,-0.46075 0.03956,-0.55833 0.402448,-0.12108 0.20869,0.25145 0.228764,0.40327 0.05332,0.40327 -0.154749,0 -0.359844,-0.12699 -0.455766,-0.28219 z M 6.6101073,207.78028 c -0.083722,-0.13547 -0.051061,-0.30882 0.072579,-0.38524 0.1236412,-0.0764 0.2248022,0.0344 0.2248022,0.2463 0,0.44614 -0.083433,0.48512 -0.2973812,0.13894 z m 1.3116176,-0.28287 c -0.089937,-0.14552 -0.037432,-0.26458 0.1166768,-0.26458 0.1541089,0 0.2801982,0.11906 0.2801982,0.26458 0,0.14553 -0.052504,0.26459 -0.1166767,0.26459 -0.064172,0 -0.1902614,-0.11906 -0.2801983,-0.26459 z m 41.9164321,-0.99218 -0.641432,-0.72761 0.727604,0.64143 c 0.680056,0.59952 0.848939,0.81378 0.641432,0.81378 -0.04739,0 -0.374814,-0.32742 -0.727604,-0.7276 z m -37.945809,0.20146 c -0.09269,-0.14998 0.01351,-0.19433 0.248968,-0.10398 0.458369,0.17589 0.542234,0.36554 0.161649,0.36554 -0.136933,0 -0.32171,-0.1177 -0.410617,-0.26156 z m 51.389029,-0.30044 c 0.179477,-0.18082 0.392969,-0.26212 0.474432,-0.18065 0.08146,0.0815 -0.06538,0.2294 -0.326319,0.32876 -0.377084,0.14359 -0.407474,0.1132 -0.148113,-0.14811 z m 4.992602,-0.18765 c -0.07495,-0.12127 0.03185,-0.22049 0.237329,-0.22049 0.205478,0 0.312277,0.0992 0.237329,0.22049 -0.07495,0.12126 -0.181745,0.22048 -0.237329,0.22048 -0.05558,0 -0.162383,-0.0992 -0.237329,-0.22048 z m -3.449828,-0.91541 c 0.09936,-0.26094 0.247304,-0.40778 0.328766,-0.32632 0.08146,0.0815 1.7e-4,0.29496 -0.180652,0.47443 -0.261308,0.25936 -0.291698,0.22897 -0.148114,-0.14811 z M 8.707263,204.83829 C 8.609876,204.68072 8.6016485,204.48034 8.68898,204.393 c 0.087332,-0.0873 0.1606093,0.01 0.1628376,0.21605 0.00334,0.30862 0.049349,0.30473 0.2605318,-0.022 0.1541092,-0.23847 0.2580973,-0.2711 0.2605317,-0.0818 0.00573,0.4455 -0.453966,0.67552 -0.6656186,0.33306 z m -3.8282464,-0.2596 c 0,-0.14095 0.1785938,-0.25628 0.396875,-0.25628 0.2182813,0 0.396875,0.0468 0.396875,0.10399 0,0.0572 -0.1785937,0.17251 -0.396875,0.25628 -0.2182812,0.0838 -0.396875,0.037 -0.396875,-0.10399 z m 56.8854164,-0.25628 c 0,-0.14552 0.112035,-0.26458 0.248968,-0.26458 0.136932,0 0.322553,0.11906 0.41249,0.26458 0.08994,0.14552 -0.02209,0.26459 -0.248967,0.26459 -0.22687,0 -0.412491,-0.11907 -0.412491,-0.26459 z m -11.744037,-0.84216 c 0.07642,-0.12364 0.24977,-0.1563 0.385236,-0.0726 0.346176,0.21395 0.307198,0.29738 -0.138935,0.29738 -0.211881,0 -0.322715,-0.10116 -0.246301,-0.2248 z m 17.035704,0.2131 c 0,-0.0549 0.208359,-0.2633 0.46302,-0.46302 0.419646,-0.32911 0.429004,-0.31975 0.0999,0.0999 -0.345644,0.44073 -0.562917,0.58088 -0.562917,0.36312 z M 9.828659,202.73789 c 0.075681,-0.28941 0.24891,-0.4574 0.384952,-0.37332 0.14596,0.0902 0.120349,0.3059 -0.06248,0.52619 -0.417362,0.50289 -0.485512,0.47058 -0.322475,-0.15287 z m 55.870774,0.0632 c -0.335891,-0.4283 -0.32344,-0.43391 0.166042,-0.0749 0.291041,0.21349 0.578776,0.42184 0.63941,0.46302 0.06063,0.0412 -0.01408,0.0749 -0.166042,0.0749 -0.151955,0 -0.43969,-0.20836 -0.63941,-0.46302 z m 1.092083,-0.33073 c -0.156458,-0.29234 -0.174434,-0.52917 -0.04017,-0.52917 0.13367,0 0.305306,0.23813 0.381416,0.52917 0.07611,0.29104 0.09418,0.52917 0.04017,0.52917 -0.05401,0 -0.225652,-0.23813 -0.381413,-0.52917 z m -21.923819,-0.0882 c -0.218787,-0.26363 -0.204684,-0.35278 0.0558,-0.35278 0.191717,0 0.348578,0.15875 0.348578,0.35278 0,0.19402 -0.02511,0.35277 -0.0558,0.35277 -0.03069,0 -0.18755,-0.15875 -0.348578,-0.35277 z m 19.431524,-0.91231 -0.507921,-0.71929 0.706358,0.64143 c 0.742262,0.67404 0.833747,0.81911 0.507921,0.80546 -0.109141,-0.005 -0.427001,-0.33199 -0.706358,-0.7276 z m -15.478482,0.0524 c 0.0127,-0.30822 0.07539,-0.37092 0.15985,-0.15985 0.07643,0.19099 0.06703,0.4192 -0.02088,0.50712 -0.08792,0.0879 -0.150453,-0.0683 -0.138965,-0.34727 z M 69.43735,201.412 c 0.15576,-0.29104 0.342733,-0.52917 0.415493,-0.52917 0.07276,0 0.0048,0.23813 -0.15091,0.52917 -0.15576,0.29104 -0.342733,0.52916 -0.415494,0.52916 -0.07276,0 -0.0048,-0.23812 0.150911,-0.52916 z m -59.097764,-0.13229 c 0.08376,-0.21829 0.199088,-0.39688 0.25628,-0.39688 0.05719,0 0.103984,0.17859 0.103984,0.39688 0,0.21828 -0.115326,0.39687 -0.256279,0.39687 -0.140954,0 -0.187747,-0.17859 -0.103985,-0.39687 z m 60.156097,-0.66146 c 0,-0.14552 0.12609,-0.26459 0.280199,-0.26459 0.154109,0 0.206613,0.11907 0.116676,0.26459 -0.08994,0.14552 -0.216027,0.26458 -0.280199,0.26458 -0.06417,0 -0.116676,-0.11906 -0.116676,-0.26458 z m -13.873615,-2.56828 c -0.143584,-0.37708 -0.113194,-0.40747 0.148114,-0.14811 0.180821,0.17947 0.262115,0.39297 0.180652,0.47443 -0.08146,0.0815 -0.229407,-0.0654 -0.328766,-0.32632 z m -35.847163,-0.2319 c 0.01269,-0.30822 0.07539,-0.37092 0.159852,-0.15985 0.07643,0.191 0.06703,0.4192 -0.02089,0.50712 -0.08792,0.0879 -0.150453,-0.0683 -0.138964,-0.34727 z m -0.79375,-2.11666 c 0.01269,-0.30823 0.07539,-0.37092 0.159852,-0.15986 0.07643,0.191 0.06703,0.4192 -0.02089,0.50712 -0.08792,0.0879 -0.150453,-0.0683 -0.138964,-0.34726 z M 16.785267,195.062 c 0,-0.14552 0.126089,-0.26459 0.280198,-0.26459 0.154109,0 0.206613,0.11907 0.116677,0.26459 -0.08994,0.14552 -0.216026,0.26458 -0.280199,0.26458 -0.06417,0 -0.116676,-0.11906 -0.116676,-0.26458 z m 43.566206,-1.27882 c -0.494601,-0.51625 -0.596013,-0.74966 -0.325723,-0.74966 0.215868,0 0.337061,0.0897 0.269314,0.1993 -0.06774,0.10962 0.191675,0.44696 0.576488,0.74966 0.384812,0.30269 0.586816,0.55035 0.448897,0.55035 -0.137919,0 -0.573961,-0.33734 -0.968976,-0.74965 z m -7.18453,-0.0457 c 0.264197,-0.29194 0.537742,-0.47341 0.607878,-0.40327 0.177781,0.17778 -0.482129,0.93406 -0.815041,0.93406 -0.150257,0 -0.05703,-0.23886 0.207163,-0.53079 z m 3.621987,-0.39525 c 0.0054,-0.43657 0.06469,-0.58313 0.131773,-0.3257 0.06708,0.25743 0.06267,0.61462 -0.0098,0.79375 -0.07246,0.17913 -0.127349,-0.0315 -0.121957,-0.46805 z m -36.299497,-0.38126 c 0,-0.13694 0.117699,-0.32171 0.261553,-0.41062 0.149982,-0.0927 0.194338,0.0135 0.103984,0.24897 -0.175892,0.45837 -0.365537,0.54223 -0.365537,0.16165 z m 33.759397,0.0249 c -0.07617,-0.12325 0.244221,-0.56974 0.711991,-0.99219 l 0.850487,-0.76809 -0.731308,0.81209 c -0.40222,0.44665 -0.650267,0.89314 -0.551215,0.99219 0.09905,0.0991 0.107744,0.18009 0.01932,0.18009 -0.08842,0 -0.223097,-0.10084 -0.299273,-0.22409 z m 3.303159,-0.724 c 0.0127,-0.30822 0.07539,-0.37092 0.15985,-0.15985 0.07643,0.191 0.06703,0.4192 -0.02087,0.50712 -0.08792,0.0879 -0.150453,-0.0684 -0.138965,-0.34727 z m -36.371177,-0.42324 c 0.07642,-0.12364 0.249771,-0.1563 0.385237,-0.0726 0.346176,0.21395 0.307196,0.29739 -0.138935,0.29739 -0.211881,0 -0.322716,-0.10116 -0.246302,-0.22481 z m 34.953629,-0.24826 c 0.163335,-0.16333 0.235516,-0.49082 0.160398,-0.72775 -0.08548,-0.26961 -0.053,-0.32189 0.08682,-0.13972 0.122868,0.16008 0.368332,0.33867 0.545476,0.39687 0.177144,0.0582 0.0044,0.25471 -0.383797,0.4367 -0.446095,0.20911 -0.596582,0.22158 -0.4089,0.0339 z m -37.232508,-1.27521 c 0,-0.63885 0.147138,-0.7033 0.357012,-0.15638 0.08197,0.21362 0.03518,0.45877 -0.103984,0.54478 -0.139165,0.086 -0.253028,-0.0888 -0.253028,-0.3884 z m 40.431641,0.33281 c 0.190994,-0.0764 0.419198,-0.067 0.507119,0.0209 0.08792,0.0879 -0.06835,0.15045 -0.347266,0.13897 -0.308226,-0.0127 -0.370919,-0.0754 -0.159853,-0.15986 z m 1.443707,-0.003 c 0.257431,-0.0671 0.614619,-0.0627 0.79375,0.01 0.17913,0.0725 -0.03149,0.12736 -0.468056,0.12197 -0.436563,-0.005 -0.583126,-0.0647 -0.325694,-0.13178 z m 2.640798,-0.2636 c 0.254661,-0.0666 0.67138,-0.0666 0.926042,0 0.254661,0.0666 0.0463,0.121 -0.463021,0.121 -0.509323,0 -0.717683,-0.0545 -0.463021,-0.121 z m -5.159375,-0.25743 c 0.181901,-0.0734 0.479557,-0.0734 0.661458,0 0.181901,0.0734 0.03307,0.13345 -0.330729,0.13345 -0.363802,0 -0.51263,-0.0601 -0.330729,-0.13345 z M 57.857066,188.712 c 0,-0.50933 0.05445,-0.71769 0.121002,-0.46302 0.06655,0.25466 0.06655,0.67138 0,0.92604 -0.06655,0.25466 -0.121002,0.0463 -0.121002,-0.46302 z m -2.2118,0.0661 c -0.329107,-0.41964 -0.319749,-0.429 0.0999,-0.0999 0.44073,0.34564 0.580888,0.56291 0.363125,0.56291 -0.05494,0 -0.2633,-0.20836 -0.463021,-0.46302 z m 0.961665,0.20147 c -0.09269,-0.14998 0.01352,-0.19434 0.248968,-0.10398 0.458369,0.17589 0.542234,0.36553 0.16165,0.36553 -0.136933,0 -0.321712,-0.1177 -0.410618,-0.26155 z m 3.703762,-1.32757 c 0.264197,-0.29193 0.537742,-0.4734 0.607878,-0.40327 0.177781,0.17778 -0.482129,0.93406 -0.815041,0.93406 -0.150257,0 -0.05703,-0.23885 0.207163,-0.53079 z m -3.044177,-0.65983 c 0,-0.21829 0.04679,-0.39688 0.103984,-0.39688 0.05719,0 0.172517,0.17859 0.256281,0.39688 0.08376,0.21828 0.03697,0.39687 -0.103984,0.39687 -0.140954,0 -0.256281,-0.17859 -0.256281,-0.39687 z m -3.32019,-0.15317 c -0.06705,-0.10849 0.0538,-0.17147 0.268563,-0.13995 0.552873,0.0811 0.751721,0.33721 0.261863,0.33721 -0.224681,0 -0.463375,-0.0888 -0.530426,-0.19726 z m 4.042823,-2.33917 c -0.115086,-0.44009 -0.08065,-0.54339 0.115686,-0.34705 0.15375,0.15375 0.227487,0.43572 0.16386,0.6266 -0.06605,0.19816 -0.185987,0.0782 -0.279546,-0.27955 z"
         id="path1935"
         inkscape:connector-curvature="0" />
    </g>
  </g>
</svg>
