<?xml version="1.0" encoding="UTF-8" standalone="no"?>
<!-- Created with Inkscape (http://www.inkscape.org/) -->

<svg
   xmlns:dc="http://purl.org/dc/elements/1.1/"
   xmlns:cc="http://creativecommons.org/ns#"
   xmlns:rdf="http://www.w3.org/1999/02/22-rdf-syntax-ns#"
   xmlns:svg="http://www.w3.org/2000/svg"
   xmlns="http://www.w3.org/2000/svg"
   xmlns:sodipodi="http://sodipodi.sourceforge.net/DTD/sodipodi-0.dtd"
   xmlns:inkscape="http://www.inkscape.org/namespaces/inkscape"
   width="75mm"
   height="120mm"
   viewBox="0 0 75 120"
   version="1.1"
   id="svg8"
   inkscape:version="0.92.4 (5da689c313, 2019-01-14)"
   sodipodi:docname="hoshi2.svg">
  <defs
     id="defs2" />
  <sodipodi:namedview
     id="base"
     pagecolor="#ffffff"
     bordercolor="#666666"
     borderopacity="1.0"
     inkscape:pageopacity="0.0"
     inkscape:pageshadow="2"
     inkscape:zoom="0.98994949"
     inkscape:cx="-37.15592"
     inkscape:cy="213.48356"
     inkscape:document-units="mm"
     inkscape:current-layer="layer1"
     showgrid="false"
     units="mm"
     inkscape:window-width="1920"
     inkscape:window-height="1017"
     inkscape:window-x="-8"
     inkscape:window-y="-8"
     inkscape:window-maximized="1" />
  <metadata
     id="metadata5">
    <rdf:RDF>
      <cc:Work
         rdf:about="">
        <dc:format>image/svg+xml</dc:format>
        <dc:type
           rdf:resource="http://purl.org/dc/dcmitype/StillImage" />
        <dc:title />
      </cc:Work>
    </rdf:RDF>
  </metadata>
  <g
     inkscape:label="Calque 1"
     inkscape:groupmode="layer"
     id="layer1"
     transform="translate(0,-176.99999)">
    <path
       style="fill:#d0dbcb;stroke-width:0.26458335"
       d="m 65.231621,254.07412 c -0.03766,-2.01068 -0.184152,-3.45214 -0.369686,-3.63768 -0.08691,-0.0869 -0.360667,-0.0151 -0.608349,0.15957 -0.687744,0.485 -2.501619,1.38349 -2.79301,1.38349 -0.249788,0 1.415611,-1.64353 2.705859,-2.67033 l 0.627761,-0.49959 -0.627761,-0.5229 c -0.34527,-0.2876 -1.009121,-0.52687 -1.475224,-0.53171 -0.750162,-0.008 -0.879782,-0.12271 -1.12899,-1.00099 -0.266949,-0.94079 -0.237617,-1.02959 0.566311,-1.71431 0.466315,-0.39716 0.767035,-0.80293 0.668267,-0.90169 -0.269971,-0.26998 0.343479,-0.88973 0.880678,-0.88973 0.79756,0 1.388327,2.49834 0.807665,3.41559 -0.293365,0.46342 -0.07831,1.08233 0.376071,1.08233 0.408805,0 0.577471,-0.61481 0.81848,-2.98342 0.238342,-2.34241 0.490289,-2.04489 0.419569,0.49546 -0.03055,1.09756 0.0122,2.10516 0.09498,2.23913 0.08279,0.13396 0.735592,-0.0529 1.450665,-0.41526 0.715071,-0.36236 1.388912,-0.65883 1.497417,-0.65883 0.108509,0 -0.377904,0.58398 -1.08092,1.29772 l -1.278208,1.29773 0.758989,0.95952 c 0.417441,0.52774 1.026877,1.13713 1.354299,1.35421 0.327422,0.21708 0.595313,0.52946 0.595313,0.69418 0,0.19541 -0.160912,0.1703 -0.463021,-0.0722 -0.751845,-0.60361 -1.694736,-1.0803 -1.843201,-0.93183 -0.07591,0.0759 -0.316619,-0.0406 -0.534901,-0.25885 -0.218281,-0.21828 -0.429723,-0.36144 -0.469873,-0.31813 -0.06949,0.075 -0.206844,1.01498 -0.531643,3.63847 -0.206735,1.66983 -0.386157,1.66558 -0.417537,-0.01 z m -24.676504,-0.97934 c -0.07058,-0.1142 -0.212294,-0.9774 -0.314923,-1.91822 -0.10263,-0.94083 -0.235294,-1.79628 -0.294807,-1.90099 -0.05951,-0.10472 -0.78803,0.11416 -1.618922,0.4864 -2.233919,1.00079 -2.702094,1.1666 -2.694218,0.95421 0.0039,-0.10554 0.493806,-0.48954 1.088644,-0.85334 0.594842,-0.36381 1.43042,-0.91623 1.856838,-1.22761 l 0.775311,-0.56615 -1.250733,-1.21565 c -0.687903,-0.6686 -1.180745,-1.28564 -1.095203,-1.37118 0.08554,-0.0855 0.64746,0.15501 1.248704,0.53456 0.601245,0.37955 1.207807,0.61924 1.347915,0.53265 0.140107,-0.0866 0.25474,-0.94416 0.25474,-1.90571 0,-1.97377 0.129323,-2.09204 0.368673,-0.33716 0.393454,2.8847 0.523116,3.20133 1.099765,2.68562 0.138245,-0.12364 0.787135,-0.4252 1.441979,-0.67013 l 1.190625,-0.44534 -1.295842,1.14783 -1.295844,1.14783 1.016526,0.8379 c 1.237081,1.01971 1.103493,1.29273 -0.297942,0.60891 l -1.037315,-0.50615 -0.19508,0.9078 c -0.107296,0.49929 -0.153728,1.44189 -0.103182,2.09468 0.0912,1.17785 0.05109,1.37857 -0.195709,0.97924 z m -25.041933,-7.11893 c -0.002,-0.40877 -0.07418,-1.00644 -0.160432,-1.32814 l -0.156819,-0.58491 -1.551814,0.78335 c -0.853499,0.43084 -1.614742,0.78335 -1.691652,0.78335 -0.347044,0 -0.09227,-0.50916 0.323184,-0.64588 0.254662,-0.0838 0.939271,-0.55847 1.521354,-1.0548 l 1.058334,-0.90242 -0.926042,-0.96462 -0.926042,-0.96461 0.744829,0.28179 c 1.367789,0.51748 1.50413,0.4097 1.50413,-1.18903 0,-1.84112 0.406609,-1.66792 0.649573,0.2767 0.105719,0.84615 0.314027,1.45871 0.496049,1.45871 0.172588,0 0.886503,-0.30488 1.586479,-0.6775 1.84815,-0.98385 2.051941,-0.66586 0.332296,0.51851 -0.812294,0.55945 -1.476897,1.1214 -1.476897,1.24878 0,0.12738 0.430573,0.70819 0.956829,1.29069 1.086885,1.20306 1.029981,1.27357 -0.427663,0.52993 -0.570489,-0.29104 -1.101527,-0.52916 -1.180084,-0.52916 -0.07856,0 -0.142832,0.46922 -0.142832,1.04271 0,0.5735 -0.119063,1.11631 -0.264584,1.20624 -0.152149,0.094 -0.266119,-0.1523 -0.268196,-0.57969 z m 34.307323,-9.27574 c -0.122118,-0.76382 -0.336814,-1.45971 -0.477102,-1.54641 -0.140287,-0.0867 -0.732718,0.15846 -1.316513,0.54479 -1.480476,0.97974 -1.88382,0.69612 -0.542724,-0.38161 0.608049,-0.48864 1.105545,-1.03939 1.105545,-1.22388 0,-0.18448 -0.473707,-0.67057 -1.052684,-1.08019 -1.328769,-0.9401 -1.362472,-1.27786 -0.07179,-0.71955 1.9924,0.86185 1.914726,0.91168 1.950175,-1.25113 l 0.03195,-1.94909 0.242718,1.5875 c 0.362654,2.37194 0.302199,2.30943 1.667537,1.72418 1.45357,-0.62307 1.532942,-0.40166 0.228991,0.63876 l -0.971846,0.77544 1.015936,0.87821 c 1.053775,0.91091 0.812814,1.16 -0.473236,0.48919 -0.868553,-0.45304 -0.929547,-0.36037 -1.03976,1.57964 l -0.07515,1.32292 z m -19.052952,-5.94293 c -0.08926,-0.33319 -0.16391,-0.87369 -0.165897,-1.20112 -0.0048,-0.78303 -0.214243,-0.7529 -1.538988,0.22133 -1.251416,0.9203 -1.396312,0.80507 -0.496396,-0.39479 1.164548,-1.55269 1.177642,-1.52531 -0.654687,-1.36889 l -1.679165,0.14334 1.569352,-0.52809 c 0.863142,-0.29045 1.614625,-0.57336 1.669957,-0.6287 0.05533,-0.0553 -0.279767,-0.53383 -0.744667,-1.06332 -1.030618,-1.17381 -0.894291,-1.41825 0.373722,-0.67011 0.522872,0.3085 1.052094,0.49824 1.176046,0.42163 0.123952,-0.0766 0.253746,-0.77067 0.288433,-1.54235 0.09087,-2.02176 0.561948,-2.28117 0.561948,-0.30946 0,0.87798 0.07619,1.67251 0.169307,1.76563 0.09312,0.0931 0.628899,-0.1947 1.190625,-0.63959 1.244315,-0.98552 1.295268,-0.80972 0.17085,0.58947 -1.013852,1.2616 -0.806024,1.52627 1.247343,1.58849 0.727605,0.022 1.025261,0.0913 0.661459,0.15394 -0.363802,0.0626 -1.123527,0.23379 -1.688277,0.38037 l -1.026822,0.26651 1.009629,1.03395 c 1.273709,1.30439 0.994143,1.67568 -0.4113,0.54623 -1.139116,-0.91542 -1.066022,-0.96647 -1.192554,0.83288 -0.06828,0.97094 -0.289076,1.15241 -0.489918,0.40265 z m 37.45643,-8.14643 c -0.278757,-0.9711 -0.559435,-1.69748 -0.998294,-2.58355 -0.01908,-0.0385 -0.588561,0.23957 -1.265534,0.61794 -1.254429,0.70111 -1.677929,0.48166 -0.679463,-0.35208 1.707417,-1.42574 1.938424,-1.65056 1.697561,-1.65209 -0.145521,-7.9e-4 -0.740833,-0.29129 -1.322917,-0.64525 l -1.058333,-0.64358 1.361075,0.0496 c 0.748591,0.0273 1.30711,0.13891 1.241155,0.24805 -0.06596,0.10914 0.0062,0.19844 0.160279,0.19844 0.154109,0 0.292069,-0.44648 0.306573,-0.99219 0.0145,-0.5457 0.111358,-1.28984 0.215228,-1.65364 0.154977,-0.54281 0.219334,-0.41116 0.35878,0.7339 0.205449,1.68703 0.436131,2.14972 0.772295,1.54903 0.132615,-0.23696 0.420823,-0.43085 0.640461,-0.43085 0.219639,0 0.335148,-0.10387 0.256688,-0.23082 -0.15449,-0.24997 1.711656,-0.63839 1.94518,-0.40487 0.07796,0.078 -0.36227,0.56042 -0.978294,1.07212 -1.003861,0.83386 -1.506834,1.94482 -0.880494,1.94482 0.131752,0 0.73833,0.41672 1.347949,0.92604 1.348504,1.12665 1.047184,1.17289 -1.04349,0.16016 l -1.581087,-0.76589 -0.07677,2.02266 -0.07677,2.02266 z M 5.4823807,221.48627 c 0.023622,-0.1819 0.02884,-0.71768 0.011599,-1.19062 -0.037073,-1.01691 -0.3073612,-1.06302 -1.9937884,-0.34014 -1.0045314,0.4306 -1.212561,0.45329 -1.212561,0.1323 0,-0.21311 0.097631,-0.38748 0.2169587,-0.38748 0.1193273,0 0.7231635,-0.43329 1.3418583,-0.96287 l 1.1248998,-0.96287 -1.1323634,-1.15379 c -1.2530689,-1.27679 -0.9991228,-1.51785 0.5132046,-0.48717 l 0.9781503,0.66663 0.1671333,-0.73278 c 0.091923,-0.40302 0.1812203,-1.12675 0.1984375,-1.60828 0.05259,-1.47082 0.5604708,-0.66331 0.5604708,0.89113 0,0.79177 0.089297,1.43743 0.1984375,1.43479 0.1091407,-0.003 0.8430692,-0.36011 1.630952,-0.79439 1.5299912,-0.84333 2.1081763,-0.89653 0.9424292,-0.0867 -0.3871751,0.26896 -1.0799276,0.81842 -1.5394493,1.22101 l -0.8354944,0.73199 0.8814136,0.76045 c 1.0111357,0.87238 0.729837,1.31397 -0.4487648,0.70449 l -0.7735165,-0.4 -0.2034582,0.9845 c -0.1119024,0.54147 -0.1765512,1.19286 -0.1436643,1.44752 0.032887,0.25466 -0.071971,0.46302 -0.2330188,0.46302 -0.1610471,0 -0.2734868,-0.14883 -0.2498659,-0.33073 z"
       id="path4748"
       inkscape:connector-curvature="0" />
  </g>
</svg>
