<?xml version="1.0" encoding="UTF-8" standalone="no"?>
<!-- Created with Inkscape (http://www.inkscape.org/) -->

<svg
   xmlns:dc="http://purl.org/dc/elements/1.1/"
   xmlns:cc="http://creativecommons.org/ns#"
   xmlns:rdf="http://www.w3.org/1999/02/22-rdf-syntax-ns#"
   xmlns:svg="http://www.w3.org/2000/svg"
   xmlns="http://www.w3.org/2000/svg"
   xmlns:sodipodi="http://sodipodi.sourceforge.net/DTD/sodipodi-0.dtd"
   xmlns:inkscape="http://www.inkscape.org/namespaces/inkscape"
   version="1.1"
   id="svg2949"
   width="283"
   height="443"
   viewBox="0 0 283 443"
   sodipodi:docname="feu127.svg"
   inkscape:version="0.92.4 (5da689c313, 2019-01-14)">
  <metadata
     id="metadata2955">
    <rdf:RDF>
      <cc:Work
         rdf:about="">
        <dc:format>image/svg+xml</dc:format>
        <dc:type
           rdf:resource="http://purl.org/dc/dcmitype/StillImage" />
        <dc:title></dc:title>
      </cc:Work>
    </rdf:RDF>
  </metadata>
  <defs
     id="defs2953" />
  <sodipodi:namedview
     pagecolor="#ffffff"
     bordercolor="#666666"
     borderopacity="1"
     objecttolerance="10"
     gridtolerance="10"
     guidetolerance="10"
     inkscape:pageopacity="0"
     inkscape:pageshadow="2"
     inkscape:window-width="1280"
     inkscape:window-height="972"
     id="namedview2951"
     showgrid="false"
     inkscape:zoom="1.5067919"
     inkscape:cx="144.21902"
     inkscape:cy="277.65991"
     inkscape:window-x="-8"
     inkscape:window-y="-8"
     inkscape:window-maximized="1"
     inkscape:current-layer="g534"
     showguides="true" />
  <g
     id="g151"
     transform="translate(25.882805,-2.654647)">
    <g
       id="g534"
       transform="translate(-21.900834,-45.792654)">
      <g
         id="g894"
         transform="translate(-10.618586,-15.264218)">
        <path
           style="fill:#ff6600"
           d="m 234.19984,501.03937 c -0.73562,-0.46628 -1.18562,-1.92189 -1,-3.23469 0.4264,-3.01573 4.63345,-3.88643 6.49272,-1.34374 2.51852,3.44429 -1.71489,6.97303 -5.49272,4.57843 z m 11.58749,-3.2017 c -3.88432,-2.26241 -0.77461,-8.07381 3.18608,-5.95411 2.29348,1.22743 2.70328,3.99485 0.86392,5.83421 -1.4329,1.4329 -1.77816,1.44312 -4.05,0.1199 z m -23.03742,-1.54066 c -2.57309,-2.57308 2.11102,-7.60046 4.91404,-5.27416 2.30091,1.90959 1.29619,5.34561 -1.66404,5.69083 -1.39559,0.16275 -2.85809,-0.0247 -3.25,-0.41667 z m 12.85885,-5.95067 c -3.12449,-3.12449 -0.88758,-6.88645 3.17857,-5.34563 2.44084,0.92493 2.9686,3.79846 1.05,5.71706 -1.58146,1.58146 -2.34254,1.5146 -4.22857,-0.37143 z m 19.08356,-2.25731 c -2.03659,-2.2504 -2.08864,-3.56647 -0.20298,-5.13143 3.26945,-2.71341 8.22157,2.23871 5.50816,5.50816 -1.6174,1.94885 -3.30929,1.82871 -5.30518,-0.37673 z m -40.71743,-2.28792 c -0.89172,-1.66621 -0.81654,-2.43294 0.35331,-3.60278 2.78274,-2.78274 7.49968,0.49574 6.07076,4.21944 -0.86271,2.24819 -5.10899,1.84058 -6.42407,-0.61666 z m 12.2382,0.003 c -2.64631,-0.9986 -2.60992,-3.58393 0.0742,-5.27429 1.27472,-0.80276 2.22528,-0.80276 3.5,0 4.17911,2.63181 1.1741,7.06612 -3.57424,5.27429 z m 16.00559,-2.16808 c -1.92025,-2.31376 0.87131,-5.17309 4.22798,-4.33062 2.086,0.52355 2.64706,1.19933 2.40559,2.89746 -0.37383,2.62894 -4.84031,3.59391 -6.63357,1.43316 z M 95.346797,482.28185 c -0.897156,-2.33795 1.019496,-4.86408 3.690532,-4.86408 3.073571,0 4.823551,2.80275 3.069571,4.91618 -1.71686,2.06868 -5.958827,2.03599 -6.760103,-0.0521 z m 14.730403,-1.81604 c -2.07188,-2.49646 -0.83213,-5.01802 2.63285,-5.35502 2.48109,-0.24131 3.29926,0.14334 3.82442,1.79798 1.27492,4.0169 -3.76947,6.79564 -6.45727,3.55704 z m -25.817365,-1.10474 c -2.857926,-2.00177 -2.800938,-3.01819 0.2825,-5.03854 2.018678,-1.32269 2.795248,-1.40046 4,-0.40061 1.969328,1.6344 1.915175,5.62063 -0.08679,6.38886 -2.00484,0.76933 -1.615657,0.85742 -4.195707,-0.94971 z M 234.60185,478.5886 c -1.50634,-1.10146 -1.61871,-1.70105 -0.65595,-3.5 1.37161,-2.56287 3.34251,-2.77689 5.52,-0.5994 1.88603,1.88603 1.95289,2.64711 0.37143,4.22857 -1.5521,1.5521 -2.98454,1.51676 -5.23548,-0.12917 z m 22.39096,-2.75402 c -0.88192,-1.64788 -0.77292,-2.46106 0.52163,-3.89152 3.09553,-3.42052 7.67286,-0.0426 5.48412,4.04715 -1.36064,2.54238 -4.60684,2.45826 -6.00575,-0.15563 z M 214.578,473.31559 c -1.58862,-1.58863 -1.56552,-1.81742 0.37996,-3.7629 1.9669,-1.96689 2.15909,-1.98377 3.80845,-0.33441 1.31555,1.31555 1.48116,2.14264 0.68253,3.40873 -1.52198,2.41283 -2.94545,2.61406 -4.87094,0.68858 z m 9.42536,0.0612 c -2.74681,-3.30971 2.34689,-6.40388 5.51149,-3.34797 1.21313,1.17146 -0.55446,4.26316 -2.67666,4.68179 -0.81663,0.16109 -2.0923,-0.43913 -2.83483,-1.33382 z m 19.53368,0.54045 c -1.05207,-1.70228 0.27989,-5.70097 2.13628,-6.41333 2.21473,-0.84987 5.52819,2.27125 5.15803,4.85864 -0.21393,1.49535 -1.15374,2.13862 -3.45017,2.36153 -1.73588,0.1685 -3.46575,-0.19458 -3.84414,-0.80684 z M 93.520391,469.8644 c -1.014741,-3.19716 1.585792,-5.51533 4.460958,-3.97659 3.115421,1.66732 2.400771,5.43225 -1.10818,5.8381 -2.006753,0.2321 -2.834083,-0.22724 -3.352778,-1.86151 z m 26.766939,1.41287 c -1.66449,-0.70064 -1.60454,-5.28622 0.0776,-5.9317 0.73015,-0.28018 2.56136,-0.0403 4.06934,0.533 3.63528,1.38213 3.35412,5.44271 -0.39689,5.73203 -1.375,0.10606 -3.0625,-0.0439 -3.75,-0.33333 z m -42.63321,-2.49622 c -1.439121,-2.05463 -1.434035,-2.40774 0.05843,-4.0569 2.120797,-2.34345 3.585629,-2.28061 5.877752,0.25216 1.423716,1.57318 1.613009,2.45733 0.80286,3.75 -1.626749,2.59562 -4.94049,2.62253 -6.739043,0.0547 z m 26.87768,1.12777 c -1.06199,-1.71832 0.54484,-4.99105 2.45047,-4.99105 2.34181,0 4.44228,2.54855 3.69832,4.48727 -0.65013,1.6942 -5.18352,2.06563 -6.14879,0.50378 z m 129.91409,-5.49935 c -0.76552,-3.05008 0.5706,-4.83494 3.23522,-4.32179 2.88316,0.55525 2.57719,6.22757 -0.35843,6.64501 -1.6841,0.23947 -2.37328,-0.31709 -2.87679,-2.32322 z m 17.79144,1.3083 c -1.68821,-1.68821 -1.49417,-5.74988 0.30772,-6.44134 1.61112,-0.61824 6.49228,2.0831 6.49228,3.59296 0,1.32346 -2.94236,4.04838 -4.37143,4.04838 -0.67571,0 -1.76857,-0.54 -2.42857,-1.2 z M 166.704,464.2511 c -0.36667,-0.36666 -0.66667,-1.70809 -0.66667,-2.98094 0,-1.62023 0.73271,-2.49819 2.44316,-2.92748 3.16626,-0.79468 4.55684,0.12909 4.55684,3.02712 0,2.87269 -4.3589,4.85574 -6.33333,2.8813 z m 51.89015,-1.55567 c -1.42911,-2.04034 -1.40243,-2.3765 0.32577,-4.10469 3.58411,-3.58411 8.3712,0.092 5.48527,4.21223 -1.90498,2.71974 -3.85602,2.68364 -5.81104,-0.10754 z m -129.405214,-0.6628 c -2.209331,-1.40011 -0.929659,-4.58052 1.979197,-4.91896 2.989809,-0.34785 4.594743,2.22494 2.764004,4.43085 -1.300658,1.5672 -2.797396,1.72122 -4.743201,0.48811 z m 22.015004,-0.67544 c -1.65046,-1.89821 0.0388,-4.41948 2.62708,-3.92104 0.93847,0.18073 2.07511,0.36303 2.52586,0.40511 0.45075,0.0421 0.67575,1.08901 0.5,2.32651 -0.38373,2.70193 -3.72632,3.40523 -5.65294,1.18942 z m -11.595182,-1.01085 c -0.864286,-0.86428 -1.571429,-1.73214 -1.571429,-1.92857 0,-0.72517 3.171241,-3.5 4.000001,-3.5 0.47143,0 1.56339,0.70625 2.42659,1.56945 1.18468,1.18468 1.31614,2.04273 0.53624,3.5 -1.25175,2.33891 -3.27673,2.4738 -5.391402,0.35912 z m 55.725052,0.0242 c -2.37991,-1.76943 -0.57219,-4.9528 2.81251,-4.9528 1.83546,0 2.4616,0.60859 2.69482,2.6193 0.36355,3.13432 -2.69001,4.42814 -5.50733,2.3335 z m -32.72505,-2.02423 c -0.86429,-0.86425 -1.57143,-1.93415 -1.57143,-2.37752 0,-1.65297 2.97386,-3.19409 4.95201,-2.56625 2.46696,0.78298 2.80069,5.01241 0.4662,5.90824 -2.11715,0.81243 -2.05411,0.82823 -3.84678,-0.96444 z m -45.571431,-0.92854 c -0.993186,-1.19672 -0.993186,-1.80328 0,-3 2.492388,-3.00314 7.992866,-0.52975 6.64326,2.98727 -0.747712,1.9485 -5.029898,1.95671 -6.64326,0.0127 z M 228.0694,456.9777 c -2.26191,-4.22642 2.90386,-8.2519 5.92225,-4.61497 0.65956,0.79472 1.05216,2.48222 0.87244,3.75 -0.45025,3.17616 -5.232,3.78488 -6.79469,0.86497 z m 13.16793,0.74007 c -1.79987,-1.79987 -1.44655,-4.59768 0.72756,-5.76123 2.44244,-1.30715 4.81709,-0.41868 5.61699,2.1016 1.18572,3.73587 -3.54155,6.46263 -6.34455,3.65963 z m -62.82697,-1.27027 c -0.33969,-0.88522 0.15764,-2.45863 1.10961,-3.51055 1.42463,-1.5742 2.06112,-1.69838 3.65326,-0.71275 2.84028,1.75828 1.99097,5.12146 -1.39159,5.51054 -1.82013,0.20936 -2.96467,-0.22766 -3.37128,-1.28724 z m -32.98899,-3.97132 c -0.96902,-2.52522 0.0471,-4.85065 2.26716,-5.18842 2.41496,-0.36741 3.72662,1.86425 2.80409,4.77089 -0.69667,2.19499 -4.27608,2.4897 -5.07125,0.41753 z m -50.729053,-1.38715 c -0.910244,-1.00581 -1.654988,-2.30332 -1.654988,-2.88337 0,-1.01061 3.122272,-2.24553 5.75,-2.27424 1.594781,-0.0174 1.631271,4.20508 0.05,5.78635 -1.610237,1.61024 -2.199681,1.52083 -4.145012,-0.62874 z m 12.545013,0.62874 c -2.75556,-2.75556 -0.32736,-6.55357 3.3,-5.16163 1.98687,0.76244 1.92687,4.98385 -0.0818,5.75464 -2.01395,0.77283 -1.81587,0.80933 -3.21821,-0.59301 z m 59.46667,0.53333 c -1.16779,-1.16778 -0.71811,-4.04575 0.83333,-5.33333 1.03636,-0.8601 1.5,-0.89795 1.5,-0.12244 0,0.61734 0.53577,1.00994 1.19061,0.87244 1.70765,-0.35857 2.26589,3.34576 0.65778,4.36486 -1.63081,1.03349 -3.28052,1.11968 -4.18172,0.21847 z m -9.41667,-3.41627 c -2.8132,-1.06603 -2.90454,-3.49639 -0.18608,-4.95127 1.53199,-0.8199 2.43404,-0.79741 3.5,0.0873 3.10939,2.58056 0.55482,6.33002 -3.31392,4.86401 z m 28.10674,-1.42979 c -0.31927,-0.83201 -0.025,-2.18201 0.65383,-3 2.60385,-3.13746 7.76645,-0.80766 5.90744,2.66593 -1.19386,2.23074 -5.74454,2.46244 -6.56127,0.33407 z m -101.947,-0.86189 c -0.908232,-2.36681 -0.04353,-5.07222 1.730365,-5.41385 2.09191,-0.40286 5.049098,2.55976 4.651292,4.65985 -0.410449,2.16683 -5.604032,2.78046 -6.381657,0.754 z m 33.64088,-0.0644 c -2.52986,-3.04829 1.46208,-7.04023 4.51037,-4.51037 0.84454,0.7009 1.40131,2.21375 1.23727,3.36187 -0.36641,2.56446 -3.97419,3.28538 -5.74764,1.1485 z m 59.03137,-3.40779 c -1.2446,-2.32556 0.33003,-4.11972 3.00234,-3.4209 2.68508,0.70217 2.64249,5.2677 -0.0491,5.2677 -1.08065,0 -2.40958,-0.83106 -2.95319,-1.8468 z m -120.831991,0.18453 c -0.6875,-0.27741 -1.25,-1.58331 -1.25,-2.902 0,-1.70859 0.702112,-2.57383 2.443165,-3.01081 2.965986,-0.74442 4.556835,0.10536 4.556835,2.43411 0,3.15986 -2.616771,4.74298 -5.75,3.4787 z m 89.123181,-0.1575 c -2.09615,-1.39918 -2.44103,-4.41012 -0.65477,-5.71627 2.22542,-1.62726 5.28159,-0.15978 5.28159,2.53605 0,2.14661 -3.04243,4.23781 -4.62682,3.18022 z m 21.28984,-2.00008 c -1.38929,-1.53515 -1.44026,-2.10252 -0.32582,-3.62661 1.09382,-1.49589 1.69464,-1.60686 3.49197,-0.64496 2.52988,1.35395 2.87912,4.60566 0.58904,5.48444 -2.08194,0.79892 -1.87366,0.86619 -3.75519,-1.21287 z m 55.53698,-0.38014 c -1.79987,-1.79987 -1.44655,-4.59768 0.72756,-5.76123 3.5693,-1.91023 6.80536,1.07665 5.52773,5.10211 -0.66962,2.10976 -4.41047,2.50394 -6.25529,0.65912 z m -115.2,-2.36642 c 0,-2.20978 0.38216,-2.52245 2.75,-2.25 1.96901,0.22656 2.84075,0.95541 3.06955,2.56642 0.27184,1.91406 -0.13875,2.25 -2.75,2.25 -2.62871,0 -3.06955,-0.36859 -3.06955,-2.56642 z m -11.333334,0.89975 c -2.557979,-2.55798 2.620829,-6.29271 5.24743,-3.78422 1.158974,1.10686 1.181984,1.63019 0.127554,2.9007 -1.322671,1.59373 -4.192972,2.06554 -5.374984,0.88352 z m 58.885894,-1.05695 c -0.68654,-1.78909 1.70013,-4.27638 4.10339,-4.27638 1.9739,0 3.47499,3.46906 2.09725,4.8468 -1.73005,1.73005 -5.44916,1.38791 -6.20064,-0.57042 z m 56.19744,0.64352 c -2.6713,-1.55589 -2.19252,-4.77073 0.82322,-5.52763 3.56393,-0.89449 5.09948,0.83591 3.62109,4.0806 -1.26409,2.77439 -1.8422,2.96262 -4.44431,1.44703 z M 67.608758,437.34634 c -1.898078,-1.89808 -1.970739,-2.85228 -0.321429,-4.22109 2.088599,-1.73338 2.382443,-1.75741 4.096305,-0.33504 2.096699,1.74011 2.135626,4.72865 0.07191,5.52057 -2.117149,0.81243 -2.054115,0.82823 -3.846784,-0.96444 z m 167.178572,0.8821 c -1.19095,-0.31122 -1.75,-1.44551 -1.75,-3.55066 0,-1.70134 0.2961,-2.79725 0.65799,-2.43535 0.3619,0.36189 1.1494,0.26372 1.75,-0.21817 1.71771,-1.37818 5.59201,0.57982 5.59201,2.8261 0,1.62544 -2.94512,4.40666 -4.18426,3.95141 -0.17366,-0.0638 -1.10324,-0.3218 -2.06574,-0.57333 z M 41.703996,437.2511 c -1.117684,-1.11768 -0.743636,-5.02642 0.583333,-6.09572 1.570528,-1.26557 5.576638,0.14704 6.384041,2.2511 1.16626,3.03922 -4.594156,6.21784 -6.967374,3.84462 z m 144.408754,-2.74245 c -1.43284,-1.72647 -0.5337,-5.59088 1.30084,-5.59088 0.68281,0 2.11499,0.64864 3.18261,1.44143 1.55324,1.1534 1.71989,1.80283 0.83395,3.25 -1.45251,2.37266 -3.76948,2.76457 -5.3174,0.89945 z m -12.93243,-0.46031 c -1.81897,-1.18075 -0.52452,-5.13527 1.6744,-5.11526 2.6844,0.0244 4.40878,1.57028 4.02079,3.60452 -0.39323,2.06169 -3.55458,2.90029 -5.69519,1.51074 z M 54.003119,429.85385 c -2.24732,-4.19916 3.974779,-6.6327 6.483167,-2.53565 0.816212,1.33315 0.617343,2.03876 -0.890087,3.15814 -2.674528,1.98603 -4.293471,1.80585 -5.59308,-0.62249 z m 93.272531,0.90224 c -1.93892,-1.93892 -1.46478,-3.77802 1.29862,-5.0371 2.09369,-0.95395 2.83328,-0.85957 4.23305,0.5402 1.30559,1.30559 1.44625,2.09472 0.61093,3.42734 -1.35383,2.15984 -4.50384,2.70832 -6.1426,1.06956 z m 15.42835,0.49501 c -0.36667,-0.36666 -0.66667,-1.71666 -0.66667,-3 0,-2.72289 3.0148,-3.22535 5,-0.83333 2.03312,2.44976 -2.07914,6.08753 -4.33333,3.83333 z m -85.098092,-2.65953 c -2.7983,-2.04616 -1.210925,-5.88423 2.267261,-5.48194 4.027529,0.46583 4.123892,6.68272 0.10529,6.79283 -0.307379,0.008 -1.375027,-0.58148 -2.372551,-1.31089 z m 138.002852,-0.24523 c -1.96597,-1.96597 -1.97427,-2.84936 -0.0418,-4.45315 1.16961,-0.97068 2.11105,-1.00455 4,-0.14388 2.68445,1.22311 3.15916,3.07969 1.27039,4.96846 -1.62976,1.62976 -3.34956,1.50759 -5.22857,-0.37143 z m 26.01096,0.25533 c -3.56368,-2.60583 0.43064,-8.42497 4.16761,-6.0716 2.38511,1.50203 2.67761,3.81723 0.72852,5.76632 -1.96363,1.96363 -2.57599,2.00181 -4.89613,0.30528 z m -42.33239,-0.32768 c -1.95534,-0.81794 -1.46861,-3.16886 0.92083,-4.44765 1.80162,-0.96419 2.3992,-0.84949 3.51348,0.67438 0.73846,1.0099 1.18883,2.30437 1.00084,2.87661 -0.38463,1.17078 -3.53671,1.69079 -5.43515,0.89666 z m 27.71107,-0.90313 c -0.61947,-0.74641 -0.8338,-2.27871 -0.4763,-3.4051 0.88895,-2.80083 5.1533,-2.76368 6.04718,0.0527 1.11293,3.50655 -3.25933,6.13768 -5.57088,3.35243 z m -193.247011,-0.0724 c -1.401756,-1.40176 -0.680616,-4.92052 1.256322,-6.13016 1.672075,-1.04423 2.282302,-0.89572 4.030671,0.98094 1.133158,1.2163 1.930301,2.89929 1.771428,3.73997 -0.301182,1.59372 -5.780062,2.68761 -7.058421,1.40925 z m 31.284337,-1.88266 c -1.11524,-1.34378 -1.058479,-1.86656 0.356269,-3.28131 2.039683,-2.03968 5.145334,-0.59577 5.145334,2.39223 0,2.43348 -3.72083,3.03478 -5.501603,0.88908 z m 115.251604,0.75588 c -2.12252,-0.71415 -1.47778,-5.04684 0.86151,-5.7893 2.49125,-0.79069 5.44104,1.65308 4.60987,3.81909 -0.60728,1.58254 -3.51337,2.62901 -5.47138,1.97021 z M 44.608758,423.34634 c -2.357982,-2.35798 -1.695951,-4.47345 1.805319,-5.76876 3.994156,-1.47766 6.453994,4.29004 2.688993,6.30501 -2.501558,1.33879 -2.635223,1.32284 -4.494312,-0.53625 z m 110.790202,-2.92857 c -0.86494,-2.25398 0.34085,-4.5 2.41586,-4.5 2.84736,0 5.63876,2.47289 4.91637,4.35539 -0.81305,2.11878 -6.5314,2.23156 -7.33223,0.14461 z m 13.2804,0.31955 c -2.41762,-1.35297 -1.99913,-3.69972 0.89491,-5.01833 2.04488,-0.93171 2.82784,-0.86501 4.03674,0.34389 2.9148,2.91479 -1.16537,6.78215 -4.93165,4.67444 z m 40.7196,-2.31955 c -0.95038,-2.47663 0.4201,-4.5 3.04797,-4.5 2.94837,0 3.948,1.29794 3.08756,4.00895 -0.75649,2.38347 -5.2707,2.74476 -6.13553,0.49105 z m 10.67554,-0.43055 c -0.77991,-1.45727 -0.64844,-2.31532 0.53624,-3.5 2.12525,-2.12525 3.69344,-1.97305 5.24345,0.50891 1.00209,1.60459 1.02901,2.40243 0.11811,3.5 -1.67582,2.01924 -4.68368,1.75969 -5.8978,-0.50891 z M 54.398955,417.41777 c -0.882822,-2.3006 0.356449,-4.5 2.535561,-4.5 2.558818,0 5.171608,2.65715 4.453335,4.52894 -0.746739,1.94597 -6.23978,1.92322 -6.988896,-0.0289 z m 177.885175,0.3468 c -1.71189,-1.71189 0.3396,-4.8468 3.17175,-4.8468 1.47273,0 2.53496,0.71421 2.84915,1.91567 0.89706,3.43037 -3.42,5.53203 -6.0209,2.93113 z M 77.157305,416.14195 c -1.094085,-2.04432 0.268501,-5.22418 2.238584,-5.22418 2.651025,0 4.90549,2.59269 4.196603,4.8262 -0.854926,2.69363 -5.067173,2.95413 -6.435187,0.39798 z m 166.802385,-1.11167 c -1.97341,-1.61891 -2.21809,-2.32316 -1.32023,-3.79986 1.64251,-2.70141 5.04816,-2.8346 6.4306,-0.2515 0.97029,1.81301 0.84163,2.50894 -0.75998,4.11055 -1.90404,1.90403 -1.95817,1.9033 -4.35039,-0.0592 z M 32.939392,413.73477 c -0.996279,-1.86156 -0.833205,-2.45434 1.107518,-4.02584 2.135332,-1.72909 2.390474,-1.73909 4.13312,-0.16202 3.314773,2.99983 1.891773,6.37086 -2.689305,6.37086 -0.760666,0 -1.908765,-0.98235 -2.551333,-2.183 z m 166.347938,1.52072 c -1.92996,-0.77875 -1.48023,-3.14414 0.83319,-4.38224 1.66147,-0.88919 2.4705,-0.76437 3.99647,0.61661 3.09563,2.80151 -0.42199,5.54416 -4.82966,3.76563 z m -132.541152,-0.9622 c -1.050473,-1.05048 -0.859004,-4.16469 0.3001,-4.88105 2.013547,-1.24444 5.119455,0.59439 4.799347,2.84142 -0.305036,2.14122 -3.657116,3.48196 -5.099447,2.03963 z m -20.458849,-1.0378 c -2.068142,-0.83451 -1.494924,-5.04041 0.767591,-5.63207 2.887891,-0.7552 5.27297,1.88291 3.945243,4.3638 -1.021636,1.90894 -2.283509,2.24852 -4.712834,1.26827 z m 167.799701,-4.24486 c -0.78005,-1.45753 -0.57508,-2.45742 0.86943,-4.24131 1.86248,-2.30007 1.92071,-2.30647 3.98548,-0.43787 2.50967,2.27122 2.58137,2.95748 0.52396,5.01489 -2.10817,2.10817 -4.13878,1.98143 -5.37887,-0.33571 z m 9.88073,0.32332 c -1.75398,-2.11343 -0.004,-4.91618 3.06957,-4.91618 3.07357,0 4.82355,2.80275 3.06957,4.91618 -0.72295,0.8711 -2.10426,1.58382 -3.06957,1.58382 -0.96531,0 -2.34662,-0.71272 -3.06957,-1.58382 z M 56.425869,406.48791 c -0.990074,-2.5801 0.380053,-4.57014 3.146498,-4.57014 2.244013,0 2.554713,0.37452 2.281384,2.75 -0.364828,3.17069 -4.391481,4.52095 -5.427882,1.82014 z m 52.087541,-0.6455 c -0.82134,-2.58781 -0.32815,-3.08778 3.48375,-3.53161 2.78605,-0.32438 3.04017,-0.10484 3.04017,2.6265 0,2.62975 -0.34509,2.98047 -2.93261,2.98047 -2.08985,0 -3.12191,-0.59641 -3.59131,-2.07536 z m -35.034951,-0.36607 c -1.554224,-1.15413 -1.720087,-1.80192 -0.832144,-3.25 1.460175,-2.3813 5.751925,-2.38858 6.209895,-0.0105 0.338345,1.75686 -1.384239,4.70193 -2.750196,4.70193 -0.377534,0 -1.559934,-0.64864 -2.627555,-1.44143 z m 163.127451,0.11523 c -1.28729,-0.94129 -1.60819,-1.97364 -1.10566,-3.55698 0.56805,-1.78975 1.33367,-2.17009 3.87255,-1.9238 2.46478,0.2391 3.23916,0.83478 3.50202,2.69389 0.52662,3.72449 -2.90211,5.24876 -6.26891,2.78689 z M 96.042205,404.42365 c -1.660968,-2.00135 5.55e-4,-3.98478 3.392869,-4.05022 1.832066,-0.0353 2.278526,0.47192 2.200336,2.5 -0.11741,3.04581 -3.560079,3.99998 -5.593205,1.55022 z m -54.853269,-1.37696 c -2.231185,-1.43723 -0.947255,-4.62892 1.862088,-4.62892 1.98174,0 2.486305,0.50457 2.486305,2.4863 0,2.62562 -2.038926,3.63027 -4.348393,2.14262 z m 164.232434,-0.57051 c -0.9591,-2.49937 0.0609,-5.04871 2.12618,-5.31414 3.22724,-0.41476 4.84192,1.21656 4.10608,4.1484 -0.48798,1.94425 -1.29333,2.60733 -3.16674,2.60733 -1.38178,0 -2.76126,-0.64871 -3.06552,-1.44159 z m -84.99671,-0.99144 c -1.07354,-2.79759 0.40152,-4.72389 3.35698,-4.38394 2.18821,0.2517 2.75569,0.8318 2.75569,2.81697 0,1.98517 -0.56748,2.56527 -2.75569,2.81697 -1.79706,0.20671 -2.96486,-0.22813 -3.35698,-1.25 z m 107.697,-1.88264 c -1.79894,-1.79894 -1.27371,-5.40154 0.86919,-5.96193 2.84834,-0.74485 5.43337,1.48326 4.63591,3.99583 -0.76297,2.40391 -3.93458,3.53662 -5.5051,1.9661 z M 62.787329,397.83767 c -3.630566,-2.11461 -1.001613,-6.35332 3,-4.83696 2.590863,0.98178 3.021874,4.40689 0.668213,5.31007 -1.890901,0.72561 -1.530288,0.77212 -3.668213,-0.47311 z m 23.821429,-0.49133 c -0.864286,-0.86428 -1.571429,-1.96377 -1.571429,-2.44329 0,-1.38642 4.445304,-4.14937 4.828129,-3.00089 0.186196,0.55858 0.976038,1.01561 1.755204,1.01561 1.72695,0 1.869031,3.14764 0.216667,4.8 -1.629757,1.62976 -3.349558,1.50759 -5.228571,-0.37143 z m 129.855632,0.80612 c -3.66881,-2.51219 -1.4499,-7.95921 2.80705,-6.89078 3.30613,0.82979 4.26817,3.44359 2.13501,5.80071 -1.78453,1.97189 -3.19871,2.28381 -4.94206,1.09007 z M 51.147443,396.55045 c -0.861479,-1.03802 -0.782106,-1.66001 0.329567,-2.58262 1.994877,-1.6556 5.560319,-0.36203 5.560319,2.01733 0,2.31099 -4.113432,2.70579 -5.889886,0.56529 z m 56.041497,-0.50376 c -1.92714,-1.24137 -0.99804,-4.58177 1.35861,-4.88465 3.21546,-0.41325 5.19881,1.36304 3.8826,3.47726 -1.29553,2.08101 -3.34227,2.6306 -5.24121,1.40739 z m 20.89901,-3.56793 c -1.97307,-2.3774 -0.51506,-4.74705 2.69369,-4.37796 2.18821,0.2517 2.75569,0.8318 2.75569,2.81697 0,2.97711 -3.45317,3.96628 -5.44938,1.56099 z m -30.99757,-0.99707 c -0.899325,-1.08362 -0.912817,-1.95743 -0.05497,-3.56033 1.274364,-2.38117 3.76768,-2.32923 5.30389,0.11049 2.31339,3.67399 -2.459456,6.81094 -5.248917,3.44984 z m 18.49166,-1.42304 c -0.90391,-2.84797 0.3201,-4.89088 2.93037,-4.89088 2.63215,0 3.79058,2.52391 2.34447,5.10797 -1.24139,2.21824 -4.54505,2.08227 -5.27484,-0.21709 z m 129.92016,-1.19772 c -0.35923,-0.58125 -0.37722,-2.15625 -0.04,-3.5 0.43344,-1.72696 1.30458,-2.44316 2.9717,-2.44316 3.34255,0 5.04381,2.30854 3.6376,4.93608 -1.17113,2.18828 -5.43531,2.84199 -6.56934,1.00708 z m -137.74069,-3.07764 c -2.12285,-1.18801 -2.21612,-3.21236 -0.22418,-4.86552 1.11019,-0.92138 1.84875,-0.95545 2.84201,-0.13112 0.7381,0.61257 1.6381,0.81767 2,0.45578 0.36189,-0.3619 0.65799,0.30117 0.65799,1.47349 0,2.68721 -2.92075,4.38533 -5.27582,3.06737 z m 124.66743,-1.28738 c -0.9908,-2.58199 1.30605,-5.35859 4.0058,-4.8425 2.8962,0.55364 4.11543,2.9415 2.4974,4.89111 -1.49289,1.79882 -5.80665,1.76658 -6.5032,-0.0486 z m -148.351742,-1.0301 c -1.726461,-2.08026 -0.89745,-4.79636 1.578941,-5.1731 2.55672,-0.38897 5.855907,2.94558 5.033856,5.08781 -0.746779,1.94608 -5.022712,2.00122 -6.612797,0.0853 z m 171.367512,-2.06103 c -1.20071,-4.78401 3.85953,-7.49178 6.39961,-3.42446 1.95641,3.13271 0.60761,5.93745 -2.85533,5.93745 -2.27782,0 -3.05118,-0.54833 -3.54428,-2.51299 z M 96.703996,382.2511 c -1.12393,-1.12393 -0.740147,-4.14194 0.583333,-4.58724 3.087051,-1.03868 6.669351,1.95735 5.194231,4.34415 -0.65079,1.05299 -4.793367,1.22729 -5.777564,0.24309 z M 37.27565,380.75609 c -1.515719,-1.51572 -1.616066,-4.48683 -0.181486,-5.37345 0.58126,-0.35923 2.184635,-0.3701 3.563057,-0.0241 2.020246,0.50704 2.445517,1.1555 2.193165,3.34414 -0.347884,3.01717 -3.463409,4.16477 -5.574736,2.05344 z m 11.891566,-0.18182 c -1.60038,-1.92834 1.040756,-4.6565 4.507964,-4.6565 2.131853,0 2.448939,0.40026 2.178571,2.75 -0.242903,2.11106 -0.917168,2.81983 -2.902018,3.05056 -1.422078,0.1653 -3.12511,-0.34952 -3.784517,-1.14406 z m 78.888384,-0.62236 c -0.87189,-1.62914 -0.61071,-2.25508 1.52479,-3.65431 2.31861,-1.51921 2.73101,-1.53433 4.11454,-0.1508 1.21741,1.21741 1.30172,1.97846 0.40484,3.65431 -1.4229,2.6587 -4.65877,2.73943 -6.04417,0.1508 z m -13.45023,-1.71742 c -0.38685,-1.00813 0.0893,-2.41845 1.18703,-3.51623 1.77727,-1.77728 1.90151,-1.76909 4.08976,0.26958 1.78578,1.6637 2.01193,2.39759 1.08355,3.51623 -1.61487,1.9458 -5.57462,1.77796 -6.36034,-0.26958 z m 106.91673,-1.36471 c -0.76858,-2.42158 1.03557,-4.95201 3.53069,-4.95201 2.27385,0 3.27027,2.59758 1.94577,5.07244 -1.35892,2.53917 -4.65535,2.46668 -5.47646,-0.12043 z m 22.5827,-0.37072 c -1.45273,-1.75042 -0.50726,-5.58129 1.37747,-5.58129 2.25118,0 4.06751,2.96405 2.92563,4.7743 -1.4281,2.26401 -2.86954,2.53433 -4.3031,0.80699 z M 59.746178,375.29329 c -1.323902,-1.32391 -0.715999,-3.88996 1.205873,-5.09019 2.288687,-1.42931 4.468197,0.47634 3.907638,3.41663 -0.348542,1.82821 -3.822048,2.96502 -5.113511,1.67356 z m 45.291152,-1.8165 c 0,-1.34254 0.40939,-2.694 0.90976,-3.00325 1.74242,-1.07688 4.09024,0.67453 4.09024,3.05122 0,1.88588 -0.52981,2.39301 -2.5,2.39301 -1.98388,0 -2.5,-0.50393 -2.5,-2.44098 z m -77.345013,-0.38776 c -0.910244,-1.00581 -1.654988,-2.16295 -1.654988,-2.57143 0,-1.27657 2.788144,-3.59983 4.320163,-3.59983 1.934358,0 3.097195,4.79219 1.600452,6.59565 -1.532596,1.84667 -2.277409,1.77257 -4.265627,-0.42439 z m 205.459663,0.92076 c -1.93843,-1.22763 -0.6128,-6.09676 1.6544,-6.07671 2.89139,0.0256 4.35845,1.48319 3.58776,3.56464 -1.16122,3.13619 -2.92333,3.9806 -5.24216,2.51207 z m 30.63535,-1.15868 c -2.67902,-1.58096 -2.17538,-4.60976 0.89464,-5.38029 3.20469,-0.80432 4.63819,0.41753 4.19002,3.5714 -0.37384,2.63085 -2.44389,3.36728 -5.08466,1.80889 z M 90.332112,371.03503 c -0.964364,-1.55767 -0.924003,-2.18009 0.201961,-3.11456 2.276738,-1.88952 5.003256,-0.79363 5.003256,2.011 0,3.15931 -3.476209,3.89631 -5.205217,1.10356 z M 250.3468,370.28185 c -0.89716,-2.33795 1.01949,-4.86408 3.69053,-4.86408 3.07357,0 4.82355,2.80275 3.06957,4.91618 -1.71686,2.06868 -5.95883,2.03599 -6.7601,-0.0521 z M 38.237329,369.71777 c -3.128797,-3.1288 0.935185,-6.79447 4.648912,-4.19327 1.735261,1.21542 1.954601,1.89189 1.119422,3.45244 -1.169756,2.18571 -3.964523,2.54464 -5.768334,0.74083 z m 10.730433,-0.38382 c -1.665585,-2.00691 -0.205483,-4.5986 2.853778,-5.06548 1.618557,-0.24701 2.339918,0.29569 2.7931,2.10131 0.336036,1.33887 0.317053,2.9099 -0.04219,3.49115 -0.972027,1.57278 -4.106656,1.27804 -5.604693,-0.52698 z m 74.782148,0.96306 c -1.44872,-1.44872 -0.64569,-4.08869 1.5477,-5.08806 2.64537,-1.20531 5.08405,0.66519 4.5487,3.48891 -0.33243,1.75339 -4.77645,2.91911 -6.0964,1.59915 z m 116.21785,-3.96306 c -1.76867,-2.13113 -0.0544,-4.81692 3.33459,-5.22432 1.88414,-0.2265 2.74041,0.24989 3.23176,1.79799 1.30763,4.11997 -3.78519,6.77741 -6.56635,3.42633 z m -19.44197,-0.80096 c -2.35576,-1.72257 -1.51194,-5.03793 1.38709,-5.44988 2.99376,-0.42542 4.5032,1.06596 3.68572,3.64162 -0.83122,2.61894 -2.9374,3.36971 -5.07281,1.80826 z M 112.704,365.2511 c -1.01562,-1.01561 -0.79489,-4.13605 0.34228,-4.83886 2.01077,-1.24272 4.99105,0.59219 4.99105,3.07292 0,1.88178 -0.52835,2.43261 -2.33333,2.43261 -1.28334,0 -2.63334,-0.3 -3,-0.66667 z m -48.000004,-1 c -1.40871,-1.40871 -0.573362,-4.12447 1.429785,-4.6483 3.128713,-0.81818 4.903548,0.23942 4.903548,2.92196 0,1.96095 -0.511558,2.39301 -2.833333,2.39301 -1.558334,0 -3.133334,-0.3 -3.5,-0.66667 z m 35,0 c -1.232363,-1.23236 -0.680914,-4.39063 0.870574,-4.986 1.95865,-0.7516 5.50084,2.38986 4.78833,4.24663 -0.5507,1.4351 -4.45328,1.945 -5.658904,0.73937 z m 131.562524,-2.50414 c -1.82204,-1.82204 -1.49663,-3.6157 0.88747,-4.89163 2.88869,-1.54597 5.92531,1.18551 4.25921,3.8312 -1.38206,2.19464 -3.56309,2.64402 -5.14668,1.06043 z M 22.50538,359.81711 c -0.745537,-2.34898 0.125349,-3.57024 2.899308,-4.06577 2.246316,-0.40126 4.1958,2.25648 3.323173,4.53051 -0.931369,2.4271 -5.410829,2.09255 -6.222481,-0.46474 z m 11.281949,1.02056 c -2.609756,-1.52004 -2.199934,-4.76887 0.693165,-5.49499 1.34374,-0.33726 2.91874,-0.31927 3.5,0.04 1.41968,0.87741 1.339856,3.85211 -0.143165,5.33513 -1.432902,1.4329 -1.778165,1.44312 -4.05,0.1199 z m 12.412508,0.2017 c -1.818877,-1.15291 -1.065897,-5.52432 1.02002,-5.92171 2.344777,-0.44672 4.352971,3.44995 2.764421,5.36403 -1.369498,1.65015 -1.930491,1.73281 -3.784441,0.55768 z m 216.672633,0.19925 c -4.01137,-1.04739 -2.66936,-6.55925 1.40594,-5.77442 3.20377,0.61699 4.4069,2.20275 3.165,4.17157 -1.18666,1.88125 -2.17602,2.22818 -4.57094,1.60285 z m -13.41783,-1.67574 c -0.31422,-0.81885 -0.0593,-2.44562 0.56659,-3.61503 0.84466,-1.57826 1.70206,-1.95599 3.327,-1.46574 3.39573,1.02449 4.29144,2.25544 3.06576,4.21318 -1.40876,2.25018 -6.19961,2.84743 -6.95935,0.86759 z M 55.703996,357.2511 c -1.449516,-1.44951 -0.545946,-4.13231 1.583333,-4.70109 2.840704,-0.75882 5.304345,1.99489 3.61061,4.03572 -1.170581,1.41046 -4.076581,1.78274 -5.193943,0.66537 z m 185.333334,-2.11755 c -4.58295,-1.57553 -3.33337,-6.83952 1.34486,-5.66536 1.62187,0.40706 2.65514,1.35488 2.65514,2.43554 0,2.24471 -2.05017,3.90014 -4,3.22982 z M 64.398955,352.41777 c -1.508432,-3.93091 2.573193,-6.77395 5.683715,-3.95897 1.844205,1.66899 1.863982,1.90169 0.307767,3.62128 -2.009608,2.2206 -5.199943,2.40041 -5.991482,0.33769 z m 158.876695,0.33832 c -1.77076,-1.77076 -1.52979,-3.61196 0.62354,-4.76439 2.43463,-1.30297 5.4929,0.83874 4.98666,3.49217 -0.43392,2.27442 -3.83641,3.04601 -5.6102,1.27222 z M 37.703996,351.2511 c -1.106622,-1.10662 -0.753088,-3.38977 0.759032,-4.90189 2.537636,-2.53763 6.285499,0.55163 4.935927,4.06856 -0.578939,1.50869 -4.452754,2.07554 -5.694959,0.83333 z M 254.6479,348.34533 c -0.33187,-0.86485 -0.12456,-2.46715 0.46068,-3.56069 2.00243,-3.74158 8.15058,-0.49329 6.61928,3.49721 -0.82351,2.14604 -6.26209,2.19481 -7.07996,0.0635 z M 27.037329,347.41777 c -0.993186,-1.19672 -0.993186,-1.80328 0,-3 2.616278,-3.15242 6.582572,-0.69892 5.25391,3.25 -0.579183,1.72139 -3.74273,1.57086 -5.25391,-0.25 z m 21.374286,0.033 c -0.861479,-2.24498 0.01238,-3.8164 2.31794,-4.16825 2.118088,-0.32324 3.404799,1.87943 2.561684,4.38526 -0.582895,1.73243 -4.193167,1.57187 -4.879624,-0.21701 z m 185.226065,-1.83595 c -2.08547,-1.52494 -1.8091,-5.03316 0.43048,-5.46446 0.82932,-0.15971 2.39915,0.37167 3.48851,1.18084 1.97133,1.46431 1.97105,1.48099 -0.0602,3.54204 -1.75487,1.78057 -2.29569,1.88451 -3.85874,0.74158 z M 58.549265,343.28685 c -0.894826,-0.89483 -1.376077,-2.28074 -1.069446,-3.07981 0.30663,-0.79906 0.55751,-1.64104 0.55751,-1.87106 0,-1.18333 3.457203,-0.18414 4.607954,1.33179 1.799198,2.37015 1.718025,3.00517 -0.538508,4.21283 -1.466038,0.7846 -2.32202,0.64174 -3.55751,-0.59375 z m 186.096175,-0.66637 c -2.04001,-1.49169 -1.47279,-5.70271 0.76815,-5.70271 2.28273,0 4.84538,2.61058 4.471,4.55461 -0.46353,2.40692 -2.81338,2.92186 -5.23915,1.1481 z m -209.46287,-3.0277 c -2.246686,-2.7071 0.949511,-6.34335 4.408854,-5.01588 2.365654,0.90779 1.462036,5.76713 -1.1416,6.13913 -1.148128,0.16404 -2.618392,-0.34142 -3.267254,-1.12325 z m 11.417924,-2.47599 c -1.060953,-3.34277 0.253524,-5.07508 3.244084,-4.27528 3.816541,1.0207 3.838032,5.4438 0.02859,5.8844 -1.91483,0.22147 -2.835312,-0.23112 -3.272674,-1.60912 z m 83.979576,0.55098 c -1.76653,-5.59752 -2.64113,-38.68045 -2.13541,-80.77435 0.71756,-59.72639 0.96299,-64.32099 5.55027,-103.90364 1.11087,-9.5854 1.85632,-17.59142 1.65657,-17.79117 -1.20531,-1.20532 -5.89401,34.97533 -7.09112,54.71916 -0.31681,5.225 -0.79022,11.3 -1.05202,13.5 -1.27182,10.6873 -2.50407,54.21772 -2.59017,91.5 -0.0948,41.04958 -0.96127,47.83502 -2.42623,19 -2.90489,-57.17758 1.10723,-132.96865 9.09153,-171.74405 1.27341,-6.18422 2.60178,-12.14672 2.95195,-13.25 0.35017,-1.10327 0.44162,-2.00595 0.20323,-2.00595 -0.9565,0 -5.72098,15.08217 -7.63826,24.17926 -5.34702,25.37037 -10.61264,107.20662 -11.08771,172.32074 -0.0737,10.10163 -0.3714,13.32637 -1.06911,11.58083 -1.87169,-4.6826 -1.17136,-79.86583 1.03937,-111.58083 1.11182,-15.95 2.28081,-31.475 2.59776,-34.5 0.81455,-7.77411 4.30595,-29.73568 5.48472,-34.5 0.54432,-2.2 1.66274,-7.07679 2.48539,-10.83731 0.82265,-3.76051 3.12205,-10.62301 5.10978,-15.25 3.67096,-8.54514 6.25874,-10.79511 6.5129,-5.66269 0.11031,2.22761 0.2164,2.33865 0.55847,0.58455 0.23226,-1.19099 1.12582,-2.43542 1.98569,-2.76538 1.39269,-0.53443 1.49314,1.06683 0.91995,14.66545 -1.1626,27.58172 -1.71959,64.26751 -2.03535,134.05519 -0.17118,37.8344 -0.59332,69.0719 -0.93809,69.41667 -0.34477,0.34477 -0.85036,0.40334 -1.12354,0.13017 -3.24049,-3.24049 -3.27048,-126.77199 -0.0424,-174.83665 0.2401,-3.575 0.65582,-12.125 0.92382,-19 0.39931,-10.24309 0.32098,-11.3264 -0.43383,-6 -4.61758,32.58459 -6.48061,76.97283 -6.1383,146.25 0.14607,29.5625 0.009,53.75 -0.30487,53.75 -0.31375,0 -0.74798,-0.5625 -0.96495,-1.25 z m 63.14861,-9.75 c 0.44476,-5.775 0.77434,-24.675 0.7324,-42 -0.13013,-53.75867 -4.52399,-92.88737 -14.59395,-129.96351 -3.78993,-13.95398 -12.69598,-30.12374 -20.3991,-37.03649 l -2.78584,-2.5 2.42757,3.31643 c 14.39453,19.66512 22.58706,45.09386 26.87236,83.40898 3.19775,28.59122 4.42394,58.11977 3.69944,89.08798 -0.7002,29.92918 -1.07075,34.63842 -3.23456,41.10756 -1.3547,4.05011 -1.36113,4.05422 -0.90724,0.57905 0.25142,-1.925 0.7485,-19.25 1.10462,-38.5 1.13885,-61.56101 -3.35907,-107.68024 -13.74521,-140.93592 -4.97747,-15.9375 -8.67657,-23.8922 -14.98783,-32.23053 -2.6807,-3.54171 -4.87401,-6.6374 -4.87401,-6.87931 0,-0.24191 1.81852,-0.36859 4.04116,-0.2815 2.22263,0.0871 3.57786,0.44468 3.01162,0.79464 -0.58678,0.36265 0.57818,2.12992 2.70884,4.10941 5.68464,5.28129 8.45925,9.49045 13.46264,20.42321 10.61069,23.1851 14.13558,41.27986 18.70093,96 2.48267,29.75714 3.08407,80.73827 1.09708,93 -1.84543,11.38816 -3.25371,10.48191 -2.33092,-1.5 z m -49.72528,-13.25 c -0.0187,-11.6875 -0.17383,-60.3041 -0.34482,-108.03689 -0.171,-47.73279 0.0693,-87.02184 0.53393,-87.30901 0.46465,-0.28718 0.85171,1.19192 0.86013,3.28688 0.011,2.74222 0.27603,3.39676 0.94621,2.33705 0.81958,-1.29597 0.99099,-1.29597 1.43349,0 1.95368,5.72178 6.23101,41.39855 8.02935,66.97197 1.29667,18.4395 1.69115,85.24753 0.64643,109.47797 -1.20378,27.91952 -1.78854,33.8145 -3.26387,32.9027 -0.51879,-0.32063 -0.67438,-1.28367 -0.34575,-2.14008 0.95762,-2.49551 0.60935,-105.69979 -0.43444,-128.74059 -0.89236,-19.69833 -3.28352,-54.2092 -4.85008,-70 -0.38195,-3.85 -0.62606,34.625 -0.54248,85.5 0.0836,50.875 -0.0626,98.0125 -0.32485,104.75 -0.77969,20.03122 -2.30626,14.16797 -2.34325,-9 z m 57.48835,-7.25 c 1.68054,-68.76783 -6.16132,-132.1328 -20.29615,-164 -4.54707,-10.25144 -7.79688,-15.04031 -14.6363,-21.56787 -3.03576,-2.89733 -5.29901,-5.48843 -5.02944,-5.75799 0.26956,-0.26957 -0.0111,-1.09403 -0.62365,-1.83213 -0.61257,-0.73811 -0.72117,-1.3489 -0.24132,-1.35732 0.47984,-0.008 0.19744,-0.4879 -0.62756,-1.06551 -1.15665,-0.80981 -0.95632,-0.89623 0.87523,-0.37755 1.61558,0.45751 2.15639,0.31855 1.69098,-0.4345 -0.37633,-0.60892 -0.23352,-1.10713 0.31736,-1.10713 0.55088,0 0.83229,-0.87915 0.62535,-1.95367 -0.51899,-2.69493 2.32512,-3.40419 10.24831,-2.55569 7.81377,0.83679 28.31733,8.86598 35.74277,13.99688 10.52752,7.27439 19.10535,16.86358 24.37863,27.25297 3.43057,6.75891 8.32039,21.0166 7.8782,22.97118 -0.24426,1.07968 -1.05214,-0.30798 -2.03874,-3.50188 -1.99733,-6.46585 -8.43553,-19.48531 -12.70232,-25.68687 -8.15938,-11.85925 -24.87808,-24.10482 -39.84975,-29.18783 -5.49969,-1.86719 -6.80936,-0.88711 -1.56956,1.17456 18.95864,7.45954 33.17312,19.42459 42.43894,35.723 2.73053,4.80296 4.9646,9.18049 4.9646,9.72785 0,0.54735 1.09892,3.36766 2.44204,6.26735 2.6612,5.74529 7.82084,22.30917 9.42976,30.27215 6.48635,32.10264 9.18835,62.04765 8.79763,97.5 -0.17031,15.45281 -0.72715,27.53141 -1.33574,28.97414 -0.77085,1.82741 -1.19637,-5.62234 -1.62788,-28.5 -0.63406,-33.61705 -2.58056,-60.69337 -5.65677,-78.68726 -5.95775,-34.84915 -17.02492,-64.31914 -29.43499,-78.38041 -5.19344,-5.88445 -21.15828,-16.79852 -30.61405,-20.92872 -3.575,-1.56153 -6.95,-3.14891 -7.5,-3.52749 -1.49083,-1.0262 -11.53121,-3.25239 -12.10061,-2.68299 -0.27095,0.27096 1.08617,0.78884 3.01583,1.15085 6.76688,1.26947 25.31407,11.16832 30.3369,16.19115 0.76491,0.7649 1.79529,1.39073 2.28975,1.39073 0.49446,0 3.72482,3.3234 7.17857,7.38532 6.67091,7.84559 18.67338,30.1658 20.78324,38.64924 6.41303,25.7858 10.54208,50.23314 12.00183,71.06055 0.63238,9.02269 1.51409,20.22989 1.95934,24.90489 1.12776,11.84087 0.69759,51.94348 -0.5891,54.92069 -0.77929,1.80314 -1.2175,-4.70226 -1.71773,-25.5 -0.36936,-15.35638 -1.11599,-34.07132 -1.65918,-41.58876 -2.41748,-33.45645 -8.46062,-67.88126 -14.97967,-85.33193 -8.81753,-23.60339 -11.87838,-29.47676 -20.27409,-38.90339 -6.7843,-7.61733 -11.01754,-10.58162 -23.53268,-16.47856 -9.25576,-4.36117 -14.28427,-5.23601 -6.10163,-1.06154 9.66375,4.93008 20.3542,13.60499 27.04188,21.94349 5.72263,7.13525 13.43009,21.70739 16.67728,31.53098 5.68419,17.19618 9.79779,40.92698 12.64874,72.96902 0.88086,9.9 1.79665,19.35 2.03509,21 0.84736,5.86379 0.49289,56.05031 -0.41672,59 -0.50883,1.65 -0.98774,2.775 -1.06426,2.5 -0.0765,-0.275 -0.30222,-12.65 -0.50155,-27.5 -0.19933,-14.85 -0.62742,-29.475 -0.9513,-32.5 -0.32388,-3.025 -1.28756,-13.15 -2.14152,-22.5 -2.76648,-30.29014 -7.38338,-54.48837 -14.08739,-73.83527 -6.50172,-18.76314 -11.46321,-27.53971 -20.52961,-36.31568 -8.7414,-8.46139 -24.45014,-19.42632 -19.79497,-13.8172 1.11871,1.34797 0.92334,1.40821 -1.62756,0.50177 -2.74295,-0.97467 -2.68044,-0.82846 1.16222,2.71815 8.9834,8.29132 17.665,20.93502 22.14274,32.24823 2.9605,7.47983 6.92085,19.739 7.75325,24 0.37605,1.925 1.31915,5.525 2.09578,8 1.96189,6.25231 6.06802,35.97073 7.93899,57.45913 2.60224,29.88704 1.90467,87.47767 -1.09592,90.47826 -0.30656,0.30657 -0.24429,-9.34143 0.13838,-21.44 1.53316,-48.4724 -4.52815,-106.10503 -15.12537,-143.81642 -1.36302,-4.85047 -2.85978,-9.57547 -3.32613,-10.5 -0.46635,-0.92453 -1.88294,-4.38097 -3.14798,-7.68097 -4.30382,-11.22702 -12.44898,-22.72082 -20.25241,-28.57858 l -4.18243,-3.1396 3.11774,2.97682 c 11.82862,11.29397 21.20074,31.82037 26.36404,57.74136 6.18016,31.0258 7.65552,44.15085 8.98261,79.91064 1.10132,29.67629 -0.077,74.1435 -2.01321,75.97326 -0.90736,0.85748 -1.02247,-5.37192 -0.49676,-26.8839 z m -24.45442,-199.5 c -0.825,-0.53316 -2.4,-0.96937 -3.5,-0.96937 -1.65614,0 -1.7421,0.16666 -0.5,0.96937 0.825,0.53316 2.4,0.96937 3.5,0.96937 1.65614,0 1.7421,-0.16666 0.5,-0.96937 z M 161.67241,284.6083 c 0.25936,-50.70034 -0.41432,-71.33995 -3.09044,-94.68159 -0.85184,-7.42992 -1.78982,-15.98394 -2.0844,-19.00894 -0.80062,-8.22149 -4.30871,-31.76055 -5.62683,-37.75561 -0.63554,-2.89058 -0.90586,-5.50527 -0.60071,-5.81042 1.6359,-1.6359 7.67886,25.41692 9.28486,41.56603 0.35553,3.575 1.28765,10.55 2.07138,15.5 3.07398,19.41521 4.181,107.01412 1.76647,139.78111 -1.42986,19.40417 -1.95974,7.20982 -1.72033,-39.59058 z m 8.08778,0.25473 c 0.50719,-48.14231 -0.41909,-80.50598 -2.66018,-92.94526 -0.54499,-3.025 -2.40826,-14.05 -4.1406,-24.5 -1.73235,-10.45 -4.6735,-24.32349 -6.5359,-30.82997 -3.84481,-13.43225 -3.92407,-13.88299 -1.94428,-11.05644 2.0528,2.93078 7.26187,20.65743 10.54542,35.88641 3.04688,14.13134 5.50432,32.61047 7.0482,53 1.9253,25.42692 0.52945,113.88114 -1.86461,118.15908 -0.63013,1.12598 -0.7868,-15.55903 -0.44805,-47.71382 z m 7.91849,39.55474 c 1.06457,-15.05166 0.68092,-82.93277 -0.56458,-99.89505 -1.88138,-25.62215 -3.84608,-38.35903 -10.5825,-68.60495 -3.318,-14.89751 -9.7584,-31.35536 -14.78205,-37.77417 -0.54847,-0.70079 -0.76234,-1.50904 -0.47527,-1.79611 0.80987,-0.80987 6.20342,6.47878 9.21946,12.45885 3.27697,6.49743 8.69192,22.81524 10.98779,33.11143 0.9198,4.125 2.06389,9.075 2.54241,11 3.33668,13.42288 7.01355,63.8345 7.01281,96.14905 -6.5e-4,28.47271 -1.59115,61.39389 -3.08122,63.777 -0.65797,1.05232 -0.74972,-1.74018 -0.27685,-8.42605 z m -70.64944,3.75 c -0.38832,-27.00571 0.21132,-81.33586 0.9961,-90.25 0.55684,-6.325 1.46,-17.575 2.00702,-25 1.4139,-19.19154 3.01405,-32.5642 4.72651,-39.5 0.81477,-3.3 2.05851,-9.15 2.76387,-13 1.86196,-10.16308 5.32777,-21.04246 9.13509,-28.6756 4.421,-8.86348 6.11301,-9.71286 2.19634,-1.10254 -8.21236,18.05386 -14.63889,52.04509 -16.7848,88.77814 -1.70761,29.23035 -3.03386,69.13241 -3.03293,91.25 5.5e-4,13.16831 -0.37071,21.25 -0.97619,21.25 -0.5374,0 -1.00135,-1.6875 -1.03101,-3.75 z m 113.46552,-20.75 c 0.8655,-56.98002 -5.33491,-109.82311 -17.01265,-144.99051 -5.72816,-17.25029 -9.6082,-23.82687 -20.60315,-34.92193 -3.76754,-3.80185 -6.67445,-7.08807 -6.4598,-7.30272 0.84943,-0.84944 12.96229,11.37955 18.62415,18.80269 11.47829,15.04895 17.33904,32.66738 22.45449,67.50202 3.75645,25.58033 5.41927,47.12152 5.9221,76.71865 0.45015,26.49621 -0.41545,44.19428 -2.32287,47.49333 -0.65472,1.13238 -0.85545,-6.63384 -0.60227,-23.30153 z M 90.725334,327.20982 c -0.943687,-4.69476 0.05776,-69.98944 1.277475,-83.29205 0.63037,-6.875 1.78865,-17.45 2.573956,-23.5 0.785306,-6.05 1.692347,-13.475 2.015646,-16.5 2.11357,-19.77595 5.334829,-34.53807 10.692359,-49 5.73616,-15.48401 15.89162,-32.60739 21.78807,-36.73743 1.4442,-1.01155 0.75279,0.32918 -1.90127,3.68682 -15.99502,20.23522 -25.35721,53.33255 -30.705537,108.55061 -0.372905,3.85 -0.806497,7.71179 -0.963538,8.58176 -0.431143,2.38841 -2.326783,47.74784 -2.939718,70.34243 -0.297272,10.9583 -0.706032,20.08973 -0.908356,20.29205 -0.202323,0.20232 -0.620413,-0.88856 -0.929087,-2.42419 z m 7.901484,-5.91906 c -1.074864,-13.21324 0.748018,-74.15748 2.927442,-97.87299 3.375,-36.72522 10.39177,-72.20996 16.00218,-80.92517 0.73462,-1.14116 2.12207,-4.09983 3.08321,-6.57483 1.93576,-4.98467 9.29571,-16.4353 10.06769,-15.66333 0.26994,0.26995 -1.9287,4.69213 -4.88587,9.82707 -2.95718,5.13494 -6.33691,12.03626 -7.51053,15.33626 -3.90312,10.97485 -9.04177,38.57204 -11.26524,60.5 -0.58557,5.775 -1.50823,14.75477 -2.05034,19.95504 -1.52417,14.62083 -3.93012,65.67101 -3.96096,84.04496 -0.0303,18.07308 -1.353929,24.3255 -2.407582,11.37299 z M 76.281853,300.91777 c 0.04524,-14.575 0.642768,-33.25 1.327836,-41.5 0.685068,-8.25 1.755997,-21.525 2.379842,-29.5 1.066996,-13.64008 4.815336,-42.38982 6.975236,-53.5 1.617401,-8.31965 7.549041,-24.27209 12.270484,-33 4.570819,-8.44947 18.856529,-24.77888 20.361279,-23.27414 0.33411,0.33411 -0.21753,1.44521 -1.22587,2.4691 -8.01903,8.14279 -16.25859,20.54936 -20.791157,31.30589 -9.587649,22.75311 -15.57251,70.47872 -19.111971,152.4063 -1.119736,25.91842 -2.274051,23.06276 -2.185679,-5.40715 z m 7.02784,21 c 0,-2.475 0.195016,-3.4875 0.433369,-2.25 0.238353,1.2375 0.238353,3.2625 0,4.5 -0.238353,1.2375 -0.433369,0.225 -0.433369,-2.25 z M 60.18401,319.74406 c -0.08067,-1.47054 -0.641447,-4.84554 -1.246161,-7.5 -1.066658,-4.68221 -0.334543,-21.76713 3.077868,-71.82629 0.938565,-13.7685 3.326161,-32.62368 5.001811,-39.5 0.469092,-1.925 2.291661,-9.5564 4.050153,-16.95866 1.758493,-7.40226 4.550949,-16.85226 6.205458,-21 2.726961,-6.8363 4.398286,-10.16403 11.257,-22.41353 5.829296,-10.41099 17.556381,-21.57717 26.840101,-25.55634 5.76332,-2.47026 6.2972,-2.53564 4.66709,-0.57147 -0.68469,0.825 -1.659,1.5 -2.16514,1.5 -1.604,0 -11.17791,7.53953 -15.37154,12.1052 -16.156104,17.58943 -25.68386,38.67152 -31.362007,69.3948 -3.317655,17.95114 -6.916676,50.51128 -8.124293,73.5 -0.621178,11.825 -1.479119,28.25 -1.906536,36.5 -0.427418,8.25 -0.843129,13.79683 -0.923804,12.32629 z m 6.929327,-14.57629 c -0.03824,-15.02889 0.986516,-42.88102 2.43752,-66.25 1.384507,-22.29801 7.949451,-57.73929 13.522109,-73 5.986735,-16.39465 7.257816,-19.19993 11.656098,-25.72501 5.348386,-7.9346 17.248766,-19.75637 23.316376,-23.16234 3.56961,-2.00376 2.57086,-0.71834 -6.21588,8 -14.977983,14.86138 -18.921665,21.28626 -25.71237,41.88953 -8.444167,25.61995 -12.211704,53.54681 -15.109317,111.99782 -0.586205,11.825 -1.245489,25.1 -1.465076,29.5 -0.219587,4.4 -0.423148,9.2375 -0.452358,10.75 -0.02921,1.5125 -0.476419,2.75 -0.993796,2.75 -0.548445,0 -0.958458,-6.98431 -0.983306,-16.75 z m -30.429158,10.03082 c -1.56069,-9.44355 0.05284,-53.50452 2.939908,-80.28082 1.038275,-9.62953 6.206161,-39.20828 8.299018,-47.5 3.402217,-13.47928 9.209761,-28.88607 16.020258,-42.5 9.190772,-18.37202 23.022958,-31.15697 39.572007,-36.57603 l 4.02196,-1.317 -4,0.58172 c -14.029578,2.04032 -36.377993,22.24835 -44.857468,40.56131 -1.692784,3.65587 -3.655839,5.00809 -3.629313,2.5 0.02685,-2.53817 7.974758,-15.45893 13.642654,-22.17859 7.695708,-9.12376 17.459222,-16.4281 27.057204,-20.24222 10.699323,-4.25177 16.533643,-5.66252 23.418023,-5.66252 3.22789,0 5.8689,-0.375 5.8689,-0.83334 0,-2.197093 -19.44425,0.0745 -28.500001,3.32956 -12.496156,4.49169 -25.151814,15.0713 -34.505429,28.8451 -2.197014,3.23525 -3.994571,6.35696 -3.994571,6.93714 0,0.58018 -0.480324,1.05487 -1.067388,1.05487 -3.178524,0 6.341876,-14.96047 15.567388,-24.46278 4.172669,-4.29786 8.284164,-7.29457 13.5,-9.83962 9.279534,-4.52791 18.403071,-7.6976 22.156551,-7.6976 1.5639,0 2.84345,-0.37468 2.84345,-0.832622 0,-1.3936 -10.20817,0.453918 -17.961773,3.250802 -7.565148,2.7289 -10.396967,2.85293 -5.33159,0.23352 5.38577,-2.785087 15.920833,-5.712357 23.875373,-6.634004 l 7.91799,-0.917411 -9,0.328667 c -8.55485,0.31241 -8.80216,0.26427 -5,-0.973291 5.84783,-1.903407 14.07365,-1.722392 21.77188,0.479103 3.72104,1.06412 6.50555,1.51412 6.1878,1 -0.31774,-0.51412 0.12384,-0.934764 0.9813,-0.934764 0.85746,0 1.55902,-0.480642 1.55902,-1.068094 0,-0.587452 1.4283,-0.05105 3.17401,1.191998 1.7457,1.24305 2.6429,2.437127 1.99377,2.653504 -0.64913,0.216377 -0.88642,0.917478 -0.52731,1.558002 0.41967,0.74854 0.17182,0.718022 -0.69377,-0.08541 -1.98302,-1.840628 -3.41701,-1.521749 -1.81914,0.404529 1.23399,1.487621 1.03371,1.479411 -1.98526,-0.08138 -2.04098,-1.055169 -4.32871,-1.4922 -5.83379,-1.114447 -1.42722,0.358207 -2.2325,0.227326 -1.90105,-0.308975 0.31627,-0.511738 -1.0955,-1.243828 -3.13728,-1.626868 -2.37204,-0.444996 -3.84311,-0.304065 -4.07458,0.390351 -0.19925,0.597732 -2.46227,1.141541 -5.02893,1.208465 -3.44178,0.08974 -2.25519,0.423283 4.52075,1.270752 9.2781,1.160413 13.09931,2.508043 7.72925,2.725883 l -2.91667,0.11832 3,0.76337 c 2.42542,0.61716 2.56906,0.78603 0.75,0.88169 -1.2375,0.0651 -2.25,0.53399 -2.25,1.04204 0,0.50805 -2.3625,1.39242 -5.25,1.96528 l -5.25,1.04156 5.38561,-0.43423 c 2.96209,-0.23883 5.16156,-0.21017 4.88771,0.0637 -0.27385,0.27385 -4.31876,1.54913 -8.9887,2.83396 -16.20711,4.45901 -26.491573,11.0605 -35.576367,22.83608 -12.526733,16.23698 -22.714398,45.41276 -28.203426,80.76994 -2.334268,15.03601 -5.704796,51.36049 -6.495262,70 -0.31488,7.425 -0.860717,17.775 -1.212971,23 -0.555317,8.23705 -0.742885,8.96823 -1.410898,5.5 -1.841809,-9.56241 -0.42771,-50.56404 2.65564,-77 3.693273,-31.66529 7.789025,-51.3954 14.427435,-69.5 11.527478,-31.43832 23.455616,-46.10479 44.201789,-54.34917 3.6688,-1.45796 7.4938,-2.68636 8.5,-2.72978 1.0431,-0.045 1.29408,-0.2951 0.5839,-0.58185 -1.80047,-0.72695 -10.66106,2.34538 -18.754461,6.50295 -4.829255,2.48079 -9.480851,6.09355 -15,11.65007 -6.936141,6.98311 -8.873717,9.77986 -14.570176,21.03098 -3.613596,7.13724 -7.572662,15.6768 -8.797923,18.9768 -5.227042,14.07801 -10.014529,35.81114 -13.547536,61.5 -3.235353,23.52458 -3.406681,25.59865 -5.023088,60.80877 -0.740021,16.11983 -1.557913,29.5212 -1.81754,29.78083 -0.259627,0.25962 -0.753226,-1.22933 -1.096887,-3.30878 z m 87.603151,-210.9431 c -0.6875,-0.27741 -1.8125,-0.27741 -2.5,0 -0.6875,0.27741 -0.125,0.50439 1.25,0.50439 1.375,0 1.9375,-0.22698 1.25,-0.50439 z m 15.25,-7.33772 c -0.33992,-0.55 -1.15398,-0.993109 -1.80902,-0.984687 -0.71561,0.0092 -0.59227,0.402227 0.30902,0.984687 1.92112,1.241525 2.2673,1.241525 1.5,0 z m -87.691619,214.25 c -0.885683,-35.82144 2.862441,-86.88744 8.256525,-112.49033 7.206993,-34.20783 18.224506,-59.00561 32.605053,-73.38615 5.188117,-5.18812 18.276931,-12.55274 24.830041,-13.971 1.65,-0.3571 -0.825,1.2674 -5.5,3.61 -6.95178,3.48348 -10.1393,5.93938 -17.500001,13.48329 -7.795778,7.98983 -9.759139,10.75127 -14.673579,20.63824 -12.488604,25.12483 -16.733806,42.21987 -20.826391,83.86595 -1.108001,11.275 -2.454967,25 -2.993258,30.5 -0.53829,5.5 -1.280199,20.2375 -1.648687,32.75 -0.368487,12.5125 -1.049801,22.75 -1.514031,22.75 -0.46423,0 -0.930282,-3.4875 -1.035672,-7.75 z m 30.996056,-9.97463 c -0.37923,-17.15959 0.680743,-39.48921 2.742561,-57.77537 0.868197,-7.7 1.795762,-16.925 2.061254,-20.5 2.796069,-37.65064 13.141228,-73.07052 27.016668,-92.5 6.12375,-8.57495 12.0495,-15.12008 12.92002,-14.27045 0.41112,0.40125 -1.00581,2.71337 -3.14873,5.13804 -14.16929,16.03231 -26.025614,44.99073 -30.392037,74.23094 -4.260483,28.53077 -8.977971,84.95353 -8.995769,107.59245 -0.01258,16.00194 -1.843148,14.41087 -2.203967,-1.91561 z M 242.11628,174.33444 c 0.048,-1.16495 0.28494,-1.4019 0.60416,-0.60417 0.28887,0.72187 0.25335,1.58437 -0.0789,1.91667 -0.3323,0.33229 -0.56864,-0.25834 -0.52522,-1.3125 z M 49.308469,167.32326 c 0.887504,-4.4205 2.710982,-8.7567 3.394828,-8.07286 0.821578,0.82158 -1.675929,9.55549 -2.95924,10.34862 -0.648315,0.40068 -0.80675,-0.42707 -0.435588,-2.27576 z M 224.99554,130.31133 c -14.09686,-14.56558 -37.37686,-26.17746 -52.95821,-26.41513 -2.475,-0.0377 -5.85,-0.65401 -7.5,-1.36946 l -3,-1.30083 3.19723,-0.72194 c 12.65403,-2.857273 31.90856,1.01247 42.47522,8.5366 4.3279,3.08173 2.75737,3.37399 -2.81933,0.52464 -9.73284,-4.97288 -14.02105,-6.43798 -22.44199,-7.66749 -8.49466,-1.24028 -15.13225,-0.85554 -7.41113,0.42957 20.24929,3.37032 35.3656,10.09763 45.79189,20.37906 4.69142,4.62624 10.51946,12.21142 9.38259,12.21142 -0.14193,0 -2.26426,-2.0729 -4.71627,-4.60644 z m -13.95821,-17.45258 c 0,-0.58246 0.45,-0.7809 1,-0.44098 0.55,0.33992 1,0.81648 1,1.05902 0,0.24254 -0.45,0.44098 -1,0.44098 -0.55,0 -1,-0.47656 -1,-1.05902 z M 79.037329,108.50883 c 0,-0.19039 0.675,-0.90637 1.5,-1.59106 0.864593,-0.71755 1.5,-0.81474 1.5,-0.22943 0,0.5585 -0.675,1.27447 -1.5,1.59106 -0.825,0.31658 -1.5,0.41982 -1.5,0.22943 z m 74.119711,-8.23531 c 1.2094,-1.457229 1.11916,-1.56634 -0.7934,-0.959318 -2.85844,0.907238 -4.19272,-1.289727 -1.83176,-3.016103 0.99005,-0.723945 2.20351,-1.066937 2.69658,-0.762206 0.49306,0.304731 1.43927,0.120391 2.10267,-0.409644 0.66341,-0.530036 2.3312,-1.271984 3.7062,-1.648773 l 2.5,-0.685072 -2.5,2.025909 -2.5,2.02591 4.5,-1.336521 c 5.7339,-1.702993 14.30962,-2.959828 11.5,-1.685408 -1.1,0.49895 -3.575,1.320816 -5.5,1.826369 -2.55307,0.670499 -0.79448,0.806116 6.5,0.501259 5.5,-0.229861 11.10557,0.0057 12.45683,0.523542 1.87608,0.718927 -0.13314,1.07608 -8.5,1.510933 -6.02626,0.313205 -13.18974,1.266017 -15.91886,2.117363 -3.43766,1.07237 -5.1657,1.21836 -5.625,0.47519 -0.46802,-0.75727 -0.86411,-0.74725 -1.34699,0.0341 -0.37621,0.60872 -1.16256,1.10676 -1.74744,1.10676 -0.62913,0 -0.50613,-0.67151 0.30117,-1.64425 z m 7.88029,-1.85575 c 1.375,-0.786021 2.05,-1.429129 1.5,-1.429129 -0.55,0 -2.125,0.643108 -3.5,1.429129 -1.375,0.786021 -2.05,1.429129 -1.5,1.429129 0.55,0 2.125,-0.643108 3.5,-1.429129 z M 143.704,98.251103 c -0.9557,-0.955697 -0.82206,-2.333333 0.22634,-2.333333 0.49116,0 1.15203,0.675 1.46862,1.5 0.58492,1.524276 -0.4803,2.047994 -1.69496,0.833333 z"
           id="path898"
           inkscape:connector-curvature="0" />
        <path
           style="fill:#ff00ff"
           d="m 234.19984,501.03937 c -0.73562,-0.46628 -1.18562,-1.92189 -1,-3.23469 0.4264,-3.01573 4.63345,-3.88643 6.49272,-1.34374 2.51852,3.44429 -1.71489,6.97303 -5.49272,4.57843 z m 11.58749,-3.2017 c -3.88432,-2.26241 -0.77461,-8.07381 3.18608,-5.95411 2.29348,1.22743 2.70328,3.99485 0.86392,5.83421 -1.4329,1.4329 -1.77816,1.44312 -4.05,0.1199 z m -23.03742,-1.54066 c -2.57309,-2.57308 2.11102,-7.60046 4.91404,-5.27416 2.30091,1.90959 1.29619,5.34561 -1.66404,5.69083 -1.39559,0.16275 -2.85809,-0.0247 -3.25,-0.41667 z m 12.85885,-5.95067 c -3.12449,-3.12449 -0.88758,-6.88645 3.17857,-5.34563 2.44084,0.92493 2.9686,3.79846 1.05,5.71706 -1.58146,1.58146 -2.34254,1.5146 -4.22857,-0.37143 z m 19.08356,-2.25731 c -2.03659,-2.2504 -2.08864,-3.56647 -0.20298,-5.13143 3.26945,-2.71341 8.22157,2.23871 5.50816,5.50816 -1.6174,1.94885 -3.30929,1.82871 -5.30518,-0.37673 z m -40.71743,-2.28792 c -0.89172,-1.66621 -0.81654,-2.43294 0.35331,-3.60278 2.78274,-2.78274 7.49968,0.49574 6.07076,4.21944 -0.86271,2.24819 -5.10899,1.84058 -6.42407,-0.61666 z m 12.2382,0.003 c -2.64631,-0.9986 -2.60992,-3.58393 0.0742,-5.27429 1.27472,-0.80276 2.22528,-0.80276 3.5,0 4.17911,2.63181 1.1741,7.06612 -3.57424,5.27429 z m 16.00559,-2.16808 c -1.92025,-2.31376 0.87131,-5.17309 4.22798,-4.33062 2.086,0.52355 2.64706,1.19933 2.40559,2.89746 -0.37383,2.62894 -4.84031,3.59391 -6.63357,1.43316 z M 95.346797,482.28185 c -0.897156,-2.33795 1.019496,-4.86408 3.690532,-4.86408 3.073571,0 4.823551,2.80275 3.069571,4.91618 -1.71686,2.06868 -5.958827,2.03599 -6.760103,-0.0521 z m 14.730403,-1.81604 c -2.07188,-2.49646 -0.83213,-5.01802 2.63285,-5.35502 2.48109,-0.24131 3.29926,0.14334 3.82442,1.79798 1.27492,4.0169 -3.76947,6.79564 -6.45727,3.55704 z m -25.817365,-1.10474 c -2.857926,-2.00177 -2.800938,-3.01819 0.2825,-5.03854 2.018678,-1.32269 2.795248,-1.40046 4,-0.40061 1.969328,1.6344 1.915175,5.62063 -0.08679,6.38886 -2.00484,0.76933 -1.615657,0.85742 -4.195707,-0.94971 z M 234.60185,478.5886 c -1.50634,-1.10146 -1.61871,-1.70105 -0.65595,-3.5 1.37161,-2.56287 3.34251,-2.77689 5.52,-0.5994 1.88603,1.88603 1.95289,2.64711 0.37143,4.22857 -1.5521,1.5521 -2.98454,1.51676 -5.23548,-0.12917 z m 22.39096,-2.75402 c -0.88192,-1.64788 -0.77292,-2.46106 0.52163,-3.89152 3.09553,-3.42052 7.67286,-0.0426 5.48412,4.04715 -1.36064,2.54238 -4.60684,2.45826 -6.00575,-0.15563 z M 214.578,473.31559 c -1.58862,-1.58863 -1.56552,-1.81742 0.37996,-3.7629 1.9669,-1.96689 2.15909,-1.98377 3.80845,-0.33441 1.31555,1.31555 1.48116,2.14264 0.68253,3.40873 -1.52198,2.41283 -2.94545,2.61406 -4.87094,0.68858 z m 9.42536,0.0612 c -2.74681,-3.30971 2.34689,-6.40388 5.51149,-3.34797 1.21313,1.17146 -0.55446,4.26316 -2.67666,4.68179 -0.81663,0.16109 -2.0923,-0.43913 -2.83483,-1.33382 z m 19.53368,0.54045 c -1.05207,-1.70228 0.27989,-5.70097 2.13628,-6.41333 2.21473,-0.84987 5.52819,2.27125 5.15803,4.85864 -0.21393,1.49535 -1.15374,2.13862 -3.45017,2.36153 -1.73588,0.1685 -3.46575,-0.19458 -3.84414,-0.80684 z M 93.520391,469.8644 c -1.014741,-3.19716 1.585792,-5.51533 4.460958,-3.97659 3.115421,1.66732 2.400771,5.43225 -1.10818,5.8381 -2.006753,0.2321 -2.834083,-0.22724 -3.352778,-1.86151 z m 26.766939,1.41287 c -1.66449,-0.70064 -1.60454,-5.28622 0.0776,-5.9317 0.73015,-0.28018 2.56136,-0.0403 4.06934,0.533 3.63528,1.38213 3.35412,5.44271 -0.39689,5.73203 -1.375,0.10606 -3.0625,-0.0439 -3.75,-0.33333 z m -42.63321,-2.49622 c -1.439121,-2.05463 -1.434035,-2.40774 0.05843,-4.0569 2.120797,-2.34345 3.585629,-2.28061 5.877752,0.25216 1.423716,1.57318 1.613009,2.45733 0.80286,3.75 -1.626749,2.59562 -4.94049,2.62253 -6.739043,0.0547 z m 26.87768,1.12777 c -1.06199,-1.71832 0.54484,-4.99105 2.45047,-4.99105 2.34181,0 4.44228,2.54855 3.69832,4.48727 -0.65013,1.6942 -5.18352,2.06563 -6.14879,0.50378 z m 129.91409,-5.49935 c -0.76552,-3.05008 0.5706,-4.83494 3.23522,-4.32179 2.88316,0.55525 2.57719,6.22757 -0.35843,6.64501 -1.6841,0.23947 -2.37328,-0.31709 -2.87679,-2.32322 z m 17.79144,1.3083 c -1.68821,-1.68821 -1.49417,-5.74988 0.30772,-6.44134 1.61112,-0.61824 6.49228,2.0831 6.49228,3.59296 0,1.32346 -2.94236,4.04838 -4.37143,4.04838 -0.67571,0 -1.76857,-0.54 -2.42857,-1.2 z M 166.704,464.2511 c -0.36667,-0.36666 -0.66667,-1.70809 -0.66667,-2.98094 0,-1.62023 0.73271,-2.49819 2.44316,-2.92748 3.16626,-0.79468 4.55684,0.12909 4.55684,3.02712 0,2.87269 -4.3589,4.85574 -6.33333,2.8813 z m 51.89015,-1.55567 c -1.42911,-2.04034 -1.40243,-2.3765 0.32577,-4.10469 3.58411,-3.58411 8.3712,0.092 5.48527,4.21223 -1.90498,2.71974 -3.85602,2.68364 -5.81104,-0.10754 z m -129.405214,-0.6628 c -2.209331,-1.40011 -0.929659,-4.58052 1.979197,-4.91896 2.989809,-0.34785 4.594743,2.22494 2.764004,4.43085 -1.300658,1.5672 -2.797396,1.72122 -4.743201,0.48811 z m 22.015004,-0.67544 c -1.65046,-1.89821 0.0388,-4.41948 2.62708,-3.92104 0.93847,0.18073 2.07511,0.36303 2.52586,0.40511 0.45075,0.0421 0.67575,1.08901 0.5,2.32651 -0.38373,2.70193 -3.72632,3.40523 -5.65294,1.18942 z m -11.595182,-1.01085 c -0.864286,-0.86428 -1.571429,-1.73214 -1.571429,-1.92857 0,-0.72517 3.171241,-3.5 4.000001,-3.5 0.47143,0 1.56339,0.70625 2.42659,1.56945 1.18468,1.18468 1.31614,2.04273 0.53624,3.5 -1.25175,2.33891 -3.27673,2.4738 -5.391402,0.35912 z m 55.725052,0.0242 c -2.37991,-1.76943 -0.57219,-4.9528 2.81251,-4.9528 1.83546,0 2.4616,0.60859 2.69482,2.6193 0.36355,3.13432 -2.69001,4.42814 -5.50733,2.3335 z m -32.72505,-2.02423 c -0.86429,-0.86425 -1.57143,-1.93415 -1.57143,-2.37752 0,-1.65297 2.97386,-3.19409 4.95201,-2.56625 2.46696,0.78298 2.80069,5.01241 0.4662,5.90824 -2.11715,0.81243 -2.05411,0.82823 -3.84678,-0.96444 z m -45.571431,-0.92854 c -0.993186,-1.19672 -0.993186,-1.80328 0,-3 2.492388,-3.00314 7.992866,-0.52975 6.64326,2.98727 -0.747712,1.9485 -5.029898,1.95671 -6.64326,0.0127 z M 228.0694,456.9777 c -2.26191,-4.22642 2.90386,-8.2519 5.92225,-4.61497 0.65956,0.79472 1.05216,2.48222 0.87244,3.75 -0.45025,3.17616 -5.232,3.78488 -6.79469,0.86497 z m 13.16793,0.74007 c -1.79987,-1.79987 -1.44655,-4.59768 0.72756,-5.76123 2.44244,-1.30715 4.81709,-0.41868 5.61699,2.1016 1.18572,3.73587 -3.54155,6.46263 -6.34455,3.65963 z m -62.82697,-1.27027 c -0.33969,-0.88522 0.15764,-2.45863 1.10961,-3.51055 1.42463,-1.5742 2.06112,-1.69838 3.65326,-0.71275 2.84028,1.75828 1.99097,5.12146 -1.39159,5.51054 -1.82013,0.20936 -2.96467,-0.22766 -3.37128,-1.28724 z m -32.98899,-3.97132 c -0.96902,-2.52522 0.0471,-4.85065 2.26716,-5.18842 2.41496,-0.36741 3.72662,1.86425 2.80409,4.77089 -0.69667,2.19499 -4.27608,2.4897 -5.07125,0.41753 z m -50.729053,-1.38715 c -0.910244,-1.00581 -1.654988,-2.30332 -1.654988,-2.88337 0,-1.01061 3.122272,-2.24553 5.75,-2.27424 1.594781,-0.0174 1.631271,4.20508 0.05,5.78635 -1.610237,1.61024 -2.199681,1.52083 -4.145012,-0.62874 z m 12.545013,0.62874 c -2.75556,-2.75556 -0.32736,-6.55357 3.3,-5.16163 1.98687,0.76244 1.92687,4.98385 -0.0818,5.75464 -2.01395,0.77283 -1.81587,0.80933 -3.21821,-0.59301 z m 59.46667,0.53333 c -1.16779,-1.16778 -0.71811,-4.04575 0.83333,-5.33333 1.03636,-0.8601 1.5,-0.89795 1.5,-0.12244 0,0.61734 0.53577,1.00994 1.19061,0.87244 1.70765,-0.35857 2.26589,3.34576 0.65778,4.36486 -1.63081,1.03349 -3.28052,1.11968 -4.18172,0.21847 z m -9.41667,-3.41627 c -2.8132,-1.06603 -2.90454,-3.49639 -0.18608,-4.95127 1.53199,-0.8199 2.43404,-0.79741 3.5,0.0873 3.10939,2.58056 0.55482,6.33002 -3.31392,4.86401 z m 28.10674,-1.42979 c -0.31927,-0.83201 -0.025,-2.18201 0.65383,-3 2.60385,-3.13746 7.76645,-0.80766 5.90744,2.66593 -1.19386,2.23074 -5.74454,2.46244 -6.56127,0.33407 z m -101.947,-0.86189 c -0.908232,-2.36681 -0.04353,-5.07222 1.730365,-5.41385 2.09191,-0.40286 5.049098,2.55976 4.651292,4.65985 -0.410449,2.16683 -5.604032,2.78046 -6.381657,0.754 z m 33.64088,-0.0644 c -2.52986,-3.04829 1.46208,-7.04023 4.51037,-4.51037 0.84454,0.7009 1.40131,2.21375 1.23727,3.36187 -0.36641,2.56446 -3.97419,3.28538 -5.74764,1.1485 z m 59.03137,-3.40779 c -1.2446,-2.32556 0.33003,-4.11972 3.00234,-3.4209 2.68508,0.70217 2.64249,5.2677 -0.0491,5.2677 -1.08065,0 -2.40958,-0.83106 -2.95319,-1.8468 z m -120.831991,0.18453 c -0.6875,-0.27741 -1.25,-1.58331 -1.25,-2.902 0,-1.70859 0.702112,-2.57383 2.443165,-3.01081 2.965986,-0.74442 4.556835,0.10536 4.556835,2.43411 0,3.15986 -2.616771,4.74298 -5.75,3.4787 z m 89.123181,-0.1575 c -2.09615,-1.39918 -2.44103,-4.41012 -0.65477,-5.71627 2.22542,-1.62726 5.28159,-0.15978 5.28159,2.53605 0,2.14661 -3.04243,4.23781 -4.62682,3.18022 z m 21.28984,-2.00008 c -1.38929,-1.53515 -1.44026,-2.10252 -0.32582,-3.62661 1.09382,-1.49589 1.69464,-1.60686 3.49197,-0.64496 2.52988,1.35395 2.87912,4.60566 0.58904,5.48444 -2.08194,0.79892 -1.87366,0.86619 -3.75519,-1.21287 z m 55.53698,-0.38014 c -1.79987,-1.79987 -1.44655,-4.59768 0.72756,-5.76123 3.5693,-1.91023 6.80536,1.07665 5.52773,5.10211 -0.66962,2.10976 -4.41047,2.50394 -6.25529,0.65912 z m -115.2,-2.36642 c 0,-2.20978 0.38216,-2.52245 2.75,-2.25 1.96901,0.22656 2.84075,0.95541 3.06955,2.56642 0.27184,1.91406 -0.13875,2.25 -2.75,2.25 -2.62871,0 -3.06955,-0.36859 -3.06955,-2.56642 z m -11.333334,0.89975 c -2.557979,-2.55798 2.620829,-6.29271 5.24743,-3.78422 1.158974,1.10686 1.181984,1.63019 0.127554,2.9007 -1.322671,1.59373 -4.192972,2.06554 -5.374984,0.88352 z m 58.885894,-1.05695 c -0.68654,-1.78909 1.70013,-4.27638 4.10339,-4.27638 1.9739,0 3.47499,3.46906 2.09725,4.8468 -1.73005,1.73005 -5.44916,1.38791 -6.20064,-0.57042 z m 56.19744,0.64352 c -2.6713,-1.55589 -2.19252,-4.77073 0.82322,-5.52763 3.56393,-0.89449 5.09948,0.83591 3.62109,4.0806 -1.26409,2.77439 -1.8422,2.96262 -4.44431,1.44703 z M 67.608758,437.34634 c -1.898078,-1.89808 -1.970739,-2.85228 -0.321429,-4.22109 2.088599,-1.73338 2.382443,-1.75741 4.096305,-0.33504 2.096699,1.74011 2.135626,4.72865 0.07191,5.52057 -2.117149,0.81243 -2.054115,0.82823 -3.846784,-0.96444 z m 167.178572,0.8821 c -1.19095,-0.31122 -1.75,-1.44551 -1.75,-3.55066 0,-1.70134 0.2961,-2.79725 0.65799,-2.43535 0.3619,0.36189 1.1494,0.26372 1.75,-0.21817 1.71771,-1.37818 5.59201,0.57982 5.59201,2.8261 0,1.62544 -2.94512,4.40666 -4.18426,3.95141 -0.17366,-0.0638 -1.10324,-0.3218 -2.06574,-0.57333 z M 41.703996,437.2511 c -1.117684,-1.11768 -0.743636,-5.02642 0.583333,-6.09572 1.570528,-1.26557 5.576638,0.14704 6.384041,2.2511 1.16626,3.03922 -4.594156,6.21784 -6.967374,3.84462 z m 144.408754,-2.74245 c -1.43284,-1.72647 -0.5337,-5.59088 1.30084,-5.59088 0.68281,0 2.11499,0.64864 3.18261,1.44143 1.55324,1.1534 1.71989,1.80283 0.83395,3.25 -1.45251,2.37266 -3.76948,2.76457 -5.3174,0.89945 z m -12.93243,-0.46031 c -1.81897,-1.18075 -0.52452,-5.13527 1.6744,-5.11526 2.6844,0.0244 4.40878,1.57028 4.02079,3.60452 -0.39323,2.06169 -3.55458,2.90029 -5.69519,1.51074 z M 54.003119,429.85385 c -2.24732,-4.19916 3.974779,-6.6327 6.483167,-2.53565 0.816212,1.33315 0.617343,2.03876 -0.890087,3.15814 -2.674528,1.98603 -4.293471,1.80585 -5.59308,-0.62249 z m 93.272531,0.90224 c -1.93892,-1.93892 -1.46478,-3.77802 1.29862,-5.0371 2.09369,-0.95395 2.83328,-0.85957 4.23305,0.5402 1.30559,1.30559 1.44625,2.09472 0.61093,3.42734 -1.35383,2.15984 -4.50384,2.70832 -6.1426,1.06956 z m 15.42835,0.49501 c -0.36667,-0.36666 -0.66667,-1.71666 -0.66667,-3 0,-2.72289 3.0148,-3.22535 5,-0.83333 2.03312,2.44976 -2.07914,6.08753 -4.33333,3.83333 z m -85.098092,-2.65953 c -2.7983,-2.04616 -1.210925,-5.88423 2.267261,-5.48194 4.027529,0.46583 4.123892,6.68272 0.10529,6.79283 -0.307379,0.008 -1.375027,-0.58148 -2.372551,-1.31089 z m 138.002852,-0.24523 c -1.96597,-1.96597 -1.97427,-2.84936 -0.0418,-4.45315 1.16961,-0.97068 2.11105,-1.00455 4,-0.14388 2.68445,1.22311 3.15916,3.07969 1.27039,4.96846 -1.62976,1.62976 -3.34956,1.50759 -5.22857,-0.37143 z m 26.01096,0.25533 c -3.56368,-2.60583 0.43064,-8.42497 4.16761,-6.0716 2.38511,1.50203 2.67761,3.81723 0.72852,5.76632 -1.96363,1.96363 -2.57599,2.00181 -4.89613,0.30528 z m -42.33239,-0.32768 c -1.95534,-0.81794 -1.46861,-3.16886 0.92083,-4.44765 1.80162,-0.96419 2.3992,-0.84949 3.51348,0.67438 0.73846,1.0099 1.18883,2.30437 1.00084,2.87661 -0.38463,1.17078 -3.53671,1.69079 -5.43515,0.89666 z m 27.71107,-0.90313 c -0.61947,-0.74641 -0.8338,-2.27871 -0.4763,-3.4051 0.88895,-2.80083 5.1533,-2.76368 6.04718,0.0527 1.11293,3.50655 -3.25933,6.13768 -5.57088,3.35243 z m -193.247011,-0.0724 c -1.401756,-1.40176 -0.680616,-4.92052 1.256322,-6.13016 1.672075,-1.04423 2.282302,-0.89572 4.030671,0.98094 1.133158,1.2163 1.930301,2.89929 1.771428,3.73997 -0.301182,1.59372 -5.780062,2.68761 -7.058421,1.40925 z m 31.284337,-1.88266 c -1.11524,-1.34378 -1.058479,-1.86656 0.356269,-3.28131 2.039683,-2.03968 5.145334,-0.59577 5.145334,2.39223 0,2.43348 -3.72083,3.03478 -5.501603,0.88908 z m 115.251604,0.75588 c -2.12252,-0.71415 -1.47778,-5.04684 0.86151,-5.7893 2.49125,-0.79069 5.44104,1.65308 4.60987,3.81909 -0.60728,1.58254 -3.51337,2.62901 -5.47138,1.97021 z M 44.608758,423.34634 c -2.357982,-2.35798 -1.695951,-4.47345 1.805319,-5.76876 3.994156,-1.47766 6.453994,4.29004 2.688993,6.30501 -2.501558,1.33879 -2.635223,1.32284 -4.494312,-0.53625 z m 110.790202,-2.92857 c -0.86494,-2.25398 0.34085,-4.5 2.41586,-4.5 2.84736,0 5.63876,2.47289 4.91637,4.35539 -0.81305,2.11878 -6.5314,2.23156 -7.33223,0.14461 z m 13.2804,0.31955 c -2.41762,-1.35297 -1.99913,-3.69972 0.89491,-5.01833 2.04488,-0.93171 2.82784,-0.86501 4.03674,0.34389 2.9148,2.91479 -1.16537,6.78215 -4.93165,4.67444 z m 40.7196,-2.31955 c -0.95038,-2.47663 0.4201,-4.5 3.04797,-4.5 2.94837,0 3.948,1.29794 3.08756,4.00895 -0.75649,2.38347 -5.2707,2.74476 -6.13553,0.49105 z m 10.67554,-0.43055 c -0.77991,-1.45727 -0.64844,-2.31532 0.53624,-3.5 2.12525,-2.12525 3.69344,-1.97305 5.24345,0.50891 1.00209,1.60459 1.02901,2.40243 0.11811,3.5 -1.67582,2.01924 -4.68368,1.75969 -5.8978,-0.50891 z M 54.398955,417.41777 c -0.882822,-2.3006 0.356449,-4.5 2.535561,-4.5 2.558818,0 5.171608,2.65715 4.453335,4.52894 -0.746739,1.94597 -6.23978,1.92322 -6.988896,-0.0289 z m 177.885175,0.3468 c -1.71189,-1.71189 0.3396,-4.8468 3.17175,-4.8468 1.47273,0 2.53496,0.71421 2.84915,1.91567 0.89706,3.43037 -3.42,5.53203 -6.0209,2.93113 z M 77.157305,416.14195 c -1.094085,-2.04432 0.268501,-5.22418 2.238584,-5.22418 2.651025,0 4.90549,2.59269 4.196603,4.8262 -0.854926,2.69363 -5.067173,2.95413 -6.435187,0.39798 z m 166.802385,-1.11167 c -1.97341,-1.61891 -2.21809,-2.32316 -1.32023,-3.79986 1.64251,-2.70141 5.04816,-2.8346 6.4306,-0.2515 0.97029,1.81301 0.84163,2.50894 -0.75998,4.11055 -1.90404,1.90403 -1.95817,1.9033 -4.35039,-0.0592 z M 32.939392,413.73477 c -0.996279,-1.86156 -0.833205,-2.45434 1.107518,-4.02584 2.135332,-1.72909 2.390474,-1.73909 4.13312,-0.16202 3.314773,2.99983 1.891773,6.37086 -2.689305,6.37086 -0.760666,0 -1.908765,-0.98235 -2.551333,-2.183 z m 166.347938,1.52072 c -1.92996,-0.77875 -1.48023,-3.14414 0.83319,-4.38224 1.66147,-0.88919 2.4705,-0.76437 3.99647,0.61661 3.09563,2.80151 -0.42199,5.54416 -4.82966,3.76563 z m -132.541152,-0.9622 c -1.050473,-1.05048 -0.859004,-4.16469 0.3001,-4.88105 2.013547,-1.24444 5.119455,0.59439 4.799347,2.84142 -0.305036,2.14122 -3.657116,3.48196 -5.099447,2.03963 z m -20.458849,-1.0378 c -2.068142,-0.83451 -1.494924,-5.04041 0.767591,-5.63207 2.887891,-0.7552 5.27297,1.88291 3.945243,4.3638 -1.021636,1.90894 -2.283509,2.24852 -4.712834,1.26827 z m 167.799701,-4.24486 c -0.78005,-1.45753 -0.57508,-2.45742 0.86943,-4.24131 1.86248,-2.30007 1.92071,-2.30647 3.98548,-0.43787 2.50967,2.27122 2.58137,2.95748 0.52396,5.01489 -2.10817,2.10817 -4.13878,1.98143 -5.37887,-0.33571 z m 9.88073,0.32332 c -1.75398,-2.11343 -0.004,-4.91618 3.06957,-4.91618 3.07357,0 4.82355,2.80275 3.06957,4.91618 -0.72295,0.8711 -2.10426,1.58382 -3.06957,1.58382 -0.96531,0 -2.34662,-0.71272 -3.06957,-1.58382 z M 56.425869,406.48791 c -0.990074,-2.5801 0.380053,-4.57014 3.146498,-4.57014 2.244013,0 2.554713,0.37452 2.281384,2.75 -0.364828,3.17069 -4.391481,4.52095 -5.427882,1.82014 z m 52.087541,-0.6455 c -0.82134,-2.58781 -0.32815,-3.08778 3.48375,-3.53161 2.78605,-0.32438 3.04017,-0.10484 3.04017,2.6265 0,2.62975 -0.34509,2.98047 -2.93261,2.98047 -2.08985,0 -3.12191,-0.59641 -3.59131,-2.07536 z m -35.034951,-0.36607 c -1.554224,-1.15413 -1.720087,-1.80192 -0.832144,-3.25 1.460175,-2.3813 5.751925,-2.38858 6.209895,-0.0105 0.338345,1.75686 -1.384239,4.70193 -2.750196,4.70193 -0.377534,0 -1.559934,-0.64864 -2.627555,-1.44143 z m 163.127451,0.11523 c -1.28729,-0.94129 -1.60819,-1.97364 -1.10566,-3.55698 0.56805,-1.78975 1.33367,-2.17009 3.87255,-1.9238 2.46478,0.2391 3.23916,0.83478 3.50202,2.69389 0.52662,3.72449 -2.90211,5.24876 -6.26891,2.78689 z M 96.042205,404.42365 c -1.660968,-2.00135 5.55e-4,-3.98478 3.392869,-4.05022 1.832066,-0.0353 2.278526,0.47192 2.200336,2.5 -0.11741,3.04581 -3.560079,3.99998 -5.593205,1.55022 z m -54.853269,-1.37696 c -2.231185,-1.43723 -0.947255,-4.62892 1.862088,-4.62892 1.98174,0 2.486305,0.50457 2.486305,2.4863 0,2.62562 -2.038926,3.63027 -4.348393,2.14262 z m 164.232434,-0.57051 c -0.9591,-2.49937 0.0609,-5.04871 2.12618,-5.31414 3.22724,-0.41476 4.84192,1.21656 4.10608,4.1484 -0.48798,1.94425 -1.29333,2.60733 -3.16674,2.60733 -1.38178,0 -2.76126,-0.64871 -3.06552,-1.44159 z m -84.99671,-0.99144 c -1.07354,-2.79759 0.40152,-4.72389 3.35698,-4.38394 2.18821,0.2517 2.75569,0.8318 2.75569,2.81697 0,1.98517 -0.56748,2.56527 -2.75569,2.81697 -1.79706,0.20671 -2.96486,-0.22813 -3.35698,-1.25 z m 107.697,-1.88264 c -1.79894,-1.79894 -1.27371,-5.40154 0.86919,-5.96193 2.84834,-0.74485 5.43337,1.48326 4.63591,3.99583 -0.76297,2.40391 -3.93458,3.53662 -5.5051,1.9661 z M 62.787329,397.83767 c -3.630566,-2.11461 -1.001613,-6.35332 3,-4.83696 2.590863,0.98178 3.021874,4.40689 0.668213,5.31007 -1.890901,0.72561 -1.530288,0.77212 -3.668213,-0.47311 z m 23.821429,-0.49133 c -0.864286,-0.86428 -1.571429,-1.96377 -1.571429,-2.44329 0,-1.38642 4.445304,-4.14937 4.828129,-3.00089 0.186196,0.55858 0.976038,1.01561 1.755204,1.01561 1.72695,0 1.869031,3.14764 0.216667,4.8 -1.629757,1.62976 -3.349558,1.50759 -5.228571,-0.37143 z m 129.855632,0.80612 c -3.66881,-2.51219 -1.4499,-7.95921 2.80705,-6.89078 3.30613,0.82979 4.26817,3.44359 2.13501,5.80071 -1.78453,1.97189 -3.19871,2.28381 -4.94206,1.09007 z M 51.147443,396.55045 c -0.861479,-1.03802 -0.782106,-1.66001 0.329567,-2.58262 1.994877,-1.6556 5.560319,-0.36203 5.560319,2.01733 0,2.31099 -4.113432,2.70579 -5.889886,0.56529 z m 56.041497,-0.50376 c -1.92714,-1.24137 -0.99804,-4.58177 1.35861,-4.88465 3.21546,-0.41325 5.19881,1.36304 3.8826,3.47726 -1.29553,2.08101 -3.34227,2.6306 -5.24121,1.40739 z m 20.89901,-3.56793 c -1.97307,-2.3774 -0.51506,-4.74705 2.69369,-4.37796 2.18821,0.2517 2.75569,0.8318 2.75569,2.81697 0,2.97711 -3.45317,3.96628 -5.44938,1.56099 z m -30.99757,-0.99707 c -0.899325,-1.08362 -0.912817,-1.95743 -0.05497,-3.56033 1.274364,-2.38117 3.76768,-2.32923 5.30389,0.11049 2.31339,3.67399 -2.459456,6.81094 -5.248917,3.44984 z m 18.49166,-1.42304 c -0.90391,-2.84797 0.3201,-4.89088 2.93037,-4.89088 2.63215,0 3.79058,2.52391 2.34447,5.10797 -1.24139,2.21824 -4.54505,2.08227 -5.27484,-0.21709 z m 129.92016,-1.19772 c -0.35923,-0.58125 -0.37722,-2.15625 -0.04,-3.5 0.43344,-1.72696 1.30458,-2.44316 2.9717,-2.44316 3.34255,0 5.04381,2.30854 3.6376,4.93608 -1.17113,2.18828 -5.43531,2.84199 -6.56934,1.00708 z m -137.74069,-3.07764 c -2.12285,-1.18801 -2.21612,-3.21236 -0.22418,-4.86552 1.11019,-0.92138 1.84875,-0.95545 2.84201,-0.13112 0.7381,0.61257 1.6381,0.81767 2,0.45578 0.36189,-0.3619 0.65799,0.30117 0.65799,1.47349 0,2.68721 -2.92075,4.38533 -5.27582,3.06737 z m 124.66743,-1.28738 c -0.9908,-2.58199 1.30605,-5.35859 4.0058,-4.8425 2.8962,0.55364 4.11543,2.9415 2.4974,4.89111 -1.49289,1.79882 -5.80665,1.76658 -6.5032,-0.0486 z m -148.351742,-1.0301 c -1.726461,-2.08026 -0.89745,-4.79636 1.578941,-5.1731 2.55672,-0.38897 5.855907,2.94558 5.033856,5.08781 -0.746779,1.94608 -5.022712,2.00122 -6.612797,0.0853 z m 171.367512,-2.06103 c -1.20071,-4.78401 3.85953,-7.49178 6.39961,-3.42446 1.95641,3.13271 0.60761,5.93745 -2.85533,5.93745 -2.27782,0 -3.05118,-0.54833 -3.54428,-2.51299 z M 96.703996,382.2511 c -1.12393,-1.12393 -0.740147,-4.14194 0.583333,-4.58724 3.087051,-1.03868 6.669351,1.95735 5.194231,4.34415 -0.65079,1.05299 -4.793367,1.22729 -5.777564,0.24309 z M 37.27565,380.75609 c -1.515719,-1.51572 -1.616066,-4.48683 -0.181486,-5.37345 0.58126,-0.35923 2.184635,-0.3701 3.563057,-0.0241 2.020246,0.50704 2.445517,1.1555 2.193165,3.34414 -0.347884,3.01717 -3.463409,4.16477 -5.574736,2.05344 z m 11.891566,-0.18182 c -1.60038,-1.92834 1.040756,-4.6565 4.507964,-4.6565 2.131853,0 2.448939,0.40026 2.178571,2.75 -0.242903,2.11106 -0.917168,2.81983 -2.902018,3.05056 -1.422078,0.1653 -3.12511,-0.34952 -3.784517,-1.14406 z m 78.888384,-0.62236 c -0.87189,-1.62914 -0.61071,-2.25508 1.52479,-3.65431 2.31861,-1.51921 2.73101,-1.53433 4.11454,-0.1508 1.21741,1.21741 1.30172,1.97846 0.40484,3.65431 -1.4229,2.6587 -4.65877,2.73943 -6.04417,0.1508 z m -13.45023,-1.71742 c -0.38685,-1.00813 0.0893,-2.41845 1.18703,-3.51623 1.77727,-1.77728 1.90151,-1.76909 4.08976,0.26958 1.78578,1.6637 2.01193,2.39759 1.08355,3.51623 -1.61487,1.9458 -5.57462,1.77796 -6.36034,-0.26958 z m 106.91673,-1.36471 c -0.76858,-2.42158 1.03557,-4.95201 3.53069,-4.95201 2.27385,0 3.27027,2.59758 1.94577,5.07244 -1.35892,2.53917 -4.65535,2.46668 -5.47646,-0.12043 z m 22.5827,-0.37072 c -1.45273,-1.75042 -0.50726,-5.58129 1.37747,-5.58129 2.25118,0 4.06751,2.96405 2.92563,4.7743 -1.4281,2.26401 -2.86954,2.53433 -4.3031,0.80699 z M 59.746178,375.29329 c -1.323902,-1.32391 -0.715999,-3.88996 1.205873,-5.09019 2.288687,-1.42931 4.468197,0.47634 3.907638,3.41663 -0.348542,1.82821 -3.822048,2.96502 -5.113511,1.67356 z m 45.291152,-1.8165 c 0,-1.34254 0.40939,-2.694 0.90976,-3.00325 1.74242,-1.07688 4.09024,0.67453 4.09024,3.05122 0,1.88588 -0.52981,2.39301 -2.5,2.39301 -1.98388,0 -2.5,-0.50393 -2.5,-2.44098 z m -77.345013,-0.38776 c -0.910244,-1.00581 -1.654988,-2.16295 -1.654988,-2.57143 0,-1.27657 2.788144,-3.59983 4.320163,-3.59983 1.934358,0 3.097195,4.79219 1.600452,6.59565 -1.532596,1.84667 -2.277409,1.77257 -4.265627,-0.42439 z m 205.459663,0.92076 c -1.93843,-1.22763 -0.6128,-6.09676 1.6544,-6.07671 2.89139,0.0256 4.35845,1.48319 3.58776,3.56464 -1.16122,3.13619 -2.92333,3.9806 -5.24216,2.51207 z m 30.63535,-1.15868 c -2.67902,-1.58096 -2.17538,-4.60976 0.89464,-5.38029 3.20469,-0.80432 4.63819,0.41753 4.19002,3.5714 -0.37384,2.63085 -2.44389,3.36728 -5.08466,1.80889 z M 90.332112,371.03503 c -0.964364,-1.55767 -0.924003,-2.18009 0.201961,-3.11456 2.276738,-1.88952 5.003256,-0.79363 5.003256,2.011 0,3.15931 -3.476209,3.89631 -5.205217,1.10356 z M 250.3468,370.28185 c -0.89716,-2.33795 1.01949,-4.86408 3.69053,-4.86408 3.07357,0 4.82355,2.80275 3.06957,4.91618 -1.71686,2.06868 -5.95883,2.03599 -6.7601,-0.0521 z M 38.237329,369.71777 c -3.128797,-3.1288 0.935185,-6.79447 4.648912,-4.19327 1.735261,1.21542 1.954601,1.89189 1.119422,3.45244 -1.169756,2.18571 -3.964523,2.54464 -5.768334,0.74083 z m 10.730433,-0.38382 c -1.665585,-2.00691 -0.205483,-4.5986 2.853778,-5.06548 1.618557,-0.24701 2.339918,0.29569 2.7931,2.10131 0.336036,1.33887 0.317053,2.9099 -0.04219,3.49115 -0.972027,1.57278 -4.106656,1.27804 -5.604693,-0.52698 z m 74.782148,0.96306 c -1.44872,-1.44872 -0.64569,-4.08869 1.5477,-5.08806 2.64537,-1.20531 5.08405,0.66519 4.5487,3.48891 -0.33243,1.75339 -4.77645,2.91911 -6.0964,1.59915 z m 116.21785,-3.96306 c -1.76867,-2.13113 -0.0544,-4.81692 3.33459,-5.22432 1.88414,-0.2265 2.74041,0.24989 3.23176,1.79799 1.30763,4.11997 -3.78519,6.77741 -6.56635,3.42633 z m -19.44197,-0.80096 c -2.35576,-1.72257 -1.51194,-5.03793 1.38709,-5.44988 2.99376,-0.42542 4.5032,1.06596 3.68572,3.64162 -0.83122,2.61894 -2.9374,3.36971 -5.07281,1.80826 z M 112.704,365.2511 c -1.01562,-1.01561 -0.79489,-4.13605 0.34228,-4.83886 2.01077,-1.24272 4.99105,0.59219 4.99105,3.07292 0,1.88178 -0.52835,2.43261 -2.33333,2.43261 -1.28334,0 -2.63334,-0.3 -3,-0.66667 z m -48.000004,-1 c -1.40871,-1.40871 -0.573362,-4.12447 1.429785,-4.6483 3.128713,-0.81818 4.903548,0.23942 4.903548,2.92196 0,1.96095 -0.511558,2.39301 -2.833333,2.39301 -1.558334,0 -3.133334,-0.3 -3.5,-0.66667 z m 35,0 c -1.232363,-1.23236 -0.680914,-4.39063 0.870574,-4.986 1.95865,-0.7516 5.50084,2.38986 4.78833,4.24663 -0.5507,1.4351 -4.45328,1.945 -5.658904,0.73937 z m 131.562524,-2.50414 c -1.82204,-1.82204 -1.49663,-3.6157 0.88747,-4.89163 2.88869,-1.54597 5.92531,1.18551 4.25921,3.8312 -1.38206,2.19464 -3.56309,2.64402 -5.14668,1.06043 z M 22.50538,359.81711 c -0.745537,-2.34898 0.125349,-3.57024 2.899308,-4.06577 2.246316,-0.40126 4.1958,2.25648 3.323173,4.53051 -0.931369,2.4271 -5.410829,2.09255 -6.222481,-0.46474 z m 11.281949,1.02056 c -2.609756,-1.52004 -2.199934,-4.76887 0.693165,-5.49499 1.34374,-0.33726 2.91874,-0.31927 3.5,0.04 1.41968,0.87741 1.339856,3.85211 -0.143165,5.33513 -1.432902,1.4329 -1.778165,1.44312 -4.05,0.1199 z m 12.412508,0.2017 c -1.818877,-1.15291 -1.065897,-5.52432 1.02002,-5.92171 2.344777,-0.44672 4.352971,3.44995 2.764421,5.36403 -1.369498,1.65015 -1.930491,1.73281 -3.784441,0.55768 z m 216.672633,0.19925 c -4.01137,-1.04739 -2.66936,-6.55925 1.40594,-5.77442 3.20377,0.61699 4.4069,2.20275 3.165,4.17157 -1.18666,1.88125 -2.17602,2.22818 -4.57094,1.60285 z m -13.41783,-1.67574 c -0.31422,-0.81885 -0.0593,-2.44562 0.56659,-3.61503 0.84466,-1.57826 1.70206,-1.95599 3.327,-1.46574 3.39573,1.02449 4.29144,2.25544 3.06576,4.21318 -1.40876,2.25018 -6.19961,2.84743 -6.95935,0.86759 z M 55.703996,357.2511 c -1.449516,-1.44951 -0.545946,-4.13231 1.583333,-4.70109 2.840704,-0.75882 5.304345,1.99489 3.61061,4.03572 -1.170581,1.41046 -4.076581,1.78274 -5.193943,0.66537 z m 185.333334,-2.11755 c -4.58295,-1.57553 -3.33337,-6.83952 1.34486,-5.66536 1.62187,0.40706 2.65514,1.35488 2.65514,2.43554 0,2.24471 -2.05017,3.90014 -4,3.22982 z M 64.398955,352.41777 c -1.508432,-3.93091 2.573193,-6.77395 5.683715,-3.95897 1.844205,1.66899 1.863982,1.90169 0.307767,3.62128 -2.009608,2.2206 -5.199943,2.40041 -5.991482,0.33769 z m 158.876695,0.33832 c -1.77076,-1.77076 -1.52979,-3.61196 0.62354,-4.76439 2.43463,-1.30297 5.4929,0.83874 4.98666,3.49217 -0.43392,2.27442 -3.83641,3.04601 -5.6102,1.27222 z M 37.703996,351.2511 c -1.106622,-1.10662 -0.753088,-3.38977 0.759032,-4.90189 2.537636,-2.53763 6.285499,0.55163 4.935927,4.06856 -0.578939,1.50869 -4.452754,2.07554 -5.694959,0.83333 z M 254.6479,348.34533 c -0.33187,-0.86485 -0.12456,-2.46715 0.46068,-3.56069 2.00243,-3.74158 8.15058,-0.49329 6.61928,3.49721 -0.82351,2.14604 -6.26209,2.19481 -7.07996,0.0635 z M 27.037329,347.41777 c -0.993186,-1.19672 -0.993186,-1.80328 0,-3 2.616278,-3.15242 6.582572,-0.69892 5.25391,3.25 -0.579183,1.72139 -3.74273,1.57086 -5.25391,-0.25 z m 21.374286,0.033 c -0.861479,-2.24498 0.01238,-3.8164 2.31794,-4.16825 2.118088,-0.32324 3.404799,1.87943 2.561684,4.38526 -0.582895,1.73243 -4.193167,1.57187 -4.879624,-0.21701 z m 185.226065,-1.83595 c -2.08547,-1.52494 -1.8091,-5.03316 0.43048,-5.46446 0.82932,-0.15971 2.39915,0.37167 3.48851,1.18084 1.97133,1.46431 1.97105,1.48099 -0.0602,3.54204 -1.75487,1.78057 -2.29569,1.88451 -3.85874,0.74158 z M 58.549265,343.28685 c -0.894826,-0.89483 -1.376077,-2.28074 -1.069446,-3.07981 0.30663,-0.79906 0.55751,-1.64104 0.55751,-1.87106 0,-1.18333 3.457203,-0.18414 4.607954,1.33179 1.799198,2.37015 1.718025,3.00517 -0.538508,4.21283 -1.466038,0.7846 -2.32202,0.64174 -3.55751,-0.59375 z m 186.096175,-0.66637 c -2.04001,-1.49169 -1.47279,-5.70271 0.76815,-5.70271 2.28273,0 4.84538,2.61058 4.471,4.55461 -0.46353,2.40692 -2.81338,2.92186 -5.23915,1.1481 z m -209.46287,-3.0277 c -2.246686,-2.7071 0.949511,-6.34335 4.408854,-5.01588 2.365654,0.90779 1.462036,5.76713 -1.1416,6.13913 -1.148128,0.16404 -2.618392,-0.34142 -3.267254,-1.12325 z m 11.417924,-2.47599 c -1.060953,-3.34277 0.253524,-5.07508 3.244084,-4.27528 3.816541,1.0207 3.838032,5.4438 0.02859,5.8844 -1.91483,0.22147 -2.835312,-0.23112 -3.272674,-1.60912 z"
           id="path896"
           inkscape:connector-curvature="0"
           sodipodi:nodetypes="csccccscccccsssscsccccccccsccscsssscssscscsccccccssccsccccsccccscccssccscccccccccccccccsscccccscssscscscsccsccsccccsccsssccsscscssscccccccsssssccscccscsccsssccscccccccsccccscccccccscssccccccscccssscccsccssccsscsssssscscccsscsscscccccccsccsccccsccssccccccsscsscscscssccscccscsccsssscccccccscccscccscsssscssccscscccscccsccssccscssccsscscssccccccccccsccsccccscsscscccsccscsccsscscssssccssscscscccccssccccscccsccscsscccccscscccsscscsscccccssccssccssssccscccccccsccccccccsccsssscccccccscccsscccssccccccccssccscccsscscsssssscsccccsccsscsscsccscsscsscccccccccscccccccsscccsscccscsccssccscccscccccccsscccccccsccccscsccssccsccsccccccccscssssccccccccscsccscccccccssc" />
      </g>
    </g>
  </g>
</svg>
