<?xml version="1.0" encoding="UTF-8" standalone="no"?>
<!-- Created with Inkscape (http://www.inkscape.org/) -->

<svg
   xmlns:dc="http://purl.org/dc/elements/1.1/"
   xmlns:cc="http://creativecommons.org/ns#"
   xmlns:rdf="http://www.w3.org/1999/02/22-rdf-syntax-ns#"
   xmlns:svg="http://www.w3.org/2000/svg"
   xmlns="http://www.w3.org/2000/svg"
   xmlns:sodipodi="http://sodipodi.sourceforge.net/DTD/sodipodi-0.dtd"
   xmlns:inkscape="http://www.inkscape.org/namespaces/inkscape"
   version="1.1"
   id="svg2949"
   width="283"
   height="443"
   viewBox="0 0 283 443"
   sodipodi:docname="feu109.svg"
   inkscape:version="0.92.4 (5da689c313, 2019-01-14)">
  <metadata
     id="metadata2955">
    <rdf:RDF>
      <cc:Work
         rdf:about="">
        <dc:format>image/svg+xml</dc:format>
        <dc:type
           rdf:resource="http://purl.org/dc/dcmitype/StillImage" />
        <dc:title></dc:title>
      </cc:Work>
    </rdf:RDF>
  </metadata>
  <defs
     id="defs2953" />
  <sodipodi:namedview
     pagecolor="#ffffff"
     bordercolor="#666666"
     borderopacity="1"
     objecttolerance="10"
     gridtolerance="10"
     guidetolerance="10"
     inkscape:pageopacity="0"
     inkscape:pageshadow="2"
     inkscape:window-width="1280"
     inkscape:window-height="972"
     id="namedview2951"
     showgrid="false"
     inkscape:zoom="1.5067919"
     inkscape:cx="147.84438"
     inkscape:cy="221.34636"
     inkscape:window-x="-8"
     inkscape:window-y="-8"
     inkscape:window-maximized="1"
     inkscape:current-layer="g534"
     showguides="true" />
  <g
     id="g151"
     transform="translate(25.882805,-2.654647)">
    <g
       id="g534"
       transform="translate(-21.900834,-45.792654)">
      <path
         style="fill:#ffff00"
         d="m 130.8111,440.19579 c -0.69613,-1.12635 0.85957,-29.95987 1.65964,-30.75993 0.75988,-0.75988 2.08738,13.35132 2.17032,23.07035 0.0568,6.65936 -0.20532,8.02986 -1.58869,8.30537 -0.91122,0.18148 -1.91979,-0.0956 -2.24127,-0.61579 z m -8.52948,-1.12019 c -1.08134,-0.6683 -0.83278,-2.77312 1.32072,-11.18402 5.69576,-22.24584 6.98066,-23.44569 4.05532,-3.78692 -2.32241,15.60707 -2.69009,16.63095 -5.37604,14.97094 z m 17.92751,-1.1025 c 0,-1.13174 -0.86301,-6.41924 -1.91779,-11.75 -1.05479,-5.33077 -2.13723,-11.4923 -2.40542,-13.6923 l -0.48763,-4 1.5244,3.5 c 2.16935,4.98082 7.39125,26.0214 6.72542,27.09874 -1.05224,1.70256 -3.43898,0.89996 -3.43898,-1.15644 z m 4.07364,-12.2064 c -5.65768,-15.63965 -5.60273,-15.45823 -4.31223,-14.2359 1.87408,1.77508 11.33401,23.80897 10.8092,25.17658 -1.07754,2.80804 -2.21822,0.88718 -6.49697,-10.94068 z m -31.82526,10.11248 c -0.90217,-0.90217 0.11855,-3.64589 4.37588,-11.7625 8.70491,-16.59598 9.1731,-16.27072 2.63712,1.832 -3.80346,10.53444 -4.88193,12.06157 -7.013,9.9305 z m 38.5426,-11.10295 c -2.58997,-5.08499 -6.26964,-11.83293 -8.17705,-14.99543 -1.90741,-3.1625 -3.31806,-5.75 -3.13478,-5.75 1.42969,0 19.67836,27.93613 18.9833,29.06075 -1.42844,2.31126 -3.28266,0.30141 -7.67147,-8.31532 z m -47.2817,5.26959 c -0.33481,-0.54173 2.22613,-4.29152 5.69099,-8.33285 3.46485,-4.04133 7.9997,-9.33559 10.07745,-11.76502 l 3.77772,-4.41715 -2.67891,4.5 c -6.27902,10.54739 -13.7146,21 -14.93859,21 -0.72595,0 -1.59384,-0.44324 -1.92866,-0.98498 z m 56.06994,-5.30324 c -10.5122,-12.8095 -16.41132,-20.68999 -14.84919,-19.8367 2.4261,1.32523 21.26997,20.78172 21.26997,21.96146 0,0.52222 -0.66698,1.20543 -1.48218,1.51825 -0.9432,0.36194 -2.73906,-0.96279 -4.9386,-3.64301 z m -61.972232,-1.29357 c -0.33385,-0.86998 -0.60699,-1.74368 -0.60699,-1.94155 0,-0.19787 2.812502,-2.50916 6.250002,-5.13621 3.4375,-2.62704 8.20106,-6.59084 10.58569,-8.80844 7.47483,-6.95129 7.93915,-6.208 0.95721,1.53234 -7.45716,8.26717 -15.166882,15.93565 -16.021372,15.93565 -0.30665,0 -0.8307,-0.7118 -1.16454,-1.58179 z m 69.297692,-3.69981 c -9.48218,-8.10507 -13.62191,-11.51184 -16.56368,-13.631 -1.84202,-1.32693 -3.18045,-2.58128 -2.97429,-2.78744 0.60796,-0.60796 5.63329,1.94388 5.63329,2.86056 0,0.46171 0.53113,0.83948 1.18028,0.83948 1.35093,0 13.23261,7.41251 16.49749,10.29212 2.16662,1.91096 2.14562,4.73656 -0.0348,4.67628 -0.62865,-0.0174 -2.3109,-1.02988 -3.73833,-2.25 z m -74.904682,-5.09303 c 0,-1.3563 25.825822,-15.13288 26.710302,-14.24841 0.41923,0.41923 -8.39092,6.50791 -13.31562,9.20241 -1.15792,0.63354 -3.84988,2.33736 -5.982132,3.78626 -4.23407,2.87713 -7.41255,3.4173 -7.41255,1.25974 z m 66.000002,-9.71047 c -8.525,-4.33836 -14.91515,-7.89399 -14.20034,-7.90141 0.71481,-0.007 2.55059,0.63339 4.07951,1.42402 1.52891,0.79064 7.91907,3.22293 14.20034,5.40509 15.3744,5.34119 14.92049,5.12019 14.92049,7.26439 0,1.17376 -0.66491,1.85555 -1.75,1.79441 -0.9625,-0.0542 -8.725,-3.64815 -17.25,-7.9865 z m -34,4.14412 c 0,-0.51754 0.44485,-1.21592 0.98855,-1.55194 0.56686,-0.35034 0.7345,0.0511 0.39301,0.94098 -0.66479,1.73242 -1.38156,2.04939 -1.38156,0.61096 z M 88.209128,406.0308 c 0,-1.1 0.20697,-2 0.45993,-2 0.9231,0 21.112182,-5.11443 23.540072,-5.96333 4.47767,-1.56558 8.5644,-2.23889 7.5,-1.23566 -1.40285,1.32223 -28.433422,11.19899 -30.649222,11.19899 -0.46793,0 -0.85078,-0.9 -0.85078,-2 z m 71.000002,-7.52888 c -9.075,-2.38178 -16.11438,-4.36214 -15.64306,-4.40081 1.2009,-0.0985 31.65146,3.85617 34.39306,4.46672 1.40749,0.31345 2.25,1.24284 2.25,2.48202 0,2.73395 -1.62734,2.53651 -21,-2.54793 z M 85.72726,398.2156 c -2.269742,-2.26974 1.041557,-2.91177 18.48187,-3.58343 l 13.5,-0.51991 -10.5,1.816 c -12.229972,2.1152 -20.747124,3.02208 -21.48187,2.28734 z m 73.9894,-4.9329 c -4.94586,-0.18526 -9.42336,-0.76773 -9.95,-1.29437 -0.61004,-0.61004 0.29448,-0.97601 2.49247,-1.00844 1.8975,-0.028 8.37511,-0.43026 14.39469,-0.89391 12.10241,-0.93216 13.55531,-0.71224 13.55531,2.05181 0,2.0581 1.56012,1.97094 -20.49247,1.14491 z m -60.257532,-2.57643 c -11.864103,-0.87836 -13.25,-1.17418 -13.25,-2.82822 0,-2.21268 -0.351666,-2.19572 9,-0.43408 4.125,0.77705 10.981722,1.7293 15.237152,2.11611 4.25543,0.38681 7.49137,1.10096 7.19098,1.587 -0.30039,0.48605 -1.53211,0.80642 -2.73715,0.71193 -1.20504,-0.0945 -8.15348,-0.61322 -15.440982,-1.15274 z m 11.250002,-5.09071 c -12.279292,-4.08324 -17.338032,-5.58476 -18.815452,-5.58476 -1.81571,0 -4.045079,-2.60763 -3.28324,-3.84032 0.31542,-0.51036 7.18835,1.72937 15.273192,4.97717 8.08483,3.2478 15.07001,5.78165 15.52263,5.63077 0.45262,-0.15087 -5.70657,-3.5977 -13.68709,-7.65963 -7.980522,-4.06192 -14.510042,-7.99791 -14.510042,-8.74665 0,-2.38614 2.74245,-1.487 10.335622,3.38866 4.06861,2.6125 10.176,6.45058 13.57198,8.52906 3.39599,2.07848 5.90448,4.21598 5.57444,4.75 -0.84482,1.36695 -2.05411,1.19198 -9.98204,-1.4443 z m 37.60653,1.97538 c 1.12142,-1.12142 28.12239,-9.53669 28.95267,-9.02355 0.51744,0.31979 0.9408,1.41 0.9408,2.42269 0,1.8067 -3.39244,3.01503 -12.5,4.45228 -1.65,0.26039 -5.7,0.9467 -9,1.52514 -6.44247,1.12927 -9.09643,1.3264 -8.39347,0.62344 z m -31.67962,-7.31014 c -3.19156,-2.6125 -7.40576,-6.2204 -9.36488,-8.01755 -1.95911,-1.79714 -5.01748,-4.27214 -6.79637,-5.5 -3.868012,-2.66983 -4.806222,-4.58779 -2.649142,-5.41554 1.10814,-0.42523 5.225042,3.03485 13.728042,11.53786 6.67988,6.67987 11.86173,12.14523 11.51522,12.14523 -0.34651,0 -3.2413,-2.1375 -6.43287,-4.75 z m 34.42382,1.20521 c 1.8429,-1.51681 7.38875,-5.19217 12.3241,-8.16747 7.19193,-4.33568 9.25645,-5.1747 10.39927,-4.22624 0.78425,0.65086 1.4244,1.69079 1.42257,2.31094 -0.002,0.62016 -5.51433,3.54654 -12.25,6.50306 -15.41593,6.7666 -15.97086,6.93359 -11.89594,3.57971 z m 3.14927,-9.38748 c 10.7299,-10.3419 13.76358,-12.28188 14.7189,-9.41243 0.39105,1.17458 -12.12716,11.35258 -21.2189,17.25213 -4.02723,2.61324 -2.76262,1.08798 6.5,-7.8397 z m -39.22047,-0.67638 c -4.55374,-5.83477 -9.09863,-11.67661 -10.09974,-12.98189 -1.00112,-1.30528 -1.53706,-2.83138 -1.19098,-3.39135 1.18684,-1.92036 3.14205,-1.01564 4.82335,2.23189 0.92542,1.7875 3.37127,5.82321 5.43521,8.96824 7.90452,12.04488 10.2186,15.78176 9.77292,15.78176 -0.25368,0 -4.18702,-4.77389 -8.74076,-10.60865 z m 28.04114,4.85865 c 2.17162,-3.1625 6.30777,-9.48444 9.19143,-14.04876 3.55336,-5.62431 5.7659,-8.19806 6.86547,-7.9863 2.46108,0.47396 1.97913,2.13504 -2.00901,6.92422 -10.11707,12.14916 -15.86624,19.43587 -15.86734,20.11084 -6.7e-4,0.4125 -0.47996,0.75 -1.06509,0.75 -0.58513,0 0.71291,-2.5875 2.88454,-5.75 z m -4.90415,0.62226 c 0.90191,-3.9964 7.92246,-24.60818 9.23807,-27.12226 0.50368,-0.9625 1.36407,-1.75 1.91198,-1.75 2.17066,0 1.95009,3.08945 -0.61812,8.65765 -1.48206,3.21329 -4.24216,9.44235 -6.13354,13.84235 -3.86579,8.99313 -5.53593,11.41279 -4.39839,6.37226 z m -19.43171,-11.66162 c -3.80998,-7.54085 -7.06529,-14.02556 -7.23403,-14.41047 -0.36148,-0.82457 3.71292,-3.1698 4.36832,-2.5144 0.72111,0.72111 10.48047,29.94799 10.12039,30.30807 -0.18009,0.1801 -3.4447,-5.84234 -7.25468,-13.3832 z m 12.15883,-2.61888 c -0.58261,-13.14131 -0.46996,-17.08106 0.50563,-17.68401 2.72599,-1.68476 3.13077,0.56131 2.43121,13.49068 -1.18574,21.91514 -2.09369,23.21154 -2.93684,4.19333 z m 3.38677,14.32502 c -0.0279,-2.37376 0.40297,-5.2067 2.95344,-19.41678 1.87687,-10.45702 2.20297,-11.5 3.59561,-11.5 2.00372,0 1.8132,2.05601 -1.57243,16.96902 -3.12085,13.74674 -4.91964,18.78814 -4.97662,13.94776 z m -6.82909,-4.1381 c -1.07334,-4.27344 -4.96938,-20.39828 -5.8927,-24.38857 -0.35451,-1.53211 0.0838,-2.25946 1.60059,-2.65612 1.14884,-0.30043 2.34449,-0.13251 2.65701,0.37315 0.70918,1.14749 3.64084,30.01913 3.1028,30.55717 -0.21617,0.21617 -0.87664,-1.53236 -1.4677,-3.88563 z m -13.17917,-47.52461 c -4.47173,-2.25534 -6.22339,-7.26923 -3.5656,-10.20605 6.28611,-6.94609 18.17701,0.75752 13.10878,8.49262 -0.88629,1.35265 -2.01426,2.45936 -2.5066,2.45936 -0.49233,0 -1.49446,0.22683 -2.22694,0.50407 -0.73249,0.27724 -2.89682,-0.28526 -4.80964,-1.25 z m 20.15216,-2.56852 c -3.08593,-3.28483 -2.87217,-7.99145 0.48282,-10.63049 2.99368,-2.35483 5.55086,-2.00774 9.09287,1.23419 2.80508,2.56743 2.86551,5.65854 0.17742,9.07589 -2.62953,3.34291 -6.78536,3.47943 -9.75311,0.32041 z m -40.174312,-0.39499 c -5.24421,-1.92826 -6.580025,-7.45758 -2.68555,-11.11625 3.0442,-2.85987 7.97509,-2.85328 10.646592,0.0143 5.17759,5.55749 -0.7101,13.76813 -7.961042,11.102 z m 58.732902,-3.04056 c -4.63269,-5.14065 -2.40667,-12.25 3.83561,-12.25 4.05118,0 8.43149,3.63662 8.43149,7 0,5.3633 -8.77905,9.12051 -12.2671,5.25 z m 18.11781,-7.45275 c -5.29972,-1.79394 -6.38912,-10.58461 -1.7399,-14.03969 2.59065,-1.92524 2.64242,-1.9241 6.70411,0.14802 3.24098,1.65342 4.22602,2.79574 4.73072,5.48603 0.35059,1.86879 0.15574,4.29785 -0.43299,5.39791 -1.43496,2.68125 -5.92189,4.13834 -9.26194,3.00773 z M 74.782594,309.69518 C 71.912518,306.8251 71.336388,302 73.635898,300.09158 c 0.784723,-0.65127 3.346652,-1.21061 5.693175,-1.243 4.942271,-0.0682 7.880055,2.60507 7.880055,7.17056 0,3.38318 -1.727067,4.93083 -6.337304,5.67897 -2.884065,0.46802 -3.978155,0.10814 -6.08923,-2.00293 z m 51.983236,-5.88689 c -2.48875,-3.55319 -2.02611,-9.2399 0.90812,-11.16248 3.37318,-2.2102 5.9634,-2.02626 8.94177,0.63499 3.61752,3.23235 4.16963,6.74774 1.57735,10.04328 -2.8203,3.58544 -9.06958,3.85024 -11.42724,0.48421 z m -17.2749,0.0162 c -3.04297,-1.46915 -4.811,-6.97345 -3.11319,-9.69208 3.18136,-5.09417 11.28511,-4.79075 13.70167,0.51302 1.66382,3.65169 1.40502,5.20097 -1.32483,7.93081 -2.60047,2.60048 -5.62008,3.00736 -9.26365,1.24825 z m 37.70724,-5.0437 c -2.31535,-3.79746 -2.36033,-4.17609 -0.83934,-7.06574 1.54988,-2.94453 2.79072,-3.65087 6.44531,-3.66895 4.00284,-0.0198 6.40499,2.69626 6.40499,7.242 0,4.52512 -2.16608,6.74269 -6.58613,6.74269 -2.81157,0 -3.8068,-0.59624 -5.42483,-3.25 z m 40.01096,2.47221 c -2.86391,-0.92252 -4.96436,-3.51533 -5.60222,-6.91541 -1.31605,-7.01514 6.54856,-10.86617 11.9562,-5.85454 3.33267,3.08862 3.50082,7.42969 0.39602,10.22442 -2.70011,2.43046 -4.73036,3.1961 -6.75,2.54553 z M 55.896219,297.22608 c -3.473638,-3.6257 -3.493195,-7.41604 -0.05223,-10.1227 3.699247,-2.90983 7.738732,-2.66085 10.824672,0.6672 3.082154,3.32397 3.218485,6.12855 0.467889,9.62536 -2.879892,3.66119 -7.63885,3.58928 -11.240329,-0.16986 z m 35.998979,-0.21185 c -4.254445,-1.27706 -5.68607,-2.90125 -5.68607,-6.45089 0,-3.61148 2.13983,-6.03728 6.22483,-7.05672 2.20544,-0.55038 3.30148,-0.10336 5.75,2.34517 3.666212,3.6662 3.830422,6.46467 0.57062,9.72446 -2.66715,2.66716 -2.72445,2.67917 -6.85938,1.43798 z m 71.768482,-7.43798 c -4.68976,-4.68975 -1.83182,-11.56136 4.79545,-11.53014 3.81,0.018 5.03781,0.70046 6.6003,3.66895 1.73337,3.29314 1.39211,6.01199 -1.03886,8.27678 -2.98133,2.77754 -7.33861,2.60269 -10.35689,-0.41559 z m -88.195756,-2.26236 c -4.840049,-0.90677 -7.117405,-9.2911 -3.430055,-12.6281 2.736225,-2.47625 7.820215,-2.09694 10.716714,0.79956 5.615245,5.61524 0.848792,13.35269 -7.286659,11.82854 z m 122.241206,-1.47804 c -2.70929,-1.53634 -3.46661,-2.82819 -3.48469,-5.94427 -0.0381,-6.56629 7.60347,-9.44645 12.60261,-4.75 6.1918,5.8169 -1.60094,14.95688 -9.11792,10.69427 z M 43.959106,283.95069 c -2.581979,-1.50387 -4.999838,-6.78823 -4.328966,-9.4612 0.321071,-1.27925 1.954296,-3.30181 3.629391,-4.49458 8.509359,-6.0592 17.426244,4.71309 10.02652,12.11281 -2.999889,2.99989 -6.241056,3.64033 -9.326945,1.84297 z m 86.752744,-0.91688 c -2.02014,-2.23224 -2.25983,-7.38583 -0.44519,-9.57233 0.65305,-0.78688 2.91473,-1.43068 5.02596,-1.43068 6.56937,0 9.9253,5.68704 6.35981,10.77749 -2.07174,2.95782 -8.35074,3.08725 -10.94058,0.22552 z m -20.65201,-0.13172 c -1.49051,-0.54619 -3.20337,-2.30848 -3.91607,-4.02908 -1.71515,-4.14074 0.53744,-7.98749 5.41775,-9.25191 8.73259,-2.2625 13.95445,10.36407 5.50441,13.30977 -3.61584,1.26049 -3.4863,1.26103 -7.00609,-0.0288 z m 41.22966,-5.62129 c -1.17766,-0.9625 -2.3946,-3.33405 -2.70432,-5.2701 -0.46736,-2.92148 -0.0989,-3.98434 2.16678,-6.25 3.38031,-3.38031 5.46628,-3.43456 9.26177,-0.24086 4.08025,3.4333 4.56769,6.91507 1.48155,10.58273 -2.86237,3.40174 -6.91304,3.86938 -10.20578,1.17823 z m 28.1203,-0.27768 c -4.25318,-3.96244 -4.01491,-10.33205 0.45,-12.0296 4.00768,-1.52372 6.85477,-1.09806 9.17502,1.37173 6.34158,6.75031 -2.87037,16.95079 -9.62502,10.65787 z M 90.490928,273.8245 c -2.966059,-1.43202 -4.799974,-6.95697 -3.2627,-9.82939 2.70223,-5.04916 11.43293,-5.72523 13.920102,-1.07792 4.10059,7.66203 -2.784342,14.70841 -10.657402,10.90731 z m -29.2818,-2.7546 c -3.41933,-0.81615 -6.327585,-6.55446 -4.787612,-9.44648 1.663974,-3.1249 3.930897,-4.52535 7.382624,-4.56082 3.847536,-0.0395 6.738321,2.94987 6.738321,6.9682 0,5.10689 -4.189802,8.26679 -9.333333,7.0391 z m 145.502722,-2.03609 c -2.2426,-2.47805 -2.19806,-7.57718 0.0882,-10.10352 2.41995,-2.67402 7.52732,-2.46694 10.23473,0.41496 2.84857,3.03217 2.75245,6.19832 -0.28024,9.231 -3.01124,3.01125 -7.54474,3.2178 -10.04273,0.45756 z m -72.57964,-3.92609 c -3.52532,-3.52531 -3.80639,-7.34482 -0.70057,-9.52022 3.1827,-2.22925 7.08641,-1.92123 9.60318,0.75775 2.98185,3.17404 2.7961,7.05129 -0.46055,9.61297 -3.51547,2.76527 -4.97315,2.61842 -8.44206,-0.8505 z m -14.58517,0.85238 c -1.14813,-0.42472 -2.59384,-2.22471 -3.21271,-3.99998 -1.49314,-4.28325 -1.45296,-4.60156 0.8748,-6.92932 4.26654,-4.26654 12,-1.14415 12,4.84501 0,4.53226 -5.12816,7.7615 -9.66209,6.08429 z m -88.074498,-4.69862 c -1.230122,-1.50187 -2.242622,-3.76363 -2.25,-5.02613 -0.01896,-3.24396 4.272424,-7.20455 7.806273,-7.20455 4.025986,0 8.184149,3.47451 8.165,6.82258 -0.01816,3.17506 -0.66211,4.23043 -3.957193,6.48538 -3.627633,2.48254 -7.168348,2.09189 -9.76408,-1.07728 z m 157.191138,-0.68523 c -4.88101,-4.881 -1.69472,-11.47734 5.54545,-11.48038 4.36798,-0.002 6.82295,1.79966 7.5747,5.55843 1.42271,7.11353 -7.77643,11.26568 -13.12015,5.92195 z M 74.864116,259.20206 c -2.284184,-2.524 -2.180659,-9.38556 0.173753,-11.51627 4.881253,-4.41748 14.015149,0.3496 12.763286,6.6613 -1.179083,5.94476 -9.219951,8.96231 -12.937039,4.85497 z m 92.345014,-0.17126 c -2.55355,-2.55355 -2.64547,-8.10588 -0.17126,-10.34501 2.38782,-2.16095 7.40802,-2.11334 10.01783,0.095 3.18944,2.6988 3.62783,6.37719 1.13737,9.54328 -2.65346,3.37335 -7.97493,3.71574 -10.98394,0.70673 z m -65.54545,-1.45455 c -1.35,-1.35 -2.454552,-3.62045 -2.454552,-5.04545 0,-3.25817 4.139852,-7.5 7.319692,-7.5 4.00057,0 7.68031,3.62812 7.68031,7.57258 0,6.93258 -7.58081,9.93752 -12.54545,4.97287 z m 47.86082,-0.55243 c -7.13881,-2.87629 -4.54886,-14.01838 3.24908,-13.97771 3.81843,0.0199 5.06814,0.88812 6.42845,4.46601 1.54507,4.06385 0.51252,7.20596 -2.95773,9.00049 -3.30878,1.71104 -3.67309,1.73876 -6.7198,0.51121 z m 64.44734,-6.51792 c -5.19271,-2.89421 -4.95843,-10.51402 0.38049,-12.37517 4.7118,-1.64255 6.69011,-1.35753 9.40225,1.35462 6.3617,6.36169 -1.74877,15.49837 -9.78274,11.02055 z M 48.896219,248.22608 c -5.329974,-5.56329 -2.628658,-12.19528 4.967336,-12.19528 4.972661,0 8.345573,3.15826 8.345573,7.81445 0,7.02671 -8.194537,9.72326 -13.312909,4.38083 z m 72.307331,-0.9295 c -1.57443,-2.00156 -1.9922,-3.54232 -1.55911,-5.75 1.68391,-8.58361 14.56469,-6.84449 14.56469,1.96647 0,6.51823 -8.83314,9.08793 -13.00558,3.78353 z m -32.955462,-1.45434 c -1.204612,-1.293 -2.03896,-3.54963 -2.03896,-5.5147 0,-2.67942 0.63191,-3.71142 3.25,-5.3077 4.2756,-2.60688 6.32573,-2.50421 9.29545,0.46551 3.030272,3.03026 3.234382,7.76562 0.45455,10.54545 -2.74991,2.74991 -8.3126,2.65422 -10.96104,-0.18856 z m 106.135352,-2.12589 c -1.40208,-1.49245 -2.17431,-3.59444 -2.17431,-5.91844 0,-3.03717 0.54808,-3.94272 3.48485,-5.75775 3.92809,-2.42769 6.03055,-2.11458 9.90366,1.47489 3.27125,3.0317 3.32644,6.45226 0.15924,9.86973 -3.19984,3.45269 -8.30157,3.60142 -11.37344,0.33157 z m -165.674312,0.10663 c -4.579804,-2.62651 -5.812733,-7.47298 -2.943296,-11.56967 1.10575,-1.57868 2.57322,-2.22251 5.065741,-2.22251 4.632947,0 6.841782,1.29232 8.323664,4.8699 1.022761,2.46916 0.953309,3.35397 -0.428833,5.46339 -1.217623,1.85833 -6.625949,5.02572 -7.916499,4.6363 -0.05543,-0.0167 -1.000777,-0.54656 -2.100777,-1.17741 z m 38.674314,-3.10663 c -3.31115,-3.52456 -2.960786,-8.78975 0.729978,-10.96994 4.047771,-2.39108 5.805464,-2.1597 9.172631,1.20747 3.45576,3.45576 3.671894,5.85524 0.850497,9.44206 -2.709206,3.4442 -7.679332,3.59229 -10.753106,0.32041 z m 37.748768,-0.60863 c -4.20177,-4.20177 -3.57751,-8.07018 1.76118,-10.91358 3.16893,-1.68778 4.88593,-1.44651 7.73321,1.08666 3.64236,3.24055 4.0712,7.35224 1.07891,10.34453 -3.25369,3.25368 -6.98466,3.07104 -10.5733,-0.51761 z m 32.33205,1.67308 c -2.88435,-3.64273 -3.32465,-5.71488 -1.82893,-8.60728 2.34567,-4.53603 9.98011,-4.9789 12.80849,-0.74302 1.39201,2.08473 0.7741,7.28237 -1.06343,8.94531 -2.14839,1.94427 -8.49217,2.20336 -9.91613,0.40499 z m 19.24487,-0.90473 c -4.98706,-2.72771 -5.99213,-8.09485 -2.18555,-11.67096 3.37687,-3.1724 8.14482,-2.86888 11.76247,0.74877 3.71721,3.7172 3.68038,5.56708 -0.18268,9.17571 -3.26348,3.04855 -6.06234,3.56889 -9.39424,1.74648 z m 18.72251,-1.40197 c -2.90349,-2.03368 -3.01678,-7.41452 -0.2096,-9.95498 2.85133,-2.58042 7.86684,-2.35504 10.14292,0.4558 5.37191,6.63402 -2.82824,14.47577 -9.93332,9.49918 z m 39.44435,-9.25892 c -0.90371,-0.99859 -1.92374,-3.21876 -2.26673,-4.93371 -0.84389,-4.21947 3.01569,-8.25067 7.89943,-8.25067 4.08133,0 6.28676,2.18224 7.20434,7.12858 0.55695,3.00234 0.28013,3.99471 -1.60395,5.75 -2.89394,2.69612 -8.92138,2.86021 -11.23309,0.3058 z m -131.214611,-1.8304 c -2.962477,-3.19657 -3.004719,-3.9356 -0.463211,-8.10398 1.700742,-2.78942 2.544994,-3.25 5.95731,-3.25 7.20279,0 10.6864,7.17803 5.7392,11.82569 -3.27411,3.07587 -8.134672,2.87176 -11.233299,-0.47171 z m 39.547751,1.90484 c -3.85616,-1.49948 -5.31828,-8.0737 -2.61717,-11.76769 1.76732,-2.41696 7.42318,-2.50348 10.98746,-0.16808 1.98723,1.30208 2.62971,2.5548 2.62971,5.12742 0,5.3736 -5.66797,8.88174 -11,6.80835 z m -76.547751,-2.90484 c -3.705808,-3.99864 -3.36698,-8.82566 0.797749,-11.36494 4.328297,-2.63901 7.326498,-2.50345 10.295455,0.46551 3.109779,3.10977 3.328735,8.67126 0.454545,11.54545 -2.972817,2.97282 -8.479421,2.66476 -11.547749,-0.64602 z m 94.310461,-1.9193 c -4.99159,-2.70841 -4.84886,-9.30453 0.2585,-11.94565 3.94005,-2.03748 5.25954,-1.88495 8.33277,0.96322 3.54913,3.28923 3.55382,7.68851 0.0112,10.47517 -3.08849,2.4294 -4.86669,2.53426 -8.60243,0.50726 z m -38.93085,-0.96376 c -4.761262,-2.58574 -4.661442,-9.88621 0.17054,-12.4722 4.19404,-2.24459 11.9976,2.12696 11.9976,6.72105 0,3.0402 -4.23092,7.29206 -7.20455,7.24019 -1.2625,-0.022 -3.49611,-0.69209 -4.96359,-1.48904 z m 93.19358,-1.44548 c -4.96017,-4.96017 -3.23755,-11.83364 3.3787,-13.48145 3.59759,-0.896 4.01922,-0.75378 6.7172,2.26578 3.72807,4.17244 3.81871,8.30562 0.2438,11.11765 -3.32396,2.61463 -7.78084,2.65688 -10.3397,0.098 z m -165.025442,0.26512 c -3.223092,-1.18511 -5,-3.68531 -5,-7.03525 0,-6.42784 7.034115,-9.37612 12.365141,-5.18273 6.475335,5.0935 0.44868,15.09108 -7.365141,12.21798 z m 36.789315,-0.65386 c -2.179814,-1.65611 -3.91069,-6.15683 -3.140081,-8.165 0.9127,-2.37846 5.99082,-4.60014 8.865466,-3.87865 3.000416,0.75305 5.4853,3.96511 5.4853,7.0905 0,4.87768 -7.151278,8.03728 -11.210685,4.95315 z m 90.547457,-1.11337 c -2.38793,-1.67257 -3.71624,-5.75238 -2.8063,-8.61934 0.82798,-2.60873 6.01716,-5.1752 8.76951,-4.33723 3.90565,1.18909 5.70002,3.54166 5.70002,7.47322 0,2.86099 -0.57425,4.10626 -2.46482,5.34501 -3.07012,2.01162 -6.45132,2.06247 -9.19841,0.13834 z m 18.16323,-0.71828 c -2.6881,-1.52432 -3.46648,-2.82715 -3.48469,-5.83254 -0.0423,-6.97869 8.53347,-9.72046 13.53244,-4.32649 2.9949,3.23156 3.08414,5.28094 0.37967,8.71912 -2.26229,2.87604 -6.79184,3.50152 -10.42742,1.43991 z m -87.427422,-9.43991 c -2.721766,-3.46016 -2.616666,-5.91196 0.38197,-8.91059 2.44037,-2.44038 7.70745,-3.31733 10.14575,-1.68924 2.381482,1.59016 3.345062,4.93841 2.384802,8.28665 -1.15975,4.04382 -2.421822,4.91299 -7.162522,4.93273 -2.79249,0.0116 -4.17616,-0.61874 -5.75,-2.61955 z m 25.564002,-0.61514 c -3.82034,-3.47311 -4.19843,-6.27906 -1.24414,-9.23335 3.50352,-3.50351 8.72825,-3.44997 11.53498,0.11821 2.72177,3.46016 2.61667,5.91196 -0.38197,8.91059 -3.05907,3.05908 -6.68658,3.13397 -9.90887,0.20455 z m 17.95231,-0.82673 c -3.12984,-3.71961 -3.20178,-4.87439 -0.51631,-8.28841 2.38501,-3.03205 6.29515,-3.46645 9.70491,-1.07816 3.26138,2.28436 3.11948,8.62556 -0.24231,10.82829 -3.63236,2.38002 -6.04543,1.98575 -8.94629,-1.46172 z m 81.48369,-1.55813 c -4.31111,-5.48069 -1.58967,-11.36514 5.25616,-11.36514 7.04716,0 10.07066,6.69151 5.21671,11.54545 -3.34023,3.34023 -7.76351,3.26408 -10.47287,-0.18031 z M 50.328662,207.15033 c -1.205812,-1.20581 -1.900897,-3.36083 -1.937413,-6.00668 -0.04967,-3.5991 0.326128,-4.32432 2.941698,-5.67688 3.755102,-1.94184 8.928452,-0.53133 11.294273,3.07937 2.185945,3.33617 1.986563,5.17091 -0.872637,8.03011 -3.045806,3.04581 -8.671538,3.32847 -11.425921,0.57408 z m 97.335018,-1.57408 c -5.30486,-5.30485 -1.38951,-14.07072 5.96028,-13.34413 3.36032,0.33219 7.65278,5.5298 7.0712,8.5623 -0.18315,0.95501 -0.36744,1.98903 -0.40952,2.29782 -0.0421,0.30879 -0.99404,1.54629 -2.11547,2.75 -2.77035,2.97362 -7.38368,2.85683 -10.50649,-0.26599 z m -75.164631,-0.0129 c -1.215543,-0.87451 -2.506501,-3.1701 -2.868794,-5.10129 -0.88217,-4.70236 1.526615,-7.43126 6.559547,-7.43126 6.27733,0 10.221642,6.60589 6.766046,11.3317 -1.80999,2.47531 -7.739009,3.15621 -10.456799,1.20087 z m 96.702841,-2.38596 c -3.60115,-3.60116 -3.92262,-7.7714 -0.85303,-11.06622 4.14678,-4.45104 12.86027,-0.79208 12.86027,5.40028 0,3.42141 -2.85499,6.79053 -6.75724,7.97408 -1.71781,0.52101 -2.97243,-0.0306 -5.25,-2.30814 z m -136.242784,0.7733 c -1.761737,-1.02612 -4.749978,-5.95282 -4.749978,-7.83127 0,-2.1602 4.462483,-5.08862 7.754303,-5.08862 4.516497,0 6.879334,1.40416 7.671065,4.55866 0.939352,3.74268 -0.145213,6.24511 -3.446577,7.95231 -3.34792,1.73127 -4.815893,1.81431 -7.228813,0.40892 z m 156.838914,-3.99662 c -3.44541,-4.09463 -3.30137,-7.14597 0.48784,-10.33438 3.71818,-3.12864 6.77251,-3.28192 10.28841,-0.51631 5.671,4.46081 1.99302,13.92742 -5.41111,13.92742 -1.87247,0 -3.61902,-1.00159 -5.36514,-3.07673 z m -89.58889,-0.92327 c -2.316372,-2.31637 -2.640322,-7.22369 -0.589232,-8.92595 0.775922,-0.64396 2.975272,-1.42471 4.887432,-1.73501 4.32098,-0.7012 7.7018,2.19783 7.7018,6.60426 0,5.49083 -7.89642,8.16028 -12,4.0567 z m 33.3997,-3.76531 c -1.96572,-1.31255 -3.58302,-5.36816 -3.0259,-7.58791 0.29913,-1.19181 1.80004,-2.90897 3.33537,-3.81591 7.46416,-4.40919 16.25092,4.40184 10.10227,10.13017 -2.1954,2.04533 -8.1628,2.7753 -10.41174,1.27365 z m -18.08714,-1.02035 c -1.67637,-1.06594 -3.46303,-6.16488 -2.8438,-8.11591 0.90268,-2.84409 6.73831,-5.3504 9.7721,-4.19696 4.72474,1.79635 6.39276,8.31015 2.9304,11.44354 -1.87697,1.69864 -7.74122,2.21574 -9.8587,0.86933 z M 85.209128,189.0308 c -2.182265,-2.18227 -2.591383,-6.02647 -0.964816,-9.06574 0.751337,-1.40389 2.102749,-1.93426 4.928576,-1.93426 4.8013,0 7.03624,2.06929 7.03624,6.51472 0,5.82811 -6.85999,8.62529 -11,4.48528 z m -26.676674,-1.25 c -3.036527,-3.37342 -3.473074,-5.55974 -1.768353,-8.85631 3.882112,-7.50717 14.445027,-5.17543 14.445027,3.18872 0,6.83688 -8.288528,10.54258 -12.676674,5.66759 z m 147.233376,0.0275 c -3.64649,-5.2061 -0.20546,-11.12741 6.15093,-10.58446 6.45637,0.5515 9.0672,6.88928 4.65543,11.30105 -2.37997,2.37997 -8.94224,1.94481 -10.80636,-0.71659 z m -52.23666,-2.23255 c -1.27968,-2.68352 -1.46161,-4.24022 -0.73649,-6.30207 2.11533,-6.0149 11.52662,-6.49798 14.31702,-0.73488 1.24828,2.57809 1.19391,3.27864 -0.5,6.44233 -1.71568,3.20435 -2.36172,3.57929 -6.64081,3.85407 -4.55986,0.29281 -4.80491,0.16878 -6.43972,-3.25945 z m 27.75669,-1.13383 c -3.62324,-3.04876 -4.20681,-8.07842 -1.24799,-10.75612 2.524,-2.28419 9.38556,-2.18066 11.51627,0.17375 2.46367,2.72232 2.12429,8.38175 -0.65946,10.99695 -3.05076,2.86604 -5.85376,2.7451 -9.60882,-0.41458 z m -139.576732,0.87305 c -3.321269,-0.80346 -6.5,-4.42604 -6.5,-7.40759 0,-2.01175 0.99196,-3.5314 3.607221,-5.52616 l 3.607221,-2.75136 3.575283,1.95047 c 6.259677,3.41492 6.557894,10.60416 0.553357,13.34001 -1.340453,0.61075 -2.528514,1.05826 -2.640135,0.99446 -0.111621,-0.0638 -1.102947,-0.33373 -2.202947,-0.59983 z m 62.500002,-4.99361 c -5.261092,-1.93447 -6.897592,-8.84803 -2.77749,-11.73386 3.24528,-2.27308 8.3098,-1.97508 10.73853,0.63186 2.89385,3.10618 2.54481,6.208 -1.03777,9.22255 -3.09516,2.60441 -4.16315,2.89433 -6.92327,1.87945 z m 33.58889,-3.36729 c -3.17067,-3.76812 -3.22515,-5.10455 -0.33889,-8.31258 5.07426,-5.63995 13.75,-2.59076 13.75,4.83261 0,6.82269 -8.69903,9.07996 -13.41111,3.47997 z m -17.79287,-1.67327 c -4.49439,-5.19511 -1.2457,-11.25 6.03608,-11.25 4.28325,0 5.6455,1.07041 6.69774,5.26288 1.14961,4.5804 -1.66471,7.73712 -6.89791,7.73712 -2.87273,0 -4.82961,-0.5868 -5.83591,-1.75 z m -45.403316,-0.40682 c -2.656157,-1.2875 -5.655623,-7.43944 -4.855832,-9.95936 0.332675,-1.04817 1.955817,-2.60436 3.606984,-3.45821 4.237823,-2.19147 8.30713,-1.05 10.834331,3.0391 2.6367,4.26627 1.526966,7.59316 -3.296262,9.88194 -3.958708,1.87853 -3.511044,1.84318 -6.289221,0.49653 z m 123.607296,-0.53716 c -4.46236,-1.59481 -5.64029,-10.04371 -1.77749,-12.74932 3.02935,-2.12183 6.0026,-1.95407 9.14263,0.51588 3.70306,2.91283 3.52847,6.99771 -0.44187,10.33853 -3.08857,2.59886 -4.14473,2.88793 -6.92327,1.89491 z m -30.96745,-4.7668 c -0.66679,-0.80343 -1.44792,-3.21717 -1.73586,-5.36386 -0.44076,-3.28615 -0.15429,-4.16169 1.81241,-5.53922 3.30583,-2.31549 6.58703,-2.03092 9.43635,0.81841 2.97301,2.973 3.15728,6.84272 0.45455,9.54545 -2.36834,2.36834 -8.18812,2.68318 -9.96745,0.53922 z M 48.601558,167.51414 c -3.564474,-3.56448 -3.011362,-8.23521 1.270147,-10.7257 8.073428,-4.6962 16.922268,5.49076 9.702564,11.16978 -3.595657,2.82834 -7.873413,2.65522 -10.972711,-0.44408 z m 40.90926,-3.98458 c -2.587961,-1.81268 -3.826181,-6.65022 -2.389372,-9.33492 1.314872,-2.45687 5.917842,-4.11013 9.524002,-3.42077 3.20517,0.61271 6.584712,5.4605 5.826892,8.35841 -1.28639,4.91918 -8.649862,7.41728 -12.961522,4.39728 z m 59.928552,-2.05004 c -3.46468,-2.42676 -4.34818,-4.81195 -3.1042,-8.38043 2.11071,-6.0548 10.02157,-7.54433 13.32133,-2.50828 4.86026,7.41771 -3.08445,15.88463 -10.21713,10.88871 z m -37.87581,-3.21483 c -3.10606,-0.50035 -5.52197,-3.61451 -5.69982,-7.3472 -0.12702,-2.66596 0.46549,-3.66844 3.32036,-5.6178 4.14942,-2.83332 7.44366,-2.4053 10.84812,1.40949 2.35339,2.63705 2.36856,6.18084 0.0385,8.98844 -1.33609,1.6099 -5.89992,2.98706 -8.50712,2.56707 z m 16.86122,-1.90142 c -3.36751,-2.79272 -3.92521,-7.5935 -1.17932,-10.15169 5.4006,-5.03143 12.96367,-3.14616 12.96367,3.23149 0,6.56219 -7.15184,10.76202 -11.78435,6.9202 z m 53.06203,0.41753 c -2.73497,-3.53461 -1.7183,-10.59597 1.57015,-10.90552 5.86901,-0.55247 10.15217,2.09126 10.15217,6.2663 0,4.55939 -9.02148,8.12973 -11.72232,4.63922 z M 67.709128,155.243 c -5.57124,-1.16627 -8.092248,-7.88843 -4.423116,-11.79404 3.120763,-3.3219 10.099369,-3.43231 12.366412,-0.19565 3.959271,5.65265 -1.177436,13.40605 -7.943296,11.98969 z m 97.750002,-10.32725 c -2.34011,-1.49864 -3.25,-2.83146 -3.25,-4.76064 0,-5.94946 5.99002,-9.67132 10.65052,-6.61764 5.07986,3.32845 4.9139,10.00387 -0.30784,12.38306 -3.17817,1.44807 -3.28658,1.43271 -7.09268,-1.00478 z M 85.775416,142.688 c -1.411458,-1.41146 -2.600718,-3.14924 -2.642799,-3.86174 -0.04208,-0.7125 -0.226415,-2.07718 -0.40963,-3.03261 -0.314974,-1.64252 4.604648,-6.76285 6.497771,-6.76285 1.98609,0 6.42034,2.20362 7.62507,3.78932 1.90038,2.50132 1.65708,7.63484 -0.45232,9.54382 -0.99859,0.90371 -3.21876,1.92374 -4.93371,2.26673 -2.50634,0.50126 -3.621588,0.12012 -5.684382,-1.94267 z m 57.888264,-6.11174 c -4.78643,-4.78643 -2.20506,-11.54546 4.40937,-11.54546 4.82268,0 8.13916,2.59944 8.12077,6.36501 -0.018,3.69466 -0.7181,4.93208 -3.66895,6.48529 -3.38982,1.78426 -6.18346,1.37289 -8.86119,-1.30484 z m -40.88201,-3.03384 c -1.2394,-2.61184 -1.39172,-3.98096 -0.60621,-5.44871 1.53209,-2.86272 5.08843,-5.06291 8.1836,-5.06291 2.93794,0 6.85007,3.99776 6.85007,7 0,0.95166 -0.93266,2.91597 -2.07258,4.36514 -1.66675,2.11893 -2.91721,2.63486 -6.38606,2.63486 -3.94393,0 -4.45529,-0.29886 -5.96882,-3.48838 z m 21.7337,1.84485 c -2.2182,-0.9024 -3.62733,-7.16708 -2.32132,-10.32006 2.05984,-4.9729 9.48566,-5.59634 12.82702,-1.0769 2.87111,3.88339 2.76092,6.1949 -0.4483,9.40413 -2.506,2.506 -6.73579,3.34411 -10.0574,1.99283 z m 75.39644,-1.74615 c -8.93903,-3.31255 -16.46205,-10.73494 -18.74873,-18.49792 -4.7251,-16.041096 0.8816,-29.660578 15.29928,-37.164169 5.79848,-3.017781 6.61656,-3.174399 13.95407,-2.671475 11.5328,0.790476 19.887,6.344442 25.00246,16.621926 1.8765,3.770075 2.29024,6.2272 2.29024,13.601318 0,8.04026 -0.30611,9.55234 -2.87058,14.17953 -4.92031,8.87799 -13.05437,13.66268 -25.12942,14.78186 -3.96453,0.36745 -7.28822,0.0787 -9.79732,-0.85107 z"
         id="path538"
         inkscape:connector-curvature="0" />
      <path
         style="fill:#ff00ff"
         d="m 89.83325,394.3355 c -0.67657,-1.09471 0.84815,-29.94844 1.62354,-30.72383 0.71011,-0.71012 3.04944,24.33421 2.62011,28.05029 -0.34081,2.94983 -3.02698,4.64215 -4.24365,2.67354 z m -8.50304,-1.10385 c -1.3299,-0.82192 -1.00521,-2.49067 4.38162,-22.51932 2.95324,-10.98041 3.30984,-8.20566 0.96798,7.53204 -2.31801,15.57747 -2.69333,16.62895 -5.3496,14.98728 z m 17.90107,-1.15406 c 0,-1.1511 -0.854,-6.4386 -1.89778,-11.75 -1.04377,-5.31139 -2.12621,-11.45708 -2.40542,-13.65708 l -0.50764,-4 1.5244,3.5 c 0.83841,1.925 2.82914,8.64332 4.42383,14.9296 2.27359,8.96247 2.62565,11.60338 1.63103,12.23469 -2.04667,1.29905 -2.76842,0.97128 -2.76842,-1.25721 z m 6.76996,-4.65708 c -0.88649,-2.6125 -2.78044,-8.07944 -4.20879,-12.14875 -2.74879,-7.83118 -2.7172,-11.11264 0.0434,-4.50479 0.89693,2.14695 3.17225,7.24092 5.05626,11.31995 3.16207,6.84611 3.6634,10.08359 1.56147,10.08359 -0.46228,0 -1.56582,-2.1375 -2.4523,-4.75 z m -34.52158,2.59838 c -0.90217,-0.90217 0.11855,-3.64589 4.37588,-11.7625 8.70491,-16.59598 9.1731,-16.27072 2.63712,1.832 -3.80346,10.53444 -4.88193,12.06157 -7.013,9.9305 z m 42.41463,-4.09838 c -3.71148,-6.03776 -12.51774,-23.93572 -10.70157,-21.75 4.51434,5.43288 15.04377,22.18255 14.49892,23.06413 -0.95485,1.545 -2.33299,1.06807 -3.79735,-1.31413 z m -51.088052,-1.62872 c -0.45151,-0.73055 13.129692,-18.0403 18.140912,-23.12128 1.50129,-1.52219 -5.06473,9.17034 -11.51392,18.75 -3.351332,4.97809 -5.411932,6.33729 -6.626992,4.37128 z m 56.004262,-5.4095 c -10.43905,-12.72035 -16.41231,-20.6867 -14.84919,-19.80389 2.52975,1.42874 21.26997,20.72136 21.26997,21.89694 0,0.53966 -0.66698,1.23714 -1.48218,1.54996 -0.9432,0.36194 -2.73906,-0.96279 -4.9386,-3.64301 z m -61.972232,-1.29357 c -0.33385,-0.86998 -0.60699,-1.73779 -0.60699,-1.92847 0,-0.19067 2.78691,-2.46614 6.19312,-5.05659 3.40622,-2.59045 7.896652,-6.28606 9.978732,-8.21247 6.63443,-6.13842 8.49903,-6.78037 3.36061,-1.15702 -6.75737,7.39507 -17.237832,17.93634 -17.832882,17.93634 -0.26708,0 -0.75875,-0.7118 -1.09259,-1.58179 z m 62.480892,-9.5011 c -5.17667,-4.41115 -10.27771,-8.48352 -11.33565,-9.04971 -1.05794,-0.56619 -1.71813,-1.23483 -1.4671,-1.48586 0.66573,-0.66574 5.71487,1.78951 5.71487,2.77898 0,0.46171 0.56851,0.83948 1.26335,0.83948 1.23482,0 8.95111,4.82991 15.53577,9.72441 2.64883,1.96893 3.06819,2.73055 2.12755,3.86394 -0.64436,0.77641 -1.45396,1.39756 -1.79911,1.38034 -0.34516,-0.0172 -4.86301,-3.64043 -10.03968,-8.05158 z m -68.087882,0.72552 c 0,-1.33077 25.855952,-15.12002 26.723852,-14.25211 0.40862,0.40861 -8.47608,6.53354 -13.329172,9.18885 -1.15792,0.63354 -3.84988,2.33736 -5.98213,3.78626 -4.22179,2.86878 -7.41255,3.41847 -7.41255,1.277 z m 66.000002,-9.75604 c -8.525,-4.32837 -15.10579,-7.87355 -14.62398,-7.87818 0.4818,-0.005 4.7568,1.50431 9.5,3.35319 4.74319,1.84888 12.11148,4.59453 16.37398,6.10145 5.9832,2.11524 7.75,3.17268 7.75,4.6384 0,1.18788 -0.65506,1.85295 -1.75,1.77673 -0.9625,-0.067 -8.725,-3.66321 -17.25,-7.99159 z m -69.322332,2.45774 c -1.684641,-1.68463 -0.33956,-3.26259 3.57233,-4.19082 11.55038,-2.74072 17.475622,-4.2673 19.750002,-5.0884 1.375,-0.4964 3.85,-1.19596 5.5,-1.55459 6.20701,-1.34908 0.74583,1.39632 -11.500002,5.78119 -15.87096,5.68293 -16.50661,5.86834 -17.32233,5.05262 z m 51.194772,-2.09433 c -1.24387,-1.58606 -1.2085,-1.62143 0.37756,-0.37756 0.9625,0.75485 1.75,1.54235 1.75,1.75 0,0.82304 -0.82119,0.29331 -2.12756,-1.37244 z m 21.62756,-6.25 c -7.7,-2.11285 -12.875,-3.86361 -11.5,-3.89059 3.96757,-0.0779 28.8457,3.40295 29.58163,4.13889 1.16755,1.16754 -0.45288,3.75463 -2.30025,3.67247 -0.97976,-0.0436 -8.08138,-1.80792 -15.78138,-3.92077 z m -76.038852,-1.06286 c -1.141019,-1.84621 0.16344,-2.17624 11.75212,-2.97335 17.491052,-1.2031 15.614042,1.02844 -2.21327,2.63131 -2.475,0.22253 -5.48492,0.63132 -6.68871,0.90842 -1.203798,0.2771 -2.486359,0.0222 -2.85014,-0.56638 z m 26.788852,-3.62647 c 0.9625,-0.25152 2.5375,-0.25152 3.5,0 0.9625,0.25153 0.175,0.45733 -1.75,0.45733 -1.925,0 -2.7125,-0.2058 -1.75,-0.45733 z m 47,-1.05574 c -9.23889,-0.32959 -13.04052,-2.1411 -5,-2.38255 2.3375,-0.0702 5.375,-0.25414 6.75,-0.40876 2.51512,-0.28283 15.42086,-0.67312 17.75,-0.53679 0.6875,0.0402 1.25,0.97317 1.25,2.07317 0,1.79218 -0.59749,1.97843 -5.75,1.79246 -3.1625,-0.11415 -9.9125,-0.35604 -15,-0.53753 z m -58.500002,-2.61135 c -13.438927,-0.81361 -14.75,-1.05968 -14.75,-2.76828 0,-2.17696 0.309342,-2.21611 6.70078,-0.84803 2.63957,0.56499 9.52422,1.58556 15.299222,2.26792 14.44458,1.70675 10.5705,2.42727 -7.250002,1.34839 z m 8.250002,-5.57324 c -4.675002,-1.56193 -10.525002,-3.38524 -13.000002,-4.0518 -5.59252,-1.50617 -7.27249,-2.33601 -7.77381,-3.83998 -0.68735,-2.06204 2.00573,-1.31815 17.31491,4.78275 15.890902,6.33273 17.537392,7.81268 3.458902,3.10903 z m 39,2.69276 c 1.21278,-1.1962 28.17094,-9.77549 29.03632,-9.24065 0.53002,0.32757 0.96368,1.43712 0.96368,2.46567 0,1.48577 -1.18167,2.09021 -5.75,2.94122 -3.1625,0.58912 -7.775,1.50459 -10.25,2.03437 -6.13879,1.31402 -14.61205,2.40307 -14,1.79939 z m -43.250002,-8.96572 c -7.5625,-3.90445 -13.75,-7.70613 -13.75,-8.44819 0,-2.3447 2.81611,-1.48297 9.76199,2.9872 3.7059,2.38501 9.325512,5.98961 12.488012,8.01021 3.1625,2.02061 5.75,3.89423 5.75,4.16361 0,0.6842 0.88235,1.09986 -14.250002,-6.71283 z m 4.283652,-4.91947 c -8.526122,-7.18971 -12.846312,-11.46525 -12.218912,-12.09265 0.62739,-0.62739 1.62724,-0.60783 2.8279,0.0553 2.12169,1.1719 24.149532,23.15944 23.201862,23.15944 -0.34176,0 -6.55665,-5.00494 -13.81085,-11.12209 z m 40.96635,8.08263 c 1.375,-1.09724 6.93474,-4.70313 12.35498,-8.01309 7.79566,-4.76054 10.14648,-5.77616 11.25,-4.86033 2.06958,1.71761 1.69308,3.68636 -0.85498,4.4707 -1.2375,0.38093 -7.07505,2.88625 -12.97233,5.56739 -11.71313,5.32525 -13.57416,5.86491 -9.77767,2.83533 z m -10,-0.47937 c 0,-0.53012 1.51888,-3.21775 3.37528,-5.97251 1.85641,-2.75476 5.72474,-8.72116 8.59629,-13.25866 4.89192,-7.72998 7.07715,-9.59821 8.51175,-7.27698 0.33075,0.53515 -3.37323,5.82265 -8.23107,11.75 -4.85783,5.92734 -9.60189,11.88961 -10.54234,13.24949 -0.94045,1.35987 -1.70991,2.03877 -1.70991,1.50866 z M 71.83066,322.56972 c -7.488892,-9.63135 -9.518372,-12.87161 -8.612062,-13.75 1.38831,-1.34554 1.66557,-1.0196 9.655512,11.35079 7.7202,11.95278 9.57643,15 9.13732,15 -0.21063,0 -4.79197,-5.67036 -10.18077,-12.60079 z m 42.40062,2.71515 c 5.775,-5.5757 11.13771,-10.0199 11.91713,-9.876 3.37872,0.6238 1.62109,3.05542 -7.05558,9.7612 -14.66345,11.33266 -16.52594,11.37664 -4.86155,0.1148 z m -16.55745,4.28436 c 2.158,-7.88924 8.32378,-25.56505 9.23593,-26.4772 0.46103,-0.46103 1.47247,-0.44626 2.24763,0.0328 1.14482,0.70753 0.23646,3.56248 -4.83885,15.20835 -6.79179,15.5845 -8.73129,18.86415 -6.64471,11.23603 z m -7.3594,-3.89872 c -0.0808,-4.4 -0.41625,-12.1625 -0.74553,-17.25 -0.59158,-9.14 -0.57155,-9.25 1.68397,-9.25 h 2.28266 l -0.71632,13.25 c -0.39398,7.2875 -1.08568,15.05 -1.53713,17.25 -0.71442,3.48159 -0.83983,2.96317 -0.96765,-4 z m 2.96286,5.5 c -0.008,-1.375 1.1001,-8.8 2.46276,-16.5 1.36266,-7.7 2.48064,-14.1125 2.4844,-14.25 0.004,-0.1375 0.68183,-0.25 1.50683,-0.25 2.12816,0 1.91019,2.32685 -1.61901,17.28255 -3.26593,13.83999 -4.80833,18.216 -4.83498,13.71745 z m -10.69101,-2.25 c -6.63282,-12.70758 -12.09,-24.36824 -11.69998,-25 0.87641,-1.41963 4.13214,-0.74721 4.84177,1 3.15578,7.76994 9.54025,27.25 8.93102,27.25 -0.20705,0 -1.13981,-1.4625 -2.07281,-3.25 z m 3.84798,-1.97132 c -5.37571,-21.43614 -6.01884,-25.26262 -4.4534,-26.49665 3.04168,-2.39774 3.10689,-2.1613 5.26201,19.07787 1.18564,11.68475 0.90558,14.25425 -0.80861,7.41878 z"
         id="path536"
         inkscape:connector-curvature="0"
         sodipodi:nodetypes="sccscsscsccccccscsccsccscsscccccsscssscscscccscsscsscccssccssscssssscsccscccscscccscssccccscscscscssscsssccssccscscssscsssscsscsccscscccscscssscscsscscscccsscscccscsscsccssssss" />
    </g>
  </g>
</svg>
