<?xml version="1.0" encoding="UTF-8" standalone="no"?>
<!-- Created with Inkscape (http://www.inkscape.org/) -->

<svg
   xmlns:dc="http://purl.org/dc/elements/1.1/"
   xmlns:cc="http://creativecommons.org/ns#"
   xmlns:rdf="http://www.w3.org/1999/02/22-rdf-syntax-ns#"
   xmlns:svg="http://www.w3.org/2000/svg"
   xmlns="http://www.w3.org/2000/svg"
   xmlns:sodipodi="http://sodipodi.sourceforge.net/DTD/sodipodi-0.dtd"
   xmlns:inkscape="http://www.inkscape.org/namespaces/inkscape"
   version="1.1"
   id="svg2949"
   width="283"
   height="443"
   viewBox="0 0 283 443"
   sodipodi:docname="feu112.svg"
   inkscape:version="0.92.4 (5da689c313, 2019-01-14)">
  <metadata
     id="metadata2955">
    <rdf:RDF>
      <cc:Work
         rdf:about="">
        <dc:format>image/svg+xml</dc:format>
        <dc:type
           rdf:resource="http://purl.org/dc/dcmitype/StillImage" />
        <dc:title></dc:title>
      </cc:Work>
    </rdf:RDF>
  </metadata>
  <defs
     id="defs2953" />
  <sodipodi:namedview
     pagecolor="#ffffff"
     bordercolor="#666666"
     borderopacity="1"
     objecttolerance="10"
     gridtolerance="10"
     guidetolerance="10"
     inkscape:pageopacity="0"
     inkscape:pageshadow="2"
     inkscape:window-width="1280"
     inkscape:window-height="972"
     id="namedview2951"
     showgrid="false"
     inkscape:zoom="1.5067919"
     inkscape:cx="147.84438"
     inkscape:cy="221.34636"
     inkscape:window-x="-8"
     inkscape:window-y="-8"
     inkscape:window-maximized="1"
     inkscape:current-layer="g534"
     showguides="true" />
  <g
     id="g151"
     transform="translate(25.882805,-2.654647)">
    <g
       id="g534"
       transform="translate(-21.900834,-45.792654)">
      <g
         id="g618"
         transform="translate(-5.9729549,5.3092928)">
        <path
           style="fill:#ff00ff"
           d="m 241.9694,454.01915 c -0.33385,-0.86997 -0.61388,-3.90748 -0.6223,-6.75 -0.011,-3.70562 -0.28965,-4.7437 -0.98469,-3.6682 -0.53316,0.825 -0.97627,2.9074 -0.98469,4.62756 -0.0183,3.74231 -2.46863,6.31912 -4.28331,4.50444 -0.91099,-0.911 -0.78619,-2.30116 0.54238,-6.04183 2.47784,-6.97654 2.1546,-7.21281 -1.52438,-1.11427 -3.44721,5.71435 -5.75,7.43587 -5.75,4.2986 0,-1.59957 1.82129,-5.0723 7.48633,-14.2745 0.50789,-0.825 -1.73359,0.8625 -4.98107,3.75 -5.49119,4.88251 -9.59298,6.53511 -10.91421,4.39732 -0.92325,-1.49385 1.70663,-3.90624 9.36297,-8.58865 6.69845,-4.09659 9.1271,-6.278 3.83819,-3.44746 -3.69506,1.97753 -15.1985,4.89461 -17.02088,4.31621 -2.78726,-0.88464 -2.07385,-3.12631 1.37789,-4.32959 1.73208,-0.60381 3.80157,-1.09783 4.59887,-1.09783 0.79731,0 2.86766,-0.63467 4.60078,-1.41037 1.73312,-0.7757 3.82613,-1.64017 4.65113,-1.92105 0.825,-0.28088 -1.10195,-0.54621 -4.28212,-0.58963 -6.62972,-0.0905 -12.71788,-2.25808 -12.71788,-4.52792 0,-1.98424 0.74352,-1.95654 11.98946,0.44672 9.90533,2.11677 12.18803,2.10764 6.7926,-0.0272 -7.50163,-2.96812 -13.78206,-7.39029 -13.78206,-9.70418 0,-3.45554 1.9982,-2.77875 9.88207,3.34703 3.97345,3.08738 7.43129,5.40657 7.6841,5.15376 0.25281,-0.25282 -0.95649,-2.21635 -2.68733,-4.36341 -4.26198,-5.28686 -7.37164,-12.31095 -6.03984,-13.64275 1.9742,-1.9742 4.00531,0.16789 7.75524,8.17897 2.47408,5.28545 4.05483,7.63967 4.5772,6.81688 1.15849,-1.82477 1.00618,-7.17923 -0.23966,-8.42507 -1.62457,-1.62458 -0.75284,-8.83178 1.06822,-8.83178 1.17647,0 1.60784,1.83333 2,8.5 l 0.5,8.5 1.2591,-6.04049 c 1.36848,-6.56522 3.52705,-10.45951 5.7976,-10.45951 1.88974,0 1.85144,3.59176 -0.0972,9.11476 -1.62888,4.61673 -1.40994,4.52005 2.79811,-1.23569 2.88863,-3.95106 6.53118,-5.59303 7.39777,-3.33473 0.52958,1.38006 -4.87063,8.77276 -9.65539,13.21789 -1.80416,1.67611 -1.01799,1.40617 2.82457,-0.96984 8.31803,-5.14337 9.55011,-5.7619 11.50876,-5.77765 3.15234,-0.0254 1.27232,2.34774 -4.66247,5.88531 -3.13725,1.87003 -5.54792,3.55622 -5.35705,3.74709 0.19086,0.19087 2.41995,-0.35929 4.95353,-1.22256 4.85573,-1.65452 10.35166,-1.61331 10.05988,0.0754 -0.24518,1.41901 -1.94042,2.10846 -9.32722,3.79336 l -6.5,1.48262 6.62756,0.11201 c 4.5373,0.0767 7.01708,0.58136 7.86262,1.60018 1.92965,2.32508 -0.98678,2.89187 -8.31432,1.61584 -8.25304,-1.43721 -11.1347,-1.3892 -7.67586,0.12787 9.06264,3.97493 14.94025,7.17004 15.40165,8.37243 0.95072,2.47753 -3.12005,1.55573 -11.67385,-2.64349 -4.82941,-2.37084 -6.98869,-3.1156 -5.2278,-1.80314 4.68021,3.48837 12.5,11.43294 12.5,12.69946 0,2.62403 -3.56232,0.76912 -9.53216,-4.96342 l -6.35906,-6.10628 4.11553,7.94228 c 2.44744,4.72315 3.85934,8.6099 3.48347,9.58942 -1.14731,2.98983 -3.62858,0.62005 -7.45295,-7.11804 -3.89947,-7.89003 -4.95727,-7.74849 -3.54242,0.47402 0.45662,2.65368 0.67683,5.83738 0.48935,7.07488 -0.39158,2.58478 -2.69501,3.01296 -3.59477,0.66821 z M 94.818048,435.28021 c -0.320357,-1.27641 0.12107,-5.35433 0.980948,-9.06205 2.030422,-8.75502 1.935273,-9.15422 -0.726744,-3.04922 -2.998945,6.87771 -5.463264,10.43201 -7.232893,10.43201 -2.672812,0 -1.547429,-3.68424 3.020985,-9.88999 2.473863,-3.36051 4.126467,-6.11001 3.672454,-6.11001 -0.454013,0 -3.418927,2.7 -6.588697,6 -3.16977,3.3 -6.397374,6 -7.172454,6 -2.899173,0 -1.220892,-2.96704 4.840765,-8.55802 3.4375,-3.17058 5.781406,-5.49856 5.208679,-5.17329 -3.991402,2.26684 -14.369884,5.40422 -15.521928,4.69222 -2.635326,-1.62872 1.818274,-4.60165 9.838427,-6.56747 l 7.724822,-1.89344 -9.816197,-0.28701 c -8.65019,-0.25293 -9.775167,-0.4905 -9.470787,-2 0.296997,-1.4729 1.462594,-1.67566 8.316197,-1.44667 l 7.970787,0.26633 -5.970663,-2.537 c -7.033623,-2.98865 -8.358783,-4.06621 -6.852679,-5.57231 0.768877,-0.76889 2.827118,-0.19304 7.2,2.0144 3.367838,1.70007 6.123342,2.8184 6.123342,2.48517 0,-0.33324 -2.025,-2.41829 -4.5,-4.63347 -4.465063,-3.99633 -5.755535,-6.78944 -3.136842,-6.78944 0.749737,0 3.495302,2.27943 6.101257,5.0654 2.605954,2.78598 4.922802,4.88072 5.148551,4.65497 0.225749,-0.22575 -1.105366,-3.37041 -2.958034,-6.98814 -3.347208,-6.53612 -3.476749,-9.36856 -0.374017,-8.17793 1.507962,0.57866 2.437738,2.53542 6.151284,12.9457 l 1.426877,4 0.07046,-8.75 c 0.06637,-8.24124 0.194395,-8.75 2.201972,-8.75 2.03262,0 2.10959,0.35953 1.65912,7.75 l -0.47238,7.75 2.59087,-5.62248 c 3.85476,-8.36525 6.41099,-10.81287 7.7227,-7.39461 0.31297,0.81561 -1.28312,4.41561 -3.54687,8 -3.98733,6.31349 -4.28401,8.60449 -0.58495,4.51709 0.99549,-1.10001 2.23469,-2 2.75378,-2 0.51909,0 2.20489,-1.35001 3.74622,-3 2.74666,-2.94031 6.31093,-3.92395 7.46316,-2.05962 0.79717,1.28985 -2.92339,4.59269 -9.27249,8.23145 -2.92013,1.67356 -5.15948,3.19269 -4.97633,3.37583 0.18315,0.18316 2.9797,-0.54014 6.21456,-1.60732 6.29715,-2.07745 11.5711,-2.53294 11.5711,-0.99937 0,1.51252 -2.0651,2.45829 -8.9927,4.1185 l -6.5073,1.55947 7.22701,0.74881 c 3.97485,0.41185 7.51314,1.21179 7.86286,1.77766 1.37587,2.22619 -1.38494,2.86463 -8.90385,2.05903 -4.22731,-0.45291 -7.68602,-0.69335 -7.68602,-0.5343 0,0.15907 1.9125,1.24975 4.25,2.42375 6.83072,3.4307 11.17682,7.02428 9.64224,7.9727 -0.82756,0.51146 -4.38315,-0.86475 -9.646,-3.73354 l -8.33532,-4.54358 4.85115,5.05965 c 7.00865,7.30988 9.36436,12.56457 4.85744,10.8351 -1.60951,-0.61761 -9.61951,-11.04204 -9.61951,-12.51908 0,-0.50614 -0.73991,-1.53432 -1.64425,-2.28485 -1.47193,-1.22161 -1.56421,-1.10344 -0.88061,1.12754 0.42,1.3707 1.8349,4.78558 3.14424,7.58865 2.44247,5.2289 3.14064,10.40351 1.40367,10.40351 -1.67428,0 -4.1784,-4.73938 -4.74803,-8.98628 -0.84782,-6.32096 -2.275018,-5.79057 -2.275018,0.84548 0,3.28747 -0.273145,6.68904 -0.606989,7.55901 -0.904065,2.35596 -3.272148,1.91154 -3.937375,-0.73894 z m 81.874432,-19.00392 c -1.00654,-1.28904 -2.9026,-5.68082 -4.21346,-9.75952 -3.34643,-10.41227 -3.96333,-11.91582 -4.88905,-11.91582 -0.44843,0 -2.02438,3.71249 -3.50211,8.25 -3.09193,9.49403 -5.14034,12.91176 -7.25282,12.10113 -2.156,-0.82734 -1.92132,-1.62975 3.02737,-10.35113 2.475,-4.36184 4.5,-8.17849 4.5,-8.48145 0,-0.30295 -3.42363,2.87282 -7.60806,7.05726 -4.99259,4.99257 -7.94654,7.26958 -8.59265,6.62347 -1.48421,-1.48421 0.46339,-4.39921 6.42165,-9.61135 2.88459,-2.52337 4.97093,-4.58794 4.63631,-4.58794 -0.33461,0 -3.15221,1.125 -6.26133,2.5 -5.67157,2.50824 -10.59592,3.26226 -10.59592,1.62244 0,-1.59694 2.48717,-2.98266 10.03586,-5.59145 l 7.46414,-2.57956 -8.54334,0.46102 c -8.88864,0.47967 -12.82654,-0.48194 -9.95666,-2.43133 0.825,-0.56038 4.54043,-0.93831 8.25652,-0.83984 3.71608,0.0985 6.97312,-0.0376 7.23786,-0.30232 0.26475,-0.26475 -2.10068,-1.28731 -5.25651,-2.27238 -5.91914,-1.84758 -8.23787,-3.16741 -8.23787,-4.68901 0,-1.6982 4.24471,-0.84599 10.72426,2.1531 3.60127,1.66686 6.74205,2.83636 6.97952,2.59889 0.23748,-0.23747 -2.54338,-2.5548 -6.17969,-5.14961 -3.6363,-2.59481 -6.44201,-5.22681 -6.23491,-5.84889 0.93784,-2.817 4.03279,-1.39439 9.89914,4.55018 3.4296,3.47532 5.44274,5.06276 4.47365,3.52763 -3.24229,-5.13607 -6.66197,-11.99281 -6.66197,-13.3578 0,-0.74308 0.60526,-1.35106 1.34501,-1.35106 1.73398,0 4.65499,3.22386 4.65499,5.13761 0,0.81407 0.66069,2.35363 1.4682,3.42126 1.34314,1.77578 1.4709,1.4192 1.5,-4.18643 0.0351,-6.75925 1.73498,-9.63994 4.04561,-6.8558 0.9201,1.10865 1.13223,3.98932 0.75572,10.26233 -0.42943,7.1547 -0.32104,8.19098 0.60351,5.7698 2.80166,-7.33688 7.27037,-15.07527 8.87696,-15.37209 2.72917,-0.50424 2.18972,3.73839 -1.14367,8.99461 -5.51397,8.69463 -5.30124,9.00609 1.97723,2.89482 7.58289,-6.36687 9.91644,-7.33933 9.91644,-4.13246 0,1.17292 -2.3605,3.78816 -6,6.64752 -3.3,2.59262 -6,4.84096 -6,4.99629 0,0.15534 2.69106,-0.81105 5.98013,-2.14752 6.89961,-2.80357 12.01987,-3.19971 12.01987,-0.92994 0,0.825 -0.1125,1.5129 -0.25,1.52868 -0.1375,0.0158 -4.075,1.32825 -8.75,2.9166 l -8.5,2.88791 8.5,0.0987 c 9.04906,0.10509 12.35329,1.1148 10.31578,3.15231 -0.78508,0.78508 -4.10318,1.02715 -10.1298,0.73902 l -8.96228,-0.4285 8.13815,4.05263 c 8.20673,4.08678 10.29836,6.74667 5.80568,7.38299 -1.28285,0.18169 -3.1361,-0.39693 -4.11833,-1.28584 -1.79935,-1.62837 -12.91368,-8.5445 -13.73117,-8.5445 -0.24182,0 1.7252,1.83378 4.37115,4.07506 6.18863,5.24217 9.29962,8.97799 9.30585,11.17494 0.007,2.63126 -3.61171,2.15375 -5.69835,-0.75185 -0.98817,-1.37602 -3.07313,-3.96352 -4.63324,-5.75 -1.56011,-1.78648 -3.50579,-4.52747 -4.32374,-6.09108 -0.81794,-1.56361 -1.71148,-2.61863 -1.98562,-2.34448 -0.27415,0.27415 0.69691,2.39203 2.15791,4.70641 3.33848,5.28849 6.48801,12.57244 6.48801,15.00489 0,2.91801 -1.66879,3.21424 -3.66993,0.65145 z m -10.96956,-0.17824 c -0.85812,-2.23625 0.45805,-15.71567 1.65101,-16.90862 1.65912,-1.65912 2.05701,-0.0854 2.27561,9.00025 0.186,7.73119 -0.008,8.8927 -1.54015,9.20344 -0.96417,0.1956 -2.03808,-0.38718 -2.38647,-1.29507 z M 60.402071,395.67504 c -0.583378,-1.09005 -1.34399,-4.6924 -1.690249,-8.00522 l -0.629561,-6.02331 -2.355567,6.72722 c -1.295561,3.69997 -2.357527,6.83972 -2.359924,6.97722 -0.0024,0.1375 -0.679358,0.25 -1.504358,0.25 -2.22177,0 -1.858266,-3.77348 1.053897,-10.94036 1.404643,-3.45685 2.370495,-6.46858 2.146338,-6.69275 -0.224157,-0.22415 -1.656038,1.5141 -3.181959,3.86278 -3.993844,6.14728 -6.604164,8.77033 -8.727774,8.77033 -1.613363,0 -1.702589,-0.29575 -0.670844,-2.22359 0.654514,-1.22296 3.440349,-4.60297 6.190744,-7.5111 2.750396,-2.90814 4.818217,-5.46873 4.595159,-5.6902 -0.223059,-0.22148 -3.087137,1.17707 -6.364619,3.10789 -6.065859,3.57351 -12.540942,5.4169 -12.540942,3.57029 0,-1.63201 2.077523,-2.9045 9.5,-5.81883 8.947227,-3.51299 9.736418,-4.12419 8.443803,-6.53948 -0.557794,-1.04223 -1.647593,-1.89498 -2.421777,-1.89498 -2.38247,0 -15.522026,-5.17714 -15.522026,-6.11586 0,-1.71168 4.75603,-0.85539 9.601061,1.72858 6.568329,3.50305 9.398939,4.53723 9.398939,3.43395 0,-1.00038 -0.565751,-1.60165 -7.43658,-7.90332 -3.145565,-2.885 -4.41458,-4.69219 -3.756774,-5.35001 0.657805,-0.6578 1.534033,-0.36843 2.593973,0.85665 5.263239,6.08328 9.702129,10.5806 10.075049,10.20767 0.236651,-0.23665 -0.898563,-3.22021 -2.522697,-6.63013 -2.999966,-6.29854 -3.658743,-9.22753 -2.075416,-9.22753 1.684166,0 3.579243,3.28476 5.693362,9.86838 l 2.129534,6.63162 0.134641,-7.82101 c 0.146839,-8.5295 0.487478,-9.67899 2.868263,-9.67899 1.359264,0 1.504859,1.1051 1.021041,7.75 l -0.564282,7.75 2.525791,-6.25 c 1.402396,-3.47019 3.145867,-6.25 3.919943,-6.25 2.318864,0 1.596156,2.63474 -2.605848,9.5 -2.2,3.59437 -4,6.70855 -4,6.92038 0,0.21184 2.998828,-2.72109 6.664062,-6.51761 3.665234,-3.79652 7.265234,-6.90277 8,-6.90277 2.742664,0 1.175253,2.98547 -3.896886,7.42245 -2.878054,2.51764 -4.854889,4.57755 -4.392968,4.57755 0.461922,0 3.719953,-1.37455 7.240069,-3.05454 6.630305,-3.16435 9.800715,-3.16649 6.939315,-0.005 -0.867182,0.95823 -4.158996,2.58098 -7.315143,3.60612 -3.156147,1.02513 -6.165949,2.22145 -6.688449,2.65848 -0.5225,0.43705 3.2275,0.79461 8.333333,0.79461 6.989743,0 9.176906,0.30883 8.852566,1.25 -0.303138,0.87964 -2.982499,1.22348 -9.04316,1.16049 -4.736816,-0.0492 -8.400582,0.25321 -8.141703,0.67209 0.258879,0.41888 3.356744,1.72201 6.884144,2.89585 6.884285,2.29094 9.897039,4.57312 7.334971,5.55628 -1.206418,0.46294 -5.042254,-1.09246 -18.185747,-7.37418 -0.503577,-0.24068 2.308923,2.60425 6.25,6.32207 6.774656,6.39086 8.733059,9.5366 5.915596,9.50209 -1.672776,-0.0205 -3.224488,-1.13484 -4.335463,-3.11346 -1.884377,-3.35604 -9.671915,-11.83019 -10.437072,-11.3573 -0.437654,0.27049 -0.177654,3.078 0.577779,6.23893 2.434895,10.18824 1.417514,19.80179 -1.515585,14.32124 z m 7.321894,-2.82409 c -0.316623,-0.9625 -1.134997,-3.10001 -1.818608,-4.75 -3.060573,-7.38716 -3.775985,-9.60029 -3.267675,-10.10861 0.762419,-0.76241 8.72473,12.85084 8.72473,14.91678 0,2.2305 -2.900824,2.18413 -3.638447,-0.0582 z m 159.673625,-5.18426 c -0.56935,-1.06385 -1.06267,-4.32634 -1.09627,-7.25 l -0.0611,-5.31574 -1.72036,5.5 c -1.3333,4.2626 -2.21949,5.57189 -3.9389,5.81955 -2.97649,0.42872 -2.9035,-1.9654 0.28796,-9.44512 1.7443,-4.08805 1.97237,-5.16861 0.75,-3.55338 -4.62431,6.11055 -7.58613,9.17895 -8.8601,9.17895 -2.32219,0 -1.57437,-3.36735 1.56295,-7.03778 4.12788,-4.82931 3.75448,-5.49187 -1.1094,-1.9685 -5.02728,3.64175 -8.1331,3.98228 -7.66951,0.84092 0.21383,-1.44895 2.54588,-3.49605 7.04875,-6.18746 3.70106,-2.21217 6.61486,-4.13646 6.4751,-4.27622 -0.13975,-0.13976 -4.25305,0.63695 -9.14065,1.72601 -6.14427,1.36908 -9.20703,1.65964 -9.9251,0.94157 -1.81695,-1.81695 0.66338,-3.06041 9.9644,-4.99542 4.89338,-1.01803 8.58897,-1.8942 8.21243,-1.94705 -2.03553,-0.28567 -15.49925,-3.19287 -16.54852,-3.57329 -0.67823,-0.24589 -0.96758,-1.13912 -0.64301,-1.98494 0.82751,-2.15646 6.24909,-1.95807 12.61542,0.46165 5.75467,2.18723 7.06457,2.47162 4.76073,1.03359 -4.86995,-3.03976 -11,-8.60564 -11,-9.98764 0,-2.99618 6.05278,0.10072 13.41039,6.86141 l 3.91038,3.59314 -2.32215,-4 c -1.27718,-2.2 -3.14243,-4.92163 -4.145,-6.04807 -1.00257,-1.12645 -2.12014,-3.53453 -2.48349,-5.3513 -0.575,-2.87497 -0.41493,-3.25768 1.23461,-2.95193 1.21019,0.22432 3.23615,3.06231 5.60485,7.8513 l 3.70958,7.5 -0.0953,-7.06213 c -0.0972,-7.20027 1.36932,-11.88218 3.49384,-11.15438 1.18332,0.40537 1.18625,11.84416 0.004,16.21651 -0.2974,1.1 1.25409,-0.74347 3.44775,-4.0966 3.62279,-5.53762 5.71759,-7.4034 8.31218,-7.4034 1.54966,0 1.03593,1.85327 -1.727,6.23003 l -2.64521,4.19028 2.39521,-1.55731 c 5.70774,-3.71105 6.71753,-4.14516 8.26274,-3.55221 0.89786,0.34454 1.63247,1.08774 1.63247,1.65155 0,0.91654 -4.55392,4.54743 -9.63956,7.68572 -1.02324,0.63143 0.78233,0.26987 4.01238,-0.80346 6.52554,-2.16835 10.12733,-2.11308 10.12733,0.15541 0,1.04181 -2.44361,2.11032 -8,3.49811 l -8,1.99812 7.70374,0.50188 c 8.03143,0.52323 11.62173,2.19009 8.7879,4.07991 -0.82997,0.5535 -4.37495,0.75968 -7.99164,0.4648 l -6.5,-0.52994 7.79896,3.09669 c 4.3983,1.7464 7.63497,3.59676 7.42288,4.24355 -0.57171,1.74349 -5.5729,1.97334 -8.03648,0.36935 -1.20195,-0.78257 -4.43536,-2.3878 -7.18536,-3.56718 -5.48281,-2.35138 -5.60314,-2.49263 4.89351,5.74414 5.58553,4.38299 7.09764,7.10057 3.95088,7.10057 -1.85488,0 -6.8835,-3.50584 -12.7685,-8.90191 l -3.9241,-3.59809 3.87231,5.5 c 2.12977,3.025 4.68312,6.57319 5.67411,7.88486 2.49142,3.29766 2.32117,5.32916 -0.41356,4.93469 -1.64975,-0.23797 -3.36586,-2.5394 -6.72178,-9.01443 -2.47854,-4.78218 -4.65524,-8.54609 -4.8371,-8.36422 -0.18186,0.18186 0.18671,4.21845 0.81905,8.97021 1.1486,8.63118 0.89893,11.58889 -0.97825,11.58889 -0.54791,0 -1.46204,-0.87042 -2.03139,-1.93426 z M 35.057073,372.79327 c -0.992937,-0.19816 -1.630914,-0.885 -1.417728,-1.5263 0.471511,-1.41841 17.723067,-2.00149 17.723067,-0.59902 0,0.51315 -1.0125,0.96585 -2.25,1.00599 -1.2375,0.0402 -4.5,0.3895 -7.25,0.7763 -2.75,0.38682 -5.812403,0.54118 -6.805339,0.34303 z m 73.988667,-13.84232 c -1.00125,-1.00125 -0.83323,-7.34054 0.29922,-11.28915 0.5404,-1.88427 0.61626,-3.0063 0.16858,-2.4934 -0.44769,0.5129 -1.3448,2.80133 -1.99358,5.08539 -0.64879,2.28406 -2.04122,5.20906 -3.09429,6.5 -1.71645,2.10416 -1.98439,2.1681 -2.58809,0.61765 -0.3882,-0.99701 0.26411,-3.66619 1.54018,-6.30219 1.21748,-2.51498 2.02034,-4.76594 1.78415,-5.00214 -0.2362,-0.23619 -2.17904,1.36229 -4.31742,3.5522 -4.237456,4.33953 -6.482078,5.05524 -6.482078,2.06681 0,-1.13481 1.982844,-3.37037 4.867544,-5.48794 2.677154,-1.96521 5.444144,-4.26787 6.148874,-5.11702 1.11962,-1.34906 0.97858,-1.42667 -1.11754,-0.61491 -1.31938,0.51094 -4.71423,2.10028 -7.544105,3.53185 -5.380117,2.72168 -7.863469,3.20681 -8.784746,1.71616 -0.841207,-1.36111 1.293663,-2.57326 8.929973,-5.07031 3.849998,-1.25894 7.224998,-2.52046 7.499998,-2.80339 0.275,-0.28293 -3.15279,-0.22203 -7.617317,0.13532 -6.334021,0.507 -8.371766,0.34314 -9.275524,-0.74581 -1.627431,-1.96094 0.533929,-2.62104 8.72463,-2.66456 6.286651,-0.0334 6.525161,-0.11717 4.168211,-1.46389 -1.374998,-0.78566 -4.637498,-2.15588 -7.249998,-3.04494 -4.510907,-1.5351 -6.009002,-3.55959 -3.693165,-4.99086 1.672315,-1.03354 5.015028,0.18977 10.879273,3.98142 2.98985,1.93316 5.61075,3.34018 5.82421,3.12672 0.21346,-0.21346 -2.12029,-2.81768 -5.1861,-5.78715 -3.065822,-2.96949 -5.574218,-6.16109 -5.574218,-7.09246 0,-3.22794 3.744036,-1.71224 7.550368,3.0566 5.35505,6.7092 5.89373,7.17735 4.04711,3.51722 -0.89706,-1.77802 -1.90964,-5.26551 -2.25017,-7.75 -0.51118,-3.72944 -0.34058,-4.51722 0.97822,-4.51722 1.04125,0 1.97771,1.47966 2.68979,4.25 0.60083,2.33749 1.46578,5.375 1.92212,6.75 0.90656,2.73156 0.88545,2.76719 3.2149,-5.42548 1.791,-6.29896 3.84766,-7.21992 3.84766,-1.72296 0,2.21004 -0.46259,5.23494 -1.02798,6.72202 -1.78099,4.68437 -0.2064,3.84931 2.71845,-1.44169 3.02518,-5.47249 5.03585,-7.00868 5.97389,-4.56419 0.34553,0.90045 -0.74406,3.19236 -2.63825,5.54942 -1.77478,2.20849 -3.03155,4.21078 -2.7928,4.44951 0.23875,0.23875 3.04508,-1.39492 6.23629,-3.63037 3.42339,-2.39809 6.16992,-3.69675 6.69909,-3.16758 1.57005,1.57005 -0.0596,3.68027 -5.43755,7.04093 l -5.23114,3.26893 5.5,-0.70059 c 6.28119,-0.80009 8.95187,-0.75941 9.86146,0.15017 1.30142,1.30142 -3.09221,3.24318 -9.1286,4.03433 -4.21665,0.55267 -5.26242,0.91983 -3.23286,1.13502 9.7755,1.03652 11.5,1.48156 11.5,2.96788 0,1.3236 -1.17223,1.44108 -8.25,0.82688 -4.5375,-0.39375 -7.94126,-0.39436 -7.56392,-9.9e-4 0.37734,0.39301 3.52734,1.7422 7,2.99817 3.72636,1.34772 6.44642,2.94489 6.63724,3.89725 0.17783,0.88753 -0.0963,1.61368 -0.60923,1.61368 -1.29697,0 -12.35403,-5.91058 -14.36481,-7.67873 -0.9079,-0.79836 -1.89914,-1.04961 -2.20275,-0.55835 -0.30362,0.49126 2.12671,3.54397 5.40072,6.78384 5.64816,5.58922 7.53947,9.45324 4.62706,9.45324 -1.685,0 -4.28986,-2.9765 -9.0275,-10.31545 -2.06478,-3.1985 -4.29249,-5.63473 -4.95048,-5.41386 -0.79713,0.26758 -1.19633,3.10868 -1.19633,8.51426 0,7.45799 -1.12008,11.26163 -2.81667,9.56504 z m 6.60419,-0.5667 c -0.55696,-0.70581 -1.28797,-3.5333 -1.62447,-6.2833 -0.33651,-2.75 -0.90084,-6.0125 -1.25407,-7.25 -0.35845,-1.25579 -0.20271,-2.25 0.35246,-2.25 1.09523,0 5.08262,10.09735 5.485,13.88977 0.28784,2.71281 -1.43995,3.81849 -2.95892,1.89353 z m 125.05941,-23.3216 c -0.32466,-0.84607 -0.30522,-3.32106 0.0432,-5.5 0.38741,-2.42271 0.24045,-3.9617 -0.37831,-3.9617 -0.5565,0 -1.01182,0.69734 -1.01182,1.54966 0,2.58495 -2.95547,7.45034 -4.52568,7.45034 -1.99602,0 -1.85358,-2.98041 0.42961,-8.98927 1.04716,-2.7559 1.49716,-5.01073 1,-5.01073 -0.49716,0 -0.90393,0.52001 -0.90393,1.15561 0,2.52329 -5.12201,7.84439 -7.55089,7.84439 -1.34701,0 -2.44911,-0.38932 -2.44911,-0.86514 0,-0.74653 3.39329,-5.63315 4.96553,-7.15078 0.29396,-0.28375 1.88447,-2.00668 3.53447,-3.82873 l 3,-3.31284 -6.34607,3.57873 c -6.57365,3.70709 -11.15393,4.611 -11.15393,2.20119 0,-1.89559 2.28275,-3.65327 8.87752,-6.83553 l 5.62248,-2.71309 -8.09853,0.579 c -6.9394,0.49613 -8.18904,0.34314 -8.7309,-1.06892 -0.92725,-2.41638 2.56631,-3.36649 11.32943,-3.08114 l 7.5,0.24422 -8.25,-2.54093 c -6.4077,-1.97352 -8.25,-2.95016 -8.25,-4.37349 0,-2.3534 1.71425,-2.31017 8.09299,0.20409 2.84187,1.12016 5.36816,1.83553 5.61398,1.58971 0.24582,-0.24582 -1.59513,-1.94981 -4.09101,-3.78665 -4.42882,-3.25939 -5.90395,-5.8397 -3.33847,-5.8397 0.70263,0 2.16513,0.60598 3.25,1.34665 1.08488,0.74066 3.23281,2.15735 4.77318,3.14821 l 2.80067,1.80156 -2.55067,-4.79715 c -2.58615,-4.86388 -3.20148,-7.97901 -1.75292,-8.87427 1.61061,-0.99541 3.30285,1.17114 6.1079,7.81987 l 2.87121,6.80556 0.36696,-8.0806 c 0.34512,-7.59968 1.79912,-11.55785 3.58951,-9.77161 0.42167,0.42068 0.86381,4.21568 0.98255,8.43333 0.11873,4.21765 0.23563,7.89345 0.25977,8.16845 0.0241,0.275 1.10071,-1.75 2.39238,-4.5 2.76874,-5.8947 6.17867,-9.3533 7.71095,-7.82102 1.29973,1.29973 0.2768,5.5459 -1.92056,7.9722 -2.24655,2.48062 -5.39905,7.44195 -4.98832,7.85049 0.18144,0.18048 2.95694,-1.65856 6.16776,-4.08676 5.40835,-4.09009 9.66214,-5.64229 9.66214,-3.52569 0,1.44064 -3.18052,4.68469 -8,8.15981 -2.475,1.78461 -3.60555,2.92673 -2.51232,2.53804 3.66003,-1.30131 14.20605,-1.89164 14.86102,-0.83188 1.01119,1.63615 -1.45311,2.96868 -7.3487,3.9737 l -5.5,0.93759 4,0.73042 c 5.83689,1.06586 8.5,2.3545 8.5,4.11305 0,2.084 -2.39498,2.88421 -4.79232,1.6012 -1.07173,-0.57358 -3.9194,-1.46812 -6.32814,-1.98789 -3.43785,-0.74182 -3.98023,-0.6954 -2.52244,0.21586 5.4185,3.38711 10.70448,7.97632 10.36429,8.99811 -0.84419,2.53563 -3.71229,1.52424 -9.57901,-3.37787 -3.37831,-2.82286 -6.14238,-4.67007 -6.14238,-4.10492 0,0.56514 0.47574,1.32155 1.0572,1.68091 1.37715,0.85113 9.9428,12.62319 9.9428,13.66473 0,0.43996 -0.88954,0.79992 -1.97675,0.79992 -1.18311,0 -3.59202,-2.0435 -6,-5.08981 -4.4058,-5.57376 -4.57492,-5.45274 -2.8462,2.03646 0.73051,3.16475 0.82218,5.45411 0.24164,6.03465 -1.6569,1.6569 -3.55525,-0.58052 -4.13032,-4.86805 -0.65911,-4.914 -1.31445,-4.7216 -1.94532,0.57115 -0.25014,2.09857 -0.64053,4.37809 -0.86754,5.06559 -0.57286,1.73493 -2.41742,1.56495 -3.12858,-0.28829 z M 39.759233,332.19267 c -0.372167,-0.96986 -0.153823,-4.08725 0.485208,-6.92755 0.639031,-2.84029 1.407198,-6.28917 1.707038,-7.66417 0.29984,-1.375 -0.822437,0.425 -2.493949,4 -1.671512,3.575 -3.051714,7.04667 -3.067115,7.71481 -0.03596,1.5602 -3.733957,3.56997 -4.446724,2.4167 -0.555819,-0.89934 2.547061,-7.51568 5.806575,-12.38151 2.761063,-4.12174 1.251429,-3.35368 -5.366327,2.73021 -3.807536,3.50038 -6.513917,5.26807 -7.491312,4.89301 -2.167723,-0.83184 -1.904919,-1.95268 0.949747,-4.05064 11.722467,-8.61511 14.442102,-10.73385 14.151309,-11.02464 -0.18421,-0.18421 -3.439105,0.97378 -7.233099,2.57332 -9.173418,3.8675 -13.398172,4.75761 -13.398172,2.82288 0,-0.98755 2.769406,-2.22893 8.5,-3.81013 4.675,-1.28995 8.5,-2.62318 8.5,-2.96274 0,-0.33956 -2.975142,-0.46646 -6.611426,-0.282 -3.636284,0.18446 -7.348784,-0.0952 -8.25,-0.62153 -1.872642,-1.09362 -1.454017,-1.17931 7.361426,-1.50696 10.113352,-0.37587 10.261941,-0.55189 2.574409,-3.04948 -7.269436,-2.36176 -9.98765,-3.8814 -8.895781,-4.97327 0.458899,-0.4589 3.913888,0.75087 17.821372,6.24017 0.828752,0.32711 0.415123,-0.59836 -0.924314,-2.06808 -1.333373,-1.46307 -2.908373,-2.66075 -3.5,-2.66151 -1.572462,-0.002 -9.575686,-7.33435 -9.575686,-8.77297 0,-2.74217 3.754249,-0.92944 7.796705,3.76466 2.363188,2.74412 5.169262,5.4563 6.235721,6.02704 1.791767,0.95893 1.859767,0.8293 0.895455,-1.70704 -0.573958,-1.50962 -1.402584,-3.20952 -1.841391,-3.77754 -1.12033,-1.45024 -3.286741,-10.66584 -2.655683,-11.2969 1.115004,-1.115 3.605324,2.19423 4.613521,6.13063 0.582275,2.27342 1.687316,5.70851 2.455648,7.63351 l 1.396968,3.5 0.22123,-3 c 0.121677,-1.65001 0.121546,-4.8 -2.91e-4,-7 -0.258089,-4.66028 2.042622,-8.69435 3.909628,-6.85517 0.881995,0.86885 0.673163,3.03845 -0.866284,9 -1.115639,4.32034 -1.495813,7.10913 -0.844831,6.19732 8.324632,-11.66012 10.189025,-13.84215 11.827111,-13.84215 3.451214,0 1.737331,4.10266 -4.490798,10.75 -3.934545,4.19936 -2.86976,4.12104 3.193445,-0.23494 5.278326,-3.7921 9.653846,-4.95448 9.653846,-2.56459 0,0.79775 -2.770119,3.04775 -6.15582,5 -3.385701,1.95223 -7.210701,4.31923 -8.5,5.25997 -2.237244,1.63242 -2.116091,1.64253 2.65582,0.22156 8.580696,-2.55514 13.917839,-3.37113 15,-2.29333 1.695573,1.68874 -2.081173,3.55561 -8.710423,4.30563 -6.789337,0.76812 -6.422609,2.02348 0.915325,3.1333 2.312696,0.34978 5.012696,1.2486 6,1.99738 1.688382,1.28048 1.664265,1.3633 -0.405681,1.39322 -1.210428,0.0175 -4.473314,-0.45557 -7.250857,-1.05125 -2.777542,-0.59567 -5.522718,-0.9255 -6.100389,-0.73294 -0.577672,0.19256 1.672713,2.27043 5.000856,4.6175 3.328143,2.34707 6.051169,4.7019 6.051169,5.23295 0,2.07737 -4.465558,0.79413 -9.116023,-2.61963 -2.686187,-1.97184 -4.883977,-3.40311 -4.883977,-3.1806 0,0.22251 1.8,2.8171 4,5.76577 4.475517,5.99855 4.791873,7 2.211287,7 -1.698199,0 -6.376876,-6.65949 -9.308886,-13.25 -0.672887,-1.5125 -1.601199,-2.75 -2.062916,-2.75 -1.095587,0 -1.084584,1.73048 0.01532,2.41027 1.614557,0.99785 5.273268,12.61083 4.620779,14.66664 -1.726802,5.44067 -6.126344,-2.29366 -6.58534,-11.57691 -0.08158,-1.65 -0.565436,0.375 -1.075233,4.5 -0.966547,7.82076 -3.112603,11.99403 -4.418195,8.59172 z m 88.143647,-27.3315 c -3.36328,-3.62716 -3.3987,-8.49291 -0.0859,-11.80568 5.02339,-5.02339 12.23789,-2.16643 13.23125,5.2396 0.48937,3.64853 0.21141,4.49662 -2.20901,6.73979 -3.67619,3.40698 -7.67502,3.34346 -10.93632,-0.17371 z m 24.09439,-1.33281 c -3.5075,-2.75899 -3.65471,-8.63024 -0.31377,-12.51432 2.27459,-2.64436 2.42524,-2.67342 7.52087,-1.451 5.61526,1.34708 7.15804,3.05553 7.15804,7.92671 0,6.84832 -8.69114,10.50178 -14.36514,6.03861 z m -47.62398,-3.14612 c -4.703422,-5.04852 -4.15734,-10.87583 1.26993,-13.5517 3.68747,-1.81808 10.08178,0.81735 11.749,4.84237 3.22346,7.78212 -7.31483,14.83197 -13.01893,8.70933 z m 72.19961,0.0649 c -3.28091,-0.92144 -5.21049,-3.82281 -5.21049,-7.83458 0,-2.96718 4.84053,-8.01162 7.68776,-8.01162 3.60911,0 9.13591,2.86906 9.84785,5.11219 0.704,2.2181 -1.0762,8.2864 -2.83676,9.66992 -2.01754,1.58547 -6.02998,2.03546 -9.48836,1.06412 z m -92.582451,-10.0962 c -3.56926,-3.2337 -4.395402,-9.54922 -1.63652,-12.51052 2.427962,-2.60611 5.909343,-2.85923 10.028499,-0.72913 5.630451,2.91161 6.847628,9.8754 2.345125,13.41706 -3.4346,2.70166 -7.635882,2.63223 -10.737104,-0.17741 z m 110.736041,0.0804 c -2.29178,-1.10969 -4.36408,-4.78629 -4.36408,-7.74259 0,-2.68383 3.58573,-6.76703 6.6089,-7.5258 1.9342,-0.48544 3.67715,0.0233 6.51582,1.90181 3.42325,2.26542 3.87528,3.02947 3.87528,6.55036 0,6.79127 -6.00148,10.02868 -12.63592,6.81622 z m -49.61295,-7.81153 c -5.70956,-4.49113 -2.51329,-14.01887 4.7029,-14.01887 4.08526,0 8.13724,3.08152 8.83218,6.71684 1.41999,7.42822 -7.35579,12.16266 -13.53508,7.30203 z m -19.25113,-0.17361 c -3.22835,-1.76576 -4.5,-3.98751 -4.5,-7.86208 0,-4.64501 3.70457,-8.52513 7.28216,-7.62721 7.46051,1.87246 10.1986,9.25417 5.26329,14.18948 -2.65371,2.65371 -4.90511,3.01745 -8.04545,1.29981 z m 42.57673,-6.43415 c -4.81558,-4.05205 -3.90191,-9.8988 2.0259,-12.96418 8.59622,-4.44529 16.30017,6.24118 9.44282,13.09852 -3.2375,3.23751 -7.52114,3.18733 -11.46872,-0.13434 z m 44.35294,1.62419 c -5.42918,-2.19736 -7.11186,-10.44401 -2.97512,-14.58076 4.48924,-4.48924 12.74755,-2.36383 14.0616,3.61899 1.13236,5.15562 -0.34314,8.95623 -4.08385,10.51921 -3.79805,1.58691 -4.12424,1.60753 -7.00263,0.44256 z M 62.439137,274.01206 c -3.804319,-3.20114 -4.099714,-7.62032 -0.786155,-11.76112 1.810688,-2.26272 3.090203,-2.84999 6.20943,-2.84999 6.812993,0 10.383936,6.65619 7.040048,13.12255 -2.430334,4.69975 -7.874314,5.34994 -12.463323,1.48856 z m 40.923273,-1.12056 c -3.47529,-1.27783 -4.999998,-3.65351 -4.999998,-7.79055 0,-7.38439 5.874988,-9.91008 11.195278,-4.81291 6.37437,6.10703 1.74575,15.52333 -6.19528,12.60346 z m 85.82664,-5.96513 c -5.11073,-1.35165 -6.0112,-11.0496 -1.39468,-15.02056 3.53064,-3.03693 5.86206,-2.90746 9.72014,0.53972 2.6049,2.32749 3.15757,3.53811 3.04023,6.65952 -0.24418,6.49502 -4.72409,9.57787 -11.36569,7.82132 z M 81.260295,260.31878 c -8.179944,-5.49401 -2.166613,-16.75899 7.633136,-14.2994 2.995754,0.75189 6.459968,5.98096 6.465243,9.75899 0.0046,3.28455 -4.135338,6.82258 -7.983237,6.82258 -1.494492,0 -4.246306,-1.02698 -6.115142,-2.28217 z m 146.423295,0.13215 c -5.02765,-2.52001 -5.46548,-11.74272 -0.72151,-15.1984 5.16589,-3.76304 13.40033,0.80114 13.40033,7.42751 0,5.8098 -7.46418,10.38462 -12.67882,7.77089 z m -77.23163,-3.59998 c -1.37344,-1.12735 -2.27526,-3.23156 -2.53461,-5.91396 -0.47868,-4.95094 1.3533,-7.12235 6.74757,-7.99771 2.92396,-0.4745 4.00472,-0.12202 6.12402,1.99728 7.02542,7.02542 -2.67367,18.20456 -10.33698,11.91439 z M 46.362412,255.60094 c -2.541557,-2.54156 -2.616181,-8.64103 -0.145027,-11.85398 2.635125,-3.42615 10.122985,-4.16806 13.002712,-1.28833 3.139145,3.13914 3.728514,6.89833 1.678375,10.70521 -2.609992,4.84647 -10.760237,6.21293 -14.53606,2.4371 z m 77.135998,0.25 c -1.40629,-1.18002 -2.15587,-3.10746 -2.30144,-5.91781 -0.2353,-4.54272 1.21282,-7.0195 4.93054,-8.43298 5.42085,-2.06101 12.44326,5.79235 10.2762,11.49216 -1.76128,4.63253 -8.90534,6.215 -12.9053,2.85863 z m 82.72867,-7.23148 c -2.51254,-2.51254 -2.93297,-3.63713 -2.67307,-7.15003 0.35163,-4.75288 3.7707,-8.11849 8.24744,-8.11849 7.55039,0 10.65048,12.27218 4.23518,16.76563 -3.25492,2.27984 -6.53287,1.77956 -9.80955,-1.49711 z m -32.70433,-0.0768 c -1.05466,-1.13205 -2.19841,-3.71955 -2.54166,-5.75 -0.53009,-3.13564 -0.23871,-4.03065 1.93437,-5.94173 1.6828,-1.4799 3.84409,-2.25 6.31466,-2.25 7.08164,0 10.43233,8.69602 5.46543,14.18438 -2.31964,2.56317 -8.68762,2.42487 -11.1728,-0.24265 z m -68.16034,-0.67282 c -5.903445,-2.06015 -8.094316,-10.17458 -3.8839,-14.385 1.70919,-1.70919 2.90904,-2.00973 6.23978,-1.56299 4.93978,0.66256 7.64412,3.55616 7.64412,8.17909 0,5.30434 -5.28865,9.41304 -10,7.7689 z m -40.250556,-7.25135 c -2.526082,-1.98702 -4.274291,-7.48624 -3.23821,-10.18623 0.781842,-2.03744 5.84657,-4.83132 8.758201,-4.83132 5.299377,0 9.909089,6.71145 8.234218,11.9885 -0.757281,2.38598 -5.377615,5.0115 -8.819132,5.0115 -1.328141,0 -3.548925,-0.8921 -4.935077,-1.98245 z m 174.030186,-0.0811 c -3.96592,-2.31149 -4.25835,-11.63444 -0.46371,-14.78371 3.40687,-2.82745 10.04277,-1.29361 12.16589,2.81206 3.37163,6.52001 0.2019,13.05856 -6.30439,13.00476 -2.02258,-0.0167 -4.45159,-0.48162 -5.39779,-1.03311 z m -101.50915,-4.65183 c -2.77375,-0.52048 -6.27048,-5.27945 -6.27048,-8.534 0,-4.73319 6.3105,-7.67566 11.12357,-5.18672 8.60916,4.45197 4.69692,15.51271 -4.85309,13.72072 z m 17.2897,-1.41594 c -5.7786,-4.54545 -5.16614,-10.85353 1.25968,-12.97424 2.96611,-0.97891 4.04486,-0.88357 6.80178,0.60113 7.21219,3.88403 4.24533,14.50443 -4.05188,14.50443 -0.71502,0 -2.51933,-0.9591 -4.00958,-2.13132 z M 35.145899,231.85094 c -3.313727,-3.79893 -3.95513,-6.13333 -2.665279,-9.70035 2.293309,-6.34204 10.152681,-7.56622 14.938163,-2.32679 3.663515,4.01104 3.83482,7.97686 0.489084,11.32259 -3.063887,3.06389 -10.352955,3.4663 -12.761968,0.70455 z m 182.439021,-0.8067 c -3.05019,-2.13644 -3.15991,-10.05999 -0.18355,-13.25474 2.03125,-2.1803 6.90705,-2.91398 10.41624,-1.56738 2.50614,0.9617 4.67655,5.97671 3.94705,9.12019 -1.2847,5.53592 -3.11283,7.25863 -7.7028,7.25863 -2.33994,0 -5.25457,-0.70052 -6.47694,-1.5567 z m -25.43902,-1.1933 c -4.40751,-5.05287 -4.80097,-8.95979 -1.25903,-12.50174 3.51667,-3.51666 6.89888,-3.93606 10.77064,-1.33557 2.62803,1.76514 3.26015,2.90963 3.51184,6.35847 0.24817,3.40062 -0.17392,4.68674 -2.20455,6.71737 -3.01988,3.01987 -8.51178,3.40642 -10.8189,0.76147 z m -103.283488,-1.1945 c -2.992935,-1.22627 -5.400168,-4.30634 -6.099866,-7.80483 -0.898939,-4.4947 2.995306,-8.25067 8.554411,-8.25067 4.559047,0 7.583788,2.31239 8.666255,6.62528 0.837888,3.33841 -2.18614,9.37472 -4.696483,9.37472 -0.968408,0 -2.360046,0.19686 -3.09253,0.43747 -0.732483,0.24061 -2.231787,0.0687 -3.331787,-0.38197 z m 28.684348,0.0796 c -1.85022,-1.17326 -4.18435,-5.94871 -4.18435,-8.56085 0,-6.31326 9.86521,-9.10366 13.92742,-3.93939 2.79507,3.55335 2.68952,8.43693 -0.24187,11.19083 -2.3471,2.20498 -7.06379,2.85501 -9.5012,1.30941 z m 51.40454,-5.21183 c -3.10954,-3.69548 -3.28323,-6.77085 -0.5767,-10.21163 3.96672,-5.04287 10.53337,-4.42489 13.47746,1.26834 2.03944,3.94385 1.90108,6.25358 -0.56223,9.38516 -3.08297,3.91936 -8.84235,3.7131 -12.33853,-0.44187 z m 78.41111,-5.21408 c -4.97507,-2.51007 -5.60969,-12.24216 -0.96056,-14.7303 2.73988,-1.46634 7.22611,-1.18162 9.80117,0.62202 3.44457,2.41267 4.40521,5.875 2.73748,9.86643 -2.18766,5.23582 -6.48643,6.81076 -11.57809,4.24185 z M 55.401367,216.41238 c -2.010482,-2.15799 -2.677065,-6.98498 -1.417774,-10.26664 0.946928,-2.46764 5.496342,-4.35901 9.154225,-3.80574 5.14508,0.7782 7.354795,5.44768 5.626185,11.88905 -1.196916,4.4601 -9.914503,5.88446 -13.362636,2.18333 z m 83.884123,-1.73452 c -3.45553,-3.45552 -3.84032,-7.72261 -1.01143,-11.21614 1.49459,-1.84574 2.88976,-2.36078 6.39501,-2.36078 6.27034,0 9.07395,2.62569 8.37419,7.84276 -1.10836,8.26344 -8.25134,11.24059 -13.75777,5.73416 z m -38.66065,-0.60566 c -1.200423,-0.84081 -2.481217,-3.12058 -2.84621,-5.06617 -0.562251,-2.99705 -0.241734,-3.97777 2.098218,-6.42016 3.506092,-3.65957 7.642182,-3.56105 11.763072,0.28022 2.49851,2.32897 2.86785,3.27541 2.34145,6 -1.16641,6.03721 -8.23589,8.79276 -13.35653,5.20611 z m 123.32401,-3.58193 c -2.37233,-1.86607 -2.6487,-2.6945 -2.38486,-7.14875 0.23792,-4.01669 0.80526,-5.41272 2.79842,-6.886 3.57815,-2.64484 9.13103,-0.99667 11.93669,3.54298 2.68346,4.34194 2.60257,5.80812 -0.52558,9.52571 -3.15175,3.74564 -7.80746,4.126 -11.82467,0.96606 z m -193.337424,0.0903 c -1.238042,-0.50376 -2.992812,-2.47156 -3.899489,-4.37288 -1.535609,-3.2202 -1.532768,-3.70084 0.0415,-7.01835 2.099162,-4.42366 4.833415,-5.9565 9.172925,-5.1424 3.993783,0.74926 7.43605,5.04698 7.43605,9.28406 0,5.26682 -7.351633,9.44661 -12.750986,7.2496 z m 91.454914,-2.57576 c -7.88893,-4.27739 -5.24815,-15.40387 3.65598,-15.40387 9.4093,0 12.24837,12.84929 3.51198,15.89482 -3.88768,1.35526 -3.74497,1.36502 -7.16796,-0.49092 z m -46.249383,-1.85844 c -3.322753,-3.32275 -3.31282,-8.39051 0.02259,-11.52396 4.36409,-4.09986 12.732352,-2.01933 14.120272,3.51058 2.008154,8.00111 -8.30925,13.847 -14.142858,8.01338 z m 81.884593,0.58235 c -4.75316,-4.48647 -3.55248,-11.95559 2.27826,-14.17243 3.92945,-1.49398 5.32167,-1.17015 8.45952,1.96772 3.5271,3.52708 3.98609,8.80493 1.0007,11.50667 -3.06667,2.7753 -9.15423,3.13731 -11.73848,0.69804 z m 21.02061,-0.58838 c -2.75045,-1.92649 -3.71536,-7.95107 -1.85091,-11.55651 2.35089,-4.54613 11.45384,-4.34758 15.33969,0.33459 2.29645,2.76705 1.88265,8.67201 -0.75751,10.80988 -2.80576,2.27197 -9.75477,2.49687 -12.73127,0.41204 z m 22.28627,-0.99167 c -7.56707,-7.01293 2.61063,-18.95928 11.09155,-13.01901 2.96123,2.07412 3.85941,7.41616 1.88792,11.2286 -2.58323,4.9954 -8.62235,5.82845 -12.97947,1.79041 z m 45.89158,-10.85002 c -0.82968,-1.26625 -1.7767,-3.64324 -2.10449,-5.2822 -1.4446,-7.223 10.77401,-11.78156 15.49431,-5.78066 1.13992,1.44918 2.07258,3.86349 2.07258,5.36515 0,1.50166 -0.93266,3.91597 -2.07258,5.36514 -1.7357,2.20658 -2.86975,2.63486 -6.97695,2.63486 -4.01552,0 -5.17776,-0.41725 -6.41287,-2.30227 z M 96.907867,193.05549 c -3.573869,-3.57387 -3.640807,-10.69074 -0.122238,-12.99619 5.586031,-3.66011 12.513221,-0.8225 14.122201,5.78493 0.55234,2.2682 0.0607,3.35057 -2.8387,6.25 -4.21917,4.21917 -7.61122,4.51131 -11.161263,0.96126 z m 43.358223,1.31724 c -0.87798,-0.69948 -2.37594,-2.78049 -3.32879,-4.62448 -3.00159,-5.80875 0.77539,-11.14731 7.88662,-11.14731 1.42743,0 3.56466,1.40472 5.51241,3.62308 3.47824,3.9615 3.52508,7.21901 0.15325,10.65892 -2.24964,2.29507 -8.13606,3.15285 -10.22349,1.48979 z m -84.546679,-0.76337 c -3.55114,-1.43306 -5.214487,-4.73209 -4.711327,-9.3443 0.509565,-4.67091 2.140948,-6.34586 7.08398,-7.27318 4.178581,-0.78391 7.926139,2.25735 8.850019,7.18205 0.834982,4.45084 -0.05974,6.68867 -3.482679,8.71064 -3.19906,1.88974 -4.541696,2.01546 -7.739993,0.72479 z m 107.999999,-4.02464 c -2.78506,-1.09189 -5.357,-4.81356 -5.357,-7.75174 0,-2.84946 3.89688,-6.91707 7.49092,-7.81912 5.07811,-1.27452 11.08979,4.65044 9.78419,9.64305 -1.12413,4.29867 -7.71366,7.57616 -11.91811,5.92781 z M 116.78373,187.196 c -1.28148,-1.15228 -2.62091,-3.75761 -2.97653,-5.78962 -0.54508,-3.11461 -0.24543,-4.09571 1.90886,-6.25 3.10551,-3.10551 6.82794,-3.27439 10.74198,-0.48735 2.35429,1.67641 2.90437,2.80541 2.90437,5.96105 0,6.92634 -7.70501,10.94826 -12.57868,6.56592 z m -85.000199,-0.014 c -6.210694,-2.70431 -7.22498,-11.64285 -1.686792,-14.86508 3.994042,-2.32381 8.078024,-1.63092 11.692748,1.9838 4.382136,4.38214 2.994678,10.39038 -2.975448,12.88486 -3.974519,1.66066 -3.207552,1.66105 -7.030508,-0.004 z m 193.578879,-0.30806 c -3.01456,-1.52709 -3.5829,-2.39425 -4.09769,-6.25224 -0.53,-3.97196 -0.2839,-4.79302 2.17308,-7.25 3.20015,-3.20014 4.43421,-3.3509 9.81286,-1.1988 6.45647,2.58337 8.07623,10.46492 2.84587,13.84767 -3.83073,2.47754 -7.02639,2.73159 -10.73412,0.85337 z M 74.439137,185.01205 c -2.291176,-1.9279 -3.076725,-3.43154 -3.076725,-5.88922 0,-4.26184 2.84599,-7.77188 6.301545,-7.77188 8.919264,0 13.638554,7.78553 8.246204,13.60397 -3.195701,3.44822 -7.415965,3.46924 -11.471024,0.0571 z m 107.446103,0.0488 c -3.80903,-2.01767 -4.48875,-3.15403 -4.50752,-7.53561 -0.0215,-5.02751 3.66161,-8.43892 8.14334,-7.54257 4.61691,0.92337 7.84135,4.2878 7.84135,8.18179 0,6.28945 -5.91419,9.84316 -11.47717,6.89639 z m 19.54975,-4.09477 c -2.96942,-3.77501 -2.72483,-8.85616 0.57344,-11.91289 6.66595,-6.17779 16.18763,0.46172 13.28314,9.26239 -1.89665,5.74693 -10.17531,7.33048 -13.85658,2.6505 z m -96.68446,-5.34521 c -3.7119,-1.49977 -6.614333,-6.12563 -5.963262,-9.50415 1.768972,-9.17952 14.275692,-8.14606 15.964192,1.31916 0.49652,2.78332 0.11276,3.8171 -2.32014,6.25 -3.05232,3.05232 -4.19991,3.34142 -7.68079,1.93499 z m 24.71547,-5.55473 c -1.70697,-1.94413 -3.10359,-3.67698 -3.10359,-3.85077 0,-0.17379 0.486,-1.71012 1.07999,-3.41405 2.02133,-5.79839 10.55247,-6.4186 14.3191,-1.04099 3.60882,5.15232 0.15756,11.84061 -6.10995,11.84061 -2.27601,0 -3.89356,-0.92436 -6.18555,-3.5348 z m 19.93537,1.34624 c -3.56699,-3.82871 -2.56559,-9.97063 2.01155,-12.33756 6.03316,-3.11988 13.74911,1.77804 12.51577,7.94472 -0.93537,4.67685 -3.3032,6.5814 -8.18231,6.5814 -3.14197,0 -4.85727,-0.59165 -6.34501,-2.18856 z m 95.03362,-2.4463 c -2.90065,-3.68758 -2.71256,-8.81607 0.4389,-11.96753 3.40763,-3.40763 9.92345,-3.09595 12.59342,0.60239 3.40403,4.71513 3.42368,7.62526 0.0741,10.97483 -4.09846,4.09847 -10.05017,4.27571 -13.10643,0.39031 z M 57.46075,167.85094 c -3.146444,-2.59335 -3.239318,-9.90767 -0.15749,-12.40318 6.087625,-4.92946 15.416218,0.89802 13.521593,8.4468 -1.304653,5.19816 -9.06875,7.49668 -13.364103,3.95638 z m 27.86392,-0.0565 c -3.612803,-1.10698 -5.962258,-4.5403 -5.962258,-8.71283 0,-5.10733 2.269833,-7.48067 7.154427,-7.48067 4.579283,0 7.845573,3.36886 7.845573,8.09194 0,5.76718 -4.242987,9.57064 -9.037742,8.10153 z m 84.11447,-2.78235 c -7.55674,-6.35858 0.49548,-17.9046 9.23901,-13.24778 3.33901,1.77837 4.61758,3.98075 4.65246,8.01408 0.0619,7.15381 -7.99989,10.19112 -13.89147,5.2337 z m -133.720936,0.59685 c -1.179314,-0.47588 -3.174825,-2.92885 -4.434468,-5.45104 l -2.29026,-4.5858 2.002196,-2.68174 c 3.680218,-4.92925 10.722843,-5.19472 14.382556,-0.54215 3.038941,3.86339 2.599256,8.55742 -1.092541,11.66388 -3.217663,2.70748 -4.994521,3.03865 -8.567483,1.59685 z m 159.144206,-2.16273 c -3.31823,-1.81493 -4.5,-4.01602 -4.5,-8.38141 0,-5.33301 2.24799,-7.46386 7.8742,-7.46386 8.63647,0 12.43135,9.04078 6.04907,14.41111 -3.28157,2.76126 -6.18816,3.20363 -9.42327,1.43416 z m 25.81537,-1.85225 c -2.4557,-0.98942 -3.77747,-3.08706 -4.72165,-7.49322 -0.52577,-2.45358 -0.0848,-3.6113 2.42034,-6.35405 2.74358,-3.00383 3.45055,-3.28602 6.77459,-2.7041 8.66021,1.51609 11.43922,12.32067 4.13983,16.09534 -3.16467,1.63652 -5.39069,1.75437 -8.61311,0.45603 z m -104.47794,-1.24302 c -2.49857,-2.02173 -4.83743,-6.03384 -4.83743,-8.29819 0,-5.37528 8.98217,-8.46201 13.61722,-4.67957 4.64783,3.79286 3.00201,11.11904 -2.96519,13.19922 -3.72646,1.29905 -3.94578,1.29069 -5.8146,-0.22146 z m 38.62785,-5.70152 c -3.31371,-1.34318 -4.73801,-3.8219 -4.73801,-8.24562 0,-3.10974 0.56878,-4.62417 2.24715,-5.98322 4.30179,-3.48338 10.85373,-1.8089 13.32854,3.40637 2.08078,4.38492 1.25983,7.26306 -2.78467,9.7627 -3.50104,2.16376 -4.88128,2.34539 -8.05301,1.05977 z m -20.7153,-1.12859 c -2.10449,-1.22575 -4.74998,-6.08467 -4.74998,-8.7242 0,-2.93189 4.50803,-7.19569 7.60786,-7.19569 4.20651,0 9.39214,4.4814 9.39214,8.11664 0,4.06718 -1.65091,6.88336 -4.03518,6.88336 -1.08065,0 -1.96482,0.45001 -1.96482,1 0,1.28962 -3.98606,1.23852 -6.25002,-0.0801 z m -38.089598,-5.37746 c -2.824129,-2.13999 -4.096266,-9.22823 -2.180849,-12.15153 4.581581,-6.99238 14.920467,-2.58002 14.920467,6.36766 0,6.0498 -7.74702,9.567 -12.739618,5.78387 z m 143.685768,-1.14353 c -4.50991,-2.22441 -5.78665,-8.27078 -2.73114,-12.93408 2.41598,-3.68725 8.54166,-3.462 12.46191,0.45826 3.87918,3.87918 3.82104,7.43568 -0.18268,11.17571 -3.52423,3.29214 -5.07987,3.50395 -9.54809,1.30011 z m -1.34615,-8.8989 c 0,-0.825 -0.375,-1.5 -0.83333,-1.5 -0.45834,0 -0.83334,0.675 -0.83334,1.5 0,0.82501 0.375,1.5 0.83334,1.5 0.45833,0 0.83333,-0.67499 0.83333,-1.5 z m -168.917739,8.78181 c -2.356595,-0.93134 -6.017881,-5.6508 -6.037003,-7.78181 -0.037,-4.12349 1.224268,-6.3983 4.104178,-7.40224 6.695659,-2.33412 12.305111,1.33849 12.305111,8.05639 0,5.79351 -5.019766,9.243 -10.372286,7.12766 z m 111.274739,-1.29803 c -3.01465,-1.18189 -5.3597,-4.89429 -5.34169,-8.45628 0.0179,-3.53111 0.60128,-4.53887 3.9572,-6.83546 8.16187,-5.5855 17.47159,5.34431 10.77749,12.65301 -2.5787,2.81546 -6.28585,3.85689 -9.393,2.63873 z M 41.128381,140.6315 c -5.152629,-4.05306 -4.171847,-13.28169 1.559972,-14.6785 7.425736,-1.80962 11.456886,0.60991 12.371005,7.42518 0.462432,3.44768 0.151727,4.465 -2.030019,6.64675 -3.166786,3.16678 -8.312736,3.42906 -11.900958,0.60657 z m 167.469489,0.88359 c -3.04975,-1.15881 -4.64205,-5.52846 -3.57912,-9.82198 0.66877,-2.7014 1.58773,-3.66368 4.43302,-4.64204 6.88184,-2.36632 12.91064,0.89217 12.91064,6.97805 0,4.80037 -2.77683,7.76964 -7.56198,8.08604 -2.16591,0.14321 -4.95707,-0.12682 -6.20256,-0.60007 z m -90.80602,-5.37563 c -3.88935,-1.63535 -5.267,-3.44788 -5.96663,-7.85014 -0.48084,-3.02556 -0.14572,-4.09637 1.93228,-6.17437 4.27873,-4.27874 11.04773,-2.8207 14.21581,3.06207 1.68211,3.12348 1.69313,3.56315 0.16948,6.75828 -2.04676,4.2921 -6.16433,5.9645 -10.35094,4.20416 z m 40.76026,-2.83659 c -4.92189,-5.23911 -3.31183,-12.51642 3.24817,-14.68142 6.23305,-2.05709 11.56213,2.15073 11.56213,9.12942 0,2.81141 -0.63544,4.20475 -2.63486,5.77749 -3.64323,2.86577 -9.37101,2.75969 -12.17544,-0.22549 z m -18.72442,-2.65345 c -4.09604,-1.66029 -5.79618,-6.54051 -4.08876,-11.73669 1.39699,-4.25143 11.61403,-5.43796 14.70942,-1.70823 1.99488,2.40368 1.69653,9.87344 -0.49093,12.29103 -1.9839,2.19263 -6.34227,2.6891 -10.12973,1.15389 z m -56.4536,-2.83794 c -1.485351,-1.20276 -2.378032,-3.2812 -2.722731,-6.33936 -0.459024,-4.07245 -0.224597,-4.77663 2.233965,-6.71054 3.771306,-2.96651 7.536259,-2.75925 10.706052,0.58936 2.650741,2.80029 3.099772,4.03743 2.889519,7.96105 -0.289924,5.41036 -8.500889,8.22914 -13.106805,4.49949 z m 143.38399,-2.77018 c -0.3848,-1.53317 -1.16129,-2.36054 -1.93629,-2.06314 -1.66278,0.63807 -2.90363,-2.48462 -1.36513,-3.43546 0.63909,-0.39498 0.87199,-1.18737 0.51755,-1.76085 -0.35443,-0.57349 -0.17974,-1.3299 0.3882,-1.68091 0.56794,-0.351 0.78768,-1.03452 0.4883,-1.51892 -0.82871,-1.34088 2.9555,-2.98108 6.87786,-2.98108 2.71931,0 3.95787,0.64632 5.56575,2.90437 4.49952,6.319 1.43978,13.09563 -5.91286,13.09563 -3.43709,0 -4.06871,-0.34968 -4.62338,-2.55964 z m -34.48233,-0.72216 c -4.19731,-3.22259 -5.20244,-10.4291 -1.91334,-13.7182 2.74285,-2.74285 8.88645,-2.66375 12.47709,0.16064 2.45856,1.93391 2.69299,2.63809 2.23396,6.71054 -0.3447,3.05816 -1.23738,5.1366 -2.72273,6.33936 -2.52472,2.0444 -7.7317,2.30677 -10.07498,0.50766 z M 54.162175,121.55455 c -2.633158,-2.63315 -2.966144,-3.54877 -2.454802,-6.75 0.624519,-3.90977 4.726433,-8.1895 7.857986,-8.19864 7.500496,-0.0219 12.067277,10.72481 6.797053,15.99503 -3.121568,3.12157 -8.492973,2.66088 -12.200237,-1.04639 z m 49.272475,-5.54627 c -6.094752,-5.1284 -5.940146,-10.81854 0.37538,-13.81545 3.67098,-1.742 7.11135,-1.16747 10.30238,1.72046 4.51891,4.08967 1.58152,12.71598 -4.84167,14.21868 -1.93464,0.4526 -3.41417,-0.0858 -5.83609,-2.12369 z m 65.97861,-4.06982 c -2.89385,-3.67894 -3.46632,-6.69981 -1.89075,-9.97746 2.88296,-5.997436 9.30192,-6.807127 14.30465,-1.8044 5.51672,5.51673 1.44924,14.34257 -6.64217,14.41254 -2.81354,0.0243 -4.1694,-0.59365 -5.77173,-2.63068 z m -45.88931,-3.08752 c -3.13297,-2.66146 -3.65106,-8.06718 -1.15813,-12.083816 1.87761,-3.025215 2.41298,-3.285727 5.78358,-2.814274 2.04294,0.28575 4.51826,0.828001 5.50071,1.205002 2.58205,0.990827 4.87111,5.962178 4.12114,8.950278 -1.42264,5.66825 -9.85396,8.47497 -14.2473,4.74281 z m 84.46258,-1.11285 c -0.92723,-1.02457 -1.94567,-4.06207 -2.2632,-6.75 -0.69218,-5.859226 1.24183,-8.257631 7.31146,-9.067107 7.68348,-1.024706 12.48637,6.450956 8.39632,13.068797 -2.99861,4.85186 -10.20732,6.32545 -13.44458,2.74831 z m -61.16957,-1.59169 c -3.5189,-3.5189 -3.43052,-9.632598 0.18031,-12.472875 5.65848,-4.450965 13.02469,-1.029714 14.03727,6.519645 0.48245,3.59694 0.21806,4.34899 -2.19669,6.24844 -3.76898,2.96467 -8.88669,2.83899 -12.02089,-0.29521 z m -72.70457,-0.62557 c -2.166694,-1.26198 -4.749978,-6.110789 -4.749978,-8.91568 0,-6.279813 10.37263,-9.429815 14.962683,-4.543927 1.926162,2.050305 2.215661,3.1734 1.737309,6.73978 -0.880758,6.566547 -6.64655,9.808817 -11.950014,6.719827 z M 187.47736,94.019954 c -1.73451,-2.20507 -2.14291,-3.86886 -1.91052,-7.783202 0.2907,-4.896579 0.3663,-5.002099 4.58848,-6.404842 5.40278,-1.794971 8.49808,-1.035413 11.19076,2.746101 1.62014,2.275277 1.96367,3.786712 1.46493,6.445247 -1.01135,5.390956 -2.55859,6.785754 -8.1202,7.320154 -4.5688,0.439004 -5.20056,0.235513 -7.21345,-2.323458 z M 96.263622,92.49519 c -8.462446,-9.059078 4.009548,-20.619895 13.236578,-12.269545 3.58886,3.247875 1.67347,11.387299 -3.28282,13.950296 -4.18963,2.166544 -6.766273,1.731463 -9.953758,-1.680751 z m 69.494448,-5.794706 c -2.05268,-1.251694 -3.32308,-2.986637 -3.75,-5.121262 -0.9377,-4.688456 -0.89726,-4.840603 2.00036,-7.526026 5.55531,-5.148489 15.35398,-2.003554 15.35398,4.927942 0,4.047708 -1.73298,6.610292 -5.54837,8.204465 -4.28046,1.788488 -4.33259,1.785349 -8.05597,-0.485119 z M 119.1459,84.850945 c -4.58776,-5.259501 -4.8339,-9.188353 -0.78889,-12.592006 4.46391,-3.756125 6.56486,-4.093384 10.46892,-1.680539 3.91267,2.418164 4.96804,4.781184 4.03422,9.03283 -1.30419,5.937959 -10.15539,9.319677 -13.71425,5.239715 z m 22.21736,-3.249092 c -5.74576,-6.150855 -2.72679,-15.000908 5.11718,-15.000908 5.2767,0 8.88197,3.450228 8.88197,8.5 0,3.78953 -3.53161,8.5 -6.37276,8.5 -0.80501,0 -2.17509,0.272998 -3.0446,0.606663 -1.00991,0.387536 -2.66485,-0.553667 -4.58179,-2.605755 z"
           id="path622"
           inkscape:connector-curvature="0" />
        <path
           style="fill:#00ff00"
           d="m 241.9694,454.01915 c -0.33385,-0.86997 -0.61388,-3.90748 -0.6223,-6.75 -0.011,-3.70562 -0.28965,-4.7437 -0.98469,-3.6682 -0.53316,0.825 -0.97627,2.9074 -0.98469,4.62756 -0.0181,3.7065 -2.47019,6.31756 -4.25589,4.53186 -0.87441,-0.87441 -0.70363,-2.43442 0.70146,-6.40761 2.93747,-8.30632 2.90374,-8.58133 -0.35304,-2.8779 -3.56048,6.23528 -5.01017,8.12609 -6.23028,8.12609 -1.60414,0 -0.87537,-3.44943 1.58454,-7.5 6.18248,-10.18027 6.19245,-10.27384 0.55482,-5.20513 -5.19816,4.67361 -8.94879,6.4833 -10.91641,5.26725 -2.04327,-1.26281 0.29197,-3.64783 8.50052,-8.68169 4.61943,-2.83286 8.39897,-5.28954 8.39897,-5.45932 0,-0.16976 -1.94067,0.54979 -4.31259,1.599 -5.90767,2.61325 -15.44585,5.00981 -17.22364,4.3276 -3.18061,-1.2205 -0.82419,-3.73354 4.53623,-4.83773 1.925,-0.39652 4.85,-1.30815 6.5,-2.02583 1.65,-0.71769 3.675,-1.5347 4.5,-1.81558 0.825,-0.28088 -1.10195,-0.5462 -4.28212,-0.58963 -6.62972,-0.0905 -12.71788,-2.25807 -12.71788,-4.52791 0,-1.98401 0.77184,-1.95546 11.55066,0.42733 11.88878,2.62815 12.10495,2.54047 3.94934,-1.60202 -8.23781,-4.18424 -10.5,-6.02228 -10.5,-8.53133 0,-2.64245 2.41946,-2.27774 6.2152,0.93689 5.52121,4.67592 10.89202,8.44421 11.36339,7.97284 0.24598,-0.24598 -0.96891,-2.20392 -2.69975,-4.35099 -4.26198,-5.28686 -7.37164,-12.31095 -6.03984,-13.64275 1.9742,-1.9742 4.00531,0.16789 7.75524,8.17897 2.47408,5.28545 4.05483,7.63967 4.5772,6.81688 1.15849,-1.82477 1.00618,-7.17923 -0.23966,-8.42507 -1.62457,-1.62458 -0.75284,-8.83178 1.06822,-8.83178 1.17647,0 1.60784,1.83333 2,8.5 l 0.5,8.5 1.2591,-6.04049 c 1.36848,-6.56522 3.52705,-10.45951 5.7976,-10.45951 1.89934,0 1.86677,4.05072 -0.0698,8.68565 -2.12432,5.08423 -1.2053,5.17969 2.15663,0.22402 3.20311,-4.72157 7.06801,-6.82504 8.01344,-4.36129 0.36747,0.95761 -1.71845,4.09882 -5.6871,8.56426 l -6.26742,7.05197 5.22336,-3.33231 c 7.85233,-5.0095 9.40529,-5.80147 11.40755,-5.81757 3.14115,-0.0253 1.24746,2.33852 -4.70081,5.86772 -3.13551,1.86035 -5.55204,3.53135 -5.37007,3.71333 0.18198,0.18197 2.51889,-0.32763 5.19314,-1.13246 6.65731,-2.00355 9.77991,-1.92471 9.36371,0.23645 -0.24342,1.264 -2.37725,2.09719 -8.32332,3.25 l -7.99601,1.55023 7.16245,0.29203 c 4.73035,0.19288 7.56998,0.7831 8.36262,1.73818 1.89101,2.27853 -1.08309,2.83914 -8.34921,1.5738 -9.14361,-1.59229 -10.88668,-1.27699 -5.67586,1.02671 8.80468,3.89254 12.91064,6.19403 13.42041,7.52246 0.93033,2.4244 -3.21333,1.47027 -11.69261,-2.69236 -5.13558,-2.52114 -7.10032,-3.1853 -5.2278,-1.7672 5.69554,4.31338 12.67409,11.71567 12.02902,12.75941 -1.19813,1.93863 -2.69519,1.07367 -9.87091,-5.70303 -3.93108,-3.7125 -6.45064,-5.85001 -5.59901,-4.75 2.3339,3.01454 7.9409,14.32234 7.9409,16.01461 0,0.81696 -0.83834,1.48539 -1.86298,1.48539 -1.31334,0 -2.98614,-2.21279 -5.66979,-7.5 -2.09375,-4.125 -3.97888,-7.5 -4.18919,-7.5 -0.2103,0 -0.072,3.825 0.30731,8.5 0.58945,7.26466 0.46725,8.5 -0.84084,8.5 -0.84179,0 -1.80368,-0.7118 -2.13752,-1.5818 z M 94.895031,435.70372 c -0.331187,-1.04347 0.0814,-5.17557 0.916851,-9.18243 0.835454,-4.00686 1.366067,-7.43814 1.179141,-7.62506 -0.186927,-0.18694 -1.146749,1.80766 -2.132938,4.43243 -2.247126,5.98075 -5.198204,10.27229 -7.063767,10.27229 -2.629102,0 -1.475701,-3.72049 3.066026,-9.88999 2.473863,-3.36051 4.126467,-6.11001 3.672454,-6.11001 -0.454013,0 -3.418927,2.7 -6.588697,6 -3.16977,3.3 -6.397374,6 -7.172454,6 -2.930525,0 -1.198938,-2.99715 4.840765,-8.37872 l 6.25,-5.56896 -7.49772,2.8474 c -6.9354,2.63384 -10.00228,2.98593 -10.00228,1.14828 0,-1.82495 4.085595,-3.92902 11,-5.66501 l 7.5,-1.88299 -9.816197,-0.28701 c -8.65019,-0.25293 -9.775167,-0.4905 -9.470787,-2 0.297678,-1.47627 1.412347,-1.6658 8.066197,-1.37152 4.246433,0.18781 7.720787,0.13561 7.720787,-0.11601 0,-0.25162 -2.685003,-1.43649 -5.966673,-2.63304 -6.298612,-2.29659 -7.893044,-3.6327 -6.270848,-5.25491 0.650952,-0.65095 3.505068,0.25027 8.362867,2.64065 l 7.374654,3.62885 -5.777737,-5.30352 c -3.177755,-2.91692 -5.765255,-5.86599 -5.75,-6.55349 0.0578,-2.60486 3.005201,-1.06892 7.46277,3.88896 2.541204,2.82643 4.824336,4.935 5.073628,4.6857 0.249291,-0.24928 -0.874052,-3.12432 -2.496319,-6.38896 -2.951627,-5.93983 -3.754609,-9.4357 -2.16733,-9.4357 1.801238,0 4.268556,3.95355 6.298404,10.09238 1.1653,3.52418 2.397245,6.72471 2.737656,7.11228 0.34041,0.38756 0.474492,-3.32495 0.297959,-8.25 -0.304443,-8.49361 -0.21434,-8.95466 1.749997,-8.95466 1.83198,0 2.07097,0.60662 2.07097,5.2566 0,2.89112 -0.4423,6.79883 -0.9829,8.68376 -1.668513,5.81779 -0.47726,4.41282 2.47366,-2.91743 2.93481,-7.2902 5.60942,-10.69709 7.4869,-9.53674 1.50816,0.93209 0.38435,4.04598 -3.5941,9.95863 -3.64805,5.42162 -3.67775,7.11962 -0.0652,3.72578 1.27078,-1.19384 2.82818,-2.17061 3.46088,-2.17061 0.6327,0 1.599,-0.83828 2.14733,-1.86285 1.33303,-2.4908 6.84076,-4.76979 8.21241,-3.39814 1.34423,1.34423 -1.90307,4.37255 -8.95848,8.35438 -2.96048,1.67079 -5.21404,3.20643 -5.00793,3.41254 0.20611,0.20611 3.02144,-0.49841 6.2563,-1.56559 6.29715,-2.07745 11.5711,-2.53294 11.5711,-0.99936 0,1.51252 -2.0651,2.45829 -8.9927,4.1185 l -6.5073,1.55947 7.22701,0.74881 c 7.11157,0.73685 9.41999,1.88524 7.54952,3.75571 -0.59237,0.59237 -3.73626,0.60779 -8.36287,0.041 -4.07751,-0.49949 -7.56977,-0.77224 -7.76057,-0.6061 -0.19079,0.16614 1.60921,1.28487 4,2.48606 7.00499,3.51946 11.28558,7.06639 9.70611,8.04256 -1.27824,0.78999 -2.75221,0.10491 -15.3592,-7.13881 l -4,-2.29832 4.0662,3.92506 c 6.44737,6.22356 9.93365,11.3252 8.63005,12.6288 -1.58988,1.58988 -3.70252,-0.41317 -8.91626,-8.45375 -2.40729,-3.7125 -4.61041,-6.75 -4.89582,-6.75 -0.7564,0 0.51705,3.77736 3.23521,9.59649 2.44247,5.2289 3.14064,10.40351 1.40367,10.40351 -1.67428,0 -4.1784,-4.73938 -4.74803,-8.98628 -0.84779,-6.32093 -2.274988,-5.79054 -2.274988,0.84551 0,3.28747 -0.273145,6.68904 -0.606989,7.55901 -0.834952,2.17586 -3.129187,1.98839 -3.860392,-0.31543 z m 70.845279,-20.73324 c -0.88576,-3.52914 0.82585,-15.62379 2.278,-16.09688 1.30037,-0.42365 3.04283,15.78776 1.89632,17.64285 -1.21914,1.97262 -3.50355,1.12659 -4.17432,-1.54597 z m 10.82304,1.37259 c -1.2162,-1.46544 -3.74169,-8.15677 -5.71457,-15.14085 -1.30766,-4.62914 -2.98943,-7.49581 -3.83362,-6.53461 -0.20932,0.23834 -1.6014,4.13867 -3.09349,8.66742 -3.12638,9.48906 -5.30102,12.73874 -7.55926,11.29625 -1.27925,-0.81716 -0.99975,-1.88325 1.89928,-7.24424 1.8696,-3.45736 4.0071,-6.99652 4.75,-7.86483 0.74289,-0.86831 1.35072,-2.10196 1.35072,-2.74145 0,-0.63949 -3.47349,2.19995 -7.71887,6.30987 -4.40251,4.26204 -8.09428,7.09717 -8.59264,6.59881 -1.35754,-1.35754 0.7837,-4.47168 6.53245,-9.50055 2.88459,-2.52337 4.99252,-4.58794 4.68429,-4.58794 -0.30823,0 -3.32906,1.125 -6.71295,2.5 -6.38887,2.59602 -10.19228,3.1778 -10.19228,1.55901 0,-1.38576 1.64091,-2.26029 9.97773,-5.3177 l 7.52227,-2.75869 -8.54334,0.44542 c -9.20291,0.47981 -12.10573,-0.22951 -9.56579,-2.33748 0.92009,-0.76361 3.98314,-1.14234 8.04727,-0.995 3.60896,0.13083 6.78131,0.0183 7.04967,-0.25005 0.26836,-0.26835 -2.09411,-1.29388 -5.24994,-2.27894 -5.91914,-1.84758 -8.23787,-3.16741 -8.23787,-4.68901 0,-1.6982 4.24471,-0.84599 10.72426,2.1531 3.60127,1.66686 6.74205,2.83636 6.97952,2.59889 0.23748,-0.23747 -2.54338,-2.5548 -6.17969,-5.14961 -3.6363,-2.59481 -6.44201,-5.22681 -6.23491,-5.84889 0.93784,-2.817 4.03279,-1.39439 9.89914,4.55018 3.4296,3.47532 5.44274,5.06276 4.47365,3.52763 -3.24229,-5.13607 -6.66197,-11.99281 -6.66197,-13.3578 0,-0.74308 0.60526,-1.35106 1.34501,-1.35106 1.57891,0 4.65499,3.1598 4.65499,4.78169 0,0.61831 0.5625,2.37021 1.25,3.8931 1.17546,2.60378 1.27981,2.35316 1.75,-4.20295 0.44024,-6.13851 0.73906,-6.97184 2.5,-6.97184 1.88492,0 1.98921,0.60416 1.81248,10.5 -0.18715,10.47874 -0.18463,10.49064 1.24312,5.87735 3.32588,-10.74641 10.4444,-20.27543 10.4444,-13.9811 0,1.96488 -0.98296,3.99494 -6.06786,12.5317 -2.33486,3.91985 -2.32451,3.91521 5.01821,-2.25 7.73119,-6.49138 10.04965,-7.46297 10.04965,-4.21147 0,1.25344 -2.41089,3.79156 -6.64913,7 -3.65702,2.76843 -6.43461,5.03352 -6.17241,5.03352 0.2622,0 3.24537,-1.125 6.62926,-2.5 7.05435,-2.86644 12.19228,-3.28785 12.19228,-1 0,0.825 -0.1125,1.5129 -0.25,1.52868 -0.1375,0.0158 -4.075,1.32825 -8.75,2.9166 l -8.5,2.88791 8.5,0.0987 c 8.87599,0.10307 11.79869,0.96677 10.48182,3.0975 -0.57767,0.93469 -3.21418,1.09767 -10.37811,0.64153 l -9.60371,-0.61148 8.5,4.22027 c 4.96112,2.46321 8.5,4.83908 8.5,5.70657 0,2.45026 -3.40433,2.34346 -7.32077,-0.22966 -12.62458,-8.29442 -16.64616,-10.18739 -9.65707,-4.54562 6.38915,5.1575 10.47784,9.78561 10.47784,11.86018 0,2.80166 -3.53486,2.44649 -5.70332,-0.57305 -0.98817,-1.37602 -3.07313,-3.96352 -4.63324,-5.75 -1.56011,-1.78648 -3.50579,-4.52747 -4.32374,-6.09108 -0.81794,-1.56361 -1.69946,-2.63064 -1.95893,-2.37117 -0.25947,0.25947 0.90638,2.8091 2.59078,5.66585 5.69911,9.66571 7.54881,16.04825 4.65089,16.04825 -0.75765,0 -1.84733,-0.56605 -2.4215,-1.25788 z M 60.374444,395.62342 c -0.598573,-1.11844 -1.37577,-5.06855 -1.727105,-8.77801 -0.603091,-6.36756 -0.687832,-6.54887 -1.516362,-3.24446 -1.696024,6.7642 -4.054062,12 -5.404423,12 -2.064407,0 -1.648783,-3.95468 1.135858,-10.80773 3.368336,-8.28953 3.148022,-9.61633 -0.60409,-3.63806 -3.866204,6.16006 -6.847358,9.44579 -8.570224,9.44579 -2.656411,0 -1.197537,-2.93974 4.674314,-9.41911 3.3,-3.64141 6,-6.86743 6,-7.16892 0,-0.30149 -1.291227,0.37127 -2.869394,1.49502 -1.578167,1.12375 -3.940667,2.52373 -5.25,3.11104 -1.309333,0.58731 -3.505606,1.71688 -4.880606,2.51017 -2.773325,1.60001 -7,1.95882 -7,0.59424 0,-1.54217 2.303893,-2.84862 10.75,-6.09592 6.239302,-2.39883 8.25,-3.62519 8.25,-5.03182 0,-1.07822 -0.945647,-2.12081 -2.25,-2.48067 -6.568481,-1.81214 -16.75,-5.83338 -16.75,-6.61548 0,-1.32412 5.405062,-1.09349 6.788184,0.28963 1.240992,1.24099 11.509075,5.84071 11.985355,5.36898 0.7755,-0.76806 -1.515599,-3.52127 -6.288734,-7.55716 -5.861819,-4.95641 -6.467934,-6 -3.484805,-6 1.1,0 2,0.41214 2,0.91586 0,1.26029 8.802817,10.61466 9.413821,10.00365 0.270667,-0.27067 -0.836716,-3.28206 -2.46085,-6.69198 -3.057367,-6.41906 -3.658788,-9.22753 -1.976024,-9.22753 1.52753,0 3.665968,3.95421 5.67841,10.5 l 1.844643,6 0.5,-8.49012 c 0.430679,-7.31304 0.762254,-8.5401 2.391593,-8.85059 1.771665,-0.33763 1.852723,0.16896 1.278521,7.99012 -0.66241,9.02262 -0.816206,9.11094 3.308128,-1.89941 1.25435,-3.34862 4.021758,-4.48701 4.021758,-1.65437 0,0.8776 -0.819224,2.7901 -1.820497,4.25 -1.001273,1.4599 -3.07787,4.84754 -4.614659,7.52809 -2.767356,4.82696 -2.724688,4.80058 4.447627,-2.75 6.88308,-7.24609 9.987529,-9.21052 9.987529,-6.31989 0,1.34193 -4.299456,5.70716 -9.384859,9.52843 -4.031315,3.02921 -2.721207,2.71962 5.995444,-1.41679 4.154526,-1.9715 7.838307,-3.29991 8.18618,-2.95204 1.450212,1.45021 -1.826661,4.0446 -7.54655,5.97481 -3.360349,1.13396 -6.441335,2.39926 -6.846637,2.81176 -0.405301,0.4125 3.425589,0.75 8.513089,0.75 6.964028,0 9.143102,0.30892 8.817446,1.25 -0.30956,0.89456 -3.088769,1.20834 -9.77411,1.10348 -10.225225,-0.16037 -10.188735,0.25851 0.35119,4.03158 3.854078,1.37969 6.303499,2.85271 6.507819,3.91366 0.1802,0.9357 -0.130429,1.70128 -0.690287,1.70128 -0.814609,0 -7.1784,-2.84467 -17.517921,-7.83067 -0.489057,-0.23584 -0.545204,0.12779 -0.12477,0.80807 0.557463,0.90199 0.178456,1.05088 -1.399883,0.54993 -1.875165,-0.59514 -2.09337,-0.37567 -1.633319,1.64288 0.292044,1.28138 0.973628,4.35478 1.514632,6.82979 2.011187,9.20083 0.734693,17.04903 -1.955432,12.02247 z m 7.349521,-2.77247 c -0.316623,-0.9625 -1.2025,-3.16801 -1.968616,-4.90114 -0.766115,-1.73311 -1.392937,-3.78062 -1.392937,-4.54999 0,-0.76938 -0.500625,-1.8995 -1.1125,-2.51137 -0.611875,-0.61187 -0.916163,-1.70151 -0.676196,-2.42141 0.522711,-1.56814 8.788696,12.01499 8.788696,14.44208 0,2.2305 -2.900824,2.18413 -3.638447,-0.0582 z m 3.029549,-8 c -2.117402,-2.6125 -4.42161,-5.34465 -5.120462,-6.07144 -1.390363,-1.44594 -1.689969,-3.17856 -0.549637,-3.17856 1.279108,0 12.278997,11.39378 12.278997,12.7187 0,2.64031 -2.884748,1.12624 -6.608898,-3.4687 z m 156.644076,2.81574 c -0.56935,-1.06385 -1.06267,-4.32634 -1.09627,-7.25 l -0.0611,-5.31574 -1.72036,5.5 c -1.3333,4.2626 -2.21949,5.57189 -3.9389,5.81955 -2.9802,0.42926 -2.90355,-1.97377 0.30128,-9.44512 2.61841,-6.10425 2.40773,-5.9923 -3.81246,2.02576 -1.53595,1.9799 -3.44845,3.59981 -4.25,3.59981 -2.5322,0 -1.58584,-3.48992 2.12055,-7.82 4.24449,-4.95873 3.84989,-5.22685 -1.73662,-1.18 -4.53139,3.28253 -7.8413,3.88554 -7.8413,1.42856 0,-2.13287 1.49829,-3.4554 8.30933,-7.33458 3.19513,-1.81975 5.65572,-3.46227 5.46798,-3.65001 -0.18774,-0.18774 -4.35439,0.53561 -9.25921,1.60745 -5.94594,1.29936 -9.25116,1.61551 -9.91798,0.94869 -1.75698,-1.75698 0.63918,-2.91802 9.94459,-4.8186 9.58067,-1.95679 9.47705,-2.19963 -1.79471,-4.2063 -5.52371,-0.98336 -6.75,-1.54445 -6.75,-3.08844 0,-2.56779 5.28852,-2.52893 12.17967,0.0895 2.86062,1.08695 5.35922,1.81817 5.55246,1.62493 0.19323,-0.19324 -2.09023,-1.97196 -5.07437,-3.95271 -5.75045,-3.81693 -7.56654,-6.36254 -5.18983,-7.27457 1.14089,-0.43779 6.80062,2.8963 9.54074,5.62038 0.27976,0.27813 1.82098,1.6307 3.42493,3.0057 l 2.91626,2.5 -2.3367,-4 c -1.28518,-2.2 -3.15697,-4.92163 -4.15954,-6.04807 -2.54196,-2.85604 -3.602,-8.45193 -1.60106,-8.45193 2.10868,0 3.23285,1.61 6.66895,9.55108 l 3.00679,6.94892 0.0358,-8.05888 c 0.0364,-8.17669 1.55081,-12.47696 3.88582,-11.03384 1.08481,0.67044 0.92467,6.58776 -0.40624,15.01122 -0.38091,2.4108 0.21516,1.87213 3.42661,-3.09661 3.53034,-5.46211 5.61607,-7.3219 8.21145,-7.3219 1.65569,0 0.96855,2.06648 -2.23578,6.72381 l -3.15398,4.58416 4.6827,-3.22178 c 4.64747,-3.19755 7.59291,-3.68736 8.35784,-1.38987 0.34709,1.04247 -3.04579,3.93774 -9.37213,7.9976 -1.02324,0.65665 0.78374,0.29528 4.0155,-0.80305 6.44265,-2.18956 10.12406,-2.17486 10.12406,0.0404 0,1.2044 -6.33241,3.38493 -15,5.16516 -0.55,0.11297 2.48738,0.49736 6.74973,0.8542 7.36472,0.61658 11.038,2.1038 9.34284,3.78269 -0.42575,0.42167 -3.99575,0.6762 -7.93333,0.56562 -6.72071,-0.18873 -6.97548,-0.1194 -4.15924,1.13187 1.65,0.7331 5.15976,2.10679 7.79947,3.05264 4.86019,1.7415 5.77338,3.76094 1.95582,4.32513 -1.14842,0.16973 -5.16318,-1.12052 -8.92167,-2.86722 -3.75849,-1.74669 -7.28362,-3.38437 -7.83362,-3.63927 -1.58102,-0.73271 8.44802,7.67956 12.25,10.27521 1.2375,0.84485 2.25,2.18559 2.25,2.9794 0,2.93149 -3.88287,1.28283 -10.94607,-4.64769 l -7.25431,-6.09098 5.60019,8.03816 c 3.0801,4.42099 5.60019,8.54323 5.60019,9.16054 0,0.6173 -0.99691,0.97857 -2.21535,0.80282 -1.64975,-0.23797 -3.36586,-2.5394 -6.72178,-9.01443 -2.47854,-4.78218 -4.68166,-8.51966 -4.89582,-8.3055 -0.21416,0.21416 0.15757,4.24252 0.82607,8.95192 1.21049,8.52753 0.96811,11.54845 -0.92655,11.54845 -0.54791,0 -1.46204,-0.87042 -2.03139,-1.93426 z M 33.362412,371.78786 c 0,-0.57868 0.7875,-1.25682 1.75,-1.50698 3.22197,-0.83743 16.25,-0.50689 16.25,0.41229 0,0.49928 -0.5625,0.92539 -1.25,0.94691 -0.6875,0.0215 -4.7375,0.30032 -9,0.61953 -5.123807,0.38373 -7.75,0.22386 -7.75,-0.47175 z M 115.648,358.38425 c -0.55802,-0.70581 -1.2635,-3.75831 -1.56772,-6.7833 -0.30423,-3.025 -0.86335,-6.28751 -1.2425,-7.25 -0.37914,-0.9625 -0.24607,-1.75 0.29572,-1.75 1.08778,0 5.07474,10.11403 5.47535,13.88977 0.28788,2.71327 -1.43943,3.81793 -2.96085,1.89353 z m -13.81042,-1.01281 c -0.38446,-0.98739 0.2273,-3.59015 1.4257,-6.06572 3.00471,-6.20691 2.6576,-6.47427 -2.37852,-1.83213 -4.90855,4.52454 -6.522348,5.09061 -6.522348,2.28782 0,-1.06712 2.559061,-3.82682 6.094398,-6.57226 3.35192,-2.603 5.87304,-4.95409 5.60249,-5.22465 -0.27056,-0.27055 -3.67681,1.11197 -7.569439,3.07227 -7.789052,3.9225 -10.44833,4.44045 -9.950773,1.9381 0.201419,-1.01299 2.962589,-2.51767 7.323324,-3.99079 9.897548,-3.34354 9.932358,-3.45705 0.882681,-2.87792 -6.218147,0.39792 -8.3883,0.19295 -9.275524,-0.87609 -1.631589,-1.96596 0.556511,-2.62912 8.67463,-2.62912 7.664921,0 7.347111,-0.83475 -1.531787,-4.02344 -5.862185,-2.10528 -7.644366,-3.99677 -5.193165,-5.5117 1.674392,-1.03483 5.016893,0.19098 10.909443,4.00086 3.00645,1.94385 5.83042,3.53427 6.27548,3.53427 0.44506,0 -1.90227,-2.65317 -5.21628,-5.89593 -6.192545,-6.05939 -7.549616,-9.10406 -4.057873,-9.10406 1.214971,0 3.556003,2.10381 6.120143,5.5 2.2839,3.02499 4.28024,5.5 4.43632,5.5 0.15608,0 -0.57298,-2.25484 -1.62014,-5.01074 -2.01169,-5.29433 -2.49409,-9.98926 -1.02637,-9.98926 1.64016,0 2.89704,2.48752 4.17163,8.25616 0.6995,3.16589 1.44515,5.58283 1.65699,5.37099 0.21184,-0.21184 1.15211,-3.21548 2.08949,-6.67476 2.02521,-7.47374 4.20433,-9.08092 4.20433,-3.10082 0,2.21003 -0.46259,5.23494 -1.02798,6.72202 -1.70552,4.48587 -0.46272,3.76969 3.13075,-1.80415 3.13132,-4.85698 4.93574,-6.17199 5.61826,-4.09444 0.25692,0.78204 -1.48278,3.75455 -5.44795,9.30853 -1.34344,1.88175 -0.10418,1.32139 5.11434,-2.31257 4.05499,-2.82372 7.25564,-4.4279 7.78279,-3.90075 1.6138,1.6138 -0.20297,3.92976 -5.22836,6.66492 -2.71802,1.47933 -4.94185,2.94458 -4.94185,3.25611 0,0.31153 2.3625,0.22442 5.25,-0.19358 2.8875,-0.418 6.08836,-0.7251 7.11303,-0.68247 5.6287,0.23423 1.20651,4.151 -4.80416,4.25509 -2.23238,0.0387 -4.95887,0.45702 -6.05887,0.92971 -1.64026,0.70485 -1.37046,0.87405 1.5,0.94072 6.53677,0.15182 11,1.27122 11,2.75885 0,1.18383 -1.45761,1.32961 -8.25,0.82507 -7.49608,-0.55681 -8.02154,-0.48154 -5.75,0.8236 1.375,0.79003 4.45934,2.02013 6.85409,2.73356 4.0809,1.21576 6.16994,3.22751 4.78728,4.61016 -0.82263,0.82264 -12.73455,-5.44963 -14.78994,-7.7877 -1.27227,-1.44725 -1.76677,-1.56725 -2.16643,-0.52578 -0.29552,0.77012 2.02232,3.8632 5.39857,7.20423 5.61646,5.55784 7.49786,9.4173 4.59074,9.4173 -1.685,0 -4.28986,-2.9765 -9.0275,-10.31545 -2.06478,-3.1985 -4.29249,-5.63211 -4.95048,-5.40805 -0.68294,0.23257 -1.25595,2.51363 -1.33526,5.31545 -0.0764,2.69942 -0.18892,6.59555 -0.25,8.65805 -0.0775,2.6173 -0.56415,3.75 -1.61107,3.75 -1.78,0 -2.04543,-5.6114 -0.51745,-10.93915 0.5404,-1.88427 0.61626,-3.0063 0.16858,-2.4934 -0.44769,0.5129 -1.3448,2.80133 -1.99358,5.08539 -0.64879,2.28406 -2.04122,5.20906 -3.09429,6.5 -1.71645,2.10416 -1.98439,2.1681 -2.58809,0.61765 z m 139.02448,-21.77106 c -0.376,-0.60838 -0.43246,-3.89463 -0.12547,-7.30279 l 0.55818,-6.19664 -1.36934,4.13479 c -1.98033,5.97971 -3.43418,8.36521 -5.0982,8.36521 -2.00917,0 -1.83581,-2.98474 0.52059,-8.96299 1.09197,-2.77035 1.54197,-5.03701 1,-5.03701 -0.54198,0 -0.98541,0.52001 -0.98541,1.15561 0,2.52329 -5.12201,7.84439 -7.55089,7.84439 -1.34701,0 -2.44911,-0.26803 -2.44911,-0.59564 0,-0.82491 4.07165,-6.57933 5.95256,-8.41269 5.66886,-5.52552 5.47425,-6.12433 -0.83194,-2.55986 -6.54087,3.69713 -11.12062,4.59928 -11.12062,2.19062 0,-1.85633 1.94141,-3.34687 8.75583,-6.72233 l 5.74417,-2.84533 -8.25,0.60174 c -7.79974,0.5689 -8.25,0.49191 -8.25,-1.41075 0,-2.57544 1.9098,-3.03205 11.06077,-2.64448 7.17359,0.30381 7.31425,0.26657 3.93923,-1.04301 -1.925,-0.74695 -5.6375,-1.91161 -8.25,-2.58814 -3.53478,-0.91536 -4.75,-1.70847 -4.75,-3.10009 0,-2.38377 1.69236,-2.35628 8,0.12996 7.37446,2.90674 7.80247,2.49235 2.0898,-2.02325 -2.79939,-2.21279 -5.0898,-4.46279 -5.0898,-5 0,-1.7569 2.62689,-1.02927 6.59996,1.82812 6.34507,4.56332 6.70428,4.61198 4.01186,0.54346 -1.4126,-2.13458 -2.85939,-5.33619 -3.21509,-7.11469 -0.55896,-2.79479 -0.37139,-3.23364 1.38207,-3.23364 1.56945,0 2.69948,1.60647 4.991,7.09531 l 2.96219,7.09532 0.47076,-8.13208 c 0.51579,-8.90991 1.84418,-11.7079 3.81246,-8.03014 0.72044,1.34615 1.03844,4.78807 0.79525,8.60736 -0.44871,7.04688 0.18158,8.04058 1.96746,3.10183 1.68469,-4.65891 6.57569,-10.25513 8.12563,-9.29722 1.72946,1.06887 0.55429,5.22679 -2.5048,8.86231 -1.35925,1.61538 -3.17971,4.30684 -4.04546,5.98101 l -1.57409,3.04394 2.8604,-2.2114 c 8.7616,-6.77366 10.83106,-8.11624 12.51044,-8.11624 3.76369,0 1.25953,3.88698 -5.15668,8.00425 -2.78817,1.78918 -4.92716,3.39527 -4.75331,3.56913 0.17386,0.17385 2.10347,-0.0983 4.28802,-0.60479 5.16728,-1.19803 11.20032,-1.21709 11.92922,-0.0377 0.88731,1.43569 -1.40249,2.47325 -7.95729,3.60567 l -6,1.03656 6.30484,1.27455 c 6.20164,1.25368 8.56543,3.18205 6.4696,5.27788 -0.65484,0.65484 -3.1146,0.27579 -7.24951,-1.11716 -3.4421,-1.15956 -6.43037,-1.9363 -6.64059,-1.72607 -0.21022,0.21022 1.80585,1.80003 4.48015,3.53292 5.68323,3.68261 7.55805,5.69204 6.66258,7.14095 -1.21312,1.96287 -3.35476,1.04165 -9.48327,-4.07922 -6.28518,-5.25177 -8.73353,-6.19952 -4.72447,-1.82882 3.57302,3.8953 9.68067,12.15751 9.68067,13.09564 0,0.47091 -0.88954,0.8562 -1.97675,0.8562 -1.18311,0 -3.59202,-2.04349 -6,-5.0898 -4.4058,-5.57376 -4.57492,-5.45275 -2.8462,2.03646 0.73051,3.16475 0.82218,5.45411 0.24164,6.03465 -1.63633,1.63633 -3.43608,-0.48518 -4.28734,-5.05383 -0.71628,-3.84424 -0.90781,-4.09815 -1.45395,-1.92748 -0.34594,1.375 -0.75238,3.8153 -0.90319,5.42288 -0.28637,3.05251 -2.09896,4.47872 -3.27456,2.57656 z M 39.739046,332.14006 c -0.383269,-0.99879 0.05987,-4.969 0.984762,-8.8227 0.924888,-3.8537 1.519474,-7.16888 1.321302,-7.36704 -0.198171,-0.19818 -1.638634,2.90465 -3.201027,6.89516 -2.791867,7.13071 -4.981206,10.18281 -6.590782,9.18804 -1.075087,-0.66445 0.304533,-4.1458 3.988464,-10.06456 1.650434,-2.65166 2.806085,-5.01591 2.568112,-5.25388 -0.237973,-0.23797 -3.101623,2.11307 -6.363668,5.22453 -3.936968,3.75523 -6.460983,5.45383 -7.507394,5.05229 -2.17721,-0.83548 -1.973138,-2.01576 0.673597,-3.89585 9.528148,-6.76825 14.770914,-10.80752 14.447449,-11.13098 -0.209619,-0.20962 -3.549205,0.92528 -7.421302,2.52201 -8.529481,3.51726 -13.276147,4.67157 -13.276147,3.22851 0,-1.46202 2.480951,-2.61618 10,-4.65206 8.971782,-2.42924 9.371419,-3.29082 1.392097,-3.00122 -3.736193,0.1356 -7.691258,0.0117 -8.789036,-0.27541 -1.960624,-0.51272 -1.961501,-0.53463 -0.04951,-1.23809 1.070546,-0.39387 3.741334,-0.51333 5.935084,-0.26547 2.19375,0.24786 5.56875,0.14543 7.5,-0.22762 3.460828,-0.6685 3.404495,-0.71228 -3.914227,-3.0421 -4.084075,-1.30012 -7.879075,-2.81734 -8.433333,-3.3716 -2.382992,-2.383 0.719414,-1.9124 8.958924,1.35892 4.85554,1.9278 8.975902,3.35744 9.156362,3.17698 0.355288,-0.35529 -3.004915,-3.13857 -10.194008,-8.44376 -4.49156,-3.31456 -5.93244,-6.13321 -3.135259,-6.13321 0.784902,0 4.159642,2.77526 7.499423,6.16724 3.33978,3.39198 6.304064,5.9355 6.587296,5.65227 0.283233,-0.28323 -0.575519,-2.94599 -1.908336,-5.91724 -3.214233,-7.1655 -4.294564,-12.29753 -2.460958,-11.69059 1.747948,0.57858 3.340699,3.82252 5.542486,11.28832 1.656976,5.61845 1.809271,5.80923 2.394969,3 0.34401,-1.65001 0.431074,-4.8 0.193476,-7 -0.502288,-4.65087 1.771873,-8.80584 3.752061,-6.85517 0.882024,0.86888 0.686468,2.97799 -0.811298,8.75 -1.085397,4.18284 -1.578071,7.60517 -1.094831,7.60517 0.48324,0 0.878618,-0.4466 0.878618,-0.99243 0,-2.18532 9.43703,-14.00757 11.18144,-14.00757 2.934133,0 2.123068,2.54832 -2.692947,8.46109 -4.950866,6.07831 -4.987999,6.76079 -0.171771,3.15695 5.214215,-3.90163 9.79055,-5.91077 10.911048,-4.79028 1.509955,1.50996 0.256221,2.79476 -6.011732,6.16075 -3.143821,1.68827 -6.841038,3.93301 -8.216038,4.98832 l -2.5,1.91873 3.5,-0.90334 c 12.776529,-3.29761 14.887979,-3.6795 16.123142,-2.91612 2.320087,1.43389 -0.311232,2.90427 -7.175671,4.00975 -3.518267,0.5666 -6.562936,1.19628 -6.765932,1.39927 -0.460524,0.46052 6.760786,2.50172 8.877331,2.5093 0.857379,0.003 2.432379,0.66626 3.5,1.47377 1.896646,1.43455 1.890695,1.46893 -0.259649,1.5 -1.210428,0.0175 -4.473314,-0.45557 -7.250857,-1.05125 -2.777542,-0.59566 -5.509949,-0.92975 -6.072015,-0.74239 -0.562065,0.18736 1.68832,2.3143 5.000857,4.72654 3.312537,2.41226 6.022794,4.77135 6.022794,5.24242 0,1.88144 -4.045946,0.6705 -8.887788,-2.6601 -2.811717,-1.93411 -5.112212,-3.36539 -5.112212,-3.1806 0,0.18479 1.8,2.74852 4,5.69719 4.461335,5.97953 4.789683,7.00081 2.25,6.9982 -2.59885,-0.003 -10.221653,-12.75518 -10.280409,-17.19855 -0.02867,-2.1683 -0.09379,-2.19049 -1.139889,-0.38848 -0.81922,1.41118 -0.805418,2.39806 0.05276,3.77221 2.470618,3.95609 5.232445,12.87922 4.601541,14.86703 -1.734646,5.46538 -6.133412,-2.24003 -6.593749,-11.55042 -0.08158,-1.65 -0.565436,0.375 -1.075233,4.5 -0.973447,7.8766 -3.113013,11.99297 -4.438382,8.53911 z"
           id="path620"
           inkscape:connector-curvature="0"
           sodipodi:nodetypes="ccccssssscccsccccscsssscscssccsscsscssscscscscccccssccccccsscscsccsccssssssccscccsssccsccsscssccssscccscssssscsccssccccsccssscscsccsccscccccccssssscsscsscscsccccccssssssscscsscssscscscscssscscscssscccsssssscssscscscsscsssscsscscssssssssccccscccssccccscccsscsccscsssccccssssssscscsccssccccccccsscccccsccccccsccccccccccsscsscssssccscsccscccsscsscssccssccsccsscscssscscscccccssssccsssscsccccsscccsscccssccsssssssccsccssccssssscsssccssssccscsscccccccsscscscsscsssccscscscssscsccscsccsccscccsscscssscssssccccccccscccccscscsccscccsscc" />
      </g>
    </g>
  </g>
</svg>
