<?xml version="1.0" encoding="UTF-8" standalone="no"?>
<!-- Created with Inkscape (http://www.inkscape.org/) -->

<svg
   xmlns:dc="http://purl.org/dc/elements/1.1/"
   xmlns:cc="http://creativecommons.org/ns#"
   xmlns:rdf="http://www.w3.org/1999/02/22-rdf-syntax-ns#"
   xmlns:svg="http://www.w3.org/2000/svg"
   xmlns="http://www.w3.org/2000/svg"
   xmlns:sodipodi="http://sodipodi.sourceforge.net/DTD/sodipodi-0.dtd"
   xmlns:inkscape="http://www.inkscape.org/namespaces/inkscape"
   version="1.1"
   id="svg2949"
   width="283"
   height="443"
   viewBox="0 0 283 443"
   sodipodi:docname="feu107.svg"
   inkscape:version="0.92.4 (5da689c313, 2019-01-14)">
  <metadata
     id="metadata2955">
    <rdf:RDF>
      <cc:Work
         rdf:about="">
        <dc:format>image/svg+xml</dc:format>
        <dc:type
           rdf:resource="http://purl.org/dc/dcmitype/StillImage" />
        <dc:title></dc:title>
      </cc:Work>
    </rdf:RDF>
  </metadata>
  <defs
     id="defs2953" />
  <sodipodi:namedview
     pagecolor="#ffffff"
     bordercolor="#666666"
     borderopacity="1"
     objecttolerance="10"
     gridtolerance="10"
     guidetolerance="10"
     inkscape:pageopacity="0"
     inkscape:pageshadow="2"
     inkscape:window-width="1280"
     inkscape:window-height="972"
     id="namedview2951"
     showgrid="false"
     inkscape:zoom="1.0654628"
     inkscape:cx="160.15892"
     inkscape:cy="221.34636"
     inkscape:window-x="-8"
     inkscape:window-y="-8"
     inkscape:window-maximized="1"
     inkscape:current-layer="g151"
     showguides="true" />
  <g
     id="g151"
     transform="translate(25.882805,-2.654647)">
    <path
       style="fill:#ff0000"
       d="m 125.83117,388.81255 c -1.78588,-2.15184 -0.4835,-4.51273 2.48943,-4.51273 1.40952,0 2.82399,0.68073 3.14326,1.51273 0.66274,1.72708 -1.27073,4.48727 -3.14326,4.48727 -0.69031,0 -1.81055,-0.66927 -2.48943,-1.48727 z m -11.58351,-1.27804 c -2.11258,-1.44657 -2.40391,-4.17671 -0.55149,-5.16809 2.81887,-1.50862 6.12443,-0.19002 6.12443,2.44304 0,2.86095 -3.13543,4.39411 -5.57294,2.72505 z m 23.77294,-1.43469 c -1.75065,-1.75065 -1.47035,-3.58495 0.72756,-4.76123 2.28207,-1.22133 4.683,-0.49601 5.51237,1.6653 1.26616,3.29956 -3.61468,5.72118 -6.23993,3.09593 z m 8.18814,-8.28018 c -1.50324,-1.11674 -1.66347,-1.77136 -0.78601,-3.21125 1.4292,-2.34529 4.73198,-2.81585 6.32147,-0.90063 2.40574,2.89874 -2.38157,6.45488 -5.53546,4.11188 z m -38.72147,-0.18649 c -0.36667,-0.36666 -0.66667,-1.97155 -0.66667,-3.56642 0,-2.57341 0.30949,-2.86414 2.75,-2.58333 2.02253,0.23272 2.83928,0.94784 3.08749,2.70333 0.43468,3.07427 -3.15224,5.46501 -5.17082,3.44642 z m 24.3439,-0.8206 c -1.59749,-1.92485 -0.58931,-4.51273 1.75805,-4.51273 2.81754,0 4.31516,1.97495 3.14939,4.1532 -1.19345,2.22999 -3.2312,2.37928 -4.90744,0.35953 z m -11.85005,-3.05978 c -1.56793,-3.44121 -1.56204,-3.45295 1.73249,-3.45295 3.01897,0 4.47204,1.88513 3.46862,4.5 -0.90603,2.36106 -3.92521,1.75326 -5.20111,-1.04705 z m -5.58711,-7.0224 c -2.34192,-2.34192 -0.29953,-5.65016 3.2353,-5.24048 3.25833,0.37763 4.20147,3.5981 1.6089,5.49383 -2.30987,1.68902 -2.9345,1.65636 -4.8442,-0.25335 z m 21.81392,0.13642 c -0.88007,-2.2934 0.28559,-4.56924 2.33129,-4.55166 2.77554,0.0239 4.51257,1.54311 4.12122,3.60452 -0.46289,2.43827 -5.59144,3.19107 -6.45251,0.94714 z m 13.79211,-0.85076 c -1.57013,-1.89188 0.78399,-5.06248 3.38666,-4.56126 2.78863,0.53705 2.66059,5.24122 -0.15361,5.64331 -1.14812,0.16404 -2.603,-0.32288 -3.23305,-1.08205 z m -46.92944,-0.37849 c -1.97381,-0.79645 -1.45582,-4.13762 0.75,-4.83772 2.55087,-0.80961 6,0.26386 6,1.86739 0,2.80829 -3.42089,4.31365 -6.75,2.97033 z m 22.8062,-1.23271 c -1.36409,-2.54882 1.03409,-4.55015 4.43081,-3.69763 2.70582,0.67912 3.23986,2.46575 1.31299,4.39262 -1.79011,1.79011 -4.59548,1.45066 -5.7438,-0.69499 z M 59.751038,360.716 c -0.950061,-1.14476 -1.024998,-2.04572 -0.270317,-3.25 2.529479,-4.0364 8.603983,-1.39669 6.374094,2.7699 -1.314209,2.45562 -4.271209,2.68821 -6.103777,0.4801 z m 11.023321,-2.03782 c -1.340765,-3.52648 0.422382,-5.57354 4.461071,-5.17943 2.348605,0.22919 3.163185,0.85139 3.411935,2.60611 0.74011,5.22084 -6.025646,7.43225 -7.873006,2.57332 z m 61.128231,-2.22516 c -1.86414,-3.48317 3.30564,-5.80092 5.91801,-2.6532 0.99319,1.19672 0.99319,1.80328 0,3 -1.7094,2.0597 -4.72466,1.883 -5.91801,-0.3468 z m -10.03583,-0.59758 c -1.81532,-2.18733 -0.52119,-4.76208 2.19937,-4.37576 1.64895,0.23416 2.25447,0.98793 2.25447,2.80644 0,2.91773 -2.58023,3.82688 -4.45384,1.56932 z m -75.807834,-0.7173 c -2.098151,-2.09815 -1.443234,-4.74879 1.346315,-5.44892 3.434399,-0.86198 6.390052,1.83675 4.796286,4.37936 -1.353831,2.15984 -4.503841,2.70832 -6.142601,1.06956 z m 100.146454,0.39637 c -0.61337,-0.40408 -1.4225,-1.71978 -1.79806,-2.92379 -0.89902,-2.88214 2.42062,-4.91252 5.41328,-3.3109 2.54506,1.36207 2.58095,4.61872 0.0657,5.96482 -2.27538,1.21774 -2.24546,1.21555 -3.68096,0.26987 z m -36.6722,-1.85545 c -1.08689,-1.08689 -0.84882,-5.17701 0.34426,-5.91437 0.58125,-0.35923 2.18463,-0.3701 3.56305,-0.0241 2.02025,0.50704 2.44552,1.1555 2.19317,3.34414 -0.23743,2.05915 -0.92609,2.78661 -2.85048,3.01103 -1.39559,0.16275 -2.85809,-0.0247 -3.25,-0.41667 z m -26.530725,-1.96442 c -4.1778,-2.92625 -1.57545,-7.76621 2.89059,-5.37605 2.219,1.18757 2.53614,4.21127 0.60941,5.81031 -0.97202,0.8067 -1.89108,0.69267 -3.5,-0.43426 z m -21.82511,-1.92755 c -0.584392,-1.52291 1.195494,-4.48727 2.694276,-4.48727 0.44337,0 1.528803,0.72268 2.412074,1.60595 1.239925,1.23992 1.342256,1.92367 0.448983,3 -1.534474,1.84892 -4.827286,1.77858 -5.555333,-0.11868 z m 10.705561,-2.44877 c -0.692498,-0.42798 -1.096148,-1.62423 -0.896998,-2.65833 0.517644,-2.68791 6.334698,-2.68307 6.334698,0.005 0,2.12366 -3.517455,3.83983 -5.437699,2.65305 z m 62.137694,-0.2385 c -3.20225,-3.20225 0.17694,-7.86055 4.32961,-5.96846 2.96734,1.35201 3.25795,4.6766 0.53613,6.13328 -2.49429,1.3349 -3.39658,1.30434 -4.86574,-0.16482 z m -93.841347,-1.84135 c -1.62943,-1.62943 -0.521623,-4.68277 1.93177,-5.32435 2.712462,-0.70932 4.888429,1.11444 4.507839,3.77819 -0.338895,2.37194 -4.592531,3.39324 -6.439609,1.54616 z m 81.353927,0.42059 c -1.5249,-1.5249 -0.67987,-5.25485 1.33541,-5.89447 2.62671,-0.83369 5.13432,1.23972 4.75027,3.92772 -0.30019,2.10101 -4.57115,3.48128 -6.08568,1.96675 z m 75.91405,-0.89547 c -2.39406,-2.39405 -0.39659,-5.70813 3.19063,-5.2937 2.24528,0.25939 2.68274,0.79912 2.68274,3.30993 0,2.2972 -0.4979,3.07103 -2.12535,3.30322 -1.16895,0.16677 -2.85556,-0.42698 -3.74802,-1.31945 z M 52.070605,344.65604 c -2.286296,-0.95638 -1.400224,-4.28041 1.323216,-4.96395 2.990201,-0.75049 4.765213,0.6042 4.260349,3.25151 -0.351598,1.84365 -3.189338,2.71396 -5.583565,1.71244 z m 130.134035,-3.79781 c -1.06236,-2.76846 0.0934,-5.05378 2.71011,-5.35897 3.44986,-0.40235 5.42171,1.96815 3.94006,4.73664 -1.28025,2.39217 -5.80841,2.81593 -6.65017,0.62233 z M 64.182231,338.79982 c -0.819761,-2.13626 0.303472,-4.5 2.138374,-4.5 2.120214,0 3.006376,2.68493 1.489431,4.51273 -1.574899,1.89764 -2.896506,1.893 -3.627805,-0.0127 z m 20.350954,0.87924 c -1.18957,-1.18956 -0.79933,-4.06235 0.7235,-5.32619 2.13911,-1.7753 5.77748,0.4347 5.3746,3.26461 -0.31174,2.18978 -4.54035,3.61934 -6.0981,2.06158 z M 210.5706,338.21972 c -2.60976,-1.52004 -2.19993,-4.76887 0.69316,-5.49499 1.34375,-0.33726 2.91875,-0.31927 3.5,0.04 1.41968,0.87741 1.33986,3.85211 -0.14316,5.33513 -1.4329,1.4329 -1.77816,1.44312 -4.05,0.1199 z M 72.394016,335.73037 c -3.15904,-3.15904 1.420433,-6.98556 5.369729,-4.48685 1.16835,0.73921 1.22004,1.40275 0.27144,3.48469 -1.334396,2.92868 -3.355582,3.28775 -5.641169,1.00216 z M 173.5706,334.21972 c -2.40062,-1.39823 -2.27642,-5.54898 0.18531,-6.19273 1.97462,-0.51638 6.06469,1.68091 6.06469,3.25811 0,1.04478 -2.86065,4.02737 -3.82143,3.98431 -0.37321,-0.0167 -1.46607,-0.48908 -2.42857,-1.04969 z m 18.82143,-0.49133 c -2.09566,-2.09566 -1.9831,-3.02682 0.58318,-4.82431 3.91563,-2.74262 8.00732,1.83381 4.64539,5.19574 -1.62976,1.62976 -3.34956,1.50759 -5.22857,-0.37143 z M 40.967756,332.97713 c -1.564102,-1.88463 -0.528884,-4.34422 2.119988,-5.03692 2.733182,-0.71474 4.91292,1.09987 4.531119,3.7721 -0.361844,2.53256 -4.8851,3.39272 -6.651107,1.26482 z m 12.424278,-0.24874 c -1.886034,-1.88603 -1.952886,-2.64711 -0.371429,-4.22857 3.019322,-3.01932 7.808317,0.0474 5.83421,3.73608 -1.318214,2.4631 -3.312387,2.64289 -5.462781,0.49249 z M 63.940581,328.524 c -1.241479,-2.31973 0.367774,-5.22418 2.89453,-5.22418 2.503061,0 4.124428,3.00035 2.851012,5.27582 -1.254936,2.24245 -4.533554,2.21298 -5.745542,-0.0516 z m 19.467034,-0.5369 c -2.61207,-1.90999 -1.27593,-5.68728 2.01176,-5.68728 2.78994,0 4.20759,2.4981 2.73893,4.8264 -1.37696,2.18294 -2.63171,2.41032 -4.75069,0.86088 z m 97.494975,-1.53408 c -1.22449,-2.28798 0.37011,-4.1532 3.55062,-4.1532 2.2877,0 4.05742,3.07449 2.87292,4.99105 -1.04456,1.69014 -5.37274,1.12559 -6.42354,-0.83785 z m 22.30205,0.40521 c -1.61201,-4.20084 1.94949,-7.08203 4.9926,-4.03891 1.22881,1.22881 1.37019,2.08503 0.58619,3.54995 -1.20942,2.25983 -4.77918,2.57271 -5.57879,0.48896 z m 12.28263,-0.22508 c -1.26957,-1.26956 -0.65982,-5.12198 0.90577,-5.72276 1.72437,-0.6617 5.42756,0.9368 5.42756,2.34283 0,3.3363 -4.15797,5.5553 -6.33333,3.37993 z m -24.22554,-3.77476 c -2.69008,-1.99759 -0.78147,-5.05857 3.15416,-5.05857 3.21121,0 4.41743,2.57482 2.36484,5.04804 -1.52259,1.8346 -3.05863,1.83753 -5.519,0.0105 z M 49.405786,320.11797 c -2.698389,-3.85249 1.736284,-6.49723 5.850302,-3.48898 1.506337,1.10146 1.618709,1.70105 0.655946,3.5 -1.490786,2.78555 -4.55108,2.78037 -6.506248,-0.011 z m 120.720954,-0.46276 c -0.5639,-1.46948 1.88369,-4.35539 3.69386,-4.35539 1.84231,0 4.04157,2.72809 3.44744,4.27638 -0.87315,2.2754 -6.27554,2.33517 -7.1413,0.079 z m -96.922093,-1.79698 c -1.156123,-3.0128 0.06542,-5.05841 3.020667,-5.05841 3.585711,0 5.553831,2.64011 3.664861,4.91618 -1.64253,1.97912 -5.945519,2.07067 -6.685528,0.14223 z m -10.337879,-1.00279 c -2.700693,-3.25413 1.768721,-7.16931 4.764428,-4.1736 1.273547,1.27355 1.403968,2.05494 0.565275,3.38674 -1.460159,2.31867 -3.774811,2.66039 -5.329703,0.78686 z m 139.342372,-1.98548 c -0.99567,-2.59467 0.39988,-4.73919 2.85699,-4.39028 1.65273,0.23469 2.25447,0.98741 2.25447,2.82014 0,1.83273 -0.60174,2.58545 -2.25447,2.82014 -1.35228,0.19202 -2.49559,-0.3082 -2.85699,-1.25 z m -18.13854,-0.23242 c -1.79597,-0.72469 -1.54282,-5.28812 0.33328,-6.00805 0.91148,-0.34977 2.42854,0.2377 3.57539,1.38456 1.84972,1.84971 1.8744,2.10984 0.3453,3.63894 -1.7148,1.71481 -2.17833,1.82209 -4.25397,0.98455 z m 30.45885,0.0378 c -1.54883,-1.54884 -0.6698,-5.25314 1.40266,-5.91091 2.94593,-0.935 5.76929,1.91133 4.26941,4.30415 -1.15439,1.84167 -4.49177,2.78706 -5.67207,1.60676 z m -91.10803,-4.67814 c -2.63979,-1.93026 -1.67483,-5.12918 1.66342,-5.51435 3.10042,-0.35774 4.7019,2.06177 3.07346,4.64337 -1.37486,2.17961 -2.63128,2.41063 -4.73688,0.87098 z m 69.59918,0.10262 c -2.58287,-2.58287 0.085,-6.47909 3.65963,-5.34455 2.66804,0.8468 3.37437,3.16769 1.52645,5.01561 -1.83875,1.83875 -3.56667,1.94835 -5.18608,0.32894 z m -19.45,-0.8801 c -4.10398,-2.39035 -0.56184,-7.55653 4,-5.83396 2.7785,1.04918 2.96184,4.46273 0.31574,5.87888 -2.30203,1.23201 -2.12014,1.2339 -4.31574,-0.0449 z m -63.70384,-1.36428 c -2.70069,-3.25413 1.76872,-7.16931 4.76443,-4.1736 1.27355,1.27355 1.40397,2.05494 0.56528,3.38674 -1.46016,2.31867 -3.77482,2.66039 -5.32971,0.78686 z m 24.66642,-3.17638 c -1.30726,-1.30725 -0.73338,-5.15728 0.85986,-5.76867 2.50067,-0.95959 5.59123,1.22759 5.23824,3.70709 -0.31174,2.18978 -4.54035,3.61934 -6.0981,2.06158 z m 72.48742,-0.57924 c -1.64203,-1.64203 -1.50671,-4.30056 0.29499,-5.79585 1.20476,-0.99985 1.98133,-0.92208 4,0.40061 2.9149,1.90992 3.09238,2.86501 0.93358,5.02381 -1.87901,1.87902 -3.59881,2.00119 -5.22857,0.37143 z m -23.53333,-2.46667 c -0.36667,-0.36666 -0.66667,-1.94166 -0.66667,-3.5 0,-2.13168 0.47759,-2.83333 1.92857,-2.83333 3.06813,0 5.26795,2.76429 4.03426,5.06945 -1.0097,1.88664 -3.96754,2.5925 -5.29616,1.26388 z M 52.81086,299.28161 c -1.770788,-3.30875 -0.515868,-5.15886 3.25287,-4.79566 2.882334,0.27777 3.256875,0.65887 3.256875,3.31387 0,2.51081 -0.437458,3.05054 -2.682742,3.30993 -1.916349,0.22139 -3.009628,-0.30086 -3.827003,-1.82814 z m 14.397071,-0.41482 c -1.073537,-2.79759 0.401522,-4.72389 3.356988,-4.38394 2.188206,0.2517 2.755686,0.8318 2.755686,2.81697 0,1.98517 -0.56748,2.56527 -2.755686,2.81697 -1.797064,0.20671 -2.964861,-0.22813 -3.356988,-1.25 z m 128.228899,-1.0936 c -3.5085,-3.5085 -0.67924,-6.73437 4.02609,-4.59048 2.8318,1.29026 2.72864,2.79487 -0.3309,4.82633 -1.79749,1.19348 -2.29779,1.16155 -3.69519,-0.23585 z m -82.61623,-0.46022 c -1.15766,-0.73798 -1.24875,-1.36211 -0.39914,-2.73468 1.49606,-2.41692 5.95417,-2.88042 6.78865,-0.70582 1.29119,3.3648 -2.93691,5.64147 -6.38951,3.4405 z m 13.01057,-0.50042 c -1.73061,-2.08525 -0.51596,-4.51273 2.25805,-4.51273 3.27025,0 4.88725,1.84023 3.64939,4.1532 -1.19045,2.22437 -4.20737,2.40799 -5.90744,0.35953 z m -24.81057,-0.71273 c -3.128795,-3.1288 0.93518,-6.79447 4.64891,-4.19327 1.73526,1.21542 1.9546,1.89189 1.11942,3.45244 -1.16975,2.18571 -3.96452,2.54464 -5.76833,0.74083 z m 41.18733,-0.23303 c -1.07354,-2.79759 0.40152,-4.72389 3.35698,-4.38394 2.18821,0.2517 2.75569,0.8318 2.75569,2.81697 0,1.98517 -0.56748,2.56527 -2.75569,2.81697 -1.79706,0.20671 -2.96486,-0.22813 -3.35698,-1.25 z M 43.009457,295.5409 c -1.271132,-0.21791 -2.558976,-1.04204 -2.861876,-1.83138 -1.333152,-3.47414 5.069934,-6.04623 7.565644,-3.03909 1.6439,1.98078 -1.652131,5.39362 -4.703768,4.87047 z m 16.986908,-5.36772 c -3.256197,-1.21021 -2.469559,-4.28042 1.204614,-4.70154 3.336119,-0.38237 4.939534,0.83094 4.075091,3.08364 -0.822875,2.14438 -2.48924,2.65502 -5.279705,1.6179 z m 16.413977,-0.50011 c -1.36517,-3.55757 3.888123,-5.91224 6.410263,-2.87325 0.99319,1.19672 0.99319,1.80328 0,3 -1.6542,1.99319 -5.62691,1.91464 -6.410263,-0.12675 z m 57.119108,-1.99773 c -1.05047,-1.05048 -0.859,-4.16469 0.3001,-4.88105 2.01355,-1.24444 5.11945,0.59439 4.79935,2.84142 -0.30504,2.14122 -3.65712,3.48196 -5.09945,2.03963 z m -22.45885,-1.09398 c -0.6875,-0.24651 -1.25,-1.5656 -1.25,-2.9313 0,-2.11722 0.40393,-2.43646 2.74145,-2.16666 1.6058,0.18534 2.87355,1.01341 3.06033,1.99895 0.34835,1.83799 -2.55528,3.81488 -4.55178,3.09901 z m 10.41864,-1.09519 c -1.2661,-1.39903 -1.37011,-2.08488 -0.45499,-3 2.83769,-2.83769 8.2969,0.28862 5.78635,3.31365 -1.65297,1.9917 -3.33457,1.89277 -5.33136,-0.31365 z m -87.080899,-2.0894 c -3.397245,-3.75392 -0.50281,-7.0454 4.984437,-5.66819 1.734417,0.43531 2.427827,1.30107 2.427827,3.03128 0,3.88505 -4.752614,5.57579 -7.412264,2.63691 z m 13.612265,0.70305 c -3.187336,-3.18734 0.762929,-7.96057 4.799999,-5.8 3.406211,1.82295 1.927053,7 -2,7 -0.88,0 -2.14,-0.54 -2.799999,-1.2 z m 49.838769,-0.72756 c -1.30715,-2.44244 -0.41868,-4.81709 2.1016,-5.61699 4.143665,-1.31515 6.742095,4.46671 2.925365,6.50937 -2.77407,1.48463 -3.857785,1.29225 -5.026965,-0.89238 z m 46.161225,0.72756 c -2.06345,-2.06345 -1.38476,-4.71552 1.38464,-5.4106 3.7193,-0.93348 6.08889,1.55924 4.26241,4.48391 -1.47763,2.36605 -3.82284,2.7509 -5.64705,0.92669 z m -75.811455,-5.22986 c -0.995668,-2.59467 0.399883,-4.73919 2.856989,-4.39028 1.652733,0.23469 2.254471,0.98741 2.254471,2.82014 0,1.83273 -0.601738,2.58545 -2.254471,2.82014 -1.352278,0.19202 -2.495586,-0.3082 -2.856989,-1.25 z M 56.28098,276.17497 c -0.599881,-1.89005 0.691018,-3.80757 2.598495,-3.85984 1.730683,-0.0474 4.19127,2.89045 3.634995,4.34008 -0.939995,2.44959 -5.412972,2.10498 -6.23349,-0.48024 z m 24.231365,1.35575 c -2.6496,-0.58609 -1.90026,-5.62967 0.89577,-6.02916 2.51021,-0.35865 4.67735,1.94448 3.85242,4.09419 -0.70715,1.84282 -2.27546,2.48193 -4.74819,1.93497 z m 34.955145,-1.06859 c -1.55551,-1.71882 -1.53858,-1.95036 0.26183,-3.5797 3.38024,-3.05908 8.09906,1.00961 4.89128,4.21739 -1.68576,1.68576 -3.22252,1.49559 -5.15311,-0.63769 z m 10.71474,-0.66231 c -0.8975,-2.33883 0.3696,-4.5 2.63837,-4.5 2.54422,0 3.65103,2.51064 1.98943,4.51273 -1.58792,1.91334 -3.89113,1.907 -4.6278,-0.0127 z m 13.36255,-1.63448 c -3.69509,-2.06787 -0.87249,-7.24008 3.34868,-6.13622 1.95142,0.51031 3.26366,2.91718 2.37469,4.35556 -1.1481,1.85767 -4.00018,2.745 -5.72337,1.78066 z m -95.057508,-2.53219 c -1.329625,-1.32962 -0.622114,-4.28681 1.267592,-5.29815 2.614277,-1.39912 2.829503,-1.34511 4.099951,1.02874 0.819897,1.53199 0.797407,2.43404 -0.08726,3.5 -1.242969,1.49769 -4.131157,1.91854 -5.280283,0.76941 z m 58.940318,-0.91512 c -0.81131,-2.11423 -0.82521,-2.05713 0.92735,-3.8097 1.22647,-1.22647 2.02909,-1.30892 4,-0.41091 1.35611,0.61789 2.46566,1.6362 2.46566,2.26292 0,3.2739 -6.25258,4.92961 -7.39301,1.95769 z m -69.607812,-0.91921 c -0.633985,-0.7639 -1.005657,-2.42618 -0.825937,-3.69396 0.25827,-1.82187 0.955601,-2.30504 3.326764,-2.30504 2.476703,0 3.052118,0.44781 3.298789,2.56726 0.375954,3.23028 -3.877845,5.74734 -5.799616,3.43174 z m 32.975658,-2.54603 c -1.368774,-2.55758 -0.124641,-4.32105 2.668949,-3.78306 1.211435,0.23331 1.85622,1.21638 1.85622,2.83009 0,3.2148 -2.97893,3.84214 -4.525169,0.95297 z m -12.934781,-2.40471 c -1.046586,-1.26106 -1.046586,-1.83546 0,-3.09652 2.004951,-2.41582 5.45995,-1.43609 5.45995,1.54826 0,2.98435 -3.454999,3.96408 -5.45995,1.54826 z m 63.209945,0.41702 c -3.93286,-1.5746 -2.10646,-5.96528 2.48138,-5.96528 2.67475,0 4.04738,2.54185 2.60632,4.8264 -1.26627,2.00747 -2.32581,2.24465 -5.0877,1.13888 z m 11.10674,-0.47801 c -1.34961,-3.51702 4.15087,-5.99041 6.64326,-2.98727 0.99319,1.19672 0.99319,1.80328 0,3 -1.61336,1.94398 -5.89555,1.93577 -6.64326,-0.0127 z m -51.251545,-1.86052 c -1.784403,-2.15008 -0.234828,-4.62675 2.89481,-4.62675 3.12964,0 4.67921,2.47667 2.89481,4.62675 -0.62684,0.75529 -1.9295,1.37325 -2.89481,1.37325 -0.96531,0 -2.26797,-0.61796 -2.89481,-1.37325 z m 135.994245,-0.44095 c -0.80755,-1.50892 -0.6208,-2.30899 0.84955,-3.63964 2.51333,-2.27453 6.32359,-0.47299 5.86169,2.7715 -0.42364,2.97578 -5.2492,3.6 -6.71124,0.86814 z m 12.62474,-1.32028 c -2.01325,-1.12667 -2.27054,-4.18036 -0.47418,-5.62791 1.85918,-1.49817 5.75,0.32542 5.75,2.69498 0,2.57268 -2.96962,4.22355 -5.27582,2.93293 z M 43.349255,258.94443 c -3.832417,-2.80233 1.412742,-7.77482 5.316744,-5.04035 2.566273,1.79749 2.678835,2.72865 0.583177,4.82431 -1.927578,1.92758 -3.481434,1.98448 -5.899921,0.21604 z m 158.481915,-2.13188 c -1.61949,-1.95136 -0.57762,-4.51273 1.8356,-4.51273 2.8864,0 4.71872,2.61442 3.15383,4.5 -1.5819,1.90608 -3.41421,1.91075 -4.98943,0.0127 z M 67.204647,255.85823 c -0.749687,-1.95365 -0.118167,-4.81474 1.156395,-5.23902 0.57224,-0.19049 1.866715,0.25784 2.876612,0.9963 1.523871,1.11428 1.638572,1.71186 0.674379,3.51348 -1.324225,2.47433 -3.885475,2.87111 -4.707386,0.72924 z m 169.005083,-0.98674 c -0.99685,-2.59776 0.48864,-6.7427 2.28941,-6.38811 2.55364,0.50282 4.01155,3.49835 2.70916,5.56644 -1.46672,2.32904 -4.24489,2.78572 -4.99857,0.82167 z M 54.758168,253.18316 c -0.895166,-1.67264 -0.813923,-2.43555 0.387275,-3.63675 2.863154,-2.86315 7.250921,1.14981 4.664593,4.26614 -1.738795,2.09512 -3.726269,1.84751 -5.051868,-0.62939 z m 157.424062,-3.38334 c -0.87531,-2.28102 0.34984,-4.5 2.48454,-4.5 2.42603,0 4.55401,2.51477 3.79709,4.48727 -0.75084,1.95664 -5.53196,1.96634 -6.28163,0.0127 z m 11.33961,-0.1321 c -1.21273,-1.21273 -0.76421,-4.07075 0.84895,-5.40955 2.25753,-1.87358 5.42094,1.27721 3.82568,3.81041 -1.1922,1.89315 -3.56792,2.70586 -4.67463,1.59914 z M 10.751039,247.716 c -1.8889705,-2.27607 0.07915,-4.91618 3.664858,-4.91618 1.974535,0 2.985964,0.56415 3.22359,1.79804 0.767317,3.98436 -4.275195,6.26691 -6.888448,3.11814 z m 78.269566,-0.61618 c -1.64203,-1.64203 -1.50671,-4.30056 0.29499,-5.79585 1.20476,-0.99985 1.98133,-0.92208 4,0.40061 2.84235,1.86238 2.88879,2.00963 1.46983,4.66098 -1.16668,2.17996 -3.96296,2.53612 -5.76482,0.73426 z m 104.184035,-0.24159 c -1.01653,-2.64904 0.10343,-5.05373 2.51309,-5.3959 3.70034,-0.52545 5.20106,2.59644 2.53144,5.26606 -1.96386,1.96386 -4.3175,2.02445 -5.04453,0.12984 z M 23.182232,244.79982 c -1.005635,-2.62064 0.449632,-4.5 3.484544,-4.5 3.358769,0 5.467067,2.02014 4.564093,4.37325 -0.819525,2.13565 -7.238957,2.23674 -8.048637,0.12675 z m 52.30504,-0.16667 c -1.042412,-1.04241 -0.781246,-5.31901 0.333333,-5.45833 0.55,-0.0687 1.675,-0.125 2.5,-0.125 2.75246,0 3.28221,0.24007 3.86163,1.75 0.97947,2.55246 -0.44957,4.5 -3.30195,4.5 -1.49949,0 -3.026347,-0.3 -3.393013,-0.66667 z m -76.6267975,-1.78529 c -2.22712,-2.68352 -0.840581,-5.04804 2.96013,-5.04804 2.637994,0 3.562122,0.4648 3.845046,1.9339 0.372175,1.93255 -2.1735,4.5661 -4.413731,4.5661 -0.65253395,0 -1.72868395,-0.65338 -2.391445,-1.45196 z M 239.75103,242.716 c -1.70073,-2.04927 -0.10745,-4.786 3.05861,-5.25367 3.61634,-0.53418 5.08008,2.62551 2.43953,5.26606 -2.00029,2.00029 -3.83118,1.99616 -5.49814,-0.0124 z m -139.69211,-0.57786 c -1.469325,-1.46933 -1.630415,-4.47795 -0.284305,-5.3099 0.524705,-0.32428 2.124285,-0.29589 3.554635,0.0631 2.09278,0.52525 2.54114,1.16588 2.29599,3.28059 -0.33999,2.93283 -3.48779,4.04473 -5.56632,1.9662 z m 106.14572,-1.27991 c -1.58928,-4.14159 1.53787,-6.79843 5.01191,-4.25815 1.54394,1.12896 1.66127,1.7243 0.69548,3.52891 -1.3142,2.4556 -4.87055,2.91 -5.70739,0.72924 z M 35.402994,238.98372 c -2.40654,-1.7597 -1.6595,-5.09881 1.232869,-5.51066 2.25978,-0.32178 5.184742,1.30172 5.184742,2.87778 0,1.00966 -2.888195,3.94898 -3.880299,3.94898 -0.405593,0 -1.547383,-0.59224 -2.537312,-1.3161 z m 183.157026,0.19015 c -1.7934,-1.00364 -2.37569,-4.36278 -0.91296,-5.2668 1.60846,-0.99408 5.17354,0.65075 5.17354,2.38694 0,2.58935 -2.16489,4.05267 -4.26058,2.87986 z m 9.62221,-1.37405 c -0.96098,-2.50427 0.43087,-4.5 3.13837,-4.5 2.97293,0 4.27531,2.36089 2.48943,4.51273 -1.59521,1.92211 -4.88819,1.91466 -5.6278,-0.0127 z M 16.860475,236.84786 c -2.227121,-2.68352 -0.840581,-5.04804 2.96013,-5.04804 3.974396,0 5.113997,2.24315 2.478521,4.87862 -2.008229,2.00823 -3.864581,2.06606 -5.438651,0.16942 z m 71.9707,-2.03531 c -1.61949,-1.95136 -0.57762,-4.51273 1.8356,-4.51273 2.8864,0 4.71872,2.61442 3.15383,4.5 -1.5819,1.90608 -3.41421,1.91075 -4.98943,0.0127 z M 67.307108,233.2573 c -0.862424,-2.71726 0.58816,-4.2251 3.648162,-3.79214 1.767113,0.25002 2.365335,0.96694 2.365335,2.83466 0,3.43986 -4.974247,4.23186 -6.013497,0.95748 z m 42.356352,0.0925 c -2.18849,-1.7944 -2.23313,-2.0326 -0.6775,-3.61514 2.21031,-2.24852 6.83464,-1.20046 6.83464,1.54901 0,3.19178 -3.39487,4.33099 -6.15714,2.06613 z M 5.2617355,232.79915 c -1.905497,-1.47312 -1.898123,-1.5371 0.40173,-3.48548 1.80529,-1.5294 2.780455,-1.75063 4.25,-0.96415 2.4528235,1.31271 2.4402335,3.59463 -0.02712,4.91512 -2.441482,1.30664 -2.316012,1.31927 -4.62461,-0.46549 z m 189.2255345,0.834 c -1.18323,-1.18322 -0.70953,-4.05287 0.88786,-5.37858 1.29786,-1.07713 1.89867,-0.94599 3.63894,0.79428 2.54344,2.54343 1.77236,5.25097 -1.49542,5.25097 -1.30059,0 -2.66472,-0.3 -3.03138,-0.66667 z m 43.08333,-1.41343 c -2.02495,-1.17943 -2.32988,-5.22797 -0.5,-6.63865 1.80392,-1.39067 6.17986,-0.003 6.5824,2.087 0.31668,1.64437 -2.37016,5.67121 -3.73739,5.60134 -0.32725,-0.0167 -1.38251,-0.48908 -2.34501,-1.04969 z m -88.38837,-1.4199 c -1.44837,-3.77439 1.67562,-5.6208 5.78708,-3.42042 1.92269,1.029 1.93578,1.16958 0.27927,3 -2.07419,2.29195 -5.26337,2.51297 -6.06635,0.42042 z m 12.6782,0.048 c -0.66917,-0.8063 -0.9078,-2.38861 -0.53661,-3.55814 0.97762,-3.08022 5.86988,-2.38737 6.33427,0.89706 0.52023,3.6793 -3.44293,5.49835 -5.79766,2.66108 z m -84.039825,-0.51381 c -2.14318,-1.39629 0.008,-4.53419 3.10899,-4.53419 1.88374,0 2.39101,0.53039 2.39101,2.5 0,2.74046 -2.81686,3.78228 -5.5,2.03419 z m 22.229185,-0.205 c -1.902155,-1.90216 -1.454675,-4.62285 0.88232,-5.36458 2.94916,-0.93603 5.77082,1.91196 4.26436,4.30415 -1.38206,2.19464 -3.56309,2.64402 -5.14668,1.06043 z m 109.12838,-0.33976 c -0.34839,-0.9079 0.0498,-2.32539 0.88902,-3.16459 1.21848,-1.21849 1.95201,-1.28892 3.69708,-0.35499 2.95237,1.58006 2.23728,4.44961 -1.20791,4.84712 -1.83607,0.21185 -2.95641,-0.22841 -3.37819,-1.32754 z M -5.4293945,229.21972 c -2.551598,-1.48617 -2.162476,-4.77484 0.720386,-6.08836 4.15267305,-1.89209 7.531869,2.76621 4.32961405,5.96846 -1.44533405,1.44533 -2.72231405,1.47565 -5.05000005,0.1199 z m 32.2898695,-0.37186 c -1.72537,-2.07894 -0.875087,-4.99698 1.557851,-5.3463 2.993334,-0.42978 4.839245,2.11327 3.43649,4.73434 -1.292266,2.41462 -3.294641,2.65997 -4.994341,0.61196 z M 220.75103,228.716 c -1.70802,-2.05804 0.0656,-5.05832 2.70221,-4.57116 3.22919,0.59664 4.43883,2.15291 3.31116,4.25999 -1.23472,2.3071 -4.22833,2.46201 -6.01337,0.31117 z M 37.182232,225.79982 c -1.011026,-2.63469 0.449576,-4.5 3.523656,-4.5 3.246644,0 4.327704,1.56042 2.944407,4.25 -1.10064,2.14 -5.674957,2.3168 -6.468063,0.25 z m 103.167018,0.14461 c -2.44602,-1.78858 -1.3189,-4.64461 1.83298,-4.64461 2.78489,0 4.21112,2.60495 2.53318,4.62675 -1.42223,1.71368 -2.04351,1.71622 -4.36616,0.0179 z M 16.451482,224.44444 c -0.944163,-1.04329 -1.402868,-2.57523 -1.047998,-3.5 0.822435,-2.14324 5.993499,-2.19094 6.810133,-0.0628 0.812426,2.11715 0.828229,2.05411 -0.964441,3.84678 -2.021698,2.0217 -2.750123,1.97859 -4.797694,-0.28395 z m 72.119123,-0.22472 c -2.1624,-1.25948 -2.20599,-2.32105 -0.17857,-4.34847 1.77892,-1.77892 3.27575,-1.95384 5.37171,-0.62773 1.16835,0.73921 1.22004,1.40275 0.27144,3.48469 -1.25044,2.74442 -2.65519,3.12783 -5.46458,1.49151 z m 112.916665,0.41343 c -1.4863,-1.48629 -0.6049,-5.21816 1.38132,-5.84856 2.24423,-0.71229 4.95201,0.98416 4.95201,3.10249 0,2.18472 -4.80939,4.27002 -6.33333,2.74607 z M 65.322834,222.92511 c -2.038722,-1.49075 -1.675924,-5.97666 0.517113,-6.39398 2.548619,-0.48498 5.013985,2.02725 4.366511,4.44952 -0.736819,2.75651 -2.702649,3.53923 -4.883624,1.94446 z m 106.668076,-0.37529 c -1.3833,-2.68958 -0.30224,-4.25 2.94441,-4.25 3.33411,0 4.76099,2.23991 2.87471,4.51273 -1.6722,2.01488 -4.71844,1.87734 -5.81912,-0.26273 z m -168.2682425,-1.433 c -0.994701,-1.85861 -0.834873,-2.45299 1.0756,-4 2.75284,-2.22911 4.403988,-2.29249 6.4489265,-0.24755 2.535267,2.53526 -0.477226,6.43055 -4.9731925,6.43055 -0.760666,0 -1.908765,-0.98235 -2.551334,-2.183 z m 108.7049225,0.60121 c -0.99394,-2.59016 -0.69898,-4.16893 0.89301,-4.77984 3.37624,-1.29558 6.5862,2.34792 4.39481,4.98838 -1.54026,1.85589 -4.54104,1.73755 -5.28782,-0.20854 z m -36.078335,-1.7736 c -2.388495,-1.74651 -1.408065,-4.38579 1.94152,-5.22648 2.44627,-0.61397 5.52983,0.85418 5.52983,2.63289 0,1.24692 -2.99718,3.94898 -4.3803,3.94898 -0.68059,0 -2.07157,-0.60993 -3.09105,-1.35539 z m 81.437375,-0.18554 c -2.74681,-3.30971 2.34689,-6.40388 5.51149,-3.34797 1.21313,1.17146 -0.55446,4.26316 -2.67666,4.68179 -0.81663,0.16109 -2.0923,-0.43913 -2.83483,-1.33382 z m 68.67234,0.0409 c -0.85409,-2.22574 0.33164,-4.5 2.34617,-4.5 2.3081,0 4.39736,2.56239 3.65872,4.48727 -0.75056,1.95594 -5.25554,1.96549 -6.00489,0.0127 z M 214.42759,218.718 c -0.81243,-2.11715 -0.82823,-2.05411 0.96444,-3.84678 2.15039,-2.1504 4.14457,-1.97061 5.46278,0.49249 0.8199,1.53199 0.79741,2.43404 -0.0873,3.5 -1.59398,1.92062 -5.58221,1.82896 -6.33996,-0.14571 z M -7.3322925,215.86359 c -0.610512,-1.33993 -0.839987,-3.13993 -0.509946,-4 0.775302,-2.02041 5.067988,-2.01577 7.09141405,0.008 1.85908995,1.85909 1.87503895,1.99275 0.536246,4.49431 -1.50731905,2.81645 -5.74180705,2.51782 -7.11771405,-0.50197 z m 105.5145275,0.93623 c -0.96098,-2.50427 0.43087,-4.5 3.138365,-4.5 2.97293,0 4.27531,2.36089 2.48943,4.51273 -1.59521,1.92211 -4.888185,1.91466 -5.627795,-0.0127 z m -70.89702,-1.61151 c -0.925478,-2.91592 1.357361,-4.9516 4.285391,-3.82141 2.477106,0.95613 2.903735,2.87918 1.05,4.73292 -1.876099,1.8761 -4.598242,1.41104 -5.335391,-0.91151 z m -12.264609,-1.08849 c -2.033521,-2.03352 -1.387808,-4.71476 1.297764,-5.38879 3.036429,-0.7621 5.34697,0.0206 6.136793,2.07884 1.328316,3.46154 -4.630181,6.11433 -7.434557,3.30995 z m 116.156734,-0.31273 c -1.34961,-3.51702 4.15087,-5.99041 6.64326,-2.98727 0.99319,1.19672 0.99319,1.80328 0,3 -1.61336,1.94398 -5.89555,1.93577 -6.64326,-0.0127 z m 14.64326,0.52588 c -1.16072,-0.73993 -1.24957,-1.35848 -0.39282,-2.73468 1.50944,-2.42461 3.81672,-2.71171 5.80596,-0.72247 2.99105,2.99105 -1.5724,5.90555 -5.41314,3.45715 z M 37.529455,213.67534 c -1.548832,-1.54884 -0.669801,-5.25314 1.402658,-5.91091 2.94593,-0.935 5.769289,1.91133 4.269414,4.30415 -1.154394,1.84167 -4.49177,2.78706 -5.672072,1.60676 z m 49.91253,-0.897 c -1.93663,-1.93663 -2.01074,-2.68916 -0.42138,-4.27852 3.16477,-3.16477 8.41766,0.008 6.10196,3.68592 -1.4221,2.25851 -3.76977,2.50342 -5.68058,0.5926 z m 78.128615,0.44138 c -2.30608,-1.34317 -2.22414,-3.59578 0.17756,-4.88113 3.84306,-2.05674 6.91429,1.71938 3.87244,4.76123 -1.4329,1.4329 -1.77816,1.44312 -4.05,0.1199 z m 11.25,-3.4199 c 0,-2.09057 0.4738,-2.5 2.89301,-2.5 3.12789,0 4.63746,2.06953 2.82885,3.87814 -0.61703,0.61703 -2.15686,1.12186 -3.42186,1.12186 -1.78667,0 -2.3,-0.55797 -2.3,-2.5 z m -71,-0.96887 c 0,-1.77723 0.70939,-2.85927 2.25,-3.43195 3.27719,-1.21821 4.90259,-0.22651 4.5541,2.77857 -0.24934,2.15006 -0.88933,2.67868 -3.5541,2.93561 -2.9124,0.28081 -3.25,0.0437 -3.25,-2.28223 z m -34.478515,-0.15251 c -2.300391,-2.30039 -1.488714,-4.82249 1.669812,-5.18855 3.534828,-0.40968 5.577218,2.89856 3.235297,5.24048 -1.981666,1.98167 -2.881033,1.97215 -4.905109,-0.0519 z M 0.57060455,208.21972 c -0.962499,-0.5606 -1.74999905,-1.84182 -1.74999905,-2.84715 0,-4.5172 8.199179,-5.69478 8.826764,-1.26771 0.609881,4.3022 -3.075739,6.44524 -7.07676495,4.11486 z M 155.18223,207.79982 c -0.94746,-2.46904 0.41718,-4.5 3.02365,-4.5 2.78914,0 3.7611,1.68992 2.44441,4.25 -1.10165,2.14196 -4.67928,2.30553 -5.46806,0.25 z m -128.281706,-2.9037 c -2.122447,-2.5574 -0.909973,-5.0963 2.433776,-5.0963 2.65145,0 2.986305,0.33639 2.986305,3 0,2.28 -0.501001,3.07158 -2.087505,3.29826 -1.148128,0.16404 -2.647787,-0.37684 -3.332576,-1.20196 z m -13.50849,-2.16773 c -2.880137,-2.88013 -1.172651,-6.42857 3.093388,-6.42857 1.885253,0 4.335183,2.46555 4.335183,4.36283 0,1.04474 -3.207419,3.63717 -4.5,3.63717 -0.746428,0 -2.064286,-0.70714 -2.928571,-1.57143 z m 70.641071,0.38393 c -1.70971,-1.70971 -1.50638,-4.7625 0.36504,-5.48063 2.36883,-0.909 5.15914,2.2767 3.83407,4.37737 -1.40452,2.22662 -2.72802,2.57435 -4.19911,1.10326 z m 8.82946,-0.26194 c -1.818,-2.19056 0.45811,-4.74801 3.87244,-4.35112 2.01116,0.23378 2.5856,0.85599 2.5856,2.80056 0,1.94457 -0.57444,2.56678 -2.5856,2.80056 -1.43883,0.16725 -3.15634,-0.38715 -3.87244,-1.25 z m 43.158035,0.24944 c -0.66,-0.66 -1.2,-2.01 -1.2,-3 0,-1.33747 0.77894,-1.8 3.03138,-1.8 3.72822,0 5.13351,2.67504 2.43997,4.64461 -2.27108,1.66065 -2.74871,1.67803 -4.27135,0.15539 z m 28.83983,-0.25201 c -1.44602,-1.74234 -0.45429,-5.54799 1.44577,-5.54799 4.48085,0 6.21868,4.01753 2.58014,5.96482 -2.47723,1.32577 -2.58931,1.31416 -4.02591,-0.41683 z m -18.34361,-0.78085 c -1.52334,-1.11389 -1.57874,-1.54555 -0.40447,-3.15146 1.88791,-2.58187 5.9506,-1.32254 5.51655,1.70999 -0.36843,2.57402 -2.67411,3.22415 -5.11208,1.44147 z m 57.50378,-0.96714 c -1.58146,-1.58146 -1.5146,-2.34254 0.37143,-4.22857 2.09593,-2.09593 3.13911,-1.98081 4.46278,0.49249 1.88859,3.52886 -2.0204,6.54989 -4.83421,3.73608 z m 10.85305,-0.23608 c -1.43694,-1.7314 0.21646,-5.56392 2.40035,-5.56392 4.36564,0 5.79525,2.60849 2.97517,5.42857 -1.95593,1.95594 -3.8255,2.00301 -5.37552,0.13535 z m -58.80305,-2.2262 c -1.49407,-0.60287 -1.67372,-4.95781 -0.24105,-5.84325 3.24611,-2.00621 6.52042,2.57616 3.79105,5.30553 -1.27897,1.27897 -1.59452,1.32677 -3.55,0.53772 z m 19.47418,-0.4722 c -2.33013,-1.30401 -2.17409,-3.55437 0.33974,-4.89973 2.2882,-1.22461 4.93608,0.18164 4.93608,2.62147 0,2.02012 -3.2383,3.41851 -5.27582,2.27826 z M 31.212874,193.7266 c -0.780873,-3.11124 0.587311,-4.71289 3.640269,-4.26144 5.221985,0.77218 4.657903,6.83466 -0.63593,6.83466 -1.699642,0 -2.538921,-0.71884 -3.004339,-2.57322 z m 194.326186,1.32322 c -0.78977,-2.20258 1.27397,-4.75 3.84811,-4.75 2.91561,0 4.19321,2.3796 2.42286,4.51273 -1.50047,1.80796 -5.65146,1.96502 -6.27097,0.23727 z M 45.207932,193.86679 c -1.055492,-2.75056 0.395299,-4.56697 3.647711,-4.56697 2.789467,0 3.066312,0.27372 2.781384,2.75 -0.248714,2.16156 -0.906082,2.81783 -3.072108,3.06697 -1.797064,0.20671 -2.96486,-0.22813 -3.356987,-1.25 z m 146.325248,0.81227 c -1.3755,-1.37549 -0.69368,-4.25046 1.14654,-4.83453 2.9037,-0.9216 5.28475,0.44265 4.94375,2.83257 -0.30447,2.13395 -4.55959,3.53266 -6.09029,2.00196 z m -52.35095,-4.87924 c -0.77923,-2.03064 0.27209,-4.5 1.91586,-4.5 2.46074,0 4.86486,2.46547 4.16995,4.27638 -0.8165,2.12776 -5.29202,2.29221 -6.08581,0.22362 z m 70.99715,-0.007 c -0.35287,-0.91958 0.0567,-2.33669 0.92693,-3.20689 2.12414,-2.12414 4.94144,-0.90648 4.53443,1.95982 -0.39439,2.77734 -4.51323,3.71785 -5.46136,1.24707 z M 55.487272,189.63315 c -1.226989,-1.22699 -0.684067,-4.22421 0.928668,-5.12674 4.114442,-2.30256 8.356649,1.44143 5.204666,4.59341 -1.293508,1.29351 -5.046786,1.61988 -6.133334,0.53333 z m 110.562518,-0.50414 c -3.02739,-3.02739 0.90671,-6.93127 4.38267,-4.34901 1.50597,1.11877 1.66404,1.76875 0.78096,3.21125 -1.38558,2.26332 -3.55914,2.74225 -5.16363,1.13776 z M 150.1435,186.6989 c -0.59376,-1.54732 1.12393,-3.36845 3.1771,-3.36845 0.55,0 1.62807,0.39769 2.39572,0.88376 2.12073,1.34284 0.51243,4.08561 -2.39572,4.08561 -1.42733,0 -2.83495,-0.70929 -3.1771,-1.60092 z M 23.245514,183.85666 c -0.759807,-3.02731 0.112536,-4.55684 2.598925,-4.55684 2.605003,0 4.51831,3.64183 2.923116,5.56392 -1.889903,2.2772 -4.832427,1.74055 -5.522041,-1.00708 z m 197.825086,1.35722 c -2.75449,-1.04011 -2.83191,-2.07746 -0.3244,-4.34673 2.47374,-2.2387 5.48632,-1.6627 5.88508,1.12522 0.38994,2.72621 -2.47573,4.3864 -5.56068,3.22151 z m 11.32143,-0.48549 c -2.09096,-2.09096 -1.9811,-3.13895 0.46634,-4.44879 4.1876,-2.24113 7.98248,1.59997 4.76223,4.82022 -1.62976,1.62976 -3.34956,1.50759 -5.22857,-0.37143 z M 34.182232,182.79982 c -0.875308,-2.28102 0.34984,-4.5 2.484544,-4.5 2.426029,0 4.554007,2.51477 3.797089,4.48727 -0.750836,1.95664 -5.531964,1.96634 -6.281633,0.0127 z m 165.995108,-0.0127 c -0.66274,-1.72711 1.27073,-4.4873 3.14326,-4.4873 0.69031,0 1.81531,0.675 2.5,1.5 0.99319,1.19672 0.99319,1.80328 0,3 -1.60864,1.9383 -4.89743,1.93087 -5.64326,-0.0127 z M 47.349255,181.94443 c -2.715322,-1.98549 -1.290762,-4.86517 2.207114,-4.46158 3.033022,0.34996 4.380175,3.49482 2.112629,4.93183 -1.807659,1.14556 -2.162864,1.1069 -4.319743,-0.47025 z M 189.0706,181.65604 c -1.9665,-0.8226 -1.46059,-4.17315 0.81392,-5.39043 2.62429,-1.40448 5.16335,0.44402 4.73434,3.4467 -0.29526,2.06651 -2.99431,3.01207 -5.54826,1.94373 z M 61.89145,177.43219 c -1.699883,-3.17626 -0.286626,-5.28589 3.306804,-4.93621 2.735093,0.26616 3.122351,0.67592 3.122351,3.30384 0,2.51081 -0.437458,3.05054 -2.682742,3.30993 -1.863557,0.2153 -3.007537,-0.29695 -3.746413,-1.67756 z m 150.17595,0.71443 c -1.45396,-1.45396 0.16992,-4.8468 2.31977,-4.8468 2.06417,0 2.91873,2.71032 1.42286,4.51273 -1.48476,1.78904 -2.22187,1.85483 -3.74263,0.33407 z m -193.496795,-2.9269 c -2.482064,-1.44567 -2.167279,-3.77265 0.686231,-5.0728 3.263163,-1.4868 5.563769,-0.44704 5.563769,2.51453 0,3.29971 -2.922908,4.49612 -6.25,2.55827 z m 22.450001,-2.1199 c -2.736173,-2.73617 -0.181281,-6.13098 3.549999,-4.71706 2.590863,0.98178 3.021874,4.40689 0.668213,5.31007 -2.232664,0.85675 -2.856091,0.76911 -4.218212,-0.59301 z m 54.884329,-0.11567 c -0.59638,-0.59638 -1.08433,-2.11933 -1.08433,-3.38433 0,-1.87714 0.53916,-2.3 2.93261,-2.3 2.895355,0 4.956575,2.75224 3.647515,4.87034 -0.90643,1.46663 -4.335295,1.97449 -5.495795,0.81399 z m 126.582335,0.649 c -0.36667,-0.36666 -0.66667,-1.49166 -0.66667,-2.5 0,-1.27707 0.74064,-1.83333 2.44098,-1.83333 2.82372,0 3.82182,1.15159 2.95528,3.40976 -0.61427,1.60076 -3.49071,2.16246 -4.72959,0.92357 z M 29.392035,171.72839 c -3.316913,-3.31691 -1.012667,-6.2581 3.930807,-5.01736 3.032661,0.76114 3.366712,4.05338 0.563505,5.55361 -2.501559,1.33879 -2.635223,1.32284 -4.494312,-0.53625 z m 78.800155,-1.08416 c -0.84466,-3.3654 1.88616,-5.81202 4.76655,-4.27048 2.12,1.13459 2.3022,2.23478 0.82668,4.99181 -1.54125,2.87984 -4.7947,2.46026 -5.59323,-0.72133 z m 125.87521,1.50239 c -1.58418,-1.58418 0.25309,-4.8468 2.72937,-4.8468 2.41255,0 3.33022,1.4593 2.52099,4.00895 -0.69692,2.1958 -3.45265,2.63556 -5.25036,0.83785 z m -32.83988,-1.22878 c -0.85795,-2.23577 0.37286,-3.61802 3.22165,-3.61802 2.03153,0 2.44956,0.42929 2.19098,2.25 -0.38073,2.68078 -4.50853,3.72407 -5.41263,1.36802 z M 51.871224,169.86081 c -1.973066,-2.3774 -0.515057,-4.74705 2.693695,-4.37796 2.188206,0.2517 2.755686,0.8318 2.755686,2.81697 0,2.97711 -3.453172,3.96628 -5.449381,1.56099 z m 137.311006,-3.06099 c -0.77441,-2.01808 0.238,-4.40913 2.18291,-5.15546 2.30869,-0.88593 3.80847,1.1128 3.06319,4.08224 -0.72174,2.87563 -4.27548,3.60264 -5.2461,1.07322 z m 23.79157,0.2532 c -1.52636,-1.52636 -1.45539,-2.30815 0.37574,-4.13928 1.88774,-1.88774 4.47106,-1.0454 4.47106,1.45789 0,2.43788 -3.27725,4.25094 -4.8468,2.68139 z M 84.567995,165.44185 c -0.71781,-2.74494 1.02331,-5.14203 3.73491,-5.14203 2.80762,0 4.3032,3.34861 2.47787,5.54799 -1.73247,2.0875 -5.62727,1.83301 -6.21278,-0.40596 z m -21.35925,-0.62221 c -1.506942,-1.11949 -1.664246,-1.76781 -0.779154,-3.21125 1.611148,-2.62751 5.810458,-2.37442 6.201698,0.37377 0.429268,3.0153 -2.863697,4.73843 -5.422544,2.83748 z m 54.198545,-1.42403 c -1.46685,-1.62085 -1.52852,-2.21607 -0.41444,-4 2.81016,-4.49978 9.33015,-0.77156 6.82775,3.90421 -1.35058,2.52357 -4.17798,2.5658 -6.41331,0.0958 z m -80.336685,0.24193 c -2.652619,-1.07036 -0.645634,-6.33772 2.414817,-6.33772 0.695649,0 1.787625,0.97688 2.426612,2.17083 0.962764,1.79895 0.850392,2.39854 -0.655946,3.5 -1.930949,1.41195 -2.223507,1.45856 -4.185483,0.66689 z m -15.481867,-2.94727 c -1.01578,-2.22939 -0.919696,-2.80646 0.659579,-3.96125 3.636441,-2.65903 7.570108,2.17298 4.372288,5.3708 -1.916058,1.91606 -3.750792,1.40211 -5.031867,-1.40955 z m 79.431862,-0.59045 c -2.014255,-2.01426 -1.389795,-4.71426 1.24316,-5.37509 1.34375,-0.33726 2.91875,-0.31927 3.5,0.04 1.7305,1.06951 1.20116,4.38752 -0.87742,5.49995 -2.4106,1.29011 -2.41082,1.2901 -3.86574,-0.16482 z m -53.241647,-1.35019 c -1.060439,-1.27775 -1.007713,-1.82902 0.300014,-3.13674 1.793113,-1.79312 4.477343,-1.16539 5.410037,1.26517 1.15235,3.00298 -3.504342,4.52929 -5.710051,1.87157 z m 179.750497,0.92571 c -0.38987,-0.38987 -0.70885,-1.56374 -0.70885,-2.60861 0,-1.4825 0.604,-1.83026 2.75,-1.58333 1.97786,0.22758 2.75,0.87798 2.75,2.31642 0,2.00916 -3.34722,3.31944 -4.79115,1.87552 z m -27.30193,-1.7575 c -0.85795,-2.23577 0.37286,-3.61802 3.22165,-3.61802 2.03153,0 2.44956,0.42929 2.19098,2.25 -0.38073,2.68078 -4.50853,3.72407 -5.41263,1.36802 z m -25.99856,-1.99623 c -0.80937,-2.10918 0.3267,-3.62179 2.72021,-3.62179 1.51073,0 1.93109,0.5568 1.69098,2.23978 -0.37294,2.61398 -3.55579,3.61115 -4.41119,1.38201 z m 39.70629,0.46929 c -1.73323,-1.09649 -0.68205,-6.09108 1.28196,-6.09108 2.29165,0 4.12698,2.94638 2.97396,4.7743 -1.28929,2.04395 -2.50964,2.42152 -4.25592,1.31678 z M 77.261736,154.85839 c -2.531967,-1.88017 -0.885457,-4.92168 2.90973,-5.37499 2.208349,-0.26378 2.649139,0.0773 2.649139,2.05 0,2.20605 -1.61627,4.76642 -3.008869,4.76642 -0.33488,0 -1.482381,-0.64864 -2.55,-1.44143 z m 12.130299,-0.13 c -0.86429,-0.86428 -1.57143,-1.93418 -1.57143,-2.37755 0,-1.57606 2.92496,-3.19956 5.18474,-2.87778 2.89237,0.41185 3.63941,3.75096 1.23287,5.51066 -2.31027,1.68932 -2.93442,1.65643 -4.84618,-0.25533 z m 71.066935,0.0714 c -0.76166,-1.98485 0.15337,-4.2061 2.02919,-4.92593 2.00453,-0.76921 3.33244,0.1413 3.33244,2.28495 0,3.50021 -4.23199,5.58477 -5.36163,2.64098 z m -50.27674,-2 c -0.31659,-0.825 -0.30447,-2.20656 0.0269,-3.07014 0.82589,-2.15223 4.9966,-1.42494 5.44964,0.95031 0.60177,3.15505 -4.3446,5.06966 -5.47655,2.11983 z m -81.031954,-1.08328 c -0.354281,-0.92324 0.266449,-2.45728 1.488993,-3.67983 1.790732,-1.79073 2.467407,-1.92758 4.638945,-0.93816 2.750232,1.25309 3.245475,3.09819 1.342392,5.00127 -1.750855,1.75085 -6.749807,1.49438 -7.47033,-0.38328 z m 28.600763,-5.4e-4 c -1.651755,-1.99025 -0.137543,-4.77992 2.835805,-5.22448 2.516048,-0.37618 3.981727,3.20213 2.193936,5.35629 -1.56833,1.88972 -3.391676,1.84194 -5.029741,-0.13181 z m 65.458101,-0.84604 c -0.99567,-2.59467 0.39988,-4.73919 2.85699,-4.39028 1.65273,0.23469 2.25447,0.98741 2.25447,2.82014 0,1.83273 -0.60174,2.58545 -2.25447,2.82014 -1.35228,0.19202 -2.49559,-0.3082 -2.85699,-1.25 z m -23.947405,-2.01157 c -2.53357,-1.88136 -0.88457,-4.92184 2.915415,-5.37554 3.13803,-0.37466 4.31259,1.69815 2.68527,4.73883 -1.30693,2.44202 -2.92224,2.62565 -5.600685,0.63671 z m -56.241129,-0.75854 c -1.483021,-1.48302 -1.562845,-4.45772 -0.143165,-5.33513 0.58126,-0.35923 2.15626,-0.37722 3.5,-0.04 4.088684,1.02623 2.874592,6.57513 -1.438623,6.57513 -0.395016,0 -1.258213,-0.54 -1.918212,-1.2 z M 186.2006,147.84771 c -0.7754,-2.02068 0.3778,-3.54789 2.67902,-3.54789 2.38012,0 2.66691,3.50746 0.35919,4.39301 -2.21029,0.84817 -2.40972,0.7927 -3.03821,-0.84512 z m -35.27572,-1.46228 c -1.90237,-1.20457 -0.62932,-4.08561 1.80532,-4.08561 2.58053,0 3.57344,1.71304 2.05405,3.5438 -1.39485,1.68069 -1.93991,1.75721 -3.85937,0.54181 z m -62.051745,-3.52232 c -1.74306,-2.10026 -0.73233,-4.20018 2.30068,-4.77998 3.39721,-0.64942 4.89017,0.45917 4.48428,3.32978 -0.40783,2.88439 -4.81323,3.82599 -6.78496,1.4502 z m 20.450305,-0.55434 c -0.81594,-2.57079 0.11232,-4.00895 2.58756,-4.00895 2.77886,0 3.66355,2.97553 1.38095,4.64461 -2.49921,1.82746 -3.22357,1.71144 -3.96851,-0.63566 z m 53.18676,-0.16278 c -2.3119,-1.29381 -2.12459,-3.57333 0.35839,-4.3614 2.41165,-0.76543 5.05629,1.07991 4.31525,3.01102 -0.72748,1.89578 -2.68724,2.46202 -4.67364,1.35038 z m -83.980745,-0.47065 c -1.24468,-1.24468 -0.76086,-4.14158 0.79115,-4.73715 2.4559,-0.94241 4.63062,0.44186 4.30287,2.73891 -0.3,2.10261 -3.66834,3.42392 -5.09402,1.99824 z m 43.041145,-0.45562 c -2.1624,-1.25948 -2.20599,-2.32105 -0.17857,-4.34847 3.66392,-3.66392 8.34662,-0.34833 4.89486,3.46582 -2.02054,2.23267 -2.30654,2.2862 -4.71629,0.88265 z m 52.42668,-0.58703 c 0.39415,-2.03234 1.85557,-2.59631 3.70144,-1.42842 1.81147,1.14613 0.54539,3.09555 -2.01046,3.09555 -1.34287,0 -1.90653,-0.55571 -1.69098,-1.66713 z m -74.926675,-0.99515 c -1.69877,-0.68547 -1.57929,-3.81954 0.20196,-5.29785 3.335895,-2.76855 7.276715,1.17227 4.508165,4.50817 -1.22818,1.47987 -2.47967,1.68969 -4.710125,0.78968 z m 91.749995,-3.16431 c 0,-1.94584 1.79927,-3.17341 4.65134,-3.17341 0.97088,0 1.37674,0.7817 1.16821,2.25 -0.43448,3.05926 -5.81955,3.91373 -5.81955,0.92341 z M 87.070605,133.20064 c -2.44026,-0.9071 -2.96962,-3.7812 -1.05,-5.70082 1.57186,-1.57186 3.97734,-1.52203 6.23548,0.12917 1.46654,1.07235 1.60544,1.72586 0.71891,3.38235 -1.40171,2.61912 -3.077,3.24031 -5.90439,2.1893 z m 59.341115,0.24661 c -1.11821,-1.8093 0.61077,-4.26069 2.78616,-3.9503 2.90975,0.41516 2.88277,4.19456 -0.0329,4.61006 -1.1856,0.16895 -2.42456,-0.12794 -2.75324,-0.65976 z M 22.860475,131.84786 c -2.07188,-2.49646 -0.832132,-5.01802 2.632847,-5.35502 2.530465,-0.24612 3.296731,0.13536 3.864361,1.9238 1.183609,3.72922 -3.98468,6.45863 -6.497208,3.43122 z m 89.160125,0.25196 c -1.77645,-1.77645 -1.46129,-3.5898 0.83777,-4.82022 2.38008,-1.27377 5.96223,-0.41305 5.96223,1.43262 0,1.45261 -3.1631,4.5876 -4.62874,4.5876 -0.53419,0 -1.51126,-0.54 -2.17126,-1.2 z m 47.16163,-0.3 c -0.88109,-2.29607 0.35491,-4.5 2.52365,-4.5 2.33535,0 3.18034,1.84695 1.94441,4.25 -1.10282,2.14424 -3.68572,2.28876 -4.46806,0.25 z m 11.00112,0.003 c -0.34557,-0.90055 -0.16636,-2.09931 0.39825,-2.66392 1.6301,-1.6301 4.739,-0.53146 4.739,1.6747 0,2.54367 -4.22832,3.35787 -5.13725,0.98922 z M 36.070605,131.64905 c -1.494179,-0.61667 -1.673394,-4.96952 -0.24105,-5.85476 0.554921,-0.34296 1.931083,-0.33089 3.058138,0.0268 1.510242,0.47933 1.968148,1.34883 1.741051,3.306 -0.300918,2.59337 -2.045834,3.55881 -4.558139,2.52194 z m 145.416665,-0.0159 c -1.20893,-1.20893 -0.69422,-4.10878 0.83333,-4.69496 1.95436,-0.74995 4.5,0.25055 4.5,1.76862 0,2.53624 -3.69566,4.56401 -5.33333,2.92634 z m -83.696185,-3.8689 c -0.98619,-1.18828 -1.06921,-2.08514 -0.30531,-3.29825 1.40702,-2.23442 3.417745,-2.44951 5.812745,-0.6218 1.55624,1.18763 1.74766,1.87677 0.89787,3.23252 -1.46114,2.3311 -4.748425,2.68395 -6.405305,0.68753 z M 45.786396,126.2359 c -1.482895,-2.77082 0.490941,-5.13857 3.948614,-4.73664 1.85424,0.21554 2.681058,0.97572 2.923088,2.68747 0.584033,4.13056 -4.884956,5.76144 -6.871702,2.04917 z m 145.646144,-1.467 c -1.69443,-1.69443 -1.12743,-4.46908 0.91326,-4.46908 4.35708,0 5.96326,3.13303 2.54425,4.96283 -1.45036,0.77621 -2.31037,0.65339 -3.45751,-0.49375 z M 15.345408,121.68177 c -1.824922,-1.82493 -1.624079,-3.28596 0.648794,-4.71965 2.168121,-1.36762 4.826403,-0.11673 4.826403,2.27113 0,2.95062 -3.436351,4.48736 -5.475197,2.44852 z m 133.385382,0.01 c -1.13401,-1.3664 -1.0485,-1.81748 0.56869,-3 1.04686,-0.76549 2.44423,-1.39179 3.10526,-1.39179 1.76789,0 2.62868,3.03864 1.31067,4.62675 -1.51231,1.82222 -3.34917,1.73563 -4.98462,-0.23496 z m 16.75648,0.94154 c -1.26679,-1.26679 -0.66092,-4.12156 1.01087,-4.76309 0.92265,-0.35405 2.30479,-0.0165 3.07143,0.75016 1.19185,1.19185 1.15576,1.63201 -0.24897,3.03674 -1.76995,1.76995 -2.78188,2.02765 -3.83333,0.97619 z M 32.070605,121.63754 c -1.779662,-0.71811 -1.548851,-4.00906 0.331787,-4.73073 4.066412,-1.56043 6.627482,1.04088 3.804296,3.86407 -1.59755,1.59755 -2.076191,1.69784 -4.136083,0.86666 z m 143.419765,-0.75591 c -0.75694,-1.97255 1.93949,-4.66898 3.91204,-3.91204 2.25273,0.86445 1.33612,4.7706 -1.20453,5.1331 -1.2009,0.17135 -2.37668,-0.35892 -2.70751,-1.22106 z M 40.786395,115.2359 c -1.409127,-2.63298 0.297012,-4.93608 3.656655,-4.93608 1.955523,0 2.377555,0.51353 2.377555,2.89301 0,2.63574 -1.449617,4.10699 -4.046604,4.10699 -0.485665,0 -1.380088,-0.92877 -1.987606,-2.06392 z m 13.743059,-0.56056 c -1.050473,-1.05048 -0.859004,-4.16469 0.3001,-4.88105 2.013547,-1.24444 5.119455,0.59439 4.799347,2.84142 -0.305036,2.14122 -3.657116,3.48196 -5.099447,2.03963 z m 128.940626,-1.84658 c -0.31048,-0.80908 0.1044,-2.13996 0.92195,-2.95751 2.48756,-2.48757 7.45393,0.48816 5.24892,3.14503 -1.44939,1.74641 -5.4757,1.62406 -6.17087,-0.18752 z m -25.46983,-0.81248 c -1.55044,-1.86816 0.16421,-3.9455 2.93344,-3.55395 1.58182,0.22366 2.49469,1.0964 2.70646,2.58749 0.2567,1.80742 -0.1618,2.25 -2.12755,2.25 -1.34591,0 -2.92647,-0.57759 -3.51235,-1.28354 z M 8.8342595,111.04982 c 0.03073,-2.81287 1.2977985,-5.75 2.4805325,-5.75 2.047141,0 3.721606,2.74474 3.021044,4.95201 -0.717024,2.25915 -5.5251555,2.95655 -5.5015765,0.79799 z m 10.3687845,-0.19576 c -0.837249,-2.18184 1.506459,-4.71306 4.030056,-4.3525 1.48047,0.21153 2.087505,1.02525 2.087505,2.79826 0,1.98517 -0.56748,2.56527 -2.755685,2.81697 -1.805075,0.20763 -2.964799,-0.22797 -3.361876,-1.26273 z m 10.846748,-0.72505 c -3.027387,-3.02739 0.906714,-6.93127 4.382673,-4.34901 1.505971,1.11877 1.664041,1.76875 0.780957,3.21125 -1.385578,2.26332 -3.55914,2.74225 -5.16363,1.13776 z m 141.770808,-2.7618 c 0,-2.21674 3.67987,-3.78752 5.23345,-2.23394 1.66472,1.66472 0.0423,4.16655 -2.70207,4.16655 -1.83529,0 -2.53138,-0.53144 -2.53138,-1.93261 z M 40.070605,105.63754 c -1.698768,-0.68547 -1.579293,-3.81954 0.201961,-5.29785 3.190263,-2.647682 8.204858,1.25886 5.617606,4.37631 -1.300355,1.56683 -3.397408,1.8989 -5.819567,0.92154 z m 11.416667,-2.00439 c -1.223338,-1.22333 -0.685919,-5.111962 0.784466,-5.676202 0.798123,-0.30627 2.471028,0.26901 3.717567,1.27839 1.941225,1.571912 2.074157,2.066932 0.926422,3.449862 -1.367804,1.64811 -4.228712,2.1477 -5.428455,0.94795 z M 20.405264,101.4368 c -0.937258,-1.516522 2.420158,-4.278292 4.789988,-3.940202 1.357615,0.19369 2.125353,1.02568 2.125353,2.30322 0,1.512832 -0.768785,2.074622 -3.156151,2.306362 -1.735883,0.1685 -3.427518,-0.13272 -3.75919,-0.66938 z m -8.834659,-1.21708 c -2.4923655,-1.451672 -2.1635305,-3.774362 0.720386,-5.088362 1.888956,-0.86067 2.830397,-0.8268 4,0.14388 1.932451,1.60379 1.924157,2.48718 -0.04181,4.45315 -1.821503,1.821512 -2.307223,1.872512 -4.67857,0.491332 z m 21.832389,-3.236002 c -2.566018,-1.87632 -1.652059,-5.11563 1.548415,-5.488 3.057396,-0.35571 4.396188,1.95089 2.830427,4.87654 -1.217468,2.27486 -1.961853,2.37881 -4.378842,0.61146 z m 9.90238,-5.73189 c -1.174339,-3.70001 2.543211,-6.02971 6.933444,-4.34502 1.871458,0.71814 2.075897,3.4989 0.381787,5.19301 -2.004793,2.00479 -6.578052,1.47466 -7.315231,-0.84799 z m -24.686041,-0.9886 -2.298728,-1.93609 2.5,-1.99143 c 2.995227,-2.3859 4.354135,-2.51904 5.960131,-0.58393 3.246823,3.91218 -2.166662,7.876 -6.161403,4.51145 z m 14.585315,-4.405 c -1.156124,-3.01281 0.06542,-5.05841 3.020666,-5.05841 3.585708,0 5.553827,2.64011 3.664858,4.91618 -1.642525,1.97912 -5.945515,2.07067 -6.685524,0.14223 z"
       id="path504"
       inkscape:connector-curvature="0" />
  </g>
</svg>
