<?xml version="1.0" encoding="UTF-8" standalone="no"?>
<!-- Created with Inkscape (http://www.inkscape.org/) -->

<svg
   xmlns:dc="http://purl.org/dc/elements/1.1/"
   xmlns:cc="http://creativecommons.org/ns#"
   xmlns:rdf="http://www.w3.org/1999/02/22-rdf-syntax-ns#"
   xmlns:svg="http://www.w3.org/2000/svg"
   xmlns="http://www.w3.org/2000/svg"
   xmlns:sodipodi="http://sodipodi.sourceforge.net/DTD/sodipodi-0.dtd"
   xmlns:inkscape="http://www.inkscape.org/namespaces/inkscape"
   version="1.1"
   id="svg2949"
   width="283"
   height="443"
   viewBox="0 0 283 443"
   sodipodi:docname="feu104.svg"
   inkscape:version="0.92.4 (5da689c313, 2019-01-14)">
  <metadata
     id="metadata2955">
    <rdf:RDF>
      <cc:Work
         rdf:about="">
        <dc:format>image/svg+xml</dc:format>
        <dc:type
           rdf:resource="http://purl.org/dc/dcmitype/StillImage" />
        <dc:title></dc:title>
      </cc:Work>
    </rdf:RDF>
  </metadata>
  <defs
     id="defs2953" />
  <sodipodi:namedview
     pagecolor="#ffffff"
     bordercolor="#666666"
     borderopacity="1"
     objecttolerance="10"
     gridtolerance="10"
     guidetolerance="10"
     inkscape:pageopacity="0"
     inkscape:pageshadow="2"
     inkscape:window-width="1280"
     inkscape:window-height="972"
     id="namedview2951"
     showgrid="false"
     inkscape:zoom="1.0654628"
     inkscape:cx="160.15892"
     inkscape:cy="221.34636"
     inkscape:window-x="-8"
     inkscape:window-y="-8"
     inkscape:window-maximized="1"
     inkscape:current-layer="g180"
     showguides="true" />
  <g
     id="g151"
     transform="translate(25.882805,-2.654647)">
    <g
       id="g180"
       transform="translate(23.228158,-38.492376)">
      <path
         style="fill:#ffff00"
         d="m 128.7082,377.10762 c -0.84694,-2.20709 0.89026,-3.7423 3.77313,-3.33441 1.58712,0.22455 2.36534,0.99268 2.36534,2.33466 0,2.61286 -5.19479,3.45892 -6.13847,0.99975 z m -11.83172,-0.45151 c -1.27379,-2.06106 0.52885,-5.18095 2.80608,-4.85654 3.0543,0.43511 3.06144,5.18043 0.008,5.61549 -1.1856,0.16895 -2.45215,-0.17258 -2.81455,-0.75895 z m 24.65064,-6.28802 c 0.3827,-2.68245 3.30923,-3.5325 4.19697,-1.21907 0.84424,2.20004 -0.0678,3.45885 -2.50599,3.45885 -1.51073,0 -1.93109,-0.5568 -1.69098,-2.23978 z m -31.98045,-2.96022 c -1.61595,-1.61595 -1.51087,-3.29711 0.30001,-4.8 1.19672,-0.99319 1.80328,-0.99319 3,0 1.96449,1.63038 1.91907,4.62521 -0.0818,5.39301 -2.01395,0.77283 -1.81587,0.80933 -3.21821,-0.59301 z m 14.31277,0.22067 c -0.97652,-1.58006 1.39117,-5.02067 3.45504,-5.02067 1.97533,0 3.62146,3.23752 2.53773,4.99105 -0.79907,1.29293 -5.19856,1.31467 -5.99276,0.0296 z m 10.86723,-3.47278 c -0.7754,-2.02068 0.3778,-3.54789 2.67902,-3.54789 2.38012,0 2.66691,3.50746 0.3592,4.39301 -2.21029,0.84817 -2.40972,0.7927 -3.03822,-0.84512 z M 64.013354,363.9412 c -2.16785,-2.16784 0.6973,-7.10608 3.00954,-5.18709 1.81363,1.50518 1.66595,4.50848 -0.258,5.24677 -1.95858,0.75158 -1.93988,0.75199 -2.75154,-0.0597 z m 83.051776,-1.58333 c -0.61646,-1.71925 1.16395,-4.94071 2.33171,-4.21899 1.5142,0.93583 1.12725,5.46899 -0.46684,5.46899 -0.77916,0 -1.61836,-0.5625 -1.86487,-1.25 z m -72.258066,-1.87485 c -0.71803,-2.26228 0.78038,-3.83279 3.68263,-3.85984 2.12876,-0.0198 3.21729,2.84563 1.7518,4.61144 -1.71138,2.06208 -4.67134,1.65271 -5.43443,-0.7516 z m 42.768796,0.95404 c -0.67606,-0.67606 -1.22919,-2.06908 -1.22919,-3.09561 0,-1.44614 0.61925,-1.79517 2.75,-1.55 2.17779,0.25058 2.75,0.83377 2.75,2.80272 0,2.76552 -2.33892,3.77478 -4.27081,1.84289 z m -64.123984,-1.20244 c -1.677944,-2.0218 -0.251713,-4.62675 2.533182,-4.62675 2.853866,0 4.104316,2.40018 2.351056,4.51273 -1.54176,1.85771 -3.401079,1.90112 -4.884238,0.11402 z m 72.485794,-4.2502 c -0.97837,-2.54963 1.93512,-5.16524 4.17777,-3.75061 0.95218,0.60062 1.73124,1.94299 1.73124,2.98305 0,2.57258 -4.96868,3.218 -5.90901,0.76756 z m 12.04737,0.12345 c -0.78257,-2.03939 0.27462,-4.5 1.93344,-4.5 2.04031,0 3.58843,3.43976 2.18139,4.8468 -1.59617,1.59617 -3.4285,1.44174 -4.11483,-0.3468 z m -32.96269,-0.9028 c -0.29607,-0.77154 0.0407,-2.19466 0.74841,-3.16248 1.75925,-2.40592 4.57592,-1.15397 4.57592,2.0339 0,2.00329 -0.49922,2.53138 -2.39301,2.53138 -1.31616,0 -2.63525,-0.63126 -2.93132,-1.4028 z m -37.314036,-3.0972 c -0.7922,-2.06442 0.28192,-4.5 1.98454,-4.5 2.00186,0 3.98389,2.6975 3.29709,4.48727 -0.7497,1.95367 -4.53332,1.9628 -5.28163,0.0127 z m 49.305026,0.83333 c -1.40626,-1.40626 -0.57465,-4.22776 1.43399,-4.86528 2.69068,-0.85399 4.28528,0.74061 3.43129,3.43129 -0.63752,2.00865 -3.45902,2.84026 -4.86528,1.43399 z m 31.56253,-0.50414 c -1.60931,-1.60931 -1.55739,-3.31192 0.14406,-4.724 2.2059,-1.83074 4.77869,-0.2258 4.43084,2.76401 -0.33509,2.88009 -2.65914,3.87576 -4.5749,1.95999 z M 45.819611,350.56407 c -0.763599,-1.23553 1.264776,-3.9562 2.949518,-3.9562 1.81516,0 3.481544,2.08663 2.892421,3.62186 -0.618387,1.61149 -4.901132,1.85659 -5.841939,0.33434 z m 13.756263,-0.12701 c -1.77036,-1.77036 -1.51426,-3.60626 0.6658,-4.77299 1.39776,-0.74806 2.20662,-0.6387 3.08258,0.41677 2.61559,3.1516 -0.88489,7.21971 -3.74838,4.35622 z m 22.13244,-0.32919 c -0.80156,-2.08881 0.28914,-4.5 2.03556,-4.5 2.13941,0 4.606645,2.82645 3.95333,4.52894 -0.73828,1.92392 -5.24787,1.90213 -5.98889,-0.0289 z m 52.970226,-3.07754 c -0.72461,-1.88834 2.01618,-4.94342 3.57217,-3.98177 0.60278,0.37254 1.09596,1.77579 1.09596,3.11833 0,1.78688 -0.54434,2.44098 -2.03138,2.44098 -1.11727,0 -2.3038,-0.70989 -2.63675,-1.57754 z m -26.97024,-0.92246 c -0.87531,-2.28102 0.34984,-4.5 2.48455,-4.5 2.42603,0 4.55401,2.51477 3.79709,4.48727 -0.75085,1.95664 -5.53196,1.96634 -6.28164,0.0127 z m 17.85087,0.3125 c -1.75457,-1.75457 -1.49073,-3.59323 0.68249,-4.7563 2.51802,-1.3476 4.99767,1.30508 3.47558,3.7181 -1.36473,2.16355 -2.69946,2.49681 -4.15807,1.0382 z m -49.962486,-2.47478 c -1.71525,-0.69212 -1.56883,-2.82822 0.30019,-4.37937 1.27775,-1.06044 1.82902,-1.00772 3.13674,0.30001 2.78785,2.78785 0.3965,5.62618 -3.43693,4.07936 z m -10.78962,-2.46257 c -0.66961,-2.10974 0.74652,-3.8272 3.18263,-3.85984 1.47316,-0.0197 2.45948,2.55404 1.71862,4.48469 -0.85614,2.23105 -4.12719,1.81403 -4.90125,-0.62485 z m -10.128509,-0.45269 c -0.332948,-0.86765 0.131175,-2.31408 1.031385,-3.21429 1.515659,-1.51566 1.757834,-1.51566 3.273484,0 2.04449,2.04448 1.10608,4.79183 -1.63674,4.79183 -1.134523,0 -2.335181,-0.70989 -2.668129,-1.57754 z m 86.618785,0.0181 c -0.92966,-1.12017 -0.91869,-1.77417 0.0493,-2.94056 1.54571,-1.86246 4.61157,-1.95462 5.30049,-0.15932 1.11126,2.89589 -3.36604,5.49019 -5.34982,3.09988 z m -96.447816,-1.43161 c -0.801753,-2.5261 0.104165,-4.00895 2.449188,-4.00895 2.289861,0 3.463322,2.79461 1.94278,4.62675 -1.638947,1.97481 -3.659305,1.69061 -4.391968,-0.6178 z m 71.057706,0.089 c -0.7502,-1.21387 1.49261,-5.10448 2.93,-5.08268 2.06684,0.0314 3.69498,1.78356 3.34928,3.60452 -0.39213,2.06554 -5.21465,3.20077 -6.27928,1.47816 z m -31.560546,-1.97551 c 0,-1.03265 0.68344,-2.44476 1.51876,-3.13801 2.112065,-1.75285 6.080395,1.5887 4.355255,3.66736 -1.73661,2.09249 -5.874015,1.71964 -5.874015,-0.52935 z m 43.494456,-0.13139 c -1.06198,-1.71832 0.54484,-4.99105 2.45047,-4.99105 2.8028,0 4.59673,2.6424 3.05506,4.5 -1.42002,1.71102 -4.57749,1.99264 -5.50553,0.49105 z m -67.793216,-2.62315 c -1.0721,-1.07209 -0.83409,-5.16776 0.34256,-5.89497 1.60738,-0.99341 4.08844,1.60323 3.75446,3.92935 -0.29933,2.08472 -2.78525,3.27739 -4.09702,1.96562 z m 9.30933,-1.85517 c -1.75326,-2.11255 -0.50281,-4.51273 2.35106,-4.51273 2.58566,0 3.9446,2.03841 3,4.5 -0.73894,1.92564 -3.75753,1.93283 -5.35106,0.0127 z m -20.524469,-3.55652 c -0.822117,-2.59026 0.750283,-4.46321 3.016818,-3.59346 2.105363,0.8079 1.589943,5.00388 -0.667481,5.4339 -0.998605,0.19023 -1.938527,-0.54609 -2.349337,-1.84044 z m 29.903889,-1.3823 c -0.9098,-2.37089 0.3775,-4.76534 2.35699,-4.38412 1.10702,0.21319 1.75302,1.24877 1.75302,2.81021 0,2.85063 -3.15628,4.05931 -4.11001,1.57391 z m 90.677356,-3.44804 c -0.7761,-1.45017 -0.5446,-2.28899 1.02335,-3.70796 2.2954,-2.07731 5.14404,-1.05344 5.75768,2.06945 0.6815,3.46815 -5.05943,4.85534 -6.78103,1.63851 z m 12.24211,0.23821 c -1.4571,-3.79715 3.73245,-7.02278 5.62108,-3.49386 0.81881,1.52995 0.70213,2.35426 -0.50396,3.56033 -2.03236,2.03238 -4.32314,2.00262 -5.11712,-0.0665 z M 57.346684,324.299 c 0,-0.71988 0.6475,-2.18238 1.43888,-3.25 1.34564,-1.81534 1.54891,-1.83275 3.13675,-0.26867 0.93382,0.91985 1.42545,2.38235 1.0925,3.25 -0.72962,1.90136 -5.66813,2.13545 -5.66813,0.26867 z m 11.15092,-1.00928 c -0.80917,-0.97499 -0.66785,-1.92652 0.54283,-3.65501 l 1.6368,-2.33685 1.91235,2.36166 c 1.82162,2.2496 1.82843,2.42302 0.1436,3.655 -2.22104,1.62407 -2.8703,1.62026 -4.23558,-0.0248 z m 45.902116,-0.11793 c -0.89932,-1.08362 -0.91282,-1.95743 -0.055,-3.56033 1.31223,-2.45193 3.79284,-2.3117 5.39474,0.30498 0.88594,1.44717 0.71929,2.0966 -0.83395,3.25 -2.42327,1.79945 -3.01625,1.80016 -4.50581,0.005 z m 11.29181,-1.61906 c -1.8087,-1.8087 -0.39972,-5.09483 2.03549,-4.74733 1.51008,0.21549 2.11965,1.01749 2.11965,2.78877 0,2.69417 -2.32407,3.78963 -4.15514,1.95856 z m 67.12979,-1.33974 c -2.17587,-1.59103 -1.12292,-5.60512 1.47029,-5.60512 2.35686,0 4.25037,2.32746 3.49499,4.29593 -0.84889,2.21221 -2.96668,2.7706 -4.96528,1.30919 z m -33.22785,-1.75832 c -1.58418,-1.58418 0.25309,-4.8468 2.72937,-4.8468 2.41255,0 3.33022,1.4593 2.52099,4.00895 -0.69692,2.1958 -3.45265,2.63556 -5.25036,0.83785 z m -54.53794,-0.47128 c -1.20513,-1.20514 -0.78371,-4.0685 0.79115,-5.37552 2.0055,-1.66442 4.71615,0.48764 4.29826,3.41249 -0.29573,2.06979 -3.67806,3.37438 -5.08941,1.96303 z M -1.94074,316.98711 c -2.473816,-2.47381 0.803228,-6.58013 4.483267,-5.61777 3.0314328,0.79273 2.0381478,5.65293 -1.233267,6.03444 -1.39558295,0.16275 -2.858083,-0.0247 -3.25,-0.41667 z m 11.8345068,-1.72115 c -2.096207,-1.53279 -1.566112,-4.32982 1.0077772,-5.31752 2.387501,-0.91617 5.188789,2.25695 3.856747,4.36867 -1.457146,2.31006 -2.677439,2.54808 -4.8645242,0.94885 z M 134.3865,315.15586 c -1.46321,-1.76306 -0.44509,-5.54799 1.49237,-5.54799 1.82623,0 3.62718,3.42108 2.85723,5.42756 -0.75543,1.9686 -2.76948,2.02436 -4.3496,0.12043 z m 38.44283,-0.60263 c -0.42636,-1.34337 -0.15621,-2.70037 0.71006,-3.56665 1.19769,-1.1977 1.67863,-1.1901 3.35277,0.0529 1.56518,1.16213 1.73396,1.81147 0.84733,3.25978 -1.61826,2.6434 -4.11086,2.77231 -4.91016,0.25393 z m -185.339658,-0.81479 c -1.682651,-1.09226 -0.692835,-4.7056 1.521827,-5.55544 2.183457,-0.83787 4.494838,1.30795 4.133442,3.83736 -0.321372,2.24929 -3.397345,3.18378 -5.655269,1.71808 z m 195.007158,-0.44963 c -0.91304,-1.10015 -0.84853,-1.68638 0.28947,-2.63084 2.09716,-1.74049 5.06037,-0.88345 5.06037,1.4636 0,2.42147 -3.6483,3.21747 -5.34984,1.16724 z m -61.06223,-1.07499 c -1.45648,-1.75495 1.20461,-4.81466 3.44101,-3.95647 1.78103,0.68344 1.90102,2.52057 0.27107,4.15052 -1.55171,1.5517 -2.29551,1.51281 -3.71208,-0.19405 z m -9.98274,-1.9792 c -1.50197,-1.80976 -0.35772,-4.62675 1.87936,-4.62675 0.97382,0 2.37118,0.7237 3.10526,1.60821 1.13401,1.3664 1.0485,1.81748 -0.56869,3 -2.37435,1.73618 -2.98827,1.73876 -4.41593,0.0185 z m 54.25644,-1.12675 c -0.86358,-2.25044 0.33968,-4.5 2.40699,-4.5 2.81754,0 4.31516,1.97495 3.14939,4.1532 -1.18854,2.22082 -4.75191,2.44323 -5.55638,0.3468 z m 31,0 c -1.46451,-3.81646 2.97432,-6.20999 5.61523,-3.02788 0.97475,1.1745 0.91286,1.78101 -0.30612,3 -1.94916,1.94916 -4.56658,1.9629 -5.30911,0.0279 z M 16.043115,308.25916 c -0.81092,-2.11322 1.613921,-4.93075 3.869666,-4.49634 1.293459,0.2491 1.933903,1.19582 1.933903,2.85875 0,1.93899 -0.57724,2.55324 -2.622253,2.7904 -1.597568,0.18526 -2.840715,-0.26521 -3.181316,-1.15281 z m 39.660309,-0.16402 c -0.686797,-1.78977 1.295235,-4.48727 3.29709,-4.48727 1.99087,0 2.80313,2.74447 1.3356,4.51273 -1.59192,1.91815 -3.891708,1.90551 -4.63269,-0.0255 z m -75.10674,-0.20573 c -1.830077,-0.6562 -1.527513,-5.23782 0.394608,-5.9754 1.530808,-0.58743 4.355392,1.90927 4.355392,3.84981 0,1.15524 -3.316801,2.63948 -4.75,2.12559 z m 63.920311,-1.03154 c -1.301996,-2.5315 -0.353533,-4.25 2.345635,-4.25 2.400207,0 4.208469,3.01886 2.989585,4.99105 -1.004598,1.62547 -4.357605,1.15975 -5.33522,-0.74105 z m 56.790925,0.20329 c -1.579095,-1.90268 -0.41415,-4.68627 1.78574,-4.26698 2.1985,0.41903 2.87439,4.36127 0.87901,5.12697 -0.81388,0.31231 -2.01302,-0.0747 -2.66475,-0.85999 z m 54.19036,0.67563 c -1.73333,-1.11653 -1.14778,-4.10209 1.07964,-5.50479 1.3405,-0.84417 2.12659,-0.69486 3.48304,0.66158 2.92058,2.92059 -1.03278,7.11701 -4.56268,4.84321 z M 1.876496,306.65611 c -0.97115195,-1.57136 0.301582,-4.76956 2.1857968,-5.4926 2.454723,-0.94197 5.036472,2.02565 3.665313,4.21312 -1.269503,2.0253 -4.8995718,2.8191 -5.8511098,1.27948 z m 136.516334,-0.49262 c -0.69845,-0.84158 -1.00869,-2.21088 -0.68942,-3.04289 1.13338,-2.95354 6.0877,-1.05901 5.48017,2.09561 -0.46113,2.39448 -3.14865,2.92589 -4.79075,0.94728 z m 36.88427,-0.13944 c -1.65251,-1.99116 -0.067,-4.91618 2.66486,-4.91618 2.24222,0 3.0561,3.0102 1.36484,5.04804 -1.54221,1.85824 -2.40139,1.83013 -4.0297,-0.13186 z m -109.229176,-0.0483 c -1.14754,-1.14754 -0.79827,-4.04248 0.6308,-5.22851 2.14079,-1.7767 5.51572,1.17542 4.06078,3.55204 -1.19799,1.9569 -3.56525,2.80281 -4.69158,1.67647 z m 61.828556,-0.31966 c -1.2738,-2.06106 0.52885,-5.18095 2.80608,-4.85654 3.0543,0.43511 3.06144,5.18043 0.008,5.61549 -1.1856,0.16895 -2.45215,-0.17258 -2.81455,-0.75895 z m 60.59205,-0.32638 c -1.63162,-1.63162 -1.3732,-4.68818 0.45568,-5.38999 2.05174,-0.78733 4.67204,1.85416 3.88189,3.91327 -0.81981,2.13638 -2.95201,2.86228 -4.33757,1.47672 z M -9.453316,304.40787 c -1.621476,-1.62148 -1.510061,-3.6328 0.301589,-5.44445 2.079672,-2.07967 4.93255,-1.29765 5.325175,1.45971 0.578518,4.06287 -3.008438,6.60307 -5.626764,3.98474 z m 129.109456,-1.43592 c -0.67582,-1.76117 0.63944,-4.51372 2.44427,-5.11533 1.8502,-0.61673 3.59897,3.62134 2.19321,5.31517 -1.59155,1.9177 -3.86246,1.81984 -4.63748,-0.19984 z m -97.059456,-1.02636 c -1.848391,-0.74584 -1.554663,-6.00683 0.376748,-6.74798 2.181665,-0.83719 4.373252,1.13013 4.373252,3.92572 0,1.748 -2.159799,3.95564 -3.331787,3.40559 -0.09252,-0.0434 -0.730713,-0.30592 -1.418213,-0.58333 z m 14.059468,-0.97364 c -0.84148,-2.19286 0.963003,-4.86408 3.285823,-4.86408 2.242223,0 3.056093,3.0102 1.36484,5.04804 -1.60328,1.93183 -3.873211,1.84204 -4.650663,-0.18396 z m 72.263368,-0.0348 c -0.43911,-1.1443 -0.054,-2.2355 1.08229,-3.06635 2.40434,-1.7581 3.84487,-1.07605 3.84487,1.82043 0,3.00399 -3.87638,3.9842 -4.92716,1.24592 z m 57.92999,-1.3203 c -0.80011,-2.52096 0.10323,-4.00898 2.43373,-4.00898 2.40092,0 4.25577,2.33519 3.47369,4.37325 -0.89636,2.33589 -5.13334,2.0746 -5.90742,-0.3643 z M 10.978921,298.35787 c -0.387234,-1.44965 -0.03843,-2.67021 0.980567,-3.43132 2.36263,-1.76468 4.387196,-0.47796 4.387196,2.78831 0,2.38146 -0.421435,2.89301 -2.383369,2.89301 -1.626893,0 -2.574133,-0.71414 -2.984394,-2.25 z m 39.892903,1.29068 c -0.895638,-1.44918 1.763458,-5.12618 3.47486,-4.80504 0.825,0.1548 1.64239,1.51511 1.816422,3.02291 0.270529,2.34384 -0.04725,2.74145 -2.190983,2.74145 -1.379073,0 -2.774207,-0.4317 -3.100299,-0.95932 z m 148.004656,-0.99244 c -1.2738,-2.06106 0.52885,-5.18095 2.80608,-4.85654 3.0543,0.43511 3.06144,5.18043 0.008,5.61549 -1.1856,0.16895 -2.45215,-0.17258 -2.81455,-0.75895 z m -127.389006,-1.3786 c -2.53632,-3.05608 1.27227,-6.56714 4.51201,-4.15953 1.46945,1.09203 1.62078,1.7426 0.74002,3.18132 -1.43101,2.33753 -3.76337,2.77194 -5.25203,0.97821 z m 66.956916,0.39076 c -0.71198,-0.44003 -1.13157,-1.64613 -0.93242,-2.68023 0.4697,-2.43892 5.16795,-2.60381 5.63134,-0.19764 0.38763,2.0128 -2.8702,4.00807 -4.69892,2.87787 z m 44.91285,-0.54767 c -1.6616,-2.00209 -0.55479,-4.51273 1.98943,-4.51273 1.13452,0 2.32399,0.68073 2.64326,1.51273 0.57462,1.49745 -1.18655,4.48727 -2.64326,4.48727 -0.41531,0 -1.31055,-0.66927 -1.98943,-1.48727 z m -208.343889,-0.1794 c -1.279658,-1.27965 -0.654154,-5.4009 0.910874,-6.00146 2.280649,-0.87517 4.771621,1.99266 3.95785,4.55662 -0.640334,2.01752 -3.459452,2.85412 -4.868724,1.44484 z m 85.310423,-0.86094 c -1.0847,-1.30697 -1.03716,-1.84089 0.28127,-3.15932 1.77621,-1.77621 4.47503,-1.17143 5.38786,1.20738 0.70082,1.82629 0.55125,2.01717 -2.25504,2.8779 -1.34536,0.41264 -2.58137,0.0774 -3.41409,-0.92596 z m 40.022906,-1.04194 c 0,-2.09274 0.41751,-2.51025 2.25,-2.25 1.44596,0.20536 2.36419,1.12359 2.56954,2.56955 0.26026,1.83248 -0.15726,2.25 -2.25,2.25 -2.09272,0 -2.56954,-0.47682 -2.56954,-2.56955 z m 25.75429,1.31955 c -0.75076,-2.04154 0.28343,-3.75 2.27002,-3.75 2.27866,0 3.18204,1.29865 2.37194,3.40976 -0.72397,1.88662 -3.98538,2.12568 -4.64196,0.34024 z m 47.81555,-0.67282 c -2.07902,-2.29729 -1.02221,-5.07718 1.93015,-5.07718 2.43368,0 3.79145,2.07692 2.8913,4.42268 -0.8771,2.2857 -3.07521,2.58408 -4.82145,0.6545 z m -175.44986,-0.853 c -1.97936,-3.69847 2.694442,-7.00976 5.6800238,-4.02418 1.581457,1.58146 1.514605,2.34254 -0.371429,4.22857 -2.0702888,2.07029 -4.13374075,1.99084 -5.3085948,-0.20439 z m 157.4282,0.8538 c -0.74423,-1.20419 1.09851,-5.07798 2.41557,-5.07798 1.45694,0 4.15597,3.13929 3.75376,4.36607 -0.48729,1.48631 -5.34433,2.04679 -6.16933,0.71191 z M 44.468635,293.25481 c -1.515523,-1.82609 0.996956,-5.19902 3.233441,-4.3408 2.218147,0.85118 2.081082,3.3899 -0.250387,4.63766 -1.371766,0.73415 -2.19542,0.65218 -2.983054,-0.29686 z m 71.893345,0.10306 c 0.0281,-2.29116 1.76353,-4.04885 3.38377,-3.4271 0.8805,0.33788 1.60092,1.52845 1.60092,2.64572 0,1.50014 -0.65378,2.03138 -2.5,2.03138 -1.375,0 -2.49311,-0.5625 -2.48469,-1.25 z m -96.011141,-1.24499 c -0.999856,-1.20476 -0.922081,-1.98133 0.400608,-4 1.963193,-2.99622 4.142271,-3.2199 5.560053,-0.57075 1.338794,2.50156 1.322845,2.63522 -0.536245,4.49431 -1.974099,1.9741 -3.827816,2.00022 -5.424416,0.0764 z m -34.291579,-0.12577 c -1.110223,-1.11022 -0.871523,-1.88995 1.36964,-4.47404 2.053906,-2.36817 2.101885,-2.37391 3.528904,-0.42235 0.795678,1.08816 1.317333,2.66217 1.159233,3.49781 -0.300495,1.58827 -4.823783,2.63258 -6.057777,1.39858 z m 48.287424,-1.94498 c 0,-2.64896 1.954467,-5.38896 3.437936,-4.8197 2.020999,0.77553 2.786703,3.40984 1.456872,5.01219 -1.55306,1.87132 -4.894808,1.73991 -4.894808,-0.19249 z m 75.212496,0.37824 c -1.64075,-1.64075 -1.52473,-3.30849 0.33769,-4.85415 2.21745,-1.84033 5.4237,1.27416 3.86142,3.75089 -1.40452,2.22662 -2.72802,2.57435 -4.19911,1.10326 z m 80.98749,-0.0125 c -3.04185,-3.04185 0.0294,-6.81797 3.87244,-4.76123 2.47117,1.32253 2.46808,3.60159 -0.007,4.92605 -2.4106,1.29011 -2.41082,1.2901 -3.86574,-0.16482 z m -136.83836,-1.3 c -0.877601,-2.28699 0.351848,-4.5 2.5,-4.5 2.689524,0 3.683914,3.12792 1.501674,4.72362 -2.281118,1.66799 -3.297592,1.61119 -4.001674,-0.22362 z m 79.15925,-0.43418 c -0.8365,-2.6356 0.0797,-4.06582 2.60455,-4.06582 1.59866,0 1.94298,0.55821 1.69098,2.74145 -0.38569,3.34161 -3.36386,4.25981 -4.29553,1.32437 z M 8.0927738,288.35787 c -0.231318,-0.6875 -0.210159,-2.06111 0.04702,-3.05247 0.616413,-2.37612 4.5635302,-1.84205 5.0450682,0.68264 0.556854,2.91956 -4.1673702,5.11819 -5.0920872,2.36983 z m 63.5633802,-0.38592 c -0.84148,-2.19286 0.963,-4.86408 3.28582,-4.86408 2.24222,0 3.05609,3.0102 1.36484,5.04804 -1.60328,1.93183 -3.87321,1.84204 -4.65066,-0.18396 z m 92.765936,0.2268 c -1.63529,-1.97041 -0.42465,-5.59088 1.86952,-5.59088 2.72009,0 4.6768,2.79016 3.38989,4.83382 -1.41324,2.24429 -3.74638,2.58013 -5.25941,0.75706 z m -101.765936,-1.2268 c -0.84148,-2.19286 0.963,-4.86408 3.28582,-4.86408 2.24222,0 3.05609,3.0102 1.36484,5.04804 -1.60328,1.93183 -3.87321,1.84204 -4.65066,-0.18396 z m 59.419166,-0.49606 c -3.16914,-1.77355 -1.40086,-5.37223 2.02135,-4.11372 1.36767,0.50295 1.71462,3.84052 0.47865,4.60439 -0.42424,0.2622 -1.54924,0.0414 -2.5,-0.49067 z m -145.528636,-1.06802 c -1.69411,-1.69411 -1.489671,-4.47487 0.381787,-5.19301 2.210928,-0.84841 2.220889,-0.84421 3.452423,1.45693 0.819897,1.53199 0.797407,2.43404 -0.08726,3.5 -1.451741,1.74924 -2.187433,1.7956 -3.74695,0.23608 z m 201.161616,-0.3 c -0.86358,-2.25044 0.33968,-4.5 2.40699,-4.5 2.54523,0 4.09431,1.80817 3.49908,4.08433 -0.6064,2.31886 -5.05559,2.63199 -5.90607,0.41567 z M -3.261704,284.18601 c -0.60575,-1.57856 1.201924,-5.57814 2.52112705,-5.57814 1.684158,0 3.23662595,2.95403 2.60249195,4.95201 -0.74276,2.34023 -4.299086,2.77483 -5.123619,0.62613 z m 49.573214,-2.12052 c -0.941554,-1.1345 -0.985142,-1.8373 -0.164826,-2.65762 1.325083,-1.32508 4.2,0.60689 4.2,2.82244 0,1.84985 -2.446064,1.74994 -4.035174,-0.16482 z m -11.84485,-1.23344 c -1.241479,-2.31973 0.367774,-5.22418 2.89453,-5.22418 2.848518,0 4.38451,3.45813 2.412083,5.43055 -2.068436,2.06844 -4.132123,1.98818 -5.306613,-0.20637 z m -18.097589,-0.69721 c -1.386406,-1.67051 -0.553114,-5.10933 1.421724,-5.86715 1.682278,-0.64555 4.999939,2.81267 4.098157,4.27179 -1.383996,2.23935 -4.288682,3.07887 -5.519881,1.59536 z m 39.030664,0.0369 c -0.899325,-1.08362 -0.912817,-1.95743 -0.05497,-3.56033 1.312235,-2.45193 3.792842,-2.3117 5.394742,0.30498 0.88594,1.44717 0.71929,2.0966 -0.83395,3.25 -2.42327,1.79945 -3.016264,1.80016 -4.505819,0.005 z m 44.14694,0.23613 c -1.76241,-1.76242 -1.46625,-3.58714 0.777085,-4.78773 2.71015,-1.45043 6.8221,2.31985 4.96738,4.55464 -1.44943,1.74645 -4.12263,1.85492 -5.744465,0.23309 z m -30.106891,-1.18782 c -1.81169,-2.18295 0.35754,-5.83102 3.22456,-5.42286 3.08963,0.43984 3.17184,6.1693 0.0948,6.60894 -1.14812,0.16404 -2.64185,-0.3697 -3.31939,-1.18608 z m -86.598631,-1.62113 c -1.083743,-1.75353 0.562395,-4.99105 2.537735,-4.99105 2.469571,0 4.302631,3.26516 2.720992,4.8468 -1.422212,1.42222 -4.418112,1.50439 -5.258727,0.14425 z m 106.463876,-0.54124 c -1.06044,-1.27775 -1.00772,-1.82902 0.30001,-3.13674 2.14063,-2.14063 4.741636,-0.95821 4.741636,2.15555 0,2.93821 -2.942246,3.51082 -5.041646,0.98119 z m 21.052221,0.0629 c -1.44565,-1.7419 -0.70814,-4.30782 1.47947,-5.14729 1.94415,-0.74603 4.50995,1.33055 4.50995,3.65002 0,1.5939 -1.84485,2.98454 -3.95933,2.98454 -0.43768,0 -1.35122,-0.66927 -2.03009,-1.48727 z M 4.8920878,276.26473 c -2.0611398,-1.50714 -1.418525,-5.10783 1.082905,-6.06772 2.19377,-0.84183 3.371691,0.15294 3.371691,2.84743 0,3.30404 -2.182421,4.88174 -4.454596,3.22029 z M -6.655238,273.60428 c -0.857844,-1.6029 -0.844352,-2.47671 0.05497,-3.56033 2.789461,-3.3611 7.56230405,-0.22415 5.248913,3.44984 -1.53621,2.43972 -4.029522,2.49166 -5.303886,0.11049 z m 48.363548,-0.49641 c -0.960978,-2.50427 0.430877,-4.5 3.138374,-4.5 3.281349,0 4.475514,2.81352 1.97135,4.64461 -2.427256,1.77485 -4.394522,1.71918 -5.109724,-0.14461 z m 21.305044,0.83333 c -1.14913,-1.14912 -0.72828,-4.03731 0.76941,-5.28028 2.12732,-1.76552 5.56392,0.38525 5.56392,3.48213 0,2.0398 -0.48856,2.46482 -2.83333,2.46482 -1.55834,0 -3.13334,-0.3 -3.5,-0.66667 z m 38.442296,-2.51297 c -1.09345,-2.88763 0.43754,-5.0281 3.30351,-4.61862 3.13168,0.44745 2.98581,6.17071 -0.16869,6.61862 -1.60822,0.22836 -2.50853,-0.34602 -3.13482,-2 z m 49.33586,-0.99416 c -0.75516,-2.37931 1.87111,-5.11022 4.42863,-4.6051 2.44256,0.48241 3.67927,3.40796 2.1961,5.19508 -1.95255,2.35267 -5.79951,2.01007 -6.62473,-0.58998 z m -99.444826,-0.0717 c 0,-0.75473 0.648644,-2.24574 1.441431,-3.31336 1.154125,-1.55422 1.801915,-1.72009 3.25,-0.83214 3.091229,1.89549 2.274009,4.84613 -1.441431,5.20437 -2.239965,0.21597 -3.25,-0.1131 -3.25,-1.05887 z m 30.36163,-0.25449 c -0.88463,-2.3053 0.35804,-4.5 2.54797,-4.5 2.62716,0 3.4238,1.50851 2.10146,3.97933 -1.27057,2.37409 -3.8283,2.66052 -4.64943,0.52067 z m 33.596706,-1.05019 c -1.06044,-1.27775 -1.00772,-1.82902 0.30001,-3.13674 2.14063,-2.14063 4.74164,-0.95821 4.74164,2.15555 0,2.93821 -2.94225,3.51082 -5.04165,0.98119 z m 25.03992,-0.45305 c -0.85807,-1.60331 -0.84463,-2.47696 0.0548,-3.56068 2.65923,-3.20418 8.45956,-0.0694 6.28683,3.39774 -1.59419,2.54392 -5.02024,2.63195 -6.34161,0.16294 z m -48.639481,-0.50416 c -0.35286,-0.91958 0.0567,-2.33669 0.92693,-3.20689 2.124146,-2.12414 4.941436,-0.90648 4.534426,1.95982 -0.39439,2.77734 -4.513226,3.71785 -5.461356,1.24707 z m 109.353791,0.88664 c -1.22183,-1.22183 -0.78085,-5.07768 0.7235,-6.32619 2.34207,-1.94375 5.75694,0.44825 5.37385,3.76421 -0.23399,2.02539 -0.93166,2.75525 -2.84735,2.97865 -1.39559,0.16275 -2.85809,-0.0247 -3.25,-0.41667 z M 190.585,266.4462 c -2.67967,-2.67967 0.036,-6.52082 3.77182,-5.3351 1.56978,0.49823 2.02766,1.34693 1.79799,3.33262 -0.34326,2.96789 -3.47756,4.09474 -5.56981,2.00248 z m -79.98832,-0.56896 c -1.43834,-0.50172 -1.6987,-4.87401 -0.34024,-5.71359 1.71068,-1.05726 4.09024,0.65559 4.09024,2.94423 0,2.36481 -1.57509,3.52801 -3.75,2.76936 z m 49.98831,-1.43104 c -1.82828,-1.82828 -1.50513,-4.62516 0.66882,-5.78862 2.82431,-1.51153 7.05624,2.06289 5.49074,4.63765 -1.35526,2.22896 -4.49489,2.81563 -6.15956,1.15097 z m 51.45128,-0.99215 c -2.19513,-1.22846 -2.14431,-3.12469 0.13914,-5.19118 2.25625,-2.04188 2.63448,-2.04891 4.59785,-0.0855 2.82821,2.82821 -1.16458,7.27594 -4.73699,5.27672 z m -79.64973,-1.29813 c -1.74686,-2.10484 -0.8638,-4.99875 1.63446,-5.35634 2.60435,-0.37277 4.11084,3.1573 2.28584,5.35629 -1.51852,1.82971 -2.40181,1.82972 -3.9203,5e-5 z m 17.16002,0.19281 c -1.8385,-2.21526 -0.31541,-5.74085 2.4801,-5.74085 2.15693,0 2.40961,0.38399 2.13338,3.24181 -0.339,3.50705 -2.71069,4.79176 -4.61348,2.49904 z m -71.100696,-1.99085 c -1.00532,-2.70449 -0.4847,-4.38808 1.60489,-5.18993 3.7263,-1.42992 5.91418,4.5035 2.36167,6.40475 -2.68907,1.43914 -3.01741,1.33859 -3.96656,-1.21482 z m 20.569551,0.18743 c -1.8202,-2.5987 -1.23457,-4.62306 1.597455,-5.52191 3.05309,-0.96902 5.22634,2.21009 3.39564,4.96727 -1.91051,2.87736 -3.26112,3.02739 -4.993095,0.55464 z m 20.913645,0.74647 c -2.11807,-1.54878 -1.8002,-4.51749 0.64886,-6.05977 1.33558,-0.84108 2.11885,-0.70261 3.42733,0.60588 1.39977,1.39977 1.49415,2.13936 0.5402,4.23305 -1.31321,2.8822 -2.07047,3.08247 -4.61639,1.22084 z m 60.58012,0.4377 c -0.73562,-0.46628 -1.18562,-1.92189 -1,-3.23469 0.47222,-3.3398 6.33181,-4.05553 7.33463,-0.89591 1.18672,3.73901 -2.82522,6.35506 -6.33463,4.1306 z m -92.773956,-2.55146 c -0.99567,-2.59467 0.399875,-4.73919 2.856985,-4.39028 1.65273,0.23469 2.25447,0.98741 2.25447,2.82014 0,1.83273 -0.60174,2.58545 -2.25447,2.82014 -1.35228,0.19202 -2.49559,-0.3082 -2.856985,-1.25 z m 53.071006,-0.99809 c -1.54064,-1.14387 -1.7305,-1.82883 -0.88812,-3.20396 1.47802,-2.41276 2.67943,-2.64006 4.969,-0.94014 1.54064,1.14387 1.7305,1.82883 0.88812,3.20396 -1.47802,2.41276 -2.67943,2.64006 -4.969,0.94014 z m 79.11187,-1.14348 c -2.21583,-2.21583 -1.95137,-4.09595 0.67265,-4.78215 2.91826,-0.76314 5.17261,1.46534 4.29131,4.24207 -0.79435,2.50279 -2.7847,2.71934 -4.96396,0.54008 z m -110.34224,-0.59938 c -1.64383,-1.64384 -1.54995,-3.31809 0.27082,-4.82919 2.00269,-1.66209 4.71691,0.48636 4.29826,3.40228 -0.34828,2.4256 -2.8036,3.19239 -4.56908,1.42691 z m 89.12959,-0.33659 c -0.34775,-0.90623 0.0244,-2.30432 0.82693,-3.10689 2.00091,-2.0009 5.00211,-0.70637 4.61716,1.99157 -0.37927,2.65815 -4.52604,3.50769 -5.44409,1.11532 z m -31.10878,-0.15488 c -1.49179,-0.60195 -1.68029,-5.95374 -0.24105,-6.84325 3.47586,-2.1482 7.7135,3.77287 4.42247,6.17933 -1.92682,1.40893 -2.2198,1.45545 -4.18142,0.66392 z M 50.013351,254.9412 c -1.236129,-1.23613 -0.678774,-4.11471 0.91512,-4.72634 3.277973,-1.25788 4.418213,-0.6403 4.418213,2.39301 0,2.47619 -0.407407,3 -2.333333,3 -1.283334,0 -2.633334,-0.3 -3,-0.66667 z m -11.708487,-2.41147 c -1.417146,-2.64796 -0.559931,-4.92186 1.855448,-4.92186 2.472929,0 5.586503,3.51489 4.839038,5.46275 -0.874403,2.27866 -5.380349,1.9146 -6.694486,-0.54089 z m 55.613241,-0.49329 c -1.733786,-1.73379 -1.099786,-4.07543 1.47677,-5.45437 1.31553,-0.70405 2.24349,-0.53965 3.38235,0.59921 1.744735,1.74474 1.881685,2.42587 0.80414,3.99953 -1.33456,1.949 -4.14524,2.37365 -5.66326,0.85563 z m 95.787345,0.064 c -0.34775,-0.90623 0.0244,-2.30432 0.82693,-3.10689 2.00091,-2.0009 5.00211,-0.70637 4.61717,1.99157 -0.37927,2.65815 -4.52604,3.50769 -5.4441,1.11532 z m 17.81153,-0.2426 c -1.29355,-2.51509 -0.3585,-4.25 2.29058,-4.25 3.39895,0 5.02148,2.37477 3.0022,4.39405 -2.09565,2.09565 -4.1699,2.0392 -5.29278,-0.14405 z M 59.829794,250.55463 c -0.98158,-3.0927 1.77711,-5.80565 4.01496,-3.94839 2.22594,1.84736 1.50943,5.4293 -1.16218,5.8099 -1.49969,0.21364 -2.37555,-0.35788 -2.85278,-1.86151 z m 19.56751,0.6142 c -2.52986,-3.04829 1.46208,-7.04023 4.51037,-4.51037 2.13688,1.77345 1.41596,5.38123 -1.1485,5.74764 -1.14812,0.16404 -2.66097,-0.39273 -3.36187,-1.23727 z m 78.879796,-0.14481 c -1.52461,-1.83705 -0.22433,-4.71756 2.35929,-5.22651 2.49427,-0.49135 4.05103,3.32674 2.13687,5.24088 -1.97549,1.97549 -2.84702,1.97271 -4.49616,-0.0144 z m -55.54188,-0.84604 c -0.99567,-2.59467 0.39988,-4.73919 2.85699,-4.39028 1.65272,0.23469 2.25447,0.98741 2.25447,2.82014 0,1.83273 -0.60175,2.58545 -2.25447,2.82014 -1.35229,0.19202 -2.49559,-0.3082 -2.85699,-1.25 z m 24.27812,0.76319 c -1.42633,-1.42632 -0.56134,-4.23199 1.50713,-4.88849 2.46452,-0.78221 5.0511,1.80552 4.15053,4.15236 -0.54973,1.43256 -4.45331,1.94047 -5.65766,0.73613 z M 115.585,249.44616 c -1.63152,-1.63152 -1.56663,-3.32096 0.18332,-4.77329 1.99607,-1.65658 5.73995,0.74254 5.36034,3.43497 -0.32806,2.32685 -3.7331,3.14888 -5.54366,1.33832 z m 31.47053,0.5372 c -1.2888,-1.28879 -0.73596,-5.42789 0.80387,-6.01878 2.12496,-0.81542 4.64126,1.56597 4.28553,4.05575 -0.29573,2.06979 -3.67805,3.37438 -5.0894,1.96303 z m 31.3442,-0.8116 c -1.44028,-1.73539 0.21851,-5.56389 2.4107,-5.56389 1.4628,0 4.53624,2.62302 4.53624,3.87143 0,2.83338 -4.99095,4.04933 -6.94694,1.69249 z m -41.38639,-0.23059 c -1.01562,-1.01561 -0.79489,-4.13605 0.34228,-4.83886 1.72463,-1.06588 4.99105,0.54796 4.99105,2.46593 0,2.3375 -3.7156,3.99067 -5.33333,2.37293 z m -107.30503,-1.8333 c -1.40759,-3.66812 2.650434,-6.91651 5.313536,-4.25341 1.201198,1.2012 1.282441,1.96411 0.387275,3.63675 -1.306451,2.44112 -4.853465,2.82481 -5.700811,0.61666 z m 189.99999,0 c -0.79219,-2.06442 0.28192,-4.5 1.98454,-4.5 2.04691,0 3.78845,2.48562 3.06409,4.37325 -0.78395,2.04295 -4.27963,2.13071 -5.04863,0.12675 z m -20.90207,-0.92795 c -1.54064,-1.14387 -1.7305,-1.82883 -0.88812,-3.20396 1.47802,-2.41276 2.67943,-2.64006 4.969,-0.94014 1.54064,1.14387 1.7305,1.82883 0.88812,3.20396 -1.47802,2.41276 -2.67943,2.64006 -4.969,0.94014 z M 53.055533,245.98339 c -1.205131,-1.20514 -0.78371,-4.0685 0.791151,-5.37552 2.005501,-1.66442 4.71615,0.48764 4.29826,3.41249 -0.29573,2.06979 -3.678057,3.37438 -5.089411,1.96303 z m 34.401551,-1.55128 c -1.04077,-2.74863 0.26865,-4.82424 3.043435,-4.82424 2.33942,0 3.525696,2.69816 2.14813,4.88592 -1.61319,2.56199 -4.20979,2.53113 -5.191565,-0.0617 z M 43.833237,243.5655 c -0.819501,-2.58202 0.596555,-4.28086 3.157227,-3.78772 1.214723,0.23394 1.85622,1.21673 1.85622,2.84379 0,3.34673 -4.01113,4.10195 -5.013447,0.94393 z m 23.553317,0.59041 c -1.94229,-2.34032 -0.83457,-5.01206 2.22437,-5.36501 3.23096,-0.3728 4.42395,1.66256 2.77758,4.73883 -1.29922,2.42762 -3.29911,2.67798 -5.00195,0.62618 z m 39.424726,-1.65955 c -0.98322,-3.09787 1.63627,-5.44005 4.41874,-3.95093 2.37159,1.26924 2.71076,3.06834 0.91666,4.86244 -1.8761,1.8761 -4.59824,1.41104 -5.3354,-0.91151 z m 58.47295,-0.005 c -1.48912,-2.78246 0.85306,-5.40196 3.95093,-4.41873 2.52482,0.80134 2.90161,5.01822 0.52972,5.9284 -2.54835,0.97789 -3.28155,0.73085 -4.48065,-1.50967 z m 22.77129,1.49218 c -1.44307,-1.44307 -0.64376,-4.2614 1.39181,-4.90747 2.52876,-0.8026 4.2176,0.63416 3.7329,3.17573 -0.35738,1.87397 -3.81432,3.04213 -5.12471,1.73174 z m 21.54115,-0.0378 c -1.78173,-0.71895 -1.54834,-4.28601 0.32754,-5.00585 0.86765,-0.33295 2.29149,0.10859 3.1641,0.9812 1.30773,1.30772 1.36045,1.85899 0.30001,3.13674 -1.34607,1.62191 -1.74252,1.71475 -3.79165,0.88791 z m -56.20384,-1.7821 c -1.81532,-2.18733 -0.52119,-4.76208 2.19937,-4.37576 1.64895,0.23416 2.25447,0.98793 2.25447,2.80644 0,2.91773 -2.58023,3.82688 -4.45384,1.56932 z m -57.683405,-1.0527 c -0.34557,-0.90055 -0.16636,-2.09931 0.39825,-2.66392 1.6301,-1.6301 4.738995,-0.53146 4.738995,1.6747 0,2.54367 -4.228315,3.35787 -5.137245,0.98922 z m 48.196455,0.16404 c -2.55948,-1.87154 -1.63183,-5.16696 1.45449,-5.16696 1.75912,0 2.57353,0.61054 2.78456,2.08751 0.42906,3.00303 -1.96505,4.74223 -4.23905,3.07945 z M 129.6825,240.0408 c -0.79115,-2.0617 1.28243,-4.21452 2.69695,-2.8 1.1452,1.1452 0.28116,4.36722 -1.17115,4.36722 -0.50842,0 -1.19503,-0.70525 -1.5258,-1.56722 z m 49.16439,-0.43243 c -1.00744,-1.63021 0.32375,-6.0005 1.8277,-6.0005 0.7094,0 2.16333,0.64864 3.23096,1.44143 1.55047,1.15134 1.71933,1.80541 0.839,3.25 -1.28891,2.11507 -4.90361,2.91731 -5.89765,1.30892 z m -190.348599,-0.88564 c -1.734518,-1.09921 -1.146699,-4.08871 1.079629,-5.49073 2.645698,-1.6661 5.377178,1.37052 3.831201,4.25921 -1.202902,2.24764 -2.710751,2.62577 -4.91083,1.23152 z m 38.818876,-1.65043 c -1.816962,-2.1893 -0.06253,-4.96443 3.138503,-4.96443 1.990016,0 2.391014,0.50313 2.391014,3 0,2.28 -0.501001,3.07158 -2.087505,3.29826 -1.148128,0.16404 -2.697034,-0.43618 -3.442012,-1.33383 z m 33.181127,0.64949 c -1.97706,-1.25154 -0.98445,-4.61392 1.36209,-4.61392 1.43379,0 1.9863,0.67222 1.9863,2.41667 0,2.66711 -1.27965,3.50682 -3.34839,2.19725 z M 216.7083,237.10787 c -0.87759,-2.28699 0.35184,-4.5 2.5,-4.5 1.89777,0 3.13837,1.81118 3.13837,4.58179 0,1.91963 -4.89762,1.84859 -5.63837,-0.0818 z m -12.27964,-1.3468 c -1.14754,-2.1442 0.3204,-4.1532 3.03468,-4.1532 2.1269,0 2.90544,1.93155 1.71302,4.25 -1.17353,2.28171 -3.50015,2.23427 -4.7477,-0.0968 z M 1.317167,235.0723 c -1.81696195,-2.1893 -0.06253,-4.96443 3.1385028,-4.96443 1.990016,0 2.391014,0.50313 2.391014,3 0,2.28 -0.501001,3.07158 -2.087505,3.29826 -1.148128,0.16404 -2.6970338,-0.43618 -3.4420118,-1.33383 z m 47.523986,0.52662 c -0.884818,-1.43166 0.324143,-4.70747 1.970485,-5.33923 1.96401,-0.75366 3.822664,1.86662 3.050277,4.30019 -0.675023,2.12681 -3.931921,2.80082 -5.020762,1.03904 z M 195.35724,235.1206 c -0.67888,-0.81799 -0.97309,-2.16799 -0.65383,-3 0.7534,-1.96333 5.53312,-1.96333 6.28652,0 0.66275,1.72708 -1.27072,4.48727 -3.14326,4.48727 -0.69031,0 -1.81055,-0.66927 -2.48943,-1.48727 z M 38.705469,234.10047 c -0.352873,-0.91958 0.05673,-2.33669 0.926929,-3.20689 2.12414,-2.12414 4.941439,-0.90648 4.534423,1.95982 -0.394385,2.77734 -4.513222,3.71785 -5.461352,1.24707 z m 29.841215,0.3074 c -2.63916,-2.63916 -0.0279,-7.71542 3.30995,-6.43456 2.44452,0.93806 2.88362,3.54219 0.95634,5.67181 -2.06956,2.28683 -2.64018,2.38886 -4.26629,0.76275 z m 70.002596,-0.48967 c -1.35261,-2.62633 -0.39653,-4.31033 2.44715,-4.31033 2.11722,0 2.43646,0.40393 2.16666,2.74145 -0.37349,3.23593 -3.25129,4.2145 -4.61381,1.56888 z m 20.34448,0.34776 c -2.0962,-1.53279 -1.56611,-4.32982 1.00778,-5.31752 2.38749,-0.91617 5.18879,2.25695 3.85675,4.36867 -1.45715,2.31006 -2.67744,2.54808 -4.86453,0.94885 z m -179.571653,-1.1877 c -0.977979,-1.1784 -1.007092,-2.10547 -0.126793,-4.03751 0.965278,-2.11856 1.453843,-2.34137 3.147022,-1.43521 2.241283,1.1995 2.626724,3.97995 0.804348,5.80233 -1.575969,1.57597 -2.294476,1.51405 -3.824577,-0.32961 z m 121.408613,0.088 c -0.982275,-2.55979 0.0806,-5.05043 2.29029,-5.36671 1.47299,-0.21083 2.36522,0.35756 2.8224,1.79799 1.16409,3.66772 -3.75666,7.10247 -5.11269,3.56872 z m -12.919421,-2.66992 c -1.345475,-4.23921 4.57972,-6.54251 6.169946,-2.39844 0.75136,1.95803 -1.336376,4.50995 -3.689616,4.50995 -0.99559,0 -2.11174,-0.95018 -2.48033,-2.11151 z m 61.581541,0.66713 c -2.7007,-3.25413 1.76872,-7.16931 4.76443,-4.1736 1.27355,1.27355 1.40396,2.05494 0.56528,3.38674 -1.46016,2.31867 -3.77482,2.66039 -5.32971,0.78686 z m 60.8624,-2.72645 c -0.96276,-1.79895 -0.85039,-2.39854 0.65595,-3.5 0.99976,-0.73105 2.3909,-1.32917 3.09143,-1.32917 1.66345,0 3.65157,3.75623 2.95244,5.57814 -0.85778,2.23534 -5.37278,1.73061 -6.69982,-0.74897 z M 9.3865528,228.15591 c -1.900545,-2.29002 -0.83736,-5.01144 2.0909352,-5.35214 3.22885,-0.37566 4.264344,1.79493 2.237053,4.6893 -1.744892,2.49118 -2.690418,2.63599 -4.3279882,0.66284 z m 37.0000002,0 c -1.73445,-2.08989 -0.870336,-4.99773 1.589994,-5.35051 2.424243,-0.34761 3.65238,2.54675 2.189685,5.16044 -1.133451,2.02536 -2.211528,2.07957 -3.779679,0.19007 z m 8.926159,-0.089 c -1.688757,-2.0348 -0.130269,-4.95904 2.642962,-4.95904 1.43253,0 1.89101,0.72404 1.89101,2.9863 0,3.45117 -2.42965,4.50832 -4.533972,1.97277 z m 56.574638,-0.0613 c -1.58862,-1.58863 -1.56552,-1.81742 0.37996,-3.7629 1.9669,-1.96689 2.15909,-1.98377 3.80844,-0.33441 1.31556,1.31555 1.48116,2.14264 0.68254,3.40873 -1.52198,2.41283 -2.94545,2.61406 -4.87094,0.68858 z m 75.41407,0.0477 c -1.07641,-1.29699 -0.95121,-1.89345 0.75572,-3.60038 1.68854,-1.68855 2.41645,-1.84753 4.1677,-0.91029 2.37635,1.27178 2.71706,3.06997 0.92183,4.8652 -1.66083,1.66083 -4.30579,1.50041 -5.84525,-0.35453 z m -195.23487,-1.4087 c -0.768916,-2.94034 1.939668,-4.80581 3.99442,-2.75106 1.331341,1.33135 1.388657,1.88532 0.327367,3.1641 -1.766809,2.12888 -3.705514,1.94359 -4.321787,-0.41304 z m 39.64176,-0.53674 c -0.884626,-2.3053 0.358049,-4.5 2.547972,-4.5 2.475247,0 3.4035,1.43816 2.587562,4.00895 -0.739686,2.33054 -4.299053,2.67088 -5.135534,0.49105 z m 168.67003,-0.44083 c -0.83314,-1.55674 -0.61949,-2.23447 1.07961,-3.42456 2.49291,-1.74611 4.88872,-1.12255 4.88872,1.27238 0,3.86157 -4.236,5.38907 -5.96833,2.15218 z M 78.831454,223.55988 c -0.3575,-1.12639 -0.0897,-2.72311 0.59511,-3.54825 1.63238,-1.96691 5.30607,-1.3948 5.74248,0.89428 0.7845,4.11491 -5.09275,6.57611 -6.33759,2.65397 z m -106.000001,-1 c -0.768579,-2.42158 1.03557,-4.95201 3.530687,-4.95201 2.083133,0 3.274649,2.5106 2.439831,5.14088 -0.823742,2.59538 -5.130068,2.45916 -5.970518,-0.18887 z m 90.744421,0.87718 c -1.67012,-1.67012 -1.54698,-4.32056 0.27081,-5.82919 2.13545,-1.77227 4.69199,0.54963 4.30056,3.90585 -0.33223,2.84858 -2.66476,3.82995 -4.57137,1.92334 z m -79.22919,-1.63719 c 0,-2.49112 2.174635,-4.32014 3.881932,-3.26497 1.999039,1.23547 0.892969,4.53083 -1.642148,4.89252 -1.662246,0.23715 -2.239784,-0.18252 -2.239784,-1.62755 z m 113.434721,0.38392 c -1.99182,-1.45645 -1.38933,-4.27237 1.12013,-5.23535 2.069975,-0.79432 4.698885,1.8346 3.904575,3.90457 -0.87254,2.27377 -2.973965,2.83033 -5.024705,1.33078 z m 58.765265,0.22408 c -2.98558,-2.98558 0.32571,-7.65938 4.02418,-5.68002 2.20234,1.17865 2.33451,5.45165 0.19403,6.27303 -2.23266,0.85675 -2.85609,0.76911 -4.21821,-0.59301 z M -0.15047595,220.61682 c -0.80011,-2.52093 0.103233,-4.00895 2.43373195,-4.00895 2.8098758,0 4.6070888,2.64 3.0634278,4.5 -1.76427,2.12582 -4.75128575,1.85899 -5.49715975,-0.49105 z m 41.65966795,0.11265 c -0.735621,-0.46628 -1.185621,-1.92189 -1,-3.23469 0.44148,-3.12236 4.277909,-3.80102 5.766245,-1.02004 2.03807,3.80817 -1.079783,6.59141 -4.766245,4.25473 z m 127.452078,-0.41415 c -2.68008,-1.95972 -1.80664,-6.20745 1.27642,-6.20745 3.06918,0 5.00877,2.85 3.53243,5.19048 -1.45855,2.31228 -2.68322,2.57127 -4.80885,1.01697 z m -61.3854,-0.87826 c -1.89889,-1.89889 -1.45617,-4.62237 0.87147,-5.36114 2.66094,-0.84455 4.16439,0.62766 3.734,3.6564 -0.37854,2.66388 -2.76352,3.54669 -4.60547,1.70474 z m 10.34656,-0.15014 c -2.53343,-1.85249 -1.38998,-4.67905 1.89286,-4.67905 2.77036,0 3.24878,1.63664 1.26961,4.34331 -1.09774,1.50126 -1.50885,1.5449 -3.16247,0.33574 z m -66.130909,-1.85285 c -0.70708,-2.22782 1.892141,-5.21387 3.943283,-4.53016 1.68016,0.56005 2.95525,3.36677 2.30241,5.06804 -0.948113,2.47075 -5.412827,2.08624 -6.245693,-0.53788 z m 38.517788,0.34462 c -2.46236,-1.99391 -2.21159,-4.75432 0.52742,-5.80538 3.435386,-1.31827 6.047796,4.11337 3.139346,6.52718 -1.050396,0.87175 -1.907076,0.70311 -3.666766,-0.7218 z m -98.004445,-1.24896 c -1.407524,-2.62998 -0.564491,-4.92186 1.810435,-4.92186 1.839329,0 4.231385,1.76862 4.231385,3.12857 0,1.02848 -2.963981,3.87143 -4.036245,3.87143 -0.491363,0 -1.393872,-0.93516 -2.005575,-2.07814 z m 155.063036,0.1178 c -1.43061,-2.67311 -0.54965,-4.03966 2.60421,-4.03966 2.14374,0 2.46151,0.39761 2.19098,2.74145 -0.39083,3.3861 -3.26181,4.16337 -4.79519,1.29821 z M 9.4530918,215.80669 c -1.336459,-2.49719 0.7661602,-5.56259 3.4596892,-5.04387 2.928395,0.56396 2.716766,6.2336 -0.248436,6.65573 -1.355715,0.19301 -2.57207,-0.41753 -3.2112532,-1.61186 z m 67.0452022,-1.0699 c -1.73333,-1.11653 -1.14778,-4.10209 1.07963,-5.50479 1.34051,-0.84417 2.1266,-0.69486 3.48305,0.66158 2.92058,2.92059 -1.03278,7.11701 -4.56268,4.84321 z m -103.111741,-1.58088 c -1.940542,-2.33821 -0.834677,-5.01204 2.218682,-5.36446 2.305422,-0.2661 2.741449,0.0599 2.741449,2.05 0,2.25238 -1.623252,4.76642 -3.077555,4.76642 -0.372656,0 -1.219815,-0.65338 -1.882576,-1.45196 z m 8.960131,-0.48902 c 0,-2.69269 1.891736,-3.59586 3.714286,-1.77331 1.82255,1.82255 0.919383,3.71429 -1.773303,3.71429 -1.254644,0 -1.940983,-0.68634 -1.940983,-1.94098 z m 194.199986,0.74098 c -1.69712,-1.69712 -1.48847,-4.47532 0.39024,-5.19626 2.35822,-0.90493 3.40976,0.16064 3.40976,3.45528 0,3.08833 -1.68203,3.85895 -3.8,1.74098 z m -77.206045,-1.3073 c -1.10303,-1.32908 -1.07579,-1.83943 0.16442,-3.07963 2.020975,-2.02098 5.032745,-0.7539 4.644505,1.95399 -0.37654,2.62638 -3.04504,3.251 -4.808925,1.12564 z M -1.29169,211.10787 c -0.792192,-2.06442 0.281923,-4.5 1.98454405,-4.5 2.00185495,0 3.98388675,2.6975 3.29708975,4.48727 -0.7496958,1.95367 -4.53332275,1.9628 -5.2816338,0.0127 z m 159.81142,-1.92211 c 0.17982,-1.45204 0.77694,-2.62608 1.32694,-2.60898 1.49579,0.0465 1.20678,4.2955 -0.32694,4.80674 -0.92699,0.30899 -1.2284,-0.35343 -1,-2.19776 z m -169.01985,-0.82469 c -1.733461,-1.73347 -1.38812,-4.5571 0.693608,-5.67121 2.158647,-1.15527 4.153196,0.32524 4.153196,3.08283 0,2.36356 -3.306057,4.12912 -4.846804,2.58838 z m 102.096809,0.51616 c -1.79635,-0.62661 -1.54298,-5.2197 0.32754,-5.93749 0.86764,-0.33295 2.234176,0.0513 3.036746,0.85384 2.40698,2.40699 -0.11458,6.21722 -3.364286,5.08365 z m 47.138521,-0.69922 c -0.99566,-2.59467 0.39988,-4.73919 2.85699,-4.39028 1.65273,0.23469 2.25447,0.98741 2.25447,2.82014 0,1.83273 -0.60174,2.58545 -2.25447,2.82014 -1.35228,0.19202 -2.49559,-0.3082 -2.85699,-1.25 z m -32.66866,-1.53337 c -0.76318,-2.91841 1.93638,-4.80909 3.96706,-2.77841 0.87261,0.87261 1.31415,2.29645 0.9812,3.1641 -0.8577,2.23512 -4.33376,1.96418 -4.94826,-0.38569 z m 12.46026,0.68028 c -1.53136,-1.84518 -0.43554,-4.91363 1.61283,-4.51614 2.12558,0.41247 2.48291,2.03956 0.91791,4.17983 -1.14309,1.56326 -1.47576,1.60747 -2.53074,0.33631 z m 49.30464,-0.76504 c -1.20628,-3.80064 2.98621,-6.49929 5.46218,-3.51593 0.88467,1.06596 0.90716,1.96801 0.0873,3.5 -1.42013,2.65354 -4.70931,2.66298 -5.54945,0.0159 z M 7.7389518,205.03465 c -0.787708,-3.13847 0.700024,-4.84965 3.4559162,-3.97496 2.177704,0.69117 3.696701,3.85752 2.657347,5.53923 -0.342961,0.55492 -1.713434,1.00895 -3.045496,1.00895 -1.7677802,0 -2.5963682,-0.69501 -3.0677672,-2.57322 z m 142.6077182,0.0732 c -0.99319,-1.19672 -0.99319,-1.80328 0,-3 2.48966,-2.99986 5.68057,-1.21966 4.49716,2.50895 -0.74957,2.36167 -2.76229,2.58145 -4.49716,0.49105 z m -172.933074,-2.43309 c -2.739532,-2.73953 -2.60638,-3.89341 0.540422,-4.68321 3.850497,-0.96641 5.987131,3.04812 2.959578,5.56077 -1.139196,0.94545 -1.85696,0.76548 -3.5,-0.87756 z m 103.171408,0.77141 c -1.77076,-1.77076 -1.52979,-3.61196 0.62354,-4.76439 2.43463,-1.30297 5.4929,0.83874 4.98666,3.49217 -0.43392,2.27442 -3.83641,3.04601 -5.6102,1.27222 z m 18.141671,-0.29043 c -0.6966,-1.81536 0.31522,-3.54789 2.072035,-3.54789 1.51596,0 2.84001,2.71845 1.9922,4.09024 -0.87407,1.41427 -3.445065,1.07118 -4.064235,-0.54235 z m 59.193405,-2.11734 c -1.77823,-1.77824 -0.54121,-5.43055 1.83934,-5.43055 2.43983,0 3.84608,2.64788 2.62146,4.93608 -1.32337,2.47274 -2.36686,2.58841 -4.4608,0.49447 z m 20.49395,-0.30468 c -0.75914,-1.41848 -0.5798,-2.25713 0.73767,-3.44941 2.45005,-2.21727 4.65508,-0.64579 3.81128,2.71621 -0.7637,3.04281 -3.11044,3.42106 -4.54895,0.7332 z M 39.70831,199.10787 c -0.88341,-2.30213 0.35697,-4.5 2.539602,-4.5 2.029541,0 3.704754,3.21048 2.604303,4.99105 -0.951589,1.5397 -4.494414,1.2015 -5.143905,-0.49105 z m 74.88837,0.83772 c -2.0211,-0.81553 -1.55514,-5.33772 0.55,-5.33772 2.78926,0 4.27886,1.98414 3.118,4.1532 -1.01524,1.89699 -1.50798,2.05611 -3.668,1.18452 z M 0.01335105,198.9412 c -1.00355,-1.00355 -0.800602,-4.13252 0.312666,-4.82056 1.36956995,-0.84644 5.02066675,1.2737 5.02066675,2.91542 0,1.9518 -3.8952458,3.34323 -5.33333275,1.90514 z m -11.00000005,-1 c -0.366667,-0.36666 -0.666667,-1.71666 -0.666667,-3 0,-1.67868 0.569934,-2.33333 2.031385,-2.33333 2.517453,0 3.611209,2.52079 1.958046,4.51273 -1.344604,1.62015 -2.289789,1.85358 -3.322764,0.8206 z m 102.000008,0 c -1.20563,-1.20562 -0.69573,-5.1082 0.73937,-5.6589 1.856766,-0.71251 4.998226,2.82968 4.246626,4.78832 -0.59537,1.5515 -3.753636,2.10295 -4.985996,0.87058 z m 47.819421,-1.37712 c -0.82213,-2.59026 0.75028,-4.46321 3.01682,-3.59346 2.10535,0.8079 1.58994,5.00388 -0.66749,5.4339 -0.99861,0.19023 -1.93853,-0.54609 -2.34933,-1.84044 z m 28.7264,-0.14371 c -1.70971,-1.70971 -1.50638,-4.7625 0.36504,-5.48063 2.36883,-0.909 5.15914,2.2767 3.83407,4.37737 -1.40452,2.22662 -2.72802,2.57435 -4.19911,1.10326 z m -115.85087,-1.3125 c -0.783931,-2.04289 0.369938,-4.75615 1.817457,-4.27364 0.647917,0.21597 1.660181,1.1662 2.249474,2.11163 0.813269,1.30475 0.710005,1.94935 -0.428557,2.67516 -2.103443,1.34091 -2.974022,1.21812 -3.638374,-0.51315 z m 97.20861,-0.17754 c -0.36417,-0.94904 0.0236,-2.3449 0.89302,-3.21429 1.38232,-1.38232 1.70121,-1.37227 3.17348,0.1 0.90021,0.90021 1.36434,2.34664 1.03139,3.21429 -0.80202,2.09003 -4.28371,2.02173 -5.09789,-0.1 z M 27.85503,194.62137 c -1.024177,-1.65715 1.530074,-4.15096 3.904149,-3.81176 3.226566,0.46101 2.762913,4.2201 -0.568059,4.60557 -1.46056,0.16902 -2.9618,-0.18819 -3.33609,-0.79381 z m 76.17915,0.34067 c -1.54048,-1.54049 -0.64741,-4.35417 1.38204,-4.35417 1.55552,0 1.99019,0.5394 1.75,2.17167 -0.33186,2.2553 -1.9392,3.37534 -3.13204,2.1825 z m 52.8423,-3.30593 c -1.2738,-2.06106 0.52885,-5.18095 2.80608,-4.85654 3.0543,0.43511 3.06144,5.18043 0.008,5.61549 -1.1856,0.16895 -2.45215,-0.17258 -2.81455,-0.75895 z m 18.48746,-2.52743 c -1.00929,-1.21612 -1.05171,-1.88637 -0.17489,-2.76319 1.69056,-1.69056 3.6678,0.50832 2.43613,2.70919 -0.85115,1.52092 -1.04006,1.52543 -2.26124,0.054 z M 60.918114,188.03644 c -1.9704,-1.9704 -1.97458,-2.8491 -0.0212,-4.47022 2.16169,-1.79405 4.93419,0.94014 3.9852,3.93014 -0.79905,2.51757 -1.84408,2.65996 -3.96396,0.54008 z m 82.129796,-0.0607 c -1.18199,-1.18199 -0.77901,-4.12408 0.63944,-4.66839 2.01563,-0.77347 3.90297,0.79679 3.49623,2.90883 -0.37094,1.92615 -2.89514,3.00009 -4.13567,1.75956 z m -97.451226,-1.09851 c -1.443536,-0.50354 -1.687335,-3.88104 -0.340242,-4.71359 1.546719,-0.95592 4.090242,0.56402 4.090242,2.44423 0,1.9237 -1.733508,2.97275 -3.75,2.26936 z M 21.95263,185.07096 c -1.824105,-1.82411 -1.922844,-2.41471 -0.720806,-4.31148 1.24171,-1.95938 4.564585,-0.98133 4.913117,1.44611 0.447197,3.11462 -2.160647,4.89703 -4.192311,2.86537 z m 12.062695,-0.27674 c -1.266098,-1.39903 -1.370116,-2.08488 -0.454987,-3 2.450367,-2.45037 6.424575,-0.0131 5.19661,3.1869 -0.820173,2.13734 -2.705467,2.06302 -4.741623,-0.1869 z m 130.531345,-0.38635 c -1.44855,-1.44855 -1.57386,-4.45091 -0.22067,-5.28723 1.56563,-0.96761 5.02067,1.38276 5.02067,3.41542 0,1.02181 -0.7118,2.13098 -1.58179,2.46482 -2.01395,0.77283 -1.81587,0.80933 -3.21821,-0.59301 z m -12.02969,-1.55 c -1.2075,-2.34778 -0.40607,-4.25 1.79058,-4.25 2.3798,0 4.22825,2.34354 3.44937,4.37325 -0.82741,2.15621 -4.10726,2.07907 -5.23995,-0.12325 z m -54.170295,-2.75 c -0.99319,-1.19672 -0.99319,-1.80328 0,-3 2.567285,-3.09339 5.683975,-0.85537 3.829685,2.75 -1.10306,2.1447 -2.197915,2.21617 -3.829685,0.25 z m 13.701235,0.8679 c -0.38568,-0.38568 -0.70124,-1.78253 -0.70124,-3.10412 0,-1.91989 0.45225,-2.33865 2.25,-2.08333 1.64435,0.23353 2.24999,0.98881 2.24999,2.80585 0,2.41363 -2.31523,3.86514 -3.79875,2.3816 z m -60.701236,-2.8679 c -0.993648,-1.19727 -0.991583,-1.80522 0.01023,-3.01233 1.544535,-1.86105 3.98977,-0.24625 3.98977,2.63477 0,2.25202 -2.266765,2.46598 -4,0.37756 z m -11.325572,-1.90604 c -0.296752,-0.77333 0.34411,-2.20575 1.424139,-3.18316 1.80291,-1.63161 2.09515,-1.64565 3.569305,-0.1715 0.883089,0.88309 1.333205,2.31551 1.000257,3.18316 -0.750657,1.95618 -5.259349,2.08519 -5.993701,0.1715 z m 22.715562,-0.02 c -0.92815,-2.41877 0.31818,-4.57396 2.64505,-4.57396 1.69721,0 2.03738,0.5235 1.78138,2.74145 -0.35496,3.07538 -3.45673,4.35945 -4.42643,1.83246 z m 59.731866,0.14795 c -1.51353,-1.51353 -1.41236,-3.23588 0.27219,-4.63393 1.72241,-1.42947 4.82182,1.18595 3.98614,3.36369 -0.74955,1.9533 -2.92603,2.60254 -4.25833,1.27024 z m -31.503801,-1.24666 c -1.22887,-1.22888 -1.36588,-2.07787 -0.57408,-3.55736 0.84788,-1.58428 1.41292,-1.74369 3.058696,-0.86289 1.25495,0.67163 1.90116,1.8764 1.70801,3.18438 -0.40462,2.74018 -2.168396,3.26009 -4.192626,1.23587 z m -59.04781,-2.15274 c -0.36418,-0.94904 0.02363,-2.3449 0.893011,-3.21429 1.382325,-1.38232 1.701211,-1.37227 3.173488,0.1 0.90021,0.90021 1.364333,2.34664 1.031385,3.21429 -0.80202,2.09003 -4.283699,2.02173 -5.097884,-0.1 z m -9.097369,-3.07041 c 0.838532,-3.34098 1.097874,-3.63537 2.460593,-2.79317 0.586592,0.36249 1.066531,1.75755 1.066531,3.10009 0,1.81615 -0.5397,2.44098 -2.108408,2.44098 -1.800356,0 -2.00764,-0.40149 -1.418716,-2.74795 z m 27.082897,-0.16181 c -0.955925,-1.54677 0.564021,-4.09029 2.444227,-4.09029 0.982312,0 2.024002,0.62017 2.314866,1.37814 0.965782,2.51679 -3.357224,4.98037 -4.759093,2.7121 z m 56.436283,-1.10508 c -0.85601,-1.59947 -0.74633,-2.14222 0.53203,-2.63278 2.05691,-0.78931 3.92267,1.041 3.14008,3.0804 -0.82635,2.15343 -2.38153,1.96386 -3.67211,-0.44762 z m 7.67461,-0.65183 c -1.26879,-1.26878 -0.65993,-4.39869 0.97794,-5.02719 1.94412,-0.74604 4.47852,2.20942 3.67972,4.29106 -0.55602,1.44896 -3.48234,1.91146 -4.65766,0.73613 z m 14.91593,-0.19968 c -0.29449,-0.4765 0.28943,-1.61285 1.2976,-2.52523 1.61139,-1.45829 1.9817,-1.47975 3.06251,-0.17745 0.67621,0.81478 0.93917,1.95113 0.58436,2.52523 -0.78022,1.26243 -4.19811,1.38509 -4.94447,0.17745 z m -89.933118,-2.60476 c -0.566716,-1.47684 1.715661,-4.52894 3.386767,-4.52894 1.284049,0 3.168372,3.85991 2.450982,5.02067 -0.936562,1.51539 -5.205531,1.1558 -5.837749,-0.49173 z m 46.438452,0.077 c -0.89462,-1.07795 -0.78149,-1.76954 0.49893,-3.04995 2.067175,-2.06717 4.773995,-1.63632 5.250045,0.83566 0.61023,3.16864 -3.608415,4.79351 -5.748975,2.21429 z m 13.017251,0.0208 c -1.66603,-2.00745 -0.24564,-4.78913 2.261865,-4.42962 2.45546,0.35204 3.45415,3.6675 1.48133,4.91773 -1.85358,1.17467 -2.425055,1.10015 -3.743195,-0.48811 z m -37.403941,-0.25885 c -1.00269,-1.00269 -0.86641,-4.14779 0.20852,-4.81213 1.75672,-1.08571 4.19898,0.67789 3.89311,2.81129 -0.30299,2.11332 -2.78056,3.32192 -4.10163,2.00084 z m -33.000004,-4 c -1.212728,-1.21273 -0.764202,-4.07075 0.848952,-5.40955 2.257528,-1.87358 5.420942,1.27721 3.825678,3.81041 -1.192193,1.89315 -3.567916,2.70586 -4.67463,1.59914 z m 80.67875,-0.82 c -0.6966,-1.81536 0.31522,-3.54789 2.07204,-3.54789 1.51596,0 2.84001,2.71845 1.9922,4.09024 -0.87407,1.41427 -3.44507,1.07118 -4.06424,-0.54235 z m -70.831871,-3.47004 c -0.352332,-0.57008 -0.175683,-1.90523 0.392553,-2.96699 1.430073,-2.67211 5.28078,-1.66664 4.861801,1.26949 -0.32409,2.27117 -4.138253,3.50339 -5.254354,1.6975 z m 13.02213,-0.75539 c -0.36418,-0.94904 0.02363,-2.3449 0.893011,-3.21429 1.382325,-1.38232 1.691163,-1.38232 3.073488,0 1.877318,1.87732 0.930324,4.89183 -1.536744,4.89183 -0.982312,0 -2.075702,-0.75489 -2.429755,-1.67754 z m 48.534936,0.30429 c -1.50197,-1.80976 -0.35772,-4.62675 1.879355,-4.62675 2.3081,0 4.39736,2.56239 3.65872,4.48727 -0.72447,1.88794 -4.01814,1.97089 -5.538075,0.13948 z m 16.910115,0.12325 c 0.0281,-2.29116 1.76353,-4.04885 3.38377,-3.4271 0.8805,0.33788 1.60092,1.52845 1.60092,2.64572 0,1.50014 -0.65378,2.03138 -2.5,2.03138 -1.375,0 -2.49311,-0.5625 -2.48469,-1.25 z m 12.34888,-0.24331 c -0.34636,-0.90262 -0.15025,-2.12063 0.43582,-2.70669 1.5236,-1.52361 4.41041,-0.13109 4.01241,1.93549 -0.4433,2.30188 -3.64766,2.85743 -4.44823,0.7712 z m -40.433741,-3.09051 c -1.379335,-1.662 -0.40447,-4.42483 1.8233,-5.16743 1.8502,-0.61673 3.598976,3.62134 2.19321,5.31517 -1.52888,1.8422 -2.39134,1.81047 -4.01651,-0.14774 z m 19.572391,-2.40723 c -0.34755,-1.09508 -0.35132,-2.44508 -0.008,-3 1.6226,-2.62542 6.05121,0.40547 4.91579,3.3643 -0.87323,2.27562 -4.14667,2.03262 -4.90742,-0.3643 z m 16.70966,-1.19645 c -1.59873,-1.59873 -1.54033,-3.47272 0.12818,-4.11299 1.98921,-0.76333 3.90526,0.78659 3.50771,2.83745 -0.44087,2.27438 -2.06668,2.84475 -3.63589,1.27554 z m -27.962485,-3.47478 c -3.03994,-1.22664 0.37865,-5.73846 3.499995,-4.61926 1.78291,0.63929 1.54769,3.95333 -0.331795,4.67455 -0.86998,0.33385 -1.65748,0.57146 -1.75,0.52804 -0.0925,-0.0434 -0.7307,-0.30592 -1.4182,-0.58333 z m 21.901595,-1.24371 c -1.81804,-1.12403 -1.05477,-4.48898 1.1129,-4.90643 0.95785,-0.18447 2.02671,0.40776 2.37526,1.31605 0.81828,2.13237 -1.6827,4.70663 -3.48816,3.59038 z m -10.11525,-2.55021 c -1.49915,-1.80636 -0.53641,-3.5438 1.96365,-3.5438 1.03507,0 2.17225,0.46971 2.52707,1.0438 0.66307,1.07289 -1.17867,3.9562 -2.52707,3.9562 -0.41532,0 -1.29895,-0.65529 -1.96365,-1.4562 z"
         id="path451"
         inkscape:connector-curvature="0" />
    </g>
  </g>
</svg>
