<?xml version="1.0" encoding="UTF-8" standalone="no"?>
<!-- Created with Inkscape (http://www.inkscape.org/) -->

<svg
   xmlns:dc="http://purl.org/dc/elements/1.1/"
   xmlns:cc="http://creativecommons.org/ns#"
   xmlns:rdf="http://www.w3.org/1999/02/22-rdf-syntax-ns#"
   xmlns:svg="http://www.w3.org/2000/svg"
   xmlns="http://www.w3.org/2000/svg"
   xmlns:sodipodi="http://sodipodi.sourceforge.net/DTD/sodipodi-0.dtd"
   xmlns:inkscape="http://www.inkscape.org/namespaces/inkscape"
   version="1.1"
   id="svg2949"
   width="283"
   height="443"
   viewBox="0 0 283 443"
   sodipodi:docname="feu150.svg"
   inkscape:version="0.92.4 (5da689c313, 2019-01-14)">
  <metadata
     id="metadata2955">
    <rdf:RDF>
      <cc:Work
         rdf:about="">
        <dc:format>image/svg+xml</dc:format>
        <dc:type
           rdf:resource="http://purl.org/dc/dcmitype/StillImage" />
        <dc:title></dc:title>
      </cc:Work>
    </rdf:RDF>
  </metadata>
  <defs
     id="defs2953" />
  <sodipodi:namedview
     pagecolor="#ffffff"
     bordercolor="#666666"
     borderopacity="1"
     objecttolerance="10"
     gridtolerance="10"
     guidetolerance="10"
     inkscape:pageopacity="0"
     inkscape:pageshadow="2"
     inkscape:window-width="1280"
     inkscape:window-height="972"
     id="namedview2951"
     showgrid="false"
     inkscape:zoom="2.1309255"
     inkscape:cx="102.52736"
     inkscape:cy="224.72047"
     inkscape:window-x="-8"
     inkscape:window-y="-8"
     inkscape:window-maximized="1"
     inkscape:current-layer="g928"
     showguides="true" />
  <g
     id="g151"
     transform="translate(25.882805,-2.654647)">
    <g
       id="g534"
       transform="translate(-21.900834,-45.792654)">
      <g
         id="g928"
         transform="translate(-3.9819699,-1.3273232)">
        <g
           id="g1378"
           transform="translate(11.282248,-29.201112)">
          <path
             style="fill:#ff00ff"
             d="m 127.13504,308.55415 c 0.64059,0 -0.90014,0 0,0 z m -12.88069,-3.46085 c -2.09388,-2.22884 -2.19167,-2.751 -1.03717,-5.53822 2.14873,-5.18749 7.38529,-6.61603 11.00039,-3.00093 4.08277,4.08277 1.0482,11 -4.82569,11 -1.70911,0 -3.73921,-0.97241 -5.13753,-2.46085 z m 19.96322,0.46085 c -3.7404,-3.7404 -2.05229,-9.33954 3.1282,-10.37564 4.64847,-0.92969 7.8718,1.46247 7.8718,5.84199 0,5.8752 -6.83954,8.69411 -11,4.53365 z m -33.92937,-8.26472 c -1.336157,-0.67939 -3.030497,-2.71137 -3.765207,-4.51551 -1.24338,-3.0532 -1.1649,-3.45118 1.13392,-5.75 3.013457,-3.01346 5.461257,-3.12238 8.925797,-0.39717 3.177,2.49903 3.37194,5.72066 0.56228,9.29256 -2.31948,2.94874 -3.34795,3.15425 -6.85679,1.37012 z m 52.24474,0.24844 c -4.11506,-1.64044 -5.32008,-6.86325 -2.39631,-10.38617 1.56737,-1.88856 8.12604,-2.15243 9.88094,-0.39753 1.56968,1.56968 1.53961,6.98571 -0.05,9.0079 -1.65961,2.11123 -4.74471,2.84812 -7.43463,1.7758 z M 91.554343,276.07748 c -4.640001,-3.24998 -3.546696,-9.5573 1.99129,-11.48785 7.085797,-2.47012 12.422647,7.22401 6.32735,11.49333 -2.67529,1.87384 -5.63831,1.87189 -8.31864,-0.005 z m 64.663227,-1.52333 c -4.13952,-4.13952 -1.34286,-11 4.48412,-11 3.66814,0 7.51588,3.65268 7.51588,7.13486 0,2.8283 -3.62444,5.86514 -7,5.86514 -1.66667,0 -3.88889,-0.88889 -5,-2 z M 99.098713,256.52223 c -0.89038,-0.50638 -2.18137,-2.27869 -2.86888,-3.93848 -2.57368,-6.2134 4.697477,-11.52982 9.543097,-6.97759 2.66382,2.50252 3.20145,6.61446 1.19464,9.13692 -1.60552,2.01806 -5.78658,2.9634 -7.868857,1.77915 z m 50.803027,-0.38084 c -2.79914,-2.16429 -1.94712,-8.59823 1.38512,-10.45958 3.74977,-2.09458 7.49222,-0.82426 8.82364,2.99506 1.65148,4.73742 -0.37569,8.30475 -4.90003,8.6229 -1.9211,0.13508 -4.31002,-0.38619 -5.30873,-1.15838 z m -18.12747,-11.80975 c -2.01647,-2.87892 -1.99676,-8.16739 0.0367,-9.85505 0.8764,-0.72734 3.08434,-1.32244 4.90655,-1.32244 4.42339,0 6.5,1.92404 6.5,6.02244 0,6.54144 -7.96045,10.12752 -11.4433,5.15505 z m -16.5567,0.44844 c -3.08928,-1.00279 -5,-3.605 -5,-6.80949 0,-4.07169 2.23613,-6.41644 6.11918,-6.41644 3.24076,0 7.90451,4.0975 7.84902,6.89602 -0.071,3.57878 -5.54369,7.44152 -8.9682,6.32991 z m 11.08156,-15.22593 c -0.50515,0 0.51842,0 0,0 z"
             id="path1384"
             inkscape:connector-curvature="0"
             sodipodi:nodetypes="ssccsscscssccssscssscscscccssssscscsccscccccssccssscsss" />
          <path
             style="fill:#ffff00"
             d="m 122.23288,394.04593 c -0.008,-0.55452 1.32586,-4.80085 2.96507,-9.43629 1.63921,-4.63544 2.83018,-8.57826 2.64661,-8.76183 -0.18356,-0.18357 -2.3745,3.17848 -4.86875,7.47121 -4.32145,7.43745 -7.75824,11.63696 -7.75824,9.48002 0,-0.55 0.65269,-1.54169 1.45043,-2.20375 2.3028,-1.91115 7.73373,-12.11886 7.19486,-13.52311 -0.26895,-0.70088 0.0383,-1.811 0.68285,-2.46694 1.2896,-1.31245 0.83559,-1.23905 -12.07814,1.95271 -3.9875,0.98555 -7.24959,1.50037 -7.24909,1.14405 5e-4,-0.35632 3.938,-1.60618 8.75,-2.77748 l 8.74909,-2.12962 -9,-0.22006 c -4.95,-0.12103 -10.125,-0.59677 -11.5,-1.0572 -1.56406,-0.52375 2.05348,-0.76721 9.66287,-0.65032 6.68958,0.10276 12.4671,-0.11569 12.83893,-0.48543 0.37183,-0.36975 -1.17585,-2.34535 -3.4393,-4.39024 -2.26345,-2.04489 -3.88122,-3.95211 -3.59506,-4.23827 0.28616,-0.28617 1.31056,0.16911 2.27643,1.01174 2.89953,2.52953 6.01564,3.81855 7.68369,3.17846 1.1817,-0.45347 1.57244,-2.05555 1.57244,-6.4472 0,-7.11967 1.82433,-16.16883 3.10065,-15.38002 0.51259,0.31679 0.70261,0.9471 0.42229,1.40068 -0.28033,0.45358 -0.75853,5.25999 -1.06265,10.6809 l -0.55297,9.85621 5.07062,-8.20599 c 5.10286,-8.25816 6.63754,-10.01186 7.77024,-8.87917 0.33831,0.33832 -0.81663,2.0923 -2.56653,3.89775 -1.74991,1.80544 -3.18165,3.65091 -3.18165,4.10104 0,0.45013 -1.61013,3.01185 -3.57807,5.69272 -3.45713,4.70955 -3.52732,4.97603 -2.07664,7.88398 0.82578,1.65532 1.07711,3.00967 0.55851,3.00967 -0.5186,0 -0.65539,1.2375 -0.30397,2.75 0.88604,3.81354 0.66612,7.9657 -0.5307,10.01961 -0.84111,1.44344 -1.01562,1.23291 -1.05238,-1.26961 -0.0242,-1.65 -0.31948,-4.0281 -0.6561,-5.28467 l -0.61204,-2.28466 -1.25646,2.42182 c -0.69105,1.332 -1.99113,4.6101 -2.88907,7.28467 -1.69238,5.04086 -3.56109,8.61112 -3.58777,6.85462 z m -8.90584,-8.20501 c 1.8573,-2.69139 7.11303,-6.95134 6.29878,-5.10537 -0.31989,0.72523 -2.21163,2.6686 -4.20386,4.3186 -2.80374,2.3221 -3.27712,2.49989 -2.09492,0.78677 z m 32.39053,-0.0607 c -0.55,-0.40885 -2.125,-2.07584 -3.5,-3.70443 -2.62101,-3.10439 -0.89761,-2.10271 3.834,2.22841 2.25412,2.06334 1.99523,3.20746 -0.334,1.47602 z m -38.05887,-2.67085 c 1.06762,-0.85535 2.38012,-1.55517 2.91667,-1.55517 1.27054,0 0.70323,0.4619 -2.3578,1.91971 -2.35727,1.12265 -2.38918,1.10183 -0.55887,-0.36454 z m 39.31898,-5.51207 c -4.17703,-1.48891 -8.60274,-4.14702 -4.76011,-2.85895 0.825,0.27655 3.6375,1.12149 6.25,1.87764 2.6125,0.75616 4.75,1.7266 4.75,2.15653 0,0.97875 -0.41792,0.90004 -6.23989,-1.17522 z m -4.26011,-6.0431 c 0.33992,-0.55 0.81648,-1 1.05902,-1 0.24254,0 0.44098,0.45 0.44098,1 0,0.55 -0.47656,1 -1.05902,1 -0.58246,0 -0.7809,-0.45 -0.44098,-1 z m -9.5,-1 c 0,-0.55 0.47656,-1 1.05902,-1 0.58246,0 0.7809,0.45 0.44098,1 -0.33992,0.55 -0.81648,1 -1.05902,1 -0.24254,0 -0.44098,-0.45 -0.44098,-1 z m 5.08333,-2.4131 c 0.5639,-0.55906 15.79405,-6.5869 16.6427,-6.5869 1.91731,0 -2.01271,2.14942 -8.09509,4.4274 -6.31179,2.36389 -9.58885,3.19182 -8.54761,2.1595 z m 13.91667,-0.5869 c 0,-0.55 0.70156,-1 1.55902,-1 0.85746,0 1.2809,0.45 0.94098,1 -0.33992,0.55 -1.04148,1 -1.55902,1 -0.51754,0 -0.94098,-0.45 -0.94098,-1 z m -44.47584,-1.5963 c -4.61997,-1.69117 -7.5244,-4.0722 -3.52416,-2.88909 3.07681,0.91 9.87744,4.40691 8.5,4.37073 -0.55,-0.0144 -2.78913,-0.68118 -4.97584,-1.48164 z m 7.98292,-0.39225 c -0.35034,-0.56686 0.0511,-0.7345 0.94098,-0.39301 1.73242,0.66479 2.04939,1.38156 0.61096,1.38156 -0.51754,0 -1.21592,-0.44485 -1.55194,-0.98855 z m 20.67456,-1.76145 c 2.12809,-3.10713 12.81836,-12.60588 12.81836,-11.38964 0,0.64779 -2.8125,3.86689 -6.25,7.15357 -6.15454,5.88451 -8.91806,7.66675 -6.56836,4.23607 z m 8.66991,-2.87738 c 3.42486,-2.54506 6.4551,-4.39931 6.73385,-4.12055 0.83599,0.83599 -10.25201,8.74793 -12.25957,8.74793 -0.38572,0 2.10085,-2.08232 5.52572,-4.62738 z m -23.21318,1.12738 c -0.31658,-0.825 -0.18787,-1.5 0.28603,-1.5 0.47389,0 1.12064,0.675 1.43723,1.5 0.31658,0.825 0.18787,1.5 -0.28603,1.5 -0.47389,0 -1.12064,-0.675 -1.43723,-1.5 z m -12.88837,-0.18933 c -0.9625,-0.25152 -1.75,-0.87432 -1.75,-1.38399 0,-1.34257 1.33681,-1.13916 3.55887,0.54152 1.94515,1.47123 1.46065,1.69689 -1.80887,0.84247 z m 17.06021,-5.81067 c -0.22474,-1.925 -0.049,-3.5 0.39059,-3.5 0.43956,0 0.7992,1.575 0.7992,3.5 0,1.925 -0.17577,3.5 -0.39059,3.5 -0.21483,0 -0.57447,-1.575 -0.7992,-3.5 z m -7.53207,1.25 c -1.95452,-2.5272 -2.62139,-4.08017 -1.43803,-3.34881 1.18414,0.73183 3.55329,4.59881 2.81752,4.59881 -0.22701,0 -0.84778,-0.5625 -1.37949,-1.25 z m -8.38648,-1.63892 c -1.31541,-1.0664 -2.16666,-2.16392 -1.89166,-2.43892 0.275,-0.275 1.57625,0.37252 2.89166,1.43892 1.31542,1.06641 2.16667,2.16393 1.89167,2.43893 -0.275,0.275 -1.57625,-0.37252 -2.89167,-1.43893 z m 24.19195,-3.3232 c 1.12993,-2.86666 2.45968,-5.90416 2.955,-6.75 1.82263,-3.11245 1.01974,1.28269 -1.22262,6.69279 -2.83491,6.83972 -4.42651,6.89228 -1.73238,0.0572 z m -13.70973,-0.0973 c -0.59306,-1.75482 -1.41795,-3.97808 -1.83308,-4.94058 -0.42595,-0.98759 -0.32912,-1.75 0.22225,-1.75 0.53737,0 1.54761,2.0379 2.24498,4.52868 1.46372,5.22788 0.97041,6.90962 -0.63415,2.1619 z m 4.65653,-4.24058 c 0.0267,-2.58611 0.16279,-2.72225 1.10362,-1.10362 0.76916,1.32326 0.76054,2.15905 -0.0304,2.95 -0.80483,0.80483 -1.09539,0.30495 -1.07321,-1.84638 z m -85.798404,-3.45 c 0,-1.925 0.205795,-2.7125 0.457323,-1.75 0.251527,0.9625 0.251527,2.5375 0,3.5 -0.251528,0.9625 -0.457323,0.175 -0.457323,-1.75 z m 4.054011,-1.5 c 0.0075,-2.75 0.201713,-3.75631 0.431567,-2.23625 0.229855,1.52006 0.223712,3.77006 -0.01365,5 -0.237362,1.22994 -0.425424,-0.0138 -0.417917,-2.76375 z m 4.777546,-2.48601 c -1.890042,-3.83594 -3.215331,-7.19555 -2.945086,-7.4658 0.471233,-0.47123 7.881526,12.52382 7.881526,13.82142 0,2.20242 -1.968479,-0.33198 -4.93644,-6.35562 z m -20.987874,3.25123 c 1.333373,-1.50412 4.560418,-4.99162 7.171212,-7.75 4.847933,-5.12197 6.368256,-8.43818 3.003102,-6.55052 -3.49548,1.96076 -14.871577,6.72323 -17.774287,7.441 -4.463522,1.10372 -1.828472,-0.92509 3.524287,-2.71347 7.369748,-2.46225 13.113291,-4.91227 12.635604,-5.38996 -0.246053,-0.24605 -4.503406,0.54736 -9.460783,1.76314 -4.957378,1.21578 -9.789139,1.91283 -10.737246,1.54901 -2.666536,-1.02325 -1.427675,-1.49684 6.97147,-2.66505 12.330458,-1.71501 13.434106,-2.81333 2.899972,-2.88598 -5.496252,-0.0379 -9.462234,-0.50228 -9.865745,-1.15518 -0.480495,-0.77746 2.597481,-0.92164 10.690983,-0.50079 l 11.365745,0.59099 -10.920291,-3.00283 c -6.00616,-1.65156 -11.14366,-3.2262 -11.416666,-3.4992 -1.192382,-1.19239 4.087145,-0.30396 12.240651,2.05982 4.849477,1.40592 9.067522,2.30592 9.373435,2 0.305912,-0.30591 -0.0438,-0.5562 -0.777129,-0.5562 -0.733333,0 -1.032352,-0.30098 -0.664485,-0.66885 0.367867,-0.36787 -0.119633,-1.57022 -1.083333,-2.67189 -1.935437,-2.21254 -0.129587,-1.53619 2.950593,1.10509 1.530405,1.31234 1.765779,1.20912 2.325166,-1.01965 0.342315,-1.36389 0.138566,-5.09705 -0.452775,-8.29591 -1.071318,-5.79529 -1.470859,-14.17782 -0.635972,-13.34293 0.584576,0.58458 1.255688,4.42281 2.018183,11.54243 1.242256,11.59927 1.520893,12.61463 3.101708,11.30267 1.177579,-0.9773 1.440915,-0.80796 1.440915,0.9266 0,2.79569 1.324115,2.69005 11,-0.87756 8.467413,-3.12203 13.336555,-3.93656 11.288338,-1.88834 -0.611414,0.61142 -5.538914,2.40487 -10.95,3.98545 l -9.838338,2.87379 6.5,-0.57562 c 3.575,-0.31659 8.472212,-1.00033 10.882694,-1.51942 2.410481,-0.51909 4.647449,-0.67905 4.971039,-0.35546 1.163263,1.16326 -2.218049,2.25775 -9.222642,2.98525 l -7.131091,0.74064 6.422351,1.34921 c 3.532293,0.74206 6.884793,1.81164 7.45,2.37685 1.516938,1.51694 -2.140295,1.30498 -7.96342,-0.46153 -7.434609,-2.25536 -7.60215,-1.73971 -0.501882,1.54469 3.523876,1.63005 6.199322,3.17145 5.945434,3.42534 -0.253888,0.25389 -2.338056,-0.46677 -4.631485,-1.60147 -5.863339,-2.90095 -7.607731,-1.77988 -2.372687,1.52486 2.387357,1.50708 4.075891,3.00489 3.752299,3.32848 -0.323591,0.32359 -1.378607,-0.0961 -2.344479,-0.93268 -1.855352,-1.60698 -14.543516,-8.80004 -15.522776,-8.80004 -0.315944,0 -0.871817,1.35393 -1.235272,3.00873 -0.363455,1.6548 -1.075052,2.75272 -1.581328,2.43982 -0.506275,-0.31289 -1.35852,0.58318 -1.893877,1.99128 -1.08686,2.85866 -2.279408,3.55075 -1.396018,0.81017 0.484953,-1.50449 -2.673568,1.60222 -8.133415,8 -0.821395,0.9625 -2.021886,1.75 -2.667759,1.75 -0.645873,0 -0.08337,-1.23065 1.25,-2.73478 z m 7.004602,-1.26522 c 1.457812,-3.06103 1.919712,-3.62834 1.919712,-2.3578 0,0.53655 -0.699825,1.84905 -1.555166,2.91667 -1.466378,1.83031 -1.487191,1.7984 -0.364546,-0.55887 z m -12.080288,-0.32654 c 0,-0.91681 12.082053,-9.92474 12.607273,-9.39952 0.266726,0.26673 -1.223296,1.82045 -3.311159,3.45273 -4.941085,3.86291 -9.296114,6.64885 -9.296114,5.94679 z m 33,-1.17346 c -0.717549,-0.86459 -0.814738,-1.5 -0.229434,-1.5 0.558501,0 1.274478,0.675 1.59106,1.5 0.316583,0.825 0.419828,1.5 0.229434,1.5 -0.190394,0 -0.906371,-0.675 -1.59106,-1.5 z m 153.366257,-5.45622 c 0.3554,-3.55092 1.14396,-6.92592 1.75236,-7.5 0.79764,-0.75265 0.92112,-0.43056 0.4427,1.15481 -0.3649,1.20923 -0.78372,4.23997 -0.93069,6.73497 -0.14698,2.49501 -0.63698,4.88064 -1.08889,5.30141 -0.45192,0.42077 -0.53088,-2.14027 -0.17548,-5.69119 z m -7.33758,3.20622 c 0.0574,-1.50033 7.86032,-16.71234 7.91502,-15.43048 0.0896,2.09873 -6.03471,16.18048 -7.03702,16.18048 -0.49867,0 -0.89377,-0.3375 -0.878,-0.75 z m 12.69178,-2.58179 c -0.39625,-1.00748 -0.70678,-2.58248 -0.69005,-3.5 0.0271,-1.48832 0.14221,-1.47612 1.06727,0.11321 0.57028,0.97978 0.8808,2.55478 0.69005,3.5 -0.31674,1.56951 -0.40931,1.55969 -1.06727,-0.11321 z m 4.31472,-0.60247 c -1.06103,-1.98255 -1.45886,-5.82275 -0.50432,-4.86822 0.7059,0.7059 2.43967,6.80248 1.93452,6.80248 -0.21726,0 -0.86085,-0.87042 -1.4302,-1.93426 z m -22.988,0.41284 c -0.0259,-0.56178 2.63159,-3.93678 5.90564,-7.5 3.27405,-3.56322 5.97405,-6.01894 6,-5.45716 0.0259,0.56178 -2.63159,3.93678 -5.90564,7.5 -3.27405,3.56322 -5.97405,6.01894 -6,5.45716 z m -68.39744,-9.6322 c -0.90981,-12.81752 -0.81111,-17.84638 0.35026,-17.84638 0.55332,0 1.02796,2.79173 1.06259,6.25 0.0344,3.4375 0.1548,9.5125 0.2675,13.5 0.2922,10.33823 -0.9079,8.97866 -1.68035,-1.90362 z m 93.66399,4.13005 c -2.73219,-6.21909 -1.49741,-6.5925 1.487,-0.44968 2.41736,4.97565 2.55264,5.48435 1.44927,5.44968 -0.4125,-0.013 -1.73382,-2.26296 -2.93627,-5 z m 2.39487,-3.22628 c -3.50566,-3.57537 -7.34922,-7.02263 -8.54126,-7.66059 -1.91077,-1.02262 -2.16734,-0.90539 -2.16734,0.99027 0,2.06815 -0.0961,2.0872 -2.51963,0.49926 -2.4134,-1.58131 -2.66638,-1.53899 -6,1.00368 -3.80099,2.89915 -4.87557,2.37647 -1.23037,-0.59846 1.2375,-1.00995 -1.51177,-0.0485 -6.10949,2.13654 -4.59772,2.18505 -8.87272,3.7977 -9.5,3.58367 -1.14509,-0.39071 15.34468,-8.70452 17.26472,-8.70452 0.56342,0 1.54259,-0.96823 2.17592,-2.15163 0.9879,-1.84592 0.91586,-2.0612 -0.50703,-1.51519 -3.44411,1.32163 -23.25681,1.98925 -23.9867,0.80827 -0.49884,-0.80714 1.14234,-1.15833 5.60356,-1.19908 3.46996,-0.0317 8.10902,-0.38468 10.30902,-0.78441 3.77541,-0.68598 3.50839,-0.8009 -4.7555,-2.04677 -4.81553,-0.72599 -9.00459,-1.723 -9.30902,-2.21558 -0.70257,-1.13679 -1.63977,-1.22954 11.52051,1.14017 6.21818,1.11968 11.53601,1.80556 11.8174,1.52417 0.28138,-0.28139 -0.0576,-1.19749 -0.75333,-2.03578 -1.68716,-2.0329 -0.14898,-1.95082 2.13239,0.11379 1.69272,1.53189 1.8718,1.48332 2.76535,-0.75 l 0.95543,-2.38796 0.0634,2.68019 c 0.0578,2.44203 0.30776,2.60964 2.81339,1.88618 1.5125,-0.4367 6.70924,-3.13554 11.54832,-5.99742 4.83907,-2.86187 9.33907,-5.01707 10,-4.78932 0.66092,0.22774 -2.39832,2.2605 -6.79832,4.51724 -4.4,2.25673 -7.775,4.11984 -7.5,4.14024 0.275,0.0204 3.35259,-0.85711 6.83909,-1.95001 6.90495,-2.16448 10.14521,-2.56106 8.61091,-1.05392 -0.5225,0.51325 -4.325,1.84632 -8.45,2.96237 l -7.5,2.02918 6.5,-0.0774 c 9.50397,-0.11315 11,0.0436 11,1.15266 0,0.60262 -4.07312,0.99392 -10.25,0.98469 -7.38634,-0.011 -9.83093,-0.30544 -8.75,-1.05376 1.24973,-0.86518 1.18013,-0.98776 -0.41713,-0.73469 -3.90685,0.61902 -2.63659,2.56846 2.12381,3.25937 7.3022,1.05983 17.29332,3.69296 17.29332,4.55761 0,0.42354 -3.7125,-0.0759 -8.25,-1.10981 -12.36685,-2.81797 -15.75,-3.28339 -15.75,-2.16673 0,0.54577 3.47643,4.40185 7.72541,8.56907 4.24897,4.16722 7.41754,7.88463 7.04126,8.26092 -0.37629,0.37628 -3.55242,-2.24115 -7.05807,-5.81652 z m -33.7086,4.92699 c 0,-0.26924 2.2301,-2.0917 4.95579,-4.04991 2.72568,-1.95821 4.7408,-3.01292 4.47804,-2.3438 -0.64765,1.64924 -9.43383,7.60402 -9.43383,6.39371 z m 42.5,-5.14614 c -1.65,-1.35249 -3.5625,-2.47526 -4.25,-2.49504 -0.6875,-0.0198 -1.25,-0.5114 -1.25,-1.0925 0,-1.24518 5.43479,1.78575 7.72208,4.30654 2.24101,2.46979 1.29454,2.16354 -2.22208,-0.719 z m 1.60482,-3.61587 c -1.31735,-0.52695 -2.16726,-1.18602 -1.88869,-1.46459 0.58391,-0.58391 5.78387,1.2364 5.78387,2.02471 0,0.72181 -1.07794,0.5668 -3.89518,-0.56012 z m -50.9764,-1.33208 c 0.90422,-0.96869 17.00936,-4.70898 18.29367,-4.24857 0.59285,0.21254 -1.26202,1.09327 -4.12194,1.95718 -5.99989,1.81243 -15.09777,3.28344 -14.17173,2.29139 z M 25.292228,317.72354 c -4.08394,-2.0468 -7.609586,-4.27418 -7.834769,-4.94973 -0.368287,-1.10486 13.902464,5.88054 16.210114,7.9347 1.966876,1.75081 -1.124407,0.64908 -8.375345,-2.98497 z m 25.311881,1.76793 c 0.142847,-2.59683 12.701465,-13.23407 14.046797,-11.89774 0.513334,0.5099 0.738334,1.10551 0.5,1.32358 -0.238333,0.21808 -3.494664,2.70058 -7.236291,5.51667 -3.741626,2.81609 -6.419126,5.12017 -5.95,5.12017 0.469127,0 1.280458,-0.39509 1.802958,-0.87798 2.027765,-1.87405 12.657284,-7.24807 13.221096,-6.68426 0.327564,0.32757 0.16788,1.02326 -0.354853,1.546 -0.851306,0.8513 -14.978873,8.01624 -15.806141,8.01624 -0.185367,0 -0.285972,-0.9282 -0.223566,-2.06268 z m 170.613461,-0.93732 c -1.82797,-1.18132 -0.24909,-1.18132 2.5,0 1.31874,0.56668 1.48906,0.87815 0.5,0.9144 -0.825,0.0302 -2.175,-0.38124 -3,-0.9144 z M 26.217573,312.6082 c -3.025,-2.68525 -5.165259,-5.21817 -4.756131,-5.6287 0.409128,-0.41053 1.696207,0.11332 2.860174,1.16411 2.166991,1.9563 8.331856,9.43606 7.729986,9.37871 -0.183716,-0.0175 -2.809029,-2.22886 -5.834029,-4.91412 z m 176.812497,4.26284 c 0.72187,-0.28887 1.58437,-0.25335 1.91667,0.0789 0.33229,0.33229 -0.25834,0.56864 -1.3125,0.52522 -1.16495,-0.048 -1.4019,-0.28494 -0.60417,-0.60416 z m -173.782511,-7.8934 c -2.315667,-3.06708 -3.944732,-5.84208 -3.620145,-6.16666 0.324587,-0.32459 0.709636,-0.40266 0.855664,-0.1735 0.146027,0.22917 1.64557,2.44167 3.332318,4.91667 3.836303,5.62909 4.635611,7 4.081339,7 -0.241379,0 -2.333508,-2.50943 -4.649176,-5.57651 z m 5.860104,3.41216 c -5.602938,-10.28852 -6.596385,-12.83565 -5.006233,-12.83565 0.486121,0 1.909695,2.5875 3.163497,5.75 1.253803,3.1625 2.720192,6.32337 3.258644,7.02417 0.538452,0.70079 0.726337,1.52683 0.417523,1.83564 -0.308814,0.30882 -1.133858,-0.48956 -1.833431,-1.77416 z m 21.677708,-5.33565 c 2.531621,-3.31913 4.432202,-4.47138 4.432202,-2.68709 0,1.00175 -5.326575,6.18709 -6.35561,6.18709 -0.410395,0 0.455139,-1.575 1.923408,-3.5 z m -9.114542,0 c 0.908278,-4.42621 2.666268,-8.5 3.668064,-8.5 1.230951,0 1.184627,0.16735 -1.702498,6.1507 -1.773207,3.67484 -2.388477,4.41023 -1.965566,2.3493 z m -4.029618,-2 c 0.304893,-2.2 0.559303,-5.0125 0.565356,-6.25 0.0061,-1.2375 0.452397,-2.25 0.991876,-2.25 1.155413,0 0.216004,8.74625 -1.181478,11 -0.622889,1.00455 -0.747002,0.17879 -0.375754,-2.5 z m 8.576362,3.14462 c 0,-1.54199 3.09146,-6.64462 4.02568,-6.64462 1.358982,0 1.287864,0.18646 -1.52568,4 -1.375,1.86371 -2.5,3.05379 -2.5,2.64462 z m 18,-1.48963 c 0,-1.10458 3.027948,-3.68358 5.25,-4.47161 0.9625,-0.34133 1.75,-1.23473 1.75,-1.98533 0,-0.75059 0.5625,-1.3683 1.25,-1.37267 0.6875,-0.004 3.815884,-1.65438 6.951963,-3.66667 3.136077,-2.01229 6.173577,-3.65871 6.749997,-3.65871 2.27717,0 0.8148,1.8143 -3.95196,4.90306 -2.75,1.78194 -5,3.65773 -5,4.16841 0,0.51069 -0.5625,0.93046 -1.25,0.93281 -0.6875,0.002 -3.275,1.35043 -5.75,2.99572 -4.678598,3.11016 -6,3.58476 -6,2.15499 z m 115.557637,-1.06173 c -0.30822,-0.49871 0.34022,-0.67122 1.44098,-0.38337 2.33499,0.61061 2.63015,1.29011 0.5604,1.29011 -0.79254,0 -1.69316,-0.40803 -2.00138,-0.90674 z m 40.40014,-5.14605 c 2.89848,-2.77904 5.46268,-4.86008 5.69823,-4.62454 0.23554,0.23555 -0.99685,1.7218 -2.73865,3.3028 -1.7418,1.58099 -3.88577,3.66203 -4.76437,4.62453 -0.87861,0.9625 -2.01771,1.75 -2.53132,1.75 -0.51362,0 1.43763,-2.27376 4.33611,-5.05279 z m -37.20778,2.48082 c -1.5125,-0.82055 -2.75,-1.70253 -2.75,-1.95997 0,-1.04705 1.91626,-0.35324 4.13922,1.49867 2.8138,2.34414 2.35948,2.495 -1.38922,0.4613 z m 6.4693,-2.94557 c -2.48465,-2.48465 -4.26294,-4.77215 -3.95176,-5.08334 0.55477,-0.55477 1.23473,0.0561 7.16955,6.44103 4.51233,4.85456 1.88656,3.74665 -3.21779,-1.35769 z m 19.83915,4.14587 c -0.11702,-1.74519 5.33936,-14.62833 6.19552,-14.62833 0.48444,0 0.61171,0.84786 0.28281,1.88412 -0.93298,2.93955 -6.41292,13.71973 -6.47833,12.74421 z m 6.90645,-6.07731 c 2.81609,-4.09305 6.54219,-7.83003 4.41155,-4.42444 -3.30408,5.28122 -5.99258,8.85046 -6.67449,8.86104 -0.43892,0.007 0.5794,-1.98966 2.26294,-4.4366 z m -47.2149,0.7905 c -2.0625,-0.85549 -3.75,-2.17116 -3.75,-2.92372 0,-1.01594 0.57941,-1.13917 2.25,-0.47855 3.51639,1.39054 8.75,4.16225 8.75,4.63399 0,0.88509 -3.63574,0.2674 -7.25,-1.23172 z m 34.32895,-0.92485 c 0.048,-1.16495 0.28494,-1.4019 0.60416,-0.60417 0.28887,0.72187 0.25335,1.58437 -0.0789,1.91667 -0.3323,0.33229 -0.56864,-0.25834 -0.52522,-1.3125 z m -10.94645,-2.91667 c -1.13578,-1.925 -1.79551,-3.5 -1.46607,-3.5 1.06448,0 4.33357,4.26443 4.33357,5.65301 0,2.10413 -0.63865,1.62461 -2.8675,-2.15301 z m 14.96718,1.30902 c 0.0548,-1.26996 0.45997,-3.43402 0.90032,-4.80902 0.68381,-2.13521 0.81518,-1.88847 0.90032,1.69098 0.0548,2.30504 -0.35032,4.4691 -0.90032,4.80902 -0.56466,0.34898 -0.9566,-0.38718 -0.90032,-1.69098 z m -47.56004,-2.15638 c -1.14061,-0.83403 -1.44361,-1.59396 -0.79529,-1.99464 0.57602,-0.356 2.1067,0.23534 3.40149,1.31409 1.74256,1.45182 1.94917,1.97001 0.79529,1.99464 -0.85738,0.0183 -2.38805,-0.57304 -3.40149,-1.31409 z m 42.71254,-2.15264 c 0.0111,-2.2 0.21589,-2.98225 0.45508,-1.73834 0.23919,1.24391 0.23011,3.04391 -0.0202,4 -0.25029,0.95609 -0.446,-0.0617 -0.4349,-2.26166 z m -5.75218,0.5 c -0.37544,-1.1829 -0.45761,-2.37572 -0.18261,-2.65072 0.275,-0.275 0.80717,0.46782 1.18261,1.65072 0.37544,1.1829 0.45761,2.37572 0.18261,2.65072 -0.275,0.275 -0.80717,-0.46782 -1.18261,-1.65072 z m -54.42105,-0.58333 c 0.048,-1.16495 0.28494,-1.4019 0.60416,-0.60417 0.28887,0.72187 0.25335,1.58437 -0.0789,1.91667 -0.3323,0.33229 -0.56864,-0.25834 -0.52522,-1.3125 z m -52.078947,-3.79423 c 0,-0.20765 0.7875,-0.99515 1.75,-1.75 1.58606,-1.24387 1.62143,-1.2085 0.37756,0.37756 -1.30637,1.66575 -2.12756,2.19548 -2.12756,1.37244 z m 58.999997,-22 c 0,-0.20765 0.7875,-0.99515 1.75,-1.75 1.58606,-1.24387 1.62143,-1.2085 0.37756,0.37756 -1.30637,1.66575 -2.12756,2.19548 -2.12756,1.37244 z M 78.341114,246.05043 c -11.952829,-6.67087 -14.580424,-8.5145 -12.073541,-8.47129 2.043516,0.0352 24.28781,12.48844 24.74221,13.85165 0.61596,1.84787 -0.77772,1.25598 -12.668669,-5.38036 z m 84.883286,-2.24628 c 0.0108,-1.18811 17.3345,-12.25 19.18434,-12.25 2.02256,0 0.44208,1.83584 -3.44117,3.99718 -2.3375,1.30101 -6.438,3.85887 -9.11221,5.68414 -4.83556,3.30049 -6.64401,4.00104 -6.63096,2.56868 z m -121.734463,-5.25 c 0,-2.475 0.195016,-3.4875 0.433369,-2.25 0.238353,1.2375 0.238353,3.2625 0,4.5 -0.238353,1.2375 -0.433369,0.225 -0.433369,-2.25 z m 10.185452,-2.75 -2.779562,-3.75 3.660873,3.44617 c 3.899185,3.6705 4.162021,4.05383 2.779562,4.05383 -0.484721,0 -2.132114,-1.6875 -3.660873,-3.75 z m -29.957816,0.75 c 0.995486,-1.1 2.259975,-2 2.809975,-2 0.55,0 0.185511,0.9 -0.809975,2 -0.995486,1.1 -2.259975,2 -2.809975,2 -0.55,0 -0.185511,-0.9 0.809975,-2 z m 6.064293,0.70687 c 0.375531,-0.98622 0.934692,-1.54122 1.242579,-1.23333 0.307887,0.30789 6.34e-4,1.11479 -0.682784,1.79313 -0.987616,0.98026 -1.10248,0.8654 -0.559795,-0.5598 z m 171.435704,0.54328 c 0,-0.47734 0.65262,-1.7414 1.45026,-2.80902 1.39917,-1.87274 1.43015,-1.86131 0.8793,0.32445 -0.56887,2.25724 -2.32956,4.13508 -2.32956,2.48457 z M 52.217573,232.55415 c -2.475,-2.16717 -5.139567,-3.95375 -5.921259,-3.97016 -0.781693,-0.0164 -2.281088,-0.80797 -3.331989,-1.75903 -1.788056,-1.61816 -1.971366,-1.62083 -2.855188,-0.0415 -0.99297,1.77434 -3.345252,1.41608 -5.650223,-0.86056 -1.009687,-0.99727 -0.855204,-1.52577 0.780977,-2.6718 2.003816,-1.40353 1.990796,-1.44744 -0.74134,-2.50024 -1.529538,-0.58943 -4.355978,-1.34625 -6.280978,-1.68187 -8.265112,-1.44098 -13,-2.77899 -13,-3.6736 0,-0.5276 0.400036,-0.71204 0.888969,-0.40986 1.809517,1.11834 15.474884,3.58791 17.063567,3.08368 1.227144,-0.38948 1.541344,-1.41033 1.236846,-4.01859 -0.523661,-4.48553 0.507311,-4.46663 2.391908,0.0438 0.813581,1.94718 1.909511,3.27439 2.4354,2.94938 0.525889,-0.32502 3.974238,-4.91976 7.662998,-10.21053 3.68876,-5.29077 6.869108,-9.13277 7.067441,-8.53777 0.198333,0.595 -1.734624,4.15909 -4.295462,7.92021 -5.08206,7.46406 -5.094563,7.46964 5.779977,-2.58228 2.052403,-1.89715 4.075879,-3.10513 4.496611,-2.6844 0.420732,0.42073 -1.033507,2.34785 -3.231644,4.28247 -11.802256,10.38743 -12.768442,11.453 -11.471293,12.65122 0.69745,0.64427 1.020571,0.72139 0.718048,0.17139 -0.345692,-0.62848 2.850594,-1.06599 8.603295,-1.17763 10.007395,-0.19421 10.311474,0.22623 1.130625,1.56326 l -5.977286,0.87053 7.25,0.12194 c 8.597447,0.1446 9.885705,2.06803 1.5,2.23956 l -5.75,0.11762 4.847751,0.81346 c 2.666264,0.44741 5.141264,1.12729 5.5,1.51086 0.611698,0.65403 -2.211467,0.43276 -14.347751,-1.12453 l -5,-0.64159 9,4.74274 c 10.248776,5.4008 10.036009,5.26114 9.235239,6.06191 -0.328951,0.32896 -4.277484,-1.47104 -8.774515,-4 -10.684371,-6.00846 -12.053865,-5.84777 -3.193388,0.3747 6.801784,4.7767 9.263646,7.06089 7.541681,6.99737 -0.444959,-0.0164 -2.834017,-1.80299 -5.309017,-3.97016 z m -2.25,-11.68933 c -0.9625,-0.25152 -2.5375,-0.25152 -3.5,0 -0.9625,0.25153 -0.175,0.45733 1.75,0.45733 1.925,0 2.7125,-0.2058 1.75,-0.45733 z m 91.122437,13.93933 c -1.24387,-1.58606 -1.2085,-1.62143 0.37756,-0.37756 0.9625,0.75485 1.75,1.54235 1.75,1.75 0,0.82304 -0.82119,0.29331 -2.12756,-1.37244 z m 63.62756,0.75 c 0.33992,-0.55 0.81648,-1 1.05902,-1 0.24254,0 0.44098,0.45 0.44098,1 0,0.55 -0.47656,1 -1.05902,1 -0.58246,0 -0.7809,-0.45 -0.44098,-1 z M 18.234217,233.89917 c 0.0092,-0.46476 2.821654,-2.34378 6.25,-4.17559 3.428346,-1.83182 5.558356,-2.67656 4.733356,-1.87721 -2.277352,2.20655 -11.002303,7.01477 -10.983356,6.0528 z m 177.589303,-1.49708 c 1.04173,-1.45863 2.09405,-2.45863 2.33849,-2.22222 0.24445,0.23641 -0.60787,1.42984 -1.89404,2.65206 l -2.3385,2.22222 z m 20.89405,1.15206 c -0.33992,-0.55 -0.14148,-1 0.44098,-1 0.58246,0 1.05902,0.45 1.05902,1 0,0.55 -0.19844,1 -0.44098,1 -0.24254,0 -0.7191,-0.45 -1.05902,-1 z m 2.94897,-2.46788 c -0.79693,-1.90734 -1.44897,-4.03246 -1.44897,-4.72251 0,-1.59077 2.65726,2.15871 3.96206,5.59061 1.53464,4.0364 -0.80095,3.22961 -2.51309,-0.8681 z m -192.448967,1.09032 c 0,-0.20765 0.7875,-0.99515 1.75,-1.75 1.586056,-1.24387 1.621426,-1.2085 0.377555,0.37756 -1.306369,1.66575 -2.127555,2.19548 -2.127555,1.37244 z m 199.249997,-1.566 c -2.48374,-2.07202 -2.94828,-3.26162 -0.97849,-2.50575 1.05416,0.40452 4.30483,4.52131 3.48696,4.41604 -0.14216,-0.0183 -1.27097,-0.87793 -2.50847,-1.91029 z m -34.25,0.566 c 0,-0.20765 0.7875,-0.99515 1.75,-1.75 1.58606,-1.24387 1.62143,-1.2085 0.37756,0.37756 -1.30637,1.66575 -2.12756,2.19548 -2.12756,1.37244 z M 15.217573,228.49313 c 0,-0.94397 6.810596,-2.46172 7.582541,-1.68977 0.269106,0.2691 -1.326876,0.95027 -3.546628,1.51371 -2.219752,0.56343 -4.035913,0.64266 -4.035913,0.17606 z M 125.02472,216.80415 c -0.33763,-14.01519 -0.0345,-18.25 1.30635,-18.25 0.48757,0 0.8865,6.975 0.8865,15.5 0,18.82429 -1.75266,21.02226 -2.19285,2.75 z m -65.807147,10.75 c -0.901292,-0.58246 -1.024633,-0.97549 -0.309017,-0.98469 0.655041,-0.008 1.469098,0.43469 1.809017,0.98469 0.767305,1.24153 0.421123,1.24153 -1.5,0 z m 134.139987,-3.62452 c 10.14223,-7.37466 10.11453,-7.39049 -2.99808,-1.71244 -1.84694,0.79977 -3.59009,1.22211 -3.87365,0.93855 -0.42806,-0.42806 4.26983,-2.82321 11.73174,-5.98126 1.52729,-0.64639 -4.85805,-0.0418 -10.75,1.01777 -2.03972,0.36682 -3.25,0.17774 -3.25,-0.50776 0,-1.44704 2.95476,-2.05744 11.94623,-2.46784 4.09542,-0.18693 7.60076,-0.80347 7.78963,-1.37009 0.20295,-0.60884 -0.7157,-0.82776 -2.24597,-0.53523 -2.72903,0.52169 -13.93745,-1.45018 -16.48989,-2.90103 -1.71296,-0.97367 5.58275,-0.15461 11,1.23493 4.74381,1.21681 6.26289,1.14331 5.39497,-0.26102 -0.48911,-0.79139 -0.18464,-0.95317 0.94099,-0.5 0.91522,0.36847 2.33904,0.94308 3.16404,1.27693 1.06443,0.43073 1.5,-0.0359 1.5,-1.60699 0,-1.55714 0.44502,-2.04321 1.5,-1.63837 0.91923,0.35274 1.5,-5.9e-4 1.5,-0.91257 0,-1.04476 0.75086,-1.35202 2.51999,-1.03121 2.19489,0.39801 3.10913,-0.43732 7.08685,-6.47511 4.53767,-6.88774 6.08693,-8.58231 7.00607,-7.66316 0.26392,0.26392 -1.89052,3.57148 -4.78765,7.35013 -3.67234,4.78975 -5.30015,7.84444 -5.37532,10.08709 l -0.10781,3.2168 10.82893,-0.61959 c 7.05633,-0.40373 10.82894,-0.2665 10.82894,0.39391 0,1.10041 -7.25835,2.19424 -16,2.4112 l -5.5,0.1365 7,0.95028 c 8.14971,1.10635 11.56542,3.08841 3.9596,2.29767 l -4.9596,-0.51563 5.25,1.6341 c 2.8875,0.89876 5.25,2.02647 5.25,2.50603 0,0.47956 -0.2913,0.87193 -0.64733,0.87193 -1.55746,0 -12.35267,-4.33532 -12.35267,-4.9608 0,-0.38105 -1.38394,-0.48969 -3.07543,-0.24144 -2.19409,0.32203 -2.76724,0.75957 -2,1.52681 2.27272,2.27272 0.9455,2.902 -1.42457,0.67543 l -2.5,-2.34863 -0.0812,3.92432 -0.0812,3.92431 -1.36518,-3 c -0.75085,-1.65 -1.13328,-3.78972 -0.84983,-4.75493 0.62332,-2.12259 -2.45939,-3.62711 -3.61167,-1.76267 -0.45055,0.729 -1.32889,0.93909 -2.05359,0.49121 -0.8026,-0.49604 -1.01708,-0.37937 -0.58571,0.31861 0.76536,1.23843 -11.80396,11.20778 -14.13076,11.20778 -0.80348,0 1.40113,-2.08103 4.89913,-4.62452 z m 36.86001,3.62452 c -1.2819,-0.82843 -1.24555,-0.9716 0.25,-0.98469 0.9625,-0.008 1.75,0.43469 1.75,0.98469 0,1.21961 -0.11279,1.21961 -2,0 z m -204.999997,-2 c 0.825,-0.53316 1.95,-0.96937 2.5,-0.96937 0.55,0 0.325,0.43621 -0.5,0.96937 -0.825,0.53316 -1.95,0.96937 -2.5,0.96937 -0.55,0 -0.325,-0.43621 0.5,-0.96937 z m 5.459504,-1.93448 c 0.553558,-0.89567 -1.416059,-1.14213 -7.884312,-0.98657 -4.742214,0.11405 -8.929039,-0.0995 -9.304055,-0.47448 -0.375017,-0.37502 3.68785,-0.55194 9.028592,-0.39316 5.379638,0.15994 9.741622,0.72353 9.780356,1.26369 0.03845,0.53625 -0.476473,1.15713 -1.144281,1.37973 -0.728954,0.24299 -0.919303,-0.0724 -0.4763,-0.78921 z m -1.959504,-7.21726 c -7.219624,-3.93802 -10.596684,-6.08491 -10.198265,-6.48333 0.474554,-0.47455 13.698265,6.50192 13.698265,7.22684 0,0.69553 -1.41152,0.39568 -3.5,-0.74351 z m 20.983232,-0.82113 c 0.655707,-1.06096 12.74414,-5.02713 15.322103,-5.02713 3.0559,0 -0.290823,1.73614 -7.460572,3.87023 -8.130228,2.41998 -8.693373,2.50285 -7.861531,1.1569 z m -22.604623,-5.10837 c -3.013712,-2.80903 -3.443451,-3.46611 -1.378609,-2.10792 2.996545,1.97103 7.279031,6.18916 6.283596,6.18916 -0.289508,0 -2.496752,-1.83656 -4.904987,-4.08124 z m 26.671391,0.24128 c 2.381861,-2.10598 8.45,-5.2229 8.45,-4.34038 0,1.1059 -6.494419,5.18034 -8.25716,5.18034 -0.704066,0 -0.778104,-0.32249 -0.19284,-0.83996 z m 164.449997,0.53337 c 0,-0.87482 15.90447,-5.89197 17.25182,-5.44217 0.6865,0.22918 -1.26387,1.35686 -4.33415,2.50596 -5.95181,2.22754 -12.91767,3.8109 -12.91767,2.93621 z m -28.29518,-4.88186 c -2.08735,-1.12999 -3.59346,-2.25624 -3.34691,-2.5028 0.50338,-0.50337 8.64209,3.46289 8.64209,4.21157 0,0.84863 -1.4139,0.39236 -5.29518,-1.70877 z m 29.29518,0.88394 c 0,-1.101 11.24215,-11.78667 11.80663,-11.2222 0.27876,0.27877 -0.80119,1.68875 -2.39989,3.13328 -1.59871,1.44454 -4.36924,4.01229 -6.15674,5.7061 -1.7875,1.69382 -3.25,2.76609 -3.25,2.38282 z M 31.614238,202.96108 c -0.825706,-1.97619 -1.330529,-4.10534 -1.121831,-4.73143 0.208698,-0.6261 1.104923,0.99079 1.991611,3.59307 1.892634,5.55458 1.299686,6.33062 -0.86978,1.13836 z m 178.682282,0.01 c 0.048,-1.16495 0.28494,-1.4019 0.60416,-0.60417 0.28887,0.72187 0.25335,1.58437 -0.0789,1.91667 -0.3323,0.33229 -0.56864,-0.25834 -0.52522,-1.3125 z M 41.412522,201.05415 c 0.02038,-1.65 0.244498,-2.20394 0.498042,-1.23097 0.253543,0.97297 0.236869,2.32297 -0.03705,3 -0.273927,0.67703 -0.481372,-0.11903 -0.460992,-1.76903 z m 3.805051,1.19113 c 0,-0.71988 0.668818,-2.18238 1.486261,-3.25 1.359754,-1.77591 1.393986,-1.6645 0.402175,1.30887 -1.131948,3.39349 -1.888436,4.17108 -1.888436,1.94113 z m 186.426997,-0.2126 c 1.05985,-0.80183 2.17182,-1.21305 2.47104,-0.91382 0.62769,0.62769 -1.9121,2.41268 -3.39804,2.38817 -0.55,-0.009 -0.13285,-0.67253 0.927,-1.47435 z M 36.217573,201.05415 c 0,-0.825 0.176855,-1.5 0.393011,-1.5 0.216156,0 0.652033,0.675 0.968615,1.5 0.316583,0.825 0.139728,1.5 -0.393011,1.5 -0.532738,0 -0.968615,-0.675 -0.968615,-1.5 z m 179.999997,-0.81886 c 0,-0.24029 0.60856,-1.95435 1.35236,-3.80902 0.7438,-1.85466 1.65439,-4.22403 2.02354,-5.26525 0.36915,-1.04122 0.88427,-1.68003 1.14472,-1.41958 0.65204,0.65203 -2.49358,9.67796 -3.61422,10.37056 -0.49852,0.3081 -0.9064,0.36358 -0.9064,0.12329 z m -21.48872,-4.30426 c -0.9453,-1.44272 -1.22448,-2.31766 -0.62038,-1.94431 1.15439,0.71346 3.48267,4.56743 2.75929,4.56743 -0.23109,0 -1.1936,-1.18041 -2.13891,-2.62312 z m 14.55901,-4.1859 c -0.0437,-3.30064 0.308,-5.07522 0.92971,-4.69098 1.19774,0.74024 1.19774,5.21271 0,8 -0.62955,1.46503 -0.87823,0.57992 -0.92971,-3.30902 z m -4.34983,1.47723 c -0.39625,-1.00748 -0.70678,-2.58248 -0.69005,-3.5 0.0271,-1.48832 0.14221,-1.47612 1.06727,0.11321 0.57028,0.97978 0.8808,2.55478 0.69005,3.5 -0.31674,1.56951 -0.40931,1.55969 -1.06727,-0.11321 z m 9.34983,-1.85919 c -0.0387,-1.48004 0.37971,-2.9691 0.92971,-3.30902 1.19384,-0.73784 1.19384,1.22178 0,4 -0.7674,1.78583 -0.86696,1.71184 -0.92971,-0.69098 z m -92.8523,-0.30902 c 0.0103,-1.1 0.36216,-3.35 0.78201,-5 0.68569,-2.69472 0.76527,-2.7456 0.78201,-0.5 0.0102,1.375 -0.34166,3.625 -0.78201,5 -0.62738,1.95899 -0.79661,2.0672 -0.78201,0.5 z m 4.47384,-7 c -0.4445,-4.95 -0.90282,-9.675 -1.0185,-10.5 -0.11568,-0.825 -1.70165,2.6625 -3.52437,7.75 -1.82272,5.0875 -3.68752,9.25 -4.14401,9.25 -0.45649,0 0.48086,-3.4042 2.08299,-7.56488 2.11401,-5.49 2.65141,-8.05363 1.95932,-9.34681 -0.6398,-1.19548 -0.57413,-2.16144 0.19954,-2.93511 2.91723,-2.91723 -2.9776,0.38825 -12.54658,7.0354 -1.53988,1.06968 -3.33988,1.76286 -4,1.5404 -0.66012,-0.22246 2.90307,-3.065 7.91821,-6.31674 5.01514,-3.25174 9.2271,-6.36226 9.35992,-6.91226 0.13282,-0.55 1.13401,-2.25343 2.22487,-3.78539 1.73328,-2.43418 1.86427,-3.47669 1.0388,-8.26795 -1.07836,-6.25906 -0.29907,-6.32932 1.4098,-0.12711 l 1.15183,4.18045 0.1558,-5.5 c 0.0857,-3.025 0.56587,-7.3 1.06705,-9.5 0.73182,-3.21241 0.84362,-2.32637 0.56781,4.5 -0.18889,4.675 -0.0624,9.81778 0.28113,11.4284 l 0.62456,2.92839 2.89883,-4.42839 c 4.29469,-6.56078 8.7743,-12.0886 9.33883,-11.52408 0.46289,0.4629 -0.48278,1.84369 -6.61209,9.65437 -3.53492,4.50461 -1.87559,4.65446 3.04842,0.27529 7.5674,-6.73007 8.82601,-7.66843 8.82601,-6.58025 0,1.3576 -12.97677,11.60284 -13.73541,10.84419 -0.31221,-0.31221 -1.17877,0.61028 -1.9257,2.04997 -1.19702,2.30726 -1.14941,2.77127 0.40154,3.91345 1.67802,1.23577 1.67728,1.32771 -0.016,1.98402 -1.38315,0.53612 -1.52184,0.99388 -0.62756,2.07142 1.20018,1.44614 0.6675,1.7485 -2.48715,1.41176 -1.39078,-0.14846 -1.72049,0.24055 -1.24783,1.47227 0.35331,0.92071 0.87102,3.54719 1.15047,5.83661 l 0.50808,4.16258 -1.41073,-3.5 c -1.39983,-3.47298 -1.41342,-3.43439 -1.76024,5 l -0.34952,8.5 -0.80817,-9 z m 5.38712,5.91667 c 0.048,-1.16495 0.28494,-1.4019 0.60416,-0.60417 0.28887,0.72187 0.25335,1.58437 -0.0789,1.91667 -0.3323,0.33229 -0.56864,-0.25834 -0.52522,-1.3125 z m 66.92105,0.52431 c 0,-0.58246 0.45,-0.7809 1,-0.44098 0.55,0.33992 1,0.81648 1,1.05902 0,0.24254 -0.45,0.44098 -1,0.44098 -0.55,0 -1,-0.47656 -1,-1.05902 z m -85.55249,-3.53531 c 5.6697,-8.75582 8.55034,-12.77057 8.53291,-11.89232 -0.0375,1.89221 -7.5061,13.82854 -8.95463,14.31139 -1.11522,0.37174 -1.01567,-0.19928 0.42172,-2.41907 z m 23.11678,0.88746 c -0.54268,-1.4252 -0.42782,-1.54006 0.5598,-0.5598 0.68342,0.67834 0.99067,1.48524 0.68278,1.79313 -0.30789,0.30789 -0.86705,-0.24711 -1.24258,-1.23333 z m 3.26722,-4.54313 c -1.32322,-1.7875 -3.24629,-4.6 -4.27349,-6.25 l -1.86762,-3 2.27119,2 c 2.99664,2.63882 8.39101,10.5 7.20514,10.5 -0.51114,0 -2.01199,-1.4625 -3.33522,-3.25 z m -31.83151,1.45825 c 0,-1.14536 11.18307,-12.20825 12.34087,-12.20825 1.0756,0 -0.459,2.1274 -5.28691,7.32916 -3.74906,4.03937 -7.05396,6.32531 -7.05396,4.87909 z m 16.07895,-3.79158 c 0.048,-1.16495 0.28494,-1.4019 0.60416,-0.60417 0.28887,0.72187 0.25335,1.58437 -0.0789,1.91667 -0.3323,0.33229 -0.56864,-0.25834 -0.52522,-1.3125 z m 8.42105,-2.41667 c -0.99712,-2.21121 -1.57386,-4.25947 -1.28165,-4.55168 0.29221,-0.29221 1.28145,1.34354 2.19832,3.63501 2.16611,5.41365 1.43905,6.14071 -0.91667,0.91667 z m 11.94113,-4.4682 c -1.06762,-0.8075 -1.46464,-1.4825 -0.88226,-1.5 0.58238,-0.0175 1.93238,0.62889 3,1.4364 1.06762,0.8075 1.46464,1.4825 0.88226,1.5 -0.58238,0.0175 -1.93238,-0.62889 -3,-1.4364 z m -44.113347,-0.25314 c 0.748747,-1.2115 14.515407,-5.7688 15.239377,-5.04483 0.56639,0.56639 -8.50328,4.32697 -12.96631,5.37625 -1.860147,0.43733 -2.674777,0.31856 -2.273067,-0.33142 z m 48.672217,-2.27866 c -1.33333,-0.86167 -1.33333,-0.96937 0,-0.96937 0.825,0 2.175,0.43621 3,0.96937 1.33333,0.86167 1.33333,0.96937 0,0.96937 -0.825,0 -2.175,-0.43621 -3,-0.96937 z m -48.999997,-4 c 0,-0.56406 2.506667,-0.94987 5.749997,-0.885 5.68852,0.11377 5.70723,0.12384 1.75,0.94237 -5.48833,1.13522 -7.499997,1.11983 -7.499997,-0.0574 z m 17.590407,-0.375 c 0.2902,-0.75625 1.70159,-1.375 3.13643,-1.375 h 2.60881 l -2.41783,1.33956 c -3.12019,1.72871 -3.9807,1.73787 -3.32741,0.0354 z m -15.59041,-3.625 c -1.14137,-0.73761 -0.73709,-0.97304 1.69098,-0.98469 1.75504,-0.008 3.4691,0.43469 3.80902,0.98469 0.79212,1.28168 -3.51674,1.28168 -5.5,0 z m 41,-1.40712 c 0,-0.95837 7.31349,-3.68098 8.95372,-3.33323 1.2374,0.26235 1.14677,0.54516 -0.45372,1.41578 -2.44795,1.33162 -8.5,2.69685 -8.5,1.91745 z m -35.5,-2.08436 c -0.55,-0.18347 -2.2375,-0.60651 -3.75,-0.9401 -2.70816,-0.5973 -3.935867,-2.63878 -1.5,-2.49426 1.92572,0.11426 9.45217,3.77816 7.75,3.77273 -0.825,-0.003 -1.95,-0.1549 -2.5,-0.33837 z m 33.5,-0.50852 c 0.825,-0.53316 1.95,-0.96937 2.5,-0.96937 0.55,0 0.325,0.43621 -0.5,0.96937 -0.825,0.53316 -1.95,0.96937 -2.5,0.96937 -0.55,0 -0.325,-0.43621 0.5,-0.96937 z m 7,-3.85977 c 1.925,-1.07758 3.695,-1.76746 3.93333,-1.53306 0.81258,0.79914 -1.42725,2.25005 -4.43333,2.8718 l -3,0.62049 z m -16.86179,-1.14023 c -0.0876,-1.9621 2.56224,-13.03378 3.29475,-13.76629 0.31187,-0.31187 0.53955,0.52046 0.50595,1.84962 -0.0706,2.79155 -3.70004,14.17135 -3.8007,11.91667 z m -17.50269,-8.75 c -0.92779,-1.7875 -1.24116,-3.25 -0.69638,-3.25 1.3097,0 3.29961,3.78818 2.78691,5.30544 -0.22201,0.65701 -1.16275,-0.26794 -2.09053,-2.05544 z m 22.92877,1.45687 c 0.37553,-0.98622 0.93469,-1.54122 1.24258,-1.23333 0.30789,0.30789 6.4e-4,1.11479 -0.68278,1.79313 -0.98762,0.98026 -1.10248,0.8654 -0.5598,-0.5598 z m -11.36934,-5.20687 c 0.0204,-1.65 0.2445,-2.20394 0.49804,-1.23097 0.25354,0.97297 0.23687,2.32297 -0.0371,3 -0.27388,0.67703 -0.48132,-0.11903 -0.46094,-1.76903 z m -6.116,-0.0833 c 0.048,-1.16494 0.28494,-1.4019 0.60416,-0.60417 0.28887,0.72188 0.25335,1.58438 -0.0789,1.91667 -0.3323,0.33229 -0.56864,-0.25833 -0.52522,-1.3125 z"
             id="path1382"
             inkscape:connector-curvature="0" />
          <path
             style="fill:#ffdd55"
             d="m 115.24917,392.98426 c 0.0423,-1.24422 4.95103,-6.78081 5.51334,-6.2185 0.24331,0.24331 -0.90477,1.95128 -2.55128,3.79549 -1.64651,1.84421 -2.97944,2.93457 -2.96206,2.42301 z m 8.00105,-2.68011 c 0.34605,-2.65005 3.9455,-10.33048 4.94729,-10.55642 1.00309,-0.22624 1.07965,0.0354 0.29261,1 -0.5863,0.71853 -1.6337,3.21892 -2.32756,5.55642 -0.69386,2.3375 -1.64034,4.25 -2.10328,4.25 -0.46294,0 -0.82702,-0.1125 -0.80906,-0.25 z m -9.44069,-5.25 c 0.90093,-1.375 2.03333,-2.5 2.51644,-2.5 0.4831,0 -0.0998,1.125 -1.29535,2.5 -1.19555,1.375 -2.32794,2.5 -2.51644,2.5 -0.18849,0 0.39441,-1.125 1.29535,-2.5 z m 17.40804,1 c 0,-0.825 0.43588,-1.5 0.96862,-1.5 0.53273,0 0.70959,0.675 0.39301,1.5 -0.31659,0.825 -0.75246,1.5 -0.96862,1.5 -0.21615,0 -0.39301,-0.675 -0.39301,-1.5 z m -10,-2.5 c 0.5887,-1.1 1.61703,-1.96447 2.28518,-1.92105 0.91564,0.0595 0.90698,0.20316 -0.0352,0.58333 -0.6875,0.27741 -1.25,1.14189 -1.25,1.92105 0,0.77917 -0.46583,1.41667 -1.03518,1.41667 -0.70185,0 -0.69052,-0.64401 0.0352,-2 z m 21.07793,-1.24772 c -2.25637,-2.77999 -2.27479,-2.89217 -0.26931,-1.63973 1.92515,1.20228 3.68198,3.80874 2.96492,4.39879 -0.15045,0.1238 -1.36347,-1.11778 -2.69561,-2.75906 z m -34.6368,0.80289 c 1.06762,-0.85535 2.38012,-1.55517 2.91667,-1.55517 1.27054,0 0.70323,0.4619 -2.3578,1.91971 -2.35727,1.12265 -2.38918,1.10183 -0.55887,-0.36454 z m 40.05887,-5.26237 c -2.2,-0.83207 -4.62691,-1.69893 -5.39313,-1.92636 -0.76622,-0.22743 -1.1594,-0.64725 -0.87373,-0.93292 0.28567,-0.28567 2.80206,0.34795 5.59198,1.40803 2.78991,1.06009 5.32059,1.67941 5.62372,1.37627 0.30314,-0.30313 0.55116,-0.0262 0.55116,0.61551 0,1.41979 -0.42809,1.37772 -5.5,-0.54053 z m -42.5,-0.2928 c 0,-0.55 0.47656,-1 1.05902,-1 0.58246,0 0.7809,0.45 0.44098,1 -0.33992,0.55 -0.81648,1 -1.05902,1 -0.24254,0 -0.44098,-0.45 -0.44098,-1 z m 18.63837,-0.5 c -0.31658,-0.825 -0.18787,-1.5 0.28603,-1.5 0.47389,0 1.12064,0.675 1.43723,1.5 0.31658,0.825 0.18787,1.5 -0.28603,1.5 -0.47389,0 -1.12064,-0.675 -1.43723,-1.5 z m -15.47851,0.0477 c 0.36293,-0.38542 3.91118,-1.53708 7.88502,-2.55924 3.97383,-1.02217 6.82689,-1.49891 6.34013,-1.05943 -0.48675,0.43948 -3.13501,1.33058 -5.88501,1.98023 -2.75,0.64965 -5.9,1.44173 -7,1.76019 -1.1,0.31845 -1.70306,0.26366 -1.34014,-0.12175 z m 20.33006,-0.56401 c -0.34546,-0.55897 -1.11655,-0.71444 -1.71353,-0.34549 -0.64782,0.40038 -0.79775,0.20538 -0.37188,-0.48369 0.98543,-1.59446 2.27029,-1.44435 2.95712,0.34549 0.65275,1.70106 0.0778,2.02007 -0.87171,0.48369 z m -3.98992,-2.98369 c -0.33992,-0.55 -0.14148,-1 0.44098,-1 0.58246,0 1.05902,0.45 1.05902,1 0,0.55 -0.19844,1 -0.44098,1 -0.24254,0 -0.7191,-0.45 -1.05902,-1 z m 7.5279,-1.46638 c -0.66934,-0.80651 -0.98496,-2.04401 -0.70139,-2.75 0.29181,-0.72648 0.55651,-0.41554 0.60986,0.71638 0.0776,1.64588 0.26077,1.73664 1.03468,0.51261 0.73909,-1.16897 0.90434,-1.0084 0.77188,0.75 -0.19965,2.65038 -0.16734,2.63586 -1.71503,0.77101 z m -23.5711,-0.60353 c -0.31616,-0.51155 1.10172,-0.93009 3.15085,-0.93009 2.04913,0 3.4264,0.29928 3.06062,0.66507 -1.08119,1.08118 -5.58821,1.27348 -6.21147,0.26502 z m 34.0432,0.0699 c 0.33992,-0.55 0.81648,-1 1.05902,-1 0.24254,0 0.44098,0.45 0.44098,1 0,0.55 -0.47656,1 -1.05902,1 -0.58246,0 -0.7809,-0.45 -0.44098,-1 z m 9.5,-4 c 0,-0.55 0.70156,-1 1.55902,-1 0.85746,0 1.2809,0.45 0.94098,1 -0.33992,0.55 -1.04148,1 -1.55902,1 -0.51754,0 -0.94098,-0.45 -0.94098,-1 z m -22,-1.55902 c 0,-0.85746 0.3842,-1.32157 0.85377,-1.03135 0.46958,0.29021 1.35993,-0.58323 1.97856,-1.94099 0.61864,-1.35775 1.60734,-2.46864 2.19712,-2.46864 0.58978,0 -0.12898,1.575 -1.59725,3.5 -2.99431,3.92574 -3.4322,4.17338 -3.4322,1.94098 z m -14.49292,-0.42953 c -0.35034,-0.56686 0.0511,-0.7345 0.94098,-0.39301 1.73242,0.66479 2.04939,1.38156 0.61096,1.38156 -0.51754,0 -1.21592,-0.44485 -1.55194,-0.98855 z m -10.50708,-1.01145 c 0,-0.55 0.47656,-1 1.05902,-1 0.58246,0 0.7809,0.45 0.44098,1 -0.33992,0.55 -0.81648,1 -1.05902,1 -0.24254,0 -0.44098,-0.45 -0.44098,-1 z m 13.50555,-0.99387 c -0.99854,-1.10337 -1.35088,-2.00613 -0.78298,-2.00613 1.25825,0 3.7524,2.85836 3.08047,3.5303 -0.26508,0.26508 -1.29895,-0.4208 -2.29749,-1.52417 z m 18.36333,0.65186 c 0.61257,-0.7381 0.78017,-1.7506 0.37244,-2.25 -0.40772,-0.49939 -0.3247,-0.56637 0.18449,-0.14884 0.5092,0.41753 2.0842,-0.2532 3.5,-1.49051 1.41581,-1.23731 1.02341,-0.56643 -0.87198,1.49085 -3.25824,3.53654 -5.58139,5.28604 -3.18495,2.3985 z m 3.68999,-0.12619 c 1.06762,-0.8075 2.36464,-1.4825 2.88226,-1.5 0.51762,-0.0175 0.0676,0.62889 -1,1.4364 -1.06762,0.8075 -2.36464,1.4825 -2.88226,1.5 -0.51762,0.0175 -0.0676,-0.62889 1,-1.4364 z m 6.94113,0.4682 c 0.33992,-0.55 0.81648,-1 1.05902,-1 0.24254,0 0.44098,0.45 0.44098,1 0,0.55 -0.47656,1 -1.05902,1 -0.58246,0 -0.7809,-0.45 -0.44098,-1 z m 2.5,-1.05902 c 0,-0.58246 0.45,-0.7809 1,-0.44098 0.55,0.33992 1,0.81648 1,1.05902 0,0.24254 -0.45,0.44098 -1,0.44098 -0.55,0 -1,-0.47656 -1,-1.05902 z m -20.75883,-5.94098 c 0.008,-5.4922 0.11148,-5.87981 0.66905,-2.5 0.36294,2.2 1.05115,4.63203 1.52934,5.40451 0.57244,0.92471 0.50092,1.17674 -0.20937,0.73776 -0.59335,-0.36672 -1.28568,0.12625 -1.53851,1.09549 -0.25282,0.96923 -0.45555,-1.16276 -0.45051,-4.73776 z m -3.32026,-1.24909 c -0.29765,-2.14974 -0.14485,-3.37485 0.35817,-2.87183 0.4825,0.4825 0.71609,2.1696 0.5191,3.7491 -0.32972,2.64362 -0.39943,2.5739 -0.87727,-0.87727 z m 9.83532,2.58473 c 0.69093,-0.27855 1.03686,-0.86141 0.76874,-1.29524 -0.26813,-0.43383 0.51657,-1.8722 1.74377,-3.19636 1.22719,-1.32417 2.33139,-2.81508 2.45377,-3.31314 0.12237,-0.49805 0.9678,-1.01494 1.87871,-1.14864 1.17145,-0.17193 0.78279,0.68782 -1.32785,2.93733 -1.64124,1.74923 -3.26004,3.96791 -3.59733,4.93041 -0.3373,0.9625 -1.18989,1.71447 -1.89466,1.67105 -1.01135,-0.0623 -1.01665,-0.18567 -0.0252,-0.58541 z m 13.80806,-0.62877 c 0.37553,-0.98622 0.93469,-1.54122 1.24258,-1.23333 0.30789,0.30789 6.4e-4,1.11479 -0.68278,1.79313 -0.98762,0.98026 -1.10248,0.8654 -0.5598,-0.5598 z m -4.69541,-1.04888 c 0.61257,-0.7381 0.78017,-1.71025 0.37244,-2.16032 -0.40772,-0.45008 -0.15697,-0.48111 0.55724,-0.069 1.00047,0.57734 1.02976,1.07324 0.12755,2.16033 -0.64405,0.77603 -1.396,1.41097 -1.671,1.41097 -0.275,0 0.001,-0.6039 0.61377,-1.34201 z m -35.88788,-2.18088 c -1.05678,-1.27335 -0.99492,-1.41968 0.37756,-0.89301 0.90279,0.34643 1.64144,1.03173 1.64144,1.52289 0,1.28596 -0.57887,1.10536 -2.019,-0.62988 z m 7.89144,-0.22711 c -1.24387,-1.58606 -1.2085,-1.62143 0.37756,-0.37756 0.9625,0.75485 1.75,1.54235 1.75,1.75 0,0.82304 -0.82119,0.29331 -2.12756,-1.37244 z m 30.12756,-1.19098 c 0,-0.51754 0.44485,-1.21592 0.98855,-1.55194 0.56686,-0.35034 0.7345,0.0511 0.39301,0.94098 -0.66479,1.73242 -1.38156,2.04939 -1.38156,0.61096 z m -26.43571,-1.76589 c -0.54268,-1.4252 -0.42782,-1.54006 0.5598,-0.5598 0.68342,0.67834 0.99067,1.48524 0.68278,1.79313 -0.30789,0.30789 -0.86705,-0.24711 -1.24258,-1.23333 z m 5,-2.58626 c 0.37553,-0.98622 0.93469,-1.54122 1.24258,-1.23333 0.30789,0.30789 6.4e-4,1.11479 -0.68278,1.79313 -0.98762,0.98026 -1.10248,0.8654 -0.5598,-0.5598 z m 4.43571,-1.76589 c 0,-0.58246 0.45,-0.7809 1,-0.44098 0.55,0.33992 1,0.81648 1,1.05902 0,0.24254 -0.45,0.44098 -1,0.44098 -0.55,0 -1,-0.47656 -1,-1.05902 z m 7.07895,-0.52431 c 0.048,-1.16495 0.28494,-1.4019 0.60416,-0.60417 0.28887,0.72187 0.25335,1.58438 -0.0789,1.91667 -0.3323,0.33229 -0.56864,-0.25834 -0.52522,-1.3125 z m -97.846944,-2.41667 c 0,-1.925 0.205795,-2.7125 0.457323,-1.75 0.251527,0.9625 0.251527,2.5375 0,3.5 -0.251528,0.9625 -0.457323,0.175 -0.457323,-1.75 z m 78.767994,2 c 0,-0.55 0.47656,-1 1.05902,-1 0.58246,0 0.7809,0.45 0.44098,1 -0.33992,0.55 -0.81648,1 -1.05902,1 -0.24254,0 -0.44098,-0.45 -0.44098,-1 z m -92.499997,-1 c 0.339919,-0.55 0.816476,-1 1.059017,-1 0.242541,0 0.440983,0.45 0.440983,1 0,0.55 -0.476558,1 -1.059017,1 -0.582459,0 -0.780902,-0.45 -0.440983,-1 z m 17.752183,-3.5 c 0.0111,-2.2 0.215885,-2.98225 0.455078,-1.73834 0.239193,1.24391 0.230112,3.04391 -0.02018,4 -0.250293,0.95609 -0.445997,-0.0617 -0.434898,-2.26166 z m -9.171895,0.5 c 1.457812,-3.06103 1.919712,-3.62834 1.919712,-2.3578 0,0.53655 -0.699825,1.84905 -1.555166,2.91667 -1.466378,1.83031 -1.487191,1.7984 -0.364546,-0.55887 z m -10.080288,-1.94098 c 0,-0.51754 0.444846,-1.21592 0.988546,-1.55194 0.56686,-0.35034 0.734507,0.0511 0.393011,0.94098 -0.664791,1.73242 -1.381557,2.04939 -1.381557,0.61096 z m 24.404508,0.0955 c 0.39244,-0.63499 0.210411,-1.15452 -0.404508,-1.15452 -0.614919,0 -0.863673,-0.41157 -0.552786,-0.91459 0.310886,-0.50302 -5.7e-5,-1.1425 -0.690983,-1.42105 -0.940188,-0.37905 -0.950607,-0.52633 -0.04142,-0.58541 1.813551,-0.11786 3.580121,3.62073 2.13338,4.51487 -0.71794,0.44371 -0.886362,0.27695 -0.443688,-0.43931 z M 208.4903,337.5592 c 0,-2.23056 0.34167,-4.26672 0.75926,-4.52481 0.85611,-0.52911 0.66198,7.15913 -0.2026,8.02371 -0.30616,0.30617 -0.55666,-1.26834 -0.55666,-3.4989 z m -180.308522,0.15931 c 0.65881,-1.2846 1.472091,-2.06139 1.807291,-1.72619 0.335201,0.3352 -0.203825,1.38624 -1.197835,2.33565 -1.727753,1.65022 -1.754575,1.6234 -0.609456,-0.60946 z m 4.409477,0.04 c 1.293519,-2.09296 7.555612,-5.12781 8.252853,-3.99965 0.412161,0.66689 0.224457,0.8212 -0.473899,0.38959 -0.703647,-0.43487 -1.537468,0.28765 -2.129758,1.8455 -0.535357,1.40812 -1.195391,2.5602 -1.466742,2.5602 -0.271352,0 -0.191643,-0.78628 0.177131,-1.74729 0.620809,-1.6178 0.461146,-1.61011 -2.154508,0.10373 -1.553754,1.01806 -2.546038,1.39963 -2.205077,0.84795 z m 26.498763,-0.95436 c -1.243871,-1.58606 -1.208501,-1.62143 0.377555,-0.37756 0.9625,0.75485 1.75,1.54235 1.75,1.75 0,0.82304 -0.821186,0.29331 -2.127555,-1.37244 z m -39.884994,-0.65413 c 1.368099,-0.78122 2.860538,-1.18982 3.316532,-0.908 1.109947,0.68599 0.725511,0.91626 -2.803983,1.67958 l -3,0.64881 z m 195.054236,0.90413 c -1.01573,-5.33718 -1.00978,-5.98964 0.0385,-4.21858 0.57991,0.97978 0.85131,2.55478 0.60311,3.5 -0.24819,0.94522 -0.53691,1.26858 -0.64158,0.71858 z m 3.99349,-1.43426 c -1.06103,-1.98255 -1.45886,-5.82275 -0.50432,-4.86822 0.7059,0.7059 2.43967,6.80248 1.93452,6.80248 -0.21726,0 -0.86085,-0.87042 -1.4302,-1.93426 z M 32.217573,334.55415 c 0.588702,-1.1 1.574279,-2 2.190171,-2 0.615892,0 0.305315,0.9 -0.690171,2 -0.995486,1.1 -1.981063,2 -2.190171,2 -0.209108,0 0.101469,-0.9 0.690171,-2 z m 162.999997,1.226 c 0,-0.64894 1.12114,-1.91449 2.49141,-2.81233 1.37028,-0.89784 2.28892,-1.96009 2.04142,-2.36055 -0.2475,-0.40046 1.38644,-2.48874 3.63097,-4.64061 2.75999,-2.64605 3.70628,-3.1842 2.9234,-1.66251 -0.63666,1.2375 -1.59173,2.25 -2.12238,2.25 -0.53065,0 -0.96482,0.58367 -0.96482,1.29705 0,0.71338 -1.8,3.05471 -4,5.20295 -2.2,2.14824 -4,3.37494 -4,2.726 z m -171.499997,-1.226 c -0.339919,-0.55 -0.141476,-1 0.440983,-1 0.582459,0 1.059017,0.45 1.059017,1 0,0.55 -0.198442,1 -0.440983,1 -0.242541,0 -0.719098,-0.45 -1.059017,-1 z m 30.5,0 c -0.825,-0.53316 -1.05,-0.96937 -0.5,-0.96937 0.55,0 1.675,0.43621 2.5,0.96937 0.825,0.53316 1.05,0.96937 0.5,0.96937 -0.55,0 -1.675,-0.43621 -2.5,-0.96937 z m 6,-1.08243 -2.5,-2.03796 3.25,1.58588 c 1.7875,0.87223 3.25,1.79931 3.25,2.06019 0,0.99447 -1.59298,0.35405 -4,-1.60811 z m 68.078947,0.4991 c 0.048,-1.16495 0.28494,-1.4019 0.60416,-0.60417 0.28887,0.72187 0.25335,1.58438 -0.0789,1.91667 -0.3323,0.33229 -0.56864,-0.25834 -0.52522,-1.3125 z m 75.68734,1.01419 c -0.32924,-0.53271 0.2032,-2.70244 1.18319,-4.82162 0.97999,-2.11917 2.00828,-3.46069 2.28508,-2.98114 0.70911,1.22851 -2.73818,8.98408 -3.46827,7.80276 z m 18.73371,-0.43086 c 0.33992,-0.55 0.81648,-1 1.05902,-1 0.24254,0 0.44098,0.45 0.44098,1 0,0.55 -0.47656,1 -1.05902,1 -0.58246,0 -0.7809,-0.45 -0.44098,-1 z M 26.217573,334.12452 c 0,-0.275 0.9,-0.98167 2,-1.57037 1.1,-0.5887 2,-0.84537 2,-0.57037 0,0.275 -0.9,0.98167 -2,1.57037 -1.1,0.5887 -2,0.84537 -2,0.57037 z m 25.333333,-2.04321 c 0,-0.7926 0.6,-1.67134 1.333334,-1.95274 0.733333,-0.28141 1.333333,-0.13087 1.333333,0.33452 0,0.46539 -0.6,1.34413 -1.333333,1.95274 -1.006207,0.83508 -1.333334,0.753 -1.333334,-0.33452 z m 177.666664,0.58049 c 0,-0.67413 -0.46115,-0.94068 -1.02478,-0.59234 -0.56362,0.34834 -0.90112,0.0374 -0.75,-0.69098 0.15113,-0.72838 -0.24456,-1.22622 -0.87931,-1.1063 -0.63475,0.11992 -1.70235,-0.44258 -2.37244,-1.25 -0.6701,-0.80742 -0.95975,-1.46803 -0.64366,-1.46803 0.31608,0 -0.57218,-1.2375 -1.97392,-2.75 -1.40174,-1.5125 -2.91775,-2.75 -3.36892,-2.75 -1.35163,0 -2.18584,-1.25906 -1.22689,-1.85172 1.14406,-0.70707 13.85998,12.06499 12.93393,12.99104 -0.38171,0.38171 -0.69401,0.14246 -0.69401,-0.53167 z M 31.950906,331.43006 c 0.678334,-0.68342 1.485241,-0.99067 1.793128,-0.68278 0.307888,0.30789 -0.247112,0.86705 -1.233333,1.24258 -1.425198,0.54268 -1.540062,0.42782 -0.559795,-0.5598 z m 158.266664,-0.37591 c 0.68469,-0.825 1.69489,-1.5 2.24489,-1.5 0.55783,0 0.44954,0.66326 -0.24489,1.5 -0.68469,0.825 -1.69489,1.5 -2.24489,1.5 -0.55783,0 -0.44954,-0.66326 0.24489,-1.5 z M 63.030073,330.87104 c 0.721875,-0.28887 1.584375,-0.25335 1.916667,0.0789 0.332291,0.33229 -0.258334,0.56864 -1.3125,0.52522 -1.164943,-0.048 -1.4019,-0.28494 -0.604167,-0.60416 z m -36.8125,-1.31689 c 0,-0.55 0.45,-1 1,-1 0.55,0 1,0.45 1,1 0,0.55 -0.45,1 -1,1 -0.55,0 -1,-0.45 -1,-1 z m 9.292599,-0.90308 c -0.98366,-1.57509 -0.783225,-1.78856 1.595435,-1.69916 1.985503,0.0746 2.745782,0.64254 2.814277,2.10224 0.05162,1.1 -0.129047,1.41872 -0.401477,0.70826 -0.337197,-0.87936 -0.876488,-0.9754 -1.689284,-0.30084 -0.829144,0.68813 -1.537699,0.44048 -2.318951,-0.8105 z m -4.292599,-0.0969 c 0,-0.55 0.45,-1 1,-1 0.55,0 1,0.45 1,1 0,0.55 -0.45,1 -1,1 -0.55,0 -1,-0.45 -1,-1 z m 24.76845,-0.16845 c 0.581102,-0.5811 1.646819,-0.85979 2.36826,-0.61931 0.748946,0.24965 0.295653,0.70294 -1.056551,1.05655 -1.663345,0.43497 -2.053777,0.30483 -1.311709,-0.43724 z m 138.231547,0.16845 c 0,-0.55 0.47656,-1 1.05902,-1 0.58246,0 0.7809,0.45 0.44098,1 -0.33992,0.55 -0.81648,1 -1.05902,1 -0.24254,0 -0.44098,-0.45 -0.44098,-1 z m 15.5,0 c 0.33992,-0.55 0.81648,-1 1.05902,-1 0.24254,0 0.44098,0.45 0.44098,1 0,0.55 -0.47656,1 -1.05902,1 -0.58246,0 -0.7809,-0.45 -0.44098,-1 z m 9.0841,-1.64144 c -0.52667,-1.37248 -0.38034,-1.43434 0.89301,-0.37756 1.73524,1.44013 1.91584,2.019 0.62988,2.019 -0.49116,0 -1.17646,-0.73865 -1.52289,-1.64144 z m 13.28834,-0.10856 c -1.24387,-1.58606 -1.2085,-1.62143 0.37756,-0.37756 0.9625,0.75485 1.75,1.54235 1.75,1.75 0,0.82304 -0.82119,0.29331 -2.12756,-1.37244 z m -182.784677,-0.0168 c -2.062831,-0.35476 -5.087598,-2.38311 -5.087833,-3.4118 -4.1e-5,-0.17679 1.3525,-0.28139 3.005645,-0.23245 3.67521,0.1088 5.273237,1.37202 1.911095,1.5107 l -2.416667,0.0997 2.5,0.72012 c 1.375,0.39607 3.22789,0.28019 4.117534,-0.2575 1.401897,-0.84729 5.836896,-0.18058 4.775594,0.71792 -0.826881,0.70003 -6.499944,1.24981 -8.805368,0.85333 z m 138.991187,0.0425 c -0.11792,-1.82862 5.61958,-4.57248 6.51881,-3.1175 0.43986,0.71171 0.27074,0.87858 -0.44325,0.43731 -0.63498,-0.39246 -1.15451,-0.21043 -1.15451,0.40449 0,0.61492 -0.45,0.83992 -1,0.5 -0.55,-0.33992 -1,-0.11492 -1,0.5 0,0.61492 -0.41157,0.86367 -0.91459,0.55279 -0.50302,-0.31089 -1.1425,5e-5 -1.42105,0.69098 -0.38549,0.95617 -0.52532,0.96379 -0.58541,0.0319 z M 15.806852,325.69861 c -0.290815,-0.47055 0.582628,-0.64309 1.940983,-0.38343 1.358356,0.25967 2.469738,0.64466 2.469738,0.85555 0,0.77375 -3.898641,0.35644 -4.410721,-0.47212 z m 7.910721,-0.14446 c -1.260639,-0.54172 -1.445479,-0.85943 -0.5,-0.85943 0.825,0 2.4,0.38674 3.5,0.85943 1.260639,0.54172 1.445479,0.85943 0.5,0.85943 -0.825,0 -2.4,-0.38674 -3.5,-0.85943 z m 184.138367,-1.5 c 0.31659,-0.825 0.75246,-1.5 0.96862,-1.5 0.21615,0 0.39301,0.675 0.39301,1.5 0,0.825 -0.43588,1.5 -0.96862,1.5 -0.53273,0 -0.70959,-0.675 -0.39301,-1.5 z M 33.217573,323.49513 c 0,-0.58246 0.45,-0.7809 1,-0.44098 0.55,0.33992 1,0.81648 1,1.05902 0,0.24254 -0.45,0.44098 -1,0.44098 -0.55,0 -1,-0.47656 -1,-1.05902 z m 166.639857,-0.43712 c -0.37854,-0.98645 -0.0344,-1.21341 1.16107,-0.7657 1.53841,0.57613 1.55723,0.45312 0.19907,-1.30093 -1.35112,-1.74495 -1.34379,-1.81552 0.0738,-0.71102 1.24275,0.96827 1.83367,0.96827 2.80925,0 0.97714,-0.96983 1.11449,-0.90809 0.6569,0.2953 -0.31821,0.83683 -1.42985,2.05316 -2.47032,2.70294 -1.50572,0.94034 -2.00155,0.89532 -2.42976,-0.22059 z M 29.217573,322.55415 c 0,-0.55 0.476558,-1 1.059017,-1 0.582459,0 0.780902,0.45 0.440983,1 -0.339919,0.55 -0.816476,1 -1.059017,1 -0.242541,0 -0.440983,-0.45 -0.440983,-1 z m 7,0 c -0.901292,-0.58246 -1.024633,-0.97549 -0.309017,-0.98469 0.655041,-0.008 1.469098,0.43469 1.809017,0.98469 0.767305,1.24153 0.421123,1.24153 -1.5,0 z m 16,-0.2818 c -2.321958,-1.88574 -2.232119,-4.2119 0.243173,-6.29638 1.241255,-1.04528 1.918345,-1.49182 1.504645,-0.99231 -0.4137,0.4995 0.0363,1.80956 1,2.91123 0.9637,1.10168 1.189682,1.67414 0.502182,1.27214 -0.723185,-0.42287 -1.25,-0.20404 -1.25,0.51923 0,0.68758 -0.660688,0.37664 -1.468197,-0.69098 -1.971579,-2.60666 -1.948932,-0.48168 0.0249,2.33636 1.750754,2.49956 1.624806,2.71238 -0.556704,0.94071 z m 14.8125,0.59869 c 0.721875,-0.28887 1.584375,-0.25335 1.916667,0.0789 0.332291,0.33229 -0.258334,0.56864 -1.3125,0.52522 -1.164943,-0.048 -1.4019,-0.28494 -0.604167,-0.60416 z m 59.187497,-6.81689 c 0,-4.30833 0.26441,-7.56893 0.58757,-7.24576 0.73015,0.73014 0.68384,13.80769 -0.0515,14.54302 -0.29484,0.29484 -0.53607,-2.98893 -0.53607,-7.29726 z m 105.5,6.5 c -0.33992,-0.55 -0.16803,-1 0.38197,-1 0.55,0 1.27811,0.45 1.61803,1 0.33992,0.55 0.16803,1 -0.38197,1 -0.55,0 -1.27811,-0.45 -1.61803,-1 z M 42.217573,322.14521 c 0,-0.19039 0.675,-0.90637 1.5,-1.59106 0.864593,-0.71755 1.5,-0.81474 1.5,-0.22943 0,0.5585 -0.675,1.27447 -1.5,1.59106 -0.825,0.31658 -1.5,0.41982 -1.5,0.22943 z m 143.999997,-0.49918 c 0,-1.28621 4.34792,-2.17176 5.24109,-1.06746 0.42657,0.5274 0.50056,0.76639 0.16442,0.53109 -0.33614,-0.2353 -1.68989,-0.0177 -3.00833,0.48358 -1.31845,0.50128 -2.39718,0.52503 -2.39718,0.0528 z m 22.86078,-1.14834 c -2.23662,-1.94831 -2.24537,-2.00062 -0.16647,-0.99463 1.20687,0.58402 2.47092,1.50943 2.80901,2.05647 0.98306,1.59061 -0.0947,1.15753 -2.64254,-1.06184 z m -176.860777,-0.003 c 0,-0.58246 0.45,-0.7809 1,-0.44098 0.55,0.33992 1,0.81648 1,1.05902 0,0.24254 -0.45,0.44098 -1,0.44098 -0.55,0 -1,-0.47656 -1,-1.05902 z m 7.3875,-0.10348 c 0.31062,-1.5858 2.6125,-2.34514 2.6125,-0.86182 0,0.6283 -0.411565,0.88799 -0.91459,0.57711 -0.503024,-0.31089 -1.144274,-0.1012 -1.425,0.46598 -0.280725,0.56718 -0.403535,0.4856 -0.27291,-0.18127 z M 193.72465,319.5656 c -0.35034,-0.56686 0.0511,-0.7345 0.94098,-0.39301 1.73242,0.66479 2.04939,1.38156 0.61096,1.38156 -0.51754,0 -1.21592,-0.44485 -1.55194,-0.98855 z m 3.49292,-1.01145 c 0,-0.55 0.45,-1 1,-1 0.55,0 1,0.45 1,1 0,0.55 -0.45,1 -1,1 -0.55,0 -1,-0.45 -1,-1 z m 14,-0.16667 c 0,-0.45833 0.42344,-0.83333 0.94098,-0.83333 0.51754,0 1.17275,0.375 1.45601,0.83333 0.28327,0.45834 -0.14017,0.83334 -0.94098,0.83334 -0.8008,0 -1.45601,-0.375 -1.45601,-0.83334 z m 10,0.16667 c -1.82797,-1.18132 -0.24909,-1.18132 2.5,0 1.31874,0.56668 1.48906,0.87815 0.5,0.9144 -0.825,0.0302 -2.175,-0.38124 -3,-0.9144 z M 56.291459,317.14318 c -0.902201,-1.08709 -0.872921,-1.58299 0.127556,-2.16033 0.714207,-0.41214 0.964962,-0.38111 0.557234,0.069 -0.407728,0.45007 -0.240128,1.42222 0.372445,2.16032 0.612572,0.73811 0.888768,1.34201 0.613768,1.34201 -0.275,0 -1.026951,-0.63494 -1.671003,-1.41097 z m 172.926111,1.01796 c 0,-0.21616 0.69837,-0.661 1.55194,-0.98855 0.88992,-0.34149 1.29132,-0.17385 0.94098,0.39301 -0.58726,0.95021 -2.49292,1.40545 -2.49292,0.59554 z M 24.724652,316.5656 c -0.350339,-0.56686 0.05106,-0.7345 0.940983,-0.39301 1.732417,0.66479 2.049387,1.38156 0.610955,1.38156 -0.517541,0 -1.215913,-0.44485 -1.551938,-0.98855 z m 4.987373,-1.01758 c -0.998538,-1.10337 -1.630783,-2.1843 -1.404988,-2.40206 0.225795,-0.21776 1.219044,0.685 2.207221,2.00613 2.182386,2.91772 1.696826,3.15736 -0.802233,0.39593 z m 29.048253,1.07523 c -0.316431,-0.512 -0.192988,-1.1672 0.274316,-1.45601 0.467305,-0.28881 0.849646,0.13009 0.849646,0.9309 0,1.68617 -0.315337,1.83349 -1.123962,0.52511 z m 144.269792,0.24779 c 0.72187,-0.28887 1.58437,-0.25335 1.91667,0.0789 0.33229,0.33229 -0.25834,0.56864 -1.3125,0.52522 -1.16495,-0.048 -1.4019,-0.28494 -0.60417,-0.60416 z m 3.1875,-0.28926 c 0,-1.35555 1.7771,-2.19731 2.42516,-1.14873 0.30984,0.50134 -0.10906,1.16956 -0.9309,1.48493 -0.82184,0.31537 -1.49426,0.16408 -1.49426,-0.3362 z m 19,-0.0276 c 0.825,-0.53316 1.95,-0.96937 2.5,-0.96937 0.55,0 0.325,0.43621 -0.5,0.96937 -0.825,0.53316 -1.95,0.96937 -2.5,0.96937 -0.55,0 -0.325,-0.43621 0.5,-0.96937 z M 20.820579,315.72082 c -0.283266,-0.45834 0.140176,-0.83334 0.940983,-0.83334 0.800806,0 1.456011,0.375 1.456011,0.83334 0,0.45833 -0.423442,0.83333 -0.940983,0.83333 -0.517541,0 -1.172746,-0.375 -1.456011,-0.83333 z M 181.72465,315.5656 c -0.35034,-0.56686 0.0511,-0.7345 0.94098,-0.39301 1.73242,0.66479 2.04939,1.38156 0.61096,1.38156 -0.51754,0 -1.21592,-0.44485 -1.55194,-0.98855 z m 9.25458,0.28129 c 1.24391,-0.23919 3.04391,-0.23011 4,0.0202 0.95609,0.25029 -0.0617,0.446 -2.26166,0.4349 -2.2,-0.0111 -2.98225,-0.21589 -1.73834,-0.45508 z m 29.73834,-0.29274 c 0.33992,-0.55 0.81648,-1 1.05902,-1 0.24254,0 0.44098,0.45 0.44098,1 0,0.55 -0.47656,1 -1.05902,1 -0.58246,0 -0.7809,-0.45 -0.44098,-1 z m -22,-1 c -3.77509,-0.67592 -3.82058,-0.72417 -0.80902,-0.85809 1.75504,-0.0781 3.48261,-0.61376 3.83903,-1.19047 0.44899,-0.72647 1.03292,-0.72914 1.90103,-0.009 0.68914,0.57193 1.57286,0.72 1.96382,0.32903 0.39097,-0.39096 0.41392,0.063 0.051,1.00868 -0.70002,1.82423 -0.74812,1.82921 -6.94586,0.71952 z m 17.3125,0.31689 c 0.72187,-0.28887 1.58437,-0.25335 1.91667,0.0789 0.33229,0.33229 -0.25834,0.56864 -1.3125,0.52522 -1.16495,-0.048 -1.4019,-0.28494 -0.60417,-0.60416 z M 32.197517,313.02998 c -0.69572,-0.83829 -1.012279,-1.77683 -0.703465,-2.08564 0.308814,-0.30882 1.063772,0.37706 1.677684,1.52416 1.309846,2.44747 0.823595,2.72772 -0.974219,0.56148 z m 2.984261,-0.64018 c -1.145119,-2.23286 -1.118297,-2.25968 0.609456,-0.60946 0.99401,0.94941 1.533036,2.00045 1.197835,2.33565 -0.3352,0.3352 -1.148481,-0.44159 -1.807291,-1.72619 z m 30.600088,0.87122 c 0.375531,-0.98622 0.934692,-1.54122 1.242579,-1.23333 0.307887,0.30789 6.34e-4,1.11479 -0.682784,1.79313 -0.987616,0.98026 -1.10248,0.8654 -0.559795,-0.5598 z m -25.809044,-2.20687 c 0.262848,-1.375 0.650446,-2.5 0.861328,-2.5 0.210883,0 0.383423,1.125 0.383423,2.5 0,1.375 -0.387598,2.5 -0.861328,2.5 -0.473731,0 -0.646271,-1.125 -0.383423,-2.5 z m 19.244751,2.12244 c 0,-0.20765 0.7875,-0.99515 1.75,-1.75 1.586056,-1.24387 1.621426,-1.2085 0.377555,0.37756 -1.306369,1.66575 -2.127555,2.19548 -2.127555,1.37244 z m 156.603007,-0.45577 c -0.28327,-0.45834 0.12038,-0.83334 0.89699,-0.83334 0.77661,0 1.18026,0.375 0.89699,0.83334 -0.28326,0.45833 -0.68691,0.83333 -0.89699,0.83333 -0.21008,0 -0.61373,-0.375 -0.89699,-0.83333 z m 5.14813,-1.32304 c 0.38637,-1.47745 0.19947,-1.93114 -0.59362,-1.44098 -0.63663,0.39346 -1.15752,0.5023 -1.15752,0.24186 0,-0.26044 2.025,-1.60531 4.5,-2.98862 2.475,-1.3833 4.5,-2.1271 4.5,-1.65288 0,0.47422 -0.95946,1.16673 -2.13213,1.53893 -1.63569,0.51914 -1.81706,0.87143 -0.77896,1.51301 0.74424,0.45997 0.96709,1.19827 0.49522,1.64068 -0.47186,0.4424 -1.05883,0.24187 -1.30437,-0.44563 -0.62045,-1.73727 -2.27976,-1.56917 -2.27976,0.23095 0,0.81452 1.0125,1.697 2.25,1.96106 1.2375,0.26407 3.15,0.67044 4.25,0.90305 1.1,0.23262 -0.32037,0.47514 -3.15638,0.53894 -4.81242,0.10826 -5.11877,-0.0278 -4.59248,-2.04037 z m 16.06136,1.47326 c 0.72187,-0.28887 1.58437,-0.25335 1.91667,0.0789 0.33229,0.33229 -0.25834,0.56864 -1.3125,0.52522 -1.16495,-0.048 -1.4019,-0.28494 -0.60417,-0.60416 z M 23.287728,310.12883 c -1.221311,-1.30003 -1.802135,-2.62229 -1.29072,-2.93836 0.511415,-0.31608 1.9291,0.48898 3.15041,1.789 1.221311,1.30003 1.802135,2.62229 1.29072,2.93836 -0.511415,0.31608 -1.9291,-0.48898 -3.15041,-1.789 z m 2.929845,1.08031 c 0,-0.18976 -1.0125,-1.20226 -2.25,-2.25 l -2.25,-1.90499 1.904988,2.25 c 1.790218,2.11444 2.595012,2.70524 2.595012,1.90499 z m 166.249997,0.62161 c -1.7875,-0.22182 -3.25,-0.87359 -3.25,-1.44837 0,-0.65468 1.02723,-0.7657 2.75,-0.2972 1.5125,0.41132 3.54723,0.71234 4.52161,0.66893 0.97439,-0.0434 1.51033,0.34385 1.19099,0.86056 -0.31935,0.51671 -0.89158,0.86746 -1.27162,0.77944 -0.38004,-0.088 -2.15348,-0.34153 -3.94098,-0.56336 z m 18.43415,-0.0266 c -0.23864,-0.4125 -0.0718,-1.65 0.3707,-2.75 0.7024,-1.746 0.81351,-1.65075 0.87486,0.75 0.0693,2.713 -0.3985,3.46421 -1.24556,2 z M 55.717573,308.95176 c 1.1,-0.84632 1.901887,-1.91385 1.781971,-2.37228 -0.306269,-1.17084 2.626541,-3.45015 3.419293,-2.6574 0.794533,0.79453 -4.646409,6.64491 -6.138355,6.60027 -0.5846,-0.0175 -0.162909,-0.72426 0.937091,-1.57059 z m 127.999997,0.60239 c -0.33992,-0.55 0.0835,-1 0.94098,-1 0.85746,0 1.55902,0.45 1.55902,1 0,0.55 -0.42344,1 -0.94098,1 -0.51754,0 -1.2191,-0.45 -1.55902,-1 z m -154.499997,-1 c -0.901292,-0.58246 -1.024633,-0.97549 -0.309017,-0.98469 0.655041,-0.008 1.469098,0.43469 1.809017,0.98469 0.767305,1.24153 0.421123,1.24153 -1.5,0 z m 18,-0.44098 c 0,-0.79254 0.408034,-1.69316 0.906741,-2.00138 0.498708,-0.30822 0.671224,0.34022 0.383369,1.44098 -0.610613,2.33499 -1.29011,2.63015 -1.29011,0.5604 z m 16.564293,-0.26589 c -0.542685,-1.4252 -0.427821,-1.54006 0.559795,-0.5598 0.683418,0.67834 0.990671,1.48524 0.682784,1.79313 -0.307887,0.30789 -0.867048,-0.24711 -1.242579,-1.23333 z m 163.942784,0.71832 c -0.35034,-0.56686 0.0511,-0.7345 0.94098,-0.39301 1.73242,0.66479 2.04939,1.38156 0.61096,1.38156 -0.51754,0 -1.21592,-0.44485 -1.55194,-0.98855 z M 43.600984,305.76398 c 0.199979,-1.8096 0.645521,-3.5721 0.990094,-3.91667 1.020668,-1.02067 0.682427,4.07365 -0.378911,5.70684 -0.713439,1.09785 -0.877299,0.61789 -0.611183,-1.79017 z m 187.616586,1.79017 c -0.825,-0.53316 -1.05,-0.96937 -0.5,-0.96937 0.55,0 1.675,0.43621 2.5,0.96937 0.825,0.53316 1.05,0.96937 0.5,0.96937 -0.55,0 -1.675,-0.43621 -2.5,-0.96937 z M 70.217573,306.70914 c 0,-0.46476 1.0125,-1.70226 2.25,-2.75 2.248183,-1.90345 2.248585,-1.90331 0.497818,0.17616 -0.9637,1.14463 -1.4512,2.38213 -1.083333,2.75 0.367867,0.36787 0.143848,0.66885 -0.497818,0.66885 -0.641667,0 -1.166667,-0.38026 -1.166667,-0.84501 z m 164.999997,-0.15499 c -1.20677,-0.77988 -1.04862,-0.97237 0.80902,-0.98469 1.28757,-0.009 2.03561,0.42706 1.69098,0.98469 -0.74319,1.2025 -0.63926,1.2025 -2.5,0 z m -49.44236,-0.90674 c -0.30822,-0.49871 0.34022,-0.67122 1.44098,-0.38337 2.33499,0.61061 2.63015,1.29011 0.5604,1.29011 -0.79254,0 -1.69316,-0.40803 -2.00138,-0.90674 z M 39.29652,303.97082 c 0.04798,-1.16495 0.284941,-1.4019 0.604167,-0.60417 0.288871,0.72187 0.253344,1.58438 -0.07895,1.91667 -0.332292,0.33229 -0.568641,-0.25834 -0.52522,-1.3125 z m 14.677284,0.91897 c 0.690926,-0.27855 0.958898,-0.98755 0.595491,-1.57556 -0.393821,-0.63721 -0.187764,-0.77678 0.510081,-0.34549 1.376715,0.85086 0.550061,2.62054 -1.17082,2.50646 -0.852441,-0.0565 -0.833894,-0.22291 0.06525,-0.58541 z m 167.714986,-0.28908 c 0.3241,-0.52439 2.03815,-1.95366 3.80902,-3.17616 l 3.21976,-2.22272 -3,3.14838 c -2.81615,2.95544 -5.33356,4.36168 -4.02878,2.2505 z M 25.217573,303.55415 c 0,-0.55 0.476558,-1 1.059017,-1 0.582459,0 0.780902,0.45 0.440983,1 -0.339919,0.55 -0.816476,1 -1.059017,1 -0.242541,0 -0.440983,-0.45 -0.440983,-1 z M 197.1798,301.482 l -3.46223,-3.07216 3.75,2.69085 c 3.31388,2.3779 4.39217,3.45346 3.46223,3.45346 -0.15828,0 -1.84578,-1.38247 -3.75,-3.07215 z m -147.396244,0.17891 c -0.376209,-0.60872 -0.180902,-1.10676 0.434017,-1.10676 0.614919,0 0.839919,-0.45 0.5,-1 -0.339919,-0.55 -0.141476,-1 0.440983,-1 1.273122,0 1.333287,1.01881 0.168704,2.85676 -0.599292,0.94581 -1.066872,1.02153 -1.543704,0.25 z m 136.934014,-0.10676 c -0.33992,-0.55 -0.14148,-1 0.44098,-1 0.58246,0 1.05902,0.45 1.05902,1 0,0.55 -0.19844,1 -0.44098,1 -0.24254,0 -0.7191,-0.45 -1.05902,-1 z m 33.73207,-1 c 0.68696,-1.1 1.59459,-2 2.01695,-2 0.42236,0 0.20587,0.9 -0.48109,2 -0.68696,1.1 -1.59459,2 -2.01695,2 -0.42236,0 -0.20587,-0.9 0.48109,-2 z m 14.37094,1.16667 c -0.28327,-0.45834 0.12038,-0.83334 0.89699,-0.83334 0.77661,0 1.18026,0.375 0.89699,0.83334 -0.28326,0.45833 -0.68691,0.83333 -0.89699,0.83333 -0.21008,0 -0.61373,-0.375 -0.89699,-0.83333 z M 29.217573,300.55415 c 0,-0.55 0.476558,-1 1.059017,-1 0.582459,0 0.780902,0.45 0.440983,1 -0.339919,0.55 -0.816476,1 -1.059017,1 -0.242541,0 -0.440983,-0.45 -0.440983,-1 z m 52,0.62244 c 0,-0.20765 0.685301,-0.9463 1.522892,-1.64144 1.273347,-1.05678 1.419678,-0.99492 0.893011,0.37756 -0.537896,1.40173 -2.415903,2.38422 -2.415903,1.26388 z m -36.361626,-3.12244 c -0.316583,-0.825 -0.139728,-1.5 0.393011,-1.5 0.532738,0 0.968615,0.675 0.968615,1.5 0,0.825 -0.176855,1.5 -0.393011,1.5 -0.216156,0 -0.652033,-0.675 -0.968615,-1.5 z m 164.440573,-0.0833 c 0.048,-1.16495 0.28494,-1.4019 0.60416,-0.60417 0.28887,0.72187 0.25335,1.58437 -0.0789,1.91667 -0.3323,0.33229 -0.56864,-0.25834 -0.52522,-1.3125 z m 4.27684,-2.01263 c -0.0793,-1.32222 0.25818,-2.40404 0.75,-2.40404 1.08056,0 1.20307,3.69127 0.14421,4.34502 -0.4125,0.25469 -0.8149,-0.61876 -0.89421,-1.94098 z m -14.00407,0.83588 c 0.36341,-0.58801 0.0954,-1.29701 -0.59549,-1.57556 -0.89914,-0.3625 -0.91769,-0.52891 -0.0652,-0.58541 1.72088,-0.11408 2.54754,1.6556 1.17082,2.50646 -0.69784,0.43129 -0.9039,0.29172 -0.51008,-0.34549 z m 8.72723,-2.82325 c 0.048,-1.16495 0.28494,-1.4019 0.60416,-0.60417 0.28887,0.72187 0.25335,1.58437 -0.0789,1.91667 -0.3323,0.33229 -0.56864,-0.25834 -0.52522,-1.3125 z m 11.13162,0.18419 c 0.70919,-0.76953 1.44699,-1.24947 1.63957,-1.06653 0.59314,0.56343 -0.91014,2.46564 -1.94858,2.46564 -0.53923,0 -0.40017,-0.62961 0.30901,-1.39914 z M 91.781863,293.26105 c 0.37553,-0.98622 0.93469,-1.54122 1.24258,-1.23333 0.30789,0.30789 6.4e-4,1.11479 -0.68278,1.79313 -0.98762,0.98026 -1.10248,0.8654 -0.5598,-0.5598 z m 56.514657,-1.2902 c 0.048,-1.16495 0.28494,-1.4019 0.60416,-0.60417 0.28887,0.72187 0.25335,1.58437 -0.0789,1.91667 -0.3323,0.33229 -0.56864,-0.25834 -0.52522,-1.3125 z m 72.42105,-1.4167 c -0.33992,-0.55 -0.14148,-1 0.44098,-1 0.58246,0 1.05902,0.45 1.05902,1 0,0.55 -0.19844,1 -0.44098,1 -0.24254,0 -0.7191,-0.45 -1.05902,-1 z M 96.217573,288.17659 c 0,-0.20765 0.7875,-0.99515 1.75,-1.75 1.58606,-1.24387 1.62143,-1.2085 0.37756,0.37756 -1.30637,1.66575 -2.12756,2.19548 -2.12756,1.37244 z m 58.999997,-22 c 0,-0.20765 0.7875,-0.99515 1.75,-1.75 1.58606,-1.24387 1.62143,-1.2085 0.37756,0.37756 -1.30637,1.66575 -2.12756,2.19548 -2.12756,1.37244 z M 41.412522,240.05415 c 0.02038,-1.65 0.244498,-2.20394 0.498042,-1.23097 0.253543,0.97297 0.236869,2.32297 -0.03705,3 -0.273927,0.67703 -0.481372,-0.11903 -0.460992,-1.76903 z m 130.347758,-1.4309 c -0.31644,-0.512 -0.19299,-1.1672 0.27431,-1.45601 0.46731,-0.28881 0.84965,0.13009 0.84965,0.9309 0,1.68617 -0.31534,1.83349 -1.12396,0.52511 z m -150.042707,-2.0691 c 0.995486,-1.1 2.259975,-2 2.809975,-2 0.55,0 0.185511,0.9 -0.809975,2 -0.995486,1.1 -2.259975,2 -2.809975,2 -0.55,0 -0.185511,-0.9 0.809975,-2 z m 6.064293,0.70687 c 0.375531,-0.98622 0.934692,-1.54122 1.242579,-1.23333 0.307887,0.30789 6.34e-4,1.11479 -0.682784,1.79313 -0.987616,0.98026 -1.10248,0.8654 -0.559795,-0.5598 z m 24.935707,0.29313 c -0.339919,-0.55 -0.168034,-1 0.381966,-1 0.55,0 1.278115,0.45 1.618034,1 0.339919,0.55 0.168034,1 -0.381966,1 -0.55,0 -1.278115,-0.45 -1.618034,-1 z m 13.3125,0.31689 c 0.721875,-0.28887 1.584375,-0.25335 1.916667,0.0789 0.332291,0.33229 -0.258334,0.56864 -1.3125,0.52522 -1.164943,-0.048 -1.4019,-0.28494 -0.604167,-0.60416 z m 133.187497,-0.31689 c 0,-0.55 0.47656,-1 1.05902,-1 0.58246,0 0.7809,0.45 0.44098,1 -0.33992,0.55 -0.81648,1 -1.05902,1 -0.24254,0 -0.44098,-0.45 -0.44098,-1 z m 5.5,-2 c 0.33992,-0.55 0.81648,-1 1.05902,-1 0.24254,0 0.44098,0.45 0.44098,1 0,0.55 -0.47656,1 -1.05902,1 -0.58246,0 -0.7809,-0.45 -0.44098,-1 z m -186.499997,-1.9244 c 0,-0.47389 0.675,-1.12064 1.5,-1.43723 0.825,-0.31658 1.5,-0.18787 1.5,0.28603 0,0.47389 -0.675,1.12064 -1.5,1.43723 -0.825,0.31658 -1.5,0.18787 -1.5,-0.28603 z m 177.605947,-1.22766 c 1.04173,-1.45863 2.09405,-2.45863 2.33849,-2.22222 0.24445,0.23641 -0.60787,1.42984 -1.89404,2.65206 l -2.3385,2.22222 z m 20.89405,1.15206 c -0.33992,-0.55 -0.14148,-1 0.44098,-1 0.58246,0 1.05902,0.45 1.05902,1 0,0.55 -0.19844,1 -0.44098,1 -0.24254,0 -0.7191,-0.45 -1.05902,-1 z m 3.37238,-0.75 c -0.55492,-3.26106 -0.46718,-5.1176 0.22174,-4.69183 0.45019,0.27823 0.53671,1.24029 0.19227,2.1379 -0.41578,1.0835 -0.2369,1.39138 0.53222,0.91604 0.75689,-0.46779 0.95204,-0.178 0.56295,0.83595 -0.63901,1.66522 -1.30231,2.01768 -1.50918,0.80194 z M 22.225822,231.77042 c 0.0045,-0.39395 1.809755,-1.69424 4.011597,-2.88954 2.201842,-1.1953 3.774568,-1.8031 3.494946,-1.35066 -0.772408,1.24978 -7.515973,5.059 -7.506543,4.2402 z m 4.991751,0.40617 c 0,-0.20765 0.7875,-0.99515 1.75,-1.75 1.586056,-1.24387 1.621426,-1.2085 0.377555,0.37756 -1.306369,1.66575 -2.127555,2.19548 -2.127555,1.37244 z m 23.458881,-0.68897 c -0.362533,-0.58659 -0.444683,-1.281 -0.182555,-1.54313 0.262128,-0.26213 0.743066,0.21781 1.068751,1.06653 0.676184,1.76211 0.09985,2.07206 -0.886196,0.4766 z m 141.541116,-0.31103 c 0,-0.20765 0.7875,-0.99515 1.75,-1.75 1.58606,-1.24387 1.62143,-1.2085 0.37756,0.37756 -1.30637,1.66575 -2.12756,2.19548 -2.12756,1.37244 z M 52.217573,228.55415 c -0.793144,-0.49019 -1.217079,-1.11625 -0.942079,-1.39125 0.275,-0.275 1.148935,-0.0989 1.942079,0.39125 0.793144,0.49019 1.217079,1.11625 0.942079,1.39125 -0.275,0.275 -1.148935,0.0989 -1.942079,-0.39125 z m -34,-1 c 0,-0.55 1.2375,-0.96837 2.75,-0.92971 2.436844,0.0623 2.52225,0.16815 0.75,0.92971 -2.73138,1.17371 -3.5,1.17371 -3.5,0 z m 41,0 c -0.901292,-0.58246 -1.024633,-0.97549 -0.309017,-0.98469 0.655041,-0.008 1.469098,0.43469 1.809017,0.98469 0.767305,1.24153 0.421123,1.24153 -1.5,0 z m 130.159297,0.0221 c 0.21488,-0.64466 0.82945,-1.2062 1.3657,-1.24788 0.53625,-0.0417 1.47525,-0.75989 2.08667,-1.59606 1.18759,-1.62413 4.78915,-2.63573 3.82399,-1.07407 -0.31562,0.51069 -0.94561,0.69877 -1.39997,0.41796 -0.45437,-0.28082 -1.07285,0.13241 -1.37442,0.91827 -0.69613,1.81409 -5.08506,4.33104 -4.50197,2.58178 z M 34.791779,225.88693 c -0.351874,-0.91697 -0.272545,-2.03444 0.176288,-2.48327 0.448832,-0.44884 0.908544,0.30141 1.021581,1.66721 0.237348,2.86783 -0.276263,3.21773 -1.197869,0.81606 z m 14.425794,0.66722 c 0,-0.55 -0.50625,-0.8875 -1.125,-0.75 -0.61875,0.1375 -1.328009,-0.425 -1.576131,-1.25 -0.357978,-1.19027 -0.25746,-1.22426 0.486803,-0.16459 0.515864,0.73448 1.326373,1.26323 1.801131,1.175 0.474759,-0.0882 1.024447,0.32334 1.22153,0.91459 0.197084,0.59125 0.09583,1.075 -0.225,1.075 -0.320833,0 -0.583333,-0.45 -0.583333,-1 z m -24,-1 c 0.825,-0.53316 1.95,-0.96937 2.5,-0.96937 0.55,0 0.325,0.43621 -0.5,0.96937 -0.825,0.53316 -1.95,0.96937 -2.5,0.96937 -0.55,0 -0.325,-0.43621 0.5,-0.96937 z m 184.774717,-1.25 c -0.2416,-0.6875 -0.1096,-2.375 0.29333,-3.75 0.63739,-2.17513 0.74554,-2.0127 0.83227,1.25 0.10121,3.80757 -0.32975,4.76475 -1.1256,2.5 z M 30.59062,223.75956 c 0.358292,-0.57972 -0.14157,-1.28369 -1.110804,-1.56437 -1.160908,-0.33619 -0.980953,-0.44732 0.527368,-0.32568 2.43121,0.19606 3.182528,1.86059 1.146193,2.53937 -0.667807,0.2226 -0.921048,-0.0696 -0.562757,-0.64932 z m 95.7059,-0.78874 c 0.048,-1.16495 0.28494,-1.4019 0.60416,-0.60417 0.28887,0.72187 0.25335,1.58437 -0.0789,1.91667 -0.3323,0.33229 -0.56864,-0.25834 -0.52522,-1.3125 z m -78.33999,-0.43546 c -5.414569,-0.96451 -5.294437,-1.48121 0.344376,-1.48121 2.704167,0 4.916667,0.31094 4.916667,0.69098 0,1.25164 -1.448975,1.46928 -5.261043,0.79023 z m -32.926457,-0.66432 c 0.721875,-0.28887 1.584375,-0.25335 1.916667,0.0789 0.332291,0.33229 -0.258334,0.56864 -1.3125,0.52522 -1.164943,-0.048 -1.4019,-0.28494 -0.604167,-0.60416 z M 213.62256,220.4125 c -1.89822,-2.13405 -1.897,-2.13675 0.34501,-0.75946 1.2375,0.76021 2.25,1.72396 2.25,2.14166 0,1.20572 -0.55693,0.90908 -2.59501,-1.3822 z M 33.350231,220.17073 c -2.055391,-1.13959 -2.143443,-1.39846 -0.668212,-1.96456 2.349993,-0.90178 2.535554,-0.84582 2.535554,0.76465 0,0.77916 0.5625,1.64364 1.25,1.92105 0.6875,0.27741 0.8,0.52397 0.25,0.5479 -0.55,0.0239 -2.065304,-0.54714 -3.367342,-1.26904 z m 164.359039,0.55838 c 0.37123,-0.37123 1.1938,-0.67496 1.82794,-0.67496 2.16061,0 1.76885,-3.15462 -0.52922,-4.26147 -2.25484,-1.08603 -2.25713,-1.10422 -0.14741,-1.17085 1.17866,-0.0372 2.46446,0.71982 2.85734,1.68232 0.65574,1.60648 0.78177,1.58597 1.5367,-0.25 1.26033,-3.06507 1.13595,-3.34486 -1.28705,-2.89529 -1.2375,0.22961 -1.6847,0.14904 -0.99377,-0.17903 0.69093,-0.32808 0.95461,-1.08454 0.58596,-1.68103 -0.43269,-0.7001 -0.0514,-0.84706 1.07555,-0.41459 0.96021,0.36847 1.93403,0.66994 2.16405,0.66994 0.23001,0 0.41821,0.675 0.41821,1.5 0,0.825 0.64844,1.5 1.44098,1.5 0.79254,0 1.67893,0.38499 1.96974,0.85554 0.29082,0.47055 -0.69513,0.63403 -2.19098,0.3633 -1.49586,-0.27074 -2.3975,-0.14599 -2.00365,0.27721 0.80255,0.86237 -3.81438,4.82772 -5.99337,5.14752 -0.77329,0.1135 -1.10225,-0.0974 -0.73102,-0.46861 z m 27.5083,-0.17496 c 0,-0.55 0.45,-1 1,-1 0.55,0 1,0.45 1,1 0,0.55 -0.45,1 -1,1 -0.55,0 -1,-0.45 -1,-1 z M 46.831625,218.99077 c -0.335805,-0.8751 -1.111315,-1.24733 -1.761498,-0.84549 -0.722196,0.44634 -0.891673,0.28118 -0.448046,-0.43662 0.958996,-1.55169 2.438477,-1.45438 4.166921,0.27406 1.800633,1.80063 1.811292,2.57143 0.03556,2.57143 -0.766156,0 -1.662978,-0.70352 -1.992937,-1.56338 z m 15.198448,0.88027 c 0.721875,-0.28887 1.584375,-0.25335 1.916667,0.0789 0.332291,0.33229 -0.258334,0.56864 -1.3125,0.52522 -1.164943,-0.048 -1.4019,-0.28494 -0.604167,-0.60416 z m 160.233217,0.18311 c -0.008,-0.55 0.37443,-1.61485 0.85051,-2.36633 0.68591,-1.0827 1.2536,-1.11892 2.73469,-0.1745 1.54426,0.98471 1.56955,1.09904 0.14553,0.65787 -1.01102,-0.31322 -2.13533,0.17233 -2.71959,1.17449 -0.54783,0.93966 -1.00284,1.25847 -1.01114,0.70847 z m -194.545717,-1.5 c -0.339919,-0.55 -0.141476,-1 0.440983,-1 0.582459,0 1.059017,0.45 1.059017,1 0,0.55 -0.198442,1 -0.440983,1 -0.242541,0 -0.719098,-0.45 -1.059017,-1 z m 202.010077,-0.0163 c 0.34546,-0.55897 1.04702,-0.75742 1.55902,-0.44098 1.38704,0.85723 1.12841,1.45729 -0.62812,1.45729 -0.85746,0 -1.27636,-0.45734 -0.9309,-1.01631 z M 20.467573,217.84842 c -1.2375,-0.23836 -2.25,-0.87863 -2.25,-1.42284 0,-0.5442 0.369033,-0.76139 0.820073,-0.48263 0.451039,0.27876 2.081252,0.73553 3.622694,1.01504 1.541442,0.27952 3.04741,0.753 3.346594,1.05219 0.595113,0.59511 -2.003795,0.51922 -5.539361,-0.16176 z m 34.25,-0.29427 c -1.928236,-0.82859 -1.921383,-0.86195 0.190983,-0.92971 1.205041,-0.0387 2.469098,0.37971 2.809017,0.92971 0.731,1.18278 -0.247516,1.18278 -3,0 z m 129.499997,0.0936 c 0,-0.49851 0.9,-0.67103 2,-0.38337 1.1,0.28766 2,0.69553 2,0.90638 0,0.21085 -0.9,0.38337 -2,0.38337 -1.1,0 -2,-0.40787 -2,-0.90638 z M 28.467573,216.33366 c -3.095378,-1.49285 -2.857428,-3.0134 0.25,-1.59756 1.375,0.6265 2.5,1.51685 2.5,1.97857 0,0.98576 0.117827,1.00209 -2.75,-0.38101 z m 10.75,0.84293 c 0,-0.20765 0.7875,-0.99515 1.75,-1.75 1.586056,-1.24387 1.621426,-1.2085 0.377555,0.37756 -1.306369,1.66575 -2.127555,2.19548 -2.127555,1.37244 z m 87.157887,-1.62244 c 0,-1.375 0.22698,-1.9375 0.50439,-1.25 0.27741,0.6875 0.27741,1.8125 0,2.5 -0.27741,0.6875 -0.50439,0.125 -0.50439,-1.25 z m 63.34211,1 c -0.33992,-0.55 0.0835,-1 0.94098,-1 0.85746,0 1.55902,0.45 1.55902,1 0,0.55 -0.42344,1 -0.94098,1 -0.51754,0 -1.2191,-0.45 -1.55902,-1 z M 49.727654,215.53784 c 0.345464,-0.55897 1.047021,-0.75742 1.559017,-0.44098 1.387044,0.85723 1.128411,1.45729 -0.628115,1.45729 -0.857459,0 -1.276365,-0.45734 -0.930902,-1.01631 z m 164.489916,0.0163 c 0,-0.55 0.41037,-1 0.91194,-1 1.01911,0 0.7935,-4.04956 -0.32657,-5.86187 -0.39796,-0.64392 -1.05146,-0.96811 -1.45221,-0.72042 -0.40076,0.24768 -1.28737,0.10502 -1.97025,-0.31703 -0.73087,-0.4517 0.12405,-0.76735 2.07831,-0.76735 3.10969,0 3.31299,0.20845 3.21067,3.29209 -0.0706,2.12737 0.43938,3.50262 1.44141,3.88713 1.35235,0.51894 1.36241,0.71409 0.0787,1.52593 -1.94514,1.23011 -3.972,1.21047 -3.972,-0.0385 z M 44.678485,214.4909 c -0.394428,-0.63819 -0.09699,-1.54363 0.660973,-2.01208 0.757963,-0.46845 1.378115,-1.31813 1.378115,-1.8882 0,-0.57006 0.45,-1.07474 1,-1.12151 0.55,-0.0468 1.4875,-0.48962 2.083333,-0.98412 0.692487,-0.57471 1.083334,-0.37951 1.083334,0.54105 0,0.79207 -0.2625,1.28216 -0.583334,1.08908 -0.755595,-0.45472 -3.109748,2.07928 -2.499056,2.68997 0.25523,0.25523 -0.181757,1.00004 -0.971083,1.65512 -1.08453,0.90008 -1.610339,0.90758 -2.152282,0.0307 z m 8.539088,0.0632 c -0.901292,-0.58246 -1.024633,-0.97549 -0.309017,-0.98469 0.655041,-0.008 1.469098,0.43469 1.809017,0.98469 0.767305,1.24153 0.421123,1.24153 -1.5,0 z m 171.263747,0.28242 c 1.52006,-0.22986 3.77006,-0.22371 5,0.0136 1.22994,0.23736 -0.0137,0.42542 -2.76375,0.41792 -2.75,-0.008 -3.75631,-0.20172 -2.23625,-0.43157 z M 23.717573,213.55415 c -0.339919,-0.55 -0.141476,-1 0.440983,-1 0.582459,0 1.059017,0.45 1.059017,1 0,0.55 -0.198442,1 -0.440983,1 -0.242541,0 -0.719098,-0.45 -1.059017,-1 z m 10.5,-1.55902 c 0,-0.85746 0.45734,-1.27636 1.016312,-0.9309 0.558971,0.34546 0.757414,1.04702 0.440983,1.55902 -0.85724,1.38704 -1.457295,1.12841 -1.457295,-0.62812 z m 25,0.55902 c -0.901292,-0.58246 -1.024633,-0.97549 -0.309017,-0.98469 0.655041,-0.008 1.469098,0.43469 1.809017,0.98469 0.767305,1.24153 0.421123,1.24153 -1.5,0 z m 135.999997,0.60699 c 0,-0.21616 0.675,-0.65203 1.5,-0.96862 0.825,-0.31658 1.5,-0.13972 1.5,0.39301 0,0.53274 -0.675,0.96862 -1.5,0.96862 -0.825,0 -1.5,-0.17686 -1.5,-0.39301 z m 29.25,-0.29632 c 0.9625,-0.25152 2.5375,-0.25152 3.5,0 0.9625,0.25153 0.175,0.45733 -1.75,0.45733 -1.925,0 -2.7125,-0.2058 -1.75,-0.45733 z M 20.217573,211.55415 c -0.793144,-0.49019 -1.217079,-1.11625 -0.942079,-1.39125 0.275,-0.275 1.148935,-0.0989 1.942079,0.39125 0.793144,0.49019 1.217079,1.11625 0.942079,1.39125 -0.275,0.275 -1.148935,0.0989 -1.942079,-0.39125 z m 7,-1 c -0.588702,-1.1 -0.845368,-2 -0.570368,-2 0.275,0 0.981666,0.9 1.570368,2 0.588702,1.1 0.845368,2 0.570368,2 -0.275,0 -0.981666,-0.9 -1.570368,-2 z m 161.199247,0.94579 c -5.26335,-1.13846 -5.00888,-2.01571 0.37978,-1.30922 5.52917,0.72493 6.05982,0.9226 4.2141,1.56976 -0.71122,0.24938 -2.77847,0.13213 -4.59388,-0.26054 z M 54.632163,210.41595 c -0.431292,-0.69784 -0.291725,-0.9039 0.345491,-0.51008 0.588004,0.36341 1.297007,0.0954 1.575561,-0.59549 0.362499,-0.89914 0.528904,-0.91769 0.585411,-0.0652 0.114073,1.72088 -1.655607,2.54754 -2.506463,1.17082 z m 71.913547,-5.3618 c 0.004,-3.85 0.18518,-5.30246 0.40166,-3.2277 0.21647,2.07477 0.21284,5.22477 -0.008,7 -0.22091,1.77524 -0.39803,0.0777 -0.39359,-3.7723 z m 97.17894,4.51145 c -0.35034,-0.56686 0.0511,-0.7345 0.94098,-0.39301 1.73242,0.66479 2.04939,1.38156 0.61096,1.38156 -0.51754,0 -1.21592,-0.44485 -1.55194,-0.98855 z m -30.50708,-2.07047 c 0,-0.58246 0.45,-0.7809 1,-0.44098 0.55,0.33992 1,0.81648 1,1.05902 0,0.24254 -0.45,0.44098 -1,0.44098 -0.55,0 -1,-0.47656 -1,-1.05902 z m 36.50708,0.0705 c -0.35034,-0.56686 0.0511,-0.7345 0.94098,-0.39301 1.73242,0.66479 2.04939,1.38156 0.61096,1.38156 -0.51754,0 -1.21592,-0.44485 -1.55194,-0.98855 z M 47.820579,206.72082 c -0.283266,-0.45834 0.120382,-0.83334 0.896994,-0.83334 0.776612,0 1.18026,0.375 0.896994,0.83334 -0.283265,0.45833 -0.686913,0.83333 -0.896994,0.83333 -0.210081,0 -0.613729,-0.375 -0.896994,-0.83333 z m 7.896994,-1.16667 c 0.995486,-1.1 2.034975,-2 2.309975,-2 0.275,0 -0.314489,0.9 -1.309975,2 -0.995486,1.1 -2.034975,2 -2.309975,2 -0.275,0 0.314489,-0.9 1.309975,-2 z m 163.499997,1.808 c 0,-0.27609 0.9,-1.53969 2,-2.808 1.1,-1.26831 2,-1.85691 2,-1.308 0,0.54891 -0.9,1.81251 -2,2.808 -1.1,0.99549 -2,1.58409 -2,1.308 z M 31.614238,202.96108 c -0.825706,-1.97619 -1.330529,-4.10534 -1.121831,-4.73143 0.208698,-0.6261 1.104923,0.99079 1.991611,3.59307 1.892634,5.55458 1.299686,6.33062 -0.86978,1.13836 z m 155.603332,1.62445 c 0,-0.53273 0.675,-0.70959 1.5,-0.39301 0.825,0.31659 1.5,0.75246 1.5,0.96862 0,0.21615 -0.675,0.39301 -1.5,0.39301 -0.825,0 -1.5,-0.43588 -1.5,-0.96862 z m 23.07895,-1.61471 c 0.048,-1.16495 0.28494,-1.4019 0.60416,-0.60417 0.28887,0.72187 0.25335,1.58437 -0.0789,1.91667 -0.3323,0.33229 -0.56864,-0.25834 -0.52522,-1.3125 z m 6.92105,1.19032 c 0,-0.21616 0.69837,-0.661 1.55194,-0.98855 0.88992,-0.34149 1.29132,-0.17385 0.94098,0.39301 -0.58726,0.95021 -2.49292,1.40545 -2.49292,0.59554 z m 13.5,-1.60699 c 0.33992,-0.55 0.81648,-1 1.05902,-1 0.24254,0 0.44098,0.45 0.44098,1 0,0.55 -0.47656,1 -1.05902,1 -0.58246,0 -0.7809,-0.45 -0.44098,-1 z m -194.499997,-1.5 c 0,-0.825 0.176855,-1.5 0.393011,-1.5 0.216156,0 0.652033,0.675 0.968615,1.5 0.316583,0.825 0.139728,1.5 -0.393011,1.5 -0.532738,0 -0.968615,-0.675 -0.968615,-1.5 z m 15.41459,-0.6382 c -0.433807,-0.70191 -0.291544,-0.90379 0.35522,-0.50407 0.593354,0.36672 1.285682,-0.12625 1.538507,-1.09549 0.410961,-1.57547 0.471975,-1.58302 0.575682,-0.0713 0.145412,2.11971 -1.502768,3.23488 -2.469409,1.67082 z m 174.183687,0.29723 c -0.28586,-0.46254 0.81258,-1.82601 2.44099,-3.02994 1.6284,-1.20393 2.96073,-1.71585 2.96073,-1.13759 0,0.57826 -1.11089,1.55753 -2.46864,2.17617 -1.35776,0.61863 -2.2312,1.50898 -1.94099,1.97856 0.29022,0.46957 0.30266,0.85377 0.0277,0.85377 -0.275,0 -0.73388,-0.37844 -1.01975,-0.84097 z m -9.59828,-0.53691 c 0,-1.24801 3.2051,-7.75035 3.61716,-7.33829 0.58368,0.58368 -2.25052,7.71617 -3.06613,7.71617 -0.30307,0 -0.55103,-0.17004 -0.55103,-0.37788 z m 4.5,-0.62212 c -0.33992,-0.55 -0.47898,-1.03443 -0.30902,-1.07651 3.29253,-0.81522 3.85271,-0.68106 2.74238,0.6568 -1.401,1.68811 -1.62551,1.72683 -2.43336,0.41971 z m -26.62756,-4.75 c -1.24387,-1.58606 -1.2085,-1.62143 0.37756,-0.37756 0.9625,0.75485 1.75,1.54235 1.75,1.75 0,0.82304 -0.82119,0.29331 -2.12756,-1.37244 z m 15.19095,-1.2 c -0.0435,-2.36804 0.25978,-3.12683 0.96709,-2.41952 0.68236,0.68236 0.70377,1.84787 0.0634,3.45 -0.90871,2.27345 -0.97092,2.21123 -1.03048,-1.03048 z m -4.41273,-0.51797 c -0.30982,-0.80739 -0.13297,-1.73395 0.39301,-2.05902 0.52598,-0.32508 0.95633,0.33551 0.95633,1.46797 0,2.41457 -0.55611,2.65816 -1.34934,0.59105 z m 9.41963,-1.72301 c -0.0387,-1.48004 0.37971,-2.9691 0.92971,-3.30902 1.19384,-0.73784 1.19384,1.22178 0,4 -0.7674,1.78583 -0.86696,1.71184 -0.92971,-0.69098 z m -92.90032,-0.30902 c -0.0162,-1.1 0.35734,-2.9 0.83003,-4 1.09501,-2.54822 1.09501,0.0808 0,3.5 -0.64363,2.00973 -0.8064,2.10779 -0.83003,0.5 z m 9.90898,-1.08333 c 0.048,-1.16495 0.28494,-1.4019 0.60416,-0.60417 0.28887,0.72187 0.25335,1.58437 -0.0789,1.91667 -0.3323,0.33229 -0.56864,-0.25834 -0.52522,-1.3125 z m 66.92105,0.52431 c 0,-0.58246 0.45,-0.7809 1,-0.44098 0.55,0.33992 1,0.81648 1,1.05902 0,0.24254 -0.45,0.44098 -1,0.44098 -0.55,0 -1,-0.47656 -1,-1.05902 z m -81,-1.94098 c 0.5887,-1.1 1.23741,-2 1.44156,-2 0.20416,0 0.13585,0.9 -0.15181,2 -0.28766,1.1 -0.93636,2 -1.44157,2 -0.50746,0 -0.43952,-0.89508 0.15182,-2 z m 8.59866,-3.68864 c -0.89176,-8.4685 -1.06308,-14.18028 -0.44389,-14.79947 0.29842,-0.29841 0.84241,4.0326 1.20887,9.62447 0.72596,11.07769 0.21826,14.51222 -0.76498,5.175 z m -13.1735,2.99761 c 0.13727,-0.9353 0.77557,-1.87588 1.41844,-2.09017 0.64288,-0.21429 0.87153,-0.87071 0.50812,-1.45872 -0.39108,-0.63279 -0.18847,-0.77722 0.49648,-0.3539 0.8121,0.50191 0.85658,1.27693 0.14913,2.59881 -1.39475,2.60612 -2.8733,3.35568 -2.57217,1.30398 z m 23.13913,-0.0158 c -0.54268,-1.4252 -0.42782,-1.54006 0.5598,-0.5598 0.68342,0.67834 0.99067,1.48524 0.68278,1.79313 -0.30789,0.30789 -0.86705,-0.24711 -1.24258,-1.23333 z m 73.76904,0.25086 c 0,-0.80081 0.375,-1.22425 0.83334,-0.94098 0.45833,0.28326 0.83333,0.93847 0.83333,1.45601 0,0.51754 -0.375,0.94098 -0.83333,0.94098 -0.45834,0 -0.83334,-0.65521 -0.83334,-1.45601 z m -68.99619,-2.79403 c -1.15466,-1.84829 -1.30076,-3.84555 -0.23304,-3.18566 0.51069,0.31562 0.68672,0.96511 0.39118,1.4433 -0.29554,0.47819 0.25962,1.33341 1.23369,1.90049 0.97407,0.56708 1.23509,1.04474 0.58005,1.06146 -0.65504,0.0167 -1.54239,-0.53209 -1.97188,-1.21959 z m -31.87482,-1.81096 c -0.45474,-0.73579 -0.3625,-0.99538 0.22472,-0.63246 0.54783,0.33858 2.50563,-0.94189 4.35067,-2.84549 1.84505,-1.9036 2.9716,-3.46109 2.50347,-3.46109 -0.46814,0 -0.16251,-0.7875 0.67916,-1.75 0.84167,-0.9625 1.40092,-2.53964 1.24277,-3.50476 -0.15815,-0.96512 0.0829,-1.52584 0.53561,-1.24603 0.69624,0.4303 0.67609,2.66241 -0.0406,4.50079 -0.10721,0.275 -0.16518,0.7669 -0.12881,1.09312 0.0364,0.32621 -1.88276,2.5058 -4.26474,4.84354 -3.0798,3.02259 -4.5537,3.8899 -5.10222,3.00238 z m 11.03768,-0.93904 c -0.33992,-0.55 -0.14148,-1 0.44098,-1 0.58246,0 1.05902,0.45 1.05902,1 0,0.55 -0.19844,1 -0.44098,1 -0.24254,0 -0.7191,-0.45 -1.05902,-1 z m 3.57895,-1.58333 c 0.048,-1.16495 0.28494,-1.4019 0.60416,-0.60417 0.28887,0.72187 0.25335,1.58437 -0.0789,1.91667 -0.3323,0.33229 -0.56864,-0.25834 -0.52522,-1.3125 z m 9.54459,0.0447 c -0.34295,-0.8937 -0.59502,-2.15061 -0.56015,-2.79313 0.0349,-0.64251 0.49453,-0.0904 1.02148,1.22697 0.52695,1.31735 0.77902,2.57426 0.56015,2.79313 -0.21887,0.21887 -0.67854,-0.33327 -1.02148,-1.22697 z m -16.62354,0.14562 c 0,-0.21616 0.69837,-0.661 1.55194,-0.98855 0.88992,-0.34149 1.29132,-0.17385 0.94098,0.39301 -0.58726,0.95021 -2.49292,1.40545 -2.49292,0.59554 z m 20.51008,-0.59068 c -0.34546,-0.55897 -0.26406,-1.0232 0.1809,-1.03162 0.44496,-0.008 0.35902,-0.34592 -0.19098,-0.75 -1.31298,-0.96463 -3.86863,-4.23469 -3.30954,-4.23469 1.28593,0 5.83036,5.8691 4.96064,6.40662 -0.5571,0.3443 -1.29556,0.16866 -1.64102,-0.39031 z m -15.45735,-2.655 c 0.55177,-1.45128 0.80672,-2.83519 0.56655,-3.07536 -0.24017,-0.24017 -0.73308,0.49724 -1.09536,1.63869 -0.36228,1.14145 -1.08874,2.07536 -1.61436,2.07536 -0.52562,0 -0.2315,-1.10521 0.65358,-2.45602 0.88509,-1.35082 1.31891,-2.92582 0.96404,-3.5 -0.75448,-1.22078 0.44215,-1.35053 2.19341,-0.23783 0.94057,0.59761 0.95943,1.62648 0.0822,4.48469 -0.6261,2.04004 -1.50173,3.70916 -1.94584,3.70916 -0.44411,0 -0.35602,-1.18741 0.19576,-2.63869 z m -15.99523,0.0694 c 0.64301,-0.77479 1.59806,-1.14359 2.12234,-0.81957 1.16409,0.71945 0.29971,1.70119 -1.76459,2.00417 -1.20466,0.1768 -1.28015,-0.0732 -0.35775,-1.1846 z m 22.6817,-0.32002 c -0.27174,-1.03912 -0.0568,-2.50162 0.4777,-3.25 0.74768,-1.04693 0.84478,-0.96454 0.42111,0.35727 -0.30287,0.94489 -0.12032,1.98395 0.40566,2.30902 1.20186,0.74279 1.2529,2.47301 0.073,2.47301 -0.48585,0 -1.1057,-0.85019 -1.37743,-1.8893 z m 2.2608,-2.61069 c 0,-0.825 0.17686,-1.5 0.39301,-1.5 0.21616,0 0.65203,0.675 0.96862,1.5 0.31658,0.825 0.13972,1.5 -0.39301,1.5 -0.53274,0 -0.96862,-0.675 -0.96862,-1.5 z m -30.404627,-1.65432 c 0.332697,-0.53831 0.855937,-0.72771 1.162757,-0.42089 0.30682,0.30682 1.06435,0.1375 1.6834,-0.37626 0.70369,-0.58401 1.67518,-0.54541 2.59201,0.103 1.23223,0.87148 1.20256,0.95321 -0.18577,0.5117 -0.90873,-0.28898 -1.93426,-0.24341 -2.27895,0.10128 -1.05449,1.05449 -3.618247,1.12448 -2.973447,0.0812 z m 31.404627,-1.84568 c 0,-0.55 0.47656,-1 1.05902,-1 0.58246,0 0.7809,0.45 0.44098,1 -0.33992,0.55 -0.81648,1 -1.05902,1 -0.24254,0 -0.44098,-0.45 -0.44098,-1 z m 17,0 c -1.2819,-0.82843 -1.24555,-0.9716 0.25,-0.98469 0.9625,-0.008 1.75,0.43469 1.75,0.98469 0,1.21961 -0.11279,1.21961 -2,0 z m -28.27679,-3.70536 c -1.07212,-1.07213 -1.72321,-1.26442 -1.72321,-0.50893 0,0.66786 -0.43588,1.21429 -0.96862,1.21429 -0.53273,0 -0.72137,-0.64429 -0.41919,-1.43176 0.30218,-0.78747 1.30056,-1.40239 2.21861,-1.36649 0.91806,0.0359 2.46151,-0.26979 3.42988,-0.67932 1.42996,-0.60474 1.69451,-0.31103 1.40841,1.56368 -0.45284,2.9673 -1.78048,3.37393 -3.94588,1.20853 z m 2.94346,-0.6993 c 0,-0.77256 -0.59742,-1.17541 -1.32759,-0.89521 -0.73018,0.28019 -1.07862,0.91229 -0.77432,1.40465 0.84636,1.36944 2.10191,1.06513 2.10191,-0.50944 z m -23.666667,0.50364 c 0,-0.49557 1.569977,-0.85652 3.488847,-0.80213 2.10844,0.0598 2.99869,0.41021 2.25,0.88571 -1.70084,1.08023 -5.738847,1.02142 -5.738847,-0.0836 z m 32.863147,0.0982 c 0.961,-0.67331 1.02738,-1.11617 0.225,-1.50113 -0.73603,-0.35312 -0.74951,-0.47539 -0.0382,-0.34605 1.53703,0.27946 1.37664,2.02669 -0.225,2.45113 -1.04582,0.27715 -1.03778,0.14989 0.0382,-0.60395 z m -28.51677,-4.33121 c 1.32326,-0.76916 2.15905,-0.76054 2.95,0.0304 0.80483,0.80483 0.30495,1.09539 -1.84638,1.07321 -2.58611,-0.0267 -2.72225,-0.16279 -1.10362,-1.10362 z m 26.14259,-1.58918 c -1.5842,-1.23126 -1.63594,-1.4243 -0.25422,-0.94856 1.14356,0.39374 2.11736,-0.11763 2.85748,-1.50057 0.81429,-1.52151 1.33399,-1.75605 1.89167,-0.85371 0.55173,0.89272 1.96171,0.16655 4.99163,-2.57081 2.32249,-2.09823 4.89434,-3.91354 5.71522,-4.03402 1.59034,-0.23341 1.4725,0.25149 -0.19075,0.78494 -0.55,0.17639 -2.8,2.01786 -5,4.09214 -2.2,2.07428 -4.5625,3.55658 -5.25,3.29399 -0.6875,-0.26258 -1.25,0.1569 -1.25,0.93218 0,2.19138 -1.33343,2.49688 -3.51103,0.80442 z m 12.51103,0.14104 c 0,-1.0332 5.37729,-2.44054 6.19617,-1.62166 0.49399,0.49399 0.31544,0.90785 -0.41284,0.95686 -0.70583,0.0475 -2.29583,0.32167 -3.53333,0.60925 -1.2375,0.28759 -2.25,0.31258 -2.25,0.0555 z m -35.5,-2.41783 c -0.33992,-0.55 -0.14148,-1 0.44098,-1 0.58246,0 1.05902,0.45 1.05902,1 0,0.55 -0.19844,1 -0.44098,1 -0.24254,0 -0.7191,-0.45 -1.05902,-1 z m 33.5,0 c 0.825,-0.53316 1.95,-0.96937 2.5,-0.96937 0.55,0 0.325,0.43621 -0.5,0.96937 -0.825,0.53316 -1.95,0.96937 -2.5,0.96937 -0.55,0 -0.325,-0.43621 0.5,-0.96937 z m -12.5,-2 c 0.33992,-0.55 1.04148,-1 1.55902,-1 0.51754,0 0.94098,0.45 0.94098,1 0,0.55 -0.70156,1 -1.55902,1 -0.85746,0 -1.2809,-0.45 -0.94098,-1 z m -1.83333,-1.66667 c -0.36667,-0.36666 -0.66667,-1.13166 -0.66667,-1.7 0,-0.6266 0.46577,-0.56756 1.18333,0.15 0.65084,0.65084 0.95084,1.41584 0.66667,1.7 -0.28417,0.28417 -0.81667,0.21667 -1.18333,-0.15 z m 9.06666,-0.45742 c 0.67834,-0.68342 1.48524,-0.99067 1.79313,-0.68278 0.30789,0.30789 -0.24711,0.86705 -1.23333,1.24258 -1.4252,0.54268 -1.54006,0.42782 -0.5598,-0.5598 z m 13.68126,-0.0141 c -0.43129,-0.69784 -0.29172,-0.9039 0.34549,-0.51008 0.58801,0.36341 1.29701,0.0954 1.57556,-0.59549 0.3625,-0.89914 0.52891,-0.91769 0.58541,-0.0653 0.11408,1.72088 -1.6556,2.54754 -2.50646,1.17082 z m -18.41459,-1.86181 c 0,-1.1 0.40787,-2 0.90638,-2 0.49851,0 0.67103,0.9 0.38337,2 -0.28766,1.1 -0.69553,2 -0.90638,2 -0.21085,0 -0.38337,-0.9 -0.38337,-2 z m -1.40883,-6.49062 c 0.3062,-3.84484 0.74846,-7.18234 0.98278,-7.41667 0.83766,-0.83766 0.26737,10.44698 -0.62702,12.40729 -0.59899,1.31285 -0.72122,-0.40181 -0.35576,-4.99062 z m 7.40883,6.08168 c 0,-0.19039 0.675,-0.90637 1.5,-1.59106 0.86459,-0.71755 1.5,-0.81474 1.5,-0.22943 0,0.5585 -0.675,1.27447 -1.5,1.59106 -0.825,0.31658 -1.5,0.41982 -1.5,0.22943 z m -5,-4.03204 c 0,-0.85746 0.45,-1.55902 1,-1.55902 0.55,0 1,0.42344 1,0.94098 0,0.51754 -0.45,1.2191 -1,1.55902 -0.55,0.33992 -1,-0.0835 -1,-0.94098 z m -17.45729,-1.48992 c -0.31644,-0.512 -0.11799,-1.21356 0.44098,-1.55902 0.55897,-0.34546 1.01631,0.0734 1.01631,0.9309 0,1.75653 -0.60006,2.01516 -1.45729,0.62812 z m 22.02158,-0.36223 c 0.37553,-0.98622 0.93469,-1.54122 1.24258,-1.23333 0.30789,0.30789 6.4e-4,1.11479 -0.68278,1.79313 -0.98762,0.98026 -1.10248,0.8654 -0.5598,-0.5598 z m -23.21257,-2.46695 c 0.36341,-0.588 0.0954,-1.29701 -0.59549,-1.57556 -0.89914,-0.3625 -0.91769,-0.52891 -0.0653,-0.58541 1.72088,-0.11408 2.54754,1.6556 1.17082,2.50646 -0.69784,0.43129 -0.9039,0.29173 -0.51008,-0.34549 z m 11.84323,-2.73992 c 0.0204,-1.65 0.2445,-2.20394 0.49804,-1.23097 0.25354,0.97297 0.23687,2.32297 -0.0371,3 -0.27388,0.67703 -0.48132,-0.11903 -0.46094,-1.76903 z m -6.116,-0.0833 c 0.048,-1.16494 0.28494,-1.4019 0.60416,-0.60417 0.28887,0.72188 0.25335,1.58438 -0.0789,1.91667 -0.3323,0.33229 -0.56864,-0.25833 -0.52522,-1.3125 z m 14.48534,0.2902 c 0.37553,-0.98622 0.93469,-1.54122 1.24258,-1.23333 0.30789,0.30789 6.4e-4,1.1148 -0.68278,1.79313 -0.98762,0.98027 -1.10248,0.8654 -0.5598,-0.5598 z"
             id="path1380"
             inkscape:connector-curvature="0" />
        </g>
      </g>
    </g>
  </g>
</svg>
