<?xml version="1.0" encoding="UTF-8" standalone="no"?>
<!-- Created with Inkscape (http://www.inkscape.org/) -->

<svg
   xmlns:dc="http://purl.org/dc/elements/1.1/"
   xmlns:cc="http://creativecommons.org/ns#"
   xmlns:rdf="http://www.w3.org/1999/02/22-rdf-syntax-ns#"
   xmlns:svg="http://www.w3.org/2000/svg"
   xmlns="http://www.w3.org/2000/svg"
   xmlns:sodipodi="http://sodipodi.sourceforge.net/DTD/sodipodi-0.dtd"
   xmlns:inkscape="http://www.inkscape.org/namespaces/inkscape"
   version="1.1"
   id="svg2949"
   width="283"
   height="443"
   viewBox="0 0 283 443"
   sodipodi:docname="feu101.svg"
   inkscape:version="0.92.4 (5da689c313, 2019-01-14)">
  <metadata
     id="metadata2955">
    <rdf:RDF>
      <cc:Work
         rdf:about="">
        <dc:format>image/svg+xml</dc:format>
        <dc:type
           rdf:resource="http://purl.org/dc/dcmitype/StillImage" />
        <dc:title></dc:title>
      </cc:Work>
    </rdf:RDF>
  </metadata>
  <defs
     id="defs2953" />
  <sodipodi:namedview
     pagecolor="#ffffff"
     bordercolor="#666666"
     borderopacity="1"
     objecttolerance="10"
     gridtolerance="10"
     guidetolerance="10"
     inkscape:pageopacity="0"
     inkscape:pageshadow="2"
     inkscape:window-width="1280"
     inkscape:window-height="972"
     id="namedview2951"
     showgrid="false"
     inkscape:zoom="1.5067919"
     inkscape:cx="151.7376"
     inkscape:cy="221.5"
     inkscape:window-x="-8"
     inkscape:window-y="-8"
     inkscape:window-maximized="1"
     inkscape:current-layer="g180"
     showguides="true" />
  <g
     id="g151"
     transform="translate(25.882805,-2.654647)">
    <g
       id="g180"
       transform="translate(23.228158,-38.492376)">
      <path
         style="fill:#ffffff"
         d="m 127.84943,407.13514 c -1.31884,-1.31884 -0.63587,-6.874 1.33532,-10.86128 l 1.97748,-4 -0.57854,6.47251 c -0.59968,6.70909 -1.5373,9.58573 -2.73426,8.38877 z m 10.49641,-1.08327 c -1.54216,-3.01541 -2.07515,-7.61443 -1.30703,-11.27801 0.69719,-3.32527 0.79223,-3.39292 1.90382,-1.35516 1.70427,3.12427 2.69256,12.94024 1.38425,13.74882 -0.58944,0.3643 -1.48091,-0.13775 -1.98104,-1.11565 z m -23.19102,-3.14315 c 0,-2.0173 9.59592,-12.87228 10.54247,-11.92573 0.97402,0.97403 -7.41429,12.79087 -9.07973,12.79087 -0.80451,0 -1.46274,-0.38931 -1.46274,-0.86514 z m 34.41177,-1.29733 c -2.53926,-2.8424 -6.77946,-9.80422 -6.27584,-10.30405 1.3567,-1.34647 9.18349,8.61901 8.68628,11.05983 -0.26194,1.28588 -0.71282,1.14451 -2.41044,-0.75578 z m -24.34956,-2.83753 c 7.7e-4,-1.375 0.69176,-3.4 1.53553,-4.5 1.45971,-1.90296 1.50014,-1.85445 0.83325,1 -1.08108,4.62735 -2.37047,6.53249 -2.36878,3.5 z m -63.009633,-4.75 c -0.57278,-2.0625 -1.01056,-5.775 -0.97284,-8.25 l 0.0686,-4.5 1.85167,4 c 1.96102,4.23622 2.6532,12.5 1.047,12.5 -0.52414,0 -1.42163,-1.6875 -1.99442,-3.75 z m 70.947423,1.30902 c 0,-1.34254 0.45,-2.7191 1,-3.05902 0.58342,-0.36058 1,0.65628 1,2.44098 0,1.68246 -0.45,3.05902 -1,3.05902 -0.55,0 -1,-1.09844 -1,-2.44098 z m -25,-0.0169 c 0,-1.824 8.35044,-6.80728 11.87486,-7.08654 1.44383,-0.1144 3.41774,-0.53882 4.38648,-0.94315 2.90581,-1.21282 1.12458,1.70273 -2.58888,4.23754 -4.08373,2.78756 -5.06082,2.84418 -3.65193,0.21163 0.82672,-1.54473 -0.10181,-1.18148 -3.83424,1.5 -5.49368,3.94685 -6.18629,4.17978 -6.18629,2.08055 z m 33.04584,-0.4565 c -0.6143,-1.14781 -0.69884,-2.08562 -0.18801,-2.08562 1.02776,0 2.44663,3.02888 1.74673,3.72877 -0.24339,0.24339 -0.94481,-0.49602 -1.55872,-1.64312 z m -90.045843,-2.61774 c 0,-1.94266 0.7737,-5.20516 1.71932,-7.25 l 1.71933,-3.71788 0.32775,4.56108 c 0.3494,4.86242 -1.05095,9.93892 -2.74165,9.93892 -0.56361,0 -1.02475,-1.58945 -1.02475,-3.53212 z m 18.40287,-4.09159 c -1.36789,-3.09303 -2.33765,-6.07194 -2.15503,-6.6198 0.53476,-1.60429 5.72645,5.86495 6.39296,9.1975 1.02181,5.10904 -1.52304,3.56115 -4.23793,-2.5777 z m 86.072953,3.63091 c -4.97024,-2.34335 -9.16043,-5.65592 -8.27472,-6.54163 0.96515,-0.96515 11.7937,4.35731 12.47452,6.13149 0.89852,2.3415 0.0685,2.42255 -4.1998,0.41014 z m -8.88386,-1.5072 c -0.90094,-1.375 -1.38686,-2.5 -1.07983,-2.5 1.13884,0 5.48787,3.26106 5.48787,4.11501 0,1.82833 -2.83164,0.79088 -4.40804,-1.61501 z M 42.215061,388.09783 c 0.586846,-1.55318 2.243058,-4.05678 3.680472,-5.56354 2.685557,-2.81512 2.511898,-5.0449 -0.21655,-2.78049 -1.255183,1.04171 -1.524166,0.98863 -1.524166,-0.30079 0,-0.86116 1.000128,-2.26626 2.222506,-3.12245 2.872366,-2.01188 4.391088,-2.00096 2.714241,0.0195 -1.016439,1.22473 -1.03698,1.7438 -0.09212,2.32775 1.625464,1.0046 -3.767868,11.45757 -6.148182,11.91597 -1.473475,0.28377 -1.559282,-0.0529 -0.636201,-2.49597 z m 71.412749,-0.36768 c -0.63088,-1.02078 2.69746,-2.95629 5.08371,-2.95629 1.32898,0 1.44239,0.29617 0.53299,1.39194 -1.4444,1.74038 -4.91116,2.70594 -5.6167,1.56435 z m -37.358333,-4.33946 c -2.44108,-2.48728 -3.85832,-4.65722 -3.27658,-5.01676 0.9824,-0.60715 10.161915,7.25051 10.161915,8.69859 0,1.87673 -3.00933,0.26754 -6.885335,-3.68183 z m 28.416353,2.43334 c -0.88939,-1.43906 2.37361,-2.73937 8.21899,-3.27527 6.27055,-0.57488 6.73518,0.41369 1.22976,2.61652 -4.50877,1.80405 -8.56609,2.08692 -9.44875,0.65875 z m 29.92229,-1.43966 c -1.12569,-0.50033 -2.57134,-2.02139 -3.21256,-3.38013 -1.00218,-2.12361 -0.86879,-2.71098 0.95018,-4.18389 2.68641,-2.17533 7.10601,-0.61046 6.22327,2.20351 -0.33016,1.05249 -0.0239,1.76268 0.76842,1.7818 0.94986,0.0229 0.87443,0.37166 -0.27038,1.25 -0.87327,0.67001 -1.77327,1.67275 -2,2.22831 -0.26166,0.64115 -1.1598,0.67783 -2.45893,0.1004 z m -77.453303,-2.49248 c 0,-1.1 0.45,-2.27811 1,-2.61803 0.55,-0.33992 1,0.28197 1,1.38197 0,1.1 -0.45,2.27811 -1,2.61803 -0.55,0.33992 -1,-0.28197 -1,-1.38197 z m 6.16292,-0.54048 c -1.39808,-3.28297 -0.76097,-6.5756 0.9427,-4.87193 0.57204,0.57204 0.87397,2.55979 0.67096,4.41722 l -0.36911,3.37716 z m 83.837083,1.42245 c -1.14137,-0.73761 -0.73709,-0.97304 1.69098,-0.98469 1.75504,-0.008 3.4691,0.43469 3.80902,0.98469 0.79212,1.28168 -3.51674,1.28168 -5.5,0 z M 35.154817,381.25502 c 0,-1.43424 6.992885,-6.48116 8.980128,-6.48116 1.980211,0 0.981177,1.92683 -2.230128,4.30123 -4.395065,3.24965 -6.75,4.01019 -6.75,2.17993 z m 16.0318,0.95997 c -0.0175,-0.58238 0.62889,-1.93238 1.4364,-3 0.8075,-1.06762 1.4825,-1.46464 1.5,-0.88226 0.0175,0.58238 -0.62889,1.93238 -1.4364,3 -0.8075,1.06762 -1.4825,1.46464 -1.5,0.88226 z m 17.35579,-2.97234 c -0.91218,-1.39216 -1.3838,-2.80591 -1.04805,-3.14166 0.62491,-0.62492 4.56714,3.56923 4.62719,4.92287 0.073,1.64511 -2.01496,0.60602 -3.57914,-1.78121 z m 46.612413,0.53121 c 0,-0.55 2.475,-1 5.5,-1 3.025,0 5.5,0.45 5.5,1 0,0.55 -2.475,1 -5.5,1 -3.025,0 -5.5,-0.45 -5.5,-1 z m 34,0.11663 c 0,-1.24248 3.6908,-2.08697 9.19098,-2.10298 4.77414,-0.0139 7.07756,1.28559 4.22149,2.38157 -2.44841,0.93954 -13.41247,0.71181 -13.41247,-0.27859 z M 81.308652,376.729 c -4.39679,-1.56154 -5.245865,-1.63736 -4.781385,-0.42693 0.694155,1.80896 -0.30449,1.83933 -2.62245,0.0797 -2.11848,-1.60815 -2.30813,-3.0361 -0.30093,-2.26587 0.96852,0.37166 1.26467,0.0755 0.89301,-0.89301 -0.81894,-2.13412 1.79191,-1.80684 8.202455,1.02821 3.13295,1.38554 5.32302,2.928 4.9695,3.5 -0.34764,0.5625 -0.71802,0.98984 -0.82306,0.94965 -0.10504,-0.0402 -2.59675,-0.92749 -5.53714,-1.97179 z m 64.846168,0.0449 c 0,-0.55 1.37656,-1 3.05902,-1 1.7847,0 2.80156,0.41658 2.44098,1 -0.33992,0.55 -1.71648,1 -3.05902,1 -1.34254,0 -2.44098,-0.45 -2.44098,-1 z m -31.5,-0.68465 c -6.50304,-0.56647 -8.5,-1.25906 -8.5,-2.94795 0,-1.33171 0.78281,-1.48155 4.75,-0.90918 2.6125,0.37692 5.76759,0.92807 7.0113,1.22479 1.77862,0.42432 2.12933,0.19555 1.64302,-1.07176 -0.77845,-2.02861 0.83059,-2.05825 4.64534,-0.0856 3.86373,1.99801 3.74446,2.8605 -0.29966,2.16699 -1.7875,-0.30654 -2.6875,-0.32529 -2,-0.0417 0.6875,0.28362 1.25,0.92817 1.25,1.43233 0,0.90409 -0.59761,0.9204 -8.5,0.23202 z m 33.5,-2.20451 c 0,-0.57644 -0.675,-0.78905 -1.5,-0.47247 -1.93828,0.74379 -1.90961,-0.0859 0.0714,-2.06694 1.98872,-1.98872 3.54282,-2.03274 2.79315,-0.0791 -0.42417,1.10537 0.89699,0.81948 5.09542,-1.10263 5.49838,-2.51724 7.44376,-2.66101 6.07672,-0.4491 -1.61675,2.61598 -12.53669,6.24843 -12.53669,4.17024 z M 42.154817,372.74911 c 0,-0.97482 4.077904,-2.97525 6.0651,-2.97525 2.142821,0 0.704968,1.8845 -2.214323,2.90217 -3.846178,1.34079 -3.850777,1.34088 -3.850777,0.0731 z m -11,-0.5 c 0,-0.64109 3.459021,-1.95279 7.5,-2.84409 l 3,-0.6617 -2.360784,2.01527 c -2.080603,1.7761 -8.139216,2.8856 -8.139216,1.49052 z m 27.08048,-1.62315 c -1.83051,-0.69079 -2.13813,-1.19445 -1.26365,-2.06893 0.87448,-0.87448 0.7563,-1.59737 -0.48547,-2.96952 -1.52999,-1.69062 -1.51211,-1.82331 0.26365,-1.95605 1.04775,-0.0783 3.39428,-0.26523 5.21453,-0.41535 3.27063,-0.26973 3.29121,-0.24495 1.75,2.10722 -0.85775,1.30909 -1.55954,3.04444 -1.55954,3.85633 0,2.08532 -1.12559,2.50067 -3.91952,1.4463 z m 13.91952,-0.8521 c -1.5437,-0.99762 -0.97227,-1.26734 2.5,-1.18001 1.7593,0.0442 1.78055,-0.0126 0.17657,-0.47231 -1.06356,-0.30483 -1.59754,-1.11124 -1.28138,-1.93514 0.33072,-0.86184 -0.0955,-1.41254 -1.09324,-1.41254 -0.89941,0 -1.35671,-0.27857 -1.01624,-0.61905 0.34048,-0.34047 -0.0345,-1.27262 -0.83333,-2.07143 -2.11184,-2.11183 -1.81095,-3.07274 1.49796,-4.78384 3.68327,-1.90469 4.41343,-1.91603 3.70022,-0.0575 -0.45363,1.18215 0.40957,1.08472 4.430035,-0.5 6.34639,-2.50151 7.27791,-2.50663 5.95391,-0.0327 -0.56972,1.06453 -2.56769,2.48943 -4.43993,3.16644 -2.00039,0.72335 -3.20689,1.74476 -2.9259,2.47702 0.26299,0.68535 -0.34237,1.45825 -1.34525,1.71755 -1.002885,0.25931 0.96251,0.52367 4.36755,0.58747 5.58983,0.10474 8.47626,1.28211 6.93114,2.82721 -0.31798,0.31798 -2.82971,0.7945 -5.58162,1.05892 -2.75191,0.26442 -4.76024,0.87432 -4.46297,1.35532 0.73433,1.18821 -4.705375,1.08446 -6.577525,-0.12541 z m 50.315373,-0.007 c -1.20154,-0.48411 -2.69145,-1.82722 -3.3109,-2.98467 -0.7689,-1.43671 -1.72224,-1.91531 -3.00447,-1.50835 -1.27267,0.40393 -2.23157,-0.0642 -2.97428,-1.45194 -1.55282,-2.90147 1.06691,-2.73674 5.6139,0.35302 2.83758,1.92819 7.43183,6.79692 6.16708,6.53553 -0.16868,-0.0349 -1.28978,-0.45948 -2.49133,-0.94359 z m 18.73175,0.507 c -0.0245,-1.48594 1.76048,-4.02573 2.38817,-3.39804 0.29923,0.29922 -0.11199,1.41119 -0.91382,2.47104 -0.80182,1.05985 -1.46528,1.477 -1.47435,0.927 z m -16.87281,-2.81445 c -2.54837,-2.71262 -2.73315,-3.68555 -0.69999,-3.68555 0.81088,0 2.17243,1.35 3.02568,3 1.84782,3.5733 0.70397,3.91047 -2.32569,0.68555 z m 11.93601,0.81445 c 0.048,-3.17612 1.43004,-6.05273 2.26154,-4.70734 0.39427,0.63795 0.0399,2.40809 -0.78746,3.93363 -1.23501,2.27714 -1.49891,2.41566 -1.47408,0.77371 z m -93.360323,-0.18933 c -0.9625,-0.25152 -1.75,-0.9065 -1.75,-1.4555 0,-0.57661 -2.174182,-0.8624 -5.147968,-0.67668 -3.464917,0.2164 -5.290303,-0.0872 -5.583333,-0.92849 -0.537591,-1.5435 9.283557,-1.78348 10.231301,-0.25 0.339919,0.55 2.616476,1 5.059017,1 4.70498,0 5.961673,1.35921 2.190983,2.36971 -1.2375,0.33164 -2.475,0.55692 -2.75,0.50063 -0.275,-0.0563 -1.2875,-0.30814 -2.25,-0.55967 z m 86.916673,0.0227 c -0.98786,-0.98789 -0.80874,-5.33337 0.21983,-5.33337 0.48758,0 1.08464,1.35 1.32681,3 0.42362,2.88635 -0.14132,3.73865 -1.54664,2.33333 z m 2.96067,-1.59458 c -0.33001,-1.23131 -0.59186,-4.48875 -0.58188,-7.23875 0.0167,-4.61267 0.13188,-4.84963 1.48634,-3.05887 1.59215,2.105 2.02847,11.09457 0.58189,11.98861 -0.48747,0.30127 -1.15633,-0.45967 -1.48635,-1.69099 z m 14.05662,0.36179 c 0.72327,-2.76583 6.31604,-7.95864 6.31604,-5.8644 0,1.73828 -4.65297,7.76382 -5.99527,7.76382 -0.44962,0 -0.59397,-0.85476 -0.32077,-1.89946 z m -6.65069,-0.40772 c -0.0888,-2.15326 2.31128,-9.69286 3.08544,-9.69286 1.65536,0 0.88541,5.77348 -1.08544,8.13922 -1.0817,1.29843 -1.9817,1.99755 -2,1.5536 z m -16.06578,-5.24542 c -1.20759,-1.95393 -1.88101,-3.86643 -1.49649,-4.25 0.89255,-0.89032 5.529,4.44162 5.529,6.35836 0,2.49633 -1.75316,1.57971 -4.03251,-2.10836 z m -86.732854,0.49256 c -2.345948,-0.4625 -4.715789,-1.11929 -5.266312,-1.45953 -1.50522,-0.93028 -0.215131,-2.34142 1.782669,-1.94995 0.961952,0.1885 3.308716,0.60445 5.215031,0.92433 3.202023,0.5373 3.316396,0.47219 1.501572,-0.85484 -1.08045,-0.79005 -1.680761,-1.72014 -1.334026,-2.06688 0.991386,-0.99138 5.124103,0.37112 7.866427,2.59345 l 2.5,2.02597 -2.658705,-0.42013 c -1.925383,-0.30425 -2.516466,-0.0495 -2.143011,0.92374 0.580361,1.5124 -0.938933,1.57018 -7.463645,0.28384 z m 8.433425,-5.47089 c -2.107564,-1.21244 -4.566493,-2.93897 -5.464285,-3.83676 -1.5098,-1.5098 -1.476236,-1.63235 0.447077,-1.63235 1.143684,0 3.319342,0.97532 4.834795,2.16737 l 2.755369,2.16738 -0.715138,-2.2532 c -0.643184,-2.0265 -0.509545,-2.14317 1.328205,-1.15964 1.894129,1.01371 5.146833,4.83878 5.145203,6.0506 -0.002,1.35924 -4.887588,0.47756 -8.331226,-1.50344 z m 23.331936,0.57726 c 0,-1.46985 9.842575,-11.53713 10.569205,-10.81049 0.93598,0.93598 -1.54067,4.86576 -4.843555,7.68543 -4.11192,3.51033 -5.72565,4.39111 -5.72565,3.12506 z m -2.96404,-0.76499 c -0.0198,-0.67023 -0.69212,-0.96682 -1.49409,-0.65907 -1.64216,0.63015 -3.03037,-3.25884 -2.24643,-6.29322 0.26131,-1.01144 0.55383,-0.2645 0.65437,1.67091 0.17144,3.30026 0.26509,3.19025 1.64096,-1.92761 1.63436,-6.07937 3.2572,-8.62442 4.62629,-7.25533 0.53577,0.53577 0.12602,3.19986 -1.00947,6.5633 -1.84489,5.46476 -1.84675,5.60306 -0.0533,3.98002 2.83984,-2.57001 3.05946,-1.15204 0.33744,2.1787 -1.33088,1.62851 -2.43597,2.41254 -2.45575,1.7423 z m -8.12052,-1.03954 c -1.6715,-0.34258 -5.50188,-7.24184 -4.02058,-7.24184 0.47437,0 1.44703,1.41118 2.16145,3.13595 1.2764,3.0815 1.31377,3.09592 2.15181,0.83049 0.56856,-1.53698 1.18618,-1.97214 1.85285,-1.30547 1.4211,1.4211 -0.2416,4.97108 -2.14553,4.58087 z m -8.788805,-5.09059 c -3.897809,-4.6555 -5.267901,-8.15125 -3.194729,-8.15125 1.663748,0 8.798694,11.60274 7.768464,12.63296 -0.2459,0.24591 -2.30409,-1.77086 -4.573735,-4.48171 z m 9.110865,-3.31375 c -1.4693,-1.4693 -1.66128,-5.8375 -0.25655,-5.8375 1.08838,0 2.41872,4.30098 1.85419,5.99459 -0.24386,0.73157 -0.7597,0.68085 -1.59764,-0.15709 z m 124.149823,-9.27054 c -0.5372,-1.39992 0.10454,-3.93802 3.05101,-12.06696 0.71206,-1.96445 0.69701,-1.96575 -0.84636,-0.073 -2.35539,2.88858 -2.98546,1.22612 -0.97937,-2.58407 l 1.76008,-3.34293 0.92171,3.78681 c 1.73941,7.14637 -1.75022,19.90081 -3.90707,14.28015 z m 11.04821,-2.31696 c -0.33142,-1.5125 -0.73603,-3.20868 -0.89914,-3.76929 -0.1631,-0.56061 0.0292,-2.81061 0.42743,-5 0.71142,-3.9116 0.74242,-3.93616 1.78543,-1.41456 1.76417,4.26506 1.945,12.93385 0.2698,12.93385 -0.53952,0 -1.2521,-1.2375 -1.58352,-2.75 z M 42.696808,333.0224 c -0.775495,-4.59012 1.033411,-10.53367 2.500112,-8.21466 1.435286,2.26935 1.135465,9.57386 -0.446871,10.88708 -1.153164,0.95705 -1.520915,0.47839 -2.053241,-2.67242 z m 8.052011,-1.92668 c -1.846019,-5.41777 -2.035502,-8.32186 -0.542975,-8.32186 1.171123,0 3.703593,5.5231 4.609603,10.05316 1.00874,5.04367 -2.22764,3.66584 -4.066628,-1.7313 z m 121.124711,4.06352 c -1.08024,-1.08024 5.82444,-10.38538 7.70626,-10.38538 0.7962,0 -0.54832,3.12986 -3.11446,7.25 -2.27918,3.65941 -3.34203,4.38515 -4.5918,3.13538 z M 34.154817,332.2941 c 0,-2.39577 3.143877,-9.54935 3.971875,-9.03762 0.709429,0.43845 0.546819,2.87563 -0.551603,8.26738 -0.504843,2.47809 -3.420272,3.13464 -3.420272,0.77024 z m 170.771503,-1.27024 c -2.29607,-2.61176 -5.94268,-10.23646 -5.51268,-11.52647 0.53523,-1.60568 8.74118,9.06463 8.74118,11.36627 0,2.38121 -1.22261,2.44188 -3.2285,0.1602 z M 25.154817,330.72734 c 0,-1.3555 7.10639,-10.18042 7.711033,-9.57578 0.839629,0.83963 -3.752858,8.57432 -5.714299,9.62405 -1.441656,0.77155 -1.996734,0.75813 -1.996734,-0.0483 z m 94.060313,-1.29485 c -1.59931,-4.20651 -2.37439,-11.65863 -1.21259,-11.65863 1.10554,0 4.15228,8.93819 4.15228,12.1815 0,2.58735 -1.88464,2.25213 -2.93969,-0.52287 z m -59.554733,-1.06214 c -2.87513,-2.87513 -5.99891,-9.44015 -4.97452,-10.45458 0.87059,-0.86213 5.28139,4.54314 7.11255,8.71618 1.91515,4.36443 1.12801,5.00444 -2.13803,1.7384 z m 49.228943,0.15351 c -0.2637,-0.6875 0.31699,-3.725 1.29042,-6.75 1.79477,-5.57733 2.30543,-5.32445 2.01941,1 -0.27711,6.12762 -2.01017,9.13837 -3.30983,5.75 z m 58.26548,-0.67208 c 0,-1.44526 8.18011,-8.08058 9.93,-8.05474 0.97563,0.0144 -0.20622,1.71802 -3.12179,4.5 -4.51358,4.30678 -6.80821,5.50486 -6.80821,3.55474 z m -69.187988,-0.59924 c -1.15687,-1.15687 0.52044,-5.27827 3.672018,-9.02271 4.09076,-4.86028 5.33681,-4.08355 2.74471,1.71092 -1.93712,4.3303 -5.424448,8.30407 -6.416728,7.31179 z m 91.269208,-2.64689 c -0.0961,-4.34105 0.77494,-7.03872 2.02356,-6.26703 1.2573,0.77705 1.04051,3.42093 -0.56867,6.93524 l -1.37367,3 -0.0812,-3.66821 z m -60.74086,0.25275 c -1.67309,-1.95403 -4.54009,-9.21814 -3.89344,-9.86479 0.60523,-0.60523 7.55308,8.98354 7.55308,10.42405 0,1.94037 -1.74813,1.67322 -3.65964,-0.55926 z m 80.90964,-1.66811 c -1.7875,-1.40876 -3.25,-2.95536 -3.25,-3.43689 0,-1.16125 6.03103,0.8981 8.25,2.81705 4.42492,3.82663 -0.20312,4.40036 -5,0.61984 z M 20.154817,321.86275 c 0,-1.06965 5.766114,-6.08889 6.994938,-6.08889 0.462818,0 1.634305,-0.30423 2.603305,-0.67607 1.64928,-0.63289 1.658021,-0.52789 0.136853,1.64389 -2.851848,4.07158 -9.735096,7.69246 -9.735096,5.12107 z m 21.040038,-1.77987 c -0.04085,-3.2556 1.328822,-5.13924 2.435225,-3.34904 0.337403,0.54592 -0.06349,2.24077 -0.890864,3.76631 l -1.504324,2.77371 z m 138.959965,0.19098 c 1.29175,-1.375 2.50556,-2.5 2.69737,-2.5 0.1918,0 -0.38839,1.125 -1.28933,2.5 -0.90093,1.375 -2.11475,2.5 -2.69736,2.5 -0.58262,0 -0.002,-1.125 1.28932,-2.5 z M 45.728989,319.47729 c -0.447901,-1.53811 -0.535321,-3.07561 -0.194268,-3.41667 1.119339,-1.11934 1.777617,0.47794 1.389609,3.37182 l -0.380976,2.84142 z m 18.758388,-0.76787 c -3.77542,-1.86882 -6.52386,-4.93556 -4.4233,-4.93556 1.97958,0 7.777,2.99584 9.51603,4.91745 2.5005,2.76302 0.4672,2.77025 -5.09273,0.0181 z m 106.940513,0.73575 c 0.54486,-1.64788 5.46191,-4.26966 6.34723,-3.38434 0.83195,0.83195 -2.20477,3.3409 -4.9274,4.07104 -1.09387,0.29335 -1.65426,0.0223 -1.41983,-0.6867 z m -80.827128,-0.75879 c -0.88022,-1.4242 1.22026,-3.63259 6.26951,-6.59165 4.992598,-2.92586 6.173698,-2.60751 3.794968,1.02288 -2.611688,3.98595 -8.894298,7.46217 -10.064478,5.56877 z m 71.080378,0.13007 c -0.85392,-1.38167 4.21283,-3.73097 9.87924,-4.5807 6.37665,-0.95624 5.43854,0.70445 -1.96208,3.47337 -6.24178,2.33535 -7.08529,2.45333 -7.91716,1.10733 z M 37.154817,317.83288 c 0,-0.51754 0.45,-1.2191 1,-1.55902 0.55,-0.33992 1,0.0835 1,0.94098 0,0.85746 -0.45,1.55902 -1,1.55902 -0.55,0 -1,-0.42344 -1,-0.94098 z m 12.650663,-0.52699 c -0.891685,-2.3237 1.130787,-2.80891 2.334347,-0.56004 0.85486,1.59733 0.78205,2.02801 -0.34284,2.02801 -0.785505,0 -1.681684,-0.66059 -1.991507,-1.46797 z m 87.34934,0.74192 c -0.825,-0.31248 -3.02372,-1.89196 -4.88604,-3.50994 -2.38233,-2.06977 -3.60486,-2.58776 -4.12421,-1.74743 -0.54975,0.88952 -1.40838,0.75523 -3.36396,-0.52611 -1.44418,-0.94627 -2.62579,-2.11874 -2.62579,-2.60548 0,-1.26034 2.38953,-1.09546 3.74327,0.25828 0.6288,0.6288 2.4063,1.24533 3.95,1.37008 3.98745,0.32221 12.30673,4.4436 12.30673,6.09678 0,1.40587 -2.25165,1.70481 -5,0.66382 z M 32.154817,316.8963 c 0,-1.27875 2.940377,-3.5154 3.666667,-2.78911 0.726289,0.72629 -1.510358,3.66667 -2.789112,3.66667 -0.482655,0 -0.877555,-0.3949 -0.877555,-0.87756 z m 22.5,-2.12244 c -0.99549,-1.1 -1.35998,-2 -0.80998,-2 0.55,0 1.81449,0.9 2.80998,2 0.99549,1.1 1.35998,2 0.80998,2 -0.55,0 -1.81449,-0.9 -2.80998,-2 z m 60.166673,1.33333 c -1.05343,-1.05343 -0.77555,-6.33333 0.33333,-6.33333 0.55,0 1,1.575 1,3.5 0,3.59671 -0.18239,3.98428 -1.33333,2.83333 z m 88.08333,-0.9053 c -2.40407,-1.30423 -3.76726,-3.42803 -2.20034,-3.42803 1.39217,0 6.45034,3.15682 6.45034,4.02568 0,1.31294 -0.98305,1.1747 -4.25,-0.59765 z m -93.7182,-0.9869 c -0.0175,-1.13238 0.62889,-2.93238 1.4364,-4 1.44425,-1.90947 1.46871,-1.90755 1.5,0.11774 0.0175,1.13238 -0.62889,2.93238 -1.4364,4 -1.44425,1.90947 -1.46871,1.90755 -1.5,-0.11774 z m 10.1682,0.35887 c -1.46583,-1.46583 -1.58756,-4.8 -0.17525,-4.8 0.84392,0 2.97525,3.98658 2.97525,5.5651 0,0.85624 -1.62182,0.41308 -2.8,-0.7651 z m 92.12177,-0.12608 c -4.39217,-1.6223 -5.16156,-2.67392 -1.95632,-2.67392 2.7649,0 9.63455,2.4592 9.63455,3.44897 0,0.91045 -4.28638,0.47778 -7.67823,-0.77505 z m -194.321773,-0.5941 c 0,-1.63874 6.641176,-4.25819 9.853053,-3.8863 l 2.646947,0.30648 -2.644229,1.79571 c -3.336641,2.26592 -9.855771,3.44603 -9.855771,1.78411 z m 170.327803,-3.64989 c -0.17834,-3.3527 1.09066,-4.31173 6.33932,-4.79088 1.71491,-0.15656 1.98551,0.1415 1.2968,1.42836 -0.54103,1.01093 -0.44031,2.0562 0.26622,2.76273 1.49134,1.49134 0.98686,1.8871 -3.75868,2.94871 l -3.97146,0.88844 z m -157.327803,1.69753 c 0,-1.23693 4.766034,-2.69476 5.713237,-1.74756 0.869109,0.86911 0.201775,1.35234 -2.965287,2.14722 -1.737649,0.43613 -2.74795,0.28919 -2.74795,-0.39966 z m 74.000003,-0.54413 c 0,-1.80589 3.44922,-5.58333 5.0982,-5.58333 1.26709,0 -2.4672,6.28967 -4.04693,6.81624 -0.5782,0.19274 -1.05127,-0.36207 -1.05127,-1.23291 z m 67,0.5333 c 0,-1.17553 3.67856,-2.10518 8,-2.02176 l 3.5,0.0676 -3,1.37367 c -3.40561,1.55941 -8.5,1.90733 -8.5,0.58052 z M 44.710964,310.99667 c -0.397548,-0.39754 -1.247814,-0.72397 -1.88948,-0.7254 -0.641667,-0.001 -1.172406,-0.75716 -1.179421,-1.67942 -0.007,-0.92226 -0.344515,-2.00859 -0.75,-2.41408 -1.247113,-1.24711 -0.816616,-3.40391 0.679421,-3.40391 0.779166,0 1.650897,-0.5625 1.937178,-1.25 0.377815,-0.90731 0.914126,-0.76548 1.956278,0.51737 0.847102,1.04275 2.10286,1.51138 3.062822,1.14301 1.888295,-0.7246 2.158154,0.65852 0.459838,2.35684 -0.889624,0.88962 -0.770711,1.31937 0.5,1.80699 2.230187,0.8558 2.159757,3.63254 -0.08278,3.26361 -0.9625,-0.15835 -2.249734,0.0261 -2.86052,0.40995 -0.610786,0.38382 -1.435786,0.37259 -1.833333,-0.025 z m 11.110523,0.11052 c -1.35961,-1.3596 -0.59454,-2.33333 1.83333,-2.33333 1.55556,0 2.5,0.56667 2.5,1.5 0,1.4999 -3.07536,2.09131 -4.33333,0.83333 z m 107.083333,-1.03413 c -2.17885,-0.55511 -2.26218,-1.88868 -0.16821,-2.69221 2.50205,-0.96013 13.23915,-0.70573 13.87855,0.32883 0.3181,0.51471 -1.56784,1.22753 -4.19099,1.58406 -2.62314,0.35653 -5.44435,0.77805 -6.26935,0.93671 -0.825,0.15866 -2.2875,0.0878 -3.25,-0.15739 z m -99.500003,-0.98229 c -4.61198,-0.93472 -2.02686,-2.31691 4.33333,-2.31691 4.81923,0 6.47319,0.33496 6.17228,1.25 -0.41962,1.27607 -6.45123,1.88862 -10.50561,1.06691 z m 65.102333,-0.31022 c -2.8954,-1.16822 -3.92658,-3.01471 -1.66135,-2.97489 1.86305,0.0328 5.30902,2.19318 5.30902,3.32844 0,0.82069 -0.97053,0.72662 -3.64767,-0.35355 z m 6.64767,-1.00669 -3.5,-1.91617 4.31574,-0.0419 c 4.46951,-0.0434 8.18426,1.3152 8.18426,2.99326 0,1.60878 -5.27991,1.00148 -9,-1.03518 z m 66,1 c 0,-0.55 1.575,-1 3.5,-1 1.925,0 3.5,0.45 3.5,1 0,0.55 -1.575,1 -3.5,1 -1.925,0 -3.5,-0.45 -3.5,-1 z m -172.756217,-1.25 c 0.225748,-0.6875 1.725748,-1.37269 3.333333,-1.52264 2.788155,-0.26007 2.833407,-0.20246 0.981751,1.25 -2.346126,1.84032 -4.882473,2.00058 -4.315084,0.27264 z m 68.756219,0.78605 c 0,-0.82793 7.426228,-5.53605 8.732128,-5.53605 2.30579,0 1.31801,1.99883 -1.98213,4.01096 -2.96495,1.80777 -6.749998,2.66296 -6.749998,1.52509 z m -11.33334,-1.20272 c -1.29194,-1.29193 -0.63437,-2.14894 2.48255,-3.2355 3.70548,-1.29174 10.85079,-1.46412 10.85079,-0.26178 0,0.45983 -2.69321,1.58483 -5.9849,2.5 -6.90336,1.9193 -6.48342,1.86231 -7.34844,0.99728 z m 91.083338,-0.93324 c -4.44472,-1.36674 -6.46135,-3.40009 -3.37212,-3.40009 1.99116,0 8.37534,2.79169 9.11276,3.98485 0.79323,1.28347 0.108,1.21367 -5.74064,-0.58476 z M 55.346697,305.68321 c 0.54948,-1.6662 4.80812,-2.53323 4.80812,-0.9789 0,0.58825 -0.4132,1.06955 -0.91821,1.06955 -0.50502,0 -1.69142,0.29671 -2.63645,0.65935 -1.20598,0.46278 -1.57967,0.23918 -1.25346,-0.75 z m -37.94188,-0.57163 c -2.447599,-0.98763 -1.195402,-2.33772 2.168213,-2.33772 4.176287,0 6.759407,0.90359 6.017026,2.10478 -0.58117,0.94036 -6.046613,1.09589 -8.185239,0.23294 z M 114.54183,304.976 c -1.16215,-0.16793 -2.62192,-1.42229 -3.24393,-2.78745 -0.95045,-2.08601 -0.85262,-2.58479 0.613,-3.12547 0.95915,-0.35383 1.97007,-0.97254 2.24647,-1.37491 0.2764,-0.40237 1.74888,-0.49332 3.27217,-0.20213 2.09132,0.39978 2.51304,0.83863 1.72193,1.79185 -0.7572,0.91238 -0.62471,1.42472 0.47783,1.8478 0.83903,0.32197 1.52201,0.93702 1.51772,1.36679 -0.0122,1.22235 -4.2656,2.82161 -6.60519,2.48352 z m 93.61299,-0.0722 c 0,-1.30659 8.6661,-3.47309 10.71539,-2.67881 1.68351,0.65251 1.67465,0.77262 -0.15652,2.12027 -2.09488,1.54174 -10.55887,1.98946 -10.55887,0.55854 z M 29.404817,304.11158 c -2.106384,-0.84995 -1.388784,-2.33772 1.127555,-2.33772 1.307656,0 2.937756,0.675 3.622445,1.5 1.048604,1.26349 0.870819,1.48755 -1.127555,1.42105 -1.304845,-0.0434 -2.934945,-0.30592 -3.622445,-0.58333 z m 98.000003,0.0218 c -2.64059,-1.11151 -1.07985,-2.46615 2.5,-2.16987 2.0625,0.17071 3.65149,0.76037 3.53109,1.31037 -0.24495,1.11896 -4.10711,1.66936 -6.03109,0.8595 z m 75.19113,-0.8913 c 1.06762,-0.80751 2.81022,-1.4682 3.87244,-1.4682 1.60335,0 1.71991,0.25473 0.68643,1.5 -0.68469,0.825 -2.42729,1.48569 -3.87244,1.4682 -2.52625,-0.0306 -2.55272,-0.0884 -0.68643,-1.5 z m -148.441133,-0.8077 c 0,-0.73672 1.125,-1.85207 2.5,-2.47857 2.92976,-1.33489 3.28205,-0.19967 0.67126,2.16306 -2.21487,2.00443 -3.17126,2.09958 -3.17126,0.31551 z m 119.821433,-1.68853 c -5.83419,-3.01216 -7.46628,-4.45542 -6.03717,-5.33866 1.05382,-0.65129 13.21574,6.18125 13.21574,7.42458 0,1.40521 -0.95305,1.12828 -7.17857,-2.08592 z m -112.788943,1.04809 c -1.23938,-0.76598 8.06763,-6.02008 10.66385,-6.02008 1.91151,0 1.59001,2.77793 -0.44634,3.85672 -3.20819,1.69958 -8.98787,2.92332 -10.21751,2.16336 z m 34.967515,-0.94676 c 0,-0.50967 0.7875,-1.13247 1.75,-1.38399 0.9625,-0.25153 -0.5757,-0.50953 -3.41821,-0.57333 -6.07172,-0.13628 -8.3318,-0.84589 -8.3318,-2.616 0,-2.10498 2.61908,-2.48575 7.81939,-1.13681 4.57411,1.18651 4.86619,1.15042 4.42246,-0.54639 -0.58327,-2.23043 0.0246,-2.25873 4.357028,-0.20286 3.92533,1.86269 4.58057,3.8989 0.96242,2.9908 -1.3413,-0.33665 -2.7097,-0.17362 -3.0409,0.36227 -0.3312,0.5359 0.54122,1.26133 1.93871,1.61208 4.06865,1.02117 2.93592,2.42091 -1.9591,2.42091 -2.474998,0 -4.499998,-0.417 -4.499998,-0.92668 z m 83.365378,-1.43697 c -1.57596,-1.35641 -2.51424,-2.81813 -2.08508,-3.24825 0.42917,-0.43012 1.98031,0.41796 3.44697,1.88463 3.46651,3.46651 2.36398,4.57044 -1.36189,1.36362 z M 30.654817,298.30486 c -1.65,-1.35249 -2.421668,-2.47526 -1.714817,-2.49504 1.671423,-0.0468 6.214817,2.93525 6.214817,4.07905 0,1.4744 -1.34746,1.00009 -4.5,-1.58401 z m 20.53327,1.34144 c -0.03502,-1.71303 2.65833,-4.51417 3.5159,-3.6566 0.27546,0.27546 -0.39544,1.57708 -1.4909,2.8925 -1.54056,1.8499 -1.99927,2.02298 -2.025,0.7641 z m 81.966733,0.16274 c 0,-1.25773 2.68844,-2.59969 6.75,-3.36933 4.3617,-0.82651 4.4411,1.72328 0.10078,3.23632 -3.88804,1.35538 -6.85078,1.4129 -6.85078,0.13301 z m 66.85987,-0.72949 c 1.27489,-2.43073 3.14013,-3.92743 3.14013,-2.51969 0,0.49721 -0.96548,1.76127 -2.14551,2.80901 -2.13061,1.89176 -2.13752,1.88975 -0.99462,-0.28932 z m 3.14013,0.70058 c 0,-1.27075 7.87409,-7.00627 9.61865,-7.00627 2.43758,0 0.24841,2.88786 -4.13771,5.4583 -4.79681,2.81112 -5.48094,3.00434 -5.48094,1.54797 z M 21.524865,298.33347 c -4.213213,-1.83353 -5.165083,-3.55961 -1.962992,-3.55961 2.850758,0 9.592944,2.94148 9.592944,4.18521 0,1.23956 -4.120369,0.90172 -7.629952,-0.6256 z m 163.125355,-2.56981 c -1.722,-3.81872 -1.4707,-6.41374 0.42834,-4.42313 1.26123,1.32204 3.0721,8.43333 2.14753,8.43333 -0.42214,0 -1.58128,-1.80459 -2.57587,-4.0102 z M 35.190001,296.8396 c -1.755098,-3.27943 -1.100953,-4.72456 0.998085,-2.20496 1.081702,1.29844 1.966731,2.76094 1.966731,3.25 0,1.60325 -1.907292,0.93096 -2.964816,-1.04504 z m 20.964816,0.76284 c 0,-1.3909 8.59991,-9.82858 10.01756,-9.82858 2.30476,0 0.65513,3.11814 -3.65835,6.91501 -4.79049,4.21676 -6.35921,4.93549 -6.35921,2.91357 z m 67.000003,0.27841 c 0,-1.21758 2.56727,-2.10699 6.08179,-2.10699 3.13793,0 3.92056,1.40138 1.33642,2.39301 -2.39661,0.91967 -7.41821,0.72605 -7.41821,-0.28602 z m 70.01531,-1.35699 c 0.008,-1.2375 0.40217,-2.86054 0.875,-3.60676 1.26811,-2.00133 2.44524,0.38369 1.68478,3.4136 -0.76981,3.06719 -2.58027,3.20381 -2.55978,0.19316 z m 3.50806,0.11831 c 1.20317,-3.88608 4.22141,-9.41161 5.90354,-10.80765 2.57027,-2.13313 1.9507,1.67182 -1.20027,7.37125 -2.96976,5.37167 -5.98439,7.57428 -4.70327,3.4364 z M 39.811112,295.56753 c -0.317333,-1.21348 -0.345349,-2.43795 -0.06226,-2.72104 0.646686,-0.64669 2.370157,2.00441 2.390651,3.67737 0.02577,2.10339 -1.715256,1.38831 -2.328391,-0.95633 z m 8.359018,0.95633 c 0.02248,-1.83512 1.772159,-4.29586 2.52162,-3.5464 0.874347,0.87435 -0.437516,4.7964 -1.604321,4.7964 -0.512936,0 -0.925721,-0.5625 -0.917299,-1.25 z m -4.015313,-2.75 c 0,-1.82405 0.415001,-2.86155 1,-2.5 0.55,0.33992 1,1.46492 1,2.5 0,1.03508 -0.45,2.16008 -1,2.5 -0.584999,0.36155 -1,-0.67595 -1,-2.5 z m 78.000003,1.11501 c 0,-1.09948 4.49884,-4.11501 6.13913,-4.11501 0.66522,0 0.15262,1.125 -1.13913,2.5 -2.31903,2.46849 -5,3.33445 -5,1.61501 z m 57.30666,-1.36501 c -4.56721,-5.03251 -5.97281,-8.75 -3.30841,-8.75 0.70279,0 7.00175,9.34684 7.00175,10.3897 0,1.28811 -1.73548,0.51762 -3.69334,-1.6397 z m -73.56559,-0.4375 c -0.98491,-0.98491 -1.74107,-1.23776 -1.74107,-0.5822 0,1.38964 -8.231598,-1.84647 -11.999998,-4.71758 -1.96722,-1.49881 -2.24026,-2.16534 -1.28116,-3.12757 0.96013,-0.96327 2.28678,-0.55897 6.25,1.9047 3.847618,2.39181 5.031158,2.76479 5.031158,1.58551 0,-2.11774 1.98892,-1.2708 4.30703,1.83406 2.37651,3.18307 1.93496,5.604 -0.56596,3.10308 z m 25.25893,-0.7833 c 4.36548,-4.74829 11,-7.20668 11,-4.07599 0,1.33674 -5.51055,4.33639 -11.16071,6.07527 l -2.33929,0.71994 z M 26.0527,291.48403 c -3.295998,-2.22118 -4.048671,-3.82657 -2.098774,-4.47654 1.13526,-0.37842 7.200891,4.55373 7.200891,5.85526 0,1.4654 -1.471955,1.06764 -5.102117,-1.37872 z m 163.32144,-0.0253 c -1.45926,-3.36905 -1.62247,-10.6849 -0.23837,-10.6849 1.41443,0 2.20433,3.97552 1.80416,9.08021 l -0.34647,4.41979 z m -154.920046,-0.9349 c -1.993217,-2.18837 -4.299277,-6.04189 -4.299277,-7.18426 0,-1.27195 2.802413,-0.44155 4.3753,1.29647 1.876296,2.07328 3.910178,8.13779 2.729208,8.13779 -0.415734,0 -1.678088,-1.0125 -2.805231,-2.25 z m 76.416336,-0.65429 c -0.94359,-1.59736 -1.71561,-3.69211 -1.71561,-4.65499 0,-1.65513 0.10346,-1.65707 1.89535,-0.0354 1.78302,1.61362 3.47391,7.59471 2.14706,7.59471 -0.33616,0 -1.38322,-1.30693 -2.3268,-2.90429 z m 5.92387,2.21044 c -0.35171,-0.35172 -0.67111,-1.80198 -0.70977,-3.22282 -0.061,-2.24241 -0.1708,-2.32646 -0.83199,-0.63688 -0.70546,1.80271 -0.81003,1.76579 -1.41606,-0.5 -0.35989,-1.34555 -0.6605,-5.07145 -0.66801,-8.27978 -0.0185,-7.88516 2.27074,-7.20534 3.06824,0.91118 0.32004,3.25718 0.65754,5.35965 0.75,4.67215 0.40953,-3.04512 2.16811,-0.86243 2.16811,2.69098 0,3.79786 -1.02758,5.6981 -2.36052,4.36517 z m -77.34417,-6.15233 c -2.018886,-5.61105 -1.762853,-9.17884 0.555856,-7.7458 2.187446,1.35191 4.302111,13.59198 2.34823,13.59198 -0.440331,0 -1.74717,-2.63078 -2.904086,-5.84618 z m 16.310117,5.01677 c -0.5692,-0.92099 3.45966,-7.12601 4.64457,-7.15331 1.30081,-0.03 0.81395,3.4464 -0.8067,5.76021 -1.62321,2.31745 -2.96547,2.80467 -3.83787,1.3931 z m 64.394573,0.0294 c 0,-0.44 0.55874,-1.35874 1.24164,-2.04164 0.92503,-0.92503 0.94779,-1.42325 0.0893,-1.95385 -0.8087,-0.49981 -0.89375,-2.0531 -0.28519,-5.20836 0.47695,-2.47288 0.88679,-4.83365 0.91074,-5.24615 0.024,-0.4125 0.71855,-0.75 1.54355,-0.75 1.90481,0 1.90481,3.66788 0,7 -1.85719,3.24881 -1.85719,4.35104 0,3.63837 1.84554,-0.7082 1.90394,1.24571 0.10795,3.61163 -1.36061,1.79234 -3.60799,2.38409 -3.60799,0.95 z m -72.245876,-1.39835 c -0.820243,-2.13752 0.583319,-8.0808 2.021577,-8.56022 1.695516,-0.56517 1.605656,5.85477 -0.114877,8.20774 -1.117689,1.52853 -1.433036,1.58683 -1.9067,0.35248 z m 57.421036,-2.55566 c -1.2659,-1.77779 -2.0029,-3.7157 -1.63778,-4.30647 0.36605,-0.59228 -0.24746,-1.31245 -1.36759,-1.60537 -2.05441,-0.53724 -3.697058,-3.14022 -2.645358,-4.19191 1.067608,-1.06761 3.685838,1.38405 6.135338,5.74502 3.15989,5.62571 2.78953,8.95683 -0.48461,4.35873 z m 20.82484,2.18729 c 0,-1.46077 5.29261,-7.27654 7.03714,-7.73274 3.17563,-0.83045 2.24391,1.53621 -1.98791,5.04946 -3.82768,3.17774 -5.04923,3.8269 -5.04923,2.68328 z M -4.7473578,283.62464 c -1.327946,-3.80935 -1.439389,-8.85078 -0.19565,-8.85078 1.204813,0 3.097825,5.59089 3.097825,9.14922 0,3.78363 -1.534152,3.62587 -2.902175,-0.29844 z m -10.0978252,-3.07632 c 0,-3.55122 2.312235,-7.79556 3.564604,-6.54319 1.076118,1.07612 -0.859802,9.03987 -2.314604,9.52154 -0.835674,0.27668 -1.25,-0.71053 -1.25,-2.97835 z m 22.1438292,1.89884 c -0.605584,-0.72968 -1.791723,-2.97968 -2.635865,-5 -1.342992,-3.21423 -1.35017,-3.6733 -0.05743,-3.6733 1.58148,0 6.5494708,6.62361 6.5494708,8.73213 0,1.66479 -2.4568048,1.62731 -3.8561708,-0.0588 z M -24.285705,278.8701 c -0.307205,-0.49707 1.502761,-3.08457 4.022148,-5.75 4.851609,-5.13285 5.217604,-4.15666 0.966421,2.57765 -2.553174,4.04449 -3.914518,4.9102 -4.988569,3.17235 z m 41.814265,-2.38168 c -2.490181,-1.42244 -7.8338218,-7.58781 -7.160276,-8.26136 0.702281,-0.70228 12.786533,7.35449 12.786533,8.52499 0,1.37389 -3.006164,1.23303 -5.626257,-0.26363 z m -19.8023138,-5.28599 c -0.367821,-1.46551 -0.443765,-2.88957 -0.168765,-3.16457 0.275,-0.275 0.800944,0.69906 1.168765,2.16457 0.36782002,1.46551 0.44376402,2.88957 0.168764,3.16457 -0.275,0.275 -0.800944,-0.69906 -1.168764,-2.16457 z m -28.3256392,0.32143 c 0.618578,-1.87468 8.612437,-7.22511 9.487437,-6.35011 0.992478,0.99248 -6.225277,7.60011 -8.301875,7.60011 -0.87891,0 -1.412413,-0.5625 -1.185562,-1.25 z m 22.5471562,-1.79261 c 0.237082,-1.61534 0.788411,-2.71613 1.225176,-2.44619 0.873791,0.54003 0.153219,4.26487 -0.957885,4.95157 -0.384092,0.23738 -0.504373,-0.89004 -0.267291,-2.50538 z m 77.8737238,1.37594 c -0.36667,-0.36666 -0.66667,-3.27754 -0.66667,-6.46861 0,-4.74645 -0.27288,-5.69724 -1.5,-5.22635 -1.06723,0.40954 -1.51021,-0.10441 -1.5354,-1.78138 -0.0195,-1.29941 -1.0291,0.55956 -2.25,4.14301 -1.52333,4.47107 -2.792,6.60692 -4.06438,6.84254 -1.59838,0.29599 -1.75378,-0.0945 -1.14343,-2.87347 0.3885,-1.7688 1.63701,-4.79335 2.77448,-6.72122 l 2.06813,-3.50521 -2.1747,1.16386 c -2.78142,1.48857 -2.75769,0.24971 0.0753,-3.93152 2.7097,-3.99927 5.29446,-5.26577 4.29039,-2.10224 -1.22539,3.86086 0.65541,4.6104 2.56671,1.02288 1.21034,-2.27181 1.82294,-2.7928 1.85098,-1.57419 0.0231,1.00178 0.65889,2.4384 1.41297,3.19248 1.96522,1.96521 2.26483,18.48609 0.33525,18.48609 -0.75513,0 -1.67297,-0.3 -2.03963,-0.66667 z M 3.7698272,268.30904 c -1.863427,-2.84395 -1.991297,-3.53518 -0.653965,-3.53518 1.136424,0 5.038955,4.0184 5.038955,5.18856 0,1.75509 -2.857684,0.67759 -4.38499,-1.65338 z m -16.6150102,0.28989 c 0,-0.88193 0.923785,-2.66585 2.052856,-3.96429 l 2.0528562,-2.36078 -0.660179,2.5 c -0.363099,1.375 -1.2868842,3.15893 -2.0528562,3.96429 -1.220008,1.28273 -1.392677,1.26547 -1.392677,-0.13922 z m 95.693125,-1.61167 c -1.4401,-1.59129 -4.69313,-8.30184 -4.69313,-9.68128 0,-1.54027 1.92594,-0.0716 4.786,3.64966 4.34857,5.65799 4.26861,10.851 -0.0929,6.03162 z M 7.9066042,264.93243 c -2.698206,-1.62839 -3.606027,-3.15857 -1.873911,-3.15857 1.886669,0 8.1221238,3.08115 8.1221238,4.01342 0,1.4608 -3.118121,1.0342 -6.2482128,-0.85485 z m -24.0017872,-1.35301 c 1.206944,-1.20695 2.49607,-1.89282 2.864723,-1.52417 0.972937,0.97294 -1.581338,3.71861 -3.45939,3.71861 -1.285712,0 -1.168968,-0.43081 0.594667,-2.19444 z m 33.5,0.61 c -4.911159,-2.14776 -4.11321,-3.66333 1.5,-2.84901 5.568584,0.80784 8.543065,2.15024 7.718991,3.48362 -0.833491,1.34862 -5.403372,1.03404 -9.218991,-0.63461 z m 56.90505,-6.1367 c -0.55381,-2.59662 -0.65252,-5.35441 -0.21937,-6.12841 1.09842,-1.96277 1.8312,-0.38849 2.63317,5.657 0.884195,6.66544 -1.01369,7.0361 -2.4138,0.47141 z m 12.446225,0.56908 c -2.4604,-2.80689 -3.44901,-4.75235 -3.05145,-6.00493 0.37105,-1.16907 0.009,-2.07505 -0.98088,-2.45492 -0.86292,-0.33114 -1.56895,-1.28068 -1.56895,-2.11009 0,-1.29047 0.37841,-1.26008 2.62312,0.21072 1.44272,0.9453 2.31616,1.22206 1.94099,0.61501 -1.10948,-1.79518 4.48152,-1.26606 9.1859,0.86934 2.3375,1.06103 4.25,2.40115 4.25,2.97804 0,1.78691 -5.32393,1.14875 -8.97259,-1.07551 -2.87336,-1.75163 -3.21848,-1.8092 -2.00001,-0.33364 1.17059,1.41757 1.20592,1.873 0.17227,2.22077 -0.85207,0.28667 -0.0701,1.63224 2.2683,3.90328 3.44274,3.34355 3.85076,5.33399 1.09342,5.33399 -0.72632,0 -2.95838,-1.86843 -4.96012,-4.15206 z m 109.065398,3.48539 c -0.36667,-0.36666 -0.67356,-3.62916 -0.68198,-7.25 -0.0104,-4.45255 -0.31642,-6.10721 -0.94563,-5.11229 -1.77493,2.80658 -2.23948,0.13157 -0.72217,-4.15854 l 1.52522,-4.3125 0.19494,3.5 c 0.10723,1.925 0.40075,2.7125 0.65228,1.75 0.25152,-0.9625 0.83593,-1.75 1.29867,-1.75 1.02845,0 2.47353,14.35489 1.65881,16.47801 -0.61686,1.60753 -1.86867,1.9668 -2.98014,0.85532 z m -230.096646,-1.22002 c -1.030878,-1.668 1.949356,-2.95962 8.439873,-3.65782 7.173526,-0.77167 7.245727,0.17874 0.219864,2.89413 -4.743299,1.83321 -7.830472,2.10546 -8.659737,0.76369 z m 14.290757,-1.14658 c 1.298431,-1.0817 3.098431,-1.95176 4,-1.93346 1.285027,0.0261 1.129116,0.45822 -0.721568,2 -1.298431,1.0817 -3.098431,1.95176 -4,1.93346 -1.285027,-0.0261 -1.129116,-0.45822 0.721568,-2 z m 68.139216,0.95635 c 0,-1.21315 3.99905,-5.33115 8.5,-8.75284 1.75189,-1.33181 2.09127,-1.84164 0.81574,-1.22544 -5.76888,2.78692 -5.07798,-0.58608 0.79631,-3.88762 4.47708,-2.51626 6.13783,-2.09576 3.45052,0.87368 -0.96717,1.06871 -1.50667,2.35057 -1.19888,2.84858 0.85722,1.38701 -8.31737,11.22056 -10.468659,11.22056 -1.042267,0 -1.895031,-0.48462 -1.895031,-1.07692 z m -53.9999998,-0.92308 c 0,-0.55 -0.606519,-1 -1.34782,-1 -2.172947,0 -1.8075,-5.42191 0.460933,-6.83857 2.352043,-1.46887 3.886887,-0.74286 3.886887,1.83857 0,1.03508 0.45,2.16008 1,2.5 1.51135502,0.93407 1.19816902,2.5 -0.5,2.5 -0.825,0 -1.5,0.45 -1.5,1 0,0.55 -0.45,1 -1,1 -0.55,0 -1,-0.45 -1,-1 z M 184.55155,257.54022 c 0.71488,-3.57441 5.09938,-10.76636 6.5636,-10.76636 0.51257,0 0.1024,2.3625 -0.9115,5.25 -2.89557,8.24636 -3.17075,8.75 -4.78082,8.75 -1.17772,0 -1.37303,-0.72488 -0.87128,-3.23364 z m 20.57634,-1.01636 c -2.01234,-4.43328 -2.73454,-10.9133 -1.02535,-9.2 1.57758,1.58137 6.05228,10.45562 6.05228,12.00291 0,3.03788 -3.18072,1.26438 -5.02693,-2.80291 z M 4.1548172,258.89049 c 0,-1.06967 3.498077,-2.08435 7.2499998,-2.10298 1.783847,-0.009 2.75,0.51334 2.75,1.48635 0,1.13333 -1.222222,1.5 -4.9999998,1.5 -2.75,0 -5,-0.39752 -5,-0.88337 z m 75.1743048,-4.43108 c -2.37108,-2.52391 -2.912495,-5.09828 -0.93348,-4.43861 1.55683,0.51895 5.27302,6.75306 4.02554,6.75306 -0.50476,0 -1.89618,-1.0415 -3.09206,-2.31445 z m -102.924772,0.0645 c 0.522359,-1.56884 3.168975,-2.11276 6.37046,-1.30924 3.642783,0.91428 1.867278,2.55924 -2.762343,2.55924 -2.77476,0 -3.895086,-0.38813 -3.608117,-1.25 z m 35.750467,0.37996 c 0,-1.01871 7.385997,-3.22695 11.589919,-3.4651 3.699119,-0.20956 4.405931,1.46254 1.297883,3.0704 -2.716127,1.40511 -12.887802,1.71662 -12.887802,0.3947 z m -9.9999998,-1.09478 c 0,-1.3357 2.84372,-2.72763 7.26841,-3.55771 5.0220188,-0.94214 4.8434568,0.86049 -0.288646,2.91395 -4.569167,1.82822 -6.979764,2.05055 -6.979764,0.64376 z M 213.85777,250.98175 c -3.96361,-4.05911 -4.48628,-5.20784 -2.36956,-5.20784 2.1994,0 9.08971,6.50638 8.27918,7.81786 -1.12795,1.82505 -1.92083,1.47487 -5.90962,-2.61002 z m -171.702953,0.74327 c 0,-1.07384 7.523367,-4.88959 9.71862,-4.92915 2.03902,-0.0368 0.43468,2.37265 -2.815315,4.22804 -3.417889,1.95124 -6.903305,2.30522 -6.903305,0.70111 z m 132.234963,-1.20116 c 1.55856,-2.37118 10.466,-8.38237 11.25376,-7.59461 0.91726,0.91726 -8.84191,9.84461 -10.76189,9.84461 -1.81529,0 -1.8541,-0.17751 -0.49187,-2.25 z m -206.984963,0.58853 c -2.461364,-0.99478 -1.313407,-3.33853 1.63519,-3.33853 3.058082,0 10.669562,2.84407 8.11481,3.03214 -0.825,0.0607 -3.075,0.26819 -5,0.461 -1.925,0.19282 -4.0625,0.12324 -4.75,-0.15461 z m 13.5,-1.50081 c -3.293431,-1.20286 -3.743321,-3.27036 -0.5,-2.29778 2.370116,0.71073 5.867208,3.51644 4.214286,3.38111 -0.530357,-0.0434 -2.201786,-0.53092 -3.714286,-1.08333 z M 199.7596,249.18633 c -0.89217,-2.32497 -0.73479,-4.61085 0.27451,-3.98707 1.2567,0.77668 2.08352,4.47955 1.13161,5.06786 -0.44073,0.27239 -1.07348,-0.21397 -1.40612,-1.08079 z M 3.6548172,246.77386 c 2.80022,-2.9228 5.5,-3.94017 5.5,-2.07258 0,1.35091 -5.005157,5.07258 -6.82195,5.07258 -1.10921,0 -0.731912,-0.85623 1.32195,-3 z M 185.85269,248.1384 c -0.84923,-0.84924 1.64324,-5.45828 4.20588,-7.77744 3.033,-2.74482 3.67831,-1.26495 1.19824,2.74788 -2.46817,3.99359 -4.52543,5.90825 -5.40412,5.02956 z m 19.91714,-1.82936 c -1.74264,-2.6596 -2.08615,-4.53518 -0.83062,-4.53518 0.7698,0 4.21561,5.23482 4.21561,6.40429 0,1.44059 -1.90598,0.38815 -3.38499,-1.86911 z m -194.615013,0.66275 c 0,-1.42865 6.210935,-6.19793 8.071443,-6.19793 2.290978,0 1.66797,2.05714 -1.157377,3.82159 -3.051097,1.90545 -6.914066,3.23313 -6.914066,2.37634 z m -27.322902,-3.01308 c -2.725387,-2.84469 -3.322686,-4.18485 -1.865156,-4.18485 0.999828,0 5.5232,5.99819 4.953212,6.56818 -0.226027,0.22603 -1.615653,-0.84647 -3.088056,-2.38333 z m 6.044291,0.11481 c -1.934108,-3.59582 -2.233108,-6.29966 -0.696638,-6.29966 1.3639482,0 3.1489982,4.83982 2.7420182,7.43446 -0.282417,1.8005 -0.544872,1.65489 -2.0453802,-1.1348 z m 92.528606,2.03806 c -2.4476,-0.98763 -1.1954,-2.33772 2.16821,-2.33772 3.97057,0 6.5818,0.83592 6.5818,2.10699 0,0.93252 -6.58073,1.10605 -8.75001,0.23073 z M 0.15481722,245.2242 c 0,-0.30231 0.764864,-1.98981 1.69969798,-3.75 1.268264,-2.388 1.791973,-2.76944 2.063231,-1.50275 0.427241,1.99509 -1.408774,5.80241 -2.798113,5.80241 -0.53064898,0 -0.96481598,-0.24735 -0.96481598,-0.54966 z M 52.154817,244.814 c 0,-1.31731 7.03164,-3.31821 10.04395,-2.85808 2.41786,0.36933 2.40629,0.40193 -0.74429,2.09655 -3.44417,1.85254 -9.29966,2.33204 -9.29966,0.76153 z m 17,-0.31071 c 0,-0.8165 -0.675,-2.04474 -1.5,-2.72943 -1.77793,-1.47555 -1.96099,-3 -0.36024,-3 0.62686,0 1.65274,-0.70155 2.27972,-1.559 0.91964,-1.25767 1.68675,-1.35111 3.96893,-0.48342 2.36857,0.90052 2.62608,1.32004 1.58227,2.57775 -1.01363,1.22134 -0.91149,1.87259 0.5463,3.48343 1.743195,1.92622 1.721525,1.98124 -0.7802,1.98124 -1.41527,0 -3.28501,0.27314 -4.15499,0.60699 -1.00463,0.38551 -1.58179,0.0653 -1.58179,-0.87756 z m -93.071292,-1.70583 c -1.964211,-1.03841 -4.156811,-2.59352 -4.872445,-3.45581 -2.037387,-2.4549 2.182243,-2.06671 4.420633,0.40668 0.982779,1.08596 2.627524,2.24128 3.654988,2.56739 1.027464,0.3261 1.868116,1.01259 1.868116,1.52553 0,1.31693 -0.992081,1.11274 -5.071292,-1.04379 z m 19.7813172,1.31623 c -0.856441,-1.38575 0.328292,-8.33983 1.420817,-8.33983 1.04623,0 1.027995,4.73543 -0.02862,7.43362 -0.431165,1.10103 -1.030627,1.49123 -1.392192,0.90621 z m 44.8963168,-1.16777 c -1.252608,-2.02676 3.290833,-3.32882 9.088173,-2.60449 6.590345,0.82341 5.404345,2.05075 -2.928009,3.03005 -3.511154,0.41267 -5.737152,0.25889 -6.160164,-0.42556 z m 46.960033,-0.0698 c -2.6825,-1.05047 -0.72263,-2.07387 5.15981,-2.69434 4.97981,-0.52526 8.019518,0.57653 6.84292,2.48032 -0.76697,1.24097 -9.00517,1.38787 -12.00273,0.21402 z m 43.869118,-1.20661 c -1.27304,-2.05981 -1.83431,-14.26013 -0.62156,-13.51061 1.41851,0.87669 3.17326,7.14701 3.18049,11.365 0.006,3.22199 -1.24544,4.2709 -2.55893,2.14561 z m 77.42529,-0.80953 c -1.29843,-1.05266 -2.0651,-2.21084 -1.70371,-2.57374 0.84633,-0.84987 6.84293,2.22894 6.84293,3.51334 0,1.58976 -2.60728,1.11307 -5.13922,-0.9396 z m 6.88922,-0.24622 c -2.6125,-1.15218 -4.75,-2.503 -4.75,-3.00183 0,-1.08267 9.33383,-0.12345 13.25,1.36169 1.5125,0.57358 2.75,1.66329 2.75,2.42156 0,2.06116 -5.70278,1.66505 -11.25,-0.78142 z M 7.1548172,240.1639 c 0,-2.65153 5.6581718,-8.13187 7.0051008,-6.78494 0.655888,0.65589 -0.362645,2.31461 -3.006592,4.89636 -3.3844168,3.30479 -3.9985088,3.59484 -3.9985088,1.88858 z M 119.15482,239.24174 c 0,-3.24324 2.22754,-8.5842 4.2954,-10.29908 1.4389,-1.19328 1.54468,-0.93426 1.02098,2.5 -1.22485,8.03203 -5.31638,14.03428 -5.31638,7.79908 z m 50.57003,1.64543 c -1.16616,-1.88689 4.67999,-4.34266 13.42997,-5.64148 4.03237,-0.59855 4.34412,-0.50879 3,0.86381 -1.78229,1.82005 -11.26893,5.66436 -13.978,5.66436 -1.04718,0 -2.15057,-0.39901 -2.45197,-0.88669 z m 12.42997,0.0472 c 0,-1.06892 5.07554,-3.41832 5.80623,-2.68763 0.69665,0.69666 -2.89641,3.45308 -4.55623,3.49531 -0.6875,0.0175 -1.25,-0.34597 -1.25,-0.80768 z M 53.404817,239.7427 c -3.149789,-1.26606 -2.805213,-2.96884 0.60078,-2.96884 3.55833,0 9.14922,1.89301 9.14922,3.09783 0,1.15028 -6.79086,1.06044 -9.75,-0.12899 z m 26.749995,0.0663 c 0,-2.19267 7.57184,-4.13001 9.31779,-2.38406 0.35812,0.35812 -0.12938,1.24381 -1.08333,1.9682 -2.0108,1.52691 -8.23446,1.84122 -8.23446,0.41586 z m 60.537608,-1.33745 c -0.82968,-1.26625 -1.77642,-3.85375 -2.10388,-5.75 l -0.59536,-3.44773 3.08082,3.26578 c 1.73792,1.84225 3.08082,4.34862 3.08082,5.75 0,3.11059 -1.4921,3.189 -3.4624,0.18195 z m -158.423599,-3.27989 c -2.408872,-3.06238 -2.672149,-4.4178 -0.858115,-4.4178 1.312965,0 4.328566,5.74888 3.467353,6.61009 -0.272378,0.27238 -1.446535,-0.71415 -2.609238,-2.19229 z m 95.885991,1.59639 c 0,-1.82233 7.98439,-6.4298 9.13991,-5.27428 0.74551,0.74551 -0.25482,1.82916 -3.37825,3.65961 -4.85369,2.84445 -5.76166,3.09891 -5.76166,1.61467 z m -86.2803678,-0.65883 c -0.355599,-0.57537 -0.945501,-2.9157 -1.310893,-5.20074 -0.7677902,-4.80149 1.011042,-5.81092 2.648858,-1.50314 1.040511,2.73675 -0.13857,8.64455 -1.337965,6.70388 z m 70.1014028,0.13233 c -0.28177,-0.28177 -4.13378,-0.63683 -8.56001,-0.78903 -7.545674,-0.25946 -11.26102,-1.52016 -11.26102,-3.8211 0,-1.3857 6.242354,-0.95397 9,0.62244 3.56082,2.03555 4.60554,1.8266 2.5,-0.5 -1.76175,-1.94672 -1.74663,-2 0.56752,-2 h 2.37749 l -2.4725,-1.6463 c -4.441799,-2.95755 -6.362362,-6.3537 -3.593092,-6.3537 1.705752,0 9.620582,7.55602 9.620582,9.18444 0,0.65266 0.97844,2.22816 2.17431,3.50111 1.19588,1.27295 1.72088,2.31445 1.16667,2.31445 -0.55421,0 -1.23819,-0.23054 -1.51995,-0.51231 z m 134.230123,-1.43654 c -2.44112,-2.44112 -2.56207,-3.68308 -0.55422,-5.69094 1.68889,-1.68889 5.87278,-0.90297 5.1886,0.97465 -0.2335,0.64083 0.26397,1.9554 1.10549,2.92127 1.72094,1.97523 1.60598,2.2199 -1.48987,3.17079 -1.53296,0.47086 -2.82,0.0542 -4.25,-1.37577 z M 1.1701302,233.02386 c 0.01719,-3.08694 1.521478,-6.04654 2.550352,-5.01767 0.95474,0.95474 -0.45823,7.76767 -1.610978,7.76767 -0.525078,0 -0.947796,-1.2375 -0.939374,-2.75 z m 61.3525368,-1.27033 c -1.46329,-2.21118 -2.3946,-4.28626 -2.06957,-4.61128 0.93711,-0.93712 5.70172,4.72657 5.70172,6.77763 0,2.71307 -0.66596,2.31587 -3.63215,-2.16635 z m 24.938835,1.99372 c 3.66123,-2.87991 9.08078,-4.96999 10.54333,-4.06609 0.98558,0.60913 0.97462,0.98504 -0.0527,1.80599 -2.74695,2.19521 -7.81263,4.28671 -10.38252,4.28671 h -2.68452 z m 21.279098,1.16541 c -0.7835,-1.26774 8.97416,-11.88188 9.99786,-10.87542 0.9563,0.9402 -4.28945,8.50686 -7.23835,10.44087 -1.32459,0.86873 -2.3877,1.03614 -2.75951,0.43455 z m -33.585783,-1.55154 c 0,-2.07545 2.892735,-6.58726 4.223415,-6.58726 0.57833,0 0.71206,1.12095 0.32005,2.68283 -0.58369,2.32562 -0.0255,1.99275 4.19255,-2.5 4.84975,-5.16562 9.43541,-7.24017 7.33699,-3.31923 -1.26486,2.3634 -10.93797,9.73098 -12.27761,9.35131 -0.55326,-0.15679 -1.63355,0.23581 -2.400655,0.87245 -1.09759,0.91091 -1.39474,0.80437 -1.39474,-0.5001 z m 132.000003,0.41274 c 0,-0.55 2.05156,-1 4.55902,-1 2.7847,0 4.31848,0.38919 3.94098,1 -0.33992,0.55 -2.39148,1 -4.55902,1 -2.16754,0 -3.94098,-0.45 -3.94098,-1 z m -27,-1 c 0,-0.55 1.8,-1 4,-1 2.2,0 4,0.45 4,1 0,0.55 -1.8,1 -4,1 -2.2,0 -4,-0.45 -4,-1 z M 65.786887,229.06674 c -1.7578,-3.8981 -1.61257,-6.29288 0.38163,-6.29288 1.05385,0 2.32539,6.00072 1.82363,8.60615 -0.24485,1.27143 -0.8975,0.58682 -2.20526,-2.31327 z m 5.56314,-0.96471 c 0.36543,-5.60138 2.80479,-7.33496 2.80479,-1.99329 0,4.10357 -0.83082,6.66512 -2.16178,6.66512 -0.52129,0 -0.81065,-2.10232 -0.64301,-4.67183 z m 62.356173,2.75496 c -0.94037,-1.52154 -2.35529,-10.08313 -1.66639,-10.08313 0.65236,0 2.4783,3.92479 3.56641,7.66584 0.64628,2.22197 -0.84677,4.12149 -1.90002,2.41729 z m 11.95413,-2.51623 c -2.18495,-1.88821 -3.62869,-3.77705 -3.20831,-4.19744 1.44017,-1.44016 9.7028,4.36897 9.7028,6.82167 0,1.74371 -2.70478,0.65079 -6.49449,-2.62423 z m 68.49449,2.54575 c 0,-1.46984 12.09665,-4.416 13.27862,-3.23403 0.72941,0.72941 0.31508,1.31727 -1.36578,1.93776 -3.68122,1.35892 -11.91284,2.25462 -11.91284,1.29627 z m -87.43955,-1.01484 c -0.856,-1.38504 0.24151,-5.09781 1.50694,-5.09781 1.16475,0 1.19126,3.04346 0.0423,4.85676 -0.60472,0.95436 -1.0642,1.02586 -1.54924,0.24105 z m 51.94427,-0.29967 c -6.65816,-1.06657 -9.5596,-2.6283 -7.26679,-3.91142 2.28854,-1.28072 15.76207,2.68469 15.76207,4.63896 0,0.57334 -0.80445,0.50445 -8.49528,-0.72754 z m 27.49528,0.72754 c 0,-0.78672 5.78788,-3.52568 7.45034,-3.52568 2.6621,0 1.69566,1.75345 -1.59956,2.90217 -3.30759,1.15303 -5.85078,1.42406 -5.85078,0.62351 z m -21.25,-2.60578 c -1.83663,-1.06974 -2.38206,-2.9199 -0.86078,-2.9199 0.48906,0 1.95156,0.88503 3.25,1.96673 2.56437,2.13634 0.83006,2.82823 -2.38922,0.95317 z M 76.168467,223.23815 c 0.0191,-5.55071 0.961905,-8.46429 2.738905,-8.46429 1.23612,0 1.39855,0.88087 0.8715,4.72615 -0.35629,2.59939 -1.31745,5.39582 -2.13593,6.21429 -1.317505,1.31751 -1.486555,1.0336 -1.474475,-2.47615 z M 137.2274,224.139 c -3.49839,-4.44748 -2.11008,-6.29367 1.55927,-2.07354 3.18227,3.65994 3.62758,4.7084 1.99975,4.7084 -0.81754,0 -2.4191,-1.18569 -3.55902,-2.63486 z m 68.57645,1.10708 c 0.67758,-1.76573 4.24786,-3.90866 5.09715,-3.05937 0.81169,0.81169 -2.78487,4.58715 -4.36978,4.58715 -0.76745,0 -1.06987,-0.63523 -0.72737,-1.52778 z M 58.227617,222.04602 c -3.42086,-4.15011 -3.96194,-6.59004 -1.34986,-6.087 1.5223,0.29317 6.21732,7.09117 6.26061,9.06484 0.0386,1.75901 -2.05037,0.49229 -4.91075,-2.97784 z m 10.55796,1.67569 c -1.86722,-9.02117 -0.93916,-16.51939 1.31182,-10.59887 1.29353,3.40223 1.35308,9.63528 0.11082,11.59887 -0.72416,1.14463 -1.02209,0.93521 -1.42264,-1 z m 35.369243,1.0752 c 0,-1.30611 3.84524,-3.72662 7.25,-4.56374 3.77299,-0.92764 3.42903,0.58481 -0.74835,3.29069 -3.6487,2.36342 -6.50165,2.92204 -6.50165,1.27305 z m 9,-0.3459 c 0,-1.83131 7.54203,-7.99647 9.1334,-7.46602 0.62405,0.20802 -1.17567,2.31252 -3.99938,4.67666 -3.34507,2.80065 -5.13402,3.7726 -5.13402,2.78936 z m 71.14746,-1.75904 c -7.35051,-4.71801 -10.09772,-7.91811 -6.7975,-7.91811 3.05644,0 13.09161,9.12659 11.48106,10.44156 -0.18206,0.14865 -2.28966,-0.9869 -4.68356,-2.52345 z m 26.85254,2.25515 c 0,-1.0561 9.45583,-8.17326 10.85895,-8.17326 2.6779,0 0.80991,3.13536 -3.10895,5.21825 -5.89958,3.13567 -7.75,3.84122 -7.75,2.95501 z m -90,-1.06248 c 0,-0.48906 0.88503,-1.95156 1.96673,-3.25 1.57143,-1.88628 1.97342,-2.02548 2,-0.69257 0.0539,2.70463 -1.07912,4.83179 -2.57372,4.83179 -0.76615,0 -1.39301,-0.40015 -1.39301,-0.88922 z m 73.67661,0.13922 c -1.1897,-2.02139 -1.74871,-7.25 -0.77512,-7.25 0.58322,0 1.33156,1.2375 1.66298,2.75 0.33142,1.5125 0.77587,3.3125 0.98767,4 0.4122,1.33799 -1.13894,1.75151 -1.87553,0.5 z m 8.32339,-0.55887 c 0,-1.78384 2.68748,-5.33698 3.45568,-4.56878 0.78166,0.78165 -1.48661,5.87765 -2.6162,5.87765 -0.46171,0 -0.83948,-0.58899 -0.83948,-1.30887 z M 9.2526422,219.62464 c -1.318404,-3.78198 -1.442416,-8.85078 -0.21654,-8.85078 0.88005,0 3.1187148,7.49603 3.1187148,10.44282 0,2.6685 -1.751977,1.70742 -2.9021748,-1.59204 z m 133.6269778,1.68929 c -1.52636,-0.79619 -3.471,-2.14341 -4.32143,-2.99384 -1.39497,-1.39497 -1.38314,-1.54623 0.12091,-1.54623 2.17198,0 7.2723,3.02751 7.91297,4.69708 0.64317,1.67607 -0.27251,1.63734 -3.71245,-0.15701 z m 45.73408,0.3934 c -1.07627,-1.74144 0.14952,-2.11024 1.52106,-0.45764 0.78875,0.95039 0.86462,1.52417 0.20152,1.52417 -0.58488,0 -1.36004,-0.47994 -1.72258,-1.06653 z m 10.55643,-0.68347 c 0.008,-0.9625 0.45153,-2.425 0.98469,-3.25 0.7356,-1.13826 0.97307,-0.71622 0.98469,1.75 0.008,1.7875 -0.43469,3.25 -0.98469,3.25 -0.55,0 -0.99311,-0.7875 -0.98469,-1.75 z M -2.8451828,220.89112 c 0,-1.64634 3.28576002,-8.11726 4.121727,-8.11726 1.204614,0 -1.53997698,8.30608 -2.893695,8.75732 -0.675418,0.22514 -1.228032,-0.0629 -1.228032,-0.64006 z M 148.65482,220.29038 c -1.65,-0.72657 -2.87884,-1.69049 -2.73076,-2.14204 0.33946,-1.03518 7.14565,-0.4904 9.47975,0.75877 4.90142,2.62317 -1.12722,3.8588 -6.74899,1.38327 z m 39.04215,-4.85438 c -2.61609,-4.46403 -3.17605,-6.66214 -1.69714,-6.66214 1.1911,0 3.55501,3.00017 4.96163,6.29705 2.65258,6.21724 0.3181,6.47832 -3.26449,0.36509 z m 21.45785,3.29802 c 0,-2.27153 4.13086,-8.96016 5.53374,-8.96016 1.31656,0 1.31163,0.43432 -0.0417,3.6733 -1.73295,4.14751 -3.32237,6.3267 -4.61448,6.3267 -0.48266,0 -0.87756,-0.46793 -0.87756,-1.03984 z M 19.193772,216.5853 c -1.121425,-1.20371 -2.038955,-2.51691 -2.038955,-2.91821 0,-0.40131 -0.273145,-1.44146 -0.606989,-2.31144 -1.140047,-2.97092 1.330205,-1.58869 3.970988,2.22196 1.449801,2.09206 2.636001,4.11706 2.636001,4.5 0,1.38868 -1.967616,0.64738 -3.961045,-1.49231 z m 91.153648,1.11075 c 0.31234,-0.93701 9.88354,-4.79944 12.11642,-4.88954 2.01,-0.0811 -0.94377,2.31051 -5.00209,4.05011 -5.00109,2.14372 -7.65341,2.45667 -7.11433,0.83943 z m 86.46211,-0.67219 c -1.30806,-4.76827 -1.66427,-9.25 -0.73521,-9.25 1.60607,0 3.0805,3.5583 3.0805,7.43426 0,3.70328 -1.50736,4.87028 -2.34529,1.81574 z m 6.34529,-1.6849 c 0,-4.10559 1.54909,-8.5651 2.97525,-8.5651 1.48194,0 1.25789,4.50625 -0.42422,8.53212 -1.83049,4.38096 -2.55103,4.39027 -2.55103,0.033 z m -104.522878,0.47193 c 0.32733,-0.52964 2.266388,-1.42713 4.309008,-1.99443 4.16924,-1.15792 11.91737,-1.41277 10.86187,-0.35726 -2.44667,2.44666 -16.583988,4.63814 -15.170878,2.35169 z m 29.436478,-0.0256 c -0.92562,-0.54131 -1.64203,-2.40779 -1.71998,-4.48111 -0.12707,-3.38005 -9e-4,-3.52169 2.5864,-2.90361 3.60741,0.86177 4.35813,1.34072 3.71998,2.37326 -0.29294,0.47399 -0.0753,1.14446 0.48369,1.48992 1.52496,0.94251 1.22289,2.51011 -0.48369,2.51011 -0.825,0 -1.5,0.45 -1.5,1 0,1.22804 -0.99971,1.23175 -3.0864,0.0115 z m -137.8645438,-1.1781 c 0.02698,-0.73333 1.823776,-3.13333 3.992876,-5.33333 4.558259,-4.62319 5.09819402,-3.74087 1.174844,1.91984 -2.839881,4.09745 -5.251498,5.69043 -5.16772,3.41349 z m 150.2009438,0.50439 c -1.97329,-0.79624 -1.45509,-2.20411 0.61229,-1.66348 1.25079,0.32709 2.02784,-0.14611 2.3665,-1.44111 0.34585,-1.32256 1.72389,-2.12959 4.38771,-2.56962 5.64166,-0.93192 10.3835,-0.80521 10.3835,0.27747 0,1.41173 -0.98767,1.76309 -6.94631,2.47113 -5.26676,0.62583 -8.12669,1.58789 -4.72036,1.58789 0.91667,0 1.66667,0.45 1.66667,1 0,1.01744 -5.47427,1.25599 -7.75,0.33772 z M 25.236376,210.40583 c -2.990668,-4.83901 -2.602517,-5.14487 1.918441,-1.51173 4.414087,3.54726 4.982492,4.87976 2.081559,4.87976 -1.099496,0 -2.807016,-1.43775 -4,-3.36803 z m -20.5481668,1.22284 c -0.36681,-0.90485 -0.08556,-3.60485 0.625008,-6 l 1.291936,-4.35481 0.322347,3.53445 c 0.400901,4.39577 -1.220381,9.33383 -2.239291,6.82036 z m 7.1332748,-0.52148 c -0.366667,-0.36666 -0.650721,-2.27916 -0.631232,-4.25 l 0.03544,-3.58333 1.429129,2.5 c 2.242407,3.92268 1.636137,7.8028 -0.833333,5.33333 z m 101.333336,-0.83333 c 0,-1.57355 2.78033,-1.9336 6.73875,-0.87266 3.38644,0.90765 1.65894,2.37266 -2.79777,2.37266 -2.83643,0 -3.94098,-0.42041 -3.94098,-1.5 z m 24.44113,-1.0318 c 1.06762,-0.80751 2.71832,-1.4682 3.66821,-1.4682 0.9499,0 2.43889,-0.27314 3.30887,-0.60699 0.86999,-0.33384 1.58179,-0.12999 1.58179,0.453 0,1.05028 -6.11281,3.16709 -9,3.11661 -1.14098,-0.0199 -1.03539,-0.37764 0.44113,-1.49442 z m -138.44113278,0.0223 c 0,-1.18016 4.17871498,-7.6451 4.64204598,-7.18177 0.711829,0.71183 -1.357021,5.20985 -3.03786998,6.60483 -0.882297,0.73224 -1.604176,0.99186 -1.604176,0.57694 z M -16.845183,208.30993 c 0,-0.93831 7.5127822,-5.53475 8.9821352,-5.49541 2.162686,0.0579 -4.9617682,5.95936 -7.1943612,5.95936 -0.983276,0 -1.787774,-0.20878 -1.787774,-0.46395 z m 34.591957,-2.03605 c -1.066412,-1.62755 -1.232266,-2.5 -0.475253,-2.5 1.181665,0 3.793486,2.88206 3.851493,4.25 0.06812,1.60637 -1.81744,0.62903 -3.37624,-1.75 z m 88.985596,0.5929 c -5.79682,-0.69821 -7.585418,-3.0929 -2.31011,-3.0929 3.6102,0 9.57141,1.672 11.18256,3.13648 1.02112,0.92817 -0.88223,0.91882 -8.87245,-0.0436 z m 11.04724,-0.562 c -4.99248,-1.77956 -6.51982,-3.25022 -4.27151,-4.11297 1.65323,-0.63441 8.62561,3.26507 8.63989,4.83207 0.008,0.90646 0.34979,0.96269 -4.36838,-0.7191 z m 17.37521,0.62409 c 0,-1.95013 7.64084,-6.84749 8.82925,-5.65907 0.36188,0.36188 -0.91416,1.96123 -2.83564,3.55412 -3.4474,2.85785 -5.99361,3.75208 -5.99361,2.10495 z M -6.2472468,205.93232 c -0.617529,-0.99918 5.123255,-5.7706 5.94920802,-4.94465 0.237597,0.2376 -0.86395002,1.67359 -2.44788102,3.19109 -1.651553,1.58229 -3.144936,2.33022 -3.501327,1.75356 z m 35.4020638,-2.89099 c -3.258078,-1.96469 -4.014798,-2.8107 -2.74191,-3.06542 3.393207,-0.67902 11.74191,2.81946 11.74191,4.92039 0,1.74714 -4.598219,0.79941 -9,-1.85497 z m 114.958483,1.28256 c 2.02157,-2.43585 10.0763,-5.91525 11.16752,-4.82403 1.14267,1.14267 -1.88941,3.34749 -7.02522,5.10847 -4.5056,1.54489 -5.59824,1.46986 -4.1423,-0.28444 z M 21.693897,202.28215 c -1.628506,-1.33088 -2.666915,-2.71379 -2.307575,-3.07313 0.786435,-0.78643 6.768495,3.3082 6.768495,4.63293 0,1.48571 -1.283483,1.03693 -4.46092,-1.5598 z m 99.631533,0.17332 c -2.37374,-2.52674 -2.90454,-5.08735 -0.92061,-4.4411 1.33505,0.43488 4.21511,5.62771 3.5115,6.33133 -0.23116,0.23115 -1.39705,-0.61945 -2.59089,-1.89023 z m 12.83313,0.56839 c 0.007,-1.46393 3.98297,-7.25 4.98156,-7.25 1.59609,0 1.19564,1.93716 -1.05339,5.09563 -1.94636,2.73341 -3.9365,3.82488 -3.92817,2.15437 z m 47.66326,-0.6754 c -0.76685,-1.99838 1.23784,-8.75145 2.38707,-8.04118 0.52026,0.32154 0.94593,1.87125 0.94593,3.44381 0,5.09964 -2.05339,7.93198 -3.333,4.59737 z m -67.83469,-2.87199 c -2.37775,-1.81357 -4.48049,-4.11427 -4.67276,-5.11267 -0.33515,-1.74026 -0.21889,-1.7383 2.81342,0.0474 3.33985,1.9668 8.81258,8.36267 7.15566,8.36267 -0.53523,0 -2.91858,-1.48383 -5.29632,-3.29739 z m 10.79798,1.04739 c -0.94127,-3.51231 -0.74504,-4.75 0.75308,-4.75 1.28558,0 2.57119,2.83991 2.60298,5.75 0.0237,2.17099 -2.72583,1.35172 -3.35606,-1 z m 5.40151,1.125 c -0.06,-3.06552 1.21838,-7.875 2.0932,-7.875 1.42498,0 0.99675,5.45677 -0.5932,7.55887 -1.23131,1.62794 -1.47332,1.67894 -1.5,0.31613 z m 42.9682,-0.86723 c 0,-2.60608 4.88445,-12.00777 6.23838,-12.00777 2.12942,0 -1.63237,10.42224 -4.67244,12.94528 -1.34189,1.11366 -1.56594,0.97952 -1.56594,-0.93751 z m 18.35094,0.90929 c -1.65554,-2.04166 -2.14048,-10.13679 -0.63782,-10.64713 1.54081,-0.5233 2.51931,3.30549 2.10647,8.24245 -0.25576,3.05849 -0.54907,3.53873 -1.46865,2.40468 z m -202.849477,-0.91469 c -0.635205,-1.02778 8.2874162,-4.54682 9.2041622,-3.63008 0.363571,0.36358 0.241039,1.06172 -0.272295,1.55145 -1.465706,1.39828 -8.3606482,3.00288 -8.9318672,2.07863 z m -9.501466,-1.83552 c 0,-1.95485 3.956171,-3.28144 8.784039,-2.94547 l 4.7159612,0.32818 -3.0000002,1.32642 c -4.242828,1.87593 -10.5,2.64518 -10.5,1.29087 z M 141.1176,197.8434 c 1.14123,-2.1324 6.25443,-6.06954 7.88257,-6.06954 2.30301,0 1.91909,1.86127 -0.99973,4.8467 -3.56399,3.64534 -8.66427,4.55148 -6.88284,1.22284 z m 57.02626,-2.31954 c -2.12123,-3.47907 -2.61035,-6.75 -1.00936,-6.75 1.01931,0 5.02032,7.14091 5.02032,8.96016 0,2.09957 -2.08313,0.9517 -4.01096,-2.21016 z m -176.989043,0.9988 -2.5,-1.12443 3,-0.36395 c 1.65,-0.20017 4.421444,-1.01729 6.158764,-1.81581 4.94,-2.27056 14.357143,-2.12718 12.046546,0.18341 -0.345413,0.34542 -3.232913,0.96141 -6.416667,1.36889 -3.183754,0.40747 -5.226143,0.79986 -4.538643,0.87197 0.6875,0.0721 1.25,0.58112 1.25,1.13112 0,1.32775 -5.852622,1.1644 -9,-0.2512 z m 105.980603,-5.34224 c -1.1776,-5.67246 -0.41699,-8.41233 1.93227,-6.96041 1.3216,0.81679 1.46073,11.20492 0.16082,12.0083 -0.50946,0.31487 -1.45135,-1.95668 -2.09309,-5.04789 z M 3.9433732,195.22908 c -1.21393,-1.21393 0.570033,-5.07665 2.839171,-6.14752 2.09642,-0.98935 2.579418,-0.90942 3.078426,0.50942 0.3255288,0.92558 1.4475448,2.63608 2.4933678,3.80109 l 1.901495,2.11822 -4.9051158,0.11051 c -2.697815,0.0608 -5.131119,-0.11549 -5.407344,-0.39172 z M 118.16109,191.62382 c -3.42765,-4.73173 -3.74649,-6.13916 -1.28333,-5.6648 1.5223,0.29317 6.21732,7.09117 6.26061,9.06484 0.0423,1.93083 -2.24994,0.36495 -4.97728,-3.40004 z m 17.84631,-1.39944 c 1.70778,-5.75282 3.44861,-7.18866 3.91802,-3.23161 0.28494,2.40203 -3.09548,8.78109 -4.65332,8.78109 -0.50167,0 -0.17078,-2.49727 0.7353,-5.54948 z m -147.352583,3.54948 c -0.38132,-0.61699 1.223876,-0.97308 4.1909832,-0.92971 3.607252,0.0527 4.30922,0.28505 2.809017,0.92971 -2.779268,1.19429 -6.2618872,1.19429 -7.0000002,0 z m 176.500003,-0.17142 c 0,-1.47628 8.99169,-10.17023 9.74226,-9.41965 0.77467,0.77466 -4.71683,8.50709 -6.85394,9.65084 -2.3036,1.23285 -2.88832,1.18605 -2.88832,-0.23119 z m 41.25,-0.81762 c -1.93553,-1.18012 -3.25,-2.79641 -3.25,-3.99626 0,-2.82115 1.11451,-2.5235 4.80383,1.28291 4.84404,4.99777 4.15793,6.19588 -1.55383,2.71335 z m -25.20454,-0.011 c -0.0312,-2.58191 1.14867,-6 2.07117,-6 1.39144,0 1.03143,3.42199 -0.58483,5.55887 -1.11442,1.47341 -1.47257,1.5797 -1.48634,0.44113 z M 17.550459,191.94271 c 1.191368,-1.92767 8.495112,-3.6781 9.819787,-2.35342 1.703265,1.70326 0.420111,2.41709 -5.339782,2.97054 -3.647383,0.35047 -4.965766,0.16886 -4.480005,-0.61712 z m -33.982932,-1.11163 c -4.088597,-0.97744 -5.582546,-1.9734 -4.817334,-3.21154 0.747198,-1.20899 11.9130642,-0.13912 14.8823202,1.42597 1.970261,1.03852 1.970261,1.04534 0,1.81511 -2.437134,0.95217 -6.0022792,0.9417 -10.0649862,-0.0295 z m 203.342543,-1.55722 c -0.26285,-1.375 -0.0903,-2.5 0.38342,-2.5 0.47373,0 0.86133,1.125 0.86133,2.5 0,1.375 -0.17254,2.5 -0.38342,2.5 -0.21089,0 -0.59848,-1.125 -0.86133,-2.5 z m 5.96521,0.16821 c -0.39625,-1.00748 -0.70678,-2.58248 -0.69005,-3.5 0.0271,-1.48832 0.14221,-1.47612 1.06727,0.11321 0.57028,0.97978 0.8808,2.55478 0.69005,3.5 -0.31674,1.56951 -0.40931,1.55969 -1.06727,-0.11321 z M 68.093127,187.1116 c -0.92114,-2.42277 -0.39603,-10.61084 0.8141,-12.6945 1.12477,-1.93666 2.21792,2.27811 2.23228,8.60676 0.016,7.06162 -1.26314,8.77803 -3.04638,4.08774 z m 107.094963,1.41226 c 0.048,-1.80296 3.74941,-5.98957 4.94144,-5.58917 0.57015,0.19152 0.14883,1.754 -0.9678,3.58917 -1.99559,3.27971 -4.03502,4.30619 -3.97364,2 z M -7.8451828,187.08248 c -2.5049862,-1.15451 -3.0215782,-1.72913 -1.817132,-2.02125 0.925577,-0.22449 3.063077,0.30557 4.75,1.17791 5.48867202,2.83831 2.968214,3.56306 -2.932868,0.84334 z m 23.9999998,0.97322 c 0,-1.22608 5.229595,-5.28184 6.810527,-5.28184 1.229089,0 1.173099,0.36061 -0.310527,2 -2.40622,2.65884 -1.276907,2.52499 3.27144,-0.38776 4.942675,-3.16527 9.22856,-4.167 9.22856,-2.15697 0,2.82188 -11.856665,7.28807 -13.90644,5.23829 -0.791413,-0.79141 -1.425116,-0.762 -2.29356,0.10644 -1.334443,1.33444 -2.8,1.58664 -2.8,0.48184 z m 41.01705,-2.53184 c 0.009,-1.2375 1.39438,-4.5 3.07778,-7.25 l 3.06072,-5 -0.60638,4.35497 c -1.02425,7.3561 -5.57728,13.85384 -5.53212,7.89503 z m 23.021505,0.79646 c -2.05243,-2.47303 -4.144905,-10.54646 -2.73345,-10.54646 1.38949,0 6.69489,8.35309 6.69489,10.54076 0,1.87971 -2.40328,1.88317 -3.96144,0.006 z m 129.461448,-0.70965 c -2.2,-1.14114 -4.89225,-2.80875 -5.98277,-3.70581 -1.86017,-1.53016 -1.89897,-1.5228 -0.62755,0.119 1.81171,2.33949 -0.0816,2.22879 -3.0289,-0.1771 l -2.36078,-1.9271 4.66742,0.30529 c 5.6222,0.36774 12.21016,3.38633 12.6559,5.79891 0.40916,2.21455 -0.37458,2.15372 -5.32332,-0.41319 z m -51.91513,0.30051 c -0.87542,-1.41646 2.5508,-3.76178 8.16513,-5.58921 2.8875,-0.93986 5.25,-1.928 5.25,-2.19586 0,-0.26787 -0.86213,-0.2134 -1.91584,0.12104 -1.05372,0.33444 -2.2111,0.13033 -2.57197,-0.45357 -0.73014,-1.18139 5.24042,-4.01972 8.45569,-4.01972 2.61277,0 2.63428,1.67411 0.0321,2.5 -1.1,0.34913 -2,1.17416 -2,1.83341 0,1.4978 -8.57392,7.13866 -12.18871,8.01907 -1.4788,0.36017 -2.93069,0.26335 -3.22642,-0.21516 z m 38.79991,0.0974 c -1.46875,-0.96762 -2.77883,-5.23472 -1.60716,-5.23472 1.25443,0 4.22238,3.39417 4.22238,4.82874 0,1.33029 -0.98097,1.48256 -2.61522,0.40595 z M -2.7684578,183.18497 c -5.096055,-4.28805 -3.429248,-6.22244 2.01890502,-2.34302 2.76285998,1.96733 3.95369898,4.93191 1.98109498,4.93191 -0.50780098,0 -2.307801,-1.165 -4,-2.58889 z m 15.9232748,1.45692 c 0,-1.80127 3.895252,-7.61386 5.520236,-8.23742 2.233098,-0.85692 1.798363,0.6295 -1.526508,5.21935 -3.10807,4.29057 -3.993728,4.95986 -3.993728,3.01807 z M 3.7454992,182.5526 c -0.965948,-1.47422 -1.583875,-3.49003 -1.373173,-4.47957 0.300062,-1.40921 0.764659,-1.08006 2.14353,1.51862 2.214666,4.17386 1.592145,6.56659 -0.770357,2.96095 z m 166.4093208,0.90647 c 0,-0.72313 1.575,-2.06585 3.5,-2.98382 4.12635,-1.96772 4.61107,-0.72052 0.86514,2.22603 -3.04055,2.3917 -4.36514,2.62165 -4.36514,0.75779 z m -182.750003,-2.85635 c -2.8875,-1.08275 -5.25,-2.36063 -5.25,-2.83973 0,-2.68759 4.385423,-1.76156 8.9850602,1.8973 3.594838,2.85958 2.269469,3.19399 -3.7350602,0.94243 z M 9.1548172,179.8963 c 0,-1.58265 0.675,-3.43775 1.4999998,-4.12244 1.266393,-1.05101 1.5,-0.84921 1.5,1.29577 0,3.17222 -0.935256,5.70423 -2.106989,5.70423 -0.4911558,0 -0.8930108,-1.2949 -0.8930108,-2.87756 z M 20.08142,179.911 c 1.423449,-2.65974 7.876639,-8.13714 9.586754,-8.13714 2.717697,0 -0.581789,4.85006 -5.101349,7.4987 -5.105362,2.99194 -5.797698,3.09049 -4.485405,0.63844 z m 28.073397,0.0293 c 0,-1.15141 2.092687,-3.7323 5,-6.16644 5.83611,-4.88627 6.31294,-4.12437 1.65274,2.64081 -3.61127,5.24247 -6.65274,6.8543 -6.65274,3.52563 z m 37.121905,-5.16644 c -2.35929,-2.2 -4.56688,-4 -4.90576,-4 -0.33888,0 -0.0762,0.54 0.58385,1.2 1.31778,1.31778 1.64509,4.80406 0.45,4.79317 -0.4125,-0.004 -1.81418,-1.56954 -3.11486,-3.4795 -2.404115,-3.53033 -2.319685,-6.51367 0.18434,-6.51367 1.73865,0 14.68053,9.7268 14.68053,11.03352 0,2.19769 -3.86353,0.71001 -7.8781,-3.03352 z m 101.878098,2.91667 c 0,-0.59584 -0.55488,-0.89838 -1.23308,-0.67231 -1.39496,0.46499 -4.05252,-3.97322 -3.2026,-5.34844 0.30454,-0.49276 1.15401,-0.89592 1.88771,-0.89592 0.7337,0 1.58142,-0.6448 1.88384,-1.43288 0.92557,-2.412 5.77596,0.38674 5.08286,2.93288 -1.32848,4.88025 -4.41873,8.66841 -4.41873,5.41667 z m 13.25,0.0522 c -3.51681,-1.41359 -2.64598,-2.28529 1.70059,-1.70229 2.17283,0.29143 4.08533,0.17805 4.25,-0.25197 0.4651,-1.21452 10.13168,-2.16245 11.67753,-1.14513 0.76291,0.50208 1.04375,1.44795 0.6291,2.11887 -0.52739,0.85334 -2.37375,1.00892 -6.24026,0.52583 -3.84903,-0.4809 -5.29054,-0.36131 -4.82009,0.39988 0.81926,1.3256 -3.94504,1.36188 -7.19687,0.0548 z M -5.2410018,174.14748 c -1.987519,-2.38983 -2.572622,-3.80518 -1.865411,-4.51239 0.707211,-0.70721 1.850757,0.0451 3.645819,2.39857 4.611098,6.04546 3.04033902,7.91037 -1.780408,2.11382 z m 10.004399,-0.39386 c -1.852415,-4.62964 -1.997766,-5.97976 -0.643764,-5.97976 1.243918,0 2.615725,2.64841 3.496327,6.75 0.988776,4.60543 -0.906399,4.09371 -2.852563,-0.77024 z m 9.3914198,0.48886 c 0,-2.21049 0.55892,-3.74587 1.494256,-4.10479 0.821841,-0.31537 1.270382,-0.93564 0.996756,-1.37837 -0.75091,-1.215 0.58858,-4.0543 1.613773,-3.4207 1.546417,0.95574 0.969379,5.80134 -1.093825,9.18524 -1.08986,1.7875 -2.213177,3.25 -2.496262,3.25 -0.283084,0 -0.514698,-1.58912 -0.514698,-3.53138 z m 50.53759,2.4486 c -0.73381,-1.96974 0.90085,-7.52791 2.03436,-6.91722 0.51043,0.275 0.83602,1.80703 0.72354,3.40451 -0.24273,3.44724 -1.96504,5.64093 -2.7579,3.51271 z m 7.49957,-1.31948 c -1.3984,-3.67807 -1.31502,-6.85703 0.1669,-6.36305 1.71349,0.57116 3.17539,6.78586 1.89697,8.06428 -0.70228,0.70228 -1.35444,0.1647 -2.06387,-1.70123 z m -14.32236,-0.21627 c -0.34019,-0.3402 0.78512,-2.3652 2.5007,-4.5 5.08916,-6.33279 5.57098,-4.52711 0.76542,2.86853 -1.51669,2.33414 -2.21475,2.68283 -3.26612,1.63147 z m 98.314163,-0.28747 c -2.36611,-1.58474 -0.39611,-2.47584 6.43515,-2.91082 4.93055,-0.31395 6.26584,-0.72333 5.85463,-1.79495 -0.293,-0.76352 0.0779,-1.41572 0.82427,-1.44932 0.74635,-0.0336 -1.11473,-0.83609 -4.13573,-1.78331 -3.56238,-1.11697 -5.61157,-2.33936 -5.8309,-3.47827 -0.2812,-1.46014 0.13883,-1.64151 2.49272,-1.07635 1.55699,0.37384 4.04605,1.29155 5.53124,2.03936 3.42865,1.72638 3.87009,1.70678 3.16129,-0.14034 -0.77824,-2.02806 0.16918,-1.89167 4.75222,0.68414 4.85465,2.72847 5.65065,5.36574 0.84291,2.79272 -1.54252,-0.82553 -1.79886,-0.72896 -1.32727,0.5 0.32147,0.83773 0.98634,1.52314 1.4775,1.52314 0.49115,0 0.89301,0.45 0.89301,1 0,0.55 -1.37656,1 -3.05902,1 -1.68246,0 -2.81057,0.402 -2.50691,0.89333 1.07207,1.73464 -13.08202,3.7566 -15.40511,2.20067 z m 41.7088,-0.90279 c -0.96924,-0.18842 -1.50518,-0.75852 -1.19099,-1.26689 0.73183,-1.18411 8.1577,-1.21151 8.88619,-0.0328 0.59136,0.95684 -4.78645,1.86513 -7.6952,1.29968 z M 41.745867,171.92118 c -0.979556,-1.58495 1.88079,-3.83715 7.90895,-6.22741 5.73,-2.27203 5.865,-2.40395 3,-2.93155 -2.858273,-0.52637 -2.905515,-0.61358 -1,-1.84592 1.3993,-0.90496 1.49317,-1.13723 0.31255,-0.77333 -6.254984,1.92795 -10.222263,2.68765 -11.491666,2.20053 -2.766174,-1.06148 1.281507,-3.61678 6.756182,-4.26517 3.876389,-0.4591 4.726004,-0.83517 3.472129,-1.53688 -1.305575,-0.73063 -1.408552,-1.23213 -0.482202,-2.34831 0.963247,-1.16064 0.727193,-1.41928 -1.295325,-1.41928 -3.808531,0 -8.771668,-2.0357 -8.771668,-3.59783 0,-1.9143 3.038497,-1.75936 8.857429,0.45166 4.750651,1.80511 4.866141,1.80511 4.394091,0 -0.66096,-2.52754 0.58161,-2.33126 5.22758,0.82576 3.85781,2.62145 3.57724,4.4913 -0.35792,2.38526 -2.48166,-1.32814 -4.15515,-1.37931 -2.12118,-0.0649 1.25065,0.80823 1.16753,0.99159 -0.5,1.103 -1.30947,0.0875 -0.99269,0.35173 0.9175,0.76531 3.41159,0.73867 4.7296,3.13169 1.72485,3.13169 -1.11337,0 -2.32017,0.4787 -2.68177,1.06378 -0.44766,0.72434 0.57054,0.84155 3.19099,0.36734 2.11663,-0.38304 3.52676,-0.35258 3.13361,0.0677 -0.39315,0.42028 -0.30205,1.53541 0.20244,2.47806 1.16889,2.18408 -1.03201,5.4776 -5.04832,7.55451 -2.34323,1.21173 -2.9393,1.25113 -2.9393,0.19429 0,-0.72912 0.5625,-1.89556 1.25,-2.59209 0.6875,-0.69652 -1.42353,0.33848 -4.691172,2.3 -6.053605,3.6339 -8.029537,4.23184 -8.967778,2.71373 z m 155.610293,-2.25619 c 0.54387,-1.63735 5.44414,-3.57899 6.46248,-2.56064 1.01885,1.01885 -0.73158,2.42115 -4.0442,3.23988 -2.22332,0.5495 -2.77496,0.39455 -2.41828,-0.67924 z m 6.79866,0.32225 c 0,-1.34719 10.08204,-5.00469 12.24003,-4.44036 2.5372,0.66349 0.48801,2.93165 -3.30913,3.6627 -1.61199,0.31035 -4.2809,0.82503 -5.9309,1.14374 -1.65,0.3187 -3,0.15396 -3,-0.36608 z M 85.121172,168.95357 c -3.03192,-1.34375 -6.33221,-4.14719 -5.66622,-4.81318 1.03199,-1.03199 8.69986,2.74502 8.69986,4.28534 0,1.46279 -0.6636,1.57826 -3.03364,0.52784 z m 3.78364,-2.89558 c -3.7125,-1.40831 -6.75,-2.99652 -6.75,-3.52934 0,-0.53282 0.61747,-0.73182 1.37215,-0.44222 0.75468,0.2896 3.56718,0.84617 6.25,1.23684 5.34771,0.77872 10.377858,2.94837 10.377858,4.47627 0,1.60603 -4.097468,0.97172 -11.250008,-1.74155 z m 88.865018,-2.74895 c -0.88826,-1.35565 -1.61501,-3.00039 -1.61501,-3.65498 0,-1.40933 3.74411,1.77314 5.12781,4.35861 1.50928,2.82013 -1.61384,2.19456 -3.5128,-0.70363 z m 18.36265,-0.0114 c 1.27946,-1.36192 3.29797,-2.3958 4.48558,-2.29751 1.1876,0.0983 3.55118,-0.81241 5.25239,-2.02378 3.71455,-2.645 5.54947,-2.81756 5.09921,-0.47955 -0.1825,0.94762 -2.12799,2.74022 -4.32332,3.98355 -4.42846,2.50807 -8.05687,3.05851 -6.87864,1.04351 0.402,-0.6875 -0.16938,-0.4625 -1.26973,0.5 -3.14484,2.75086 -5.07527,2.15821 -2.36549,-0.72622 z m -12.97766,0.50047 c 0,-0.53666 -1.62177,-2.44916 -3.60392,-4.25 -4.52544,-4.11147 -8.19189,-10.77425 -5.92895,-10.77425 1.56225,0 5.9379,6.14267 6.80585,9.55426 0.401,1.57618 0.52309,1.4709 0.64282,-0.55426 0.14526,-2.45699 0.17474,-2.46559 1.71331,-0.5 1.50199,1.91887 1.54266,1.8783 1.00239,-1 -1.99145,-10.60967 -1.99165,-10.71601 -0.0189,-10.3361 1.13235,0.21807 2.12467,1.54106 2.51142,3.34831 1.02157,4.77364 0.96437,12.48779 -0.0926,12.48779 -0.53273,0 -0.70959,0.675 -0.39301,1.5 0.36449,0.94984 -0.0138,1.5 -1.03138,1.5 -0.88389,0 -1.60703,-0.43909 -1.60703,-0.97575 z m -13.5,-3.70543 c -5.00837,-3.48104 -6.90093,-6.31882 -4.21411,-6.31882 1.63626,0 10.71411,7.69752 10.71411,9.08499 0,1.44229 -1.14786,0.95381 -6.5,-2.76617 z m 23.97288,0.93323 c 0.77794,-3.09957 1.27937,-3.83313 2.07579,-3.03672 0.85697,0.85698 -0.64696,5.78467 -1.76549,5.78467 -0.59138,0 -0.71818,-1.12286 -0.3103,-2.74795 z m -124.472883,0.74795 c 0,-0.55 -0.91583,-1 -2.03518,-1 -1.66904,0 -1.85737,-0.33226 -1.04681,-1.8468 0.67533,-1.26186 0.63278,-2.20241 -0.13433,-2.96952 -1.44377,-1.44377 2.50224,-3.04284 5.90405,-2.39254 1.74138,0.33288 2.21864,0.92851 1.80024,2.24676 -0.31313,0.98658 -0.0717,2.10133 0.5365,2.47722 0.75498,0.4666 0.56008,1.28647 -0.61431,2.58416 -1.83637,2.02916 -4.41016,2.55483 -4.41016,0.90072 z m 14.249995,-0.70573 c -3.89936,-0.75105 -2.44093,-2.29427 2.16821,-2.29427 4.89021,0 7.5818,0.748 7.5818,2.10699 0,0.89465 -5.52631,1.0008 -9.75001,0.18728 z m 113.766458,-2.04427 c 0.0339,-1.54503 4.53225,-8.61053 5.73355,-9.00559 2.0141,-0.66236 1.44461,2.00492 -1.28605,6.02346 -2.31118,3.4012 -4.48872,4.86128 -4.4475,2.98213 z m -68.01645,-2.28984 c 0,-2.24512 3.41886,-9.48296 4.91661,-10.40862 1.65737,-1.02431 2.04065,1.01754 0.94651,5.04231 -1.64372,6.04637 -5.86312,9.90824 -5.86312,5.36631 z m 14.06752,0.166 c -1.46331,-2.73421 -1.77727,-10.33619 -0.4464,-10.80879 1.12204,-0.39844 3.37888,6.69858 3.37888,10.62545 0,2.56893 -1.60214,2.6691 -2.93248,0.18334 z m 44.93248,0.87384 c 0,-0.55 0.47656,-1 1.05902,-1 0.58246,0 0.7809,0.45 0.44098,1 -0.33992,0.55 -0.81648,1 -1.05902,1 -0.24254,0 -0.44098,-0.45 -0.44098,-1 z m 3,-0.45078 c 0,-4.21504 2.29518,-11.54922 3.61425,-11.54922 2.49473,0 2.60488,2.61986 0.33226,7.90271 -2.12375,4.93679 -3.94651,6.62099 -3.94651,3.64651 z M 87.154812,157.22283 c 0,-1.10389 6.61199,-3.27119 10.92502,-3.58103 6.317648,-0.45386 6.372478,1.68807 0.0778,3.03804 -5.46128,1.17123 -11.00282,1.44471 -11.00282,0.54299 z m -9,-0.8567 c 0,-0.83128 8.66721,-4.59227 10.58291,-4.59227 2.02396,0 1.75072,1.75108 -0.45767,2.93297 -2.37646,1.27185 -10.12524,2.5417 -10.12524,1.6593 z m -94.518318,-3.80925 c -0.855743,-3.40955 -0.211438,-9.28302 1.018323,-9.28302 1.343994,0 1.887234,9.51277 0.615844,10.78416 -0.673511,0.67351 -1.212669,0.17824 -1.634167,-1.50114 z m 169.106236,-0.28919 c -2.28409,-3.48596 -3.71033,-7.49383 -2.66675,-7.49383 1.35875,0 7.07884,6.89658 7.07884,8.5348 0,2.32133 -2.61296,1.70484 -4.41209,-1.04097 z m -33.58791,-0.036 c 0,-2.03853 8.34643,-9.9185 8.86329,-8.36794 0.51002,1.53007 -5.31593,9.34178 -7.25918,9.73346 -0.96656,0.19482 -1.60411,-0.3479 -1.60411,-1.36552 z m -145.000003,-1.6845 c 0,-1.4604 0.477757,-2.95054 1.061683,-3.31142 0.583926,-0.36089 1.496516,-1.79986 2.027978,-3.19771 0.531463,-1.39785 1.166508,-2.34133 1.411213,-2.09663 0.76098,0.76098 -1.601685,8.25463 -3.088807,9.79675 -1.2292,1.27465 -1.412067,1.12042 -1.412067,-1.19099 z m 19.4773472,-0.16753 c -2.092214,-3.19312 -3.131749,-9.60577 -1.557163,-9.60577 1.200803,0 3.392888,4.41488 4.620324,9.30537 0.853989,3.40257 -0.916761,3.57622 -3.063161,0.3004 z m 88.9287478,0.5259 1.9061,-2.13412 -3.21843,1.60556 c -3.6081,1.79996 -5.053995,1.25882 -3.0591,-1.14488 1.28195,-1.54466 6.19821,-4.45823 7.52266,-4.45823 0.36116,0 0.39763,0.675 0.081,1.5 -0.77938,2.03104 -0.24619,1.90879 4.36164,-1 3.98017,-2.51257 7,-3.22654 7,-1.65499 0,1.92417 -7.87319,6.79406 -14.00001,8.65958 -2.48943,0.75799 -2.49194,0.75219 -0.5939,-1.37292 z m -10.400975,-1.41305 c 0.003,-0.67024 1.09794,-3.01862 2.4336,-5.21862 2.395335,-3.94543 2.440715,-3.96711 3.326305,-1.58953 0.74524,2.00078 1.00613,2.12825 1.53502,0.75 0.64763,-1.68771 3.69995,-2.36043 3.69995,-0.81546 0,1.46284 -3.827,4.37994 -4.88681,3.72494 -0.55707,-0.34428 -1.47292,0.2337 -2.035235,1.28439 -1.22399,2.28706 -4.0801,3.5944 -4.07283,1.86428 z M 0.15481722,145.62773 c -5.58108702,-4.00507 -8.96218202,-7.53977 -8.94735502,-9.35384 0.0045,-0.55 0.477887,-0.19278 1.051983,0.79383 0.655405,1.12634 1.718032,1.57984 2.855729,1.21875 2.216707,-0.70355 7.472672,3.49034 9.649296,7.69947 0.845801,1.63559 1.392138,3.11215 1.214083,3.28124 -0.178055,0.16909 -2.798736,-1.46866 -5.82373598,-3.63945 z m 64.40401978,1.61978 c -0.34874,-1.38951 -1.48888,-2.98385 -2.53365,-3.54299 -3.8025,-2.03504 -8.98623,-12.97383 -6.12037,-12.91531 1.93173,0.0394 3.39344,2.02928 5.17184,7.04055 1.06262,2.99427 1.96491,4.65663 2.00509,3.69413 0.0402,-0.9625 0.73073,-1.75 1.53453,-1.75 1.57995,0 4.04868,7.36555 3.02428,9.02307 -1.06884,1.72942 -2.43062,1.04473 -3.08172,-1.54945 z m 5.30677,0.52638 c -0.23763,-0.825 -1.17199,-3.75 -2.07637,-6.5 -1.99247,-6.05868 -2.20565,-12.85469 -0.38442,-12.25523 0.75218,0.24758 1.44913,2.96898 1.75,6.83333 0.30901,3.96883 0.7745,5.75343 1.21862,4.6719 1.18235,-2.87932 2.78138,-1.98312 2.78138,1.55887 0,3.79786 -2.55914,8.22579 -3.28921,5.69113 z m -104.71079,-0.75661 c 0,-1.28058 8.883004,-9.69372 9.540687,-9.03604 0.32044,0.32044 -0.856841,2.22207 -2.616179,4.22585 -3.29199,3.74937 -6.924508,6.27274 -6.924508,4.81019 z m 87.5,-1.46066 c -3.723644,-2.15311 -7.772118,-6.53342 -7.077399,-7.6575 1.262111,-2.04213 7.760739,2.50829 10.948599,7.66637 0.94857,1.53482 -1.21006,1.52987 -3.8712,-0.009 z m 85.840653,-0.22807 c 0.36264,-0.94503 0.65935,-2.80643 0.65935,-4.13645 0,-1.33001 0.42849,-2.41821 0.95219,-2.41821 1.42124,0 0.49151,7.3521 -0.99228,7.8467 -0.85447,0.28482 -1.05989,-0.14377 -0.61926,-1.29204 z m 6.81987,-1.10171 c -1.38354,-3.03654 -1.42226,-3.45295 -0.32104,-3.45295 0.72693,0 3.16052,4.27122 3.16052,5.54705 0,1.43929 -1.85182,0.0736 -2.83948,-2.0941 z m 12.8965,-0.5266 c -4.46617,-3.23528 -4.75245,-4.56869 -0.76607,-3.56817 2.76636,0.69431 7.70905,4.35812 7.70905,5.7144 0,1.75745 -2.71094,0.91944 -6.94298,-2.14623 z m -100.983133,0.66268 c -0.88728,-1.0691 -0.88986,-1.58473 -0.0106,-2.12812 1.07572,-0.66483 2.88621,1.06364 2.92144,2.78909 0.0252,1.23246 -1.65627,0.85064 -2.9108,-0.66097 z m 55.155833,0.22182 c 0.59073,-1.7722 4.88328,-4.62846 8.11062,-5.3968 2.65184,-0.63134 2.75684,-0.54252 1.58219,1.33838 -2.32727,3.72657 -10.75899,7.25696 -9.69281,4.05842 z m -131.20982,-2.88028 c 1.299893,-4.53246 2.202678,-5.03377 1.811994,-1.00618 -0.182543,1.88186 -0.871556,3.5986 -1.531139,3.81498 -0.888952,0.29163 -0.96162,-0.43511 -0.280855,-2.8088 z m 5.563547,0.42627 c -0.34679,-0.90372 -0.424874,-1.84878 -0.17352,-2.10013 0.794735,-0.79474 2.59007,0.80111 2.59007,2.30228 0,1.96152 -1.638879,1.82443 -2.41655,-0.20215 z m 19.2313482,-0.39171 c -2.026861,-1.07055 -3.965919,-2.40066 -4.309017,-2.95581 -0.343098,-0.55514 -1.42751298,-1.00935 -2.40980998,-1.00935 -0.98229802,0 -2.60048502,-0.9 -3.59597102,-2 -1.57634,-1.74184 -1.603964,-2 -0.214005,-2 0.877784,0 1.86194,0.43035 2.187013,0.95633 0.325073,0.52598 1.29826,0.68494 2.16263702,0.35324 1.166606,-0.44766 0.70739,-0.99103 -1.78202502,-2.10856 -2.441198,-1.09588 -2.891755,-1.6173 -1.656027,-1.91648 0.933675,-0.22604 2.67548002,0.11236 3.87067702,0.75201 1.71363698,0.91711 2.00941198,0.89817 1.39895198,-0.0896 -0.600577,-0.97175 0.575345,-1.1302 5.245143,-0.70676 6.5345068,0.59253 10.7133038,2.26204 9.7130178,3.88053 -0.701552,1.13514 -7.7608108,0.2594 -10.8025568,-1.3401 -1.357301,-0.71374 -2.108406,-0.61298 -2.712115,0.36384 -0.597073,0.96609 0.22261,1.88408 2.877174,3.22224 4.1979178,2.11618 7.2121148,4.5353 7.2121148,5.78828 0,1.41189 -3.2912408,0.86688 -7.1852018,-1.18983 z m 125.1852048,1.0906 c 0,-1.34017 4.72243,-6.66283 5.35346,-6.0339 0.91444,0.91141 -2.54431,6.97814 -3.97836,6.97814 -0.75631,0 -1.3751,-0.42491 -1.3751,-0.94424 z m -155.415985,-2.92871 c 1.60396,-2.71528 4.415982,-4.96308 4.415982,-3.52992 0,1.46329 -2.280708,4.48273 -4.135982,5.47565 -2.07879,1.11253 -2.080311,1.10196 -0.28,-1.94573 z m 98.559862,-1.12705 c 0.0743,-6.02963 1.13416,-9.5 2.901195,-9.5 1.97028,0 1.35648,5.8458 -1.101755,10.49319 l -1.85493,3.50681 0.0555,-4.5 z m 74.856943,1.27392 c -1.34479,-1.70963 -1.72314,-2.86648 -1.01471,-3.10262 1.44152,-0.48051 5.01389,2.7141 5.01389,4.48369 0,2.14671 -1.6808,1.56627 -3.99918,-1.38107 z m -23.00082,-0.1044 c 0,-0.45676 2.025,-2.28473 4.5,-4.06214 5.52749,-3.96954 5.91462,-2.81173 0.54923,1.64262 -4.04766,3.36037 -5.04923,3.84031 -5.04923,2.41952 z m -168.760004,-1.38952 c 0.223667,-0.671 2.843988,-2.42557 5.822936,-3.89905 4.737364,-2.34324 5.104209,-2.7258 2.926667,-3.05198 -2.382666,-0.35691 -2.403696,-0.41973 -0.489602,-1.46262 3.314073,-1.80565 7.5,-2.52662 7.5,-1.29178 0,0.61197 -0.868862,1.33988 -1.930803,1.61759 -1.061942,0.2777 -1.730597,1.02664 -1.485901,1.66431 0.244697,0.63767 -1.994263,2.61833 -4.975467,4.40147 -5.702308,3.41069 -8.045023,4.05364 -7.36783,2.02206 z m 127.017986,-0.444 c -0.9033,-0.36171 -0.96188,-1.02077 -0.21482,-2.41667 1.4398,-2.69029 4.18241,-2.50702 3.77638,0.25234 -0.3365,2.28685 -1.49597,2.99145 -3.56156,2.16433 z m 69.493808,-1.17743 c -2.79309,-1.68565 -3.59358,-3.15857 -1.71661,-3.15857 1.50495,0 5.96482,3.07677 5.96482,4.11501 0,1.21753 -1.03039,0.98556 -4.24821,-0.95644 z m -184.69707,-0.72451 c 1.214745,-1.46368 6.169078,-4.43406 7.395617,-4.43406 1.661219,0 0.117589,2.29284 -2.70034,4.01096 -4.094608,2.49653 -6.603718,2.72263 -4.695277,0.4231 z m 191.19528,-0.6 c -4.91808,-1.10137 -5.98378,-3.43082 -1.125,-2.45906 1.71875,0.34375 4.10774,0.625 5.30887,0.625 1.20113,0 3.05738,0.66069 4.125,1.4682 1.84311,1.39405 1.78964,1.46439 -1.05887,1.3929 -1.65,-0.0414 -4.9125,-0.50358 -7.25,-1.02704 z m -36.25,-1.18396 c 0,-1.60421 8.03008,-5.14007 10.10361,-4.44889 1.35173,0.45057 -4.15173,4.13105 -7.85361,5.25216 -1.62899,0.49333 -2.25,0.27163 -2.25,-0.80327 z m -13.75732,-0.87813 c 0.60303,-1.80911 8.58449,-3.86833 13.75732,-3.54941 l 4.5,0.27744 -6.10267,2.25 c -6.76232,2.4932 -12.81469,3.00209 -12.15465,1.02197 z m 28.76789,-3.25923 c -1.87733,-2.26204 -0.46016,-4.51274 2.84147,-4.51274 2.29047,0 3.01404,0.51909 3.37808,2.42346 0.35061,1.83408 -0.0466,2.56035 -1.63342,2.98635 -2.98573,0.80155 -3.21335,0.75703 -4.58613,-0.89707 z m 13.72719,0.79558 c -2.4207,-0.63144 -1.15706,-2.30832 1.73947,-2.30832 3.22175,0 5.62761,1.02134 4.95801,2.10479 -0.56951,0.92148 -3.59289,1.01336 -6.69748,0.20353 z m -168.421034,-1.00531 c -4.158154,-0.80872 -1.584247,-7.18911 2.933271,-7.27121 1.093934,-0.0199 1.75,0.71799 1.75,1.9682 0,1.1 0.45,2 1.0000002,2 0.55,0 1,0.45 1,1 0,0.55 -0.675,1 -1.5000002,1 -0.825,0 -1.5,0.45 -1.5,1 0,0.55 -0.3375,0.93872 -0.75,0.86382 -0.4125,-0.0749 -1.732472,-0.32726 -2.933271,-0.56081 z m 13.9332712,-1.00874 c -2.648093,-0.51005 -3.040617,-2.30044 -0.5,-2.28061 3.096919,0.0242 6.24363,1.18763 5.679736,2.10003 -0.561631,0.90874 -1.270843,0.93346 -5.179736,0.18058 z m -41.7189912,-1.2441 c -0.910662,-1.47348 2.52242,-2.82223 7.324433,-2.87755 2.395493,-0.0276 4.607993,-0.30272 4.916667,-0.61139 0.308673,-0.30868 -0.387218,-0.56123 -1.546425,-0.56123 -3.244219,0 -3.763357,-1.99224 -0.534701,-2.05196 2.257001,-0.0417 1.580795,-0.56772 -3.440983,-2.67651 -3.4375,-1.4435 -6.25,-2.99512 -6.25,-3.44804 0,-1.9159 5.670789,-0.48089 13.5,3.41621 1.63889,0.81578 1.774306,0.75762 0.75,-0.32209 -3.361638,-3.54346 0.415021,-3.97064 4.444236,-0.50268 3.043458,2.61951 2.705261,4.40443 -0.508629,2.68441 -1.537734,-0.82298 -2.11395,-0.72846 -2.554261,0.41898 -0.312717,0.81492 -0.0202,1.49763 0.650039,1.51712 0.670238,0.0195 0.235699,0.58199 -0.965644,1.25 -1.201342,0.66801 -2.187284,1.66456 -2.190983,2.21456 -0.01392,2.06962 -12.399783,3.48205 -13.593749,1.55017 z m 164.162844,0.31035 c -0.35171,-0.35171 -0.40015,-1.02671 -0.10765,-1.5 0.69927,-1.13143 10.13787,-1.11599 10.83855,0.0177 0.93053,1.50563 -9.29507,2.9181 -10.7309,1.48228 z M 5.1548172,127.09898 c -4.76088298,-0.8059 -5.70742198,-1.45179 -3.5,-2.3883 1.336542,-0.56704 0.50722,-0.69498 -2.49999998,-0.38568 l -4.50000002,0.46283 3,-1.46188 c 3.453596,-1.68291 9.994923,-2.16443 7.5,-0.55209 -1.0702,0.69162 0.07594,0.97815 4,1 4.9899368,0.0278 9.1611898,1.24053 7.9710398,2.3175 -0.809739,0.73273 -9.3488938,1.45148 -11.9710398,1.00762 z m 151.0000028,-0.0195 c 0,-1.03954 7.89335,-3.3056 11.51435,-3.3056 2.35162,0 3.36561,1.35959 1.73565,2.3272 -1.62244,0.96314 -13.25,1.82174 -13.25,0.97839 z m -3.55887,-2.73385 c 1.06762,-0.86446 3.07012,-1.57175 4.45,-1.57175 3.51748,0 1.44642,1.80928 -2.92238,2.553 -3.27756,0.55795 -3.36176,0.50387 -1.52762,-0.98125 z m -22.66377,-0.12775 c -0.30579,-0.30578 -3.69544,-0.7063 -7.53256,-0.89004 -7.68485,-0.36799 -11.2448,-1.19787 -11.2448,-2.62137 0,-1.33557 3.9579,-1.15057 9.21167,0.43058 4.27527,1.28667 4.50219,1.2586 4.0423,-0.5 -0.74794,-2.86012 2.22345,-2.30984 5.98025,1.1075 2.23021,2.02868 2.76371,2.97998 1.68245,3 -0.87084,0.0161 -1.83353,-0.22088 -2.13931,-0.52667 z m 2.67489,-4.09004 c -2.54061,-2.74137 -3.22709,-5.35398 -1.4068,-5.35398 1.60524,0 5.95455,4.71452 5.95455,6.45455 0,2.30673 -1.79185,1.8731 -4.54775,-1.10057 z m 15.54775,1.80101 c 0,-1.20106 3.43293,-4.15499 4.82874,-4.15499 1.71632,0 1.4302,1.45569 -0.65748,3.34501 -1.95482,1.7691 -4.17126,2.19948 -4.17126,0.80998 z M -1.3451828,119.89713 c -1.777039,-0.73401 -1.529476,-1.06623 2.22067302,-2.98005 3.26415098,-1.6658 4.08975898,-1.81279 3.64301098,-0.64858 -0.730274,1.90307 -0.01376,1.89289 3.749654,-0.0533 1.65771,-0.85723 4.4478628,-1.39686 6.2003398,-1.19917 l 3.186322,0.35944 -4.542481,2.15417 c -5.2928698,2.51003 -11.6085158,3.54422 -14.4575188,2.36744 z M 141.29191,118.07876 c 0.18572,-4.20874 0.86954,-6.29082 1.98195,-6.03458 0.54844,0.12632 1.75852,-1.99061 2.68906,-4.7043 1.8749,-5.46764 4.1919,-7.24438 4.1919,-3.21445 0,3.69413 -1.45836,6.92172 -4.38075,9.69533 -1.42158,1.34921 -2.59247,3.21404 -2.60197,4.14409 -0.01,0.93004 -0.46428,1.96724 -1.01062,2.3049 -0.57663,0.35638 -0.94142,-0.56275 -0.86957,-2.19099 z m 3.86291,1.38623 c 0,-1.93375 2.7178,-5.30666 3.58068,-4.44378 0.94419,0.94419 -1.195,5.75265 -2.55924,5.75265 -0.56179,0 -1.02144,-0.58899 -1.02144,-1.30887 z m 10.00683,0.62626 c 0.009,-1.08711 6.5279,-5.48931 8.4003,-5.67278 2.5893,-0.25372 2.00118,1.7986 -1.0031,3.50048 -3.77929,2.14091 -7.40584,3.2059 -7.3972,2.1723 z m -18.27237,-2.28989 c -1.9169,-2.73258 -2.30486,-6.0275 -0.70971,-6.0275 1.2675,0 3.16553,4.77688 2.75006,6.92123 -0.23664,1.22134 -0.69857,1.019 -2.04035,-0.89373 z m -159.712139,-2.23119 c -1.071554,-1.76203 -1.738165,-3.4138 -1.481359,-3.67061 0.733112,-0.73311 5.459035,4.07036 5.459035,5.54862 0,2.34755 -1.975037,1.41507 -3.977676,-1.87801 z m 144.845569,-1.04631 c -2.86387,-2.3375 -5.39323,-4.8125 -5.6208,-5.5 -1.32338,-3.99804 8.89421,2.54096 11.34162,7.25835 1.8629,3.59075 0.2106,3.0829 -5.72082,-1.75835 z m -126.5380238,1.83276 c 0.692696,-1.80514 -1.724486,-2.78814 -3.208014,-1.30461 -1.660928,1.66093 -1.392472,-0.5381 0.346342,-2.83702 0.90553,-1.19722 1.480384,-1.43946 1.5,-0.63211 0.04801,1.97591 1.830434,0.47023 4.557725,-3.85008 2.764709,-4.37958 6.474078,-6.99848 6.474078,-4.57085 0,0.80216 -1.127829,2.79881 -2.506287,4.43702 -1.508798,1.7931 -2.25896398,3.62306 -1.88486398,4.59795 0.50862098,1.32545 1.41331398,0.88946 4.98394398,-2.40183 5.7427378,-5.29347 8.4816938,-5.42799 4.8465028,-0.23802 -1.8957908,2.70662 -7.1278368,5.55029 -8.9355968,4.85658 -0.72368298,-0.2777 -2.10281198,0.36474 -3.064731,1.42765 -2.041666,2.25602 -3.89494,2.56319 -3.109099,0.51532 z m -13.6219052,-3.33276 c -1.705081,-4.24587 -1.249165,-5.71062 0.873797,-2.8073 1.267876,1.73393 2.021981,6.5573 1.025193,6.5573 -0.216175,0 -1.070721,-1.6875 -1.89899,-3.75 z m -13.457964,-1.50281 c -5.010996,-3.81285 -6.732415,-6.74719 -3.958208,-6.74719 1.695382,0 10.045253,8.52672 9.573201,9.77596 -0.200746,0.53126 -2.727493,-0.83169 -5.614993,-3.02877 z m 18.781803,2.5846 c -0.04116,-2.8061 0.941865,-5.33179 2.075186,-5.33179 1.3995562,0 1.0461762,3.41524 -0.575186,5.55887 -1.436666,1.89945 -1.468879,1.89457 -1.5,-0.22708 z m 164.9682,-0.19693 c 0,-1.64062 3.95672,-5.89028 5.97588,-6.4183 2.86144,-0.74828 2.51129,0.95012 -0.89896,4.36037 -2.87109,2.87109 -5.07692,3.76522 -5.07692,2.05793 z m -22.364,-3.93861 c -2.97009,-4.28585 -3.32826,-6.19625 -1.16168,-6.19625 1.45551,0 3.61541,3.37051 4.96638,7.75 1.0689,3.46509 -0.87748,2.67023 -3.8047,-1.55375 z m 7.54132,-0.94625 c -1.65303,-5.42427 -1.83942,-8.50869 -0.54099,-8.95249 1.42334,-0.48649 3.36367,4.90805 3.36367,9.35172 0,4.45295 -1.40453,4.2543 -2.82268,-0.39923 z m -162.140284,-1.7474 c -3.916913,-5.00131 -5.360891,-8.18441 -4.073662,-8.97996 1.295996,-0.80097 3.798663,2.07426 6.575851,7.55478 1.353425,2.67085 2.460772,5.09605 2.460772,5.38934 0,1.488 -1.850668,0.01 -4.962961,-3.96416 z m 9.116386,1.9974 c -1.87018,-4.23916 -2.679137,-13.05706 -1.277341,-13.92341 1.812151,-1.11997 3.238778,4.20844 2.905466,10.85184 -0.299519,5.96986 -0.326794,6.02131 -1.628125,3.07157 z m 7.4620402,-3.5 c 0.750584,-6.3264 2.009391,-9.2929 3.702239,-8.72468 2.4249,0.81395 1.103226,7.36272 -2.366276,11.72468 l -1.9885,2.5 z"
         id="path391"
         inkscape:connector-curvature="0" />
    </g>
  </g>
</svg>
