<?xml version="1.0" encoding="UTF-8" standalone="no"?>
<!-- Created with Inkscape (http://www.inkscape.org/) -->

<svg
   xmlns:dc="http://purl.org/dc/elements/1.1/"
   xmlns:cc="http://creativecommons.org/ns#"
   xmlns:rdf="http://www.w3.org/1999/02/22-rdf-syntax-ns#"
   xmlns:svg="http://www.w3.org/2000/svg"
   xmlns="http://www.w3.org/2000/svg"
   xmlns:sodipodi="http://sodipodi.sourceforge.net/DTD/sodipodi-0.dtd"
   xmlns:inkscape="http://www.inkscape.org/namespaces/inkscape"
   version="1.1"
   id="svg2949"
   width="283"
   height="443"
   viewBox="0 0 283 443"
   sodipodi:docname="feu96.svg"
   inkscape:version="0.92.4 (5da689c313, 2019-01-14)">
  <metadata
     id="metadata2955">
    <rdf:RDF>
      <cc:Work
         rdf:about="">
        <dc:format>image/svg+xml</dc:format>
        <dc:type
           rdf:resource="http://purl.org/dc/dcmitype/StillImage" />
        <dc:title></dc:title>
      </cc:Work>
    </rdf:RDF>
  </metadata>
  <defs
     id="defs2953" />
  <sodipodi:namedview
     pagecolor="#ffffff"
     bordercolor="#666666"
     borderopacity="1"
     objecttolerance="10"
     gridtolerance="10"
     guidetolerance="10"
     inkscape:pageopacity="0"
     inkscape:pageshadow="2"
     inkscape:window-width="1280"
     inkscape:window-height="972"
     id="namedview2951"
     showgrid="false"
     inkscape:zoom="1.5067919"
     inkscape:cx="151.7376"
     inkscape:cy="221.34636"
     inkscape:window-x="-8"
     inkscape:window-y="-8"
     inkscape:window-maximized="1"
     inkscape:current-layer="g180"
     showguides="true" />
  <g
     id="g151"
     transform="translate(25.882805,-2.654647)">
    <g
       id="g180"
       transform="translate(23.228158,-38.492376)">
      <path
         style="fill:#ffff00"
         d="m 124.83575,414.27177 c -0.34026,-0.55 -0.91657,-2.65241 -1.28068,-4.67202 -0.74396,-4.12645 0.98328,-6.33388 1.94811,-2.48971 0.73209,2.91689 0.20506,8.57203 -0.66743,7.16173 z m -11.80718,-2.03571 c 0.0408,-1.08036 0.94694,-3.76429 2.01367,-5.96429 l 1.9395,-4 -0.43696,4.38758 c -0.45258,4.54435 -3.66988,9.647 -3.51621,5.57671 z m 22.21713,-1.71429 c -2.60341,-2.8472 -5.3939,-8.31405 -4.63248,-9.07548 0.922,-0.922 7.34119,7.315 7.34119,9.42009 0,2.41751 -0.20721,2.39115 -2.70871,-0.34461 z m -33.29129,-1.57 c 0,-1.21727 7.00679,-9.18 8.07792,-9.18 1.68684,0 0.95715,1.59904 -2.65584,5.82 -3.37367,3.94137 -5.42208,5.21075 -5.42208,3.36 z m -52.467545,-5.93574 c -1.263645,-3.25523 -1.880617,-15.24426 -0.784486,-15.24426 1.466406,0 2.103876,2.09759 2.849646,9.3768 0.63656,6.21317 -0.58437,9.68203 -2.06516,5.86746 z m 69.977625,0.77205 c -0.73755,-1.19337 0.19857,-3.01631 1.54894,-3.01631 1.2168,0 1.22469,2.70662 0.0101,3.45729 -0.512,0.31644 -1.21356,0.11799 -1.55902,-0.44098 z m -7.51008,-0.90553 c 0,-0.48906 0.88503,-1.95156 1.96673,-3.25 2.09904,-2.5196 2.75318,-1.07447 0.99809,2.20496 -1.05753,1.976 -2.96482,2.64829 -2.96482,1.04504 z m 14.63278,-1.62535 c -0.87928,-2.29136 -0.79012,-3.48543 0.26023,-3.48543 1.34079,0 2.30352,3.20347 1.27256,4.23443 -0.53334,0.53334 -1.15781,0.22819 -1.53279,-0.749 z m -32.132782,-1.12636 c 2.94814,-2.32509 9.704622,-5.31568 12.000002,-5.31151 1.3404,0.002 0.20138,1.14949 -3.45366,3.47804 -2.99952,1.91092 -6.599522,3.46009 -8.000002,3.4426 -2.4983,-0.0312 -2.50861,-0.0616 -0.54634,-1.60913 z m 45.229462,-1.06285 c -5.77344,-3.21331 -4.8931,-5.44067 0.96846,-2.45033 4.54164,2.31697 7.41912,5.16957 5.17452,5.12978 -0.75484,-0.0134 -3.51918,-1.21913 -6.14298,-2.67945 z M 37.954405,398.40512 c 0,-0.75165 0.993761,-3.7579 2.208357,-6.68054 1.591841,-3.8304 1.871015,-5.42635 1,-5.71669 -1.700151,-0.56672 -1.467813,-2.34086 0.670789,-5.12215 2.297277,-2.98766 3.493917,-1.38694 1.637765,2.19079 -0.852565,1.64333 -1.008691,2.8913 -0.408144,3.26246 1.033078,0.63848 0.70537,2.36148 -1.74653,9.18278 -1.471029,4.09247 -3.362237,5.71431 -3.362237,2.88335 z m 22.35541,0.18318 c -1.24279,-1.93661 -3.35541,-5.98557 -3.35541,-6.43084 0,-1.52931 2.00456,0.20758 3.54867,3.07483 1.76599,3.27925 1.6006,6.15134 -0.19326,3.35601 z m 46.644595,-0.0657 c 0,-1.22574 4.86693,-4.75079 6.55928,-4.75079 1.05888,0 -2.67706,3.99267 -4.79809,5.12781 -1.268,0.67861 -1.76119,0.57304 -1.76119,-0.37702 z m 23.97994,-1.27496 c -2.06068,-2.48297 -0.11665,-3.05699 2.27006,-0.67027 1.76363,1.76363 1.88038,2.19444 0.59467,2.19444 -0.87988,0 -2.16901,-0.68587 -2.86473,-1.52417 z M 28.954405,393.87992 c 0,-1.52488 9.394299,-11.42525 9.770454,-10.29679 0.394553,1.18366 -2.070869,5.47999 -5.129386,8.93864 -1.994597,2.25554 -4.641068,3.03 -4.641068,1.35815 z m 37.57698,-2.0278 c -3.86033,-4.02932 -2.91033,-6.07317 1.21097,-2.60532 2.97823,2.50601 4.28917,5.52497 2.39914,5.52497 -0.4471,0 -2.07165,-1.31384 -3.61011,-2.91965 z m 37.622735,0.82053 c 0.47713,-1.43139 6.28744,-3.26711 8.14269,-2.57261 1.11083,0.41583 -1.1765,1.57341 -6.21071,3.14314 -1.7354,0.54112 -2.25171,0.38865 -1.93198,-0.57053 z m 15.98889,-0.61466 c -1.83272,-0.35 -2.24766,-0.99485 -2.00361,-3.11382 0.37202,-3.2302 1.46371,-4.13693 5.0051,-4.15709 2.20594,-0.0125 2.64193,0.38963 2.42249,2.23469 -0.33922,2.85237 -1.63204,5.7912 -2.46957,5.61382 -0.35365,-0.0749 -1.68314,-0.33482 -2.95441,-0.5776 z m -28.188602,-1.01547 c 0,-1.06138 5.45558,-2.24111 10.450002,-2.25974 2.07369,-0.008 2.63585,0.30314 1.89245,1.04654 -1.44636,1.44636 -12.342452,2.51738 -12.342452,1.2132 z m 40.000002,-0.27075 c 0,-1.2702 3.03451,-1.2702 5,0 1.13826,0.7356 0.71622,0.97307 -1.75,0.98469 -1.7875,0.008 -3.25,-0.43469 -3.25,-0.98469 z m 2.5,-1.88952 c -1.65,-0.35909 -2.51687,-0.95835 -1.92639,-1.33169 1.52097,-0.96164 16.21751,-1.321 17.1199,-0.41861 2.2159,2.21589 -7.76881,3.36613 -15.19351,1.7503 z m -89.500005,-1.05146 c 0,-0.51754 0.45,-1.2191 1,-1.55902 0.55,-0.33992 1,0.0835 1,0.94098 0,0.85746 -0.45,1.55902 -1,1.55902 -0.55,0 -1,-0.42344 -1,-0.94098 z m -23.539578,-1.99498 c 0.809883,-1.31042 11.4939,-6.44305 12.116263,-5.82069 0.806598,0.8066 -8.710408,6.75665 -10.807147,6.75665 -1.038164,0 -1.627267,-0.42118 -1.309116,-0.93596 z m 29.539578,-1.06404 c 0,-1.1 0.45,-2 1,-2 0.55,0 1,0.9 1,2 0,1.1 -0.45,2 -1,2 -0.55,0 -1,-0.9 -1,-2 z m 52.000005,1 c 0,-1.27768 6.02294,-1.27768 8,0 1.08489,0.70111 0.18547,0.97361 -3.25,0.98469 -2.6125,0.008 -4.75,-0.43469 -4.75,-0.98469 z m 28.5,-1 c 0.33992,-0.55 1.71648,-1 3.05902,-1 1.34254,0 2.44098,0.45 2.44098,1 0,0.55 -1.37656,1 -3.05902,1 -1.7847,0 -2.80156,-0.41658 -2.44098,-1 z m -63.000005,-3.70364 c -2.75,-1.43578 -4.4995,-2.78167 -3.88777,-2.99085 1.57429,-0.53833 10.72059,3.19294 11.17604,4.55931 0.59677,1.79029 -1.87328,1.25873 -7.28827,-1.56846 z m -33.5,1.20364 c 0,-0.275 0.9375,-1.4375 2.083333,-2.58333 2.612464,-2.61247 3.887408,-1.64681 1.422215,1.0772 -1.693913,1.87175 -3.505548,2.65011 -3.505548,1.50613 z m 61.250003,-0.20573 c -1.2375,-0.23836 -2.25,-0.91475 -2.25,-1.50311 0,-1.28276 9.117662,-0.40479 11.755842,1.13201 1.35398,0.78872 0.73749,0.99235 -2.75584,0.91024 -2.475,-0.0582 -5.512502,-0.30079 -6.750002,-0.53914 z m 33.750002,-0.27122 c 0,-1.37983 4.91589,-4.4405 5.76627,-3.59012 0.38712,0.38712 -0.41443,1.56307 -1.78121,2.61323 -2.77731,2.13392 -3.98506,2.42998 -3.98506,0.97689 z m 5,0.18824 c 0,-1.52277 10.95028,-7.44435 12.5974,-6.81229 2.56007,0.98239 0.0696,3.20775 -6.22602,5.56324 -6.14032,2.29739 -6.37138,2.34268 -6.37138,1.24905 z m -74.868885,-1.5533 c -0.61257,-0.7381 -0.8335,-1.62227 -0.49096,-1.96482 0.81298,-0.81298 4.35984,1.09231 4.35984,2.34201 0,1.42387 -2.58314,1.17203 -3.86888,-0.37719 z m 48.221215,0.29553 c -2.601,-0.98505 -4.00227,-2.95352 -2.10248,-2.95352 1.64832,0 5.45228,2.64489 4.74858,3.30168 -0.27414,0.25586 -1.46488,0.0992 -2.6461,-0.34816 z m 18.68094,-1.01239 c -0.0477,-2.23655 2.5129,-5.48446 3.30873,-4.19678 0.356,0.57602 -0.23534,2.1067 -1.31409,3.40149 -1.45182,1.74256 -1.97001,1.94917 -1.99464,0.79529 z m -96.033275,-2.76675 c 0,-0.57178 0.7875,-1.2531 1.75,-1.51405 5.026117,-1.36263 7.25,-1.60937 7.25,-0.80438 0,0.49173 -1.2375,1.14379 -2.75,1.44902 -1.5125,0.30523 -3.5375,0.85963 -4.5,1.23199 -0.978595,0.37859 -1.75,0.21876 -1.75,-0.36258 z m 81.000005,-1.17438 c -0.5887,-1.1 -0.69453,-2 -0.23518,-2 1.06323,0 3.23518,2.14833 3.23518,3.2 0,1.55216 -1.94304,0.77494 -3,-1.2 z m -65.979643,0.0337 c -0.8138,-0.5146 -1.546132,-2.25778 -1.627403,-3.87374 -0.13269,-2.63837 0.222301,-2.99932 3.479638,-3.53806 5.569463,-0.92114 5.794073,-0.82895 5.794073,2.37805 0,1.68165 -0.53213,3 -1.21089,3 -0.66599,0 -1.77109,0.675 -2.45578,1.5 -1.443519,1.73933 -1.962912,1.80899 -3.979638,0.53375 z m 58.711773,-1.5698 c -3.73693,-2.53932 -4.828572,-4.48966 -2.48213,-4.43464 1.23294,0.0289 7.75,5.45833 7.75,6.45659 0,1.068 -1.65599,0.43238 -5.26787,-2.02195 z m 18.26787,1.09512 c 0,-0.85746 0.45,-1.55902 1,-1.55902 0.55,0 1,0.42344 1,0.94098 0,0.51754 -0.45,1.2191 -1,1.55902 -0.55,0.33992 -1,-0.0835 -1,-0.94098 z M 18.954405,374.85463 c 0,-0.98743 8.529721,-3.08286 12.549221,-3.08286 4.252522,0 2.658282,1.78977 -2.598442,2.91714 -6.175001,1.3243 -9.950779,1.38718 -9.950779,0.16572 z m 44.01008,-0.0331 c -1.36945,-0.34935 -2.04445,-0.88258 -1.5,-1.18495 0.54446,-0.30237 2.11038,-0.26394 3.47984,0.0854 1.36945,0.34935 2.04445,0.88258 1.5,1.18495 -0.54446,0.30237 -2.11038,0.26394 -3.47984,-0.0854 z m 53.989925,-0.10878 c 0,-0.58246 0.45,-0.7809 1,-0.44098 0.55,0.33992 1,0.81648 1,1.05902 0,0.24254 -0.45,0.44098 -1,0.44098 -0.55,0 -1,-0.47656 -1,-1.05902 z m 17,-0.0772 c 0,-1.40338 4.9221,-6.86378 6.18709,-6.86378 1.59877,0 0.77304,2.68726 -1.43709,4.67692 -3.26729,2.94135 -4.75,3.62397 -4.75,2.18682 z m -14,-6.86378 c 0,-5.74178 1.10338,-7.77894 2.39301,-4.41821 1.35924,3.54211 0.36923,10.41821 -1.5,10.41821 -0.49115,0 -0.89301,-2.7 -0.89301,-6 z m -54.000005,4.10504 c 0,-0.98004 6.1715,-1.79372 9.75,-1.28549 4.63941,0.6589 2.02261,2.18045 -3.75,2.18045 -3.3,0 -6,-0.40273 -6,-0.89496 z m 62.477475,-2.83663 c 0.92571,-4.93445 2.46439,-7.72655 3.62073,-6.57021 0.55055,0.55055 0.278,2.77627 -0.68665,5.60736 -1.93623,5.68254 -3.94305,6.3411 -2.93408,0.96285 z m -97.223557,0.48159 c 0.46575,-1.38423 5.660161,-1.14169 7.196082,0.33601 0.579559,0.55759 -0.720235,0.91399 -3.333333,0.91399 -2.984312,0 -4.155781,-0.37909 -3.862749,-1.25 z m 26.246082,-0.75 c 0.33992,-0.55 1.76462,-1 3.16601,-1 1.83237,0 2.38934,-0.41337 1.98316,-1.47186 -0.62964,-1.64082 7.00864,-5.55316 10.72795,-5.49487 2.09777,0.0329 2.09542,0.0562 -0.19848,1.96807 -1.27674,1.06415 -3.92384,2.23543 -5.88243,2.60287 -2.98786,0.56052 -3.27899,0.82592 -1.80866,1.64876 1.4266,0.79837 1.4977,1.14204 0.38243,1.84855 -1.93594,1.22638 -9.13669,1.13904 -8.36998,-0.10152 z m 52.250005,-2.46953 c -2.13112,-2.93082 -2.17956,-3.53047 -0.28518,-3.53047 1.45709,0 3.53518,2.90052 3.53518,4.93426 0,1.75522 -1.3893,1.15513 -3.25,-1.40379 z m -86.500005,-0.69641 c -4.556942,-1.0205 -5.772289,-2.83406 -1.899223,-2.83406 3.408416,0 8.741277,2.04204 8.089019,3.09741 -0.629039,1.01781 -0.431301,1.02622 -6.189796,-0.26335 z m 11.19113,-0.30226 c -1.756397,-1.32847 -1.774587,-1.47122 -0.19113,-1.5 0.9625,-0.0175 1.75,0.3852 1.75,0.89488 0,0.50967 0.7875,1.13247 1.75,1.38399 1.359588,0.3553 1.402227,0.48321 0.19113,0.57333 -0.857379,0.0638 -2.432379,-0.54469 -3.5,-1.3522 z m 24.55887,-1.59024 c 0,-1.08715 3.98554,-3.28935 4.68578,-2.58911 0.28297,0.28297 0.25144,0.94011 -0.0701,1.46031 -0.7929,1.28293 -4.61572,2.21783 -4.61572,1.1288 z m -4.81873,-6.355 c -0.19154,-6.95203 2.04791,-13.75738 3.91333,-11.89196 0.83595,0.83595 -0.37067,6.23351 -2.58574,11.56674 -0.56189,1.35288 -0.35786,1.61795 0.8798,1.14301 2.13808,-0.82046 2.04353,0.84035 -0.20599,3.61839 -1.80182,2.22515 -1.8189,2.1873 -2.0014,-4.43618 z m -22.18127,2.54818 c -5.465911,-3.43412 -8.007059,-6.13474 -5.772483,-6.13474 1.633332,0 8.503814,4.73307 10.644928,7.33328 2.014078,2.44593 0.229627,2.00699 -4.872445,-1.19854 z m 6.494452,0.85913 c -0.998538,-1.10337 -1.521041,-2.30061 -1.161119,-2.66054 0.729229,-0.72923 4.666667,2.49524 4.666667,3.82166 0,1.45986 -1.618842,0.92367 -3.505548,-1.16112 z m 11.505548,-2.49387 c 0,-1.375 0.45,-2.5 1,-2.5 0.55,0 1,1.125 1,2.5 0,1.375 -0.45,2.5 -1,2.5 -0.55,0 -1,-1.125 -1,-2.5 z m -5.25,0.92304 c -0.4125,-0.416 -0.75,-1.67137 -0.75,-2.78971 0,-1.47178 0.302073,-1.73126 1.09378,-0.93955 0.601579,0.60158 0.939079,1.85695 0.75,2.78971 -0.189079,0.93276 -0.68128,1.35556 -1.09378,0.93955 z m 15.25,-0.22687 c 0,-1.2463 6.44714,-7.19617 7.79761,-7.19617 2.22123,0 1.23037,1.80978 -2.69151,4.91597 -4.01499,3.17993 -5.1061,3.66718 -5.1061,2.2802 z M 36.536612,352.6871 c -3.556162,-4.22626 -2.080076,-6.15616 1.577552,-2.06256 1.562133,1.74833 2.840241,3.62168 2.840241,4.16301 0,1.85126 -1.82128,0.98533 -4.417793,-2.10045 z m 9.576081,-0.78135 c -1.47506,-4.92331 -1.461038,-5.13398 0.341712,-5.13398 0.884843,0 1.5056,0.92274 1.513655,2.25 0.0075,1.2375 0.284994,3.2625 0.616631,4.5 1.054044,3.93317 -1.263304,2.41824 -2.471998,-1.61602 z m 135.270237,-1.24963 c -0.82774,-1.33932 -0.83592,-11.81028 -0.01,-12.63634 1.17678,-1.17678 1.81516,0.79571 2.32891,7.19598 0.3488,4.34533 0.16279,6.55601 -0.55164,6.55601 -0.59284,0 -1.38818,-0.50204 -1.76741,-1.11565 z m -10.68269,-2.47185 c -1.15356,-1.15356 -0.88136,-4.87697 0.45417,-6.2125 1.55464,-1.55464 2.81197,-1.53182 2.7549,0.05 -0.0847,2.34623 -2.46133,6.91024 -3.20907,6.1625 z m 22.05554,-3.1625 c -1.66597,-1.93254 -4.80137,-8.07333 -4.80137,-9.40364 0,-0.4655 0.38274,-0.84636 0.85052,-0.84636 0.94786,0 7.14948,9.59929 7.14948,11.06645 0,1.48433 -1.55805,1.08664 -3.19863,-0.81645 z m -33.80137,-1.05572 c 0,-1.20864 4.83404,-7.5219 6.4534,-8.42814 2.72152,-1.52304 2.48359,1.02076 -0.47786,5.10893 -2.65576,3.66617 -5.97554,5.51019 -5.97554,3.31921 z M 25.954405,339.89389 c 0,-0.48283 0.765865,-2.62033 1.701921,-4.75 1.367224,-3.11063 1.769465,-3.46591 2.045379,-1.80658 0.428817,2.57889 -1.349327,7.43446 -2.722549,7.43446 -0.563613,0 -1.024751,-0.39504 -1.024751,-0.87788 z m 9,-1.18114 c 0,-1.13246 0.45,-1.7809 1,-1.44098 0.55,0.33992 1,1.26648 1,2.05902 0,0.79254 -0.45,1.44098 -1,1.44098 -0.55,0 -1,-0.92656 -1,-2.05902 z m 6.345077,0.51589 c -0.325685,-0.84872 -0.341501,-1.79378 -0.03515,-2.10013 0.875711,-0.87571 2.69007,0.60965 2.69007,2.20228 0,1.91885 -1.907556,1.84546 -2.654923,-0.10215 z m 135.024638,-2.70687 c 0.33164,-1.2375 0.60913,-2.8125 0.61664,-3.5 0.008,-0.6875 0.46365,-1.25 1.01365,-1.25 0.55,0 1,1.575 1,3.5 0,2.55667 -0.43572,3.5 -1.61663,3.5 -1.1885,0 -1.45695,-0.59587 -1.01366,-2.25 z m 20.74495,-2.13317 c -2.36596,-2.41074 -3.89837,-4.63247 -3.40534,-4.93718 1.00452,-0.62083 10.29068,6.95755 10.29068,8.39816 0,2.08856 -2.83982,0.6611 -6.88534,-3.46098 z m -43.11466,2.55748 c 0,-1.2541 4.10426,-4.74034 7.75,-6.58302 4.41603,-2.232 4.08834,-0.58141 -0.75288,3.79235 -3.74397,3.38245 -6.99712,4.67991 -6.99712,2.79067 z m -56.602682,-3.41092 c 0.35603,-1.78013 1.31228,-3.90156 2.125,-4.71428 1.303572,-1.30357 1.477682,-1.22445 1.477682,0.6715 0,3.12844 -1.767872,7.27939 -3.100252,7.27939 -0.76284,0 -0.93192,-1.08916 -0.50243,-3.23661 z m 9.602682,-0.88006 c 0,-2.6131 0.3564,-3.91289 0.91399,-3.33333 1.4777,1.53592 1.72024,6.73033 0.33601,7.19608 -0.87091,0.29303 -1.25,-0.87843 -1.25,-3.86275 z m 76.58295,3.25088 c -0.43077,-0.697 -0.51316,-1.53733 -0.18309,-1.86741 0.89497,-0.89496 1.87077,0.4213 1.38739,1.87145 -0.33872,1.01617 -0.57427,1.01538 -1.2043,-0.004 z m -165.924301,-4.2544 c 1.716106,-1.71611 3.658304,-2.94082 4.315996,-2.72159 1.588471,0.52949 -3.723822,5.84178 -5.841783,5.84178 -1.133205,0 -0.691853,-0.90255 1.525787,-3.12019 z m 30.341346,1.62019 c 0,-0.825 0.45,-1.5 1,-1.5 0.55,0 1,0.675 1,1.5 0,0.825 -0.45,1.5 -1,1.5 -0.55,0 -1,-0.675 -1,-1.5 z m 68.615015,-0.96482 c -1.81618,-2.77183 -2.07735,-4.53518 -0.67171,-4.53518 1.19738,0 4.0567,4.03344 4.0567,5.72251 0,2.05195 -1.63929,1.47695 -3.38499,-1.18733 z m 55.0803,0.52197 c 0.29587,-1.13143 0.93547,-2.05715 1.42132,-2.05715 1.34882,0 1.05288,1.61443 -0.53796,2.93471 -1.16625,0.9679 -1.32478,0.81041 -0.88336,-0.87756 z m -7.69531,0.0317 c 0,-1.56903 6.11378,-6.13661 7.26315,-5.42626 0.673,0.41594 -0.21064,1.765 -2.2969,3.50669 -3.50664,2.92747 -4.96625,3.49164 -4.96625,1.91957 z m -75.628062,-2.84125 c 1.60251,-3.09891 5.37886,-6.83017 6.14118,-6.06786 0.70857,0.70858 -5.3107,8.82022 -6.54507,8.82022 -0.59472,0 -0.42645,-1.14666 0.40389,-2.75236 z m 100.086942,1.68583 c -0.36253,-0.58659 -0.41903,-1.30665 -0.12555,-1.60014 0.71632,-0.71631 2.66667,0.54583 2.66667,1.72569 0,1.27797 -1.72641,1.19267 -2.54112,-0.12555 z M 54.609395,329.94303 c -2.79532,-3.08879 -2.03503,-4.50883 1.34501,-2.51219 3.08402,1.82178 4.04445,4.34093 1.65499,4.34093 -0.73976,0 -2.08976,-0.82293 -3,-1.82874 z m -13.07154,-1.81439 c -0.34679,-0.90372 -0.424874,-1.84878 -0.17352,-2.10013 0.794735,-0.79474 2.59007,0.80111 2.59007,2.30228 0,1.96152 -1.638879,1.82443 -2.41655,-0.20215 z m 106.849725,0.535 c -0.94606,-1.53077 1.12248,-2.64145 7.33982,-3.94103 7.13657,-1.49172 8.71748,-0.6242 3.22701,1.77082 -6.39972,2.79164 -9.75666,3.48109 -10.56683,2.17021 z m 12.56683,-0.31031 c 0,-0.95566 6.8817,-4.57806 8.61803,-4.53637 1.16603,0.028 0.17007,0.96186 -2.61803,2.45481 -4.41664,2.36499 -6,2.9143 -6,2.08156 z M 11.890013,326.34936 c 1.351657,-1.62865 7.064392,-3.84535 7.064392,-2.74118 0,0.94411 -5.433401,4.16359 -7.026737,4.16359 -0.939888,0 -0.94849,-0.32492 -0.03766,-1.42241 z m 110.710417,-1.02984 c -1.45531,-1.34874 -2.64602,-2.9353 -2.64602,-3.52568 0,-1.43824 4.93523,1.1439 7.40735,3.87555 1.87352,2.07022 1.87189,2.10238 -0.10634,2.10238 -1.10493,0 -3.19967,-1.10351 -4.65499,-2.45225 z m 68.21476,0.48552 c -1.35026,-1.12488 -1.79758,-1.98097 -1.04504,-2 1.88295,-0.0476 5.18426,1.86399 5.18426,3.00191 0,1.51744 -1.57177,1.13698 -4.13922,-1.00191 z m 8.19959,0.57176 c -5.08263,-1.83647 -5.3892,-4.06526 -0.43883,-3.19034 5.8576,1.03527 10.37846,2.63081 10.37846,3.66286 0,1.29102 -5.82525,1.0141 -9.93963,-0.47252 z M 28.454405,325.77177 c 0.339919,-0.55 0.816476,-1 1.059017,-1 0.242541,0 0.440983,0.45 0.440983,1 0,0.55 -0.476558,1 -1.059017,1 -0.582459,0 -0.780902,-0.45 -0.440983,-1 z m -4.5,-2.85783 c 0,-1.02776 3.028877,-2.44663 3.728774,-1.74673 0.243385,0.24339 -0.496022,0.94481 -1.643128,1.55872 -1.147831,0.6143 -2.085646,0.69884 -2.085646,0.18801 z m 36.25,-0.63304 c -1.7875,-0.77692 -3.25,-1.89034 -3.25,-2.47428 0,-1.11678 6.70679,1.27807 8.45,3.01731 1.40814,1.40494 -1.39067,1.11266 -5.2,-0.54303 z m 20.98968,0.27184 c 0.52159,-1.56477 10.760323,-7.19363 10.760323,-5.91561 0,1.28303 -8.021533,7.13464 -9.780343,7.13464 -0.76248,0 -1.20347,-0.54856 -0.97998,-1.21903 z m 94.534425,-1.86678 c -0.37959,-2.5863 -0.0337,-3.25975 2.1365,-4.16037 2.30214,-0.95535 5.0474,-1.08438 5.88807,-0.27675 1.02824,0.98784 -1.36411,5.45953 -3.42264,6.39746 -3.61991,1.64934 -4.1023,1.44385 -4.60193,-1.96034 z m -14.22408,1.16675 c -0.59829,-0.96807 2.7416,-2.0469 6.39998,-2.06729 1.447,-0.008 2.06108,0.3416 1.5,0.85411 -1.41572,1.29317 -7.29276,2.19568 -7.89998,1.21318 z M 49.954405,320.27177 c -1.595574,-1.92255 0.0323,-1.94278 2.55887,-0.0318 1.63076,1.23344 1.68089,1.47328 0.31357,1.5 -0.89515,0.0175 -2.18775,-0.6432 -2.87244,-1.4682 z m 49.000003,0.69113 c 0,-0.44488 0.66069,-1.68238 1.468202,-2.75 1.49888,-1.9817 2.01804,-0.87182 0.92481,1.97708 -0.62698,1.63389 -2.393012,2.2043 -2.393012,0.77292 z m 91.206032,0.0442 c -0.67017,-0.22339 -0.96413,-0.81773 -0.65324,-1.32075 0.72403,-1.17151 5.1569,-1.19334 5.87654,-0.0289 0.6058,0.98021 -3.30225,1.99004 -5.2233,1.34969 z M 8.454405,319.73491 c -1.75618,-0.65722 -1.798263,-0.8311 -0.345196,-1.42626 0.910142,-0.37279 3.160142,-0.53359 5,-0.35734 l 3.345196,0.32046 -3,1.10581 c -1.65,0.60819 -3.9,0.76899 -5,0.35733 z m 84.500003,0.33051 c 0,-1.49588 3.06555,-4.56143 3.81349,-3.81349 0.31647,0.31647 -0.4121,1.5629 -1.61905,2.76984 -1.20694,1.20694 -2.19444,1.67659 -2.19444,1.04365 z m 33.250002,-0.95593 c -4.55856,-1.61361 -5.62834,-3.33772 -2.071,-3.33772 3.41752,0 8.821,2.26705 8.821,3.70089 0,1.61894 -1.3566,1.54595 -6.75,-0.36317 z M 19.454405,318.77177 c 0.339919,-0.55 1.743034,-1 3.118034,-1 1.412023,0 2.231037,0.43519 1.881966,1 -0.339919,0.55 -1.743034,1 -3.118034,1 -1.412023,0 -2.231037,-0.43519 -1.881966,-1 z m 130.528965,0.0391 c -0.80907,-0.51167 -1.10848,-1.29228 -0.66535,-1.73469 1.00698,-1.00532 9.13296,-0.92284 13.13639,0.13334 2.70586,0.71386 2.80391,0.87137 1,1.60659 -2.76766,1.128 -11.68461,1.12454 -13.47104,-0.005 z m -38.02896,-1.09812 c 0,-0.58246 0.45,-0.7809 1,-0.44098 0.55,0.33992 1,0.81648 1,1.05902 0,0.24254 -0.45,0.44098 -1,0.44098 -0.55,0 -1,-0.47656 -1,-1.05902 z m -76.459745,-0.87584 c -0.362062,-0.58583 -1.531736,-1.06514 -2.599277,-1.06514 -2.339471,0 -2.433756,-1.1464 -0.415303,-5.04966 1.513522,-2.92683 4.522973,-3.84293 7.145036,-2.17501 1.791826,1.1398 2.826362,6.22467 1.266433,6.22467 -0.703817,0 -2.057926,0.70431 -3.009131,1.56514 -1.146831,1.03787 -1.951233,1.20631 -2.387758,0.5 z m 80.959745,-0.0651 c -0.33992,-0.55 -0.14148,-1 0.44098,-1 0.58246,0 1.05902,0.45 1.05902,1 0,0.55 -0.19844,1 -0.44098,1 -0.24254,0 -0.7191,-0.45 -1.05902,-1 z m 82.5,0 c 0,-0.55 0.5625,-1.00495 1.25,-1.01101 0.6875,-0.006 2.9375,-0.28993 5,-0.63084 3.05376,-0.50475 3.75,-0.31705 3.75,1.01101 0,1.29034 -1.04393,1.63084 -5,1.63084 -2.75,0 -5,-0.45 -5,-1 z m -34.5,-1.55395 -3,-1.46375 3.91369,0.47254 c 2.15253,0.2599 4.38003,0.93888 4.95,1.50885 1.56575,1.56575 -2.29162,1.22523 -5.86369,-0.51764 z m 24.93914,0.65242 c 0.83416,-1.34969 6.4428,-3.09852 7.0074,-2.18497 0.55375,0.89599 -3.74182,3.0865 -6.05261,3.0865 -0.83158,0 -1.26123,-0.40569 -0.95479,-0.90153 z M 21.954405,314.77177 c -2.350458,-0.75275 -2.302065,-0.8066 0.809017,-0.90032 1.972401,-0.0594 3.059374,0.30425 2.690983,0.90032 -0.339919,0.55 -0.703976,0.95514 -0.809017,0.90032 -0.105041,-0.0548 -1.315983,-0.45997 -2.690983,-0.90032 z m 27.5,0 c -0.33992,-0.55 0.28197,-1 1.38197,-1 1.1,0 2.27811,0.45 2.61803,1 0.33992,0.55 -0.28197,1 -1.38197,1 -1.1,0 -2.27811,-0.45 -2.61803,-1 z M 88.954408,313.695 c 0,-1.08758 4.24816,-2.92323 6.7651,-2.92323 2.29515,0 0.42295,1.49745 -3.5151,2.8115 -2.02935,0.67716 -3.25,0.71912 -3.25,0.11173 z m -12.000003,-0.77114 c 0,-1.45242 7.38423,-3.35277 11.322173,-2.9138 l 3.17783,0.35424 -2.59137,1.11868 c -4.050623,1.74861 -11.908633,2.69939 -11.908633,1.44088 z m 40.750005,0.15858 c -0.9625,-0.25152 -1.75,-0.87432 -1.75,-1.38399 0,-1.5025 4.64564,-1.05859 6,0.57332 1.03325,1.24499 0.92656,1.48028 -0.62756,1.384 -1.02984,-0.0638 -2.65994,-0.3218 -3.62244,-0.57333 z m 53.25,-1.36969 c 0,-0.58246 0.45,-0.7809 1,-0.44098 0.55,0.33992 1,0.81648 1,1.05902 0,0.24254 -0.45,0.44098 -1,0.44098 -0.55,0 -1,-0.47656 -1,-1.05902 z m 16.60869,0.23488 c -0.35272,-0.57071 -0.15403,-1.33882 0.44153,-1.7069 1.4861,-0.91846 2.0122,-0.188 1.02041,1.41676 -0.53135,0.85973 -1.0467,0.96201 -1.46194,0.29014 z m 4.0537,0.15319 c -0.76916,-0.76915 10.19478,-8.32105 12.08761,-8.32587 3.10876,-0.008 0.72958,2.99555 -4.63998,5.85749 -6.43515,3.4299 -6.47343,3.44259 -7.44763,2.46838 z M 7.49711,310.84087 c -0.932374,-1.50862 0.888414,-2.03568 4.825375,-1.39679 5.340706,0.86667 5.497594,2.32769 0.249954,2.32769 -2.475,0 -4.758898,-0.41891 -5.075329,-0.9309 z m 15.457295,-0.0691 c 0,-1.25292 1.061241,-1.25292 3,0 1.212959,0.78387 1.069438,0.9723 -0.75,0.98469 -1.2375,0.008 -2.25,-0.43469 -2.25,-0.98469 z m 29,0.20352 c 0,-0.57027 0.5625,-1.30377 1.25,-1.63 0.6875,-0.32623 -0.2125,-0.37498 -2,-0.10833 -1.82025,0.27153 -3.25,0.0456 -3.25,-0.51359 0,-0.63725 2.98425,-0.75937 8.25,-0.3376 8.57652,0.68696 9.54353,0.92581 8.39562,2.07371 -1.18345,1.18345 -12.64562,1.65099 -12.64562,0.51581 z m 49.741445,-1.77574 c -0.39034,-2.04197 0.0113,-2.76349 1.94852,-3.5 3.77635,-1.43577 6.62006,-1.17805 5.9607,0.54019 -0.30982,0.80739 -0.0648,1.77608 0.5445,2.15265 1.64569,1.01709 -2.038,3.37938 -5.26971,3.37938 -2.09783,0 -2.80087,-0.56795 -3.18401,-2.57222 z m 56.00856,-0.12027 c -4.47071,-2.48838 -6.31315,-5.30751 -3.46871,-5.30751 1.30131,0 12.71871,6.80183 12.71871,7.57708 0,1.28312 -5.12737,0.0251 -9.25,-2.26957 z m -37.5,1.03021 c -3.19548,-1.2894 -0.61697,-2.33772 5.75,-2.33772 5.55556,0 7,0.30952 7,1.5 0,1.16857 -1.27047,1.48256 -5.75,1.42105 -3.1625,-0.0434 -6.3125,-0.30592 -7,-0.58333 z m 61.33295,-1.20351 c -0.43077,-0.697 -0.51316,-1.53733 -0.18309,-1.86741 0.89497,-0.89496 1.87077,0.4213 1.38739,1.87145 -0.33872,1.01617 -0.57427,1.01538 -1.2043,-0.004 z m -92.582952,-1.13421 c -1.09674,-0.70877 -0.34157,-0.97349 2.80902,-0.98469 2.62138,-0.009 4.06696,0.37634 3.69098,0.98469 -0.78398,1.2685 -4.53713,1.2685 -6.5,0 z m 96.000002,0.2 c 0,-0.44 0.39564,-1.2275 0.8792,-1.75 0.48356,-0.5225 1.4005,-2.58309 2.03764,-4.57908 0.63715,-1.996 2.03213,-4.41975 3.09996,-5.38612 1.70972,-1.54728 2.01232,-1.57249 2.5347,-0.21118 0.67921,1.76998 -1.81441,7.16442 -4.84279,10.47638 -2.0823,2.2773 -3.70871,2.91318 -3.70871,1.45 z M 16.014774,306.3768 c -3.446995,-1.24548 -5.397252,-3.64469 -2.893702,-3.55984 0.733333,0.0249 3.358333,1.12952 5.833333,2.45481 4.86916,2.6073 3.079732,3.27996 -2.939631,1.10503 z m 9.36663,-0.0836 c -1.059849,-0.80178 -1.476999,-1.46524 -0.926999,-1.47431 1.485942,-0.0245 4.025731,1.76048 3.398039,2.38817 -0.299222,0.29923 -1.41119,-0.11199 -2.47104,-0.91382 z m 149.155956,0.61274 c -0.43077,-0.697 -0.51316,-1.53733 -0.18309,-1.86741 0.89497,-0.89496 1.87077,0.4213 1.38739,1.87145 -0.33872,1.01617 -0.57427,1.01538 -1.2043,-0.004 z m -60.58295,-1.11512 c 0,-0.53952 1.12189,-1.26252 2.49309,-1.60667 1.3712,-0.34415 2.26031,-1.00237 1.9758,-1.46272 -0.63013,-1.01957 7.54763,-5.94966 9.86897,-5.94966 3.24827,0 1.58903,2.15959 -3.31429,4.31373 -2.73704,1.20245 -4.98704,2.70063 -5,3.32928 -0.0415,2.01047 -6.02357,3.37704 -6.02357,1.37604 z m -63.000005,-0.49337 c 0,-0.60129 4.79258,-3.05409 7.75,-3.96638 3.66744,-1.13132 2.64628,1.37718 -1.21788,2.99173 -3.42678,1.4318 -6.53212,1.89514 -6.53212,0.97465 z m 114.208215,-4.73918 c -4.10626,-5.26985 -4.61149,-7.60788 -1.25592,-5.81204 1.60908,0.86116 7.04771,8.92807 7.04771,10.45361 0,1.73274 -2.19662,-0.0276 -5.79179,-4.64157 z m -87.458215,3.52417 c -3.19484,-0.83489 -1.81005,-2.31067 2.16821,-2.31067 4.42927,0 7.08179,0.78918 7.08179,2.10699 0,0.90632 -6.05137,1.03957 -9.25,0.20368 z m -54.637772,-3.20883 c -1.863275,-1.52636 -3.20222,-3.33186 -2.975434,-4.01222 0.26248,-0.78744 1.60675,-0.0956 3.698774,1.90368 4.257361,4.06856 3.689611,5.72355 -0.72334,2.10854 z m 26.387772,1.89816 c 0.33992,-0.55 1.06803,-1 1.61803,-1 0.55,0 0.72189,0.45 0.38197,1 -0.33992,0.55 -1.06803,1 -1.61803,1 -0.55,0 -0.72189,-0.45 -0.38197,-1 z m 40.941133,-0.4682 c -1.90947,-1.44425 -1.90755,-1.46871 0.11774,-1.5 1.13238,-0.0175 2.93238,0.62889 4,1.4364 1.90947,1.44425 1.90755,1.46871 -0.11774,1.5 -1.13238,0.0175 -2.93238,-0.62889 -4,-1.4364 z m 86.561862,-4.01741 c -1.27801,-6.15613 -0.5119,-8.93085 1.64965,-5.97475 1.5142,2.07079 1.85688,11.46036 0.41826,11.46036 -0.51101,0 -1.44157,-2.46852 -2.06791,-5.48561 z m -64.00299,3.84585 c 0,-1.01383 3.35938,-3.29345 4.90499,-3.32844 1.06571,-0.0241 0.96791,0.45116 -0.40499,1.9682 -1.71613,1.8963 -4.5,2.7378 -4.5,1.36024 z m -64.133912,-2.11003 c 1.688587,-3.15515 8.478367,-8.71683 8.942347,-7.3249 0.50547,1.51642 -2.68195,4.98018 -6.84435,7.43775 -3.116784,1.84022 -3.14251,1.83884 -2.097997,-0.11285 z m -2.895899,-2.19452 c 1.2279,-2.29435 2.923237,-3.49559 3.756876,-2.66196 0.69665,0.69666 -2.628137,4.60627 -3.917241,4.60627 -0.484108,0 -0.411944,-0.87494 0.160365,-1.94431 z m 43.529809,0.4889 c -1.65,-0.75742 -4.350003,-2.50514 -6.000003,-3.88384 -2.63148,-2.19879 -2.78365,-2.59127 -1.2388,-3.19502 1.21436,-0.47459 3.15493,0.45376 6.250003,2.98993 2.46884,2.02303 4.4888,4.09811 4.4888,4.61129 0,1.13584 0.16641,1.16067 -3.5,-0.52236 z m 5.56475,0.0334 c -0.68711,-0.82791 -0.77971,-1.63615 -0.22662,-1.97798 0.51439,-0.31791 1.4581,0.052 2.09712,0.82194 0.68711,0.82791 0.77971,1.63615 0.22662,1.97798 -0.51439,0.31791 -1.4581,-0.052 -2.09712,-0.82194 z m 15.935252,0.19944 c 0,-1.91996 2.61686,-4.20637 3.38739,-2.95964 0.311,0.50321 -0.32394,1.7198 -1.41097,2.70355 -1.66407,1.50596 -1.97642,1.54643 -1.97642,0.25609 z m -82.460596,-3.69004 c -0.970386,-2.15193 -1.543022,-4.51443 -1.272524,-5.25 0.27159,-0.73853 1.441403,0.8267 2.612465,3.49552 2.397546,5.46394 2.443163,5.66709 1.272524,5.66709 -0.466469,0 -1.642078,-1.76067 -2.612465,-3.91261 z m 13.460591,0.88049 c 0,-4.14567 2.667595,-10.25182 4.235774,-9.69572 1.596723,0.56621 1.243283,4.14322 -0.887088,8.97784 -1.997776,4.53371 -3.348686,4.82331 -3.348686,0.71788 z m 74.004785,1.28212 c 0.003,-0.4125 1.60868,-2.49644 3.56901,-4.63098 2.77709,-3.02389 3.82506,-3.61259 4.74523,-2.66566 0.9151,0.94172 0.29921,1.98432 -2.73563,4.63099 -3.82485,3.33563 -5.58825,4.17824 -5.57861,2.66565 z m -78.004785,-1.30902 c 0,-0.58246 0.45,-0.7809 1,-0.44098 0.55,0.33992 1,0.81648 1,1.05902 0,0.24254 -0.45,0.44098 -1,0.44098 -0.55,0 -1,-0.47656 -1,-1.05902 z m 63.000005,-0.44098 c 0,-0.825 0.45,-1.5 1,-1.5 0.55,0 1,0.675 1,1.5 0,0.825 -0.45,1.5 -1,1.5 -0.55,0 -1,-0.675 -1,-1.5 z m 6,-0.41667 c 0,-1.22833 0.64569,-2.08333 1.57332,-2.08333 0.93124,0 1.44138,0.68037 1.25,1.66713 -0.48655,2.50877 -2.82332,2.85325 -2.82332,0.4162 z m -71.879244,-0.85769 c -1.642061,-3.06822 -1.447613,-9.22564 0.291341,-9.22564 1.774455,0 3.119375,7.22789 1.787697,9.60746 -0.877255,1.56757 -1.053035,1.53529 -2.079038,-0.38182 z m 60.063382,-3.11179 c -2.31586,-4.12053 -2.82382,-7.11385 -1.20719,-7.11385 1.3226,0 3.89283,4.05914 4.98786,7.87731 1.305792,4.55302 -1.06129,4.07502 -3.78067,-0.76346 z m 16.336332,0.76126 c 1.09977,-5.05468 2.31594,-7.87511 3.39576,-7.87511 1.88843,0 1.92312,1.64294 0.11976,5.67088 -2.45385,5.48084 -4.50875,6.76926 -3.51552,2.20423 z m -122.977887,-0.79275 c -2.041156,-3.94716 -2.102536,-13.08236 -0.0879,-13.08236 1.421018,0 1.723606,1.0799 2.99524,10.68964 0.682336,5.15642 -0.833187,6.40368 -2.907339,2.39272 z M 104.68143,290.1241 c -0.28721,-1.50247 -0.18198,-3.6515 0.23386,-4.77562 0.74572,-2.01587 0.76372,-2.01669 1.31417,-0.0603 0.6347,2.25582 0.37605,6.16581 -0.4634,7.00526 -0.30933,0.30933 -0.79741,-0.66687 -1.08463,-2.16935 z m -128.182797,-1.28077 c -0.987568,-1.59792 0.350183,-6.9438 2.831175,-11.31386 3.750445,-6.60609 4.874136,-3.89694 1.996799,4.81416 -1.873745,5.67274 -3.765261,8.21921 -4.827974,6.4997 z m 22.686591,-3.82156 c -2.542053,-3.66892 -3.339325,-6.06491 -2.243481,-6.74217 0.80003,-0.49445 6.012662,7.16068 6.012662,8.83003 0,1.56476 -2.009759,0.4515 -3.769181,-2.08786 z m -32.52427,-0.87678 c -1.138938,-1.13894 2.021212,-5.82055 6.190107,-9.17034 5.24772,-4.21666 5.240111,-2.36108 -0.01827,4.45475 -4.070204,5.27574 -4.944037,5.94339 -6.171841,4.71559 z M 6.062559,277.1791 c -5.038978,-4.53047 -6.200702,-6.40733 -3.965967,-6.40733 1.451522,0 11.857813,8.84375 11.857813,10.07732 0,2.08786 -3.081678,0.65477 -7.891846,-3.66999 z m -22.108154,1.65169 c 0,-1.83045 1.669115,-3.72324 2.526868,-2.86549 0.686864,0.68687 -0.721772,4.80647 -1.643499,4.80647 -0.485853,0 -0.883369,-0.87344 -0.883369,-1.94098 z m 8.666667,1.27431 c -0.366667,-0.36666 -0.666667,-1.13166 -0.666667,-1.7 0,-0.6266 0.465771,-0.56756 1.183333,0.15 0.650834,0.65084 0.950834,1.41584 0.666667,1.7 -0.284167,0.28417 -0.816667,0.21667 -1.183333,-0.15 z m -15.666667,-4.21089 c 0,-0.48265 0.675,-1.43775 1.5,-2.12244 1.628209,-1.35129 1.831737,-1.02807 0.893011,1.41821 -0.642553,1.67447 -2.393011,2.18961 -2.393011,0.70423 z m 85.01365,-3.37244 c 0.008,-2.3375 0.285,-5.2625 0.61664,-6.5 1.16458,-4.34561 2.36971,-2.18425 2.36971,4.25 0,5.11111 -0.32051,6.5 -1.5,6.5 -1.10018,0 -1.49636,-1.13282 -1.48635,-4.25 z m -100.01365,1.81285 c 0,-1.69647 8.665512,-7.56285 11.171445,-7.56285 2.658324,0 2.344246,0.45761 -2.921445,4.25657 -5.823169,4.20116 -8.25,5.17374 -8.25,3.30628 z m 89,-1.5361 c 0,-1.72691 4.36957,-10.02675 5.27872,-10.02675 1.1752,0 -0.11155,5.92602 -1.89993,8.75 -1.45628,2.29955 -3.37879,3.02602 -3.37879,1.27675 z m 23.2,-0.22675 c -0.66,-0.66 -1.2,-2.07974 -1.2,-3.15499 0,-1.89164 0.0648,-1.89634 2,-0.14501 1.99636,1.80669 2.71458,4.5 1.2,4.5 -0.44,0 -1.34,-0.54 -2,-1.2 z m -102.703323,-0.79462 c 0.33809,-0.54704 1.510227,-1.47389 2.604748,-2.05966 1.827681,-0.97815 1.885097,-0.897 0.703759,0.99462 -0.707453,1.13281 -1.879589,2.05966 -2.604748,2.05966 -0.725158,0 -1.04185,-0.44758 -0.703759,-0.99462 z m 214.621638,-1.25538 c 0.0651,-1.2375 0.46184,-3.6 0.88169,-5.25 0.65251,-2.56432 0.78055,-2.23755 0.88169,2.25 0.0656,2.91221 -0.32698,5.25 -0.88169,5.25 -0.55,0 -0.94676,-1.0125 -0.88169,-2.25 z m 10.42071,-0.33079 c -2.02973,-3.09777 -1.31075,-6.67533 0.87357,-4.34675 1.66631,1.77635 2.94636,6.92754 1.72147,6.92754 -0.49722,0 -1.66499,-1.16135 -2.59504,-2.58079 z m -21.53902,-0.0597 c 0,-2.2511 4.1371,-10.35953 5.28566,-10.35953 1.07746,0 0.42834,3.04691 -1.77003,8.30835 -1.59301,3.8126 -3.51563,4.93435 -3.51563,2.05118 z M 4.454405,269.77177 c -0.339919,-0.55 -0.168034,-1 0.381966,-1 0.55,0 1.278115,0.45 1.618034,1 0.339919,0.55 0.168034,1 -0.381966,1 -0.55,0 -1.278115,-0.45 -1.618034,-1 z m 6.653872,-0.56992 c -7.525257,-2.02455 -9.652245,-3.38797 -5.153872,-3.30367 5.274021,0.0988 13.283416,2.20923 13.752285,3.62359 0.527022,1.58978 -1.825407,1.50226 -8.598413,-0.31992 z m 68.805128,-3.48766 c -1.19745,-1.68166 -1.97179,-3.26296 -1.72075,-3.514 0.79028,-0.79029 5.76175,3.6483 5.76175,5.14416 0,2.32857 -1.71468,1.63686 -4.041,-1.63016 z m -38.959,-0.35839 c 0,-1.66081 6.498843,-7.00512 9.75,-8.0179 3.38047,-1.05306 2.7422,0.37161 -2.300624,5.13521 -4.61447,4.35897 -7.449376,5.45599 -7.449376,2.88269 z m -73,-0.51664 c 0,-0.51294 0.9,-1.18794 2,-1.5 1.1,-0.31207 2.9,-0.82271 4,-1.13478 2.884812,-0.8184 2.463518,1.03517 -0.547053,2.40687 -3.072323,1.39985 -5.452947,1.49935 -5.452947,0.22791 z M 204.6415,262.96705 c -2.61468,-2.72914 -3.50864,-5.19528 -1.88326,-5.19528 0.97478,0 7.19617,6.30909 7.19617,7.29761 0,1.61992 -2.81332,0.50668 -5.31291,-2.10233 z m -218.817319,1.01781 c -2.172872,-0.26669 -2.594649,-0.79146 -2.425635,-3.01795 0.226649,-2.98574 2.491372,-8.19514 3.562736,-8.19514 0.377216,0 2.134778,0.72282 3.905694,1.60627 2.358775,1.17671 3.034037,2.04585 2.525042,3.25 -0.382143,0.90405 -0.906596,2.61542 -1.165452,3.80305 -0.510713,2.34315 -2.300798,3.05717 -6.402385,2.55377 z m 17.130224,-1.21309 c 0,-0.55 0.873442,-1 1.940983,-1 1.067541,0 2.219098,0.45 2.559017,1 0.350523,0.56716 -0.489616,1 -1.940983,1 -1.407459,0 -2.559017,-0.45 -2.559017,-1 z m 57,-0.44098 c 0,-0.85746 0.45,-1.55902 1,-1.55902 0.55,0 1,0.42344 1,0.94098 0,0.51754 -0.45,1.2191 -1,1.55902 -0.55,0.33992 -1,-0.0835 -1,-0.94098 z m -103,-0.42818 c 0,-1.01111 5.748662,-2.0885 11.5,-2.15527 3.859772,-0.0448 3.916386,-0.0928 1.6149,-1.36849 -2.989968,-1.65733 -1.370704,-2.80824 2.782394,-1.97762 3.011556,0.60231 4.372574,2.35498 1.852706,2.38585 -0.981876,0.012 -0.977016,0.18857 0.02266,0.82302 0.81904,0.51982 -0.544783,1.22723 -3.82629,1.98469 -5.973926,1.37895 -13.94637,1.55491 -13.94637,0.30782 z m 96,-0.98791 c 0,-1.95725 4.28619,-6.52341 5.23386,-5.57573 0.77969,0.77968 -2.3975,6.27118 -3.98386,6.88576 -0.7155,0.27719 -1.25,-0.28298 -1.25,-1.31003 z m 111.952175,-0.0536 c 1.13184,-2.11488 6.1854,-5.4468 10.03999,-6.6196 2.3144,-0.70419 2.38572,-0.6291 1,1.0527 -2.18844,2.65607 -9.07321,7.47757 -10.67738,7.47757 -1.05367,0 -1.14045,-0.45723 -0.36261,-1.91062 z m -93.223005,0.30645 c -0.40104,-0.40099 -0.72917,-1.41911 -0.72917,-2.26245 0,-1.12559 0.29583,-1.2375 1.1125,-0.42083 0.61187,0.61187 0.94,1.63 0.72917,2.2625 -0.21084,0.6325 -0.71146,0.82187 -1.1125,0.42083 z m 111.306275,-0.64578 c 0.0195,-0.6875 0.67854,-2.375 1.46456,-3.75 1.36853,-2.39399 1.43063,-2.40806 1.46456,-0.33179 0.0458,2.80271 -0.93681,5.33179 -2.07155,5.33179 -0.49115,0 -0.87706,-0.5625 -0.85757,-1.25 z m 6.96456,-0.75 c 0,-1.1 0.45,-2 1,-2 0.55,0 1,0.9 1,2 0,1.1 -0.45,2 -1,2 -0.55,0 -1,-0.9 -1,-2 z M 0.954405,259.97385 c 0,-1.13417 18.298079,-3.304 19.312013,-2.29007 0.461733,0.46174 -0.61173,1.34542 -2.385473,1.96375 -3.673191,1.28048 -16.92654,1.53599 -16.92654,0.32632 z m 81.75,-1.77405 c -2.69424,-1.46165 -3.70968,-3.42803 -1.77024,-3.42803 1.92179,0 9.020243,3.23323 9.020243,4.10858 0,1.37433 -4.186663,0.98133 -7.250003,-0.68055 z m -48.262952,-0.44899 c -0.347042,-0.56152 0.863901,-1.62552 2.690983,-2.36443 3.713051,-1.50163 9.821969,-2.81178 9.821969,-2.10646 0,0.61828 -9.67974,5.49185 -10.907739,5.49185 -0.535825,0 -1.258171,-0.45943 -1.605213,-1.02096 z m 142.512957,-0.30473 c 0,-1.83593 4.65307,-6.04467 5.38088,-4.86705 0.66468,1.07548 -3.01535,6.19274 -4.45346,6.19274 -0.51008,0 -0.92742,-0.59656 -0.92742,-1.32569 z m 19.01499,-0.6463 c -0.85486,-1.59733 -0.78205,-2.02801 0.34284,-2.02801 1.68798,0 2.95571,2.68819 1.64867,3.49598 -0.49838,0.30802 -1.39456,-0.35257 -1.99151,-1.46797 z m -197.014995,0.42096 c 0,-0.64908 6.468346,-3.44897 7.967881,-3.44897 2.224393,0 0.86586,1.86231 -2.117104,2.90217 -3.419405,1.19202 -5.850777,1.41925 -5.850777,0.5468 z m 47,-0.38088 c 0,-1.04868 4.5397,-4.39519 7.33356,-5.40605 2.92221,-1.05729 1.45762,1.5362 -2.30854,4.08796 -3.568818,2.41805 -5.02502,2.80002 -5.02502,1.31809 z m 29.02896,-0.029 c -0.80907,-0.51167 -1.16598,-1.23537 -0.79313,-1.60823 0.9151,-0.91509 3.76417,0.24885 3.76417,1.53779 0,1.2701 -1.03529,1.29465 -2.97104,0.0704 z m 126.950985,-2.56323 c -0.69572,-0.83829 -1.01436,-1.77475 -0.70809,-2.08102 0.89227,-0.89226 4.84439,1.60809 4.19714,2.65536 -0.84568,1.36834 -2.03992,1.17175 -3.48905,-0.57434 z m 6.77006,-0.63596 c -2.6125,-1.15218 -4.75,-2.74283 -4.75,-3.53477 0,-0.94869 0.63451,-1.23852 1.85994,-0.84958 1.02297,0.32468 3.83298,1.16157 6.24447,1.85976 2.66635,0.77198 4.51339,1.93861 4.71338,2.97706 0.44337,2.30222 -2.1517,2.15668 -8.06779,-0.45247 z m -246.500005,0.0413 c -3.964309,-1.14465 -4.266611,-2.88328 -0.5,-2.87564 3.60837,0.007 10.018705,1.81116 10.772884,3.03145 0.748699,1.21142 -5.886247,1.11079 -10.272884,-0.15581 z m 39.69801,-1.31858 c 0.787779,-0.94921 4.04675,-3.0456 7.242158,-4.65864 4.521139,-2.28224 5.809832,-2.6006 5.809832,-1.43522 0,1.4388 -6.799326,5.43373 -11.992158,7.04598 -2.275936,0.70662 -2.367888,0.62402 -1.059832,-0.9521 z m -3.94801,-0.35312 c 0,-1.31968 4.457246,-5.2095 5.969439,-5.2095 0.944457,0 0.780988,0.61829 -0.553263,2.09262 -2.269333,2.50759 -5.416176,4.31852 -5.416176,3.11688 z m 78.45888,-0.27603 c -0.36253,-0.58659 -0.48194,-1.24374 -0.26535,-1.46034 0.68687,-0.68686 4.80647,0.72177 4.80647,1.6435 0,1.25139 -3.74795,1.10021 -4.54112,-0.18316 z m 95.541125,0.30547 c 0,-1.04415 5.95489,-4.23894 7.90113,-4.23894 1.51024,0 1.37962,1.52211 -0.24644,2.87162 -1.90395,1.58014 -7.65469,2.60737 -7.65469,1.36732 z M -29.378928,251.1051 c -1.458159,-1.45816 -0.53328,-2.33796 1.833333,-1.74397 3.910821,0.98155 2.969514,-0.13347 -2.917486,-3.45588 -5.376595,-3.03437 -7.266239,-4.78309 -6.25801,-5.79132 0.924028,-0.92403 4.389829,0.64941 8.33774,3.78525 4.479438,3.55804 5.496251,7.87259 1.855337,7.87259 -1.201336,0 -2.484248,-0.3 -2.850914,-0.66667 z m 76,0 c -1.252254,-1.25225 -0.667898,-2.09994 1.768687,-2.56572 3.848036,-0.7356 5.529546,0.91504 2.215666,2.17497 -3.287509,1.24991 -3.139692,1.23541 -3.984353,0.39075 z m 12.319683,-0.58333 c -0.008,-0.6875 -0.2732,-2.21738 -0.59042,-3.39973 -0.50862,-1.89578 -0.006,-2.27137 4.25095,-3.17938 2.65523,-0.56631 5.04622,-0.81112 5.31332,-0.54402 0.26709,0.26709 0.58188,1.99026 0.69953,3.82927 0.17202,2.68897 -0.21427,3.45847 -1.97291,3.9301 -3.73875,1.00264 -7.68613,0.6765 -7.70047,-0.63624 z m 102.259345,0 c 0.2268,-0.6875 2.92758,-1.925 6.00174,-2.75 5.3739,-1.44217 8.41697,-3 5.86022,-3 -0.67413,0 -0.94757,-0.45 -0.60765,-1 0.33992,-0.55 1.71648,-1 3.05902,-1 2.75401,0 3.40431,1.95654 0.69098,2.07895 -1.04544,0.0472 -1.24674,0.28201 -0.5,0.58333 2.43009,0.98056 1.18665,2.21772 -4.28751,4.26587 -6.30112,2.35755 -10.84396,2.72298 -10.2168,0.82185 z m -80.745695,-0.71122 c -2.28935,-0.55295 -2.61815,-0.89304 -1.38803,-1.43571 2.60048,-1.14719 13.178973,-0.25784 13.642363,1.14693 0.45956,1.39315 -6.958223,1.56795 -12.254333,0.28878 z m 42.500005,-3.45545 c 0,-3.7186 1.8857,-5.10729 2.15,-1.58333 0.0825,1.1 0.195,2.525 0.25,3.16667 0.055,0.64166 -0.4625,1.35416 -1.15,1.58333 -0.84496,0.28165 -1.25,-0.74444 -1.25,-3.16667 z m -146.505553,0.41054 c -1.830195,-2.02234 -1.53427,-3.75455 0.433639,-2.53831 1.516211,0.93707 3.311847,4.54444 2.26208,4.54444 -0.484108,0 -1.697181,-0.90276 -2.695719,-2.00613 z m 23.023816,-0.74387 c 2.674548,-4.20698 7.823188,-8.72563 8.302781,-7.28685 0.425662,1.27698 -7.555181,10.03685 -9.144267,10.03685 -0.498741,0 -0.120072,-1.2375 0.841486,-2.75 z m 34.731732,2.1004 c -0.6875,-0.28439 -1.25,-0.92957 -1.25,-1.43373 0,-1.22159 11.090793,-1.15049 13,0.0833 1.247263,0.80604 1.163017,0.98243 -0.5,1.04688 -1.1,0.0426 -3.8,0.24469 -6,0.44904 -2.2,0.20435 -4.5625,0.13887 -5.25,-0.14552 z m -39.25,-1.08463 c 0,-0.57431 0.885029,-2.10655 1.966731,-3.40499 1.494536,-1.79398 1.974718,-1.97783 2,-0.76577 0.0183,0.87726 -0.866731,2.4095 -1.966731,3.40499 -1.1,0.99549 -2,1.34008 -2,0.76577 z m 117.000005,-0.29789 c 0,-2.06494 2.92557,-7.96788 3.94897,-7.96788 1.42386,0 1.32203,1.41564 -0.39794,5.53212 -1.3549,3.24273 -3.55103,4.74913 -3.55103,2.43576 z m 91.25,0.26385 c -2.64396,-0.43576 -3.05069,-2.23874 -0.5,-2.21642 2.16584,0.0189 4.77272,1.58085 3.60676,2.16097 -0.47122,0.23445 -1.86926,0.2594 -3.10676,0.0555 z M 74.454405,245.77177 c 0.33992,-0.55 1.94148,-1 3.55902,-1 1.61754,0 2.94098,0.45 2.94098,1 0,0.55 -1.60156,1 -3.55902,1 -2.11803,0 -3.30878,-0.40488 -2.94098,-1 z m 56.965285,-2.06713 c -2.49828,-4.83114 -1.4082,-7.19414 1.29852,-2.81484 1.22991,1.98992 2.2362,4.12742 2.2362,4.75 0,2.17916 -1.96281,1.10457 -3.53472,-1.93516 z m 54.89747,1.57005 c -0.34557,-0.90055 -0.16386,-2.10181 0.4038,-2.66947 1.52481,-1.52481 5.40756,0.0205 5.0301,2.00199 -0.43002,2.25742 -4.626,2.77284 -5.4339,0.66748 z m -208.686383,-2.75292 c -4.299442,-5.76116 -5.816059,-9.75 -3.707101,-9.75 1.059589,0 8.030729,10.43355 8.030729,12.01942 0,1.93976 -1.943819,0.91947 -4.323628,-2.26942 z m 68.782509,2.18347 c -1.225076,-1.98222 0.543145,-2.2958 3.801139,-0.67411 l 3.23998,1.61273 -3.19098,0.064 c -1.755044,0.0352 -3.487605,-0.41599 -3.850139,-1.00258 z m -60.423697,-1.86773 c -0.569351,-1.06384 -1.035184,-4.53527 -1.035184,-7.71428 0,-5.12422 0.169297,-5.61073 1.49211,-4.28792 1.849873,1.84987 3.311672,13.93646 1.68553,13.93646 -0.609,0 -1.573105,-0.87042 -2.142456,-1.93426 z m 115.415431,-0.14565 c -0.83305,-1.3479 7.20038,-9.25382 8.55339,-8.41762 0.67225,0.41547 -0.15903,2.0982 -2.21377,4.48125 -3.71432,4.3078 -5.44566,5.38282 -6.33962,3.93637 z m 105.54939,0.19654 c 0,-1.16763 3.60298,-2.08605 8.25,-2.10298 2.67274,-0.01 3.75,0.41726 3.75,1.48635 0,1.16667 -1.33333,1.5 -6,1.5 -3.3,0 -6,-0.39752 -6,-0.88337 z M 72.954405,241.87876 c 0,-0.49116 0.77489,-1.19037 1.72197,-1.5538 1.15724,-0.44407 1.34863,-0.89152 0.58359,-1.36434 -1.25546,-0.77592 4.17239,-7.30391 7.59688,-9.13664 3.42085,-1.83078 3.1637,0.49135 -0.44135,3.9855 -1.9036,1.84505 -3.46109,4.15052 -3.46109,5.12327 0,0.97276 -0.87042,2.23449 -1.93426,2.80384 -2.37635,1.27178 -4.06574,1.33086 -4.06574,0.14217 z m 7,0.52174 c 0,-0.73234 7.542513,-4.62873 8.960163,-4.62873 2.03008,0 1.00071,2.06438 -1.50426,3.01677 -3.951163,1.50222 -7.455903,2.25995 -7.455903,1.61196 z m 119.000005,-0.52174 c 0,-1.08325 2.46913,-2.10699 5.08179,-2.10699 2.64401,0 2.4153,1.63352 -0.33179,2.36971 -3.19323,0.85576 -4.75,0.76965 -4.75,-0.26272 z M 43.619754,240.26437 c -5.210768,-1.43193 -6.372652,-2.11863 -5.336983,-3.1543 0.894658,-0.89466 8.424577,1.65909 9.808392,3.32648 0.609472,0.73437 0.940532,1.29498 0.735687,1.2458 -0.204845,-0.0492 -2.548038,-0.68727 -5.207096,-1.41798 z m 7.084651,0.11535 c -0.9625,-0.73064 -1.75,-1.61633 -1.75,-1.96819 0,-1.37756 2.78387,-0.53606 4.5,1.36024 2.13947,2.36409 0.14443,2.80514 -2.75,0.60795 z m 87.838895,-1.68468 c -2.59176,-3.08014 -3.27003,-4.92327 -1.81175,-4.92327 1.22224,0 7.22286,5.76863 7.22286,6.94363 0,2.07463 -2.86573,1.00465 -5.41111,-2.02036 z m 31.48087,1.25851 c -5.979,-1.56376 -9.43305,-4.18178 -5.51717,-4.18178 2.35695,0 13.41457,4.32172 13.43273,5.25 0.019,0.96862 -0.28413,0.92772 -7.91556,-1.06822 z M -4.877055,237.02177 c 0.554029,-2.0625 1.642756,-4.40893 2.419393,-5.21429 1.232947,-1.27854 1.412067,-1.20233 1.412067,0.60078 0,3.37801 -2.096617,8.36351 -3.517218,8.36351 -1.039558,0 -1.106614,-0.80021 -0.314242,-3.75 z m 73.44407,2.93221 c -0.311,-0.50321 0.32394,-1.7198 1.41097,-2.70355 1.66407,-1.50596 1.97642,-1.54643 1.97642,-0.25609 0,1.91996 -2.61686,4.20637 -3.38739,2.95964 z m -12.57743,-2.11647 c -1.72922,-3.23109 -1.23186,-4.55371 0.96482,-2.56574 2.09196,1.8932 2.69163,4.5 1.03518,4.5 -0.53065,0 -1.43065,-0.87042 -2,-1.93426 z m 120.407525,0.51602 c -1.06675,-0.78003 -1.6413,-1.71649 -1.27677,-2.08102 0.84279,-0.84279 4.83407,1.24978 4.83407,2.53444 0,1.36334 -1.29921,1.19773 -3.5573,-0.45342 z m -111.442705,-1.7042 c 0,-1.79916 -0.23493,-1.92747 -1.54238,-0.84239 -2.43024,2.01692 -3.04267,0.0926 -2.65473,-8.34151 0.43751,-9.51197 2.29887,-9.96641 3.53442,-0.86291 0.46052,3.39309 1.24802,6.16925 1.75,6.16925 0.50198,0 0.91269,1.35 0.91269,3 0,1.65 -0.45,3 -1,3 -0.55,0 -1,-0.9551 -1,-2.12244 z m 132.000005,1.27743 c 0,-1.20106 3.43293,-4.15499 4.82874,-4.15499 1.71632,0 1.4302,1.45569 -0.65748,3.34501 -1.95482,1.76909 -4.17126,2.19948 -4.17126,0.80998 z m -76.92105,-1.73832 c 0.048,-1.16495 0.28494,-1.4019 0.60416,-0.60417 0.28887,0.72187 0.25335,1.58437 -0.0789,1.91667 -0.3323,0.33229 -0.56864,-0.25834 -0.52522,-1.3125 z m 5.49305,-0.0896 c -0.35066,-0.91381 -0.23307,-2.06597 0.2613,-2.56034 0.53183,-0.53183 1.11939,-0.0556 1.43891,1.16622 0.65808,2.51651 -0.80815,3.71878 -1.70021,1.39412 z m 77.428,1.16051 c 0,-0.76244 10.73492,-7.48758 11.95196,-7.48758 2.8165,0 0.4759,2.96244 -4.21631,5.33648 -4.99179,2.52561 -7.73565,3.28862 -7.73565,2.1511 z M 46.204405,232.70992 c -2.8875,-2.21606 -5.25,-4.45871 -5.25,-4.98367 0,-2.65069 6.650928,0.69699 9.75,4.90756 4.08091,5.54456 2.6567,5.56865 -4.5,0.0761 z m 66.750005,2.25217 c 0,-0.53699 0.7126,-1.24979 1.58356,-1.58401 0.97391,-0.37373 1.43108,-0.15024 1.1875,0.58051 -0.49828,1.49484 -2.77106,2.31789 -2.77106,1.0035 z m 82,-0.49919 c 0,-1.94042 2.71917,-5.30529 3.58641,-4.43805 0.85463,0.85462 -1.49101,5.74692 -2.75539,5.74692 -0.45706,0 -0.83102,-0.58899 -0.83102,-1.30887 z m -99.000002,-0.60957 c 0,-1.25763 6.341452,-5.08156 8.427052,-5.08156 2.48661,0 0.97813,1.75265 -3.45506,4.01429 -4.393632,2.24146 -4.971992,2.36561 -4.971992,1.06727 z m 10.229722,-1.27071 c 0.56377,-1.69132 5.61383,-5.30064 6.3652,-4.54927 0.71253,0.71253 -4.38856,5.73842 -5.82428,5.73842 -0.51552,0 -0.75893,-0.53512 -0.54092,-1.18915 z m 73.77028,0.13013 c 0,-0.58246 0.45,-0.7809 1,-0.44098 0.55,0.33992 1,0.81648 1,1.05902 0,0.24254 -0.45,0.44098 -1,0.44098 -0.55,0 -1,-0.47656 -1,-1.05902 z m -37.25,-1.51295 c -3.79943,-2.06123 -3.5631,-3.84065 0.40469,-3.04709 3.33039,0.66608 5.84531,2.27584 5.84531,3.7415 0,1.33046 -3.16597,0.9787 -6.25,-0.69441 z m 29.21223,-1.33048 c -1.90423,-1.59635 -3.15577,-3.21531 -2.78122,-3.59768 0.7236,-0.7387 7.81891,4.47926 7.81896,5.75013 6e-5,1.41979 -1.58378,0.74308 -5.03774,-2.15245 z m 19.03777,0.90245 c 0,-1.1 0.45,-2 1,-2 0.55,0 1,0.9 1,2 0,1.1 -0.45,2 -1,2 -0.55,0 -1,-0.9 -1,-2 z m 9,0.8939 c 0,-1.46787 5.91486,-8.8939 7.08403,-8.8939 1.77223,0 0.88394,2.58317 -2.15683,6.27216 -3.06827,3.72233 -4.9272,4.71146 -4.9272,2.62174 z m -146.010965,-3.1439 c -2.22747,-3.65332 -2.45243,-4.75 -0.97434,-4.75 0.99859,0 4.97427,5.78607 4.98156,7.25 0.009,1.84297 -2.19935,0.46512 -4.00722,-2.5 z m 16.5771,1 c 1.91344,-6.14229 2.49718,-7.08668 3.66101,-5.92285 0.87043,0.87043 0.74282,2.01262 -0.52098,4.66284 -1.86789,3.91699 -4.26772,4.87999 -3.14003,1.26001 z m 64.876565,0.83176 c -1.06675,-0.78003 -1.6413,-1.71649 -1.27677,-2.08102 0.84279,-0.84279 4.83407,1.24978 4.83407,2.53444 0,1.36334 -1.29921,1.19773 -3.5573,-0.45342 z m 49.5573,-0.0818 c 0,-0.825 0.45,-1.5 1,-1.5 0.55,0 1,0.675 1,1.5 0,0.825 -0.45,1.5 -1,1.5 -0.55,0 -1,-0.675 -1,-1.5 z m 3,-6.55902 c 0,-6.41992 1.35111,-7.32702 2.29057,-1.53782 0.62671,3.86192 -0.0651,7.59684 -1.4072,7.59684 -0.48585,0 -0.88337,-2.72656 -0.88337,-6.05902 z m -7.83948,1.51197 c -1.38354,-3.03654 -1.42226,-3.45295 -0.32104,-3.45295 0.72693,0 3.16052,4.27122 3.16052,5.54705 0,1.43929 -1.85182,0.0736 -2.83948,-2.0941 z m 15.38125,0.61463 c -0.89109,-1.44181 1.29897,-8.06758 2.66662,-8.06758 0.65425,0 0.82805,1.38802 0.45876,3.66369 -0.66954,4.12586 -2.07407,6.10495 -3.12538,4.40389 z M 3.593885,225.07792 c -0.351714,-0.35172 -0.63948,-2.10268 -0.63948,-3.89103 0,-4.58997 -0.87818,-6.3991 -2.756368,-5.67837 -1.202719,0.46153 -1.426505,0.18219 -0.917241,-1.14493 0.370485,-0.96547 0.673609,-2.33734 0.673609,-3.04861 0,-0.71126 1.075249,-1.29321 2.389442,-1.29321 1.969557,0 2.494799,0.63701 2.988995,3.625 1.285412,7.77184 0.402912,13.57302 -1.738957,11.43115 z m 103.100505,-1.04679 c 3.25799,-1.62169 5.02621,-1.30811 3.80114,0.67411 -0.36254,0.58659 -2.0951,1.03775 -3.85014,1.00258 l -3.19098,-0.064 3.23998,-1.61273 z m 14.84335,0.99064 c -0.4125,-0.4125 -1.1625,-0.75 -1.66666,-0.75 -1.09668,0 -1.15416,-0.70559 -0.32618,-4.0045 0.53001,-2.11176 1.20937,-2.4955 4.41792,-2.4955 3.64741,0 3.79159,0.12965 3.79159,3.40952 0,2.64328 -0.48318,3.53915 -2.15,3.98634 -2.81818,0.7561 -3.1776,0.74321 -4.06667,-0.14586 z m 11.8578,-0.76763 c -1.83202,-1.43233 -1.74873,-1.50259 1.48186,-1.25 1.88264,0.1472 3.60764,0.83013 3.83333,1.51763 0.57385,1.74805 -2.96493,1.56987 -5.31519,-0.26763 z M -7.013792,222.02177 c 0.03424,-2.96073 2.517839,-7.03369 3.618084,-5.93345 0.914862,0.91487 -1.491754,8.68345 -2.690029,8.68345 -0.527922,0 -0.945546,-1.2375 -0.928055,-2.75 z m 20.951429,0.2059 c -1.715949,-4.51329 -2.222738,-7.4559 -1.284088,-7.4559 0.966399,0 4.300856,6.85057 4.300856,8.83602 0,2.13145 -2.035761,1.20012 -3.016768,-1.38012 z m 79.016771,1.7408 c 0,-1.59587 0.88314,-1.89277 7.750002,-2.60544 5.85982,-0.60817 8.39494,0.37167 4.66492,1.80302 -3.39138,1.30139 -12.414922,1.88461 -12.414922,0.80242 z m 44.500002,-2.13665 c -1.73218,-0.73217 -1.78317,-0.93431 -0.3808,-1.50951 2.35878,-0.96748 11.86592,-0.22417 12.14392,0.94946 0.2971,1.25421 -9.06622,1.7 -11.76312,0.56005 z m -153.617266,-3.81005 c 1.53134,-2.8117 8.117261,-8.76705 8.117261,-7.34007 0,1.97289 -5.965552,9.09007 -7.619213,9.09007 -1.078473,0 -1.206381,-0.44943 -0.498048,-1.75 z m 38.963453,0.5 c -2.391414,-1.94605 -6.135355,-7.79417 -5.436927,-8.4926 0.835571,-0.83557 8.590735,6.78853 8.590735,8.44555 0,1.63706 -1.178311,1.65464 -3.153808,0.0471 z m 82.153813,0.25 c 0,-0.55 1.77344,-1 3.94098,-1 2.16754,0 4.2191,0.45 4.55902,1 0.3775,0.61081 -1.15628,1 -3.94098,1 -2.50746,0 -4.55902,-0.45 -4.55902,-1 z m 25,0 c 0,-0.55 0.42744,-1 0.94987,-1 0.52243,0 3.00844,-1.38931 5.52447,-3.08737 4.78473,-3.22917 11.24624,-5.52734 12.36943,-4.39945 0.9191,0.92295 -3.6946,4.48682 -5.80853,4.48682 -0.95876,0 -2.95709,1.125 -4.44074,2.5 -2.68225,2.48582 -8.5945,3.51769 -8.5945,1.5 z M 7.561394,215.18998 c -0.333844,-0.86998 -0.592677,-2.55748 -0.575186,-3.75 0.03112,-2.12165 0.06333,-2.12652 1.5,-0.22708 1.621362,2.14363 1.974742,5.55887 0.575186,5.55887 -0.491156,0 -1.166156,-0.7118 -1.5,-1.58179 z m 94.536636,-0.0433 c -6.707192,-1.73854 -7.836222,-2.40784 -5.894642,-3.4944 1.44911,-0.81096 10.236542,1.47129 12.088152,3.13951 1.71482,1.54497 -1.00173,1.70063 -6.19351,0.35489 z m 28.43649,0.75468 c -0.30695,-0.49665 0.11196,-1.45909 0.9309,-2.13876 0.81894,-0.67966 1.48899,-2.04789 1.48899,-3.0405 0,-2.15218 6.8902,-8.11175 8.92889,-7.7229 2.47354,0.47179 1.67398,2.18764 -2.18225,4.68309 -2.69904,1.74661 -3.44776,2.74465 -2.71835,3.62353 0.95855,1.15499 0.22252,1.90591 -4.70919,4.80448 -0.6495,0.38173 -1.43204,0.28771 -1.73899,-0.20894 z m -20.83011,-1.79023 c -2.86807,-1.51068 -3.67444,-3.33936 -1.47251,-3.33936 1.68907,0 5.72251,2.85932 5.72251,4.0567 0,1.21241 -0.86277,1.06679 -4.25,-0.71734 z M -7.013792,213.1051 c 0.01749,-0.45833 0.687843,-1.70048 1.489668,-2.76033 1.717635,-2.27036 3.384344,-1.23257 1.871717,1.16544 -1.150149,1.82337 -3.411044,2.8961 -3.361385,1.59489 z m 20.003381,-1.26759 c -1.755098,-3.27943 -1.100953,-4.72456 0.998085,-2.20496 1.081702,1.29844 1.966731,2.76094 1.966731,3.25 0,1.60325 -1.907292,0.93096 -2.964816,-1.04504 z m 161.358571,-1.28449 c 0.67671,-3.38353 2.17211,-5.54872 3.15407,-4.56677 1.17703,1.17704 -0.76176,7.78552 -2.28411,7.78552 -1.17143,0 -1.36814,-0.72783 -0.86996,-3.21875 z m -59.8457,0.27185 c -1.3651,-1.50842 -1.59537,-2.40578 -0.81706,-3.18409 0.77831,-0.77831 1.40994,-0.4742 2.24122,1.07907 1.69864,3.17393 0.77658,4.5368 -1.42416,2.10502 z m 13.45195,1.25274 c 0,-0.47346 0.73482,-1.90993 1.63293,-3.19216 1.29099,-1.84315 1.36528,-2.49675 0.35476,-3.12129 -2.25128,-1.39136 0.44699,-9.99239 3.13475,-9.99239 1.36188,0 1.03869,2.78774 -0.71674,6.18236 -1.3166,2.54603 -1.36015,3.22805 -0.25,3.91554 1.10387,0.68361 1.04544,1.32585 -0.32671,3.59097 -1.67298,2.76172 -3.82899,4.23527 -3.82899,2.61697 z m 37.48152,-0.33574 c -0.66336,-1.07334 3.75753,-9.38177 5.59688,-10.51855 2.8662,-1.77141 1.57474,4.15982 -2.0178,9.26703 -1.73636,2.46844 -2.63317,2.78203 -3.57908,1.25152 z m -188.276586,-1.08492 c 0.204383,-0.61315 2.604383,-1.96278 5.333333,-2.99918 5.709012,-2.16818 5.464102,-2.11716 5.454026,-1.136 -0.01106,1.07694 -7.581197,5.25 -9.523749,5.25 -0.899369,0 -1.467993,-0.50167 -1.26361,-1.11482 z m 48.568267,-1.19666 c -2.893749,-1.465 -4.381453,-1.8312 -4.062489,-1 0.750088,1.9547 -2.153804,1.58434 -4.055729,-0.51726 -2.218824,-2.45177 -2.092529,-3.47579 0.27257,-2.21003 1.060157,0.56738 2.652124,0.75356 3.537706,0.41373 2.222059,-0.85269 10.534736,2.46754 10.534736,4.20775 0,1.92783 -0.910994,1.79701 -6.226794,-0.89419 z m 98.553189,-1.31242 c 0.67173,-4.13934 1.34431,-5.1436 2.55131,-3.80943 1.09982,1.2157 -0.60415,7.43333 -2.03713,7.43333 -0.70842,0 -0.89213,-1.29484 -0.51418,-3.6239 z m 59.00359,2.04144 c -1.09532,-2.85436 -0.97823,-9.87623 0.17002,-10.19617 1.23998,-0.3455 2.51057,9.9332 1.38396,11.19585 -0.47016,0.52693 -1.13139,0.10156 -1.55398,-0.99968 z m -194.329985,-1.26735 c 0,-1.16901 4.514228,-4.16047 6.214817,-4.11839 0.754791,0.0187 0.459788,0.66797 -0.714817,1.57328 -3.255954,2.50948 -5.5,3.54791 -5.5,2.54511 z m 117.546115,-2.28853 c -2.10651,-1.93047 -3.62577,-4.12269 -3.37613,-4.87161 0.31931,-0.95793 1.5895,-0.32095 4.28391,2.14829 2.10651,1.93047 3.62577,4.12269 3.37613,4.87161 -0.31931,0.95793 -1.5895,0.32095 -4.28391,-2.14829 z m 12.20458,0.61447 c -0.47948,-2.50821 0.38677,-4.00534 1.60983,-2.78228 0.96605,0.96606 0.76652,5.30615 -0.24394,5.30615 -0.48589,0 -1.10054,-1.13574 -1.36589,-2.52387 z m 72.9602,-0.95097 c -1.666,-2.45174 -2.67389,-3.16216 -3.42318,-2.41287 -1.20825,1.20825 -1.73455,0.54511 -2.6685,-3.36229 -0.75719,-3.16784 0.91496,-3.79308 1.89405,-0.70821 0.44817,1.41204 1.20826,1.86398 2.46439,1.4653 1.31692,-0.41797 2.39459,0.35914 3.91935,2.82625 3.81022,6.16507 1.84957,8.13086 -2.18611,2.19182 z m -70.08589,-3.65016 c -1.02349,-5.11747 -0.7407,-7.875 0.80761,-7.875 1.93743,0 2.89595,3.43507 2.11706,7.58694 -0.79942,4.26125 -2.10433,4.38977 -2.92467,0.28806 z m 35.11057,2.52723 c -1.21198,-1.21198 0.5635,-3.38565 5.19085,-6.35501 7.5005,-4.81306 8.28568,-3.75225 2.03645,2.75133 -3.80639,3.96132 -5.85045,4.98053 -7.2273,3.60368 z m 41.90079,-2.03859 c -4.7632,-4.7632 -2.57302,-6.07818 3.01925,-1.81275 1.83941,1.40299 3.34439,2.97799 3.34439,3.5 0,1.89222 -3.7887,0.88768 -6.36364,-1.68725 z m -212.636365,0.81074 c 0,-1.09203 2.380263,-2.17438 4.781787,-2.17438 2.076407,0 0.484388,1.54373 -2.531787,2.45499 -1.243357,0.37565 -2.25,0.25011 -2.25,-0.28061 z m -13,-1.06739 c 0,-1.4442 3.041524,-2.22301 10.5,-2.68863 l 7,-0.43699 -5,1.93181 c -5.244234,2.02618 -12.5,2.71914 -12.5,1.19381 z m 45.44113,-0.57519 c -1.899444,-1.43666 -1.894567,-1.46888 0.227083,-1.5 2.806097,-0.0412 5.331787,0.94187 5.331787,2.07519 0,1.39956 -3.415238,1.04618 -5.55887,-0.57519 z m 94.084555,-1.48214 c -1.75908,-3.40168 -1.93902,-5.04966 -0.55136,-5.04966 1.03077,0 4.02568,5.17072 4.02568,6.95034 0,2.07429 -1.9785,0.99192 -3.47432,-1.90068 z m 61.47432,1.8846 c 0,-0.58616 0.47258,-1.94876 1.05017,-3.02801 1.51772,-2.83589 3.11088,-1.35382 1.75161,1.62946 -1.14201,2.50643 -2.80178,3.33493 -2.80178,1.39855 z m 5.44615,-0.0214 c -0.36954,-0.59793 -0.17109,-1.58793 0.44098,-2.2 0.81716,-0.81715 1.11287,-0.52828 1.11287,1.08714 0,2.41451 -0.51946,2.78655 -1.55385,1.11287 z M 2.454405,201.93199 c -1.325415,-0.43753 -2.099838,-1.71116 -2.295998,-3.77602 -0.264814,-2.78754 0.03808,-3.18262 2.875,-3.75 5.717428,-1.14349 6.920998,-0.82928 6.920998,1.80678 0,1.34254 0.48921,2.74333 1.087132,3.11287 2.593571,1.60292 -4.815046,3.85158 -8.587132,2.60637 z m 21.5,-2.06559 c -3.303341,-0.4365 -4.012883,-0.79407 -2.668213,-1.34463 2.70592,-1.1079 12.668213,-0.9113 12.668213,0.25 0,0.55 -0.638196,1 -1.418213,1 -0.780016,0 -2.017516,0.15509 -2.75,0.34463 -0.732483,0.18955 -3.356787,0.0771 -5.831787,-0.25 z m 145.000005,-0.10126 c 0,-1.53544 3.85355,-5.47315 4.61298,-4.71372 1.02021,1.02021 -0.33096,3.49905 -2.55649,4.69012 -1.4544,0.77837 -2.05649,0.78528 -2.05649,0.0236 z m 32.9844,-1.86207 c -3.95457,-2.12086 -4.10809,-3.72914 -0.32731,-3.42896 3.19087,0.25334 7.60476,3.06496 6.81576,4.34159 -0.87521,1.41612 -2.59809,1.17379 -6.48845,-0.91263 z m -216.984405,-1.1313 c 0,-0.55 1.8,-1 4,-1 2.2,0 4,0.45 4,1 0,0.55 -1.8,1 -4,1 -2.2,0 -4,-0.45 -4,-1 z m 30.221886,-0.16566 c 0.475447,-1.42634 7.51174,-3.43405 8.515897,-2.42989 1.061114,1.06111 -1.046548,2.31892 -5.092787,3.03927 -2.934275,0.52239 -3.75185,0.37684 -3.42311,-0.60938 z m 48.171854,-1.25066 c -0.76724,-1.99939 -0.0396,-13.27115 0.91855,-14.2293 1.27804,-1.27805 1.90705,0.50899 2.41751,6.86828 0.40431,5.03689 0.1792,6.60798 -1.09882,7.66864 -1.35922,1.12805 -1.70455,1.08056 -2.23724,-0.30762 z m 88.916015,-0.37346 c 1.88412,-2.08192 11.04728,-5.59742 12.91558,-4.95512 2.04666,0.70362 -8.32184,6.7449 -11.5761,6.7449 -2.78,0 -2.86112,-0.10839 -1.33948,-1.78978 z m -173.30574,-0.97583 c -3.883715,-0.44192 -6.291002,-1.96102 -5.397804,-3.40624 0.598844,-0.96895 4.339491,-0.47696 10.210791,1.34299 5.323659,1.6502 2.435988,2.8881 -4.812987,2.06325 z m 96.751545,-0.93846 c -1.72138,-1.91546 -5.05559,-11.32923 -4.28542,-12.0994 1.63528,-1.63529 6.79727,7.72786 6.33895,11.49798 -0.30347,2.49632 -0.3408,2.50725 -2.05353,0.60142 z m -85.00556,-0.51617 c -3.29007,-1.13229 -3.756888,-3.21874 -0.5,-2.23475 2.454452,0.74155 4.370727,2.199 3.683333,2.80142 -0.238333,0.20887 -1.670833,-0.0461 -3.183333,-0.56667 z m 28.518455,-0.0851 c 0.467431,-1.4023 11.521411,-5.23811 12.442038,-4.31748 1.238202,1.2382 -1.537021,2.84508 -7.178704,4.15653 -4.126414,0.95922 -5.543873,1.00256 -5.263334,0.16095 z m 148.73155,-0.69466 c 2.77449,-2.17024 4,-2.48739 4,-1.03518 0,1.13265 -3.29041,3.04495 -5.18426,3.01294 -0.72366,-0.0122 -0.19074,-0.90222 1.18426,-1.97776 z M 13.009128,191.20583 c 1.435317,-1.72945 6.251347,-4.43406 7.895617,-4.43406 2.090371,0 0.976997,1.88179 -2.318374,3.91844 -4.176581,2.58127 -7.550446,2.89319 -5.577243,0.51562 z m 39.947857,-0.94085 c 2.88086,-7.57723 6.8266,-11.79238 5.37613,-5.74321 -1.0642,4.43825 -3.31874,8.25 -4.87964,8.25 -1.13405,0 -1.24212,-0.54563 -0.49649,-2.50679 z m 141.456305,0.44026 c -0.92034,-1.48915 0.14673,-2.29879 2.06137,-1.56407 0.88358,0.33906 1.32643,1.06965 0.98412,1.62354 -0.81058,1.31154 -2.21511,1.28411 -3.04549,-0.0595 z m -208.396923,-4.71398 c -5.187873,-3.54838 -7.419171,-6.21949 -5.195427,-6.21949 1.737707,0 10.077112,6.02619 11.172926,8.07373 1.478451,2.76251 0.186361,2.3617 -5.977499,-1.85424 z m 214.456163,2.80983 c -0.71997,-1.16494 3.37159,-2.32787 6.55184,-1.8622 1.25036,0.18308 2.45863,0.89538 2.68505,1.58288 0.5007,1.52039 -8.30529,1.78667 -9.23689,0.27932 z M -7.390607,186.94303 c -2.708713,-2.99309 -1.991486,-4.83601 0.845012,-2.17126 2.528975,2.37585 3.200962,4 1.654988,4 -0.464757,0 -1.589757,-0.82293 -2.5,-1.82874 z m 18.378281,1.013 c -0.04761,-1.88295 1.863992,-5.18426 3.001915,-5.18426 1.517434,0 1.13698,1.57177 -1.001915,4.13922 -1.124879,1.35026 -1.980971,1.79758 -2,1.04504 z m 150.966736,0.0774 c 0,-1.02734 7.02213,-2.57288 7.86416,-1.73086 0.84129,0.84129 -0.54875,1.54374 -4.24026,2.14279 -2.14132,0.34748 -3.6239,0.17896 -3.6239,-0.41193 z m 17,-0.17989 c 0,-0.50502 -0.27314,-1.63002 -0.60699,-2.5 -0.39831,-1.03799 -0.0545,-1.58179 1,-1.58179 0.88385,0 1.60699,-0.45 1.60699,-1 0,-1.32504 3.70331,-1.28907 4.52718,0.044 0.99346,1.60743 -2.32872,5.956 -4.55023,5.956 -1.08732,0 -1.97695,-0.4132 -1.97695,-0.91821 z M 16.08196,186.03313 c 3.908163,-4.95095 8.345033,-9.26136 9.533078,-9.26136 2.932262,0 0.360385,4.24783 -4.862649,8.03138 -4.563057,3.30546 -6.766919,3.88586 -4.670429,1.22998 z m 64.927755,-1.51136 c -1.67533,-1.7875 -3.04814,-2.6875 -3.05068,-2 -0.009,2.42578 -2.11821,1.20952 -3.46839,-2 -1.7371,-4.12923 -0.98373,-4.94657 1.59927,-1.73506 1.7225,2.14162 1.8505,2.18181 0.92623,0.29075 -0.58987,-1.20687 -1.55395,-2.49186 -2.14239,-2.85554 -0.68201,-0.4215 -0.33266,-1.34808 0.96356,-2.55569 2.56628,-2.39086 3.24083,-2.37157 6.49176,0.18561 2.81288,2.21262 2.71286,4.27449 -0.15398,3.17437 -1.56014,-0.59868 -1.54764,-0.40237 0.13822,2.17058 2.26454,3.45612 3.82973,8.57498 2.62197,8.57498 -0.48373,0 -2.25023,-1.4625 -3.92557,-3.25 z m -82.905465,-0.75 c -1.165583,-3.34359 0.174707,-4.1306 1.814971,-1.06574 1.2751,2.38254 1.330165,4.06574 0.133009,4.06574 -0.496196,0 -1.372787,-1.35 -1.94798,-3 z m 7.850155,-0.94098 c 0,-2.23246 0.45,-4.05902 1,-4.05902 0.55,0 1,1.54844 1,3.44098 0,1.89254 -0.45,3.7191 -1,4.05902 -0.603931,0.37325 -1,-0.98962 -1,-3.44098 z m 185.000005,3 c 0,-0.51754 0.47558,-1.23491 1.05684,-1.59415 1.50998,-0.93322 6.14297,0.40282 5.42504,1.56445 -0.77091,1.24735 -6.48188,1.27352 -6.48188,0.0297 z M 45.603488,185.08752 c -0.376338,-0.37634 0.786162,-2.24392 2.583333,-4.15018 1.797174,-1.90626 2.705084,-3.14679 2.017584,-2.75673 -2.966601,1.68312 -0.91665,-2.10873 2.24835,-4.15884 4.28023,-2.77249 6.4544,-2.96026 4.09551,-0.35371 -1.17493,1.29828 -1.34486,2.02004 -0.53884,2.28872 0.66066,0.22022 -0.832,2.45982 -3.40157,5.10371 -4.54928,4.68086 -5.692982,5.33841 -7.004367,4.02703 z m 104.379882,-0.27669 c -2.55301,-1.61458 -0.067,-2.54546 6.29161,-2.35585 3.46916,0.10346 6.43051,-0.28045 6.80218,-0.88183 0.70998,-1.14877 7.87725,-0.23849 7.87725,1.00045 0,2.43867 -17.67154,4.3239 -20.97104,2.23723 z M 1.636501,184.02177 c -0.239767,-0.4125 -0.752141,-3.7875 -1.138611,-7.5 -0.589967,-5.66733 -0.460121,-6.75 0.809533,-6.75 2.10629,0 3.188219,5.22456 2.743874,13.25 -0.09768,1.76432 -1.607193,2.38942 -2.414796,1 z m 66.317904,-1.30902 c 0,-1.13246 0.45,-1.7809 1,-1.44098 0.55,0.33992 1,1.26648 1,2.05902 0,0.79254 -0.45,1.44098 -1,1.44098 -0.55,0 -1,-0.92656 -1,-2.05902 z m -7.47514,0.0993 c -0.84806,-1.3722 -0.0973,-2.40235 1.38059,-1.8944 0.60526,0.20803 0.68263,0.91401 0.1875,1.71093 -0.62501,1.00598 -1.03043,1.05341 -1.56809,0.18347 z M 189.95441,182.4586 c 0,-1.51443 6.72293,-3.94416 7.48801,-2.70623 0.67495,1.09209 -1.44559,2.61405 -4.73801,3.40056 -1.96736,0.46998 -2.75,0.27238 -2.75,-0.69433 z m 8,0.47146 c 0,-1.06309 6.8768,-3.15829 10.36602,-3.15829 3.86889,0 3.20751,1.74672 -1.11602,2.94742 -4.53071,1.25824 -9.25,1.36582 -9.25,0.21087 z M 11.002437,180.58079 c 0.100185,-4.8162 5.951968,-13.02812 5.951968,-8.35252 0,1.969 -3.573894,9.16212 -4.98571,10.03467 -0.577771,0.35708 -0.993619,-0.36687 -0.966258,-1.68215 z m -19.497141,-2.15341 c -2.939699,-3.85415 -3.124109,-4.65561 -1.071215,-4.65561 0.813822,0 2.397968,1.8 3.520324,4 2.480766,4.8627 1.051603,5.24528 -2.449109,0.65561 z m 63.449109,2.46242 c 0,-0.55 0.45,-1.27811 1,-1.61803 0.55,-0.33992 1,-0.16803 1,0.38197 0,0.55 -0.45,1.27811 -1,1.61803 -0.55,0.33992 -1,0.16803 -1,-0.38197 z m 116.674385,-0.77698 c -0.33252,-0.33252 -2.75779,-0.77851 -5.38948,-0.99109 -5.93056,-0.47906 -10.75032,-2.0009 -12.31753,-3.88928 -2.26796,-2.73272 1.85258,-2.80455 7.26368,-0.12663 3.24458,1.60573 5.59199,2.22778 6.27324,1.66239 0.67883,-0.56338 2.14206,-0.21242 3.88713,0.93233 1.53919,1.0097 2.36855,2.10154 1.84303,2.42633 -0.52552,0.32479 -1.22755,0.31847 -1.56007,-0.014 z M 38.472129,177.80045 c -0.534383,-0.86465 8.898447,-5.75644 14.573156,-7.55752 4.34667,-1.37958 0.73997,1.58888 -6.140321,5.05374 -7.708187,3.88178 -7.600875,3.84992 -8.432835,2.50378 z M 189.9246,176.82746 c 1.2279,-2.29435 2.92324,-3.49559 3.75688,-2.66196 0.69665,0.69666 -2.62814,4.60627 -3.91724,4.60627 -0.48411,0 -0.41194,-0.87494 0.16036,-1.94431 z m 4.02981,0.72662 c 0,-1.59989 10.55892,-7.55672 11.58177,-6.53387 1.49741,1.4974 -3.59572,5.42282 -9.33177,7.19226 -1.56637,0.48319 -2.25,0.28315 -2.25,-0.65839 z M 85.704405,174.59877 c -5.96842,-3.2382 -7.62662,-5.51482 -3.20927,-4.40613 6.365723,1.59769 13.459273,4.83949 13.459273,6.15098 0,2.30847 -4.04988,1.61907 -10.250003,-1.74485 z m 86.869055,0.64919 c -1.98214,-1.98214 -2.02724,-2.47619 -0.22604,-2.47619 0.76616,0 1.67675,0.73941 2.02354,1.64313 0.89955,2.3442 0.0892,2.71976 -1.7975,0.83306 z m 15.02022,-0.25085 c -0.35517,-0.57467 -0.37115,-1.76046 -0.0355,-2.6351 0.33563,-0.87463 0.11209,-1.59024 -0.49675,-1.59024 -1.39478,0 -1.46468,-5.6609 -0.0805,-6.51639 0.56459,-0.34893 0.96127,-1.16299 0.88152,-1.80902 -0.36631,-2.96729 0.21512,-4.67459 1.59196,-4.67459 1.90885,0 1.95469,3.68899 0.10062,8.09852 -1.1725,2.78857 -1.18065,3.49622 -0.0503,4.36481 1.11758,0.85876 1.12477,1.446 0.0419,3.42177 -0.75538,1.37823 -1.57983,1.94401 -1.95298,1.34024 z m -11.24031,-2.77191 c -0.58722,-2.33965 0.0253,-4.36254 1.01976,-3.36805 1.12866,1.12867 1.70216,5.91462 0.70874,5.91462 -0.59915,0 -1.37697,-1.14596 -1.7285,-2.54657 z m 5.25605,0.45661 c -2.31561,-2.70443 -5.10553,-14.85952 -3.72706,-16.23799 1.6501,-1.6501 2.33108,-0.14692 2.97275,6.56198 0.50066,5.23466 0.88733,6.21761 2.3493,5.97213 1.27598,-0.21424 1.75,0.37922 1.75,2.19099 0,3.3435 -1.28136,3.92305 -3.34499,1.51289 z m -16.6825,-0.5634 c -3.48958,-2.33348 -7.97251,-6.56968 -7.97251,-7.53373 0,-2.91735 7.37509,1.70253 11.87244,7.43709 1.16609,1.48687 1.16196,1.75 -0.0275,1.75 -0.76997,0 -2.51257,-0.74401 -3.87244,-1.65336 z m -26.99726,-2.91174 c -1.26834,-3.33599 -1.26406,-13.4349 0.006,-13.4349 0.53952,0 1.24049,1.2375 1.55771,2.75 0.31723,1.5125 1.0008,4.63677 1.51906,6.94282 1.26349,5.62208 1.20022,6.30718 -0.58247,6.30718 -0.83861,0 -1.96361,-1.15429 -2.5,-2.5651 z m 54.09518,2.0651 c 0.0274,-1.67977 4.45809,-8.84284 5.73245,-9.26763 2.39659,-0.79886 1.11186,2.8887 -2.27582,6.53232 -1.91012,2.05442 -3.4656,3.28531 -3.45663,2.73531 z M 45.954405,169.81051 c 0,-0.52869 2.331676,-1.65369 5.1815,-2.5 6.10131,-1.81189 5.8185,-1.78114 5.8185,-0.63274 0,0.4983 -2.10516,1.6233 -4.67814,2.5 -5.437751,1.85283 -6.32186,1.94132 -6.32186,0.63274 z m 77.629865,0.17137 c -0.99479,-1.60959 0.23565,-6.05945 3.03059,-10.96011 3.83054,-6.71647 5.54987,-5.14832 3.28742,2.99835 -1.24795,4.49366 -5.30313,9.60387 -6.31801,7.96176 z m 47.1424,-2.44145 c -3.33419,-4.37207 -5.31644,-8.55782 -4.45887,-9.41539 1.68385,-1.68384 8.12946,8.11512 7.49541,11.3949 -0.22266,1.15177 -1.06968,0.5996 -3.03654,-1.97951 z m -92.272265,0.23134 c -1.43895,-0.61834 -0.38698,-0.87915 3.75,-0.92971 3.21352,-0.0393 5.750003,0.37084 5.750003,0.92971 0,1.20482 -6.696223,1.20482 -9.500003,0 z m -43.5,-0.88337 c 0,-1.06061 3.488814,-2.08415 7.168213,-2.10298 3.512005,-0.018 5.957331,-1.0015 5.267026,-2.11843 -0.3043,-0.49237 1.273285,-0.89522 3.505741,-0.89522 4.39533,0 4.80739,0.39448 2.65765,2.54423 -2.63304,2.63304 -18.59863,4.84126 -18.59863,2.5724 z m 27.38654,-0.94054 c 0.18324,-2.94566 3.21217,-5.31491 5.92446,-4.63417 1.87883,0.47156 2.37257,1.23144 2.29186,3.52728 -0.0964,2.74367 -0.3595,2.92638 -4.21632,2.92852 -3.35666,0.002 -4.09259,-0.33329 -4,-1.82163 z m 87.463505,0.62402 c -0.90747,-0.71506 -2.57508,-3.10011 -3.7058,-5.30011 -1.16159,-2.26006 -2.07507,-3.23878 -2.10004,-2.25 -0.065,2.57348 -1.91404,2.12978 -3.23851,-0.77713 -0.89723,-1.9692 -0.8649,-2.7971 0.14644,-3.75 1.02375,-0.96459 1.39511,-0.95754 1.75828,0.0334 0.25323,0.69093 0.89169,0.98969 1.41881,0.66391 1.40296,-0.86708 3.74284,1.40875 6.00267,5.83838 2.39783,4.70015 2.25343,7.53932 -0.28185,5.54159 z M 82.954405,164.7909 c 0,-0.59145 -1.84009,-0.72866 -4.6348,-0.3456 -3.68469,0.50504 -4.54072,0.35303 -4.17586,-0.74155 0.25242,-0.75725 1.55058,-1.68187 2.8848,-2.05472 1.33422,-0.37284 1.8368,-0.72276 1.11684,-0.77758 -0.71996,-0.0548 -1.0011,-0.59789 -0.62477,-1.20681 0.45408,-0.73472 0.0114,-0.89359 -1.31598,-0.47229 -1.67209,0.5307 -2.00091,0.17916 -2.00436,-2.14287 -0.004,-2.93782 5.88363,-12.25298 8.95891,-14.17352 1.54939,-0.96762 1.79522,-0.77458 1.79522,1.40968 0,1.58081 -1.56884,4.23281 -4.17939,7.06492 -3.97615,4.31361 -4.02792,4.44717 -1.06456,2.74643 3.89236,-2.2339 5.34482,-1.0823 2.13561,1.69324 -2.07116,1.79128 -1.69257,1.72763 2.8251,-0.47499 2.869213,-1.39891 6.169213,-2.54347 7.333333,-2.54347 3.91989,0 1.40528,2.4648 -5.101053,5 -6.01396,2.34335 -6.21338,2.51964 -3.18252,2.81336 1.77842,0.17235 3.23348,0.75034 3.23348,1.28444 0,0.58707 1.977243,0.7088 5.000003,0.30781 4.10023,-0.54391 5,-0.38941 5,0.85857 0,0.83701 -0.7118,1.79499 -1.58179,2.12883 -2.57417,0.9878 -12.418213,0.69143 -12.418213,-0.37388 z m 30.615955,-2.83151 c -0.81836,-1.32414 2.89401,-6.2114 6.28433,-8.27317 5.63946,-3.42956 5.63256,-1.83151 -0.0194,4.48334 -4.11171,4.59398 -5.31727,5.32325 -6.26498,3.78983 z m -134.6023,-4.43762 c 0.02038,-4.85024 1.0368,-7.75 2.71652,-7.75 1.218901,0 1.364879,0.88218 0.785997,4.75 -0.788422,5.26787 -1.193092,6.25 -2.575189,6.25 -0.517541,0 -0.934838,-1.4625 -0.927328,-3.25 z m 65.986345,1.58889 c -6.282797,-1.68993 -7.909217,-2.82967 -6.314145,-4.42474 0.781139,-0.78114 2.871776,-0.34435 7.45,1.55651 8.503155,3.53049 9.893315,3.96368 6.614145,2.06106 -2.57627,-1.49479 -3.71392,-3.53172 -1.97251,-3.53172 0.64503,0 4.41767,2.26763 6.19355,3.72278 0.83012,0.6802 -2.40115,2.24923 -4.47104,2.17104 -1.1,-0.0416 -4.475,-0.74127 -7.5,-1.55493 z m 88.000005,-0.27987 c 0,-1.13246 0.45,-2.05902 1,-2.05902 0.55,0 1,0.64844 1,1.44098 0,0.79254 -0.45,1.7191 -1,2.05902 -0.55,0.33992 -1,-0.30852 -1,-1.44098 z m 23.76796,-0.88324 c -4.63784,-3.04238 -7.89213,-7.20919 -7.23859,-9.26832 0.72581,-2.28682 2.75724,-2.47197 4.47063,-0.40746 0.8601,1.03636 0.89795,1.5 0.12244,1.5 -1.99867,0 -1.14414,1.44413 2.36691,4 1.88887,1.375 3.65683,3.04809 3.9288,3.71797 0.83015,2.0447 -0.90027,2.26173 -3.65019,0.45781 z m -187.369135,-0.57883 c -0.671101,-1.74886 2.677903,-8.45444 5.49476,-11.00194 2.79948,-2.53178 2.655662,-1.00627 -0.595633,6.31802 -2.721533,6.13087 -3.90843,7.26564 -4.899127,4.68392 z m 21.440463,-3.99083 c -2.033399,-4.18535 -1.959103,-8.41623 0.125172,-7.12808 1.018957,0.62975 5.035535,9.12395 5.035535,10.64908 0,0.48008 -0.680849,0.87288 -1.512997,0.87288 -0.832148,0 -2.473618,-1.97725 -3.64771,-4.39388 z m 133.771552,3.57323 c -0.66276,-1.07237 3.05829,-7.17935 4.37446,-7.17935 1.47809,0 1.25313,1.09668 -0.97434,4.75 -2.0837,3.41751 -2.57323,3.76728 -3.40012,2.42935 z m -67.440235,-2.49774 c -2.30492,-2.45348 -2.73379,-3.68161 -1.28562,-3.68161 1.0288,0 4.47342,4.97493 3.86552,5.58282 -0.22511,0.22511 -1.38606,-0.63043 -2.5799,-1.90121 z M 1.189847,153.77649 c -2.269854,-2.11469 -2.926068,-4.00472 -1.39043,-4.00472 1.362997,0 4.39362,3.7841 3.993051,4.98581 -0.217739,0.65322 -1.276999,0.25392 -2.602621,-0.98109 z m 70.319558,-0.25472 c 0.93311,-3.04373 2.47879,-4.84715 3.57418,-4.17016 1.00738,0.62259 -2.0739,6.42016 -3.41218,6.42016 -0.46847,0 -0.54138,-1.0125 -0.162,-2.25 z m 75.463775,0.77261 c -1.93572,-2.3324 -0.69471,-3.927 1.32195,-1.69861 1.0026,1.10786 1.37099,2.23614 0.83773,2.56571 -0.52351,0.32355 -1.49537,-0.0666 -2.15968,-0.8671 z m -98.788218,-3.47055 c -2.326806,-1.68553 -4.230557,-3.73678 -4.230557,-4.55833 0,-2.25049 1.278257,-1.82958 5.4836,1.80565 5.28023,4.56439 4.28031,6.76101 -1.253043,2.75268 z m 13.769443,0.38892 c 0,-0.85746 0.45,-1.2809 1,-0.94098 0.55,0.33992 1,1.04148 1,1.55902 0,0.51754 -0.45,0.94098 -1,0.94098 -0.55,0 -1,-0.70156 -1,-1.55902 z m 46.569005,0.44738 c 0.67554,-1.09305 8.64831,-4.90384 13.30623,-6.36005 3.55965,-1.11286 1.76421,1.11022 -3.69045,4.56946 -4.49792,2.8525 -11.02303,4.06756 -9.61578,1.79059 z m -44.089445,-4.3472 c -0.34411,-2.22264 -0.80752,-4.71616 -1.02978,-5.54116 -0.22227,-0.825 0.0356,-2.175 0.57305,-3 1.54258,-2.36792 2.94361,0.58848 2.96186,6.25 0.008,2.6125 0.46531,4.75 1.01531,4.75 0.55,0 1,0.42203 1,0.93785 0,0.51582 -0.87632,0.87184 -1.94739,0.79116 -1.46801,-0.11058 -2.1014,-1.14147 -2.57305,-4.18785 z m -103.47956,2.5937 c 0,-2.5961 10.206067,-11.26213 11.610045,-9.85815 0.780339,0.78034 -8.732103,10.72329 -10.258996,10.72329 -0.743077,0 -1.351049,-0.38931 -1.351049,-0.86514 z m 109.64323,-1.88486 c 1.65674,-6.6869 2.03338,-7.6422 3.16129,-8.01817 1.64675,-0.54892 1.49772,2.80055 -0.31794,7.14605 -1.78828,4.27994 -3.84388,4.91044 -2.84335,0.87212 z m 50.356775,1.81809 c 0,-1.12777 5.36798,-5.06809 6.90437,-5.06809 1.99683,0 1.12495,1.47074 -2.22308,3.75 -3.5962,2.44821 -4.68129,2.75373 -4.68129,1.31809 z M 4.204405,147.1882 c -3.685283,-2.90444 -4.139494,-4.41643 -1.326725,-4.41643 2.344101,0 8.302359,4.8259 7.520391,6.09115 -0.936096,1.51464 -2.77923,1.01627 -6.193666,-1.67472 z m 51.93641,-0.36942 c -1.27247,-1.72592 -2.17247,-4.13006 -2,-5.34252 0.27958,-1.96538 0.5658,-1.79884 2.63887,1.53535 3.10891,5.00019 2.57714,8.16919 -0.63887,3.80717 z m 100.313595,0.82849 c -6.48684,-2.61477 -7.74843,-3.8755 -3.87814,-3.8755 4.41272,0 12.37814,2.95627 12.37814,4.594 0,1.90268 -2.52721,1.68906 -8.5,-0.7185 z m -36.18266,-4.2601 c 0.72986,-1.90197 0.55453,-1.91862 -6.37073,-0.60528 -3.6813,0.69815 -5.6512,0.68529 -6.37813,-0.0416 -1.64961,-1.64961 0.97895,-2.72005 8.5453,-3.47991 7.04733,-0.70773 10.90891,0.16818 7.31984,1.66034 -1.18317,0.49191 -0.47822,0.57582 1.81638,0.21621 4.35873,-0.6831 5.20457,1.07114 1,2.07396 -1.5125,0.36074 -3.60557,0.91146 -4.65127,1.22381 -1.44949,0.43296 -1.75397,0.18406 -1.28139,-1.04749 z m -145.634421,-1.31942 c -0.676338,-1.09434 2.969446,-4.97694 3.848211,-4.09818 0.28538,0.28538 -0.320674,1.55567 -1.346788,2.82287 -1.099413,1.35772 -2.126775,1.8815 -2.501423,1.27531 z m 159.983751,0.0374 c -0.36667,-0.36671 -0.66667,-1.71671 -0.66667,-3.00005 0,-2 0.5,-2.33333 3.5,-2.33333 3.02494,0 3.5,0.32481 3.5,2.39301 0,2.92302 -4.33709,4.93656 -6.33333,2.94032 z m 15.5771,0.002 c -0.69093,-0.27855 -0.92858,-1.03053 -0.52812,-1.67105 1.1126,-1.77932 1.21336,-3.66433 0.19587,-3.66433 -0.50134,0 -0.91152,-0.9 -0.91152,-2 0,-1.1 -0.44121,-2 -0.98047,-2 -3.54541,0 3.37922,-13.04367 7.33854,-13.82332 2.72807,-0.53721 1.85836,2.01165 -2.10807,6.17808 -2.0625,2.1665 -3.13719,3.59032 -2.3882,3.16405 0.78751,-0.44819 1.68941,-0.24497 2.13863,0.48188 0.61003,0.98706 1.47782,0.90721 4.04183,-0.37189 3.99068,-1.99081 4.95774,-2.03758 4.95774,-0.23979 0,0.76396 -1.9125,2.31653 -4.25,3.45016 -2.3375,1.13363 -3.63936,2.08357 -2.89301,2.11099 0.78762,0.0289 1.11547,0.67922 0.78138,1.54984 -0.46108,1.20156 0.36321,1.50305 4.14301,1.51531 5.32641,0.0173 7.85303,1.14918 6.70644,3.00439 -0.54169,0.87648 -2.71856,1.0935 -7.37811,0.73556 -3.63534,-0.27927 -5.82221,-0.30545 -4.85971,-0.0582 0.9625,0.24726 1.75,0.86657 1.75,1.37624 0,0.96954 -3.59561,1.1334 -5.75623,0.26232 z m -196.243775,-1.31506 c 0,-0.53882 1.758705,-1.8769 3.908234,-2.9735 4.849987,-2.47428 12.091766,-3.77667 12.091766,-2.17463 0,0.6203 0.476558,1.12781 1.059017,1.12781 0.582459,0 0.840498,-0.35357 0.573419,-0.78571 -0.267079,-0.43215 0.381363,-0.78572 1.440983,-0.78572 1.059619,0 1.926581,0.32325 1.926581,0.71833 0,1.00497 -3.788213,2.10203 -4.895454,1.41771 -0.502344,-0.31046 -4.218871,0.55735 -8.258949,1.92848 -8.554357,2.9032 -7.845597,2.76523 -7.845597,1.52723 z m 54.6206,-1.58758 c -5.055925,-1.33826 -7.481432,-2.90524 -6.310092,-4.07658 0.905418,-0.90542 11.48565,1.505 12.285307,2.79887 1.249857,2.02231 -1.190576,2.54416 -5.975215,1.27771 z M -4.316627,137.6799 c -3.001439,-1.74736 -0.849655,-3.0219 2.327783,-1.37878 1.618787,0.8371 2.943249,1.73545 2.943249,1.99633 0,0.84603 -3.451684,0.44163 -5.271032,-0.61755 z m 124.271037,-0.90813 c 0,-0.55 1.0125,-1.02707 2.25,-1.06017 1.2375,-0.0331 -0.74216,-0.86754 -4.39924,-1.85434 -9.55829,-2.57914 -10.37701,-2.95924 -9.10778,-4.22847 0.76988,-0.76988 2.60157,-0.59633 6.41722,0.60803 9.13139,2.88222 10.63374,3.63896 11.15096,5.61683 0.42197,1.6136 -0.0392,1.91812 -2.90478,1.91812 -1.87351,0 -3.40638,-0.45 -3.40638,-1 z m -136.733447,-3.70356 c -1.406759,-0.2716 -2.136328,-1.05401 -1.97107,-2.11382 0.49339,-3.16416 1.823749,-4.18262 5.463529,-4.18262 2.690976,0 3.348268,0.29272 2.519128,1.12186 -0.61702,0.61702 -0.866448,1.78743 -0.554283,2.60092 0.500038,1.30308 -1.372876,3.45231 -2.723862,3.12573 -0.275,-0.0665 -1.505049,-0.31491 -2.733442,-0.55207 z m 15.233442,-0.0309 c -4.032044,-0.77135 -4.873153,-1.29236 -3.807222,-2.35829 0.702951,-0.70295 2.086022,-0.59517 4.381357,0.34142 3.420197,1.39559 3.04618,2.70947 -0.574135,2.01687 z m -29.5,-1.26551 c 0.825,-0.53316 2.625,-0.96937 4,-0.96937 1.978938,0 2.187363,0.20204 1,0.96937 -0.825,0.53316 -2.625,0.96937 -4,0.96937 -1.978938,0 -2.187363,-0.20204 -1,-0.96937 z m 34.25,-0.66228 c -0.6875,-0.27741 -1.25,-0.93745 -1.25,-1.46674 0,-1.47101 13.257093,-0.62372 13.753636,0.87902 0.300681,0.90999 -1.173706,1.22853 -5.420303,1.17105 -3.208333,-0.0434 -6.395833,-0.30592 -7.083333,-0.58333 z M 122.95441,130.7718 c 0,-0.55 0.45,-1 1,-1 0.55,0 1,0.45 1,1 0,0.55 -0.45,1 -1,1 -0.55,0 -1,-0.45 -1,-1 z m -164.750005,-0.8075 c -2.3375,-0.16912 -4.25,-0.67916 -4.25,-1.13342 0,-1.24408 4.552637,-1.86383 9.552109,-1.30032 8.400869,0.9469 3.736882,3.08774 -5.302109,2.43374 z m 184.750005,-1.07006 c 0,-1.27875 2.94038,-3.51539 3.66667,-2.78911 0.72629,0.72629 -1.51036,3.66667 -2.78911,3.66667 -0.48266,0 -0.87756,-0.3949 -0.87756,-0.87756 z M -1.538856,127.78267 c -0.272388,-0.44073 0.213968,-1.07348 1.080792,-1.40611 2.324974,-0.89218 4.610853,-0.7348 3.98707,0.2745 -0.776681,1.2567 -4.479552,2.08352 -5.067862,1.13161 z m -30.031511,-1.05098 c -0.421617,-0.68219 0.332299,-0.80583 2.190983,-0.35932 3.831413,0.92041 4.19405,1.3994 1.059473,1.3994 -1.434208,0 -2.896913,-0.46804 -3.250456,-1.04008 z m 150.245617,-2.57396 c -3.59138,-3.4883 -4.61344,-5.38596 -2.90084,-5.38596 1.21727,0 9.18,7.00679 9.18,8.07792 0,1.93989 -2.70387,0.7807 -6.27916,-2.69196 z m 20.35811,1.03071 c 0.048,-1.16494 0.28494,-1.4019 0.60416,-0.60417 0.28887,0.72188 0.25335,1.58438 -0.0789,1.91667 -0.3323,0.33229 -0.56864,-0.25834 -0.52522,-1.3125 z m 2.55237,0.79581 c -0.61581,-0.9964 1.05088,-8.75015 2.43801,-11.34202 1.40156,-2.61885 3.93557,-2.37279 3.90871,0.37954 -0.0256,2.62467 -3.2968,10.21094 -4.80481,11.14294 -0.56927,0.35183 -1.26313,0.27062 -1.54191,-0.18046 z m -168.727048,-2.82782 c -1.159853,-1.39753 -1.08641,-1.56608 0.544689,-1.25 1.036916,0.20094 2.072591,0.92784 2.301501,1.61534 0.593964,1.78389 -1.25999,1.54592 -2.84619,-0.36534 z m 22.095723,0.52847 c 0,-1.11495 3.429965,-2.91313 5.556703,-2.91313 1.41145,0 1.47731,0.25409 0.401767,1.55004 -1.017288,1.22576 -0.198318,1.12115 3.914575,-0.5 5.605782,-2.20959 9.126955,-2.62827 9.126955,-1.08522 0,1.9723 -4.71247,3.41653 -11.75,3.60101 -3.9875,0.10453 -7.25,-0.18918 -7.25,-0.6527 z m 134.341795,0.27089 c -2.73152,-1.75813 -5.72969,-11.18402 -3.5574,-11.18402 0.90777,0 3.69846,4.5096 5.14474,8.31361 1.02743,2.70233 0.27249,4.06749 -1.58734,2.87041 z m 5.84442,-2.39838 c -1.2906,-4.76754 -0.11268,-11.47626 1.80673,-10.29 1.28569,0.7946 1.32509,12.18977 0.0449,12.98098 -0.5292,0.32706 -1.36243,-0.88388 -1.85162,-2.69098 z m -174.936215,-0.44792 c -2.3375,-0.82741 -4.25,-2.14189 -4.25,-2.92105 0,-2.04055 1.555065,-1.76173 6.57193,1.17835 6.498476,3.80836 5.541923,4.52629 -2.32193,1.7427 z m 33.75,-0.60439 c 0,-0.88841 0.498043,-1.9231 1.106763,-2.29931 0.787975,-0.487 0.75171,-0.90345 -0.125904,-1.44585 -1.552123,-0.95926 4.384345,-9.98817 6.567182,-9.98817 2.346062,0 1.682345,2.16038 -1.798041,5.85257 -1.7875,1.89628 -2.6875,3.12865 -2,2.73859 2.257914,-1.28104 1.332599,1.98262 -1.25,4.40884 -1.99887,1.87784 -2.5,2.02484 -2.5,0.73333 z m -18,-1.23333 c 0,-0.825 0.401855,-1.5 0.893011,-1.5 0.491156,0 1.152033,0.675 1.468615,1.5 0.350624,0.91371 0.0016,1.5 -0.893011,1.5 -0.807738,0 -1.468615,-0.675 -1.468615,-1.5 z m 24,-0.76701 c 0,-1.49403 8.057334,-7.73299 9.986802,-7.73299 0.637915,0 1.010015,0.7875 0.826887,1.75 -0.428613,2.25275 -10.813689,7.99859 -10.813689,5.98299 z m -10,-1.61054 c 0,-1.92626 2.641438,-4.81434 3.561607,-3.89418 0.706127,0.70613 -1.682963,5.77173 -2.722122,5.77173 -0.461717,0 -0.839485,-0.8449 -0.839485,-1.87755 z m -22.991637,-3.23327 c -2.194179,-2.26095 -3.717832,-4.55025 -3.385896,-5.08733 0.617035,-0.99839 6.608838,4.29231 8.435157,7.44815 1.853777,3.20329 -0.898175,1.91659 -5.049261,-2.36082 z m 13.491637,2.11082 c -0.339919,-0.55 -0.141476,-1 0.440983,-1 0.582459,0 1.059017,0.45 1.059017,1 0,0.55 -0.198442,1 -0.440983,1 -0.242541,0 -0.719098,-0.45 -1.059017,-1 z m 5.5,-1.5 c 0,-1.375 0.45,-2.5 1,-2.5 0.55,0 1,1.125 1,2.5 0,1.375 -0.45,2.5 -1,2.5 -0.55,0 -1,-1.125 -1,-2.5 z m -2.406305,-0.3484 c -1.22615,-1.98395 -1.908473,-13.1516 -0.803539,-13.1516 1.430819,0 2.142532,2.49219 2.357266,8.25437 0.178425,4.78784 -0.432077,6.7121 -1.553727,4.89723 z m -9.055996,-4.03282 c -0.328393,-1.03467 -1.483717,-2.90353 -2.567388,-4.15301 -2.370512,-2.73322 -2.608018,-5.14771 -0.423921,-4.30959 2.304931,0.88448 6.911996,10.34382 5.037844,10.34382 -0.797202,0 -1.718143,-0.84655 -2.046535,-1.88122 z m 15.462301,-1.1509 c 0,-1.11766 0.685327,-3.67233 1.52295,-5.67705 1.132608,-2.71071 1.812738,-3.35514 2.653584,-2.51429 0.840846,0.84084 0.685612,2.2959 -0.605658,5.67705 -1.815191,4.75301 -3.570876,5.98921 -3.570876,2.51429 z"
         id="path253"
         inkscape:connector-curvature="0" />
    </g>
  </g>
</svg>
