<?xml version="1.0" encoding="UTF-8" standalone="no"?>
<!-- Created with Inkscape (http://www.inkscape.org/) -->

<svg
   xmlns:dc="http://purl.org/dc/elements/1.1/"
   xmlns:cc="http://creativecommons.org/ns#"
   xmlns:rdf="http://www.w3.org/1999/02/22-rdf-syntax-ns#"
   xmlns:svg="http://www.w3.org/2000/svg"
   xmlns="http://www.w3.org/2000/svg"
   xmlns:sodipodi="http://sodipodi.sourceforge.net/DTD/sodipodi-0.dtd"
   xmlns:inkscape="http://www.inkscape.org/namespaces/inkscape"
   version="1.1"
   id="svg2949"
   width="283"
   height="443"
   viewBox="0 0 283 443"
   sodipodi:docname="feu95.svg"
   inkscape:version="0.92.4 (5da689c313, 2019-01-14)">
  <metadata
     id="metadata2955">
    <rdf:RDF>
      <cc:Work
         rdf:about="">
        <dc:format>image/svg+xml</dc:format>
        <dc:type
           rdf:resource="http://purl.org/dc/dcmitype/StillImage" />
        <dc:title />
      </cc:Work>
    </rdf:RDF>
  </metadata>
  <defs
     id="defs2953" />
  <sodipodi:namedview
     pagecolor="#ffffff"
     bordercolor="#666666"
     borderopacity="1"
     objecttolerance="10"
     gridtolerance="10"
     guidetolerance="10"
     inkscape:pageopacity="0"
     inkscape:pageshadow="2"
     inkscape:window-width="1920"
     inkscape:window-height="1017"
     id="namedview2951"
     showgrid="false"
     inkscape:zoom="1.5067919"
     inkscape:cx="112.64858"
     inkscape:cy="221.5"
     inkscape:window-x="-8"
     inkscape:window-y="-8"
     inkscape:window-maximized="1"
     inkscape:current-layer="g180"
     showguides="false" />
  <g
     id="g151"
     transform="translate(25.882805,-2.654647)">
    <g
       id="g180"
       transform="translate(23.228158,-38.492376)">
      <g
         id="g223"
         transform="translate(5.3092932,-8.6276016)"
         style="fill:#7f2aff">
        <path
           style="fill:#7f2aff"
           d="m 108.81016,396.7136 c -3.01238,-3.01238 -1.14099,-6.42857 3.52158,-6.42857 3.16077,0 4.22818,2.02501 2.90369,5.50868 -1.08688,2.85872 -4.06069,3.28447 -6.42527,0.91989 z m -11.371429,-1.62857 c -3.01371,-3.01371 -0.0224,-7.47421 4.287009,-6.39262 4.15464,1.04275 2.87185,7.59262 -1.48701,7.59262 -0.879999,0 -2.139999,-0.54 -2.799999,-1.2 z m 22.048339,-4.1543 c -0.91804,-2.01487 -0.80258,-2.73913 0.64558,-4.0497 3.42971,-3.10385 7.57778,-0.95052 6.93284,3.59896 -0.49487,3.49093 -6.04287,3.8209 -7.57842,0.45074 z m -31.581669,-4.31237 c -1.43136,-1.43135 -0.55793,-5.29609 1.52695,-6.75639 1.98269,-1.38873 2.36731,-1.37928 4,0.0983 2.08437,1.88633 2.33305,4.39811 0.60638,6.12478 -1.29351,1.29351 -5.04679,1.61988 -6.13333,0.53333 z m 13.937589,-3.48794 c -2.130899,-3.04229 -0.40864,-6.07372 3.213,-5.65532 3.33674,0.38549 4.33843,4.4917 1.58658,6.5039 -2.42048,1.7699 -3.04256,1.65992 -4.79958,-0.84858 z m 10.46658,-0.71302 c -1.69988,-3.17626 -0.28662,-5.28589 3.30681,-4.93621 2.73509,0.26616 3.12235,0.67592 3.12235,3.30384 0,2.51081 -0.43746,3.05054 -2.68274,3.30993 -1.86356,0.2153 -3.00754,-0.29695 -3.74642,-1.67756 z m 15.59583,1.20096 c -1.18838,-1.18837 -0.70575,-5.05601 0.78534,-6.2935 1.65132,-1.37047 5.48783,-0.50549 5.66647,1.27756 0.23082,2.30381 -0.33304,4.19198 -1.46843,4.9173 -1.44524,0.92326 -4.10609,0.97593 -4.98338,0.0986 z m -30.869679,-7.09583 c -2.23343,-0.48006 -3.28548,-3.94398 -1.75716,-5.78549 2.50016,-3.01251 6.960169,-1.00596 6.960169,3.13136 0,2.24166 -2.11131,3.31867 -5.203009,2.65413 z m -12.37378,-2.68743 c -1.22671,-4.88759 4.32618,-7.51687 6.96955,-3.30007 1.50614,2.40266 -0.33117,5.15859 -3.70874,5.56306 -2.09787,0.25122 -2.74198,-0.1958 -3.26081,-2.26299 z m -42.038429,0.68462 c -0.61337,-0.40408 -1.41103,-1.68366 -1.772578,-2.84351 -0.871711,-2.79646 1.590009,-4.80823 4.874811,-3.9838 1.954742,0.49061 2.512986,1.26916 2.512986,3.50468 0,3.43102 -2.871506,5.13014 -5.615219,3.32263 z m 64.853538,-0.39637 c -2.91094,-2.91094 -0.38704,-7.21298 3.61733,-6.16582 1.82329,0.4768 2.19383,1.18216 1.94796,3.70815 -0.33212,3.41222 -3.30007,4.72289 -5.56529,2.45767 z m 9.77246,-0.32533 c -1.99094,-2.39894 -0.42876,-6.51299 2.47309,-6.51299 2.98458,0 4.58707,2.68625 3.43019,5.75 -0.97051,2.57016 -4.07089,2.97088 -5.90328,0.76299 z M 53.622431,369.6777 c -0.99412,-3.96093 3.90986,-6.15373 6.57647,-2.94066 2.01063,2.42265 0.31585,5.54799 -3.00851,5.54799 -2.30579,0 -3.05006,-0.54389 -3.56796,-2.60733 z m 76.282969,1.94066 c -2.47996,-2.47996 1.42565,-8.00261 4.75573,-6.72473 2.09922,0.80554 2.97886,4.20299 1.53777,5.93939 -1.23749,1.49109 -5.10513,1.97372 -6.2935,0.78534 z M 28.438731,368.08503 c -1.827068,-1.82707 -1.434908,-4.60391 0.820667,-5.81106 2.516988,-1.34705 3.607586,-0.71394 4.211417,2.4448 0.739696,3.86946 -2.417105,5.98124 -5.032084,3.36626 z m 72.999999,-2 c -2.678779,-2.67878 -0.59841,-6.8 3.43261,-6.8 3.04297,0 4.09385,3.53979 1.80254,6.07166 -2.00906,2.21999 -3.53167,2.43182 -5.23515,0.72834 z m 10.22491,-3.24316 c -0.78464,-3.12624 0.12638,-4.5608 2.88411,-4.54153 3.60549,0.0252 5.03498,1.47794 4.30728,4.37736 -0.52095,2.07562 -1.25842,2.60733 -3.6163,2.60733 -2.30699,0 -3.09748,-0.54021 -3.57509,-2.44316 z m -68.38504,-0.009 c -1.899602,-2.28888 -0.837425,-5.01142 2.087979,-5.35185 1.970709,-0.22933 2.748598,0.22334 3.173052,1.84645 1.157857,4.42765 -2.482563,6.85325 -5.261031,3.5054 z m 46.113481,-0.29784 c -1.45182,-2.77059 0.37375,-6.25 3.27924,-6.25 3.19375,0 5.08035,3.17305 3.56741,6 -1.32954,2.48427 -5.59427,2.63999 -6.84665,0.25 z m -27.08251,-1.11763 c -2.04608,-3.82314 1.23839,-7.10761 5.06153,-5.06153 3.08279,1.64986 2.16817,6.33667 -1.31511,6.73909 -1.86356,0.2153 -3.00754,-0.29695 -3.74642,-1.67756 z m 61.859589,-1.71619 c -1.63423,-1.96914 -0.1481,-4.77768 2.7592,-5.21444 2.73518,-0.41089 4.28109,1.76769 3.22743,4.54826 -0.99088,2.61489 -4.08371,2.95905 -5.98663,0.66618 z m -72.131559,-1.40367 c -1.863872,-1.53011 -2.090323,-2.2302 -1.196742,-3.69986 2.392632,-3.93513 8.310662,-1.76397 6.942422,2.54698 -0.90688,2.85732 -3.12686,3.30276 -5.74568,1.15288 z M 22.7235,357.23704 c -1.368808,-4.31273 4.420684,-6.86571 6.549441,-2.88809 0.819897,1.53199 0.797407,2.43404 -0.08726,3.5 -1.797012,2.16527 -5.697976,1.79588 -6.462181,-0.61191 z m 11.753552,0.88631 c -1.66632,-1.66632 -1.558861,-3.37492 0.331125,-5.26491 2.344984,-2.34498 5.649819,-0.2993 5.240486,3.24385 -0.34495,2.98585 -3.472371,4.1203 -5.571611,2.02106 z m 65.474259,-2.45908 c -1.36827,-1.36826 -0.69742,-4.31698 1.214979,-5.34047 2.9292,-1.56766 5.23209,-0.22699 4.87654,2.83898 -0.22757,1.96233 -0.94268,2.69672 -2.84152,2.91816 -1.39559,0.16275 -2.85809,-0.0247 -3.249999,-0.41667 z m 13.384549,-1.28211 c -2.25327,-2.25327 -1.79253,-5.74164 0.86996,-6.58669 5.21151,-1.65406 7.81041,4.93272 2.96868,7.52394 -1.45563,0.77902 -2.33774,0.56365 -3.83864,-0.93725 z m -69.616427,-1.48758 c -1.632349,-1.19361 -1.733229,-1.7599 -0.712569,-4 1.412176,-3.09939 4.707173,-3.45847 6.196683,-0.67529 1.338794,2.50156 1.322845,2.63522 -0.536245,4.49431 -1.926294,1.9263 -2.530767,1.94841 -4.947869,0.18098 z m 20.381948,-3.01165 c -0.90293,-1.98173 -0.86941,-2.88483 0.15282,-4.11654 2.81057,-3.38653 8.70344,0.55786 6.37729,4.26864 -1.78529,2.84797 -5.19942,2.76845 -6.53011,-0.1521 z m -27.679785,-1.66827 c -3.208667,-1.26685 -2.747134,-6.27876 0.622177,-6.75639 2.24339,-0.31803 5.194958,1.29465 5.194958,2.83842 0,0.42172 -0.7875,1.68163 -1.75,2.7998 -1.374884,1.59724 -2.246683,1.83692 -4.067135,1.11817 z m 16.898925,-0.33108 c -1.68067,-2.02508 -0.51474,-5.25207 2.14929,-5.94873 2.92064,-0.76376 4.93541,1.11658 4.56948,4.26458 -0.22537,1.93875 -0.94741,2.66079 -2.88616,2.88616 -1.42207,0.1653 -3.14675,-0.3756 -3.83261,-1.20201 z m -30.415123,-0.26522 c -1.238271,-1.23827 -0.677605,-6.3919 0.755192,-6.94172 1.8833,-0.72269 5.578141,1.31223 5.578141,3.07215 0,2.89941 -4.533558,5.66935 -6.333333,3.86957 z M 173.5482,344.64911 c -1.47323,-3.83917 3.83981,-6.65986 6.02355,-3.1979 0.7627,1.20912 0.69043,2.10064 -0.26345,3.25 -1.71056,2.06109 -4.96047,2.03169 -5.7601,-0.0521 z m -12.91786,-0.78594 c -0.90053,-2.34674 1.46565,-5.57814 4.08456,-5.57814 2.96731,0 3.89883,1.36975 3.09892,4.55684 -0.4805,1.91447 -1.26505,2.44316 -3.62553,2.44316 -1.68156,0 -3.25337,-0.62814 -3.55795,-1.42186 z M 45.438731,343.08503 c -1.651574,-1.65157 -1.509898,-5.74385 0.221859,-6.40839 2.32234,-0.89116 5.578141,1.46487 5.578141,4.03658 0,3.22482 -3.51116,4.66065 -5.8,2.37181 z m 15.84568,-3.24496 c -2.14234,-2.58136 -0.88019,-6.01685 2.34581,-6.38512 4.30693,-0.49165 6.09749,3.19824 3.03708,6.25865 -1.95871,1.95872 -3.82585,2.00258 -5.38289,0.12647 z m 125.704999,0.67354 c -2.65099,-0.56824 -3.46844,-5.23057 -1.20701,-6.88417 3.92098,-2.86709 8.19817,-0.43627 7.07894,4.02311 -0.61749,2.46024 -2.79412,3.52079 -5.87193,2.86106 z m -34.50068,-1.87236 c -1.81183,-0.7579 -1.56015,-6.02323 0.32244,-6.74565 2.73955,-1.05126 5.58125,1.23115 5.23749,4.20669 -0.30825,2.66822 -2.67129,3.7473 -5.55993,2.53896 z M 29.738731,336.28503 c -1.746633,-1.93001 -1.746633,-2.06999 0,-4 2.422643,-2.67699 4.305614,-2.52074 5.668461,0.47039 0.860665,1.88895 0.826801,2.83039 -0.143884,4 -1.713161,2.06423 -3.35748,1.92423 -5.524577,-0.47039 z m 140.069449,-1.57341 c -1.98167,-1.98167 -1.97215,-2.88103 0.0519,-4.90511 2.30039,-2.30039 4.82249,-1.48871 5.18855,1.66981 0.40968,3.53483 -2.89856,5.57722 -5.24048,3.2353 z M 53.278601,331.83307 c -2.647684,-3.19026 1.25886,-8.20486 4.37631,-5.61761 1.88116,1.56123 2.0537,4.19969 0.38382,5.86957 -1.60329,1.60329 -3.29471,1.51376 -4.76013,-0.25196 z m -12.648258,-0.9699 c -0.900221,-2.34594 1.5048,-5.73519 3.823922,-5.38882 2.98908,0.44642 4.509905,3.23165 2.854033,5.22686 -1.634724,1.96972 -5.944146,2.07424 -6.677955,0.16196 z m 119.108607,-0.57779 c -0.37868,-0.61271 -0.40524,-2.24266 -0.059,-3.6221 0.47185,-1.88001 1.18409,-2.42923 2.84415,-2.19317 3.16896,0.45062 3.21994,6.17166 0.059,6.62211 -1.1856,0.16895 -2.46547,-0.19413 -2.84414,-0.80684 z m 31.7034,-1.57028 c -2.58996,-1.81408 -2.85448,-4.64502 -0.6082,-6.50926 1.33007,-1.10386 2.03691,-1.07627 4.25,0.1659 3.16807,1.77819 3.43569,4.65071 0.6082,6.52809 -1.74518,1.15876 -2.37072,1.13157 -4.25,-0.18473 z m -12.84605,-0.94064 c -0.95102,-2.47832 2.21339,-5.24983 4.41119,-3.86349 0.95218,0.60062 1.73124,1.94299 1.73124,2.98305 0,2.52332 -5.22462,3.2722 -6.14243,0.88044 z m -30.6909,-0.1561 c -1.18294,-1.18293 -0.70875,-5.05352 0.76941,-6.28028 1.87294,-1.55441 5.56392,0.2912 5.56392,2.78213 0,3.17305 -4.28929,5.5422 -6.33333,3.49815 z m 20.53333,-1.53333 c -3.23333,-3.23333 1.75288,-8.74385 5.27039,-5.82458 2.36686,1.96432 1.85577,4.95007 -1.03549,6.04933 -3.14441,1.1955 -2.79617,1.21398 -4.2349,-0.22475 z m -69.189219,-6.28701 c -1.53083,-1.84454 -0.57701,-6.08173 1.553029,-6.8991 2.65942,-1.02052 5.43619,1.18321 5.43619,4.3143 0,3.95804 -4.47579,5.6133 -6.989219,2.5848 z m 60.239219,0.82473 c -2.04608,-0.82561 -1.45982,-5.15506 0.86666,-6.40016 2.93602,-1.57131 5.39678,0.88062 4.49394,4.4778 -0.62425,2.4872 -2.3908,3.1207 -5.3606,1.92236 z m 18.58514,-1.07921 c -4.15728,-0.92983 -2.63552,-6.25851 1.7873,-6.25851 1.95553,0 2.37756,0.51353 2.37756,2.89301 0,2.98428 -1.27237,4.01245 -4.16486,3.3655 z m -91.803069,-3.19858 c -2.13675,-3.99256 1.93528,-7.63486 5.79801,-5.18611 0.75546,0.47892 1.18747,2.09236 1,3.73469 -0.26147,2.29043 -0.88775,2.95592 -3.01282,3.20142 -1.88992,0.21834 -3.00854,-0.29883 -3.78519,-1.75 z m 101.357459,0.5128 c -0.30123,-0.785 -0.39961,-2.4725 -0.21861,-3.75 0.25478,-1.79832 1.05509,-2.3929 3.54477,-2.63353 2.73874,-0.2647 3.3115,0.071 3.86167,2.26299 0.37735,1.50349 0.13278,3.19215 -0.58814,4.0608 -1.57153,1.89357 -5.88101,1.93258 -6.59969,0.0597 z M 32.94758,315.66055 c -1.279167,-1.27917 -0.741104,-6.14917 0.742284,-6.71839 0.798123,-0.30627 2.485623,0.29239 3.75,1.33036 1.863869,1.53011 2.09032,2.2302 1.196739,3.69986 -1.15911,1.90637 -4.484146,2.89304 -5.689023,1.68817 z m 77.85848,-1.30112 c -2.0504,-2.26566 -1.77027,-4.91736 0.68267,-6.4621 3.91454,-2.4652 7.90534,4.33851 4.15384,7.08167 -2.34522,1.71487 -2.77353,1.66 -4.83651,-0.61957 z m 38.68267,1.28182 c -1.89923,-0.79447 -1.49514,-3.8244 0.78529,-5.88816 1.98306,-1.79464 2.09178,-1.78543 4.23612,0.35891 1.74254,1.74253 1.97422,2.56234 1.11258,3.93693 -1.11948,1.78593 -3.92816,2.51504 -6.13399,1.59232 z m 19.19113,-1.79765 c -1.55422,-1.15413 -1.72009,-1.80192 -0.83214,-3.25 1.46017,-2.3813 5.75192,-2.38858 6.20989,-0.0105 0.33835,1.75689 -1.38424,4.70196 -2.7502,4.70196 -0.37753,0 -1.55993,-0.64864 -2.62755,-1.44143 z M 45.438731,313.08503 c -1.719543,-1.71954 -1.48049,-5.75514 0.383277,-6.47033 0.923998,-0.35457 2.45924,0.2684 3.686928,1.49609 2.048195,2.04819 2.055095,2.15731 0.261736,4.13895 -2.136863,2.3612 -2.697856,2.46937 -4.331941,0.83529 z M 21.928332,312.1312 c -2.446703,-1.36925 -2.169704,-5.55902 0.421906,-6.38156 2.758656,-0.87556 5.316287,1.61217 4.453205,4.3315 -0.795193,2.50543 -2.660087,3.28965 -4.875111,2.05006 z m 54.699929,-4.27344 c -1.12286,-2.92615 0.0622,-6.06589 2.41551,-6.39949 2.55173,-0.36174 5.19496,1.3569 5.19496,3.37778 0,3.48883 -6.44868,6.04926 -7.61047,3.02171 z m 13.0257,0.067 c -0.31536,-0.82184 -0.42531,-2.53947 -0.24431,-3.81697 0.25768,-1.8188 0.9563,-2.32273 3.22009,-2.32273 3.56355,0 5.60985,2.68375 4.00301,5.25 -1.42506,2.27594 -6.21262,2.88629 -6.97879,0.8897 z m 12.106249,-0.26108 c -1.949089,-1.94909 -1.65659,-4.26429 0.72852,-5.76632 3.4649,-2.18203 7.36659,2.73491 4.71013,5.93574 -1.57407,1.89664 -3.43042,1.83881 -5.43865,-0.16942 z m 57.47852,0.8241 c -1.86062,-0.62348 -2.96464,-2.21115 -2.98469,-4.29223 -0.0179,-1.86224 4.31772,-4.10369 6.39552,-3.30636 4.57988,1.75746 1.25598,9.1624 -3.41083,7.59859 z m 21.7921,-0.45275 c -2.7598,-2.16944 -3.15434,-5.48577 -0.80238,-6.7445 4.48237,-2.39889 9.17824,1.88198 6.40602,5.83989 -1.71684,2.45113 -3.30925,2.7082 -5.60364,0.90461 z m -63.77663,-3.23136 c -1.02223,-1.23171 -1.05575,-2.13481 -0.15282,-4.11654 1.33069,-2.92055 4.74482,-3.00007 6.53011,-0.1521 2.32615,3.71078 -3.56672,7.65517 -6.37729,4.26864 z m -79.815469,-0.71864 c -1.714437,-1.71444 -1.482443,-5.47764 0.381787,-6.19301 2.934278,-1.12599 4.455857,-0.61848 5.586674,1.8634 1.892084,4.15267 -2.766206,7.53186 -5.968461,4.32961 z m 15.87992,-0.2037 c -2.122448,-2.5574 -0.90997,-5.0963 2.43378,-5.0963 2.65144,0 2.9863,0.33639 2.9863,3 0,2.28 -0.501,3.07158 -2.08751,3.29826 -1.14812,0.16404 -2.64778,-0.37684 -3.33257,-1.20196 z M 26.2786,302.83307 c -2.647683,-3.19026 1.25886,-8.20486 4.376308,-5.61761 1.881166,1.56123 2.0537,4.19969 0.383823,5.86957 -1.603293,1.60329 -3.29471,1.51376 -4.760131,-0.25196 z m 142.3524,-1.12126 c -0.81929,-3.26431 0.58254,-4.67245 4.23591,-4.25496 2.14723,0.24538 2.95697,0.93042 3.20931,2.71509 0.64374,4.55282 -6.32716,5.99459 -7.44522,1.53987 z M 11.205602,298.22313 c -0.98057,-1.83221 -0.828904,-2.52051 0.946638,-4.29605 2.734647,-2.73465 5.586491,-1.22006 5.586491,2.96694 0,2.39257 -0.462529,2.94445 -2.682742,3.20094 -1.930303,0.22301 -3.010235,-0.30199 -3.850387,-1.87183 z m 74.008549,0.53229 c -0.97068,-1.16961 -1.00455,-2.11105 -0.14388,-4 1.23367,-2.70761 2.30686,-3.00187 5.2342,-1.43521 2.34236,1.2536 2.47853,3.27769 0.36283,5.39339 -1.98447,1.98447 -3.82914,1.99862 -5.45315,0.0418 z m 10.5269,-0.46663 c -2.37107,-3.83647 -0.43605,-7.41581 3.69264,-6.83052 4.326259,0.61329 3.166479,7.82676 -1.25839,7.82676 -1.00019,0 -2.09561,-0.44831 -2.43425,-0.99624 z m 10.982449,-2.05175 c -0.68199,-2.14875 0.96407,-4.96282 2.88767,-4.9367 2.58382,0.0351 3.89098,1.79902 3.24386,4.37736 -0.8295,3.30498 -5.13543,3.69779 -6.13153,0.55934 z m -32.284769,-0.15201 c -1.72323,-1.72323 -1.48715,-3.23015 0.83529,-5.33194 1.98111,-1.79288 2.09039,-1.78682 4.10469,0.22748 1.42467,1.42466 1.86001,2.72913 1.39732,4.18693 -0.74811,2.3571 -4.37292,2.88191 -6.3373,0.91753 z m -28.961679,-0.96168 c -3.087627,-3.08763 -0.01681,-7.8605 3.757689,-5.84046 1.513429,0.80997 2.03478,1.90771 1.813922,3.8194 -0.34495,2.98585 -3.472371,4.1203 -5.571611,2.02106 z m 73.511678,-0.91842 c -4.36305,-2.54124 -0.20837,-9.30595 4.25,-6.9199 2.2176,1.18682 2.52881,3.14339 0.96482,6.06574 -1.14852,2.14603 -2.59113,2.38232 -5.21482,0.85416 z m -85.604758,-1.24489 c -2.746451,-3.30928 2.630753,-7.32759 5.699315,-4.25903 1.241467,1.24147 1.367186,2.02733 0.536366,3.35278 -1.403573,2.23919 -4.728408,2.7224 -6.235681,0.90625 z m 22.604759,0.24489 c -3.91612,-2.28093 -0.91328,-9.14802 3.06843,-7.01707 2.74206,1.4675 3.27379,3.5205 1.54943,5.98237 -1.66426,2.37606 -2.13413,2.48134 -4.61786,1.0347 z M 21.147303,289.1142 c -0.964193,-1.80162 -0.849492,-2.3992 0.674379,-3.51348 1.009897,-0.73846 2.272223,-1.1973 2.805169,-1.01965 1.680159,0.56005 2.955251,3.36677 2.302412,5.06804 -0.899308,2.34356 -4.415545,2.01826 -5.78196,-0.53491 z m 68.066848,-0.35878 c -1.68096,-2.02544 0.24471,-6.47039 2.80314,-6.47039 4.07452,0 5.75264,5.11016 2.28718,6.96482 -2.61792,1.40107 -3.59604,1.30606 -5.09032,-0.49443 z M 11.94758,287.66055 c -1.225437,-1.22544 -0.77328,-4.16823 0.897097,-5.83861 2.158307,-2.15831 4.608753,-0.18521 4.194612,3.37749 -0.295313,2.54048 -3.475286,4.07754 -5.091709,2.46112 z m 88.90539,-0.90414 c -3.193419,-3.19342 1.45909,-8.31526 4.9338,-5.43151 1.88278,1.56257 1.84143,3.42781 -0.11947,5.3887 -1.96461,1.96461 -2.88436,1.97279 -4.81433,0.0428 z m -21.953789,-1.95379 c -3.33066,-3.33065 2.202,-8.53649 5.85254,-5.50681 2.10132,1.74394 1.84682,3.62379 -0.7355,5.43252 -2.74805,1.92481 -3.25911,1.93223 -5.11704,0.0743 z m -38.140953,-1.14095 c -1.923954,-1.92395 -1.659542,-4.25924 0.64668,-5.71147 2.053979,-1.29339 4.833823,0.67459 4.833823,3.42209 0,2.8279 -3.48584,4.28404 -5.480503,2.28938 z m 72.730502,0.96108 c -1.33814,-0.53995 -1.63271,-3.17682 -0.64301,-5.75593 0.86416,-2.25197 5.11272,-1.97404 6.39301,0.41821 2.05494,3.83969 -1.4346,7.07902 -5.75,5.33772 z m -83.68142,-1.66392 c -2.254252,-1.64834 -1.356259,-5.28902 1.530561,-6.20527 4.176424,-1.32554 6.809222,4.43978 2.966601,6.49629 -2.419355,1.2948 -2.319608,1.30125 -4.497162,-0.29102 z m 23.471291,-3.12576 c -2.082358,-2.50909 -0.84501,-5.04804 2.46013,-5.04804 2.06626,0 3.07819,0.54822 3.31888,1.79804 0.39704,2.06166 -1.46661,4.70196 -3.31888,4.70196 -0.69031,0 -1.79737,-0.65338 -2.46013,-1.45196 z m 49.162589,-2.57194 c -2.698469,-4.36985 1.17462,-8.2695 5.43844,-5.47573 3.65931,2.39767 2.8417,5.84407 -1.65092,6.959 -1.86989,0.46404 -2.81311,0.0947 -3.78752,-1.48327 z m -83.797231,-1.49768 c -0.457618,-1.82329 -0.15127,-3.16095 0.983885,-4.2961 2.290892,-2.2909 5.110887,-0.40019 5.110887,3.42667 0,2.40129 -0.459923,2.94404 -2.715122,3.20407 -2.221819,0.25618 -2.835858,-0.168 -3.37965,-2.33464 z m 71.794772,1.32158 c -2.22202,-2.22202 -1.4342,-5.70311 1.45478,-6.4282 4.81153,-1.20762 8.03016,2.80041 4.82374,6.00682 -1.91666,1.91666 -4.60295,2.09695 -6.27852,0.42138 z m -47.95,-3.46228 c -1.591282,-0.6421 -1.623235,-4.56448 -0.05,-6.13772 3.010223,-3.01022 7.646702,0.55692 6.288011,4.83777 -0.59975,1.88965 -3.354102,2.46363 -6.238011,1.29995 z m -12.05,-1.53772 c -2.532691,-2.53269 -0.636601,-6.8 3.021439,-6.8 2.558428,0 4.484097,4.44495 2.803138,6.47039 -1.520966,1.83265 -4.171542,1.98264 -5.824577,0.32961 z m -42.808388,-4.22186 c -0.72269,-1.8833 1.312232,-5.57814 3.072143,-5.57814 1.462791,0 4.536245,2.62302 4.536245,3.87143 0,2.84019 -6.604887,4.32179 -7.608388,1.70671 z m 195.033297,-1.0213 c -0.33726,-1.34375 -0.31927,-2.91875 0.04,-3.5 1.05982,-1.71482 6.33366,-1.23926 7.40065,0.66734 1.48786,2.65867 -0.43769,5.27582 -3.88165,5.27582 -2.28989,0 -3.08229,-0.54397 -3.55896,-2.44316 z M 0.760211,265.66365 c -1.949092,-1.94909 -1.656588,-4.26429 0.72852,-5.76632 2.039172,-1.28418 5.061189,0.14436 5.549949,2.62351 0.30646,1.55446 -2.253639,4.76419 -3.799949,4.76419 -0.471429,0 -1.586763,-0.72962 -2.47852,-1.62138 z m -23.77148,-1.45872 c -0.9625,-0.5606 -1.75,-1.6464 -1.75,-2.41289 0,-1.85676 3.871193,-4.49367 5.614802,-3.82458 1.920399,0.73692 1.767478,5.9569 -0.196589,6.71058 -1.890901,0.72561 -1.530288,0.77212 -3.668213,-0.47311 z m 217.495079,-0.0748 c -2.70121,-2.70123 -0.6838,-6.8451 3.33248,-6.8451 2.80699,0 4.66383,2.27012 4.2492,5.19496 -0.24649,1.73879 -1.06494,2.37753 -3.33168,2.60012 -1.65271,0.16229 -3.56521,-0.26521 -4.25,-0.95 z m -22.85823,-2.43987 c -0.50782,-2.02333 -0.21267,-3.05941 1.15682,-4.0608 2.36154,-1.7268 2.96534,-1.69254 4.93812,0.28024 2.66888,2.66888 1.54806,5.82414 -2.19748,6.18615 -2.7773,0.26843 -3.30863,-0.0595 -3.89746,-2.40559 z m -109.186849,0.39477 c -1.73253,-1.73253 -1.47595,-4.2403 0.62874,-6.14501 2.51861,-2.27931 3.84721,-2.07919 5.78001,0.87063 1.54964,2.36506 1.54126,2.65114 -0.13194,4.5 -2.02468,2.23725 -4.50762,2.54357 -6.27681,0.77438 z m -12.890532,-2.43592 c -0.897156,-2.33795 1.019496,-4.86408 3.690532,-4.86408 2.67104,0 4.58769,2.52613 3.69053,4.86408 -0.39211,1.02183 -1.77746,1.63592 -3.69053,1.63592 -1.91307,0 -3.298418,-0.61409 -3.690532,-1.63592 z M 9.438731,259.08503 c -1.620635,-1.62064 -1.517701,-5.29144 0.188077,-6.70711 2.059603,-1.70932 6.611923,0.6093 6.611923,3.36763 0,2.53377 -1.767348,4.53948 -4,4.53948 -0.88,0 -2.14,-0.54 -2.8,-1.2 z m 194.999999,-1 c -2.68245,-2.68245 -0.59745,-6.8 3.4433,-6.8 3.02647,0 5.59121,3.69329 4.27396,6.15461 -1.12781,2.10731 -5.85961,2.50304 -7.71726,0.64539 z m -210.949999,-0.8642 c -4.21342,-1.63172 -1.708918,-7.85101 2.609631,-6.48035 2.838692,0.90096 3.527277,3.61394 1.429314,5.6314 -1.311591,1.26126 -2.389324,1.48779 -4.038945,0.84895 z m 79.2002,-0.34856 c -2.20009,-1.60874 -1.28249,-6.18831 1.41125,-7.04326 3.30871,-1.05015 5.27441,0.43168 4.94239,3.72578 -0.36178,3.58925 -3.64064,5.30128 -6.35364,3.31748 z M 181.9054,256.61836 c -1.43725,-1.43724 -0.57689,-5.31101 1.41652,-6.37785 1.6619,-0.88943 2.47082,-0.76408 4,0.6198 3.50008,3.16754 1.98001,6.42472 -2.99831,6.42472 -0.96335,0 -2.05155,-0.3 -2.41821,-0.66667 z m -200.145189,-2.95471 c -2.453234,-2.45323 -1.48526,-4.83177 2.109061,-5.18246 3.560935,-0.34743 4.999314,1.75843 3.330689,4.87628 -1.259563,2.35352 -3.278763,2.46717 -5.43975,0.30618 z m -11.977809,-0.72303 c -2.679215,-1.95909 -1.371695,-6.65559 1.852936,-6.65559 3.745814,0 5.182227,2.46764 3.19863,5.49499 -1.883094,2.87397 -2.511082,3.01825 -5.051566,1.1606 z m 70.500669,-0.57274 c -0.879973,-1.64424 -0.700125,-2.42706 0.932742,-4.05993 1.112605,-1.11261 2.417818,-2.02292 2.900473,-2.02292 1.641029,0 3.277107,2.88191 2.949209,5.19496 -0.448058,3.16067 -5.230973,3.7868 -6.782424,0.88789 z m 123.527089,0.34572 c -0.86429,-0.86428 -1.57143,-1.91954 -1.57143,-2.34501 0,-1.09208 3.44768,-4.08356 4.7063,-4.08356 1.97607,0 3.52461,2.94384 2.88632,5.48701 -0.72785,2.89999 -3.61179,3.35096 -6.02119,0.94156 z m 28.46064,-0.36864 c -1.67016,-3.12073 0.35794,-6.26581 3.78519,-5.86986 2.34029,0.27037 2.68274,0.75671 2.68274,3.80993 0,3.05322 -0.34245,3.53956 -2.68274,3.80993 -1.88992,0.21834 -3.00854,-0.29883 -3.78519,-1.75 z M 60.237001,250.28179 c -0.85807,-1.60331 -0.84463,-2.47696 0.0548,-3.56068 1.61588,-1.94701 5.86272,-1.81915 6.63748,0.19984 1.57337,4.10014 -4.62947,7.2152 -6.69226,3.36084 z M 0.318607,248.88127 c -1.831574,-2.20691 -0.399185,-5.59624 2.365067,-5.59624 3.143855,0 5.270326,2.63906 3.894941,4.83382 -1.391573,2.2206 -4.714006,2.62524 -6.260008,0.76242 z m 50.44691,-2.21231 c -1.857716,-1.85772 -1.624709,-3.2888 0.782734,-4.80737 2.05927,-1.29896 5.01709,0.25544 5.53887,2.9108 0.6487,3.30126 -3.63249,4.58568 -6.321604,1.89657 z m 2.473214,-2.38393 c 0,-0.55 -0.45,-1 -1,-1 -0.55,0 -1,0.45 -1,1 0,0.55 0.45,1 1,1 0.55,0 1,-0.45 1,-1 z m 28.25,3.33772 c -2.30094,-0.92845 -1.43792,-5.29498 1.29239,-6.53899 2.16747,-0.98756 2.84746,-0.85332 4.61111,0.91033 l 2.06872,2.06872 -2.11111,2.11111 c -2.09081,2.09081 -3.44222,2.42487 -5.86111,1.44883 z m 93.760569,-0.82499 c -2.63732,-3.17777 2.4999,-7.8594 5.41998,-4.93932 2.02099,2.02099 2.01458,5.0418 -0.0123,5.8196 -2.5245,0.96875 -4.08374,0.71493 -5.40764,-0.88028 z M -9.826473,245.1632 c -0.940866,-1.75803 -0.773056,-2.48435 0.978713,-4.23612 1.671251,-1.67125 2.478074,-1.88519 3.850388,-1.02099 2.209174,1.39122 2.747396,4.05794 1.196234,5.92698 -1.749976,2.10859 -4.714748,1.77898 -6.025335,-0.66987 z m 21.082586,0.64277 c -1.010512,-1.21759 -1.053155,-2.14701 -0.185843,-4.05055 2.030666,-4.45683 7.700223,-2.24859 6.995225,2.72457 -0.401998,2.83575 -4.839275,3.69982 -6.809382,1.32598 z m 197.554047,-0.0924 c -1.90834,-1.90834 -1.94381,-2.53705 -0.27212,-4.82323 1.86,-2.54369 7.09705,-1.83181 7.50391,1.02001 0.32932,2.30837 -2.12573,5.37468 -4.30322,5.37468 -0.74643,0 -2.06429,-0.70714 -2.92857,-1.57143 z M 71.438731,245.08503 c -2.78477,-2.78477 -0.79744,-5.8 3.82277,-5.8 2.60765,0 3.19657,1.4245 1.82942,4.42506 -1.25159,2.74694 -3.68761,3.33952 -5.65219,1.37494 z M 185.04442,243.7579 c -1.20826,-2.65183 -0.48019,-4.14751 2.19431,-4.50778 3.34373,-0.45041 4.89742,0.13635 5.51523,2.0829 1.52147,4.79372 -5.60844,7.0363 -7.70954,2.42488 z m -204.081512,-0.60735 c -2.235569,-1.25109 -2.188337,-3.13549 0.131205,-5.23464 2.381858,-2.15555 5.144618,-1.11324 5.144618,1.94093 0,2.88074 -2.84262,4.6554 -5.275823,3.29371 z m 216.968752,0.35194 c -1.36717,-0.2921 -1.73232,-1.15673 -1.5,-3.55177 0.25415,-2.62009 0.7823,-3.22035 3.06446,-3.48283 2.12625,-0.24454 2.95451,0.21324 3.6186,2 1.46367,3.9381 -0.66003,6.00097 -5.18306,5.0346 z m -78.38346,-1.85338 c -0.96728,-2.5207 1.09751,-4.86408 4.28582,-4.86408 3.21121,0 4.41743,2.57482 2.36484,5.04804 -1.62671,1.96007 -5.87299,1.84261 -6.65066,-0.18396 z m -151.109469,-0.56408 c -1.752255,-1.75226 -1.469791,-3.58524 0.734259,-4.76482 2.94383,-1.57549 4.881059,-1.24878 6.099951,1.02874 2.038731,3.80941 -3.650652,6.91964 -6.83421,3.73608 z M 37.81016,240.7136 c -2.279698,-2.2797 -1.931823,-4.30724 0.965511,-5.62735 3.404167,-1.55105 6.023217,0.8308 5.073658,4.61414 -0.745513,2.97036 -3.602665,3.44972 -6.039169,1.01321 z m 93.47425,0.12647 c -1.91068,-2.30222 -0.88952,-6.0063 1.75936,-6.3818 4.42304,-0.62702 6.6542,3.22466 3.62353,6.25533 -1.95871,1.95872 -3.82585,2.00258 -5.38289,0.12647 z m 31.52575,-0.12647 c -2.22318,-2.22318 -1.95262,-4.1327 0.84532,-5.96598 2.02641,-1.32776 2.75323,-1.37339 4.5,-0.28251 3.58119,2.23649 2.12083,7.81992 -2.04532,7.81992 -0.95072,0 -2.43572,-0.70714 -3.3,-1.57143 z M 60.477051,240.12335 c -1.84813,-1.84813 -1.49966,-4.19402 0.84004,-5.65518 2.75834,-1.72262 5.13764,0.1574 4.7222,3.73126 -0.33618,2.892 -3.49987,3.98629 -5.56224,1.92392 z m 49.188739,-1.60363 c -1.74595,-1.19553 -2.35516,-3.90659 -1.14892,-5.11283 1.93967,-1.93967 6.51329,-1.35438 7.23709,0.92613 1.12624,3.54847 -2.93829,6.34355 -6.08817,4.1867 z M -1.757114,236.79004 c -0.999856,-1.20476 -0.922081,-1.98133 0.400608,-4 1.888033,-2.88151 3.782307,-3.17508 6.023808,-0.93358 1.85909,1.85909 1.875039,1.99275 0.536245,4.49431 -1.229739,2.29779 -5.209773,2.54896 -6.960661,0.43927 z m 181.035714,0.043 c -2.62269,-3.16015 1.24152,-8.12188 4.65061,-5.97148 2.54963,1.60826 2.65183,3.08113 0.37202,5.36094 -2.44291,2.44291 -3.40485,2.55984 -5.02263,0.61054 z M 48.66364,234.84187 c -0.799907,-3.18709 0.13161,-4.55684 3.098921,-4.55684 3.03971,0 5.16876,3.46055 3.42312,5.56392 -1.97941,2.38504 -5.819494,1.79209 -6.522041,-1.00708 z m 5.575091,-1.13016 c 0,-0.93124 -0.68037,-1.44138 -1.66713,-1.25 -2.508773,0.48655 -2.853248,2.82332 -0.4162,2.82332 1.22833,0 2.08333,-0.64569 2.08333,-1.57332 z m 27.93043,1.9895 c -1.86639,-2.24886 0.07031,-4.91618 3.56957,-4.91618 3.49926,0 5.43596,2.66732 3.56957,4.91618 -0.72295,0.8711 -2.32926,1.58382 -3.56957,1.58382 -1.24031,0 -2.84662,-0.71272 -3.56957,-1.58382 z m -92.692109,-0.57786 c -2.903408,-2.90341 -0.124883,-7.57187 3.770675,-6.33546 1.655867,0.52555 2.039475,1.34325 1.797988,3.83261 -0.335288,3.4563 -3.288078,4.78344 -5.568663,2.50285 z m 200.511678,0.0816 c -2.2922,-1.33508 -2.23904,-4.58781 0.0954,-5.83716 1.32828,-0.71087 2.44917,-0.56472 4,0.52152 2.67346,1.87257 2.76095,4.00087 0.22035,5.36056 -2.30203,1.23201 -2.12014,1.2339 -4.31574,-0.0449 z m 12.64125,-1.44552 c -1.54964,-2.36506 -1.54126,-2.65114 0.13194,-4.5 3.13971,-3.46934 7.47681,-1.90869 7.47681,2.69044 0,2.11172 -2.51889,4.33518 -4.91121,4.33518 -0.57347,0 -1.78737,-1.13653 -2.69754,-2.52562 z m -192.351423,0.0736 c -1.554272,-1.87279 -0.495377,-5.1956 1.85126,-5.80926 2.464472,-0.64446 5.108914,0.96581 5.108914,3.11097 0,3.74862 -4.606402,5.53442 -6.960174,2.6983 z m 131.556333,-0.85402 c -2.54974,-1.86442 -1.76465,-6.0992 1.20888,-6.52073 4.61699,-0.65451 7.18388,4.69195 3.2607,6.79158 -2.41684,1.29345 -2.32245,1.29917 -4.46958,-0.27085 z M 68.648471,231.9104 c -1.19844,-3.12307 0.01416,-5.12537 3.10396,-5.12537 2.65144,0 2.9863,0.33639 2.9863,3 0,2.53088 -0.43092,3.04957 -2.75569,3.31697 -1.75858,0.20228 -2.96514,-0.22887 -3.33457,-1.19159 z m -93.364059,-1.07034 c -2.844258,-3.42712 1.07853,-9.22068 4.704319,-6.9478 3.568338,2.23688 2.284753,8.39277 -1.75,8.39277 -0.965311,0 -2.294754,-0.65023 -2.954319,-1.44496 z m 151.536708,0.12886 c -3.56368,-2.60583 0.43064,-8.42497 4.16761,-6.0716 2.46585,1.55288 2.79191,4.51827 0.66761,6.0716 -0.98993,0.72387 -2.07785,1.31611 -2.41761,1.31611 -0.33976,0 -1.42768,-0.59224 -2.41761,-1.3161 z m 42.96128,-0.0283 c -2.28723,-1.67246 -1.44165,-6.23581 1.31778,-7.11161 4.49731,-1.4274 7.6722,3.10388 4.5737,6.52768 -2.06005,2.27633 -3.39591,2.40873 -5.89148,0.58393 z M 59.931661,230.51615 c -1.3651,-0.30198 -1.73197,-1.17401 -1.5,-3.56543 0.24145,-2.48914 0.82938,-3.23941 2.75104,-3.51066 3.06904,-0.4332 5.38802,2.35612 4.04506,4.86546 -1.09949,2.05443 -2.79778,2.76331 -5.2961,2.21063 z m 3.73778,-5.13374 c -0.26308,-0.26308 -1.25511,0.33267 -2.20452,1.3239 -1.64929,1.72194 -1.62798,1.74325 0.47833,0.47833 1.21249,-0.72815 1.98927,-1.53915 1.72619,-1.80223 z m -22.71665,3.28335 c -1.663041,-1.66304 -0.646269,-5.4545 1.756326,-6.54919 3.226649,-1.47016 5.75091,0.4634 5.330172,4.08286 -0.240157,2.06599 -0.910673,2.64537 -3.336498,2.88299 -1.669767,0.16357 -3.357267,-0.0239 -3.75,-0.41666 z m 3.36094,-2.65573 c -0.123693,-1.1957 -1.495288,-0.96414 -1.925,0.325 -0.22,0.66 0.14,1.02 0.8,0.8 0.66,-0.22 1.16625,-0.72625 1.125,-1.125 z m 57.167979,2.11798 c -2.863789,-2.86379 -0.31073,-7.28689 3.84985,-6.66974 3.0362,0.45036 4.72486,3.30305 3.30119,5.57676 -1.34526,2.1485 -5.46574,2.77828 -7.15104,1.09298 z m 5.39792,-1.53542 c -1.14275,-1.14274 -4.6409,-1.36984 -4.6409,-0.30129 0,0.54655 1.2,0.99373 2.66667,0.99373 1.46666,0 2.35507,-0.3116 1.97423,-0.69244 z m -106.890899,0.61234 c -3.206132,-1.8674 -1.50669,-6.9199 2.327555,-6.9199 2.875164,0 4.382063,2.69583 3.090906,5.52961 -1.206516,2.64802 -2.631384,3.01361 -5.418461,1.39029 z m 116.289829,-0.37191 c -1.55428,-1.87279 -0.49538,-5.1956 1.85126,-5.80926 2.46447,-0.64447 5.10891,0.9658 5.10891,3.11096 0,3.74862 -4.6064,5.53442 -6.96017,2.6983 z m 78.18268,-1.10469 c -2.95616,-2.07058 -2.81236,-4.78966 0.34259,-6.47814 4.65547,-2.49153 8.39904,2.207 4.86757,6.10924 -2.10548,2.32653 -2.38681,2.34645 -5.21016,0.3689 z m -207.754155,-0.84278 c -1.718649,-1.25671 -1.771919,-1.66479 -0.52215,-4 1.487153,-2.77877 3.898605,-3.35571 5.853796,-1.40052 1.801862,1.80186 1.445703,4.59814 -0.734259,5.76482 -2.427977,1.29941 -2.30926,1.30882 -4.597387,-0.3643 z m 90.916426,0.63417 c -0.61337,-0.40408 -1.43004,-1.74355 -1.81482,-2.9766 -0.91385,-2.92849 3.42117,-5.34026 5.90043,-3.28267 3.67548,3.05039 -0.123,8.86977 -4.08561,6.25927 z m 105.865219,-0.33387 c -1.28397,-0.47728 -2.25,-1.67823 -2.25,-2.79717 0,-2.25763 2.5094,-5.10365 4.5,-5.10365 1.29258,0 4.5,2.59243 4.5,3.63717 0,1.21808 -2.0636,4.17288 -3.22222,4.61378 -0.70278,0.26744 -2.29028,0.10988 -3.52778,-0.35013 z m -49.48425,-1.65082 c -2.41329,-2.73486 -0.5777,-6.47596 2.97686,-6.06714 3.40823,0.39199 4.4493,4.47242 1.66123,6.51111 -2.31999,1.69642 -2.78899,1.65153 -4.63809,-0.44397 z m -82.522769,-2.40702 c -1.908933,-1.90893 -1.492844,-3.63316 1.32179,-5.47738 2.45014,-1.60539 2.66182,-1.58345 4.73612,0.49085 1.71632,1.71632 1.94356,2.53516 1.08437,3.90745 -1.33784,2.13676 -5.46157,2.75979 -7.14228,1.07908 z m 3.75702,-2.84298 c 0,-0.55 -0.45,-1 -1,-1 -0.55,0 -1,0.45 -1,1 0,0.55 0.45,1 1,1 0.55,0 1,-0.45 1,-1 z m 89.526629,2.38377 c -1.3974,-1.3974 -1.42933,-1.8977 -0.23585,-3.69519 1.9065,-2.87134 3.03957,-3.05142 5.69096,-0.90445 1.94895,1.57816 2.1129,2.17052 1.1162,4.03287 -1.37989,2.57835 -4.30725,2.83083 -6.57131,0.56677 z m -80.955199,-0.9552 c -3.03067,-3.03067 -0.79951,-6.88235 3.62353,-6.25533 1.70163,0.24122 2.39145,1.08369 2.63512,3.21825 0.49165,4.30693 -3.19824,6.09749 -6.25865,3.03708 z m 59.548549,-1.20439 c -1.33288,-2.4905 0.4358,-5.22418 3.38002,-5.22418 1.32034,0 2.83482,0.77588 3.36552,1.72418 1.37499,2.45696 -0.4232,5.27582 -3.36552,5.27582 -1.3363,0 -2.85731,-0.79912 -3.38002,-1.77582 z m -20.1402,-2.26195 c -2.49852,-4.66853 2.41011,-8.57234 6.11735,-4.8651 2.14631,2.14631 1.36284,5.12865 -1.65114,6.28522 -2.56435,0.98403 -3.3057,0.74831 -4.46621,-1.42012 z M 3.438731,215.08503 c -3.233329,-3.23333 1.752881,-8.74385 5.270386,-5.82458 2.841018,2.35784 1.19983,7.02458 -2.470386,7.02458 -0.88,0 -2.14,-0.54 -2.8,-1.2 z m 12.299706,0.19952 c -1.033848,-1.6728 0.266573,-5.69586 2.064104,-6.38563 2.747114,-1.05417 5.590333,1.22391 5.246122,4.20337 -0.253932,2.19801 -0.8802,2.73809 -3.466083,2.9891 -1.735883,0.1685 -3.465748,-0.19458 -3.844143,-0.80684 z m 98.889693,-1.58416 c -0.8628,-3.43768 1.8375,-6.39194 4.37936,-4.79123 2.20478,1.38845 2.74132,4.05633 1.19137,5.92391 -1.94838,2.34765 -4.84504,1.75868 -5.57073,-1.13268 z m 17.54103,-0.99918 c -1.88897,-2.27607 0.0791,-4.91618 3.66486,-4.91618 1.97454,0 2.98597,0.56415 3.22359,1.79804 0.76732,3.98436 -4.27519,6.26691 -6.88845,3.11814 z m 4.06957,-1.41618 c 0,-0.55 -0.47656,-1 -1.05902,-1 -0.58246,0 -0.7809,0.45 -0.44098,1 0.33992,0.55 0.81648,1 1.05902,1 0.24254,0 0.44098,-0.45 0.44098,-1 z M 26.318607,208.88127 c -1.607432,-1.93683 -0.526998,-5.28658 2.170845,-6.73042 1.777782,-0.95144 2.409418,-0.76881 3.958877,1.1447 1.61522,1.99471 1.671264,2.53769 0.452405,4.38312 -1.724565,2.6111 -4.927508,3.1963 -6.582127,1.2026 z m 96.959993,-0.0482 c -1.98316,-2.38956 -0.83203,-5.01263 2.36017,-5.37812 4.17686,-0.47822 5.85373,2.43345 3.02853,5.25865 -1.96089,1.9609 -3.82613,2.00225 -5.3887,0.11947 z m 4.6893,-2.15221 c -0.3323,-0.33229 -1.1948,-0.36781 -1.91667,-0.0789 -0.79773,0.31922 -0.56078,0.55618 0.60417,0.60416 1.05416,0.0434 1.64479,-0.19292 1.3125,-0.52522 z m 40.82753,1.38166 c -2.06586,-2.94943 -1.98318,-3.45194 0.87624,-5.32551 1.89255,-1.24005 2.89207,-1.34841 4.5,-0.48787 2.64252,1.41423 2.7222,5.6149 0.1328,7.00071 -2.81097,1.50438 -3.76819,1.29808 -5.50904,-1.18733 z M -6.261269,207.28503 c -1.746633,-1.93001 -1.746633,-2.06999 0,-4 2.500943,-2.76351 5.310927,-2.50908 6.731867,0.60955 1.02066,2.2401 0.91978,2.80639 -0.712569,4 -2.576238,1.88379 -3.882576,1.7515 -6.019298,-0.60955 z m 147.535179,0.0657 c -1.56666,-2.92734 -1.2724,-4.00053 1.43521,-5.2342 3.04051,-1.38535 5.52961,0.27293 5.52961,3.68392 0,3.6832 -5.20345,4.84143 -6.96482,1.55028 z m 41.16482,-0.2657 c -2.53269,-2.53269 -0.6366,-6.8 3.02144,-6.8 2.55843,0 4.4841,4.44495 2.80314,6.47039 -1.52097,1.83265 -4.17155,1.98264 -5.82458,0.32961 z m -177.199999,-3.8 c -1.258388,-2.35132 0.239854,-6 2.463755,-6 1.797097,0 4.536245,2.73915 4.536245,4.53624 0,1.38737 -2.936806,3.46376 -4.899075,3.46376 -0.566807,0 -1.512223,-0.9 -2.100925,-2 z m 101.666669,1.33333 c -2.60226,-2.60225 1.2347,-8.07588 4.72282,-6.73736 2.12738,0.81635 3.02137,4.20405 1.57068,5.95202 -1.23749,1.49109 -5.10513,1.97372 -6.2935,0.78534 z m 50.90476,-1.90476 c -2.01737,-2.01736 -1.97783,-2.75081 0.25731,-4.77358 2.48318,-2.24725 5.87116,-2.08425 7.17126,0.34501 2.4317,4.54367 -3.67371,8.18343 -7.42857,4.42857 z m 4.42857,-1.82158 c 0,-0.21616 -0.69837,-0.661 -1.55194,-0.98855 -0.88992,-0.34149 -1.29132,-0.17385 -0.94098,0.39301 0.58726,0.95021 2.49292,1.40545 2.49292,0.59554 z M 16.2786,201.83307 c -2.647683,-3.19026 1.25886,-8.20486 4.376308,-5.61761 2.042919,1.69548 2.044174,5.67894 0.002,6.46258 -2.337773,0.89709 -3.045997,0.76041 -4.378344,-0.84497 z m 173.92592,-1.61196 c -1.5303,-2.85938 0.38383,-4.93608 4.54967,-4.93608 3.68636,0 5.07022,2.03714 3.44577,5.07244 -1.43365,2.6788 -6.53538,2.59179 -7.99544,-0.13636 z m -72.03536,-0.5199 c -1.76004,-2.12073 -0.0601,-4.81591 3.29268,-5.22028 2.965,-0.35759 4.28304,1.98983 2.73812,4.87654 -1.25002,2.33569 -4.23636,2.5059 -6.0308,0.34374 z m 14.65196,0.26772 c -2.1243,-1.55333 -1.79824,-4.51872 0.66761,-6.0716 3.73697,-2.35337 7.73129,3.46577 4.16761,6.0716 -0.98993,0.72386 -2.07785,1.3161 -2.41761,1.3161 -0.33976,0 -1.42768,-0.59224 -2.41761,-1.3161 z m -144.223741,-1.72525 c -1.474388,-1.47439 -0.571663,-4.77428 1.628124,-5.95157 2.501852,-1.33895 5.290636,0.98529 4.858198,4.04895 -0.382818,2.71211 -4.476144,3.9128 -6.486322,1.90262 z m 186.204151,-0.76079 c -0.83281,-2.62395 0.23293,-4.99825 2.57757,-5.74241 2.70394,-0.8582 5.0206,1.35843 4.66019,4.45895 -0.24328,2.09283 -0.90367,2.64411 -3.46509,2.89258 -2.40282,0.2331 -3.3109,-0.15422 -3.77267,-1.60912 z M 30.85297,196.75641 c -2.353318,-2.35332 -0.601461,-5.97138 2.891328,-5.97138 3.911669,0 5.463761,2.77142 3.047407,5.44146 -2.219111,2.45209 -3.869314,2.59934 -5.938735,0.52992 z M -1.23464,193.6688 c -1.412413,-1.41241 -1.43788,-1.88531 -0.201949,-3.75 1.875101,-2.82903 4.500692,-3.23924 6.219025,-0.97164 1.793891,2.36732 1.781759,2.86955 -0.115134,4.76644 -2.006996,2.007 -3.864244,1.9929 -5.901942,-0.0448 z m 11.673371,0.41623 c -1.799869,-1.79987 -1.446547,-4.59768 0.727558,-5.76123 2.857605,-1.52934 5.072442,-0.23635 5.072442,2.96123 0,3.61909 -3.359217,5.24078 -5.8,2.8 z m 12.038541,-1.53446 c -2.225114,-0.77585 -3.51786,-4.22406 -2.18549,-5.82946 1.527204,-1.84017 5.569861,-1.86114 6.271563,-0.0325 1.280008,3.33564 -1.185855,6.87324 -4.086073,5.86199 z m 142.261458,-1.26554 c -1.40252,-4.41896 2.95801,-8.52463 6.19796,-5.8357 1.63218,1.35458 1.68898,5.04876 0.10204,6.6357 -1.91127,1.91127 -5.58764,1.44443 -6.3,-0.8 z m 20.53987,0.54804 c -2.65646,-3.20083 1.24523,-8.11778 4.71013,-5.93574 3.46233,2.18041 2.22883,7.3877 -1.75,7.3877 -0.96531,0 -2.29737,-0.65338 -2.96013,-1.45196 z m -30.83987,-0.74804 c -0.66,-0.66 -1.2,-1.97786 -1.2,-2.92857 0,-1.8041 2.51863,-4.87143 4,-4.87143 1.33858,0 4,2.99409 4,4.5 0,1.69252 -2.72727,4.5 -4.37143,4.5 -0.67571,0 -1.76857,-0.54 -2.42857,-1.2 z m 43,0 c -1.83712,-1.83712 -1.42786,-5.60769 0.73426,-6.76482 2.50156,-1.33879 2.63522,-1.32284 4.49431,0.53625 2.05846,2.05846 1.98277,3.01723 -0.42857,5.42857 -2.31574,2.31574 -3.1459,2.4541 -4.8,0.8 z M 62.218511,189.24726 c -1.60578,-3.00043 -0.30971,-5.96223 2.60905,-5.96223 1.6747,0 2.83164,0.82872 3.64304,2.60955 1.02066,2.2401 0.91978,2.80639 -0.71257,4 -2.63786,1.92885 -4.26239,1.73901 -5.53952,-0.64732 z m 4.83977,-1.79056 c 0.19846,-1.34874 -0.21205,-2.17167 -1.08333,-2.17167 -2.03616,0 -2.58722,0.85376 -2.00013,3.0988 0.66024,2.52476 2.66419,1.92222 3.08346,-0.92713 z m 7.56826,-1.76265 c -0.46357,-1.84703 -0.10219,-3.13909 1.25861,-4.49989 1.75423,-1.75422 2.08897,-1.78277 4.13124,-0.35231 2.73701,1.91707 2.87662,5.02265 0.28808,6.408 -3.16447,1.69357 -4.98778,1.19397 -5.67793,-1.5558 z m 5.43174,-2.16924 c 0.32971,-2.31101 -1.21618,-2.90927 -3.60342,-1.39452 -1.74245,1.10561 -0.38423,4.33286 1.6597,3.94362 0.89329,-0.17012 1.76797,-1.31721 1.94372,-2.5491 z m -90.898739,2.1648 c -1.103756,-1.32994 -1.076812,-2.03595 0.161929,-4.24293 2.004505,-3.57127 4.431801,-3.83219 6.485928,-0.6972 1.600094,2.44206 1.594954,2.69727 -0.09186,4.56117 -2.160146,2.38694 -4.764587,2.53748 -6.556,0.37896 z m 186.721218,0.41497 c -0.90312,-0.50541 -1.64203,-1.70657 -1.64203,-2.66924 0,-4.43004 6.52275,-5.90002 7.57509,-1.70715 0.33726,1.34374 0.35284,2.86443 0.0346,3.3793 -0.90566,1.46538 -4.15946,2.00903 -5.9677,0.99709 z M 30.988731,185.21837 c -2.125768,-1.25447 -2.277297,-4.25084 -0.298039,-5.89347 3.200834,-2.65646 8.117772,1.24523 5.935741,4.71013 -1.347661,2.13998 -3.31638,2.55321 -5.637702,1.18334 z m 20.67706,0.32239 c -3.436794,-2.42071 -1.557289,-7.70232 2.52684,-7.1007 3.1583,0.46524 4.88918,3.28135 3.43886,5.59497 -1.20249,1.91826 -4.27795,2.6945 -5.9657,1.50573 z m 3.82294,-3.91801 c -0.6875,-0.27742 -1.8125,-0.27742 -2.5,0 -0.6875,0.27741 -0.125,0.50438 1.25,0.50438 1.375,0 1.9375,-0.22697 1.25,-0.50438 z m -51.747145,1.67127 c -0.903111,-2.84545 1.236945,-5.17858 4.411549,-4.80955 2.139427,0.24869 2.585596,0.81823 2.585596,3.30056 0,2.63666 -0.383271,3.03718 -3.164526,3.30698 -2.489362,0.24149 -3.307067,-0.14212 -3.832619,-1.79799 z m 11.163812,-0.67566 c -1.33011,-1.33011 -0.62397,-5.28582 1.109156,-6.21336 3.698469,-1.97936 7.009759,2.69444 4.024177,5.68003 -1.307435,1.30743 -4.072004,1.59466 -5.133333,0.53333 z m 152.185962,-1.06174 c -2.51983,-0.57928 -2.9058,-3.9135 -0.68562,-5.92274 1.48173,-1.34094 2.35629,-1.51018 3.64153,-0.70469 3.89787,2.44291 1.5677,7.66736 -2.95591,6.62743 z m 18.34737,-0.47159 c -0.66,-0.66 -1.2,-1.9549 -1.2,-2.87756 0,-4.00513 6.21687,-5.19684 8.39787,-1.60979 0.89579,1.47327 0.66013,2.17536 -1.25865,3.75 -2.72462,2.23592 -4.25113,2.42544 -5.93922,0.73735 z M 84.962911,179.15054 c -3.33715,-1.86756 -1.53076,-7.86551 2.36883,-7.86551 3.14755,0 4.05416,6.31568 1.13117,7.88002 -1.12654,0.6029 -2.40623,0.5976 -3.5,-0.0145 z m 1.27582,-3.8065 c 0,-0.51754 -0.375,-1.17274 -0.83333,-1.45601 -0.45834,-0.28326 -0.83334,0.14018 -0.83334,0.94099 0,0.8008 0.375,1.45601 0.83334,1.45601 0.45833,0 0.83333,-0.42345 0.83333,-0.94099 z m 109.544709,3.08186 c -1.27763,-4.02545 1.95843,-7.01234 5.52773,-5.1021 2.17411,1.16354 2.52743,3.96136 0.72756,5.76123 -1.84482,1.84482 -5.58567,1.45064 -6.25529,-0.65913 z m -127.250609,0.0166 c -1.81837,-1.16691 -2.34186,-4.7099 -0.97259,-6.58248 1.52253,-2.08219 5.12125,-1.46953 6.08252,1.03551 1.14519,2.9843 -2.66246,7.1176 -5.10993,5.54697 z m 85.418479,-0.77823 c -1.22184,-1.22184 -0.78086,-5.07769 0.7235,-6.3262 2.34207,-1.94375 5.75694,0.44825 5.37385,3.76421 -0.23399,2.0254 -0.93167,2.75525 -2.84735,2.97865 -1.39559,0.16275 -2.85809,-0.0247 -3.25,-0.41666 z M -1.351528,174.91041 c -1.19844,-3.12308 0.014161,-5.12538 3.103954,-5.12538 2.65145,0 2.986305,0.33639 2.986305,3 0,2.53087 -0.430917,3.04956 -2.755686,3.31697 -1.758587,0.20228 -2.965146,-0.22888 -3.334573,-1.19159 z m 177.790258,0.17462 c -1.80186,-1.80187 -1.4457,-4.59814 0.73426,-5.76482 2.81162,-1.50474 3.85903,-1.28993 5.11026,1.048 0.88943,1.66191 0.76408,2.47083 -0.6198,4 -1.99908,2.20896 -3.52344,2.4181 -5.22472,0.71682 z M 22.436332,172.81937 c -0.898008,-1.97091 -0.815556,-2.77353 0.410914,-4 0.843888,-0.84389 1.981783,-1.53434 2.528655,-1.53434 2.129311,0 4.86283,2.15585 4.86283,3.83518 0,4.4473 -5.958984,5.74501 -7.802399,1.69916 z m 21.045375,1.30863 c -1.875311,-1.87531 -1.506969,-3.36373 1.189563,-4.80687 3.451999,-1.84745 5.774102,-0.6795 5.384432,2.70821 -0.240552,2.09132 -0.921391,2.82632 -2.823995,3.04866 -1.378863,0.16114 -3.066363,-0.26636 -3.75,-0.95 z m 12.729414,-1.37624 c -1.93236,-2.32835 -5.6e-4,-4.96673 3.6366,-4.96673 2.54557,0 2.89101,0.35846 2.89101,3 0,2.48232 -0.44617,3.05186 -2.5856,3.30055 -1.48478,0.1726 -3.16308,-0.39527 -3.94201,-1.33382 z M 9.622773,170.84344 c -1.500298,-3.90971 2.15961,-7.96532 5.365958,-5.94612 3.776349,2.37817 2.146334,7.38771 -2.40383,7.38771 -1.324917,0 -2.657875,-0.64872 -2.962128,-1.44159 z m 65.815958,-0.75841 c -1.7107,-1.7107 -1.48406,-5.47702 0.37244,-6.18943 2.17885,-0.8361 5.42756,1.09402 5.42756,3.22461 0,1.98263 -1.83385,4.16482 -3.5,4.16482 -0.605,0 -1.64,-0.54 -2.3,-1.2 z m 87.459299,-1.25837 c -2.18405,-1.65493 -1.49581,-5.02358 1.33598,-6.53911 4.13429,-2.2126 7.62117,2.55384 4.43987,6.06914 -2.05225,2.2677 -3.27232,2.36698 -5.77585,0.46997 z m -73.166379,-0.53018 c 0.33603,-0.5437 -0.0153,-0.74822 -0.78077,-0.45449 -1.88127,0.72191 -3.90272,-1.89676 -3.09302,-4.00682 0.91666,-2.38877 5.24936,-3.90417 7.00251,-2.44919 2.01002,1.66817 1.68642,5.66381 -0.5559,6.86386 -2.43416,1.30273 -3.35949,1.3195 -2.57282,0.0466 z m 3.50708,-3.46348 c 0,-1.51596 -2.71845,-2.84001 -4.09024,-1.9922 -1.53734,0.95012 -1.00863,3.27513 0.84024,3.69497 2.23683,0.50793 3.25,-0.0229 3.25,-1.70277 z m 30.831539,1.98164 c -0.86731,-1.90354 -0.82467,-2.83296 0.18584,-4.05056 1.67008,-2.01231 5.94667,-1.52937 7.38176,0.8336 0.89439,1.47268 0.65808,2.176 -1.25992,3.75 -3.15879,2.59222 -4.95279,2.44061 -6.30768,-0.53304 z m 4.63835,-1.37328 c 0.45235,-2.34883 -0.49663,-3.38581 -2.14174,-2.34035 -0.70199,0.44611 -0.76487,1.51709 -0.18077,3.0792 0.99565,2.66281 1.71125,2.43516 2.32251,-0.73885 z m 9.28011,2.76357 c -3.18976,-1.85787 -1.51092,-6.9199 2.29501,-6.9199 0.90476,0 2.49835,0.94292 3.54131,2.09538 1.86882,2.06502 1.86222,2.123 -0.45579,4 -2.68403,2.1734 -2.98537,2.21957 -5.38053,0.82452 z m 52,0 c -2.73932,-1.59551 -2.25191,-5.75583 0.76299,-6.51252 4.69159,-1.17751 7.68433,4.34628 3.55275,6.55743 -2.30203,1.23201 -2.12014,1.23391 -4.31574,-0.0449 z M 65.719431,166.89457 c -1.63235,-1.1936 -1.73323,-1.75989 -0.71257,-4 1.41218,-3.09938 4.70718,-3.45846 6.19669,-0.67528 1.33879,2.50155 1.32284,2.63522 -0.53625,4.49431 -1.92629,1.92629 -2.53077,1.9484 -4.94787,0.18097 z m 108.554479,-2.5438 c -1.56399,-2.92235 -1.25278,-4.87892 0.96482,-6.06574 2.98787,-1.59906 6,0.37298 6,3.92819 0,4.20122 -5.0336,5.74606 -6.96482,2.13755 z M 55.739021,163.2855 c -0.37872,-0.61278 -0.40552,-2.24194 -0.0596,-3.62037 0.50704,-2.02024 1.1555,-2.44551 3.34414,-2.19316 2.28057,0.26295 2.71512,0.79321 2.71512,3.31306 0,2.50305 -0.4399,3.0509 -2.65556,3.30731 -1.46056,0.16902 -2.96543,-0.19406 -3.34415,-0.80684 z m -10.30029,-1.20047 c -2.498269,-2.49827 -0.645632,-6.8 2.928571,-6.8 1.804099,0 4.871429,2.51863 4.871429,4 0,1.48137 -3.06733,4 -4.871429,4 -0.950714,0 -2.268571,-0.54 -2.928571,-1.2 z m 68.596989,0.45116 c -2.05045,-0.45718 -3.16941,-3.5024 -2.29699,-6.25116 0.7729,-2.43519 4.68026,-2.67689 6.92857,-0.42857 1.84736,1.84735 1.86885,2.00432 0.59921,4.37666 -1.12297,2.0983 -2.81264,2.84224 -5.23079,2.30307 z m 2.80301,-3.75116 c 0,-2.85712 -1.07938,-3.2991 -2.02688,-0.82995 -0.48874,1.27364 0.44955,2.84688 1.97688,3.31463 0.0275,0.008 0.05,-1.10968 0.05,-2.48468 z m 31.6,1.3 c -1.64082,-1.64083 -1.51371,-5.46565 0.20355,-6.12462 2.041,-0.7832 5.37152,0.29608 6.00459,1.94584 0.53049,1.38241 -2.59611,5.37878 -4.20814,5.37878 -0.44,0 -1.34,-0.54 -2,-1.2 z m -75.146949,-1.23608 c -0.88467,-1.06596 -0.90716,-1.96801 -0.0873,-3.5 2.12876,-3.97762 7.91825,-1.42464 6.54944,2.88809 -0.7642,2.40779 -4.66517,2.77718 -6.46218,0.61191 z M -10.7214,155.83307 c -2.656456,-3.20084 1.245234,-8.11778 4.710131,-5.93574 2.465851,1.55287 2.791915,4.51827 0.667611,6.0716 -2.330123,1.70383 -3.883505,1.66458 -5.377742,-0.13586 z m 75.668981,0.82747 c -1.27665,-1.27665 -0.74272,-5.14854 0.79115,-5.73714 2.67249,-1.02553 4.62801,0.44624 4.3041,3.23937 -0.29863,2.57505 -3.46552,4.12751 -5.09525,2.49777 z m 20.67271,-0.92745 c 0.34149,-0.88993 0.17385,-1.29132 -0.39301,-0.94098 -1.56152,0.96507 -1.15026,-3.12799 0.44753,-4.45403 2.08366,-1.72929 5.56392,0.38188 5.56392,3.37514 0,2.31151 -1.65442,3.57181 -4.68878,3.57181 -0.96757,0 -1.30747,-0.5674 -0.92966,-1.55194 z m 4.34761,-1.05223 c -0.3323,-0.33229 -1.1948,-0.36782 -1.91667,-0.0789 -0.79773,0.31923 -0.56078,0.55618 0.60417,0.60417 1.05416,0.0434 1.64479,-0.19293 1.3125,-0.52522 z m 33.338189,-0.26997 c -0.76289,-1.42546 -0.57291,-2.26336 0.79356,-3.5 3.60243,-3.26015 8.3323,-0.72393 6.17329,3.31022 -1.39447,2.60558 -5.61246,2.72049 -6.96685,0.18978 z m 12.45412,0.25276 c -1.94909,-1.94909 -1.65659,-4.26429 0.72852,-5.76632 3.73697,-2.35338 7.73129,3.46577 4.16761,6.0716 -2.32014,1.69653 -2.9325,1.65835 -4.89613,-0.30528 z M 0.169164,153.7012 c -1.892681,-2.28054 0.079445,-4.91617 3.678553,-4.91617 2.286293,0 2.961608,0.49927 3.228506,2.38691 0.547075,3.86918 -4.316847,5.65028 -6.907059,2.52926 z m 52.069567,-1.41617 c -3.281127,-3.28113 -1.909892,-6.34587 2.60851,-5.83008 3.226,0.36826 4.48815,3.80375 2.34581,6.38512 -1.60354,1.93215 -2.57609,1.82319 -4.95432,-0.55504 z m 3,-2 c 0,-0.55 -0.47656,-1 -1.05902,-1 -0.58246,0 -0.7809,0.45 -0.44098,1 0.33992,0.55 0.81648,1 1.05902,1 0.24254,0 0.44098,-0.45 0.44098,-1 z M 11.2786,148.83307 c -2.656456,-3.20084 1.245234,-8.11778 4.710131,-5.93575 3.46233,2.18042 2.228827,7.38771 -1.75,7.38771 -0.965311,0 -2.29737,-0.65339 -2.960131,-1.45196 z m 62.890561,-0.13187 c -1.45518,-1.75339 -0.53799,-3.99957 2.3864,-5.84423 3.40233,-2.14613 7.26174,2.82107 4.6433,5.9761 -1.59413,1.92081 -5.38514,1.8497 -7.0297,-0.13187 z m 4.79874,-2.02034 c -0.33229,-0.33229 -1.1948,-0.36782 -1.91667,-0.0789 -0.79773,0.31923 -0.56078,0.55618 0.60417,0.60417 1.05416,0.0434 1.64479,-0.19293 1.3125,-0.52522 z m 30.853219,2.28807 c -3.28152,-2.39951 -0.0509,-7.84512 3.78169,-6.37444 2.15245,0.82598 2.194,6.2624 0.0541,7.08355 -2.01433,0.77297 -1.73947,0.82378 -3.83582,-0.70911 z m -130.923907,-1.88187 c -0.761503,-2.91199 0.949571,-4.80203 4.347331,-4.80203 1.962261,0 2.919514,0.60645 3.309159,2.09645 0.889859,3.40282 -0.274755,4.90355 -3.805329,4.90355 -2.533741,0 -3.406663,-0.4982 -3.851161,-2.19797 z m 84.541518,0.99797 c -3.16477,-3.16477 0.008,-8.41766 3.68592,-6.10197 2.25851,1.42211 2.50342,3.76977 0.5926,5.68059 -1.93663,1.93663 -2.68916,2.01074 -4.27852,0.42138 z m 3.07938,-3.83967 c -0.29336,-1.12181 -0.75683,-1.81622 -1.02992,-1.54312 -0.541,0.54099 0.41459,3.58279 1.12554,3.58279 0.24077,0 0.19774,-0.91785 -0.0956,-2.03967 z m 86.055789,3.47071 c -0.93376,-2.43332 0.9778,-4.93104 3.77382,-4.93104 1.99001,0 2.39101,0.50313 2.39101,3 0,2.53087 -0.43092,3.04956 -2.75569,3.31697 -1.87637,0.21583 -2.96419,-0.2264 -3.40914,-1.38593 z m -31.13517,-1.63104 c -1.7107,-1.7107 -1.48406,-5.47702 0.37244,-6.18943 4.19803,-1.61093 7.42127,4.25206 3.4933,6.35424 -2.4106,1.29012 -2.41082,1.29011 -3.86574,-0.16481 z m 10.13716,-1.36377 c -0.74959,-1.95338 1.20944,-6.43623 2.81266,-6.43623 2.10797,0 4.74398,3.11 4.10568,4.84395 -1.22292,3.32209 -5.84623,4.38616 -6.91834,1.59228 z M -5.451801,143.6491 c -0.908423,-2.36731 0.986157,-4.81544 4.006516,-5.17713 2.081755,-0.24929 2.742386,0.19744 3.243281,2.19316 0.345962,1.37843 0.335099,2.9818 -0.02414,3.56306 -1.053189,1.7041 -6.517569,1.26616 -7.225657,-0.57909 z m 148.873391,0.54689 c -1.78083,-0.68876 -2.24373,-1.53438 -2,-3.65357 0.26463,-2.30087 0.79578,-2.75739 3.20815,-2.75739 4.07834,0 5.71882,2.85665 3.09511,5.38967 -1.51524,1.46287 -2.53548,1.705 -4.30326,1.02129 z M 5.808177,138.71162 c -1.72144,-1.72144 -1.871378,-2.4762 -0.962457,-4.84481 0.766865,-1.99841 4.753351,-2.05745 6.382442,-0.0945 2.637319,3.17778 -2.4999,7.85941 -5.419985,4.93933 z m -19.860597,-0.0511 c -1.548832,-1.54884 -0.669801,-5.25314 1.402658,-5.91091 2.94593,-0.935 5.769289,1.91133 4.269415,4.30415 -1.154395,1.84167 -4.49177,2.78706 -5.672073,1.60676 z m -12.399381,-2.01145 c -0.797496,-2.07824 0.860032,-4.75707 3.231618,-5.22281 2.561294,-0.503 4.665801,2.60365 3.384984,4.99688 -1.236544,2.3105 -5.75744,2.46487 -6.616602,0.22593 z m 42.890532,0.43593 c -2.532691,-2.53269 -0.636601,-6.8 3.021439,-6.8 2.558428,0 4.484097,4.44495 2.803138,6.47038 -1.520966,1.83265 -4.171542,1.98265 -5.824577,0.32962 z M 110.237,135.28179 c -0.85807,-1.60331 -0.84463,-2.47697 0.0548,-3.56069 1.61588,-1.94701 5.86272,-1.81914 6.63748,0.19985 1.57337,4.10014 -4.62947,7.21519 -6.69226,3.36084 z m 15.71431,1.38248 c -1.36827,-1.36827 -0.69742,-4.31699 1.21498,-5.34047 2.9292,-1.56766 5.23209,-0.22699 4.87654,2.83897 -0.22757,1.96233 -0.94268,2.69673 -2.84152,2.91817 -1.39559,0.16275 -2.85809,-0.0248 -3.25,-0.41667 z m 25.21785,-0.96307 c -1.75398,-2.11342 -0.004,-4.91617 3.06957,-4.91617 2.67104,0 4.58769,2.52612 3.69053,4.86407 -0.80127,2.0881 -5.04324,2.12079 -6.7601,0.0521 z M -6.690424,133.4174 c -1.964812,-3.67128 1.320569,-7.07061 5.342116,-5.5274 1.196815,0.45926 1.605449,1.56766 1.390877,3.77267 -0.248132,2.5499 -0.795693,3.17918 -2.98658,3.43229 -1.863557,0.21529 -3.007537,-0.29696 -3.746413,-1.67756 z M 135.7235,133.23704 c -0.76669,-2.41563 1.03378,-4.95201 3.51523,-4.95201 2.5979,0 3.90839,2.13393 2.91706,4.75 -1.12207,2.96108 -5.51283,3.09898 -6.43229,0.20201 z m 4.87686,-1.45201 c -0.31659,-0.825 -0.70432,-1.5 -0.86163,-1.5 -0.15731,0 -0.54504,0.675 -0.86163,1.5 -0.3471,0.90454 -0.005,1.5 0.86163,1.5 0.8667,0 1.20873,-0.59546 0.86163,-1.5 z m -154.649053,-3.12076 c -1.524899,-1.5249 -0.679867,-5.25485 1.335412,-5.89447 2.626711,-0.83369 5.134324,1.23971 4.750269,3.92772 -0.300185,2.101 -4.571152,3.48128 -6.085681,1.96675 z m 17.313816,-0.84744 c -1.087005,-1.30976 -0.999276,-1.90428 0.530421,-3.59458 2.729674,-3.01626 5.943187,-2.17125 5.943187,1.56278 0,2.48232 -0.446169,3.05186 -2.585596,3.30055 -1.449541,0.1685 -3.157849,-0.38896 -3.888012,-1.26875 z M 119.98873,127.5957 c -2.19467,-0.57353 -2.25218,-3.09829 -0.12413,-5.44975 2.11456,-2.33657 5.37413,-0.77944 5.37413,2.56727 0,1.81889 -2.27848,4.18218 -3.33179,3.45581 -0.0925,-0.0638 -0.95571,-0.3218 -1.91821,-0.57333 z m 23.55947,-1.9466 c -0.89716,-2.33795 1.01949,-4.86407 3.69053,-4.86407 3.07357,0 4.82355,2.80275 3.06957,4.91617 -1.71686,2.06869 -5.95883,2.036 -6.7601,-0.0521 z m -168.8247,-1.41206 c -0.82473,-2.5985 1.090913,-4.95201 4.030687,-4.95201 2.524617,0 3.840916,2.30181 2.939831,5.14087 -0.8516,2.68316 -6.104143,2.54084 -6.970518,-0.18886 z m 38.470711,-0.0352 c -0.889426,-1.66191 -0.764083,-2.47082 0.619803,-4 2.141796,-2.36666 2.636421,-2.37572 5.447054,-0.0998 1.910473,1.54701 2.070301,2.14138 1.0756,4 -1.517086,2.8347 -5.647895,2.89242 -7.142457,0.0998 z m 119.573919,-1.27166 c -2.04991,-1.49893 -1.73155,-4.48864 0.63678,-5.97998 1.20785,-0.76059 2.10185,-0.68762 3.25,0.26526 3.63303,3.01515 -0.0909,8.49037 -3.88678,5.71472 z M -5.094602,122.61836 c -1.086547,-1.08655 -0.760175,-4.83982 0.533333,-6.13333 3.233329,-3.23333 8.743848,1.75288 5.824577,5.27038 -1.289862,1.55419 -5.143607,2.07725 -6.35791,0.86295 z M -15.7214,115.83307 c -2.622689,-3.16015 1.241525,-8.12188 4.650612,-5.97149 2.549625,1.60827 2.651834,3.08113 0.372019,5.36095 -2.442912,2.44291 -3.404853,2.55984 -5.022631,0.61054 z m 23.122639,0.57355 c -0.735621,-0.46627 -1.185621,-1.8729 -1,-3.12584 0.430967,-2.90901 4.014118,-4.3183 6.450264,-2.53695 1.538727,1.12514 1.630956,1.71086 0.619095,3.93165 -1.195371,2.62355 -3.585794,3.30537 -6.069359,1.73114 z m -10.962508,-4.32159 c -3.220106,-3.22011 0.913322,-9.6107 4.363922,-6.74695 1.96799,1.63328 1.801158,4.30658 -0.392663,6.29196 -2.183197,1.97577 -2.423005,2.00324 -3.971259,0.45499 z"
           id="path227"
           inkscape:connector-curvature="0" />
        <path
           style="fill:#7f2aff"
           d="m 110.23873,397.90161 c 0,-0.21089 1.11138,-0.59588 2.46974,-0.85555 1.35835,-0.25966 2.2318,-0.0871 1.94098,0.38343 -0.51208,0.82856 -4.41072,1.24587 -4.41072,0.47212 z m -2.92105,-4.19991 c 0.048,-1.16495 0.28494,-1.4019 0.60416,-0.60417 0.28887,0.72187 0.25335,1.58438 -0.0789,1.91667 -0.3323,0.33229 -0.56864,-0.25834 -0.52522,-1.3125 z m 18.13162,-1.81581 c 0.70919,-0.76953 1.44699,-1.24947 1.63957,-1.06653 0.59314,0.56346 -0.91014,2.46567 -1.94858,2.46567 -0.53923,0 -0.40017,-0.62961 0.30901,-1.39914 z m -7.47936,-9.68102 c 0.35361,-1.3522 0.8069,-1.8055 1.05655,-1.05655 0.24048,0.72144 -0.0382,1.78716 -0.61931,2.36826 -0.74207,0.74207 -0.87221,0.35164 -0.43724,-1.31171 z m -28.088819,-6.91984 c 0.62832,-0.825 1.36362,-2.4 1.634,-3.5 0.46694,-1.89963 0.49743,-1.89323 0.60761,0.12756 0.0638,1.17015 -0.6715,2.74515 -1.634,3.5 -1.52199,1.19363 -1.60116,1.17701 -0.60761,-0.12756 z m -45.82989,-0.68311 c 0.721875,-0.28887 1.584375,-0.25335 1.916667,0.0789 0.332291,0.33229 -0.258334,0.56864 -1.3125,0.52522 -1.164943,-0.048 -1.4019,-0.28494 -0.604167,-0.60416 z m 64.999999,0 c 0.72187,-0.28887 1.58437,-0.25335 1.91667,0.0789 0.33229,0.33229 -0.25834,0.56864 -1.3125,0.52522 -1.16495,-0.048 -1.4019,-0.28494 -0.60417,-0.60416 z m 8.3875,-0.51689 c -0.66,-0.66 -1.15514,-2.1225 -1.10032,-3.25 0.0838,-1.72312 0.21277,-1.65137 0.8089,0.45 0.52848,1.86287 1.37602,2.49143 3.32561,2.46638 1.43901,-0.0185 2.39845,0.31901 2.13208,0.75 -0.73318,1.1863 -3.8117,0.93819 -5.16627,-0.41638 z M 94.317681,372.7017 c 0.048,-1.16495 0.28494,-1.4019 0.60416,-0.60417 0.28887,0.72187 0.25335,1.58438 -0.0789,1.91667 -0.3323,0.33229 -0.56864,-0.25834 -0.52522,-1.3125 z m -54.07895,-2.12756 c 0,-0.57432 0.7875,-1.66182 1.75,-2.41667 1.618755,-1.26951 1.639977,-1.22245 0.282968,0.62756 -0.806868,1.1 -1.594368,2.1875 -1.75,2.41667 -0.155633,0.22916 -0.282968,-0.0532 -0.282968,-0.62756 z m 19.23667,-3.04942 c -1.16756,-2.49062 -1.13981,-2.5714 0.36607,-1.06552 0.89617,0.89617 1.46467,2.10889 1.26333,2.69493 -0.20134,0.58604 -0.93457,-0.1472 -1.6294,-1.62941 z m 76.842279,1.17698 c 0.048,-1.16495 0.28494,-1.4019 0.60416,-0.60417 0.28887,0.72187 0.25335,1.58438 -0.0789,1.91667 -0.3323,0.33229 -0.56864,-0.25834 -0.52522,-1.3125 z m -109.000002,-3 c 0.04798,-1.16495 0.284941,-1.4019 0.604167,-0.60417 0.288871,0.72187 0.253344,1.58438 -0.07895,1.91667 -0.332292,0.33229 -0.568641,-0.25834 -0.52522,-1.3125 z m 73.793492,-0.16667 c -1.192609,-1.5207 -1.175899,-1.60381 0.12756,-0.63427 0.825,0.61365 2.175,1.36562 3,1.67105 1.25475,0.46453 1.23389,0.56823 -0.12756,0.63427 -0.89515,0.0434 -2.24515,-0.70855 -3,-1.67105 z M 67.803021,361.9919 c 0.37553,-0.98622 0.93469,-1.54122 1.24258,-1.23333 0.30789,0.30789 6.4e-4,1.11479 -0.68278,1.79313 -0.98762,0.98026 -1.10248,0.8654 -0.5598,-0.5598 z m 50.593599,-0.70687 c 0,-1.375 0.22698,-1.9375 0.50439,-1.25 0.27741,0.6875 0.27741,1.8125 0,2.5 -0.27741,0.6875 -0.50439,0.125 -0.50439,-1.25 z m -18.15789,0.62244 c 0,-0.20765 0.7875,-0.99515 1.75,-1.75 1.58606,-1.24387 1.62143,-1.2085 0.37756,0.37756 -1.30637,1.66575 -2.12756,2.19548 -2.12756,1.37244 z m -66.127554,-4.37244 c -1.243871,-1.58606 -1.208501,-1.62143 0.377555,-0.37756 0.9625,0.75485 1.75,1.54235 1.75,1.75 0,0.82304 -0.821186,0.29331 -2.127555,-1.37244 z m 33.691845,0.0431 c -0.54268,-1.4252 -0.42782,-1.54006 0.5598,-0.5598 0.68342,0.67834 0.99067,1.48524 0.68278,1.79313 -0.30789,0.30789 -0.86705,-0.24711 -1.24258,-1.23333 z m 26.43571,-0.2931 c -0.90129,-0.58246 -1.02463,-0.97549 -0.30902,-0.98469 0.65504,-0.008 1.4691,0.43469 1.80902,0.98469 0.7673,1.24153 0.42112,1.24153 -1.5,0 z M 22.317678,355.7017 c 0.04798,-1.16495 0.284941,-1.4019 0.604167,-0.60417 0.288871,0.72187 0.253344,1.58438 -0.07895,1.91667 -0.332292,0.33229 -0.568641,-0.25834 -0.52522,-1.3125 z m 35.000003,0 c 0.048,-1.16495 0.28494,-1.4019 0.60416,-0.60417 0.28887,0.72187 0.25335,1.58438 -0.0789,1.91667 -0.3323,0.33229 -0.56864,-0.25834 -0.52522,-1.3125 z m -7.07895,-0.12756 c 0,-0.57432 0.7875,-1.66182 1.75,-2.41667 1.61876,-1.26951 1.63998,-1.22245 0.28297,0.62756 -0.80687,1.1 -1.59437,2.1875 -1.750002,2.41667 -0.155633,0.22916 -0.282968,-0.0532 -0.282968,-0.62756 z m 49.45888,-0.35564 c -0.36253,-0.58659 -0.44468,-1.281 -0.18255,-1.54313 0.26212,-0.26213 0.743059,0.21781 1.068749,1.06653 0.67618,1.76211 0.0999,2.07206 -0.886199,0.4766 z m -57.113803,-3.4766 c -0.325685,-0.84872 -0.368713,-1.76657 -0.09562,-2.03966 0.273094,-0.2731 0.736558,0.42131 1.029919,1.54313 0.62315,2.38293 -0.06922,2.75089 -0.934299,0.49653 z m 22.244203,-0.31241 c -0.29082,-0.47055 0.58263,-0.64309 1.94098,-0.38343 1.35836,0.25967 2.46974,0.64466 2.46974,0.85555 0,0.77375 -3.89864,0.35644 -4.41072,-0.47212 z m 5.56861,-3.14446 c 0,-1.375 0.22698,-1.9375 0.50439,-1.25 0.27741,0.6875 0.27741,1.8125 0,2.5 -0.27741,0.6875 -0.50439,0.125 -0.50439,-1.25 z m -23.15789,-1 c -0.901292,-0.58246 -1.024633,-0.97549 -0.309017,-0.98469 0.655041,-0.008 1.469098,0.43469 1.809017,0.98469 0.767305,1.24153 0.421123,1.24153 -1.5,0 z m 67.812499,0.31689 c 0.72187,-0.28887 1.58437,-0.25335 1.91667,0.0789 0.33229,0.33229 -0.25834,0.56864 -1.3125,0.52522 -1.16495,-0.048 -1.4019,-0.28494 -0.60417,-0.60416 z M 52.317681,345.7017 c 0.048,-1.16495 0.28494,-1.4019 0.60416,-0.60417 0.28887,0.72187 0.25335,1.58438 -0.0789,1.91667 -0.3323,0.33229 -0.56864,-0.25834 -0.52522,-1.3125 z m -24.000003,-2 c 0.04798,-1.16495 0.284941,-1.4019 0.604167,-0.60417 0.288871,0.72187 0.253344,1.58438 -0.07895,1.91667 -0.332292,0.33229 -0.568641,-0.25834 -0.52522,-1.3125 z m 132.266132,0.0402 c -0.32569,-0.84872 -0.36872,-1.76657 -0.0956,-2.03966 0.27309,-0.2731 0.73656,0.42131 1.02992,1.54313 0.62315,2.38293 -0.0692,2.75089 -0.9343,0.49653 z M 47.051231,343.60192 c 0.721875,-0.28887 1.584375,-0.25335 1.916667,0.0789 0.332291,0.33229 -0.258334,0.56864 -1.3125,0.52522 -1.164943,-0.048 -1.4019,-0.28494 -0.604167,-0.60416 z m -23,-3 c 0.721875,-0.28887 1.584375,-0.25335 1.916667,0.0789 0.332291,0.33229 -0.258334,0.56864 -1.3125,0.52522 -1.164943,-0.048 -1.4019,-0.28494 -0.604167,-0.60416 z m 39,0 c 0.72187,-0.28887 1.58437,-0.25335 1.91667,0.0789 0.33229,0.33229 -0.25834,0.56864 -1.3125,0.52522 -1.16495,-0.048 -1.4019,-0.28494 -0.60417,-0.60416 z m 112.999999,-1 c 0.72187,-0.28887 1.58437,-0.25335 1.91667,0.0789 0.33229,0.33229 -0.25834,0.56864 -1.3125,0.52522 -1.16495,-0.048 -1.4019,-0.28494 -0.60417,-0.60416 z m -22,-1 c 0.72187,-0.28887 1.58437,-0.25335 1.91667,0.0789 0.33229,0.33229 -0.25834,0.56864 -1.3125,0.52522 -1.16495,-0.048 -1.4019,-0.28494 -0.60417,-0.60416 z M 45.007181,337.11658 c 0.581102,-0.5811 1.646819,-0.85979 2.36826,-0.61931 0.748946,0.24965 0.295653,0.70294 -1.056551,1.05655 -1.663345,0.43497 -2.053777,0.30483 -1.311709,-0.43724 z m 22.3105,-0.41488 c 0.048,-1.16495 0.28494,-1.4019 0.60416,-0.60417 0.28887,0.72187 0.25335,1.58437 -0.0789,1.91667 -0.3323,0.33229 -0.56864,-0.25834 -0.52522,-1.3125 z m 124.605739,-1.79598 c -0.30932,-0.80606 -1.60241,-1.66418 -2.87354,-1.90694 -2.14617,-0.40988 -2.15927,-0.45111 -0.18359,-0.57757 2.08822,-0.13366 5.1581,2.4115 4.13848,3.43111 -0.28543,0.28543 -0.77204,-0.14054 -1.08135,-0.9466 z M 56.238731,332.90747 c 0,-0.20765 0.7875,-0.99515 1.75,-1.75 1.58606,-1.24387 1.62143,-1.2085 0.37756,0.37756 -1.30637,1.66575 -2.12756,2.19548 -2.12756,1.37244 z M 40.583808,330.7419 c -0.325685,-0.84872 -0.368713,-1.76657 -0.09562,-2.03966 0.273094,-0.2731 0.736558,0.42131 1.029919,1.54313 0.62315,2.38293 -0.06922,2.75089 -0.934299,0.49653 z m 121.654922,0.15012 c 0,-0.21616 0.69837,-0.661 1.55194,-0.98855 0.88992,-0.34149 1.29132,-0.17385 0.94098,0.39301 -0.58726,0.95021 -2.49292,1.40545 -2.49292,0.59554 z M 47.317678,328.7017 c 0.04798,-1.16495 0.284941,-1.4019 0.604167,-0.60417 0.288871,0.72187 0.253344,1.58437 -0.07895,1.91667 -0.332292,0.33229 -0.568641,-0.25834 -0.52522,-1.3125 z m 125.421052,0.58333 c -1.63041,-0.70061 -1.68751,-0.87242 -0.30902,-0.92971 0.93004,-0.0387 1.9691,0.37971 2.30902,0.92971 0.71066,1.14988 0.67591,1.14988 -2,0 z m 5.85674,-1.51273 c -0.72637,-1.89289 1.35201,-4.50815 3.5157,-4.42388 1.04911,0.0409 0.78735,0.39981 -0.73647,1.00995 -1.70244,0.68167 -2.21839,1.5035 -1.84362,2.93662 0.60883,2.32816 -0.0888,2.68406 -0.93561,0.47731 z m 5.37447,-0.56743 c 0.35361,-1.3522 0.8069,-1.8055 1.05655,-1.05655 0.24048,0.72144 -0.0382,1.78716 -0.61931,2.36826 -0.74207,0.74207 -0.87221,0.35164 -0.43724,-1.31171 z m -36.22413,0.0916 c -0.35034,-0.56686 0.0511,-0.7345 0.94098,-0.39301 1.73242,0.66479 2.04939,1.38156 0.61096,1.38156 -0.51754,0 -1.21592,-0.44485 -1.55194,-0.98855 z m -92.694579,-1.69456 c 0.72187,-0.28887 1.58437,-0.25335 1.91667,0.0789 0.33229,0.33229 -0.25834,0.56864 -1.3125,0.52522 -1.16495,-0.048 -1.4019,-0.28494 -0.60417,-0.60416 z M 190.4129,322.68228 c 0.89617,-0.89617 2.10889,-1.46467 2.69493,-1.26333 0.58604,0.20134 -0.1472,0.93457 -1.62941,1.6294 -2.49062,1.16756 -2.5714,1.13981 -1.06552,-0.36607 z m -89.42417,-2.05953 c 0.6875,-0.27741 1.8125,-0.27741 2.5,0 0.6875,0.27741 0.125,0.50439 -1.25,0.50439 -1.375,0 -1.9375,-0.22698 -1.25,-0.50439 z m 70.0625,-1.02083 c 0.72187,-0.28887 1.58437,-0.25335 1.91667,0.0789 0.33229,0.33229 -0.25834,0.56864 -1.3125,0.52522 -1.16495,-0.048 -1.4019,-0.28494 -0.60417,-0.60416 z m -72.654609,-2.31689 c 0,-1.375 0.22698,-1.9375 0.50439,-1.25 0.27741,0.6875 0.27741,1.8125 0,2.5 -0.27741,0.6875 -0.50439,0.125 -0.50439,-1.25 z m -7.55783,0.32613 c 0.60503,-0.45437 1.38459,-1.50113 1.73236,-2.32613 0.44428,-1.05395 0.56321,-0.92991 0.39995,0.41713 -0.12781,1.05443 -0.90737,2.10119 -1.73237,2.32613 -0.96478,0.26307 -1.10748,0.11423 -0.39994,-0.41713 z m 97.051909,-0.0802 c -0.25634,-0.41476 0.92919,-0.75226 2.6345,-0.75 2.45384,0.003 3.24799,-0.51734 3.80737,-2.49589 0.59375,-2.10014 0.72274,-2.17212 0.80648,-0.45 0.0548,1.1275 -0.44032,2.59 -1.10032,3.25 -1.3296,1.3296 -5.41858,1.62616 -6.14803,0.44589 z m -12.65197,-1.18691 c 0,-0.51754 0.44485,-1.21592 0.98855,-1.55194 0.56686,-0.35034 0.7345,0.0511 0.39301,0.94098 -0.66479,1.73242 -1.38156,2.04939 -1.38156,0.61096 z M 37.475396,314.04534 c 0.694834,-1.48221 1.428067,-2.21545 1.629406,-1.62941 0.20134,0.58604 -0.367161,1.79876 -1.263334,2.69493 -1.505875,1.50588 -1.533628,1.4251 -0.366072,-1.06552 z m 125.635774,0.48969 c -1.24387,-1.58606 -1.2085,-1.62143 0.37756,-0.37756 0.9625,0.75485 1.75,1.54235 1.75,1.75 0,0.82304 -0.82119,0.29331 -2.12756,-1.37244 z m -7.79349,-1.83333 c 0.048,-1.16495 0.28494,-1.4019 0.60416,-0.60417 0.28887,0.72187 0.25335,1.58437 -0.0789,1.91667 -0.3323,0.33229 -0.56864,-0.25834 -0.52522,-1.3125 z m -68.345619,-1.54076 c 0.67834,-0.68342 1.48524,-0.99067 1.79313,-0.68278 0.30789,0.30789 -0.24711,0.86705 -1.23333,1.24258 -1.4252,0.54268 -1.54006,0.42782 -0.5598,-0.5598 z m 28.716669,-1.77885 c -0.5225,-0.49661 -1.85,-1.11941 -2.95,-1.38399 -1.89712,-0.45632 -1.89056,-0.48703 0.12756,-0.59707 1.17015,-0.0638 2.68775,0.559 3.37244,1.384 1.3575,1.63568 0.97716,2.04856 -0.55,0.59706 z m -36.637499,-0.78017 c 0.72187,-0.28887 1.58437,-0.25335 1.91667,0.0789 0.33229,0.33229 -0.25834,0.56864 -1.3125,0.52522 -1.16495,-0.048 -1.4019,-0.28494 -0.60417,-0.60416 z m 10.64638,-0.38342 c -1.02606,-1.66021 -0.10511,-1.89043 1.33055,-0.33261 0.70918,0.76953 0.84824,1.39914 0.30901,1.39914 -0.53922,0 -1.27702,-0.47994 -1.63956,-1.06653 z m 3.54112,0.67352 c 0,-0.21616 0.69837,-0.661 1.55194,-0.98855 0.88992,-0.34149 1.29132,-0.17385 0.94098,0.39301 -0.58726,0.95021 -2.49292,1.40545 -2.49292,0.59554 z m 10.999999,-0.32021 c 0.825,-0.30543 2.175,-1.0574 3,-1.67105 1.30346,-0.96954 1.32017,-0.88643 0.12756,0.63427 -0.75485,0.9625 -2.10485,1.71447 -3,1.67105 -1.36145,-0.066 -1.38231,-0.16974 -0.12756,-0.63427 z m 79,0 c 0.825,-0.30543 2.175,-1.0574 3,-1.67105 1.30346,-0.96954 1.32017,-0.88643 0.12756,0.63427 -0.75485,0.9625 -2.10485,1.71447 -3,1.67105 -1.36145,-0.066 -1.38231,-0.16974 -0.12756,-0.63427 z M 82.475401,303.52472 c -1.16756,-2.49062 -1.13981,-2.5714 0.36607,-1.06552 0.89617,0.89617 1.46467,2.10889 1.26333,2.69493 -0.20134,0.58604 -0.93457,-0.1472 -1.6294,-1.62941 z m 13.84228,1.17698 c 0.048,-1.16495 0.28494,-1.4019 0.60416,-0.60417 0.28887,0.72187 0.25335,1.58437 -0.0789,1.91667 -0.3323,0.33229 -0.56864,-0.25834 -0.52522,-1.3125 z m 3.984439,0.45577 c -0.0858,-2.20303 2.43417,-4.14304 4.63857,-3.57102 1.39321,0.36153 1.2842,0.49269 -0.48418,0.58258 -1.36344,0.0693 -2.64632,1.02182 -3.18662,2.366 -0.61201,1.52262 -0.92488,1.72384 -0.96777,0.62244 z m 56.01556,-0.45577 c 0.048,-1.16495 0.28494,-1.4019 0.60416,-0.60417 0.28887,0.72187 0.25335,1.58437 -0.0789,1.91667 -0.3323,0.33229 -0.56864,-0.25834 -0.52522,-1.3125 z m -116.078949,0.19032 c 0,-0.21616 0.698372,-0.661 1.551938,-0.98855 0.889925,-0.34149 1.291322,-0.17385 0.940983,0.39301 -0.587258,0.95021 -2.492921,1.40545 -2.492921,0.59554 z m -12,-1.32021 c 0.825,-0.30543 2.175,-1.0574 3,-1.67105 1.303456,-0.96954 1.32017,-0.88643 0.127555,0.63427 -0.754844,0.9625 -2.104844,1.71447 -3,1.67105 -1.361449,-0.066 -1.382304,-0.16974 -0.127555,-0.63427 z m 88.078949,-0.87011 c 0.048,-1.16495 0.28494,-1.4019 0.60416,-0.60417 0.28887,0.72187 0.25335,1.58437 -0.0789,1.91667 -0.3323,0.33229 -0.56864,-0.25834 -0.52522,-1.3125 z m 7.07894,-0.41667 c 0,-1.375 0.22698,-1.9375 0.50439,-1.25 0.27741,0.6875 0.27741,1.8125 0,2.5 -0.27741,0.6875 -0.50439,0.125 -0.50439,-1.25 z m 58.65461,-1.68311 c 0.72187,-0.28887 1.58437,-0.25335 1.91667,0.0789 0.33229,0.33229 -0.25834,0.56864 -1.3125,0.52522 -1.16495,-0.048 -1.4019,-0.28494 -0.60417,-0.60416 z m -96.832559,-1.84106 c -0.69572,-0.83829 -0.97582,-1.81329 -0.62244,-2.16666 0.35337,-0.35338 0.6425,-0.103 0.6425,0.55639 0,0.65939 1.0125,1.60586 2.25,2.10328 1.52262,0.61201 1.72384,0.92488 0.62244,0.96777 -0.89515,0.0349 -2.19678,-0.62248 -2.8925,-1.46078 z m -44.97994,-0.47583 c -2.327257,-0.74532 -2.348609,-0.80753 -0.309017,-0.90032 1.205041,-0.0548 2.469098,0.35032 2.809017,0.90032 0.339919,0.55 0.478976,0.95514 0.309017,0.90032 -0.169959,-0.0548 -1.434017,-0.45997 -2.809017,-0.90032 z m 59.867679,-0.24425 c 0.75222,-0.95934 1.15472,-2.85823 0.89445,-4.21974 -0.26027,-1.36152 -0.0882,-2.23755 0.38233,-1.94673 1.49504,0.92399 0.92186,5.11382 -0.89446,6.53828 -1.584789,1.24288 -1.620889,1.20778 -0.38232,-0.37181 z m -9.136469,-2.67559 c -0.43497,-1.66335 -0.30483,-2.05378 0.43724,-1.31171 0.5811,0.5811 0.85979,1.64682 0.61931,2.36826 -0.24965,0.74895 -0.70294,0.29565 -1.05655,-1.05655 z m 3.60212,-0.53617 c 0,-0.80081 0.38234,-1.21971 0.84965,-0.9309 0.4673,0.28881 0.59075,0.94401 0.27431,1.45601 -0.80862,1.30838 -1.12396,1.16106 -1.12396,-0.52511 z m -21.25438,-1.12732 c 0.048,-1.16495 0.28494,-1.4019 0.60416,-0.60417 0.28887,0.72187 0.25335,1.58437 -0.0789,1.91667 -0.3323,0.33229 -0.56864,-0.25834 -0.52522,-1.3125 z m 46.921049,1.19996 c 0,-0.21085 0.90062,-0.61888 2.00138,-0.90674 1.10076,-0.28785 1.7492,-0.11534 1.44098,0.38337 -0.53825,0.87091 -3.44236,1.31244 -3.44236,0.52337 z m -61.999999,-0.99419 c 0,-0.20765 0.7875,-0.99515 1.75,-1.75 1.58606,-1.24387 1.62143,-1.2085 0.37756,0.37756 -1.30637,1.66575 -2.12756,2.19548 -2.12756,1.37244 z m 28.8125,-1.30555 c 0.72187,-0.28887 1.58437,-0.25335 1.91667,0.0789 0.33229,0.33229 -0.25834,0.56864 -1.3125,0.52522 -1.16495,-0.048 -1.4019,-0.28494 -0.60417,-0.60416 z M 39.317678,290.7017 c 0.04798,-1.16495 0.284941,-1.4019 0.604167,-0.60417 0.288871,0.72187 0.253344,1.58437 -0.07895,1.91667 -0.332292,0.33229 -0.568641,-0.25834 -0.52522,-1.3125 z m 37.921053,-0.41667 c -0.90129,-0.58246 -1.02463,-0.97549 -0.30902,-0.98469 0.65504,-0.008 1.4691,0.43469 1.80902,0.98469 0.7673,1.24153 0.42112,1.24153 -1.5,0 z m 13.8125,-0.68311 c 0.72187,-0.28887 1.58437,-0.25335 1.91667,0.0789 0.33229,0.33229 -0.25834,0.56864 -1.3125,0.52522 -1.16495,-0.048 -1.4019,-0.28494 -0.60417,-0.60416 z m 4.012,-2.99107 c 0.42673,-2.09296 0.67819,-2.34442 0.96961,-0.9696 0.2164,1.02092 -0.0429,2.29254 -0.57615,2.82582 -0.62614,0.62614 -0.76551,-0.0314 -0.39346,-1.85622 z m -74.8245,0.7332 c 0,-0.51754 0.444846,-1.21592 0.988546,-1.55194 0.56686,-0.35034 0.734507,0.0511 0.393011,0.94098 -0.664791,1.73242 -1.381557,2.04939 -1.381557,0.61096 z m 15.8125,0.25787 c 0.721875,-0.28887 1.584375,-0.25335 1.916667,0.0789 0.332291,0.33229 -0.258334,0.56864 -1.3125,0.52522 -1.164943,-0.048 -1.4019,-0.28494 -0.604167,-0.60416 z M 16.317678,283.7017 c 0.04798,-1.16495 0.284941,-1.4019 0.604167,-0.60417 0.288871,0.72187 0.253344,1.58437 -0.07895,1.91667 -0.332292,0.33229 -0.568641,-0.25834 -0.52522,-1.3125 z m 12.26613,-1.9598 c -0.325685,-0.84872 -0.368713,-1.76657 -0.09562,-2.03966 0.273094,-0.2731 0.736558,0.42131 1.029919,1.54313 0.62315,2.38293 -0.06922,2.75089 -0.934299,0.49653 z m 71.654922,0.60215 c 0,-0.51754 0.44485,-1.21592 0.98855,-1.55194 0.56686,-0.35034 0.7345,0.0511 0.39301,0.94098 -0.66479,1.73242 -1.38156,2.04939 -1.38156,0.61096 z m -7.187499,-4.74213 c 0.72187,-0.28887 1.58437,-0.25335 1.91667,0.0789 0.33229,0.33229 -0.25834,0.56864 -1.3125,0.52522 -1.16495,-0.048 -1.4019,-0.28494 -0.60417,-0.60416 z m -3.35362,-1.38342 c -0.36253,-0.58659 -0.44468,-1.281 -0.18255,-1.54313 0.26212,-0.26213 0.74306,0.21781 1.06875,1.06653 0.67618,1.76211 0.0999,2.07206 -0.8862,0.4766 z m 18.777789,-2.69378 c -1.16756,-2.49062 -1.13981,-2.5714 0.36607,-1.06552 0.89617,0.89617 1.46467,2.10889 1.26333,2.69493 -0.20134,0.58604 -0.93457,-0.1472 -1.6294,-1.62941 z m -11.157719,0.17698 c 0.048,-1.16495 0.28494,-1.4019 0.60416,-0.60417 0.28887,0.72187 0.25335,1.58437 -0.0789,1.91667 -0.3323,0.33229 -0.56864,-0.25834 -0.52522,-1.3125 z M 18.26914,273.6575 c -0.0445,-1.65018 2.696079,-3.64437 4.185969,-3.04593 0.82668,0.33205 0.678348,0.5437 -0.416688,0.59454 -0.93517,0.0434 -2.158986,0.86645 -2.719591,1.82895 -0.560605,0.9625 -1.032966,1.2426 -1.04969,0.62244 z m 11.842036,-2.12247 c -1.243871,-1.58606 -1.208501,-1.62143 0.377555,-0.37756 0.9625,0.75485 1.75,1.54235 1.75,1.75 0,0.82304 -0.821186,0.29331 -2.127555,-1.37244 z m 18.206502,-0.83333 c 0.04798,-1.16495 0.284941,-1.4019 0.604167,-0.60417 0.288871,0.72187 0.253344,1.58437 -0.07895,1.91667 -0.332292,0.33229 -0.568641,-0.25834 -0.52522,-1.3125 z m -7.078947,-1.02554 c 0,-2.63456 5.127496,-4.61189 6.442363,-2.48439 0.308218,0.49871 -0.407516,0.65363 -1.590522,0.34426 -1.417671,-0.37072 -2.61129,0.0671 -3.501379,1.28439 -0.742754,1.01578 -1.350462,1.40086 -1.350462,0.85574 z m -53.654923,-1.93426 c -0.325685,-0.84872 -0.368713,-1.76657 -0.09562,-2.03966 0.273094,-0.2731 0.736558,0.42131 1.029919,1.54313 0.62315,2.38293 -0.06922,2.75089 -0.934299,0.49653 z m 194.733872,-2.0402 c 0.048,-1.16495 0.28494,-1.4019 0.60416,-0.60417 0.28887,0.72187 0.25335,1.58437 -0.0789,1.91667 -0.3323,0.33229 -0.56864,-0.25834 -0.52522,-1.3125 z m 16.92105,-0.80968 c 0,-0.21616 0.69837,-0.661 1.55194,-0.98855 0.88992,-0.34149 1.29132,-0.17385 0.94098,0.39301 -0.58726,0.95021 -2.49292,1.40545 -2.49292,0.59554 z M -24.416192,262.7419 c -0.325685,-0.84872 -0.368713,-1.76657 -0.09562,-2.03966 0.273094,-0.2731 0.736558,0.42131 1.029919,1.54313 0.62315,2.38293 -0.06922,2.75089 -0.9343,0.49653 z m 14.467423,-0.13998 c 0.721875,-0.28887 1.584375,-0.25335 1.916667,0.0789 0.332291,0.33229 -0.258334,0.56864 -1.3125,0.52522 -1.164943,-0.048 -1.4019,-0.28494 -0.604167,-0.60416 z m 73.9375,0.0208 c 0.6875,-0.27741 1.8125,-0.27741 2.5,0 0.6875,0.27741 0.125,0.50439 -1.25,0.50439 -1.375,0 -1.9375,-0.22698 -1.25,-0.50439 z m 129.365999,-0.88769 c -0.12125,-2.14272 1.57688,-4.45 3.27513,-4.45 0.54512,0 0.26808,0.5625 -0.61564,1.25 -0.88372,0.6875 -1.81753,2.15 -2.07513,3.25 -0.45833,1.95717 -0.47084,1.9561 -0.58436,-0.05 z m -194.115999,0.17244 c 0,-0.20765 0.7875,-0.99515 1.75,-1.75 1.586056,-1.24387 1.621426,-1.2085 0.377555,0.37756 -1.306369,1.66575 -2.127555,2.19548 -2.127555,1.37244 z m 200.872439,-3.37244 c -1.24387,-1.58606 -1.2085,-1.62143 0.37756,-0.37756 0.9625,0.75485 1.75,1.54235 1.75,1.75 0,0.82304 -0.82119,0.29331 -2.12756,-1.37244 z m 4,-1 c -1.24387,-1.58606 -1.2085,-1.62143 0.37756,-0.37756 1.66575,1.30637 2.19548,2.12756 1.37244,2.12756 -0.20765,0 -0.99515,-0.7875 -1.75,-1.75 z m -220.059939,-2.93311 c 0.721875,-0.28887 1.584375,-0.25335 1.916667,0.0789 0.332291,0.33229 -0.258334,0.56864 -1.3125,0.52522 -1.164943,-0.048 -1.4019,-0.28494 -0.604167,-0.60416 z m -3.8125,-3.75787 c 0,-0.79254 0.408034,-1.69316 0.906741,-2.00138 0.498708,-0.30822 0.671224,0.34022 0.383369,1.44098 -0.610613,2.33499 -1.29011,2.63015 -1.29011,0.5604 z m 94.8125,-1.24213 c 0.72187,-0.28887 1.58437,-0.25335 1.91667,0.0789 0.33229,0.33229 -0.25834,0.56864 -1.3125,0.52522 -1.16495,-0.048 -1.4019,-0.28494 -0.60417,-0.60416 z m -15.8125,-1.02778 c 0,-0.57432 0.7875,-1.66182 1.75,-2.41667 1.61876,-1.26951 1.63998,-1.22245 0.28297,0.62756 -0.80687,1.1 -1.59437,2.1875 -1.75,2.41667 -0.15563,0.22916 -0.28297,-0.0532 -0.28297,-0.62756 z m 6.73121,-1.20895 c -0.43497,-1.66335 -0.30483,-2.05378 0.43724,-1.31171 0.5811,0.5811 0.85979,1.64682 0.61931,2.36826 -0.24965,0.74895 -0.70294,0.29565 -1.05655,-1.05655 z M 6.317678,246.7017 c 0.04798,-1.16495 0.284941,-1.4019 0.604167,-0.60417 0.288871,0.72187 0.253344,1.58437 -0.07895,1.91667 -0.332292,0.33229 -0.568641,-0.25834 -0.52522,-1.3125 z m 76.733553,0.90022 c 0.72187,-0.28887 1.58437,-0.25335 1.91667,0.0789 0.33229,0.33229 -0.25834,0.56864 -1.3125,0.52522 -1.16495,-0.048 -1.4019,-0.28494 -0.60417,-0.60416 z M -9.17199,246.42949 c -0.290815,-0.47055 0.582628,-0.64309 1.940983,-0.38343 1.358356,0.25967 2.469738,0.64466 2.469738,0.85555 0,0.77375 -3.898641,0.35644 -4.410721,-0.47212 z m 175.22322,0.17243 c 0.72187,-0.28887 1.58437,-0.25335 1.91667,0.0789 0.33229,0.33229 -0.25834,0.56864 -1.3125,0.52522 -1.16495,-0.048 -1.4019,-0.28494 -0.60417,-0.60416 z M 49.238731,244.57414 c 0,-0.57432 0.7875,-1.66182 1.75,-2.41667 1.61876,-1.26951 1.63998,-1.22245 0.28297,0.62756 -0.80687,1.1 -1.59437,2.1875 -1.750002,2.41667 -0.155633,0.22916 -0.282968,-0.0532 -0.282968,-0.62756 z M 192.31768,242.7017 c 0.048,-1.16495 0.28494,-1.4019 0.60416,-0.60417 0.28887,0.72187 0.25335,1.58437 -0.0789,1.91667 -0.3323,0.33229 -0.56864,-0.25834 -0.52522,-1.3125 z m 22.74555,-0.74249 c -0.37205,-1.82482 -0.23268,-2.48236 0.39346,-1.85622 0.53328,0.53328 0.79255,1.8049 0.57615,2.82582 -0.29142,1.37482 -0.54288,1.12336 -0.96961,-0.9696 z M -20.416192,241.7419 c -0.325685,-0.84872 -0.368713,-1.76657 -0.09562,-2.03966 0.273094,-0.2731 0.736558,0.42131 1.029919,1.54313 0.62315,2.38293 -0.06922,2.75089 -0.9343,0.49653 z m 140.162002,0.55458 c -0.35034,-0.56686 0.0511,-0.7345 0.94098,-0.39301 1.73242,0.66479 2.04939,1.38156 0.61096,1.38156 -0.51754,0 -1.21592,-0.44485 -1.55194,-0.98855 z M 16.680531,241.19086 c -0.371929,-0.60179 -1.734868,-0.8918 -3.028755,-0.64446 -1.293886,0.24735 -2.114581,0.0647 -1.823766,-0.40583 0.846886,-1.37029 4.055835,-0.98808 5.410721,0.64446 0.684689,0.825 0.991347,1.5 0.681462,1.5 -0.309886,0 -0.867733,-0.49238 -1.239662,-1.09417 z m 23.3082,0.43189 c 0.6875,-0.27741 1.8125,-0.27741 2.5,0 0.6875,0.27741 0.125,0.50439 -1.25,0.50439 -1.375,0 -1.9375,-0.22698 -1.25,-0.50439 z m 91.122439,-1.08772 c -1.19261,-1.5207 -1.1759,-1.60381 0.12756,-0.63427 0.825,0.61365 2.175,1.36562 3,1.67105 1.25475,0.46453 1.23389,0.56823 -0.12756,0.63427 -0.89515,0.0434 -2.24515,-0.70855 -3,-1.67105 z m 34.62756,1.02639 c 1.1,-0.27038 2.675,-1.00568 3.5,-1.634 1.30457,-0.99355 1.32119,-0.91438 0.12756,0.60761 -0.75485,0.9625 -2.32985,1.6978 -3.5,1.634 -2.02079,-0.11018 -2.02719,-0.14067 -0.12756,-0.60761 z m -81.687499,-0.9595 c 0.72187,-0.28887 1.58437,-0.25335 1.91667,0.0789 0.33229,0.33229 -0.25834,0.56864 -1.3125,0.52522 -1.16495,-0.048 -1.4019,-0.28494 -0.60417,-0.60416 z m -116.8125,-1.75787 c 0,-0.79254 0.408034,-1.69316 0.906741,-2.00138 0.498708,-0.30822 0.671224,0.34022 0.383369,1.44098 -0.610613,2.33499 -1.29011,2.63015 -1.29011,0.5604 z m 25.8125,0.75787 c 0.721875,-0.28887 1.584375,-0.25335 1.916667,0.0789 0.332291,0.33229 -0.258334,0.56864 -1.3125,0.52522 -1.164943,-0.048 -1.4019,-0.28494 -0.604167,-0.60416 z m 43.1875,-1.75787 c 0,-0.79254 0.408034,-1.69316 0.906741,-2.00138 0.498708,-0.30822 0.671224,0.34022 0.383369,1.44098 -0.610613,2.33499 -1.29011,2.63015 -1.29011,0.5604 z M 137.31768,237.7017 c 0.048,-1.16495 0.28494,-1.4019 0.60416,-0.60417 0.28887,0.72187 0.25335,1.58437 -0.0789,1.91667 -0.3323,0.33229 -0.56864,-0.25834 -0.52522,-1.3125 z m 24,0.45577 c -0.0434,-0.89515 0.70855,-2.24515 1.67105,-3 1.5207,-1.19261 1.60381,-1.1759 0.63427,0.12756 -0.61365,0.825 -1.36562,2.175 -1.67105,3 -0.46453,1.25475 -0.56823,1.23389 -0.63427,-0.12756 z M -1.781325,236.76086 c -1.838307,-2.21502 -0.792239,-2.46966 1.270056,-0.30916 0.9625,1.00833 1.3551,1.83333 0.872445,1.83333 -0.482656,0 -1.446781,-0.68587 -2.142501,-1.52417 z m 44.120447,-0.77131 c -1.264918,-2.10631 -1.243608,-2.12762 0.478332,-0.47833 0.991226,0.94941 1.58698,1.94144 1.323898,2.20452 -0.263082,0.26308 -1.074085,-0.5137 -1.80223,-1.72619 z m 46.136279,-0.94421 c 0.69483,-1.48221 1.42806,-2.21545 1.6294,-1.62941 0.20134,0.58604 -0.36716,1.79876 -1.26333,2.69493 -1.50588,1.50588 -1.53363,1.4251 -0.36607,-1.06552 z m 116.575829,0.55658 c 0.72187,-0.28887 1.58437,-0.25335 1.91667,0.0789 0.33229,0.33229 -0.25834,0.56864 -1.3125,0.52522 -1.16495,-0.048 -1.4019,-0.28494 -0.60417,-0.60416 z M 81.317681,234.15747 c -0.0434,-0.89515 0.70855,-2.24515 1.67105,-3 1.5207,-1.19261 1.60381,-1.1759 0.63427,0.12756 -0.61365,0.825 -1.36562,2.175 -1.67105,3 -0.46453,1.25475 -0.56823,1.23389 -0.63427,-0.12756 z M 16.317678,231.7017 c 0.04798,-1.16495 0.284941,-1.4019 0.604167,-0.60417 0.288871,0.72187 0.253344,1.58437 -0.07895,1.91667 -0.332292,0.33229 -0.568641,-0.25834 -0.52522,-1.3125 z m 155.733552,-0.0998 c 0.72187,-0.28887 1.58437,-0.25335 1.91667,0.0789 0.33229,0.33229 -0.25834,0.56864 -1.3125,0.52522 -1.16495,-0.048 -1.4019,-0.28494 -0.60417,-0.60416 z m 4.26645,-3.90022 c 0.048,-1.16495 0.28494,-1.4019 0.60416,-0.60417 0.28887,0.72187 0.25335,1.58437 -0.0789,1.91667 -0.3323,0.33229 -0.56864,-0.25834 -0.52522,-1.3125 z M 1.238731,227.90166 c 0,-0.21085 0.900621,-0.61888 2.00138,-0.90674 1.100759,-0.28785 1.749201,-0.11534 1.440983,0.38337 -0.538251,0.87091 -3.442363,1.31244 -3.442363,0.52337 z m 67.73333,-0.74072 c 0.67834,-0.68342 1.48524,-0.99067 1.79313,-0.68278 0.30789,0.30789 -0.24711,0.86705 -1.23333,1.24258 -1.4252,0.54268 -1.54006,0.42782 -0.5598,-0.5598 z m 51.266669,0.74653 c 0,-0.20765 0.7875,-0.99515 1.75,-1.75 1.58606,-1.24387 1.62143,-1.2085 0.37756,0.37756 -1.30637,1.66575 -2.12756,2.19548 -2.12756,1.37244 z m 84.8125,-0.30555 c 0.72187,-0.28887 1.58437,-0.25335 1.91667,0.0789 0.33229,0.33229 -0.25834,0.56864 -1.3125,0.52522 -1.16495,-0.048 -1.4019,-0.28494 -0.60417,-0.60416 z m -73.94006,-2.06689 c -1.24387,-1.58606 -1.2085,-1.62143 0.37756,-0.37756 0.9625,0.75485 1.75,1.54235 1.75,1.75 0,0.82304 -0.82119,0.29331 -2.12756,-1.37244 z m -156.872439,0.37244 c 0,-0.20765 0.7875,-0.99515 1.75,-1.75 1.586056,-1.24387 1.621426,-1.2085 0.377555,0.37756 -1.306369,1.66575 -2.127555,2.19548 -2.127555,1.37244 z m 106.64239,-0.62244 c 0.62832,-0.825 1.36362,-2.4 1.634,-3.5 0.46694,-1.89963 0.49743,-1.89323 0.60761,0.12756 0.0638,1.17015 -0.6715,2.74515 -1.634,3.5 -1.52199,1.19363 -1.60116,1.17701 -0.60761,-0.12756 z m 100.731899,-1.46701 c -0.30962,-0.80686 -0.36997,-2.04436 -0.1341,-2.75 0.23587,-0.70564 0.66592,-0.0455 0.95566,1.46701 0.56574,2.95322 0.099,3.68204 -0.82156,1.28299 z m -136.374289,-1.1163 c -1.681352,-0.93295 -1.967042,-1.39203 -0.872445,-1.40195 0.895156,-0.008 2.187756,0.66026 2.872445,1.48526 1.460276,1.75953 1.309817,1.75326 -2,-0.0833 z m 56.226189,0.005 c 0.94941,-0.99123 1.94144,-1.58698 2.20452,-1.3239 0.26308,0.26308 -0.5137,1.07408 -1.72619,1.80223 -2.106309,1.26492 -2.127619,1.24361 -0.47833,-0.47833 z m -103.226189,0.20075 c 0,-0.20765 0.7875,-0.99515 1.75,-1.75 1.586056,-1.24387 1.621426,-1.2085 0.377555,0.37756 -1.306369,1.66575 -2.127555,2.19548 -2.127555,1.37244 z m 77,-1.56342 c 0,-0.51754 0.44485,-1.21592 0.98855,-1.55194 0.56686,-0.35034 0.7345,0.0511 0.39301,0.94098 -0.66479,1.73242 -1.38156,2.04939 -1.38156,0.61096 z m 124.100389,-1.3545 c -1.26492,-2.10631 -1.24361,-2.12762 0.47833,-0.47833 0.99123,0.94941 1.58698,1.94144 1.3239,2.20452 -0.26308,0.26308 -1.07408,-0.5137 -1.80223,-1.72619 z m -134.100389,0.91211 c 0,-0.21085 0.90062,-0.61888 2.00138,-0.90674 1.10076,-0.28785 1.7492,-0.11534 1.44098,0.38337 -0.53825,0.87091 -3.44236,1.31244 -3.44236,0.52337 z m 13.8125,-2.29974 c 0.72187,-0.28887 1.58437,-0.25335 1.91667,0.0789 0.33229,0.33229 -0.25834,0.56864 -1.3125,0.52522 -1.16495,-0.048 -1.4019,-0.28494 -0.60417,-0.60416 z m 71.287889,-1.61237 c -1.26492,-2.10631 -1.24361,-2.12762 0.47833,-0.47833 0.99123,0.94941 1.58698,1.94144 1.3239,2.20452 -0.26308,0.26308 -1.07408,-0.5137 -1.80223,-1.72619 z m -88.036999,0.16792 c -0.072,-1.84972 2.65256,-4.48982 3.62744,-3.51494 0.35338,0.35337 0.103,0.6425 -0.55639,0.6425 -0.65939,0 -1.60586,1.0125 -2.10328,2.25 -0.61201,1.52262 -0.92488,1.72384 -0.96777,0.62244 z m 41.494249,0.22082 c -0.30822,-0.49871 0.34022,-0.67122 1.44098,-0.38337 2.33499,0.61061 2.63015,1.29011 0.5604,1.29011 -0.79254,0 -1.69316,-0.40803 -2.00138,-0.90674 z m 81.25486,0.22363 c 0.72187,-0.28887 1.58437,-0.25335 1.91667,0.0789 0.33229,0.33229 -0.25834,0.56864 -1.3125,0.52522 -1.16495,-0.048 -1.4019,-0.28494 -0.60417,-0.60416 z M 4.988731,215.62275 c 0.6875,-0.27741 1.8125,-0.27741 2.5,0 0.6875,0.27741 0.125,0.50439 -1.25,0.50439 -1.375,0 -1.9375,-0.22698 -1.25,-0.50439 z m 112.062499,-0.0208 c 0.72187,-0.28887 1.58437,-0.25335 1.91667,0.0789 0.33229,0.33229 -0.25834,0.56864 -1.3125,0.52522 -1.16495,-0.048 -1.4019,-0.28494 -0.60417,-0.60416 z m -48.812499,-1.31692 c -0.90129,-0.58246 -1.02463,-0.97549 -0.30902,-0.98469 0.65504,-0.008 1.4691,0.43469 1.80902,0.98469 0.7673,1.24153 0.42112,1.24153 -1.5,0 z m 34.078949,-0.58333 c 0.048,-1.16495 0.28494,-1.4019 0.60416,-0.60417 0.28887,0.72187 0.25335,1.58437 -0.0789,1.91667 -0.3323,0.33229 -0.56864,-0.25834 -0.52522,-1.3125 z m 15.92105,-3.99998 c -1.68135,-0.93295 -1.96704,-1.39203 -0.87244,-1.40195 0.89515,-0.008 2.18775,0.66026 2.87244,1.48526 1.46028,1.75953 1.30982,1.75326 -2,-0.0833 z m 4.87244,-1.16669 c -1.24387,-1.58606 -1.2085,-1.62143 0.37756,-0.37756 1.66575,1.30637 2.19548,2.12756 1.37244,2.12756 -0.20765,0 -0.99515,-0.7875 -1.75,-1.75 z m 8.12756,1.37244 c 0,-0.20765 0.7875,-0.99515 1.75,-1.75 1.58606,-1.24387 1.62143,-1.2085 0.37756,0.37756 -1.30637,1.66575 -2.12756,2.19548 -2.12756,1.37244 z m 39.8125,-0.30555 c 0.72187,-0.28887 1.58437,-0.25335 1.91667,0.0789 0.33229,0.3323 -0.25834,0.56864 -1.3125,0.52522 -1.16495,-0.048 -1.4019,-0.28494 -0.60417,-0.60416 z m -164.999999,-1 c 0.721875,-0.28887 1.584375,-0.25335 1.916667,0.0789 0.332291,0.3323 -0.258334,0.56864 -1.3125,0.52522 -1.164943,-0.048 -1.4019,-0.28494 -0.604167,-0.60416 z m -6.081287,-2.39705 c 0.353609,-1.3522 0.806902,-1.8055 1.05655,-1.05655 0.240481,0.72144 -0.03821,1.78716 -0.619313,2.36826 -0.742068,0.74207 -0.872211,0.35164 -0.437237,-1.31171 z m 167.268786,-0.63073 c 0,-0.57432 0.7875,-1.66182 1.75,-2.41667 1.61876,-1.26951 1.63998,-1.22245 0.28297,0.62756 -0.80687,1.1 -1.59437,2.1875 -1.75,2.41667 -0.15563,0.22916 -0.28297,-0.0532 -0.28297,-0.62756 z m 21.07895,-0.87244 c 0.048,-1.16495 0.28494,-1.4019 0.60416,-0.60417 0.28887,0.72187 0.25335,1.58437 -0.0789,1.91667 -0.3323,0.33229 -0.56864,-0.25834 -0.52522,-1.3125 z M 10.969944,202.20487 c 0.353609,-1.3522 0.806902,-1.8055 1.05655,-1.05655 0.240481,0.72144 -0.03821,1.78716 -0.619313,2.36826 -0.742068,0.74207 -0.872211,0.35164 -0.437237,-1.31171 z m 7.081287,0.39705 c 0.721875,-0.28887 1.584375,-0.25335 1.916667,0.0789 0.332291,0.3323 -0.258334,0.56864 -1.3125,0.52522 -1.164943,-0.048 -1.4019,-0.28494 -0.604167,-0.60416 z m 101.187499,-1.70031 c 0,-0.21089 1.11138,-0.59588 2.46974,-0.85555 1.35835,-0.25966 2.2318,-0.0871 1.94098,0.38343 -0.51208,0.82856 -4.41072,1.24587 -4.41072,0.47212 z m 64.8125,-0.29969 c 0.72187,-0.28887 1.58437,-0.25335 1.91667,0.0789 0.33229,0.3323 -0.25834,0.56864 -1.3125,0.52522 -1.16495,-0.048 -1.4019,-0.28494 -0.60417,-0.60416 z m -150.999999,-3 c 0.721875,-0.28887 1.584375,-0.25335 1.916667,0.0789 0.332291,0.3323 -0.258334,0.56864 -1.3125,0.52522 -1.164943,-0.048 -1.4019,-0.28494 -0.604167,-0.60416 z M 174.31768,195.7017 c 0.048,-1.16495 0.28494,-1.4019 0.60416,-0.60417 0.28887,0.72187 0.25335,1.58437 -0.0789,1.91667 -0.3323,0.33229 -0.56864,-0.25834 -0.52522,-1.3125 z m -43.07895,0.20577 c 0,-0.20765 0.7875,-0.99515 1.75,-1.75 1.58606,-1.24387 1.62143,-1.2085 0.37756,0.37756 -1.30637,1.66575 -2.12756,2.19548 -2.12756,1.37244 z M 37.317678,193.7017 c 0.04798,-1.16495 0.284941,-1.4019 0.604167,-0.60417 0.288871,0.72187 0.253344,1.58437 -0.07895,1.91667 -0.332292,0.33229 -0.568641,-0.25834 -0.52522,-1.3125 z m 118.733552,-2.09978 c 0.72187,-0.28887 1.58437,-0.25335 1.91667,0.0789 0.33229,0.3323 -0.25834,0.56864 -1.3125,0.52522 -1.16495,-0.048 -1.4019,-0.28494 -0.60417,-0.60416 z m 22,0 c 0.72187,-0.28887 1.58437,-0.25335 1.91667,0.0789 0.33229,0.3323 -0.25834,0.56864 -1.3125,0.52522 -1.16495,-0.048 -1.4019,-0.28494 -0.60417,-0.60416 z m -188.940054,-6.06689 c -1.243871,-1.58606 -1.208501,-1.62143 0.377555,-0.37756 0.9625,0.75485 1.75,1.54235 1.75,1.75 0,0.82304 -0.821186,0.29331 -2.127555,-1.37244 z m 63.877555,0.0877 c 0.6875,-0.27741 1.8125,-0.27741 2.5,0 0.6875,0.27741 0.125,0.50439 -1.25,0.50439 -1.375,0 -1.9375,-0.22698 -1.25,-0.50439 z m 121.916669,-0.004 c -1.24003,-1.24002 -0.67649,-4.08074 1.08333,-5.46089 1.58489,-1.24295 1.62093,-1.20783 0.38198,0.37223 -0.75242,0.95957 -1.13205,2.64707 -0.84362,3.75 0.55957,2.13983 0.43903,2.39939 -0.62169,1.33866 z m 12.14583,-4.01645 c 0.72187,-0.28887 1.58437,-0.25334 1.91667,0.0789 0.33229,0.33229 -0.25834,0.56864 -1.3125,0.52522 -1.16495,-0.048 -1.4019,-0.28494 -0.60417,-0.60416 z m 4.28789,-2.02141 c 0.72815,-1.21248 1.53915,-1.98927 1.80223,-1.72619 0.26308,0.26309 -0.33267,1.25512 -1.3239,2.20453 -1.72194,1.64928 -1.74325,1.62797 -0.47833,-0.47834 z M -7.948769,178.60191 c 0.721875,-0.28887 1.584375,-0.25334 1.916667,0.0789 0.332291,0.33229 -0.258334,0.56864 -1.3125,0.52522 -1.164943,-0.048 -1.4019,-0.28494 -0.604167,-0.60416 z m 177.187499,-2.90019 c -1.68135,-0.93296 -1.96704,-1.39204 -0.87244,-1.40195 0.89515,-0.008 2.18775,0.66026 2.87244,1.48526 1.46028,1.75952 1.30982,1.75326 -2,-0.0833 z m 8.8125,-0.0998 c 0.72187,-0.28887 1.58437,-0.25334 1.91667,0.0789 0.33229,0.33229 -0.25834,0.56864 -1.3125,0.52522 -1.16495,-0.048 -1.4019,-0.28494 -0.60417,-0.60417 z M 9.697612,171.2185 c -0.362533,-0.5866 -0.444683,-1.281 -0.182555,-1.54313 0.262128,-0.26213 0.743066,0.21781 1.068751,1.06653 0.676184,1.76211 0.09985,2.07206 -0.886196,0.4766 z m 58.309569,-0.10192 c 0.5811,-0.58111 1.64682,-0.8598 2.36826,-0.61932 0.74895,0.24965 0.29565,0.70294 -1.05655,1.05655 -1.66335,0.43498 -2.05378,0.30483 -1.31171,-0.43723 z m 9.04405,-0.51467 c 0.72187,-0.28887 1.58438,-0.25334 1.91667,0.0789 0.33229,0.33229 -0.25834,0.56864 -1.3125,0.52522 -1.16495,-0.048 -1.4019,-0.28494 -0.60417,-0.60416 z m -60.696499,-1.86688 c -0.0638,-1.1275 -0.564394,-2.59161 -1.11243,-3.25357 -0.548035,-0.66197 -0.279796,-0.58016 0.596088,0.1818 0.875883,0.76195 1.376477,2.22606 1.112429,3.25357 -0.432794,1.68417 -0.491512,1.66626 -0.596087,-0.1818 z m 31.883999,0.55 c -0.901292,-0.58246 -1.024633,-0.97549 -0.309017,-0.98469 0.655041,-0.008 1.469098,0.43469 1.809017,0.98469 0.767305,1.24152 0.421123,1.24152 -1.5,0 z m 116.812499,0.31688 c 0.72187,-0.28887 1.58437,-0.25334 1.91667,0.0789 0.33229,0.33229 -0.25834,0.56864 -1.3125,0.52522 -1.16495,-0.048 -1.4019,-0.28494 -0.60417,-0.60416 z m -40.25486,-1.22362 c -0.30822,-0.49871 0.34022,-0.67123 1.44098,-0.38337 2.33499,0.61061 2.63015,1.29011 0.5604,1.29011 -0.79254,0 -1.69316,-0.40804 -2.00138,-0.90674 z m 5.47154,-1.76206 c 1.1427,-1.8351 1.12895,-2.45056 -0.0893,-4 -1.31899,-1.67751 -1.29296,-1.71601 0.31016,-0.45876 2.19653,1.72264 2.22656,3.48882 0.0893,5.25511 -1.51345,1.25079 -1.54094,1.1802 -0.31016,-0.79635 z m 13.07121,-0.0357 c 0.72815,-1.21249 1.53915,-1.98927 1.80223,-1.72619 0.26308,0.26308 -0.33267,1.25512 -1.3239,2.20452 -1.72194,1.64929 -1.74325,1.62798 -0.47833,-0.47833 z m 17.97856,0.12119 c 0.048,-1.16495 0.28494,-1.4019 0.60416,-0.60417 0.28887,0.72188 0.25335,1.58437 -0.0789,1.91667 -0.3323,0.33229 -0.56864,-0.25834 -0.52522,-1.3125 z m -96.733869,-0.9598 c -0.32569,-0.84872 -0.36872,-1.76657 -0.0956,-2.03966 0.27309,-0.2731 0.73656,0.42131 1.02992,1.54313 0.62315,2.38293 -0.0692,2.75089 -0.9343,0.49653 z m 21.1138,0.4766 c -0.36253,-0.58659 -0.44468,-1.281 -0.18255,-1.54313 0.26212,-0.26213 0.74306,0.21781 1.06875,1.06653 0.67618,1.76211 0.0999,2.07206 -0.8862,0.4766 z m 6.09999,-4.46527 c -1.06762,-0.80752 -1.46022,-1.4682 -0.87244,-1.4682 0.58777,0 1.62888,0.675 2.31357,1.5 1.5572,1.87631 1.06734,1.8655 -1.44113,-0.0318 z m -47.442869,-2.09576 c -0.0638,-1.17015 0.671499,-2.74515 1.633999,-3.5 1.521995,-1.19363 1.601159,-1.17701 0.607608,0.12756 -0.628315,0.825 -1.363614,2.4 -1.633998,3.5 -0.466935,1.89962 -0.497429,1.89322 -0.607609,-0.12756 z m 34.120669,-4.13275 c -1.16756,-2.49062 -1.13981,-2.5714 0.36607,-1.06553 0.89617,0.89618 1.46467,2.10889 1.26333,2.69493 -0.20134,0.58604 -0.93457,-0.14719 -1.6294,-1.6294 z m -90.078775,-2.23969 c 0,-1.375 0.226973,-1.9375 0.504386,-1.25 0.277412,0.6875 0.277412,1.8125 0,2.5 -0.277413,0.6875 -0.504386,0.125 -0.504386,-1.25 z m 11.870009,0.53362 c -0.669342,-0.80651 -1.061942,-1.9168 -0.872445,-2.46731 0.189498,-0.55052 0.864703,0.10935 1.500456,1.46638 1.317814,2.81288 1.127506,3.1162 -0.628011,1.00093 z m 129.072485,-2.8291 c -1.26492,-2.10631 -1.24361,-2.12762 0.47833,-0.47833 0.99123,0.9494 1.58698,1.94144 1.3239,2.20452 -0.26308,0.26308 -1.07408,-0.51371 -1.80223,-1.72619 z m 4.97856,0.71214 c 0.048,-1.16494 0.28494,-1.4019 0.60416,-0.60416 0.28887,0.72187 0.25335,1.58437 -0.0789,1.91666 -0.3323,0.33229 -0.56864,-0.25833 -0.52522,-1.3125 z m -60.999999,-5 c 0.048,-1.16494 0.28494,-1.4019 0.60416,-0.60416 0.28887,0.72187 0.25335,1.58437 -0.0789,1.91666 -0.3323,0.33229 -0.56864,-0.25833 -0.52522,-1.3125 z m -95.07895,-1.12755 c 0,-0.57432 0.7875,-1.66182 1.75,-2.41667 1.618755,-1.26951 1.639977,-1.22245 0.282968,0.62756 -0.806868,1.1 -1.594368,2.1875 -1.75,2.41666 -0.155633,0.22917 -0.282968,-0.0532 -0.282968,-0.62755 z m 170.078949,-4.87245 c 0.048,-1.16494 0.28494,-1.4019 0.60416,-0.60416 0.28887,0.72187 0.25335,1.58437 -0.0789,1.91666 -0.3323,0.33229 -0.56864,-0.25833 -0.52522,-1.3125 z m -15.3105,-1.58511 c 0.5811,-0.58111 1.64682,-0.8598 2.36826,-0.61932 0.74895,0.24965 0.29565,0.70294 -1.05655,1.05655 -1.66335,0.43498 -2.05378,0.30483 -1.31171,-0.43723 z M -9.524604,134.52472 c -1.167556,-2.49062 -1.139803,-2.5714 0.366072,-1.06553 0.896173,0.89618 1.464674,2.10889 1.263334,2.69493 -0.201339,0.58604 -0.934572,-0.14719 -1.629406,-1.6294 z m 20,0 c -1.167556,-2.49062 -1.139803,-2.5714 0.366072,-1.06553 0.896173,0.89618 1.464674,2.10889 1.263334,2.69493 -0.201339,0.58604 -0.934572,-0.14719 -1.629406,-1.6294 z m 115.430004,2.09364 c -0.90312,-0.90312 -0.84611,-4.1044 0.0833,-4.67883 0.4125,-0.25493 0.75,0.84351 0.75,2.44099 0,1.59748 -0.0375,2.90451 -0.0833,2.90451 -0.0458,0 -0.38334,-0.3 -0.75,-0.66667 z m 24.41228,-2.46089 c -0.0434,-0.89515 0.70855,-2.24515 1.67105,-3 1.5207,-1.19261 1.60381,-1.1759 0.63427,0.12756 -0.61365,0.825 -1.36562,2.175 -1.67105,3 -0.46453,1.25475 -0.56823,1.23389 -0.63427,-0.12756 z m -41.07895,-0.58333 c 0,-0.57432 0.7875,-1.66182 1.75,-2.41667 1.61876,-1.26951 1.63998,-1.22245 0.28297,0.62756 -0.80687,1.1 -1.59437,2.1875 -1.75,2.41666 -0.15563,0.22917 -0.28297,-0.0532 -0.28297,-0.62755 z m 26.07895,-1.87245 c 0.048,-1.16494 0.28494,-1.4019 0.60416,-0.60416 0.28887,0.72187 0.25335,1.58437 -0.0789,1.91666 -0.3323,0.33229 -0.56864,-0.25833 -0.52522,-1.3125 z m -161.000002,-8.54422 c -0.04342,-0.89515 0.708553,-2.24515 1.671053,-3 1.520699,-1.19261 1.603807,-1.1759 0.634273,0.12756 -0.61365,0.825 -1.365624,2.175 -1.671053,3 -0.464529,1.25475 -0.568233,1.23389 -0.634273,-0.12756 z m 7,-0.45578 c 0.04798,-1.16494 0.284941,-1.4019 0.604167,-0.60416 0.288871,0.72187 0.253344,1.58437 -0.07895,1.91666 -0.332292,0.3323 -0.568641,-0.25833 -0.52522,-1.3125 z m 13.47869,-0.3234 c -0.308218,-0.49871 0.340224,-0.67123 1.440983,-0.38337 2.334987,0.61061 2.630147,1.29011 0.560397,1.29011 -0.792541,0 -1.693162,-0.40804 -2.00138,-0.90674 z m 148.442362,0.52918 c 0,-0.20765 0.7875,-0.99515 1.75,-1.75 1.58606,-1.24387 1.62143,-1.2085 0.37756,0.37756 -1.30637,1.66574 -2.12756,2.19548 -2.12756,1.37244 z M 1.317678,119.70169 c 0.04798,-1.16494 0.284941,-1.4019 0.604167,-0.60416 0.288871,0.72187 0.253344,1.58437 -0.07895,1.91666 -0.332292,0.3323 -0.568641,-0.25833 -0.52522,-1.3125 z m 132.733552,-3.09978 c 0.72187,-0.28887 1.58437,-0.25334 1.91667,0.0789 0.33229,0.33229 -0.25834,0.56864 -1.3125,0.52522 -1.16495,-0.048 -1.4019,-0.28494 -0.60417,-0.60416 z M -3.011269,115.62275 c 0.6875,-0.27742 1.8125,-0.27742 2.5,0 0.6875,0.27741 0.125,0.50438 -1.25,0.50438 -1.375,0 -1.9375,-0.22697 -1.25,-0.50438 z m 2.80887,-9.86953 c -1.067621,-0.8075 -1.460221,-1.46819 -0.872444,-1.46819 0.587776,0 1.628885,0.675 2.313574,1.5 1.557204,1.87631 1.067337,1.8655 -1.44113,-0.0318 z"
           id="path225"
           inkscape:connector-curvature="0" />
      </g>
    </g>
  </g>
</svg>
