<?xml version="1.0" encoding="UTF-8" standalone="no"?>
<!-- Created with Inkscape (http://www.inkscape.org/) -->

<svg
   xmlns:dc="http://purl.org/dc/elements/1.1/"
   xmlns:cc="http://creativecommons.org/ns#"
   xmlns:rdf="http://www.w3.org/1999/02/22-rdf-syntax-ns#"
   xmlns:svg="http://www.w3.org/2000/svg"
   xmlns="http://www.w3.org/2000/svg"
   xmlns:sodipodi="http://sodipodi.sourceforge.net/DTD/sodipodi-0.dtd"
   xmlns:inkscape="http://www.inkscape.org/namespaces/inkscape"
   width="75mm"
   height="120mm"
   viewBox="0 0 75 120"
   version="1.1"
   id="svg8"
   inkscape:version="0.92.4 (5da689c313, 2019-01-14)"
   sodipodi:docname="chien1.svg">
  <defs
     id="defs2" />
  <sodipodi:namedview
     id="base"
     pagecolor="#ffffff"
     bordercolor="#666666"
     borderopacity="1.0"
     inkscape:pageopacity="0.0"
     inkscape:pageshadow="2"
     inkscape:zoom="2.54"
     inkscape:cx="72.762818"
     inkscape:cy="323.41737"
     inkscape:document-units="mm"
     inkscape:current-layer="g2324"
     showgrid="false"
     units="mm"
     inkscape:window-width="1920"
     inkscape:window-height="1017"
     inkscape:window-x="-8"
     inkscape:window-y="-8"
     inkscape:window-maximized="1"
     showguides="true"
     inkscape:guide-bbox="true" />
  <metadata
     id="metadata5">
    <rdf:RDF>
      <cc:Work
         rdf:about="">
        <dc:format>image/svg+xml</dc:format>
        <dc:type
           rdf:resource="http://purl.org/dc/dcmitype/StillImage" />
        <dc:title></dc:title>
      </cc:Work>
    </rdf:RDF>
  </metadata>
  <g
     inkscape:label="Calque 1"
     inkscape:groupmode="layer"
     id="layer1"
     transform="translate(0,-176.99999)">
    <rect
       style="fill:#ff00cc;fill-opacity:1;stroke:none;stroke-width:2;stroke-linecap:round;stroke-linejoin:miter;stroke-miterlimit:4;stroke-dasharray:none;stroke-dashoffset:0;stroke-opacity:1"
       id="rect452"
       width="102.52459"
       height="129.65245"
       x="-177.40683"
       y="158.13342" />
    <g
       id="g2324"
       transform="translate(-0.88388348,-2.7989647)">
      <g
         id="g2461"
         transform="translate(-3.6458333,2.6041667)">
        <path
           style="fill:#ffff00;stroke-width:0.26458335"
           d="m 21.675338,252.16628 -1.473128,-0.52406 -0.894776,-1.8496 -0.894775,-1.84959 -0.606041,-0.56934 -0.606042,-0.56935 -0.673406,0.30682 -0.673407,0.30683 -0.850565,-0.94893 -0.850564,-0.94893 -0.315796,-0.83559 c -0.173688,-0.45957 -0.323425,-1.13324 -0.33275,-1.49704 -0.01885,-0.73558 -0.612309,-2.70351 -1.835132,-6.08542 -0.447246,-1.23693 -0.815523,-2.51888 -0.818394,-2.84878 l -0.0052,-0.59981 1.190625,-1.96136 1.190625,-1.96136 v -1.09424 -1.09424 l -0.284852,-0.53225 c -0.156669,-0.29274 -0.45459,-1.14812 -0.662048,-1.90084 l -0.377195,-1.36858 -0.161493,-2.24896 -0.161493,-2.24896 0.426665,-1.62569 c 0.234666,-0.89413 0.426666,-1.81686 0.426666,-2.05052 v -0.42483 l -0.727604,-0.003 c -0.400183,-0.002 -1.189984,-0.0793 -1.755114,-0.17264 L 8.9226143,214.79638 8.797305,214.3172 8.6719957,213.83801 7.9582716,213.52209 7.2445477,213.20616 6.9084422,212.25568 C 6.4855635,211.05981 5.8432208,207.54792 5.6820357,205.55051 L 5.5592664,204.02916 H 5.8210542 6.082842 v -0.39687 -0.39688 h 0.400465 c 0.2202559,0 0.6315597,-0.14432 0.9140088,-0.32071 l 0.5135438,-0.32072 0.1759251,0.17593 c 0.096759,0.0968 0.3156022,1.41491 0.4863185,2.92923 l 0.3103933,2.7533 0.466132,0.71141 0.4661318,0.71141 0.8455197,0.51554 0.84552,0.51555 1.48785,0.001 1.48785,0.001 2.030791,-0.50749 c 1.116935,-0.27912 2.173809,-0.61856 2.348608,-0.75431 0.1748,-0.13575 1.567974,-0.59199 3.095943,-1.01387 l 2.778125,-0.76718 4.365625,0.0175 4.365625,0.0175 2.910416,0.57748 c 3.544271,0.70325 6.005494,1.04401 6.656602,0.92162 0.267931,-0.0504 1.393323,-0.14009 2.500871,-0.1994 l 2.013723,-0.10784 1.558152,-0.44198 c 0.856983,-0.24309 2.212996,-0.71536 3.013361,-1.04948 0.800364,-0.33413 1.832073,-0.74895 2.292683,-0.92184 l 0.837475,-0.31433 1.014608,-0.92785 1.014609,-0.92785 0.926041,-0.40252 c 0.509323,-0.22139 1.245852,-0.62972 1.636731,-0.9074 l 0.71069,-0.50487 2.390505,-0.78778 2.390502,-0.78776 h 1.562849 1.562849 l 1.024501,0.42441 c 0.563472,0.23342 1.527379,0.83414 2.142014,1.33492 l 1.117512,0.91052 0.270987,1.00636 c 0.149042,0.55351 0.539128,1.40422 0.866859,1.89048 l 0.595876,0.88412 1.750084,1.05031 1.750084,1.05031 -0.139925,0.55293 c -0.07696,0.30412 -0.312642,0.82083 -0.523743,1.14825 l -0.383817,0.59531 h -0.327811 c -0.180295,0 -0.636905,0.28646 -1.014688,0.63658 l -0.686879,0.63658 -0.925611,0.30548 -0.92561,0.30547 -2.461043,-0.007 c -1.353572,-0.004 -2.902556,0.0582 -3.442187,0.13767 l -0.981147,0.14441 -0.195754,0.57392 c -0.107664,0.31565 -0.172162,0.66321 -0.143333,0.77235 0.02883,0.10915 -0.06664,0.19845 -0.212161,0.19845 h -0.264584 v 0.76544 0.76544 l -0.418515,0.1606 c -0.230182,0.0883 -0.698725,0.1606 -1.041207,0.1606 h -0.622691 l -0.331542,-0.91685 -0.331539,-0.91686 -0.323387,-0.1241 -0.323389,-0.12409 -0.627383,0.97481 c -0.552736,0.85881 -1.309801,2.3187 -1.39736,2.69459 -0.01696,0.0728 -0.11798,0.56728 -0.224514,1.09893 l -0.193699,0.96665 -0.389679,0.14953 -0.389678,0.14953 v 0.40518 0.40518 H 58.33805 57.941175 l -0.529167,0.52917 c -0.291041,0.29104 -0.631438,0.52916 -0.756438,0.52916 -0.124997,0 -0.631013,0.47566 -1.124479,1.05701 l -0.897208,1.057 -0.330729,0.001 -0.330729,0.001 v 0.27025 c 0,0.14864 -0.579115,0.85549 -1.286923,1.57079 -0.707805,0.7153 -1.564783,1.75454 -1.904391,2.30944 l -0.617469,1.0089 7.94e-4,2.11666 c 0.0011,2.72832 0.232468,4.52335 0.737142,5.72108 l 0.403905,0.95859 -0.165899,0.16589 -0.165896,0.1659 h 0.283908 0.283912 l -0.13838,0.52917 -0.13838,0.52916 h 0.282493 0.282493 l 0.986242,1.78594 0.986243,1.78594 2.201706,2.18147 2.201706,2.18148 v 0.50725 0.50724 l -1.047175,0.17692 -1.047174,0.17692 -0.606472,-0.18108 c -0.333558,-0.0996 -1.108718,-0.42609 -1.722578,-0.72554 l -1.11611,-0.54447 -1.083601,-1.54478 -1.083604,-1.54479 h -0.36436 c -0.200399,0 -0.433695,0.11219 -0.518436,0.2493 l -0.154074,0.2493 -1.15623,0.17339 -1.156229,0.17338 -0.888124,-0.39435 c -0.488468,-0.2169 -1.09827,-0.46359 -1.355116,-0.5482 l -0.466993,-0.15384 -0.26607,-0.73438 c -0.146341,-0.40391 -0.37687,-0.97251 -0.512289,-1.26355 -0.135416,-0.29105 -0.662739,-2.14406 -1.171826,-4.11782 -1.016458,-3.94085 -2.76537,-9.06351 -3.452244,-10.11182 l -0.438314,-0.66895 -0.647531,-0.16252 -0.647406,-0.16251 v -0.25954 -0.25954 h -0.513551 -0.513553 l -0.163521,-0.26459 -0.16352,-0.26458 h -0.538856 -0.538853 l -0.758214,-0.5399 c -0.41702,-0.29694 -1.436304,-0.77319 -2.265079,-1.05833 l -1.506861,-0.51844 h -1.665921 -1.665922 l -0.673908,0.30706 c -0.370649,0.16888 -0.673907,0.4083 -0.673907,0.53205 0,0.12375 -0.256074,0.78924 -0.569052,1.47888 -0.601028,1.32435 -2.188065,3.50952 -3.736469,5.1447 l -0.928367,0.9804 -0.425765,1.24955 -0.425764,1.24955 v 1.93167 1.93167 l 0.666103,1.98429 c 0.366357,1.09136 1.150783,2.99948 1.74317,4.24027 l 1.077066,2.25599 0.56466,0.3955 c 0.310563,0.21753 0.746528,0.39551 0.96881,0.39552 h 0.404149 l 0.768771,0.96349 0.76877,0.96349 -0.264009,0.42557 c -0.322964,0.52059 -1.356727,1.04806 -2.370002,1.20926 l -0.755613,0.12021 z m 28.59292,-7.25899 v -0.39688 h 0.268394 0.26839 l -0.831683,-1.65364 c -0.457427,-0.90951 -0.905817,-1.71318 -0.996418,-1.78594 -0.0906,-0.0728 -0.325985,-0.44569 -0.523071,-0.82873 -0.197085,-0.38304 -1.037254,-1.42784 -1.86704,-2.32177 l -1.508702,-1.62534 -0.16483,0.16483 -0.16483,0.16483 0.141788,0.36948 0.141785,0.36949 0.224512,-0.13875 0.224509,-0.13876 0.294598,1.09405 0.294598,1.09405 -0.146929,0.38288 -0.146926,0.38289 0.213495,-0.13195 0.213495,-0.13195 0.329208,0.91042 0.329211,0.91041 -0.129787,0.21 -0.129783,0.20999 0.641456,0.0531 0.641456,0.0531 0.873585,0.57265 0.873588,0.57265 0.283864,0.6015 0.283863,0.6015 -0.642477,-0.24427 -0.642477,-0.24426 0.163028,0.26378 c 0.08967,0.14508 0.334595,0.26378 0.544288,0.26378 h 0.381259 v 0.24254 c 0,0.13339 -0.148828,0.30259 -0.330729,0.37598 l -0.330729,0.13346 0.463021,0.0209 0.46302,0.0209 v -0.39688 z m -3.704166,-8.16969 c 0,-0.0549 -0.20836,-0.2633 -0.463021,-0.46302 l -0.463021,-0.36313 0.363125,0.46302 c 0.345644,0.44073 0.562917,0.58089 0.562917,0.36313 z m 0.79375,-6.89595 c 0,-0.0642 -0.137459,-0.20163 -0.305464,-0.30546 l -0.305464,-0.18879 0.188788,0.30546 c 0.188499,0.305 0.42214,0.40949 0.42214,0.18879 z m 19.931943,-15.67013 0.17639,-0.17639 0.17639,0.17639 0.176387,0.17639 H 67.466175 67.113398 Z M 10.464043,196.7616 c 0.566065,-0.60096 -0.09902,0.0273 1.870394,-0.79456 l 1.09222,-0.45582 2.08278,0.12571 c 1.145529,0.0691 2.320905,0.21911 2.611947,0.33327 0.804818,0.31569 1.984375,1.18497 1.984375,1.46239 v 0.24657 l -0.727605,-0.002 -0.727604,-0.002 -0.757848,-0.39524 -0.757848,-0.39525 h -1.804615 l -1.283782,0.3125 -2.01049,0.29399 v 0 0 c 0,0 -1.588558,1.35721 -2.2146117,2.18348 -1.186051,1.56538 -1.7345706,3.09527 -1.7345706,3.09527 0,0 -2.8987655,3.479 -2.4233516,1.103 0.9067099,-4.53151 4.8006099,-7.11131 4.8006099,-7.11131 z"
           id="path2471"
           inkscape:connector-curvature="0"
           sodipodi:nodetypes="ccccccccccccscccccccscccssccccccccsscccccscccscccccccscccccscccccccccccccccccccccccccccscccccccccsccccsccccccccccccccccsccccscccccccccccccccccccccccccccsccccccccccccccccccccccccccccssccccccscccccccccccccccccccccccccccccccccccccccccccccscsccccccsccssscccsccccccccscccscccccccaccscsc" />
        <path
           style="fill:#00ffff;stroke-width:0.26458335"
           d="m 21.675338,252.16628 -1.473128,-0.52406 -0.894776,-1.8496 -0.894775,-1.84959 -0.595196,-0.55916 -0.595197,-0.55916 -0.424079,0.16274 -0.424079,0.16273 0.171953,-0.27822 0.171952,-0.27823 -0.474105,-0.52388 -0.474106,-0.52388 0.427729,0.16414 c 0.235252,0.0903 0.508392,0.36329 0.606979,0.6067 l 0.17925,0.44256 0.227926,-0.59091 0.227927,-0.5909 0.452965,0.17382 0.452965,0.17382 -0.178225,-0.44281 c -0.602369,-1.49661 -0.306508,-1.02375 0.864261,1.38131 0.736319,1.51259 1.338763,2.84357 1.338763,2.95773 0,0.11415 0.401012,0.63275 0.891137,1.15244 l 0.891137,0.94488 h 0.902145 0.902145 l 0.43394,-0.50681 0.433941,-0.50681 -0.154653,-0.15465 c -0.08506,-0.0851 -0.260899,-0.15465 -0.390754,-0.15465 h -0.236101 l 0.163521,0.26458 0.163522,0.26459 h -0.41249 -0.41249 v -0.37483 -0.37483 l 0.330729,-0.1342 0.330729,-0.13419 -0.396875,-0.28068 -0.396875,-0.28067 0.392148,-0.004 0.392148,-0.004 -0.98746,-0.671 c -0.543103,-0.36905 -0.987461,-0.77707 -0.987461,-0.90672 0,-0.12965 -0.416719,-1.13789 -0.926041,-2.24054 -0.509323,-1.10265 -0.926042,-2.10824 -0.926042,-2.23465 0,-0.1264 -0.250275,-0.79561 -0.556166,-1.48713 l -0.556165,-1.25731 -0.0301,-2.82283 -0.0301,-2.82284 0.766574,-1.30806 0.766575,-1.30806 -0.06017,-1.01982 -0.06017,-1.01982 0.286997,-0.34581 0.286997,-0.34581 -0.624083,-0.72554 -0.624082,-0.72554 -0.907528,-0.29332 -0.907528,-0.29333 -0.06729,-2.38125 c -0.03701,-1.30969 -0.0058,-2.74706 0.06932,-3.19417 l 0.136612,-0.81291 0.750401,-0.77459 c 0.412721,-0.42602 0.887542,-1.03464 1.055158,-1.3525 l 0.304756,-0.57792 0.004,-0.745 c 0.0046,-0.84857 0.505114,-2.57554 1.001956,-3.45697 l 0.335562,-0.59532 0.982879,0.001 0.982878,0.001 1.315317,0.47179 1.315317,0.47179 0.2442,1.0485 c 0.13431,0.57667 0.316324,1.10803 0.404475,1.18079 0.382197,0.31546 0.859835,1.43137 0.965322,2.25529 l 0.114284,0.89262 -0.261228,0.16145 -0.261228,0.16145 v 0.67596 0.67597 l -0.586406,1.04337 -0.586405,1.04336 0.387968,0.24277 0.387968,0.24277 0.941709,-0.0347 0.941709,-0.0347 0.513499,0.29793 0.513499,0.29793 -1.508904,0.008 -1.508905,0.008 -0.673908,0.30706 c -0.370649,0.1689 -0.673907,0.40832 -0.673907,0.53207 0,0.12375 -0.256074,0.78924 -0.569052,1.47888 -0.601028,1.32435 -2.188065,3.50952 -3.736469,5.1447 l -0.928367,0.9804 -0.425765,1.24955 -0.425764,1.24955 v 1.93167 1.93167 l 0.666103,1.98429 c 0.366357,1.09136 1.150783,2.99948 1.74317,4.24027 l 1.077066,2.25599 0.56466,0.3955 c 0.310563,0.21753 0.746528,0.39551 0.96881,0.39552 h 0.404149 l 0.768771,0.96349 0.76877,0.96349 -0.264009,0.42557 c -0.322964,0.52059 -1.356727,1.04806 -2.370002,1.20926 l -0.755613,0.12021 z m 33.620004,-2.28295 c -0.218282,-0.0779 -0.899123,-0.38534 -1.512983,-0.68329 l -1.11611,-0.54173 -1.083601,-1.54478 -1.083604,-1.54478 h -0.36436 c -0.200399,0 -0.433695,0.11218 -0.518436,0.24929 l -0.154074,0.2493 -1.15623,0.17339 -1.156229,0.17338 -0.888124,-0.39435 c -0.488468,-0.2169 -1.09827,-0.46359 -1.355116,-0.5482 l -0.466993,-0.15384 -0.26607,-0.73438 c -0.146341,-0.40391 -0.379031,-0.97251 -0.517094,-1.26355 -0.225962,-0.47635 -1.32556,-4.62818 -1.32556,-5.00502 0,-0.0849 0.099,-0.15436 0.220007,-0.15436 h 0.220009 l 0.293417,1.12448 c 0.16138,0.61846 0.584573,2.07698 0.94043,3.24115 l 0.647015,2.11666 0.75779,0.46163 c 0.416785,0.2539 0.973177,0.46226 1.236427,0.46302 l 0.478634,0.001 -0.161647,-0.26156 -0.16165,-0.26155 0.409099,0.15699 0.409096,0.15698 -0.169587,0.30301 -0.169588,0.303 0.33564,-0.31005 0.33564,-0.31006 0.364636,0.13993 0.364632,0.13992 v -0.29289 -0.29289 l -0.46302,-0.0283 -0.463021,-0.0283 1.190625,-0.27236 1.190625,-0.27237 -1.109615,-0.37785 -1.109618,-0.37786 0.126,-0.32834 0.126,-0.32835 -0.862057,-0.38216 -0.86206,-0.38217 -0.171096,-0.85826 c -0.0941,-0.47205 -0.287914,-1.00783 -0.430691,-1.19063 -0.142777,-0.18279 -0.390814,-0.86746 -0.551191,-1.52148 l -0.291597,-1.18912 0.233598,-0.2336 0.233598,-0.23359 0.293145,1.15813 c 0.161232,0.63698 0.476324,1.66133 0.700209,2.27635 l 0.407062,1.11821 -0.132708,0.21472 -0.132704,0.21473 0.641456,0.0531 0.641456,0.0531 0.873585,0.57265 0.873588,0.57265 0.300207,0.63614 0.300207,0.63613 -0.379116,0.14548 c -0.208513,0.0801 -0.379117,0.25187 -0.379117,0.38183 v 0.23627 h 0.396875 0.396875 v -0.39687 -0.39688 h 0.268394 0.26839 l -0.831683,-1.65364 c -0.457427,-0.90951 -0.905817,-1.71318 -0.996418,-1.78594 -0.0906,-0.0728 -0.343138,-0.48617 -0.561187,-0.91867 -0.218051,-0.43252 -0.789395,-1.13472 -1.269656,-1.56045 l -0.873201,-0.77407 0.142565,-0.37152 0.142568,-0.37153 -0.226192,0.1398 -0.226192,0.13979 -0.467596,-0.51669 -0.467595,-0.51668 -0.295371,0.16487 -0.295367,0.16486 0.321286,-0.34687 0.321289,-0.34688 -0.671396,-0.57691 -0.671394,-0.57691 -0.01307,-2.22388 c -0.0072,-1.22314 0.0313,-2.45792 0.08553,-2.74396 l 0.0986,-0.52007 -0.79375,-0.17623 -0.79375,-0.17623 0.756288,-0.0313 0.756287,-0.0313 -0.173455,-0.7276 c -0.0954,-0.40018 -0.414647,-1.08479 -0.709443,-1.52135 l -0.535991,-0.79375 0.671701,0.73182 0.671697,0.73182 0.27889,1.03572 0.278889,1.03571 -0.262059,1.16936 -0.262059,1.16936 0.167129,1.41115 0.167129,1.41115 1.823133,1.96625 c 1.002723,1.08144 1.769951,2.01943 1.704954,2.08443 -0.065,0.065 0.141465,0.39834 0.458809,0.74076 0.317341,0.34242 1.274003,1.91265 2.125911,3.4894 1.480661,2.74047 2.70239,4.61769 3.128544,4.80709 0.109141,0.0485 0.198438,0.26961 0.198438,0.49133 v 0.40314 l 0.399171,-0.15318 0.399174,-0.15318 0.725305,0.27576 c 0.398921,0.15167 0.749949,0.23763 0.780064,0.19102 0.03012,-0.0466 0.23469,0.15338 0.454607,0.44442 l 0.399849,0.52917 0.0084,-0.46302 0.0084,-0.46302 0.297656,0.0661 0.297656,0.0661 0.113784,-0.30828 0.113782,-0.30828 -0.54373,-0.17257 -0.543732,-0.17258 v -0.24675 -0.24675 l -0.330729,-0.002 -0.330729,-0.002 -0.325109,-0.70024 -0.32511,-0.70024 0.719008,0.63616 c 0.395457,0.34988 1.047771,0.96249 1.449591,1.36135 l 0.730578,0.72519 v 0.49851 0.4985 l -0.826823,0.16536 c -0.945906,0.18918 -1.516618,0.18426 -2.083593,-0.018 z m -7.672917,-11.29365 c 0,-0.0549 -0.208359,-0.2633 -0.463021,-0.46302 l -0.463021,-0.36312 0.363125,0.46302 c 0.345644,0.44073 0.562917,0.58088 0.562917,0.36312 z m -31.926389,8.65476 0.176389,-0.17639 0.176389,0.17639 0.176389,0.17639 h -0.352778 -0.352777 z m -1.180276,-1.34497 -0.363126,-0.46302 0.46302,0.36313 c 0.254662,0.19972 0.463021,0.40808 0.463021,0.46302 0,0.21776 -0.217272,0.0776 -0.562915,-0.36313 z m -0.652975,-0.90077 -0.188787,-0.30547 0.305464,0.18879 c 0.304999,0.1885 0.409486,0.42214 0.188787,0.42214 -0.06417,0 -0.201631,-0.13746 -0.305464,-0.30546 z m 40.216667,-0.26459 -0.188788,-0.30546 0.305464,0.18879 c 0.304998,0.1885 0.409487,0.42214 0.188788,0.42214 -0.06417,0 -0.201631,-0.13746 -0.305464,-0.30547 z m -40.588277,-1.01745 c 0,-0.14552 0.12609,-0.26458 0.280199,-0.26458 h 0.280198 l -0.163522,0.26458 c -0.08994,0.14552 -0.216026,0.26459 -0.280198,0.26459 -0.06417,0 -0.116677,-0.11907 -0.116677,-0.26459 z m 3.443901,-1.13039 c -0.343681,-0.76073 -0.719538,-1.59151 -0.835237,-1.84617 -0.115699,-0.25466 -0.148412,-0.46302 -0.07269,-0.46302 0.198001,0 1.781754,3.44339 1.646131,3.57901 -0.06233,0.0623 -0.394518,-0.50909 -0.738199,-1.26982 z m 35.601379,0.0537 c -0.391896,-0.59219 -0.675609,-1.18706 -0.630471,-1.32193 l 0.08207,-0.24522 0.742868,1.32194 c 0.408575,0.72706 0.692288,1.32193 0.63047,1.32193 -0.06182,0 -0.433035,-0.48452 -0.824933,-1.07672 z m -1.386253,-2.80383 0.17639,-0.17639 0.17639,0.17639 0.176387,0.17639 h -0.352777 -0.352777 z m -0.366728,-1.05094 c -0.14599,-0.38398 -0.216342,-0.74724 -0.156335,-0.80725 0.06001,-0.06 0.235739,0.25416 0.390515,0.69815 0.154776,0.44399 0.225126,0.80726 0.156334,0.80726 -0.06879,0 -0.244523,-0.31417 -0.390514,-0.69816 z m -36.241816,-0.90401 c -0.160078,-0.29911 -0.251846,-0.66145 -0.203929,-0.8052 l 0.08712,-0.26137 0.303929,0.8052 c 0.167161,0.44286 0.25893,0.80521 0.20393,0.80521 -0.055,0 -0.230973,-0.24473 -0.391052,-0.54384 z m 27.656809,-0.24992 c 0.08994,-0.14552 0.216027,-0.26458 0.280199,-0.26458 0.06417,0 0.116676,0.11906 0.116676,0.26458 0,0.14553 -0.12609,0.26459 -0.280199,0.26459 h -0.280197 z m 8.069791,-0.52916 v -0.35278 l 0.17639,0.17639 0.176387,0.17639 -0.176387,0.17639 -0.17639,0.17639 z m -8.334375,-0.26459 c 0.08994,-0.14552 0.216027,-0.26458 0.2802,-0.26458 0.06417,0 0.116675,0.11906 0.116675,0.26458 0,0.14553 -0.126089,0.26459 -0.280199,0.26459 h -0.280196 z m 7.900813,-0.92978 -0.210388,-0.79001 -0.0088,-2.18205 -0.0088,-2.18206 -0.926042,-0.17002 -0.926041,-0.17001 -0.866937,-0.95522 -0.866936,-0.95522 -0.154114,-0.59603 -0.154115,-0.59603 0.133181,-0.85918 c 0.07325,-0.47255 0.20543,-1.17447 0.293735,-1.55983 l 0.160552,-0.70066 -1.058619,-1.40889 -1.058622,-1.40889 v -0.50506 -0.50505 l 0.547492,-0.88587 0.547494,-0.88586 1.106151,-0.28089 c 0.608386,-0.15449 1.390174,-0.42373 1.737307,-0.59832 0.672471,-0.33821 0.94361,-0.66924 2.138699,-2.61113 l 0.757505,-1.23086 0.826439,-0.18152 0.826439,-0.18152 -0.178382,-0.57199 c -0.09811,-0.3146 -0.296651,-0.64799 -0.441203,-0.74086 l -0.262819,-0.16886 0.207069,-0.33504 0.20707,-0.33505 -0.305464,0.18879 -0.305464,0.18879 -0.03135,-1.1401 c -0.01725,-0.62705 -0.01201,-1.28892 0.01159,-1.47082 l 0.04295,-0.33073 h -0.323834 -0.323837 l 0.889059,-0.79375 0.889058,-0.79375 h 0.688663 0.688665 l 0.758695,-0.59531 c 0.41728,-0.32742 1.127734,-0.93517 1.578785,-1.35056 0.451051,-0.41538 1.236811,-0.93502 1.746134,-1.15474 0.509322,-0.21973 1.245851,-0.6267 1.636731,-0.90438 l 0.710689,-0.50487 2.390505,-0.78778 2.390518,-0.78778 h 1.562849 1.562849 l 1.024501,0.42441 c 0.563472,0.23342 1.527379,0.83414 2.142014,1.33492 l 1.117512,0.91052 0.270987,1.00636 c 0.149042,0.55351 0.539128,1.40422 0.866859,1.89048 l 0.595876,0.88412 1.750084,1.05031 1.750084,1.05031 -0.139925,0.55293 c -0.978902,1.63331 -1.384658,-0.26851 -1.610159,-1.60324 l -2.462482,-0.91273 -0.898824,-1.17753 c -0.494353,-0.64764 -0.817322,-1.17752 -0.717712,-1.17752 0.09961,0 -0.03816,-0.16034 -0.30616,-0.35631 l -0.487277,-0.3563 -1.216938,0.2347 c -0.669317,0.12909 -1.425866,0.35032 -1.681218,0.49163 l -0.464275,0.25691 -0.957099,-0.3999 c -0.526404,-0.21994 -1.243951,-0.3999 -1.594548,-0.3999 h -0.63745 l -0.166484,0.43385 -0.166481,0.43384 0.703953,2.1616 c 0.387175,1.18888 0.703953,2.34829 0.703953,2.57646 v 0.41487 l 0.396875,0.32938 0.396875,0.32938 v 1.11779 1.1178 l 0.595313,0.28711 0.595312,0.28711 -0.330729,0.0179 c -0.181901,0.01 -0.580737,-0.2321 -0.886301,-0.53767 l -0.555572,-0.55557 -1.452232,-0.19707 -1.452235,-0.19707 -0.628512,-0.76871 c -0.345683,-0.42279 -0.632796,-0.89526 -0.63803,-1.04994 -0.01046,-0.30923 -1.383506,-1.70315 -1.677638,-1.70315 H 60.05776 v 1.29814 1.29815 l -0.576699,-0.15081 c -0.816256,-0.21345 -1.65862,-0.93577 -3.488487,-2.99133 l -0.757896,-0.85137 0.187534,1.6908 0.187534,1.69079 0.648176,1.90578 c 0.356495,1.04818 0.958665,2.46131 1.338154,3.14029 0.379487,0.67898 1.073084,1.59903 1.541323,2.04456 l 0.851347,0.81005 -0.258345,0.94445 -0.258344,0.94446 -0.368607,0.21158 -0.368607,0.21159 v 0.38372 0.38373 H 58.33805 57.941175 l -0.529167,0.52917 c -0.291041,0.29104 -0.631438,0.52916 -0.756438,0.52916 -0.124997,0 -0.631013,0.47566 -1.124479,1.05701 l -0.897208,1.057 -0.330729,10e-4 -0.330729,0.001 v 0.27025 c 0,0.14864 -0.579115,0.85549 -1.286923,1.57079 -0.707805,0.7153 -1.557356,1.75454 -1.887889,2.30944 l -0.600969,1.0089 -0.13039,1.76292 -0.130389,1.76293 0.295053,0.84639 0.295055,0.84639 -0.240445,0.42965 -0.240446,0.42965 -0.210386,-0.79001 z m -38.724771,-0.39313 v -0.35278 l 0.176389,0.17639 0.176389,0.17639 -0.176389,0.17639 -0.176389,0.17639 z m 3.96875,0.18321 c 0,-0.0854 0.297656,-0.71503 0.661459,-1.39924 l 0.661458,-1.24404 v 0.42454 c 0,0.23349 -0.297656,0.86315 -0.661458,1.39924 -0.363803,0.53609 -0.661459,0.90487 -0.661459,0.8195 z m 26.315162,-0.4654 c -0.09592,-0.1552 -0.117655,-0.33893 -0.0483,-0.40828 0.06935,-0.0694 0.196602,0.0576 0.282774,0.28218 0.178906,0.46623 0.02643,0.54823 -0.234474,0.1261 z m 4.385813,-0.49417 c -0.150641,-0.28147 -0.261705,-0.78749 -0.246809,-1.12448 l 0.02708,-0.6127 0.195278,0.81684 c 0.107405,0.44927 0.280837,0.95528 0.385408,1.12448 0.104572,0.1692 0.12776,0.30763 0.05153,0.30763 -0.07623,0 -0.261851,-0.23029 -0.412491,-0.51177 z m -34.934308,-0.0174 v -0.35278 l 0.176389,0.17639 0.176389,0.17639 -0.176389,0.17639 -0.176389,0.17639 z m 3.704167,-0.67276 c 0,-0.0857 0.123251,-0.38608 0.273892,-0.66755 l 0.273892,-0.51178 h 0.387566 0.387566 v 0.23416 c 0,0.12878 -0.297656,0.42918 -0.661458,0.66756 -0.363802,0.23837 -0.661458,0.3633 -0.661458,0.27761 z m -3.439584,-0.65016 v -0.35278 l 0.176389,0.17639 0.176389,0.17639 -0.176389,0.17639 -0.176389,0.17639 z m 4.518805,-2.00642 0.02089,-0.50712 0.138964,0.34727 0.138964,0.34726 -0.159852,0.15985 -0.159853,0.15986 0.02089,-0.50712 z m 23.778806,-1.59191 -0.589179,-1.21708 -0.757341,-0.26401 c -0.416539,-0.14521 -0.757341,-0.36523 -0.757341,-0.48895 v -0.22493 l 0.761328,0.2654 0.761325,0.26539 0.526064,0.58074 0.526065,0.58073 0.161203,0.8599 c 0.08866,0.47294 0.115268,0.85989 0.05913,0.85989 -0.05614,0 -0.367207,-0.54769 -0.691253,-1.21708 z m 0.862269,-0.79398 -0.341159,-0.37019 h 0.2594 c 0.274754,0 0.672497,0.50329 0.515562,0.65238 -0.05095,0.0484 -0.246163,-0.0786 -0.433803,-0.28219 z m 1.201058,-0.0162 c 0.181901,-0.0734 0.479557,-0.0734 0.661458,0 l 0.330729,0.13345 h -0.661458 -0.661459 z m -26.106716,-1.8312 0.02089,-0.50712 0.138965,0.34727 0.138964,0.34726 -0.159852,0.15986 -0.159853,0.15984 0.02089,-0.50711 z m 20.748903,0.15433 -0.16352,-0.26458 h -0.52759 -0.52759 l -0.973423,-0.66146 c -0.535382,-0.3638 -1.144222,-0.66146 -1.352976,-0.66146 h -0.379553 l 0.170892,-0.17089 0.170889,-0.17089 1.659144,0.73869 c 0.912529,0.40628 1.893996,0.8999 2.181037,1.09693 l 0.521891,0.35825 h -0.30784 c -0.169313,0 -0.381424,-0.11906 -0.471361,-0.26459 z m -21.013487,-1.47725 0.02089,-0.50712 0.138964,0.34727 0.138965,0.34726 -0.159853,0.15985 -0.159853,0.15985 0.02089,-0.50711 z m 16.471472,-0.55122 0.17639,-0.17639 0.17639,0.17639 0.176387,0.17639 h -0.352777 -0.352777 z m -16.736055,-0.50711 0.02089,-0.50712 0.138964,0.34726 0.138964,0.34727 -0.159852,0.15985 -0.159853,0.15985 0.02089,-0.50711 z m 24.75487,-0.95965 c -0.08926,-0.33319 -0.14881,-1.14159 -0.132345,-1.79643 l 0.02994,-1.19063 0.220932,1.70785 c 0.22647,1.75067 0.170265,2.35728 -0.118525,1.27921 z M 14.610893,223.3438 v -0.92604 l 0.121,0.46302 c 0.06655,0.25467 0.06655,0.67138 0,0.92605 l -0.121,0.46302 z m 22.843333,-1.02302 -0.392205,-0.75844 -0.274051,-1.68896 c -0.150725,-0.92892 -0.274947,-1.78527 -0.276047,-1.903 l -0.0021,-0.21405 0.226034,0.13969 0.226033,0.1397 0.166616,1.59409 0.166616,1.5941 0.387599,0.92766 c 0.21318,0.5102 0.337201,0.92765 0.275603,0.92765 -0.0616,0 -0.288488,-0.3413 -0.5042,-0.75844 z m -23.090015,-1.62281 v -1.45521 l 0.110223,0.72761 c 0.06062,0.40018 0.06062,1.05502 0,1.45521 l -0.110223,0.7276 z m 17.719859,-0.79375 v -1.19062 l 0.114663,0.59531 c 0.06307,0.32742 0.06307,0.8632 0,1.19062 l -0.114663,0.59532 z m -20.180395,-0.26458 v -0.35278 l 0.176389,0.17639 0.176389,0.17639 -0.176389,0.17639 -0.176389,0.17638 z m 2.38125,-0.79375 v -0.35278 l 0.176389,0.17639 0.176389,0.17639 -0.176389,0.17639 -0.176389,0.17638 z m 20.761209,-0.84823 c 0.204189,-1.0075 0.6624,-2.15802 0.803333,-2.01709 0.06517,0.0652 -0.121568,0.70676 -0.41497,1.42576 l -0.533461,1.30727 z m 25.276291,-0.21011 v -0.35277 l 0.17639,0.17638 0.176387,0.17639 -0.176387,0.17639 -0.17639,0.17639 z m -48.061483,-0.52916 c 0.09057,-0.3638 0.1663,-0.87685 0.168287,-1.1401 l 0.0036,-0.47863 0.265554,0.16412 0.265555,0.16412 -0.167423,0.71139 c -0.09208,0.39126 -0.287311,0.83045 -0.433841,0.97597 l -0.266418,0.26459 z m 51.060093,0.0882 0.17639,-0.17639 0.17639,0.17639 0.176387,0.17639 h -0.352777 -0.352777 z m -2.459508,-0.48507 c 0.0011,-0.14552 0.2453,-0.56224 0.542872,-0.92604 l 0.541041,-0.66146 -0.273481,0.52917 c -0.150413,0.29104 -0.394706,0.70776 -0.542872,0.92604 l -0.269391,0.39688 0.0019,-0.26459 z m 1.312981,-1.45521 v -0.35277 l 0.17639,0.17638 0.176387,0.17639 -0.176387,0.17639 -0.17639,0.17639 z m -51.196874,-0.30145 c -0.873125,-0.123 -1.7363285,-0.28035 -1.9182296,-0.34966 l -0.3307291,-0.1261 v -0.43614 -0.43614 L 7.6771034,212.7363 6.6255317,211.71579 6.4889059,211.11362 c -0.2674213,-1.17864 -0.6861218,-4.06521 -0.8069345,-5.56311 l -0.122705,-1.52135 H 5.8210542 6.082842 v -0.39687 -0.39688 h 0.400465 c 0.2202559,0 0.6315597,-0.14432 0.9140088,-0.32071 l 0.5135438,-0.32072 0.1759251,0.17593 c 0.096759,0.0968 0.3156022,1.41491 0.4863185,2.92923 l 0.3103933,2.7533 0.466132,0.71141 0.4661318,0.71141 0.8455197,0.51554 0.84552,0.51555 1.720634,0.001 1.720634,0.001 1.810321,-0.51771 c 0.995676,-0.28474 1.947798,-0.62418 2.115825,-0.75431 0.168026,-0.13027 1.555659,-0.58191 3.083628,-1.00378 l 2.778125,-0.76705 4.365625,0.014 4.365625,0.014 2.116666,0.43448 c 3.020534,0.62 5.138045,0.97002 6.298714,1.04114 l 1.007046,0.0617 -0.149262,0.59472 c -0.0821,0.32709 -0.26443,0.89761 -0.405185,1.26784 l -0.255924,0.67311 h -0.366501 c -0.201575,0 -0.826391,0.31209 -1.388478,0.69353 -0.562086,0.38144 -1.14627,0.71178 -1.298191,0.73407 -0.151918,0.0223 -0.716418,0.3126 -1.254442,0.64512 -0.538023,0.33252 -1.190842,0.60908 -1.450708,0.61458 -0.259869,0.005 -1.136544,-0.0168 -1.948175,-0.0495 l -1.475687,-0.0595 -0.557437,0.29833 -0.55744,0.29833 -1.538748,-0.009 -1.538748,-0.009 -0.661458,-0.37812 -0.661459,-0.37813 -0.79375,-0.0134 c -0.436562,-0.007 -0.912812,-0.1009 -1.058333,-0.20781 -0.145521,-0.1069 -0.303726,-0.37297 -0.351567,-0.59125 -0.117421,-0.53576 -0.848833,-1.32292 -1.229226,-1.32292 -0.169485,0 -0.569158,-0.30018 -0.888162,-0.66706 l -0.580008,-0.66707 -0.815102,0.60092 -0.815102,0.60092 0.417239,0.0848 0.417238,0.0848 -0.543508,1.06536 -0.543509,1.06537 -0.137764,-0.13776 -0.137764,-0.13777 -1.140521,0.60642 -1.140521,0.60643 -0.621487,-0.0637 c -0.341817,-0.035 -1.097736,-0.0807 -1.679819,-0.10147 l -1.058334,-0.0378 0.396875,-0.25648 c 0.49367,-0.31904 0.23005,-0.3367 -0.578088,-0.0387 -0.336895,0.12422 -0.910193,0.2853 -1.273995,0.35798 l -0.661458,0.13212 z m 5.07118,-0.66869 -0.176389,-0.17638 -0.176389,0.17638 -0.176388,0.17639 h 0.352777 0.352778 z m 3.064757,-0.78563 c 0.400182,-0.20597 0.727604,-0.42264 0.727604,-0.48151 0,-0.0589 -0.386953,0.0128 -0.859896,0.15919 -0.472942,0.14642 -1.246849,0.38183 -1.719791,0.52313 l -0.859896,0.25692 v 0.23082 0.23082 l 0.992187,-0.27245 c 0.545704,-0.14984 1.31961,-0.44096 1.719792,-0.64692 z m 27.053646,-4.32964 -0.163521,-0.26459 h 0.412488 0.412491 v 0.26459 c 0,0.14552 -0.112035,0.26458 -0.248968,0.26458 -0.136932,0 -0.322553,-0.11906 -0.41249,-0.26458 z m -1.504818,-0.18074 0.347266,-0.13897 0.159853,0.15985 0.159851,0.15986 -0.507117,-0.0209 -0.507119,-0.0209 0.347266,-0.13896 z m 4.497917,-0.52917 0.347265,-0.13896 0.159854,0.15985 0.15985,0.15985 -0.507116,-0.0209 -0.507119,-0.0209 0.347266,-0.13896 z m 0.931553,-0.26023 0.176389,-0.17639 0.17639,0.17639 0.176387,0.17639 h -0.352777 -0.352776 z m 20.499697,-1.06269 0.347265,-0.13896 0.159854,0.15985 0.15985,0.15985 -0.507116,-0.0209 -0.507119,-0.0209 0.347266,-0.13897 z m -0.744141,-0.45241 c 0,-0.0572 0.184777,-0.17489 0.410617,-0.26155 l 0.410618,-0.15757 -0.16165,0.26155 c -0.155379,0.25141 -0.659585,0.37186 -0.659585,0.15757 z m 1.5875,-0.1606 -0.396875,-0.25648 0.447405,-0.004 c 0.246073,-0.002 0.520991,0.11501 0.610928,0.26053 l 0.163521,0.26458 -0.214051,-0.004 c -0.117729,-0.002 -0.392647,-0.11947 -0.610928,-0.26054 z m -52.525693,-9.24583 0.523266,-0.19606 -0.59488,-0.31837 -0.594879,-0.31837 -0.263431,0.16281 -0.263431,0.16281 0.175423,0.31244 0.175423,0.31245 -0.369545,-0.3638 -0.369544,-0.36381 0.330729,-0.12126 c 0.181901,-0.0667 0.330729,-0.23041 0.330729,-0.3638 v -0.24254 l -0.859896,-0.0264 -0.859896,-0.0264 0.661459,-0.18957 0.661458,-0.18958 0.926042,0.50873 c 1.115197,0.61264 1.5875,0.98103 1.5875,1.23822 v 0.19192 l -0.859896,0.0133 -0.859896,0.0133 0.523265,-0.19607 z m -8.445189,-0.66763 c 0.282475,-0.21365 0.685175,-0.39224 0.89489,-0.39687 l 0.381298,-0.008 -0.51359,0.38846 c -0.282475,0.21366 -0.685175,0.39225 -0.89489,0.39688 l -0.3812984,0.008 z m 1.439632,-0.50927 c 0,-0.0572 0.184778,-0.17489 0.410617,-0.26155 l 0.410617,-0.15757 -0.161648,0.26155 c -0.155379,0.25141 -0.659586,0.37186 -0.659586,0.15757 z m 1.058334,-0.42518 v -0.26459 l 0.727604,0.0186 0.727604,0.0186 -0.529167,0.22739 c -0.722677,0.31054 -0.926041,0.31054 -0.926041,0 z"
           id="path2469"
           inkscape:connector-curvature="0"
           sodipodi:nodetypes="ccccccccccccccccccccsscccccccscccccccccccccssssscccccccccccccscccccccccccccccccccccccccccccccssccccccsccccccccccccccccscccccccccsscccccccccccccccccccccccccccccccccccscccccccccccscccccccccccccccccccccccccscccccscccccccccccccscscccccccccccccccccccccccccccccsccssccccccccccsccccsccccscssccsscsscccccccscccccccccccssccccsscccsssccccccccccsssccccccccccccsccccccccscccccccccccccccccccccccccccccccccccccccccssccccccscccssccccccccccccccscccccccccccccccccccccsccccsccccccccccccccccccsccscscccccccscscccccccccsccccscsccccccccccccccccccsccccccsccccscccccccccccccccccccccscccsccscccccccccccccccccccccccccccsccccccccccccccccccscccccccccccccccccccccccccccccccccccccccccccccccccccccccccccsccccccccccccccccccsscccccscccscccccccscccccccccccsscsccccccccccccsccccccccccccccccccccccccccccscccccccccccssccccccccccccccccccccccccccccccccscccscccscccccccccccccccsccccccsccccccccccccscccssccccs" />
        <path
           style="fill:#ff00ff;stroke-width:0.26458335"
           d="m 21.580359,251.88737 0.179167,-0.2899 -0.496155,0.1546 -0.496154,0.15459 -0.286727,-0.19239 c -0.1577,-0.10582 -0.77009,-1.12051 -1.360866,-2.25487 l -1.074139,-2.06248 0.648309,0.42479 0.648309,0.42479 -0.418717,-0.80971 -0.418716,-0.80971 h 0.223702 0.223702 l 1.009309,2.12546 1.009309,2.12546 0.625661,0.49214 0.625661,0.49215 -0.410411,0.15749 -0.410412,0.15749 z m -0.850421,-1.01882 c -0.255239,-0.43208 -0.516224,-0.73346 -0.579965,-0.66971 -0.132458,0.13245 0.688251,1.45532 0.902885,1.45532 0.07763,0 -0.06768,-0.35352 -0.32292,-0.78561 z m 3.524208,0.62535 c 0.07786,-0.2029 0.254912,-0.3689 0.393452,-0.3689 h 0.25189 l -0.163521,-0.26459 c -0.08994,-0.14552 -0.282584,-0.26458 -0.428105,-0.26458 h -0.264583 l 0.163521,0.26458 0.163522,0.26459 h -0.41249 -0.41249 v -0.37483 -0.37483 l 0.330729,-0.1342 0.330729,-0.13419 -0.396875,-0.28068 -0.396875,-0.28067 0.396875,-0.006 0.396875,-0.006 -0.752731,-0.49628 -0.752732,-0.49628 0.259732,-0.16052 0.259731,-0.16052 0.32696,0.39396 0.326959,0.39396 h 0.619752 0.619753 l 0.290204,0.54225 0.290204,0.54225 -0.08246,0.69704 -0.08246,0.69704 -0.708566,0.18795 -0.708566,0.18794 0.141561,-0.3689 z m 1.779472,-0.93895 -0.188787,-0.30547 0.305464,0.18879 c 0.304999,0.1885 0.409486,0.42214 0.188787,0.42214 -0.06417,0 -0.201631,-0.13746 -0.305464,-0.30546 z m 29.076312,-1.31009 c -0.465778,-0.1347 -0.914205,-0.35386 -0.996503,-0.48702 l -0.149633,-0.24211 0.246695,-0.15247 0.246698,-0.15247 0.749805,0.30921 c 0.412396,0.17006 0.82781,0.29373 0.923147,0.27484 0.09534,-0.0189 0.24043,0.14047 0.322427,0.35415 l 0.149085,0.38851 -0.322424,-0.0239 c -0.177335,-0.0131 -0.70352,-0.13407 -1.169297,-0.26877 z m 1.861105,-0.0854 v -0.32755 h 0.35278 c 0.194027,0 0.352777,0.0865 0.352777,0.19218 0,0.1057 -0.15875,0.25309 -0.352777,0.32755 l -0.35278,0.13537 z M 22.222425,247.95 v -0.35278 l 0.176389,0.17639 0.176389,0.17639 -0.176389,0.17639 -0.176389,0.17638 z m 30.740657,-0.2156 c -0.288348,-0.28835 -0.845365,-1.07217 -1.237813,-1.74184 -0.392449,-0.66966 -0.801447,-1.21756 -0.908889,-1.21756 -0.10744,0 -0.198893,-0.14883 -0.203232,-0.33073 -0.0043,-0.18191 -0.325329,-1.01534 -0.713311,-1.85209 l -0.705422,-1.52135 h -0.22597 c -0.124283,0 -0.297442,-0.20836 -0.384794,-0.46302 -0.08736,-0.25466 -0.281138,-0.76068 -0.430628,-1.12448 l -0.271804,-0.66146 0.52042,0.66146 c 0.286231,0.3638 1.19716,1.91161 2.024285,3.43958 1.441185,2.66235 2.588503,4.42116 3.140458,4.81426 l 0.258427,0.18405 -0.168728,0.16873 -0.168724,0.16873 z m 3.837866,0.0959 c -0.225211,-0.22521 -0.507278,-0.4104 -0.626811,-0.41154 -0.119536,-0.001 -0.363636,-0.31717 -0.542446,-0.70229 l -0.32511,-0.70024 0.710044,0.63615 c 1.367581,1.22526 1.457386,1.32381 1.326089,1.45511 -0.07276,0.0728 -0.316555,-0.052 -0.541766,-0.27719 z m -41.104912,-0.58586 0.176389,-0.17639 0.176389,0.17639 0.176389,0.17639 h -0.352778 -0.352777 z m 0.863401,-0.39412 0.158576,-0.25659 -0.474105,-0.52388 -0.474106,-0.52388 0.427729,0.16414 c 0.235252,0.0903 0.495626,0.34107 0.57861,0.55732 l 0.15088,0.39319 0.266452,-0.16468 0.266452,-0.16467 v 0.24933 0.24935 l -0.529532,0.13847 -0.529531,0.13848 z m -2.043677,-0.95085 -0.363126,-0.46302 0.46302,0.36313 c 0.254662,0.19972 0.463021,0.40808 0.463021,0.46302 0,0.21776 -0.217272,0.0776 -0.562915,-0.36313 z m 3.715867,0.39688 c -0.01213,-0.0364 -0.0563,-0.30427 -0.09815,-0.59531 -0.04186,-0.29104 -0.169968,-0.76729 -0.284691,-1.05834 -0.369875,-0.93834 0.109339,-0.27104 0.532276,0.7412 l 0.408884,0.9786 h -0.268134 c -0.147473,0 -0.278056,-0.0298 -0.290182,-0.0662 z m 28.332465,-0.12671 c -0.218281,-0.0831 -0.456406,-0.23567 -0.529167,-0.33907 -0.07276,-0.10339 -0.50319,-0.37795 -0.956508,-0.61012 l -0.824214,-0.42214 -0.176747,-1.10532 c -0.09721,-0.60792 -0.125087,-1.15697 -0.06195,-1.22011 0.06314,-0.0631 0.198144,0.37852 0.300011,0.98147 l 0.185211,1.09625 0.833244,0.50809 c 0.458285,0.27944 1.048631,0.50852 1.311881,0.50907 l 0.478634,0.001 -0.188785,-0.30546 -0.188788,-0.30546 0.304469,0.18817 c 0.167457,0.10349 0.559152,0.23722 0.870431,0.29716 0.311277,0.06 0.639149,0.18384 0.728599,0.27532 l 0.162637,0.16625 -0.661458,-0.055 c -0.363802,-0.0303 -0.840052,-0.04 -1.058334,-0.0217 l -0.396875,0.0333 0.396875,0.25648 0.396875,0.25648 -0.264583,-0.0168 c -0.145521,-0.009 -0.443177,-0.0848 -0.661458,-0.16791 z m -25.039153,-0.73167 -0.151713,-0.39535 -0.236858,0.14638 -0.236859,0.14639 v -0.26458 c 0,-0.14552 0.101652,-0.32741 0.225893,-0.4042 l 0.225894,-0.13961 0.297601,0.65317 c 0.16368,0.35924 0.236885,0.65316 0.162677,0.65316 -0.07421,0 -0.203194,-0.17791 -0.286635,-0.39536 z m -7.662154,-0.43927 -0.188787,-0.30547 0.305464,0.18879 c 0.304999,0.1885 0.409486,0.42214 0.188787,0.42214 -0.06417,0 -0.201631,-0.13746 -0.305464,-0.30546 z m 34.421098,0.0409 -0.529166,-0.22739 0.705964,-0.0186 c 0.388281,-0.0102 0.924062,-0.10123 1.190625,-0.20223 l 0.484661,-0.18364 -0.444122,0.44822 c -0.244269,0.24652 -0.541925,0.43985 -0.661458,0.42962 -0.119536,-0.0102 -0.455462,-0.12092 -0.746504,-0.24598 z m 5.795569,-0.30547 -0.188788,-0.30546 0.305464,0.18879 c 0.304998,0.1885 0.409487,0.42214 0.188788,0.42214 -0.06417,0 -0.201631,-0.13746 -0.305464,-0.30547 z m -40.588277,-1.01745 c 0,-0.14552 0.12609,-0.26458 0.280199,-0.26458 h 0.280198 l -0.163522,0.26458 c -0.08994,0.14552 -0.216026,0.26459 -0.280198,0.26459 -0.06417,0 -0.116677,-0.11907 -0.116677,-0.26459 z m 34.87352,0.085 -0.448357,-0.11818 0.126198,-0.32887 0.126198,-0.32887 -0.862057,-0.38216 -0.86206,-0.38216 -0.170249,-0.85412 -0.170252,-0.85414 0.229989,0.14214 0.229987,0.14214 v 0.64585 0.64584 h 0.641157 0.641159 l 0.814049,0.68498 c 0.447728,0.37674 0.814051,0.79346 0.814051,0.92604 v 0.24107 l -0.330729,-0.0307 c -0.181901,-0.0169 -0.53249,-0.0839 -0.779084,-0.14886 z m 4.656423,-0.39049 -0.188788,-0.30547 0.305464,0.18879 c 0.304999,0.1885 0.409488,0.42214 0.188788,0.42214 -0.06417,0 -0.201631,-0.13746 -0.305464,-0.30546 z m -36.232351,-1.21922 c -0.703164,-1.38674 -0.918295,-1.9149 -0.779981,-1.9149 0.178123,0 1.503273,2.68189 1.384056,2.80111 -0.05646,0.0565 -0.328297,-0.34233 -0.604075,-0.88621 z m 35.483035,0.0616 -0.449384,-0.68585 0.128074,-0.3146 0.128075,-0.31459 0.02088,0.37604 c 0.01148,0.20682 0.218596,0.5945 0.46024,0.86152 l 0.439349,0.48547 -0.138927,0.13893 -0.138925,0.13893 -0.449387,-0.68585 z m -8.717732,-0.53152 c -0.09074,-0.23646 -0.157432,-0.56902 -0.148206,-0.73902 l 0.01677,-0.30909 0.253498,0.63373 c 0.139422,0.34855 0.206115,0.6811 0.148206,0.73901 -0.05791,0.0579 -0.17953,-0.0882 -0.270267,-0.32463 z M 19.576592,241.6 v -0.35278 l 0.176389,0.17639 0.176389,0.17639 -0.176389,0.17638 -0.176389,0.17639 z m -0.222807,-1.05834 v -0.66146 l 0.133452,0.33073 c 0.0734,0.1819 0.0734,0.47956 0,0.66146 l -0.133452,0.33073 z m 26.336462,-0.46302 c -0.06123,-0.10914 -0.192974,-0.55562 -0.292764,-0.99219 -0.09979,-0.43656 -0.243337,-1.00211 -0.318995,-1.25677 l -0.137557,-0.46302 h 0.25373 0.25373 l 0.19539,0.72761 c 0.206817,0.77016 0.356915,2.18281 0.231931,2.18281 -0.04078,0 -0.124238,-0.0893 -0.185465,-0.19844 z m -3.087502,-0.97272 c -0.149593,-0.39345 -0.271987,-0.76715 -0.271987,-0.83044 0,-0.0633 0.105183,-0.11507 0.233739,-0.11507 h 0.233741 l 0.139771,0.72761 c 0.07688,0.40018 0.09409,0.77388 0.03824,0.83044 -0.05584,0.0566 -0.223916,-0.21908 -0.373509,-0.61254 z m 8.301707,0.0719 -0.188788,-0.30546 0.305464,0.18879 c 0.168005,0.10383 0.305464,0.24129 0.305464,0.30546 0,0.2207 -0.233641,0.11621 -0.42214,-0.18879 z m -31.707724,-0.67531 -0.180654,-0.47443 0.328766,0.32632 0.328766,0.32632 -0.148113,0.14811 -0.148112,0.14811 z m 28.128041,0.33494 c -0.01818,-0.0814 -0.04796,-0.26185 -0.06615,-0.4011 -0.01818,-0.13926 -0.271198,-0.43313 -0.56224,-0.65305 l -0.529166,-0.39985 0.264583,-0.0102 0.264583,-0.0102 -0.749448,-0.49412 c -0.412197,-0.27177 -0.731753,-0.5778 -0.710123,-0.68006 0.02162,-0.10226 -0.252942,-0.44467 -0.610155,-0.7609 l -0.649476,-0.57497 -0.169219,-1.71979 -0.16922,-1.71979 0.248166,-0.84102 0.248169,-0.84102 -0.25,-1.14336 -0.249999,-1.14335 -0.539171,-0.79375 -0.539171,-0.79375 0.671701,0.73182 0.671697,0.73182 0.27889,1.03572 0.278889,1.03571 -0.262059,1.16936 -0.262059,1.16936 0.156474,1.42873 0.156478,1.42873 1.505164,1.5875 c 0.827841,0.87312 1.652683,1.78526 1.83298,2.02696 l 0.327814,0.43947 -0.277432,0.17146 -0.277431,0.17146 z m -32.783111,-0.95633 c -0.160078,-0.29911 -0.251846,-0.66145 -0.203929,-0.8052 l 0.08712,-0.26137 0.303929,0.8052 c 0.167161,0.44286 0.25893,0.80521 0.20393,0.80521 -0.055,0 -0.230973,-0.24473 -0.391052,-0.54384 z m 27.656809,-0.24992 c 0.08994,-0.14552 0.216027,-0.26458 0.280199,-0.26458 0.06417,0 0.116676,0.11906 0.116676,0.26458 0,0.14553 -0.12609,0.26459 -0.280199,0.26459 h -0.280197 z m -0.264584,-0.79375 c 0.08994,-0.14552 0.216027,-0.26458 0.2802,-0.26458 0.06417,0 0.116675,0.11906 0.116675,0.26458 0,0.14553 -0.126089,0.26459 -0.280199,0.26459 h -0.280196 z m 7.805209,-1.05833 v -0.35278 l 0.17639,0.17639 0.176387,0.17639 -0.176387,0.17639 -0.17639,0.17639 z m -38.629167,-0.26458 v -0.35278 l 0.176389,0.17639 0.176389,0.17639 -0.176389,0.17639 -0.176389,0.17639 z m 3.96875,0.18321 c 0,-0.0854 0.297656,-0.71503 0.661459,-1.39924 l 0.661458,-1.24404 v 0.42454 c 0,0.23349 -0.297656,0.86315 -0.661458,1.39924 -0.363803,0.53609 -0.661459,0.90487 -0.661459,0.8195 z m 4.233334,-0.5957 v -0.41249 l 0.264583,0.16352 c 0.145521,0.0899 0.264583,0.27556 0.264583,0.41249 0,0.13693 -0.119062,0.24897 -0.264583,0.24897 h -0.264583 z m 22.081828,0.1303 c -0.09592,-0.1552 -0.117655,-0.33893 -0.0483,-0.40828 0.06935,-0.0694 0.196602,0.0576 0.282774,0.28218 0.178906,0.46623 0.02643,0.54823 -0.234474,0.1261 z m 4.385813,-0.49417 c -0.150641,-0.28147 -0.261705,-0.78749 -0.246809,-1.12448 l 0.02708,-0.6127 0.195278,0.81684 c 0.107405,0.44927 0.280837,0.95528 0.385408,1.12448 0.104572,0.1692 0.12776,0.30763 0.05153,0.30763 -0.07623,0 -0.261851,-0.23029 -0.412491,-0.51177 z m -34.934308,-0.0174 V 234.368 l 0.176389,0.17639 0.176389,0.17639 -0.176389,0.17639 -0.176389,0.17639 z m 8.995833,-0.79375 c 0.155761,-0.29104 0.342733,-0.52917 0.415493,-0.52917 0.07276,0 0.0048,0.23813 -0.150909,0.52917 -0.155761,0.29104 -0.342733,0.52916 -0.415494,0.52916 -0.07276,0 -0.0048,-0.23812 0.15091,-0.52916 z m 29.694717,-0.26459 v -0.92604 l 0.121002,0.46302 c 0.06655,0.25467 0.06655,0.67138 0,0.92605 l -0.121002,0.46302 z m -34.986383,0.38558 c 0,-0.0857 0.123251,-0.38608 0.273892,-0.66755 l 0.273892,-0.51178 h 0.387566 0.387566 v 0.23416 c 0,0.12878 -0.297656,0.42918 -0.661458,0.66756 -0.363802,0.23837 -0.661458,0.3633 -0.661458,0.27761 z m -3.439584,-0.65016 v -0.35278 l 0.176389,0.17639 0.176389,0.17639 -0.176389,0.17639 -0.176389,0.17639 z m 10.518317,-3.51607 c 0.198639,-1.04934 0.383826,-2.14601 0.411527,-2.43705 l 0.05036,-0.52917 -0.529167,0.0429 c -0.291042,0.0236 -0.767292,0.11447 -1.058333,0.20188 l -0.529167,0.15894 -0.350205,-0.22953 -0.350204,-0.22953 -0.237742,-1.05811 -0.237742,-1.05812 0.256031,-0.89273 0.256032,-0.89273 1.456394,-1.34464 1.456394,-1.34465 v -1.4645 -1.4645 l 0.483855,-0.43788 0.483854,-0.43788 0.508333,10e-4 0.508333,0.001 0.832218,0.50746 0.832218,0.50746 0.15098,1.27749 c 0.08304,0.70248 0.228821,2.17032 0.323961,3.26173 l 0.17298,1.98437 0.29903,0.21858 0.29903,0.21858 -0.396875,-0.11668 -0.396875,-0.11668 -0.443992,0.22796 -0.443992,0.22795 -0.407933,1.40324 -0.407932,1.40324 -1.292869,1.84098 c -0.711078,1.01254 -1.465399,1.98416 -1.676268,2.15917 l -0.3834,0.31819 z m 27.846266,1.3994 v -0.35277 l 0.17639,0.17639 0.176387,0.17638 -0.176387,0.17639 -0.17639,0.17639 z m 0.529167,-0.26458 v -0.35278 l 0.17639,0.17639 0.176387,0.17639 -0.176387,0.17639 -0.17639,0.17639 z m -10.186458,-0.26458 -0.163521,-0.26459 h 0.280197 c 0.154109,0 0.280199,0.11907 0.280199,0.26459 0,0.14552 -0.0525,0.26458 -0.116676,0.26458 -0.06417,0 -0.190262,-0.11906 -0.280199,-0.26458 z m -19.182292,-0.26459 v -0.35277 l 0.176389,0.17639 0.176389,0.17638 -0.176389,0.17639 -0.176389,0.17639 z m 28.525391,0.0838 0.347265,-0.13897 0.159854,0.15985 0.15985,0.15986 -0.507116,-0.0209 -0.507119,-0.0209 0.347266,-0.13897 z m -1.668309,-0.3454 -0.16165,-0.26155 0.410617,0.15757 c 0.45837,0.17589 0.542235,0.36553 0.16165,0.36553 -0.136932,0 -0.321712,-0.1177 -0.410617,-0.26155 z m 1.234546,-1.03186 c -1.093859,-1.18202 -1.269024,-1.44838 -1.464392,-2.22679 l -0.181788,-0.7243 0.697355,-0.69735 0.697354,-0.69735 -0.310187,-1.03531 -0.310184,-1.0353 -0.916729,-0.54089 c -0.504203,-0.29748 -1.03229,-0.7568 -1.173527,-1.02071 l -0.256799,-0.47984 0.139641,-0.36389 c 0.0768,-0.20014 0.492019,-0.57205 0.922703,-0.82647 l 0.783063,-0.46256 0.907794,0.43077 0.907793,0.43078 0.500409,-0.26781 0.500409,-0.26781 0.320006,-1.38635 c 0.176003,-0.76248 0.450935,-1.5441 0.61096,-1.73691 l 0.290952,-0.35058 h 0.893643 c 0.491506,0 0.893646,-0.0654 0.893646,-0.14543 0,-0.3053 -0.881092,-1.84788 -1.161396,-2.03333 l -0.293812,-0.19438 0.480851,-0.004 0.480851,-0.004 -0.185783,-0.59531 c -0.102182,-0.32743 -0.304051,-0.6713 -0.448603,-0.76417 l -0.262819,-0.16886 0.207068,-0.33504 0.207071,-0.33505 -0.305464,0.18879 -0.305464,0.18878 -0.03135,-1.14009 c -0.01725,-0.62705 -0.01201,-1.28892 0.01159,-1.47082 l 0.04295,-0.33073 h -0.323834 -0.323837 l 0.889058,-0.79375 0.889059,-0.79375 h 0.727196 0.727197 l 0.360802,-0.33073 c 0.516289,-0.47326 1.325856,-0.98344 1.835348,-1.15662 l 0.438558,-0.14907 0.132908,-0.50825 0.132908,-0.50824 1.016034,-0.4236 c 0.558816,-0.23299 1.335842,-0.6508 1.726721,-0.92848 l 0.71069,-0.50487 2.390505,-0.78778 2.39051,-0.78779 h 1.562849 1.562849 l 1.024501,0.42763 c 0.563472,0.2352 1.474769,0.78399 2.0251,1.21953 l 1.000601,0.79189 -0.30389,0.36616 -0.303887,0.36617 -1.041318,-0.16652 -1.041318,-0.16651 -0.82283,0.84161 -0.822828,0.84161 -0.37556,-0.14412 c -0.206558,-0.0793 -0.514649,-0.14594 -0.684649,-0.14816 l -0.309089,-0.004 0.331382,-0.21041 0.331383,-0.2104 -0.769572,-0.7373 -0.769573,-0.7373 -0.52543,0.16677 -0.525431,0.16676 -0.120978,0.46262 -0.120978,0.46262 0.854911,-0.0998 0.854911,-0.0998 0.144981,0.23459 0.144984,0.23458 -0.904799,-0.10563 -0.904798,-0.10563 -0.170392,0.44404 -0.170391,0.44403 0.596413,1.8997 c 0.328028,1.04484 0.654574,2.2233 0.725657,2.6188 l 0.129241,0.7191 0.368093,0.30549 0.368094,0.30549 -0.004,0.6952 -0.004,0.69521 -0.236051,-0.37288 -0.236053,-0.37288 0.126947,-0.33082 0.126947,-0.33082 -0.538308,-0.17085 -0.538305,-0.17085 -0.567473,0.3037 -0.567474,0.3037 -0.897731,-0.87011 c -0.493757,-0.47857 -0.897736,-1.00371 -0.897736,-1.16699 0,-0.3713 -1.626325,-2.50974 -1.908704,-2.50974 h -0.207963 v 0.61736 c 0,0.33955 -0.08215,0.69952 -0.182562,0.79993 l -0.182563,0.18256 0.06989,1.31674 0.06989,1.31674 h -0.284199 -0.2842 l -0.0019,-0.7276 -0.0019,-0.7276 -0.940086,-0.64029 -0.940088,-0.64028 -0.822749,-1.14565 c -0.452511,-0.63011 -0.891862,-1.14384 -0.976333,-1.14161 -0.08447,0.002 -0.317667,0.10798 -0.518213,0.235 l -0.364625,0.23095 0.175392,0.2838 c 0.09647,0.15608 0.231474,1.13366 0.300019,2.1724 l 0.124624,1.88861 0.671589,1.94577 c 0.369375,1.07018 0.965161,2.47103 1.323967,3.113 0.358807,0.64198 0.975884,1.51079 1.37128,1.93068 l 0.718905,0.76345 0.0061,0.70234 0.0061,0.70234 -0.197313,-0.12195 -0.197311,-0.12195 -0.318341,0.69869 -0.318341,0.69868 -0.734703,-0.10783 -0.734703,-0.10783 0.259011,0.31209 0.259011,0.31209 -1.389904,0.93896 c -0.76445,0.51643 -2.144426,1.68482 -3.066618,2.59644 l -1.676713,1.65748 -0.79594,1.41033 -0.795941,1.41033 h -0.259678 c -0.142825,0 -0.577943,-0.34392 -0.96693,-0.76425 z m 7.891705,-8.61284 c 0,-0.0642 -0.137459,-0.20164 -0.305464,-0.30547 l -0.305464,-0.18879 0.188788,0.30547 c 0.1885,0.305 0.42214,0.40948 0.42214,0.18879 z m -6.085416,9.20717 c 0,-0.14196 0.18516,-0.48923 0.411472,-0.7717 l 0.411469,-0.51359 -0.315018,0.66146 c -0.385712,0.8099 -0.507923,0.96 -0.507923,0.62383 z m -30.002175,-0.84818 -0.501134,-0.70169 0.618726,0.58796 c 0.3403,0.32338 0.56581,0.63914 0.501134,0.70169 -0.06468,0.0626 -0.343103,-0.20203 -0.618726,-0.58796 z m 19.154258,0.48893 v -0.35278 l 0.17639,0.17639 0.176387,0.17639 -0.176387,0.17639 -0.17639,0.17639 z m 0.58488,-0.42356 -0.341159,-0.37019 h 0.2594 c 0.274754,0 0.672497,0.50329 0.515562,0.65238 -0.05095,0.0484 -0.246163,-0.0786 -0.433803,-0.28219 z m 1.201058,-0.0162 c 0.181901,-0.0734 0.479557,-0.0734 0.661458,0 l 0.330729,0.13345 h -0.661458 -0.661459 z m 1.322916,0 c 0.181901,-0.0734 0.479558,-0.0734 0.661459,0 l 0.330729,0.13345 H 43.124508 42.46305 Z m 3.348173,-0.39482 -0.188788,-0.30547 0.305464,0.18879 c 0.304998,0.1885 0.409487,0.42214 0.188788,0.42214 -0.06417,0 -0.201631,-0.13746 -0.305464,-0.30546 z m 5.450488,-0.30751 c -7.94e-4,-0.11886 0.414422,-0.65464 0.922483,-1.19063 0.508061,-0.53599 0.924779,-0.89185 0.926041,-0.79081 0.0013,0.10104 -0.413855,0.63682 -0.922483,1.19062 -0.508627,0.55381 -0.925345,0.90967 -0.926041,0.79082 z m -5.801209,-0.5997 0.02087,-0.50712 0.138965,0.34726 0.138964,0.34727 -0.15985,0.15985 -0.159854,0.15985 0.02088,-0.50711 z m -27.695113,-0.15113 -0.188787,-0.30546 0.305464,0.18879 c 0.304999,0.18849 0.409486,0.42213 0.188787,0.42213 -0.06417,0 -0.201631,-0.13746 -0.305464,-0.30546 z m -2.731971,-0.37804 0.02089,-0.50712 0.138965,0.34727 0.138964,0.34726 -0.159852,0.15986 -0.159853,0.15984 0.02089,-0.50711 z m -0.264584,-1.32292 0.02089,-0.50712 0.138964,0.34727 0.138965,0.34727 -0.159853,0.15985 -0.159853,0.15984 0.02089,-0.50711 z m 38.608279,0.15434 v -0.35278 l 0.17639,0.17639 0.176387,0.17639 -0.176387,0.17639 -0.17639,0.17638 z m -35.697862,-0.68351 0.02089,-0.50712 0.138964,0.34727 0.138964,0.34726 -0.159852,0.15986 -0.159853,0.15985 0.02089,-0.50712 z m 13.561055,-0.022 0.17639,-0.17639 0.17639,0.17639 0.176387,0.17638 h -0.352777 -0.352777 l 0.176387,-0.17639 z m -16.736055,-0.50711 0.02089,-0.50712 0.138964,0.34726 0.138964,0.34727 -0.159852,0.15985 -0.159853,0.15984 0.02089,-0.50711 z m 24.75487,-0.95965 c -0.08926,-0.3332 -0.14881,-1.1416 -0.132345,-1.79644 l 0.02994,-1.19063 0.220932,1.70785 c 0.22647,1.75067 0.170265,2.35728 -0.118525,1.27921 z m -24.978957,-0.47353 v -0.92604 l 0.121,0.46302 c 0.06655,0.25467 0.06655,0.67138 0,0.92605 l -0.121,0.46302 z m 31.18601,0.18641 -0.350282,-0.58328 0.47684,0.45672 c 0.262263,0.2512 0.419889,0.51367 0.350282,0.58328 -0.06961,0.0696 -0.284183,-0.13592 -0.47684,-0.45672 z m -8.327567,-1.18021 c -0.207402,-0.40107 -0.450728,-1.20474 -0.540726,-1.78593 -0.09,-0.5812 -0.235464,-1.47344 -0.323252,-1.98277 l -0.159615,-0.92604 0.267319,0.26459 0.267319,0.26458 0.130177,1.45521 0.130181,1.45521 0.414843,0.99218 c 0.228163,0.54571 0.364442,0.99219 0.302844,0.99219 -0.0616,0 -0.281688,-0.32815 -0.48909,-0.72922 z m 7.349826,-0.13067 -0.504029,-0.59532 0.595313,0.50403 c 0.559446,0.47366 0.715761,0.6866 0.504029,0.6866 -0.05021,0 -0.318098,-0.26789 -0.595313,-0.59531 z m -26.83007,0.0661 v -0.35278 l 0.176389,0.17639 0.176389,0.17639 -0.176389,0.17639 -0.176389,0.17639 z m -3.624881,-1.5875 v -1.45521 l 0.110223,0.72761 c 0.06062,0.40018 0.06062,1.05502 0,1.45521 l -0.110223,0.7276 z m 12.927074,0.79375 v -0.66146 l 0.133452,0.33073 c 0.0734,0.1819 0.0734,0.47956 0,0.66146 l -0.133452,0.33073 z m -9.03761,0.0765 c 0,-0.15195 0.20836,-0.43969 0.463021,-0.63941 l 0.463021,-0.36312 -0.388152,0.52917 c -0.213484,0.29104 -0.421844,0.57877 -0.463021,0.63941 -0.04118,0.0606 -0.07487,-0.0141 -0.07487,-0.16605 z m 13.830395,-1.66399 v -1.19062 l 0.114663,0.59531 c 0.06307,0.32742 0.06307,0.8632 0,1.19062 l -0.114663,0.59532 z m -4.569978,0.29581 c 0,-0.14552 0.119062,-0.33816 0.264583,-0.4281 l 0.264584,-0.16352 v 0.26458 c 0,0.14552 -0.119063,0.33817 -0.264584,0.42811 l -0.264583,0.16352 z m -15.610417,-0.56039 v -0.35278 l 0.176389,0.17639 0.176389,0.17639 -0.176389,0.17639 -0.176389,0.17638 z m 15.875,-0.52917 v -0.35278 l 0.176389,0.17639 0.176389,0.17639 -0.176389,0.17639 -0.176389,0.17639 z m -13.49375,-0.26458 V 218.493 l 0.176389,0.17639 0.176389,0.17639 -0.176389,0.17639 -0.176389,0.17638 z m 30.823958,0 c 0.08994,-0.14552 0.223052,-0.26459 0.295813,-0.26459 0.07276,0 0.05871,0.11907 -0.03123,0.26459 -0.08994,0.14552 -0.223052,0.26458 -0.295812,0.26458 -0.07276,0 -0.05871,-0.11906 0.03123,-0.26458 z M 35.046134,217.9976 c 0.204189,-1.0075 0.6624,-2.15802 0.803333,-2.01709 0.06517,0.0652 -0.121568,0.70676 -0.41497,1.42576 l -0.533461,1.30727 z m -7.689599,0.0136 -0.188787,-0.30546 0.305464,0.18878 c 0.168004,0.10383 0.305463,0.24129 0.305463,0.30547 0,0.22069 -0.23364,0.11621 -0.42214,-0.18879 z M 48.0193,217.78749 c 0.08994,-0.14552 0.223052,-0.26458 0.295812,-0.26458 0.07276,0 0.05871,0.11906 -0.03123,0.26458 -0.08994,0.14553 -0.223051,0.26459 -0.295812,0.26459 -0.07276,0 -0.05871,-0.11906 0.03123,-0.26459 z m -35.719697,-0.66145 c 0.109815,-0.43657 0.204562,-0.93735 0.210549,-1.11284 l 0.01089,-0.31909 0.221457,0.13686 0.221457,0.13687 -0.167422,0.71139 c -0.09208,0.39126 -0.286486,0.83045 -0.432007,0.97597 l -0.264583,0.26459 z m 14.685322,0.13229 v -0.35278 l 0.176389,0.17639 0.176389,0.17639 -0.176389,0.17639 -0.176389,0.17638 z m 36.33611,0.0882 0.17639,-0.17639 0.17639,0.17639 0.176387,0.17639 h -0.352777 -0.352777 z m -1.807985,-1.67569 c 0.08994,-0.14552 0.223052,-0.26459 0.295812,-0.26459 0.07276,0 0.05871,0.11907 -0.03123,0.26459 -0.08994,0.14552 -0.223051,0.26458 -0.295812,0.26458 -0.07276,0 -0.05871,-0.11906 0.03123,-0.26458 z m -35.300987,-0.30242 -0.02089,-0.43472 -0.441118,-0.16927 -0.441118,-0.16927 0.280723,-0.28072 0.280722,-0.28073 0.491125,0.12642 0.491125,0.12641 -0.645883,0.0307 -0.645882,0.0307 0.483851,0.3538 0.483852,0.3538 -0.14781,0.37381 -0.14781,0.3738 -0.02089,-0.43471 z m 35.962445,0.0378 v -0.35277 l 0.17639,0.17638 0.176387,0.17639 -0.176387,0.17639 -0.17639,0.17639 z M 11.374509,215.1096 c -1.4025527,-0.26561 -2.6458337,-0.74571 -2.6458337,-1.0217 v -0.1958 l 0.6386398,0.12209 0.6386399,0.12208 1.175921,-1.08392 1.17592,-1.08393 0.831273,-0.16625 0.831273,-0.16626 0.0015,-0.29765 0.0015,-0.29766 2.04901,-0.48964 c 1.126961,-0.2693 2.346672,-0.6542 2.710474,-0.85531 0.363802,-0.20112 1.792552,-0.69268 3.175,-1.09235 l 2.513542,-0.72668 4.497916,0.009 4.497917,0.009 3.042708,0.59235 c 1.67349,0.32579 3.354062,0.6524 3.734604,0.72579 l 0.691894,0.13343 -0.318728,0.92713 c -0.175302,0.50991 -0.507235,1.11562 -0.737632,1.34602 l -0.418904,0.4189 -1.374531,0.21729 -1.374532,0.21728 -1.184227,0.77033 -1.18423,0.77033 -1.068488,-0.27121 -1.068489,-0.27121 -1.295267,0.33197 -1.295267,0.33197 -0.437635,-0.35706 c -0.240699,-0.19638 -0.708245,-0.62495 -1.038991,-0.95237 l -0.601357,-0.59531 H 27.09267 26.647211 l -1.148156,-1.05833 -1.148156,-1.05834 H 22.798495 21.24609 l -0.437882,0.48386 c -0.240835,0.26614 -0.437882,0.6163 -0.437882,0.77816 0,0.16185 -0.144784,0.38376 -0.321743,0.49313 -0.176958,0.10936 -0.729548,0.26522 -1.227977,0.34634 l -0.906235,0.1475 -0.293377,0.51361 c -0.161357,0.28249 -0.534884,0.76753 -0.83006,1.07788 l -0.536683,0.56426 -0.323392,-0.1078 -0.323393,-0.1078 0.160779,0.41899 0.160779,0.41898 -0.62362,-0.004 -0.62362,-0.004 0.396875,-0.25648 c 0.49367,-0.31904 0.23005,-0.3367 -0.578088,-0.0387 -0.336895,0.12422 -0.910193,0.28681 -1.273995,0.36131 l -0.661458,0.13546 z m 5.644444,0.12023 0.176389,-0.17638 0.176389,0.17638 0.176389,0.17639 h -0.352778 -0.352778 z m 11.288889,-0.36486 -0.396875,-0.26857 0.79375,0.17755 c 0.436562,0.0977 0.843359,0.22033 0.903993,0.27262 0.06063,0.0523 -0.11796,0.0932 -0.396875,0.091 -0.278915,-0.002 -0.685712,-0.12491 -0.903993,-0.27262 z m -9.260417,-0.2525 c 0,-0.14552 0.12609,-0.26458 0.280198,-0.26458 h 0.280199 l -0.163522,0.26458 c -0.08994,0.14553 -0.216026,0.26459 -0.280198,0.26459 -0.06417,0 -0.116677,-0.11906 -0.116677,-0.26459 z m 14.11111,-0.17639 0.17639,-0.17638 0.17639,0.17638 0.176387,0.17639 h -0.352777 -0.352777 z m 0.79375,0 0.17639,-0.17638 0.17639,0.17638 0.176387,0.17639 h -0.352777 -0.352777 z m 2.866322,-0.17638 c 0.181247,-0.19403 0.499353,-0.35278 0.706897,-0.35278 h 0.377352 l -0.482452,0.35278 c -0.265348,0.19402 -0.583451,0.35277 -0.706898,0.35277 h -0.224443 z m -19.005904,-0.0882 0.176389,-0.17639 0.176389,0.17639 0.176389,0.17639 h -0.352778 -0.352778 z m 2.689931,-0.0882 c 0.08994,-0.14552 0.223052,-0.26459 0.295813,-0.26459 0.07276,0 0.05871,0.11907 -0.03123,0.26459 -0.08994,0.14552 -0.223053,0.26458 -0.295813,0.26458 -0.07276,0 -0.05871,-0.11906 0.03123,-0.26458 z m 45.99651,-0.40829 c -0.08617,-0.22456 -0.09756,-0.4674 -0.02529,-0.53966 0.07225,-0.0723 0.194881,0.11147 0.2725,0.40829 0.164875,0.63048 -0.01831,0.72784 -0.247201,0.13137 z m -47.080109,-0.42634 -0.188787,-0.30547 0.305464,0.18879 c 0.304999,0.1885 0.409486,0.42214 0.188786,0.42214 -0.06417,0 -0.20163,-0.13746 -0.305463,-0.30546 z m 20.001307,-0.059 c 0,-0.0549 0.208359,-0.2633 0.463021,-0.46302 l 0.46302,-0.36312 -0.363124,0.46302 c -0.345644,0.44073 -0.562917,0.58088 -0.562917,0.36312 z M 7.5270103,212.55609 c -0.2971136,-0.25143 -0.6781594,-0.75479 -0.8467685,-1.1186 -0.3277,-0.70706 -0.7992633,-3.46507 -0.9879691,-5.77828 l -0.1152412,-1.41266 0.4513427,-0.44753 c 0.5329588,-0.52846 1.857291,-1.23023 2.0181137,-1.06941 0.061798,0.0618 0.1923643,1.12362 0.2901476,2.3596 l 0.1777876,2.24724 0.6184747,1.38212 0.6184746,1.38211 0.8204336,0.49894 0.820433,0.49894 -1.210159,0.16586 c -0.6655875,0.0912 -1.4547036,0.29675 -1.7535914,0.45671 l -0.5434325,0.29084 0.132456,0.50651 c 0.072851,0.27858 0.1138372,0.50387 0.09108,0.50063 -0.022757,-0.003 -0.2844686,-0.2116 -0.5815818,-0.46302 z m 13.6370817,0.072 v -0.39688 h 0.256279 0.25628 l -0.152296,0.39688 c -0.08376,0.21828 -0.199088,0.39687 -0.256279,0.39687 -0.05719,0 -0.103984,-0.17859 -0.103984,-0.39687 z m 3.405834,-0.0661 -0.363126,-0.46302 0.463021,0.36313 c 0.254661,0.19972 0.463021,0.40808 0.463021,0.46302 0,0.21776 -0.217272,0.0776 -0.562916,-0.36313 z m 38.515048,0.0465 -0.513591,-0.4165 0.396875,0.20879 c 0.218282,0.11483 0.873125,0.28735 1.455209,0.38338 l 1.058333,0.17459 -0.941618,0.0331 -0.941617,0.0331 z m -42.185465,-0.75551 c 0,-0.0728 0.238125,-0.25974 0.529166,-0.4155 0.291042,-0.15576 0.529167,-0.22367 0.529167,-0.15091 0,0.0728 -0.238125,0.25974 -0.529167,0.4155 -0.291041,0.15576 -0.529166,0.22367 -0.529166,0.15091 z m 21.051385,-0.22847 0.180654,-0.47443 0.148111,0.14811 0.148114,0.14811 -0.328766,0.32632 -0.328766,0.32632 z m 20.218307,-0.0611 -0.334682,-0.40327 0.148558,-0.14855 0.148558,-0.14856 0.295328,0.55182 c 0.162433,0.30351 0.246187,0.55183 0.186127,0.55183 -0.06006,0 -0.259813,-0.18147 -0.443889,-0.40327 z m 14.226661,-0.18102 c -0.485825,-0.49739 -0.321743,-0.62785 0.296831,-0.23601 l 0.362979,0.22993 -0.09839,0.24007 -0.09839,0.24006 z m -3.81441,0.14332 0.17639,-0.17639 0.176389,0.17639 0.176388,0.17639 h -0.352777 -0.352777 z m -30.250694,-0.88195 v -0.35277 l 0.17639,0.17638 0.176387,0.17639 -0.176387,0.17639 -0.17639,0.17639 z m 18.892571,-0.59531 -0.504029,-0.59531 0.595313,0.50403 c 0.559445,0.47366 0.715761,0.68659 0.504028,0.68659 -0.05021,0 -0.318098,-0.26789 -0.595312,-0.59531 z m -4.455769,-0.38546 -0.180652,-0.47443 0.328766,0.32631 0.328766,0.32633 -0.148114,0.14811 -0.148111,0.14811 z m 17.313198,-0.0776 v -0.35278 l 0.17639,0.17639 0.176387,0.17639 -0.176387,0.17639 -0.17639,0.17639 z m -27.913541,-0.26458 -0.163521,-0.26459 h 0.264584 c 0.145521,0 0.338166,0.11907 0.428103,0.26459 l 0.163521,0.26458 h -0.264583 c -0.145521,0 -0.338167,-0.11906 -0.428104,-0.26458 z m 9.623541,-0.72761 -0.363125,-0.46302 0.463021,0.36313 c 0.44073,0.34564 0.580888,0.56291 0.363125,0.56291 -0.05494,0 -0.2633,-0.20836 -0.463021,-0.46302 z m -6.630442,0.0177 0.347265,-0.13896 0.159854,0.15985 0.15985,0.15985 -0.507116,-0.0209 -0.507119,-0.0209 0.347266,-0.13897 z m 0.931553,-0.26023 0.176389,-0.17639 0.17639,0.17639 0.176387,0.17639 h -0.352777 -0.352776 z m 20.499697,-1.06268 0.347265,-0.13897 0.159854,0.15985 0.15985,0.15986 -0.507116,-0.0209 -0.507119,-0.0209 0.347266,-0.13897 z m 2.537886,-0.38931 -0.188789,-0.30546 0.305465,0.18878 c 0.168005,0.10384 0.305464,0.2413 0.305464,0.30547 0,0.2207 -0.233641,0.11621 -0.42214,-0.18879 z m -1.562235,-0.22371 -0.529167,-0.22739 0.447405,-0.0186 0.447408,-0.0186 0.16352,0.26459 c 0.188029,0.30424 0.178835,0.30424 -0.529166,0 z m 0.783444,-0.80513 -0.489193,-0.54056 0.42773,0.16414 c 0.235252,0.0903 0.492729,0.33352 0.572175,0.54055 0.07944,0.20703 0.107103,0.37642 0.06146,0.37642 -0.04564,0 -0.303117,-0.24325 -0.572175,-0.54055 z m -2.167472,-1.2303 c 0.257432,-0.0671 0.614619,-0.0627 0.79375,0.01 l 0.325694,0.13177 -0.79375,-0.01 -0.79375,-0.01 0.468056,-0.12197 z m -51.273957,-7.20077 0.523266,-0.20569 -0.59488,-0.31837 -0.594879,-0.31837 -0.263431,0.16281 -0.263431,0.16281 0.175423,0.31244 0.175423,0.31245 -0.369545,-0.3638 -0.369544,-0.36381 0.330729,-0.12126 c 0.181901,-0.0667 0.330729,-0.22287 0.330729,-0.34704 v -0.22577 l -0.859896,-0.0845 -0.859896,-0.0845 0.733625,-0.16128 0.733624,-0.16127 1.084513,0.96242 1.084513,0.96243 -0.759804,0.043 -0.759804,0.043 z m -8.445189,-0.67726 c 0.282475,-0.21365 0.685175,-0.39224 0.89489,-0.39687 l 0.381298,-0.008 -0.51359,0.38846 c -0.282475,0.21366 -0.685175,0.39225 -0.89489,0.39688 l -0.3812984,0.008 z m 1.439632,-0.50927 c 0,-0.0572 0.184778,-0.17489 0.410617,-0.26155 l 0.410617,-0.15757 -0.161648,0.26155 c -0.155379,0.25141 -0.659586,0.37186 -0.659586,0.15757 z m 1.058334,-0.36748 v -0.20687 l 0.727604,-0.0404 0.727604,-0.0404 -0.529167,0.22865 c -0.689158,0.29778 -0.926041,0.31286 -0.926041,0.059 z"
           id="path2467"
           inkscape:connector-curvature="0" />
        <path
           style="fill:#0000ff;stroke-width:0.26458335"
           d="m 21.551541,251.934 0.150349,-0.24327 -0.29848,-0.18448 -0.298481,-0.18447 -0.175839,0.28452 -0.175839,0.28451 -0.279744,-0.18447 c -0.15386,-0.10146 -0.763107,-1.11258 -1.353883,-2.24694 l -1.074139,-2.06248 0.625296,0.40971 0.625295,0.40971 -0.166481,-0.4639 c -0.216447,-0.60313 0.02167,-0.37026 0.437555,0.42792 l 0.326819,0.62724 -0.287949,-0.17796 -0.28795,-0.17796 0.156985,0.4091 0.156986,0.40909 0.206152,-0.12741 0.206153,-0.12741 0.329608,0.79575 0.329608,0.79574 0.750269,0.63131 0.750269,0.63131 -0.401454,0.15406 -0.401455,0.15405 z m -1.02192,-1.37993 -0.423862,-0.60515 v 0.40283 c 0,0.42457 0.547918,1.10727 0.736952,0.91824 0.06092,-0.0609 -0.07997,-0.38309 -0.31309,-0.71592 z m 3.611033,0.74028 -0.595312,-0.29484 v -0.33413 -0.33413 l 0.727604,-0.0168 0.727604,-0.0168 -0.661458,-0.278 -0.661458,-0.27799 0.322888,-0.12155 0.322889,-0.12154 -0.600439,-0.57588 c -0.330242,-0.31672 -0.406635,-0.42704 -0.169764,-0.24514 l 0.430676,0.33073 h 0.558864 0.558864 l 0.188776,0.30544 c 0.103827,0.168 0.220867,0.59779 0.260089,0.9551 l 0.07131,0.64964 -0.786793,-0.15735 -0.786794,-0.15736 0.161059,0.2606 0.16106,0.2606 0.711989,0.004 0.711989,0.004 -0.396875,0.25648 c -0.218281,0.14106 -0.456406,0.24368 -0.529166,0.22804 -0.07276,-0.0156 -0.400183,-0.16111 -0.727605,-0.32327 z m 1.892964,-0.7394 -0.188787,-0.30547 0.305464,0.18879 c 0.304999,0.1885 0.409486,0.42214 0.188787,0.42214 -0.06417,0 -0.201631,-0.13746 -0.305464,-0.30546 z m 29.063286,-1.31347 -0.859896,-0.24828 v -0.38931 c 0,-0.21412 0.06428,-0.38931 0.142833,-0.38931 0.248404,0 2.238417,1.06328 2.238417,1.196 0,0.17818 -0.518025,0.12061 -1.521354,-0.1691 z m 2.138715,-0.14496 0.176389,-0.17638 0.17639,0.17638 0.176387,0.17639 h -0.352777 -0.352776 z m -4.702226,-1.82043 c -0.770524,-1.17597 -3.065758,-5.49283 -2.970911,-5.58768 0.05009,-0.0501 0.427649,0.53461 0.839029,1.29932 0.411376,0.76472 1.174765,2.04523 1.696415,2.8456 0.521653,0.80036 1.04367,1.60404 1.160042,1.78594 l 0.211585,0.33073 h -0.247301 c -0.136014,0 -0.446,-0.30326 -0.688859,-0.67391 z m 4.437642,0.49752 0.17639,-0.17639 0.17639,0.17639 0.176387,0.17639 h -0.352777 -0.352777 z m -38.188193,-0.88195 v -0.35277 l 0.176389,0.17638 0.176389,0.17639 -0.176389,0.17639 -0.176389,0.17639 z m -2.538807,-0.83463 -0.188787,-0.30546 0.305464,0.18879 c 0.304999,0.18849 0.409486,0.42214 0.188786,0.42214 -0.06417,0 -0.20163,-0.13746 -0.305463,-0.30547 z m 2.131053,0.0233 c -0.09592,-0.1552 -0.117656,-0.33893 -0.0483,-0.40828 0.06936,-0.0694 0.196603,0.0576 0.282774,0.28218 0.178907,0.46623 0.02642,0.54824 -0.234472,0.1261 z m 28.541781,0.1058 0.176389,-0.17639 0.17639,0.17639 0.176387,0.17639 h -0.352777 -0.352776 z m -0.79375,-0.26459 0.176389,-0.17639 0.17639,0.17639 0.176387,0.17639 h -0.352777 -0.352776 z m 1.086855,-0.49966 -0.513591,-0.41147 0.661459,0.31502 c 0.809897,0.38571 0.959998,0.50792 0.623834,0.50792 -0.141962,0 -0.489227,-0.18516 -0.771702,-0.41147 z m -1.616022,-0.0295 0.17639,-0.17639 0.17639,0.17639 0.176387,0.17639 h -0.352777 -0.352777 z m -27.60486,-0.35278 v -0.35278 l 0.176389,0.17639 0.176389,0.17639 -0.176389,0.17639 -0.176389,0.17639 z m 30.427083,0 -0.661458,-0.21184 0.727604,-0.0264 0.727604,-0.0264 v 0.26458 c 0,0.14552 -0.02977,0.25271 -0.06615,0.23821 -0.03638,-0.0145 -0.363802,-0.1217 -0.727604,-0.23821 z m 0.407755,-1.34052 0.174403,-0.28219 -0.489517,-0.37086 c -0.269234,-0.20397 -0.690848,-0.37464 -0.936921,-0.37927 l -0.447408,-0.008 -0.18737,-0.30317 -0.18737,-0.30317 0.76707,0.19049 0.767066,0.19049 0.595313,0.55567 c 0.327422,0.30563 0.595312,0.65399 0.595312,0.77414 v 0.21847 h -0.41249 -0.412488 z m -4.905672,-0.77615 v -0.35278 l 0.17639,0.17639 0.176387,0.17639 -0.176387,0.17639 -0.17639,0.17639 z m -27.631947,-1.77452 -0.180653,-0.47444 0.328766,0.32632 0.328765,0.32632 -0.148112,0.14811 -0.148113,0.14812 z m 32.659031,-0.34214 c -0.15576,-0.29105 -0.223671,-0.52917 -0.150911,-0.52917 0.07276,0 0.259734,0.23812 0.415494,0.52917 0.15576,0.29104 0.223671,0.52916 0.15091,0.52916 -0.07276,0 -0.259733,-0.23812 -0.415493,-0.52916 z M 45.505758,238.425 v -0.35278 l 0.17639,0.17639 0.176387,0.17639 -0.176387,0.17638 -0.17639,0.17639 z m 1.694527,-0.30547 -0.188788,-0.30546 0.305464,0.18878 c 0.304998,0.1885 0.409488,0.42215 0.188788,0.42215 -0.06417,0 -0.201631,-0.13746 -0.305464,-0.30547 z m -32.650776,-0.2237 v -0.35278 l 0.176389,0.17639 0.176388,0.17639 -0.176388,0.17639 -0.176389,0.17639 z m 30.691666,-0.26459 v -0.35277 l 0.17639,0.17639 0.176387,0.17638 -0.176387,0.17639 -0.17639,0.17639 z m -0.228965,-1.94808 -1.132893,-1.15433 0.109419,-0.89619 0.109421,-0.89619 0.04234,0.91603 0.04234,0.91603 1.113422,1.13449 c 0.612381,0.62397 1.053891,1.13449 0.981131,1.13449 -0.07276,0 -0.642094,-0.51944 -1.265185,-1.15433 z m -33.902285,-0.16858 v -0.35278 l 0.176389,0.17639 0.176389,0.17639 -0.176389,0.17639 -0.176389,0.17639 z m 34.660417,-0.79375 v -0.35278 l 0.17639,0.17639 0.176387,0.17639 -0.176387,0.17639 -0.17639,0.17639 z M 14.55356,233.99322 c 0.0085,-0.41651 0.501046,-0.95762 0.928818,-1.02041 l 0.446018,-0.0655 -0.603272,0.64216 c -0.3318,0.35318 -0.64205,0.64215 -0.689444,0.64215 -0.04739,0 -0.08435,-0.0893 -0.08212,-0.19844 z m 1.583449,-0.33073 v -0.35277 l 0.176389,0.17639 0.176388,0.17638 -0.176388,0.17639 -0.176389,0.17639 z m 27.558441,-1.85208 v -0.66146 l 0.133453,0.33073 c 0.0734,0.1819 0.0734,0.47956 0,0.66146 l -0.133453,0.33073 z m -22.357091,-0.26458 c 0.183281,-0.34554 0.382199,-1.5182 0.673221,-3.96875 l 0.07855,-0.66146 -0.529167,0.0429 c -0.291042,0.0236 -0.767292,0.11447 -1.058333,0.20188 l -0.529167,0.15894 -0.349863,-0.22932 -0.349863,-0.22932 -0.217586,-0.96475 -0.217586,-0.96475 0.219006,-0.97104 0.219007,-0.97105 1.472922,-1.35991 1.472921,-1.3599 v -1.4645 -1.4645 l 0.483855,-0.43788 0.483854,-0.43788 0.508333,0.001 0.508333,0.001 0.836924,0.51032 0.836924,0.51032 0.173189,1.8038 c 0.09525,0.99209 0.263763,2.54735 0.374465,3.45615 0.110701,0.9088 0.146511,1.5976 0.07958,1.53067 -0.06693,-0.0669 -0.343406,-0.003 -0.614383,0.14198 l -0.492684,0.26368 -0.300813,1.19463 -0.300813,1.19463 -0.993564,1.50895 c -0.948731,1.44071 -2.907455,3.79391 -2.467264,2.96401 z m 28.665316,-0.52917 v -0.35278 l 0.17639,0.17639 0.176387,0.17639 -0.176387,0.17639 -0.17639,0.17639 z m -6.043641,-0.52917 v -0.66145 l 0.133453,0.33073 c 0.0734,0.1819 0.0734,0.47955 0,0.66145 l -0.133453,0.33073 z m 5.255106,-0.86901 -0.656243,-0.33204 -0.312018,-0.62584 c -0.171606,-0.34421 -0.423513,-0.69905 -0.559787,-0.78854 -0.136276,-0.0895 -0.328634,-0.49302 -0.427466,-0.89675 l -0.179692,-0.73407 0.709295,-0.65735 0.709295,-0.65735 -0.321905,-1.07443 -0.321908,-1.07443 -0.916729,-0.54089 c -0.504203,-0.29748 -1.03229,-0.7568 -1.173527,-1.02071 l -0.256799,-0.47984 0.139641,-0.36389 c 0.0768,-0.20014 0.492019,-0.57205 0.922703,-0.82647 l 0.783063,-0.46256 0.907794,0.43077 0.907793,0.43078 0.503883,-0.26967 0.503886,-0.26967 0.353563,-1.47382 0.35356,-1.47381 0.288734,-0.23963 c 0.158803,-0.13179 0.7004,-0.27912 1.203547,-0.32739 l 0.914816,-0.0878 0.766262,1.53705 0.766263,1.53705 1.431483,1.54617 1.431486,1.54618 -1.261542,0.79189 -1.261541,0.79189 -1.791922,1.76189 -1.791923,1.7619 -0.813022,1.44059 c -0.447162,0.79233 -0.831421,1.43884 -0.853911,1.4367 -0.02249,-0.002 -0.336198,-0.15332 -0.697132,-0.33595 z m 1.317702,0.16993 c 0,-0.14196 0.18516,-0.48923 0.411472,-0.7717 l 0.411469,-0.51359 -0.315018,0.66146 c -0.385712,0.8099 -0.507923,0.96 -0.507923,0.62383 z m -6.575931,-1.02071 -0.04063,-0.79375 -0.537159,-0.88106 -0.537163,-0.88106 0.27545,0.17023 c 0.151495,0.0936 0.460341,0.52778 0.686321,0.96478 l 0.410872,0.79454 -0.108527,0.71004 -0.10853,0.71003 z m -2.067126,0.22049 0.17639,-0.17639 0.17639,0.17639 0.176387,0.17639 h -0.352777 -0.352777 z m 9.70139,-0.70387 c 0,-0.11737 0.436057,-0.65194 0.969013,-1.18792 l 0.969015,-0.97453 -0.373703,0.52612 c -0.625708,0.8809 -1.564325,1.86272 -1.564325,1.63633 z m -36.99989,-4.94058 v -0.66145 l 0.133452,0.33073 c 0.0734,0.1819 0.0734,0.47955 0,0.66145 l -0.133452,0.33073 z m 24.89044,-1.5875 v -0.92604 l 0.121002,0.46302 c 0.06655,0.25467 0.06655,0.67138 0,0.92605 l -0.121002,0.46302 z m -2.421744,-0.6835 0.02087,-0.50712 0.138965,0.34727 0.138964,0.34726 -0.15985,0.15985 -0.159854,0.15985 0.0209,-0.50711 z m -4.98125,-1.03629 0.0053,-1.05833 0.115067,0.5984 c 0.06329,0.32911 0.06088,0.80536 -0.0053,1.05833 l -0.120406,0.45994 0.0053,-1.05834 z m 24.914339,0.0264 c -0.56995,-0.49478 -0.976739,-0.95164 -0.903978,-1.01524 0.07276,-0.0636 0.60793,0.34123 1.189265,0.89961 0.581334,0.55839 0.988123,1.01525 0.903978,1.01525 -0.08415,0 -0.619316,-0.40483 -1.189265,-0.89962 z m 1.741855,0.10586 v -0.35277 l 0.17639,0.17638 0.176387,0.17639 -0.176387,0.17639 -0.17639,0.17639 z m -21.888355,-1.0583 v -1.19062 l 0.114663,0.59531 c 0.06307,0.32742 0.06307,0.8632 0,1.19062 l -0.114663,0.59532 z m 20.937175,0.22711 -0.504028,-0.56665 0.595312,0.36571 c 0.327422,0.20113 0.595313,0.45613 0.595313,0.56664 0,0.11052 -0.04108,0.20094 -0.09128,0.20094 -0.05021,0 -0.318098,-0.25499 -0.595313,-0.56664 z m 0.541856,-0.53595 -1.045884,-1.10259 1.119708,0.90416 c 0.615842,0.49728 1.121858,0.99344 1.12448,1.10258 0.0026,0.10914 -0.0306,0.19844 -0.07382,0.19844 -0.04323,0 -0.549244,-0.49616 -1.12448,-1.10259 z m -1.665999,-0.8967 -0.308179,-0.67638 -0.304337,0.18809 -0.304339,0.18809 0.192336,-0.3112 0.192334,-0.31121 -0.812911,-1.32115 -0.812914,-1.32115 v -0.66579 -0.66578 l -0.398862,-0.15306 -0.398865,-0.15306 0.03928,-0.69853 c 0.02159,-0.3842 -0.03654,-1.53197 -0.129206,-2.55062 l -0.168487,-1.85208 0.23509,0.52916 0.235088,0.52917 0.188997,-0.46302 c 0.10395,-0.25466 0.308062,-0.46302 0.453583,-0.46302 h 0.264584 l -0.152297,0.39687 -0.152294,0.39688 h 0.239643 0.239647 l -0.156573,0.99219 -0.15657,0.99218 -0.274936,0.17959 -0.274937,0.1796 0.249704,1.01103 0.249705,1.01103 0.264584,-0.0448 0.264583,-0.0448 0.463021,0.95192 c 0.254661,0.52356 0.459235,1.01996 0.454607,1.10312 -0.0046,0.0831 -0.181994,-0.0782 -0.394142,-0.35866 l -0.385728,-0.50985 -0.148992,0.14899 -0.148992,0.14899 0.963038,1.81607 c 0.529672,0.99884 1.086318,1.96489 1.236991,2.1468 l 0.273949,0.33072 h -0.25451 -0.254511 z m -1.452454,-4.5271 -0.17639,-0.17639 v 0.35278 0.35278 l 0.17639,-0.17639 0.176387,-0.17639 z m -0.778303,-3.52778 0.03986,-0.52916 h -0.224729 -0.224727 l 0.08864,0.46302 c 0.113067,0.59064 0.114678,0.59531 0.205113,0.59531 0.04179,0 0.09392,-0.23812 0.115848,-0.52917 z m 0.866497,8.20209 v -0.35278 l 0.17639,0.17639 0.176387,0.17639 -0.176387,0.17639 -0.17639,0.17638 z m -19.965908,-0.9255 c 0.170651,-0.81953 0.317481,-1.09536 0.481499,-0.90454 0.05212,0.0606 -0.07206,0.46743 -0.275955,0.904 l -0.370713,0.79375 z m 19.071912,-0.73497 c -0.273415,-0.61471 -0.712462,-1.59391 -0.975656,-2.17599 -0.498994,-1.10358 -0.89213,-2.77889 -1.179679,-5.02708 l -0.169201,-1.32292 0.270346,0.26458 0.270346,0.26459 0.133165,1.3745 c 0.135114,1.39461 1.052898,4.69848 1.449953,5.21959 0.119465,0.15679 0.413687,0.79109 0.653823,1.40955 l 0.436615,1.12448 -0.196297,-0.007 c -0.10796,-0.004 -0.419999,-0.50977 -0.693415,-1.12447 z m 2.249713,0.20143 c -0.309081,-0.52385 -0.560533,-1.09448 -0.558779,-1.26807 l 0.0032,-0.3156 0.664461,1.16239 c 0.365456,0.63931 0.616905,1.20994 0.558782,1.26806 -0.05813,0.0581 -0.358569,-0.32292 -0.66765,-0.84678 z m -44.176441,0.13612 v -0.66146 l 0.133452,0.33073 c 0.0734,0.1819 0.0734,0.47956 0,0.66146 l -0.133452,0.33073 z m -0.438651,-1.52826 c -0.436563,-0.0502 -1.240234,-0.20774 -1.785938,-0.35005 L 9.2578419,214.5921 v -0.25439 -0.25438 h 0.47547 0.4754701 l 1.033435,-1.05834 1.033435,-1.05833 0.409324,-0.002 c 0.225128,-7.9e-4 0.766512,-0.19367 1.203074,-0.42839 0.843842,-0.4537 3.688515,-1.47769 7.805209,-2.80961 l 2.513541,-0.81324 4.630209,-0.0113 4.630208,-0.0113 3.042708,0.59193 c 1.67349,0.32556 3.319092,0.65163 3.656896,0.7246 l 0.614188,0.13266 -0.180036,0.85012 -0.180033,0.85012 -0.698738,0.58579 -0.698735,0.5858 -0.79375,0.0298 c -0.436563,0.0164 -0.990346,0.0679 -1.23063,0.11456 -0.240284,0.0466 -0.817327,0.36495 -1.282319,0.70736 l -0.845442,0.62256 -1.892681,0.002 -1.892678,0.002 -0.720945,0.22381 -0.720945,0.22383 -0.820852,-0.82086 -0.820851,-0.82085 -0.707162,-0.17091 -0.707162,-0.17088 -1.118567,-1.01962 -1.118568,-1.01962 h -1.547291 -1.547291 l -0.575287,0.61236 c -0.316408,0.3368 -0.575287,0.74078 -0.575287,0.89774 v 0.28537 l -0.418515,0.16059 c -0.230183,0.0883 -0.696428,0.1606 -1.036101,0.1606 h -0.617585 l -0.813395,1.027 -0.813395,1.02699 -0.5979,0.14126 c -0.328846,0.0777 -1.133682,0.30425 -1.788526,0.50348 l -1.190625,0.36223 z m 4.806597,-3.67521 -0.176389,-0.17639 -0.176389,0.17639 -0.176388,0.17639 h 0.352777 0.352778 z m 35.836342,3.05741 c -0.163002,-0.46759 -0.250065,-0.89647 -0.193474,-0.95306 0.05659,-0.0566 0.23626,0.27968 0.399262,0.74727 0.163002,0.46759 0.250066,0.89646 0.193474,0.95305 -0.05659,0.0566 -0.23626,-0.27968 -0.399262,-0.74726 z M 7.059242,212.29739 C 6.7836481,211.81412 6.3111365,210.06732 6.0680118,208.63297 5.9224774,207.77436 5.7522569,206.43324 5.689744,205.6527 l -0.11366,-1.41916 0.4253987,-0.4254 c 0.4409833,-0.44098 1.5899399,-1.1019 1.9155803,-1.1019 h 0.1862336 l 0.037556,0.72761 c 0.088854,1.72143 0.3665127,3.70448 0.6390407,4.56406 0.16148,0.50932 0.4788111,1.21069 0.7051804,1.55858 0.2263693,0.3479 0.7492513,0.8379 1.1619593,1.08888 l 0.750378,0.45633 -1.344874,0.1784 -1.3448755,0.17841 -0.5186601,0.51866 c -0.5429461,0.54294 -0.9387668,0.65514 -1.1297594,0.32022 z m 56.51941,-1.18283 c -0.30516,-0.33171 -0.775695,-0.96241 -1.045636,-1.40157 -0.746381,-1.21425 -1.759148,-2.50883 -1.962692,-2.50883 -0.206902,0 -0.529585,1.29672 -0.646483,2.59794 -0.04339,0.48298 -0.150051,0.94931 -0.237027,1.03628 l -0.158139,0.15814 v -0.55168 -0.55169 l -0.864571,-0.53433 -0.864571,-0.53433 -0.904393,-1.20704 c -0.49742,-0.66387 -0.949627,-1.20704 -1.004909,-1.20704 -0.05528,0 -0.330809,0.12325 -0.612283,0.27389 -0.901994,0.48273 -0.546698,0.0554 0.480415,-0.57784 0.545703,-0.33643 1.270661,-0.94146 1.611018,-1.3445 0.34036,-0.40304 0.759204,-0.7328 0.93077,-0.7328 0.171564,0 0.758875,-0.3037 1.305134,-0.67489 l 0.993198,-0.6749 2.367852,-0.78031 2.367851,-0.78032 h 1.573226 1.573226 l 1.146413,0.50872 c 0.630528,0.27979 1.493882,0.79654 1.918562,1.14832 l 0.772147,0.6396 -0.156922,0.40893 -0.156919,0.40892 -1.180822,-0.13309 -1.180825,-0.1331 -0.734909,0.82481 c -0.404199,0.45365 -0.80862,0.82481 -0.89871,0.82481 -0.09009,0 -0.375158,-0.3578 -0.633481,-0.7951 l -0.469681,-0.79511 -0.802579,-0.41503 -0.802579,-0.41503 -0.151802,0.1518 -0.1518,0.1518 h 0.195287 c 0.107407,0 0.0082,0.1871 -0.220485,0.41578 l -0.415775,0.41577 v 0.78323 0.78323 l 0.79375,2.67186 c 0.436563,1.46953 0.79375,2.68615 0.79375,2.7036 0,0.0175 -0.26789,0.042 -0.595312,0.0546 -0.327422,0.0126 -0.779621,0.10538 -1.004888,0.20624 l -0.409572,0.18338 z m -9.341644,-3.9104 v -0.35278 l 0.17639,0.17639 0.176387,0.17639 -0.176387,0.17639 -0.17639,0.17639 z m 16.492361,0.0882 0.176389,-0.17638 0.705557,0.17638 0.176387,0.17639 h -0.881944 -0.352777 z m 0.970139,-0.61736 -1.455208,-0.25648 1.373447,-0.004 c 0.173312,-0.002 0.388699,0.11501 0.478636,0.26053 0.08994,0.14552 0.12673,0.26276 0.08176,0.26053 -0.04497,-0.002 -0.260355,-0.11947 -0.478637,-0.26054 z"
           id="path2465"
           inkscape:connector-curvature="0"
           sodipodi:nodetypes="cccccccccccscccccccccccccccccscccccccccccccccccccccccccccccccccscccsssccccccccscccccsscccccccccccccccccscccccccccccccccccccccccscccccccccccccccccccssccccccccccccscccccccccccccccccccscscccccccccccsccccccccccccccccccccccsccccccccccccccccccccscccccccccccccccccccccccccccccccccccccccccccccccccccccccccccccccccccccccccccccccccccccccccccccccccsccsscccccccccccccccccscccsccccccccccccccccccccccccccccccscccccccccccccccccssccccccsccccccccccccccccccccscccccccccccccccccccscccccccccccccccccsccccccccccccccccccccscsccccccccccccccccccccccccccccccccscccccccccccccccccccccccsccsccccccccccccccccsccccsccscsccccccccccsscccccccscccscccccccsccccccsccccccsccccssssccccccccccccccccccccccc" />
        <path
           style="fill:#000080;stroke-width:0.26458335"
           d="m 21.51687,251.78645 v -0.34642 l 0.352778,0.13537 c 0.194027,0.0745 0.352777,0.16943 0.352777,0.21105 0,0.0416 -0.15875,0.1366 -0.352777,0.21105 l -0.352778,0.13538 z m -1.03638,-0.0702 c -0.1577,-0.10692 -0.764277,-1.11141 -1.34795,-2.23222 l -1.061224,-2.03782 0.453267,0.24258 0.453266,0.24258 0.209499,-0.18913 0.209499,-0.18913 -0.190326,0.33073 -0.190326,0.33073 h 0.280199 c 0.154109,0 0.266099,0.0893 0.248866,0.19844 -0.01723,0.10914 -0.01723,0.35429 0,0.54478 l 0.03133,0.34634 0.309546,-0.19131 0.309546,-0.19131 -0.16895,0.44028 -0.168951,0.44028 h 0.24697 c 0.135834,0 0.376791,0.26789 0.535459,0.59531 l 0.288489,0.59531 -0.411471,-0.51359 -0.411471,-0.51359 v 0.41505 0.41505 l 0.355073,0.29468 0.355073,0.29469 0.188077,-0.18808 0.188078,-0.18808 -0.174583,0.45496 c -0.09602,0.25023 -0.191611,0.45313 -0.212422,0.4509 -0.02081,-0.002 -0.166865,-0.0915 -0.324565,-0.19843 z m 3.72631,-2.25948 c -0.727604,-0.74844 -1.075416,-1.15552 -0.772916,-0.90463 l 0.55,0.45618 h 0.558864 0.558864 l 0.188776,0.30544 c 0.160936,0.2604 0.406426,1.58733 0.282177,1.52523 -0.02357,-0.0118 -0.638161,-0.63378 -1.365765,-1.38222 z m 1.826818,1.09817 -0.188787,-0.30547 0.305464,0.18879 c 0.304999,0.1885 0.409486,0.42214 0.188787,0.42214 -0.06417,0 -0.201631,-0.13746 -0.305464,-0.30546 z m 29.034272,-1.32098 c -0.4889,-0.1407 -0.839393,-0.30532 -0.778872,-0.36584 0.133611,-0.13362 2.064657,0.38034 2.064657,0.54951 0,0.1559 -0.210031,0.1259 -1.285785,-0.18367 z m -2.284217,-1.54553 -0.161649,-0.26155 0.410617,0.15757 c 0.458369,0.17589 0.542234,0.36554 0.16165,0.36554 -0.136933,0 -0.321712,-0.1177 -0.410618,-0.26156 z m -5.866804,-1.50233 0.176389,-0.17639 0.17639,0.17639 0.176387,0.17639 h -0.352777 -0.352776 z m -0.79375,-0.26459 0.176389,-0.17639 0.17639,0.17639 0.176387,0.17639 h -0.352777 -0.352776 z m 2.710275,-2.29476 0.13603,-0.35448 -0.34277,-0.27145 c -0.188524,-0.1493 -0.699958,-0.40721 -1.136521,-0.57314 l -0.79375,-0.30169 0.79375,0.15348 0.79375,0.15349 0.595313,0.55567 c 0.327422,0.30563 0.595312,0.65399 0.595312,0.77414 v 0.21847 h -0.388572 -0.38857 z m 0.748141,-1.53848 -0.188788,-0.30546 0.305464,0.18879 c 0.304998,0.18849 0.409488,0.42214 0.188788,0.42214 -0.06417,0 -0.201631,-0.13746 -0.305464,-0.30547 z m -4.34036,-4.45704 v -0.35277 l 0.17639,0.17639 0.176387,0.17638 -0.176387,0.17639 -0.17639,0.17639 z m -24.069187,-5.87777 c -0.0043,-0.10408 0.358511,-0.60654 0.806341,-1.11659 l 0.814237,-0.92737 -0.151259,-0.24474 -0.151259,-0.24474 0.395355,-0.15172 0.395356,-0.15171 -0.0079,0.32243 c -0.0084,0.3446 -2.087582,2.83303 -2.100875,2.51444 z m 28.831687,-0.73681 v -0.35278 l 0.17639,0.17639 0.176387,0.17639 -0.176387,0.17639 -0.17639,0.17639 z m -28.306365,-1.60955 0.0041,-0.90399 0.242382,-0.38312 0.242383,-0.38313 -0.150546,1.17688 c -0.0828,0.64728 -0.193695,1.22648 -0.246434,1.28711 -0.05274,0.0606 -0.09407,-0.29655 -0.09184,-0.79375 z m 28.835532,0.3813 c 0,-0.14196 0.18516,-0.48923 0.411472,-0.7717 l 0.411469,-0.51359 -0.315018,0.66146 c -0.385712,0.8099 -0.507923,0.96 -0.507923,0.62383 z m -1.943367,-0.57852 c -0.240837,-0.26612 -0.437883,-0.5708 -0.437883,-0.67707 v -0.19322 l 0.26316,0.16264 c 0.276,0.17058 0.887095,1.1915 0.713197,1.1915 -0.05533,0 -0.29764,-0.21773 -0.538474,-0.48385 z m 1.270216,-0.0264 0.151832,-0.24567 -0.599237,-0.0851 -0.599236,-0.0851 -0.08112,-0.70066 -0.08112,-0.70066 -0.546944,-0.14303 -0.546941,-0.14303 0.175646,-0.69983 0.175646,-0.69983 -0.341333,0.17742 c -0.187733,0.0976 -0.05545,-0.0554 0.293952,-0.33985 l 0.635286,-0.51727 -0.142317,-0.54423 -0.14232,-0.54423 0.366927,0.14081 0.36693,0.1408 v -0.29289 -0.29289 H 48.67145 48.397556 l 0.283202,-0.52917 0.283202,-0.52917 h -0.406185 -0.406183 l -0.008,0.46303 -0.008,0.46302 -0.269687,-0.46303 c -0.148328,-0.25466 -0.617429,-0.64285 -1.042445,-0.86263 l -0.772755,-0.39961 -0.271479,-0.50726 -0.271478,-0.50727 0.139642,-0.36389 c 0.0768,-0.20014 0.516088,-0.58627 0.97619,-0.85806 l 0.836549,-0.49417 0.103794,0.31138 0.103791,0.31137 0.253576,-0.15671 0.253574,-0.15672 0.393121,0.32626 0.39312,0.32626 0.62026,-0.28261 0.620263,-0.28261 0.1759,-0.93763 c 0.09675,-0.5157 0.288989,-1.00753 0.427207,-1.09295 l 0.251304,-0.15532 -0.157567,0.41062 -0.15757,0.41062 h 0.292891 0.292891 l 0.03133,-0.33073 c 0.01722,-0.1819 0.0088,-0.44524 -0.01868,-0.5852 -0.02751,-0.13997 0.159745,-0.40786 0.416113,-0.59532 l 0.466119,-0.34084 h -0.434297 -0.434298 l -0.269684,0.46303 -0.269685,0.46302 -0.008,-0.29834 c -0.01304,-0.48319 0.583954,-0.82184 1.660255,-0.94181 l 1.006843,-0.11223 -0.121579,0.90217 -0.121579,0.90218 0.285697,-0.2857 0.285697,-0.2857 0.488469,0.80323 0.488468,0.80322 -0.157742,0.25523 -0.157742,0.25523 0.218104,-0.0686 0.218104,-0.0686 1.403964,1.49238 1.403964,1.49239 -0.274016,0.16935 -0.274018,0.16935 -0.566563,-0.30321 -0.566563,-0.30322 0.165867,0.26838 0.16587,0.26839 -0.332377,0.15244 -0.332378,0.15245 0.661459,-0.16272 0.661458,-0.16272 -0.139189,0.15001 c -0.07655,0.0825 -0.575453,0.44607 -1.108665,0.80792 l -0.969476,0.6579 -0.104743,-0.17973 c -0.05761,-0.0988 -0.07371,-0.0446 -0.03578,0.12062 l 0.06897,0.30035 -0.707642,0.63892 c -0.389204,0.35141 -0.922721,0.80195 -1.185592,1.00121 l -0.477951,0.36228 0.04626,-0.24322 c 0.02545,-0.13378 0.03216,-0.51112 0.01492,-0.83854 l -0.03133,-0.59531 h -0.264583 -0.264584 v 0.52916 0.52917 h 0.228458 0.228459 l -0.03002,0.46302 -0.03002,0.46302 -0.694404,0.92604 c -0.381921,0.50933 -0.832596,1.19394 -1.001495,1.52136 -0.168902,0.32742 -0.428993,0.59531 -0.577983,0.59531 h -0.270888 l 0.151828,-0.24567 z m 0.143984,-0.81266 c 0,-0.14552 -0.119062,-0.26459 -0.264583,-0.26459 -0.145521,0 -0.264584,0.11907 -0.264584,0.26459 0,0.14552 0.119063,0.26458 0.264584,0.26458 0.145521,0 0.264583,-0.11906 0.264583,-0.26458 z m 0.97014,-1.23473 -0.17639,-0.17638 v 0.35277 0.35278 l 0.17639,-0.17639 0.176387,-0.17639 z m -1.852083,-2.64583 -0.17639,-0.17639 -0.17639,0.17639 -0.176387,0.17639 h 0.352777 0.352777 z m 4.58611,0.0597 c 0,-0.0642 -0.137459,-0.20164 -0.305464,-0.30547 l -0.305464,-0.18879 0.188788,0.30547 c 0.188499,0.305 0.42214,0.40948 0.42214,0.18879 z m -1.322917,-1.31023 v -0.36857 l -0.434745,-0.16682 c -0.239109,-0.0918 -0.491942,-0.10963 -0.561853,-0.0397 -0.06991,0.0699 -0.0566,0.31083 0.02957,0.53539 l 0.156673,0.40829 h 0.40518 0.405178 z m 3.175,-0.27727 c 0,-0.0642 -0.119062,-0.19027 -0.264583,-0.2802 l -0.264584,-0.16352 v 0.28019 c 0,0.15411 0.119063,0.2802 0.264584,0.2802 0.145521,0 0.264583,-0.0525 0.264583,-0.11667 z m -7.540625,-0.94166 -0.16352,-0.26459 -0.5797,0.004 -0.579697,0.004 0.396875,0.25648 c 0.218282,0.14106 0.552731,0.2583 0.74322,0.26053 l 0.346343,0.004 z m 4.365625,-0.26459 v -0.26458 h 0.529167 0.529166 v -0.42772 -0.42772 l -0.694187,0.13271 -0.694187,0.1327 -0.130421,-0.49874 c -0.07173,-0.2743 -0.235598,-0.49873 -0.364146,-0.49873 h -0.233725 v 0.88194 c 0,0.48508 0.07937,0.96133 0.17639,1.05834 0.09701,0.097 0.335137,0.17639 0.529166,0.17639 h 0.352777 z m 3.006143,-0.60205 0.147868,-0.56546 -0.15802,-0.14385 -0.15802,-0.14384 -0.118118,0.33073 -0.118118,0.33072 h -0.374824 -0.374828 v 0.35278 c 0,0.19403 0.07117,0.42395 0.15816,0.51094 l 0.158158,0.15816 0.344934,-0.13237 0.344938,-0.13236 z m 0.874414,-0.1035 -0.17639,-0.17639 v 0.35278 0.35277 l 0.17639,-0.17638 0.176387,-0.17639 z m -9.172224,-0.22049 v -0.39687 h -0.513551 c -0.282453,0 -0.576873,0.10245 -0.654266,0.22768 l -0.140714,0.22768 0.169196,0.16919 c 0.09306,0.0931 0.387477,0.1692 0.654267,0.1692 h 0.485068 z m 3.367927,-0.82131 -0.159854,-0.15985 -0.347265,0.13896 -0.347266,0.13897 0.507119,0.0209 0.507116,0.0209 -0.15985,-0.15985 z m 2.924474,-1.65135 0.118544,-0.356 -0.47157,0.0914 -0.471567,0.0914 -0.118541,0.356 -0.118544,0.356 0.471569,-0.0914 0.471567,-0.0914 z m -29.748885,10.21173 0.156543,-0.46303 h -0.3457 -0.345701 l -0.03365,-0.8951 -0.03365,-0.89511 0.45364,0.0352 0.45364,0.0352 0.004,-0.97611 0.004,-0.97612 -0.86041,0.0678 -0.860411,0.0678 -0.327099,-0.20215 -0.327099,-0.20216 -0.201369,0.31676 c -0.110753,0.17422 -0.203192,0.81004 -0.20542,1.41293 l -0.0041,1.09618 -0.434299,0.16665 -0.434298,0.16666 0.299711,-0.36113 0.299712,-0.36113 -0.155864,-0.15587 -0.155863,-0.15586 -0.371008,0.14237 -0.371008,0.14237 v -0.55747 -0.55748 h 0.425183 0.425182 l -0.160599,-0.41851 c -0.08833,-0.23019 -0.160599,-0.6469 -0.160599,-0.92605 v -0.50752 H 19.874144 19.37805 l -0.167201,0.83601 c -0.09196,0.4598 -0.219328,0.78388 -0.283036,0.72017 -0.06371,-0.0637 -0.01132,-0.57922 0.116416,-1.14559 l 0.232249,-1.02977 1.472922,-1.35991 1.472921,-1.3599 v -1.4645 -1.4645 l 0.483855,-0.43788 0.483854,-0.43788 0.508333,0.001 0.508333,0.001 0.859896,0.52429 0.859896,0.52429 v 0.34785 c 0,0.19132 -0.148828,0.50819 -0.330729,0.70416 l -0.330729,0.35632 0.303004,-0.16959 0.303005,-0.16959 0.160016,0.417 c 0.08801,0.22934 0.146205,0.73468 0.129324,1.12296 l -0.03069,0.70582 -0.121,-0.46302 -0.121,-0.46302 H 24.98115 24.074509 v 0.55861 0.55862 l -0.93186,-0.17482 -0.93186,-0.17482 -0.391057,0.39106 c -0.215081,0.21508 -0.391057,0.51488 -0.391057,0.66623 v 0.27518 l 0.396875,-0.15229 0.396875,-0.1523 v 0.3012 0.30119 l -0.400244,0.15359 -0.400245,0.15359 -0.336233,-0.27905 -0.336234,-0.27905 -0.355752,0.21986 -0.355753,0.21987 0.21183,0.34275 0.21183,0.34275 0.188626,-0.51161 0.188625,-0.5116 0.191292,0.7276 0.191291,0.72761 0.566629,0.0217 c 0.311647,0.0119 1.102411,0.0251 1.757255,0.0292 l 1.190625,0.008 0.190519,0.30148 0.19052,0.30149 0.173282,-0.8599 0.173283,-0.85989 h 0.260193 0.260194 l -0.165033,-0.7276 -0.165033,-0.7276 0.400933,0.51359 0.400934,0.51359 v 0.74318 0.74318 h -0.429272 -0.429272 l 0.254499,0.33073 0.254498,0.33073 -0.532619,0.50895 -0.532619,0.50896 0.175195,-0.45656 0.175195,-0.45655 -0.282991,0.1749 -0.282991,0.1749 0.158211,0.63037 0.158212,0.63036 -0.390077,0.93359 c -0.214542,0.51347 -0.588396,1.19908 -0.830786,1.52358 l -0.44071,0.59 z m 0.698266,-1.47083 -0.0041,-0.4474 -0.25648,0.39687 c -0.141065,0.21828 -0.258304,0.4932 -0.260532,0.61093 l -0.0041,0.21405 0.264584,-0.16352 c 0.14552,-0.0899 0.26276,-0.36486 0.260531,-0.61093 z m 0.533219,-8.66135 v -0.35212 l -0.529167,0.0399 c -0.291042,0.0219 -0.529167,0.0643 -0.529167,0.0942 0,0.0299 0.06939,0.23516 0.154189,0.45615 l 0.154188,0.40181 0.374978,-0.14389 0.374979,-0.1439 z m -0.264584,-1.44402 c -0.47301,-0.30488 -1.506708,-0.34523 -1.677211,-0.0655 l -0.120941,0.19844 1.097513,0.0614 1.097514,0.0614 z m 26.9875,11.29125 c 0,-0.11737 0.436057,-0.65194 0.969013,-1.18792 l 0.969015,-0.97453 -0.373703,0.52612 c -0.625708,0.8809 -1.564325,1.86272 -1.564325,1.63633 z m -3.961088,-0.43232 -0.389212,-0.24615 0.153072,-0.15307 0.153072,-0.15307 0.334682,0.40326 c 0.184076,0.2218 0.29034,0.40145 0.236141,0.39922 -0.0542,-0.002 -0.273688,-0.11481 -0.487755,-0.25019 z m -25.522943,-0.72653 -0.180653,-0.47443 0.328766,0.32631 0.328766,0.32633 -0.148113,0.14811 -0.148112,0.14811 z m -2.643945,-0.22875 c -0.228676,-0.22867 -0.415774,-0.54617 -0.415774,-0.70556 0,-0.15938 0.03103,-0.24017 0.06897,-0.17953 0.03793,0.0606 0.294509,0.37813 0.570173,0.70555 0.570082,0.67712 0.406056,0.80896 -0.223365,0.17954 z m 27.630059,-0.37798 v -0.35277 l 0.17639,0.17638 0.176387,0.17639 -0.176387,0.17639 -0.17639,0.17639 z m 12.055552,-7.06619 -0.180652,-0.47443 0.328766,0.32632 0.328766,0.32632 -0.148114,0.14811 -0.148111,0.14811 z m -4.029858,-4.2227 0.17639,-0.17638 0.17639,0.17638 0.176387,0.17639 h -0.352777 -0.352777 z m -44.185416,-0.26458 0.176389,-0.17639 0.176389,0.17639 0.176389,0.17639 h -0.352778 -0.352777 z m -0.931553,-0.26893 0.347265,-0.13897 0.159853,0.15985 0.159852,0.15986 -0.507118,-0.0209 -0.5071181,-0.0209 z m 42.647525,-0.0838 v -0.35277 l 0.17639,0.17638 0.176387,0.17639 -0.176387,0.17639 -0.17639,0.17639 z m 1.984375,0 -0.16352,-0.26458 h 0.280196 c 0.15411,0 0.280199,0.11906 0.280199,0.26458 0,0.14553 -0.0525,0.26459 -0.116676,0.26459 -0.06417,0 -0.190261,-0.11906 -0.280199,-0.26459 z m -45.3760411,-0.2729 v -0.25628 h 0.396875 c 0.2182813,0 0.3968751,0.0468 0.3968751,0.10398 0,0.0572 -0.1785938,0.17252 -0.3968751,0.25628 l -0.396875,0.1523 z m 1.9843751,-1.23439 1.058333,-1.07672 0.749774,-0.17382 0.749773,-0.17381 -0.170076,0.27519 -0.170076,0.27518 h -0.512789 -0.51279 l -1.125241,0.97535 -1.125241,0.97535 z m 17.576983,0.20725 c -0.423969,-0.42397 -0.920826,-0.83128 -1.104127,-0.90515 l -0.333273,-0.1343 0.743219,-0.0209 0.743219,-0.0209 -0.152668,-0.24702 -0.152668,-0.24702 0.820607,0.0233 0.820608,0.0233 0.234018,0.61551 0.234016,0.61551 0.405347,-0.15554 0.405344,-0.15555 v -0.47881 -0.47881 l -0.330729,-0.1474 -0.330729,-0.1474 0.661458,0.0592 0.661458,0.0592 v 0.92604 0.92604 l -1.058333,0.32672 c -0.582083,0.17969 -1.156789,0.32852 -1.277124,0.33073 -0.120334,0.002 -0.565674,-0.34287 -0.989643,-0.76684 z m 1.532935,-0.18346 -0.169388,-0.16939 -0.467017,0.17921 -0.467017,0.17921 0.387249,0.23934 0.387248,0.23933 0.249156,-0.24916 0.249157,-0.24915 z m 24.810915,0.68973 c 0.08994,-0.14552 0.223052,-0.26458 0.295812,-0.26458 0.07276,0 0.05871,0.11906 -0.03123,0.26458 -0.08994,0.14553 -0.223051,0.26459 -0.295812,0.26459 -0.07276,0 -0.05871,-0.11906 0.03123,-0.26459 z m -38.725902,-0.92688 c 0.300783,-0.50979 0.653954,-0.99307 0.784827,-1.07395 l 0.23795,-0.14706 v 0.26458 c 0,0.14552 -0.119062,0.33817 -0.264583,0.42811 -0.145521,0.0899 -0.264583,0.29631 -0.264583,0.45861 v 0.29509 l 0.633902,-0.59553 0.633903,-0.59551 0.75516,0.11288 0.75516,0.11288 -0.851975,0.0396 -0.851975,0.0396 -0.586845,0.79375 -0.586845,0.79375 h -0.470486 -0.470486 z m 16.897777,0.70278 c 0,-0.12325 0.222324,-0.48044 0.494057,-0.79375 l 0.494053,-0.56965 h 0.431988 0.431985 v -0.26458 c 0,-0.14552 0.0893,-0.23811 0.198438,-0.20574 0.109141,0.0324 0.500994,-0.14364 0.870786,-0.3911 l 0.672346,-0.44994 1.388327,-0.20421 1.38833,-0.20422 0.03709,-0.26458 c 0.04951,-0.35315 0.729467,-1.02112 0.883076,-0.86751 0.06684,0.0668 0.04896,0.48437 -0.03973,0.92784 l -0.161261,0.80632 -0.787416,0.58216 -0.787416,0.58216 -0.155591,-0.15559 -0.155588,-0.15559 h 0.308679 0.308681 v -0.25628 -0.25628 l -0.440277,0.16895 -0.44028,0.16895 0.21707,-0.35122 0.217067,-0.35123 -0.636686,0.17036 c -0.350176,0.0937 -0.857782,0.17199 -1.128014,0.17397 l -0.491328,0.004 0.161213,0.42011 0.161213,0.42012 -0.595926,0.49712 c -0.327761,0.27342 -0.692251,0.50109 -0.80998,0.50593 l -0.21405,0.009 0.16352,-0.26459 0.163521,-0.26458 H 35.191026 34.89923 l 0.07774,0.43557 0.07774,0.43557 -0.330729,0.11565 -0.33073,0.11564 v -0.28663 -0.28663 h -0.41249 -0.412488 l 0.16352,0.26458 0.163521,0.26458 h -0.280197 c -0.154109,0 -0.280199,-0.10084 -0.280199,-0.2241 z m 20.835938,-0.67338 c -0.254662,-0.19331 -0.463021,-0.40781 -0.463021,-0.47665 0,-0.0688 0.162345,-0.12517 0.36077,-0.12517 h 0.36077 l 0.302929,0.48507 0.302932,0.48507 -0.200681,-0.008 c -0.110374,-0.005 -0.409038,-0.16658 -0.663699,-0.3599 z m -46.9588291,-1.70571 -0.5905995,-1.23326 -0.096992,-1.08501 c -0.053346,-0.59675 -0.1859145,-1.22888 -0.2945972,-1.40473 l -0.197605,-0.31973 -0.021141,-1.65424 -0.021141,-1.65424 0.194949,-0.31544 0.194949,-0.31543 0.6452431,0.16194 0.6452434,0.16195 v -0.30888 -0.30888 l -0.3054636,0.18878 -0.3054639,0.18879 0.1887869,-0.30546 c 0.103833,-0.16801 0.3387063,-0.30547 0.5219411,-0.30547 h 0.3331541 l 0.037556,0.72761 c 0.088854,1.72143 0.3665127,3.70448 0.6390407,4.56406 0.16148,0.50932 0.4788111,1.21069 0.7051804,1.55858 0.2263693,0.3479 0.7738626,0.86062 1.2166526,1.13938 l 0.805073,0.50683 -0.529166,-0.0602 c -0.291042,-0.0331 -1.0312403,0.0828 -1.6448857,0.25753 l -1.1157191,0.31769 -0.2071976,0.36552 -0.2071976,0.36553 z m 1.7812247,-0.30722 c 0,-0.14552 -0.052504,-0.26459 -0.1166767,-0.26459 -0.064172,0 -0.1902614,0.11907 -0.2801983,0.26459 l -0.1635215,0.26458 h 0.2801983 c 0.1541089,0 0.2801982,-0.11906 0.2801982,-0.26458 z m 0.7884435,-0.40327 c -0.1840759,-0.2218 -0.3891706,-0.34878 -0.4557659,-0.28219 -0.183488,0.18349 0.1893207,0.68546 0.5090842,0.68546 h 0.2813646 z m -1.1412212,-1.09604 -0.176389,-0.17639 v 0.35278 0.35278 l 0.176389,-0.17639 0.1763887,-0.17639 z m -0.2978012,-0.37038 c 0.2847631,-0.46075 -0.039561,-0.55833 -0.4024479,-0.12108 l -0.3346834,0.40327 h 0.2813651 c 0.154751,0 0.3598457,-0.12699 0.4557662,-0.28219 z m -0.7745971,-0.71405 0.2946157,-0.19439 -0.2098736,-0.52916 -0.2098733,-0.52917 -0.018598,0.46302 -0.018595,0.46302 -0.2976562,-0.0661 -0.2976563,-0.0661 -0.1212673,0.33073 -0.1212674,0.33073 0.3527779,-0.004 c 0.1940277,-0.002 0.4853548,-0.0915 0.6473933,-0.19844 z m -0.779685,-4.20723 -0.176389,-0.17639 -0.1763889,0.17639 -0.1763888,0.17638 h 0.3527777 0.3527777 z m 30.3388874,7.96462 v -0.34125 l 0.440973,-0.11532 0.440974,-0.11531 v 0.34124 0.34125 l -0.440974,0.11532 -0.440973,0.11531 z m -10.856817,-0.18591 c -0.116371,-0.18435 -0.607673,-0.6606 -1.09178,-1.05833 l -0.880197,-0.72316 h -1.343623 -1.343624 l 0.463706,-0.51239 0.463705,-0.51239 1.098656,0.0494 1.098656,0.0494 -0.07677,0.45879 -0.07677,0.4588 0.407503,-0.15638 0.407503,-0.15637 v 0.55747 0.55748 h 0.233725 0.233724 l 0.154218,-0.58973 0.154217,-0.58973 0.945438,0.91636 0.945439,0.91635 -0.457909,0.33483 c -0.251849,0.18416 -0.607829,0.33483 -0.791066,0.33483 -0.183237,0 -0.428371,-0.15082 -0.544743,-0.33517 z m 0.449874,-0.98774 c 0,-0.14552 -0.119063,-0.26459 -0.264583,-0.26459 -0.145521,0 -0.264584,0.11907 -0.264584,0.26459 0,0.14552 0.119063,0.26458 0.264584,0.26458 0.14552,0 0.264583,-0.11906 0.264583,-0.26458 z m -7.008962,0.7276 -0.191403,-0.46302 h -0.500859 -0.500859 v 0.26458 0.26459 h -0.396875 -0.396875 v -0.39688 -0.39687 h 0.396875 0.396875 v -0.39688 -0.39687 h 0.926041 0.926042 v -0.26459 -0.26458 h 0.373464 0.373463 l -0.05639,0.38418 c -0.03101,0.2113 -0.243066,0.59826 -0.47123,0.8599 -0.228165,0.26164 -0.47605,0.65431 -0.550857,0.87259 l -0.136013,0.39687 z m 0.658962,-0.98388 v -0.25628 l -0.396875,0.15229 c -0.218281,0.0838 -0.396875,0.19909 -0.396875,0.25628 0,0.0572 0.178594,0.10399 0.396875,0.10399 h 0.396875 z m -6.217708,0.78544 c 0.08994,-0.14552 0.216026,-0.26458 0.280198,-0.26458 0.06417,0 0.116677,0.11906 0.116677,0.26458 0,0.14553 -0.12609,0.26459 -0.280199,0.26459 h -0.280198 z m 49.398237,-0.33998 c -0.320437,-0.34109 -0.582613,-0.70881 -0.582613,-0.81716 v -0.197 l 0.264584,0.16352 0.264583,0.16352 v -0.2802 -0.2802 h -0.557474 -0.557475 l 0.15757,-0.41061 0.157567,-0.41062 -0.196281,0.12131 -0.196281,0.12131 -0.777483,-1.03361 c -0.427617,-0.56848 -0.860801,-1.03361 -0.962631,-1.03361 -0.10183,0 -0.263462,0.31204 -0.359183,0.69342 -0.09572,0.38138 -0.350864,0.87024 -0.566983,1.08637 l -0.392943,0.39294 0.295563,0.35613 0.295563,0.35614 -0.123446,0.47573 -0.12345,0.47573 -0.03069,-0.58601 -0.03069,-0.586 -0.536578,-0.28717 -0.536577,-0.28716 0.153445,-0.24828 0.153445,-0.24828 -0.368229,0.1413 -0.368226,0.14131 -0.37312,-0.45971 -0.373118,-0.4597 0.341333,0.20525 0.341334,0.20525 -0.182822,-0.74978 -0.182824,-0.74977 -0.35695,-0.21159 -0.356946,-0.21158 v -0.38373 -0.38373 h -0.264584 -0.264583 v 0.35587 0.35587 l 0.529167,0.47889 c 0.291041,0.26339 0.524327,0.60926 0.518414,0.76861 l -0.01074,0.28972 -0.742244,-0.86723 -0.742243,-0.86723 -0.503775,0.16433 -0.503775,0.16432 0.926042,-0.61822 c 0.509323,-0.34002 1.212183,-0.95556 1.561915,-1.36786 l 0.635873,-0.74965 0.514776,0.13461 0.514778,0.13462 -0.156781,-0.15678 -0.156779,-0.15678 0.52795,-0.36979 0.527947,-0.36979 0.270674,0.16729 0.270674,0.16729 -0.0727,-0.33428 -0.0727,-0.33428 1.5875,-0.50792 c 0.873125,-0.27935 1.80495,-0.62071 2.070722,-0.75858 0.265774,-0.13786 1.058553,-0.3188 1.76173,-0.40208 l 1.278507,-0.15142 0.99809,0.18724 0.998091,0.18725 -0.378572,0.25967 -0.378568,0.25967 0.859896,-0.16937 0.859896,-0.16936 0.004,0.48404 0.004,0.48404 0.231844,-0.36607 0.231846,-0.36608 0.96637,0.73709 0.966372,0.73709 -0.0828,0.42273 -0.0828,0.42274 -1.221626,-0.0874 -1.221624,-0.0874 -0.56076,0.6019 -0.560758,0.60191 -0.295365,-0.29537 -0.295365,-0.29536 -0.364636,0.13992 -0.364633,0.13993 v -0.27085 c 0,-0.14896 0.148828,-0.33683 0.330729,-0.41748 l 0.33073,-0.14664 -0.396875,0.0461 c -0.218282,0.0253 -0.794893,-0.1655 -1.281359,-0.42408 l -0.884486,-0.47014 -0.151802,0.1518 -0.1518,0.1518 h 0.195287 0.195289 l -0.349629,0.36756 c -0.192296,0.20216 -0.572981,0.67617 -0.84597,1.05336 l -0.496343,0.68579 -0.231262,-0.14293 -0.231261,-0.14292 v 1.76017 1.76018 l 0.529166,0.13838 0.529167,0.13838 v 0.6306 0.6306 h 0.407937 0.40794 l 0.496993,0.46302 0.496996,0.46302 -0.574204,0.0229 c -0.315812,0.0126 -0.758512,0.10538 -0.983779,0.20624 l -0.409572,0.18338 -0.582615,-0.62016 z m 0.89191,-0.32715 c -0.54374,-0.41137 -0.847579,-0.34598 -0.559361,0.12036 l 0.1744,0.28219 0.447408,-0.008 0.447405,-0.008 -0.509852,-0.38572 z m -2.389685,-2.75485 c -0.09592,-0.1552 -0.301016,-0.28218 -0.455766,-0.28218 h -0.281365 l 0.334684,0.40327 c 0.362887,0.43725 0.68721,0.33967 0.402447,-0.12109 z m -1.220102,-2.06812 -0.0186,-0.7276 -0.190172,0.4826 -0.190172,0.4826 -0.247637,-0.0394 c -0.136202,-0.0217 -0.290303,0.0886 -0.342447,0.24501 l -0.09481,0.28442 h 0.551217 0.551214 l -0.0186,-0.7276 z m 0.812348,-1.27239 v -0.41249 l -0.264584,0.16353 c -0.14552,0.0899 -0.264583,0.27555 -0.264583,0.41249 0,0.13693 0.119063,0.24896 0.264583,0.24896 h 0.264584 z m 10.31875,-0.91042 c 0,-0.14552 -0.12609,-0.26459 -0.280199,-0.26459 h -0.280197 l 0.163521,0.26459 c 0.08994,0.14552 0.216027,0.26458 0.280199,0.26458 0.06417,0 0.116676,-0.11906 0.116676,-0.26458 z m -8.202084,-0.27667 0.396875,-0.26857 -0.79375,0.17755 c -0.436562,0.0976 -0.843359,0.22033 -0.903994,0.27262 -0.06063,0.0523 0.117962,0.0932 0.396875,0.091 0.278916,-0.002 0.685713,-0.12491 0.903994,-0.27262 z m 6.80751,0.11681 -0.159853,-0.15985 -0.347266,0.13897 -0.347266,0.13896 0.507119,0.0209 0.507117,0.0209 -0.159851,-0.15985 z m -3.504353,-0.90517 -0.130257,-0.21076 -0.447628,0.0657 c -0.246195,0.0361 -0.488566,0.18851 -0.538604,0.33862 l -0.09097,0.27293 0.668861,-0.12786 0.668861,-0.12786 z m -1.610167,-0.0367 -0.122436,-0.19811 -0.388403,0.14905 c -0.21362,0.082 -0.388401,0.18843 -0.388401,0.23658 0,0.0481 0.229876,0.0702 0.510837,0.0491 l 0.510836,-0.0385 z m -1.031531,-0.75039 c 0.08994,-0.14552 0.103989,-0.26458 0.03123,-0.26458 -0.07276,0 -0.205874,0.11906 -0.295812,0.26458 -0.08994,0.14552 -0.103989,0.26459 -0.03123,0.26459 0.07276,0 0.205875,-0.11907 0.295812,-0.26459 z m 3.571875,-0.25628 v -0.25627 l -0.396875,0.15229 c -0.218282,0.0838 -0.396875,0.19909 -0.396875,0.25628 0,0.0572 0.178593,0.10398 0.396875,0.10398 h 0.396875 z m -14.146305,9.00194 c -0.100714,-0.16296 -0.234448,-0.91747 -0.297188,-1.6767 l -0.114073,-1.38041 0.265597,0.61369 0.265597,0.61369 0.557014,-0.17679 0.557014,-0.17679 -0.186624,0.588 c -0.102643,0.3234 -0.210852,0.75308 -0.240464,0.95484 -0.02961,0.20176 -0.182073,0.49507 -0.338802,0.6518 l -0.284956,0.28495 z m 0.578196,-0.78678 0.03825,-0.50778 -0.352721,-0.13536 -0.352722,-0.13535 0.04749,0.31241 c 0.04676,0.30763 0.403238,0.97387 0.521081,0.97387 0.03321,0 0.07759,-0.2285 0.09862,-0.50779 z m -0.05793,-1.87346 -0.16352,-0.26458 h 0.280196 c 0.154109,0 0.280199,0.11906 0.280199,0.26458 0,0.14552 -0.0525,0.26458 -0.116676,0.26458 -0.06417,0 -0.190262,-0.11906 -0.280199,-0.26458 z"
           id="path2463"
           inkscape:connector-curvature="0" />
      </g>
    </g>
  </g>
</svg>
