<?xml version="1.0" encoding="UTF-8" standalone="no"?>
<!-- Created with Inkscape (http://www.inkscape.org/) -->

<svg
   xmlns:dc="http://purl.org/dc/elements/1.1/"
   xmlns:cc="http://creativecommons.org/ns#"
   xmlns:rdf="http://www.w3.org/1999/02/22-rdf-syntax-ns#"
   xmlns:svg="http://www.w3.org/2000/svg"
   xmlns="http://www.w3.org/2000/svg"
   xmlns:sodipodi="http://sodipodi.sourceforge.net/DTD/sodipodi-0.dtd"
   xmlns:inkscape="http://www.inkscape.org/namespaces/inkscape"
   width="75mm"
   height="120mm"
   viewBox="0 0 75 120"
   version="1.1"
   id="svg8"
   inkscape:version="0.92.4 (5da689c313, 2019-01-14)"
   sodipodi:docname="lapin.svg">
  <defs
     id="defs2" />
  <sodipodi:namedview
     id="base"
     pagecolor="#ffffff"
     bordercolor="#666666"
     borderopacity="1.0"
     inkscape:pageopacity="0.0"
     inkscape:pageshadow="2"
     inkscape:zoom="2.8"
     inkscape:cx="189.70794"
     inkscape:cy="178.58397"
     inkscape:document-units="mm"
     inkscape:current-layer="layer1"
     showgrid="false"
     units="mm"
     inkscape:window-width="1920"
     inkscape:window-height="1017"
     inkscape:window-x="-8"
     inkscape:window-y="-8"
     inkscape:window-maximized="1" />
  <metadata
     id="metadata5">
    <rdf:RDF>
      <cc:Work
         rdf:about="">
        <dc:format>image/svg+xml</dc:format>
        <dc:type
           rdf:resource="http://purl.org/dc/dcmitype/StillImage" />
        <dc:title></dc:title>
      </cc:Work>
    </rdf:RDF>
  </metadata>
  <g
     inkscape:label="Calque 1"
     inkscape:groupmode="layer"
     id="layer1"
     transform="translate(0,-176.99999)">
    <path
       inkscape:connector-curvature="0"
       id="path78"
       d="m 36.698065,276.54599 -1.08029,-0.48086 -1.96242,-0.0796 c -1.07933,-0.0438 -2.51377,0.0138 -3.18764,0.12798 l -1.22521,0.20758 -1.48677,-0.30865 -1.48676,-0.30865 v -0.27668 -0.27669 l -0.52917,0.13838 -0.52917,0.13838 v -0.5127 -0.5127 l -0.40024,-0.15359 -0.40024,-0.15358 -0.33633,0.27912 -0.33633,0.27913 -1.18166,-0.12443 c -0.64991,-0.0684 -1.69468,-0.1939 -2.3217,-0.27881 l -1.14005,-0.15437 -0.37289,0.4923 -0.37289,0.4923 -0.0125,-0.26459 -0.0125,-0.26458 -0.22203,0.35021 -0.22204,0.3502 -1.11378,0.25025 -1.11377,0.25025 -0.28852,-0.17832 -0.28851,-0.17831 0.17057,0.276 0.17057,0.27599 -1.73196,0.3268 -1.731957,0.3268 -1.208582,-0.13623 c -0.664718,-0.0749 -1.283151,-0.23848 -1.374294,-0.36347 -0.09114,-0.12499 -0.284776,-0.22849 -0.430297,-0.23001 -0.14552,-0.002 -0.704296,-0.22023 -1.241723,-0.48603 l -0.977139,-0.48327 -0.08119,-0.83688 -0.08119,-0.8369 -0.992187,0.0302 -0.992188,0.0302 v -0.20759 c 0,-0.11418 -0.382204,-0.29154 -0.849343,-0.39414 l -0.849343,-0.18655 0.912671,-0.43094 0.91267,-0.43095 0.595398,-1.18946 c 0.327469,-0.65421 0.596627,-1.45737 0.598131,-1.78479 l 0.0027,-0.59531 H 6.17617 6.456369 l -0.149226,-0.24145 c -0.08208,-0.1328 -0.177171,-3.19866 -0.211325,-6.81302 l -0.0621,-6.57157 0.613209,-1.98438 c 0.724514,-2.34457 1.90279,-5.02708 2.208109,-5.02708 0.118764,0 0.215935,-0.18562 0.215935,-0.41249 v -0.41249 l 0.261553,0.16165 0.261552,0.16165 -0.167815,-0.43732 -0.167816,-0.43732 0.238498,-0.17174 c 0.418003,-0.30099 1.690695,-2.10991 1.690695,-2.40304 v -0.28223 h 0.421645 0.421645 l 0.13838,-0.52917 0.13838,-0.52917 h 0.335587 c 0.18457,0 0.53061,-0.29765 0.76899,-0.66146 l 0.4334,-0.66145 h 0.42775 0.42776 l 0.30832,-0.42166 0.30832,-0.42165 0.67928,-0.0414 0.67928,-0.0414 -0.10739,-0.28003 -0.10739,-0.28004 0.47187,-0.52704 0.47188,-0.52704 1.13784,0.007 1.13785,0.007 0.2242,-0.36277 c 0.12331,-0.19952 0.6416,-0.50626 1.15174,-0.68164 l 0.92754,-0.31887 1.48073,0.10961 1.48072,0.10962 v -0.26312 -0.26312 l 4.0349,0.0784 4.03489,0.0784 1.98438,0.70027 c 1.0914,0.38514 2.10344,0.85022 2.24896,1.03349 0.14552,0.18328 1.10833,0.83023 2.13958,1.43768 l 1.875,1.10445 1.97505,1.94326 1.97505,1.94327 0.99775,1.64247 0.99776,1.64248 h 0.37771 c 0.20775,0 0.3799,-0.0893 0.38257,-0.19844 0.003,-0.10914 0.0866,-1.27 0.18658,-2.57969 0.1,-1.30968 0.16815,-3.00632 0.15156,-3.77031 l -0.0302,-1.38906 h 0.27354 0.27355 l -0.15875,-0.79375 -0.15875,-0.79375 h 0.25797 0.25796 v -1.32292 -1.32291 h 0.22268 0.22268 l 0.0188,-1.24343 0.0188,-1.24342 0.39489,-0.28875 0.39488,-0.28875 0.30152,-1.11976 0.30153,-1.11977 -0.15975,-0.25848 -0.15972,-0.25848 0.20661,-0.33073 c 0.11363,-0.1819 0.22857,-0.44979 0.25542,-0.59531 0.0268,-0.14552 0.19546,-0.80036 0.37469,-1.45521 0.17924,-0.65484 0.37875,-1.99429 0.44336,-2.97656 l 0.11748,-1.78594 h 0.24288 c 0.13358,0 0.22999,-0.0893 0.21425,-0.19843 -0.0594,-0.41184 0.36497,-1.38907 0.6032,-1.38907 0.56089,0 2.70269,6.5135 3.00156,9.12813 0.0333,0.29104 0.0757,0.61846 0.0943,0.7276 0.0186,0.10914 0.21939,0.19844 0.44625,0.19844 h 0.41249 l -0.18878,0.30546 -0.18879,0.30547 0.30978,-0.19146 0.30978,-0.19145 -0.1538,-0.24886 -0.1538,-0.24885 0.49368,-0.62763 c 0.27153,-0.34519 0.66123,-1.14771 0.866,-1.78338 0.20477,-0.63567 0.45144,-1.21529 0.54816,-1.28805 0.0967,-0.0728 0.65333,-0.87334 1.23691,-1.77907 l 1.06107,-1.64678 0.18068,2.57282 c 0.0994,1.41505 0.3438,3.76345 0.54315,5.21865 0.39106,2.85455 0.40278,3.03553 0.42936,6.62894 l 0.0177,2.39561 -0.44376,1.83773 c -0.6891,2.85374 -1.91959,6.84746 -3.09312,10.03922 l -1.06988,2.90984 -0.1381,1.91881 -0.1381,1.91881 h 0.25924 0.25924 l 0.93918,1.91823 0.93917,1.91823 0.18681,1.14908 0.18681,1.14908 -0.17877,1.43077 -0.17876,1.43077 -0.37781,0.37781 c -0.20781,0.2078 -0.37783,0.61447 -0.37783,0.90372 v 0.5259 l -1.33961,2.00288 c -0.73678,1.10158 -1.69844,2.36171 -2.13701,2.80029 l -0.79742,0.79741 h -0.62008 -0.62008 l -0.17434,-0.79375 -0.17434,-0.79375 h -0.40062 -0.40062 l -0.13838,0.52917 c -0.0761,0.29104 -0.21827,0.52916 -0.31591,0.52916 -0.0976,0 -0.76358,-0.59501 -1.47988,-1.32224 l -1.30236,-1.32224 -1.11801,-0.42697 -1.118,-0.42697 -1.14156,0.15756 c -0.62787,0.0867 -1.2904,0.17927 -1.4723,0.2058 -0.1819,0.0265 -0.33073,0.14748 -0.33073,0.26874 0,0.12127 -0.20836,0.22115 -0.46302,0.22197 -0.25466,7.9e-4 -0.92167,0.12882 -1.48225,0.28448 l -1.01923,0.28301 0.11268,0.58942 0.11267,0.58942 -0.411,0.38286 c -0.22606,0.21058 -0.50063,0.3538 -0.61015,0.31828 -0.10953,-0.0355 -0.27368,0.23236 -0.36477,0.59531 l -0.16563,0.65991 h -0.63277 -0.63278 v 0.26458 c 0,0.37359 -0.49434,0.30159 -1.74174,-0.25365 z"
       style="fill:#ff00ff;stroke-width:0.26458332" />
    <path
       inkscape:connector-curvature="0"
       id="path76"
       d="m 37.700605,276.61172 0.0777,-0.45249 -1.02737,-0.67198 -1.02737,-0.67199 0.4568,-0.0903 0.45681,-0.0903 1.31575,0.81792 c 0.72366,0.44985 1.36737,0.81791 1.43046,0.81791 0.38734,0 -0.02,-0.71352 -0.83202,-1.45726 l -0.94674,-0.86718 0.27743,-0.17145 0.27742,-0.17146 0.93417,0.87065 0.93417,0.87066 -0.16343,0.59531 -0.16342,0.59532 h -0.6306 -0.6306 v 0.26458 0.26458 h -0.40847 -0.40847 z m -27.96809,-0.33069 -0.529166,-0.21683 2.38125,0.004 2.381246,0.004 1.68812,-0.5619 c 1.62509,-0.54093 2.66259,-0.72337 2.353,-0.41378 -0.0815,0.0815 -1.32142,0.43865 -2.75546,0.79375 l -2.60734,0.64564 -1.191242,-0.0186 c -0.655183,-0.0102 -1.429366,-0.11617 -1.720408,-0.23543 z m 26.32604,-0.0106 -0.39687,-0.25648 -1.69775,-0.004 -1.69774,-0.004 0.1673,-0.1673 c 0.092,-0.092 0.8327,-0.15197 1.64597,-0.13322 l 1.47866,0.0341 0.71324,0.3872 c 0.39228,0.21297 0.59417,0.39015 0.44865,0.39375 -0.14552,0.004 -0.44318,-0.10887 -0.66146,-0.24994 z m -28.35151,-0.8505 -0.967136,-0.53916 -0.11159,-0.95585 -0.111589,-0.95584 0.861283,-1.85505 0.861283,-1.85506 0.195759,0.50512 0.19576,0.50512 -0.879116,1.629 -0.879116,1.629 0.175381,0.69878 0.175381,0.69877 0.923856,0.4384 c 0.508121,0.24112 0.923856,0.48437 0.923856,0.54054 0,0.19508 -0.402179,0.0524 -1.364012,-0.48377 z m 45.81401,0.30572 v -0.2802 l 0.26458,0.16352 c 0.14552,0.0899 0.26459,0.21603 0.26459,0.2802 0,0.0642 -0.11907,0.11668 -0.26459,0.11668 -0.14552,0 -0.26458,-0.12609 -0.26458,-0.2802 z m -28.31042,-0.77082 v -0.55309 l -0.40024,-0.15359 -0.40024,-0.15358 -0.33633,0.27912 -0.33633,0.27913 -1.25882,-0.0842 c -0.69235,-0.0463 -1.33324,-0.15857 -1.42419,-0.24952 l -0.16537,-0.16537 1.43316,-0.008 1.43316,-0.008 -0.51359,-0.38846 c -0.28248,-0.21366 -0.75278,-0.38846 -1.04511,-0.38846 h -0.53151 l 0.29135,-0.29135 0.29135,-0.29135 0.80162,0.17606 c 0.44089,0.0968 0.94348,0.34701 1.11688,0.55594 0.17339,0.20892 0.47927,0.37986 0.67974,0.37986 h 0.36447 v -0.35075 c 0,-0.19292 -0.26789,-0.5972 -0.59531,-0.89841 l -0.59531,-0.54765 -1.38881,-0.18472 -1.38882,-0.18472 -1.91848,0.78533 c -1.05516,0.43194 -2.25587,0.86459 -2.66825,0.96144 l -0.74977,0.17611 0.16563,-0.268 c 0.0911,-0.1474 0.66662,-0.40227 1.27894,-0.56638 0.61232,-0.16411 2.10805,-0.79242 3.32384,-1.39625 l 2.21052,-1.09787 1.49364,-1.19364 1.49364,-1.19364 1.37919,-2.05268 1.37918,-2.05268 0.67837,-2.17764 c 0.88387,-2.8373 0.92087,-2.93531 1.05672,-2.79946 0.0635,0.0635 -0.06,0.86729 -0.27441,1.78628 l -0.3898,1.67091 -0.92971,1.85251 c -0.51134,1.01887 -1.293,2.38053 -1.73702,3.02589 l -0.80731,1.17338 -1.83573,1.37376 -1.83573,1.37376 2.055,0.47138 2.055,0.47139 2.24896,-0.14564 2.24896,-0.14564 -0.49823,0.30591 -0.49822,0.30592 -1.13304,-0.0227 -1.13304,-0.0228 -1.08071,0.98787 -1.08072,0.98787 v 0.44162 c 0,0.24289 -0.11906,0.5152 -0.26458,0.60513 l -0.26459,0.16352 v -0.55308 z m 1.45521,-2.38856 0.16352,-0.26459 h -0.52916 c -0.29104,0 -0.60275,0.11907 -0.69269,0.26459 l -0.16352,0.26458 h 0.52917 c 0.29104,0 0.60275,-0.11906 0.69268,-0.26458 z m 13.75026,2.63 0.15597,-0.40644 -0.66926,-0.62874 c -0.92699,-0.87086 -0.86168,-1.84337 0.0716,-1.06566 l 0.3175,0.26459 -0.26458,-0.3175 c -0.14552,-0.17463 -0.26458,-0.53182 -0.26458,-0.79375 v -0.47625 h 0.27025 c 0.14864,0 0.40588,0.29765 0.57164,0.66145 l 0.30138,0.66146 0.42055,0.004 0.42055,0.004 -0.36867,0.23345 -0.36867,0.23345 0.12689,0.4901 0.12688,0.4901 -0.50169,0.52604 -0.5017,0.52604 0.15597,-0.40645 z m 10.18348,-0.94117 -1.17957,-1.22158 -1.05833,-0.4924 -1.05834,-0.4924 -1.00958,-0.006 c -0.55527,-0.003 -1.26964,0.11982 -1.5875,0.27337 l -0.57792,0.27918 0.48438,-0.39011 0.48438,-0.39011 -0.50091,-0.50092 -0.50092,-0.50092 0.0973,-0.29174 0.0972,-0.29174 -0.54373,-0.17257 -0.54373,-0.17258 v -0.35699 c 0,-0.19635 -0.14883,-0.41739 -0.33073,-0.4912 l -0.33073,-0.1342 0.3531,-0.24801 0.35309,-0.24802 -0.55153,-0.14423 c -0.30334,-0.0793 -0.55153,-0.26328 -0.55153,-0.4088 v -0.26459 l 0.59531,0.12273 0.59531,0.12274 -0.79375,-0.45573 -0.79375,-0.45572 0.29428,-0.0985 c 0.16185,-0.0542 0.87623,0.13753 1.5875,0.42608 l 1.29322,0.52464 -0.79375,0.0225 -0.79375,0.0225 0.49477,0.28745 0.49476,0.28745 -0.34867,0.21549 -0.34868,0.21549 0.71381,0.17915 0.7138,0.17916 v 0.36819 0.36819 h 0.51986 0.51986 l 0.2832,0.52917 0.2832,0.52917 h 0.40318 0.40318 l -0.16352,0.26458 -0.16352,0.26458 h 0.79375 0.79375 l 0.15115,0.24456 0.15114,0.24456 -0.46626,0.12162 -0.46626,0.12163 0.99219,0.0307 0.99219,0.0307 v 0.2359 c 0,0.12975 0.29765,0.31061 0.66146,0.40192 l 0.66145,0.16601 v 0.35944 c 0,0.19769 0.1786,0.50766 0.39688,0.68882 l 0.39687,0.32937 v 0.49677 c 0,0.75177 -0.3073,0.61244 -1.59855,-0.72481 z m 3.24931,-0.69665 c 0.0167,-0.32742 0.15149,-0.75444 0.29954,-0.94893 0.14804,-0.1945 0.3588,-0.84934 0.46835,-1.45521 l 0.19918,-1.10159 -0.073,1.50994 -0.073,1.50994 0.34314,-0.4516 0.34313,-0.45161 0.008,0.29505 c 0.0107,0.37552 -1.01374,1.68933 -1.31726,1.68933 h -0.22894 z m -1.99093,-0.77591 -0.73705,-1.04363 -1.31628,-0.81824 c -1.70092,-1.05735 -1.49261,-1.2763 0.29079,-0.30565 l 1.3726,0.74706 0.65146,0.85411 0.65146,0.85412 -0.088,0.37792 -0.088,0.37793 z m -48.210866,-0.14952 -0.79375,-0.11855 0.922973,-0.43816 0.922973,-0.43816 0.357845,-0.74662 c 0.466681,-0.97369 0.659383,-0.76487 0.285061,0.30891 l -0.29166,0.83666 h -0.399299 -0.3993 l 0.152295,0.39687 c 0.08376,0.21829 0.126267,0.37904 0.09445,0.35724 -0.03181,-0.0218 -0.41503,-0.093 -0.851592,-0.15819 z m 49.983226,-1.87211 0.023,-2.04788 -0.81478,-1.64526 -0.81478,-1.64525 h 0.23071 c 0.12689,0 0.58274,0.74414 1.01301,1.65364 l 0.78231,1.65365 2.1e-4,1.90261 2.1e-4,1.90262 -0.22147,0.13687 -0.22146,0.13687 0.023,-2.04787 z m -0.80099,1.50364 c -0.15152,-0.19786 -0.59545,-0.9198 -0.98652,-1.60432 -0.39106,-0.68451 -0.96992,-1.42591 -1.28636,-1.64756 l -0.57535,-0.40298 0.18524,-0.18524 0.18523,-0.18523 0.81459,0.77446 c 0.96335,0.91588 2.17832,2.89168 2.03766,3.31365 l -0.099,0.29696 z m -20.09119,-1.26456 c 0.0827,-0.13385 0.68369,-0.54142 1.33548,-0.90571 l 1.18508,-0.66235 0.14219,0.23006 0.14218,0.23006 -0.9943,0.67565 c -0.54687,0.37161 -1.21182,0.67565 -1.47767,0.67565 h -0.48336 z m 22.51235,-2.12723 -0.46924,-0.5185 0.16426,-0.65449 0.16427,-0.65448 0.57827,-0.18354 0.57828,-0.18354 0.47944,0.59209 c 0.58865,0.72695 0.60496,1.1639 0.0637,1.70519 -0.55309,0.5531 -0.99158,0.5242 -1.55895,-0.10273 z M 5.937833,268.59752 v -0.66146 l 0.133453,0.33073 c 0.0734,0.1819 0.0734,0.47955 0,0.66146 l -0.133453,0.33072 z m 0.184545,-1.65365 c -0.05289,-0.47294 -0.02563,-1.75286 0.06056,-2.84427 l 0.15672,-1.98438 0.04278,2.84428 c 0.04213,2.80098 -0.07166,3.66923 -0.260064,1.98437 z m 36.947637,-0.25243 -1.05833,-0.55977 0.31606,-0.10716 c 0.17383,-0.0589 0.55296,0.0196 0.8425,0.1746 0.28954,0.15496 0.62356,0.27648 0.74227,0.27005 0.11871,-0.006 -0.23065,-0.2474 -0.77635,-0.53549 -0.54571,-0.28809 -0.99219,-0.64001 -0.99219,-0.78206 0,-0.35831 0.0414,-0.34572 1.4456,0.43907 l 1.24766,0.69734 -0.35444,0.22465 -0.35445,0.22466 0.33073,0.004 c 0.1819,0.002 0.33073,0.12311 0.33073,0.26863 0,0.40191 -0.55036,0.29996 -1.71979,-0.31858 z m 0.14527,-1.61975 -0.89812,-0.6154 -0.0424,-0.57522 c -0.0543,-0.73718 -0.003,-0.72826 1.17608,0.20584 l 0.98616,0.78105 v 0.40957 c 0,0.54684 -0.16348,0.51929 -1.22174,-0.20584 z m -0.1078,-1.60973 -0.75629,-0.6186 0.25278,-0.15622 0.25277,-0.15622 0.75145,0.78434 c 0.89212,0.93117 0.57274,1.02475 -0.50071,0.1467 z m 0.49434,-0.68252 -0.75782,-0.79099 0.16558,-0.16558 0.16558,-0.16558 0.6997,0.75814 0.6997,0.75813 -0.58402,-1.00611 c -0.32121,-0.55335 -0.52042,-1.0697 -0.44269,-1.14743 0.21982,-0.21982 1.04424,1.17375 1.12394,1.89987 l 0.0714,0.65054 h -0.19179 c -0.10548,0 -0.5328,-0.35594 -0.9496,-0.79099 z m 1.07225,-0.93126 c -0.24727,-0.52109 -0.40403,-1.08409 -0.34836,-1.25111 l 0.10123,-0.30367 0.45708,1.14238 c 0.56252,1.40587 0.40672,1.71192 -0.20995,0.4124 z m 0.54529,-0.27235 c -0.0907,-0.23646 -0.15743,-0.56902 -0.1482,-0.73902 0.009,-0.16999 0.13084,-0.0239 0.27026,0.32464 0.13943,0.34855 0.20612,0.68111 0.14821,0.73902 -0.0579,0.0579 -0.17953,-0.0882 -0.27027,-0.32464 z m 11.21211,-3.63825 -0.92604,-1.10867 -0.16089,1.05566 -0.1609,1.05565 -0.0375,-0.86947 -0.0375,-0.86947 0.56398,-2.24866 c 0.6603,-2.63269 0.92443,-2.79238 0.4613,-0.27889 l -0.32246,1.75001 0.85846,1.06823 c 0.47215,0.58753 0.82003,1.17759 0.77307,1.31126 l -0.0854,0.24303 z m -26.17515,-0.651 -0.0186,-1.38906 h 0.26458 0.26458 l -0.0186,0.85989 c -0.0102,0.47294 -0.12092,1.09802 -0.24598,1.38906 l -0.22739,0.52917 -0.0186,-1.38906 z m 22.35014,0.92604 c -0.0573,-0.1819 -0.18368,-0.92114 -0.28078,-1.64275 l -0.17654,-1.31202 -0.91853,-1.82395 c -0.99228,-1.97041 -1.04862,-2.65804 -0.0908,-1.10826 0.32424,0.52463 0.62495,0.91785 0.66824,0.87381 0.0433,-0.044 -0.0205,-0.67537 -0.14184,-1.40298 -0.12131,-0.7276 -0.27059,-2.69213 -0.33175,-4.36562 l -0.11119,-3.04271 0.19188,0.87182 c 0.10553,0.4795 0.27707,2.23545 0.38121,3.90211 l 0.18934,3.03028 0.19059,-0.11778 c 0.10482,-0.0648 0.21877,-0.74918 0.25321,-1.52086 0.0344,-0.77169 0.38342,-2.95088 0.77552,-4.84265 l 0.71292,-3.43959 -0.033,-6.55941 c -0.0182,-3.60768 -0.004,-6.52471 0.0308,-6.48229 0.0351,0.0424 0.20484,2.45837 0.37724,5.36879 l 0.31347,5.29166 -0.54542,3.04271 c -0.29997,1.67349 -0.73653,4.29287 -0.97011,5.82084 l -0.42471,2.77812 0.29517,2.43194 c 0.16235,1.33757 0.29518,2.91515 0.29518,3.50573 v 1.07379 h -0.27289 c -0.15009,0 -0.31979,-0.14883 -0.37712,-0.33073 z m -22.36874,-3.65364 v -0.28019 l 0.26458,0.16352 c 0.14552,0.0899 0.26458,0.21603 0.26458,0.2802 0,0.0642 -0.11906,0.11667 -0.26458,0.11667 -0.14552,0 -0.26458,-0.12609 -0.26458,-0.2802 z m 26.21464,-2.51997 0.0209,-0.50712 0.13897,0.34727 c 0.0764,0.19099 0.067,0.4192 -0.0209,0.50712 l -0.15985,0.15985 0.0209,-0.50712 z m -8.21984,-1.6316 c -0.16443,-0.83674 -0.34045,-1.65121 -0.39116,-1.80993 -0.0507,-0.15872 0.014,-0.45637 0.14387,-0.66146 l 0.23605,-0.37288 0.0243,0.66146 c 0.0134,0.3638 0.0664,0.89958 0.11788,1.19062 0.48881,2.76389 0.3797,3.59068 -0.13094,0.99219 z m -18.83272,-0.28914 c -0.22536,-0.70474 -0.79632,-1.87183 -1.26879,-2.59353 l -0.85903,-1.31219 -0.92312,-0.63253 -0.92311,-0.63252 -1.53937,-0.11135 -1.53936,-0.11135 -1.49065,0.68244 -1.49065,0.68244 -1.59663,1.59663 c -0.87814,0.87814 -1.70616,1.59662 -1.84004,1.59662 -0.5634,0 -0.15304,-0.66171 1.24103,-2.00118 l 1.48444,-1.42632 1.60053,-0.79979 1.60052,-0.79979 h 1.70369 1.70369 l 0.89927,0.42673 0.89926,0.42673 0.92993,1.26681 c 0.95723,1.30401 1.78983,3.01771 2.08714,4.29588 l 0.16925,0.7276 h -0.21912 c -0.12052,0 -0.40351,-0.5766 -0.62888,-1.28133 z m 27.33803,0.75216 v -0.66146 l 0.13345,0.33073 c 0.0734,0.18191 0.0734,0.47956 0,0.66146 l -0.13345,0.33073 z m 0.35914,-1.95515 c 0.0705,-0.71154 0.12825,-1.99146 0.12825,-2.84427 v -1.55058 h 0.24919 0.24919 l -0.14803,1.91823 c -0.0814,1.05503 -0.25126,2.33495 -0.37743,2.84427 l -0.22941,0.92604 z m -9.06545,-2.41047 0.005,-1.05834 0.11507,0.5984 c 0.0633,0.32912 0.0609,0.80537 -0.005,1.05834 l -0.12041,0.45993 0.005,-1.05833 z M 9.215892,246.6371 c 0.105088,-0.3638 0.264997,-0.72099 0.355352,-0.79375 0.391306,-0.31511 1.61648,-2.10654 1.61648,-2.3636 v -0.28223 h 0.442995 0.442996 l -0.539204,0.59531 c -0.296562,0.32742 -0.982563,1.25016 -1.524446,2.05052 l -0.985244,1.45521 z m 33.828983,-3.77031 -0.50403,-0.59532 0.59532,0.50403 c 0.55944,0.47367 0.71576,0.6866 0.50402,0.6866 -0.0502,0 -0.31809,-0.26789 -0.59531,-0.59531 z m 14.05829,-2.86752 c -0.10525,-1.6239 -0.34846,-4.15823 -0.54046,-5.63184 -0.192,-1.47361 -0.28378,-2.73882 -0.20394,-2.81158 0.0798,-0.0728 0.19855,0.0173 0.26382,0.20009 0.0653,0.1828 0.20602,0.27839 0.31278,0.21241 l 0.19411,-0.11997 -0.12326,0.83981 c -0.0678,0.4619 0.0297,2.89986 0.21656,5.41769 0.18689,2.51784 0.2795,4.6382 0.20578,4.71191 -0.0737,0.0737 -0.22014,-1.19461 -0.32539,-2.81852 z m -44.857108,2.4045 c 0,-0.14552 0.164898,-0.26459 0.366448,-0.26459 h 0.36644 l 0.43341,-0.66146 0.4334,-0.66145 h 0.52307 0.52307 v -0.27114 c 0,-0.14912 0.32013,-0.39284 0.7114,-0.5416 0.39128,-0.14877 0.86851,-0.49477 1.06052,-0.7689 l 0.3491,-0.49842 1.45303,-0.30165 1.45303,-0.30164 v -0.22531 c 0,-0.12392 0.44648,-0.37357 0.99219,-0.55477 l 0.99218,-0.32947 1.65366,-0.0218 1.65366,-0.0218 -10e-6,0.17246 c -10e-6,0.0948 -0.74416,0.25827 -1.65366,0.36315 l -1.65365,0.1907 -2.11666,0.77251 c -2.14701,0.78358 -4.50517,2.08056 -6.25579,3.44067 -1.03657,0.80534 -1.284838,0.89895 -1.284838,0.48447 z m 35.983328,-1.5875 v -0.52917 h 0.23982 0.23981 l -0.13838,0.52917 c -0.0761,0.29104 -0.18403,0.52916 -0.23981,0.52916 -0.0558,0 -0.10144,-0.23812 -0.10144,-0.52916 z m 0.41883,-1.55199 -0.20723,-0.3353 0.15878,-0.15879 0.15879,-0.15878 0.15985,0.15985 c 0.0879,0.0879 0.10972,0.31026 0.0484,0.49408 l -0.11141,0.33424 z m -12.98653,-0.84645 c -0.72761,-0.26796 -2.0373,-0.64091 -2.91042,-0.82879 l -1.5875,-0.34158 1.309,-0.0843 1.30901,-0.0843 0.93995,0.38847 c 0.51698,0.21365 1.32691,0.53324 1.79985,0.71018 0.47294,0.17695 0.8599,0.42634 0.8599,0.55421 0,0.2968 -0.12215,0.2745 -1.71979,-0.31387 z m 13.36145,-1.24602 v -0.82223 l 0.2606,-0.16106 0.2606,-0.16106 -0.16631,0.87305 c -0.22284,1.16979 -0.35489,1.27074 -0.35489,0.2713 z m 0.45524,-1.81736 -0.17081,-0.27639 0.2671,-0.96735 c 0.1469,-0.53205 0.37097,-0.96736 0.49792,-0.96736 h 0.23082 l -0.25886,0.99219 c -0.14236,0.5457 -0.28956,1.10538 -0.3271,1.24374 l -0.0683,0.25155 z m 1.41932,-4.72464 c -0.009,-0.29104 0.16903,-1.18401 0.39541,-1.98438 0.22639,-0.80036 0.51419,-2.40771 0.63956,-3.57187 l 0.22795,-2.11667 -0.0876,2.64583 -0.0876,2.64584 -0.53574,1.45521 -0.53573,1.4552 z m 7.65044,-2.64584 v -0.39687 h 0.25628 0.25628 l -0.15229,0.39687 c -0.0838,0.21829 -0.19909,0.39688 -0.25628,0.39688 -0.0572,0 -0.10399,-0.17859 -0.10399,-0.39688 z m 2.26597,-3.38484 c 0.0994,-0.26094 0.24731,-0.40778 0.32877,-0.32632 0.0815,0.0815 1.7e-4,0.29495 -0.18065,0.47443 l -0.32877,0.32632 z m -7.62378,-2.40743 c -0.51095,-0.38787 -0.60192,-0.69002 -0.20774,-0.69002 0.1404,0 0.38271,0.23813 0.53847,0.52917 0.33002,0.61665 0.29326,0.63453 -0.33073,0.16085 z"
       style="fill:#00ffff;stroke-width:0.26458332" />
    <path
       inkscape:connector-curvature="0"
       id="path74"
       d="m 37.879845,276.70445 0.2986,-0.35978 -1.05995,-0.73454 c -0.58296,-0.404 -1.05994,-0.77493 -1.05994,-0.8243 0,-0.18384 1.41755,0.45766 2.12592,0.96207 1.48423,1.05686 1.80108,0.38919 0.46801,-0.98618 l -0.84565,-0.8725 h 0.42526 0.42525 l 0.66204,0.78678 0.66203,0.78678 -0.14021,0.53614 -0.1402,0.53614 h -0.6306 -0.6306 v 0.26458 0.26458 h -0.42927 -0.42927 z m -28.14733,-0.43398 -0.529166,-0.22739 0.926041,0.008 c 0.509323,0.004 1.223698,0.1031 1.5875,0.21961 l 0.661455,0.21184 -1.05833,0.008 c -0.582083,0.004 -1.296458,-0.0946 -1.5875,-0.21961 z m 3.78685,-0.18074 c 0.191,-0.0764 0.4192,-0.067 0.50712,0.0209 l 0.15985,0.15986 -0.50712,-0.0209 -0.50712,-0.0209 z m 1.63711,-0.34842 c 0.21828,-0.14107 0.57547,-0.24994 0.79375,-0.24194 l 0.39687,0.0145 -0.52916,0.22739 c -0.29104,0.12507 -0.64823,0.23394 -0.79375,0.24194 l -0.26459,0.0145 z m 18.32239,0.0751 c 0.40019,-0.0606 1.05503,-0.0606 1.45521,0 l 0.72761,0.11022 h -1.45521 -1.45521 z m -26.3147,-0.69968 -0.451684,-0.34319 -0.05611,-0.90517 -0.05611,-0.90516 0.665466,-1.29745 0.665467,-1.29746 0.16135,0.26107 0.16135,0.26107 -0.649757,0.9562 -0.649757,0.9562 v 0.92508 0.92508 l 0.588038,0.41188 c 0.323422,0.22653 0.47225,0.40809 0.33073,0.40346 -0.14152,-0.005 -0.460567,-0.16285 -0.708993,-0.35161 z m 9.33727,0.26495 c 0.0606,-0.0523 0.46743,-0.17497 0.904,-0.27262 l 0.79375,-0.17755 -0.39688,0.26857 c -0.35728,0.24178 -1.56637,0.41057 -1.30087,0.1816 z m 8.6908,-0.43409 c -0.0351,-0.36381 -0.0408,-0.92947 -0.0127,-1.25704 l 0.0512,-0.59558 -0.51053,-0.54799 -0.51052,-0.54798 -1.81464,-0.18983 -1.81464,-0.18984 1.33485,-0.69411 c 1.27953,-0.66533 3.78466,-2.7018 4.61829,-3.7543 0.21828,-0.27558 0.84336,-1.22 1.38906,-2.0987 1.32402,-2.13195 1.27468,-1.61111 -0.0602,0.63588 l -1.05243,1.7715 -1.36374,1.22612 c -0.75006,0.67437 -1.70522,1.42784 -2.12257,1.67437 -0.99279,0.58646 -0.9572,0.80214 0.16721,1.01308 0.50933,0.0955 0.92604,0.25891 0.92604,0.36304 v 0.18931 l 0.85902,-0.12608 0.85902,-0.12607 -0.37155,0.4477 -0.37156,0.44769 0.24014,0.22573 0.24014,0.22573 0.66146,-0.26473 0.66146,-0.26472 -0.52917,-0.2182 -0.52916,-0.21821 1.71979,-0.0222 c 0.94588,-0.0122 2.01745,-0.0904 2.38125,-0.17384 l 0.66146,-0.15163 -0.39688,0.28349 -0.39687,0.28348 -1.19063,0.009 -1.19062,0.009 -0.63549,0.66978 -0.63549,0.66978 -0.3126,-0.11996 -0.3126,-0.11996 -0.0238,0.30551 c -0.0131,0.16802 -0.14176,0.66269 -0.28594,1.09925 l -0.26214,0.79375 -0.0639,-0.66146 z m 25.4526,-0.68576 -1.14328,-1.21492 -1.09911,-0.49906 -1.0991,-0.49906 -0.8957,-0.006 -0.8957,-0.006 -0.62565,-0.67509 c -0.34411,-0.37128 -0.62566,-0.76149 -0.62566,-0.8671 0,-0.10562 -0.36943,-0.51621 -0.82095,-0.91241 l -0.82096,-0.72038 0.49023,0.004 c 0.26962,0.002 0.75812,0.0754 1.08554,0.16316 l 0.59531,0.15953 v 0.345 0.34499 l 0.81242,0.17844 0.81242,0.17843 -0.14266,0.37176 -0.14265,0.37175 h 0.52086 0.52086 l -0.0661,0.31602 -0.0661,0.31602 0.79375,0.18184 c 0.43656,0.10001 0.67469,0.20348 0.52917,0.22992 -0.14552,0.0264 0.003,0.1558 0.33102,0.28747 l 0.59561,0.2394 0.36243,-0.13908 0.36244,-0.13908 0.15813,0.41208 0.15813,0.41208 h 0.52917 0.52917 l -0.13332,0.34742 -0.13332,0.34742 0.5385,0.48734 c 0.53176,0.48124 0.73141,1.19907 0.33349,1.19907 -0.11276,0 -0.71949,-0.54672 -1.3483,-1.21493 z m -10.55138,-0.0576 c -0.32742,-0.36488 -0.59532,-0.78208 -0.59532,-0.9271 v -0.26368 l 0.48386,0.43788 c 0.26612,0.24084 0.58223,0.43788 0.70246,0.43788 h 0.21862 l -0.39767,-0.46302 c -0.21872,-0.25466 -0.47538,-0.68133 -0.57035,-0.94815 l -0.17269,-0.48513 0.33091,0.11673 0.33091,0.11674 -0.035,0.42416 -0.035,0.42417 0.207,-0.0558 c 0.11385,-0.0307 0.21053,0.004 0.21485,0.0765 0.004,0.0728 0.12849,0.44959 0.27594,0.83739 l 0.26807,0.70509 -0.31562,0.11486 -0.31562,0.11485 z m -18.71927,0.21415 -0.16352,-0.26458 h 0.56039 0.5604 l -0.16352,0.26458 c -0.0899,0.14552 -0.26853,0.26458 -0.39688,0.26458 -0.12834,0 -0.30694,-0.11906 -0.39687,-0.26458 z m 1.4552,0.0248 v -0.23981 l 0.56459,0.14764 0.56459,0.14765 -0.12144,-0.37085 -0.12144,-0.37085 -0.90617,-0.31579 -0.90617,-0.3158 0.73692,-0.0149 0.73691,-0.0149 0.65687,0.4304 0.65687,0.4304 -0.46774,0.35494 c -0.25726,0.19521 -0.6761,0.35872 -0.93076,0.36335 l -0.46303,0.008 v -0.23981 z m 31.16927,-0.88466 -0.10818,-0.33073 0.47633,-0.92604 0.47634,-0.92604 5.3e-4,0.34812 c 2.3e-4,0.19147 -0.1325,0.59647 -0.29495,0.90001 l -0.29536,0.5519 0.47896,-0.1838 0.47897,-0.1838 -0.48919,0.54056 c -0.57546,0.63587 -0.58323,0.63812 -0.72333,0.20982 z m -2.03246,-0.86084 -0.62882,-0.92336 -0.89254,-0.55161 c -1.0871,-0.67187 -1.17857,-0.93455 -0.13805,-0.39648 0.80194,0.4147 2.42052,2.11522 2.42052,2.54306 0,0.39551 -0.0862,0.31947 -0.76111,-0.67161 z M 3.184078,272.39111 c 0.181901,-0.0734 0.479557,-0.0734 0.661458,0 l 0.330729,0.13345 H 3.514807 2.853349 Z m 16.205727,-0.22165 c 0.3638,-0.20797 0.78052,-0.37812 0.92604,-0.37812 0.14552,0 -0.0331,0.17015 -0.39687,0.37812 -0.3638,0.20797 -0.78052,0.37813 -0.92604,0.37813 -0.14552,0 0.0331,-0.17016 0.39687,-0.37813 z m 33.00861,-0.76293 c -0.2348,-0.49237 -0.80497,-1.32581 -1.26704,-1.85208 -0.46208,-0.52628 -0.74913,-0.95686 -0.63789,-0.95686 0.33705,0 1.71886,1.65619 2.26268,2.71198 l 0.51106,0.99218 h -0.22095 c -0.12153,0 -0.41307,-0.40285 -0.64786,-0.89522 z m 1.46651,-0.69228 v -1.45521 l 0.11022,0.72761 c 0.0606,0.40018 0.0606,1.05502 0,1.45521 l -0.11022,0.7276 z m -48.855252,0.26459 c 0.217786,-0.43657 0.440592,-0.79375 0.495124,-0.79375 0.05453,0 -0.02537,0.35718 -0.177553,0.79375 -0.152187,0.43656 -0.374992,0.79375 -0.495124,0.79375 H 4.613698 Z m 27.720302,0.0344 c 0.0782,-0.12658 0.53173,-0.38771 1.0078,-0.58029 0.47606,-0.19259 0.9484,-0.47254 1.04963,-0.62211 l 0.18404,-0.27194 0.16726,0.16726 0.16725,0.16725 -1.00803,0.68498 c -0.55442,0.37674 -1.16602,0.68498 -1.35911,0.68498 h -0.35107 z m 22.82185,-2.00525 -0.48277,-0.36538 0.0859,-0.75014 0.0859,-0.75014 0.71838,-0.0828 0.71837,-0.0828 0.18049,0.71909 0.18048,0.71909 -0.25631,0.40633 c -0.35616,0.56464 -0.66854,0.61207 -1.23043,0.18681 z m -12.87869,-0.80733 -0.66145,-0.37812 0.39687,-0.006 c 0.68088,-0.01 1.5875,0.30253 1.5875,0.54704 0,0.34001 -0.5645,0.2704 -1.32292,-0.16315 z m -0.0862,-0.84586 c -1.17068,-0.61514 -0.65179,-0.68433 0.77896,-0.10387 l 1.29161,0.524 -0.66146,-0.0136 c -0.3638,-0.008 -0.9979,-0.19042 -1.40911,-0.40649 z m 0.35078,-0.88143 -0.66146,-0.52489 1.05833,0.42629 c 1.28574,0.51789 1.43183,0.63704 0.7717,0.62938 -0.27891,-0.003 -0.80477,-0.24208 -1.16857,-0.53078 z m 0.43805,-0.55249 c -0.55944,-0.29513 -0.96139,-0.59236 -0.89324,-0.66052 0.1259,-0.12589 2.04269,0.91978 2.04269,1.11435 0,0.14999 -0.0194,0.14232 -1.14945,-0.45383 z m -0.18767,-0.9858 -0.60199,-0.48746 -0.0957,-0.62699 -0.0957,-0.62699 0.8668,0.78167 c 0.47674,0.42992 0.98587,0.87894 1.13139,0.99783 l 0.26458,0.21616 -0.50642,-0.19293 -0.50643,-0.19293 0.19131,0.30955 c 0.27533,0.44549 0.0433,0.38178 -0.64787,-0.17791 z m -0.0226,-1.62041 -0.62463,-0.52036 0.28972,-0.009 c 0.15935,-0.005 0.50523,0.22932 0.76862,0.52036 0.61275,0.67709 0.37428,0.68193 -0.43371,0.009 z m -14.24255,-0.14109 c 0,-0.14552 0.11541,-0.44318 0.25647,-0.66146 l 0.25648,-0.39688 v 0.26459 c 0,0.14552 -0.11541,0.44318 -0.25648,0.66146 l -0.25647,0.39687 z m 14.77481,-0.33073 -0.36313,-0.46302 0.46302,0.36312 c 0.25467,0.19972 0.46302,0.40808 0.46302,0.46302 0,0.21777 -0.21727,0.0776 -0.56291,-0.36312 z m 0.41974,-0.61292 c -0.0959,-0.1552 -0.11765,-0.33893 -0.0483,-0.40828 0.0694,-0.0694 0.1966,0.0576 0.28278,0.28218 0.1789,0.46623 0.0264,0.54824 -0.23448,0.1261 z m 0.67234,-0.24698 c -0.15576,-0.29104 -0.22367,-0.52916 -0.15091,-0.52916 0.0728,0 0.25973,0.23812 0.41549,0.52916 0.15576,0.29104 0.22368,0.52917 0.15091,0.52917 -0.0728,0 -0.25973,-0.23813 -0.41549,-0.52917 z m -14.79578,-2.271 0.0209,-0.50712 0.13896,0.34726 c 0.0764,0.191 0.067,0.4192 -0.0209,0.50712 l -0.15986,0.15985 z m 26.35541,-2.01122 c -0.54329,-0.60897 -0.95411,-1.20831 -0.91292,-1.33187 0.0412,-0.12356 0.52233,0.37469 1.06922,1.10722 0.54688,0.73253 0.95769,1.33187 0.91292,1.33187 -0.0448,0 -0.52593,-0.49824 -1.06922,-1.10722 z m -26.09082,0.42372 0.0209,-0.50712 0.13897,0.34726 c 0.0764,0.191 0.067,0.4192 -0.0209,0.50712 l -0.15985,0.15985 0.0209,-0.50711 z m 22.33799,-0.44412 c -0.10667,-0.54744 -0.13205,-1.23204 -0.0564,-1.52136 l 0.13756,-0.52602 h -0.23981 c -0.1319,0 -0.23982,-0.11131 -0.23982,-0.24736 0,-0.13604 -0.10479,-0.523 -0.23288,-0.85989 -0.12809,-0.3369 -0.21739,-0.69224 -0.19844,-0.78966 0.0189,-0.0974 -0.21573,-0.45461 -0.5215,-0.79375 -0.30577,-0.33915 -0.64322,-0.79522 -0.74988,-1.0135 -0.10666,-0.21828 0.14351,-0.009 0.55595,0.4654 0.41243,0.47426 0.83544,0.86121 0.94001,0.8599 l 0.19014,-0.002 -0.1523,-0.39688 -0.15229,-0.39687 h 0.27839 0.27839 l 0.11019,-1.25678 0.11019,-1.25677 -0.0295,2.18351 c -0.0163,1.20092 0.0437,2.21295 0.1332,2.24896 0.0895,0.036 0.22604,0.77983 0.3034,1.65295 l 0.14064,1.5875 -0.20562,0.52917 -0.20561,0.52916 -0.19397,-0.99533 z m 2.53284,0.17953 0.0209,-0.50712 0.13896,0.34727 c 0.0764,0.191 0.067,0.4192 -0.0209,0.50712 l -0.15985,0.15985 0.0209,-0.50712 z m -3.43958,-6.35 0.0209,-0.50712 0.13897,0.34727 c 0.0764,0.191 0.067,0.4192 -0.0209,0.50712 l -0.15985,0.15985 0.0209,-0.50712 z m -0.20619,-3.28524 v -1.45521 l 0.11022,0.72761 c 0.0606,0.40018 0.0606,1.05502 0,1.4552 l -0.11022,0.72761 z m -22.62216,0.19511 c -0.227,-0.47111 -0.91115,-1.41967 -1.52034,-2.10791 l -1.10761,-1.25134 -1.10678,-0.29854 -1.10677,-0.29854 -1.32292,0.13965 -1.32291,0.13965 0.52916,-0.22482 c 0.73978,-0.3143 2.46495,-0.3093 3.61626,0.0105 l 0.97042,0.26953 0.7982,0.9091 c 0.91492,1.04204 2.27712,3.27821 2.10302,3.4523 -0.0644,0.0644 -0.30274,-0.26844 -0.52973,-0.73955 z m 19.14507,0.33406 v -0.66146 l 0.13345,0.33073 c 0.0734,0.1819 0.0734,0.47955 0,0.66146 l -0.13345,0.33072 z m -31.80624,-0.23756 c 0.61327,-1.1459 4.54778,-4.04857 4.94684,-3.64951 0.0652,0.0652 -0.41556,0.43166 -1.06844,0.81427 -0.65288,0.38261 -1.79729,1.29004 -2.54313,2.01652 -1.46228,1.4243 -1.75563,1.60417 -1.33527,0.81872 z m 36.54785,0.0832 0.0209,-0.50712 0.13896,0.34726 c 0.0764,0.191 0.067,0.4192 -0.0209,0.50712 l -0.15985,0.15985 0.0209,-0.50711 z m 0.28547,-1.43316 v -0.66146 l 0.13345,0.33073 c 0.0734,0.1819 0.0734,0.47955 0,0.66146 l -0.13345,0.33072 z M 9.33567,246.37252 c 0.155761,-0.29105 0.342733,-0.52917 0.415494,-0.52917 0.07276,0 0.0048,0.23812 -0.15091,0.52917 -0.155761,0.29104 -0.342733,0.52916 -0.415494,0.52916 -0.07276,0 -0.0048,-0.23812 0.15091,-0.52916 z m 1.058334,-1.6874 c 0,-0.0549 0.208359,-0.2633 0.46302,-0.46302 l 0.463021,-0.36313 -0.363126,0.46303 c -0.345643,0.44073 -0.562915,0.58088 -0.562915,0.36312 z m 0.79375,-1.22302 c 0,-0.14552 0.126089,-0.26458 0.280198,-0.26458 h 0.280198 l -0.163521,0.26458 c -0.08994,0.14552 -0.216026,0.26458 -0.280199,0.26458 -0.06417,0 -0.116676,-0.11906 -0.116676,-0.26458 z m 42.618801,-0.68351 0.0209,-0.50712 0.13896,0.34727 c 0.0764,0.191 0.067,0.4192 -0.0209,0.50712 l -0.15986,0.15985 z m -41.560498,-0.37478 c 0,-0.14552 0.126088,-0.26459 0.280198,-0.26459 h 0.2802 l -0.16352,0.26459 c -0.0899,0.14552 -0.21603,0.26458 -0.2802,0.26458 -0.06417,0 -0.116678,-0.11906 -0.116678,-0.26458 z m 1.058338,-0.77834 c 0,-0.29335 1.03831,-0.91737 1.22154,-0.73415 0.0648,0.0648 -0.18349,0.31536 -0.55183,0.5567 l -0.66971,0.43882 z m 40.83051,-1.33833 v -1.71979 l 0.10672,0.85989 c 0.0587,0.47295 0.0587,1.24685 0,1.7198 l -0.10672,0.85989 z m -39.24301,0.28125 v -0.30878 l 0.77253,-0.26931 0.77254,-0.2693 0.14096,-0.36735 0.14097,-0.36735 1.53389,-0.44298 c 0.84364,-0.24364 1.59343,-0.52676 1.66619,-0.62916 0.0728,-0.1024 0.53701,-0.32474 1.03167,-0.4941 l 0.89938,-0.30792 1.21728,0.0311 1.21729,0.0311 -1.19062,0.20682 c -1.39506,0.24234 -5.36385,1.66338 -6.25887,2.24102 -0.34116,0.22019 -0.91795,0.59262 -1.28176,0.82764 l -0.66145,0.42731 z m 21.65072,-2.00205 c -0.0733,-0.0733 -1.01589,-0.36441 -2.09461,-0.64689 l -1.96132,-0.51359 0.79375,-0.0102 0.79375,-0.0102 1.71979,0.64328 c 0.94588,0.35381 1.53127,0.64949 1.30087,0.65707 -0.23041,0.008 -0.47891,-0.0462 -0.55223,-0.11951 z m 17.59831,-2.11566 0.002,-2.11667 0.10163,1.13148 c 0.0559,0.62231 0.0551,1.57481 -0.002,2.11666 l -0.10337,0.9852 0.002,-2.11667 z m -4.56773,-1.87413 0.0209,-0.50712 0.13896,0.34727 c 0.0764,0.19099 0.067,0.4192 -0.0209,0.50712 l -0.15985,0.15985 0.0209,-0.50712 z m 0.26458,-1.05833 0.0209,-0.50712 0.13896,0.34726 c 0.0764,0.191 0.067,0.4192 -0.0209,0.50712 l -0.15986,0.15985 z m 6.61047,-0.89077 -0.0168,-0.91281 0.27265,0.27265 0.27265,0.27265 -0.25588,0.64016 -0.25588,0.64016 -0.0168,-0.91281 z m -5.4207,-2.52677 c 0.088,-0.29104 0.3286,-1.24354 0.53458,-2.11667 l 0.37449,-1.5875 -0.12658,1.2409 c -0.0696,0.68249 -0.31018,1.63499 -0.53458,2.11666 -0.2244,0.48168 -0.33596,0.63765 -0.24791,0.34661 z m 0.98168,-5.82083 0.004,-1.32292 0.11058,0.73124 c 0.0608,0.40219 0.0592,0.9975 -0.004,1.32292 l -0.11419,0.59167 0.004,-1.32291 z m 0.71808,-2.55764 c 0,-0.12127 0.11204,-0.22049 0.24897,-0.22049 0.13693,0 0.31029,0.0992 0.38523,0.22049 l 0.13627,0.22049 h -0.38523 c -0.21188,0 -0.38524,-0.0992 -0.38524,-0.22049 z"
       style="fill:#00ffff;stroke-width:0.26458332" />
  </g>
</svg>
