<?xml version="1.0" encoding="UTF-8" standalone="no"?>
<!-- Created with Inkscape (http://www.inkscape.org/) -->

<svg
   xmlns:dc="http://purl.org/dc/elements/1.1/"
   xmlns:cc="http://creativecommons.org/ns#"
   xmlns:rdf="http://www.w3.org/1999/02/22-rdf-syntax-ns#"
   xmlns:svg="http://www.w3.org/2000/svg"
   xmlns="http://www.w3.org/2000/svg"
   xmlns:sodipodi="http://sodipodi.sourceforge.net/DTD/sodipodi-0.dtd"
   xmlns:inkscape="http://www.inkscape.org/namespaces/inkscape"
   width="75mm"
   height="120mm"
   viewBox="0 0 75 120"
   version="1.1"
   id="svg8"
   inkscape:version="0.92.4 (5da689c313, 2019-01-14)"
   sodipodi:docname="saule1.svg">
  <defs
     id="defs2" />
  <sodipodi:namedview
     id="base"
     pagecolor="#ffffff"
     bordercolor="#666666"
     borderopacity="1.0"
     inkscape:pageopacity="0.0"
     inkscape:pageshadow="2"
     inkscape:zoom="1.979899"
     inkscape:cx="55.020501"
     inkscape:cy="213.48356"
     inkscape:document-units="mm"
     inkscape:current-layer="layer1"
     showgrid="false"
     units="mm"
     inkscape:window-width="1920"
     inkscape:window-height="1017"
     inkscape:window-x="-8"
     inkscape:window-y="-8"
     inkscape:window-maximized="1" />
  <metadata
     id="metadata5">
    <rdf:RDF>
      <cc:Work
         rdf:about="">
        <dc:format>image/svg+xml</dc:format>
        <dc:type
           rdf:resource="http://purl.org/dc/dcmitype/StillImage" />
        <dc:title />
      </cc:Work>
    </rdf:RDF>
  </metadata>
  <g
     inkscape:label="Calque 1"
     inkscape:groupmode="layer"
     id="layer1"
     transform="translate(0,-176.99999)">
    <path
       style="fill:#e5e2c9;stroke-width:0.26458335"
       d="m 32.706251,264.11105 c -0.102508,-4.02565 0.14688,-27.6684 0.380253,-36.04948 0.09725,-3.4925 0.234625,-9.02891 0.305282,-12.30313 0.121235,-5.61808 0.361024,-8.32244 1.348957,-15.21354 0.454557,-3.17067 1.479121,-6.77361 1.63645,-5.75469 0.05056,0.32742 0.183386,0.59531 0.295172,0.59531 0.111789,0 0.346829,1.39899 0.522314,3.10886 0.175482,1.70987 0.42771,4.06135 0.560504,5.22552 0.132795,1.16417 0.310534,3.54542 0.394978,5.29167 0.08444,1.74625 0.264951,5.25859 0.40113,7.8052 0.136178,2.54662 0.317015,7.13053 0.401865,10.18646 0.08485,3.05594 0.203514,7.28266 0.263705,9.39271 0.177961,6.23876 0.151341,24.76603 -0.03824,26.61648 -0.194347,1.89692 -0.482928,2.36136 -0.722614,1.16294 -0.08657,-0.43285 -0.172209,-6.71146 -0.190315,-13.95248 -0.0181,-7.24101 -0.131717,-14.95142 -0.252476,-17.13423 -0.120758,-2.18281 -0.285125,-7.24297 -0.36526,-11.24479 -0.151333,-7.55749 -0.270983,-10.55061 -0.69788,-17.45799 -0.139251,-2.25309 -0.25318,-5.04113 -0.25318,-6.19566 0,-1.15452 -0.06846,-2.03067 -0.152138,-1.94699 -0.185137,0.18513 -0.05179,32.85359 0.159575,39.09439 0.133723,3.94831 -0.264655,28.67347 -0.465225,28.87404 -0.480449,0.48045 -0.676566,-6.70487 -0.759198,-27.81571 -0.04414,-11.27786 -0.08237,-20.6838 -0.08496,-20.90208 -0.04452,-3.76289 0.06212,-8.75607 0.267771,-12.53719 0.141552,-2.60259 0.209299,-4.78005 0.150548,-4.8388 -0.265308,-0.26531 -0.72173,5.30568 -0.849148,10.36453 -0.07697,3.05594 -0.188217,6.09203 -0.247214,6.74687 -0.162943,1.80857 -0.364127,9.83346 -0.537287,21.43125 -0.08582,5.74808 -0.209325,11.93933 -0.274457,13.75834 -0.06513,1.81901 -0.175869,5.33135 -0.246084,7.80521 -0.138578,4.88236 -0.331028,6.74687 -0.696394,6.74687 -0.128997,0 -0.244395,-0.38695 -0.256436,-0.85989 z m 8.65728,-0.0188 c -0.183875,-0.72908 -0.439203,-9.85202 -0.453028,-16.1869 -0.0038,-1.74625 -0.11861,-5.49672 -0.255106,-8.33438 -0.136493,-2.83766 -0.31057,-6.76672 -0.386834,-8.73125 -0.07627,-1.96453 -0.251653,-5.23875 -0.389752,-7.27604 -0.138099,-2.03729 -0.321,-5.07339 -0.406448,-6.74688 -0.08544,-1.67349 -0.26616,-3.9952 -0.401584,-5.15937 -0.270664,-2.32671 -0.450072,-4.13103 -0.670862,-6.74688 -0.07984,-0.94588 -0.326702,-3.1925 -0.54859,-4.99248 -0.599104,-4.86003 0.03088,-4.80602 1.715958,0.14711 0.757558,2.22677 1.591712,5.51807 1.764475,6.96204 0.07835,0.65484 0.3224,2.23833 0.542335,3.51886 0.444537,2.58821 1.249211,10.96029 1.696198,17.64781 0.160489,2.40109 0.34435,5.02047 0.408581,5.82083 0.06423,0.80037 0.19359,8.03341 0.287464,16.07344 0.161425,13.82537 0.103674,15.44582 -0.513905,14.41979 -0.06569,-0.10914 -0.194765,-4.48469 -0.286825,-9.72344 -0.09206,-5.23875 -0.221313,-10.65609 -0.287229,-12.03854 -0.06591,-1.38245 -0.189386,-4.23995 -0.27438,-6.35 -0.08499,-2.11005 -0.253103,-5.08661 -0.373574,-6.61458 -0.120472,-1.52797 -0.212272,-3.01625 -0.203999,-3.30729 0.02006,-0.7059 -0.342082,-4.71534 -0.728895,-8.0698 -0.05873,-0.50932 -0.237432,-2.41432 -0.39711,-4.23333 -0.579951,-6.60658 -1.661658,-12.88978 -2.755792,-16.00729 -0.659614,-1.87945 -0.923031,-1.54841 -0.421079,0.52916 0.447556,1.85243 1.281766,7.54027 1.707436,11.64167 0.226546,2.18281 0.466748,4.38547 0.533783,4.89479 0.132469,1.00648 0.318106,3.23591 0.528741,6.35 0.07382,1.09141 0.263509,3.59172 0.421524,5.55625 0.158017,1.96454 0.292428,3.75047 0.298696,3.96875 0.0063,0.21829 0.115892,2.54 0.243609,5.15938 0.293037,6.00983 0.301805,26.72188 0.01175,27.78125 l -0.217318,0.79375 -0.188251,-0.74643 z m 5.582245,0.34957 c -0.09613,-0.21829 -0.302342,-3.43297 -0.45824,-7.14375 -0.1559,-3.71079 -0.328961,-7.63985 -0.384582,-8.73125 -0.05562,-1.09141 -0.176342,-3.94891 -0.268269,-6.35 -0.09193,-2.4011 -0.28987,-5.91344 -0.43987,-7.80521 -0.15,-1.89177 -0.331602,-4.57068 -0.403558,-5.95313 -0.128783,-2.47421 -0.245692,-3.61761 -1.014495,-9.92187 -0.212952,-1.74625 -0.461377,-3.82985 -0.552055,-4.63021 -0.09068,-0.80037 -0.214765,-1.53635 -0.275752,-1.63552 -0.06099,-0.0992 -0.173556,-0.87308 -0.250148,-1.7198 -0.305255,-3.37446 -2.17338,-10.07395 -3.575399,-12.82214 -0.30072,-0.58946 -0.486116,-1.13238 -0.411993,-1.20651 0.109053,-0.10905 2.097394,3.85622 3.078422,6.13918 0.954725,2.22174 2.59484,10.73662 3.057805,15.875 0.07867,0.87312 0.190963,1.82562 0.249545,2.11666 0.05858,0.29104 0.175932,1.48167 0.260781,2.64584 0.08485,1.16416 0.229801,2.65244 0.322114,3.30729 0.09232,0.65484 0.152443,1.26496 0.13362,1.35581 -0.01881,0.0909 0.07362,1.5196 0.20542,3.175 0.268608,3.37363 0.449381,6.47037 0.66222,11.34419 0.07944,1.81901 0.205828,4.0812 0.280869,5.02708 0.418615,5.27657 0.255915,18.00584 -0.216435,16.93334 z M 29.919185,249.16209 c 0.09648,-7.96727 0.214458,-15.02172 0.262186,-15.67657 0.04773,-0.65484 0.167913,-3.81 0.267079,-7.01145 0.323196,-10.43394 0.454469,-11.88884 1.874022,-20.7698 0.598943,-3.74708 1.389915,-7.12396 2.138093,-9.12812 0.137398,-0.36805 0.112202,-0.44861 -0.08276,-0.26458 -0.420428,0.39684 -1.530173,4.28221 -2.45605,8.59895 -1.048441,4.88817 -1.008132,4.67294 -1.151017,6.14618 -0.06676,0.68826 -0.182653,1.35054 -0.257554,1.47173 -0.0749,0.12119 -0.204776,1.10588 -0.28861,2.1882 -0.08384,1.08232 -0.259032,2.92035 -0.389324,4.08452 -0.130294,1.16417 -0.234071,2.29526 -0.230616,2.51354 0.0035,0.21828 -0.119155,1.46844 -0.27247,2.77813 -0.605362,5.17133 -0.865037,12.0658 -0.961655,25.53229 -0.09624,13.41331 -0.09843,13.49375 -0.368371,13.49375 -0.248367,0 -0.423933,-1.65283 -0.843134,-7.9375 -0.516123,-7.73774 -0.322896,-17.46648 0.543894,-27.38438 0.152616,-1.74625 0.330736,-4.18703 0.395823,-5.42396 0.466053,-8.85697 2.897648,-20.7036 5.159608,-25.13741 0.644226,-1.26279 0.56388,-1.68637 -0.12147,-0.6404 -0.518419,0.79121 -2.361208,5.6426 -2.659907,7.00256 -0.10854,0.49418 -0.295965,1.08101 -0.416501,1.30407 -0.314865,0.58267 -1.435413,5.69306 -2.061427,9.40139 -0.918317,5.43983 -1.402728,8.72236 -1.327664,8.99667 0.03969,0.14506 -0.0078,0.62094 -0.105493,1.0575 -0.173545,0.77534 -0.992669,14.14117 -1.012745,16.5252 -0.102133,12.12809 -0.257087,20.96411 -0.380114,21.67541 -0.901851,5.21418 -1.304817,-17.06424 -0.53064,-29.33707 0.448214,-7.10542 1.085224,-13.60646 1.607377,-16.40417 0.203696,-1.0914 0.424825,-2.34156 0.491398,-2.77812 0.177092,-1.1613 0.647158,-3.33984 1.389344,-6.43898 0.928918,-3.87885 2.310969,-7.53132 3.682302,-9.73153 0.648967,-1.04123 1.179658,-1.996 1.179316,-2.12173 -0.0016,-0.55875 -1.589548,1.71108 -2.579171,3.68651 -1.83356,3.66003 -2.928414,7.38479 -5.498654,18.70677 -0.627009,2.76199 -1.382047,8.83987 -1.577686,12.7 -0.09957,1.96453 -0.221848,3.9886 -0.271737,4.49792 -0.398501,4.06836 -0.672219,14.10347 -0.528535,19.37729 0.167534,6.14922 0.03079,8.93209 -0.416904,8.4844 -0.542613,-0.54261 -0.797076,-4.76409 -0.798293,-13.24346 -7.15e-4,-4.98408 0.05137,-9.15127 0.115737,-9.26041 0.06437,-0.10915 0.197384,-2.16298 0.295583,-4.56407 0.0982,-2.4011 0.225278,-4.60375 0.282397,-4.89479 0.05712,-0.29105 0.175243,-1.42214 0.262499,-2.51355 0.519065,-6.49252 1.287232,-11.88558 2.298863,-16.13958 1.165787,-4.90224 4.018077,-12.23408 5.581955,-14.34847 0.867272,-1.17257 1.0528,-1.52662 0.799663,-1.52602 -0.2632,6.4e-4 -1.635146,2.05274 -2.564545,3.83595 -2.104703,4.03823 -3.708537,8.31287 -4.765002,12.7 -0.385472,1.60073 -0.818114,3.32713 -0.961427,3.83646 -0.323768,1.15064 -1.22369,7.82829 -1.461933,10.84791 -0.09759,1.23693 -0.223569,2.48709 -0.279951,2.77813 -0.134865,0.69618 -0.577963,5.5643 -0.614102,6.74687 -0.01557,0.50933 -0.124722,2.41433 -0.242571,4.23334 -0.117849,1.81901 -0.238815,7.23062 -0.268814,12.0258 -0.03,4.79519 -0.109882,8.77386 -0.177521,8.8415 -0.542252,0.54225 -0.931392,-2.89515 -1.08934,-9.62251 -0.154603,-6.58489 0.05679,-10.71543 1.252536,-24.47396 0.94298,-10.85014 2.142933,-16.70601 4.4701,-21.81446 0.294466,-0.64639 0.535392,-1.2562 0.535392,-1.35513 0,-0.42689 1.514571,-3.56118 2.48419,-5.14083 1.249975,-2.03638 2.23812,-3.22678 3.675228,-4.42745 1.039619,-0.86857 1.642689,-0.99603 0.989639,-0.20915 -0.609187,0.73403 0.0864,0.41819 0.974283,-0.44238 0.479873,-0.46511 0.872493,-0.72705 0.872493,-0.58209 0,0.14497 -0.142875,0.40645 -0.3175,0.58107 -0.623705,0.62371 0.08989,0.30448 0.792067,-0.35433 l 0.716058,-0.67183 -1.190625,0.0591 c -1.577282,0.0782 -2.160593,0.39475 -4.074125,2.21065 -1.056622,1.00271 -3.069625,3.39362 -3.069625,3.6459 0,0.0645 -0.460496,0.95503 -1.023324,1.97895 -1.432093,2.60532 -2.989942,6.33604 -3.970065,9.50745 -0.880439,2.84887 -2.260755,8.66207 -2.532248,10.66457 -0.08878,0.65484 -0.285018,2.0836 -0.43608,3.175 -0.793559,5.73336 -0.756081,5.42926 -1.157573,9.39271 -0.07371,0.7276 -0.241166,2.27542 -0.372134,3.43958 -0.130967,1.16417 -0.254456,2.29526 -0.274419,2.51355 -0.08702,0.95149 -0.290994,10.81003 -0.301084,14.55208 -0.0121,4.48667 -0.207005,7.14375 -0.524022,7.14375 -0.112117,0 -0.409607,-0.92274 -0.66109,-2.05052 -0.390563,-1.75151 -0.434278,-2.93792 -0.299778,-8.13594 0.08661,-3.34698 0.214628,-6.35634 0.284497,-6.68747 0.06987,-0.33113 0.152672,-1.93848 0.184007,-3.57188 0.08221,-4.28536 1.209904,-13.88034 2.487124,-21.16171 0.362279,-2.06533 0.658689,-3.78793 0.658689,-3.82798 0,-0.0401 -0.233536,-0.0728 -0.518968,-0.0728 -0.388403,0 -0.592362,0.28291 -0.810688,1.12448 -0.160445,0.61847 -0.406099,1.5412 -0.545896,2.05052 -0.607107,2.21187 -1.836786,8.90908 -2.236758,12.18206 -0.239182,1.95724 -0.483335,3.63702 -0.542562,3.73285 -0.05923,0.0958 -0.168303,1.2703 -0.242392,2.60993 -0.07409,1.33963 -0.199055,2.53981 -0.277703,2.66706 -0.07865,0.12725 -0.160385,4.69801 -0.181639,10.15724 -0.02125,5.45923 -0.1344,9.92587 -0.251435,9.92587 -0.117036,0 -0.220603,-0.0893 -0.230149,-0.19844 -0.699783,-8.00035 -0.70305,-14.9546 -0.01091,-23.21719 0.599251,-7.15368 1.626086,-14.15365 2.923228,-19.92773 0.304596,-1.35587 0.485185,-2.57626 0.401309,-2.71198 -0.08387,-0.13571 -0.04476,-0.24675 0.08692,-0.24675 0.131679,0 0.497431,-0.88798 0.812782,-1.9733 0.966771,-3.32724 2.862598,-7.27676 5.21247,-10.85899 1.362166,-2.07654 5.043942,-5.98902 6.602767,-7.01652 0.434411,-0.28634 0.650065,-0.5214 0.479232,-0.52236 -0.326168,-0.002 -5.111648,3.93253 -5.115692,4.20585 -0.0013,0.0869 -0.653328,0.8724 -1.448982,1.74553 -0.795653,0.87312 -1.449445,1.6926 -1.45287,1.82105 -0.0034,0.12845 -0.214586,0.42644 -0.469247,0.66221 -1.173858,1.08675 -5.474512,10.97315 -5.163701,11.87039 0.06301,0.1819 0.0019,0.33072 -0.135844,0.33072 -0.137727,0 -0.451326,0.68461 -0.696886,1.52136 -0.24556,0.83674 -0.619046,2.10057 -0.829969,2.80851 -0.210923,0.70793 -0.383496,1.56411 -0.383496,1.90261 0,0.3385 -0.108703,0.68264 -0.241562,0.76475 -0.132858,0.0821 -0.319772,0.65469 -0.415364,1.27239 -0.09559,0.6177 -0.399749,2.37325 -0.675904,3.90122 -0.458666,2.53779 -0.949652,6.17417 -1.196761,8.86354 -0.05348,0.58208 -0.232707,2.18943 -0.398274,3.57188 -0.165568,1.38244 -0.33449,6.50213 -0.375382,11.37708 -0.04089,4.87495 -0.0883,9.13846 -0.105344,9.47447 -0.05279,1.04058 -0.468441,0.40658 -0.8202244,-1.2511 -0.2526879,-1.19072 -0.2927236,-3.56347 -0.1619634,-9.59889 0.2238838,-10.33366 0.6523125,-15.01842 2.1728788,-23.7599 0.979992,-5.63381 2.93688,-12.75018 4.346388,-15.80597 0.28454,-0.61688 0.517345,-1.23203 0.517345,-1.36701 0,-0.13498 0.0893,-0.28511 0.198438,-0.33362 0.10914,-0.0485 0.545484,-0.7824 0.969653,-1.63089 3.044488,-6.09003 7.823677,-11.20927 12.641463,-13.54093 1.517576,-0.73446 2.701708,-0.71686 2.412863,0.0359 -0.137414,0.3581 -0.07624,0.37848 0.388821,0.12959 0.772186,-0.41326 1.213625,-0.36981 1.849985,0.1821 0.540118,0.46845 0.540882,0.48349 0.04048,0.796 -0.280522,0.17518 -0.51004,0.43657 -0.51004,0.58086 0,0.31871 0.576133,0.23111 0.884854,-0.13453 0.125449,-0.14858 0.142033,-0.0326 0.03782,0.26458 -0.367589,1.0482 -1.443292,6.76726 -1.726407,9.1786 -0.159057,1.35469 -0.339193,2.76073 -0.400306,3.12453 -0.09293,0.55317 -0.398981,3.25642 -0.793819,7.01146 -0.554834,5.27666 -1.123379,18.96069 -1.308153,31.48541 -0.151548,10.27257 -0.349795,15.7557 -0.628978,17.39636 -0.01857,0.10914 -0.169468,0.19844 -0.335325,0.19844 -0.224155,0 -0.256535,-3.7183 -0.126151,-14.48594 z m -10.31096,-35.45417 c 0.395038,-1.56435 0.822237,-3.0824 0.949331,-3.37344 0.127094,-0.29104 0.313639,-0.82682 0.414544,-1.19062 0.32501,-1.17179 3.257032,-7.17254 4.195108,-8.58581 1.417286,-2.13523 3.263386,-4.05531 5.22061,-5.42982 0.986472,-0.69277 1.722866,-1.33031 1.636429,-1.41674 -0.49027,-0.49027 -5.38728,3.97873 -7.487865,6.83341 -1.474295,2.00355 -4.923799,9.19895 -4.634456,9.66712 0.07417,0.12 0.01961,0.28941 -0.121252,0.37647 -0.26611,0.16447 -1.869196,4.97003 -1.869196,5.60329 0,0.19823 0.220162,0.36041 0.489248,0.36041 0.401058,0 0.618717,-0.5127 1.207499,-2.84427 z m 33.146825,47.82344 c -0.282012,-2.4523 -0.437203,-4.71827 -0.616106,-8.99583 -0.220052,-5.26144 -0.226407,-5.34989 -0.418071,-5.82084 -0.332415,-0.81678 -0.445635,-2.10167 -0.198647,-2.25431 0.354923,-0.21935 0.31686,-1.8514 -0.12637,-5.4186 -0.207933,-1.67349 -0.447794,-3.93568 -0.533024,-5.02709 -0.08523,-1.0914 -0.336791,-3.35359 -0.559028,-5.02708 -0.222236,-1.67349 -0.520398,-4.05474 -0.662582,-5.29167 -0.470961,-4.09706 -0.832882,-6.10487 -2.003108,-11.1125 -1.574628,-6.73814 -3.743341,-11.98861 -6.25639,-15.14676 -1.13629,-1.42798 -1.182489,-1.5276 -0.337722,-0.72824 1.314479,1.24383 2.85261,3.28214 3.693657,4.89479 0.970394,1.86067 2.67643,6.29832 3.203834,8.33363 0.24451,0.9436 0.519824,1.83579 0.611812,1.98267 0.09199,0.14687 0.188026,0.40357 0.213416,0.57045 0.0254,0.16687 0.230296,1.11937 0.455342,2.11666 0.594022,2.63239 1.433719,7.8529 1.632204,10.14763 0.0944,1.09141 0.280221,2.63922 0.412928,3.43959 1.222523,7.37313 2.525387,30.47413 1.895109,33.60208 l -0.239908,1.19063 z m 2.367685,0.34856 c -0.332513,-2.27644 -0.438132,-3.90965 -0.587193,-9.07981 -0.08601,-2.98318 -0.196736,-5.84068 -0.246068,-6.35 -0.04933,-0.50932 -0.164816,-2.46599 -0.256637,-4.34815 -0.09182,-1.88215 -0.219136,-3.50654 -0.282917,-3.60974 -0.06378,-0.1032 -0.175413,-1.12309 -0.24807,-2.26643 -0.30675,-4.82693 -1.074529,-10.92605 -2.27674,-18.0861 -0.408159,-2.43088 -1.474354,-6.60003 -2.402038,-9.39271 -1.482498,-4.46288 -4.599432,-10.07344 -6.413397,-11.54427 -0.304371,-0.24679 -0.482679,-0.51977 -0.396237,-0.60661 0.269822,-0.27107 3.329127,2.8787 4.357592,4.48645 3.192827,4.99119 4.377322,8.86178 6.596377,21.55506 0.981623,5.61501 2.667775,20.65695 2.564186,22.87478 -0.02008,0.43014 0.109431,0.87663 0.287824,0.99219 0.250418,0.16222 0.240549,0.26411 -0.04329,0.44698 -0.287599,0.1853 -0.327123,0.64813 -0.181525,2.12571 0.204203,2.07233 0.225433,11.94369 0.02786,12.95291 -0.193482,0.98832 -0.339842,0.94431 -0.499724,-0.15026 z m -5.288198,10e-4 c -0.145857,-0.76745 -0.325216,-3.25322 -0.569312,-7.89027 -0.07661,-1.45521 -0.198866,-3.47927 -0.271696,-4.49792 -0.13799,-1.93006 -0.252497,-3.83482 -0.524885,-8.73125 -0.08905,-1.60073 -0.208055,-3.32713 -0.264462,-3.83646 -0.05641,-0.50932 -0.174667,-1.93807 -0.262803,-3.175 -0.269748,-3.78579 -1.697074,-15.00044 -2.407721,-18.91771 -1.324174,-7.29915 -2.615335,-11.89848 -4.215149,-15.01507 -0.803018,-1.56434 -1.408649,-2.84427 -1.34585,-2.84427 0.322617,0 2.23756,3.05264 3.140072,5.00565 1.827162,3.9539 3.084124,8.65468 3.896879,14.57352 0.289745,2.11005 0.582228,4.13412 0.649967,4.49792 0.324046,1.74036 1.198184,9.43053 1.349656,11.87346 0.09362,1.50993 0.209221,2.99821 0.256894,3.30729 0.157205,1.01922 0.428654,4.66802 0.789781,10.61612 0.131191,2.16085 0.162317,15.53875 0.03645,15.66462 -0.06377,0.0638 -0.179785,-0.22001 -0.257818,-0.63059 z m -0.702226,-24.32563 c 0,-0.21828 -0.119062,-0.32329 -0.264583,-0.23336 -0.145521,0.0899 -0.264583,0.34212 -0.264583,0.5604 0,0.21828 0.119062,0.32329 0.264583,0.23335 0.145521,-0.0899 0.264583,-0.34211 0.264583,-0.56039 z m 8.982364,24.09508 c -0.0074,-0.13824 -0.135348,-1.56104 -0.284306,-3.16177 -0.148957,-1.60073 -0.423378,-5.11307 -0.609819,-7.80521 -0.186442,-2.69213 -0.357656,-4.89479 -0.380479,-4.89479 -0.02281,0 -0.09199,-1.54781 -0.153715,-3.43958 -0.16437,-5.03779 -1.586233,-17.76774 -2.186879,-19.57917 -0.09651,-0.29104 -0.198784,-0.6563 -0.227288,-0.81169 -2.133425,-11.63098 -5.359516,-19.65643 -9.607034,-23.89911 -1.50881,-1.50709 -2.416924,-2.25205 -3.384806,-2.77666 -0.410848,-0.2227 -0.611736,-0.40966 -0.446416,-0.41549 0.544126,-0.0192 3.643405,2.21019 4.949119,3.56 2.215612,2.29042 5.197816,7.18004 6.392306,10.48081 1.324491,3.66002 2.575465,8.75482 3.176321,12.9361 0.240482,1.67349 0.502994,3.48919 0.583358,4.03489 0.08036,0.54571 0.273315,0.99219 0.428779,0.99219 0.196987,0 0.198657,0.084 0.0055,0.27716 -0.193148,0.19314 -0.171389,0.88535 0.07179,2.28378 0.59672,3.4315 0.675288,4.05417 1.125371,8.919 0.412038,4.45357 0.475049,4.75773 1.067112,5.15084 l 0.629216,0.41778 -0.18783,-2.76959 c -0.314791,-4.64164 -0.404437,-5.57683 -0.55848,-5.82608 -0.08141,-0.13173 -0.201686,-0.96786 -0.267271,-1.85806 -0.228365,-3.09974 -1.209199,-9.39687 -2.016274,-12.94483 -1.794367,-7.88815 -3.514304,-12.69308 -6.36688,-17.78695 -1.209299,-2.15945 -5.006316,-6.08937 -7.029574,-7.27563 -1.448496,-0.84926 -1.266055,-1.09064 0.242607,-0.32098 1.629545,0.83133 4.3948,3.10196 5.810779,4.77139 1.102961,1.30039 3.152841,4.29852 3.152841,4.61131 0,0.0707 0.305057,0.75295 0.677905,1.51622 0.372848,0.76327 0.83662,1.80448 1.03061,2.31381 0.193987,0.50932 0.604695,1.58088 0.912686,2.38125 0.307991,0.80036 0.80359,2.34817 1.10133,3.43958 0.297744,1.09141 0.616083,2.16297 0.70742,2.38125 0.33002,0.78868 2.33894,11.76925 2.710743,14.81667 0.534615,4.38187 0.786043,7.04489 0.92428,9.78958 0.145206,2.88303 0.330332,6.09151 0.625922,10.84792 0.09495,1.52797 0.113114,4.02828 0.04035,5.55625 l -0.132292,2.77812 -0.338121,-2.24895 c -0.37111,-2.46837 -0.473956,-3.80524 -0.732764,-9.525 -0.175794,-3.88514 -0.400878,-4.76856 -1.072875,-4.21085 -0.274478,0.22779 -0.326231,1.07348 -0.230933,3.77357 0.06755,1.91399 0.187891,4.19436 0.267422,5.06748 0.267777,2.93983 0.199737,8.09879 -0.110908,8.40943 -0.162449,0.16245 -0.301424,0.18226 -0.308832,0.044 z m 6.792425,-2.24632 c -0.14773,-1.16766 -0.339222,-3.93101 -0.569909,-8.22412 -0.0655,-1.21898 -0.237054,-4.00227 -0.381233,-6.18508 -0.144177,-2.18281 -0.336482,-5.15937 -0.427342,-6.61458 -0.225809,-3.6165 -0.273084,-4.14873 -0.61105,-6.87917 -1.499566,-12.11517 -4.449815,-21.59785 -8.890254,-28.575 -1.028451,-1.61598 -5.161029,-5.95313 -5.672341,-5.95313 -0.511596,0 -0.29265,0.38756 0.63881,1.13078 1.883672,1.50298 4.654844,5.4441 6.274427,8.92339 2.902685,6.23572 5.524934,16.92987 6.682324,27.25208 0.790869,7.0534 0.879497,8.58788 1.081183,18.71928 0.149257,7.49777 -0.184409,9.9414 -0.505791,3.70416 -0.709162,-13.76322 -0.920866,-16.94476 -1.227994,-18.45469 -0.133199,-0.65484 -0.310031,-2.02406 -0.392957,-3.0427 -0.421449,-5.17696 -1.752711,-13.38463 -2.278427,-14.04726 -0.126074,-0.15891 -0.168537,-0.34962 -0.09436,-0.4238 0.07418,-0.0742 -0.103912,-0.89666 -0.395758,-1.82774 -0.291844,-0.93108 -0.532159,-1.84552 -0.534038,-2.0321 -0.0019,-0.18657 -0.200395,-0.78188 -0.44115,-1.32291 -0.240758,-0.54103 -0.42186,-1.06547 -0.40245,-1.16542 0.07768,-0.39997 -2.069378,-6.29205 -2.9708,-8.15265 -1.198396,-2.47357 -1.76185,-3.38917 -3.419282,-5.55625 -1.439968,-1.88275 -1.931815,-2.35977 -4.242067,-4.11422 -1.751155,-1.32986 -1.753383,-1.50784 -0.0061,-0.48384 0.650952,0.38148 1.243962,0.63319 1.317802,0.55934 0.190146,-0.19014 -1.309949,-1.04392 -3.38901,-1.92886 -1.900209,-0.80881 -2.219418,-1.17468 -0.557189,-0.63865 3.992724,1.28757 8.826905,4.76047 11.00034,7.9027 1.009052,1.45883 3.176331,5.59703 3.913373,7.47219 0.306501,0.77979 0.721164,1.77499 0.921475,2.21155 1.280263,2.79024 2.443192,6.74318 3.191388,10.84792 0.212201,1.16416 0.490958,2.47385 0.619464,2.91041 0.128505,0.43657 0.302202,1.38907 0.385995,2.11667 0.08379,0.7276 0.212058,1.6801 0.285033,2.11667 0.430533,2.57564 0.92919,7.32285 1.07001,10.18646 0.08945,1.81901 0.210912,3.78354 0.269914,4.36562 0.30103,2.96975 0.448739,15.41532 0.188474,15.88039 -0.23993,0.42873 -0.303197,0.32918 -0.430554,-0.67744 z m 4.785651,0.40747 c -0.198056,-0.61063 -0.37416,-3.47494 -0.593746,-9.65729 -0.08528,-2.4011 -0.201009,-5.02047 -0.257167,-5.82084 -0.238945,-3.40537 -0.466667,-6.82889 -0.527973,-7.9375 -0.385906,-6.97809 -2.723793,-17.87767 -5.022493,-23.41562 -0.958998,-2.31039 -2.099958,-4.77842 -2.262841,-4.8948 -0.101835,-0.0728 -0.511747,-0.78713 -0.910915,-1.5875 -2.87799,-5.7706 -7.507923,-10.4126 -11.779055,-11.80976 -0.800364,-0.26181 -1.255527,-0.51675 -1.011473,-0.56652 0.739601,-0.15085 4.38117,1.51525 6.044129,2.76531 2.161926,1.62515 4.449696,4.19224 6.543114,7.34196 0.974513,1.46624 1.864254,2.70558 1.977202,2.75408 0.112948,0.0485 0.205362,0.29053 0.205362,0.53783 0,0.24729 0.415197,1.23154 0.92266,2.18721 1.228722,2.31397 2.33109,5.41849 3.463671,9.75448 2.100577,8.04189 2.881498,12.73202 3.171888,19.05 0.115364,2.50999 0.302488,4.17645 0.482325,4.29543 0.201854,0.13353 0.185288,0.19565 -0.05292,0.19843 -0.266822,0.003 -0.310981,0.41572 -0.191572,1.78999 0.25395,2.92268 0.37537,13.65076 0.165627,14.63398 -0.160131,0.75065 -0.22429,0.81749 -0.365823,0.38113 z m -2.137275,-0.68678 c -0.202268,-1.01134 -0.363654,-3.26079 -0.710033,-9.89656 -0.144322,-2.76489 -0.371467,-6.45583 -0.504761,-8.20208 -0.133297,-1.74625 -0.31345,-4.1275 -0.400339,-5.29167 -0.303614,-4.06786 -0.712023,-7.169 -1.376362,-10.45104 -0.3682,-1.81901 -0.757629,-3.84307 -0.865402,-4.49792 -0.107773,-0.65484 -0.458989,-1.905 -0.780476,-2.77812 -0.32149,-0.87313 -0.624128,-1.82654 -0.672531,-2.11871 -0.04841,-0.29216 -0.289258,-1.00654 -0.535231,-1.5875 -0.245975,-0.58096 -0.629068,-1.59207 -0.851315,-2.24692 -0.669719,-1.97328 -3.736444,-7.66929 -5.17098,-9.60438 -2.142628,-2.89025 -5.639612,-5.79931 -8.853464,-7.36501 -1.503164,-0.73229 -2.665642,-1.44048 -2.583283,-1.57373 0.08236,-0.13326 0.209272,-0.24229 0.282033,-0.24229 0.07276,0 0.05576,0.12383 -0.03778,0.27519 -0.108378,0.17535 0.05618,0.2184 0.453626,0.11864 0.343035,-0.0861 0.918556,-0.028 1.27894,0.12915 0.59227,0.25824 0.59803,0.27464 0.05993,0.17071 -0.853583,-0.16487 -0.737283,0.27164 0.130397,0.48942 0.39914,0.10017 1.738593,0.73219 2.976562,1.40449 2.276438,1.23624 4.86142,3.534 6.962434,6.18881 1.736336,2.19401 4.880777,7.86633 5.311063,9.58073 0.09564,0.38107 0.297717,0.69286 0.449054,0.69286 0.151336,0 0.207086,0.11014 0.123888,0.24475 -0.08319,0.13462 -0.01588,0.5811 0.149622,0.99219 0.834731,2.07354 1.08268,2.76047 1.17706,3.26097 0.04116,0.21829 0.328991,1.28985 0.639619,2.38125 0.898179,3.15578 1.246998,4.71396 1.688061,7.54063 1.541131,9.87674 1.892943,14.94734 2.016768,29.06746 0.035,3.99073 -0.05514,4.82844 -0.357093,3.31868 z m -60.3164835,-0.6823 c -0.2794487,-0.98177 -0.4635582,-4.34724 -0.5654352,-10.33599 -0.05753,-3.38188 -0.1726502,-6.25897 -0.2558217,-6.39355 -0.083172,-0.13457 -0.033473,-0.28461 0.1104411,-0.33342 0.1439143,-0.0488 0.5769911,-2.82718 0.9623933,-6.17416 0.7733839,-6.71637 0.7897929,-6.8415 1.1449227,-8.73125 0.1367345,-0.72761 0.2557055,-1.53128 0.2643801,-1.78594 0.020915,-0.61401 -0.9634757,-0.61401 -1.1400753,0 -0.291161,1.01232 -1.2221609,6.14057 -1.4770248,8.13594 -0.1486963,1.16416 -0.3339721,2.59291 -0.4117237,3.175 -0.5139269,3.84749 -0.9255849,10.96217 -1.0688976,18.47375 -0.038375,2.01139 -0.132892,3.7202 -0.2100371,3.79735 -0.6278014,0.6278 -0.7935711,-12.29783 -0.2245458,-17.5086 0.1906935,-1.74625 0.5251853,-4.84188 0.7433149,-6.87917 0.872409,-8.14814 2.0231912,-13.80562 3.826514,-18.81194 0.4245988,-1.17875 0.7719975,-2.3158 0.7719975,-2.52677 0,-0.21097 0.095168,-0.49669 0.2114844,-0.63494 0.1163167,-0.13824 0.6169067,-1.20385 1.1124227,-2.36802 0.495517,-1.16416 1.293011,-2.77151 1.772211,-3.57187 0.479199,-0.80037 0.871578,-1.55154 0.871952,-1.66927 0.0025,-0.79592 4.732968,-6.05822 7.458132,-8.29668 1.244992,-1.02264 6.125391,-3.29148 7.363607,-3.42325 l 1.186232,-0.12625 -1.436026,0.61476 c -0.789813,0.33812 -1.483708,0.75781 -1.541987,0.93264 -0.05828,0.17484 0.683103,-0.0514 1.647514,-0.50266 0.964411,-0.4513 1.80699,-0.76704 1.872393,-0.70164 0.06541,0.0654 -0.702969,0.56945 -1.707494,1.12009 -1.004526,0.55064 -2.202354,1.34454 -2.661839,1.76421 -0.459485,0.41968 -0.903171,0.76305 -0.985968,0.76305 -0.334978,0 -5.373051,5.38143 -5.373051,5.73924 0,0.12571 -0.208359,0.42206 -0.463021,0.65854 -0.254661,0.23648 -0.760677,0.86132 -1.124479,1.38853 -0.363802,0.52721 -0.856612,1.19662 -1.095133,1.48757 -0.238522,0.29095 -0.58895,0.91296 -0.778729,1.38225 -0.189779,0.46928 -0.429635,0.91277 -0.533013,0.98553 -0.103378,0.0728 -0.427474,0.78714 -0.720213,1.5875 -0.292739,0.80037 -0.791588,2.11006 -1.108553,2.91042 -1.47401,3.722 -2.674633,8.29555 -4.0632288,15.47813 -0.4962059,2.56664 -1.0218105,5.93947 -1.0101667,6.48229 0.00468,0.21828 -0.09472,0.99219 -0.2208948,1.71979 -0.3045632,1.75631 -0.4794594,5.55565 -0.6820596,14.81667 -0.092322,4.2201 -0.2027709,7.71165 -0.2454421,7.759 -0.042671,0.0473 -0.1394446,-0.13125 -0.2150525,-0.39688 z M 9.220528,223.4975 c 0.040427,-0.46447 0.1083027,-0.82074 0.2268368,-1.19062 0.095806,-0.29896 0.1546048,-0.52093 0.3679452,-1.38906 0.378166,-1.53884 2.306274,-7.67871 2.553809,-8.13235 0.137881,-0.25269 0.250693,-0.62739 0.250693,-0.83268 0,-0.20529 0.625078,-1.58349 1.389062,-3.06267 1.743625,-3.3759 1.921769,-3.69209 2.284461,-4.05479 0.162375,-0.16237 0.295227,-0.43504 0.295227,-0.60592 0,-0.17089 0.416718,-0.76566 0.926041,-1.32171 0.509323,-0.55605 0.926042,-1.16633 0.926042,-1.35617 0,-0.18985 0.119062,-0.34517 0.264583,-0.34517 0.145521,0 0.264584,-0.11476 0.264584,-0.25503 0,-0.37056 1.878555,-2.10099 4.824103,-4.44372 1.41633,-1.12647 2.447391,-2.09139 2.291246,-2.14428 -0.156145,-0.0529 -0.779179,0.27677 -1.38452,0.73256 -0.605342,0.45579 -1.814996,1.32552 -2.688121,1.93273 -2.024829,1.40816 -4.221527,3.61777 -5.563086,5.5958 -2.730681,4.02617 -2.546442,3.69621 -4.748268,8.50381 -1.024536,2.23704 -2.254542,5.90724 -2.7931234,8.33438 -0.1776007,0.80036 -0.4271391,1.80039 -0.5545291,2.22229 -0.4139311,1.37088 -0.2956316,2.27562 0.2975481,2.27562 0.3122271,0 0.5456883,-0.18982 0.5694664,-0.46302 z m 62.883361,34.1974 c -0.08956,-0.14552 -0.242388,-2.34818 -0.339622,-4.89479 -0.229854,-6.01996 -0.33224,-7.75351 -0.656326,-11.1125 -0.147423,-1.52797 -0.395374,-4.20688 -0.551,-5.95313 -0.155625,-1.74625 -0.404786,-4.24656 -0.553693,-5.55625 -0.360378,-3.16966 -2.391706,-11.36271 -3.674576,-14.82086 -1.241681,-3.34711 -3.431111,-8.0656 -3.742528,-8.0656 -0.123566,0 -0.224666,-0.16657 -0.224666,-0.37017 0,-0.41565 -2.882239,-4.52139 -4.796414,-6.83247 -3.165002,-3.82127 -7.120112,-6.06691 -12.2301,-6.94403 -0.560573,-0.0962 -0.953842,-0.24033 -0.873927,-0.32025 0.301805,-0.3018 5.123328,0.78833 6.751135,1.52641 5.188119,2.3524 10.785533,8.78917 14.853846,17.08123 0.581879,1.18598 1.05796,2.34243 1.05796,2.56989 0,0.4431 0.890892,2.91135 1.324909,3.6707 0.144425,0.25269 0.262591,0.67536 0.262591,0.93927 0,0.26391 0.142875,0.62272 0.3175,0.79734 0.174625,0.17463 0.246695,0.3175 0.160155,0.3175 -0.08654,0 -0.04976,0.44649 0.08173,0.99219 0.7766,3.22302 1.126601,5.01137 1.527577,7.80521 1.28447,8.94972 1.633614,12.93636 1.778439,20.30677 0.121325,6.17444 -0.05814,9.53761 -0.472987,8.86354 z M 7.3607196,216.14534 c 0.031194,-0.5766 0.196787,-1.46508 0.3679844,-1.9744 0.1711973,-0.50932 0.5884066,-1.81901 0.9271314,-2.91042 0.3387249,-1.0914 0.7143451,-2.09748 0.8347115,-2.23573 0.1203664,-0.13824 0.218848,-0.40159 0.218848,-0.58521 0,-0.61177 1.9282061,-4.40635 3.0665571,-6.03477 1.946652,-2.78472 5.426516,-6.14252 8.093948,-7.81006 3.159602,-1.97521 5.249259,-2.79991 7.738108,-3.0539 2.287058,-0.2334 2.252686,0.20879 -0.04705,0.6053 -2.429701,0.41892 -6.945312,2.35653 -6.945312,2.98017 0,0.14256 -0.187637,0.2592 -0.416972,0.2592 -1.084235,0 -5.101653,3.78845 -7.308796,6.89224 -1.333052,1.8746 -4.1804821,7.19979 -4.1804821,7.81823 0,0.21417 -0.1655379,0.6531 -0.3678621,0.9754 -0.2023242,0.32231 -0.6960717,1.77663 -1.0972168,3.23184 -0.4011448,1.45521 -0.7768201,2.70088 -0.8348337,2.76815 -0.058014,0.0673 -0.079957,-0.34945 -0.048764,-0.92604 z m 55.6525884,-11.425 c -1.111554,-1.71054 -4.538141,-5.87373 -5.976186,-7.26087 -3.109944,-2.99986 -7.608229,-4.92765 -12.093599,-5.18284 -1.357947,-0.0773 -2.331701,-0.22532 -2.1639,-0.32903 0.301578,-0.18638 1.505601,-0.15345 4.673225,0.12782 3.871677,0.3438 8.888356,3.13058 11.784634,6.54641 1.127442,1.32969 3.388579,4.58435 3.388579,4.8775 0,0.0764 0.251114,0.49154 0.55803,0.92256 0.306917,0.43103 0.50164,0.84008 0.432716,0.909 -0.06892,0.0689 -0.340498,-0.20582 -0.603499,-0.61055 z m -23.70433,-8.47492 c -0.329107,-0.41964 -0.319749,-0.429 0.0999,-0.0999 0.44073,0.34565 0.580887,0.56292 0.363125,0.56292 -0.05494,0 -0.2633,-0.20836 -0.463021,-0.46302 z m 1.728404,-0.39688 -0.504029,-0.59531 0.595313,0.50403 c 0.559445,0.47366 0.715761,0.6866 0.504028,0.6866 -0.05021,0 -0.318098,-0.26789 -0.595312,-0.59532 z m -23.369599,0.18393 c -0.01149,-0.15351 0.533417,-0.74882 1.210902,-1.32292 0.677484,-0.5741 1.365717,-1.16288 1.529406,-1.3084 1.747517,-1.55356 5.269668,-2.77813 7.990542,-2.77813 1.920819,0 1.294344,0.4397 -0.889494,0.6243 -1.654646,0.13987 -2.466918,0.38229 -4.264149,1.27259 -1.221079,0.6049 -2.798086,1.55665 -3.504461,2.115 -0.706375,0.55836 -1.39696,1.0152 -1.534635,1.0152 -0.137675,0 -0.310372,0.14883 -0.383771,0.33073 -0.0734,0.1819 -0.142852,0.20513 -0.15434,0.0516 z m 36.227028,-2.37565 c -3.775101,-1.95526 -5.094181,-2.316 -9.118817,-2.49381 -3.011847,-0.13306 -3.486703,-0.20365 -2.513253,-0.37358 1.400818,-0.24455 5.10227,-0.0625 7.001862,0.34446 1.479301,0.31689 5.488361,2.26898 6.141072,2.99022 0.537493,0.59392 0.538871,0.59434 -1.510864,-0.46729 z"
       id="path4849"
       inkscape:connector-curvature="0" />
  </g>
</svg>
